<?xml version="1.0" encoding="UTF-8" standalone="no"?>
<!DOCTYPE svg PUBLIC "-//W3C//DTD SVG 1.1//EN"
 "http://www.w3.org/Graphics/SVG/1.1/DTD/svg11.dtd">
<!-- Generated by graphviz version 2.40.1 (20161225.0304)
 -->
<!-- Title: PHG4ParticleGeneratorBase::get_pdgcode Pages: 1 -->
<svg width="564pt" height="1034pt"
 viewBox="0.00 0.00 564.00 1034.00" xmlns="http://www.w3.org/2000/svg" xmlns:xlink="http://www.w3.org/1999/xlink">
<g id="graph0" class="graph" transform="scale(1 1) rotate(0) translate(4 1030)">
<title>PHG4ParticleGeneratorBase::get_pdgcode</title>
<!-- Node1 -->
<g id="node1" class="node">
<title>Node1</title>
<polygon fill="#bfbfbf" stroke="#000000" points="0,-865.5 0,-897.5 157,-897.5 157,-865.5 0,-865.5"/>
<text text-anchor="start" x="8" y="-884.5" font-family="FreeSans" font-size="10.00" fill="#000000">PHG4ParticleGeneratorBase</text>
<text text-anchor="middle" x="78.5" y="-872.5" font-family="FreeSans" font-size="10.00" fill="#000000">::get_pdgcode</text>
</g>
<!-- Node2 -->
<g id="node2" class="node">
<title>Node2</title>
<g id="a_node2"><a xlink:href="../../d8/d78/classPHG4ParticleGeneratorBase.html#a41b62f420dda09218795b7707d7cd261" target="_top" xlink:title="PHG4ParticleGeneratorBase\l::AddParticle">
<polygon fill="none" stroke="#000000" points="194.5,-942.5 194.5,-974.5 351.5,-974.5 351.5,-942.5 194.5,-942.5"/>
<text text-anchor="start" x="202.5" y="-961.5" font-family="FreeSans" font-size="10.00" fill="#000000">PHG4ParticleGeneratorBase</text>
<text text-anchor="middle" x="273" y="-949.5" font-family="FreeSans" font-size="10.00" fill="#000000">::AddParticle</text>
</a>
</g>
</g>
<!-- Node1&#45;&gt;Node2 -->
<g id="edge1" class="edge">
<title>Node1&#45;&gt;Node2</title>
<path fill="none" stroke="#191970" d="M120.2731,-901.9715C141.7408,-912.1064 168.4801,-924.1419 193,-933.5 201.1569,-936.6131 209.8848,-939.6402 218.4679,-942.4507"/>
<polygon fill="#191970" stroke="#191970" points="121.6468,-898.7492 111.1132,-897.6119 118.6385,-905.0698 121.6468,-898.7492"/>
</g>
<!-- Node5 -->
<g id="node5" class="node">
<title>Node5</title>
<g id="a_node5"><a xlink:href="../../d5/df3/classPHG4SimpleEventGenerator.html#a4a7065a5083bd5b21c3743f8e224065b" target="_top" xlink:title="PHG4SimpleEventGenerator\l::process_event">
<polygon fill="none" stroke="#000000" points="193,-840.5 193,-872.5 353,-872.5 353,-840.5 193,-840.5"/>
<text text-anchor="start" x="201" y="-859.5" font-family="FreeSans" font-size="10.00" fill="#000000">PHG4SimpleEventGenerator</text>
<text text-anchor="middle" x="273" y="-847.5" font-family="FreeSans" font-size="10.00" fill="#000000">::process_event</text>
</a>
</g>
</g>
<!-- Node1&#45;&gt;Node5 -->
<g id="edge4" class="edge">
<title>Node1&#45;&gt;Node5</title>
<path fill="none" stroke="#191970" d="M167.0876,-870.1134C175.6878,-869.008 184.379,-867.8909 192.8894,-866.797"/>
<polygon fill="#191970" stroke="#191970" points="166.5221,-866.6572 157.05,-871.4036 167.4146,-873.6001 166.5221,-866.6572"/>
</g>
<!-- Node6 -->
<g id="node6" class="node">
<title>Node6</title>
<g id="a_node6"><a xlink:href="../../d8/d78/classPHG4ParticleGeneratorBase.html#ad3bece97c2350072c683575ab5bdb53c" target="_top" xlink:title="PHG4ParticleGeneratorBase\l::set_name">
<polygon fill="none" stroke="#000000" points="194.5,-377.5 194.5,-409.5 351.5,-409.5 351.5,-377.5 194.5,-377.5"/>
<text text-anchor="start" x="202.5" y="-396.5" font-family="FreeSans" font-size="10.00" fill="#000000">PHG4ParticleGeneratorBase</text>
<text text-anchor="middle" x="273" y="-384.5" font-family="FreeSans" font-size="10.00" fill="#000000">::set_name</text>
</a>
</g>
</g>
<!-- Node1&#45;&gt;Node6 -->
<g id="edge5" class="edge">
<title>Node1&#45;&gt;Node6</title>
<path fill="none" stroke="#191970" d="M88.7461,-855.7926C123.7481,-767.9726 237.9867,-481.3483 266.5043,-409.7976"/>
<polygon fill="#191970" stroke="#191970" points="85.4226,-854.6781 84.9714,-865.2634 91.9251,-857.2699 85.4226,-854.6781"/>
</g>
<!-- Node26 -->
<g id="node26" class="node">
<title>Node26</title>
<g id="a_node26"><a xlink:href="../../d8/d78/classPHG4ParticleGeneratorBase.html#a809a8ffdabce2e45789c96023769462e" target="_top" xlink:title="PHG4ParticleGeneratorBase\l::SetParticleId">
<polygon fill="none" stroke="#000000" points="194.5,-891.5 194.5,-923.5 351.5,-923.5 351.5,-891.5 194.5,-891.5"/>
<text text-anchor="start" x="202.5" y="-910.5" font-family="FreeSans" font-size="10.00" fill="#000000">PHG4ParticleGeneratorBase</text>
<text text-anchor="middle" x="273" y="-898.5" font-family="FreeSans" font-size="10.00" fill="#000000">::SetParticleId</text>
</a>
</g>
</g>
<!-- Node1&#45;&gt;Node26 -->
<g id="edge25" class="edge">
<title>Node1&#45;&gt;Node26</title>
<path fill="none" stroke="#191970" d="M167.2454,-893.3631C176.3283,-894.5773 185.5109,-895.8048 194.473,-897.0028"/>
<polygon fill="#191970" stroke="#191970" points="167.4256,-889.8562 157.05,-892.0003 166.498,-896.7945 167.4256,-889.8562"/>
</g>
<!-- Node3 -->
<g id="node3" class="node">
<title>Node3</title>
<g id="a_node3"><a xlink:href="../../d9/d78/classPHG4ParticleGeneratorD0.html#a0d5fb0589e341d72f767844ead51039a" target="_top" xlink:title="PHG4ParticleGeneratorD0\l::process_event">
<polygon fill="none" stroke="#000000" points="399,-993.5 399,-1025.5 546,-1025.5 546,-993.5 399,-993.5"/>
<text text-anchor="start" x="407" y="-1012.5" font-family="FreeSans" font-size="10.00" fill="#000000">PHG4ParticleGeneratorD0</text>
<text text-anchor="middle" x="472.5" y="-1000.5" font-family="FreeSans" font-size="10.00" fill="#000000">::process_event</text>
</a>
</g>
</g>
<!-- Node2&#45;&gt;Node3 -->
<g id="edge2" class="edge">
<title>Node2&#45;&gt;Node3</title>
<path fill="none" stroke="#191970" d="M345.6619,-977.0752C366.6229,-982.4337 389.3107,-988.2336 409.6241,-993.4264"/>
<polygon fill="#191970" stroke="#191970" points="346.4045,-973.6526 335.8492,-974.5667 344.6708,-980.4345 346.4045,-973.6526"/>
</g>
<!-- Node4 -->
<g id="node4" class="node">
<title>Node4</title>
<g id="a_node4"><a xlink:href="../../d7/dc3/classPHG4ParticleGeneratorVectorMeson.html#a31f17c8146593b2d946cc4c2762d25ed" target="_top" xlink:title="PHG4ParticleGeneratorVector\lMeson::process_event">
<polygon fill="none" stroke="#000000" points="390,-942.5 390,-974.5 555,-974.5 555,-942.5 390,-942.5"/>
<text text-anchor="start" x="398" y="-961.5" font-family="FreeSans" font-size="10.00" fill="#000000">PHG4ParticleGeneratorVector</text>
<text text-anchor="middle" x="472.5" y="-949.5" font-family="FreeSans" font-size="10.00" fill="#000000">Meson::process_event</text>
</a>
</g>
</g>
<!-- Node2&#45;&gt;Node4 -->
<g id="edge3" class="edge">
<title>Node2&#45;&gt;Node4</title>
<path fill="none" stroke="#191970" d="M361.637,-958.5C370.9847,-958.5 380.4641,-958.5 389.7416,-958.5"/>
<polygon fill="#191970" stroke="#191970" points="361.5613,-955.0001 351.5613,-958.5 361.5613,-962.0001 361.5613,-955.0001"/>
</g>
<!-- Node7 -->
<g id="node7" class="node">
<title>Node7</title>
<g id="a_node7"><a xlink:href="../../d9/d0e/Fun4All__G4__EICIR_8C.html#ac3543d1dd4a0abed3987d40939ee3f87" target="_top" xlink:title="Fun4All_G4_EICIR">
<polygon fill="none" stroke="#000000" points="420.5,-129.5 420.5,-149.5 524.5,-149.5 524.5,-129.5 420.5,-129.5"/>
<text text-anchor="middle" x="472.5" y="-136.5" font-family="FreeSans" font-size="10.00" fill="#000000">Fun4All_G4_EICIR</text>
</a>
</g>
</g>
<!-- Node6&#45;&gt;Node7 -->
<g id="edge6" class="edge">
<title>Node6&#45;&gt;Node7</title>
<path fill="none" stroke="#191970" d="M278.1187,-367.5766C289.1865,-318.6742 320.1161,-212.8499 389,-158.5 397.9871,-151.4091 409.1221,-146.8649 420.2998,-143.9769"/>
<polygon fill="#191970" stroke="#191970" points="274.6918,-366.8648 275.9961,-377.3791 281.5332,-368.3463 274.6918,-366.8648"/>
</g>
<!-- Node8 -->
<g id="node8" class="node">
<title>Node8</title>
<g id="a_node8"><a xlink:href="../../d2/d47/Fun4All__EICAnalysis__DVCS_8C.html#a84f48142243e969fd353cc8509f0ba22" target="_top" xlink:title="Fun4All_EICAnalysis_DVCS">
<polygon fill="none" stroke="#000000" points="397.5,-90.5 397.5,-110.5 547.5,-110.5 547.5,-90.5 397.5,-90.5"/>
<text text-anchor="middle" x="472.5" y="-97.5" font-family="FreeSans" font-size="10.00" fill="#000000">Fun4All_EICAnalysis_DVCS</text>
</a>
</g>
</g>
<!-- Node6&#45;&gt;Node8 -->
<g id="edge7" class="edge">
<title>Node6&#45;&gt;Node8</title>
<path fill="none" stroke="#191970" d="M276.1683,-367.2445C284.2485,-312.3118 310.8359,-184.9404 389,-119.5 393.2178,-115.9688 397.9606,-113.0614 402.9886,-110.6714"/>
<polygon fill="#191970" stroke="#191970" points="272.691,-366.8404 274.7892,-377.2253 279.6251,-367.7985 272.691,-366.8404"/>
</g>
<!-- Node9 -->
<g id="node9" class="node">
<title>Node9</title>
<g id="a_node9"><a xlink:href="../../dd/d2a/Fun4All__G4__EICDetector__LQ_8C.html#aaa01242fd6e77ca43a9d49a6d46008e4" target="_top" xlink:title="Fun4All_G4_EICDetector_LQ">
<polygon fill="none" stroke="#000000" points="394.5,-51.5 394.5,-71.5 550.5,-71.5 550.5,-51.5 394.5,-51.5"/>
<text text-anchor="middle" x="472.5" y="-58.5" font-family="FreeSans" font-size="10.00" fill="#000000">Fun4All_G4_EICDetector_LQ</text>
</a>
</g>
</g>
<!-- Node6&#45;&gt;Node9 -->
<g id="edge8" class="edge">
<title>Node6&#45;&gt;Node9</title>
<path fill="none" stroke="#191970" d="M274.6344,-366.9903C279.8562,-306.4368 301.4165,-157.2871 389,-80.5 393.0245,-76.9716 397.5683,-74.0599 402.4058,-71.6611"/>
<polygon fill="#191970" stroke="#191970" points="271.1242,-366.987 273.8373,-377.2286 278.1031,-367.5304 271.1242,-366.987"/>
</g>
<!-- Node10 -->
<g id="node10" class="node">
<title>Node10</title>
<g id="a_node10"><a xlink:href="../../d4/df5/Fun4All__G4__EICDetector__LQ__reference_8C.html#a2feefc472f17f90b3cbe74897d049f75" target="_top" xlink:title="Fun4All_G4_EICDetector\l_LQ_reference">
<polygon fill="none" stroke="#000000" points="403,-.5 403,-32.5 542,-32.5 542,-.5 403,-.5"/>
<text text-anchor="start" x="411" y="-19.5" font-family="FreeSans" font-size="10.00" fill="#000000">Fun4All_G4_EICDetector</text>
<text text-anchor="middle" x="472.5" y="-7.5" font-family="FreeSans" font-size="10.00" fill="#000000">_LQ_reference</text>
</a>
</g>
</g>
<!-- Node6&#45;&gt;Node10 -->
<g id="edge9" class="edge">
<title>Node6&#45;&gt;Node10</title>
<path fill="none" stroke="#191970" d="M278.3739,-367.2264C293.8934,-293.7456 340.7583,-88.4362 389,-41.5 393.1214,-37.4901 397.8592,-34.1198 402.9394,-31.2875"/>
<polygon fill="#191970" stroke="#191970" points="274.9351,-366.5722 276.3152,-377.0768 281.787,-368.0043 274.9351,-366.5722"/>
</g>
<!-- Node11 -->
<g id="node11" class="node">
<title>Node11</title>
<g id="a_node11"><a xlink:href="../../d5/d01/Fun4All__G4__LeadBrick_8C.html#a5fcd8843f8a815feb3b053eaabd60d41" target="_top" xlink:title="Fun4All_G4_LeadBrick">
<polygon fill="none" stroke="#000000" points="408.5,-750.5 408.5,-770.5 536.5,-770.5 536.5,-750.5 408.5,-750.5"/>
<text text-anchor="middle" x="472.5" y="-757.5" font-family="FreeSans" font-size="10.00" fill="#000000">Fun4All_G4_LeadBrick</text>
</a>
</g>
</g>
<!-- Node6&#45;&gt;Node11 -->
<g id="edge10" class="edge">
<title>Node6&#45;&gt;Node11</title>
<path fill="none" stroke="#191970" d="M278.2621,-419.6415C293.4857,-492.728 339.6431,-696.7583 389,-741.5 394.6176,-746.5924 401.311,-750.4098 408.4284,-753.2582"/>
<polygon fill="#191970" stroke="#191970" points="281.6894,-418.9311 276.2438,-409.8429 274.8333,-420.3434 281.6894,-418.9311"/>
</g>
<!-- Node12 -->
<g id="node12" class="node">
<title>Node12</title>
<g id="a_node12"><a xlink:href="../../d3/d51/Fun4All__G4__EICDetector__RICH_8C.html#a5739502b0a7a1ba782c01069f77e933f" target="_top" xlink:title="Fun4All_G4_EICDetector_RICH">
<polygon fill="none" stroke="#000000" points="389,-711.5 389,-731.5 556,-731.5 556,-711.5 389,-711.5"/>
<text text-anchor="middle" x="472.5" y="-718.5" font-family="FreeSans" font-size="10.00" fill="#000000">Fun4All_G4_EICDetector_RICH</text>
</a>
</g>
</g>
<!-- Node6&#45;&gt;Node12 -->
<g id="edge11" class="edge">
<title>Node6&#45;&gt;Node12</title>
<path fill="none" stroke="#191970" d="M274.7485,-419.6797C280.2102,-479.4778 302.2402,-626.7576 389,-702.5 393.0319,-706.0199 397.581,-708.9255 402.4222,-711.3201"/>
<polygon fill="#191970" stroke="#191970" points="278.2246,-419.2454 273.9097,-409.5691 271.2486,-419.8243 278.2246,-419.2454"/>
</g>
<!-- Node13 -->
<g id="node13" class="node">
<title>Node13</title>
<g id="a_node13"><a xlink:href="../../da/dd0/Fun4All__G4__sPHENIX__photonjet_8C.html#a6f18519e216acc05399e562ea57ea77c" target="_top" xlink:title="Fun4All_G4_sPHENIX\l_photonjet">
<polygon fill="none" stroke="#000000" points="412,-660.5 412,-692.5 533,-692.5 533,-660.5 412,-660.5"/>
<text text-anchor="start" x="420" y="-679.5" font-family="FreeSans" font-size="10.00" fill="#000000">Fun4All_G4_sPHENIX</text>
<text text-anchor="middle" x="472.5" y="-667.5" font-family="FreeSans" font-size="10.00" fill="#000000">_photonjet</text>
</a>
</g>
</g>
<!-- Node6&#45;&gt;Node13 -->
<g id="edge12" class="edge">
<title>Node6&#45;&gt;Node13</title>
<path fill="none" stroke="#191970" d="M277.3333,-419.6174C287.3345,-471.5804 316.9317,-588.344 389,-651.5 395.6008,-657.2845 403.4967,-661.7312 411.7621,-665.1493"/>
<polygon fill="#191970" stroke="#191970" points="280.7345,-418.76 275.4883,-409.5552 273.8493,-420.0225 280.7345,-418.76"/>
</g>
<!-- Node14 -->
<g id="node14" class="node">
<title>Node14</title>
<g id="a_node14"><a xlink:href="../../da/d85/Fun4All__G4__sPHENIX__photons_8C.html#a02fbbd59878fe1299f58ed187e7214ba" target="_top" xlink:title="Fun4All_G4_sPHENIX\l_photons">
<polygon fill="none" stroke="#000000" points="412,-609.5 412,-641.5 533,-641.5 533,-609.5 412,-609.5"/>
<text text-anchor="start" x="420" y="-628.5" font-family="FreeSans" font-size="10.00" fill="#000000">Fun4All_G4_sPHENIX</text>
<text text-anchor="middle" x="472.5" y="-616.5" font-family="FreeSans" font-size="10.00" fill="#000000">_photons</text>
</a>
</g>
</g>
<!-- Node6&#45;&gt;Node14 -->
<g id="edge13" class="edge">
<title>Node6&#45;&gt;Node14</title>
<path fill="none" stroke="#191970" d="M280.4267,-419.3531C294.355,-463.2007 328.5796,-552.0924 389,-600.5 395.7314,-605.8931 403.6049,-610.124 411.778,-613.4428"/>
<polygon fill="#191970" stroke="#191970" points="283.7493,-418.2499 277.4652,-409.72 277.0584,-420.307 283.7493,-418.2499"/>
</g>
<!-- Node15 -->
<g id="node15" class="node">
<title>Node15</title>
<g id="a_node15"><a xlink:href="../../de/d55/Fun4All__G4__sPHENIX__truthphotonjet_8C.html#a48a6f4503eaa1b3793d8ae572aa795b9" target="_top" xlink:title="Fun4All_G4_sPHENIX\l_truthphotonjet">
<polygon fill="none" stroke="#000000" points="412,-558.5 412,-590.5 533,-590.5 533,-558.5 412,-558.5"/>
<text text-anchor="start" x="420" y="-577.5" font-family="FreeSans" font-size="10.00" fill="#000000">Fun4All_G4_sPHENIX</text>
<text text-anchor="middle" x="472.5" y="-565.5" font-family="FreeSans" font-size="10.00" fill="#000000">_truthphotonjet</text>
</a>
</g>
</g>
<!-- Node6&#45;&gt;Node15 -->
<g id="edge14" class="edge">
<title>Node6&#45;&gt;Node15</title>
<path fill="none" stroke="#191970" d="M285.245,-418.9132C303.2154,-453.541 339.9849,-515.1578 389,-549.5 395.9402,-554.3626 403.8396,-558.2941 411.9465,-561.4691"/>
<polygon fill="#191970" stroke="#191970" points="288.3232,-417.2446 280.6804,-409.9072 282.0794,-420.4093 288.3232,-417.2446"/>
</g>
<!-- Node16 -->
<g id="node16" class="node">
<title>Node16</title>
<g id="a_node16"><a xlink:href="../../d4/d65/Fun4All__single__particle_8C.html#a8a492b5dbead494bfdddbebde8a49b0e" target="_top" xlink:title="Fun4All_single_particle">
<polygon fill="none" stroke="#000000" points="406.5,-519.5 406.5,-539.5 538.5,-539.5 538.5,-519.5 406.5,-519.5"/>
<text text-anchor="middle" x="472.5" y="-526.5" font-family="FreeSans" font-size="10.00" fill="#000000">Fun4All_single_particle</text>
</a>
</g>
</g>
<!-- Node6&#45;&gt;Node16 -->
<g id="edge15" class="edge">
<title>Node6&#45;&gt;Node16</title>
<path fill="none" stroke="#191970" d="M290.1928,-417.7174C310.6247,-444.6255 347.2507,-487.327 389,-510.5 395.4995,-514.1075 402.6454,-517.0307 409.9372,-519.3991"/>
<polygon fill="#191970" stroke="#191970" points="292.9179,-415.5166 284.1421,-409.5807 287.3008,-419.6938 292.9179,-415.5166"/>
</g>
<!-- Node17 -->
<g id="node17" class="node">
<title>Node17</title>
<g id="a_node17"><a xlink:href="../../da/d02/Fun4All__G4__EICDetector_8C.html#afbe82cefa1d1fd031d9a8586b7bb68c6" target="_top" xlink:title="Fun4All_G4_EICDetector">
<polygon fill="none" stroke="#000000" points="403,-480.5 403,-500.5 542,-500.5 542,-480.5 403,-480.5"/>
<text text-anchor="middle" x="472.5" y="-487.5" font-family="FreeSans" font-size="10.00" fill="#000000">Fun4All_G4_EICDetector</text>
</a>
</g>
</g>
<!-- Node6&#45;&gt;Node17 -->
<g id="edge16" class="edge">
<title>Node6&#45;&gt;Node17</title>
<path fill="none" stroke="#191970" d="M300.2804,-416.1146C322.7758,-433.669 356.2083,-457.3313 389,-471.5 397.325,-475.0971 406.4236,-478.0587 415.4545,-480.4835"/>
<polygon fill="#191970" stroke="#191970" points="302.2278,-413.1918 292.2185,-409.7183 297.877,-418.6755 302.2278,-413.1918"/>
</g>
<!-- Node18 -->
<g id="node18" class="node">
<title>Node18</title>
<g id="a_node18"><a xlink:href="../../d5/d2c/macros_2blob_2master_2macros_2g4simulations_2Fun4All__G4__sPHENIX_8C.html#a6eaaa492d7023ec86c562dc63aa1e5a4" target="_top" xlink:title="Fun4All_G4_sPHENIX">
<polygon fill="none" stroke="#000000" points="412,-441.5 412,-461.5 533,-461.5 533,-441.5 412,-441.5"/>
<text text-anchor="middle" x="472.5" y="-448.5" font-family="FreeSans" font-size="10.00" fill="#000000">Fun4All_G4_sPHENIX</text>
</a>
</g>
</g>
<!-- Node6&#45;&gt;Node18 -->
<g id="edge17" class="edge">
<title>Node6&#45;&gt;Node18</title>
<path fill="none" stroke="#191970" d="M326.8895,-412.8732C346.3318,-419.5286 368.5278,-426.7451 389,-432.5 400.4499,-435.7186 412.8979,-438.7811 424.602,-441.4707"/>
<polygon fill="#191970" stroke="#191970" points="327.8873,-409.515 317.2925,-409.5577 325.6014,-416.1313 327.8873,-409.515"/>
</g>
<!-- Node19 -->
<g id="node19" class="node">
<title>Node19</title>
<g id="a_node19"><a xlink:href="../../dc/d8e/Fun4All__G4__Prototype2_8C.html#a6b8f092c4f51be2938dd09c810ba6226" target="_top" xlink:title="Fun4All_G4_Prototype2">
<polygon fill="none" stroke="#000000" points="406,-402.5 406,-422.5 539,-422.5 539,-402.5 406,-402.5"/>
<text text-anchor="middle" x="472.5" y="-409.5" font-family="FreeSans" font-size="10.00" fill="#000000">Fun4All_G4_Prototype2</text>
</a>
</g>
</g>
<!-- Node6&#45;&gt;Node19 -->
<g id="edge18" class="edge">
<title>Node6&#45;&gt;Node19</title>
<path fill="none" stroke="#191970" d="M361.7667,-401.954C376.6073,-403.3674 391.7762,-404.812 405.9378,-406.1607"/>
<polygon fill="#191970" stroke="#191970" points="361.8481,-398.446 351.5613,-400.982 361.1844,-405.4144 361.8481,-398.446"/>
</g>
<!-- Node20 -->
<g id="node20" class="node">
<title>Node20</title>
<g id="a_node20"><a xlink:href="../../d7/d40/Fun4All__G4__Prototype3_8C.html#a1201361263017b08a070777a0b90b27c" target="_top" xlink:title="Fun4All_G4_Prototype3">
<polygon fill="none" stroke="#000000" points="406,-363.5 406,-383.5 539,-383.5 539,-363.5 406,-363.5"/>
<text text-anchor="middle" x="472.5" y="-370.5" font-family="FreeSans" font-size="10.00" fill="#000000">Fun4All_G4_Prototype3</text>
</a>
</g>
</g>
<!-- Node6&#45;&gt;Node20 -->
<g id="edge19" class="edge">
<title>Node6&#45;&gt;Node20</title>
<path fill="none" stroke="#191970" d="M361.7667,-384.6011C376.6073,-383.1133 391.7762,-381.5926 405.9378,-380.1729"/>
<polygon fill="#191970" stroke="#191970" points="361.1623,-381.144 351.5613,-385.6242 361.8606,-388.1091 361.1623,-381.144"/>
</g>
<!-- Node21 -->
<g id="node21" class="node">
<title>Node21</title>
<g id="a_node21"><a xlink:href="../../d4/d58/Fun4All__G4__Prototype4_8C.html#acac517f0728af658cbf99c7c9687c908" target="_top" xlink:title="Fun4All_G4_Prototype4">
<polygon fill="none" stroke="#000000" points="406,-324.5 406,-344.5 539,-344.5 539,-324.5 406,-324.5"/>
<text text-anchor="middle" x="472.5" y="-331.5" font-family="FreeSans" font-size="10.00" fill="#000000">Fun4All_G4_Prototype4</text>
</a>
</g>
</g>
<!-- Node6&#45;&gt;Node21 -->
<g id="edge20" class="edge">
<title>Node6&#45;&gt;Node21</title>
<path fill="none" stroke="#191970" d="M327.1757,-374.1709C346.5617,-367.551 368.6481,-360.3459 389,-354.5 401.3214,-350.9608 414.7877,-347.5424 427.2391,-344.563"/>
<polygon fill="#191970" stroke="#191970" points="325.9185,-370.902 317.6025,-377.4667 328.1972,-377.5207 325.9185,-370.902"/>
</g>
<!-- Node22 -->
<g id="node22" class="node">
<title>Node22</title>
<g id="a_node22"><a xlink:href="../../de/d55/Fun4All__G4__block_8C.html#a6a063a649a0dd3318a517d5af98430dd" target="_top" xlink:title="Fun4All_G4_block">
<polygon fill="none" stroke="#000000" points="420,-285.5 420,-305.5 525,-305.5 525,-285.5 420,-285.5"/>
<text text-anchor="middle" x="472.5" y="-292.5" font-family="FreeSans" font-size="10.00" fill="#000000">Fun4All_G4_block</text>
</a>
</g>
</g>
<!-- Node6&#45;&gt;Node22 -->
<g id="edge21" class="edge">
<title>Node6&#45;&gt;Node22</title>
<path fill="none" stroke="#191970" d="M300.3243,-370.9862C322.8446,-353.4891 356.2892,-329.8547 389,-315.5 398.6915,-311.247 409.4301,-307.8147 419.8894,-305.075"/>
<polygon fill="#191970" stroke="#191970" points="297.932,-368.4156 292.2524,-377.3595 302.2698,-373.9096 297.932,-368.4156"/>
</g>
<!-- Node23 -->
<g id="node23" class="node">
<title>Node23</title>
<g id="a_node23"><a xlink:href="../../d2/dee/Fun4All__G4__Cylinder_8C.html#a271dc4f10f6f77107705e0efef0c97e5" target="_top" xlink:title="Fun4All_G4_Cylinder">
<polygon fill="none" stroke="#000000" points="412,-246.5 412,-266.5 533,-266.5 533,-246.5 412,-246.5"/>
<text text-anchor="middle" x="472.5" y="-253.5" font-family="FreeSans" font-size="10.00" fill="#000000">Fun4All_G4_Cylinder</text>
</a>
</g>
</g>
<!-- Node6&#45;&gt;Node23 -->
<g id="edge22" class="edge">
<title>Node6&#45;&gt;Node23</title>
<path fill="none" stroke="#191970" d="M290.2408,-369.3686C310.7168,-342.5392 347.383,-299.9096 389,-276.5 396.2756,-272.4074 404.3638,-269.1484 412.5608,-266.5539"/>
<polygon fill="#191970" stroke="#191970" points="287.3611,-367.3751 284.1759,-377.4798 292.9673,-371.5669 287.3611,-367.3751"/>
</g>
<!-- Node24 -->
<g id="node24" class="node">
<title>Node24</title>
<g id="a_node24"><a xlink:href="../../d4/dfa/Fun4All__Generator__Display_8C.html#af87924a94b22e18901f0d64805565f09" target="_top" xlink:title="Fun4All_Generator_Display">
<polygon fill="none" stroke="#000000" points="396.5,-207.5 396.5,-227.5 548.5,-227.5 548.5,-207.5 396.5,-207.5"/>
<text text-anchor="middle" x="472.5" y="-214.5" font-family="FreeSans" font-size="10.00" fill="#000000">Fun4All_Generator_Display</text>
</a>
</g>
</g>
<!-- Node6&#45;&gt;Node24 -->
<g id="edge23" class="edge">
<title>Node6&#45;&gt;Node24</title>
<path fill="none" stroke="#191970" d="M284.7073,-368.2359C302.2632,-333.2516 338.7882,-270.631 389,-237.5 395.2211,-233.3952 402.1973,-230.1309 409.3964,-227.5353"/>
<polygon fill="#191970" stroke="#191970" points="281.5125,-366.802 280.2631,-377.3229 287.8007,-369.8774 281.5125,-366.802"/>
</g>
<!-- Node25 -->
<g id="node25" class="node">
<title>Node25</title>
<g id="a_node25"><a xlink:href="../../d9/d8f/Fun4All__G4__Momentum_8C.html#afbd7a4eecd7792e9216ce80b5514123e" target="_top" xlink:title="Fun4All_G4_Momentum">
<polygon fill="none" stroke="#000000" points="405,-168.5 405,-188.5 540,-188.5 540,-168.5 405,-168.5"/>
<text text-anchor="middle" x="472.5" y="-175.5" font-family="FreeSans" font-size="10.00" fill="#000000">Fun4All_G4_Momentum</text>
</a>
</g>
</g>
<!-- Node6&#45;&gt;Node25 -->
<g id="edge24" class="edge">
<title>Node6&#45;&gt;Node25</title>
<path fill="none" stroke="#191970" d="M280.8994,-367.8944C295.2703,-325.7442 329.8032,-242.0819 389,-198.5 394.5219,-194.4346 400.7554,-191.1845 407.2665,-188.5879"/>
<polygon fill="#191970" stroke="#191970" points="277.5634,-366.835 277.7533,-377.4282 284.2108,-369.0287 277.5634,-366.835"/>
</g>
<!-- Node26&#45;&gt;Node3 -->
<g id="edge28" class="edge">
<title>Node26&#45;&gt;Node3</title>
<path fill="none" stroke="#191970" d="M345.112,-928.3333C347.8518,-929.9339 350.4946,-931.6533 353,-933.5 375.3336,-949.9617 366.4759,-968.2999 389,-984.5 393.7911,-987.9459 399.0603,-990.9221 404.5508,-993.4918"/>
<polygon fill="#191970" stroke="#191970" points="346.5649,-925.1436 336.0808,-923.616 343.324,-931.3481 346.5649,-925.1436"/>
</g>
<!-- Node26&#45;&gt;Node4 -->
<g id="edge29" class="edge">
<title>Node26&#45;&gt;Node4</title>
<path fill="none" stroke="#191970" d="M345.6619,-926.0752C366.6229,-931.4337 389.3107,-937.2336 409.6241,-942.4264"/>
<polygon fill="#191970" stroke="#191970" points="346.4045,-922.6526 335.8492,-923.5667 344.6708,-929.4345 346.4045,-922.6526"/>
</g>
<!-- Node27 -->
<g id="node27" class="node">
<title>Node27</title>
<g id="a_node27"><a xlink:href="../../da/ddc/classPHG4IonGun.html#a5a16c52574396043551b429962256e43" target="_top" xlink:title="PHG4IonGun::process\l_event">
<polygon fill="none" stroke="#000000" points="409.5,-891.5 409.5,-923.5 535.5,-923.5 535.5,-891.5 409.5,-891.5"/>
<text text-anchor="start" x="417.5" y="-910.5" font-family="FreeSans" font-size="10.00" fill="#000000">PHG4IonGun::process</text>
<text text-anchor="middle" x="472.5" y="-898.5" font-family="FreeSans" font-size="10.00" fill="#000000">_event</text>
</a>
</g>
</g>
<!-- Node26&#45;&gt;Node27 -->
<g id="edge26" class="edge">
<title>Node26&#45;&gt;Node27</title>
<path fill="none" stroke="#191970" d="M361.995,-907.5C377.9808,-907.5 394.3394,-907.5 409.4026,-907.5"/>
<polygon fill="#191970" stroke="#191970" points="361.5613,-904.0001 351.5613,-907.5 361.5613,-911.0001 361.5613,-904.0001"/>
</g>
<!-- Node28 -->
<g id="node28" class="node">
<title>Node28</title>
<g id="a_node28"><a xlink:href="../../dd/d68/classPHG4ParticleGenerator.html#a1292dcb1c73496ea30769a4b8c355780" target="_top" xlink:title="PHG4ParticleGenerator\l::process_event">
<polygon fill="none" stroke="#000000" points="406,-840.5 406,-872.5 539,-872.5 539,-840.5 406,-840.5"/>
<text text-anchor="start" x="414" y="-859.5" font-family="FreeSans" font-size="10.00" fill="#000000">PHG4ParticleGenerator</text>
<text text-anchor="middle" x="472.5" y="-847.5" font-family="FreeSans" font-size="10.00" fill="#000000">::process_event</text>
</a>
</g>
</g>
<!-- Node26&#45;&gt;Node28 -->
<g id="edge27" class="edge">
<title>Node26&#45;&gt;Node28</title>
<path fill="none" stroke="#191970" d="M345.6619,-888.9248C366.6229,-883.5663 389.3107,-877.7664 409.6241,-872.5736"/>
<polygon fill="#191970" stroke="#191970" points="344.6708,-885.5655 335.8492,-891.4333 346.4045,-892.3474 344.6708,-885.5655"/>
</g>
<!-- Node29 -->
<g id="node29" class="node">
<title>Node29</title>
<g id="a_node29"><a xlink:href="../../dd/d13/classPHG4ParticleGun.html#a6a76fa0b061c94d8ce36da48fd41d274" target="_top" xlink:title="PHG4ParticleGun::process\l_event">
<polygon fill="none" stroke="#000000" points="398.5,-789.5 398.5,-821.5 546.5,-821.5 546.5,-789.5 398.5,-789.5"/>
<text text-anchor="start" x="406.5" y="-808.5" font-family="FreeSans" font-size="10.00" fill="#000000">PHG4ParticleGun::process</text>
<text text-anchor="middle" x="472.5" y="-796.5" font-family="FreeSans" font-size="10.00" fill="#000000">_event</text>
</a>
</g>
</g>
<!-- Node26&#45;&gt;Node29 -->
<g id="edge30" class="edge">
<title>Node26&#45;&gt;Node29</title>
<path fill="none" stroke="#191970" d="M346.5699,-886.7383C348.7909,-885.4103 350.9416,-883.9992 353,-882.5 375.4266,-866.1653 366.565,-847.8233 389,-831.5 394.2792,-827.6589 400.1408,-824.3747 406.2401,-821.5685"/>
<polygon fill="#191970" stroke="#191970" points="344.8849,-883.6702 337.7027,-891.4591 348.1745,-889.8491 344.8849,-883.6702"/>
</g>
</g>
</svg>
