<?xml version="1.0" encoding="UTF-8" standalone="no"?>
<!DOCTYPE svg PUBLIC "-//W3C//DTD SVG 1.1//EN"
 "http://www.w3.org/Graphics/SVG/1.1/DTD/svg11.dtd">
<!-- Generated by graphviz version 2.40.1 (20161225.0304)
 -->
<!-- Title: PHG4ParticleGeneratorBase::set_name Pages: 1 -->
<svg width="368pt" height="779pt"
 viewBox="0.00 0.00 368.00 779.00" xmlns="http://www.w3.org/2000/svg" xmlns:xlink="http://www.w3.org/1999/xlink">
<g id="graph0" class="graph" transform="scale(1 1) rotate(0) translate(4 775)">
<title>PHG4ParticleGeneratorBase::set_name</title>
<!-- Node1 -->
<g id="node1" class="node">
<title>Node1</title>
<polygon fill="#bfbfbf" stroke="#000000" points="0,-381.5 0,-413.5 157,-413.5 157,-381.5 0,-381.5"/>
<text text-anchor="start" x="8" y="-400.5" font-family="FreeSans" font-size="10.00" fill="#000000">PHG4ParticleGeneratorBase</text>
<text text-anchor="middle" x="78.5" y="-388.5" font-family="FreeSans" font-size="10.00" fill="#000000">::set_name</text>
</g>
<!-- Node2 -->
<g id="node2" class="node">
<title>Node2</title>
<g id="a_node2"><a xlink:href="../../d2/d47/Fun4All__EICAnalysis__DVCS_8C.html#a84f48142243e969fd353cc8509f0ba22" target="_top" xlink:title="Fun4All_EICAnalysis_DVCS">
<polygon fill="none" stroke="#000000" points="201.5,-750.5 201.5,-770.5 351.5,-770.5 351.5,-750.5 201.5,-750.5"/>
<text text-anchor="middle" x="276.5" y="-757.5" font-family="FreeSans" font-size="10.00" fill="#000000">Fun4All_EICAnalysis_DVCS</text>
</a>
</g>
</g>
<!-- Node1&#45;&gt;Node2 -->
<g id="edge1" class="edge">
<title>Node1&#45;&gt;Node2</title>
<path fill="none" stroke="#191970" d="M83.7813,-423.7864C98.8876,-496.4119 144.3271,-697.359 193,-741.5 196.9646,-745.0955 201.4654,-748.0554 206.2732,-750.4875"/>
<polygon fill="#191970" stroke="#191970" points="87.1405,-422.7451 81.6984,-413.6548 80.284,-424.1548 87.1405,-422.7451"/>
</g>
<!-- Node3 -->
<g id="node3" class="node">
<title>Node3</title>
<g id="a_node3"><a xlink:href="../../de/d55/Fun4All__G4__block_8C.html#a6a063a649a0dd3318a517d5af98430dd" target="_top" xlink:title="Fun4All_G4_block">
<polygon fill="none" stroke="#000000" points="224,-711.5 224,-731.5 329,-731.5 329,-711.5 224,-711.5"/>
<text text-anchor="middle" x="276.5" y="-718.5" font-family="FreeSans" font-size="10.00" fill="#000000">Fun4All_G4_block</text>
</a>
</g>
</g>
<!-- Node1&#45;&gt;Node3 -->
<g id="edge2" class="edge">
<title>Node1&#45;&gt;Node3</title>
<path fill="none" stroke="#191970" d="M80.2642,-423.7569C85.7195,-483.0454 107.5635,-627.9132 193,-702.5 201.6237,-710.0286 212.614,-714.7472 223.7669,-717.6651"/>
<polygon fill="#191970" stroke="#191970" points="83.746,-423.3921 79.4246,-413.7186 76.7703,-423.9755 83.746,-423.3921"/>
</g>
<!-- Node4 -->
<g id="node4" class="node">
<title>Node4</title>
<g id="a_node4"><a xlink:href="../../d2/dee/Fun4All__G4__Cylinder_8C.html#a271dc4f10f6f77107705e0efef0c97e5" target="_top" xlink:title="Fun4All_G4_Cylinder">
<polygon fill="none" stroke="#000000" points="216,-672.5 216,-692.5 337,-692.5 337,-672.5 216,-672.5"/>
<text text-anchor="middle" x="276.5" y="-679.5" font-family="FreeSans" font-size="10.00" fill="#000000">Fun4All_G4_Cylinder</text>
</a>
</g>
</g>
<!-- Node1&#45;&gt;Node4 -->
<g id="edge3" class="edge">
<title>Node1&#45;&gt;Node4</title>
<path fill="none" stroke="#191970" d="M81.8781,-423.7163C90.2481,-477.4483 117.0724,-600.3185 193,-663.5 199.6282,-669.0155 207.5391,-673.0071 215.8113,-675.8822"/>
<polygon fill="#191970" stroke="#191970" points="85.3142,-423.0242 80.401,-413.6375 78.3882,-424.0393 85.3142,-423.0242"/>
</g>
<!-- Node5 -->
<g id="node5" class="node">
<title>Node5</title>
<g id="a_node5"><a xlink:href="../../da/d02/Fun4All__G4__EICDetector_8C.html#afbe82cefa1d1fd031d9a8586b7bb68c6" target="_top" xlink:title="Fun4All_G4_EICDetector">
<polygon fill="none" stroke="#000000" points="207,-633.5 207,-653.5 346,-653.5 346,-633.5 207,-633.5"/>
<text text-anchor="middle" x="276.5" y="-640.5" font-family="FreeSans" font-size="10.00" fill="#000000">Fun4All_G4_EICDetector</text>
</a>
</g>
</g>
<!-- Node1&#45;&gt;Node5 -->
<g id="edge4" class="edge">
<title>Node1&#45;&gt;Node5</title>
<path fill="none" stroke="#191970" d="M83.9597,-423.5408C95.3715,-471.2216 126.4104,-572.4254 193,-624.5 197.5674,-628.0718 202.6811,-630.9963 208.0686,-633.3878"/>
<polygon fill="#191970" stroke="#191970" points="87.3465,-422.6504 81.7004,-413.6853 80.5234,-424.2146 87.3465,-422.6504"/>
</g>
<!-- Node6 -->
<g id="node6" class="node">
<title>Node6</title>
<g id="a_node6"><a xlink:href="../../dd/d2a/Fun4All__G4__EICDetector__LQ_8C.html#aaa01242fd6e77ca43a9d49a6d46008e4" target="_top" xlink:title="Fun4All_G4_EICDetector_LQ">
<polygon fill="none" stroke="#000000" points="198.5,-594.5 198.5,-614.5 354.5,-614.5 354.5,-594.5 198.5,-594.5"/>
<text text-anchor="middle" x="276.5" y="-601.5" font-family="FreeSans" font-size="10.00" fill="#000000">Fun4All_G4_EICDetector_LQ</text>
</a>
</g>
</g>
<!-- Node1&#45;&gt;Node6 -->
<g id="edge5" class="edge">
<title>Node1&#45;&gt;Node6</title>
<path fill="none" stroke="#191970" d="M86.7241,-423.1349C101.2631,-464.1589 135.5215,-544.1398 193,-585.5 197.9477,-589.0603 203.4524,-591.9675 209.2087,-594.3395"/>
<polygon fill="#191970" stroke="#191970" points="90.0059,-421.915 83.4505,-413.5917 83.3846,-424.1863 90.0059,-421.915"/>
</g>
<!-- Node7 -->
<g id="node7" class="node">
<title>Node7</title>
<g id="a_node7"><a xlink:href="../../d4/df5/Fun4All__G4__EICDetector__LQ__reference_8C.html#a2feefc472f17f90b3cbe74897d049f75" target="_top" xlink:title="Fun4All_G4_EICDetector\l_LQ_reference">
<polygon fill="none" stroke="#000000" points="207,-543.5 207,-575.5 346,-575.5 346,-543.5 207,-543.5"/>
<text text-anchor="start" x="215" y="-562.5" font-family="FreeSans" font-size="10.00" fill="#000000">Fun4All_G4_EICDetector</text>
<text text-anchor="middle" x="276.5" y="-550.5" font-family="FreeSans" font-size="10.00" fill="#000000">_LQ_reference</text>
</a>
</g>
</g>
<!-- Node1&#45;&gt;Node7 -->
<g id="edge6" class="edge">
<title>Node1&#45;&gt;Node7</title>
<path fill="none" stroke="#191970" d="M92.9522,-422.4929C112.0198,-453.2876 148.4354,-505.1262 193,-534.5 198.1802,-537.9144 203.8429,-540.8764 209.7007,-543.4433"/>
<polygon fill="#191970" stroke="#191970" points="95.7764,-420.3996 87.6018,-413.6597 89.7891,-424.0263 95.7764,-420.3996"/>
</g>
<!-- Node8 -->
<g id="node8" class="node">
<title>Node8</title>
<g id="a_node8"><a xlink:href="../../d3/d51/Fun4All__G4__EICDetector__RICH_8C.html#a5739502b0a7a1ba782c01069f77e933f" target="_top" xlink:title="Fun4All_G4_EICDetector_RICH">
<polygon fill="none" stroke="#000000" points="193,-504.5 193,-524.5 360,-524.5 360,-504.5 193,-504.5"/>
<text text-anchor="middle" x="276.5" y="-511.5" font-family="FreeSans" font-size="10.00" fill="#000000">Fun4All_G4_EICDetector_RICH</text>
</a>
</g>
</g>
<!-- Node1&#45;&gt;Node8 -->
<g id="edge7" class="edge">
<title>Node1&#45;&gt;Node8</title>
<path fill="none" stroke="#191970" d="M99.6185,-421.2835C120.9582,-443.8145 155.9859,-476.8923 193,-495.5 200.1728,-499.1059 208.0349,-502.036 215.9764,-504.4149"/>
<polygon fill="#191970" stroke="#191970" points="102.0313,-418.7383 92.6605,-413.7949 96.9032,-423.5031 102.0313,-418.7383"/>
</g>
<!-- Node9 -->
<g id="node9" class="node">
<title>Node9</title>
<g id="a_node9"><a xlink:href="../../d9/d0e/Fun4All__G4__EICIR_8C.html#ac3543d1dd4a0abed3987d40939ee3f87" target="_top" xlink:title="Fun4All_G4_EICIR">
<polygon fill="none" stroke="#000000" points="224.5,-465.5 224.5,-485.5 328.5,-485.5 328.5,-465.5 224.5,-465.5"/>
<text text-anchor="middle" x="276.5" y="-472.5" font-family="FreeSans" font-size="10.00" fill="#000000">Fun4All_G4_EICIR</text>
</a>
</g>
</g>
<!-- Node1&#45;&gt;Node9 -->
<g id="edge8" class="edge">
<title>Node1&#45;&gt;Node9</title>
<path fill="none" stroke="#191970" d="M113.6312,-418.5446C135.7671,-431.0527 165.3035,-446.3973 193,-456.5 202.9165,-460.1172 213.7552,-463.1895 224.2419,-465.7408"/>
<polygon fill="#191970" stroke="#191970" points="115.344,-415.4922 104.9273,-413.5572 111.8638,-421.5658 115.344,-415.4922"/>
</g>
<!-- Node10 -->
<g id="node10" class="node">
<title>Node10</title>
<g id="a_node10"><a xlink:href="../../d5/d01/Fun4All__G4__LeadBrick_8C.html#a5fcd8843f8a815feb3b053eaabd60d41" target="_top" xlink:title="Fun4All_G4_LeadBrick">
<polygon fill="none" stroke="#000000" points="212.5,-426.5 212.5,-446.5 340.5,-446.5 340.5,-426.5 212.5,-426.5"/>
<text text-anchor="middle" x="276.5" y="-433.5" font-family="FreeSans" font-size="10.00" fill="#000000">Fun4All_G4_LeadBrick</text>
</a>
</g>
</g>
<!-- Node1&#45;&gt;Node10 -->
<g id="edge9" class="edge">
<title>Node1&#45;&gt;Node10</title>
<path fill="none" stroke="#191970" d="M166.8642,-414.9051C187.0056,-418.8723 207.7411,-422.9566 225.6839,-426.4908"/>
<polygon fill="#191970" stroke="#191970" points="167.5271,-411.4685 157.0392,-412.9698 166.1743,-418.3365 167.5271,-411.4685"/>
</g>
<!-- Node11 -->
<g id="node11" class="node">
<title>Node11</title>
<g id="a_node11"><a xlink:href="../../d9/d8f/Fun4All__G4__Momentum_8C.html#afbd7a4eecd7792e9216ce80b5514123e" target="_top" xlink:title="Fun4All_G4_Momentum">
<polygon fill="none" stroke="#000000" points="209,-387.5 209,-407.5 344,-407.5 344,-387.5 209,-387.5"/>
<text text-anchor="middle" x="276.5" y="-394.5" font-family="FreeSans" font-size="10.00" fill="#000000">Fun4All_G4_Momentum</text>
</a>
</g>
</g>
<!-- Node1&#45;&gt;Node11 -->
<g id="edge10" class="edge">
<title>Node1&#45;&gt;Node11</title>
<path fill="none" stroke="#191970" d="M167.18,-397.5C181.1968,-397.5 195.4926,-397.5 208.9269,-397.5"/>
<polygon fill="#191970" stroke="#191970" points="167.0393,-394.0001 157.0392,-397.5 167.0392,-401.0001 167.0393,-394.0001"/>
</g>
<!-- Node12 -->
<g id="node12" class="node">
<title>Node12</title>
<g id="a_node12"><a xlink:href="../../dc/d8e/Fun4All__G4__Prototype2_8C.html#a6b8f092c4f51be2938dd09c810ba6226" target="_top" xlink:title="Fun4All_G4_Prototype2">
<polygon fill="none" stroke="#000000" points="210,-348.5 210,-368.5 343,-368.5 343,-348.5 210,-348.5"/>
<text text-anchor="middle" x="276.5" y="-355.5" font-family="FreeSans" font-size="10.00" fill="#000000">Fun4All_G4_Prototype2</text>
</a>
</g>
</g>
<!-- Node1&#45;&gt;Node12 -->
<g id="edge11" class="edge">
<title>Node1&#45;&gt;Node12</title>
<path fill="none" stroke="#191970" d="M166.8642,-380.0949C187.0056,-376.1277 207.7411,-372.0434 225.6839,-368.5092"/>
<polygon fill="#191970" stroke="#191970" points="166.1743,-376.6635 157.0392,-382.0302 167.5271,-383.5315 166.1743,-376.6635"/>
</g>
<!-- Node13 -->
<g id="node13" class="node">
<title>Node13</title>
<g id="a_node13"><a xlink:href="../../d7/d40/Fun4All__G4__Prototype3_8C.html#a1201361263017b08a070777a0b90b27c" target="_top" xlink:title="Fun4All_G4_Prototype3">
<polygon fill="none" stroke="#000000" points="210,-309.5 210,-329.5 343,-329.5 343,-309.5 210,-309.5"/>
<text text-anchor="middle" x="276.5" y="-316.5" font-family="FreeSans" font-size="10.00" fill="#000000">Fun4All_G4_Prototype3</text>
</a>
</g>
</g>
<!-- Node1&#45;&gt;Node13 -->
<g id="edge12" class="edge">
<title>Node1&#45;&gt;Node13</title>
<path fill="none" stroke="#191970" d="M114.9013,-376.2974C136.9299,-364.174 165.9123,-349.4487 193,-339.5 203.4945,-335.6456 215.0067,-332.333 226.0396,-329.5756"/>
<polygon fill="#191970" stroke="#191970" points="112.9397,-373.3839 105.912,-381.3124 116.3501,-379.4969 112.9397,-373.3839"/>
</g>
<!-- Node14 -->
<g id="node14" class="node">
<title>Node14</title>
<g id="a_node14"><a xlink:href="../../d4/d58/Fun4All__G4__Prototype4_8C.html#acac517f0728af658cbf99c7c9687c908" target="_top" xlink:title="Fun4All_G4_Prototype4">
<polygon fill="none" stroke="#000000" points="210,-270.5 210,-290.5 343,-290.5 343,-270.5 210,-270.5"/>
<text text-anchor="middle" x="276.5" y="-277.5" font-family="FreeSans" font-size="10.00" fill="#000000">Fun4All_G4_Prototype4</text>
</a>
</g>
</g>
<!-- Node1&#45;&gt;Node14 -->
<g id="edge13" class="edge">
<title>Node1&#45;&gt;Node14</title>
<path fill="none" stroke="#191970" d="M99.7136,-374.0577C121.1243,-351.8304 156.2036,-319.1436 193,-300.5 200.9783,-296.4576 209.8036,-293.2115 218.6405,-290.6104"/>
<polygon fill="#191970" stroke="#191970" points="97.0574,-371.7727 92.73,-381.4435 102.1437,-376.582 97.0574,-371.7727"/>
</g>
<!-- Node15 -->
<g id="node15" class="node">
<title>Node15</title>
<g id="a_node15"><a xlink:href="../../d5/d2c/macros_2blob_2master_2macros_2g4simulations_2Fun4All__G4__sPHENIX_8C.html#a6eaaa492d7023ec86c562dc63aa1e5a4" target="_top" xlink:title="Fun4All_G4_sPHENIX">
<polygon fill="none" stroke="#000000" points="216,-231.5 216,-251.5 337,-251.5 337,-231.5 216,-231.5"/>
<text text-anchor="middle" x="276.5" y="-238.5" font-family="FreeSans" font-size="10.00" fill="#000000">Fun4All_G4_sPHENIX</text>
</a>
</g>
</g>
<!-- Node1&#45;&gt;Node15 -->
<g id="edge14" class="edge">
<title>Node1&#45;&gt;Node15</title>
<path fill="none" stroke="#191970" d="M92.7406,-372.29C111.589,-341.3059 147.7773,-289.4167 193,-261.5 199.9764,-257.1934 207.8093,-253.8141 215.8087,-251.1625"/>
<polygon fill="#191970" stroke="#191970" points="89.5549,-370.7998 87.457,-381.1849 95.5732,-374.3747 89.5549,-370.7998"/>
</g>
<!-- Node16 -->
<g id="node16" class="node">
<title>Node16</title>
<g id="a_node16"><a xlink:href="../../da/dd0/Fun4All__G4__sPHENIX__photonjet_8C.html#a6f18519e216acc05399e562ea57ea77c" target="_top" xlink:title="Fun4All_G4_sPHENIX\l_photonjet">
<polygon fill="none" stroke="#000000" points="216,-180.5 216,-212.5 337,-212.5 337,-180.5 216,-180.5"/>
<text text-anchor="start" x="224" y="-199.5" font-family="FreeSans" font-size="10.00" fill="#000000">Fun4All_G4_sPHENIX</text>
<text text-anchor="middle" x="276.5" y="-187.5" font-family="FreeSans" font-size="10.00" fill="#000000">_photonjet</text>
</a>
</g>
</g>
<!-- Node1&#45;&gt;Node16 -->
<g id="edge15" class="edge">
<title>Node1&#45;&gt;Node16</title>
<path fill="none" stroke="#191970" d="M88.5154,-371.9139C104.7333,-333.777 140.3315,-262.2602 193,-222.5 199.786,-217.3772 207.5987,-213.2515 215.6642,-209.9317"/>
<polygon fill="#191970" stroke="#191970" points="85.2244,-370.7133 84.6336,-381.2917 91.6922,-373.3906 85.2244,-370.7133"/>
</g>
<!-- Node17 -->
<g id="node17" class="node">
<title>Node17</title>
<g id="a_node17"><a xlink:href="../../da/d85/Fun4All__G4__sPHENIX__photons_8C.html#a02fbbd59878fe1299f58ed187e7214ba" target="_top" xlink:title="Fun4All_G4_sPHENIX\l_photons">
<polygon fill="none" stroke="#000000" points="216,-129.5 216,-161.5 337,-161.5 337,-129.5 216,-129.5"/>
<text text-anchor="start" x="224" y="-148.5" font-family="FreeSans" font-size="10.00" fill="#000000">Fun4All_G4_sPHENIX</text>
<text text-anchor="middle" x="276.5" y="-136.5" font-family="FreeSans" font-size="10.00" fill="#000000">_photons</text>
</a>
</g>
</g>
<!-- Node1&#45;&gt;Node17 -->
<g id="edge16" class="edge">
<title>Node1&#45;&gt;Node17</title>
<path fill="none" stroke="#191970" d="M84.5561,-371.4211C96.8029,-324.4843 128.9639,-225.6405 193,-171.5 199.7248,-165.8144 207.6885,-161.3705 215.9846,-157.8975"/>
<polygon fill="#191970" stroke="#191970" points="81.0915,-370.8477 82.051,-381.399 87.8808,-372.5522 81.0915,-370.8477"/>
</g>
<!-- Node18 -->
<g id="node18" class="node">
<title>Node18</title>
<g id="a_node18"><a xlink:href="../../de/d55/Fun4All__G4__sPHENIX__truthphotonjet_8C.html#a48a6f4503eaa1b3793d8ae572aa795b9" target="_top" xlink:title="Fun4All_G4_sPHENIX\l_truthphotonjet">
<polygon fill="none" stroke="#000000" points="216,-78.5 216,-110.5 337,-110.5 337,-78.5 216,-78.5"/>
<text text-anchor="start" x="224" y="-97.5" font-family="FreeSans" font-size="10.00" fill="#000000">Fun4All_G4_sPHENIX</text>
<text text-anchor="middle" x="276.5" y="-85.5" font-family="FreeSans" font-size="10.00" fill="#000000">_truthphotonjet</text>
</a>
</g>
</g>
<!-- Node1&#45;&gt;Node18 -->
<g id="edge17" class="edge">
<title>Node1&#45;&gt;Node18</title>
<path fill="none" stroke="#191970" d="M81.8389,-371.4472C90.2185,-316.8493 117.1895,-189.7697 193,-120.5 199.501,-114.5599 207.3424,-109.9768 215.583,-106.4407"/>
<polygon fill="#191970" stroke="#191970" points="78.3725,-370.9631 80.4019,-381.3618 85.3001,-371.9673 78.3725,-370.9631"/>
</g>
<!-- Node19 -->
<g id="node19" class="node">
<title>Node19</title>
<g id="a_node19"><a xlink:href="../../d4/dfa/Fun4All__Generator__Display_8C.html#af87924a94b22e18901f0d64805565f09" target="_top" xlink:title="Fun4All_Generator_Display">
<polygon fill="none" stroke="#000000" points="200.5,-39.5 200.5,-59.5 352.5,-59.5 352.5,-39.5 200.5,-39.5"/>
<text text-anchor="middle" x="276.5" y="-46.5" font-family="FreeSans" font-size="10.00" fill="#000000">Fun4All_Generator_Display</text>
</a>
</g>
</g>
<!-- Node1&#45;&gt;Node19 -->
<g id="edge18" class="edge">
<title>Node1&#45;&gt;Node19</title>
<path fill="none" stroke="#191970" d="M84.1975,-371.4965C100.0381,-301.4965 146.5056,-111.5304 193,-69.5 197.4232,-65.5015 202.5027,-62.2642 207.9255,-59.6479"/>
<polygon fill="#191970" stroke="#191970" points="80.7738,-370.769 82.0043,-381.2921 87.6047,-372.2985 80.7738,-370.769"/>
</g>
<!-- Node20 -->
<g id="node20" class="node">
<title>Node20</title>
<g id="a_node20"><a xlink:href="../../d4/d65/Fun4All__single__particle_8C.html#a8a492b5dbead494bfdddbebde8a49b0e" target="_top" xlink:title="Fun4All_single_particle">
<polygon fill="none" stroke="#000000" points="210.5,-.5 210.5,-20.5 342.5,-20.5 342.5,-.5 210.5,-.5"/>
<text text-anchor="middle" x="276.5" y="-7.5" font-family="FreeSans" font-size="10.00" fill="#000000">Fun4All_single_particle</text>
</a>
</g>
</g>
<!-- Node1&#45;&gt;Node20 -->
<g id="edge19" class="edge">
<title>Node1&#45;&gt;Node20</title>
<path fill="none" stroke="#191970" d="M83.27,-371.0239C97.4842,-294.9964 141.7651,-78.3965 193,-30.5 198.0091,-25.8173 203.9141,-22.1717 210.2312,-19.3417"/>
<polygon fill="#191970" stroke="#191970" points="79.7679,-370.7149 81.3937,-381.1842 86.6516,-371.9861 79.7679,-370.7149"/>
</g>
</g>
</svg>
