<?xml version="1.0" encoding="UTF-8" standalone="no"?>
<!DOCTYPE svg PUBLIC "-//W3C//DTD SVG 1.1//EN"
 "http://www.w3.org/Graphics/SVG/1.1/DTD/svg11.dtd">
<!-- Generated by graphviz version 2.40.1 (20161225.0304)
 -->
<!-- Title: PHG4ParticleGeneratorBase::set_mom Pages: 1 -->
<svg width="351pt" height="494pt"
 viewBox="0.00 0.00 351.00 494.00" xmlns="http://www.w3.org/2000/svg" xmlns:xlink="http://www.w3.org/1999/xlink">
<g id="graph0" class="graph" transform="scale(1 1) rotate(0) translate(4 490)">
<title>PHG4ParticleGeneratorBase::set_mom</title>
<!-- Node1 -->
<g id="node1" class="node">
<title>Node1</title>
<polygon fill="#bfbfbf" stroke="#000000" points="0,-244.5 0,-276.5 157,-276.5 157,-244.5 0,-244.5"/>
<text text-anchor="start" x="8" y="-263.5" font-family="FreeSans" font-size="10.00" fill="#000000">PHG4ParticleGeneratorBase</text>
<text text-anchor="middle" x="78.5" y="-251.5" font-family="FreeSans" font-size="10.00" fill="#000000">::set_mom</text>
</g>
<!-- Node2 -->
<g id="node2" class="node">
<title>Node2</title>
<g id="a_node2"><a xlink:href="../../d2/d47/Fun4All__EICAnalysis__DVCS_8C.html#a84f48142243e969fd353cc8509f0ba22" target="_top" xlink:title="Fun4All_EICAnalysis_DVCS">
<polygon fill="none" stroke="#000000" points="193,-465.5 193,-485.5 343,-485.5 343,-465.5 193,-465.5"/>
<text text-anchor="middle" x="268" y="-472.5" font-family="FreeSans" font-size="10.00" fill="#000000">Fun4All_EICAnalysis_DVCS</text>
</a>
</g>
</g>
<!-- Node1&#45;&gt;Node2 -->
<g id="edge1" class="edge">
<title>Node1&#45;&gt;Node2</title>
<path fill="none" stroke="#191970" d="M86.2242,-286.1457C100.3026,-328.3791 134.2372,-412.2809 193,-456.5 197.8298,-460.1344 203.279,-463.0782 208.9807,-465.4618"/>
<polygon fill="#191970" stroke="#191970" points="89.5444,-285.0375 83.144,-276.5945 82.8822,-287.1861 89.5444,-285.0375"/>
</g>
<!-- Node3 -->
<g id="node3" class="node">
<title>Node3</title>
<g id="a_node3"><a xlink:href="../../de/d55/Fun4All__G4__block_8C.html#a6a063a649a0dd3318a517d5af98430dd" target="_top" xlink:title="Fun4All_G4_block">
<polygon fill="none" stroke="#000000" points="215.5,-426.5 215.5,-446.5 320.5,-446.5 320.5,-426.5 215.5,-426.5"/>
<text text-anchor="middle" x="268" y="-433.5" font-family="FreeSans" font-size="10.00" fill="#000000">Fun4All_G4_block</text>
</a>
</g>
</g>
<!-- Node1&#45;&gt;Node3 -->
<g id="edge2" class="edge">
<title>Node1&#45;&gt;Node3</title>
<path fill="none" stroke="#191970" d="M89.9853,-285.8346C107.2296,-320.9339 143.1821,-383.8261 193,-417.5 199.677,-422.0133 207.3441,-425.4546 215.1703,-428.0786"/>
<polygon fill="#191970" stroke="#191970" points="93.0964,-284.2277 85.6216,-276.7192 86.7826,-287.2502 93.0964,-284.2277"/>
</g>
<!-- Node4 -->
<g id="node4" class="node">
<title>Node4</title>
<g id="a_node4"><a xlink:href="../../d9/d0e/Fun4All__G4__EICIR_8C.html#ac3543d1dd4a0abed3987d40939ee3f87" target="_top" xlink:title="Fun4All_G4_EICIR">
<polygon fill="none" stroke="#000000" points="216,-387.5 216,-407.5 320,-407.5 320,-387.5 216,-387.5"/>
<text text-anchor="middle" x="268" y="-394.5" font-family="FreeSans" font-size="10.00" fill="#000000">Fun4All_G4_EICIR</text>
</a>
</g>
</g>
<!-- Node1&#45;&gt;Node4 -->
<g id="edge3" class="edge">
<title>Node1&#45;&gt;Node4</title>
<path fill="none" stroke="#191970" d="M95.4552,-284.749C115.6091,-311.7264 151.7487,-354.646 193,-378.5 199.9768,-382.5344 207.8031,-385.7214 215.6974,-388.2366"/>
<polygon fill="#191970" stroke="#191970" points="98.2177,-282.5972 89.4873,-276.5946 92.5689,-286.7314 98.2177,-282.5972"/>
</g>
<!-- Node5 -->
<g id="node5" class="node">
<title>Node5</title>
<g id="a_node5"><a xlink:href="../../d5/d01/Fun4All__G4__LeadBrick_8C.html#a5fcd8843f8a815feb3b053eaabd60d41" target="_top" xlink:title="Fun4All_G4_LeadBrick">
<polygon fill="none" stroke="#000000" points="204,-348.5 204,-368.5 332,-368.5 332,-348.5 204,-348.5"/>
<text text-anchor="middle" x="268" y="-355.5" font-family="FreeSans" font-size="10.00" fill="#000000">Fun4All_G4_LeadBrick</text>
</a>
</g>
</g>
<!-- Node1&#45;&gt;Node5 -->
<g id="edge4" class="edge">
<title>Node1&#45;&gt;Node5</title>
<path fill="none" stroke="#191970" d="M105.4258,-283.2199C127.6291,-300.8944 160.6288,-324.809 193,-339.5 200.8282,-343.0526 209.4297,-346.0165 217.9288,-348.4638"/>
<polygon fill="#191970" stroke="#191970" points="107.4447,-280.3513 97.4685,-276.7838 103.0425,-285.7938 107.4447,-280.3513"/>
</g>
<!-- Node6 -->
<g id="node6" class="node">
<title>Node6</title>
<g id="a_node6"><a xlink:href="../../dc/d8e/Fun4All__G4__Prototype2_8C.html#a6b8f092c4f51be2938dd09c810ba6226" target="_top" xlink:title="Fun4All_G4_Prototype2">
<polygon fill="none" stroke="#000000" points="201.5,-309.5 201.5,-329.5 334.5,-329.5 334.5,-309.5 201.5,-309.5"/>
<text text-anchor="middle" x="268" y="-316.5" font-family="FreeSans" font-size="10.00" fill="#000000">Fun4All_G4_Prototype2</text>
</a>
</g>
</g>
<!-- Node1&#45;&gt;Node6 -->
<g id="edge5" class="edge">
<title>Node1&#45;&gt;Node6</title>
<path fill="none" stroke="#191970" d="M130.9833,-279.923C150.3518,-286.8022 172.5585,-294.3532 193,-300.5 203.5478,-303.6718 215.0334,-306.761 225.7739,-309.4952"/>
<polygon fill="#191970" stroke="#191970" points="132.0262,-276.5789 121.4316,-276.5039 129.667,-283.1694 132.0262,-276.5789"/>
</g>
<!-- Node7 -->
<g id="node7" class="node">
<title>Node7</title>
<g id="a_node7"><a xlink:href="../../d7/d40/Fun4All__G4__Prototype3_8C.html#a1201361263017b08a070777a0b90b27c" target="_top" xlink:title="Fun4All_G4_Prototype3">
<polygon fill="none" stroke="#000000" points="201.5,-270.5 201.5,-290.5 334.5,-290.5 334.5,-270.5 201.5,-270.5"/>
<text text-anchor="middle" x="268" y="-277.5" font-family="FreeSans" font-size="10.00" fill="#000000">Fun4All_G4_Prototype3</text>
</a>
</g>
</g>
<!-- Node1&#45;&gt;Node7 -->
<g id="edge6" class="edge">
<title>Node1&#45;&gt;Node7</title>
<path fill="none" stroke="#191970" d="M167.2357,-269.8652C178.688,-271.0739 190.2579,-272.295 201.2727,-273.4575"/>
<polygon fill="#191970" stroke="#191970" points="167.5309,-266.377 157.2188,-268.808 166.7962,-273.3384 167.5309,-266.377"/>
</g>
<!-- Node8 -->
<g id="node8" class="node">
<title>Node8</title>
<g id="a_node8"><a xlink:href="../../d4/d58/Fun4All__G4__Prototype4_8C.html#acac517f0728af658cbf99c7c9687c908" target="_top" xlink:title="Fun4All_G4_Prototype4">
<polygon fill="none" stroke="#000000" points="201.5,-231.5 201.5,-251.5 334.5,-251.5 334.5,-231.5 201.5,-231.5"/>
<text text-anchor="middle" x="268" y="-238.5" font-family="FreeSans" font-size="10.00" fill="#000000">Fun4All_G4_Prototype4</text>
</a>
</g>
</g>
<!-- Node1&#45;&gt;Node8 -->
<g id="edge7" class="edge">
<title>Node1&#45;&gt;Node8</title>
<path fill="none" stroke="#191970" d="M167.2357,-251.603C178.688,-250.4548 190.2579,-249.2947 201.2727,-248.1903"/>
<polygon fill="#191970" stroke="#191970" points="166.8197,-248.1271 157.2188,-252.6074 167.5181,-255.0922 166.8197,-248.1271"/>
</g>
<!-- Node9 -->
<g id="node9" class="node">
<title>Node9</title>
<g id="a_node9"><a xlink:href="../../d5/d2c/macros_2blob_2master_2macros_2g4simulations_2Fun4All__G4__sPHENIX_8C.html#a6eaaa492d7023ec86c562dc63aa1e5a4" target="_top" xlink:title="Fun4All_G4_sPHENIX">
<polygon fill="none" stroke="#000000" points="207.5,-192.5 207.5,-212.5 328.5,-212.5 328.5,-192.5 207.5,-192.5"/>
<text text-anchor="middle" x="268" y="-199.5" font-family="FreeSans" font-size="10.00" fill="#000000">Fun4All_G4_sPHENIX</text>
</a>
</g>
</g>
<!-- Node1&#45;&gt;Node9 -->
<g id="edge8" class="edge">
<title>Node1&#45;&gt;Node9</title>
<path fill="none" stroke="#191970" d="M134.3122,-241.2342C152.9049,-235.0151 173.7757,-228.2477 193,-222.5 204.4909,-219.0644 217.0569,-215.6004 228.5616,-212.5429"/>
<polygon fill="#191970" stroke="#191970" points="133.1799,-237.9223 124.8178,-244.4281 135.4118,-244.557 133.1799,-237.9223"/>
</g>
<!-- Node10 -->
<g id="node10" class="node">
<title>Node10</title>
<g id="a_node10"><a xlink:href="../../da/dd0/Fun4All__G4__sPHENIX__photonjet_8C.html#a6f18519e216acc05399e562ea57ea77c" target="_top" xlink:title="Fun4All_G4_sPHENIX\l_photonjet">
<polygon fill="none" stroke="#000000" points="207.5,-141.5 207.5,-173.5 328.5,-173.5 328.5,-141.5 207.5,-141.5"/>
<text text-anchor="start" x="215.5" y="-160.5" font-family="FreeSans" font-size="10.00" fill="#000000">Fun4All_G4_sPHENIX</text>
<text text-anchor="middle" x="268" y="-148.5" font-family="FreeSans" font-size="10.00" fill="#000000">_photonjet</text>
</a>
</g>
</g>
<!-- Node1&#45;&gt;Node10 -->
<g id="edge9" class="edge">
<title>Node1&#45;&gt;Node10</title>
<path fill="none" stroke="#191970" d="M107.0982,-238.2115C129.5231,-221.5075 162.0193,-198.96 193,-183.5 200.2753,-179.8695 208.1808,-176.5314 216.0396,-173.5438"/>
<polygon fill="#191970" stroke="#191970" points="104.8994,-235.4859 99.0209,-244.3003 109.1131,-241.0756 104.8994,-235.4859"/>
</g>
<!-- Node11 -->
<g id="node11" class="node">
<title>Node11</title>
<g id="a_node11"><a xlink:href="../../da/d85/Fun4All__G4__sPHENIX__photons_8C.html#a02fbbd59878fe1299f58ed187e7214ba" target="_top" xlink:title="Fun4All_G4_sPHENIX\l_photons">
<polygon fill="none" stroke="#000000" points="207.5,-90.5 207.5,-122.5 328.5,-122.5 328.5,-90.5 207.5,-90.5"/>
<text text-anchor="start" x="215.5" y="-109.5" font-family="FreeSans" font-size="10.00" fill="#000000">Fun4All_G4_sPHENIX</text>
<text text-anchor="middle" x="268" y="-97.5" font-family="FreeSans" font-size="10.00" fill="#000000">_photons</text>
</a>
</g>
</g>
<!-- Node1&#45;&gt;Node11 -->
<g id="edge10" class="edge">
<title>Node1&#45;&gt;Node11</title>
<path fill="none" stroke="#191970" d="M94.7439,-235.7403C114.7044,-207.1174 151.121,-160.3803 193,-132.5 198.621,-128.7579 204.838,-125.4958 211.2168,-122.667"/>
<polygon fill="#191970" stroke="#191970" points="91.6117,-234.12 88.8554,-244.35 97.3896,-238.0717 91.6117,-234.12"/>
</g>
<!-- Node12 -->
<g id="node12" class="node">
<title>Node12</title>
<g id="a_node12"><a xlink:href="../../de/d55/Fun4All__G4__sPHENIX__truthphotonjet_8C.html#a48a6f4503eaa1b3793d8ae572aa795b9" target="_top" xlink:title="Fun4All_G4_sPHENIX\l_truthphotonjet">
<polygon fill="none" stroke="#000000" points="207.5,-39.5 207.5,-71.5 328.5,-71.5 328.5,-39.5 207.5,-39.5"/>
<text text-anchor="start" x="215.5" y="-58.5" font-family="FreeSans" font-size="10.00" fill="#000000">Fun4All_G4_sPHENIX</text>
<text text-anchor="middle" x="268" y="-46.5" font-family="FreeSans" font-size="10.00" fill="#000000">_truthphotonjet</text>
</a>
</g>
</g>
<!-- Node1&#45;&gt;Node12 -->
<g id="edge11" class="edge">
<title>Node1&#45;&gt;Node12</title>
<path fill="none" stroke="#191970" d="M88.3973,-234.8359C104.5636,-196.1804 140.2158,-123.1222 193,-81.5 197.8696,-77.6601 203.3447,-74.3668 209.062,-71.5466"/>
<polygon fill="#191970" stroke="#191970" points="85.062,-233.7461 84.5318,-244.3277 91.545,-236.3863 85.062,-233.7461"/>
</g>
<!-- Node13 -->
<g id="node13" class="node">
<title>Node13</title>
<g id="a_node13"><a xlink:href="../../d4/d65/Fun4All__single__particle_8C.html#a8a492b5dbead494bfdddbebde8a49b0e" target="_top" xlink:title="Fun4All_single_particle">
<polygon fill="none" stroke="#000000" points="202,-.5 202,-20.5 334,-20.5 334,-.5 202,-.5"/>
<text text-anchor="middle" x="268" y="-7.5" font-family="FreeSans" font-size="10.00" fill="#000000">Fun4All_single_particle</text>
</a>
</g>
</g>
<!-- Node1&#45;&gt;Node13 -->
<g id="edge12" class="edge">
<title>Node1&#45;&gt;Node13</title>
<path fill="none" stroke="#191970" d="M84.0398,-234.3562C95.5835,-186.4423 126.8312,-84.5296 193,-30.5 198.0103,-26.4089 203.7785,-23.1488 209.8441,-20.552"/>
<polygon fill="#191970" stroke="#191970" points="80.5934,-233.7254 81.7522,-244.2567 87.4137,-235.3014 80.5934,-233.7254"/>
</g>
</g>
</svg>
