<?xml version="1.0" encoding="UTF-8" standalone="no"?>
<!DOCTYPE svg PUBLIC "-//W3C//DTD SVG 1.1//EN"
 "http://www.w3.org/Graphics/SVG/1.1/DTD/svg11.dtd">
<!-- Generated by graphviz version 2.40.1 (20161225.0304)
 -->
<!-- Title: PHG4ParticleGeneratorBase::set_vtx Pages: 1 -->
<svg width="559pt" height="750pt"
 viewBox="0.00 0.00 559.00 750.00" xmlns="http://www.w3.org/2000/svg" xmlns:xlink="http://www.w3.org/1999/xlink">
<g id="graph0" class="graph" transform="scale(1 1) rotate(0) translate(4 746)">
<title>PHG4ParticleGeneratorBase::set_vtx</title>
<!-- Node1 -->
<g id="node1" class="node">
<title>Node1</title>
<polygon fill="#bfbfbf" stroke="#000000" points="0,-442.5 0,-474.5 157,-474.5 157,-442.5 0,-442.5"/>
<text text-anchor="start" x="8" y="-461.5" font-family="FreeSans" font-size="10.00" fill="#000000">PHG4ParticleGeneratorBase</text>
<text text-anchor="middle" x="78.5" y="-449.5" font-family="FreeSans" font-size="10.00" fill="#000000">::set_vtx</text>
</g>
<!-- Node2 -->
<g id="node2" class="node">
<title>Node2</title>
<g id="a_node2"><a xlink:href="../../d2/d47/Fun4All__EICAnalysis__DVCS_8C.html#a84f48142243e969fd353cc8509f0ba22" target="_top" xlink:title="Fun4All_EICAnalysis_DVCS">
<polygon fill="none" stroke="#000000" points="196.5,-721.5 196.5,-741.5 346.5,-741.5 346.5,-721.5 196.5,-721.5"/>
<text text-anchor="middle" x="271.5" y="-728.5" font-family="FreeSans" font-size="10.00" fill="#000000">Fun4All_EICAnalysis_DVCS</text>
</a>
</g>
</g>
<!-- Node1&#45;&gt;Node2 -->
<g id="edge1" class="edge">
<title>Node1&#45;&gt;Node2</title>
<path fill="none" stroke="#191970" d="M82.5208,-484.5393C91.9302,-536.2862 120.3519,-652.2497 193,-712.5 197.3173,-716.0805 202.2019,-719.0059 207.3711,-721.3936"/>
<polygon fill="#191970" stroke="#191970" points="85.9407,-483.7748 80.7924,-474.5149 79.0425,-484.9643 85.9407,-483.7748"/>
</g>
<!-- Node3 -->
<g id="node3" class="node">
<title>Node3</title>
<g id="a_node3"><a xlink:href="../../de/d55/Fun4All__G4__block_8C.html#a6a063a649a0dd3318a517d5af98430dd" target="_top" xlink:title="Fun4All_G4_block">
<polygon fill="none" stroke="#000000" points="219,-682.5 219,-702.5 324,-702.5 324,-682.5 219,-682.5"/>
<text text-anchor="middle" x="271.5" y="-689.5" font-family="FreeSans" font-size="10.00" fill="#000000">Fun4All_G4_block</text>
</a>
</g>
</g>
<!-- Node1&#45;&gt;Node3 -->
<g id="edge2" class="edge">
<title>Node1&#45;&gt;Node3</title>
<path fill="none" stroke="#191970" d="M84.7996,-484.3867C97.2796,-529.9619 129.5902,-624.3425 193,-673.5 200.5357,-679.3419 209.6068,-683.4209 218.8658,-686.2614"/>
<polygon fill="#191970" stroke="#191970" points="88.1716,-483.4472 82.2388,-474.6693 81.4027,-485.2311 88.1716,-483.4472"/>
</g>
<!-- Node4 -->
<g id="node4" class="node">
<title>Node4</title>
<g id="a_node4"><a xlink:href="../../d2/dee/Fun4All__G4__Cylinder_8C.html#a271dc4f10f6f77107705e0efef0c97e5" target="_top" xlink:title="Fun4All_G4_Cylinder">
<polygon fill="none" stroke="#000000" points="211,-643.5 211,-663.5 332,-663.5 332,-643.5 211,-643.5"/>
<text text-anchor="middle" x="271.5" y="-650.5" font-family="FreeSans" font-size="10.00" fill="#000000">Fun4All_G4_Cylinder</text>
</a>
</g>
</g>
<!-- Node1&#45;&gt;Node4 -->
<g id="edge3" class="edge">
<title>Node1&#45;&gt;Node4</title>
<path fill="none" stroke="#191970" d="M87.9203,-484.0793C103.5574,-522.8503 138.6396,-596.0396 193,-634.5 198.38,-638.3064 204.4305,-641.3555 210.7239,-643.7972"/>
<polygon fill="#191970" stroke="#191970" points="91.0982,-482.5957 84.1941,-474.5593 84.5797,-485.1471 91.0982,-482.5957"/>
</g>
<!-- Node5 -->
<g id="node5" class="node">
<title>Node5</title>
<g id="a_node5"><a xlink:href="../../d9/d0e/Fun4All__G4__EICIR_8C.html#ac3543d1dd4a0abed3987d40939ee3f87" target="_top" xlink:title="Fun4All_G4_EICIR">
<polygon fill="none" stroke="#000000" points="219.5,-604.5 219.5,-624.5 323.5,-624.5 323.5,-604.5 219.5,-604.5"/>
<text text-anchor="middle" x="271.5" y="-611.5" font-family="FreeSans" font-size="10.00" fill="#000000">Fun4All_G4_EICIR</text>
</a>
</g>
</g>
<!-- Node1&#45;&gt;Node5 -->
<g id="edge4" class="edge">
<title>Node1&#45;&gt;Node5</title>
<path fill="none" stroke="#191970" d="M92.705,-483.8791C111.5164,-515.074 147.6665,-567.3272 193,-595.5 200.9794,-600.4589 210.1591,-604.1235 219.3642,-606.8317"/>
<polygon fill="#191970" stroke="#191970" points="95.5223,-481.7656 87.4326,-474.9239 89.4901,-485.3171 95.5223,-481.7656"/>
</g>
<!-- Node6 -->
<g id="node6" class="node">
<title>Node6</title>
<g id="a_node6"><a xlink:href="../../d5/d01/Fun4All__G4__LeadBrick_8C.html#a5fcd8843f8a815feb3b053eaabd60d41" target="_top" xlink:title="Fun4All_G4_LeadBrick">
<polygon fill="none" stroke="#000000" points="207.5,-565.5 207.5,-585.5 335.5,-585.5 335.5,-565.5 207.5,-565.5"/>
<text text-anchor="middle" x="271.5" y="-572.5" font-family="FreeSans" font-size="10.00" fill="#000000">Fun4All_G4_LeadBrick</text>
</a>
</g>
</g>
<!-- Node1&#45;&gt;Node6 -->
<g id="edge5" class="edge">
<title>Node1&#45;&gt;Node6</title>
<path fill="none" stroke="#191970" d="M99.6747,-482.1727C121.0564,-504.6208 156.1146,-537.6385 193,-556.5 199.9913,-560.075 207.6802,-562.9951 215.4271,-565.3758"/>
<polygon fill="#191970" stroke="#191970" points="102.0875,-479.6285 92.7016,-474.7138 96.9741,-484.409 102.0875,-479.6285"/>
</g>
<!-- Node7 -->
<g id="node7" class="node">
<title>Node7</title>
<g id="a_node7"><a xlink:href="../../d9/d8f/Fun4All__G4__Momentum_8C.html#afbd7a4eecd7792e9216ce80b5514123e" target="_top" xlink:title="Fun4All_G4_Momentum">
<polygon fill="none" stroke="#000000" points="204,-526.5 204,-546.5 339,-546.5 339,-526.5 204,-526.5"/>
<text text-anchor="middle" x="271.5" y="-533.5" font-family="FreeSans" font-size="10.00" fill="#000000">Fun4All_G4_Momentum</text>
</a>
</g>
</g>
<!-- Node1&#45;&gt;Node7 -->
<g id="edge6" class="edge">
<title>Node1&#45;&gt;Node7</title>
<path fill="none" stroke="#191970" d="M114.1247,-479.6601C136.2288,-492.0727 165.5577,-507.2759 193,-517.5 202.1978,-520.9268 212.2348,-523.9001 221.9644,-526.4118"/>
<polygon fill="#191970" stroke="#191970" points="115.846,-476.6126 105.4236,-474.7087 112.3839,-482.6965 115.846,-476.6126"/>
</g>
<!-- Node8 -->
<g id="node8" class="node">
<title>Node8</title>
<g id="a_node8"><a xlink:href="../../dc/d8e/Fun4All__G4__Prototype2_8C.html#a6b8f092c4f51be2938dd09c810ba6226" target="_top" xlink:title="Fun4All_G4_Prototype2">
<polygon fill="none" stroke="#000000" points="205,-487.5 205,-507.5 338,-507.5 338,-487.5 205,-487.5"/>
<text text-anchor="middle" x="271.5" y="-494.5" font-family="FreeSans" font-size="10.00" fill="#000000">Fun4All_G4_Prototype2</text>
</a>
</g>
</g>
<!-- Node1&#45;&gt;Node8 -->
<g id="edge7" class="edge">
<title>Node1&#45;&gt;Node8</title>
<path fill="none" stroke="#191970" d="M166.8293,-476.3489C185.7278,-480.1678 205.0472,-484.0717 221.8604,-487.4692"/>
<polygon fill="#191970" stroke="#191970" points="167.4956,-472.9129 157.0005,-474.3628 166.1091,-479.7742 167.4956,-472.9129"/>
</g>
<!-- Node9 -->
<g id="node9" class="node">
<title>Node9</title>
<g id="a_node9"><a xlink:href="../../d7/d40/Fun4All__G4__Prototype3_8C.html#a1201361263017b08a070777a0b90b27c" target="_top" xlink:title="Fun4All_G4_Prototype3">
<polygon fill="none" stroke="#000000" points="205,-448.5 205,-468.5 338,-468.5 338,-448.5 205,-448.5"/>
<text text-anchor="middle" x="271.5" y="-455.5" font-family="FreeSans" font-size="10.00" fill="#000000">Fun4All_G4_Prototype3</text>
</a>
</g>
</g>
<!-- Node1&#45;&gt;Node9 -->
<g id="edge8" class="edge">
<title>Node1&#45;&gt;Node9</title>
<path fill="none" stroke="#191970" d="M167.1117,-458.5C179.7894,-458.5 192.6499,-458.5 204.8101,-458.5"/>
<polygon fill="#191970" stroke="#191970" points="167.0005,-455.0001 157.0005,-458.5 167.0005,-462.0001 167.0005,-455.0001"/>
</g>
<!-- Node10 -->
<g id="node10" class="node">
<title>Node10</title>
<g id="a_node10"><a xlink:href="../../d4/d58/Fun4All__G4__Prototype4_8C.html#acac517f0728af658cbf99c7c9687c908" target="_top" xlink:title="Fun4All_G4_Prototype4">
<polygon fill="none" stroke="#000000" points="205,-409.5 205,-429.5 338,-429.5 338,-409.5 205,-409.5"/>
<text text-anchor="middle" x="271.5" y="-416.5" font-family="FreeSans" font-size="10.00" fill="#000000">Fun4All_G4_Prototype4</text>
</a>
</g>
</g>
<!-- Node1&#45;&gt;Node10 -->
<g id="edge9" class="edge">
<title>Node1&#45;&gt;Node10</title>
<path fill="none" stroke="#191970" d="M166.8293,-440.6511C185.7278,-436.8322 205.0472,-432.9283 221.8604,-429.5308"/>
<polygon fill="#191970" stroke="#191970" points="166.1091,-437.2258 157.0005,-442.6372 167.4956,-444.0871 166.1091,-437.2258"/>
</g>
<!-- Node11 -->
<g id="node11" class="node">
<title>Node11</title>
<g id="a_node11"><a xlink:href="../../d5/d2c/macros_2blob_2master_2macros_2g4simulations_2Fun4All__G4__sPHENIX_8C.html#a6eaaa492d7023ec86c562dc63aa1e5a4" target="_top" xlink:title="Fun4All_G4_sPHENIX">
<polygon fill="none" stroke="#000000" points="211,-370.5 211,-390.5 332,-390.5 332,-370.5 211,-370.5"/>
<text text-anchor="middle" x="271.5" y="-377.5" font-family="FreeSans" font-size="10.00" fill="#000000">Fun4All_G4_sPHENIX</text>
</a>
</g>
</g>
<!-- Node1&#45;&gt;Node11 -->
<g id="edge10" class="edge">
<title>Node1&#45;&gt;Node11</title>
<path fill="none" stroke="#191970" d="M114.9542,-437.4399C137.0012,-425.3662 165.9845,-410.6432 193,-400.5 203.1381,-396.6936 214.2794,-393.3675 224.9031,-390.5773"/>
<polygon fill="#191970" stroke="#191970" points="113.0031,-434.5197 105.956,-442.4311 116.3986,-440.641 113.0031,-434.5197"/>
</g>
<!-- Node12 -->
<g id="node12" class="node">
<title>Node12</title>
<g id="a_node12"><a xlink:href="../../da/dd0/Fun4All__G4__sPHENIX__photonjet_8C.html#a6f18519e216acc05399e562ea57ea77c" target="_top" xlink:title="Fun4All_G4_sPHENIX\l_photonjet">
<polygon fill="none" stroke="#000000" points="211,-319.5 211,-351.5 332,-351.5 332,-319.5 211,-319.5"/>
<text text-anchor="start" x="219" y="-338.5" font-family="FreeSans" font-size="10.00" fill="#000000">Fun4All_G4_sPHENIX</text>
<text text-anchor="middle" x="271.5" y="-326.5" font-family="FreeSans" font-size="10.00" fill="#000000">_photonjet</text>
</a>
</g>
</g>
<!-- Node1&#45;&gt;Node12 -->
<g id="edge11" class="edge">
<title>Node1&#45;&gt;Node12</title>
<path fill="none" stroke="#191970" d="M100.813,-434.9906C122.5494,-413.2781 157.4329,-381.4575 193,-361.5 199.6357,-357.7766 206.8885,-354.4805 214.2184,-351.5943"/>
<polygon fill="#191970" stroke="#191970" points="98.221,-432.6344 93.6932,-442.2131 103.2061,-437.5486 98.221,-432.6344"/>
</g>
<!-- Node13 -->
<g id="node13" class="node">
<title>Node13</title>
<g id="a_node13"><a xlink:href="../../da/d85/Fun4All__G4__sPHENIX__photons_8C.html#a02fbbd59878fe1299f58ed187e7214ba" target="_top" xlink:title="Fun4All_G4_sPHENIX\l_photons">
<polygon fill="none" stroke="#000000" points="211,-268.5 211,-300.5 332,-300.5 332,-268.5 211,-268.5"/>
<text text-anchor="start" x="219" y="-287.5" font-family="FreeSans" font-size="10.00" fill="#000000">Fun4All_G4_sPHENIX</text>
<text text-anchor="middle" x="271.5" y="-275.5" font-family="FreeSans" font-size="10.00" fill="#000000">_photons</text>
</a>
</g>
</g>
<!-- Node1&#45;&gt;Node13 -->
<g id="edge12" class="edge">
<title>Node1&#45;&gt;Node13</title>
<path fill="none" stroke="#191970" d="M91.7787,-433.1516C110.2366,-400.2859 146.6675,-343.3041 193,-310.5 198.507,-306.601 204.6379,-303.2572 210.9779,-300.3963"/>
<polygon fill="#191970" stroke="#191970" points="88.5921,-431.683 86.8457,-442.1329 94.7276,-435.0529 88.5921,-431.683"/>
</g>
<!-- Node14 -->
<g id="node14" class="node">
<title>Node14</title>
<g id="a_node14"><a xlink:href="../../de/d55/Fun4All__G4__sPHENIX__truthphotonjet_8C.html#a48a6f4503eaa1b3793d8ae572aa795b9" target="_top" xlink:title="Fun4All_G4_sPHENIX\l_truthphotonjet">
<polygon fill="none" stroke="#000000" points="211,-217.5 211,-249.5 332,-249.5 332,-217.5 211,-217.5"/>
<text text-anchor="start" x="219" y="-236.5" font-family="FreeSans" font-size="10.00" fill="#000000">Fun4All_G4_sPHENIX</text>
<text text-anchor="middle" x="271.5" y="-224.5" font-family="FreeSans" font-size="10.00" fill="#000000">_truthphotonjet</text>
</a>
</g>
</g>
<!-- Node1&#45;&gt;Node14 -->
<g id="edge13" class="edge">
<title>Node1&#45;&gt;Node14</title>
<path fill="none" stroke="#191970" d="M86.472,-432.9292C100.9123,-390.7319 135.3618,-306.5172 193,-259.5 198.3399,-255.1441 204.437,-251.5076 210.8198,-248.4739"/>
<polygon fill="#191970" stroke="#191970" points="83.1352,-431.8722 83.3065,-442.4657 89.7787,-434.0776 83.1352,-431.8722"/>
</g>
<!-- Node15 -->
<g id="node15" class="node">
<title>Node15</title>
<g id="a_node15"><a xlink:href="../../d4/d65/Fun4All__single__particle_8C.html#a8a492b5dbead494bfdddbebde8a49b0e" target="_top" xlink:title="Fun4All_single_particle">
<polygon fill="none" stroke="#000000" points="205.5,-178.5 205.5,-198.5 337.5,-198.5 337.5,-178.5 205.5,-178.5"/>
<text text-anchor="middle" x="271.5" y="-185.5" font-family="FreeSans" font-size="10.00" fill="#000000">Fun4All_single_particle</text>
</a>
</g>
</g>
<!-- Node1&#45;&gt;Node15 -->
<g id="edge14" class="edge">
<title>Node1&#45;&gt;Node15</title>
<path fill="none" stroke="#191970" d="M82.7826,-432.5689C92.6062,-381.5732 121.6519,-268.0355 193,-208.5 197.8592,-204.4453 203.4357,-201.1981 209.3271,-198.5998"/>
<polygon fill="#191970" stroke="#191970" points="79.3301,-431.9925 80.9699,-442.4596 86.2154,-433.2545 79.3301,-431.9925"/>
</g>
<!-- Node16 -->
<g id="node16" class="node">
<title>Node16</title>
<g id="a_node16"><a xlink:href="../../d8/d78/classPHG4ParticleGeneratorBase.html#a1c8fb7b3cb97ad9c0eb85468be4f0f1b" target="_top" xlink:title="PHG4ParticleGeneratorBase\l::ReuseExistingVertex">
<polygon fill="none" stroke="#000000" points="193,-127.5 193,-159.5 350,-159.5 350,-127.5 193,-127.5"/>
<text text-anchor="start" x="201" y="-146.5" font-family="FreeSans" font-size="10.00" fill="#000000">PHG4ParticleGeneratorBase</text>
<text text-anchor="middle" x="271.5" y="-134.5" font-family="FreeSans" font-size="10.00" fill="#000000">::ReuseExistingVertex</text>
</a>
</g>
</g>
<!-- Node1&#45;&gt;Node16 -->
<g id="edge15" class="edge">
<title>Node1&#45;&gt;Node16</title>
<path fill="none" stroke="#191970" d="M81.4713,-432.255C89.2259,-376.0001 115.1941,-242.9646 193,-169.5 197.0711,-165.6561 201.7236,-162.3799 206.686,-159.5878"/>
<polygon fill="#191970" stroke="#191970" points="77.9654,-432.0754 80.1533,-442.4419 84.9076,-432.9737 77.9654,-432.0754"/>
</g>
<!-- Node17 -->
<g id="node17" class="node">
<title>Node17</title>
<g id="a_node17"><a xlink:href="../../dd/d13/classPHG4ParticleGun.html#a6a76fa0b061c94d8ce36da48fd41d274" target="_top" xlink:title="PHG4ParticleGun::process\l_event">
<polygon fill="none" stroke="#000000" points="394.5,-255.5 394.5,-287.5 542.5,-287.5 542.5,-255.5 394.5,-255.5"/>
<text text-anchor="start" x="402.5" y="-274.5" font-family="FreeSans" font-size="10.00" fill="#000000">PHG4ParticleGun::process</text>
<text text-anchor="middle" x="468.5" y="-262.5" font-family="FreeSans" font-size="10.00" fill="#000000">_event</text>
</a>
</g>
</g>
<!-- Node16&#45;&gt;Node17 -->
<g id="edge16" class="edge">
<title>Node16&#45;&gt;Node17</title>
<path fill="none" stroke="#191970" d="M344.5033,-165.1208C346.4178,-166.4921 348.2563,-167.9501 350,-169.5 378.2353,-194.5984 357.4457,-221.7652 386,-246.5 389.9592,-249.9296 394.378,-252.8888 399.0565,-255.442"/>
<polygon fill="#191970" stroke="#191970" points="346.0248,-161.9458 335.6827,-159.6458 342.3332,-167.8933 346.0248,-161.9458"/>
</g>
<!-- Node18 -->
<g id="node18" class="node">
<title>Node18</title>
<g id="a_node18"><a xlink:href="../../da/ddc/classPHG4IonGun.html#a5a16c52574396043551b429962256e43" target="_top" xlink:title="PHG4IonGun::process\l_event">
<polygon fill="none" stroke="#000000" points="405.5,-204.5 405.5,-236.5 531.5,-236.5 531.5,-204.5 405.5,-204.5"/>
<text text-anchor="start" x="413.5" y="-223.5" font-family="FreeSans" font-size="10.00" fill="#000000">PHG4IonGun::process</text>
<text text-anchor="middle" x="468.5" y="-211.5" font-family="FreeSans" font-size="10.00" fill="#000000">_event</text>
</a>
</g>
</g>
<!-- Node16&#45;&gt;Node18 -->
<g id="edge17" class="edge">
<title>Node16&#45;&gt;Node18</title>
<path fill="none" stroke="#191970" d="M336.7177,-163.3621C341.2794,-165.2795 345.7498,-167.3268 350,-169.5 367.5726,-178.4852 368.3138,-186.7405 386,-195.5 392.7057,-198.8211 399.9391,-201.7986 407.2382,-204.44"/>
<polygon fill="#191970" stroke="#191970" points="337.8531,-160.0472 327.2673,-159.61 335.27,-166.5532 337.8531,-160.0472"/>
</g>
<!-- Node19 -->
<g id="node19" class="node">
<title>Node19</title>
<g id="a_node19"><a xlink:href="../../dd/d68/classPHG4ParticleGenerator.html#a1292dcb1c73496ea30769a4b8c355780" target="_top" xlink:title="PHG4ParticleGenerator\l::process_event">
<polygon fill="none" stroke="#000000" points="402,-153.5 402,-185.5 535,-185.5 535,-153.5 402,-153.5"/>
<text text-anchor="start" x="410" y="-172.5" font-family="FreeSans" font-size="10.00" fill="#000000">PHG4ParticleGenerator</text>
<text text-anchor="middle" x="468.5" y="-160.5" font-family="FreeSans" font-size="10.00" fill="#000000">::process_event</text>
</a>
</g>
</g>
<!-- Node16&#45;&gt;Node19 -->
<g id="edge18" class="edge">
<title>Node16&#45;&gt;Node19</title>
<path fill="none" stroke="#191970" d="M360.3355,-155.2245C374.3288,-157.0713 388.5849,-158.9528 401.9593,-160.718"/>
<polygon fill="#191970" stroke="#191970" points="360.5809,-151.7266 350.2089,-153.888 359.665,-158.6664 360.5809,-151.7266"/>
</g>
<!-- Node20 -->
<g id="node20" class="node">
<title>Node20</title>
<g id="a_node20"><a xlink:href="../../d9/d78/classPHG4ParticleGeneratorD0.html#a0d5fb0589e341d72f767844ead51039a" target="_top" xlink:title="PHG4ParticleGeneratorD0\l::process_event">
<polygon fill="none" stroke="#000000" points="395,-102.5 395,-134.5 542,-134.5 542,-102.5 395,-102.5"/>
<text text-anchor="start" x="403" y="-121.5" font-family="FreeSans" font-size="10.00" fill="#000000">PHG4ParticleGeneratorD0</text>
<text text-anchor="middle" x="468.5" y="-109.5" font-family="FreeSans" font-size="10.00" fill="#000000">::process_event</text>
</a>
</g>
</g>
<!-- Node16&#45;&gt;Node20 -->
<g id="edge19" class="edge">
<title>Node16&#45;&gt;Node20</title>
<path fill="none" stroke="#191970" d="M360.2667,-132.2352C371.7825,-130.7738 383.4775,-129.2897 394.7138,-127.8637"/>
<polygon fill="#191970" stroke="#191970" points="359.6887,-128.7804 350.2089,-133.5116 360.57,-135.7247 359.6887,-128.7804"/>
</g>
<!-- Node21 -->
<g id="node21" class="node">
<title>Node21</title>
<g id="a_node21"><a xlink:href="../../d5/df3/classPHG4SimpleEventGenerator.html#a4a7065a5083bd5b21c3743f8e224065b" target="_top" xlink:title="PHG4SimpleEventGenerator\l::process_event">
<polygon fill="none" stroke="#000000" points="388.5,-51.5 388.5,-83.5 548.5,-83.5 548.5,-51.5 388.5,-51.5"/>
<text text-anchor="start" x="396.5" y="-70.5" font-family="FreeSans" font-size="10.00" fill="#000000">PHG4SimpleEventGenerator</text>
<text text-anchor="middle" x="468.5" y="-58.5" font-family="FreeSans" font-size="10.00" fill="#000000">::process_event</text>
</a>
</g>
</g>
<!-- Node16&#45;&gt;Node21 -->
<g id="edge20" class="edge">
<title>Node16&#45;&gt;Node21</title>
<path fill="none" stroke="#191970" d="M315.0546,-123.1783C336.2449,-113.6275 362.2206,-102.4102 386,-93.5 395.1407,-90.075 404.9582,-86.713 414.5197,-83.6029"/>
<polygon fill="#191970" stroke="#191970" points="313.3385,-120.1136 305.6804,-127.4351 316.2327,-126.4873 313.3385,-120.1136"/>
</g>
<!-- Node22 -->
<g id="node22" class="node">
<title>Node22</title>
<g id="a_node22"><a xlink:href="../../d7/dc3/classPHG4ParticleGeneratorVectorMeson.html#a31f17c8146593b2d946cc4c2762d25ed" target="_top" xlink:title="PHG4ParticleGeneratorVector\lMeson::process_event">
<polygon fill="none" stroke="#000000" points="386,-.5 386,-32.5 551,-32.5 551,-.5 386,-.5"/>
<text text-anchor="start" x="394" y="-19.5" font-family="FreeSans" font-size="10.00" fill="#000000">PHG4ParticleGeneratorVector</text>
<text text-anchor="middle" x="468.5" y="-7.5" font-family="FreeSans" font-size="10.00" fill="#000000">Meson::process_event</text>
</a>
</g>
</g>
<!-- Node16&#45;&gt;Node22 -->
<g id="edge21" class="edge">
<title>Node16&#45;&gt;Node22</title>
<path fill="none" stroke="#191970" d="M292.8235,-119.6259C314.3164,-96.8816 349.4554,-63.1371 386,-42.5 392.669,-38.734 399.955,-35.4366 407.3476,-32.5706"/>
<polygon fill="#191970" stroke="#191970" points="290.054,-117.4646 285.8104,-127.1725 295.1817,-122.2298 290.054,-117.4646"/>
</g>
</g>
</svg>
