<?xml version="1.0" encoding="UTF-8" standalone="no"?>
<!DOCTYPE svg PUBLIC "-//W3C//DTD SVG 1.1//EN"
 "http://www.w3.org/Graphics/SVG/1.1/DTD/svg11.dtd">
<!-- Generated by graphviz version 2.40.1 (20161225.0304)
 -->
<!-- Title: PHG4DetectorGroupSubsystem::set_int_param Pages: 1 -->
<svg width="858pt" height="725pt"
 viewBox="0.00 0.00 858.00 725.00" xmlns="http://www.w3.org/2000/svg" xmlns:xlink="http://www.w3.org/1999/xlink">
<g id="graph0" class="graph" transform="scale(1 1) rotate(0) translate(4 721)">
<title>PHG4DetectorGroupSubsystem::set_int_param</title>
<!-- Node1 -->
<g id="node1" class="node">
<title>Node1</title>
<polygon fill="#bfbfbf" stroke="#000000" points="0,-454.5 0,-486.5 175,-486.5 175,-454.5 0,-454.5"/>
<text text-anchor="start" x="8" y="-473.5" font-family="FreeSans" font-size="10.00" fill="#000000">PHG4DetectorGroupSubsystem</text>
<text text-anchor="middle" x="87.5" y="-461.5" font-family="FreeSans" font-size="10.00" fill="#000000">::set_int_param</text>
</g>
<!-- Node2 -->
<g id="node2" class="node">
<title>Node2</title>
<g id="a_node2"><a xlink:href="../../d7/d7f/classPHG4DetectorGroupSubsystem.html#adf8befda8cba06e03d9f37c7a38ec758" target="_top" xlink:title="PHG4DetectorGroupSubsystem\l::BlackHole">
<polygon fill="none" stroke="#000000" points="211,-579.5 211,-611.5 386,-611.5 386,-579.5 211,-579.5"/>
<text text-anchor="start" x="219" y="-598.5" font-family="FreeSans" font-size="10.00" fill="#000000">PHG4DetectorGroupSubsystem</text>
<text text-anchor="middle" x="298.5" y="-586.5" font-family="FreeSans" font-size="10.00" fill="#000000">::BlackHole</text>
</a>
</g>
</g>
<!-- Node1&#45;&gt;Node2 -->
<g id="edge1" class="edge">
<title>Node1&#45;&gt;Node2</title>
<path fill="none" stroke="#191970" d="M110.5733,-493.6311C134.0136,-515.9434 172.2854,-549.2324 211,-569.5 218.1603,-573.2485 225.9404,-576.5354 233.8092,-579.3958"/>
<polygon fill="#191970" stroke="#191970" points="112.8369,-490.9514 103.2134,-486.5198 107.9729,-495.9854 112.8369,-490.9514"/>
</g>
<!-- Node3 -->
<g id="node3" class="node">
<title>Node3</title>
<g id="a_node3"><a xlink:href="../../d7/d7f/classPHG4DetectorGroupSubsystem.html#a74872175f2d652da1c50b5c29c461765" target="_top" xlink:title="PHG4DetectorGroupSubsystem\l::SetAbsorberActive">
<polygon fill="none" stroke="#000000" points="211,-528.5 211,-560.5 386,-560.5 386,-528.5 211,-528.5"/>
<text text-anchor="start" x="219" y="-547.5" font-family="FreeSans" font-size="10.00" fill="#000000">PHG4DetectorGroupSubsystem</text>
<text text-anchor="middle" x="298.5" y="-535.5" font-family="FreeSans" font-size="10.00" fill="#000000">::SetAbsorberActive</text>
</a>
</g>
</g>
<!-- Node1&#45;&gt;Node3 -->
<g id="edge2" class="edge">
<title>Node1&#45;&gt;Node3</title>
<path fill="none" stroke="#191970" d="M135.8099,-490.3329C158.4776,-499.3659 185.9578,-509.929 211,-518.5 220.8957,-521.8869 231.5049,-525.2556 241.8018,-528.3904"/>
<polygon fill="#191970" stroke="#191970" points="136.9953,-487.0374 126.411,-486.5656 134.3909,-493.5349 136.9953,-487.0374"/>
</g>
<!-- Node4 -->
<g id="node4" class="node">
<title>Node4</title>
<g id="a_node4"><a xlink:href="../../d7/d7f/classPHG4DetectorGroupSubsystem.html#a6a39eae5211c98d0c749e816838c6a5e" target="_top" xlink:title="PHG4DetectorGroupSubsystem\l::SetAbsorberTruth">
<polygon fill="none" stroke="#000000" points="211,-477.5 211,-509.5 386,-509.5 386,-477.5 211,-477.5"/>
<text text-anchor="start" x="219" y="-496.5" font-family="FreeSans" font-size="10.00" fill="#000000">PHG4DetectorGroupSubsystem</text>
<text text-anchor="middle" x="298.5" y="-484.5" font-family="FreeSans" font-size="10.00" fill="#000000">::SetAbsorberTruth</text>
</a>
</g>
</g>
<!-- Node1&#45;&gt;Node4 -->
<g id="edge3" class="edge">
<title>Node1&#45;&gt;Node4</title>
<path fill="none" stroke="#191970" d="M185.1445,-481.1437C193.697,-482.076 202.3188,-483.0158 210.7833,-483.9385"/>
<polygon fill="#191970" stroke="#191970" points="185.4703,-477.6586 175.1499,-480.0543 184.7117,-484.6174 185.4703,-477.6586"/>
</g>
<!-- Node5 -->
<g id="node5" class="node">
<title>Node5</title>
<g id="a_node5"><a xlink:href="../../d7/d7f/classPHG4DetectorGroupSubsystem.html#a733a9f71c522dd7376ac44867b3d65fe" target="_top" xlink:title="PHG4DetectorGroupSubsystem\l::SetActive">
<polygon fill="none" stroke="#000000" points="211,-387.5 211,-419.5 386,-419.5 386,-387.5 211,-387.5"/>
<text text-anchor="start" x="219" y="-406.5" font-family="FreeSans" font-size="10.00" fill="#000000">PHG4DetectorGroupSubsystem</text>
<text text-anchor="middle" x="298.5" y="-394.5" font-family="FreeSans" font-size="10.00" fill="#000000">::SetActive</text>
</a>
</g>
</g>
<!-- Node1&#45;&gt;Node5 -->
<g id="edge4" class="edge">
<title>Node1&#45;&gt;Node5</title>
<path fill="none" stroke="#191970" d="M147.6511,-451.3999C179.3738,-441.3268 217.8526,-429.1084 248.0074,-419.5332"/>
<polygon fill="#191970" stroke="#191970" points="146.5115,-448.0895 138.0398,-454.4518 148.6301,-454.7612 146.5115,-448.0895"/>
</g>
<!-- Node6 -->
<g id="node6" class="node">
<title>Node6</title>
<g id="a_node6"><a xlink:href="../../d5/d17/G4__Svtx__maps__ladders_09intt__ladders_09tpc__KalmanPatRec__EIC_8C.html#ac4c82b429746ee57457304af3cebbc56" target="_top" xlink:title="Svtx">
<polygon fill="none" stroke="#000000" points="432.5,-414.5 432.5,-434.5 470.5,-434.5 470.5,-414.5 432.5,-414.5"/>
<text text-anchor="middle" x="451.5" y="-421.5" font-family="FreeSans" font-size="10.00" fill="#000000">Svtx</text>
</a>
</g>
</g>
<!-- Node1&#45;&gt;Node6 -->
<g id="edge28" class="edge">
<title>Node1&#45;&gt;Node6</title>
<path fill="none" stroke="#191970" d="M185.0941,-458.1667C270.1124,-447.4226 386.6948,-432.6897 432.2023,-426.9387"/>
<polygon fill="#191970" stroke="#191970" points="184.6325,-454.6971 175.1503,-459.4233 185.5102,-461.6418 184.6325,-454.6971"/>
</g>
<!-- Node9 -->
<g id="node9" class="node">
<title>Node9</title>
<g id="a_node9"><a xlink:href="../../da/d3c/G4__Tracking_8C.html#a29db7ba137ab6b448bd8200c192a0a50" target="_top" xlink:title="Tracking">
<polygon fill="none" stroke="#000000" points="422,-360.5 422,-380.5 481,-380.5 481,-360.5 422,-360.5"/>
<text text-anchor="middle" x="451.5" y="-367.5" font-family="FreeSans" font-size="10.00" fill="#000000">Tracking</text>
</a>
</g>
</g>
<!-- Node1&#45;&gt;Node9 -->
<g id="edge29" class="edge">
<title>Node1&#45;&gt;Node9</title>
<path fill="none" stroke="#191970" d="M109.5132,-447.0363C132.4012,-424.4543 170.4947,-391.7039 211,-377.5 283.3317,-352.1356 375.5375,-359.5369 421.9621,-365.7633"/>
<polygon fill="#191970" stroke="#191970" points="106.9047,-444.6962 102.3526,-454.2633 111.8772,-449.6231 106.9047,-444.6962"/>
</g>
<!-- Node5&#45;&gt;Node6 -->
<g id="edge5" class="edge">
<title>Node5&#45;&gt;Node6</title>
<path fill="none" stroke="#191970" d="M396.3012,-416.9237C410.012,-418.8056 422.7308,-420.5513 432.4956,-421.8916"/>
<polygon fill="#191970" stroke="#191970" points="396.5535,-413.4256 386.1704,-415.5332 395.6016,-420.3606 396.5535,-413.4256"/>
</g>
<!-- Node5&#45;&gt;Node9 -->
<g id="edge8" class="edge">
<title>Node5&#45;&gt;Node9</title>
<path fill="none" stroke="#191970" d="M382.9215,-385.2914C396.8288,-382.2918 410.3831,-379.3684 421.7193,-376.9233"/>
<polygon fill="#191970" stroke="#191970" points="381.7963,-381.9536 372.7591,-387.4833 383.2722,-388.7962 381.7963,-381.9536"/>
</g>
<!-- Node7 -->
<g id="node7" class="node">
<title>Node7</title>
<g id="a_node7"><a xlink:href="../../d0/d37/analysis_2blob_2master_2EICAnalysis_2macros_2leptoquarks__fun4all_2G4Setup__EICDetector_8C.html#a5cfc1d0a8bd58902e8c78fbd6f05130c" target="_top" xlink:title="G4Setup">
<polygon fill="none" stroke="#000000" points="517,-441.5 517,-461.5 577,-461.5 577,-441.5 517,-441.5"/>
<text text-anchor="middle" x="547" y="-448.5" font-family="FreeSans" font-size="10.00" fill="#000000">G4Setup</text>
</a>
</g>
</g>
<!-- Node6&#45;&gt;Node7 -->
<g id="edge6" class="edge">
<title>Node6&#45;&gt;Node7</title>
<path fill="none" stroke="#191970" d="M480.7562,-432.7714C492.1824,-436.0018 505.2797,-439.7047 516.7955,-442.9605"/>
<polygon fill="#191970" stroke="#191970" points="481.4009,-429.3165 470.8259,-429.9639 479.4964,-436.0525 481.4009,-429.3165"/>
</g>
<!-- Node8 -->
<g id="node8" class="node">
<title>Node8</title>
<g id="a_node8"><a xlink:href="../../d1/d31/G4__Tracking__EIC_8C.html#a29db7ba137ab6b448bd8200c192a0a50" target="_top" xlink:title="Tracking">
<polygon fill="none" stroke="#000000" points="517.5,-402.5 517.5,-422.5 576.5,-422.5 576.5,-402.5 517.5,-402.5"/>
<text text-anchor="middle" x="547" y="-409.5" font-family="FreeSans" font-size="10.00" fill="#000000">Tracking</text>
</a>
</g>
</g>
<!-- Node6&#45;&gt;Node8 -->
<g id="edge7" class="edge">
<title>Node6&#45;&gt;Node8</title>
<path fill="none" stroke="#191970" d="M480.843,-420.8129C492.3721,-419.3642 505.5917,-417.7031 517.1679,-416.2485"/>
<polygon fill="#191970" stroke="#191970" points="480.3114,-417.3521 470.8259,-422.0716 481.1842,-424.2975 480.3114,-417.3521"/>
</g>
<!-- Node10 -->
<g id="node10" class="node">
<title>Node10</title>
<g id="a_node10"><a xlink:href="../../d2/dfe/macros_2blob_2master_2macros_2g4simulations_2G4Setup__EICDetector_8C.html#a5d4cb2d19366a2ae6d2aefe8d2e4a870" target="_top" xlink:title="G4Setup">
<polygon fill="none" stroke="#000000" points="517,-360.5 517,-380.5 577,-380.5 577,-360.5 517,-360.5"/>
<text text-anchor="middle" x="547" y="-367.5" font-family="FreeSans" font-size="10.00" fill="#000000">G4Setup</text>
</a>
</g>
</g>
<!-- Node9&#45;&gt;Node10 -->
<g id="edge9" class="edge">
<title>Node9&#45;&gt;Node10</title>
<path fill="none" stroke="#191970" d="M491.3956,-370.5C499.9637,-370.5 508.8788,-370.5 516.9961,-370.5"/>
<polygon fill="#191970" stroke="#191970" points="491.1933,-367.0001 481.1933,-370.5 491.1933,-374.0001 491.1933,-367.0001"/>
</g>
<!-- Node11 -->
<g id="node11" class="node">
<title>Node11</title>
<g id="a_node11"><a xlink:href="../../d3/d7f/Fun_8C.html#af0d3c8a78765149fef9b2beeecfc6279" target="_top" xlink:title="ConfigureDetectors">
<polygon fill="none" stroke="#000000" points="639.5,-696.5 639.5,-716.5 753.5,-716.5 753.5,-696.5 639.5,-696.5"/>
<text text-anchor="middle" x="696.5" y="-703.5" font-family="FreeSans" font-size="10.00" fill="#000000">ConfigureDetectors</text>
</a>
</g>
</g>
<!-- Node10&#45;&gt;Node11 -->
<g id="edge10" class="edge">
<title>Node10&#45;&gt;Node11</title>
<path fill="none" stroke="#191970" d="M573.3765,-387.5327C574.7421,-389.088 575.9716,-390.7446 577,-392.5 643.5435,-506.0858 525.3319,-588.2957 613,-686.5 619.949,-694.2841 629.3409,-699.3067 639.3201,-702.4959"/>
<polygon fill="#191970" stroke="#191970" points="575.4816,-384.7176 565.7158,-380.609 570.7879,-389.9109 575.4816,-384.7176"/>
</g>
<!-- Node13 -->
<g id="node13" class="node">
<title>Node13</title>
<g id="a_node13"><a xlink:href="../../da/d02/Fun4All__G4__EICDetector_8C.html#afbe82cefa1d1fd031d9a8586b7bb68c6" target="_top" xlink:title="Fun4All_G4_EICDetector">
<polygon fill="none" stroke="#000000" points="627,-657.5 627,-677.5 766,-677.5 766,-657.5 627,-657.5"/>
<text text-anchor="middle" x="696.5" y="-664.5" font-family="FreeSans" font-size="10.00" fill="#000000">Fun4All_G4_EICDetector</text>
</a>
</g>
</g>
<!-- Node10&#45;&gt;Node13 -->
<g id="edge12" class="edge">
<title>Node10&#45;&gt;Node13</title>
<path fill="none" stroke="#191970" d="M573.3393,-387.5547C574.7138,-389.1048 575.9555,-390.7541 577,-392.5 635.7629,-490.721 535.9941,-562.821 613,-647.5 616.9113,-651.8011 621.5688,-655.2558 626.6544,-658.0223"/>
<polygon fill="#191970" stroke="#191970" points="575.4327,-384.73 565.6576,-380.6435 570.7507,-389.9339 575.4327,-384.73"/>
</g>
<!-- Node14 -->
<g id="node14" class="node">
<title>Node14</title>
<g id="a_node14"><a xlink:href="../../dd/d2a/Fun4All__G4__EICDetector__LQ_8C.html#aaa01242fd6e77ca43a9d49a6d46008e4" target="_top" xlink:title="Fun4All_G4_EICDetector_LQ">
<polygon fill="none" stroke="#000000" points="618.5,-618.5 618.5,-638.5 774.5,-638.5 774.5,-618.5 618.5,-618.5"/>
<text text-anchor="middle" x="696.5" y="-625.5" font-family="FreeSans" font-size="10.00" fill="#000000">Fun4All_G4_EICDetector_LQ</text>
</a>
</g>
</g>
<!-- Node10&#45;&gt;Node14 -->
<g id="edge13" class="edge">
<title>Node10&#45;&gt;Node14</title>
<path fill="none" stroke="#191970" d="M573.2893,-387.585C574.6758,-389.1278 575.9338,-390.7672 577,-392.5 628.0026,-475.3899 546.6297,-537.3173 613,-608.5 616.7613,-612.534 621.1795,-615.8197 625.9863,-618.4891"/>
<polygon fill="#191970" stroke="#191970" points="575.3669,-384.7476 565.5794,-380.6909 570.7009,-389.9657 575.3669,-384.7476"/>
</g>
<!-- Node15 -->
<g id="node15" class="node">
<title>Node15</title>
<g id="a_node15"><a xlink:href="../../d4/df5/Fun4All__G4__EICDetector__LQ__reference_8C.html#a2feefc472f17f90b3cbe74897d049f75" target="_top" xlink:title="Fun4All_G4_EICDetector\l_LQ_reference">
<polygon fill="none" stroke="#000000" points="627,-567.5 627,-599.5 766,-599.5 766,-567.5 627,-567.5"/>
<text text-anchor="start" x="635" y="-586.5" font-family="FreeSans" font-size="10.00" fill="#000000">Fun4All_G4_EICDetector</text>
<text text-anchor="middle" x="696.5" y="-574.5" font-family="FreeSans" font-size="10.00" fill="#000000">_LQ_reference</text>
</a>
</g>
</g>
<!-- Node10&#45;&gt;Node15 -->
<g id="edge14" class="edge">
<title>Node10&#45;&gt;Node15</title>
<path fill="none" stroke="#191970" d="M572.725,-387.1504C574.3172,-388.8229 575.7701,-390.6081 577,-392.5 617.9095,-455.43 562.2851,-502.1667 613,-557.5 617.0009,-561.8653 621.7207,-565.5039 626.8475,-568.536"/>
<polygon fill="#191970" stroke="#191970" points="574.9637,-384.4591 565.1128,-380.5589 570.3814,-389.7509 574.9637,-384.4591"/>
</g>
<!-- Node16 -->
<g id="node16" class="node">
<title>Node16</title>
<g id="a_node16"><a xlink:href="../../d3/d51/Fun4All__G4__EICDetector__RICH_8C.html#a5739502b0a7a1ba782c01069f77e933f" target="_top" xlink:title="Fun4All_G4_EICDetector_RICH">
<polygon fill="none" stroke="#000000" points="613,-528.5 613,-548.5 780,-548.5 780,-528.5 613,-528.5"/>
<text text-anchor="middle" x="696.5" y="-535.5" font-family="FreeSans" font-size="10.00" fill="#000000">Fun4All_G4_EICDetector_RICH</text>
</a>
</g>
</g>
<!-- Node10&#45;&gt;Node16 -->
<g id="edge15" class="edge">
<title>Node10&#45;&gt;Node16</title>
<path fill="none" stroke="#191970" d="M572.592,-387.2398C574.2146,-388.8919 575.7107,-390.6481 577,-392.5 610.2771,-440.2979 570.9375,-478.2167 613,-518.5 617.1987,-522.521 622.0559,-525.7811 627.2738,-528.4187"/>
<polygon fill="#191970" stroke="#191970" points="574.7972,-384.5204 564.9193,-380.6891 570.252,-389.8441 574.7972,-384.5204"/>
</g>
<!-- Node17 -->
<g id="node17" class="node">
<title>Node17</title>
<g id="a_node17"><a xlink:href="../../d9/d0e/Fun4All__G4__EICIR_8C.html#ac3543d1dd4a0abed3987d40939ee3f87" target="_top" xlink:title="Fun4All_G4_EICIR">
<polygon fill="none" stroke="#000000" points="644.5,-489.5 644.5,-509.5 748.5,-509.5 748.5,-489.5 644.5,-489.5"/>
<text text-anchor="middle" x="696.5" y="-496.5" font-family="FreeSans" font-size="10.00" fill="#000000">Fun4All_G4_EICIR</text>
</a>
</g>
</g>
<!-- Node10&#45;&gt;Node17 -->
<g id="edge16" class="edge">
<title>Node10&#45;&gt;Node17</title>
<path fill="none" stroke="#191970" d="M572.2436,-387.2985C573.9627,-388.945 575.5749,-390.6833 577,-392.5 602.828,-425.4245 581.1775,-452.3257 613,-479.5 621.842,-487.0505 633.0475,-491.8566 644.3556,-494.8897"/>
<polygon fill="#191970" stroke="#191970" points="574.2085,-384.3819 564.27,-380.7108 569.75,-389.7784 574.2085,-384.3819"/>
</g>
<!-- Node18 -->
<g id="node18" class="node">
<title>Node18</title>
<g id="a_node18"><a xlink:href="../../d7/d9e/Fun4All__G4__fsPHENIX_8C.html#af48911d394d2412e817583700f2bbee2" target="_top" xlink:title="Fun4All_G4_fsPHENIX">
<polygon fill="none" stroke="#000000" points="634.5,-450.5 634.5,-470.5 758.5,-470.5 758.5,-450.5 634.5,-450.5"/>
<text text-anchor="middle" x="696.5" y="-457.5" font-family="FreeSans" font-size="10.00" fill="#000000">Fun4All_G4_fsPHENIX</text>
</a>
</g>
</g>
<!-- Node10&#45;&gt;Node18 -->
<g id="edge17" class="edge">
<title>Node10&#45;&gt;Node18</title>
<path fill="none" stroke="#191970" d="M570.9352,-387.0309C573.056,-388.7963 575.1118,-390.6319 577,-392.5 595.9573,-411.2545 590.7118,-425.8594 613,-440.5 619.4787,-444.7557 626.7706,-448.1077 634.2781,-450.7476"/>
<polygon fill="#191970" stroke="#191970" points="572.7091,-383.9794 562.651,-380.6501 568.4377,-389.5251 572.7091,-383.9794"/>
</g>
<!-- Node19 -->
<g id="node19" class="node">
<title>Node19</title>
<g id="a_node19"><a xlink:href="../../da/d2f/Fun4All__G4__fsPHENIX__FastSim_8C.html#a66fb850cae5fcaadda23b74a25ce4c9c" target="_top" xlink:title="Fun4All_G4_fsPHENIX\l_FastSim">
<polygon fill="none" stroke="#000000" points="634.5,-399.5 634.5,-431.5 758.5,-431.5 758.5,-399.5 634.5,-399.5"/>
<text text-anchor="start" x="642.5" y="-418.5" font-family="FreeSans" font-size="10.00" fill="#000000">Fun4All_G4_fsPHENIX</text>
<text text-anchor="middle" x="696.5" y="-406.5" font-family="FreeSans" font-size="10.00" fill="#000000">_FastSim</text>
</a>
</g>
</g>
<!-- Node10&#45;&gt;Node19 -->
<g id="edge18" class="edge">
<title>Node10&#45;&gt;Node19</title>
<path fill="none" stroke="#191970" d="M587.0215,-382.5466C604.302,-387.7481 624.7664,-393.9079 643.2985,-399.4862"/>
<polygon fill="#191970" stroke="#191970" points="587.838,-379.1373 577.2536,-379.6064 585.8203,-385.8402 587.838,-379.1373"/>
</g>
<!-- Node20 -->
<g id="node20" class="node">
<title>Node20</title>
<g id="a_node20"><a xlink:href="../../d0/da6/Fun4All__G4__fsPHENIX__pi0_8C.html#a023d91d47b678e5d7f1751834aa517c6" target="_top" xlink:title="Fun4All_G4_fsPHENIX_pi0">
<polygon fill="none" stroke="#000000" points="624,-360.5 624,-380.5 769,-380.5 769,-360.5 624,-360.5"/>
<text text-anchor="middle" x="696.5" y="-367.5" font-family="FreeSans" font-size="10.00" fill="#000000">Fun4All_G4_fsPHENIX_pi0</text>
</a>
</g>
</g>
<!-- Node10&#45;&gt;Node20 -->
<g id="edge19" class="edge">
<title>Node10&#45;&gt;Node20</title>
<path fill="none" stroke="#191970" d="M587.2574,-370.5C598.6119,-370.5 611.3264,-370.5 623.9568,-370.5"/>
<polygon fill="#191970" stroke="#191970" points="587.2536,-367.0001 577.2536,-370.5 587.2535,-374.0001 587.2536,-367.0001"/>
</g>
<!-- Node21 -->
<g id="node21" class="node">
<title>Node21</title>
<g id="a_node21"><a xlink:href="../../d5/d2c/macros_2blob_2master_2macros_2g4simulations_2Fun4All__G4__sPHENIX_8C.html#a6eaaa492d7023ec86c562dc63aa1e5a4" target="_top" xlink:title="Fun4All_G4_sPHENIX">
<polygon fill="none" stroke="#000000" points="636,-321.5 636,-341.5 757,-341.5 757,-321.5 636,-321.5"/>
<text text-anchor="middle" x="696.5" y="-328.5" font-family="FreeSans" font-size="10.00" fill="#000000">Fun4All_G4_sPHENIX</text>
</a>
</g>
</g>
<!-- Node10&#45;&gt;Node21 -->
<g id="edge20" class="edge">
<title>Node10&#45;&gt;Node21</title>
<path fill="none" stroke="#191970" d="M586.8989,-357.9156C595.4772,-355.3486 604.5151,-352.7479 613,-350.5 624.7844,-347.3779 637.5866,-344.3065 649.5454,-341.5736"/>
<polygon fill="#191970" stroke="#191970" points="585.6524,-354.6362 577.1005,-360.8904 587.686,-361.3343 585.6524,-354.6362"/>
</g>
<!-- Node22 -->
<g id="node22" class="node">
<title>Node22</title>
<g id="a_node22"><a xlink:href="../../d3/de2/Fun4All__G4__sPHENIX__AnaGenFit_8C.html#a9bf3f2f72ed69a17e2d0c1121d48013c" target="_top" xlink:title="Fun4All_G4_sPHENIX\l_AnaGenFit">
<polygon fill="none" stroke="#000000" points="636,-270.5 636,-302.5 757,-302.5 757,-270.5 636,-270.5"/>
<text text-anchor="start" x="644" y="-289.5" font-family="FreeSans" font-size="10.00" fill="#000000">Fun4All_G4_sPHENIX</text>
<text text-anchor="middle" x="696.5" y="-277.5" font-family="FreeSans" font-size="10.00" fill="#000000">_AnaGenFit</text>
</a>
</g>
</g>
<!-- Node10&#45;&gt;Node22 -->
<g id="edge21" class="edge">
<title>Node10&#45;&gt;Node22</title>
<path fill="none" stroke="#191970" d="M562.7303,-352.734C575.1939,-339.6473 593.6741,-322.3147 613,-311.5 620.1309,-307.5096 627.9687,-304.0903 635.898,-301.1786"/>
<polygon fill="#191970" stroke="#191970" points="560.0119,-350.5185 555.7936,-360.2374 565.152,-355.2704 560.0119,-350.5185"/>
</g>
<!-- Node23 -->
<g id="node23" class="node">
<title>Node23</title>
<g id="a_node23"><a xlink:href="../../da/dd0/Fun4All__G4__sPHENIX__photonjet_8C.html#a6f18519e216acc05399e562ea57ea77c" target="_top" xlink:title="Fun4All_G4_sPHENIX\l_photonjet">
<polygon fill="none" stroke="#000000" points="636,-219.5 636,-251.5 757,-251.5 757,-219.5 636,-219.5"/>
<text text-anchor="start" x="644" y="-238.5" font-family="FreeSans" font-size="10.00" fill="#000000">Fun4All_G4_sPHENIX</text>
<text text-anchor="middle" x="696.5" y="-226.5" font-family="FreeSans" font-size="10.00" fill="#000000">_photonjet</text>
</a>
</g>
</g>
<!-- Node10&#45;&gt;Node23 -->
<g id="edge22" class="edge">
<title>Node10&#45;&gt;Node23</title>
<path fill="none" stroke="#191970" d="M553.6801,-350.8716C563.076,-326.1865 582.5337,-284.1764 613,-260.5 619.8106,-255.2072 627.728,-251.032 635.9216,-247.7391"/>
<polygon fill="#191970" stroke="#191970" points="550.3849,-349.6921 550.2666,-360.2862 556.9657,-352.0781 550.3849,-349.6921"/>
</g>
<!-- Node24 -->
<g id="node24" class="node">
<title>Node24</title>
<g id="a_node24"><a xlink:href="../../da/d85/Fun4All__G4__sPHENIX__photons_8C.html#a02fbbd59878fe1299f58ed187e7214ba" target="_top" xlink:title="Fun4All_G4_sPHENIX\l_photons">
<polygon fill="none" stroke="#000000" points="636,-168.5 636,-200.5 757,-200.5 757,-168.5 636,-168.5"/>
<text text-anchor="start" x="644" y="-187.5" font-family="FreeSans" font-size="10.00" fill="#000000">Fun4All_G4_sPHENIX</text>
<text text-anchor="middle" x="696.5" y="-175.5" font-family="FreeSans" font-size="10.00" fill="#000000">_photons</text>
</a>
</g>
</g>
<!-- Node10&#45;&gt;Node24 -->
<g id="edge23" class="edge">
<title>Node10&#45;&gt;Node24</title>
<path fill="none" stroke="#191970" d="M549.6091,-350.4063C555.0891,-316.4243 570.9709,-247.5944 613,-209.5 619.503,-203.6058 627.3455,-199.0991 635.5866,-195.6538"/>
<polygon fill="#191970" stroke="#191970" points="546.117,-350.0974 548.1266,-360.4999 553.0427,-351.1146 546.117,-350.0974"/>
</g>
<!-- Node25 -->
<g id="node25" class="node">
<title>Node25</title>
<g id="a_node25"><a xlink:href="../../de/d55/Fun4All__G4__sPHENIX__truthphotonjet_8C.html#a48a6f4503eaa1b3793d8ae572aa795b9" target="_top" xlink:title="Fun4All_G4_sPHENIX\l_truthphotonjet">
<polygon fill="none" stroke="#000000" points="636,-117.5 636,-149.5 757,-149.5 757,-117.5 636,-117.5"/>
<text text-anchor="start" x="644" y="-136.5" font-family="FreeSans" font-size="10.00" fill="#000000">Fun4All_G4_sPHENIX</text>
<text text-anchor="middle" x="696.5" y="-124.5" font-family="FreeSans" font-size="10.00" fill="#000000">_truthphotonjet</text>
</a>
</g>
</g>
<!-- Node10&#45;&gt;Node25 -->
<g id="edge24" class="edge">
<title>Node10&#45;&gt;Node25</title>
<path fill="none" stroke="#191970" d="M550.7732,-350.3624C560.0444,-302.9055 585.218,-185.9807 613,-158.5 619.455,-152.115 627.471,-147.3497 635.9617,-143.7955"/>
<polygon fill="#191970" stroke="#191970" points="547.3031,-349.8745 548.8569,-360.3548 554.1778,-351.193 547.3031,-349.8745"/>
</g>
<!-- Node26 -->
<g id="node26" class="node">
<title>Node26</title>
<g id="a_node26"><a xlink:href="../../d4/d65/Fun4All__single__particle_8C.html#a8a492b5dbead494bfdddbebde8a49b0e" target="_top" xlink:title="Fun4All_single_particle">
<polygon fill="none" stroke="#000000" points="630.5,-78.5 630.5,-98.5 762.5,-98.5 762.5,-78.5 630.5,-78.5"/>
<text text-anchor="middle" x="696.5" y="-85.5" font-family="FreeSans" font-size="10.00" fill="#000000">Fun4All_single_particle</text>
</a>
</g>
</g>
<!-- Node10&#45;&gt;Node26 -->
<g id="edge25" class="edge">
<title>Node10&#45;&gt;Node26</title>
<path fill="none" stroke="#191970" d="M549.3374,-350.3423C556.174,-294.8774 577.8945,-141.8368 613,-107.5 617.9953,-102.6141 623.9709,-98.8818 630.3985,-96.0442"/>
<polygon fill="#191970" stroke="#191970" points="545.8534,-349.9998 548.1368,-360.3457 552.8036,-350.834 545.8534,-349.9998"/>
</g>
<!-- Node27 -->
<g id="node27" class="node">
<title>Node27</title>
<g id="a_node27"><a xlink:href="../../d0/d99/Jin__BJet_8C.html#a36169bfee2ed7efda633944d12aebad9" target="_top" xlink:title="Jin_BJet">
<polygon fill="none" stroke="#000000" points="669,-39.5 669,-59.5 724,-59.5 724,-39.5 669,-39.5"/>
<text text-anchor="middle" x="696.5" y="-46.5" font-family="FreeSans" font-size="10.00" fill="#000000">Jin_BJet</text>
</a>
</g>
</g>
<!-- Node10&#45;&gt;Node27 -->
<g id="edge26" class="edge">
<title>Node10&#45;&gt;Node27</title>
<path fill="none" stroke="#191970" d="M548.6409,-350.2505C553.997,-289.2346 572.9758,-108.8688 613,-68.5 627.4451,-53.9305 650.5807,-49.5476 668.8398,-48.6025"/>
<polygon fill="#191970" stroke="#191970" points="545.1301,-350.2312 547.7731,-360.4911 552.1051,-350.8224 545.1301,-350.2312"/>
</g>
<!-- Node28 -->
<g id="node28" class="node">
<title>Node28</title>
<g id="a_node28"><a xlink:href="../../dd/db1/Wrapper_8cxx.html#abf1e42281903daa0752c80dd6c879fac" target="_top" xlink:title="Wrapper">
<polygon fill="none" stroke="#000000" points="666.5,-.5 666.5,-20.5 726.5,-20.5 726.5,-.5 666.5,-.5"/>
<text text-anchor="middle" x="696.5" y="-7.5" font-family="FreeSans" font-size="10.00" fill="#000000">Wrapper</text>
</a>
</g>
</g>
<!-- Node10&#45;&gt;Node28 -->
<g id="edge27" class="edge">
<title>Node10&#45;&gt;Node28</title>
<path fill="none" stroke="#191970" d="M548.0901,-350.2645C552.068,-284.1352 568.0024,-75.9867 613,-29.5 626.649,-15.3993 648.4225,-10.7885 666.3133,-9.63"/>
<polygon fill="#191970" stroke="#191970" points="544.5954,-350.0726 547.5164,-360.2568 551.5839,-350.4739 544.5954,-350.0726"/>
</g>
<!-- Node12 -->
<g id="node12" class="node">
<title>Node12</title>
<g id="a_node12"><a xlink:href="../../d3/d7f/Fun_8C.html#af69a3eef3ff244bb51f5740c6ecb5432" target="_top" xlink:title="Fun">
<polygon fill="none" stroke="#000000" points="816,-696.5 816,-716.5 850,-716.5 850,-696.5 816,-696.5"/>
<text text-anchor="middle" x="833" y="-703.5" font-family="FreeSans" font-size="10.00" fill="#000000">Fun</text>
</a>
</g>
</g>
<!-- Node11&#45;&gt;Node12 -->
<g id="edge11" class="edge">
<title>Node11&#45;&gt;Node12</title>
<path fill="none" stroke="#191970" d="M763.6941,-706.5C783.0852,-706.5 802.59,-706.5 815.9452,-706.5"/>
<polygon fill="#191970" stroke="#191970" points="763.5974,-703.0001 753.5974,-706.5 763.5974,-710.0001 763.5974,-703.0001"/>
</g>
</g>
</svg>
