<?xml version="1.0" encoding="UTF-8" standalone="no"?>
<!DOCTYPE svg PUBLIC "-//W3C//DTD SVG 1.1//EN"
 "http://www.w3.org/Graphics/SVG/1.1/DTD/svg11.dtd">
<!-- Generated by graphviz version 2.40.1 (20161225.0304)
 -->
<!-- Title: PHG4CrystalCalorimeterSubsystem::SetTowerMappingFile Pages: 1 -->
<svg width="682pt" height="725pt"
 viewBox="0.00 0.00 682.00 725.00" xmlns="http://www.w3.org/2000/svg" xmlns:xlink="http://www.w3.org/1999/xlink">
<g id="graph0" class="graph" transform="scale(1 1) rotate(0) translate(4 721)">
<title>PHG4CrystalCalorimeterSubsystem::SetTowerMappingFile</title>
<!-- Node1 -->
<g id="node1" class="node">
<title>Node1</title>
<polygon fill="#bfbfbf" stroke="#000000" points="0,-354.5 0,-386.5 195,-386.5 195,-354.5 0,-354.5"/>
<text text-anchor="start" x="8" y="-373.5" font-family="FreeSans" font-size="10.00" fill="#000000">PHG4CrystalCalorimeterSubsystem</text>
<text text-anchor="middle" x="97.5" y="-361.5" font-family="FreeSans" font-size="10.00" fill="#000000">::SetTowerMappingFile</text>
</g>
<!-- Node2 -->
<g id="node2" class="node">
<title>Node2</title>
<g id="a_node2"><a xlink:href="../../d1/d81/macros_2blob_2master_2macros_2g4simulations_2G4__EEMC_8C.html#a4d3281225ec2eab91dac27095f61eaa3" target="_top" xlink:title="EEMCSetup">
<polygon fill="none" stroke="#000000" points="231,-360.5 231,-380.5 305,-380.5 305,-360.5 231,-360.5"/>
<text text-anchor="middle" x="268" y="-367.5" font-family="FreeSans" font-size="10.00" fill="#000000">EEMCSetup</text>
</a>
</g>
</g>
<!-- Node1&#45;&gt;Node2 -->
<g id="edge1" class="edge">
<title>Node1&#45;&gt;Node2</title>
<path fill="none" stroke="#191970" d="M205.4669,-370.5C214.4464,-370.5 223.0632,-370.5 230.8776,-370.5"/>
<polygon fill="#191970" stroke="#191970" points="205.1981,-367.0001 195.1981,-370.5 205.1981,-374.0001 205.1981,-367.0001"/>
</g>
<!-- Node3 -->
<g id="node3" class="node">
<title>Node3</title>
<g id="a_node3"><a xlink:href="../../d2/dfe/macros_2blob_2master_2macros_2g4simulations_2G4Setup__EICDetector_8C.html#a5d4cb2d19366a2ae6d2aefe8d2e4a870" target="_top" xlink:title="G4Setup">
<polygon fill="none" stroke="#000000" points="341,-360.5 341,-380.5 401,-380.5 401,-360.5 341,-360.5"/>
<text text-anchor="middle" x="371" y="-367.5" font-family="FreeSans" font-size="10.00" fill="#000000">G4Setup</text>
</a>
</g>
</g>
<!-- Node2&#45;&gt;Node3 -->
<g id="edge2" class="edge">
<title>Node2&#45;&gt;Node3</title>
<path fill="none" stroke="#191970" d="M315.2996,-370.5C324.0305,-370.5 332.9235,-370.5 340.9659,-370.5"/>
<polygon fill="#191970" stroke="#191970" points="315.1854,-367.0001 305.1854,-370.5 315.1853,-374.0001 315.1854,-367.0001"/>
</g>
<!-- Node4 -->
<g id="node4" class="node">
<title>Node4</title>
<g id="a_node4"><a xlink:href="../../d3/d7f/Fun_8C.html#af0d3c8a78765149fef9b2beeecfc6279" target="_top" xlink:title="ConfigureDetectors">
<polygon fill="none" stroke="#000000" points="463.5,-696.5 463.5,-716.5 577.5,-716.5 577.5,-696.5 463.5,-696.5"/>
<text text-anchor="middle" x="520.5" y="-703.5" font-family="FreeSans" font-size="10.00" fill="#000000">ConfigureDetectors</text>
</a>
</g>
</g>
<!-- Node3&#45;&gt;Node4 -->
<g id="edge3" class="edge">
<title>Node3&#45;&gt;Node4</title>
<path fill="none" stroke="#191970" d="M372.4273,-390.9258C377.2608,-454.1307 395.1067,-644.8258 437,-687.5 444.1864,-694.8204 453.5649,-699.5749 463.4318,-702.6149"/>
<polygon fill="#191970" stroke="#191970" points="375.8973,-390.3885 371.6733,-380.6721 368.9162,-390.9019 375.8973,-390.3885"/>
</g>
<!-- Node6 -->
<g id="node6" class="node">
<title>Node6</title>
<g id="a_node6"><a xlink:href="../../da/d02/Fun4All__G4__EICDetector_8C.html#afbe82cefa1d1fd031d9a8586b7bb68c6" target="_top" xlink:title="Fun4All_G4_EICDetector">
<polygon fill="none" stroke="#000000" points="451,-657.5 451,-677.5 590,-677.5 590,-657.5 451,-657.5"/>
<text text-anchor="middle" x="520.5" y="-664.5" font-family="FreeSans" font-size="10.00" fill="#000000">Fun4All_G4_EICDetector</text>
</a>
</g>
</g>
<!-- Node3&#45;&gt;Node6 -->
<g id="edge5" class="edge">
<title>Node3&#45;&gt;Node6</title>
<path fill="none" stroke="#191970" d="M373.043,-390.6514C379.2901,-448.2566 399.9979,-611.8426 437,-648.5 441.0134,-652.4761 445.6752,-655.6904 450.7044,-658.2815"/>
<polygon fill="#191970" stroke="#191970" points="376.5139,-390.1909 371.9858,-380.6124 369.5524,-390.924 376.5139,-390.1909"/>
</g>
<!-- Node7 -->
<g id="node7" class="node">
<title>Node7</title>
<g id="a_node7"><a xlink:href="../../dd/d2a/Fun4All__G4__EICDetector__LQ_8C.html#aaa01242fd6e77ca43a9d49a6d46008e4" target="_top" xlink:title="Fun4All_G4_EICDetector_LQ">
<polygon fill="none" stroke="#000000" points="442.5,-618.5 442.5,-638.5 598.5,-638.5 598.5,-618.5 442.5,-618.5"/>
<text text-anchor="middle" x="520.5" y="-625.5" font-family="FreeSans" font-size="10.00" fill="#000000">Fun4All_G4_EICDetector_LQ</text>
</a>
</g>
</g>
<!-- Node3&#45;&gt;Node7 -->
<g id="edge6" class="edge">
<title>Node3&#45;&gt;Node7</title>
<path fill="none" stroke="#191970" d="M373.8599,-390.5144C381.6596,-442.3048 404.8848,-578.8199 437,-609.5 440.655,-612.9917 444.812,-615.891 449.2733,-618.2938"/>
<polygon fill="#191970" stroke="#191970" points="377.3134,-389.9416 372.3947,-380.5578 370.388,-390.9608 377.3134,-389.9416"/>
</g>
<!-- Node8 -->
<g id="node8" class="node">
<title>Node8</title>
<g id="a_node8"><a xlink:href="../../d4/df5/Fun4All__G4__EICDetector__LQ__reference_8C.html#a2feefc472f17f90b3cbe74897d049f75" target="_top" xlink:title="Fun4All_G4_EICDetector\l_LQ_reference">
<polygon fill="none" stroke="#000000" points="451,-567.5 451,-599.5 590,-599.5 590,-567.5 451,-567.5"/>
<text text-anchor="start" x="459" y="-586.5" font-family="FreeSans" font-size="10.00" fill="#000000">Fun4All_G4_EICDetector</text>
<text text-anchor="middle" x="520.5" y="-574.5" font-family="FreeSans" font-size="10.00" fill="#000000">_LQ_reference</text>
</a>
</g>
</g>
<!-- Node3&#45;&gt;Node8 -->
<g id="edge7" class="edge">
<title>Node3&#45;&gt;Node8</title>
<path fill="none" stroke="#191970" d="M372.2967,-391.2022C375.8343,-429.7153 388.9213,-512.6165 437,-558.5 441.0504,-562.3655 445.6743,-565.6359 450.6212,-568.4024"/>
<polygon fill="#191970" stroke="#191970" points="375.7493,-390.4604 371.4773,-380.765 368.7708,-391.0084 375.7493,-390.4604"/>
</g>
<!-- Node9 -->
<g id="node9" class="node">
<title>Node9</title>
<g id="a_node9"><a xlink:href="../../d3/d51/Fun4All__G4__EICDetector__RICH_8C.html#a5739502b0a7a1ba782c01069f77e933f" target="_top" xlink:title="Fun4All_G4_EICDetector_RICH">
<polygon fill="none" stroke="#000000" points="437,-528.5 437,-548.5 604,-548.5 604,-528.5 437,-528.5"/>
<text text-anchor="middle" x="520.5" y="-535.5" font-family="FreeSans" font-size="10.00" fill="#000000">Fun4All_G4_EICDetector_RICH</text>
</a>
</g>
</g>
<!-- Node3&#45;&gt;Node9 -->
<g id="edge8" class="edge">
<title>Node3&#45;&gt;Node9</title>
<path fill="none" stroke="#191970" d="M374.0732,-390.7609C380.0889,-423.12 396.5551,-486.2025 437,-519.5 441.3615,-523.0908 446.2681,-526.0342 451.4617,-528.4433"/>
<polygon fill="#191970" stroke="#191970" points="377.4883,-389.966 372.359,-380.6956 370.5876,-391.1412 377.4883,-389.966"/>
</g>
<!-- Node10 -->
<g id="node10" class="node">
<title>Node10</title>
<g id="a_node10"><a xlink:href="../../d9/d0e/Fun4All__G4__EICIR_8C.html#ac3543d1dd4a0abed3987d40939ee3f87" target="_top" xlink:title="Fun4All_G4_EICIR">
<polygon fill="none" stroke="#000000" points="468.5,-489.5 468.5,-509.5 572.5,-509.5 572.5,-489.5 468.5,-489.5"/>
<text text-anchor="middle" x="520.5" y="-496.5" font-family="FreeSans" font-size="10.00" fill="#000000">Fun4All_G4_EICIR</text>
</a>
</g>
</g>
<!-- Node3&#45;&gt;Node10 -->
<g id="edge9" class="edge">
<title>Node3&#45;&gt;Node10</title>
<path fill="none" stroke="#191970" d="M377.2986,-390.0753C386.3796,-415.0549 405.5981,-457.7457 437,-480.5 446.1494,-487.1298 457.2257,-491.4978 468.2782,-494.3625"/>
<polygon fill="#191970" stroke="#191970" points="380.5882,-388.8783 374.0214,-380.5639 373.97,-391.1586 380.5882,-388.8783"/>
</g>
<!-- Node11 -->
<g id="node11" class="node">
<title>Node11</title>
<g id="a_node11"><a xlink:href="../../d7/d9e/Fun4All__G4__fsPHENIX_8C.html#af48911d394d2412e817583700f2bbee2" target="_top" xlink:title="Fun4All_G4_fsPHENIX">
<polygon fill="none" stroke="#000000" points="458.5,-450.5 458.5,-470.5 582.5,-470.5 582.5,-450.5 458.5,-450.5"/>
<text text-anchor="middle" x="520.5" y="-457.5" font-family="FreeSans" font-size="10.00" fill="#000000">Fun4All_G4_fsPHENIX</text>
</a>
</g>
</g>
<!-- Node3&#45;&gt;Node11 -->
<g id="edge10" class="edge">
<title>Node3&#45;&gt;Node11</title>
<path fill="none" stroke="#191970" d="M383.1024,-388.7729C394.9084,-405.1193 414.3623,-428.454 437,-441.5 443.5694,-445.2859 450.8352,-448.3174 458.2593,-450.7449"/>
<polygon fill="#191970" stroke="#191970" points="385.9439,-386.7287 377.3586,-380.5203 380.1985,-390.7275 385.9439,-386.7287"/>
</g>
<!-- Node12 -->
<g id="node12" class="node">
<title>Node12</title>
<g id="a_node12"><a xlink:href="../../da/d2f/Fun4All__G4__fsPHENIX__FastSim_8C.html#a66fb850cae5fcaadda23b74a25ce4c9c" target="_top" xlink:title="Fun4All_G4_fsPHENIX\l_FastSim">
<polygon fill="none" stroke="#000000" points="458.5,-399.5 458.5,-431.5 582.5,-431.5 582.5,-399.5 458.5,-399.5"/>
<text text-anchor="start" x="466.5" y="-418.5" font-family="FreeSans" font-size="10.00" fill="#000000">Fun4All_G4_fsPHENIX</text>
<text text-anchor="middle" x="520.5" y="-406.5" font-family="FreeSans" font-size="10.00" fill="#000000">_FastSim</text>
</a>
</g>
</g>
<!-- Node3&#45;&gt;Node12 -->
<g id="edge11" class="edge">
<title>Node3&#45;&gt;Node12</title>
<path fill="none" stroke="#191970" d="M411.0215,-382.651C419.5918,-385.2466 428.5954,-387.9684 437,-390.5 446.5629,-393.3805 456.745,-396.4374 466.5913,-399.3883"/>
<polygon fill="#191970" stroke="#191970" points="411.807,-379.232 401.2217,-379.6811 409.7767,-385.9311 411.807,-379.232"/>
</g>
<!-- Node13 -->
<g id="node13" class="node">
<title>Node13</title>
<g id="a_node13"><a xlink:href="../../d0/da6/Fun4All__G4__fsPHENIX__pi0_8C.html#a023d91d47b678e5d7f1751834aa517c6" target="_top" xlink:title="Fun4All_G4_fsPHENIX_pi0">
<polygon fill="none" stroke="#000000" points="448,-360.5 448,-380.5 593,-380.5 593,-360.5 448,-360.5"/>
<text text-anchor="middle" x="520.5" y="-367.5" font-family="FreeSans" font-size="10.00" fill="#000000">Fun4All_G4_fsPHENIX_pi0</text>
</a>
</g>
</g>
<!-- Node3&#45;&gt;Node13 -->
<g id="edge12" class="edge">
<title>Node3&#45;&gt;Node13</title>
<path fill="none" stroke="#191970" d="M411.2574,-370.5C422.6119,-370.5 435.3264,-370.5 447.9568,-370.5"/>
<polygon fill="#191970" stroke="#191970" points="411.2536,-367.0001 401.2536,-370.5 411.2535,-374.0001 411.2536,-367.0001"/>
</g>
<!-- Node14 -->
<g id="node14" class="node">
<title>Node14</title>
<g id="a_node14"><a xlink:href="../../d5/d2c/macros_2blob_2master_2macros_2g4simulations_2Fun4All__G4__sPHENIX_8C.html#a6eaaa492d7023ec86c562dc63aa1e5a4" target="_top" xlink:title="Fun4All_G4_sPHENIX">
<polygon fill="none" stroke="#000000" points="460,-321.5 460,-341.5 581,-341.5 581,-321.5 460,-321.5"/>
<text text-anchor="middle" x="520.5" y="-328.5" font-family="FreeSans" font-size="10.00" fill="#000000">Fun4All_G4_sPHENIX</text>
</a>
</g>
</g>
<!-- Node3&#45;&gt;Node14 -->
<g id="edge13" class="edge">
<title>Node3&#45;&gt;Node14</title>
<path fill="none" stroke="#191970" d="M410.9477,-358.6858C419.5229,-356.2379 428.5471,-353.7278 437,-351.5 449.9729,-348.0809 464.1445,-344.5939 477.0686,-341.5094"/>
<polygon fill="#191970" stroke="#191970" points="409.7882,-355.3775 401.1488,-361.5103 411.727,-362.1036 409.7882,-355.3775"/>
</g>
<!-- Node15 -->
<g id="node15" class="node">
<title>Node15</title>
<g id="a_node15"><a xlink:href="../../d3/de2/Fun4All__G4__sPHENIX__AnaGenFit_8C.html#a9bf3f2f72ed69a17e2d0c1121d48013c" target="_top" xlink:title="Fun4All_G4_sPHENIX\l_AnaGenFit">
<polygon fill="none" stroke="#000000" points="460,-270.5 460,-302.5 581,-302.5 581,-270.5 460,-270.5"/>
<text text-anchor="start" x="468" y="-289.5" font-family="FreeSans" font-size="10.00" fill="#000000">Fun4All_G4_sPHENIX</text>
<text text-anchor="middle" x="520.5" y="-277.5" font-family="FreeSans" font-size="10.00" fill="#000000">_AnaGenFit</text>
</a>
</g>
</g>
<!-- Node3&#45;&gt;Node15 -->
<g id="edge14" class="edge">
<title>Node3&#45;&gt;Node15</title>
<path fill="none" stroke="#191970" d="M386.8209,-353.1073C399.3321,-340.2803 417.8321,-323.2574 437,-312.5 444.1498,-308.4874 451.9986,-305.0107 459.9334,-302.0225"/>
<polygon fill="#191970" stroke="#191970" points="384.1922,-350.7929 379.8524,-360.4582 389.2723,-355.6088 384.1922,-350.7929"/>
</g>
<!-- Node16 -->
<g id="node16" class="node">
<title>Node16</title>
<g id="a_node16"><a xlink:href="../../da/dd0/Fun4All__G4__sPHENIX__photonjet_8C.html#a6f18519e216acc05399e562ea57ea77c" target="_top" xlink:title="Fun4All_G4_sPHENIX\l_photonjet">
<polygon fill="none" stroke="#000000" points="460,-219.5 460,-251.5 581,-251.5 581,-219.5 460,-219.5"/>
<text text-anchor="start" x="468" y="-238.5" font-family="FreeSans" font-size="10.00" fill="#000000">Fun4All_G4_sPHENIX</text>
<text text-anchor="middle" x="520.5" y="-226.5" font-family="FreeSans" font-size="10.00" fill="#000000">_photonjet</text>
</a>
</g>
</g>
<!-- Node3&#45;&gt;Node16 -->
<g id="edge15" class="edge">
<title>Node3&#45;&gt;Node16</title>
<path fill="none" stroke="#191970" d="M377.8971,-350.7728C387.435,-326.3231 406.9534,-285.0174 437,-261.5 443.815,-256.1659 451.7348,-251.9182 459.9296,-248.5375"/>
<polygon fill="#191970" stroke="#191970" points="374.5194,-349.8146 374.3167,-360.4075 381.081,-352.2531 374.5194,-349.8146"/>
</g>
<!-- Node17 -->
<g id="node17" class="node">
<title>Node17</title>
<g id="a_node17"><a xlink:href="../../da/d85/Fun4All__G4__sPHENIX__photons_8C.html#a02fbbd59878fe1299f58ed187e7214ba" target="_top" xlink:title="Fun4All_G4_sPHENIX\l_photons">
<polygon fill="none" stroke="#000000" points="460,-168.5 460,-200.5 581,-200.5 581,-168.5 460,-168.5"/>
<text text-anchor="start" x="468" y="-187.5" font-family="FreeSans" font-size="10.00" fill="#000000">Fun4All_G4_sPHENIX</text>
<text text-anchor="middle" x="520.5" y="-175.5" font-family="FreeSans" font-size="10.00" fill="#000000">_photons</text>
</a>
</g>
</g>
<!-- Node3&#45;&gt;Node17 -->
<g id="edge16" class="edge">
<title>Node3&#45;&gt;Node17</title>
<path fill="none" stroke="#191970" d="M373.7733,-350.0912C379.4512,-316.2229 395.5599,-248.3926 437,-210.5 443.4988,-204.5575 451.339,-199.9731 459.5791,-196.4364"/>
<polygon fill="#191970" stroke="#191970" points="370.2821,-349.7677 372.2261,-360.1826 377.2012,-350.8286 370.2821,-349.7677"/>
</g>
<!-- Node18 -->
<g id="node18" class="node">
<title>Node18</title>
<g id="a_node18"><a xlink:href="../../de/d55/Fun4All__G4__sPHENIX__truthphotonjet_8C.html#a48a6f4503eaa1b3793d8ae572aa795b9" target="_top" xlink:title="Fun4All_G4_sPHENIX\l_truthphotonjet">
<polygon fill="none" stroke="#000000" points="460,-117.5 460,-149.5 581,-149.5 581,-117.5 460,-117.5"/>
<text text-anchor="start" x="468" y="-136.5" font-family="FreeSans" font-size="10.00" fill="#000000">Fun4All_G4_sPHENIX</text>
<text text-anchor="middle" x="520.5" y="-124.5" font-family="FreeSans" font-size="10.00" fill="#000000">_truthphotonjet</text>
</a>
</g>
</g>
<!-- Node3&#45;&gt;Node18 -->
<g id="edge17" class="edge">
<title>Node3&#45;&gt;Node18</title>
<path fill="none" stroke="#191970" d="M374.8059,-350.4761C384.1489,-303.2843 409.4693,-186.9952 437,-159.5 443.4458,-153.0626 451.4569,-148.2144 459.9455,-144.5643"/>
<polygon fill="#191970" stroke="#191970" points="371.3469,-349.9282 372.8739,-360.4124 378.2182,-351.2642 371.3469,-349.9282"/>
</g>
<!-- Node19 -->
<g id="node19" class="node">
<title>Node19</title>
<g id="a_node19"><a xlink:href="../../d4/d65/Fun4All__single__particle_8C.html#a8a492b5dbead494bfdddbebde8a49b0e" target="_top" xlink:title="Fun4All_single_particle">
<polygon fill="none" stroke="#000000" points="454.5,-78.5 454.5,-98.5 586.5,-98.5 586.5,-78.5 454.5,-78.5"/>
<text text-anchor="middle" x="520.5" y="-85.5" font-family="FreeSans" font-size="10.00" fill="#000000">Fun4All_single_particle</text>
</a>
</g>
</g>
<!-- Node3&#45;&gt;Node19 -->
<g id="edge18" class="edge">
<title>Node3&#45;&gt;Node19</title>
<path fill="none" stroke="#191970" d="M373.3687,-350.4384C380.2869,-295.2354 402.1994,-142.8964 437,-108.5 441.9829,-103.575 447.9507,-99.7842 454.3737,-96.8773"/>
<polygon fill="#191970" stroke="#191970" points="369.891,-350.0439 372.153,-360.3944 376.8394,-350.8924 369.891,-350.0439"/>
</g>
<!-- Node20 -->
<g id="node20" class="node">
<title>Node20</title>
<g id="a_node20"><a xlink:href="../../d0/d99/Jin__BJet_8C.html#a36169bfee2ed7efda633944d12aebad9" target="_top" xlink:title="Jin_BJet">
<polygon fill="none" stroke="#000000" points="493,-39.5 493,-59.5 548,-59.5 548,-39.5 493,-39.5"/>
<text text-anchor="middle" x="520.5" y="-46.5" font-family="FreeSans" font-size="10.00" fill="#000000">Jin_BJet</text>
</a>
</g>
</g>
<!-- Node3&#45;&gt;Node20 -->
<g id="edge19" class="edge">
<title>Node3&#45;&gt;Node20</title>
<path fill="none" stroke="#191970" d="M372.7078,-349.9311C378.2001,-288.7831 397.4054,-109.8637 437,-69.5 451.4053,-54.8148 474.5441,-50.1503 492.8144,-48.9703"/>
<polygon fill="#191970" stroke="#191970" points="369.1929,-349.9525 371.815,-360.2177 376.1666,-350.5579 369.1929,-349.9525"/>
</g>
<!-- Node21 -->
<g id="node21" class="node">
<title>Node21</title>
<g id="a_node21"><a xlink:href="../../dd/db1/Wrapper_8cxx.html#abf1e42281903daa0752c80dd6c879fac" target="_top" xlink:title="Wrapper">
<polygon fill="none" stroke="#000000" points="490.5,-.5 490.5,-20.5 550.5,-20.5 550.5,-.5 490.5,-.5"/>
<text text-anchor="middle" x="520.5" y="-7.5" font-family="FreeSans" font-size="10.00" fill="#000000">Wrapper</text>
</a>
</g>
</g>
<!-- Node3&#45;&gt;Node21 -->
<g id="edge20" class="edge">
<title>Node3&#45;&gt;Node21</title>
<path fill="none" stroke="#191970" d="M372.1452,-349.9331C376.2574,-283.6121 392.4729,-77.0008 437,-30.5 450.6086,-16.2882 472.3834,-11.4149 490.2849,-10.0283"/>
<polygon fill="#191970" stroke="#191970" points="368.6288,-350.1076 371.5319,-360.2969 375.6166,-350.5212 368.6288,-350.1076"/>
</g>
<!-- Node5 -->
<g id="node5" class="node">
<title>Node5</title>
<g id="a_node5"><a xlink:href="../../d3/d7f/Fun_8C.html#af69a3eef3ff244bb51f5740c6ecb5432" target="_top" xlink:title="Fun">
<polygon fill="none" stroke="#000000" points="640,-696.5 640,-716.5 674,-716.5 674,-696.5 640,-696.5"/>
<text text-anchor="middle" x="657" y="-703.5" font-family="FreeSans" font-size="10.00" fill="#000000">Fun</text>
</a>
</g>
</g>
<!-- Node4&#45;&gt;Node5 -->
<g id="edge4" class="edge">
<title>Node4&#45;&gt;Node5</title>
<path fill="none" stroke="#191970" d="M587.6941,-706.5C607.0852,-706.5 626.59,-706.5 639.9452,-706.5"/>
<polygon fill="#191970" stroke="#191970" points="587.5974,-703.0001 577.5974,-706.5 587.5974,-710.0001 587.5974,-703.0001"/>
</g>
</g>
</svg>
