<?xml version="1.0" encoding="UTF-8" standalone="no"?>
<!DOCTYPE svg PUBLIC "-//W3C//DTD SVG 1.1//EN"
 "http://www.w3.org/Graphics/SVG/1.1/DTD/svg11.dtd">
<!-- Generated by graphviz version 2.40.1 (20161225.0304)
 -->
<!-- Title: coresoftware/blob/master/offline/framework/fun4all/Fun4AllNoSyncDstInputManager.h Pages: 1 -->
<svg width="1438pt" height="146pt"
 viewBox="0.00 0.00 1438.00 146.00" xmlns="http://www.w3.org/2000/svg" xmlns:xlink="http://www.w3.org/1999/xlink">
<g id="graph0" class="graph" transform="scale(1 1) rotate(0) translate(4 142)">
<title>coresoftware/blob/master/offline/framework/fun4all/Fun4AllNoSyncDstInputManager.h</title>
<!-- Node1 -->
<g id="node1" class="node">
<title>Node1</title>
<polygon fill="#bfbfbf" stroke="#000000" points="595,-93.5 595,-137.5 787,-137.5 787,-93.5 595,-93.5"/>
<text text-anchor="start" x="603" y="-124.5" font-family="FreeSans" font-size="10.00" fill="#000000">coresoftware/blob/master</text>
<text text-anchor="start" x="603" y="-112.5" font-family="FreeSans" font-size="10.00" fill="#000000">/offline/framework/fun4all</text>
<text text-anchor="middle" x="691" y="-100.5" font-family="FreeSans" font-size="10.00" fill="#000000">/Fun4AllNoSyncDstInputManager.h</text>
</g>
<!-- Node2 -->
<g id="node2" class="node">
<title>Node2</title>
<g id="a_node2"><a xlink:href="../../d9/d35/Fun4AllNoSyncDstInputManager_8cc.html" target="_top" xlink:title="coresoftware/blob/master\l/offline/framework/fun4all\l/Fun4AllNoSyncDstInputManager.cc">
<polygon fill="none" stroke="#000000" points="0,-6.5 0,-50.5 196,-50.5 196,-6.5 0,-6.5"/>
<text text-anchor="start" x="8" y="-37.5" font-family="FreeSans" font-size="10.00" fill="#000000">coresoftware/blob/master</text>
<text text-anchor="start" x="8" y="-25.5" font-family="FreeSans" font-size="10.00" fill="#000000">/offline/framework/fun4all</text>
<text text-anchor="middle" x="98" y="-13.5" font-family="FreeSans" font-size="10.00" fill="#000000">/Fun4AllNoSyncDstInputManager.cc</text>
</a>
</g>
</g>
<!-- Node1&#45;&gt;Node2 -->
<g id="edge1" class="edge">
<title>Node1&#45;&gt;Node2</title>
<path fill="none" stroke="#191970" d="M584.9387,-107.0587C486.0353,-98.1671 334.6978,-81.9506 205,-57 195.4667,-55.166 185.5307,-52.9466 175.7221,-50.5651"/>
<polygon fill="#191970" stroke="#191970" points="584.6693,-110.5485 594.9402,-107.9489 585.2899,-103.576 584.6693,-110.5485"/>
</g>
<!-- Node3 -->
<g id="node3" class="node">
<title>Node3</title>
<g id="a_node3"><a xlink:href="../../da/d02/Fun4All__G4__EICDetector_8C.html" target="_top" xlink:title="macros/blob/master\l/macros/g4simulations\l/Fun4All_G4_EICDetector.C">
<polygon fill="none" stroke="#000000" points="214,-6.5 214,-50.5 366,-50.5 366,-6.5 214,-6.5"/>
<text text-anchor="start" x="222" y="-37.5" font-family="FreeSans" font-size="10.00" fill="#000000">macros/blob/master</text>
<text text-anchor="start" x="222" y="-25.5" font-family="FreeSans" font-size="10.00" fill="#000000">/macros/g4simulations</text>
<text text-anchor="middle" x="290" y="-13.5" font-family="FreeSans" font-size="10.00" fill="#000000">/Fun4All_G4_EICDetector.C</text>
</a>
</g>
</g>
<!-- Node1&#45;&gt;Node3 -->
<g id="edge2" class="edge">
<title>Node1&#45;&gt;Node3</title>
<path fill="none" stroke="#191970" d="M584.6803,-99.6433C522.9898,-89.4934 444.0725,-74.879 375,-57 367.6168,-55.0889 359.9459,-52.8653 352.3679,-50.5187"/>
<polygon fill="#191970" stroke="#191970" points="584.3854,-103.1414 594.8184,-101.2968 585.5122,-96.2327 584.3854,-103.1414"/>
</g>
<!-- Node4 -->
<g id="node4" class="node">
<title>Node4</title>
<g id="a_node4"><a xlink:href="../../d7/d9e/Fun4All__G4__fsPHENIX_8C.html" target="_top" xlink:title="macros/blob/master\l/macros/g4simulations\l/Fun4All_G4_fsPHENIX.C">
<polygon fill="none" stroke="#000000" points="384.5,-6.5 384.5,-50.5 523.5,-50.5 523.5,-6.5 384.5,-6.5"/>
<text text-anchor="start" x="392.5" y="-37.5" font-family="FreeSans" font-size="10.00" fill="#000000">macros/blob/master</text>
<text text-anchor="start" x="392.5" y="-25.5" font-family="FreeSans" font-size="10.00" fill="#000000">/macros/g4simulations</text>
<text text-anchor="middle" x="454" y="-13.5" font-family="FreeSans" font-size="10.00" fill="#000000">/Fun4All_G4_fsPHENIX.C</text>
</a>
</g>
</g>
<!-- Node1&#45;&gt;Node4 -->
<g id="edge3" class="edge">
<title>Node1&#45;&gt;Node4</title>
<path fill="none" stroke="#191970" d="M621.4629,-89.9737C587.3857,-77.4644 546.7537,-62.5488 514.0474,-50.5427"/>
<polygon fill="#191970" stroke="#191970" points="620.2949,-93.2733 630.8885,-93.4338 622.7072,-86.702 620.2949,-93.2733"/>
</g>
<!-- Node5 -->
<g id="node5" class="node">
<title>Node5</title>
<g id="a_node5"><a xlink:href="../../d5/d2c/macros_2blob_2master_2macros_2g4simulations_2Fun4All__G4__sPHENIX_8C.html" target="_top" xlink:title="macros/blob/master\l/macros/g4simulations\l/Fun4All_G4_sPHENIX.C">
<polygon fill="none" stroke="#000000" points="541.5,-6.5 541.5,-50.5 676.5,-50.5 676.5,-6.5 541.5,-6.5"/>
<text text-anchor="start" x="549.5" y="-37.5" font-family="FreeSans" font-size="10.00" fill="#000000">macros/blob/master</text>
<text text-anchor="start" x="549.5" y="-25.5" font-family="FreeSans" font-size="10.00" fill="#000000">/macros/g4simulations</text>
<text text-anchor="middle" x="609" y="-13.5" font-family="FreeSans" font-size="10.00" fill="#000000">/Fun4All_G4_sPHENIX.C</text>
</a>
</g>
</g>
<!-- Node1&#45;&gt;Node5 -->
<g id="edge4" class="edge">
<title>Node1&#45;&gt;Node5</title>
<path fill="none" stroke="#191970" d="M662.9622,-85.7526C652.0765,-74.2031 639.8319,-61.2119 629.7616,-50.5276"/>
<polygon fill="#191970" stroke="#191970" points="660.4771,-88.2188 669.883,-93.0953 665.5711,-83.4176 660.4771,-88.2188"/>
</g>
<!-- Node6 -->
<g id="node6" class="node">
<title>Node6</title>
<g id="a_node6"><a xlink:href="../../de/da9/ReadClustersRunTracking_8C.html" target="_top" xlink:title="macros/blob/master\l/macros/g4simulations\l/ReadClustersRunTracking.C">
<polygon fill="none" stroke="#000000" points="694.5,-6.5 694.5,-50.5 853.5,-50.5 853.5,-6.5 694.5,-6.5"/>
<text text-anchor="start" x="702.5" y="-37.5" font-family="FreeSans" font-size="10.00" fill="#000000">macros/blob/master</text>
<text text-anchor="start" x="702.5" y="-25.5" font-family="FreeSans" font-size="10.00" fill="#000000">/macros/g4simulations</text>
<text text-anchor="middle" x="774" y="-13.5" font-family="FreeSans" font-size="10.00" fill="#000000">/ReadClustersRunTracking.C</text>
</a>
</g>
</g>
<!-- Node1&#45;&gt;Node6 -->
<g id="edge5" class="edge">
<title>Node1&#45;&gt;Node6</title>
<path fill="none" stroke="#191970" d="M719.3797,-85.7526C730.3982,-74.2031 742.7921,-61.2119 752.9852,-50.5276"/>
<polygon fill="#191970" stroke="#191970" points="716.745,-83.4439 712.3746,-93.0953 721.8098,-88.2759 716.745,-83.4439"/>
</g>
<!-- Node7 -->
<g id="node7" class="node">
<title>Node7</title>
<g id="a_node7"><a xlink:href="../../d2/dae/Fun4All__TestBeam__HCAL__SampleFrac_8C.html" target="_top" xlink:title="analysis/blob/master\l/Prototype4/HCal/macros\l/SampleFrac/Fun4All_TestBeam\l_HCAL_SampleFrac.C">
<polygon fill="none" stroke="#000000" points="872,-.5 872,-56.5 1046,-56.5 1046,-.5 872,-.5"/>
<text text-anchor="start" x="880" y="-43.5" font-family="FreeSans" font-size="10.00" fill="#000000">analysis/blob/master</text>
<text text-anchor="start" x="880" y="-31.5" font-family="FreeSans" font-size="10.00" fill="#000000">/Prototype4/HCal/macros</text>
<text text-anchor="start" x="880" y="-19.5" font-family="FreeSans" font-size="10.00" fill="#000000">/SampleFrac/Fun4All_TestBeam</text>
<text text-anchor="middle" x="959" y="-7.5" font-family="FreeSans" font-size="10.00" fill="#000000">_HCAL_SampleFrac.C</text>
</a>
</g>
</g>
<!-- Node1&#45;&gt;Node7 -->
<g id="edge6" class="edge">
<title>Node1&#45;&gt;Node7</title>
<path fill="none" stroke="#191970" d="M768.8501,-90.2278C801.261,-79.7063 839.0223,-67.448 872.3134,-56.6408"/>
<polygon fill="#191970" stroke="#191970" points="767.4049,-87.0171 758.9742,-93.4338 769.5663,-93.675 767.4049,-87.0171"/>
</g>
<!-- Node8 -->
<g id="node8" class="node">
<title>Node8</title>
<g id="a_node8"><a xlink:href="../../dc/d48/Fun4All__TestBeam__HCAL__ShowerCalib_8C.html" target="_top" xlink:title="analysis/blob/master\l/Prototype4/HCal/macros\l/ShowerCalib/Fun4All_TestBeam\l_HCAL_ShowerCalib.C">
<polygon fill="none" stroke="#000000" points="1064,-.5 1064,-56.5 1242,-56.5 1242,-.5 1064,-.5"/>
<text text-anchor="start" x="1072" y="-43.5" font-family="FreeSans" font-size="10.00" fill="#000000">analysis/blob/master</text>
<text text-anchor="start" x="1072" y="-31.5" font-family="FreeSans" font-size="10.00" fill="#000000">/Prototype4/HCal/macros</text>
<text text-anchor="start" x="1072" y="-19.5" font-family="FreeSans" font-size="10.00" fill="#000000">/ShowerCalib/Fun4All_TestBeam</text>
<text text-anchor="middle" x="1153" y="-7.5" font-family="FreeSans" font-size="10.00" fill="#000000">_HCAL_ShowerCalib.C</text>
</a>
</g>
</g>
<!-- Node1&#45;&gt;Node8 -->
<g id="edge7" class="edge">
<title>Node1&#45;&gt;Node8</title>
<path fill="none" stroke="#191970" d="M797.1529,-101.9709C870.1127,-91.8114 968.9679,-76.3451 1055,-57 1057.9388,-56.3392 1060.9195,-55.6404 1063.9235,-54.9117"/>
<polygon fill="#191970" stroke="#191970" points="796.4607,-98.5332 787.0339,-103.3691 797.4188,-105.4673 796.4607,-98.5332"/>
</g>
<!-- Node9 -->
<g id="node9" class="node">
<title>Node9</title>
<g id="a_node9"><a xlink:href="../../d6/dc1/Fun4All__TestBeam__HCAL__TowerCalib_8C.html" target="_top" xlink:title="analysis/blob/master\l/Prototype4/HCal/macros\l/TowerCalib/Fun4All_TestBeam\l_HCAL_TowerCalib.C">
<polygon fill="none" stroke="#000000" points="1260,-.5 1260,-56.5 1430,-56.5 1430,-.5 1260,-.5"/>
<text text-anchor="start" x="1268" y="-43.5" font-family="FreeSans" font-size="10.00" fill="#000000">analysis/blob/master</text>
<text text-anchor="start" x="1268" y="-31.5" font-family="FreeSans" font-size="10.00" fill="#000000">/Prototype4/HCal/macros</text>
<text text-anchor="start" x="1268" y="-19.5" font-family="FreeSans" font-size="10.00" fill="#000000">/TowerCalib/Fun4All_TestBeam</text>
<text text-anchor="middle" x="1345" y="-7.5" font-family="FreeSans" font-size="10.00" fill="#000000">_HCAL_TowerCalib.C</text>
</a>
</g>
</g>
<!-- Node1&#45;&gt;Node9 -->
<g id="edge8" class="edge">
<title>Node1&#45;&gt;Node9</title>
<path fill="none" stroke="#191970" d="M797.2728,-110.4281C910.5912,-103.6209 1094.8587,-88.527 1251,-57 1253.9252,-56.4094 1256.8898,-55.7663 1259.8747,-55.0807"/>
<polygon fill="#191970" stroke="#191970" points="796.9856,-106.9389 787.2092,-111.022 797.398,-113.9267 796.9856,-106.9389"/>
</g>
</g>
</svg>
