<?xml version="1.0" encoding="UTF-8" standalone="no"?>
<!DOCTYPE svg PUBLIC "-//W3C//DTD SVG 1.1//EN"
 "http://www.w3.org/Graphics/SVG/1.1/DTD/svg11.dtd">
<!-- Generated by graphviz version 2.40.1 (20161225.0304)
 -->
<!-- Title: PHNode::getParent Pages: 1 -->
<svg width="1027pt" height="1706pt"
 viewBox="0.00 0.00 1027.00 1706.00" xmlns="http://www.w3.org/2000/svg" xmlns:xlink="http://www.w3.org/1999/xlink">
<g id="graph0" class="graph" transform="scale(1 1) rotate(0) translate(4 1702)">
<title>PHNode::getParent</title>
<!-- Node1 -->
<g id="node1" class="node">
<title>Node1</title>
<polygon fill="#bfbfbf" stroke="#000000" points="0,-779.5 0,-799.5 112,-799.5 112,-779.5 0,-779.5"/>
<text text-anchor="middle" x="56" y="-786.5" font-family="FreeSans" font-size="10.00" fill="#000000">PHNode::getParent</text>
</g>
<!-- Node2 -->
<g id="node2" class="node">
<title>Node2</title>
<g id="a_node2"><a xlink:href="../../d5/d07/classPHNodeIterator.html#a63d6c37796624455366e84ee121bb251" target="_top" xlink:title="PHNodeIterator::cd">
<polygon fill="none" stroke="#000000" points="148,-779.5 148,-799.5 260,-799.5 260,-779.5 148,-779.5"/>
<text text-anchor="middle" x="204" y="-786.5" font-family="FreeSans" font-size="10.00" fill="#000000">PHNodeIterator::cd</text>
</a>
</g>
</g>
<!-- Node1&#45;&gt;Node2 -->
<g id="edge1" class="edge">
<title>Node1&#45;&gt;Node2</title>
<path fill="none" stroke="#191970" d="M122.5579,-789.5C130.9836,-789.5 139.5393,-789.5 147.7821,-789.5"/>
<polygon fill="#191970" stroke="#191970" points="122.3747,-786.0001 112.3747,-789.5 122.3746,-793.0001 122.3747,-786.0001"/>
</g>
<!-- Node3 -->
<g id="node3" class="node">
<title>Node3</title>
<g id="a_node3"><a xlink:href="../../da/d29/classFun4AllServer.html#ab2479a9a3e45d51118e308597acd5228" target="_top" xlink:title="Fun4AllServer::ResetNodeTree">
<polygon fill="none" stroke="#000000" points="299.5,-847.5 299.5,-867.5 468.5,-867.5 468.5,-847.5 299.5,-847.5"/>
<text text-anchor="middle" x="384" y="-854.5" font-family="FreeSans" font-size="10.00" fill="#000000">Fun4AllServer::ResetNodeTree</text>
</a>
</g>
</g>
<!-- Node2&#45;&gt;Node3 -->
<g id="edge2" class="edge">
<title>Node2&#45;&gt;Node3</title>
<path fill="none" stroke="#191970" d="M229.1012,-804.8532C247.1554,-815.3265 272.3845,-828.8212 296,-837.5 306.7352,-841.4452 318.5036,-844.7667 329.8431,-847.4994"/>
<polygon fill="#191970" stroke="#191970" points="230.7514,-801.763 220.3607,-799.6932 227.1928,-807.791 230.7514,-801.763"/>
</g>
<!-- Node47 -->
<g id="node47" class="node">
<title>Node47</title>
<g id="a_node47"><a xlink:href="../../d7/d4d/classPHNodeIOManager.html#a3882997324989c7dd04e9f6b728af7db" target="_top" xlink:title="PHNodeIOManager::reconstruct\lNodeTree">
<polygon fill="none" stroke="#000000" points="296,-796.5 296,-828.5 472,-828.5 472,-796.5 296,-796.5"/>
<text text-anchor="start" x="304" y="-815.5" font-family="FreeSans" font-size="10.00" fill="#000000">PHNodeIOManager::reconstruct</text>
<text text-anchor="middle" x="384" y="-803.5" font-family="FreeSans" font-size="10.00" fill="#000000">NodeTree</text>
</a>
</g>
</g>
<!-- Node2&#45;&gt;Node47 -->
<g id="edge47" class="edge">
<title>Node2&#45;&gt;Node47</title>
<path fill="none" stroke="#191970" d="M270.3882,-797.9829C278.6616,-799.0401 287.2214,-800.1338 295.7601,-801.2249"/>
<polygon fill="#191970" stroke="#191970" points="270.8223,-794.51 260.4593,-796.7142 269.935,-801.4536 270.8223,-794.51"/>
</g>
<!-- Node49 -->
<g id="node49" class="node">
<title>Node49</title>
<g id="a_node49"><a xlink:href="../../da/d9e/classDumper.html#a7e747d78a7aa7647979089384fe7fac8" target="_top" xlink:title="Dumper::process_event">
<polygon fill="none" stroke="#000000" points="315.5,-757.5 315.5,-777.5 452.5,-777.5 452.5,-757.5 315.5,-757.5"/>
<text text-anchor="middle" x="384" y="-764.5" font-family="FreeSans" font-size="10.00" fill="#000000">Dumper::process_event</text>
</a>
</g>
</g>
<!-- Node2&#45;&gt;Node49 -->
<g id="edge49" class="edge">
<title>Node2&#45;&gt;Node49</title>
<path fill="none" stroke="#191970" d="M270.4458,-781.3789C285.1081,-779.5868 300.6677,-777.6851 315.4132,-775.8828"/>
<polygon fill="#191970" stroke="#191970" points="269.9607,-777.912 260.4593,-782.5994 270.81,-784.8603 269.9607,-777.912"/>
</g>
<!-- Node50 -->
<g id="node50" class="node">
<title>Node50</title>
<g id="a_node50"><a xlink:href="../../da/d9e/classDumper.html#aae25632cf4fa4aa796ec904e1be5e1a5" target="_top" xlink:title="Called at the end of all processing.">
<polygon fill="none" stroke="#000000" points="343,-718.5 343,-738.5 425,-738.5 425,-718.5 343,-718.5"/>
<text text-anchor="middle" x="384" y="-725.5" font-family="FreeSans" font-size="10.00" fill="#000000">Dumper::End</text>
</a>
</g>
</g>
<!-- Node2&#45;&gt;Node50 -->
<g id="edge50" class="edge">
<title>Node2&#45;&gt;Node50</title>
<path fill="none" stroke="#191970" d="M232.1719,-774.7172C250.062,-765.8166 273.9253,-754.8265 296,-747.5 310.9825,-742.5274 327.8405,-738.5211 342.762,-735.4925"/>
<polygon fill="#191970" stroke="#191970" points="230.2392,-771.7724 222.8967,-779.4104 233.3997,-778.0184 230.2392,-771.7724"/>
</g>
<!-- Node4 -->
<g id="node4" class="node">
<title>Node4</title>
<g id="a_node4"><a xlink:href="../../da/d29/classFun4AllServer.html#a6a65a944dfb40966ace97d35ab1f7942" target="_top" xlink:title="Fun4AllServer::process\l_event">
<polygon fill="none" stroke="#000000" points="512,-883.5 512,-915.5 644,-915.5 644,-883.5 512,-883.5"/>
<text text-anchor="start" x="520" y="-902.5" font-family="FreeSans" font-size="10.00" fill="#000000">Fun4AllServer::process</text>
<text text-anchor="middle" x="578" y="-890.5" font-family="FreeSans" font-size="10.00" fill="#000000">_event</text>
</a>
</g>
</g>
<!-- Node3&#45;&gt;Node4 -->
<g id="edge3" class="edge">
<title>Node3&#45;&gt;Node4</title>
<path fill="none" stroke="#191970" d="M440.4491,-869.7209C462.7551,-874.5501 488.5502,-880.1346 511.7333,-885.1536"/>
<polygon fill="#191970" stroke="#191970" points="440.982,-866.2553 430.4678,-867.56 439.5008,-873.0968 440.982,-866.2553"/>
</g>
<!-- Node6 -->
<g id="node6" class="node">
<title>Node6</title>
<g id="a_node6"><a xlink:href="../../da/d29/classFun4AllServer.html#a11bbc8b2f53bc06e0b05ee202dd6372a" target="_top" xlink:title="run n events (0 means up to end of file)">
<polygon fill="none" stroke="#ff0000" points="695,-844.5 695,-864.5 805,-864.5 805,-844.5 695,-844.5"/>
<text text-anchor="middle" x="750" y="-851.5" font-family="FreeSans" font-size="10.00" fill="#000000">Fun4AllServer::run</text>
</a>
</g>
</g>
<!-- Node3&#45;&gt;Node6 -->
<g id="edge46" class="edge">
<title>Node3&#45;&gt;Node6</title>
<path fill="none" stroke="#191970" d="M479.265,-856.7191C547.8006,-856.1574 637.8433,-855.4193 694.8346,-854.9522"/>
<polygon fill="#191970" stroke="#191970" points="478.8586,-853.2223 468.8877,-856.8042 478.9161,-860.222 478.8586,-853.2223"/>
</g>
<!-- Node5 -->
<g id="node5" class="node">
<title>Node5</title>
<g id="a_node5"><a xlink:href="../../da/d29/classFun4AllServer.html#a94738b092fa009fcea45737d8ea41224" target="_top" xlink:title="Fun4AllServer::process\l_event">
<polygon fill="none" stroke="#000000" points="684,-883.5 684,-915.5 816,-915.5 816,-883.5 684,-883.5"/>
<text text-anchor="start" x="692" y="-902.5" font-family="FreeSans" font-size="10.00" fill="#000000">Fun4AllServer::process</text>
<text text-anchor="middle" x="750" y="-890.5" font-family="FreeSans" font-size="10.00" fill="#000000">_event</text>
</a>
</g>
</g>
<!-- Node4&#45;&gt;Node5 -->
<g id="edge4" class="edge">
<title>Node4&#45;&gt;Node5</title>
<path fill="none" stroke="#191970" d="M654.2272,-899.5C664.1158,-899.5 674.179,-899.5 683.8847,-899.5"/>
<polygon fill="#191970" stroke="#191970" points="654.0078,-896.0001 644.0078,-899.5 654.0077,-903.0001 654.0078,-896.0001"/>
</g>
<!-- Node4&#45;&gt;Node6 -->
<g id="edge5" class="edge">
<title>Node4&#45;&gt;Node6</title>
<path fill="none" stroke="#191970" d="M649.3001,-880.8459C670.6229,-875.2673 693.1882,-869.3636 711.5412,-864.5619"/>
<polygon fill="#191970" stroke="#191970" points="648.3986,-877.4639 639.6101,-883.3811 650.1704,-884.2359 648.3986,-877.4639"/>
</g>
<!-- Node7 -->
<g id="node7" class="node">
<title>Node7</title>
<g id="a_node7"><a xlink:href="../../dd/d9c/AnalyzeTree_8C.html#af10d516ac25cd720d54534a63ef7e2f8" target="_top" xlink:title="AnalyzeTree">
<polygon fill="none" stroke="#000000" points="896.5,-1677.5 896.5,-1697.5 974.5,-1697.5 974.5,-1677.5 896.5,-1677.5"/>
<text text-anchor="middle" x="935.5" y="-1684.5" font-family="FreeSans" font-size="10.00" fill="#000000">AnalyzeTree</text>
</a>
</g>
</g>
<!-- Node6&#45;&gt;Node7 -->
<g id="edge6" class="edge">
<title>Node6&#45;&gt;Node7</title>
<path fill="none" stroke="#191970" d="M812.4717,-870.5865C813.7327,-871.8005 814.9136,-873.1029 816,-874.5 870.2113,-944.2158 795.3654,-1600.738 852,-1668.5 862.6783,-1681.2763 879.9955,-1686.5101 896.0987,-1688.3555"/>
<polygon fill="#191970" stroke="#191970" points="814.5673,-867.7831 804.4758,-864.5561 810.3523,-873.3719 814.5673,-867.7831"/>
</g>
<!-- Node8 -->
<g id="node8" class="node">
<title>Node8</title>
<g id="a_node8"><a xlink:href="../../db/d89/ConstructGeometry_8C.html#a21c369835643f1016f506a3da3b8d446" target="_top" xlink:title="ConstructGeometry">
<polygon fill="none" stroke="#000000" points="878,-1638.5 878,-1658.5 993,-1658.5 993,-1638.5 878,-1638.5"/>
<text text-anchor="middle" x="935.5" y="-1645.5" font-family="FreeSans" font-size="10.00" fill="#000000">ConstructGeometry</text>
</a>
</g>
</g>
<!-- Node6&#45;&gt;Node8 -->
<g id="edge7" class="edge">
<title>Node6&#45;&gt;Node8</title>
<path fill="none" stroke="#191970" d="M812.4674,-870.5899C813.7296,-871.8029 814.912,-873.1042 816,-874.5 867.6316,-940.7384 798.0661,-1565.1224 852,-1629.5 858.6833,-1637.4774 867.9547,-1642.5127 877.8993,-1645.6185"/>
<polygon fill="#191970" stroke="#191970" points="814.5596,-867.784 804.4659,-864.5638 810.3484,-873.3756 814.5596,-867.784"/>
</g>
<!-- Node9 -->
<g id="node9" class="node">
<title>Node9</title>
<g id="a_node9"><a xlink:href="../../d3/d7f/Fun_8C.html#af69a3eef3ff244bb51f5740c6ecb5432" target="_top" xlink:title="Fun">
<polygon fill="none" stroke="#000000" points="918.5,-1599.5 918.5,-1619.5 952.5,-1619.5 952.5,-1599.5 918.5,-1599.5"/>
<text text-anchor="middle" x="935.5" y="-1606.5" font-family="FreeSans" font-size="10.00" fill="#000000">Fun</text>
</a>
</g>
</g>
<!-- Node6&#45;&gt;Node9 -->
<g id="edge8" class="edge">
<title>Node6&#45;&gt;Node9</title>
<path fill="none" stroke="#191970" d="M812.4625,-870.5936C813.7262,-871.8056 814.9102,-873.1056 816,-874.5 914.1042,-1000.0226 749.533,-1468.5128 852,-1590.5 868.0646,-1609.625 899.0049,-1611.831 918.378,-1611.0878"/>
<polygon fill="#191970" stroke="#191970" points="814.551,-867.785 804.455,-864.5723 810.344,-873.3797 814.551,-867.785"/>
</g>
<!-- Node10 -->
<g id="node10" class="node">
<title>Node10</title>
<g id="a_node10"><a xlink:href="../../dc/ddc/Fun4All__Ana_8C.html#a9152007c2477efc543d79f3b97fbf50c" target="_top" xlink:title="Fun4All_Ana">
<polygon fill="none" stroke="#000000" points="896.5,-1560.5 896.5,-1580.5 974.5,-1580.5 974.5,-1560.5 896.5,-1560.5"/>
<text text-anchor="middle" x="935.5" y="-1567.5" font-family="FreeSans" font-size="10.00" fill="#000000">Fun4All_Ana</text>
</a>
</g>
</g>
<!-- Node6&#45;&gt;Node10 -->
<g id="edge9" class="edge">
<title>Node6&#45;&gt;Node10</title>
<path fill="none" stroke="#191970" d="M812.4572,-870.5978C813.7224,-871.8085 814.9082,-873.1072 816,-874.5 908.9458,-993.069 754.9333,-1436.2802 852,-1551.5 862.7281,-1564.2345 880.0516,-1569.463 896.146,-1571.3158"/>
<polygon fill="#191970" stroke="#191970" points="814.5416,-867.7861 804.4429,-864.5818 810.3392,-873.3844 814.5416,-867.7861"/>
</g>
<!-- Node11 -->
<g id="node11" class="node">
<title>Node11</title>
<g id="a_node11"><a xlink:href="../../df/d77/Fun4All__CaloAna_8C.html#a4f0841e3d8be48f96cc4e95380315ff8" target="_top" xlink:title="Fun4All_CaloAna">
<polygon fill="none" stroke="#000000" points="885.5,-1521.5 885.5,-1541.5 985.5,-1541.5 985.5,-1521.5 885.5,-1521.5"/>
<text text-anchor="middle" x="935.5" y="-1528.5" font-family="FreeSans" font-size="10.00" fill="#000000">Fun4All_CaloAna</text>
</a>
</g>
</g>
<!-- Node6&#45;&gt;Node11 -->
<g id="edge10" class="edge">
<title>Node6&#45;&gt;Node11</title>
<path fill="none" stroke="#191970" d="M812.4512,-870.6025C813.7182,-871.8119 814.9059,-873.109 816,-874.5 903.788,-986.1164 760.333,-1404.0468 852,-1512.5 860.3495,-1522.3785 872.6677,-1527.737 885.2927,-1530.5069"/>
<polygon fill="#191970" stroke="#191970" points="814.5309,-867.7874 804.4292,-864.5925 810.3338,-873.3895 814.5309,-867.7874"/>
</g>
<!-- Node12 -->
<g id="node12" class="node">
<title>Node12</title>
<g id="a_node12"><a xlink:href="../../da/dae/Fun4All__EICAnalysis__DIS_8C.html#a6be6c58cd68a395182a998295a1106ae" target="_top" xlink:title="Fun4All_EICAnalysis_DIS">
<polygon fill="none" stroke="#000000" points="866,-1482.5 866,-1502.5 1005,-1502.5 1005,-1482.5 866,-1482.5"/>
<text text-anchor="middle" x="935.5" y="-1489.5" font-family="FreeSans" font-size="10.00" fill="#000000">Fun4All_EICAnalysis_DIS</text>
</a>
</g>
</g>
<!-- Node6&#45;&gt;Node12 -->
<g id="edge11" class="edge">
<title>Node6&#45;&gt;Node12</title>
<path fill="none" stroke="#191970" d="M812.4444,-870.6079C813.7134,-871.8157 814.9034,-873.111 816,-874.5 898.6309,-979.1647 765.7318,-1371.8124 852,-1473.5 855.8472,-1478.0348 860.5306,-1481.6163 865.6952,-1484.4318"/>
<polygon fill="#191970" stroke="#191970" points="814.5189,-867.7888 804.4139,-864.6047 810.3277,-873.3954 814.5189,-867.7888"/>
</g>
<!-- Node13 -->
<g id="node13" class="node">
<title>Node13</title>
<g id="a_node13"><a xlink:href="../../d2/d9b/Fun4All__EICAnalysis__DISReco_8C.html#a3c160743ec7b9b4572cf73a19640a34f" target="_top" xlink:title="Fun4All_EICAnalysis\l_DISReco">
<polygon fill="none" stroke="#000000" points="877,-1431.5 877,-1463.5 994,-1463.5 994,-1431.5 877,-1431.5"/>
<text text-anchor="start" x="885" y="-1450.5" font-family="FreeSans" font-size="10.00" fill="#000000">Fun4All_EICAnalysis</text>
<text text-anchor="middle" x="935.5" y="-1438.5" font-family="FreeSans" font-size="10.00" fill="#000000">_DISReco</text>
</a>
</g>
</g>
<!-- Node6&#45;&gt;Node13 -->
<g id="edge12" class="edge">
<title>Node6&#45;&gt;Node13</title>
<path fill="none" stroke="#191970" d="M812.4341,-870.616C813.7061,-871.8214 814.8995,-873.114 816,-874.5 891.8886,-970.0759 775.9525,-1327.0505 852,-1422.5 858.412,-1430.5479 867.3092,-1436.0843 876.9188,-1439.8756"/>
<polygon fill="#191970" stroke="#191970" points="814.5007,-867.7911 804.3905,-864.6231 810.3184,-873.4044 814.5007,-867.7911"/>
</g>
<!-- Node14 -->
<g id="node14" class="node">
<title>Node14</title>
<g id="a_node14"><a xlink:href="../../d2/d47/Fun4All__EICAnalysis__DVCS_8C.html#a84f48142243e969fd353cc8509f0ba22" target="_top" xlink:title="Fun4All_EICAnalysis_DVCS">
<polygon fill="none" stroke="#000000" points="860.5,-1392.5 860.5,-1412.5 1010.5,-1412.5 1010.5,-1392.5 860.5,-1392.5"/>
<text text-anchor="middle" x="935.5" y="-1399.5" font-family="FreeSans" font-size="10.00" fill="#000000">Fun4All_EICAnalysis_DVCS</text>
</a>
</g>
</g>
<!-- Node6&#45;&gt;Node14 -->
<g id="edge13" class="edge">
<title>Node6&#45;&gt;Node14</title>
<path fill="none" stroke="#191970" d="M812.4249,-870.6234C813.6995,-871.8266 814.896,-873.1168 816,-874.5 886.7341,-963.1274 778.1864,-1297.4205 852,-1383.5 855.0001,-1386.9986 858.498,-1389.9285 862.3292,-1392.3762"/>
<polygon fill="#191970" stroke="#191970" points="814.4843,-867.7932 804.3696,-864.6398 810.3101,-873.4125 814.4843,-867.7932"/>
</g>
<!-- Node15 -->
<g id="node15" class="node">
<title>Node15</title>
<g id="a_node15"><a xlink:href="../../d3/dee/Fun4All__EICAnalysis__Exclusive_8C.html#ad3a88bfdb2a21a757edf221e36d6bffe" target="_top" xlink:title="Fun4All_EICAnalysis\l_Exclusive">
<polygon fill="none" stroke="#000000" points="877,-1341.5 877,-1373.5 994,-1373.5 994,-1341.5 877,-1341.5"/>
<text text-anchor="start" x="885" y="-1360.5" font-family="FreeSans" font-size="10.00" fill="#000000">Fun4All_EICAnalysis</text>
<text text-anchor="middle" x="935.5" y="-1348.5" font-family="FreeSans" font-size="10.00" fill="#000000">_Exclusive</text>
</a>
</g>
</g>
<!-- Node6&#45;&gt;Node15 -->
<g id="edge14" class="edge">
<title>Node6&#45;&gt;Node15</title>
<path fill="none" stroke="#191970" d="M812.4105,-870.6349C813.6894,-871.8348 814.8906,-873.1211 816,-874.5 879.996,-954.0439 787.8717,-1253.0627 852,-1332.5 858.3685,-1340.3889 867.123,-1345.8608 876.5783,-1349.6406"/>
<polygon fill="#191970" stroke="#191970" points="814.4587,-867.7966 804.3369,-864.666 810.2972,-873.4253 814.4587,-867.7966"/>
</g>
<!-- Node16 -->
<g id="node16" class="node">
<title>Node16</title>
<g id="a_node16"><a xlink:href="../../d2/d00/Fun4All__EICAnalysis__Leptoquarks_8C.html#a328697c2ae82c0b33f95bea9aefb93f4" target="_top" xlink:title="Fun4All_EICAnalysis\l_Leptoquarks">
<polygon fill="none" stroke="#000000" points="877,-1290.5 877,-1322.5 994,-1322.5 994,-1290.5 877,-1290.5"/>
<text text-anchor="start" x="885" y="-1309.5" font-family="FreeSans" font-size="10.00" fill="#000000">Fun4All_EICAnalysis</text>
<text text-anchor="middle" x="935.5" y="-1297.5" font-family="FreeSans" font-size="10.00" fill="#000000">_Leptoquarks</text>
</a>
</g>
</g>
<!-- Node6&#45;&gt;Node16 -->
<g id="edge15" class="edge">
<title>Node6&#45;&gt;Node16</title>
<path fill="none" stroke="#191970" d="M812.3028,-870.5662C813.6205,-871.7855 814.858,-873.0946 816,-874.5 873.2616,-944.9649 794.6213,-1211.1304 852,-1281.5 858.407,-1289.3576 867.1799,-1294.8147 876.6413,-1298.5895"/>
<polygon fill="#191970" stroke="#191970" points="814.1323,-867.569 803.9859,-864.5193 810.0159,-873.2308 814.1323,-867.569"/>
</g>
<!-- Node17 -->
<g id="node17" class="node">
<title>Node17</title>
<g id="a_node17"><a xlink:href="../../df/d6c/Fun4All__EICAnalysis__JPsi_8C.html#ad03644e8a25c5261146f6c59826ed6d0" target="_top" xlink:title="Fun4All_EICAnalysis\l_Quarkonia">
<polygon fill="none" stroke="#000000" points="877,-1239.5 877,-1271.5 994,-1271.5 994,-1239.5 877,-1239.5"/>
<text text-anchor="start" x="885" y="-1258.5" font-family="FreeSans" font-size="10.00" fill="#000000">Fun4All_EICAnalysis</text>
<text text-anchor="middle" x="935.5" y="-1246.5" font-family="FreeSans" font-size="10.00" fill="#000000">_Quarkonia</text>
</a>
</g>
</g>
<!-- Node6&#45;&gt;Node17 -->
<g id="edge16" class="edge">
<title>Node6&#45;&gt;Node17</title>
<path fill="none" stroke="#191970" d="M812.2794,-870.5853C813.6039,-871.799 814.8492,-873.1018 816,-874.5 917.0649,-997.285 750.7309,-1107.8833 852,-1230.5 858.4563,-1238.3172 867.2525,-1243.7551 876.7218,-1247.5235"/>
<polygon fill="#191970" stroke="#191970" points="814.0904,-867.576 803.9332,-864.5624 809.9942,-873.2524 814.0904,-867.576"/>
</g>
<!-- Node18 -->
<g id="node18" class="node">
<title>Node18</title>
<g id="a_node18"><a xlink:href="../../df/d90/Fun4All__EICAnalysis__TrackEval_8C.html#ab4d10c3db3266243a5c314b02c02a360" target="_top" xlink:title="Fun4All_EICAnalysis\l_TrackEval">
<polygon fill="none" stroke="#000000" points="877,-1188.5 877,-1220.5 994,-1220.5 994,-1188.5 877,-1188.5"/>
<text text-anchor="start" x="885" y="-1207.5" font-family="FreeSans" font-size="10.00" fill="#000000">Fun4All_EICAnalysis</text>
<text text-anchor="middle" x="935.5" y="-1195.5" font-family="FreeSans" font-size="10.00" fill="#000000">_TrackEval</text>
</a>
</g>
</g>
<!-- Node6&#45;&gt;Node18 -->
<g id="edge17" class="edge">
<title>Node6&#45;&gt;Node18</title>
<path fill="none" stroke="#191970" d="M812.2485,-870.6109C813.582,-871.8172 814.8375,-873.1115 816,-874.5 903.6226,-979.1594 764.2034,-1074.9865 852,-1179.5 858.5213,-1187.263 867.3486,-1192.675 876.8282,-1196.4348"/>
<polygon fill="#191970" stroke="#191970" points="814.0349,-867.5857 803.8635,-864.6203 809.9656,-873.2814 814.0349,-867.5857"/>
</g>
<!-- Node19 -->
<g id="node19" class="node">
<title>Node19</title>
<g id="a_node19"><a xlink:href="../../de/dc8/Fun4All__EMCalLikelihood_8C.html#a209f0d5788c9d3adba2967f194bca64a" target="_top" xlink:title="Fun4All_EMCalLikelihood">
<polygon fill="none" stroke="#000000" points="865,-1149.5 865,-1169.5 1006,-1169.5 1006,-1149.5 865,-1149.5"/>
<text text-anchor="middle" x="935.5" y="-1156.5" font-family="FreeSans" font-size="10.00" fill="#000000">Fun4All_EMCalLikelihood</text>
</a>
</g>
</g>
<!-- Node6&#45;&gt;Node19 -->
<g id="edge18" class="edge">
<title>Node6&#45;&gt;Node19</title>
<path fill="none" stroke="#191970" d="M811.7481,-870.2248C813.2657,-871.5397 814.6899,-872.9619 816,-874.5 893.3596,-965.3184 771.4878,-1052.4643 852,-1140.5 855.7123,-1144.5592 860.0959,-1147.842 864.879,-1150.488"/>
<polygon fill="#191970" stroke="#191970" points="813.694,-867.3151 803.4788,-864.5044 809.7116,-873.0719 813.694,-867.3151"/>
</g>
<!-- Node20 -->
<g id="node20" class="node">
<title>Node20</title>
<g id="a_node20"><a xlink:href="../../df/d51/Fun4All__ExportGeom_8C.html#a582925c51bad38d562cf19e71211adfd" target="_top" xlink:title="get geometry from DST file and output TGeoManager ROOT files or other formats of geometry files...">
<polygon fill="none" stroke="#000000" points="874.5,-1110.5 874.5,-1130.5 996.5,-1130.5 996.5,-1110.5 874.5,-1110.5"/>
<text text-anchor="middle" x="935.5" y="-1117.5" font-family="FreeSans" font-size="10.00" fill="#000000">Fun4All_ExportGeom</text>
</a>
</g>
</g>
<!-- Node6&#45;&gt;Node20 -->
<g id="edge19" class="edge">
<title>Node6&#45;&gt;Node20</title>
<path fill="none" stroke="#191970" d="M811.7026,-870.2641C813.2331,-871.5678 814.6724,-872.9769 816,-874.5 883.1192,-951.5038 782.2087,-1026.9095 852,-1101.5 858.0945,-1108.0136 865.9191,-1112.5177 874.3278,-1115.5964"/>
<polygon fill="#191970" stroke="#191970" points="813.6166,-867.333 803.3841,-864.586 809.6702,-873.1145 813.6166,-867.333"/>
</g>
<!-- Node21 -->
<g id="node21" class="node">
<title>Node21</title>
<g id="a_node21"><a xlink:href="../../de/d55/Fun4All__G4__block_8C.html#a6a063a649a0dd3318a517d5af98430dd" target="_top" xlink:title="Fun4All_G4_block">
<polygon fill="none" stroke="#000000" points="883,-1071.5 883,-1091.5 988,-1091.5 988,-1071.5 883,-1071.5"/>
<text text-anchor="middle" x="935.5" y="-1078.5" font-family="FreeSans" font-size="10.00" fill="#000000">Fun4All_G4_block</text>
</a>
</g>
</g>
<!-- Node6&#45;&gt;Node21 -->
<g id="edge20" class="edge">
<title>Node6&#45;&gt;Node21</title>
<path fill="none" stroke="#191970" d="M811.536,-870.2344C813.1231,-871.546 814.6183,-872.9649 816,-874.5 872.9154,-937.7311 792.8915,-1001.3141 852,-1062.5 860.1603,-1070.9471 871.2359,-1075.9902 882.6504,-1078.9257"/>
<polygon fill="#191970" stroke="#191970" points="813.2032,-867.1403 802.9346,-864.5312 809.3348,-872.9744 813.2032,-867.1403"/>
</g>
<!-- Node22 -->
<g id="node22" class="node">
<title>Node22</title>
<g id="a_node22"><a xlink:href="../../d8/d91/Fun4All__G4__Clusters_8C.html#ab7d8e64f12f512631d4c0e8c6683ec5b" target="_top" xlink:title="Fun4All_G4_Clusters">
<polygon fill="none" stroke="#000000" points="876,-1032.5 876,-1052.5 995,-1052.5 995,-1032.5 876,-1032.5"/>
<text text-anchor="middle" x="935.5" y="-1039.5" font-family="FreeSans" font-size="10.00" fill="#000000">Fun4All_G4_Clusters</text>
</a>
</g>
</g>
<!-- Node6&#45;&gt;Node22 -->
<g id="edge21" class="edge">
<title>Node6&#45;&gt;Node22</title>
<path fill="none" stroke="#191970" d="M810.9206,-869.9128C812.7277,-871.3126 814.4304,-872.838 816,-874.5 862.7771,-924.0307 803.5064,-975.6486 852,-1023.5 858.5611,-1029.9742 866.8419,-1034.4269 875.6245,-1037.4576"/>
<polygon fill="#191970" stroke="#191970" points="812.7416,-866.9233 802.4172,-864.5446 809.0048,-872.8425 812.7416,-866.9233"/>
</g>
<!-- Node23 -->
<g id="node23" class="node">
<title>Node23</title>
<g id="a_node23"><a xlink:href="../../d2/dee/Fun4All__G4__Cylinder_8C.html#a271dc4f10f6f77107705e0efef0c97e5" target="_top" xlink:title="Fun4All_G4_Cylinder">
<polygon fill="none" stroke="#000000" points="875,-993.5 875,-1013.5 996,-1013.5 996,-993.5 875,-993.5"/>
<text text-anchor="middle" x="935.5" y="-1000.5" font-family="FreeSans" font-size="10.00" fill="#000000">Fun4All_G4_Cylinder</text>
</a>
</g>
</g>
<!-- Node6&#45;&gt;Node23 -->
<g id="edge22" class="edge">
<title>Node6&#45;&gt;Node23</title>
<path fill="none" stroke="#191970" d="M810.5176,-869.9035C812.4584,-871.3051 814.2962,-872.8334 816,-874.5 852.7727,-910.4707 813.9824,-949.8476 852,-984.5 858.4827,-990.4089 866.4125,-994.6033 874.778,-997.5598"/>
<polygon fill="#191970" stroke="#191970" points="811.8341,-866.6158 801.4455,-864.5356 808.2694,-872.6402 811.8341,-866.6158"/>
</g>
<!-- Node24 -->
<g id="node24" class="node">
<title>Node24</title>
<g id="a_node24"><a xlink:href="../../da/d02/Fun4All__G4__EICDetector_8C.html#afbe82cefa1d1fd031d9a8586b7bb68c6" target="_top" xlink:title="Fun4All_G4_EICDetector">
<polygon fill="none" stroke="#000000" points="866,-954.5 866,-974.5 1005,-974.5 1005,-954.5 866,-954.5"/>
<text text-anchor="middle" x="935.5" y="-961.5" font-family="FreeSans" font-size="10.00" fill="#000000">Fun4All_G4_EICDetector</text>
</a>
</g>
</g>
<!-- Node6&#45;&gt;Node24 -->
<g id="edge23" class="edge">
<title>Node6&#45;&gt;Node24</title>
<path fill="none" stroke="#191970" d="M808.4228,-869.1404C811.0985,-870.7448 813.6449,-872.5249 816,-874.5 843.1084,-897.2352 824.1072,-923.7343 852,-945.5 856.5711,-949.067 861.6874,-951.9881 867.0767,-954.3774"/>
<polygon fill="#191970" stroke="#191970" points="810.0108,-866.0214 799.5129,-864.5911 806.8275,-872.2558 810.0108,-866.0214"/>
</g>
<!-- Node25 -->
<g id="node25" class="node">
<title>Node25</title>
<g id="a_node25"><a xlink:href="../../dd/d2a/Fun4All__G4__EICDetector__LQ_8C.html#aaa01242fd6e77ca43a9d49a6d46008e4" target="_top" xlink:title="Fun4All_G4_EICDetector_LQ">
<polygon fill="none" stroke="#000000" points="857.5,-915.5 857.5,-935.5 1013.5,-935.5 1013.5,-915.5 857.5,-915.5"/>
<text text-anchor="middle" x="935.5" y="-922.5" font-family="FreeSans" font-size="10.00" fill="#000000">Fun4All_G4_EICDetector_LQ</text>
</a>
</g>
</g>
<!-- Node6&#45;&gt;Node25 -->
<g id="edge24" class="edge">
<title>Node6&#45;&gt;Node25</title>
<path fill="none" stroke="#191970" d="M802.6158,-868.138C807.253,-870.024 811.7821,-872.1383 816,-874.5 834.6785,-884.9587 832.9645,-896.706 852,-906.5 859.0065,-910.1049 866.6909,-913.0316 874.4721,-915.4063"/>
<polygon fill="#191970" stroke="#191970" points="803.6035,-864.7715 793.0104,-864.5808 801.1725,-871.3358 803.6035,-864.7715"/>
</g>
<!-- Node26 -->
<g id="node26" class="node">
<title>Node26</title>
<g id="a_node26"><a xlink:href="../../df/d4b/Fun4All__G4__EICDetector__LQ__analysis_8C.html#af903e98824d083a08b353ac15996ee0e" target="_top" xlink:title="Fun4All_G4_EICDetector\l_LQ_analysis">
<polygon fill="none" stroke="#000000" points="866,-864.5 866,-896.5 1005,-896.5 1005,-864.5 866,-864.5"/>
<text text-anchor="start" x="874" y="-883.5" font-family="FreeSans" font-size="10.00" fill="#000000">Fun4All_G4_EICDetector</text>
<text text-anchor="middle" x="935.5" y="-871.5" font-family="FreeSans" font-size="10.00" fill="#000000">_LQ_analysis</text>
</a>
</g>
</g>
<!-- Node6&#45;&gt;Node26 -->
<g id="edge25" class="edge">
<title>Node6&#45;&gt;Node26</title>
<path fill="none" stroke="#191970" d="M815.1601,-863.6329C831.5254,-865.9267 849.1514,-868.3972 865.7317,-870.7212"/>
<polygon fill="#191970" stroke="#191970" points="815.5429,-860.1525 805.1539,-862.2305 814.5712,-867.0847 815.5429,-860.1525"/>
</g>
<!-- Node27 -->
<g id="node27" class="node">
<title>Node27</title>
<g id="a_node27"><a xlink:href="../../d1/daf/Fun4All__G4__EICDetector__LQ__analysis__nf_8C.html#a5022607d21247b87dd208b0828905147" target="_top" xlink:title="Fun4All_G4_EICDetector\l_LQ_analysis_nf">
<polygon fill="none" stroke="#000000" points="866,-813.5 866,-845.5 1005,-845.5 1005,-813.5 866,-813.5"/>
<text text-anchor="start" x="874" y="-832.5" font-family="FreeSans" font-size="10.00" fill="#000000">Fun4All_G4_EICDetector</text>
<text text-anchor="middle" x="935.5" y="-820.5" font-family="FreeSans" font-size="10.00" fill="#000000">_LQ_analysis_nf</text>
</a>
</g>
</g>
<!-- Node6&#45;&gt;Node27 -->
<g id="edge26" class="edge">
<title>Node6&#45;&gt;Node27</title>
<path fill="none" stroke="#191970" d="M815.1601,-845.7183C831.5254,-843.5128 849.1514,-841.1373 865.7317,-838.9027"/>
<polygon fill="#191970" stroke="#191970" points="814.5968,-842.2625 805.1539,-847.0669 815.5318,-849.1998 814.5968,-842.2625"/>
</g>
<!-- Node28 -->
<g id="node28" class="node">
<title>Node28</title>
<g id="a_node28"><a xlink:href="../../d4/df5/Fun4All__G4__EICDetector__LQ__reference_8C.html#a2feefc472f17f90b3cbe74897d049f75" target="_top" xlink:title="Fun4All_G4_EICDetector\l_LQ_reference">
<polygon fill="none" stroke="#000000" points="866,-762.5 866,-794.5 1005,-794.5 1005,-762.5 866,-762.5"/>
<text text-anchor="start" x="874" y="-781.5" font-family="FreeSans" font-size="10.00" fill="#000000">Fun4All_G4_EICDetector</text>
<text text-anchor="middle" x="935.5" y="-769.5" font-family="FreeSans" font-size="10.00" fill="#000000">_LQ_reference</text>
</a>
</g>
</g>
<!-- Node6&#45;&gt;Node28 -->
<g id="edge27" class="edge">
<title>Node6&#45;&gt;Node28</title>
<path fill="none" stroke="#191970" d="M776.9289,-839.43C797.1615,-828.5063 825.7821,-813.8891 852,-803.5 860.0188,-800.3225 868.6063,-797.3205 877.1117,-794.5735"/>
<polygon fill="#191970" stroke="#191970" points="775.0897,-836.4464 767.9901,-844.3106 778.4444,-842.5902 775.0897,-836.4464"/>
</g>
<!-- Node29 -->
<g id="node29" class="node">
<title>Node29</title>
<g id="a_node29"><a xlink:href="../../d3/d51/Fun4All__G4__EICDetector__RICH_8C.html#a5739502b0a7a1ba782c01069f77e933f" target="_top" xlink:title="Fun4All_G4_EICDetector_RICH">
<polygon fill="none" stroke="#000000" points="852,-723.5 852,-743.5 1019,-743.5 1019,-723.5 852,-723.5"/>
<text text-anchor="middle" x="935.5" y="-730.5" font-family="FreeSans" font-size="10.00" fill="#000000">Fun4All_G4_EICDetector_RICH</text>
</a>
</g>
</g>
<!-- Node6&#45;&gt;Node29 -->
<g id="edge28" class="edge">
<title>Node6&#45;&gt;Node29</title>
<path fill="none" stroke="#191970" d="M763.2439,-835.904C780.8139,-812.6768 814.0671,-773.4483 852,-752.5 858.5072,-748.9064 865.6578,-745.9918 872.9522,-743.628"/>
<polygon fill="#191970" stroke="#191970" points="760.223,-834.1031 757.1017,-844.2278 765.8556,-838.2594 760.223,-834.1031"/>
</g>
<!-- Node30 -->
<g id="node30" class="node">
<title>Node30</title>
<g id="a_node30"><a xlink:href="../../d9/d0e/Fun4All__G4__EICIR_8C.html#ac3543d1dd4a0abed3987d40939ee3f87" target="_top" xlink:title="Fun4All_G4_EICIR">
<polygon fill="none" stroke="#000000" points="883.5,-684.5 883.5,-704.5 987.5,-704.5 987.5,-684.5 883.5,-684.5"/>
<text text-anchor="middle" x="935.5" y="-691.5" font-family="FreeSans" font-size="10.00" fill="#000000">Fun4All_G4_EICIR</text>
</a>
</g>
</g>
<!-- Node6&#45;&gt;Node30 -->
<g id="edge29" class="edge">
<title>Node6&#45;&gt;Node30</title>
<path fill="none" stroke="#191970" d="M758.4078,-835.131C772.842,-804.2831 805.3544,-744.3372 852,-713.5 861.3015,-707.3508 872.3197,-703.1739 883.2505,-700.3414"/>
<polygon fill="#191970" stroke="#191970" points="755.1504,-833.8397 754.2114,-844.3929 761.5265,-836.7286 755.1504,-833.8397"/>
</g>
<!-- Node31 -->
<g id="node31" class="node">
<title>Node31</title>
<g id="a_node31"><a xlink:href="../../d7/d9e/Fun4All__G4__fsPHENIX_8C.html#af48911d394d2412e817583700f2bbee2" target="_top" xlink:title="Fun4All_G4_fsPHENIX">
<polygon fill="none" stroke="#000000" points="873.5,-645.5 873.5,-665.5 997.5,-665.5 997.5,-645.5 873.5,-645.5"/>
<text text-anchor="middle" x="935.5" y="-652.5" font-family="FreeSans" font-size="10.00" fill="#000000">Fun4All_G4_fsPHENIX</text>
</a>
</g>
</g>
<!-- Node6&#45;&gt;Node31 -->
<g id="edge30" class="edge">
<title>Node6&#45;&gt;Node31</title>
<path fill="none" stroke="#191970" d="M755.3936,-834.6511C766.6625,-797.1303 796.3888,-715.861 852,-674.5 858.3225,-669.7976 865.6061,-666.2279 873.1818,-663.5234"/>
<polygon fill="#191970" stroke="#191970" points="751.9893,-833.8252 752.5888,-844.4031 758.7166,-835.7601 751.9893,-833.8252"/>
</g>
<!-- Node32 -->
<g id="node32" class="node">
<title>Node32</title>
<g id="a_node32"><a xlink:href="../../da/d2f/Fun4All__G4__fsPHENIX__FastSim_8C.html#a66fb850cae5fcaadda23b74a25ce4c9c" target="_top" xlink:title="Fun4All_G4_fsPHENIX\l_FastSim">
<polygon fill="none" stroke="#000000" points="873.5,-594.5 873.5,-626.5 997.5,-626.5 997.5,-594.5 873.5,-594.5"/>
<text text-anchor="start" x="881.5" y="-613.5" font-family="FreeSans" font-size="10.00" fill="#000000">Fun4All_G4_fsPHENIX</text>
<text text-anchor="middle" x="935.5" y="-601.5" font-family="FreeSans" font-size="10.00" fill="#000000">_FastSim</text>
</a>
</g>
</g>
<!-- Node6&#45;&gt;Node32 -->
<g id="edge31" class="edge">
<title>Node6&#45;&gt;Node32</title>
<path fill="none" stroke="#191970" d="M753.6232,-834.4171C762.4416,-791.4066 789.0898,-689.8926 852,-635.5 858.1814,-630.1555 865.4703,-625.9534 873.1245,-622.6495"/>
<polygon fill="#191970" stroke="#191970" points="750.1414,-833.9871 751.6731,-844.4706 757.0133,-835.3201 750.1414,-833.9871"/>
</g>
<!-- Node33 -->
<g id="node33" class="node">
<title>Node33</title>
<g id="a_node33"><a xlink:href="../../d0/da6/Fun4All__G4__fsPHENIX__pi0_8C.html#a023d91d47b678e5d7f1751834aa517c6" target="_top" xlink:title="Fun4All_G4_fsPHENIX_pi0">
<polygon fill="none" stroke="#000000" points="863,-555.5 863,-575.5 1008,-575.5 1008,-555.5 863,-555.5"/>
<text text-anchor="middle" x="935.5" y="-562.5" font-family="FreeSans" font-size="10.00" fill="#000000">Fun4All_G4_fsPHENIX_pi0</text>
</a>
</g>
</g>
<!-- Node6&#45;&gt;Node33 -->
<g id="edge32" class="edge">
<title>Node6&#45;&gt;Node33</title>
<path fill="none" stroke="#191970" d="M751.3687,-833.9922C755.8984,-783.3619 774.8868,-651.6797 852,-584.5 856.0355,-580.9843 860.5873,-578.0817 865.4303,-575.6892"/>
<polygon fill="#191970" stroke="#191970" points="747.8545,-834.0341 750.5528,-844.2796 754.8326,-834.5877 747.8545,-834.0341"/>
</g>
<!-- Node34 -->
<g id="node34" class="node">
<title>Node34</title>
<g id="a_node34"><a xlink:href="../../df/de1/Fun4All__G4__IonGun_8C.html#ab4966a2ae337cb8f0e45f7ee488e33b7" target="_top" xlink:title="Fun4All_G4_IonGun">
<polygon fill="none" stroke="#000000" points="878.5,-516.5 878.5,-536.5 992.5,-536.5 992.5,-516.5 878.5,-516.5"/>
<text text-anchor="middle" x="935.5" y="-523.5" font-family="FreeSans" font-size="10.00" fill="#000000">Fun4All_G4_IonGun</text>
</a>
</g>
</g>
<!-- Node6&#45;&gt;Node34 -->
<g id="edge33" class="edge">
<title>Node6&#45;&gt;Node34</title>
<path fill="none" stroke="#191970" d="M754.0254,-834.0768C766.7077,-771.7593 807.6318,-585.8374 852,-545.5 859.3703,-538.7993 868.6022,-534.3046 878.2164,-531.3201"/>
<polygon fill="#191970" stroke="#191970" points="750.5277,-833.7182 751.9916,-844.2115 757.3908,-835.0956 750.5277,-833.7182"/>
</g>
<!-- Node35 -->
<g id="node35" class="node">
<title>Node35</title>
<g id="a_node35"><a xlink:href="../../d5/d01/Fun4All__G4__LeadBrick_8C.html#a5fcd8843f8a815feb3b053eaabd60d41" target="_top" xlink:title="Fun4All_G4_LeadBrick">
<polygon fill="none" stroke="#000000" points="871.5,-477.5 871.5,-497.5 999.5,-497.5 999.5,-477.5 871.5,-477.5"/>
<text text-anchor="middle" x="935.5" y="-484.5" font-family="FreeSans" font-size="10.00" fill="#000000">Fun4All_G4_LeadBrick</text>
</a>
</g>
</g>
<!-- Node6&#45;&gt;Node35 -->
<g id="edge34" class="edge">
<title>Node6&#45;&gt;Node35</title>
<path fill="none" stroke="#191970" d="M753.208,-834.2034C764.2422,-766.9257 802.6834,-552.8787 852,-506.5 857.5234,-501.3056 864.1601,-497.4268 871.2472,-494.5455"/>
<polygon fill="#191970" stroke="#191970" points="749.7093,-833.9153 751.5713,-844.3453 756.6198,-835.0306 749.7093,-833.9153"/>
</g>
<!-- Node36 -->
<g id="node36" class="node">
<title>Node36</title>
<g id="a_node36"><a xlink:href="../../d9/d8f/Fun4All__G4__Momentum_8C.html#afbd7a4eecd7792e9216ce80b5514123e" target="_top" xlink:title="Fun4All_G4_Momentum">
<polygon fill="none" stroke="#000000" points="868,-438.5 868,-458.5 1003,-458.5 1003,-438.5 868,-438.5"/>
<text text-anchor="middle" x="935.5" y="-445.5" font-family="FreeSans" font-size="10.00" fill="#000000">Fun4All_G4_Momentum</text>
</a>
</g>
</g>
<!-- Node6&#45;&gt;Node36 -->
<g id="edge35" class="edge">
<title>Node6&#45;&gt;Node36</title>
<path fill="none" stroke="#191970" d="M752.5575,-834.3094C762.0736,-762.3586 797.7023,-519.9839 852,-467.5 856.5965,-463.057 862.0048,-459.5705 867.8223,-456.8446"/>
<polygon fill="#191970" stroke="#191970" points="749.0721,-833.9712 751.2556,-844.3386 756.0139,-834.8724 749.0721,-833.9712"/>
</g>
<!-- Node37 -->
<g id="node37" class="node">
<title>Node37</title>
<g id="a_node37"><a xlink:href="../../dc/d8e/Fun4All__G4__Prototype2_8C.html#a6b8f092c4f51be2938dd09c810ba6226" target="_top" xlink:title="Fun4All_G4_Prototype2">
<polygon fill="none" stroke="#000000" points="869,-399.5 869,-419.5 1002,-419.5 1002,-399.5 869,-399.5"/>
<text text-anchor="middle" x="935.5" y="-406.5" font-family="FreeSans" font-size="10.00" fill="#000000">Fun4All_G4_Prototype2</text>
</a>
</g>
</g>
<!-- Node6&#45;&gt;Node37 -->
<g id="edge36" class="edge">
<title>Node6&#45;&gt;Node37</title>
<path fill="none" stroke="#191970" d="M752.038,-834.3024C760.1642,-757.7879 792.7194,-487.1158 852,-428.5 856.863,-423.6915 862.6744,-419.9977 868.9363,-417.1731"/>
<polygon fill="#191970" stroke="#191970" points="748.5312,-834.188 750.9794,-844.496 755.4937,-834.9111 748.5312,-834.188"/>
</g>
<!-- Node38 -->
<g id="node38" class="node">
<title>Node38</title>
<g id="a_node38"><a xlink:href="../../d7/d40/Fun4All__G4__Prototype3_8C.html#a1201361263017b08a070777a0b90b27c" target="_top" xlink:title="Fun4All_G4_Prototype3">
<polygon fill="none" stroke="#000000" points="869,-360.5 869,-380.5 1002,-380.5 1002,-360.5 869,-360.5"/>
<text text-anchor="middle" x="935.5" y="-367.5" font-family="FreeSans" font-size="10.00" fill="#000000">Fun4All_G4_Prototype3</text>
</a>
</g>
</g>
<!-- Node6&#45;&gt;Node38 -->
<g id="edge37" class="edge">
<title>Node6&#45;&gt;Node38</title>
<path fill="none" stroke="#191970" d="M751.624,-834.05C758.4883,-752.818 787.777,-454.2259 852,-389.5 856.8169,-384.6454 862.5987,-380.9219 868.8432,-378.0799"/>
<polygon fill="#191970" stroke="#191970" points="748.1039,-834.151 750.7724,-844.4042 755.0804,-834.7248 748.1039,-834.151"/>
</g>
<!-- Node39 -->
<g id="node39" class="node">
<title>Node39</title>
<g id="a_node39"><a xlink:href="../../d4/d58/Fun4All__G4__Prototype4_8C.html#acac517f0728af658cbf99c7c9687c908" target="_top" xlink:title="Fun4All_G4_Prototype4">
<polygon fill="none" stroke="#000000" points="869,-321.5 869,-341.5 1002,-341.5 1002,-321.5 869,-321.5"/>
<text text-anchor="middle" x="935.5" y="-328.5" font-family="FreeSans" font-size="10.00" fill="#000000">Fun4All_G4_Prototype4</text>
</a>
</g>
</g>
<!-- Node6&#45;&gt;Node39 -->
<g id="edge38" class="edge">
<title>Node6&#45;&gt;Node39</title>
<path fill="none" stroke="#191970" d="M751.2351,-834.2691C756.8415,-749.1831 782.6895,-421.4979 852,-350.5 856.7773,-345.6064 862.5338,-341.858 868.7633,-339.0012"/>
<polygon fill="#191970" stroke="#191970" points="747.7316,-834.2134 750.588,-844.4159 754.7174,-834.659 747.7316,-834.2134"/>
</g>
<!-- Node40 -->
<g id="node40" class="node">
<title>Node40</title>
<g id="a_node40"><a xlink:href="../../d5/d2c/macros_2blob_2master_2macros_2g4simulations_2Fun4All__G4__sPHENIX_8C.html#a6eaaa492d7023ec86c562dc63aa1e5a4" target="_top" xlink:title="Fun4All_G4_sPHENIX">
<polygon fill="none" stroke="#000000" points="875,-282.5 875,-302.5 996,-302.5 996,-282.5 875,-282.5"/>
<text text-anchor="middle" x="935.5" y="-289.5" font-family="FreeSans" font-size="10.00" fill="#000000">Fun4All_G4_sPHENIX</text>
</a>
</g>
</g>
<!-- Node6&#45;&gt;Node40 -->
<g id="edge39" class="edge">
<title>Node6&#45;&gt;Node40</title>
<path fill="none" stroke="#191970" d="M750.9371,-833.8596C755.4361,-744.0824 777.7554,-388.6251 852,-311.5 858.2895,-304.9665 866.3227,-300.4678 874.9114,-297.4052"/>
<polygon fill="#191970" stroke="#191970" points="747.4297,-833.9314 750.4454,-844.088 754.4216,-834.2676 747.4297,-833.9314"/>
</g>
<!-- Node41 -->
<g id="node41" class="node">
<title>Node41</title>
<g id="a_node41"><a xlink:href="../../d3/de2/Fun4All__G4__sPHENIX__AnaGenFit_8C.html#a9bf3f2f72ed69a17e2d0c1121d48013c" target="_top" xlink:title="Fun4All_G4_sPHENIX\l_AnaGenFit">
<polygon fill="none" stroke="#000000" points="875,-231.5 875,-263.5 996,-263.5 996,-231.5 875,-231.5"/>
<text text-anchor="start" x="883" y="-250.5" font-family="FreeSans" font-size="10.00" fill="#000000">Fun4All_G4_sPHENIX</text>
<text text-anchor="middle" x="935.5" y="-238.5" font-family="FreeSans" font-size="10.00" fill="#000000">_AnaGenFit</text>
</a>
</g>
</g>
<!-- Node6&#45;&gt;Node41 -->
<g id="edge40" class="edge">
<title>Node6&#45;&gt;Node41</title>
<path fill="none" stroke="#191970" d="M750.7711,-834.3042C754.7058,-741.71 775.451,-358.609 852,-272.5 858.1329,-265.6012 866.0841,-260.5706 874.6387,-256.9097"/>
<polygon fill="#191970" stroke="#191970" points="747.2726,-834.1976 750.3637,-844.3315 754.2669,-834.4819 747.2726,-834.1976"/>
</g>
<!-- Node42 -->
<g id="node42" class="node">
<title>Node42</title>
<g id="a_node42"><a xlink:href="../../da/dd0/Fun4All__G4__sPHENIX__photonjet_8C.html#a6f18519e216acc05399e562ea57ea77c" target="_top" xlink:title="Fun4All_G4_sPHENIX\l_photonjet">
<polygon fill="none" stroke="#000000" points="875,-180.5 875,-212.5 996,-212.5 996,-180.5 875,-180.5"/>
<text text-anchor="start" x="883" y="-199.5" font-family="FreeSans" font-size="10.00" fill="#000000">Fun4All_G4_sPHENIX</text>
<text text-anchor="middle" x="935.5" y="-187.5" font-family="FreeSans" font-size="10.00" fill="#000000">_photonjet</text>
</a>
</g>
</g>
<!-- Node6&#45;&gt;Node42 -->
<g id="edge41" class="edge">
<title>Node6&#45;&gt;Node42</title>
<path fill="none" stroke="#191970" d="M750.4639,-834.1223C753.0957,-736.3315 769.1422,-316.0044 852,-221.5 858.1852,-214.4455 866.272,-209.3416 874.9767,-205.6573"/>
<polygon fill="#191970" stroke="#191970" points="746.9579,-834.3209 750.2058,-844.4056 753.9557,-834.4966 746.9579,-834.3209"/>
</g>
<!-- Node43 -->
<g id="node43" class="node">
<title>Node43</title>
<g id="a_node43"><a xlink:href="../../da/d85/Fun4All__G4__sPHENIX__photons_8C.html#a02fbbd59878fe1299f58ed187e7214ba" target="_top" xlink:title="Fun4All_G4_sPHENIX\l_photons">
<polygon fill="none" stroke="#000000" points="875,-129.5 875,-161.5 996,-161.5 996,-129.5 875,-129.5"/>
<text text-anchor="start" x="883" y="-148.5" font-family="FreeSans" font-size="10.00" fill="#000000">Fun4All_G4_sPHENIX</text>
<text text-anchor="middle" x="935.5" y="-136.5" font-family="FreeSans" font-size="10.00" fill="#000000">_photons</text>
</a>
</g>
</g>
<!-- Node6&#45;&gt;Node43 -->
<g id="edge42" class="edge">
<title>Node6&#45;&gt;Node43</title>
<path fill="none" stroke="#191970" d="M750.1948,-834.123C751.583,-731.6485 762.7644,-273.4913 852,-170.5 858.1437,-163.4093 866.2092,-158.2868 874.9053,-154.595"/>
<polygon fill="#191970" stroke="#191970" points="746.6925,-834.3047 750.0741,-844.3454 753.6921,-834.3875 746.6925,-834.3047"/>
</g>
<!-- Node44 -->
<g id="node44" class="node">
<title>Node44</title>
<g id="a_node44"><a xlink:href="../../de/d55/Fun4All__G4__sPHENIX__truthphotonjet_8C.html#a48a6f4503eaa1b3793d8ae572aa795b9" target="_top" xlink:title="Fun4All_G4_sPHENIX\l_truthphotonjet">
<polygon fill="none" stroke="#000000" points="875,-78.5 875,-110.5 996,-110.5 996,-78.5 875,-78.5"/>
<text text-anchor="start" x="883" y="-97.5" font-family="FreeSans" font-size="10.00" fill="#000000">Fun4All_G4_sPHENIX</text>
<text text-anchor="middle" x="935.5" y="-85.5" font-family="FreeSans" font-size="10.00" fill="#000000">_truthphotonjet</text>
</a>
</g>
</g>
<!-- Node6&#45;&gt;Node44 -->
<g id="edge43" class="edge">
<title>Node6&#45;&gt;Node44</title>
<path fill="none" stroke="#191970" d="M751.4931,-834.4742C760.0187,-722.3679 803.8582,-175.6352 852,-119.5 858.1076,-112.3782 866.1546,-107.2397 874.8432,-103.5415"/>
<polygon fill="#191970" stroke="#191970" points="748.0028,-834.2143 750.7409,-844.4492 754.983,-834.7407 748.0028,-834.2143"/>
</g>
<!-- Node45 -->
<g id="node45" class="node">
<title>Node45</title>
<g id="a_node45"><a xlink:href="../../db/da1/Fun4All__G4__TPC_8C.html#af60bcd3cf09ebd567e28ede14e9e894a" target="_top" xlink:title="Fun4All_G4_TPC">
<polygon fill="none" stroke="#000000" points="887,-39.5 887,-59.5 984,-59.5 984,-39.5 887,-39.5"/>
<text text-anchor="middle" x="935.5" y="-46.5" font-family="FreeSans" font-size="10.00" fill="#000000">Fun4All_G4_TPC</text>
</a>
</g>
</g>
<!-- Node6&#45;&gt;Node45 -->
<g id="edge44" class="edge">
<title>Node6&#45;&gt;Node45</title>
<path fill="none" stroke="#191970" d="M751.2629,-834.144C758.7384,-716.5289 798.6867,-127.1164 852,-68.5 860.903,-58.7115 873.7078,-53.4326 886.6254,-50.7108"/>
<polygon fill="#191970" stroke="#191970" points="747.7597,-834.0871 750.6249,-844.2872 754.7459,-834.5267 747.7597,-834.0871"/>
</g>
<!-- Node46 -->
<g id="node46" class="node">
<title>Node46</title>
<g id="a_node46"><a xlink:href="../../da/db5/Fun4All__G4__W_8C.html#ad4745423f42356b6b3cb65bbbc1e917e" target="_top" xlink:title="Fun4All_G4_W">
<polygon fill="none" stroke="#000000" points="891.5,-.5 891.5,-20.5 979.5,-20.5 979.5,-.5 891.5,-.5"/>
<text text-anchor="middle" x="935.5" y="-7.5" font-family="FreeSans" font-size="10.00" fill="#000000">Fun4All_G4_W</text>
</a>
</g>
</g>
<!-- Node6&#45;&gt;Node46 -->
<g id="edge45" class="edge">
<title>Node6&#45;&gt;Node46</title>
<path fill="none" stroke="#191970" d="M751.125,-834.2756C758.0172,-713.5628 796.0966,-91.3381 852,-29.5 861.9701,-18.4715 876.8921,-13.1599 891.3761,-10.7816"/>
<polygon fill="#191970" stroke="#191970" points="747.6252,-834.1748 750.5558,-844.3563 754.614,-834.5695 747.6252,-834.1748"/>
</g>
<!-- Node48 -->
<g id="node48" class="node">
<title>Node48</title>
<g id="a_node48"><a xlink:href="../../d7/d4d/classPHNodeIOManager.html#a9e0aa24bf4a67163e8209497ed89af73" target="_top" xlink:title="PHNodeIOManager::read">
<polygon fill="none" stroke="#ff0000" points="508,-802.5 508,-822.5 648,-822.5 648,-802.5 508,-802.5"/>
<text text-anchor="middle" x="578" y="-809.5" font-family="FreeSans" font-size="10.00" fill="#000000">PHNodeIOManager::read</text>
</a>
</g>
</g>
<!-- Node47&#45;&gt;Node48 -->
<g id="edge48" class="edge">
<title>Node47&#45;&gt;Node48</title>
<path fill="none" stroke="#191970" d="M482.2774,-812.5C490.8694,-812.5 499.448,-812.5 507.7435,-812.5"/>
<polygon fill="#191970" stroke="#191970" points="482.2012,-809.0001 472.2012,-812.5 482.2012,-816.0001 482.2012,-809.0001"/>
</g>
</g>
</svg>
