<?xml version="1.0" encoding="UTF-8" standalone="no"?>
<!DOCTYPE svg PUBLIC "-//W3C//DTD SVG 1.1//EN"
 "http://www.w3.org/Graphics/SVG/1.1/DTD/svg11.dtd">
<!-- Generated by graphviz version 2.40.1 (20161225.0304)
 -->
<!-- Title: PHNode::print Pages: 1 -->
<svg width="1198pt" height="1628pt"
 viewBox="0.00 0.00 1198.00 1628.00" xmlns="http://www.w3.org/2000/svg" xmlns:xlink="http://www.w3.org/1999/xlink">
<g id="graph0" class="graph" transform="scale(1 1) rotate(0) translate(4 1624)">
<title>PHNode::print</title>
<!-- Node1 -->
<g id="node1" class="node">
<title>Node1</title>
<polygon fill="#bfbfbf" stroke="#000000" points="0,-773.5 0,-793.5 87,-793.5 87,-773.5 0,-773.5"/>
<text text-anchor="middle" x="43.5" y="-780.5" font-family="FreeSans" font-size="10.00" fill="#000000">PHNode::print</text>
</g>
<!-- Node2 -->
<g id="node2" class="node">
<title>Node2</title>
<g id="a_node2"><a xlink:href="../../d5/dca/classPHCompositeNode.html#a6a3a273adbb9f7ec652b5227212a6b2d" target="_top" xlink:title="PHCompositeNode::print">
<polygon fill="none" stroke="#000000" points="123,-773.5 123,-793.5 264,-793.5 264,-773.5 123,-773.5"/>
<text text-anchor="middle" x="193.5" y="-780.5" font-family="FreeSans" font-size="10.00" fill="#000000">PHCompositeNode::print</text>
</a>
</g>
</g>
<!-- Node1&#45;&gt;Node2 -->
<g id="edge1" class="edge">
<title>Node1&#45;&gt;Node2</title>
<path fill="none" stroke="#191970" d="M97.4876,-783.5C105.7202,-783.5 114.3202,-783.5 122.8452,-783.5"/>
<polygon fill="#191970" stroke="#191970" points="97.2895,-780.0001 87.2894,-783.5 97.2894,-787.0001 97.2895,-780.0001"/>
</g>
<!-- Node3 -->
<g id="node3" class="node">
<title>Node3</title>
<g id="a_node3"><a xlink:href="../../d5/d07/classPHNodeIterator.html#aec2fbc1e56be7e1a0b064ecde48edee5" target="_top" xlink:title="PHNodeIterator::print">
<polygon fill="none" stroke="#000000" points="300,-773.5 300,-793.5 424,-793.5 424,-773.5 300,-773.5"/>
<text text-anchor="middle" x="362" y="-780.5" font-family="FreeSans" font-size="10.00" fill="#000000">PHNodeIterator::print</text>
</a>
</g>
</g>
<!-- Node2&#45;&gt;Node3 -->
<g id="edge2" class="edge">
<title>Node2&#45;&gt;Node3</title>
<path fill="none" stroke="#191970" d="M274.4753,-783.5C283.0333,-783.5 291.6364,-783.5 299.9308,-783.5"/>
<polygon fill="#191970" stroke="#191970" points="274.4708,-780.0001 264.4708,-783.5 274.4708,-787.0001 274.4708,-780.0001"/>
</g>
<!-- Node4 -->
<g id="node4" class="node">
<title>Node4</title>
<g id="a_node4"><a xlink:href="../../da/d29/classFun4AllServer.html#a6a65a944dfb40966ace97d35ab1f7942" target="_top" xlink:title="Fun4AllServer::process\l_event">
<polygon fill="none" stroke="#000000" points="460,-828.5 460,-860.5 592,-860.5 592,-828.5 460,-828.5"/>
<text text-anchor="start" x="468" y="-847.5" font-family="FreeSans" font-size="10.00" fill="#000000">Fun4AllServer::process</text>
<text text-anchor="middle" x="526" y="-835.5" font-family="FreeSans" font-size="10.00" fill="#000000">_event</text>
</a>
</g>
</g>
<!-- Node3&#45;&gt;Node4 -->
<g id="edge3" class="edge">
<title>Node3&#45;&gt;Node4</title>
<path fill="none" stroke="#191970" d="M398.5407,-797.0914C423.4712,-806.3643 456.5977,-818.6857 482.8305,-828.4431"/>
<polygon fill="#191970" stroke="#191970" points="399.6741,-793.7787 389.0813,-793.5729 397.2337,-800.3396 399.6741,-793.7787"/>
</g>
<!-- Node45 -->
<g id="node45" class="node">
<title>Node45</title>
<g id="a_node45"><a xlink:href="../../da/d29/classFun4AllServer.html#ae1b1a243ee1a67367c8da4ec3bdc003d" target="_top" xlink:title="Fun4AllServer::Print">
<polygon fill="none" stroke="#000000" points="467.5,-734.5 467.5,-754.5 584.5,-754.5 584.5,-734.5 467.5,-734.5"/>
<text text-anchor="middle" x="526" y="-741.5" font-family="FreeSans" font-size="10.00" fill="#000000">Fun4AllServer::Print</text>
</a>
</g>
</g>
<!-- Node3&#45;&gt;Node45 -->
<g id="edge44" class="edge">
<title>Node3&#45;&gt;Node45</title>
<path fill="none" stroke="#191970" d="M413.9876,-771.1371C436.5378,-765.7746 462.6008,-759.5766 483.909,-754.5094"/>
<polygon fill="#191970" stroke="#191970" points="413.153,-767.7379 404.2341,-773.4565 414.7725,-774.548 413.153,-767.7379"/>
</g>
<!-- Node5 -->
<g id="node5" class="node">
<title>Node5</title>
<g id="a_node5"><a xlink:href="../../da/d29/classFun4AllServer.html#a94738b092fa009fcea45737d8ea41224" target="_top" xlink:title="Fun4AllServer::process\l_event">
<polygon fill="none" stroke="#000000" points="644.5,-873.5 644.5,-905.5 776.5,-905.5 776.5,-873.5 644.5,-873.5"/>
<text text-anchor="start" x="652.5" y="-892.5" font-family="FreeSans" font-size="10.00" fill="#000000">Fun4AllServer::process</text>
<text text-anchor="middle" x="710.5" y="-880.5" font-family="FreeSans" font-size="10.00" fill="#000000">_event</text>
</a>
</g>
</g>
<!-- Node4&#45;&gt;Node5 -->
<g id="edge4" class="edge">
<title>Node4&#45;&gt;Node5</title>
<path fill="none" stroke="#191970" d="M601.6137,-862.9424C615.9021,-866.4273 630.7412,-870.0466 644.6981,-873.4507"/>
<polygon fill="#191970" stroke="#191970" points="602.3719,-859.5248 591.8273,-860.5555 600.7132,-866.3254 602.3719,-859.5248"/>
</g>
<!-- Node6 -->
<g id="node6" class="node">
<title>Node6</title>
<g id="a_node6"><a xlink:href="../../da/d29/classFun4AllServer.html#a11bbc8b2f53bc06e0b05ee202dd6372a" target="_top" xlink:title="run n events (0 means up to end of file)">
<polygon fill="none" stroke="#ff0000" points="853,-814.5 853,-834.5 963,-834.5 963,-814.5 853,-814.5"/>
<text text-anchor="middle" x="908" y="-821.5" font-family="FreeSans" font-size="10.00" fill="#000000">Fun4AllServer::run</text>
</a>
</g>
</g>
<!-- Node4&#45;&gt;Node6 -->
<g id="edge5" class="edge">
<title>Node4&#45;&gt;Node6</title>
<path fill="none" stroke="#191970" d="M602.3056,-840.5049C676.3892,-836.6262 787.034,-830.8333 852.914,-827.3841"/>
<polygon fill="#191970" stroke="#191970" points="601.9065,-837.0209 592.1032,-841.0391 602.2726,-844.0114 601.9065,-837.0209"/>
</g>
<!-- Node7 -->
<g id="node7" class="node">
<title>Node7</title>
<g id="a_node7"><a xlink:href="../../dd/d9c/AnalyzeTree_8C.html#af10d516ac25cd720d54534a63ef7e2f8" target="_top" xlink:title="AnalyzeTree">
<polygon fill="none" stroke="#000000" points="1067.5,-1599.5 1067.5,-1619.5 1145.5,-1619.5 1145.5,-1599.5 1067.5,-1599.5"/>
<text text-anchor="middle" x="1106.5" y="-1606.5" font-family="FreeSans" font-size="10.00" fill="#000000">AnalyzeTree</text>
</a>
</g>
</g>
<!-- Node6&#45;&gt;Node7 -->
<g id="edge6" class="edge">
<title>Node6&#45;&gt;Node7</title>
<path fill="none" stroke="#191970" d="M909.6789,-844.7119C919.4506,-960.24 970.3839,-1533.798 1023,-1590.5 1034.225,-1602.5967 1051.4141,-1607.7754 1067.285,-1609.761"/>
<polygon fill="#191970" stroke="#191970" points="913.1653,-844.4026 908.8411,-834.7304 906.1899,-844.9881 913.1653,-844.4026"/>
</g>
<!-- Node8 -->
<g id="node8" class="node">
<title>Node8</title>
<g id="a_node8"><a xlink:href="../../db/d89/ConstructGeometry_8C.html#a21c369835643f1016f506a3da3b8d446" target="_top" xlink:title="ConstructGeometry">
<polygon fill="none" stroke="#000000" points="1049,-1560.5 1049,-1580.5 1164,-1580.5 1164,-1560.5 1049,-1560.5"/>
<text text-anchor="middle" x="1106.5" y="-1567.5" font-family="FreeSans" font-size="10.00" fill="#000000">ConstructGeometry</text>
</a>
</g>
</g>
<!-- Node6&#45;&gt;Node8 -->
<g id="edge7" class="edge">
<title>Node6&#45;&gt;Node8</title>
<path fill="none" stroke="#191970" d="M908.2508,-844.6106C909.9914,-950.7574 923.4116,-1445.0211 1023,-1551.5 1029.9057,-1558.8835 1039.0342,-1563.6851 1048.7174,-1566.7554"/>
<polygon fill="#191970" stroke="#191970" points="911.7502,-844.5384 908.1034,-834.5909 904.751,-844.6414 911.7502,-844.5384"/>
</g>
<!-- Node9 -->
<g id="node9" class="node">
<title>Node9</title>
<g id="a_node9"><a xlink:href="../../d3/d7f/Fun_8C.html#af69a3eef3ff244bb51f5740c6ecb5432" target="_top" xlink:title="Fun">
<polygon fill="none" stroke="#000000" points="1089.5,-1521.5 1089.5,-1541.5 1123.5,-1541.5 1123.5,-1521.5 1089.5,-1521.5"/>
<text text-anchor="middle" x="1106.5" y="-1528.5" font-family="FreeSans" font-size="10.00" fill="#000000">Fun</text>
</a>
</g>
</g>
<!-- Node6&#45;&gt;Node9 -->
<g id="edge8" class="edge">
<title>Node6&#45;&gt;Node9</title>
<path fill="none" stroke="#191970" d="M908.4528,-844.8066C911.1707,-947.9059 928.5722,-1412.4186 1023,-1512.5 1040.0386,-1530.5587 1070.3808,-1533.142 1089.4187,-1532.7554"/>
<polygon fill="#191970" stroke="#191970" points="911.9451,-844.4493 908.2004,-834.5384 904.9473,-844.6214 911.9451,-844.4493"/>
</g>
<!-- Node10 -->
<g id="node10" class="node">
<title>Node10</title>
<g id="a_node10"><a xlink:href="../../dc/ddc/Fun4All__Ana_8C.html#a9152007c2477efc543d79f3b97fbf50c" target="_top" xlink:title="Fun4All_Ana">
<polygon fill="none" stroke="#000000" points="1067.5,-1482.5 1067.5,-1502.5 1145.5,-1502.5 1145.5,-1482.5 1067.5,-1482.5"/>
<text text-anchor="middle" x="1106.5" y="-1489.5" font-family="FreeSans" font-size="10.00" fill="#000000">Fun4All_Ana</text>
</a>
</g>
</g>
<!-- Node6&#45;&gt;Node10 -->
<g id="edge9" class="edge">
<title>Node6&#45;&gt;Node10</title>
<path fill="none" stroke="#191970" d="M908.6791,-844.9213C912.4162,-944.6819 933.695,-1379.7683 1023,-1473.5 1034.3835,-1485.4477 1051.5936,-1490.6066 1067.4375,-1492.6176"/>
<polygon fill="#191970" stroke="#191970" points="912.1767,-844.7888 908.3223,-834.92 905.1811,-845.0385 912.1767,-844.7888"/>
</g>
<!-- Node11 -->
<g id="node11" class="node">
<title>Node11</title>
<g id="a_node11"><a xlink:href="../../df/d77/Fun4All__CaloAna_8C.html#a4f0841e3d8be48f96cc4e95380315ff8" target="_top" xlink:title="Fun4All_CaloAna">
<polygon fill="none" stroke="#000000" points="1056.5,-1443.5 1056.5,-1463.5 1156.5,-1463.5 1156.5,-1443.5 1056.5,-1443.5"/>
<text text-anchor="middle" x="1106.5" y="-1450.5" font-family="FreeSans" font-size="10.00" fill="#000000">Fun4All_CaloAna</text>
</a>
</g>
</g>
<!-- Node6&#45;&gt;Node11 -->
<g id="edge10" class="edge">
<title>Node6&#45;&gt;Node11</title>
<path fill="none" stroke="#191970" d="M908.9286,-844.8905C913.7189,-940.9181 938.7617,-1347.051 1023,-1434.5 1031.7671,-1443.6012 1043.9177,-1448.7533 1056.2385,-1451.5754"/>
<polygon fill="#191970" stroke="#191970" points="912.4178,-844.5799 908.4422,-834.7593 905.4259,-844.9157 912.4178,-844.5799"/>
</g>
<!-- Node12 -->
<g id="node12" class="node">
<title>Node12</title>
<g id="a_node12"><a xlink:href="../../da/dae/Fun4All__EICAnalysis__DIS_8C.html#a6be6c58cd68a395182a998295a1106ae" target="_top" xlink:title="Fun4All_EICAnalysis_DIS">
<polygon fill="none" stroke="#000000" points="1037,-1404.5 1037,-1424.5 1176,-1424.5 1176,-1404.5 1037,-1404.5"/>
<text text-anchor="middle" x="1106.5" y="-1411.5" font-family="FreeSans" font-size="10.00" fill="#000000">Fun4All_EICAnalysis_DIS</text>
</a>
</g>
</g>
<!-- Node6&#45;&gt;Node12 -->
<g id="edge11" class="edge">
<title>Node6&#45;&gt;Node12</title>
<path fill="none" stroke="#191970" d="M909.2028,-844.7371C915.0806,-936.7053 943.7801,-1314.2749 1023,-1395.5 1027.0484,-1399.6508 1031.8012,-1402.9779 1036.9498,-1405.6359"/>
<polygon fill="#191970" stroke="#191970" points="912.6834,-844.314 908.5717,-834.5496 905.6968,-844.7469 912.6834,-844.314"/>
</g>
<!-- Node13 -->
<g id="node13" class="node">
<title>Node13</title>
<g id="a_node13"><a xlink:href="../../d2/d9b/Fun4All__EICAnalysis__DISReco_8C.html#a3c160743ec7b9b4572cf73a19640a34f" target="_top" xlink:title="Fun4All_EICAnalysis\l_DISReco">
<polygon fill="none" stroke="#000000" points="1048,-1353.5 1048,-1385.5 1165,-1385.5 1165,-1353.5 1048,-1353.5"/>
<text text-anchor="start" x="1056" y="-1372.5" font-family="FreeSans" font-size="10.00" fill="#000000">Fun4All_EICAnalysis</text>
<text text-anchor="middle" x="1106.5" y="-1360.5" font-family="FreeSans" font-size="10.00" fill="#000000">_DISReco</text>
</a>
</g>
</g>
<!-- Node6&#45;&gt;Node13 -->
<g id="edge12" class="edge">
<title>Node6&#45;&gt;Node13</title>
<path fill="none" stroke="#191970" d="M909.7942,-845.0009C917.7994,-931.9395 952.9757,-1269.1484 1023,-1344.5 1029.6957,-1351.7051 1038.3744,-1356.8631 1047.5974,-1360.549"/>
<polygon fill="#191970" stroke="#191970" points="913.263,-844.4962 908.8796,-834.8507 906.2913,-845.1245 913.263,-844.4962"/>
</g>
<!-- Node14 -->
<g id="node14" class="node">
<title>Node14</title>
<g id="a_node14"><a xlink:href="../../d2/d47/Fun4All__EICAnalysis__DVCS_8C.html#a84f48142243e969fd353cc8509f0ba22" target="_top" xlink:title="Fun4All_EICAnalysis_DVCS">
<polygon fill="none" stroke="#000000" points="1031.5,-1314.5 1031.5,-1334.5 1181.5,-1334.5 1181.5,-1314.5 1031.5,-1314.5"/>
<text text-anchor="middle" x="1106.5" y="-1321.5" font-family="FreeSans" font-size="10.00" fill="#000000">Fun4All_EICAnalysis_DVCS</text>
</a>
</g>
</g>
<!-- Node6&#45;&gt;Node14 -->
<g id="edge13" class="edge">
<title>Node6&#45;&gt;Node14</title>
<path fill="none" stroke="#191970" d="M910.0102,-844.622C918.6597,-927.1655 955.3701,-1238.6062 1023,-1305.5 1026.5938,-1309.0547 1030.7059,-1312.0003 1035.1351,-1314.4359"/>
<polygon fill="#191970" stroke="#191970" points="913.4785,-844.1335 908.9756,-834.5432 906.5151,-844.8483 913.4785,-844.1335"/>
</g>
<!-- Node15 -->
<g id="node15" class="node">
<title>Node15</title>
<g id="a_node15"><a xlink:href="../../d3/dee/Fun4All__EICAnalysis__Exclusive_8C.html#ad3a88bfdb2a21a757edf221e36d6bffe" target="_top" xlink:title="Fun4All_EICAnalysis\l_Exclusive">
<polygon fill="none" stroke="#000000" points="1048,-1263.5 1048,-1295.5 1165,-1295.5 1165,-1263.5 1048,-1263.5"/>
<text text-anchor="start" x="1056" y="-1282.5" font-family="FreeSans" font-size="10.00" fill="#000000">Fun4All_EICAnalysis</text>
<text text-anchor="middle" x="1106.5" y="-1270.5" font-family="FreeSans" font-size="10.00" fill="#000000">_Exclusive</text>
</a>
</g>
</g>
<!-- Node6&#45;&gt;Node15 -->
<g id="edge14" class="edge">
<title>Node6&#45;&gt;Node15</title>
<path fill="none" stroke="#191970" d="M910.7819,-844.7874C921.7074,-921.6568 963.9918,-1193.7199 1023,-1254.5 1029.8515,-1261.5572 1038.6068,-1266.6424 1047.8575,-1270.302"/>
<polygon fill="#191970" stroke="#191970" points="914.2011,-843.9659 909.3492,-834.5474 907.2686,-844.9359 914.2011,-843.9659"/>
</g>
<!-- Node16 -->
<g id="node16" class="node">
<title>Node16</title>
<g id="a_node16"><a xlink:href="../../d2/d00/Fun4All__EICAnalysis__Leptoquarks_8C.html#a328697c2ae82c0b33f95bea9aefb93f4" target="_top" xlink:title="Fun4All_EICAnalysis\l_Leptoquarks">
<polygon fill="none" stroke="#000000" points="1048,-1212.5 1048,-1244.5 1165,-1244.5 1165,-1212.5 1048,-1212.5"/>
<text text-anchor="start" x="1056" y="-1231.5" font-family="FreeSans" font-size="10.00" fill="#000000">Fun4All_EICAnalysis</text>
<text text-anchor="middle" x="1106.5" y="-1219.5" font-family="FreeSans" font-size="10.00" fill="#000000">_Leptoquarks</text>
</a>
</g>
</g>
<!-- Node6&#45;&gt;Node16 -->
<g id="edge15" class="edge">
<title>Node6&#45;&gt;Node16</title>
<path fill="none" stroke="#191970" d="M911.5322,-844.643C924.3107,-915.3615 970.1737,-1150.8685 1023,-1203.5 1029.8607,-1210.3355 1038.5099,-1215.3157 1047.6244,-1218.9411"/>
<polygon fill="#191970" stroke="#191970" points="914.9713,-843.9912 909.7694,-834.7613 908.0801,-845.2205 914.9713,-843.9912"/>
</g>
<!-- Node17 -->
<g id="node17" class="node">
<title>Node17</title>
<g id="a_node17"><a xlink:href="../../df/d6c/Fun4All__EICAnalysis__JPsi_8C.html#ad03644e8a25c5261146f6c59826ed6d0" target="_top" xlink:title="Fun4All_EICAnalysis\l_Quarkonia">
<polygon fill="none" stroke="#000000" points="1048,-1161.5 1048,-1193.5 1165,-1193.5 1165,-1161.5 1048,-1161.5"/>
<text text-anchor="start" x="1056" y="-1180.5" font-family="FreeSans" font-size="10.00" fill="#000000">Fun4All_EICAnalysis</text>
<text text-anchor="middle" x="1106.5" y="-1168.5" font-family="FreeSans" font-size="10.00" fill="#000000">_Quarkonia</text>
</a>
</g>
</g>
<!-- Node6&#45;&gt;Node17 -->
<g id="edge16" class="edge">
<title>Node6&#45;&gt;Node17</title>
<path fill="none" stroke="#191970" d="M908.9762,-844.7237C912.8387,-901.7553 931.7397,-1065.371 1023,-1152.5 1030.0048,-1159.1877 1038.726,-1164.0941 1047.8675,-1167.6918"/>
<polygon fill="#191970" stroke="#191970" points="912.4567,-844.2902 908.3732,-834.5139 905.4689,-844.7029 912.4567,-844.2902"/>
</g>
<!-- Node18 -->
<g id="node18" class="node">
<title>Node18</title>
<g id="a_node18"><a xlink:href="../../df/d90/Fun4All__EICAnalysis__TrackEval_8C.html#ab4d10c3db3266243a5c314b02c02a360" target="_top" xlink:title="Fun4All_EICAnalysis\l_TrackEval">
<polygon fill="none" stroke="#000000" points="1048,-1110.5 1048,-1142.5 1165,-1142.5 1165,-1110.5 1048,-1110.5"/>
<text text-anchor="start" x="1056" y="-1129.5" font-family="FreeSans" font-size="10.00" fill="#000000">Fun4All_EICAnalysis</text>
<text text-anchor="middle" x="1106.5" y="-1117.5" font-family="FreeSans" font-size="10.00" fill="#000000">_TrackEval</text>
</a>
</g>
</g>
<!-- Node6&#45;&gt;Node18 -->
<g id="edge17" class="edge">
<title>Node6&#45;&gt;Node18</title>
<path fill="none" stroke="#191970" d="M910.4384,-844.5892C917.6809,-895.3867 943.7513,-1029.992 1023,-1101.5 1030.0779,-1107.8866 1038.7291,-1112.6438 1047.7506,-1116.1869"/>
<polygon fill="#191970" stroke="#191970" points="913.893,-844.0158 909.1034,-834.5654 906.9543,-844.94 913.893,-844.0158"/>
</g>
<!-- Node19 -->
<g id="node19" class="node">
<title>Node19</title>
<g id="a_node19"><a xlink:href="../../de/dc8/Fun4All__EMCalLikelihood_8C.html#a209f0d5788c9d3adba2967f194bca64a" target="_top" xlink:title="Fun4All_EMCalLikelihood">
<polygon fill="none" stroke="#000000" points="1036,-1071.5 1036,-1091.5 1177,-1091.5 1177,-1071.5 1036,-1071.5"/>
<text text-anchor="middle" x="1106.5" y="-1078.5" font-family="FreeSans" font-size="10.00" fill="#000000">Fun4All_EMCalLikelihood</text>
</a>
</g>
</g>
<!-- Node6&#45;&gt;Node19 -->
<g id="edge18" class="edge">
<title>Node6&#45;&gt;Node19</title>
<path fill="none" stroke="#191970" d="M911.5943,-844.5106C920.9778,-890.6517 950.686,-1004.9483 1023,-1062.5 1027.5368,-1066.1106 1032.6291,-1069.0621 1038.0026,-1071.4714"/>
<polygon fill="#191970" stroke="#191970" points="915.0052,-843.7139 909.6752,-834.5573 908.1318,-845.0391 915.0052,-843.7139"/>
</g>
<!-- Node20 -->
<g id="node20" class="node">
<title>Node20</title>
<g id="a_node20"><a xlink:href="../../df/d51/Fun4All__ExportGeom_8C.html#a582925c51bad38d562cf19e71211adfd" target="_top" xlink:title="get geometry from DST file and output TGeoManager ROOT files or other formats of geometry files...">
<polygon fill="none" stroke="#000000" points="1045.5,-1032.5 1045.5,-1052.5 1167.5,-1052.5 1167.5,-1032.5 1045.5,-1032.5"/>
<text text-anchor="middle" x="1106.5" y="-1039.5" font-family="FreeSans" font-size="10.00" fill="#000000">Fun4All_ExportGeom</text>
</a>
</g>
</g>
<!-- Node6&#45;&gt;Node20 -->
<g id="edge19" class="edge">
<title>Node6&#45;&gt;Node20</title>
<path fill="none" stroke="#191970" d="M913.6109,-844.5052C926.071,-885.0702 960.0395,-977.085 1023,-1023.5 1029.5817,-1028.3521 1037.1895,-1031.9963 1045.0787,-1034.7277"/>
<polygon fill="#191970" stroke="#191970" points="916.91,-843.3187 910.7204,-834.72 910.1968,-845.3019 916.91,-843.3187"/>
</g>
<!-- Node21 -->
<g id="node21" class="node">
<title>Node21</title>
<g id="a_node21"><a xlink:href="../../de/d55/Fun4All__G4__block_8C.html#a6a063a649a0dd3318a517d5af98430dd" target="_top" xlink:title="Fun4All_G4_block">
<polygon fill="none" stroke="#000000" points="1054,-993.5 1054,-1013.5 1159,-1013.5 1159,-993.5 1054,-993.5"/>
<text text-anchor="middle" x="1106.5" y="-1000.5" font-family="FreeSans" font-size="10.00" fill="#000000">Fun4All_G4_block</text>
</a>
</g>
</g>
<!-- Node6&#45;&gt;Node21 -->
<g id="edge20" class="edge">
<title>Node6&#45;&gt;Node21</title>
<path fill="none" stroke="#191970" d="M916.3358,-844.0775C931.9569,-878.2822 969.0052,-948.6854 1023,-984.5 1032.1682,-990.5812 1043.013,-994.7343 1053.7991,-997.5658"/>
<polygon fill="#191970" stroke="#191970" points="919.4326,-842.4268 912.1807,-834.7027 913.033,-845.2632 919.4326,-842.4268"/>
</g>
<!-- Node22 -->
<g id="node22" class="node">
<title>Node22</title>
<g id="a_node22"><a xlink:href="../../d8/d91/Fun4All__G4__Clusters_8C.html#ab7d8e64f12f512631d4c0e8c6683ec5b" target="_top" xlink:title="Fun4All_G4_Clusters">
<polygon fill="none" stroke="#000000" points="1047,-954.5 1047,-974.5 1166,-974.5 1166,-954.5 1047,-954.5"/>
<text text-anchor="middle" x="1106.5" y="-961.5" font-family="FreeSans" font-size="10.00" fill="#000000">Fun4All_G4_Clusters</text>
</a>
</g>
</g>
<!-- Node6&#45;&gt;Node22 -->
<g id="edge21" class="edge">
<title>Node6&#45;&gt;Node22</title>
<path fill="none" stroke="#191970" d="M920.1829,-843.028C938.9277,-869.981 977.4838,-919.6035 1023,-945.5 1030.3655,-949.6906 1038.5907,-952.9571 1046.9275,-955.5031"/>
<polygon fill="#191970" stroke="#191970" points="922.9146,-840.8207 914.3999,-834.5159 917.1245,-844.7545 922.9146,-840.8207"/>
</g>
<!-- Node23 -->
<g id="node23" class="node">
<title>Node23</title>
<g id="a_node23"><a xlink:href="../../d2/dee/Fun4All__G4__Cylinder_8C.html#a271dc4f10f6f77107705e0efef0c97e5" target="_top" xlink:title="Fun4All_G4_Cylinder">
<polygon fill="none" stroke="#000000" points="1046,-915.5 1046,-935.5 1167,-935.5 1167,-915.5 1046,-915.5"/>
<text text-anchor="middle" x="1106.5" y="-922.5" font-family="FreeSans" font-size="10.00" fill="#000000">Fun4All_G4_Cylinder</text>
</a>
</g>
</g>
<!-- Node6&#45;&gt;Node23 -->
<g id="edge22" class="edge">
<title>Node6&#45;&gt;Node23</title>
<path fill="none" stroke="#191970" d="M926.5433,-841.3155C948.1482,-860.0064 985.6686,-889.758 1023,-906.5 1031.0036,-910.0894 1039.7532,-913.0335 1048.4798,-915.439"/>
<polygon fill="#191970" stroke="#191970" points="928.6367,-838.4953 918.8186,-834.5132 924.0105,-843.7487 928.6367,-838.4953"/>
</g>
<!-- Node24 -->
<g id="node24" class="node">
<title>Node24</title>
<g id="a_node24"><a xlink:href="../../da/d02/Fun4All__G4__EICDetector_8C.html#afbe82cefa1d1fd031d9a8586b7bb68c6" target="_top" xlink:title="Fun4All_G4_EICDetector">
<polygon fill="none" stroke="#000000" points="1037,-876.5 1037,-896.5 1176,-896.5 1176,-876.5 1037,-876.5"/>
<text text-anchor="middle" x="1106.5" y="-883.5" font-family="FreeSans" font-size="10.00" fill="#000000">Fun4All_G4_EICDetector</text>
</a>
</g>
</g>
<!-- Node6&#45;&gt;Node24 -->
<g id="edge23" class="edge">
<title>Node6&#45;&gt;Node24</title>
<path fill="none" stroke="#191970" d="M941.4291,-838.3565C964.1636,-847.4425 995.0725,-859.1425 1023,-867.5 1033.9671,-870.782 1045.891,-873.8086 1057.2039,-876.4365"/>
<polygon fill="#191970" stroke="#191970" points="942.4925,-835.0114 931.9094,-834.5139 939.8723,-841.5026 942.4925,-835.0114"/>
</g>
<!-- Node25 -->
<g id="node25" class="node">
<title>Node25</title>
<g id="a_node25"><a xlink:href="../../dd/d2a/Fun4All__G4__EICDetector__LQ_8C.html#aaa01242fd6e77ca43a9d49a6d46008e4" target="_top" xlink:title="Fun4All_G4_EICDetector_LQ">
<polygon fill="none" stroke="#000000" points="1028.5,-837.5 1028.5,-857.5 1184.5,-857.5 1184.5,-837.5 1028.5,-837.5"/>
<text text-anchor="middle" x="1106.5" y="-844.5" font-family="FreeSans" font-size="10.00" fill="#000000">Fun4All_G4_EICDetector_LQ</text>
</a>
</g>
</g>
<!-- Node6&#45;&gt;Node25 -->
<g id="edge24" class="edge">
<title>Node6&#45;&gt;Node25</title>
<path fill="none" stroke="#191970" d="M973.1968,-832.0543C990.8183,-834.0961 1010.0694,-836.3267 1028.3236,-838.4418"/>
<polygon fill="#191970" stroke="#191970" points="973.3661,-828.5506 963.0297,-830.8762 972.5604,-835.5041 973.3661,-828.5506"/>
</g>
<!-- Node26 -->
<g id="node26" class="node">
<title>Node26</title>
<g id="a_node26"><a xlink:href="../../df/d4b/Fun4All__G4__EICDetector__LQ__analysis_8C.html#af903e98824d083a08b353ac15996ee0e" target="_top" xlink:title="Fun4All_G4_EICDetector\l_LQ_analysis">
<polygon fill="none" stroke="#000000" points="1037,-786.5 1037,-818.5 1176,-818.5 1176,-786.5 1037,-786.5"/>
<text text-anchor="start" x="1045" y="-805.5" font-family="FreeSans" font-size="10.00" fill="#000000">Fun4All_G4_EICDetector</text>
<text text-anchor="middle" x="1106.5" y="-793.5" font-family="FreeSans" font-size="10.00" fill="#000000">_LQ_analysis</text>
</a>
</g>
</g>
<!-- Node6&#45;&gt;Node26 -->
<g id="edge25" class="edge">
<title>Node6&#45;&gt;Node26</title>
<path fill="none" stroke="#191970" d="M973.1561,-817.2787C993.543,-815.0192 1016.1146,-812.5175 1036.8014,-810.2248"/>
<polygon fill="#191970" stroke="#191970" points="972.5833,-813.8206 963.0297,-818.401 973.3544,-820.778 972.5833,-813.8206"/>
</g>
<!-- Node27 -->
<g id="node27" class="node">
<title>Node27</title>
<g id="a_node27"><a xlink:href="../../d1/daf/Fun4All__G4__EICDetector__LQ__analysis__nf_8C.html#a5022607d21247b87dd208b0828905147" target="_top" xlink:title="Fun4All_G4_EICDetector\l_LQ_analysis_nf">
<polygon fill="none" stroke="#000000" points="1037,-735.5 1037,-767.5 1176,-767.5 1176,-735.5 1037,-735.5"/>
<text text-anchor="start" x="1045" y="-754.5" font-family="FreeSans" font-size="10.00" fill="#000000">Fun4All_G4_EICDetector</text>
<text text-anchor="middle" x="1106.5" y="-742.5" font-family="FreeSans" font-size="10.00" fill="#000000">_LQ_analysis_nf</text>
</a>
</g>
</g>
<!-- Node6&#45;&gt;Node27 -->
<g id="edge26" class="edge">
<title>Node6&#45;&gt;Node27</title>
<path fill="none" stroke="#191970" d="M940.3645,-810.4003C963.2501,-800.6454 994.7604,-787.646 1023,-777.5 1032.4306,-774.1117 1042.5486,-770.7424 1052.3726,-767.6074"/>
<polygon fill="#191970" stroke="#191970" points="938.9305,-807.2068 931.1191,-814.3645 941.6891,-813.6404 938.9305,-807.2068"/>
</g>
<!-- Node28 -->
<g id="node28" class="node">
<title>Node28</title>
<g id="a_node28"><a xlink:href="../../d4/df5/Fun4All__G4__EICDetector__LQ__reference_8C.html#a2feefc472f17f90b3cbe74897d049f75" target="_top" xlink:title="Fun4All_G4_EICDetector\l_LQ_reference">
<polygon fill="none" stroke="#000000" points="1037,-684.5 1037,-716.5 1176,-716.5 1176,-684.5 1037,-684.5"/>
<text text-anchor="start" x="1045" y="-703.5" font-family="FreeSans" font-size="10.00" fill="#000000">Fun4All_G4_EICDetector</text>
<text text-anchor="middle" x="1106.5" y="-691.5" font-family="FreeSans" font-size="10.00" fill="#000000">_LQ_reference</text>
</a>
</g>
</g>
<!-- Node6&#45;&gt;Node28 -->
<g id="edge27" class="edge">
<title>Node6&#45;&gt;Node28</title>
<path fill="none" stroke="#191970" d="M929.3377,-807.9313C945.4432,-795.2542 967.9464,-777.1729 987,-760.5 1003.5622,-746.0072 1004.0042,-737.6133 1023,-726.5 1029.4215,-722.7432 1036.4438,-719.472 1043.6019,-716.6381"/>
<polygon fill="#191970" stroke="#191970" points="926.8253,-805.4532 921.1109,-814.3749 931.1417,-810.9641 926.8253,-805.4532"/>
</g>
<!-- Node29 -->
<g id="node29" class="node">
<title>Node29</title>
<g id="a_node29"><a xlink:href="../../d3/d51/Fun4All__G4__EICDetector__RICH_8C.html#a5739502b0a7a1ba782c01069f77e933f" target="_top" xlink:title="Fun4All_G4_EICDetector_RICH">
<polygon fill="none" stroke="#000000" points="1023,-645.5 1023,-665.5 1190,-665.5 1190,-645.5 1023,-645.5"/>
<text text-anchor="middle" x="1106.5" y="-652.5" font-family="FreeSans" font-size="10.00" fill="#000000">Fun4All_G4_EICDetector_RICH</text>
</a>
</g>
</g>
<!-- Node6&#45;&gt;Node29 -->
<g id="edge28" class="edge">
<title>Node6&#45;&gt;Node29</title>
<path fill="none" stroke="#191970" d="M933.2719,-808.8685C950.3213,-797.2656 972.3059,-780.1054 987,-760.5 1011.8508,-727.3432 991.2826,-701.1635 1023,-674.5 1027.2106,-670.9603 1031.9484,-668.0469 1036.9729,-665.6527"/>
<polygon fill="#191970" stroke="#191970" points="931.2891,-805.9836 924.8708,-814.4131 935.145,-811.8259 931.2891,-805.9836"/>
</g>
<!-- Node30 -->
<g id="node30" class="node">
<title>Node30</title>
<g id="a_node30"><a xlink:href="../../d9/d0e/Fun4All__G4__EICIR_8C.html#ac3543d1dd4a0abed3987d40939ee3f87" target="_top" xlink:title="Fun4All_G4_EICIR">
<polygon fill="none" stroke="#000000" points="1054.5,-606.5 1054.5,-626.5 1158.5,-626.5 1158.5,-606.5 1054.5,-606.5"/>
<text text-anchor="middle" x="1106.5" y="-613.5" font-family="FreeSans" font-size="10.00" fill="#000000">Fun4All_G4_EICIR</text>
</a>
</g>
</g>
<!-- Node6&#45;&gt;Node30 -->
<g id="edge29" class="edge">
<title>Node6&#45;&gt;Node30</title>
<path fill="none" stroke="#191970" d="M934.6441,-808.9624C951.9254,-797.5956 973.6335,-780.6738 987,-760.5 1018.9324,-712.3052 980.9777,-675.2057 1023,-635.5 1031.5369,-627.4337 1042.7567,-622.5364 1054.1905,-619.6205"/>
<polygon fill="#191970" stroke="#191970" points="932.6534,-806.0803 926.0783,-814.388 936.3991,-811.9938 932.6534,-806.0803"/>
</g>
<!-- Node31 -->
<g id="node31" class="node">
<title>Node31</title>
<g id="a_node31"><a xlink:href="../../d7/d9e/Fun4All__G4__fsPHENIX_8C.html#af48911d394d2412e817583700f2bbee2" target="_top" xlink:title="Fun4All_G4_fsPHENIX">
<polygon fill="none" stroke="#000000" points="1044.5,-567.5 1044.5,-587.5 1168.5,-587.5 1168.5,-567.5 1044.5,-567.5"/>
<text text-anchor="middle" x="1106.5" y="-574.5" font-family="FreeSans" font-size="10.00" fill="#000000">Fun4All_G4_fsPHENIX</text>
</a>
</g>
</g>
<!-- Node6&#45;&gt;Node31 -->
<g id="edge30" class="edge">
<title>Node6&#45;&gt;Node31</title>
<path fill="none" stroke="#191970" d="M935.3944,-809.0236C952.8043,-797.7752 974.3681,-780.9653 987,-760.5 1026.1957,-696.9982 970.4349,-649.4688 1023,-596.5 1028.9692,-590.4849 1036.4199,-586.2065 1044.3963,-583.1896"/>
<polygon fill="#191970" stroke="#191970" points="933.394,-806.1456 926.7381,-814.3888 937.0818,-812.0955 933.394,-806.1456"/>
</g>
<!-- Node32 -->
<g id="node32" class="node">
<title>Node32</title>
<g id="a_node32"><a xlink:href="../../da/d2f/Fun4All__G4__fsPHENIX__FastSim_8C.html#a66fb850cae5fcaadda23b74a25ce4c9c" target="_top" xlink:title="Fun4All_G4_fsPHENIX\l_FastSim">
<polygon fill="none" stroke="#000000" points="1044.5,-516.5 1044.5,-548.5 1168.5,-548.5 1168.5,-516.5 1044.5,-516.5"/>
<text text-anchor="start" x="1052.5" y="-535.5" font-family="FreeSans" font-size="10.00" fill="#000000">Fun4All_G4_fsPHENIX</text>
<text text-anchor="middle" x="1106.5" y="-523.5" font-family="FreeSans" font-size="10.00" fill="#000000">_FastSim</text>
</a>
</g>
</g>
<!-- Node6&#45;&gt;Node32 -->
<g id="edge31" class="edge">
<title>Node6&#45;&gt;Node32</title>
<path fill="none" stroke="#191970" d="M935.9977,-808.9788C953.4646,-797.8009 974.8621,-781.0878 987,-760.5 1033.5363,-681.567 962.0518,-625.9205 1023,-557.5 1028.8379,-550.9464 1036.3166,-546.0791 1044.393,-542.4704"/>
<polygon fill="#191970" stroke="#191970" points="933.9915,-806.1032 927.2918,-814.3108 937.6475,-812.0726 933.9915,-806.1032"/>
</g>
<!-- Node33 -->
<g id="node33" class="node">
<title>Node33</title>
<g id="a_node33"><a xlink:href="../../d0/da6/Fun4All__G4__fsPHENIX__pi0_8C.html#a023d91d47b678e5d7f1751834aa517c6" target="_top" xlink:title="Fun4All_G4_fsPHENIX_pi0">
<polygon fill="none" stroke="#000000" points="1034,-477.5 1034,-497.5 1179,-497.5 1179,-477.5 1034,-477.5"/>
<text text-anchor="middle" x="1106.5" y="-484.5" font-family="FreeSans" font-size="10.00" fill="#000000">Fun4All_G4_fsPHENIX_pi0</text>
</a>
</g>
</g>
<!-- Node6&#45;&gt;Node33 -->
<g id="edge32" class="edge">
<title>Node6&#45;&gt;Node33</title>
<path fill="none" stroke="#191970" d="M936.2369,-809.117C953.8031,-797.9965 975.2213,-781.2954 987,-760.5 1043.1924,-661.2916 945.7895,-590.3954 1023,-506.5 1026.2217,-502.9994 1029.9426,-500.0771 1033.9877,-497.6431"/>
<polygon fill="#191970" stroke="#191970" points="934.2198,-806.2465 927.4734,-814.4158 937.8418,-812.2366 934.2198,-806.2465"/>
</g>
<!-- Node34 -->
<g id="node34" class="node">
<title>Node34</title>
<g id="a_node34"><a xlink:href="../../df/de1/Fun4All__G4__IonGun_8C.html#ab4966a2ae337cb8f0e45f7ee488e33b7" target="_top" xlink:title="Fun4All_G4_IonGun">
<polygon fill="none" stroke="#000000" points="1049.5,-438.5 1049.5,-458.5 1163.5,-458.5 1163.5,-438.5 1049.5,-438.5"/>
<text text-anchor="middle" x="1106.5" y="-445.5" font-family="FreeSans" font-size="10.00" fill="#000000">Fun4All_G4_IonGun</text>
</a>
</g>
</g>
<!-- Node6&#45;&gt;Node34 -->
<g id="edge33" class="edge">
<title>Node6&#45;&gt;Node34</title>
<path fill="none" stroke="#191970" d="M936.3655,-809.1891C953.9852,-798.0985 975.4146,-781.4037 987,-760.5 1050.6005,-645.7446 935.0513,-564.8594 1023,-467.5 1029.9761,-459.7774 1039.3803,-454.8575 1049.3631,-451.785"/>
<polygon fill="#191970" stroke="#191970" points="934.3421,-806.3216 927.5712,-814.4705 937.946,-812.3226 934.3421,-806.3216"/>
</g>
<!-- Node35 -->
<g id="node35" class="node">
<title>Node35</title>
<g id="a_node35"><a xlink:href="../../d5/d01/Fun4All__G4__LeadBrick_8C.html#a5fcd8843f8a815feb3b053eaabd60d41" target="_top" xlink:title="Fun4All_G4_LeadBrick">
<polygon fill="none" stroke="#000000" points="1042.5,-399.5 1042.5,-419.5 1170.5,-419.5 1170.5,-399.5 1042.5,-399.5"/>
<text text-anchor="middle" x="1106.5" y="-406.5" font-family="FreeSans" font-size="10.00" fill="#000000">Fun4All_G4_LeadBrick</text>
</a>
</g>
</g>
<!-- Node6&#45;&gt;Node35 -->
<g id="edge34" class="edge">
<title>Node6&#45;&gt;Node35</title>
<path fill="none" stroke="#191970" d="M936.7985,-809.0342C954.395,-797.9656 975.6357,-781.3537 987,-760.5 1022.5106,-695.3375 973.6478,-483.9213 1023,-428.5 1028.2402,-422.6154 1034.8895,-418.3531 1042.14,-415.2934"/>
<polygon fill="#191970" stroke="#191970" points="934.7766,-806.1655 928.0005,-814.3101 938.3767,-812.1688 934.7766,-806.1655"/>
</g>
<!-- Node36 -->
<g id="node36" class="node">
<title>Node36</title>
<g id="a_node36"><a xlink:href="../../d9/d8f/Fun4All__G4__Momentum_8C.html#afbd7a4eecd7792e9216ce80b5514123e" target="_top" xlink:title="Fun4All_G4_Momentum">
<polygon fill="none" stroke="#000000" points="1039,-360.5 1039,-380.5 1174,-380.5 1174,-360.5 1039,-360.5"/>
<text text-anchor="middle" x="1106.5" y="-367.5" font-family="FreeSans" font-size="10.00" fill="#000000">Fun4All_G4_Momentum</text>
</a>
</g>
</g>
<!-- Node6&#45;&gt;Node36 -->
<g id="edge35" class="edge">
<title>Node6&#45;&gt;Node36</title>
<path fill="none" stroke="#191970" d="M936.878,-809.0772C954.5067,-798.0261 975.7535,-781.4174 987,-760.5 1026.2253,-687.5448 968.2641,-451.6696 1023,-389.5 1027.4209,-384.4787 1032.8677,-380.6355 1038.8431,-377.7116"/>
<polygon fill="#191970" stroke="#191970" points="934.852,-806.2105 928.0613,-814.343 938.4413,-812.2203 934.852,-806.2105"/>
</g>
<!-- Node37 -->
<g id="node37" class="node">
<title>Node37</title>
<g id="a_node37"><a xlink:href="../../dc/d8e/Fun4All__G4__Prototype2_8C.html#a6b8f092c4f51be2938dd09c810ba6226" target="_top" xlink:title="Fun4All_G4_Prototype2">
<polygon fill="none" stroke="#000000" points="1040,-321.5 1040,-341.5 1173,-341.5 1173,-321.5 1040,-321.5"/>
<text text-anchor="middle" x="1106.5" y="-328.5" font-family="FreeSans" font-size="10.00" fill="#000000">Fun4All_G4_Prototype2</text>
</a>
</g>
</g>
<!-- Node6&#45;&gt;Node37 -->
<g id="edge36" class="edge">
<title>Node6&#45;&gt;Node37</title>
<path fill="none" stroke="#191970" d="M936.9428,-809.1118C954.5977,-798.0748 975.8493,-781.4687 987,-760.5 1029.943,-679.7464 962.876,-419.4227 1023,-350.5 1027.6911,-345.1224 1033.5586,-341.0934 1039.9964,-338.0964"/>
<polygon fill="#191970" stroke="#191970" points="934.9132,-806.2468 928.1108,-814.3695 938.4939,-812.2617 934.9132,-806.2468"/>
</g>
<!-- Node38 -->
<g id="node38" class="node">
<title>Node38</title>
<g id="a_node38"><a xlink:href="../../d7/d40/Fun4All__G4__Prototype3_8C.html#a1201361263017b08a070777a0b90b27c" target="_top" xlink:title="Fun4All_G4_Prototype3">
<polygon fill="none" stroke="#000000" points="1040,-282.5 1040,-302.5 1173,-302.5 1173,-282.5 1040,-282.5"/>
<text text-anchor="middle" x="1106.5" y="-289.5" font-family="FreeSans" font-size="10.00" fill="#000000">Fun4All_G4_Prototype3</text>
</a>
</g>
</g>
<!-- Node6&#45;&gt;Node38 -->
<g id="edge37" class="edge">
<title>Node6&#45;&gt;Node38</title>
<path fill="none" stroke="#191970" d="M936.9964,-809.1403C954.6731,-798.1147 975.9288,-781.5107 987,-760.5 1033.6629,-671.9439 957.4849,-387.1794 1023,-311.5 1027.6707,-306.1047 1033.5255,-302.0646 1039.956,-299.0613"/>
<polygon fill="#191970" stroke="#191970" points="934.9638,-806.2766 928.1518,-814.3912 938.5374,-812.2957 934.9638,-806.2766"/>
</g>
<!-- Node39 -->
<g id="node39" class="node">
<title>Node39</title>
<g id="a_node39"><a xlink:href="../../d4/d58/Fun4All__G4__Prototype4_8C.html#acac517f0728af658cbf99c7c9687c908" target="_top" xlink:title="Fun4All_G4_Prototype4">
<polygon fill="none" stroke="#000000" points="1040,-243.5 1040,-263.5 1173,-263.5 1173,-243.5 1040,-243.5"/>
<text text-anchor="middle" x="1106.5" y="-250.5" font-family="FreeSans" font-size="10.00" fill="#000000">Fun4All_G4_Prototype4</text>
</a>
</g>
</g>
<!-- Node6&#45;&gt;Node39 -->
<g id="edge38" class="edge">
<title>Node6&#45;&gt;Node39</title>
<path fill="none" stroke="#191970" d="M937.0417,-809.164C954.7366,-798.148 975.9958,-781.5459 987,-760.5 1037.3845,-664.1382 952.0914,-354.9389 1023,-272.5 1027.6535,-267.0898 1033.4975,-263.0405 1039.9219,-260.0319"/>
<polygon fill="#191970" stroke="#191970" points="935.0065,-806.3015 928.1864,-814.4094 938.574,-812.3242 935.0065,-806.3015"/>
</g>
<!-- Node40 -->
<g id="node40" class="node">
<title>Node40</title>
<g id="a_node40"><a xlink:href="../../d5/d2c/macros_2blob_2master_2macros_2g4simulations_2Fun4All__G4__sPHENIX_8C.html#a6eaaa492d7023ec86c562dc63aa1e5a4" target="_top" xlink:title="Fun4All_G4_sPHENIX">
<polygon fill="none" stroke="#000000" points="1046,-204.5 1046,-224.5 1167,-224.5 1167,-204.5 1046,-204.5"/>
<text text-anchor="middle" x="1106.5" y="-211.5" font-family="FreeSans" font-size="10.00" fill="#000000">Fun4All_G4_sPHENIX</text>
</a>
</g>
</g>
<!-- Node6&#45;&gt;Node40 -->
<g id="edge39" class="edge">
<title>Node6&#45;&gt;Node40</title>
<path fill="none" stroke="#191970" d="M937.0803,-809.1841C954.7909,-798.1763 976.053,-781.5757 987,-760.5 1041.1074,-656.3299 946.696,-322.7004 1023,-233.5 1028.9918,-226.4955 1036.979,-221.7694 1045.6436,-218.6289"/>
<polygon fill="#191970" stroke="#191970" points="935.0429,-806.3227 928.2159,-814.4248 938.6053,-812.3484 935.0429,-806.3227"/>
</g>
<!-- Node41 -->
<g id="node41" class="node">
<title>Node41</title>
<g id="a_node41"><a xlink:href="../../d3/de2/Fun4All__G4__sPHENIX__AnaGenFit_8C.html#a9bf3f2f72ed69a17e2d0c1121d48013c" target="_top" xlink:title="Fun4All_G4_sPHENIX\l_AnaGenFit">
<polygon fill="none" stroke="#000000" points="1046,-153.5 1046,-185.5 1167,-185.5 1167,-153.5 1046,-153.5"/>
<text text-anchor="start" x="1054" y="-172.5" font-family="FreeSans" font-size="10.00" fill="#000000">Fun4All_G4_sPHENIX</text>
<text text-anchor="middle" x="1106.5" y="-160.5" font-family="FreeSans" font-size="10.00" fill="#000000">_AnaGenFit</text>
</a>
</g>
</g>
<!-- Node6&#45;&gt;Node41 -->
<g id="edge40" class="edge">
<title>Node6&#45;&gt;Node41</title>
<path fill="none" stroke="#191970" d="M937.1136,-809.2014C954.8378,-798.2006 976.1024,-781.6013 987,-760.5 1044.8314,-648.5197 944.5677,-293.1531 1023,-194.5 1028.9328,-187.0376 1037.0025,-181.7341 1045.798,-177.9788"/>
<polygon fill="#191970" stroke="#191970" points="935.0743,-806.3409 928.2414,-814.438 938.6323,-812.3692 935.0743,-806.3409"/>
</g>
<!-- Node42 -->
<g id="node42" class="node">
<title>Node42</title>
<g id="a_node42"><a xlink:href="../../da/dd0/Fun4All__G4__sPHENIX__photonjet_8C.html#a6f18519e216acc05399e562ea57ea77c" target="_top" xlink:title="Fun4All_G4_sPHENIX\l_photonjet">
<polygon fill="none" stroke="#000000" points="1046,-102.5 1046,-134.5 1167,-134.5 1167,-102.5 1046,-102.5"/>
<text text-anchor="start" x="1054" y="-121.5" font-family="FreeSans" font-size="10.00" fill="#000000">Fun4All_G4_sPHENIX</text>
<text text-anchor="middle" x="1106.5" y="-109.5" font-family="FreeSans" font-size="10.00" fill="#000000">_photonjet</text>
</a>
</g>
</g>
<!-- Node6&#45;&gt;Node42 -->
<g id="edge41" class="edge">
<title>Node6&#45;&gt;Node42</title>
<path fill="none" stroke="#191970" d="M937.151,-809.2206C954.8903,-798.2276 976.1577,-781.6298 987,-760.5 1049.7024,-638.304 937.8097,-251.2314 1023,-143.5 1028.9132,-136.0221 1036.973,-130.7107 1045.7647,-126.9523"/>
<polygon fill="#191970" stroke="#191970" points="935.1094,-806.3611 928.27,-814.4527 938.6626,-812.3923 935.1094,-806.3611"/>
</g>
<!-- Node43 -->
<g id="node43" class="node">
<title>Node43</title>
<g id="a_node43"><a xlink:href="../../da/d85/Fun4All__G4__sPHENIX__photons_8C.html#a02fbbd59878fe1299f58ed187e7214ba" target="_top" xlink:title="Fun4All_G4_sPHENIX\l_photons">
<polygon fill="none" stroke="#000000" points="1046,-51.5 1046,-83.5 1167,-83.5 1167,-51.5 1046,-51.5"/>
<text text-anchor="start" x="1054" y="-70.5" font-family="FreeSans" font-size="10.00" fill="#000000">Fun4All_G4_sPHENIX</text>
<text text-anchor="middle" x="1106.5" y="-58.5" font-family="FreeSans" font-size="10.00" fill="#000000">_photons</text>
</a>
</g>
</g>
<!-- Node6&#45;&gt;Node43 -->
<g id="edge42" class="edge">
<title>Node6&#45;&gt;Node43</title>
<path fill="none" stroke="#191970" d="M937.1827,-809.2368C954.9348,-798.2504 976.2046,-781.6538 987,-760.5 1054.5745,-628.0861 931.0501,-209.3117 1023,-92.5 1028.8966,-85.009 1036.9479,-79.6909 1045.7363,-75.93"/>
<polygon fill="#191970" stroke="#191970" points="935.1392,-806.3782 928.2942,-814.4651 938.6882,-812.4118 935.1392,-806.3782"/>
</g>
<!-- Node44 -->
<g id="node44" class="node">
<title>Node44</title>
<g id="a_node44"><a xlink:href="../../de/d55/Fun4All__G4__sPHENIX__truthphotonjet_8C.html#a48a6f4503eaa1b3793d8ae572aa795b9" target="_top" xlink:title="Fun4All_G4_sPHENIX\l_truthphotonjet">
<polygon fill="none" stroke="#000000" points="1046,-.5 1046,-32.5 1167,-32.5 1167,-.5 1046,-.5"/>
<text text-anchor="start" x="1054" y="-19.5" font-family="FreeSans" font-size="10.00" fill="#000000">Fun4All_G4_sPHENIX</text>
<text text-anchor="middle" x="1106.5" y="-7.5" font-family="FreeSans" font-size="10.00" fill="#000000">_truthphotonjet</text>
</a>
</g>
</g>
<!-- Node6&#45;&gt;Node44 -->
<g id="edge43" class="edge">
<title>Node6&#45;&gt;Node44</title>
<path fill="none" stroke="#191970" d="M937.2099,-809.2507C954.9731,-798.2699 976.245,-781.6743 987,-760.5 1023.2237,-689.1833 973.6447,-104.4467 1023,-41.5 1028.8823,-33.9978 1036.9264,-28.674 1045.712,-24.9108"/>
<polygon fill="#191970" stroke="#191970" points="935.1648,-806.3928 928.3151,-814.4757 938.7103,-812.4286 935.1648,-806.3928"/>
</g>
<!-- Node46 -->
<g id="node46" class="node">
<title>Node46</title>
<g id="a_node46"><a xlink:href="../../da/d29/classFun4AllServer.html#afcfc5583204cac58b4e66a2406187a18" target="_top" xlink:title="Fun4AllServer::BeginRun">
<polygon fill="none" stroke="#000000" points="640,-795.5 640,-815.5 781,-815.5 781,-795.5 640,-795.5"/>
<text text-anchor="middle" x="710.5" y="-802.5" font-family="FreeSans" font-size="10.00" fill="#000000">Fun4AllServer::BeginRun</text>
</a>
</g>
</g>
<!-- Node45&#45;&gt;Node46 -->
<g id="edge45" class="edge">
<title>Node45&#45;&gt;Node46</title>
<path fill="none" stroke="#191970" d="M563.2031,-758.0836C582.4709,-765.0034 606.4219,-773.4267 628,-780.5 643.6437,-785.628 661.0756,-790.9649 675.8708,-795.3844"/>
<polygon fill="#191970" stroke="#191970" points="564.1859,-754.7174 553.5915,-754.6172 561.811,-761.3023 564.1859,-754.7174"/>
</g>
<!-- Node47 -->
<g id="node47" class="node">
<title>Node47</title>
<g id="a_node47"><a xlink:href="../../d6/d1b/classPrototype2RawTowerBuilder.html#ac5d83bd0e9b8325c27dba83fc67b1111" target="_top" xlink:title="Prototype2RawTowerBuilder\l::InitRun">
<polygon fill="none" stroke="#000000" points="829,-718.5 829,-750.5 987,-750.5 987,-718.5 829,-718.5"/>
<text text-anchor="start" x="837" y="-737.5" font-family="FreeSans" font-size="10.00" fill="#000000">Prototype2RawTowerBuilder</text>
<text text-anchor="middle" x="908" y="-725.5" font-family="FreeSans" font-size="10.00" fill="#000000">::InitRun</text>
</a>
</g>
</g>
<!-- Node45&#45;&gt;Node47 -->
<g id="edge47" class="edge">
<title>Node45&#45;&gt;Node47</title>
<path fill="none" stroke="#191970" d="M594.6501,-746.7956C605.7969,-747.0887 617.2179,-747.3415 628,-747.5 701.3254,-748.5781 719.7828,-751.6252 793,-747.5 804.6352,-746.8444 816.9012,-745.8186 828.9149,-744.624"/>
<polygon fill="#191970" stroke="#191970" points="594.6093,-743.2932 584.5167,-746.5165 594.4165,-750.2905 594.6093,-743.2932"/>
</g>
<!-- Node48 -->
<g id="node48" class="node">
<title>Node48</title>
<g id="a_node48"><a xlink:href="../../dd/d8b/classPHG4Prototype2HcalCellReco.html#ada0674e45683579ea6d19c3c6fdce9e5" target="_top" xlink:title="module initialization">
<polygon fill="none" stroke="#000000" points="628,-705.5 628,-737.5 793,-737.5 793,-705.5 628,-705.5"/>
<text text-anchor="start" x="636" y="-724.5" font-family="FreeSans" font-size="10.00" fill="#000000">PHG4Prototype2HcalCellReco</text>
<text text-anchor="middle" x="710.5" y="-712.5" font-family="FreeSans" font-size="10.00" fill="#000000">::InitRun</text>
</a>
</g>
</g>
<!-- Node45&#45;&gt;Node48 -->
<g id="edge48" class="edge">
<title>Node45&#45;&gt;Node48</title>
<path fill="none" stroke="#191970" d="M594.7781,-735.926C605.5296,-734.5857 616.7367,-733.1887 627.7607,-731.8144"/>
<polygon fill="#191970" stroke="#191970" points="594.1207,-732.4808 584.6305,-737.1911 594.9866,-739.427 594.1207,-732.4808"/>
</g>
<!-- Node49 -->
<g id="node49" class="node">
<title>Node49</title>
<g id="a_node49"><a xlink:href="../../d6/d1b/classPrototype2RawTowerBuilder.html#a9495dbf32264edc680dd19fb5d242837" target="_top" xlink:title="Prototype2RawTowerBuilder\l::ReadParamsFromNodeTree">
<polygon fill="none" stroke="#000000" points="631.5,-654.5 631.5,-686.5 789.5,-686.5 789.5,-654.5 631.5,-654.5"/>
<text text-anchor="start" x="639.5" y="-673.5" font-family="FreeSans" font-size="10.00" fill="#000000">Prototype2RawTowerBuilder</text>
<text text-anchor="middle" x="710.5" y="-661.5" font-family="FreeSans" font-size="10.00" fill="#000000">::ReadParamsFromNodeTree</text>
</a>
</g>
</g>
<!-- Node45&#45;&gt;Node49 -->
<g id="edge49" class="edge">
<title>Node45&#45;&gt;Node49</title>
<path fill="none" stroke="#191970" d="M553.7516,-729.7367C573.9782,-719.3323 602.2367,-705.5234 628,-695.5 636.0897,-692.3527 644.7485,-689.3482 653.3033,-686.5834"/>
<polygon fill="#191970" stroke="#191970" points="552.047,-726.6781 544.7878,-734.3953 555.275,-732.8894 552.047,-726.6781"/>
</g>
<!-- Node50 -->
<g id="node50" class="node">
<title>Node50</title>
<g id="a_node50"><a xlink:href="../../d1/dec/classHcalRawTowerBuilder.html#a4d42afd3cf9d5d9f5569e87fa939d567" target="_top" xlink:title="HcalRawTowerBuilder\l::ReadParamsFromNodeTree">
<polygon fill="none" stroke="#ff0000" points="631.5,-603.5 631.5,-635.5 789.5,-635.5 789.5,-603.5 631.5,-603.5"/>
<text text-anchor="start" x="639.5" y="-622.5" font-family="FreeSans" font-size="10.00" fill="#000000">HcalRawTowerBuilder</text>
<text text-anchor="middle" x="710.5" y="-610.5" font-family="FreeSans" font-size="10.00" fill="#000000">::ReadParamsFromNodeTree</text>
</a>
</g>
</g>
<!-- Node45&#45;&gt;Node50 -->
<g id="edge51" class="edge">
<title>Node45&#45;&gt;Node50</title>
<path fill="none" stroke="#191970" d="M539.8393,-726.3463C557.8154,-703.9748 591.2712,-666.2608 628,-644.5 633.6654,-641.1434 639.8204,-638.2021 646.1295,-635.6325"/>
<polygon fill="#191970" stroke="#191970" points="536.9587,-724.3472 533.5275,-734.3711 542.4608,-728.6748 536.9587,-724.3472"/>
</g>
<!-- Node46&#45;&gt;Node6 -->
<g id="edge46" class="edge">
<title>Node46&#45;&gt;Node6</title>
<path fill="none" stroke="#191970" d="M791.3113,-813.2742C812.0307,-815.2675 833.8404,-817.3657 852.9247,-819.2016"/>
<polygon fill="#191970" stroke="#191970" points="791.5334,-809.7795 781.2442,-812.3058 790.863,-816.7474 791.5334,-809.7795"/>
</g>
<!-- Node49&#45;&gt;Node47 -->
<g id="edge50" class="edge">
<title>Node49&#45;&gt;Node47</title>
<path fill="none" stroke="#191970" d="M774.2269,-689.5838C780.5781,-691.5539 786.9215,-693.5489 793,-695.5 815.7833,-702.8131 840.9695,-711.3077 861.9494,-718.4986"/>
<polygon fill="#191970" stroke="#191970" points="774.8642,-686.1178 764.2769,-686.5183 772.8031,-692.8075 774.8642,-686.1178"/>
</g>
</g>
</svg>
