<?xml version="1.0" encoding="UTF-8" standalone="no"?>
<!DOCTYPE svg PUBLIC "-//W3C//DTD SVG 1.1//EN"
 "http://www.w3.org/Graphics/SVG/1.1/DTD/svg11.dtd">
<!-- Generated by graphviz version 2.40.1 (20161225.0304)
 -->
<!-- Title: JetMap::begin Pages: 1 -->
<svg width="1381pt" height="1117pt"
 viewBox="0.00 0.00 1381.00 1117.00" xmlns="http://www.w3.org/2000/svg" xmlns:xlink="http://www.w3.org/1999/xlink">
<g id="graph0" class="graph" transform="scale(1 1) rotate(0) translate(4 1113)">
<title>JetMap::begin</title>
<!-- Node1 -->
<g id="node1" class="node">
<title>Node1</title>
<polygon fill="#bfbfbf" stroke="#000000" points="0,-493.5 0,-513.5 86,-513.5 86,-493.5 0,-493.5"/>
<text text-anchor="middle" x="43" y="-500.5" font-family="FreeSans" font-size="10.00" fill="#000000">JetMap::begin</text>
</g>
<!-- Node2 -->
<g id="node2" class="node">
<title>Node2</title>
<g id="a_node2"><a xlink:href="../../dd/d75/classJetRecoEval.html#aaa6df5bbed40bd8cf789d997c348d12f" target="_top" xlink:title="what reconstructed jets had contributions from this truth jet?">
<polygon fill="none" stroke="#000000" points="509,-974.5 509,-994.5 656,-994.5 656,-974.5 509,-974.5"/>
<text text-anchor="middle" x="582.5" y="-981.5" font-family="FreeSans" font-size="10.00" fill="#000000">JetRecoEval::all_jets_from</text>
</a>
</g>
</g>
<!-- Node1&#45;&gt;Node2 -->
<g id="edge1" class="edge">
<title>Node1&#45;&gt;Node2</title>
<path fill="none" stroke="#191970" d="M43.3136,-523.816C45.0162,-604.478 55.7549,-900.6033 122,-959.5 245.2629,-1069.0896 468.3335,-1018.4965 550.7683,-994.553"/>
<polygon fill="#191970" stroke="#191970" points="46.8078,-523.4655 43.1225,-513.5323 39.809,-523.5957 46.8078,-523.4655"/>
</g>
<!-- Node4 -->
<g id="node4" class="node">
<title>Node4</title>
<g id="a_node4"><a xlink:href="../../d8/de2/classJetEnergies.html#a065fee78622ed073cafb5cf172d67bef" target="_top" xlink:title="dump the evaluator information into ntuple for external analysis">
<polygon fill="none" stroke="#000000" points="884,-1025.5 884,-1045.5 1051,-1045.5 1051,-1025.5 884,-1025.5"/>
<text text-anchor="middle" x="967.5" y="-1032.5" font-family="FreeSans" font-size="10.00" fill="#000000">JetEnergies::fillOutputNtuples</text>
</a>
</g>
</g>
<!-- Node1&#45;&gt;Node4 -->
<g id="edge15" class="edge">
<title>Node1&#45;&gt;Node4</title>
<path fill="none" stroke="#191970" d="M43.2263,-523.64C44.6025,-608.3455 54.2858,-934.5807 122,-1005.5 207.5343,-1095.083 271.1403,-1061.5 395,-1061.5 395,-1061.5 395,-1061.5 582.5,-1061.5 686.5059,-1061.5 805.9577,-1051.9378 883.8704,-1044.4113"/>
<polygon fill="#191970" stroke="#191970" points="46.7247,-523.4885 43.0844,-513.5387 39.7253,-523.5869 46.7247,-523.4885"/>
</g>
<!-- Node6 -->
<g id="node6" class="node">
<title>Node6</title>
<g id="a_node6"><a xlink:href="../../db/d4c/classBJetModule.html#a93ec29147c2d7aea52780d7370141e74" target="_top" xlink:title="BJetModule::process\l_event">
<polygon fill="none" stroke="#000000" points="908,-1076.5 908,-1108.5 1027,-1108.5 1027,-1076.5 908,-1076.5"/>
<text text-anchor="start" x="916" y="-1095.5" font-family="FreeSans" font-size="10.00" fill="#000000">BJetModule::process</text>
<text text-anchor="middle" x="967.5" y="-1083.5" font-family="FreeSans" font-size="10.00" fill="#000000">_event</text>
</a>
</g>
</g>
<!-- Node1&#45;&gt;Node6 -->
<g id="edge37" class="edge">
<title>Node1&#45;&gt;Node6</title>
<path fill="none" stroke="#191970" d="M44.5339,-523.7736C51.8586,-618.1687 84.4749,-1011.6705 122,-1050.5 207.665,-1139.1428 271.7277,-1099.5 395,-1099.5 395,-1099.5 395,-1099.5 582.5,-1099.5 697.6514,-1099.5 832.144,-1096.3309 907.8178,-1094.2574"/>
<polygon fill="#191970" stroke="#191970" points="48.0059,-523.2734 43.7509,-513.5706 41.0265,-523.8092 48.0059,-523.2734"/>
</g>
<!-- Node7 -->
<g id="node7" class="node">
<title>Node7</title>
<g id="a_node7"><a xlink:href="../../d4/d28/classQAG4SimulationJet.html#a3e5c5fe2e5e5cee7fca6173ef6e6bfa2" target="_top" xlink:title="QAG4SimulationJet::\lprocess_TruthMatching">
<polygon fill="none" stroke="#000000" points="1087,-871.5 1087,-903.5 1219,-903.5 1219,-871.5 1087,-871.5"/>
<text text-anchor="start" x="1095" y="-890.5" font-family="FreeSans" font-size="10.00" fill="#000000">QAG4SimulationJet::</text>
<text text-anchor="middle" x="1153" y="-878.5" font-family="FreeSans" font-size="10.00" fill="#000000">process_TruthMatching</text>
</a>
</g>
</g>
<!-- Node1&#45;&gt;Node7 -->
<g id="edge51" class="edge">
<title>Node1&#45;&gt;Node7</title>
<path fill="none" stroke="#191970" d="M46.1102,-523.6859C55.6956,-583.7521 86.3023,-759.9344 122,-804.5 207.3749,-911.0834 258.4391,-945.5 395,-945.5 395,-945.5 395,-945.5 582.5,-945.5 790.7393,-945.5 848.8353,-989.4304 1051,-939.5 1079.5595,-932.4464 1109.1884,-916.1687 1129.1048,-903.6897"/>
<polygon fill="#191970" stroke="#191970" points="49.5331,-522.921 44.5231,-513.5855 42.6179,-524.0076 49.5331,-522.921"/>
</g>
<!-- Node9 -->
<g id="node9" class="node">
<title>Node9</title>
<g id="a_node9"><a xlink:href="../../d1/df4/classJetEvaluator.html#a0c608411c03ff1de3fca80d64e93ae5d" target="_top" xlink:title="dump the evaluator information into ntuple for external analysis">
<polygon fill="none" stroke="#000000" points="901,-756.5 901,-788.5 1034,-788.5 1034,-756.5 901,-756.5"/>
<text text-anchor="start" x="909" y="-775.5" font-family="FreeSans" font-size="10.00" fill="#000000">JetEvaluator::fillOutput</text>
<text text-anchor="middle" x="967.5" y="-763.5" font-family="FreeSans" font-size="10.00" fill="#000000">Ntuples</text>
</a>
</g>
</g>
<!-- Node1&#45;&gt;Node9 -->
<g id="edge14" class="edge">
<title>Node1&#45;&gt;Node9</title>
<path fill="none" stroke="#191970" d="M46.0318,-523.5657C52.6736,-560.0131 72.1095,-636.7991 122,-674.5 219.9959,-748.5528 272.1708,-717.5 395,-717.5 395,-717.5 395,-717.5 582.5,-717.5 695.0877,-717.5 824.351,-740.8354 900.7975,-757.1063"/>
<polygon fill="#191970" stroke="#191970" points="49.4722,-522.9182 44.3618,-513.6374 42.5692,-524.0794 49.4722,-522.9182"/>
</g>
<!-- Node13 -->
<g id="node13" class="node">
<title>Node13</title>
<g id="a_node13"><a xlink:href="../../d3/d22/classJetTruthEval.html#a00e601544c4ee135673754854553503d" target="_top" xlink:title="which truth jet in the specified node contains this truth particle?">
<polygon fill="none" stroke="#000000" points="127,-774.5 127,-794.5 276,-794.5 276,-774.5 127,-774.5"/>
<text text-anchor="middle" x="201.5" y="-781.5" font-family="FreeSans" font-size="10.00" fill="#000000">JetTruthEval::get_truth_jet</text>
</a>
</g>
</g>
<!-- Node1&#45;&gt;Node13 -->
<g id="edge16" class="edge">
<title>Node1&#45;&gt;Node13</title>
<path fill="none" stroke="#191970" d="M45.5756,-523.6107C51.8779,-566.0211 71.4274,-666.091 122,-731.5 136.9152,-750.7908 160.9145,-765.4029 178.6475,-774.3487"/>
<polygon fill="#191970" stroke="#191970" points="49.0395,-523.1085 44.1907,-513.6884 42.1067,-524.0762 49.0395,-523.1085"/>
</g>
<!-- Node16 -->
<g id="node16" class="node">
<title>Node16</title>
<g id="a_node16"><a xlink:href="../../dc/d65/classPhotonJet.html#a3f9d3ec941f851bc2246ceb0c5362c9f" target="_top" xlink:title="PhotonJet::process\l_event">
<polygon fill="none" stroke="#000000" points="912.5,-608.5 912.5,-640.5 1022.5,-640.5 1022.5,-608.5 912.5,-608.5"/>
<text text-anchor="start" x="920.5" y="-627.5" font-family="FreeSans" font-size="10.00" fill="#000000">PhotonJet::process</text>
<text text-anchor="middle" x="967.5" y="-615.5" font-family="FreeSans" font-size="10.00" fill="#000000">_event</text>
</a>
</g>
</g>
<!-- Node1&#45;&gt;Node16 -->
<g id="edge42" class="edge">
<title>Node1&#45;&gt;Node16</title>
<path fill="none" stroke="#191970" d="M59.8678,-521.2633C74.7052,-535.5676 97.6799,-554.6917 122,-563.5 425.6947,-673.4929 528.0616,-552.1344 848,-596.5 869.212,-599.4414 892.1863,-604.3887 912.2701,-609.3135"/>
<polygon fill="#191970" stroke="#191970" points="62.0535,-518.4996 52.5051,-513.9085 57.1064,-523.452 62.0535,-518.4996"/>
</g>
<!-- Node17 -->
<g id="node17" class="node">
<title>Node17</title>
<g id="a_node17"><a xlink:href="../../dc/d65/classPhotonJet.html#a9b2de7dcbd5e3bbbd26150d418b7bb44" target="_top" xlink:title="PhotonJet::GetRecoHadrons\lAndJets">
<polygon fill="none" stroke="#000000" points="692,-656.5 692,-688.5 848,-688.5 848,-656.5 692,-656.5"/>
<text text-anchor="start" x="700" y="-675.5" font-family="FreeSans" font-size="10.00" fill="#000000">PhotonJet::GetRecoHadrons</text>
<text text-anchor="middle" x="770" y="-663.5" font-family="FreeSans" font-size="10.00" fill="#000000">AndJets</text>
</a>
</g>
</g>
<!-- Node1&#45;&gt;Node17 -->
<g id="edge29" class="edge">
<title>Node1&#45;&gt;Node17</title>
<path fill="none" stroke="#191970" d="M47.9748,-523.6415C56.9044,-555.062 78.8803,-614.9878 122,-642.5 214.3305,-701.4107 540.4159,-688.1221 691.7611,-678.3374"/>
<polygon fill="#191970" stroke="#191970" points="51.312,-522.5725 45.3472,-513.8163 44.5497,-524.3811 51.312,-522.5725"/>
</g>
<!-- Node18 -->
<g id="node18" class="node">
<title>Node18</title>
<g id="a_node18"><a xlink:href="../../d5/d1f/classMyJetAnalysis.html#a309e9a46394353251b673514d6eb28ac" target="_top" xlink:title="MyJetAnalysis::process\l_event">
<polygon fill="none" stroke="#000000" points="704.5,-605.5 704.5,-637.5 835.5,-637.5 835.5,-605.5 704.5,-605.5"/>
<text text-anchor="start" x="712.5" y="-624.5" font-family="FreeSans" font-size="10.00" fill="#000000">MyJetAnalysis::process</text>
<text text-anchor="middle" x="770" y="-612.5" font-family="FreeSans" font-size="10.00" fill="#000000">_event</text>
</a>
</g>
</g>
<!-- Node1&#45;&gt;Node18 -->
<g id="edge44" class="edge">
<title>Node1&#45;&gt;Node18</title>
<path fill="none" stroke="#191970" d="M50.2428,-522.9499C61.2151,-549.2404 84.8011,-595.0616 122,-614.5 221.5886,-666.5404 560.2842,-641.6311 704.3169,-628.1721"/>
<polygon fill="#191970" stroke="#191970" points="53.4815,-521.6222 46.5377,-513.62 46.9757,-524.2058 53.4815,-521.6222"/>
</g>
<!-- Node19 -->
<g id="node19" class="node">
<title>Node19</title>
<g id="a_node19"><a xlink:href="../../dc/d65/classPhotonJet.html#a2c1adc79085fbbe9d27254d016321804" target="_top" xlink:title="PhotonJet::GetRecoHadrons\lAndJetsAA">
<polygon fill="none" stroke="#000000" points="317,-526.5 317,-558.5 473,-558.5 473,-526.5 317,-526.5"/>
<text text-anchor="start" x="325" y="-545.5" font-family="FreeSans" font-size="10.00" fill="#000000">PhotonJet::GetRecoHadrons</text>
<text text-anchor="middle" x="395" y="-533.5" font-family="FreeSans" font-size="10.00" fill="#000000">AndJetsAA</text>
</a>
</g>
</g>
<!-- Node1&#45;&gt;Node19 -->
<g id="edge30" class="edge">
<title>Node1&#45;&gt;Node19</title>
<path fill="none" stroke="#191970" d="M66.3016,-518.9733C81.4649,-528.0887 102.0635,-538.7405 122,-543.5 186.3104,-558.8532 261.597,-557.1768 316.8013,-552.4715"/>
<polygon fill="#191970" stroke="#191970" points="67.9555,-515.88 57.6172,-513.5626 64.2539,-521.8212 67.9555,-515.88"/>
</g>
<!-- Node20 -->
<g id="node20" class="node">
<title>Node20</title>
<g id="a_node20"><a xlink:href="../../d7/dce/classTreeMaker.html#a52a597a7a6509616228576eac6383301" target="_top" xlink:title="TreeMaker::GetRecoJets">
<polygon fill="none" stroke="#000000" points="133.5,-513.5 133.5,-533.5 269.5,-533.5 269.5,-513.5 133.5,-513.5"/>
<text text-anchor="middle" x="201.5" y="-520.5" font-family="FreeSans" font-size="10.00" fill="#000000">TreeMaker::GetRecoJets</text>
</a>
</g>
</g>
<!-- Node1&#45;&gt;Node20 -->
<g id="edge32" class="edge">
<title>Node1&#45;&gt;Node20</title>
<path fill="none" stroke="#191970" d="M96.4362,-510.2427C108.2445,-511.7327 120.9112,-513.3311 133.218,-514.884"/>
<polygon fill="#191970" stroke="#191970" points="96.6703,-506.7446 86.3108,-508.9651 95.794,-513.6895 96.6703,-506.7446"/>
</g>
<!-- Node22 -->
<g id="node22" class="node">
<title>Node22</title>
<g id="a_node22"><a xlink:href="../../d7/dce/classTreeMaker.html#a256b6f8b0e6f110256c630b0bad83efb" target="_top" xlink:title="TreeMaker::GetTruthJets">
<polygon fill="none" stroke="#000000" points="133,-474.5 133,-494.5 270,-494.5 270,-474.5 133,-474.5"/>
<text text-anchor="middle" x="201.5" y="-481.5" font-family="FreeSans" font-size="10.00" fill="#000000">TreeMaker::GetTruthJets</text>
</a>
</g>
</g>
<!-- Node1&#45;&gt;Node22 -->
<g id="edge34" class="edge">
<title>Node1&#45;&gt;Node22</title>
<path fill="none" stroke="#191970" d="M96.3706,-497.1023C108.101,-495.6961 120.6811,-494.1881 132.9158,-492.7214"/>
<polygon fill="#191970" stroke="#191970" points="95.8231,-493.6427 86.3108,-498.3082 96.6563,-500.593 95.8231,-493.6427"/>
</g>
<!-- Node23 -->
<g id="node23" class="node">
<title>Node23</title>
<g id="a_node23"><a xlink:href="../../d9/d22/classJetMapv1.html#a0c728b2df0d743020acd6e67d5448f88" target="_top" xlink:title="JetMapv1::JetMapv1">
<polygon fill="none" stroke="#000000" points="143,-435.5 143,-455.5 260,-455.5 260,-435.5 143,-435.5"/>
<text text-anchor="middle" x="201.5" y="-442.5" font-family="FreeSans" font-size="10.00" fill="#000000">JetMapv1::JetMapv1</text>
</a>
</g>
</g>
<!-- Node1&#45;&gt;Node23 -->
<g id="edge36" class="edge">
<title>Node1&#45;&gt;Node23</title>
<path fill="none" stroke="#191970" d="M70.5435,-488.5567C85.4592,-480.9014 104.3917,-471.8757 122,-465.5 132.4379,-461.7206 143.8955,-458.3876 154.7825,-455.5798"/>
<polygon fill="#191970" stroke="#191970" points="68.6176,-485.614 61.3761,-493.3478 71.8599,-491.8179 68.6176,-485.614"/>
</g>
<!-- Node24 -->
<g id="node24" class="node">
<title>Node24</title>
<g id="a_node24"><a xlink:href="../../dc/d64/classHFJetTruthTrigger.html#a285f04a4990696900275fab25aa86106" target="_top" xlink:title="HFJetTruthTrigger::\lprocess_event">
<polygon fill="none" stroke="#000000" points="147,-384.5 147,-416.5 256,-416.5 256,-384.5 147,-384.5"/>
<text text-anchor="start" x="155" y="-403.5" font-family="FreeSans" font-size="10.00" fill="#000000">HFJetTruthTrigger::</text>
<text text-anchor="middle" x="201.5" y="-391.5" font-family="FreeSans" font-size="10.00" fill="#000000">process_event</text>
</a>
</g>
</g>
<!-- Node1&#45;&gt;Node24 -->
<g id="edge38" class="edge">
<title>Node1&#45;&gt;Node24</title>
<path fill="none" stroke="#191970" d="M57.2147,-485.4999C71.788,-468.1486 95.9514,-442.268 122,-426.5 129.7021,-421.8377 138.3366,-417.9087 147,-414.6312"/>
<polygon fill="#191970" stroke="#191970" points="54.4946,-483.2973 50.8647,-493.2509 59.9095,-487.7334 54.4946,-483.2973"/>
</g>
<!-- Node25 -->
<g id="node25" class="node">
<title>Node25</title>
<g id="a_node25"><a xlink:href="../../d6/d02/classDetermineTowerBackground.html#a1e2d3c456b619165aec9114ae37ee6bf" target="_top" xlink:title="DetermineTowerBackground\l::process_event">
<polygon fill="none" stroke="#000000" points="122,-333.5 122,-365.5 281,-365.5 281,-333.5 122,-333.5"/>
<text text-anchor="start" x="130" y="-352.5" font-family="FreeSans" font-size="10.00" fill="#000000">DetermineTowerBackground</text>
<text text-anchor="middle" x="201.5" y="-340.5" font-family="FreeSans" font-size="10.00" fill="#000000">::process_event</text>
</a>
</g>
</g>
<!-- Node1&#45;&gt;Node25 -->
<g id="edge39" class="edge">
<title>Node1&#45;&gt;Node25</title>
<path fill="none" stroke="#191970" d="M50.152,-483.629C61.2513,-455.5415 85.2489,-404.4346 122,-375.5 126.9061,-371.6373 132.4071,-368.3387 138.1646,-365.5237"/>
<polygon fill="#191970" stroke="#191970" points="46.8061,-482.5813 46.5299,-493.1725 53.3506,-485.0652 46.8061,-482.5813"/>
</g>
<!-- Node26 -->
<g id="node26" class="node">
<title>Node26</title>
<g id="a_node26"><a xlink:href="../../d9/de3/classTruthPhotonJet.html#ae476c9aba33cf8d9161947519d293f5c" target="_top" xlink:title="TruthPhotonJet::process\l_event">
<polygon fill="none" stroke="#000000" points="133,-282.5 133,-314.5 270,-314.5 270,-282.5 133,-282.5"/>
<text text-anchor="start" x="141" y="-301.5" font-family="FreeSans" font-size="10.00" fill="#000000">TruthPhotonJet::process</text>
<text text-anchor="middle" x="201.5" y="-289.5" font-family="FreeSans" font-size="10.00" fill="#000000">_event</text>
</a>
</g>
</g>
<!-- Node1&#45;&gt;Node26 -->
<g id="edge40" class="edge">
<title>Node1&#45;&gt;Node26</title>
<path fill="none" stroke="#191970" d="M46.3647,-483.2876C53.5506,-446.4294 73.8423,-368.0873 122,-324.5 126.1989,-320.6996 130.9635,-317.4537 136.0241,-314.6816"/>
<polygon fill="#191970" stroke="#191970" points="42.8879,-482.8447 44.539,-493.3101 49.7745,-484.0992 42.8879,-482.8447"/>
</g>
<!-- Node27 -->
<g id="node27" class="node">
<title>Node27</title>
<g id="a_node27"><a xlink:href="../../d4/dc9/classPHG4DSTReader.html#aa32c5027cd9c3e4d667a0e84d7243412" target="_top" xlink:title="event processing method">
<polygon fill="none" stroke="#000000" points="128.5,-231.5 128.5,-263.5 274.5,-263.5 274.5,-231.5 128.5,-231.5"/>
<text text-anchor="start" x="136.5" y="-250.5" font-family="FreeSans" font-size="10.00" fill="#000000">PHG4DSTReader::process</text>
<text text-anchor="middle" x="201.5" y="-238.5" font-family="FreeSans" font-size="10.00" fill="#000000">_event</text>
</a>
</g>
</g>
<!-- Node1&#45;&gt;Node27 -->
<g id="edge41" class="edge">
<title>Node1&#45;&gt;Node27</title>
<path fill="none" stroke="#191970" d="M44.1202,-482.9416C47.6559,-438.4235 62.242,-332.3816 122,-273.5 125.9306,-269.627 130.446,-266.3309 135.286,-263.5258"/>
<polygon fill="#191970" stroke="#191970" points="40.6163,-482.8815 43.4256,-493.0971 47.6,-483.3593 40.6163,-482.8815"/>
</g>
<!-- Node28 -->
<g id="node28" class="node">
<title>Node28</title>
<g id="a_node28"><a xlink:href="../../d6/d40/classLeptoquarksReco.html#aa5b8ff9665c7a78246bd4f1194d66d1b" target="_top" xlink:title="LeptoquarksReco::process\l_event">
<polygon fill="none" stroke="#000000" points="127,-180.5 127,-212.5 276,-212.5 276,-180.5 127,-180.5"/>
<text text-anchor="start" x="135" y="-199.5" font-family="FreeSans" font-size="10.00" fill="#000000">LeptoquarksReco::process</text>
<text text-anchor="middle" x="201.5" y="-187.5" font-family="FreeSans" font-size="10.00" fill="#000000">_event</text>
</a>
</g>
</g>
<!-- Node1&#45;&gt;Node28 -->
<g id="edge43" class="edge">
<title>Node1&#45;&gt;Node28</title>
<path fill="none" stroke="#191970" d="M46.1684,-483.2623C55.6054,-425.391 85.1736,-260.9071 122,-222.5 125.7186,-218.6218 130.023,-215.3215 134.6662,-212.5131"/>
<polygon fill="#191970" stroke="#191970" points="42.6789,-482.9184 44.5532,-493.3461 49.5908,-484.0256 42.6789,-482.9184"/>
</g>
<!-- Node29 -->
<g id="node29" class="node">
<title>Node29</title>
<g id="a_node29"><a xlink:href="../../d1/d04/classBDiJetModule.html#a8f01ada101f7e91cf05e12bbf420d192" target="_top" xlink:title="BDiJetModule::process\l_event">
<polygon fill="none" stroke="#000000" points="137,-129.5 137,-161.5 266,-161.5 266,-129.5 137,-129.5"/>
<text text-anchor="start" x="145" y="-148.5" font-family="FreeSans" font-size="10.00" fill="#000000">BDiJetModule::process</text>
<text text-anchor="middle" x="201.5" y="-136.5" font-family="FreeSans" font-size="10.00" fill="#000000">_event</text>
</a>
</g>
</g>
<!-- Node1&#45;&gt;Node29 -->
<g id="edge45" class="edge">
<title>Node1&#45;&gt;Node29</title>
<path fill="none" stroke="#191970" d="M45.2487,-483.0904C52.7864,-418.1848 79.1247,-218.0656 122,-171.5 126.2296,-166.9064 131.2812,-163.1224 136.7595,-160.0057"/>
<polygon fill="#191970" stroke="#191970" points="41.745,-482.9256 44.0948,-493.2566 48.7003,-483.7152 41.745,-482.9256"/>
</g>
<!-- Node30 -->
<g id="node30" class="node">
<title>Node30</title>
<g id="a_node30"><a xlink:href="../../d4/df6/classDumpJetMap.html#a0318eb1fd99502149f6b94697419c4da" target="_top" xlink:title="DumpJetMap::process_Node">
<polygon fill="none" stroke="#000000" points="122.5,-90.5 122.5,-110.5 280.5,-110.5 280.5,-90.5 122.5,-90.5"/>
<text text-anchor="middle" x="201.5" y="-97.5" font-family="FreeSans" font-size="10.00" fill="#000000">DumpJetMap::process_Node</text>
</a>
</g>
</g>
<!-- Node1&#45;&gt;Node30 -->
<g id="edge46" class="edge">
<title>Node1&#45;&gt;Node30</title>
<path fill="none" stroke="#191970" d="M44.3996,-483.1703C49.7264,-411.7348 71.0628,-173.6783 122,-120.5 125.8394,-116.4916 130.3541,-113.2404 135.2493,-110.6086"/>
<polygon fill="#191970" stroke="#191970" points="40.8838,-483.2654 43.6565,-493.491 47.8657,-483.7682 40.8838,-483.2654"/>
</g>
<!-- Node31 -->
<g id="node31" class="node">
<title>Node31</title>
<g id="a_node31"><a xlink:href="../../d4/d28/classQAG4SimulationJet.html#ac2803dd2fafe7d6131f3311c9f1e4e27" target="_top" xlink:title="QAG4SimulationJet::\lprocess_Spectrum">
<polygon fill="none" stroke="#000000" points="523.5,-259.5 523.5,-291.5 641.5,-291.5 641.5,-259.5 523.5,-259.5"/>
<text text-anchor="start" x="531.5" y="-278.5" font-family="FreeSans" font-size="10.00" fill="#000000">QAG4SimulationJet::</text>
<text text-anchor="middle" x="582.5" y="-266.5" font-family="FreeSans" font-size="10.00" fill="#000000">process_Spectrum</text>
</a>
</g>
</g>
<!-- Node1&#45;&gt;Node31 -->
<g id="edge47" class="edge">
<title>Node1&#45;&gt;Node31</title>
<path fill="none" stroke="#191970" d="M43.5218,-483.0811C45.9656,-405.7808 58.9989,-132.8242 122,-80.5 269.9382,42.367 506.6183,-193.3665 567.7242,-259.1355"/>
<polygon fill="#191970" stroke="#191970" points="40.0145,-483.2855 43.2238,-493.3825 47.0116,-483.4879 40.0145,-483.2855"/>
</g>
<!-- Node32 -->
<g id="node32" class="node">
<title>Node32</title>
<g id="a_node32"><a xlink:href="../../d0/dc8/classSoftLeptonTaggingTruth.html#a3989ff17a01ba304478d558b99c3214f" target="_top" xlink:title="SoftLeptonTaggingTruth\l::process_Spectrum">
<polygon fill="none" stroke="#000000" points="134,-.5 134,-32.5 269,-32.5 269,-.5 134,-.5"/>
<text text-anchor="start" x="142" y="-19.5" font-family="FreeSans" font-size="10.00" fill="#000000">SoftLeptonTaggingTruth</text>
<text text-anchor="middle" x="201.5" y="-7.5" font-family="FreeSans" font-size="10.00" fill="#000000">::process_Spectrum</text>
</a>
</g>
</g>
<!-- Node1&#45;&gt;Node32 -->
<g id="edge49" class="edge">
<title>Node1&#45;&gt;Node32</title>
<path fill="none" stroke="#191970" d="M43.9197,-483.2291C47.8966,-403.9626 66.0219,-115.982 122,-47.5 126.9691,-41.4209 133.2882,-36.5303 140.1854,-32.5965"/>
<polygon fill="#191970" stroke="#191970" points="40.417,-483.2022 43.4327,-493.3587 47.4089,-483.5384 40.417,-483.2022"/>
</g>
<!-- Node3 -->
<g id="node3" class="node">
<title>Node3</title>
<g id="a_node3"><a xlink:href="../../dd/d75/classJetRecoEval.html#a631b92837e600fbdb6b966a556fc9077" target="_top" xlink:title="which reconstructed jet had the largest energy contribution from this truth jet?">
<polygon fill="none" stroke="#000000" points="694.5,-974.5 694.5,-994.5 845.5,-994.5 845.5,-974.5 694.5,-974.5"/>
<text text-anchor="middle" x="770" y="-981.5" font-family="FreeSans" font-size="10.00" fill="#000000">JetRecoEval::best_jet_from</text>
</a>
</g>
</g>
<!-- Node2&#45;&gt;Node3 -->
<g id="edge2" class="edge">
<title>Node2&#45;&gt;Node3</title>
<path fill="none" stroke="#191970" d="M666.213,-984.5C675.6296,-984.5 685.1829,-984.5 694.4869,-984.5"/>
<polygon fill="#191970" stroke="#191970" points="666.0669,-981.0001 656.0668,-984.5 666.0668,-988.0001 666.0669,-981.0001"/>
</g>
<!-- Node3&#45;&gt;Node4 -->
<g id="edge3" class="edge">
<title>Node3&#45;&gt;Node4</title>
<path fill="none" stroke="#191970" d="M818.7093,-997.0781C852.5586,-1005.8189 897.0701,-1017.313 928.5614,-1025.445"/>
<polygon fill="#191970" stroke="#191970" points="819.5772,-993.6875 809.0196,-994.576 817.8269,-1000.4651 819.5772,-993.6875"/>
</g>
<!-- Node3&#45;&gt;Node6 -->
<g id="edge5" class="edge">
<title>Node3&#45;&gt;Node6</title>
<path fill="none" stroke="#191970" d="M793.3064,-1000.3617C815.9558,-1015.4502 851.5836,-1038.3314 884,-1055.5 898.1522,-1062.9954 914.1346,-1070.3357 928.3002,-1076.4765"/>
<polygon fill="#191970" stroke="#191970" points="794.9801,-997.2699 784.726,-994.6043 791.0797,-1003.0826 794.9801,-997.2699"/>
</g>
<!-- Node3&#45;&gt;Node7 -->
<g id="edge6" class="edge">
<title>Node3&#45;&gt;Node7</title>
<path fill="none" stroke="#191970" d="M855.8191,-994.796C913.0094,-998.3399 988.8042,-996.5311 1051,-972.5 1088.4133,-958.0443 1122.0894,-923.9714 1139.8245,-903.6267"/>
<polygon fill="#191970" stroke="#191970" points="855.942,-991.2963 845.7259,-994.1034 855.4628,-998.2798 855.942,-991.2963"/>
</g>
<!-- Node3&#45;&gt;Node9 -->
<g id="edge8" class="edge">
<title>Node3&#45;&gt;Node9</title>
<path fill="none" stroke="#191970" d="M782.281,-965.7455C801.8562,-936.5828 842.2071,-879.3694 884,-837.5 902.4293,-819.037 926.1047,-801.0573 943.5361,-788.7054"/>
<polygon fill="#191970" stroke="#191970" points="779.3001,-963.9075 776.68,-974.1732 785.1301,-967.7821 779.3001,-963.9075"/>
</g>
<!-- Node11 -->
<g id="node11" class="node">
<title>Node11</title>
<g id="a_node11"><a xlink:href="../../dd/d75/classJetRecoEval.html#a9775ea4a0c6e28f22da7997f4886f195" target="_top" xlink:title="JetRecoEval::unique\l_reco_jet_from_truth">
<polygon fill="none" stroke="#000000" points="907.5,-846.5 907.5,-878.5 1027.5,-878.5 1027.5,-846.5 907.5,-846.5"/>
<text text-anchor="start" x="915.5" y="-865.5" font-family="FreeSans" font-size="10.00" fill="#000000">JetRecoEval::unique</text>
<text text-anchor="middle" x="967.5" y="-853.5" font-family="FreeSans" font-size="10.00" fill="#000000">_reco_jet_from_truth</text>
</a>
</g>
</g>
<!-- Node3&#45;&gt;Node11 -->
<g id="edge10" class="edge">
<title>Node3&#45;&gt;Node11</title>
<path fill="none" stroke="#191970" d="M786.472,-966.8557C807.3023,-945.4995 845.1587,-909.7634 884,-888.5 891.3249,-884.49 899.3565,-881.003 907.4532,-877.9993"/>
<polygon fill="#191970" stroke="#191970" points="783.751,-964.6364 779.3557,-974.2765 788.8033,-969.4814 783.751,-964.6364"/>
</g>
<!-- Node12 -->
<g id="node12" class="node">
<title>Node12</title>
<g id="a_node12"><a xlink:href="../../dd/d75/classJetRecoEval.html#ac6030b2b14c885e19e35f86ec828d8d8" target="_top" xlink:title="JetRecoEval::unique\l_truth_jet_from_reco">
<polygon fill="none" stroke="#000000" points="907.5,-897.5 907.5,-929.5 1027.5,-929.5 1027.5,-897.5 907.5,-897.5"/>
<text text-anchor="start" x="915.5" y="-916.5" font-family="FreeSans" font-size="10.00" fill="#000000">JetRecoEval::unique</text>
<text text-anchor="middle" x="967.5" y="-904.5" font-family="FreeSans" font-size="10.00" fill="#000000">_truth_jet_from_reco</text>
</a>
</g>
</g>
<!-- Node3&#45;&gt;Node12 -->
<g id="edge12" class="edge">
<title>Node3&#45;&gt;Node12</title>
<path fill="none" stroke="#191970" d="M807.5369,-971.0057C840.2935,-959.2299 887.8891,-942.1196 922.6446,-929.6252"/>
<polygon fill="#191970" stroke="#191970" points="806.1044,-967.8013 797.878,-974.478 808.4725,-974.3886 806.1044,-967.8013"/>
</g>
<!-- Node5 -->
<g id="node5" class="node">
<title>Node5</title>
<g id="a_node5"><a xlink:href="../../d8/de2/classJetEnergies.html#a6acaa9b2ba1fe7353781d2f5d476e8d1" target="_top" xlink:title="JetEnergies::process\l_event">
<polygon fill="none" stroke="#000000" points="1093,-1019.5 1093,-1051.5 1213,-1051.5 1213,-1019.5 1093,-1019.5"/>
<text text-anchor="start" x="1101" y="-1038.5" font-family="FreeSans" font-size="10.00" fill="#000000">JetEnergies::process</text>
<text text-anchor="middle" x="1153" y="-1026.5" font-family="FreeSans" font-size="10.00" fill="#000000">_event</text>
</a>
</g>
</g>
<!-- Node4&#45;&gt;Node5 -->
<g id="edge4" class="edge">
<title>Node4&#45;&gt;Node5</title>
<path fill="none" stroke="#191970" d="M1061.3276,-1035.5C1072.087,-1035.5 1082.8271,-1035.5 1092.9686,-1035.5"/>
<polygon fill="#191970" stroke="#191970" points="1061.0248,-1032.0001 1051.0248,-1035.5 1061.0248,-1039.0001 1061.0248,-1032.0001"/>
</g>
<!-- Node8 -->
<g id="node8" class="node">
<title>Node8</title>
<g id="a_node8"><a xlink:href="../../d4/d28/classQAG4SimulationJet.html#a98c3c0fb4d213ada3475e8fb9895bc29" target="_top" xlink:title="QAG4SimulationJet::\lprocess_event">
<polygon fill="none" stroke="#000000" points="1255,-551.5 1255,-583.5 1373,-583.5 1373,-551.5 1255,-551.5"/>
<text text-anchor="start" x="1263" y="-570.5" font-family="FreeSans" font-size="10.00" fill="#000000">QAG4SimulationJet::</text>
<text text-anchor="middle" x="1314" y="-558.5" font-family="FreeSans" font-size="10.00" fill="#000000">process_event</text>
</a>
</g>
</g>
<!-- Node7&#45;&gt;Node8 -->
<g id="edge7" class="edge">
<title>Node7&#45;&gt;Node8</title>
<path fill="none" stroke="#191970" d="M1173.4506,-863.393C1187.4651,-846.0959 1205.8299,-821.8185 1219,-798.5 1262.1831,-722.0416 1296.4912,-622.0047 1308.945,-583.5318"/>
<polygon fill="#191970" stroke="#191970" points="1170.607,-861.3406 1166.9621,-871.2887 1176.0152,-865.7849 1170.607,-861.3406"/>
</g>
<!-- Node10 -->
<g id="node10" class="node">
<title>Node10</title>
<g id="a_node10"><a xlink:href="../../d1/df4/classJetEvaluator.html#ad83508ae828d1f2e4a83a948465a0cd2" target="_top" xlink:title="JetEvaluator::process\l_event">
<polygon fill="none" stroke="#000000" points="1091,-756.5 1091,-788.5 1215,-788.5 1215,-756.5 1091,-756.5"/>
<text text-anchor="start" x="1099" y="-775.5" font-family="FreeSans" font-size="10.00" fill="#000000">JetEvaluator::process</text>
<text text-anchor="middle" x="1153" y="-763.5" font-family="FreeSans" font-size="10.00" fill="#000000">_event</text>
</a>
</g>
</g>
<!-- Node9&#45;&gt;Node10 -->
<g id="edge9" class="edge">
<title>Node9&#45;&gt;Node10</title>
<path fill="none" stroke="#191970" d="M1044.3008,-772.5C1059.8233,-772.5 1075.9604,-772.5 1090.9017,-772.5"/>
<polygon fill="#191970" stroke="#191970" points="1044.2077,-769.0001 1034.2077,-772.5 1044.2076,-776.0001 1044.2077,-769.0001"/>
</g>
<!-- Node11&#45;&gt;Node7 -->
<g id="edge11" class="edge">
<title>Node11&#45;&gt;Node7</title>
<path fill="none" stroke="#191970" d="M1037.6551,-871.9549C1053.8344,-874.1354 1070.9905,-876.4475 1086.9865,-878.6033"/>
<polygon fill="#191970" stroke="#191970" points="1038.1044,-868.4839 1027.7265,-870.6168 1037.1694,-875.4211 1038.1044,-868.4839"/>
</g>
<!-- Node12&#45;&gt;Node7 -->
<g id="edge13" class="edge">
<title>Node12&#45;&gt;Node7</title>
<path fill="none" stroke="#191970" d="M1037.6551,-903.6669C1053.8344,-901.3992 1070.9905,-898.9946 1086.9865,-896.7526"/>
<polygon fill="#191970" stroke="#191970" points="1037.1439,-900.2043 1027.7265,-905.0585 1038.1156,-907.1365 1037.1439,-900.2043"/>
</g>
<!-- Node14 -->
<g id="node14" class="node">
<title>Node14</title>
<g id="a_node14"><a xlink:href="../../dd/d75/classJetRecoEval.html#a277ecc26833b4e3e16f96018aa921702" target="_top" xlink:title="what truth jets contributed to this reconstructed jet?">
<polygon fill="none" stroke="#000000" points="321,-802.5 321,-822.5 469,-822.5 469,-802.5 321,-802.5"/>
<text text-anchor="middle" x="395" y="-809.5" font-family="FreeSans" font-size="10.00" fill="#000000">JetRecoEval::all_truth_jets</text>
</a>
</g>
</g>
<!-- Node13&#45;&gt;Node14 -->
<g id="edge17" class="edge">
<title>Node13&#45;&gt;Node14</title>
<path fill="none" stroke="#191970" d="M281.0022,-796.0042C295.878,-798.1568 311.316,-800.3907 325.8475,-802.4934"/>
<polygon fill="#191970" stroke="#191970" points="281.2096,-792.4978 270.8114,-794.5296 280.207,-799.4257 281.2096,-792.4978"/>
</g>
<!-- Node14&#45;&gt;Node2 -->
<g id="edge28" class="edge">
<title>Node14&#45;&gt;Node2</title>
<path fill="none" stroke="#191970" d="M413.6167,-829.5777C452.1962,-864.968 539.8777,-945.4011 571.154,-974.0919"/>
<polygon fill="#191970" stroke="#191970" points="415.9026,-826.925 406.1675,-822.7443 411.1706,-832.0834 415.9026,-826.925"/>
</g>
<!-- Node15 -->
<g id="node15" class="node">
<title>Node15</title>
<g id="a_node15"><a xlink:href="../../dd/d75/classJetRecoEval.html#af4bff244a32d216f097c7fab76c9b95a" target="_top" xlink:title="which truth jet contributed the most energy to this reconstructed jet?">
<polygon fill="none" stroke="#000000" points="515.5,-796.5 515.5,-828.5 649.5,-828.5 649.5,-796.5 515.5,-796.5"/>
<text text-anchor="start" x="523.5" y="-815.5" font-family="FreeSans" font-size="10.00" fill="#000000">JetRecoEval::max_truth</text>
<text text-anchor="middle" x="582.5" y="-803.5" font-family="FreeSans" font-size="10.00" fill="#000000">_jet_by_energy</text>
</a>
</g>
</g>
<!-- Node14&#45;&gt;Node15 -->
<g id="edge18" class="edge">
<title>Node14&#45;&gt;Node15</title>
<path fill="none" stroke="#191970" d="M479.2004,-812.5C491.3002,-812.5 503.6143,-812.5 515.3254,-812.5"/>
<polygon fill="#191970" stroke="#191970" points="479.105,-809.0001 469.105,-812.5 479.1049,-816.0001 479.105,-809.0001"/>
</g>
<!-- Node15&#45;&gt;Node4 -->
<g id="edge19" class="edge">
<title>Node15&#45;&gt;Node4</title>
<path fill="none" stroke="#191970" d="M593.4286,-837.7741C614.418,-885.0892 661.0311,-984.1095 692,-1004.5 748.2805,-1041.5562 825.3986,-1047.3534 883.7313,-1044.9987"/>
<polygon fill="#191970" stroke="#191970" points="596.5835,-836.2537 589.3535,-828.5093 590.176,-839.0721 596.5835,-836.2537"/>
</g>
<!-- Node15&#45;&gt;Node7 -->
<g id="edge23" class="edge">
<title>Node15&#45;&gt;Node7</title>
<path fill="none" stroke="#191970" d="M659.7678,-812.8852C773.2692,-814.0864 979.3595,-818.8601 1051,-837.5 1078.4839,-844.6509 1107.3218,-859.5774 1127.2945,-871.2693"/>
<polygon fill="#191970" stroke="#191970" points="659.7845,-809.3853 649.7502,-812.786 659.715,-816.385 659.7845,-809.3853"/>
</g>
<!-- Node15&#45;&gt;Node9 -->
<g id="edge24" class="edge">
<title>Node15&#45;&gt;Node9</title>
<path fill="none" stroke="#191970" d="M659.7382,-804.4753C730.3784,-797.136 833.796,-786.3913 900.8845,-779.4211"/>
<polygon fill="#191970" stroke="#191970" points="659.1466,-801.0178 649.5619,-805.5325 659.8701,-807.9803 659.1466,-801.0178"/>
</g>
<!-- Node15&#45;&gt;Node11 -->
<g id="edge25" class="edge">
<title>Node15&#45;&gt;Node11</title>
<path fill="none" stroke="#191970" d="M637.1583,-831.6773C654.4909,-837.0244 673.8652,-842.253 692,-845.5 765.3504,-858.6332 851.2404,-862.084 907.3729,-862.7693"/>
<polygon fill="#191970" stroke="#191970" points="637.8038,-828.2105 627.2137,-828.5294 635.6912,-834.8841 637.8038,-828.2105"/>
</g>
<!-- Node15&#45;&gt;Node12 -->
<g id="edge26" class="edge">
<title>Node15&#45;&gt;Node12</title>
<path fill="none" stroke="#191970" d="M618.2967,-833.4431C639.1674,-844.8042 666.3569,-858.185 692,-866.5 764.1173,-889.8848 850.8325,-902.2325 907.4602,-908.3047"/>
<polygon fill="#191970" stroke="#191970" points="619.9155,-830.3387 609.4719,-828.555 616.5237,-836.4621 619.9155,-830.3387"/>
</g>
<!-- Node15&#45;&gt;Node16 -->
<g id="edge20" class="edge">
<title>Node15&#45;&gt;Node16</title>
<path fill="none" stroke="#191970" d="M634.6615,-792.7719C688.976,-771.6162 776.0146,-735.9775 848,-698.5 882.4148,-680.5827 920.178,-656.376 943.8545,-640.6043"/>
<polygon fill="#191970" stroke="#191970" points="633.3012,-789.5454 625.2423,-796.4232 635.8314,-796.0721 633.3012,-789.5454"/>
</g>
<!-- Node15&#45;&gt;Node17 -->
<g id="edge21" class="edge">
<title>Node15&#45;&gt;Node17</title>
<path fill="none" stroke="#191970" d="M612.1294,-790.3767C650.0656,-762.051 714.8955,-713.6447 748.4542,-688.5875"/>
<polygon fill="#191970" stroke="#191970" points="609.9274,-787.6528 604.0086,-796.4402 614.1155,-793.2618 609.9274,-787.6528"/>
</g>
<!-- Node15&#45;&gt;Node18 -->
<g id="edge27" class="edge">
<title>Node15&#45;&gt;Node18</title>
<path fill="none" stroke="#191970" d="M592.9549,-786.9444C609.0087,-750.7864 643.0903,-684.9384 692,-647.5 696.9873,-643.6825 702.5643,-640.4091 708.3812,-637.6057"/>
<polygon fill="#191970" stroke="#191970" points="589.6629,-785.7393 588.9077,-796.3072 596.0883,-788.5168 589.6629,-785.7393"/>
</g>
<!-- Node17&#45;&gt;Node16 -->
<g id="edge22" class="edge">
<title>Node17&#45;&gt;Node16</title>
<path fill="none" stroke="#191970" d="M845.7619,-654.087C867.9402,-648.6968 891.7564,-642.9086 912.3904,-637.8937"/>
<polygon fill="#191970" stroke="#191970" points="844.9298,-650.6873 836.0392,-656.45 846.583,-657.4892 844.9298,-650.6873"/>
</g>
<!-- Node19&#45;&gt;Node16 -->
<g id="edge31" class="edge">
<title>Node19&#45;&gt;Node16</title>
<path fill="none" stroke="#191970" d="M483.2523,-535.2963C575.8076,-530.2927 724.6708,-529.5122 848,-562.5 883.6746,-572.0422 920.8334,-593.4228 944.0551,-608.394"/>
<polygon fill="#191970" stroke="#191970" points="482.8699,-531.8123 473.0851,-535.8752 483.2679,-538.801 482.8699,-531.8123"/>
</g>
<!-- Node21 -->
<g id="node21" class="node">
<title>Node21</title>
<g id="a_node21"><a xlink:href="../../d7/dce/classTreeMaker.html#a89a6f3a23de784d5f8d86ae91956aa69" target="_top" xlink:title="TreeMaker::process\l_event">
<polygon fill="none" stroke="#000000" points="338,-471.5 338,-503.5 452,-503.5 452,-471.5 338,-471.5"/>
<text text-anchor="start" x="346" y="-490.5" font-family="FreeSans" font-size="10.00" fill="#000000">TreeMaker::process</text>
<text text-anchor="middle" x="395" y="-478.5" font-family="FreeSans" font-size="10.00" fill="#000000">_event</text>
</a>
</g>
</g>
<!-- Node20&#45;&gt;Node21 -->
<g id="edge33" class="edge">
<title>Node20&#45;&gt;Node21</title>
<path fill="none" stroke="#191970" d="M265.5333,-511.5868C288.8285,-507.2528 314.9919,-502.3852 337.6698,-498.1661"/>
<polygon fill="#191970" stroke="#191970" points="264.5916,-508.2019 255.4005,-513.472 265.872,-515.0838 264.5916,-508.2019"/>
</g>
<!-- Node22&#45;&gt;Node21 -->
<g id="edge35" class="edge">
<title>Node22&#45;&gt;Node21</title>
<path fill="none" stroke="#191970" d="M280.5243,-485.7252C299.7591,-486.0234 319.9617,-486.3366 337.9494,-486.6155"/>
<polygon fill="#191970" stroke="#191970" points="280.3188,-482.2217 270.2657,-485.5661 280.2102,-489.2208 280.3188,-482.2217"/>
</g>
<!-- Node31&#45;&gt;Node8 -->
<g id="edge48" class="edge">
<title>Node31&#45;&gt;Node8</title>
<path fill="none" stroke="#191970" d="M632.0156,-295.2656C768.6075,-349.7903 1148.8557,-501.5777 1273.7107,-551.4173"/>
<polygon fill="#191970" stroke="#191970" points="633.194,-291.9675 622.609,-291.5107 630.5988,-298.4687 633.194,-291.9675"/>
</g>
<!-- Node33 -->
<g id="node33" class="node">
<title>Node33</title>
<g id="a_node33"><a xlink:href="../../d0/dc8/classSoftLeptonTaggingTruth.html#a152a3015fe9e7c089637c981a45787fe" target="_top" xlink:title="SoftLeptonTaggingTruth\l::process_event">
<polygon fill="none" stroke="#000000" points="327.5,-.5 327.5,-32.5 462.5,-32.5 462.5,-.5 327.5,-.5"/>
<text text-anchor="start" x="335.5" y="-19.5" font-family="FreeSans" font-size="10.00" fill="#000000">SoftLeptonTaggingTruth</text>
<text text-anchor="middle" x="395" y="-7.5" font-family="FreeSans" font-size="10.00" fill="#000000">::process_event</text>
</a>
</g>
</g>
<!-- Node32&#45;&gt;Node33 -->
<g id="edge50" class="edge">
<title>Node32&#45;&gt;Node33</title>
<path fill="none" stroke="#191970" d="M279.479,-16.5C295.338,-16.5 311.8967,-16.5 327.3613,-16.5"/>
<polygon fill="#191970" stroke="#191970" points="279.1769,-13.0001 269.1769,-16.5 279.1769,-20.0001 279.1769,-13.0001"/>
</g>
</g>
</svg>
