<?xml version="1.0" encoding="UTF-8" standalone="no"?>
<!DOCTYPE svg PUBLIC "-//W3C//DTD SVG 1.1//EN"
 "http://www.w3.org/Graphics/SVG/1.1/DTD/svg11.dtd">
<!-- Generated by graphviz version 2.40.1 (20161225.0304)
 -->
<!-- Title: JetMap::end Pages: 1 -->
<svg width="1373pt" height="1099pt"
 viewBox="0.00 0.00 1373.00 1099.00" xmlns="http://www.w3.org/2000/svg" xmlns:xlink="http://www.w3.org/1999/xlink">
<g id="graph0" class="graph" transform="scale(1 1) rotate(0) translate(4 1095)">
<title>JetMap::end</title>
<!-- Node1 -->
<g id="node1" class="node">
<title>Node1</title>
<polygon fill="#bfbfbf" stroke="#000000" points="0,-551.5 0,-571.5 77,-571.5 77,-551.5 0,-551.5"/>
<text text-anchor="middle" x="38.5" y="-558.5" font-family="FreeSans" font-size="10.00" fill="#000000">JetMap::end</text>
</g>
<!-- Node2 -->
<g id="node2" class="node">
<title>Node2</title>
<g id="a_node2"><a xlink:href="../../dd/d75/classJetRecoEval.html#aaa6df5bbed40bd8cf789d997c348d12f" target="_top" xlink:title="what reconstructed jets had contributions from this truth jet?">
<polygon fill="none" stroke="#000000" points="496.5,-937.5 496.5,-957.5 643.5,-957.5 643.5,-937.5 496.5,-937.5"/>
<text text-anchor="middle" x="570" y="-944.5" font-family="FreeSans" font-size="10.00" fill="#000000">JetRecoEval::all_jets_from</text>
</a>
</g>
</g>
<!-- Node1&#45;&gt;Node2 -->
<g id="edge1" class="edge">
<title>Node1&#45;&gt;Node2</title>
<path fill="none" stroke="#191970" d="M39.4513,-581.8029C43.1977,-652.0314 59.4585,-882.8473 113,-928.5 237.7783,-1034.8934 458.6099,-982.007 539.3444,-957.5771"/>
<polygon fill="#191970" stroke="#191970" points="42.9374,-581.4375 38.9377,-571.6267 35.9463,-581.7904 42.9374,-581.4375"/>
</g>
<!-- Node4 -->
<g id="node4" class="node">
<title>Node4</title>
<g id="a_node4"><a xlink:href="../../d8/de2/classJetEnergies.html#a065fee78622ed073cafb5cf172d67bef" target="_top" xlink:title="dump the evaluator information into ntuple for external analysis">
<polygon fill="none" stroke="#000000" points="876,-1017.5 876,-1037.5 1043,-1037.5 1043,-1017.5 876,-1017.5"/>
<text text-anchor="middle" x="959.5" y="-1024.5" font-family="FreeSans" font-size="10.00" fill="#000000">JetEnergies::fillOutputNtuples</text>
</a>
</g>
</g>
<!-- Node1&#45;&gt;Node4 -->
<g id="edge19" class="edge">
<title>Node1&#45;&gt;Node4</title>
<path fill="none" stroke="#191970" d="M39.3499,-581.8638C42.8857,-656.6434 58.8745,-914.7492 113,-972.5 197.254,-1062.3972 258.7919,-1039.5 382,-1039.5 382,-1039.5 382,-1039.5 570,-1039.5 675.5396,-1039.5 797.0889,-1035.0439 875.9453,-1031.5627"/>
<polygon fill="#191970" stroke="#191970" points="42.8454,-581.6816 38.9004,-571.8486 35.8524,-581.9955 42.8454,-581.6816"/>
</g>
<!-- Node6 -->
<g id="node6" class="node">
<title>Node6</title>
<g id="a_node6"><a xlink:href="../../db/d4c/classBJetModule.html#a93ec29147c2d7aea52780d7370141e74" target="_top" xlink:title="BJetModule::process\l_event">
<polygon fill="none" stroke="#000000" points="900,-1058.5 900,-1090.5 1019,-1090.5 1019,-1058.5 900,-1058.5"/>
<text text-anchor="start" x="908" y="-1077.5" font-family="FreeSans" font-size="10.00" fill="#000000">BJetModule::process</text>
<text text-anchor="middle" x="959.5" y="-1065.5" font-family="FreeSans" font-size="10.00" fill="#000000">_event</text>
</a>
</g>
</g>
<!-- Node1&#45;&gt;Node6 -->
<g id="edge42" class="edge">
<title>Node1&#45;&gt;Node6</title>
<path fill="none" stroke="#191970" d="M38.866,-582.1748C40.7301,-662.9807 51.6805,-956.1705 113,-1020.5 197.3213,-1108.9603 259.7899,-1077.5 382,-1077.5 382,-1077.5 382,-1077.5 570,-1077.5 686.8197,-1077.5 823.3417,-1076.1339 899.7804,-1075.2454"/>
<polygon fill="#191970" stroke="#191970" points="42.3585,-581.7715 38.652,-571.8461 35.36,-581.9165 42.3585,-581.7715"/>
</g>
<!-- Node7 -->
<g id="node7" class="node">
<title>Node7</title>
<g id="a_node7"><a xlink:href="../../d4/d28/classQAG4SimulationJet.html#a3e5c5fe2e5e5cee7fca6173ef6e6bfa2" target="_top" xlink:title="QAG4SimulationJet::\lprocess_TruthMatching">
<polygon fill="none" stroke="#000000" points="1079,-857.5 1079,-889.5 1211,-889.5 1211,-857.5 1079,-857.5"/>
<text text-anchor="start" x="1087" y="-876.5" font-family="FreeSans" font-size="10.00" fill="#000000">QAG4SimulationJet::</text>
<text text-anchor="middle" x="1145" y="-864.5" font-family="FreeSans" font-size="10.00" fill="#000000">process_TruthMatching</text>
</a>
</g>
</g>
<!-- Node1&#45;&gt;Node7 -->
<g id="edge56" class="edge">
<title>Node1&#45;&gt;Node7</title>
<path fill="none" stroke="#191970" d="M40.7728,-581.7161C47.8047,-640.2081 71.2831,-807.4906 113,-839.5 169.0644,-882.5182 201.4257,-843.1127 272,-839.5 541.5021,-825.7042 606.4979,-791.2958 876,-777.5 950.1252,-773.7055 977.0991,-743.3531 1043,-777.5 1067.6343,-790.2644 1059.2227,-809.0414 1079,-828.5 1090.1708,-839.4908 1104.3393,-849.5466 1116.6825,-857.3513"/>
<polygon fill="#191970" stroke="#191970" points="44.2209,-581.0673 39.5851,-571.5405 37.2681,-581.8789 44.2209,-581.0673"/>
</g>
<!-- Node9 -->
<g id="node9" class="node">
<title>Node9</title>
<g id="a_node9"><a xlink:href="../../d1/df4/classJetEvaluator.html#a0c608411c03ff1de3fca80d64e93ae5d" target="_top" xlink:title="dump the evaluator information into ntuple for external analysis">
<polygon fill="none" stroke="#000000" points="893,-786.5 893,-818.5 1026,-818.5 1026,-786.5 893,-786.5"/>
<text text-anchor="start" x="901" y="-805.5" font-family="FreeSans" font-size="10.00" fill="#000000">JetEvaluator::fillOutput</text>
<text text-anchor="middle" x="959.5" y="-793.5" font-family="FreeSans" font-size="10.00" fill="#000000">Ntuples</text>
</a>
</g>
</g>
<!-- Node1&#45;&gt;Node9 -->
<g id="edge18" class="edge">
<title>Node1&#45;&gt;Node9</title>
<path fill="none" stroke="#191970" d="M54.4474,-579.1664C68.4644,-593.5821 90.1441,-613.3292 113,-624.5 381.834,-755.8926 744.985,-790.5834 892.7803,-799.507"/>
<polygon fill="#191970" stroke="#191970" points="56.8989,-576.6646 47.4897,-571.7945 51.8082,-581.4693 56.8989,-576.6646"/>
</g>
<!-- Node13 -->
<g id="node13" class="node">
<title>Node13</title>
<g id="a_node13"><a xlink:href="../../d7/d97/classJetMap.html#ad23da4cd9051c15528f5cf302608c0c6" target="_top" xlink:title="JetMap::begin_src">
<polygon fill="none" stroke="#000000" points="139.5,-743.5 139.5,-763.5 245.5,-763.5 245.5,-743.5 139.5,-743.5"/>
<text text-anchor="middle" x="192.5" y="-750.5" font-family="FreeSans" font-size="10.00" fill="#000000">JetMap::begin_src</text>
</a>
</g>
</g>
<!-- Node1&#45;&gt;Node13 -->
<g id="edge14" class="edge">
<title>Node1&#45;&gt;Node13</title>
<path fill="none" stroke="#191970" d="M41.2833,-581.8651C47.3715,-618.2653 65.3549,-694.4197 113,-734.5 120.493,-740.8033 129.7222,-745.089 139.2074,-747.9868"/>
<polygon fill="#191970" stroke="#191970" points="44.6756,-580.8948 39.7021,-571.5399 37.7563,-581.9545 44.6756,-580.8948"/>
</g>
<!-- Node14 -->
<g id="node14" class="node">
<title>Node14</title>
<g id="a_node14"><a xlink:href="../../d9/d22/classJetMapv1.html#a0c728b2df0d743020acd6e67d5448f88" target="_top" xlink:title="JetMapv1::JetMapv1">
<polygon fill="none" stroke="#000000" points="323.5,-782.5 323.5,-802.5 440.5,-802.5 440.5,-782.5 323.5,-782.5"/>
<text text-anchor="middle" x="382" y="-789.5" font-family="FreeSans" font-size="10.00" fill="#000000">JetMapv1::JetMapv1</text>
</a>
</g>
</g>
<!-- Node1&#45;&gt;Node14 -->
<g id="edge41" class="edge">
<title>Node1&#45;&gt;Node14</title>
<path fill="none" stroke="#191970" d="M41.4122,-581.8985C49.6787,-636.5896 75.1642,-784.2629 113,-812.5 188.6243,-868.9389 311.856,-824.1398 360.8982,-802.5072"/>
<polygon fill="#191970" stroke="#191970" points="44.8322,-581.0985 39.9114,-571.7158 37.9071,-582.1193 44.8322,-581.0985"/>
</g>
<!-- Node15 -->
<g id="node15" class="node">
<title>Node15</title>
<g id="a_node15"><a xlink:href="../../d7/d97/classJetMap.html#aad0ed91d55735b968194040e23a07c7b" target="_top" xlink:title="JetMap::end_src">
<polygon fill="none" stroke="#000000" points="144,-782.5 144,-802.5 241,-802.5 241,-782.5 144,-782.5"/>
<text text-anchor="middle" x="192.5" y="-789.5" font-family="FreeSans" font-size="10.00" fill="#000000">JetMap::end_src</text>
</a>
</g>
</g>
<!-- Node1&#45;&gt;Node15 -->
<g id="edge16" class="edge">
<title>Node1&#45;&gt;Node15</title>
<path fill="none" stroke="#191970" d="M39.4549,-581.9271C42.581,-624.2925 55.9384,-722.0503 113,-773.5 121.5368,-781.1972 132.6304,-785.9257 143.8081,-788.7935"/>
<polygon fill="#191970" stroke="#191970" points="42.9362,-581.5151 38.8272,-571.7496 35.9495,-581.9461 42.9362,-581.5151"/>
</g>
<!-- Node16 -->
<g id="node16" class="node">
<title>Node16</title>
<g id="a_node16"><a xlink:href="../../d7/d97/classJetMap.html#ae3fdc5700119a6461ee097ff2db87d25" target="_top" xlink:title="JetMap::find_src">
<polygon fill="none" stroke="#000000" points="144,-704.5 144,-724.5 241,-724.5 241,-704.5 144,-704.5"/>
<text text-anchor="middle" x="192.5" y="-711.5" font-family="FreeSans" font-size="10.00" fill="#000000">JetMap::find_src</text>
</a>
</g>
</g>
<!-- Node1&#45;&gt;Node16 -->
<g id="edge20" class="edge">
<title>Node1&#45;&gt;Node16</title>
<path fill="none" stroke="#191970" d="M44.8871,-581.4209C54.9181,-609.5692 77.0211,-660.7497 113,-689.5 121.9294,-696.6353 132.9184,-701.7476 143.8456,-705.4059"/>
<polygon fill="#191970" stroke="#191970" points="48.1665,-580.1933 41.6299,-571.8553 41.5402,-582.4497 48.1665,-580.1933"/>
</g>
<!-- Node17 -->
<g id="node17" class="node">
<title>Node17</title>
<g id="a_node17"><a xlink:href="../../d3/d22/classJetTruthEval.html#a00e601544c4ee135673754854553503d" target="_top" xlink:title="which truth jet in the specified node contains this truth particle?">
<polygon fill="none" stroke="#000000" points="118,-898.5 118,-918.5 267,-918.5 267,-898.5 118,-898.5"/>
<text text-anchor="middle" x="192.5" y="-905.5" font-family="FreeSans" font-size="10.00" fill="#000000">JetTruthEval::get_truth_jet</text>
</a>
</g>
</g>
<!-- Node1&#45;&gt;Node17 -->
<g id="edge21" class="edge">
<title>Node1&#45;&gt;Node17</title>
<path fill="none" stroke="#191970" d="M40.567,-581.7282C47.4363,-645.1595 71.4526,-838.6097 113,-883.5 118.9949,-889.9773 126.6467,-894.7871 134.8254,-898.3565"/>
<polygon fill="#191970" stroke="#191970" points="44.0462,-581.3461 39.515,-571.7691 37.0849,-582.0815 44.0462,-581.3461"/>
</g>
<!-- Node20 -->
<g id="node20" class="node">
<title>Node20</title>
<g id="a_node20"><a xlink:href="../../dc/d65/classPhotonJet.html#a3f9d3ec941f851bc2246ceb0c5362c9f" target="_top" xlink:title="PhotonJet::process\l_event">
<polygon fill="none" stroke="#000000" points="904.5,-560.5 904.5,-592.5 1014.5,-592.5 1014.5,-560.5 904.5,-560.5"/>
<text text-anchor="start" x="912.5" y="-579.5" font-family="FreeSans" font-size="10.00" fill="#000000">PhotonJet::process</text>
<text text-anchor="middle" x="959.5" y="-567.5" font-family="FreeSans" font-size="10.00" fill="#000000">_event</text>
</a>
</g>
</g>
<!-- Node1&#45;&gt;Node20 -->
<g id="edge47" class="edge">
<title>Node1&#45;&gt;Node20</title>
<path fill="none" stroke="#191970" d="M87.3153,-562.283C212.4238,-564.2916 554.7628,-569.7999 840,-574.5 861.0578,-574.847 884.2028,-575.2332 904.4697,-575.573"/>
<polygon fill="#191970" stroke="#191970" points="87.3401,-558.783 77.2851,-562.122 87.2276,-565.7821 87.3401,-558.783"/>
</g>
<!-- Node21 -->
<g id="node21" class="node">
<title>Node21</title>
<g id="a_node21"><a xlink:href="../../dc/d65/classPhotonJet.html#a9b2de7dcbd5e3bbbd26150d418b7bb44" target="_top" xlink:title="PhotonJet::GetRecoHadrons\lAndJets">
<polygon fill="none" stroke="#000000" points="684,-583.5 684,-615.5 840,-615.5 840,-583.5 684,-583.5"/>
<text text-anchor="start" x="692" y="-602.5" font-family="FreeSans" font-size="10.00" fill="#000000">PhotonJet::GetRecoHadrons</text>
<text text-anchor="middle" x="762" y="-590.5" font-family="FreeSans" font-size="10.00" fill="#000000">AndJets</text>
</a>
</g>
</g>
<!-- Node1&#45;&gt;Node21 -->
<g id="edge34" class="edge">
<title>Node1&#45;&gt;Node21</title>
<path fill="none" stroke="#191970" d="M86.9586,-571.685C95.598,-573.1921 104.5396,-574.5539 113,-575.5 318.0556,-598.4295 561.5858,-600.841 683.8002,-600.3518"/>
<polygon fill="#191970" stroke="#191970" points="87.4688,-568.2204 77.0024,-569.8653 86.2102,-575.1063 87.4688,-568.2204"/>
</g>
<!-- Node22 -->
<g id="node22" class="node">
<title>Node22</title>
<g id="a_node22"><a xlink:href="../../d5/d1f/classMyJetAnalysis.html#a309e9a46394353251b673514d6eb28ac" target="_top" xlink:title="MyJetAnalysis::process\l_event">
<polygon fill="none" stroke="#000000" points="696.5,-634.5 696.5,-666.5 827.5,-666.5 827.5,-634.5 696.5,-634.5"/>
<text text-anchor="start" x="704.5" y="-653.5" font-family="FreeSans" font-size="10.00" fill="#000000">MyJetAnalysis::process</text>
<text text-anchor="middle" x="762" y="-641.5" font-family="FreeSans" font-size="10.00" fill="#000000">_event</text>
</a>
</g>
</g>
<!-- Node1&#45;&gt;Node22 -->
<g id="edge49" class="edge">
<title>Node1&#45;&gt;Node22</title>
<path fill="none" stroke="#191970" d="M64.8981,-576.2433C78.7874,-583.2959 96.3506,-591.136 113,-595.5 320.8268,-649.9735 577.6573,-653.8842 696.2719,-652.28"/>
<polygon fill="#191970" stroke="#191970" points="66.4075,-573.0829 55.9258,-571.539 63.157,-579.2824 66.4075,-573.0829"/>
</g>
<!-- Node23 -->
<g id="node23" class="node">
<title>Node23</title>
<g id="a_node23"><a xlink:href="../../dc/d65/classPhotonJet.html#a2c1adc79085fbbe9d27254d016321804" target="_top" xlink:title="PhotonJet::GetRecoHadrons\lAndJetsAA">
<polygon fill="none" stroke="#000000" points="492,-500.5 492,-532.5 648,-532.5 648,-500.5 492,-500.5"/>
<text text-anchor="start" x="500" y="-519.5" font-family="FreeSans" font-size="10.00" fill="#000000">PhotonJet::GetRecoHadrons</text>
<text text-anchor="middle" x="570" y="-507.5" font-family="FreeSans" font-size="10.00" fill="#000000">AndJetsAA</text>
</a>
</g>
</g>
<!-- Node1&#45;&gt;Node23 -->
<g id="edge35" class="edge">
<title>Node1&#45;&gt;Node23</title>
<path fill="none" stroke="#191970" d="M86.9847,-551.5329C95.6212,-550.0022 104.5551,-548.5761 113,-547.5 245.3292,-530.638 400.4629,-522.5636 491.6948,-519.0004"/>
<polygon fill="#191970" stroke="#191970" points="86.2321,-548.1125 77.0297,-553.3629 87.4978,-554.9971 86.2321,-548.1125"/>
</g>
<!-- Node24 -->
<g id="node24" class="node">
<title>Node24</title>
<g id="a_node24"><a xlink:href="../../d7/dce/classTreeMaker.html#a52a597a7a6509616228576eac6383301" target="_top" xlink:title="TreeMaker::GetRecoJets">
<polygon fill="none" stroke="#000000" points="124.5,-435.5 124.5,-455.5 260.5,-455.5 260.5,-435.5 124.5,-435.5"/>
<text text-anchor="middle" x="192.5" y="-442.5" font-family="FreeSans" font-size="10.00" fill="#000000">TreeMaker::GetRecoJets</text>
</a>
</g>
</g>
<!-- Node1&#45;&gt;Node24 -->
<g id="edge37" class="edge">
<title>Node1&#45;&gt;Node24</title>
<path fill="none" stroke="#191970" d="M48.2879,-542.2306C60.4521,-520.2681 83.2862,-484.9101 113,-465.5 119.3151,-461.3748 126.4228,-458.1004 133.7244,-455.5014"/>
<polygon fill="#191970" stroke="#191970" points="45.0826,-540.8031 43.4634,-551.2735 51.2586,-544.0981 45.0826,-540.8031"/>
</g>
<!-- Node26 -->
<g id="node26" class="node">
<title>Node26</title>
<g id="a_node26"><a xlink:href="../../d7/dce/classTreeMaker.html#a256b6f8b0e6f110256c630b0bad83efb" target="_top" xlink:title="TreeMaker::GetTruthJets">
<polygon fill="none" stroke="#000000" points="124,-474.5 124,-494.5 261,-494.5 261,-474.5 124,-474.5"/>
<text text-anchor="middle" x="192.5" y="-481.5" font-family="FreeSans" font-size="10.00" fill="#000000">TreeMaker::GetTruthJets</text>
</a>
</g>
</g>
<!-- Node1&#45;&gt;Node26 -->
<g id="edge39" class="edge">
<title>Node1&#45;&gt;Node26</title>
<path fill="none" stroke="#191970" d="M58.5925,-544.9362C73.0161,-533.6999 93.3079,-519.1836 113,-509.5 125.3344,-503.4346 139.4623,-498.4281 152.3541,-494.5299"/>
<polygon fill="#191970" stroke="#191970" points="56.0716,-542.4694 50.4279,-551.436 60.4314,-547.9459 56.0716,-542.4694"/>
</g>
<!-- Node27 -->
<g id="node27" class="node">
<title>Node27</title>
<g id="a_node27"><a xlink:href="../../dc/d64/classHFJetTruthTrigger.html#a285f04a4990696900275fab25aa86106" target="_top" xlink:title="HFJetTruthTrigger::\lprocess_event">
<polygon fill="none" stroke="#000000" points="138,-384.5 138,-416.5 247,-416.5 247,-384.5 138,-384.5"/>
<text text-anchor="start" x="146" y="-403.5" font-family="FreeSans" font-size="10.00" fill="#000000">HFJetTruthTrigger::</text>
<text text-anchor="middle" x="192.5" y="-391.5" font-family="FreeSans" font-size="10.00" fill="#000000">process_event</text>
</a>
</g>
</g>
<!-- Node1&#45;&gt;Node27 -->
<g id="edge43" class="edge">
<title>Node1&#45;&gt;Node27</title>
<path fill="none" stroke="#191970" d="M44.342,-541.4287C53.912,-512.0195 75.6939,-457.3721 113,-426.5 120.2719,-420.4823 128.9763,-415.8442 137.9169,-412.2732"/>
<polygon fill="#191970" stroke="#191970" points="40.8807,-540.7743 41.2651,-551.3621 47.5673,-542.8455 40.8807,-540.7743"/>
</g>
<!-- Node28 -->
<g id="node28" class="node">
<title>Node28</title>
<g id="a_node28"><a xlink:href="../../d6/d02/classDetermineTowerBackground.html#a1e2d3c456b619165aec9114ae37ee6bf" target="_top" xlink:title="DetermineTowerBackground\l::process_event">
<polygon fill="none" stroke="#000000" points="113,-333.5 113,-365.5 272,-365.5 272,-333.5 113,-333.5"/>
<text text-anchor="start" x="121" y="-352.5" font-family="FreeSans" font-size="10.00" fill="#000000">DetermineTowerBackground</text>
<text text-anchor="middle" x="192.5" y="-340.5" font-family="FreeSans" font-size="10.00" fill="#000000">::process_event</text>
</a>
</g>
</g>
<!-- Node1&#45;&gt;Node28 -->
<g id="edge44" class="edge">
<title>Node1&#45;&gt;Node28</title>
<path fill="none" stroke="#191970" d="M40.9919,-541.0748C46.7041,-503.0664 64.2346,-421.1994 113,-375.5 117.1324,-371.6274 121.8508,-368.3313 126.8807,-365.526"/>
<polygon fill="#191970" stroke="#191970" points="37.4707,-540.9906 39.5771,-551.3739 44.4055,-541.9433 37.4707,-540.9906"/>
</g>
<!-- Node29 -->
<g id="node29" class="node">
<title>Node29</title>
<g id="a_node29"><a xlink:href="../../d9/de3/classTruthPhotonJet.html#ae476c9aba33cf8d9161947519d293f5c" target="_top" xlink:title="TruthPhotonJet::process\l_event">
<polygon fill="none" stroke="#000000" points="124,-282.5 124,-314.5 261,-314.5 261,-282.5 124,-282.5"/>
<text text-anchor="start" x="132" y="-301.5" font-family="FreeSans" font-size="10.00" fill="#000000">TruthPhotonJet::process</text>
<text text-anchor="middle" x="192.5" y="-289.5" font-family="FreeSans" font-size="10.00" fill="#000000">_event</text>
</a>
</g>
</g>
<!-- Node1&#45;&gt;Node29 -->
<g id="edge45" class="edge">
<title>Node1&#45;&gt;Node29</title>
<path fill="none" stroke="#191970" d="M42.3575,-541.4445C52.5902,-490.1639 81.7846,-356.0769 113,-324.5 116.7773,-320.6789 121.1234,-317.4193 125.7951,-314.6386"/>
<polygon fill="#191970" stroke="#191970" points="38.9105,-540.8349 40.418,-551.3219 45.7793,-542.1837 38.9105,-540.8349"/>
</g>
<!-- Node30 -->
<g id="node30" class="node">
<title>Node30</title>
<g id="a_node30"><a xlink:href="../../d4/dc9/classPHG4DSTReader.html#aa32c5027cd9c3e4d667a0e84d7243412" target="_top" xlink:title="event processing method">
<polygon fill="none" stroke="#000000" points="119.5,-231.5 119.5,-263.5 265.5,-263.5 265.5,-231.5 119.5,-231.5"/>
<text text-anchor="start" x="127.5" y="-250.5" font-family="FreeSans" font-size="10.00" fill="#000000">PHG4DSTReader::process</text>
<text text-anchor="middle" x="192.5" y="-238.5" font-family="FreeSans" font-size="10.00" fill="#000000">_event</text>
</a>
</g>
</g>
<!-- Node1&#45;&gt;Node30 -->
<g id="edge46" class="edge">
<title>Node1&#45;&gt;Node30</title>
<path fill="none" stroke="#191970" d="M41.2012,-541.1698C49.4106,-482.2587 75.7978,-313.121 113,-273.5 116.5784,-269.6889 120.7225,-266.4356 125.2025,-263.6584"/>
<polygon fill="#191970" stroke="#191970" points="37.688,-541.0299 39.8039,-551.4113 44.6237,-541.9763 37.688,-541.0299"/>
</g>
<!-- Node31 -->
<g id="node31" class="node">
<title>Node31</title>
<g id="a_node31"><a xlink:href="../../d6/d40/classLeptoquarksReco.html#aa5b8ff9665c7a78246bd4f1194d66d1b" target="_top" xlink:title="LeptoquarksReco::process\l_event">
<polygon fill="none" stroke="#000000" points="118,-180.5 118,-212.5 267,-212.5 267,-180.5 118,-180.5"/>
<text text-anchor="start" x="126" y="-199.5" font-family="FreeSans" font-size="10.00" fill="#000000">LeptoquarksReco::process</text>
<text text-anchor="middle" x="192.5" y="-187.5" font-family="FreeSans" font-size="10.00" fill="#000000">_event</text>
</a>
</g>
</g>
<!-- Node1&#45;&gt;Node31 -->
<g id="edge48" class="edge">
<title>Node1&#45;&gt;Node31</title>
<path fill="none" stroke="#191970" d="M40.3517,-541.112C46.714,-475.3503 69.709,-270.3401 113,-222.5 116.5077,-218.6237 120.6009,-215.3235 125.0458,-212.514"/>
<polygon fill="#191970" stroke="#191970" points="36.8372,-541.1032 39.3848,-551.3871 43.8064,-541.7591 36.8372,-541.1032"/>
</g>
<!-- Node32 -->
<g id="node32" class="node">
<title>Node32</title>
<g id="a_node32"><a xlink:href="../../d1/d04/classBDiJetModule.html#a8f01ada101f7e91cf05e12bbf420d192" target="_top" xlink:title="BDiJetModule::process\l_event">
<polygon fill="none" stroke="#000000" points="128,-129.5 128,-161.5 257,-161.5 257,-129.5 128,-129.5"/>
<text text-anchor="start" x="136" y="-148.5" font-family="FreeSans" font-size="10.00" fill="#000000">BDiJetModule::process</text>
<text text-anchor="middle" x="192.5" y="-136.5" font-family="FreeSans" font-size="10.00" fill="#000000">_event</text>
</a>
</g>
</g>
<!-- Node1&#45;&gt;Node32 -->
<g id="edge50" class="edge">
<title>Node1&#45;&gt;Node32</title>
<path fill="none" stroke="#191970" d="M39.6959,-541.3816C44.3488,-469.6549 63.5014,-227.7394 113,-171.5 117.2214,-166.7037 122.3402,-162.7881 127.9233,-159.592"/>
<polygon fill="#191970" stroke="#191970" points="36.2018,-541.1787 39.0711,-551.3776 43.1882,-541.6154 36.2018,-541.1787"/>
</g>
<!-- Node33 -->
<g id="node33" class="node">
<title>Node33</title>
<g id="a_node33"><a xlink:href="../../d4/df6/classDumpJetMap.html#a0318eb1fd99502149f6b94697419c4da" target="_top" xlink:title="DumpJetMap::process_Node">
<polygon fill="none" stroke="#000000" points="113.5,-90.5 113.5,-110.5 271.5,-110.5 271.5,-90.5 113.5,-90.5"/>
<text text-anchor="middle" x="192.5" y="-97.5" font-family="FreeSans" font-size="10.00" fill="#000000">DumpJetMap::process_Node</text>
</a>
</g>
</g>
<!-- Node1&#45;&gt;Node33 -->
<g id="edge51" class="edge">
<title>Node1&#45;&gt;Node33</title>
<path fill="none" stroke="#191970" d="M39.0778,-541.1879C41.7157,-463.0575 55.1202,-183.1494 113,-120.5 116.67,-116.5276 121.0021,-113.2938 125.719,-110.6669"/>
<polygon fill="#191970" stroke="#191970" points="35.5791,-541.0962 38.7627,-551.2014 42.5756,-541.3165 35.5791,-541.0962"/>
</g>
<!-- Node34 -->
<g id="node34" class="node">
<title>Node34</title>
<g id="a_node34"><a xlink:href="../../d4/d28/classQAG4SimulationJet.html#ac2803dd2fafe7d6131f3311c9f1e4e27" target="_top" xlink:title="QAG4SimulationJet::\lprocess_Spectrum">
<polygon fill="none" stroke="#000000" points="511,-247.5 511,-279.5 629,-279.5 629,-247.5 511,-247.5"/>
<text text-anchor="start" x="519" y="-266.5" font-family="FreeSans" font-size="10.00" fill="#000000">QAG4SimulationJet::</text>
<text text-anchor="middle" x="570" y="-254.5" font-family="FreeSans" font-size="10.00" fill="#000000">process_Spectrum</text>
</a>
</g>
</g>
<!-- Node1&#45;&gt;Node34 -->
<g id="edge52" class="edge">
<title>Node1&#45;&gt;Node34</title>
<path fill="none" stroke="#191970" d="M40.1126,-541.097C47.2501,-453.3526 77.2313,-111.1552 113,-80.5 256.414,42.4113 492.7961,-183.273 554.7511,-247.281"/>
<polygon fill="#191970" stroke="#191970" points="36.603,-541.0774 39.291,-551.3256 43.5806,-541.638 36.603,-541.0774"/>
</g>
<!-- Node35 -->
<g id="node35" class="node">
<title>Node35</title>
<g id="a_node35"><a xlink:href="../../d0/dc8/classSoftLeptonTaggingTruth.html#a3989ff17a01ba304478d558b99c3214f" target="_top" xlink:title="SoftLeptonTaggingTruth\l::process_Spectrum">
<polygon fill="none" stroke="#000000" points="125,-.5 125,-32.5 260,-32.5 260,-.5 125,-.5"/>
<text text-anchor="start" x="133" y="-19.5" font-family="FreeSans" font-size="10.00" fill="#000000">SoftLeptonTaggingTruth</text>
<text text-anchor="middle" x="192.5" y="-7.5" font-family="FreeSans" font-size="10.00" fill="#000000">::process_Spectrum</text>
</a>
</g>
</g>
<!-- Node1&#45;&gt;Node35 -->
<g id="edge54" class="edge">
<title>Node1&#45;&gt;Node35</title>
<path fill="none" stroke="#191970" d="M38.792,-541.1827C40.4089,-455.6878 50.653,-125.959 113,-47.5 117.7926,-41.4689 123.9183,-36.6089 130.6379,-32.6931"/>
<polygon fill="#191970" stroke="#191970" points="35.2893,-541.3181 38.6195,-551.3759 42.2883,-541.4366 35.2893,-541.3181"/>
</g>
<!-- Node3 -->
<g id="node3" class="node">
<title>Node3</title>
<g id="a_node3"><a xlink:href="../../dd/d75/classJetRecoEval.html#a631b92837e600fbdb6b966a556fc9077" target="_top" xlink:title="which reconstructed jet had the largest energy contribution from this truth jet?">
<polygon fill="none" stroke="#000000" points="686.5,-952.5 686.5,-972.5 837.5,-972.5 837.5,-952.5 686.5,-952.5"/>
<text text-anchor="middle" x="762" y="-959.5" font-family="FreeSans" font-size="10.00" fill="#000000">JetRecoEval::best_jet_from</text>
</a>
</g>
</g>
<!-- Node2&#45;&gt;Node3 -->
<g id="edge2" class="edge">
<title>Node2&#45;&gt;Node3</title>
<path fill="none" stroke="#191970" d="M653.9246,-954.0566C664.6912,-954.8978 675.6637,-955.755 686.2888,-956.5851"/>
<polygon fill="#191970" stroke="#191970" points="653.9254,-950.5461 643.6831,-953.2565 653.3801,-957.5248 653.9254,-950.5461"/>
</g>
<!-- Node3&#45;&gt;Node4 -->
<g id="edge3" class="edge">
<title>Node3&#45;&gt;Node4</title>
<path fill="none" stroke="#191970" d="M805.3263,-975.6682C816.6745,-979.313 828.852,-983.3993 840,-987.5 856.2677,-993.4839 859.6755,-996.673 876,-1002.5 891.2493,-1007.9432 908.3384,-1013.2036 923.0653,-1017.4832"/>
<polygon fill="#191970" stroke="#191970" points="806.2041,-972.2749 795.6139,-972.5897 804.0889,-978.9477 806.2041,-972.2749"/>
</g>
<!-- Node3&#45;&gt;Node6 -->
<g id="edge5" class="edge">
<title>Node3&#45;&gt;Node6</title>
<path fill="none" stroke="#191970" d="M780.5304,-979.3679C802.083,-998.2281 839.4009,-1028.5987 876,-1047.5 883.9868,-1051.6247 892.7273,-1055.2823 901.45,-1058.469"/>
<polygon fill="#191970" stroke="#191970" points="782.6205,-976.5432 772.8195,-972.5195 777.9721,-981.777 782.6205,-976.5432"/>
</g>
<!-- Node3&#45;&gt;Node7 -->
<g id="edge6" class="edge">
<title>Node3&#45;&gt;Node7</title>
<path fill="none" stroke="#191970" d="M809.9191,-974.7356C867.4986,-986.9911 965.9717,-1000.0477 1043,-969.5 1083.6894,-953.3635 1117.5866,-912.458 1134.1269,-889.5926"/>
<polygon fill="#191970" stroke="#191970" points="810.5229,-971.2847 800.0034,-972.5464 809.0137,-978.1201 810.5229,-971.2847"/>
</g>
<!-- Node3&#45;&gt;Node9 -->
<g id="edge8" class="edge">
<title>Node3&#45;&gt;Node9</title>
<path fill="none" stroke="#191970" d="M781.7269,-945.7213C804.3262,-926.5792 842.5537,-894.4416 876,-867.5 897.0309,-850.5592 921.4414,-831.6416 938.4157,-818.6032"/>
<polygon fill="#191970" stroke="#191970" points="779.235,-943.2455 773.8733,-952.3835 783.7632,-948.5836 779.235,-943.2455"/>
</g>
<!-- Node11 -->
<g id="node11" class="node">
<title>Node11</title>
<g id="a_node11"><a xlink:href="../../dd/d75/classJetRecoEval.html#a9775ea4a0c6e28f22da7997f4886f195" target="_top" xlink:title="JetRecoEval::unique\l_reco_jet_from_truth">
<polygon fill="none" stroke="#000000" points="899.5,-876.5 899.5,-908.5 1019.5,-908.5 1019.5,-876.5 899.5,-876.5"/>
<text text-anchor="start" x="907.5" y="-895.5" font-family="FreeSans" font-size="10.00" fill="#000000">JetRecoEval::unique</text>
<text text-anchor="middle" x="959.5" y="-883.5" font-family="FreeSans" font-size="10.00" fill="#000000">_reco_jet_from_truth</text>
</a>
</g>
</g>
<!-- Node3&#45;&gt;Node11 -->
<g id="edge10" class="edge">
<title>Node3&#45;&gt;Node11</title>
<path fill="none" stroke="#191970" d="M796.1921,-948.6193C818.7212,-939.6431 848.9493,-927.9201 876,-918.5 885.6068,-915.1545 895.9045,-911.7793 905.8734,-908.619"/>
<polygon fill="#191970" stroke="#191970" points="794.7138,-945.441 786.7314,-952.4075 797.3159,-951.9395 794.7138,-945.441"/>
</g>
<!-- Node12 -->
<g id="node12" class="node">
<title>Node12</title>
<g id="a_node12"><a xlink:href="../../dd/d75/classJetRecoEval.html#ac6030b2b14c885e19e35f86ec828d8d8" target="_top" xlink:title="JetRecoEval::unique\l_truth_jet_from_reco">
<polygon fill="none" stroke="#000000" points="899.5,-927.5 899.5,-959.5 1019.5,-959.5 1019.5,-927.5 899.5,-927.5"/>
<text text-anchor="start" x="907.5" y="-946.5" font-family="FreeSans" font-size="10.00" fill="#000000">JetRecoEval::unique</text>
<text text-anchor="middle" x="959.5" y="-934.5" font-family="FreeSans" font-size="10.00" fill="#000000">_truth_jet_from_reco</text>
</a>
</g>
</g>
<!-- Node3&#45;&gt;Node12 -->
<g id="edge12" class="edge">
<title>Node3&#45;&gt;Node12</title>
<path fill="none" stroke="#191970" d="M847.6853,-954.2569C865.1011,-952.5814 883.0688,-950.8529 899.3698,-949.2847"/>
<polygon fill="#191970" stroke="#191970" points="847.1305,-950.794 837.5117,-955.2356 847.8009,-957.7618 847.1305,-950.794"/>
</g>
<!-- Node5 -->
<g id="node5" class="node">
<title>Node5</title>
<g id="a_node5"><a xlink:href="../../d8/de2/classJetEnergies.html#a6acaa9b2ba1fe7353781d2f5d476e8d1" target="_top" xlink:title="JetEnergies::process\l_event">
<polygon fill="none" stroke="#000000" points="1085,-1011.5 1085,-1043.5 1205,-1043.5 1205,-1011.5 1085,-1011.5"/>
<text text-anchor="start" x="1093" y="-1030.5" font-family="FreeSans" font-size="10.00" fill="#000000">JetEnergies::process</text>
<text text-anchor="middle" x="1145" y="-1018.5" font-family="FreeSans" font-size="10.00" fill="#000000">_event</text>
</a>
</g>
</g>
<!-- Node4&#45;&gt;Node5 -->
<g id="edge4" class="edge">
<title>Node4&#45;&gt;Node5</title>
<path fill="none" stroke="#191970" d="M1053.3276,-1027.5C1064.087,-1027.5 1074.8271,-1027.5 1084.9686,-1027.5"/>
<polygon fill="#191970" stroke="#191970" points="1053.0248,-1024.0001 1043.0248,-1027.5 1053.0248,-1031.0001 1053.0248,-1024.0001"/>
</g>
<!-- Node8 -->
<g id="node8" class="node">
<title>Node8</title>
<g id="a_node8"><a xlink:href="../../d4/d28/classQAG4SimulationJet.html#a98c3c0fb4d213ada3475e8fb9895bc29" target="_top" xlink:title="QAG4SimulationJet::\lprocess_event">
<polygon fill="none" stroke="#000000" points="1247,-663.5 1247,-695.5 1365,-695.5 1365,-663.5 1247,-663.5"/>
<text text-anchor="start" x="1255" y="-682.5" font-family="FreeSans" font-size="10.00" fill="#000000">QAG4SimulationJet::</text>
<text text-anchor="middle" x="1306" y="-670.5" font-family="FreeSans" font-size="10.00" fill="#000000">process_event</text>
</a>
</g>
</g>
<!-- Node7&#45;&gt;Node8 -->
<g id="edge7" class="edge">
<title>Node7&#45;&gt;Node8</title>
<path fill="none" stroke="#191970" d="M1182.4609,-851.7966C1192.3769,-845.065 1202.6372,-837.1246 1211,-828.5 1251.5767,-786.6529 1284.2524,-724.8471 1298.4038,-695.7599"/>
<polygon fill="#191970" stroke="#191970" points="1180.354,-848.9922 1173.8918,-857.388 1184.1793,-854.8546 1180.354,-848.9922"/>
</g>
<!-- Node10 -->
<g id="node10" class="node">
<title>Node10</title>
<g id="a_node10"><a xlink:href="../../d1/df4/classJetEvaluator.html#ad83508ae828d1f2e4a83a948465a0cd2" target="_top" xlink:title="JetEvaluator::process\l_event">
<polygon fill="none" stroke="#000000" points="1083,-786.5 1083,-818.5 1207,-818.5 1207,-786.5 1083,-786.5"/>
<text text-anchor="start" x="1091" y="-805.5" font-family="FreeSans" font-size="10.00" fill="#000000">JetEvaluator::process</text>
<text text-anchor="middle" x="1145" y="-793.5" font-family="FreeSans" font-size="10.00" fill="#000000">_event</text>
</a>
</g>
</g>
<!-- Node9&#45;&gt;Node10 -->
<g id="edge9" class="edge">
<title>Node9&#45;&gt;Node10</title>
<path fill="none" stroke="#191970" d="M1036.3008,-802.5C1051.8233,-802.5 1067.9604,-802.5 1082.9017,-802.5"/>
<polygon fill="#191970" stroke="#191970" points="1036.2077,-799.0001 1026.2077,-802.5 1036.2076,-806.0001 1036.2077,-799.0001"/>
</g>
<!-- Node11&#45;&gt;Node7 -->
<g id="edge11" class="edge">
<title>Node11&#45;&gt;Node7</title>
<path fill="none" stroke="#191970" d="M1030.1133,-885.2674C1046.158,-883.624 1063.1414,-881.8844 1078.9865,-880.2615"/>
<polygon fill="#191970" stroke="#191970" points="1029.3178,-881.8304 1019.7265,-886.3312 1030.0311,-888.794 1029.3178,-881.8304"/>
</g>
<!-- Node12&#45;&gt;Node7 -->
<g id="edge13" class="edge">
<title>Node12&#45;&gt;Node7</title>
<path fill="none" stroke="#191970" d="M1026.0931,-924.3809C1031.8415,-922.4833 1037.5426,-920.5119 1043,-918.5 1066.2452,-909.9304 1091.7452,-898.6804 1111.4339,-889.5728"/>
<polygon fill="#191970" stroke="#191970" points="1024.8548,-921.1026 1016.4088,-927.499 1027.0002,-927.7657 1024.8548,-921.1026"/>
</g>
<!-- Node13&#45;&gt;Node14 -->
<g id="edge15" class="edge">
<title>Node13&#45;&gt;Node14</title>
<path fill="none" stroke="#191970" d="M251.1728,-765.5751C277.5453,-771.0027 308.3014,-777.3325 333.3644,-782.4906"/>
<polygon fill="#191970" stroke="#191970" points="251.8012,-762.1312 241.301,-763.5435 250.3901,-768.9875 251.8012,-762.1312"/>
</g>
<!-- Node15&#45;&gt;Node14 -->
<g id="edge17" class="edge">
<title>Node15&#45;&gt;Node14</title>
<path fill="none" stroke="#191970" d="M251.5379,-792.5C274.3652,-792.5 300.4321,-792.5 323.2336,-792.5"/>
<polygon fill="#191970" stroke="#191970" points="251.301,-789.0001 241.301,-792.5 251.3009,-796.0001 251.301,-789.0001"/>
</g>
<!-- Node18 -->
<g id="node18" class="node">
<title>Node18</title>
<g id="a_node18"><a xlink:href="../../dd/d75/classJetRecoEval.html#a277ecc26833b4e3e16f96018aa921702" target="_top" xlink:title="what truth jets contributed to this reconstructed jet?">
<polygon fill="none" stroke="#000000" points="308,-898.5 308,-918.5 456,-918.5 456,-898.5 308,-898.5"/>
<text text-anchor="middle" x="382" y="-905.5" font-family="FreeSans" font-size="10.00" fill="#000000">JetRecoEval::all_truth_jets</text>
</a>
</g>
</g>
<!-- Node17&#45;&gt;Node18 -->
<g id="edge22" class="edge">
<title>Node17&#45;&gt;Node18</title>
<path fill="none" stroke="#191970" d="M277.2314,-908.5C287.409,-908.5 297.7425,-908.5 307.7552,-908.5"/>
<polygon fill="#191970" stroke="#191970" points="277.1234,-905.0001 267.1234,-908.5 277.1234,-912.0001 277.1234,-905.0001"/>
</g>
<!-- Node18&#45;&gt;Node2 -->
<g id="edge33" class="edge">
<title>Node18&#45;&gt;Node2</title>
<path fill="none" stroke="#191970" d="M440.2084,-920.5751C466.3721,-926.0027 496.8848,-932.3325 521.7494,-937.4906"/>
<polygon fill="#191970" stroke="#191970" points="440.9172,-917.1477 430.4147,-918.5435 439.4953,-924.0018 440.9172,-917.1477"/>
</g>
<!-- Node19 -->
<g id="node19" class="node">
<title>Node19</title>
<g id="a_node19"><a xlink:href="../../dd/d75/classJetRecoEval.html#af4bff244a32d216f097c7fab76c9b95a" target="_top" xlink:title="which truth jet contributed the most energy to this reconstructed jet?">
<polygon fill="none" stroke="#000000" points="503,-831.5 503,-863.5 637,-863.5 637,-831.5 503,-831.5"/>
<text text-anchor="start" x="511" y="-850.5" font-family="FreeSans" font-size="10.00" fill="#000000">JetRecoEval::max_truth</text>
<text text-anchor="middle" x="570" y="-838.5" font-family="FreeSans" font-size="10.00" fill="#000000">_jet_by_energy</text>
</a>
</g>
</g>
<!-- Node18&#45;&gt;Node19 -->
<g id="edge23" class="edge">
<title>Node18&#45;&gt;Node19</title>
<path fill="none" stroke="#191970" d="M422.7551,-895.2763C451.4574,-885.9633 490.0421,-873.4438 520.513,-863.5569"/>
<polygon fill="#191970" stroke="#191970" points="421.476,-892.0116 413.0444,-898.4271 423.6364,-898.6699 421.476,-892.0116"/>
</g>
<!-- Node19&#45;&gt;Node4 -->
<g id="edge24" class="edge">
<title>Node19&#45;&gt;Node4</title>
<path fill="none" stroke="#191970" d="M594.7624,-870.9431C610.7201,-886.5841 631.4935,-907.9734 648,-928.5 666.0758,-950.9781 659.7525,-966.8776 684,-982.5 715.0133,-1002.4816 806.582,-1014.6125 875.7089,-1021.1633"/>
<polygon fill="#191970" stroke="#191970" points="596.9693,-868.2076 587.3553,-863.7555 592.0946,-873.2313 596.9693,-868.2076"/>
</g>
<!-- Node19&#45;&gt;Node7 -->
<g id="edge28" class="edge">
<title>Node19&#45;&gt;Node7</title>
<path fill="none" stroke="#191970" d="M647.6245,-850.3892C741.3468,-853.9684 903.7477,-860.4608 1043,-867.5 1054.6042,-868.0866 1066.9476,-868.7658 1078.8924,-869.4518"/>
<polygon fill="#191970" stroke="#191970" points="647.5046,-846.8822 637.3787,-849.9991 647.2382,-853.8771 647.5046,-846.8822"/>
</g>
<!-- Node19&#45;&gt;Node9 -->
<g id="edge29" class="edge">
<title>Node19&#45;&gt;Node9</title>
<path fill="none" stroke="#191970" d="M647.3974,-837.8877C659.6413,-836.3981 672.1642,-834.8926 684,-833.5 755.3444,-825.1055 837.1421,-815.9623 892.9545,-809.7966"/>
<polygon fill="#191970" stroke="#191970" points="646.7015,-834.4466 637.1992,-839.1325 647.5496,-841.395 646.7015,-834.4466"/>
</g>
<!-- Node19&#45;&gt;Node11 -->
<g id="edge30" class="edge">
<title>Node19&#45;&gt;Node11</title>
<path fill="none" stroke="#191970" d="M647.3974,-857.1123C659.6413,-858.6019 672.1642,-860.1074 684,-861.5 758.093,-870.2179 843.4602,-879.7433 899.2874,-885.9025"/>
<polygon fill="#191970" stroke="#191970" points="647.5496,-853.605 637.1992,-855.8675 646.7015,-860.5534 647.5496,-853.605"/>
</g>
<!-- Node19&#45;&gt;Node12 -->
<g id="edge31" class="edge">
<title>Node19&#45;&gt;Node12</title>
<path fill="none" stroke="#191970" d="M626.969,-866.615C645.0971,-872.3943 665.2988,-878.5219 684,-883.5 757.5574,-903.0803 843.4029,-921.0113 899.4685,-932.0722"/>
<polygon fill="#191970" stroke="#191970" points="628.0079,-863.2726 617.4165,-863.5414 625.8638,-869.9362 628.0079,-863.2726"/>
</g>
<!-- Node19&#45;&gt;Node20 -->
<g id="edge25" class="edge">
<title>Node19&#45;&gt;Node20</title>
<path fill="none" stroke="#191970" d="M606.6945,-826.3622C659.5896,-795.4273 759.7264,-735.1124 840,-676.5 877.7973,-648.902 919.0825,-612.9364 941.8802,-592.516"/>
<polygon fill="#191970" stroke="#191970" points="604.878,-823.3698 598.0017,-831.43 608.4036,-829.4171 604.878,-823.3698"/>
</g>
<!-- Node19&#45;&gt;Node21 -->
<g id="edge26" class="edge">
<title>Node19&#45;&gt;Node21</title>
<path fill="none" stroke="#191970" d="M576.3296,-821.6643C588.9252,-775.6132 621.4609,-679.1534 684,-625.5 688.4418,-621.6893 693.4615,-618.4323 698.7601,-615.6495"/>
<polygon fill="#191970" stroke="#191970" points="572.911,-820.9021 573.7444,-831.4641 579.6795,-822.6876 572.911,-820.9021"/>
</g>
<!-- Node19&#45;&gt;Node22 -->
<g id="edge32" class="edge">
<title>Node19&#45;&gt;Node22</title>
<path fill="none" stroke="#191970" d="M590.1024,-823.2452C612.267,-796.9113 649.3853,-753.9985 684,-719.5 703.0806,-700.4834 726.3735,-680.2289 742.5116,-666.6195"/>
<polygon fill="#191970" stroke="#191970" points="587.1929,-821.2679 583.4536,-831.181 592.5586,-825.7634 587.1929,-821.2679"/>
</g>
<!-- Node21&#45;&gt;Node20 -->
<g id="edge27" class="edge">
<title>Node21&#45;&gt;Node20</title>
<path fill="none" stroke="#191970" d="M850.1985,-589.2288C868.5736,-587.0889 887.4417,-584.8916 904.2185,-582.9378"/>
<polygon fill="#191970" stroke="#191970" points="849.5852,-585.7765 840.0572,-590.4098 850.395,-592.7295 849.5852,-585.7765"/>
</g>
<!-- Node23&#45;&gt;Node20 -->
<g id="edge36" class="edge">
<title>Node23&#45;&gt;Node20</title>
<path fill="none" stroke="#191970" d="M658.3287,-519.803C711.3707,-522.9114 779.9862,-528.9188 840,-540.5 864.8917,-545.3035 891.9917,-553.2359 914.0822,-560.4338"/>
<polygon fill="#191970" stroke="#191970" points="658.4545,-516.3047 648.2737,-519.2375 658.0613,-523.2936 658.4545,-516.3047"/>
</g>
<!-- Node25 -->
<g id="node25" class="node">
<title>Node25</title>
<g id="a_node25"><a xlink:href="../../d7/dce/classTreeMaker.html#a89a6f3a23de784d5f8d86ae91956aa69" target="_top" xlink:title="TreeMaker::process\l_event">
<polygon fill="none" stroke="#000000" points="325,-445.5 325,-477.5 439,-477.5 439,-445.5 325,-445.5"/>
<text text-anchor="start" x="333" y="-464.5" font-family="FreeSans" font-size="10.00" fill="#000000">TreeMaker::process</text>
<text text-anchor="middle" x="382" y="-452.5" font-family="FreeSans" font-size="10.00" fill="#000000">_event</text>
</a>
</g>
</g>
<!-- Node24&#45;&gt;Node25 -->
<g id="edge38" class="edge">
<title>Node24&#45;&gt;Node25</title>
<path fill="none" stroke="#191970" d="M270.6159,-452.0955C288.7484,-453.6265 307.7201,-455.2283 324.7612,-456.6672"/>
<polygon fill="#191970" stroke="#191970" points="270.9052,-448.6076 260.6461,-451.2538 270.3162,-455.5828 270.9052,-448.6076"/>
</g>
<!-- Node26&#45;&gt;Node25 -->
<g id="edge40" class="edge">
<title>Node26&#45;&gt;Node25</title>
<path fill="none" stroke="#191970" d="M271.3297,-474.9323C289.2495,-472.7573 307.9514,-470.4874 324.7717,-468.4459"/>
<polygon fill="#191970" stroke="#191970" points="270.6872,-471.4845 261.1818,-476.164 271.5307,-478.4335 270.6872,-471.4845"/>
</g>
<!-- Node34&#45;&gt;Node8 -->
<g id="edge53" class="edge">
<title>Node34&#45;&gt;Node8</title>
<path fill="none" stroke="#191970" d="M607.1712,-284.5098C736.2491,-357.4669 1163.4204,-598.9115 1277.6835,-663.495"/>
<polygon fill="#191970" stroke="#191970" points="608.829,-281.4264 598.4011,-279.5528 605.3845,-287.5204 608.829,-281.4264"/>
</g>
<!-- Node36 -->
<g id="node36" class="node">
<title>Node36</title>
<g id="a_node36"><a xlink:href="../../d0/dc8/classSoftLeptonTaggingTruth.html#a152a3015fe9e7c089637c981a45787fe" target="_top" xlink:title="SoftLeptonTaggingTruth\l::process_event">
<polygon fill="none" stroke="#000000" points="314.5,-.5 314.5,-32.5 449.5,-32.5 449.5,-.5 314.5,-.5"/>
<text text-anchor="start" x="322.5" y="-19.5" font-family="FreeSans" font-size="10.00" fill="#000000">SoftLeptonTaggingTruth</text>
<text text-anchor="middle" x="382" y="-7.5" font-family="FreeSans" font-size="10.00" fill="#000000">::process_event</text>
</a>
</g>
</g>
<!-- Node35&#45;&gt;Node36 -->
<g id="edge55" class="edge">
<title>Node35&#45;&gt;Node36</title>
<path fill="none" stroke="#191970" d="M270.1629,-16.5C284.8385,-16.5 300.0797,-16.5 314.4148,-16.5"/>
<polygon fill="#191970" stroke="#191970" points="270.1113,-13.0001 260.1113,-16.5 270.1113,-20.0001 270.1113,-13.0001"/>
</g>
</g>
</svg>
