<?xml version="1.0" encoding="UTF-8" standalone="no"?>
<!DOCTYPE svg PUBLIC "-//W3C//DTD SVG 1.1//EN"
 "http://www.w3.org/Graphics/SVG/1.1/DTD/svg11.dtd">
<!-- Generated by graphviz version 2.40.1 (20161225.0304)
 -->
<!-- Title: RawClusterBuilderTemplateFEMC::Detector Pages: 1 -->
<svg width="492pt" height="326pt"
 viewBox="0.00 0.00 492.00 326.00" xmlns="http://www.w3.org/2000/svg" xmlns:xlink="http://www.w3.org/1999/xlink">
<g id="graph0" class="graph" transform="scale(1 1) rotate(0) translate(4 322)">
<title>RawClusterBuilderTemplateFEMC::Detector</title>
<!-- Node1 -->
<g id="node1" class="node">
<title>Node1</title>
<polygon fill="#bfbfbf" stroke="#000000" points="0,-142.5 0,-174.5 155,-174.5 155,-142.5 0,-142.5"/>
<text text-anchor="start" x="8" y="-161.5" font-family="FreeSans" font-size="10.00" fill="#000000">RawClusterBuilderTemplate</text>
<text text-anchor="middle" x="77.5" y="-149.5" font-family="FreeSans" font-size="10.00" fill="#000000">FEMC::Detector</text>
</g>
<!-- Node2 -->
<g id="node2" class="node">
<title>Node2</title>
<g id="a_node2"><a xlink:href="../../d6/d5c/macros_2blob_2master_2macros_2g4simulations_2G4__FEMC_8C.html#ab125a8852e2c16eed18cfad39821bbbf" target="_top" xlink:title="FEMC_Clusters">
<polygon fill="none" stroke="#000000" points="191,-148.5 191,-168.5 281,-168.5 281,-148.5 191,-148.5"/>
<text text-anchor="middle" x="236" y="-155.5" font-family="FreeSans" font-size="10.00" fill="#000000">FEMC_Clusters</text>
</a>
</g>
</g>
<!-- Node1&#45;&gt;Node2 -->
<g id="edge1" class="edge">
<title>Node1&#45;&gt;Node2</title>
<path fill="none" stroke="#191970" d="M165.3617,-158.5C174.1897,-158.5 182.8735,-158.5 190.9678,-158.5"/>
<polygon fill="#191970" stroke="#191970" points="165.357,-155.0001 155.357,-158.5 165.357,-162.0001 165.357,-155.0001"/>
</g>
<!-- Node3 -->
<g id="node3" class="node">
<title>Node3</title>
<g id="a_node3"><a xlink:href="../../da/d02/Fun4All__G4__EICDetector_8C.html#afbe82cefa1d1fd031d9a8586b7bb68c6" target="_top" xlink:title="Fun4All_G4_EICDetector">
<polygon fill="none" stroke="#000000" points="331,-297.5 331,-317.5 470,-317.5 470,-297.5 331,-297.5"/>
<text text-anchor="middle" x="400.5" y="-304.5" font-family="FreeSans" font-size="10.00" fill="#000000">Fun4All_G4_EICDetector</text>
</a>
</g>
</g>
<!-- Node2&#45;&gt;Node3 -->
<g id="edge2" class="edge">
<title>Node2&#45;&gt;Node3</title>
<path fill="none" stroke="#191970" d="M242.7065,-178.301C253.563,-207.2229 277.813,-260.6034 317,-288.5 322.0869,-292.1213 327.7521,-295.0657 333.6691,-297.458"/>
<polygon fill="#191970" stroke="#191970" points="245.8685,-176.7496 239.1982,-168.5181 239.2794,-179.1126 245.8685,-176.7496"/>
</g>
<!-- Node4 -->
<g id="node4" class="node">
<title>Node4</title>
<g id="a_node4"><a xlink:href="../../dd/d2a/Fun4All__G4__EICDetector__LQ_8C.html#aaa01242fd6e77ca43a9d49a6d46008e4" target="_top" xlink:title="Fun4All_G4_EICDetector_LQ">
<polygon fill="none" stroke="#000000" points="322.5,-258.5 322.5,-278.5 478.5,-278.5 478.5,-258.5 322.5,-258.5"/>
<text text-anchor="middle" x="400.5" y="-265.5" font-family="FreeSans" font-size="10.00" fill="#000000">Fun4All_G4_EICDetector_LQ</text>
</a>
</g>
</g>
<!-- Node2&#45;&gt;Node4 -->
<g id="edge3" class="edge">
<title>Node2&#45;&gt;Node4</title>
<path fill="none" stroke="#191970" d="M247.4449,-177.1962C261.2742,-198.1365 286.522,-231.4945 317,-249.5 323.1441,-253.1298 329.9197,-256.0663 336.8741,-258.442"/>
<polygon fill="#191970" stroke="#191970" points="250.2518,-175.0889 241.9166,-168.5486 244.354,-178.8593 250.2518,-175.0889"/>
</g>
<!-- Node5 -->
<g id="node5" class="node">
<title>Node5</title>
<g id="a_node5"><a xlink:href="../../d4/df5/Fun4All__G4__EICDetector__LQ__reference_8C.html#a2feefc472f17f90b3cbe74897d049f75" target="_top" xlink:title="Fun4All_G4_EICDetector\l_LQ_reference">
<polygon fill="none" stroke="#000000" points="331,-207.5 331,-239.5 470,-239.5 470,-207.5 331,-207.5"/>
<text text-anchor="start" x="339" y="-226.5" font-family="FreeSans" font-size="10.00" fill="#000000">Fun4All_G4_EICDetector</text>
<text text-anchor="middle" x="400.5" y="-214.5" font-family="FreeSans" font-size="10.00" fill="#000000">_LQ_reference</text>
</a>
</g>
</g>
<!-- Node2&#45;&gt;Node5 -->
<g id="edge4" class="edge">
<title>Node2&#45;&gt;Node5</title>
<path fill="none" stroke="#191970" d="M263.2686,-173.3961C278.7404,-181.482 298.6286,-191.2727 317,-198.5 325.0266,-201.6577 333.6185,-204.6486 342.126,-207.3905"/>
<polygon fill="#191970" stroke="#191970" points="264.7336,-170.2114 254.259,-168.6199 261.455,-176.3961 264.7336,-170.2114"/>
</g>
<!-- Node6 -->
<g id="node6" class="node">
<title>Node6</title>
<g id="a_node6"><a xlink:href="../../d3/d51/Fun4All__G4__EICDetector__RICH_8C.html#a5739502b0a7a1ba782c01069f77e933f" target="_top" xlink:title="Fun4All_G4_EICDetector_RICH">
<polygon fill="none" stroke="#000000" points="317,-168.5 317,-188.5 484,-188.5 484,-168.5 317,-168.5"/>
<text text-anchor="middle" x="400.5" y="-175.5" font-family="FreeSans" font-size="10.00" fill="#000000">Fun4All_G4_EICDetector_RICH</text>
</a>
</g>
</g>
<!-- Node2&#45;&gt;Node6 -->
<g id="edge5" class="edge">
<title>Node2&#45;&gt;Node6</title>
<path fill="none" stroke="#191970" d="M291.5527,-165.2541C300.0861,-166.2916 309.0495,-167.3814 318.0166,-168.4716"/>
<polygon fill="#191970" stroke="#191970" points="291.7352,-161.7506 281.3858,-164.018 290.8903,-168.6994 291.7352,-161.7506"/>
</g>
<!-- Node7 -->
<g id="node7" class="node">
<title>Node7</title>
<g id="a_node7"><a xlink:href="../../d7/d9e/Fun4All__G4__fsPHENIX_8C.html#af48911d394d2412e817583700f2bbee2" target="_top" xlink:title="Fun4All_G4_fsPHENIX">
<polygon fill="none" stroke="#000000" points="338.5,-129.5 338.5,-149.5 462.5,-149.5 462.5,-129.5 338.5,-129.5"/>
<text text-anchor="middle" x="400.5" y="-136.5" font-family="FreeSans" font-size="10.00" fill="#000000">Fun4All_G4_fsPHENIX</text>
</a>
</g>
</g>
<!-- Node2&#45;&gt;Node7 -->
<g id="edge6" class="edge">
<title>Node2&#45;&gt;Node7</title>
<path fill="none" stroke="#191970" d="M291.5527,-152.0836C306.5877,-150.347 322.9576,-148.4563 338.3307,-146.6807"/>
<polygon fill="#191970" stroke="#191970" points="290.9181,-148.6335 281.3858,-153.2579 291.7214,-155.5873 290.9181,-148.6335"/>
</g>
<!-- Node8 -->
<g id="node8" class="node">
<title>Node8</title>
<g id="a_node8"><a xlink:href="../../da/d2f/Fun4All__G4__fsPHENIX__FastSim_8C.html#a66fb850cae5fcaadda23b74a25ce4c9c" target="_top" xlink:title="Fun4All_G4_fsPHENIX\l_FastSim">
<polygon fill="none" stroke="#000000" points="338.5,-78.5 338.5,-110.5 462.5,-110.5 462.5,-78.5 338.5,-78.5"/>
<text text-anchor="start" x="346.5" y="-97.5" font-family="FreeSans" font-size="10.00" fill="#000000">Fun4All_G4_fsPHENIX</text>
<text text-anchor="middle" x="400.5" y="-85.5" font-family="FreeSans" font-size="10.00" fill="#000000">_FastSim</text>
</a>
</g>
</g>
<!-- Node2&#45;&gt;Node8 -->
<g id="edge7" class="edge">
<title>Node2&#45;&gt;Node8</title>
<path fill="none" stroke="#191970" d="M264.6135,-143.905C279.9323,-136.3916 299.2523,-127.3889 317,-120.5 326.0587,-116.9838 335.8067,-113.6007 345.3334,-110.5039"/>
<polygon fill="#191970" stroke="#191970" points="263.043,-140.777 255.6422,-148.3585 266.1556,-147.047 263.043,-140.777"/>
</g>
<!-- Node9 -->
<g id="node9" class="node">
<title>Node9</title>
<g id="a_node9"><a xlink:href="../../d0/da6/Fun4All__G4__fsPHENIX__pi0_8C.html#a023d91d47b678e5d7f1751834aa517c6" target="_top" xlink:title="Fun4All_G4_fsPHENIX_pi0">
<polygon fill="none" stroke="#000000" points="328,-39.5 328,-59.5 473,-59.5 473,-39.5 328,-39.5"/>
<text text-anchor="middle" x="400.5" y="-46.5" font-family="FreeSans" font-size="10.00" fill="#000000">Fun4All_G4_fsPHENIX_pi0</text>
</a>
</g>
</g>
<!-- Node2&#45;&gt;Node9 -->
<g id="edge8" class="edge">
<title>Node2&#45;&gt;Node9</title>
<path fill="none" stroke="#191970" d="M247.7974,-139.9613C261.7966,-119.5226 287.0526,-87.1982 317,-69.5 323.9299,-65.4046 331.6515,-62.1471 339.5225,-59.5562"/>
<polygon fill="#191970" stroke="#191970" points="244.7966,-138.1534 242.1811,-148.4204 250.6283,-142.0253 244.7966,-138.1534"/>
</g>
<!-- Node10 -->
<g id="node10" class="node">
<title>Node10</title>
<g id="a_node10"><a xlink:href="../../d5/d2c/macros_2blob_2master_2macros_2g4simulations_2Fun4All__G4__sPHENIX_8C.html#a6eaaa492d7023ec86c562dc63aa1e5a4" target="_top" xlink:title="Fun4All_G4_sPHENIX">
<polygon fill="none" stroke="#000000" points="340,-.5 340,-20.5 461,-20.5 461,-.5 340,-.5"/>
<text text-anchor="middle" x="400.5" y="-7.5" font-family="FreeSans" font-size="10.00" fill="#000000">Fun4All_G4_sPHENIX</text>
</a>
</g>
</g>
<!-- Node2&#45;&gt;Node10 -->
<g id="edge9" class="edge">
<title>Node2&#45;&gt;Node10</title>
<path fill="none" stroke="#191970" d="M242.997,-138.6371C254.0928,-110.1334 278.4965,-58.0372 317,-30.5 323.7899,-25.644 331.6048,-21.9554 339.6714,-19.1559"/>
<polygon fill="#191970" stroke="#191970" points="239.6063,-137.7132 239.3944,-148.306 246.1657,-140.1573 239.6063,-137.7132"/>
</g>
</g>
</svg>
