<?xml version="1.0" encoding="UTF-8" standalone="no"?>
<!DOCTYPE svg PUBLIC "-//W3C//DTD SVG 1.1//EN"
 "http://www.w3.org/Graphics/SVG/1.1/DTD/svg11.dtd">
<!-- Generated by graphviz version 2.40.1 (20161225.0304)
 -->
<!-- Title: PHHepMCGenHelper::set_reuse_vertex Pages: 1 -->
<svg width="504pt" height="347pt"
 viewBox="0.00 0.00 504.00 347.00" xmlns="http://www.w3.org/2000/svg" xmlns:xlink="http://www.w3.org/1999/xlink">
<g id="graph0" class="graph" transform="scale(1 1) rotate(0) translate(4 343)">
<title>PHHepMCGenHelper::set_reuse_vertex</title>
<!-- Node1 -->
<g id="node1" class="node">
<title>Node1</title>
<polygon fill="#bfbfbf" stroke="#000000" points="0,-153.5 0,-185.5 142,-185.5 142,-153.5 0,-153.5"/>
<text text-anchor="start" x="8" y="-172.5" font-family="FreeSans" font-size="10.00" fill="#000000">PHHepMCGenHelper::set</text>
<text text-anchor="middle" x="71" y="-160.5" font-family="FreeSans" font-size="10.00" fill="#000000">_reuse_vertex</text>
</g>
<!-- Node2 -->
<g id="node2" class="node">
<title>Node2</title>
<g id="a_node2"><a xlink:href="../../d3/d49/classReadEICFiles.html#ac057f9ea88857fa46cfd7e44c51d4297" target="_top" xlink:title="reuse vertex from another PHHepMCGenEvent with embedding_id = src_embedding_id Additional smearing an...">
<polygon fill="none" stroke="#000000" points="191,-306.5 191,-338.5 326,-338.5 326,-306.5 191,-306.5"/>
<text text-anchor="start" x="199" y="-325.5" font-family="FreeSans" font-size="10.00" fill="#000000">ReadEICFiles::set_reuse</text>
<text text-anchor="middle" x="258.5" y="-313.5" font-family="FreeSans" font-size="10.00" fill="#000000">_vertex</text>
</a>
</g>
</g>
<!-- Node1&#45;&gt;Node2 -->
<g id="edge1" class="edge">
<title>Node1&#45;&gt;Node2</title>
<path fill="none" stroke="#191970" d="M85.6451,-194.5308C103.787,-223.4128 137.33,-270.3975 178,-297.5 183.1147,-300.9084 188.7179,-303.8714 194.5117,-306.4433"/>
<polygon fill="#191970" stroke="#191970" points="88.5222,-192.5276 80.3065,-185.8378 82.5573,-196.1908 88.5222,-192.5276"/>
</g>
<!-- Node3 -->
<g id="node3" class="node">
<title>Node3</title>
<g id="a_node3"><a xlink:href="../../db/d1f/classFun4AllOscarInputManager.html#ae322759d993c32a6ba373b53f2372caf" target="_top" xlink:title="reuse vertex from another PHHepMCGenEvent with embedding_id = src_embedding_id Additional smearing an...">
<polygon fill="none" stroke="#000000" points="181.5,-255.5 181.5,-287.5 335.5,-287.5 335.5,-255.5 181.5,-255.5"/>
<text text-anchor="start" x="189.5" y="-274.5" font-family="FreeSans" font-size="10.00" fill="#000000">Fun4AllOscarInputManager</text>
<text text-anchor="middle" x="258.5" y="-262.5" font-family="FreeSans" font-size="10.00" fill="#000000">::set_reuse_vertex</text>
</a>
</g>
</g>
<!-- Node1&#45;&gt;Node3 -->
<g id="edge2" class="edge">
<title>Node1&#45;&gt;Node3</title>
<path fill="none" stroke="#191970" d="M97.2476,-192.1015C118.0092,-209.0268 148.3452,-231.7171 178,-246.5 184.6795,-249.8297 191.8925,-252.825 199.1614,-255.4868"/>
<polygon fill="#191970" stroke="#191970" points="99.4454,-189.3772 89.5098,-185.6981 94.9825,-194.7701 99.4454,-189.3772"/>
</g>
<!-- Node4 -->
<g id="node4" class="node">
<title>Node4</title>
<g id="a_node4"><a xlink:href="../../d6/d6f/classFun4AllHepMCInputManager.html#a369a455d0be1531c719e2aff4defde3d" target="_top" xlink:title="reuse vertex from another PHHepMCGenEvent with embedding_id = src_embedding_id Additional smearing an...">
<polygon fill="none" stroke="#000000" points="178,-204.5 178,-236.5 339,-236.5 339,-204.5 178,-204.5"/>
<text text-anchor="start" x="186" y="-223.5" font-family="FreeSans" font-size="10.00" fill="#000000">Fun4AllHepMCInputManager</text>
<text text-anchor="middle" x="258.5" y="-211.5" font-family="FreeSans" font-size="10.00" fill="#000000">::set_reuse_vertex</text>
</a>
</g>
</g>
<!-- Node1&#45;&gt;Node4 -->
<g id="edge3" class="edge">
<title>Node1&#45;&gt;Node4</title>
<path fill="none" stroke="#191970" d="M139.8265,-188.2208C159.3772,-193.5386 180.4873,-199.2806 199.4061,-204.4264"/>
<polygon fill="#191970" stroke="#191970" points="140.6369,-184.8141 130.0688,-185.5667 138.7996,-191.5687 140.6369,-184.8141"/>
</g>
<!-- Node5 -->
<g id="node5" class="node">
<title>Node5</title>
<g id="a_node5"><a xlink:href="../../dd/da8/classPHPythia6.html#a7fcdfed4c9541cb8c6d7d0b4ee06810d" target="_top" xlink:title="reuse vertex from another PHHepMCGenEvent with embedding_id = src_embedding_id Additional smearing an...">
<polygon fill="none" stroke="#000000" points="197,-102.5 197,-134.5 320,-134.5 320,-102.5 197,-102.5"/>
<text text-anchor="start" x="205" y="-121.5" font-family="FreeSans" font-size="10.00" fill="#000000">PHPythia6::set_reuse</text>
<text text-anchor="middle" x="258.5" y="-109.5" font-family="FreeSans" font-size="10.00" fill="#000000">_vertex</text>
</a>
</g>
</g>
<!-- Node1&#45;&gt;Node5 -->
<g id="edge4" class="edge">
<title>Node1&#45;&gt;Node5</title>
<path fill="none" stroke="#191970" d="M139.8265,-150.7792C159.3772,-145.4614 180.4873,-139.7194 199.4061,-134.5736"/>
<polygon fill="#191970" stroke="#191970" points="138.7996,-147.4313 130.0688,-153.4333 140.6369,-154.1859 138.7996,-147.4313"/>
</g>
<!-- Node10 -->
<g id="node10" class="node">
<title>Node10</title>
<g id="a_node10"><a xlink:href="../../df/d98/classsHEPGen.html#a84b6380abd1824e7c788930e84f40838" target="_top" xlink:title="reuse vertex from another PHHepMCGenEvent with embedding_id = src_embedding_id Additional smearing an...">
<polygon fill="none" stroke="#000000" points="200,-51.5 200,-83.5 317,-83.5 317,-51.5 200,-51.5"/>
<text text-anchor="start" x="208" y="-70.5" font-family="FreeSans" font-size="10.00" fill="#000000">sHEPGen::set_reuse</text>
<text text-anchor="middle" x="258.5" y="-58.5" font-family="FreeSans" font-size="10.00" fill="#000000">_vertex</text>
</a>
</g>
</g>
<!-- Node1&#45;&gt;Node10 -->
<g id="edge9" class="edge">
<title>Node1&#45;&gt;Node10</title>
<path fill="none" stroke="#191970" d="M98.0015,-146.7805C118.7928,-130.1934 148.8231,-108.1377 178,-93.5 185.3512,-89.812 193.3383,-86.4933 201.3314,-83.5589"/>
<polygon fill="#191970" stroke="#191970" points="95.5296,-144.2784 89.9603,-153.2913 99.9346,-149.7187 95.5296,-144.2784"/>
</g>
<!-- Node11 -->
<g id="node11" class="node">
<title>Node11</title>
<g id="a_node11"><a xlink:href="../../da/df0/classPHSartre.html#a1c751cd971239478c3b87deeab135553" target="_top" xlink:title="reuse vertex from another PHHepMCGenEvent with embedding_id = src_embedding_id Additional smearing an...">
<polygon fill="none" stroke="#000000" points="200.5,-.5 200.5,-32.5 316.5,-32.5 316.5,-.5 200.5,-.5"/>
<text text-anchor="start" x="208.5" y="-19.5" font-family="FreeSans" font-size="10.00" fill="#000000">PHSartre::set_reuse</text>
<text text-anchor="middle" x="258.5" y="-7.5" font-family="FreeSans" font-size="10.00" fill="#000000">_vertex</text>
</a>
</g>
</g>
<!-- Node1&#45;&gt;Node11 -->
<g id="edge10" class="edge">
<title>Node1&#45;&gt;Node11</title>
<path fill="none" stroke="#191970" d="M85.6451,-144.4692C103.787,-115.5872 137.33,-68.6025 178,-41.5 184.8196,-36.9554 192.5076,-33.2028 200.3579,-30.1131"/>
<polygon fill="#191970" stroke="#191970" points="82.5573,-142.8092 80.3065,-153.1622 88.5222,-146.4724 82.5573,-142.8092"/>
</g>
<!-- Node12 -->
<g id="node12" class="node">
<title>Node12</title>
<g id="a_node12"><a xlink:href="../../d9/d3a/classPHPythia8.html#ae8c761979b82f36b15d35d7c4e6d9e30" target="_top" xlink:title="reuse vertex from another PHHepMCGenEvent with embedding_id = src_embedding_id Additional smearing an...">
<polygon fill="none" stroke="#000000" points="197,-153.5 197,-185.5 320,-185.5 320,-153.5 197,-153.5"/>
<text text-anchor="start" x="205" y="-172.5" font-family="FreeSans" font-size="10.00" fill="#000000">PHPythia8::set_reuse</text>
<text text-anchor="middle" x="258.5" y="-160.5" font-family="FreeSans" font-size="10.00" fill="#000000">_vertex</text>
</a>
</g>
</g>
<!-- Node1&#45;&gt;Node12 -->
<g id="edge11" class="edge">
<title>Node1&#45;&gt;Node12</title>
<path fill="none" stroke="#191970" d="M152.3987,-169.5C167.3236,-169.5 182.6735,-169.5 196.8996,-169.5"/>
<polygon fill="#191970" stroke="#191970" points="152.1531,-166.0001 142.1531,-169.5 152.153,-173.0001 152.1531,-166.0001"/>
</g>
<!-- Node6 -->
<g id="node6" class="node">
<title>Node6</title>
<g id="a_node6"><a xlink:href="../../da/dd0/Fun4All__G4__sPHENIX__photonjet_8C.html#a6f18519e216acc05399e562ea57ea77c" target="_top" xlink:title="Fun4All_G4_sPHENIX\l_photonjet">
<polygon fill="none" stroke="#000000" points="375,-105.5 375,-137.5 496,-137.5 496,-105.5 375,-105.5"/>
<text text-anchor="start" x="383" y="-124.5" font-family="FreeSans" font-size="10.00" fill="#000000">Fun4All_G4_sPHENIX</text>
<text text-anchor="middle" x="435.5" y="-112.5" font-family="FreeSans" font-size="10.00" fill="#000000">_photonjet</text>
</a>
</g>
</g>
<!-- Node5&#45;&gt;Node6 -->
<g id="edge5" class="edge">
<title>Node5&#45;&gt;Node6</title>
<path fill="none" stroke="#191970" d="M330.4745,-119.7199C345.1941,-119.9694 360.5461,-120.2296 374.8227,-120.4716"/>
<polygon fill="#191970" stroke="#191970" points="330.4639,-116.2193 320.406,-119.5493 330.3452,-123.2183 330.4639,-116.2193"/>
</g>
<!-- Node7 -->
<g id="node7" class="node">
<title>Node7</title>
<g id="a_node7"><a xlink:href="../../da/d85/Fun4All__G4__sPHENIX__photons_8C.html#a02fbbd59878fe1299f58ed187e7214ba" target="_top" xlink:title="Fun4All_G4_sPHENIX\l_photons">
<polygon fill="none" stroke="#000000" points="375,-54.5 375,-86.5 496,-86.5 496,-54.5 375,-54.5"/>
<text text-anchor="start" x="383" y="-73.5" font-family="FreeSans" font-size="10.00" fill="#000000">Fun4All_G4_sPHENIX</text>
<text text-anchor="middle" x="435.5" y="-61.5" font-family="FreeSans" font-size="10.00" fill="#000000">_photons</text>
</a>
</g>
</g>
<!-- Node5&#45;&gt;Node7 -->
<g id="edge6" class="edge">
<title>Node5&#45;&gt;Node7</title>
<path fill="none" stroke="#191970" d="M327.7686,-99.7153C343.7841,-95.3721 360.6825,-90.7895 376.226,-86.5743"/>
<polygon fill="#191970" stroke="#191970" points="326.6661,-96.3878 317.9308,-102.3832 328.4983,-103.1438 326.6661,-96.3878"/>
</g>
<!-- Node8 -->
<g id="node8" class="node">
<title>Node8</title>
<g id="a_node8"><a xlink:href="../../de/d55/Fun4All__G4__sPHENIX__truthphotonjet_8C.html#a48a6f4503eaa1b3793d8ae572aa795b9" target="_top" xlink:title="Fun4All_G4_sPHENIX\l_truthphotonjet">
<polygon fill="none" stroke="#000000" points="375,-195.5 375,-227.5 496,-227.5 496,-195.5 375,-195.5"/>
<text text-anchor="start" x="383" y="-214.5" font-family="FreeSans" font-size="10.00" fill="#000000">Fun4All_G4_sPHENIX</text>
<text text-anchor="middle" x="435.5" y="-202.5" font-family="FreeSans" font-size="10.00" fill="#000000">_truthphotonjet</text>
</a>
</g>
</g>
<!-- Node5&#45;&gt;Node8 -->
<g id="edge7" class="edge">
<title>Node5&#45;&gt;Node8</title>
<path fill="none" stroke="#191970" d="M329.6871,-138.9958C332.9139,-140.6961 336.0372,-142.5278 339,-144.5 359.4661,-158.1229 355.0911,-172.075 375,-186.5 379.6016,-189.834 384.7135,-192.8194 389.961,-195.4651"/>
<polygon fill="#191970" stroke="#191970" points="330.8986,-135.6958 320.3665,-134.5447 327.882,-142.0125 330.8986,-135.6958"/>
</g>
<!-- Node9 -->
<g id="node9" class="node">
<title>Node9</title>
<g id="a_node9"><a xlink:href="../../d5/d2c/macros_2blob_2master_2macros_2g4simulations_2Fun4All__G4__sPHENIX_8C.html#a6eaaa492d7023ec86c562dc63aa1e5a4" target="_top" xlink:title="Fun4All_G4_sPHENIX">
<polygon fill="none" stroke="#000000" points="375,-156.5 375,-176.5 496,-176.5 496,-156.5 375,-156.5"/>
<text text-anchor="middle" x="435.5" y="-163.5" font-family="FreeSans" font-size="10.00" fill="#000000">Fun4All_G4_sPHENIX</text>
</a>
</g>
</g>
<!-- Node5&#45;&gt;Node9 -->
<g id="edge8" class="edge">
<title>Node5&#45;&gt;Node9</title>
<path fill="none" stroke="#191970" d="M327.7529,-137.2804C351.8395,-143.8124 377.9249,-150.8864 398.3958,-156.4379"/>
<polygon fill="#191970" stroke="#191970" points="328.4983,-133.8562 317.9308,-134.6168 326.6661,-140.6122 328.4983,-133.8562"/>
</g>
<!-- Node12&#45;&gt;Node6 -->
<g id="edge12" class="edge">
<title>Node12&#45;&gt;Node6</title>
<path fill="none" stroke="#191970" d="M327.7686,-150.7153C343.7841,-146.3721 360.6825,-141.7895 376.226,-137.5743"/>
<polygon fill="#191970" stroke="#191970" points="326.6661,-147.3878 317.9308,-153.3832 328.4983,-154.1438 326.6661,-147.3878"/>
</g>
<!-- Node12&#45;&gt;Node7 -->
<g id="edge13" class="edge">
<title>Node12&#45;&gt;Node7</title>
<path fill="none" stroke="#191970" d="M329.3458,-150.4253C332.7095,-148.6208 335.9503,-146.6506 339,-144.5 360.7928,-129.1318 354.0418,-112.9883 375,-96.5 379.7621,-92.7536 385.1455,-89.444 390.6889,-86.5509"/>
<polygon fill="#191970" stroke="#191970" points="327.6959,-147.335 320.2021,-154.8245 330.7308,-153.6429 327.6959,-147.335"/>
</g>
<!-- Node12&#45;&gt;Node8 -->
<g id="edge14" class="edge">
<title>Node12&#45;&gt;Node8</title>
<path fill="none" stroke="#191970" d="M330.4745,-186.5787C345.1941,-190.0715 360.5461,-193.7143 374.8227,-197.102"/>
<polygon fill="#191970" stroke="#191970" points="330.9439,-183.093 320.406,-184.1896 329.3277,-189.9039 330.9439,-183.093"/>
</g>
<!-- Node12&#45;&gt;Node9 -->
<g id="edge15" class="edge">
<title>Node12&#45;&gt;Node9</title>
<path fill="none" stroke="#191970" d="M330.4745,-168.2801C345.1941,-168.0306 360.5461,-167.7704 374.8227,-167.5284"/>
<polygon fill="#191970" stroke="#191970" points="330.3452,-164.7817 320.406,-168.4507 330.4639,-171.7807 330.3452,-164.7817"/>
</g>
</g>
</svg>
