<?xml version="1.0" encoding="UTF-8" standalone="no"?>
<!DOCTYPE svg PUBLIC "-//W3C//DTD SVG 1.1//EN"
 "http://www.w3.org/Graphics/SVG/1.1/DTD/svg11.dtd">
<!-- Generated by graphviz version 2.40.1 (20161225.0304)
 -->
<!-- Title: Fun4AllServer::registerOutputManager Pages: 1 -->
<svg width="379pt" height="1118pt"
 viewBox="0.00 0.00 379.00 1118.00" xmlns="http://www.w3.org/2000/svg" xmlns:xlink="http://www.w3.org/1999/xlink">
<g id="graph0" class="graph" transform="scale(1 1) rotate(0) translate(4 1114)">
<title>Fun4AllServer::registerOutputManager</title>
<!-- Node1 -->
<g id="node1" class="node">
<title>Node1</title>
<polygon fill="#bfbfbf" stroke="#000000" points="0,-532.5 0,-564.5 168,-564.5 168,-532.5 0,-532.5"/>
<text text-anchor="start" x="8" y="-551.5" font-family="FreeSans" font-size="10.00" fill="#000000">Fun4AllServer::registerOutput</text>
<text text-anchor="middle" x="84" y="-539.5" font-family="FreeSans" font-size="10.00" fill="#000000">Manager</text>
</g>
<!-- Node2 -->
<g id="node2" class="node">
<title>Node2</title>
<g id="a_node2"><a xlink:href="../../de/dc8/Fun4All__EMCalLikelihood_8C.html#a209f0d5788c9d3adba2967f194bca64a" target="_top" xlink:title="Fun4All_EMCalLikelihood">
<polygon fill="none" stroke="#000000" points="217,-1089.5 217,-1109.5 358,-1109.5 358,-1089.5 217,-1089.5"/>
<text text-anchor="middle" x="287.5" y="-1096.5" font-family="FreeSans" font-size="10.00" fill="#000000">Fun4All_EMCalLikelihood</text>
</a>
</g>
</g>
<!-- Node1&#45;&gt;Node2 -->
<g id="edge1" class="edge">
<title>Node1&#45;&gt;Node2</title>
<path fill="none" stroke="#191970" d="M86.2571,-574.588C95.148,-671.261 130.9006,-1007.2627 204,-1080.5 207.781,-1084.2881 212.1498,-1087.3865 216.8664,-1089.9144"/>
<polygon fill="#191970" stroke="#191970" points="89.732,-574.1514 85.3482,-564.506 82.7603,-574.7799 89.732,-574.1514"/>
</g>
<!-- Node3 -->
<g id="node3" class="node">
<title>Node3</title>
<g id="a_node3"><a xlink:href="../../de/d55/Fun4All__G4__block_8C.html#a6a063a649a0dd3318a517d5af98430dd" target="_top" xlink:title="Fun4All_G4_block">
<polygon fill="none" stroke="#000000" points="235,-1050.5 235,-1070.5 340,-1070.5 340,-1050.5 235,-1050.5"/>
<text text-anchor="middle" x="287.5" y="-1057.5" font-family="FreeSans" font-size="10.00" fill="#000000">Fun4All_G4_block</text>
</a>
</g>
</g>
<!-- Node1&#45;&gt;Node3 -->
<g id="edge2" class="edge">
<title>Node1&#45;&gt;Node3</title>
<path fill="none" stroke="#191970" d="M86.7755,-574.7565C97.0561,-667.0265 135.9324,-974.4478 204,-1041.5 212.3671,-1049.7423 223.5219,-1054.707 234.947,-1057.6319"/>
<polygon fill="#191970" stroke="#191970" points="90.2313,-574.1608 85.6635,-564.6012 83.2729,-574.9228 90.2313,-574.1608"/>
</g>
<!-- Node4 -->
<g id="node4" class="node">
<title>Node4</title>
<g id="a_node4"><a xlink:href="../../d8/d91/Fun4All__G4__Clusters_8C.html#ab7d8e64f12f512631d4c0e8c6683ec5b" target="_top" xlink:title="Fun4All_G4_Clusters">
<polygon fill="none" stroke="#000000" points="228,-1011.5 228,-1031.5 347,-1031.5 347,-1011.5 228,-1011.5"/>
<text text-anchor="middle" x="287.5" y="-1018.5" font-family="FreeSans" font-size="10.00" fill="#000000">Fun4All_G4_Clusters</text>
</a>
</g>
</g>
<!-- Node1&#45;&gt;Node4 -->
<g id="edge3" class="edge">
<title>Node1&#45;&gt;Node4</title>
<path fill="none" stroke="#191970" d="M87.3496,-574.6635C99.0547,-662.0159 140.8781,-941.5295 204,-1002.5 210.6298,-1008.9039 218.946,-1013.3203 227.7428,-1016.3363"/>
<polygon fill="#191970" stroke="#191970" points="90.7923,-573.998 86.0137,-564.542 83.8524,-574.914 90.7923,-573.998"/>
</g>
<!-- Node5 -->
<g id="node5" class="node">
<title>Node5</title>
<g id="a_node5"><a xlink:href="../../d2/dee/Fun4All__G4__Cylinder_8C.html#a271dc4f10f6f77107705e0efef0c97e5" target="_top" xlink:title="Fun4All_G4_Cylinder">
<polygon fill="none" stroke="#000000" points="227,-972.5 227,-992.5 348,-992.5 348,-972.5 227,-972.5"/>
<text text-anchor="middle" x="287.5" y="-979.5" font-family="FreeSans" font-size="10.00" fill="#000000">Fun4All_G4_Cylinder</text>
</a>
</g>
</g>
<!-- Node1&#45;&gt;Node5 -->
<g id="edge4" class="edge">
<title>Node1&#45;&gt;Node5</title>
<path fill="none" stroke="#191970" d="M88.025,-574.5668C101.2386,-656.8019 145.7988,-908.5661 204,-963.5 210.3789,-969.5208 218.2527,-973.7756 226.5935,-976.7586"/>
<polygon fill="#191970" stroke="#191970" points="91.4594,-573.877 86.4363,-564.5486 84.5458,-574.9734 91.4594,-573.877"/>
</g>
<!-- Node6 -->
<g id="node6" class="node">
<title>Node6</title>
<g id="a_node6"><a xlink:href="../../dd/d2a/Fun4All__G4__EICDetector__LQ_8C.html#aaa01242fd6e77ca43a9d49a6d46008e4" target="_top" xlink:title="Fun4All_G4_EICDetector_LQ">
<polygon fill="none" stroke="#000000" points="209.5,-933.5 209.5,-953.5 365.5,-953.5 365.5,-933.5 209.5,-933.5"/>
<text text-anchor="middle" x="287.5" y="-940.5" font-family="FreeSans" font-size="10.00" fill="#000000">Fun4All_G4_EICDetector_LQ</text>
</a>
</g>
</g>
<!-- Node1&#45;&gt;Node6 -->
<g id="edge5" class="edge">
<title>Node1&#45;&gt;Node6</title>
<path fill="none" stroke="#191970" d="M88.8689,-574.6581C103.7276,-651.727 150.7343,-875.5894 204,-924.5 207.8328,-928.0194 212.1783,-930.9316 216.8247,-933.3369"/>
<polygon fill="#191970" stroke="#191970" points="92.2988,-573.959 86.9884,-564.7911 85.4226,-575.2696 92.2988,-573.959"/>
</g>
<!-- Node7 -->
<g id="node7" class="node">
<title>Node7</title>
<g id="a_node7"><a xlink:href="../../d4/df5/Fun4All__G4__EICDetector__LQ__reference_8C.html#a2feefc472f17f90b3cbe74897d049f75" target="_top" xlink:title="Fun4All_G4_EICDetector\l_LQ_reference">
<polygon fill="none" stroke="#000000" points="218,-882.5 218,-914.5 357,-914.5 357,-882.5 218,-882.5"/>
<text text-anchor="start" x="226" y="-901.5" font-family="FreeSans" font-size="10.00" fill="#000000">Fun4All_G4_EICDetector</text>
<text text-anchor="middle" x="287.5" y="-889.5" font-family="FreeSans" font-size="10.00" fill="#000000">_LQ_reference</text>
</a>
</g>
</g>
<!-- Node1&#45;&gt;Node7 -->
<g id="edge6" class="edge">
<title>Node1&#45;&gt;Node7</title>
<path fill="none" stroke="#191970" d="M85.9542,-574.79C91.9501,-636.2454 115.4873,-790.378 204,-873.5 208.0814,-877.3328 212.7273,-880.58 217.6892,-883.3306"/>
<polygon fill="#191970" stroke="#191970" points="89.4338,-574.4051 85.0536,-564.7581 82.4618,-575.0311 89.4338,-574.4051"/>
</g>
<!-- Node8 -->
<g id="node8" class="node">
<title>Node8</title>
<g id="a_node8"><a xlink:href="../../d3/d51/Fun4All__G4__EICDetector__RICH_8C.html#a5739502b0a7a1ba782c01069f77e933f" target="_top" xlink:title="Fun4All_G4_EICDetector_RICH">
<polygon fill="none" stroke="#000000" points="204,-843.5 204,-863.5 371,-863.5 371,-843.5 204,-843.5"/>
<text text-anchor="middle" x="287.5" y="-850.5" font-family="FreeSans" font-size="10.00" fill="#000000">Fun4All_G4_EICDetector_RICH</text>
</a>
</g>
</g>
<!-- Node1&#45;&gt;Node8 -->
<g id="edge7" class="edge">
<title>Node1&#45;&gt;Node8</title>
<path fill="none" stroke="#191970" d="M87.0317,-574.733C95.0334,-631.4038 122.0755,-765.6876 204,-834.5 208.2121,-838.038 212.9509,-840.9501 217.9762,-843.3435"/>
<polygon fill="#191970" stroke="#191970" points="90.4963,-574.2346 85.7123,-564.7814 83.5571,-575.1547 90.4963,-574.2346"/>
</g>
<!-- Node9 -->
<g id="node9" class="node">
<title>Node9</title>
<g id="a_node9"><a xlink:href="../../d9/d0e/Fun4All__G4__EICIR_8C.html#ac3543d1dd4a0abed3987d40939ee3f87" target="_top" xlink:title="Fun4All_G4_EICIR">
<polygon fill="none" stroke="#000000" points="235.5,-804.5 235.5,-824.5 339.5,-824.5 339.5,-804.5 235.5,-804.5"/>
<text text-anchor="middle" x="287.5" y="-811.5" font-family="FreeSans" font-size="10.00" fill="#000000">Fun4All_G4_EICIR</text>
</a>
</g>
</g>
<!-- Node1&#45;&gt;Node9 -->
<g id="edge8" class="edge">
<title>Node1&#45;&gt;Node9</title>
<path fill="none" stroke="#191970" d="M88.9295,-574.6771C99.9425,-625.5761 131.5006,-737.9272 204,-795.5 212.9648,-802.6191 224.0909,-807.1745 235.2671,-810.0644"/>
<polygon fill="#191970" stroke="#191970" points="92.3375,-573.8738 86.8839,-564.7904 85.4827,-575.2921 92.3375,-573.8738"/>
</g>
<!-- Node10 -->
<g id="node10" class="node">
<title>Node10</title>
<g id="a_node10"><a xlink:href="../../da/d2f/Fun4All__G4__fsPHENIX__FastSim_8C.html#a66fb850cae5fcaadda23b74a25ce4c9c" target="_top" xlink:title="Fun4All_G4_fsPHENIX\l_FastSim">
<polygon fill="none" stroke="#000000" points="225.5,-753.5 225.5,-785.5 349.5,-785.5 349.5,-753.5 225.5,-753.5"/>
<text text-anchor="start" x="233.5" y="-772.5" font-family="FreeSans" font-size="10.00" fill="#000000">Fun4All_G4_fsPHENIX</text>
<text text-anchor="middle" x="287.5" y="-760.5" font-family="FreeSans" font-size="10.00" fill="#000000">_FastSim</text>
</a>
</g>
</g>
<!-- Node1&#45;&gt;Node10 -->
<g id="edge9" class="edge">
<title>Node1&#45;&gt;Node10</title>
<path fill="none" stroke="#191970" d="M92.7823,-574.1916C108.4364,-616.138 145.1513,-699.1878 204,-744.5 210.3547,-749.3929 217.6571,-753.3314 225.2424,-756.501"/>
<polygon fill="#191970" stroke="#191970" points="96.0391,-572.9057 89.3391,-564.6983 89.4586,-575.2925 96.0391,-572.9057"/>
</g>
<!-- Node11 -->
<g id="node11" class="node">
<title>Node11</title>
<g id="a_node11"><a xlink:href="../../df/de1/Fun4All__G4__IonGun_8C.html#ab4966a2ae337cb8f0e45f7ee488e33b7" target="_top" xlink:title="Fun4All_G4_IonGun">
<polygon fill="none" stroke="#000000" points="230.5,-714.5 230.5,-734.5 344.5,-734.5 344.5,-714.5 230.5,-714.5"/>
<text text-anchor="middle" x="287.5" y="-721.5" font-family="FreeSans" font-size="10.00" fill="#000000">Fun4All_G4_IonGun</text>
</a>
</g>
</g>
<!-- Node1&#45;&gt;Node11 -->
<g id="edge10" class="edge">
<title>Node1&#45;&gt;Node11</title>
<path fill="none" stroke="#191970" d="M96.107,-573.7369C114.3772,-608.9903 152.418,-672.3676 204,-705.5 211.8806,-710.5619 220.9394,-714.2831 230.1193,-717.0169"/>
<polygon fill="#191970" stroke="#191970" points="99.1176,-571.9342 91.4833,-564.5879 92.8701,-575.0916 99.1176,-571.9342"/>
</g>
<!-- Node12 -->
<g id="node12" class="node">
<title>Node12</title>
<g id="a_node12"><a xlink:href="../../d9/d8f/Fun4All__G4__Momentum_8C.html#afbd7a4eecd7792e9216ce80b5514123e" target="_top" xlink:title="Fun4All_G4_Momentum">
<polygon fill="none" stroke="#000000" points="220,-675.5 220,-695.5 355,-695.5 355,-675.5 220,-675.5"/>
<text text-anchor="middle" x="287.5" y="-682.5" font-family="FreeSans" font-size="10.00" fill="#000000">Fun4All_G4_Momentum</text>
</a>
</g>
</g>
<!-- Node1&#45;&gt;Node12 -->
<g id="edge11" class="edge">
<title>Node1&#45;&gt;Node12</title>
<path fill="none" stroke="#191970" d="M101.9284,-572.914C123.1958,-600.0425 161.2043,-643.1003 204,-666.5 210.6527,-670.1375 217.9687,-673.0798 225.4196,-675.4595"/>
<polygon fill="#191970" stroke="#191970" points="104.4944,-570.5089 95.6268,-564.7108 98.9432,-574.7733 104.4944,-570.5089"/>
</g>
<!-- Node13 -->
<g id="node13" class="node">
<title>Node13</title>
<g id="a_node13"><a xlink:href="../../dc/d8e/Fun4All__G4__Prototype2_8C.html#a6b8f092c4f51be2938dd09c810ba6226" target="_top" xlink:title="Fun4All_G4_Prototype2">
<polygon fill="none" stroke="#000000" points="221,-636.5 221,-656.5 354,-656.5 354,-636.5 221,-636.5"/>
<text text-anchor="middle" x="287.5" y="-643.5" font-family="FreeSans" font-size="10.00" fill="#000000">Fun4All_G4_Prototype2</text>
</a>
</g>
</g>
<!-- Node1&#45;&gt;Node13 -->
<g id="edge12" class="edge">
<title>Node1&#45;&gt;Node13</title>
<path fill="none" stroke="#191970" d="M111.5742,-570.8236C134.8949,-588.6416 169.8733,-612.9517 204,-627.5 212.3425,-631.0564 221.4502,-633.9968 230.4848,-636.4127"/>
<polygon fill="#191970" stroke="#191970" points="113.5788,-567.949 103.5329,-564.5829 109.287,-573.4791 113.5788,-567.949"/>
</g>
<!-- Node14 -->
<g id="node14" class="node">
<title>Node14</title>
<g id="a_node14"><a xlink:href="../../d7/d40/Fun4All__G4__Prototype3_8C.html#a1201361263017b08a070777a0b90b27c" target="_top" xlink:title="Fun4All_G4_Prototype3">
<polygon fill="none" stroke="#000000" points="221,-597.5 221,-617.5 354,-617.5 354,-597.5 221,-597.5"/>
<text text-anchor="middle" x="287.5" y="-604.5" font-family="FreeSans" font-size="10.00" fill="#000000">Fun4All_G4_Prototype3</text>
</a>
</g>
</g>
<!-- Node1&#45;&gt;Node14 -->
<g id="edge13" class="edge">
<title>Node1&#45;&gt;Node14</title>
<path fill="none" stroke="#191970" d="M138.1736,-567.8106C158.6608,-574.7819 182.274,-582.423 204,-588.5 215.454,-591.7038 227.9036,-594.7608 239.6079,-597.4497"/>
<polygon fill="#191970" stroke="#191970" points="139.2897,-564.4933 128.695,-564.5577 137.0174,-571.1143 139.2897,-564.4933"/>
</g>
<!-- Node15 -->
<g id="node15" class="node">
<title>Node15</title>
<g id="a_node15"><a xlink:href="../../d4/d58/Fun4All__G4__Prototype4_8C.html#acac517f0728af658cbf99c7c9687c908" target="_top" xlink:title="Fun4All_G4_Prototype4">
<polygon fill="none" stroke="#000000" points="221,-558.5 221,-578.5 354,-578.5 354,-558.5 221,-558.5"/>
<text text-anchor="middle" x="287.5" y="-565.5" font-family="FreeSans" font-size="10.00" fill="#000000">Fun4All_G4_Prototype4</text>
</a>
</g>
</g>
<!-- Node1&#45;&gt;Node15 -->
<g id="edge14" class="edge">
<title>Node1&#45;&gt;Node15</title>
<path fill="none" stroke="#191970" d="M178.5566,-557.793C192.7924,-559.1921 207.2169,-560.6098 220.708,-561.9357"/>
<polygon fill="#191970" stroke="#191970" points="178.5346,-554.2741 168.2402,-556.7791 177.8499,-561.2405 178.5346,-554.2741"/>
</g>
<!-- Node16 -->
<g id="node16" class="node">
<title>Node16</title>
<g id="a_node16"><a xlink:href="../../d5/d2c/macros_2blob_2master_2macros_2g4simulations_2Fun4All__G4__sPHENIX_8C.html#a6eaaa492d7023ec86c562dc63aa1e5a4" target="_top" xlink:title="Fun4All_G4_sPHENIX">
<polygon fill="none" stroke="#000000" points="227,-519.5 227,-539.5 348,-539.5 348,-519.5 227,-519.5"/>
<text text-anchor="middle" x="287.5" y="-526.5" font-family="FreeSans" font-size="10.00" fill="#000000">Fun4All_G4_sPHENIX</text>
</a>
</g>
</g>
<!-- Node1&#45;&gt;Node16 -->
<g id="edge15" class="edge">
<title>Node1&#45;&gt;Node16</title>
<path fill="none" stroke="#191970" d="M178.453,-539.6813C194.9336,-538.1426 211.6709,-536.5799 226.9233,-535.1558"/>
<polygon fill="#191970" stroke="#191970" points="177.8715,-536.2203 168.2402,-540.6348 178.5223,-543.19 177.8715,-536.2203"/>
</g>
<!-- Node17 -->
<g id="node17" class="node">
<title>Node17</title>
<g id="a_node17"><a xlink:href="../../de/d55/Fun4All__G4__sPHENIX__truthphotonjet_8C.html#a48a6f4503eaa1b3793d8ae572aa795b9" target="_top" xlink:title="Fun4All_G4_sPHENIX\l_truthphotonjet">
<polygon fill="none" stroke="#000000" points="227,-468.5 227,-500.5 348,-500.5 348,-468.5 227,-468.5"/>
<text text-anchor="start" x="235" y="-487.5" font-family="FreeSans" font-size="10.00" fill="#000000">Fun4All_G4_sPHENIX</text>
<text text-anchor="middle" x="287.5" y="-475.5" font-family="FreeSans" font-size="10.00" fill="#000000">_truthphotonjet</text>
</a>
</g>
</g>
<!-- Node1&#45;&gt;Node17 -->
<g id="edge16" class="edge">
<title>Node1&#45;&gt;Node17</title>
<path fill="none" stroke="#191970" d="M144.2624,-529.3545C163.3597,-523.304 184.559,-516.6049 204,-510.5 214.2848,-507.2704 225.2875,-503.8323 235.8189,-500.5498"/>
<polygon fill="#191970" stroke="#191970" points="142.9628,-526.0948 134.4878,-532.4528 145.0779,-532.7676 142.9628,-526.0948"/>
</g>
<!-- Node18 -->
<g id="node18" class="node">
<title>Node18</title>
<g id="a_node18"><a xlink:href="../../db/da1/Fun4All__G4__TPC_8C.html#af60bcd3cf09ebd567e28ede14e9e894a" target="_top" xlink:title="Fun4All_G4_TPC">
<polygon fill="none" stroke="#000000" points="239,-429.5 239,-449.5 336,-449.5 336,-429.5 239,-429.5"/>
<text text-anchor="middle" x="287.5" y="-436.5" font-family="FreeSans" font-size="10.00" fill="#000000">Fun4All_G4_TPC</text>
</a>
</g>
</g>
<!-- Node1&#45;&gt;Node18 -->
<g id="edge17" class="edge">
<title>Node1&#45;&gt;Node18</title>
<path fill="none" stroke="#191970" d="M108.3943,-525.7136C131.377,-505.4496 167.6258,-476.4743 204,-459.5 214.8065,-454.4571 227.0132,-450.6128 238.6897,-447.7106"/>
<polygon fill="#191970" stroke="#191970" points="105.9508,-523.2035 100.8398,-532.484 110.6227,-528.4164 105.9508,-523.2035"/>
</g>
<!-- Node19 -->
<g id="node19" class="node">
<title>Node19</title>
<g id="a_node19"><a xlink:href="../../d9/d0f/Fun4All__ImportGeom_8C.html#a3388968a8dae60e9eb62b1126f747b6a" target="_top" xlink:title="Read in a Geometry file, and output DST and ROOT TGeo files.">
<polygon fill="none" stroke="#000000" points="226.5,-390.5 226.5,-410.5 348.5,-410.5 348.5,-390.5 226.5,-390.5"/>
<text text-anchor="middle" x="287.5" y="-397.5" font-family="FreeSans" font-size="10.00" fill="#000000">Fun4All_ImportGeom</text>
</a>
</g>
</g>
<!-- Node1&#45;&gt;Node19 -->
<g id="edge18" class="edge">
<title>Node1&#45;&gt;Node19</title>
<path fill="none" stroke="#191970" d="M100.2336,-523.8708C120.8316,-494.6361 159.1275,-446.5731 204,-420.5 211.0888,-416.381 218.9858,-413.1088 227.0166,-410.5096"/>
<polygon fill="#191970" stroke="#191970" points="97.2202,-522.0753 94.4217,-532.2939 102.9818,-526.0508 97.2202,-522.0753"/>
</g>
<!-- Node20 -->
<g id="node20" class="node">
<title>Node20</title>
<g id="a_node20"><a xlink:href="../../de/d6b/Fun4All__MCEventGen_8C.html#a4e6d2272e7266684626c0653520558ef" target="_top" xlink:title="Fun4All_MCEventGen">
<polygon fill="none" stroke="#000000" points="226,-351.5 226,-371.5 349,-371.5 349,-351.5 226,-351.5"/>
<text text-anchor="middle" x="287.5" y="-358.5" font-family="FreeSans" font-size="10.00" fill="#000000">Fun4All_MCEventGen</text>
</a>
</g>
</g>
<!-- Node1&#45;&gt;Node20 -->
<g id="edge19" class="edge">
<title>Node1&#45;&gt;Node20</title>
<path fill="none" stroke="#191970" d="M94.9642,-523.3578C112.4554,-486.3187 150.2663,-417.5872 204,-381.5 210.5586,-377.0953 217.9806,-373.6571 225.6272,-370.9741"/>
<polygon fill="#191970" stroke="#191970" points="91.7663,-521.9348 90.765,-532.4822 98.1252,-524.8613 91.7663,-521.9348"/>
</g>
<!-- Node21 -->
<g id="node21" class="node">
<title>Node21</title>
<g id="a_node21"><a xlink:href="../../d7/d65/Fun4All__Pythia6_8C.html#aef86c866396545237e0781d2226bd6a5" target="_top" xlink:title="Fun4All_Pythia6">
<polygon fill="none" stroke="#000000" points="239.5,-312.5 239.5,-332.5 335.5,-332.5 335.5,-312.5 239.5,-312.5"/>
<text text-anchor="middle" x="287.5" y="-319.5" font-family="FreeSans" font-size="10.00" fill="#000000">Fun4All_Pythia6</text>
</a>
</g>
</g>
<!-- Node1&#45;&gt;Node21 -->
<g id="edge20" class="edge">
<title>Node1&#45;&gt;Node21</title>
<path fill="none" stroke="#191970" d="M91.5928,-522.7221C105.9575,-478.6346 141.4188,-389.0175 204,-342.5 214.169,-334.9412 226.7906,-330.1971 239.115,-327.2317"/>
<polygon fill="#191970" stroke="#191970" points="88.2098,-521.8123 88.5416,-532.4019 94.886,-523.9167 88.2098,-521.8123"/>
</g>
<!-- Node22 -->
<g id="node22" class="node">
<title>Node22</title>
<g id="a_node22"><a xlink:href="../../d4/d65/Fun4All__single__particle_8C.html#a8a492b5dbead494bfdddbebde8a49b0e" target="_top" xlink:title="Fun4All_single_particle">
<polygon fill="none" stroke="#000000" points="221.5,-273.5 221.5,-293.5 353.5,-293.5 353.5,-273.5 221.5,-273.5"/>
<text text-anchor="middle" x="287.5" y="-280.5" font-family="FreeSans" font-size="10.00" fill="#000000">Fun4All_single_particle</text>
</a>
</g>
</g>
<!-- Node1&#45;&gt;Node22 -->
<g id="edge21" class="edge">
<title>Node1&#45;&gt;Node22</title>
<path fill="none" stroke="#191970" d="M89.0534,-522.6017C100.2845,-472.2327 132.209,-360.9891 204,-303.5 209.1197,-299.4002 214.9461,-296.119 221.0852,-293.4959"/>
<polygon fill="#191970" stroke="#191970" points="85.6299,-521.8742 86.9639,-532.3847 92.4755,-523.3363 85.6299,-521.8742"/>
</g>
<!-- Node23 -->
<g id="node23" class="node">
<title>Node23</title>
<g id="a_node23"><a xlink:href="../../d1/db8/analysis_2blob_2master_2MvtxTelescope_2AnaMvtxPrototype1_2macro_2Fun4All__TestBeam_8C.html#a89e0e05f7fe09176341b2c656b4cec1b" target="_top" xlink:title="Fun4All_TestBeam">
<polygon fill="none" stroke="#000000" points="233.5,-234.5 233.5,-254.5 341.5,-254.5 341.5,-234.5 233.5,-234.5"/>
<text text-anchor="middle" x="287.5" y="-241.5" font-family="FreeSans" font-size="10.00" fill="#000000">Fun4All_TestBeam</text>
</a>
</g>
</g>
<!-- Node1&#45;&gt;Node23 -->
<g id="edge22" class="edge">
<title>Node1&#45;&gt;Node23</title>
<path fill="none" stroke="#191970" d="M87.2021,-522.1641C95.5016,-465.8161 123.0344,-333.1201 204,-264.5 212.3014,-257.4644 222.6581,-252.815 233.223,-249.763"/>
<polygon fill="#191970" stroke="#191970" points="83.6931,-521.9886 85.7885,-532.3742 90.627,-522.9487 83.6931,-521.9886"/>
</g>
<!-- Node24 -->
<g id="node24" class="node">
<title>Node24</title>
<g id="a_node24"><a xlink:href="../../df/d20/Fun4All__TestBeam__TPC_8C.html#ab5c55528b75bbb40d3cf6df86cfd8ac1" target="_top" xlink:title="Fun4All_TestBeam_TPC">
<polygon fill="none" stroke="#000000" points="221.5,-195.5 221.5,-215.5 353.5,-215.5 353.5,-195.5 221.5,-195.5"/>
<text text-anchor="middle" x="287.5" y="-202.5" font-family="FreeSans" font-size="10.00" fill="#000000">Fun4All_TestBeam_TPC</text>
</a>
</g>
</g>
<!-- Node1&#45;&gt;Node24 -->
<g id="edge23" class="edge">
<title>Node1&#45;&gt;Node24</title>
<path fill="none" stroke="#191970" d="M85.665,-522.4658C91.0532,-460.9529 113.4021,-305.7796 204,-225.5 209.1321,-220.9524 215.1158,-217.3934 221.4795,-214.6144"/>
<polygon fill="#191970" stroke="#191970" points="82.1711,-522.2502 84.8667,-532.4964 89.1491,-522.8056 82.1711,-522.2502"/>
</g>
<!-- Node25 -->
<g id="node25" class="node">
<title>Node25</title>
<g id="a_node25"><a xlink:href="../../d9/da0/G4TTree_8C.html#a7e873c78b05882087e257d133fde3c67" target="_top" xlink:title="G4TTree">
<polygon fill="none" stroke="#000000" points="259,-156.5 259,-176.5 316,-176.5 316,-156.5 259,-156.5"/>
<text text-anchor="middle" x="287.5" y="-163.5" font-family="FreeSans" font-size="10.00" fill="#000000">G4TTree</text>
</a>
</g>
</g>
<!-- Node1&#45;&gt;Node25 -->
<g id="edge24" class="edge">
<title>Node1&#45;&gt;Node25</title>
<path fill="none" stroke="#191970" d="M89.235,-522.3671C104.7745,-447.3278 152.7571,-233.5624 204,-186.5 218.7117,-172.9885 240.9,-168.1422 258.707,-166.5916"/>
<polygon fill="#191970" stroke="#191970" points="85.7588,-521.8966 87.1812,-532.3955 92.6165,-523.3011 85.7588,-521.8966"/>
</g>
<!-- Node26 -->
<g id="node26" class="node">
<title>Node26</title>
<g id="a_node26"><a xlink:href="../../dc/dad/generate__hepmc__bjet_8C.html#a43ba01d330c72134968f8e6fddb1790a" target="_top" xlink:title="generate_hepmc_bjet">
<polygon fill="none" stroke="#000000" points="224,-117.5 224,-137.5 351,-137.5 351,-117.5 224,-117.5"/>
<text text-anchor="middle" x="287.5" y="-124.5" font-family="FreeSans" font-size="10.00" fill="#000000">generate_hepmc_bjet</text>
</a>
</g>
</g>
<!-- Node1&#45;&gt;Node26 -->
<g id="edge25" class="edge">
<title>Node1&#45;&gt;Node26</title>
<path fill="none" stroke="#191970" d="M88.4512,-521.7564C102.4562,-440.7589 148.0304,-200.437 204,-147.5 209.6315,-142.1736 216.4204,-138.1859 223.6642,-135.2127"/>
<polygon fill="#191970" stroke="#191970" points="84.9196,-521.6456 86.6868,-532.092 91.8197,-522.8236 84.9196,-521.6456"/>
</g>
<!-- Node27 -->
<g id="node27" class="node">
<title>Node27</title>
<g id="a_node27"><a xlink:href="../../d0/d99/Jin__BJet_8C.html#a36169bfee2ed7efda633944d12aebad9" target="_top" xlink:title="Jin_BJet">
<polygon fill="none" stroke="#000000" points="260,-78.5 260,-98.5 315,-98.5 315,-78.5 260,-78.5"/>
<text text-anchor="middle" x="287.5" y="-85.5" font-family="FreeSans" font-size="10.00" fill="#000000">Jin_BJet</text>
</a>
</g>
</g>
<!-- Node1&#45;&gt;Node27 -->
<g id="edge26" class="edge">
<title>Node1&#45;&gt;Node27</title>
<path fill="none" stroke="#191970" d="M87.6148,-522.3319C99.9458,-436.8046 142.9981,-167.6301 204,-108.5 218.6638,-94.2862 241.5465,-89.5578 259.6517,-88.2331"/>
<polygon fill="#191970" stroke="#191970" points="84.1135,-522.0939 86.1714,-532.487 91.0439,-523.079 84.1135,-522.0939"/>
</g>
<!-- Node28 -->
<g id="node28" class="node">
<title>Node28</title>
<g id="a_node28"><a xlink:href="../../d6/dc1/MakeTree_8C.html#a53b8088628309d5abb10a7aaf0d33b7a" target="_top" xlink:title="MakeTree">
<polygon fill="none" stroke="#000000" points="255.5,-39.5 255.5,-59.5 319.5,-59.5 319.5,-39.5 255.5,-39.5"/>
<text text-anchor="middle" x="287.5" y="-46.5" font-family="FreeSans" font-size="10.00" fill="#000000">MakeTree</text>
</a>
</g>
</g>
<!-- Node1&#45;&gt;Node28 -->
<g id="edge27" class="edge">
<title>Node1&#45;&gt;Node28</title>
<path fill="none" stroke="#191970" d="M86.9853,-522.4091C97.8374,-432.0982 138.0541,-134.765 204,-69.5 217.3498,-56.288 237.7861,-51.2366 255.0992,-49.5133"/>
<polygon fill="#191970" stroke="#191970" points="83.5065,-522.025 85.8077,-532.3668 90.458,-522.8471 83.5065,-522.025"/>
</g>
<!-- Node29 -->
<g id="node29" class="node">
<title>Node29</title>
<g id="a_node29"><a xlink:href="../../d5/d5a/block_2MyHitTTree_8C.html#a9e8ef49a847a7526e0c19d923a0486a7" target="_top" xlink:title="MyHitTTree">
<polygon fill="none" stroke="#000000" points="251.5,-.5 251.5,-20.5 323.5,-20.5 323.5,-.5 251.5,-.5"/>
<text text-anchor="middle" x="287.5" y="-7.5" font-family="FreeSans" font-size="10.00" fill="#000000">MyHitTTree</text>
</a>
</g>
</g>
<!-- Node1&#45;&gt;Node29 -->
<g id="edge28" class="edge">
<title>Node1&#45;&gt;Node29</title>
<path fill="none" stroke="#191970" d="M86.4782,-522.2029C95.9805,-426.9557 133.1573,-101.8723 204,-30.5 216.2864,-18.1217 234.7836,-12.8804 251.2481,-10.838"/>
<polygon fill="#191970" stroke="#191970" points="82.9704,-522.1121 85.4793,-532.4056 89.9371,-522.7943 82.9704,-522.1121"/>
</g>
</g>
</svg>
