<?xml version="1.0" encoding="UTF-8" standalone="no"?>
<!DOCTYPE svg PUBLIC "-//W3C//DTD SVG 1.1//EN"
 "http://www.w3.org/Graphics/SVG/1.1/DTD/svg11.dtd">
<!-- Generated by graphviz version 2.40.1 (20161225.0304)
 -->
<!-- Title: Fun4AllServer::outfileclose Pages: 1 -->
<svg width="510pt" height="2018pt"
 viewBox="0.00 0.00 510.00 2018.00" xmlns="http://www.w3.org/2000/svg" xmlns:xlink="http://www.w3.org/1999/xlink">
<g id="graph0" class="graph" transform="scale(1 1) rotate(0) translate(4 2014)">
<title>Fun4AllServer::outfileclose</title>
<!-- Node1 -->
<g id="node1" class="node">
<title>Node1</title>
<polygon fill="#bfbfbf" stroke="#000000" points="0,-973.5 0,-993.5 151,-993.5 151,-973.5 0,-973.5"/>
<text text-anchor="middle" x="75.5" y="-980.5" font-family="FreeSans" font-size="10.00" fill="#000000">Fun4AllServer::outfileclose</text>
</g>
<!-- Node2 -->
<g id="node2" class="node">
<title>Node2</title>
<g id="a_node2"><a xlink:href="../../da/d29/classFun4AllServer.html#ab7263450319ca1d5029209fde26a7af8" target="_top" xlink:title="Fun4AllServer::End">
<polygon fill="none" stroke="#ff0000" points="187,-973.5 187,-993.5 299,-993.5 299,-973.5 187,-973.5"/>
<text text-anchor="middle" x="243" y="-980.5" font-family="FreeSans" font-size="10.00" fill="#000000">Fun4AllServer::End</text>
</a>
</g>
</g>
<!-- Node1&#45;&gt;Node2 -->
<g id="edge1" class="edge">
<title>Node1&#45;&gt;Node2</title>
<path fill="none" stroke="#191970" d="M161.5165,-983.5C170.1329,-983.5 178.7174,-983.5 186.9047,-983.5"/>
<polygon fill="#191970" stroke="#191970" points="161.4087,-980.0001 151.4087,-983.5 161.4086,-987.0001 161.4087,-980.0001"/>
</g>
<!-- Node3 -->
<g id="node3" class="node">
<title>Node3</title>
<g id="a_node3"><a xlink:href="../../dd/d9c/AnalyzeTree_8C.html#af10d516ac25cd720d54534a63ef7e2f8" target="_top" xlink:title="AnalyzeTree">
<polygon fill="none" stroke="#000000" points="379.5,-1989.5 379.5,-2009.5 457.5,-2009.5 457.5,-1989.5 379.5,-1989.5"/>
<text text-anchor="middle" x="418.5" y="-1996.5" font-family="FreeSans" font-size="10.00" fill="#000000">AnalyzeTree</text>
</a>
</g>
</g>
<!-- Node2&#45;&gt;Node3 -->
<g id="edge2" class="edge">
<title>Node2&#45;&gt;Node3</title>
<path fill="none" stroke="#191970" d="M243.4699,-1003.9971C246.7607,-1139.5853 268.212,-1904.2799 335,-1980.5 345.9737,-1993.0235 363.3279,-1998.2256 379.3791,-2000.1156"/>
<polygon fill="#191970" stroke="#191970" points="246.9637,-1003.6918 243.2277,-993.7775 239.9657,-1003.8577 246.9637,-1003.6918"/>
</g>
<!-- Node4 -->
<g id="node4" class="node">
<title>Node4</title>
<g id="a_node4"><a xlink:href="../../d3/d7f/Fun_8C.html#af69a3eef3ff244bb51f5740c6ecb5432" target="_top" xlink:title="Fun">
<polygon fill="none" stroke="#000000" points="401.5,-1950.5 401.5,-1970.5 435.5,-1970.5 435.5,-1950.5 401.5,-1950.5"/>
<text text-anchor="middle" x="418.5" y="-1957.5" font-family="FreeSans" font-size="10.00" fill="#000000">Fun</text>
</a>
</g>
</g>
<!-- Node2&#45;&gt;Node4 -->
<g id="edge3" class="edge">
<title>Node2&#45;&gt;Node4</title>
<path fill="none" stroke="#191970" d="M243.551,-1004.0048C247.2939,-1136.5001 270.7974,-1868.505 335,-1941.5 351.3973,-1960.1429 381.9349,-1962.5481 401.1862,-1961.9673"/>
<polygon fill="#191970" stroke="#191970" points="247.0407,-1003.5805 243.2655,-993.6811 240.0434,-1003.7741 247.0407,-1003.5805"/>
</g>
<!-- Node5 -->
<g id="node5" class="node">
<title>Node5</title>
<g id="a_node5"><a xlink:href="../../dc/ddc/Fun4All__Ana_8C.html#a9152007c2477efc543d79f3b97fbf50c" target="_top" xlink:title="Fun4All_Ana">
<polygon fill="none" stroke="#000000" points="379.5,-1911.5 379.5,-1931.5 457.5,-1931.5 457.5,-1911.5 379.5,-1911.5"/>
<text text-anchor="middle" x="418.5" y="-1918.5" font-family="FreeSans" font-size="10.00" fill="#000000">Fun4All_Ana</text>
</a>
</g>
</g>
<!-- Node2&#45;&gt;Node5 -->
<g id="edge4" class="edge">
<title>Node2&#45;&gt;Node5</title>
<path fill="none" stroke="#191970" d="M243.6247,-1003.572C247.7923,-1131.753 273.3098,-1832.6463 335,-1902.5 346.0222,-1914.9808 363.3824,-1920.1776 379.4252,-1922.075"/>
<polygon fill="#191970" stroke="#191970" points="247.1226,-1003.4474 243.3053,-993.5642 240.1261,-1003.6708 247.1226,-1003.4474"/>
</g>
<!-- Node6 -->
<g id="node6" class="node">
<title>Node6</title>
<g id="a_node6"><a xlink:href="../../df/d77/Fun4All__CaloAna_8C.html#a4f0841e3d8be48f96cc4e95380315ff8" target="_top" xlink:title="Fun4All_CaloAna">
<polygon fill="none" stroke="#000000" points="368.5,-1872.5 368.5,-1892.5 468.5,-1892.5 468.5,-1872.5 368.5,-1872.5"/>
<text text-anchor="middle" x="418.5" y="-1879.5" font-family="FreeSans" font-size="10.00" fill="#000000">Fun4All_CaloAna</text>
</a>
</g>
</g>
<!-- Node2&#45;&gt;Node6 -->
<g id="edge5" class="edge">
<title>Node2&#45;&gt;Node6</title>
<path fill="none" stroke="#191970" d="M243.7295,-1003.8769C248.4118,-1129.6245 275.9376,-1796.9171 335,-1863.5 343.4845,-1873.0649 355.6918,-1878.3476 368.1631,-1881.1458"/>
<polygon fill="#191970" stroke="#191970" points="247.2212,-1003.5833 243.3575,-993.7181 240.2259,-1003.8395 247.2212,-1003.5833"/>
</g>
<!-- Node7 -->
<g id="node7" class="node">
<title>Node7</title>
<g id="a_node7"><a xlink:href="../../da/dae/Fun4All__EICAnalysis__DIS_8C.html#a6be6c58cd68a395182a998295a1106ae" target="_top" xlink:title="Fun4All_EICAnalysis_DIS">
<polygon fill="none" stroke="#000000" points="349,-1833.5 349,-1853.5 488,-1853.5 488,-1833.5 349,-1833.5"/>
<text text-anchor="middle" x="418.5" y="-1840.5" font-family="FreeSans" font-size="10.00" fill="#000000">Fun4All_EICAnalysis_DIS</text>
</a>
</g>
</g>
<!-- Node2&#45;&gt;Node7 -->
<g id="edge6" class="edge">
<title>Node2&#45;&gt;Node7</title>
<path fill="none" stroke="#191970" d="M243.8265,-1003.7231C248.9943,-1125.7832 278.49,-1761.1012 335,-1824.5 338.9569,-1828.9393 343.7159,-1832.4552 348.9297,-1835.2279"/>
<polygon fill="#191970" stroke="#191970" points="247.316,-1003.395 243.4023,-993.5495 240.3221,-1003.6867 247.316,-1003.395"/>
</g>
<!-- Node8 -->
<g id="node8" class="node">
<title>Node8</title>
<g id="a_node8"><a xlink:href="../../d2/d9b/Fun4All__EICAnalysis__DISReco_8C.html#a3c160743ec7b9b4572cf73a19640a34f" target="_top" xlink:title="Fun4All_EICAnalysis\l_DISReco">
<polygon fill="none" stroke="#000000" points="360,-1782.5 360,-1814.5 477,-1814.5 477,-1782.5 360,-1782.5"/>
<text text-anchor="start" x="368" y="-1801.5" font-family="FreeSans" font-size="10.00" fill="#000000">Fun4All_EICAnalysis</text>
<text text-anchor="middle" x="418.5" y="-1789.5" font-family="FreeSans" font-size="10.00" fill="#000000">_DISReco</text>
</a>
</g>
</g>
<!-- Node2&#45;&gt;Node8 -->
<g id="edge7" class="edge">
<title>Node2&#45;&gt;Node8</title>
<path fill="none" stroke="#191970" d="M244.0484,-1003.8991C250.2784,-1121.7712 283.9055,-1712.5807 335,-1773.5 341.5153,-1781.2681 350.3397,-1786.6825 359.8183,-1790.4431"/>
<polygon fill="#191970" stroke="#191970" points="247.5344,-1003.5379 243.5175,-993.7341 240.5439,-1003.903 247.5344,-1003.5379"/>
</g>
<!-- Node9 -->
<g id="node9" class="node">
<title>Node9</title>
<g id="a_node9"><a xlink:href="../../d2/d47/Fun4All__EICAnalysis__DVCS_8C.html#a84f48142243e969fd353cc8509f0ba22" target="_top" xlink:title="Fun4All_EICAnalysis_DVCS">
<polygon fill="none" stroke="#000000" points="343.5,-1743.5 343.5,-1763.5 493.5,-1763.5 493.5,-1743.5 343.5,-1743.5"/>
<text text-anchor="middle" x="418.5" y="-1750.5" font-family="FreeSans" font-size="10.00" fill="#000000">Fun4All_EICAnalysis_DVCS</text>
</a>
</g>
</g>
<!-- Node2&#45;&gt;Node9 -->
<g id="edge8" class="edge">
<title>Node2&#45;&gt;Node9</title>
<path fill="none" stroke="#191970" d="M244.0997,-1003.6451C250.4988,-1117.6169 284.4114,-1678.4782 335,-1734.5 338.1885,-1738.0309 341.8845,-1740.9759 345.9114,-1743.4264"/>
<polygon fill="#191970" stroke="#191970" points="247.5868,-1003.3132 243.5382,-993.5224 240.5975,-1003.7009 247.5868,-1003.3132"/>
</g>
<!-- Node10 -->
<g id="node10" class="node">
<title>Node10</title>
<g id="a_node10"><a xlink:href="../../d3/dee/Fun4All__EICAnalysis__Exclusive_8C.html#ad3a88bfdb2a21a757edf221e36d6bffe" target="_top" xlink:title="Fun4All_EICAnalysis\l_Exclusive">
<polygon fill="none" stroke="#000000" points="360,-1692.5 360,-1724.5 477,-1724.5 477,-1692.5 360,-1692.5"/>
<text text-anchor="start" x="368" y="-1711.5" font-family="FreeSans" font-size="10.00" fill="#000000">Fun4All_EICAnalysis</text>
<text text-anchor="middle" x="418.5" y="-1699.5" font-family="FreeSans" font-size="10.00" fill="#000000">_Exclusive</text>
</a>
</g>
</g>
<!-- Node2&#45;&gt;Node10 -->
<g id="edge9" class="edge">
<title>Node2&#45;&gt;Node10</title>
<path fill="none" stroke="#191970" d="M244.3461,-1003.5776C251.8205,-1112.5539 289.5303,-1630.0918 335,-1683.5 341.5724,-1691.2199 350.424,-1696.6113 359.9117,-1700.3642"/>
<polygon fill="#191970" stroke="#191970" points="247.8368,-1003.3213 243.6671,-993.5815 240.8529,-1003.7957 247.8368,-1003.3213"/>
</g>
<!-- Node11 -->
<g id="node11" class="node">
<title>Node11</title>
<g id="a_node11"><a xlink:href="../../d2/d00/Fun4All__EICAnalysis__Leptoquarks_8C.html#a328697c2ae82c0b33f95bea9aefb93f4" target="_top" xlink:title="Fun4All_EICAnalysis\l_Leptoquarks">
<polygon fill="none" stroke="#000000" points="360,-1641.5 360,-1673.5 477,-1673.5 477,-1641.5 360,-1641.5"/>
<text text-anchor="start" x="368" y="-1660.5" font-family="FreeSans" font-size="10.00" fill="#000000">Fun4All_EICAnalysis</text>
<text text-anchor="middle" x="418.5" y="-1648.5" font-family="FreeSans" font-size="10.00" fill="#000000">_Leptoquarks</text>
</a>
</g>
</g>
<!-- Node2&#45;&gt;Node11 -->
<g id="edge10" class="edge">
<title>Node2&#45;&gt;Node11</title>
<path fill="none" stroke="#191970" d="M244.6005,-1004.0535C252.9562,-1109.1487 292.7986,-1583.4368 335,-1632.5 341.6114,-1640.1864 350.4817,-1645.5619 359.9755,-1649.3096"/>
<polygon fill="#191970" stroke="#191970" points="248.07,-1003.5267 243.7951,-993.8326 241.0916,-1004.0766 248.07,-1003.5267"/>
</g>
<!-- Node12 -->
<g id="node12" class="node">
<title>Node12</title>
<g id="a_node12"><a xlink:href="../../df/d6c/Fun4All__EICAnalysis__JPsi_8C.html#ad03644e8a25c5261146f6c59826ed6d0" target="_top" xlink:title="Fun4All_EICAnalysis\l_Quarkonia">
<polygon fill="none" stroke="#000000" points="360,-1590.5 360,-1622.5 477,-1622.5 477,-1590.5 360,-1590.5"/>
<text text-anchor="start" x="368" y="-1609.5" font-family="FreeSans" font-size="10.00" fill="#000000">Fun4All_EICAnalysis</text>
<text text-anchor="middle" x="418.5" y="-1597.5" font-family="FreeSans" font-size="10.00" fill="#000000">_Quarkonia</text>
</a>
</g>
</g>
<!-- Node2&#45;&gt;Node12 -->
<g id="edge11" class="edge">
<title>Node2&#45;&gt;Node12</title>
<path fill="none" stroke="#191970" d="M243.3107,-1003.939C245.1567,-1098.4655 257.4603,-1492.424 335,-1581.5 341.5574,-1589.0331 350.2837,-1594.3436 359.6247,-1598.0768"/>
<polygon fill="#191970" stroke="#191970" points="246.8102,-1003.8728 243.1338,-993.9363 239.8113,-1003.9967 246.8102,-1003.8728"/>
</g>
<!-- Node13 -->
<g id="node13" class="node">
<title>Node13</title>
<g id="a_node13"><a xlink:href="../../df/d90/Fun4All__EICAnalysis__TrackEval_8C.html#ab4d10c3db3266243a5c314b02c02a360" target="_top" xlink:title="Fun4All_EICAnalysis\l_TrackEval">
<polygon fill="none" stroke="#000000" points="360,-1539.5 360,-1571.5 477,-1571.5 477,-1539.5 360,-1539.5"/>
<text text-anchor="start" x="368" y="-1558.5" font-family="FreeSans" font-size="10.00" fill="#000000">Fun4All_EICAnalysis</text>
<text text-anchor="middle" x="418.5" y="-1546.5" font-family="FreeSans" font-size="10.00" fill="#000000">_TrackEval</text>
</a>
</g>
</g>
<!-- Node2&#45;&gt;Node13 -->
<g id="edge12" class="edge">
<title>Node2&#45;&gt;Node13</title>
<path fill="none" stroke="#191970" d="M243.6403,-1004.1509C246.836,-1093.994 263.868,-1449.9293 335,-1530.5 341.6099,-1537.987 350.3616,-1543.2752 359.7114,-1547.0008"/>
<polygon fill="#191970" stroke="#191970" points="247.1303,-1003.7928 243.2964,-993.916 240.1343,-1004.0279 247.1303,-1003.7928"/>
</g>
<!-- Node14 -->
<g id="node14" class="node">
<title>Node14</title>
<g id="a_node14"><a xlink:href="../../de/dc8/Fun4All__EMCalLikelihood_8C.html#a209f0d5788c9d3adba2967f194bca64a" target="_top" xlink:title="Fun4All_EMCalLikelihood">
<polygon fill="none" stroke="#000000" points="348,-1500.5 348,-1520.5 489,-1520.5 489,-1500.5 348,-1500.5"/>
<text text-anchor="middle" x="418.5" y="-1507.5" font-family="FreeSans" font-size="10.00" fill="#000000">Fun4All_EMCalLikelihood</text>
</a>
</g>
</g>
<!-- Node2&#45;&gt;Node14 -->
<g id="edge13" class="edge">
<title>Node2&#45;&gt;Node14</title>
<path fill="none" stroke="#191970" d="M243.7843,-1003.8691C247.5019,-1089.5397 266.1488,-1419.5093 335,-1491.5 338.6993,-1495.3679 343.0093,-1498.5238 347.6853,-1501.0912"/>
<polygon fill="#191970" stroke="#191970" points="247.2721,-1003.5 243.3629,-993.6527 240.2781,-1003.7885 247.2721,-1003.5"/>
</g>
<!-- Node15 -->
<g id="node15" class="node">
<title>Node15</title>
<g id="a_node15"><a xlink:href="../../df/d51/Fun4All__ExportGeom_8C.html#a582925c51bad38d562cf19e71211adfd" target="_top" xlink:title="get geometry from DST file and output TGeoManager ROOT files or other formats of geometry files...">
<polygon fill="none" stroke="#000000" points="357.5,-1461.5 357.5,-1481.5 479.5,-1481.5 479.5,-1461.5 357.5,-1461.5"/>
<text text-anchor="middle" x="418.5" y="-1468.5" font-family="FreeSans" font-size="10.00" fill="#000000">Fun4All_ExportGeom</text>
</a>
</g>
</g>
<!-- Node2&#45;&gt;Node15 -->
<g id="edge14" class="edge">
<title>Node2&#45;&gt;Node15</title>
<path fill="none" stroke="#191970" d="M244.1316,-1004.1023C249.0476,-1085.943 271.2493,-1386.8054 335,-1452.5 341.1086,-1458.7949 348.8367,-1463.1974 357.1133,-1466.2455"/>
<polygon fill="#191970" stroke="#191970" points="247.5999,-1003.4522 243.5288,-993.6707 240.6116,-1003.856 247.5999,-1003.4522"/>
</g>
<!-- Node16 -->
<g id="node16" class="node">
<title>Node16</title>
<g id="a_node16"><a xlink:href="../../de/d55/Fun4All__G4__block_8C.html#a6a063a649a0dd3318a517d5af98430dd" target="_top" xlink:title="Fun4All_G4_block">
<polygon fill="none" stroke="#000000" points="366,-1422.5 366,-1442.5 471,-1442.5 471,-1422.5 366,-1422.5"/>
<text text-anchor="middle" x="418.5" y="-1429.5" font-family="FreeSans" font-size="10.00" fill="#000000">Fun4All_G4_block</text>
</a>
</g>
</g>
<!-- Node2&#45;&gt;Node16 -->
<g id="edge15" class="edge">
<title>Node2&#45;&gt;Node16</title>
<path fill="none" stroke="#191970" d="M244.509,-1003.863C250.6392,-1081.0075 276.2081,-1353.9412 335,-1413.5 343.251,-1421.8586 354.3613,-1426.8678 365.7804,-1429.7987"/>
<polygon fill="#191970" stroke="#191970" points="247.9751,-1003.287 243.7168,-993.5856 240.9958,-1003.8251 247.9751,-1003.287"/>
</g>
<!-- Node17 -->
<g id="node17" class="node">
<title>Node17</title>
<g id="a_node17"><a xlink:href="../../d8/d91/Fun4All__G4__Clusters_8C.html#ab7d8e64f12f512631d4c0e8c6683ec5b" target="_top" xlink:title="Fun4All_G4_Clusters">
<polygon fill="none" stroke="#000000" points="359,-1383.5 359,-1403.5 478,-1403.5 478,-1383.5 359,-1383.5"/>
<text text-anchor="middle" x="418.5" y="-1390.5" font-family="FreeSans" font-size="10.00" fill="#000000">Fun4All_G4_Clusters</text>
</a>
</g>
</g>
<!-- Node2&#45;&gt;Node17 -->
<g id="edge16" class="edge">
<title>Node2&#45;&gt;Node17</title>
<path fill="none" stroke="#191970" d="M244.9778,-1003.874C252.4365,-1076.4822 281.2098,-1321.104 335,-1374.5 341.5417,-1380.9938 349.8125,-1385.4566 358.5911,-1388.4913"/>
<polygon fill="#191970" stroke="#191970" points="248.4434,-1003.3544 243.9632,-993.7534 241.4783,-1004.0527 248.4434,-1003.3544"/>
</g>
<!-- Node18 -->
<g id="node18" class="node">
<title>Node18</title>
<g id="a_node18"><a xlink:href="../../d2/dee/Fun4All__G4__Cylinder_8C.html#a271dc4f10f6f77107705e0efef0c97e5" target="_top" xlink:title="Fun4All_G4_Cylinder">
<polygon fill="none" stroke="#000000" points="358,-1344.5 358,-1364.5 479,-1364.5 479,-1344.5 358,-1344.5"/>
<text text-anchor="middle" x="418.5" y="-1351.5" font-family="FreeSans" font-size="10.00" fill="#000000">Fun4All_G4_Cylinder</text>
</a>
</g>
</g>
<!-- Node2&#45;&gt;Node18 -->
<g id="edge17" class="edge">
<title>Node2&#45;&gt;Node18</title>
<path fill="none" stroke="#191970" d="M245.5631,-1004.0036C254.469,-1071.9714 286.2134,-1288.2458 335,-1335.5 341.4074,-1341.7061 349.3981,-1346.0468 357.878,-1349.0556"/>
<polygon fill="#191970" stroke="#191970" points="248.9928,-1003.2309 244.2479,-993.758 242.0497,-1004.1223 248.9928,-1003.2309"/>
</g>
<!-- Node19 -->
<g id="node19" class="node">
<title>Node19</title>
<g id="a_node19"><a xlink:href="../../da/d02/Fun4All__G4__EICDetector_8C.html#afbe82cefa1d1fd031d9a8586b7bb68c6" target="_top" xlink:title="Fun4All_G4_EICDetector">
<polygon fill="none" stroke="#000000" points="349,-1305.5 349,-1325.5 488,-1325.5 488,-1305.5 349,-1305.5"/>
<text text-anchor="middle" x="418.5" y="-1312.5" font-family="FreeSans" font-size="10.00" fill="#000000">Fun4All_G4_EICDetector</text>
</a>
</g>
</g>
<!-- Node2&#45;&gt;Node19 -->
<g id="edge18" class="edge">
<title>Node2&#45;&gt;Node19</title>
<path fill="none" stroke="#191970" d="M246.2298,-1003.743C256.6221,-1066.3711 291.0924,-1255.2396 335,-1296.5 339.117,-1300.3688 343.8515,-1303.5076 348.9296,-1306.048"/>
<polygon fill="#191970" stroke="#191970" points="249.6367,-1002.8883 244.5726,-993.5821 242.728,-1004.0151 249.6367,-1002.8883"/>
</g>
<!-- Node20 -->
<g id="node20" class="node">
<title>Node20</title>
<g id="a_node20"><a xlink:href="../../dd/d2a/Fun4All__G4__EICDetector__LQ_8C.html#aaa01242fd6e77ca43a9d49a6d46008e4" target="_top" xlink:title="Fun4All_G4_EICDetector_LQ">
<polygon fill="none" stroke="#000000" points="340.5,-1266.5 340.5,-1286.5 496.5,-1286.5 496.5,-1266.5 340.5,-1266.5"/>
<text text-anchor="middle" x="418.5" y="-1273.5" font-family="FreeSans" font-size="10.00" fill="#000000">Fun4All_G4_EICDetector_LQ</text>
</a>
</g>
</g>
<!-- Node2&#45;&gt;Node20 -->
<g id="edge19" class="edge">
<title>Node2&#45;&gt;Node20</title>
<path fill="none" stroke="#191970" d="M247.0589,-1003.4376C259.0494,-1060.4203 295.9247,-1222.1563 335,-1257.5 338.9693,-1261.0903 343.4735,-1264.0465 348.2837,-1266.476"/>
<polygon fill="#191970" stroke="#191970" points="250.4571,-1002.5872 244.9994,-993.5063 243.603,-1004.0087 250.4571,-1002.5872"/>
</g>
<!-- Node21 -->
<g id="node21" class="node">
<title>Node21</title>
<g id="a_node21"><a xlink:href="../../df/d4b/Fun4All__G4__EICDetector__LQ__analysis_8C.html#af903e98824d083a08b353ac15996ee0e" target="_top" xlink:title="Fun4All_G4_EICDetector\l_LQ_analysis">
<polygon fill="none" stroke="#000000" points="349,-1215.5 349,-1247.5 488,-1247.5 488,-1215.5 349,-1215.5"/>
<text text-anchor="start" x="357" y="-1234.5" font-family="FreeSans" font-size="10.00" fill="#000000">Fun4All_G4_EICDetector</text>
<text text-anchor="middle" x="418.5" y="-1222.5" font-family="FreeSans" font-size="10.00" fill="#000000">_LQ_analysis</text>
</a>
</g>
</g>
<!-- Node2&#45;&gt;Node21 -->
<g id="edge20" class="edge">
<title>Node2&#45;&gt;Node21</title>
<path fill="none" stroke="#191970" d="M245.4872,-1003.6238C251.9448,-1047.1652 273.278,-1150.6821 335,-1206.5 339.1527,-1210.2555 343.8493,-1213.4476 348.8457,-1216.1608"/>
<polygon fill="#191970" stroke="#191970" points="248.9507,-1003.1181 244.1222,-993.6876 242.0159,-1004.0709 248.9507,-1003.1181"/>
</g>
<!-- Node22 -->
<g id="node22" class="node">
<title>Node22</title>
<g id="a_node22"><a xlink:href="../../d1/daf/Fun4All__G4__EICDetector__LQ__analysis__nf_8C.html#a5022607d21247b87dd208b0828905147" target="_top" xlink:title="Fun4All_G4_EICDetector\l_LQ_analysis_nf">
<polygon fill="none" stroke="#000000" points="349,-1164.5 349,-1196.5 488,-1196.5 488,-1164.5 349,-1164.5"/>
<text text-anchor="start" x="357" y="-1183.5" font-family="FreeSans" font-size="10.00" fill="#000000">Fun4All_G4_EICDetector</text>
<text text-anchor="middle" x="418.5" y="-1171.5" font-family="FreeSans" font-size="10.00" fill="#000000">_LQ_analysis_nf</text>
</a>
</g>
</g>
<!-- Node2&#45;&gt;Node22 -->
<g id="edge21" class="edge">
<title>Node2&#45;&gt;Node22</title>
<path fill="none" stroke="#191970" d="M248.2073,-1003.6052C258.5484,-1039.5114 285.1011,-1114.7119 335,-1155.5 339.2178,-1158.9477 343.9006,-1161.9201 348.8342,-1164.4828"/>
<polygon fill="#191970" stroke="#191970" points="251.5383,-1002.5181 245.5105,-993.8051 244.7891,-1004.3753 251.5383,-1002.5181"/>
</g>
<!-- Node23 -->
<g id="node23" class="node">
<title>Node23</title>
<g id="a_node23"><a xlink:href="../../d4/df5/Fun4All__G4__EICDetector__LQ__reference_8C.html#a2feefc472f17f90b3cbe74897d049f75" target="_top" xlink:title="Fun4All_G4_EICDetector\l_LQ_reference">
<polygon fill="none" stroke="#000000" points="349,-1113.5 349,-1145.5 488,-1145.5 488,-1113.5 349,-1113.5"/>
<text text-anchor="start" x="357" y="-1132.5" font-family="FreeSans" font-size="10.00" fill="#000000">Fun4All_G4_EICDetector</text>
<text text-anchor="middle" x="418.5" y="-1120.5" font-family="FreeSans" font-size="10.00" fill="#000000">_LQ_reference</text>
</a>
</g>
</g>
<!-- Node2&#45;&gt;Node23 -->
<g id="edge22" class="edge">
<title>Node2&#45;&gt;Node23</title>
<path fill="none" stroke="#191970" d="M252.6081,-1002.8004C266.9153,-1029.5774 296.3361,-1077.7174 335,-1104.5 339.8514,-1107.8606 345.1625,-1110.7774 350.6807,-1113.3077"/>
<polygon fill="#191970" stroke="#191970" points="255.5863,-1000.9405 247.877,-993.673 249.3716,-1004.1619 255.5863,-1000.9405"/>
</g>
<!-- Node24 -->
<g id="node24" class="node">
<title>Node24</title>
<g id="a_node24"><a xlink:href="../../d3/d51/Fun4All__G4__EICDetector__RICH_8C.html#a5739502b0a7a1ba782c01069f77e933f" target="_top" xlink:title="Fun4All_G4_EICDetector_RICH">
<polygon fill="none" stroke="#000000" points="335,-1074.5 335,-1094.5 502,-1094.5 502,-1074.5 335,-1074.5"/>
<text text-anchor="middle" x="418.5" y="-1081.5" font-family="FreeSans" font-size="10.00" fill="#000000">Fun4All_G4_EICDetector_RICH</text>
</a>
</g>
</g>
<!-- Node2&#45;&gt;Node24 -->
<g id="edge23" class="edge">
<title>Node2&#45;&gt;Node24</title>
<path fill="none" stroke="#191970" d="M257.8254,-1001.2119C274.5999,-1020.0672 303.6883,-1049.3631 335,-1065.5 342.0041,-1069.1097 349.6871,-1072.0391 357.4676,-1074.4152"/>
<polygon fill="#191970" stroke="#191970" points="260.4189,-998.8603 251.2202,-993.6035 255.133,-1003.4494 260.4189,-998.8603"/>
</g>
<!-- Node25 -->
<g id="node25" class="node">
<title>Node25</title>
<g id="a_node25"><a xlink:href="../../d9/d0e/Fun4All__G4__EICIR_8C.html#ac3543d1dd4a0abed3987d40939ee3f87" target="_top" xlink:title="Fun4All_G4_EICIR">
<polygon fill="none" stroke="#000000" points="366.5,-1035.5 366.5,-1055.5 470.5,-1055.5 470.5,-1035.5 366.5,-1035.5"/>
<text text-anchor="middle" x="418.5" y="-1042.5" font-family="FreeSans" font-size="10.00" fill="#000000">Fun4All_G4_EICIR</text>
</a>
</g>
</g>
<!-- Node2&#45;&gt;Node25 -->
<g id="edge24" class="edge">
<title>Node2&#45;&gt;Node25</title>
<path fill="none" stroke="#191970" d="M270.8192,-998.407C288.7418,-1007.5288 312.7679,-1018.8731 335,-1026.5 344.9844,-1029.9253 355.8534,-1032.912 366.3483,-1035.4401"/>
<polygon fill="#191970" stroke="#191970" points="272.0302,-995.0929 261.5402,-993.6058 268.8132,-1001.3099 272.0302,-995.0929"/>
</g>
<!-- Node26 -->
<g id="node26" class="node">
<title>Node26</title>
<g id="a_node26"><a xlink:href="../../d7/d9e/Fun4All__G4__fsPHENIX_8C.html#af48911d394d2412e817583700f2bbee2" target="_top" xlink:title="Fun4All_G4_fsPHENIX">
<polygon fill="none" stroke="#000000" points="356.5,-996.5 356.5,-1016.5 480.5,-1016.5 480.5,-996.5 356.5,-996.5"/>
<text text-anchor="middle" x="418.5" y="-1003.5" font-family="FreeSans" font-size="10.00" fill="#000000">Fun4All_G4_fsPHENIX</text>
</a>
</g>
</g>
<!-- Node2&#45;&gt;Node26 -->
<g id="edge25" class="edge">
<title>Node2&#45;&gt;Node26</title>
<path fill="none" stroke="#191970" d="M309.0367,-992.1544C324.537,-994.1858 341.0017,-996.3435 356.3262,-998.3519"/>
<polygon fill="#191970" stroke="#191970" points="309.3819,-988.6698 299.0118,-990.8406 308.4722,-995.6104 309.3819,-988.6698"/>
</g>
<!-- Node27 -->
<g id="node27" class="node">
<title>Node27</title>
<g id="a_node27"><a xlink:href="../../da/d2f/Fun4All__G4__fsPHENIX__FastSim_8C.html#a66fb850cae5fcaadda23b74a25ce4c9c" target="_top" xlink:title="Fun4All_G4_fsPHENIX\l_FastSim">
<polygon fill="none" stroke="#000000" points="356.5,-945.5 356.5,-977.5 480.5,-977.5 480.5,-945.5 356.5,-945.5"/>
<text text-anchor="start" x="364.5" y="-964.5" font-family="FreeSans" font-size="10.00" fill="#000000">Fun4All_G4_fsPHENIX</text>
<text text-anchor="middle" x="418.5" y="-952.5" font-family="FreeSans" font-size="10.00" fill="#000000">_FastSim</text>
</a>
</g>
</g>
<!-- Node2&#45;&gt;Node27 -->
<g id="edge26" class="edge">
<title>Node2&#45;&gt;Node27</title>
<path fill="none" stroke="#191970" d="M309.0367,-975.2219C324.537,-973.2788 341.0017,-971.2149 356.3262,-969.2939"/>
<polygon fill="#191970" stroke="#191970" points="308.4988,-971.7618 299.0118,-976.4786 309.3695,-978.7075 308.4988,-971.7618"/>
</g>
<!-- Node28 -->
<g id="node28" class="node">
<title>Node28</title>
<g id="a_node28"><a xlink:href="../../d0/da6/Fun4All__G4__fsPHENIX__pi0_8C.html#a023d91d47b678e5d7f1751834aa517c6" target="_top" xlink:title="Fun4All_G4_fsPHENIX_pi0">
<polygon fill="none" stroke="#000000" points="346,-906.5 346,-926.5 491,-926.5 491,-906.5 346,-906.5"/>
<text text-anchor="middle" x="418.5" y="-913.5" font-family="FreeSans" font-size="10.00" fill="#000000">Fun4All_G4_fsPHENIX_pi0</text>
</a>
</g>
</g>
<!-- Node2&#45;&gt;Node28 -->
<g id="edge27" class="edge">
<title>Node2&#45;&gt;Node28</title>
<path fill="none" stroke="#191970" d="M268.5058,-968.39C286.5699,-958.2126 311.6454,-945.1231 335,-936.5 345.4879,-932.6276 356.9974,-929.3076 368.0297,-926.5486"/>
<polygon fill="#191970" stroke="#191970" points="266.6829,-965.4006 259.7447,-973.4076 270.1618,-971.4749 266.6829,-965.4006"/>
</g>
<!-- Node29 -->
<g id="node29" class="node">
<title>Node29</title>
<g id="a_node29"><a xlink:href="../../df/de1/Fun4All__G4__IonGun_8C.html#ab4966a2ae337cb8f0e45f7ee488e33b7" target="_top" xlink:title="Fun4All_G4_IonGun">
<polygon fill="none" stroke="#000000" points="361.5,-867.5 361.5,-887.5 475.5,-887.5 475.5,-867.5 361.5,-867.5"/>
<text text-anchor="middle" x="418.5" y="-874.5" font-family="FreeSans" font-size="10.00" fill="#000000">Fun4All_G4_IonGun</text>
</a>
</g>
</g>
<!-- Node2&#45;&gt;Node29 -->
<g id="edge28" class="edge">
<title>Node2&#45;&gt;Node29</title>
<path fill="none" stroke="#191970" d="M257.4128,-965.284C274.0142,-945.563 303.1294,-914.6387 335,-897.5 343.1398,-893.1228 352.2345,-889.6927 361.3442,-887.0077"/>
<polygon fill="#191970" stroke="#191970" points="254.5362,-963.272 250.8964,-973.2221 259.9467,-967.7135 254.5362,-963.272"/>
</g>
<!-- Node30 -->
<g id="node30" class="node">
<title>Node30</title>
<g id="a_node30"><a xlink:href="../../d5/d01/Fun4All__G4__LeadBrick_8C.html#a5fcd8843f8a815feb3b053eaabd60d41" target="_top" xlink:title="Fun4All_G4_LeadBrick">
<polygon fill="none" stroke="#000000" points="354.5,-828.5 354.5,-848.5 482.5,-848.5 482.5,-828.5 354.5,-828.5"/>
<text text-anchor="middle" x="418.5" y="-835.5" font-family="FreeSans" font-size="10.00" fill="#000000">Fun4All_G4_LeadBrick</text>
</a>
</g>
</g>
<!-- Node2&#45;&gt;Node30 -->
<g id="edge29" class="edge">
<title>Node2&#45;&gt;Node30</title>
<path fill="none" stroke="#191970" d="M251.8456,-964.0362C265.5488,-936.1642 294.6032,-885.2972 335,-858.5 341.211,-854.3799 348.1811,-851.1063 355.3768,-848.5057"/>
<polygon fill="#191970" stroke="#191970" points="248.6325,-962.6432 247.499,-973.1772 254.9542,-965.6492 248.6325,-962.6432"/>
</g>
<!-- Node31 -->
<g id="node31" class="node">
<title>Node31</title>
<g id="a_node31"><a xlink:href="../../d9/d8f/Fun4All__G4__Momentum_8C.html#afbd7a4eecd7792e9216ce80b5514123e" target="_top" xlink:title="Fun4All_G4_Momentum">
<polygon fill="none" stroke="#000000" points="351,-789.5 351,-809.5 486,-809.5 486,-789.5 351,-789.5"/>
<text text-anchor="middle" x="418.5" y="-796.5" font-family="FreeSans" font-size="10.00" fill="#000000">Fun4All_G4_Momentum</text>
</a>
</g>
</g>
<!-- Node2&#45;&gt;Node31 -->
<g id="edge30" class="edge">
<title>Node2&#45;&gt;Node31</title>
<path fill="none" stroke="#191970" d="M248.5617,-963.0977C259.2074,-928.0557 285.8877,-856.6288 335,-819.5 340.3509,-815.4547 346.4007,-812.2136 352.7384,-809.619"/>
<polygon fill="#191970" stroke="#191970" points="245.0829,-962.5278 245.6607,-973.1069 251.8062,-964.4765 245.0829,-962.5278"/>
</g>
<!-- Node32 -->
<g id="node32" class="node">
<title>Node32</title>
<g id="a_node32"><a xlink:href="../../dc/d8e/Fun4All__G4__Prototype2_8C.html#a6b8f092c4f51be2938dd09c810ba6226" target="_top" xlink:title="Fun4All_G4_Prototype2">
<polygon fill="none" stroke="#000000" points="352,-750.5 352,-770.5 485,-770.5 485,-750.5 352,-750.5"/>
<text text-anchor="middle" x="418.5" y="-757.5" font-family="FreeSans" font-size="10.00" fill="#000000">Fun4All_G4_Prototype2</text>
</a>
</g>
</g>
<!-- Node2&#45;&gt;Node32 -->
<g id="edge31" class="edge">
<title>Node2&#45;&gt;Node32</title>
<path fill="none" stroke="#191970" d="M246.1516,-963.2481C253.6516,-922.1547 276.5102,-828.7922 335,-780.5 340.0577,-776.3241 345.8435,-772.9928 351.9578,-770.3392"/>
<polygon fill="#191970" stroke="#191970" points="242.6926,-962.7115 244.4604,-973.1578 249.5929,-963.8892 242.6926,-962.7115"/>
</g>
<!-- Node33 -->
<g id="node33" class="node">
<title>Node33</title>
<g id="a_node33"><a xlink:href="../../d7/d40/Fun4All__G4__Prototype3_8C.html#a1201361263017b08a070777a0b90b27c" target="_top" xlink:title="Fun4All_G4_Prototype3">
<polygon fill="none" stroke="#000000" points="352,-711.5 352,-731.5 485,-731.5 485,-711.5 352,-711.5"/>
<text text-anchor="middle" x="418.5" y="-718.5" font-family="FreeSans" font-size="10.00" fill="#000000">Fun4All_G4_Prototype3</text>
</a>
</g>
</g>
<!-- Node2&#45;&gt;Node33 -->
<g id="edge32" class="edge">
<title>Node2&#45;&gt;Node33</title>
<path fill="none" stroke="#191970" d="M244.4933,-963.3248C249.0624,-916.7732 267.0227,-801.277 335,-741.5 339.9254,-737.1688 345.6244,-733.7356 351.6855,-731.0197"/>
<polygon fill="#191970" stroke="#191970" points="240.9999,-963.0968 243.6156,-973.3636 247.9733,-963.7065 240.9999,-963.0968"/>
</g>
<!-- Node34 -->
<g id="node34" class="node">
<title>Node34</title>
<g id="a_node34"><a xlink:href="../../d4/d58/Fun4All__G4__Prototype4_8C.html#acac517f0728af658cbf99c7c9687c908" target="_top" xlink:title="Fun4All_G4_Prototype4">
<polygon fill="none" stroke="#000000" points="352,-672.5 352,-692.5 485,-692.5 485,-672.5 352,-672.5"/>
<text text-anchor="middle" x="418.5" y="-679.5" font-family="FreeSans" font-size="10.00" fill="#000000">Fun4All_G4_Prototype4</text>
</a>
</g>
</g>
<!-- Node2&#45;&gt;Node34 -->
<g id="edge33" class="edge">
<title>Node2&#45;&gt;Node34</title>
<path fill="none" stroke="#191970" d="M246.9315,-963.4441C258.6978,-905.4081 295.2872,-739.1082 335,-702.5 339.9321,-697.9535 345.7103,-694.3873 351.8848,-691.5974"/>
<polygon fill="#191970" stroke="#191970" points="243.499,-962.7604 244.9716,-973.2524 250.3633,-964.1321 243.499,-962.7604"/>
</g>
<!-- Node35 -->
<g id="node35" class="node">
<title>Node35</title>
<g id="a_node35"><a xlink:href="../../d5/d2c/macros_2blob_2master_2macros_2g4simulations_2Fun4All__G4__sPHENIX_8C.html#a6eaaa492d7023ec86c562dc63aa1e5a4" target="_top" xlink:title="Fun4All_G4_sPHENIX">
<polygon fill="none" stroke="#000000" points="358,-633.5 358,-653.5 479,-653.5 479,-633.5 358,-633.5"/>
<text text-anchor="middle" x="418.5" y="-640.5" font-family="FreeSans" font-size="10.00" fill="#000000">Fun4All_G4_sPHENIX</text>
</a>
</g>
</g>
<!-- Node2&#45;&gt;Node35 -->
<g id="edge34" class="edge">
<title>Node2&#45;&gt;Node35</title>
<path fill="none" stroke="#191970" d="M246.1201,-963.2275C256.2985,-899.6823 290.4612,-706.0844 335,-663.5 341.4646,-657.3191 349.4857,-652.9369 357.9785,-649.8497"/>
<polygon fill="#191970" stroke="#191970" points="242.647,-962.7835 244.5491,-973.2061 249.5618,-963.8722 242.647,-962.7835"/>
</g>
<!-- Node36 -->
<g id="node36" class="node">
<title>Node36</title>
<g id="a_node36"><a xlink:href="../../d3/de2/Fun4All__G4__sPHENIX__AnaGenFit_8C.html#a9bf3f2f72ed69a17e2d0c1121d48013c" target="_top" xlink:title="Fun4All_G4_sPHENIX\l_AnaGenFit">
<polygon fill="none" stroke="#000000" points="358,-582.5 358,-614.5 479,-614.5 479,-582.5 358,-582.5"/>
<text text-anchor="start" x="366" y="-601.5" font-family="FreeSans" font-size="10.00" fill="#000000">Fun4All_G4_sPHENIX</text>
<text text-anchor="middle" x="418.5" y="-589.5" font-family="FreeSans" font-size="10.00" fill="#000000">_AnaGenFit</text>
</a>
</g>
</g>
<!-- Node2&#45;&gt;Node36 -->
<g id="edge35" class="edge">
<title>Node2&#45;&gt;Node36</title>
<path fill="none" stroke="#191970" d="M245.5895,-963.1907C254.6871,-894.8602 287.2373,-674.7626 335,-624.5 341.2753,-617.8963 349.1958,-612.9598 357.6457,-609.2718"/>
<polygon fill="#191970" stroke="#191970" points="242.0725,-963.0945 244.2477,-973.4636 249.0135,-964.0012 242.0725,-963.0945"/>
</g>
<!-- Node37 -->
<g id="node37" class="node">
<title>Node37</title>
<g id="a_node37"><a xlink:href="../../da/dd0/Fun4All__G4__sPHENIX__photonjet_8C.html#a6f18519e216acc05399e562ea57ea77c" target="_top" xlink:title="Fun4All_G4_sPHENIX\l_photonjet">
<polygon fill="none" stroke="#000000" points="358,-531.5 358,-563.5 479,-563.5 479,-531.5 358,-531.5"/>
<text text-anchor="start" x="366" y="-550.5" font-family="FreeSans" font-size="10.00" fill="#000000">Fun4All_G4_sPHENIX</text>
<text text-anchor="middle" x="418.5" y="-538.5" font-family="FreeSans" font-size="10.00" fill="#000000">_photonjet</text>
</a>
</g>
</g>
<!-- Node2&#45;&gt;Node37 -->
<g id="edge36" class="edge">
<title>Node2&#45;&gt;Node37</title>
<path fill="none" stroke="#191970" d="M244.887,-963.2462C252.2062,-888.8617 281.0273,-632.0391 335,-573.5 341.278,-566.6908 349.3051,-561.6504 357.8913,-557.9225"/>
<polygon fill="#191970" stroke="#191970" points="241.4024,-962.9189 243.9293,-973.2079 248.3703,-963.5888 241.4024,-962.9189"/>
</g>
<!-- Node38 -->
<g id="node38" class="node">
<title>Node38</title>
<g id="a_node38"><a xlink:href="../../da/d85/Fun4All__G4__sPHENIX__photons_8C.html#a02fbbd59878fe1299f58ed187e7214ba" target="_top" xlink:title="Fun4All_G4_sPHENIX\l_photons">
<polygon fill="none" stroke="#000000" points="358,-480.5 358,-512.5 479,-512.5 479,-480.5 358,-480.5"/>
<text text-anchor="start" x="366" y="-499.5" font-family="FreeSans" font-size="10.00" fill="#000000">Fun4All_G4_sPHENIX</text>
<text text-anchor="middle" x="418.5" y="-487.5" font-family="FreeSans" font-size="10.00" fill="#000000">_photons</text>
</a>
</g>
</g>
<!-- Node2&#45;&gt;Node38 -->
<g id="edge37" class="edge">
<title>Node2&#45;&gt;Node38</title>
<path fill="none" stroke="#191970" d="M244.3694,-962.8622C250.1236,-882.1824 274.8879,-589.2723 335,-522.5 341.1967,-515.6167 349.1812,-510.5376 357.7498,-506.7935"/>
<polygon fill="#191970" stroke="#191970" points="240.8546,-962.956 243.6564,-973.1737 247.8379,-963.439 240.8546,-962.956"/>
</g>
<!-- Node39 -->
<g id="node39" class="node">
<title>Node39</title>
<g id="a_node39"><a xlink:href="../../de/d55/Fun4All__G4__sPHENIX__truthphotonjet_8C.html#a48a6f4503eaa1b3793d8ae572aa795b9" target="_top" xlink:title="Fun4All_G4_sPHENIX\l_truthphotonjet">
<polygon fill="none" stroke="#000000" points="358,-429.5 358,-461.5 479,-461.5 479,-429.5 358,-429.5"/>
<text text-anchor="start" x="366" y="-448.5" font-family="FreeSans" font-size="10.00" fill="#000000">Fun4All_G4_sPHENIX</text>
<text text-anchor="middle" x="418.5" y="-436.5" font-family="FreeSans" font-size="10.00" fill="#000000">_truthphotonjet</text>
</a>
</g>
</g>
<!-- Node2&#45;&gt;Node39 -->
<g id="edge38" class="edge">
<title>Node2&#45;&gt;Node39</title>
<path fill="none" stroke="#191970" d="M243.9098,-963.1101C248.1373,-877.3318 268.5612,-546.7392 335,-471.5 341.1304,-464.5576 349.0802,-459.4475 357.6343,-455.6906"/>
<polygon fill="#191970" stroke="#191970" points="240.4025,-963.1842 243.4267,-973.3382 247.3947,-963.5146 240.4025,-963.1842"/>
</g>
<!-- Node40 -->
<g id="node40" class="node">
<title>Node40</title>
<g id="a_node40"><a xlink:href="../../db/da1/Fun4All__G4__TPC_8C.html#af60bcd3cf09ebd567e28ede14e9e894a" target="_top" xlink:title="Fun4All_G4_TPC">
<polygon fill="none" stroke="#000000" points="370,-390.5 370,-410.5 467,-410.5 467,-390.5 370,-390.5"/>
<text text-anchor="middle" x="418.5" y="-397.5" font-family="FreeSans" font-size="10.00" fill="#000000">Fun4All_G4_TPC</text>
</a>
</g>
</g>
<!-- Node2&#45;&gt;Node40 -->
<g id="edge39" class="edge">
<title>Node2&#45;&gt;Node40</title>
<path fill="none" stroke="#191970" d="M243.4157,-963.0228C245.693,-871.6044 259.5098,-501.7216 335,-420.5 344.0319,-410.7823 356.8761,-405.4042 369.7901,-402.5228"/>
<polygon fill="#191970" stroke="#191970" points="239.913,-963.1025 243.1829,-973.1801 246.9112,-963.263 239.913,-963.1025"/>
</g>
<!-- Node41 -->
<g id="node41" class="node">
<title>Node41</title>
<g id="a_node41"><a xlink:href="../../da/db5/Fun4All__G4__W_8C.html#ad4745423f42356b6b3cb65bbbc1e917e" target="_top" xlink:title="Fun4All_G4_W">
<polygon fill="none" stroke="#000000" points="374.5,-351.5 374.5,-371.5 462.5,-371.5 462.5,-351.5 374.5,-351.5"/>
<text text-anchor="middle" x="418.5" y="-358.5" font-family="FreeSans" font-size="10.00" fill="#000000">Fun4All_G4_W</text>
</a>
</g>
</g>
<!-- Node2&#45;&gt;Node41 -->
<g id="edge40" class="edge">
<title>Node2&#45;&gt;Node41</title>
<path fill="none" stroke="#191970" d="M243.1763,-963.1469C244.4203,-868.1247 254.4359,-469.0834 335,-381.5 344.9908,-370.6387 359.7419,-365.1869 374.0773,-362.5851"/>
<polygon fill="#191970" stroke="#191970" points="239.6737,-963.367 243.0619,-973.4054 246.6732,-963.4451 239.6737,-963.367"/>
</g>
<!-- Node42 -->
<g id="node42" class="node">
<title>Node42</title>
<g id="a_node42"><a xlink:href="../../dc/d9b/Fun4All__HCALAnalysis_8C.html#a28b645088a74f7f1146274b5333cd479" target="_top" xlink:title="Fun4All_HCALAnalysis">
<polygon fill="none" stroke="#000000" points="354.5,-312.5 354.5,-332.5 482.5,-332.5 482.5,-312.5 354.5,-312.5"/>
<text text-anchor="middle" x="418.5" y="-319.5" font-family="FreeSans" font-size="10.00" fill="#000000">Fun4All_HCALAnalysis</text>
</a>
</g>
</g>
<!-- Node2&#45;&gt;Node42 -->
<g id="edge41" class="edge">
<title>Node2&#45;&gt;Node42</title>
<path fill="none" stroke="#191970" d="M244.5682,-963.1549C252.7629,-859.131 291.9312,-389.7509 335,-342.5 340.3221,-336.6611 347.0195,-332.3826 354.2946,-329.2687"/>
<polygon fill="#191970" stroke="#191970" points="241.0674,-963.0298 243.7787,-973.2719 248.0462,-963.5745 241.0674,-963.0298"/>
</g>
<!-- Node43 -->
<g id="node43" class="node">
<title>Node43</title>
<g id="a_node43"><a xlink:href="../../d9/d0f/Fun4All__ImportGeom_8C.html#a3388968a8dae60e9eb62b1126f747b6a" target="_top" xlink:title="Read in a Geometry file, and output DST and ROOT TGeo files.">
<polygon fill="none" stroke="#000000" points="357.5,-273.5 357.5,-293.5 479.5,-293.5 479.5,-273.5 357.5,-273.5"/>
<text text-anchor="middle" x="418.5" y="-280.5" font-family="FreeSans" font-size="10.00" fill="#000000">Fun4All_ImportGeom</text>
</a>
</g>
</g>
<!-- Node2&#45;&gt;Node43 -->
<g id="edge42" class="edge">
<title>Node2&#45;&gt;Node43</title>
<path fill="none" stroke="#191970" d="M244.384,-963.2896C251.9224,-855.7766 289.3741,-353.964 335,-303.5 340.9983,-296.8657 348.7717,-292.2425 357.1586,-289.0523"/>
<polygon fill="#191970" stroke="#191970" points="240.8811,-963.2122 243.6802,-973.4306 247.8643,-963.697 240.8811,-963.2122"/>
</g>
<!-- Node44 -->
<g id="node44" class="node">
<title>Node44</title>
<g id="a_node44"><a xlink:href="../../db/d96/Fun4All__JetAna_8C.html#a519de39bdb8606d50d045cc11466e2e6" target="_top" xlink:title="Fun4All_JetAna">
<polygon fill="none" stroke="#000000" points="373,-234.5 373,-254.5 464,-254.5 464,-234.5 373,-234.5"/>
<text text-anchor="middle" x="418.5" y="-241.5" font-family="FreeSans" font-size="10.00" fill="#000000">Fun4All_JetAna</text>
</a>
</g>
</g>
<!-- Node2&#45;&gt;Node44 -->
<g id="edge43" class="edge">
<title>Node2&#45;&gt;Node44</title>
<path fill="none" stroke="#191970" d="M244.2354,-963.1884C251.1877,-851.7993 286.8456,-318.1483 335,-264.5 344.5589,-253.8505 358.6908,-248.3756 372.6218,-245.692"/>
<polygon fill="#191970" stroke="#191970" points="240.7287,-963.1912 243.6059,-973.3879 247.7154,-963.6225 240.7287,-963.1912"/>
</g>
<!-- Node45 -->
<g id="node45" class="node">
<title>Node45</title>
<g id="a_node45"><a xlink:href="../../de/d6b/Fun4All__MCEventGen_8C.html#a4e6d2272e7266684626c0653520558ef" target="_top" xlink:title="Fun4All_MCEventGen">
<polygon fill="none" stroke="#000000" points="357,-195.5 357,-215.5 480,-215.5 480,-195.5 357,-195.5"/>
<text text-anchor="middle" x="418.5" y="-202.5" font-family="FreeSans" font-size="10.00" fill="#000000">Fun4All_MCEventGen</text>
</a>
</g>
</g>
<!-- Node2&#45;&gt;Node45 -->
<g id="edge44" class="edge">
<title>Node2&#45;&gt;Node45</title>
<path fill="none" stroke="#191970" d="M244.0963,-963.1768C250.4761,-848.1962 284.3004,-282.3536 335,-225.5 340.8535,-218.936 348.4441,-214.3353 356.6601,-211.1415"/>
<polygon fill="#191970" stroke="#191970" points="240.5891,-963.2125 243.5365,-973.3891 247.5786,-963.5956 240.5891,-963.2125"/>
</g>
<!-- Node46 -->
<g id="node46" class="node">
<title>Node46</title>
<g id="a_node46"><a xlink:href="../../d7/d65/Fun4All__Pythia6_8C.html#aef86c866396545237e0781d2226bd6a5" target="_top" xlink:title="Fun4All_Pythia6">
<polygon fill="none" stroke="#000000" points="370.5,-156.5 370.5,-176.5 466.5,-176.5 466.5,-156.5 370.5,-156.5"/>
<text text-anchor="middle" x="418.5" y="-163.5" font-family="FreeSans" font-size="10.00" fill="#000000">Fun4All_Pythia6</text>
</a>
</g>
</g>
<!-- Node2&#45;&gt;Node46 -->
<g id="edge45" class="edge">
<title>Node2&#45;&gt;Node46</title>
<path fill="none" stroke="#191970" d="M243.9663,-963.2506C249.788,-844.9695 281.7385,-246.5796 335,-186.5 343.9986,-176.3495 357.1507,-170.8882 370.3663,-168.0649"/>
<polygon fill="#191970" stroke="#191970" points="240.4611,-963.274 243.4718,-973.432 247.4529,-963.6136 240.4611,-963.274"/>
</g>
<!-- Node47 -->
<g id="node47" class="node">
<title>Node47</title>
<g id="a_node47"><a xlink:href="../../d9/d31/Fun4All__RICHReco_8C.html#a3b13aa3a348876cbf1acfc1563aabce5" target="_top" xlink:title="Fun4All_RICHReco">
<polygon fill="none" stroke="#000000" points="365,-117.5 365,-137.5 472,-137.5 472,-117.5 365,-117.5"/>
<text text-anchor="middle" x="418.5" y="-124.5" font-family="FreeSans" font-size="10.00" fill="#000000">Fun4All_RICHReco</text>
</a>
</g>
</g>
<!-- Node2&#45;&gt;Node47 -->
<g id="edge46" class="edge">
<title>Node2&#45;&gt;Node47</title>
<path fill="none" stroke="#191970" d="M243.8619,-963.023C249.1866,-840.8001 279.2188,-210.76 335,-147.5 342.6899,-138.7791 353.4455,-133.5157 364.6847,-130.4127"/>
<polygon fill="#191970" stroke="#191970" points="240.356,-963.0887 243.4237,-973.2297 247.3495,-963.389 240.356,-963.0887"/>
</g>
<!-- Node48 -->
<g id="node48" class="node">
<title>Node48</title>
<g id="a_node48"><a xlink:href="../../d4/d65/Fun4All__single__particle_8C.html#a8a492b5dbead494bfdddbebde8a49b0e" target="_top" xlink:title="Fun4All_single_particle">
<polygon fill="none" stroke="#000000" points="352.5,-78.5 352.5,-98.5 484.5,-98.5 484.5,-78.5 352.5,-78.5"/>
<text text-anchor="middle" x="418.5" y="-85.5" font-family="FreeSans" font-size="10.00" fill="#000000">Fun4All_single_particle</text>
</a>
</g>
</g>
<!-- Node2&#45;&gt;Node48 -->
<g id="edge47" class="edge">
<title>Node2&#45;&gt;Node48</title>
<path fill="none" stroke="#191970" d="M243.748,-963.2474C248.5423,-838.2662 276.6268,-175.0239 335,-108.5 339.8176,-103.0098 345.85,-98.8885 352.4558,-95.8134"/>
<polygon fill="#191970" stroke="#191970" points="240.2467,-963.2194 243.3669,-973.3443 247.2417,-963.4835 240.2467,-963.2194"/>
</g>
<!-- Node49 -->
<g id="node49" class="node">
<title>Node49</title>
<g id="a_node49"><a xlink:href="../../d1/db8/analysis_2blob_2master_2MvtxTelescope_2AnaMvtxPrototype1_2macro_2Fun4All__TestBeam_8C.html#a89e0e05f7fe09176341b2c656b4cec1b" target="_top" xlink:title="Fun4All_TestBeam">
<polygon fill="none" stroke="#000000" points="364.5,-39.5 364.5,-59.5 472.5,-59.5 472.5,-39.5 364.5,-39.5"/>
<text text-anchor="middle" x="418.5" y="-46.5" font-family="FreeSans" font-size="10.00" fill="#000000">Fun4All_TestBeam</text>
</a>
</g>
</g>
<!-- Node2&#45;&gt;Node49 -->
<g id="edge48" class="edge">
<title>Node2&#45;&gt;Node49</title>
<path fill="none" stroke="#191970" d="M243.6556,-963.1594C247.9751,-834.7136 274.08,-139.2379 335,-69.5 342.5513,-60.8557 353.1142,-55.6021 364.1939,-52.4815"/>
<polygon fill="#191970" stroke="#191970" points="240.1464,-963.3848 243.3144,-973.4949 247.1425,-963.6158 240.1464,-963.3848"/>
</g>
<!-- Node50 -->
<g id="node50" class="node">
<title>Node50</title>
<g id="a_node50"><a xlink:href="../../df/de3/Prototype2_2EMCal_2macros_2Fun4All__TestBeam__Ana_8C.html#a1e83661a9f4f0cebf1a74882d14c7042" target="_top" xlink:title="Fun4All_TestBeam_Ana">
<polygon fill="none" stroke="#000000" points="352.5,-.5 352.5,-20.5 484.5,-20.5 484.5,-.5 352.5,-.5"/>
<text text-anchor="middle" x="418.5" y="-7.5" font-family="FreeSans" font-size="10.00" fill="#000000">Fun4All_TestBeam_Ana</text>
</a>
</g>
</g>
<!-- Node2&#45;&gt;Node50 -->
<g id="edge49" class="edge">
<title>Node2&#45;&gt;Node50</title>
<path fill="none" stroke="#191970" d="M243.569,-963.1109C247.4261,-831.3619 271.5245,-103.4632 335,-30.5 339.7941,-24.9893 345.8121,-20.8554 352.4099,-17.7732"/>
<polygon fill="#191970" stroke="#191970" points="240.0628,-963.2801 243.2746,-973.3764 247.06,-963.4809 240.0628,-963.2801"/>
</g>
</g>
</svg>
