<?xml version="1.0" encoding="UTF-8" standalone="no"?>
<!DOCTYPE svg PUBLIC "-//W3C//DTD SVG 1.1//EN"
 "http://www.w3.org/Graphics/SVG/1.1/DTD/svg11.dtd">
<!-- Generated by graphviz version 2.40.1 (20161225.0304)
 -->
<!-- Title: Fun4AllServer::fileopen Pages: 1 -->
<svg width="345pt" height="1136pt"
 viewBox="0.00 0.00 345.00 1136.00" xmlns="http://www.w3.org/2000/svg" xmlns:xlink="http://www.w3.org/1999/xlink">
<g id="graph0" class="graph" transform="scale(1 1) rotate(0) translate(4 1132)">
<title>Fun4AllServer::fileopen</title>
<!-- Node1 -->
<g id="node1" class="node">
<title>Node1</title>
<polygon fill="#bfbfbf" stroke="#000000" points="0,-547.5 0,-567.5 134,-567.5 134,-547.5 0,-547.5"/>
<text text-anchor="middle" x="67" y="-554.5" font-family="FreeSans" font-size="10.00" fill="#000000">Fun4AllServer::fileopen</text>
</g>
<!-- Node2 -->
<g id="node2" class="node">
<title>Node2</title>
<g id="a_node2"><a xlink:href="../../dd/d9c/AnalyzeTree_8C.html#af10d516ac25cd720d54534a63ef7e2f8" target="_top" xlink:title="AnalyzeTree">
<polygon fill="none" stroke="#000000" points="214.5,-1107.5 214.5,-1127.5 292.5,-1127.5 292.5,-1107.5 214.5,-1107.5"/>
<text text-anchor="middle" x="253.5" y="-1114.5" font-family="FreeSans" font-size="10.00" fill="#000000">AnalyzeTree</text>
</a>
</g>
</g>
<!-- Node1&#45;&gt;Node2 -->
<g id="edge1" class="edge">
<title>Node1&#45;&gt;Node2</title>
<path fill="none" stroke="#191970" d="M67.9893,-578.0671C72.7129,-667.525 95.9002,-1021.7142 170,-1098.5 181.3562,-1110.2679 198.3699,-1115.4307 214.0825,-1117.492"/>
<polygon fill="#191970" stroke="#191970" points="71.4744,-577.6847 67.4718,-567.8751 64.4834,-578.0397 71.4744,-577.6847"/>
</g>
<!-- Node3 -->
<g id="node3" class="node">
<title>Node3</title>
<g id="a_node3"><a xlink:href="../../dc/ddc/Fun4All__Ana_8C.html#a9152007c2477efc543d79f3b97fbf50c" target="_top" xlink:title="Fun4All_Ana">
<polygon fill="none" stroke="#000000" points="214.5,-1068.5 214.5,-1088.5 292.5,-1088.5 292.5,-1068.5 214.5,-1068.5"/>
<text text-anchor="middle" x="253.5" y="-1075.5" font-family="FreeSans" font-size="10.00" fill="#000000">Fun4All_Ana</text>
</a>
</g>
</g>
<!-- Node1&#45;&gt;Node3 -->
<g id="edge2" class="edge">
<title>Node1&#45;&gt;Node3</title>
<path fill="none" stroke="#191970" d="M68.29,-577.6534C74.1251,-662.4132 100.8317,-988.8379 170,-1059.5 181.4397,-1071.1867 198.4651,-1076.3382 214.1639,-1078.4129"/>
<polygon fill="#191970" stroke="#191970" points="71.7736,-577.2902 67.6155,-567.5455 64.7892,-577.7563 71.7736,-577.2902"/>
</g>
<!-- Node4 -->
<g id="node4" class="node">
<title>Node4</title>
<g id="a_node4"><a xlink:href="../../da/dae/Fun4All__EICAnalysis__DIS_8C.html#a6be6c58cd68a395182a998295a1106ae" target="_top" xlink:title="Fun4All_EICAnalysis_DIS">
<polygon fill="none" stroke="#000000" points="184,-1029.5 184,-1049.5 323,-1049.5 323,-1029.5 184,-1029.5"/>
<text text-anchor="middle" x="253.5" y="-1036.5" font-family="FreeSans" font-size="10.00" fill="#000000">Fun4All_EICAnalysis_DIS</text>
</a>
</g>
</g>
<!-- Node1&#45;&gt;Node4 -->
<g id="edge3" class="edge">
<title>Node1&#45;&gt;Node4</title>
<path fill="none" stroke="#191970" d="M68.6838,-577.865C75.7838,-658.7592 105.9159,-956.1051 170,-1020.5 173.9851,-1024.5044 178.627,-1027.7387 183.6428,-1030.3432"/>
<polygon fill="#191970" stroke="#191970" points="72.1415,-577.2193 67.8021,-567.5539 65.1669,-577.8157 72.1415,-577.2193"/>
</g>
<!-- Node5 -->
<g id="node5" class="node">
<title>Node5</title>
<g id="a_node5"><a xlink:href="../../d2/d9b/Fun4All__EICAnalysis__DISReco_8C.html#a3c160743ec7b9b4572cf73a19640a34f" target="_top" xlink:title="Fun4All_EICAnalysis\l_DISReco">
<polygon fill="none" stroke="#000000" points="195,-978.5 195,-1010.5 312,-1010.5 312,-978.5 195,-978.5"/>
<text text-anchor="start" x="203" y="-997.5" font-family="FreeSans" font-size="10.00" fill="#000000">Fun4All_EICAnalysis</text>
<text text-anchor="middle" x="253.5" y="-985.5" font-family="FreeSans" font-size="10.00" fill="#000000">_DISReco</text>
</a>
</g>
</g>
<!-- Node1&#45;&gt;Node5 -->
<g id="edge4" class="edge">
<title>Node1&#45;&gt;Node5</title>
<path fill="none" stroke="#191970" d="M69.4279,-577.8936C78.734,-652.7855 114.4185,-911.3053 170,-969.5 176.7936,-976.613 185.5204,-981.7256 194.7608,-985.3951"/>
<polygon fill="#191970" stroke="#191970" points="72.8896,-577.366 68.2041,-567.8636 65.9411,-578.2139 72.8896,-577.366"/>
</g>
<!-- Node6 -->
<g id="node6" class="node">
<title>Node6</title>
<g id="a_node6"><a xlink:href="../../d2/d47/Fun4All__EICAnalysis__DVCS_8C.html#a84f48142243e969fd353cc8509f0ba22" target="_top" xlink:title="Fun4All_EICAnalysis_DVCS">
<polygon fill="none" stroke="#000000" points="178.5,-939.5 178.5,-959.5 328.5,-959.5 328.5,-939.5 178.5,-939.5"/>
<text text-anchor="middle" x="253.5" y="-946.5" font-family="FreeSans" font-size="10.00" fill="#000000">Fun4All_EICAnalysis_DVCS</text>
</a>
</g>
</g>
<!-- Node1&#45;&gt;Node6 -->
<g id="edge5" class="edge">
<title>Node1&#45;&gt;Node6</title>
<path fill="none" stroke="#191970" d="M69.8512,-577.861C80.123,-648.3299 117.428,-880.2767 170,-930.5 173.655,-933.9917 177.812,-936.8911 182.2732,-939.2939"/>
<polygon fill="#191970" stroke="#191970" points="73.2716,-577.0552 68.3891,-567.6525 66.3423,-578.0477 73.2716,-577.0552"/>
</g>
<!-- Node7 -->
<g id="node7" class="node">
<title>Node7</title>
<g id="a_node7"><a xlink:href="../../d3/dee/Fun4All__EICAnalysis__Exclusive_8C.html#ad3a88bfdb2a21a757edf221e36d6bffe" target="_top" xlink:title="Fun4All_EICAnalysis\l_Exclusive">
<polygon fill="none" stroke="#000000" points="195,-888.5 195,-920.5 312,-920.5 312,-888.5 195,-888.5"/>
<text text-anchor="start" x="203" y="-907.5" font-family="FreeSans" font-size="10.00" fill="#000000">Fun4All_EICAnalysis</text>
<text text-anchor="middle" x="253.5" y="-895.5" font-family="FreeSans" font-size="10.00" fill="#000000">_Exclusive</text>
</a>
</g>
</g>
<!-- Node1&#45;&gt;Node7 -->
<g id="edge6" class="edge">
<title>Node1&#45;&gt;Node7</title>
<path fill="none" stroke="#191970" d="M70.9302,-577.8174C83.6311,-641.5153 125.3474,-835.6739 170,-879.5 176.9118,-886.2838 185.5864,-891.2383 194.7105,-894.854"/>
<polygon fill="#191970" stroke="#191970" points="74.327,-576.9516 68.9619,-567.8156 67.4587,-578.3033 74.327,-576.9516"/>
</g>
<!-- Node8 -->
<g id="node8" class="node">
<title>Node8</title>
<g id="a_node8"><a xlink:href="../../d2/d00/Fun4All__EICAnalysis__Leptoquarks_8C.html#a328697c2ae82c0b33f95bea9aefb93f4" target="_top" xlink:title="Fun4All_EICAnalysis\l_Leptoquarks">
<polygon fill="none" stroke="#000000" points="195,-837.5 195,-869.5 312,-869.5 312,-837.5 195,-837.5"/>
<text text-anchor="start" x="203" y="-856.5" font-family="FreeSans" font-size="10.00" fill="#000000">Fun4All_EICAnalysis</text>
<text text-anchor="middle" x="253.5" y="-844.5" font-family="FreeSans" font-size="10.00" fill="#000000">_Leptoquarks</text>
</a>
</g>
</g>
<!-- Node1&#45;&gt;Node8 -->
<g id="edge7" class="edge">
<title>Node1&#45;&gt;Node8</title>
<path fill="none" stroke="#191970" d="M68.709,-577.7707C74.0311,-627.8723 94.7816,-758.5327 170,-828.5 176.9804,-834.9931 185.582,-839.8044 194.5842,-843.3684"/>
<polygon fill="#191970" stroke="#191970" points="72.1716,-577.2137 67.7277,-567.5959 65.2039,-577.8858 72.1716,-577.2137"/>
</g>
<!-- Node9 -->
<g id="node9" class="node">
<title>Node9</title>
<g id="a_node9"><a xlink:href="../../df/d6c/Fun4All__EICAnalysis__JPsi_8C.html#ad03644e8a25c5261146f6c59826ed6d0" target="_top" xlink:title="Fun4All_EICAnalysis\l_Quarkonia">
<polygon fill="none" stroke="#000000" points="195,-786.5 195,-818.5 312,-818.5 312,-786.5 195,-786.5"/>
<text text-anchor="start" x="203" y="-805.5" font-family="FreeSans" font-size="10.00" fill="#000000">Fun4All_EICAnalysis</text>
<text text-anchor="middle" x="253.5" y="-793.5" font-family="FreeSans" font-size="10.00" fill="#000000">_Quarkonia</text>
</a>
</g>
</g>
<!-- Node1&#45;&gt;Node9 -->
<g id="edge8" class="edge">
<title>Node1&#45;&gt;Node9</title>
<path fill="none" stroke="#191970" d="M70.6347,-577.4015C79.5462,-620.4528 106.5545,-722.755 170,-777.5 177.2178,-783.728 185.9401,-788.4047 194.9891,-791.9165"/>
<polygon fill="#191970" stroke="#191970" points="74.0668,-576.7151 68.7067,-567.5761 67.1978,-578.063 74.0668,-576.7151"/>
</g>
<!-- Node10 -->
<g id="node10" class="node">
<title>Node10</title>
<g id="a_node10"><a xlink:href="../../df/d90/Fun4All__EICAnalysis__TrackEval_8C.html#ab4d10c3db3266243a5c314b02c02a360" target="_top" xlink:title="Fun4All_EICAnalysis\l_TrackEval">
<polygon fill="none" stroke="#000000" points="195,-735.5 195,-767.5 312,-767.5 312,-735.5 195,-735.5"/>
<text text-anchor="start" x="203" y="-754.5" font-family="FreeSans" font-size="10.00" fill="#000000">Fun4All_EICAnalysis</text>
<text text-anchor="middle" x="253.5" y="-742.5" font-family="FreeSans" font-size="10.00" fill="#000000">_TrackEval</text>
</a>
</g>
</g>
<!-- Node1&#45;&gt;Node10 -->
<g id="edge9" class="edge">
<title>Node1&#45;&gt;Node10</title>
<path fill="none" stroke="#191970" d="M73.6384,-577.2803C86.508,-612.6012 118.2282,-686.5534 170,-726.5 177.3082,-732.1389 185.8745,-736.51 194.6844,-739.8972"/>
<polygon fill="#191970" stroke="#191970" points="76.8673,-575.9119 70.2482,-567.6392 70.2637,-578.2341 76.8673,-575.9119"/>
</g>
<!-- Node11 -->
<g id="node11" class="node">
<title>Node11</title>
<g id="a_node11"><a xlink:href="../../da/d02/Fun4All__G4__EICDetector_8C.html#afbe82cefa1d1fd031d9a8586b7bb68c6" target="_top" xlink:title="Fun4All_G4_EICDetector">
<polygon fill="none" stroke="#000000" points="184,-696.5 184,-716.5 323,-716.5 323,-696.5 184,-696.5"/>
<text text-anchor="middle" x="253.5" y="-703.5" font-family="FreeSans" font-size="10.00" fill="#000000">Fun4All_G4_EICDetector</text>
</a>
</g>
</g>
<!-- Node1&#45;&gt;Node11 -->
<g id="edge10" class="edge">
<title>Node1&#45;&gt;Node11</title>
<path fill="none" stroke="#191970" d="M76.6051,-576.5746C92.1295,-605.3553 125.5429,-659.4882 170,-687.5 175.7861,-691.1457 182.1888,-694.0947 188.7997,-696.4797"/>
<polygon fill="#191970" stroke="#191970" points="79.6114,-574.7708 71.8711,-567.5362 73.4104,-578.0186 79.6114,-574.7708"/>
</g>
<!-- Node12 -->
<g id="node12" class="node">
<title>Node12</title>
<g id="a_node12"><a xlink:href="../../dd/d2a/Fun4All__G4__EICDetector__LQ_8C.html#aaa01242fd6e77ca43a9d49a6d46008e4" target="_top" xlink:title="Fun4All_G4_EICDetector_LQ">
<polygon fill="none" stroke="#000000" points="175.5,-657.5 175.5,-677.5 331.5,-677.5 331.5,-657.5 175.5,-657.5"/>
<text text-anchor="middle" x="253.5" y="-664.5" font-family="FreeSans" font-size="10.00" fill="#000000">Fun4All_G4_EICDetector_LQ</text>
</a>
</g>
</g>
<!-- Node1&#45;&gt;Node12 -->
<g id="edge11" class="edge">
<title>Node1&#45;&gt;Node12</title>
<path fill="none" stroke="#191970" d="M81.9619,-575.2808C100.4725,-596.0872 133.9809,-630.0365 170,-648.5 177.012,-652.0944 184.6995,-655.0148 192.4824,-657.3863"/>
<polygon fill="#191970" stroke="#191970" points="84.4014,-572.7523 75.1977,-567.5042 79.1198,-577.3463 84.4014,-572.7523"/>
</g>
<!-- Node13 -->
<g id="node13" class="node">
<title>Node13</title>
<g id="a_node13"><a xlink:href="../../d4/df5/Fun4All__G4__EICDetector__LQ__reference_8C.html#a2feefc472f17f90b3cbe74897d049f75" target="_top" xlink:title="Fun4All_G4_EICDetector\l_LQ_reference">
<polygon fill="none" stroke="#000000" points="184,-606.5 184,-638.5 323,-638.5 323,-606.5 184,-606.5"/>
<text text-anchor="start" x="192" y="-625.5" font-family="FreeSans" font-size="10.00" fill="#000000">Fun4All_G4_EICDetector</text>
<text text-anchor="middle" x="253.5" y="-613.5" font-family="FreeSans" font-size="10.00" fill="#000000">_LQ_reference</text>
</a>
</g>
</g>
<!-- Node1&#45;&gt;Node13 -->
<g id="edge12" class="edge">
<title>Node1&#45;&gt;Node13</title>
<path fill="none" stroke="#191970" d="M100.6592,-571.3512C120.6611,-579.3862 146.6115,-589.4715 170,-597.5 178.8738,-600.5461 188.347,-603.5831 197.6088,-606.4368"/>
<polygon fill="#191970" stroke="#191970" points="101.938,-568.093 91.3552,-567.5894 99.3141,-574.5826 101.938,-568.093"/>
</g>
<!-- Node14 -->
<g id="node14" class="node">
<title>Node14</title>
<g id="a_node14"><a xlink:href="../../d3/d51/Fun4All__G4__EICDetector__RICH_8C.html#a5739502b0a7a1ba782c01069f77e933f" target="_top" xlink:title="Fun4All_G4_EICDetector_RICH">
<polygon fill="none" stroke="#000000" points="170,-567.5 170,-587.5 337,-587.5 337,-567.5 170,-567.5"/>
<text text-anchor="middle" x="253.5" y="-574.5" font-family="FreeSans" font-size="10.00" fill="#000000">Fun4All_G4_EICDetector_RICH</text>
</a>
</g>
</g>
<!-- Node1&#45;&gt;Node14 -->
<g id="edge13" class="edge">
<title>Node1&#45;&gt;Node14</title>
<path fill="none" stroke="#191970" d="M144.2473,-565.7839C152.6822,-566.6884 161.2971,-567.6123 169.8048,-568.5246"/>
<polygon fill="#191970" stroke="#191970" points="144.3835,-562.2785 134.0673,-564.6922 143.6371,-569.2386 144.3835,-562.2785"/>
</g>
<!-- Node15 -->
<g id="node15" class="node">
<title>Node15</title>
<g id="a_node15"><a xlink:href="../../d7/d9e/Fun4All__G4__fsPHENIX_8C.html#af48911d394d2412e817583700f2bbee2" target="_top" xlink:title="Fun4All_G4_fsPHENIX">
<polygon fill="none" stroke="#000000" points="191.5,-528.5 191.5,-548.5 315.5,-548.5 315.5,-528.5 191.5,-528.5"/>
<text text-anchor="middle" x="253.5" y="-535.5" font-family="FreeSans" font-size="10.00" fill="#000000">Fun4All_G4_fsPHENIX</text>
</a>
</g>
</g>
<!-- Node1&#45;&gt;Node15 -->
<g id="edge14" class="edge">
<title>Node1&#45;&gt;Node15</title>
<path fill="none" stroke="#191970" d="M144.2724,-549.6277C159.9678,-548.0287 176.2858,-546.3663 191.3754,-544.829"/>
<polygon fill="#191970" stroke="#191970" points="143.661,-546.1718 134.0673,-550.6674 144.3706,-553.1358 143.661,-546.1718"/>
</g>
<!-- Node16 -->
<g id="node16" class="node">
<title>Node16</title>
<g id="a_node16"><a xlink:href="../../da/d2f/Fun4All__G4__fsPHENIX__FastSim_8C.html#a66fb850cae5fcaadda23b74a25ce4c9c" target="_top" xlink:title="Fun4All_G4_fsPHENIX\l_FastSim">
<polygon fill="none" stroke="#000000" points="191.5,-477.5 191.5,-509.5 315.5,-509.5 315.5,-477.5 191.5,-477.5"/>
<text text-anchor="start" x="199.5" y="-496.5" font-family="FreeSans" font-size="10.00" fill="#000000">Fun4All_G4_fsPHENIX</text>
<text text-anchor="middle" x="253.5" y="-484.5" font-family="FreeSans" font-size="10.00" fill="#000000">_FastSim</text>
</a>
</g>
</g>
<!-- Node1&#45;&gt;Node16 -->
<g id="edge15" class="edge">
<title>Node1&#45;&gt;Node16</title>
<path fill="none" stroke="#191970" d="M102.6378,-543.8373C122.3973,-536.392 147.4607,-527.1612 170,-519.5 179.7752,-516.1774 190.2488,-512.7854 200.3601,-509.5954"/>
<polygon fill="#191970" stroke="#191970" points="101.2282,-540.6284 93.1147,-547.4418 103.7062,-547.1752 101.2282,-540.6284"/>
</g>
<!-- Node17 -->
<g id="node17" class="node">
<title>Node17</title>
<g id="a_node17"><a xlink:href="../../d0/da6/Fun4All__G4__fsPHENIX__pi0_8C.html#a023d91d47b678e5d7f1751834aa517c6" target="_top" xlink:title="Fun4All_G4_fsPHENIX_pi0">
<polygon fill="none" stroke="#000000" points="181,-438.5 181,-458.5 326,-458.5 326,-438.5 181,-438.5"/>
<text text-anchor="middle" x="253.5" y="-445.5" font-family="FreeSans" font-size="10.00" fill="#000000">Fun4All_G4_fsPHENIX_pi0</text>
</a>
</g>
</g>
<!-- Node1&#45;&gt;Node17 -->
<g id="edge16" class="edge">
<title>Node1&#45;&gt;Node17</title>
<path fill="none" stroke="#191970" d="M82.3715,-539.8741C101.0558,-519.5766 134.5138,-486.6981 170,-468.5 177.9585,-464.4187 186.7732,-461.1519 195.6056,-458.542"/>
<polygon fill="#191970" stroke="#191970" points="79.6161,-537.7036 75.5234,-547.476 84.817,-542.3888 79.6161,-537.7036"/>
</g>
<!-- Node18 -->
<g id="node18" class="node">
<title>Node18</title>
<g id="a_node18"><a xlink:href="../../d5/d2c/macros_2blob_2master_2macros_2g4simulations_2Fun4All__G4__sPHENIX_8C.html#a6eaaa492d7023ec86c562dc63aa1e5a4" target="_top" xlink:title="Fun4All_G4_sPHENIX">
<polygon fill="none" stroke="#000000" points="193,-399.5 193,-419.5 314,-419.5 314,-399.5 193,-399.5"/>
<text text-anchor="middle" x="253.5" y="-406.5" font-family="FreeSans" font-size="10.00" fill="#000000">Fun4All_G4_sPHENIX</text>
</a>
</g>
</g>
<!-- Node1&#45;&gt;Node18 -->
<g id="edge17" class="edge">
<title>Node1&#45;&gt;Node18</title>
<path fill="none" stroke="#191970" d="M76.9536,-538.3635C92.7302,-510.004 126.2302,-457.195 170,-429.5 176.9282,-425.1162 184.7336,-421.693 192.7195,-419.0198"/>
<polygon fill="#191970" stroke="#191970" points="73.8025,-536.8326 72.1246,-547.2938 79.9599,-540.1623 73.8025,-536.8326"/>
</g>
<!-- Node19 -->
<g id="node19" class="node">
<title>Node19</title>
<g id="a_node19"><a xlink:href="../../d3/de2/Fun4All__G4__sPHENIX__AnaGenFit_8C.html#a9bf3f2f72ed69a17e2d0c1121d48013c" target="_top" xlink:title="Fun4All_G4_sPHENIX\l_AnaGenFit">
<polygon fill="none" stroke="#000000" points="193,-348.5 193,-380.5 314,-380.5 314,-348.5 193,-348.5"/>
<text text-anchor="start" x="201" y="-367.5" font-family="FreeSans" font-size="10.00" fill="#000000">Fun4All_G4_sPHENIX</text>
<text text-anchor="middle" x="253.5" y="-355.5" font-family="FreeSans" font-size="10.00" fill="#000000">_AnaGenFit</text>
</a>
</g>
</g>
<!-- Node1&#45;&gt;Node19 -->
<g id="edge18" class="edge">
<title>Node1&#45;&gt;Node19</title>
<path fill="none" stroke="#191970" d="M73.9362,-537.5079C87.0995,-502.4972 119.0301,-430.058 170,-390.5 176.8368,-385.1939 184.7687,-380.9617 192.9691,-377.5882"/>
<polygon fill="#191970" stroke="#191970" points="70.5787,-536.4997 70.4533,-547.0938 77.1579,-538.8902 70.5787,-536.4997"/>
</g>
<!-- Node20 -->
<g id="node20" class="node">
<title>Node20</title>
<g id="a_node20"><a xlink:href="../../da/dd0/Fun4All__G4__sPHENIX__photonjet_8C.html#a6f18519e216acc05399e562ea57ea77c" target="_top" xlink:title="Fun4All_G4_sPHENIX\l_photonjet">
<polygon fill="none" stroke="#000000" points="193,-297.5 193,-329.5 314,-329.5 314,-297.5 193,-297.5"/>
<text text-anchor="start" x="201" y="-316.5" font-family="FreeSans" font-size="10.00" fill="#000000">Fun4All_G4_sPHENIX</text>
<text text-anchor="middle" x="253.5" y="-304.5" font-family="FreeSans" font-size="10.00" fill="#000000">_photonjet</text>
</a>
</g>
</g>
<!-- Node1&#45;&gt;Node20 -->
<g id="edge19" class="edge">
<title>Node1&#45;&gt;Node20</title>
<path fill="none" stroke="#191970" d="M70.8639,-537.2332C80.1027,-494.3284 107.5203,-393.8183 170,-339.5 176.6458,-333.7223 184.5663,-329.228 192.8428,-325.7322"/>
<polygon fill="#191970" stroke="#191970" points="67.429,-536.561 68.8533,-547.0596 74.2869,-537.9642 67.429,-536.561"/>
</g>
<!-- Node21 -->
<g id="node21" class="node">
<title>Node21</title>
<g id="a_node21"><a xlink:href="../../da/d85/Fun4All__G4__sPHENIX__photons_8C.html#a02fbbd59878fe1299f58ed187e7214ba" target="_top" xlink:title="Fun4All_G4_sPHENIX\l_photons">
<polygon fill="none" stroke="#000000" points="193,-246.5 193,-278.5 314,-278.5 314,-246.5 193,-246.5"/>
<text text-anchor="start" x="201" y="-265.5" font-family="FreeSans" font-size="10.00" fill="#000000">Fun4All_G4_sPHENIX</text>
<text text-anchor="middle" x="253.5" y="-253.5" font-family="FreeSans" font-size="10.00" fill="#000000">_photons</text>
</a>
</g>
</g>
<!-- Node1&#45;&gt;Node21 -->
<g id="edge20" class="edge">
<title>Node1&#45;&gt;Node21</title>
<path fill="none" stroke="#191970" d="M68.8433,-537.0864C74.4442,-487.2138 95.7313,-358.1742 170,-288.5 176.5331,-282.3711 184.49,-277.6862 192.8675,-274.1052"/>
<polygon fill="#191970" stroke="#191970" points="65.3411,-536.9293 67.8023,-547.2343 72.3046,-537.6437 65.3411,-536.9293"/>
</g>
<!-- Node22 -->
<g id="node22" class="node">
<title>Node22</title>
<g id="a_node22"><a xlink:href="../../de/d55/Fun4All__G4__sPHENIX__truthphotonjet_8C.html#a48a6f4503eaa1b3793d8ae572aa795b9" target="_top" xlink:title="Fun4All_G4_sPHENIX\l_truthphotonjet">
<polygon fill="none" stroke="#000000" points="193,-195.5 193,-227.5 314,-227.5 314,-195.5 193,-195.5"/>
<text text-anchor="start" x="201" y="-214.5" font-family="FreeSans" font-size="10.00" fill="#000000">Fun4All_G4_sPHENIX</text>
<text text-anchor="middle" x="253.5" y="-202.5" font-family="FreeSans" font-size="10.00" fill="#000000">_truthphotonjet</text>
</a>
</g>
</g>
<!-- Node1&#45;&gt;Node22 -->
<g id="edge21" class="edge">
<title>Node1&#45;&gt;Node22</title>
<path fill="none" stroke="#191970" d="M70.968,-537.3279C83.782,-474.0827 125.7985,-281.2817 170,-237.5 176.4723,-231.0892 184.4975,-226.2552 192.9921,-222.6111"/>
<polygon fill="#191970" stroke="#191970" points="67.5111,-536.7661 68.9816,-547.2584 74.3751,-538.1392 67.5111,-536.7661"/>
</g>
<!-- Node23 -->
<g id="node23" class="node">
<title>Node23</title>
<g id="a_node23"><a xlink:href="../../d4/dfa/Fun4All__Generator__Display_8C.html#af87924a94b22e18901f0d64805565f09" target="_top" xlink:title="Fun4All_Generator_Display">
<polygon fill="none" stroke="#000000" points="177.5,-156.5 177.5,-176.5 329.5,-176.5 329.5,-156.5 177.5,-156.5"/>
<text text-anchor="middle" x="253.5" y="-163.5" font-family="FreeSans" font-size="10.00" fill="#000000">Fun4All_Generator_Display</text>
</a>
</g>
</g>
<!-- Node1&#45;&gt;Node23 -->
<g id="edge22" class="edge">
<title>Node1&#45;&gt;Node23</title>
<path fill="none" stroke="#191970" d="M69.8878,-537.2682C80.2811,-467.2435 117.9397,-236.7333 170,-186.5 174.1836,-182.4633 179.0304,-179.1923 184.2412,-176.5474"/>
<polygon fill="#191970" stroke="#191970" points="66.3883,-537.0116 68.4078,-547.4122 73.315,-538.0223 66.3883,-537.0116"/>
</g>
<!-- Node24 -->
<g id="node24" class="node">
<title>Node24</title>
<g id="a_node24"><a xlink:href="../../dc/d9b/Fun4All__HCALAnalysis_8C.html#a28b645088a74f7f1146274b5333cd479" target="_top" xlink:title="Fun4All_HCALAnalysis">
<polygon fill="none" stroke="#000000" points="189.5,-117.5 189.5,-137.5 317.5,-137.5 317.5,-117.5 189.5,-117.5"/>
<text text-anchor="middle" x="253.5" y="-124.5" font-family="FreeSans" font-size="10.00" fill="#000000">Fun4All_HCALAnalysis</text>
</a>
</g>
</g>
<!-- Node1&#45;&gt;Node24 -->
<g id="edge23" class="edge">
<title>Node1&#45;&gt;Node24</title>
<path fill="none" stroke="#191970" d="M69.3385,-537.1025C78.3294,-462.2109 113.0452,-203.8298 170,-147.5 175.5112,-142.0492 182.2287,-137.9877 189.435,-134.9758"/>
<polygon fill="#191970" stroke="#191970" points="65.8509,-536.7926 68.1577,-547.1333 72.8029,-537.6111 65.8509,-536.7926"/>
</g>
<!-- Node25 -->
<g id="node25" class="node">
<title>Node25</title>
<g id="a_node25"><a xlink:href="../../d4/d65/Fun4All__single__particle_8C.html#a8a492b5dbead494bfdddbebde8a49b0e" target="_top" xlink:title="Fun4All_single_particle">
<polygon fill="none" stroke="#000000" points="187.5,-78.5 187.5,-98.5 319.5,-98.5 319.5,-78.5 187.5,-78.5"/>
<text text-anchor="middle" x="253.5" y="-85.5" font-family="FreeSans" font-size="10.00" fill="#000000">Fun4All_single_particle</text>
</a>
</g>
</g>
<!-- Node1&#45;&gt;Node25 -->
<g id="edge24" class="edge">
<title>Node1&#45;&gt;Node25</title>
<path fill="none" stroke="#191970" d="M68.8471,-537.2537C76.471,-458.1254 108.0439,-171.0534 170,-108.5 174.9302,-103.5222 180.8646,-99.6981 187.2683,-96.7718"/>
<polygon fill="#191970" stroke="#191970" points="65.3477,-537.084 67.8952,-547.368 72.3169,-537.74 65.3477,-537.084"/>
</g>
<!-- Node26 -->
<g id="node26" class="node">
<title>Node26</title>
<g id="a_node26"><a xlink:href="../../d0/d99/Jin__BJet_8C.html#a36169bfee2ed7efda633944d12aebad9" target="_top" xlink:title="Jin_BJet">
<polygon fill="none" stroke="#000000" points="226,-39.5 226,-59.5 281,-59.5 281,-39.5 226,-39.5"/>
<text text-anchor="middle" x="253.5" y="-46.5" font-family="FreeSans" font-size="10.00" fill="#000000">Jin_BJet</text>
</a>
</g>
</g>
<!-- Node1&#45;&gt;Node26 -->
<g id="edge25" class="edge">
<title>Node1&#45;&gt;Node26</title>
<path fill="none" stroke="#191970" d="M68.4568,-537.1328C74.8435,-453.5766 103.0912,-138.2456 170,-69.5 184.3477,-54.7585 207.4909,-50.0984 225.7777,-48.9344"/>
<polygon fill="#191970" stroke="#191970" points="64.9494,-537.1031 67.6989,-547.3349 71.9302,-537.6217 64.9494,-537.1031"/>
</g>
<!-- Node27 -->
<g id="node27" class="node">
<title>Node27</title>
<g id="a_node27"><a xlink:href="../../dd/d7c/coresoftware_2blob_2master_2offline_2packages_2NodeDump_2macro_2run__dump_8C.html#ad821e25f39e2f306bd2e7f4626bc8049" target="_top" xlink:title="run_dump">
<polygon fill="none" stroke="#000000" points="219.5,-.5 219.5,-20.5 287.5,-20.5 287.5,-.5 219.5,-.5"/>
<text text-anchor="middle" x="253.5" y="-7.5" font-family="FreeSans" font-size="10.00" fill="#000000">run_dump</text>
</a>
</g>
</g>
<!-- Node1&#45;&gt;Node27 -->
<g id="edge26" class="edge">
<title>Node1&#45;&gt;Node27</title>
<path fill="none" stroke="#191970" d="M68.108,-537.213C73.2993,-449.6974 98.0662,-105.5263 170,-30.5 182.5861,-17.3729 202.1399,-12.2153 219.1619,-10.4126"/>
<polygon fill="#191970" stroke="#191970" points="64.6021,-537.2173 67.5247,-547.4011 71.5907,-537.6175 64.6021,-537.2173"/>
</g>
</g>
</svg>
