<?xml version="1.0" encoding="UTF-8" standalone="no"?>
<!DOCTYPE svg PUBLIC "-//W3C//DTD SVG 1.1//EN"
 "http://www.w3.org/Graphics/SVG/1.1/DTD/svg11.dtd">
<!-- Generated by graphviz version 2.40.1 (20161225.0304)
 -->
<!-- Title: Fun4AllServer::unregisterSubsystemsNow Pages: 1 -->
<svg width="702pt" height="1901pt"
 viewBox="0.00 0.00 702.00 1901.00" xmlns="http://www.w3.org/2000/svg" xmlns:xlink="http://www.w3.org/1999/xlink">
<g id="graph0" class="graph" transform="scale(1 1) rotate(0) translate(4 1897)">
<title>Fun4AllServer::unregisterSubsystemsNow</title>
<!-- Node1 -->
<g id="node1" class="node">
<title>Node1</title>
<polygon fill="#bfbfbf" stroke="#000000" points="0,-889.5 0,-921.5 146,-921.5 146,-889.5 0,-889.5"/>
<text text-anchor="start" x="8" y="-908.5" font-family="FreeSans" font-size="10.00" fill="#000000">Fun4AllServer::unregister</text>
<text text-anchor="middle" x="73" y="-896.5" font-family="FreeSans" font-size="10.00" fill="#000000">SubsystemsNow</text>
</g>
<!-- Node2 -->
<g id="node2" class="node">
<title>Node2</title>
<g id="a_node2"><a xlink:href="../../da/d29/classFun4AllServer.html#afcfc5583204cac58b4e66a2406187a18" target="_top" xlink:title="Fun4AllServer::BeginRun">
<polygon fill="none" stroke="#000000" points="182,-918.5 182,-938.5 323,-938.5 323,-918.5 182,-918.5"/>
<text text-anchor="middle" x="252.5" y="-925.5" font-family="FreeSans" font-size="10.00" fill="#000000">Fun4AllServer::BeginRun</text>
</a>
</g>
</g>
<!-- Node1&#45;&gt;Node2 -->
<g id="edge1" class="edge">
<title>Node1&#45;&gt;Node2</title>
<path fill="none" stroke="#191970" d="M156.0772,-916.145C164.7021,-917.2501 173.4097,-918.3659 181.8789,-919.4511"/>
<polygon fill="#191970" stroke="#191970" points="156.3733,-912.6544 146.0095,-914.855 155.4836,-919.5976 156.3733,-912.6544"/>
</g>
<!-- Node49 -->
<g id="node49" class="node">
<title>Node49</title>
<g id="a_node49"><a xlink:href="../../da/d29/classFun4AllServer.html#a6a65a944dfb40966ace97d35ab1f7942" target="_top" xlink:title="Fun4AllServer::process\l_event">
<polygon fill="none" stroke="#000000" points="186.5,-867.5 186.5,-899.5 318.5,-899.5 318.5,-867.5 186.5,-867.5"/>
<text text-anchor="start" x="194.5" y="-886.5" font-family="FreeSans" font-size="10.00" fill="#000000">Fun4AllServer::process</text>
<text text-anchor="middle" x="252.5" y="-874.5" font-family="FreeSans" font-size="10.00" fill="#000000">_event</text>
</a>
</g>
</g>
<!-- Node1&#45;&gt;Node49 -->
<g id="edge48" class="edge">
<title>Node1&#45;&gt;Node49</title>
<path fill="none" stroke="#191970" d="M156.1326,-895.3111C166.3132,-894.0633 176.608,-892.8015 186.4892,-891.5905"/>
<polygon fill="#191970" stroke="#191970" points="155.5094,-891.8611 146.0095,-896.5518 156.3611,-898.8092 155.5094,-891.8611"/>
</g>
<!-- Node3 -->
<g id="node3" class="node">
<title>Node3</title>
<g id="a_node3"><a xlink:href="../../da/d29/classFun4AllServer.html#a11bbc8b2f53bc06e0b05ee202dd6372a" target="_top" xlink:title="run n events (0 means up to end of file)">
<polygon fill="none" stroke="#ff0000" points="370,-918.5 370,-938.5 480,-938.5 480,-918.5 370,-918.5"/>
<text text-anchor="middle" x="425" y="-925.5" font-family="FreeSans" font-size="10.00" fill="#000000">Fun4AllServer::run</text>
</a>
</g>
</g>
<!-- Node2&#45;&gt;Node3 -->
<g id="edge2" class="edge">
<title>Node2&#45;&gt;Node3</title>
<path fill="none" stroke="#191970" d="M333.4352,-928.5C345.7343,-928.5 358.1781,-928.5 369.761,-928.5"/>
<polygon fill="#191970" stroke="#191970" points="333.1601,-925.0001 323.1601,-928.5 333.16,-932.0001 333.1601,-925.0001"/>
</g>
<!-- Node4 -->
<g id="node4" class="node">
<title>Node4</title>
<g id="a_node4"><a xlink:href="../../dd/d9c/AnalyzeTree_8C.html#af10d516ac25cd720d54534a63ef7e2f8" target="_top" xlink:title="AnalyzeTree">
<polygon fill="none" stroke="#000000" points="571.5,-1872.5 571.5,-1892.5 649.5,-1892.5 649.5,-1872.5 571.5,-1872.5"/>
<text text-anchor="middle" x="610.5" y="-1879.5" font-family="FreeSans" font-size="10.00" fill="#000000">AnalyzeTree</text>
</a>
</g>
</g>
<!-- Node3&#45;&gt;Node4 -->
<g id="edge3" class="edge">
<title>Node3&#45;&gt;Node4</title>
<path fill="none" stroke="#191970" d="M425.8257,-948.9268C431.2791,-1079.3734 463.862,-1792.6439 527,-1863.5 538.0776,-1875.9317 555.4447,-1881.1224 571.4777,-1883.0284"/>
<polygon fill="#191970" stroke="#191970" points="429.3148,-948.5895 425.406,-938.7421 422.3208,-948.8778 429.3148,-948.5895"/>
</g>
<!-- Node5 -->
<g id="node5" class="node">
<title>Node5</title>
<g id="a_node5"><a xlink:href="../../db/d89/ConstructGeometry_8C.html#a21c369835643f1016f506a3da3b8d446" target="_top" xlink:title="ConstructGeometry">
<polygon fill="none" stroke="#000000" points="553,-1833.5 553,-1853.5 668,-1853.5 668,-1833.5 553,-1833.5"/>
<text text-anchor="middle" x="610.5" y="-1840.5" font-family="FreeSans" font-size="10.00" fill="#000000">ConstructGeometry</text>
</a>
</g>
</g>
<!-- Node3&#45;&gt;Node5 -->
<g id="edge4" class="edge">
<title>Node3&#45;&gt;Node5</title>
<path fill="none" stroke="#191970" d="M425.9238,-948.853C431.8697,-1075.8985 466.4291,-1756.8449 527,-1824.5 533.8425,-1832.1428 543.0625,-1837.046 552.8813,-1840.1311"/>
<polygon fill="#191970" stroke="#191970" points="429.4084,-948.4373 425.4507,-938.6095 422.4159,-948.7603 429.4084,-948.4373"/>
</g>
<!-- Node6 -->
<g id="node6" class="node">
<title>Node6</title>
<g id="a_node6"><a xlink:href="../../d3/d7f/Fun_8C.html#af69a3eef3ff244bb51f5740c6ecb5432" target="_top" xlink:title="Fun">
<polygon fill="none" stroke="#000000" points="593.5,-1794.5 593.5,-1814.5 627.5,-1814.5 627.5,-1794.5 593.5,-1794.5"/>
<text text-anchor="middle" x="610.5" y="-1801.5" font-family="FreeSans" font-size="10.00" fill="#000000">Fun</text>
</a>
</g>
</g>
<!-- Node3&#45;&gt;Node6 -->
<g id="edge5" class="edge">
<title>Node3&#45;&gt;Node6</title>
<path fill="none" stroke="#191970" d="M426.0281,-948.7389C432.4793,-1072.2234 468.9873,-1721.0345 527,-1785.5 543.6081,-1803.9554 574.0814,-1806.4178 593.2626,-1805.8993"/>
<polygon fill="#191970" stroke="#191970" points="429.5231,-948.5498 425.5121,-938.7436 422.5324,-948.9108 429.5231,-948.5498"/>
</g>
<!-- Node7 -->
<g id="node7" class="node">
<title>Node7</title>
<g id="a_node7"><a xlink:href="../../dc/ddc/Fun4All__Ana_8C.html#a9152007c2477efc543d79f3b97fbf50c" target="_top" xlink:title="Fun4All_Ana">
<polygon fill="none" stroke="#000000" points="571.5,-1755.5 571.5,-1775.5 649.5,-1775.5 649.5,-1755.5 571.5,-1755.5"/>
<text text-anchor="middle" x="610.5" y="-1762.5" font-family="FreeSans" font-size="10.00" fill="#000000">Fun4All_Ana</text>
</a>
</g>
</g>
<!-- Node3&#45;&gt;Node7 -->
<g id="edge6" class="edge">
<title>Node3&#45;&gt;Node7</title>
<path fill="none" stroke="#191970" d="M426.1374,-948.5534C433.1021,-1068.2455 471.5318,-1685.2075 527,-1746.5 538.0732,-1758.7359 555.2421,-1763.933 571.1389,-1765.8949"/>
<polygon fill="#191970" stroke="#191970" points="429.631,-948.3403 425.5621,-938.558 422.6426,-948.7426 429.631,-948.3403"/>
</g>
<!-- Node8 -->
<g id="node8" class="node">
<title>Node8</title>
<g id="a_node8"><a xlink:href="../../df/d77/Fun4All__CaloAna_8C.html#a4f0841e3d8be48f96cc4e95380315ff8" target="_top" xlink:title="Fun4All_CaloAna">
<polygon fill="none" stroke="#000000" points="560.5,-1716.5 560.5,-1736.5 660.5,-1736.5 660.5,-1716.5 560.5,-1716.5"/>
<text text-anchor="middle" x="610.5" y="-1723.5" font-family="FreeSans" font-size="10.00" fill="#000000">Fun4All_CaloAna</text>
</a>
</g>
</g>
<!-- Node3&#45;&gt;Node8 -->
<g id="edge7" class="edge">
<title>Node3&#45;&gt;Node8</title>
<path fill="none" stroke="#191970" d="M426.276,-948.6753C433.8253,-1065.2467 474.1203,-1649.4273 527,-1707.5 535.6083,-1716.9536 547.8562,-1722.1998 560.3269,-1724.9986"/>
<polygon fill="#191970" stroke="#191970" points="429.7642,-948.3778 425.6315,-938.6222 422.7785,-948.8257 429.7642,-948.3778"/>
</g>
<!-- Node9 -->
<g id="node9" class="node">
<title>Node9</title>
<g id="a_node9"><a xlink:href="../../da/dae/Fun4All__EICAnalysis__DIS_8C.html#a6be6c58cd68a395182a998295a1106ae" target="_top" xlink:title="Fun4All_EICAnalysis_DIS">
<polygon fill="none" stroke="#000000" points="541,-1677.5 541,-1697.5 680,-1697.5 680,-1677.5 541,-1677.5"/>
<text text-anchor="middle" x="610.5" y="-1684.5" font-family="FreeSans" font-size="10.00" fill="#000000">Fun4All_EICAnalysis_DIS</text>
</a>
</g>
</g>
<!-- Node3&#45;&gt;Node9 -->
<g id="edge8" class="edge">
<title>Node3&#45;&gt;Node9</title>
<path fill="none" stroke="#191970" d="M426.424,-948.7144C434.5721,-1061.8697 476.6919,-1613.6262 527,-1668.5 530.9183,-1672.7739 535.5806,-1676.1865 540.6694,-1678.9011"/>
<polygon fill="#191970" stroke="#191970" points="429.9086,-948.3714 425.7058,-938.6458 422.9263,-948.8695 429.9086,-948.3714"/>
</g>
<!-- Node10 -->
<g id="node10" class="node">
<title>Node10</title>
<g id="a_node10"><a xlink:href="../../d2/d9b/Fun4All__EICAnalysis__DISReco_8C.html#a3c160743ec7b9b4572cf73a19640a34f" target="_top" xlink:title="Fun4All_EICAnalysis\l_DISReco">
<polygon fill="none" stroke="#000000" points="552,-1626.5 552,-1658.5 669,-1658.5 669,-1626.5 552,-1626.5"/>
<text text-anchor="start" x="560" y="-1645.5" font-family="FreeSans" font-size="10.00" fill="#000000">Fun4All_EICAnalysis</text>
<text text-anchor="middle" x="610.5" y="-1633.5" font-family="FreeSans" font-size="10.00" fill="#000000">_DISReco</text>
</a>
</g>
</g>
<!-- Node3&#45;&gt;Node10 -->
<g id="edge9" class="edge">
<title>Node3&#45;&gt;Node10</title>
<path fill="none" stroke="#191970" d="M425.1724,-949.0248C426.4509,-1052.2425 437.1812,-1513.7246 527,-1617.5 533.536,-1625.0516 542.2519,-1630.3711 551.5893,-1634.1075"/>
<polygon fill="#191970" stroke="#191970" points="428.6691,-948.6904 425.0627,-938.7282 421.6695,-948.765 428.6691,-948.6904"/>
</g>
<!-- Node11 -->
<g id="node11" class="node">
<title>Node11</title>
<g id="a_node11"><a xlink:href="../../d2/d47/Fun4All__EICAnalysis__DVCS_8C.html#a84f48142243e969fd353cc8509f0ba22" target="_top" xlink:title="Fun4All_EICAnalysis_DVCS">
<polygon fill="none" stroke="#000000" points="535.5,-1587.5 535.5,-1607.5 685.5,-1607.5 685.5,-1587.5 535.5,-1587.5"/>
<text text-anchor="middle" x="610.5" y="-1594.5" font-family="FreeSans" font-size="10.00" fill="#000000">Fun4All_EICAnalysis_DVCS</text>
</a>
</g>
</g>
<!-- Node3&#45;&gt;Node11 -->
<g id="edge10" class="edge">
<title>Node3&#45;&gt;Node11</title>
<path fill="none" stroke="#191970" d="M425.2379,-948.9299C426.8245,-1048.7357 438.7785,-1484.0581 527,-1578.5 530.2476,-1581.9766 533.988,-1584.8809 538.0472,-1587.3017"/>
<polygon fill="#191970" stroke="#191970" points="428.7376,-948.8738 425.0969,-938.9242 421.7383,-948.9725 428.7376,-948.8738"/>
</g>
<!-- Node12 -->
<g id="node12" class="node">
<title>Node12</title>
<g id="a_node12"><a xlink:href="../../d3/dee/Fun4All__EICAnalysis__Exclusive_8C.html#ad3a88bfdb2a21a757edf221e36d6bffe" target="_top" xlink:title="Fun4All_EICAnalysis\l_Exclusive">
<polygon fill="none" stroke="#000000" points="552,-1536.5 552,-1568.5 669,-1568.5 669,-1536.5 552,-1536.5"/>
<text text-anchor="start" x="560" y="-1555.5" font-family="FreeSans" font-size="10.00" fill="#000000">Fun4All_EICAnalysis</text>
<text text-anchor="middle" x="610.5" y="-1543.5" font-family="FreeSans" font-size="10.00" fill="#000000">_Exclusive</text>
</a>
</g>
</g>
<!-- Node3&#45;&gt;Node12 -->
<g id="edge11" class="edge">
<title>Node3&#45;&gt;Node12</title>
<path fill="none" stroke="#191970" d="M425.6605,-948.6738C429.1443,-1042.8701 448.327,-1438.5703 527,-1527.5 533.6176,-1534.9803 542.3729,-1540.2653 551.724,-1543.9896"/>
<polygon fill="#191970" stroke="#191970" points="429.1523,-948.3759 425.3033,-938.505 422.1566,-948.6217 429.1523,-948.3759"/>
</g>
<!-- Node13 -->
<g id="node13" class="node">
<title>Node13</title>
<g id="a_node13"><a xlink:href="../../d2/d00/Fun4All__EICAnalysis__Leptoquarks_8C.html#a328697c2ae82c0b33f95bea9aefb93f4" target="_top" xlink:title="Fun4All_EICAnalysis\l_Leptoquarks">
<polygon fill="none" stroke="#000000" points="552,-1485.5 552,-1517.5 669,-1517.5 669,-1485.5 552,-1485.5"/>
<text text-anchor="start" x="560" y="-1504.5" font-family="FreeSans" font-size="10.00" fill="#000000">Fun4All_EICAnalysis</text>
<text text-anchor="middle" x="610.5" y="-1492.5" font-family="FreeSans" font-size="10.00" fill="#000000">_Leptoquarks</text>
</a>
</g>
</g>
<!-- Node3&#45;&gt;Node13 -->
<g id="edge12" class="edge">
<title>Node3&#45;&gt;Node13</title>
<path fill="none" stroke="#191970" d="M426.0071,-948.6309C430.8618,-1037.7593 454.6617,-1395.9853 527,-1476.5 533.6748,-1483.9293 542.4579,-1489.1895 551.8186,-1492.9053"/>
<polygon fill="#191970" stroke="#191970" points="429.4952,-948.3104 425.4754,-938.5077 422.5048,-948.6776 429.4952,-948.3104"/>
</g>
<!-- Node14 -->
<g id="node14" class="node">
<title>Node14</title>
<g id="a_node14"><a xlink:href="../../df/d6c/Fun4All__EICAnalysis__JPsi_8C.html#ad03644e8a25c5261146f6c59826ed6d0" target="_top" xlink:title="Fun4All_EICAnalysis\l_Quarkonia">
<polygon fill="none" stroke="#000000" points="552,-1434.5 552,-1466.5 669,-1466.5 669,-1434.5 552,-1434.5"/>
<text text-anchor="start" x="560" y="-1453.5" font-family="FreeSans" font-size="10.00" fill="#000000">Fun4All_EICAnalysis</text>
<text text-anchor="middle" x="610.5" y="-1441.5" font-family="FreeSans" font-size="10.00" fill="#000000">_Quarkonia</text>
</a>
</g>
</g>
<!-- Node3&#45;&gt;Node14 -->
<g id="edge13" class="edge">
<title>Node3&#45;&gt;Node14</title>
<path fill="none" stroke="#191970" d="M426.4434,-948.8767C432.8104,-1033.1549 461.0481,-1353.4379 527,-1425.5 533.7429,-1432.8676 542.5589,-1438.0979 551.9311,-1441.8033"/>
<polygon fill="#191970" stroke="#191970" points="429.9263,-948.5145 425.7025,-938.798 422.9451,-949.0278 429.9263,-948.5145"/>
</g>
<!-- Node15 -->
<g id="node15" class="node">
<title>Node15</title>
<g id="a_node15"><a xlink:href="../../df/d90/Fun4All__EICAnalysis__TrackEval_8C.html#ab4d10c3db3266243a5c314b02c02a360" target="_top" xlink:title="Fun4All_EICAnalysis\l_TrackEval">
<polygon fill="none" stroke="#000000" points="552,-1383.5 552,-1415.5 669,-1415.5 669,-1383.5 552,-1383.5"/>
<text text-anchor="start" x="560" y="-1402.5" font-family="FreeSans" font-size="10.00" fill="#000000">Fun4All_EICAnalysis</text>
<text text-anchor="middle" x="610.5" y="-1390.5" font-family="FreeSans" font-size="10.00" fill="#000000">_TrackEval</text>
</a>
</g>
</g>
<!-- Node3&#45;&gt;Node15 -->
<g id="edge14" class="edge">
<title>Node3&#45;&gt;Node15</title>
<path fill="none" stroke="#191970" d="M426.9232,-948.511C434.8271,-1026.7339 467.246,-1310.6613 527,-1374.5 533.7216,-1381.6811 542.413,-1386.8272 551.6405,-1390.5088"/>
<polygon fill="#191970" stroke="#191970" points="430.4017,-948.1202 425.9346,-938.5132 423.4357,-948.8091 430.4017,-948.1202"/>
</g>
<!-- Node16 -->
<g id="node16" class="node">
<title>Node16</title>
<g id="a_node16"><a xlink:href="../../de/dc8/Fun4All__EMCalLikelihood_8C.html#a209f0d5788c9d3adba2967f194bca64a" target="_top" xlink:title="Fun4All_EMCalLikelihood">
<polygon fill="none" stroke="#000000" points="540,-1344.5 540,-1364.5 681,-1364.5 681,-1344.5 540,-1344.5"/>
<text text-anchor="middle" x="610.5" y="-1351.5" font-family="FreeSans" font-size="10.00" fill="#000000">Fun4All_EMCalLikelihood</text>
</a>
</g>
</g>
<!-- Node3&#45;&gt;Node16 -->
<g id="edge15" class="edge">
<title>Node3&#45;&gt;Node16</title>
<path fill="none" stroke="#191970" d="M427.2879,-948.7687C436.0931,-1023.1842 470.1693,-1279.8961 527,-1335.5 530.8256,-1339.243 535.2265,-1342.3091 539.9652,-1344.8145"/>
<polygon fill="#191970" stroke="#191970" points="430.7607,-948.3317 426.132,-938.8015 423.8073,-949.1381 430.7607,-948.3317"/>
</g>
<!-- Node17 -->
<g id="node17" class="node">
<title>Node17</title>
<g id="a_node17"><a xlink:href="../../df/d51/Fun4All__ExportGeom_8C.html#a582925c51bad38d562cf19e71211adfd" target="_top" xlink:title="get geometry from DST file and output TGeoManager ROOT files or other formats of geometry files...">
<polygon fill="none" stroke="#000000" points="549.5,-1305.5 549.5,-1325.5 671.5,-1325.5 671.5,-1305.5 549.5,-1305.5"/>
<text text-anchor="middle" x="610.5" y="-1312.5" font-family="FreeSans" font-size="10.00" fill="#000000">Fun4All_ExportGeom</text>
</a>
</g>
</g>
<!-- Node3&#45;&gt;Node17 -->
<g id="edge16" class="edge">
<title>Node3&#45;&gt;Node17</title>
<path fill="none" stroke="#191970" d="M427.8347,-948.5889C438.044,-1018.1159 475.0951,-1246.9617 527,-1296.5 533.2379,-1302.4534 540.9353,-1306.6845 549.1107,-1309.6681"/>
<polygon fill="#191970" stroke="#191970" points="431.2737,-947.9144 426.3813,-938.5168 424.3455,-948.9142 431.2737,-947.9144"/>
</g>
<!-- Node18 -->
<g id="node18" class="node">
<title>Node18</title>
<g id="a_node18"><a xlink:href="../../de/d55/Fun4All__G4__block_8C.html#a6a063a649a0dd3318a517d5af98430dd" target="_top" xlink:title="Fun4All_G4_block">
<polygon fill="none" stroke="#000000" points="558,-1266.5 558,-1286.5 663,-1286.5 663,-1266.5 558,-1266.5"/>
<text text-anchor="middle" x="610.5" y="-1273.5" font-family="FreeSans" font-size="10.00" fill="#000000">Fun4All_G4_block</text>
</a>
</g>
</g>
<!-- Node3&#45;&gt;Node18 -->
<g id="edge17" class="edge">
<title>Node3&#45;&gt;Node18</title>
<path fill="none" stroke="#191970" d="M428.5988,-948.9499C440.4398,-1013.9501 480.1214,-1214.0944 527,-1257.5 535.509,-1265.3786 546.5845,-1270.22 557.8726,-1273.1436"/>
<polygon fill="#191970" stroke="#191970" points="431.9828,-947.9911 426.7716,-938.7665 425.0928,-949.2275 431.9828,-947.9911"/>
</g>
<!-- Node19 -->
<g id="node19" class="node">
<title>Node19</title>
<g id="a_node19"><a xlink:href="../../d8/d91/Fun4All__G4__Clusters_8C.html#ab7d8e64f12f512631d4c0e8c6683ec5b" target="_top" xlink:title="Fun4All_G4_Clusters">
<polygon fill="none" stroke="#000000" points="551,-1227.5 551,-1247.5 670,-1247.5 670,-1227.5 551,-1227.5"/>
<text text-anchor="middle" x="610.5" y="-1234.5" font-family="FreeSans" font-size="10.00" fill="#000000">Fun4All_G4_Clusters</text>
</a>
</g>
</g>
<!-- Node3&#45;&gt;Node19 -->
<g id="edge18" class="edge">
<title>Node3&#45;&gt;Node19</title>
<path fill="none" stroke="#191970" d="M425.7456,-948.7166C428.8417,-1001.6392 444.7954,-1145.2055 527,-1218.5 533.769,-1224.5353 542.0532,-1228.7733 550.746,-1231.7276"/>
<polygon fill="#191970" stroke="#191970" points="429.2349,-948.4117 425.2506,-938.5946 422.2433,-948.7537 429.2349,-948.4117"/>
</g>
<!-- Node20 -->
<g id="node20" class="node">
<title>Node20</title>
<g id="a_node20"><a xlink:href="../../d2/dee/Fun4All__G4__Cylinder_8C.html#a271dc4f10f6f77107705e0efef0c97e5" target="_top" xlink:title="Fun4All_G4_Cylinder">
<polygon fill="none" stroke="#000000" points="550,-1188.5 550,-1208.5 671,-1208.5 671,-1188.5 550,-1188.5"/>
<text text-anchor="middle" x="610.5" y="-1195.5" font-family="FreeSans" font-size="10.00" fill="#000000">Fun4All_G4_Cylinder</text>
</a>
</g>
</g>
<!-- Node3&#45;&gt;Node20 -->
<g id="edge19" class="edge">
<title>Node3&#45;&gt;Node20</title>
<path fill="none" stroke="#191970" d="M426.9704,-948.55C432.7859,-996.3762 454.3232,-1117.7527 527,-1179.5 533.5714,-1185.0831 541.4512,-1189.1117 549.7093,-1192.0035"/>
<polygon fill="#191970" stroke="#191970" points="430.4405,-948.0861 425.8566,-938.5342 423.4833,-948.8598 430.4405,-948.0861"/>
</g>
<!-- Node21 -->
<g id="node21" class="node">
<title>Node21</title>
<g id="a_node21"><a xlink:href="../../da/d02/Fun4All__G4__EICDetector_8C.html#afbe82cefa1d1fd031d9a8586b7bb68c6" target="_top" xlink:title="Fun4All_G4_EICDetector">
<polygon fill="none" stroke="#000000" points="541,-1149.5 541,-1169.5 680,-1169.5 680,-1149.5 541,-1149.5"/>
<text text-anchor="middle" x="610.5" y="-1156.5" font-family="FreeSans" font-size="10.00" fill="#000000">Fun4All_G4_EICDetector</text>
</a>
</g>
</g>
<!-- Node3&#45;&gt;Node21 -->
<g id="edge20" class="edge">
<title>Node3&#45;&gt;Node21</title>
<path fill="none" stroke="#191970" d="M428.6818,-948.8628C437.4999,-991.475 463.968,-1090.2494 527,-1140.5 531.5337,-1144.1144 536.624,-1147.0685 541.9961,-1149.4796"/>
<polygon fill="#191970" stroke="#191970" points="432.08,-948.0025 426.7271,-938.8593 425.2099,-949.3449 432.08,-948.0025"/>
</g>
<!-- Node22 -->
<g id="node22" class="node">
<title>Node22</title>
<g id="a_node22"><a xlink:href="../../dd/d2a/Fun4All__G4__EICDetector__LQ_8C.html#aaa01242fd6e77ca43a9d49a6d46008e4" target="_top" xlink:title="Fun4All_G4_EICDetector_LQ">
<polygon fill="none" stroke="#000000" points="532.5,-1110.5 532.5,-1130.5 688.5,-1130.5 688.5,-1110.5 532.5,-1110.5"/>
<text text-anchor="middle" x="610.5" y="-1117.5" font-family="FreeSans" font-size="10.00" fill="#000000">Fun4All_G4_EICDetector_LQ</text>
</a>
</g>
</g>
<!-- Node3&#45;&gt;Node22 -->
<g id="edge21" class="edge">
<title>Node3&#45;&gt;Node22</title>
<path fill="none" stroke="#191970" d="M430.9468,-948.5726C442.844,-985.0741 473.1632,-1062.1726 527,-1101.5 531.9221,-1105.0956 537.4094,-1108.0268 543.1545,-1110.4142"/>
<polygon fill="#191970" stroke="#191970" points="434.1645,-947.135 427.8403,-938.6347 427.4833,-949.2235 434.1645,-947.135"/>
</g>
<!-- Node23 -->
<g id="node23" class="node">
<title>Node23</title>
<g id="a_node23"><a xlink:href="../../df/d4b/Fun4All__G4__EICDetector__LQ__analysis_8C.html#af903e98824d083a08b353ac15996ee0e" target="_top" xlink:title="Fun4All_G4_EICDetector\l_LQ_analysis">
<polygon fill="none" stroke="#000000" points="541,-1059.5 541,-1091.5 680,-1091.5 680,-1059.5 541,-1059.5"/>
<text text-anchor="start" x="549" y="-1078.5" font-family="FreeSans" font-size="10.00" fill="#000000">Fun4All_G4_EICDetector</text>
<text text-anchor="middle" x="610.5" y="-1066.5" font-family="FreeSans" font-size="10.00" fill="#000000">_LQ_analysis</text>
</a>
</g>
</g>
<!-- Node3&#45;&gt;Node23 -->
<g id="edge22" class="edge">
<title>Node3&#45;&gt;Node23</title>
<path fill="none" stroke="#191970" d="M435.9288,-947.5847C452.3029,-974.4866 485.7325,-1023.3046 527,-1050.5 532.1805,-1053.914 537.8434,-1056.8756 543.7013,-1059.4423"/>
<polygon fill="#191970" stroke="#191970" points="438.7975,-945.5604 430.6851,-938.7458 432.7772,-949.132 438.7975,-945.5604"/>
</g>
<!-- Node24 -->
<g id="node24" class="node">
<title>Node24</title>
<g id="a_node24"><a xlink:href="../../d1/daf/Fun4All__G4__EICDetector__LQ__analysis__nf_8C.html#a5022607d21247b87dd208b0828905147" target="_top" xlink:title="Fun4All_G4_EICDetector\l_LQ_analysis_nf">
<polygon fill="none" stroke="#000000" points="541,-1008.5 541,-1040.5 680,-1040.5 680,-1008.5 541,-1008.5"/>
<text text-anchor="start" x="549" y="-1027.5" font-family="FreeSans" font-size="10.00" fill="#000000">Fun4All_G4_EICDetector</text>
<text text-anchor="middle" x="610.5" y="-1015.5" font-family="FreeSans" font-size="10.00" fill="#000000">_LQ_analysis_nf</text>
</a>
</g>
</g>
<!-- Node3&#45;&gt;Node24 -->
<g id="edge23" class="edge">
<title>Node3&#45;&gt;Node24</title>
<path fill="none" stroke="#191970" d="M444.6985,-945.0736C464.4225,-960.9528 496.1915,-984.6368 527,-999.5 533.8146,-1002.7876 541.1525,-1005.7447 548.5493,-1008.3749"/>
<polygon fill="#191970" stroke="#191970" points="446.7314,-942.2147 436.7756,-938.5908 442.2985,-947.6322 446.7314,-942.2147"/>
</g>
<!-- Node25 -->
<g id="node25" class="node">
<title>Node25</title>
<g id="a_node25"><a xlink:href="../../d4/df5/Fun4All__G4__EICDetector__LQ__reference_8C.html#a2feefc472f17f90b3cbe74897d049f75" target="_top" xlink:title="Fun4All_G4_EICDetector\l_LQ_reference">
<polygon fill="none" stroke="#000000" points="541,-957.5 541,-989.5 680,-989.5 680,-957.5 541,-957.5"/>
<text text-anchor="start" x="549" y="-976.5" font-family="FreeSans" font-size="10.00" fill="#000000">Fun4All_G4_EICDetector</text>
<text text-anchor="middle" x="610.5" y="-964.5" font-family="FreeSans" font-size="10.00" fill="#000000">_LQ_reference</text>
</a>
</g>
</g>
<!-- Node3&#45;&gt;Node25 -->
<g id="edge24" class="edge">
<title>Node3&#45;&gt;Node25</title>
<path fill="none" stroke="#191970" d="M476.6059,-941.019C497.5534,-946.1006 522.0126,-952.0341 544.2525,-957.4292"/>
<polygon fill="#191970" stroke="#191970" points="477.1731,-937.5551 466.6298,-938.5989 475.5228,-944.3578 477.1731,-937.5551"/>
</g>
<!-- Node26 -->
<g id="node26" class="node">
<title>Node26</title>
<g id="a_node26"><a xlink:href="../../d3/d51/Fun4All__G4__EICDetector__RICH_8C.html#a5739502b0a7a1ba782c01069f77e933f" target="_top" xlink:title="Fun4All_G4_EICDetector_RICH">
<polygon fill="none" stroke="#000000" points="527,-918.5 527,-938.5 694,-938.5 694,-918.5 527,-918.5"/>
<text text-anchor="middle" x="610.5" y="-925.5" font-family="FreeSans" font-size="10.00" fill="#000000">Fun4All_G4_EICDetector_RICH</text>
</a>
</g>
</g>
<!-- Node3&#45;&gt;Node26 -->
<g id="edge25" class="edge">
<title>Node3&#45;&gt;Node26</title>
<path fill="none" stroke="#191970" d="M490.3084,-928.5C502.0778,-928.5 514.4951,-928.5 526.7036,-928.5"/>
<polygon fill="#191970" stroke="#191970" points="490.1539,-925.0001 480.1539,-928.5 490.1538,-932.0001 490.1539,-925.0001"/>
</g>
<!-- Node27 -->
<g id="node27" class="node">
<title>Node27</title>
<g id="a_node27"><a xlink:href="../../d9/d0e/Fun4All__G4__EICIR_8C.html#ac3543d1dd4a0abed3987d40939ee3f87" target="_top" xlink:title="Fun4All_G4_EICIR">
<polygon fill="none" stroke="#000000" points="558.5,-879.5 558.5,-899.5 662.5,-899.5 662.5,-879.5 558.5,-879.5"/>
<text text-anchor="middle" x="610.5" y="-886.5" font-family="FreeSans" font-size="10.00" fill="#000000">Fun4All_G4_EICIR</text>
</a>
</g>
</g>
<!-- Node3&#45;&gt;Node27 -->
<g id="edge26" class="edge">
<title>Node3&#45;&gt;Node27</title>
<path fill="none" stroke="#191970" d="M482.7758,-916.3531C508.5153,-910.9415 538.4651,-904.6448 562.891,-899.5094"/>
<polygon fill="#191970" stroke="#191970" points="481.8368,-912.9739 472.7709,-918.4565 483.2771,-919.8241 481.8368,-912.9739"/>
</g>
<!-- Node28 -->
<g id="node28" class="node">
<title>Node28</title>
<g id="a_node28"><a xlink:href="../../d7/d9e/Fun4All__G4__fsPHENIX_8C.html#af48911d394d2412e817583700f2bbee2" target="_top" xlink:title="Fun4All_G4_fsPHENIX">
<polygon fill="none" stroke="#000000" points="548.5,-840.5 548.5,-860.5 672.5,-860.5 672.5,-840.5 548.5,-840.5"/>
<text text-anchor="middle" x="610.5" y="-847.5" font-family="FreeSans" font-size="10.00" fill="#000000">Fun4All_G4_fsPHENIX</text>
</a>
</g>
</g>
<!-- Node3&#45;&gt;Node28 -->
<g id="edge27" class="edge">
<title>Node3&#45;&gt;Node28</title>
<path fill="none" stroke="#191970" d="M481.6066,-914.5637C484.8707,-913.0415 488.0292,-911.359 491,-909.5 511.2752,-896.8127 506.3742,-881.6088 527,-869.5 533.5387,-865.6613 540.7861,-862.598 548.2003,-860.1536"/>
<polygon fill="#191970" stroke="#191970" points="480.1085,-911.3954 472.1967,-918.4419 482.776,-917.8673 480.1085,-911.3954"/>
</g>
<!-- Node29 -->
<g id="node29" class="node">
<title>Node29</title>
<g id="a_node29"><a xlink:href="../../da/d2f/Fun4All__G4__fsPHENIX__FastSim_8C.html#a66fb850cae5fcaadda23b74a25ce4c9c" target="_top" xlink:title="Fun4All_G4_fsPHENIX\l_FastSim">
<polygon fill="none" stroke="#000000" points="548.5,-789.5 548.5,-821.5 672.5,-821.5 672.5,-789.5 548.5,-789.5"/>
<text text-anchor="start" x="556.5" y="-808.5" font-family="FreeSans" font-size="10.00" fill="#000000">Fun4All_G4_fsPHENIX</text>
<text text-anchor="middle" x="610.5" y="-796.5" font-family="FreeSans" font-size="10.00" fill="#000000">_FastSim</text>
</a>
</g>
</g>
<!-- Node3&#45;&gt;Node29 -->
<g id="edge28" class="edge">
<title>Node3&#45;&gt;Node29</title>
<path fill="none" stroke="#191970" d="M486.0774,-913.2527C487.7953,-912.0921 489.4425,-910.8435 491,-909.5 520.217,-884.2977 497.9171,-855.8569 527,-830.5 533.1592,-825.1299 540.4352,-820.913 548.0829,-817.6017"/>
<polygon fill="#191970" stroke="#191970" points="483.9971,-910.4066 476.9886,-918.3521 487.4223,-916.5114 483.9971,-910.4066"/>
</g>
<!-- Node30 -->
<g id="node30" class="node">
<title>Node30</title>
<g id="a_node30"><a xlink:href="../../d0/da6/Fun4All__G4__fsPHENIX__pi0_8C.html#a023d91d47b678e5d7f1751834aa517c6" target="_top" xlink:title="Fun4All_G4_fsPHENIX_pi0">
<polygon fill="none" stroke="#000000" points="538,-750.5 538,-770.5 683,-770.5 683,-750.5 538,-750.5"/>
<text text-anchor="middle" x="610.5" y="-757.5" font-family="FreeSans" font-size="10.00" fill="#000000">Fun4All_G4_fsPHENIX_pi0</text>
</a>
</g>
</g>
<!-- Node3&#45;&gt;Node30 -->
<g id="edge29" class="edge">
<title>Node3&#45;&gt;Node30</title>
<path fill="none" stroke="#191970" d="M487.0627,-913.019C488.4433,-911.9238 489.7601,-910.7526 491,-909.5 533.177,-866.8928 483.635,-820.8974 527,-779.5 530.6563,-776.0096 534.8142,-773.1112 539.2761,-770.7091"/>
<polygon fill="#191970" stroke="#191970" points="485.0652,-910.1423 478.5481,-918.4957 488.852,-916.0296 485.0652,-910.1423"/>
</g>
<!-- Node31 -->
<g id="node31" class="node">
<title>Node31</title>
<g id="a_node31"><a xlink:href="../../df/de1/Fun4All__G4__IonGun_8C.html#ab4966a2ae337cb8f0e45f7ee488e33b7" target="_top" xlink:title="Fun4All_G4_IonGun">
<polygon fill="none" stroke="#000000" points="553.5,-711.5 553.5,-731.5 667.5,-731.5 667.5,-711.5 553.5,-711.5"/>
<text text-anchor="middle" x="610.5" y="-718.5" font-family="FreeSans" font-size="10.00" fill="#000000">Fun4All_G4_IonGun</text>
</a>
</g>
</g>
<!-- Node3&#45;&gt;Node31 -->
<g id="edge30" class="edge">
<title>Node3&#45;&gt;Node31</title>
<path fill="none" stroke="#191970" d="M487.7008,-912.6637C488.8558,-911.671 489.9584,-910.6176 491,-909.5 543.358,-853.3188 473.0743,-795.1781 527,-740.5 534.2033,-733.1962 543.5896,-728.4493 553.4588,-725.4116"/>
<polygon fill="#191970" stroke="#191970" points="485.661,-909.8187 479.4109,-918.3736 489.6317,-915.5836 485.661,-909.8187"/>
</g>
<!-- Node32 -->
<g id="node32" class="node">
<title>Node32</title>
<g id="a_node32"><a xlink:href="../../d5/d01/Fun4All__G4__LeadBrick_8C.html#a5fcd8843f8a815feb3b053eaabd60d41" target="_top" xlink:title="Fun4All_G4_LeadBrick">
<polygon fill="none" stroke="#000000" points="546.5,-672.5 546.5,-692.5 674.5,-692.5 674.5,-672.5 546.5,-672.5"/>
<text text-anchor="middle" x="610.5" y="-679.5" font-family="FreeSans" font-size="10.00" fill="#000000">Fun4All_G4_LeadBrick</text>
</a>
</g>
</g>
<!-- Node3&#45;&gt;Node32 -->
<g id="edge31" class="edge">
<title>Node3&#45;&gt;Node32</title>
<path fill="none" stroke="#191970" d="M488.1733,-912.3455C489.1603,-911.4464 490.1045,-910.4987 491,-909.5 553.6305,-839.6473 462.4192,-769.5537 527,-701.5 532.4239,-695.7844 539.181,-691.621 546.4867,-688.6121"/>
<polygon fill="#191970" stroke="#191970" points="485.9352,-909.6443 479.8695,-918.3309 490.0283,-915.3229 485.9352,-909.6443"/>
</g>
<!-- Node33 -->
<g id="node33" class="node">
<title>Node33</title>
<g id="a_node33"><a xlink:href="../../d9/d8f/Fun4All__G4__Momentum_8C.html#afbd7a4eecd7792e9216ce80b5514123e" target="_top" xlink:title="Fun4All_G4_Momentum">
<polygon fill="none" stroke="#000000" points="543,-633.5 543,-653.5 678,-653.5 678,-633.5 543,-633.5"/>
<text text-anchor="middle" x="610.5" y="-640.5" font-family="FreeSans" font-size="10.00" fill="#000000">Fun4All_G4_Momentum</text>
</a>
</g>
</g>
<!-- Node3&#45;&gt;Node33 -->
<g id="edge32" class="edge">
<title>Node3&#45;&gt;Node33</title>
<path fill="none" stroke="#191970" d="M488.21,-912.378C489.1859,-911.4691 490.1179,-910.5106 491,-909.5 563.9513,-825.9221 451.7144,-743.9815 527,-662.5 531.4393,-657.6954 536.8192,-653.9811 542.6853,-651.1242"/>
<polygon fill="#191970" stroke="#191970" points="485.9647,-909.6843 479.9711,-918.4208 490.1047,-915.3288 485.9647,-909.6843"/>
</g>
<!-- Node34 -->
<g id="node34" class="node">
<title>Node34</title>
<g id="a_node34"><a xlink:href="../../dc/d8e/Fun4All__G4__Prototype2_8C.html#a6b8f092c4f51be2938dd09c810ba6226" target="_top" xlink:title="Fun4All_G4_Prototype2">
<polygon fill="none" stroke="#000000" points="544,-594.5 544,-614.5 677,-614.5 677,-594.5 544,-594.5"/>
<text text-anchor="middle" x="610.5" y="-601.5" font-family="FreeSans" font-size="10.00" fill="#000000">Fun4All_G4_Prototype2</text>
</a>
</g>
</g>
<!-- Node3&#45;&gt;Node34 -->
<g id="edge33" class="edge">
<title>Node3&#45;&gt;Node34</title>
<path fill="none" stroke="#191970" d="M488.2372,-912.4015C489.2048,-911.4854 490.1278,-910.5191 491,-909.5 574.3006,-812.1643 440.9802,-718.4412 527,-623.5 531.6916,-618.3218 537.4751,-614.4045 543.7913,-611.4597"/>
<polygon fill="#191970" stroke="#191970" points="485.9868,-909.7131 480.0463,-918.4858 490.161,-915.3324 485.9868,-909.7131"/>
</g>
<!-- Node35 -->
<g id="node35" class="node">
<title>Node35</title>
<g id="a_node35"><a xlink:href="../../d7/d40/Fun4All__G4__Prototype3_8C.html#a1201361263017b08a070777a0b90b27c" target="_top" xlink:title="Fun4All_G4_Prototype3">
<polygon fill="none" stroke="#000000" points="544,-555.5 544,-575.5 677,-575.5 677,-555.5 544,-555.5"/>
<text text-anchor="middle" x="610.5" y="-562.5" font-family="FreeSans" font-size="10.00" fill="#000000">Fun4All_G4_Prototype3</text>
</a>
</g>
</g>
<!-- Node3&#45;&gt;Node35 -->
<g id="edge34" class="edge">
<title>Node3&#45;&gt;Node35</title>
<path fill="none" stroke="#191970" d="M488.258,-912.4192C489.2194,-911.4978 490.1354,-910.5256 491,-909.5 584.6682,-798.3853 430.2272,-692.9215 527,-584.5 531.6529,-579.287 537.4119,-575.3477 543.7139,-572.3901"/>
<polygon fill="#191970" stroke="#191970" points="486.004,-909.7348 480.1041,-918.5349 490.2041,-915.3347 486.004,-909.7348"/>
</g>
<!-- Node36 -->
<g id="node36" class="node">
<title>Node36</title>
<g id="a_node36"><a xlink:href="../../d4/d58/Fun4All__G4__Prototype4_8C.html#acac517f0728af658cbf99c7c9687c908" target="_top" xlink:title="Fun4All_G4_Prototype4">
<polygon fill="none" stroke="#000000" points="544,-516.5 544,-536.5 677,-536.5 677,-516.5 544,-516.5"/>
<text text-anchor="middle" x="610.5" y="-523.5" font-family="FreeSans" font-size="10.00" fill="#000000">Fun4All_G4_Prototype4</text>
</a>
</g>
</g>
<!-- Node3&#45;&gt;Node36 -->
<g id="edge35" class="edge">
<title>Node3&#45;&gt;Node36</title>
<path fill="none" stroke="#191970" d="M488.2746,-912.4331C489.2309,-911.5075 490.1415,-910.5307 491,-909.5 543.024,-847.0459 473.2307,-606.458 527,-545.5 531.6223,-540.2598 537.3618,-536.3032 543.6526,-533.3357"/>
<polygon fill="#191970" stroke="#191970" points="486.0176,-909.7517 480.15,-918.5733 490.2382,-915.3362 486.0176,-909.7517"/>
</g>
<!-- Node37 -->
<g id="node37" class="node">
<title>Node37</title>
<g id="a_node37"><a xlink:href="../../d5/d2c/macros_2blob_2master_2macros_2g4simulations_2Fun4All__G4__sPHENIX_8C.html#a6eaaa492d7023ec86c562dc63aa1e5a4" target="_top" xlink:title="Fun4All_G4_sPHENIX">
<polygon fill="none" stroke="#000000" points="550,-477.5 550,-497.5 671,-497.5 671,-477.5 550,-477.5"/>
<text text-anchor="middle" x="610.5" y="-484.5" font-family="FreeSans" font-size="10.00" fill="#000000">Fun4All_G4_sPHENIX</text>
</a>
</g>
</g>
<!-- Node3&#45;&gt;Node37 -->
<g id="edge36" class="edge">
<title>Node3&#45;&gt;Node37</title>
<path fill="none" stroke="#191970" d="M488.288,-912.4442C489.2403,-911.5152 490.1464,-910.5347 491,-909.5 548.2182,-840.1439 467.8434,-574.2104 527,-506.5 533.0646,-499.5585 541.0893,-494.8648 549.769,-491.7374"/>
<polygon fill="#191970" stroke="#191970" points="486.0287,-909.7652 480.1872,-918.6042 490.2658,-915.3373 486.0287,-909.7652"/>
</g>
<!-- Node38 -->
<g id="node38" class="node">
<title>Node38</title>
<g id="a_node38"><a xlink:href="../../d3/de2/Fun4All__G4__sPHENIX__AnaGenFit_8C.html#a9bf3f2f72ed69a17e2d0c1121d48013c" target="_top" xlink:title="Fun4All_G4_sPHENIX\l_AnaGenFit">
<polygon fill="none" stroke="#000000" points="550,-426.5 550,-458.5 671,-458.5 671,-426.5 550,-426.5"/>
<text text-anchor="start" x="558" y="-445.5" font-family="FreeSans" font-size="10.00" fill="#000000">Fun4All_G4_sPHENIX</text>
<text text-anchor="middle" x="610.5" y="-433.5" font-family="FreeSans" font-size="10.00" fill="#000000">_AnaGenFit</text>
</a>
</g>
</g>
<!-- Node3&#45;&gt;Node38 -->
<g id="edge37" class="edge">
<title>Node3&#45;&gt;Node38</title>
<path fill="none" stroke="#191970" d="M488.2991,-912.4534C489.248,-911.5216 490.1504,-910.5381 491,-909.5 553.4157,-833.238 464.9897,-544.092 527,-467.5 532.9988,-460.0906 541.102,-454.8139 549.9106,-451.0691"/>
<polygon fill="#191970" stroke="#191970" points="486.038,-909.7763 480.218,-918.6295 490.2886,-915.338 486.038,-909.7763"/>
</g>
<!-- Node39 -->
<g id="node39" class="node">
<title>Node39</title>
<g id="a_node39"><a xlink:href="../../da/dd0/Fun4All__G4__sPHENIX__photonjet_8C.html#a6f18519e216acc05399e562ea57ea77c" target="_top" xlink:title="Fun4All_G4_sPHENIX\l_photonjet">
<polygon fill="none" stroke="#000000" points="550,-375.5 550,-407.5 671,-407.5 671,-375.5 550,-375.5"/>
<text text-anchor="start" x="558" y="-394.5" font-family="FreeSans" font-size="10.00" fill="#000000">Fun4All_G4_sPHENIX</text>
<text text-anchor="middle" x="610.5" y="-382.5" font-family="FreeSans" font-size="10.00" fill="#000000">_photonjet</text>
</a>
</g>
</g>
<!-- Node3&#45;&gt;Node39 -->
<g id="edge38" class="edge">
<title>Node3&#45;&gt;Node39</title>
<path fill="none" stroke="#191970" d="M488.3111,-912.4631C489.2564,-911.5284 490.1548,-910.5416 491,-909.5 560.2158,-824.203 458.2375,-502.163 527,-416.5 532.9677,-409.0655 541.0551,-403.7762 549.8576,-400.0263"/>
<polygon fill="#191970" stroke="#191970" points="486.0479,-909.7881 480.251,-918.6564 490.313,-915.3387 486.0479,-909.7881"/>
</g>
<!-- Node40 -->
<g id="node40" class="node">
<title>Node40</title>
<g id="a_node40"><a xlink:href="../../da/d85/Fun4All__G4__sPHENIX__photons_8C.html#a02fbbd59878fe1299f58ed187e7214ba" target="_top" xlink:title="Fun4All_G4_sPHENIX\l_photons">
<polygon fill="none" stroke="#000000" points="550,-324.5 550,-356.5 671,-356.5 671,-324.5 550,-324.5"/>
<text text-anchor="start" x="558" y="-343.5" font-family="FreeSans" font-size="10.00" fill="#000000">Fun4All_G4_sPHENIX</text>
<text text-anchor="middle" x="610.5" y="-331.5" font-family="FreeSans" font-size="10.00" fill="#000000">_photons</text>
</a>
</g>
</g>
<!-- Node3&#45;&gt;Node40 -->
<g id="edge39" class="edge">
<title>Node3&#45;&gt;Node40</title>
<path fill="none" stroke="#191970" d="M488.3208,-912.471C489.2631,-911.5339 490.1583,-910.5445 491,-909.5 567.019,-815.1642 451.4824,-460.2376 527,-365.5 532.9424,-358.0452 541.0169,-352.7456 549.8143,-348.9918"/>
<polygon fill="#191970" stroke="#191970" points="486.0561,-909.7977 480.278,-918.6782 490.3329,-915.3392 486.0561,-909.7977"/>
</g>
<!-- Node41 -->
<g id="node41" class="node">
<title>Node41</title>
<g id="a_node41"><a xlink:href="../../de/d55/Fun4All__G4__sPHENIX__truthphotonjet_8C.html#a48a6f4503eaa1b3793d8ae572aa795b9" target="_top" xlink:title="Fun4All_G4_sPHENIX\l_truthphotonjet">
<polygon fill="none" stroke="#000000" points="550,-273.5 550,-305.5 671,-305.5 671,-273.5 550,-273.5"/>
<text text-anchor="start" x="558" y="-292.5" font-family="FreeSans" font-size="10.00" fill="#000000">Fun4All_G4_sPHENIX</text>
<text text-anchor="middle" x="610.5" y="-280.5" font-family="FreeSans" font-size="10.00" fill="#000000">_truthphotonjet</text>
</a>
</g>
</g>
<!-- Node3&#45;&gt;Node41 -->
<g id="edge40" class="edge">
<title>Node3&#45;&gt;Node41</title>
<path fill="none" stroke="#191970" d="M488.3289,-912.4775C489.2688,-911.5384 490.1613,-910.5469 491,-909.5 573.8243,-806.1228 444.7251,-418.315 527,-314.5 532.9213,-307.0285 540.9851,-301.7203 549.7784,-297.9632"/>
<polygon fill="#191970" stroke="#191970" points="486.0629,-909.8055 480.3004,-918.6963 490.3495,-915.3395 486.0629,-909.8055"/>
</g>
<!-- Node42 -->
<g id="node42" class="node">
<title>Node42</title>
<g id="a_node42"><a xlink:href="../../db/da1/Fun4All__G4__TPC_8C.html#af60bcd3cf09ebd567e28ede14e9e894a" target="_top" xlink:title="Fun4All_G4_TPC">
<polygon fill="none" stroke="#000000" points="562,-234.5 562,-254.5 659,-254.5 659,-234.5 562,-234.5"/>
<text text-anchor="middle" x="610.5" y="-241.5" font-family="FreeSans" font-size="10.00" fill="#000000">Fun4All_G4_TPC</text>
</a>
</g>
</g>
<!-- Node3&#45;&gt;Node42 -->
<g id="edge41" class="edge">
<title>Node3&#45;&gt;Node42</title>
<path fill="none" stroke="#191970" d="M488.2653,-912.5534C489.229,-911.5919 490.1429,-910.5751 491,-909.5 580.6314,-797.0793 434.2254,-373.3411 527,-263.5 535.6338,-253.2779 548.5173,-247.8949 561.5952,-245.2119"/>
<polygon fill="#191970" stroke="#191970" points="485.8108,-910.0255 480.0147,-918.8944 490.0764,-915.5757 485.8108,-910.0255"/>
</g>
<!-- Node43 -->
<g id="node43" class="node">
<title>Node43</title>
<g id="a_node43"><a xlink:href="../../da/db5/Fun4All__G4__W_8C.html#ad4745423f42356b6b3cb65bbbc1e917e" target="_top" xlink:title="Fun4All_G4_W">
<polygon fill="none" stroke="#000000" points="566.5,-195.5 566.5,-215.5 654.5,-215.5 654.5,-195.5 566.5,-195.5"/>
<text text-anchor="middle" x="610.5" y="-202.5" font-family="FreeSans" font-size="10.00" fill="#000000">Fun4All_G4_W</text>
</a>
</g>
</g>
<!-- Node3&#45;&gt;Node43 -->
<g id="edge42" class="edge">
<title>Node3&#45;&gt;Node43</title>
<path fill="none" stroke="#191970" d="M488.27,-912.5571C489.2323,-911.5944 490.1446,-910.5764 491,-909.5 585.8376,-790.1625 428.8256,-341.1079 527,-224.5 536.6709,-213.0132 551.7081,-207.6328 566.3718,-205.3284"/>
<polygon fill="#191970" stroke="#191970" points="485.815,-910.0301 480.0276,-918.9046 490.086,-915.5762 485.815,-910.0301"/>
</g>
<!-- Node44 -->
<g id="node44" class="node">
<title>Node44</title>
<g id="a_node44"><a xlink:href="../../d4/dfa/Fun4All__Generator__Display_8C.html#af87924a94b22e18901f0d64805565f09" target="_top" xlink:title="Fun4All_Generator_Display">
<polygon fill="none" stroke="#000000" points="534.5,-156.5 534.5,-176.5 686.5,-176.5 686.5,-156.5 534.5,-156.5"/>
<text text-anchor="middle" x="610.5" y="-163.5" font-family="FreeSans" font-size="10.00" fill="#000000">Fun4All_Generator_Display</text>
</a>
</g>
</g>
<!-- Node3&#45;&gt;Node44 -->
<g id="edge43" class="edge">
<title>Node3&#45;&gt;Node44</title>
<path fill="none" stroke="#191970" d="M488.2742,-912.5604C489.2352,-911.5967 490.1461,-910.5776 491,-909.5 591.0445,-783.245 423.4252,-308.8754 527,-185.5 529.9633,-181.9702 533.4334,-179.0166 537.244,-176.5515"/>
<polygon fill="#191970" stroke="#191970" points="485.8187,-910.0342 480.039,-918.9137 490.0946,-915.5765 485.8187,-910.0342"/>
</g>
<!-- Node45 -->
<g id="node45" class="node">
<title>Node45</title>
<g id="a_node45"><a xlink:href="../../dc/d9b/Fun4All__HCALAnalysis_8C.html#a28b645088a74f7f1146274b5333cd479" target="_top" xlink:title="Fun4All_HCALAnalysis">
<polygon fill="none" stroke="#000000" points="546.5,-117.5 546.5,-137.5 674.5,-137.5 674.5,-117.5 546.5,-117.5"/>
<text text-anchor="middle" x="610.5" y="-124.5" font-family="FreeSans" font-size="10.00" fill="#000000">Fun4All_HCALAnalysis</text>
</a>
</g>
</g>
<!-- Node3&#45;&gt;Node45 -->
<g id="edge44" class="edge">
<title>Node3&#45;&gt;Node45</title>
<path fill="none" stroke="#191970" d="M488.2779,-912.5634C489.2378,-911.5988 490.1474,-910.5787 491,-909.5 543.626,-842.9134 472.5121,-211.5718 527,-146.5 532.1541,-140.3447 538.8491,-135.9408 546.2057,-132.8233"/>
<polygon fill="#191970" stroke="#191970" points="485.8221,-910.0378 480.0493,-918.9218 490.1022,-915.5768 485.8221,-910.0378"/>
</g>
<!-- Node46 -->
<g id="node46" class="node">
<title>Node46</title>
<g id="a_node46"><a xlink:href="../../d9/d0f/Fun4All__ImportGeom_8C.html#a3388968a8dae60e9eb62b1126f747b6a" target="_top" xlink:title="Read in a Geometry file, and output DST and ROOT TGeo files.">
<polygon fill="none" stroke="#000000" points="549.5,-78.5 549.5,-98.5 671.5,-98.5 671.5,-78.5 549.5,-78.5"/>
<text text-anchor="middle" x="610.5" y="-85.5" font-family="FreeSans" font-size="10.00" fill="#000000">Fun4All_ImportGeom</text>
</a>
</g>
</g>
<!-- Node3&#45;&gt;Node46 -->
<g id="edge45" class="edge">
<title>Node3&#45;&gt;Node46</title>
<path fill="none" stroke="#191970" d="M488.2813,-912.566C489.2401,-911.6007 490.1487,-910.5797 491,-909.5 546.2299,-839.454 469.8114,-175.9562 527,-107.5 532.8143,-100.5402 540.5987,-95.8183 549.0841,-92.6631"/>
<polygon fill="#191970" stroke="#191970" points="485.8251,-910.0411 480.0586,-918.9291 490.1092,-915.5771 485.8251,-910.0411"/>
</g>
<!-- Node47 -->
<g id="node47" class="node">
<title>Node47</title>
<g id="a_node47"><a xlink:href="../../db/d96/Fun4All__JetAna_8C.html#a519de39bdb8606d50d045cc11466e2e6" target="_top" xlink:title="Fun4All_JetAna">
<polygon fill="none" stroke="#000000" points="565,-39.5 565,-59.5 656,-59.5 656,-39.5 565,-39.5"/>
<text text-anchor="middle" x="610.5" y="-46.5" font-family="FreeSans" font-size="10.00" fill="#000000">Fun4All_JetAna</text>
</a>
</g>
</g>
<!-- Node3&#45;&gt;Node47 -->
<g id="edge46" class="edge">
<title>Node3&#45;&gt;Node47</title>
<path fill="none" stroke="#191970" d="M488.2843,-912.5685C489.2423,-911.6024 490.1498,-910.5806 491,-909.5 548.8341,-835.9943 467.1104,-140.3408 527,-68.5 536.2342,-57.4231 550.4587,-52.0126 564.566,-49.5647"/>
<polygon fill="#191970" stroke="#191970" points="485.8279,-910.0441 480.067,-918.9358 490.1155,-915.5773 485.8279,-910.0441"/>
</g>
<!-- Node48 -->
<g id="node48" class="node">
<title>Node48</title>
<g id="a_node48"><a xlink:href="../../de/d6b/Fun4All__MCEventGen_8C.html#a4e6d2272e7266684626c0653520558ef" target="_top" xlink:title="Fun4All_MCEventGen">
<polygon fill="none" stroke="#000000" points="549,-.5 549,-20.5 672,-20.5 672,-.5 549,-.5"/>
<text text-anchor="middle" x="610.5" y="-7.5" font-family="FreeSans" font-size="10.00" fill="#000000">Fun4All_MCEventGen</text>
</a>
</g>
</g>
<!-- Node3&#45;&gt;Node48 -->
<g id="edge47" class="edge">
<title>Node3&#45;&gt;Node48</title>
<path fill="none" stroke="#191970" d="M488.2871,-912.5707C489.2442,-911.6039 490.1508,-910.5814 491,-909.5 551.4384,-832.5344 464.4093,-104.7257 527,-29.5 532.7054,-22.6429 540.3231,-17.9564 548.6435,-14.7996"/>
<polygon fill="#191970" stroke="#191970" points="485.8304,-910.0468 480.0747,-918.9418 490.1212,-915.5775 485.8304,-910.0468"/>
</g>
<!-- Node49&#45;&gt;Node3 -->
<g id="edge50" class="edge">
<title>Node49&#45;&gt;Node3</title>
<path fill="none" stroke="#191970" d="M324.0073,-902.1541C345.3921,-907.7327 368.023,-913.6364 386.4294,-918.4381"/>
<polygon fill="#191970" stroke="#191970" points="324.8489,-898.7566 314.2892,-899.6189 323.0819,-905.5299 324.8489,-898.7566"/>
</g>
<!-- Node50 -->
<g id="node50" class="node">
<title>Node50</title>
<g id="a_node50"><a xlink:href="../../da/d29/classFun4AllServer.html#a94738b092fa009fcea45737d8ea41224" target="_top" xlink:title="Fun4AllServer::process\l_event">
<polygon fill="none" stroke="#000000" points="359,-867.5 359,-899.5 491,-899.5 491,-867.5 359,-867.5"/>
<text text-anchor="start" x="367" y="-886.5" font-family="FreeSans" font-size="10.00" fill="#000000">Fun4AllServer::process</text>
<text text-anchor="middle" x="425" y="-874.5" font-family="FreeSans" font-size="10.00" fill="#000000">_event</text>
</a>
</g>
</g>
<!-- Node49&#45;&gt;Node50 -->
<g id="edge49" class="edge">
<title>Node49&#45;&gt;Node50</title>
<path fill="none" stroke="#191970" d="M328.7083,-883.5C338.7997,-883.5 349.077,-883.5 358.9775,-883.5"/>
<polygon fill="#191970" stroke="#191970" points="328.6997,-880.0001 318.6997,-883.5 328.6996,-887.0001 328.6997,-880.0001"/>
</g>
</g>
</svg>
