<?xml version="1.0" encoding="UTF-8" standalone="no"?>
<!DOCTYPE svg PUBLIC "-//W3C//DTD SVG 1.1//EN"
 "http://www.w3.org/Graphics/SVG/1.1/DTD/svg11.dtd">
<!-- Generated by graphviz version 2.40.1 (20161225.0304)
 -->
<!-- Title: Jet::get_phi Pages: 1 -->
<svg width="503pt" height="1040pt"
 viewBox="0.00 0.00 503.00 1040.00" xmlns="http://www.w3.org/2000/svg" xmlns:xlink="http://www.w3.org/1999/xlink">
<g id="graph0" class="graph" transform="scale(1 1) rotate(0) translate(4 1036)">
<title>Jet::get_phi</title>
<!-- Node1 -->
<g id="node1" class="node">
<title>Node1</title>
<polygon fill="#bfbfbf" stroke="#000000" points="0,-541.5 0,-561.5 74,-561.5 74,-541.5 0,-541.5"/>
<text text-anchor="middle" x="37" y="-548.5" font-family="FreeSans" font-size="10.00" fill="#000000">Jet::get_phi</text>
</g>
<!-- Node2 -->
<g id="node2" class="node">
<title>Node2</title>
<g id="a_node2"><a xlink:href="../../d6/d40/classLeptoquarksReco.html#aa251fa1881824e4f72051fe65e8bf459" target="_top" xlink:title="LeptoquarksReco::AddJetInformation">
<polygon fill="none" stroke="#000000" points="110,-1002.5 110,-1022.5 310,-1022.5 310,-1002.5 110,-1002.5"/>
<text text-anchor="middle" x="210" y="-1009.5" font-family="FreeSans" font-size="10.00" fill="#000000">LeptoquarksReco::AddJetInformation</text>
</a>
</g>
</g>
<!-- Node1&#45;&gt;Node2 -->
<g id="edge1" class="edge">
<title>Node1&#45;&gt;Node2</title>
<path fill="none" stroke="#191970" d="M37.4758,-572.2512C39.7108,-650.872 51.6808,-929.0806 110,-990.5 114.6513,-995.3985 120.1251,-999.3275 126.0747,-1002.4669"/>
<polygon fill="#191970" stroke="#191970" points="40.9623,-571.6832 37.2036,-561.7775 33.9646,-571.8651 40.9623,-571.6832"/>
</g>
<!-- Node4 -->
<g id="node4" class="node">
<title>Node4</title>
<g id="a_node4"><a xlink:href="../../d7/dce/classTreeMaker.html#a52bf12994bc1206706553ddef4a8e2ca" target="_top" xlink:title="TreeMaker::CopyAndMakeJets">
<polygon fill="none" stroke="#000000" points="127,-870.5 127,-890.5 293,-890.5 293,-870.5 127,-870.5"/>
<text text-anchor="middle" x="210" y="-877.5" font-family="FreeSans" font-size="10.00" fill="#000000">TreeMaker::CopyAndMakeJets</text>
</a>
</g>
</g>
<!-- Node1&#45;&gt;Node4 -->
<g id="edge3" class="edge">
<title>Node1&#45;&gt;Node4</title>
<path fill="none" stroke="#191970" d="M38.9504,-571.9789C45.3245,-634.468 67.6082,-820.9136 110,-861.5 114.9782,-866.2662 120.7605,-870.0212 126.9863,-872.9624"/>
<polygon fill="#191970" stroke="#191970" points="42.4126,-571.4229 37.9441,-561.8165 35.4466,-572.1127 42.4126,-571.4229"/>
</g>
<!-- Node6 -->
<g id="node6" class="node">
<title>Node6</title>
<g id="a_node6"><a xlink:href="../../d1/df4/classJetEvaluator.html#a0c608411c03ff1de3fca80d64e93ae5d" target="_top" xlink:title="dump the evaluator information into ntuple for external analysis">
<polygon fill="none" stroke="#000000" points="143.5,-948.5 143.5,-980.5 276.5,-980.5 276.5,-948.5 143.5,-948.5"/>
<text text-anchor="start" x="151.5" y="-967.5" font-family="FreeSans" font-size="10.00" fill="#000000">JetEvaluator::fillOutput</text>
<text text-anchor="middle" x="210" y="-955.5" font-family="FreeSans" font-size="10.00" fill="#000000">Ntuples</text>
</a>
</g>
</g>
<!-- Node1&#45;&gt;Node6 -->
<g id="edge5" class="edge">
<title>Node1&#45;&gt;Node6</title>
<path fill="none" stroke="#191970" d="M37.9943,-571.6343C41.947,-643.4002 58.9,-885.2921 110,-939.5 118.9609,-949.0059 130.9427,-955.1233 143.4939,-959.0118"/>
<polygon fill="#191970" stroke="#191970" points="41.4887,-571.4342 37.4683,-561.6318 34.4984,-571.8018 41.4887,-571.4342"/>
</g>
<!-- Node8 -->
<g id="node8" class="node">
<title>Node8</title>
<g id="a_node8"><a xlink:href="../../d8/de2/classJetEnergies.html#a065fee78622ed073cafb5cf172d67bef" target="_top" xlink:title="dump the evaluator information into ntuple for external analysis">
<polygon fill="none" stroke="#000000" points="126.5,-909.5 126.5,-929.5 293.5,-929.5 293.5,-909.5 126.5,-909.5"/>
<text text-anchor="middle" x="210" y="-916.5" font-family="FreeSans" font-size="10.00" fill="#000000">JetEnergies::fillOutputNtuples</text>
</a>
</g>
</g>
<!-- Node1&#45;&gt;Node8 -->
<g id="edge7" class="edge">
<title>Node1&#45;&gt;Node8</title>
<path fill="none" stroke="#191970" d="M38.3595,-571.8458C43.2897,-639.2879 62.5015,-853.8692 110,-900.5 114.792,-905.2044 120.3647,-908.9309 126.3808,-911.866"/>
<polygon fill="#191970" stroke="#191970" points="41.8376,-571.409 37.6446,-561.6792 34.8548,-571.9002 41.8376,-571.409"/>
</g>
<!-- Node10 -->
<g id="node10" class="node">
<title>Node10</title>
<g id="a_node10"><a xlink:href="../../d6/d77/classFastJetAlgoSub.html#aedbf3469337244550d98d847a4a755a8" target="_top" xlink:title="FastJetAlgoSub::get_jets">
<polygon fill="none" stroke="#000000" points="141,-831.5 141,-851.5 279,-851.5 279,-831.5 141,-831.5"/>
<text text-anchor="middle" x="210" y="-838.5" font-family="FreeSans" font-size="10.00" fill="#000000">FastJetAlgoSub::get_jets</text>
</a>
</g>
</g>
<!-- Node1&#45;&gt;Node10 -->
<g id="edge9" class="edge">
<title>Node1&#45;&gt;Node10</title>
<path fill="none" stroke="#191970" d="M39.6427,-571.6149C47.5078,-628.3526 72.5695,-787.7893 110,-822.5 118.6169,-830.4907 129.5048,-835.6121 140.9025,-838.8157"/>
<polygon fill="#191970" stroke="#191970" points="43.111,-571.1438 38.3004,-561.704 36.1743,-572.0833 43.111,-571.1438"/>
</g>
<!-- Node11 -->
<g id="node11" class="node">
<title>Node11</title>
<g id="a_node11"><a xlink:href="../../dc/d65/classPhotonJet.html#a9b2de7dcbd5e3bbbd26150d418b7bb44" target="_top" xlink:title="PhotonJet::GetRecoHadrons\lAndJets">
<polygon fill="none" stroke="#000000" points="132,-702.5 132,-734.5 288,-734.5 288,-702.5 132,-702.5"/>
<text text-anchor="start" x="140" y="-721.5" font-family="FreeSans" font-size="10.00" fill="#000000">PhotonJet::GetRecoHadrons</text>
<text text-anchor="middle" x="210" y="-709.5" font-family="FreeSans" font-size="10.00" fill="#000000">AndJets</text>
</a>
</g>
</g>
<!-- Node1&#45;&gt;Node11 -->
<g id="edge10" class="edge">
<title>Node1&#45;&gt;Node11</title>
<path fill="none" stroke="#191970" d="M42.3854,-571.398C51.4187,-601.0178 72.4309,-656.5315 110,-687.5 117.4335,-693.6275 126.0752,-698.5465 135.1063,-702.4948"/>
<polygon fill="#191970" stroke="#191970" points="45.735,-570.3817 39.5909,-561.7504 39.0114,-572.3293 45.735,-570.3817"/>
</g>
<!-- Node12 -->
<g id="node12" class="node">
<title>Node12</title>
<g id="a_node12"><a xlink:href="../../dc/d65/classPhotonJet.html#a3f9d3ec941f851bc2246ceb0c5362c9f" target="_top" xlink:title="PhotonJet::process\l_event">
<polygon fill="none" stroke="#000000" points="365.5,-657.5 365.5,-689.5 475.5,-689.5 475.5,-657.5 365.5,-657.5"/>
<text text-anchor="start" x="373.5" y="-676.5" font-family="FreeSans" font-size="10.00" fill="#000000">PhotonJet::process</text>
<text text-anchor="middle" x="420.5" y="-664.5" font-family="FreeSans" font-size="10.00" fill="#000000">_event</text>
</a>
</g>
</g>
<!-- Node1&#45;&gt;Node12 -->
<g id="edge26" class="edge">
<title>Node1&#45;&gt;Node12</title>
<path fill="none" stroke="#191970" d="M44.5498,-571.0421C55.1135,-595.3917 76.8168,-636.0399 110,-654.5 189.8786,-698.937 299.8549,-692.9213 365.2172,-683.7416"/>
<polygon fill="#191970" stroke="#191970" points="47.7521,-569.6267 40.7035,-561.7167 41.2809,-572.2958 47.7521,-569.6267"/>
</g>
<!-- Node13 -->
<g id="node13" class="node">
<title>Node13</title>
<g id="a_node13"><a xlink:href="../../dc/d65/classPhotonJet.html#a2c1adc79085fbbe9d27254d016321804" target="_top" xlink:title="PhotonJet::GetRecoHadrons\lAndJetsAA">
<polygon fill="none" stroke="#000000" points="132,-612.5 132,-644.5 288,-644.5 288,-612.5 132,-612.5"/>
<text text-anchor="start" x="140" y="-631.5" font-family="FreeSans" font-size="10.00" fill="#000000">PhotonJet::GetRecoHadrons</text>
<text text-anchor="middle" x="210" y="-619.5" font-family="FreeSans" font-size="10.00" fill="#000000">AndJetsAA</text>
</a>
</g>
</g>
<!-- Node1&#45;&gt;Node13 -->
<g id="edge12" class="edge">
<title>Node1&#45;&gt;Node13</title>
<path fill="none" stroke="#191970" d="M56.4603,-568.4517C70.4888,-579.8666 90.3403,-594.4368 110,-603.5 117.3132,-606.8714 125.1453,-609.83 133.0879,-612.4168"/>
<polygon fill="#191970" stroke="#191970" points="58.4506,-565.5539 48.5319,-561.8296 53.9633,-570.9264 58.4506,-565.5539"/>
</g>
<!-- Node14 -->
<g id="node14" class="node">
<title>Node14</title>
<g id="a_node14"><a xlink:href="../../d7/dce/classTreeMaker.html#a52a597a7a6509616228576eac6383301" target="_top" xlink:title="TreeMaker::GetRecoJets">
<polygon fill="none" stroke="#000000" points="142,-792.5 142,-812.5 278,-812.5 278,-792.5 142,-792.5"/>
<text text-anchor="middle" x="210" y="-799.5" font-family="FreeSans" font-size="10.00" fill="#000000">TreeMaker::GetRecoJets</text>
</a>
</g>
</g>
<!-- Node1&#45;&gt;Node14 -->
<g id="edge14" class="edge">
<title>Node1&#45;&gt;Node14</title>
<path fill="none" stroke="#191970" d="M40.622,-571.6855C50.1795,-622.6788 77.5853,-754.6746 110,-783.5 118.9797,-791.4854 130.2446,-796.5692 141.9472,-799.7293"/>
<polygon fill="#191970" stroke="#191970" points="44.0156,-570.7876 38.7653,-561.5852 37.131,-572.0532 44.0156,-570.7876"/>
</g>
<!-- Node15 -->
<g id="node15" class="node">
<title>Node15</title>
<g id="a_node15"><a xlink:href="../../d7/dce/classTreeMaker.html#a256b6f8b0e6f110256c630b0bad83efb" target="_top" xlink:title="TreeMaker::GetTruthJets">
<polygon fill="none" stroke="#000000" points="141.5,-753.5 141.5,-773.5 278.5,-773.5 278.5,-753.5 141.5,-753.5"/>
<text text-anchor="middle" x="210" y="-760.5" font-family="FreeSans" font-size="10.00" fill="#000000">TreeMaker::GetTruthJets</text>
</a>
</g>
</g>
<!-- Node1&#45;&gt;Node15 -->
<g id="edge16" class="edge">
<title>Node1&#45;&gt;Node15</title>
<path fill="none" stroke="#191970" d="M38.3893,-571.9418C42.256,-611.7641 56.7002,-699.7449 110,-744.5 118.932,-752.0001 129.9052,-756.8959 141.2734,-760.0316"/>
<polygon fill="#191970" stroke="#191970" points="41.8667,-571.5247 37.5408,-561.8533 34.8913,-572.1114 41.8667,-571.5247"/>
</g>
<!-- Node16 -->
<g id="node16" class="node">
<title>Node16</title>
<g id="a_node16"><a xlink:href="../../dc/d64/classHFJetTruthTrigger.html#ada13f34c0011a913e0ceb04396f405f4" target="_top" xlink:title="tag jet flavor by hadron matching, like MIE proposal">
<polygon fill="none" stroke="#000000" points="155.5,-561.5 155.5,-593.5 264.5,-593.5 264.5,-561.5 155.5,-561.5"/>
<text text-anchor="start" x="163.5" y="-580.5" font-family="FreeSans" font-size="10.00" fill="#000000">HFJetTruthTrigger::</text>
<text text-anchor="middle" x="210" y="-568.5" font-family="FreeSans" font-size="10.00" fill="#000000">hadron_tagging</text>
</a>
</g>
</g>
<!-- Node1&#45;&gt;Node16 -->
<g id="edge18" class="edge">
<title>Node1&#45;&gt;Node16</title>
<path fill="none" stroke="#191970" d="M84.1886,-558.5919C106.1397,-561.8909 132.3808,-565.8347 155.2042,-569.2648"/>
<polygon fill="#191970" stroke="#191970" points="84.522,-555.1028 74.1128,-557.0777 83.4816,-562.0251 84.522,-555.1028"/>
</g>
<!-- Node18 -->
<g id="node18" class="node">
<title>Node18</title>
<g id="a_node18"><a xlink:href="../../dc/d64/classHFJetTruthTrigger.html#ac5286e62e39c41db272d605b12de5f7d" target="_top" xlink:title="tag jet flavor by parton matching, like PRL 113, 132301 (2014)">
<polygon fill="none" stroke="#000000" points="155.5,-510.5 155.5,-542.5 264.5,-542.5 264.5,-510.5 155.5,-510.5"/>
<text text-anchor="start" x="163.5" y="-529.5" font-family="FreeSans" font-size="10.00" fill="#000000">HFJetTruthTrigger::</text>
<text text-anchor="middle" x="210" y="-517.5" font-family="FreeSans" font-size="10.00" fill="#000000">parton_tagging</text>
</a>
</g>
</g>
<!-- Node1&#45;&gt;Node18 -->
<g id="edge20" class="edge">
<title>Node1&#45;&gt;Node18</title>
<path fill="none" stroke="#191970" d="M84.1886,-544.6808C106.1397,-541.5087 132.3808,-537.7167 155.2042,-534.4185"/>
<polygon fill="#191970" stroke="#191970" points="83.5094,-541.2425 74.1128,-546.1369 84.5106,-548.1706 83.5094,-541.2425"/>
</g>
<!-- Node19 -->
<g id="node19" class="node">
<title>Node19</title>
<g id="a_node19"><a xlink:href="../../db/d4c/classBJetModule.html#a93ec29147c2d7aea52780d7370141e74" target="_top" xlink:title="BJetModule::process\l_event">
<polygon fill="none" stroke="#000000" points="150.5,-459.5 150.5,-491.5 269.5,-491.5 269.5,-459.5 150.5,-459.5"/>
<text text-anchor="start" x="158.5" y="-478.5" font-family="FreeSans" font-size="10.00" fill="#000000">BJetModule::process</text>
<text text-anchor="middle" x="210" y="-466.5" font-family="FreeSans" font-size="10.00" fill="#000000">_event</text>
</a>
</g>
</g>
<!-- Node1&#45;&gt;Node19 -->
<g id="edge22" class="edge">
<title>Node1&#45;&gt;Node19</title>
<path fill="none" stroke="#191970" d="M56.8445,-535.0954C70.9181,-524.1905 90.6672,-510.307 110,-501.5 122.6513,-495.7368 136.8075,-491.0801 150.3979,-487.3883"/>
<polygon fill="#191970" stroke="#191970" points="54.5242,-532.4686 48.8697,-541.4283 58.8774,-537.9504 54.5242,-532.4686"/>
</g>
<!-- Node20 -->
<g id="node20" class="node">
<title>Node20</title>
<g id="a_node20"><a xlink:href="../../d3/d26/classCopyAndSubtractJets.html#aa7469769625a7718d5d28b57faf8b663" target="_top" xlink:title="CopyAndSubtractJets\l::process_event">
<polygon fill="none" stroke="#000000" points="148.5,-408.5 148.5,-440.5 271.5,-440.5 271.5,-408.5 148.5,-408.5"/>
<text text-anchor="start" x="156.5" y="-427.5" font-family="FreeSans" font-size="10.00" fill="#000000">CopyAndSubtractJets</text>
<text text-anchor="middle" x="210" y="-415.5" font-family="FreeSans" font-size="10.00" fill="#000000">::process_event</text>
</a>
</g>
</g>
<!-- Node1&#45;&gt;Node20 -->
<g id="edge23" class="edge">
<title>Node1&#45;&gt;Node20</title>
<path fill="none" stroke="#191970" d="M45.7516,-532.2884C57.2165,-509.3114 79.5059,-471.3469 110,-450.5 121.4026,-442.7048 134.9928,-437.2466 148.423,-433.4249"/>
<polygon fill="#191970" stroke="#191970" points="42.5502,-530.87 41.3814,-541.4002 48.8618,-533.8972 42.5502,-530.87"/>
</g>
<!-- Node21 -->
<g id="node21" class="node">
<title>Node21</title>
<g id="a_node21"><a xlink:href="../../d6/d02/classDetermineTowerBackground.html#a1e2d3c456b619165aec9114ae37ee6bf" target="_top" xlink:title="DetermineTowerBackground\l::process_event">
<polygon fill="none" stroke="#000000" points="130.5,-357.5 130.5,-389.5 289.5,-389.5 289.5,-357.5 130.5,-357.5"/>
<text text-anchor="start" x="138.5" y="-376.5" font-family="FreeSans" font-size="10.00" fill="#000000">DetermineTowerBackground</text>
<text text-anchor="middle" x="210" y="-364.5" font-family="FreeSans" font-size="10.00" fill="#000000">::process_event</text>
</a>
</g>
</g>
<!-- Node1&#45;&gt;Node21 -->
<g id="edge24" class="edge">
<title>Node1&#45;&gt;Node21</title>
<path fill="none" stroke="#191970" d="M40.9626,-531.3707C48.4785,-498.6485 67.9661,-434.1014 110,-399.5 116.0938,-394.4837 123.0469,-390.4237 130.384,-387.1395"/>
<polygon fill="#191970" stroke="#191970" points="37.5385,-530.6461 38.8574,-541.1585 44.382,-532.1181 37.5385,-530.6461"/>
</g>
<!-- Node22 -->
<g id="node22" class="node">
<title>Node22</title>
<g id="a_node22"><a xlink:href="../../d9/de3/classTruthPhotonJet.html#ae476c9aba33cf8d9161947519d293f5c" target="_top" xlink:title="TruthPhotonJet::process\l_event">
<polygon fill="none" stroke="#000000" points="141.5,-306.5 141.5,-338.5 278.5,-338.5 278.5,-306.5 141.5,-306.5"/>
<text text-anchor="start" x="149.5" y="-325.5" font-family="FreeSans" font-size="10.00" fill="#000000">TruthPhotonJet::process</text>
<text text-anchor="middle" x="210" y="-313.5" font-family="FreeSans" font-size="10.00" fill="#000000">_event</text>
</a>
</g>
</g>
<!-- Node1&#45;&gt;Node22 -->
<g id="edge25" class="edge">
<title>Node1&#45;&gt;Node22</title>
<path fill="none" stroke="#191970" d="M38.2384,-531.1863C41.8538,-490.3269 55.8982,-397.8977 110,-348.5 118.8756,-340.3961 129.955,-334.7532 141.4768,-330.8382"/>
<polygon fill="#191970" stroke="#191970" points="34.7404,-531.0276 37.4706,-541.2646 41.7202,-531.5594 34.7404,-531.0276"/>
</g>
<!-- Node23 -->
<g id="node23" class="node">
<title>Node23</title>
<g id="a_node23"><a xlink:href="../../d4/dc9/classPHG4DSTReader.html#aa32c5027cd9c3e4d667a0e84d7243412" target="_top" xlink:title="event processing method">
<polygon fill="none" stroke="#000000" points="137,-255.5 137,-287.5 283,-287.5 283,-255.5 137,-255.5"/>
<text text-anchor="start" x="145" y="-274.5" font-family="FreeSans" font-size="10.00" fill="#000000">PHG4DSTReader::process</text>
<text text-anchor="middle" x="210" y="-262.5" font-family="FreeSans" font-size="10.00" fill="#000000">_event</text>
</a>
</g>
</g>
<!-- Node1&#45;&gt;Node23 -->
<g id="edge27" class="edge">
<title>Node1&#45;&gt;Node23</title>
<path fill="none" stroke="#191970" d="M40.1684,-531.358C49.0664,-477.2817 75.8765,-330.7646 110,-297.5 117.5785,-290.1122 126.9754,-284.7488 136.9499,-280.8689"/>
<polygon fill="#191970" stroke="#191970" points="36.6825,-530.9904 38.5453,-541.4202 43.5932,-532.1052 36.6825,-530.9904"/>
</g>
<!-- Node24 -->
<g id="node24" class="node">
<title>Node24</title>
<g id="a_node24"><a xlink:href="../../d5/d1f/classMyJetAnalysis.html#a309e9a46394353251b673514d6eb28ac" target="_top" xlink:title="MyJetAnalysis::process\l_event">
<polygon fill="none" stroke="#000000" points="144.5,-204.5 144.5,-236.5 275.5,-236.5 275.5,-204.5 144.5,-204.5"/>
<text text-anchor="start" x="152.5" y="-223.5" font-family="FreeSans" font-size="10.00" fill="#000000">MyJetAnalysis::process</text>
<text text-anchor="middle" x="210" y="-211.5" font-family="FreeSans" font-size="10.00" fill="#000000">_event</text>
</a>
</g>
</g>
<!-- Node1&#45;&gt;Node24 -->
<g id="edge28" class="edge">
<title>Node1&#45;&gt;Node24</title>
<path fill="none" stroke="#191970" d="M39.1189,-531.4676C45.9822,-470.3239 69.5341,-287.7604 110,-246.5 119.2947,-237.0228 131.5716,-230.8521 144.33,-226.8683"/>
<polygon fill="#191970" stroke="#191970" points="35.6395,-531.0887 38.0313,-541.41 42.598,-531.8499 35.6395,-531.0887"/>
</g>
<!-- Node25 -->
<g id="node25" class="node">
<title>Node25</title>
<g id="a_node25"><a xlink:href="../../d1/d04/classBDiJetModule.html#a8f01ada101f7e91cf05e12bbf420d192" target="_top" xlink:title="BDiJetModule::process\l_event">
<polygon fill="none" stroke="#000000" points="145.5,-153.5 145.5,-185.5 274.5,-185.5 274.5,-153.5 145.5,-153.5"/>
<text text-anchor="start" x="153.5" y="-172.5" font-family="FreeSans" font-size="10.00" fill="#000000">BDiJetModule::process</text>
<text text-anchor="middle" x="210" y="-160.5" font-family="FreeSans" font-size="10.00" fill="#000000">_event</text>
</a>
</g>
</g>
<!-- Node1&#45;&gt;Node25 -->
<g id="edge29" class="edge">
<title>Node1&#45;&gt;Node25</title>
<path fill="none" stroke="#191970" d="M38.4204,-530.8719C43.5434,-462.4755 63.2947,-244.7051 110,-195.5 119.4474,-185.547 132.1783,-179.2207 145.3867,-175.2424"/>
<polygon fill="#191970" stroke="#191970" points="34.9054,-530.9549 37.6758,-541.1811 41.8872,-531.4592 34.9054,-530.9549"/>
</g>
<!-- Node26 -->
<g id="node26" class="node">
<title>Node26</title>
<g id="a_node26"><a xlink:href="../../d4/d28/classQAG4SimulationJet.html#ac2803dd2fafe7d6131f3311c9f1e4e27" target="_top" xlink:title="QAG4SimulationJet::\lprocess_Spectrum">
<polygon fill="none" stroke="#000000" points="151,-102.5 151,-134.5 269,-134.5 269,-102.5 151,-102.5"/>
<text text-anchor="start" x="159" y="-121.5" font-family="FreeSans" font-size="10.00" fill="#000000">QAG4SimulationJet::</text>
<text text-anchor="middle" x="210" y="-109.5" font-family="FreeSans" font-size="10.00" fill="#000000">process_Spectrum</text>
</a>
</g>
</g>
<!-- Node1&#45;&gt;Node26 -->
<g id="edge30" class="edge">
<title>Node1&#45;&gt;Node26</title>
<path fill="none" stroke="#191970" d="M37.8411,-530.8962C41.3029,-456.3243 56.8755,-201.875 110,-144.5 120.664,-132.9828 135.7206,-126.3013 150.9213,-122.4952"/>
<polygon fill="#191970" stroke="#191970" points="34.3281,-531.1183 37.3856,-541.2624 41.3213,-531.4257 34.3281,-531.1183"/>
</g>
<!-- Node28 -->
<g id="node28" class="node">
<title>Node28</title>
<g id="a_node28"><a xlink:href="../../d0/dc8/classSoftLeptonTaggingTruth.html#a3989ff17a01ba304478d558b99c3214f" target="_top" xlink:title="SoftLeptonTaggingTruth\l::process_Spectrum">
<polygon fill="none" stroke="#000000" points="142.5,-.5 142.5,-32.5 277.5,-32.5 277.5,-.5 142.5,-.5"/>
<text text-anchor="start" x="150.5" y="-19.5" font-family="FreeSans" font-size="10.00" fill="#000000">SoftLeptonTaggingTruth</text>
<text text-anchor="middle" x="210" y="-7.5" font-family="FreeSans" font-size="10.00" fill="#000000">::process_Spectrum</text>
</a>
</g>
</g>
<!-- Node1&#45;&gt;Node28 -->
<g id="edge32" class="edge">
<title>Node1&#45;&gt;Node28</title>
<path fill="none" stroke="#191970" d="M38.5714,-531.2361C45.7427,-441.0168 76.4601,-78.6783 110,-41.5 118.5708,-31.9995 130.1546,-25.8557 142.3999,-21.9348"/>
<polygon fill="#191970" stroke="#191970" points="35.077,-531.0284 37.7821,-541.2721 42.0555,-531.5773 35.077,-531.0284"/>
</g>
<!-- Node30 -->
<g id="node30" class="node">
<title>Node30</title>
<g id="a_node30"><a xlink:href="../../d4/d28/classQAG4SimulationJet.html#a3e5c5fe2e5e5cee7fca6173ef6e6bfa2" target="_top" xlink:title="QAG4SimulationJet::\lprocess_TruthMatching">
<polygon fill="none" stroke="#000000" points="144,-51.5 144,-83.5 276,-83.5 276,-51.5 144,-51.5"/>
<text text-anchor="start" x="152" y="-70.5" font-family="FreeSans" font-size="10.00" fill="#000000">QAG4SimulationJet::</text>
<text text-anchor="middle" x="210" y="-58.5" font-family="FreeSans" font-size="10.00" fill="#000000">process_TruthMatching</text>
</a>
</g>
</g>
<!-- Node1&#45;&gt;Node30 -->
<g id="edge34" class="edge">
<title>Node1&#45;&gt;Node30</title>
<path fill="none" stroke="#191970" d="M37.3879,-530.9544C39.3245,-450.6412 50.4128,-159.1213 110,-93.5 118.9237,-83.6727 131.0441,-77.3543 143.7674,-73.3374"/>
<polygon fill="#191970" stroke="#191970" points="33.883,-531.1454 37.1639,-541.2194 40.8814,-531.2981 33.883,-531.1454"/>
</g>
<!-- Node3 -->
<g id="node3" class="node">
<title>Node3</title>
<g id="a_node3"><a xlink:href="../../d6/d40/classLeptoquarksReco.html#aa5b8ff9665c7a78246bd4f1194d66d1b" target="_top" xlink:title="LeptoquarksReco::process\l_event">
<polygon fill="none" stroke="#000000" points="346,-999.5 346,-1031.5 495,-1031.5 495,-999.5 346,-999.5"/>
<text text-anchor="start" x="354" y="-1018.5" font-family="FreeSans" font-size="10.00" fill="#000000">LeptoquarksReco::process</text>
<text text-anchor="middle" x="420.5" y="-1006.5" font-family="FreeSans" font-size="10.00" fill="#000000">_event</text>
</a>
</g>
</g>
<!-- Node2&#45;&gt;Node3 -->
<g id="edge2" class="edge">
<title>Node2&#45;&gt;Node3</title>
<path fill="none" stroke="#191970" d="M320.2211,-1014.0708C328.9139,-1014.1947 337.5614,-1014.318 345.9257,-1014.4372"/>
<polygon fill="#191970" stroke="#191970" points="320.0589,-1010.5683 310.01,-1013.9253 319.9591,-1017.5676 320.0589,-1010.5683"/>
</g>
<!-- Node5 -->
<g id="node5" class="node">
<title>Node5</title>
<g id="a_node5"><a xlink:href="../../d7/dce/classTreeMaker.html#a89a6f3a23de784d5f8d86ae91956aa69" target="_top" xlink:title="TreeMaker::process\l_event">
<polygon fill="none" stroke="#000000" points="363.5,-786.5 363.5,-818.5 477.5,-818.5 477.5,-786.5 363.5,-786.5"/>
<text text-anchor="start" x="371.5" y="-805.5" font-family="FreeSans" font-size="10.00" fill="#000000">TreeMaker::process</text>
<text text-anchor="middle" x="420.5" y="-793.5" font-family="FreeSans" font-size="10.00" fill="#000000">_event</text>
</a>
</g>
</g>
<!-- Node4&#45;&gt;Node5 -->
<g id="edge4" class="edge">
<title>Node4&#45;&gt;Node5</title>
<path fill="none" stroke="#191970" d="M287.9137,-868.0983C295.4603,-866.1818 302.9315,-863.9932 310,-861.5 340.9685,-850.5768 373.8486,-832.0126 395.6107,-818.6216"/>
<polygon fill="#191970" stroke="#191970" points="286.8948,-864.7429 277.9772,-870.4637 288.5159,-871.5526 286.8948,-864.7429"/>
</g>
<!-- Node7 -->
<g id="node7" class="node">
<title>Node7</title>
<g id="a_node7"><a xlink:href="../../d1/df4/classJetEvaluator.html#ad83508ae828d1f2e4a83a948465a0cd2" target="_top" xlink:title="JetEvaluator::process\l_event">
<polygon fill="none" stroke="#000000" points="358.5,-948.5 358.5,-980.5 482.5,-980.5 482.5,-948.5 358.5,-948.5"/>
<text text-anchor="start" x="366.5" y="-967.5" font-family="FreeSans" font-size="10.00" fill="#000000">JetEvaluator::process</text>
<text text-anchor="middle" x="420.5" y="-955.5" font-family="FreeSans" font-size="10.00" fill="#000000">_event</text>
</a>
</g>
</g>
<!-- Node6&#45;&gt;Node7 -->
<g id="edge6" class="edge">
<title>Node6&#45;&gt;Node7</title>
<path fill="none" stroke="#191970" d="M286.8787,-964.5C310.3629,-964.5 335.8836,-964.5 358.2685,-964.5"/>
<polygon fill="#191970" stroke="#191970" points="286.6035,-961.0001 276.6035,-964.5 286.6035,-968.0001 286.6035,-961.0001"/>
</g>
<!-- Node9 -->
<g id="node9" class="node">
<title>Node9</title>
<g id="a_node9"><a xlink:href="../../d8/de2/classJetEnergies.html#a6acaa9b2ba1fe7353781d2f5d476e8d1" target="_top" xlink:title="JetEnergies::process\l_event">
<polygon fill="none" stroke="#000000" points="360.5,-897.5 360.5,-929.5 480.5,-929.5 480.5,-897.5 360.5,-897.5"/>
<text text-anchor="start" x="368.5" y="-916.5" font-family="FreeSans" font-size="10.00" fill="#000000">JetEnergies::process</text>
<text text-anchor="middle" x="420.5" y="-904.5" font-family="FreeSans" font-size="10.00" fill="#000000">_event</text>
</a>
</g>
</g>
<!-- Node8&#45;&gt;Node9 -->
<g id="edge8" class="edge">
<title>Node8&#45;&gt;Node9</title>
<path fill="none" stroke="#191970" d="M304.0436,-916.8194C323.1595,-916.2746 342.7742,-915.7155 360.3266,-915.2152"/>
<polygon fill="#191970" stroke="#191970" points="303.6962,-913.3278 293.8,-917.1114 303.8957,-920.325 303.6962,-913.3278"/>
</g>
<!-- Node11&#45;&gt;Node12 -->
<g id="edge11" class="edge">
<title>Node11&#45;&gt;Node12</title>
<path fill="none" stroke="#191970" d="M295.1372,-700.2996C318.7836,-695.2446 343.8368,-689.8888 365.2796,-685.3048"/>
<polygon fill="#191970" stroke="#191970" points="294.1512,-696.9313 285.1038,-702.4445 295.6146,-703.7766 294.1512,-696.9313"/>
</g>
<!-- Node13&#45;&gt;Node12 -->
<g id="edge13" class="edge">
<title>Node13&#45;&gt;Node12</title>
<path fill="none" stroke="#191970" d="M295.1372,-646.7004C318.7836,-651.7554 343.8368,-657.1112 365.2796,-661.6952"/>
<polygon fill="#191970" stroke="#191970" points="295.6146,-643.2234 285.1038,-644.5555 294.1512,-650.0687 295.6146,-643.2234"/>
</g>
<!-- Node14&#45;&gt;Node5 -->
<g id="edge15" class="edge">
<title>Node14&#45;&gt;Node5</title>
<path fill="none" stroke="#191970" d="M288.2006,-802.5C313.0891,-802.5 340.1423,-802.5 363.2618,-802.5"/>
<polygon fill="#191970" stroke="#191970" points="288.0527,-799.0001 278.0526,-802.5 288.0526,-806.0001 288.0527,-799.0001"/>
</g>
<!-- Node15&#45;&gt;Node5 -->
<g id="edge17" class="edge">
<title>Node15&#45;&gt;Node5</title>
<path fill="none" stroke="#191970" d="M274.4106,-775.4336C302.7253,-780.6795 335.7071,-786.7902 363.1603,-791.8765"/>
<polygon fill="#191970" stroke="#191970" points="274.6793,-771.9238 264.209,-773.5435 273.404,-778.8067 274.6793,-771.9238"/>
</g>
<!-- Node17 -->
<g id="node17" class="node">
<title>Node17</title>
<g id="a_node17"><a xlink:href="../../dc/d64/classHFJetTruthTrigger.html#a285f04a4990696900275fab25aa86106" target="_top" xlink:title="HFJetTruthTrigger::\lprocess_event">
<polygon fill="none" stroke="#000000" points="366,-535.5 366,-567.5 475,-567.5 475,-535.5 366,-535.5"/>
<text text-anchor="start" x="374" y="-554.5" font-family="FreeSans" font-size="10.00" fill="#000000">HFJetTruthTrigger::</text>
<text text-anchor="middle" x="420.5" y="-542.5" font-family="FreeSans" font-size="10.00" fill="#000000">process_event</text>
</a>
</g>
</g>
<!-- Node16&#45;&gt;Node17 -->
<g id="edge19" class="edge">
<title>Node16&#45;&gt;Node17</title>
<path fill="none" stroke="#191970" d="M274.8241,-569.4932C303.9094,-565.9007 337.8515,-561.7084 365.652,-558.2746"/>
<polygon fill="#191970" stroke="#191970" points="274.2524,-566.0371 264.7569,-570.7367 275.1105,-572.9844 274.2524,-566.0371"/>
</g>
<!-- Node18&#45;&gt;Node17 -->
<g id="edge21" class="edge">
<title>Node18&#45;&gt;Node17</title>
<path fill="none" stroke="#191970" d="M274.8241,-534.1988C303.9094,-537.6531 337.8515,-541.6843 365.652,-544.986"/>
<polygon fill="#191970" stroke="#191970" points="275.0999,-530.7071 264.7569,-533.0032 274.2743,-537.6582 275.0999,-530.7071"/>
</g>
<!-- Node27 -->
<g id="node27" class="node">
<title>Node27</title>
<g id="a_node27"><a xlink:href="../../d4/d28/classQAG4SimulationJet.html#a98c3c0fb4d213ada3475e8fb9895bc29" target="_top" xlink:title="QAG4SimulationJet::\lprocess_event">
<polygon fill="none" stroke="#000000" points="361.5,-77.5 361.5,-109.5 479.5,-109.5 479.5,-77.5 361.5,-77.5"/>
<text text-anchor="start" x="369.5" y="-96.5" font-family="FreeSans" font-size="10.00" fill="#000000">QAG4SimulationJet::</text>
<text text-anchor="middle" x="420.5" y="-84.5" font-family="FreeSans" font-size="10.00" fill="#000000">process_event</text>
</a>
</g>
</g>
<!-- Node26&#45;&gt;Node27 -->
<g id="edge31" class="edge">
<title>Node26&#45;&gt;Node27</title>
<path fill="none" stroke="#191970" d="M279.1946,-110.2821C305.7719,-107.1257 335.8381,-103.5549 361.3838,-100.5209"/>
<polygon fill="#191970" stroke="#191970" points="278.7136,-106.8146 269.1962,-111.4696 279.5392,-113.7657 278.7136,-106.8146"/>
</g>
<!-- Node29 -->
<g id="node29" class="node">
<title>Node29</title>
<g id="a_node29"><a xlink:href="../../d0/dc8/classSoftLeptonTaggingTruth.html#a152a3015fe9e7c089637c981a45787fe" target="_top" xlink:title="SoftLeptonTaggingTruth\l::process_event">
<polygon fill="none" stroke="#000000" points="353,-.5 353,-32.5 488,-32.5 488,-.5 353,-.5"/>
<text text-anchor="start" x="361" y="-19.5" font-family="FreeSans" font-size="10.00" fill="#000000">SoftLeptonTaggingTruth</text>
<text text-anchor="middle" x="420.5" y="-7.5" font-family="FreeSans" font-size="10.00" fill="#000000">::process_event</text>
</a>
</g>
</g>
<!-- Node28&#45;&gt;Node29 -->
<g id="edge33" class="edge">
<title>Node28&#45;&gt;Node29</title>
<path fill="none" stroke="#191970" d="M287.7742,-16.5C309.1366,-16.5 332.1228,-16.5 352.8648,-16.5"/>
<polygon fill="#191970" stroke="#191970" points="287.7622,-13.0001 277.7622,-16.5 287.7622,-20.0001 287.7622,-13.0001"/>
</g>
<!-- Node30&#45;&gt;Node27 -->
<g id="edge35" class="edge">
<title>Node30&#45;&gt;Node27</title>
<path fill="none" stroke="#191970" d="M286.1345,-76.9038C310.9525,-79.9692 338.1147,-83.3241 361.4823,-86.2104"/>
<polygon fill="#191970" stroke="#191970" points="286.3796,-73.4075 276.026,-75.6552 285.5215,-80.3548 286.3796,-73.4075"/>
</g>
</g>
</svg>
