<?xml version="1.0" encoding="UTF-8" standalone="no"?>
<!DOCTYPE svg PUBLIC "-//W3C//DTD SVG 1.1//EN"
 "http://www.w3.org/Graphics/SVG/1.1/DTD/svg11.dtd">
<!-- Generated by graphviz version 2.40.1 (20161225.0304)
 -->
<!-- Title: Jet::get_p Pages: 1 -->
<svg width="494pt" height="227pt"
 viewBox="0.00 0.00 494.00 227.00" xmlns="http://www.w3.org/2000/svg" xmlns:xlink="http://www.w3.org/1999/xlink">
<g id="graph0" class="graph" transform="scale(1 1) rotate(0) translate(4 223)">
<title>Jet::get_p</title>
<!-- Node1 -->
<g id="node1" class="node">
<title>Node1</title>
<polygon fill="#bfbfbf" stroke="#000000" points="0,-102.5 0,-122.5 65,-122.5 65,-102.5 0,-102.5"/>
<text text-anchor="middle" x="32.5" y="-109.5" font-family="FreeSans" font-size="10.00" fill="#000000">Jet::get_p</text>
</g>
<!-- Node2 -->
<g id="node2" class="node">
<title>Node2</title>
<g id="a_node2"><a xlink:href="../../d6/d40/classLeptoquarksReco.html#aa251fa1881824e4f72051fe65e8bf459" target="_top" xlink:title="LeptoquarksReco::AddJetInformation">
<polygon fill="none" stroke="#000000" points="101,-192.5 101,-212.5 301,-212.5 301,-192.5 101,-192.5"/>
<text text-anchor="middle" x="201" y="-199.5" font-family="FreeSans" font-size="10.00" fill="#000000">LeptoquarksReco::AddJetInformation</text>
</a>
</g>
</g>
<!-- Node1&#45;&gt;Node2 -->
<g id="edge1" class="edge">
<title>Node1&#45;&gt;Node2</title>
<path fill="none" stroke="#191970" d="M45.1085,-130.9596C57.3948,-147.4355 77.6074,-170.8557 101,-183.5 107.6848,-187.1133 114.9452,-190.0488 122.3994,-192.4323"/>
<polygon fill="#191970" stroke="#191970" points="47.8047,-128.7137 39.1283,-122.6333 42.1191,-132.7973 47.8047,-128.7137"/>
</g>
<!-- Node4 -->
<g id="node4" class="node">
<title>Node4</title>
<g id="a_node4"><a xlink:href="../../dc/d65/classPhotonJet.html#a9b2de7dcbd5e3bbbd26150d418b7bb44" target="_top" xlink:title="PhotonJet::GetRecoHadrons\lAndJets">
<polygon fill="none" stroke="#000000" points="123,-141.5 123,-173.5 279,-173.5 279,-141.5 123,-141.5"/>
<text text-anchor="start" x="131" y="-160.5" font-family="FreeSans" font-size="10.00" fill="#000000">PhotonJet::GetRecoHadrons</text>
<text text-anchor="middle" x="201" y="-148.5" font-family="FreeSans" font-size="10.00" fill="#000000">AndJets</text>
</a>
</g>
</g>
<!-- Node1&#45;&gt;Node4 -->
<g id="edge3" class="edge">
<title>Node1&#45;&gt;Node4</title>
<path fill="none" stroke="#191970" d="M75.1095,-123.8794C95.0533,-129.2056 119.1561,-135.6426 140.911,-141.4525"/>
<polygon fill="#191970" stroke="#191970" points="75.953,-120.4821 65.3885,-121.2833 74.1468,-127.245 75.953,-120.4821"/>
</g>
<!-- Node5 -->
<g id="node5" class="node">
<title>Node5</title>
<g id="a_node5"><a xlink:href="../../dc/d65/classPhotonJet.html#a3f9d3ec941f851bc2246ceb0c5362c9f" target="_top" xlink:title="PhotonJet::process\l_event">
<polygon fill="none" stroke="#000000" points="356.5,-96.5 356.5,-128.5 466.5,-128.5 466.5,-96.5 356.5,-96.5"/>
<text text-anchor="start" x="364.5" y="-115.5" font-family="FreeSans" font-size="10.00" fill="#000000">PhotonJet::process</text>
<text text-anchor="middle" x="411.5" y="-103.5" font-family="FreeSans" font-size="10.00" fill="#000000">_event</text>
</a>
</g>
</g>
<!-- Node1&#45;&gt;Node5 -->
<g id="edge8" class="edge">
<title>Node1&#45;&gt;Node5</title>
<path fill="none" stroke="#191970" d="M75.2265,-112.5C144.2624,-112.5 280.28,-112.5 356.4709,-112.5"/>
<polygon fill="#191970" stroke="#191970" points="75.1414,-109.0001 65.1414,-112.5 75.1413,-116.0001 75.1414,-109.0001"/>
</g>
<!-- Node6 -->
<g id="node6" class="node">
<title>Node6</title>
<g id="a_node6"><a xlink:href="../../dc/d65/classPhotonJet.html#a2c1adc79085fbbe9d27254d016321804" target="_top" xlink:title="PhotonJet::GetRecoHadrons\lAndJetsAA">
<polygon fill="none" stroke="#000000" points="123,-51.5 123,-83.5 279,-83.5 279,-51.5 123,-51.5"/>
<text text-anchor="start" x="131" y="-70.5" font-family="FreeSans" font-size="10.00" fill="#000000">PhotonJet::GetRecoHadrons</text>
<text text-anchor="middle" x="201" y="-58.5" font-family="FreeSans" font-size="10.00" fill="#000000">AndJetsAA</text>
</a>
</g>
</g>
<!-- Node1&#45;&gt;Node6 -->
<g id="edge5" class="edge">
<title>Node1&#45;&gt;Node6</title>
<path fill="none" stroke="#191970" d="M75.1095,-101.1206C95.0533,-95.7944 119.1561,-89.3574 140.911,-83.5475"/>
<polygon fill="#191970" stroke="#191970" points="74.1468,-97.755 65.3885,-103.7167 75.953,-104.5179 74.1468,-97.755"/>
</g>
<!-- Node7 -->
<g id="node7" class="node">
<title>Node7</title>
<g id="a_node7"><a xlink:href="../../d9/de3/classTruthPhotonJet.html#ae476c9aba33cf8d9161947519d293f5c" target="_top" xlink:title="TruthPhotonJet::process\l_event">
<polygon fill="none" stroke="#000000" points="132.5,-.5 132.5,-32.5 269.5,-32.5 269.5,-.5 132.5,-.5"/>
<text text-anchor="start" x="140.5" y="-19.5" font-family="FreeSans" font-size="10.00" fill="#000000">TruthPhotonJet::process</text>
<text text-anchor="middle" x="201" y="-7.5" font-family="FreeSans" font-size="10.00" fill="#000000">_event</text>
</a>
</g>
</g>
<!-- Node1&#45;&gt;Node7 -->
<g id="edge7" class="edge">
<title>Node1&#45;&gt;Node7</title>
<path fill="none" stroke="#191970" d="M45.4839,-94.0832C57.9077,-77.8344 78.1038,-54.7359 101,-41.5 110.6056,-35.9471 121.424,-31.6176 132.3043,-28.2445"/>
<polygon fill="#191970" stroke="#191970" points="42.5409,-92.1766 39.4137,-102.2994 48.171,-96.3362 42.5409,-92.1766"/>
</g>
<!-- Node3 -->
<g id="node3" class="node">
<title>Node3</title>
<g id="a_node3"><a xlink:href="../../d6/d40/classLeptoquarksReco.html#aa5b8ff9665c7a78246bd4f1194d66d1b" target="_top" xlink:title="LeptoquarksReco::process\l_event">
<polygon fill="none" stroke="#000000" points="337,-186.5 337,-218.5 486,-218.5 486,-186.5 337,-186.5"/>
<text text-anchor="start" x="345" y="-205.5" font-family="FreeSans" font-size="10.00" fill="#000000">LeptoquarksReco::process</text>
<text text-anchor="middle" x="411.5" y="-193.5" font-family="FreeSans" font-size="10.00" fill="#000000">_event</text>
</a>
</g>
</g>
<!-- Node2&#45;&gt;Node3 -->
<g id="edge2" class="edge">
<title>Node2&#45;&gt;Node3</title>
<path fill="none" stroke="#191970" d="M311.2211,-202.5C319.9139,-202.5 328.5614,-202.5 336.9257,-202.5"/>
<polygon fill="#191970" stroke="#191970" points="311.01,-199.0001 301.01,-202.5 311.0099,-206.0001 311.01,-199.0001"/>
</g>
<!-- Node4&#45;&gt;Node5 -->
<g id="edge4" class="edge">
<title>Node4&#45;&gt;Node5</title>
<path fill="none" stroke="#191970" d="M286.1372,-139.2996C309.7836,-134.2446 334.8368,-128.8888 356.2796,-124.3048"/>
<polygon fill="#191970" stroke="#191970" points="285.1512,-135.9313 276.1038,-141.4445 286.6146,-142.7766 285.1512,-135.9313"/>
</g>
<!-- Node6&#45;&gt;Node5 -->
<g id="edge6" class="edge">
<title>Node6&#45;&gt;Node5</title>
<path fill="none" stroke="#191970" d="M286.1372,-85.7004C309.7836,-90.7554 334.8368,-96.1112 356.2796,-100.6952"/>
<polygon fill="#191970" stroke="#191970" points="286.6146,-82.2234 276.1038,-83.5555 285.1512,-89.0687 286.6146,-82.2234"/>
</g>
</g>
</svg>
