<?xml version="1.0" encoding="UTF-8" standalone="no"?>
<!DOCTYPE svg PUBLIC "-//W3C//DTD SVG 1.1//EN"
 "http://www.w3.org/Graphics/SVG/1.1/DTD/svg11.dtd">
<!-- Generated by graphviz version 2.40.1 (20161225.0304)
 -->
<!-- Title: Jet::get_pz Pages: 1 -->
<svg width="451pt" height="368pt"
 viewBox="0.00 0.00 451.00 368.00" xmlns="http://www.w3.org/2000/svg" xmlns:xlink="http://www.w3.org/1999/xlink">
<g id="graph0" class="graph" transform="scale(1 1) rotate(0) translate(4 364)">
<title>Jet::get_pz</title>
<!-- Node1 -->
<g id="node1" class="node">
<title>Node1</title>
<polygon fill="#bfbfbf" stroke="#000000" points="0,-181.5 0,-201.5 70,-201.5 70,-181.5 0,-181.5"/>
<text text-anchor="middle" x="35" y="-188.5" font-family="FreeSans" font-size="10.00" fill="#000000">Jet::get_pz</text>
</g>
<!-- Node2 -->
<g id="node2" class="node">
<title>Node2</title>
<g id="a_node2"><a xlink:href="../../d7/dce/classTreeMaker.html#a52bf12994bc1206706553ddef4a8e2ca" target="_top" xlink:title="TreeMaker::CopyAndMakeJets">
<polygon fill="none" stroke="#000000" points="106,-333.5 106,-353.5 272,-353.5 272,-333.5 106,-333.5"/>
<text text-anchor="middle" x="189" y="-340.5" font-family="FreeSans" font-size="10.00" fill="#000000">TreeMaker::CopyAndMakeJets</text>
</a>
</g>
</g>
<!-- Node1&#45;&gt;Node2 -->
<g id="edge1" class="edge">
<title>Node1&#45;&gt;Node2</title>
<path fill="none" stroke="#191970" d="M40.0355,-211.702C48.4792,-241.2201 68.3865,-295.7429 106,-324.5 110.6974,-328.0914 115.9532,-331.0243 121.4783,-333.4169"/>
<polygon fill="#191970" stroke="#191970" points="43.3272,-210.4652 37.3477,-201.7191 36.5679,-212.2852 43.3272,-210.4652"/>
</g>
<!-- Node4 -->
<g id="node4" class="node">
<title>Node4</title>
<g id="a_node4"><a xlink:href="../../d6/d77/classFastJetAlgoSub.html#aedbf3469337244550d98d847a4a755a8" target="_top" xlink:title="FastJetAlgoSub::get_jets">
<polygon fill="none" stroke="#000000" points="120,-294.5 120,-314.5 258,-314.5 258,-294.5 120,-294.5"/>
<text text-anchor="middle" x="189" y="-301.5" font-family="FreeSans" font-size="10.00" fill="#000000">FastJetAlgoSub::get_jets</text>
</a>
</g>
</g>
<!-- Node1&#45;&gt;Node4 -->
<g id="edge3" class="edge">
<title>Node1&#45;&gt;Node4</title>
<path fill="none" stroke="#191970" d="M44.2833,-210.7699C55.7275,-232.3977 77.2465,-266.8881 106,-285.5 111.5843,-289.1147 117.77,-292.0457 124.1731,-294.4216"/>
<polygon fill="#191970" stroke="#191970" points="47.2635,-208.9083 39.6154,-201.5763 41.0219,-212.0774 47.2635,-208.9083"/>
</g>
<!-- Node5 -->
<g id="node5" class="node">
<title>Node5</title>
<g id="a_node5"><a xlink:href="../../dc/d65/classPhotonJet.html#a9b2de7dcbd5e3bbbd26150d418b7bb44" target="_top" xlink:title="PhotonJet::GetRecoHadrons\lAndJets">
<polygon fill="none" stroke="#000000" points="111,-243.5 111,-275.5 267,-275.5 267,-243.5 111,-243.5"/>
<text text-anchor="start" x="119" y="-262.5" font-family="FreeSans" font-size="10.00" fill="#000000">PhotonJet::GetRecoHadrons</text>
<text text-anchor="middle" x="189" y="-250.5" font-family="FreeSans" font-size="10.00" fill="#000000">AndJets</text>
</a>
</g>
</g>
<!-- Node1&#45;&gt;Node5 -->
<g id="edge4" class="edge">
<title>Node1&#45;&gt;Node5</title>
<path fill="none" stroke="#191970" d="M61.7626,-206.4404C74.9032,-213.5189 91.0821,-221.8573 106,-228.5 117.8035,-233.756 130.7973,-238.9003 142.9293,-243.4405"/>
<polygon fill="#191970" stroke="#191970" points="63.248,-203.2639 52.7926,-201.551 59.8978,-209.4101 63.248,-203.2639"/>
</g>
<!-- Node6 -->
<g id="node6" class="node">
<title>Node6</title>
<g id="a_node6"><a xlink:href="../../dc/d65/classPhotonJet.html#a3f9d3ec941f851bc2246ceb0c5362c9f" target="_top" xlink:title="PhotonJet::process\l_event">
<polygon fill="none" stroke="#000000" points="320.5,-198.5 320.5,-230.5 430.5,-230.5 430.5,-198.5 320.5,-198.5"/>
<text text-anchor="start" x="328.5" y="-217.5" font-family="FreeSans" font-size="10.00" fill="#000000">PhotonJet::process</text>
<text text-anchor="middle" x="375.5" y="-205.5" font-family="FreeSans" font-size="10.00" fill="#000000">_event</text>
</a>
</g>
</g>
<!-- Node1&#45;&gt;Node6 -->
<g id="edge10" class="edge">
<title>Node1&#45;&gt;Node6</title>
<path fill="none" stroke="#191970" d="M80.4155,-194.5677C142.4702,-198.7594 253.6489,-206.2692 320.3936,-210.7777"/>
<polygon fill="#191970" stroke="#191970" points="80.3702,-191.0568 70.157,-193.8748 79.8984,-198.0409 80.3702,-191.0568"/>
</g>
<!-- Node7 -->
<g id="node7" class="node">
<title>Node7</title>
<g id="a_node7"><a xlink:href="../../dc/d65/classPhotonJet.html#a2c1adc79085fbbe9d27254d016321804" target="_top" xlink:title="PhotonJet::GetRecoHadrons\lAndJetsAA">
<polygon fill="none" stroke="#000000" points="111,-153.5 111,-185.5 267,-185.5 267,-153.5 111,-153.5"/>
<text text-anchor="start" x="119" y="-172.5" font-family="FreeSans" font-size="10.00" fill="#000000">PhotonJet::GetRecoHadrons</text>
<text text-anchor="middle" x="189" y="-160.5" font-family="FreeSans" font-size="10.00" fill="#000000">AndJetsAA</text>
</a>
</g>
</g>
<!-- Node1&#45;&gt;Node7 -->
<g id="edge6" class="edge">
<title>Node1&#45;&gt;Node7</title>
<path fill="none" stroke="#191970" d="M80.4094,-185.0129C90.0182,-183.6403 100.421,-182.1541 110.8518,-180.664"/>
<polygon fill="#191970" stroke="#191970" points="79.7352,-181.5736 70.3307,-186.4528 80.7252,-188.5033 79.7352,-181.5736"/>
</g>
<!-- Node8 -->
<g id="node8" class="node">
<title>Node8</title>
<g id="a_node8"><a xlink:href="../../d3/d26/classCopyAndSubtractJets.html#aa7469769625a7718d5d28b57faf8b663" target="_top" xlink:title="CopyAndSubtractJets\l::process_event">
<polygon fill="none" stroke="#000000" points="127.5,-102.5 127.5,-134.5 250.5,-134.5 250.5,-102.5 127.5,-102.5"/>
<text text-anchor="start" x="135.5" y="-121.5" font-family="FreeSans" font-size="10.00" fill="#000000">CopyAndSubtractJets</text>
<text text-anchor="middle" x="189" y="-109.5" font-family="FreeSans" font-size="10.00" fill="#000000">::process_event</text>
</a>
</g>
</g>
<!-- Node1&#45;&gt;Node8 -->
<g id="edge8" class="edge">
<title>Node1&#45;&gt;Node8</title>
<path fill="none" stroke="#191970" d="M55.9076,-175.3859C69.5791,-165.4362 88.1521,-152.9933 106,-144.5 113.772,-140.8015 122.1978,-137.4611 130.601,-134.5026"/>
<polygon fill="#191970" stroke="#191970" points="53.6244,-172.7221 47.6881,-181.4977 57.8013,-178.3394 53.6244,-172.7221"/>
</g>
<!-- Node9 -->
<g id="node9" class="node">
<title>Node9</title>
<g id="a_node9"><a xlink:href="../../d9/de3/classTruthPhotonJet.html#ae476c9aba33cf8d9161947519d293f5c" target="_top" xlink:title="TruthPhotonJet::process\l_event">
<polygon fill="none" stroke="#000000" points="120.5,-51.5 120.5,-83.5 257.5,-83.5 257.5,-51.5 120.5,-51.5"/>
<text text-anchor="start" x="128.5" y="-70.5" font-family="FreeSans" font-size="10.00" fill="#000000">TruthPhotonJet::process</text>
<text text-anchor="middle" x="189" y="-58.5" font-family="FreeSans" font-size="10.00" fill="#000000">_event</text>
</a>
</g>
</g>
<!-- Node1&#45;&gt;Node9 -->
<g id="edge9" class="edge">
<title>Node1&#45;&gt;Node9</title>
<path fill="none" stroke="#191970" d="M44.1965,-172.1214C55.6649,-149.9774 77.309,-114.1433 106,-93.5 111.2706,-89.7078 117.1123,-86.456 123.1846,-83.67"/>
<polygon fill="#191970" stroke="#191970" points="40.9855,-170.7177 39.6545,-181.2286 47.2497,-173.8418 40.9855,-170.7177"/>
</g>
<!-- Node10 -->
<g id="node10" class="node">
<title>Node10</title>
<g id="a_node10"><a xlink:href="../../d0/dc8/classSoftLeptonTaggingTruth.html#a3989ff17a01ba304478d558b99c3214f" target="_top" xlink:title="SoftLeptonTaggingTruth\l::process_Spectrum">
<polygon fill="none" stroke="#000000" points="121.5,-.5 121.5,-32.5 256.5,-32.5 256.5,-.5 121.5,-.5"/>
<text text-anchor="start" x="129.5" y="-19.5" font-family="FreeSans" font-size="10.00" fill="#000000">SoftLeptonTaggingTruth</text>
<text text-anchor="middle" x="189" y="-7.5" font-family="FreeSans" font-size="10.00" fill="#000000">::process_Spectrum</text>
</a>
</g>
</g>
<!-- Node1&#45;&gt;Node10 -->
<g id="edge11" class="edge">
<title>Node1&#45;&gt;Node10</title>
<path fill="none" stroke="#191970" d="M39.0116,-171.3971C46.4777,-139.2351 65.5636,-76.3009 106,-41.5 110.5626,-37.5733 115.7258,-34.2633 121.1904,-31.4732"/>
<polygon fill="#191970" stroke="#191970" points="35.5428,-170.8781 36.8394,-181.3933 42.3832,-172.3646 35.5428,-170.8781"/>
</g>
<!-- Node3 -->
<g id="node3" class="node">
<title>Node3</title>
<g id="a_node3"><a xlink:href="../../d7/dce/classTreeMaker.html#a89a6f3a23de784d5f8d86ae91956aa69" target="_top" xlink:title="TreeMaker::process\l_event">
<polygon fill="none" stroke="#000000" points="318.5,-327.5 318.5,-359.5 432.5,-359.5 432.5,-327.5 318.5,-327.5"/>
<text text-anchor="start" x="326.5" y="-346.5" font-family="FreeSans" font-size="10.00" fill="#000000">TreeMaker::process</text>
<text text-anchor="middle" x="375.5" y="-334.5" font-family="FreeSans" font-size="10.00" fill="#000000">_event</text>
</a>
</g>
</g>
<!-- Node2&#45;&gt;Node3 -->
<g id="edge2" class="edge">
<title>Node2&#45;&gt;Node3</title>
<path fill="none" stroke="#191970" d="M282.4587,-343.5C294.7406,-343.5 307.0177,-343.5 318.4377,-343.5"/>
<polygon fill="#191970" stroke="#191970" points="282.1595,-340.0001 272.1594,-343.5 282.1594,-347.0001 282.1595,-340.0001"/>
</g>
<!-- Node5&#45;&gt;Node6 -->
<g id="edge5" class="edge">
<title>Node5&#45;&gt;Node6</title>
<path fill="none" stroke="#191970" d="M265.3694,-241.0731C283.7941,-236.6274 303.1284,-231.9623 320.3643,-227.8035"/>
<polygon fill="#191970" stroke="#191970" points="264.441,-237.6966 255.5409,-243.4445 266.0829,-244.5013 264.441,-237.6966"/>
</g>
<!-- Node7&#45;&gt;Node6 -->
<g id="edge7" class="edge">
<title>Node7&#45;&gt;Node6</title>
<path fill="none" stroke="#191970" d="M265.3694,-187.9269C283.7941,-192.3726 303.1284,-197.0377 320.3643,-201.1965"/>
<polygon fill="#191970" stroke="#191970" points="266.0829,-184.4987 255.5409,-185.5555 264.441,-191.3034 266.0829,-184.4987"/>
</g>
<!-- Node11 -->
<g id="node11" class="node">
<title>Node11</title>
<g id="a_node11"><a xlink:href="../../d0/dc8/classSoftLeptonTaggingTruth.html#a152a3015fe9e7c089637c981a45787fe" target="_top" xlink:title="SoftLeptonTaggingTruth\l::process_event">
<polygon fill="none" stroke="#000000" points="308,-.5 308,-32.5 443,-32.5 443,-.5 308,-.5"/>
<text text-anchor="start" x="316" y="-19.5" font-family="FreeSans" font-size="10.00" fill="#000000">SoftLeptonTaggingTruth</text>
<text text-anchor="middle" x="375.5" y="-7.5" font-family="FreeSans" font-size="10.00" fill="#000000">::process_event</text>
</a>
</g>
</g>
<!-- Node10&#45;&gt;Node11 -->
<g id="edge12" class="edge">
<title>Node10&#45;&gt;Node11</title>
<path fill="none" stroke="#191970" d="M266.8854,-16.5C280.483,-16.5 294.5288,-16.5 307.8231,-16.5"/>
<polygon fill="#191970" stroke="#191970" points="266.5945,-13.0001 256.5945,-16.5 266.5944,-20.0001 266.5945,-13.0001"/>
</g>
</g>
</svg>
