<?xml version="1.0" encoding="UTF-8" standalone="no"?>
<!DOCTYPE svg PUBLIC "-//W3C//DTD SVG 1.1//EN"
 "http://www.w3.org/Graphics/SVG/1.1/DTD/svg11.dtd">
<!-- Generated by graphviz version 2.40.1 (20161225.0304)
 -->
<!-- Title: Jet::get_id Pages: 1 -->
<svg width="979pt" height="568pt"
 viewBox="0.00 0.00 979.00 568.44" xmlns="http://www.w3.org/2000/svg" xmlns:xlink="http://www.w3.org/1999/xlink">
<g id="graph0" class="graph" transform="scale(1 1) rotate(0) translate(4 564.4398)">
<title>Jet::get_id</title>
<!-- Node1 -->
<g id="node1" class="node">
<title>Node1</title>
<polygon fill="#bfbfbf" stroke="#000000" points="0,-253.5 0,-273.5 67,-273.5 67,-253.5 0,-253.5"/>
<text text-anchor="middle" x="33.5" y="-260.5" font-family="FreeSans" font-size="10.00" fill="#000000">Jet::get_id</text>
</g>
<!-- Node2 -->
<g id="node2" class="node">
<title>Node2</title>
<g id="a_node2"><a xlink:href="../../dd/d75/classJetRecoEval.html#aaa6df5bbed40bd8cf789d997c348d12f" target="_top" xlink:title="what reconstructed jets had contributions from this truth jet?">
<polygon fill="none" stroke="#000000" points="107.5,-398.5 107.5,-418.5 254.5,-418.5 254.5,-398.5 107.5,-398.5"/>
<text text-anchor="middle" x="181" y="-405.5" font-family="FreeSans" font-size="10.00" fill="#000000">JetRecoEval::all_jets_from</text>
</a>
</g>
</g>
<!-- Node1&#45;&gt;Node2 -->
<g id="edge1" class="edge">
<title>Node1&#45;&gt;Node2</title>
<path fill="none" stroke="#191970" d="M39.8439,-283.2469C49.3715,-309.8193 69.8755,-356.8227 103,-383.5 111.0848,-390.0112 120.9013,-394.8419 130.8044,-398.4209"/>
<polygon fill="#191970" stroke="#191970" points="43.0708,-281.8659 36.5266,-273.5338 36.4465,-284.1283 43.0708,-281.8659"/>
</g>
<!-- Node4 -->
<g id="node4" class="node">
<title>Node4</title>
<g id="a_node4"><a xlink:href="../../d8/de2/classJetEnergies.html#a065fee78622ed073cafb5cf172d67bef" target="_top" xlink:title="dump the evaluator information into ntuple for external analysis">
<polygon fill="none" stroke="#000000" points="482,-530.5 482,-550.5 649,-550.5 649,-530.5 482,-530.5"/>
<text text-anchor="middle" x="565.5" y="-537.5" font-family="FreeSans" font-size="10.00" fill="#000000">JetEnergies::fillOutputNtuples</text>
</a>
</g>
</g>
<!-- Node1&#45;&gt;Node4 -->
<g id="edge15" class="edge">
<title>Node1&#45;&gt;Node4</title>
<path fill="none" stroke="#191970" d="M37.4888,-283.7882C47.2857,-331.577 73.8639,-449.1788 103,-475.5 216.8681,-578.3667 415.1376,-564.666 510.7906,-550.5278"/>
<polygon fill="#191970" stroke="#191970" points="40.8676,-282.8367 35.4635,-273.7237 34.0052,-284.2177 40.8676,-282.8367"/>
</g>
<!-- Node9 -->
<g id="node9" class="node">
<title>Node9</title>
<g id="a_node9"><a xlink:href="../../d1/df4/classJetEvaluator.html#a0c608411c03ff1de3fca80d64e93ae5d" target="_top" xlink:title="dump the evaluator information into ntuple for external analysis">
<polygon fill="none" stroke="#000000" points="499,-479.5 499,-511.5 632,-511.5 632,-479.5 499,-479.5"/>
<text text-anchor="start" x="507" y="-498.5" font-family="FreeSans" font-size="10.00" fill="#000000">JetEvaluator::fillOutput</text>
<text text-anchor="middle" x="565.5" y="-486.5" font-family="FreeSans" font-size="10.00" fill="#000000">Ntuples</text>
</a>
</g>
</g>
<!-- Node1&#45;&gt;Node9 -->
<g id="edge14" class="edge">
<title>Node1&#45;&gt;Node9</title>
<path fill="none" stroke="#191970" d="M35.6989,-283.8297C40.7063,-319.3806 56.397,-392.4802 103,-428.5 218.8701,-518.0568 401.2703,-514.6326 498.7796,-504.8233"/>
<polygon fill="#191970" stroke="#191970" points="39.1455,-283.1853 34.4229,-273.7012 32.2004,-284.0603 39.1455,-283.1853"/>
</g>
<!-- Node11 -->
<g id="node11" class="node">
<title>Node11</title>
<g id="a_node11"><a xlink:href="../../dd/d75/classJetRecoEval.html#a9775ea4a0c6e28f22da7997f4886f195" target="_top" xlink:title="JetRecoEval::unique\l_reco_jet_from_truth">
<polygon fill="none" stroke="#000000" points="505.5,-287.5 505.5,-319.5 625.5,-319.5 625.5,-287.5 505.5,-287.5"/>
<text text-anchor="start" x="513.5" y="-306.5" font-family="FreeSans" font-size="10.00" fill="#000000">JetRecoEval::unique</text>
<text text-anchor="middle" x="565.5" y="-294.5" font-family="FreeSans" font-size="10.00" fill="#000000">_reco_jet_from_truth</text>
</a>
</g>
</g>
<!-- Node1&#45;&gt;Node11 -->
<g id="edge25" class="edge">
<title>Node1&#45;&gt;Node11</title>
<path fill="none" stroke="#191970" d="M51.4595,-280.503C64.6008,-291.7147 83.4774,-305.4136 103,-311.5 241.7685,-354.7625 415.5103,-332.85 505.4015,-316.2974"/>
<polygon fill="#191970" stroke="#191970" points="53.4997,-277.6333 43.7029,-273.5994 48.8459,-282.8623 53.4997,-277.6333"/>
</g>
<!-- Node12 -->
<g id="node12" class="node">
<title>Node12</title>
<g id="a_node12"><a xlink:href="../../dd/d75/classJetRecoEval.html#ac6030b2b14c885e19e35f86ec828d8d8" target="_top" xlink:title="JetRecoEval::unique\l_truth_jet_from_reco">
<polygon fill="none" stroke="#000000" points="505.5,-338.5 505.5,-370.5 625.5,-370.5 625.5,-338.5 505.5,-338.5"/>
<text text-anchor="start" x="513.5" y="-357.5" font-family="FreeSans" font-size="10.00" fill="#000000">JetRecoEval::unique</text>
<text text-anchor="middle" x="565.5" y="-345.5" font-family="FreeSans" font-size="10.00" fill="#000000">_truth_jet_from_reco</text>
</a>
</g>
</g>
<!-- Node1&#45;&gt;Node12 -->
<g id="edge26" class="edge">
<title>Node1&#45;&gt;Node12</title>
<path fill="none" stroke="#191970" d="M44.5773,-282.2041C56.4638,-300.2931 77.1668,-326.6542 103,-338.5 235.9167,-399.4491 413.6048,-381.8231 505.2246,-366.5403"/>
<polygon fill="#191970" stroke="#191970" points="47.4678,-280.2256 39.1847,-273.6195 41.5403,-283.9492 47.4678,-280.2256"/>
</g>
<!-- Node13 -->
<g id="node13" class="node">
<title>Node13</title>
<g id="a_node13"><a xlink:href="../../dc/d65/classPhotonJet.html#a9b2de7dcbd5e3bbbd26150d418b7bb44" target="_top" xlink:title="PhotonJet::GetRecoHadrons\lAndJets">
<polygon fill="none" stroke="#000000" points="103,-270.5 103,-302.5 259,-302.5 259,-270.5 103,-270.5"/>
<text text-anchor="start" x="111" y="-289.5" font-family="FreeSans" font-size="10.00" fill="#000000">PhotonJet::GetRecoHadrons</text>
<text text-anchor="middle" x="181" y="-277.5" font-family="FreeSans" font-size="10.00" fill="#000000">AndJets</text>
</a>
</g>
</g>
<!-- Node1&#45;&gt;Node13 -->
<g id="edge16" class="edge">
<title>Node1&#45;&gt;Node13</title>
<path fill="none" stroke="#191970" d="M77.2717,-270.3254C85.3893,-271.5912 94.0907,-272.948 102.8753,-274.3178"/>
<polygon fill="#191970" stroke="#191970" points="77.7594,-266.8592 67.3395,-268.7767 76.6808,-273.7757 77.7594,-266.8592"/>
</g>
<!-- Node14 -->
<g id="node14" class="node">
<title>Node14</title>
<g id="a_node14"><a xlink:href="../../dc/d65/classPhotonJet.html#a3f9d3ec941f851bc2246ceb0c5362c9f" target="_top" xlink:title="PhotonJet::process\l_event">
<polygon fill="none" stroke="#000000" points="315.5,-225.5 315.5,-257.5 425.5,-257.5 425.5,-225.5 315.5,-225.5"/>
<text text-anchor="start" x="323.5" y="-244.5" font-family="FreeSans" font-size="10.00" fill="#000000">PhotonJet::process</text>
<text text-anchor="middle" x="370.5" y="-232.5" font-family="FreeSans" font-size="10.00" fill="#000000">_event</text>
</a>
</g>
</g>
<!-- Node1&#45;&gt;Node14 -->
<g id="edge22" class="edge">
<title>Node1&#45;&gt;Node14</title>
<path fill="none" stroke="#191970" d="M77.1136,-260.6528C138.1129,-256.6707 248.8883,-249.439 315.4817,-245.0917"/>
<polygon fill="#191970" stroke="#191970" points="76.7956,-257.166 67.0449,-261.3101 77.2517,-264.1512 76.7956,-257.166"/>
</g>
<!-- Node15 -->
<g id="node15" class="node">
<title>Node15</title>
<g id="a_node15"><a xlink:href="../../dc/d65/classPhotonJet.html#a2c1adc79085fbbe9d27254d016321804" target="_top" xlink:title="PhotonJet::GetRecoHadrons\lAndJetsAA">
<polygon fill="none" stroke="#000000" points="103,-180.5 103,-212.5 259,-212.5 259,-180.5 103,-180.5"/>
<text text-anchor="start" x="111" y="-199.5" font-family="FreeSans" font-size="10.00" fill="#000000">PhotonJet::GetRecoHadrons</text>
<text text-anchor="middle" x="181" y="-187.5" font-family="FreeSans" font-size="10.00" fill="#000000">AndJetsAA</text>
</a>
</g>
</g>
<!-- Node1&#45;&gt;Node15 -->
<g id="edge18" class="edge">
<title>Node1&#45;&gt;Node15</title>
<path fill="none" stroke="#191970" d="M60.9358,-248.4866C73.5962,-241.767 88.9128,-233.9285 103,-227.5 114.2683,-222.3578 126.6529,-217.2128 138.1701,-212.6337"/>
<polygon fill="#191970" stroke="#191970" points="58.9959,-245.5552 51.8364,-253.365 62.3035,-251.7245 58.9959,-245.5552"/>
</g>
<!-- Node16 -->
<g id="node16" class="node">
<title>Node16</title>
<g id="a_node16"><a xlink:href="../../d9/d22/classJetMapv1.html#a0c728b2df0d743020acd6e67d5448f88" target="_top" xlink:title="JetMapv1::JetMapv1">
<polygon fill="none" stroke="#000000" points="122.5,-141.5 122.5,-161.5 239.5,-161.5 239.5,-141.5 122.5,-141.5"/>
<text text-anchor="middle" x="181" y="-148.5" font-family="FreeSans" font-size="10.00" fill="#000000">JetMapv1::JetMapv1</text>
</a>
</g>
</g>
<!-- Node1&#45;&gt;Node16 -->
<g id="edge20" class="edge">
<title>Node1&#45;&gt;Node16</title>
<path fill="none" stroke="#191970" d="M42.7551,-244.1752C53.9953,-222.8236 74.9825,-189.0159 103,-170.5 108.9302,-166.5809 115.5933,-163.4693 122.4618,-160.9989"/>
<polygon fill="#191970" stroke="#191970" points="39.5446,-242.7683 38.159,-253.2722 45.7925,-245.925 39.5446,-242.7683"/>
</g>
<!-- Node17 -->
<g id="node17" class="node">
<title>Node17</title>
<g id="a_node17"><a xlink:href="../../d9/d22/classJetMapv1.html#aca6cd643774ce0e05bc2a841a7547f69" target="_top" xlink:title="JetMapv1::operator=">
<polygon fill="none" stroke="#000000" points="120,-102.5 120,-122.5 242,-122.5 242,-102.5 120,-102.5"/>
<text text-anchor="middle" x="181" y="-109.5" font-family="FreeSans" font-size="10.00" fill="#000000">JetMapv1::operator=</text>
</a>
</g>
</g>
<!-- Node1&#45;&gt;Node17 -->
<g id="edge21" class="edge">
<title>Node1&#45;&gt;Node17</title>
<path fill="none" stroke="#191970" d="M38.3986,-243.5215C46.6251,-214.3164 66.063,-160.3182 103,-131.5 108.0548,-127.5562 113.8115,-124.4163 119.8546,-121.9186"/>
<polygon fill="#191970" stroke="#191970" points="34.9602,-242.8335 35.7816,-253.3965 41.7266,-244.6268 34.9602,-242.8335"/>
</g>
<!-- Node18 -->
<g id="node18" class="node">
<title>Node18</title>
<g id="a_node18"><a xlink:href="../../d5/d1f/classMyJetAnalysis.html#a309e9a46394353251b673514d6eb28ac" target="_top" xlink:title="MyJetAnalysis::process\l_event">
<polygon fill="none" stroke="#000000" points="115.5,-51.5 115.5,-83.5 246.5,-83.5 246.5,-51.5 115.5,-51.5"/>
<text text-anchor="start" x="123.5" y="-70.5" font-family="FreeSans" font-size="10.00" fill="#000000">MyJetAnalysis::process</text>
<text text-anchor="middle" x="181" y="-58.5" font-family="FreeSans" font-size="10.00" fill="#000000">_event</text>
</a>
</g>
</g>
<!-- Node1&#45;&gt;Node18 -->
<g id="edge23" class="edge">
<title>Node1&#45;&gt;Node18</title>
<path fill="none" stroke="#191970" d="M36.1174,-243.2307C41.7802,-207.6395 58.4638,-133.7792 103,-92.5 106.6503,-89.1167 110.7604,-86.1912 115.1364,-83.6616"/>
<polygon fill="#191970" stroke="#191970" points="32.6212,-242.952 34.6448,-253.3518 39.5482,-243.96 32.6212,-242.952"/>
</g>
<!-- Node19 -->
<g id="node19" class="node">
<title>Node19</title>
<g id="a_node19"><a xlink:href="../../d1/d04/classBDiJetModule.html#a8f01ada101f7e91cf05e12bbf420d192" target="_top" xlink:title="BDiJetModule::process\l_event">
<polygon fill="none" stroke="#000000" points="116.5,-.5 116.5,-32.5 245.5,-32.5 245.5,-.5 116.5,-.5"/>
<text text-anchor="start" x="124.5" y="-19.5" font-family="FreeSans" font-size="10.00" fill="#000000">BDiJetModule::process</text>
<text text-anchor="middle" x="181" y="-7.5" font-family="FreeSans" font-size="10.00" fill="#000000">_event</text>
</a>
</g>
</g>
<!-- Node1&#45;&gt;Node19 -->
<g id="edge24" class="edge">
<title>Node1&#45;&gt;Node19</title>
<path fill="none" stroke="#191970" d="M37.3299,-243.433C47.0467,-194.4687 73.9558,-70.7415 103,-41.5 106.9082,-37.5652 111.436,-34.2491 116.3037,-31.4545"/>
<polygon fill="#191970" stroke="#191970" points="33.8584,-242.9491 35.3793,-253.4342 40.729,-244.2892 33.8584,-242.9491"/>
</g>
<!-- Node3 -->
<g id="node3" class="node">
<title>Node3</title>
<g id="a_node3"><a xlink:href="../../dd/d75/classJetRecoEval.html#a631b92837e600fbdb6b966a556fc9077" target="_top" xlink:title="which reconstructed jet had the largest energy contribution from this truth jet?">
<polygon fill="none" stroke="#000000" points="295,-398.5 295,-418.5 446,-418.5 446,-398.5 295,-398.5"/>
<text text-anchor="middle" x="370.5" y="-405.5" font-family="FreeSans" font-size="10.00" fill="#000000">JetRecoEval::best_jet_from</text>
</a>
</g>
</g>
<!-- Node2&#45;&gt;Node3 -->
<g id="edge2" class="edge">
<title>Node2&#45;&gt;Node3</title>
<path fill="none" stroke="#191970" d="M264.538,-408.5C274.6135,-408.5 284.8606,-408.5 294.8148,-408.5"/>
<polygon fill="#191970" stroke="#191970" points="264.5369,-405.0001 254.5369,-408.5 264.5368,-412.0001 264.5369,-405.0001"/>
</g>
<!-- Node3&#45;&gt;Node4 -->
<g id="edge3" class="edge">
<title>Node3&#45;&gt;Node4</title>
<path fill="none" stroke="#191970" d="M383.2681,-426.88C401.9212,-452.2662 439.1049,-497.624 482,-521.5 488.4952,-525.1153 495.6384,-528.0432 502.9288,-530.4142"/>
<polygon fill="#191970" stroke="#191970" points="385.9329,-424.5902 377.2581,-418.5076 380.2463,-428.6723 385.9329,-424.5902"/>
</g>
<!-- Node6 -->
<g id="node6" class="node">
<title>Node6</title>
<g id="a_node6"><a xlink:href="../../db/d4c/classBJetModule.html#a93ec29147c2d7aea52780d7370141e74" target="_top" xlink:title="BJetModule::process\l_event">
<polygon fill="none" stroke="#000000" points="506,-428.5 506,-460.5 625,-460.5 625,-428.5 506,-428.5"/>
<text text-anchor="start" x="514" y="-447.5" font-family="FreeSans" font-size="10.00" fill="#000000">BJetModule::process</text>
<text text-anchor="middle" x="565.5" y="-435.5" font-family="FreeSans" font-size="10.00" fill="#000000">_event</text>
</a>
</g>
</g>
<!-- Node3&#45;&gt;Node6 -->
<g id="edge5" class="edge">
<title>Node3&#45;&gt;Node6</title>
<path fill="none" stroke="#191970" d="M434.7568,-420.3628C457.5956,-424.5792 483.1988,-429.3059 505.6538,-433.4515"/>
<polygon fill="#191970" stroke="#191970" points="435.2876,-416.9017 424.8184,-418.528 434.0168,-423.7854 435.2876,-416.9017"/>
</g>
<!-- Node7 -->
<g id="node7" class="node">
<title>Node7</title>
<g id="a_node7"><a xlink:href="../../d4/d28/classQAG4SimulationJet.html#a3e5c5fe2e5e5cee7fca6173ef6e6bfa2" target="_top" xlink:title="QAG4SimulationJet::\lprocess_TruthMatching">
<polygon fill="none" stroke="#000000" points="685,-338.5 685,-370.5 817,-370.5 817,-338.5 685,-338.5"/>
<text text-anchor="start" x="693" y="-357.5" font-family="FreeSans" font-size="10.00" fill="#000000">QAG4SimulationJet::</text>
<text text-anchor="middle" x="751" y="-345.5" font-family="FreeSans" font-size="10.00" fill="#000000">process_TruthMatching</text>
</a>
</g>
</g>
<!-- Node3&#45;&gt;Node7 -->
<g id="edge6" class="edge">
<title>Node3&#45;&gt;Node7</title>
<path fill="none" stroke="#191970" d="M456.382,-403.1955C511.6702,-398.962 584.9175,-391.8234 649,-380.5 663.8465,-377.8766 679.7172,-374.2439 694.4101,-370.5247"/>
<polygon fill="#191970" stroke="#191970" points="455.9843,-399.7154 446.2737,-403.9525 456.5072,-406.6958 455.9843,-399.7154"/>
</g>
<!-- Node3&#45;&gt;Node9 -->
<g id="edge8" class="edge">
<title>Node3&#45;&gt;Node9</title>
<path fill="none" stroke="#191970" d="M394.9071,-424.1035C416.9927,-437.7232 450.7509,-457.3178 482,-470.5 489.6684,-473.7349 497.896,-476.7337 506.0885,-479.4486"/>
<polygon fill="#191970" stroke="#191970" points="396.5345,-420.9935 386.1979,-418.6684 392.8285,-426.932 396.5345,-420.9935"/>
</g>
<!-- Node3&#45;&gt;Node11 -->
<g id="edge10" class="edge">
<title>Node3&#45;&gt;Node11</title>
<path fill="none" stroke="#191970" d="M389.3424,-391.9593C410.5589,-374.086 446.6985,-345.8425 482,-328.5 489.3342,-324.8969 497.2896,-321.7016 505.2778,-318.9022"/>
<polygon fill="#191970" stroke="#191970" points="387.044,-389.3195 381.719,-398.479 391.5937,-394.6393 387.044,-389.3195"/>
</g>
<!-- Node3&#45;&gt;Node12 -->
<g id="edge12" class="edge">
<title>Node3&#45;&gt;Node12</title>
<path fill="none" stroke="#191970" d="M416.4004,-395.7891C443.6686,-388.2379 478.5008,-378.5921 507.6399,-370.5228"/>
<polygon fill="#191970" stroke="#191970" points="415.4242,-392.4276 406.721,-398.4696 417.2924,-399.1738 415.4242,-392.4276"/>
</g>
<!-- Node5 -->
<g id="node5" class="node">
<title>Node5</title>
<g id="a_node5"><a xlink:href="../../d8/de2/classJetEnergies.html#a6acaa9b2ba1fe7353781d2f5d476e8d1" target="_top" xlink:title="JetEnergies::process\l_event">
<polygon fill="none" stroke="#000000" points="691,-527.5 691,-559.5 811,-559.5 811,-527.5 691,-527.5"/>
<text text-anchor="start" x="699" y="-546.5" font-family="FreeSans" font-size="10.00" fill="#000000">JetEnergies::process</text>
<text text-anchor="middle" x="751" y="-534.5" font-family="FreeSans" font-size="10.00" fill="#000000">_event</text>
</a>
</g>
</g>
<!-- Node4&#45;&gt;Node5 -->
<g id="edge4" class="edge">
<title>Node4&#45;&gt;Node5</title>
<path fill="none" stroke="#191970" d="M659.3276,-542.0174C670.087,-542.1914 680.8271,-542.3651 690.9686,-542.5291"/>
<polygon fill="#191970" stroke="#191970" points="659.0801,-538.5131 649.0248,-541.8508 658.9669,-545.5121 659.0801,-538.5131"/>
</g>
<!-- Node8 -->
<g id="node8" class="node">
<title>Node8</title>
<g id="a_node8"><a xlink:href="../../d4/d28/classQAG4SimulationJet.html#a98c3c0fb4d213ada3475e8fb9895bc29" target="_top" xlink:title="QAG4SimulationJet::\lprocess_event">
<polygon fill="none" stroke="#000000" points="853,-338.5 853,-370.5 971,-370.5 971,-338.5 853,-338.5"/>
<text text-anchor="start" x="861" y="-357.5" font-family="FreeSans" font-size="10.00" fill="#000000">QAG4SimulationJet::</text>
<text text-anchor="middle" x="912" y="-345.5" font-family="FreeSans" font-size="10.00" fill="#000000">process_event</text>
</a>
</g>
</g>
<!-- Node7&#45;&gt;Node8 -->
<g id="edge7" class="edge">
<title>Node7&#45;&gt;Node8</title>
<path fill="none" stroke="#191970" d="M827.4292,-354.5C836.0044,-354.5 844.6413,-354.5 852.9495,-354.5"/>
<polygon fill="#191970" stroke="#191970" points="827.4144,-351.0001 817.4144,-354.5 827.4143,-358.0001 827.4144,-351.0001"/>
</g>
<!-- Node10 -->
<g id="node10" class="node">
<title>Node10</title>
<g id="a_node10"><a xlink:href="../../d1/df4/classJetEvaluator.html#ad83508ae828d1f2e4a83a948465a0cd2" target="_top" xlink:title="JetEvaluator::process\l_event">
<polygon fill="none" stroke="#000000" points="689,-476.5 689,-508.5 813,-508.5 813,-476.5 689,-476.5"/>
<text text-anchor="start" x="697" y="-495.5" font-family="FreeSans" font-size="10.00" fill="#000000">JetEvaluator::process</text>
<text text-anchor="middle" x="751" y="-483.5" font-family="FreeSans" font-size="10.00" fill="#000000">_event</text>
</a>
</g>
</g>
<!-- Node9&#45;&gt;Node10 -->
<g id="edge9" class="edge">
<title>Node9&#45;&gt;Node10</title>
<path fill="none" stroke="#191970" d="M642.3008,-494.2579C657.8233,-494.0069 673.9604,-493.7459 688.9017,-493.5043"/>
<polygon fill="#191970" stroke="#191970" points="642.1497,-490.7598 632.2077,-494.4212 642.263,-497.7589 642.1497,-490.7598"/>
</g>
<!-- Node11&#45;&gt;Node7 -->
<g id="edge11" class="edge">
<title>Node11&#45;&gt;Node7</title>
<path fill="none" stroke="#191970" d="M633.5923,-322.2208C652.9345,-327.5386 673.8195,-333.2806 692.5364,-338.4264"/>
<polygon fill="#191970" stroke="#191970" points="634.5088,-318.843 623.9387,-319.5667 632.6531,-325.5925 634.5088,-318.843"/>
</g>
<!-- Node12&#45;&gt;Node7 -->
<g id="edge13" class="edge">
<title>Node12&#45;&gt;Node7</title>
<path fill="none" stroke="#191970" d="M636.1133,-354.5C652.158,-354.5 669.1414,-354.5 684.9865,-354.5"/>
<polygon fill="#191970" stroke="#191970" points="635.7266,-351.0001 625.7265,-354.5 635.7265,-358.0001 635.7266,-351.0001"/>
</g>
<!-- Node13&#45;&gt;Node14 -->
<g id="edge17" class="edge">
<title>Node13&#45;&gt;Node14</title>
<path fill="none" stroke="#191970" d="M258.4844,-268.1C277.5659,-263.5688 297.6143,-258.808 315.3914,-254.5865"/>
<polygon fill="#191970" stroke="#191970" points="257.5321,-264.7287 248.6113,-270.4445 259.1494,-271.5394 257.5321,-264.7287"/>
</g>
<!-- Node15&#45;&gt;Node14 -->
<g id="edge19" class="edge">
<title>Node15&#45;&gt;Node14</title>
<path fill="none" stroke="#191970" d="M258.4844,-214.9C277.5659,-219.4312 297.6143,-224.192 315.3914,-228.4135"/>
<polygon fill="#191970" stroke="#191970" points="259.1494,-211.4606 248.6113,-212.5555 257.5321,-218.2713 259.1494,-211.4606"/>
</g>
</g>
</svg>
