<?xml version="1.0" encoding="UTF-8" standalone="no"?>
<!DOCTYPE svg PUBLIC "-//W3C//DTD SVG 1.1//EN"
 "http://www.w3.org/Graphics/SVG/1.1/DTD/svg11.dtd">
<!-- Generated by graphviz version 2.40.1 (20161225.0304)
 -->
<!-- Title: Jet::get_e Pages: 1 -->
<svg width="493pt" height="734pt"
 viewBox="0.00 0.00 493.00 734.00" xmlns="http://www.w3.org/2000/svg" xmlns:xlink="http://www.w3.org/1999/xlink">
<g id="graph0" class="graph" transform="scale(1 1) rotate(0) translate(4 730)">
<title>Jet::get_e</title>
<!-- Node1 -->
<g id="node1" class="node">
<title>Node1</title>
<polygon fill="#bfbfbf" stroke="#000000" points="0,-379.5 0,-399.5 64,-399.5 64,-379.5 0,-379.5"/>
<text text-anchor="middle" x="32" y="-386.5" font-family="FreeSans" font-size="10.00" fill="#000000">Jet::get_e</text>
</g>
<!-- Node2 -->
<g id="node2" class="node">
<title>Node2</title>
<g id="a_node2"><a xlink:href="../../d6/d40/classLeptoquarksReco.html#aa251fa1881824e4f72051fe65e8bf459" target="_top" xlink:title="LeptoquarksReco::AddJetInformation">
<polygon fill="none" stroke="#000000" points="100,-696.5 100,-716.5 300,-716.5 300,-696.5 100,-696.5"/>
<text text-anchor="middle" x="200" y="-703.5" font-family="FreeSans" font-size="10.00" fill="#000000">LeptoquarksReco::AddJetInformation</text>
</a>
</g>
</g>
<!-- Node1&#45;&gt;Node2 -->
<g id="edge1" class="edge">
<title>Node1&#45;&gt;Node2</title>
<path fill="none" stroke="#191970" d="M33.8799,-409.7024C39.8785,-469.7545 60.5257,-645.4185 100,-684.5 104.9266,-689.3776 110.6731,-693.2797 116.8751,-696.3902"/>
<polygon fill="#191970" stroke="#191970" points="37.3492,-409.2157 32.9015,-399.5997 30.3818,-409.8905 37.3492,-409.2157"/>
</g>
<!-- Node4 -->
<g id="node4" class="node">
<title>Node4</title>
<g id="a_node4"><a xlink:href="../../d7/dce/classTreeMaker.html#a52bf12994bc1206706553ddef4a8e2ca" target="_top" xlink:title="TreeMaker::CopyAndMakeJets">
<polygon fill="none" stroke="#000000" points="117,-564.5 117,-584.5 283,-584.5 283,-564.5 117,-564.5"/>
<text text-anchor="middle" x="200" y="-571.5" font-family="FreeSans" font-size="10.00" fill="#000000">TreeMaker::CopyAndMakeJets</text>
</a>
</g>
</g>
<!-- Node1&#45;&gt;Node4 -->
<g id="edge3" class="edge">
<title>Node1&#45;&gt;Node4</title>
<path fill="none" stroke="#191970" d="M34.1293,-409.7315C38.9939,-445.1509 54.2934,-518.1681 100,-555.5 105.064,-559.6362 110.7532,-562.9736 116.7809,-565.6568"/>
<polygon fill="#191970" stroke="#191970" points="37.5836,-409.1447 32.8912,-399.6456 30.6358,-409.9976 37.5836,-409.1447"/>
</g>
<!-- Node6 -->
<g id="node6" class="node">
<title>Node6</title>
<g id="a_node6"><a xlink:href="../../d1/df4/classJetEvaluator.html#a0c608411c03ff1de3fca80d64e93ae5d" target="_top" xlink:title="dump the evaluator information into ntuple for external analysis">
<polygon fill="none" stroke="#000000" points="133.5,-642.5 133.5,-674.5 266.5,-674.5 266.5,-642.5 133.5,-642.5"/>
<text text-anchor="start" x="141.5" y="-661.5" font-family="FreeSans" font-size="10.00" fill="#000000">JetEvaluator::fillOutput</text>
<text text-anchor="middle" x="200" y="-649.5" font-family="FreeSans" font-size="10.00" fill="#000000">Ntuples</text>
</a>
</g>
</g>
<!-- Node1&#45;&gt;Node6 -->
<g id="edge5" class="edge">
<title>Node1&#45;&gt;Node6</title>
<path fill="none" stroke="#191970" d="M35.0117,-409.896C43.2065,-462.6794 67.4889,-601.8491 100,-633.5 109.1681,-642.4255 121.0156,-648.3154 133.3307,-652.1692"/>
<polygon fill="#191970" stroke="#191970" points="38.4326,-409.1101 33.4708,-399.749 31.5119,-410.1611 38.4326,-409.1101"/>
</g>
<!-- Node8 -->
<g id="node8" class="node">
<title>Node8</title>
<g id="a_node8"><a xlink:href="../../d8/de2/classJetEnergies.html#a065fee78622ed073cafb5cf172d67bef" target="_top" xlink:title="dump the evaluator information into ntuple for external analysis">
<polygon fill="none" stroke="#000000" points="116.5,-603.5 116.5,-623.5 283.5,-623.5 283.5,-603.5 116.5,-603.5"/>
<text text-anchor="middle" x="200" y="-610.5" font-family="FreeSans" font-size="10.00" fill="#000000">JetEnergies::fillOutputNtuples</text>
</a>
</g>
</g>
<!-- Node1&#45;&gt;Node8 -->
<g id="edge7" class="edge">
<title>Node1&#45;&gt;Node8</title>
<path fill="none" stroke="#191970" d="M35.9565,-409.4902C45.5684,-456.0205 71.466,-569.5173 100,-594.5 104.9194,-598.8072 110.5058,-602.2662 116.4635,-605.0322"/>
<polygon fill="#191970" stroke="#191970" points="39.383,-408.7758 33.9658,-399.6706 32.5225,-410.1667 39.383,-408.7758"/>
</g>
<!-- Node10 -->
<g id="node10" class="node">
<title>Node10</title>
<g id="a_node10"><a xlink:href="../../d6/d77/classFastJetAlgoSub.html#aedbf3469337244550d98d847a4a755a8" target="_top" xlink:title="FastJetAlgoSub::get_jets">
<polygon fill="none" stroke="#000000" points="131,-525.5 131,-545.5 269,-545.5 269,-525.5 131,-525.5"/>
<text text-anchor="middle" x="200" y="-532.5" font-family="FreeSans" font-size="10.00" fill="#000000">FastJetAlgoSub::get_jets</text>
</a>
</g>
</g>
<!-- Node1&#45;&gt;Node10 -->
<g id="edge9" class="edge">
<title>Node1&#45;&gt;Node10</title>
<path fill="none" stroke="#191970" d="M36.827,-409.3855C44.8377,-437.8881 63.7157,-489.8505 100,-516.5 109.0442,-523.1427 119.7544,-527.6589 130.7476,-530.695"/>
<polygon fill="#191970" stroke="#191970" points="40.2102,-408.4885 34.2753,-399.7119 33.4417,-410.2739 40.2102,-408.4885"/>
</g>
<!-- Node11 -->
<g id="node11" class="node">
<title>Node11</title>
<g id="a_node11"><a xlink:href="../../dc/d65/classPhotonJet.html#a9b2de7dcbd5e3bbbd26150d418b7bb44" target="_top" xlink:title="PhotonJet::GetRecoHadrons\lAndJets">
<polygon fill="none" stroke="#000000" points="122,-396.5 122,-428.5 278,-428.5 278,-396.5 122,-396.5"/>
<text text-anchor="start" x="130" y="-415.5" font-family="FreeSans" font-size="10.00" fill="#000000">PhotonJet::GetRecoHadrons</text>
<text text-anchor="middle" x="200" y="-403.5" font-family="FreeSans" font-size="10.00" fill="#000000">AndJets</text>
</a>
</g>
</g>
<!-- Node1&#45;&gt;Node11 -->
<g id="edge10" class="edge">
<title>Node1&#45;&gt;Node11</title>
<path fill="none" stroke="#191970" d="M74.4567,-395.3125C88.8554,-397.2838 105.4305,-399.553 121.7177,-401.7828"/>
<polygon fill="#191970" stroke="#191970" points="74.7744,-391.8235 64.3921,-393.9346 73.8249,-398.7588 74.7744,-391.8235"/>
</g>
<!-- Node12 -->
<g id="node12" class="node">
<title>Node12</title>
<g id="a_node12"><a xlink:href="../../dc/d65/classPhotonJet.html#a3f9d3ec941f851bc2246ceb0c5362c9f" target="_top" xlink:title="PhotonJet::process\l_event">
<polygon fill="none" stroke="#000000" points="355.5,-351.5 355.5,-383.5 465.5,-383.5 465.5,-351.5 355.5,-351.5"/>
<text text-anchor="start" x="363.5" y="-370.5" font-family="FreeSans" font-size="10.00" fill="#000000">PhotonJet::process</text>
<text text-anchor="middle" x="410.5" y="-358.5" font-family="FreeSans" font-size="10.00" fill="#000000">_event</text>
</a>
</g>
</g>
<!-- Node1&#45;&gt;Node12 -->
<g id="edge20" class="edge">
<title>Node1&#45;&gt;Node12</title>
<path fill="none" stroke="#191970" d="M74.3168,-387.0404C143.1142,-383.0416 279.1818,-375.1328 355.4249,-370.7012"/>
<polygon fill="#191970" stroke="#191970" points="74.0507,-383.5498 64.2707,-387.6243 74.457,-390.538 74.0507,-383.5498"/>
</g>
<!-- Node13 -->
<g id="node13" class="node">
<title>Node13</title>
<g id="a_node13"><a xlink:href="../../dc/d65/classPhotonJet.html#a2c1adc79085fbbe9d27254d016321804" target="_top" xlink:title="PhotonJet::GetRecoHadrons\lAndJetsAA">
<polygon fill="none" stroke="#000000" points="122,-306.5 122,-338.5 278,-338.5 278,-306.5 122,-306.5"/>
<text text-anchor="start" x="130" y="-325.5" font-family="FreeSans" font-size="10.00" fill="#000000">PhotonJet::GetRecoHadrons</text>
<text text-anchor="middle" x="200" y="-313.5" font-family="FreeSans" font-size="10.00" fill="#000000">AndJetsAA</text>
</a>
</g>
</g>
<!-- Node1&#45;&gt;Node13 -->
<g id="edge12" class="edge">
<title>Node1&#45;&gt;Node13</title>
<path fill="none" stroke="#191970" d="M57.8179,-374.3714C70.2965,-367.4409 85.6482,-359.4624 100,-353.5 113.2604,-347.991 127.8596,-342.93 141.7086,-338.565"/>
<polygon fill="#191970" stroke="#191970" points="55.8804,-371.4462 48.8997,-379.4162 59.3269,-377.539 55.8804,-371.4462"/>
</g>
<!-- Node14 -->
<g id="node14" class="node">
<title>Node14</title>
<g id="a_node14"><a xlink:href="../../d7/dce/classTreeMaker.html#a52a597a7a6509616228576eac6383301" target="_top" xlink:title="TreeMaker::GetRecoJets">
<polygon fill="none" stroke="#000000" points="132,-486.5 132,-506.5 268,-506.5 268,-486.5 132,-486.5"/>
<text text-anchor="middle" x="200" y="-493.5" font-family="FreeSans" font-size="10.00" fill="#000000">TreeMaker::GetRecoJets</text>
</a>
</g>
</g>
<!-- Node1&#45;&gt;Node14 -->
<g id="edge14" class="edge">
<title>Node1&#45;&gt;Node14</title>
<path fill="none" stroke="#191970" d="M41.3752,-408.6377C52.4468,-429.0984 72.8463,-460.8394 100,-477.5 109.64,-483.4148 120.71,-487.5596 131.8925,-490.4499"/>
<polygon fill="#191970" stroke="#191970" points="44.4085,-406.884 36.7006,-399.615 38.1931,-410.1041 44.4085,-406.884"/>
</g>
<!-- Node15 -->
<g id="node15" class="node">
<title>Node15</title>
<g id="a_node15"><a xlink:href="../../d7/dce/classTreeMaker.html#a256b6f8b0e6f110256c630b0bad83efb" target="_top" xlink:title="TreeMaker::GetTruthJets">
<polygon fill="none" stroke="#000000" points="131.5,-447.5 131.5,-467.5 268.5,-467.5 268.5,-447.5 131.5,-447.5"/>
<text text-anchor="middle" x="200" y="-454.5" font-family="FreeSans" font-size="10.00" fill="#000000">TreeMaker::GetTruthJets</text>
</a>
</g>
</g>
<!-- Node1&#45;&gt;Node15 -->
<g id="edge16" class="edge">
<title>Node1&#45;&gt;Node15</title>
<path fill="none" stroke="#191970" d="M50.7836,-406.5122C63.7189,-417.3085 81.7967,-430.6728 100,-438.5 109.8219,-442.7233 120.5865,-446.0116 131.2997,-448.5709"/>
<polygon fill="#191970" stroke="#191970" points="52.9369,-403.7476 43.0761,-399.8724 48.368,-409.051 52.9369,-403.7476"/>
</g>
<!-- Node16 -->
<g id="node16" class="node">
<title>Node16</title>
<g id="a_node16"><a xlink:href="../../d3/d26/classCopyAndSubtractJets.html#aa7469769625a7718d5d28b57faf8b663" target="_top" xlink:title="CopyAndSubtractJets\l::process_event">
<polygon fill="none" stroke="#000000" points="138.5,-255.5 138.5,-287.5 261.5,-287.5 261.5,-255.5 138.5,-255.5"/>
<text text-anchor="start" x="146.5" y="-274.5" font-family="FreeSans" font-size="10.00" fill="#000000">CopyAndSubtractJets</text>
<text text-anchor="middle" x="200" y="-262.5" font-family="FreeSans" font-size="10.00" fill="#000000">::process_event</text>
</a>
</g>
</g>
<!-- Node1&#45;&gt;Node16 -->
<g id="edge18" class="edge">
<title>Node1&#45;&gt;Node16</title>
<path fill="none" stroke="#191970" d="M41.0537,-370.4609C52.0497,-349.4098 72.5824,-316.03 100,-297.5 111.444,-289.7657 125.0507,-284.3318 138.4837,-280.5143"/>
<polygon fill="#191970" stroke="#191970" points="37.9115,-368.919 36.5574,-379.427 44.1688,-372.0569 37.9115,-368.919"/>
</g>
<!-- Node17 -->
<g id="node17" class="node">
<title>Node17</title>
<g id="a_node17"><a xlink:href="../../d9/de3/classTruthPhotonJet.html#ae476c9aba33cf8d9161947519d293f5c" target="_top" xlink:title="TruthPhotonJet::process\l_event">
<polygon fill="none" stroke="#000000" points="131.5,-204.5 131.5,-236.5 268.5,-236.5 268.5,-204.5 131.5,-204.5"/>
<text text-anchor="start" x="139.5" y="-223.5" font-family="FreeSans" font-size="10.00" fill="#000000">TruthPhotonJet::process</text>
<text text-anchor="middle" x="200" y="-211.5" font-family="FreeSans" font-size="10.00" fill="#000000">_event</text>
</a>
</g>
</g>
<!-- Node1&#45;&gt;Node17 -->
<g id="edge19" class="edge">
<title>Node1&#45;&gt;Node17</title>
<path fill="none" stroke="#191970" d="M35.92,-369.3049C43.0434,-338.1543 61.1219,-278.6296 100,-246.5 109.057,-239.0151 120.0258,-233.6583 131.3351,-229.8306"/>
<polygon fill="#191970" stroke="#191970" points="32.4311,-368.8848 33.7731,-379.3943 39.2778,-370.3418 32.4311,-368.8848"/>
</g>
<!-- Node18 -->
<g id="node18" class="node">
<title>Node18</title>
<g id="a_node18"><a xlink:href="../../d5/d1f/classMyJetAnalysis.html#a309e9a46394353251b673514d6eb28ac" target="_top" xlink:title="MyJetAnalysis::process\l_event">
<polygon fill="none" stroke="#000000" points="134.5,-153.5 134.5,-185.5 265.5,-185.5 265.5,-153.5 134.5,-153.5"/>
<text text-anchor="start" x="142.5" y="-172.5" font-family="FreeSans" font-size="10.00" fill="#000000">MyJetAnalysis::process</text>
<text text-anchor="middle" x="200" y="-160.5" font-family="FreeSans" font-size="10.00" fill="#000000">_event</text>
</a>
</g>
</g>
<!-- Node1&#45;&gt;Node18 -->
<g id="edge21" class="edge">
<title>Node1&#45;&gt;Node18</title>
<path fill="none" stroke="#191970" d="M33.0559,-369.2961C36.2371,-329.8745 48.9845,-242.4587 100,-195.5 109.5687,-186.6922 121.738,-180.7879 134.2675,-176.8489"/>
<polygon fill="#191970" stroke="#191970" points="29.5638,-369.0616 32.377,-379.2761 36.5477,-369.5367 29.5638,-369.0616"/>
</g>
<!-- Node19 -->
<g id="node19" class="node">
<title>Node19</title>
<g id="a_node19"><a xlink:href="../../d4/d28/classQAG4SimulationJet.html#ac2803dd2fafe7d6131f3311c9f1e4e27" target="_top" xlink:title="QAG4SimulationJet::\lprocess_Spectrum">
<polygon fill="none" stroke="#000000" points="141,-102.5 141,-134.5 259,-134.5 259,-102.5 141,-102.5"/>
<text text-anchor="start" x="149" y="-121.5" font-family="FreeSans" font-size="10.00" fill="#000000">QAG4SimulationJet::</text>
<text text-anchor="middle" x="200" y="-109.5" font-family="FreeSans" font-size="10.00" fill="#000000">process_Spectrum</text>
</a>
</g>
</g>
<!-- Node1&#45;&gt;Node19 -->
<g id="edge22" class="edge">
<title>Node1&#45;&gt;Node19</title>
<path fill="none" stroke="#191970" d="M35.0165,-369.0385C43.2231,-316.083 67.5316,-176.4413 100,-144.5 110.9974,-133.6811 125.8913,-127.197 140.8227,-123.3561"/>
<polygon fill="#191970" stroke="#191970" points="31.5118,-368.8068 33.4733,-379.2184 38.4327,-369.856 31.5118,-368.8068"/>
</g>
<!-- Node21 -->
<g id="node21" class="node">
<title>Node21</title>
<g id="a_node21"><a xlink:href="../../d0/dc8/classSoftLeptonTaggingTruth.html#a3989ff17a01ba304478d558b99c3214f" target="_top" xlink:title="SoftLeptonTaggingTruth\l::process_Spectrum">
<polygon fill="none" stroke="#000000" points="132.5,-.5 132.5,-32.5 267.5,-32.5 267.5,-.5 132.5,-.5"/>
<text text-anchor="start" x="140.5" y="-19.5" font-family="FreeSans" font-size="10.00" fill="#000000">SoftLeptonTaggingTruth</text>
<text text-anchor="middle" x="200" y="-7.5" font-family="FreeSans" font-size="10.00" fill="#000000">::process_Spectrum</text>
</a>
</g>
</g>
<!-- Node1&#45;&gt;Node21 -->
<g id="edge24" class="edge">
<title>Node1&#45;&gt;Node21</title>
<path fill="none" stroke="#191970" d="M33.1645,-369.3284C37.434,-302.4467 54.4264,-89.5076 100,-41.5 108.6861,-32.35 120.172,-26.3437 132.257,-22.4434"/>
<polygon fill="#191970" stroke="#191970" points="29.665,-369.2144 32.5482,-379.4093 36.652,-369.6416 29.665,-369.2144"/>
</g>
<!-- Node23 -->
<g id="node23" class="node">
<title>Node23</title>
<g id="a_node23"><a xlink:href="../../d4/d28/classQAG4SimulationJet.html#a3e5c5fe2e5e5cee7fca6173ef6e6bfa2" target="_top" xlink:title="QAG4SimulationJet::\lprocess_TruthMatching">
<polygon fill="none" stroke="#000000" points="134,-51.5 134,-83.5 266,-83.5 266,-51.5 134,-51.5"/>
<text text-anchor="start" x="142" y="-70.5" font-family="FreeSans" font-size="10.00" fill="#000000">QAG4SimulationJet::</text>
<text text-anchor="middle" x="200" y="-58.5" font-family="FreeSans" font-size="10.00" fill="#000000">process_TruthMatching</text>
</a>
</g>
</g>
<!-- Node1&#45;&gt;Node23 -->
<g id="edge26" class="edge">
<title>Node1&#45;&gt;Node23</title>
<path fill="none" stroke="#191970" d="M33.9378,-369.2974C40.1002,-309.2347 61.1618,-133.4635 100,-93.5 109.1264,-84.1092 121.1793,-77.9599 133.7476,-73.9671"/>
<polygon fill="#191970" stroke="#191970" points="30.4399,-369.1034 32.9313,-379.4012 37.4054,-369.7974 30.4399,-369.1034"/>
</g>
<!-- Node3 -->
<g id="node3" class="node">
<title>Node3</title>
<g id="a_node3"><a xlink:href="../../d6/d40/classLeptoquarksReco.html#aa5b8ff9665c7a78246bd4f1194d66d1b" target="_top" xlink:title="LeptoquarksReco::process\l_event">
<polygon fill="none" stroke="#000000" points="336,-693.5 336,-725.5 485,-725.5 485,-693.5 336,-693.5"/>
<text text-anchor="start" x="344" y="-712.5" font-family="FreeSans" font-size="10.00" fill="#000000">LeptoquarksReco::process</text>
<text text-anchor="middle" x="410.5" y="-700.5" font-family="FreeSans" font-size="10.00" fill="#000000">_event</text>
</a>
</g>
</g>
<!-- Node2&#45;&gt;Node3 -->
<g id="edge2" class="edge">
<title>Node2&#45;&gt;Node3</title>
<path fill="none" stroke="#191970" d="M310.2211,-708.0708C318.9139,-708.1947 327.5614,-708.318 335.9257,-708.4372"/>
<polygon fill="#191970" stroke="#191970" points="310.0589,-704.5683 300.01,-707.9253 309.9591,-711.5676 310.0589,-704.5683"/>
</g>
<!-- Node5 -->
<g id="node5" class="node">
<title>Node5</title>
<g id="a_node5"><a xlink:href="../../d7/dce/classTreeMaker.html#a89a6f3a23de784d5f8d86ae91956aa69" target="_top" xlink:title="TreeMaker::process\l_event">
<polygon fill="none" stroke="#000000" points="353.5,-480.5 353.5,-512.5 467.5,-512.5 467.5,-480.5 353.5,-480.5"/>
<text text-anchor="start" x="361.5" y="-499.5" font-family="FreeSans" font-size="10.00" fill="#000000">TreeMaker::process</text>
<text text-anchor="middle" x="410.5" y="-487.5" font-family="FreeSans" font-size="10.00" fill="#000000">_event</text>
</a>
</g>
</g>
<!-- Node4&#45;&gt;Node5 -->
<g id="edge4" class="edge">
<title>Node4&#45;&gt;Node5</title>
<path fill="none" stroke="#191970" d="M277.9137,-562.0983C285.4603,-560.1818 292.9315,-557.9932 300,-555.5 330.9685,-544.5768 363.8486,-526.0126 385.6107,-512.6216"/>
<polygon fill="#191970" stroke="#191970" points="276.8948,-558.7429 267.9772,-564.4637 278.5159,-565.5526 276.8948,-558.7429"/>
</g>
<!-- Node7 -->
<g id="node7" class="node">
<title>Node7</title>
<g id="a_node7"><a xlink:href="../../d1/df4/classJetEvaluator.html#ad83508ae828d1f2e4a83a948465a0cd2" target="_top" xlink:title="JetEvaluator::process\l_event">
<polygon fill="none" stroke="#000000" points="348.5,-642.5 348.5,-674.5 472.5,-674.5 472.5,-642.5 348.5,-642.5"/>
<text text-anchor="start" x="356.5" y="-661.5" font-family="FreeSans" font-size="10.00" fill="#000000">JetEvaluator::process</text>
<text text-anchor="middle" x="410.5" y="-649.5" font-family="FreeSans" font-size="10.00" fill="#000000">_event</text>
</a>
</g>
</g>
<!-- Node6&#45;&gt;Node7 -->
<g id="edge6" class="edge">
<title>Node6&#45;&gt;Node7</title>
<path fill="none" stroke="#191970" d="M276.8787,-658.5C300.3629,-658.5 325.8836,-658.5 348.2685,-658.5"/>
<polygon fill="#191970" stroke="#191970" points="276.6035,-655.0001 266.6035,-658.5 276.6035,-662.0001 276.6035,-655.0001"/>
</g>
<!-- Node9 -->
<g id="node9" class="node">
<title>Node9</title>
<g id="a_node9"><a xlink:href="../../d8/de2/classJetEnergies.html#a6acaa9b2ba1fe7353781d2f5d476e8d1" target="_top" xlink:title="JetEnergies::process\l_event">
<polygon fill="none" stroke="#000000" points="350.5,-591.5 350.5,-623.5 470.5,-623.5 470.5,-591.5 350.5,-591.5"/>
<text text-anchor="start" x="358.5" y="-610.5" font-family="FreeSans" font-size="10.00" fill="#000000">JetEnergies::process</text>
<text text-anchor="middle" x="410.5" y="-598.5" font-family="FreeSans" font-size="10.00" fill="#000000">_event</text>
</a>
</g>
</g>
<!-- Node8&#45;&gt;Node9 -->
<g id="edge8" class="edge">
<title>Node8&#45;&gt;Node9</title>
<path fill="none" stroke="#191970" d="M294.0436,-610.8194C313.1595,-610.2746 332.7742,-609.7155 350.3266,-609.2152"/>
<polygon fill="#191970" stroke="#191970" points="293.6962,-607.3278 283.8,-611.1114 293.8957,-614.325 293.6962,-607.3278"/>
</g>
<!-- Node11&#45;&gt;Node12 -->
<g id="edge11" class="edge">
<title>Node11&#45;&gt;Node12</title>
<path fill="none" stroke="#191970" d="M285.1372,-394.2996C308.7836,-389.2446 333.8368,-383.8888 355.2796,-379.3048"/>
<polygon fill="#191970" stroke="#191970" points="284.1512,-390.9313 275.1038,-396.4445 285.6146,-397.7766 284.1512,-390.9313"/>
</g>
<!-- Node13&#45;&gt;Node12 -->
<g id="edge13" class="edge">
<title>Node13&#45;&gt;Node12</title>
<path fill="none" stroke="#191970" d="M285.1372,-340.7004C308.7836,-345.7554 333.8368,-351.1112 355.2796,-355.6952"/>
<polygon fill="#191970" stroke="#191970" points="285.6146,-337.2234 275.1038,-338.5555 284.1512,-344.0687 285.6146,-337.2234"/>
</g>
<!-- Node14&#45;&gt;Node5 -->
<g id="edge15" class="edge">
<title>Node14&#45;&gt;Node5</title>
<path fill="none" stroke="#191970" d="M278.2006,-496.5C303.0891,-496.5 330.1423,-496.5 353.2618,-496.5"/>
<polygon fill="#191970" stroke="#191970" points="278.0527,-493.0001 268.0526,-496.5 278.0526,-500.0001 278.0527,-493.0001"/>
</g>
<!-- Node15&#45;&gt;Node5 -->
<g id="edge17" class="edge">
<title>Node15&#45;&gt;Node5</title>
<path fill="none" stroke="#191970" d="M264.4106,-469.4336C292.7253,-474.6795 325.7071,-480.7902 353.1603,-485.8765"/>
<polygon fill="#191970" stroke="#191970" points="264.6793,-465.9238 254.209,-467.5435 263.404,-472.8067 264.6793,-465.9238"/>
</g>
<!-- Node20 -->
<g id="node20" class="node">
<title>Node20</title>
<g id="a_node20"><a xlink:href="../../d4/d28/classQAG4SimulationJet.html#a98c3c0fb4d213ada3475e8fb9895bc29" target="_top" xlink:title="QAG4SimulationJet::\lprocess_event">
<polygon fill="none" stroke="#000000" points="351.5,-77.5 351.5,-109.5 469.5,-109.5 469.5,-77.5 351.5,-77.5"/>
<text text-anchor="start" x="359.5" y="-96.5" font-family="FreeSans" font-size="10.00" fill="#000000">QAG4SimulationJet::</text>
<text text-anchor="middle" x="410.5" y="-84.5" font-family="FreeSans" font-size="10.00" fill="#000000">process_event</text>
</a>
</g>
</g>
<!-- Node19&#45;&gt;Node20 -->
<g id="edge23" class="edge">
<title>Node19&#45;&gt;Node20</title>
<path fill="none" stroke="#191970" d="M269.1946,-110.2821C295.7719,-107.1257 325.8381,-103.5549 351.3838,-100.5209"/>
<polygon fill="#191970" stroke="#191970" points="268.7136,-106.8146 259.1962,-111.4696 269.5392,-113.7657 268.7136,-106.8146"/>
</g>
<!-- Node22 -->
<g id="node22" class="node">
<title>Node22</title>
<g id="a_node22"><a xlink:href="../../d0/dc8/classSoftLeptonTaggingTruth.html#a152a3015fe9e7c089637c981a45787fe" target="_top" xlink:title="SoftLeptonTaggingTruth\l::process_event">
<polygon fill="none" stroke="#000000" points="343,-.5 343,-32.5 478,-32.5 478,-.5 343,-.5"/>
<text text-anchor="start" x="351" y="-19.5" font-family="FreeSans" font-size="10.00" fill="#000000">SoftLeptonTaggingTruth</text>
<text text-anchor="middle" x="410.5" y="-7.5" font-family="FreeSans" font-size="10.00" fill="#000000">::process_event</text>
</a>
</g>
</g>
<!-- Node21&#45;&gt;Node22 -->
<g id="edge25" class="edge">
<title>Node21&#45;&gt;Node22</title>
<path fill="none" stroke="#191970" d="M277.7742,-16.5C299.1366,-16.5 322.1228,-16.5 342.8648,-16.5"/>
<polygon fill="#191970" stroke="#191970" points="277.7622,-13.0001 267.7622,-16.5 277.7622,-20.0001 277.7622,-13.0001"/>
</g>
<!-- Node23&#45;&gt;Node20 -->
<g id="edge27" class="edge">
<title>Node23&#45;&gt;Node20</title>
<path fill="none" stroke="#191970" d="M276.1345,-76.9038C300.9525,-79.9692 328.1147,-83.3241 351.4823,-86.2104"/>
<polygon fill="#191970" stroke="#191970" points="276.3796,-73.4075 266.026,-75.6552 275.5215,-80.3548 276.3796,-73.4075"/>
</g>
</g>
</svg>
