<?xml version="1.0" encoding="UTF-8" standalone="no"?>
<!DOCTYPE svg PUBLIC "-//W3C//DTD SVG 1.1//EN"
 "http://www.w3.org/Graphics/SVG/1.1/DTD/svg11.dtd">
<!-- Generated by graphviz version 2.40.1 (20161225.0304)
 -->
<!-- Title: Jet::get_px Pages: 1 -->
<svg width="452pt" height="368pt"
 viewBox="0.00 0.00 452.00 368.00" xmlns="http://www.w3.org/2000/svg" xmlns:xlink="http://www.w3.org/1999/xlink">
<g id="graph0" class="graph" transform="scale(1 1) rotate(0) translate(4 364)">
<title>Jet::get_px</title>
<!-- Node1 -->
<g id="node1" class="node">
<title>Node1</title>
<polygon fill="#bfbfbf" stroke="#000000" points="0,-181.5 0,-201.5 71,-201.5 71,-181.5 0,-181.5"/>
<text text-anchor="middle" x="35.5" y="-188.5" font-family="FreeSans" font-size="10.00" fill="#000000">Jet::get_px</text>
</g>
<!-- Node2 -->
<g id="node2" class="node">
<title>Node2</title>
<g id="a_node2"><a xlink:href="../../d7/dce/classTreeMaker.html#a52bf12994bc1206706553ddef4a8e2ca" target="_top" xlink:title="TreeMaker::CopyAndMakeJets">
<polygon fill="none" stroke="#000000" points="107,-333.5 107,-353.5 273,-353.5 273,-333.5 107,-333.5"/>
<text text-anchor="middle" x="190" y="-340.5" font-family="FreeSans" font-size="10.00" fill="#000000">TreeMaker::CopyAndMakeJets</text>
</a>
</g>
</g>
<!-- Node1&#45;&gt;Node2 -->
<g id="edge1" class="edge">
<title>Node1&#45;&gt;Node2</title>
<path fill="none" stroke="#191970" d="M40.6133,-211.7046C49.1703,-241.226 69.2856,-295.7529 107,-324.5 111.7026,-328.0845 116.9621,-331.0127 122.4895,-333.4022"/>
<polygon fill="#191970" stroke="#191970" points="43.8977,-210.4453 37.8871,-201.7204 37.1449,-212.2893 43.8977,-210.4453"/>
</g>
<!-- Node4 -->
<g id="node4" class="node">
<title>Node4</title>
<g id="a_node4"><a xlink:href="../../d6/d77/classFastJetAlgoSub.html#aedbf3469337244550d98d847a4a755a8" target="_top" xlink:title="FastJetAlgoSub::get_jets">
<polygon fill="none" stroke="#000000" points="121,-294.5 121,-314.5 259,-314.5 259,-294.5 121,-294.5"/>
<text text-anchor="middle" x="190" y="-301.5" font-family="FreeSans" font-size="10.00" fill="#000000">FastJetAlgoSub::get_jets</text>
</a>
</g>
</g>
<!-- Node1&#45;&gt;Node4 -->
<g id="edge3" class="edge">
<title>Node1&#45;&gt;Node4</title>
<path fill="none" stroke="#191970" d="M44.7273,-210.4775C56.2445,-232.0859 78.0108,-266.8049 107,-285.5 112.5904,-289.1052 118.7801,-292.0301 125.1856,-294.4024"/>
<polygon fill="#191970" stroke="#191970" points="47.8421,-208.881 40.1678,-201.5765 41.6119,-212.0725 47.8421,-208.881"/>
</g>
<!-- Node5 -->
<g id="node5" class="node">
<title>Node5</title>
<g id="a_node5"><a xlink:href="../../dc/d65/classPhotonJet.html#a9b2de7dcbd5e3bbbd26150d418b7bb44" target="_top" xlink:title="PhotonJet::GetRecoHadrons\lAndJets">
<polygon fill="none" stroke="#000000" points="112,-243.5 112,-275.5 268,-275.5 268,-243.5 112,-243.5"/>
<text text-anchor="start" x="120" y="-262.5" font-family="FreeSans" font-size="10.00" fill="#000000">PhotonJet::GetRecoHadrons</text>
<text text-anchor="middle" x="190" y="-250.5" font-family="FreeSans" font-size="10.00" fill="#000000">AndJets</text>
</a>
</g>
</g>
<!-- Node1&#45;&gt;Node5 -->
<g id="edge4" class="edge">
<title>Node1&#45;&gt;Node5</title>
<path fill="none" stroke="#191970" d="M62.4623,-206.4269C75.6981,-213.5024 91.9899,-221.842 107,-228.5 118.8111,-233.739 131.8074,-238.8776 143.9395,-243.4175"/>
<polygon fill="#191970" stroke="#191970" points="63.8878,-203.2188 53.4267,-201.5404 60.5578,-209.3761 63.8878,-203.2188"/>
</g>
<!-- Node6 -->
<g id="node6" class="node">
<title>Node6</title>
<g id="a_node6"><a xlink:href="../../dc/d65/classPhotonJet.html#a3f9d3ec941f851bc2246ceb0c5362c9f" target="_top" xlink:title="PhotonJet::process\l_event">
<polygon fill="none" stroke="#000000" points="321.5,-198.5 321.5,-230.5 431.5,-230.5 431.5,-198.5 321.5,-198.5"/>
<text text-anchor="start" x="329.5" y="-217.5" font-family="FreeSans" font-size="10.00" fill="#000000">PhotonJet::process</text>
<text text-anchor="middle" x="376.5" y="-205.5" font-family="FreeSans" font-size="10.00" fill="#000000">_event</text>
</a>
</g>
</g>
<!-- Node1&#45;&gt;Node6 -->
<g id="edge10" class="edge">
<title>Node1&#45;&gt;Node6</title>
<path fill="none" stroke="#191970" d="M81.3224,-194.5907C143.5711,-198.7893 254.7259,-206.2865 321.4335,-210.7858"/>
<polygon fill="#191970" stroke="#191970" points="81.2409,-191.0773 71.028,-193.8963 80.7697,-198.0614 81.2409,-191.0773"/>
</g>
<!-- Node7 -->
<g id="node7" class="node">
<title>Node7</title>
<g id="a_node7"><a xlink:href="../../dc/d65/classPhotonJet.html#a2c1adc79085fbbe9d27254d016321804" target="_top" xlink:title="PhotonJet::GetRecoHadrons\lAndJetsAA">
<polygon fill="none" stroke="#000000" points="112,-153.5 112,-185.5 268,-185.5 268,-153.5 112,-153.5"/>
<text text-anchor="start" x="120" y="-172.5" font-family="FreeSans" font-size="10.00" fill="#000000">PhotonJet::GetRecoHadrons</text>
<text text-anchor="middle" x="190" y="-160.5" font-family="FreeSans" font-size="10.00" fill="#000000">AndJetsAA</text>
</a>
</g>
</g>
<!-- Node1&#45;&gt;Node7 -->
<g id="edge6" class="edge">
<title>Node1&#45;&gt;Node7</title>
<path fill="none" stroke="#191970" d="M81.4445,-184.9577C91.0784,-183.5859 101.494,-182.1028 111.9296,-180.6168"/>
<polygon fill="#191970" stroke="#191970" points="80.7404,-181.5226 71.3337,-186.3975 81.7273,-188.4527 80.7404,-181.5226"/>
</g>
<!-- Node8 -->
<g id="node8" class="node">
<title>Node8</title>
<g id="a_node8"><a xlink:href="../../d3/d26/classCopyAndSubtractJets.html#aa7469769625a7718d5d28b57faf8b663" target="_top" xlink:title="CopyAndSubtractJets\l::process_event">
<polygon fill="none" stroke="#000000" points="128.5,-102.5 128.5,-134.5 251.5,-134.5 251.5,-102.5 128.5,-102.5"/>
<text text-anchor="start" x="136.5" y="-121.5" font-family="FreeSans" font-size="10.00" fill="#000000">CopyAndSubtractJets</text>
<text text-anchor="middle" x="190" y="-109.5" font-family="FreeSans" font-size="10.00" fill="#000000">::process_event</text>
</a>
</g>
</g>
<!-- Node1&#45;&gt;Node8 -->
<g id="edge8" class="edge">
<title>Node1&#45;&gt;Node8</title>
<path fill="none" stroke="#191970" d="M56.8257,-175.2113C70.5755,-165.2959 89.1609,-152.9538 107,-144.5 114.7779,-140.8141 123.207,-137.4806 131.6118,-134.5253"/>
<polygon fill="#191970" stroke="#191970" points="54.5202,-172.5625 48.5448,-181.3115 58.6719,-178.1983 54.5202,-172.5625"/>
</g>
<!-- Node9 -->
<g id="node9" class="node">
<title>Node9</title>
<g id="a_node9"><a xlink:href="../../d9/de3/classTruthPhotonJet.html#ae476c9aba33cf8d9161947519d293f5c" target="_top" xlink:title="TruthPhotonJet::process\l_event">
<polygon fill="none" stroke="#000000" points="121.5,-51.5 121.5,-83.5 258.5,-83.5 258.5,-51.5 121.5,-51.5"/>
<text text-anchor="start" x="129.5" y="-70.5" font-family="FreeSans" font-size="10.00" fill="#000000">TruthPhotonJet::process</text>
<text text-anchor="middle" x="190" y="-58.5" font-family="FreeSans" font-size="10.00" fill="#000000">_event</text>
</a>
</g>
</g>
<!-- Node1&#45;&gt;Node9 -->
<g id="edge9" class="edge">
<title>Node1&#45;&gt;Node9</title>
<path fill="none" stroke="#191970" d="M44.7958,-172.1221C56.3776,-149.9789 78.2048,-114.1454 107,-93.5 112.2769,-89.7166 118.1228,-86.4706 124.1977,-83.6883"/>
<polygon fill="#191970" stroke="#191970" points="41.5813,-170.7237 40.2071,-181.229 47.8326,-173.8735 41.5813,-170.7237"/>
</g>
<!-- Node10 -->
<g id="node10" class="node">
<title>Node10</title>
<g id="a_node10"><a xlink:href="../../d0/dc8/classSoftLeptonTaggingTruth.html#a3989ff17a01ba304478d558b99c3214f" target="_top" xlink:title="SoftLeptonTaggingTruth\l::process_Spectrum">
<polygon fill="none" stroke="#000000" points="122.5,-.5 122.5,-32.5 257.5,-32.5 257.5,-.5 122.5,-.5"/>
<text text-anchor="start" x="130.5" y="-19.5" font-family="FreeSans" font-size="10.00" fill="#000000">SoftLeptonTaggingTruth</text>
<text text-anchor="middle" x="190" y="-7.5" font-family="FreeSans" font-size="10.00" fill="#000000">::process_Spectrum</text>
</a>
</g>
</g>
<!-- Node1&#45;&gt;Node10 -->
<g id="edge11" class="edge">
<title>Node1&#45;&gt;Node10</title>
<path fill="none" stroke="#191970" d="M39.5824,-171.3948C47.1609,-139.2295 66.464,-76.2908 107,-41.5 111.5679,-37.5795 116.7348,-34.2738 122.2018,-31.4865"/>
<polygon fill="#191970" stroke="#191970" points="36.1135,-170.8726 37.3752,-181.392 42.9488,-172.3818 36.1135,-170.8726"/>
</g>
<!-- Node3 -->
<g id="node3" class="node">
<title>Node3</title>
<g id="a_node3"><a xlink:href="../../d7/dce/classTreeMaker.html#a89a6f3a23de784d5f8d86ae91956aa69" target="_top" xlink:title="TreeMaker::process\l_event">
<polygon fill="none" stroke="#000000" points="319.5,-327.5 319.5,-359.5 433.5,-359.5 433.5,-327.5 319.5,-327.5"/>
<text text-anchor="start" x="327.5" y="-346.5" font-family="FreeSans" font-size="10.00" fill="#000000">TreeMaker::process</text>
<text text-anchor="middle" x="376.5" y="-334.5" font-family="FreeSans" font-size="10.00" fill="#000000">_event</text>
</a>
</g>
</g>
<!-- Node2&#45;&gt;Node3 -->
<g id="edge2" class="edge">
<title>Node2&#45;&gt;Node3</title>
<path fill="none" stroke="#191970" d="M283.4587,-343.5C295.7406,-343.5 308.0177,-343.5 319.4377,-343.5"/>
<polygon fill="#191970" stroke="#191970" points="283.1595,-340.0001 273.1594,-343.5 283.1594,-347.0001 283.1595,-340.0001"/>
</g>
<!-- Node5&#45;&gt;Node6 -->
<g id="edge5" class="edge">
<title>Node5&#45;&gt;Node6</title>
<path fill="none" stroke="#191970" d="M266.3694,-241.0731C284.7941,-236.6274 304.1284,-231.9623 321.3643,-227.8035"/>
<polygon fill="#191970" stroke="#191970" points="265.441,-237.6966 256.5409,-243.4445 267.0829,-244.5013 265.441,-237.6966"/>
</g>
<!-- Node7&#45;&gt;Node6 -->
<g id="edge7" class="edge">
<title>Node7&#45;&gt;Node6</title>
<path fill="none" stroke="#191970" d="M266.3694,-187.9269C284.7941,-192.3726 304.1284,-197.0377 321.3643,-201.1965"/>
<polygon fill="#191970" stroke="#191970" points="267.0829,-184.4987 256.5409,-185.5555 265.441,-191.3034 267.0829,-184.4987"/>
</g>
<!-- Node11 -->
<g id="node11" class="node">
<title>Node11</title>
<g id="a_node11"><a xlink:href="../../d0/dc8/classSoftLeptonTaggingTruth.html#a152a3015fe9e7c089637c981a45787fe" target="_top" xlink:title="SoftLeptonTaggingTruth\l::process_event">
<polygon fill="none" stroke="#000000" points="309,-.5 309,-32.5 444,-32.5 444,-.5 309,-.5"/>
<text text-anchor="start" x="317" y="-19.5" font-family="FreeSans" font-size="10.00" fill="#000000">SoftLeptonTaggingTruth</text>
<text text-anchor="middle" x="376.5" y="-7.5" font-family="FreeSans" font-size="10.00" fill="#000000">::process_event</text>
</a>
</g>
</g>
<!-- Node10&#45;&gt;Node11 -->
<g id="edge12" class="edge">
<title>Node10&#45;&gt;Node11</title>
<path fill="none" stroke="#191970" d="M267.8854,-16.5C281.483,-16.5 295.5288,-16.5 308.8231,-16.5"/>
<polygon fill="#191970" stroke="#191970" points="267.5945,-13.0001 257.5945,-16.5 267.5944,-20.0001 267.5945,-13.0001"/>
</g>
</g>
</svg>
