<?xml version="1.0" encoding="UTF-8" standalone="no"?>
<!DOCTYPE svg PUBLIC "-//W3C//DTD SVG 1.1//EN"
 "http://www.w3.org/Graphics/SVG/1.1/DTD/svg11.dtd">
<!-- Generated by graphviz version 2.40.1 (20161225.0304)
 -->
<!-- Title: PHG4ParticleGenerator::set_z_range Pages: 1 -->
<svg width="344pt" height="467pt"
 viewBox="0.00 0.00 344.00 467.00" xmlns="http://www.w3.org/2000/svg" xmlns:xlink="http://www.w3.org/1999/xlink">
<g id="graph0" class="graph" transform="scale(1 1) rotate(0) translate(4 463)">
<title>PHG4ParticleGenerator::set_z_range</title>
<!-- Node1 -->
<g id="node1" class="node">
<title>Node1</title>
<polygon fill="#bfbfbf" stroke="#000000" points="0,-225.5 0,-257.5 133,-257.5 133,-225.5 0,-225.5"/>
<text text-anchor="start" x="8" y="-244.5" font-family="FreeSans" font-size="10.00" fill="#000000">PHG4ParticleGenerator</text>
<text text-anchor="middle" x="66.5" y="-232.5" font-family="FreeSans" font-size="10.00" fill="#000000">::set_z_range</text>
</g>
<!-- Node2 -->
<g id="node2" class="node">
<title>Node2</title>
<g id="a_node2"><a xlink:href="../../d2/d47/Fun4All__EICAnalysis__DVCS_8C.html#a84f48142243e969fd353cc8509f0ba22" target="_top" xlink:title="Fun4All_EICAnalysis_DVCS">
<polygon fill="none" stroke="#000000" points="177.5,-438.5 177.5,-458.5 327.5,-458.5 327.5,-438.5 177.5,-438.5"/>
<text text-anchor="middle" x="252.5" y="-445.5" font-family="FreeSans" font-size="10.00" fill="#000000">Fun4All_EICAnalysis_DVCS</text>
</a>
</g>
</g>
<!-- Node1&#45;&gt;Node2 -->
<g id="edge1" class="edge">
<title>Node1&#45;&gt;Node2</title>
<path fill="none" stroke="#191970" d="M73.1419,-267.35C85.0792,-308.3867 114.1829,-388.0276 169,-429.5 173.7425,-433.088 179.0415,-436.0186 184.6074,-438.4096"/>
<polygon fill="#191970" stroke="#191970" points="76.4693,-266.2521 70.4091,-257.5616 69.7271,-268.1345 76.4693,-266.2521"/>
</g>
<!-- Node3 -->
<g id="node3" class="node">
<title>Node3</title>
<g id="a_node3"><a xlink:href="../../da/d02/Fun4All__G4__EICDetector_8C.html#afbe82cefa1d1fd031d9a8586b7bb68c6" target="_top" xlink:title="Fun4All_G4_EICDetector">
<polygon fill="none" stroke="#000000" points="183,-399.5 183,-419.5 322,-419.5 322,-399.5 183,-399.5"/>
<text text-anchor="middle" x="252.5" y="-406.5" font-family="FreeSans" font-size="10.00" fill="#000000">Fun4All_G4_EICDetector</text>
</a>
</g>
</g>
<!-- Node1&#45;&gt;Node3 -->
<g id="edge2" class="edge">
<title>Node1&#45;&gt;Node3</title>
<path fill="none" stroke="#191970" d="M76.9624,-267.1662C92.0904,-300.9145 123.3551,-359.5413 169,-390.5 174.2907,-394.0884 180.1599,-397.0074 186.264,-399.3806"/>
<polygon fill="#191970" stroke="#191970" points="80.1525,-265.7254 72.9558,-257.9499 73.7329,-268.5162 80.1525,-265.7254"/>
</g>
<!-- Node4 -->
<g id="node4" class="node">
<title>Node4</title>
<g id="a_node4"><a xlink:href="../../dd/d2a/Fun4All__G4__EICDetector__LQ_8C.html#aaa01242fd6e77ca43a9d49a6d46008e4" target="_top" xlink:title="Fun4All_G4_EICDetector_LQ">
<polygon fill="none" stroke="#000000" points="174.5,-360.5 174.5,-380.5 330.5,-380.5 330.5,-360.5 174.5,-360.5"/>
<text text-anchor="middle" x="252.5" y="-367.5" font-family="FreeSans" font-size="10.00" fill="#000000">Fun4All_G4_EICDetector_LQ</text>
</a>
</g>
</g>
<!-- Node1&#45;&gt;Node4 -->
<g id="edge3" class="edge">
<title>Node1&#45;&gt;Node4</title>
<path fill="none" stroke="#191970" d="M82.7177,-266.1925C100.7272,-291.5781 132.1669,-330.3027 169,-351.5 175.3139,-355.1336 182.27,-358.0724 189.391,-360.4491"/>
<polygon fill="#191970" stroke="#191970" points="85.491,-264.0493 76.9208,-257.8201 79.7358,-268.0341 85.491,-264.0493"/>
</g>
<!-- Node5 -->
<g id="node5" class="node">
<title>Node5</title>
<g id="a_node5"><a xlink:href="../../d4/df5/Fun4All__G4__EICDetector__LQ__reference_8C.html#a2feefc472f17f90b3cbe74897d049f75" target="_top" xlink:title="Fun4All_G4_EICDetector\l_LQ_reference">
<polygon fill="none" stroke="#000000" points="183,-309.5 183,-341.5 322,-341.5 322,-309.5 183,-309.5"/>
<text text-anchor="start" x="191" y="-328.5" font-family="FreeSans" font-size="10.00" fill="#000000">Fun4All_G4_EICDetector</text>
<text text-anchor="middle" x="252.5" y="-316.5" font-family="FreeSans" font-size="10.00" fill="#000000">_LQ_reference</text>
</a>
</g>
</g>
<!-- Node1&#45;&gt;Node5 -->
<g id="edge4" class="edge">
<title>Node1&#45;&gt;Node5</title>
<path fill="none" stroke="#191970" d="M99.4881,-263.1066C119.0984,-275.2766 144.7962,-290.078 169,-300.5 176.5052,-303.7317 184.5595,-306.7124 192.5972,-309.4042"/>
<polygon fill="#191970" stroke="#191970" points="101.2617,-260.0874 90.9335,-257.7253 97.5344,-266.0126 101.2617,-260.0874"/>
</g>
<!-- Node6 -->
<g id="node6" class="node">
<title>Node6</title>
<g id="a_node6"><a xlink:href="../../d3/d51/Fun4All__G4__EICDetector__RICH_8C.html#a5739502b0a7a1ba782c01069f77e933f" target="_top" xlink:title="Fun4All_G4_EICDetector_RICH">
<polygon fill="none" stroke="#000000" points="169,-270.5 169,-290.5 336,-290.5 336,-270.5 169,-270.5"/>
<text text-anchor="middle" x="252.5" y="-277.5" font-family="FreeSans" font-size="10.00" fill="#000000">Fun4All_G4_EICDetector_RICH</text>
</a>
</g>
</g>
<!-- Node1&#45;&gt;Node6 -->
<g id="edge5" class="edge">
<title>Node1&#45;&gt;Node6</title>
<path fill="none" stroke="#191970" d="M142.9519,-257.5302C163.8549,-261.9131 185.9103,-266.5376 204.7089,-270.4793"/>
<polygon fill="#191970" stroke="#191970" points="143.6304,-254.0965 133.1249,-255.4697 142.1938,-260.9475 143.6304,-254.0965"/>
</g>
<!-- Node7 -->
<g id="node7" class="node">
<title>Node7</title>
<g id="a_node7"><a xlink:href="../../d5/d2c/macros_2blob_2master_2macros_2g4simulations_2Fun4All__G4__sPHENIX_8C.html#a6eaaa492d7023ec86c562dc63aa1e5a4" target="_top" xlink:title="Fun4All_G4_sPHENIX">
<polygon fill="none" stroke="#000000" points="192,-231.5 192,-251.5 313,-251.5 313,-231.5 192,-231.5"/>
<text text-anchor="middle" x="252.5" y="-238.5" font-family="FreeSans" font-size="10.00" fill="#000000">Fun4All_G4_sPHENIX</text>
</a>
</g>
</g>
<!-- Node1&#45;&gt;Node7 -->
<g id="edge6" class="edge">
<title>Node1&#45;&gt;Node7</title>
<path fill="none" stroke="#191970" d="M143.1407,-241.5C159.3994,-241.5 176.3469,-241.5 191.9103,-241.5"/>
<polygon fill="#191970" stroke="#191970" points="143.1249,-238.0001 133.1249,-241.5 143.1249,-245.0001 143.1249,-238.0001"/>
</g>
<!-- Node8 -->
<g id="node8" class="node">
<title>Node8</title>
<g id="a_node8"><a xlink:href="../../da/dd0/Fun4All__G4__sPHENIX__photonjet_8C.html#a6f18519e216acc05399e562ea57ea77c" target="_top" xlink:title="Fun4All_G4_sPHENIX\l_photonjet">
<polygon fill="none" stroke="#000000" points="192,-180.5 192,-212.5 313,-212.5 313,-180.5 192,-180.5"/>
<text text-anchor="start" x="200" y="-199.5" font-family="FreeSans" font-size="10.00" fill="#000000">Fun4All_G4_sPHENIX</text>
<text text-anchor="middle" x="252.5" y="-187.5" font-family="FreeSans" font-size="10.00" fill="#000000">_photonjet</text>
</a>
</g>
</g>
<!-- Node1&#45;&gt;Node8 -->
<g id="edge7" class="edge">
<title>Node1&#45;&gt;Node8</title>
<path fill="none" stroke="#191970" d="M142.8887,-223.0189C159.1669,-219.0806 176.1468,-214.9725 191.7455,-211.1987"/>
<polygon fill="#191970" stroke="#191970" points="141.7591,-219.6911 132.8625,-225.4445 143.4052,-226.4948 141.7591,-219.6911"/>
</g>
<!-- Node9 -->
<g id="node9" class="node">
<title>Node9</title>
<g id="a_node9"><a xlink:href="../../da/d85/Fun4All__G4__sPHENIX__photons_8C.html#a02fbbd59878fe1299f58ed187e7214ba" target="_top" xlink:title="Fun4All_G4_sPHENIX\l_photons">
<polygon fill="none" stroke="#000000" points="192,-129.5 192,-161.5 313,-161.5 313,-129.5 192,-129.5"/>
<text text-anchor="start" x="200" y="-148.5" font-family="FreeSans" font-size="10.00" fill="#000000">Fun4All_G4_sPHENIX</text>
<text text-anchor="middle" x="252.5" y="-136.5" font-family="FreeSans" font-size="10.00" fill="#000000">_photons</text>
</a>
</g>
</g>
<!-- Node1&#45;&gt;Node9 -->
<g id="edge8" class="edge">
<title>Node1&#45;&gt;Node9</title>
<path fill="none" stroke="#191970" d="M94.2095,-219.2142C114.0842,-204.0938 142.0114,-184.5542 169,-171.5 176.6541,-167.7977 184.9552,-164.4711 193.2539,-161.5328"/>
<polygon fill="#191970" stroke="#191970" points="91.9857,-216.5093 86.211,-225.3921 96.2647,-222.0493 91.9857,-216.5093"/>
</g>
<!-- Node10 -->
<g id="node10" class="node">
<title>Node10</title>
<g id="a_node10"><a xlink:href="../../de/d55/Fun4All__G4__sPHENIX__truthphotonjet_8C.html#a48a6f4503eaa1b3793d8ae572aa795b9" target="_top" xlink:title="Fun4All_G4_sPHENIX\l_truthphotonjet">
<polygon fill="none" stroke="#000000" points="192,-78.5 192,-110.5 313,-110.5 313,-78.5 192,-78.5"/>
<text text-anchor="start" x="200" y="-97.5" font-family="FreeSans" font-size="10.00" fill="#000000">Fun4All_G4_sPHENIX</text>
<text text-anchor="middle" x="252.5" y="-85.5" font-family="FreeSans" font-size="10.00" fill="#000000">_truthphotonjet</text>
</a>
</g>
</g>
<!-- Node1&#45;&gt;Node10 -->
<g id="edge9" class="edge">
<title>Node1&#45;&gt;Node10</title>
<path fill="none" stroke="#191970" d="M81.4026,-216.6105C99.0291,-189.2296 130.8477,-145.7655 169,-120.5 175.9624,-115.8893 183.7873,-112.0597 191.7828,-108.8883"/>
<polygon fill="#191970" stroke="#191970" points="78.3424,-214.902 75.9803,-225.2301 84.2676,-218.6293 78.3424,-214.902"/>
</g>
<!-- Node11 -->
<g id="node11" class="node">
<title>Node11</title>
<g id="a_node11"><a xlink:href="../../d4/dfa/Fun4All__Generator__Display_8C.html#af87924a94b22e18901f0d64805565f09" target="_top" xlink:title="Fun4All_Generator_Display">
<polygon fill="none" stroke="#000000" points="176.5,-39.5 176.5,-59.5 328.5,-59.5 328.5,-39.5 176.5,-39.5"/>
<text text-anchor="middle" x="252.5" y="-46.5" font-family="FreeSans" font-size="10.00" fill="#000000">Fun4All_Generator_Display</text>
</a>
</g>
</g>
<!-- Node1&#45;&gt;Node11 -->
<g id="edge10" class="edge">
<title>Node1&#45;&gt;Node11</title>
<path fill="none" stroke="#191970" d="M74.6913,-215.4516C88.0696,-177.3148 118.3222,-106.7795 169,-69.5 174.5235,-65.4368 180.758,-62.1881 187.2697,-59.5923"/>
<polygon fill="#191970" stroke="#191970" points="71.2507,-214.7002 71.3624,-225.2945 77.8817,-216.9429 71.2507,-214.7002"/>
</g>
<!-- Node12 -->
<g id="node12" class="node">
<title>Node12</title>
<g id="a_node12"><a xlink:href="../../d4/d65/Fun4All__single__particle_8C.html#a8a492b5dbead494bfdddbebde8a49b0e" target="_top" xlink:title="Fun4All_single_particle">
<polygon fill="none" stroke="#000000" points="186.5,-.5 186.5,-20.5 318.5,-20.5 318.5,-.5 186.5,-.5"/>
<text text-anchor="middle" x="252.5" y="-7.5" font-family="FreeSans" font-size="10.00" fill="#000000">Fun4All_single_particle</text>
</a>
</g>
</g>
<!-- Node1&#45;&gt;Node12 -->
<g id="edge11" class="edge">
<title>Node1&#45;&gt;Node12</title>
<path fill="none" stroke="#191970" d="M71.5804,-215.5131C81.764,-170.6053 109.0413,-78.6737 169,-30.5 174.2292,-26.2986 180.2001,-22.9563 186.4904,-20.3008"/>
<polygon fill="#191970" stroke="#191970" points="68.1437,-214.8466 69.4527,-225.3602 74.9858,-216.325 68.1437,-214.8466"/>
</g>
</g>
</svg>
