<?xml version="1.0" encoding="UTF-8" standalone="no"?>
<!DOCTYPE svg PUBLIC "-//W3C//DTD SVG 1.1//EN"
 "http://www.w3.org/Graphics/SVG/1.1/DTD/svg11.dtd">
<!-- Generated by graphviz version 2.40.1 (20161225.0304)
 -->
<!-- Title: PHG4ParticleGenerator::set_phi_range Pages: 1 -->
<svg width="344pt" height="623pt"
 viewBox="0.00 0.00 344.00 623.00" xmlns="http://www.w3.org/2000/svg" xmlns:xlink="http://www.w3.org/1999/xlink">
<g id="graph0" class="graph" transform="scale(1 1) rotate(0) translate(4 619)">
<title>PHG4ParticleGenerator::set_phi_range</title>
<!-- Node1 -->
<g id="node1" class="node">
<title>Node1</title>
<polygon fill="#bfbfbf" stroke="#000000" points="0,-303.5 0,-335.5 133,-335.5 133,-303.5 0,-303.5"/>
<text text-anchor="start" x="8" y="-322.5" font-family="FreeSans" font-size="10.00" fill="#000000">PHG4ParticleGenerator</text>
<text text-anchor="middle" x="66.5" y="-310.5" font-family="FreeSans" font-size="10.00" fill="#000000">::set_phi_range</text>
</g>
<!-- Node2 -->
<g id="node2" class="node">
<title>Node2</title>
<g id="a_node2"><a xlink:href="../../d2/d47/Fun4All__EICAnalysis__DVCS_8C.html#a84f48142243e969fd353cc8509f0ba22" target="_top" xlink:title="Fun4All_EICAnalysis_DVCS">
<polygon fill="none" stroke="#000000" points="177.5,-594.5 177.5,-614.5 327.5,-614.5 327.5,-594.5 177.5,-594.5"/>
<text text-anchor="middle" x="252.5" y="-601.5" font-family="FreeSans" font-size="10.00" fill="#000000">Fun4All_EICAnalysis_DVCS</text>
</a>
</g>
</g>
<!-- Node1&#45;&gt;Node2 -->
<g id="edge1" class="edge">
<title>Node1&#45;&gt;Node2</title>
<path fill="none" stroke="#191970" d="M68.6231,-345.6441C74.4341,-399.2414 95.477,-521.8736 169,-585.5 173.1595,-589.0996 177.8609,-592.0556 182.8607,-594.4789"/>
<polygon fill="#191970" stroke="#191970" points="72.0961,-345.1974 67.6268,-335.5914 65.1302,-345.8879 72.0961,-345.1974"/>
</g>
<!-- Node3 -->
<g id="node3" class="node">
<title>Node3</title>
<g id="a_node3"><a xlink:href="../../d2/dee/Fun4All__G4__Cylinder_8C.html#a271dc4f10f6f77107705e0efef0c97e5" target="_top" xlink:title="Fun4All_G4_Cylinder">
<polygon fill="none" stroke="#000000" points="192,-555.5 192,-575.5 313,-575.5 313,-555.5 192,-555.5"/>
<text text-anchor="middle" x="252.5" y="-562.5" font-family="FreeSans" font-size="10.00" fill="#000000">Fun4All_G4_Cylinder</text>
</a>
</g>
</g>
<!-- Node1&#45;&gt;Node3 -->
<g id="edge2" class="edge">
<title>Node1&#45;&gt;Node3</title>
<path fill="none" stroke="#191970" d="M70.5845,-345.7782C79.4382,-393.4787 105.0128,-494.2035 169,-546.5 175.6767,-551.9568 183.6141,-555.9163 191.8982,-558.7768"/>
<polygon fill="#191970" stroke="#191970" points="73.9824,-344.8907 68.8097,-335.6445 67.0874,-346.0984 73.9824,-344.8907"/>
</g>
<!-- Node4 -->
<g id="node4" class="node">
<title>Node4</title>
<g id="a_node4"><a xlink:href="../../da/d02/Fun4All__G4__EICDetector_8C.html#afbe82cefa1d1fd031d9a8586b7bb68c6" target="_top" xlink:title="Fun4All_G4_EICDetector">
<polygon fill="none" stroke="#000000" points="183,-516.5 183,-536.5 322,-536.5 322,-516.5 183,-516.5"/>
<text text-anchor="middle" x="252.5" y="-523.5" font-family="FreeSans" font-size="10.00" fill="#000000">Fun4All_G4_EICDetector</text>
</a>
</g>
</g>
<!-- Node1&#45;&gt;Node4 -->
<g id="edge3" class="edge">
<title>Node1&#45;&gt;Node4</title>
<path fill="none" stroke="#191970" d="M73.1419,-345.35C85.0792,-386.3867 114.1829,-466.0276 169,-507.5 173.7425,-511.088 179.0415,-514.0186 184.6074,-516.4096"/>
<polygon fill="#191970" stroke="#191970" points="76.4693,-344.2521 70.4091,-335.5616 69.7271,-346.1345 76.4693,-344.2521"/>
</g>
<!-- Node5 -->
<g id="node5" class="node">
<title>Node5</title>
<g id="a_node5"><a xlink:href="../../dd/d2a/Fun4All__G4__EICDetector__LQ_8C.html#aaa01242fd6e77ca43a9d49a6d46008e4" target="_top" xlink:title="Fun4All_G4_EICDetector_LQ">
<polygon fill="none" stroke="#000000" points="174.5,-477.5 174.5,-497.5 330.5,-497.5 330.5,-477.5 174.5,-477.5"/>
<text text-anchor="middle" x="252.5" y="-484.5" font-family="FreeSans" font-size="10.00" fill="#000000">Fun4All_G4_EICDetector_LQ</text>
</a>
</g>
</g>
<!-- Node1&#45;&gt;Node5 -->
<g id="edge4" class="edge">
<title>Node1&#45;&gt;Node5</title>
<path fill="none" stroke="#191970" d="M76.9624,-345.1662C92.0904,-378.9145 123.3551,-437.5413 169,-468.5 174.2907,-472.0884 180.1599,-475.0074 186.264,-477.3806"/>
<polygon fill="#191970" stroke="#191970" points="80.1525,-343.7254 72.9558,-335.9499 73.7329,-346.5162 80.1525,-343.7254"/>
</g>
<!-- Node6 -->
<g id="node6" class="node">
<title>Node6</title>
<g id="a_node6"><a xlink:href="../../d4/df5/Fun4All__G4__EICDetector__LQ__reference_8C.html#a2feefc472f17f90b3cbe74897d049f75" target="_top" xlink:title="Fun4All_G4_EICDetector\l_LQ_reference">
<polygon fill="none" stroke="#000000" points="183,-426.5 183,-458.5 322,-458.5 322,-426.5 183,-426.5"/>
<text text-anchor="start" x="191" y="-445.5" font-family="FreeSans" font-size="10.00" fill="#000000">Fun4All_G4_EICDetector</text>
<text text-anchor="middle" x="252.5" y="-433.5" font-family="FreeSans" font-size="10.00" fill="#000000">_LQ_reference</text>
</a>
</g>
</g>
<!-- Node1&#45;&gt;Node6 -->
<g id="edge5" class="edge">
<title>Node1&#45;&gt;Node6</title>
<path fill="none" stroke="#191970" d="M85.7321,-343.5177C104.7064,-365.71 135.6431,-398.0928 169,-417.5 174.7551,-420.8483 180.9985,-423.7842 187.3924,-426.3504"/>
<polygon fill="#191970" stroke="#191970" points="88.4071,-341.2605 79.3005,-335.8456 83.0427,-345.7575 88.4071,-341.2605"/>
</g>
<!-- Node7 -->
<g id="node7" class="node">
<title>Node7</title>
<g id="a_node7"><a xlink:href="../../d3/d51/Fun4All__G4__EICDetector__RICH_8C.html#a5739502b0a7a1ba782c01069f77e933f" target="_top" xlink:title="Fun4All_G4_EICDetector_RICH">
<polygon fill="none" stroke="#000000" points="169,-387.5 169,-407.5 336,-407.5 336,-387.5 169,-387.5"/>
<text text-anchor="middle" x="252.5" y="-394.5" font-family="FreeSans" font-size="10.00" fill="#000000">Fun4All_G4_EICDetector_RICH</text>
</a>
</g>
</g>
<!-- Node1&#45;&gt;Node7 -->
<g id="edge6" class="edge">
<title>Node1&#45;&gt;Node7</title>
<path fill="none" stroke="#191970" d="M98.449,-341.2169C118.0682,-353.692 144.1282,-368.7668 169,-378.5 177.9991,-382.0216 187.8114,-384.9799 197.4439,-387.4337"/>
<polygon fill="#191970" stroke="#191970" points="100.2128,-338.1894 89.9154,-335.6965 96.4107,-344.0668 100.2128,-338.1894"/>
</g>
<!-- Node8 -->
<g id="node8" class="node">
<title>Node8</title>
<g id="a_node8"><a xlink:href="../../d9/d8f/Fun4All__G4__Momentum_8C.html#afbd7a4eecd7792e9216ce80b5514123e" target="_top" xlink:title="Fun4All_G4_Momentum">
<polygon fill="none" stroke="#000000" points="185,-348.5 185,-368.5 320,-368.5 320,-348.5 185,-348.5"/>
<text text-anchor="middle" x="252.5" y="-355.5" font-family="FreeSans" font-size="10.00" fill="#000000">Fun4All_G4_Momentum</text>
</a>
</g>
</g>
<!-- Node1&#45;&gt;Node8 -->
<g id="edge7" class="edge">
<title>Node1&#45;&gt;Node8</title>
<path fill="none" stroke="#191970" d="M142.9519,-335.5302C163.8549,-339.9131 185.9103,-344.5376 204.7089,-348.4793"/>
<polygon fill="#191970" stroke="#191970" points="143.6304,-332.0965 133.1249,-333.4697 142.1938,-338.9475 143.6304,-332.0965"/>
</g>
<!-- Node9 -->
<g id="node9" class="node">
<title>Node9</title>
<g id="a_node9"><a xlink:href="../../d7/d40/Fun4All__G4__Prototype3_8C.html#a1201361263017b08a070777a0b90b27c" target="_top" xlink:title="Fun4All_G4_Prototype3">
<polygon fill="none" stroke="#000000" points="186,-309.5 186,-329.5 319,-329.5 319,-309.5 186,-309.5"/>
<text text-anchor="middle" x="252.5" y="-316.5" font-family="FreeSans" font-size="10.00" fill="#000000">Fun4All_G4_Prototype3</text>
</a>
</g>
</g>
<!-- Node1&#45;&gt;Node9 -->
<g id="edge8" class="edge">
<title>Node1&#45;&gt;Node9</title>
<path fill="none" stroke="#191970" d="M143.2708,-319.5C157.3553,-319.5 171.9522,-319.5 185.7151,-319.5"/>
<polygon fill="#191970" stroke="#191970" points="143.1249,-316.0001 133.1249,-319.5 143.1249,-323.0001 143.1249,-316.0001"/>
</g>
<!-- Node10 -->
<g id="node10" class="node">
<title>Node10</title>
<g id="a_node10"><a xlink:href="../../d4/d58/Fun4All__G4__Prototype4_8C.html#acac517f0728af658cbf99c7c9687c908" target="_top" xlink:title="Fun4All_G4_Prototype4">
<polygon fill="none" stroke="#000000" points="186,-270.5 186,-290.5 319,-290.5 319,-270.5 186,-270.5"/>
<text text-anchor="middle" x="252.5" y="-277.5" font-family="FreeSans" font-size="10.00" fill="#000000">Fun4All_G4_Prototype4</text>
</a>
</g>
</g>
<!-- Node1&#45;&gt;Node10 -->
<g id="edge9" class="edge">
<title>Node1&#45;&gt;Node10</title>
<path fill="none" stroke="#191970" d="M142.9519,-303.4698C163.8549,-299.0869 185.9103,-294.4624 204.7089,-290.5207"/>
<polygon fill="#191970" stroke="#191970" points="142.1938,-300.0525 133.1249,-305.5303 143.6304,-306.9035 142.1938,-300.0525"/>
</g>
<!-- Node11 -->
<g id="node11" class="node">
<title>Node11</title>
<g id="a_node11"><a xlink:href="../../d5/d2c/macros_2blob_2master_2macros_2g4simulations_2Fun4All__G4__sPHENIX_8C.html#a6eaaa492d7023ec86c562dc63aa1e5a4" target="_top" xlink:title="Fun4All_G4_sPHENIX">
<polygon fill="none" stroke="#000000" points="192,-231.5 192,-251.5 313,-251.5 313,-231.5 192,-231.5"/>
<text text-anchor="middle" x="252.5" y="-238.5" font-family="FreeSans" font-size="10.00" fill="#000000">Fun4All_G4_sPHENIX</text>
</a>
</g>
</g>
<!-- Node1&#45;&gt;Node11 -->
<g id="edge10" class="edge">
<title>Node1&#45;&gt;Node11</title>
<path fill="none" stroke="#191970" d="M98.9326,-298.0325C118.5373,-285.861 144.4169,-271.1769 169,-261.5 178.9868,-257.5688 189.9611,-254.2668 200.5773,-251.5512"/>
<polygon fill="#191970" stroke="#191970" points="96.9828,-295.1243 90.3938,-303.421 100.7186,-301.0441 96.9828,-295.1243"/>
</g>
<!-- Node12 -->
<g id="node12" class="node">
<title>Node12</title>
<g id="a_node12"><a xlink:href="../../da/dd0/Fun4All__G4__sPHENIX__photonjet_8C.html#a6f18519e216acc05399e562ea57ea77c" target="_top" xlink:title="Fun4All_G4_sPHENIX\l_photonjet">
<polygon fill="none" stroke="#000000" points="192,-180.5 192,-212.5 313,-212.5 313,-180.5 192,-180.5"/>
<text text-anchor="start" x="200" y="-199.5" font-family="FreeSans" font-size="10.00" fill="#000000">Fun4All_G4_sPHENIX</text>
<text text-anchor="middle" x="252.5" y="-187.5" font-family="FreeSans" font-size="10.00" fill="#000000">_photonjet</text>
</a>
</g>
</g>
<!-- Node1&#45;&gt;Node12 -->
<g id="edge11" class="edge">
<title>Node1&#45;&gt;Node12</title>
<path fill="none" stroke="#191970" d="M86.082,-295.529C105.1477,-273.6364 136.0071,-241.8244 169,-222.5 176.0746,-218.3563 183.88,-214.8038 191.7929,-211.7776"/>
<polygon fill="#191970" stroke="#191970" points="83.2041,-293.5095 79.3724,-303.3872 88.5276,-298.0549 83.2041,-293.5095"/>
</g>
<!-- Node13 -->
<g id="node13" class="node">
<title>Node13</title>
<g id="a_node13"><a xlink:href="../../da/d85/Fun4All__G4__sPHENIX__photons_8C.html#a02fbbd59878fe1299f58ed187e7214ba" target="_top" xlink:title="Fun4All_G4_sPHENIX\l_photons">
<polygon fill="none" stroke="#000000" points="192,-129.5 192,-161.5 313,-161.5 313,-129.5 192,-129.5"/>
<text text-anchor="start" x="200" y="-148.5" font-family="FreeSans" font-size="10.00" fill="#000000">Fun4All_G4_sPHENIX</text>
<text text-anchor="middle" x="252.5" y="-136.5" font-family="FreeSans" font-size="10.00" fill="#000000">_photons</text>
</a>
</g>
</g>
<!-- Node1&#45;&gt;Node13 -->
<g id="edge12" class="edge">
<title>Node1&#45;&gt;Node13</title>
<path fill="none" stroke="#191970" d="M77.8209,-293.5821C93.5677,-260.4953 125.168,-203.6921 169,-171.5 175.8528,-166.467 183.7032,-162.3918 191.7867,-159.0962"/>
<polygon fill="#191970" stroke="#191970" points="74.4697,-292.4901 73.4469,-303.0354 80.8226,-295.4295 74.4697,-292.4901"/>
</g>
<!-- Node14 -->
<g id="node14" class="node">
<title>Node14</title>
<g id="a_node14"><a xlink:href="../../de/d55/Fun4All__G4__sPHENIX__truthphotonjet_8C.html#a48a6f4503eaa1b3793d8ae572aa795b9" target="_top" xlink:title="Fun4All_G4_sPHENIX\l_truthphotonjet">
<polygon fill="none" stroke="#000000" points="192,-78.5 192,-110.5 313,-110.5 313,-78.5 192,-78.5"/>
<text text-anchor="start" x="200" y="-97.5" font-family="FreeSans" font-size="10.00" fill="#000000">Fun4All_G4_sPHENIX</text>
<text text-anchor="middle" x="252.5" y="-85.5" font-family="FreeSans" font-size="10.00" fill="#000000">_truthphotonjet</text>
</a>
</g>
</g>
<!-- Node1&#45;&gt;Node14 -->
<g id="edge13" class="edge">
<title>Node1&#45;&gt;Node14</title>
<path fill="none" stroke="#191970" d="M72.8424,-293.5765C84.5505,-251.1693 113.58,-167.0388 169,-120.5 175.6275,-114.9346 183.4433,-110.5586 191.5896,-107.1182"/>
<polygon fill="#191970" stroke="#191970" points="69.4148,-292.8477 70.2335,-303.4108 76.1807,-294.6427 69.4148,-292.8477"/>
</g>
<!-- Node15 -->
<g id="node15" class="node">
<title>Node15</title>
<g id="a_node15"><a xlink:href="../../d4/dfa/Fun4All__Generator__Display_8C.html#af87924a94b22e18901f0d64805565f09" target="_top" xlink:title="Fun4All_Generator_Display">
<polygon fill="none" stroke="#000000" points="176.5,-39.5 176.5,-59.5 328.5,-59.5 328.5,-39.5 176.5,-39.5"/>
<text text-anchor="middle" x="252.5" y="-46.5" font-family="FreeSans" font-size="10.00" fill="#000000">Fun4All_Generator_Display</text>
</a>
</g>
</g>
<!-- Node1&#45;&gt;Node15 -->
<g id="edge14" class="edge">
<title>Node1&#45;&gt;Node15</title>
<path fill="none" stroke="#191970" d="M69.4361,-293.2259C76.6026,-242.0371 99.8031,-128.7839 169,-69.5 173.7545,-65.4267 179.1964,-62.1515 184.9722,-59.5224"/>
<polygon fill="#191970" stroke="#191970" points="65.926,-293.0774 68.1057,-303.4455 72.8674,-293.981 65.926,-293.0774"/>
</g>
<!-- Node16 -->
<g id="node16" class="node">
<title>Node16</title>
<g id="a_node16"><a xlink:href="../../d4/d65/Fun4All__single__particle_8C.html#a8a492b5dbead494bfdddbebde8a49b0e" target="_top" xlink:title="Fun4All_single_particle">
<polygon fill="none" stroke="#000000" points="186.5,-.5 186.5,-20.5 318.5,-20.5 318.5,-.5 186.5,-.5"/>
<text text-anchor="middle" x="252.5" y="-7.5" font-family="FreeSans" font-size="10.00" fill="#000000">Fun4All_single_particle</text>
</a>
</g>
</g>
<!-- Node1&#45;&gt;Node16 -->
<g id="edge15" class="edge">
<title>Node1&#45;&gt;Node16</title>
<path fill="none" stroke="#191970" d="M67.7868,-293.1728C72.0444,-236.2656 90.3566,-101.2384 169,-30.5 174.0981,-25.9144 180.0601,-22.3309 186.4109,-19.5376"/>
<polygon fill="#191970" stroke="#191970" points="64.2937,-292.9549 67.1264,-303.164 71.2784,-293.4167 64.2937,-292.9549"/>
</g>
</g>
</svg>
