<?xml version="1.0" encoding="UTF-8" standalone="no"?>
<!DOCTYPE svg PUBLIC "-//W3C//DTD SVG 1.1//EN"
 "http://www.w3.org/Graphics/SVG/1.1/DTD/svg11.dtd">
<!-- Generated by graphviz version 2.40.1 (20161225.0304)
 -->
<!-- Title: PHPythia6::set_config_file Pages: 1 -->
<svg width="357pt" height="725pt"
 viewBox="0.00 0.00 357.00 725.00" xmlns="http://www.w3.org/2000/svg" xmlns:xlink="http://www.w3.org/1999/xlink">
<g id="graph0" class="graph" transform="scale(1 1) rotate(0) translate(4 721)">
<title>PHPythia6::set_config_file</title>
<!-- Node1 -->
<g id="node1" class="node">
<title>Node1</title>
<polygon fill="#bfbfbf" stroke="#000000" points="0,-360.5 0,-380.5 146,-380.5 146,-360.5 0,-360.5"/>
<text text-anchor="middle" x="73" y="-367.5" font-family="FreeSans" font-size="10.00" fill="#000000">PHPythia6::set_config_file</text>
</g>
<!-- Node2 -->
<g id="node2" class="node">
<title>Node2</title>
<g id="a_node2"><a xlink:href="../../d2/d47/Fun4All__EICAnalysis__DVCS_8C.html#a84f48142243e969fd353cc8509f0ba22" target="_top" xlink:title="Fun4All_EICAnalysis_DVCS">
<polygon fill="none" stroke="#000000" points="190.5,-696.5 190.5,-716.5 340.5,-716.5 340.5,-696.5 190.5,-696.5"/>
<text text-anchor="middle" x="265.5" y="-703.5" font-family="FreeSans" font-size="10.00" fill="#000000">Fun4All_EICAnalysis_DVCS</text>
</a>
</g>
</g>
<!-- Node1&#45;&gt;Node2 -->
<g id="edge1" class="edge">
<title>Node1&#45;&gt;Node2</title>
<path fill="none" stroke="#191970" d="M77.2508,-390.6442C90.9657,-453.7782 135.8401,-646.0514 182,-687.5 185.9823,-691.0759 190.4958,-694.0217 195.3124,-696.4441"/>
<polygon fill="#191970" stroke="#191970" points="80.6436,-389.7729 75.1239,-380.7295 73.7994,-391.2412 80.6436,-389.7729"/>
</g>
<!-- Node3 -->
<g id="node3" class="node">
<title>Node3</title>
<g id="a_node3"><a xlink:href="../../da/d02/Fun4All__G4__EICDetector_8C.html#afbe82cefa1d1fd031d9a8586b7bb68c6" target="_top" xlink:title="Fun4All_G4_EICDetector">
<polygon fill="none" stroke="#000000" points="196,-657.5 196,-677.5 335,-677.5 335,-657.5 196,-657.5"/>
<text text-anchor="middle" x="265.5" y="-664.5" font-family="FreeSans" font-size="10.00" fill="#000000">Fun4All_G4_EICDetector</text>
</a>
</g>
</g>
<!-- Node1&#45;&gt;Node3 -->
<g id="edge2" class="edge">
<title>Node1&#45;&gt;Node3</title>
<path fill="none" stroke="#191970" d="M74.6623,-390.9546C80.0046,-442.6226 101.4371,-579.1932 182,-648.5 186.1701,-652.0874 190.879,-655.0348 195.8839,-657.4521"/>
<polygon fill="#191970" stroke="#191970" points="78.1244,-390.3847 73.7077,-380.7544 71.1548,-391.0371 78.1244,-390.3847"/>
</g>
<!-- Node4 -->
<g id="node4" class="node">
<title>Node4</title>
<g id="a_node4"><a xlink:href="../../dd/d2a/Fun4All__G4__EICDetector__LQ_8C.html#aaa01242fd6e77ca43a9d49a6d46008e4" target="_top" xlink:title="Fun4All_G4_EICDetector_LQ">
<polygon fill="none" stroke="#000000" points="187.5,-618.5 187.5,-638.5 343.5,-638.5 343.5,-618.5 187.5,-618.5"/>
<text text-anchor="middle" x="265.5" y="-625.5" font-family="FreeSans" font-size="10.00" fill="#000000">Fun4All_G4_EICDetector_LQ</text>
</a>
</g>
</g>
<!-- Node1&#45;&gt;Node4 -->
<g id="edge3" class="edge">
<title>Node1&#45;&gt;Node4</title>
<path fill="none" stroke="#191970" d="M76.0405,-390.5681C84.1562,-436.8464 110.776,-551.5115 182,-609.5 186.3811,-613.0669 191.3013,-615.9936 196.5041,-618.3914"/>
<polygon fill="#191970" stroke="#191970" points="79.475,-389.8836 74.3959,-380.5856 72.5682,-391.0216 79.475,-389.8836"/>
</g>
<!-- Node5 -->
<g id="node5" class="node">
<title>Node5</title>
<g id="a_node5"><a xlink:href="../../d4/df5/Fun4All__G4__EICDetector__LQ__reference_8C.html#a2feefc472f17f90b3cbe74897d049f75" target="_top" xlink:title="Fun4All_G4_EICDetector\l_LQ_reference">
<polygon fill="none" stroke="#000000" points="196,-567.5 196,-599.5 335,-599.5 335,-567.5 196,-567.5"/>
<text text-anchor="start" x="204" y="-586.5" font-family="FreeSans" font-size="10.00" fill="#000000">Fun4All_G4_EICDetector</text>
<text text-anchor="middle" x="265.5" y="-574.5" font-family="FreeSans" font-size="10.00" fill="#000000">_LQ_reference</text>
</a>
</g>
</g>
<!-- Node1&#45;&gt;Node5 -->
<g id="edge4" class="edge">
<title>Node1&#45;&gt;Node5</title>
<path fill="none" stroke="#191970" d="M79.1792,-390.8853C91.9307,-429.4834 124.8559,-513.4001 182,-558.5 186.2763,-561.875 191.0011,-564.7951 195.9637,-567.3216"/>
<polygon fill="#191970" stroke="#191970" points="82.3567,-389.3282 75.9889,-380.8606 75.6864,-391.4511 82.3567,-389.3282"/>
</g>
<!-- Node6 -->
<g id="node6" class="node">
<title>Node6</title>
<g id="a_node6"><a xlink:href="../../d3/d51/Fun4All__G4__EICDetector__RICH_8C.html#a5739502b0a7a1ba782c01069f77e933f" target="_top" xlink:title="Fun4All_G4_EICDetector_RICH">
<polygon fill="none" stroke="#000000" points="182,-528.5 182,-548.5 349,-548.5 349,-528.5 182,-528.5"/>
<text text-anchor="middle" x="265.5" y="-535.5" font-family="FreeSans" font-size="10.00" fill="#000000">Fun4All_G4_EICDetector_RICH</text>
</a>
</g>
</g>
<!-- Node1&#45;&gt;Node6 -->
<g id="edge5" class="edge">
<title>Node1&#45;&gt;Node6</title>
<path fill="none" stroke="#191970" d="M81.6241,-390.075C96.9209,-422.3979 131.9725,-486.6181 182,-519.5 187.4664,-523.093 193.5205,-526.0121 199.7986,-528.383"/>
<polygon fill="#191970" stroke="#191970" points="84.7108,-388.4095 77.3578,-380.7816 78.3491,-391.33 84.7108,-388.4095"/>
</g>
<!-- Node7 -->
<g id="node7" class="node">
<title>Node7</title>
<g id="a_node7"><a xlink:href="../../d7/d9e/Fun4All__G4__fsPHENIX_8C.html#af48911d394d2412e817583700f2bbee2" target="_top" xlink:title="Fun4All_G4_fsPHENIX">
<polygon fill="none" stroke="#000000" points="203.5,-489.5 203.5,-509.5 327.5,-509.5 327.5,-489.5 203.5,-489.5"/>
<text text-anchor="middle" x="265.5" y="-496.5" font-family="FreeSans" font-size="10.00" fill="#000000">Fun4All_G4_fsPHENIX</text>
</a>
</g>
</g>
<!-- Node1&#45;&gt;Node7 -->
<g id="edge6" class="edge">
<title>Node1&#45;&gt;Node7</title>
<path fill="none" stroke="#191970" d="M85.7751,-388.7629C104.1201,-413.5426 140.341,-457.3697 182,-480.5 188.629,-484.1806 195.9307,-487.1488 203.3739,-489.5423"/>
<polygon fill="#191970" stroke="#191970" points="88.5449,-386.6203 79.8482,-380.569 82.8731,-390.7228 88.5449,-386.6203"/>
</g>
<!-- Node8 -->
<g id="node8" class="node">
<title>Node8</title>
<g id="a_node8"><a xlink:href="../../da/d2f/Fun4All__G4__fsPHENIX__FastSim_8C.html#a66fb850cae5fcaadda23b74a25ce4c9c" target="_top" xlink:title="Fun4All_G4_fsPHENIX\l_FastSim">
<polygon fill="none" stroke="#000000" points="203.5,-438.5 203.5,-470.5 327.5,-470.5 327.5,-438.5 203.5,-438.5"/>
<text text-anchor="start" x="211.5" y="-457.5" font-family="FreeSans" font-size="10.00" fill="#000000">Fun4All_G4_fsPHENIX</text>
<text text-anchor="middle" x="265.5" y="-445.5" font-family="FreeSans" font-size="10.00" fill="#000000">_FastSim</text>
</a>
</g>
</g>
<!-- Node1&#45;&gt;Node8 -->
<g id="edge7" class="edge">
<title>Node1&#45;&gt;Node8</title>
<path fill="none" stroke="#191970" d="M97.9532,-385.9238C119.5903,-398.8257 152.0511,-417.0661 182,-429.5 189.6866,-432.6913 197.9246,-435.6653 206.1222,-438.368"/>
<polygon fill="#191970" stroke="#191970" points="99.4721,-382.7526 89.1017,-380.5829 95.8556,-388.746 99.4721,-382.7526"/>
</g>
<!-- Node9 -->
<g id="node9" class="node">
<title>Node9</title>
<g id="a_node9"><a xlink:href="../../d0/da6/Fun4All__G4__fsPHENIX__pi0_8C.html#a023d91d47b678e5d7f1751834aa517c6" target="_top" xlink:title="Fun4All_G4_fsPHENIX_pi0">
<polygon fill="none" stroke="#000000" points="193,-399.5 193,-419.5 338,-419.5 338,-399.5 193,-399.5"/>
<text text-anchor="middle" x="265.5" y="-406.5" font-family="FreeSans" font-size="10.00" fill="#000000">Fun4All_G4_fsPHENIX_pi0</text>
</a>
</g>
</g>
<!-- Node1&#45;&gt;Node9 -->
<g id="edge8" class="edge">
<title>Node1&#45;&gt;Node9</title>
<path fill="none" stroke="#191970" d="M132.6017,-382.5751C159.3917,-388.0027 190.6347,-394.3325 216.0945,-399.4906"/>
<polygon fill="#191970" stroke="#191970" points="133.0694,-379.0989 122.5735,-380.5435 131.6794,-385.9595 133.0694,-379.0989"/>
</g>
<!-- Node10 -->
<g id="node10" class="node">
<title>Node10</title>
<g id="a_node10"><a xlink:href="../../d5/d2c/macros_2blob_2master_2macros_2g4simulations_2Fun4All__G4__sPHENIX_8C.html#a6eaaa492d7023ec86c562dc63aa1e5a4" target="_top" xlink:title="Fun4All_G4_sPHENIX">
<polygon fill="none" stroke="#000000" points="205,-360.5 205,-380.5 326,-380.5 326,-360.5 205,-360.5"/>
<text text-anchor="middle" x="265.5" y="-367.5" font-family="FreeSans" font-size="10.00" fill="#000000">Fun4All_G4_sPHENIX</text>
</a>
</g>
</g>
<!-- Node1&#45;&gt;Node10 -->
<g id="edge9" class="edge">
<title>Node1&#45;&gt;Node10</title>
<path fill="none" stroke="#191970" d="M156.1325,-370.5C172.4591,-370.5 189.2988,-370.5 204.725,-370.5"/>
<polygon fill="#191970" stroke="#191970" points="156.0505,-367.0001 146.0505,-370.5 156.0504,-374.0001 156.0505,-367.0001"/>
</g>
<!-- Node11 -->
<g id="node11" class="node">
<title>Node11</title>
<g id="a_node11"><a xlink:href="../../d3/de2/Fun4All__G4__sPHENIX__AnaGenFit_8C.html#a9bf3f2f72ed69a17e2d0c1121d48013c" target="_top" xlink:title="Fun4All_G4_sPHENIX\l_AnaGenFit">
<polygon fill="none" stroke="#000000" points="205,-309.5 205,-341.5 326,-341.5 326,-309.5 205,-309.5"/>
<text text-anchor="start" x="213" y="-328.5" font-family="FreeSans" font-size="10.00" fill="#000000">Fun4All_G4_sPHENIX</text>
<text text-anchor="middle" x="265.5" y="-316.5" font-family="FreeSans" font-size="10.00" fill="#000000">_AnaGenFit</text>
</a>
</g>
</g>
<!-- Node1&#45;&gt;Node11 -->
<g id="edge10" class="edge">
<title>Node1&#45;&gt;Node11</title>
<path fill="none" stroke="#191970" d="M126.0166,-358.1065C150.466,-352.3911 179.6134,-345.5774 204.9262,-339.6601"/>
<polygon fill="#191970" stroke="#191970" points="125.1415,-354.7166 116.2008,-360.4011 126.735,-361.5329 125.1415,-354.7166"/>
</g>
<!-- Node12 -->
<g id="node12" class="node">
<title>Node12</title>
<g id="a_node12"><a xlink:href="../../da/dd0/Fun4All__G4__sPHENIX__photonjet_8C.html#a6f18519e216acc05399e562ea57ea77c" target="_top" xlink:title="Fun4All_G4_sPHENIX\l_photonjet">
<polygon fill="none" stroke="#000000" points="205,-258.5 205,-290.5 326,-290.5 326,-258.5 205,-258.5"/>
<text text-anchor="start" x="213" y="-277.5" font-family="FreeSans" font-size="10.00" fill="#000000">Fun4All_G4_sPHENIX</text>
<text text-anchor="middle" x="265.5" y="-265.5" font-family="FreeSans" font-size="10.00" fill="#000000">_photonjet</text>
</a>
</g>
</g>
<!-- Node1&#45;&gt;Node12 -->
<g id="edge11" class="edge">
<title>Node1&#45;&gt;Node12</title>
<path fill="none" stroke="#191970" d="M94.3812,-354.2924C115.6621,-338.7728 149.7194,-315.5541 182,-300.5 189.8434,-296.8422 198.3335,-293.5244 206.7937,-290.5763"/>
<polygon fill="#191970" stroke="#191970" points="92.0455,-351.6665 86.0854,-360.426 96.2071,-357.2951 92.0455,-351.6665"/>
</g>
<!-- Node13 -->
<g id="node13" class="node">
<title>Node13</title>
<g id="a_node13"><a xlink:href="../../da/d85/Fun4All__G4__sPHENIX__photons_8C.html#a02fbbd59878fe1299f58ed187e7214ba" target="_top" xlink:title="Fun4All_G4_sPHENIX\l_photons">
<polygon fill="none" stroke="#000000" points="205,-207.5 205,-239.5 326,-239.5 326,-207.5 205,-207.5"/>
<text text-anchor="start" x="213" y="-226.5" font-family="FreeSans" font-size="10.00" fill="#000000">Fun4All_G4_sPHENIX</text>
<text text-anchor="middle" x="265.5" y="-214.5" font-family="FreeSans" font-size="10.00" fill="#000000">_photons</text>
</a>
</g>
</g>
<!-- Node1&#45;&gt;Node13 -->
<g id="edge12" class="edge">
<title>Node1&#45;&gt;Node13</title>
<path fill="none" stroke="#191970" d="M84.8445,-352.0089C102.7478,-325.5113 139.1926,-276.9197 182,-249.5 189.0318,-244.9959 196.8963,-241.227 204.9112,-238.0854"/>
<polygon fill="#191970" stroke="#191970" points="81.8997,-350.1169 79.3052,-360.3891 87.7393,-353.9769 81.8997,-350.1169"/>
</g>
<!-- Node14 -->
<g id="node14" class="node">
<title>Node14</title>
<g id="a_node14"><a xlink:href="../../de/d55/Fun4All__G4__sPHENIX__truthphotonjet_8C.html#a48a6f4503eaa1b3793d8ae572aa795b9" target="_top" xlink:title="Fun4All_G4_sPHENIX\l_truthphotonjet">
<polygon fill="none" stroke="#000000" points="205,-156.5 205,-188.5 326,-188.5 326,-156.5 205,-156.5"/>
<text text-anchor="start" x="213" y="-175.5" font-family="FreeSans" font-size="10.00" fill="#000000">Fun4All_G4_sPHENIX</text>
<text text-anchor="middle" x="265.5" y="-163.5" font-family="FreeSans" font-size="10.00" fill="#000000">_truthphotonjet</text>
</a>
</g>
</g>
<!-- Node1&#45;&gt;Node14 -->
<g id="edge13" class="edge">
<title>Node1&#45;&gt;Node14</title>
<path fill="none" stroke="#191970" d="M80.2989,-350.422C94.356,-314.5592 128.599,-239.4258 182,-198.5 188.7486,-193.328 196.5402,-189.1746 204.5957,-185.8417"/>
<polygon fill="#191970" stroke="#191970" points="76.8604,-349.6184 76.5856,-360.2097 83.4053,-352.1014 76.8604,-349.6184"/>
</g>
<!-- Node15 -->
<g id="node15" class="node">
<title>Node15</title>
<g id="a_node15"><a xlink:href="../../d4/dfa/Fun4All__Generator__Display_8C.html#af87924a94b22e18901f0d64805565f09" target="_top" xlink:title="Fun4All_Generator_Display">
<polygon fill="none" stroke="#000000" points="189.5,-117.5 189.5,-137.5 341.5,-137.5 341.5,-117.5 189.5,-117.5"/>
<text text-anchor="middle" x="265.5" y="-124.5" font-family="FreeSans" font-size="10.00" fill="#000000">Fun4All_Generator_Display</text>
</a>
</g>
</g>
<!-- Node1&#45;&gt;Node15 -->
<g id="edge14" class="edge">
<title>Node1&#45;&gt;Node15</title>
<path fill="none" stroke="#191970" d="M76.8349,-350.3161C86.3009,-306.2645 115.0424,-201.1632 182,-147.5 187.0017,-143.4914 192.679,-140.2652 198.6637,-137.6716"/>
<polygon fill="#191970" stroke="#191970" points="73.402,-349.634 74.8321,-360.1318 80.2607,-351.0335 73.402,-349.634"/>
</g>
<!-- Node16 -->
<g id="node16" class="node">
<title>Node16</title>
<g id="a_node16"><a xlink:href="../../de/d6b/Fun4All__MCEventGen_8C.html#a4e6d2272e7266684626c0653520558ef" target="_top" xlink:title="Fun4All_MCEventGen">
<polygon fill="none" stroke="#000000" points="204,-78.5 204,-98.5 327,-98.5 327,-78.5 204,-78.5"/>
<text text-anchor="middle" x="265.5" y="-85.5" font-family="FreeSans" font-size="10.00" fill="#000000">Fun4All_MCEventGen</text>
</a>
</g>
</g>
<!-- Node1&#45;&gt;Node16 -->
<g id="edge15" class="edge">
<title>Node1&#45;&gt;Node16</title>
<path fill="none" stroke="#191970" d="M75.2319,-350.268C81.7947,-300.9032 105.6461,-173.5754 182,-108.5 188.3533,-103.0852 195.9226,-99.0824 203.8719,-96.1328"/>
<polygon fill="#191970" stroke="#191970" points="71.7428,-349.966 73.9964,-360.3183 78.6905,-350.8202 71.7428,-349.966"/>
</g>
<!-- Node17 -->
<g id="node17" class="node">
<title>Node17</title>
<g id="a_node17"><a xlink:href="../../d7/d65/Fun4All__Pythia6_8C.html#aef86c866396545237e0781d2226bd6a5" target="_top" xlink:title="Fun4All_Pythia6">
<polygon fill="none" stroke="#000000" points="217.5,-39.5 217.5,-59.5 313.5,-59.5 313.5,-39.5 217.5,-39.5"/>
<text text-anchor="middle" x="265.5" y="-46.5" font-family="FreeSans" font-size="10.00" fill="#000000">Fun4All_Pythia6</text>
</a>
</g>
</g>
<!-- Node1&#45;&gt;Node17 -->
<g id="edge16" class="edge">
<title>Node1&#45;&gt;Node17</title>
<path fill="none" stroke="#191970" d="M74.008,-350.2667C77.8467,-296.0177 96.1044,-146.2498 182,-69.5 191.7818,-60.7597 204.7053,-55.6651 217.4548,-52.7425"/>
<polygon fill="#191970" stroke="#191970" points="70.5095,-350.1363 73.3886,-360.3324 77.4963,-350.5663 70.5095,-350.1363"/>
</g>
<!-- Node18 -->
<g id="node18" class="node">
<title>Node18</title>
<g id="a_node18"><a xlink:href="../../d4/d65/Fun4All__single__particle_8C.html#a8a492b5dbead494bfdddbebde8a49b0e" target="_top" xlink:title="Fun4All_single_particle">
<polygon fill="none" stroke="#000000" points="199.5,-.5 199.5,-20.5 331.5,-20.5 331.5,-.5 199.5,-.5"/>
<text text-anchor="middle" x="265.5" y="-7.5" font-family="FreeSans" font-size="10.00" fill="#000000">Fun4All_single_particle</text>
</a>
</g>
</g>
<!-- Node1&#45;&gt;Node18 -->
<g id="edge17" class="edge">
<title>Node1&#45;&gt;Node18</title>
<path fill="none" stroke="#191970" d="M76.8065,-350.2358C89.6375,-284.0254 133.2387,-75.7283 182,-30.5 187.0274,-25.8369 192.944,-22.2039 199.2681,-19.3813"/>
<polygon fill="#191970" stroke="#191970" points="73.3338,-349.7618 74.8936,-360.2411 80.2093,-351.0764 73.3338,-349.7618"/>
</g>
</g>
</svg>
