<?xml version="1.0" encoding="UTF-8" standalone="no"?>
<!DOCTYPE svg PUBLIC "-//W3C//DTD SVG 1.1//EN"
 "http://www.w3.org/Graphics/SVG/1.1/DTD/svg11.dtd">
<!-- Generated by graphviz version 2.40.1 (20161225.0304)
 -->
<!-- Title: PHPythia6::set_reuse_vertex Pages: 1 -->
<svg width="288pt" height="182pt"
 viewBox="0.00 0.00 288.00 182.00" xmlns="http://www.w3.org/2000/svg" xmlns:xlink="http://www.w3.org/1999/xlink">
<g id="graph0" class="graph" transform="scale(1 1) rotate(0) translate(4 178)">
<title>PHPythia6::set_reuse_vertex</title>
<!-- Node1 -->
<g id="node1" class="node">
<title>Node1</title>
<polygon fill="#bfbfbf" stroke="#000000" points="0,-76.5 0,-108.5 123,-108.5 123,-76.5 0,-76.5"/>
<text text-anchor="start" x="8" y="-95.5" font-family="FreeSans" font-size="10.00" fill="#000000">PHPythia6::set_reuse</text>
<text text-anchor="middle" x="61.5" y="-83.5" font-family="FreeSans" font-size="10.00" fill="#000000">_vertex</text>
</g>
<!-- Node2 -->
<g id="node2" class="node">
<title>Node2</title>
<g id="a_node2"><a xlink:href="../../d5/d2c/macros_2blob_2master_2macros_2g4simulations_2Fun4All__G4__sPHENIX_8C.html#a6eaaa492d7023ec86c562dc63aa1e5a4" target="_top" xlink:title="Fun4All_G4_sPHENIX">
<polygon fill="none" stroke="#000000" points="159,-153.5 159,-173.5 280,-173.5 280,-153.5 159,-153.5"/>
<text text-anchor="middle" x="219.5" y="-160.5" font-family="FreeSans" font-size="10.00" fill="#000000">Fun4All_G4_sPHENIX</text>
</a>
</g>
</g>
<!-- Node1&#45;&gt;Node2 -->
<g id="edge1" class="edge">
<title>Node1&#45;&gt;Node2</title>
<path fill="none" stroke="#191970" d="M97.5846,-113.8138C115.6394,-123.9395 138.0596,-135.7174 159,-144.5 166.8174,-147.7787 175.4055,-150.804 183.5935,-153.4317"/>
<polygon fill="#191970" stroke="#191970" points="98.9958,-110.5901 88.572,-108.6939 95.5382,-116.6766 98.9958,-110.5901"/>
</g>
<!-- Node3 -->
<g id="node3" class="node">
<title>Node3</title>
<g id="a_node3"><a xlink:href="../../da/dd0/Fun4All__G4__sPHENIX__photonjet_8C.html#a6f18519e216acc05399e562ea57ea77c" target="_top" xlink:title="Fun4All_G4_sPHENIX\l_photonjet">
<polygon fill="none" stroke="#000000" points="159,-102.5 159,-134.5 280,-134.5 280,-102.5 159,-102.5"/>
<text text-anchor="start" x="167" y="-121.5" font-family="FreeSans" font-size="10.00" fill="#000000">Fun4All_G4_sPHENIX</text>
<text text-anchor="middle" x="219.5" y="-109.5" font-family="FreeSans" font-size="10.00" fill="#000000">_photonjet</text>
</a>
</g>
</g>
<!-- Node1&#45;&gt;Node3 -->
<g id="edge2" class="edge">
<title>Node1&#45;&gt;Node3</title>
<path fill="none" stroke="#191970" d="M133.0867,-104.2801C141.7134,-105.6997 150.459,-107.1388 158.9073,-108.529"/>
<polygon fill="#191970" stroke="#191970" points="133.475,-100.797 123.0393,-102.6267 132.3383,-107.7041 133.475,-100.797"/>
</g>
<!-- Node4 -->
<g id="node4" class="node">
<title>Node4</title>
<g id="a_node4"><a xlink:href="../../da/d85/Fun4All__G4__sPHENIX__photons_8C.html#a02fbbd59878fe1299f58ed187e7214ba" target="_top" xlink:title="Fun4All_G4_sPHENIX\l_photons">
<polygon fill="none" stroke="#000000" points="159,-51.5 159,-83.5 280,-83.5 280,-51.5 159,-51.5"/>
<text text-anchor="start" x="167" y="-70.5" font-family="FreeSans" font-size="10.00" fill="#000000">Fun4All_G4_sPHENIX</text>
<text text-anchor="middle" x="219.5" y="-58.5" font-family="FreeSans" font-size="10.00" fill="#000000">_photons</text>
</a>
</g>
</g>
<!-- Node1&#45;&gt;Node4 -->
<g id="edge3" class="edge">
<title>Node1&#45;&gt;Node4</title>
<path fill="none" stroke="#191970" d="M133.0867,-81.173C141.7134,-79.808 150.459,-78.4242 158.9073,-77.0875"/>
<polygon fill="#191970" stroke="#191970" points="132.3694,-77.7428 123.0393,-82.7628 133.4635,-84.6568 132.3694,-77.7428"/>
</g>
<!-- Node5 -->
<g id="node5" class="node">
<title>Node5</title>
<g id="a_node5"><a xlink:href="../../de/d55/Fun4All__G4__sPHENIX__truthphotonjet_8C.html#a48a6f4503eaa1b3793d8ae572aa795b9" target="_top" xlink:title="Fun4All_G4_sPHENIX\l_truthphotonjet">
<polygon fill="none" stroke="#000000" points="159,-.5 159,-32.5 280,-32.5 280,-.5 159,-.5"/>
<text text-anchor="start" x="167" y="-19.5" font-family="FreeSans" font-size="10.00" fill="#000000">Fun4All_G4_sPHENIX</text>
<text text-anchor="middle" x="219.5" y="-7.5" font-family="FreeSans" font-size="10.00" fill="#000000">_truthphotonjet</text>
</a>
</g>
</g>
<!-- Node1&#45;&gt;Node5 -->
<g id="edge4" class="edge">
<title>Node1&#45;&gt;Node5</title>
<path fill="none" stroke="#191970" d="M100.4524,-71.7571C118.177,-62.5175 139.5058,-51.6744 159,-42.5 166.034,-39.1897 173.5998,-35.8035 180.9187,-32.6153"/>
<polygon fill="#191970" stroke="#191970" points="98.775,-68.6846 91.541,-76.4254 102.0233,-74.8854 98.775,-68.6846"/>
</g>
</g>
</svg>
