<?xml version="1.0" encoding="UTF-8" standalone="no"?>
<!DOCTYPE svg PUBLIC "-//W3C//DTD SVG 1.1//EN"
 "http://www.w3.org/Graphics/SVG/1.1/DTD/svg11.dtd">
<!-- Generated by graphviz version 2.40.1 (20161225.0304)
 -->
<!-- Title: BaseTruthEval::next_event Pages: 1 -->
<svg width="1752pt" height="564pt"
 viewBox="0.00 0.00 1752.00 564.00" xmlns="http://www.w3.org/2000/svg" xmlns:xlink="http://www.w3.org/1999/xlink">
<g id="graph0" class="graph" transform="scale(1 1) rotate(0) translate(4 560)">
<title>BaseTruthEval::next_event</title>
<!-- Node1 -->
<g id="node1" class="node">
<title>Node1</title>
<polygon fill="#bfbfbf" stroke="#000000" points="0,-95.5 0,-127.5 118,-127.5 118,-95.5 0,-95.5"/>
<text text-anchor="start" x="8" y="-114.5" font-family="FreeSans" font-size="10.00" fill="#000000">BaseTruthEval::next</text>
<text text-anchor="middle" x="59" y="-102.5" font-family="FreeSans" font-size="10.00" fill="#000000">_event</text>
</g>
<!-- Node2 -->
<g id="node2" class="node">
<title>Node2</title>
<g id="a_node2"><a xlink:href="../../d4/de4/classSvtxTruthEval.html#ac13b62af4f46d9ba4e0e41f1c42e8770" target="_top" xlink:title="SvtxTruthEval::next\l_event">
<polygon fill="none" stroke="#000000" points="154,-121.5 154,-153.5 269,-153.5 269,-121.5 154,-121.5"/>
<text text-anchor="start" x="162" y="-140.5" font-family="FreeSans" font-size="10.00" fill="#000000">SvtxTruthEval::next</text>
<text text-anchor="middle" x="211.5" y="-128.5" font-family="FreeSans" font-size="10.00" fill="#000000">_event</text>
</a>
</g>
</g>
<!-- Node1&#45;&gt;Node2 -->
<g id="edge1" class="edge">
<title>Node1&#45;&gt;Node2</title>
<path fill="none" stroke="#191970" d="M128.5141,-123.3516C136.8749,-124.777 145.3445,-126.221 153.5167,-127.6143"/>
<polygon fill="#191970" stroke="#191970" points="128.8432,-119.8573 118.3972,-121.6267 127.6666,-126.7577 128.8432,-119.8573"/>
</g>
<!-- Node23 -->
<g id="node23" class="node">
<title>Node23</title>
<g id="a_node23"><a xlink:href="../../d7/d3c/classCaloTruthEval.html#a13d63607fef75249cc7dcbf2bda5cf33" target="_top" xlink:title="reinitialize the eval for a new event">
<polygon fill="none" stroke="#000000" points="154,-70.5 154,-102.5 269,-102.5 269,-70.5 154,-70.5"/>
<text text-anchor="start" x="162" y="-89.5" font-family="FreeSans" font-size="10.00" fill="#000000">CaloTruthEval::next</text>
<text text-anchor="middle" x="211.5" y="-77.5" font-family="FreeSans" font-size="10.00" fill="#000000">_event</text>
</a>
</g>
</g>
<!-- Node1&#45;&gt;Node23 -->
<g id="edge22" class="edge">
<title>Node1&#45;&gt;Node23</title>
<path fill="none" stroke="#191970" d="M128.5141,-100.1042C136.8749,-98.7336 145.3445,-97.3452 153.5167,-96.0055"/>
<polygon fill="#191970" stroke="#191970" points="127.6992,-96.691 118.3972,-101.7628 128.8317,-103.5988 127.6992,-96.691"/>
</g>
<!-- Node3 -->
<g id="node3" class="node">
<title>Node3</title>
<g id="a_node3"><a xlink:href="../../d9/d62/classSvtxHitEval.html#a2b8bd81cd1feca366d3dec9b52f1658e" target="_top" xlink:title="SvtxHitEval::next_event">
<polygon fill="none" stroke="#000000" points="306,-136.5 306,-156.5 444,-156.5 444,-136.5 306,-136.5"/>
<text text-anchor="middle" x="375" y="-143.5" font-family="FreeSans" font-size="10.00" fill="#000000">SvtxHitEval::next_event</text>
</a>
</g>
</g>
<!-- Node2&#45;&gt;Node3 -->
<g id="edge2" class="edge">
<title>Node2&#45;&gt;Node3</title>
<path fill="none" stroke="#191970" d="M279.3023,-141.2322C288.0632,-141.7145 297.0443,-142.2089 305.827,-142.6923"/>
<polygon fill="#191970" stroke="#191970" points="279.3213,-137.7281 269.144,-140.6731 278.9365,-144.7175 279.3213,-137.7281"/>
</g>
<!-- Node4 -->
<g id="node4" class="node">
<title>Node4</title>
<g id="a_node4"><a xlink:href="../../d1/d1e/classSvtxClusterEval.html#a0f23d4c63d0e893560d423db7e02578d" target="_top" xlink:title="SvtxClusterEval::next\l_event">
<polygon fill="none" stroke="#000000" points="481,-140.5 481,-172.5 606,-172.5 606,-140.5 481,-140.5"/>
<text text-anchor="start" x="489" y="-159.5" font-family="FreeSans" font-size="10.00" fill="#000000">SvtxClusterEval::next</text>
<text text-anchor="middle" x="543.5" y="-147.5" font-family="FreeSans" font-size="10.00" fill="#000000">_event</text>
</a>
</g>
</g>
<!-- Node3&#45;&gt;Node4 -->
<g id="edge3" class="edge">
<title>Node3&#45;&gt;Node4</title>
<path fill="none" stroke="#191970" d="M454.0887,-151.1937C463.054,-151.7258 472.0975,-152.2625 480.8111,-152.7796"/>
<polygon fill="#191970" stroke="#191970" points="454.2114,-147.6949 444.0216,-150.5962 453.7966,-154.6826 454.2114,-147.6949"/>
</g>
<!-- Node5 -->
<g id="node5" class="node">
<title>Node5</title>
<g id="a_node5"><a xlink:href="../../df/dad/classSvtxTrackEval.html#aff069c6fdb0f6d80147b65a98878d90f" target="_top" xlink:title="SvtxTrackEval::next\l_event">
<polygon fill="none" stroke="#000000" points="642.5,-159.5 642.5,-191.5 758.5,-191.5 758.5,-159.5 642.5,-159.5"/>
<text text-anchor="start" x="650.5" y="-178.5" font-family="FreeSans" font-size="10.00" fill="#000000">SvtxTrackEval::next</text>
<text text-anchor="middle" x="700.5" y="-166.5" font-family="FreeSans" font-size="10.00" fill="#000000">_event</text>
</a>
</g>
</g>
<!-- Node4&#45;&gt;Node5 -->
<g id="edge4" class="edge">
<title>Node4&#45;&gt;Node5</title>
<path fill="none" stroke="#191970" d="M616.1996,-165.298C624.9469,-166.3566 633.7907,-167.4269 642.2935,-168.4559"/>
<polygon fill="#191970" stroke="#191970" points="616.3498,-161.7908 606.0017,-164.0639 615.5087,-168.7401 616.3498,-161.7908"/>
</g>
<!-- Node6 -->
<g id="node6" class="node">
<title>Node6</title>
<g id="a_node6"><a xlink:href="../../d4/d21/classSvtxVertexEval.html#ad872cdf8407f2f483af522aed6786a40" target="_top" xlink:title="SvtxVertexEval::next\l_event">
<polygon fill="none" stroke="#000000" points="800,-235.5 800,-267.5 922,-267.5 922,-235.5 800,-235.5"/>
<text text-anchor="start" x="808" y="-254.5" font-family="FreeSans" font-size="10.00" fill="#000000">SvtxVertexEval::next</text>
<text text-anchor="middle" x="861" y="-242.5" font-family="FreeSans" font-size="10.00" fill="#000000">_event</text>
</a>
</g>
</g>
<!-- Node5&#45;&gt;Node6 -->
<g id="edge5" class="edge">
<title>Node5&#45;&gt;Node6</title>
<path fill="none" stroke="#191970" d="M743.8336,-196.0194C769.9613,-208.3913 802.7644,-223.9243 827.0111,-235.4056"/>
<polygon fill="#191970" stroke="#191970" points="745.0738,-192.7341 734.5379,-191.6176 742.078,-199.0606 745.0738,-192.7341"/>
</g>
<!-- Node7 -->
<g id="node7" class="node">
<title>Node7</title>
<g id="a_node7"><a xlink:href="../../d3/ded/classSvtxEvalStack.html#a8a929a1f521c9e8596ecb1ca108281cf" target="_top" xlink:title="SvtxEvalStack::next\l_event">
<polygon fill="none" stroke="#000000" points="963,-254.5 963,-286.5 1080,-286.5 1080,-254.5 963,-254.5"/>
<text text-anchor="start" x="971" y="-273.5" font-family="FreeSans" font-size="10.00" fill="#000000">SvtxEvalStack::next</text>
<text text-anchor="middle" x="1021.5" y="-261.5" font-family="FreeSans" font-size="10.00" fill="#000000">_event</text>
</a>
</g>
</g>
<!-- Node6&#45;&gt;Node7 -->
<g id="edge6" class="edge">
<title>Node6&#45;&gt;Node7</title>
<path fill="none" stroke="#191970" d="M932.2846,-259.9387C942.524,-261.1508 952.9606,-262.3863 962.9163,-263.5649"/>
<polygon fill="#191970" stroke="#191970" points="932.4782,-256.4372 922.136,-258.7373 931.6552,-263.3887 932.4782,-256.4372"/>
</g>
<!-- Node8 -->
<g id="node8" class="node">
<title>Node8</title>
<g id="a_node8"><a xlink:href="../../db/d4b/classEMCalAna.html#a3b829b80df0fd8625130f3d9c11f5d3d" target="_top" xlink:title="EMCalAna::process_event">
<polygon fill="none" stroke="#000000" points="1116,-535.5 1116,-555.5 1263,-555.5 1263,-535.5 1116,-535.5"/>
<text text-anchor="middle" x="1189.5" y="-542.5" font-family="FreeSans" font-size="10.00" fill="#000000">EMCalAna::process_event</text>
</a>
</g>
</g>
<!-- Node7&#45;&gt;Node8 -->
<g id="edge7" class="edge">
<title>Node7&#45;&gt;Node8</title>
<path fill="none" stroke="#191970" d="M1023.3573,-296.529C1028.4881,-348.2949 1047.4292,-464.506 1116,-526.5 1120.0084,-530.124 1124.6182,-533.0745 1129.5338,-535.4743"/>
<polygon fill="#191970" stroke="#191970" points="1026.8376,-296.1513 1022.4592,-286.5036 1019.8655,-296.776 1026.8376,-296.1513"/>
</g>
<!-- Node9 -->
<g id="node9" class="node">
<title>Node9</title>
<g id="a_node9"><a xlink:href="../../de/da4/classEMCalCalib.html#aa70da6270813e434e35da37b6ec2a350" target="_top" xlink:title="EMCalCalib::process\l_event">
<polygon fill="none" stroke="#000000" points="1130.5,-484.5 1130.5,-516.5 1248.5,-516.5 1248.5,-484.5 1130.5,-484.5"/>
<text text-anchor="start" x="1138.5" y="-503.5" font-family="FreeSans" font-size="10.00" fill="#000000">EMCalCalib::process</text>
<text text-anchor="middle" x="1189.5" y="-491.5" font-family="FreeSans" font-size="10.00" fill="#000000">_event</text>
</a>
</g>
</g>
<!-- Node7&#45;&gt;Node9 -->
<g id="edge8" class="edge">
<title>Node7&#45;&gt;Node9</title>
<path fill="none" stroke="#191970" d="M1026.5787,-296.6814C1036.3135,-339.9689 1061.6477,-426.5296 1116,-475.5 1120.3058,-479.3794 1125.2388,-482.661 1130.4669,-485.436"/>
<polygon fill="#191970" stroke="#191970" points="1029.9486,-295.7027 1024.4317,-286.6576 1023.1038,-297.1689 1029.9486,-295.7027"/>
</g>
<!-- Node10 -->
<g id="node10" class="node">
<title>Node10</title>
<g id="a_node10"><a xlink:href="../../d7/d62/classHFMLTriggerInterface.html#a29f338c2563a39e5d0e58b316f4b036f" target="_top" xlink:title="HFMLTriggerInterface\l::process_event">
<polygon fill="none" stroke="#000000" points="1128.5,-433.5 1128.5,-465.5 1250.5,-465.5 1250.5,-433.5 1128.5,-433.5"/>
<text text-anchor="start" x="1136.5" y="-452.5" font-family="FreeSans" font-size="10.00" fill="#000000">HFMLTriggerInterface</text>
<text text-anchor="middle" x="1189.5" y="-440.5" font-family="FreeSans" font-size="10.00" fill="#000000">::process_event</text>
</a>
</g>
</g>
<!-- Node7&#45;&gt;Node10 -->
<g id="edge9" class="edge">
<title>Node7&#45;&gt;Node10</title>
<path fill="none" stroke="#191970" d="M1030.825,-296.2303C1044.4375,-330.2994 1072.9144,-390.0743 1116,-424.5 1120.212,-427.8654 1124.9021,-430.7895 1129.8182,-433.3279"/>
<polygon fill="#191970" stroke="#191970" points="1033.9487,-294.6038 1027.078,-286.5389 1027.4198,-297.1282 1033.9487,-294.6038"/>
</g>
<!-- Node11 -->
<g id="node11" class="node">
<title>Node11</title>
<g id="a_node11"><a xlink:href="../../da/dbf/classHFMLTriggerOccupancy.html#add094957c68c32da4afc212ffa24e885" target="_top" xlink:title="HFMLTriggerOccupancy\l::process_event">
<polygon fill="none" stroke="#000000" points="1122.5,-382.5 1122.5,-414.5 1256.5,-414.5 1256.5,-382.5 1122.5,-382.5"/>
<text text-anchor="start" x="1130.5" y="-401.5" font-family="FreeSans" font-size="10.00" fill="#000000">HFMLTriggerOccupancy</text>
<text text-anchor="middle" x="1189.5" y="-389.5" font-family="FreeSans" font-size="10.00" fill="#000000">::process_event</text>
</a>
</g>
</g>
<!-- Node7&#45;&gt;Node11 -->
<g id="edge10" class="edge">
<title>Node7&#45;&gt;Node11</title>
<path fill="none" stroke="#191970" d="M1038.3786,-295.0866C1055.4766,-318.2942 1083.9215,-352.5686 1116,-373.5 1121.1924,-376.8881 1126.892,-379.8658 1132.7487,-382.4712"/>
<polygon fill="#191970" stroke="#191970" points="1041.0827,-292.8524 1032.3973,-286.7848 1035.4033,-296.9443 1041.0827,-292.8524"/>
</g>
<!-- Node12 -->
<g id="node12" class="node">
<title>Node12</title>
<g id="a_node12"><a xlink:href="../../dc/d65/classPhotonJet.html#a3f9d3ec941f851bc2246ceb0c5362c9f" target="_top" xlink:title="PhotonJet::process\l_event">
<polygon fill="none" stroke="#000000" points="1134.5,-331.5 1134.5,-363.5 1244.5,-363.5 1244.5,-331.5 1134.5,-331.5"/>
<text text-anchor="start" x="1142.5" y="-350.5" font-family="FreeSans" font-size="10.00" fill="#000000">PhotonJet::process</text>
<text text-anchor="middle" x="1189.5" y="-338.5" font-family="FreeSans" font-size="10.00" fill="#000000">_event</text>
</a>
</g>
</g>
<!-- Node7&#45;&gt;Node12 -->
<g id="edge11" class="edge">
<title>Node7&#45;&gt;Node12</title>
<path fill="none" stroke="#191970" d="M1056.4883,-291.672C1073.9909,-301.7637 1095.72,-313.5539 1116,-322.5 1123.1524,-325.6552 1130.8367,-328.6639 1138.4447,-331.4306"/>
<polygon fill="#191970" stroke="#191970" points="1058.152,-288.5905 1047.7509,-286.5736 1054.624,-294.6365 1058.152,-288.5905"/>
</g>
<!-- Node13 -->
<g id="node13" class="node">
<title>Node13</title>
<g id="a_node13"><a xlink:href="../../d8/d98/classpsTOFTimezeroEval.html#a2e98730e1beaa91c36947c0fe671fdd2" target="_top" xlink:title="psTOFTimezeroEval::\lprocess_event">
<polygon fill="none" stroke="#000000" points="1128.5,-280.5 1128.5,-312.5 1250.5,-312.5 1250.5,-280.5 1128.5,-280.5"/>
<text text-anchor="start" x="1136.5" y="-299.5" font-family="FreeSans" font-size="10.00" fill="#000000">psTOFTimezeroEval::</text>
<text text-anchor="middle" x="1189.5" y="-287.5" font-family="FreeSans" font-size="10.00" fill="#000000">process_event</text>
</a>
</g>
</g>
<!-- Node7&#45;&gt;Node13 -->
<g id="edge12" class="edge">
<title>Node7&#45;&gt;Node13</title>
<path fill="none" stroke="#191970" d="M1090.2863,-281.1455C1102.9466,-283.1048 1116.0839,-285.138 1128.4955,-287.0588"/>
<polygon fill="#191970" stroke="#191970" points="1090.6759,-277.6642 1080.2582,-279.5935 1089.6053,-284.5819 1090.6759,-277.6642"/>
</g>
<!-- Node14 -->
<g id="node14" class="node">
<title>Node14</title>
<g id="a_node14"><a xlink:href="../../db/d2f/classAnaSvtxTracksForGenFit.html#a6f277cfc1d441b018fccacf6fb882dd0" target="_top" xlink:title="AnaSvtxTracksForGenFit\l::process_event">
<polygon fill="none" stroke="#000000" points="1119.5,-229.5 1119.5,-261.5 1259.5,-261.5 1259.5,-229.5 1119.5,-229.5"/>
<text text-anchor="start" x="1127.5" y="-248.5" font-family="FreeSans" font-size="10.00" fill="#000000">AnaSvtxTracksForGenFit</text>
<text text-anchor="middle" x="1189.5" y="-236.5" font-family="FreeSans" font-size="10.00" fill="#000000">::process_event</text>
</a>
</g>
</g>
<!-- Node7&#45;&gt;Node14 -->
<g id="edge13" class="edge">
<title>Node7&#45;&gt;Node14</title>
<path fill="none" stroke="#191970" d="M1090.439,-260.2412C1099.9396,-258.8274 1109.7059,-257.3741 1119.2301,-255.9568"/>
<polygon fill="#191970" stroke="#191970" points="1089.6341,-256.8224 1080.2582,-261.7562 1090.6645,-263.7461 1089.6341,-256.8224"/>
</g>
<!-- Node15 -->
<g id="node15" class="node">
<title>Node15</title>
<g id="a_node15"><a xlink:href="../../dc/dfb/classGenFitTrackProp.html#a92a3570ed1802ba0f7e9eeb50eb9a6ec" target="_top" xlink:title="Process Event, called for each event.">
<polygon fill="none" stroke="#000000" points="1118,-178.5 1118,-210.5 1261,-210.5 1261,-178.5 1118,-178.5"/>
<text text-anchor="start" x="1126" y="-197.5" font-family="FreeSans" font-size="10.00" fill="#000000">GenFitTrackProp::process</text>
<text text-anchor="middle" x="1189.5" y="-185.5" font-family="FreeSans" font-size="10.00" fill="#000000">_event</text>
</a>
</g>
</g>
<!-- Node7&#45;&gt;Node15 -->
<g id="edge14" class="edge">
<title>Node7&#45;&gt;Node15</title>
<path fill="none" stroke="#191970" d="M1058.627,-249.2365C1075.7974,-239.826 1096.6381,-228.9921 1116,-220.5 1123.9331,-217.0206 1132.4934,-213.6559 1140.8714,-210.566"/>
<polygon fill="#191970" stroke="#191970" points="1056.5492,-246.3863 1049.4982,-254.2942 1059.9417,-252.5094 1056.5492,-246.3863"/>
</g>
<!-- Node16 -->
<g id="node16" class="node">
<title>Node16</title>
<g id="a_node16"><a xlink:href="../../d2/d85/classSvtxEvaluatorHaiwang.html#ab63ca0cc53b56dad65b89d9b18220bce" target="_top" xlink:title="SvtxEvaluatorHaiwang\l::process_event">
<polygon fill="none" stroke="#000000" points="1124,-127.5 1124,-159.5 1255,-159.5 1255,-127.5 1124,-127.5"/>
<text text-anchor="start" x="1132" y="-146.5" font-family="FreeSans" font-size="10.00" fill="#000000">SvtxEvaluatorHaiwang</text>
<text text-anchor="middle" x="1189.5" y="-134.5" font-family="FreeSans" font-size="10.00" fill="#000000">::process_event</text>
</a>
</g>
</g>
<!-- Node7&#45;&gt;Node16 -->
<g id="edge15" class="edge">
<title>Node7&#45;&gt;Node16</title>
<path fill="none" stroke="#191970" d="M1038.8292,-246.1064C1056.0742,-223.4292 1084.461,-190.1327 1116,-169.5 1121.7767,-165.7209 1128.1688,-162.4157 1134.7018,-159.5455"/>
<polygon fill="#191970" stroke="#191970" points="1035.9462,-244.1178 1032.782,-254.2292 1041.5611,-248.298 1035.9462,-244.1178"/>
</g>
<!-- Node17 -->
<g id="node17" class="node">
<title>Node17</title>
<g id="a_node17"><a xlink:href="../../d3/d22/classJetTruthEval.html#ac29b8d18ee116903ed233388eb253256" target="_top" xlink:title="reinitialize the eval for a new event">
<polygon fill="none" stroke="#000000" points="1136,-25.5 1136,-57.5 1243,-57.5 1243,-25.5 1136,-25.5"/>
<text text-anchor="start" x="1144" y="-44.5" font-family="FreeSans" font-size="10.00" fill="#000000">JetTruthEval::next</text>
<text text-anchor="middle" x="1189.5" y="-32.5" font-family="FreeSans" font-size="10.00" fill="#000000">_event</text>
</a>
</g>
</g>
<!-- Node7&#45;&gt;Node17 -->
<g id="edge16" class="edge">
<title>Node7&#45;&gt;Node17</title>
<path fill="none" stroke="#191970" d="M1026.6168,-244.4445C1036.4073,-201.3654 1061.8209,-115.223 1116,-66.5 1121.7125,-61.3628 1128.5249,-57.2739 1135.6644,-54.0211"/>
<polygon fill="#191970" stroke="#191970" points="1023.1524,-243.9057 1024.4563,-254.42 1029.9938,-245.3875 1023.1524,-243.9057"/>
</g>
<!-- Node22 -->
<g id="node22" class="node">
<title>Node22</title>
<g id="a_node22"><a xlink:href="../../d6/d11/classSvtxEvaluator.html#ac66ea4145deb621d9e4fb38cf852dc33" target="_top" xlink:title="SvtxEvaluator::process\l_event">
<polygon fill="none" stroke="#000000" points="1123.5,-76.5 1123.5,-108.5 1255.5,-108.5 1255.5,-76.5 1123.5,-76.5"/>
<text text-anchor="start" x="1131.5" y="-95.5" font-family="FreeSans" font-size="10.00" fill="#000000">SvtxEvaluator::process</text>
<text text-anchor="middle" x="1189.5" y="-83.5" font-family="FreeSans" font-size="10.00" fill="#000000">_event</text>
</a>
</g>
</g>
<!-- Node7&#45;&gt;Node22 -->
<g id="edge21" class="edge">
<title>Node7&#45;&gt;Node22</title>
<path fill="none" stroke="#191970" d="M1031.0826,-244.411C1044.8281,-210.4766 1073.289,-151.5248 1116,-117.5 1120.2169,-114.1407 1124.9104,-111.2209 1129.8287,-108.6851"/>
<polygon fill="#191970" stroke="#191970" points="1027.6819,-243.4964 1027.2897,-254.0839 1034.1988,-246.0518 1027.6819,-243.4964"/>
</g>
<!-- Node18 -->
<g id="node18" class="node">
<title>Node18</title>
<g id="a_node18"><a xlink:href="../../dd/d75/classJetRecoEval.html#ae02e058aa7f403d5853482b5d06c01c9" target="_top" xlink:title="reinitialize the eval for a new event">
<polygon fill="none" stroke="#000000" points="1299,-31.5 1299,-51.5 1439,-51.5 1439,-31.5 1299,-31.5"/>
<text text-anchor="middle" x="1369" y="-38.5" font-family="FreeSans" font-size="10.00" fill="#000000">JetRecoEval::next_event</text>
</a>
</g>
</g>
<!-- Node17&#45;&gt;Node18 -->
<g id="edge17" class="edge">
<title>Node17&#45;&gt;Node18</title>
<path fill="none" stroke="#191970" d="M1253.3794,-41.5C1268.1247,-41.5 1283.8886,-41.5 1298.8837,-41.5"/>
<polygon fill="#191970" stroke="#191970" points="1253.356,-38.0001 1243.3559,-41.5 1253.3559,-45.0001 1253.356,-38.0001"/>
</g>
<!-- Node19 -->
<g id="node19" class="node">
<title>Node19</title>
<g id="a_node19"><a xlink:href="../../dd/df3/classJetEvalStack.html#ab85ba05ab4fea5909c8faa238ba5f8e6" target="_top" xlink:title="JetEvalStack::next\l_event">
<polygon fill="none" stroke="#000000" points="1475,-25.5 1475,-57.5 1584,-57.5 1584,-25.5 1475,-25.5"/>
<text text-anchor="start" x="1483" y="-44.5" font-family="FreeSans" font-size="10.00" fill="#000000">JetEvalStack::next</text>
<text text-anchor="middle" x="1529.5" y="-32.5" font-family="FreeSans" font-size="10.00" fill="#000000">_event</text>
</a>
</g>
</g>
<!-- Node18&#45;&gt;Node19 -->
<g id="edge18" class="edge">
<title>Node18&#45;&gt;Node19</title>
<path fill="none" stroke="#191970" d="M1449.6705,-41.5C1458.1104,-41.5 1466.5441,-41.5 1474.5983,-41.5"/>
<polygon fill="#191970" stroke="#191970" points="1449.3977,-38.0001 1439.3976,-41.5 1449.3976,-45.0001 1449.3977,-38.0001"/>
</g>
<!-- Node20 -->
<g id="node20" class="node">
<title>Node20</title>
<g id="a_node20"><a xlink:href="../../d8/de2/classJetEnergies.html#a6acaa9b2ba1fe7353781d2f5d476e8d1" target="_top" xlink:title="JetEnergies::process\l_event">
<polygon fill="none" stroke="#000000" points="1622,-51.5 1622,-83.5 1742,-83.5 1742,-51.5 1622,-51.5"/>
<text text-anchor="start" x="1630" y="-70.5" font-family="FreeSans" font-size="10.00" fill="#000000">JetEnergies::process</text>
<text text-anchor="middle" x="1682" y="-58.5" font-family="FreeSans" font-size="10.00" fill="#000000">_event</text>
</a>
</g>
</g>
<!-- Node19&#45;&gt;Node20 -->
<g id="edge19" class="edge">
<title>Node19&#45;&gt;Node20</title>
<path fill="none" stroke="#191970" d="M1594.009,-52.4983C1603.2267,-54.0698 1612.6788,-55.6813 1621.8092,-57.238"/>
<polygon fill="#191970" stroke="#191970" points="1594.5713,-49.0437 1584.1253,-50.8132 1593.3948,-55.9441 1594.5713,-49.0437"/>
</g>
<!-- Node21 -->
<g id="node21" class="node">
<title>Node21</title>
<g id="a_node21"><a xlink:href="../../d1/df4/classJetEvaluator.html#ad83508ae828d1f2e4a83a948465a0cd2" target="_top" xlink:title="JetEvaluator::process\l_event">
<polygon fill="none" stroke="#000000" points="1620,-.5 1620,-32.5 1744,-32.5 1744,-.5 1620,-.5"/>
<text text-anchor="start" x="1628" y="-19.5" font-family="FreeSans" font-size="10.00" fill="#000000">JetEvaluator::process</text>
<text text-anchor="middle" x="1682" y="-7.5" font-family="FreeSans" font-size="10.00" fill="#000000">_event</text>
</a>
</g>
</g>
<!-- Node19&#45;&gt;Node21 -->
<g id="edge20" class="edge">
<title>Node19&#45;&gt;Node21</title>
<path fill="none" stroke="#191970" d="M1594.079,-30.9133C1602.66,-29.5066 1611.443,-28.0667 1619.9793,-26.6673"/>
<polygon fill="#191970" stroke="#191970" points="1593.4273,-27.4733 1584.1253,-32.545 1594.5598,-34.3811 1593.4273,-27.4733"/>
</g>
<!-- Node24 -->
<g id="node24" class="node">
<title>Node24</title>
<g id="a_node24"><a xlink:href="../../de/d0b/classCaloRawTowerEval.html#a1553c46239b752b02a3b86b77ad98389" target="_top" xlink:title="reinitialize the eval for a new event">
<polygon fill="none" stroke="#000000" points="305,-70.5 305,-102.5 445,-102.5 445,-70.5 305,-70.5"/>
<text text-anchor="start" x="313" y="-89.5" font-family="FreeSans" font-size="10.00" fill="#000000">CaloRawTowerEval::next</text>
<text text-anchor="middle" x="375" y="-77.5" font-family="FreeSans" font-size="10.00" fill="#000000">_event</text>
</a>
</g>
</g>
<!-- Node23&#45;&gt;Node24 -->
<g id="edge23" class="edge">
<title>Node23&#45;&gt;Node24</title>
<path fill="none" stroke="#191970" d="M279.3421,-86.5C287.8069,-86.5 296.4767,-86.5 304.9739,-86.5"/>
<polygon fill="#191970" stroke="#191970" points="279.144,-83.0001 269.144,-86.5 279.1439,-90.0001 279.144,-83.0001"/>
</g>
<!-- Node25 -->
<g id="node25" class="node">
<title>Node25</title>
<g id="a_node25"><a xlink:href="../../da/d7e/classCaloRawClusterEval.html#a05ef076f8d5fd83f1ff552eb839f5689" target="_top" xlink:title="reinitialize the eval for a new event">
<polygon fill="none" stroke="#000000" points="485.5,-70.5 485.5,-102.5 601.5,-102.5 601.5,-70.5 485.5,-70.5"/>
<text text-anchor="start" x="493.5" y="-89.5" font-family="FreeSans" font-size="10.00" fill="#000000">CaloRawClusterEval</text>
<text text-anchor="middle" x="543.5" y="-77.5" font-family="FreeSans" font-size="10.00" fill="#000000">::next_event</text>
</a>
</g>
</g>
<!-- Node24&#45;&gt;Node25 -->
<g id="edge24" class="edge">
<title>Node24&#45;&gt;Node25</title>
<path fill="none" stroke="#191970" d="M455.4918,-86.5C465.5459,-86.5 475.6715,-86.5 485.2944,-86.5"/>
<polygon fill="#191970" stroke="#191970" points="455.4829,-83.0001 445.4829,-86.5 455.4828,-90.0001 455.4829,-83.0001"/>
</g>
<!-- Node26 -->
<g id="node26" class="node">
<title>Node26</title>
<g id="a_node26"><a xlink:href="../../db/d10/classCaloEvalStack.html#a6d60a0a1ce8c1e26075065ea725e5351" target="_top" xlink:title="CaloEvalStack::next\l_event">
<polygon fill="none" stroke="#000000" points="642,-70.5 642,-102.5 759,-102.5 759,-70.5 642,-70.5"/>
<text text-anchor="start" x="650" y="-89.5" font-family="FreeSans" font-size="10.00" fill="#000000">CaloEvalStack::next</text>
<text text-anchor="middle" x="700.5" y="-77.5" font-family="FreeSans" font-size="10.00" fill="#000000">_event</text>
</a>
</g>
</g>
<!-- Node25&#45;&gt;Node26 -->
<g id="edge25" class="edge">
<title>Node25&#45;&gt;Node26</title>
<path fill="none" stroke="#191970" d="M611.5374,-86.5C621.6642,-86.5 632.0275,-86.5 641.937,-86.5"/>
<polygon fill="#191970" stroke="#191970" points="611.515,-83.0001 601.5149,-86.5 611.5149,-90.0001 611.515,-83.0001"/>
</g>
<!-- Node26&#45;&gt;Node17 -->
<g id="edge27" class="edge">
<title>Node26&#45;&gt;Node17</title>
<path fill="none" stroke="#191970" d="M769.3799,-80.5418C814.2709,-76.628 874.1186,-71.3528 927,-66.5 999.3703,-59.8587 1082.9276,-51.8406 1135.9678,-46.707"/>
<polygon fill="#191970" stroke="#191970" points="768.8308,-77.0762 759.1722,-81.4307 769.4382,-84.0499 768.8308,-77.0762"/>
</g>
<!-- Node27 -->
<g id="node27" class="node">
<title>Node27</title>
<g id="a_node27"><a xlink:href="../../dd/d59/classCaloEvaluator.html#a936967e98c89ec58e7851b0661b838c0" target="_top" xlink:title="CaloEvaluator::process\l_event">
<polygon fill="none" stroke="#000000" points="795,-25.5 795,-57.5 927,-57.5 927,-25.5 795,-25.5"/>
<text text-anchor="start" x="803" y="-44.5" font-family="FreeSans" font-size="10.00" fill="#000000">CaloEvaluator::process</text>
<text text-anchor="middle" x="861" y="-32.5" font-family="FreeSans" font-size="10.00" fill="#000000">_event</text>
</a>
</g>
</g>
<!-- Node26&#45;&gt;Node27 -->
<g id="edge26" class="edge">
<title>Node26&#45;&gt;Node27</title>
<path fill="none" stroke="#191970" d="M767.9299,-67.5944C779.9004,-64.2382 792.2615,-60.7725 803.9105,-57.5064"/>
<polygon fill="#191970" stroke="#191970" points="766.6747,-64.3113 757.9908,-70.3811 768.5645,-71.0514 766.6747,-64.3113"/>
</g>
</g>
</svg>
