<?xml version="1.0" encoding="UTF-8" standalone="no"?>
<!DOCTYPE svg PUBLIC "-//W3C//DTD SVG 1.1//EN"
 "http://www.w3.org/Graphics/SVG/1.1/DTD/svg11.dtd">
<!-- Generated by graphviz version 2.40.1 (20161225.0304)
 -->
<!-- Title: BaseTruthEval::get_node_pointers Pages: 1 -->
<svg width="1948pt" height="572pt"
 viewBox="0.00 0.00 1948.00 572.00" xmlns="http://www.w3.org/2000/svg" xmlns:xlink="http://www.w3.org/1999/xlink">
<g id="graph0" class="graph" transform="scale(1 1) rotate(0) translate(4 568)">
<title>BaseTruthEval::get_node_pointers</title>
<!-- Node1 -->
<g id="node1" class="node">
<title>Node1</title>
<polygon fill="#bfbfbf" stroke="#000000" points="0,-470.5 0,-502.5 112,-502.5 112,-470.5 0,-470.5"/>
<text text-anchor="start" x="8" y="-489.5" font-family="FreeSans" font-size="10.00" fill="#000000">BaseTruthEval::get</text>
<text text-anchor="middle" x="56" y="-477.5" font-family="FreeSans" font-size="10.00" fill="#000000">_node_pointers</text>
</g>
<!-- Node2 -->
<g id="node2" class="node">
<title>Node2</title>
<g id="a_node2"><a xlink:href="../../dc/d23/classBaseTruthEval.html#aef963226820e573ead16063419379558" target="_top" xlink:title="BaseTruthEval::BaseTruthEval">
<polygon fill="none" stroke="#000000" points="148,-499.5 148,-519.5 314,-519.5 314,-499.5 148,-499.5"/>
<text text-anchor="middle" x="231" y="-506.5" font-family="FreeSans" font-size="10.00" fill="#000000">BaseTruthEval::BaseTruthEval</text>
</a>
</g>
</g>
<!-- Node1&#45;&gt;Node2 -->
<g id="edge1" class="edge">
<title>Node1&#45;&gt;Node2</title>
<path fill="none" stroke="#191970" d="M122.3131,-495.2154C132.8841,-496.6048 143.8941,-498.0518 154.674,-499.4686"/>
<polygon fill="#191970" stroke="#191970" points="122.7052,-491.737 112.3344,-493.9039 121.793,-498.6773 122.7052,-491.737"/>
</g>
<!-- Node3 -->
<g id="node3" class="node">
<title>Node3</title>
<g id="a_node3"><a xlink:href="../../dc/d23/classBaseTruthEval.html#a0a01e81c2ea74c0acaf3ade678ace806" target="_top" xlink:title="reinitialize the eval for a new event">
<polygon fill="none" stroke="#000000" points="172,-448.5 172,-480.5 290,-480.5 290,-448.5 172,-448.5"/>
<text text-anchor="start" x="180" y="-467.5" font-family="FreeSans" font-size="10.00" fill="#000000">BaseTruthEval::next</text>
<text text-anchor="middle" x="231" y="-455.5" font-family="FreeSans" font-size="10.00" fill="#000000">_event</text>
</a>
</g>
</g>
<!-- Node1&#45;&gt;Node3 -->
<g id="edge2" class="edge">
<title>Node1&#45;&gt;Node3</title>
<path fill="none" stroke="#191970" d="M122.301,-478.165C138.5586,-476.1212 155.8551,-473.9468 171.7568,-471.9477"/>
<polygon fill="#191970" stroke="#191970" points="121.8197,-474.6979 112.3344,-479.418 122.6929,-481.6432 121.8197,-474.6979"/>
</g>
<!-- Node4 -->
<g id="node4" class="node">
<title>Node4</title>
<g id="a_node4"><a xlink:href="../../d7/d3c/classCaloTruthEval.html#a13d63607fef75249cc7dcbf2bda5cf33" target="_top" xlink:title="reinitialize the eval for a new event">
<polygon fill="none" stroke="#000000" points="350,-474.5 350,-506.5 465,-506.5 465,-474.5 350,-474.5"/>
<text text-anchor="start" x="358" y="-493.5" font-family="FreeSans" font-size="10.00" fill="#000000">CaloTruthEval::next</text>
<text text-anchor="middle" x="407.5" y="-481.5" font-family="FreeSans" font-size="10.00" fill="#000000">_event</text>
</a>
</g>
</g>
<!-- Node3&#45;&gt;Node4 -->
<g id="edge3" class="edge">
<title>Node3&#45;&gt;Node4</title>
<path fill="none" stroke="#191970" d="M300.3389,-474.7142C316.7461,-477.1312 334.0684,-479.6829 349.8905,-482.0136"/>
<polygon fill="#191970" stroke="#191970" points="300.6663,-471.2248 290.2629,-473.23 299.6461,-478.15 300.6663,-471.2248"/>
</g>
<!-- Node14 -->
<g id="node14" class="node">
<title>Node14</title>
<g id="a_node14"><a xlink:href="../../d4/de4/classSvtxTruthEval.html#ac13b62af4f46d9ba4e0e41f1c42e8770" target="_top" xlink:title="SvtxTruthEval::next\l_event">
<polygon fill="none" stroke="#000000" points="350,-423.5 350,-455.5 465,-455.5 465,-423.5 350,-423.5"/>
<text text-anchor="start" x="358" y="-442.5" font-family="FreeSans" font-size="10.00" fill="#000000">SvtxTruthEval::next</text>
<text text-anchor="middle" x="407.5" y="-430.5" font-family="FreeSans" font-size="10.00" fill="#000000">_event</text>
</a>
</g>
</g>
<!-- Node3&#45;&gt;Node14 -->
<g id="edge13" class="edge">
<title>Node3&#45;&gt;Node14</title>
<path fill="none" stroke="#191970" d="M300.3389,-454.6786C316.7461,-452.3547 334.0684,-449.9011 349.8905,-447.66"/>
<polygon fill="#191970" stroke="#191970" points="299.6732,-451.2379 290.2629,-456.1058 300.655,-458.1687 299.6732,-451.2379"/>
</g>
<!-- Node5 -->
<g id="node5" class="node">
<title>Node5</title>
<g id="a_node5"><a xlink:href="../../de/d0b/classCaloRawTowerEval.html#a1553c46239b752b02a3b86b77ad98389" target="_top" xlink:title="reinitialize the eval for a new event">
<polygon fill="none" stroke="#000000" points="501,-477.5 501,-509.5 641,-509.5 641,-477.5 501,-477.5"/>
<text text-anchor="start" x="509" y="-496.5" font-family="FreeSans" font-size="10.00" fill="#000000">CaloRawTowerEval::next</text>
<text text-anchor="middle" x="571" y="-484.5" font-family="FreeSans" font-size="10.00" fill="#000000">_event</text>
</a>
</g>
</g>
<!-- Node4&#45;&gt;Node5 -->
<g id="edge4" class="edge">
<title>Node4&#45;&gt;Node5</title>
<path fill="none" stroke="#191970" d="M475.3421,-491.7448C483.8069,-491.9001 492.4767,-492.0592 500.9739,-492.2151"/>
<polygon fill="#191970" stroke="#191970" points="475.2065,-488.2418 465.144,-491.5577 475.0781,-495.2407 475.2065,-488.2418"/>
</g>
<!-- Node6 -->
<g id="node6" class="node">
<title>Node6</title>
<g id="a_node6"><a xlink:href="../../da/d7e/classCaloRawClusterEval.html#a05ef076f8d5fd83f1ff552eb839f5689" target="_top" xlink:title="reinitialize the eval for a new event">
<polygon fill="none" stroke="#000000" points="681.5,-480.5 681.5,-512.5 797.5,-512.5 797.5,-480.5 681.5,-480.5"/>
<text text-anchor="start" x="689.5" y="-499.5" font-family="FreeSans" font-size="10.00" fill="#000000">CaloRawClusterEval</text>
<text text-anchor="middle" x="739.5" y="-487.5" font-family="FreeSans" font-size="10.00" fill="#000000">::next_event</text>
</a>
</g>
</g>
<!-- Node5&#45;&gt;Node6 -->
<g id="edge5" class="edge">
<title>Node5&#45;&gt;Node6</title>
<path fill="none" stroke="#191970" d="M651.4918,-494.9331C661.5459,-495.1121 671.6715,-495.2924 681.2944,-495.4637"/>
<polygon fill="#191970" stroke="#191970" points="651.5436,-491.4336 641.4829,-494.7549 651.4189,-498.4324 651.5436,-491.4336"/>
</g>
<!-- Node7 -->
<g id="node7" class="node">
<title>Node7</title>
<g id="a_node7"><a xlink:href="../../db/d10/classCaloEvalStack.html#a6d60a0a1ce8c1e26075065ea725e5351" target="_top" xlink:title="CaloEvalStack::next\l_event">
<polygon fill="none" stroke="#000000" points="838,-486.5 838,-518.5 955,-518.5 955,-486.5 838,-486.5"/>
<text text-anchor="start" x="846" y="-505.5" font-family="FreeSans" font-size="10.00" fill="#000000">CaloEvalStack::next</text>
<text text-anchor="middle" x="896.5" y="-493.5" font-family="FreeSans" font-size="10.00" fill="#000000">_event</text>
</a>
</g>
</g>
<!-- Node6&#45;&gt;Node7 -->
<g id="edge6" class="edge">
<title>Node6&#45;&gt;Node7</title>
<path fill="none" stroke="#191970" d="M807.5374,-499.1002C817.6642,-499.4872 828.0275,-499.8832 837.937,-500.2619"/>
<polygon fill="#191970" stroke="#191970" points="807.6413,-495.6017 797.5149,-498.7171 807.374,-502.5966 807.6413,-495.6017"/>
</g>
<!-- Node8 -->
<g id="node8" class="node">
<title>Node8</title>
<g id="a_node8"><a xlink:href="../../dd/d59/classCaloEvaluator.html#a936967e98c89ec58e7851b0661b838c0" target="_top" xlink:title="CaloEvaluator::process\l_event">
<polygon fill="none" stroke="#000000" points="991,-531.5 991,-563.5 1123,-563.5 1123,-531.5 991,-531.5"/>
<text text-anchor="start" x="999" y="-550.5" font-family="FreeSans" font-size="10.00" fill="#000000">CaloEvaluator::process</text>
<text text-anchor="middle" x="1057" y="-538.5" font-family="FreeSans" font-size="10.00" fill="#000000">_event</text>
</a>
</g>
</g>
<!-- Node7&#45;&gt;Node8 -->
<g id="edge7" class="edge">
<title>Node7&#45;&gt;Node8</title>
<path fill="none" stroke="#191970" d="M963.9299,-521.4056C975.9004,-524.7618 988.2615,-528.2275 999.9105,-531.4936"/>
<polygon fill="#191970" stroke="#191970" points="964.5645,-517.9486 953.9908,-518.6189 962.6747,-524.6887 964.5645,-517.9486"/>
</g>
<!-- Node9 -->
<g id="node9" class="node">
<title>Node9</title>
<g id="a_node9"><a xlink:href="../../d3/d22/classJetTruthEval.html#ac29b8d18ee116903ed233388eb253256" target="_top" xlink:title="reinitialize the eval for a new event">
<polygon fill="none" stroke="#000000" points="1332,-498.5 1332,-530.5 1439,-530.5 1439,-498.5 1332,-498.5"/>
<text text-anchor="start" x="1340" y="-517.5" font-family="FreeSans" font-size="10.00" fill="#000000">JetTruthEval::next</text>
<text text-anchor="middle" x="1385.5" y="-505.5" font-family="FreeSans" font-size="10.00" fill="#000000">_event</text>
</a>
</g>
</g>
<!-- Node7&#45;&gt;Node9 -->
<g id="edge8" class="edge">
<title>Node7&#45;&gt;Node9</title>
<path fill="none" stroke="#191970" d="M965.6338,-504.1965C1064.1347,-506.6137 1242.7847,-510.9978 1331.9188,-513.1851"/>
<polygon fill="#191970" stroke="#191970" points="965.5677,-500.694 955.4848,-503.9475 965.3959,-507.6918 965.5677,-500.694"/>
</g>
<!-- Node10 -->
<g id="node10" class="node">
<title>Node10</title>
<g id="a_node10"><a xlink:href="../../dd/d75/classJetRecoEval.html#ae02e058aa7f403d5853482b5d06c01c9" target="_top" xlink:title="reinitialize the eval for a new event">
<polygon fill="none" stroke="#000000" points="1495,-504.5 1495,-524.5 1635,-524.5 1635,-504.5 1495,-504.5"/>
<text text-anchor="middle" x="1565" y="-511.5" font-family="FreeSans" font-size="10.00" fill="#000000">JetRecoEval::next_event</text>
</a>
</g>
</g>
<!-- Node9&#45;&gt;Node10 -->
<g id="edge9" class="edge">
<title>Node9&#45;&gt;Node10</title>
<path fill="none" stroke="#191970" d="M1449.3794,-514.5C1464.1247,-514.5 1479.8886,-514.5 1494.8837,-514.5"/>
<polygon fill="#191970" stroke="#191970" points="1449.356,-511.0001 1439.3559,-514.5 1449.3559,-518.0001 1449.356,-511.0001"/>
</g>
<!-- Node11 -->
<g id="node11" class="node">
<title>Node11</title>
<g id="a_node11"><a xlink:href="../../dd/df3/classJetEvalStack.html#ab85ba05ab4fea5909c8faa238ba5f8e6" target="_top" xlink:title="JetEvalStack::next\l_event">
<polygon fill="none" stroke="#000000" points="1671,-498.5 1671,-530.5 1780,-530.5 1780,-498.5 1671,-498.5"/>
<text text-anchor="start" x="1679" y="-517.5" font-family="FreeSans" font-size="10.00" fill="#000000">JetEvalStack::next</text>
<text text-anchor="middle" x="1725.5" y="-505.5" font-family="FreeSans" font-size="10.00" fill="#000000">_event</text>
</a>
</g>
</g>
<!-- Node10&#45;&gt;Node11 -->
<g id="edge10" class="edge">
<title>Node10&#45;&gt;Node11</title>
<path fill="none" stroke="#191970" d="M1645.6705,-514.5C1654.1104,-514.5 1662.5441,-514.5 1670.5983,-514.5"/>
<polygon fill="#191970" stroke="#191970" points="1645.3977,-511.0001 1635.3976,-514.5 1645.3976,-518.0001 1645.3977,-511.0001"/>
</g>
<!-- Node12 -->
<g id="node12" class="node">
<title>Node12</title>
<g id="a_node12"><a xlink:href="../../d8/de2/classJetEnergies.html#a6acaa9b2ba1fe7353781d2f5d476e8d1" target="_top" xlink:title="JetEnergies::process\l_event">
<polygon fill="none" stroke="#000000" points="1818,-524.5 1818,-556.5 1938,-556.5 1938,-524.5 1818,-524.5"/>
<text text-anchor="start" x="1826" y="-543.5" font-family="FreeSans" font-size="10.00" fill="#000000">JetEnergies::process</text>
<text text-anchor="middle" x="1878" y="-531.5" font-family="FreeSans" font-size="10.00" fill="#000000">_event</text>
</a>
</g>
</g>
<!-- Node11&#45;&gt;Node12 -->
<g id="edge11" class="edge">
<title>Node11&#45;&gt;Node12</title>
<path fill="none" stroke="#191970" d="M1790.009,-525.4983C1799.2267,-527.0698 1808.6788,-528.6813 1817.8092,-530.238"/>
<polygon fill="#191970" stroke="#191970" points="1790.5713,-522.0437 1780.1253,-523.8132 1789.3948,-528.9441 1790.5713,-522.0437"/>
</g>
<!-- Node13 -->
<g id="node13" class="node">
<title>Node13</title>
<g id="a_node13"><a xlink:href="../../d1/df4/classJetEvaluator.html#ad83508ae828d1f2e4a83a948465a0cd2" target="_top" xlink:title="JetEvaluator::process\l_event">
<polygon fill="none" stroke="#000000" points="1816,-473.5 1816,-505.5 1940,-505.5 1940,-473.5 1816,-473.5"/>
<text text-anchor="start" x="1824" y="-492.5" font-family="FreeSans" font-size="10.00" fill="#000000">JetEvaluator::process</text>
<text text-anchor="middle" x="1878" y="-480.5" font-family="FreeSans" font-size="10.00" fill="#000000">_event</text>
</a>
</g>
</g>
<!-- Node11&#45;&gt;Node13 -->
<g id="edge12" class="edge">
<title>Node11&#45;&gt;Node13</title>
<path fill="none" stroke="#191970" d="M1790.079,-503.9133C1798.66,-502.5066 1807.443,-501.0667 1815.9793,-499.6673"/>
<polygon fill="#191970" stroke="#191970" points="1789.4273,-500.4733 1780.1253,-505.545 1790.5598,-507.3811 1789.4273,-500.4733"/>
</g>
<!-- Node15 -->
<g id="node15" class="node">
<title>Node15</title>
<g id="a_node15"><a xlink:href="../../d9/d62/classSvtxHitEval.html#a2b8bd81cd1feca366d3dec9b52f1658e" target="_top" xlink:title="SvtxHitEval::next_event">
<polygon fill="none" stroke="#000000" points="502,-429.5 502,-449.5 640,-449.5 640,-429.5 502,-429.5"/>
<text text-anchor="middle" x="571" y="-436.5" font-family="FreeSans" font-size="10.00" fill="#000000">SvtxHitEval::next_event</text>
</a>
</g>
</g>
<!-- Node14&#45;&gt;Node15 -->
<g id="edge14" class="edge">
<title>Node14&#45;&gt;Node15</title>
<path fill="none" stroke="#191970" d="M475.3023,-439.5C484.0632,-439.5 493.0443,-439.5 501.827,-439.5"/>
<polygon fill="#191970" stroke="#191970" points="475.144,-436.0001 465.144,-439.5 475.1439,-443.0001 475.144,-436.0001"/>
</g>
<!-- Node16 -->
<g id="node16" class="node">
<title>Node16</title>
<g id="a_node16"><a xlink:href="../../d1/d1e/classSvtxClusterEval.html#a0f23d4c63d0e893560d423db7e02578d" target="_top" xlink:title="SvtxClusterEval::next\l_event">
<polygon fill="none" stroke="#000000" points="677,-423.5 677,-455.5 802,-455.5 802,-423.5 677,-423.5"/>
<text text-anchor="start" x="685" y="-442.5" font-family="FreeSans" font-size="10.00" fill="#000000">SvtxClusterEval::next</text>
<text text-anchor="middle" x="739.5" y="-430.5" font-family="FreeSans" font-size="10.00" fill="#000000">_event</text>
</a>
</g>
</g>
<!-- Node15&#45;&gt;Node16 -->
<g id="edge15" class="edge">
<title>Node15&#45;&gt;Node16</title>
<path fill="none" stroke="#191970" d="M650.0887,-439.5C659.054,-439.5 668.0975,-439.5 676.8111,-439.5"/>
<polygon fill="#191970" stroke="#191970" points="650.0216,-436.0001 640.0216,-439.5 650.0215,-443.0001 650.0216,-436.0001"/>
</g>
<!-- Node17 -->
<g id="node17" class="node">
<title>Node17</title>
<g id="a_node17"><a xlink:href="../../df/dad/classSvtxTrackEval.html#aff069c6fdb0f6d80147b65a98878d90f" target="_top" xlink:title="SvtxTrackEval::next\l_event">
<polygon fill="none" stroke="#000000" points="838.5,-423.5 838.5,-455.5 954.5,-455.5 954.5,-423.5 838.5,-423.5"/>
<text text-anchor="start" x="846.5" y="-442.5" font-family="FreeSans" font-size="10.00" fill="#000000">SvtxTrackEval::next</text>
<text text-anchor="middle" x="896.5" y="-430.5" font-family="FreeSans" font-size="10.00" fill="#000000">_event</text>
</a>
</g>
</g>
<!-- Node16&#45;&gt;Node17 -->
<g id="edge16" class="edge">
<title>Node16&#45;&gt;Node17</title>
<path fill="none" stroke="#191970" d="M812.1996,-439.5C820.9469,-439.5 829.7907,-439.5 838.2935,-439.5"/>
<polygon fill="#191970" stroke="#191970" points="812.0017,-436.0001 802.0017,-439.5 812.0016,-443.0001 812.0017,-436.0001"/>
</g>
<!-- Node18 -->
<g id="node18" class="node">
<title>Node18</title>
<g id="a_node18"><a xlink:href="../../d4/d21/classSvtxVertexEval.html#ad872cdf8407f2f483af522aed6786a40" target="_top" xlink:title="SvtxVertexEval::next\l_event">
<polygon fill="none" stroke="#000000" points="996,-327.5 996,-359.5 1118,-359.5 1118,-327.5 996,-327.5"/>
<text text-anchor="start" x="1004" y="-346.5" font-family="FreeSans" font-size="10.00" fill="#000000">SvtxVertexEval::next</text>
<text text-anchor="middle" x="1057" y="-334.5" font-family="FreeSans" font-size="10.00" fill="#000000">_event</text>
</a>
</g>
</g>
<!-- Node17&#45;&gt;Node18 -->
<g id="edge17" class="edge">
<title>Node17&#45;&gt;Node18</title>
<path fill="none" stroke="#191970" d="M932.136,-418.185C961.7221,-400.4887 1003.1667,-375.6993 1030.0483,-359.6207"/>
<polygon fill="#191970" stroke="#191970" points="930.1495,-415.2948 923.3641,-423.4318 933.7427,-421.3023 930.1495,-415.2948"/>
</g>
<!-- Node19 -->
<g id="node19" class="node">
<title>Node19</title>
<g id="a_node19"><a xlink:href="../../d3/ded/classSvtxEvalStack.html#a8a929a1f521c9e8596ecb1ca108281cf" target="_top" xlink:title="SvtxEvalStack::next\l_event">
<polygon fill="none" stroke="#000000" points="1159,-279.5 1159,-311.5 1276,-311.5 1276,-279.5 1159,-279.5"/>
<text text-anchor="start" x="1167" y="-298.5" font-family="FreeSans" font-size="10.00" fill="#000000">SvtxEvalStack::next</text>
<text text-anchor="middle" x="1217.5" y="-286.5" font-family="FreeSans" font-size="10.00" fill="#000000">_event</text>
</a>
</g>
</g>
<!-- Node18&#45;&gt;Node19 -->
<g id="edge18" class="edge">
<title>Node18&#45;&gt;Node19</title>
<path fill="none" stroke="#191970" d="M1120.6343,-324.4692C1134.9117,-320.1993 1149.923,-315.71 1163.7516,-311.5743"/>
<polygon fill="#191970" stroke="#191970" points="1119.4685,-321.1646 1110.8907,-327.3832 1121.4743,-327.8711 1119.4685,-321.1646"/>
</g>
<!-- Node19&#45;&gt;Node9 -->
<g id="edge28" class="edge">
<title>Node19&#45;&gt;Node9</title>
<path fill="none" stroke="#191970" d="M1223.4791,-321.5784C1234.2217,-362.7255 1260.6192,-442.7272 1312,-488.5 1317.7607,-493.632 1324.5999,-497.7676 1331.7518,-501.0961"/>
<polygon fill="#191970" stroke="#191970" points="1226.8462,-320.6157 1221.0234,-311.7644 1220.0556,-322.3149 1226.8462,-320.6157"/>
</g>
<!-- Node20 -->
<g id="node20" class="node">
<title>Node20</title>
<g id="a_node20"><a xlink:href="../../db/d4b/classEMCalAna.html#a3b829b80df0fd8625130f3d9c11f5d3d" target="_top" xlink:title="EMCalAna::process_event">
<polygon fill="none" stroke="#000000" points="1312,-459.5 1312,-479.5 1459,-479.5 1459,-459.5 1312,-459.5"/>
<text text-anchor="middle" x="1385.5" y="-466.5" font-family="FreeSans" font-size="10.00" fill="#000000">EMCalAna::process_event</text>
</a>
</g>
</g>
<!-- Node19&#45;&gt;Node20 -->
<g id="edge19" class="edge">
<title>Node19&#45;&gt;Node20</title>
<path fill="none" stroke="#191970" d="M1226.3455,-321.1845C1239.5383,-355.6288 1267.6748,-416.2878 1312,-449.5 1317.5032,-453.6235 1323.8034,-456.897 1330.3496,-459.4957"/>
<polygon fill="#191970" stroke="#191970" points="1229.6267,-319.9664 1222.8742,-311.8022 1223.0616,-322.3954 1229.6267,-319.9664"/>
</g>
<!-- Node21 -->
<g id="node21" class="node">
<title>Node21</title>
<g id="a_node21"><a xlink:href="../../de/da4/classEMCalCalib.html#aa70da6270813e434e35da37b6ec2a350" target="_top" xlink:title="EMCalCalib::process\l_event">
<polygon fill="none" stroke="#000000" points="1326.5,-408.5 1326.5,-440.5 1444.5,-440.5 1444.5,-408.5 1326.5,-408.5"/>
<text text-anchor="start" x="1334.5" y="-427.5" font-family="FreeSans" font-size="10.00" fill="#000000">EMCalCalib::process</text>
<text text-anchor="middle" x="1385.5" y="-415.5" font-family="FreeSans" font-size="10.00" fill="#000000">_event</text>
</a>
</g>
</g>
<!-- Node19&#45;&gt;Node21 -->
<g id="edge20" class="edge">
<title>Node19&#45;&gt;Node21</title>
<path fill="none" stroke="#191970" d="M1234.4349,-320.0009C1251.5745,-343.1451 1280.0492,-377.3742 1312,-398.5 1317.6452,-402.2326 1323.8891,-405.499 1330.2824,-408.3389"/>
<polygon fill="#191970" stroke="#191970" points="1237.1392,-317.7678 1228.4374,-311.7238 1231.4708,-321.8751 1237.1392,-317.7678"/>
</g>
<!-- Node22 -->
<g id="node22" class="node">
<title>Node22</title>
<g id="a_node22"><a xlink:href="../../d7/d62/classHFMLTriggerInterface.html#a29f338c2563a39e5d0e58b316f4b036f" target="_top" xlink:title="HFMLTriggerInterface\l::process_event">
<polygon fill="none" stroke="#000000" points="1324.5,-357.5 1324.5,-389.5 1446.5,-389.5 1446.5,-357.5 1324.5,-357.5"/>
<text text-anchor="start" x="1332.5" y="-376.5" font-family="FreeSans" font-size="10.00" fill="#000000">HFMLTriggerInterface</text>
<text text-anchor="middle" x="1385.5" y="-364.5" font-family="FreeSans" font-size="10.00" fill="#000000">::process_event</text>
</a>
</g>
</g>
<!-- Node19&#45;&gt;Node22 -->
<g id="edge21" class="edge">
<title>Node19&#45;&gt;Node22</title>
<path fill="none" stroke="#191970" d="M1252.9144,-316.7829C1270.3622,-326.8011 1291.9202,-338.4962 1312,-347.5 1319.7808,-350.9889 1328.1833,-354.3353 1336.4303,-357.3979"/>
<polygon fill="#191970" stroke="#191970" points="1254.6,-313.7144 1244.1945,-311.72 1251.0851,-319.768 1254.6,-313.7144"/>
</g>
<!-- Node23 -->
<g id="node23" class="node">
<title>Node23</title>
<g id="a_node23"><a xlink:href="../../da/dbf/classHFMLTriggerOccupancy.html#add094957c68c32da4afc212ffa24e885" target="_top" xlink:title="HFMLTriggerOccupancy\l::process_event">
<polygon fill="none" stroke="#000000" points="1318.5,-306.5 1318.5,-338.5 1452.5,-338.5 1452.5,-306.5 1318.5,-306.5"/>
<text text-anchor="start" x="1326.5" y="-325.5" font-family="FreeSans" font-size="10.00" fill="#000000">HFMLTriggerOccupancy</text>
<text text-anchor="middle" x="1385.5" y="-313.5" font-family="FreeSans" font-size="10.00" fill="#000000">::process_event</text>
</a>
</g>
</g>
<!-- Node19&#45;&gt;Node23 -->
<g id="edge22" class="edge">
<title>Node19&#45;&gt;Node23</title>
<path fill="none" stroke="#191970" d="M1286.3068,-306.5582C1296.9187,-308.2637 1307.8651,-310.023 1318.4381,-311.7222"/>
<polygon fill="#191970" stroke="#191970" points="1286.687,-303.0745 1276.2582,-304.9433 1285.5762,-309.9858 1286.687,-303.0745"/>
</g>
<!-- Node24 -->
<g id="node24" class="node">
<title>Node24</title>
<g id="a_node24"><a xlink:href="../../dc/d65/classPhotonJet.html#a3f9d3ec941f851bc2246ceb0c5362c9f" target="_top" xlink:title="PhotonJet::process\l_event">
<polygon fill="none" stroke="#000000" points="1330.5,-255.5 1330.5,-287.5 1440.5,-287.5 1440.5,-255.5 1330.5,-255.5"/>
<text text-anchor="start" x="1338.5" y="-274.5" font-family="FreeSans" font-size="10.00" fill="#000000">PhotonJet::process</text>
<text text-anchor="middle" x="1385.5" y="-262.5" font-family="FreeSans" font-size="10.00" fill="#000000">_event</text>
</a>
</g>
</g>
<!-- Node19&#45;&gt;Node24 -->
<g id="edge23" class="edge">
<title>Node19&#45;&gt;Node24</title>
<path fill="none" stroke="#191970" d="M1286.3068,-285.6705C1301.0029,-283.571 1316.3409,-281.3799 1330.4396,-279.3658"/>
<polygon fill="#191970" stroke="#191970" points="1285.6627,-282.2268 1276.2582,-287.106 1286.6527,-289.1565 1285.6627,-282.2268"/>
</g>
<!-- Node25 -->
<g id="node25" class="node">
<title>Node25</title>
<g id="a_node25"><a xlink:href="../../d8/d98/classpsTOFTimezeroEval.html#a2e98730e1beaa91c36947c0fe671fdd2" target="_top" xlink:title="psTOFTimezeroEval::\lprocess_event">
<polygon fill="none" stroke="#000000" points="1324.5,-204.5 1324.5,-236.5 1446.5,-236.5 1446.5,-204.5 1324.5,-204.5"/>
<text text-anchor="start" x="1332.5" y="-223.5" font-family="FreeSans" font-size="10.00" fill="#000000">psTOFTimezeroEval::</text>
<text text-anchor="middle" x="1385.5" y="-211.5" font-family="FreeSans" font-size="10.00" fill="#000000">process_event</text>
</a>
</g>
</g>
<!-- Node19&#45;&gt;Node25 -->
<g id="edge24" class="edge">
<title>Node19&#45;&gt;Node25</title>
<path fill="none" stroke="#191970" d="M1254.1989,-274.3371C1271.4316,-264.8557 1292.4431,-253.9364 1312,-245.5 1319.3018,-242.3502 1327.142,-239.3243 1334.8845,-236.5326"/>
<polygon fill="#191970" stroke="#191970" points="1252.0823,-271.5095 1245.0472,-279.4316 1255.4871,-277.6257 1252.0823,-271.5095"/>
</g>
<!-- Node26 -->
<g id="node26" class="node">
<title>Node26</title>
<g id="a_node26"><a xlink:href="../../db/d2f/classAnaSvtxTracksForGenFit.html#a6f277cfc1d441b018fccacf6fb882dd0" target="_top" xlink:title="AnaSvtxTracksForGenFit\l::process_event">
<polygon fill="none" stroke="#000000" points="1315.5,-153.5 1315.5,-185.5 1455.5,-185.5 1455.5,-153.5 1315.5,-153.5"/>
<text text-anchor="start" x="1323.5" y="-172.5" font-family="FreeSans" font-size="10.00" fill="#000000">AnaSvtxTracksForGenFit</text>
<text text-anchor="middle" x="1385.5" y="-160.5" font-family="FreeSans" font-size="10.00" fill="#000000">::process_event</text>
</a>
</g>
</g>
<!-- Node19&#45;&gt;Node26 -->
<g id="edge25" class="edge">
<title>Node19&#45;&gt;Node26</title>
<path fill="none" stroke="#191970" d="M1234.7732,-271.0202C1251.9777,-248.2807 1280.3363,-214.9408 1312,-194.5 1317.2089,-191.1373 1322.919,-188.1759 1328.782,-185.5802"/>
<polygon fill="#191970" stroke="#191970" points="1231.8788,-269.0475 1228.7418,-279.1673 1237.5049,-273.2126 1231.8788,-269.0475"/>
</g>
<!-- Node27 -->
<g id="node27" class="node">
<title>Node27</title>
<g id="a_node27"><a xlink:href="../../dc/dfb/classGenFitTrackProp.html#a92a3570ed1802ba0f7e9eeb50eb9a6ec" target="_top" xlink:title="Process Event, called for each event.">
<polygon fill="none" stroke="#000000" points="1314,-102.5 1314,-134.5 1457,-134.5 1457,-102.5 1314,-102.5"/>
<text text-anchor="start" x="1322" y="-121.5" font-family="FreeSans" font-size="10.00" fill="#000000">GenFitTrackProp::process</text>
<text text-anchor="middle" x="1385.5" y="-109.5" font-family="FreeSans" font-size="10.00" fill="#000000">_event</text>
</a>
</g>
</g>
<!-- Node19&#45;&gt;Node27 -->
<g id="edge26" class="edge">
<title>Node19&#45;&gt;Node27</title>
<path fill="none" stroke="#191970" d="M1227.1284,-269.5813C1240.9245,-235.8684 1269.4412,-177.3015 1312,-143.5 1316.3273,-140.0631 1321.1538,-137.0858 1326.2086,-134.5091"/>
<polygon fill="#191970" stroke="#191970" points="1223.7506,-268.605 1223.3203,-279.1911 1230.2582,-271.1839 1223.7506,-268.605"/>
</g>
<!-- Node28 -->
<g id="node28" class="node">
<title>Node28</title>
<g id="a_node28"><a xlink:href="../../d2/d85/classSvtxEvaluatorHaiwang.html#ab63ca0cc53b56dad65b89d9b18220bce" target="_top" xlink:title="SvtxEvaluatorHaiwang\l::process_event">
<polygon fill="none" stroke="#000000" points="1320,-51.5 1320,-83.5 1451,-83.5 1451,-51.5 1320,-51.5"/>
<text text-anchor="start" x="1328" y="-70.5" font-family="FreeSans" font-size="10.00" fill="#000000">SvtxEvaluatorHaiwang</text>
<text text-anchor="middle" x="1385.5" y="-58.5" font-family="FreeSans" font-size="10.00" fill="#000000">::process_event</text>
</a>
</g>
</g>
<!-- Node19&#45;&gt;Node28 -->
<g id="edge27" class="edge">
<title>Node19&#45;&gt;Node28</title>
<path fill="none" stroke="#191970" d="M1222.6549,-269.5704C1232.5011,-226.6997 1257.9939,-140.9758 1312,-92.5 1315.8115,-89.0788 1320.111,-86.1224 1324.6695,-83.5682"/>
<polygon fill="#191970" stroke="#191970" points="1219.2012,-268.9804 1220.4809,-279.4976 1226.0392,-270.4779 1219.2012,-268.9804"/>
</g>
<!-- Node29 -->
<g id="node29" class="node">
<title>Node29</title>
<g id="a_node29"><a xlink:href="../../d6/d11/classSvtxEvaluator.html#ac66ea4145deb621d9e4fb38cf852dc33" target="_top" xlink:title="SvtxEvaluator::process\l_event">
<polygon fill="none" stroke="#000000" points="1319.5,-.5 1319.5,-32.5 1451.5,-32.5 1451.5,-.5 1319.5,-.5"/>
<text text-anchor="start" x="1327.5" y="-19.5" font-family="FreeSans" font-size="10.00" fill="#000000">SvtxEvaluator::process</text>
<text text-anchor="middle" x="1385.5" y="-7.5" font-family="FreeSans" font-size="10.00" fill="#000000">_event</text>
</a>
</g>
</g>
<!-- Node19&#45;&gt;Node29 -->
<g id="edge29" class="edge">
<title>Node19&#45;&gt;Node29</title>
<path fill="none" stroke="#191970" d="M1219.9476,-269.0439C1226.0744,-217.9294 1246.6234,-105.0509 1312,-41.5 1315.4793,-38.1179 1319.4335,-35.1926 1323.6603,-32.6626"/>
<polygon fill="#191970" stroke="#191970" points="1216.4389,-268.9302 1218.8198,-279.254 1223.3966,-269.6987 1216.4389,-268.9302"/>
</g>
</g>
</svg>
