<?xml version="1.0" encoding="UTF-8" standalone="no"?>
<!DOCTYPE svg PUBLIC "-//W3C//DTD SVG 1.1//EN"
 "http://www.w3.org/Graphics/SVG/1.1/DTD/svg11.dtd">
<!-- Generated by graphviz version 2.40.1 (20161225.0304)
 -->
<!-- Title: SvtxTrack::get_z Pages: 1 -->
<svg width="923pt" height="1079pt"
 viewBox="0.00 0.00 923.00 1079.00" xmlns="http://www.w3.org/2000/svg" xmlns:xlink="http://www.w3.org/1999/xlink">
<g id="graph0" class="graph" transform="scale(1 1) rotate(0) translate(4 1075)">
<title>SvtxTrack::get_z</title>
<!-- Node1 -->
<g id="node1" class="node">
<title>Node1</title>
<polygon fill="#bfbfbf" stroke="#000000" points="0,-441.5 0,-461.5 98,-461.5 98,-441.5 0,-441.5"/>
<text text-anchor="middle" x="49" y="-448.5" font-family="FreeSans" font-size="10.00" fill="#000000">SvtxTrack::get_z</text>
</g>
<!-- Node2 -->
<g id="node2" class="node">
<title>Node2</title>
<g id="a_node2"><a xlink:href="../../df/d9b/classRecoConversionEval.html#a00a3aa4c62b9c6944f86ec1e1044e8a3" target="_top" xlink:title="RecoConversionEval\l::approachDistance">
<polygon fill="none" stroke="#000000" points="160,-917.5 160,-949.5 279,-949.5 279,-917.5 160,-917.5"/>
<text text-anchor="start" x="168" y="-936.5" font-family="FreeSans" font-size="10.00" fill="#000000">RecoConversionEval</text>
<text text-anchor="middle" x="219.5" y="-924.5" font-family="FreeSans" font-size="10.00" fill="#000000">::approachDistance</text>
</a>
</g>
</g>
<!-- Node1&#45;&gt;Node2 -->
<g id="edge1" class="edge">
<title>Node1&#45;&gt;Node2</title>
<path fill="none" stroke="#191970" d="M50.0275,-471.976C54.4496,-552.021 74.4174,-842.6021 134,-908.5 140.9493,-916.1859 150.1176,-921.5611 159.8673,-925.3087"/>
<polygon fill="#191970" stroke="#191970" points="53.5098,-471.5462 49.485,-461.7456 46.5196,-471.9169 53.5098,-471.5462"/>
</g>
<!-- Node3 -->
<g id="node3" class="node">
<title>Node3</title>
<g id="a_node3"><a xlink:href="../../dc/d41/classConversion.html#ad0069d0c8f0665e3c01e8f4f5e8a8e80" target="_top" xlink:title="Conversion::approachDistance">
<polygon fill="none" stroke="#000000" points="134,-878.5 134,-898.5 305,-898.5 305,-878.5 134,-878.5"/>
<text text-anchor="middle" x="219.5" y="-885.5" font-family="FreeSans" font-size="10.00" fill="#000000">Conversion::approachDistance</text>
</a>
</g>
</g>
<!-- Node1&#45;&gt;Node3 -->
<g id="edge2" class="edge">
<title>Node1&#45;&gt;Node3</title>
<path fill="none" stroke="#191970" d="M50.3384,-471.8026C54.7392,-527.3884 72.2317,-685.4325 134,-798.5 152.5982,-832.5443 187.3126,-863.2084 206.2851,-878.4148"/>
<polygon fill="#191970" stroke="#191970" points="53.8086,-471.2667 49.5868,-461.5494 46.8273,-471.7785 53.8086,-471.2667"/>
</g>
<!-- Node8 -->
<g id="node8" class="node">
<title>Node8</title>
<g id="a_node8"><a xlink:href="../../de/da4/classEMCalCalib.html#ac80fa52a42070fa6210a5c69f9c10fed" target="_top" xlink:title="project a photon to calorimeters and collect towers around it">
<polygon fill="none" stroke="#000000" points="149,-717.5 149,-737.5 290,-737.5 290,-717.5 149,-717.5"/>
<text text-anchor="middle" x="219.5" y="-724.5" font-family="FreeSans" font-size="10.00" fill="#000000">EMCalCalib::eval_photon</text>
</a>
</g>
</g>
<!-- Node1&#45;&gt;Node8 -->
<g id="edge8" class="edge">
<title>Node1&#45;&gt;Node8</title>
<path fill="none" stroke="#191970" d="M53.3281,-471.7441C65.1817,-525.4162 99.586,-669.5037 134,-702.5 140.8095,-709.029 149.2284,-713.8659 158.103,-717.4465"/>
<polygon fill="#191970" stroke="#191970" points="56.6965,-470.7624 51.1491,-461.736 49.8567,-472.2517 56.6965,-470.7624"/>
</g>
<!-- Node11 -->
<g id="node11" class="node">
<title>Node11</title>
<g id="a_node11"><a xlink:href="../../db/d4b/classEMCalAna.html#a058c1f2ec1ef8b8f7786737eb6e3151b" target="_top" xlink:title="EMCalAna::eval_trk">
<polygon fill="none" stroke="#000000" points="374.5,-639.5 374.5,-659.5 488.5,-659.5 488.5,-639.5 374.5,-639.5"/>
<text text-anchor="middle" x="431.5" y="-646.5" font-family="FreeSans" font-size="10.00" fill="#000000">EMCalAna::eval_trk</text>
</a>
</g>
</g>
<!-- Node1&#45;&gt;Node11 -->
<g id="edge11" class="edge">
<title>Node1&#45;&gt;Node11</title>
<path fill="none" stroke="#191970" d="M53.7667,-471.5497C65.9514,-520.9207 99.7018,-646.06 134,-669.5 220.5456,-728.6468 356.3208,-681.7074 409.2908,-659.505"/>
<polygon fill="#191970" stroke="#191970" points="57.142,-470.6167 51.3813,-461.7248 50.3396,-472.2683 57.142,-470.6167"/>
</g>
<!-- Node15 -->
<g id="node15" class="node">
<title>Node15</title>
<g id="a_node15"><a xlink:href="../../db/d4b/classEMCalAna.html#a1158ea15e948f053751b7d169c3cef4d" target="_top" xlink:title="EMCalAna::eval_trk_proj">
<polygon fill="none" stroke="#000000" points="150.5,-639.5 150.5,-659.5 288.5,-659.5 288.5,-639.5 150.5,-639.5"/>
<text text-anchor="middle" x="219.5" y="-646.5" font-family="FreeSans" font-size="10.00" fill="#000000">EMCalAna::eval_trk_proj</text>
</a>
</g>
</g>
<!-- Node1&#45;&gt;Node15 -->
<g id="edge16" class="edge">
<title>Node1&#45;&gt;Node15</title>
<path fill="none" stroke="#191970" d="M52.5823,-471.6751C60.3353,-509.1202 82.3192,-589.2972 134,-630.5 138.8748,-634.3864 144.3812,-637.5153 150.1918,-640.0297"/>
<polygon fill="#191970" stroke="#191970" points="55.9526,-470.6692 50.6159,-461.5166 49.0802,-471.9995 55.9526,-470.6692"/>
</g>
<!-- Node16 -->
<g id="node16" class="node">
<title>Node16</title>
<g id="a_node16"><a xlink:href="../../d4/d90/classQAG4SimulationCalorimeterSum.html#a2d446f5f510ab16326c0b748163849e1" target="_top" xlink:title="fetch tower around track and histogram energy distributions">
<polygon fill="none" stroke="#000000" points="140,-588.5 140,-620.5 299,-620.5 299,-588.5 140,-588.5"/>
<text text-anchor="start" x="148" y="-607.5" font-family="FreeSans" font-size="10.00" fill="#000000">QAG4SimulationCalorimeter</text>
<text text-anchor="middle" x="219.5" y="-595.5" font-family="FreeSans" font-size="10.00" fill="#000000">Sum::eval_trk_proj</text>
</a>
</g>
</g>
<!-- Node1&#45;&gt;Node16 -->
<g id="edge18" class="edge">
<title>Node1&#45;&gt;Node16</title>
<path fill="none" stroke="#191970" d="M56.801,-471.1176C69.0159,-499.3159 95.3293,-551.0352 134,-579.5 138.6083,-582.8921 143.6706,-585.8259 148.9593,-588.363"/>
<polygon fill="#191970" stroke="#191970" points="59.894,-469.441 52.8135,-461.5595 53.4337,-472.1362 59.894,-469.441"/>
</g>
<!-- Node19 -->
<g id="node19" class="node">
<title>Node19</title>
<g id="a_node19"><a xlink:href="../../d2/d93/classTrkrEvaluator.html#a753a5ea1a91f097f5c226f5b1620db3f" target="_top" xlink:title="dump the evaluator information into ntuple for external analysis">
<polygon fill="none" stroke="#000000" points="150,-537.5 150,-569.5 289,-569.5 289,-537.5 150,-537.5"/>
<text text-anchor="start" x="158" y="-556.5" font-family="FreeSans" font-size="10.00" fill="#000000">TrkrEvaluator::fillOutput</text>
<text text-anchor="middle" x="219.5" y="-544.5" font-family="FreeSans" font-size="10.00" fill="#000000">Ntuples</text>
</a>
</g>
</g>
<!-- Node1&#45;&gt;Node19 -->
<g id="edge21" class="edge">
<title>Node1&#45;&gt;Node19</title>
<path fill="none" stroke="#191970" d="M64.2125,-469.3501C79.9979,-486.8031 106.2268,-512.9553 134,-528.5 140.0729,-531.899 146.6526,-534.8755 153.3734,-537.473"/>
<polygon fill="#191970" stroke="#191970" points="66.583,-466.7466 57.3413,-461.5657 61.335,-471.379 66.583,-466.7466"/>
</g>
<!-- Node21 -->
<g id="node21" class="node">
<title>Node21</title>
<g id="a_node21"><a xlink:href="../../d8/d98/classpsTOFTimezeroEval.html#ae9fd1570652089bed4ec7eb81009b318" target="_top" xlink:title="dump the evaluator information into ntuple for external analysis">
<polygon fill="none" stroke="#000000" points="158.5,-486.5 158.5,-518.5 280.5,-518.5 280.5,-486.5 158.5,-486.5"/>
<text text-anchor="start" x="166.5" y="-505.5" font-family="FreeSans" font-size="10.00" fill="#000000">psTOFTimezeroEval::</text>
<text text-anchor="middle" x="219.5" y="-493.5" font-family="FreeSans" font-size="10.00" fill="#000000">fillOutputNtuples</text>
</a>
</g>
</g>
<!-- Node1&#45;&gt;Node21 -->
<g id="edge23" class="edge">
<title>Node1&#45;&gt;Node21</title>
<path fill="none" stroke="#191970" d="M91.275,-464.5439C104.9028,-468.7186 120.0805,-473.3363 134,-477.5 143.779,-480.4252 154.1986,-483.5037 164.2786,-486.4621"/>
<polygon fill="#191970" stroke="#191970" points="92.2527,-461.1829 81.6659,-461.5953 90.1992,-467.8749 92.2527,-461.1829"/>
</g>
<!-- Node23 -->
<g id="node23" class="node">
<title>Node23</title>
<g id="a_node23"><a xlink:href="../../d2/d85/classSvtxEvaluatorHaiwang.html#a0fd261422264aedc22d0506ef5e897c4" target="_top" xlink:title="dump the evaluator information into ntuple for external analysis">
<polygon fill="none" stroke="#000000" points="154,-435.5 154,-467.5 285,-467.5 285,-435.5 154,-435.5"/>
<text text-anchor="start" x="162" y="-454.5" font-family="FreeSans" font-size="10.00" fill="#000000">SvtxEvaluatorHaiwang</text>
<text text-anchor="middle" x="219.5" y="-442.5" font-family="FreeSans" font-size="10.00" fill="#000000">::fillOutputNtuples</text>
</a>
</g>
</g>
<!-- Node1&#45;&gt;Node23 -->
<g id="edge25" class="edge">
<title>Node1&#45;&gt;Node23</title>
<path fill="none" stroke="#191970" d="M108.7072,-451.5C123.2826,-451.5 138.9556,-451.5 153.7937,-451.5"/>
<polygon fill="#191970" stroke="#191970" points="108.3157,-448.0001 98.3157,-451.5 108.3156,-455.0001 108.3157,-448.0001"/>
</g>
<!-- Node25 -->
<g id="node25" class="node">
<title>Node25</title>
<g id="a_node25"><a xlink:href="../../d6/d11/classSvtxEvaluator.html#ace95fef2b7b4ad8b797f6695e053dd6e" target="_top" xlink:title="dump the evaluator information into ntuple for external analysis">
<polygon fill="none" stroke="#000000" points="149,-384.5 149,-416.5 290,-416.5 290,-384.5 149,-384.5"/>
<text text-anchor="start" x="157" y="-403.5" font-family="FreeSans" font-size="10.00" fill="#000000">SvtxEvaluator::fillOutput</text>
<text text-anchor="middle" x="219.5" y="-391.5" font-family="FreeSans" font-size="10.00" fill="#000000">Ntuples</text>
</a>
</g>
</g>
<!-- Node1&#45;&gt;Node25 -->
<g id="edge27" class="edge">
<title>Node1&#45;&gt;Node25</title>
<path fill="none" stroke="#191970" d="M92.5386,-438.4767C114.8258,-431.8102 142.1603,-423.6339 165.7502,-416.5777"/>
<polygon fill="#191970" stroke="#191970" points="91.2629,-435.205 82.6853,-441.424 93.2689,-441.9114 91.2629,-435.205"/>
</g>
<!-- Node27 -->
<g id="node27" class="node">
<title>Node27</title>
<g id="a_node27"><a xlink:href="../../dc/d65/classPhotonJet.html#a9b2de7dcbd5e3bbbd26150d418b7bb44" target="_top" xlink:title="PhotonJet::GetRecoHadrons\lAndJets">
<polygon fill="none" stroke="#000000" points="141.5,-294.5 141.5,-326.5 297.5,-326.5 297.5,-294.5 141.5,-294.5"/>
<text text-anchor="start" x="149.5" y="-313.5" font-family="FreeSans" font-size="10.00" fill="#000000">PhotonJet::GetRecoHadrons</text>
<text text-anchor="middle" x="219.5" y="-301.5" font-family="FreeSans" font-size="10.00" fill="#000000">AndJets</text>
</a>
</g>
</g>
<!-- Node1&#45;&gt;Node27 -->
<g id="edge29" class="edge">
<title>Node1&#45;&gt;Node27</title>
<path fill="none" stroke="#191970" d="M59.129,-432.5009C72.9928,-408.186 100.0723,-366.2564 134,-341.5 142.163,-335.5436 151.5883,-330.6279 161.1345,-326.6048"/>
<polygon fill="#191970" stroke="#191970" points="55.9519,-431.0134 54.1679,-441.4569 62.0752,-434.4054 55.9519,-431.0134"/>
</g>
<!-- Node28 -->
<g id="node28" class="node">
<title>Node28</title>
<g id="a_node28"><a xlink:href="../../dc/d65/classPhotonJet.html#a3f9d3ec941f851bc2246ceb0c5362c9f" target="_top" xlink:title="PhotonJet::process\l_event">
<polygon fill="none" stroke="#000000" points="376.5,-313.5 376.5,-345.5 486.5,-345.5 486.5,-313.5 376.5,-313.5"/>
<text text-anchor="start" x="384.5" y="-332.5" font-family="FreeSans" font-size="10.00" fill="#000000">PhotonJet::process</text>
<text text-anchor="middle" x="431.5" y="-320.5" font-family="FreeSans" font-size="10.00" fill="#000000">_event</text>
</a>
</g>
</g>
<!-- Node1&#45;&gt;Node28 -->
<g id="edge47" class="edge">
<title>Node1&#45;&gt;Node28</title>
<path fill="none" stroke="#191970" d="M63.6099,-433.3969C79.091,-415.5688 105.2382,-389.0926 134,-375.5 175.8772,-355.7092 302.384,-341.2719 376.2525,-334.2623"/>
<polygon fill="#191970" stroke="#191970" points="60.6679,-431.4568 56.9022,-441.3599 66.0216,-435.9666 60.6679,-431.4568"/>
</g>
<!-- Node29 -->
<g id="node29" class="node">
<title>Node29</title>
<g id="a_node29"><a xlink:href="../../d6/d17/classSVReco.html#af99925be18cc9afbb2b9936df3a925db" target="_top" xlink:title="Uses the tracking clusters exclusively to make a GFTrack.">
<polygon fill="none" stroke="#000000" points="146,-768.5 146,-788.5 293,-788.5 293,-768.5 146,-768.5"/>
<text text-anchor="middle" x="219.5" y="-775.5" font-family="FreeSans" font-size="10.00" fill="#000000">SVReco::MakeGenFitTrack</text>
</a>
</g>
</g>
<!-- Node1&#45;&gt;Node29 -->
<g id="edge31" class="edge">
<title>Node1&#45;&gt;Node29</title>
<path fill="none" stroke="#191970" d="M52.3317,-471.5812C62.6033,-531.3009 95.4288,-706.2045 134,-747.5 143.0532,-757.1926 155.3707,-763.8621 167.8355,-768.4488"/>
<polygon fill="#191970" stroke="#191970" points="55.7513,-470.8119 50.6312,-461.5364 48.8495,-471.9804 55.7513,-470.8119"/>
</g>
<!-- Node38 -->
<g id="node38" class="node">
<title>Node38</title>
<g id="a_node38"><a xlink:href="../../df/dd7/classTpcPrototypeGenFitTrkFitter.html#a7d58d6e2d72346f8c2eb6aa9cf897c9b" target="_top" xlink:title="Make TpcPrototypeTrack from SvtxTrack, refit by &quot;excluding&quot; each cluster.">
<polygon fill="none" stroke="#000000" points="141,-243.5 141,-275.5 298,-275.5 298,-243.5 141,-243.5"/>
<text text-anchor="start" x="149" y="-262.5" font-family="FreeSans" font-size="10.00" fill="#000000">TpcPrototypeGenFitTrkFitter</text>
<text text-anchor="middle" x="219.5" y="-250.5" font-family="FreeSans" font-size="10.00" fill="#000000">::MakeTpcPrototypeTrack</text>
</a>
</g>
</g>
<!-- Node1&#45;&gt;Node38 -->
<g id="edge42" class="edge">
<title>Node1&#45;&gt;Node38</title>
<path fill="none" stroke="#191970" d="M53.833,-431.1788C63.2006,-396.2149 87.1557,-324.6676 134,-285.5 138.642,-281.6187 143.854,-278.3166 149.3545,-275.5073"/>
<polygon fill="#191970" stroke="#191970" points="50.3679,-430.6036 51.2936,-441.1579 57.1517,-432.3299 50.3679,-430.6036"/>
</g>
<!-- Node41 -->
<g id="node41" class="node">
<title>Node41</title>
<g id="a_node41"><a xlink:href="../../d8/dc7/classMomentumEvaluator.html#a19c5f2c6d74578feea3513322e9f1fe3" target="_top" xlink:title="MomentumEvaluator::\lprocess_event">
<polygon fill="none" stroke="#000000" points="155.5,-192.5 155.5,-224.5 283.5,-224.5 283.5,-192.5 155.5,-192.5"/>
<text text-anchor="start" x="163.5" y="-211.5" font-family="FreeSans" font-size="10.00" fill="#000000">MomentumEvaluator::</text>
<text text-anchor="middle" x="219.5" y="-199.5" font-family="FreeSans" font-size="10.00" fill="#000000">process_event</text>
</a>
</g>
</g>
<!-- Node1&#45;&gt;Node41 -->
<g id="edge45" class="edge">
<title>Node1&#45;&gt;Node41</title>
<path fill="none" stroke="#191970" d="M51.1079,-431.0947C56.6217,-388.314 75.3722,-288.7174 134,-234.5 140.151,-228.8117 147.5114,-224.3663 155.2972,-220.8925"/>
<polygon fill="#191970" stroke="#191970" points="47.6198,-430.7892 49.9278,-441.1296 54.5719,-431.6068 47.6198,-430.7892"/>
</g>
<!-- Node42 -->
<g id="node42" class="node">
<title>Node42</title>
<g id="a_node42"><a xlink:href="../../db/d4c/classBJetModule.html#a93ec29147c2d7aea52780d7370141e74" target="_top" xlink:title="BJetModule::process\l_event">
<polygon fill="none" stroke="#000000" points="160,-141.5 160,-173.5 279,-173.5 279,-141.5 160,-141.5"/>
<text text-anchor="start" x="168" y="-160.5" font-family="FreeSans" font-size="10.00" fill="#000000">BJetModule::process</text>
<text text-anchor="middle" x="219.5" y="-148.5" font-family="FreeSans" font-size="10.00" fill="#000000">_event</text>
</a>
</g>
</g>
<!-- Node1&#45;&gt;Node42 -->
<g id="edge46" class="edge">
<title>Node1&#45;&gt;Node42</title>
<path fill="none" stroke="#191970" d="M52.8591,-431.4184C63.9928,-375.4332 97.7008,-219.369 134,-183.5 141.1733,-176.4117 150.216,-171.2467 159.7163,-167.4854"/>
<polygon fill="#191970" stroke="#191970" points="49.3735,-431.0061 50.886,-441.4924 56.2429,-432.3516 49.3735,-431.0061"/>
</g>
<!-- Node43 -->
<g id="node43" class="node">
<title>Node43</title>
<g id="a_node43"><a xlink:href="../../d0/d22/classPHGenFitTrkProp.html#ac159ce1352f6004a2f51a520c287c339" target="_top" xlink:title="KalmanTrkProp Call.">
<polygon fill="none" stroke="#000000" points="142,-90.5 142,-122.5 297,-122.5 297,-90.5 142,-90.5"/>
<text text-anchor="start" x="150" y="-109.5" font-family="FreeSans" font-size="10.00" fill="#000000">PHGenFitTrkProp::SvtxTrack</text>
<text text-anchor="middle" x="219.5" y="-97.5" font-family="FreeSans" font-size="10.00" fill="#000000">ToPHGenFitTracks</text>
</a>
</g>
</g>
<!-- Node1&#45;&gt;Node43 -->
<g id="edge48" class="edge">
<title>Node1&#45;&gt;Node43</title>
<path fill="none" stroke="#191970" d="M51.7454,-431.3347C60.7393,-368.1099 91.213,-175.3632 134,-131.5 137.3477,-128.0681 141.1383,-125.1008 145.2156,-122.5359"/>
<polygon fill="#191970" stroke="#191970" points="48.2759,-430.8741 50.3597,-441.262 55.2086,-431.8419 48.2759,-430.8741"/>
</g>
<!-- Node46 -->
<g id="node46" class="node">
<title>Node46</title>
<g id="a_node46"><a xlink:href="../../dc/d41/classConversion.html#a96fc565002caeef66fc22451dd6efdb7" target="_top" xlink:title="helper function">
<polygon fill="none" stroke="#000000" points="151.5,-51.5 151.5,-71.5 287.5,-71.5 287.5,-51.5 151.5,-51.5"/>
<text text-anchor="middle" x="219.5" y="-58.5" font-family="FreeSans" font-size="10.00" fill="#000000">Conversion::vtxTrackRZ</text>
</a>
</g>
</g>
<!-- Node1&#45;&gt;Node46 -->
<g id="edge51" class="edge">
<title>Node1&#45;&gt;Node46</title>
<path fill="none" stroke="#191970" d="M50.8268,-431.2803C57.5591,-361.2955 83.2668,-130.9018 134,-80.5 138.9622,-75.5702 144.9017,-71.7987 151.307,-68.9282"/>
<polygon fill="#191970" stroke="#191970" points="47.3251,-431.1356 49.8778,-441.4183 54.2946,-431.7881 47.3251,-431.1356"/>
</g>
<!-- Node47 -->
<g id="node47" class="node">
<title>Node47</title>
<g id="a_node47"><a xlink:href="../../df/d9b/classRecoConversionEval.html#a2ad5ed8b5542ba6601f5533b73515317" target="_top" xlink:title="track must be closer in RZ space to the vtx than the cut">
<polygon fill="none" stroke="#000000" points="160,-.5 160,-32.5 279,-32.5 279,-.5 160,-.5"/>
<text text-anchor="start" x="168" y="-19.5" font-family="FreeSans" font-size="10.00" fill="#000000">RecoConversionEval</text>
<text text-anchor="middle" x="219.5" y="-7.5" font-family="FreeSans" font-size="10.00" fill="#000000">::vtxTrackRZCut</text>
</a>
</g>
</g>
<!-- Node1&#45;&gt;Node47 -->
<g id="edge52" class="edge">
<title>Node1&#45;&gt;Node47</title>
<path fill="none" stroke="#191970" d="M50.5227,-430.7701C56.4406,-355.738 80.296,-99.6845 134,-41.5 141.0278,-33.8858 150.2335,-28.5448 159.9956,-24.8086"/>
<polygon fill="#191970" stroke="#191970" points="46.9979,-430.9622 49.7251,-441.2 53.9775,-431.496 46.9979,-430.9622"/>
</g>
<!-- Node4 -->
<g id="node4" class="node">
<title>Node4</title>
<g id="a_node4"><a xlink:href="../../d9/d3a/classTruthConversionEval.html#a67e322163113e6ef65c9661d0fc80487" target="_top" xlink:title="fills the member fields for all the background trees">
<polygon fill="none" stroke="#000000" points="571,-1038.5 571,-1070.5 719,-1070.5 719,-1038.5 571,-1038.5"/>
<text text-anchor="start" x="579" y="-1057.5" font-family="FreeSans" font-size="10.00" fill="#000000">TruthConversionEval</text>
<text text-anchor="middle" x="645" y="-1045.5" font-family="FreeSans" font-size="10.00" fill="#000000">::processTrackBackground</text>
</a>
</g>
</g>
<!-- Node3&#45;&gt;Node4 -->
<g id="edge3" class="edge">
<title>Node3&#45;&gt;Node4</title>
<path fill="none" stroke="#191970" d="M298.6607,-903.6212C300.8828,-905.1068 303.0048,-906.7291 305,-908.5 340.0157,-939.5789 304.823,-977.7809 341,-1007.5 405.1687,-1060.214 503.5467,-1066.2299 570.8993,-1062.8292"/>
<polygon fill="#191970" stroke="#191970" points="300.0802,-900.4036 289.65,-898.5427 296.6432,-906.5018 300.0802,-900.4036"/>
</g>
<!-- Node6 -->
<g id="node6" class="node">
<title>Node6</title>
<g id="a_node6"><a xlink:href="../../d9/d3a/classTruthConversionEval.html#a30309a3143d74dac7ff1f62cf275a5ac" target="_top" xlink:title="TruthConversionEval\l::recordConversion">
<polygon fill="none" stroke="#000000" points="371,-965.5 371,-997.5 492,-997.5 492,-965.5 371,-965.5"/>
<text text-anchor="start" x="379" y="-984.5" font-family="FreeSans" font-size="10.00" fill="#000000">TruthConversionEval</text>
<text text-anchor="middle" x="431.5" y="-972.5" font-family="FreeSans" font-size="10.00" fill="#000000">::recordConversion</text>
</a>
</g>
</g>
<!-- Node3&#45;&gt;Node6 -->
<g id="edge5" class="edge">
<title>Node3&#45;&gt;Node6</title>
<path fill="none" stroke="#191970" d="M283.0092,-901.1463C290.5228,-903.2885 298.0016,-905.7324 305,-908.5 343.1987,-923.6062 383.7093,-948.8266 408.3091,-965.3111"/>
<polygon fill="#191970" stroke="#191970" points="283.7145,-897.7118 273.1492,-898.5021 281.9013,-904.4729 283.7145,-897.7118"/>
</g>
<!-- Node5 -->
<g id="node5" class="node">
<title>Node5</title>
<g id="a_node5"><a xlink:href="../../d9/d3a/classTruthConversionEval.html#a9a67c8171296f35dd157daf89108d3fd" target="_top" xlink:title="TruthConversionEval\l::process_event">
<polygon fill="none" stroke="#000000" points="781,-987.5 781,-1019.5 902,-1019.5 902,-987.5 781,-987.5"/>
<text text-anchor="start" x="789" y="-1006.5" font-family="FreeSans" font-size="10.00" fill="#000000">TruthConversionEval</text>
<text text-anchor="middle" x="841.5" y="-994.5" font-family="FreeSans" font-size="10.00" fill="#000000">::process_event</text>
</a>
</g>
</g>
<!-- Node4&#45;&gt;Node5 -->
<g id="edge4" class="edge">
<title>Node4&#45;&gt;Node5</title>
<path fill="none" stroke="#191970" d="M716.7597,-1035.8753C737.8171,-1030.4101 760.629,-1024.4894 780.9161,-1019.2241"/>
<polygon fill="#191970" stroke="#191970" points="715.7041,-1032.5333 706.9041,-1038.4333 717.4627,-1039.3088 715.7041,-1032.5333"/>
</g>
<!-- Node7 -->
<g id="node7" class="node">
<title>Node7</title>
<g id="a_node7"><a xlink:href="../../d9/d3a/classTruthConversionEval.html#a802d15f00a153397546daabb7dbabbd2" target="_top" xlink:title="TruthConversionEval\l::numUnique">
<polygon fill="none" stroke="#000000" points="584.5,-987.5 584.5,-1019.5 705.5,-1019.5 705.5,-987.5 584.5,-987.5"/>
<text text-anchor="start" x="592.5" y="-1006.5" font-family="FreeSans" font-size="10.00" fill="#000000">TruthConversionEval</text>
<text text-anchor="middle" x="645" y="-994.5" font-family="FreeSans" font-size="10.00" fill="#000000">::numUnique</text>
</a>
</g>
</g>
<!-- Node6&#45;&gt;Node7 -->
<g id="edge6" class="edge">
<title>Node6&#45;&gt;Node7</title>
<path fill="none" stroke="#191970" d="M502.1113,-988.7761C528.6831,-991.5142 558.6419,-994.6013 584.239,-997.2389"/>
<polygon fill="#191970" stroke="#191970" points="502.4156,-985.289 492.1094,-987.7455 501.698,-992.2521 502.4156,-985.289"/>
</g>
<!-- Node7&#45;&gt;Node5 -->
<g id="edge7" class="edge">
<title>Node7&#45;&gt;Node5</title>
<path fill="none" stroke="#191970" d="M715.8341,-1003.5C737.1078,-1003.5 760.2456,-1003.5 780.8019,-1003.5"/>
<polygon fill="#191970" stroke="#191970" points="715.5599,-1000.0001 705.5599,-1003.5 715.5598,-1007.0001 715.5599,-1000.0001"/>
</g>
<!-- Node9 -->
<g id="node9" class="node">
<title>Node9</title>
<g id="a_node9"><a xlink:href="../../de/da4/classEMCalCalib.html#a8d33bc88a464878c873f29c9230ce7fe" target="_top" xlink:title="EMCalCalib::process\l_event_MCPhoton">
<polygon fill="none" stroke="#000000" points="372.5,-695.5 372.5,-727.5 490.5,-727.5 490.5,-695.5 372.5,-695.5"/>
<text text-anchor="start" x="380.5" y="-714.5" font-family="FreeSans" font-size="10.00" fill="#000000">EMCalCalib::process</text>
<text text-anchor="middle" x="431.5" y="-702.5" font-family="FreeSans" font-size="10.00" fill="#000000">_event_MCPhoton</text>
</a>
</g>
</g>
<!-- Node8&#45;&gt;Node9 -->
<g id="edge9" class="edge">
<title>Node8&#45;&gt;Node9</title>
<path fill="none" stroke="#191970" d="M300.2177,-721.4081C324.1387,-719.6027 349.8838,-717.6597 372.1841,-715.9767"/>
<polygon fill="#191970" stroke="#191970" points="299.8011,-717.9295 290.0929,-722.1722 300.328,-724.9096 299.8011,-717.9295"/>
</g>
<!-- Node10 -->
<g id="node10" class="node">
<title>Node10</title>
<g id="a_node10"><a xlink:href="../../de/da4/classEMCalCalib.html#aa70da6270813e434e35da37b6ec2a350" target="_top" xlink:title="EMCalCalib::process\l_event">
<polygon fill="none" stroke="#000000" points="586,-678.5 586,-710.5 704,-710.5 704,-678.5 586,-678.5"/>
<text text-anchor="start" x="594" y="-697.5" font-family="FreeSans" font-size="10.00" fill="#000000">EMCalCalib::process</text>
<text text-anchor="middle" x="645" y="-685.5" font-family="FreeSans" font-size="10.00" fill="#000000">_event</text>
</a>
</g>
</g>
<!-- Node9&#45;&gt;Node10 -->
<g id="edge10" class="edge">
<title>Node9&#45;&gt;Node10</title>
<path fill="none" stroke="#191970" d="M500.972,-705.9683C528.3285,-703.79 559.4202,-701.3143 585.6967,-699.222"/>
<polygon fill="#191970" stroke="#191970" points="500.3787,-702.5043 490.6881,-706.7871 500.9344,-709.4823 500.3787,-702.5043"/>
</g>
<!-- Node12 -->
<g id="node12" class="node">
<title>Node12</title>
<g id="a_node12"><a xlink:href="../../db/d4b/classEMCalAna.html#a2e20101b8705ea086e2c7de88e95767d" target="_top" xlink:title="EMCalAna::process_event_Trk">
<polygon fill="none" stroke="#000000" points="561.5,-639.5 561.5,-659.5 728.5,-659.5 728.5,-639.5 561.5,-639.5"/>
<text text-anchor="middle" x="645" y="-646.5" font-family="FreeSans" font-size="10.00" fill="#000000">EMCalAna::process_event_Trk</text>
</a>
</g>
</g>
<!-- Node11&#45;&gt;Node12 -->
<g id="edge12" class="edge">
<title>Node11&#45;&gt;Node12</title>
<path fill="none" stroke="#191970" d="M498.8409,-649.5C518.605,-649.5 540.4656,-649.5 561.1266,-649.5"/>
<polygon fill="#191970" stroke="#191970" points="498.7141,-646.0001 488.7141,-649.5 498.714,-653.0001 498.7141,-646.0001"/>
</g>
<!-- Node14 -->
<g id="node14" class="node">
<title>Node14</title>
<g id="a_node14"><a xlink:href="../../db/d4b/classEMCalAna.html#a9647db89feef6823b38bbdeaf7de06c2" target="_top" xlink:title="EMCalAna::process_event\l_UpslisonTrig">
<polygon fill="none" stroke="#000000" points="571.5,-588.5 571.5,-620.5 718.5,-620.5 718.5,-588.5 571.5,-588.5"/>
<text text-anchor="start" x="579.5" y="-607.5" font-family="FreeSans" font-size="10.00" fill="#000000">EMCalAna::process_event</text>
<text text-anchor="middle" x="645" y="-595.5" font-family="FreeSans" font-size="10.00" fill="#000000">_UpslisonTrig</text>
</a>
</g>
</g>
<!-- Node11&#45;&gt;Node14 -->
<g id="edge14" class="edge">
<title>Node11&#45;&gt;Node14</title>
<path fill="none" stroke="#191970" d="M489.2553,-637.387C500.1341,-635.1018 511.4157,-632.7297 522,-630.5 537.9112,-627.1481 554.9784,-623.5452 571.1814,-620.1212"/>
<polygon fill="#191970" stroke="#191970" points="488.4767,-633.974 479.4095,-639.4545 489.9153,-640.8246 488.4767,-633.974"/>
</g>
<!-- Node13 -->
<g id="node13" class="node">
<title>Node13</title>
<g id="a_node13"><a xlink:href="../../db/d4b/classEMCalAna.html#a3b829b80df0fd8625130f3d9c11f5d3d" target="_top" xlink:title="EMCalAna::process_event">
<polygon fill="none" stroke="#000000" points="768,-617.5 768,-637.5 915,-637.5 915,-617.5 768,-617.5"/>
<text text-anchor="middle" x="841.5" y="-624.5" font-family="FreeSans" font-size="10.00" fill="#000000">EMCalAna::process_event</text>
</a>
</g>
</g>
<!-- Node12&#45;&gt;Node13 -->
<g id="edge13" class="edge">
<title>Node12&#45;&gt;Node13</title>
<path fill="none" stroke="#191970" d="M738.7716,-639.0014C748.5506,-637.9066 758.3888,-636.8051 767.8978,-635.7405"/>
<polygon fill="#191970" stroke="#191970" points="738.1671,-635.5471 728.6186,-640.1381 738.946,-642.5037 738.1671,-635.5471"/>
</g>
<!-- Node14&#45;&gt;Node13 -->
<g id="edge15" class="edge">
<title>Node14&#45;&gt;Node13</title>
<path fill="none" stroke="#191970" d="M728.9653,-614.328C741.8409,-615.8351 755.0509,-617.3813 767.6853,-618.8601"/>
<polygon fill="#191970" stroke="#191970" points="729.0675,-610.8162 718.7284,-613.1298 728.2537,-617.7687 729.0675,-610.8162"/>
</g>
<!-- Node15&#45;&gt;Node11 -->
<g id="edge17" class="edge">
<title>Node15&#45;&gt;Node11</title>
<path fill="none" stroke="#191970" d="M298.8281,-649.5C323.8475,-649.5 350.9872,-649.5 374.163,-649.5"/>
<polygon fill="#191970" stroke="#191970" points="298.6234,-646.0001 288.6234,-649.5 298.6233,-653.0001 298.6234,-646.0001"/>
</g>
<!-- Node17 -->
<g id="node17" class="node">
<title>Node17</title>
<g id="a_node17"><a xlink:href="../../d4/d90/classQAG4SimulationCalorimeterSum.html#a552be18b8bd8920596f2020f0b49275f" target="_top" xlink:title="QAG4SimulationCalorimeter\lSum::process_event_TrackProj">
<polygon fill="none" stroke="#000000" points="347.5,-588.5 347.5,-620.5 515.5,-620.5 515.5,-588.5 347.5,-588.5"/>
<text text-anchor="start" x="355.5" y="-607.5" font-family="FreeSans" font-size="10.00" fill="#000000">QAG4SimulationCalorimeter</text>
<text text-anchor="middle" x="431.5" y="-595.5" font-family="FreeSans" font-size="10.00" fill="#000000">Sum::process_event_TrackProj</text>
</a>
</g>
</g>
<!-- Node16&#45;&gt;Node17 -->
<g id="edge19" class="edge">
<title>Node16&#45;&gt;Node17</title>
<path fill="none" stroke="#191970" d="M309.1039,-604.5C321.7506,-604.5 334.7164,-604.5 347.2576,-604.5"/>
<polygon fill="#191970" stroke="#191970" points="309.0442,-601.0001 299.0441,-604.5 309.0441,-608.0001 309.0442,-601.0001"/>
</g>
<!-- Node18 -->
<g id="node18" class="node">
<title>Node18</title>
<g id="a_node18"><a xlink:href="../../d4/d90/classQAG4SimulationCalorimeterSum.html#a2104cb16e224c7eb39b9c5aed8aed4f0" target="_top" xlink:title="QAG4SimulationCalorimeter\lSum::process_event">
<polygon fill="none" stroke="#000000" points="565.5,-537.5 565.5,-569.5 724.5,-569.5 724.5,-537.5 565.5,-537.5"/>
<text text-anchor="start" x="573.5" y="-556.5" font-family="FreeSans" font-size="10.00" fill="#000000">QAG4SimulationCalorimeter</text>
<text text-anchor="middle" x="645" y="-544.5" font-family="FreeSans" font-size="10.00" fill="#000000">Sum::process_event</text>
</a>
</g>
</g>
<!-- Node17&#45;&gt;Node18 -->
<g id="edge20" class="edge">
<title>Node17&#45;&gt;Node18</title>
<path fill="none" stroke="#191970" d="M508.6524,-586.0702C531.2533,-580.6713 555.7761,-574.8134 577.7117,-569.5736"/>
<polygon fill="#191970" stroke="#191970" points="507.6728,-582.7056 498.7597,-588.4333 509.2993,-589.514 507.6728,-582.7056"/>
</g>
<!-- Node20 -->
<g id="node20" class="node">
<title>Node20</title>
<g id="a_node20"><a xlink:href="../../d2/d93/classTrkrEvaluator.html#af1cb893f5a8aebc803c2bb55dd582e5a" target="_top" xlink:title="TrkrEvaluator::process\l_event">
<polygon fill="none" stroke="#000000" points="366.5,-537.5 366.5,-569.5 496.5,-569.5 496.5,-537.5 366.5,-537.5"/>
<text text-anchor="start" x="374.5" y="-556.5" font-family="FreeSans" font-size="10.00" fill="#000000">TrkrEvaluator::process</text>
<text text-anchor="middle" x="431.5" y="-544.5" font-family="FreeSans" font-size="10.00" fill="#000000">_event</text>
</a>
</g>
</g>
<!-- Node19&#45;&gt;Node20 -->
<g id="edge22" class="edge">
<title>Node19&#45;&gt;Node20</title>
<path fill="none" stroke="#191970" d="M299.261,-553.5C321.4187,-553.5 345.2088,-553.5 366.4173,-553.5"/>
<polygon fill="#191970" stroke="#191970" points="299.2104,-550.0001 289.2104,-553.5 299.2103,-557.0001 299.2104,-550.0001"/>
</g>
<!-- Node22 -->
<g id="node22" class="node">
<title>Node22</title>
<g id="a_node22"><a xlink:href="../../d8/d98/classpsTOFTimezeroEval.html#a2e98730e1beaa91c36947c0fe671fdd2" target="_top" xlink:title="psTOFTimezeroEval::\lprocess_event">
<polygon fill="none" stroke="#000000" points="370.5,-486.5 370.5,-518.5 492.5,-518.5 492.5,-486.5 370.5,-486.5"/>
<text text-anchor="start" x="378.5" y="-505.5" font-family="FreeSans" font-size="10.00" fill="#000000">psTOFTimezeroEval::</text>
<text text-anchor="middle" x="431.5" y="-493.5" font-family="FreeSans" font-size="10.00" fill="#000000">process_event</text>
</a>
</g>
</g>
<!-- Node21&#45;&gt;Node22 -->
<g id="edge24" class="edge">
<title>Node21&#45;&gt;Node22</title>
<path fill="none" stroke="#191970" d="M290.6228,-502.5C316.4079,-502.5 345.292,-502.5 370.1619,-502.5"/>
<polygon fill="#191970" stroke="#191970" points="290.5348,-499.0001 280.5348,-502.5 290.5347,-506.0001 290.5348,-499.0001"/>
</g>
<!-- Node24 -->
<g id="node24" class="node">
<title>Node24</title>
<g id="a_node24"><a xlink:href="../../d2/d85/classSvtxEvaluatorHaiwang.html#ab63ca0cc53b56dad65b89d9b18220bce" target="_top" xlink:title="SvtxEvaluatorHaiwang\l::process_event">
<polygon fill="none" stroke="#000000" points="366,-435.5 366,-467.5 497,-467.5 497,-435.5 366,-435.5"/>
<text text-anchor="start" x="374" y="-454.5" font-family="FreeSans" font-size="10.00" fill="#000000">SvtxEvaluatorHaiwang</text>
<text text-anchor="middle" x="431.5" y="-442.5" font-family="FreeSans" font-size="10.00" fill="#000000">::process_event</text>
</a>
</g>
</g>
<!-- Node23&#45;&gt;Node24 -->
<g id="edge26" class="edge">
<title>Node23&#45;&gt;Node24</title>
<path fill="none" stroke="#191970" d="M295.2181,-451.5C318.2954,-451.5 343.463,-451.5 365.8189,-451.5"/>
<polygon fill="#191970" stroke="#191970" points="295.1263,-448.0001 285.1263,-451.5 295.1262,-455.0001 295.1263,-448.0001"/>
</g>
<!-- Node26 -->
<g id="node26" class="node">
<title>Node26</title>
<g id="a_node26"><a xlink:href="../../d6/d11/classSvtxEvaluator.html#ac66ea4145deb621d9e4fb38cf852dc33" target="_top" xlink:title="SvtxEvaluator::process\l_event">
<polygon fill="none" stroke="#000000" points="365.5,-384.5 365.5,-416.5 497.5,-416.5 497.5,-384.5 365.5,-384.5"/>
<text text-anchor="start" x="373.5" y="-403.5" font-family="FreeSans" font-size="10.00" fill="#000000">SvtxEvaluator::process</text>
<text text-anchor="middle" x="431.5" y="-391.5" font-family="FreeSans" font-size="10.00" fill="#000000">_event</text>
</a>
</g>
</g>
<!-- Node25&#45;&gt;Node26 -->
<g id="edge28" class="edge">
<title>Node25&#45;&gt;Node26</title>
<path fill="none" stroke="#191970" d="M300.1641,-400.5C321.6264,-400.5 344.5608,-400.5 365.1601,-400.5"/>
<polygon fill="#191970" stroke="#191970" points="300.093,-397.0001 290.0929,-400.5 300.0929,-404.0001 300.093,-397.0001"/>
</g>
<!-- Node27&#45;&gt;Node28 -->
<g id="edge30" class="edge">
<title>Node27&#45;&gt;Node28</title>
<path fill="none" stroke="#191970" d="M307.781,-318.412C331.0618,-320.4985 355.5162,-322.6901 376.4792,-324.5689"/>
<polygon fill="#191970" stroke="#191970" points="307.8103,-314.9007 297.5378,-317.494 307.1854,-321.8727 307.8103,-314.9007"/>
</g>
<!-- Node30 -->
<g id="node30" class="node">
<title>Node30</title>
<g id="a_node30"><a xlink:href="../../d6/d17/classSVReco.html#a19081506d2161465fdf3f36527aa0e18" target="_top" xlink:title="Initialization, called for initialization at each event.">
<polygon fill="none" stroke="#000000" points="378.5,-881.5 378.5,-901.5 484.5,-901.5 484.5,-881.5 378.5,-881.5"/>
<text text-anchor="middle" x="431.5" y="-888.5" font-family="FreeSans" font-size="10.00" fill="#000000">SVReco::InitEvent</text>
</a>
</g>
</g>
<!-- Node29&#45;&gt;Node30 -->
<g id="edge32" class="edge">
<title>Node29&#45;&gt;Node30</title>
<path fill="none" stroke="#191970" d="M247.2833,-793.309C291.1432,-816.6872 375.2831,-861.5353 412.7286,-881.4945"/>
<polygon fill="#191970" stroke="#191970" points="248.7846,-790.1431 238.3136,-788.528 245.492,-796.3204 248.7846,-790.1431"/>
</g>
<!-- Node34 -->
<g id="node34" class="node">
<title>Node34</title>
<g id="a_node34"><a xlink:href="../../d6/d17/classSVReco.html#aed33c3da67bd3f1b7c3c73127b8187ea" target="_top" xlink:title="SVReco::refitTrack">
<polygon fill="none" stroke="#000000" points="377.5,-768.5 377.5,-788.5 485.5,-788.5 485.5,-768.5 377.5,-768.5"/>
<text text-anchor="middle" x="431.5" y="-775.5" font-family="FreeSans" font-size="10.00" fill="#000000">SVReco::refitTrack</text>
</a>
</g>
</g>
<!-- Node29&#45;&gt;Node34 -->
<g id="edge37" class="edge">
<title>Node29&#45;&gt;Node34</title>
<path fill="none" stroke="#191970" d="M303.2606,-778.5C328.2329,-778.5 354.9296,-778.5 377.4635,-778.5"/>
<polygon fill="#191970" stroke="#191970" points="303.0524,-775.0001 293.0523,-778.5 303.0523,-782.0001 303.0524,-775.0001"/>
</g>
<!-- Node30&#45;&gt;Node5 -->
<g id="edge36" class="edge">
<title>Node30&#45;&gt;Node5</title>
<path fill="none" stroke="#191970" d="M464.4027,-905.4619C489.6776,-915.8241 525.6254,-929.7833 558,-939.5 633.9069,-962.2822 654.7012,-961.0132 732,-978.5 747.8809,-982.0926 765.0514,-986.0013 780.9809,-989.6377"/>
<polygon fill="#191970" stroke="#191970" points="465.5134,-902.1338 454.935,-901.5439 462.8367,-908.6018 465.5134,-902.1338"/>
</g>
<!-- Node31 -->
<g id="node31" class="node">
<title>Node31</title>
<g id="a_node31"><a xlink:href="../../df/d9b/classRecoConversionEval.html#ab5e60cc47b4b3d33f9fdb4a83c2ff775" target="_top" xlink:title="RecoConversionEval\l::doNodePointers">
<polygon fill="none" stroke="#000000" points="585.5,-897.5 585.5,-929.5 704.5,-929.5 704.5,-897.5 585.5,-897.5"/>
<text text-anchor="start" x="593.5" y="-916.5" font-family="FreeSans" font-size="10.00" fill="#000000">RecoConversionEval</text>
<text text-anchor="middle" x="645" y="-904.5" font-family="FreeSans" font-size="10.00" fill="#000000">::doNodePointers</text>
</a>
</g>
</g>
<!-- Node30&#45;&gt;Node31 -->
<g id="edge33" class="edge">
<title>Node30&#45;&gt;Node31</title>
<path fill="none" stroke="#191970" d="M494.8659,-898.0295C523.5382,-900.984 557.2422,-904.457 585.4441,-907.3631"/>
<polygon fill="#191970" stroke="#191970" points="494.8557,-894.51 484.5496,-896.9665 494.1381,-901.4731 494.8557,-894.51"/>
</g>
<!-- Node33 -->
<g id="node33" class="node">
<title>Node33</title>
<g id="a_node33"><a xlink:href="../../d2/d6d/classVtxTest.html#ad1a3b9d5e730a3ba75f13a084e21bee5" target="_top" xlink:title="VtxTest::process_event">
<polygon fill="none" stroke="#000000" points="578,-858.5 578,-878.5 712,-878.5 712,-858.5 578,-858.5"/>
<text text-anchor="middle" x="645" y="-865.5" font-family="FreeSans" font-size="10.00" fill="#000000">VtxTest::process_event</text>
</a>
</g>
</g>
<!-- Node30&#45;&gt;Node33 -->
<g id="edge35" class="edge">
<title>Node30&#45;&gt;Node33</title>
<path fill="none" stroke="#191970" d="M494.7077,-884.6907C520.8196,-881.8777 551.1262,-878.6129 577.6556,-875.7549"/>
<polygon fill="#191970" stroke="#191970" points="494.1172,-881.234 484.5496,-885.7851 494.867,-888.1937 494.1172,-881.234"/>
</g>
<!-- Node32 -->
<g id="node32" class="node">
<title>Node32</title>
<g id="a_node32"><a xlink:href="../../df/d9b/classRecoConversionEval.html#a54bb2ea55f01b0d0dc8752fbee1bc237" target="_top" xlink:title="RecoConversionEval\l::process_event">
<polygon fill="none" stroke="#000000" points="782,-852.5 782,-884.5 901,-884.5 901,-852.5 782,-852.5"/>
<text text-anchor="start" x="790" y="-871.5" font-family="FreeSans" font-size="10.00" fill="#000000">RecoConversionEval</text>
<text text-anchor="middle" x="841.5" y="-859.5" font-family="FreeSans" font-size="10.00" fill="#000000">::process_event</text>
</a>
</g>
</g>
<!-- Node31&#45;&gt;Node32 -->
<g id="edge34" class="edge">
<title>Node31&#45;&gt;Node32</title>
<path fill="none" stroke="#191970" d="M714.6557,-897.5483C736.5566,-892.5328 760.5341,-887.0418 781.6889,-882.1972"/>
<polygon fill="#191970" stroke="#191970" points="713.7231,-894.1712 704.7568,-899.8152 715.2858,-900.9946 713.7231,-894.1712"/>
</g>
<!-- Node35 -->
<g id="node35" class="node">
<title>Node35</title>
<g id="a_node35"><a xlink:href="../../df/d9b/classRecoConversionEval.html#ae0025d84438ba3f29cc99ec09cbb9f5b" target="_top" xlink:title="Uses _vertexer to refit.">
<polygon fill="none" stroke="#000000" points="585.5,-807.5 585.5,-839.5 704.5,-839.5 704.5,-807.5 585.5,-807.5"/>
<text text-anchor="start" x="593.5" y="-826.5" font-family="FreeSans" font-size="10.00" fill="#000000">RecoConversionEval</text>
<text text-anchor="middle" x="645" y="-814.5" font-family="FreeSans" font-size="10.00" fill="#000000">::refitTracks</text>
</a>
</g>
</g>
<!-- Node34&#45;&gt;Node35 -->
<g id="edge38" class="edge">
<title>Node34&#45;&gt;Node35</title>
<path fill="none" stroke="#191970" d="M488.9849,-790.6163C518.7882,-796.898 555.1539,-804.5629 585.2761,-810.9118"/>
<polygon fill="#191970" stroke="#191970" points="489.6547,-787.1806 479.1478,-788.5429 488.211,-794.0301 489.6547,-787.1806"/>
</g>
<!-- Node36 -->
<g id="node36" class="node">
<title>Node36</title>
<g id="a_node36"><a xlink:href="../../dc/d41/classConversion.html#a5a8976da958375a2e66f9c35017fb7be" target="_top" xlink:title="Uses recoVertex and.">
<polygon fill="none" stroke="#000000" points="579,-768.5 579,-788.5 711,-788.5 711,-768.5 579,-768.5"/>
<text text-anchor="middle" x="645" y="-775.5" font-family="FreeSans" font-size="10.00" fill="#000000">Conversion::refitTracks</text>
</a>
</g>
</g>
<!-- Node34&#45;&gt;Node36 -->
<g id="edge40" class="edge">
<title>Node34&#45;&gt;Node36</title>
<path fill="none" stroke="#191970" d="M495.849,-778.5C522.0437,-778.5 552.3055,-778.5 578.6968,-778.5"/>
<polygon fill="#191970" stroke="#191970" points="495.6511,-775.0001 485.6511,-778.5 495.651,-782.0001 495.6511,-775.0001"/>
</g>
<!-- Node37 -->
<g id="node37" class="node">
<title>Node37</title>
<g id="a_node37"><a xlink:href="../../dc/d41/classConversion.html#a232908ec95e6d7b3bfd8883d19885971" target="_top" xlink:title="Uses the truth vertex and SVReco to improve the fit of reco1 and reco2. Uses.">
<polygon fill="none" stroke="#000000" points="558,-729.5 558,-749.5 732,-749.5 732,-729.5 558,-729.5"/>
<text text-anchor="middle" x="645" y="-736.5" font-family="FreeSans" font-size="10.00" fill="#000000">Conversion::refitTracksTruthVtx</text>
</a>
</g>
</g>
<!-- Node34&#45;&gt;Node37 -->
<g id="edge41" class="edge">
<title>Node34&#45;&gt;Node37</title>
<path fill="none" stroke="#191970" d="M495.6426,-766.7831C525.7685,-761.28 561.3106,-754.7875 590.1642,-749.5169"/>
<polygon fill="#191970" stroke="#191970" points="494.8593,-763.3682 485.6511,-768.6082 496.1173,-770.2542 494.8593,-763.3682"/>
</g>
<!-- Node35&#45;&gt;Node32 -->
<g id="edge39" class="edge">
<title>Node35&#45;&gt;Node32</title>
<path fill="none" stroke="#191970" d="M714.6557,-839.4517C736.5566,-844.4672 760.5341,-849.9582 781.6889,-854.8028"/>
<polygon fill="#191970" stroke="#191970" points="715.2858,-836.0054 704.7568,-837.1848 713.7231,-842.8288 715.2858,-836.0054"/>
</g>
<!-- Node39 -->
<g id="node39" class="node">
<title>Node39</title>
<g id="a_node39"><a xlink:href="../../df/dd7/classTpcPrototypeGenFitTrkFitter.html#aaae0db362446e0098c4f4dbfa6714812" target="_top" xlink:title="TpcPrototypeGenFitTrkFitter\l::fill_eval_tree">
<polygon fill="none" stroke="#000000" points="353,-243.5 353,-275.5 510,-275.5 510,-243.5 353,-243.5"/>
<text text-anchor="start" x="361" y="-262.5" font-family="FreeSans" font-size="10.00" fill="#000000">TpcPrototypeGenFitTrkFitter</text>
<text text-anchor="middle" x="431.5" y="-250.5" font-family="FreeSans" font-size="10.00" fill="#000000">::fill_eval_tree</text>
</a>
</g>
</g>
<!-- Node38&#45;&gt;Node39 -->
<g id="edge43" class="edge">
<title>Node38&#45;&gt;Node39</title>
<path fill="none" stroke="#191970" d="M308.3181,-259.5C323.1479,-259.5 338.4386,-259.5 352.9873,-259.5"/>
<polygon fill="#191970" stroke="#191970" points="308.1397,-256.0001 298.1397,-259.5 308.1397,-263.0001 308.1397,-256.0001"/>
</g>
<!-- Node40 -->
<g id="node40" class="node">
<title>Node40</title>
<g id="a_node40"><a xlink:href="../../df/dd7/classTpcPrototypeGenFitTrkFitter.html#a8861dffacdf05e47efc97b65adbafe32" target="_top" xlink:title="Process Event, called for each event.">
<polygon fill="none" stroke="#000000" points="566.5,-243.5 566.5,-275.5 723.5,-275.5 723.5,-243.5 566.5,-243.5"/>
<text text-anchor="start" x="574.5" y="-262.5" font-family="FreeSans" font-size="10.00" fill="#000000">TpcPrototypeGenFitTrkFitter</text>
<text text-anchor="middle" x="645" y="-250.5" font-family="FreeSans" font-size="10.00" fill="#000000">::process_event</text>
</a>
</g>
</g>
<!-- Node39&#45;&gt;Node40 -->
<g id="edge44" class="edge">
<title>Node39&#45;&gt;Node40</title>
<path fill="none" stroke="#191970" d="M520.4994,-259.5C535.6715,-259.5 551.3357,-259.5 566.2195,-259.5"/>
<polygon fill="#191970" stroke="#191970" points="520.09,-256.0001 510.09,-259.5 520.0899,-263.0001 520.09,-256.0001"/>
</g>
<!-- Node44 -->
<g id="node44" class="node">
<title>Node44</title>
<g id="a_node44"><a xlink:href="../../d0/d22/classPHGenFitTrkProp.html#ab11c2e61a1b78278fa4af7cf624c2538" target="_top" xlink:title="Main function.">
<polygon fill="none" stroke="#000000" points="341,-96.5 341,-116.5 522,-116.5 522,-96.5 341,-96.5"/>
<text text-anchor="middle" x="431.5" y="-103.5" font-family="FreeSans" font-size="10.00" fill="#000000">PHGenFitTrkProp::KalmanTrkProp</text>
</a>
</g>
</g>
<!-- Node43&#45;&gt;Node44 -->
<g id="edge49" class="edge">
<title>Node43&#45;&gt;Node44</title>
<path fill="none" stroke="#191970" d="M307.3136,-106.5C318.3849,-106.5 329.7291,-106.5 340.8434,-106.5"/>
<polygon fill="#191970" stroke="#191970" points="307.2372,-103.0001 297.2372,-106.5 307.2371,-110.0001 307.2372,-103.0001"/>
</g>
<!-- Node45 -->
<g id="node45" class="node">
<title>Node45</title>
<g id="a_node45"><a xlink:href="../../d0/d22/classPHGenFitTrkProp.html#a31e50e42d62a2bf32763652b39dc95b8" target="_top" xlink:title="PHGenFitTrkProp::Process">
<polygon fill="none" stroke="#000000" points="573,-96.5 573,-116.5 717,-116.5 717,-96.5 573,-96.5"/>
<text text-anchor="middle" x="645" y="-103.5" font-family="FreeSans" font-size="10.00" fill="#000000">PHGenFitTrkProp::Process</text>
</a>
</g>
</g>
<!-- Node44&#45;&gt;Node45 -->
<g id="edge50" class="edge">
<title>Node44&#45;&gt;Node45</title>
<path fill="none" stroke="#191970" d="M532.4166,-106.5C546.0335,-106.5 559.7772,-106.5 572.7582,-106.5"/>
<polygon fill="#191970" stroke="#191970" points="532.0433,-103.0001 522.0432,-106.5 532.0432,-110.0001 532.0433,-103.0001"/>
</g>
</g>
</svg>
