<?xml version="1.0" encoding="UTF-8" standalone="no"?>
<!DOCTYPE svg PUBLIC "-//W3C//DTD SVG 1.1//EN"
 "http://www.w3.org/Graphics/SVG/1.1/DTD/svg11.dtd">
<!-- Generated by graphviz version 2.40.1 (20161225.0304)
 -->
<!-- Title: SvtxTrack::get_eta Pages: 1 -->
<svg width="1032pt" height="681pt"
 viewBox="0.00 0.00 1032.00 681.00" xmlns="http://www.w3.org/2000/svg" xmlns:xlink="http://www.w3.org/1999/xlink">
<g id="graph0" class="graph" transform="scale(1 1) rotate(0) translate(4 677)">
<title>SvtxTrack::get_eta</title>
<!-- Node1 -->
<g id="node1" class="node">
<title>Node1</title>
<polygon fill="#bfbfbf" stroke="#000000" points="0,-345.5 0,-365.5 109,-365.5 109,-345.5 0,-345.5"/>
<text text-anchor="middle" x="54.5" y="-352.5" font-family="FreeSans" font-size="10.00" fill="#000000">SvtxTrack::get_eta</text>
</g>
<!-- Node2 -->
<g id="node2" class="node">
<title>Node2</title>
<g id="a_node2"><a xlink:href="../../da/d73/classExclusiveReco.html#a48d900fd8ad00d0b252204dcbb941bc7" target="_top" xlink:title="ExclusiveReco::AddInvariant\lMassInformation">
<polygon fill="none" stroke="#000000" points="145,-640.5 145,-672.5 305,-672.5 305,-640.5 145,-640.5"/>
<text text-anchor="start" x="153" y="-659.5" font-family="FreeSans" font-size="10.00" fill="#000000">ExclusiveReco::AddInvariant</text>
<text text-anchor="middle" x="225" y="-647.5" font-family="FreeSans" font-size="10.00" fill="#000000">MassInformation</text>
</a>
</g>
</g>
<!-- Node1&#45;&gt;Node2 -->
<g id="edge1" class="edge">
<title>Node1&#45;&gt;Node2</title>
<path fill="none" stroke="#191970" d="M58.5642,-375.4305C70.5528,-432.4154 107.2994,-594.3223 145,-631.5 148.4191,-634.8717 152.2861,-637.7895 156.4286,-640.3145"/>
<polygon fill="#191970" stroke="#191970" points="61.9625,-374.5808 56.5036,-365.5005 55.1085,-376.0031 61.9625,-374.5808"/>
</g>
<!-- Node4 -->
<g id="node4" class="node">
<title>Node4</title>
<g id="a_node4"><a xlink:href="../../d6/d40/classLeptoquarksReco.html#a74b066097052383649d5ecd7efb01627" target="_top" xlink:title="LeptoquarksReco::AddTrack\lInformation">
<polygon fill="none" stroke="#000000" points="147,-589.5 147,-621.5 303,-621.5 303,-589.5 147,-589.5"/>
<text text-anchor="start" x="155" y="-608.5" font-family="FreeSans" font-size="10.00" fill="#000000">LeptoquarksReco::AddTrack</text>
<text text-anchor="middle" x="225" y="-596.5" font-family="FreeSans" font-size="10.00" fill="#000000">Information</text>
</a>
</g>
</g>
<!-- Node1&#45;&gt;Node4 -->
<g id="edge3" class="edge">
<title>Node1&#45;&gt;Node4</title>
<path fill="none" stroke="#191970" d="M57.4329,-375.7698C64.6191,-418.3268 86.9539,-517.7276 145,-574.5 151.1762,-580.5407 158.6603,-585.4355 166.5426,-589.3935"/>
<polygon fill="#191970" stroke="#191970" points="60.8744,-375.1239 55.8546,-365.7937 53.9603,-376.2178 60.8744,-375.1239"/>
</g>
<!-- Node6 -->
<g id="node6" class="node">
<title>Node6</title>
<g id="a_node6"><a xlink:href="../../dc/d65/classPhotonJet.html#a2c998d51d52420bdde0a2100c7cbdf62" target="_top" xlink:title="PhotonJet::ConeSum">
<polygon fill="none" stroke="#000000" points="165,-511.5 165,-531.5 285,-531.5 285,-511.5 165,-511.5"/>
<text text-anchor="middle" x="225" y="-518.5" font-family="FreeSans" font-size="10.00" fill="#000000">PhotonJet::ConeSum</text>
</a>
</g>
</g>
<!-- Node1&#45;&gt;Node6 -->
<g id="edge5" class="edge">
<title>Node1&#45;&gt;Node6</title>
<path fill="none" stroke="#191970" d="M60.9714,-375.1476C72.5297,-407.0527 99.8347,-469.8407 145,-502.5 150.8996,-506.766 157.6236,-510.0864 164.6094,-512.6685"/>
<polygon fill="#191970" stroke="#191970" points="64.2418,-373.8959 57.6523,-365.5996 57.6299,-376.1945 64.2418,-373.8959"/>
</g>
<!-- Node7 -->
<g id="node7" class="node">
<title>Node7</title>
<g id="a_node7"><a xlink:href="../../dc/d65/classPhotonJet.html#a3f9d3ec941f851bc2246ceb0c5362c9f" target="_top" xlink:title="PhotonJet::process\l_event">
<polygon fill="none" stroke="#000000" points="378.5,-505.5 378.5,-537.5 488.5,-537.5 488.5,-505.5 378.5,-505.5"/>
<text text-anchor="start" x="386.5" y="-524.5" font-family="FreeSans" font-size="10.00" fill="#000000">PhotonJet::process</text>
<text text-anchor="middle" x="433.5" y="-512.5" font-family="FreeSans" font-size="10.00" fill="#000000">_event</text>
</a>
</g>
</g>
<!-- Node1&#45;&gt;Node7 -->
<g id="edge20" class="edge">
<title>Node1&#45;&gt;Node7</title>
<path fill="none" stroke="#191970" d="M57.3339,-375.7058C64.1557,-415.7082 85.5732,-504.3268 145,-541.5 222.6818,-590.0922 336.2258,-559.2383 395.0214,-537.5159"/>
<polygon fill="#191970" stroke="#191970" points="60.754,-374.923 55.7475,-365.5857 53.8384,-376.0071 60.754,-374.923"/>
</g>
<!-- Node8 -->
<g id="node8" class="node">
<title>Node8</title>
<g id="a_node8"><a xlink:href="../../dc/d65/classPhotonJet.html#a9b2de7dcbd5e3bbbd26150d418b7bb44" target="_top" xlink:title="PhotonJet::GetRecoHadrons\lAndJets">
<polygon fill="none" stroke="#000000" points="147,-460.5 147,-492.5 303,-492.5 303,-460.5 147,-460.5"/>
<text text-anchor="start" x="155" y="-479.5" font-family="FreeSans" font-size="10.00" fill="#000000">PhotonJet::GetRecoHadrons</text>
<text text-anchor="middle" x="225" y="-467.5" font-family="FreeSans" font-size="10.00" fill="#000000">AndJets</text>
</a>
</g>
</g>
<!-- Node1&#45;&gt;Node8 -->
<g id="edge7" class="edge">
<title>Node1&#45;&gt;Node8</title>
<path fill="none" stroke="#191970" d="M68.6418,-373.4828C85.1275,-393.4215 114.0846,-425.4146 145,-445.5 153.8683,-451.2616 163.971,-456.2119 173.9413,-460.3576"/>
<polygon fill="#191970" stroke="#191970" points="71.1903,-371.0684 62.1764,-365.5006 65.7508,-375.4743 71.1903,-371.0684"/>
</g>
<!-- Node9 -->
<g id="node9" class="node">
<title>Node9</title>
<g id="a_node9"><a xlink:href="../../dc/d41/classConversion.html#a557d595ea55d47047a3e3c3706cf1c89" target="_top" xlink:title="Conversion::getTrackEtas">
<polygon fill="none" stroke="#000000" points="361,-448.5 361,-468.5 506,-468.5 506,-448.5 361,-448.5"/>
<text text-anchor="middle" x="433.5" y="-455.5" font-family="FreeSans" font-size="10.00" fill="#000000">Conversion::getTrackEtas</text>
</a>
</g>
</g>
<!-- Node1&#45;&gt;Node9 -->
<g id="edge9" class="edge">
<title>Node1&#45;&gt;Node9</title>
<path fill="none" stroke="#191970" d="M82.1808,-370.3161C99.7671,-379.2293 123.2397,-390.2212 145,-397.5 218.1892,-421.9818 305.2225,-438.7832 364.4159,-448.4602"/>
<polygon fill="#191970" stroke="#191970" points="83.5564,-367.0876 73.0644,-365.615 80.3481,-373.3091 83.5564,-367.0876"/>
</g>
<!-- Node13 -->
<g id="node13" class="node">
<title>Node13</title>
<g id="a_node13"><a xlink:href="../../db/db5/classDISKinematicsReco.html#ad801f1794841d3657aa4c0b2da334743" target="_top" xlink:title="DISKinematicsReco::\lInsertCandidateFromCluster">
<polygon fill="none" stroke="#000000" points="146,-153.5 146,-185.5 304,-185.5 304,-153.5 146,-153.5"/>
<text text-anchor="start" x="154" y="-172.5" font-family="FreeSans" font-size="10.00" fill="#000000">DISKinematicsReco::</text>
<text text-anchor="middle" x="225" y="-160.5" font-family="FreeSans" font-size="10.00" fill="#000000">InsertCandidateFromCluster</text>
</a>
</g>
</g>
<!-- Node1&#45;&gt;Node13 -->
<g id="edge13" class="edge">
<title>Node1&#45;&gt;Node13</title>
<path fill="none" stroke="#191970" d="M61.2107,-335.4929C73.113,-302.8716 100.901,-238.0989 145,-200.5 152.0275,-194.5083 160.3434,-189.6006 168.9115,-185.6032"/>
<polygon fill="#191970" stroke="#191970" points="57.7996,-334.6427 57.7827,-345.2376 64.403,-336.9657 57.7996,-334.6427"/>
</g>
<!-- Node16 -->
<g id="node16" class="node">
<title>Node16</title>
<g id="a_node16"><a xlink:href="../../df/d9b/classRecoConversionEval.html#a2e900269740606b5a5931ad276271868" target="_top" xlink:title="RecoConversionEval\l::pairCuts">
<polygon fill="none" stroke="#000000" points="374,-217.5 374,-249.5 493,-249.5 493,-217.5 374,-217.5"/>
<text text-anchor="start" x="382" y="-236.5" font-family="FreeSans" font-size="10.00" fill="#000000">RecoConversionEval</text>
<text text-anchor="middle" x="433.5" y="-224.5" font-family="FreeSans" font-size="10.00" fill="#000000">::pairCuts</text>
</a>
</g>
</g>
<!-- Node1&#45;&gt;Node16 -->
<g id="edge16" class="edge">
<title>Node1&#45;&gt;Node16</title>
<path fill="none" stroke="#191970" d="M75.195,-338.8554C92.7838,-325.5116 119.2164,-307.2908 145,-296.5 220.5496,-264.8814 314.1532,-248.1918 373.8591,-240.1115"/>
<polygon fill="#191970" stroke="#191970" points="72.6113,-336.4299 66.8536,-345.3236 76.9009,-341.9616 72.6113,-336.4299"/>
</g>
<!-- Node18 -->
<g id="node18" class="node">
<title>Node18</title>
<g id="a_node18"><a xlink:href="../../db/d4c/classBJetModule.html#a93ec29147c2d7aea52780d7370141e74" target="_top" xlink:title="BJetModule::process\l_event">
<polygon fill="none" stroke="#000000" points="165.5,-102.5 165.5,-134.5 284.5,-134.5 284.5,-102.5 165.5,-102.5"/>
<text text-anchor="start" x="173.5" y="-121.5" font-family="FreeSans" font-size="10.00" fill="#000000">BJetModule::process</text>
<text text-anchor="middle" x="225" y="-109.5" font-family="FreeSans" font-size="10.00" fill="#000000">_event</text>
</a>
</g>
</g>
<!-- Node1&#45;&gt;Node18 -->
<g id="edge18" class="edge">
<title>Node1&#45;&gt;Node18</title>
<path fill="none" stroke="#191970" d="M57.393,-335.2978C64.4658,-293.3574 86.5386,-196.3582 145,-143.5 150.9364,-138.1325 158.0147,-133.9174 165.4701,-130.6073"/>
<polygon fill="#191970" stroke="#191970" points="53.9053,-334.9464 55.8094,-345.3687 60.8203,-336.0338 53.9053,-334.9464"/>
</g>
<!-- Node19 -->
<g id="node19" class="node">
<title>Node19</title>
<g id="a_node19"><a xlink:href="../../db/dc4/classPHGenFitTrackProjection.html#a8f12e9c6ccc546498672eb6d45daef82" target="_top" xlink:title="PHGenFitTrackProjection\l::process_event">
<polygon fill="none" stroke="#000000" points="156,-51.5 156,-83.5 294,-83.5 294,-51.5 156,-51.5"/>
<text text-anchor="start" x="164" y="-70.5" font-family="FreeSans" font-size="10.00" fill="#000000">PHGenFitTrackProjection</text>
<text text-anchor="middle" x="225" y="-58.5" font-family="FreeSans" font-size="10.00" fill="#000000">::process_event</text>
</a>
</g>
</g>
<!-- Node1&#45;&gt;Node19 -->
<g id="edge19" class="edge">
<title>Node1&#45;&gt;Node19</title>
<path fill="none" stroke="#191970" d="M55.4812,-335.2852C58.955,-286.42 74.633,-160.8876 145,-92.5 148.5479,-89.0519 152.5645,-86.0787 156.8628,-83.5151"/>
<polygon fill="#191970" stroke="#191970" points="51.9742,-335.2959 54.8592,-345.4904 58.9612,-335.7219 51.9742,-335.2959"/>
</g>
<!-- Node20 -->
<g id="node20" class="node">
<title>Node20</title>
<g id="a_node20"><a xlink:href="../../d1/d04/classBDiJetModule.html#a8f01ada101f7e91cf05e12bbf420d192" target="_top" xlink:title="BDiJetModule::process\l_event">
<polygon fill="none" stroke="#000000" points="160.5,-.5 160.5,-32.5 289.5,-32.5 289.5,-.5 160.5,-.5"/>
<text text-anchor="start" x="168.5" y="-19.5" font-family="FreeSans" font-size="10.00" fill="#000000">BDiJetModule::process</text>
<text text-anchor="middle" x="225" y="-7.5" font-family="FreeSans" font-size="10.00" fill="#000000">_event</text>
</a>
</g>
</g>
<!-- Node1&#45;&gt;Node20 -->
<g id="edge21" class="edge">
<title>Node1&#45;&gt;Node20</title>
<path fill="none" stroke="#191970" d="M57.7622,-335.3426C68.2359,-272.9572 102.8027,-84.6478 145,-41.5 149.4766,-36.9226 154.7776,-33.1801 160.4875,-30.1208"/>
<polygon fill="#191970" stroke="#191970" points="54.2672,-335.0258 56.0905,-345.4625 61.1736,-336.1667 54.2672,-335.0258"/>
</g>
<!-- Node21 -->
<g id="node21" class="node">
<title>Node21</title>
<g id="a_node21"><a xlink:href="../../d9/d3a/classTruthConversionEval.html#a67e322163113e6ef65c9661d0fc80487" target="_top" xlink:title="fills the member fields for all the background trees">
<polygon fill="none" stroke="#000000" points="562,-352.5 562,-384.5 710,-384.5 710,-352.5 562,-352.5"/>
<text text-anchor="start" x="570" y="-371.5" font-family="FreeSans" font-size="10.00" fill="#000000">TruthConversionEval</text>
<text text-anchor="middle" x="636" y="-359.5" font-family="FreeSans" font-size="10.00" fill="#000000">::processTrackBackground</text>
</a>
</g>
</g>
<!-- Node1&#45;&gt;Node21 -->
<g id="edge22" class="edge">
<title>Node1&#45;&gt;Node21</title>
<path fill="none" stroke="#191970" d="M119.3833,-356.9505C228.1613,-359.3824 446.6635,-364.2672 561.5342,-366.8352"/>
<polygon fill="#191970" stroke="#191970" points="119.2819,-353.4475 109.2061,-356.723 119.1254,-360.4457 119.2819,-353.4475"/>
</g>
<!-- Node22 -->
<g id="node22" class="node">
<title>Node22</title>
<g id="a_node22"><a xlink:href="../../d7/dd4/classVtxRegressor.html#a9fcfebeb181524d256aad8d06b00d621" target="_top" xlink:title="VtxRegressor::regress">
<polygon fill="none" stroke="#000000" points="161,-306.5 161,-326.5 289,-326.5 289,-306.5 161,-306.5"/>
<text text-anchor="middle" x="225" y="-313.5" font-family="FreeSans" font-size="10.00" fill="#000000">VtxRegressor::regress</text>
</a>
</g>
</g>
<!-- Node1&#45;&gt;Node22 -->
<g id="edge24" class="edge">
<title>Node1&#45;&gt;Node22</title>
<path fill="none" stroke="#191970" d="M108.2329,-343.2092C131.7489,-337.8302 158.9887,-331.5994 181.2408,-326.5094"/>
<polygon fill="#191970" stroke="#191970" points="107.3758,-339.8148 98.408,-345.4565 108.9367,-346.6385 107.3758,-339.8148"/>
</g>
<!-- Node25 -->
<g id="node25" class="node">
<title>Node25</title>
<g id="a_node25"><a xlink:href="../../dc/d41/classConversion.html#a14d06a88902655de19a725901e70d081" target="_top" xlink:title="Conversion::trackDEta">
<polygon fill="none" stroke="#000000" points="369,-409.5 369,-429.5 498,-429.5 498,-409.5 369,-409.5"/>
<text text-anchor="middle" x="433.5" y="-416.5" font-family="FreeSans" font-size="10.00" fill="#000000">Conversion::trackDEta</text>
</a>
</g>
</g>
<!-- Node1&#45;&gt;Node25 -->
<g id="edge30" class="edge">
<title>Node1&#45;&gt;Node25</title>
<path fill="none" stroke="#191970" d="M119.4362,-366.4655C190.9401,-378.54 304.9228,-397.7878 374.1271,-409.474"/>
<polygon fill="#191970" stroke="#191970" points="119.6483,-362.9518 109.2051,-364.7378 118.4827,-369.8541 119.6483,-362.9518"/>
</g>
<!-- Node26 -->
<g id="node26" class="node">
<title>Node26</title>
<g id="a_node26"><a xlink:href="../../d9/d3a/classTruthConversionEval.html#a88755ffe017d2e5acbe48d905cc78bd2" target="_top" xlink:title="TruthConversionEval\l::tracktoTLV">
<polygon fill="none" stroke="#000000" points="746,-240.5 746,-272.5 867,-272.5 867,-240.5 746,-240.5"/>
<text text-anchor="start" x="754" y="-259.5" font-family="FreeSans" font-size="10.00" fill="#000000">TruthConversionEval</text>
<text text-anchor="middle" x="806.5" y="-247.5" font-family="FreeSans" font-size="10.00" fill="#000000">::tracktoTLV</text>
</a>
</g>
</g>
<!-- Node1&#45;&gt;Node26 -->
<g id="edge33" class="edge">
<title>Node1&#45;&gt;Node26</title>
<path fill="none" stroke="#191970" d="M65.0136,-336.6044C79.6319,-312.198 108.4685,-270.2731 145,-248.5 221.4482,-202.9362 252.476,-216.6598 341,-207.5 504.5335,-190.5789 548.465,-202.9064 710,-233.5 721.6761,-235.7114 734.0686,-238.4016 745.9429,-241.1518"/>
<polygon fill="#191970" stroke="#191970" points="61.9536,-334.9042 59.959,-345.3096 68.0071,-338.4191 61.9536,-334.9042"/>
</g>
<!-- Node3 -->
<g id="node3" class="node">
<title>Node3</title>
<g id="a_node3"><a xlink:href="../../da/d73/classExclusiveReco.html#a026079694f2af119464bf5955c27a01c" target="_top" xlink:title="ExclusiveReco::process\l_event">
<polygon fill="none" stroke="#000000" points="366.5,-640.5 366.5,-672.5 500.5,-672.5 500.5,-640.5 366.5,-640.5"/>
<text text-anchor="start" x="374.5" y="-659.5" font-family="FreeSans" font-size="10.00" fill="#000000">ExclusiveReco::process</text>
<text text-anchor="middle" x="433.5" y="-647.5" font-family="FreeSans" font-size="10.00" fill="#000000">_event</text>
</a>
</g>
</g>
<!-- Node2&#45;&gt;Node3 -->
<g id="edge2" class="edge">
<title>Node2&#45;&gt;Node3</title>
<path fill="none" stroke="#191970" d="M315.0527,-656.5C332.2278,-656.5 349.9268,-656.5 366.2378,-656.5"/>
<polygon fill="#191970" stroke="#191970" points="315.0153,-653.0001 305.0152,-656.5 315.0152,-660.0001 315.0153,-653.0001"/>
</g>
<!-- Node5 -->
<g id="node5" class="node">
<title>Node5</title>
<g id="a_node5"><a xlink:href="../../d6/d40/classLeptoquarksReco.html#aa5b8ff9665c7a78246bd4f1194d66d1b" target="_top" xlink:title="LeptoquarksReco::process\l_event">
<polygon fill="none" stroke="#000000" points="359,-589.5 359,-621.5 508,-621.5 508,-589.5 359,-589.5"/>
<text text-anchor="start" x="367" y="-608.5" font-family="FreeSans" font-size="10.00" fill="#000000">LeptoquarksReco::process</text>
<text text-anchor="middle" x="433.5" y="-596.5" font-family="FreeSans" font-size="10.00" fill="#000000">_event</text>
</a>
</g>
</g>
<!-- Node4&#45;&gt;Node5 -->
<g id="edge4" class="edge">
<title>Node4&#45;&gt;Node5</title>
<path fill="none" stroke="#191970" d="M313.6045,-605.5C328.7153,-605.5 344.2749,-605.5 358.9742,-605.5"/>
<polygon fill="#191970" stroke="#191970" points="313.2309,-602.0001 303.2309,-605.5 313.2309,-609.0001 313.2309,-602.0001"/>
</g>
<!-- Node6&#45;&gt;Node7 -->
<g id="edge6" class="edge">
<title>Node6&#45;&gt;Node7</title>
<path fill="none" stroke="#191970" d="M295.2063,-521.5C322.2503,-521.5 352.7279,-521.5 378.1754,-521.5"/>
<polygon fill="#191970" stroke="#191970" points="295.0271,-518.0001 285.0271,-521.5 295.0271,-525.0001 295.0271,-518.0001"/>
</g>
<!-- Node8&#45;&gt;Node7 -->
<g id="edge8" class="edge">
<title>Node8&#45;&gt;Node7</title>
<path fill="none" stroke="#191970" d="M309.2835,-494.6907C332.5988,-499.7228 357.2984,-505.0536 378.4789,-509.6249"/>
<polygon fill="#191970" stroke="#191970" points="309.9036,-491.244 299.3903,-492.5555 308.4268,-498.0864 309.9036,-491.244"/>
</g>
<!-- Node10 -->
<g id="node10" class="node">
<title>Node10</title>
<g id="a_node10"><a xlink:href="../../d9/d3a/classTruthConversionEval.html#a30309a3143d74dac7ff1f62cf275a5ac" target="_top" xlink:title="TruthConversionEval\l::recordConversion">
<polygon fill="none" stroke="#000000" points="575.5,-403.5 575.5,-435.5 696.5,-435.5 696.5,-403.5 575.5,-403.5"/>
<text text-anchor="start" x="583.5" y="-422.5" font-family="FreeSans" font-size="10.00" fill="#000000">TruthConversionEval</text>
<text text-anchor="middle" x="636" y="-410.5" font-family="FreeSans" font-size="10.00" fill="#000000">::recordConversion</text>
</a>
</g>
</g>
<!-- Node9&#45;&gt;Node10 -->
<g id="edge10" class="edge">
<title>Node9&#45;&gt;Node10</title>
<path fill="none" stroke="#191970" d="M495.5318,-446.5531C520.912,-441.6651 550.1809,-436.0281 575.4105,-431.1691"/>
<polygon fill="#191970" stroke="#191970" points="494.8064,-443.1284 485.6488,-448.4565 496.1303,-450.0021 494.8064,-443.1284"/>
</g>
<!-- Node11 -->
<g id="node11" class="node">
<title>Node11</title>
<g id="a_node11"><a xlink:href="../../d9/d3a/classTruthConversionEval.html#a802d15f00a153397546daabb7dbabbd2" target="_top" xlink:title="TruthConversionEval\l::numUnique">
<polygon fill="none" stroke="#000000" points="746,-400.5 746,-432.5 867,-432.5 867,-400.5 746,-400.5"/>
<text text-anchor="start" x="754" y="-419.5" font-family="FreeSans" font-size="10.00" fill="#000000">TruthConversionEval</text>
<text text-anchor="middle" x="806.5" y="-407.5" font-family="FreeSans" font-size="10.00" fill="#000000">::numUnique</text>
</a>
</g>
</g>
<!-- Node10&#45;&gt;Node11 -->
<g id="edge11" class="edge">
<title>Node10&#45;&gt;Node11</title>
<path fill="none" stroke="#191970" d="M706.8524,-418.2533C719.7978,-418.0256 733.1994,-417.7897 745.816,-417.5678"/>
<polygon fill="#191970" stroke="#191970" points="706.5288,-414.7584 696.592,-418.4339 706.6521,-421.7573 706.5288,-414.7584"/>
</g>
<!-- Node12 -->
<g id="node12" class="node">
<title>Node12</title>
<g id="a_node12"><a xlink:href="../../d9/d3a/classTruthConversionEval.html#a9a67c8171296f35dd157daf89108d3fd" target="_top" xlink:title="TruthConversionEval\l::process_event">
<polygon fill="none" stroke="#000000" points="903,-352.5 903,-384.5 1024,-384.5 1024,-352.5 903,-352.5"/>
<text text-anchor="start" x="911" y="-371.5" font-family="FreeSans" font-size="10.00" fill="#000000">TruthConversionEval</text>
<text text-anchor="middle" x="963.5" y="-359.5" font-family="FreeSans" font-size="10.00" fill="#000000">::process_event</text>
</a>
</g>
</g>
<!-- Node11&#45;&gt;Node12 -->
<g id="edge12" class="edge">
<title>Node11&#45;&gt;Node12</title>
<path fill="none" stroke="#191970" d="M869.1497,-397.346C882.995,-393.113 897.5267,-388.6702 910.9237,-384.5743"/>
<polygon fill="#191970" stroke="#191970" points="867.7552,-394.1123 859.2155,-400.3832 869.8019,-400.8064 867.7552,-394.1123"/>
</g>
<!-- Node14 -->
<g id="node14" class="node">
<title>Node14</title>
<g id="a_node14"><a xlink:href="../../db/db5/classDISKinematicsReco.html#a4ea9fa36ccd955fd7cdfa7e7eaf1e534" target="_top" xlink:title="DISKinematicsReco::\lCollectEmCandidatesFromCluster">
<polygon fill="none" stroke="#000000" points="341,-127.5 341,-159.5 526,-159.5 526,-127.5 341,-127.5"/>
<text text-anchor="start" x="349" y="-146.5" font-family="FreeSans" font-size="10.00" fill="#000000">DISKinematicsReco::</text>
<text text-anchor="middle" x="433.5" y="-134.5" font-family="FreeSans" font-size="10.00" fill="#000000">CollectEmCandidatesFromCluster</text>
</a>
</g>
</g>
<!-- Node13&#45;&gt;Node14 -->
<g id="edge14" class="edge">
<title>Node13&#45;&gt;Node14</title>
<path fill="none" stroke="#191970" d="M314.3276,-158.3608C323.0903,-157.2681 331.9966,-156.1575 340.7919,-155.0607"/>
<polygon fill="#191970" stroke="#191970" points="313.6122,-154.9228 304.1222,-159.6334 314.4785,-161.869 313.6122,-154.9228"/>
</g>
<!-- Node15 -->
<g id="node15" class="node">
<title>Node15</title>
<g id="a_node15"><a xlink:href="../../db/db5/classDISKinematicsReco.html#a6d03dc93ccee64fd4d931a06dad1ec55" target="_top" xlink:title="DISKinematicsReco::\lprocess_event">
<polygon fill="none" stroke="#000000" points="576,-127.5 576,-159.5 696,-159.5 696,-127.5 576,-127.5"/>
<text text-anchor="start" x="584" y="-146.5" font-family="FreeSans" font-size="10.00" fill="#000000">DISKinematicsReco::</text>
<text text-anchor="middle" x="636" y="-134.5" font-family="FreeSans" font-size="10.00" fill="#000000">process_event</text>
</a>
</g>
</g>
<!-- Node14&#45;&gt;Node15 -->
<g id="edge15" class="edge">
<title>Node14&#45;&gt;Node15</title>
<path fill="none" stroke="#191970" d="M536.4615,-143.5C549.9472,-143.5 563.3924,-143.5 575.8397,-143.5"/>
<polygon fill="#191970" stroke="#191970" points="536.1569,-140.0001 526.1569,-143.5 536.1569,-147.0001 536.1569,-140.0001"/>
</g>
<!-- Node17 -->
<g id="node17" class="node">
<title>Node17</title>
<g id="a_node17"><a xlink:href="../../df/d9b/classRecoConversionEval.html#a54bb2ea55f01b0d0dc8752fbee1bc237" target="_top" xlink:title="RecoConversionEval\l::process_event">
<polygon fill="none" stroke="#000000" points="576.5,-243.5 576.5,-275.5 695.5,-275.5 695.5,-243.5 576.5,-243.5"/>
<text text-anchor="start" x="584.5" y="-262.5" font-family="FreeSans" font-size="10.00" fill="#000000">RecoConversionEval</text>
<text text-anchor="middle" x="636" y="-250.5" font-family="FreeSans" font-size="10.00" fill="#000000">::process_event</text>
</a>
</g>
</g>
<!-- Node16&#45;&gt;Node17 -->
<g id="edge17" class="edge">
<title>Node16&#45;&gt;Node17</title>
<path fill="none" stroke="#191970" d="M503.199,-242.449C527.0313,-245.509 553.4547,-248.9016 576.4154,-251.8496"/>
<polygon fill="#191970" stroke="#191970" points="503.5258,-238.9623 493.1614,-241.1602 502.6343,-245.9053 503.5258,-238.9623"/>
</g>
<!-- Node21&#45;&gt;Node12 -->
<g id="edge23" class="edge">
<title>Node21&#45;&gt;Node12</title>
<path fill="none" stroke="#191970" d="M720.4087,-368.5C777.514,-368.5 851.5959,-368.5 902.896,-368.5"/>
<polygon fill="#191970" stroke="#191970" points="720.3149,-365.0001 710.3148,-368.5 720.3148,-372.0001 720.3149,-365.0001"/>
</g>
<!-- Node23 -->
<g id="node23" class="node">
<title>Node23</title>
<g id="a_node23"><a xlink:href="../../dc/d41/classConversion.html#a5d2dd3e5fba175ce2ac24fa0cb9bb4be" target="_top" xlink:title="Uses the specified TMVA method to update and.">
<polygon fill="none" stroke="#000000" points="349,-319.5 349,-351.5 518,-351.5 518,-319.5 349,-319.5"/>
<text text-anchor="start" x="357" y="-338.5" font-family="FreeSans" font-size="10.00" fill="#000000">Conversion::correctSecondary</text>
<text text-anchor="middle" x="433.5" y="-326.5" font-family="FreeSans" font-size="10.00" fill="#000000">Vertex</text>
</a>
</g>
</g>
<!-- Node22&#45;&gt;Node23 -->
<g id="edge25" class="edge">
<title>Node22&#45;&gt;Node23</title>
<path fill="none" stroke="#191970" d="M299.565,-323.2949C315.497,-324.7467 332.4382,-326.2905 348.7221,-327.7744"/>
<polygon fill="#191970" stroke="#191970" points="299.5346,-319.7777 289.2582,-322.3557 298.8992,-326.7488 299.5346,-319.7777"/>
</g>
<!-- Node24 -->
<g id="node24" class="node">
<title>Node24</title>
<g id="a_node24"><a xlink:href="../../df/d9b/classRecoConversionEval.html#a7de16e316b2ebedef53f336a9c568c14" target="_top" xlink:title="Uses the TMVA method to correct the vtx radius.">
<polygon fill="none" stroke="#000000" points="361.5,-268.5 361.5,-300.5 505.5,-300.5 505.5,-268.5 361.5,-268.5"/>
<text text-anchor="start" x="369.5" y="-287.5" font-family="FreeSans" font-size="10.00" fill="#000000">RecoConversionEval</text>
<text text-anchor="middle" x="433.5" y="-275.5" font-family="FreeSans" font-size="10.00" fill="#000000">::correctSecondaryVertex</text>
</a>
</g>
</g>
<!-- Node22&#45;&gt;Node24 -->
<g id="edge28" class="edge">
<title>Node22&#45;&gt;Node24</title>
<path fill="none" stroke="#191970" d="M299.3404,-305.0904C319.5412,-301.9901 341.379,-298.6385 361.4507,-295.5579"/>
<polygon fill="#191970" stroke="#191970" points="298.6115,-301.6612 289.2582,-306.6378 299.6734,-308.5802 298.6115,-301.6612"/>
</g>
<!-- Node23&#45;&gt;Node10 -->
<g id="edge27" class="edge">
<title>Node23&#45;&gt;Node10</title>
<path fill="none" stroke="#191970" d="M475.2578,-356.018C500.1619,-367.9154 532.5657,-382.8079 562,-394.5 569.6876,-397.5538 577.9132,-400.5717 585.9838,-403.3974"/>
<polygon fill="#191970" stroke="#191970" points="476.6313,-352.7949 466.102,-351.6178 473.5991,-359.1041 476.6313,-352.7949"/>
</g>
<!-- Node23&#45;&gt;Node21 -->
<g id="edge26" class="edge">
<title>Node23&#45;&gt;Node21</title>
<path fill="none" stroke="#191970" d="M528.1334,-350.9217C539.4803,-352.7709 550.9385,-354.6381 561.9347,-356.4301"/>
<polygon fill="#191970" stroke="#191970" points="528.6377,-347.4578 518.2049,-349.3038 527.5117,-354.3667 528.6377,-347.4578"/>
</g>
<!-- Node24&#45;&gt;Node17 -->
<g id="edge29" class="edge">
<title>Node24&#45;&gt;Node17</title>
<path fill="none" stroke="#191970" d="M515.9187,-274.3249C536.1909,-271.8221 557.507,-269.1905 576.4602,-266.8506"/>
<polygon fill="#191970" stroke="#191970" points="515.2453,-270.8813 505.7495,-275.5803 516.1031,-277.8286 515.2453,-270.8813"/>
</g>
<!-- Node25&#45;&gt;Node10 -->
<g id="edge32" class="edge">
<title>Node25&#45;&gt;Node10</title>
<path fill="none" stroke="#191970" d="M508.1604,-419.5C530.3098,-419.5 554.2863,-419.5 575.4255,-419.5"/>
<polygon fill="#191970" stroke="#191970" points="508.1291,-416.0001 498.129,-419.5 508.129,-423.0001 508.1291,-416.0001"/>
</g>
<!-- Node25&#45;&gt;Node21 -->
<g id="edge31" class="edge">
<title>Node25&#45;&gt;Node21</title>
<path fill="none" stroke="#191970" d="M483.4308,-406.9248C510.2155,-400.1791 543.5139,-391.7928 572.1623,-384.5777"/>
<polygon fill="#191970" stroke="#191970" points="482.3499,-403.5877 473.5075,-409.424 484.0595,-410.3757 482.3499,-403.5877"/>
</g>
<!-- Node26&#45;&gt;Node12 -->
<g id="edge34" class="edge">
<title>Node26&#45;&gt;Node12</title>
<path fill="none" stroke="#191970" d="M837.1596,-278.3718C867.6767,-300.1419 913.7859,-333.0351 941.0475,-352.4829"/>
<polygon fill="#191970" stroke="#191970" points="839.1678,-275.5051 828.9943,-272.5469 835.1025,-281.2037 839.1678,-275.5051"/>
</g>
</g>
</svg>
