<?xml version="1.0" encoding="UTF-8" standalone="no"?>
<!DOCTYPE svg PUBLIC "-//W3C//DTD SVG 1.1//EN"
 "http://www.w3.org/Graphics/SVG/1.1/DTD/svg11.dtd">
<!-- Generated by graphviz version 2.40.1 (20161225.0304)
 -->
<!-- Title: SvtxTrack::get_phi Pages: 1 -->
<svg width="1032pt" height="669pt"
 viewBox="0.00 0.00 1032.00 669.00" xmlns="http://www.w3.org/2000/svg" xmlns:xlink="http://www.w3.org/1999/xlink">
<g id="graph0" class="graph" transform="scale(1 1) rotate(0) translate(4 665)">
<title>SvtxTrack::get_phi</title>
<!-- Node1 -->
<g id="node1" class="node">
<title>Node1</title>
<polygon fill="#bfbfbf" stroke="#000000" points="0,-332.5 0,-352.5 109,-352.5 109,-332.5 0,-332.5"/>
<text text-anchor="middle" x="54.5" y="-339.5" font-family="FreeSans" font-size="10.00" fill="#000000">SvtxTrack::get_phi</text>
</g>
<!-- Node2 -->
<g id="node2" class="node">
<title>Node2</title>
<g id="a_node2"><a xlink:href="../../da/d73/classExclusiveReco.html#a48d900fd8ad00d0b252204dcbb941bc7" target="_top" xlink:title="ExclusiveReco::AddInvariant\lMassInformation">
<polygon fill="none" stroke="#000000" points="145,-628.5 145,-660.5 305,-660.5 305,-628.5 145,-628.5"/>
<text text-anchor="start" x="153" y="-647.5" font-family="FreeSans" font-size="10.00" fill="#000000">ExclusiveReco::AddInvariant</text>
<text text-anchor="middle" x="225" y="-635.5" font-family="FreeSans" font-size="10.00" fill="#000000">MassInformation</text>
</a>
</g>
</g>
<!-- Node1&#45;&gt;Node2 -->
<g id="edge1" class="edge">
<title>Node1&#45;&gt;Node2</title>
<path fill="none" stroke="#191970" d="M58.5542,-362.502C70.5156,-419.6915 107.196,-582.1805 145,-619.5 148.4173,-622.8735 152.2829,-625.7927 156.4245,-628.3186"/>
<polygon fill="#191970" stroke="#191970" points="61.9466,-361.6231 56.4985,-352.5364 55.091,-363.0373 61.9466,-361.6231"/>
</g>
<!-- Node4 -->
<g id="node4" class="node">
<title>Node4</title>
<g id="a_node4"><a xlink:href="../../d6/d40/classLeptoquarksReco.html#a74b066097052383649d5ecd7efb01627" target="_top" xlink:title="LeptoquarksReco::AddTrack\lInformation">
<polygon fill="none" stroke="#000000" points="147,-577.5 147,-609.5 303,-609.5 303,-577.5 147,-577.5"/>
<text text-anchor="start" x="155" y="-596.5" font-family="FreeSans" font-size="10.00" fill="#000000">LeptoquarksReco::AddTrack</text>
<text text-anchor="middle" x="225" y="-584.5" font-family="FreeSans" font-size="10.00" fill="#000000">Information</text>
</a>
</g>
</g>
<!-- Node1&#45;&gt;Node4 -->
<g id="edge3" class="edge">
<title>Node1&#45;&gt;Node4</title>
<path fill="none" stroke="#191970" d="M57.4045,-362.861C64.5364,-405.6095 86.7732,-505.4593 145,-562.5 151.1714,-568.5457 158.6528,-573.4431 166.5339,-577.4024"/>
<polygon fill="#191970" stroke="#191970" points="60.8407,-362.1801 55.8395,-352.84 53.9245,-363.2603 60.8407,-362.1801"/>
</g>
<!-- Node6 -->
<g id="node6" class="node">
<title>Node6</title>
<g id="a_node6"><a xlink:href="../../dc/d65/classPhotonJet.html#a2c998d51d52420bdde0a2100c7cbdf62" target="_top" xlink:title="PhotonJet::ConeSum">
<polygon fill="none" stroke="#000000" points="165,-499.5 165,-519.5 285,-519.5 285,-499.5 165,-499.5"/>
<text text-anchor="middle" x="225" y="-506.5" font-family="FreeSans" font-size="10.00" fill="#000000">PhotonJet::ConeSum</text>
</a>
</g>
</g>
<!-- Node1&#45;&gt;Node6 -->
<g id="edge5" class="edge">
<title>Node1&#45;&gt;Node6</title>
<path fill="none" stroke="#191970" d="M60.9325,-362.2795C72.4348,-394.3992 99.6613,-457.6109 145,-490.5 150.8931,-494.7749 157.6132,-498.1006 164.597,-500.6857"/>
<polygon fill="#191970" stroke="#191970" points="64.1897,-360.9882 57.6311,-352.6674 57.5693,-363.2621 64.1897,-360.9882"/>
</g>
<!-- Node7 -->
<g id="node7" class="node">
<title>Node7</title>
<g id="a_node7"><a xlink:href="../../dc/d65/classPhotonJet.html#a3f9d3ec941f851bc2246ceb0c5362c9f" target="_top" xlink:title="PhotonJet::process\l_event">
<polygon fill="none" stroke="#000000" points="378.5,-513.5 378.5,-545.5 488.5,-545.5 488.5,-513.5 378.5,-513.5"/>
<text text-anchor="start" x="386.5" y="-532.5" font-family="FreeSans" font-size="10.00" fill="#000000">PhotonJet::process</text>
<text text-anchor="middle" x="433.5" y="-520.5" font-family="FreeSans" font-size="10.00" fill="#000000">_event</text>
</a>
</g>
</g>
<!-- Node1&#45;&gt;Node7 -->
<g id="edge18" class="edge">
<title>Node1&#45;&gt;Node7</title>
<path fill="none" stroke="#191970" d="M57.2536,-362.5526C63.9605,-402.6385 85.2264,-492.0223 145,-529.5 215.9733,-573.9999 317.3497,-560.3544 379.1099,-545.5449"/>
<polygon fill="#191970" stroke="#191970" points="60.7082,-361.9892 55.7281,-352.6377 53.7896,-363.0537 60.7082,-361.9892"/>
</g>
<!-- Node8 -->
<g id="node8" class="node">
<title>Node8</title>
<g id="a_node8"><a xlink:href="../../dc/d65/classPhotonJet.html#a9b2de7dcbd5e3bbbd26150d418b7bb44" target="_top" xlink:title="PhotonJet::GetRecoHadrons\lAndJets">
<polygon fill="none" stroke="#000000" points="147,-448.5 147,-480.5 303,-480.5 303,-448.5 147,-448.5"/>
<text text-anchor="start" x="155" y="-467.5" font-family="FreeSans" font-size="10.00" fill="#000000">PhotonJet::GetRecoHadrons</text>
<text text-anchor="middle" x="225" y="-455.5" font-family="FreeSans" font-size="10.00" fill="#000000">AndJets</text>
</a>
</g>
</g>
<!-- Node1&#45;&gt;Node8 -->
<g id="edge7" class="edge">
<title>Node1&#45;&gt;Node8</title>
<path fill="none" stroke="#191970" d="M67.1266,-361.024C82.9091,-382.8244 111.9061,-418.684 145,-439.5 150.4196,-442.9089 156.3395,-445.8845 162.4276,-448.4751"/>
<polygon fill="#191970" stroke="#191970" points="69.8249,-358.7774 61.1983,-352.6266 64.1064,-362.8145 69.8249,-358.7774"/>
</g>
<!-- Node9 -->
<g id="node9" class="node">
<title>Node9</title>
<g id="a_node9"><a xlink:href="../../dc/d41/classConversion.html#a79257d517138c0a6d74827a2e899470b" target="_top" xlink:title="Conversion::getTrackPhis">
<polygon fill="none" stroke="#000000" points="362,-333.5 362,-353.5 505,-353.5 505,-333.5 362,-333.5"/>
<text text-anchor="middle" x="433.5" y="-340.5" font-family="FreeSans" font-size="10.00" fill="#000000">Conversion::getTrackPhis</text>
</a>
</g>
</g>
<!-- Node1&#45;&gt;Node9 -->
<g id="edge9" class="edge">
<title>Node1&#45;&gt;Node9</title>
<path fill="none" stroke="#191970" d="M119.284,-342.6709C186.7413,-342.8489 292.1245,-343.127 361.9825,-343.3113"/>
<polygon fill="#191970" stroke="#191970" points="119.2143,-339.1708 109.2051,-342.6443 119.1958,-346.1708 119.2143,-339.1708"/>
</g>
<!-- Node13 -->
<g id="node13" class="node">
<title>Node13</title>
<g id="a_node13"><a xlink:href="../../db/db5/classDISKinematicsReco.html#ad801f1794841d3657aa4c0b2da334743" target="_top" xlink:title="DISKinematicsReco::\lInsertCandidateFromCluster">
<polygon fill="none" stroke="#000000" points="146,-243.5 146,-275.5 304,-275.5 304,-243.5 146,-243.5"/>
<text text-anchor="start" x="154" y="-262.5" font-family="FreeSans" font-size="10.00" fill="#000000">DISKinematicsReco::</text>
<text text-anchor="middle" x="225" y="-250.5" font-family="FreeSans" font-size="10.00" fill="#000000">InsertCandidateFromCluster</text>
</a>
</g>
</g>
<!-- Node1&#45;&gt;Node13 -->
<g id="edge13" class="edge">
<title>Node1&#45;&gt;Node13</title>
<path fill="none" stroke="#191970" d="M79.1105,-326.9993C97.0075,-316.0662 122.0252,-301.4738 145,-290.5 156.1558,-285.1715 168.4871,-280.0396 180.0591,-275.5368"/>
<polygon fill="#191970" stroke="#191970" points="77.1209,-324.1142 70.4491,-332.3444 80.7972,-330.0712 77.1209,-324.1142"/>
</g>
<!-- Node16 -->
<g id="node16" class="node">
<title>Node16</title>
<g id="a_node16"><a xlink:href="../../db/d4c/classBJetModule.html#a93ec29147c2d7aea52780d7370141e74" target="_top" xlink:title="BJetModule::process\l_event">
<polygon fill="none" stroke="#000000" points="165.5,-192.5 165.5,-224.5 284.5,-224.5 284.5,-192.5 165.5,-192.5"/>
<text text-anchor="start" x="173.5" y="-211.5" font-family="FreeSans" font-size="10.00" fill="#000000">BJetModule::process</text>
<text text-anchor="middle" x="225" y="-199.5" font-family="FreeSans" font-size="10.00" fill="#000000">_event</text>
</a>
</g>
</g>
<!-- Node1&#45;&gt;Node16 -->
<g id="edge16" class="edge">
<title>Node1&#45;&gt;Node16</title>
<path fill="none" stroke="#191970" d="M65.2598,-323.7803C80.1494,-299.5007 109.2843,-257.4331 145,-233.5 151.165,-229.3689 158.0487,-225.8915 165.12,-222.9714"/>
<polygon fill="#191970" stroke="#191970" points="62.2201,-322.0441 60.1013,-332.4249 68.2312,-325.6311 62.2201,-322.0441"/>
</g>
<!-- Node17 -->
<g id="node17" class="node">
<title>Node17</title>
<g id="a_node17"><a xlink:href="../../db/dc4/classPHGenFitTrackProjection.html#a8f12e9c6ccc546498672eb6d45daef82" target="_top" xlink:title="PHGenFitTrackProjection\l::process_event">
<polygon fill="none" stroke="#000000" points="156,-141.5 156,-173.5 294,-173.5 294,-141.5 156,-141.5"/>
<text text-anchor="start" x="164" y="-160.5" font-family="FreeSans" font-size="10.00" fill="#000000">PHGenFitTrackProjection</text>
<text text-anchor="middle" x="225" y="-148.5" font-family="FreeSans" font-size="10.00" fill="#000000">::process_event</text>
</a>
</g>
</g>
<!-- Node1&#45;&gt;Node17 -->
<g id="edge17" class="edge">
<title>Node1&#45;&gt;Node17</title>
<path fill="none" stroke="#191970" d="M60.4398,-322.4414C71.4875,-288.5895 98.405,-220.138 145,-182.5 149.1883,-179.1169 153.837,-176.1894 158.7256,-173.6566"/>
<polygon fill="#191970" stroke="#191970" points="57.0531,-321.5447 57.4056,-332.1336 63.7334,-323.636 57.0531,-321.5447"/>
</g>
<!-- Node18 -->
<g id="node18" class="node">
<title>Node18</title>
<g id="a_node18"><a xlink:href="../../d1/d04/classBDiJetModule.html#a8f01ada101f7e91cf05e12bbf420d192" target="_top" xlink:title="BDiJetModule::process\l_event">
<polygon fill="none" stroke="#000000" points="160.5,-90.5 160.5,-122.5 289.5,-122.5 289.5,-90.5 160.5,-90.5"/>
<text text-anchor="start" x="168.5" y="-109.5" font-family="FreeSans" font-size="10.00" fill="#000000">BDiJetModule::process</text>
<text text-anchor="middle" x="225" y="-97.5" font-family="FreeSans" font-size="10.00" fill="#000000">_event</text>
</a>
</g>
</g>
<!-- Node1&#45;&gt;Node18 -->
<g id="edge19" class="edge">
<title>Node1&#45;&gt;Node18</title>
<path fill="none" stroke="#191970" d="M57.423,-322.3913C64.5526,-280.6453 86.7268,-184.0976 145,-131.5 149.5368,-127.4051 154.7383,-123.9809 160.2642,-121.1176"/>
<polygon fill="#191970" stroke="#191970" points="53.943,-321.9893 55.8252,-332.4156 60.8557,-323.0912 53.943,-321.9893"/>
</g>
<!-- Node19 -->
<g id="node19" class="node">
<title>Node19</title>
<g id="a_node19"><a xlink:href="../../d7/dd4/classVtxRegressor.html#a9fcfebeb181524d256aad8d06b00d621" target="_top" xlink:title="VtxRegressor::regress">
<polygon fill="none" stroke="#000000" points="161,-409.5 161,-429.5 289,-429.5 289,-409.5 161,-409.5"/>
<text text-anchor="middle" x="225" y="-416.5" font-family="FreeSans" font-size="10.00" fill="#000000">VtxRegressor::regress</text>
</a>
</g>
</g>
<!-- Node1&#45;&gt;Node19 -->
<g id="edge20" class="edge">
<title>Node1&#45;&gt;Node19</title>
<path fill="none" stroke="#191970" d="M78.2507,-358.0687C96.0825,-369.2753 121.3888,-384.1759 145,-394.5 158.3325,-400.3297 173.456,-405.4196 186.9369,-409.4582"/>
<polygon fill="#191970" stroke="#191970" points="79.9693,-355.0136 69.6557,-352.5889 76.2062,-360.9161 79.9693,-355.0136"/>
</g>
<!-- Node24 -->
<g id="node24" class="node">
<title>Node24</title>
<g id="a_node24"><a xlink:href="../../dc/d41/classConversion.html#a4e42cc6233c2f362b054e04a3ba9f087" target="_top" xlink:title="Conversion::trackDPhi">
<polygon fill="none" stroke="#000000" points="369.5,-372.5 369.5,-392.5 497.5,-392.5 497.5,-372.5 369.5,-372.5"/>
<text text-anchor="middle" x="433.5" y="-379.5" font-family="FreeSans" font-size="10.00" fill="#000000">Conversion::trackDPhi</text>
</a>
</g>
</g>
<!-- Node1&#45;&gt;Node24 -->
<g id="edge27" class="edge">
<title>Node1&#45;&gt;Node24</title>
<path fill="none" stroke="#191970" d="M119.4319,-353.887C128.0154,-355.2088 136.7093,-356.4553 145,-357.5 221.94,-367.1949 310.9022,-374.2831 369.4655,-378.386"/>
<polygon fill="#191970" stroke="#191970" points="119.8607,-350.4114 109.4371,-352.3083 118.7686,-357.3257 119.8607,-350.4114"/>
</g>
<!-- Node25 -->
<g id="node25" class="node">
<title>Node25</title>
<g id="a_node25"><a xlink:href="../../d9/d3a/classTruthConversionEval.html#a88755ffe017d2e5acbe48d905cc78bd2" target="_top" xlink:title="TruthConversionEval\l::tracktoTLV">
<polygon fill="none" stroke="#000000" points="746,-298.5 746,-330.5 867,-330.5 867,-298.5 746,-298.5"/>
<text text-anchor="start" x="754" y="-317.5" font-family="FreeSans" font-size="10.00" fill="#000000">TruthConversionEval</text>
<text text-anchor="middle" x="806.5" y="-305.5" font-family="FreeSans" font-size="10.00" fill="#000000">::tracktoTLV</text>
</a>
</g>
</g>
<!-- Node1&#45;&gt;Node25 -->
<g id="edge30" class="edge">
<title>Node1&#45;&gt;Node25</title>
<path fill="none" stroke="#191970" d="M119.2422,-337.3369C177.2792,-332.916 264.7711,-326.7628 341,-323.5 486.1609,-317.2868 656.9701,-315.3617 745.8436,-314.7661"/>
<polygon fill="#191970" stroke="#191970" points="118.8187,-333.859 109.1157,-338.1135 119.354,-340.8385 118.8187,-333.859"/>
</g>
<!-- Node26 -->
<g id="node26" class="node">
<title>Node26</title>
<g id="a_node26"><a xlink:href="../../dc/d41/classConversion.html#ac7c58e877ac6d77798fc2d6ae971edfc" target="_top" xlink:title="helper function">
<polygon fill="none" stroke="#000000" points="153,-51.5 153,-71.5 297,-71.5 297,-51.5 153,-51.5"/>
<text text-anchor="middle" x="225" y="-58.5" font-family="FreeSans" font-size="10.00" fill="#000000">Conversion::vtxTrackRPhi</text>
</a>
</g>
</g>
<!-- Node1&#45;&gt;Node26 -->
<g id="edge32" class="edge">
<title>Node1&#45;&gt;Node26</title>
<path fill="none" stroke="#191970" d="M58.827,-322.3657C71.1215,-266.9734 107.7842,-114.1887 145,-80.5 148.9158,-76.9554 153.3708,-74.0384 158.1274,-71.6418"/>
<polygon fill="#191970" stroke="#191970" points="55.3594,-321.8396 56.6407,-332.3567 62.1976,-323.336 55.3594,-321.8396"/>
</g>
<!-- Node27 -->
<g id="node27" class="node">
<title>Node27</title>
<g id="a_node27"><a xlink:href="../../df/d9b/classRecoConversionEval.html#a0814d1a13453dd49199fb40c7710420d" target="_top" xlink:title="track must be closer in RPhi space to the vtx than the cut">
<polygon fill="none" stroke="#000000" points="165.5,-.5 165.5,-32.5 284.5,-32.5 284.5,-.5 165.5,-.5"/>
<text text-anchor="start" x="173.5" y="-19.5" font-family="FreeSans" font-size="10.00" fill="#000000">RecoConversionEval</text>
<text text-anchor="middle" x="225" y="-7.5" font-family="FreeSans" font-size="10.00" fill="#000000">::vtxTrackRPhiCut</text>
</a>
</g>
</g>
<!-- Node1&#45;&gt;Node27 -->
<g id="edge33" class="edge">
<title>Node1&#45;&gt;Node27</title>
<path fill="none" stroke="#191970" d="M58.0248,-322.3679C69.0139,-261.7478 104.3567,-82.5854 145,-41.5 150.7308,-35.7069 157.7824,-31.252 165.3029,-27.827"/>
<polygon fill="#191970" stroke="#191970" points="54.5731,-321.7879 56.2606,-332.2475 61.4641,-323.0186 54.5731,-321.7879"/>
</g>
<!-- Node3 -->
<g id="node3" class="node">
<title>Node3</title>
<g id="a_node3"><a xlink:href="../../da/d73/classExclusiveReco.html#a026079694f2af119464bf5955c27a01c" target="_top" xlink:title="ExclusiveReco::process\l_event">
<polygon fill="none" stroke="#000000" points="366.5,-628.5 366.5,-660.5 500.5,-660.5 500.5,-628.5 366.5,-628.5"/>
<text text-anchor="start" x="374.5" y="-647.5" font-family="FreeSans" font-size="10.00" fill="#000000">ExclusiveReco::process</text>
<text text-anchor="middle" x="433.5" y="-635.5" font-family="FreeSans" font-size="10.00" fill="#000000">_event</text>
</a>
</g>
</g>
<!-- Node2&#45;&gt;Node3 -->
<g id="edge2" class="edge">
<title>Node2&#45;&gt;Node3</title>
<path fill="none" stroke="#191970" d="M315.0527,-644.5C332.2278,-644.5 349.9268,-644.5 366.2378,-644.5"/>
<polygon fill="#191970" stroke="#191970" points="315.0153,-641.0001 305.0152,-644.5 315.0152,-648.0001 315.0153,-641.0001"/>
</g>
<!-- Node5 -->
<g id="node5" class="node">
<title>Node5</title>
<g id="a_node5"><a xlink:href="../../d6/d40/classLeptoquarksReco.html#aa5b8ff9665c7a78246bd4f1194d66d1b" target="_top" xlink:title="LeptoquarksReco::process\l_event">
<polygon fill="none" stroke="#000000" points="359,-577.5 359,-609.5 508,-609.5 508,-577.5 359,-577.5"/>
<text text-anchor="start" x="367" y="-596.5" font-family="FreeSans" font-size="10.00" fill="#000000">LeptoquarksReco::process</text>
<text text-anchor="middle" x="433.5" y="-584.5" font-family="FreeSans" font-size="10.00" fill="#000000">_event</text>
</a>
</g>
</g>
<!-- Node4&#45;&gt;Node5 -->
<g id="edge4" class="edge">
<title>Node4&#45;&gt;Node5</title>
<path fill="none" stroke="#191970" d="M313.6045,-593.5C328.7153,-593.5 344.2749,-593.5 358.9742,-593.5"/>
<polygon fill="#191970" stroke="#191970" points="313.2309,-590.0001 303.2309,-593.5 313.2309,-597.0001 313.2309,-590.0001"/>
</g>
<!-- Node6&#45;&gt;Node7 -->
<g id="edge6" class="edge">
<title>Node6&#45;&gt;Node7</title>
<path fill="none" stroke="#191970" d="M295.2063,-516.2344C322.2503,-518.8286 352.7279,-521.7521 378.1754,-524.1931"/>
<polygon fill="#191970" stroke="#191970" points="295.3156,-512.7289 285.0271,-515.258 294.6472,-519.6969 295.3156,-512.7289"/>
</g>
<!-- Node8&#45;&gt;Node7 -->
<g id="edge8" class="edge">
<title>Node8&#45;&gt;Node7</title>
<path fill="none" stroke="#191970" d="M285.5408,-483.7734C292.1261,-485.9895 298.7155,-488.2588 305,-490.5 321.1698,-496.2665 324.6904,-499.1417 341,-504.5 353.0112,-508.4461 366.0431,-512.2526 378.4313,-515.6545"/>
<polygon fill="#191970" stroke="#191970" points="286.5251,-480.4123 275.9315,-480.5742 284.3139,-487.0539 286.5251,-480.4123"/>
</g>
<!-- Node10 -->
<g id="node10" class="node">
<title>Node10</title>
<g id="a_node10"><a xlink:href="../../d9/d3a/classTruthConversionEval.html#a30309a3143d74dac7ff1f62cf275a5ac" target="_top" xlink:title="TruthConversionEval\l::recordConversion">
<polygon fill="none" stroke="#000000" points="575.5,-354.5 575.5,-386.5 696.5,-386.5 696.5,-354.5 575.5,-354.5"/>
<text text-anchor="start" x="583.5" y="-373.5" font-family="FreeSans" font-size="10.00" fill="#000000">TruthConversionEval</text>
<text text-anchor="middle" x="636" y="-361.5" font-family="FreeSans" font-size="10.00" fill="#000000">::recordConversion</text>
</a>
</g>
</g>
<!-- Node9&#45;&gt;Node10 -->
<g id="edge10" class="edge">
<title>Node9&#45;&gt;Node10</title>
<path fill="none" stroke="#191970" d="M515.2675,-354.4023C535.3841,-357.0845 556.567,-359.9089 575.4759,-362.4301"/>
<polygon fill="#191970" stroke="#191970" points="515.5538,-350.9096 505.1789,-353.0572 514.6286,-357.8482 515.5538,-350.9096"/>
</g>
<!-- Node11 -->
<g id="node11" class="node">
<title>Node11</title>
<g id="a_node11"><a xlink:href="../../d9/d3a/classTruthConversionEval.html#a802d15f00a153397546daabb7dbabbd2" target="_top" xlink:title="TruthConversionEval\l::numUnique">
<polygon fill="none" stroke="#000000" points="746,-354.5 746,-386.5 867,-386.5 867,-354.5 746,-354.5"/>
<text text-anchor="start" x="754" y="-373.5" font-family="FreeSans" font-size="10.00" fill="#000000">TruthConversionEval</text>
<text text-anchor="middle" x="806.5" y="-361.5" font-family="FreeSans" font-size="10.00" fill="#000000">::numUnique</text>
</a>
</g>
</g>
<!-- Node10&#45;&gt;Node11 -->
<g id="edge11" class="edge">
<title>Node10&#45;&gt;Node11</title>
<path fill="none" stroke="#191970" d="M706.8524,-370.5C719.7978,-370.5 733.1994,-370.5 745.816,-370.5"/>
<polygon fill="#191970" stroke="#191970" points="706.592,-367.0001 696.592,-370.5 706.592,-374.0001 706.592,-367.0001"/>
</g>
<!-- Node12 -->
<g id="node12" class="node">
<title>Node12</title>
<g id="a_node12"><a xlink:href="../../d9/d3a/classTruthConversionEval.html#a9a67c8171296f35dd157daf89108d3fd" target="_top" xlink:title="TruthConversionEval\l::process_event">
<polygon fill="none" stroke="#000000" points="903,-354.5 903,-386.5 1024,-386.5 1024,-354.5 903,-354.5"/>
<text text-anchor="start" x="911" y="-373.5" font-family="FreeSans" font-size="10.00" fill="#000000">TruthConversionEval</text>
<text text-anchor="middle" x="963.5" y="-361.5" font-family="FreeSans" font-size="10.00" fill="#000000">::process_event</text>
</a>
</g>
</g>
<!-- Node11&#45;&gt;Node12 -->
<g id="edge12" class="edge">
<title>Node11&#45;&gt;Node12</title>
<path fill="none" stroke="#191970" d="M877.2098,-370.5C885.807,-370.5 894.5301,-370.5 902.9611,-370.5"/>
<polygon fill="#191970" stroke="#191970" points="877.2003,-367.0001 867.2003,-370.5 877.2003,-374.0001 877.2003,-367.0001"/>
</g>
<!-- Node14 -->
<g id="node14" class="node">
<title>Node14</title>
<g id="a_node14"><a xlink:href="../../db/db5/classDISKinematicsReco.html#a4ea9fa36ccd955fd7cdfa7e7eaf1e534" target="_top" xlink:title="DISKinematicsReco::\lCollectEmCandidatesFromCluster">
<polygon fill="none" stroke="#000000" points="341,-243.5 341,-275.5 526,-275.5 526,-243.5 341,-243.5"/>
<text text-anchor="start" x="349" y="-262.5" font-family="FreeSans" font-size="10.00" fill="#000000">DISKinematicsReco::</text>
<text text-anchor="middle" x="433.5" y="-250.5" font-family="FreeSans" font-size="10.00" fill="#000000">CollectEmCandidatesFromCluster</text>
</a>
</g>
</g>
<!-- Node13&#45;&gt;Node14 -->
<g id="edge14" class="edge">
<title>Node13&#45;&gt;Node14</title>
<path fill="none" stroke="#191970" d="M314.3276,-259.5C323.0903,-259.5 331.9966,-259.5 340.7919,-259.5"/>
<polygon fill="#191970" stroke="#191970" points="314.1222,-256.0001 304.1222,-259.5 314.1222,-263.0001 314.1222,-256.0001"/>
</g>
<!-- Node15 -->
<g id="node15" class="node">
<title>Node15</title>
<g id="a_node15"><a xlink:href="../../db/db5/classDISKinematicsReco.html#a6d03dc93ccee64fd4d931a06dad1ec55" target="_top" xlink:title="DISKinematicsReco::\lprocess_event">
<polygon fill="none" stroke="#000000" points="576,-243.5 576,-275.5 696,-275.5 696,-243.5 576,-243.5"/>
<text text-anchor="start" x="584" y="-262.5" font-family="FreeSans" font-size="10.00" fill="#000000">DISKinematicsReco::</text>
<text text-anchor="middle" x="636" y="-250.5" font-family="FreeSans" font-size="10.00" fill="#000000">process_event</text>
</a>
</g>
</g>
<!-- Node14&#45;&gt;Node15 -->
<g id="edge15" class="edge">
<title>Node14&#45;&gt;Node15</title>
<path fill="none" stroke="#191970" d="M536.4615,-259.5C549.9472,-259.5 563.3924,-259.5 575.8397,-259.5"/>
<polygon fill="#191970" stroke="#191970" points="536.1569,-256.0001 526.1569,-259.5 536.1569,-263.0001 536.1569,-256.0001"/>
</g>
<!-- Node20 -->
<g id="node20" class="node">
<title>Node20</title>
<g id="a_node20"><a xlink:href="../../dc/d41/classConversion.html#a5d2dd3e5fba175ce2ac24fa0cb9bb4be" target="_top" xlink:title="Uses the specified TMVA method to update and.">
<polygon fill="none" stroke="#000000" points="349,-411.5 349,-443.5 518,-443.5 518,-411.5 349,-411.5"/>
<text text-anchor="start" x="357" y="-430.5" font-family="FreeSans" font-size="10.00" fill="#000000">Conversion::correctSecondary</text>
<text text-anchor="middle" x="433.5" y="-418.5" font-family="FreeSans" font-size="10.00" fill="#000000">Vertex</text>
</a>
</g>
</g>
<!-- Node19&#45;&gt;Node20 -->
<g id="edge21" class="edge">
<title>Node19&#45;&gt;Node20</title>
<path fill="none" stroke="#191970" d="M299.565,-422.361C315.497,-422.9723 332.4382,-423.6223 348.7221,-424.2471"/>
<polygon fill="#191970" stroke="#191970" points="299.385,-418.8516 289.2582,-421.9655 299.1166,-425.8465 299.385,-418.8516"/>
</g>
<!-- Node22 -->
<g id="node22" class="node">
<title>Node22</title>
<g id="a_node22"><a xlink:href="../../df/d9b/classRecoConversionEval.html#a7de16e316b2ebedef53f336a9c568c14" target="_top" xlink:title="Uses the TMVA method to correct the vtx radius.">
<polygon fill="none" stroke="#000000" points="361.5,-462.5 361.5,-494.5 505.5,-494.5 505.5,-462.5 361.5,-462.5"/>
<text text-anchor="start" x="369.5" y="-481.5" font-family="FreeSans" font-size="10.00" fill="#000000">RecoConversionEval</text>
<text text-anchor="middle" x="433.5" y="-469.5" font-family="FreeSans" font-size="10.00" fill="#000000">::correctSecondaryVertex</text>
</a>
</g>
</g>
<!-- Node19&#45;&gt;Node22 -->
<g id="edge25" class="edge">
<title>Node19&#45;&gt;Node22</title>
<path fill="none" stroke="#191970" d="M279.0386,-432.0237C287.7703,-434.3295 296.6736,-436.8518 305,-439.5 321.3598,-444.7033 324.6904,-448.1417 341,-453.5 350.4825,-456.6153 360.6012,-459.6437 370.5371,-462.4546"/>
<polygon fill="#191970" stroke="#191970" points="279.8495,-428.6184 269.2929,-429.5171 278.1058,-435.3977 279.8495,-428.6184"/>
</g>
<!-- Node20&#45;&gt;Node10 -->
<g id="edge24" class="edge">
<title>Node20&#45;&gt;Node10</title>
<path fill="none" stroke="#191970" d="M503.6434,-408.6939C511.1953,-406.624 518.7612,-404.5309 526,-402.5 544.0963,-397.4229 563.8215,-391.7336 581.5072,-386.576"/>
<polygon fill="#191970" stroke="#191970" points="502.4774,-405.384 493.7524,-411.3945 504.3212,-412.1369 502.4774,-405.384"/>
</g>
<!-- Node21 -->
<g id="node21" class="node">
<title>Node21</title>
<g id="a_node21"><a xlink:href="../../d9/d3a/classTruthConversionEval.html#a67e322163113e6ef65c9661d0fc80487" target="_top" xlink:title="fills the member fields for all the background trees">
<polygon fill="none" stroke="#000000" points="562,-405.5 562,-437.5 710,-437.5 710,-405.5 562,-405.5"/>
<text text-anchor="start" x="570" y="-424.5" font-family="FreeSans" font-size="10.00" fill="#000000">TruthConversionEval</text>
<text text-anchor="middle" x="636" y="-412.5" font-family="FreeSans" font-size="10.00" fill="#000000">::processTrackBackground</text>
</a>
</g>
</g>
<!-- Node20&#45;&gt;Node21 -->
<g id="edge22" class="edge">
<title>Node20&#45;&gt;Node21</title>
<path fill="none" stroke="#191970" d="M528.4773,-424.6859C539.7117,-424.353 551.0495,-424.0171 561.9347,-423.6945"/>
<polygon fill="#191970" stroke="#191970" points="528.0968,-421.1955 518.2049,-424.9902 528.3042,-428.1924 528.0968,-421.1955"/>
</g>
<!-- Node21&#45;&gt;Node12 -->
<g id="edge23" class="edge">
<title>Node21&#45;&gt;Node12</title>
<path fill="none" stroke="#191970" d="M720.1126,-415.5596C764.112,-411.6561 818.7246,-405.5589 867,-396.5 881.0689,-393.86 896.092,-390.2213 909.9932,-386.5018"/>
<polygon fill="#191970" stroke="#191970" points="719.6927,-412.0828 710.0318,-416.4322 720.2964,-419.0567 719.6927,-412.0828"/>
</g>
<!-- Node23 -->
<g id="node23" class="node">
<title>Node23</title>
<g id="a_node23"><a xlink:href="../../df/d9b/classRecoConversionEval.html#a54bb2ea55f01b0d0dc8752fbee1bc237" target="_top" xlink:title="RecoConversionEval\l::process_event">
<polygon fill="none" stroke="#000000" points="576.5,-462.5 576.5,-494.5 695.5,-494.5 695.5,-462.5 576.5,-462.5"/>
<text text-anchor="start" x="584.5" y="-481.5" font-family="FreeSans" font-size="10.00" fill="#000000">RecoConversionEval</text>
<text text-anchor="middle" x="636" y="-469.5" font-family="FreeSans" font-size="10.00" fill="#000000">::process_event</text>
</a>
</g>
</g>
<!-- Node22&#45;&gt;Node23 -->
<g id="edge26" class="edge">
<title>Node22&#45;&gt;Node23</title>
<path fill="none" stroke="#191970" d="M515.9187,-478.5C536.1909,-478.5 557.507,-478.5 576.4602,-478.5"/>
<polygon fill="#191970" stroke="#191970" points="515.7496,-475.0001 505.7495,-478.5 515.7495,-482.0001 515.7496,-475.0001"/>
</g>
<!-- Node24&#45;&gt;Node10 -->
<g id="edge29" class="edge">
<title>Node24&#45;&gt;Node10</title>
<path fill="none" stroke="#191970" d="M507.6657,-378.105C529.9606,-376.7838 554.1466,-375.3506 575.4491,-374.0882"/>
<polygon fill="#191970" stroke="#191970" points="507.3477,-374.6176 497.5723,-378.7031 507.7618,-381.6053 507.3477,-374.6176"/>
</g>
<!-- Node24&#45;&gt;Node21 -->
<g id="edge28" class="edge">
<title>Node24&#45;&gt;Node21</title>
<path fill="none" stroke="#191970" d="M495.6874,-394.4768C516.6058,-398.5056 540.1517,-403.0403 561.8943,-407.2278"/>
<polygon fill="#191970" stroke="#191970" points="496.1303,-390.9979 485.6488,-392.5435 494.8064,-397.8716 496.1303,-390.9979"/>
</g>
<!-- Node25&#45;&gt;Node12 -->
<g id="edge31" class="edge">
<title>Node25&#45;&gt;Node12</title>
<path fill="none" stroke="#191970" d="M861.0863,-333.9703C879.8375,-340.6586 900.6014,-348.0648 918.5035,-354.4503"/>
<polygon fill="#191970" stroke="#191970" points="862.0846,-330.6104 851.4899,-330.5474 859.7328,-337.2036 862.0846,-330.6104"/>
</g>
</g>
</svg>
