<?xml version="1.0" encoding="UTF-8" standalone="no"?>
<!DOCTYPE svg PUBLIC "-//W3C//DTD SVG 1.1//EN"
 "http://www.w3.org/Graphics/SVG/1.1/DTD/svg11.dtd">
<!-- Generated by graphviz version 2.40.1 (20161225.0304)
 -->
<!-- Title: SvtxTrack::get_y Pages: 1 -->
<svg width="898pt" height="948pt"
 viewBox="0.00 0.00 898.00 948.00" xmlns="http://www.w3.org/2000/svg" xmlns:xlink="http://www.w3.org/1999/xlink">
<g id="graph0" class="graph" transform="scale(1 1) rotate(0) translate(4 944)">
<title>SvtxTrack::get_y</title>
<!-- Node1 -->
<g id="node1" class="node">
<title>Node1</title>
<polygon fill="#bfbfbf" stroke="#000000" points="0,-423.5 0,-443.5 99,-443.5 99,-423.5 0,-423.5"/>
<text text-anchor="middle" x="49.5" y="-430.5" font-family="FreeSans" font-size="10.00" fill="#000000">SvtxTrack::get_y</text>
</g>
<!-- Node2 -->
<g id="node2" class="node">
<title>Node2</title>
<g id="a_node2"><a xlink:href="../../df/d9b/classRecoConversionEval.html#a00a3aa4c62b9c6944f86ec1e1044e8a3" target="_top" xlink:title="RecoConversionEval\l::approachDistance">
<polygon fill="none" stroke="#000000" points="161,-897.5 161,-929.5 280,-929.5 280,-897.5 161,-897.5"/>
<text text-anchor="start" x="169" y="-916.5" font-family="FreeSans" font-size="10.00" fill="#000000">RecoConversionEval</text>
<text text-anchor="middle" x="220.5" y="-904.5" font-family="FreeSans" font-size="10.00" fill="#000000">::approachDistance</text>
</a>
</g>
</g>
<!-- Node1&#45;&gt;Node2 -->
<g id="edge1" class="edge">
<title>Node1&#45;&gt;Node2</title>
<path fill="none" stroke="#191970" d="M50.5647,-453.8883C55.13,-533.5901 75.5969,-822.9227 135,-888.5 141.9564,-896.1794 151.1281,-901.5516 160.8789,-905.2982"/>
<polygon fill="#191970" stroke="#191970" points="54.0484,-453.4941 50.0038,-443.7017 47.059,-453.879 54.0484,-453.4941"/>
</g>
<!-- Node3 -->
<g id="node3" class="node">
<title>Node3</title>
<g id="a_node3"><a xlink:href="../../dc/d41/classConversion.html#ad0069d0c8f0665e3c01e8f4f5e8a8e80" target="_top" xlink:title="Conversion::approachDistance">
<polygon fill="none" stroke="#000000" points="135,-858.5 135,-878.5 306,-878.5 306,-858.5 135,-858.5"/>
<text text-anchor="middle" x="220.5" y="-865.5" font-family="FreeSans" font-size="10.00" fill="#000000">Conversion::approachDistance</text>
</a>
</g>
</g>
<!-- Node1&#45;&gt;Node3 -->
<g id="edge2" class="edge">
<title>Node1&#45;&gt;Node3</title>
<path fill="none" stroke="#191970" d="M51.8653,-453.9409C60.387,-524.7701 91.3393,-758.6285 135,-818.5 148.8806,-837.5344 172.3912,-850.5156 191.2493,-858.4712"/>
<polygon fill="#191970" stroke="#191970" points="55.3027,-453.2052 50.6523,-443.6856 48.3512,-454.0275 55.3027,-453.2052"/>
</g>
<!-- Node8 -->
<g id="node8" class="node">
<title>Node8</title>
<g id="a_node8"><a xlink:href="../../de/da4/classEMCalCalib.html#ac80fa52a42070fa6210a5c69f9c10fed" target="_top" xlink:title="project a photon to calorimeters and collect towers around it">
<polygon fill="none" stroke="#000000" points="150,-788.5 150,-808.5 291,-808.5 291,-788.5 150,-788.5"/>
<text text-anchor="middle" x="220.5" y="-795.5" font-family="FreeSans" font-size="10.00" fill="#000000">EMCalCalib::eval_photon</text>
</a>
</g>
</g>
<!-- Node1&#45;&gt;Node8 -->
<g id="edge8" class="edge">
<title>Node1&#45;&gt;Node8</title>
<path fill="none" stroke="#191970" d="M52.7276,-453.7143C63.0518,-516.3244 96.8354,-705.6926 135,-753.5 148.2907,-770.1488 169.4369,-781.3538 187.3734,-788.4188"/>
<polygon fill="#191970" stroke="#191970" points="56.1364,-452.8702 51.0771,-443.5614 49.2271,-453.9935 56.1364,-452.8702"/>
</g>
<!-- Node11 -->
<g id="node11" class="node">
<title>Node11</title>
<g id="a_node11"><a xlink:href="../../db/d4b/classEMCalAna.html#a058c1f2ec1ef8b8f7786737eb6e3151b" target="_top" xlink:title="EMCalAna::eval_trk">
<polygon fill="none" stroke="#000000" points="163.5,-723.5 163.5,-743.5 277.5,-743.5 277.5,-723.5 163.5,-723.5"/>
<text text-anchor="middle" x="220.5" y="-730.5" font-family="FreeSans" font-size="10.00" fill="#000000">EMCalAna::eval_trk</text>
</a>
</g>
</g>
<!-- Node1&#45;&gt;Node11 -->
<g id="edge11" class="edge">
<title>Node1&#45;&gt;Node11</title>
<path fill="none" stroke="#191970" d="M53.2366,-453.7635C64.1627,-510.9425 97.6488,-671.7773 135,-708.5 142.8299,-716.1981 152.8932,-721.5492 163.3489,-725.2629"/>
<polygon fill="#191970" stroke="#191970" points="56.6465,-452.9577 51.3578,-443.7773 49.7672,-454.252 56.6465,-452.9577"/>
</g>
<!-- Node15 -->
<g id="node15" class="node">
<title>Node15</title>
<g id="a_node15"><a xlink:href="../../d2/d93/classTrkrEvaluator.html#a753a5ea1a91f097f5c226f5b1620db3f" target="_top" xlink:title="dump the evaluator information into ntuple for external analysis">
<polygon fill="none" stroke="#000000" points="151,-666.5 151,-698.5 290,-698.5 290,-666.5 151,-666.5"/>
<text text-anchor="start" x="159" y="-685.5" font-family="FreeSans" font-size="10.00" fill="#000000">TrkrEvaluator::fillOutput</text>
<text text-anchor="middle" x="220.5" y="-673.5" font-family="FreeSans" font-size="10.00" fill="#000000">Ntuples</text>
</a>
</g>
</g>
<!-- Node1&#45;&gt;Node15 -->
<g id="edge16" class="edge">
<title>Node1&#45;&gt;Node15</title>
<path fill="none" stroke="#191970" d="M51.2974,-453.71C56.2815,-497.4386 74.2178,-601.4048 135,-657.5 139.6597,-661.8003 145.0198,-665.3645 150.7366,-668.3179"/>
<polygon fill="#191970" stroke="#191970" points="54.7759,-453.3203 50.2705,-443.7311 47.8126,-454.0369 54.7759,-453.3203"/>
</g>
<!-- Node17 -->
<g id="node17" class="node">
<title>Node17</title>
<g id="a_node17"><a xlink:href="../../d8/d98/classpsTOFTimezeroEval.html#ae9fd1570652089bed4ec7eb81009b318" target="_top" xlink:title="dump the evaluator information into ntuple for external analysis">
<polygon fill="none" stroke="#000000" points="159.5,-615.5 159.5,-647.5 281.5,-647.5 281.5,-615.5 159.5,-615.5"/>
<text text-anchor="start" x="167.5" y="-634.5" font-family="FreeSans" font-size="10.00" fill="#000000">psTOFTimezeroEval::</text>
<text text-anchor="middle" x="220.5" y="-622.5" font-family="FreeSans" font-size="10.00" fill="#000000">fillOutputNtuples</text>
</a>
</g>
</g>
<!-- Node1&#45;&gt;Node17 -->
<g id="edge18" class="edge">
<title>Node1&#45;&gt;Node17</title>
<path fill="none" stroke="#191970" d="M53.8516,-453.7304C62.6826,-489.8585 86.1571,-565.5164 135,-606.5 142.1083,-612.4645 150.5812,-617.0064 159.3887,-620.465"/>
<polygon fill="#191970" stroke="#191970" points="57.2341,-452.8226 51.5692,-443.8694 50.4144,-454.4011 57.2341,-452.8226"/>
</g>
<!-- Node19 -->
<g id="node19" class="node">
<title>Node19</title>
<g id="a_node19"><a xlink:href="../../d2/d85/classSvtxEvaluatorHaiwang.html#a0fd261422264aedc22d0506ef5e897c4" target="_top" xlink:title="dump the evaluator information into ntuple for external analysis">
<polygon fill="none" stroke="#000000" points="155,-564.5 155,-596.5 286,-596.5 286,-564.5 155,-564.5"/>
<text text-anchor="start" x="163" y="-583.5" font-family="FreeSans" font-size="10.00" fill="#000000">SvtxEvaluatorHaiwang</text>
<text text-anchor="middle" x="220.5" y="-571.5" font-family="FreeSans" font-size="10.00" fill="#000000">::fillOutputNtuples</text>
</a>
</g>
</g>
<!-- Node1&#45;&gt;Node19 -->
<g id="edge20" class="edge">
<title>Node1&#45;&gt;Node19</title>
<path fill="none" stroke="#191970" d="M58.005,-453C70.7946,-480.0462 97.5355,-528.6408 135,-555.5 141.0331,-559.8253 147.8096,-563.4074 154.8387,-566.3732"/>
<polygon fill="#191970" stroke="#191970" points="61.1318,-451.4213 53.7931,-443.7797 54.7647,-454.3299 61.1318,-451.4213"/>
</g>
<!-- Node21 -->
<g id="node21" class="node">
<title>Node21</title>
<g id="a_node21"><a xlink:href="../../d6/d11/classSvtxEvaluator.html#ace95fef2b7b4ad8b797f6695e053dd6e" target="_top" xlink:title="dump the evaluator information into ntuple for external analysis">
<polygon fill="none" stroke="#000000" points="150,-513.5 150,-545.5 291,-545.5 291,-513.5 150,-513.5"/>
<text text-anchor="start" x="158" y="-532.5" font-family="FreeSans" font-size="10.00" fill="#000000">SvtxEvaluator::fillOutput</text>
<text text-anchor="middle" x="220.5" y="-520.5" font-family="FreeSans" font-size="10.00" fill="#000000">Ntuples</text>
</a>
</g>
</g>
<!-- Node1&#45;&gt;Node21 -->
<g id="edge22" class="edge">
<title>Node1&#45;&gt;Node21</title>
<path fill="none" stroke="#191970" d="M66.1547,-450.9432C82.3534,-466.9731 108.3553,-490.3312 135,-504.5 141.2812,-507.8401 148.0656,-510.7871 154.9697,-513.3743"/>
<polygon fill="#191970" stroke="#191970" points="68.5492,-448.3869 59.0302,-443.735 63.5706,-453.3076 68.5492,-448.3869"/>
</g>
<!-- Node23 -->
<g id="node23" class="node">
<title>Node23</title>
<g id="a_node23"><a xlink:href="../../dc/d65/classPhotonJet.html#a9b2de7dcbd5e3bbbd26150d418b7bb44" target="_top" xlink:title="PhotonJet::GetRecoHadrons\lAndJets">
<polygon fill="none" stroke="#000000" points="142.5,-462.5 142.5,-494.5 298.5,-494.5 298.5,-462.5 142.5,-462.5"/>
<text text-anchor="start" x="150.5" y="-481.5" font-family="FreeSans" font-size="10.00" fill="#000000">PhotonJet::GetRecoHadrons</text>
<text text-anchor="middle" x="220.5" y="-469.5" font-family="FreeSans" font-size="10.00" fill="#000000">AndJets</text>
</a>
</g>
</g>
<!-- Node1&#45;&gt;Node23 -->
<g id="edge24" class="edge">
<title>Node1&#45;&gt;Node23</title>
<path fill="none" stroke="#191970" d="M97.5995,-446.1578C116.7919,-451.2084 139.1158,-457.0831 159.4309,-462.4292"/>
<polygon fill="#191970" stroke="#191970" points="98.4372,-442.7591 87.8757,-443.5989 96.6557,-449.5286 98.4372,-442.7591"/>
</g>
<!-- Node24 -->
<g id="node24" class="node">
<title>Node24</title>
<g id="a_node24"><a xlink:href="../../dc/d65/classPhotonJet.html#a3f9d3ec941f851bc2246ceb0c5362c9f" target="_top" xlink:title="PhotonJet::process\l_event">
<polygon fill="none" stroke="#000000" points="377.5,-462.5 377.5,-494.5 487.5,-494.5 487.5,-462.5 377.5,-462.5"/>
<text text-anchor="start" x="385.5" y="-481.5" font-family="FreeSans" font-size="10.00" fill="#000000">PhotonJet::process</text>
<text text-anchor="middle" x="432.5" y="-469.5" font-family="FreeSans" font-size="10.00" fill="#000000">_event</text>
</a>
</g>
</g>
<!-- Node1&#45;&gt;Node24 -->
<g id="edge42" class="edge">
<title>Node1&#45;&gt;Node24</title>
<path fill="none" stroke="#191970" d="M109.4119,-436.1803C161.5313,-438.9864 239.001,-444.2998 306,-453.5 329.5092,-456.7282 355.2379,-461.5693 377.3176,-466.1341"/>
<polygon fill="#191970" stroke="#191970" points="109.5062,-432.6806 99.3367,-435.6521 109.1397,-439.671 109.5062,-432.6806"/>
</g>
<!-- Node25 -->
<g id="node25" class="node">
<title>Node25</title>
<g id="a_node25"><a xlink:href="../../d6/d17/classSVReco.html#af99925be18cc9afbb2b9936df3a925db" target="_top" xlink:title="Uses the tracking clusters exclusively to make a GFTrack.">
<polygon fill="none" stroke="#000000" points="147,-384.5 147,-404.5 294,-404.5 294,-384.5 147,-384.5"/>
<text text-anchor="middle" x="220.5" y="-391.5" font-family="FreeSans" font-size="10.00" fill="#000000">SVReco::MakeGenFitTrack</text>
</a>
</g>
</g>
<!-- Node1&#45;&gt;Node25 -->
<g id="edge26" class="edge">
<title>Node1&#45;&gt;Node25</title>
<path fill="none" stroke="#191970" d="M103.3905,-421.2092C126.9754,-415.8302 154.2951,-409.5994 176.6125,-404.5094"/>
<polygon fill="#191970" stroke="#191970" points="102.5081,-417.8205 93.5367,-423.4565 104.0647,-424.6452 102.5081,-417.8205"/>
</g>
<!-- Node34 -->
<g id="node34" class="node">
<title>Node34</title>
<g id="a_node34"><a xlink:href="../../df/dd7/classTpcPrototypeGenFitTrkFitter.html#a7d58d6e2d72346f8c2eb6aa9cf897c9b" target="_top" xlink:title="Make TpcPrototypeTrack from SvtxTrack, refit by &quot;excluding&quot; each cluster.">
<polygon fill="none" stroke="#000000" points="142,-333.5 142,-365.5 299,-365.5 299,-333.5 142,-333.5"/>
<text text-anchor="start" x="150" y="-352.5" font-family="FreeSans" font-size="10.00" fill="#000000">TpcPrototypeGenFitTrkFitter</text>
<text text-anchor="middle" x="220.5" y="-340.5" font-family="FreeSans" font-size="10.00" fill="#000000">::MakeTpcPrototypeTrack</text>
</a>
</g>
</g>
<!-- Node1&#45;&gt;Node34 -->
<g id="edge37" class="edge">
<title>Node1&#45;&gt;Node34</title>
<path fill="none" stroke="#191970" d="M69.7526,-417.1742C86.4404,-404.3782 111.156,-386.8898 135,-375.5 142.6998,-371.822 151.0376,-368.5242 159.3839,-365.6131"/>
<polygon fill="#191970" stroke="#191970" points="67.5321,-414.4674 61.8049,-423.3808 71.8406,-419.9844 67.5321,-414.4674"/>
</g>
<!-- Node37 -->
<g id="node37" class="node">
<title>Node37</title>
<g id="a_node37"><a xlink:href="../../d8/dc7/classMomentumEvaluator.html#a19c5f2c6d74578feea3513322e9f1fe3" target="_top" xlink:title="MomentumEvaluator::\lprocess_event">
<polygon fill="none" stroke="#000000" points="156.5,-282.5 156.5,-314.5 284.5,-314.5 284.5,-282.5 156.5,-282.5"/>
<text text-anchor="start" x="164.5" y="-301.5" font-family="FreeSans" font-size="10.00" fill="#000000">MomentumEvaluator::</text>
<text text-anchor="middle" x="220.5" y="-289.5" font-family="FreeSans" font-size="10.00" fill="#000000">process_event</text>
</a>
</g>
</g>
<!-- Node1&#45;&gt;Node37 -->
<g id="edge40" class="edge">
<title>Node1&#45;&gt;Node37</title>
<path fill="none" stroke="#191970" d="M59.5636,-414.4016C73.3737,-390.0135 100.4664,-348.1472 135,-324.5 141.5287,-320.0294 148.8494,-316.3082 156.3875,-313.2152"/>
<polygon fill="#191970" stroke="#191970" points="56.3716,-412.9431 54.6271,-423.3933 62.5077,-416.3119 56.3716,-412.9431"/>
</g>
<!-- Node38 -->
<g id="node38" class="node">
<title>Node38</title>
<g id="a_node38"><a xlink:href="../../db/d4c/classBJetModule.html#a93ec29147c2d7aea52780d7370141e74" target="_top" xlink:title="BJetModule::process\l_event">
<polygon fill="none" stroke="#000000" points="161,-231.5 161,-263.5 280,-263.5 280,-231.5 161,-231.5"/>
<text text-anchor="start" x="169" y="-250.5" font-family="FreeSans" font-size="10.00" fill="#000000">BJetModule::process</text>
<text text-anchor="middle" x="220.5" y="-238.5" font-family="FreeSans" font-size="10.00" fill="#000000">_event</text>
</a>
</g>
</g>
<!-- Node1&#45;&gt;Node38 -->
<g id="edge41" class="edge">
<title>Node1&#45;&gt;Node38</title>
<path fill="none" stroke="#191970" d="M54.7572,-413.4159C64.6636,-379.5258 89.3203,-311.0185 135,-273.5 142.5533,-267.2962 151.567,-262.5712 160.8648,-258.9729"/>
<polygon fill="#191970" stroke="#191970" points="51.366,-412.547 52.0512,-423.1197 58.1088,-414.4273 51.366,-412.547"/>
</g>
<!-- Node39 -->
<g id="node39" class="node">
<title>Node39</title>
<g id="a_node39"><a xlink:href="../../d0/d22/classPHGenFitTrkProp.html#ac159ce1352f6004a2f51a520c287c339" target="_top" xlink:title="KalmanTrkProp Call.">
<polygon fill="none" stroke="#000000" points="143,-180.5 143,-212.5 298,-212.5 298,-180.5 143,-180.5"/>
<text text-anchor="start" x="151" y="-199.5" font-family="FreeSans" font-size="10.00" fill="#000000">PHGenFitTrkProp::SvtxTrack</text>
<text text-anchor="middle" x="220.5" y="-187.5" font-family="FreeSans" font-size="10.00" fill="#000000">ToPHGenFitTracks</text>
</a>
</g>
</g>
<!-- Node1&#45;&gt;Node39 -->
<g id="edge43" class="edge">
<title>Node1&#45;&gt;Node39</title>
<path fill="none" stroke="#191970" d="M51.8022,-413.2355C57.6698,-371.1773 77.0694,-273.968 135,-221.5 138.7827,-218.074 143.0109,-215.1159 147.5069,-212.5619"/>
<polygon fill="#191970" stroke="#191970" points="48.3074,-412.9727 50.5103,-423.336 55.2508,-413.8609 48.3074,-412.9727"/>
</g>
<!-- Node42 -->
<g id="node42" class="node">
<title>Node42</title>
<g id="a_node42"><a xlink:href="../../dc/d41/classConversion.html#ac7c58e877ac6d77798fc2d6ae971edfc" target="_top" xlink:title="helper function">
<polygon fill="none" stroke="#000000" points="148.5,-141.5 148.5,-161.5 292.5,-161.5 292.5,-141.5 148.5,-141.5"/>
<text text-anchor="middle" x="220.5" y="-148.5" font-family="FreeSans" font-size="10.00" fill="#000000">Conversion::vtxTrackRPhi</text>
</a>
</g>
</g>
<!-- Node1&#45;&gt;Node42 -->
<g id="edge46" class="edge">
<title>Node1&#45;&gt;Node42</title>
<path fill="none" stroke="#191970" d="M53.392,-413.2748C64.4975,-357.6345 97.9335,-204.1805 135,-170.5 138.9389,-166.921 143.3989,-163.9654 148.1639,-161.5298"/>
<polygon fill="#191970" stroke="#191970" points="49.9139,-412.8236 51.4208,-423.3107 56.7826,-414.1728 49.9139,-412.8236"/>
</g>
<!-- Node43 -->
<g id="node43" class="node">
<title>Node43</title>
<g id="a_node43"><a xlink:href="../../df/d9b/classRecoConversionEval.html#a0814d1a13453dd49199fb40c7710420d" target="_top" xlink:title="track must be closer in RPhi space to the vtx than the cut">
<polygon fill="none" stroke="#000000" points="161,-90.5 161,-122.5 280,-122.5 280,-90.5 161,-90.5"/>
<text text-anchor="start" x="169" y="-109.5" font-family="FreeSans" font-size="10.00" fill="#000000">RecoConversionEval</text>
<text text-anchor="middle" x="220.5" y="-97.5" font-family="FreeSans" font-size="10.00" fill="#000000">::vtxTrackRPhiCut</text>
</a>
</g>
</g>
<!-- Node1&#45;&gt;Node43 -->
<g id="edge47" class="edge">
<title>Node1&#45;&gt;Node43</title>
<path fill="none" stroke="#191970" d="M52.6304,-413.2796C62.4407,-352.3968 94.3677,-172.4822 135,-131.5 142.1865,-124.2516 151.3504,-119.079 160.9945,-115.3936"/>
<polygon fill="#191970" stroke="#191970" points="49.1663,-412.7778 51.0589,-423.2023 56.0802,-413.8729 49.1663,-412.7778"/>
</g>
<!-- Node44 -->
<g id="node44" class="node">
<title>Node44</title>
<g id="a_node44"><a xlink:href="../../dc/d41/classConversion.html#a96fc565002caeef66fc22451dd6efdb7" target="_top" xlink:title="helper function">
<polygon fill="none" stroke="#000000" points="152.5,-51.5 152.5,-71.5 288.5,-71.5 288.5,-51.5 152.5,-51.5"/>
<text text-anchor="middle" x="220.5" y="-58.5" font-family="FreeSans" font-size="10.00" fill="#000000">Conversion::vtxTrackRZ</text>
</a>
</g>
</g>
<!-- Node1&#45;&gt;Node44 -->
<g id="edge48" class="edge">
<title>Node1&#45;&gt;Node44</title>
<path fill="none" stroke="#191970" d="M51.6474,-412.9458C59.1806,-344.8092 86.6025,-127.9882 135,-80.5 139.9927,-75.6011 145.9517,-71.8493 152.3686,-68.9905"/>
<polygon fill="#191970" stroke="#191970" points="48.1322,-412.8991 50.5395,-423.2168 55.0919,-413.6499 48.1322,-412.8991"/>
</g>
<!-- Node45 -->
<g id="node45" class="node">
<title>Node45</title>
<g id="a_node45"><a xlink:href="../../df/d9b/classRecoConversionEval.html#a2ad5ed8b5542ba6601f5533b73515317" target="_top" xlink:title="track must be closer in RZ space to the vtx than the cut">
<polygon fill="none" stroke="#000000" points="161,-.5 161,-32.5 280,-32.5 280,-.5 161,-.5"/>
<text text-anchor="start" x="169" y="-19.5" font-family="FreeSans" font-size="10.00" fill="#000000">RecoConversionEval</text>
<text text-anchor="middle" x="220.5" y="-7.5" font-family="FreeSans" font-size="10.00" fill="#000000">::vtxTrackRZCut</text>
</a>
</g>
</g>
<!-- Node1&#45;&gt;Node45 -->
<g id="edge49" class="edge">
<title>Node1&#45;&gt;Node45</title>
<path fill="none" stroke="#191970" d="M51.2258,-413.199C57.7737,-340.833 83.3663,-96.8651 135,-41.5 141.9616,-34.0353 151.0165,-28.758 160.6228,-25.0362"/>
<polygon fill="#191970" stroke="#191970" points="47.7284,-413.0162 50.3374,-423.2848 54.7014,-413.6305 47.7284,-413.0162"/>
</g>
<!-- Node4 -->
<g id="node4" class="node">
<title>Node4</title>
<g id="a_node4"><a xlink:href="../../d9/d3a/classTruthConversionEval.html#a67e322163113e6ef65c9661d0fc80487" target="_top" xlink:title="fills the member fields for all the background trees">
<polygon fill="none" stroke="#000000" points="572,-907.5 572,-939.5 720,-939.5 720,-907.5 572,-907.5"/>
<text text-anchor="start" x="580" y="-926.5" font-family="FreeSans" font-size="10.00" fill="#000000">TruthConversionEval</text>
<text text-anchor="middle" x="646" y="-914.5" font-family="FreeSans" font-size="10.00" fill="#000000">::processTrackBackground</text>
</a>
</g>
</g>
<!-- Node3&#45;&gt;Node4 -->
<g id="edge3" class="edge">
<title>Node3&#45;&gt;Node4</title>
<path fill="none" stroke="#191970" d="M276.8775,-880.9112C286.6284,-883.279 296.6374,-885.8506 306,-888.5 322.2282,-893.0922 325.4661,-897.172 342,-900.5 419.4427,-916.0882 509.915,-921.3179 571.9016,-922.969"/>
<polygon fill="#191970" stroke="#191970" points="277.386,-877.4345 266.8472,-878.5227 275.7644,-884.2441 277.386,-877.4345"/>
</g>
<!-- Node6 -->
<g id="node6" class="node">
<title>Node6</title>
<g id="a_node6"><a xlink:href="../../d9/d3a/classTruthConversionEval.html#a30309a3143d74dac7ff1f62cf275a5ac" target="_top" xlink:title="TruthConversionEval\l::recordConversion">
<polygon fill="none" stroke="#000000" points="372,-858.5 372,-890.5 493,-890.5 493,-858.5 372,-858.5"/>
<text text-anchor="start" x="380" y="-877.5" font-family="FreeSans" font-size="10.00" fill="#000000">TruthConversionEval</text>
<text text-anchor="middle" x="432.5" y="-865.5" font-family="FreeSans" font-size="10.00" fill="#000000">::recordConversion</text>
</a>
</g>
</g>
<!-- Node3&#45;&gt;Node6 -->
<g id="edge5" class="edge">
<title>Node3&#45;&gt;Node6</title>
<path fill="none" stroke="#191970" d="M316.2725,-871.2105C335.2124,-871.7466 354.592,-872.2951 371.9621,-872.7867"/>
<polygon fill="#191970" stroke="#191970" points="316.2125,-867.7075 306.1174,-870.9231 316.0144,-874.7047 316.2125,-867.7075"/>
</g>
<!-- Node5 -->
<g id="node5" class="node">
<title>Node5</title>
<g id="a_node5"><a xlink:href="../../d9/d3a/classTruthConversionEval.html#a9a67c8171296f35dd157daf89108d3fd" target="_top" xlink:title="TruthConversionEval\l::process_event">
<polygon fill="none" stroke="#000000" points="769,-856.5 769,-888.5 890,-888.5 890,-856.5 769,-856.5"/>
<text text-anchor="start" x="777" y="-875.5" font-family="FreeSans" font-size="10.00" fill="#000000">TruthConversionEval</text>
<text text-anchor="middle" x="829.5" y="-863.5" font-family="FreeSans" font-size="10.00" fill="#000000">::process_event</text>
</a>
</g>
</g>
<!-- Node4&#45;&gt;Node5 -->
<g id="edge4" class="edge">
<title>Node4&#45;&gt;Node5</title>
<path fill="none" stroke="#191970" d="M713.6204,-904.7063C732.6805,-899.409 753.2361,-893.696 771.6667,-888.5736"/>
<polygon fill="#191970" stroke="#191970" points="712.5062,-901.3832 703.8087,-907.4333 714.3807,-908.1276 712.5062,-901.3832"/>
</g>
<!-- Node7 -->
<g id="node7" class="node">
<title>Node7</title>
<g id="a_node7"><a xlink:href="../../d9/d3a/classTruthConversionEval.html#a802d15f00a153397546daabb7dbabbd2" target="_top" xlink:title="TruthConversionEval\l::numUnique">
<polygon fill="none" stroke="#000000" points="585.5,-856.5 585.5,-888.5 706.5,-888.5 706.5,-856.5 585.5,-856.5"/>
<text text-anchor="start" x="593.5" y="-875.5" font-family="FreeSans" font-size="10.00" fill="#000000">TruthConversionEval</text>
<text text-anchor="middle" x="646" y="-863.5" font-family="FreeSans" font-size="10.00" fill="#000000">::numUnique</text>
</a>
</g>
</g>
<!-- Node6&#45;&gt;Node7 -->
<g id="edge6" class="edge">
<title>Node6&#45;&gt;Node7</title>
<path fill="none" stroke="#191970" d="M503.1113,-873.8385C529.6831,-873.5896 559.6419,-873.309 585.239,-873.0692"/>
<polygon fill="#191970" stroke="#191970" points="503.0762,-870.3386 493.1094,-873.9322 503.1418,-877.3383 503.0762,-870.3386"/>
</g>
<!-- Node7&#45;&gt;Node5 -->
<g id="edge7" class="edge">
<title>Node7&#45;&gt;Node5</title>
<path fill="none" stroke="#191970" d="M716.6204,-872.5C733.8916,-872.5 752.2191,-872.5 768.9703,-872.5"/>
<polygon fill="#191970" stroke="#191970" points="716.5934,-869.0001 706.5933,-872.5 716.5933,-876.0001 716.5934,-869.0001"/>
</g>
<!-- Node9 -->
<g id="node9" class="node">
<title>Node9</title>
<g id="a_node9"><a xlink:href="../../de/da4/classEMCalCalib.html#a8d33bc88a464878c873f29c9230ce7fe" target="_top" xlink:title="EMCalCalib::process\l_event_MCPhoton">
<polygon fill="none" stroke="#000000" points="373.5,-807.5 373.5,-839.5 491.5,-839.5 491.5,-807.5 373.5,-807.5"/>
<text text-anchor="start" x="381.5" y="-826.5" font-family="FreeSans" font-size="10.00" fill="#000000">EMCalCalib::process</text>
<text text-anchor="middle" x="432.5" y="-814.5" font-family="FreeSans" font-size="10.00" fill="#000000">_event_MCPhoton</text>
</a>
</g>
</g>
<!-- Node8&#45;&gt;Node9 -->
<g id="edge9" class="edge">
<title>Node8&#45;&gt;Node9</title>
<path fill="none" stroke="#191970" d="M301.2177,-808.0186C325.1387,-810.8395 350.8838,-813.8755 373.1841,-816.5052"/>
<polygon fill="#191970" stroke="#191970" points="301.434,-804.5199 291.0929,-806.8246 300.6142,-811.4718 301.434,-804.5199"/>
</g>
<!-- Node10 -->
<g id="node10" class="node">
<title>Node10</title>
<g id="a_node10"><a xlink:href="../../de/da4/classEMCalCalib.html#aa70da6270813e434e35da37b6ec2a350" target="_top" xlink:title="EMCalCalib::process\l_event">
<polygon fill="none" stroke="#000000" points="587,-805.5 587,-837.5 705,-837.5 705,-805.5 587,-805.5"/>
<text text-anchor="start" x="595" y="-824.5" font-family="FreeSans" font-size="10.00" fill="#000000">EMCalCalib::process</text>
<text text-anchor="middle" x="646" y="-812.5" font-family="FreeSans" font-size="10.00" fill="#000000">_event</text>
</a>
</g>
</g>
<!-- Node9&#45;&gt;Node10 -->
<g id="edge10" class="edge">
<title>Node9&#45;&gt;Node10</title>
<path fill="none" stroke="#191970" d="M501.972,-822.8492C529.3285,-822.5929 560.4202,-822.3017 586.6967,-822.0555"/>
<polygon fill="#191970" stroke="#191970" points="501.6549,-819.3519 491.6881,-822.9455 501.7205,-826.3516 501.6549,-819.3519"/>
</g>
<!-- Node12 -->
<g id="node12" class="node">
<title>Node12</title>
<g id="a_node12"><a xlink:href="../../db/d4b/classEMCalAna.html#a2e20101b8705ea086e2c7de88e95767d" target="_top" xlink:title="EMCalAna::process_event_Trk">
<polygon fill="none" stroke="#000000" points="349,-768.5 349,-788.5 516,-788.5 516,-768.5 349,-768.5"/>
<text text-anchor="middle" x="432.5" y="-775.5" font-family="FreeSans" font-size="10.00" fill="#000000">EMCalAna::process_event_Trk</text>
</a>
</g>
</g>
<!-- Node11&#45;&gt;Node12 -->
<g id="edge12" class="edge">
<title>Node11&#45;&gt;Node12</title>
<path fill="none" stroke="#191970" d="M277.023,-745.643C297.4886,-750.0271 320.7821,-755.0025 342,-759.5 355.8207,-762.4295 370.8336,-765.5901 384.5858,-768.4768"/>
<polygon fill="#191970" stroke="#191970" points="277.7364,-742.2165 267.2249,-743.543 276.2694,-749.061 277.7364,-742.2165"/>
</g>
<!-- Node14 -->
<g id="node14" class="node">
<title>Node14</title>
<g id="a_node14"><a xlink:href="../../db/d4b/classEMCalAna.html#a9647db89feef6823b38bbdeaf7de06c2" target="_top" xlink:title="EMCalAna::process_event\l_UpslisonTrig">
<polygon fill="none" stroke="#000000" points="359,-717.5 359,-749.5 506,-749.5 506,-717.5 359,-717.5"/>
<text text-anchor="start" x="367" y="-736.5" font-family="FreeSans" font-size="10.00" fill="#000000">EMCalAna::process_event</text>
<text text-anchor="middle" x="432.5" y="-724.5" font-family="FreeSans" font-size="10.00" fill="#000000">_UpslisonTrig</text>
</a>
</g>
</g>
<!-- Node11&#45;&gt;Node14 -->
<g id="edge14" class="edge">
<title>Node11&#45;&gt;Node14</title>
<path fill="none" stroke="#191970" d="M287.7876,-733.5C310.4382,-733.5 335.8226,-733.5 358.9314,-733.5"/>
<polygon fill="#191970" stroke="#191970" points="287.591,-730.0001 277.591,-733.5 287.591,-737.0001 287.591,-730.0001"/>
</g>
<!-- Node13 -->
<g id="node13" class="node">
<title>Node13</title>
<g id="a_node13"><a xlink:href="../../db/d4b/classEMCalAna.html#a3b829b80df0fd8625130f3d9c11f5d3d" target="_top" xlink:title="EMCalAna::process_event">
<polygon fill="none" stroke="#000000" points="572.5,-744.5 572.5,-764.5 719.5,-764.5 719.5,-744.5 572.5,-744.5"/>
<text text-anchor="middle" x="646" y="-751.5" font-family="FreeSans" font-size="10.00" fill="#000000">EMCalAna::process_event</text>
</a>
</g>
</g>
<!-- Node12&#45;&gt;Node13 -->
<g id="edge13" class="edge">
<title>Node12&#45;&gt;Node13</title>
<path fill="none" stroke="#191970" d="M526.2977,-767.956C541.6604,-766.229 557.3863,-764.4613 572.1774,-762.7986"/>
<polygon fill="#191970" stroke="#191970" points="525.8145,-764.4882 516.2681,-769.0834 526.5965,-771.4444 525.8145,-764.4882"/>
</g>
<!-- Node14&#45;&gt;Node13 -->
<g id="edge15" class="edge">
<title>Node14&#45;&gt;Node13</title>
<path fill="none" stroke="#191970" d="M516.4016,-741.7526C534.8355,-743.5658 554.223,-745.4728 572.2235,-747.2433"/>
<polygon fill="#191970" stroke="#191970" points="516.5682,-738.2522 506.2735,-740.7564 515.8829,-745.2186 516.5682,-738.2522"/>
</g>
<!-- Node16 -->
<g id="node16" class="node">
<title>Node16</title>
<g id="a_node16"><a xlink:href="../../d2/d93/classTrkrEvaluator.html#af1cb893f5a8aebc803c2bb55dd582e5a" target="_top" xlink:title="TrkrEvaluator::process\l_event">
<polygon fill="none" stroke="#000000" points="367.5,-666.5 367.5,-698.5 497.5,-698.5 497.5,-666.5 367.5,-666.5"/>
<text text-anchor="start" x="375.5" y="-685.5" font-family="FreeSans" font-size="10.00" fill="#000000">TrkrEvaluator::process</text>
<text text-anchor="middle" x="432.5" y="-673.5" font-family="FreeSans" font-size="10.00" fill="#000000">_event</text>
</a>
</g>
</g>
<!-- Node15&#45;&gt;Node16 -->
<g id="edge17" class="edge">
<title>Node15&#45;&gt;Node16</title>
<path fill="none" stroke="#191970" d="M300.261,-682.5C322.4187,-682.5 346.2088,-682.5 367.4173,-682.5"/>
<polygon fill="#191970" stroke="#191970" points="300.2104,-679.0001 290.2104,-682.5 300.2103,-686.0001 300.2104,-679.0001"/>
</g>
<!-- Node18 -->
<g id="node18" class="node">
<title>Node18</title>
<g id="a_node18"><a xlink:href="../../d8/d98/classpsTOFTimezeroEval.html#a2e98730e1beaa91c36947c0fe671fdd2" target="_top" xlink:title="psTOFTimezeroEval::\lprocess_event">
<polygon fill="none" stroke="#000000" points="371.5,-615.5 371.5,-647.5 493.5,-647.5 493.5,-615.5 371.5,-615.5"/>
<text text-anchor="start" x="379.5" y="-634.5" font-family="FreeSans" font-size="10.00" fill="#000000">psTOFTimezeroEval::</text>
<text text-anchor="middle" x="432.5" y="-622.5" font-family="FreeSans" font-size="10.00" fill="#000000">process_event</text>
</a>
</g>
</g>
<!-- Node17&#45;&gt;Node18 -->
<g id="edge19" class="edge">
<title>Node17&#45;&gt;Node18</title>
<path fill="none" stroke="#191970" d="M291.6228,-631.5C317.4079,-631.5 346.292,-631.5 371.1619,-631.5"/>
<polygon fill="#191970" stroke="#191970" points="291.5348,-628.0001 281.5348,-631.5 291.5347,-635.0001 291.5348,-628.0001"/>
</g>
<!-- Node20 -->
<g id="node20" class="node">
<title>Node20</title>
<g id="a_node20"><a xlink:href="../../d2/d85/classSvtxEvaluatorHaiwang.html#ab63ca0cc53b56dad65b89d9b18220bce" target="_top" xlink:title="SvtxEvaluatorHaiwang\l::process_event">
<polygon fill="none" stroke="#000000" points="367,-564.5 367,-596.5 498,-596.5 498,-564.5 367,-564.5"/>
<text text-anchor="start" x="375" y="-583.5" font-family="FreeSans" font-size="10.00" fill="#000000">SvtxEvaluatorHaiwang</text>
<text text-anchor="middle" x="432.5" y="-571.5" font-family="FreeSans" font-size="10.00" fill="#000000">::process_event</text>
</a>
</g>
</g>
<!-- Node19&#45;&gt;Node20 -->
<g id="edge21" class="edge">
<title>Node19&#45;&gt;Node20</title>
<path fill="none" stroke="#191970" d="M296.2181,-580.5C319.2954,-580.5 344.463,-580.5 366.8189,-580.5"/>
<polygon fill="#191970" stroke="#191970" points="296.1263,-577.0001 286.1263,-580.5 296.1262,-584.0001 296.1263,-577.0001"/>
</g>
<!-- Node22 -->
<g id="node22" class="node">
<title>Node22</title>
<g id="a_node22"><a xlink:href="../../d6/d11/classSvtxEvaluator.html#ac66ea4145deb621d9e4fb38cf852dc33" target="_top" xlink:title="SvtxEvaluator::process\l_event">
<polygon fill="none" stroke="#000000" points="366.5,-513.5 366.5,-545.5 498.5,-545.5 498.5,-513.5 366.5,-513.5"/>
<text text-anchor="start" x="374.5" y="-532.5" font-family="FreeSans" font-size="10.00" fill="#000000">SvtxEvaluator::process</text>
<text text-anchor="middle" x="432.5" y="-520.5" font-family="FreeSans" font-size="10.00" fill="#000000">_event</text>
</a>
</g>
</g>
<!-- Node21&#45;&gt;Node22 -->
<g id="edge23" class="edge">
<title>Node21&#45;&gt;Node22</title>
<path fill="none" stroke="#191970" d="M301.1641,-529.5C322.6264,-529.5 345.5608,-529.5 366.1601,-529.5"/>
<polygon fill="#191970" stroke="#191970" points="301.093,-526.0001 291.0929,-529.5 301.0929,-533.0001 301.093,-526.0001"/>
</g>
<!-- Node23&#45;&gt;Node24 -->
<g id="edge25" class="edge">
<title>Node23&#45;&gt;Node24</title>
<path fill="none" stroke="#191970" d="M308.781,-478.5C332.0618,-478.5 356.5162,-478.5 377.4792,-478.5"/>
<polygon fill="#191970" stroke="#191970" points="308.5378,-475.0001 298.5378,-478.5 308.5378,-482.0001 308.5378,-475.0001"/>
</g>
<!-- Node26 -->
<g id="node26" class="node">
<title>Node26</title>
<g id="a_node26"><a xlink:href="../../d6/d17/classSVReco.html#a19081506d2161465fdf3f36527aa0e18" target="_top" xlink:title="Initialization, called for initialization at each event.">
<polygon fill="none" stroke="#000000" points="379.5,-423.5 379.5,-443.5 485.5,-443.5 485.5,-423.5 379.5,-423.5"/>
<text text-anchor="middle" x="432.5" y="-430.5" font-family="FreeSans" font-size="10.00" fill="#000000">SVReco::InitEvent</text>
</a>
</g>
</g>
<!-- Node25&#45;&gt;Node26 -->
<g id="edge27" class="edge">
<title>Node25&#45;&gt;Node26</title>
<path fill="none" stroke="#191970" d="M285.0895,-406.382C315.2097,-411.923 350.6229,-418.4377 379.1895,-423.6929"/>
<polygon fill="#191970" stroke="#191970" points="285.5635,-402.9106 275.0953,-404.5435 284.297,-409.7951 285.5635,-402.9106"/>
</g>
<!-- Node30 -->
<g id="node30" class="node">
<title>Node30</title>
<g id="a_node30"><a xlink:href="../../d6/d17/classSVReco.html#aed33c3da67bd3f1b7c3c73127b8187ea" target="_top" xlink:title="SVReco::refitTrack">
<polygon fill="none" stroke="#000000" points="378.5,-384.5 378.5,-404.5 486.5,-404.5 486.5,-384.5 378.5,-384.5"/>
<text text-anchor="middle" x="432.5" y="-391.5" font-family="FreeSans" font-size="10.00" fill="#000000">SVReco::refitTrack</text>
</a>
</g>
</g>
<!-- Node25&#45;&gt;Node30 -->
<g id="edge32" class="edge">
<title>Node25&#45;&gt;Node30</title>
<path fill="none" stroke="#191970" d="M304.2606,-394.5C329.2329,-394.5 355.9296,-394.5 378.4635,-394.5"/>
<polygon fill="#191970" stroke="#191970" points="304.0524,-391.0001 294.0523,-394.5 304.0523,-398.0001 304.0524,-391.0001"/>
</g>
<!-- Node26&#45;&gt;Node5 -->
<g id="edge31" class="edge">
<title>Node26&#45;&gt;Node5</title>
<path fill="none" stroke="#191970" d="M495.844,-439.557C505.66,-442.6453 515.1349,-447.1043 523,-453.5 553.2505,-478.0988 538.0598,-500.6107 559,-533.5 622.6389,-633.4529 660.1292,-642.0637 733,-735.5 765.9205,-777.7112 801.3698,-830.0182 818.706,-856.1019"/>
<polygon fill="#191970" stroke="#191970" points="496.5268,-436.1165 485.9613,-436.9047 494.7123,-442.8772 496.5268,-436.1165"/>
</g>
<!-- Node27 -->
<g id="node27" class="node">
<title>Node27</title>
<g id="a_node27"><a xlink:href="../../df/d9b/classRecoConversionEval.html#ab5e60cc47b4b3d33f9fdb4a83c2ff775" target="_top" xlink:title="RecoConversionEval\l::doNodePointers">
<polygon fill="none" stroke="#000000" points="586.5,-491.5 586.5,-523.5 705.5,-523.5 705.5,-491.5 586.5,-491.5"/>
<text text-anchor="start" x="594.5" y="-510.5" font-family="FreeSans" font-size="10.00" fill="#000000">RecoConversionEval</text>
<text text-anchor="middle" x="646" y="-498.5" font-family="FreeSans" font-size="10.00" fill="#000000">::doNodePointers</text>
</a>
</g>
</g>
<!-- Node26&#45;&gt;Node27 -->
<g id="edge28" class="edge">
<title>Node26&#45;&gt;Node27</title>
<path fill="none" stroke="#191970" d="M495.4122,-443.4503C504.9026,-446.0695 514.3881,-449.3632 523,-453.5 541.5198,-462.3961 540.7663,-473.0313 559,-482.5 567.5076,-486.918 576.9006,-490.65 586.2738,-493.7721"/>
<polygon fill="#191970" stroke="#191970" points="496.1096,-440.0165 485.5567,-440.9579 494.3933,-446.8029 496.1096,-440.0165"/>
</g>
<!-- Node29 -->
<g id="node29" class="node">
<title>Node29</title>
<g id="a_node29"><a xlink:href="../../d2/d6d/classVtxTest.html#ad1a3b9d5e730a3ba75f13a084e21bee5" target="_top" xlink:title="VtxTest::process_event">
<polygon fill="none" stroke="#000000" points="579,-452.5 579,-472.5 713,-472.5 713,-452.5 579,-452.5"/>
<text text-anchor="middle" x="646" y="-459.5" font-family="FreeSans" font-size="10.00" fill="#000000">VtxTest::process_event</text>
</a>
</g>
</g>
<!-- Node26&#45;&gt;Node29 -->
<g id="edge30" class="edge">
<title>Node26&#45;&gt;Node29</title>
<path fill="none" stroke="#191970" d="M495.7077,-442.0856C521.8196,-445.6324 552.1262,-449.749 578.6556,-453.3525"/>
<polygon fill="#191970" stroke="#191970" points="495.9297,-438.5837 485.5496,-440.7058 494.9875,-445.52 495.9297,-438.5837"/>
</g>
<!-- Node28 -->
<g id="node28" class="node">
<title>Node28</title>
<g id="a_node28"><a xlink:href="../../df/d9b/classRecoConversionEval.html#a54bb2ea55f01b0d0dc8752fbee1bc237" target="_top" xlink:title="RecoConversionEval\l::process_event">
<polygon fill="none" stroke="#000000" points="770,-446.5 770,-478.5 889,-478.5 889,-446.5 770,-446.5"/>
<text text-anchor="start" x="778" y="-465.5" font-family="FreeSans" font-size="10.00" fill="#000000">RecoConversionEval</text>
<text text-anchor="middle" x="829.5" y="-453.5" font-family="FreeSans" font-size="10.00" fill="#000000">::process_event</text>
</a>
</g>
</g>
<!-- Node27&#45;&gt;Node28 -->
<g id="edge29" class="edge">
<title>Node27&#45;&gt;Node28</title>
<path fill="none" stroke="#191970" d="M715.4038,-490.48C733.3507,-486.0789 752.5121,-481.3799 769.908,-477.1139"/>
<polygon fill="#191970" stroke="#191970" points="714.4558,-487.1087 705.5772,-492.8898 716.1231,-493.9072 714.4558,-487.1087"/>
</g>
<!-- Node31 -->
<g id="node31" class="node">
<title>Node31</title>
<g id="a_node31"><a xlink:href="../../df/d9b/classRecoConversionEval.html#ae0025d84438ba3f29cc99ec09cbb9f5b" target="_top" xlink:title="Uses _vertexer to refit.">
<polygon fill="none" stroke="#000000" points="586.5,-401.5 586.5,-433.5 705.5,-433.5 705.5,-401.5 586.5,-401.5"/>
<text text-anchor="start" x="594.5" y="-420.5" font-family="FreeSans" font-size="10.00" fill="#000000">RecoConversionEval</text>
<text text-anchor="middle" x="646" y="-408.5" font-family="FreeSans" font-size="10.00" fill="#000000">::refitTracks</text>
</a>
</g>
</g>
<!-- Node30&#45;&gt;Node31 -->
<g id="edge33" class="edge">
<title>Node30&#45;&gt;Node31</title>
<path fill="none" stroke="#191970" d="M496.8763,-401.4352C525.2677,-404.4937 558.4327,-408.0665 586.2678,-411.0651"/>
<polygon fill="#191970" stroke="#191970" points="496.9684,-397.9249 486.6511,-400.3336 496.2186,-404.8846 496.9684,-397.9249"/>
</g>
<!-- Node32 -->
<g id="node32" class="node">
<title>Node32</title>
<g id="a_node32"><a xlink:href="../../dc/d41/classConversion.html#a5a8976da958375a2e66f9c35017fb7be" target="_top" xlink:title="Uses recoVertex and.">
<polygon fill="none" stroke="#000000" points="580,-362.5 580,-382.5 712,-382.5 712,-362.5 580,-362.5"/>
<text text-anchor="middle" x="646" y="-369.5" font-family="FreeSans" font-size="10.00" fill="#000000">Conversion::refitTracks</text>
</a>
</g>
</g>
<!-- Node30&#45;&gt;Node32 -->
<g id="edge35" class="edge">
<title>Node30&#45;&gt;Node32</title>
<path fill="none" stroke="#191970" d="M496.849,-387.8692C523.0437,-385.17 553.3055,-382.0517 579.6968,-379.3322"/>
<polygon fill="#191970" stroke="#191970" points="496.2396,-384.4134 486.6511,-388.92 496.9572,-391.3765 496.2396,-384.4134"/>
</g>
<!-- Node33 -->
<g id="node33" class="node">
<title>Node33</title>
<g id="a_node33"><a xlink:href="../../dc/d41/classConversion.html#a232908ec95e6d7b3bfd8883d19885971" target="_top" xlink:title="Uses the truth vertex and SVReco to improve the fit of reco1 and reco2. Uses.">
<polygon fill="none" stroke="#000000" points="559,-323.5 559,-343.5 733,-343.5 733,-323.5 559,-323.5"/>
<text text-anchor="middle" x="646" y="-330.5" font-family="FreeSans" font-size="10.00" fill="#000000">Conversion::refitTracksTruthVtx</text>
</a>
</g>
</g>
<!-- Node30&#45;&gt;Node33 -->
<g id="edge36" class="edge">
<title>Node30&#45;&gt;Node33</title>
<path fill="none" stroke="#191970" d="M470.3944,-381.2586C495.3891,-372.763 528.9441,-361.8083 559,-353.5 571.8466,-349.9488 585.8802,-346.5265 598.8535,-343.5473"/>
<polygon fill="#191970" stroke="#191970" points="469.2498,-377.951 460.9214,-384.4999 471.516,-384.574 469.2498,-377.951"/>
</g>
<!-- Node31&#45;&gt;Node28 -->
<g id="edge34" class="edge">
<title>Node31&#45;&gt;Node28</title>
<path fill="none" stroke="#191970" d="M715.4038,-434.52C733.3507,-438.9211 752.5121,-443.6201 769.908,-447.8861"/>
<polygon fill="#191970" stroke="#191970" points="716.1231,-431.0928 705.5772,-432.1102 714.4558,-437.8913 716.1231,-431.0928"/>
</g>
<!-- Node35 -->
<g id="node35" class="node">
<title>Node35</title>
<g id="a_node35"><a xlink:href="../../df/dd7/classTpcPrototypeGenFitTrkFitter.html#aaae0db362446e0098c4f4dbfa6714812" target="_top" xlink:title="TpcPrototypeGenFitTrkFitter\l::fill_eval_tree">
<polygon fill="none" stroke="#000000" points="354,-314.5 354,-346.5 511,-346.5 511,-314.5 354,-314.5"/>
<text text-anchor="start" x="362" y="-333.5" font-family="FreeSans" font-size="10.00" fill="#000000">TpcPrototypeGenFitTrkFitter</text>
<text text-anchor="middle" x="432.5" y="-321.5" font-family="FreeSans" font-size="10.00" fill="#000000">::fill_eval_tree</text>
</a>
</g>
</g>
<!-- Node34&#45;&gt;Node35 -->
<g id="edge38" class="edge">
<title>Node34&#45;&gt;Node35</title>
<path fill="none" stroke="#191970" d="M309.3181,-341.5399C324.1479,-340.2108 339.4386,-338.8404 353.9873,-337.5365"/>
<polygon fill="#191970" stroke="#191970" points="308.7873,-338.0733 299.1397,-342.4521 309.4122,-345.0454 308.7873,-338.0733"/>
</g>
<!-- Node36 -->
<g id="node36" class="node">
<title>Node36</title>
<g id="a_node36"><a xlink:href="../../df/dd7/classTpcPrototypeGenFitTrkFitter.html#a8861dffacdf05e47efc97b65adbafe32" target="_top" xlink:title="Process Event, called for each event.">
<polygon fill="none" stroke="#000000" points="567.5,-272.5 567.5,-304.5 724.5,-304.5 724.5,-272.5 567.5,-272.5"/>
<text text-anchor="start" x="575.5" y="-291.5" font-family="FreeSans" font-size="10.00" fill="#000000">TpcPrototypeGenFitTrkFitter</text>
<text text-anchor="middle" x="646" y="-279.5" font-family="FreeSans" font-size="10.00" fill="#000000">::process_event</text>
</a>
</g>
</g>
<!-- Node35&#45;&gt;Node36 -->
<g id="edge39" class="edge">
<title>Node35&#45;&gt;Node36</title>
<path fill="none" stroke="#191970" d="M521.0619,-313.078C536.3702,-310.0665 552.1926,-306.9539 567.2195,-303.9978"/>
<polygon fill="#191970" stroke="#191970" points="520.2263,-309.6752 511.09,-315.0397 521.5775,-316.5436 520.2263,-309.6752"/>
</g>
<!-- Node40 -->
<g id="node40" class="node">
<title>Node40</title>
<g id="a_node40"><a xlink:href="../../d0/d22/classPHGenFitTrkProp.html#ab11c2e61a1b78278fa4af7cf624c2538" target="_top" xlink:title="Main function.">
<polygon fill="none" stroke="#000000" points="342,-186.5 342,-206.5 523,-206.5 523,-186.5 342,-186.5"/>
<text text-anchor="middle" x="432.5" y="-193.5" font-family="FreeSans" font-size="10.00" fill="#000000">PHGenFitTrkProp::KalmanTrkProp</text>
</a>
</g>
</g>
<!-- Node39&#45;&gt;Node40 -->
<g id="edge44" class="edge">
<title>Node39&#45;&gt;Node40</title>
<path fill="none" stroke="#191970" d="M308.3136,-196.5C319.3849,-196.5 330.7291,-196.5 341.8434,-196.5"/>
<polygon fill="#191970" stroke="#191970" points="308.2372,-193.0001 298.2372,-196.5 308.2371,-200.0001 308.2372,-193.0001"/>
</g>
<!-- Node41 -->
<g id="node41" class="node">
<title>Node41</title>
<g id="a_node41"><a xlink:href="../../d0/d22/classPHGenFitTrkProp.html#a31e50e42d62a2bf32763652b39dc95b8" target="_top" xlink:title="PHGenFitTrkProp::Process">
<polygon fill="none" stroke="#000000" points="574,-186.5 574,-206.5 718,-206.5 718,-186.5 574,-186.5"/>
<text text-anchor="middle" x="646" y="-193.5" font-family="FreeSans" font-size="10.00" fill="#000000">PHGenFitTrkProp::Process</text>
</a>
</g>
</g>
<!-- Node40&#45;&gt;Node41 -->
<g id="edge45" class="edge">
<title>Node40&#45;&gt;Node41</title>
<path fill="none" stroke="#191970" d="M533.4166,-196.5C547.0335,-196.5 560.7772,-196.5 573.7582,-196.5"/>
<polygon fill="#191970" stroke="#191970" points="533.0433,-193.0001 523.0432,-196.5 533.0432,-200.0001 533.0433,-193.0001"/>
</g>
</g>
</svg>
