<?xml version="1.0" encoding="UTF-8" standalone="no"?>
<!DOCTYPE svg PUBLIC "-//W3C//DTD SVG 1.1//EN"
 "http://www.w3.org/Graphics/SVG/1.1/DTD/svg11.dtd">
<!-- Generated by graphviz version 2.40.1 (20161225.0304)
 -->
<!-- Title: SvtxTrack::get_ndf Pages: 1 -->
<svg width="707pt" height="758pt"
 viewBox="0.00 0.00 707.00 758.00" xmlns="http://www.w3.org/2000/svg" xmlns:xlink="http://www.w3.org/1999/xlink">
<g id="graph0" class="graph" transform="scale(1 1) rotate(0) translate(4 754)">
<title>SvtxTrack::get_ndf</title>
<!-- Node1 -->
<g id="node1" class="node">
<title>Node1</title>
<polygon fill="#bfbfbf" stroke="#000000" points="0,-333.5 0,-353.5 110,-353.5 110,-333.5 0,-333.5"/>
<text text-anchor="middle" x="55" y="-340.5" font-family="FreeSans" font-size="10.00" fill="#000000">SvtxTrack::get_ndf</text>
</g>
<!-- Node2 -->
<g id="node2" class="node">
<title>Node2</title>
<g id="a_node2"><a xlink:href="../../de/da4/classEMCalCalib.html#ac80fa52a42070fa6210a5c69f9c10fed" target="_top" xlink:title="project a photon to calorimeters and collect towers around it">
<polygon fill="none" stroke="#000000" points="154,-698.5 154,-718.5 295,-718.5 295,-698.5 154,-698.5"/>
<text text-anchor="middle" x="224.5" y="-705.5" font-family="FreeSans" font-size="10.00" fill="#000000">EMCalCalib::eval_photon</text>
</a>
</g>
</g>
<!-- Node1&#45;&gt;Node2 -->
<g id="edge1" class="edge">
<title>Node1&#45;&gt;Node2</title>
<path fill="none" stroke="#191970" d="M58.6724,-363.6635C70.3594,-426.124 108.1506,-615.0994 146,-663.5 158.6767,-679.7106 178.9353,-691.1142 195.6967,-698.3856"/>
<polygon fill="#191970" stroke="#191970" points="62.0596,-362.7325 56.7998,-353.5355 55.1763,-364.0052 62.0596,-362.7325"/>
</g>
<!-- Node5 -->
<g id="node5" class="node">
<title>Node5</title>
<g id="a_node5"><a xlink:href="../../db/d4b/classEMCalAna.html#a058c1f2ec1ef8b8f7786737eb6e3151b" target="_top" xlink:title="EMCalAna::eval_trk">
<polygon fill="none" stroke="#000000" points="167.5,-633.5 167.5,-653.5 281.5,-653.5 281.5,-633.5 167.5,-633.5"/>
<text text-anchor="middle" x="224.5" y="-640.5" font-family="FreeSans" font-size="10.00" fill="#000000">EMCalAna::eval_trk</text>
</a>
</g>
</g>
<!-- Node1&#45;&gt;Node5 -->
<g id="edge4" class="edge">
<title>Node1&#45;&gt;Node5</title>
<path fill="none" stroke="#191970" d="M59.2034,-363.7317C71.4374,-420.8258 108.5366,-581.4557 146,-618.5 152.6108,-625.0368 160.9253,-629.8659 169.6522,-633.4329"/>
<polygon fill="#191970" stroke="#191970" points="62.5882,-362.8205 57.0954,-353.7607 55.7396,-364.2684 62.5882,-362.8205"/>
</g>
<!-- Node9 -->
<g id="node9" class="node">
<title>Node9</title>
<g id="a_node9"><a xlink:href="../../d2/d93/classTrkrEvaluator.html#a753a5ea1a91f097f5c226f5b1620db3f" target="_top" xlink:title="dump the evaluator information into ntuple for external analysis">
<polygon fill="none" stroke="#000000" points="155,-576.5 155,-608.5 294,-608.5 294,-576.5 155,-576.5"/>
<text text-anchor="start" x="163" y="-595.5" font-family="FreeSans" font-size="10.00" fill="#000000">TrkrEvaluator::fillOutput</text>
<text text-anchor="middle" x="224.5" y="-583.5" font-family="FreeSans" font-size="10.00" fill="#000000">Ntuples</text>
</a>
</g>
</g>
<!-- Node1&#45;&gt;Node9 -->
<g id="edge9" class="edge">
<title>Node1&#45;&gt;Node9</title>
<path fill="none" stroke="#191970" d="M57.4349,-363.6272C63.772,-407.1919 84.7802,-510.8537 146,-567.5 149.6744,-570.8999 153.8114,-573.8374 158.2158,-576.3754"/>
<polygon fill="#191970" stroke="#191970" points="60.8997,-363.1308 56.0966,-353.6872 53.9623,-364.0648 60.8997,-363.1308"/>
</g>
<!-- Node11 -->
<g id="node11" class="node">
<title>Node11</title>
<g id="a_node11"><a xlink:href="../../d8/d98/classpsTOFTimezeroEval.html#ae9fd1570652089bed4ec7eb81009b318" target="_top" xlink:title="dump the evaluator information into ntuple for external analysis">
<polygon fill="none" stroke="#000000" points="163.5,-525.5 163.5,-557.5 285.5,-557.5 285.5,-525.5 163.5,-525.5"/>
<text text-anchor="start" x="171.5" y="-544.5" font-family="FreeSans" font-size="10.00" fill="#000000">psTOFTimezeroEval::</text>
<text text-anchor="middle" x="224.5" y="-532.5" font-family="FreeSans" font-size="10.00" fill="#000000">fillOutputNtuples</text>
</a>
</g>
</g>
<!-- Node1&#45;&gt;Node11 -->
<g id="edge11" class="edge">
<title>Node1&#45;&gt;Node11</title>
<path fill="none" stroke="#191970" d="M60.1215,-363.6323C70.3037,-399.6036 96.496,-475.0198 146,-516.5 151.1526,-520.8175 157.0593,-524.3923 163.2693,-527.3516"/>
<polygon fill="#191970" stroke="#191970" points="63.4563,-362.5562 57.4675,-353.8164 56.699,-364.3833 63.4563,-362.5562"/>
</g>
<!-- Node13 -->
<g id="node13" class="node">
<title>Node13</title>
<g id="a_node13"><a xlink:href="../../d2/d85/classSvtxEvaluatorHaiwang.html#a0fd261422264aedc22d0506ef5e897c4" target="_top" xlink:title="dump the evaluator information into ntuple for external analysis">
<polygon fill="none" stroke="#000000" points="159,-474.5 159,-506.5 290,-506.5 290,-474.5 159,-474.5"/>
<text text-anchor="start" x="167" y="-493.5" font-family="FreeSans" font-size="10.00" fill="#000000">SvtxEvaluatorHaiwang</text>
<text text-anchor="middle" x="224.5" y="-481.5" font-family="FreeSans" font-size="10.00" fill="#000000">::fillOutputNtuples</text>
</a>
</g>
</g>
<!-- Node1&#45;&gt;Node13 -->
<g id="edge13" class="edge">
<title>Node1&#45;&gt;Node13</title>
<path fill="none" stroke="#191970" d="M64.4732,-362.8696C78.5884,-389.76 107.6462,-438.1699 146,-465.5 150.7757,-468.9031 156.0353,-471.8574 161.5011,-474.4194"/>
<polygon fill="#191970" stroke="#191970" points="67.4636,-361.029 59.8068,-353.7061 61.2258,-364.2055 67.4636,-361.029"/>
</g>
<!-- Node15 -->
<g id="node15" class="node">
<title>Node15</title>
<g id="a_node15"><a xlink:href="../../d6/d11/classSvtxEvaluator.html#ace95fef2b7b4ad8b797f6695e053dd6e" target="_top" xlink:title="dump the evaluator information into ntuple for external analysis">
<polygon fill="none" stroke="#000000" points="154,-423.5 154,-455.5 295,-455.5 295,-423.5 154,-423.5"/>
<text text-anchor="start" x="162" y="-442.5" font-family="FreeSans" font-size="10.00" fill="#000000">SvtxEvaluator::fillOutput</text>
<text text-anchor="middle" x="224.5" y="-430.5" font-family="FreeSans" font-size="10.00" fill="#000000">Ntuples</text>
</a>
</g>
</g>
<!-- Node1&#45;&gt;Node15 -->
<g id="edge15" class="edge">
<title>Node1&#45;&gt;Node15</title>
<path fill="none" stroke="#191970" d="M73.0159,-360.7366C90.4634,-376.6191 118.2796,-399.8763 146,-414.5 152.3252,-417.8368 159.1742,-420.8239 166.1011,-423.4705"/>
<polygon fill="#191970" stroke="#191970" points="75.0399,-357.84 65.3294,-353.6023 70.2778,-362.9706 75.0399,-357.84"/>
</g>
<!-- Node17 -->
<g id="node17" class="node">
<title>Node17</title>
<g id="a_node17"><a xlink:href="../../dc/d65/classPhotonJet.html#a9b2de7dcbd5e3bbbd26150d418b7bb44" target="_top" xlink:title="PhotonJet::GetRecoHadrons\lAndJets">
<polygon fill="none" stroke="#000000" points="146.5,-372.5 146.5,-404.5 302.5,-404.5 302.5,-372.5 146.5,-372.5"/>
<text text-anchor="start" x="154.5" y="-391.5" font-family="FreeSans" font-size="10.00" fill="#000000">PhotonJet::GetRecoHadrons</text>
<text text-anchor="middle" x="224.5" y="-379.5" font-family="FreeSans" font-size="10.00" fill="#000000">AndJets</text>
</a>
</g>
</g>
<!-- Node1&#45;&gt;Node17 -->
<g id="edge17" class="edge">
<title>Node1&#45;&gt;Node17</title>
<path fill="none" stroke="#191970" d="M102.9396,-356.2273C121.9046,-361.2623 143.9221,-367.1076 163.9666,-372.4292"/>
<polygon fill="#191970" stroke="#191970" points="103.6024,-352.7821 93.0391,-353.5989 101.8062,-359.5477 103.6024,-352.7821"/>
</g>
<!-- Node18 -->
<g id="node18" class="node">
<title>Node18</title>
<g id="a_node18"><a xlink:href="../../dc/d65/classPhotonJet.html#a3f9d3ec941f851bc2246ceb0c5362c9f" target="_top" xlink:title="PhotonJet::process\l_event">
<polygon fill="none" stroke="#000000" points="367.5,-372.5 367.5,-404.5 477.5,-404.5 477.5,-372.5 367.5,-372.5"/>
<text text-anchor="start" x="375.5" y="-391.5" font-family="FreeSans" font-size="10.00" fill="#000000">PhotonJet::process</text>
<text text-anchor="middle" x="422.5" y="-379.5" font-family="FreeSans" font-size="10.00" fill="#000000">_event</text>
</a>
</g>
</g>
<!-- Node1&#45;&gt;Node18 -->
<g id="edge29" class="edge">
<title>Node1&#45;&gt;Node18</title>
<path fill="none" stroke="#191970" d="M120.4428,-346.5278C170.5904,-349.3912 241.405,-354.6093 303,-363.5 324.188,-366.5583 347.2582,-371.0948 367.4273,-375.467"/>
<polygon fill="#191970" stroke="#191970" points="120.561,-343.029 110.3823,-345.9691 120.1728,-350.0183 120.561,-343.029"/>
</g>
<!-- Node19 -->
<g id="node19" class="node">
<title>Node19</title>
<g id="a_node19"><a xlink:href="../../d6/d17/classSVReco.html#a19081506d2161465fdf3f36527aa0e18" target="_top" xlink:title="Initialization, called for initialization at each event.">
<polygon fill="none" stroke="#000000" points="171.5,-294.5 171.5,-314.5 277.5,-314.5 277.5,-294.5 171.5,-294.5"/>
<text text-anchor="middle" x="224.5" y="-301.5" font-family="FreeSans" font-size="10.00" fill="#000000">SVReco::InitEvent</text>
</a>
</g>
</g>
<!-- Node1&#45;&gt;Node19 -->
<g id="edge19" class="edge">
<title>Node1&#45;&gt;Node19</title>
<path fill="none" stroke="#191970" d="M108.4177,-331.2092C131.7958,-325.8302 158.8759,-319.5994 180.9975,-314.5094"/>
<polygon fill="#191970" stroke="#191970" points="107.611,-327.8033 98.6505,-333.4565 109.1807,-334.625 107.611,-327.8033"/>
</g>
<!-- Node24 -->
<g id="node24" class="node">
<title>Node24</title>
<g id="a_node24"><a xlink:href="../../df/dd7/classTpcPrototypeGenFitTrkFitter.html#a7d58d6e2d72346f8c2eb6aa9cf897c9b" target="_top" xlink:title="Make TpcPrototypeTrack from SvtxTrack, refit by &quot;excluding&quot; each cluster.">
<polygon fill="none" stroke="#000000" points="146,-243.5 146,-275.5 303,-275.5 303,-243.5 146,-243.5"/>
<text text-anchor="start" x="154" y="-262.5" font-family="FreeSans" font-size="10.00" fill="#000000">TpcPrototypeGenFitTrkFitter</text>
<text text-anchor="middle" x="224.5" y="-250.5" font-family="FreeSans" font-size="10.00" fill="#000000">::MakeTpcPrototypeTrack</text>
</a>
</g>
</g>
<!-- Node1&#45;&gt;Node24 -->
<g id="edge24" class="edge">
<title>Node1&#45;&gt;Node24</title>
<path fill="none" stroke="#191970" d="M77.1097,-327.2014C95.0032,-314.565 121.2158,-297.2783 146,-285.5 153.6504,-281.8643 161.944,-278.5234 170.1781,-275.5345"/>
<polygon fill="#191970" stroke="#191970" points="74.6486,-324.6593 68.5625,-333.3317 78.7284,-330.3475 74.6486,-324.6593"/>
</g>
<!-- Node27 -->
<g id="node27" class="node">
<title>Node27</title>
<g id="a_node27"><a xlink:href="../../d0/dab/classTrackingPerformanceCheck.html#a8dafa93c6ddc8928257fec958a45ee6b" target="_top" xlink:title="TrackingPerformanceCheck\l::process_event">
<polygon fill="none" stroke="#000000" points="147,-192.5 147,-224.5 302,-224.5 302,-192.5 147,-192.5"/>
<text text-anchor="start" x="155" y="-211.5" font-family="FreeSans" font-size="10.00" fill="#000000">TrackingPerformanceCheck</text>
<text text-anchor="middle" x="224.5" y="-199.5" font-family="FreeSans" font-size="10.00" fill="#000000">::process_event</text>
</a>
</g>
</g>
<!-- Node1&#45;&gt;Node27 -->
<g id="edge27" class="edge">
<title>Node1&#45;&gt;Node27</title>
<path fill="none" stroke="#191970" d="M65.9063,-324.8734C80.9741,-300.6963 110.3754,-258.7415 146,-234.5 151.5785,-230.704 157.7547,-227.4254 164.1209,-224.6023"/>
<polygon fill="#191970" stroke="#191970" points="62.8799,-323.1142 60.6826,-333.4787 68.8637,-326.7466 62.8799,-323.1142"/>
</g>
<!-- Node28 -->
<g id="node28" class="node">
<title>Node28</title>
<g id="a_node28"><a xlink:href="../../db/d4c/classBJetModule.html#a93ec29147c2d7aea52780d7370141e74" target="_top" xlink:title="BJetModule::process\l_event">
<polygon fill="none" stroke="#000000" points="165,-141.5 165,-173.5 284,-173.5 284,-141.5 165,-141.5"/>
<text text-anchor="start" x="173" y="-160.5" font-family="FreeSans" font-size="10.00" fill="#000000">BJetModule::process</text>
<text text-anchor="middle" x="224.5" y="-148.5" font-family="FreeSans" font-size="10.00" fill="#000000">_event</text>
</a>
</g>
</g>
<!-- Node1&#45;&gt;Node28 -->
<g id="edge28" class="edge">
<title>Node1&#45;&gt;Node28</title>
<path fill="none" stroke="#191970" d="M61.0732,-323.5247C72.3328,-289.7976 99.6187,-221.5278 146,-183.5 151.662,-178.8577 158.1836,-175.0332 164.9976,-171.8849"/>
<polygon fill="#191970" stroke="#191970" points="57.6981,-322.588 57.9768,-333.1792 64.3637,-324.7259 57.6981,-322.588"/>
</g>
<!-- Node29 -->
<g id="node29" class="node">
<title>Node29</title>
<g id="a_node29"><a xlink:href="../../d5/daa/classPHRaveVertexing.html#afefcb6ce27ac34016e62172d8519fae8" target="_top" xlink:title="Process Event, called for each event.">
<polygon fill="none" stroke="#000000" points="348,-48.5 348,-80.5 497,-80.5 497,-48.5 348,-48.5"/>
<text text-anchor="start" x="356" y="-67.5" font-family="FreeSans" font-size="10.00" fill="#000000">PHRaveVertexing::process</text>
<text text-anchor="middle" x="422.5" y="-55.5" font-family="FreeSans" font-size="10.00" fill="#000000">_event</text>
</a>
</g>
</g>
<!-- Node1&#45;&gt;Node29 -->
<g id="edge30" class="edge">
<title>Node1&#45;&gt;Node29</title>
<path fill="none" stroke="#191970" d="M57.6765,-323.3674C64.3815,-281.2125 85.901,-183.3659 146,-132.5 147.0288,-131.6292 275.1264,-100.3505 356.5842,-80.5229"/>
<polygon fill="#191970" stroke="#191970" points="54.2139,-322.8573 56.2169,-333.261 61.139,-323.8789 54.2139,-322.8573"/>
</g>
<!-- Node30 -->
<g id="node30" class="node">
<title>Node30</title>
<g id="a_node30"><a xlink:href="../../d1/d04/classBDiJetModule.html#a8f01ada101f7e91cf05e12bbf420d192" target="_top" xlink:title="BDiJetModule::process\l_event">
<polygon fill="none" stroke="#000000" points="160,-51.5 160,-83.5 289,-83.5 289,-51.5 160,-51.5"/>
<text text-anchor="start" x="168" y="-70.5" font-family="FreeSans" font-size="10.00" fill="#000000">BDiJetModule::process</text>
<text text-anchor="middle" x="224.5" y="-58.5" font-family="FreeSans" font-size="10.00" fill="#000000">_event</text>
</a>
</g>
</g>
<!-- Node1&#45;&gt;Node30 -->
<g id="edge31" class="edge">
<title>Node1&#45;&gt;Node30</title>
<path fill="none" stroke="#191970" d="M56.9988,-323.1156C62.5727,-276.9702 82.3304,-163.4865 146,-98.5 151.9476,-92.4294 159.2296,-87.5183 166.9361,-83.5529"/>
<polygon fill="#191970" stroke="#191970" points="53.4901,-323.0019 55.8692,-333.3261 60.4477,-323.7716 53.4901,-323.0019"/>
</g>
<!-- Node31 -->
<g id="node31" class="node">
<title>Node31</title>
<g id="a_node31"><a xlink:href="../../d5/daa/classPHRaveVertexing.html#af3ca2c60b8b69efdf6fdaf781f19948c" target="_top" xlink:title="PHRaveVertexing::Translate\lSvtxToGenFitTrack">
<polygon fill="none" stroke="#000000" points="146.5,-.5 146.5,-32.5 302.5,-32.5 302.5,-.5 146.5,-.5"/>
<text text-anchor="start" x="154.5" y="-19.5" font-family="FreeSans" font-size="10.00" fill="#000000">PHRaveVertexing::Translate</text>
<text text-anchor="middle" x="224.5" y="-7.5" font-family="FreeSans" font-size="10.00" fill="#000000">SvtxToGenFitTrack</text>
</a>
</g>
</g>
<!-- Node1&#45;&gt;Node31 -->
<g id="edge32" class="edge">
<title>Node1&#45;&gt;Node31</title>
<path fill="none" stroke="#191970" d="M58.5606,-323.3105C69.6568,-262.516 105.3138,-82.8277 146,-41.5 149.3113,-38.1365 153.0733,-35.2247 157.1149,-32.7041"/>
<polygon fill="#191970" stroke="#191970" points="55.1041,-322.7568 56.7788,-333.2184 61.9936,-323.9958 55.1041,-322.7568"/>
</g>
<!-- Node3 -->
<g id="node3" class="node">
<title>Node3</title>
<g id="a_node3"><a xlink:href="../../de/da4/classEMCalCalib.html#a8d33bc88a464878c873f29c9230ce7fe" target="_top" xlink:title="EMCalCalib::process\l_event_MCPhoton">
<polygon fill="none" stroke="#000000" points="363.5,-717.5 363.5,-749.5 481.5,-749.5 481.5,-717.5 363.5,-717.5"/>
<text text-anchor="start" x="371.5" y="-736.5" font-family="FreeSans" font-size="10.00" fill="#000000">EMCalCalib::process</text>
<text text-anchor="middle" x="422.5" y="-724.5" font-family="FreeSans" font-size="10.00" fill="#000000">_event_MCPhoton</text>
</a>
</g>
</g>
<!-- Node2&#45;&gt;Node3 -->
<g id="edge2" class="edge">
<title>Node2&#45;&gt;Node3</title>
<path fill="none" stroke="#191970" d="M305.2069,-718.6903C324.652,-721.1455 345.0725,-723.7238 363.3255,-726.0285"/>
<polygon fill="#191970" stroke="#191970" points="305.5037,-715.2 295.144,-717.4197 304.6267,-722.1449 305.5037,-715.2"/>
</g>
<!-- Node4 -->
<g id="node4" class="node">
<title>Node4</title>
<g id="a_node4"><a xlink:href="../../de/da4/classEMCalCalib.html#aa70da6270813e434e35da37b6ec2a350" target="_top" xlink:title="EMCalCalib::process\l_event">
<polygon fill="none" stroke="#000000" points="561.5,-717.5 561.5,-749.5 679.5,-749.5 679.5,-717.5 561.5,-717.5"/>
<text text-anchor="start" x="569.5" y="-736.5" font-family="FreeSans" font-size="10.00" fill="#000000">EMCalCalib::process</text>
<text text-anchor="middle" x="620.5" y="-724.5" font-family="FreeSans" font-size="10.00" fill="#000000">_event</text>
</a>
</g>
</g>
<!-- Node3&#45;&gt;Node4 -->
<g id="edge3" class="edge">
<title>Node3&#45;&gt;Node4</title>
<path fill="none" stroke="#191970" d="M491.8717,-733.5C514.5359,-733.5 539.4821,-733.5 561.3245,-733.5"/>
<polygon fill="#191970" stroke="#191970" points="491.6384,-730.0001 481.6383,-733.5 491.6383,-737.0001 491.6384,-730.0001"/>
</g>
<!-- Node6 -->
<g id="node6" class="node">
<title>Node6</title>
<g id="a_node6"><a xlink:href="../../db/d4b/classEMCalAna.html#a2e20101b8705ea086e2c7de88e95767d" target="_top" xlink:title="EMCalAna::process_event_Trk">
<polygon fill="none" stroke="#000000" points="339,-678.5 339,-698.5 506,-698.5 506,-678.5 339,-678.5"/>
<text text-anchor="middle" x="422.5" y="-685.5" font-family="FreeSans" font-size="10.00" fill="#000000">EMCalAna::process_event_Trk</text>
</a>
</g>
</g>
<!-- Node5&#45;&gt;Node6 -->
<g id="edge5" class="edge">
<title>Node5&#45;&gt;Node6</title>
<path fill="none" stroke="#191970" d="M278.7957,-655.8399C310.0465,-662.9424 348.8202,-671.7546 378.2132,-678.4348"/>
<polygon fill="#191970" stroke="#191970" points="279.4621,-652.4022 268.9351,-653.5989 277.9107,-659.2281 279.4621,-652.4022"/>
</g>
<!-- Node8 -->
<g id="node8" class="node">
<title>Node8</title>
<g id="a_node8"><a xlink:href="../../db/d4b/classEMCalAna.html#a9647db89feef6823b38bbdeaf7de06c2" target="_top" xlink:title="EMCalAna::process_event\l_UpslisonTrig">
<polygon fill="none" stroke="#000000" points="349,-627.5 349,-659.5 496,-659.5 496,-627.5 349,-627.5"/>
<text text-anchor="start" x="357" y="-646.5" font-family="FreeSans" font-size="10.00" fill="#000000">EMCalAna::process_event</text>
<text text-anchor="middle" x="422.5" y="-634.5" font-family="FreeSans" font-size="10.00" fill="#000000">_UpslisonTrig</text>
</a>
</g>
</g>
<!-- Node5&#45;&gt;Node8 -->
<g id="edge7" class="edge">
<title>Node5&#45;&gt;Node8</title>
<path fill="none" stroke="#191970" d="M291.566,-643.5C310.0182,-643.5 330.1281,-643.5 348.926,-643.5"/>
<polygon fill="#191970" stroke="#191970" points="291.5042,-640.0001 281.5042,-643.5 291.5041,-647.0001 291.5042,-640.0001"/>
</g>
<!-- Node7 -->
<g id="node7" class="node">
<title>Node7</title>
<g id="a_node7"><a xlink:href="../../db/d4b/classEMCalAna.html#a3b829b80df0fd8625130f3d9c11f5d3d" target="_top" xlink:title="EMCalAna::process_event">
<polygon fill="none" stroke="#000000" points="547,-655.5 547,-675.5 694,-675.5 694,-655.5 547,-655.5"/>
<text text-anchor="middle" x="620.5" y="-662.5" font-family="FreeSans" font-size="10.00" fill="#000000">EMCalAna::process_event</text>
</a>
</g>
</g>
<!-- Node6&#45;&gt;Node7 -->
<g id="edge6" class="edge">
<title>Node6&#45;&gt;Node7</title>
<path fill="none" stroke="#191970" d="M516.372,-677.5957C526.6018,-676.4074 536.9047,-675.2106 546.8425,-674.0562"/>
<polygon fill="#191970" stroke="#191970" points="515.7122,-674.1487 506.1828,-678.7793 516.5199,-681.1019 515.7122,-674.1487"/>
</g>
<!-- Node8&#45;&gt;Node7 -->
<g id="edge8" class="edge">
<title>Node8&#45;&gt;Node7</title>
<path fill="none" stroke="#191970" d="M506.3853,-652.8206C519.7865,-654.3096 533.5661,-655.8407 546.7105,-657.3012"/>
<polygon fill="#191970" stroke="#191970" points="506.5533,-649.3178 496.2279,-651.692 505.7802,-656.275 506.5533,-649.3178"/>
</g>
<!-- Node10 -->
<g id="node10" class="node">
<title>Node10</title>
<g id="a_node10"><a xlink:href="../../d2/d93/classTrkrEvaluator.html#af1cb893f5a8aebc803c2bb55dd582e5a" target="_top" xlink:title="TrkrEvaluator::process\l_event">
<polygon fill="none" stroke="#000000" points="357.5,-576.5 357.5,-608.5 487.5,-608.5 487.5,-576.5 357.5,-576.5"/>
<text text-anchor="start" x="365.5" y="-595.5" font-family="FreeSans" font-size="10.00" fill="#000000">TrkrEvaluator::process</text>
<text text-anchor="middle" x="422.5" y="-583.5" font-family="FreeSans" font-size="10.00" fill="#000000">_event</text>
</a>
</g>
</g>
<!-- Node9&#45;&gt;Node10 -->
<g id="edge10" class="edge">
<title>Node9&#45;&gt;Node10</title>
<path fill="none" stroke="#191970" d="M304.3087,-592.5C321.9645,-592.5 340.4672,-592.5 357.4526,-592.5"/>
<polygon fill="#191970" stroke="#191970" points="304.029,-589.0001 294.029,-592.5 304.0289,-596.0001 304.029,-589.0001"/>
</g>
<!-- Node12 -->
<g id="node12" class="node">
<title>Node12</title>
<g id="a_node12"><a xlink:href="../../d8/d98/classpsTOFTimezeroEval.html#a2e98730e1beaa91c36947c0fe671fdd2" target="_top" xlink:title="psTOFTimezeroEval::\lprocess_event">
<polygon fill="none" stroke="#000000" points="361.5,-525.5 361.5,-557.5 483.5,-557.5 483.5,-525.5 361.5,-525.5"/>
<text text-anchor="start" x="369.5" y="-544.5" font-family="FreeSans" font-size="10.00" fill="#000000">psTOFTimezeroEval::</text>
<text text-anchor="middle" x="422.5" y="-532.5" font-family="FreeSans" font-size="10.00" fill="#000000">process_event</text>
</a>
</g>
</g>
<!-- Node11&#45;&gt;Node12 -->
<g id="edge12" class="edge">
<title>Node11&#45;&gt;Node12</title>
<path fill="none" stroke="#191970" d="M295.5826,-541.5C317.0989,-541.5 340.5312,-541.5 361.3385,-541.5"/>
<polygon fill="#191970" stroke="#191970" points="295.5222,-538.0001 285.5221,-541.5 295.5221,-545.0001 295.5222,-538.0001"/>
</g>
<!-- Node14 -->
<g id="node14" class="node">
<title>Node14</title>
<g id="a_node14"><a xlink:href="../../d2/d85/classSvtxEvaluatorHaiwang.html#ab63ca0cc53b56dad65b89d9b18220bce" target="_top" xlink:title="SvtxEvaluatorHaiwang\l::process_event">
<polygon fill="none" stroke="#000000" points="357,-474.5 357,-506.5 488,-506.5 488,-474.5 357,-474.5"/>
<text text-anchor="start" x="365" y="-493.5" font-family="FreeSans" font-size="10.00" fill="#000000">SvtxEvaluatorHaiwang</text>
<text text-anchor="middle" x="422.5" y="-481.5" font-family="FreeSans" font-size="10.00" fill="#000000">::process_event</text>
</a>
</g>
</g>
<!-- Node13&#45;&gt;Node14 -->
<g id="edge14" class="edge">
<title>Node13&#45;&gt;Node14</title>
<path fill="none" stroke="#191970" d="M300.3362,-490.5C318.9059,-490.5 338.6276,-490.5 356.6838,-490.5"/>
<polygon fill="#191970" stroke="#191970" points="300.1561,-487.0001 290.1561,-490.5 300.1561,-494.0001 300.1561,-487.0001"/>
</g>
<!-- Node16 -->
<g id="node16" class="node">
<title>Node16</title>
<g id="a_node16"><a xlink:href="../../d6/d11/classSvtxEvaluator.html#ac66ea4145deb621d9e4fb38cf852dc33" target="_top" xlink:title="SvtxEvaluator::process\l_event">
<polygon fill="none" stroke="#000000" points="356.5,-423.5 356.5,-455.5 488.5,-455.5 488.5,-423.5 356.5,-423.5"/>
<text text-anchor="start" x="364.5" y="-442.5" font-family="FreeSans" font-size="10.00" fill="#000000">SvtxEvaluator::process</text>
<text text-anchor="middle" x="422.5" y="-430.5" font-family="FreeSans" font-size="10.00" fill="#000000">_event</text>
</a>
</g>
</g>
<!-- Node15&#45;&gt;Node16 -->
<g id="edge16" class="edge">
<title>Node15&#45;&gt;Node16</title>
<path fill="none" stroke="#191970" d="M305.5239,-439.5C322.3731,-439.5 339.9412,-439.5 356.1865,-439.5"/>
<polygon fill="#191970" stroke="#191970" points="305.144,-436.0001 295.144,-439.5 305.1439,-443.0001 305.144,-436.0001"/>
</g>
<!-- Node17&#45;&gt;Node18 -->
<g id="edge18" class="edge">
<title>Node17&#45;&gt;Node18</title>
<path fill="none" stroke="#191970" d="M312.9732,-388.5C331.4883,-388.5 350.5002,-388.5 367.3788,-388.5"/>
<polygon fill="#191970" stroke="#191970" points="312.7549,-385.0001 302.7548,-388.5 312.7548,-392.0001 312.7549,-385.0001"/>
</g>
<!-- Node20 -->
<g id="node20" class="node">
<title>Node20</title>
<g id="a_node20"><a xlink:href="../../df/d9b/classRecoConversionEval.html#ab5e60cc47b4b3d33f9fdb4a83c2ff775" target="_top" xlink:title="RecoConversionEval\l::doNodePointers">
<polygon fill="none" stroke="#000000" points="363,-321.5 363,-353.5 482,-353.5 482,-321.5 363,-321.5"/>
<text text-anchor="start" x="371" y="-340.5" font-family="FreeSans" font-size="10.00" fill="#000000">RecoConversionEval</text>
<text text-anchor="middle" x="422.5" y="-328.5" font-family="FreeSans" font-size="10.00" fill="#000000">::doNodePointers</text>
</a>
</g>
</g>
<!-- Node19&#45;&gt;Node20 -->
<g id="edge20" class="edge">
<title>Node19&#45;&gt;Node20</title>
<path fill="none" stroke="#191970" d="M287.6367,-315.0228C311.6599,-319.0267 338.9409,-323.5735 362.6507,-327.5251"/>
<polygon fill="#191970" stroke="#191970" points="287.9997,-311.5351 277.5604,-313.3434 286.8489,-318.4398 287.9997,-311.5351"/>
</g>
<!-- Node22 -->
<g id="node22" class="node">
<title>Node22</title>
<g id="a_node22"><a xlink:href="../../d2/d6d/classVtxTest.html#ad1a3b9d5e730a3ba75f13a084e21bee5" target="_top" xlink:title="VtxTest::process_event">
<polygon fill="none" stroke="#000000" points="355.5,-282.5 355.5,-302.5 489.5,-302.5 489.5,-282.5 355.5,-282.5"/>
<text text-anchor="middle" x="422.5" y="-289.5" font-family="FreeSans" font-size="10.00" fill="#000000">VtxTest::process_event</text>
</a>
</g>
</g>
<!-- Node19&#45;&gt;Node22 -->
<g id="edge22" class="edge">
<title>Node19&#45;&gt;Node22</title>
<path fill="none" stroke="#191970" d="M287.6184,-300.6746C309.2485,-299.3637 333.5212,-297.8927 355.4511,-296.5636"/>
<polygon fill="#191970" stroke="#191970" points="287.3303,-297.1856 277.5604,-301.2842 287.7538,-304.1728 287.3303,-297.1856"/>
</g>
<!-- Node23 -->
<g id="node23" class="node">
<title>Node23</title>
<g id="a_node23"><a xlink:href="../../d9/d3a/classTruthConversionEval.html#a9a67c8171296f35dd157daf89108d3fd" target="_top" xlink:title="TruthConversionEval\l::process_event">
<polygon fill="none" stroke="#000000" points="362,-231.5 362,-263.5 483,-263.5 483,-231.5 362,-231.5"/>
<text text-anchor="start" x="370" y="-250.5" font-family="FreeSans" font-size="10.00" fill="#000000">TruthConversionEval</text>
<text text-anchor="middle" x="422.5" y="-238.5" font-family="FreeSans" font-size="10.00" fill="#000000">::process_event</text>
</a>
</g>
</g>
<!-- Node19&#45;&gt;Node23 -->
<g id="edge23" class="edge">
<title>Node19&#45;&gt;Node23</title>
<path fill="none" stroke="#191970" d="M278.5837,-292.0436C286.7938,-289.9698 295.1431,-287.756 303,-285.5 319.2105,-280.8454 322.9478,-278.674 339,-273.5 349.1156,-270.2395 359.9424,-266.8182 370.3351,-263.5677"/>
<polygon fill="#191970" stroke="#191970" points="277.5455,-288.6949 268.6808,-294.4973 279.2291,-295.4895 277.5455,-288.6949"/>
</g>
<!-- Node21 -->
<g id="node21" class="node">
<title>Node21</title>
<g id="a_node21"><a xlink:href="../../df/d9b/classRecoConversionEval.html#a54bb2ea55f01b0d0dc8752fbee1bc237" target="_top" xlink:title="RecoConversionEval\l::process_event">
<polygon fill="none" stroke="#000000" points="561,-321.5 561,-353.5 680,-353.5 680,-321.5 561,-321.5"/>
<text text-anchor="start" x="569" y="-340.5" font-family="FreeSans" font-size="10.00" fill="#000000">RecoConversionEval</text>
<text text-anchor="middle" x="620.5" y="-328.5" font-family="FreeSans" font-size="10.00" fill="#000000">::process_event</text>
</a>
</g>
</g>
<!-- Node20&#45;&gt;Node21 -->
<g id="edge21" class="edge">
<title>Node20&#45;&gt;Node21</title>
<path fill="none" stroke="#191970" d="M492.3025,-337.5C514.7211,-337.5 539.3336,-337.5 560.9472,-337.5"/>
<polygon fill="#191970" stroke="#191970" points="492.1751,-334.0001 482.175,-337.5 492.175,-341.0001 492.1751,-334.0001"/>
</g>
<!-- Node25 -->
<g id="node25" class="node">
<title>Node25</title>
<g id="a_node25"><a xlink:href="../../df/dd7/classTpcPrototypeGenFitTrkFitter.html#aaae0db362446e0098c4f4dbfa6714812" target="_top" xlink:title="TpcPrototypeGenFitTrkFitter\l::fill_eval_tree">
<polygon fill="none" stroke="#000000" points="344,-180.5 344,-212.5 501,-212.5 501,-180.5 344,-180.5"/>
<text text-anchor="start" x="352" y="-199.5" font-family="FreeSans" font-size="10.00" fill="#000000">TpcPrototypeGenFitTrkFitter</text>
<text text-anchor="middle" x="422.5" y="-187.5" font-family="FreeSans" font-size="10.00" fill="#000000">::fill_eval_tree</text>
</a>
</g>
</g>
<!-- Node24&#45;&gt;Node25 -->
<g id="edge25" class="edge">
<title>Node24&#45;&gt;Node25</title>
<path fill="none" stroke="#191970" d="M284.8224,-240.3795C290.9659,-238.4051 297.1099,-236.4195 303,-234.5 319.0355,-229.2743 322.9478,-227.674 339,-222.5 349.1156,-219.2395 359.9424,-215.8182 370.3351,-212.5677"/>
<polygon fill="#191970" stroke="#191970" points="283.6599,-237.0766 275.2053,-243.4618 285.7964,-243.7426 283.6599,-237.0766"/>
</g>
<!-- Node26 -->
<g id="node26" class="node">
<title>Node26</title>
<g id="a_node26"><a xlink:href="../../df/dd7/classTpcPrototypeGenFitTrkFitter.html#a8861dffacdf05e47efc97b65adbafe32" target="_top" xlink:title="Process Event, called for each event.">
<polygon fill="none" stroke="#000000" points="542,-180.5 542,-212.5 699,-212.5 699,-180.5 542,-180.5"/>
<text text-anchor="start" x="550" y="-199.5" font-family="FreeSans" font-size="10.00" fill="#000000">TpcPrototypeGenFitTrkFitter</text>
<text text-anchor="middle" x="620.5" y="-187.5" font-family="FreeSans" font-size="10.00" fill="#000000">::process_event</text>
</a>
</g>
</g>
<!-- Node25&#45;&gt;Node26 -->
<g id="edge26" class="edge">
<title>Node25&#45;&gt;Node26</title>
<path fill="none" stroke="#191970" d="M511.162,-196.5C521.3503,-196.5 531.6862,-196.5 541.7318,-196.5"/>
<polygon fill="#191970" stroke="#191970" points="511.0393,-193.0001 501.0392,-196.5 511.0392,-200.0001 511.0393,-193.0001"/>
</g>
<!-- Node31&#45;&gt;Node29 -->
<g id="edge33" class="edge">
<title>Node31&#45;&gt;Node29</title>
<path fill="none" stroke="#191970" d="M300.5065,-34.9258C318.9141,-39.3883 338.4442,-44.1228 356.356,-48.4651"/>
<polygon fill="#191970" stroke="#191970" points="301.2495,-31.5046 290.7064,-32.55 299.6003,-38.3076 301.2495,-31.5046"/>
</g>
</g>
</svg>
