<?xml version="1.0" encoding="UTF-8" standalone="no"?>
<!DOCTYPE svg PUBLIC "-//W3C//DTD SVG 1.1//EN"
 "http://www.w3.org/Graphics/SVG/1.1/DTD/svg11.dtd">
<!-- Generated by graphviz version 2.40.1 (20161225.0304)
 -->
<!-- Title: PHG4Subsystem::GetTrackingAction Pages: 1 -->
<svg width="669pt" height="185pt"
 viewBox="0.00 0.00 669.00 185.00" xmlns="http://www.w3.org/2000/svg" xmlns:xlink="http://www.w3.org/1999/xlink">
<g id="graph0" class="graph" transform="scale(1 1) rotate(0) translate(4 181)">
<title>PHG4Subsystem::GetTrackingAction</title>
<!-- Node1 -->
<g id="node1" class="node">
<title>Node1</title>
<polygon fill="#bfbfbf" stroke="#000000" points="0,-72.5 0,-104.5 167,-104.5 167,-72.5 0,-72.5"/>
<text text-anchor="start" x="8" y="-91.5" font-family="FreeSans" font-size="10.00" fill="#000000">PHG4Subsystem::GetTracking</text>
<text text-anchor="middle" x="83.5" y="-79.5" font-family="FreeSans" font-size="10.00" fill="#000000">Action</text>
</g>
<!-- Node2 -->
<g id="node2" class="node">
<title>Node2</title>
<g id="a_node2"><a xlink:href="../../d0/d78/classPHG4Reco.html#a9d8228ce8682c19cd6be2f6b44ec847b" target="_top" xlink:title="PHG4Reco::InitRun">
<polygon fill="none" stroke="#000000" points="203,-78.5 203,-98.5 313,-98.5 313,-78.5 203,-78.5"/>
<text text-anchor="middle" x="258" y="-85.5" font-family="FreeSans" font-size="10.00" fill="#000000">PHG4Reco::InitRun</text>
</a>
</g>
</g>
<!-- Node1&#45;&gt;Node2 -->
<g id="edge1" class="edge">
<title>Node1&#45;&gt;Node2</title>
<path fill="none" stroke="#191970" d="M177.3581,-88.5C186.0183,-88.5 194.5912,-88.5 202.7328,-88.5"/>
<polygon fill="#191970" stroke="#191970" points="177.1723,-85.0001 167.1723,-88.5 177.1722,-92.0001 177.1723,-85.0001"/>
</g>
<!-- Node3 -->
<g id="node3" class="node">
<title>Node3</title>
<g id="a_node3"><a xlink:href="../../db/d89/ConstructGeometry_8C.html#a21c369835643f1016f506a3da3b8d446" target="_top" xlink:title="ConstructGeometry">
<polygon fill="none" stroke="#000000" points="367.5,-156.5 367.5,-176.5 482.5,-176.5 482.5,-156.5 367.5,-156.5"/>
<text text-anchor="middle" x="425" y="-163.5" font-family="FreeSans" font-size="10.00" fill="#000000">ConstructGeometry</text>
</a>
</g>
</g>
<!-- Node2&#45;&gt;Node3 -->
<g id="edge2" class="edge">
<title>Node2&#45;&gt;Node3</title>
<path fill="none" stroke="#191970" d="M278.9107,-104.937C296.6571,-118.1572 323.2676,-136.3129 349,-147.5 357.1073,-151.0246 365.9972,-153.9843 374.7497,-156.4387"/>
<polygon fill="#191970" stroke="#191970" points="280.5694,-101.8014 270.4901,-98.5366 276.3335,-107.3743 280.5694,-101.8014"/>
</g>
<!-- Node4 -->
<g id="node4" class="node">
<title>Node4</title>
<g id="a_node4"><a xlink:href="../../dd/d76/macros_2blob_2master_2macros_2g4simulations_2DisplayOn_8C.html#a8ac4d6fb78f920957b354f88d6195f54" target="_top" xlink:title="DisplayOn">
<polygon fill="none" stroke="#000000" points="391,-117.5 391,-137.5 459,-137.5 459,-117.5 391,-117.5"/>
<text text-anchor="middle" x="425" y="-124.5" font-family="FreeSans" font-size="10.00" fill="#000000">DisplayOn</text>
</a>
</g>
</g>
<!-- Node2&#45;&gt;Node4 -->
<g id="edge3" class="edge">
<title>Node2&#45;&gt;Node4</title>
<path fill="none" stroke="#191970" d="M310.7794,-100.8257C336.9436,-106.9359 367.784,-114.1382 390.8194,-119.5177"/>
<polygon fill="#191970" stroke="#191970" points="311.5406,-97.4094 301.0066,-98.5435 309.9487,-104.226 311.5406,-97.4094"/>
</g>
<!-- Node7 -->
<g id="node7" class="node">
<title>Node7</title>
<g id="a_node7"><a xlink:href="../../d4/dfa/Fun4All__Generator__Display_8C.html#af87924a94b22e18901f0d64805565f09" target="_top" xlink:title="Fun4All_Generator_Display">
<polygon fill="none" stroke="#000000" points="349,-78.5 349,-98.5 501,-98.5 501,-78.5 349,-78.5"/>
<text text-anchor="middle" x="425" y="-85.5" font-family="FreeSans" font-size="10.00" fill="#000000">Fun4All_Generator_Display</text>
</a>
</g>
</g>
<!-- Node2&#45;&gt;Node7 -->
<g id="edge6" class="edge">
<title>Node2&#45;&gt;Node7</title>
<path fill="none" stroke="#191970" d="M323.2079,-88.5C331.5826,-88.5 340.2155,-88.5 348.7467,-88.5"/>
<polygon fill="#191970" stroke="#191970" points="323.1449,-85.0001 313.1449,-88.5 323.1448,-92.0001 323.1449,-85.0001"/>
</g>
<!-- Node8 -->
<g id="node8" class="node">
<title>Node8</title>
<g id="a_node8"><a xlink:href="../../d9/d1d/matscan_8C.html#a98ccbc6135fead542f3c4d1dd6882d63" target="_top" xlink:title="matscan">
<polygon fill="none" stroke="#000000" points="395.5,-39.5 395.5,-59.5 454.5,-59.5 454.5,-39.5 395.5,-39.5"/>
<text text-anchor="middle" x="425" y="-46.5" font-family="FreeSans" font-size="10.00" fill="#000000">matscan</text>
</a>
</g>
</g>
<!-- Node2&#45;&gt;Node8 -->
<g id="edge7" class="edge">
<title>Node2&#45;&gt;Node8</title>
<path fill="none" stroke="#191970" d="M311.0032,-76.122C338.8568,-69.6173 371.959,-61.8868 395.2971,-56.4366"/>
<polygon fill="#191970" stroke="#191970" points="309.9487,-72.774 301.0066,-78.4565 311.5406,-79.5906 309.9487,-72.774"/>
</g>
<!-- Node9 -->
<g id="node9" class="node">
<title>Node9</title>
<g id="a_node9"><a xlink:href="../../dd/d76/macros_2blob_2master_2macros_2g4simulations_2DisplayOn_8C.html#a36f5cc4ebb7cd23dac7e492d5c38fbc0" target="_top" xlink:title="QTGui">
<polygon fill="none" stroke="#000000" points="401.5,-.5 401.5,-20.5 448.5,-20.5 448.5,-.5 401.5,-.5"/>
<text text-anchor="middle" x="425" y="-7.5" font-family="FreeSans" font-size="10.00" fill="#000000">QTGui</text>
</a>
</g>
</g>
<!-- Node2&#45;&gt;Node9 -->
<g id="edge8" class="edge">
<title>Node2&#45;&gt;Node9</title>
<path fill="none" stroke="#191970" d="M279.2972,-72.2201C297.09,-59.3028 323.5675,-41.6258 349,-30.5 365.8749,-23.1178 386.087,-17.9597 401.4238,-14.7329"/>
<polygon fill="#191970" stroke="#191970" points="276.7925,-69.7195 270.8359,-78.4813 280.9564,-75.3464 276.7925,-69.7195"/>
</g>
<!-- Node5 -->
<g id="node5" class="node">
<title>Node5</title>
<g id="a_node5"><a xlink:href="../../d7/d9e/Fun4All__G4__fsPHENIX_8C.html#af48911d394d2412e817583700f2bbee2" target="_top" xlink:title="Fun4All_G4_fsPHENIX">
<polygon fill="none" stroke="#000000" points="537,-136.5 537,-156.5 661,-156.5 661,-136.5 537,-136.5"/>
<text text-anchor="middle" x="599" y="-143.5" font-family="FreeSans" font-size="10.00" fill="#000000">Fun4All_G4_fsPHENIX</text>
</a>
</g>
</g>
<!-- Node4&#45;&gt;Node5 -->
<g id="edge4" class="edge">
<title>Node4&#45;&gt;Node5</title>
<path fill="none" stroke="#191970" d="M469.3757,-132.3456C489.8742,-134.584 514.5657,-137.2802 536.8748,-139.7162"/>
<polygon fill="#191970" stroke="#191970" points="469.6977,-128.8601 459.3768,-131.2538 468.9378,-135.8187 469.6977,-128.8601"/>
</g>
<!-- Node6 -->
<g id="node6" class="node">
<title>Node6</title>
<g id="a_node6"><a xlink:href="../../d5/d2c/macros_2blob_2master_2macros_2g4simulations_2Fun4All__G4__sPHENIX_8C.html#a6eaaa492d7023ec86c562dc63aa1e5a4" target="_top" xlink:title="Fun4All_G4_sPHENIX">
<polygon fill="none" stroke="#000000" points="538.5,-97.5 538.5,-117.5 659.5,-117.5 659.5,-97.5 538.5,-97.5"/>
<text text-anchor="middle" x="599" y="-104.5" font-family="FreeSans" font-size="10.00" fill="#000000">Fun4All_G4_sPHENIX</text>
</a>
</g>
</g>
<!-- Node4&#45;&gt;Node6 -->
<g id="edge5" class="edge">
<title>Node4&#45;&gt;Node6</title>
<path fill="none" stroke="#191970" d="M469.5622,-122.3779C490.4542,-119.9765 515.6703,-117.0781 538.2749,-114.4799"/>
<polygon fill="#191970" stroke="#191970" points="468.9117,-118.9295 459.3768,-123.5486 469.7111,-125.8838 468.9117,-118.9295"/>
</g>
</g>
</svg>
