<?xml version="1.0" encoding="UTF-8" standalone="no"?>
<!DOCTYPE svg PUBLIC "-//W3C//DTD SVG 1.1//EN"
 "http://www.w3.org/Graphics/SVG/1.1/DTD/svg11.dtd">
<!-- Generated by graphviz version 2.40.1 (20161225.0304)
 -->
<!-- Title: PHG4Subsystem::OverlapCheck Pages: 1 -->
<svg width="702pt" height="725pt"
 viewBox="0.00 0.00 702.00 725.00" xmlns="http://www.w3.org/2000/svg" xmlns:xlink="http://www.w3.org/1999/xlink">
<g id="graph0" class="graph" transform="scale(1 1) rotate(0) translate(4 721)">
<title>PHG4Subsystem::OverlapCheck</title>
<!-- Node1 -->
<g id="node1" class="node">
<title>Node1</title>
<polygon fill="#bfbfbf" stroke="#000000" points="0,-321.5 0,-341.5 178,-341.5 178,-321.5 0,-321.5"/>
<text text-anchor="middle" x="89" y="-328.5" font-family="FreeSans" font-size="10.00" fill="#000000">PHG4Subsystem::OverlapCheck</text>
</g>
<!-- Node2 -->
<g id="node2" class="node">
<title>Node2</title>
<g id="a_node2"><a xlink:href="../../d4/dbc/macros_2blob_2master_2macros_2g4simulations_2G4__Aerogel_8C.html#a400136ba4928234f7c9990b4065328f1" target="_top" xlink:title="AerogelSetup">
<polygon fill="none" stroke="#000000" points="227,-438.5 227,-458.5 312,-458.5 312,-438.5 227,-438.5"/>
<text text-anchor="middle" x="269.5" y="-445.5" font-family="FreeSans" font-size="10.00" fill="#000000">AerogelSetup</text>
</a>
</g>
</g>
<!-- Node1&#45;&gt;Node2 -->
<g id="edge1" class="edge">
<title>Node1&#45;&gt;Node2</title>
<path fill="none" stroke="#191970" d="M106.9113,-348.3849C130.09,-369.4991 172.448,-405.6431 214,-428.5 220.9099,-432.301 228.6841,-435.6248 236.1775,-438.4147"/>
<polygon fill="#191970" stroke="#191970" points="109.2686,-345.7978 99.5453,-341.5898 104.5223,-350.9429 109.2686,-345.7978"/>
</g>
<!-- Node22 -->
<g id="node22" class="node">
<title>Node22</title>
<g id="a_node22"><a xlink:href="../../d3/dc0/macros_2blob_2master_2macros_2g4simulations_2G4__DIRC_8C.html#acbdf429e4e41a2057e053691cc0b4128" target="_top" xlink:title="DIRCSetup">
<polygon fill="none" stroke="#000000" points="234.5,-399.5 234.5,-419.5 304.5,-419.5 304.5,-399.5 234.5,-399.5"/>
<text text-anchor="middle" x="269.5" y="-406.5" font-family="FreeSans" font-size="10.00" fill="#000000">DIRCSetup</text>
</a>
</g>
</g>
<!-- Node1&#45;&gt;Node22 -->
<g id="edge21" class="edge">
<title>Node1&#45;&gt;Node22</title>
<path fill="none" stroke="#191970" d="M118.1029,-345.8963C143.2319,-358.1108 180.647,-375.7841 214,-389.5 222.4303,-392.9669 231.7069,-396.4405 240.2225,-399.4971"/>
<polygon fill="#191970" stroke="#191970" points="119.6291,-342.7466 109.1076,-341.5019 116.5564,-349.0362 119.6291,-342.7466"/>
</g>
<!-- Node23 -->
<g id="node23" class="node">
<title>Node23</title>
<g id="a_node23"><a xlink:href="../../d1/d81/macros_2blob_2master_2macros_2g4simulations_2G4__EEMC_8C.html#a4d3281225ec2eab91dac27095f61eaa3" target="_top" xlink:title="EEMCSetup">
<polygon fill="none" stroke="#000000" points="232.5,-360.5 232.5,-380.5 306.5,-380.5 306.5,-360.5 232.5,-360.5"/>
<text text-anchor="middle" x="269.5" y="-367.5" font-family="FreeSans" font-size="10.00" fill="#000000">EEMCSetup</text>
</a>
</g>
</g>
<!-- Node1&#45;&gt;Node23 -->
<g id="edge23" class="edge">
<title>Node1&#45;&gt;Node23</title>
<path fill="none" stroke="#191970" d="M145.2649,-343.657C173.5998,-349.7792 207.1685,-357.0323 232.2645,-362.4546"/>
<polygon fill="#191970" stroke="#191970" points="145.9969,-340.2344 135.4832,-341.5435 144.5185,-347.0765 145.9969,-340.2344"/>
</g>
<!-- Node24 -->
<g id="node24" class="node">
<title>Node24</title>
<g id="a_node24"><a xlink:href="../../d7/df5/EICAnalysis_2macros_2leptoquarks__fun4all_2G4__FGEM__EIC_8C.html#ac44d1ef8dd3931eed6dd2ae0110ed8d1" target="_top" xlink:title="FGEMSetup">
<polygon fill="none" stroke="#000000" points="232.5,-321.5 232.5,-341.5 306.5,-341.5 306.5,-321.5 232.5,-321.5"/>
<text text-anchor="middle" x="269.5" y="-328.5" font-family="FreeSans" font-size="10.00" fill="#000000">FGEMSetup</text>
</a>
</g>
</g>
<!-- Node1&#45;&gt;Node24 -->
<g id="edge25" class="edge">
<title>Node1&#45;&gt;Node24</title>
<path fill="none" stroke="#191970" d="M188.5202,-331.5C204.1845,-331.5 219.4724,-331.5 232.4694,-331.5"/>
<polygon fill="#191970" stroke="#191970" points="188.1924,-328.0001 178.1924,-331.5 188.1924,-335.0001 188.1924,-328.0001"/>
</g>
<!-- Node25 -->
<g id="node25" class="node">
<title>Node25</title>
<g id="a_node25"><a xlink:href="../../d9/d50/macros_2blob_2master_2macros_2g4simulations_2G4__FHCAL_8C.html#ac9e5dc66d440deeaa29ff8e40e58c532" target="_top" xlink:title="FHCALSetup">
<polygon fill="none" stroke="#000000" points="230,-282.5 230,-302.5 309,-302.5 309,-282.5 230,-282.5"/>
<text text-anchor="middle" x="269.5" y="-289.5" font-family="FreeSans" font-size="10.00" fill="#000000">FHCALSetup</text>
</a>
</g>
</g>
<!-- Node1&#45;&gt;Node25 -->
<g id="edge26" class="edge">
<title>Node1&#45;&gt;Node25</title>
<path fill="none" stroke="#191970" d="M145.3474,-319.3252C172.7847,-313.3969 205.1136,-306.4117 229.9025,-301.0557"/>
<polygon fill="#191970" stroke="#191970" points="144.5185,-315.9235 135.4832,-321.4565 145.9969,-322.7656 144.5185,-315.9235"/>
</g>
<!-- Node26 -->
<g id="node26" class="node">
<title>Node26</title>
<g id="a_node26"><a xlink:href="../../d8/d41/G4__EGEM__EIC_8C.html#ab02e3ec0ae447e560b3a9a6fc25d9243" target="_top" xlink:title="make_GEM_station">
<polygon fill="none" stroke="#000000" points="214,-243.5 214,-263.5 325,-263.5 325,-243.5 214,-243.5"/>
<text text-anchor="middle" x="269.5" y="-250.5" font-family="FreeSans" font-size="10.00" fill="#000000">make_GEM_station</text>
</a>
</g>
</g>
<!-- Node1&#45;&gt;Node26 -->
<g id="edge28" class="edge">
<title>Node1&#45;&gt;Node26</title>
<path fill="none" stroke="#191970" d="M117.5768,-316.8972C142.6543,-304.3526 180.2824,-286.1795 214,-272.5 221.7386,-269.3604 230.2139,-266.2827 238.1601,-263.5494"/>
<polygon fill="#191970" stroke="#191970" points="115.9731,-313.7859 108.6144,-321.4083 119.1203,-320.0385 115.9731,-313.7859"/>
</g>
<!-- Node27 -->
<g id="node27" class="node">
<title>Node27</title>
<g id="a_node27"><a xlink:href="../../d3/dad/macros_2blob_2master_2macros_2g4simulations_2G4__RICH_8C.html#a580dd29b51b210d3a0b426e97b2abb46" target="_top" xlink:title="RICHSetup">
<polygon fill="none" stroke="#000000" points="234.5,-204.5 234.5,-224.5 304.5,-224.5 304.5,-204.5 234.5,-204.5"/>
<text text-anchor="middle" x="269.5" y="-211.5" font-family="FreeSans" font-size="10.00" fill="#000000">RICHSetup</text>
</a>
</g>
</g>
<!-- Node1&#45;&gt;Node27 -->
<g id="edge29" class="edge">
<title>Node1&#45;&gt;Node27</title>
<path fill="none" stroke="#191970" d="M106.8197,-314.3208C129.9026,-292.8631 172.1602,-256.2147 214,-233.5 220.3548,-230.05 227.4537,-227.0522 234.3952,-224.5211"/>
<polygon fill="#191970" stroke="#191970" points="104.3653,-311.8246 99.4868,-321.2294 109.1654,-316.9195 104.3653,-311.8246"/>
</g>
<!-- Node3 -->
<g id="node3" class="node">
<title>Node3</title>
<g id="a_node3"><a xlink:href="../../d2/dfe/macros_2blob_2master_2macros_2g4simulations_2G4Setup__EICDetector_8C.html#a5d4cb2d19366a2ae6d2aefe8d2e4a870" target="_top" xlink:title="G4Setup">
<polygon fill="none" stroke="#000000" points="361,-360.5 361,-380.5 421,-380.5 421,-360.5 361,-360.5"/>
<text text-anchor="middle" x="391" y="-367.5" font-family="FreeSans" font-size="10.00" fill="#000000">G4Setup</text>
</a>
</g>
</g>
<!-- Node2&#45;&gt;Node3 -->
<g id="edge2" class="edge">
<title>Node2&#45;&gt;Node3</title>
<path fill="none" stroke="#191970" d="M313.3526,-434.4747C317.3846,-432.6594 321.3291,-430.6678 325,-428.5 347.592,-415.1589 369.6194,-393.5628 381.6426,-380.8267"/>
<polygon fill="#191970" stroke="#191970" points="311.7792,-431.3377 303.8732,-438.3908 314.452,-437.8074 311.7792,-431.3377"/>
</g>
<!-- Node4 -->
<g id="node4" class="node">
<title>Node4</title>
<g id="a_node4"><a xlink:href="../../d3/d7f/Fun_8C.html#af0d3c8a78765149fef9b2beeecfc6279" target="_top" xlink:title="ConfigureDetectors">
<polygon fill="none" stroke="#000000" points="483.5,-696.5 483.5,-716.5 597.5,-716.5 597.5,-696.5 483.5,-696.5"/>
<text text-anchor="middle" x="540.5" y="-703.5" font-family="FreeSans" font-size="10.00" fill="#000000">ConfigureDetectors</text>
</a>
</g>
</g>
<!-- Node3&#45;&gt;Node4 -->
<g id="edge3" class="edge">
<title>Node3&#45;&gt;Node4</title>
<path fill="none" stroke="#191970" d="M392.4577,-390.8418C397.3809,-453.7895 415.4621,-643.7315 457,-686.5 464.166,-693.8783 473.5352,-698.7322 483.3992,-701.8865"/>
<polygon fill="#191970" stroke="#191970" points="395.9298,-390.339 391.6889,-380.63 388.9496,-390.8646 395.9298,-390.339"/>
</g>
<!-- Node6 -->
<g id="node6" class="node">
<title>Node6</title>
<g id="a_node6"><a xlink:href="../../da/d02/Fun4All__G4__EICDetector_8C.html#afbe82cefa1d1fd031d9a8586b7bb68c6" target="_top" xlink:title="Fun4All_G4_EICDetector">
<polygon fill="none" stroke="#000000" points="471,-657.5 471,-677.5 610,-677.5 610,-657.5 471,-657.5"/>
<text text-anchor="middle" x="540.5" y="-664.5" font-family="FreeSans" font-size="10.00" fill="#000000">Fun4All_G4_EICDetector</text>
</a>
</g>
</g>
<!-- Node3&#45;&gt;Node6 -->
<g id="edge5" class="edge">
<title>Node3&#45;&gt;Node6</title>
<path fill="none" stroke="#191970" d="M393.0739,-390.5594C399.4048,-447.9046 420.317,-610.7735 457,-647.5 461.003,-651.5078 465.6575,-654.7664 470.6817,-657.41"/>
<polygon fill="#191970" stroke="#191970" points="396.5486,-390.1356 392.0018,-380.566 389.5886,-390.8823 396.5486,-390.1356"/>
</g>
<!-- Node7 -->
<g id="node7" class="node">
<title>Node7</title>
<g id="a_node7"><a xlink:href="../../dd/d2a/Fun4All__G4__EICDetector__LQ_8C.html#aaa01242fd6e77ca43a9d49a6d46008e4" target="_top" xlink:title="Fun4All_G4_EICDetector_LQ">
<polygon fill="none" stroke="#000000" points="462.5,-618.5 462.5,-638.5 618.5,-638.5 618.5,-618.5 462.5,-618.5"/>
<text text-anchor="middle" x="540.5" y="-625.5" font-family="FreeSans" font-size="10.00" fill="#000000">Fun4All_G4_EICDetector_LQ</text>
</a>
</g>
</g>
<!-- Node3&#45;&gt;Node7 -->
<g id="edge6" class="edge">
<title>Node3&#45;&gt;Node7</title>
<path fill="none" stroke="#191970" d="M393.8918,-390.4112C401.7691,-441.9372 425.1671,-577.7751 457,-608.5 461.183,-612.5374 466.0294,-615.8088 471.2399,-618.4539"/>
<polygon fill="#191970" stroke="#191970" points="397.3511,-389.8783 392.4113,-380.5056 390.428,-390.9131 397.3511,-389.8783"/>
</g>
<!-- Node8 -->
<g id="node8" class="node">
<title>Node8</title>
<g id="a_node8"><a xlink:href="../../d4/df5/Fun4All__G4__EICDetector__LQ__reference_8C.html#a2feefc472f17f90b3cbe74897d049f75" target="_top" xlink:title="Fun4All_G4_EICDetector\l_LQ_reference">
<polygon fill="none" stroke="#000000" points="471,-567.5 471,-599.5 610,-599.5 610,-567.5 471,-567.5"/>
<text text-anchor="start" x="479" y="-586.5" font-family="FreeSans" font-size="10.00" fill="#000000">Fun4All_G4_EICDetector</text>
<text text-anchor="middle" x="540.5" y="-574.5" font-family="FreeSans" font-size="10.00" fill="#000000">_LQ_reference</text>
</a>
</g>
</g>
<!-- Node3&#45;&gt;Node8 -->
<g id="edge7" class="edge">
<title>Node3&#45;&gt;Node8</title>
<path fill="none" stroke="#191970" d="M392.3789,-391.0457C396.0539,-429.2763 409.3615,-511.612 457,-557.5 461.046,-561.3973 465.6667,-564.7111 470.6114,-567.5288"/>
<polygon fill="#191970" stroke="#191970" points="395.8344,-390.3629 391.5203,-380.6861 388.8583,-390.9411 395.8344,-390.3629"/>
</g>
<!-- Node9 -->
<g id="node9" class="node">
<title>Node9</title>
<g id="a_node9"><a xlink:href="../../d3/d51/Fun4All__G4__EICDetector__RICH_8C.html#a5739502b0a7a1ba782c01069f77e933f" target="_top" xlink:title="Fun4All_G4_EICDetector_RICH">
<polygon fill="none" stroke="#000000" points="457,-528.5 457,-548.5 624,-548.5 624,-528.5 457,-528.5"/>
<text text-anchor="middle" x="540.5" y="-535.5" font-family="FreeSans" font-size="10.00" fill="#000000">Fun4All_G4_EICDetector_RICH</text>
</a>
</g>
</g>
<!-- Node3&#45;&gt;Node9 -->
<g id="edge8" class="edge">
<title>Node3&#45;&gt;Node9</title>
<path fill="none" stroke="#191970" d="M394.159,-390.5756C400.2957,-422.6481 416.9289,-485.2114 457,-518.5 461.8158,-522.5007 467.2989,-525.7269 473.1008,-528.3252"/>
<polygon fill="#191970" stroke="#191970" points="397.584,-389.8434 392.4049,-380.6008 390.6898,-391.0559 397.584,-389.8434"/>
</g>
<!-- Node10 -->
<g id="node10" class="node">
<title>Node10</title>
<g id="a_node10"><a xlink:href="../../d9/d0e/Fun4All__G4__EICIR_8C.html#ac3543d1dd4a0abed3987d40939ee3f87" target="_top" xlink:title="Fun4All_G4_EICIR">
<polygon fill="none" stroke="#000000" points="488.5,-489.5 488.5,-509.5 592.5,-509.5 592.5,-489.5 488.5,-489.5"/>
<text text-anchor="middle" x="540.5" y="-496.5" font-family="FreeSans" font-size="10.00" fill="#000000">Fun4All_G4_EICIR</text>
</a>
</g>
</g>
<!-- Node3&#45;&gt;Node10 -->
<g id="edge9" class="edge">
<title>Node3&#45;&gt;Node10</title>
<path fill="none" stroke="#191970" d="M397.5275,-390.2192C406.7613,-414.9659 426.047,-456.8978 457,-479.5 466.1494,-486.181 477.2255,-490.6578 488.2781,-493.6504"/>
<polygon fill="#191970" stroke="#191970" points="400.8192,-389.0294 394.1809,-380.7721 394.221,-391.3668 400.8192,-389.0294"/>
</g>
<!-- Node11 -->
<g id="node11" class="node">
<title>Node11</title>
<g id="a_node11"><a xlink:href="../../d7/d9e/Fun4All__G4__fsPHENIX_8C.html#af48911d394d2412e817583700f2bbee2" target="_top" xlink:title="Fun4All_G4_fsPHENIX">
<polygon fill="none" stroke="#000000" points="478.5,-450.5 478.5,-470.5 602.5,-470.5 602.5,-450.5 478.5,-450.5"/>
<text text-anchor="middle" x="540.5" y="-457.5" font-family="FreeSans" font-size="10.00" fill="#000000">Fun4All_G4_fsPHENIX</text>
</a>
</g>
</g>
<!-- Node3&#45;&gt;Node11 -->
<g id="edge10" class="edge">
<title>Node3&#45;&gt;Node11</title>
<path fill="none" stroke="#191970" d="M403.7208,-389.164C415.6361,-405.1974 434.8891,-427.6945 457,-440.5 464.0947,-444.6089 471.995,-447.8754 480.0274,-450.4718"/>
<polygon fill="#191970" stroke="#191970" points="406.253,-386.6882 397.5871,-380.5929 400.5605,-390.7619 406.253,-386.6882"/>
</g>
<!-- Node12 -->
<g id="node12" class="node">
<title>Node12</title>
<g id="a_node12"><a xlink:href="../../da/d2f/Fun4All__G4__fsPHENIX__FastSim_8C.html#a66fb850cae5fcaadda23b74a25ce4c9c" target="_top" xlink:title="Fun4All_G4_fsPHENIX\l_FastSim">
<polygon fill="none" stroke="#000000" points="478.5,-399.5 478.5,-431.5 602.5,-431.5 602.5,-399.5 478.5,-399.5"/>
<text text-anchor="start" x="486.5" y="-418.5" font-family="FreeSans" font-size="10.00" fill="#000000">Fun4All_G4_fsPHENIX</text>
<text text-anchor="middle" x="540.5" y="-406.5" font-family="FreeSans" font-size="10.00" fill="#000000">_FastSim</text>
</a>
</g>
</g>
<!-- Node3&#45;&gt;Node12 -->
<g id="edge11" class="edge">
<title>Node3&#45;&gt;Node12</title>
<path fill="none" stroke="#191970" d="M431.0215,-382.5466C448.302,-387.7481 468.7664,-393.9079 487.2985,-399.4862"/>
<polygon fill="#191970" stroke="#191970" points="431.838,-379.1373 421.2536,-379.6064 429.8203,-385.8402 431.838,-379.1373"/>
</g>
<!-- Node13 -->
<g id="node13" class="node">
<title>Node13</title>
<g id="a_node13"><a xlink:href="../../d0/da6/Fun4All__G4__fsPHENIX__pi0_8C.html#a023d91d47b678e5d7f1751834aa517c6" target="_top" xlink:title="Fun4All_G4_fsPHENIX_pi0">
<polygon fill="none" stroke="#000000" points="468,-360.5 468,-380.5 613,-380.5 613,-360.5 468,-360.5"/>
<text text-anchor="middle" x="540.5" y="-367.5" font-family="FreeSans" font-size="10.00" fill="#000000">Fun4All_G4_fsPHENIX_pi0</text>
</a>
</g>
</g>
<!-- Node3&#45;&gt;Node13 -->
<g id="edge12" class="edge">
<title>Node3&#45;&gt;Node13</title>
<path fill="none" stroke="#191970" d="M431.2574,-370.5C442.6119,-370.5 455.3264,-370.5 467.9568,-370.5"/>
<polygon fill="#191970" stroke="#191970" points="431.2536,-367.0001 421.2536,-370.5 431.2535,-374.0001 431.2536,-367.0001"/>
</g>
<!-- Node14 -->
<g id="node14" class="node">
<title>Node14</title>
<g id="a_node14"><a xlink:href="../../d5/d2c/macros_2blob_2master_2macros_2g4simulations_2Fun4All__G4__sPHENIX_8C.html#a6eaaa492d7023ec86c562dc63aa1e5a4" target="_top" xlink:title="Fun4All_G4_sPHENIX">
<polygon fill="none" stroke="#000000" points="480,-321.5 480,-341.5 601,-341.5 601,-321.5 480,-321.5"/>
<text text-anchor="middle" x="540.5" y="-328.5" font-family="FreeSans" font-size="10.00" fill="#000000">Fun4All_G4_sPHENIX</text>
</a>
</g>
</g>
<!-- Node3&#45;&gt;Node14 -->
<g id="edge13" class="edge">
<title>Node3&#45;&gt;Node14</title>
<path fill="none" stroke="#191970" d="M430.8989,-357.9156C439.4772,-355.3486 448.5151,-352.7479 457,-350.5 468.7844,-347.3779 481.5866,-344.3065 493.5454,-341.5736"/>
<polygon fill="#191970" stroke="#191970" points="429.6524,-354.6362 421.1005,-360.8904 431.686,-361.3343 429.6524,-354.6362"/>
</g>
<!-- Node15 -->
<g id="node15" class="node">
<title>Node15</title>
<g id="a_node15"><a xlink:href="../../d3/de2/Fun4All__G4__sPHENIX__AnaGenFit_8C.html#a9bf3f2f72ed69a17e2d0c1121d48013c" target="_top" xlink:title="Fun4All_G4_sPHENIX\l_AnaGenFit">
<polygon fill="none" stroke="#000000" points="480,-270.5 480,-302.5 601,-302.5 601,-270.5 480,-270.5"/>
<text text-anchor="start" x="488" y="-289.5" font-family="FreeSans" font-size="10.00" fill="#000000">Fun4All_G4_sPHENIX</text>
<text text-anchor="middle" x="540.5" y="-277.5" font-family="FreeSans" font-size="10.00" fill="#000000">_AnaGenFit</text>
</a>
</g>
</g>
<!-- Node3&#45;&gt;Node15 -->
<g id="edge14" class="edge">
<title>Node3&#45;&gt;Node15</title>
<path fill="none" stroke="#191970" d="M406.7303,-352.734C419.1939,-339.6473 437.6741,-322.3147 457,-311.5 464.1309,-307.5096 471.9687,-304.0903 479.898,-301.1786"/>
<polygon fill="#191970" stroke="#191970" points="404.0119,-350.5185 399.7936,-360.2374 409.152,-355.2704 404.0119,-350.5185"/>
</g>
<!-- Node16 -->
<g id="node16" class="node">
<title>Node16</title>
<g id="a_node16"><a xlink:href="../../da/dd0/Fun4All__G4__sPHENIX__photonjet_8C.html#a6f18519e216acc05399e562ea57ea77c" target="_top" xlink:title="Fun4All_G4_sPHENIX\l_photonjet">
<polygon fill="none" stroke="#000000" points="480,-219.5 480,-251.5 601,-251.5 601,-219.5 480,-219.5"/>
<text text-anchor="start" x="488" y="-238.5" font-family="FreeSans" font-size="10.00" fill="#000000">Fun4All_G4_sPHENIX</text>
<text text-anchor="middle" x="540.5" y="-226.5" font-family="FreeSans" font-size="10.00" fill="#000000">_photonjet</text>
</a>
</g>
</g>
<!-- Node3&#45;&gt;Node16 -->
<g id="edge15" class="edge">
<title>Node3&#45;&gt;Node16</title>
<path fill="none" stroke="#191970" d="M397.6801,-350.8716C407.076,-326.1865 426.5337,-284.1764 457,-260.5 463.8106,-255.2072 471.728,-251.032 479.9216,-247.7391"/>
<polygon fill="#191970" stroke="#191970" points="394.3849,-349.6921 394.2666,-360.2862 400.9657,-352.0781 394.3849,-349.6921"/>
</g>
<!-- Node17 -->
<g id="node17" class="node">
<title>Node17</title>
<g id="a_node17"><a xlink:href="../../da/d85/Fun4All__G4__sPHENIX__photons_8C.html#a02fbbd59878fe1299f58ed187e7214ba" target="_top" xlink:title="Fun4All_G4_sPHENIX\l_photons">
<polygon fill="none" stroke="#000000" points="480,-168.5 480,-200.5 601,-200.5 601,-168.5 480,-168.5"/>
<text text-anchor="start" x="488" y="-187.5" font-family="FreeSans" font-size="10.00" fill="#000000">Fun4All_G4_sPHENIX</text>
<text text-anchor="middle" x="540.5" y="-175.5" font-family="FreeSans" font-size="10.00" fill="#000000">_photons</text>
</a>
</g>
</g>
<!-- Node3&#45;&gt;Node17 -->
<g id="edge16" class="edge">
<title>Node3&#45;&gt;Node17</title>
<path fill="none" stroke="#191970" d="M393.6091,-350.4063C399.0891,-316.4243 414.9709,-247.5944 457,-209.5 463.503,-203.6058 471.3455,-199.0991 479.5866,-195.6538"/>
<polygon fill="#191970" stroke="#191970" points="390.117,-350.0974 392.1266,-360.4999 397.0427,-351.1146 390.117,-350.0974"/>
</g>
<!-- Node18 -->
<g id="node18" class="node">
<title>Node18</title>
<g id="a_node18"><a xlink:href="../../de/d55/Fun4All__G4__sPHENIX__truthphotonjet_8C.html#a48a6f4503eaa1b3793d8ae572aa795b9" target="_top" xlink:title="Fun4All_G4_sPHENIX\l_truthphotonjet">
<polygon fill="none" stroke="#000000" points="480,-117.5 480,-149.5 601,-149.5 601,-117.5 480,-117.5"/>
<text text-anchor="start" x="488" y="-136.5" font-family="FreeSans" font-size="10.00" fill="#000000">Fun4All_G4_sPHENIX</text>
<text text-anchor="middle" x="540.5" y="-124.5" font-family="FreeSans" font-size="10.00" fill="#000000">_truthphotonjet</text>
</a>
</g>
</g>
<!-- Node3&#45;&gt;Node18 -->
<g id="edge17" class="edge">
<title>Node3&#45;&gt;Node18</title>
<path fill="none" stroke="#191970" d="M394.7732,-350.3624C404.0444,-302.9055 429.218,-185.9807 457,-158.5 463.455,-152.115 471.471,-147.3497 479.9617,-143.7955"/>
<polygon fill="#191970" stroke="#191970" points="391.3031,-349.8745 392.8569,-360.3548 398.1778,-351.193 391.3031,-349.8745"/>
</g>
<!-- Node19 -->
<g id="node19" class="node">
<title>Node19</title>
<g id="a_node19"><a xlink:href="../../d4/d65/Fun4All__single__particle_8C.html#a8a492b5dbead494bfdddbebde8a49b0e" target="_top" xlink:title="Fun4All_single_particle">
<polygon fill="none" stroke="#000000" points="474.5,-78.5 474.5,-98.5 606.5,-98.5 606.5,-78.5 474.5,-78.5"/>
<text text-anchor="middle" x="540.5" y="-85.5" font-family="FreeSans" font-size="10.00" fill="#000000">Fun4All_single_particle</text>
</a>
</g>
</g>
<!-- Node3&#45;&gt;Node19 -->
<g id="edge18" class="edge">
<title>Node3&#45;&gt;Node19</title>
<path fill="none" stroke="#191970" d="M393.3374,-350.3423C400.174,-294.8774 421.8945,-141.8368 457,-107.5 461.9953,-102.6141 467.9709,-98.8818 474.3985,-96.0442"/>
<polygon fill="#191970" stroke="#191970" points="389.8534,-349.9998 392.1368,-360.3457 396.8036,-350.834 389.8534,-349.9998"/>
</g>
<!-- Node20 -->
<g id="node20" class="node">
<title>Node20</title>
<g id="a_node20"><a xlink:href="../../d0/d99/Jin__BJet_8C.html#a36169bfee2ed7efda633944d12aebad9" target="_top" xlink:title="Jin_BJet">
<polygon fill="none" stroke="#000000" points="513,-39.5 513,-59.5 568,-59.5 568,-39.5 513,-39.5"/>
<text text-anchor="middle" x="540.5" y="-46.5" font-family="FreeSans" font-size="10.00" fill="#000000">Jin_BJet</text>
</a>
</g>
</g>
<!-- Node3&#45;&gt;Node20 -->
<g id="edge19" class="edge">
<title>Node3&#45;&gt;Node20</title>
<path fill="none" stroke="#191970" d="M392.6409,-350.2505C397.997,-289.2346 416.9758,-108.8688 457,-68.5 471.4451,-53.9305 494.5807,-49.5476 512.8398,-48.6025"/>
<polygon fill="#191970" stroke="#191970" points="389.1301,-350.2312 391.7731,-360.4911 396.1051,-350.8224 389.1301,-350.2312"/>
</g>
<!-- Node21 -->
<g id="node21" class="node">
<title>Node21</title>
<g id="a_node21"><a xlink:href="../../dd/db1/Wrapper_8cxx.html#abf1e42281903daa0752c80dd6c879fac" target="_top" xlink:title="Wrapper">
<polygon fill="none" stroke="#000000" points="510.5,-.5 510.5,-20.5 570.5,-20.5 570.5,-.5 510.5,-.5"/>
<text text-anchor="middle" x="540.5" y="-7.5" font-family="FreeSans" font-size="10.00" fill="#000000">Wrapper</text>
</a>
</g>
</g>
<!-- Node3&#45;&gt;Node21 -->
<g id="edge20" class="edge">
<title>Node3&#45;&gt;Node21</title>
<path fill="none" stroke="#191970" d="M392.0901,-350.2645C396.068,-284.1352 412.0024,-75.9867 457,-29.5 470.649,-15.3993 492.4225,-10.7885 510.3133,-9.63"/>
<polygon fill="#191970" stroke="#191970" points="388.5954,-350.0726 391.5164,-360.2568 395.5839,-350.4739 388.5954,-350.0726"/>
</g>
<!-- Node5 -->
<g id="node5" class="node">
<title>Node5</title>
<g id="a_node5"><a xlink:href="../../d3/d7f/Fun_8C.html#af69a3eef3ff244bb51f5740c6ecb5432" target="_top" xlink:title="Fun">
<polygon fill="none" stroke="#000000" points="660,-696.5 660,-716.5 694,-716.5 694,-696.5 660,-696.5"/>
<text text-anchor="middle" x="677" y="-703.5" font-family="FreeSans" font-size="10.00" fill="#000000">Fun</text>
</a>
</g>
</g>
<!-- Node4&#45;&gt;Node5 -->
<g id="edge4" class="edge">
<title>Node4&#45;&gt;Node5</title>
<path fill="none" stroke="#191970" d="M607.6941,-706.5C627.0852,-706.5 646.59,-706.5 659.9452,-706.5"/>
<polygon fill="#191970" stroke="#191970" points="607.5974,-703.0001 597.5974,-706.5 607.5974,-710.0001 607.5974,-703.0001"/>
</g>
<!-- Node22&#45;&gt;Node3 -->
<g id="edge22" class="edge">
<title>Node22&#45;&gt;Node3</title>
<path fill="none" stroke="#191970" d="M310.6613,-396.2877C327.0369,-391.0314 345.539,-385.0924 360.6563,-380.24"/>
<polygon fill="#191970" stroke="#191970" points="309.2411,-393.0676 300.7893,-399.4565 311.3805,-399.7327 309.2411,-393.0676"/>
</g>
<!-- Node23&#45;&gt;Node3 -->
<g id="edge24" class="edge">
<title>Node23&#45;&gt;Node3</title>
<path fill="none" stroke="#191970" d="M316.6232,-370.5C331.4092,-370.5 347.3308,-370.5 360.6343,-370.5"/>
<polygon fill="#191970" stroke="#191970" points="316.6142,-367.0001 306.6142,-370.5 316.6142,-374.0001 316.6142,-367.0001"/>
</g>
<!-- Node25&#45;&gt;Node3 -->
<g id="edge27" class="edge">
<title>Node25&#45;&gt;Node3</title>
<path fill="none" stroke="#191970" d="M314.9699,-306.3581C318.4409,-307.9287 321.825,-309.6412 325,-311.5 348.0784,-325.0111 370.2749,-347.4121 382.1268,-360.3765"/>
<polygon fill="#191970" stroke="#191970" points="316.2427,-303.0972 305.6631,-302.5295 313.5796,-309.5708 316.2427,-303.0972"/>
</g>
<!-- Node27&#45;&gt;Node3 -->
<g id="edge30" class="edge">
<title>Node27&#45;&gt;Node3</title>
<path fill="none" stroke="#191970" d="M314.095,-226.0714C318.0271,-228.1555 321.7436,-230.6101 325,-233.5 365.2823,-269.2491 383.2753,-335.0194 388.923,-360.2636"/>
<polygon fill="#191970" stroke="#191970" points="315.2017,-222.7326 304.6437,-221.8506 312.3473,-229.1242 315.2017,-222.7326"/>
</g>
</g>
</svg>
