<?xml version="1.0" encoding="UTF-8" standalone="no"?>
<!DOCTYPE svg PUBLIC "-//W3C//DTD SVG 1.1//EN"
 "http://www.w3.org/Graphics/SVG/1.1/DTD/svg11.dtd">
<!-- Generated by graphviz version 2.40.1 (20161225.0304)
 -->
<!-- Title: Fun4AllInputManager::AddListFile Pages: 1 -->
<svg width="345pt" height="674pt"
 viewBox="0.00 0.00 345.00 674.00" xmlns="http://www.w3.org/2000/svg" xmlns:xlink="http://www.w3.org/1999/xlink">
<g id="graph0" class="graph" transform="scale(1 1) rotate(0) translate(4 670)">
<title>Fun4AllInputManager::AddListFile</title>
<!-- Node1 -->
<g id="node1" class="node">
<title>Node1</title>
<polygon fill="#bfbfbf" stroke="#000000" points="0,-298.5 0,-330.5 125,-330.5 125,-298.5 0,-298.5"/>
<text text-anchor="start" x="8" y="-317.5" font-family="FreeSans" font-size="10.00" fill="#000000">Fun4AllInputManager</text>
<text text-anchor="middle" x="62.5" y="-305.5" font-family="FreeSans" font-size="10.00" fill="#000000">::AddListFile</text>
</g>
<!-- Node2 -->
<g id="node2" class="node">
<title>Node2</title>
<g id="a_node2"><a xlink:href="../../de/dc8/Fun4All__EMCalLikelihood_8C.html#a209f0d5788c9d3adba2967f194bca64a" target="_top" xlink:title="Fun4All_EMCalLikelihood">
<polygon fill="none" stroke="#000000" points="178.5,-645.5 178.5,-665.5 319.5,-665.5 319.5,-645.5 178.5,-645.5"/>
<text text-anchor="middle" x="249" y="-652.5" font-family="FreeSans" font-size="10.00" fill="#000000">Fun4All_EMCalLikelihood</text>
</a>
</g>
</g>
<!-- Node1&#45;&gt;Node2 -->
<g id="edge1" class="edge">
<title>Node1&#45;&gt;Node2</title>
<path fill="none" stroke="#191970" d="M67.0612,-340.9452C79.5702,-410.4202 116.4679,-595.5687 161,-636.5 166.0633,-641.1538 171.9856,-644.7692 178.3222,-647.5656"/>
<polygon fill="#191970" stroke="#191970" points="70.4593,-340.0624 65.2655,-330.8279 63.567,-341.2857 70.4593,-340.0624"/>
</g>
<!-- Node3 -->
<g id="node3" class="node">
<title>Node3</title>
<g id="a_node3"><a xlink:href="../../d7/d9e/Fun4All__G4__fsPHENIX_8C.html#af48911d394d2412e817583700f2bbee2" target="_top" xlink:title="Fun4All_G4_fsPHENIX">
<polygon fill="none" stroke="#000000" points="187,-606.5 187,-626.5 311,-626.5 311,-606.5 187,-606.5"/>
<text text-anchor="middle" x="249" y="-613.5" font-family="FreeSans" font-size="10.00" fill="#000000">Fun4All_G4_fsPHENIX</text>
</a>
</g>
</g>
<!-- Node1&#45;&gt;Node3 -->
<g id="edge2" class="edge">
<title>Node1&#45;&gt;Node3</title>
<path fill="none" stroke="#191970" d="M68.1813,-340.6991C82.4143,-403.9529 121.3113,-562.3908 161,-597.5 168.3752,-604.0242 177.4499,-608.488 186.941,-611.5103"/>
<polygon fill="#191970" stroke="#191970" points="71.5496,-339.7217 65.9634,-330.7192 64.7163,-341.2404 71.5496,-339.7217"/>
</g>
<!-- Node4 -->
<g id="node4" class="node">
<title>Node4</title>
<g id="a_node4"><a xlink:href="../../d0/da6/Fun4All__G4__fsPHENIX__pi0_8C.html#a023d91d47b678e5d7f1751834aa517c6" target="_top" xlink:title="Fun4All_G4_fsPHENIX_pi0">
<polygon fill="none" stroke="#000000" points="176.5,-567.5 176.5,-587.5 321.5,-587.5 321.5,-567.5 176.5,-567.5"/>
<text text-anchor="middle" x="249" y="-574.5" font-family="FreeSans" font-size="10.00" fill="#000000">Fun4All_G4_fsPHENIX_pi0</text>
</a>
</g>
</g>
<!-- Node1&#45;&gt;Node4 -->
<g id="edge3" class="edge">
<title>Node1&#45;&gt;Node4</title>
<path fill="none" stroke="#191970" d="M65.1273,-340.6284C71.6463,-390.9747 93.286,-501.4793 161,-558.5 165.5431,-562.3257 170.6765,-565.4342 176.1247,-567.9543"/>
<polygon fill="#191970" stroke="#191970" points="68.5864,-340.0764 63.9244,-330.5624 61.6358,-340.9071 68.5864,-340.0764"/>
</g>
<!-- Node5 -->
<g id="node5" class="node">
<title>Node5</title>
<g id="a_node5"><a xlink:href="../../d5/d2c/macros_2blob_2master_2macros_2g4simulations_2Fun4All__G4__sPHENIX_8C.html#a6eaaa492d7023ec86c562dc63aa1e5a4" target="_top" xlink:title="Fun4All_G4_sPHENIX">
<polygon fill="none" stroke="#000000" points="188.5,-528.5 188.5,-548.5 309.5,-548.5 309.5,-528.5 188.5,-528.5"/>
<text text-anchor="middle" x="249" y="-535.5" font-family="FreeSans" font-size="10.00" fill="#000000">Fun4All_G4_sPHENIX</text>
</a>
</g>
</g>
<!-- Node1&#45;&gt;Node5 -->
<g id="edge4" class="edge">
<title>Node1&#45;&gt;Node5</title>
<path fill="none" stroke="#191970" d="M67.3197,-340.4791C76.913,-384.523 102.7121,-473.5331 161,-519.5 168.9772,-525.791 178.5768,-530.1123 188.4605,-533.0584"/>
<polygon fill="#191970" stroke="#191970" points="70.7194,-339.6357 65.2681,-330.5509 63.8643,-341.0524 70.7194,-339.6357"/>
</g>
<!-- Node6 -->
<g id="node6" class="node">
<title>Node6</title>
<g id="a_node6"><a xlink:href="../../da/dd0/Fun4All__G4__sPHENIX__photonjet_8C.html#a6f18519e216acc05399e562ea57ea77c" target="_top" xlink:title="Fun4All_G4_sPHENIX\l_photonjet">
<polygon fill="none" stroke="#000000" points="188.5,-477.5 188.5,-509.5 309.5,-509.5 309.5,-477.5 188.5,-477.5"/>
<text text-anchor="start" x="196.5" y="-496.5" font-family="FreeSans" font-size="10.00" fill="#000000">Fun4All_G4_sPHENIX</text>
<text text-anchor="middle" x="249" y="-484.5" font-family="FreeSans" font-size="10.00" fill="#000000">_photonjet</text>
</a>
</g>
</g>
<!-- Node1&#45;&gt;Node6 -->
<g id="edge5" class="edge">
<title>Node1&#45;&gt;Node6</title>
<path fill="none" stroke="#191970" d="M72.0748,-340.1206C86.2338,-374.4914 116.0276,-435.0664 161,-468.5 169.03,-474.4697 178.4372,-479.0152 188.0574,-482.476"/>
<polygon fill="#191970" stroke="#191970" points="75.2964,-338.75 68.3393,-330.7594 68.7949,-341.3444 75.2964,-338.75"/>
</g>
<!-- Node7 -->
<g id="node7" class="node">
<title>Node7</title>
<g id="a_node7"><a xlink:href="../../da/d85/Fun4All__G4__sPHENIX__photons_8C.html#a02fbbd59878fe1299f58ed187e7214ba" target="_top" xlink:title="Fun4All_G4_sPHENIX\l_photons">
<polygon fill="none" stroke="#000000" points="188.5,-426.5 188.5,-458.5 309.5,-458.5 309.5,-426.5 188.5,-426.5"/>
<text text-anchor="start" x="196.5" y="-445.5" font-family="FreeSans" font-size="10.00" fill="#000000">Fun4All_G4_sPHENIX</text>
<text text-anchor="middle" x="249" y="-433.5" font-family="FreeSans" font-size="10.00" fill="#000000">_photons</text>
</a>
</g>
</g>
<!-- Node1&#45;&gt;Node7 -->
<g id="edge6" class="edge">
<title>Node1&#45;&gt;Node7</title>
<path fill="none" stroke="#191970" d="M79.5533,-338.7256C97.3085,-362.1964 127.2135,-397.1433 161,-417.5 169.2984,-422.4999 178.6385,-426.5364 188.0528,-429.7849"/>
<polygon fill="#191970" stroke="#191970" points="82.3377,-336.6043 73.577,-330.646 76.7099,-340.767 82.3377,-336.6043"/>
</g>
<!-- Node8 -->
<g id="node8" class="node">
<title>Node8</title>
<g id="a_node8"><a xlink:href="../../de/d55/Fun4All__G4__sPHENIX__truthphotonjet_8C.html#a48a6f4503eaa1b3793d8ae572aa795b9" target="_top" xlink:title="Fun4All_G4_sPHENIX\l_truthphotonjet">
<polygon fill="none" stroke="#000000" points="188.5,-375.5 188.5,-407.5 309.5,-407.5 309.5,-375.5 188.5,-375.5"/>
<text text-anchor="start" x="196.5" y="-394.5" font-family="FreeSans" font-size="10.00" fill="#000000">Fun4All_G4_sPHENIX</text>
<text text-anchor="middle" x="249" y="-382.5" font-family="FreeSans" font-size="10.00" fill="#000000">_truthphotonjet</text>
</a>
</g>
</g>
<!-- Node1&#45;&gt;Node8 -->
<g id="edge7" class="edge">
<title>Node1&#45;&gt;Node8</title>
<path fill="none" stroke="#191970" d="M98.2324,-335.684C116.5619,-345.9469 139.5034,-357.8824 161,-366.5 169.6977,-369.9867 179.0605,-373.1942 188.3199,-376.0659"/>
<polygon fill="#191970" stroke="#191970" points="99.7904,-332.5438 89.3662,-330.6495 96.3339,-338.6309 99.7904,-332.5438"/>
</g>
<!-- Node9 -->
<g id="node9" class="node">
<title>Node9</title>
<g id="a_node9"><a xlink:href="../../d2/dae/Fun4All__TestBeam__HCAL__SampleFrac_8C.html#a3019c26e30442286874f351097a1be16" target="_top" xlink:title="Fun4All_TestBeam_HCAL\l_SampleFrac">
<polygon fill="none" stroke="#000000" points="179,-324.5 179,-356.5 319,-356.5 319,-324.5 179,-324.5"/>
<text text-anchor="start" x="187" y="-343.5" font-family="FreeSans" font-size="10.00" fill="#000000">Fun4All_TestBeam_HCAL</text>
<text text-anchor="middle" x="249" y="-331.5" font-family="FreeSans" font-size="10.00" fill="#000000">_SampleFrac</text>
</a>
</g>
</g>
<!-- Node1&#45;&gt;Node9 -->
<g id="edge8" class="edge">
<title>Node1&#45;&gt;Node9</title>
<path fill="none" stroke="#191970" d="M135.3868,-324.6612C149.6767,-326.6533 164.6373,-328.739 178.8359,-330.7184"/>
<polygon fill="#191970" stroke="#191970" points="135.5081,-321.1443 125.1206,-323.23 134.5415,-328.0773 135.5081,-321.1443"/>
</g>
<!-- Node10 -->
<g id="node10" class="node">
<title>Node10</title>
<g id="a_node10"><a xlink:href="../../d6/dc1/Fun4All__TestBeam__HCAL__TowerCalib_8C.html#a3998d1d20dbf4cc761c04692c060e081" target="_top" xlink:title="Fun4All_TestBeam_HCAL\l_TowerCalib">
<polygon fill="none" stroke="#000000" points="179,-273.5 179,-305.5 319,-305.5 319,-273.5 179,-273.5"/>
<text text-anchor="start" x="187" y="-292.5" font-family="FreeSans" font-size="10.00" fill="#000000">Fun4All_TestBeam_HCAL</text>
<text text-anchor="middle" x="249" y="-280.5" font-family="FreeSans" font-size="10.00" fill="#000000">_TowerCalib</text>
</a>
</g>
</g>
<!-- Node1&#45;&gt;Node10 -->
<g id="edge9" class="edge">
<title>Node1&#45;&gt;Node10</title>
<path fill="none" stroke="#191970" d="M135.3868,-304.7296C149.6767,-302.8141 164.6373,-300.8087 178.8359,-298.9054"/>
<polygon fill="#191970" stroke="#191970" points="134.5669,-301.3082 125.1206,-306.1058 135.497,-308.2461 134.5669,-301.3082"/>
</g>
<!-- Node11 -->
<g id="node11" class="node">
<title>Node11</title>
<g id="a_node11"><a xlink:href="../../d6/dfd/Prototype2_2EMCal_2macros_2Fun4All__TestBeam__ShowerCalib_8C.html#a8380c0c3880f8e24172bce9ba834af7e" target="_top" xlink:title="Fun4All_TestBeam_ShowerCalib">
<polygon fill="none" stroke="#000000" points="161,-234.5 161,-254.5 337,-254.5 337,-234.5 161,-234.5"/>
<text text-anchor="middle" x="249" y="-241.5" font-family="FreeSans" font-size="10.00" fill="#000000">Fun4All_TestBeam_ShowerCalib</text>
</a>
</g>
</g>
<!-- Node1&#45;&gt;Node11 -->
<g id="edge10" class="edge">
<title>Node1&#45;&gt;Node11</title>
<path fill="none" stroke="#191970" d="M98.7856,-293.3699C116.9849,-283.481 139.6497,-272.2113 161,-264.5 171.7571,-260.6148 183.5349,-257.3191 194.8766,-254.5926"/>
<polygon fill="#191970" stroke="#191970" points="96.7645,-290.4879 89.7061,-298.3891 100.1512,-296.6141 96.7645,-290.4879"/>
</g>
<!-- Node12 -->
<g id="node12" class="node">
<title>Node12</title>
<g id="a_node12"><a xlink:href="../../dc/d81/condor_2MakeShowerSize_8C.html#a725a09873df2005bf77ed0cf52eca694" target="_top" xlink:title="MakeShowerSize">
<polygon fill="none" stroke="#000000" points="198.5,-195.5 198.5,-215.5 299.5,-215.5 299.5,-195.5 198.5,-195.5"/>
<text text-anchor="middle" x="249" y="-202.5" font-family="FreeSans" font-size="10.00" fill="#000000">MakeShowerSize</text>
</a>
</g>
</g>
<!-- Node1&#45;&gt;Node12 -->
<g id="edge11" class="edge">
<title>Node1&#45;&gt;Node12</title>
<path fill="none" stroke="#191970" d="M82.4065,-290.6565C100.7403,-270.269 129.7641,-241.727 161,-225.5 172.4006,-219.5774 185.5265,-215.3969 198.1028,-212.4502"/>
<polygon fill="#191970" stroke="#191970" points="79.6641,-288.4751 75.6904,-298.2965 84.9215,-293.0968 79.6641,-288.4751"/>
</g>
<!-- Node13 -->
<g id="node13" class="node">
<title>Node13</title>
<g id="a_node13"><a xlink:href="../../de/da9/ReadClustersRunTracking_8C.html#ae0216e7ee610ee6cb8ebc2392d00431b" target="_top" xlink:title="ReadClustersRunTracking">
<polygon fill="none" stroke="#000000" points="177,-156.5 177,-176.5 321,-176.5 321,-156.5 177,-156.5"/>
<text text-anchor="middle" x="249" y="-163.5" font-family="FreeSans" font-size="10.00" fill="#000000">ReadClustersRunTracking</text>
</a>
</g>
</g>
<!-- Node1&#45;&gt;Node13 -->
<g id="edge12" class="edge">
<title>Node1&#45;&gt;Node13</title>
<path fill="none" stroke="#191970" d="M75.0922,-288.9985C90.9756,-259.5896 121.1054,-212.0259 161,-186.5 167.3347,-182.4469 174.3876,-179.2106 181.6667,-176.6272"/>
<polygon fill="#191970" stroke="#191970" points="71.8022,-287.7362 70.2583,-298.2179 78.0017,-290.9868 71.8022,-287.7362"/>
</g>
<!-- Node14 -->
<g id="node14" class="node">
<title>Node14</title>
<g id="a_node14"><a xlink:href="../../d6/d5d/RunBDiJetModule_8C.html#a554fde97a26ea668bc2f32b294103192" target="_top" xlink:title="RunBDiJetModule">
<polygon fill="none" stroke="#000000" points="197.5,-117.5 197.5,-137.5 300.5,-137.5 300.5,-117.5 197.5,-117.5"/>
<text text-anchor="middle" x="249" y="-124.5" font-family="FreeSans" font-size="10.00" fill="#000000">RunBDiJetModule</text>
</a>
</g>
</g>
<!-- Node1&#45;&gt;Node14 -->
<g id="edge13" class="edge">
<title>Node1&#45;&gt;Node14</title>
<path fill="none" stroke="#191970" d="M70.3391,-288.8572C83.0804,-251.6755 111.9236,-183.3339 161,-147.5 171.5023,-139.8316 184.4448,-135.0333 197.1414,-132.0502"/>
<polygon fill="#191970" stroke="#191970" points="66.9787,-287.872 67.169,-298.4651 73.6262,-290.0654 66.9787,-287.872"/>
</g>
<!-- Node15 -->
<g id="node15" class="node">
<title>Node15</title>
<g id="a_node15"><a xlink:href="../../d0/df6/RunBJetModule_8C.html#a1f9a3833ba8496c693bb4448e7bf4bb7" target="_top" xlink:title="RunBJetModule">
<polygon fill="none" stroke="#000000" points="203,-78.5 203,-98.5 295,-98.5 295,-78.5 203,-78.5"/>
<text text-anchor="middle" x="249" y="-85.5" font-family="FreeSans" font-size="10.00" fill="#000000">RunBJetModule</text>
</a>
</g>
</g>
<!-- Node1&#45;&gt;Node15 -->
<g id="edge14" class="edge">
<title>Node1&#45;&gt;Node15</title>
<path fill="none" stroke="#191970" d="M67.3332,-288.4639C76.9469,-244.3105 102.7759,-155.0206 161,-108.5 172.7506,-99.1114 188.0632,-93.9517 202.614,-91.1696"/>
<polygon fill="#191970" stroke="#191970" points="63.8729,-287.9144 65.2768,-298.4158 70.7281,-289.3309 63.8729,-287.9144"/>
</g>
<!-- Node16 -->
<g id="node16" class="node">
<title>Node16</title>
<g id="a_node16"><a xlink:href="../../d2/ddd/RunGenFitTrackProp_8C.html#abdf5ca8118c5634cd93315758e746033" target="_top" xlink:title="RunGenFitTrackProp">
<polygon fill="none" stroke="#000000" points="190.5,-39.5 190.5,-59.5 307.5,-59.5 307.5,-39.5 190.5,-39.5"/>
<text text-anchor="middle" x="249" y="-46.5" font-family="FreeSans" font-size="10.00" fill="#000000">RunGenFitTrackProp</text>
</a>
</g>
</g>
<!-- Node1&#45;&gt;Node16 -->
<g id="edge15" class="edge">
<title>Node1&#45;&gt;Node16</title>
<path fill="none" stroke="#191970" d="M65.1474,-288.3323C71.7012,-237.8978 93.3991,-127.1369 161,-69.5 169.3456,-62.3845 179.7068,-57.665 190.3573,-54.5631"/>
<polygon fill="#191970" stroke="#191970" points="61.6539,-288.0692 63.9372,-298.4151 68.604,-288.9035 61.6539,-288.0692"/>
</g>
<!-- Node17 -->
<g id="node17" class="node">
<title>Node17</title>
<g id="a_node17"><a xlink:href="../../dd/db1/Wrapper_8cxx.html#abf1e42281903daa0752c80dd6c879fac" target="_top" xlink:title="Wrapper">
<polygon fill="none" stroke="#000000" points="219,-.5 219,-20.5 279,-20.5 279,-.5 219,-.5"/>
<text text-anchor="middle" x="249" y="-7.5" font-family="FreeSans" font-size="10.00" fill="#000000">Wrapper</text>
</a>
</g>
</g>
<!-- Node1&#45;&gt;Node17 -->
<g id="edge16" class="edge">
<title>Node1&#45;&gt;Node17</title>
<path fill="none" stroke="#191970" d="M68.192,-288.2362C82.4493,-224.8222 121.3969,-65.9567 161,-30.5 176.6414,-16.4962 200.0191,-11.6729 218.7486,-10.2561"/>
<polygon fill="#191970" stroke="#191970" points="64.7214,-287.7203 65.9702,-298.2412 71.555,-289.2379 64.7214,-287.7203"/>
</g>
</g>
</svg>
