<?xml version="1.0" encoding="UTF-8" standalone="no"?>
<!DOCTYPE svg PUBLIC "-//W3C//DTD SVG 1.1//EN"
 "http://www.w3.org/Graphics/SVG/1.1/DTD/svg11.dtd">
<!-- Generated by graphviz version 2.40.1 (20161225.0304)
 -->
<!-- Title: Fun4AllInputManager::fileopen Pages: 1 -->
<svg width="586pt" height="1820pt"
 viewBox="0.00 0.00 586.00 1820.00" xmlns="http://www.w3.org/2000/svg" xmlns:xlink="http://www.w3.org/1999/xlink">
<g id="graph0" class="graph" transform="scale(1 1) rotate(0) translate(4 1816)">
<title>Fun4AllInputManager::fileopen</title>
<!-- Node1 -->
<g id="node1" class="node">
<title>Node1</title>
<polygon fill="#bfbfbf" stroke="#000000" points="0,-874.5 0,-906.5 125,-906.5 125,-874.5 0,-874.5"/>
<text text-anchor="start" x="8" y="-893.5" font-family="FreeSans" font-size="10.00" fill="#000000">Fun4AllInputManager</text>
<text text-anchor="middle" x="62.5" y="-881.5" font-family="FreeSans" font-size="10.00" fill="#000000">::fileopen</text>
</g>
<!-- Node2 -->
<g id="node2" class="node">
<title>Node2</title>
<g id="a_node2"><a xlink:href="../../d3/d7f/Fun_8C.html#ab689f6a95e742654fc06aa27a8486ffd" target="_top" xlink:title="ConfigureInput">
<polygon fill="none" stroke="#000000" points="198.5,-1791.5 198.5,-1811.5 290.5,-1811.5 290.5,-1791.5 198.5,-1791.5"/>
<text text-anchor="middle" x="244.5" y="-1798.5" font-family="FreeSans" font-size="10.00" fill="#000000">ConfigureInput</text>
</a>
</g>
</g>
<!-- Node1&#45;&gt;Node2 -->
<g id="edge1" class="edge">
<title>Node1&#45;&gt;Node2</title>
<path fill="none" stroke="#191970" d="M63.6095,-916.7579C69.7781,-1057.2321 101.7297,-1716.0726 161,-1782.5 170.4031,-1793.0386 184.3262,-1798.372 198.1196,-1800.9123"/>
<polygon fill="#191970" stroke="#191970" points="67.0951,-916.3467 63.1651,-906.5078 60.1017,-916.65 67.0951,-916.3467"/>
</g>
<!-- Node4 -->
<g id="node4" class="node">
<title>Node4</title>
<g id="a_node4"><a xlink:href="../../df/d77/Fun4All__CaloAna_8C.html#a4f0841e3d8be48f96cc4e95380315ff8" target="_top" xlink:title="Fun4All_CaloAna">
<polygon fill="none" stroke="#000000" points="194.5,-1752.5 194.5,-1772.5 294.5,-1772.5 294.5,-1752.5 194.5,-1752.5"/>
<text text-anchor="middle" x="244.5" y="-1759.5" font-family="FreeSans" font-size="10.00" fill="#000000">Fun4All_CaloAna</text>
</a>
</g>
</g>
<!-- Node1&#45;&gt;Node4 -->
<g id="edge3" class="edge">
<title>Node1&#45;&gt;Node4</title>
<path fill="none" stroke="#191970" d="M63.7551,-916.8899C70.505,-1053.9049 104.309,-1680.2813 161,-1743.5 169.536,-1753.0189 181.7602,-1758.2865 194.2313,-1761.085"/>
<polygon fill="#191970" stroke="#191970" points="67.2323,-916.336 63.25,-906.518 60.2406,-916.6765 67.2323,-916.336"/>
</g>
<!-- Node5 -->
<g id="node5" class="node">
<title>Node5</title>
<g id="a_node5"><a xlink:href="../../da/dae/Fun4All__EICAnalysis__DIS_8C.html#a6be6c58cd68a395182a998295a1106ae" target="_top" xlink:title="Fun4All_EICAnalysis_DIS">
<polygon fill="none" stroke="#000000" points="175,-1713.5 175,-1733.5 314,-1733.5 314,-1713.5 175,-1713.5"/>
<text text-anchor="middle" x="244.5" y="-1720.5" font-family="FreeSans" font-size="10.00" fill="#000000">Fun4All_EICAnalysis_DIS</text>
</a>
</g>
</g>
<!-- Node1&#45;&gt;Node5 -->
<g id="edge4" class="edge">
<title>Node1&#45;&gt;Node5</title>
<path fill="none" stroke="#191970" d="M63.9118,-916.9577C71.2599,-1050.2804 106.8754,-1644.4735 161,-1704.5 164.9823,-1708.9166 169.7587,-1712.4168 174.9839,-1715.1793"/>
<polygon fill="#191970" stroke="#191970" points="67.3989,-916.6229 63.3594,-906.8284 60.4093,-917.0042 67.3989,-916.6229"/>
</g>
<!-- Node6 -->
<g id="node6" class="node">
<title>Node6</title>
<g id="a_node6"><a xlink:href="../../d2/d9b/Fun4All__EICAnalysis__DISReco_8C.html#a3c160743ec7b9b4572cf73a19640a34f" target="_top" xlink:title="Fun4All_EICAnalysis\l_DISReco">
<polygon fill="none" stroke="#000000" points="186,-1662.5 186,-1694.5 303,-1694.5 303,-1662.5 186,-1662.5"/>
<text text-anchor="start" x="194" y="-1681.5" font-family="FreeSans" font-size="10.00" fill="#000000">Fun4All_EICAnalysis</text>
<text text-anchor="middle" x="244.5" y="-1669.5" font-family="FreeSans" font-size="10.00" fill="#000000">_DISReco</text>
</a>
</g>
</g>
<!-- Node1&#45;&gt;Node6 -->
<g id="edge5" class="edge">
<title>Node1&#45;&gt;Node6</title>
<path fill="none" stroke="#191970" d="M64.2104,-916.8401C72.728,-1044.5972 112.1122,-1595.9433 161,-1653.5 167.5635,-1661.2274 176.4109,-1666.6224 185.8972,-1670.3766"/>
<polygon fill="#191970" stroke="#191970" points="67.6969,-916.5189 63.5448,-906.7715 60.7121,-916.9806 67.6969,-916.5189"/>
</g>
<!-- Node7 -->
<g id="node7" class="node">
<title>Node7</title>
<g id="a_node7"><a xlink:href="../../d2/d47/Fun4All__EICAnalysis__DVCS_8C.html#a84f48142243e969fd353cc8509f0ba22" target="_top" xlink:title="Fun4All_EICAnalysis_DVCS">
<polygon fill="none" stroke="#000000" points="169.5,-1623.5 169.5,-1643.5 319.5,-1643.5 319.5,-1623.5 169.5,-1623.5"/>
<text text-anchor="middle" x="244.5" y="-1630.5" font-family="FreeSans" font-size="10.00" fill="#000000">Fun4All_EICAnalysis_DVCS</text>
</a>
</g>
</g>
<!-- Node1&#45;&gt;Node7 -->
<g id="edge6" class="edge">
<title>Node1&#45;&gt;Node7</title>
<path fill="none" stroke="#191970" d="M64.3117,-916.7243C73.0873,-1040.419 112.731,-1561.7576 161,-1614.5 164.2119,-1618.0096 167.9255,-1620.9386 171.9652,-1623.3775"/>
<polygon fill="#191970" stroke="#191970" points="67.7951,-916.3648 63.6021,-906.635 60.8124,-916.856 67.7951,-916.3648"/>
</g>
<!-- Node8 -->
<g id="node8" class="node">
<title>Node8</title>
<g id="a_node8"><a xlink:href="../../d3/dee/Fun4All__EICAnalysis__Exclusive_8C.html#ad3a88bfdb2a21a757edf221e36d6bffe" target="_top" xlink:title="Fun4All_EICAnalysis\l_Exclusive">
<polygon fill="none" stroke="#000000" points="186,-1572.5 186,-1604.5 303,-1604.5 303,-1572.5 186,-1572.5"/>
<text text-anchor="start" x="194" y="-1591.5" font-family="FreeSans" font-size="10.00" fill="#000000">Fun4All_EICAnalysis</text>
<text text-anchor="middle" x="244.5" y="-1579.5" font-family="FreeSans" font-size="10.00" fill="#000000">_Exclusive</text>
</a>
</g>
</g>
<!-- Node1&#45;&gt;Node8 -->
<g id="edge7" class="edge">
<title>Node1&#45;&gt;Node8</title>
<path fill="none" stroke="#191970" d="M64.6723,-916.6778C74.6815,-1034.6616 117.717,-1513.4082 161,-1563.5 167.5298,-1571.057 176.2427,-1576.3791 185.579,-1580.1164"/>
<polygon fill="#191970" stroke="#191970" points="68.1595,-916.3776 63.8324,-906.7067 61.1842,-916.9652 68.1595,-916.3776"/>
</g>
<!-- Node9 -->
<g id="node9" class="node">
<title>Node9</title>
<g id="a_node9"><a xlink:href="../../d2/d00/Fun4All__EICAnalysis__Leptoquarks_8C.html#a328697c2ae82c0b33f95bea9aefb93f4" target="_top" xlink:title="Fun4All_EICAnalysis\l_Leptoquarks">
<polygon fill="none" stroke="#000000" points="186,-1521.5 186,-1553.5 303,-1553.5 303,-1521.5 186,-1521.5"/>
<text text-anchor="start" x="194" y="-1540.5" font-family="FreeSans" font-size="10.00" fill="#000000">Fun4All_EICAnalysis</text>
<text text-anchor="middle" x="244.5" y="-1528.5" font-family="FreeSans" font-size="10.00" fill="#000000">_Leptoquarks</text>
</a>
</g>
</g>
<!-- Node1&#45;&gt;Node9 -->
<g id="edge8" class="edge">
<title>Node1&#45;&gt;Node9</title>
<path fill="none" stroke="#191970" d="M63.0542,-916.8497C65.8236,-1023.461 81.4153,-1421.4804 161,-1512.5 167.574,-1520.0186 176.3083,-1525.3221 185.6521,-1529.0529"/>
<polygon fill="#191970" stroke="#191970" points="66.5484,-916.5643 62.8061,-906.6524 59.5505,-916.7346 66.5484,-916.5643"/>
</g>
<!-- Node10 -->
<g id="node10" class="node">
<title>Node10</title>
<g id="a_node10"><a xlink:href="../../df/d6c/Fun4All__EICAnalysis__JPsi_8C.html#ad03644e8a25c5261146f6c59826ed6d0" target="_top" xlink:title="Fun4All_EICAnalysis\l_Quarkonia">
<polygon fill="none" stroke="#000000" points="186,-1470.5 186,-1502.5 303,-1502.5 303,-1470.5 186,-1470.5"/>
<text text-anchor="start" x="194" y="-1489.5" font-family="FreeSans" font-size="10.00" fill="#000000">Fun4All_EICAnalysis</text>
<text text-anchor="middle" x="244.5" y="-1477.5" font-family="FreeSans" font-size="10.00" fill="#000000">_Quarkonia</text>
</a>
</g>
</g>
<!-- Node1&#45;&gt;Node10 -->
<g id="edge9" class="edge">
<title>Node1&#45;&gt;Node10</title>
<path fill="none" stroke="#191970" d="M63.4682,-916.946C67.6962,-1018.0913 87.7507,-1378.8808 161,-1461.5 167.6256,-1468.9732 176.3849,-1474.2546 185.7373,-1477.9778"/>
<polygon fill="#191970" stroke="#191970" points="66.955,-916.5458 63.0574,-906.694 59.9606,-916.8261 66.955,-916.5458"/>
</g>
<!-- Node11 -->
<g id="node11" class="node">
<title>Node11</title>
<g id="a_node11"><a xlink:href="../../df/d90/Fun4All__EICAnalysis__TrackEval_8C.html#ab4d10c3db3266243a5c314b02c02a360" target="_top" xlink:title="Fun4All_EICAnalysis\l_TrackEval">
<polygon fill="none" stroke="#000000" points="186,-1419.5 186,-1451.5 303,-1451.5 303,-1419.5 186,-1419.5"/>
<text text-anchor="start" x="194" y="-1438.5" font-family="FreeSans" font-size="10.00" fill="#000000">Fun4All_EICAnalysis</text>
<text text-anchor="middle" x="244.5" y="-1426.5" font-family="FreeSans" font-size="10.00" fill="#000000">_TrackEval</text>
</a>
</g>
</g>
<!-- Node1&#45;&gt;Node11 -->
<g id="edge10" class="edge">
<title>Node1&#45;&gt;Node11</title>
<path fill="none" stroke="#191970" d="M63.9444,-916.7188C69.6937,-1011.7085 93.9859,-1336.1494 161,-1410.5 167.6866,-1417.9186 176.4755,-1423.1737 185.8381,-1426.8877"/>
<polygon fill="#191970" stroke="#191970" points="67.4272,-916.3223 63.3471,-906.5446 60.4392,-916.7325 67.4272,-916.3223"/>
</g>
<!-- Node12 -->
<g id="node12" class="node">
<title>Node12</title>
<g id="a_node12"><a xlink:href="../../df/d51/Fun4All__ExportGeom_8C.html#a582925c51bad38d562cf19e71211adfd" target="_top" xlink:title="get geometry from DST file and output TGeoManager ROOT files or other formats of geometry files...">
<polygon fill="none" stroke="#000000" points="183.5,-1380.5 183.5,-1400.5 305.5,-1400.5 305.5,-1380.5 183.5,-1380.5"/>
<text text-anchor="middle" x="244.5" y="-1387.5" font-family="FreeSans" font-size="10.00" fill="#000000">Fun4All_ExportGeom</text>
</a>
</g>
</g>
<!-- Node1&#45;&gt;Node12 -->
<g id="edge11" class="edge">
<title>Node1&#45;&gt;Node12</title>
<path fill="none" stroke="#191970" d="M64.2067,-916.6712C70.6486,-1007.2644 96.4815,-1305.563 161,-1371.5 167.1346,-1377.7695 174.8768,-1382.1584 183.1596,-1385.2004"/>
<polygon fill="#191970" stroke="#191970" points="67.6976,-916.4172 63.5159,-906.6825 60.7143,-916.9002 67.6976,-916.4172"/>
</g>
<!-- Node13 -->
<g id="node13" class="node">
<title>Node13</title>
<g id="a_node13"><a xlink:href="../../d8/d91/Fun4All__G4__Clusters_8C.html#ab7d8e64f12f512631d4c0e8c6683ec5b" target="_top" xlink:title="Fun4All_G4_Clusters">
<polygon fill="none" stroke="#000000" points="185,-1341.5 185,-1361.5 304,-1361.5 304,-1341.5 185,-1341.5"/>
<text text-anchor="middle" x="244.5" y="-1348.5" font-family="FreeSans" font-size="10.00" fill="#000000">Fun4All_G4_Clusters</text>
</a>
</g>
</g>
<!-- Node1&#45;&gt;Node13 -->
<g id="edge12" class="edge">
<title>Node1&#45;&gt;Node13</title>
<path fill="none" stroke="#191970" d="M64.7261,-916.757C72.5344,-1002.5795 101.4853,-1272.7188 161,-1332.5 167.6081,-1339.1377 176.0208,-1343.6591 184.9495,-1346.7038"/>
<polygon fill="#191970" stroke="#191970" points="68.1921,-916.2179 63.8204,-906.5671 61.2196,-916.8377 68.1921,-916.2179"/>
</g>
<!-- Node14 -->
<g id="node14" class="node">
<title>Node14</title>
<g id="a_node14"><a xlink:href="../../da/d02/Fun4All__G4__EICDetector_8C.html#afbe82cefa1d1fd031d9a8586b7bb68c6" target="_top" xlink:title="Fun4All_G4_EICDetector">
<polygon fill="none" stroke="#000000" points="175,-1302.5 175,-1322.5 314,-1322.5 314,-1302.5 175,-1302.5"/>
<text text-anchor="middle" x="244.5" y="-1309.5" font-family="FreeSans" font-size="10.00" fill="#000000">Fun4All_G4_EICDetector</text>
</a>
</g>
</g>
<!-- Node1&#45;&gt;Node14 -->
<g id="edge13" class="edge">
<title>Node1&#45;&gt;Node14</title>
<path fill="none" stroke="#191970" d="M65.3404,-916.7984C74.593,-997.5677 106.4558,-1239.8206 161,-1293.5 165.0266,-1297.4627 169.6976,-1300.6677 174.733,-1303.2525"/>
<polygon fill="#191970" stroke="#191970" points="68.7792,-916.0565 64.1849,-906.5096 61.8229,-916.8378 68.7792,-916.0565"/>
</g>
<!-- Node15 -->
<g id="node15" class="node">
<title>Node15</title>
<g id="a_node15"><a xlink:href="../../dd/d2a/Fun4All__G4__EICDetector__LQ_8C.html#aaa01242fd6e77ca43a9d49a6d46008e4" target="_top" xlink:title="Fun4All_G4_EICDetector_LQ">
<polygon fill="none" stroke="#000000" points="166.5,-1263.5 166.5,-1283.5 322.5,-1283.5 322.5,-1263.5 166.5,-1263.5"/>
<text text-anchor="middle" x="244.5" y="-1270.5" font-family="FreeSans" font-size="10.00" fill="#000000">Fun4All_G4_EICDetector_LQ</text>
</a>
</g>
</g>
<!-- Node1&#45;&gt;Node15 -->
<g id="edge14" class="edge">
<title>Node1&#45;&gt;Node15</title>
<path fill="none" stroke="#191970" d="M66.0701,-916.7459C76.8456,-992.1141 111.379,-1206.851 161,-1254.5 164.646,-1258.0011 168.7964,-1260.9074 173.2529,-1263.3151"/>
<polygon fill="#191970" stroke="#191970" points="69.5122,-916.0888 64.6537,-906.6737 62.5804,-917.0637 69.5122,-916.0888"/>
</g>
<!-- Node16 -->
<g id="node16" class="node">
<title>Node16</title>
<g id="a_node16"><a xlink:href="../../df/d4b/Fun4All__G4__EICDetector__LQ__analysis_8C.html#af903e98824d083a08b353ac15996ee0e" target="_top" xlink:title="Fun4All_G4_EICDetector\l_LQ_analysis">
<polygon fill="none" stroke="#000000" points="175,-1212.5 175,-1244.5 314,-1244.5 314,-1212.5 175,-1212.5"/>
<text text-anchor="start" x="183" y="-1231.5" font-family="FreeSans" font-size="10.00" fill="#000000">Fun4All_G4_EICDetector</text>
<text text-anchor="middle" x="244.5" y="-1219.5" font-family="FreeSans" font-size="10.00" fill="#000000">_LQ_analysis</text>
</a>
</g>
</g>
<!-- Node1&#45;&gt;Node16 -->
<g id="edge15" class="edge">
<title>Node1&#45;&gt;Node16</title>
<path fill="none" stroke="#191970" d="M67.4351,-916.4934C80.7297,-983.9468 119.1282,-1162.2094 161,-1203.5 165.0944,-1207.5375 169.8131,-1210.9273 174.8805,-1213.7726"/>
<polygon fill="#191970" stroke="#191970" points="70.8666,-915.8038 65.5203,-906.6568 63.9956,-917.1414 70.8666,-915.8038"/>
</g>
<!-- Node17 -->
<g id="node17" class="node">
<title>Node17</title>
<g id="a_node17"><a xlink:href="../../d1/daf/Fun4All__G4__EICDetector__LQ__analysis__nf_8C.html#a5022607d21247b87dd208b0828905147" target="_top" xlink:title="Fun4All_G4_EICDetector\l_LQ_analysis_nf">
<polygon fill="none" stroke="#000000" points="175,-1161.5 175,-1193.5 314,-1193.5 314,-1161.5 175,-1161.5"/>
<text text-anchor="start" x="183" y="-1180.5" font-family="FreeSans" font-size="10.00" fill="#000000">Fun4All_G4_EICDetector</text>
<text text-anchor="middle" x="244.5" y="-1168.5" font-family="FreeSans" font-size="10.00" fill="#000000">_LQ_analysis_nf</text>
</a>
</g>
</g>
<!-- Node1&#45;&gt;Node17 -->
<g id="edge16" class="edge">
<title>Node1&#45;&gt;Node17</title>
<path fill="none" stroke="#191970" d="M64.803,-916.9257C70.813,-969.5202 91.6905,-1087.7957 161,-1152.5 165.0927,-1156.3208 169.7466,-1159.5593 174.714,-1162.3041"/>
<polygon fill="#191970" stroke="#191970" points="68.259,-916.3224 63.7341,-906.7425 61.2973,-917.0532 68.259,-916.3224"/>
</g>
<!-- Node18 -->
<g id="node18" class="node">
<title>Node18</title>
<g id="a_node18"><a xlink:href="../../d4/df5/Fun4All__G4__EICDetector__LQ__reference_8C.html#a2feefc472f17f90b3cbe74897d049f75" target="_top" xlink:title="Fun4All_G4_EICDetector\l_LQ_reference">
<polygon fill="none" stroke="#000000" points="175,-1110.5 175,-1142.5 314,-1142.5 314,-1110.5 175,-1110.5"/>
<text text-anchor="start" x="183" y="-1129.5" font-family="FreeSans" font-size="10.00" fill="#000000">Fun4All_G4_EICDetector</text>
<text text-anchor="middle" x="244.5" y="-1117.5" font-family="FreeSans" font-size="10.00" fill="#000000">_LQ_reference</text>
</a>
</g>
</g>
<!-- Node1&#45;&gt;Node18 -->
<g id="edge17" class="edge">
<title>Node1&#45;&gt;Node18</title>
<path fill="none" stroke="#191970" d="M67.4834,-916.7376C77.3239,-961.3129 103.4856,-1051.8168 161,-1101.5 165.1225,-1105.0612 169.7368,-1108.1151 174.623,-1110.7341"/>
<polygon fill="#191970" stroke="#191970" points="70.8553,-915.7635 65.3737,-906.6969 64.0048,-917.2029 70.8553,-915.7635"/>
</g>
<!-- Node19 -->
<g id="node19" class="node">
<title>Node19</title>
<g id="a_node19"><a xlink:href="../../d3/d51/Fun4All__G4__EICDetector__RICH_8C.html#a5739502b0a7a1ba782c01069f77e933f" target="_top" xlink:title="Fun4All_G4_EICDetector_RICH">
<polygon fill="none" stroke="#000000" points="161,-1071.5 161,-1091.5 328,-1091.5 328,-1071.5 161,-1071.5"/>
<text text-anchor="middle" x="244.5" y="-1078.5" font-family="FreeSans" font-size="10.00" fill="#000000">Fun4All_G4_EICDetector_RICH</text>
</a>
</g>
</g>
<!-- Node1&#45;&gt;Node19 -->
<g id="edge18" class="edge">
<title>Node1&#45;&gt;Node19</title>
<path fill="none" stroke="#191970" d="M70.0222,-916.6066C82.4329,-954.8176 110.9435,-1025.4463 161,-1062.5 165.8993,-1066.1266 171.371,-1069.0789 177.1062,-1071.4799"/>
<polygon fill="#191970" stroke="#191970" points="73.2644,-915.2468 66.9442,-906.7436 66.5823,-917.3322 73.2644,-915.2468"/>
</g>
<!-- Node20 -->
<g id="node20" class="node">
<title>Node20</title>
<g id="a_node20"><a xlink:href="../../d7/d9e/Fun4All__G4__fsPHENIX_8C.html#af48911d394d2412e817583700f2bbee2" target="_top" xlink:title="Fun4All_G4_fsPHENIX">
<polygon fill="none" stroke="#000000" points="182.5,-1032.5 182.5,-1052.5 306.5,-1052.5 306.5,-1032.5 182.5,-1032.5"/>
<text text-anchor="middle" x="244.5" y="-1039.5" font-family="FreeSans" font-size="10.00" fill="#000000">Fun4All_G4_fsPHENIX</text>
</a>
</g>
</g>
<!-- Node1&#45;&gt;Node20 -->
<g id="edge19" class="edge">
<title>Node1&#45;&gt;Node20</title>
<path fill="none" stroke="#191970" d="M74.1399,-915.6277C89.5761,-946.0547 119.755,-996.5638 161,-1023.5 167.4728,-1027.7272 174.7612,-1031.0211 182.2668,-1033.5863"/>
<polygon fill="#191970" stroke="#191970" points="77.208,-913.9355 69.6509,-906.5098 70.9279,-917.0274 77.208,-913.9355"/>
</g>
<!-- Node21 -->
<g id="node21" class="node">
<title>Node21</title>
<g id="a_node21"><a xlink:href="../../da/d2f/Fun4All__G4__fsPHENIX__FastSim_8C.html#a66fb850cae5fcaadda23b74a25ce4c9c" target="_top" xlink:title="Fun4All_G4_fsPHENIX\l_FastSim">
<polygon fill="none" stroke="#000000" points="182.5,-981.5 182.5,-1013.5 306.5,-1013.5 306.5,-981.5 182.5,-981.5"/>
<text text-anchor="start" x="190.5" y="-1000.5" font-family="FreeSans" font-size="10.00" fill="#000000">Fun4All_G4_fsPHENIX</text>
<text text-anchor="middle" x="244.5" y="-988.5" font-family="FreeSans" font-size="10.00" fill="#000000">_FastSim</text>
</a>
</g>
</g>
<!-- Node1&#45;&gt;Node21 -->
<g id="edge20" class="edge">
<title>Node1&#45;&gt;Node21</title>
<path fill="none" stroke="#191970" d="M85.1902,-914.0257C103.9796,-932.2906 132.1797,-957.0322 161,-972.5 167.6667,-976.078 174.9145,-979.212 182.2621,-981.939"/>
<polygon fill="#191970" stroke="#191970" points="87.3056,-911.1944 77.7395,-906.6403 82.3777,-916.166 87.3056,-911.1944"/>
</g>
<!-- Node22 -->
<g id="node22" class="node">
<title>Node22</title>
<g id="a_node22"><a xlink:href="../../d0/da6/Fun4All__G4__fsPHENIX__pi0_8C.html#a023d91d47b678e5d7f1751834aa517c6" target="_top" xlink:title="Fun4All_G4_fsPHENIX_pi0">
<polygon fill="none" stroke="#000000" points="172,-942.5 172,-962.5 317,-962.5 317,-942.5 172,-942.5"/>
<text text-anchor="middle" x="244.5" y="-949.5" font-family="FreeSans" font-size="10.00" fill="#000000">Fun4All_G4_fsPHENIX_pi0</text>
</a>
</g>
</g>
<!-- Node1&#45;&gt;Node22 -->
<g id="edge21" class="edge">
<title>Node1&#45;&gt;Node22</title>
<path fill="none" stroke="#191970" d="M104.4108,-910.8714C121.6549,-918.7036 142.006,-927.2546 161,-933.5 171.3099,-936.89 182.5297,-939.8916 193.3021,-942.4507"/>
<polygon fill="#191970" stroke="#191970" points="105.7253,-907.6234 95.1787,-906.6134 102.7935,-913.9799 105.7253,-907.6234"/>
</g>
<!-- Node23 -->
<g id="node23" class="node">
<title>Node23</title>
<g id="a_node23"><a xlink:href="../../d5/d2c/macros_2blob_2master_2macros_2g4simulations_2Fun4All__G4__sPHENIX_8C.html#a6eaaa492d7023ec86c562dc63aa1e5a4" target="_top" xlink:title="Fun4All_G4_sPHENIX">
<polygon fill="none" stroke="#000000" points="184,-903.5 184,-923.5 305,-923.5 305,-903.5 184,-903.5"/>
<text text-anchor="middle" x="244.5" y="-910.5" font-family="FreeSans" font-size="10.00" fill="#000000">Fun4All_G4_sPHENIX</text>
</a>
</g>
</g>
<!-- Node1&#45;&gt;Node23 -->
<g id="edge22" class="edge">
<title>Node1&#45;&gt;Node23</title>
<path fill="none" stroke="#191970" d="M135.086,-899.673C151.2689,-901.718 168.2626,-903.8656 183.9026,-905.8421"/>
<polygon fill="#191970" stroke="#191970" points="135.494,-896.1968 125.1341,-898.4153 134.6163,-903.1415 135.494,-896.1968"/>
</g>
<!-- Node24 -->
<g id="node24" class="node">
<title>Node24</title>
<g id="a_node24"><a xlink:href="../../d3/de2/Fun4All__G4__sPHENIX__AnaGenFit_8C.html#a9bf3f2f72ed69a17e2d0c1121d48013c" target="_top" xlink:title="Fun4All_G4_sPHENIX\l_AnaGenFit">
<polygon fill="none" stroke="#000000" points="184,-852.5 184,-884.5 305,-884.5 305,-852.5 184,-852.5"/>
<text text-anchor="start" x="192" y="-871.5" font-family="FreeSans" font-size="10.00" fill="#000000">Fun4All_G4_sPHENIX</text>
<text text-anchor="middle" x="244.5" y="-859.5" font-family="FreeSans" font-size="10.00" fill="#000000">_AnaGenFit</text>
</a>
</g>
</g>
<!-- Node1&#45;&gt;Node24 -->
<g id="edge23" class="edge">
<title>Node1&#45;&gt;Node24</title>
<path fill="none" stroke="#191970" d="M135.086,-881.7259C151.2689,-879.7697 168.2626,-877.7155 183.9026,-875.825"/>
<polygon fill="#191970" stroke="#191970" points="134.6418,-878.254 125.1341,-882.9288 135.4819,-885.2034 134.6418,-878.254"/>
</g>
<!-- Node25 -->
<g id="node25" class="node">
<title>Node25</title>
<g id="a_node25"><a xlink:href="../../da/dd0/Fun4All__G4__sPHENIX__photonjet_8C.html#a6f18519e216acc05399e562ea57ea77c" target="_top" xlink:title="Fun4All_G4_sPHENIX\l_photonjet">
<polygon fill="none" stroke="#000000" points="184,-801.5 184,-833.5 305,-833.5 305,-801.5 184,-801.5"/>
<text text-anchor="start" x="192" y="-820.5" font-family="FreeSans" font-size="10.00" fill="#000000">Fun4All_G4_sPHENIX</text>
<text text-anchor="middle" x="244.5" y="-808.5" font-family="FreeSans" font-size="10.00" fill="#000000">_photonjet</text>
</a>
</g>
</g>
<!-- Node1&#45;&gt;Node25 -->
<g id="edge24" class="edge">
<title>Node1&#45;&gt;Node25</title>
<path fill="none" stroke="#191970" d="M102.8812,-869.6221C120.4777,-860.947 141.5011,-851.1423 161,-843.5 169.9057,-840.0095 179.4851,-836.6624 188.8672,-833.5995"/>
<polygon fill="#191970" stroke="#191970" points="100.8772,-866.7103 93.4894,-874.3045 104.0005,-872.9749 100.8772,-866.7103"/>
</g>
<!-- Node26 -->
<g id="node26" class="node">
<title>Node26</title>
<g id="a_node26"><a xlink:href="../../da/d85/Fun4All__G4__sPHENIX__photons_8C.html#a02fbbd59878fe1299f58ed187e7214ba" target="_top" xlink:title="Fun4All_G4_sPHENIX\l_photons">
<polygon fill="none" stroke="#000000" points="184,-750.5 184,-782.5 305,-782.5 305,-750.5 184,-750.5"/>
<text text-anchor="start" x="192" y="-769.5" font-family="FreeSans" font-size="10.00" fill="#000000">Fun4All_G4_sPHENIX</text>
<text text-anchor="middle" x="244.5" y="-757.5" font-family="FreeSans" font-size="10.00" fill="#000000">_photons</text>
</a>
</g>
</g>
<!-- Node1&#45;&gt;Node26 -->
<g id="edge25" class="edge">
<title>Node1&#45;&gt;Node26</title>
<path fill="none" stroke="#191970" d="M81.0716,-866.2398C99.219,-844.0917 128.756,-811.9315 161,-792.5 168.0223,-788.2681 175.7973,-784.6647 183.6951,-781.6129"/>
<polygon fill="#191970" stroke="#191970" points="78.2204,-864.2005 74.6921,-874.1906 83.6802,-868.5812 78.2204,-864.2005"/>
</g>
<!-- Node27 -->
<g id="node27" class="node">
<title>Node27</title>
<g id="a_node27"><a xlink:href="../../de/d55/Fun4All__G4__sPHENIX__truthphotonjet_8C.html#a48a6f4503eaa1b3793d8ae572aa795b9" target="_top" xlink:title="Fun4All_G4_sPHENIX\l_truthphotonjet">
<polygon fill="none" stroke="#000000" points="184,-699.5 184,-731.5 305,-731.5 305,-699.5 184,-699.5"/>
<text text-anchor="start" x="192" y="-718.5" font-family="FreeSans" font-size="10.00" fill="#000000">Fun4All_G4_sPHENIX</text>
<text text-anchor="middle" x="244.5" y="-706.5" font-family="FreeSans" font-size="10.00" fill="#000000">_truthphotonjet</text>
</a>
</g>
</g>
<!-- Node1&#45;&gt;Node27 -->
<g id="edge26" class="edge">
<title>Node1&#45;&gt;Node27</title>
<path fill="none" stroke="#191970" d="M72.8356,-864.9247C87.5465,-831.6914 117.6349,-774.0758 161,-741.5 167.7981,-736.3933 175.6176,-732.2766 183.6864,-728.9612"/>
<polygon fill="#191970" stroke="#191970" points="69.4961,-863.8313 68.7661,-874.401 75.9281,-866.5935 69.4961,-863.8313"/>
</g>
<!-- Node28 -->
<g id="node28" class="node">
<title>Node28</title>
<g id="a_node28"><a xlink:href="../../db/d96/Fun4All__JetAna_8C.html#a519de39bdb8606d50d045cc11466e2e6" target="_top" xlink:title="Fun4All_JetAna">
<polygon fill="none" stroke="#000000" points="199,-660.5 199,-680.5 290,-680.5 290,-660.5 199,-660.5"/>
<text text-anchor="middle" x="244.5" y="-667.5" font-family="FreeSans" font-size="10.00" fill="#000000">Fun4All_JetAna</text>
</a>
</g>
</g>
<!-- Node1&#45;&gt;Node28 -->
<g id="edge27" class="edge">
<title>Node1&#45;&gt;Node28</title>
<path fill="none" stroke="#191970" d="M67.8387,-864.3691C78.0512,-821.2775 104.5514,-735.6023 161,-690.5 171.7141,-681.9395 185.5115,-676.9488 198.7923,-674.0678"/>
<polygon fill="#191970" stroke="#191970" points="64.3721,-863.8313 65.5849,-874.3565 71.2004,-865.3723 64.3721,-863.8313"/>
</g>
<!-- Node29 -->
<g id="node29" class="node">
<title>Node29</title>
<g id="a_node29"><a xlink:href="../../d9/d31/Fun4All__RICHReco_8C.html#a3b13aa3a348876cbf1acfc1563aabce5" target="_top" xlink:title="Fun4All_RICHReco">
<polygon fill="none" stroke="#000000" points="191,-621.5 191,-641.5 298,-641.5 298,-621.5 191,-621.5"/>
<text text-anchor="middle" x="244.5" y="-628.5" font-family="FreeSans" font-size="10.00" fill="#000000">Fun4All_RICHReco</text>
</a>
</g>
</g>
<!-- Node1&#45;&gt;Node29 -->
<g id="edge28" class="edge">
<title>Node1&#45;&gt;Node29</title>
<path fill="none" stroke="#191970" d="M65.5617,-864.0017C72.7453,-814.4325 95.3609,-707.632 161,-651.5 169.3835,-644.3308 179.8972,-639.6351 190.6093,-636.5821"/>
<polygon fill="#191970" stroke="#191970" points="62.0516,-863.8418 64.1846,-874.2197 68.9889,-864.7767 62.0516,-863.8418"/>
</g>
<!-- Node30 -->
<g id="node30" class="node">
<title>Node30</title>
<g id="a_node30"><a xlink:href="../../d4/d65/Fun4All__single__particle_8C.html#a8a492b5dbead494bfdddbebde8a49b0e" target="_top" xlink:title="Fun4All_single_particle">
<polygon fill="none" stroke="#000000" points="178.5,-582.5 178.5,-602.5 310.5,-602.5 310.5,-582.5 178.5,-582.5"/>
<text text-anchor="middle" x="244.5" y="-589.5" font-family="FreeSans" font-size="10.00" fill="#000000">Fun4All_single_particle</text>
</a>
</g>
</g>
<!-- Node1&#45;&gt;Node30 -->
<g id="edge29" class="edge">
<title>Node1&#45;&gt;Node30</title>
<path fill="none" stroke="#191970" d="M63.7832,-864.4423C67.9598,-809.284 85.7048,-680.2482 161,-612.5 166.0974,-607.9136 172.0589,-604.3296 178.4094,-601.536"/>
<polygon fill="#191970" stroke="#191970" points="60.2891,-864.238 63.1157,-874.4488 67.2736,-864.704 60.2891,-864.238"/>
</g>
<!-- Node31 -->
<g id="node31" class="node">
<title>Node31</title>
<g id="a_node31"><a xlink:href="../../d1/db8/analysis_2blob_2master_2MvtxTelescope_2AnaMvtxPrototype1_2macro_2Fun4All__TestBeam_8C.html#a89e0e05f7fe09176341b2c656b4cec1b" target="_top" xlink:title="Fun4All_TestBeam">
<polygon fill="none" stroke="#000000" points="190.5,-543.5 190.5,-563.5 298.5,-563.5 298.5,-543.5 190.5,-543.5"/>
<text text-anchor="middle" x="244.5" y="-550.5" font-family="FreeSans" font-size="10.00" fill="#000000">Fun4All_TestBeam</text>
</a>
</g>
</g>
<!-- Node1&#45;&gt;Node31 -->
<g id="edge30" class="edge">
<title>Node1&#45;&gt;Node31</title>
<path fill="none" stroke="#191970" d="M67.1712,-864.5149C79.9526,-796.2414 117.4655,-614.2449 161,-573.5 169.0538,-565.9623 179.4285,-561.1112 190.1094,-558.0233"/>
<polygon fill="#191970" stroke="#191970" points="63.7094,-863.9875 65.335,-874.4569 70.593,-865.2589 63.7094,-863.9875"/>
</g>
<!-- Node32 -->
<g id="node32" class="node">
<title>Node32</title>
<g id="a_node32"><a xlink:href="../../df/de3/Prototype2_2EMCal_2macros_2Fun4All__TestBeam__Ana_8C.html#a1e83661a9f4f0cebf1a74882d14c7042" target="_top" xlink:title="Fun4All_TestBeam_Ana">
<polygon fill="none" stroke="#000000" points="178.5,-504.5 178.5,-524.5 310.5,-524.5 310.5,-504.5 178.5,-504.5"/>
<text text-anchor="middle" x="244.5" y="-511.5" font-family="FreeSans" font-size="10.00" fill="#000000">Fun4All_TestBeam_Ana</text>
</a>
</g>
</g>
<!-- Node1&#45;&gt;Node32 -->
<g id="edge31" class="edge">
<title>Node1&#45;&gt;Node32</title>
<path fill="none" stroke="#191970" d="M66.2563,-864.3481C77.4169,-790.2435 112.6375,-581.2062 161,-534.5 166.0396,-529.633 172.0432,-525.879 178.487,-522.9933"/>
<polygon fill="#191970" stroke="#191970" points="62.7902,-863.8618 64.7855,-874.2671 69.7145,-864.8886 62.7902,-863.8618"/>
</g>
<!-- Node33 -->
<g id="node33" class="node">
<title>Node33</title>
<g id="a_node33"><a xlink:href="../../d5/dea/Prototype3_2tutorial_2macros_2Fun4All__TestBeam__ExampleAnalysisModule_8C.html#ac17bc4f48545f942d364bb65b05b2221" target="_top" xlink:title="Fun4All_TestBeam_Example\lAnalysisModule">
<polygon fill="none" stroke="#000000" points="166,-453.5 166,-485.5 323,-485.5 323,-453.5 166,-453.5"/>
<text text-anchor="start" x="174" y="-472.5" font-family="FreeSans" font-size="10.00" fill="#000000">Fun4All_TestBeam_Example</text>
<text text-anchor="middle" x="244.5" y="-460.5" font-family="FreeSans" font-size="10.00" fill="#000000">AnalysisModule</text>
</a>
</g>
</g>
<!-- Node1&#45;&gt;Node33 -->
<g id="edge32" class="edge">
<title>Node1&#45;&gt;Node33</title>
<path fill="none" stroke="#191970" d="M65.6673,-864.3634C75.7617,-785.1738 109.5632,-549.9817 161,-495.5 164.6481,-491.636 168.8594,-488.3425 173.4118,-485.5358"/>
<polygon fill="#191970" stroke="#191970" points="62.1719,-864.1093 64.4009,-874.467 69.1175,-864.9799 62.1719,-864.1093"/>
</g>
<!-- Node34 -->
<g id="node34" class="node">
<title>Node34</title>
<g id="a_node34"><a xlink:href="../../dc/d48/Fun4All__TestBeam__HCAL__ShowerCalib_8C.html#adb5f83ea3aeefbb2d4b78ce046a8478a" target="_top" xlink:title="Fun4All_TestBeam_HCAL\l_ShowerCalib">
<polygon fill="none" stroke="#000000" points="174.5,-402.5 174.5,-434.5 314.5,-434.5 314.5,-402.5 174.5,-402.5"/>
<text text-anchor="start" x="182.5" y="-421.5" font-family="FreeSans" font-size="10.00" fill="#000000">Fun4All_TestBeam_HCAL</text>
<text text-anchor="middle" x="244.5" y="-409.5" font-family="FreeSans" font-size="10.00" fill="#000000">_ShowerCalib</text>
</a>
</g>
</g>
<!-- Node1&#45;&gt;Node34 -->
<g id="edge33" class="edge">
<title>Node1&#45;&gt;Node34</title>
<path fill="none" stroke="#191970" d="M64.8789,-864.1881C73.1642,-778.1592 103.4323,-507.1499 161,-444.5 164.9037,-440.2516 169.4884,-436.6916 174.4657,-433.7092"/>
<polygon fill="#191970" stroke="#191970" points="61.3702,-864.1169 63.9157,-874.4014 68.3392,-864.7742 61.3702,-864.1169"/>
</g>
<!-- Node35 -->
<g id="node35" class="node">
<title>Node35</title>
<g id="a_node35"><a xlink:href="../../df/d20/Fun4All__TestBeam__TPC_8C.html#ab5c55528b75bbb40d3cf6df86cfd8ac1" target="_top" xlink:title="Fun4All_TestBeam_TPC">
<polygon fill="none" stroke="#000000" points="178.5,-363.5 178.5,-383.5 310.5,-383.5 310.5,-363.5 178.5,-363.5"/>
<text text-anchor="middle" x="244.5" y="-370.5" font-family="FreeSans" font-size="10.00" fill="#000000">Fun4All_TestBeam_TPC</text>
</a>
</g>
</g>
<!-- Node1&#45;&gt;Node35 -->
<g id="edge34" class="edge">
<title>Node1&#45;&gt;Node35</title>
<path fill="none" stroke="#191970" d="M64.0621,-864.1133C70.0885,-771.3738 94.8785,-462.282 161,-393.5 165.8554,-388.4492 171.7425,-384.5789 178.1187,-381.6258"/>
<polygon fill="#191970" stroke="#191970" points="60.5548,-864.1194 63.4187,-874.3198 67.541,-864.5599 60.5548,-864.1194"/>
</g>
<!-- Node36 -->
<g id="node36" class="node">
<title>Node36</title>
<g id="a_node36"><a xlink:href="../../d9/da0/G4TTree_8C.html#a7e873c78b05882087e257d133fde3c67" target="_top" xlink:title="G4TTree">
<polygon fill="none" stroke="#000000" points="216,-324.5 216,-344.5 273,-344.5 273,-324.5 216,-324.5"/>
<text text-anchor="middle" x="244.5" y="-331.5" font-family="FreeSans" font-size="10.00" fill="#000000">G4TTree</text>
</a>
</g>
</g>
<!-- Node1&#45;&gt;Node36 -->
<g id="edge35" class="edge">
<title>Node1&#45;&gt;Node36</title>
<path fill="none" stroke="#191970" d="M63.6387,-864.2961C68.3944,-767.1821 89.8602,-429.5401 161,-354.5 174.9477,-339.7876 197.6419,-335.0626 215.853,-333.8656"/>
<polygon fill="#191970" stroke="#191970" points="60.1361,-864.27 63.1614,-874.4237 67.1283,-864.5996 60.1361,-864.27"/>
</g>
<!-- Node37 -->
<g id="node37" class="node">
<title>Node37</title>
<g id="a_node37"><a xlink:href="../../d0/d99/Jin__BJet_8C.html#a36169bfee2ed7efda633944d12aebad9" target="_top" xlink:title="Jin_BJet">
<polygon fill="none" stroke="#000000" points="217,-285.5 217,-305.5 272,-305.5 272,-285.5 217,-285.5"/>
<text text-anchor="middle" x="244.5" y="-292.5" font-family="FreeSans" font-size="10.00" fill="#000000">Jin_BJet</text>
</a>
</g>
</g>
<!-- Node1&#45;&gt;Node37 -->
<g id="edge36" class="edge">
<title>Node1&#45;&gt;Node37</title>
<path fill="none" stroke="#191970" d="M63.2783,-864.3879C66.8382,-762.9692 84.8467,-396.8067 161,-315.5 175.1642,-300.3772 198.5641,-295.7805 216.9944,-294.7377"/>
<polygon fill="#191970" stroke="#191970" points="59.78,-864.2819 62.9446,-874.393 66.7761,-864.5153 59.78,-864.2819"/>
</g>
<!-- Node38 -->
<g id="node38" class="node">
<title>Node38</title>
<g id="a_node38"><a xlink:href="../../d2/dc1/HistoBaseFiles_2MakeEdepNtuple_8C.html#ab3fc7b9dfdc157f52751ae85a32c5116" target="_top" xlink:title="MakeEdepNtuple">
<polygon fill="none" stroke="#000000" points="193.5,-246.5 193.5,-266.5 295.5,-266.5 295.5,-246.5 193.5,-246.5"/>
<text text-anchor="middle" x="244.5" y="-253.5" font-family="FreeSans" font-size="10.00" fill="#000000">MakeEdepNtuple</text>
</a>
</g>
</g>
<!-- Node1&#45;&gt;Node38 -->
<g id="edge37" class="edge">
<title>Node1&#45;&gt;Node38</title>
<path fill="none" stroke="#191970" d="M62.9672,-864.3626C65.3972,-758.6285 79.8482,-364.0682 161,-276.5 169.4098,-267.4252 181.1438,-262.1325 193.1623,-259.1233"/>
<polygon fill="#191970" stroke="#191970" points="59.4656,-864.4043 62.752,-874.4766 66.464,-864.5533 59.4656,-864.4043"/>
</g>
<!-- Node39 -->
<g id="node39" class="node">
<title>Node39</title>
<g id="a_node39"><a xlink:href="../../d8/d80/macros_2HistoBaseFiles_2MakeShowerSize_8C.html#a68ffa287657c0a82139e645c2381b920" target="_top" xlink:title="MakeShowerSize">
<polygon fill="none" stroke="#000000" points="194,-207.5 194,-227.5 295,-227.5 295,-207.5 194,-207.5"/>
<text text-anchor="middle" x="244.5" y="-214.5" font-family="FreeSans" font-size="10.00" fill="#000000">MakeShowerSize</text>
</a>
</g>
</g>
<!-- Node1&#45;&gt;Node39 -->
<g id="edge38" class="edge">
<title>Node1&#45;&gt;Node39</title>
<path fill="none" stroke="#191970" d="M64.7266,-864.3193C74.8145,-748.3702 117.6219,-284.7492 161,-237.5 169.5689,-228.1664 181.653,-222.8259 193.9732,-219.856"/>
<polygon fill="#191970" stroke="#191970" points="61.227,-864.1652 63.8535,-874.4292 68.201,-864.7675 61.227,-864.1652"/>
</g>
<!-- Node40 -->
<g id="node40" class="node">
<title>Node40</title>
<g id="a_node40"><a xlink:href="../../d5/d5a/block_2MyHitTTree_8C.html#a9e8ef49a847a7526e0c19d923a0486a7" target="_top" xlink:title="MyHitTTree">
<polygon fill="none" stroke="#000000" points="208.5,-168.5 208.5,-188.5 280.5,-188.5 280.5,-168.5 208.5,-168.5"/>
<text text-anchor="middle" x="244.5" y="-175.5" font-family="FreeSans" font-size="10.00" fill="#000000">MyHitTTree</text>
</a>
</g>
</g>
<!-- Node1&#45;&gt;Node40 -->
<g id="edge39" class="edge">
<title>Node1&#45;&gt;Node40</title>
<path fill="none" stroke="#191970" d="M64.495,-864.3111C73.8793,-744.1054 115.1011,-248.9145 161,-198.5 172.8417,-185.4933 191.5075,-180.2279 208.1905,-178.3307"/>
<polygon fill="#191970" stroke="#191970" points="60.9926,-864.2073 63.71,-874.4477 67.9717,-864.7478 60.9926,-864.2073"/>
</g>
<!-- Node41 -->
<g id="node41" class="node">
<title>Node41</title>
<g id="a_node41"><a xlink:href="../../d4/da9/classFun4AllInputManager.html#a56a5ff5007fc3dffcecda8573bb0d48f" target="_top" xlink:title="Fun4AllInputManager\l::OpenNextFile">
<polygon fill="none" stroke="#000000" points="182,-117.5 182,-149.5 307,-149.5 307,-117.5 182,-117.5"/>
<text text-anchor="start" x="190" y="-136.5" font-family="FreeSans" font-size="10.00" fill="#000000">Fun4AllInputManager</text>
<text text-anchor="middle" x="244.5" y="-124.5" font-family="FreeSans" font-size="10.00" fill="#000000">::OpenNextFile</text>
</a>
</g>
</g>
<!-- Node1&#45;&gt;Node41 -->
<g id="edge40" class="edge">
<title>Node1&#45;&gt;Node41</title>
<path fill="none" stroke="#191970" d="M64.3841,-864.1026C73.4915,-739.581 114.4245,-214.6353 161,-159.5 166.5848,-152.8888 173.8222,-147.9327 181.6994,-144.2224"/>
<polygon fill="#191970" stroke="#191970" points="60.8801,-864.0319 63.6471,-874.259 67.8617,-864.5386 60.8801,-864.0319"/>
</g>
<!-- Node48 -->
<g id="node48" class="node">
<title>Node48</title>
<g id="a_node48"><a xlink:href="../../d6/deb/PHGeom__DSTInspection_8C.html#a8a06a40e2950cd31dda512c040049cd0" target="_top" xlink:title="PHGeom_DSTInspection">
<polygon fill="none" stroke="#000000" points="176,-78.5 176,-98.5 313,-98.5 313,-78.5 176,-78.5"/>
<text text-anchor="middle" x="244.5" y="-85.5" font-family="FreeSans" font-size="10.00" fill="#000000">PHGeom_DSTInspection</text>
</a>
</g>
</g>
<!-- Node1&#45;&gt;Node48 -->
<g id="edge47" class="edge">
<title>Node1&#45;&gt;Node48</title>
<path fill="none" stroke="#191970" d="M64.0478,-864.2879C71.9303,-734.6822 109.2665,-166.2497 161,-108.5 165.1774,-103.8367 170.2317,-100.1653 175.7626,-97.2857"/>
<polygon fill="#191970" stroke="#191970" points="60.5417,-864.2861 63.434,-874.4785 67.529,-864.707 60.5417,-864.2861"/>
</g>
<!-- Node49 -->
<g id="node49" class="node">
<title>Node49</title>
<g id="a_node49"><a xlink:href="../../dc/dd1/run__macro_8C.html#a73349fa424161f0fc04887bbce22b0ea" target="_top" xlink:title="run_macro">
<polygon fill="none" stroke="#000000" points="209.5,-39.5 209.5,-59.5 279.5,-59.5 279.5,-39.5 209.5,-39.5"/>
<text text-anchor="middle" x="244.5" y="-46.5" font-family="FreeSans" font-size="10.00" fill="#000000">run_macro</text>
</a>
</g>
</g>
<!-- Node1&#45;&gt;Node49 -->
<g id="edge48" class="edge">
<title>Node1&#45;&gt;Node49</title>
<path fill="none" stroke="#191970" d="M63.8852,-864.2575C71.165,-730.7032 106.7342,-130.437 161,-69.5 172.9954,-56.03 192.3056,-50.8252 209.3361,-49.0818"/>
<polygon fill="#191970" stroke="#191970" points="60.3823,-864.2182 63.3385,-874.3922 67.3722,-864.5953 60.3823,-864.2182"/>
</g>
<!-- Node50 -->
<g id="node50" class="node">
<title>Node50</title>
<g id="a_node50"><a xlink:href="../../df/dba/run__macro__2_8C.html#aa266e87f39a21f702e9a635611c47fb0" target="_top" xlink:title="run_macro_2">
<polygon fill="none" stroke="#000000" points="204,-.5 204,-20.5 285,-20.5 285,-.5 204,-.5"/>
<text text-anchor="middle" x="244.5" y="-7.5" font-family="FreeSans" font-size="10.00" fill="#000000">run_macro_2</text>
</a>
</g>
</g>
<!-- Node1&#45;&gt;Node50 -->
<g id="edge49" class="edge">
<title>Node1&#45;&gt;Node50</title>
<path fill="none" stroke="#191970" d="M63.7325,-864.3204C70.4226,-727.0978 104.1854,-94.6449 161,-30.5 171.6743,-18.4485 188.2034,-13.0058 203.7475,-10.7408"/>
<polygon fill="#191970" stroke="#191970" points="60.2342,-864.2012 63.2486,-874.3581 67.2261,-864.5383 60.2342,-864.2012"/>
</g>
<!-- Node3 -->
<g id="node3" class="node">
<title>Node3</title>
<g id="a_node3"><a xlink:href="../../d3/d7f/Fun_8C.html#af69a3eef3ff244bb51f5740c6ecb5432" target="_top" xlink:title="Fun">
<polygon fill="none" stroke="#000000" points="454,-1791.5 454,-1811.5 488,-1811.5 488,-1791.5 454,-1791.5"/>
<text text-anchor="middle" x="471" y="-1798.5" font-family="FreeSans" font-size="10.00" fill="#000000">Fun</text>
</a>
</g>
</g>
<!-- Node2&#45;&gt;Node3 -->
<g id="edge2" class="edge">
<title>Node2&#45;&gt;Node3</title>
<path fill="none" stroke="#191970" d="M300.6902,-1801.5C350.9599,-1801.5 421.534,-1801.5 453.7468,-1801.5"/>
<polygon fill="#191970" stroke="#191970" points="300.6087,-1798.0001 290.6087,-1801.5 300.6086,-1805.0001 300.6087,-1798.0001"/>
</g>
<!-- Node42 -->
<g id="node42" class="node">
<title>Node42</title>
<g id="a_node42"><a xlink:href="../../d6/d6f/classFun4AllHepMCInputManager.html#ab6c80a8ee0701bfff5eee3ec3623015c" target="_top" xlink:title="Fun4AllHepMCInputManager::run">
<polygon fill="none" stroke="#000000" points="379.5,-220.5 379.5,-240.5 562.5,-240.5 562.5,-220.5 379.5,-220.5"/>
<text text-anchor="middle" x="471" y="-227.5" font-family="FreeSans" font-size="10.00" fill="#000000">Fun4AllHepMCInputManager::run</text>
</a>
</g>
</g>
<!-- Node41&#45;&gt;Node42 -->
<g id="edge41" class="edge">
<title>Node41&#45;&gt;Node42</title>
<path fill="none" stroke="#191970" d="M316.4584,-152.32C320.5078,-154.4651 324.3922,-156.8498 328,-159.5 350.6539,-176.141 340.3424,-196.3197 364,-211.5 369.5577,-215.0662 375.5957,-218.0124 381.8789,-220.4415"/>
<polygon fill="#191970" stroke="#191970" points="317.9069,-149.1333 307.3732,-147.9967 314.899,-155.4541 317.9069,-149.1333"/>
</g>
<!-- Node43 -->
<g id="node43" class="node">
<title>Node43</title>
<g id="a_node43"><a xlink:href="../../de/d99/classFun4AllHepMCPileupInputManager.html#a81bf2b69c3c4d3aae0aadebafe1c2c2e" target="_top" xlink:title="Fun4AllHepMCPileupInputManager::run">
<polygon fill="none" stroke="#000000" points="364,-181.5 364,-201.5 578,-201.5 578,-181.5 364,-181.5"/>
<text text-anchor="middle" x="471" y="-188.5" font-family="FreeSans" font-size="10.00" fill="#000000">Fun4AllHepMCPileupInputManager::run</text>
</a>
</g>
</g>
<!-- Node41&#45;&gt;Node43 -->
<g id="edge42" class="edge">
<title>Node41&#45;&gt;Node43</title>
<path fill="none" stroke="#191970" d="M306.8668,-152.5841C314.0086,-154.8688 321.1728,-157.2057 328,-159.5 344.1251,-164.9189 347.5655,-168.108 364,-172.5 376.9414,-175.9585 390.9348,-178.96 404.4011,-181.4921"/>
<polygon fill="#191970" stroke="#191970" points="307.7658,-149.1974 297.1755,-149.5096 305.649,-155.8697 307.7658,-149.1974"/>
</g>
<!-- Node44 -->
<g id="node44" class="node">
<title>Node44</title>
<g id="a_node44"><a xlink:href="../../db/d1f/classFun4AllOscarInputManager.html#a4be602bd8c9fe73f9dcc81c8871784a6" target="_top" xlink:title="Fun4AllOscarInputManager::run">
<polygon fill="none" stroke="#000000" points="383,-142.5 383,-162.5 559,-162.5 559,-142.5 383,-142.5"/>
<text text-anchor="middle" x="471" y="-149.5" font-family="FreeSans" font-size="10.00" fill="#000000">Fun4AllOscarInputManager::run</text>
</a>
</g>
</g>
<!-- Node41&#45;&gt;Node44 -->
<g id="edge43" class="edge">
<title>Node41&#45;&gt;Node44</title>
<path fill="none" stroke="#191970" d="M317.3212,-139.6086C338.1239,-141.3537 361.0214,-143.2744 382.645,-145.0883"/>
<polygon fill="#191970" stroke="#191970" points="317.5497,-136.1156 307.2921,-138.7673 316.9645,-143.0911 317.5497,-136.1156"/>
</g>
<!-- Node45 -->
<g id="node45" class="node">
<title>Node45</title>
<g id="a_node45"><a xlink:href="../../d7/d0b/classFun4AllDstInputManager.html#aeafa0248f9050c13fdae1bcb93336d7a" target="_top" xlink:title="Fun4AllDstInputManager::run">
<polygon fill="none" stroke="#000000" points="389,-103.5 389,-123.5 553,-123.5 553,-103.5 389,-103.5"/>
<text text-anchor="middle" x="471" y="-110.5" font-family="FreeSans" font-size="10.00" fill="#000000">Fun4AllDstInputManager::run</text>
</a>
</g>
</g>
<!-- Node41&#45;&gt;Node45 -->
<g id="edge44" class="edge">
<title>Node41&#45;&gt;Node45</title>
<path fill="none" stroke="#191970" d="M317.2591,-127.0754C340.1177,-125.0569 365.5109,-122.8147 388.9662,-120.7436"/>
<polygon fill="#191970" stroke="#191970" points="316.9454,-123.5893 307.2921,-127.9554 317.5612,-130.5622 316.9454,-123.5893"/>
</g>
<!-- Node46 -->
<g id="node46" class="node">
<title>Node46</title>
<g id="a_node46"><a xlink:href="../../d7/d0b/classFun4AllDstInputManager.html#ade26017b627e0e1f1ec0dec62ac7fd52" target="_top" xlink:title="Fun4AllDstInputManager\l::ReadNextEventSyncObject">
<polygon fill="none" stroke="#ff0000" points="392,-52.5 392,-84.5 550,-84.5 550,-52.5 392,-52.5"/>
<text text-anchor="start" x="400" y="-71.5" font-family="FreeSans" font-size="10.00" fill="#000000">Fun4AllDstInputManager</text>
<text text-anchor="middle" x="471" y="-59.5" font-family="FreeSans" font-size="10.00" fill="#000000">::ReadNextEventSyncObject</text>
</a>
</g>
</g>
<!-- Node41&#45;&gt;Node46 -->
<g id="edge45" class="edge">
<title>Node41&#45;&gt;Node46</title>
<path fill="none" stroke="#191970" d="M309.9854,-114.4389C316.0958,-112.4964 322.177,-110.5004 328,-108.5 344.236,-102.9225 347.6231,-99.6492 364,-94.5 375.3068,-90.9449 387.4129,-87.5868 399.268,-84.5388"/>
<polygon fill="#191970" stroke="#191970" points="308.8911,-111.1139 300.3924,-117.4403 310.9813,-117.7946 308.8911,-111.1139"/>
</g>
<!-- Node47 -->
<g id="node47" class="node">
<title>Node47</title>
<g id="a_node47"><a xlink:href="../../da/dd8/classFun4AllPrdfInputManager.html#ac3f313ef5571ce32cd40799791e2ea56" target="_top" xlink:title="Fun4AllPrdfInputManager::run">
<polygon fill="none" stroke="#000000" points="387.5,-13.5 387.5,-33.5 554.5,-33.5 554.5,-13.5 387.5,-13.5"/>
<text text-anchor="middle" x="471" y="-20.5" font-family="FreeSans" font-size="10.00" fill="#000000">Fun4AllPrdfInputManager::run</text>
</a>
</g>
</g>
<!-- Node41&#45;&gt;Node47 -->
<g id="edge46" class="edge">
<title>Node41&#45;&gt;Node47</title>
<path fill="none" stroke="#191970" d="M316.5365,-116.1207C320.5944,-113.8811 324.4569,-111.3532 328,-108.5 353.7208,-87.7874 337.2169,-62.8193 364,-43.5 371.0503,-38.4144 379.0217,-34.5107 387.3556,-31.5284"/>
<polygon fill="#191970" stroke="#191970" points="314.8457,-113.0511 307.3887,-120.5774 317.9115,-119.344 314.8457,-113.0511"/>
</g>
</g>
</svg>
