<?xml version="1.0" encoding="UTF-8" standalone="no"?>
<!DOCTYPE svg PUBLIC "-//W3C//DTD SVG 1.1//EN"
 "http://www.w3.org/Graphics/SVG/1.1/DTD/svg11.dtd">
<!-- Generated by graphviz version 2.40.1 (20161225.0304)
 -->
<!-- Title: Fun4AllInputManager::AddFile Pages: 1 -->
<svg width="513pt" height="730pt"
 viewBox="0.00 0.00 513.00 730.00" xmlns="http://www.w3.org/2000/svg" xmlns:xlink="http://www.w3.org/1999/xlink">
<g id="graph0" class="graph" transform="scale(1 1) rotate(0) translate(4 726)">
<title>Fun4AllInputManager::AddFile</title>
<!-- Node1 -->
<g id="node1" class="node">
<title>Node1</title>
<polygon fill="#bfbfbf" stroke="#000000" points="0,-186.5 0,-218.5 125,-218.5 125,-186.5 0,-186.5"/>
<text text-anchor="start" x="8" y="-205.5" font-family="FreeSans" font-size="10.00" fill="#000000">Fun4AllInputManager</text>
<text text-anchor="middle" x="62.5" y="-193.5" font-family="FreeSans" font-size="10.00" fill="#000000">::AddFile</text>
</g>
<!-- Node2 -->
<g id="node2" class="node">
<title>Node2</title>
<g id="a_node2"><a xlink:href="../../d4/da9/classFun4AllInputManager.html#abde8a46c891ecd025daefd1e1ff79569" target="_top" xlink:title="Fun4AllInputManager\l::AddListFile">
<polygon fill="none" stroke="#000000" points="164.5,-353.5 164.5,-385.5 289.5,-385.5 289.5,-353.5 164.5,-353.5"/>
<text text-anchor="start" x="172.5" y="-372.5" font-family="FreeSans" font-size="10.00" fill="#000000">Fun4AllInputManager</text>
<text text-anchor="middle" x="227" y="-360.5" font-family="FreeSans" font-size="10.00" fill="#000000">::AddListFile</text>
</a>
</g>
</g>
<!-- Node1&#45;&gt;Node2 -->
<g id="edge1" class="edge">
<title>Node1&#45;&gt;Node2</title>
<path fill="none" stroke="#191970" d="M85.4329,-225.7815C119.2721,-260.1349 181.729,-323.541 211.0331,-353.2904"/>
<polygon fill="#191970" stroke="#191970" points="87.784,-223.1807 78.273,-218.5127 82.797,-228.093 87.784,-223.1807"/>
</g>
<!-- Node5 -->
<g id="node5" class="node">
<title>Node5</title>
<g id="a_node5"><a xlink:href="../../d6/d5d/RunBDiJetModule_8C.html#a554fde97a26ea668bc2f32b294103192" target="_top" xlink:title="RunBDiJetModule">
<polygon fill="none" stroke="#000000" points="365.5,-701.5 365.5,-721.5 468.5,-721.5 468.5,-701.5 365.5,-701.5"/>
<text text-anchor="middle" x="417" y="-708.5" font-family="FreeSans" font-size="10.00" fill="#000000">RunBDiJetModule</text>
</a>
</g>
</g>
<!-- Node1&#45;&gt;Node5 -->
<g id="edge25" class="edge">
<title>Node1&#45;&gt;Node5</title>
<path fill="none" stroke="#191970" d="M66.6816,-228.7992C79.2642,-305.4598 118.5335,-526.9742 161,-585.5 212.9895,-657.1501 247.1185,-658.8538 329,-692.5 340.4209,-697.193 353.1733,-700.7989 365.3476,-703.5418"/>
<polygon fill="#191970" stroke="#191970" points="70.0792,-227.886 65.0216,-218.5763 63.1697,-229.008 70.0792,-227.886"/>
</g>
<!-- Node6 -->
<g id="node6" class="node">
<title>Node6</title>
<g id="a_node6"><a xlink:href="../../d0/df6/RunBJetModule_8C.html#a1f9a3833ba8496c693bb4448e7bf4bb7" target="_top" xlink:title="RunBJetModule">
<polygon fill="none" stroke="#000000" points="371,-662.5 371,-682.5 463,-682.5 463,-662.5 371,-662.5"/>
<text text-anchor="middle" x="417" y="-669.5" font-family="FreeSans" font-size="10.00" fill="#000000">RunBJetModule</text>
</a>
</g>
</g>
<!-- Node1&#45;&gt;Node6 -->
<g id="edge26" class="edge">
<title>Node1&#45;&gt;Node6</title>
<path fill="none" stroke="#191970" d="M65.9578,-228.5766C74.3382,-284.2708 99.7358,-417.268 161,-509.5 215.4125,-591.417 240.9083,-609.7853 329,-653.5 341.8807,-659.8919 356.8686,-664.1435 370.7856,-666.9676"/>
<polygon fill="#191970" stroke="#191970" points="69.3966,-227.9005 64.5031,-218.5035 62.4685,-228.9011 69.3966,-227.9005"/>
</g>
<!-- Node8 -->
<g id="node8" class="node">
<title>Node8</title>
<g id="a_node8"><a xlink:href="../../da/dd0/Fun4All__G4__sPHENIX__photonjet_8C.html#a6f18519e216acc05399e562ea57ea77c" target="_top" xlink:title="Fun4All_G4_sPHENIX\l_photonjet">
<polygon fill="none" stroke="#000000" points="356.5,-611.5 356.5,-643.5 477.5,-643.5 477.5,-611.5 356.5,-611.5"/>
<text text-anchor="start" x="364.5" y="-630.5" font-family="FreeSans" font-size="10.00" fill="#000000">Fun4All_G4_sPHENIX</text>
<text text-anchor="middle" x="417" y="-618.5" font-family="FreeSans" font-size="10.00" fill="#000000">_photonjet</text>
</a>
</g>
</g>
<!-- Node1&#45;&gt;Node8 -->
<g id="edge19" class="edge">
<title>Node1&#45;&gt;Node8</title>
<path fill="none" stroke="#191970" d="M71.5281,-228.5663C98.127,-301.1652 183.5835,-506.6213 329,-602.5 337.2209,-607.9204 346.6215,-612.1816 356.1481,-615.5273"/>
<polygon fill="#191970" stroke="#191970" points="74.7101,-227.0719 68.0307,-218.8478 68.1237,-229.4422 74.7101,-227.0719"/>
</g>
<!-- Node9 -->
<g id="node9" class="node">
<title>Node9</title>
<g id="a_node9"><a xlink:href="../../da/d85/Fun4All__G4__sPHENIX__photons_8C.html#a02fbbd59878fe1299f58ed187e7214ba" target="_top" xlink:title="Fun4All_G4_sPHENIX\l_photons">
<polygon fill="none" stroke="#000000" points="356.5,-224.5 356.5,-256.5 477.5,-256.5 477.5,-224.5 356.5,-224.5"/>
<text text-anchor="start" x="364.5" y="-243.5" font-family="FreeSans" font-size="10.00" fill="#000000">Fun4All_G4_sPHENIX</text>
<text text-anchor="middle" x="417" y="-231.5" font-family="FreeSans" font-size="10.00" fill="#000000">_photons</text>
</a>
</g>
</g>
<!-- Node1&#45;&gt;Node9 -->
<g id="edge20" class="edge">
<title>Node1&#45;&gt;Node9</title>
<path fill="none" stroke="#191970" d="M135.2648,-210.2999C200.4686,-217.2893 295.0092,-227.4234 356.2482,-233.9878"/>
<polygon fill="#191970" stroke="#191970" points="135.3776,-206.792 125.0615,-209.2062 134.6314,-213.7521 135.3776,-206.792"/>
</g>
<!-- Node10 -->
<g id="node10" class="node">
<title>Node10</title>
<g id="a_node10"><a xlink:href="../../de/d55/Fun4All__G4__sPHENIX__truthphotonjet_8C.html#a48a6f4503eaa1b3793d8ae572aa795b9" target="_top" xlink:title="Fun4All_G4_sPHENIX\l_truthphotonjet">
<polygon fill="none" stroke="#000000" points="356.5,-173.5 356.5,-205.5 477.5,-205.5 477.5,-173.5 356.5,-173.5"/>
<text text-anchor="start" x="364.5" y="-192.5" font-family="FreeSans" font-size="10.00" fill="#000000">Fun4All_G4_sPHENIX</text>
<text text-anchor="middle" x="417" y="-180.5" font-family="FreeSans" font-size="10.00" fill="#000000">_truthphotonjet</text>
</a>
</g>
</g>
<!-- Node1&#45;&gt;Node10 -->
<g id="edge21" class="edge">
<title>Node1&#45;&gt;Node10</title>
<path fill="none" stroke="#191970" d="M135.2648,-199.8316C200.4686,-197.4405 295.0092,-193.9736 356.2482,-191.7279"/>
<polygon fill="#191970" stroke="#191970" points="134.9264,-196.3416 125.0615,-200.2058 135.183,-203.3369 134.9264,-196.3416"/>
</g>
<!-- Node15 -->
<g id="node15" class="node">
<title>Node15</title>
<g id="a_node15"><a xlink:href="../../d2/ddd/RunGenFitTrackProp_8C.html#abdf5ca8118c5634cd93315758e746033" target="_top" xlink:title="RunGenFitTrackProp">
<polygon fill="none" stroke="#000000" points="358.5,-134.5 358.5,-154.5 475.5,-154.5 475.5,-134.5 358.5,-134.5"/>
<text text-anchor="middle" x="417" y="-141.5" font-family="FreeSans" font-size="10.00" fill="#000000">RunGenFitTrackProp</text>
</a>
</g>
</g>
<!-- Node1&#45;&gt;Node15 -->
<g id="edge27" class="edge">
<title>Node1&#45;&gt;Node15</title>
<path fill="none" stroke="#191970" d="M134.9699,-190.6432C200.9152,-179.8538 297.0472,-164.1256 358.3008,-154.1038"/>
<polygon fill="#191970" stroke="#191970" points="134.3651,-187.1955 125.0615,-192.2643 135.4954,-194.1036 134.3651,-187.1955"/>
</g>
<!-- Node17 -->
<g id="node17" class="node">
<title>Node17</title>
<g id="a_node17"><a xlink:href="../../d5/d2c/macros_2blob_2master_2macros_2g4simulations_2Fun4All__G4__sPHENIX_8C.html#a6eaaa492d7023ec86c562dc63aa1e5a4" target="_top" xlink:title="Fun4All_G4_sPHENIX">
<polygon fill="none" stroke="#000000" points="356.5,-95.5 356.5,-115.5 477.5,-115.5 477.5,-95.5 356.5,-95.5"/>
<text text-anchor="middle" x="417" y="-102.5" font-family="FreeSans" font-size="10.00" fill="#000000">Fun4All_G4_sPHENIX</text>
</a>
</g>
</g>
<!-- Node1&#45;&gt;Node17 -->
<g id="edge18" class="edge">
<title>Node1&#45;&gt;Node17</title>
<path fill="none" stroke="#191970" d="M104.8256,-182.3465C121.9831,-174.7354 142.1622,-166.4791 161,-160.5 226.5343,-139.6996 303.9922,-124.279 356.4083,-115.142"/>
<polygon fill="#191970" stroke="#191970" points="103.3108,-179.1901 95.6321,-186.4899 106.1871,-185.5719 103.3108,-179.1901"/>
</g>
<!-- Node18 -->
<g id="node18" class="node">
<title>Node18</title>
<g id="a_node18"><a xlink:href="../../de/da9/ReadClustersRunTracking_8C.html#ae0216e7ee610ee6cb8ebc2392d00431b" target="_top" xlink:title="ReadClustersRunTracking">
<polygon fill="none" stroke="#000000" points="345,-56.5 345,-76.5 489,-76.5 489,-56.5 345,-56.5"/>
<text text-anchor="middle" x="417" y="-63.5" font-family="FreeSans" font-size="10.00" fill="#000000">ReadClustersRunTracking</text>
</a>
</g>
</g>
<!-- Node1&#45;&gt;Node18 -->
<g id="edge24" class="edge">
<title>Node1&#45;&gt;Node18</title>
<path fill="none" stroke="#191970" d="M85.001,-178.9932C103.6832,-160.8598 131.8317,-136.5702 161,-122.5 219.2898,-94.3822 291.8438,-80.2218 344.812,-73.1893"/>
<polygon fill="#191970" stroke="#191970" points="82.2307,-176.8114 77.5985,-186.34 87.1618,-181.7798 82.2307,-176.8114"/>
</g>
<!-- Node19 -->
<g id="node19" class="node">
<title>Node19</title>
<g id="a_node19"><a xlink:href="../../d4/d65/Fun4All__single__particle_8C.html#a8a492b5dbead494bfdddbebde8a49b0e" target="_top" xlink:title="Fun4All_single_particle">
<polygon fill="none" stroke="#000000" points="161,-39.5 161,-59.5 293,-59.5 293,-39.5 161,-39.5"/>
<text text-anchor="middle" x="227" y="-46.5" font-family="FreeSans" font-size="10.00" fill="#000000">Fun4All_single_particle</text>
</a>
</g>
</g>
<!-- Node1&#45;&gt;Node19 -->
<g id="edge22" class="edge">
<title>Node1&#45;&gt;Node19</title>
<path fill="none" stroke="#191970" d="M76.0038,-177.4801C92.5706,-148.9314 123.1711,-102.5771 161,-74.5 169.4615,-68.2198 179.6862,-63.3377 189.5347,-59.6232"/>
<polygon fill="#191970" stroke="#191970" points="72.8189,-176.0013 70.9334,-186.4271 78.9089,-179.4527 72.8189,-176.0013"/>
</g>
<!-- Node20 -->
<g id="node20" class="node">
<title>Node20</title>
<g id="a_node20"><a xlink:href="../../d0/d99/Jin__BJet_8C.html#a36169bfee2ed7efda633944d12aebad9" target="_top" xlink:title="Jin_BJet">
<polygon fill="none" stroke="#000000" points="199.5,-.5 199.5,-20.5 254.5,-20.5 254.5,-.5 199.5,-.5"/>
<text text-anchor="middle" x="227" y="-7.5" font-family="FreeSans" font-size="10.00" fill="#000000">Jin_BJet</text>
</a>
</g>
</g>
<!-- Node1&#45;&gt;Node20 -->
<g id="edge23" class="edge">
<title>Node1&#45;&gt;Node20</title>
<path fill="none" stroke="#191970" d="M70.2544,-176.6062C82.9612,-138.6378 111.845,-68.1842 161,-29.5 171.9629,-20.8723 186.691,-16.1622 199.4527,-13.5909"/>
<polygon fill="#191970" stroke="#191970" points="66.8341,-175.8088 67.096,-186.4004 73.4963,-177.9572 66.8341,-175.8088"/>
</g>
<!-- Node3 -->
<g id="node3" class="node">
<title>Node3</title>
<g id="a_node3"><a xlink:href="../../dc/d81/condor_2MakeShowerSize_8C.html#a725a09873df2005bf77ed0cf52eca694" target="_top" xlink:title="MakeShowerSize">
<polygon fill="none" stroke="#000000" points="366.5,-572.5 366.5,-592.5 467.5,-592.5 467.5,-572.5 366.5,-572.5"/>
<text text-anchor="middle" x="417" y="-579.5" font-family="FreeSans" font-size="10.00" fill="#000000">MakeShowerSize</text>
</a>
</g>
</g>
<!-- Node2&#45;&gt;Node3 -->
<g id="edge2" class="edge">
<title>Node2&#45;&gt;Node3</title>
<path fill="none" stroke="#191970" d="M238.9278,-395.0229C262.5311,-445.0768 314.1934,-552.2511 329,-563.5 339.7032,-571.6314 353.1463,-576.4438 366.2806,-579.2494"/>
<polygon fill="#191970" stroke="#191970" points="242.0228,-393.3796 234.6005,-385.8191 235.688,-396.358 242.0228,-393.3796"/>
</g>
<!-- Node4 -->
<g id="node4" class="node">
<title>Node4</title>
<g id="a_node4"><a xlink:href="../../de/dc8/Fun4All__EMCalLikelihood_8C.html#a209f0d5788c9d3adba2967f194bca64a" target="_top" xlink:title="Fun4All_EMCalLikelihood">
<polygon fill="none" stroke="#000000" points="346.5,-533.5 346.5,-553.5 487.5,-553.5 487.5,-533.5 346.5,-533.5"/>
<text text-anchor="middle" x="417" y="-540.5" font-family="FreeSans" font-size="10.00" fill="#000000">Fun4All_EMCalLikelihood</text>
</a>
</g>
</g>
<!-- Node2&#45;&gt;Node4 -->
<g id="edge3" class="edge">
<title>Node2&#45;&gt;Node4</title>
<path fill="none" stroke="#191970" d="M236.5898,-395.1798C251.0426,-430.177 281.8361,-492.1843 329,-524.5 334.2864,-528.1221 340.1367,-531.0714 346.2346,-533.4704"/>
<polygon fill="#191970" stroke="#191970" points="239.7471,-393.6483 232.7875,-385.6599 233.2464,-396.2448 239.7471,-393.6483"/>
</g>
<!-- Node2&#45;&gt;Node5 -->
<g id="edge4" class="edge">
<title>Node2&#45;&gt;Node5</title>
<path fill="none" stroke="#191970" d="M231.8482,-396.037C245.1113,-465.7515 284.019,-651.5287 329,-692.5 338.9373,-701.5514 352.1291,-706.6657 365.2674,-709.4665"/>
<polygon fill="#191970" stroke="#191970" points="235.2274,-395.0674 229.9427,-385.8847 228.3476,-396.3587 235.2274,-395.0674"/>
</g>
<!-- Node2&#45;&gt;Node6 -->
<g id="edge5" class="edge">
<title>Node2&#45;&gt;Node6</title>
<path fill="none" stroke="#191970" d="M233.003,-395.801C248.0128,-459.2994 288.8579,-618.3412 329,-653.5 340.5225,-663.5921 356.119,-668.7418 370.9819,-671.2541"/>
<polygon fill="#191970" stroke="#191970" points="236.3457,-394.724 230.6625,-385.7824 229.5292,-396.3165 236.3457,-394.724"/>
</g>
<!-- Node7 -->
<g id="node7" class="node">
<title>Node7</title>
<g id="a_node7"><a xlink:href="../../d0/da6/Fun4All__G4__fsPHENIX__pi0_8C.html#a023d91d47b678e5d7f1751834aa517c6" target="_top" xlink:title="Fun4All_G4_fsPHENIX_pi0">
<polygon fill="none" stroke="#000000" points="344.5,-494.5 344.5,-514.5 489.5,-514.5 489.5,-494.5 344.5,-494.5"/>
<text text-anchor="middle" x="417" y="-501.5" font-family="FreeSans" font-size="10.00" fill="#000000">Fun4All_G4_fsPHENIX_pi0</text>
</a>
</g>
</g>
<!-- Node2&#45;&gt;Node7 -->
<g id="edge6" class="edge">
<title>Node2&#45;&gt;Node7</title>
<path fill="none" stroke="#191970" d="M241.885,-394.319C259.317,-421.1317 290.7337,-463.0232 329,-485.5 335.1994,-489.1414 342.0122,-492.0876 349.0178,-494.4709"/>
<polygon fill="#191970" stroke="#191970" points="244.6207,-392.0969 236.314,-385.5205 238.7065,-395.8416 244.6207,-392.0969"/>
</g>
<!-- Node2&#45;&gt;Node8 -->
<g id="edge7" class="edge">
<title>Node2&#45;&gt;Node8</title>
<path fill="none" stroke="#191970" d="M240.1109,-394.9452C253.9604,-422.2161 276.0909,-466.9323 293,-506.5 310.9068,-548.4022 295.4853,-571.6259 329,-602.5 336.7096,-609.6022 346.2931,-614.704 356.2718,-618.3648"/>
<polygon fill="#191970" stroke="#191970" points="243.071,-393.0457 235.4081,-385.7292 236.8358,-396.2274 243.071,-393.0457"/>
</g>
<!-- Node2&#45;&gt;Node9 -->
<g id="edge8" class="edge">
<title>Node2&#45;&gt;Node9</title>
<path fill="none" stroke="#191970" d="M244.8941,-345.3721C263.4603,-321.9762 294.5629,-287.0855 329,-266.5 337.341,-261.514 346.7035,-257.4279 356.1271,-254.0959"/>
<polygon fill="#191970" stroke="#191970" points="242.0098,-343.3797 238.6382,-353.4237 247.5375,-347.6745 242.0098,-343.3797"/>
</g>
<!-- Node2&#45;&gt;Node10 -->
<g id="edge9" class="edge">
<title>Node2&#45;&gt;Node10</title>
<path fill="none" stroke="#191970" d="M237.2142,-343.9443C252.2199,-309.6479 283.4655,-249.1581 329,-215.5 337.0708,-209.5343 346.4987,-204.9302 356.127,-201.3788"/>
<polygon fill="#191970" stroke="#191970" points="233.9352,-342.7116 233.2471,-353.284 240.3781,-345.4483 233.9352,-342.7116"/>
</g>
<!-- Node11 -->
<g id="node11" class="node">
<title>Node11</title>
<g id="a_node11"><a xlink:href="../../d6/dfd/Prototype2_2EMCal_2macros_2Fun4All__TestBeam__ShowerCalib_8C.html#a8380c0c3880f8e24172bce9ba834af7e" target="_top" xlink:title="Fun4All_TestBeam_ShowerCalib">
<polygon fill="none" stroke="#000000" points="329,-455.5 329,-475.5 505,-475.5 505,-455.5 329,-455.5"/>
<text text-anchor="middle" x="417" y="-462.5" font-family="FreeSans" font-size="10.00" fill="#000000">Fun4All_TestBeam_ShowerCalib</text>
</a>
</g>
</g>
<!-- Node2&#45;&gt;Node11 -->
<g id="edge10" class="edge">
<title>Node2&#45;&gt;Node11</title>
<path fill="none" stroke="#191970" d="M251.0417,-392.4948C270.5558,-409.8916 299.5706,-433.016 329,-446.5 336.8151,-450.0808 345.3341,-452.9999 353.8937,-455.3765"/>
<polygon fill="#191970" stroke="#191970" points="253.293,-389.8112 243.5408,-385.6706 248.5823,-394.989 253.293,-389.8112"/>
</g>
<!-- Node12 -->
<g id="node12" class="node">
<title>Node12</title>
<g id="a_node12"><a xlink:href="../../d2/dae/Fun4All__TestBeam__HCAL__SampleFrac_8C.html#a3019c26e30442286874f351097a1be16" target="_top" xlink:title="Fun4All_TestBeam_HCAL\l_SampleFrac">
<polygon fill="none" stroke="#000000" points="347,-404.5 347,-436.5 487,-436.5 487,-404.5 347,-404.5"/>
<text text-anchor="start" x="355" y="-423.5" font-family="FreeSans" font-size="10.00" fill="#000000">Fun4All_TestBeam_HCAL</text>
<text text-anchor="middle" x="417" y="-411.5" font-family="FreeSans" font-size="10.00" fill="#000000">_SampleFrac</text>
</a>
</g>
</g>
<!-- Node2&#45;&gt;Node12 -->
<g id="edge11" class="edge">
<title>Node2&#45;&gt;Node12</title>
<path fill="none" stroke="#191970" d="M296.7442,-388.2208C316.5556,-393.5386 337.9472,-399.2806 357.1181,-404.4264"/>
<polygon fill="#191970" stroke="#191970" points="297.4219,-384.7789 286.8564,-385.5667 295.6071,-391.5396 297.4219,-384.7789"/>
</g>
<!-- Node13 -->
<g id="node13" class="node">
<title>Node13</title>
<g id="a_node13"><a xlink:href="../../d6/dc1/Fun4All__TestBeam__HCAL__TowerCalib_8C.html#a3998d1d20dbf4cc761c04692c060e081" target="_top" xlink:title="Fun4All_TestBeam_HCAL\l_TowerCalib">
<polygon fill="none" stroke="#000000" points="347,-353.5 347,-385.5 487,-385.5 487,-353.5 347,-353.5"/>
<text text-anchor="start" x="355" y="-372.5" font-family="FreeSans" font-size="10.00" fill="#000000">Fun4All_TestBeam_HCAL</text>
<text text-anchor="middle" x="417" y="-360.5" font-family="FreeSans" font-size="10.00" fill="#000000">_TowerCalib</text>
</a>
</g>
</g>
<!-- Node2&#45;&gt;Node13 -->
<g id="edge12" class="edge">
<title>Node2&#45;&gt;Node13</title>
<path fill="none" stroke="#191970" d="M299.7434,-369.5C315.1765,-369.5 331.44,-369.5 346.7771,-369.5"/>
<polygon fill="#191970" stroke="#191970" points="299.7397,-366.0001 289.7397,-369.5 299.7396,-373.0001 299.7397,-366.0001"/>
</g>
<!-- Node14 -->
<g id="node14" class="node">
<title>Node14</title>
<g id="a_node14"><a xlink:href="../../dd/db1/Wrapper_8cxx.html#abf1e42281903daa0752c80dd6c879fac" target="_top" xlink:title="Wrapper">
<polygon fill="none" stroke="#000000" points="387,-314.5 387,-334.5 447,-334.5 447,-314.5 387,-314.5"/>
<text text-anchor="middle" x="417" y="-321.5" font-family="FreeSans" font-size="10.00" fill="#000000">Wrapper</text>
</a>
</g>
</g>
<!-- Node2&#45;&gt;Node14 -->
<g id="edge13" class="edge">
<title>Node2&#45;&gt;Node14</title>
<path fill="none" stroke="#191970" d="M299.4016,-351.5947C309.34,-349.1836 319.4181,-346.7629 329,-344.5 348.2124,-339.9627 369.8304,-335.0468 386.8319,-331.2242"/>
<polygon fill="#191970" stroke="#191970" points="298.4219,-348.2309 289.5332,-353.9964 300.0773,-355.0323 298.4219,-348.2309"/>
</g>
<!-- Node2&#45;&gt;Node15 -->
<g id="edge14" class="edge">
<title>Node2&#45;&gt;Node15</title>
<path fill="none" stroke="#191970" d="M232.3315,-343.5684C242.7799,-299.5961 270.25,-210.6911 329,-164.5 337.4984,-157.8183 347.8085,-153.2855 358.3364,-150.2287"/>
<polygon fill="#191970" stroke="#191970" points="228.8822,-342.9535 230.0862,-353.4797 235.7092,-344.5001 228.8822,-342.9535"/>
</g>
<!-- Node16 -->
<g id="node16" class="node">
<title>Node16</title>
<g id="a_node16"><a xlink:href="../../d7/d9e/Fun4All__G4__fsPHENIX_8C.html#af48911d394d2412e817583700f2bbee2" target="_top" xlink:title="Fun4All_G4_fsPHENIX">
<polygon fill="none" stroke="#000000" points="355,-275.5 355,-295.5 479,-295.5 479,-275.5 355,-275.5"/>
<text text-anchor="middle" x="417" y="-282.5" font-family="FreeSans" font-size="10.00" fill="#000000">Fun4All_G4_fsPHENIX</text>
</a>
</g>
</g>
<!-- Node2&#45;&gt;Node16 -->
<g id="edge15" class="edge">
<title>Node2&#45;&gt;Node16</title>
<path fill="none" stroke="#191970" d="M256.3312,-347.3532C275.9707,-333.4932 302.9136,-316.2815 329,-305.5 338.7012,-301.4905 349.3522,-298.2098 359.7912,-295.551"/>
<polygon fill="#191970" stroke="#191970" points="254.1971,-344.5768 248.1186,-353.2544 258.2819,-350.2614 254.1971,-344.5768"/>
</g>
<!-- Node2&#45;&gt;Node17 -->
<g id="edge16" class="edge">
<title>Node2&#45;&gt;Node17</title>
<path fill="none" stroke="#191970" d="M230.0791,-343.414C237.4544,-293.1416 260.9025,-182.7599 329,-125.5 336.7945,-118.946 346.3041,-114.4308 356.1553,-111.3416"/>
<polygon fill="#191970" stroke="#191970" points="226.5919,-343.0825 228.7039,-353.4647 233.5273,-344.0315 226.5919,-343.0825"/>
</g>
<!-- Node2&#45;&gt;Node18 -->
<g id="edge17" class="edge">
<title>Node2&#45;&gt;Node18</title>
<path fill="none" stroke="#191970" d="M228.3002,-343.137C232.5728,-286.7358 250.8573,-153.9421 329,-85.5 333.7031,-81.3808 339.0848,-78.085 344.8184,-75.4558"/>
<polygon fill="#191970" stroke="#191970" points="224.7919,-343.1463 227.6189,-353.357 231.7764,-343.6119 224.7919,-343.1463"/>
</g>
</g>
</svg>
