<?xml version="1.0" encoding="UTF-8" standalone="no"?>
<!DOCTYPE svg PUBLIC "-//W3C//DTD SVG 1.1//EN"
 "http://www.w3.org/Graphics/SVG/1.1/DTD/svg11.dtd">
<!-- Generated by graphviz version 2.40.1 (20161225.0304)
 -->
<!-- Title: PHParameterInterface::set_int_param Pages: 1 -->
<svg width="523pt" height="248pt"
 viewBox="0.00 0.00 523.00 248.00" xmlns="http://www.w3.org/2000/svg" xmlns:xlink="http://www.w3.org/1999/xlink">
<g id="graph0" class="graph" transform="scale(1 1) rotate(0) translate(4 244)">
<title>PHParameterInterface::set_int_param</title>
<!-- Node1 -->
<g id="node1" class="node">
<title>Node1</title>
<polygon fill="#bfbfbf" stroke="#000000" points="0,-129.5 0,-161.5 127,-161.5 127,-129.5 0,-129.5"/>
<text text-anchor="start" x="8" y="-148.5" font-family="FreeSans" font-size="10.00" fill="#000000">PHParameterInterface</text>
<text text-anchor="middle" x="63.5" y="-136.5" font-family="FreeSans" font-size="10.00" fill="#000000">::set_int_param</text>
</g>
<!-- Node2 -->
<g id="node2" class="node">
<title>Node2</title>
<g id="a_node2"><a xlink:href="../../db/da1/Fun4All__G4__TPC_8C.html#af60bcd3cf09ebd567e28ede14e9e894a" target="_top" xlink:title="Fun4All_G4_TPC">
<polygon fill="none" stroke="#000000" points="193.5,-219.5 193.5,-239.5 290.5,-239.5 290.5,-219.5 193.5,-219.5"/>
<text text-anchor="middle" x="242" y="-226.5" font-family="FreeSans" font-size="10.00" fill="#000000">Fun4All_G4_TPC</text>
</a>
</g>
</g>
<!-- Node1&#45;&gt;Node2 -->
<g id="edge1" class="edge">
<title>Node1&#45;&gt;Node2</title>
<path fill="none" stroke="#191970" d="M91.9122,-167.8527C111.043,-181.9192 137.3706,-199.4414 163,-210.5 172.4551,-214.5797 182.9416,-217.8776 193.1025,-220.5079"/>
<polygon fill="#191970" stroke="#191970" points="93.7589,-164.863 83.6571,-161.6685 89.562,-170.4653 93.7589,-164.863"/>
</g>
<!-- Node3 -->
<g id="node3" class="node">
<title>Node3</title>
<g id="a_node3"><a xlink:href="../../df/d20/Fun4All__TestBeam__TPC_8C.html#ab5c55528b75bbb40d3cf6df86cfd8ac1" target="_top" xlink:title="Fun4All_TestBeam_TPC">
<polygon fill="none" stroke="#000000" points="176,-180.5 176,-200.5 308,-200.5 308,-180.5 176,-180.5"/>
<text text-anchor="middle" x="242" y="-187.5" font-family="FreeSans" font-size="10.00" fill="#000000">Fun4All_TestBeam_TPC</text>
</a>
</g>
</g>
<!-- Node1&#45;&gt;Node3 -->
<g id="edge2" class="edge">
<title>Node1&#45;&gt;Node3</title>
<path fill="none" stroke="#191970" d="M133.7148,-164.0309C143.5417,-166.5708 153.5186,-169.1213 163,-171.5 174.9036,-174.4864 187.8405,-177.6374 199.7336,-180.4961"/>
<polygon fill="#191970" stroke="#191970" points="134.5204,-160.6241 123.9619,-161.5011 132.7628,-167.3998 134.5204,-160.6241"/>
</g>
<!-- Node4 -->
<g id="node4" class="node">
<title>Node4</title>
<g id="a_node4"><a xlink:href="../../d6/d1b/classPrototype2RawTowerBuilder.html#a9495dbf32264edc680dd19fb5d242837" target="_top" xlink:title="Prototype2RawTowerBuilder\l::ReadParamsFromNodeTree">
<polygon fill="none" stroke="#000000" points="163,-129.5 163,-161.5 321,-161.5 321,-129.5 163,-129.5"/>
<text text-anchor="start" x="171" y="-148.5" font-family="FreeSans" font-size="10.00" fill="#000000">Prototype2RawTowerBuilder</text>
<text text-anchor="middle" x="242" y="-136.5" font-family="FreeSans" font-size="10.00" fill="#000000">::ReadParamsFromNodeTree</text>
</a>
</g>
</g>
<!-- Node1&#45;&gt;Node4 -->
<g id="edge3" class="edge">
<title>Node1&#45;&gt;Node4</title>
<path fill="none" stroke="#191970" d="M137.3061,-145.5C145.6956,-145.5 154.273,-145.5 162.7292,-145.5"/>
<polygon fill="#191970" stroke="#191970" points="137.1867,-142.0001 127.1866,-145.5 137.1866,-149.0001 137.1867,-142.0001"/>
</g>
<!-- Node6 -->
<g id="node6" class="node">
<title>Node6</title>
<g id="a_node6"><a xlink:href="../../d1/dec/classHcalRawTowerBuilder.html#a4d42afd3cf9d5d9f5569e87fa939d567" target="_top" xlink:title="HcalRawTowerBuilder\l::ReadParamsFromNodeTree">
<polygon fill="none" stroke="#000000" points="163,-78.5 163,-110.5 321,-110.5 321,-78.5 163,-78.5"/>
<text text-anchor="start" x="171" y="-97.5" font-family="FreeSans" font-size="10.00" fill="#000000">HcalRawTowerBuilder</text>
<text text-anchor="middle" x="242" y="-85.5" font-family="FreeSans" font-size="10.00" fill="#000000">::ReadParamsFromNodeTree</text>
</a>
</g>
</g>
<!-- Node1&#45;&gt;Node6 -->
<g id="edge5" class="edge">
<title>Node1&#45;&gt;Node6</title>
<path fill="none" stroke="#191970" d="M129.7711,-126.5654C148.2234,-121.2933 168.0818,-115.6195 185.8889,-110.5317"/>
<polygon fill="#191970" stroke="#191970" points="128.6322,-123.2507 119.9785,-129.3633 130.5553,-129.9813 128.6322,-123.2507"/>
</g>
<!-- Node8 -->
<g id="node8" class="node">
<title>Node8</title>
<g id="a_node8"><a xlink:href="../../da/d3c/G4__Tracking_8C.html#a4433eb58af16a1286bd71a65483a0b09" target="_top" xlink:title="Tracking_Cells">
<polygon fill="none" stroke="#000000" points="197.5,-39.5 197.5,-59.5 286.5,-59.5 286.5,-39.5 197.5,-39.5"/>
<text text-anchor="middle" x="242" y="-46.5" font-family="FreeSans" font-size="10.00" fill="#000000">Tracking_Cells</text>
</a>
</g>
</g>
<!-- Node1&#45;&gt;Node8 -->
<g id="edge7" class="edge">
<title>Node1&#45;&gt;Node8</title>
<path fill="none" stroke="#191970" d="M87.6382,-122.5401C106.7115,-105.5794 134.7432,-83.1538 163,-69.5 173.7006,-64.3294 185.8845,-60.3987 197.4262,-57.4509"/>
<polygon fill="#191970" stroke="#191970" points="85.0941,-120.1223 80.0379,-129.4329 89.7966,-125.3076 85.0941,-120.1223"/>
</g>
<!-- Node5 -->
<g id="node5" class="node">
<title>Node5</title>
<g id="a_node5"><a xlink:href="../../d6/d1b/classPrototype2RawTowerBuilder.html#ac5d83bd0e9b8325c27dba83fc67b1111" target="_top" xlink:title="Prototype2RawTowerBuilder\l::InitRun">
<polygon fill="none" stroke="#000000" points="357,-129.5 357,-161.5 515,-161.5 515,-129.5 357,-129.5"/>
<text text-anchor="start" x="365" y="-148.5" font-family="FreeSans" font-size="10.00" fill="#000000">Prototype2RawTowerBuilder</text>
<text text-anchor="middle" x="436" y="-136.5" font-family="FreeSans" font-size="10.00" fill="#000000">::InitRun</text>
</a>
</g>
</g>
<!-- Node4&#45;&gt;Node5 -->
<g id="edge4" class="edge">
<title>Node4&#45;&gt;Node5</title>
<path fill="none" stroke="#191970" d="M331.4359,-145.5C339.8837,-145.5 348.4084,-145.5 356.7517,-145.5"/>
<polygon fill="#191970" stroke="#191970" points="331.1871,-142.0001 321.187,-145.5 331.187,-149.0001 331.1871,-142.0001"/>
</g>
<!-- Node7 -->
<g id="node7" class="node">
<title>Node7</title>
<g id="a_node7"><a xlink:href="../../d1/dec/classHcalRawTowerBuilder.html#a7905b60d52f4f69f900e45859a894533" target="_top" xlink:title="HcalRawTowerBuilder\l::InitRun">
<polygon fill="none" stroke="#000000" points="373.5,-78.5 373.5,-110.5 498.5,-110.5 498.5,-78.5 373.5,-78.5"/>
<text text-anchor="start" x="381.5" y="-97.5" font-family="FreeSans" font-size="10.00" fill="#000000">HcalRawTowerBuilder</text>
<text text-anchor="middle" x="436" y="-85.5" font-family="FreeSans" font-size="10.00" fill="#000000">::InitRun</text>
</a>
</g>
</g>
<!-- Node6&#45;&gt;Node7 -->
<g id="edge6" class="edge">
<title>Node6&#45;&gt;Node7</title>
<path fill="none" stroke="#191970" d="M331.4508,-94.5C345.6229,-94.5 360.0111,-94.5 373.3957,-94.5"/>
<polygon fill="#191970" stroke="#191970" points="331.1871,-91.0001 321.187,-94.5 331.187,-98.0001 331.1871,-91.0001"/>
</g>
<!-- Node9 -->
<g id="node9" class="node">
<title>Node9</title>
<g id="a_node9"><a xlink:href="../../d7/d9e/Fun4All__G4__fsPHENIX_8C.html#af48911d394d2412e817583700f2bbee2" target="_top" xlink:title="Fun4All_G4_fsPHENIX">
<polygon fill="none" stroke="#000000" points="374,-39.5 374,-59.5 498,-59.5 498,-39.5 374,-39.5"/>
<text text-anchor="middle" x="436" y="-46.5" font-family="FreeSans" font-size="10.00" fill="#000000">Fun4All_G4_fsPHENIX</text>
</a>
</g>
</g>
<!-- Node8&#45;&gt;Node9 -->
<g id="edge8" class="edge">
<title>Node8&#45;&gt;Node9</title>
<path fill="none" stroke="#191970" d="M296.5085,-49.5C320.5157,-49.5 348.8507,-49.5 373.6903,-49.5"/>
<polygon fill="#191970" stroke="#191970" points="296.5076,-46.0001 286.5075,-49.5 296.5075,-53.0001 296.5076,-46.0001"/>
</g>
<!-- Node10 -->
<g id="node10" class="node">
<title>Node10</title>
<g id="a_node10"><a xlink:href="../../d5/d2c/macros_2blob_2master_2macros_2g4simulations_2Fun4All__G4__sPHENIX_8C.html#a6eaaa492d7023ec86c562dc63aa1e5a4" target="_top" xlink:title="Fun4All_G4_sPHENIX">
<polygon fill="none" stroke="#000000" points="375.5,-.5 375.5,-20.5 496.5,-20.5 496.5,-.5 375.5,-.5"/>
<text text-anchor="middle" x="436" y="-7.5" font-family="FreeSans" font-size="10.00" fill="#000000">Fun4All_G4_sPHENIX</text>
</a>
</g>
</g>
<!-- Node8&#45;&gt;Node10 -->
<g id="edge9" class="edge">
<title>Node8&#45;&gt;Node10</title>
<path fill="none" stroke="#191970" d="M296.5865,-38.5264C324.7357,-32.8676 358.8188,-26.0158 386.239,-20.5035"/>
<polygon fill="#191970" stroke="#191970" points="295.6215,-35.1503 286.5075,-40.5526 297.0012,-42.013 295.6215,-35.1503"/>
</g>
</g>
</svg>
