<?xml version="1.0" encoding="UTF-8" standalone="no"?>
<!DOCTYPE svg PUBLIC "-//W3C//DTD SVG 1.1//EN"
 "http://www.w3.org/Graphics/SVG/1.1/DTD/svg11.dtd">
<!-- Generated by graphviz version 2.40.1 (20161225.0304)
 -->
<!-- Title: PHParameterInterface::get_double_param Pages: 1 -->
<svg width="336pt" height="515pt"
 viewBox="0.00 0.00 336.00 515.00" xmlns="http://www.w3.org/2000/svg" xmlns:xlink="http://www.w3.org/1999/xlink">
<g id="graph0" class="graph" transform="scale(1 1) rotate(0) translate(4 511)">
<title>PHParameterInterface::get_double_param</title>
<!-- Node1 -->
<g id="node1" class="node">
<title>Node1</title>
<polygon fill="#bfbfbf" stroke="#000000" points="0,-249.5 0,-281.5 127,-281.5 127,-249.5 0,-249.5"/>
<text text-anchor="start" x="8" y="-268.5" font-family="FreeSans" font-size="10.00" fill="#000000">PHParameterInterface</text>
<text text-anchor="middle" x="63.5" y="-256.5" font-family="FreeSans" font-size="10.00" fill="#000000">::get_double_param</text>
</g>
<!-- Node2 -->
<g id="node2" class="node">
<title>Node2</title>
<g id="a_node2"><a xlink:href="../../d5/d2c/macros_2blob_2master_2macros_2g4simulations_2Fun4All__G4__sPHENIX_8C.html#a6eaaa492d7023ec86c562dc63aa1e5a4" target="_top" xlink:title="Fun4All_G4_sPHENIX">
<polygon fill="none" stroke="#000000" points="185,-486.5 185,-506.5 306,-506.5 306,-486.5 185,-486.5"/>
<text text-anchor="middle" x="245.5" y="-493.5" font-family="FreeSans" font-size="10.00" fill="#000000">Fun4All_G4_sPHENIX</text>
</a>
</g>
</g>
<!-- Node1&#45;&gt;Node2 -->
<g id="edge1" class="edge">
<title>Node1&#45;&gt;Node2</title>
<path fill="none" stroke="#191970" d="M68.1132,-291.645C77.5079,-336.8196 103.2531,-429.2673 163,-477.5 169.4044,-482.6701 176.9546,-486.4875 184.8428,-489.2966"/>
<polygon fill="#191970" stroke="#191970" points="71.5285,-290.8728 66.1599,-281.7389 64.6607,-292.2271 71.5285,-290.8728"/>
</g>
<!-- Node3 -->
<g id="node3" class="node">
<title>Node3</title>
<g id="a_node3"><a xlink:href="../../d6/d1b/classPrototype2RawTowerBuilder.html#ac5d83bd0e9b8325c27dba83fc67b1111" target="_top" xlink:title="Prototype2RawTowerBuilder\l::InitRun">
<polygon fill="none" stroke="#000000" points="166.5,-435.5 166.5,-467.5 324.5,-467.5 324.5,-435.5 166.5,-435.5"/>
<text text-anchor="start" x="174.5" y="-454.5" font-family="FreeSans" font-size="10.00" fill="#000000">Prototype2RawTowerBuilder</text>
<text text-anchor="middle" x="245.5" y="-442.5" font-family="FreeSans" font-size="10.00" fill="#000000">::InitRun</text>
</a>
</g>
</g>
<!-- Node1&#45;&gt;Node3 -->
<g id="edge2" class="edge">
<title>Node1&#45;&gt;Node3</title>
<path fill="none" stroke="#191970" d="M72.6867,-291.3376C86.6683,-326.9773 116.6591,-390.8502 163,-426.5 167.389,-429.8764 172.2326,-432.7991 177.3079,-435.3286"/>
<polygon fill="#191970" stroke="#191970" points="75.8353,-289.7698 69.0139,-281.663 69.291,-292.2542 75.8353,-289.7698"/>
</g>
<!-- Node4 -->
<g id="node4" class="node">
<title>Node4</title>
<g id="a_node4"><a xlink:href="../../dd/d8b/classPHG4Prototype2HcalCellReco.html#ada0674e45683579ea6d19c3c6fdce9e5" target="_top" xlink:title="module initialization">
<polygon fill="none" stroke="#000000" points="163,-384.5 163,-416.5 328,-416.5 328,-384.5 163,-384.5"/>
<text text-anchor="start" x="171" y="-403.5" font-family="FreeSans" font-size="10.00" fill="#000000">PHG4Prototype2HcalCellReco</text>
<text text-anchor="middle" x="245.5" y="-391.5" font-family="FreeSans" font-size="10.00" fill="#000000">::InitRun</text>
</a>
</g>
</g>
<!-- Node1&#45;&gt;Node4 -->
<g id="edge3" class="edge">
<title>Node1&#45;&gt;Node4</title>
<path fill="none" stroke="#191970" d="M79.6709,-290.1107C97.3121,-315.0936 127.7831,-353.1819 163,-375.5 168.3094,-378.8647 174.0972,-381.7983 180.0636,-384.3517"/>
<polygon fill="#191970" stroke="#191970" points="82.5414,-288.108 73.9792,-281.8678 76.7811,-292.0854 82.5414,-288.108"/>
</g>
<!-- Node5 -->
<g id="node5" class="node">
<title>Node5</title>
<g id="a_node5"><a xlink:href="../../d1/dec/classHcalRawTowerBuilder.html#a7905b60d52f4f69f900e45859a894533" target="_top" xlink:title="HcalRawTowerBuilder\l::InitRun">
<polygon fill="none" stroke="#000000" points="183,-333.5 183,-365.5 308,-365.5 308,-333.5 183,-333.5"/>
<text text-anchor="start" x="191" y="-352.5" font-family="FreeSans" font-size="10.00" fill="#000000">HcalRawTowerBuilder</text>
<text text-anchor="middle" x="245.5" y="-340.5" font-family="FreeSans" font-size="10.00" fill="#000000">::InitRun</text>
</a>
</g>
</g>
<!-- Node1&#45;&gt;Node5 -->
<g id="edge4" class="edge">
<title>Node1&#45;&gt;Node5</title>
<path fill="none" stroke="#191970" d="M95.7093,-287.2982C114.6893,-299.4459 139.5163,-314.1608 163,-324.5 170.3966,-327.7565 178.3435,-330.7515 186.2795,-333.4505"/>
<polygon fill="#191970" stroke="#191970" points="97.4534,-284.2576 87.1601,-281.7475 93.6414,-290.1287 97.4534,-284.2576"/>
</g>
<!-- Node6 -->
<g id="node6" class="node">
<title>Node6</title>
<g id="a_node6"><a xlink:href="../../d2/d53/classPHG4HcalCellReco.html#a56ebb0f8bd634e4210adec9ee0377ed5" target="_top" xlink:title="module initialization">
<polygon fill="none" stroke="#000000" points="169.5,-294.5 169.5,-314.5 321.5,-314.5 321.5,-294.5 169.5,-294.5"/>
<text text-anchor="middle" x="245.5" y="-301.5" font-family="FreeSans" font-size="10.00" fill="#000000">PHG4HcalCellReco::InitRun</text>
</a>
</g>
</g>
<!-- Node1&#45;&gt;Node6 -->
<g id="edge5" class="edge">
<title>Node1&#45;&gt;Node6</title>
<path fill="none" stroke="#191970" d="M136.9579,-281.241C157.8325,-285.7141 179.9871,-290.4615 198.8004,-294.4929"/>
<polygon fill="#191970" stroke="#191970" points="137.6662,-277.8134 127.1548,-279.1403 136.1994,-284.658 137.6662,-277.8134"/>
</g>
<!-- Node7 -->
<g id="node7" class="node">
<title>Node7</title>
<g id="a_node7"><a xlink:href="../../dd/deb/classPHG4InttHitReco.html#a3d92a0f6f083651394ec761d3fca4ae9" target="_top" xlink:title="module initialization">
<polygon fill="none" stroke="#000000" points="174.5,-255.5 174.5,-275.5 316.5,-275.5 316.5,-255.5 174.5,-255.5"/>
<text text-anchor="middle" x="245.5" y="-262.5" font-family="FreeSans" font-size="10.00" fill="#000000">PHG4InttHitReco::InitRun</text>
</a>
</g>
</g>
<!-- Node1&#45;&gt;Node7 -->
<g id="edge6" class="edge">
<title>Node1&#45;&gt;Node7</title>
<path fill="none" stroke="#191970" d="M137.3202,-265.5C149.5669,-265.5 162.2444,-265.5 174.4214,-265.5"/>
<polygon fill="#191970" stroke="#191970" points="137.1548,-262.0001 127.1548,-265.5 137.1547,-269.0001 137.1548,-262.0001"/>
</g>
<!-- Node8 -->
<g id="node8" class="node">
<title>Node8</title>
<g id="a_node8"><a xlink:href="../../dd/da0/classPHG4InttDigitizer.html#a225ff3c89e10a089cdd943d94c8458d3" target="_top" xlink:title="run initialization">
<polygon fill="none" stroke="#000000" points="191,-204.5 191,-236.5 300,-236.5 300,-204.5 191,-204.5"/>
<text text-anchor="start" x="199" y="-223.5" font-family="FreeSans" font-size="10.00" fill="#000000">PHG4InttDigitizer::</text>
<text text-anchor="middle" x="245.5" y="-211.5" font-family="FreeSans" font-size="10.00" fill="#000000">InitRun</text>
</a>
</g>
</g>
<!-- Node1&#45;&gt;Node8 -->
<g id="edge7" class="edge">
<title>Node1&#45;&gt;Node8</title>
<path fill="none" stroke="#191970" d="M137.0441,-247.316C155.0544,-242.8629 174.0125,-238.1755 190.9518,-233.9872"/>
<polygon fill="#191970" stroke="#191970" points="136.0223,-243.9632 127.1548,-249.7612 137.7026,-250.7585 136.0223,-243.9632"/>
</g>
<!-- Node9 -->
<g id="node9" class="node">
<title>Node9</title>
<g id="a_node9"><a xlink:href="../../dc/d20/classPHG4FullProjSpacalCellReco.html#a37f9ab5678a82c0a886af63ebd1d5f85" target="_top" xlink:title="module initialization">
<polygon fill="none" stroke="#000000" points="166.5,-153.5 166.5,-185.5 324.5,-185.5 324.5,-153.5 166.5,-153.5"/>
<text text-anchor="start" x="174.5" y="-172.5" font-family="FreeSans" font-size="10.00" fill="#000000">PHG4FullProjSpacalCellReco</text>
<text text-anchor="middle" x="245.5" y="-160.5" font-family="FreeSans" font-size="10.00" fill="#000000">::InitRun</text>
</a>
</g>
</g>
<!-- Node1&#45;&gt;Node9 -->
<g id="edge8" class="edge">
<title>Node1&#45;&gt;Node9</title>
<path fill="none" stroke="#191970" d="M90.5681,-242.9924C109.8039,-227.8917 136.7771,-208.4657 163,-195.5 170.404,-191.8392 178.4345,-188.5513 186.4808,-185.645"/>
<polygon fill="#191970" stroke="#191970" points="88.1991,-240.4049 82.5643,-249.3771 92.5643,-245.8771 88.1991,-240.4049"/>
</g>
<!-- Node10 -->
<g id="node10" class="node">
<title>Node10</title>
<g id="a_node10"><a xlink:href="../../d7/ddb/classPHG4TpcElectronDrift.html#a14a3483e3de7a9a5cb6a4434cba1835c" target="_top" xlink:title="PHG4TpcElectronDrift\l::InitRun">
<polygon fill="none" stroke="#000000" points="182.5,-102.5 182.5,-134.5 308.5,-134.5 308.5,-102.5 182.5,-102.5"/>
<text text-anchor="start" x="190.5" y="-121.5" font-family="FreeSans" font-size="10.00" fill="#000000">PHG4TpcElectronDrift</text>
<text text-anchor="middle" x="245.5" y="-109.5" font-family="FreeSans" font-size="10.00" fill="#000000">::InitRun</text>
</a>
</g>
</g>
<!-- Node1&#45;&gt;Node10 -->
<g id="edge9" class="edge">
<title>Node1&#45;&gt;Node10</title>
<path fill="none" stroke="#191970" d="M77.8087,-240.6226C94.7773,-213.2526 125.537,-169.7983 163,-144.5 168.9738,-140.466 175.6078,-137.0306 182.4445,-134.1113"/>
<polygon fill="#191970" stroke="#191970" points="74.7775,-238.8714 72.593,-249.2386 80.7658,-242.4964 74.7775,-238.8714"/>
</g>
<!-- Node11 -->
<g id="node11" class="node">
<title>Node11</title>
<g id="a_node11"><a xlink:href="../../db/d1c/classPHG4TpcPadPlaneSimple.html#acb0e4976d000a896da086b76bfab1ea0" target="_top" xlink:title="PHG4TpcPadPlaneSimple\l::UpdateInternalParameters">
<polygon fill="none" stroke="#000000" points="167.5,-51.5 167.5,-83.5 323.5,-83.5 323.5,-51.5 167.5,-51.5"/>
<text text-anchor="start" x="175.5" y="-70.5" font-family="FreeSans" font-size="10.00" fill="#000000">PHG4TpcPadPlaneSimple</text>
<text text-anchor="middle" x="245.5" y="-58.5" font-family="FreeSans" font-size="10.00" fill="#000000">::UpdateInternalParameters</text>
</a>
</g>
</g>
<!-- Node1&#45;&gt;Node11 -->
<g id="edge10" class="edge">
<title>Node1&#45;&gt;Node11</title>
<path fill="none" stroke="#191970" d="M71.6758,-239.6241C84.8707,-202.0034 114.4114,-132.4571 163,-93.5 167.8037,-89.6485 173.1849,-86.3638 178.8353,-83.5631"/>
<polygon fill="#191970" stroke="#191970" points="68.2793,-238.7421 68.3854,-249.3365 74.9091,-240.9883 68.2793,-238.7421"/>
</g>
<!-- Node12 -->
<g id="node12" class="node">
<title>Node12</title>
<g id="a_node12"><a xlink:href="../../d7/d6c/classPHG4TpcPadPlaneReadout.html#a107f6ca74cbd69883b54860aa9de7015" target="_top" xlink:title="PHG4TpcPadPlaneReadout\l::UpdateInternalParameters">
<polygon fill="none" stroke="#000000" points="167.5,-.5 167.5,-32.5 323.5,-32.5 323.5,-.5 167.5,-.5"/>
<text text-anchor="start" x="175.5" y="-19.5" font-family="FreeSans" font-size="10.00" fill="#000000">PHG4TpcPadPlaneReadout</text>
<text text-anchor="middle" x="245.5" y="-7.5" font-family="FreeSans" font-size="10.00" fill="#000000">::UpdateInternalParameters</text>
</a>
</g>
</g>
<!-- Node1&#45;&gt;Node12 -->
<g id="edge11" class="edge">
<title>Node1&#45;&gt;Node12</title>
<path fill="none" stroke="#191970" d="M67.9154,-239.5014C77.142,-193.1687 102.822,-96.1604 163,-42.5 167.2592,-38.7021 172.0718,-35.4588 177.1795,-32.6891"/>
<polygon fill="#191970" stroke="#191970" points="64.47,-238.8854 66.0503,-249.3617 71.348,-240.1865 64.47,-238.8854"/>
</g>
</g>
</svg>
