<?xml version="1.0" encoding="UTF-8" standalone="no"?>
<!DOCTYPE svg PUBLIC "-//W3C//DTD SVG 1.1//EN"
 "http://www.w3.org/Graphics/SVG/1.1/DTD/svg11.dtd">
<!-- Generated by graphviz version 2.40.1 (20161225.0304)
 -->
<!-- Title: PHPointerList::clear Pages: 1 -->
<svg width="1224pt" height="1424pt"
 viewBox="0.00 0.00 1224.00 1424.00" xmlns="http://www.w3.org/2000/svg" xmlns:xlink="http://www.w3.org/1999/xlink">
<g id="graph0" class="graph" transform="scale(1 1) rotate(0) translate(4 1420)">
<title>PHPointerList::clear</title>
<!-- Node1 -->
<g id="node1" class="node">
<title>Node1</title>
<polygon fill="#bfbfbf" stroke="#000000" points="0,-649.5 0,-669.5 115,-669.5 115,-649.5 0,-649.5"/>
<text text-anchor="middle" x="57.5" y="-656.5" font-family="FreeSans" font-size="10.00" fill="#000000">PHPointerList::clear</text>
</g>
<!-- Node2 -->
<g id="node2" class="node">
<title>Node2</title>
<g id="a_node2"><a xlink:href="../../d5/d07/classPHNodeIterator.html#a110a5b87a02a22deecae334f32387ffa" target="_top" xlink:title="PHNodeIterator::ls">
<polygon fill="none" stroke="#000000" points="151,-649.5 151,-669.5 259,-669.5 259,-649.5 151,-649.5"/>
<text text-anchor="middle" x="205" y="-656.5" font-family="FreeSans" font-size="10.00" fill="#000000">PHNodeIterator::ls</text>
</a>
</g>
</g>
<!-- Node1&#45;&gt;Node2 -->
<g id="edge1" class="edge">
<title>Node1&#45;&gt;Node2</title>
<path fill="none" stroke="#191970" d="M125.5598,-659.5C133.9763,-659.5 142.4922,-659.5 150.6656,-659.5"/>
<polygon fill="#191970" stroke="#191970" points="125.3726,-656.0001 115.3726,-659.5 125.3725,-663.0001 125.3726,-656.0001"/>
</g>
<!-- Node3 -->
<g id="node3" class="node">
<title>Node3</title>
<g id="a_node3"><a xlink:href="../../da/d29/classFun4AllServer.html#a3654ebdcb099bcc5c820df6d4952663c" target="_top" xlink:title="Fun4AllServer::CountOutNodes\lRecursive">
<polygon fill="none" stroke="#000000" points="295,-761.5 295,-793.5 468,-793.5 468,-761.5 295,-761.5"/>
<text text-anchor="start" x="303" y="-780.5" font-family="FreeSans" font-size="10.00" fill="#000000">Fun4AllServer::CountOutNodes</text>
<text text-anchor="middle" x="381.5" y="-768.5" font-family="FreeSans" font-size="10.00" fill="#000000">Recursive</text>
</a>
</g>
</g>
<!-- Node2&#45;&gt;Node3 -->
<g id="edge2" class="edge">
<title>Node2&#45;&gt;Node3</title>
<path fill="none" stroke="#191970" d="M222.2553,-676.7228C239.5989,-693.4159 267.6177,-718.7486 295,-736.5 309.6422,-745.9923 326.8249,-754.5953 342.001,-761.4416"/>
<polygon fill="#191970" stroke="#191970" points="224.6798,-674.1984 215.0784,-669.7192 219.7909,-679.2083 224.6798,-674.1984"/>
</g>
<!-- Node42 -->
<g id="node42" class="node">
<title>Node42</title>
<g id="a_node42"><a xlink:href="../../da/d29/classFun4AllServer.html#ac9e5b55796d46d41f6f0ec9e3422959a" target="_top" xlink:title="Fun4AllServer::MakeNodes\lPersistent">
<polygon fill="none" stroke="#000000" points="305.5,-694.5 305.5,-726.5 457.5,-726.5 457.5,-694.5 305.5,-694.5"/>
<text text-anchor="start" x="313.5" y="-713.5" font-family="FreeSans" font-size="10.00" fill="#000000">Fun4AllServer::MakeNodes</text>
<text text-anchor="middle" x="381.5" y="-701.5" font-family="FreeSans" font-size="10.00" fill="#000000">Persistent</text>
</a>
</g>
</g>
<!-- Node2&#45;&gt;Node42 -->
<g id="edge41" class="edge">
<title>Node2&#45;&gt;Node42</title>
<path fill="none" stroke="#191970" d="M249.7593,-672.4333C272.8872,-679.1161 301.3287,-687.3343 325.8587,-694.4223"/>
<polygon fill="#191970" stroke="#191970" points="250.4493,-668.9895 239.8707,-669.576 248.5061,-675.7144 250.4493,-668.9895"/>
</g>
<!-- Node45 -->
<g id="node45" class="node">
<title>Node45</title>
<g id="a_node45"><a xlink:href="../../da/d29/classFun4AllServer.html#a92c6fe0e0c19c48d2b1f9d0f63c12bbe" target="_top" xlink:title="Fun4AllServer::MakeNodes\lTransient">
<polygon fill="none" stroke="#000000" points="305.5,-643.5 305.5,-675.5 457.5,-675.5 457.5,-643.5 305.5,-643.5"/>
<text text-anchor="start" x="313.5" y="-662.5" font-family="FreeSans" font-size="10.00" fill="#000000">Fun4AllServer::MakeNodes</text>
<text text-anchor="middle" x="381.5" y="-650.5" font-family="FreeSans" font-size="10.00" fill="#000000">Transient</text>
</a>
</g>
</g>
<!-- Node2&#45;&gt;Node45 -->
<g id="edge44" class="edge">
<title>Node2&#45;&gt;Node45</title>
<path fill="none" stroke="#191970" d="M269.4392,-659.5C281.0678,-659.5 293.2927,-659.5 305.2203,-659.5"/>
<polygon fill="#191970" stroke="#191970" points="269.396,-656.0001 259.396,-659.5 269.396,-663.0001 269.396,-656.0001"/>
</g>
<!-- Node46 -->
<g id="node46" class="node">
<title>Node46</title>
<g id="a_node46"><a xlink:href="../../df/df1/classPHG4DstCompressReco.html#ac7416ba5fa41828ae966d4bc7a2b5682" target="_top" xlink:title="PHG4DstCompressReco\l::SearchG4HitNodes">
<polygon fill="none" stroke="#000000" points="314,-592.5 314,-624.5 449,-624.5 449,-592.5 314,-592.5"/>
<text text-anchor="start" x="322" y="-611.5" font-family="FreeSans" font-size="10.00" fill="#000000">PHG4DstCompressReco</text>
<text text-anchor="middle" x="381.5" y="-599.5" font-family="FreeSans" font-size="10.00" fill="#000000">::SearchG4HitNodes</text>
</a>
</g>
</g>
<!-- Node2&#45;&gt;Node46 -->
<g id="edge47" class="edge">
<title>Node2&#45;&gt;Node46</title>
<path fill="none" stroke="#191970" d="M249.7593,-646.5667C272.8872,-639.8839 301.3287,-631.6657 325.8587,-624.5777"/>
<polygon fill="#191970" stroke="#191970" points="248.5061,-643.2856 239.8707,-649.424 250.4493,-650.0105 248.5061,-643.2856"/>
</g>
<!-- Node48 -->
<g id="node48" class="node">
<title>Node48</title>
<g id="a_node48"><a xlink:href="../../dd/d9d/classPHG4TruthEventAction.html#a8140dbcb21650639a4d51d11cd23951b" target="_top" xlink:title="PHG4TruthEventAction\l::SearchNode">
<polygon fill="none" stroke="#000000" points="316.5,-541.5 316.5,-573.5 446.5,-573.5 446.5,-541.5 316.5,-541.5"/>
<text text-anchor="start" x="324.5" y="-560.5" font-family="FreeSans" font-size="10.00" fill="#000000">PHG4TruthEventAction</text>
<text text-anchor="middle" x="381.5" y="-548.5" font-family="FreeSans" font-size="10.00" fill="#000000">::SearchNode</text>
</a>
</g>
</g>
<!-- Node2&#45;&gt;Node48 -->
<g id="edge49" class="edge">
<title>Node2&#45;&gt;Node48</title>
<path fill="none" stroke="#191970" d="M220.8514,-642.1467C237.6718,-624.7147 265.806,-598.2421 295,-582.5 301.6044,-578.9388 308.7732,-575.8341 316.0625,-573.14"/>
<polygon fill="#191970" stroke="#191970" points="218.2771,-639.7751 213.9561,-649.4488 223.3666,-644.5811 218.2771,-639.7751"/>
</g>
<!-- Node4 -->
<g id="node4" class="node">
<title>Node4</title>
<g id="a_node4"><a xlink:href="../../da/d29/classFun4AllServer.html#a6f3f13c3a8b5c29457e694ba910296aa" target="_top" xlink:title="Fun4AllServer::CountOutNodes">
<polygon fill="none" stroke="#000000" points="504,-784.5 504,-804.5 677,-804.5 677,-784.5 504,-784.5"/>
<text text-anchor="middle" x="590.5" y="-791.5" font-family="FreeSans" font-size="10.00" fill="#000000">Fun4AllServer::CountOutNodes</text>
</a>
</g>
</g>
<!-- Node3&#45;&gt;Node4 -->
<g id="edge3" class="edge">
<title>Node3&#45;&gt;Node4</title>
<path fill="none" stroke="#191970" d="M478.0268,-785.3515C486.5937,-786.0483 495.2324,-786.751 503.711,-787.4406"/>
<polygon fill="#191970" stroke="#191970" points="478.2678,-781.8596 468.017,-784.5373 477.7003,-788.8366 478.2678,-781.8596"/>
</g>
<!-- Node5 -->
<g id="node5" class="node">
<title>Node5</title>
<g id="a_node5"><a xlink:href="../../da/d29/classFun4AllServer.html#a6a65a944dfb40966ace97d35ab1f7942" target="_top" xlink:title="Fun4AllServer::process\l_event">
<polygon fill="none" stroke="#000000" points="713,-707.5 713,-739.5 845,-739.5 845,-707.5 713,-707.5"/>
<text text-anchor="start" x="721" y="-726.5" font-family="FreeSans" font-size="10.00" fill="#000000">Fun4AllServer::process</text>
<text text-anchor="middle" x="779" y="-714.5" font-family="FreeSans" font-size="10.00" fill="#000000">_event</text>
</a>
</g>
</g>
<!-- Node4&#45;&gt;Node5 -->
<g id="edge4" class="edge">
<title>Node4&#45;&gt;Node5</title>
<path fill="none" stroke="#191970" d="M656.6387,-781.8103C663.5846,-779.9334 670.4838,-777.8332 677,-775.5 703.5729,-765.9852 732.0497,-751.0266 752.1423,-739.591"/>
<polygon fill="#191970" stroke="#191970" points="655.294,-778.541 646.4676,-784.4015 657.0222,-785.3243 655.294,-778.541"/>
</g>
<!-- Node6 -->
<g id="node6" class="node">
<title>Node6</title>
<g id="a_node6"><a xlink:href="../../da/d29/classFun4AllServer.html#a94738b092fa009fcea45737d8ea41224" target="_top" xlink:title="Fun4AllServer::process\l_event">
<polygon fill="none" stroke="#000000" points="881,-730.5 881,-762.5 1013,-762.5 1013,-730.5 881,-730.5"/>
<text text-anchor="start" x="889" y="-749.5" font-family="FreeSans" font-size="10.00" fill="#000000">Fun4AllServer::process</text>
<text text-anchor="middle" x="947" y="-737.5" font-family="FreeSans" font-size="10.00" fill="#000000">_event</text>
</a>
</g>
</g>
<!-- Node5&#45;&gt;Node6 -->
<g id="edge5" class="edge">
<title>Node5&#45;&gt;Node6</title>
<path fill="none" stroke="#191970" d="M855.3171,-733.9482C863.8262,-735.1131 872.4413,-736.2926 880.8092,-737.4382"/>
<polygon fill="#191970" stroke="#191970" points="855.7804,-730.479 845.398,-732.5902 854.8309,-737.4143 855.7804,-730.479"/>
</g>
<!-- Node7 -->
<g id="node7" class="node">
<title>Node7</title>
<g id="a_node7"><a xlink:href="../../da/d29/classFun4AllServer.html#a11bbc8b2f53bc06e0b05ee202dd6372a" target="_top" xlink:title="run n events (0 means up to end of file)">
<polygon fill="none" stroke="#ff0000" points="892,-691.5 892,-711.5 1002,-711.5 1002,-691.5 892,-691.5"/>
<text text-anchor="middle" x="947" y="-698.5" font-family="FreeSans" font-size="10.00" fill="#000000">Fun4AllServer::run</text>
</a>
</g>
</g>
<!-- Node5&#45;&gt;Node7 -->
<g id="edge6" class="edge">
<title>Node5&#45;&gt;Node7</title>
<path fill="none" stroke="#191970" d="M855.6055,-713.4683C867.8438,-711.8657 880.293,-710.2354 891.9033,-708.715"/>
<polygon fill="#191970" stroke="#191970" points="854.8589,-710.0361 845.398,-714.805 855.7679,-716.9769 854.8589,-710.0361"/>
</g>
<!-- Node8 -->
<g id="node8" class="node">
<title>Node8</title>
<g id="a_node8"><a xlink:href="../../dd/d9c/AnalyzeTree_8C.html#af10d516ac25cd720d54534a63ef7e2f8" target="_top" xlink:title="AnalyzeTree">
<polygon fill="none" stroke="#000000" points="1093.5,-1395.5 1093.5,-1415.5 1171.5,-1415.5 1171.5,-1395.5 1093.5,-1395.5"/>
<text text-anchor="middle" x="1132.5" y="-1402.5" font-family="FreeSans" font-size="10.00" fill="#000000">AnalyzeTree</text>
</a>
</g>
</g>
<!-- Node7&#45;&gt;Node8 -->
<g id="edge7" class="edge">
<title>Node7&#45;&gt;Node8</title>
<path fill="none" stroke="#191970" d="M1009.4554,-717.5992C1010.7212,-718.8095 1011.9075,-720.1077 1013,-721.5 1104.3587,-837.9297 953.5948,-1273.3624 1049,-1386.5 1059.7342,-1399.2294 1077.0584,-1404.4572 1093.1518,-1406.311"/>
<polygon fill="#191970" stroke="#191970" points="1011.5384,-714.7865 1001.4388,-711.585 1007.3376,-720.3859 1011.5384,-714.7865"/>
</g>
<!-- Node9 -->
<g id="node9" class="node">
<title>Node9</title>
<g id="a_node9"><a xlink:href="../../db/d89/ConstructGeometry_8C.html#a21c369835643f1016f506a3da3b8d446" target="_top" xlink:title="ConstructGeometry">
<polygon fill="none" stroke="#000000" points="1075,-1356.5 1075,-1376.5 1190,-1376.5 1190,-1356.5 1075,-1356.5"/>
<text text-anchor="middle" x="1132.5" y="-1363.5" font-family="FreeSans" font-size="10.00" fill="#000000">ConstructGeometry</text>
</a>
</g>
</g>
<!-- Node7&#45;&gt;Node9 -->
<g id="edge8" class="edge">
<title>Node7&#45;&gt;Node9</title>
<path fill="none" stroke="#191970" d="M1009.4492,-717.6041C1010.7168,-718.813 1011.9052,-720.1096 1013,-721.5 1099.2011,-830.9773 958.9942,-1241.1287 1049,-1347.5 1055.7223,-1355.4446 1065.0114,-1360.465 1074.9611,-1363.5665"/>
<polygon fill="#191970" stroke="#191970" points="1011.5274,-714.7878 1001.4247,-711.5961 1007.332,-720.3913 1011.5274,-714.7878"/>
</g>
<!-- Node10 -->
<g id="node10" class="node">
<title>Node10</title>
<g id="a_node10"><a xlink:href="../../d3/d7f/Fun_8C.html#af69a3eef3ff244bb51f5740c6ecb5432" target="_top" xlink:title="Fun">
<polygon fill="none" stroke="#000000" points="1115.5,-1317.5 1115.5,-1337.5 1149.5,-1337.5 1149.5,-1317.5 1115.5,-1317.5"/>
<text text-anchor="middle" x="1132.5" y="-1324.5" font-family="FreeSans" font-size="10.00" fill="#000000">Fun</text>
</a>
</g>
</g>
<!-- Node7&#45;&gt;Node10 -->
<g id="edge9" class="edge">
<title>Node7&#45;&gt;Node10</title>
<path fill="none" stroke="#191970" d="M1009.4421,-717.6097C1010.7118,-718.8169 1011.9025,-720.1116 1013,-721.5 1094.0443,-824.0259 964.3928,-1208.8939 1049,-1308.5 1065.1697,-1327.5362 1096.0771,-1329.77 1115.4153,-1329.0563"/>
<polygon fill="#191970" stroke="#191970" points="1011.5149,-714.7893 1001.4087,-711.6087 1007.3256,-720.3974 1011.5149,-714.7893"/>
</g>
<!-- Node11 -->
<g id="node11" class="node">
<title>Node11</title>
<g id="a_node11"><a xlink:href="../../dc/ddc/Fun4All__Ana_8C.html#a9152007c2477efc543d79f3b97fbf50c" target="_top" xlink:title="Fun4All_Ana">
<polygon fill="none" stroke="#000000" points="1093.5,-1278.5 1093.5,-1298.5 1171.5,-1298.5 1171.5,-1278.5 1093.5,-1278.5"/>
<text text-anchor="middle" x="1132.5" y="-1285.5" font-family="FreeSans" font-size="10.00" fill="#000000">Fun4All_Ana</text>
</a>
</g>
</g>
<!-- Node7&#45;&gt;Node11 -->
<g id="edge10" class="edge">
<title>Node7&#45;&gt;Node11</title>
<path fill="none" stroke="#191970" d="M1009.4341,-717.616C1010.7061,-718.8214 1011.8995,-720.114 1013,-721.5 1088.8886,-817.0759 969.7902,-1176.658 1049,-1269.5 1059.8074,-1282.1673 1077.1407,-1287.3875 1093.2212,-1289.2521"/>
<polygon fill="#191970" stroke="#191970" points="1011.5007,-714.7911 1001.3905,-711.6231 1007.3184,-720.4044 1011.5007,-714.7911"/>
</g>
<!-- Node12 -->
<g id="node12" class="node">
<title>Node12</title>
<g id="a_node12"><a xlink:href="../../df/d77/Fun4All__CaloAna_8C.html#a4f0841e3d8be48f96cc4e95380315ff8" target="_top" xlink:title="Fun4All_CaloAna">
<polygon fill="none" stroke="#000000" points="1082.5,-1239.5 1082.5,-1259.5 1182.5,-1259.5 1182.5,-1239.5 1082.5,-1239.5"/>
<text text-anchor="middle" x="1132.5" y="-1246.5" font-family="FreeSans" font-size="10.00" fill="#000000">Fun4All_CaloAna</text>
</a>
</g>
</g>
<!-- Node7&#45;&gt;Node12 -->
<g id="edge11" class="edge">
<title>Node7&#45;&gt;Node12</title>
<path fill="none" stroke="#191970" d="M1009.4249,-717.6234C1010.6995,-718.8266 1011.896,-720.1168 1013,-721.5 1083.7341,-810.1274 975.1864,-1144.4205 1049,-1230.5 1057.4196,-1240.3187 1069.7603,-1245.6582 1082.3844,-1248.4289"/>
<polygon fill="#191970" stroke="#191970" points="1011.4843,-714.7932 1001.3696,-711.6398 1007.3101,-720.4125 1011.4843,-714.7932"/>
</g>
<!-- Node13 -->
<g id="node13" class="node">
<title>Node13</title>
<g id="a_node13"><a xlink:href="../../da/dae/Fun4All__EICAnalysis__DIS_8C.html#a6be6c58cd68a395182a998295a1106ae" target="_top" xlink:title="Fun4All_EICAnalysis_DIS">
<polygon fill="none" stroke="#000000" points="1063,-1200.5 1063,-1220.5 1202,-1220.5 1202,-1200.5 1063,-1200.5"/>
<text text-anchor="middle" x="1132.5" y="-1207.5" font-family="FreeSans" font-size="10.00" fill="#000000">Fun4All_EICAnalysis_DIS</text>
</a>
</g>
</g>
<!-- Node7&#45;&gt;Node13 -->
<g id="edge12" class="edge">
<title>Node7&#45;&gt;Node13</title>
<path fill="none" stroke="#191970" d="M1009.4141,-717.632C1010.6919,-718.8327 1011.892,-720.12 1013,-721.5 1078.5812,-803.1808 980.581,-1112.1812 1049,-1191.5 1052.8842,-1196.003 1057.5932,-1199.5628 1062.7744,-1202.364"/>
<polygon fill="#191970" stroke="#191970" points="1011.4652,-714.7957 1001.3452,-711.6593 1007.3005,-720.422 1011.4652,-714.7957"/>
</g>
<!-- Node14 -->
<g id="node14" class="node">
<title>Node14</title>
<g id="a_node14"><a xlink:href="../../d2/d9b/Fun4All__EICAnalysis__DISReco_8C.html#a3c160743ec7b9b4572cf73a19640a34f" target="_top" xlink:title="Fun4All_EICAnalysis\l_DISReco">
<polygon fill="none" stroke="#000000" points="1074,-1149.5 1074,-1181.5 1191,-1181.5 1191,-1149.5 1074,-1149.5"/>
<text text-anchor="start" x="1082" y="-1168.5" font-family="FreeSans" font-size="10.00" fill="#000000">Fun4All_EICAnalysis</text>
<text text-anchor="middle" x="1132.5" y="-1156.5" font-family="FreeSans" font-size="10.00" fill="#000000">_DISReco</text>
</a>
</g>
</g>
<!-- Node7&#45;&gt;Node14 -->
<g id="edge13" class="edge">
<title>Node7&#45;&gt;Node14</title>
<path fill="none" stroke="#191970" d="M1009.3075,-717.5623C1010.6238,-718.7828 1011.8597,-720.0932 1013,-721.5 1071.8458,-794.1007 990.0335,-1067.9973 1049,-1140.5 1055.3972,-1148.3657 1064.1653,-1153.8266 1073.6251,-1157.6027"/>
<polygon fill="#191970" stroke="#191970" points="1011.1407,-714.5677 1000.9964,-711.5108 1007.0203,-720.2265 1011.1407,-714.5677"/>
</g>
<!-- Node15 -->
<g id="node15" class="node">
<title>Node15</title>
<g id="a_node15"><a xlink:href="../../d2/d47/Fun4All__EICAnalysis__DVCS_8C.html#a84f48142243e969fd353cc8509f0ba22" target="_top" xlink:title="Fun4All_EICAnalysis_DVCS">
<polygon fill="none" stroke="#000000" points="1057.5,-1110.5 1057.5,-1130.5 1207.5,-1130.5 1207.5,-1110.5 1057.5,-1110.5"/>
<text text-anchor="middle" x="1132.5" y="-1117.5" font-family="FreeSans" font-size="10.00" fill="#000000">Fun4All_EICAnalysis_DVCS</text>
</a>
</g>
</g>
<!-- Node7&#45;&gt;Node15 -->
<g id="edge14" class="edge">
<title>Node7&#45;&gt;Node15</title>
<path fill="none" stroke="#191970" d="M1009.2912,-717.5756C1010.6122,-718.7922 1011.8536,-720.0982 1013,-721.5 1066.6983,-787.1609 993.021,-1037.7723 1049,-1101.5 1052.0416,-1104.9626 1055.571,-1107.8652 1059.4254,-1110.2927"/>
<polygon fill="#191970" stroke="#191970" points="1011.1115,-714.5724 1000.9597,-711.5407 1007.0051,-720.2415 1011.1115,-714.5724"/>
</g>
<!-- Node16 -->
<g id="node16" class="node">
<title>Node16</title>
<g id="a_node16"><a xlink:href="../../d3/dee/Fun4All__EICAnalysis__Exclusive_8C.html#ad3a88bfdb2a21a757edf221e36d6bffe" target="_top" xlink:title="Fun4All_EICAnalysis\l_Exclusive">
<polygon fill="none" stroke="#000000" points="1074,-1059.5 1074,-1091.5 1191,-1091.5 1191,-1059.5 1074,-1059.5"/>
<text text-anchor="start" x="1082" y="-1078.5" font-family="FreeSans" font-size="10.00" fill="#000000">Fun4All_EICAnalysis</text>
<text text-anchor="middle" x="1132.5" y="-1066.5" font-family="FreeSans" font-size="10.00" fill="#000000">_Exclusive</text>
</a>
</g>
</g>
<!-- Node7&#45;&gt;Node16 -->
<g id="edge15" class="edge">
<title>Node7&#45;&gt;Node16</title>
<path fill="none" stroke="#191970" d="M1009.2642,-717.5979C1010.5931,-718.808 1011.8434,-720.1066 1013,-721.5 1106.9459,-834.6861 954.8659,-937.4703 1049,-1050.5 1055.4883,-1058.2907 1064.2998,-1063.7158 1073.7741,-1067.48"/>
<polygon fill="#191970" stroke="#191970" points="1011.0631,-714.5807 1000.8989,-711.5908 1006.9801,-720.2666 1011.0631,-714.5807"/>
</g>
<!-- Node17 -->
<g id="node17" class="node">
<title>Node17</title>
<g id="a_node17"><a xlink:href="../../d2/d00/Fun4All__EICAnalysis__Leptoquarks_8C.html#a328697c2ae82c0b33f95bea9aefb93f4" target="_top" xlink:title="Fun4All_EICAnalysis\l_Leptoquarks">
<polygon fill="none" stroke="#000000" points="1074,-1008.5 1074,-1040.5 1191,-1040.5 1191,-1008.5 1074,-1008.5"/>
<text text-anchor="start" x="1082" y="-1027.5" font-family="FreeSans" font-size="10.00" fill="#000000">Fun4All_EICAnalysis</text>
<text text-anchor="middle" x="1132.5" y="-1015.5" font-family="FreeSans" font-size="10.00" fill="#000000">_Leptoquarks</text>
</a>
</g>
</g>
<!-- Node7&#45;&gt;Node17 -->
<g id="edge16" class="edge">
<title>Node7&#45;&gt;Node17</title>
<path fill="none" stroke="#191970" d="M1009.2278,-717.6284C1010.5673,-718.8296 1011.8297,-720.1181 1013,-721.5 1093.5155,-816.5749 968.3264,-904.5592 1049,-999.5 1055.5651,-1007.2261 1064.4132,-1012.6205 1073.8997,-1016.3744"/>
<polygon fill="#191970" stroke="#191970" points="1010.9975,-714.5926 1000.8167,-711.6597 1006.9464,-720.3013 1010.9975,-714.5926"/>
</g>
<!-- Node18 -->
<g id="node18" class="node">
<title>Node18</title>
<g id="a_node18"><a xlink:href="../../df/d6c/Fun4All__EICAnalysis__JPsi_8C.html#ad03644e8a25c5261146f6c59826ed6d0" target="_top" xlink:title="Fun4All_EICAnalysis\l_Quarkonia">
<polygon fill="none" stroke="#000000" points="1074,-957.5 1074,-989.5 1191,-989.5 1191,-957.5 1074,-957.5"/>
<text text-anchor="start" x="1082" y="-976.5" font-family="FreeSans" font-size="10.00" fill="#000000">Fun4All_EICAnalysis</text>
<text text-anchor="middle" x="1132.5" y="-964.5" font-family="FreeSans" font-size="10.00" fill="#000000">_Quarkonia</text>
</a>
</g>
</g>
<!-- Node7&#45;&gt;Node18 -->
<g id="edge17" class="edge">
<title>Node7&#45;&gt;Node18</title>
<path fill="none" stroke="#191970" d="M1008.7026,-717.2641C1010.2331,-718.5678 1011.6724,-719.9769 1013,-721.5 1080.1192,-798.5038 981.7528,-871.608 1049,-948.5 1055.5749,-956.0178 1064.3096,-961.321 1073.6535,-965.0517"/>
<polygon fill="#191970" stroke="#191970" points="1010.6166,-714.333 1000.3841,-711.586 1006.6702,-720.1145 1010.6166,-714.333"/>
</g>
<!-- Node19 -->
<g id="node19" class="node">
<title>Node19</title>
<g id="a_node19"><a xlink:href="../../df/d90/Fun4All__EICAnalysis__TrackEval_8C.html#ab4d10c3db3266243a5c314b02c02a360" target="_top" xlink:title="Fun4All_EICAnalysis\l_TrackEval">
<polygon fill="none" stroke="#000000" points="1074,-906.5 1074,-938.5 1191,-938.5 1191,-906.5 1074,-906.5"/>
<text text-anchor="start" x="1082" y="-925.5" font-family="FreeSans" font-size="10.00" fill="#000000">Fun4All_EICAnalysis</text>
<text text-anchor="middle" x="1132.5" y="-913.5" font-family="FreeSans" font-size="10.00" fill="#000000">_TrackEval</text>
</a>
</g>
</g>
<!-- Node7&#45;&gt;Node19 -->
<g id="edge18" class="edge">
<title>Node7&#45;&gt;Node19</title>
<path fill="none" stroke="#191970" d="M1008.5109,-717.2571C1010.1052,-718.5622 1011.6087,-719.9737 1013,-721.5 1066.7869,-780.5058 995.115,-838.5838 1049,-897.5 1055.7404,-904.8698 1064.5553,-910.1012 1073.9271,-913.807"/>
<polygon fill="#191970" stroke="#191970" points="1010.1602,-714.1525 999.8829,-711.5781 1006.3115,-719.9996 1010.1602,-714.1525"/>
</g>
<!-- Node20 -->
<g id="node20" class="node">
<title>Node20</title>
<g id="a_node20"><a xlink:href="../../de/dc8/Fun4All__EMCalLikelihood_8C.html#a209f0d5788c9d3adba2967f194bca64a" target="_top" xlink:title="Fun4All_EMCalLikelihood">
<polygon fill="none" stroke="#000000" points="1062,-867.5 1062,-887.5 1203,-887.5 1203,-867.5 1062,-867.5"/>
<text text-anchor="middle" x="1132.5" y="-874.5" font-family="FreeSans" font-size="10.00" fill="#000000">Fun4All_EMCalLikelihood</text>
</a>
</g>
</g>
<!-- Node7&#45;&gt;Node20 -->
<g id="edge19" class="edge">
<title>Node7&#45;&gt;Node20</title>
<path fill="none" stroke="#191970" d="M1007.8784,-716.9531C1009.6973,-718.3417 1011.4139,-719.8537 1013,-721.5 1056.6794,-766.8384 1003.7499,-814.7291 1049,-858.5 1052.74,-862.1178 1057.0182,-865.1015 1061.6174,-867.5568"/>
<polygon fill="#191970" stroke="#191970" points="1009.6727,-713.9473 999.3362,-711.6219 1005.9665,-719.8857 1009.6727,-713.9473"/>
</g>
<!-- Node21 -->
<g id="node21" class="node">
<title>Node21</title>
<g id="a_node21"><a xlink:href="../../df/d51/Fun4All__ExportGeom_8C.html#a582925c51bad38d562cf19e71211adfd" target="_top" xlink:title="get geometry from DST file and output TGeoManager ROOT files or other formats of geometry files...">
<polygon fill="none" stroke="#000000" points="1071.5,-828.5 1071.5,-848.5 1193.5,-848.5 1193.5,-828.5 1071.5,-828.5"/>
<text text-anchor="middle" x="1132.5" y="-835.5" font-family="FreeSans" font-size="10.00" fill="#000000">Fun4All_ExportGeom</text>
</a>
</g>
</g>
<!-- Node7&#45;&gt;Node21 -->
<g id="edge20" class="edge">
<title>Node7&#45;&gt;Node21</title>
<path fill="none" stroke="#191970" d="M1006.8573,-716.5762C1009.0342,-718.0659 1011.0953,-719.7023 1013,-721.5 1046.7453,-753.3488 1014.1533,-788.8603 1049,-819.5 1055.364,-825.0957 1063.0337,-829.1415 1071.112,-832.0502"/>
<polygon fill="#191970" stroke="#191970" points="1008.3966,-713.4253 997.9732,-711.5273 1004.938,-719.5112 1008.3966,-713.4253"/>
</g>
<!-- Node22 -->
<g id="node22" class="node">
<title>Node22</title>
<g id="a_node22"><a xlink:href="../../de/d55/Fun4All__G4__block_8C.html#a6a063a649a0dd3318a517d5af98430dd" target="_top" xlink:title="Fun4All_G4_block">
<polygon fill="none" stroke="#000000" points="1080,-789.5 1080,-809.5 1185,-809.5 1185,-789.5 1080,-789.5"/>
<text text-anchor="middle" x="1132.5" y="-796.5" font-family="FreeSans" font-size="10.00" fill="#000000">Fun4All_G4_block</text>
</a>
</g>
</g>
<!-- Node7&#45;&gt;Node22 -->
<g id="edge21" class="edge">
<title>Node7&#45;&gt;Node22</title>
<path fill="none" stroke="#191970" d="M1004.495,-715.9523C1007.4879,-717.6062 1010.3487,-719.4483 1013,-721.5 1037.2938,-740.2994 1024.0588,-762.5684 1049,-780.5 1058.0533,-787.0089 1068.9689,-791.3348 1079.8784,-794.1981"/>
<polygon fill="#191970" stroke="#191970" points="1005.7321,-712.6652 995.1978,-711.5342 1002.7276,-718.9876 1005.7321,-712.6652"/>
</g>
<!-- Node23 -->
<g id="node23" class="node">
<title>Node23</title>
<g id="a_node23"><a xlink:href="../../d8/d91/Fun4All__G4__Clusters_8C.html#ab7d8e64f12f512631d4c0e8c6683ec5b" target="_top" xlink:title="Fun4All_G4_Clusters">
<polygon fill="none" stroke="#000000" points="1073,-750.5 1073,-770.5 1192,-770.5 1192,-750.5 1073,-750.5"/>
<text text-anchor="middle" x="1132.5" y="-757.5" font-family="FreeSans" font-size="10.00" fill="#000000">Fun4All_G4_Clusters</text>
</a>
</g>
</g>
<!-- Node7&#45;&gt;Node23 -->
<g id="edge22" class="edge">
<title>Node7&#45;&gt;Node23</title>
<path fill="none" stroke="#191970" d="M994.839,-714.674C1001.0223,-716.7611 1007.2121,-719.0484 1013,-721.5 1029.8537,-728.6389 1031.9051,-734.9595 1049,-741.5 1058.1644,-745.0063 1068.1535,-747.9676 1077.9328,-750.4317"/>
<polygon fill="#191970" stroke="#191970" points="995.7778,-711.2993 985.1863,-711.564 993.6312,-717.9621 995.7778,-711.2993"/>
</g>
<!-- Node24 -->
<g id="node24" class="node">
<title>Node24</title>
<g id="a_node24"><a xlink:href="../../d2/dee/Fun4All__G4__Cylinder_8C.html#a271dc4f10f6f77107705e0efef0c97e5" target="_top" xlink:title="Fun4All_G4_Cylinder">
<polygon fill="none" stroke="#000000" points="1072,-711.5 1072,-731.5 1193,-731.5 1193,-711.5 1072,-711.5"/>
<text text-anchor="middle" x="1132.5" y="-718.5" font-family="FreeSans" font-size="10.00" fill="#000000">Fun4All_G4_Cylinder</text>
</a>
</g>
</g>
<!-- Node7&#45;&gt;Node24 -->
<g id="edge23" class="edge">
<title>Node7&#45;&gt;Node24</title>
<path fill="none" stroke="#191970" d="M1012.1054,-708.5195C1031.4832,-710.6087 1052.6328,-712.889 1071.7232,-714.9472"/>
<polygon fill="#191970" stroke="#191970" points="1012.4715,-705.0387 1002.1539,-707.4465 1011.721,-711.9984 1012.4715,-705.0387"/>
</g>
<!-- Node25 -->
<g id="node25" class="node">
<title>Node25</title>
<g id="a_node25"><a xlink:href="../../da/d02/Fun4All__G4__EICDetector_8C.html#afbe82cefa1d1fd031d9a8586b7bb68c6" target="_top" xlink:title="Fun4All_G4_EICDetector">
<polygon fill="none" stroke="#000000" points="1063,-672.5 1063,-692.5 1202,-692.5 1202,-672.5 1063,-672.5"/>
<text text-anchor="middle" x="1132.5" y="-679.5" font-family="FreeSans" font-size="10.00" fill="#000000">Fun4All_G4_EICDetector</text>
</a>
</g>
</g>
<!-- Node7&#45;&gt;Node25 -->
<g id="edge24" class="edge">
<title>Node7&#45;&gt;Node25</title>
<path fill="none" stroke="#191970" d="M1012.1601,-694.8259C1028.5254,-693.1497 1046.1514,-691.3443 1062.7317,-689.6461"/>
<polygon fill="#191970" stroke="#191970" points="1011.7452,-691.35 1002.1539,-695.8508 1012.4585,-698.3136 1011.7452,-691.35"/>
</g>
<!-- Node26 -->
<g id="node26" class="node">
<title>Node26</title>
<g id="a_node26"><a xlink:href="../../dd/d2a/Fun4All__G4__EICDetector__LQ_8C.html#aaa01242fd6e77ca43a9d49a6d46008e4" target="_top" xlink:title="Fun4All_G4_EICDetector_LQ">
<polygon fill="none" stroke="#000000" points="1054.5,-633.5 1054.5,-653.5 1210.5,-653.5 1210.5,-633.5 1054.5,-633.5"/>
<text text-anchor="middle" x="1132.5" y="-640.5" font-family="FreeSans" font-size="10.00" fill="#000000">Fun4All_G4_EICDetector_LQ</text>
</a>
</g>
</g>
<!-- Node7&#45;&gt;Node26 -->
<g id="edge25" class="edge">
<title>Node7&#45;&gt;Node26</title>
<path fill="none" stroke="#191970" d="M980.8944,-687.6922C1000.5755,-679.973 1025.9591,-670.5229 1049,-663.5 1060.9775,-659.8492 1074.0849,-656.441 1086.2911,-653.5091"/>
<polygon fill="#191970" stroke="#191970" points="979.4533,-684.4984 971.4461,-691.4363 982.0322,-691.006 979.4533,-684.4984"/>
</g>
<!-- Node27 -->
<g id="node27" class="node">
<title>Node27</title>
<g id="a_node27"><a xlink:href="../../df/d4b/Fun4All__G4__EICDetector__LQ__analysis_8C.html#af903e98824d083a08b353ac15996ee0e" target="_top" xlink:title="Fun4All_G4_EICDetector\l_LQ_analysis">
<polygon fill="none" stroke="#000000" points="1063,-582.5 1063,-614.5 1202,-614.5 1202,-582.5 1063,-582.5"/>
<text text-anchor="start" x="1071" y="-601.5" font-family="FreeSans" font-size="10.00" fill="#000000">Fun4All_G4_EICDetector</text>
<text text-anchor="middle" x="1132.5" y="-589.5" font-family="FreeSans" font-size="10.00" fill="#000000">_LQ_analysis</text>
</a>
</g>
</g>
<!-- Node7&#45;&gt;Node27 -->
<g id="edge26" class="edge">
<title>Node7&#45;&gt;Node27</title>
<path fill="none" stroke="#191970" d="M965.2686,-684.5785C984.7207,-667.3483 1017.0476,-640.9018 1049,-624.5 1056.294,-620.7559 1064.2261,-617.4344 1072.2027,-614.5239"/>
<polygon fill="#191970" stroke="#191970" points="962.8468,-682.0493 957.7588,-691.3424 967.5316,-687.2506 962.8468,-682.0493"/>
</g>
<!-- Node28 -->
<g id="node28" class="node">
<title>Node28</title>
<g id="a_node28"><a xlink:href="../../d1/daf/Fun4All__G4__EICDetector__LQ__analysis__nf_8C.html#a5022607d21247b87dd208b0828905147" target="_top" xlink:title="Fun4All_G4_EICDetector\l_LQ_analysis_nf">
<polygon fill="none" stroke="#000000" points="1063,-531.5 1063,-563.5 1202,-563.5 1202,-531.5 1063,-531.5"/>
<text text-anchor="start" x="1071" y="-550.5" font-family="FreeSans" font-size="10.00" fill="#000000">Fun4All_G4_EICDetector</text>
<text text-anchor="middle" x="1132.5" y="-538.5" font-family="FreeSans" font-size="10.00" fill="#000000">_LQ_analysis_nf</text>
</a>
</g>
</g>
<!-- Node7&#45;&gt;Node28 -->
<g id="edge27" class="edge">
<title>Node7&#45;&gt;Node28</title>
<path fill="none" stroke="#191970" d="M956.9704,-682.5196C972.7406,-654.3338 1006.1028,-601.6171 1049,-572.5 1054.0082,-569.1006 1059.4899,-566.1532 1065.1749,-563.5995"/>
<polygon fill="#191970" stroke="#191970" points="953.8499,-680.9315 952.1392,-691.3873 959.9969,-684.2805 953.8499,-680.9315"/>
</g>
<!-- Node29 -->
<g id="node29" class="node">
<title>Node29</title>
<g id="a_node29"><a xlink:href="../../d4/df5/Fun4All__G4__EICDetector__LQ__reference_8C.html#a2feefc472f17f90b3cbe74897d049f75" target="_top" xlink:title="Fun4All_G4_EICDetector\l_LQ_reference">
<polygon fill="none" stroke="#000000" points="1063,-480.5 1063,-512.5 1202,-512.5 1202,-480.5 1063,-480.5"/>
<text text-anchor="start" x="1071" y="-499.5" font-family="FreeSans" font-size="10.00" fill="#000000">Fun4All_G4_EICDetector</text>
<text text-anchor="middle" x="1132.5" y="-487.5" font-family="FreeSans" font-size="10.00" fill="#000000">_LQ_reference</text>
</a>
</g>
</g>
<!-- Node7&#45;&gt;Node29 -->
<g id="edge28" class="edge">
<title>Node7&#45;&gt;Node29</title>
<path fill="none" stroke="#191970" d="M952.8189,-681.4609C964.6498,-644.2815 995.0647,-564.5013 1049,-521.5 1053.2595,-518.104 1057.9723,-515.1687 1062.9267,-512.6317"/>
<polygon fill="#191970" stroke="#191970" points="949.4336,-680.5629 949.8539,-691.1494 956.1272,-682.6114 949.4336,-680.5629"/>
</g>
<!-- Node30 -->
<g id="node30" class="node">
<title>Node30</title>
<g id="a_node30"><a xlink:href="../../d3/d51/Fun4All__G4__EICDetector__RICH_8C.html#a5739502b0a7a1ba782c01069f77e933f" target="_top" xlink:title="Fun4All_G4_EICDetector_RICH">
<polygon fill="none" stroke="#000000" points="1049,-441.5 1049,-461.5 1216,-461.5 1216,-441.5 1049,-441.5"/>
<text text-anchor="middle" x="1132.5" y="-448.5" font-family="FreeSans" font-size="10.00" fill="#000000">Fun4All_G4_EICDetector_RICH</text>
</a>
</g>
</g>
<!-- Node7&#45;&gt;Node30 -->
<g id="edge29" class="edge">
<title>Node7&#45;&gt;Node30</title>
<path fill="none" stroke="#191970" d="M949.7894,-681.2125C957.1323,-635.9411 981.3259,-526.2811 1049,-470.5 1053.3594,-466.9067 1058.2645,-463.9615 1063.4571,-461.5512"/>
<polygon fill="#191970" stroke="#191970" points="946.3042,-680.8519 948.2694,-691.2629 953.2255,-681.8987 946.3042,-680.8519"/>
</g>
<!-- Node31 -->
<g id="node31" class="node">
<title>Node31</title>
<g id="a_node31"><a xlink:href="../../d9/d0e/Fun4All__G4__EICIR_8C.html#ac3543d1dd4a0abed3987d40939ee3f87" target="_top" xlink:title="Fun4All_G4_EICIR">
<polygon fill="none" stroke="#000000" points="1080.5,-402.5 1080.5,-422.5 1184.5,-422.5 1184.5,-402.5 1080.5,-402.5"/>
<text text-anchor="middle" x="1132.5" y="-409.5" font-family="FreeSans" font-size="10.00" fill="#000000">Fun4All_G4_EICIR</text>
</a>
</g>
</g>
<!-- Node7&#45;&gt;Node31 -->
<g id="edge30" class="edge">
<title>Node7&#45;&gt;Node31</title>
<path fill="none" stroke="#191970" d="M948.3687,-680.9922C952.8984,-630.3619 971.8868,-498.6797 1049,-431.5 1057.7436,-423.8827 1068.9108,-419.1433 1080.2129,-416.2353"/>
<polygon fill="#191970" stroke="#191970" points="944.8545,-681.0341 947.5528,-691.2796 951.8326,-681.5877 944.8545,-681.0341"/>
</g>
<!-- Node32 -->
<g id="node32" class="node">
<title>Node32</title>
<g id="a_node32"><a xlink:href="../../d7/d9e/Fun4All__G4__fsPHENIX_8C.html#af48911d394d2412e817583700f2bbee2" target="_top" xlink:title="Fun4All_G4_fsPHENIX">
<polygon fill="none" stroke="#000000" points="1070.5,-363.5 1070.5,-383.5 1194.5,-383.5 1194.5,-363.5 1070.5,-363.5"/>
<text text-anchor="middle" x="1132.5" y="-370.5" font-family="FreeSans" font-size="10.00" fill="#000000">Fun4All_G4_fsPHENIX</text>
</a>
</g>
</g>
<!-- Node7&#45;&gt;Node32 -->
<g id="edge31" class="edge">
<title>Node7&#45;&gt;Node32</title>
<path fill="none" stroke="#191970" d="M951.0254,-681.0768C963.7077,-618.7593 1004.6318,-432.8374 1049,-392.5 1055.0502,-386.9994 1062.3549,-382.9854 1070.0958,-380.073"/>
<polygon fill="#191970" stroke="#191970" points="947.5277,-680.7182 948.9916,-691.2115 954.3908,-682.0956 947.5277,-680.7182"/>
</g>
<!-- Node33 -->
<g id="node33" class="node">
<title>Node33</title>
<g id="a_node33"><a xlink:href="../../da/d2f/Fun4All__G4__fsPHENIX__FastSim_8C.html#a66fb850cae5fcaadda23b74a25ce4c9c" target="_top" xlink:title="Fun4All_G4_fsPHENIX\l_FastSim">
<polygon fill="none" stroke="#000000" points="1070.5,-312.5 1070.5,-344.5 1194.5,-344.5 1194.5,-312.5 1070.5,-312.5"/>
<text text-anchor="start" x="1078.5" y="-331.5" font-family="FreeSans" font-size="10.00" fill="#000000">Fun4All_G4_fsPHENIX</text>
<text text-anchor="middle" x="1132.5" y="-319.5" font-family="FreeSans" font-size="10.00" fill="#000000">_FastSim</text>
</a>
</g>
</g>
<!-- Node7&#45;&gt;Node33 -->
<g id="edge32" class="edge">
<title>Node7&#45;&gt;Node33</title>
<path fill="none" stroke="#191970" d="M950.3296,-681.3285C961.7492,-614.447 1001.2686,-401.5086 1049,-353.5 1054.9747,-347.4906 1062.3311,-342.914 1070.1788,-339.4309"/>
<polygon fill="#191970" stroke="#191970" points="946.8413,-680.9673 948.6337,-691.4094 953.7443,-682.1286 946.8413,-680.9673"/>
</g>
<!-- Node34 -->
<g id="node34" class="node">
<title>Node34</title>
<g id="a_node34"><a xlink:href="../../d0/da6/Fun4All__G4__fsPHENIX__pi0_8C.html#a023d91d47b678e5d7f1751834aa517c6" target="_top" xlink:title="Fun4All_G4_fsPHENIX_pi0">
<polygon fill="none" stroke="#000000" points="1060,-273.5 1060,-293.5 1205,-293.5 1205,-273.5 1060,-273.5"/>
<text text-anchor="middle" x="1132.5" y="-280.5" font-family="FreeSans" font-size="10.00" fill="#000000">Fun4All_G4_fsPHENIX_pi0</text>
</a>
</g>
</g>
<!-- Node7&#45;&gt;Node34 -->
<g id="edge33" class="edge">
<title>Node7&#45;&gt;Node34</title>
<path fill="none" stroke="#191970" d="M949.4037,-681.1736C958.5073,-607.6243 993.2058,-356.8325 1049,-302.5 1052.6214,-298.9735 1056.7538,-296.0485 1061.1974,-293.6276"/>
<polygon fill="#191970" stroke="#191970" points="945.8932,-681.05 948.1631,-691.3988 952.8422,-681.8932 945.8932,-681.05"/>
</g>
<!-- Node35 -->
<g id="node35" class="node">
<title>Node35</title>
<g id="a_node35"><a xlink:href="../../df/de1/Fun4All__G4__IonGun_8C.html#ab4966a2ae337cb8f0e45f7ee488e33b7" target="_top" xlink:title="Fun4All_G4_IonGun">
<polygon fill="none" stroke="#000000" points="1075.5,-234.5 1075.5,-254.5 1189.5,-254.5 1189.5,-234.5 1075.5,-234.5"/>
<text text-anchor="middle" x="1132.5" y="-241.5" font-family="FreeSans" font-size="10.00" fill="#000000">Fun4All_G4_IonGun</text>
</a>
</g>
</g>
<!-- Node7&#45;&gt;Node35 -->
<g id="edge34" class="edge">
<title>Node7&#45;&gt;Node35</title>
<path fill="none" stroke="#191970" d="M948.9041,-681.2216C956.6346,-603.2359 988.2016,-323.9913 1049,-263.5 1056.1667,-256.3695 1065.4175,-251.6866 1075.1397,-248.6539"/>
<polygon fill="#191970" stroke="#191970" points="945.4163,-680.9265 947.9358,-691.2174 952.3837,-681.6014 945.4163,-680.9265"/>
</g>
<!-- Node36 -->
<g id="node36" class="node">
<title>Node36</title>
<g id="a_node36"><a xlink:href="../../d5/d01/Fun4All__G4__LeadBrick_8C.html#a5fcd8843f8a815feb3b053eaabd60d41" target="_top" xlink:title="Fun4All_G4_LeadBrick">
<polygon fill="none" stroke="#000000" points="1068.5,-195.5 1068.5,-215.5 1196.5,-215.5 1196.5,-195.5 1068.5,-195.5"/>
<text text-anchor="middle" x="1132.5" y="-202.5" font-family="FreeSans" font-size="10.00" fill="#000000">Fun4All_G4_LeadBrick</text>
</a>
</g>
</g>
<!-- Node7&#45;&gt;Node36 -->
<g id="edge35" class="edge">
<title>Node7&#45;&gt;Node36</title>
<path fill="none" stroke="#191970" d="M948.5034,-681.0372C954.984,-598.4768 983.2353,-291.13 1049,-224.5 1054.4307,-218.9978 1061.1004,-214.947 1068.2816,-211.9849"/>
<polygon fill="#191970" stroke="#191970" points="945.0031,-680.9091 947.7318,-691.1465 951.9828,-681.4419 945.0031,-680.9091"/>
</g>
<!-- Node37 -->
<g id="node37" class="node">
<title>Node37</title>
<g id="a_node37"><a xlink:href="../../d9/d8f/Fun4All__G4__Momentum_8C.html#afbd7a4eecd7792e9216ce80b5514123e" target="_top" xlink:title="Fun4All_G4_Momentum">
<polygon fill="none" stroke="#000000" points="1065,-156.5 1065,-176.5 1200,-176.5 1200,-156.5 1065,-156.5"/>
<text text-anchor="middle" x="1132.5" y="-163.5" font-family="FreeSans" font-size="10.00" fill="#000000">Fun4All_G4_Momentum</text>
</a>
</g>
</g>
<!-- Node7&#45;&gt;Node37 -->
<g id="edge36" class="edge">
<title>Node7&#45;&gt;Node37</title>
<path fill="none" stroke="#191970" d="M948.1449,-681.0584C953.4165,-594.3859 978.1957,-258.3572 1049,-185.5 1053.559,-180.8088 1059.0175,-177.169 1064.9316,-174.3576"/>
<polygon fill="#191970" stroke="#191970" points="944.643,-680.9903 947.5505,-691.1783 951.6309,-681.4008 944.643,-680.9903"/>
</g>
<!-- Node38 -->
<g id="node38" class="node">
<title>Node38</title>
<g id="a_node38"><a xlink:href="../../dc/d8e/Fun4All__G4__Prototype2_8C.html#a6b8f092c4f51be2938dd09c810ba6226" target="_top" xlink:title="Fun4All_G4_Prototype2">
<polygon fill="none" stroke="#000000" points="1066,-117.5 1066,-137.5 1199,-137.5 1199,-117.5 1066,-117.5"/>
<text text-anchor="middle" x="1132.5" y="-124.5" font-family="FreeSans" font-size="10.00" fill="#000000">Fun4All_G4_Prototype2</text>
</a>
</g>
</g>
<!-- Node7&#45;&gt;Node38 -->
<g id="edge37" class="edge">
<title>Node7&#45;&gt;Node38</title>
<path fill="none" stroke="#191970" d="M947.8273,-681.2715C951.9355,-590.9696 973.085,-225.6707 1049,-146.5 1053.7332,-141.5638 1059.4615,-137.788 1065.6743,-134.9151"/>
<polygon fill="#191970" stroke="#191970" points="944.3288,-681.1624 947.3908,-691.3051 951.3222,-681.4667 944.3288,-681.1624"/>
</g>
<!-- Node39 -->
<g id="node39" class="node">
<title>Node39</title>
<g id="a_node39"><a xlink:href="../../d7/d40/Fun4All__G4__Prototype3_8C.html#a1201361263017b08a070777a0b90b27c" target="_top" xlink:title="Fun4All_G4_Prototype3">
<polygon fill="none" stroke="#000000" points="1066,-78.5 1066,-98.5 1199,-98.5 1199,-78.5 1066,-78.5"/>
<text text-anchor="middle" x="1132.5" y="-85.5" font-family="FreeSans" font-size="10.00" fill="#000000">Fun4All_G4_Prototype3</text>
</a>
</g>
</g>
<!-- Node7&#45;&gt;Node39 -->
<g id="edge38" class="edge">
<title>Node7&#45;&gt;Node39</title>
<path fill="none" stroke="#191970" d="M947.5685,-681.0604C950.6187,-586.5508 968.0781,-192.8864 1049,-107.5 1053.7043,-102.5362 1059.414,-98.7428 1065.6159,-95.8594"/>
<polygon fill="#191970" stroke="#191970" points="944.07,-680.9605 947.2646,-691.0622 951.0668,-681.1731 944.07,-680.9605"/>
</g>
<!-- Node40 -->
<g id="node40" class="node">
<title>Node40</title>
<g id="a_node40"><a xlink:href="../../d4/d58/Fun4All__G4__Prototype4_8C.html#acac517f0728af658cbf99c7c9687c908" target="_top" xlink:title="Fun4All_G4_Prototype4">
<polygon fill="none" stroke="#000000" points="1066,-39.5 1066,-59.5 1199,-59.5 1199,-39.5 1066,-39.5"/>
<text text-anchor="middle" x="1132.5" y="-46.5" font-family="FreeSans" font-size="10.00" fill="#000000">Fun4All_G4_Prototype4</text>
</a>
</g>
</g>
<!-- Node7&#45;&gt;Node40 -->
<g id="edge39" class="edge">
<title>Node7&#45;&gt;Node40</title>
<path fill="none" stroke="#191970" d="M947.3274,-681.3029C949.3308,-583.522 962.9281,-160.262 1049,-68.5 1053.7804,-63.4036 1059.62,-59.5381 1065.9687,-56.6233"/>
<polygon fill="#191970" stroke="#191970" points="943.8272,-681.2825 947.1401,-691.346 950.826,-681.413 943.8272,-681.2825"/>
</g>
<!-- Node41 -->
<g id="node41" class="node">
<title>Node41</title>
<g id="a_node41"><a xlink:href="../../d5/d2c/macros_2blob_2master_2macros_2g4simulations_2Fun4All__G4__sPHENIX_8C.html#a6eaaa492d7023ec86c562dc63aa1e5a4" target="_top" xlink:title="Fun4All_G4_sPHENIX">
<polygon fill="none" stroke="#000000" points="1072,-.5 1072,-20.5 1193,-20.5 1193,-.5 1072,-.5"/>
<text text-anchor="middle" x="1132.5" y="-7.5" font-family="FreeSans" font-size="10.00" fill="#000000">Fun4All_G4_sPHENIX</text>
</a>
</g>
</g>
<!-- Node7&#45;&gt;Node41 -->
<g id="edge40" class="edge">
<title>Node7&#45;&gt;Node41</title>
<path fill="none" stroke="#191970" d="M948.7276,-681.1714C958.0019,-574.1215 1003.1713,-78.8075 1049,-29.5 1055.1741,-22.8573 1063.1468,-18.3014 1071.7104,-15.2151"/>
<polygon fill="#191970" stroke="#191970" points="945.2275,-681.0234 947.8585,-691.2864 952.2018,-681.6228 945.2275,-681.0234"/>
</g>
<!-- Node43 -->
<g id="node43" class="node">
<title>Node43</title>
<g id="a_node43"><a xlink:href="../../da/daa/classFun4AllDstOutputManager.html#aa4b5b519c6db1540d03007c8c21436fc" target="_top" xlink:title="write starting from given node">
<polygon fill="none" stroke="#000000" points="515.5,-682.5 515.5,-714.5 665.5,-714.5 665.5,-682.5 515.5,-682.5"/>
<text text-anchor="start" x="523.5" y="-701.5" font-family="FreeSans" font-size="10.00" fill="#000000">Fun4AllDstOutputManager</text>
<text text-anchor="middle" x="590.5" y="-689.5" font-family="FreeSans" font-size="10.00" fill="#000000">::Write</text>
</a>
</g>
</g>
<!-- Node42&#45;&gt;Node43 -->
<g id="edge42" class="edge">
<title>Node42&#45;&gt;Node43</title>
<path fill="none" stroke="#191970" d="M467.7877,-705.5457C483.5227,-704.6422 499.8262,-703.7062 515.2112,-702.8228"/>
<polygon fill="#191970" stroke="#191970" points="467.3279,-702.0662 457.545,-706.1338 467.7292,-709.0547 467.3279,-702.0662"/>
</g>
<!-- Node44 -->
<g id="node44" class="node">
<title>Node44</title>
<g id="a_node44"><a xlink:href="../../da/daa/classFun4AllDstOutputManager.html#ac839ec7d93dd52ca363c8307fa88cb94" target="_top" xlink:title="write specified node">
<polygon fill="none" stroke="#000000" points="515.5,-733.5 515.5,-765.5 665.5,-765.5 665.5,-733.5 515.5,-733.5"/>
<text text-anchor="start" x="523.5" y="-752.5" font-family="FreeSans" font-size="10.00" fill="#000000">Fun4AllDstOutputManager</text>
<text text-anchor="middle" x="590.5" y="-740.5" font-family="FreeSans" font-size="10.00" fill="#000000">::WriteNode</text>
</a>
</g>
</g>
<!-- Node42&#45;&gt;Node44 -->
<g id="edge43" class="edge">
<title>Node42&#45;&gt;Node44</title>
<path fill="none" stroke="#191970" d="M467.7877,-726.6015C483.5227,-729.5377 499.8262,-732.58 515.2112,-735.4509"/>
<polygon fill="#191970" stroke="#191970" points="468.0174,-723.0841 457.545,-724.6902 466.7333,-729.9653 468.0174,-723.0841"/>
</g>
<!-- Node45&#45;&gt;Node5 -->
<g id="edge45" class="edge">
<title>Node45&#45;&gt;Node5</title>
<path fill="none" stroke="#191970" d="M467.8904,-654.4435C527.5545,-653.1582 608.2292,-655.8258 677,-673.5 704.6961,-680.618 733.741,-695.7134 753.7213,-707.4658"/>
<polygon fill="#191970" stroke="#191970" points="467.6595,-650.9482 457.7528,-654.7041 467.8395,-657.9459 467.6595,-650.9482"/>
</g>
<!-- Node45&#45;&gt;Node43 -->
<g id="edge46" class="edge">
<title>Node45&#45;&gt;Node43</title>
<path fill="none" stroke="#191970" d="M467.7877,-675.6015C483.5227,-678.5377 499.8262,-681.58 515.2112,-684.4509"/>
<polygon fill="#191970" stroke="#191970" points="468.0174,-672.0841 457.545,-673.6902 466.7333,-678.9653 468.0174,-672.0841"/>
</g>
<!-- Node47 -->
<g id="node47" class="node">
<title>Node47</title>
<g id="a_node47"><a xlink:href="../../df/df1/classPHG4DstCompressReco.html#adaabe6fa274e89f2ab8cb3c300831bb0" target="_top" xlink:title="run initialization">
<polygon fill="none" stroke="#000000" points="523,-592.5 523,-624.5 658,-624.5 658,-592.5 523,-592.5"/>
<text text-anchor="start" x="531" y="-611.5" font-family="FreeSans" font-size="10.00" fill="#000000">PHG4DstCompressReco</text>
<text text-anchor="middle" x="590.5" y="-599.5" font-family="FreeSans" font-size="10.00" fill="#000000">::InitRun</text>
</a>
</g>
</g>
<!-- Node46&#45;&gt;Node47 -->
<g id="edge48" class="edge">
<title>Node46&#45;&gt;Node47</title>
<path fill="none" stroke="#191970" d="M459.1851,-608.5C480.0783,-608.5 502.5052,-608.5 522.8072,-608.5"/>
<polygon fill="#191970" stroke="#191970" points="459.0677,-605.0001 449.0677,-608.5 459.0676,-612.0001 459.0677,-605.0001"/>
</g>
<!-- Node49 -->
<g id="node49" class="node">
<title>Node49</title>
<g id="a_node49"><a xlink:href="../../dd/d9d/classPHG4TruthEventAction.html#acae7f6ab30e8cb76590ad8d4aa332508" target="_top" xlink:title="get relevant nodes from top node passed as argument">
<polygon fill="none" stroke="#000000" points="525.5,-541.5 525.5,-573.5 655.5,-573.5 655.5,-541.5 525.5,-541.5"/>
<text text-anchor="start" x="533.5" y="-560.5" font-family="FreeSans" font-size="10.00" fill="#000000">PHG4TruthEventAction</text>
<text text-anchor="middle" x="590.5" y="-548.5" font-family="FreeSans" font-size="10.00" fill="#000000">::SetInterfacePointers</text>
</a>
</g>
</g>
<!-- Node48&#45;&gt;Node49 -->
<g id="edge50" class="edge">
<title>Node48&#45;&gt;Node49</title>
<path fill="none" stroke="#191970" d="M456.9124,-557.5C479.3217,-557.5 503.6699,-557.5 525.3665,-557.5"/>
<polygon fill="#191970" stroke="#191970" points="456.7692,-554.0001 446.7692,-557.5 456.7692,-561.0001 456.7692,-554.0001"/>
</g>
<!-- Node50 -->
<g id="node50" class="node">
<title>Node50</title>
<g id="a_node50"><a xlink:href="../../d5/d85/classPHG4TruthSubsystem.html#adb3c2d7e9328d276fd60e8e4b004298a" target="_top" xlink:title="event processing">
<polygon fill="none" stroke="#000000" points="716,-541.5 716,-573.5 842,-573.5 842,-541.5 716,-541.5"/>
<text text-anchor="start" x="724" y="-560.5" font-family="FreeSans" font-size="10.00" fill="#000000">PHG4TruthSubsystem</text>
<text text-anchor="middle" x="779" y="-548.5" font-family="FreeSans" font-size="10.00" fill="#000000">::process_event</text>
</a>
</g>
</g>
<!-- Node49&#45;&gt;Node50 -->
<g id="edge51" class="edge">
<title>Node49&#45;&gt;Node50</title>
<path fill="none" stroke="#191970" d="M665.82,-557.5C682.3775,-557.5 699.748,-557.5 715.7719,-557.5"/>
<polygon fill="#191970" stroke="#191970" points="665.635,-554.0001 655.635,-557.5 665.6349,-561.0001 665.635,-554.0001"/>
</g>
</g>
</svg>
