<?xml version="1.0" encoding="UTF-8" standalone="no"?>
<!DOCTYPE svg PUBLIC "-//W3C//DTD SVG 1.1//EN"
 "http://www.w3.org/Graphics/SVG/1.1/DTD/svg11.dtd">
<!-- Generated by graphviz version 2.40.1 (20161225.0304)
 -->
<!-- Title: coresoftware/blob/master/simulation/g4simulation/g4eval/CaloEvalStack.h Pages: 1 -->
<svg width="3414pt" height="458pt"
 viewBox="0.00 0.00 3413.98 458.00" xmlns="http://www.w3.org/2000/svg" xmlns:xlink="http://www.w3.org/1999/xlink">
<g id="graph0" class="graph" transform="scale(1 1) rotate(0) translate(4 454)">
<title>coresoftware/blob/master/simulation/g4simulation/g4eval/CaloEvalStack.h</title>
<!-- Node1 -->
<g id="node1" class="node">
<title>Node1</title>
<polygon fill="#bfbfbf" stroke="#000000" points="1865.983,-405.5 1865.983,-449.5 2011.983,-449.5 2011.983,-405.5 1865.983,-405.5"/>
<text text-anchor="start" x="1873.983" y="-436.5" font-family="FreeSans" font-size="10.00" fill="#000000">coresoftware/blob/master</text>
<text text-anchor="start" x="1873.983" y="-424.5" font-family="FreeSans" font-size="10.00" fill="#000000">/simulation/g4simulation</text>
<text text-anchor="middle" x="1938.983" y="-412.5" font-family="FreeSans" font-size="10.00" fill="#000000">/g4eval/CaloEvalStack.h</text>
</g>
<!-- Node2 -->
<g id="node2" class="node">
<title>Node2</title>
<g id="a_node2"><a xlink:href="../../da/d1b/QAG4SimulationCalorimeter_8cc.html" target="_top" xlink:title="coresoftware/blob/master\l/offline/QA/modules/QAG4Simulation\lCalorimeter.cc">
<polygon fill="none" stroke="#000000" points="585.983,-324.5 585.983,-368.5 789.983,-368.5 789.983,-324.5 585.983,-324.5"/>
<text text-anchor="start" x="593.983" y="-355.5" font-family="FreeSans" font-size="10.00" fill="#000000">coresoftware/blob/master</text>
<text text-anchor="start" x="593.983" y="-343.5" font-family="FreeSans" font-size="10.00" fill="#000000">/offline/QA/modules/QAG4Simulation</text>
<text text-anchor="middle" x="687.983" y="-331.5" font-family="FreeSans" font-size="10.00" fill="#000000">Calorimeter.cc</text>
</a>
</g>
</g>
<!-- Node1&#45;&gt;Node2 -->
<g id="edge1" class="edge">
<title>Node1&#45;&gt;Node2</title>
<path fill="none" stroke="#191970" d="M1855.5156,-424.8307C1628.5557,-417.3149 1003.5143,-394.8317 798.983,-369 796.0569,-368.6304 793.0925,-368.2269 790.1045,-367.7947"/>
<polygon fill="#191970" stroke="#191970" points="1855.5852,-428.3349 1865.6953,-425.1666 1855.8162,-421.3387 1855.5852,-428.3349"/>
</g>
<!-- Node3 -->
<g id="node3" class="node">
<title>Node3</title>
<g id="a_node3"><a xlink:href="../../d4/d11/QAG4SimulationCalorimeterSum_8cc.html" target="_top" xlink:title="coresoftware/blob/master\l/offline/QA/modules/QAG4Simulation\lCalorimeterSum.cc">
<polygon fill="none" stroke="#000000" points="807.983,-324.5 807.983,-368.5 1011.983,-368.5 1011.983,-324.5 807.983,-324.5"/>
<text text-anchor="start" x="815.983" y="-355.5" font-family="FreeSans" font-size="10.00" fill="#000000">coresoftware/blob/master</text>
<text text-anchor="start" x="815.983" y="-343.5" font-family="FreeSans" font-size="10.00" fill="#000000">/offline/QA/modules/QAG4Simulation</text>
<text text-anchor="middle" x="909.983" y="-331.5" font-family="FreeSans" font-size="10.00" fill="#000000">CalorimeterSum.cc</text>
</a>
</g>
</g>
<!-- Node1&#45;&gt;Node3 -->
<g id="edge2" class="edge">
<title>Node1&#45;&gt;Node3</title>
<path fill="none" stroke="#191970" d="M1855.4101,-425.9832C1693.6469,-422.2064 1326.7398,-409.5388 1020.983,-369 1018.0592,-368.6123 1015.0969,-368.1929 1012.1107,-367.7466"/>
<polygon fill="#191970" stroke="#191970" points="1855.6884,-429.4904 1865.7656,-426.2193 1855.848,-422.4922 1855.6884,-429.4904"/>
</g>
<!-- Node4 -->
<g id="node4" class="node">
<title>Node4</title>
<g id="a_node4"><a xlink:href="../../d0/dcc/CaloEvalStack_8cc.html" target="_top" xlink:title="coresoftware/blob/master\l/simulation/g4simulation\l/g4eval/CaloEvalStack.cc">
<polygon fill="none" stroke="#000000" points="1029.983,-324.5 1029.983,-368.5 1175.983,-368.5 1175.983,-324.5 1029.983,-324.5"/>
<text text-anchor="start" x="1037.983" y="-355.5" font-family="FreeSans" font-size="10.00" fill="#000000">coresoftware/blob/master</text>
<text text-anchor="start" x="1037.983" y="-343.5" font-family="FreeSans" font-size="10.00" fill="#000000">/simulation/g4simulation</text>
<text text-anchor="middle" x="1102.983" y="-331.5" font-family="FreeSans" font-size="10.00" fill="#000000">/g4eval/CaloEvalStack.cc</text>
</a>
</g>
</g>
<!-- Node1&#45;&gt;Node4 -->
<g id="edge3" class="edge">
<title>Node1&#45;&gt;Node4</title>
<path fill="none" stroke="#191970" d="M1855.6852,-426.2034C1716.0088,-422.8791 1426.1582,-411.049 1184.983,-369 1182.0745,-368.4929 1179.1198,-367.9277 1176.1442,-367.3166"/>
<polygon fill="#191970" stroke="#191970" points="1855.8085,-429.7071 1865.8862,-426.4374 1855.9691,-422.7089 1855.8085,-429.7071"/>
</g>
<!-- Node5 -->
<g id="node5" class="node">
<title>Node5</title>
<g id="a_node5"><a xlink:href="../../d0/d13/CaloEvaluator_8cc.html" target="_top" xlink:title="coresoftware/blob/master\l/simulation/g4simulation\l/g4eval/CaloEvaluator.cc">
<polygon fill="none" stroke="#000000" points="1193.983,-324.5 1193.983,-368.5 1339.983,-368.5 1339.983,-324.5 1193.983,-324.5"/>
<text text-anchor="start" x="1201.983" y="-355.5" font-family="FreeSans" font-size="10.00" fill="#000000">coresoftware/blob/master</text>
<text text-anchor="start" x="1201.983" y="-343.5" font-family="FreeSans" font-size="10.00" fill="#000000">/simulation/g4simulation</text>
<text text-anchor="middle" x="1266.983" y="-331.5" font-family="FreeSans" font-size="10.00" fill="#000000">/g4eval/CaloEvaluator.cc</text>
</a>
</g>
</g>
<!-- Node1&#45;&gt;Node5 -->
<g id="edge4" class="edge">
<title>Node1&#45;&gt;Node5</title>
<path fill="none" stroke="#191970" d="M1855.4696,-423.1874C1741.4573,-416.3831 1531.0212,-400.5525 1353.983,-369 1349.5289,-368.2062 1344.9675,-367.3035 1340.3802,-366.3267"/>
<polygon fill="#191970" stroke="#191970" points="1855.3373,-426.6855 1865.5256,-423.779 1855.7484,-419.6976 1855.3373,-426.6855"/>
</g>
<!-- Node6 -->
<g id="node6" class="node">
<title>Node6</title>
<g id="a_node6"><a xlink:href="../../de/d49/JetTruthEval_8h.html" target="_top" xlink:title="coresoftware/blob/master\l/simulation/g4simulation\l/g4eval/JetTruthEval.h">
<polygon fill="none" stroke="#000000" points="1395.983,-324.5 1395.983,-368.5 1541.983,-368.5 1541.983,-324.5 1395.983,-324.5"/>
<text text-anchor="start" x="1403.983" y="-355.5" font-family="FreeSans" font-size="10.00" fill="#000000">coresoftware/blob/master</text>
<text text-anchor="start" x="1403.983" y="-343.5" font-family="FreeSans" font-size="10.00" fill="#000000">/simulation/g4simulation</text>
<text text-anchor="middle" x="1468.983" y="-331.5" font-family="FreeSans" font-size="10.00" fill="#000000">/g4eval/JetTruthEval.h</text>
</a>
</g>
</g>
<!-- Node1&#45;&gt;Node6 -->
<g id="edge5" class="edge">
<title>Node1&#45;&gt;Node6</title>
<path fill="none" stroke="#191970" d="M1855.4414,-417.6846C1776.7254,-407.7733 1655.7125,-390.8246 1551.983,-369 1548.7689,-368.3237 1545.4941,-367.5975 1542.193,-366.835"/>
<polygon fill="#191970" stroke="#191970" points="1855.4259,-421.2098 1865.7827,-418.9768 1856.2939,-414.2638 1855.4259,-421.2098"/>
</g>
<!-- Node21 -->
<g id="node21" class="node">
<title>Node21</title>
<g id="a_node21"><a xlink:href="../../d2/da2/JetRecoEval_8cc.html" target="_top" xlink:title="coresoftware/blob/master\l/simulation/g4simulation\l/g4eval/JetRecoEval.cc">
<polygon fill="none" stroke="#000000" points="1294.983,-162.5 1294.983,-206.5 1440.983,-206.5 1440.983,-162.5 1294.983,-162.5"/>
<text text-anchor="start" x="1302.983" y="-193.5" font-family="FreeSans" font-size="10.00" fill="#000000">coresoftware/blob/master</text>
<text text-anchor="start" x="1302.983" y="-181.5" font-family="FreeSans" font-size="10.00" fill="#000000">/simulation/g4simulation</text>
<text text-anchor="middle" x="1367.983" y="-169.5" font-family="FreeSans" font-size="10.00" fill="#000000">/g4eval/JetRecoEval.cc</text>
</a>
</g>
</g>
<!-- Node1&#45;&gt;Node21 -->
<g id="edge29" class="edge">
<title>Node1&#45;&gt;Node21</title>
<path fill="none" stroke="#191970" d="M1855.5495,-424.359C1709.3904,-418.0348 1419.3972,-401.5104 1386.983,-369 1343.8992,-325.7883 1354.1887,-245.4539 1362.4416,-206.6336"/>
<polygon fill="#191970" stroke="#191970" points="1855.6788,-427.8676 1865.8188,-424.7968 1855.977,-420.8739 1855.6788,-427.8676"/>
</g>
<!-- Node23 -->
<g id="node23" class="node">
<title>Node23</title>
<g id="a_node23"><a xlink:href="../../d7/d51/DISKinematicsReco_8C.html" target="_top" xlink:title="analysis/blob/master\l/EICAnalysis/DISKinematicsReco.C">
<polygon fill="none" stroke="#000000" points="1560.483,-330.5 1560.483,-362.5 1749.483,-362.5 1749.483,-330.5 1560.483,-330.5"/>
<text text-anchor="start" x="1568.483" y="-349.5" font-family="FreeSans" font-size="10.00" fill="#000000">analysis/blob/master</text>
<text text-anchor="middle" x="1654.983" y="-337.5" font-family="FreeSans" font-size="10.00" fill="#000000">/EICAnalysis/DISKinematicsReco.C</text>
</a>
</g>
</g>
<!-- Node1&#45;&gt;Node23 -->
<g id="edge30" class="edge">
<title>Node1&#45;&gt;Node23</title>
<path fill="none" stroke="#191970" d="M1856.0776,-403.8544C1809.5228,-390.5765 1752.6537,-374.3568 1711.2859,-362.5582"/>
<polygon fill="#191970" stroke="#191970" points="1855.2695,-407.2635 1865.846,-406.6405 1857.1894,-400.5319 1855.2695,-407.2635"/>
</g>
<!-- Node24 -->
<g id="node24" class="node">
<title>Node24</title>
<g id="a_node24"><a xlink:href="../../dc/dd5/ExclusiveReco_8C.html" target="_top" xlink:title="analysis/blob/master\l/EICAnalysis/ExclusiveReco.C">
<polygon fill="none" stroke="#000000" points="1767.983,-330.5 1767.983,-362.5 1931.983,-362.5 1931.983,-330.5 1767.983,-330.5"/>
<text text-anchor="start" x="1775.983" y="-349.5" font-family="FreeSans" font-size="10.00" fill="#000000">analysis/blob/master</text>
<text text-anchor="middle" x="1849.983" y="-337.5" font-family="FreeSans" font-size="10.00" fill="#000000">/EICAnalysis/ExclusiveReco.C</text>
</a>
</g>
</g>
<!-- Node1&#45;&gt;Node24 -->
<g id="edge31" class="edge">
<title>Node1&#45;&gt;Node24</title>
<path fill="none" stroke="#191970" d="M1907.1014,-398.4841C1893.8726,-386.4444 1879.0219,-372.9287 1867.7796,-362.6969"/>
<polygon fill="#191970" stroke="#191970" points="1904.9119,-401.224 1914.6634,-405.3664 1909.6235,-396.047 1904.9119,-401.224"/>
</g>
<!-- Node25 -->
<g id="node25" class="node">
<title>Node25</title>
<g id="a_node25"><a xlink:href="../../dd/d4c/TrackProjectionTools_8C.html" target="_top" xlink:title="analysis/blob/master\l/EICAnalysis/TrackProjection\lTools.C">
<polygon fill="none" stroke="#000000" points="1949.983,-324.5 1949.983,-368.5 2107.983,-368.5 2107.983,-324.5 1949.983,-324.5"/>
<text text-anchor="start" x="1957.983" y="-355.5" font-family="FreeSans" font-size="10.00" fill="#000000">analysis/blob/master</text>
<text text-anchor="start" x="1957.983" y="-343.5" font-family="FreeSans" font-size="10.00" fill="#000000">/EICAnalysis/TrackProjection</text>
<text text-anchor="middle" x="2028.983" y="-331.5" font-family="FreeSans" font-size="10.00" fill="#000000">Tools.C</text>
</a>
</g>
</g>
<!-- Node1&#45;&gt;Node25 -->
<g id="edge32" class="edge">
<title>Node1&#45;&gt;Node25</title>
<path fill="none" stroke="#191970" d="M1971.2906,-398.4232C1982.2051,-388.6001 1994.2045,-377.8007 2004.4199,-368.6068"/>
<polygon fill="#191970" stroke="#191970" points="1968.6675,-396.0752 1963.5759,-405.3664 1973.3503,-401.2783 1968.6675,-396.0752"/>
</g>
<!-- Node26 -->
<g id="node26" class="node">
<title>Node26</title>
<g id="a_node26"><a xlink:href="../../d1/d35/EMCalAna_8C.html" target="_top" xlink:title="analysis/blob/master\l/EMCal&#45;analysis/EMCalAna\l/EMCalAna.C">
<polygon fill="none" stroke="#000000" points="2125.983,-324.5 2125.983,-368.5 2275.983,-368.5 2275.983,-324.5 2125.983,-324.5"/>
<text text-anchor="start" x="2133.983" y="-355.5" font-family="FreeSans" font-size="10.00" fill="#000000">analysis/blob/master</text>
<text text-anchor="start" x="2133.983" y="-343.5" font-family="FreeSans" font-size="10.00" fill="#000000">/EMCal&#45;analysis/EMCalAna</text>
<text text-anchor="middle" x="2200.983" y="-331.5" font-family="FreeSans" font-size="10.00" fill="#000000">/EMCalAna.C</text>
</a>
</g>
</g>
<!-- Node1&#45;&gt;Node26 -->
<g id="edge33" class="edge">
<title>Node1&#45;&gt;Node26</title>
<path fill="none" stroke="#191970" d="M2019.9711,-402.4617C2055.0756,-391.6088 2095.8181,-379.0128 2129.7506,-368.5222"/>
<polygon fill="#191970" stroke="#191970" points="2018.7497,-399.1758 2010.2296,-405.4734 2020.8173,-405.8635 2018.7497,-399.1758"/>
</g>
<!-- Node27 -->
<g id="node27" class="node">
<title>Node27</title>
<g id="a_node27"><a xlink:href="../../df/da3/EMCalLikelihood_8C.html" target="_top" xlink:title="analysis/blob/master\l/EMCal&#45;analysis/EMCalAna\l/EMCalLikelihood.C">
<polygon fill="none" stroke="#000000" points="2293.983,-324.5 2293.983,-368.5 2443.983,-368.5 2443.983,-324.5 2293.983,-324.5"/>
<text text-anchor="start" x="2301.983" y="-355.5" font-family="FreeSans" font-size="10.00" fill="#000000">analysis/blob/master</text>
<text text-anchor="start" x="2301.983" y="-343.5" font-family="FreeSans" font-size="10.00" fill="#000000">/EMCal&#45;analysis/EMCalAna</text>
<text text-anchor="middle" x="2368.983" y="-331.5" font-family="FreeSans" font-size="10.00" fill="#000000">/EMCalLikelihood.C</text>
</a>
</g>
</g>
<!-- Node1&#45;&gt;Node27 -->
<g id="edge34" class="edge">
<title>Node1&#45;&gt;Node27</title>
<path fill="none" stroke="#191970" d="M2022.4029,-415.6505C2092.7484,-405.1201 2195.9102,-388.4142 2284.983,-369 2287.9333,-368.357 2290.9352,-367.6771 2293.9628,-366.97"/>
<polygon fill="#191970" stroke="#191970" points="2021.6435,-412.2249 2012.2677,-417.159 2022.6741,-419.1487 2021.6435,-412.2249"/>
</g>
<!-- Node28 -->
<g id="node28" class="node">
<title>Node28</title>
<g id="a_node28"><a xlink:href="../../db/d74/EMCalCalib_8C.html" target="_top" xlink:title="analysis/blob/master\l/EMCal&#45;calibration/EMCalCalib\l/EMCalCalib.C">
<polygon fill="none" stroke="#000000" points="2461.483,-324.5 2461.483,-368.5 2630.483,-368.5 2630.483,-324.5 2461.483,-324.5"/>
<text text-anchor="start" x="2469.483" y="-355.5" font-family="FreeSans" font-size="10.00" fill="#000000">analysis/blob/master</text>
<text text-anchor="start" x="2469.483" y="-343.5" font-family="FreeSans" font-size="10.00" fill="#000000">/EMCal&#45;calibration/EMCalCalib</text>
<text text-anchor="middle" x="2545.983" y="-331.5" font-family="FreeSans" font-size="10.00" fill="#000000">/EMCalCalib.C</text>
</a>
</g>
</g>
<!-- Node1&#45;&gt;Node28 -->
<g id="edge35" class="edge">
<title>Node1&#45;&gt;Node28</title>
<path fill="none" stroke="#191970" d="M2022.4149,-421.2068C2124.4801,-412.7729 2302.2916,-395.6979 2452.983,-369 2455.7637,-368.5073 2458.5852,-367.9809 2461.4298,-367.4273"/>
<polygon fill="#191970" stroke="#191970" points="2021.8524,-417.7411 2012.1713,-422.0453 2022.4235,-424.7178 2021.8524,-417.7411"/>
</g>
<!-- Node29 -->
<g id="node29" class="node">
<title>Node29</title>
<g id="a_node29"><a xlink:href="../../db/dee/EMCalCalib__TestBeam_8C.html" target="_top" xlink:title="analysis/blob/master\l/Prototype2/EMCal/EMCalCalib\l_TestBeam/EMCalCalib_TestBeam.C">
<polygon fill="none" stroke="#000000" points="2647.983,-324.5 2647.983,-368.5 2843.983,-368.5 2843.983,-324.5 2647.983,-324.5"/>
<text text-anchor="start" x="2655.983" y="-355.5" font-family="FreeSans" font-size="10.00" fill="#000000">analysis/blob/master</text>
<text text-anchor="start" x="2655.983" y="-343.5" font-family="FreeSans" font-size="10.00" fill="#000000">/Prototype2/EMCal/EMCalCalib</text>
<text text-anchor="middle" x="2745.983" y="-331.5" font-family="FreeSans" font-size="10.00" fill="#000000">_TestBeam/EMCalCalib_TestBeam.C</text>
</a>
</g>
</g>
<!-- Node1&#45;&gt;Node29 -->
<g id="edge36" class="edge">
<title>Node1&#45;&gt;Node29</title>
<path fill="none" stroke="#191970" d="M2022.0014,-423.9597C2153.6189,-417.5866 2418.0173,-401.6867 2639.983,-369 2642.5887,-368.6163 2645.2264,-368.2072 2647.8849,-367.7768"/>
<polygon fill="#191970" stroke="#191970" points="2021.8095,-420.4648 2011.9881,-424.4385 2022.1439,-427.4568 2021.8095,-420.4648"/>
</g>
<!-- Node30 -->
<g id="node30" class="node">
<title>Node30</title>
<g id="a_node30"><a xlink:href="../../d1/dda/Proto4SampleFrac_8C.html" target="_top" xlink:title="analysis/blob/master\l/Prototype4/HCal/SampleFrac\l/Proto4SampleFrac.C">
<polygon fill="none" stroke="#000000" points="2862.483,-324.5 2862.483,-368.5 3027.483,-368.5 3027.483,-324.5 2862.483,-324.5"/>
<text text-anchor="start" x="2870.483" y="-355.5" font-family="FreeSans" font-size="10.00" fill="#000000">analysis/blob/master</text>
<text text-anchor="start" x="2870.483" y="-343.5" font-family="FreeSans" font-size="10.00" fill="#000000">/Prototype4/HCal/SampleFrac</text>
<text text-anchor="middle" x="2944.983" y="-331.5" font-family="FreeSans" font-size="10.00" fill="#000000">/Proto4SampleFrac.C</text>
</a>
</g>
</g>
<!-- Node1&#45;&gt;Node30 -->
<g id="edge37" class="edge">
<title>Node1&#45;&gt;Node30</title>
<path fill="none" stroke="#191970" d="M2022.2561,-424.0493C2216.3075,-415.7038 2694.1319,-393.3147 2852.983,-369 2856.0712,-368.5273 2859.2078,-368.0008 2862.3685,-367.4312"/>
<polygon fill="#191970" stroke="#191970" points="2021.9568,-420.5588 2012.1158,-424.4837 2022.2565,-427.5524 2021.9568,-420.5588"/>
</g>
<!-- Node31 -->
<g id="node31" class="node">
<title>Node31</title>
<g id="a_node31"><a xlink:href="../../d0/dd3/SimpleTrackingAnalysis_8C.html" target="_top" xlink:title="analysis/blob/master\l/SimpleTrackingAnalysis\l/SimpleTrackingAnalysis.C">
<polygon fill="none" stroke="#000000" points="3045.983,-324.5 3045.983,-368.5 3195.983,-368.5 3195.983,-324.5 3045.983,-324.5"/>
<text text-anchor="start" x="3053.983" y="-355.5" font-family="FreeSans" font-size="10.00" fill="#000000">analysis/blob/master</text>
<text text-anchor="start" x="3053.983" y="-343.5" font-family="FreeSans" font-size="10.00" fill="#000000">/SimpleTrackingAnalysis</text>
<text text-anchor="middle" x="3120.983" y="-331.5" font-family="FreeSans" font-size="10.00" fill="#000000">/SimpleTrackingAnalysis.C</text>
</a>
</g>
</g>
<!-- Node1&#45;&gt;Node31 -->
<g id="edge38" class="edge">
<title>Node1&#45;&gt;Node31</title>
<path fill="none" stroke="#191970" d="M2022.5351,-425.3041C2243.878,-419.1261 2841.7681,-399.9973 3036.983,-369 3039.8161,-368.5502 3042.6913,-368.0431 3045.5868,-367.4899"/>
<polygon fill="#191970" stroke="#191970" points="2022.1817,-421.8124 2012.2827,-425.5885 2022.3759,-428.8098 2022.1817,-421.8124"/>
</g>
<!-- Node32 -->
<g id="node32" class="node">
<title>Node32</title>
<g id="a_node32"><a xlink:href="../../dd/d68/STACalorimeterCharacterization_8C.html" target="_top" xlink:title="analysis/blob/master\l/SimpleTrackingAnalysis\l/STACalorimeterCharacterization.C">
<polygon fill="none" stroke="#000000" points="3213.983,-324.5 3213.983,-368.5 3405.983,-368.5 3405.983,-324.5 3213.983,-324.5"/>
<text text-anchor="start" x="3221.983" y="-355.5" font-family="FreeSans" font-size="10.00" fill="#000000">analysis/blob/master</text>
<text text-anchor="start" x="3221.983" y="-343.5" font-family="FreeSans" font-size="10.00" fill="#000000">/SimpleTrackingAnalysis</text>
<text text-anchor="middle" x="3309.983" y="-331.5" font-family="FreeSans" font-size="10.00" fill="#000000">/STACalorimeterCharacterization.C</text>
</a>
</g>
</g>
<!-- Node1&#45;&gt;Node32 -->
<g id="edge39" class="edge">
<title>Node1&#45;&gt;Node32</title>
<path fill="none" stroke="#191970" d="M2022.2029,-425.4483C2265.8734,-419.1562 2975.0752,-398.7383 3204.983,-369 3207.9413,-368.6174 3210.9399,-368.1947 3213.9623,-367.7384"/>
<polygon fill="#191970" stroke="#191970" points="2021.9007,-421.9548 2011.994,-425.7106 2022.0806,-428.9525 2021.9007,-421.9548"/>
</g>
<!-- Node7 -->
<g id="node7" class="node">
<title>Node7</title>
<g id="a_node7"><a xlink:href="../../d3/d23/QAG4SimulationJet_8cc.html" target="_top" xlink:title="coresoftware/blob/master\l/offline/QA/modules/QAG4Simulation\lJet.cc">
<polygon fill="none" stroke="#000000" points="1624.983,-81.5 1624.983,-125.5 1828.983,-125.5 1828.983,-81.5 1624.983,-81.5"/>
<text text-anchor="start" x="1632.983" y="-112.5" font-family="FreeSans" font-size="10.00" fill="#000000">coresoftware/blob/master</text>
<text text-anchor="start" x="1632.983" y="-100.5" font-family="FreeSans" font-size="10.00" fill="#000000">/offline/QA/modules/QAG4Simulation</text>
<text text-anchor="middle" x="1726.983" y="-88.5" font-family="FreeSans" font-size="10.00" fill="#000000">Jet.cc</text>
</a>
</g>
</g>
<!-- Node6&#45;&gt;Node7 -->
<g id="edge6" class="edge">
<title>Node6&#45;&gt;Node7</title>
<path fill="none" stroke="#191970" d="M1522.35,-319.2332C1537.7719,-310.2477 1554.1584,-299.5643 1567.983,-288 1628.4714,-237.4016 1685.2132,-162.6061 1711.564,-125.7237"/>
<polygon fill="#191970" stroke="#191970" points="1520.3684,-316.3338 1513.4079,-324.3214 1523.8303,-322.4178 1520.3684,-316.3338"/>
</g>
<!-- Node8 -->
<g id="node8" class="node">
<title>Node8</title>
<g id="a_node8"><a xlink:href="../../da/d50/JetRecoEval_8h.html" target="_top" xlink:title="coresoftware/blob/master\l/simulation/g4simulation\l/g4eval/JetRecoEval.h">
<polygon fill="none" stroke="#000000" points="1143.983,-243.5 1143.983,-287.5 1289.983,-287.5 1289.983,-243.5 1143.983,-243.5"/>
<text text-anchor="start" x="1151.983" y="-274.5" font-family="FreeSans" font-size="10.00" fill="#000000">coresoftware/blob/master</text>
<text text-anchor="start" x="1151.983" y="-262.5" font-family="FreeSans" font-size="10.00" fill="#000000">/simulation/g4simulation</text>
<text text-anchor="middle" x="1216.983" y="-250.5" font-family="FreeSans" font-size="10.00" fill="#000000">/g4eval/JetRecoEval.h</text>
</a>
</g>
</g>
<!-- Node6&#45;&gt;Node8 -->
<g id="edge7" class="edge">
<title>Node6&#45;&gt;Node8</title>
<path fill="none" stroke="#191970" d="M1390.653,-321.3225C1356.9866,-310.5012 1317.9946,-297.968 1285.4966,-287.5222"/>
<polygon fill="#191970" stroke="#191970" points="1389.8645,-324.7453 1400.4558,-324.4734 1392.0066,-318.0811 1389.8645,-324.7453"/>
</g>
<!-- Node15 -->
<g id="node15" class="node">
<title>Node15</title>
<g id="a_node15"><a xlink:href="../../d0/da3/SoftLeptonTaggingTruth_8C.html" target="_top" xlink:title="analysis/blob/master\l/HF&#45;Jet/SoftLeptonTagging\l/SoftLeptonTaggingTruth.C">
<polygon fill="none" stroke="#000000" points="1846.983,-81.5 1846.983,-125.5 1996.983,-125.5 1996.983,-81.5 1846.983,-81.5"/>
<text text-anchor="start" x="1854.983" y="-112.5" font-family="FreeSans" font-size="10.00" fill="#000000">analysis/blob/master</text>
<text text-anchor="start" x="1854.983" y="-100.5" font-family="FreeSans" font-size="10.00" fill="#000000">/HF&#45;Jet/SoftLeptonTagging</text>
<text text-anchor="middle" x="1921.983" y="-88.5" font-family="FreeSans" font-size="10.00" fill="#000000">/SoftLeptonTaggingTruth.C</text>
</a>
</g>
</g>
<!-- Node6&#45;&gt;Node15 -->
<g id="edge28" class="edge">
<title>Node6&#45;&gt;Node15</title>
<path fill="none" stroke="#191970" d="M1533.3424,-320.4247C1555.9422,-310.7933 1581.3352,-299.428 1603.983,-288 1709.6884,-234.6617 1829.1723,-161.7489 1886.965,-125.6351"/>
<polygon fill="#191970" stroke="#191970" points="1531.6911,-317.3229 1523.844,-324.4414 1534.4175,-323.7701 1531.6911,-317.3229"/>
</g>
<!-- Node6&#45;&gt;Node21 -->
<g id="edge26" class="edge">
<title>Node6&#45;&gt;Node21</title>
<path fill="none" stroke="#191970" d="M1524.023,-318.3471C1534.867,-310.1111 1544.7943,-300.0174 1550.983,-288 1560.1398,-270.2193 1562.7772,-259.1524 1550.983,-243 1537.5094,-224.5476 1486.047,-209.0911 1441.1144,-198.7085"/>
<polygon fill="#191970" stroke="#191970" points="1521.7564,-315.6626 1515.5986,-324.2842 1525.7889,-321.3844 1521.7564,-315.6626"/>
</g>
<!-- Node22 -->
<g id="node22" class="node">
<title>Node22</title>
<g id="a_node22"><a xlink:href="../../da/dbb/JetTruthEval_8cc.html" target="_top" xlink:title="coresoftware/blob/master\l/simulation/g4simulation\l/g4eval/JetTruthEval.cc">
<polygon fill="none" stroke="#000000" points="1395.983,-243.5 1395.983,-287.5 1541.983,-287.5 1541.983,-243.5 1395.983,-243.5"/>
<text text-anchor="start" x="1403.983" y="-274.5" font-family="FreeSans" font-size="10.00" fill="#000000">coresoftware/blob/master</text>
<text text-anchor="start" x="1403.983" y="-262.5" font-family="FreeSans" font-size="10.00" fill="#000000">/simulation/g4simulation</text>
<text text-anchor="middle" x="1468.983" y="-250.5" font-family="FreeSans" font-size="10.00" fill="#000000">/g4eval/JetTruthEval.cc</text>
</a>
</g>
</g>
<!-- Node6&#45;&gt;Node22 -->
<g id="edge27" class="edge">
<title>Node6&#45;&gt;Node22</title>
<path fill="none" stroke="#191970" d="M1468.983,-314.2457C1468.983,-305.3118 1468.983,-295.8188 1468.983,-287.6068"/>
<polygon fill="#191970" stroke="#191970" points="1465.4831,-314.3664 1468.983,-324.3664 1472.4831,-314.3664 1465.4831,-314.3664"/>
</g>
<!-- Node8&#45;&gt;Node7 -->
<g id="edge8" class="edge">
<title>Node8&#45;&gt;Node7</title>
<path fill="none" stroke="#191970" d="M1229.1503,-234.0403C1240.1817,-210.0623 1258.8895,-178.4524 1285.983,-162 1349.0366,-123.7112 1543.0914,-137.3393 1615.983,-126 1618.8974,-125.5466 1621.8513,-125.0691 1624.8302,-124.5719"/>
<polygon fill="#191970" stroke="#191970" points="1225.8319,-232.8928 1225.0259,-243.4569 1232.2438,-235.7012 1225.8319,-232.8928"/>
</g>
<!-- Node9 -->
<g id="node9" class="node">
<title>Node9</title>
<g id="a_node9"><a xlink:href="../../db/de2/JetEvalStack_8h.html" target="_top" xlink:title="coresoftware/blob/master\l/simulation/g4simulation\l/g4eval/JetEvalStack.h">
<polygon fill="none" stroke="#000000" points="1021.983,-162.5 1021.983,-206.5 1167.983,-206.5 1167.983,-162.5 1021.983,-162.5"/>
<text text-anchor="start" x="1029.983" y="-193.5" font-family="FreeSans" font-size="10.00" fill="#000000">coresoftware/blob/master</text>
<text text-anchor="start" x="1029.983" y="-181.5" font-family="FreeSans" font-size="10.00" fill="#000000">/simulation/g4simulation</text>
<text text-anchor="middle" x="1094.983" y="-169.5" font-family="FreeSans" font-size="10.00" fill="#000000">/g4eval/JetEvalStack.h</text>
</a>
</g>
</g>
<!-- Node8&#45;&gt;Node9 -->
<g id="edge9" class="edge">
<title>Node8&#45;&gt;Node9</title>
<path fill="none" stroke="#191970" d="M1174.9052,-237.563C1159.6601,-227.4414 1142.665,-216.1577 1128.2798,-206.6068"/>
<polygon fill="#191970" stroke="#191970" points="1173.379,-240.751 1183.646,-243.3664 1177.2509,-234.9193 1173.379,-240.751"/>
</g>
<!-- Node11 -->
<g id="node11" class="node">
<title>Node11</title>
<g id="a_node11"><a xlink:href="../../dd/db5/JetEvaluator_8cc.html" target="_top" xlink:title="coresoftware/blob/master\l/simulation/g4simulation\l/g4eval/JetEvaluator.cc">
<polygon fill="none" stroke="#000000" points="18.983,-81.5 18.983,-125.5 164.983,-125.5 164.983,-81.5 18.983,-81.5"/>
<text text-anchor="start" x="26.983" y="-112.5" font-family="FreeSans" font-size="10.00" fill="#000000">coresoftware/blob/master</text>
<text text-anchor="start" x="26.983" y="-100.5" font-family="FreeSans" font-size="10.00" fill="#000000">/simulation/g4simulation</text>
<text text-anchor="middle" x="91.983" y="-88.5" font-family="FreeSans" font-size="10.00" fill="#000000">/g4eval/JetEvaluator.cc</text>
</a>
</g>
</g>
<!-- Node8&#45;&gt;Node11 -->
<g id="edge23" class="edge">
<title>Node8&#45;&gt;Node11</title>
<path fill="none" stroke="#191970" d="M1133.5064,-255.8114C920.0445,-230.7993 358.1684,-163.409 173.983,-126 171.0897,-125.4123 168.1479,-124.7792 165.1829,-124.1112"/>
<polygon fill="#191970" stroke="#191970" points="1133.3714,-259.3194 1143.7106,-257.0058 1134.1853,-252.3668 1133.3714,-259.3194"/>
</g>
<!-- Node13 -->
<g id="node13" class="node">
<title>Node13</title>
<g id="a_node13"><a xlink:href="../../d8/d55/JetEnergies_8C.html" target="_top" xlink:title="analysis/blob/master\l/ForwardCalo/Flux_Return\l_Study/JetEnergies.C">
<polygon fill="none" stroke="#000000" points="1021.983,-.5 1021.983,-44.5 1167.983,-44.5 1167.983,-.5 1021.983,-.5"/>
<text text-anchor="start" x="1029.983" y="-31.5" font-family="FreeSans" font-size="10.00" fill="#000000">analysis/blob/master</text>
<text text-anchor="start" x="1029.983" y="-19.5" font-family="FreeSans" font-size="10.00" fill="#000000">/ForwardCalo/Flux_Return</text>
<text text-anchor="middle" x="1094.983" y="-7.5" font-family="FreeSans" font-size="10.00" fill="#000000">_Study/JetEnergies.C</text>
</a>
</g>
</g>
<!-- Node8&#45;&gt;Node13 -->
<g id="edge25" class="edge">
<title>Node8&#45;&gt;Node13</title>
<path fill="none" stroke="#191970" d="M1133.7644,-262.4239C872.4536,-251.8889 81.3719,-212.9965 9.983,-126 -2.704,-110.5392 -3.7731,-95.5178 9.983,-81 44.7924,-44.2633 783.8588,-28.0067 1021.847,-23.7115"/>
<polygon fill="#191970" stroke="#191970" points="1133.8191,-265.9288 1143.9509,-262.831 1134.0987,-258.9344 1133.8191,-265.9288"/>
</g>
<!-- Node8&#45;&gt;Node21 -->
<g id="edge24" class="edge">
<title>Node8&#45;&gt;Node21</title>
<path fill="none" stroke="#191970" d="M1267.2186,-238.5525C1286.5523,-228.1814 1308.3844,-216.4701 1326.7715,-206.6068"/>
<polygon fill="#191970" stroke="#191970" points="1265.4022,-235.555 1258.2445,-243.3664 1268.7112,-241.7235 1265.4022,-235.555"/>
</g>
<!-- Node9&#45;&gt;Node7 -->
<g id="edge10" class="edge">
<title>Node9&#45;&gt;Node7</title>
<path fill="none" stroke="#191970" d="M1178.4905,-169.5027C1195.1819,-166.7806 1212.6142,-164.1326 1228.983,-162 1400.2779,-139.6825 1445.0877,-151.1949 1615.983,-126 1618.9009,-125.5698 1621.8579,-125.1128 1624.8395,-124.6336"/>
<polygon fill="#191970" stroke="#191970" points="1177.5044,-166.1181 1168.2096,-171.2032 1178.6468,-173.0243 1177.5044,-166.1181"/>
</g>
<!-- Node10 -->
<g id="node10" class="node">
<title>Node10</title>
<g id="a_node10"><a xlink:href="../../d5/dab/JetEvalStack_8cc.html" target="_top" xlink:title="coresoftware/blob/master\l/simulation/g4simulation\l/g4eval/JetEvalStack.cc">
<polygon fill="none" stroke="#000000" points="920.983,-81.5 920.983,-125.5 1066.983,-125.5 1066.983,-81.5 920.983,-81.5"/>
<text text-anchor="start" x="928.983" y="-112.5" font-family="FreeSans" font-size="10.00" fill="#000000">coresoftware/blob/master</text>
<text text-anchor="start" x="928.983" y="-100.5" font-family="FreeSans" font-size="10.00" fill="#000000">/simulation/g4simulation</text>
<text text-anchor="middle" x="993.983" y="-88.5" font-family="FreeSans" font-size="10.00" fill="#000000">/g4eval/JetEvalStack.cc</text>
</a>
</g>
</g>
<!-- Node9&#45;&gt;Node10 -->
<g id="edge11" class="edge">
<title>Node9&#45;&gt;Node10</title>
<path fill="none" stroke="#191970" d="M1059.4389,-155.9943C1047.002,-146.0201 1033.2349,-134.9792 1021.5484,-125.6068"/>
<polygon fill="#191970" stroke="#191970" points="1057.3934,-158.8404 1067.3843,-162.3664 1061.7729,-153.3796 1057.3934,-158.8404"/>
</g>
<!-- Node9&#45;&gt;Node11 -->
<g id="edge12" class="edge">
<title>Node9&#45;&gt;Node11</title>
<path fill="none" stroke="#191970" d="M1011.7368,-181.3934C816.5557,-173.7567 333.8885,-152.7277 173.983,-126 171.071,-125.5133 168.1134,-124.9652 165.1353,-124.3685"/>
<polygon fill="#191970" stroke="#191970" points="1011.8055,-184.8986 1021.9341,-181.7904 1012.0778,-177.9039 1011.8055,-184.8986"/>
</g>
<!-- Node12 -->
<g id="node12" class="node">
<title>Node12</title>
<g id="a_node12"><a xlink:href="../../d4/db0/JetEnergies_8h.html" target="_top" xlink:title="copy of JetEvaluator.h that will add the energy absorbed by the plug door and the black hole to the l...">
<polygon fill="none" stroke="#000000" points="1122.983,-81.5 1122.983,-125.5 1268.983,-125.5 1268.983,-81.5 1122.983,-81.5"/>
<text text-anchor="start" x="1130.983" y="-112.5" font-family="FreeSans" font-size="10.00" fill="#000000">analysis/blob/master</text>
<text text-anchor="start" x="1130.983" y="-100.5" font-family="FreeSans" font-size="10.00" fill="#000000">/ForwardCalo/Flux_Return</text>
<text text-anchor="middle" x="1195.983" y="-88.5" font-family="FreeSans" font-size="10.00" fill="#000000">_Study/JetEnergies.h</text>
</a>
</g>
</g>
<!-- Node9&#45;&gt;Node12 -->
<g id="edge13" class="edge">
<title>Node9&#45;&gt;Node12</title>
<path fill="none" stroke="#191970" d="M1130.5272,-155.9943C1142.9641,-146.0201 1156.7312,-134.9792 1168.4177,-125.6068"/>
<polygon fill="#191970" stroke="#191970" points="1128.1932,-153.3796 1122.5817,-162.3664 1132.5726,-158.8404 1128.1932,-153.3796"/>
</g>
<!-- Node9&#45;&gt;Node13 -->
<g id="edge15" class="edge">
<title>Node9&#45;&gt;Node13</title>
<path fill="none" stroke="#191970" d="M1094.983,-152.172C1094.983,-120.3062 1094.983,-72.4671 1094.983,-44.6771"/>
<polygon fill="#191970" stroke="#191970" points="1091.4831,-152.3142 1094.983,-162.3143 1098.4831,-152.3143 1091.4831,-152.3142"/>
</g>
<!-- Node14 -->
<g id="node14" class="node">
<title>Node14</title>
<g id="a_node14"><a xlink:href="../../dd/dfa/BJetModule_8C.html" target="_top" xlink:title="Gether information from Truth Jet and Tracks, DST &#45;&gt; NTuple.">
<polygon fill="none" stroke="#000000" points="1287.483,-81.5 1287.483,-125.5 1458.483,-125.5 1458.483,-81.5 1287.483,-81.5"/>
<text text-anchor="start" x="1295.483" y="-112.5" font-family="FreeSans" font-size="10.00" fill="#000000">analysis/blob/master</text>
<text text-anchor="start" x="1295.483" y="-100.5" font-family="FreeSans" font-size="10.00" fill="#000000">/HF&#45;Jet/HighDCATrackCounting</text>
<text text-anchor="middle" x="1372.983" y="-88.5" font-family="FreeSans" font-size="10.00" fill="#000000">/BJetModule.C</text>
</a>
</g>
</g>
<!-- Node9&#45;&gt;Node14 -->
<g id="edge16" class="edge">
<title>Node9&#45;&gt;Node14</title>
<path fill="none" stroke="#191970" d="M1177.9818,-160.3169C1215.7547,-149.3111 1260.1528,-136.375 1297.0355,-125.6286"/>
<polygon fill="#191970" stroke="#191970" points="1176.6459,-157.0605 1168.0243,-163.2182 1178.6041,-163.7811 1176.6459,-157.0605"/>
</g>
<!-- Node9&#45;&gt;Node15 -->
<g id="edge17" class="edge">
<title>Node9&#45;&gt;Node15</title>
<path fill="none" stroke="#191970" d="M1178.5306,-173.7014C1211.9106,-169.6372 1250.7274,-165.224 1285.983,-162 1530.816,-139.6109 1595.4041,-165.9988 1837.983,-126 1840.8133,-125.5333 1843.6862,-125.012 1846.5798,-124.4466"/>
<polygon fill="#191970" stroke="#191970" points="1177.8552,-170.258 1168.3559,-174.9498 1178.7077,-177.2059 1177.8552,-170.258"/>
</g>
<!-- Node16 -->
<g id="node16" class="node">
<title>Node16</title>
<g id="a_node16"><a xlink:href="../../d5/db3/PhotonJet_8C.html" target="_top" xlink:title="analysis/blob/master\l/PhotonJet/PhotonJet.C">
<polygon fill="none" stroke="#000000" points="1476.983,-87.5 1476.983,-119.5 1606.983,-119.5 1606.983,-87.5 1476.983,-87.5"/>
<text text-anchor="start" x="1484.983" y="-106.5" font-family="FreeSans" font-size="10.00" fill="#000000">analysis/blob/master</text>
<text text-anchor="middle" x="1541.983" y="-94.5" font-family="FreeSans" font-size="10.00" fill="#000000">/PhotonJet/PhotonJet.C</text>
</a>
</g>
</g>
<!-- Node9&#45;&gt;Node16 -->
<g id="edge18" class="edge">
<title>Node9&#45;&gt;Node16</title>
<path fill="none" stroke="#191970" d="M1178.5968,-170.2369C1195.2794,-167.4542 1212.6813,-164.5962 1228.983,-162 1335.0667,-145.1054 1363.2068,-149.6873 1467.983,-126 1476.1034,-124.1642 1484.631,-121.8978 1492.8921,-119.5172"/>
<polygon fill="#191970" stroke="#191970" points="1177.6039,-166.8543 1168.3187,-171.9568 1178.7593,-173.7583 1177.6039,-166.8543"/>
</g>
<!-- Node17 -->
<g id="node17" class="node">
<title>Node17</title>
<g id="a_node17"><a xlink:href="../../d0/d4a/Forward__pi0s_8C.html" target="_top" xlink:title="analysis/blob/master\l/PhotonJet/Photons/Forward\l_pi0s.C">
<polygon fill="none" stroke="#000000" points="182.983,-81.5 182.983,-125.5 338.983,-125.5 338.983,-81.5 182.983,-81.5"/>
<text text-anchor="start" x="190.983" y="-112.5" font-family="FreeSans" font-size="10.00" fill="#000000">analysis/blob/master</text>
<text text-anchor="start" x="190.983" y="-100.5" font-family="FreeSans" font-size="10.00" fill="#000000">/PhotonJet/Photons/Forward</text>
<text text-anchor="middle" x="260.983" y="-88.5" font-family="FreeSans" font-size="10.00" fill="#000000">_pi0s.C</text>
</a>
</g>
</g>
<!-- Node9&#45;&gt;Node17 -->
<g id="edge19" class="edge">
<title>Node9&#45;&gt;Node17</title>
<path fill="none" stroke="#191970" d="M1011.7091,-182.7234C873.1153,-178.7087 586.749,-165.9087 347.983,-126 345.0594,-125.5113 342.0905,-124.9712 339.0991,-124.3901"/>
<polygon fill="#191970" stroke="#191970" points="1011.7387,-186.2256 1021.8334,-183.0086 1011.9359,-179.2283 1011.7387,-186.2256"/>
</g>
<!-- Node18 -->
<g id="node18" class="node">
<title>Node18</title>
<g id="a_node18"><a xlink:href="../../da/da2/Photons_8C.html" target="_top" xlink:title="analysis/blob/master\l/PhotonJet/Photons/Photons.C">
<polygon fill="none" stroke="#000000" points="357.483,-87.5 357.483,-119.5 524.483,-119.5 524.483,-87.5 357.483,-87.5"/>
<text text-anchor="start" x="365.483" y="-106.5" font-family="FreeSans" font-size="10.00" fill="#000000">analysis/blob/master</text>
<text text-anchor="middle" x="440.983" y="-94.5" font-family="FreeSans" font-size="10.00" fill="#000000">/PhotonJet/Photons/Photons.C</text>
</a>
</g>
</g>
<!-- Node9&#45;&gt;Node18 -->
<g id="edge20" class="edge">
<title>Node9&#45;&gt;Node18</title>
<path fill="none" stroke="#191970" d="M1011.7483,-179.3918C901.612,-171.8224 701.6911,-155.2705 532.983,-126 522.7765,-124.2292 512.0217,-121.9673 501.6067,-119.5633"/>
<polygon fill="#191970" stroke="#191970" points="1011.5827,-182.8885 1021.797,-180.0745 1012.0573,-175.9046 1011.5827,-182.8885"/>
</g>
<!-- Node19 -->
<g id="node19" class="node">
<title>Node19</title>
<g id="a_node19"><a xlink:href="../../d1/d87/TruthPhotonJet_8C.html" target="_top" xlink:title="analysis/blob/master\l/PhotonJet/TruthPhotonJet\l/TruthPhotonJet.C">
<polygon fill="none" stroke="#000000" points="542.483,-81.5 542.483,-125.5 689.483,-125.5 689.483,-81.5 542.483,-81.5"/>
<text text-anchor="start" x="550.483" y="-112.5" font-family="FreeSans" font-size="10.00" fill="#000000">analysis/blob/master</text>
<text text-anchor="start" x="550.483" y="-100.5" font-family="FreeSans" font-size="10.00" fill="#000000">/PhotonJet/TruthPhotonJet</text>
<text text-anchor="middle" x="615.983" y="-88.5" font-family="FreeSans" font-size="10.00" fill="#000000">/TruthPhotonJet.C</text>
</a>
</g>
</g>
<!-- Node9&#45;&gt;Node19 -->
<g id="edge21" class="edge">
<title>Node9&#45;&gt;Node19</title>
<path fill="none" stroke="#191970" d="M1011.6029,-175.2036C930.9087,-165.5042 805.3753,-148.559 697.983,-126 695.2381,-125.4234 692.4489,-124.8084 689.6372,-124.164"/>
<polygon fill="#191970" stroke="#191970" points="1011.3617,-178.6995 1021.7058,-176.4082 1012.1906,-171.7488 1011.3617,-178.6995"/>
</g>
<!-- Node20 -->
<g id="node20" class="node">
<title>Node20</title>
<g id="a_node20"><a xlink:href="../../da/dc2/MyJetAnalysis_8cc.html" target="_top" xlink:title="tutorials/blob/master\l/myjetanalysis/src/MyJetAnalysis.cc">
<polygon fill="none" stroke="#000000" points="707.483,-87.5 707.483,-119.5 902.483,-119.5 902.483,-87.5 707.483,-87.5"/>
<text text-anchor="start" x="715.483" y="-106.5" font-family="FreeSans" font-size="10.00" fill="#000000">tutorials/blob/master</text>
<text text-anchor="middle" x="804.983" y="-94.5" font-family="FreeSans" font-size="10.00" fill="#000000">/myjetanalysis/src/MyJetAnalysis.cc</text>
</a>
</g>
</g>
<!-- Node9&#45;&gt;Node20 -->
<g id="edge22" class="edge">
<title>Node9&#45;&gt;Node20</title>
<path fill="none" stroke="#191970" d="M1012.0891,-161.3469C964.2775,-147.9926 905.3579,-131.5357 862.6027,-119.5938"/>
<polygon fill="#191970" stroke="#191970" points="1011.2309,-164.741 1021.8038,-164.0603 1013.114,-157.9991 1011.2309,-164.741"/>
</g>
<!-- Node12&#45;&gt;Node13 -->
<g id="edge14" class="edge">
<title>Node12&#45;&gt;Node13</title>
<path fill="none" stroke="#191970" d="M1160.4389,-74.9943C1148.002,-65.0201 1134.2349,-53.9792 1122.5484,-44.6068"/>
<polygon fill="#191970" stroke="#191970" points="1158.3934,-77.8404 1168.3843,-81.3664 1162.7729,-72.3796 1158.3934,-77.8404"/>
</g>
</g>
</svg>
