<?xml version="1.0" encoding="UTF-8" standalone="no"?>
<!DOCTYPE svg PUBLIC "-//W3C//DTD SVG 1.1//EN"
 "http://www.w3.org/Graphics/SVG/1.1/DTD/svg11.dtd">
<!-- Generated by graphviz version 2.40.1 (20161225.0304)
 -->
<!-- Title: HCALInner_Towers Pages: 1 -->
<svg width="390pt" height="686pt"
 viewBox="0.00 0.00 390.00 686.00" xmlns="http://www.w3.org/2000/svg" xmlns:xlink="http://www.w3.org/1999/xlink">
<g id="graph0" class="graph" transform="scale(1 1) rotate(0) translate(4 682)">
<title>HCALInner_Towers</title>
<!-- Node1 -->
<g id="node1" class="node">
<title>Node1</title>
<polygon fill="#bfbfbf" stroke="#000000" points="0,-340.5 0,-360.5 109,-360.5 109,-340.5 0,-340.5"/>
<text text-anchor="middle" x="54.5" y="-347.5" font-family="FreeSans" font-size="10.00" fill="#000000">HCALInner_Towers</text>
</g>
<!-- Node2 -->
<g id="node2" class="node">
<title>Node2</title>
<g id="a_node2"><a xlink:href="../../d3/d7f/Fun_8C.html#af0d3c8a78765149fef9b2beeecfc6279" target="_top" xlink:title="ConfigureDetectors">
<polygon fill="none" stroke="#000000" points="171.5,-657.5 171.5,-677.5 285.5,-677.5 285.5,-657.5 171.5,-657.5"/>
<text text-anchor="middle" x="228.5" y="-664.5" font-family="FreeSans" font-size="10.00" fill="#000000">ConfigureDetectors</text>
</a>
</g>
</g>
<!-- Node1&#45;&gt;Node2 -->
<g id="edge1" class="edge">
<title>Node1&#45;&gt;Node2</title>
<path fill="none" stroke="#191970" d="M57.9788,-370.9565C68.7216,-431.7565 103.1816,-609.5542 145,-648.5 152.2894,-655.2886 161.4827,-659.8253 171.084,-662.8237"/>
<polygon fill="#191970" stroke="#191970" points="61.3617,-369.9806 56.2016,-360.7274 54.4651,-371.1789 61.3617,-369.9806"/>
</g>
<!-- Node4 -->
<g id="node4" class="node">
<title>Node4</title>
<g id="a_node4"><a xlink:href="../../da/d02/Fun4All__G4__EICDetector_8C.html#afbe82cefa1d1fd031d9a8586b7bb68c6" target="_top" xlink:title="Fun4All_G4_EICDetector">
<polygon fill="none" stroke="#000000" points="159,-618.5 159,-638.5 298,-638.5 298,-618.5 159,-618.5"/>
<text text-anchor="middle" x="228.5" y="-625.5" font-family="FreeSans" font-size="10.00" fill="#000000">Fun4All_G4_EICDetector</text>
</a>
</g>
</g>
<!-- Node1&#45;&gt;Node4 -->
<g id="edge3" class="edge">
<title>Node1&#45;&gt;Node4</title>
<path fill="none" stroke="#191970" d="M58.8439,-370.4242C71.1823,-425.2354 107.9485,-576.3962 145,-609.5 149.1021,-613.165 153.7626,-616.1675 158.7345,-618.6224"/>
<polygon fill="#191970" stroke="#191970" points="62.2333,-369.5418 56.6495,-360.5378 55.3996,-371.0586 62.2333,-369.5418"/>
</g>
<!-- Node5 -->
<g id="node5" class="node">
<title>Node5</title>
<g id="a_node5"><a xlink:href="../../dd/d2a/Fun4All__G4__EICDetector__LQ_8C.html#aaa01242fd6e77ca43a9d49a6d46008e4" target="_top" xlink:title="Fun4All_G4_EICDetector_LQ">
<polygon fill="none" stroke="#000000" points="150.5,-579.5 150.5,-599.5 306.5,-599.5 306.5,-579.5 150.5,-579.5"/>
<text text-anchor="middle" x="228.5" y="-586.5" font-family="FreeSans" font-size="10.00" fill="#000000">Fun4All_G4_EICDetector_LQ</text>
</a>
</g>
</g>
<!-- Node1&#45;&gt;Node5 -->
<g id="edge4" class="edge">
<title>Node1&#45;&gt;Node5</title>
<path fill="none" stroke="#191970" d="M56.6555,-370.6636C62.4317,-414.2335 82.3469,-517.4991 145,-570.5 149.1997,-574.0527 153.9297,-576.9753 158.9489,-579.3758"/>
<polygon fill="#191970" stroke="#191970" points="60.1276,-370.2211 55.4497,-360.715 53.1785,-371.0635 60.1276,-370.2211"/>
</g>
<!-- Node6 -->
<g id="node6" class="node">
<title>Node6</title>
<g id="a_node6"><a xlink:href="../../d4/df5/Fun4All__G4__EICDetector__LQ__reference_8C.html#a2feefc472f17f90b3cbe74897d049f75" target="_top" xlink:title="Fun4All_G4_EICDetector\l_LQ_reference">
<polygon fill="none" stroke="#000000" points="159,-528.5 159,-560.5 298,-560.5 298,-528.5 159,-528.5"/>
<text text-anchor="start" x="167" y="-547.5" font-family="FreeSans" font-size="10.00" fill="#000000">Fun4All_G4_EICDetector</text>
<text text-anchor="middle" x="228.5" y="-535.5" font-family="FreeSans" font-size="10.00" fill="#000000">_LQ_reference</text>
</a>
</g>
</g>
<!-- Node1&#45;&gt;Node6 -->
<g id="edge5" class="edge">
<title>Node1&#45;&gt;Node6</title>
<path fill="none" stroke="#191970" d="M59.7617,-370.7132C70.0383,-406.1716 96.1606,-479.5975 145,-519.5 149.2187,-522.9467 153.9021,-525.9184 158.8361,-528.4805"/>
<polygon fill="#191970" stroke="#191970" points="63.0111,-369.3315 56.9733,-360.6255 56.2642,-371.1966 63.0111,-369.3315"/>
</g>
<!-- Node7 -->
<g id="node7" class="node">
<title>Node7</title>
<g id="a_node7"><a xlink:href="../../d3/d51/Fun4All__G4__EICDetector__RICH_8C.html#a5739502b0a7a1ba782c01069f77e933f" target="_top" xlink:title="Fun4All_G4_EICDetector_RICH">
<polygon fill="none" stroke="#000000" points="145,-489.5 145,-509.5 312,-509.5 312,-489.5 145,-489.5"/>
<text text-anchor="middle" x="228.5" y="-496.5" font-family="FreeSans" font-size="10.00" fill="#000000">Fun4All_G4_EICDetector_RICH</text>
</a>
</g>
</g>
<!-- Node1&#45;&gt;Node7 -->
<g id="edge6" class="edge">
<title>Node1&#45;&gt;Node7</title>
<path fill="none" stroke="#191970" d="M62.4777,-369.9427C75.3637,-398.8038 103.5721,-452.5696 145,-480.5 150.3007,-484.0737 156.1765,-486.9829 162.2847,-489.35"/>
<polygon fill="#191970" stroke="#191970" points="65.5952,-368.3326 58.4274,-360.5305 59.1653,-371.0996 65.5952,-368.3326"/>
</g>
<!-- Node8 -->
<g id="node8" class="node">
<title>Node8</title>
<g id="a_node8"><a xlink:href="../../d7/d9e/Fun4All__G4__fsPHENIX_8C.html#af48911d394d2412e817583700f2bbee2" target="_top" xlink:title="Fun4All_G4_fsPHENIX">
<polygon fill="none" stroke="#000000" points="166.5,-450.5 166.5,-470.5 290.5,-470.5 290.5,-450.5 166.5,-450.5"/>
<text text-anchor="middle" x="228.5" y="-457.5" font-family="FreeSans" font-size="10.00" fill="#000000">Fun4All_G4_fsPHENIX</text>
</a>
</g>
</g>
<!-- Node1&#45;&gt;Node8 -->
<g id="edge7" class="edge">
<title>Node1&#45;&gt;Node8</title>
<path fill="none" stroke="#191970" d="M67.3751,-368.6097C83.2148,-389.488 112.0865,-423.2644 145,-441.5 151.6323,-445.1746 158.936,-448.1392 166.3804,-450.5308"/>
<polygon fill="#191970" stroke="#191970" points="70.1673,-366.4989 61.4108,-360.5345 64.5366,-370.6577 70.1673,-366.4989"/>
</g>
<!-- Node9 -->
<g id="node9" class="node">
<title>Node9</title>
<g id="a_node9"><a xlink:href="../../da/d2f/Fun4All__G4__fsPHENIX__FastSim_8C.html#a66fb850cae5fcaadda23b74a25ce4c9c" target="_top" xlink:title="Fun4All_G4_fsPHENIX\l_FastSim">
<polygon fill="none" stroke="#000000" points="166.5,-399.5 166.5,-431.5 290.5,-431.5 290.5,-399.5 166.5,-399.5"/>
<text text-anchor="start" x="174.5" y="-418.5" font-family="FreeSans" font-size="10.00" fill="#000000">Fun4All_G4_fsPHENIX</text>
<text text-anchor="middle" x="228.5" y="-406.5" font-family="FreeSans" font-size="10.00" fill="#000000">_FastSim</text>
</a>
</g>
</g>
<!-- Node1&#45;&gt;Node9 -->
<g id="edge8" class="edge">
<title>Node1&#45;&gt;Node9</title>
<path fill="none" stroke="#191970" d="M84.5224,-364.9033C101.9568,-372.98 124.4676,-382.9226 145,-390.5 153.3759,-393.5911 162.3262,-396.5853 171.1413,-399.363"/>
<polygon fill="#191970" stroke="#191970" points="85.9444,-361.7045 75.4037,-360.635 82.9768,-368.0444 85.9444,-361.7045"/>
</g>
<!-- Node10 -->
<g id="node10" class="node">
<title>Node10</title>
<g id="a_node10"><a xlink:href="../../d0/da6/Fun4All__G4__fsPHENIX__pi0_8C.html#a023d91d47b678e5d7f1751834aa517c6" target="_top" xlink:title="Fun4All_G4_fsPHENIX_pi0">
<polygon fill="none" stroke="#000000" points="156,-360.5 156,-380.5 301,-380.5 301,-360.5 156,-360.5"/>
<text text-anchor="middle" x="228.5" y="-367.5" font-family="FreeSans" font-size="10.00" fill="#000000">Fun4All_G4_fsPHENIX_pi0</text>
</a>
</g>
</g>
<!-- Node1&#45;&gt;Node10 -->
<g id="edge9" class="edge">
<title>Node1&#45;&gt;Node10</title>
<path fill="none" stroke="#191970" d="M119.3726,-357.9566C131.2897,-359.3264 143.8002,-360.7644 155.926,-362.1582"/>
<polygon fill="#191970" stroke="#191970" points="119.4116,-354.4381 109.0773,-356.7733 118.6122,-361.3923 119.4116,-354.4381"/>
</g>
<!-- Node11 -->
<g id="node11" class="node">
<title>Node11</title>
<g id="a_node11"><a xlink:href="../../d5/d2c/macros_2blob_2master_2macros_2g4simulations_2Fun4All__G4__sPHENIX_8C.html#a6eaaa492d7023ec86c562dc63aa1e5a4" target="_top" xlink:title="Fun4All_G4_sPHENIX">
<polygon fill="none" stroke="#000000" points="168,-321.5 168,-341.5 289,-341.5 289,-321.5 168,-321.5"/>
<text text-anchor="middle" x="228.5" y="-328.5" font-family="FreeSans" font-size="10.00" fill="#000000">Fun4All_G4_sPHENIX</text>
</a>
</g>
</g>
<!-- Node1&#45;&gt;Node11 -->
<g id="edge10" class="edge">
<title>Node1&#45;&gt;Node11</title>
<path fill="none" stroke="#191970" d="M119.3241,-343.4215C135.1848,-341.6896 152.0991,-339.8426 167.7606,-338.1325"/>
<polygon fill="#191970" stroke="#191970" points="118.6382,-339.9755 109.0773,-344.5404 119.3981,-346.9341 118.6382,-339.9755"/>
</g>
<!-- Node12 -->
<g id="node12" class="node">
<title>Node12</title>
<g id="a_node12"><a xlink:href="../../d3/de2/Fun4All__G4__sPHENIX__AnaGenFit_8C.html#a9bf3f2f72ed69a17e2d0c1121d48013c" target="_top" xlink:title="Fun4All_G4_sPHENIX\l_AnaGenFit">
<polygon fill="none" stroke="#000000" points="168,-270.5 168,-302.5 289,-302.5 289,-270.5 168,-270.5"/>
<text text-anchor="start" x="176" y="-289.5" font-family="FreeSans" font-size="10.00" fill="#000000">Fun4All_G4_sPHENIX</text>
<text text-anchor="middle" x="228.5" y="-277.5" font-family="FreeSans" font-size="10.00" fill="#000000">_AnaGenFit</text>
</a>
</g>
</g>
<!-- Node1&#45;&gt;Node12 -->
<g id="edge11" class="edge">
<title>Node1&#45;&gt;Node12</title>
<path fill="none" stroke="#191970" d="M86.5043,-336.1808C103.6887,-328.7168 125.3273,-319.6744 145,-312.5 154.4143,-309.0667 164.5244,-305.6756 174.3457,-302.5331"/>
<polygon fill="#191970" stroke="#191970" points="84.7044,-333.1481 76.9496,-340.3671 87.5136,-339.5597 84.7044,-333.1481"/>
</g>
<!-- Node13 -->
<g id="node13" class="node">
<title>Node13</title>
<g id="a_node13"><a xlink:href="../../da/dd0/Fun4All__G4__sPHENIX__photonjet_8C.html#a6f18519e216acc05399e562ea57ea77c" target="_top" xlink:title="Fun4All_G4_sPHENIX\l_photonjet">
<polygon fill="none" stroke="#000000" points="168,-219.5 168,-251.5 289,-251.5 289,-219.5 168,-219.5"/>
<text text-anchor="start" x="176" y="-238.5" font-family="FreeSans" font-size="10.00" fill="#000000">Fun4All_G4_sPHENIX</text>
<text text-anchor="middle" x="228.5" y="-226.5" font-family="FreeSans" font-size="10.00" fill="#000000">_photonjet</text>
</a>
</g>
</g>
<!-- Node1&#45;&gt;Node13 -->
<g id="edge12" class="edge">
<title>Node1&#45;&gt;Node13</title>
<path fill="none" stroke="#191970" d="M68.4425,-332.3386C84.7481,-312.2792 113.5426,-280.3331 145,-261.5 152.0345,-257.2885 159.8167,-253.6969 167.718,-250.6511"/>
<polygon fill="#191970" stroke="#191970" points="65.5333,-330.3741 62.056,-340.382 71.0154,-334.7269 65.5333,-330.3741"/>
</g>
<!-- Node14 -->
<g id="node14" class="node">
<title>Node14</title>
<g id="a_node14"><a xlink:href="../../da/d85/Fun4All__G4__sPHENIX__photons_8C.html#a02fbbd59878fe1299f58ed187e7214ba" target="_top" xlink:title="Fun4All_G4_sPHENIX\l_photons">
<polygon fill="none" stroke="#000000" points="168,-168.5 168,-200.5 289,-200.5 289,-168.5 168,-168.5"/>
<text text-anchor="start" x="176" y="-187.5" font-family="FreeSans" font-size="10.00" fill="#000000">Fun4All_G4_sPHENIX</text>
<text text-anchor="middle" x="228.5" y="-175.5" font-family="FreeSans" font-size="10.00" fill="#000000">_photons</text>
</a>
</g>
</g>
<!-- Node1&#45;&gt;Node14 -->
<g id="edge13" class="edge">
<title>Node1&#45;&gt;Node14</title>
<path fill="none" stroke="#191970" d="M62.0117,-330.8415C74.5808,-300.5452 102.7302,-242.5936 145,-210.5 151.7718,-205.3585 159.5765,-201.2222 167.6383,-197.8975"/>
<polygon fill="#191970" stroke="#191970" points="58.6858,-329.7321 58.218,-340.3166 65.1843,-332.334 58.6858,-329.7321"/>
</g>
<!-- Node15 -->
<g id="node15" class="node">
<title>Node15</title>
<g id="a_node15"><a xlink:href="../../de/d55/Fun4All__G4__sPHENIX__truthphotonjet_8C.html#a48a6f4503eaa1b3793d8ae572aa795b9" target="_top" xlink:title="Fun4All_G4_sPHENIX\l_truthphotonjet">
<polygon fill="none" stroke="#000000" points="168,-117.5 168,-149.5 289,-149.5 289,-117.5 168,-117.5"/>
<text text-anchor="start" x="176" y="-136.5" font-family="FreeSans" font-size="10.00" fill="#000000">Fun4All_G4_sPHENIX</text>
<text text-anchor="middle" x="228.5" y="-124.5" font-family="FreeSans" font-size="10.00" fill="#000000">_truthphotonjet</text>
</a>
</g>
</g>
<!-- Node1&#45;&gt;Node15 -->
<g id="edge14" class="edge">
<title>Node1&#45;&gt;Node15</title>
<path fill="none" stroke="#191970" d="M58.4141,-330.4485C67.0277,-291.6751 91.29,-206.1424 145,-159.5 151.649,-153.726 159.5712,-149.2337 167.8485,-145.7388"/>
<polygon fill="#191970" stroke="#191970" points="54.9371,-329.9756 56.3074,-340.4815 61.7877,-331.4141 54.9371,-329.9756"/>
</g>
<!-- Node16 -->
<g id="node16" class="node">
<title>Node16</title>
<g id="a_node16"><a xlink:href="../../d4/d65/Fun4All__single__particle_8C.html#a8a492b5dbead494bfdddbebde8a49b0e" target="_top" xlink:title="Fun4All_single_particle">
<polygon fill="none" stroke="#000000" points="162.5,-78.5 162.5,-98.5 294.5,-98.5 294.5,-78.5 162.5,-78.5"/>
<text text-anchor="middle" x="228.5" y="-85.5" font-family="FreeSans" font-size="10.00" fill="#000000">Fun4All_single_particle</text>
</a>
</g>
</g>
<!-- Node1&#45;&gt;Node16 -->
<g id="edge15" class="edge">
<title>Node1&#45;&gt;Node16</title>
<path fill="none" stroke="#191970" d="M55.8587,-330.3332C60.1192,-283.7995 77.3238,-168.3387 145,-108.5 150.137,-103.9579 156.1238,-100.4024 162.4894,-97.6256"/>
<polygon fill="#191970" stroke="#191970" points="52.3648,-330.1186 55.0478,-340.3681 59.342,-330.6825 52.3648,-330.1186"/>
</g>
<!-- Node17 -->
<g id="node17" class="node">
<title>Node17</title>
<g id="a_node17"><a xlink:href="../../d0/d99/Jin__BJet_8C.html#a36169bfee2ed7efda633944d12aebad9" target="_top" xlink:title="Jin_BJet">
<polygon fill="none" stroke="#000000" points="201,-39.5 201,-59.5 256,-59.5 256,-39.5 201,-39.5"/>
<text text-anchor="middle" x="228.5" y="-46.5" font-family="FreeSans" font-size="10.00" fill="#000000">Jin_BJet</text>
</a>
</g>
</g>
<!-- Node1&#45;&gt;Node17 -->
<g id="edge16" class="edge">
<title>Node1&#45;&gt;Node17</title>
<path fill="none" stroke="#191970" d="M58.3918,-330.0844C69.9133,-271.7309 105.52,-106.0703 145,-69.5 159.9821,-55.6221 182.8424,-50.8701 200.858,-49.4509"/>
<polygon fill="#191970" stroke="#191970" points="54.8875,-329.7701 56.4147,-340.2543 61.7588,-331.1061 54.8875,-329.7701"/>
</g>
<!-- Node18 -->
<g id="node18" class="node">
<title>Node18</title>
<g id="a_node18"><a xlink:href="../../dd/db1/Wrapper_8cxx.html#abf1e42281903daa0752c80dd6c879fac" target="_top" xlink:title="Wrapper">
<polygon fill="none" stroke="#000000" points="198.5,-.5 198.5,-20.5 258.5,-20.5 258.5,-.5 198.5,-.5"/>
<text text-anchor="middle" x="228.5" y="-7.5" font-family="FreeSans" font-size="10.00" fill="#000000">Wrapper</text>
</a>
</g>
</g>
<!-- Node1&#45;&gt;Node18 -->
<g id="edge17" class="edge">
<title>Node1&#45;&gt;Node18</title>
<path fill="none" stroke="#191970" d="M57.5207,-330.2311C67.3881,-266.6969 100.6085,-73.1281 145,-30.5 159.085,-16.9745 180.6199,-12.0544 198.2919,-10.4743"/>
<polygon fill="#191970" stroke="#191970" points="54.0469,-329.7945 55.9985,-340.208 60.9668,-330.8503 54.0469,-329.7945"/>
</g>
<!-- Node3 -->
<g id="node3" class="node">
<title>Node3</title>
<g id="a_node3"><a xlink:href="../../d3/d7f/Fun_8C.html#af69a3eef3ff244bb51f5740c6ecb5432" target="_top" xlink:title="Fun">
<polygon fill="none" stroke="#000000" points="348,-657.5 348,-677.5 382,-677.5 382,-657.5 348,-657.5"/>
<text text-anchor="middle" x="365" y="-664.5" font-family="FreeSans" font-size="10.00" fill="#000000">Fun</text>
</a>
</g>
</g>
<!-- Node2&#45;&gt;Node3 -->
<g id="edge2" class="edge">
<title>Node2&#45;&gt;Node3</title>
<path fill="none" stroke="#191970" d="M295.6941,-667.5C315.0852,-667.5 334.59,-667.5 347.9452,-667.5"/>
<polygon fill="#191970" stroke="#191970" points="295.5974,-664.0001 285.5974,-667.5 295.5974,-671.0001 295.5974,-664.0001"/>
</g>
</g>
</svg>
