<?xml version="1.0" encoding="UTF-8" standalone="no"?>
<!DOCTYPE svg PUBLIC "-//W3C//DTD SVG 1.1//EN"
 "http://www.w3.org/Graphics/SVG/1.1/DTD/svg11.dtd">
<!-- Generated by graphviz version 2.40.1 (20161225.0304)
 -->
<!-- Title: HCALInner_Clusters Pages: 1 -->
<svg width="397pt" height="686pt"
 viewBox="0.00 0.00 397.00 686.00" xmlns="http://www.w3.org/2000/svg" xmlns:xlink="http://www.w3.org/1999/xlink">
<g id="graph0" class="graph" transform="scale(1 1) rotate(0) translate(4 682)">
<title>HCALInner_Clusters</title>
<!-- Node1 -->
<g id="node1" class="node">
<title>Node1</title>
<polygon fill="#bfbfbf" stroke="#000000" points="0,-340.5 0,-360.5 116,-360.5 116,-340.5 0,-340.5"/>
<text text-anchor="middle" x="58" y="-347.5" font-family="FreeSans" font-size="10.00" fill="#000000">HCALInner_Clusters</text>
</g>
<!-- Node2 -->
<g id="node2" class="node">
<title>Node2</title>
<g id="a_node2"><a xlink:href="../../d3/d7f/Fun_8C.html#af0d3c8a78765149fef9b2beeecfc6279" target="_top" xlink:title="ConfigureDetectors">
<polygon fill="none" stroke="#000000" points="178.5,-657.5 178.5,-677.5 292.5,-677.5 292.5,-657.5 178.5,-657.5"/>
<text text-anchor="middle" x="235.5" y="-664.5" font-family="FreeSans" font-size="10.00" fill="#000000">ConfigureDetectors</text>
</a>
</g>
</g>
<!-- Node1&#45;&gt;Node2 -->
<g id="edge1" class="edge">
<title>Node1&#45;&gt;Node2</title>
<path fill="none" stroke="#191970" d="M61.6577,-370.5874C73.0619,-431.0499 109.7462,-609.5694 152,-648.5 159.3256,-655.2495 168.5362,-659.7675 178.1433,-662.7597"/>
<polygon fill="#191970" stroke="#191970" points="65.0945,-369.9243 59.8269,-360.7318 58.2123,-371.2029 65.0945,-369.9243"/>
</g>
<!-- Node4 -->
<g id="node4" class="node">
<title>Node4</title>
<g id="a_node4"><a xlink:href="../../da/d02/Fun4All__G4__EICDetector_8C.html#afbe82cefa1d1fd031d9a8586b7bb68c6" target="_top" xlink:title="Fun4All_G4_EICDetector">
<polygon fill="none" stroke="#000000" points="166,-618.5 166,-638.5 305,-638.5 305,-618.5 166,-618.5"/>
<text text-anchor="middle" x="235.5" y="-625.5" font-family="FreeSans" font-size="10.00" fill="#000000">Fun4All_G4_EICDetector</text>
</a>
</g>
</g>
<!-- Node1&#45;&gt;Node4 -->
<g id="edge3" class="edge">
<title>Node1&#45;&gt;Node4</title>
<path fill="none" stroke="#191970" d="M59.0464,-370.7925C62.7154,-419.7745 79.1254,-545.1715 152,-609.5 156.124,-613.1403 160.8001,-616.1253 165.7826,-618.5682"/>
<polygon fill="#191970" stroke="#191970" points="62.5227,-370.3106 58.3871,-360.5563 55.5372,-370.7606 62.5227,-370.3106"/>
</g>
<!-- Node5 -->
<g id="node5" class="node">
<title>Node5</title>
<g id="a_node5"><a xlink:href="../../dd/d2a/Fun4All__G4__EICDetector__LQ_8C.html#aaa01242fd6e77ca43a9d49a6d46008e4" target="_top" xlink:title="Fun4All_G4_EICDetector_LQ">
<polygon fill="none" stroke="#000000" points="157.5,-579.5 157.5,-599.5 313.5,-599.5 313.5,-579.5 157.5,-579.5"/>
<text text-anchor="middle" x="235.5" y="-586.5" font-family="FreeSans" font-size="10.00" fill="#000000">Fun4All_G4_EICDetector_LQ</text>
</a>
</g>
</g>
<!-- Node1&#45;&gt;Node5 -->
<g id="edge4" class="edge">
<title>Node1&#45;&gt;Node5</title>
<path fill="none" stroke="#191970" d="M60.4955,-370.6825C67.0027,-414.2899 88.6313,-517.625 152,-570.5 156.2236,-574.0242 160.9706,-576.9266 166.0015,-579.3133"/>
<polygon fill="#191970" stroke="#191970" points="63.9557,-370.1531 59.1223,-360.725 57.0213,-371.1094 63.9557,-370.1531"/>
</g>
<!-- Node6 -->
<g id="node6" class="node">
<title>Node6</title>
<g id="a_node6"><a xlink:href="../../d4/df5/Fun4All__G4__EICDetector__LQ__reference_8C.html#a2feefc472f17f90b3cbe74897d049f75" target="_top" xlink:title="Fun4All_G4_EICDetector\l_LQ_reference">
<polygon fill="none" stroke="#000000" points="166,-528.5 166,-560.5 305,-560.5 305,-528.5 166,-528.5"/>
<text text-anchor="start" x="174" y="-547.5" font-family="FreeSans" font-size="10.00" fill="#000000">Fun4All_G4_EICDetector</text>
<text text-anchor="middle" x="235.5" y="-535.5" font-family="FreeSans" font-size="10.00" fill="#000000">_LQ_reference</text>
</a>
</g>
</g>
<!-- Node1&#45;&gt;Node6 -->
<g id="edge5" class="edge">
<title>Node1&#45;&gt;Node6</title>
<path fill="none" stroke="#191970" d="M63.5541,-370.2638C74.4934,-405.5586 102.1992,-479.4703 152,-519.5 156.246,-522.9129 160.9491,-525.8604 165.8967,-528.4057"/>
<polygon fill="#191970" stroke="#191970" points="66.895,-369.2191 60.6915,-360.6303 60.185,-371.2131 66.895,-369.2191"/>
</g>
<!-- Node7 -->
<g id="node7" class="node">
<title>Node7</title>
<g id="a_node7"><a xlink:href="../../d3/d51/Fun4All__G4__EICDetector__RICH_8C.html#a5739502b0a7a1ba782c01069f77e933f" target="_top" xlink:title="Fun4All_G4_EICDetector_RICH">
<polygon fill="none" stroke="#000000" points="152,-489.5 152,-509.5 319,-509.5 319,-489.5 152,-489.5"/>
<text text-anchor="middle" x="235.5" y="-496.5" font-family="FreeSans" font-size="10.00" fill="#000000">Fun4All_G4_EICDetector_RICH</text>
</a>
</g>
</g>
<!-- Node1&#45;&gt;Node7 -->
<g id="edge6" class="edge">
<title>Node1&#45;&gt;Node7</title>
<path fill="none" stroke="#191970" d="M66.4938,-369.9477C80.1472,-398.8152 109.7908,-452.5892 152,-480.5 157.4565,-484.1081 163.504,-487.0372 169.7781,-489.4141"/>
<polygon fill="#191970" stroke="#191970" points="69.5319,-368.175 62.1934,-360.5332 63.1648,-371.0835 69.5319,-368.175"/>
</g>
<!-- Node8 -->
<g id="node8" class="node">
<title>Node8</title>
<g id="a_node8"><a xlink:href="../../d7/d9e/Fun4All__G4__fsPHENIX_8C.html#af48911d394d2412e817583700f2bbee2" target="_top" xlink:title="Fun4All_G4_fsPHENIX">
<polygon fill="none" stroke="#000000" points="173.5,-450.5 173.5,-470.5 297.5,-470.5 297.5,-450.5 173.5,-450.5"/>
<text text-anchor="middle" x="235.5" y="-457.5" font-family="FreeSans" font-size="10.00" fill="#000000">Fun4All_G4_fsPHENIX</text>
</a>
</g>
</g>
<!-- Node1&#45;&gt;Node8 -->
<g id="edge7" class="edge">
<title>Node1&#45;&gt;Node8</title>
<path fill="none" stroke="#191970" d="M71.5326,-368.5976C88.1378,-389.4642 118.2727,-423.2295 152,-441.5 158.6668,-445.1115 165.9913,-448.0382 173.4468,-450.4094"/>
<polygon fill="#191970" stroke="#191970" points="74.1677,-366.2841 65.2734,-360.5272 68.6363,-370.5742 74.1677,-366.2841"/>
</g>
<!-- Node9 -->
<g id="node9" class="node">
<title>Node9</title>
<g id="a_node9"><a xlink:href="../../da/d2f/Fun4All__G4__fsPHENIX__FastSim_8C.html#a66fb850cae5fcaadda23b74a25ce4c9c" target="_top" xlink:title="Fun4All_G4_fsPHENIX\l_FastSim">
<polygon fill="none" stroke="#000000" points="173.5,-399.5 173.5,-431.5 297.5,-431.5 297.5,-399.5 173.5,-399.5"/>
<text text-anchor="start" x="181.5" y="-418.5" font-family="FreeSans" font-size="10.00" fill="#000000">Fun4All_G4_fsPHENIX</text>
<text text-anchor="middle" x="235.5" y="-406.5" font-family="FreeSans" font-size="10.00" fill="#000000">_FastSim</text>
</a>
</g>
</g>
<!-- Node1&#45;&gt;Node9 -->
<g id="edge8" class="edge">
<title>Node1&#45;&gt;Node9</title>
<path fill="none" stroke="#191970" d="M89.2395,-364.8284C107.3666,-372.8807 130.7476,-382.8237 152,-390.5 160.5394,-393.5844 169.6628,-396.5963 178.6273,-399.4002"/>
<polygon fill="#191970" stroke="#191970" points="90.3131,-361.4741 79.7564,-360.5759 87.4488,-367.8613 90.3131,-361.4741"/>
</g>
<!-- Node10 -->
<g id="node10" class="node">
<title>Node10</title>
<g id="a_node10"><a xlink:href="../../d0/da6/Fun4All__G4__fsPHENIX__pi0_8C.html#a023d91d47b678e5d7f1751834aa517c6" target="_top" xlink:title="Fun4All_G4_fsPHENIX_pi0">
<polygon fill="none" stroke="#000000" points="163,-360.5 163,-380.5 308,-380.5 308,-360.5 163,-360.5"/>
<text text-anchor="middle" x="235.5" y="-367.5" font-family="FreeSans" font-size="10.00" fill="#000000">Fun4All_G4_fsPHENIX_pi0</text>
</a>
</g>
</g>
<!-- Node1&#45;&gt;Node10 -->
<g id="edge9" class="edge">
<title>Node1&#45;&gt;Node10</title>
<path fill="none" stroke="#191970" d="M126.1091,-358.1743C138.1767,-359.534 150.7834,-360.9545 162.9679,-362.3274"/>
<polygon fill="#191970" stroke="#191970" points="126.4492,-354.6905 116.1201,-357.0487 125.6653,-361.6465 126.4492,-354.6905"/>
</g>
<!-- Node11 -->
<g id="node11" class="node">
<title>Node11</title>
<g id="a_node11"><a xlink:href="../../d5/d2c/macros_2blob_2master_2macros_2g4simulations_2Fun4All__G4__sPHENIX_8C.html#a6eaaa492d7023ec86c562dc63aa1e5a4" target="_top" xlink:title="Fun4All_G4_sPHENIX">
<polygon fill="none" stroke="#000000" points="175,-321.5 175,-341.5 296,-341.5 296,-321.5 175,-321.5"/>
<text text-anchor="middle" x="235.5" y="-328.5" font-family="FreeSans" font-size="10.00" fill="#000000">Fun4All_G4_sPHENIX</text>
</a>
</g>
</g>
<!-- Node1&#45;&gt;Node11 -->
<g id="edge10" class="edge">
<title>Node1&#45;&gt;Node11</title>
<path fill="none" stroke="#191970" d="M126.437,-343.1743C142.3742,-341.4684 159.2348,-339.6636 174.8102,-337.9964"/>
<polygon fill="#191970" stroke="#191970" points="125.6908,-339.7341 116.1201,-344.2787 126.4359,-346.6944 125.6908,-339.7341"/>
</g>
<!-- Node12 -->
<g id="node12" class="node">
<title>Node12</title>
<g id="a_node12"><a xlink:href="../../d3/de2/Fun4All__G4__sPHENIX__AnaGenFit_8C.html#a9bf3f2f72ed69a17e2d0c1121d48013c" target="_top" xlink:title="Fun4All_G4_sPHENIX\l_AnaGenFit">
<polygon fill="none" stroke="#000000" points="175,-270.5 175,-302.5 296,-302.5 296,-270.5 175,-270.5"/>
<text text-anchor="start" x="183" y="-289.5" font-family="FreeSans" font-size="10.00" fill="#000000">Fun4All_G4_sPHENIX</text>
<text text-anchor="middle" x="235.5" y="-277.5" font-family="FreeSans" font-size="10.00" fill="#000000">_AnaGenFit</text>
</a>
</g>
</g>
<!-- Node1&#45;&gt;Node12 -->
<g id="edge11" class="edge">
<title>Node1&#45;&gt;Node12</title>
<path fill="none" stroke="#191970" d="M90.7936,-336.4706C108.7365,-328.9906 131.4393,-319.8429 152,-312.5 161.437,-309.1297 171.5581,-305.7691 181.3833,-302.6371"/>
<polygon fill="#191970" stroke="#191970" points="89.2238,-333.3337 81.3589,-340.4325 91.9341,-339.7877 89.2238,-333.3337"/>
</g>
<!-- Node13 -->
<g id="node13" class="node">
<title>Node13</title>
<g id="a_node13"><a xlink:href="../../da/dd0/Fun4All__G4__sPHENIX__photonjet_8C.html#a6f18519e216acc05399e562ea57ea77c" target="_top" xlink:title="Fun4All_G4_sPHENIX\l_photonjet">
<polygon fill="none" stroke="#000000" points="175,-219.5 175,-251.5 296,-251.5 296,-219.5 175,-219.5"/>
<text text-anchor="start" x="183" y="-238.5" font-family="FreeSans" font-size="10.00" fill="#000000">Fun4All_G4_sPHENIX</text>
<text text-anchor="middle" x="235.5" y="-226.5" font-family="FreeSans" font-size="10.00" fill="#000000">_photonjet</text>
</a>
</g>
</g>
<!-- Node1&#45;&gt;Node13 -->
<g id="edge12" class="edge">
<title>Node1&#45;&gt;Node13</title>
<path fill="none" stroke="#191970" d="M72.4042,-332.6328C89.4369,-312.6139 119.5931,-280.4866 152,-261.5 159.0741,-257.3554 166.8792,-253.8025 174.792,-250.776"/>
<polygon fill="#191970" stroke="#191970" points="69.6483,-330.4727 65.9397,-340.3973 75.0279,-334.9516 69.6483,-330.4727"/>
</g>
<!-- Node14 -->
<g id="node14" class="node">
<title>Node14</title>
<g id="a_node14"><a xlink:href="../../da/d85/Fun4All__G4__sPHENIX__photons_8C.html#a02fbbd59878fe1299f58ed187e7214ba" target="_top" xlink:title="Fun4All_G4_sPHENIX\l_photons">
<polygon fill="none" stroke="#000000" points="175,-168.5 175,-200.5 296,-200.5 296,-168.5 175,-168.5"/>
<text text-anchor="start" x="183" y="-187.5" font-family="FreeSans" font-size="10.00" fill="#000000">Fun4All_G4_sPHENIX</text>
<text text-anchor="middle" x="235.5" y="-175.5" font-family="FreeSans" font-size="10.00" fill="#000000">_photons</text>
</a>
</g>
</g>
<!-- Node1&#45;&gt;Node14 -->
<g id="edge13" class="edge">
<title>Node1&#45;&gt;Node14</title>
<path fill="none" stroke="#191970" d="M66.0111,-330.8407C79.3482,-300.5434 108.9606,-242.5904 152,-210.5 158.8163,-205.4177 166.6462,-201.3147 174.7198,-198.0059"/>
<polygon fill="#191970" stroke="#191970" points="62.6739,-329.7443 61.977,-340.3162 69.1145,-332.4863 62.6739,-329.7443"/>
</g>
<!-- Node15 -->
<g id="node15" class="node">
<title>Node15</title>
<g id="a_node15"><a xlink:href="../../de/d55/Fun4All__G4__sPHENIX__truthphotonjet_8C.html#a48a6f4503eaa1b3793d8ae572aa795b9" target="_top" xlink:title="Fun4All_G4_sPHENIX\l_truthphotonjet">
<polygon fill="none" stroke="#000000" points="175,-117.5 175,-149.5 296,-149.5 296,-117.5 175,-117.5"/>
<text text-anchor="start" x="183" y="-136.5" font-family="FreeSans" font-size="10.00" fill="#000000">Fun4All_G4_sPHENIX</text>
<text text-anchor="middle" x="235.5" y="-124.5" font-family="FreeSans" font-size="10.00" fill="#000000">_truthphotonjet</text>
</a>
</g>
</g>
<!-- Node1&#45;&gt;Node15 -->
<g id="edge14" class="edge">
<title>Node1&#45;&gt;Node15</title>
<path fill="none" stroke="#191970" d="M62.3028,-330.4366C71.6641,-291.6424 97.5556,-206.0751 152,-159.5 158.6917,-153.7755 166.6373,-149.3103 174.9252,-145.8277"/>
<polygon fill="#191970" stroke="#191970" points="58.8245,-329.9461 60.0022,-340.4752 65.6477,-331.5098 58.8245,-329.9461"/>
</g>
<!-- Node16 -->
<g id="node16" class="node">
<title>Node16</title>
<g id="a_node16"><a xlink:href="../../d4/d65/Fun4All__single__particle_8C.html#a8a492b5dbead494bfdddbebde8a49b0e" target="_top" xlink:title="Fun4All_single_particle">
<polygon fill="none" stroke="#000000" points="169.5,-78.5 169.5,-98.5 301.5,-98.5 301.5,-78.5 169.5,-78.5"/>
<text text-anchor="middle" x="235.5" y="-85.5" font-family="FreeSans" font-size="10.00" fill="#000000">Fun4All_single_particle</text>
</a>
</g>
</g>
<!-- Node1&#45;&gt;Node16 -->
<g id="edge15" class="edge">
<title>Node1&#45;&gt;Node16</title>
<path fill="none" stroke="#191970" d="M59.6723,-330.3139C64.6524,-283.739 83.619,-168.1969 152,-108.5 157.0532,-104.0885 162.91,-100.6099 169.1317,-97.8726"/>
<polygon fill="#191970" stroke="#191970" points="56.1798,-330.0686 58.7059,-340.3579 63.1477,-330.7391 56.1798,-330.0686"/>
</g>
<!-- Node17 -->
<g id="node17" class="node">
<title>Node17</title>
<g id="a_node17"><a xlink:href="../../d0/d99/Jin__BJet_8C.html#a36169bfee2ed7efda633944d12aebad9" target="_top" xlink:title="Jin_BJet">
<polygon fill="none" stroke="#000000" points="208,-39.5 208,-59.5 263,-59.5 263,-39.5 208,-39.5"/>
<text text-anchor="middle" x="235.5" y="-46.5" font-family="FreeSans" font-size="10.00" fill="#000000">Jin_BJet</text>
</a>
</g>
</g>
<!-- Node1&#45;&gt;Node17 -->
<g id="edge16" class="edge">
<title>Node1&#45;&gt;Node17</title>
<path fill="none" stroke="#191970" d="M62.0798,-330.4393C74.2745,-272.3903 112.0853,-106.0582 152,-69.5 167.0598,-55.7066 189.9147,-50.9486 207.9084,-49.5056"/>
<polygon fill="#191970" stroke="#191970" points="58.6488,-329.7478 60.0475,-340.2499 65.5033,-331.1678 58.6488,-329.7478"/>
</g>
<!-- Node18 -->
<g id="node18" class="node">
<title>Node18</title>
<g id="a_node18"><a xlink:href="../../dd/db1/Wrapper_8cxx.html#abf1e42281903daa0752c80dd6c879fac" target="_top" xlink:title="Wrapper">
<polygon fill="none" stroke="#000000" points="205.5,-.5 205.5,-20.5 265.5,-20.5 265.5,-.5 205.5,-.5"/>
<text text-anchor="middle" x="235.5" y="-7.5" font-family="FreeSans" font-size="10.00" fill="#000000">Wrapper</text>
</a>
</g>
</g>
<!-- Node1&#45;&gt;Node18 -->
<g id="edge17" class="edge">
<title>Node1&#45;&gt;Node18</title>
<path fill="none" stroke="#191970" d="M61.2526,-330.2227C71.8453,-266.6632 107.2638,-73.0271 152,-30.5 166.1531,-17.0458 187.6864,-12.124 205.3406,-10.5253"/>
<polygon fill="#191970" stroke="#191970" points="57.7803,-329.7691 59.6164,-340.2036 64.6881,-330.9016 57.7803,-329.7691"/>
</g>
<!-- Node3 -->
<g id="node3" class="node">
<title>Node3</title>
<g id="a_node3"><a xlink:href="../../d3/d7f/Fun_8C.html#af69a3eef3ff244bb51f5740c6ecb5432" target="_top" xlink:title="Fun">
<polygon fill="none" stroke="#000000" points="355,-657.5 355,-677.5 389,-677.5 389,-657.5 355,-657.5"/>
<text text-anchor="middle" x="372" y="-664.5" font-family="FreeSans" font-size="10.00" fill="#000000">Fun</text>
</a>
</g>
</g>
<!-- Node2&#45;&gt;Node3 -->
<g id="edge2" class="edge">
<title>Node2&#45;&gt;Node3</title>
<path fill="none" stroke="#191970" d="M302.6941,-667.5C322.0852,-667.5 341.59,-667.5 354.9452,-667.5"/>
<polygon fill="#191970" stroke="#191970" points="302.5974,-664.0001 292.5974,-667.5 302.5974,-671.0001 302.5974,-664.0001"/>
</g>
</g>
</svg>
