<?xml version="1.0" encoding="UTF-8" standalone="no"?>
<!DOCTYPE svg PUBLIC "-//W3C//DTD SVG 1.1//EN"
 "http://www.w3.org/Graphics/SVG/1.1/DTD/svg11.dtd">
<!-- Generated by graphviz version 2.40.1 (20161225.0304)
 -->
<!-- Title: HCalInner_SupportRing Pages: 1 -->
<svg width="614pt" height="725pt"
 viewBox="0.00 0.00 614.00 725.00" xmlns="http://www.w3.org/2000/svg" xmlns:xlink="http://www.w3.org/1999/xlink">
<g id="graph0" class="graph" transform="scale(1 1) rotate(0) translate(4 721)">
<title>HCalInner_SupportRing</title>
<!-- Node1 -->
<g id="node1" class="node">
<title>Node1</title>
<polygon fill="#bfbfbf" stroke="#000000" points="0,-342.5 0,-362.5 134,-362.5 134,-342.5 0,-342.5"/>
<text text-anchor="middle" x="67" y="-349.5" font-family="FreeSans" font-size="10.00" fill="#000000">HCalInner_SupportRing</text>
</g>
<!-- Node2 -->
<g id="node2" class="node">
<title>Node2</title>
<g id="a_node2"><a xlink:href="../../d7/dc0/G4__HcalIn__EIC_8C.html#a3d57117b35676ff1a0c5eb9efed9f101" target="_top" xlink:title="HCalInner">
<polygon fill="none" stroke="#000000" points="170,-342.5 170,-362.5 237,-362.5 237,-342.5 170,-342.5"/>
<text text-anchor="middle" x="203.5" y="-349.5" font-family="FreeSans" font-size="10.00" fill="#000000">HCalInner</text>
</a>
</g>
</g>
<!-- Node1&#45;&gt;Node2 -->
<g id="edge1" class="edge">
<title>Node1&#45;&gt;Node2</title>
<path fill="none" stroke="#191970" d="M144.2052,-352.5C153.1506,-352.5 161.8872,-352.5 169.7858,-352.5"/>
<polygon fill="#191970" stroke="#191970" points="144.0504,-349.0001 134.0503,-352.5 144.0503,-356.0001 144.0504,-349.0001"/>
</g>
<!-- Node3 -->
<g id="node3" class="node">
<title>Node3</title>
<g id="a_node3"><a xlink:href="../../d2/dfe/macros_2blob_2master_2macros_2g4simulations_2G4Setup__EICDetector_8C.html#a5d4cb2d19366a2ae6d2aefe8d2e4a870" target="_top" xlink:title="G4Setup">
<polygon fill="none" stroke="#000000" points="273,-342.5 273,-362.5 333,-362.5 333,-342.5 273,-342.5"/>
<text text-anchor="middle" x="303" y="-349.5" font-family="FreeSans" font-size="10.00" fill="#000000">G4Setup</text>
</a>
</g>
</g>
<!-- Node2&#45;&gt;Node3 -->
<g id="edge2" class="edge">
<title>Node2&#45;&gt;Node3</title>
<path fill="none" stroke="#191970" d="M247.4127,-352.5C255.9475,-352.5 264.7146,-352.5 272.6907,-352.5"/>
<polygon fill="#191970" stroke="#191970" points="247.1862,-349.0001 237.1862,-352.5 247.1861,-356.0001 247.1862,-349.0001"/>
</g>
<!-- Node4 -->
<g id="node4" class="node">
<title>Node4</title>
<g id="a_node4"><a xlink:href="../../d9/d0e/Fun4All__G4__EICIR_8C.html#ac3543d1dd4a0abed3987d40939ee3f87" target="_top" xlink:title="Fun4All_G4_EICIR">
<polygon fill="none" stroke="#000000" points="400.5,-696.5 400.5,-716.5 504.5,-716.5 504.5,-696.5 400.5,-696.5"/>
<text text-anchor="middle" x="452.5" y="-703.5" font-family="FreeSans" font-size="10.00" fill="#000000">Fun4All_G4_EICIR</text>
</a>
</g>
</g>
<!-- Node3&#45;&gt;Node4 -->
<g id="edge3" class="edge">
<title>Node3&#45;&gt;Node4</title>
<path fill="none" stroke="#191970" d="M304.1699,-372.7874C308.3581,-438.2039 324.7806,-641.9697 369,-687.5 377.2864,-696.032 388.548,-701.087 400.1163,-704.0049"/>
<polygon fill="#191970" stroke="#191970" points="307.6487,-372.3323 303.5444,-362.5648 300.6617,-372.7599 307.6487,-372.3323"/>
</g>
<!-- Node5 -->
<g id="node5" class="node">
<title>Node5</title>
<g id="a_node5"><a xlink:href="../../dd/d2a/Fun4All__G4__EICDetector__LQ_8C.html#aaa01242fd6e77ca43a9d49a6d46008e4" target="_top" xlink:title="Fun4All_G4_EICDetector_LQ">
<polygon fill="none" stroke="#000000" points="374.5,-657.5 374.5,-677.5 530.5,-677.5 530.5,-657.5 374.5,-657.5"/>
<text text-anchor="middle" x="452.5" y="-664.5" font-family="FreeSans" font-size="10.00" fill="#000000">Fun4All_G4_EICDetector_LQ</text>
</a>
</g>
</g>
<!-- Node3&#45;&gt;Node5 -->
<g id="edge4" class="edge">
<title>Node3&#45;&gt;Node5</title>
<path fill="none" stroke="#191970" d="M304.7381,-372.7509C310.3161,-432.9502 329.7381,-609.0669 369,-648.5 372.5665,-652.0821 376.6585,-655.0478 381.0736,-657.4977"/>
<polygon fill="#191970" stroke="#191970" points="308.2092,-372.2713 303.8305,-362.6237 301.2372,-372.8962 308.2092,-372.2713"/>
</g>
<!-- Node6 -->
<g id="node6" class="node">
<title>Node6</title>
<g id="a_node6"><a xlink:href="../../d4/df5/Fun4All__G4__EICDetector__LQ__reference_8C.html#a2feefc472f17f90b3cbe74897d049f75" target="_top" xlink:title="Fun4All_G4_EICDetector\l_LQ_reference">
<polygon fill="none" stroke="#000000" points="383,-606.5 383,-638.5 522,-638.5 522,-606.5 383,-606.5"/>
<text text-anchor="start" x="391" y="-625.5" font-family="FreeSans" font-size="10.00" fill="#000000">Fun4All_G4_EICDetector</text>
<text text-anchor="middle" x="452.5" y="-613.5" font-family="FreeSans" font-size="10.00" fill="#000000">_LQ_reference</text>
</a>
</g>
</g>
<!-- Node3&#45;&gt;Node6 -->
<g id="edge5" class="edge">
<title>Node3&#45;&gt;Node6</title>
<path fill="none" stroke="#191970" d="M305.9079,-372.8892C313.8246,-425.6684 337.3102,-564.9178 369,-597.5 373.0092,-601.6221 377.668,-605.0713 382.6952,-607.9566"/>
<polygon fill="#191970" stroke="#191970" points="309.3341,-372.1301 304.4196,-362.7441 302.4082,-373.1462 309.3341,-372.1301"/>
</g>
<!-- Node7 -->
<g id="node7" class="node">
<title>Node7</title>
<g id="a_node7"><a xlink:href="../../d0/d99/Jin__BJet_8C.html#a36169bfee2ed7efda633944d12aebad9" target="_top" xlink:title="Jin_BJet">
<polygon fill="none" stroke="#000000" points="425,-567.5 425,-587.5 480,-587.5 480,-567.5 425,-567.5"/>
<text text-anchor="middle" x="452.5" y="-574.5" font-family="FreeSans" font-size="10.00" fill="#000000">Jin_BJet</text>
</a>
</g>
</g>
<!-- Node3&#45;&gt;Node7 -->
<g id="edge6" class="edge">
<title>Node3&#45;&gt;Node7</title>
<path fill="none" stroke="#191970" d="M306.8009,-372.5124C316.0446,-419.1059 341.0079,-532.8256 369,-558.5 384.0103,-572.2675 406.8686,-576.7409 424.8763,-577.9249"/>
<polygon fill="#191970" stroke="#191970" points="310.2334,-371.8277 304.8873,-362.6806 303.3623,-373.1651 310.2334,-371.8277"/>
</g>
<!-- Node8 -->
<g id="node8" class="node">
<title>Node8</title>
<g id="a_node8"><a xlink:href="../../d3/d51/Fun4All__G4__EICDetector__RICH_8C.html#a5739502b0a7a1ba782c01069f77e933f" target="_top" xlink:title="Fun4All_G4_EICDetector_RICH">
<polygon fill="none" stroke="#000000" points="369,-528.5 369,-548.5 536,-548.5 536,-528.5 369,-528.5"/>
<text text-anchor="middle" x="452.5" y="-535.5" font-family="FreeSans" font-size="10.00" fill="#000000">Fun4All_G4_EICDetector_RICH</text>
</a>
</g>
</g>
<!-- Node3&#45;&gt;Node8 -->
<g id="edge7" class="edge">
<title>Node3&#45;&gt;Node8</title>
<path fill="none" stroke="#191970" d="M304.9709,-372.6693C309.5425,-408.014 324.1648,-481.0344 369,-519.5 373.1749,-523.0818 377.8873,-526.0251 382.8945,-528.4397"/>
<polygon fill="#191970" stroke="#191970" points="308.4337,-372.144 303.8143,-362.6092 301.4795,-372.9436 308.4337,-372.144"/>
</g>
<!-- Node9 -->
<g id="node9" class="node">
<title>Node9</title>
<g id="a_node9"><a xlink:href="../../d0/da6/Fun4All__G4__fsPHENIX__pi0_8C.html#a023d91d47b678e5d7f1751834aa517c6" target="_top" xlink:title="Fun4All_G4_fsPHENIX_pi0">
<polygon fill="none" stroke="#000000" points="380,-489.5 380,-509.5 525,-509.5 525,-489.5 380,-489.5"/>
<text text-anchor="middle" x="452.5" y="-496.5" font-family="FreeSans" font-size="10.00" fill="#000000">Fun4All_G4_fsPHENIX_pi0</text>
</a>
</g>
</g>
<!-- Node3&#45;&gt;Node9 -->
<g id="edge8" class="edge">
<title>Node3&#45;&gt;Node9</title>
<path fill="none" stroke="#191970" d="M307.6922,-372.7331C315.4081,-401.3078 333.5817,-453.0553 369,-480.5 373.5832,-484.0514 378.7079,-486.9617 384.1028,-489.3439"/>
<polygon fill="#191970" stroke="#191970" points="310.9981,-371.5288 305.1565,-362.6898 304.211,-373.2424 310.9981,-371.5288"/>
</g>
<!-- Node10 -->
<g id="node10" class="node">
<title>Node10</title>
<g id="a_node10"><a xlink:href="../../da/dd0/Fun4All__G4__sPHENIX__photonjet_8C.html#a6f18519e216acc05399e562ea57ea77c" target="_top" xlink:title="Fun4All_G4_sPHENIX\l_photonjet">
<polygon fill="none" stroke="#000000" points="392,-438.5 392,-470.5 513,-470.5 513,-438.5 392,-438.5"/>
<text text-anchor="start" x="400" y="-457.5" font-family="FreeSans" font-size="10.00" fill="#000000">Fun4All_G4_sPHENIX</text>
<text text-anchor="middle" x="452.5" y="-445.5" font-family="FreeSans" font-size="10.00" fill="#000000">_photonjet</text>
</a>
</g>
</g>
<!-- Node3&#45;&gt;Node10 -->
<g id="edge9" class="edge">
<title>Node3&#45;&gt;Node10</title>
<path fill="none" stroke="#191970" d="M314.5937,-371.4002C326.2682,-388.9049 345.8349,-414.4373 369,-429.5 375.9774,-434.037 383.8109,-437.7784 391.8106,-440.8567"/>
<polygon fill="#191970" stroke="#191970" points="317.2996,-369.1369 308.9472,-362.6187 311.4118,-372.9229 317.2996,-369.1369"/>
</g>
<!-- Node11 -->
<g id="node11" class="node">
<title>Node11</title>
<g id="a_node11"><a xlink:href="../../da/d85/Fun4All__G4__sPHENIX__photons_8C.html#a02fbbd59878fe1299f58ed187e7214ba" target="_top" xlink:title="Fun4All_G4_sPHENIX\l_photons">
<polygon fill="none" stroke="#000000" points="392,-387.5 392,-419.5 513,-419.5 513,-387.5 392,-387.5"/>
<text text-anchor="start" x="400" y="-406.5" font-family="FreeSans" font-size="10.00" fill="#000000">Fun4All_G4_sPHENIX</text>
<text text-anchor="middle" x="452.5" y="-394.5" font-family="FreeSans" font-size="10.00" fill="#000000">_photons</text>
</a>
</g>
</g>
<!-- Node3&#45;&gt;Node11 -->
<g id="edge10" class="edge">
<title>Node3&#45;&gt;Node11</title>
<path fill="none" stroke="#191970" d="M336.475,-366.3196C346.8336,-370.4248 358.3281,-374.8077 369,-378.5 377.8664,-381.5676 387.3358,-384.6157 396.5961,-387.4738"/>
<polygon fill="#191970" stroke="#191970" points="337.5398,-362.9757 326.9556,-362.5005 334.9333,-369.4724 337.5398,-362.9757"/>
</g>
<!-- Node12 -->
<g id="node12" class="node">
<title>Node12</title>
<g id="a_node12"><a xlink:href="../../de/d55/Fun4All__G4__sPHENIX__truthphotonjet_8C.html#a48a6f4503eaa1b3793d8ae572aa795b9" target="_top" xlink:title="Fun4All_G4_sPHENIX\l_truthphotonjet">
<polygon fill="none" stroke="#000000" points="392,-336.5 392,-368.5 513,-368.5 513,-336.5 392,-336.5"/>
<text text-anchor="start" x="400" y="-355.5" font-family="FreeSans" font-size="10.00" fill="#000000">Fun4All_G4_sPHENIX</text>
<text text-anchor="middle" x="452.5" y="-343.5" font-family="FreeSans" font-size="10.00" fill="#000000">_truthphotonjet</text>
</a>
</g>
</g>
<!-- Node3&#45;&gt;Node12 -->
<g id="edge11" class="edge">
<title>Node3&#45;&gt;Node12</title>
<path fill="none" stroke="#191970" d="M343.5966,-352.5C358.4176,-352.5 375.5204,-352.5 391.7162,-352.5"/>
<polygon fill="#191970" stroke="#191970" points="343.2536,-349.0001 333.2536,-352.5 343.2535,-356.0001 343.2536,-349.0001"/>
</g>
<!-- Node13 -->
<g id="node13" class="node">
<title>Node13</title>
<g id="a_node13"><a xlink:href="../../dd/db1/Wrapper_8cxx.html#abf1e42281903daa0752c80dd6c879fac" target="_top" xlink:title="Wrapper">
<polygon fill="none" stroke="#000000" points="422.5,-297.5 422.5,-317.5 482.5,-317.5 482.5,-297.5 422.5,-297.5"/>
<text text-anchor="middle" x="452.5" y="-304.5" font-family="FreeSans" font-size="10.00" fill="#000000">Wrapper</text>
</a>
</g>
</g>
<!-- Node3&#45;&gt;Node13 -->
<g id="edge12" class="edge">
<title>Node3&#45;&gt;Node13</title>
<path fill="none" stroke="#191970" d="M336.6502,-338.8107C346.9389,-334.8815 358.3506,-330.7778 369,-327.5 386.5238,-322.1063 406.4843,-317.2786 422.4946,-313.7182"/>
<polygon fill="#191970" stroke="#191970" points="335.2413,-335.6033 327.1915,-342.4918 337.7801,-342.1267 335.2413,-335.6033"/>
</g>
<!-- Node14 -->
<g id="node14" class="node">
<title>Node14</title>
<g id="a_node14"><a xlink:href="../../d3/d7f/Fun_8C.html#af0d3c8a78765149fef9b2beeecfc6279" target="_top" xlink:title="ConfigureDetectors">
<polygon fill="none" stroke="#000000" points="395.5,-258.5 395.5,-278.5 509.5,-278.5 509.5,-258.5 395.5,-258.5"/>
<text text-anchor="middle" x="452.5" y="-265.5" font-family="FreeSans" font-size="10.00" fill="#000000">ConfigureDetectors</text>
</a>
</g>
</g>
<!-- Node3&#45;&gt;Node14 -->
<g id="edge13" class="edge">
<title>Node3&#45;&gt;Node14</title>
<path fill="none" stroke="#191970" d="M317.0789,-334.2482C329.2715,-319.7022 348.1872,-299.9392 369,-288.5 377.0993,-284.0484 386.1732,-280.58 395.2746,-277.8796"/>
<polygon fill="#191970" stroke="#191970" points="314.2876,-332.1336 310.7135,-342.1074 319.7272,-336.5394 314.2876,-332.1336"/>
</g>
<!-- Node16 -->
<g id="node16" class="node">
<title>Node16</title>
<g id="a_node16"><a xlink:href="../../da/d2f/Fun4All__G4__fsPHENIX__FastSim_8C.html#a66fb850cae5fcaadda23b74a25ce4c9c" target="_top" xlink:title="Fun4All_G4_fsPHENIX\l_FastSim">
<polygon fill="none" stroke="#000000" points="390.5,-207.5 390.5,-239.5 514.5,-239.5 514.5,-207.5 390.5,-207.5"/>
<text text-anchor="start" x="398.5" y="-226.5" font-family="FreeSans" font-size="10.00" fill="#000000">Fun4All_G4_fsPHENIX</text>
<text text-anchor="middle" x="452.5" y="-214.5" font-family="FreeSans" font-size="10.00" fill="#000000">_FastSim</text>
</a>
</g>
</g>
<!-- Node3&#45;&gt;Node16 -->
<g id="edge15" class="edge">
<title>Node3&#45;&gt;Node16</title>
<path fill="none" stroke="#191970" d="M310.6255,-332.8364C320.6118,-309.6143 340.2934,-271.3862 369,-249.5 375.3993,-244.6211 382.7278,-240.648 390.3266,-237.4147"/>
<polygon fill="#191970" stroke="#191970" points="307.2849,-331.7575 306.7218,-342.3374 313.7597,-334.4179 307.2849,-331.7575"/>
</g>
<!-- Node17 -->
<g id="node17" class="node">
<title>Node17</title>
<g id="a_node17"><a xlink:href="../../d3/de2/Fun4All__G4__sPHENIX__AnaGenFit_8C.html#a9bf3f2f72ed69a17e2d0c1121d48013c" target="_top" xlink:title="Fun4All_G4_sPHENIX\l_AnaGenFit">
<polygon fill="none" stroke="#000000" points="392,-156.5 392,-188.5 513,-188.5 513,-156.5 392,-156.5"/>
<text text-anchor="start" x="400" y="-175.5" font-family="FreeSans" font-size="10.00" fill="#000000">Fun4All_G4_sPHENIX</text>
<text text-anchor="middle" x="452.5" y="-163.5" font-family="FreeSans" font-size="10.00" fill="#000000">_AnaGenFit</text>
</a>
</g>
</g>
<!-- Node3&#45;&gt;Node17 -->
<g id="edge16" class="edge">
<title>Node3&#45;&gt;Node17</title>
<path fill="none" stroke="#191970" d="M306.1761,-331.9403C312.3369,-299.0325 329.0034,-234.5743 369,-198.5 375.5393,-192.602 383.4015,-188.0419 391.6517,-184.5163"/>
<polygon fill="#191970" stroke="#191970" points="302.6631,-331.7171 304.4141,-342.1662 309.5614,-332.9058 302.6631,-331.7171"/>
</g>
<!-- Node18 -->
<g id="node18" class="node">
<title>Node18</title>
<g id="a_node18"><a xlink:href="../../d4/d65/Fun4All__single__particle_8C.html#a8a492b5dbead494bfdddbebde8a49b0e" target="_top" xlink:title="Fun4All_single_particle">
<polygon fill="none" stroke="#000000" points="386.5,-117.5 386.5,-137.5 518.5,-137.5 518.5,-117.5 386.5,-117.5"/>
<text text-anchor="middle" x="452.5" y="-124.5" font-family="FreeSans" font-size="10.00" fill="#000000">Fun4All_single_particle</text>
</a>
</g>
</g>
<!-- Node3&#45;&gt;Node18 -->
<g id="edge17" class="edge">
<title>Node3&#45;&gt;Node18</title>
<path fill="none" stroke="#191970" d="M306.8931,-332.3105C316.2557,-285.8036 341.317,-173.1454 369,-147.5 374.0302,-142.84 379.9487,-139.209 386.2739,-136.3875"/>
<polygon fill="#191970" stroke="#191970" points="303.4085,-331.8906 304.9047,-342.3792 310.2759,-333.2468 303.4085,-331.8906"/>
</g>
<!-- Node19 -->
<g id="node19" class="node">
<title>Node19</title>
<g id="a_node19"><a xlink:href="../../da/d02/Fun4All__G4__EICDetector_8C.html#afbe82cefa1d1fd031d9a8586b7bb68c6" target="_top" xlink:title="Fun4All_G4_EICDetector">
<polygon fill="none" stroke="#000000" points="383,-78.5 383,-98.5 522,-98.5 522,-78.5 383,-78.5"/>
<text text-anchor="middle" x="452.5" y="-85.5" font-family="FreeSans" font-size="10.00" fill="#000000">Fun4All_G4_EICDetector</text>
</a>
</g>
</g>
<!-- Node3&#45;&gt;Node19 -->
<g id="edge18" class="edge">
<title>Node3&#45;&gt;Node19</title>
<path fill="none" stroke="#191970" d="M305.8189,-332.0924C313.5186,-279.2807 336.5211,-140.0479 369,-108.5 373.1701,-104.4494 378.0076,-101.1688 383.2123,-98.5176"/>
<polygon fill="#191970" stroke="#191970" points="302.318,-331.8515 304.3735,-342.245 309.2481,-332.8382 302.318,-331.8515"/>
</g>
<!-- Node20 -->
<g id="node20" class="node">
<title>Node20</title>
<g id="a_node20"><a xlink:href="../../d7/d9e/Fun4All__G4__fsPHENIX_8C.html#af48911d394d2412e817583700f2bbee2" target="_top" xlink:title="Fun4All_G4_fsPHENIX">
<polygon fill="none" stroke="#000000" points="390.5,-39.5 390.5,-59.5 514.5,-59.5 514.5,-39.5 390.5,-39.5"/>
<text text-anchor="middle" x="452.5" y="-46.5" font-family="FreeSans" font-size="10.00" fill="#000000">Fun4All_G4_fsPHENIX</text>
</a>
</g>
</g>
<!-- Node3&#45;&gt;Node20 -->
<g id="edge19" class="edge">
<title>Node3&#45;&gt;Node20</title>
<path fill="none" stroke="#191970" d="M305.0097,-332.0106C311.1667,-273.4357 331.6545,-107.0692 369,-69.5 374.9901,-63.474 382.4524,-59.1399 390.4342,-56.0431"/>
<polygon fill="#191970" stroke="#191970" points="301.5014,-331.9148 303.9687,-342.2183 308.4653,-332.6251 301.5014,-331.9148"/>
</g>
<!-- Node21 -->
<g id="node21" class="node">
<title>Node21</title>
<g id="a_node21"><a xlink:href="../../d5/d2c/macros_2blob_2master_2macros_2g4simulations_2Fun4All__G4__sPHENIX_8C.html#a6eaaa492d7023ec86c562dc63aa1e5a4" target="_top" xlink:title="Fun4All_G4_sPHENIX">
<polygon fill="none" stroke="#000000" points="392,-.5 392,-20.5 513,-20.5 513,-.5 392,-.5"/>
<text text-anchor="middle" x="452.5" y="-7.5" font-family="FreeSans" font-size="10.00" fill="#000000">Fun4All_G4_sPHENIX</text>
</a>
</g>
</g>
<!-- Node3&#45;&gt;Node21 -->
<g id="edge20" class="edge">
<title>Node3&#45;&gt;Node21</title>
<path fill="none" stroke="#191970" d="M304.3705,-332.1734C309.0799,-268.4479 326.6998,-74.2163 369,-30.5 375.323,-23.9653 383.3737,-19.4092 391.9696,-16.2599"/>
<polygon fill="#191970" stroke="#191970" points="300.8772,-331.9566 303.6593,-342.1796 307.8596,-332.4529 300.8772,-331.9566"/>
</g>
<!-- Node15 -->
<g id="node15" class="node">
<title>Node15</title>
<g id="a_node15"><a xlink:href="../../d3/d7f/Fun_8C.html#af69a3eef3ff244bb51f5740c6ecb5432" target="_top" xlink:title="Fun">
<polygon fill="none" stroke="#000000" points="572,-258.5 572,-278.5 606,-278.5 606,-258.5 572,-258.5"/>
<text text-anchor="middle" x="589" y="-265.5" font-family="FreeSans" font-size="10.00" fill="#000000">Fun</text>
</a>
</g>
</g>
<!-- Node14&#45;&gt;Node15 -->
<g id="edge14" class="edge">
<title>Node14&#45;&gt;Node15</title>
<path fill="none" stroke="#191970" d="M519.6941,-268.5C539.0852,-268.5 558.59,-268.5 571.9452,-268.5"/>
<polygon fill="#191970" stroke="#191970" points="519.5974,-265.0001 509.5974,-268.5 519.5974,-272.0001 519.5974,-265.0001"/>
</g>
</g>
</svg>
