<?xml version="1.0" encoding="UTF-8" standalone="no"?>
<!DOCTYPE svg PUBLIC "-//W3C//DTD SVG 1.1//EN"
 "http://www.w3.org/Graphics/SVG/1.1/DTD/svg11.dtd">
<!-- Generated by graphviz version 2.40.1 (20161225.0304)
 -->
<!-- Title: HCalInnerInit Pages: 1 -->
<svg width="447pt" height="725pt"
 viewBox="0.00 0.00 447.00 725.00" xmlns="http://www.w3.org/2000/svg" xmlns:xlink="http://www.w3.org/1999/xlink">
<g id="graph0" class="graph" transform="scale(1 1) rotate(0) translate(4 721)">
<title>HCalInnerInit</title>
<!-- Node1 -->
<g id="node1" class="node">
<title>Node1</title>
<polygon fill="#bfbfbf" stroke="#000000" points="0,-342.5 0,-362.5 83,-362.5 83,-342.5 0,-342.5"/>
<text text-anchor="middle" x="41.5" y="-349.5" font-family="FreeSans" font-size="10.00" fill="#000000">HCalInnerInit</text>
</g>
<!-- Node2 -->
<g id="node2" class="node">
<title>Node2</title>
<g id="a_node2"><a xlink:href="../../d2/dfe/macros_2blob_2master_2macros_2g4simulations_2G4Setup__EICDetector_8C.html#ab082e188ab8edaf0922e3d4679988899" target="_top" xlink:title="G4Init">
<polygon fill="none" stroke="#000000" points="119,-342.5 119,-362.5 166,-362.5 166,-342.5 119,-342.5"/>
<text text-anchor="middle" x="142.5" y="-349.5" font-family="FreeSans" font-size="10.00" fill="#000000">G4Init</text>
</a>
</g>
</g>
<!-- Node1&#45;&gt;Node2 -->
<g id="edge1" class="edge">
<title>Node1&#45;&gt;Node2</title>
<path fill="none" stroke="#191970" d="M93.2468,-352.5C102.2112,-352.5 111.1231,-352.5 118.8519,-352.5"/>
<polygon fill="#191970" stroke="#191970" points="93.1637,-349.0001 83.1637,-352.5 93.1636,-356.0001 93.1637,-349.0001"/>
</g>
<!-- Node3 -->
<g id="node3" class="node">
<title>Node3</title>
<g id="a_node3"><a xlink:href="../../d9/d0e/Fun4All__G4__EICIR_8C.html#ac3543d1dd4a0abed3987d40939ee3f87" target="_top" xlink:title="Fun4All_G4_EICIR">
<polygon fill="none" stroke="#000000" points="233.5,-696.5 233.5,-716.5 337.5,-716.5 337.5,-696.5 233.5,-696.5"/>
<text text-anchor="middle" x="285.5" y="-703.5" font-family="FreeSans" font-size="10.00" fill="#000000">Fun4All_G4_EICIR</text>
</a>
</g>
</g>
<!-- Node2&#45;&gt;Node3 -->
<g id="edge2" class="edge">
<title>Node2&#45;&gt;Node3</title>
<path fill="none" stroke="#191970" d="M143.2521,-372.7673C146.0966,-438.1217 158.3628,-641.7182 202,-687.5 210.3086,-696.2169 221.7189,-701.3198 233.4362,-704.223"/>
<polygon fill="#191970" stroke="#191970" points="146.7403,-372.404 142.8368,-362.5545 139.7461,-372.6885 146.7403,-372.404"/>
</g>
<!-- Node4 -->
<g id="node4" class="node">
<title>Node4</title>
<g id="a_node4"><a xlink:href="../../dd/d2a/Fun4All__G4__EICDetector__LQ_8C.html#aaa01242fd6e77ca43a9d49a6d46008e4" target="_top" xlink:title="Fun4All_G4_EICDetector_LQ">
<polygon fill="none" stroke="#000000" points="207.5,-657.5 207.5,-677.5 363.5,-677.5 363.5,-657.5 207.5,-657.5"/>
<text text-anchor="middle" x="285.5" y="-664.5" font-family="FreeSans" font-size="10.00" fill="#000000">Fun4All_G4_EICDetector_LQ</text>
</a>
</g>
</g>
<!-- Node2&#45;&gt;Node4 -->
<g id="edge3" class="edge">
<title>Node2&#45;&gt;Node4</title>
<path fill="none" stroke="#191970" d="M143.7682,-372.7297C147.9529,-432.8689 163.3273,-608.8337 202,-648.5 205.4249,-652.0129 209.3543,-654.9358 213.6013,-657.3625"/>
<polygon fill="#191970" stroke="#191970" points="147.2513,-372.3584 143.0953,-362.6127 140.2667,-372.823 147.2513,-372.3584"/>
</g>
<!-- Node5 -->
<g id="node5" class="node">
<title>Node5</title>
<g id="a_node5"><a xlink:href="../../d4/df5/Fun4All__G4__EICDetector__LQ__reference_8C.html#a2feefc472f17f90b3cbe74897d049f75" target="_top" xlink:title="Fun4All_G4_EICDetector\l_LQ_reference">
<polygon fill="none" stroke="#000000" points="216,-606.5 216,-638.5 355,-638.5 355,-606.5 216,-606.5"/>
<text text-anchor="start" x="224" y="-625.5" font-family="FreeSans" font-size="10.00" fill="#000000">Fun4All_G4_EICDetector</text>
<text text-anchor="middle" x="285.5" y="-613.5" font-family="FreeSans" font-size="10.00" fill="#000000">_LQ_reference</text>
</a>
</g>
</g>
<!-- Node2&#45;&gt;Node5 -->
<g id="edge4" class="edge">
<title>Node2&#45;&gt;Node5</title>
<path fill="none" stroke="#191970" d="M144.8379,-372.8686C151.2835,-425.5977 170.917,-564.7355 202,-597.5 206.0618,-601.7815 210.8239,-605.3387 215.9787,-608.2929"/>
<polygon fill="#191970" stroke="#191970" points="148.2891,-372.2502 143.6328,-362.7334 141.3381,-373.0768 148.2891,-372.2502"/>
</g>
<!-- Node6 -->
<g id="node6" class="node">
<title>Node6</title>
<g id="a_node6"><a xlink:href="../../d0/d99/Jin__BJet_8C.html#a36169bfee2ed7efda633944d12aebad9" target="_top" xlink:title="Jin_BJet">
<polygon fill="none" stroke="#000000" points="258,-567.5 258,-587.5 313,-587.5 313,-567.5 258,-567.5"/>
<text text-anchor="middle" x="285.5" y="-574.5" font-family="FreeSans" font-size="10.00" fill="#000000">Jin_BJet</text>
</a>
</g>
</g>
<!-- Node2&#45;&gt;Node6 -->
<g id="edge5" class="edge">
<title>Node2&#45;&gt;Node6</title>
<path fill="none" stroke="#191970" d="M145.6927,-372.785C153.4509,-419.5122 174.681,-532.707 202,-558.5 216.81,-572.4827 239.6824,-576.941 257.7465,-578.0644"/>
<polygon fill="#191970" stroke="#191970" points="149.1079,-371.9795 144.0525,-362.6686 142.1981,-373.0998 149.1079,-371.9795"/>
</g>
<!-- Node7 -->
<g id="node7" class="node">
<title>Node7</title>
<g id="a_node7"><a xlink:href="../../d3/d51/Fun4All__G4__EICDetector__RICH_8C.html#a5739502b0a7a1ba782c01069f77e933f" target="_top" xlink:title="Fun4All_G4_EICDetector_RICH">
<polygon fill="none" stroke="#000000" points="202,-528.5 202,-548.5 369,-548.5 369,-528.5 202,-528.5"/>
<text text-anchor="middle" x="285.5" y="-535.5" font-family="FreeSans" font-size="10.00" fill="#000000">Fun4All_G4_EICDetector_RICH</text>
</a>
</g>
</g>
<!-- Node2&#45;&gt;Node7 -->
<g id="edge6" class="edge">
<title>Node2&#45;&gt;Node7</title>
<path fill="none" stroke="#191970" d="M143.6307,-372.6168C146.7402,-407.8791 158.3895,-480.7749 202,-519.5 206.0021,-523.0537 210.5298,-525.9837 215.3562,-528.3951"/>
<polygon fill="#191970" stroke="#191970" points="147.1168,-372.2972 142.8915,-362.5813 140.1357,-372.8115 147.1168,-372.2972"/>
</g>
<!-- Node8 -->
<g id="node8" class="node">
<title>Node8</title>
<g id="a_node8"><a xlink:href="../../d0/da6/Fun4All__G4__fsPHENIX__pi0_8C.html#a023d91d47b678e5d7f1751834aa517c6" target="_top" xlink:title="Fun4All_G4_fsPHENIX_pi0">
<polygon fill="none" stroke="#000000" points="213,-489.5 213,-509.5 358,-509.5 358,-489.5 213,-489.5"/>
<text text-anchor="middle" x="285.5" y="-496.5" font-family="FreeSans" font-size="10.00" fill="#000000">Fun4All_G4_fsPHENIX_pi0</text>
</a>
</g>
</g>
<!-- Node2&#45;&gt;Node8 -->
<g id="edge7" class="edge">
<title>Node2&#45;&gt;Node8</title>
<path fill="none" stroke="#191970" d="M146.1291,-372.69C152.3502,-401.212 167.8431,-452.8955 202,-480.5 206.394,-484.051 211.3233,-486.9665 216.5322,-489.3569"/>
<polygon fill="#191970" stroke="#191970" points="149.5171,-371.7836 144.1198,-362.6666 142.6536,-373.1595 149.5171,-371.7836"/>
</g>
<!-- Node9 -->
<g id="node9" class="node">
<title>Node9</title>
<g id="a_node9"><a xlink:href="../../da/dd0/Fun4All__G4__sPHENIX__photonjet_8C.html#a6f18519e216acc05399e562ea57ea77c" target="_top" xlink:title="Fun4All_G4_sPHENIX\l_photonjet">
<polygon fill="none" stroke="#000000" points="225,-438.5 225,-470.5 346,-470.5 346,-438.5 225,-438.5"/>
<text text-anchor="start" x="233" y="-457.5" font-family="FreeSans" font-size="10.00" fill="#000000">Fun4All_G4_sPHENIX</text>
<text text-anchor="middle" x="285.5" y="-445.5" font-family="FreeSans" font-size="10.00" fill="#000000">_photonjet</text>
</a>
</g>
</g>
<!-- Node2&#45;&gt;Node9 -->
<g id="edge8" class="edge">
<title>Node2&#45;&gt;Node9</title>
<path fill="none" stroke="#191970" d="M152.5162,-371.4229C162.7259,-388.944 180.1463,-414.4878 202,-429.5 208.8601,-434.2125 216.6267,-438.054 224.5936,-441.1813"/>
<polygon fill="#191970" stroke="#191970" points="155.5372,-369.6541 147.6036,-362.6321 149.4267,-373.0689 155.5372,-369.6541"/>
</g>
<!-- Node10 -->
<g id="node10" class="node">
<title>Node10</title>
<g id="a_node10"><a xlink:href="../../da/d85/Fun4All__G4__sPHENIX__photons_8C.html#a02fbbd59878fe1299f58ed187e7214ba" target="_top" xlink:title="Fun4All_G4_sPHENIX\l_photons">
<polygon fill="none" stroke="#000000" points="225,-387.5 225,-419.5 346,-419.5 346,-387.5 225,-387.5"/>
<text text-anchor="start" x="233" y="-406.5" font-family="FreeSans" font-size="10.00" fill="#000000">Fun4All_G4_sPHENIX</text>
<text text-anchor="middle" x="285.5" y="-394.5" font-family="FreeSans" font-size="10.00" fill="#000000">_photons</text>
</a>
</g>
</g>
<!-- Node2&#45;&gt;Node10 -->
<g id="edge9" class="edge">
<title>Node2&#45;&gt;Node10</title>
<path fill="none" stroke="#191970" d="M172.9255,-366.6396C182.1687,-370.7053 192.4165,-374.9861 202,-378.5 210.5245,-381.6256 219.6399,-384.6593 228.6009,-387.4726"/>
<polygon fill="#191970" stroke="#191970" points="174.284,-363.4131 163.7267,-362.5218 171.4239,-369.8022 174.284,-363.4131"/>
</g>
<!-- Node11 -->
<g id="node11" class="node">
<title>Node11</title>
<g id="a_node11"><a xlink:href="../../de/d55/Fun4All__G4__sPHENIX__truthphotonjet_8C.html#a48a6f4503eaa1b3793d8ae572aa795b9" target="_top" xlink:title="Fun4All_G4_sPHENIX\l_truthphotonjet">
<polygon fill="none" stroke="#000000" points="225,-336.5 225,-368.5 346,-368.5 346,-336.5 225,-336.5"/>
<text text-anchor="start" x="233" y="-355.5" font-family="FreeSans" font-size="10.00" fill="#000000">Fun4All_G4_sPHENIX</text>
<text text-anchor="middle" x="285.5" y="-343.5" font-family="FreeSans" font-size="10.00" fill="#000000">_truthphotonjet</text>
</a>
</g>
</g>
<!-- Node2&#45;&gt;Node11 -->
<g id="edge10" class="edge">
<title>Node2&#45;&gt;Node11</title>
<path fill="none" stroke="#191970" d="M176.1289,-352.5C190.6698,-352.5 208.1482,-352.5 224.8227,-352.5"/>
<polygon fill="#191970" stroke="#191970" points="176.1136,-349.0001 166.1135,-352.5 176.1135,-356.0001 176.1136,-349.0001"/>
</g>
<!-- Node12 -->
<g id="node12" class="node">
<title>Node12</title>
<g id="a_node12"><a xlink:href="../../dd/db1/Wrapper_8cxx.html#abf1e42281903daa0752c80dd6c879fac" target="_top" xlink:title="Wrapper">
<polygon fill="none" stroke="#000000" points="255.5,-297.5 255.5,-317.5 315.5,-317.5 315.5,-297.5 255.5,-297.5"/>
<text text-anchor="middle" x="285.5" y="-304.5" font-family="FreeSans" font-size="10.00" fill="#000000">Wrapper</text>
</a>
</g>
</g>
<!-- Node2&#45;&gt;Node12 -->
<g id="edge11" class="edge">
<title>Node2&#45;&gt;Node12</title>
<path fill="none" stroke="#191970" d="M173.3702,-338.4072C182.4758,-334.5577 192.5379,-330.5982 202,-327.5 219.4248,-321.7945 239.3814,-316.9547 255.4145,-313.4657"/>
<polygon fill="#191970" stroke="#191970" points="171.722,-335.3069 163.9388,-342.4953 174.5059,-341.7296 171.722,-335.3069"/>
</g>
<!-- Node13 -->
<g id="node13" class="node">
<title>Node13</title>
<g id="a_node13"><a xlink:href="../../d3/d7f/Fun_8C.html#af0d3c8a78765149fef9b2beeecfc6279" target="_top" xlink:title="ConfigureDetectors">
<polygon fill="none" stroke="#000000" points="228.5,-258.5 228.5,-278.5 342.5,-278.5 342.5,-258.5 228.5,-258.5"/>
<text text-anchor="middle" x="285.5" y="-265.5" font-family="FreeSans" font-size="10.00" fill="#000000">ConfigureDetectors</text>
</a>
</g>
</g>
<!-- Node2&#45;&gt;Node13 -->
<g id="edge12" class="edge">
<title>Node2&#45;&gt;Node13</title>
<path fill="none" stroke="#191970" d="M155.1108,-333.8084C165.8881,-319.2854 182.6875,-299.7755 202,-288.5 209.9813,-283.8401 218.9944,-280.2643 228.0713,-277.5208"/>
<polygon fill="#191970" stroke="#191970" points="152.1634,-331.9135 149.2101,-342.0884 157.864,-335.976 152.1634,-331.9135"/>
</g>
<!-- Node15 -->
<g id="node15" class="node">
<title>Node15</title>
<g id="a_node15"><a xlink:href="../../da/d2f/Fun4All__G4__fsPHENIX__FastSim_8C.html#a66fb850cae5fcaadda23b74a25ce4c9c" target="_top" xlink:title="Fun4All_G4_fsPHENIX\l_FastSim">
<polygon fill="none" stroke="#000000" points="223.5,-207.5 223.5,-239.5 347.5,-239.5 347.5,-207.5 223.5,-207.5"/>
<text text-anchor="start" x="231.5" y="-226.5" font-family="FreeSans" font-size="10.00" fill="#000000">Fun4All_G4_fsPHENIX</text>
<text text-anchor="middle" x="285.5" y="-214.5" font-family="FreeSans" font-size="10.00" fill="#000000">_FastSim</text>
</a>
</g>
</g>
<!-- Node2&#45;&gt;Node15 -->
<g id="edge14" class="edge">
<title>Node2&#45;&gt;Node15</title>
<path fill="none" stroke="#191970" d="M148.8538,-332.8471C157.3445,-309.6357 174.5839,-271.418 202,-249.5 208.2853,-244.4752 215.5471,-240.4165 223.1116,-237.1393"/>
<polygon fill="#191970" stroke="#191970" points="145.5304,-331.7487 145.5632,-342.3435 152.1445,-334.0406 145.5304,-331.7487"/>
</g>
<!-- Node16 -->
<g id="node16" class="node">
<title>Node16</title>
<g id="a_node16"><a xlink:href="../../d3/de2/Fun4All__G4__sPHENIX__AnaGenFit_8C.html#a9bf3f2f72ed69a17e2d0c1121d48013c" target="_top" xlink:title="Fun4All_G4_sPHENIX\l_AnaGenFit">
<polygon fill="none" stroke="#000000" points="225,-156.5 225,-188.5 346,-188.5 346,-156.5 225,-156.5"/>
<text text-anchor="start" x="233" y="-175.5" font-family="FreeSans" font-size="10.00" fill="#000000">Fun4All_G4_sPHENIX</text>
<text text-anchor="middle" x="285.5" y="-163.5" font-family="FreeSans" font-size="10.00" fill="#000000">_AnaGenFit</text>
</a>
</g>
</g>
<!-- Node2&#45;&gt;Node16 -->
<g id="edge15" class="edge">
<title>Node2&#45;&gt;Node16</title>
<path fill="none" stroke="#191970" d="M144.7423,-331.9815C149.4211,-299.1317 163.2386,-234.7537 202,-198.5 208.5424,-192.3809 216.5043,-187.7013 224.8839,-184.1228"/>
<polygon fill="#191970" stroke="#191970" points="141.2339,-331.8262 143.4426,-342.1882 148.1778,-332.7105 141.2339,-331.8262"/>
</g>
<!-- Node17 -->
<g id="node17" class="node">
<title>Node17</title>
<g id="a_node17"><a xlink:href="../../d4/d65/Fun4All__single__particle_8C.html#a8a492b5dbead494bfdddbebde8a49b0e" target="_top" xlink:title="Fun4All_single_particle">
<polygon fill="none" stroke="#000000" points="219.5,-117.5 219.5,-137.5 351.5,-137.5 351.5,-117.5 219.5,-117.5"/>
<text text-anchor="middle" x="285.5" y="-124.5" font-family="FreeSans" font-size="10.00" fill="#000000">Fun4All_single_particle</text>
</a>
</g>
</g>
<!-- Node2&#45;&gt;Node17 -->
<g id="edge16" class="edge">
<title>Node2&#45;&gt;Node17</title>
<path fill="none" stroke="#191970" d="M145.7265,-332.3331C153.5575,-285.8749 174.9328,-173.3139 202,-147.5 206.9622,-142.7676 212.8371,-139.0901 219.1365,-136.2413"/>
<polygon fill="#191970" stroke="#191970" points="142.2417,-331.9551 144.0701,-342.391 149.1486,-333.0927 142.2417,-331.9551"/>
</g>
<!-- Node18 -->
<g id="node18" class="node">
<title>Node18</title>
<g id="a_node18"><a xlink:href="../../da/d02/Fun4All__G4__EICDetector_8C.html#afbe82cefa1d1fd031d9a8586b7bb68c6" target="_top" xlink:title="Fun4All_G4_EICDetector">
<polygon fill="none" stroke="#000000" points="216,-78.5 216,-98.5 355,-98.5 355,-78.5 216,-78.5"/>
<text text-anchor="middle" x="285.5" y="-85.5" font-family="FreeSans" font-size="10.00" fill="#000000">Fun4All_G4_EICDetector</text>
</a>
</g>
</g>
<!-- Node2&#45;&gt;Node18 -->
<g id="edge17" class="edge">
<title>Node2&#45;&gt;Node18</title>
<path fill="none" stroke="#191970" d="M144.7484,-332.1148C150.9757,-279.3577 170.1232,-140.2466 202,-108.5 206.0136,-104.5028 210.6755,-101.2516 215.7047,-98.613"/>
<polygon fill="#191970" stroke="#191970" points="141.2475,-331.9232 143.5864,-342.2566 148.202,-332.7201 141.2475,-331.9232"/>
</g>
<!-- Node19 -->
<g id="node19" class="node">
<title>Node19</title>
<g id="a_node19"><a xlink:href="../../d7/d9e/Fun4All__G4__fsPHENIX_8C.html#af48911d394d2412e817583700f2bbee2" target="_top" xlink:title="Fun4All_G4_fsPHENIX">
<polygon fill="none" stroke="#000000" points="223.5,-39.5 223.5,-59.5 347.5,-59.5 347.5,-39.5 223.5,-39.5"/>
<text text-anchor="middle" x="285.5" y="-46.5" font-family="FreeSans" font-size="10.00" fill="#000000">Fun4All_G4_fsPHENIX</text>
</a>
</g>
</g>
<!-- Node2&#45;&gt;Node19 -->
<g id="edge18" class="edge">
<title>Node2&#45;&gt;Node19</title>
<path fill="none" stroke="#191970" d="M144.0129,-332.0322C148.7535,-273.5157 165.2468,-107.2918 202,-69.5 207.9238,-63.4088 215.3493,-59.0385 223.314,-55.9249"/>
<polygon fill="#191970" stroke="#191970" points="140.5059,-331.9879 143.219,-342.2294 147.4847,-332.5313 140.5059,-331.9879"/>
</g>
<!-- Node20 -->
<g id="node20" class="node">
<title>Node20</title>
<g id="a_node20"><a xlink:href="../../d5/d2c/macros_2blob_2master_2macros_2g4simulations_2Fun4All__G4__sPHENIX_8C.html#a6eaaa492d7023ec86c562dc63aa1e5a4" target="_top" xlink:title="Fun4All_G4_sPHENIX">
<polygon fill="none" stroke="#000000" points="225,-.5 225,-20.5 346,-20.5 346,-.5 225,-.5"/>
<text text-anchor="middle" x="285.5" y="-7.5" font-family="FreeSans" font-size="10.00" fill="#000000">Fun4All_G4_sPHENIX</text>
</a>
</g>
</g>
<!-- Node2&#45;&gt;Node20 -->
<g id="edge19" class="edge">
<title>Node2&#45;&gt;Node20</title>
<path fill="none" stroke="#191970" d="M143.4353,-332.1937C146.7839,-268.529 160.2853,-74.4586 202,-30.5 208.2592,-23.9041 216.2764,-19.3161 224.8585,-16.1534"/>
<polygon fill="#191970" stroke="#191970" points="139.9393,-332.0286 142.938,-342.1902 146.9306,-332.3765 139.9393,-332.0286"/>
</g>
<!-- Node14 -->
<g id="node14" class="node">
<title>Node14</title>
<g id="a_node14"><a xlink:href="../../d3/d7f/Fun_8C.html#af69a3eef3ff244bb51f5740c6ecb5432" target="_top" xlink:title="Fun">
<polygon fill="none" stroke="#000000" points="405,-258.5 405,-278.5 439,-278.5 439,-258.5 405,-258.5"/>
<text text-anchor="middle" x="422" y="-265.5" font-family="FreeSans" font-size="10.00" fill="#000000">Fun</text>
</a>
</g>
</g>
<!-- Node13&#45;&gt;Node14 -->
<g id="edge13" class="edge">
<title>Node13&#45;&gt;Node14</title>
<path fill="none" stroke="#191970" d="M352.6941,-268.5C372.0852,-268.5 391.59,-268.5 404.9452,-268.5"/>
<polygon fill="#191970" stroke="#191970" points="352.5974,-265.0001 342.5974,-268.5 352.5974,-272.0001 352.5974,-265.0001"/>
</g>
</g>
</svg>
