<?xml version="1.0" encoding="UTF-8" standalone="no"?>
<!DOCTYPE svg PUBLIC "-//W3C//DTD SVG 1.1//EN"
 "http://www.w3.org/Graphics/SVG/1.1/DTD/svg11.dtd">
<!-- Generated by graphviz version 2.40.1 (20161225.0304)
 -->
<!-- Title: coresoftware/blob/master/offline/framework/phool/recoConsts.h Pages: 1 -->
<svg width="5665pt" height="134pt"
 viewBox="0.00 0.00 5664.50 134.00" xmlns="http://www.w3.org/2000/svg" xmlns:xlink="http://www.w3.org/1999/xlink">
<g id="graph0" class="graph" transform="scale(1 1) rotate(0) translate(4 130)">
<title>coresoftware/blob/master/offline/framework/phool/recoConsts.h</title>
<!-- Node1 -->
<g id="node1" class="node">
<title>Node1</title>
<polygon fill="#bfbfbf" stroke="#000000" points="2783,-81.5 2783,-125.5 2929,-125.5 2929,-81.5 2783,-81.5"/>
<text text-anchor="start" x="2791" y="-112.5" font-family="FreeSans" font-size="10.00" fill="#000000">coresoftware/blob/master</text>
<text text-anchor="start" x="2791" y="-100.5" font-family="FreeSans" font-size="10.00" fill="#000000">/offline/framework/phool</text>
<text text-anchor="middle" x="2856" y="-88.5" font-family="FreeSans" font-size="10.00" fill="#000000">/recoConsts.h</text>
</g>
<!-- Node2 -->
<g id="node2" class="node">
<title>Node2</title>
<g id="a_node2"><a xlink:href="../../d4/d0c/Fun4AllHepMCInputManager_8cc.html" target="_top" xlink:title="coresoftware/blob/master\l/generators/phhepmc/Fun4AllHep\lMCInputManager.cc">
<polygon fill="none" stroke="#000000" points="0,-.5 0,-44.5 188,-44.5 188,-.5 0,-.5"/>
<text text-anchor="start" x="8" y="-31.5" font-family="FreeSans" font-size="10.00" fill="#000000">coresoftware/blob/master</text>
<text text-anchor="start" x="8" y="-19.5" font-family="FreeSans" font-size="10.00" fill="#000000">/generators/phhepmc/Fun4AllHep</text>
<text text-anchor="middle" x="94" y="-7.5" font-family="FreeSans" font-size="10.00" fill="#000000">MCInputManager.cc</text>
</a>
</g>
</g>
<!-- Node1&#45;&gt;Node2 -->
<g id="edge1" class="edge">
<title>Node1&#45;&gt;Node2</title>
<path fill="none" stroke="#191970" d="M2772.63,-102.6244C2350.3593,-98.0607 457.4566,-76.018 197,-45 194.092,-44.6537 191.1451,-44.2628 188.1756,-43.8342"/>
<polygon fill="#191970" stroke="#191970" points="2772.8854,-106.1273 2782.9226,-102.7353 2772.9609,-99.1277 2772.8854,-106.1273"/>
</g>
<!-- Node3 -->
<g id="node3" class="node">
<title>Node3</title>
<g id="a_node3"><a xlink:href="../../db/dbe/Fun4AllOscarInputManager_8cc.html" target="_top" xlink:title="coresoftware/blob/master\l/generators/phhepmc/Fun4AllOscar\lInputManager.cc">
<polygon fill="none" stroke="#000000" points="206.5,-.5 206.5,-44.5 403.5,-44.5 403.5,-.5 206.5,-.5"/>
<text text-anchor="start" x="214.5" y="-31.5" font-family="FreeSans" font-size="10.00" fill="#000000">coresoftware/blob/master</text>
<text text-anchor="start" x="214.5" y="-19.5" font-family="FreeSans" font-size="10.00" fill="#000000">/generators/phhepmc/Fun4AllOscar</text>
<text text-anchor="middle" x="305" y="-7.5" font-family="FreeSans" font-size="10.00" fill="#000000">InputManager.cc</text>
</a>
</g>
</g>
<!-- Node1&#45;&gt;Node3 -->
<g id="edge2" class="edge">
<title>Node1&#45;&gt;Node3</title>
<path fill="none" stroke="#191970" d="M2772.936,-102.4169C2372.4235,-97.0727 650.1902,-72.6572 412,-45 409.2659,-44.6825 406.4982,-44.3288 403.7096,-43.9441"/>
<polygon fill="#191970" stroke="#191970" points="2772.9495,-105.9173 2782.9952,-102.5509 2773.0427,-98.9179 2772.9495,-105.9173"/>
</g>
<!-- Node4 -->
<g id="node4" class="node">
<title>Node4</title>
<g id="a_node4"><a xlink:href="../../dd/dec/Fun4AllDummyInputManager_8cc.html" target="_top" xlink:title="coresoftware/blob/master\l/offline/framework/fun4all\l/Fun4AllDummyInputManager.cc">
<polygon fill="none" stroke="#000000" points="421.5,-.5 421.5,-44.5 602.5,-44.5 602.5,-.5 421.5,-.5"/>
<text text-anchor="start" x="429.5" y="-31.5" font-family="FreeSans" font-size="10.00" fill="#000000">coresoftware/blob/master</text>
<text text-anchor="start" x="429.5" y="-19.5" font-family="FreeSans" font-size="10.00" fill="#000000">/offline/framework/fun4all</text>
<text text-anchor="middle" x="512" y="-7.5" font-family="FreeSans" font-size="10.00" fill="#000000">/Fun4AllDummyInputManager.cc</text>
</a>
</g>
</g>
<!-- Node1&#45;&gt;Node4 -->
<g id="edge3" class="edge">
<title>Node1&#45;&gt;Node4</title>
<path fill="none" stroke="#191970" d="M2772.6902,-102.2924C2392.2409,-96.6472 829.1322,-71.9947 612,-45 608.9096,-44.6158 605.7745,-44.179 602.6151,-43.6985"/>
<polygon fill="#191970" stroke="#191970" points="2772.7467,-105.7935 2782.7975,-102.442 2772.8504,-98.7943 2772.7467,-105.7935"/>
</g>
<!-- Node5 -->
<g id="node5" class="node">
<title>Node5</title>
<g id="a_node5"><a xlink:href="../../df/d24/Fun4AllHistoManager_8cc.html" target="_top" xlink:title="coresoftware/blob/master\l/offline/framework/fun4all\l/Fun4AllHistoManager.cc">
<polygon fill="none" stroke="#000000" points="621,-.5 621,-44.5 769,-44.5 769,-.5 621,-.5"/>
<text text-anchor="start" x="629" y="-31.5" font-family="FreeSans" font-size="10.00" fill="#000000">coresoftware/blob/master</text>
<text text-anchor="start" x="629" y="-19.5" font-family="FreeSans" font-size="10.00" fill="#000000">/offline/framework/fun4all</text>
<text text-anchor="middle" x="695" y="-7.5" font-family="FreeSans" font-size="10.00" fill="#000000">/Fun4AllHistoManager.cc</text>
</a>
</g>
</g>
<!-- Node1&#45;&gt;Node5 -->
<g id="edge4" class="edge">
<title>Node1&#45;&gt;Node5</title>
<path fill="none" stroke="#191970" d="M2772.6597,-102.3187C2409.8453,-97.0179 977.312,-74.3963 778,-45 775.046,-44.5643 772.047,-44.0594 769.028,-43.4987"/>
<polygon fill="#191970" stroke="#191970" points="2772.7744,-105.8206 2782.8243,-102.4667 2772.8764,-98.8214 2772.7744,-105.8206"/>
</g>
<!-- Node6 -->
<g id="node6" class="node">
<title>Node6</title>
<g id="a_node6"><a xlink:href="../../d8/d7a/Fun4AllServer_8cc.html" target="_top" xlink:title="coresoftware/blob/master\l/offline/framework/fun4all\l/Fun4AllServer.cc">
<polygon fill="none" stroke="#000000" points="787,-.5 787,-44.5 935,-44.5 935,-.5 787,-.5"/>
<text text-anchor="start" x="795" y="-31.5" font-family="FreeSans" font-size="10.00" fill="#000000">coresoftware/blob/master</text>
<text text-anchor="start" x="795" y="-19.5" font-family="FreeSans" font-size="10.00" fill="#000000">/offline/framework/fun4all</text>
<text text-anchor="middle" x="861" y="-7.5" font-family="FreeSans" font-size="10.00" fill="#000000">/Fun4AllServer.cc</text>
</a>
</g>
</g>
<!-- Node1&#45;&gt;Node6 -->
<g id="edge5" class="edge">
<title>Node1&#45;&gt;Node6</title>
<path fill="none" stroke="#191970" d="M2772.5896,-102.0989C2428.1596,-96.1565 1126.1617,-72.0942 944,-45 941.0465,-44.5607 938.0479,-44.0527 935.0293,-43.4895"/>
<polygon fill="#191970" stroke="#191970" points="2772.6826,-105.6009 2782.7413,-102.2736 2772.8031,-98.6019 2772.6826,-105.6009"/>
</g>
<!-- Node7 -->
<g id="node7" class="node">
<title>Node7</title>
<g id="a_node7"><a xlink:href="../../d8/d3b/Fun4AllPrdfOutputManager_8cc.html" target="_top" xlink:title="coresoftware/blob/master\l/offline/framework/fun4allraw\l/Fun4AllPrdfOutputManager.cc">
<polygon fill="none" stroke="#000000" points="953,-.5 953,-44.5 1123,-44.5 1123,-.5 953,-.5"/>
<text text-anchor="start" x="961" y="-31.5" font-family="FreeSans" font-size="10.00" fill="#000000">coresoftware/blob/master</text>
<text text-anchor="start" x="961" y="-19.5" font-family="FreeSans" font-size="10.00" fill="#000000">/offline/framework/fun4allraw</text>
<text text-anchor="middle" x="1038" y="-7.5" font-family="FreeSans" font-size="10.00" fill="#000000">/Fun4AllPrdfOutputManager.cc</text>
</a>
</g>
</g>
<!-- Node1&#45;&gt;Node7 -->
<g id="edge6" class="edge">
<title>Node1&#45;&gt;Node7</title>
<path fill="none" stroke="#191970" d="M2772.3275,-102.8876C2472.7889,-100.3481 1454.6278,-88.6342 1132,-45 1129.0899,-44.6064 1126.1384,-44.1615 1123.1648,-43.6741"/>
<polygon fill="#191970" stroke="#191970" points="2772.6486,-106.3903 2782.6775,-102.9741 2772.7071,-99.3906 2772.6486,-106.3903"/>
</g>
<!-- Node8 -->
<g id="node8" class="node">
<title>Node8</title>
<g id="a_node8"><a xlink:href="../../d4/d30/PHRandomSeed_8cc.html" target="_top" xlink:title="coresoftware/blob/master\l/offline/framework/phool\l/PHRandomSeed.cc">
<polygon fill="none" stroke="#000000" points="1141,-.5 1141,-44.5 1287,-44.5 1287,-.5 1141,-.5"/>
<text text-anchor="start" x="1149" y="-31.5" font-family="FreeSans" font-size="10.00" fill="#000000">coresoftware/blob/master</text>
<text text-anchor="start" x="1149" y="-19.5" font-family="FreeSans" font-size="10.00" fill="#000000">/offline/framework/phool</text>
<text text-anchor="middle" x="1214" y="-7.5" font-family="FreeSans" font-size="10.00" fill="#000000">/PHRandomSeed.cc</text>
</a>
</g>
</g>
<!-- Node1&#45;&gt;Node8 -->
<g id="edge7" class="edge">
<title>Node1&#45;&gt;Node8</title>
<path fill="none" stroke="#191970" d="M2772.7466,-102.9035C2492.4581,-100.4997 1584.5822,-89.3948 1296,-45 1293.0819,-44.5511 1290.1192,-44.035 1287.1368,-43.4649"/>
<polygon fill="#191970" stroke="#191970" points="2772.8189,-106.4041 2782.8481,-102.9887 2772.878,-99.4044 2772.8189,-106.4041"/>
</g>
<!-- Node9 -->
<g id="node9" class="node">
<title>Node9</title>
<g id="a_node9"><a xlink:href="../../d7/df1/recoConsts_8cc.html" target="_top" xlink:title="coresoftware/blob/master\l/offline/framework/phool\l/recoConsts.cc">
<polygon fill="none" stroke="#000000" points="1305,-.5 1305,-44.5 1451,-44.5 1451,-.5 1305,-.5"/>
<text text-anchor="start" x="1313" y="-31.5" font-family="FreeSans" font-size="10.00" fill="#000000">coresoftware/blob/master</text>
<text text-anchor="start" x="1313" y="-19.5" font-family="FreeSans" font-size="10.00" fill="#000000">/offline/framework/phool</text>
<text text-anchor="middle" x="1378" y="-7.5" font-family="FreeSans" font-size="10.00" fill="#000000">/recoConsts.cc</text>
</a>
</g>
</g>
<!-- Node1&#45;&gt;Node9 -->
<g id="edge8" class="edge">
<title>Node1&#45;&gt;Node9</title>
<path fill="none" stroke="#191970" d="M2772.784,-102.4767C2512.3824,-98.8864 1715.2851,-84.8473 1460,-45 1457.0829,-44.5447 1454.121,-44.0231 1451.1393,-43.4486"/>
<polygon fill="#191970" stroke="#191970" points="2772.8839,-105.9783 2782.9307,-102.615 2772.9794,-98.9789 2772.8839,-105.9783"/>
</g>
<!-- Node10 -->
<g id="node10" class="node">
<title>Node10</title>
<g id="a_node10"><a xlink:href="../../d6/d91/PHGeomUtility_8cc.html" target="_top" xlink:title="coresoftware/blob/master\l/offline/packages/PHGeometry\l/PHGeomUtility.cc">
<polygon fill="none" stroke="#000000" points="1469.5,-.5 1469.5,-44.5 1640.5,-44.5 1640.5,-.5 1469.5,-.5"/>
<text text-anchor="start" x="1477.5" y="-31.5" font-family="FreeSans" font-size="10.00" fill="#000000">coresoftware/blob/master</text>
<text text-anchor="start" x="1477.5" y="-19.5" font-family="FreeSans" font-size="10.00" fill="#000000">/offline/packages/PHGeometry</text>
<text text-anchor="middle" x="1555" y="-7.5" font-family="FreeSans" font-size="10.00" fill="#000000">/PHGeomUtility.cc</text>
</a>
</g>
</g>
<!-- Node1&#45;&gt;Node10 -->
<g id="edge9" class="edge">
<title>Node1&#45;&gt;Node10</title>
<path fill="none" stroke="#191970" d="M2772.5671,-101.4834C2536.4435,-95.4537 1866.5685,-76.0342 1649,-45 1646.259,-44.609 1643.4808,-44.175 1640.6816,-43.705"/>
<polygon fill="#191970" stroke="#191970" points="2772.7217,-104.9883 2782.8074,-101.7434 2772.8995,-97.9906 2772.7217,-104.9883"/>
</g>
<!-- Node11 -->
<g id="node11" class="node">
<title>Node11</title>
<g id="a_node11"><a xlink:href="../../d2/d09/HepMCNodeReader_8cc.html" target="_top" xlink:title="coresoftware/blob/master\l/simulation/g4simulation\l/g4main/HepMCNodeReader.cc">
<polygon fill="none" stroke="#000000" points="1658.5,-.5 1658.5,-44.5 1831.5,-44.5 1831.5,-.5 1658.5,-.5"/>
<text text-anchor="start" x="1666.5" y="-31.5" font-family="FreeSans" font-size="10.00" fill="#000000">coresoftware/blob/master</text>
<text text-anchor="start" x="1666.5" y="-19.5" font-family="FreeSans" font-size="10.00" fill="#000000">/simulation/g4simulation</text>
<text text-anchor="middle" x="1745" y="-7.5" font-family="FreeSans" font-size="10.00" fill="#000000">/g4main/HepMCNodeReader.cc</text>
</a>
</g>
</g>
<!-- Node1&#45;&gt;Node11 -->
<g id="edge10" class="edge">
<title>Node1&#45;&gt;Node11</title>
<path fill="none" stroke="#191970" d="M2772.8628,-100.5918C2563.6541,-92.9716 2019.3194,-71.1917 1840,-45 1837.2327,-44.5958 1834.4275,-44.1502 1831.6008,-43.6703"/>
<polygon fill="#191970" stroke="#191970" points="2772.7485,-104.0899 2782.8688,-100.9548 2773.0023,-97.0945 2772.7485,-104.0899"/>
</g>
<!-- Node12 -->
<g id="node12" class="node">
<title>Node12</title>
<g id="a_node12"><a xlink:href="../../d9/d93/PHG4PhenixDetector_8cc.html" target="_top" xlink:title="coresoftware/blob/master\l/simulation/g4simulation\l/g4main/PHG4PhenixDetector.cc">
<polygon fill="none" stroke="#000000" points="1849.5,-.5 1849.5,-44.5 2030.5,-44.5 2030.5,-.5 1849.5,-.5"/>
<text text-anchor="start" x="1857.5" y="-31.5" font-family="FreeSans" font-size="10.00" fill="#000000">coresoftware/blob/master</text>
<text text-anchor="start" x="1857.5" y="-19.5" font-family="FreeSans" font-size="10.00" fill="#000000">/simulation/g4simulation</text>
<text text-anchor="middle" x="1940" y="-7.5" font-family="FreeSans" font-size="10.00" fill="#000000">/g4main/PHG4PhenixDetector.cc</text>
</a>
</g>
</g>
<!-- Node1&#45;&gt;Node12 -->
<g id="edge11" class="edge">
<title>Node1&#45;&gt;Node12</title>
<path fill="none" stroke="#191970" d="M2772.3521,-101.6312C2624.0671,-97.4012 2305.6861,-84.188 2040,-45 2036.9192,-44.5456 2033.7923,-44.0482 2030.64,-43.5157"/>
<polygon fill="#191970" stroke="#191970" points="2772.6379,-105.1404 2782.7316,-101.9204 2772.833,-98.1431 2772.6379,-105.1404"/>
</g>
<!-- Node13 -->
<g id="node13" class="node">
<title>Node13</title>
<g id="a_node13"><a xlink:href="../../d2/dcb/PHG4Reco_8cc.html" target="_top" xlink:title="coresoftware/blob/master\l/simulation/g4simulation\l/g4main/PHG4Reco.cc">
<polygon fill="none" stroke="#000000" points="2049,-.5 2049,-44.5 2195,-44.5 2195,-.5 2049,-.5"/>
<text text-anchor="start" x="2057" y="-31.5" font-family="FreeSans" font-size="10.00" fill="#000000">coresoftware/blob/master</text>
<text text-anchor="start" x="2057" y="-19.5" font-family="FreeSans" font-size="10.00" fill="#000000">/simulation/g4simulation</text>
<text text-anchor="middle" x="2122" y="-7.5" font-family="FreeSans" font-size="10.00" fill="#000000">/g4main/PHG4Reco.cc</text>
</a>
</g>
</g>
<!-- Node1&#45;&gt;Node13 -->
<g id="edge12" class="edge">
<title>Node1&#45;&gt;Node13</title>
<path fill="none" stroke="#191970" d="M2772.3494,-100.7626C2647.6622,-95.6098 2406.0633,-81.4859 2204,-45 2201.0945,-44.4754 2198.1425,-43.8954 2195.1691,-43.2719"/>
<polygon fill="#191970" stroke="#191970" points="2772.4514,-104.2695 2782.5846,-101.1762 2772.7341,-97.2752 2772.4514,-104.2695"/>
</g>
<!-- Node14 -->
<g id="node14" class="node">
<title>Node14</title>
<g id="a_node14"><a xlink:href="../../da/d02/Fun4All__G4__EICDetector_8C.html" target="_top" xlink:title="macros/blob/master\l/macros/g4simulations\l/Fun4All_G4_EICDetector.C">
<polygon fill="none" stroke="#000000" points="2213,-.5 2213,-44.5 2365,-44.5 2365,-.5 2213,-.5"/>
<text text-anchor="start" x="2221" y="-31.5" font-family="FreeSans" font-size="10.00" fill="#000000">macros/blob/master</text>
<text text-anchor="start" x="2221" y="-19.5" font-family="FreeSans" font-size="10.00" fill="#000000">/macros/g4simulations</text>
<text text-anchor="middle" x="2289" y="-7.5" font-family="FreeSans" font-size="10.00" fill="#000000">/Fun4All_G4_EICDetector.C</text>
</a>
</g>
</g>
<!-- Node1&#45;&gt;Node14 -->
<g id="edge13" class="edge">
<title>Node1&#45;&gt;Node14</title>
<path fill="none" stroke="#191970" d="M2772.8497,-96.9196C2676.3521,-88.4733 2512.7164,-71.6455 2374,-45 2371.1517,-44.4529 2368.2579,-43.863 2365.3412,-43.2398"/>
<polygon fill="#191970" stroke="#191970" points="2772.5735,-100.4087 2782.8383,-97.7849 2773.1777,-93.4348 2772.5735,-100.4087"/>
</g>
<!-- Node15 -->
<g id="node15" class="node">
<title>Node15</title>
<g id="a_node15"><a xlink:href="../../d7/d9e/Fun4All__G4__fsPHENIX_8C.html" target="_top" xlink:title="macros/blob/master\l/macros/g4simulations\l/Fun4All_G4_fsPHENIX.C">
<polygon fill="none" stroke="#000000" points="2383.5,-.5 2383.5,-44.5 2522.5,-44.5 2522.5,-.5 2383.5,-.5"/>
<text text-anchor="start" x="2391.5" y="-31.5" font-family="FreeSans" font-size="10.00" fill="#000000">macros/blob/master</text>
<text text-anchor="start" x="2391.5" y="-19.5" font-family="FreeSans" font-size="10.00" fill="#000000">/macros/g4simulations</text>
<text text-anchor="middle" x="2453" y="-7.5" font-family="FreeSans" font-size="10.00" fill="#000000">/Fun4All_G4_fsPHENIX.C</text>
</a>
</g>
</g>
<!-- Node1&#45;&gt;Node15 -->
<g id="edge14" class="edge">
<title>Node1&#45;&gt;Node15</title>
<path fill="none" stroke="#191970" d="M2773.027,-90.9772C2707.0679,-80.4432 2612.6439,-64.0703 2531,-45 2528.2551,-44.3589 2525.4631,-43.6806 2522.6479,-42.9748"/>
<polygon fill="#191970" stroke="#191970" points="2772.5293,-94.4419 2782.9543,-92.5528 2773.6267,-87.5284 2772.5293,-94.4419"/>
</g>
<!-- Node16 -->
<g id="node16" class="node">
<title>Node16</title>
<g id="a_node16"><a xlink:href="../../d5/d2c/macros_2blob_2master_2macros_2g4simulations_2Fun4All__G4__sPHENIX_8C.html" target="_top" xlink:title="macros/blob/master\l/macros/g4simulations\l/Fun4All_G4_sPHENIX.C">
<polygon fill="none" stroke="#000000" points="2540.5,-.5 2540.5,-44.5 2675.5,-44.5 2675.5,-.5 2540.5,-.5"/>
<text text-anchor="start" x="2548.5" y="-31.5" font-family="FreeSans" font-size="10.00" fill="#000000">macros/blob/master</text>
<text text-anchor="start" x="2548.5" y="-19.5" font-family="FreeSans" font-size="10.00" fill="#000000">/macros/g4simulations</text>
<text text-anchor="middle" x="2608" y="-7.5" font-family="FreeSans" font-size="10.00" fill="#000000">/Fun4All_G4_sPHENIX.C</text>
</a>
</g>
</g>
<!-- Node1&#45;&gt;Node16 -->
<g id="edge15" class="edge">
<title>Node1&#45;&gt;Node16</title>
<path fill="none" stroke="#191970" d="M2778.9133,-78.3225C2745.7813,-67.5012 2707.4082,-54.968 2675.4261,-44.5222"/>
<polygon fill="#191970" stroke="#191970" points="2777.968,-81.6956 2788.5605,-81.4734 2780.1413,-75.0416 2777.968,-81.6956"/>
</g>
<!-- Node17 -->
<g id="node17" class="node">
<title>Node17</title>
<g id="a_node17"><a xlink:href="../../de/da9/ReadClustersRunTracking_8C.html" target="_top" xlink:title="macros/blob/master\l/macros/g4simulations\l/ReadClustersRunTracking.C">
<polygon fill="none" stroke="#000000" points="2693.5,-.5 2693.5,-44.5 2852.5,-44.5 2852.5,-.5 2693.5,-.5"/>
<text text-anchor="start" x="2701.5" y="-31.5" font-family="FreeSans" font-size="10.00" fill="#000000">macros/blob/master</text>
<text text-anchor="start" x="2701.5" y="-19.5" font-family="FreeSans" font-size="10.00" fill="#000000">/macros/g4simulations</text>
<text text-anchor="middle" x="2773" y="-7.5" font-family="FreeSans" font-size="10.00" fill="#000000">/ReadClustersRunTracking.C</text>
</a>
</g>
</g>
<!-- Node1&#45;&gt;Node17 -->
<g id="edge16" class="edge">
<title>Node1&#45;&gt;Node17</title>
<path fill="none" stroke="#191970" d="M2825.9118,-74.1368C2815.9249,-64.3906 2804.9821,-53.7114 2795.6527,-44.6068"/>
<polygon fill="#191970" stroke="#191970" points="2823.7186,-76.8869 2833.3199,-81.3664 2828.6076,-71.8772 2823.7186,-76.8869"/>
</g>
<!-- Node18 -->
<g id="node18" class="node">
<title>Node18</title>
<g id="a_node18"><a xlink:href="../../da/df5/PHPythia6_8C.html" target="_top" xlink:title="analysis/blob/master\l/EICTrigger/PHPythia6.C">
<polygon fill="none" stroke="#000000" points="2870.5,-6.5 2870.5,-38.5 3007.5,-38.5 3007.5,-6.5 2870.5,-6.5"/>
<text text-anchor="start" x="2878.5" y="-25.5" font-family="FreeSans" font-size="10.00" fill="#000000">analysis/blob/master</text>
<text text-anchor="middle" x="2939" y="-13.5" font-family="FreeSans" font-size="10.00" fill="#000000">/EICTrigger/PHPythia6.C</text>
</a>
</g>
</g>
<!-- Node1&#45;&gt;Node18 -->
<g id="edge17" class="edge">
<title>Node1&#45;&gt;Node18</title>
<path fill="none" stroke="#191970" d="M2886.0786,-74.1462C2898.3279,-62.1921 2912.0168,-48.833 2922.4032,-38.6969"/>
<polygon fill="#191970" stroke="#191970" points="2883.3924,-71.8772 2878.6801,-81.3664 2888.2814,-76.8869 2883.3924,-71.8772"/>
</g>
<!-- Node19 -->
<g id="node19" class="node">
<title>Node19</title>
<g id="a_node19"><a xlink:href="../../de/d55/Fun4All__G4__block_8C.html" target="_top" xlink:title="tutorials/blob/master\l/block/Fun4All_G4_block.C">
<polygon fill="none" stroke="#000000" points="3026,-6.5 3026,-38.5 3176,-38.5 3176,-6.5 3026,-6.5"/>
<text text-anchor="start" x="3034" y="-25.5" font-family="FreeSans" font-size="10.00" fill="#000000">tutorials/blob/master</text>
<text text-anchor="middle" x="3101" y="-13.5" font-family="FreeSans" font-size="10.00" fill="#000000">/block/Fun4All_G4_block.C</text>
</a>
</g>
</g>
<!-- Node1&#45;&gt;Node19 -->
<g id="edge18" class="edge">
<title>Node1&#45;&gt;Node19</title>
<path fill="none" stroke="#191970" d="M2932.4037,-78.24C2971.5416,-65.3005 3018.0291,-49.9312 3052.2669,-38.6118"/>
<polygon fill="#191970" stroke="#191970" points="2931.0196,-75.0112 2922.6237,-81.4734 2933.2169,-81.6574 2931.0196,-75.0112"/>
</g>
<!-- Node20 -->
<g id="node20" class="node">
<title>Node20</title>
<g id="a_node20"><a xlink:href="../../d2/dee/Fun4All__G4__Cylinder_8C.html" target="_top" xlink:title="tutorials/blob/master\l/cylinder/Fun4All_G4\l_Cylinder.C">
<polygon fill="none" stroke="#000000" points="3194.5,-.5 3194.5,-44.5 3317.5,-44.5 3317.5,-.5 3194.5,-.5"/>
<text text-anchor="start" x="3202.5" y="-31.5" font-family="FreeSans" font-size="10.00" fill="#000000">tutorials/blob/master</text>
<text text-anchor="start" x="3202.5" y="-19.5" font-family="FreeSans" font-size="10.00" fill="#000000">/cylinder/Fun4All_G4</text>
<text text-anchor="middle" x="3256" y="-7.5" font-family="FreeSans" font-size="10.00" fill="#000000">_Cylinder.C</text>
</a>
</g>
</g>
<!-- Node1&#45;&gt;Node20 -->
<g id="edge19" class="edge">
<title>Node1&#45;&gt;Node20</title>
<path fill="none" stroke="#191970" d="M2939.1658,-91.7952C3006.0618,-81.6426 3102.2176,-65.3838 3185,-45 3188.0133,-44.258 3191.0857,-43.4574 3194.1795,-42.6157"/>
<polygon fill="#191970" stroke="#191970" points="2938.4683,-88.3607 2929.1007,-93.3102 2939.5102,-95.2827 2938.4683,-88.3607"/>
</g>
<!-- Node21 -->
<g id="node21" class="node">
<title>Node21</title>
<g id="a_node21"><a xlink:href="../../d4/dfa/Fun4All__Generator__Display_8C.html" target="_top" xlink:title="tutorials/blob/master\l/eventgenerator_display\l/Fun4All_Generator_Display.C">
<polygon fill="none" stroke="#000000" points="3335.5,-.5 3335.5,-44.5 3500.5,-44.5 3500.5,-.5 3335.5,-.5"/>
<text text-anchor="start" x="3343.5" y="-31.5" font-family="FreeSans" font-size="10.00" fill="#000000">tutorials/blob/master</text>
<text text-anchor="start" x="3343.5" y="-19.5" font-family="FreeSans" font-size="10.00" fill="#000000">/eventgenerator_display</text>
<text text-anchor="middle" x="3418" y="-7.5" font-family="FreeSans" font-size="10.00" fill="#000000">/Fun4All_Generator_Display.C</text>
</a>
</g>
</g>
<!-- Node1&#45;&gt;Node21 -->
<g id="edge20" class="edge">
<title>Node1&#45;&gt;Node21</title>
<path fill="none" stroke="#191970" d="M2939.0962,-96.1922C3033.5585,-87.188 3192.148,-69.9545 3327,-45 3329.7205,-44.4966 3332.4809,-43.9608 3335.264,-43.3992"/>
<polygon fill="#191970" stroke="#191970" points="2938.6563,-92.7181 2929.03,-97.1437 2939.315,-99.687 2938.6563,-92.7181"/>
</g>
<!-- Node22 -->
<g id="node22" class="node">
<title>Node22</title>
<g id="a_node22"><a xlink:href="../../d9/d8f/Fun4All__G4__Momentum_8C.html" target="_top" xlink:title="tutorials/blob/master\l/Momentum/Fun4All_G4\l_Momentum.C">
<polygon fill="none" stroke="#000000" points="3519,-.5 3519,-44.5 3657,-44.5 3657,-.5 3519,-.5"/>
<text text-anchor="start" x="3527" y="-31.5" font-family="FreeSans" font-size="10.00" fill="#000000">tutorials/blob/master</text>
<text text-anchor="start" x="3527" y="-19.5" font-family="FreeSans" font-size="10.00" fill="#000000">/Momentum/Fun4All_G4</text>
<text text-anchor="middle" x="3588" y="-7.5" font-family="FreeSans" font-size="10.00" fill="#000000">_Momentum.C</text>
</a>
</g>
</g>
<!-- Node1&#45;&gt;Node22 -->
<g id="edge21" class="edge">
<title>Node1&#45;&gt;Node22</title>
<path fill="none" stroke="#191970" d="M2939.4655,-101.1462C3064.467,-96.4725 3307.2871,-82.9409 3510,-45 3512.9092,-44.4555 3515.866,-43.8489 3518.8429,-43.1941"/>
<polygon fill="#191970" stroke="#191970" points="2939.0721,-97.6581 2929.2061,-101.5197 2939.3268,-104.6535 2939.0721,-97.6581"/>
</g>
<!-- Node23 -->
<g id="node23" class="node">
<title>Node23</title>
<g id="a_node23"><a xlink:href="../../d6/dc1/MakeTree_8C.html" target="_top" xlink:title="tutorials/blob/master\l/MyOwnTTree/macro/MakeTree.C">
<polygon fill="none" stroke="#000000" points="3675.5,-6.5 3675.5,-38.5 3856.5,-38.5 3856.5,-6.5 3675.5,-6.5"/>
<text text-anchor="start" x="3683.5" y="-25.5" font-family="FreeSans" font-size="10.00" fill="#000000">tutorials/blob/master</text>
<text text-anchor="middle" x="3766" y="-13.5" font-family="FreeSans" font-size="10.00" fill="#000000">/MyOwnTTree/macro/MakeTree.C</text>
</a>
</g>
</g>
<!-- Node1&#45;&gt;Node23 -->
<g id="edge22" class="edge">
<title>Node1&#45;&gt;Node23</title>
<path fill="none" stroke="#191970" d="M2939.3182,-101.5783C3086.6356,-97.2705 3402.438,-83.9459 3666,-45 3677.5306,-43.2962 3689.7072,-40.9913 3701.4444,-38.5044"/>
<polygon fill="#191970" stroke="#191970" points="2938.9014,-98.0887 2929.0055,-101.8732 2939.1015,-105.0859 2938.9014,-98.0887"/>
</g>
<!-- Node24 -->
<g id="node24" class="node">
<title>Node24</title>
<g id="a_node24"><a xlink:href="../../de/dcb/RunBoth_8C.html" target="_top" xlink:title="tutorials/blob/master\l/MyOwnTTree/macro/RunBoth.C">
<polygon fill="none" stroke="#000000" points="3875,-6.5 3875,-38.5 4051,-38.5 4051,-6.5 3875,-6.5"/>
<text text-anchor="start" x="3883" y="-25.5" font-family="FreeSans" font-size="10.00" fill="#000000">tutorials/blob/master</text>
<text text-anchor="middle" x="3963" y="-13.5" font-family="FreeSans" font-size="10.00" fill="#000000">/MyOwnTTree/macro/RunBoth.C</text>
</a>
</g>
</g>
<!-- Node1&#45;&gt;Node24 -->
<g id="edge23" class="edge">
<title>Node1&#45;&gt;Node24</title>
<path fill="none" stroke="#191970" d="M2939.3239,-100.5027C3147.7811,-92.71 3687.876,-70.6272 3866,-45 3877.3789,-43.3629 3889.3916,-41.058 3900.9408,-38.5428"/>
<polygon fill="#191970" stroke="#191970" points="2938.9162,-97.0154 2929.0534,-100.8851 2939.1767,-104.0105 2938.9162,-97.0154"/>
</g>
<!-- Node25 -->
<g id="node25" class="node">
<title>Node25</title>
<g id="a_node25"><a xlink:href="../../dc/d8e/Fun4All__G4__Prototype2_8C.html" target="_top" xlink:title="prototype/blob/master\l/macros/prototype2/Fun4All\l_G4_Prototype2.C">
<polygon fill="none" stroke="#000000" points="4069.5,-.5 4069.5,-44.5 4226.5,-44.5 4226.5,-.5 4069.5,-.5"/>
<text text-anchor="start" x="4077.5" y="-31.5" font-family="FreeSans" font-size="10.00" fill="#000000">prototype/blob/master</text>
<text text-anchor="start" x="4077.5" y="-19.5" font-family="FreeSans" font-size="10.00" fill="#000000">/macros/prototype2/Fun4All</text>
<text text-anchor="middle" x="4148" y="-7.5" font-family="FreeSans" font-size="10.00" fill="#000000">_G4_Prototype2.C</text>
</a>
</g>
</g>
<!-- Node1&#45;&gt;Node25 -->
<g id="edge24" class="edge">
<title>Node1&#45;&gt;Node25</title>
<path fill="none" stroke="#191970" d="M2939.2498,-101.642C3174.8513,-96.0362 3843.2174,-77.6381 4060,-45 4063.1187,-44.5305 4066.2872,-43.997 4069.4787,-43.4123"/>
<polygon fill="#191970" stroke="#191970" points="2938.9466,-98.1481 2929.0322,-101.8836 2939.1121,-105.1462 2938.9466,-98.1481"/>
</g>
<!-- Node26 -->
<g id="node26" class="node">
<title>Node26</title>
<g id="a_node26"><a xlink:href="../../d5/d60/prototype_2blob_2master_2macros_2prototype2_2Fun4All__TestBeam_8C.html" target="_top" xlink:title="prototype/blob/master\l/macros/prototype2/Fun4All\l_TestBeam.C">
<polygon fill="none" stroke="#000000" points="4244.5,-.5 4244.5,-44.5 4401.5,-44.5 4401.5,-.5 4244.5,-.5"/>
<text text-anchor="start" x="4252.5" y="-31.5" font-family="FreeSans" font-size="10.00" fill="#000000">prototype/blob/master</text>
<text text-anchor="start" x="4252.5" y="-19.5" font-family="FreeSans" font-size="10.00" fill="#000000">/macros/prototype2/Fun4All</text>
<text text-anchor="middle" x="4323" y="-7.5" font-family="FreeSans" font-size="10.00" fill="#000000">_TestBeam.C</text>
</a>
</g>
</g>
<!-- Node1&#45;&gt;Node26 -->
<g id="edge25" class="edge">
<title>Node1&#45;&gt;Node26</title>
<path fill="none" stroke="#191970" d="M2939.1349,-102.2717C3197.4094,-98.0938 3983.6542,-82.5503 4236,-45 4238.7776,-44.5867 4241.5947,-44.1202 4244.4321,-43.6102"/>
<polygon fill="#191970" stroke="#191970" points="2939.0113,-98.7732 2929.0687,-102.4331 2939.1235,-105.7723 2939.0113,-98.7732"/>
</g>
<!-- Node27 -->
<g id="node27" class="node">
<title>Node27</title>
<g id="a_node27"><a xlink:href="../../d7/d40/Fun4All__G4__Prototype3_8C.html" target="_top" xlink:title="prototype/blob/master\l/macros/prototype3/Fun4All\l_G4_Prototype3.C">
<polygon fill="none" stroke="#000000" points="4419.5,-.5 4419.5,-44.5 4576.5,-44.5 4576.5,-.5 4419.5,-.5"/>
<text text-anchor="start" x="4427.5" y="-31.5" font-family="FreeSans" font-size="10.00" fill="#000000">prototype/blob/master</text>
<text text-anchor="start" x="4427.5" y="-19.5" font-family="FreeSans" font-size="10.00" fill="#000000">/macros/prototype3/Fun4All</text>
<text text-anchor="middle" x="4498" y="-7.5" font-family="FreeSans" font-size="10.00" fill="#000000">_G4_Prototype3.C</text>
</a>
</g>
</g>
<!-- Node1&#45;&gt;Node27 -->
<g id="edge26" class="edge">
<title>Node1&#45;&gt;Node27</title>
<path fill="none" stroke="#191970" d="M2939.4435,-102.7297C3219.3132,-99.7747 4123.191,-87.127 4411,-45 4413.7786,-44.5933 4416.5966,-44.1325 4419.4346,-43.6274"/>
<polygon fill="#191970" stroke="#191970" points="2939.3189,-99.2307 2929.3559,-102.8348 2939.3919,-106.2303 2939.3189,-99.2307"/>
</g>
<!-- Node28 -->
<g id="node28" class="node">
<title>Node28</title>
<g id="a_node28"><a xlink:href="../../dc/d42/prototype_2blob_2master_2macros_2prototype3_2Fun4All__TestBeam_8C.html" target="_top" xlink:title="prototype/blob/master\l/macros/prototype3/Fun4All\l_TestBeam.C">
<polygon fill="none" stroke="#000000" points="4594.5,-.5 4594.5,-44.5 4751.5,-44.5 4751.5,-.5 4594.5,-.5"/>
<text text-anchor="start" x="4602.5" y="-31.5" font-family="FreeSans" font-size="10.00" fill="#000000">prototype/blob/master</text>
<text text-anchor="start" x="4602.5" y="-19.5" font-family="FreeSans" font-size="10.00" fill="#000000">/macros/prototype3/Fun4All</text>
<text text-anchor="middle" x="4673" y="-7.5" font-family="FreeSans" font-size="10.00" fill="#000000">_TestBeam.C</text>
</a>
</g>
</g>
<!-- Node1&#45;&gt;Node28 -->
<g id="edge27" class="edge">
<title>Node1&#45;&gt;Node28</title>
<path fill="none" stroke="#191970" d="M2939.4798,-103.0996C3239.5064,-101.2831 4262.4745,-91.7271 4586,-45 4588.7794,-44.5986 4591.598,-44.1424 4594.4366,-43.6411"/>
<polygon fill="#191970" stroke="#191970" points="2939.0933,-99.6018 2929.1142,-103.161 2939.1348,-106.6016 2939.0933,-99.6018"/>
</g>
<!-- Node29 -->
<g id="node29" class="node">
<title>Node29</title>
<g id="a_node29"><a xlink:href="../../d4/d58/Fun4All__G4__Prototype4_8C.html" target="_top" xlink:title="prototype/blob/master\l/macros/prototype4/Fun4All\l_G4_Prototype4.C">
<polygon fill="none" stroke="#000000" points="4769.5,-.5 4769.5,-44.5 4926.5,-44.5 4926.5,-.5 4769.5,-.5"/>
<text text-anchor="start" x="4777.5" y="-31.5" font-family="FreeSans" font-size="10.00" fill="#000000">prototype/blob/master</text>
<text text-anchor="start" x="4777.5" y="-19.5" font-family="FreeSans" font-size="10.00" fill="#000000">/macros/prototype4/Fun4All</text>
<text text-anchor="middle" x="4848" y="-7.5" font-family="FreeSans" font-size="10.00" fill="#000000">_G4_Prototype4.C</text>
</a>
</g>
</g>
<!-- Node1&#45;&gt;Node29 -->
<g id="edge28" class="edge">
<title>Node1&#45;&gt;Node29</title>
<path fill="none" stroke="#191970" d="M2939.3842,-102.0324C3282.9566,-95.8365 4579.4025,-70.9407 4761,-45 4763.78,-44.6029 4766.5991,-44.1504 4769.4382,-43.6522"/>
<polygon fill="#191970" stroke="#191970" points="2939.1924,-98.5352 2929.257,-102.2146 2939.3184,-105.5341 2939.1924,-98.5352"/>
</g>
<!-- Node30 -->
<g id="node30" class="node">
<title>Node30</title>
<g id="a_node30"><a xlink:href="../../d7/d66/prototype_2blob_2master_2macros_2prototype4_2Fun4All__TestBeam_8C.html" target="_top" xlink:title="prototype/blob/master\l/macros/prototype4/Fun4All\l_TestBeam.C">
<polygon fill="none" stroke="#000000" points="4944.5,-.5 4944.5,-44.5 5101.5,-44.5 5101.5,-.5 4944.5,-.5"/>
<text text-anchor="start" x="4952.5" y="-31.5" font-family="FreeSans" font-size="10.00" fill="#000000">prototype/blob/master</text>
<text text-anchor="start" x="4952.5" y="-19.5" font-family="FreeSans" font-size="10.00" fill="#000000">/macros/prototype4/Fun4All</text>
<text text-anchor="middle" x="5023" y="-7.5" font-family="FreeSans" font-size="10.00" fill="#000000">_TestBeam.C</text>
</a>
</g>
</g>
<!-- Node1&#45;&gt;Node30 -->
<g id="edge29" class="edge">
<title>Node1&#45;&gt;Node30</title>
<path fill="none" stroke="#191970" d="M2939.4123,-102.263C3302.5411,-96.7274 4736.328,-73.2597 4936,-45 4938.7805,-44.6065 4941.6001,-44.1571 4944.4395,-43.6615"/>
<polygon fill="#191970" stroke="#191970" points="2939.1844,-98.766 2929.2388,-102.4177 2939.2909,-105.7652 2939.1844,-98.766"/>
</g>
<!-- Node31 -->
<g id="node31" class="node">
<title>Node31</title>
<g id="a_node31"><a xlink:href="../../db/d89/ConstructGeometry_8C.html" target="_top" xlink:title="prototype/blob/master\l/macros/tpc2019/ConstructGeometry.C">
<polygon fill="none" stroke="#000000" points="5120,-6.5 5120,-38.5 5334,-38.5 5334,-6.5 5120,-6.5"/>
<text text-anchor="start" x="5128" y="-25.5" font-family="FreeSans" font-size="10.00" fill="#000000">prototype/blob/master</text>
<text text-anchor="middle" x="5227" y="-13.5" font-family="FreeSans" font-size="10.00" fill="#000000">/macros/tpc2019/ConstructGeometry.C</text>
</a>
</g>
</g>
<!-- Node1&#45;&gt;Node31 -->
<g id="edge30" class="edge">
<title>Node1&#45;&gt;Node31</title>
<path fill="none" stroke="#191970" d="M2939.2252,-103.1876C3293.5219,-101.5731 4677.7844,-92.3039 5111,-45 5125.0712,-43.4635 5139.9842,-41.1208 5154.263,-38.5179"/>
<polygon fill="#191970" stroke="#191970" points="2939.0297,-99.6883 2929.0455,-103.2332 2939.0611,-106.6883 2939.0297,-99.6883"/>
</g>
<!-- Node32 -->
<g id="node32" class="node">
<title>Node32</title>
<g id="a_node32"><a xlink:href="../../db/da1/Fun4All__G4__TPC_8C.html" target="_top" xlink:title="prototype/blob/master\l/macros/tpc2019/Fun4All\l_G4_TPC.C">
<polygon fill="none" stroke="#000000" points="5352.5,-.5 5352.5,-44.5 5495.5,-44.5 5495.5,-.5 5352.5,-.5"/>
<text text-anchor="start" x="5360.5" y="-31.5" font-family="FreeSans" font-size="10.00" fill="#000000">prototype/blob/master</text>
<text text-anchor="start" x="5360.5" y="-19.5" font-family="FreeSans" font-size="10.00" fill="#000000">/macros/tpc2019/Fun4All</text>
<text text-anchor="middle" x="5424" y="-7.5" font-family="FreeSans" font-size="10.00" fill="#000000">_G4_TPC.C</text>
</a>
</g>
</g>
<!-- Node1&#45;&gt;Node32 -->
<g id="edge31" class="edge">
<title>Node1&#45;&gt;Node32</title>
<path fill="none" stroke="#191970" d="M2939.2304,-102.7648C3344.4745,-99.0207 5101.3682,-80.8353 5343,-45 5346.0318,-44.5504 5349.1112,-44.0231 5352.2101,-43.434"/>
<polygon fill="#191970" stroke="#191970" points="2939.023,-99.2665 2929.0556,-102.8584 2939.0874,-106.2662 2939.023,-99.2665"/>
</g>
<!-- Node33 -->
<g id="node33" class="node">
<title>Node33</title>
<g id="a_node33"><a xlink:href="../../df/d20/Fun4All__TestBeam__TPC_8C.html" target="_top" xlink:title="prototype/blob/master\l/macros/tpc2019/Fun4All\l_TestBeam_TPC.C">
<polygon fill="none" stroke="#000000" points="5513.5,-.5 5513.5,-44.5 5656.5,-44.5 5656.5,-.5 5513.5,-.5"/>
<text text-anchor="start" x="5521.5" y="-31.5" font-family="FreeSans" font-size="10.00" fill="#000000">prototype/blob/master</text>
<text text-anchor="start" x="5521.5" y="-19.5" font-family="FreeSans" font-size="10.00" fill="#000000">/macros/tpc2019/Fun4All</text>
<text text-anchor="middle" x="5585" y="-7.5" font-family="FreeSans" font-size="10.00" fill="#000000">_TestBeam_TPC.C</text>
</a>
</g>
</g>
<!-- Node1&#45;&gt;Node33 -->
<g id="edge32" class="edge">
<title>Node1&#45;&gt;Node33</title>
<path fill="none" stroke="#191970" d="M2939.4402,-102.9079C3360.9991,-99.7486 5246.6209,-83.5545 5505,-45 5507.7113,-44.5954 5510.4607,-44.127 5513.2278,-43.6064"/>
<polygon fill="#191970" stroke="#191970" points="2939.1377,-99.41 2929.1641,-102.9845 2939.1899,-106.4098 2939.1377,-99.41"/>
</g>
</g>
</svg>
