<?xml version="1.0" encoding="UTF-8" standalone="no"?>
<!DOCTYPE svg PUBLIC "-//W3C//DTD SVG 1.1//EN"
 "http://www.w3.org/Graphics/SVG/1.1/DTD/svg11.dtd">
<!-- Generated by graphviz version 2.40.1 (20161225.0304)
 -->
<!-- Title: Tracking_Clus Pages: 1 -->
<svg width="254pt" height="68pt"
 viewBox="0.00 0.00 254.00 68.00" xmlns="http://www.w3.org/2000/svg" xmlns:xlink="http://www.w3.org/1999/xlink">
<g id="graph0" class="graph" transform="scale(1 1) rotate(0) translate(4 64)">
<title>Tracking_Clus</title>
<!-- Node1 -->
<g id="node1" class="node">
<title>Node1</title>
<polygon fill="#bfbfbf" stroke="#000000" points="0,-19.5 0,-39.5 86,-39.5 86,-19.5 0,-19.5"/>
<text text-anchor="middle" x="43" y="-26.5" font-family="FreeSans" font-size="10.00" fill="#000000">Tracking_Clus</text>
</g>
<!-- Node2 -->
<g id="node2" class="node">
<title>Node2</title>
<g id="a_node2"><a xlink:href="../../d7/d9e/Fun4All__G4__fsPHENIX_8C.html#af48911d394d2412e817583700f2bbee2" target="_top" xlink:title="Fun4All_G4_fsPHENIX">
<polygon fill="none" stroke="#000000" points="122,-39.5 122,-59.5 246,-59.5 246,-39.5 122,-39.5"/>
<text text-anchor="middle" x="184" y="-46.5" font-family="FreeSans" font-size="10.00" fill="#000000">Fun4All_G4_fsPHENIX</text>
</a>
</g>
</g>
<!-- Node1&#45;&gt;Node2 -->
<g id="edge1" class="edge">
<title>Node1&#45;&gt;Node2</title>
<path fill="none" stroke="#191970" d="M96.149,-37.0389C104.5839,-38.2353 113.3721,-39.4819 121.9886,-40.7041"/>
<polygon fill="#191970" stroke="#191970" points="96.4633,-33.5485 86.0708,-35.6093 95.4801,-40.4791 96.4633,-33.5485"/>
</g>
<!-- Node3 -->
<g id="node3" class="node">
<title>Node3</title>
<g id="a_node3"><a xlink:href="../../d5/d2c/macros_2blob_2master_2macros_2g4simulations_2Fun4All__G4__sPHENIX_8C.html#a6eaaa492d7023ec86c562dc63aa1e5a4" target="_top" xlink:title="Fun4All_G4_sPHENIX">
<polygon fill="none" stroke="#000000" points="123.5,-.5 123.5,-20.5 244.5,-20.5 244.5,-.5 123.5,-.5"/>
<text text-anchor="middle" x="184" y="-7.5" font-family="FreeSans" font-size="10.00" fill="#000000">Fun4All_G4_sPHENIX</text>
</a>
</g>
</g>
<!-- Node1&#45;&gt;Node3 -->
<g id="edge2" class="edge">
<title>Node1&#45;&gt;Node3</title>
<path fill="none" stroke="#191970" d="M96.2284,-22.3274C105.0629,-21.1369 114.2829,-19.8945 123.2858,-18.6813"/>
<polygon fill="#191970" stroke="#191970" points="95.5138,-18.892 86.0708,-23.6961 96.4487,-25.8293 95.5138,-18.892"/>
</g>
</g>
</svg>
