<?xml version="1.0" encoding="UTF-8" standalone="no"?>
<!DOCTYPE svg PUBLIC "-//W3C//DTD SVG 1.1//EN"
 "http://www.w3.org/Graphics/SVG/1.1/DTD/svg11.dtd">
<!-- Generated by graphviz version 2.40.1 (20161225.0304)
 -->
<!-- Title: Tracking_Reco Pages: 1 -->
<svg width="277pt" height="146pt"
 viewBox="0.00 0.00 277.00 146.00" xmlns="http://www.w3.org/2000/svg" xmlns:xlink="http://www.w3.org/1999/xlink">
<g id="graph0" class="graph" transform="scale(1 1) rotate(0) translate(4 142)">
<title>Tracking_Reco</title>
<!-- Node1 -->
<g id="node1" class="node">
<title>Node1</title>
<polygon fill="#bfbfbf" stroke="#000000" points="0,-58.5 0,-78.5 89,-78.5 89,-58.5 0,-58.5"/>
<text text-anchor="middle" x="44.5" y="-65.5" font-family="FreeSans" font-size="10.00" fill="#000000">Tracking_Reco</text>
</g>
<!-- Node2 -->
<g id="node2" class="node">
<title>Node2</title>
<g id="a_node2"><a xlink:href="../../da/d02/Fun4All__G4__EICDetector_8C.html#afbe82cefa1d1fd031d9a8586b7bb68c6" target="_top" xlink:title="Fun4All_G4_EICDetector">
<polygon fill="none" stroke="#000000" points="127.5,-117.5 127.5,-137.5 266.5,-137.5 266.5,-117.5 127.5,-117.5"/>
<text text-anchor="middle" x="197" y="-124.5" font-family="FreeSans" font-size="10.00" fill="#000000">Fun4All_G4_EICDetector</text>
</a>
</g>
</g>
<!-- Node1&#45;&gt;Node2 -->
<g id="edge1" class="edge">
<title>Node1&#45;&gt;Node2</title>
<path fill="none" stroke="#191970" d="M71.1975,-83.4792C86.5846,-91.6732 106.4914,-101.5421 125,-108.5 133.9548,-111.8664 143.7487,-114.8741 153.1484,-117.4493"/>
<polygon fill="#191970" stroke="#191970" points="72.7138,-80.3201 62.2539,-78.6348 69.3798,-86.4752 72.7138,-80.3201"/>
</g>
<!-- Node3 -->
<g id="node3" class="node">
<title>Node3</title>
<g id="a_node3"><a xlink:href="../../d7/d9e/Fun4All__G4__fsPHENIX_8C.html#af48911d394d2412e817583700f2bbee2" target="_top" xlink:title="Fun4All_G4_fsPHENIX">
<polygon fill="none" stroke="#000000" points="135,-78.5 135,-98.5 259,-98.5 259,-78.5 135,-78.5"/>
<text text-anchor="middle" x="197" y="-85.5" font-family="FreeSans" font-size="10.00" fill="#000000">Fun4All_G4_fsPHENIX</text>
</a>
</g>
</g>
<!-- Node1&#45;&gt;Node3 -->
<g id="edge2" class="edge">
<title>Node1&#45;&gt;Node3</title>
<path fill="none" stroke="#191970" d="M99.0092,-75.6487C110.6268,-77.1724 122.9791,-78.7923 134.8582,-80.3502"/>
<polygon fill="#191970" stroke="#191970" points="99.3895,-72.1687 89.0193,-74.3386 98.4792,-79.1093 99.3895,-72.1687"/>
</g>
<!-- Node4 -->
<g id="node4" class="node">
<title>Node4</title>
<g id="a_node4"><a xlink:href="../../d5/d2c/macros_2blob_2master_2macros_2g4simulations_2Fun4All__G4__sPHENIX_8C.html#a6eaaa492d7023ec86c562dc63aa1e5a4" target="_top" xlink:title="Fun4All_G4_sPHENIX">
<polygon fill="none" stroke="#000000" points="136.5,-39.5 136.5,-59.5 257.5,-59.5 257.5,-39.5 136.5,-39.5"/>
<text text-anchor="middle" x="197" y="-46.5" font-family="FreeSans" font-size="10.00" fill="#000000">Fun4All_G4_sPHENIX</text>
</a>
</g>
</g>
<!-- Node1&#45;&gt;Node4 -->
<g id="edge3" class="edge">
<title>Node1&#45;&gt;Node4</title>
<path fill="none" stroke="#191970" d="M98.9595,-61.7149C111.0522,-60.2082 123.9432,-58.6022 136.2692,-57.0665"/>
<polygon fill="#191970" stroke="#191970" points="98.5098,-58.2438 89.0193,-62.9533 99.3753,-65.1901 98.5098,-58.2438"/>
</g>
<!-- Node5 -->
<g id="node5" class="node">
<title>Node5</title>
<g id="a_node5"><a xlink:href="../../de/da9/ReadClustersRunTracking_8C.html#ae0216e7ee610ee6cb8ebc2392d00431b" target="_top" xlink:title="ReadClustersRunTracking">
<polygon fill="none" stroke="#000000" points="125,-.5 125,-20.5 269,-20.5 269,-.5 125,-.5"/>
<text text-anchor="middle" x="197" y="-7.5" font-family="FreeSans" font-size="10.00" fill="#000000">ReadClustersRunTracking</text>
</a>
</g>
</g>
<!-- Node1&#45;&gt;Node5 -->
<g id="edge4" class="edge">
<title>Node1&#45;&gt;Node5</title>
<path fill="none" stroke="#191970" d="M72.9675,-53.6084C88.1457,-46.0427 107.2948,-37.0834 125,-30.5 134.9711,-26.7924 145.9417,-23.408 156.2484,-20.5201"/>
<polygon fill="#191970" stroke="#191970" points="70.9627,-50.7004 63.6218,-58.3399 74.1245,-56.9456 70.9627,-50.7004"/>
</g>
</g>
</svg>
