<?xml version="1.0" encoding="UTF-8" standalone="no"?>
<!DOCTYPE svg PUBLIC "-//W3C//DTD SVG 1.1//EN"
 "http://www.w3.org/Graphics/SVG/1.1/DTD/svg11.dtd">
<!-- Generated by graphviz version 2.40.1 (20161225.0304)
 -->
<!-- Title: Tracking_Cells Pages: 1 -->
<svg width="257pt" height="68pt"
 viewBox="0.00 0.00 257.00 68.00" xmlns="http://www.w3.org/2000/svg" xmlns:xlink="http://www.w3.org/1999/xlink">
<g id="graph0" class="graph" transform="scale(1 1) rotate(0) translate(4 64)">
<title>Tracking_Cells</title>
<!-- Node1 -->
<g id="node1" class="node">
<title>Node1</title>
<polygon fill="#bfbfbf" stroke="#000000" points="0,-19.5 0,-39.5 89,-39.5 89,-19.5 0,-19.5"/>
<text text-anchor="middle" x="44.5" y="-26.5" font-family="FreeSans" font-size="10.00" fill="#000000">Tracking_Cells</text>
</g>
<!-- Node2 -->
<g id="node2" class="node">
<title>Node2</title>
<g id="a_node2"><a xlink:href="../../d7/d9e/Fun4All__G4__fsPHENIX_8C.html#af48911d394d2412e817583700f2bbee2" target="_top" xlink:title="Fun4All_G4_fsPHENIX">
<polygon fill="none" stroke="#000000" points="125,-39.5 125,-59.5 249,-59.5 249,-39.5 125,-39.5"/>
<text text-anchor="middle" x="187" y="-46.5" font-family="FreeSans" font-size="10.00" fill="#000000">Fun4All_G4_fsPHENIX</text>
</a>
</g>
</g>
<!-- Node1&#45;&gt;Node2 -->
<g id="edge1" class="edge">
<title>Node1&#45;&gt;Node2</title>
<path fill="none" stroke="#191970" d="M99.2644,-37.1862C107.6777,-38.367 116.4154,-39.5934 124.9727,-40.7944"/>
<polygon fill="#191970" stroke="#191970" points="99.5863,-33.6972 89.1969,-35.7733 98.6134,-40.6293 99.5863,-33.6972"/>
</g>
<!-- Node3 -->
<g id="node3" class="node">
<title>Node3</title>
<g id="a_node3"><a xlink:href="../../d5/d2c/macros_2blob_2master_2macros_2g4simulations_2Fun4All__G4__sPHENIX_8C.html#a6eaaa492d7023ec86c562dc63aa1e5a4" target="_top" xlink:title="Fun4All_G4_sPHENIX">
<polygon fill="none" stroke="#000000" points="126.5,-.5 126.5,-20.5 247.5,-20.5 247.5,-.5 126.5,-.5"/>
<text text-anchor="middle" x="187" y="-7.5" font-family="FreeSans" font-size="10.00" fill="#000000">Fun4All_G4_sPHENIX</text>
</a>
</g>
</g>
<!-- Node1&#45;&gt;Node3 -->
<g id="edge2" class="edge">
<title>Node1&#45;&gt;Node3</title>
<path fill="none" stroke="#191970" d="M99.3462,-22.1872C108.1601,-21.012 117.3281,-19.7896 126.2701,-18.5973"/>
<polygon fill="#191970" stroke="#191970" points="98.6466,-18.7494 89.1969,-23.5404 99.5718,-25.688 98.6466,-18.7494"/>
</g>
</g>
</svg>
