<?xml version="1.0" encoding="UTF-8" standalone="no"?>
<!DOCTYPE svg PUBLIC "-//W3C//DTD SVG 1.1//EN"
 "http://www.w3.org/Graphics/SVG/1.1/DTD/svg11.dtd">
<!-- Generated by graphviz version 2.40.1 (20161225.0304)
 -->
<!-- Title: PHGenFitTrkFitter::set_use_truth_vertex Pages: 1 -->
<svg width="435pt" height="146pt"
 viewBox="0.00 0.00 435.00 146.00" xmlns="http://www.w3.org/2000/svg" xmlns:xlink="http://www.w3.org/1999/xlink">
<g id="graph0" class="graph" transform="scale(1 1) rotate(0) translate(4 142)">
<title>PHGenFitTrkFitter::set_use_truth_vertex</title>
<!-- Node1 -->
<g id="node1" class="node">
<title>Node1</title>
<polygon fill="#bfbfbf" stroke="#000000" points="0,-52.5 0,-84.5 122,-84.5 122,-52.5 0,-52.5"/>
<text text-anchor="start" x="8" y="-71.5" font-family="FreeSans" font-size="10.00" fill="#000000">PHGenFitTrkFitter::</text>
<text text-anchor="middle" x="61" y="-59.5" font-family="FreeSans" font-size="10.00" fill="#000000">set_use_truth_vertex</text>
</g>
<!-- Node2 -->
<g id="node2" class="node">
<title>Node2</title>
<g id="a_node2"><a xlink:href="../../da/d3c/G4__Tracking_8C.html#acf2552f0af55b070654c44d9cb8fdbc4" target="_top" xlink:title="Tracking_Reco">
<polygon fill="none" stroke="#000000" points="158,-58.5 158,-78.5 247,-78.5 247,-58.5 158,-58.5"/>
<text text-anchor="middle" x="202.5" y="-65.5" font-family="FreeSans" font-size="10.00" fill="#000000">Tracking_Reco</text>
</a>
</g>
</g>
<!-- Node1&#45;&gt;Node2 -->
<g id="edge1" class="edge">
<title>Node1&#45;&gt;Node2</title>
<path fill="none" stroke="#191970" d="M132.3807,-68.5C141.0398,-68.5 149.6863,-68.5 157.8014,-68.5"/>
<polygon fill="#191970" stroke="#191970" points="132.241,-65.0001 122.241,-68.5 132.241,-72.0001 132.241,-65.0001"/>
</g>
<!-- Node3 -->
<g id="node3" class="node">
<title>Node3</title>
<g id="a_node3"><a xlink:href="../../da/d02/Fun4All__G4__EICDetector_8C.html#afbe82cefa1d1fd031d9a8586b7bb68c6" target="_top" xlink:title="Fun4All_G4_EICDetector">
<polygon fill="none" stroke="#000000" points="285.5,-117.5 285.5,-137.5 424.5,-137.5 424.5,-117.5 285.5,-117.5"/>
<text text-anchor="middle" x="355" y="-124.5" font-family="FreeSans" font-size="10.00" fill="#000000">Fun4All_G4_EICDetector</text>
</a>
</g>
</g>
<!-- Node2&#45;&gt;Node3 -->
<g id="edge2" class="edge">
<title>Node2&#45;&gt;Node3</title>
<path fill="none" stroke="#191970" d="M229.1975,-83.4792C244.5846,-91.6732 264.4914,-101.5421 283,-108.5 291.9548,-111.8664 301.7487,-114.8741 311.1484,-117.4493"/>
<polygon fill="#191970" stroke="#191970" points="230.7138,-80.3201 220.2539,-78.6348 227.3798,-86.4752 230.7138,-80.3201"/>
</g>
<!-- Node4 -->
<g id="node4" class="node">
<title>Node4</title>
<g id="a_node4"><a xlink:href="../../d7/d9e/Fun4All__G4__fsPHENIX_8C.html#af48911d394d2412e817583700f2bbee2" target="_top" xlink:title="Fun4All_G4_fsPHENIX">
<polygon fill="none" stroke="#000000" points="293,-78.5 293,-98.5 417,-98.5 417,-78.5 293,-78.5"/>
<text text-anchor="middle" x="355" y="-85.5" font-family="FreeSans" font-size="10.00" fill="#000000">Fun4All_G4_fsPHENIX</text>
</a>
</g>
</g>
<!-- Node2&#45;&gt;Node4 -->
<g id="edge3" class="edge">
<title>Node2&#45;&gt;Node4</title>
<path fill="none" stroke="#191970" d="M257.0092,-75.6487C268.6268,-77.1724 280.9791,-78.7923 292.8582,-80.3502"/>
<polygon fill="#191970" stroke="#191970" points="257.3895,-72.1687 247.0193,-74.3386 256.4792,-79.1093 257.3895,-72.1687"/>
</g>
<!-- Node5 -->
<g id="node5" class="node">
<title>Node5</title>
<g id="a_node5"><a xlink:href="../../d5/d2c/macros_2blob_2master_2macros_2g4simulations_2Fun4All__G4__sPHENIX_8C.html#a6eaaa492d7023ec86c562dc63aa1e5a4" target="_top" xlink:title="Fun4All_G4_sPHENIX">
<polygon fill="none" stroke="#000000" points="294.5,-39.5 294.5,-59.5 415.5,-59.5 415.5,-39.5 294.5,-39.5"/>
<text text-anchor="middle" x="355" y="-46.5" font-family="FreeSans" font-size="10.00" fill="#000000">Fun4All_G4_sPHENIX</text>
</a>
</g>
</g>
<!-- Node2&#45;&gt;Node5 -->
<g id="edge4" class="edge">
<title>Node2&#45;&gt;Node5</title>
<path fill="none" stroke="#191970" d="M256.9595,-61.7149C269.0522,-60.2082 281.9432,-58.6022 294.2692,-57.0665"/>
<polygon fill="#191970" stroke="#191970" points="256.5098,-58.2438 247.0193,-62.9533 257.3753,-65.1901 256.5098,-58.2438"/>
</g>
<!-- Node6 -->
<g id="node6" class="node">
<title>Node6</title>
<g id="a_node6"><a xlink:href="../../de/da9/ReadClustersRunTracking_8C.html#ae0216e7ee610ee6cb8ebc2392d00431b" target="_top" xlink:title="ReadClustersRunTracking">
<polygon fill="none" stroke="#000000" points="283,-.5 283,-20.5 427,-20.5 427,-.5 283,-.5"/>
<text text-anchor="middle" x="355" y="-7.5" font-family="FreeSans" font-size="10.00" fill="#000000">ReadClustersRunTracking</text>
</a>
</g>
</g>
<!-- Node2&#45;&gt;Node6 -->
<g id="edge5" class="edge">
<title>Node2&#45;&gt;Node6</title>
<path fill="none" stroke="#191970" d="M230.9675,-53.6084C246.1457,-46.0427 265.2948,-37.0834 283,-30.5 292.9711,-26.7924 303.9417,-23.408 314.2484,-20.5201"/>
<polygon fill="#191970" stroke="#191970" points="228.9627,-50.7004 221.6218,-58.3399 232.1245,-56.9456 228.9627,-50.7004"/>
</g>
</g>
</svg>
