<?xml version="1.0" encoding="UTF-8" standalone="no"?>
<!DOCTYPE svg PUBLIC "-//W3C//DTD SVG 1.1//EN"
 "http://www.w3.org/Graphics/SVG/1.1/DTD/svg11.dtd">
<!-- Generated by graphviz version 2.40.1 (20161225.0304)
 -->
<!-- Title: G4DSTreader Pages: 1 -->
<svg width="259pt" height="311pt"
 viewBox="0.00 0.00 259.00 311.00" xmlns="http://www.w3.org/2000/svg" xmlns:xlink="http://www.w3.org/1999/xlink">
<g id="graph0" class="graph" transform="scale(1 1) rotate(0) translate(4 307)">
<title>G4DSTreader</title>
<!-- Node1 -->
<g id="node1" class="node">
<title>Node1</title>
<polygon fill="#bfbfbf" stroke="#000000" points="0,-135.5 0,-155.5 83,-155.5 83,-135.5 0,-135.5"/>
<text text-anchor="middle" x="41.5" y="-142.5" font-family="FreeSans" font-size="10.00" fill="#000000">G4DSTreader</text>
</g>
<!-- Node2 -->
<g id="node2" class="node">
<title>Node2</title>
<g id="a_node2"><a xlink:href="../../d5/d2c/macros_2blob_2master_2macros_2g4simulations_2Fun4All__G4__sPHENIX_8C.html#a6eaaa492d7023ec86c562dc63aa1e5a4" target="_top" xlink:title="Fun4All_G4_sPHENIX">
<polygon fill="none" stroke="#000000" points="124.5,-282.5 124.5,-302.5 245.5,-302.5 245.5,-282.5 124.5,-282.5"/>
<text text-anchor="middle" x="185" y="-289.5" font-family="FreeSans" font-size="10.00" fill="#000000">Fun4All_G4_sPHENIX</text>
</a>
</g>
</g>
<!-- Node1&#45;&gt;Node2 -->
<g id="edge1" class="edge">
<title>Node1&#45;&gt;Node2</title>
<path fill="none" stroke="#191970" d="M48.1175,-165.1286C58.6378,-193.3405 81.8684,-245.0766 119,-273.5 123.7341,-277.1238 129.1366,-280.0569 134.7659,-282.4308"/>
<polygon fill="#191970" stroke="#191970" points="51.3625,-163.8078 44.7054,-155.5655 44.7695,-166.1602 51.3625,-163.8078"/>
</g>
<!-- Node3 -->
<g id="node3" class="node">
<title>Node3</title>
<g id="a_node3"><a xlink:href="../../d3/de2/Fun4All__G4__sPHENIX__AnaGenFit_8C.html#a9bf3f2f72ed69a17e2d0c1121d48013c" target="_top" xlink:title="Fun4All_G4_sPHENIX\l_AnaGenFit">
<polygon fill="none" stroke="#000000" points="124.5,-231.5 124.5,-263.5 245.5,-263.5 245.5,-231.5 124.5,-231.5"/>
<text text-anchor="start" x="132.5" y="-250.5" font-family="FreeSans" font-size="10.00" fill="#000000">Fun4All_G4_sPHENIX</text>
<text text-anchor="middle" x="185" y="-238.5" font-family="FreeSans" font-size="10.00" fill="#000000">_AnaGenFit</text>
</a>
</g>
</g>
<!-- Node1&#45;&gt;Node3 -->
<g id="edge2" class="edge">
<title>Node1&#45;&gt;Node3</title>
<path fill="none" stroke="#191970" d="M55.9258,-163.73C70.3264,-180.8957 93.8783,-206.3223 119,-222.5 124.1508,-225.817 129.8073,-228.7919 135.5754,-231.4319"/>
<polygon fill="#191970" stroke="#191970" points="58.3124,-161.12 49.2696,-155.5992 52.8959,-165.5542 58.3124,-161.12"/>
</g>
<!-- Node4 -->
<g id="node4" class="node">
<title>Node4</title>
<g id="a_node4"><a xlink:href="../../da/dd0/Fun4All__G4__sPHENIX__photonjet_8C.html#a6f18519e216acc05399e562ea57ea77c" target="_top" xlink:title="Fun4All_G4_sPHENIX\l_photonjet">
<polygon fill="none" stroke="#000000" points="124.5,-180.5 124.5,-212.5 245.5,-212.5 245.5,-180.5 124.5,-180.5"/>
<text text-anchor="start" x="132.5" y="-199.5" font-family="FreeSans" font-size="10.00" fill="#000000">Fun4All_G4_sPHENIX</text>
<text text-anchor="middle" x="185" y="-187.5" font-family="FreeSans" font-size="10.00" fill="#000000">_photonjet</text>
</a>
</g>
</g>
<!-- Node1&#45;&gt;Node4 -->
<g id="edge3" class="edge">
<title>Node1&#45;&gt;Node4</title>
<path fill="none" stroke="#191970" d="M79.4177,-158.976C97.9364,-165.5576 120.3548,-173.5251 139.7619,-180.4223"/>
<polygon fill="#191970" stroke="#191970" points="80.4457,-155.6269 69.851,-155.576 78.1015,-162.2227 80.4457,-155.6269"/>
</g>
<!-- Node5 -->
<g id="node5" class="node">
<title>Node5</title>
<g id="a_node5"><a xlink:href="../../da/d85/Fun4All__G4__sPHENIX__photons_8C.html#a02fbbd59878fe1299f58ed187e7214ba" target="_top" xlink:title="Fun4All_G4_sPHENIX\l_photons">
<polygon fill="none" stroke="#000000" points="124.5,-129.5 124.5,-161.5 245.5,-161.5 245.5,-129.5 124.5,-129.5"/>
<text text-anchor="start" x="132.5" y="-148.5" font-family="FreeSans" font-size="10.00" fill="#000000">Fun4All_G4_sPHENIX</text>
<text text-anchor="middle" x="185" y="-136.5" font-family="FreeSans" font-size="10.00" fill="#000000">_photons</text>
</a>
</g>
</g>
<!-- Node1&#45;&gt;Node5 -->
<g id="edge4" class="edge">
<title>Node1&#45;&gt;Node5</title>
<path fill="none" stroke="#191970" d="M93.2753,-145.5C103.3641,-145.5 114.0254,-145.5 124.3706,-145.5"/>
<polygon fill="#191970" stroke="#191970" points="93.0062,-142.0001 83.0061,-145.5 93.0061,-149.0001 93.0062,-142.0001"/>
</g>
<!-- Node6 -->
<g id="node6" class="node">
<title>Node6</title>
<g id="a_node6"><a xlink:href="../../de/d55/Fun4All__G4__sPHENIX__truthphotonjet_8C.html#a48a6f4503eaa1b3793d8ae572aa795b9" target="_top" xlink:title="Fun4All_G4_sPHENIX\l_truthphotonjet">
<polygon fill="none" stroke="#000000" points="124.5,-78.5 124.5,-110.5 245.5,-110.5 245.5,-78.5 124.5,-78.5"/>
<text text-anchor="start" x="132.5" y="-97.5" font-family="FreeSans" font-size="10.00" fill="#000000">Fun4All_G4_sPHENIX</text>
<text text-anchor="middle" x="185" y="-85.5" font-family="FreeSans" font-size="10.00" fill="#000000">_truthphotonjet</text>
</a>
</g>
</g>
<!-- Node1&#45;&gt;Node6 -->
<g id="edge5" class="edge">
<title>Node1&#45;&gt;Node6</title>
<path fill="none" stroke="#191970" d="M79.4177,-132.024C97.9364,-125.4424 120.3548,-117.4749 139.7619,-110.5777"/>
<polygon fill="#191970" stroke="#191970" points="78.1015,-128.7773 69.851,-135.424 80.4457,-135.3731 78.1015,-128.7773"/>
</g>
<!-- Node7 -->
<g id="node7" class="node">
<title>Node7</title>
<g id="a_node7"><a xlink:href="../../d4/d65/Fun4All__single__particle_8C.html#a8a492b5dbead494bfdddbebde8a49b0e" target="_top" xlink:title="Fun4All_single_particle">
<polygon fill="none" stroke="#000000" points="119,-39.5 119,-59.5 251,-59.5 251,-39.5 119,-39.5"/>
<text text-anchor="middle" x="185" y="-46.5" font-family="FreeSans" font-size="10.00" fill="#000000">Fun4All_single_particle</text>
</a>
</g>
</g>
<!-- Node1&#45;&gt;Node7 -->
<g id="edge6" class="edge">
<title>Node1&#45;&gt;Node7</title>
<path fill="none" stroke="#191970" d="M55.7399,-127.1369C70.0041,-109.923 93.4594,-84.6343 119,-69.5 125.7982,-65.4717 133.4779,-62.1911 141.1328,-59.5405"/>
<polygon fill="#191970" stroke="#191970" points="52.7061,-125.3237 49.1561,-135.3061 58.1564,-129.7163 52.7061,-125.3237"/>
</g>
<!-- Node8 -->
<g id="node8" class="node">
<title>Node8</title>
<g id="a_node8"><a xlink:href="../../d0/d99/Jin__BJet_8C.html#a36169bfee2ed7efda633944d12aebad9" target="_top" xlink:title="Jin_BJet">
<polygon fill="none" stroke="#000000" points="157.5,-.5 157.5,-20.5 212.5,-20.5 212.5,-.5 157.5,-.5"/>
<text text-anchor="middle" x="185" y="-7.5" font-family="FreeSans" font-size="10.00" fill="#000000">Jin_BJet</text>
</a>
</g>
</g>
<!-- Node1&#45;&gt;Node8 -->
<g id="edge7" class="edge">
<title>Node1&#45;&gt;Node8</title>
<path fill="none" stroke="#191970" d="M49.7061,-125.72C61.3619,-100.027 85.1244,-55.5126 119,-30.5 130.1729,-22.2503 144.7716,-17.3704 157.3975,-14.5004"/>
<polygon fill="#191970" stroke="#191970" points="46.375,-124.6026 45.583,-135.1678 52.7907,-127.4025 46.375,-124.6026"/>
</g>
</g>
</svg>
