<?xml version="1.0" encoding="UTF-8" standalone="no"?>
<!DOCTYPE svg PUBLIC "-//W3C//DTD SVG 1.1//EN"
 "http://www.w3.org/Graphics/SVG/1.1/DTD/svg11.dtd">
<!-- Generated by graphviz version 2.40.1 (20161225.0304)
 -->
<!-- Title: coresoftware/blob/master/simulation/g4simulation/g4jets/JetMap.h Pages: 1 -->
<svg width="5494pt" height="215pt"
 viewBox="0.00 0.00 5493.50 215.00" xmlns="http://www.w3.org/2000/svg" xmlns:xlink="http://www.w3.org/1999/xlink">
<g id="graph0" class="graph" transform="scale(1 1) rotate(0) translate(4 211)">
<title>coresoftware/blob/master/simulation/g4simulation/g4jets/JetMap.h</title>
<!-- Node1 -->
<g id="node1" class="node">
<title>Node1</title>
<polygon fill="#bfbfbf" stroke="#000000" points="2533,-162.5 2533,-206.5 2679,-206.5 2679,-162.5 2533,-162.5"/>
<text text-anchor="start" x="2541" y="-193.5" font-family="FreeSans" font-size="10.00" fill="#000000">coresoftware/blob/master</text>
<text text-anchor="start" x="2541" y="-181.5" font-family="FreeSans" font-size="10.00" fill="#000000">/simulation/g4simulation</text>
<text text-anchor="middle" x="2606" y="-169.5" font-family="FreeSans" font-size="10.00" fill="#000000">/g4jets/JetMap.h</text>
</g>
<!-- Node2 -->
<g id="node2" class="node">
<title>Node2</title>
<g id="a_node2"><a xlink:href="../../da/dc3/CopyAndSubtractJets_8cc.html" target="_top" xlink:title="coresoftware/blob/master\l/offline/packages/jetbackground\l/CopyAndSubtractJets.cc">
<polygon fill="none" stroke="#000000" points="0,-.5 0,-44.5 180,-44.5 180,-.5 0,-.5"/>
<text text-anchor="start" x="8" y="-31.5" font-family="FreeSans" font-size="10.00" fill="#000000">coresoftware/blob/master</text>
<text text-anchor="start" x="8" y="-19.5" font-family="FreeSans" font-size="10.00" fill="#000000">/offline/packages/jetbackground</text>
<text text-anchor="middle" x="90" y="-7.5" font-family="FreeSans" font-size="10.00" fill="#000000">/CopyAndSubtractJets.cc</text>
</a>
</g>
</g>
<!-- Node1&#45;&gt;Node2 -->
<g id="edge1" class="edge">
<title>Node1&#45;&gt;Node2</title>
<path fill="none" stroke="#191970" d="M2522.6934,-183.5761C2118.7087,-178.9482 378.4529,-157.265 268,-126 209.8712,-109.5459 150.9171,-69.7104 117.5602,-44.5351"/>
<polygon fill="#191970" stroke="#191970" points="2522.7997,-187.0774 2532.839,-183.6919 2522.8797,-180.0779 2522.7997,-187.0774"/>
</g>
<!-- Node3 -->
<g id="node3" class="node">
<title>Node3</title>
<g id="a_node3"><a xlink:href="../../d3/d0a/DetermineTowerBackground_8cc.html" target="_top" xlink:title="coresoftware/blob/master\l/offline/packages/jetbackground\l/DetermineTowerBackground.cc">
<polygon fill="none" stroke="#000000" points="504,-81.5 504,-125.5 684,-125.5 684,-81.5 504,-81.5"/>
<text text-anchor="start" x="512" y="-112.5" font-family="FreeSans" font-size="10.00" fill="#000000">coresoftware/blob/master</text>
<text text-anchor="start" x="512" y="-100.5" font-family="FreeSans" font-size="10.00" fill="#000000">/offline/packages/jetbackground</text>
<text text-anchor="middle" x="594" y="-88.5" font-family="FreeSans" font-size="10.00" fill="#000000">/DetermineTowerBackground.cc</text>
</a>
</g>
</g>
<!-- Node1&#45;&gt;Node3 -->
<g id="edge2" class="edge">
<title>Node1&#45;&gt;Node3</title>
<path fill="none" stroke="#191970" d="M2522.7177,-184.0902C2203.0933,-182.1859 1054.8199,-172.2085 693,-126 690.1152,-125.6316 687.191,-125.2172 684.2444,-124.7643"/>
<polygon fill="#191970" stroke="#191970" points="2522.8144,-187.5907 2532.8348,-184.1494 2522.8555,-180.5909 2522.8144,-187.5907"/>
</g>
<!-- Node4 -->
<g id="node4" class="node">
<title>Node4</title>
<g id="a_node4"><a xlink:href="../../dd/d39/DumpJetMap_8cc.html" target="_top" xlink:title="coresoftware/blob/master\l/offline/packages/NodeDump\l/DumpJetMap.cc">
<polygon fill="none" stroke="#000000" points="702,-81.5 702,-125.5 866,-125.5 866,-81.5 702,-81.5"/>
<text text-anchor="start" x="710" y="-112.5" font-family="FreeSans" font-size="10.00" fill="#000000">coresoftware/blob/master</text>
<text text-anchor="start" x="710" y="-100.5" font-family="FreeSans" font-size="10.00" fill="#000000">/offline/packages/NodeDump</text>
<text text-anchor="middle" x="784" y="-88.5" font-family="FreeSans" font-size="10.00" fill="#000000">/DumpJetMap.cc</text>
</a>
</g>
</g>
<!-- Node1&#45;&gt;Node4 -->
<g id="edge3" class="edge">
<title>Node1&#45;&gt;Node4</title>
<path fill="none" stroke="#191970" d="M2522.4886,-183.9841C2222.3456,-181.7705 1198.9579,-171.0209 875,-126 872.0985,-125.5968 869.1551,-125.139 866.1901,-124.6364"/>
<polygon fill="#191970" stroke="#191970" points="2522.833,-187.4866 2532.8582,-184.0593 2522.8838,-180.4868 2522.833,-187.4866"/>
</g>
<!-- Node5 -->
<g id="node5" class="node">
<title>Node5</title>
<g id="a_node5"><a xlink:href="../../d3/d23/QAG4SimulationJet_8cc.html" target="_top" xlink:title="coresoftware/blob/master\l/offline/QA/modules/QAG4Simulation\lJet.cc">
<polygon fill="none" stroke="#000000" points="884,-81.5 884,-125.5 1088,-125.5 1088,-81.5 884,-81.5"/>
<text text-anchor="start" x="892" y="-112.5" font-family="FreeSans" font-size="10.00" fill="#000000">coresoftware/blob/master</text>
<text text-anchor="start" x="892" y="-100.5" font-family="FreeSans" font-size="10.00" fill="#000000">/offline/QA/modules/QAG4Simulation</text>
<text text-anchor="middle" x="986" y="-88.5" font-family="FreeSans" font-size="10.00" fill="#000000">Jet.cc</text>
</a>
</g>
</g>
<!-- Node1&#45;&gt;Node5 -->
<g id="edge4" class="edge">
<title>Node1&#45;&gt;Node5</title>
<path fill="none" stroke="#191970" d="M2522.3435,-183.0345C2247.8626,-177.947 1376.3329,-159.5034 1097,-126 1094.0716,-125.6488 1091.1052,-125.2614 1088.1155,-124.8435"/>
<polygon fill="#191970" stroke="#191970" points="2522.5703,-186.5392 2532.6331,-183.2242 2522.6993,-179.5404 2522.5703,-186.5392"/>
</g>
<!-- Node6 -->
<g id="node6" class="node">
<title>Node6</title>
<g id="a_node6"><a xlink:href="../../dd/db5/JetEvaluator_8cc.html" target="_top" xlink:title="coresoftware/blob/master\l/simulation/g4simulation\l/g4eval/JetEvaluator.cc">
<polygon fill="none" stroke="#000000" points="1106,-81.5 1106,-125.5 1252,-125.5 1252,-81.5 1106,-81.5"/>
<text text-anchor="start" x="1114" y="-112.5" font-family="FreeSans" font-size="10.00" fill="#000000">coresoftware/blob/master</text>
<text text-anchor="start" x="1114" y="-100.5" font-family="FreeSans" font-size="10.00" fill="#000000">/simulation/g4simulation</text>
<text text-anchor="middle" x="1179" y="-88.5" font-family="FreeSans" font-size="10.00" fill="#000000">/g4eval/JetEvaluator.cc</text>
</a>
</g>
</g>
<!-- Node1&#45;&gt;Node6 -->
<g id="edge5" class="edge">
<title>Node1&#45;&gt;Node6</title>
<path fill="none" stroke="#191970" d="M2522.3693,-183.3164C2267.9593,-179.3283 1505.8269,-164.4138 1261,-126 1258.0832,-125.5424 1255.1217,-125.0189 1252.1402,-124.4427"/>
<polygon fill="#191970" stroke="#191970" points="2522.6002,-186.8203 2532.6533,-183.476 2522.7088,-179.8212 2522.6002,-186.8203"/>
</g>
<!-- Node7 -->
<g id="node7" class="node">
<title>Node7</title>
<g id="a_node7"><a xlink:href="../../d2/da2/JetRecoEval_8cc.html" target="_top" xlink:title="coresoftware/blob/master\l/simulation/g4simulation\l/g4eval/JetRecoEval.cc">
<polygon fill="none" stroke="#000000" points="1270,-81.5 1270,-125.5 1416,-125.5 1416,-81.5 1270,-81.5"/>
<text text-anchor="start" x="1278" y="-112.5" font-family="FreeSans" font-size="10.00" fill="#000000">coresoftware/blob/master</text>
<text text-anchor="start" x="1278" y="-100.5" font-family="FreeSans" font-size="10.00" fill="#000000">/simulation/g4simulation</text>
<text text-anchor="middle" x="1343" y="-88.5" font-family="FreeSans" font-size="10.00" fill="#000000">/g4eval/JetRecoEval.cc</text>
</a>
</g>
</g>
<!-- Node1&#45;&gt;Node7 -->
<g id="edge6" class="edge">
<title>Node1&#45;&gt;Node7</title>
<path fill="none" stroke="#191970" d="M2522.6735,-182.7369C2290.0511,-177.4387 1636.8479,-159.8938 1425,-126 1422.0846,-125.5336 1419.1243,-125.0027 1416.1438,-124.4203"/>
<polygon fill="#191970" stroke="#191970" points="2522.6898,-186.2381 2532.7664,-182.9651 2522.8481,-179.2399 2522.6898,-186.2381"/>
</g>
<!-- Node8 -->
<g id="node8" class="node">
<title>Node8</title>
<g id="a_node8"><a xlink:href="../../da/dbb/JetTruthEval_8cc.html" target="_top" xlink:title="coresoftware/blob/master\l/simulation/g4simulation\l/g4eval/JetTruthEval.cc">
<polygon fill="none" stroke="#000000" points="1434,-81.5 1434,-125.5 1580,-125.5 1580,-81.5 1434,-81.5"/>
<text text-anchor="start" x="1442" y="-112.5" font-family="FreeSans" font-size="10.00" fill="#000000">coresoftware/blob/master</text>
<text text-anchor="start" x="1442" y="-100.5" font-family="FreeSans" font-size="10.00" fill="#000000">/simulation/g4simulation</text>
<text text-anchor="middle" x="1507" y="-88.5" font-family="FreeSans" font-size="10.00" fill="#000000">/g4eval/JetTruthEval.cc</text>
</a>
</g>
</g>
<!-- Node1&#45;&gt;Node8 -->
<g id="edge7" class="edge">
<title>Node1&#45;&gt;Node8</title>
<path fill="none" stroke="#191970" d="M2522.8102,-181.9329C2313.4775,-175.1161 1768.875,-155.0721 1590,-126 1586.758,-125.4731 1583.4602,-124.8706 1580.1402,-124.2093"/>
<polygon fill="#191970" stroke="#191970" points="2522.714,-185.4315 2532.8221,-182.2572 2522.9407,-178.4352 2522.714,-185.4315"/>
</g>
<!-- Node9 -->
<g id="node9" class="node">
<title>Node9</title>
<g id="a_node9"><a xlink:href="../../d8/d06/PHG4DSTReader_8cc.html" target="_top" xlink:title="coresoftware/blob/master\l/simulation/g4simulation\l/g4eval/PHG4DSTReader.cc">
<polygon fill="none" stroke="#000000" points="1598.5,-81.5 1598.5,-125.5 1753.5,-125.5 1753.5,-81.5 1598.5,-81.5"/>
<text text-anchor="start" x="1606.5" y="-112.5" font-family="FreeSans" font-size="10.00" fill="#000000">coresoftware/blob/master</text>
<text text-anchor="start" x="1606.5" y="-100.5" font-family="FreeSans" font-size="10.00" fill="#000000">/simulation/g4simulation</text>
<text text-anchor="middle" x="1676" y="-88.5" font-family="FreeSans" font-size="10.00" fill="#000000">/g4eval/PHG4DSTReader.cc</text>
</a>
</g>
</g>
<!-- Node1&#45;&gt;Node9 -->
<g id="edge8" class="edge">
<title>Node1&#45;&gt;Node9</title>
<path fill="none" stroke="#191970" d="M2522.6622,-180.6705C2339.6842,-171.944 1907.6049,-149.5113 1763,-126 1759.9202,-125.4993 1756.7907,-124.9394 1753.6379,-124.3328"/>
<polygon fill="#191970" stroke="#191970" points="2522.6145,-184.1721 2532.7694,-181.1506 2522.9467,-177.18 2522.6145,-184.1721"/>
</g>
<!-- Node10 -->
<g id="node10" class="node">
<title>Node10</title>
<g id="a_node10"><a xlink:href="../../d5/d74/JetHepMCLoader_8cc.html" target="_top" xlink:title="coresoftware/blob/master\l/simulation/g4simulation\l/g4jets/JetHepMCLoader.cc">
<polygon fill="none" stroke="#000000" points="198,-.5 198,-44.5 350,-44.5 350,-.5 198,-.5"/>
<text text-anchor="start" x="206" y="-31.5" font-family="FreeSans" font-size="10.00" fill="#000000">coresoftware/blob/master</text>
<text text-anchor="start" x="206" y="-19.5" font-family="FreeSans" font-size="10.00" fill="#000000">/simulation/g4simulation</text>
<text text-anchor="middle" x="274" y="-7.5" font-family="FreeSans" font-size="10.00" fill="#000000">/g4jets/JetHepMCLoader.cc</text>
</a>
</g>
</g>
<!-- Node1&#45;&gt;Node10 -->
<g id="edge9" class="edge">
<title>Node1&#45;&gt;Node10</title>
<path fill="none" stroke="#191970" d="M2522.5794,-183.8198C2113.3748,-180.3075 336.2222,-162.9457 293,-126 269.9475,-106.2951 268.8023,-68.6262 270.8462,-44.5757"/>
<polygon fill="#191970" stroke="#191970" points="2522.8233,-187.3219 2532.8529,-183.9075 2522.8832,-180.3222 2522.8233,-187.3219"/>
</g>
<!-- Node11 -->
<g id="node11" class="node">
<title>Node11</title>
<g id="a_node11"><a xlink:href="../../dd/d80/JetMapv1_8h.html" target="_top" xlink:title="coresoftware/blob/master\l/simulation/g4simulation\l/g4jets/JetMapv1.h">
<polygon fill="none" stroke="#000000" points="302,-81.5 302,-125.5 448,-125.5 448,-81.5 302,-81.5"/>
<text text-anchor="start" x="310" y="-112.5" font-family="FreeSans" font-size="10.00" fill="#000000">coresoftware/blob/master</text>
<text text-anchor="start" x="310" y="-100.5" font-family="FreeSans" font-size="10.00" fill="#000000">/simulation/g4simulation</text>
<text text-anchor="middle" x="375" y="-88.5" font-family="FreeSans" font-size="10.00" fill="#000000">/g4jets/JetMapv1.h</text>
</a>
</g>
</g>
<!-- Node1&#45;&gt;Node11 -->
<g id="edge10" class="edge">
<title>Node1&#45;&gt;Node11</title>
<path fill="none" stroke="#191970" d="M2522.7693,-183.3408C2153.0146,-178.0402 668.3305,-155.1138 462,-126 457.5201,-125.3679 452.9387,-124.5902 448.3363,-123.7081"/>
<polygon fill="#191970" stroke="#191970" points="2522.8124,-186.8416 2532.8614,-183.485 2522.9125,-179.8424 2522.8124,-186.8416"/>
</g>
<!-- Node13 -->
<g id="node13" class="node">
<title>Node13</title>
<g id="a_node13"><a xlink:href="../../da/de5/JetReco_8cc.html" target="_top" xlink:title="coresoftware/blob/master\l/simulation/g4simulation\l/g4jets/JetReco.cc">
<polygon fill="none" stroke="#000000" points="532,-.5 532,-44.5 678,-44.5 678,-.5 532,-.5"/>
<text text-anchor="start" x="540" y="-31.5" font-family="FreeSans" font-size="10.00" fill="#000000">coresoftware/blob/master</text>
<text text-anchor="start" x="540" y="-19.5" font-family="FreeSans" font-size="10.00" fill="#000000">/simulation/g4simulation</text>
<text text-anchor="middle" x="605" y="-7.5" font-family="FreeSans" font-size="10.00" fill="#000000">/g4jets/JetReco.cc</text>
</a>
</g>
</g>
<!-- Node1&#45;&gt;Node13 -->
<g id="edge16" class="edge">
<title>Node1&#45;&gt;Node13</title>
<path fill="none" stroke="#191970" d="M2522.592,-183.7637C2135.4489,-180.1519 530.9601,-162.9705 495,-126 481.0551,-111.6633 484.7,-98.1438 495,-81 504.5799,-65.0548 520.1373,-53.2208 536.5748,-44.5353"/>
<polygon fill="#191970" stroke="#191970" points="2522.8414,-187.266 2532.8734,-183.859 2522.9064,-180.2663 2522.8414,-187.266"/>
</g>
<!-- Node14 -->
<g id="node14" class="node">
<title>Node14</title>
<g id="a_node14"><a xlink:href="../../d8/d59/JetMap_8cc.html" target="_top" xlink:title="coresoftware/blob/master\l/simulation/g4simulation\l/g4jets/JetMap.cc">
<polygon fill="none" stroke="#000000" points="1772,-81.5 1772,-125.5 1918,-125.5 1918,-81.5 1772,-81.5"/>
<text text-anchor="start" x="1780" y="-112.5" font-family="FreeSans" font-size="10.00" fill="#000000">coresoftware/blob/master</text>
<text text-anchor="start" x="1780" y="-100.5" font-family="FreeSans" font-size="10.00" fill="#000000">/simulation/g4simulation</text>
<text text-anchor="middle" x="1845" y="-88.5" font-family="FreeSans" font-size="10.00" fill="#000000">/g4jets/JetMap.cc</text>
</a>
</g>
</g>
<!-- Node1&#45;&gt;Node14 -->
<g id="edge15" class="edge">
<title>Node1&#45;&gt;Node14</title>
<path fill="none" stroke="#191970" d="M2522.533,-182.0919C2393.958,-177.307 2140.0899,-163.586 1928,-126 1924.7658,-125.4269 1921.4746,-124.786 1918.1599,-124.0934"/>
<polygon fill="#191970" stroke="#191970" points="2522.5795,-185.5958 2532.7,-182.4613 2522.8337,-178.6004 2522.5795,-185.5958"/>
</g>
<!-- Node15 -->
<g id="node15" class="node">
<title>Node15</title>
<g id="a_node15"><a xlink:href="../../d7/d51/DISKinematicsReco_8C.html" target="_top" xlink:title="analysis/blob/master\l/EICAnalysis/DISKinematicsReco.C">
<polygon fill="none" stroke="#000000" points="1936.5,-87.5 1936.5,-119.5 2125.5,-119.5 2125.5,-87.5 1936.5,-87.5"/>
<text text-anchor="start" x="1944.5" y="-106.5" font-family="FreeSans" font-size="10.00" fill="#000000">analysis/blob/master</text>
<text text-anchor="middle" x="2031" y="-94.5" font-family="FreeSans" font-size="10.00" fill="#000000">/EICAnalysis/DISKinematicsReco.C</text>
</a>
</g>
</g>
<!-- Node1&#45;&gt;Node15 -->
<g id="edge17" class="edge">
<title>Node1&#45;&gt;Node15</title>
<path fill="none" stroke="#191970" d="M2522.6222,-176.423C2428.228,-166.7508 2270.0075,-148.9411 2135,-126 2123.9816,-124.1277 2112.3626,-121.8837 2101.0423,-119.5483"/>
<polygon fill="#191970" stroke="#191970" points="2522.379,-179.9163 2532.6822,-177.4478 2523.0884,-172.9523 2522.379,-179.9163"/>
</g>
<!-- Node16 -->
<g id="node16" class="node">
<title>Node16</title>
<g id="a_node16"><a xlink:href="../../d0/dfd/LeptoquarksReco_8C.html" target="_top" xlink:title="analysis/blob/master\l/EICAnalysis/LeptoquarksReco.C">
<polygon fill="none" stroke="#000000" points="2143.5,-87.5 2143.5,-119.5 2322.5,-119.5 2322.5,-87.5 2143.5,-87.5"/>
<text text-anchor="start" x="2151.5" y="-106.5" font-family="FreeSans" font-size="10.00" fill="#000000">analysis/blob/master</text>
<text text-anchor="middle" x="2233" y="-94.5" font-family="FreeSans" font-size="10.00" fill="#000000">/EICAnalysis/LeptoquarksReco.C</text>
</a>
</g>
</g>
<!-- Node1&#45;&gt;Node16 -->
<g id="edge18" class="edge">
<title>Node1&#45;&gt;Node16</title>
<path fill="none" stroke="#191970" d="M2523.0324,-167.082C2468.6629,-155.5948 2396.0592,-140.1172 2332,-126 2322.619,-123.9326 2312.7454,-121.7258 2303.014,-119.5325"/>
<polygon fill="#191970" stroke="#191970" points="2522.4587,-170.5379 2532.966,-169.1792 2523.9048,-163.6889 2522.4587,-170.5379"/>
</g>
<!-- Node17 -->
<g id="node17" class="node">
<title>Node17</title>
<g id="a_node17"><a xlink:href="../../dd/de8/DirectPhotonPythia_8C.html" target="_top" xlink:title="analysis/blob/master\l/EMCal&#45;analysis/DirectPhoton\l/DirectPhotonPythia.C">
<polygon fill="none" stroke="#000000" points="2340.5,-81.5 2340.5,-125.5 2505.5,-125.5 2505.5,-81.5 2340.5,-81.5"/>
<text text-anchor="start" x="2348.5" y="-112.5" font-family="FreeSans" font-size="10.00" fill="#000000">analysis/blob/master</text>
<text text-anchor="start" x="2348.5" y="-100.5" font-family="FreeSans" font-size="10.00" fill="#000000">/EMCal&#45;analysis/DirectPhoton</text>
<text text-anchor="middle" x="2423" y="-88.5" font-family="FreeSans" font-size="10.00" fill="#000000">/DirectPhotonPythia.C</text>
</a>
</g>
</g>
<!-- Node1&#45;&gt;Node17 -->
<g id="edge19" class="edge">
<title>Node1&#45;&gt;Node17</title>
<path fill="none" stroke="#191970" d="M2546.7041,-158.2543C2522.8869,-147.7123 2495.733,-135.6933 2472.9451,-125.6068"/>
<polygon fill="#191970" stroke="#191970" points="2545.4335,-161.5194 2555.9944,-162.3664 2548.2668,-155.1184 2545.4335,-161.5194"/>
</g>
<!-- Node18 -->
<g id="node18" class="node">
<title>Node18</title>
<g id="a_node18"><a xlink:href="../../d8/db0/DirectPhotonPythia__W_8C.html" target="_top" xlink:title="analysis/blob/master\l/EMCal&#45;analysis/DirectPhoton\l/DirectPhotonPythia_W.C">
<polygon fill="none" stroke="#000000" points="2523.5,-81.5 2523.5,-125.5 2688.5,-125.5 2688.5,-81.5 2523.5,-81.5"/>
<text text-anchor="start" x="2531.5" y="-112.5" font-family="FreeSans" font-size="10.00" fill="#000000">analysis/blob/master</text>
<text text-anchor="start" x="2531.5" y="-100.5" font-family="FreeSans" font-size="10.00" fill="#000000">/EMCal&#45;analysis/DirectPhoton</text>
<text text-anchor="middle" x="2606" y="-88.5" font-family="FreeSans" font-size="10.00" fill="#000000">/DirectPhotonPythia_W.C</text>
</a>
</g>
</g>
<!-- Node1&#45;&gt;Node18 -->
<g id="edge20" class="edge">
<title>Node1&#45;&gt;Node18</title>
<path fill="none" stroke="#191970" d="M2606,-152.2457C2606,-143.3118 2606,-133.8188 2606,-125.6068"/>
<polygon fill="#191970" stroke="#191970" points="2602.5001,-152.3664 2606,-162.3664 2609.5001,-152.3664 2602.5001,-152.3664"/>
</g>
<!-- Node19 -->
<g id="node19" class="node">
<title>Node19</title>
<g id="a_node19"><a xlink:href="../../d8/d55/JetEnergies_8C.html" target="_top" xlink:title="analysis/blob/master\l/ForwardCalo/Flux_Return\l_Study/JetEnergies.C">
<polygon fill="none" stroke="#000000" points="2707,-81.5 2707,-125.5 2853,-125.5 2853,-81.5 2707,-81.5"/>
<text text-anchor="start" x="2715" y="-112.5" font-family="FreeSans" font-size="10.00" fill="#000000">analysis/blob/master</text>
<text text-anchor="start" x="2715" y="-100.5" font-family="FreeSans" font-size="10.00" fill="#000000">/ForwardCalo/Flux_Return</text>
<text text-anchor="middle" x="2780" y="-88.5" font-family="FreeSans" font-size="10.00" fill="#000000">_Study/JetEnergies.C</text>
</a>
</g>
</g>
<!-- Node1&#45;&gt;Node19 -->
<g id="edge21" class="edge">
<title>Node1&#45;&gt;Node19</title>
<path fill="none" stroke="#191970" d="M2662.6805,-158.1143C2685.2539,-147.6059 2710.9399,-135.6486 2732.5112,-125.6068"/>
<polygon fill="#191970" stroke="#191970" points="2661.135,-154.973 2653.5463,-162.3664 2664.0892,-161.3191 2661.135,-154.973"/>
</g>
<!-- Node20 -->
<g id="node20" class="node">
<title>Node20</title>
<g id="a_node20"><a xlink:href="../../d8/d81/HFFastSim_8cc.html" target="_top" xlink:title="analysis/blob/master\l/HF&#45;Jet/FastSimPP/HFFastSim.cc">
<polygon fill="none" stroke="#000000" points="2871,-87.5 2871,-119.5 3047,-119.5 3047,-87.5 2871,-87.5"/>
<text text-anchor="start" x="2879" y="-106.5" font-family="FreeSans" font-size="10.00" fill="#000000">analysis/blob/master</text>
<text text-anchor="middle" x="2959" y="-94.5" font-family="FreeSans" font-size="10.00" fill="#000000">/HF&#45;Jet/FastSimPP/HFFastSim.cc</text>
</a>
</g>
</g>
<!-- Node1&#45;&gt;Node20 -->
<g id="edge22" class="edge">
<title>Node1&#45;&gt;Node20</title>
<path fill="none" stroke="#191970" d="M2688.9359,-165.62C2739.0524,-154.1933 2804.2092,-139.3056 2862,-126 2871.0972,-123.9055 2880.6725,-121.6935 2890.1194,-119.5067"/>
<polygon fill="#191970" stroke="#191970" points="2688.0917,-162.2226 2679.1198,-167.8577 2689.6476,-169.0475 2688.0917,-162.2226"/>
</g>
<!-- Node21 -->
<g id="node21" class="node">
<title>Node21</title>
<g id="a_node21"><a xlink:href="../../d1/db8/BDiJetModule_8C.html" target="_top" xlink:title="Gether information from Truth Jet and Tracks, DST &#45;&gt; NTuple.">
<polygon fill="none" stroke="#000000" points="3064.5,-81.5 3064.5,-125.5 3233.5,-125.5 3233.5,-81.5 3064.5,-81.5"/>
<text text-anchor="start" x="3072.5" y="-112.5" font-family="FreeSans" font-size="10.00" fill="#000000">analysis/blob/master</text>
<text text-anchor="start" x="3072.5" y="-100.5" font-family="FreeSans" font-size="10.00" fill="#000000">/HF&#45;Jet/HFDiJetMomImbalance</text>
<text text-anchor="middle" x="3149" y="-88.5" font-family="FreeSans" font-size="10.00" fill="#000000">/BDiJetModule.C</text>
</a>
</g>
</g>
<!-- Node1&#45;&gt;Node21 -->
<g id="edge23" class="edge">
<title>Node1&#45;&gt;Node21</title>
<path fill="none" stroke="#191970" d="M2689.4725,-176.3786C2780.1345,-166.9232 2929.0145,-149.5439 3056,-126 3058.7767,-125.4852 3061.5947,-124.9395 3064.4362,-124.3694"/>
<polygon fill="#191970" stroke="#191970" points="2688.8407,-172.9252 2679.2543,-177.4364 2689.5615,-179.888 2688.8407,-172.9252"/>
</g>
<!-- Node22 -->
<g id="node22" class="node">
<title>Node22</title>
<g id="a_node22"><a xlink:href="../../dd/dfa/BJetModule_8C.html" target="_top" xlink:title="Gether information from Truth Jet and Tracks, DST &#45;&gt; NTuple.">
<polygon fill="none" stroke="#000000" points="3251.5,-81.5 3251.5,-125.5 3422.5,-125.5 3422.5,-81.5 3251.5,-81.5"/>
<text text-anchor="start" x="3259.5" y="-112.5" font-family="FreeSans" font-size="10.00" fill="#000000">analysis/blob/master</text>
<text text-anchor="start" x="3259.5" y="-100.5" font-family="FreeSans" font-size="10.00" fill="#000000">/HF&#45;Jet/HighDCATrackCounting</text>
<text text-anchor="middle" x="3337" y="-88.5" font-family="FreeSans" font-size="10.00" fill="#000000">/BJetModule.C</text>
</a>
</g>
</g>
<!-- Node1&#45;&gt;Node22 -->
<g id="edge24" class="edge">
<title>Node1&#45;&gt;Node22</title>
<path fill="none" stroke="#191970" d="M2689.0589,-180.6781C2811.1173,-174.2028 3045.8222,-158.4805 3243,-126 3245.732,-125.55 3248.5022,-125.0645 3251.2946,-124.55"/>
<polygon fill="#191970" stroke="#191970" points="2688.8387,-177.1847 2679.0352,-181.2025 2689.2044,-184.1752 2688.8387,-177.1847"/>
</g>
<!-- Node23 -->
<g id="node23" class="node">
<title>Node23</title>
<g id="a_node23"><a xlink:href="../../da/d80/HFJetTruthTrigger_8C.html" target="_top" xlink:title="analysis/blob/master\l/HF&#45;Jet/TruthGeneration\l/HFJetTruthTrigger.C">
<polygon fill="none" stroke="#000000" points="3441,-81.5 3441,-125.5 3577,-125.5 3577,-81.5 3441,-81.5"/>
<text text-anchor="start" x="3449" y="-112.5" font-family="FreeSans" font-size="10.00" fill="#000000">analysis/blob/master</text>
<text text-anchor="start" x="3449" y="-100.5" font-family="FreeSans" font-size="10.00" fill="#000000">/HF&#45;Jet/TruthGeneration</text>
<text text-anchor="middle" x="3509" y="-88.5" font-family="FreeSans" font-size="10.00" fill="#000000">/HFJetTruthTrigger.C</text>
</a>
</g>
</g>
<!-- Node1&#45;&gt;Node23 -->
<g id="edge25" class="edge">
<title>Node1&#45;&gt;Node23</title>
<path fill="none" stroke="#191970" d="M2689.3082,-180.864C2869.6121,-172.6254 3291.1093,-151.2739 3432,-126 3434.8787,-125.4836 3437.8033,-124.9005 3440.7469,-124.2651"/>
<polygon fill="#191970" stroke="#191970" points="2688.9148,-177.3782 2679.0842,-181.3289 2689.2329,-184.371 2688.9148,-177.3782"/>
</g>
<!-- Node24 -->
<g id="node24" class="node">
<title>Node24</title>
<g id="a_node24"><a xlink:href="../../da/d55/AnaMvtxTelescopeHits_8C.html" target="_top" xlink:title="Analyze Mvtx 4 ladder cosmic telescope in simulations.">
<polygon fill="none" stroke="#000000" points="3595,-81.5 3595,-125.5 3787,-125.5 3787,-81.5 3595,-81.5"/>
<text text-anchor="start" x="3603" y="-112.5" font-family="FreeSans" font-size="10.00" fill="#000000">analysis/blob/master</text>
<text text-anchor="start" x="3603" y="-100.5" font-family="FreeSans" font-size="10.00" fill="#000000">/MvtxTelescope/AnaMvtxTelescope</text>
<text text-anchor="middle" x="3691" y="-88.5" font-family="FreeSans" font-size="10.00" fill="#000000">Hits/AnaMvtxTelescopeHits.C</text>
</a>
</g>
</g>
<!-- Node1&#45;&gt;Node24 -->
<g id="edge26" class="edge">
<title>Node1&#45;&gt;Node24</title>
<path fill="none" stroke="#191970" d="M2689.3893,-181.1502C2893.4283,-172.6914 3413.693,-149.4667 3586,-126 3588.9556,-125.5975 3591.9519,-125.1574 3594.9723,-124.686"/>
<polygon fill="#191970" stroke="#191970" points="2689.1762,-177.656 2679.3292,-181.5659 2689.4652,-184.65 2689.1762,-177.656"/>
</g>
<!-- Node25 -->
<g id="node25" class="node">
<title>Node25</title>
<g id="a_node25"><a xlink:href="../../de/d7a/SVReco_8C.html" target="_top" xlink:title="analysis/blob/master\l/PhotonConversion/truthconversion\l/SVReco.C">
<polygon fill="none" stroke="#000000" points="3805,-81.5 3805,-125.5 4001,-125.5 4001,-81.5 3805,-81.5"/>
<text text-anchor="start" x="3813" y="-112.5" font-family="FreeSans" font-size="10.00" fill="#000000">analysis/blob/master</text>
<text text-anchor="start" x="3813" y="-100.5" font-family="FreeSans" font-size="10.00" fill="#000000">/PhotonConversion/truthconversion</text>
<text text-anchor="middle" x="3903" y="-88.5" font-family="FreeSans" font-size="10.00" fill="#000000">/SVReco.C</text>
</a>
</g>
</g>
<!-- Node1&#45;&gt;Node25 -->
<g id="edge27" class="edge">
<title>Node1&#45;&gt;Node25</title>
<path fill="none" stroke="#191970" d="M2689.4534,-182.1168C2923.2376,-175.1669 3581.4743,-153.6518 3796,-126 3798.9182,-125.6239 3801.8752,-125.2108 3804.8557,-124.7666"/>
<polygon fill="#191970" stroke="#191970" points="2689.2032,-178.6226 2679.3112,-182.4171 2689.4104,-185.6196 2689.2032,-178.6226"/>
</g>
<!-- Node26 -->
<g id="node26" class="node">
<title>Node26</title>
<g id="a_node26"><a xlink:href="../../d5/db3/PhotonJet_8C.html" target="_top" xlink:title="analysis/blob/master\l/PhotonJet/PhotonJet.C">
<polygon fill="none" stroke="#000000" points="4019,-87.5 4019,-119.5 4149,-119.5 4149,-87.5 4019,-87.5"/>
<text text-anchor="start" x="4027" y="-106.5" font-family="FreeSans" font-size="10.00" fill="#000000">analysis/blob/master</text>
<text text-anchor="middle" x="4084" y="-94.5" font-family="FreeSans" font-size="10.00" fill="#000000">/PhotonJet/PhotonJet.C</text>
</a>
</g>
</g>
<!-- Node1&#45;&gt;Node26 -->
<g id="edge28" class="edge">
<title>Node1&#45;&gt;Node26</title>
<path fill="none" stroke="#191970" d="M2689.2864,-183.7947C2950.849,-181.1444 3753.6735,-169.58 4010,-126 4019.0018,-124.4695 4028.4426,-122.1646 4037.4541,-119.6046"/>
<polygon fill="#191970" stroke="#191970" points="2689.0602,-180.2967 2679.0956,-183.8962 2689.13,-187.2963 2689.0602,-180.2967"/>
</g>
<!-- Node27 -->
<g id="node27" class="node">
<title>Node27</title>
<g id="a_node27"><a xlink:href="../../d0/d4a/Forward__pi0s_8C.html" target="_top" xlink:title="analysis/blob/master\l/PhotonJet/Photons/Forward\l_pi0s.C">
<polygon fill="none" stroke="#000000" points="4167,-81.5 4167,-125.5 4323,-125.5 4323,-81.5 4167,-81.5"/>
<text text-anchor="start" x="4175" y="-112.5" font-family="FreeSans" font-size="10.00" fill="#000000">analysis/blob/master</text>
<text text-anchor="start" x="4175" y="-100.5" font-family="FreeSans" font-size="10.00" fill="#000000">/PhotonJet/Photons/Forward</text>
<text text-anchor="middle" x="4245" y="-88.5" font-family="FreeSans" font-size="10.00" fill="#000000">_pi0s.C</text>
</a>
</g>
</g>
<!-- Node1&#45;&gt;Node27 -->
<g id="edge29" class="edge">
<title>Node1&#45;&gt;Node27</title>
<path fill="none" stroke="#191970" d="M2689.2826,-183.7243C2968.6125,-180.7522 3870.747,-168.0562 4158,-126 4160.9329,-125.5706 4163.9098,-125.081 4166.9078,-124.5425"/>
<polygon fill="#191970" stroke="#191970" points="2689.1771,-180.2251 2679.2145,-183.8301 2689.2507,-187.2247 2689.1771,-180.2251"/>
</g>
<!-- Node28 -->
<g id="node28" class="node">
<title>Node28</title>
<g id="a_node28"><a xlink:href="../../da/da2/Photons_8C.html" target="_top" xlink:title="analysis/blob/master\l/PhotonJet/Photons/Photons.C">
<polygon fill="none" stroke="#000000" points="4341.5,-87.5 4341.5,-119.5 4508.5,-119.5 4508.5,-87.5 4341.5,-87.5"/>
<text text-anchor="start" x="4349.5" y="-106.5" font-family="FreeSans" font-size="10.00" fill="#000000">analysis/blob/master</text>
<text text-anchor="middle" x="4425" y="-94.5" font-family="FreeSans" font-size="10.00" fill="#000000">/PhotonJet/Photons/Photons.C</text>
</a>
</g>
</g>
<!-- Node1&#45;&gt;Node28 -->
<g id="edge30" class="edge">
<title>Node1&#45;&gt;Node28</title>
<path fill="none" stroke="#191970" d="M2689.7732,-183.9174C2989.6716,-181.4798 4009.0508,-170.0713 4332,-126 4343.1922,-124.4727 4355.0003,-122.1692 4366.3074,-119.6097"/>
<polygon fill="#191970" stroke="#191970" points="2689.3824,-180.4203 2679.4107,-184.0004 2689.4385,-187.4201 2689.3824,-180.4203"/>
</g>
<!-- Node29 -->
<g id="node29" class="node">
<title>Node29</title>
<g id="a_node29"><a xlink:href="../../d1/d87/TruthPhotonJet_8C.html" target="_top" xlink:title="analysis/blob/master\l/PhotonJet/TruthPhotonJet\l/TruthPhotonJet.C">
<polygon fill="none" stroke="#000000" points="4526.5,-81.5 4526.5,-125.5 4673.5,-125.5 4673.5,-81.5 4526.5,-81.5"/>
<text text-anchor="start" x="4534.5" y="-112.5" font-family="FreeSans" font-size="10.00" fill="#000000">analysis/blob/master</text>
<text text-anchor="start" x="4534.5" y="-100.5" font-family="FreeSans" font-size="10.00" fill="#000000">/PhotonJet/TruthPhotonJet</text>
<text text-anchor="middle" x="4600" y="-88.5" font-family="FreeSans" font-size="10.00" fill="#000000">/TruthPhotonJet.C</text>
</a>
</g>
</g>
<!-- Node1&#45;&gt;Node29 -->
<g id="edge31" class="edge">
<title>Node1&#45;&gt;Node29</title>
<path fill="none" stroke="#191970" d="M2689.4126,-183.1139C3033.8515,-177.2313 4335.8802,-153.3744 4518,-126 4520.7737,-125.5831 4523.5873,-125.1041 4526.4197,-124.5746"/>
<polygon fill="#191970" stroke="#191970" points="2689.1996,-179.6169 2679.2606,-183.2868 2689.3188,-186.6159 2689.1996,-179.6169"/>
</g>
<!-- Node30 -->
<g id="node30" class="node">
<title>Node30</title>
<g id="a_node30"><a xlink:href="../../d4/da9/TreeMakerCopyAndMakeJets_8C.html" target="_top" xlink:title="analysis/blob/master\l/TreeMaker/TreeMakerCopyAnd\lMakeJets.C">
<polygon fill="none" stroke="#000000" points="4691.5,-81.5 4691.5,-125.5 4864.5,-125.5 4864.5,-81.5 4691.5,-81.5"/>
<text text-anchor="start" x="4699.5" y="-112.5" font-family="FreeSans" font-size="10.00" fill="#000000">analysis/blob/master</text>
<text text-anchor="start" x="4699.5" y="-100.5" font-family="FreeSans" font-size="10.00" fill="#000000">/TreeMaker/TreeMakerCopyAnd</text>
<text text-anchor="middle" x="4778" y="-88.5" font-family="FreeSans" font-size="10.00" fill="#000000">MakeJets.C</text>
</a>
</g>
</g>
<!-- Node1&#45;&gt;Node30 -->
<g id="edge32" class="edge">
<title>Node1&#45;&gt;Node30</title>
<path fill="none" stroke="#191970" d="M2689.2783,-183.161C3051.8259,-177.195 4483.3373,-152.176 4683,-126 4685.7729,-125.6365 4688.583,-125.2263 4691.414,-124.7771"/>
<polygon fill="#191970" stroke="#191970" points="2689.0623,-179.6639 2679.1212,-183.3277 2689.1773,-186.663 2689.0623,-179.6639"/>
</g>
<!-- Node31 -->
<g id="node31" class="node">
<title>Node31</title>
<g id="a_node31"><a xlink:href="../../df/d1f/TreeMakerCreateNode_8C.html" target="_top" xlink:title="analysis/blob/master\l/TreeMaker/TreeMakerCreateNode.C">
<polygon fill="none" stroke="#000000" points="4882.5,-87.5 4882.5,-119.5 5079.5,-119.5 5079.5,-87.5 4882.5,-87.5"/>
<text text-anchor="start" x="4890.5" y="-106.5" font-family="FreeSans" font-size="10.00" fill="#000000">analysis/blob/master</text>
<text text-anchor="middle" x="4981" y="-94.5" font-family="FreeSans" font-size="10.00" fill="#000000">/TreeMaker/TreeMakerCreateNode.C</text>
</a>
</g>
</g>
<!-- Node1&#45;&gt;Node31 -->
<g id="edge33" class="edge">
<title>Node1&#45;&gt;Node31</title>
<path fill="none" stroke="#191970" d="M2689.2405,-183.249C3072.058,-177.3743 4654.1756,-151.7315 4874,-126 4887.0092,-124.4772 4900.7789,-122.1407 4913.954,-119.5398"/>
<polygon fill="#191970" stroke="#191970" points="2689.0178,-179.7519 2679.0726,-183.4047 2689.125,-186.751 2689.0178,-179.7519"/>
</g>
<!-- Node32 -->
<g id="node32" class="node">
<title>Node32</title>
<g id="a_node32"><a xlink:href="../../d9/dd0/TreeMakerGetJets_8C.html" target="_top" xlink:title="analysis/blob/master\l/TreeMaker/TreeMakerGetJets.C">
<polygon fill="none" stroke="#000000" points="5098,-87.5 5098,-119.5 5272,-119.5 5272,-87.5 5098,-87.5"/>
<text text-anchor="start" x="5106" y="-106.5" font-family="FreeSans" font-size="10.00" fill="#000000">analysis/blob/master</text>
<text text-anchor="middle" x="5185" y="-94.5" font-family="FreeSans" font-size="10.00" fill="#000000">/TreeMaker/TreeMakerGetJets.C</text>
</a>
</g>
</g>
<!-- Node1&#45;&gt;Node32 -->
<g id="edge34" class="edge">
<title>Node1&#45;&gt;Node32</title>
<path fill="none" stroke="#191970" d="M2689.4017,-183.5593C3094.4916,-178.8525 4847.145,-156.8542 5089,-126 5100.8016,-124.4944 5113.2708,-122.148 5125.1754,-119.5283"/>
<polygon fill="#191970" stroke="#191970" points="2689.1887,-180.0615 2679.23,-183.6772 2689.2699,-187.061 2689.1887,-180.0615"/>
</g>
<!-- Node33 -->
<g id="node33" class="node">
<title>Node33</title>
<g id="a_node33"><a xlink:href="../../da/dc2/MyJetAnalysis_8cc.html" target="_top" xlink:title="tutorials/blob/master\l/myjetanalysis/src/MyJetAnalysis.cc">
<polygon fill="none" stroke="#000000" points="5290.5,-87.5 5290.5,-119.5 5485.5,-119.5 5485.5,-87.5 5290.5,-87.5"/>
<text text-anchor="start" x="5298.5" y="-106.5" font-family="FreeSans" font-size="10.00" fill="#000000">tutorials/blob/master</text>
<text text-anchor="middle" x="5388" y="-94.5" font-family="FreeSans" font-size="10.00" fill="#000000">/myjetanalysis/src/MyJetAnalysis.cc</text>
</a>
</g>
</g>
<!-- Node1&#45;&gt;Node33 -->
<g id="edge35" class="edge">
<title>Node1&#45;&gt;Node33</title>
<path fill="none" stroke="#191970" d="M2689.2069,-183.5994C3112.6789,-178.8923 5018.7191,-156.1799 5281,-126 5294.1065,-124.4919 5307.9828,-122.1443 5321.2451,-119.5242"/>
<polygon fill="#191970" stroke="#191970" points="2689.1441,-180.0998 2679.1835,-183.7105 2689.2218,-187.0993 2689.1441,-180.0998"/>
</g>
<!-- Node11&#45;&gt;Node2 -->
<g id="edge11" class="edge">
<title>Node11&#45;&gt;Node2</title>
<path fill="none" stroke="#191970" d="M292.1533,-79.9541C252.8564,-68.7855 206.1739,-55.5179 167.5749,-44.5476"/>
<polygon fill="#191970" stroke="#191970" points="291.3996,-83.3784 301.9755,-82.7457 293.3133,-76.6451 291.3996,-83.3784"/>
</g>
<!-- Node11&#45;&gt;Node10 -->
<g id="edge12" class="edge">
<title>Node11&#45;&gt;Node10</title>
<path fill="none" stroke="#191970" d="M339.4558,-74.9943C327.0189,-65.0201 313.2518,-53.9792 301.5653,-44.6068"/>
<polygon fill="#191970" stroke="#191970" points="337.4104,-77.8404 347.4013,-81.3664 341.7899,-72.3796 337.4104,-77.8404"/>
</g>
<!-- Node12 -->
<g id="node12" class="node">
<title>Node12</title>
<g id="a_node12"><a xlink:href="../../d7/d67/JetMapv1_8cc.html" target="_top" xlink:title="coresoftware/blob/master\l/simulation/g4simulation\l/g4jets/JetMapv1.cc">
<polygon fill="none" stroke="#000000" points="368,-.5 368,-44.5 514,-44.5 514,-.5 368,-.5"/>
<text text-anchor="start" x="376" y="-31.5" font-family="FreeSans" font-size="10.00" fill="#000000">coresoftware/blob/master</text>
<text text-anchor="start" x="376" y="-19.5" font-family="FreeSans" font-size="10.00" fill="#000000">/simulation/g4simulation</text>
<text text-anchor="middle" x="441" y="-7.5" font-family="FreeSans" font-size="10.00" fill="#000000">/g4jets/JetMapv1.cc</text>
</a>
</g>
</g>
<!-- Node11&#45;&gt;Node12 -->
<g id="edge13" class="edge">
<title>Node11&#45;&gt;Node12</title>
<path fill="none" stroke="#191970" d="M399.3936,-73.5624C407.2077,-63.9724 415.7139,-53.5329 422.987,-44.6068"/>
<polygon fill="#191970" stroke="#191970" points="396.6382,-71.4032 393.0348,-81.3664 402.0649,-75.8249 396.6382,-71.4032"/>
</g>
<!-- Node11&#45;&gt;Node13 -->
<g id="edge14" class="edge">
<title>Node11&#45;&gt;Node13</title>
<path fill="none" stroke="#191970" d="M447.284,-78.0434C477.8295,-67.2861 513.0615,-54.8783 542.4677,-44.5222"/>
<polygon fill="#191970" stroke="#191970" points="445.8142,-74.8503 437.5447,-81.4734 448.1395,-81.4528 445.8142,-74.8503"/>
</g>
</g>
</svg>
