<?xml version="1.0" encoding="UTF-8" standalone="no"?>
<!DOCTYPE svg PUBLIC "-//W3C//DTD SVG 1.1//EN"
 "http://www.w3.org/Graphics/SVG/1.1/DTD/svg11.dtd">
<!-- Generated by graphviz version 2.40.1 (20161225.0304)
 -->
<!-- Title: PHParametersContainer::Name Pages: 1 -->
<svg width="1007pt" height="947pt"
 viewBox="0.00 0.00 1007.00 947.18" xmlns="http://www.w3.org/2000/svg" xmlns:xlink="http://www.w3.org/1999/xlink">
<g id="graph0" class="graph" transform="scale(1 1) rotate(0) translate(4 943.1821)">
<title>PHParametersContainer::Name</title>
<!-- Node1 -->
<g id="node1" class="node">
<title>Node1</title>
<polygon fill="#bfbfbf" stroke="#000000" points="0,-671.5 0,-703.5 137,-703.5 137,-671.5 0,-671.5"/>
<text text-anchor="start" x="8" y="-690.5" font-family="FreeSans" font-size="10.00" fill="#000000">PHParametersContainer</text>
<text text-anchor="middle" x="68.5" y="-678.5" font-family="FreeSans" font-size="10.00" fill="#000000">::Name</text>
</g>
<!-- Node2 -->
<g id="node2" class="node">
<title>Node2</title>
<g id="a_node2"><a xlink:href="../../da/d11/classPHParameterContainerInterface.html#aecf517f5138dc3f206ac2b8e092aacdb" target="_top" xlink:title="PHParameterContainerInterface\l::CreateInitialize">
<polygon fill="none" stroke="#000000" points="173,-812.5 173,-844.5 349,-844.5 349,-812.5 173,-812.5"/>
<text text-anchor="start" x="181" y="-831.5" font-family="FreeSans" font-size="10.00" fill="#000000">PHParameterContainerInterface</text>
<text text-anchor="middle" x="261" y="-819.5" font-family="FreeSans" font-size="10.00" fill="#000000">::CreateInitialize</text>
</a>
</g>
</g>
<!-- Node1&#45;&gt;Node2 -->
<g id="edge1" class="edge">
<title>Node1&#45;&gt;Node2</title>
<path fill="none" stroke="#191970" d="M85.9669,-711.7577C104.8881,-736.4534 137.2064,-774.3109 173,-797.5 182.1083,-803.4008 192.4766,-808.3364 202.8216,-812.4076"/>
<polygon fill="#191970" stroke="#191970" points="88.6549,-709.5086 79.8492,-703.6171 83.0589,-713.714 88.6549,-709.5086"/>
</g>
<!-- Node4 -->
<g id="node4" class="node">
<title>Node4</title>
<g id="a_node4"><a xlink:href="../../df/d5e/classPHG4BlockCellReco.html#aa62bbe31407e5e4c80f541dbd5c18aa4" target="_top" xlink:title="module initialization">
<polygon fill="none" stroke="#000000" points="601,-863.5 601,-895.5 722,-895.5 722,-863.5 601,-863.5"/>
<text text-anchor="start" x="609" y="-882.5" font-family="FreeSans" font-size="10.00" fill="#000000">PHG4BlockCellReco::</text>
<text text-anchor="middle" x="661.5" y="-870.5" font-family="FreeSans" font-size="10.00" fill="#000000">InitRun</text>
</a>
</g>
</g>
<!-- Node1&#45;&gt;Node4 -->
<g id="edge10" class="edge">
<title>Node1&#45;&gt;Node4</title>
<path fill="none" stroke="#191970" d="M73.7024,-713.7337C84.0146,-758.0445 111.5827,-846.8506 173,-887.5 311.9874,-979.4896 525.42,-925.5474 617.1247,-895.5034"/>
<polygon fill="#191970" stroke="#191970" points="77.068,-712.7428 71.4942,-703.7326 70.2326,-714.252 77.068,-712.7428"/>
</g>
<!-- Node5 -->
<g id="node5" class="node">
<title>Node5</title>
<g id="a_node5"><a xlink:href="../../d5/dd0/classPHG4CylinderCellReco.html#ada869396a39d11561fcbb85572446310" target="_top" xlink:title="module initialization">
<polygon fill="none" stroke="#000000" points="597,-812.5 597,-844.5 726,-844.5 726,-812.5 597,-812.5"/>
<text text-anchor="start" x="605" y="-831.5" font-family="FreeSans" font-size="10.00" fill="#000000">PHG4CylinderCellReco</text>
<text text-anchor="middle" x="661.5" y="-819.5" font-family="FreeSans" font-size="10.00" fill="#000000">::InitRun</text>
</a>
</g>
</g>
<!-- Node1&#45;&gt;Node5 -->
<g id="edge11" class="edge">
<title>Node1&#45;&gt;Node5</title>
<path fill="none" stroke="#191970" d="M92.1796,-710.4709C112.04,-728.2221 142.0523,-751.6924 173,-763.5 334.9278,-825.2811 390.3843,-772.0402 561,-802.5 575.637,-805.1131 591.2774,-808.7422 605.7544,-812.4611"/>
<polygon fill="#191970" stroke="#191970" points="94.3115,-707.6774 84.5729,-703.5049 89.5839,-712.8398 94.3115,-707.6774"/>
</g>
<!-- Node6 -->
<g id="node6" class="node">
<title>Node6</title>
<g id="a_node6"><a xlink:href="../../da/d11/classPHParameterContainerInterface.html#abeab8c823392160c59576ae18fa2f290" target="_top" xlink:title="PHParameterContainerInterface\l::get_double_param">
<polygon fill="none" stroke="#000000" points="385,-863.5 385,-895.5 561,-895.5 561,-863.5 385,-863.5"/>
<text text-anchor="start" x="393" y="-882.5" font-family="FreeSans" font-size="10.00" fill="#000000">PHParameterContainerInterface</text>
<text text-anchor="middle" x="473" y="-870.5" font-family="FreeSans" font-size="10.00" fill="#000000">::get_double_param</text>
</a>
</g>
</g>
<!-- Node1&#45;&gt;Node6 -->
<g id="edge5" class="edge">
<title>Node1&#45;&gt;Node6</title>
<path fill="none" stroke="#191970" d="M76.5055,-713.3526C89.7794,-751.3708 120.2494,-821.3248 173,-853.5 236.265,-892.0884 321.4477,-895.9147 384.8792,-891.6441"/>
<polygon fill="#191970" stroke="#191970" points="79.7109,-711.9028 73.2133,-703.5343 73.0741,-714.1282 79.7109,-711.9028"/>
</g>
<!-- Node7 -->
<g id="node7" class="node">
<title>Node7</title>
<g id="a_node7"><a xlink:href="../../da/d11/classPHParameterContainerInterface.html#a350d2a032faed767896cfd4a762595b6" target="_top" xlink:title="PHParameterContainerInterface\l::get_int_param">
<polygon fill="none" stroke="#000000" points="173,-722.5 173,-754.5 349,-754.5 349,-722.5 173,-722.5"/>
<text text-anchor="start" x="181" y="-741.5" font-family="FreeSans" font-size="10.00" fill="#000000">PHParameterContainerInterface</text>
<text text-anchor="middle" x="261" y="-729.5" font-family="FreeSans" font-size="10.00" fill="#000000">::get_int_param</text>
</a>
</g>
</g>
<!-- Node1&#45;&gt;Node7 -->
<g id="edge8" class="edge">
<title>Node1&#45;&gt;Node7</title>
<path fill="none" stroke="#191970" d="M138.887,-706.148C159.036,-711.4862 180.8183,-717.2571 200.3302,-722.4264"/>
<polygon fill="#191970" stroke="#191970" points="139.7069,-702.7445 129.144,-703.5667 137.9141,-709.5111 139.7069,-702.7445"/>
</g>
<!-- Node8 -->
<g id="node8" class="node">
<title>Node8</title>
<g id="a_node8"><a xlink:href="../../da/d11/classPHParameterContainerInterface.html#a639943304ffbd603fd9b7f0be27cbf23" target="_top" xlink:title="PHParameterContainerInterface\l::get_string_param">
<polygon fill="none" stroke="#000000" points="173,-671.5 173,-703.5 349,-703.5 349,-671.5 173,-671.5"/>
<text text-anchor="start" x="181" y="-690.5" font-family="FreeSans" font-size="10.00" fill="#000000">PHParameterContainerInterface</text>
<text text-anchor="middle" x="261" y="-678.5" font-family="FreeSans" font-size="10.00" fill="#000000">::get_string_param</text>
</a>
</g>
</g>
<!-- Node1&#45;&gt;Node8 -->
<g id="edge9" class="edge">
<title>Node1&#45;&gt;Node8</title>
<path fill="none" stroke="#191970" d="M147.3276,-687.5C155.7348,-687.5 164.3255,-687.5 172.8315,-687.5"/>
<polygon fill="#191970" stroke="#191970" points="147.1817,-684.0001 137.1816,-687.5 147.1816,-691.0001 147.1817,-684.0001"/>
</g>
<!-- Node9 -->
<g id="node9" class="node">
<title>Node9</title>
<g id="a_node9"><a xlink:href="../../d7/d7f/classPHG4DetectorGroupSubsystem.html#a9c1bbc352e506b9b598fcd4d34ea279e" target="_top" xlink:title="PHG4DetectorGroupSubsystem\l::InitRun">
<polygon fill="none" stroke="#000000" points="173.5,-620.5 173.5,-652.5 348.5,-652.5 348.5,-620.5 173.5,-620.5"/>
<text text-anchor="start" x="181.5" y="-639.5" font-family="FreeSans" font-size="10.00" fill="#000000">PHG4DetectorGroupSubsystem</text>
<text text-anchor="middle" x="261" y="-627.5" font-family="FreeSans" font-size="10.00" fill="#000000">::InitRun</text>
</a>
</g>
</g>
<!-- Node1&#45;&gt;Node9 -->
<g id="edge12" class="edge">
<title>Node1&#45;&gt;Node9</title>
<path fill="none" stroke="#191970" d="M138.887,-668.852C159.036,-663.5138 180.8183,-657.7429 200.3302,-652.5736"/>
<polygon fill="#191970" stroke="#191970" points="137.9141,-665.4889 129.144,-671.4333 139.7069,-672.2555 137.9141,-665.4889"/>
</g>
<!-- Node10 -->
<g id="node10" class="node">
<title>Node10</title>
<g id="a_node10"><a xlink:href="../../d7/d6b/classPHParametersContainer.html#a8525a68e20501d4fcab08b9181a0394a" target="_top" xlink:title="PHParametersContainer\l::Print">
<polygon fill="none" stroke="#000000" points="192.5,-569.5 192.5,-601.5 329.5,-601.5 329.5,-569.5 192.5,-569.5"/>
<text text-anchor="start" x="200.5" y="-588.5" font-family="FreeSans" font-size="10.00" fill="#000000">PHParametersContainer</text>
<text text-anchor="middle" x="261" y="-576.5" font-family="FreeSans" font-size="10.00" fill="#000000">::Print</text>
</a>
</g>
</g>
<!-- Node1&#45;&gt;Node10 -->
<g id="edge13" class="edge">
<title>Node1&#45;&gt;Node10</title>
<path fill="none" stroke="#191970" d="M93.8464,-664.7461C114.0244,-647.6851 143.6571,-624.8888 173,-610.5 179.8449,-607.1435 187.2166,-604.1668 194.6771,-601.5454"/>
<polygon fill="#191970" stroke="#191970" points="91.3694,-662.26 86.0701,-671.4343 95.9339,-667.5671 91.3694,-662.26"/>
</g>
<!-- Node15 -->
<g id="node15" class="node">
<title>Node15</title>
<g id="a_node15"><a xlink:href="../../da/d11/classPHParameterContainerInterface.html#a2a28e69d116516f52e2848a9a6a6f50a" target="_top" xlink:title="PHParameterContainerInterface\l::set_double_param">
<polygon fill="none" stroke="#000000" points="173,-493.5 173,-525.5 349,-525.5 349,-493.5 173,-493.5"/>
<text text-anchor="start" x="181" y="-512.5" font-family="FreeSans" font-size="10.00" fill="#000000">PHParameterContainerInterface</text>
<text text-anchor="middle" x="261" y="-500.5" font-family="FreeSans" font-size="10.00" fill="#000000">::set_double_param</text>
</a>
</g>
</g>
<!-- Node1&#45;&gt;Node15 -->
<g id="edge18" class="edge">
<title>Node1&#45;&gt;Node15</title>
<path fill="none" stroke="#191970" d="M84.6053,-662.6623C103.3973,-635.0409 136.5744,-590.2689 173,-559.5 188.974,-546.0067 209.1122,-534.2539 226.0915,-525.5392"/>
<polygon fill="#191970" stroke="#191970" points="81.4584,-661.0711 78.7999,-671.327 87.2738,-664.9675 81.4584,-661.0711"/>
</g>
<!-- Node41 -->
<g id="node41" class="node">
<title>Node41</title>
<g id="a_node41"><a xlink:href="../../da/d11/classPHParameterContainerInterface.html#a811c1a969df37849c793dad8771381e6" target="_top" xlink:title="PHParameterContainerInterface\l::set_int_param">
<polygon fill="none" stroke="#000000" points="173,-442.5 173,-474.5 349,-474.5 349,-442.5 173,-442.5"/>
<text text-anchor="start" x="181" y="-461.5" font-family="FreeSans" font-size="10.00" fill="#000000">PHParameterContainerInterface</text>
<text text-anchor="middle" x="261" y="-449.5" font-family="FreeSans" font-size="10.00" fill="#000000">::set_int_param</text>
</a>
</g>
</g>
<!-- Node1&#45;&gt;Node41 -->
<g id="edge44" class="edge">
<title>Node1&#45;&gt;Node41</title>
<path fill="none" stroke="#191970" d="M74.5454,-661.6896C86.0614,-618.2955 115.3067,-530.8353 173,-483.5 177.1747,-480.0748 181.7927,-477.1185 186.6627,-474.5668"/>
<polygon fill="#191970" stroke="#191970" points="71.129,-660.923 72.0524,-671.4775 77.9124,-662.6508 71.129,-660.923"/>
</g>
<!-- Node42 -->
<g id="node42" class="node">
<title>Node42</title>
<g id="a_node42"><a xlink:href="../../da/d11/classPHParameterContainerInterface.html#ae977deb9105f6cb63e012bdc0a0760a7" target="_top" xlink:title="PHParameterContainerInterface\l::set_string_param">
<polygon fill="none" stroke="#000000" points="173,-391.5 173,-423.5 349,-423.5 349,-391.5 173,-391.5"/>
<text text-anchor="start" x="181" y="-410.5" font-family="FreeSans" font-size="10.00" fill="#000000">PHParameterContainerInterface</text>
<text text-anchor="middle" x="261" y="-398.5" font-family="FreeSans" font-size="10.00" fill="#000000">::set_string_param</text>
</a>
</g>
</g>
<!-- Node1&#45;&gt;Node42 -->
<g id="edge45" class="edge">
<title>Node1&#45;&gt;Node42</title>
<path fill="none" stroke="#191970" d="M71.6639,-661.28C79.3023,-609.6737 103.5601,-494.5596 173,-432.5 176.7895,-429.1133 181.0066,-426.1826 185.4852,-423.6469"/>
<polygon fill="#191970" stroke="#191970" points="68.1831,-660.9002 70.2759,-671.2863 75.1167,-661.8621 68.1831,-660.9002"/>
</g>
<!-- Node3 -->
<g id="node3" class="node">
<title>Node3</title>
<g id="a_node3"><a xlink:href="../../da/d11/classPHParameterContainerInterface.html#a23926b47f33ef3c8dcf8fcfda7891341" target="_top" xlink:title="PHParameterContainerInterface\l::UpdateParametersWithMacro">
<polygon fill="none" stroke="#000000" points="385,-812.5 385,-844.5 561,-844.5 561,-812.5 385,-812.5"/>
<text text-anchor="start" x="393" y="-831.5" font-family="FreeSans" font-size="10.00" fill="#000000">PHParameterContainerInterface</text>
<text text-anchor="middle" x="473" y="-819.5" font-family="FreeSans" font-size="10.00" fill="#000000">::UpdateParametersWithMacro</text>
</a>
</g>
</g>
<!-- Node2&#45;&gt;Node3 -->
<g id="edge2" class="edge">
<title>Node2&#45;&gt;Node3</title>
<path fill="none" stroke="#191970" d="M359.1073,-828.5C367.7003,-828.5 376.363,-828.5 384.8676,-828.5"/>
<polygon fill="#191970" stroke="#191970" points="359.0654,-825.0001 349.0653,-828.5 359.0653,-832.0001 359.0654,-825.0001"/>
</g>
<!-- Node3&#45;&gt;Node4 -->
<g id="edge3" class="edge">
<title>Node3&#45;&gt;Node4</title>
<path fill="none" stroke="#191970" d="M542.1936,-847.2208C561.8486,-852.5386 583.0713,-858.2806 602.0909,-863.4264"/>
<polygon fill="#191970" stroke="#191970" points="542.9509,-843.7999 532.3838,-844.5667 541.1227,-850.557 542.9509,-843.7999"/>
</g>
<!-- Node3&#45;&gt;Node5 -->
<g id="edge4" class="edge">
<title>Node3&#45;&gt;Node5</title>
<path fill="none" stroke="#191970" d="M571.2988,-828.5C579.9163,-828.5 588.4886,-828.5 596.7269,-828.5"/>
<polygon fill="#191970" stroke="#191970" points="571.1791,-825.0001 561.179,-828.5 571.179,-832.0001 571.1791,-825.0001"/>
</g>
<!-- Node6&#45;&gt;Node4 -->
<g id="edge6" class="edge">
<title>Node6&#45;&gt;Node4</title>
<path fill="none" stroke="#191970" d="M571.2538,-879.5C581.3253,-879.5 591.3357,-879.5 600.8239,-879.5"/>
<polygon fill="#191970" stroke="#191970" points="571.1791,-876.0001 561.179,-879.5 571.179,-883.0001 571.1791,-876.0001"/>
</g>
<!-- Node6&#45;&gt;Node5 -->
<g id="edge7" class="edge">
<title>Node6&#45;&gt;Node5</title>
<path fill="none" stroke="#191970" d="M542.1936,-860.7792C561.8486,-855.4614 583.0713,-849.7194 602.0909,-844.5736"/>
<polygon fill="#191970" stroke="#191970" points="541.1227,-857.443 532.3838,-863.4333 542.9509,-864.2001 541.1227,-857.443"/>
</g>
<!-- Node11 -->
<g id="node11" class="node">
<title>Node11</title>
<g id="a_node11"><a xlink:href="../../dd/d21/classPHG4PSTOFSubsystem.html#aa50757e48e954742172c8a1aa92e4c29" target="_top" xlink:title="Print info (from SubsysReco)">
<polygon fill="none" stroke="#000000" points="407,-569.5 407,-601.5 539,-601.5 539,-569.5 407,-569.5"/>
<text text-anchor="start" x="415" y="-588.5" font-family="FreeSans" font-size="10.00" fill="#000000">PHG4PSTOFSubsystem</text>
<text text-anchor="middle" x="473" y="-576.5" font-family="FreeSans" font-size="10.00" fill="#000000">::Print</text>
</a>
</g>
</g>
<!-- Node10&#45;&gt;Node11 -->
<g id="edge14" class="edge">
<title>Node10&#45;&gt;Node11</title>
<path fill="none" stroke="#191970" d="M339.5696,-585.5C361.6996,-585.5 385.5425,-585.5 406.8659,-585.5"/>
<polygon fill="#191970" stroke="#191970" points="339.5376,-582.0001 329.5376,-585.5 339.5375,-589.0001 339.5376,-582.0001"/>
</g>
<!-- Node12 -->
<g id="node12" class="node">
<title>Node12</title>
<g id="a_node12"><a xlink:href="../../d6/d09/classPHG4InttSubsystem.html#a00e13bc9199d51a30caa5f87a5f2acec" target="_top" xlink:title="PHG4InttSubsystem::\lPrint">
<polygon fill="none" stroke="#000000" points="411.5,-722.5 411.5,-754.5 534.5,-754.5 534.5,-722.5 411.5,-722.5"/>
<text text-anchor="start" x="419.5" y="-741.5" font-family="FreeSans" font-size="10.00" fill="#000000">PHG4InttSubsystem::</text>
<text text-anchor="middle" x="473" y="-729.5" font-family="FreeSans" font-size="10.00" fill="#000000">Print</text>
</a>
</g>
</g>
<!-- Node10&#45;&gt;Node12 -->
<g id="edge15" class="edge">
<title>Node10&#45;&gt;Node12</title>
<path fill="none" stroke="#191970" d="M338.7669,-602.6763C342.4294,-604.9692 345.8745,-607.564 349,-610.5 384.0389,-643.4148 350.1341,-679.402 385,-712.5 392.3944,-719.5195 401.5916,-724.6542 411.2281,-728.4079"/>
<polygon fill="#191970" stroke="#191970" points="340.3339,-599.5446 329.8746,-597.8556 336.9978,-605.6985 340.3339,-599.5446"/>
</g>
<!-- Node13 -->
<g id="node13" class="node">
<title>Node13</title>
<g id="a_node13"><a xlink:href="../../d9/dbf/classPHG4MvtxSubsystem.html#a189efac53cac8a58715d177c664d74c9" target="_top" xlink:title="InitRunSubsystem.">
<polygon fill="none" stroke="#000000" points="407.5,-671.5 407.5,-703.5 538.5,-703.5 538.5,-671.5 407.5,-671.5"/>
<text text-anchor="start" x="415.5" y="-690.5" font-family="FreeSans" font-size="10.00" fill="#000000">PHG4MvtxSubsystem::</text>
<text text-anchor="middle" x="473" y="-678.5" font-family="FreeSans" font-size="10.00" fill="#000000">InitRunSubsystem</text>
</a>
</g>
</g>
<!-- Node10&#45;&gt;Node13 -->
<g id="edge16" class="edge">
<title>Node10&#45;&gt;Node13</title>
<path fill="none" stroke="#191970" d="M339.202,-604.4737C342.6153,-606.3016 345.902,-608.3048 349,-610.5 371.6378,-626.5408 362.4466,-645.3407 385,-661.5 391.7339,-666.3248 399.363,-670.2622 407.2458,-673.4738"/>
<polygon fill="#191970" stroke="#191970" points="340.4456,-601.1888 329.914,-600.0329 337.4261,-607.5041 340.4456,-601.1888"/>
</g>
<!-- Node14 -->
<g id="node14" class="node">
<title>Node14</title>
<g id="a_node14"><a xlink:href="../../d7/ddb/classPHG4TpcElectronDrift.html#a14a3483e3de7a9a5cb6a4434cba1835c" target="_top" xlink:title="PHG4TpcElectronDrift\l::InitRun">
<polygon fill="none" stroke="#000000" points="410,-620.5 410,-652.5 536,-652.5 536,-620.5 410,-620.5"/>
<text text-anchor="start" x="418" y="-639.5" font-family="FreeSans" font-size="10.00" fill="#000000">PHG4TpcElectronDrift</text>
<text text-anchor="middle" x="473" y="-627.5" font-family="FreeSans" font-size="10.00" fill="#000000">::InitRun</text>
</a>
</g>
</g>
<!-- Node10&#45;&gt;Node14 -->
<g id="edge17" class="edge">
<title>Node10&#45;&gt;Node14</title>
<path fill="none" stroke="#191970" d="M337.7775,-603.97C361.4245,-609.6587 387.1762,-615.8537 409.8012,-621.2965"/>
<polygon fill="#191970" stroke="#191970" points="338.3284,-600.5028 327.7871,-601.5667 336.6911,-607.3086 338.3284,-600.5028"/>
</g>
<!-- Node16 -->
<g id="node16" class="node">
<title>Node16</title>
<g id="a_node16"><a xlink:href="../../d5/dd0/classPHG4CylinderCellReco.html#a8e774e299dece3ffe63a748793c87cc1" target="_top" xlink:title="PHG4CylinderCellReco\l::cellsize">
<polygon fill="none" stroke="#000000" points="408.5,-314.5 408.5,-346.5 537.5,-346.5 537.5,-314.5 408.5,-314.5"/>
<text text-anchor="start" x="416.5" y="-333.5" font-family="FreeSans" font-size="10.00" fill="#000000">PHG4CylinderCellReco</text>
<text text-anchor="middle" x="473" y="-321.5" font-family="FreeSans" font-size="10.00" fill="#000000">::cellsize</text>
</a>
</g>
</g>
<!-- Node15&#45;&gt;Node16 -->
<g id="edge19" class="edge">
<title>Node15&#45;&gt;Node16</title>
<path fill="none" stroke="#191970" d="M344.5022,-487.6027C346.0702,-486.3118 347.5732,-484.9456 349,-483.5 390.5123,-441.4397 343.2678,-397.3422 385,-355.5 391.5051,-348.9777 399.5797,-344.1276 408.1787,-340.5267"/>
<polygon fill="#191970" stroke="#191970" points="342.3452,-484.8406 336.1718,-493.4511 346.3673,-490.5697 342.3452,-484.8406"/>
</g>
<!-- Node36 -->
<g id="node36" class="node">
<title>Node36</title>
<g id="a_node36"><a xlink:href="../../d5/dd0/classPHG4CylinderCellReco.html#abbd15ecbd41cf3e68196cbcab1fd4e2c" target="_top" xlink:title="PHG4CylinderCellReco\l::etaphisize">
<polygon fill="none" stroke="#000000" points="408.5,-518.5 408.5,-550.5 537.5,-550.5 537.5,-518.5 408.5,-518.5"/>
<text text-anchor="start" x="416.5" y="-537.5" font-family="FreeSans" font-size="10.00" fill="#000000">PHG4CylinderCellReco</text>
<text text-anchor="middle" x="473" y="-525.5" font-family="FreeSans" font-size="10.00" fill="#000000">::etaphisize</text>
</a>
</g>
</g>
<!-- Node15&#45;&gt;Node36 -->
<g id="edge39" class="edge">
<title>Node15&#45;&gt;Node36</title>
<path fill="none" stroke="#191970" d="M359.3929,-521.1029C376.0557,-523.0679 392.9705,-525.0626 408.4789,-526.8914"/>
<polygon fill="#191970" stroke="#191970" points="359.4064,-517.5804 349.0653,-519.8851 358.5866,-524.5322 359.4064,-517.5804"/>
</g>
<!-- Node38 -->
<g id="node38" class="node">
<title>Node38</title>
<g id="a_node38"><a xlink:href="../../df/d5e/classPHG4BlockCellReco.html#a5d39419017e6f11365c09ccd90c6b40e" target="_top" xlink:title="PHG4BlockCellReco::\letaxsize">
<polygon fill="none" stroke="#000000" points="412.5,-467.5 412.5,-499.5 533.5,-499.5 533.5,-467.5 412.5,-467.5"/>
<text text-anchor="start" x="420.5" y="-486.5" font-family="FreeSans" font-size="10.00" fill="#000000">PHG4BlockCellReco::</text>
<text text-anchor="middle" x="473" y="-474.5" font-family="FreeSans" font-size="10.00" fill="#000000">etaxsize</text>
</a>
</g>
</g>
<!-- Node15&#45;&gt;Node38 -->
<g id="edge41" class="edge">
<title>Node15&#45;&gt;Node38</title>
<path fill="none" stroke="#191970" d="M359.0965,-497.4693C377.2345,-495.2448 395.6829,-492.9823 412.3014,-490.9442"/>
<polygon fill="#191970" stroke="#191970" points="358.5649,-494.0082 349.0653,-498.6995 359.417,-500.9561 358.5649,-494.0082"/>
</g>
<!-- Node39 -->
<g id="node39" class="node">
<title>Node39</title>
<g id="a_node39"><a xlink:href="../../df/d5e/classPHG4BlockCellReco.html#a813c41dc4a623c245426661905304e41" target="_top" xlink:title="PHG4BlockCellReco::\lset_timing_window">
<polygon fill="none" stroke="#000000" points="412.5,-416.5 412.5,-448.5 533.5,-448.5 533.5,-416.5 412.5,-416.5"/>
<text text-anchor="start" x="420.5" y="-435.5" font-family="FreeSans" font-size="10.00" fill="#000000">PHG4BlockCellReco::</text>
<text text-anchor="middle" x="473" y="-423.5" font-family="FreeSans" font-size="10.00" fill="#000000">set_timing_window</text>
</a>
</g>
</g>
<!-- Node15&#45;&gt;Node39 -->
<g id="edge42" class="edge">
<title>Node15&#45;&gt;Node39</title>
<path fill="none" stroke="#191970" d="M334.5715,-489.8314C339.5277,-487.8766 344.3815,-485.7675 349,-483.5 366.7165,-474.802 367.2381,-466.105 385,-457.5 393.576,-453.3452 402.966,-449.7647 412.3173,-446.7175"/>
<polygon fill="#191970" stroke="#191970" points="333.1073,-486.6414 324.949,-493.401 335.542,-493.2043 333.1073,-486.6414"/>
</g>
<!-- Node40 -->
<g id="node40" class="node">
<title>Node40</title>
<g id="a_node40"><a xlink:href="../../d5/dd0/classPHG4CylinderCellReco.html#a2ab7baca05738b086177de3cea8928d1" target="_top" xlink:title="PHG4CylinderCellReco\l::set_timing_window">
<polygon fill="none" stroke="#000000" points="408.5,-365.5 408.5,-397.5 537.5,-397.5 537.5,-365.5 408.5,-365.5"/>
<text text-anchor="start" x="416.5" y="-384.5" font-family="FreeSans" font-size="10.00" fill="#000000">PHG4CylinderCellReco</text>
<text text-anchor="middle" x="473" y="-372.5" font-family="FreeSans" font-size="10.00" fill="#000000">::set_timing_window</text>
</a>
</g>
</g>
<!-- Node15&#45;&gt;Node40 -->
<g id="edge43" class="edge">
<title>Node15&#45;&gt;Node40</title>
<path fill="none" stroke="#191970" d="M342.8421,-488.2259C344.9853,-486.7546 347.045,-485.1817 349,-483.5 377.6401,-458.8646 356.2311,-430.985 385,-406.5 391.7731,-400.7354 399.7939,-396.2966 408.1925,-392.8793"/>
<polygon fill="#191970" stroke="#191970" points="340.9775,-485.263 334.2058,-493.4113 344.5809,-491.2643 340.9775,-485.263"/>
</g>
<!-- Node17 -->
<g id="node17" class="node">
<title>Node17</title>
<g id="a_node17"><a xlink:href="../../d8/d4c/G4__CEmc__EIC_8C.html#ab555024f512a193bc7b10d42a92453c8" target="_top" xlink:title="CEMC_Cells">
<polygon fill="none" stroke="#000000" points="624.5,-340.5 624.5,-360.5 698.5,-360.5 698.5,-340.5 624.5,-340.5"/>
<text text-anchor="middle" x="661.5" y="-347.5" font-family="FreeSans" font-size="10.00" fill="#000000">CEMC_Cells</text>
</a>
</g>
</g>
<!-- Node16&#45;&gt;Node17 -->
<g id="edge20" class="edge">
<title>Node16&#45;&gt;Node17</title>
<path fill="none" stroke="#191970" d="M547.6009,-338.4152C573.9991,-341.2161 602.5494,-344.2453 624.4623,-346.5703"/>
<polygon fill="#191970" stroke="#191970" points="547.9208,-334.9296 537.6073,-337.3549 547.1822,-341.8905 547.9208,-334.9296"/>
</g>
<!-- Node35 -->
<g id="node35" class="node">
<title>Node35</title>
<g id="a_node35"><a xlink:href="../../da/d2a/G4__Svtx_8C.html#a00bd04a6f4913969f594f34ed348c1f7" target="_top" xlink:title="Svtx_Cells">
<polygon fill="none" stroke="#000000" points="627.5,-301.5 627.5,-321.5 695.5,-321.5 695.5,-301.5 627.5,-301.5"/>
<text text-anchor="middle" x="661.5" y="-308.5" font-family="FreeSans" font-size="10.00" fill="#000000">Svtx_Cells</text>
</a>
</g>
</g>
<!-- Node16&#45;&gt;Node35 -->
<g id="edge38" class="edge">
<title>Node16&#45;&gt;Node35</title>
<path fill="none" stroke="#191970" d="M547.6471,-322.9759C575.2365,-320.195 605.1706,-317.1778 627.4182,-314.9353"/>
<polygon fill="#191970" stroke="#191970" points="547.2058,-319.5025 537.6073,-323.9879 547.9079,-326.4672 547.2058,-319.5025"/>
</g>
<!-- Node18 -->
<g id="node18" class="node">
<title>Node18</title>
<g id="a_node18"><a xlink:href="../../d3/d7f/Fun_8C.html#af0d3c8a78765149fef9b2beeecfc6279" target="_top" xlink:title="ConfigureDetectors">
<polygon fill="none" stroke="#000000" points="788.5,-657.5 788.5,-677.5 902.5,-677.5 902.5,-657.5 788.5,-657.5"/>
<text text-anchor="middle" x="845.5" y="-664.5" font-family="FreeSans" font-size="10.00" fill="#000000">ConfigureDetectors</text>
</a>
</g>
</g>
<!-- Node17&#45;&gt;Node18 -->
<g id="edge21" class="edge">
<title>Node17&#45;&gt;Node18</title>
<path fill="none" stroke="#191970" d="M670.0635,-370.1924C683.1533,-400.7242 708.4624,-461.4946 726,-514.5 745.236,-572.6386 718.0694,-604.8359 762,-647.5 769.2716,-654.562 778.5717,-659.2834 788.3095,-662.4094"/>
<polygon fill="#191970" stroke="#191970" points="673.1506,-368.5122 665.9759,-360.7163 666.7231,-371.2848 673.1506,-368.5122"/>
</g>
<!-- Node20 -->
<g id="node20" class="node">
<title>Node20</title>
<g id="a_node20"><a xlink:href="../../da/d02/Fun4All__G4__EICDetector_8C.html#afbe82cefa1d1fd031d9a8586b7bb68c6" target="_top" xlink:title="Fun4All_G4_EICDetector">
<polygon fill="none" stroke="#000000" points="776,-618.5 776,-638.5 915,-638.5 915,-618.5 776,-618.5"/>
<text text-anchor="middle" x="845.5" y="-625.5" font-family="FreeSans" font-size="10.00" fill="#000000">Fun4All_G4_EICDetector</text>
</a>
</g>
</g>
<!-- Node17&#45;&gt;Node20 -->
<g id="edge23" class="edge">
<title>Node17&#45;&gt;Node20</title>
<path fill="none" stroke="#191970" d="M669.4045,-370.4292C681.6234,-401.2738 705.7986,-462.4516 726,-514.5 742.1871,-556.2056 728.3687,-578.9989 762,-608.5 766.5945,-612.5303 771.8591,-615.7826 777.4614,-618.4028"/>
<polygon fill="#191970" stroke="#191970" points="672.5458,-368.8555 665.6073,-360.8488 666.0383,-371.4348 672.5458,-368.8555"/>
</g>
<!-- Node21 -->
<g id="node21" class="node">
<title>Node21</title>
<g id="a_node21"><a xlink:href="../../dd/d2a/Fun4All__G4__EICDetector__LQ_8C.html#aaa01242fd6e77ca43a9d49a6d46008e4" target="_top" xlink:title="Fun4All_G4_EICDetector_LQ">
<polygon fill="none" stroke="#000000" points="767.5,-579.5 767.5,-599.5 923.5,-599.5 923.5,-579.5 767.5,-579.5"/>
<text text-anchor="middle" x="845.5" y="-586.5" font-family="FreeSans" font-size="10.00" fill="#000000">Fun4All_G4_EICDetector_LQ</text>
</a>
</g>
</g>
<!-- Node17&#45;&gt;Node21 -->
<g id="edge24" class="edge">
<title>Node17&#45;&gt;Node21</title>
<path fill="none" stroke="#191970" d="M669.3605,-370.143C689.9994,-421.3231 745.2905,-555.77 762,-569.5 766.9524,-573.5693 772.5969,-576.8359 778.5614,-579.4546"/>
<polygon fill="#191970" stroke="#191970" points="672.4853,-368.5324 665.5086,-360.559 665.9903,-371.1428 672.4853,-368.5324"/>
</g>
<!-- Node22 -->
<g id="node22" class="node">
<title>Node22</title>
<g id="a_node22"><a xlink:href="../../d4/df5/Fun4All__G4__EICDetector__LQ__reference_8C.html#a2feefc472f17f90b3cbe74897d049f75" target="_top" xlink:title="Fun4All_G4_EICDetector\l_LQ_reference">
<polygon fill="none" stroke="#000000" points="776,-528.5 776,-560.5 915,-560.5 915,-528.5 776,-528.5"/>
<text text-anchor="start" x="784" y="-547.5" font-family="FreeSans" font-size="10.00" fill="#000000">Fun4All_G4_EICDetector</text>
<text text-anchor="middle" x="845.5" y="-535.5" font-family="FreeSans" font-size="10.00" fill="#000000">_LQ_reference</text>
</a>
</g>
</g>
<!-- Node17&#45;&gt;Node22 -->
<g id="edge25" class="edge">
<title>Node17&#45;&gt;Node22</title>
<path fill="none" stroke="#191970" d="M667.9154,-370.1054C680.3739,-405.1251 711.1718,-478.4972 762,-518.5 766.8918,-522.3499 772.3584,-525.6336 778.0903,-528.4336"/>
<polygon fill="#191970" stroke="#191970" points="671.1921,-368.8706 664.6359,-360.548 664.5711,-371.1426 671.1921,-368.8706"/>
</g>
<!-- Node23 -->
<g id="node23" class="node">
<title>Node23</title>
<g id="a_node23"><a xlink:href="../../d3/d51/Fun4All__G4__EICDetector__RICH_8C.html#a5739502b0a7a1ba782c01069f77e933f" target="_top" xlink:title="Fun4All_G4_EICDetector_RICH">
<polygon fill="none" stroke="#000000" points="762,-489.5 762,-509.5 929,-509.5 929,-489.5 762,-489.5"/>
<text text-anchor="middle" x="845.5" y="-496.5" font-family="FreeSans" font-size="10.00" fill="#000000">Fun4All_G4_EICDetector_RICH</text>
</a>
</g>
</g>
<!-- Node17&#45;&gt;Node23 -->
<g id="edge26" class="edge">
<title>Node17&#45;&gt;Node23</title>
<path fill="none" stroke="#191970" d="M671.0499,-369.7869C686.234,-398.3693 718.6532,-451.5923 762,-479.5 768.3921,-483.6154 775.5513,-486.8848 782.9183,-489.482"/>
<polygon fill="#191970" stroke="#191970" points="674.1026,-368.07 666.4083,-360.7865 667.8812,-371.2785 674.1026,-368.07"/>
</g>
<!-- Node24 -->
<g id="node24" class="node">
<title>Node24</title>
<g id="a_node24"><a xlink:href="../../d7/d9e/Fun4All__G4__fsPHENIX_8C.html#af48911d394d2412e817583700f2bbee2" target="_top" xlink:title="Fun4All_G4_fsPHENIX">
<polygon fill="none" stroke="#000000" points="783.5,-450.5 783.5,-470.5 907.5,-470.5 907.5,-450.5 783.5,-450.5"/>
<text text-anchor="middle" x="845.5" y="-457.5" font-family="FreeSans" font-size="10.00" fill="#000000">Fun4All_G4_fsPHENIX</text>
</a>
</g>
</g>
<!-- Node17&#45;&gt;Node24 -->
<g id="edge27" class="edge">
<title>Node17&#45;&gt;Node24</title>
<path fill="none" stroke="#191970" d="M676.365,-368.3435C694.4682,-388.8877 726.9921,-422.1536 762,-440.5 769.79,-444.5824 778.4244,-447.8455 787.1003,-450.4499"/>
<polygon fill="#191970" stroke="#191970" points="678.9139,-365.9397 669.7348,-360.6486 673.6108,-370.509 678.9139,-365.9397"/>
</g>
<!-- Node25 -->
<g id="node25" class="node">
<title>Node25</title>
<g id="a_node25"><a xlink:href="../../da/d2f/Fun4All__G4__fsPHENIX__FastSim_8C.html#a66fb850cae5fcaadda23b74a25ce4c9c" target="_top" xlink:title="Fun4All_G4_fsPHENIX\l_FastSim">
<polygon fill="none" stroke="#000000" points="783.5,-399.5 783.5,-431.5 907.5,-431.5 907.5,-399.5 783.5,-399.5"/>
<text text-anchor="start" x="791.5" y="-418.5" font-family="FreeSans" font-size="10.00" fill="#000000">Fun4All_G4_fsPHENIX</text>
<text text-anchor="middle" x="845.5" y="-406.5" font-family="FreeSans" font-size="10.00" fill="#000000">_FastSim</text>
</a>
</g>
</g>
<!-- Node17&#45;&gt;Node25 -->
<g id="edge28" class="edge">
<title>Node17&#45;&gt;Node25</title>
<path fill="none" stroke="#191970" d="M695.4244,-364.3299C714.8044,-372.0627 739.6295,-381.6868 762,-389.5 771.6037,-392.8542 781.9,-396.2336 791.8684,-399.3953"/>
<polygon fill="#191970" stroke="#191970" points="696.6902,-361.0666 686.1061,-360.5903 694.0831,-367.563 696.6902,-361.0666"/>
</g>
<!-- Node26 -->
<g id="node26" class="node">
<title>Node26</title>
<g id="a_node26"><a xlink:href="../../d0/da6/Fun4All__G4__fsPHENIX__pi0_8C.html#a023d91d47b678e5d7f1751834aa517c6" target="_top" xlink:title="Fun4All_G4_fsPHENIX_pi0">
<polygon fill="none" stroke="#000000" points="773,-360.5 773,-380.5 918,-380.5 918,-360.5 773,-360.5"/>
<text text-anchor="middle" x="845.5" y="-367.5" font-family="FreeSans" font-size="10.00" fill="#000000">Fun4All_G4_fsPHENIX_pi0</text>
</a>
</g>
</g>
<!-- Node17&#45;&gt;Node26 -->
<g id="edge29" class="edge">
<title>Node17&#45;&gt;Node26</title>
<path fill="none" stroke="#191970" d="M708.878,-355.6498C728.3784,-357.7694 751.4081,-360.2726 772.9476,-362.6139"/>
<polygon fill="#191970" stroke="#191970" points="709.0548,-352.1485 698.7351,-354.5473 708.2984,-359.1075 709.0548,-352.1485"/>
</g>
<!-- Node27 -->
<g id="node27" class="node">
<title>Node27</title>
<g id="a_node27"><a xlink:href="../../d5/d2c/macros_2blob_2master_2macros_2g4simulations_2Fun4All__G4__sPHENIX_8C.html#a6eaaa492d7023ec86c562dc63aa1e5a4" target="_top" xlink:title="Fun4All_G4_sPHENIX">
<polygon fill="none" stroke="#000000" points="785,-321.5 785,-341.5 906,-341.5 906,-321.5 785,-321.5"/>
<text text-anchor="middle" x="845.5" y="-328.5" font-family="FreeSans" font-size="10.00" fill="#000000">Fun4All_G4_sPHENIX</text>
</a>
</g>
</g>
<!-- Node17&#45;&gt;Node27 -->
<g id="edge30" class="edge">
<title>Node17&#45;&gt;Node27</title>
<path fill="none" stroke="#191970" d="M708.975,-345.5977C732.0833,-343.2115 760.1302,-340.3154 784.7775,-337.7703"/>
<polygon fill="#191970" stroke="#191970" points="708.3227,-342.1463 698.7351,-346.6551 709.0418,-349.1093 708.3227,-342.1463"/>
</g>
<!-- Node28 -->
<g id="node28" class="node">
<title>Node28</title>
<g id="a_node28"><a xlink:href="../../d3/de2/Fun4All__G4__sPHENIX__AnaGenFit_8C.html#a9bf3f2f72ed69a17e2d0c1121d48013c" target="_top" xlink:title="Fun4All_G4_sPHENIX\l_AnaGenFit">
<polygon fill="none" stroke="#000000" points="785,-270.5 785,-302.5 906,-302.5 906,-270.5 785,-270.5"/>
<text text-anchor="start" x="793" y="-289.5" font-family="FreeSans" font-size="10.00" fill="#000000">Fun4All_G4_sPHENIX</text>
<text text-anchor="middle" x="845.5" y="-277.5" font-family="FreeSans" font-size="10.00" fill="#000000">_AnaGenFit</text>
</a>
</g>
</g>
<!-- Node17&#45;&gt;Node28 -->
<g id="edge31" class="edge">
<title>Node17&#45;&gt;Node28</title>
<path fill="none" stroke="#191970" d="M707.7428,-337.3025C713.9448,-335.2015 720.1724,-332.9169 726,-330.5 742.7114,-323.5691 745.2549,-318.3492 762,-311.5 769.8434,-308.2918 778.2508,-305.291 786.6003,-302.5602"/>
<polygon fill="#191970" stroke="#191970" points="706.5061,-334.0242 698.0791,-340.4457 708.6714,-340.6809 706.5061,-334.0242"/>
</g>
<!-- Node29 -->
<g id="node29" class="node">
<title>Node29</title>
<g id="a_node29"><a xlink:href="../../da/dd0/Fun4All__G4__sPHENIX__photonjet_8C.html#a6f18519e216acc05399e562ea57ea77c" target="_top" xlink:title="Fun4All_G4_sPHENIX\l_photonjet">
<polygon fill="none" stroke="#000000" points="785,-219.5 785,-251.5 906,-251.5 906,-219.5 785,-219.5"/>
<text text-anchor="start" x="793" y="-238.5" font-family="FreeSans" font-size="10.00" fill="#000000">Fun4All_G4_sPHENIX</text>
<text text-anchor="middle" x="845.5" y="-226.5" font-family="FreeSans" font-size="10.00" fill="#000000">_photonjet</text>
</a>
</g>
</g>
<!-- Node17&#45;&gt;Node29 -->
<g id="edge32" class="edge">
<title>Node17&#45;&gt;Node29</title>
<path fill="none" stroke="#191970" d="M708.0701,-341.0221C714.5359,-338.3419 720.7507,-334.9055 726,-330.5 752.7973,-308.0099 735.0932,-282.859 762,-260.5 768.6339,-254.9874 776.4532,-250.6902 784.6012,-247.3405"/>
<polygon fill="#191970" stroke="#191970" points="706.7453,-337.7785 698.5005,-344.4325 709.0952,-344.3723 706.7453,-337.7785"/>
</g>
<!-- Node30 -->
<g id="node30" class="node">
<title>Node30</title>
<g id="a_node30"><a xlink:href="../../da/d85/Fun4All__G4__sPHENIX__photons_8C.html#a02fbbd59878fe1299f58ed187e7214ba" target="_top" xlink:title="Fun4All_G4_sPHENIX\l_photons">
<polygon fill="none" stroke="#000000" points="785,-168.5 785,-200.5 906,-200.5 906,-168.5 785,-168.5"/>
<text text-anchor="start" x="793" y="-187.5" font-family="FreeSans" font-size="10.00" fill="#000000">Fun4All_G4_sPHENIX</text>
<text text-anchor="middle" x="845.5" y="-175.5" font-family="FreeSans" font-size="10.00" fill="#000000">_photons</text>
</a>
</g>
</g>
<!-- Node17&#45;&gt;Node30 -->
<g id="edge33" class="edge">
<title>Node17&#45;&gt;Node30</title>
<path fill="none" stroke="#191970" d="M708.4014,-342.0494C714.9261,-339.2333 721.0714,-335.4856 726,-330.5 765.4453,-290.5986 722.3603,-249.2082 762,-209.5 768.4146,-203.0744 776.4091,-198.2874 784.8906,-194.7241"/>
<polygon fill="#191970" stroke="#191970" points="706.8969,-338.8708 698.6681,-345.5445 709.2626,-345.459 706.8969,-338.8708"/>
</g>
<!-- Node31 -->
<g id="node31" class="node">
<title>Node31</title>
<g id="a_node31"><a xlink:href="../../de/d55/Fun4All__G4__sPHENIX__truthphotonjet_8C.html#a48a6f4503eaa1b3793d8ae572aa795b9" target="_top" xlink:title="Fun4All_G4_sPHENIX\l_truthphotonjet">
<polygon fill="none" stroke="#000000" points="785,-117.5 785,-149.5 906,-149.5 906,-117.5 785,-117.5"/>
<text text-anchor="start" x="793" y="-136.5" font-family="FreeSans" font-size="10.00" fill="#000000">Fun4All_G4_sPHENIX</text>
<text text-anchor="middle" x="845.5" y="-124.5" font-family="FreeSans" font-size="10.00" fill="#000000">_truthphotonjet</text>
</a>
</g>
</g>
<!-- Node17&#45;&gt;Node31 -->
<g id="edge34" class="edge">
<title>Node17&#45;&gt;Node31</title>
<path fill="none" stroke="#191970" d="M708.5543,-342.4977C715.1134,-339.6261 721.2291,-335.7437 726,-330.5 778.5599,-272.7314 709.1586,-216.0112 762,-158.5 768.2453,-151.7028 776.2553,-146.7254 784.8344,-143.0865"/>
<polygon fill="#191970" stroke="#191970" points="706.9623,-339.3504 698.7323,-346.0225 709.3268,-345.939 706.9623,-339.3504"/>
</g>
<!-- Node32 -->
<g id="node32" class="node">
<title>Node32</title>
<g id="a_node32"><a xlink:href="../../d4/d65/Fun4All__single__particle_8C.html#a8a492b5dbead494bfdddbebde8a49b0e" target="_top" xlink:title="Fun4All_single_particle">
<polygon fill="none" stroke="#000000" points="779.5,-78.5 779.5,-98.5 911.5,-98.5 911.5,-78.5 779.5,-78.5"/>
<text text-anchor="middle" x="845.5" y="-85.5" font-family="FreeSans" font-size="10.00" fill="#000000">Fun4All_single_particle</text>
</a>
</g>
</g>
<!-- Node17&#45;&gt;Node32 -->
<g id="edge35" class="edge">
<title>Node17&#45;&gt;Node32</title>
<path fill="none" stroke="#191970" d="M708.0886,-342.9855C714.8799,-340.0637 721.1907,-336.038 726,-330.5 791.8268,-254.6987 693.3065,-180.7135 762,-107.5 766.8829,-102.2959 772.8702,-98.3753 779.3762,-95.4399"/>
<polygon fill="#191970" stroke="#191970" points="706.8918,-339.6962 698.6259,-346.3238 709.2207,-346.2974 706.8918,-339.6962"/>
</g>
<!-- Node33 -->
<g id="node33" class="node">
<title>Node33</title>
<g id="a_node33"><a xlink:href="../../d0/d99/Jin__BJet_8C.html#a36169bfee2ed7efda633944d12aebad9" target="_top" xlink:title="Jin_BJet">
<polygon fill="none" stroke="#000000" points="818,-39.5 818,-59.5 873,-59.5 873,-39.5 818,-39.5"/>
<text text-anchor="middle" x="845.5" y="-46.5" font-family="FreeSans" font-size="10.00" fill="#000000">Jin_BJet</text>
</a>
</g>
</g>
<!-- Node17&#45;&gt;Node33 -->
<g id="edge36" class="edge">
<title>Node17&#45;&gt;Node33</title>
<path fill="none" stroke="#191970" d="M708.2007,-343.0816C714.9787,-340.1485 721.2561,-336.0941 726,-330.5 802.0198,-240.8546 682.5886,-155.1553 762,-68.5 775.9619,-53.2645 799.3791,-48.9724 817.8675,-48.2314"/>
<polygon fill="#191970" stroke="#191970" points="707.0055,-339.7918 698.7445,-346.4256 709.3393,-346.3913 707.0055,-339.7918"/>
</g>
<!-- Node34 -->
<g id="node34" class="node">
<title>Node34</title>
<g id="a_node34"><a xlink:href="../../dd/db1/Wrapper_8cxx.html#abf1e42281903daa0752c80dd6c879fac" target="_top" xlink:title="Wrapper">
<polygon fill="none" stroke="#000000" points="815.5,-.5 815.5,-20.5 875.5,-20.5 875.5,-.5 815.5,-.5"/>
<text text-anchor="middle" x="845.5" y="-7.5" font-family="FreeSans" font-size="10.00" fill="#000000">Wrapper</text>
</a>
</g>
</g>
<!-- Node17&#45;&gt;Node34 -->
<g id="edge37" class="edge">
<title>Node17&#45;&gt;Node34</title>
<path fill="none" stroke="#191970" d="M708.2849,-343.1524C715.053,-340.211 721.3053,-336.1355 726,-330.5 812.2362,-226.9828 671.8462,-129.6239 762,-29.5 775.231,-14.8058 797.2519,-10.2514 815.3582,-9.2671"/>
<polygon fill="#191970" stroke="#191970" points="707.0909,-339.8622 698.8336,-346.5005 709.4284,-346.4604 707.0909,-339.8622"/>
</g>
<!-- Node19 -->
<g id="node19" class="node">
<title>Node19</title>
<g id="a_node19"><a xlink:href="../../d3/d7f/Fun_8C.html#af69a3eef3ff244bb51f5740c6ecb5432" target="_top" xlink:title="Fun">
<polygon fill="none" stroke="#000000" points="965,-657.5 965,-677.5 999,-677.5 999,-657.5 965,-657.5"/>
<text text-anchor="middle" x="982" y="-664.5" font-family="FreeSans" font-size="10.00" fill="#000000">Fun</text>
</a>
</g>
</g>
<!-- Node18&#45;&gt;Node19 -->
<g id="edge22" class="edge">
<title>Node18&#45;&gt;Node19</title>
<path fill="none" stroke="#191970" d="M912.6941,-667.5C932.0852,-667.5 951.59,-667.5 964.9452,-667.5"/>
<polygon fill="#191970" stroke="#191970" points="912.5974,-664.0001 902.5974,-667.5 912.5974,-671.0001 912.5974,-664.0001"/>
</g>
<!-- Node37 -->
<g id="node37" class="node">
<title>Node37</title>
<g id="a_node37"><a xlink:href="../../d8/d91/Fun4All__G4__Clusters_8C.html#ab7d8e64f12f512631d4c0e8c6683ec5b" target="_top" xlink:title="Fun4All_G4_Clusters">
<polygon fill="none" stroke="#000000" points="602,-524.5 602,-544.5 721,-544.5 721,-524.5 602,-524.5"/>
<text text-anchor="middle" x="661.5" y="-531.5" font-family="FreeSans" font-size="10.00" fill="#000000">Fun4All_G4_Clusters</text>
</a>
</g>
</g>
<!-- Node36&#45;&gt;Node37 -->
<g id="edge40" class="edge">
<title>Node36&#45;&gt;Node37</title>
<path fill="none" stroke="#191970" d="M547.7382,-534.5C565.668,-534.5 584.583,-534.5 601.7315,-534.5"/>
<polygon fill="#191970" stroke="#191970" points="547.6073,-531.0001 537.6073,-534.5 547.6072,-538.0001 547.6073,-531.0001"/>
</g>
</g>
</svg>
