<?xml version="1.0" encoding="UTF-8" standalone="no"?>
<!DOCTYPE svg PUBLIC "-//W3C//DTD SVG 1.1//EN"
 "http://www.w3.org/Graphics/SVG/1.1/DTD/svg11.dtd">
<!-- Generated by graphviz version 2.40.1 (20161225.0304)
 -->
<!-- Title: ShowerCompress Pages: 1 -->
<svg width="385pt" height="647pt"
 viewBox="0.00 0.00 385.00 647.00" xmlns="http://www.w3.org/2000/svg" xmlns:xlink="http://www.w3.org/1999/xlink">
<g id="graph0" class="graph" transform="scale(1 1) rotate(0) translate(4 643)">
<title>ShowerCompress</title>
<!-- Node1 -->
<g id="node1" class="node">
<title>Node1</title>
<polygon fill="#bfbfbf" stroke="#000000" points="0,-321.5 0,-341.5 104,-341.5 104,-321.5 0,-321.5"/>
<text text-anchor="middle" x="52" y="-328.5" font-family="FreeSans" font-size="10.00" fill="#000000">ShowerCompress</text>
</g>
<!-- Node2 -->
<g id="node2" class="node">
<title>Node2</title>
<g id="a_node2"><a xlink:href="../../d3/d7f/Fun_8C.html#af0d3c8a78765149fef9b2beeecfc6279" target="_top" xlink:title="ConfigureDetectors">
<polygon fill="none" stroke="#000000" points="166.5,-618.5 166.5,-638.5 280.5,-638.5 280.5,-618.5 166.5,-618.5"/>
<text text-anchor="middle" x="223.5" y="-625.5" font-family="FreeSans" font-size="10.00" fill="#000000">ConfigureDetectors</text>
</a>
</g>
</g>
<!-- Node1&#45;&gt;Node2 -->
<g id="edge1" class="edge">
<title>Node1&#45;&gt;Node2</title>
<path fill="none" stroke="#191970" d="M55.7145,-351.7152C66.7283,-409.4935 100.8894,-573.5019 140,-609.5 147.329,-616.2458 156.5413,-620.762 166.1489,-623.7536"/>
<polygon fill="#191970" stroke="#191970" points="59.1093,-350.8288 53.8257,-341.6454 52.2293,-352.1193 59.1093,-350.8288"/>
</g>
<!-- Node4 -->
<g id="node4" class="node">
<title>Node4</title>
<g id="a_node4"><a xlink:href="../../da/d02/Fun4All__G4__EICDetector_8C.html#afbe82cefa1d1fd031d9a8586b7bb68c6" target="_top" xlink:title="Fun4All_G4_EICDetector">
<polygon fill="none" stroke="#000000" points="154,-579.5 154,-599.5 293,-599.5 293,-579.5 154,-579.5"/>
<text text-anchor="middle" x="223.5" y="-586.5" font-family="FreeSans" font-size="10.00" fill="#000000">Fun4All_G4_EICDetector</text>
</a>
</g>
</g>
<!-- Node1&#45;&gt;Node4 -->
<g id="edge3" class="edge">
<title>Node1&#45;&gt;Node4</title>
<path fill="none" stroke="#191970" d="M53.1968,-351.7536C57.0672,-397.9933 73.2446,-511.8485 140,-570.5 144.1324,-574.1307 148.8145,-577.1089 153.8012,-579.5472"/>
<polygon fill="#191970" stroke="#191970" points="56.6696,-351.2497 52.4547,-341.5293 49.6879,-351.7565 56.6696,-351.2497"/>
</g>
<!-- Node5 -->
<g id="node5" class="node">
<title>Node5</title>
<g id="a_node5"><a xlink:href="../../dd/d2a/Fun4All__G4__EICDetector__LQ_8C.html#aaa01242fd6e77ca43a9d49a6d46008e4" target="_top" xlink:title="Fun4All_G4_EICDetector_LQ">
<polygon fill="none" stroke="#000000" points="145.5,-540.5 145.5,-560.5 301.5,-560.5 301.5,-540.5 145.5,-540.5"/>
<text text-anchor="middle" x="223.5" y="-547.5" font-family="FreeSans" font-size="10.00" fill="#000000">Fun4All_G4_EICDetector_LQ</text>
</a>
</g>
</g>
<!-- Node1&#45;&gt;Node5 -->
<g id="edge4" class="edge">
<title>Node1&#45;&gt;Node5</title>
<path fill="none" stroke="#191970" d="M54.8267,-351.7528C61.6207,-392.4453 82.7711,-484.2658 140,-531.5 144.3571,-535.0962 149.2605,-538.0434 154.452,-540.455"/>
<polygon fill="#191970" stroke="#191970" points="58.2609,-351.058 53.2731,-341.7108 51.3432,-352.1284 58.2609,-351.058"/>
</g>
<!-- Node6 -->
<g id="node6" class="node">
<title>Node6</title>
<g id="a_node6"><a xlink:href="../../d4/df5/Fun4All__G4__EICDetector__LQ__reference_8C.html#a2feefc472f17f90b3cbe74897d049f75" target="_top" xlink:title="Fun4All_G4_EICDetector\l_LQ_reference">
<polygon fill="none" stroke="#000000" points="154,-489.5 154,-521.5 293,-521.5 293,-489.5 154,-489.5"/>
<text text-anchor="start" x="162" y="-508.5" font-family="FreeSans" font-size="10.00" fill="#000000">Fun4All_G4_EICDetector</text>
<text text-anchor="middle" x="223.5" y="-496.5" font-family="FreeSans" font-size="10.00" fill="#000000">_LQ_reference</text>
</a>
</g>
</g>
<!-- Node1&#45;&gt;Node6 -->
<g id="edge5" class="edge">
<title>Node1&#45;&gt;Node6</title>
<path fill="none" stroke="#191970" d="M58.2747,-351.1155C69.4879,-383.0244 96.0024,-446.0625 140,-480.5 144.409,-483.951 149.2878,-486.9266 154.4084,-489.4923"/>
<polygon fill="#191970" stroke="#191970" points="61.5687,-349.9302 55.0554,-341.5739 54.936,-352.168 61.5687,-349.9302"/>
</g>
<!-- Node7 -->
<g id="node7" class="node">
<title>Node7</title>
<g id="a_node7"><a xlink:href="../../d3/d51/Fun4All__G4__EICDetector__RICH_8C.html#a5739502b0a7a1ba782c01069f77e933f" target="_top" xlink:title="Fun4All_G4_EICDetector_RICH">
<polygon fill="none" stroke="#000000" points="140,-450.5 140,-470.5 307,-470.5 307,-450.5 140,-450.5"/>
<text text-anchor="middle" x="223.5" y="-457.5" font-family="FreeSans" font-size="10.00" fill="#000000">Fun4All_G4_EICDetector_RICH</text>
</a>
</g>
</g>
<!-- Node1&#45;&gt;Node7 -->
<g id="edge6" class="edge">
<title>Node1&#45;&gt;Node7</title>
<path fill="none" stroke="#191970" d="M61.8013,-350.4515C75.7135,-375.3782 103.5954,-418.6815 140,-441.5 145.7946,-445.1321 152.2028,-448.0724 158.817,-450.4522"/>
<polygon fill="#191970" stroke="#191970" points="64.8449,-348.7217 57.0122,-341.5873 58.6862,-352.0491 64.8449,-348.7217"/>
</g>
<!-- Node8 -->
<g id="node8" class="node">
<title>Node8</title>
<g id="a_node8"><a xlink:href="../../d7/d9e/Fun4All__G4__fsPHENIX_8C.html#af48911d394d2412e817583700f2bbee2" target="_top" xlink:title="Fun4All_G4_fsPHENIX">
<polygon fill="none" stroke="#000000" points="161.5,-411.5 161.5,-431.5 285.5,-431.5 285.5,-411.5 161.5,-411.5"/>
<text text-anchor="middle" x="223.5" y="-418.5" font-family="FreeSans" font-size="10.00" fill="#000000">Fun4All_G4_fsPHENIX</text>
</a>
</g>
</g>
<!-- Node1&#45;&gt;Node8 -->
<g id="edge7" class="edge">
<title>Node1&#45;&gt;Node8</title>
<path fill="none" stroke="#191970" d="M68.7757,-349.0286C85.3608,-365.3194 112.2192,-389.0354 140,-402.5 147.492,-406.1312 155.7018,-409.0829 163.957,-411.4786"/>
<polygon fill="#191970" stroke="#191970" points="71.031,-346.3327 61.5001,-341.7053 66.065,-351.2662 71.031,-346.3327"/>
</g>
<!-- Node9 -->
<g id="node9" class="node">
<title>Node9</title>
<g id="a_node9"><a xlink:href="../../da/d2f/Fun4All__G4__fsPHENIX__FastSim_8C.html#a66fb850cae5fcaadda23b74a25ce4c9c" target="_top" xlink:title="Fun4All_G4_fsPHENIX\l_FastSim">
<polygon fill="none" stroke="#000000" points="161.5,-360.5 161.5,-392.5 285.5,-392.5 285.5,-360.5 161.5,-360.5"/>
<text text-anchor="start" x="169.5" y="-379.5" font-family="FreeSans" font-size="10.00" fill="#000000">Fun4All_G4_fsPHENIX</text>
<text text-anchor="middle" x="223.5" y="-367.5" font-family="FreeSans" font-size="10.00" fill="#000000">_FastSim</text>
</a>
</g>
</g>
<!-- Node1&#45;&gt;Node9 -->
<g id="edge8" class="edge">
<title>Node1&#45;&gt;Node9</title>
<path fill="none" stroke="#191970" d="M100.2401,-344.1578C119.4887,-349.2084 141.8778,-355.0831 162.2523,-360.4292"/>
<polygon fill="#191970" stroke="#191970" points="101.0488,-340.7515 90.4879,-341.5989 99.2722,-347.5223 101.0488,-340.7515"/>
</g>
<!-- Node10 -->
<g id="node10" class="node">
<title>Node10</title>
<g id="a_node10"><a xlink:href="../../d0/da6/Fun4All__G4__fsPHENIX__pi0_8C.html#a023d91d47b678e5d7f1751834aa517c6" target="_top" xlink:title="Fun4All_G4_fsPHENIX_pi0">
<polygon fill="none" stroke="#000000" points="151,-321.5 151,-341.5 296,-341.5 296,-321.5 151,-321.5"/>
<text text-anchor="middle" x="223.5" y="-328.5" font-family="FreeSans" font-size="10.00" fill="#000000">Fun4All_G4_fsPHENIX_pi0</text>
</a>
</g>
</g>
<!-- Node1&#45;&gt;Node10 -->
<g id="edge9" class="edge">
<title>Node1&#45;&gt;Node10</title>
<path fill="none" stroke="#191970" d="M114.5766,-331.5C126.385,-331.5 138.8273,-331.5 150.9123,-331.5"/>
<polygon fill="#191970" stroke="#191970" points="114.3876,-328.0001 104.3875,-331.5 114.3875,-335.0001 114.3876,-328.0001"/>
</g>
<!-- Node11 -->
<g id="node11" class="node">
<title>Node11</title>
<g id="a_node11"><a xlink:href="../../d5/d2c/macros_2blob_2master_2macros_2g4simulations_2Fun4All__G4__sPHENIX_8C.html#a6eaaa492d7023ec86c562dc63aa1e5a4" target="_top" xlink:title="Fun4All_G4_sPHENIX">
<polygon fill="none" stroke="#000000" points="163,-282.5 163,-302.5 284,-302.5 284,-282.5 163,-282.5"/>
<text text-anchor="middle" x="223.5" y="-289.5" font-family="FreeSans" font-size="10.00" fill="#000000">Fun4All_G4_sPHENIX</text>
</a>
</g>
</g>
<!-- Node1&#45;&gt;Node11 -->
<g id="edge10" class="edge">
<title>Node1&#45;&gt;Node11</title>
<path fill="none" stroke="#191970" d="M106.048,-319.2092C129.702,-313.8302 157.1016,-307.5994 179.4842,-302.5094"/>
<polygon fill="#191970" stroke="#191970" points="105.1404,-315.8261 96.1655,-321.4565 106.6927,-322.6519 105.1404,-315.8261"/>
</g>
<!-- Node12 -->
<g id="node12" class="node">
<title>Node12</title>
<g id="a_node12"><a xlink:href="../../d3/de2/Fun4All__G4__sPHENIX__AnaGenFit_8C.html#a9bf3f2f72ed69a17e2d0c1121d48013c" target="_top" xlink:title="Fun4All_G4_sPHENIX\l_AnaGenFit">
<polygon fill="none" stroke="#000000" points="163,-231.5 163,-263.5 284,-263.5 284,-231.5 163,-231.5"/>
<text text-anchor="start" x="171" y="-250.5" font-family="FreeSans" font-size="10.00" fill="#000000">Fun4All_G4_sPHENIX</text>
<text text-anchor="middle" x="223.5" y="-238.5" font-family="FreeSans" font-size="10.00" fill="#000000">_AnaGenFit</text>
</a>
</g>
</g>
<!-- Node1&#45;&gt;Node12 -->
<g id="edge11" class="edge">
<title>Node1&#45;&gt;Node12</title>
<path fill="none" stroke="#191970" d="M72.9416,-315.2542C90.1725,-302.5039 115.6378,-285.0378 140,-273.5 147.6843,-269.8608 156.0023,-266.5696 164.3091,-263.6482"/>
<polygon fill="#191970" stroke="#191970" points="70.6149,-312.6248 64.7309,-321.4356 74.8251,-318.2172 70.6149,-312.6248"/>
</g>
<!-- Node13 -->
<g id="node13" class="node">
<title>Node13</title>
<g id="a_node13"><a xlink:href="../../da/dd0/Fun4All__G4__sPHENIX__photonjet_8C.html#a6f18519e216acc05399e562ea57ea77c" target="_top" xlink:title="Fun4All_G4_sPHENIX\l_photonjet">
<polygon fill="none" stroke="#000000" points="163,-180.5 163,-212.5 284,-212.5 284,-180.5 163,-180.5"/>
<text text-anchor="start" x="171" y="-199.5" font-family="FreeSans" font-size="10.00" fill="#000000">Fun4All_G4_sPHENIX</text>
<text text-anchor="middle" x="223.5" y="-187.5" font-family="FreeSans" font-size="10.00" fill="#000000">_photonjet</text>
</a>
</g>
</g>
<!-- Node1&#45;&gt;Node13 -->
<g id="edge12" class="edge">
<title>Node1&#45;&gt;Node13</title>
<path fill="none" stroke="#191970" d="M62.522,-312.4436C76.9135,-288.1009 104.9902,-246.2837 140,-222.5 146.9075,-217.8074 154.7011,-213.9311 162.6812,-210.7369"/>
<polygon fill="#191970" stroke="#191970" points="59.3138,-311.0022 57.3705,-321.4173 65.3846,-314.4873 59.3138,-311.0022"/>
</g>
<!-- Node14 -->
<g id="node14" class="node">
<title>Node14</title>
<g id="a_node14"><a xlink:href="../../da/d85/Fun4All__G4__sPHENIX__photons_8C.html#a02fbbd59878fe1299f58ed187e7214ba" target="_top" xlink:title="Fun4All_G4_sPHENIX\l_photons">
<polygon fill="none" stroke="#000000" points="163,-129.5 163,-161.5 284,-161.5 284,-129.5 163,-129.5"/>
<text text-anchor="start" x="171" y="-148.5" font-family="FreeSans" font-size="10.00" fill="#000000">Fun4All_G4_sPHENIX</text>
<text text-anchor="middle" x="223.5" y="-136.5" font-family="FreeSans" font-size="10.00" fill="#000000">_photons</text>
</a>
</g>
</g>
<!-- Node1&#45;&gt;Node14 -->
<g id="edge13" class="edge">
<title>Node1&#45;&gt;Node14</title>
<path fill="none" stroke="#191970" d="M57.6103,-311.4419C68.1051,-277.5907 93.9181,-209.1402 140,-171.5 146.7026,-166.0253 154.56,-161.6995 162.7257,-158.2825"/>
<polygon fill="#191970" stroke="#191970" points="54.2238,-310.5514 54.7349,-321.1339 60.9347,-312.5424 54.2238,-310.5514"/>
</g>
<!-- Node15 -->
<g id="node15" class="node">
<title>Node15</title>
<g id="a_node15"><a xlink:href="../../de/d55/Fun4All__G4__sPHENIX__truthphotonjet_8C.html#a48a6f4503eaa1b3793d8ae572aa795b9" target="_top" xlink:title="Fun4All_G4_sPHENIX\l_truthphotonjet">
<polygon fill="none" stroke="#000000" points="163,-78.5 163,-110.5 284,-110.5 284,-78.5 163,-78.5"/>
<text text-anchor="start" x="171" y="-97.5" font-family="FreeSans" font-size="10.00" fill="#000000">Fun4All_G4_sPHENIX</text>
<text text-anchor="middle" x="223.5" y="-85.5" font-family="FreeSans" font-size="10.00" fill="#000000">_truthphotonjet</text>
</a>
</g>
</g>
<!-- Node1&#45;&gt;Node15 -->
<g id="edge14" class="edge">
<title>Node1&#45;&gt;Node15</title>
<path fill="none" stroke="#191970" d="M54.6626,-311.3974C61.2556,-269.6629 82.211,-173.1359 140,-120.5 146.5104,-114.5701 154.3569,-109.9927 162.5998,-106.4591"/>
<polygon fill="#191970" stroke="#191970" points="51.181,-311.017 53.194,-321.4188 58.107,-312.032 51.181,-311.017"/>
</g>
<!-- Node16 -->
<g id="node16" class="node">
<title>Node16</title>
<g id="a_node16"><a xlink:href="../../d4/d65/Fun4All__single__particle_8C.html#a8a492b5dbead494bfdddbebde8a49b0e" target="_top" xlink:title="Fun4All_single_particle">
<polygon fill="none" stroke="#000000" points="157.5,-39.5 157.5,-59.5 289.5,-59.5 289.5,-39.5 157.5,-39.5"/>
<text text-anchor="middle" x="223.5" y="-46.5" font-family="FreeSans" font-size="10.00" fill="#000000">Fun4All_single_particle</text>
</a>
</g>
</g>
<!-- Node1&#45;&gt;Node16 -->
<g id="edge15" class="edge">
<title>Node1&#45;&gt;Node16</title>
<path fill="none" stroke="#191970" d="M56.1311,-311.3756C67.8871,-256.0088 103.0686,-103.2843 140,-69.5 145.0594,-64.8717 150.9966,-61.261 157.3328,-58.4515"/>
<polygon fill="#191970" stroke="#191970" points="52.6639,-310.857 54.042,-321.3618 59.5155,-312.2904 52.6639,-310.857"/>
</g>
<!-- Node17 -->
<g id="node17" class="node">
<title>Node17</title>
<g id="a_node17"><a xlink:href="../../d0/d99/Jin__BJet_8C.html#a36169bfee2ed7efda633944d12aebad9" target="_top" xlink:title="Jin_BJet">
<polygon fill="none" stroke="#000000" points="196,-.5 196,-20.5 251,-20.5 251,-.5 196,-.5"/>
<text text-anchor="middle" x="223.5" y="-7.5" font-family="FreeSans" font-size="10.00" fill="#000000">Jin_BJet</text>
</a>
</g>
</g>
<!-- Node1&#45;&gt;Node17 -->
<g id="edge16" class="edge">
<title>Node1&#45;&gt;Node17</title>
<path fill="none" stroke="#191970" d="M55.2268,-311.249C65.3379,-250.2883 98.2341,-70.2544 140,-30.5 154.7923,-16.4201 177.666,-11.6822 195.735,-10.3199"/>
<polygon fill="#191970" stroke="#191970" points="51.7616,-310.7525 53.607,-321.1853 58.6704,-311.8788 51.7616,-310.7525"/>
</g>
<!-- Node3 -->
<g id="node3" class="node">
<title>Node3</title>
<g id="a_node3"><a xlink:href="../../d3/d7f/Fun_8C.html#af69a3eef3ff244bb51f5740c6ecb5432" target="_top" xlink:title="Fun">
<polygon fill="none" stroke="#000000" points="343,-618.5 343,-638.5 377,-638.5 377,-618.5 343,-618.5"/>
<text text-anchor="middle" x="360" y="-625.5" font-family="FreeSans" font-size="10.00" fill="#000000">Fun</text>
</a>
</g>
</g>
<!-- Node2&#45;&gt;Node3 -->
<g id="edge2" class="edge">
<title>Node2&#45;&gt;Node3</title>
<path fill="none" stroke="#191970" d="M290.6941,-628.5C310.0852,-628.5 329.59,-628.5 342.9452,-628.5"/>
<polygon fill="#191970" stroke="#191970" points="290.5974,-625.0001 280.5974,-628.5 290.5974,-632.0001 290.5974,-625.0001"/>
</g>
</g>
</svg>
