<?xml version="1.0" encoding="UTF-8" standalone="no"?>
<!DOCTYPE svg PUBLIC "-//W3C//DTD SVG 1.1//EN"
 "http://www.w3.org/Graphics/SVG/1.1/DTD/svg11.dtd">
<!-- Generated by graphviz version 2.40.1 (20161225.0304)
 -->
<!-- Title: G4Init Pages: 1 -->
<svg width="328pt" height="725pt"
 viewBox="0.00 0.00 328.00 725.00" xmlns="http://www.w3.org/2000/svg" xmlns:xlink="http://www.w3.org/1999/xlink">
<g id="graph0" class="graph" transform="scale(1 1) rotate(0) translate(4 721)">
<title>G4Init</title>
<!-- Node1 -->
<g id="node1" class="node">
<title>Node1</title>
<polygon fill="#bfbfbf" stroke="#000000" points="0,-360.5 0,-380.5 47,-380.5 47,-360.5 0,-360.5"/>
<text text-anchor="middle" x="23.5" y="-367.5" font-family="FreeSans" font-size="10.00" fill="#000000">G4Init</text>
</g>
<!-- Node2 -->
<g id="node2" class="node">
<title>Node2</title>
<g id="a_node2"><a xlink:href="../../d3/d7f/Fun_8C.html#af0d3c8a78765149fef9b2beeecfc6279" target="_top" xlink:title="ConfigureDetectors">
<polygon fill="none" stroke="#000000" points="109.5,-696.5 109.5,-716.5 223.5,-716.5 223.5,-696.5 109.5,-696.5"/>
<text text-anchor="middle" x="166.5" y="-703.5" font-family="FreeSans" font-size="10.00" fill="#000000">ConfigureDetectors</text>
</a>
</g>
</g>
<!-- Node1&#45;&gt;Node2 -->
<g id="edge1" class="edge">
<title>Node1&#45;&gt;Node2</title>
<path fill="none" stroke="#191970" d="M24.4836,-390.905C27.9479,-454.0485 41.6914,-644.5826 83,-687.5 90.1139,-694.8909 99.4589,-699.6779 109.3157,-702.7278"/>
<polygon fill="#191970" stroke="#191970" points="27.9657,-390.4666 23.952,-380.6615 20.9751,-390.8295 27.9657,-390.4666"/>
</g>
<!-- Node4 -->
<g id="node4" class="node">
<title>Node4</title>
<g id="a_node4"><a xlink:href="../../da/d02/Fun4All__G4__EICDetector_8C.html#afbe82cefa1d1fd031d9a8586b7bb68c6" target="_top" xlink:title="Fun4All_G4_EICDetector">
<polygon fill="none" stroke="#000000" points="97,-657.5 97,-677.5 236,-677.5 236,-657.5 97,-657.5"/>
<text text-anchor="middle" x="166.5" y="-664.5" font-family="FreeSans" font-size="10.00" fill="#000000">Fun4All_G4_EICDetector</text>
</a>
</g>
</g>
<!-- Node1&#45;&gt;Node4 -->
<g id="edge3" class="edge">
<title>Node1&#45;&gt;Node4</title>
<path fill="none" stroke="#191970" d="M25.0463,-390.6297C29.8773,-448.1762 46.5912,-611.619 83,-648.5 86.969,-652.5205 91.5995,-655.766 96.6076,-658.378"/>
<polygon fill="#191970" stroke="#191970" points="28.5301,-390.287 24.2362,-380.6013 21.5528,-390.8506 28.5301,-390.287"/>
</g>
<!-- Node5 -->
<g id="node5" class="node">
<title>Node5</title>
<g id="a_node5"><a xlink:href="../../dd/d2a/Fun4All__G4__EICDetector__LQ_8C.html#aaa01242fd6e77ca43a9d49a6d46008e4" target="_top" xlink:title="Fun4All_G4_EICDetector_LQ">
<polygon fill="none" stroke="#000000" points="88.5,-618.5 88.5,-638.5 244.5,-638.5 244.5,-618.5 88.5,-618.5"/>
<text text-anchor="middle" x="166.5" y="-625.5" font-family="FreeSans" font-size="10.00" fill="#000000">Fun4All_G4_EICDetector_LQ</text>
</a>
</g>
</g>
<!-- Node1&#45;&gt;Node5 -->
<g id="edge4" class="edge">
<title>Node1&#45;&gt;Node5</title>
<path fill="none" stroke="#191970" d="M25.7896,-390.492C32.1174,-442.2275 51.4888,-578.6208 83,-609.5 86.6103,-613.0379 90.7345,-615.9712 95.1724,-618.3981"/>
<polygon fill="#191970" stroke="#191970" points="29.2634,-390.0632 24.6077,-380.5461 22.3123,-390.8893 29.2634,-390.0632"/>
</g>
<!-- Node6 -->
<g id="node6" class="node">
<title>Node6</title>
<g id="a_node6"><a xlink:href="../../d4/df5/Fun4All__G4__EICDetector__LQ__reference_8C.html#a2feefc472f17f90b3cbe74897d049f75" target="_top" xlink:title="Fun4All_G4_EICDetector\l_LQ_reference">
<polygon fill="none" stroke="#000000" points="97,-567.5 97,-599.5 236,-599.5 236,-567.5 97,-567.5"/>
<text text-anchor="start" x="105" y="-586.5" font-family="FreeSans" font-size="10.00" fill="#000000">Fun4All_G4_EICDetector</text>
<text text-anchor="middle" x="166.5" y="-574.5" font-family="FreeSans" font-size="10.00" fill="#000000">_LQ_reference</text>
</a>
</g>
</g>
<!-- Node1&#45;&gt;Node6 -->
<g id="edge5" class="edge">
<title>Node1&#45;&gt;Node6</title>
<path fill="none" stroke="#191970" d="M27.4651,-390.9511C36.3041,-434.5558 58.7625,-534.6379 83,-558.5 87.0977,-562.5342 91.8187,-565.9216 96.8876,-568.7653"/>
<polygon fill="#191970" stroke="#191970" points="30.8567,-390.0611 25.4742,-380.9354 23.991,-391.4259 30.8567,-390.0611"/>
</g>
<!-- Node7 -->
<g id="node7" class="node">
<title>Node7</title>
<g id="a_node7"><a xlink:href="../../d3/d51/Fun4All__G4__EICDetector__RICH_8C.html#a5739502b0a7a1ba782c01069f77e933f" target="_top" xlink:title="Fun4All_G4_EICDetector_RICH">
<polygon fill="none" stroke="#000000" points="83,-528.5 83,-548.5 250,-548.5 250,-528.5 83,-528.5"/>
<text text-anchor="middle" x="166.5" y="-535.5" font-family="FreeSans" font-size="10.00" fill="#000000">Fun4All_G4_EICDetector_RICH</text>
</a>
</g>
</g>
<!-- Node1&#45;&gt;Node7 -->
<g id="edge6" class="edge">
<title>Node1&#45;&gt;Node7</title>
<path fill="none" stroke="#191970" d="M25.6405,-390.7112C30.1758,-423.0002 43.7952,-485.9859 83,-519.5 87.1813,-523.0744 91.8981,-526.0124 96.9085,-528.4234"/>
<polygon fill="#191970" stroke="#191970" points="29.0988,-390.1589 24.3881,-380.6689 22.1526,-391.0252 29.0988,-390.1589"/>
</g>
<!-- Node8 -->
<g id="node8" class="node">
<title>Node8</title>
<g id="a_node8"><a xlink:href="../../d9/d0e/Fun4All__G4__EICIR_8C.html#ac3543d1dd4a0abed3987d40939ee3f87" target="_top" xlink:title="Fun4All_G4_EICIR">
<polygon fill="none" stroke="#000000" points="114.5,-489.5 114.5,-509.5 218.5,-509.5 218.5,-489.5 114.5,-489.5"/>
<text text-anchor="middle" x="166.5" y="-496.5" font-family="FreeSans" font-size="10.00" fill="#000000">Fun4All_G4_EICIR</text>
</a>
</g>
</g>
<!-- Node1&#45;&gt;Node8 -->
<g id="edge7" class="edge">
<title>Node1&#45;&gt;Node8</title>
<path fill="none" stroke="#191970" d="M28.7274,-390.378C36.3613,-415.3678 53.0228,-457.742 83,-480.5 92.1178,-487.422 103.3049,-491.8989 114.4915,-494.7754"/>
<polygon fill="#191970" stroke="#191970" points="32.0307,-389.1993 25.9175,-380.546 25.3001,-391.1228 32.0307,-389.1993"/>
</g>
<!-- Node9 -->
<g id="node9" class="node">
<title>Node9</title>
<g id="a_node9"><a xlink:href="../../d7/d9e/Fun4All__G4__fsPHENIX_8C.html#af48911d394d2412e817583700f2bbee2" target="_top" xlink:title="Fun4All_G4_fsPHENIX">
<polygon fill="none" stroke="#000000" points="104.5,-450.5 104.5,-470.5 228.5,-470.5 228.5,-450.5 104.5,-450.5"/>
<text text-anchor="middle" x="166.5" y="-457.5" font-family="FreeSans" font-size="10.00" fill="#000000">Fun4All_G4_fsPHENIX</text>
</a>
</g>
</g>
<!-- Node1&#45;&gt;Node9 -->
<g id="edge8" class="edge">
<title>Node1&#45;&gt;Node9</title>
<path fill="none" stroke="#191970" d="M34.2831,-389.2416C44.6694,-405.572 61.892,-428.6017 83,-441.5 89.4699,-445.4535 96.6759,-448.5859 104.068,-451.0674"/>
<polygon fill="#191970" stroke="#191970" points="37.1688,-387.2508 28.9801,-380.528 31.1891,-390.89 37.1688,-387.2508"/>
</g>
<!-- Node10 -->
<g id="node10" class="node">
<title>Node10</title>
<g id="a_node10"><a xlink:href="../../da/d2f/Fun4All__G4__fsPHENIX__FastSim_8C.html#a66fb850cae5fcaadda23b74a25ce4c9c" target="_top" xlink:title="Fun4All_G4_fsPHENIX\l_FastSim">
<polygon fill="none" stroke="#000000" points="104.5,-399.5 104.5,-431.5 228.5,-431.5 228.5,-399.5 104.5,-399.5"/>
<text text-anchor="start" x="112.5" y="-418.5" font-family="FreeSans" font-size="10.00" fill="#000000">Fun4All_G4_fsPHENIX</text>
<text text-anchor="middle" x="166.5" y="-406.5" font-family="FreeSans" font-size="10.00" fill="#000000">_FastSim</text>
</a>
</g>
</g>
<!-- Node1&#45;&gt;Node10 -->
<g id="edge9" class="edge">
<title>Node1&#45;&gt;Node10</title>
<path fill="none" stroke="#191970" d="M56.8126,-381.9154C65.3317,-384.7748 74.4897,-387.7965 83,-390.5 92.3744,-393.478 102.3714,-396.5554 112.0706,-399.4898"/>
<polygon fill="#191970" stroke="#191970" points="57.7765,-378.5468 47.1823,-378.6622 55.5361,-385.1786 57.7765,-378.5468"/>
</g>
<!-- Node11 -->
<g id="node11" class="node">
<title>Node11</title>
<g id="a_node11"><a xlink:href="../../d0/da6/Fun4All__G4__fsPHENIX__pi0_8C.html#a023d91d47b678e5d7f1751834aa517c6" target="_top" xlink:title="Fun4All_G4_fsPHENIX_pi0">
<polygon fill="none" stroke="#000000" points="94,-360.5 94,-380.5 239,-380.5 239,-360.5 94,-360.5"/>
<text text-anchor="middle" x="166.5" y="-367.5" font-family="FreeSans" font-size="10.00" fill="#000000">Fun4All_G4_fsPHENIX_pi0</text>
</a>
</g>
</g>
<!-- Node1&#45;&gt;Node11 -->
<g id="edge10" class="edge">
<title>Node1&#45;&gt;Node11</title>
<path fill="none" stroke="#191970" d="M57.1352,-370.5C68.1859,-370.5 80.9326,-370.5 93.7334,-370.5"/>
<polygon fill="#191970" stroke="#191970" points="57.1136,-367.0001 47.1135,-370.5 57.1135,-374.0001 57.1136,-367.0001"/>
</g>
<!-- Node12 -->
<g id="node12" class="node">
<title>Node12</title>
<g id="a_node12"><a xlink:href="../../d5/d2c/macros_2blob_2master_2macros_2g4simulations_2Fun4All__G4__sPHENIX_8C.html#a6eaaa492d7023ec86c562dc63aa1e5a4" target="_top" xlink:title="Fun4All_G4_sPHENIX">
<polygon fill="none" stroke="#000000" points="106,-321.5 106,-341.5 227,-341.5 227,-321.5 106,-321.5"/>
<text text-anchor="middle" x="166.5" y="-328.5" font-family="FreeSans" font-size="10.00" fill="#000000">Fun4All_G4_sPHENIX</text>
</a>
</g>
</g>
<!-- Node1&#45;&gt;Node12 -->
<g id="edge11" class="edge">
<title>Node1&#45;&gt;Node12</title>
<path fill="none" stroke="#191970" d="M56.7461,-359.4051C65.2666,-356.6936 74.4418,-353.8878 83,-351.5 95.4916,-348.0147 109.1365,-344.5884 121.7082,-341.5836"/>
<polygon fill="#191970" stroke="#191970" points="55.5608,-356.1098 47.1207,-362.5141 57.7125,-362.7709 55.5608,-356.1098"/>
</g>
<!-- Node13 -->
<g id="node13" class="node">
<title>Node13</title>
<g id="a_node13"><a xlink:href="../../d3/de2/Fun4All__G4__sPHENIX__AnaGenFit_8C.html#a9bf3f2f72ed69a17e2d0c1121d48013c" target="_top" xlink:title="Fun4All_G4_sPHENIX\l_AnaGenFit">
<polygon fill="none" stroke="#000000" points="106,-270.5 106,-302.5 227,-302.5 227,-270.5 106,-270.5"/>
<text text-anchor="start" x="114" y="-289.5" font-family="FreeSans" font-size="10.00" fill="#000000">Fun4All_G4_sPHENIX</text>
<text text-anchor="middle" x="166.5" y="-277.5" font-family="FreeSans" font-size="10.00" fill="#000000">_AnaGenFit</text>
</a>
</g>
</g>
<!-- Node1&#45;&gt;Node13 -->
<g id="edge12" class="edge">
<title>Node1&#45;&gt;Node13</title>
<path fill="none" stroke="#191970" d="M37.7472,-352.6737C48.85,-339.855 65.3104,-323.0376 83,-312.5 90.0438,-308.3041 97.8313,-304.7214 105.7353,-301.68"/>
<polygon fill="#191970" stroke="#191970" points="35.0025,-350.4998 31.2657,-360.4138 40.3694,-354.9939 35.0025,-350.4998"/>
</g>
<!-- Node14 -->
<g id="node14" class="node">
<title>Node14</title>
<g id="a_node14"><a xlink:href="../../da/dd0/Fun4All__G4__sPHENIX__photonjet_8C.html#a6f18519e216acc05399e562ea57ea77c" target="_top" xlink:title="Fun4All_G4_sPHENIX\l_photonjet">
<polygon fill="none" stroke="#000000" points="106,-219.5 106,-251.5 227,-251.5 227,-219.5 106,-219.5"/>
<text text-anchor="start" x="114" y="-238.5" font-family="FreeSans" font-size="10.00" fill="#000000">Fun4All_G4_sPHENIX</text>
<text text-anchor="middle" x="166.5" y="-226.5" font-family="FreeSans" font-size="10.00" fill="#000000">_photonjet</text>
</a>
</g>
</g>
<!-- Node1&#45;&gt;Node14 -->
<g id="edge13" class="edge">
<title>Node1&#45;&gt;Node14</title>
<path fill="none" stroke="#191970" d="M29.1833,-350.7893C37.224,-326.3568 54.2385,-285.0689 83,-261.5 89.6939,-256.0146 97.5465,-251.683 105.7099,-248.2633"/>
<polygon fill="#191970" stroke="#191970" points="25.8168,-349.8286 26.1941,-360.4167 32.502,-351.9042 25.8168,-349.8286"/>
</g>
<!-- Node15 -->
<g id="node15" class="node">
<title>Node15</title>
<g id="a_node15"><a xlink:href="../../da/d85/Fun4All__G4__sPHENIX__photons_8C.html#a02fbbd59878fe1299f58ed187e7214ba" target="_top" xlink:title="Fun4All_G4_sPHENIX\l_photons">
<polygon fill="none" stroke="#000000" points="106,-168.5 106,-200.5 227,-200.5 227,-168.5 106,-168.5"/>
<text text-anchor="start" x="114" y="-187.5" font-family="FreeSans" font-size="10.00" fill="#000000">Fun4All_G4_sPHENIX</text>
<text text-anchor="middle" x="166.5" y="-175.5" font-family="FreeSans" font-size="10.00" fill="#000000">_photons</text>
</a>
</g>
</g>
<!-- Node1&#45;&gt;Node15 -->
<g id="edge14" class="edge">
<title>Node1&#45;&gt;Node15</title>
<path fill="none" stroke="#191970" d="M25.377,-350.1336C29.5804,-316.3278 42.7923,-248.5867 83,-210.5 89.5035,-204.3396 97.4444,-199.6377 105.8148,-196.0494"/>
<polygon fill="#191970" stroke="#191970" points="21.8836,-349.8831 24.2709,-360.2054 28.8418,-350.6473 21.8836,-349.8831"/>
</g>
<!-- Node16 -->
<g id="node16" class="node">
<title>Node16</title>
<g id="a_node16"><a xlink:href="../../de/d55/Fun4All__G4__sPHENIX__truthphotonjet_8C.html#a48a6f4503eaa1b3793d8ae572aa795b9" target="_top" xlink:title="Fun4All_G4_sPHENIX\l_truthphotonjet">
<polygon fill="none" stroke="#000000" points="106,-117.5 106,-149.5 227,-149.5 227,-117.5 106,-117.5"/>
<text text-anchor="start" x="114" y="-136.5" font-family="FreeSans" font-size="10.00" fill="#000000">Fun4All_G4_sPHENIX</text>
<text text-anchor="middle" x="166.5" y="-124.5" font-family="FreeSans" font-size="10.00" fill="#000000">_truthphotonjet</text>
</a>
</g>
</g>
<!-- Node1&#45;&gt;Node16 -->
<g id="edge15" class="edge">
<title>Node1&#45;&gt;Node16</title>
<path fill="none" stroke="#191970" d="M26.6594,-350.4959C34.4835,-303.348 56.0885,-187.1483 83,-159.5 89.354,-152.972 97.3164,-148.0758 105.7842,-144.405"/>
<polygon fill="#191970" stroke="#191970" points="23.1957,-349.991 25.0478,-360.4227 30.1052,-351.1129 23.1957,-349.991"/>
</g>
<!-- Node17 -->
<g id="node17" class="node">
<title>Node17</title>
<g id="a_node17"><a xlink:href="../../d4/d65/Fun4All__single__particle_8C.html#a8a492b5dbead494bfdddbebde8a49b0e" target="_top" xlink:title="Fun4All_single_particle">
<polygon fill="none" stroke="#000000" points="100.5,-78.5 100.5,-98.5 232.5,-98.5 232.5,-78.5 100.5,-78.5"/>
<text text-anchor="middle" x="166.5" y="-85.5" font-family="FreeSans" font-size="10.00" fill="#000000">Fun4All_single_particle</text>
</a>
</g>
</g>
<!-- Node1&#45;&gt;Node17 -->
<g id="edge16" class="edge">
<title>Node1&#45;&gt;Node17</title>
<path fill="none" stroke="#191970" d="M25.3793,-350.1134C30.9005,-294.6784 48.8694,-143.035 83,-108.5 87.9248,-103.5169 93.8558,-99.6893 100.2575,-96.761"/>
<polygon fill="#191970" stroke="#191970" points="21.8629,-350.1163 24.3888,-360.4056 28.8308,-350.787 21.8629,-350.1163"/>
</g>
<!-- Node18 -->
<g id="node18" class="node">
<title>Node18</title>
<g id="a_node18"><a xlink:href="../../d0/d99/Jin__BJet_8C.html#a36169bfee2ed7efda633944d12aebad9" target="_top" xlink:title="Jin_BJet">
<polygon fill="none" stroke="#000000" points="139,-39.5 139,-59.5 194,-59.5 194,-39.5 139,-39.5"/>
<text text-anchor="middle" x="166.5" y="-46.5" font-family="FreeSans" font-size="10.00" fill="#000000">Jin_BJet</text>
</a>
</g>
</g>
<!-- Node1&#45;&gt;Node18 -->
<g id="edge17" class="edge">
<title>Node1&#45;&gt;Node18</title>
<path fill="none" stroke="#191970" d="M24.7378,-349.9522C28.8367,-288.864 43.9938,-110.0958 83,-69.5 97.2526,-54.6665 120.4033,-50.0136 138.7171,-48.8758"/>
<polygon fill="#191970" stroke="#191970" points="21.226,-350.0253 24.0797,-360.2286 28.2117,-350.4728 21.226,-350.0253"/>
</g>
<!-- Node19 -->
<g id="node19" class="node">
<title>Node19</title>
<g id="a_node19"><a xlink:href="../../dd/db1/Wrapper_8cxx.html#abf1e42281903daa0752c80dd6c879fac" target="_top" xlink:title="Wrapper">
<polygon fill="none" stroke="#000000" points="136.5,-.5 136.5,-20.5 196.5,-20.5 196.5,-.5 136.5,-.5"/>
<text text-anchor="middle" x="166.5" y="-7.5" font-family="FreeSans" font-size="10.00" fill="#000000">Wrapper</text>
</a>
</g>
</g>
<!-- Node1&#45;&gt;Node19 -->
<g id="edge18" class="edge">
<title>Node1&#45;&gt;Node19</title>
<path fill="none" stroke="#191970" d="M24.2274,-349.9532C26.9959,-283.6938 39.0549,-77.2506 83,-30.5 96.4767,-16.163 118.2556,-11.2936 136.192,-9.9402"/>
<polygon fill="#191970" stroke="#191970" points="20.716,-350.1785 23.8243,-360.3071 27.7107,-350.4508 20.716,-350.1785"/>
</g>
<!-- Node3 -->
<g id="node3" class="node">
<title>Node3</title>
<g id="a_node3"><a xlink:href="../../d3/d7f/Fun_8C.html#af69a3eef3ff244bb51f5740c6ecb5432" target="_top" xlink:title="Fun">
<polygon fill="none" stroke="#000000" points="286,-696.5 286,-716.5 320,-716.5 320,-696.5 286,-696.5"/>
<text text-anchor="middle" x="303" y="-703.5" font-family="FreeSans" font-size="10.00" fill="#000000">Fun</text>
</a>
</g>
</g>
<!-- Node2&#45;&gt;Node3 -->
<g id="edge2" class="edge">
<title>Node2&#45;&gt;Node3</title>
<path fill="none" stroke="#191970" d="M233.6941,-706.5C253.0852,-706.5 272.59,-706.5 285.9452,-706.5"/>
<polygon fill="#191970" stroke="#191970" points="233.5974,-703.0001 223.5974,-706.5 233.5974,-710.0001 233.5974,-703.0001"/>
</g>
</g>
</svg>
