<?xml version="1.0" encoding="UTF-8" standalone="no"?>
<!DOCTYPE svg PUBLIC "-//W3C//DTD SVG 1.1//EN"
 "http://www.w3.org/Graphics/SVG/1.1/DTD/svg11.dtd">
<!-- Generated by graphviz version 2.40.1 (20161225.0304)
 -->
<!-- Title: DstCompress Pages: 1 -->
<svg width="294pt" height="287pt"
 viewBox="0.00 0.00 294.00 287.00" xmlns="http://www.w3.org/2000/svg" xmlns:xlink="http://www.w3.org/1999/xlink">
<g id="graph0" class="graph" transform="scale(1 1) rotate(0) translate(4 283)">
<title>DstCompress</title>
<!-- Node1 -->
<g id="node1" class="node">
<title>Node1</title>
<polygon fill="#bfbfbf" stroke="#000000" points="0,-123.5 0,-143.5 83,-143.5 83,-123.5 0,-123.5"/>
<text text-anchor="middle" x="41.5" y="-130.5" font-family="FreeSans" font-size="10.00" fill="#000000">DstCompress</text>
</g>
<!-- Node2 -->
<g id="node2" class="node">
<title>Node2</title>
<g id="a_node2"><a xlink:href="../../dd/d2a/Fun4All__G4__EICDetector__LQ_8C.html#aaa01242fd6e77ca43a9d49a6d46008e4" target="_top" xlink:title="Fun4All_G4_EICDetector_LQ">
<polygon fill="none" stroke="#000000" points="124.5,-258.5 124.5,-278.5 280.5,-278.5 280.5,-258.5 124.5,-258.5"/>
<text text-anchor="middle" x="202.5" y="-265.5" font-family="FreeSans" font-size="10.00" fill="#000000">Fun4All_G4_EICDetector_LQ</text>
</a>
</g>
</g>
<!-- Node1&#45;&gt;Node2 -->
<g id="edge1" class="edge">
<title>Node1&#45;&gt;Node2</title>
<path fill="none" stroke="#191970" d="M49.0799,-153.0733C60.2724,-179.2751 83.7728,-225.2564 119,-249.5 124.2662,-253.1243 130.1192,-256.0671 136.2131,-258.4551"/>
<polygon fill="#191970" stroke="#191970" points="52.3035,-151.7092 45.2747,-143.7816 45.8256,-154.3621 52.3035,-151.7092"/>
</g>
<!-- Node3 -->
<g id="node3" class="node">
<title>Node3</title>
<g id="a_node3"><a xlink:href="../../d4/df5/Fun4All__G4__EICDetector__LQ__reference_8C.html#a2feefc472f17f90b3cbe74897d049f75" target="_top" xlink:title="Fun4All_G4_EICDetector\l_LQ_reference">
<polygon fill="none" stroke="#000000" points="133,-207.5 133,-239.5 272,-239.5 272,-207.5 133,-207.5"/>
<text text-anchor="start" x="141" y="-226.5" font-family="FreeSans" font-size="10.00" fill="#000000">Fun4All_G4_EICDetector</text>
<text text-anchor="middle" x="202.5" y="-214.5" font-family="FreeSans" font-size="10.00" fill="#000000">_LQ_reference</text>
</a>
</g>
</g>
<!-- Node1&#45;&gt;Node3 -->
<g id="edge2" class="edge">
<title>Node1&#45;&gt;Node3</title>
<path fill="none" stroke="#191970" d="M58.3769,-151.2202C73.1344,-165.7828 95.7843,-185.9853 119,-198.5 125.2605,-201.8748 132.0368,-204.8531 138.9283,-207.4667"/>
<polygon fill="#191970" stroke="#191970" points="60.556,-148.4461 51.0368,-143.7948 55.5777,-153.3672 60.556,-148.4461"/>
</g>
<!-- Node4 -->
<g id="node4" class="node">
<title>Node4</title>
<g id="a_node4"><a xlink:href="../../d3/d51/Fun4All__G4__EICDetector__RICH_8C.html#a5739502b0a7a1ba782c01069f77e933f" target="_top" xlink:title="Fun4All_G4_EICDetector_RICH">
<polygon fill="none" stroke="#000000" points="119,-168.5 119,-188.5 286,-188.5 286,-168.5 119,-168.5"/>
<text text-anchor="middle" x="202.5" y="-175.5" font-family="FreeSans" font-size="10.00" fill="#000000">Fun4All_G4_EICDetector_RICH</text>
</a>
</g>
</g>
<!-- Node1&#45;&gt;Node4 -->
<g id="edge3" class="edge">
<title>Node1&#45;&gt;Node4</title>
<path fill="none" stroke="#191970" d="M79.0025,-146.9222C91.6268,-151.2151 105.8467,-155.8071 119,-159.5 130.4509,-162.7149 142.8993,-165.776 154.6035,-168.4654"/>
<polygon fill="#191970" stroke="#191970" points="79.8656,-143.5177 69.2709,-143.5666 77.5837,-150.1353 79.8656,-143.5177"/>
</g>
<!-- Node5 -->
<g id="node5" class="node">
<title>Node5</title>
<g id="a_node5"><a xlink:href="../../da/d2f/Fun4All__G4__fsPHENIX__FastSim_8C.html#a66fb850cae5fcaadda23b74a25ce4c9c" target="_top" xlink:title="Fun4All_G4_fsPHENIX\l_FastSim">
<polygon fill="none" stroke="#000000" points="140.5,-117.5 140.5,-149.5 264.5,-149.5 264.5,-117.5 140.5,-117.5"/>
<text text-anchor="start" x="148.5" y="-136.5" font-family="FreeSans" font-size="10.00" fill="#000000">Fun4All_G4_fsPHENIX</text>
<text text-anchor="middle" x="202.5" y="-124.5" font-family="FreeSans" font-size="10.00" fill="#000000">_FastSim</text>
</a>
</g>
</g>
<!-- Node1&#45;&gt;Node5 -->
<g id="edge4" class="edge">
<title>Node1&#45;&gt;Node5</title>
<path fill="none" stroke="#191970" d="M93.4286,-133.5C108.3323,-133.5 124.7373,-133.5 140.1974,-133.5"/>
<polygon fill="#191970" stroke="#191970" points="93.3806,-130.0001 83.3806,-133.5 93.3805,-137.0001 93.3806,-130.0001"/>
</g>
<!-- Node6 -->
<g id="node6" class="node">
<title>Node6</title>
<g id="a_node6"><a xlink:href="../../d5/d2c/macros_2blob_2master_2macros_2g4simulations_2Fun4All__G4__sPHENIX_8C.html#a6eaaa492d7023ec86c562dc63aa1e5a4" target="_top" xlink:title="Fun4All_G4_sPHENIX">
<polygon fill="none" stroke="#000000" points="142,-78.5 142,-98.5 263,-98.5 263,-78.5 142,-78.5"/>
<text text-anchor="middle" x="202.5" y="-85.5" font-family="FreeSans" font-size="10.00" fill="#000000">Fun4All_G4_sPHENIX</text>
</a>
</g>
</g>
<!-- Node1&#45;&gt;Node6 -->
<g id="edge5" class="edge">
<title>Node1&#45;&gt;Node6</title>
<path fill="none" stroke="#191970" d="M80.3077,-120.3352C92.6194,-116.3328 106.3261,-112.0563 119,-108.5 131.4864,-104.9963 145.1297,-101.5641 157.7015,-98.5595"/>
<polygon fill="#191970" stroke="#191970" points="79.1864,-117.0194 70.7795,-123.4672 81.3724,-123.6694 79.1864,-117.0194"/>
</g>
<!-- Node7 -->
<g id="node7" class="node">
<title>Node7</title>
<g id="a_node7"><a xlink:href="../../d4/d65/Fun4All__single__particle_8C.html#a8a492b5dbead494bfdddbebde8a49b0e" target="_top" xlink:title="Fun4All_single_particle">
<polygon fill="none" stroke="#000000" points="136.5,-39.5 136.5,-59.5 268.5,-59.5 268.5,-39.5 136.5,-39.5"/>
<text text-anchor="middle" x="202.5" y="-46.5" font-family="FreeSans" font-size="10.00" fill="#000000">Fun4All_single_particle</text>
</a>
</g>
</g>
<!-- Node1&#45;&gt;Node7 -->
<g id="edge6" class="edge">
<title>Node1&#45;&gt;Node7</title>
<path fill="none" stroke="#191970" d="M58.256,-115.7323C72.9394,-101.1976 95.5483,-81.1977 119,-69.5 127.1369,-65.4413 136.1371,-62.1813 145.127,-59.5697"/>
<polygon fill="#191970" stroke="#191970" points="55.4719,-113.5719 50.9589,-123.1575 60.4645,-118.4784 55.4719,-113.5719"/>
</g>
<!-- Node8 -->
<g id="node8" class="node">
<title>Node8</title>
<g id="a_node8"><a xlink:href="../../d0/d99/Jin__BJet_8C.html#a36169bfee2ed7efda633944d12aebad9" target="_top" xlink:title="Jin_BJet">
<polygon fill="none" stroke="#000000" points="175,-.5 175,-20.5 230,-20.5 230,-.5 175,-.5"/>
<text text-anchor="middle" x="202.5" y="-7.5" font-family="FreeSans" font-size="10.00" fill="#000000">Jin_BJet</text>
</a>
</g>
</g>
<!-- Node1&#45;&gt;Node8 -->
<g id="edge7" class="edge">
<title>Node1&#45;&gt;Node8</title>
<path fill="none" stroke="#191970" d="M50.5802,-114.4798C62.788,-91.0188 86.7423,-51.6535 119,-30.5 135.5789,-19.6281 157.469,-14.6545 174.6768,-12.385"/>
<polygon fill="#191970" stroke="#191970" points="47.4304,-112.9531 46.0775,-123.4613 53.688,-116.0903 47.4304,-112.9531"/>
</g>
</g>
</svg>
