<?xml version="1.0" encoding="UTF-8" standalone="no"?>
<!DOCTYPE svg PUBLIC "-//W3C//DTD SVG 1.1//EN"
 "http://www.w3.org/Graphics/SVG/1.1/DTD/svg11.dtd">
<!-- Generated by graphviz version 2.40.1 (20161225.0304)
 -->
<!-- Title: PHG4DetectorSubsystem::set_int_param Pages: 1 -->
<svg width="810pt" height="725pt"
 viewBox="0.00 0.00 810.00 725.00" xmlns="http://www.w3.org/2000/svg" xmlns:xlink="http://www.w3.org/1999/xlink">
<g id="graph0" class="graph" transform="scale(1 1) rotate(0) translate(4 721)">
<title>PHG4DetectorSubsystem::set_int_param</title>
<!-- Node1 -->
<g id="node1" class="node">
<title>Node1</title>
<polygon fill="#bfbfbf" stroke="#000000" points="0,-335.5 0,-367.5 144,-367.5 144,-335.5 0,-335.5"/>
<text text-anchor="start" x="8" y="-354.5" font-family="FreeSans" font-size="10.00" fill="#000000">PHG4DetectorSubsystem</text>
<text text-anchor="middle" x="72" y="-342.5" font-family="FreeSans" font-size="10.00" fill="#000000">::set_int_param</text>
</g>
<!-- Node2 -->
<g id="node2" class="node">
<title>Node2</title>
<g id="a_node2"><a xlink:href="../../d8/d4c/G4__CEmc__EIC_8C.html#a643b7748ae63dfed5f748e4707bbf1d3" target="_top" xlink:title="CEmc">
<polygon fill="none" stroke="#000000" points="375.5,-634.5 375.5,-654.5 420.5,-654.5 420.5,-634.5 375.5,-634.5"/>
<text text-anchor="middle" x="398" y="-641.5" font-family="FreeSans" font-size="10.00" fill="#000000">CEmc</text>
</a>
</g>
</g>
<!-- Node1&#45;&gt;Node2 -->
<g id="edge1" class="edge">
<title>Node1&#45;&gt;Node2</title>
<path fill="none" stroke="#191970" d="M73.6037,-377.7573C78.5719,-433.7822 98.7492,-564.8617 180,-625.5 238.6093,-669.2407 332.3402,-657.9427 375.2335,-649.6466"/>
<polygon fill="#191970" stroke="#191970" points="77.0776,-377.2887 72.7992,-367.5962 70.0995,-377.8412 77.0776,-377.2887"/>
</g>
<!-- Node22 -->
<g id="node22" class="node">
<title>Node22</title>
<g id="a_node22"><a xlink:href="../../d1/d8d/macros_2blob_2master_2macros_2g4simulations_2G4__CEmc__Spacal_8C.html#a034d8a445c397fdcb3c0be0b80d91cfb" target="_top" xlink:title="2D full projective SPACAL">
<polygon fill="none" stroke="#000000" points="180,-595.5 180,-615.5 327,-615.5 327,-595.5 180,-595.5"/>
<text text-anchor="middle" x="253.5" y="-602.5" font-family="FreeSans" font-size="10.00" fill="#000000">CEmc_2DProjectiveSpacal</text>
</a>
</g>
</g>
<!-- Node1&#45;&gt;Node22 -->
<g id="edge21" class="edge">
<title>Node1&#45;&gt;Node22</title>
<path fill="none" stroke="#191970" d="M76.4783,-377.8638C86.1899,-426.6808 113.8752,-531.1998 180,-586.5 184.3474,-590.1358 189.3081,-593.0862 194.5533,-595.4789"/>
<polygon fill="#191970" stroke="#191970" points="79.8705,-376.965 74.5744,-367.7889 72.9922,-378.2649 79.8705,-376.965"/>
</g>
<!-- Node24 -->
<g id="node24" class="node">
<title>Node24</title>
<g id="a_node24"><a xlink:href="../../db/d89/ConstructGeometry_8C.html#a21c369835643f1016f506a3da3b8d446" target="_top" xlink:title="ConstructGeometry">
<polygon fill="none" stroke="#000000" points="196,-556.5 196,-576.5 311,-576.5 311,-556.5 196,-556.5"/>
<text text-anchor="middle" x="253.5" y="-563.5" font-family="FreeSans" font-size="10.00" fill="#000000">ConstructGeometry</text>
</a>
</g>
</g>
<!-- Node1&#45;&gt;Node24 -->
<g id="edge23" class="edge">
<title>Node1&#45;&gt;Node24</title>
<path fill="none" stroke="#191970" d="M79.9551,-377.2823C93.7863,-417.9413 126.0655,-496.9051 180,-541.5 187.8945,-548.0274 197.5795,-552.8826 207.2962,-556.4831"/>
<polygon fill="#191970" stroke="#191970" points="83.2132,-375.9861 76.7604,-367.5831 76.5646,-378.1761 83.2132,-375.9861"/>
</g>
<!-- Node25 -->
<g id="node25" class="node">
<title>Node25</title>
<g id="a_node25"><a xlink:href="../../d3/dc0/macros_2blob_2master_2macros_2g4simulations_2G4__DIRC_8C.html#acbdf429e4e41a2057e053691cc0b4128" target="_top" xlink:title="DIRCSetup">
<polygon fill="none" stroke="#000000" points="363,-439.5 363,-459.5 433,-459.5 433,-439.5 363,-439.5"/>
<text text-anchor="middle" x="398" y="-446.5" font-family="FreeSans" font-size="10.00" fill="#000000">DIRCSetup</text>
</a>
</g>
</g>
<!-- Node1&#45;&gt;Node25 -->
<g id="edge24" class="edge">
<title>Node1&#45;&gt;Node25</title>
<path fill="none" stroke="#191970" d="M80.8425,-377.1433C95.1246,-414.0359 127.1388,-480.7025 180,-508.5 237.8256,-538.908 265.5535,-530.6985 327,-508.5 353.8306,-498.807 377.6755,-474.0692 389.7152,-459.8945"/>
<polygon fill="#191970" stroke="#191970" points="84.0524,-375.7335 77.2819,-367.5843 77.4927,-378.177 84.0524,-375.7335"/>
</g>
<!-- Node26 -->
<g id="node26" class="node">
<title>Node26</title>
<g id="a_node26"><a xlink:href="../../df/de1/Fun4All__G4__IonGun_8C.html#ab4966a2ae337cb8f0e45f7ee488e33b7" target="_top" xlink:title="Fun4All_G4_IonGun">
<polygon fill="none" stroke="#000000" points="196.5,-478.5 196.5,-498.5 310.5,-498.5 310.5,-478.5 196.5,-478.5"/>
<text text-anchor="middle" x="253.5" y="-485.5" font-family="FreeSans" font-size="10.00" fill="#000000">Fun4All_G4_IonGun</text>
</a>
</g>
</g>
<!-- Node1&#45;&gt;Node26 -->
<g id="edge26" class="edge">
<title>Node1&#45;&gt;Node26</title>
<path fill="none" stroke="#191970" d="M87.9381,-376.0883C106.7231,-403.075 140.4398,-445.7169 180,-469.5 185.9867,-473.0991 192.6449,-476.0224 199.44,-478.3953"/>
<polygon fill="#191970" stroke="#191970" points="90.6724,-373.885 82.1532,-367.5864 84.8851,-377.8229 90.6724,-373.885"/>
</g>
<!-- Node27 -->
<g id="node27" class="node">
<title>Node27</title>
<g id="a_node27"><a xlink:href="../../d7/d40/Fun4All__G4__Prototype3_8C.html#a1201361263017b08a070777a0b90b27c" target="_top" xlink:title="Fun4All_G4_Prototype3">
<polygon fill="none" stroke="#000000" points="187,-439.5 187,-459.5 320,-459.5 320,-439.5 187,-439.5"/>
<text text-anchor="middle" x="253.5" y="-446.5" font-family="FreeSans" font-size="10.00" fill="#000000">Fun4All_G4_Prototype3</text>
</a>
</g>
</g>
<!-- Node1&#45;&gt;Node27 -->
<g id="edge27" class="edge">
<title>Node1&#45;&gt;Node27</title>
<path fill="none" stroke="#191970" d="M97.4719,-374.4847C118.2983,-392.153 149.2314,-415.9299 180,-430.5 187.5044,-434.0536 195.7666,-437.0089 203.9591,-439.4451"/>
<polygon fill="#191970" stroke="#191970" points="99.5934,-371.6923 89.7365,-367.8073 95.0193,-376.9912 99.5934,-371.6923"/>
</g>
<!-- Node28 -->
<g id="node28" class="node">
<title>Node28</title>
<g id="a_node28"><a xlink:href="../../d4/d58/Fun4All__G4__Prototype4_8C.html#acac517f0728af658cbf99c7c9687c908" target="_top" xlink:title="Fun4All_G4_Prototype4">
<polygon fill="none" stroke="#000000" points="187,-400.5 187,-420.5 320,-420.5 320,-400.5 187,-400.5"/>
<text text-anchor="middle" x="253.5" y="-407.5" font-family="FreeSans" font-size="10.00" fill="#000000">Fun4All_G4_Prototype4</text>
</a>
</g>
</g>
<!-- Node1&#45;&gt;Node28 -->
<g id="edge28" class="edge">
<title>Node1&#45;&gt;Node28</title>
<path fill="none" stroke="#191970" d="M121.9395,-371.2024C140.0834,-378.0395 160.8358,-385.4912 180,-391.5 190.1867,-394.694 201.2854,-397.7689 211.6992,-400.4804"/>
<polygon fill="#191970" stroke="#191970" points="123.025,-367.8707 112.434,-367.5875 120.5368,-374.4135 123.025,-367.8707"/>
</g>
<!-- Node29 -->
<g id="node29" class="node">
<title>Node29</title>
<g id="a_node29"><a xlink:href="../../da/db5/Fun4All__G4__W_8C.html#ad4745423f42356b6b3cb65bbbc1e917e" target="_top" xlink:title="Fun4All_G4_W">
<polygon fill="none" stroke="#000000" points="209.5,-361.5 209.5,-381.5 297.5,-381.5 297.5,-361.5 209.5,-361.5"/>
<text text-anchor="middle" x="253.5" y="-368.5" font-family="FreeSans" font-size="10.00" fill="#000000">Fun4All_G4_W</text>
</a>
</g>
</g>
<!-- Node1&#45;&gt;Node29 -->
<g id="edge29" class="edge">
<title>Node1&#45;&gt;Node29</title>
<path fill="none" stroke="#191970" d="M154.4168,-360.5817C173.3877,-362.6722 192.8486,-364.8166 209.4454,-366.6455"/>
<polygon fill="#191970" stroke="#191970" points="154.5783,-357.0784 144.2551,-359.462 153.8116,-364.0363 154.5783,-357.0784"/>
</g>
<!-- Node30 -->
<g id="node30" class="node">
<title>Node30</title>
<g id="a_node30"><a xlink:href="../../de/dd3/G4Setup__EICIR_8C.html#a674566a8ab8ae9b3ee5426df2818e2ec" target="_top" xlink:title="G4Setup">
<polygon fill="none" stroke="#000000" points="368,-263.5 368,-283.5 428,-283.5 428,-263.5 368,-263.5"/>
<text text-anchor="middle" x="398" y="-270.5" font-family="FreeSans" font-size="10.00" fill="#000000">G4Setup</text>
</a>
</g>
</g>
<!-- Node1&#45;&gt;Node30 -->
<g id="edge30" class="edge">
<title>Node1&#45;&gt;Node30</title>
<path fill="none" stroke="#191970" d="M153.9734,-346.9054C204.8768,-342.2039 271.0353,-332.7002 327,-313.5 348.0102,-306.2919 369.9542,-292.8804 383.7844,-283.5855"/>
<polygon fill="#191970" stroke="#191970" points="153.6581,-343.4196 144.0036,-347.7832 154.2721,-350.3926 153.6581,-343.4196"/>
</g>
<!-- Node31 -->
<g id="node31" class="node">
<title>Node31</title>
<g id="a_node31"><a xlink:href="../../d7/dc0/G4__HcalIn__EIC_8C.html#a3b4780d0c8bf98a2dab85016a8181973" target="_top" xlink:title="A rough version of the inner HCal support ring, from Richie&#39;s CAD drawing. &#45; Jin.">
<polygon fill="none" stroke="#000000" points="186.5,-166.5 186.5,-186.5 320.5,-186.5 320.5,-166.5 186.5,-166.5"/>
<text text-anchor="middle" x="253.5" y="-173.5" font-family="FreeSans" font-size="10.00" fill="#000000">HCalInner_SupportRing</text>
</a>
</g>
</g>
<!-- Node1&#45;&gt;Node31 -->
<g id="edge31" class="edge">
<title>Node1&#45;&gt;Node31</title>
<path fill="none" stroke="#191970" d="M82.7155,-325.9155C98.6774,-290.9986 132.0513,-228.9487 180,-195.5 185.1886,-191.8805 191.0155,-188.9503 197.0588,-186.5782"/>
<polygon fill="#191970" stroke="#191970" points="79.3596,-324.8489 78.5003,-335.4089 85.7573,-327.6896 79.3596,-324.8489"/>
</g>
<!-- Node33 -->
<g id="node33" class="node">
<title>Node33</title>
<g id="a_node33"><a xlink:href="../../d1/d9e/G4__IR__EIC_8C.html#a866137a6aef46434fb1991996576f8ae" target="_top" xlink:title="IRSetup">
<polygon fill="none" stroke="#000000" points="225.5,-283.5 225.5,-303.5 281.5,-303.5 281.5,-283.5 225.5,-283.5"/>
<text text-anchor="middle" x="253.5" y="-290.5" font-family="FreeSans" font-size="10.00" fill="#000000">IRSetup</text>
</a>
</g>
</g>
<!-- Node1&#45;&gt;Node33 -->
<g id="edge34" class="edge">
<title>Node1&#45;&gt;Node33</title>
<path fill="none" stroke="#191970" d="M131.6536,-332.4372C163.1669,-322.3668 200.3712,-310.4778 225.3048,-302.51"/>
<polygon fill="#191970" stroke="#191970" points="130.5362,-329.1198 122.0761,-335.4977 132.667,-335.7876 130.5362,-329.1198"/>
</g>
<!-- Node34 -->
<g id="node34" class="node">
<title>Node34</title>
<g id="a_node34"><a xlink:href="../../de/d2c/macros_2blob_2master_2macros_2g4simulations_2G4__Magnet_8C.html#a69bf7334e75e61a59af0ef76c418b36a" target="_top" xlink:title="Magnet">
<polygon fill="none" stroke="#000000" points="226,-244.5 226,-264.5 281,-264.5 281,-244.5 226,-244.5"/>
<text text-anchor="middle" x="253.5" y="-251.5" font-family="FreeSans" font-size="10.00" fill="#000000">Magnet</text>
</a>
</g>
</g>
<!-- Node1&#45;&gt;Node34 -->
<g id="edge36" class="edge">
<title>Node1&#45;&gt;Node34</title>
<path fill="none" stroke="#191970" d="M98.0007,-328.9236C118.905,-311.8112 149.6882,-288.8638 180,-274.5 194.4601,-267.6478 211.6711,-262.805 225.8021,-259.6029"/>
<polygon fill="#191970" stroke="#191970" points="95.6705,-326.3094 90.2224,-335.3961 100.1479,-331.6901 95.6705,-326.3094"/>
</g>
<!-- Node35 -->
<g id="node35" class="node">
<title>Node35</title>
<g id="a_node35"><a xlink:href="../../da/d21/macros_2blob_2master_2macros_2g4simulations_2G4Setup__fsPHENIX_8C.html#a5152c9ff3ef81a7dc81e9771b8ee6762" target="_top" xlink:title="make_piston">
<polygon fill="none" stroke="#000000" points="213.5,-127.5 213.5,-147.5 293.5,-147.5 293.5,-127.5 213.5,-127.5"/>
<text text-anchor="middle" x="253.5" y="-134.5" font-family="FreeSans" font-size="10.00" fill="#000000">make_piston</text>
</a>
</g>
</g>
<!-- Node1&#45;&gt;Node35 -->
<g id="edge38" class="edge">
<title>Node1&#45;&gt;Node35</title>
<path fill="none" stroke="#191970" d="M79.094,-325.4557C91.9465,-283.3268 123.1646,-200.5179 180,-156.5 189.5866,-149.0754 201.7754,-144.5334 213.4579,-141.7609"/>
<polygon fill="#191970" stroke="#191970" points="75.6798,-324.6604 76.2177,-335.2416 82.3957,-326.6344 75.6798,-324.6604"/>
</g>
<!-- Node37 -->
<g id="node37" class="node">
<title>Node37</title>
<g id="a_node37"><a xlink:href="../../df/d97/macros_2blob_2master_2macros_2g4simulations_2G4__Pipe_8C.html#a3288b3cd0aeeda385414ee0cd9a39635" target="_top" xlink:title="Pipe">
<polygon fill="none" stroke="#000000" points="235,-205.5 235,-225.5 272,-225.5 272,-205.5 235,-205.5"/>
<text text-anchor="middle" x="253.5" y="-212.5" font-family="FreeSans" font-size="10.00" fill="#000000">Pipe</text>
</a>
</g>
</g>
<!-- Node1&#45;&gt;Node37 -->
<g id="edge40" class="edge">
<title>Node1&#45;&gt;Node37</title>
<path fill="none" stroke="#191970" d="M88.3987,-326.9967C107.3787,-300.5345 141.0643,-259.0188 180,-235.5 196.9794,-225.2437 219.2953,-220.1401 234.8645,-217.672"/>
<polygon fill="#191970" stroke="#191970" points="85.4188,-325.15 82.5394,-335.3461 91.1487,-329.1711 85.4188,-325.15"/>
</g>
<!-- Node38 -->
<g id="node38" class="node">
<title>Node38</title>
<g id="a_node38"><a xlink:href="../../d1/d56/G4__PlugDoor_8C.html#aac9c24f96824c585914f9bef5de9c790" target="_top" xlink:title="PlugDoor">
<polygon fill="none" stroke="#000000" points="366.5,-88.5 366.5,-108.5 429.5,-108.5 429.5,-88.5 366.5,-88.5"/>
<text text-anchor="middle" x="398" y="-95.5" font-family="FreeSans" font-size="10.00" fill="#000000">PlugDoor</text>
</a>
</g>
</g>
<!-- Node1&#45;&gt;Node38 -->
<g id="edge42" class="edge">
<title>Node1&#45;&gt;Node38</title>
<path fill="none" stroke="#191970" d="M75.5266,-325.2275C83.7601,-275.2931 109.2363,-167.239 180,-117.5 235.7903,-78.2856 320.5214,-84.7221 366.1795,-92.0706"/>
<polygon fill="#191970" stroke="#191970" points="72.0485,-324.8176 73.9816,-335.2346 78.9665,-325.8858 72.0485,-324.8176"/>
</g>
<!-- Node39 -->
<g id="node39" class="node">
<title>Node39</title>
<g id="a_node39"><a xlink:href="../../da/d2a/G4__Svtx_8C.html#ac4c82b429746ee57457304af3cebbc56" target="_top" xlink:title="Svtx">
<polygon fill="none" stroke="#000000" points="234.5,-49.5 234.5,-69.5 272.5,-69.5 272.5,-49.5 234.5,-49.5"/>
<text text-anchor="middle" x="253.5" y="-56.5" font-family="FreeSans" font-size="10.00" fill="#000000">Svtx</text>
</a>
</g>
</g>
<!-- Node1&#45;&gt;Node39 -->
<g id="edge44" class="edge">
<title>Node1&#45;&gt;Node39</title>
<path fill="none" stroke="#191970" d="M75.2789,-325.4655C83.3038,-272.5606 108.7705,-151.8136 180,-84.5 194.8901,-70.4285 218.0098,-64.2534 234.3372,-61.5585"/>
<polygon fill="#191970" stroke="#191970" points="71.81,-324.9996 73.8594,-335.3943 78.7395,-325.9903 71.81,-324.9996"/>
</g>
<!-- Node3 -->
<g id="node3" class="node">
<title>Node3</title>
<g id="a_node3"><a xlink:href="../../d2/dfe/macros_2blob_2master_2macros_2g4simulations_2G4Setup__EICDetector_8C.html#a5d4cb2d19366a2ae6d2aefe8d2e4a870" target="_top" xlink:title="G4Setup">
<polygon fill="none" stroke="#000000" points="469,-360.5 469,-380.5 529,-380.5 529,-360.5 469,-360.5"/>
<text text-anchor="middle" x="499" y="-367.5" font-family="FreeSans" font-size="10.00" fill="#000000">G4Setup</text>
</a>
</g>
</g>
<!-- Node2&#45;&gt;Node3 -->
<g id="edge2" class="edge">
<title>Node2&#45;&gt;Node3</title>
<path fill="none" stroke="#191970" d="M428.9205,-629.8325C430.4096,-628.495 431.7866,-627.0526 433,-625.5 464.2563,-585.5049 490.9354,-423.1127 497.4707,-380.6827"/>
<polygon fill="#191970" stroke="#191970" points="426.8661,-626.9988 420.7785,-635.6701 430.9449,-632.6877 426.8661,-626.9988"/>
</g>
<!-- Node4 -->
<g id="node4" class="node">
<title>Node4</title>
<g id="a_node4"><a xlink:href="../../d3/d7f/Fun_8C.html#af0d3c8a78765149fef9b2beeecfc6279" target="_top" xlink:title="ConfigureDetectors">
<polygon fill="none" stroke="#000000" points="591.5,-696.5 591.5,-716.5 705.5,-716.5 705.5,-696.5 591.5,-696.5"/>
<text text-anchor="middle" x="648.5" y="-703.5" font-family="FreeSans" font-size="10.00" fill="#000000">ConfigureDetectors</text>
</a>
</g>
</g>
<!-- Node3&#45;&gt;Node4 -->
<g id="edge3" class="edge">
<title>Node3&#45;&gt;Node4</title>
<path fill="none" stroke="#191970" d="M500.4273,-390.9258C505.2608,-454.1307 523.1067,-644.8258 565,-687.5 572.1864,-694.8204 581.5649,-699.5749 591.4318,-702.6149"/>
<polygon fill="#191970" stroke="#191970" points="503.8973,-390.3885 499.6733,-380.6721 496.9162,-390.9019 503.8973,-390.3885"/>
</g>
<!-- Node6 -->
<g id="node6" class="node">
<title>Node6</title>
<g id="a_node6"><a xlink:href="../../da/d02/Fun4All__G4__EICDetector_8C.html#afbe82cefa1d1fd031d9a8586b7bb68c6" target="_top" xlink:title="Fun4All_G4_EICDetector">
<polygon fill="none" stroke="#000000" points="579,-657.5 579,-677.5 718,-677.5 718,-657.5 579,-657.5"/>
<text text-anchor="middle" x="648.5" y="-664.5" font-family="FreeSans" font-size="10.00" fill="#000000">Fun4All_G4_EICDetector</text>
</a>
</g>
</g>
<!-- Node3&#45;&gt;Node6 -->
<g id="edge5" class="edge">
<title>Node3&#45;&gt;Node6</title>
<path fill="none" stroke="#191970" d="M501.043,-390.6514C507.2901,-448.2566 527.9979,-611.8426 565,-648.5 569.0134,-652.4761 573.6752,-655.6904 578.7044,-658.2815"/>
<polygon fill="#191970" stroke="#191970" points="504.5139,-390.1909 499.9858,-380.6124 497.5524,-390.924 504.5139,-390.1909"/>
</g>
<!-- Node7 -->
<g id="node7" class="node">
<title>Node7</title>
<g id="a_node7"><a xlink:href="../../dd/d2a/Fun4All__G4__EICDetector__LQ_8C.html#aaa01242fd6e77ca43a9d49a6d46008e4" target="_top" xlink:title="Fun4All_G4_EICDetector_LQ">
<polygon fill="none" stroke="#000000" points="570.5,-618.5 570.5,-638.5 726.5,-638.5 726.5,-618.5 570.5,-618.5"/>
<text text-anchor="middle" x="648.5" y="-625.5" font-family="FreeSans" font-size="10.00" fill="#000000">Fun4All_G4_EICDetector_LQ</text>
</a>
</g>
</g>
<!-- Node3&#45;&gt;Node7 -->
<g id="edge6" class="edge">
<title>Node3&#45;&gt;Node7</title>
<path fill="none" stroke="#191970" d="M501.8599,-390.5144C509.6596,-442.3048 532.8848,-578.8199 565,-609.5 568.655,-612.9917 572.812,-615.891 577.2733,-618.2938"/>
<polygon fill="#191970" stroke="#191970" points="505.3134,-389.9416 500.3947,-380.5578 498.388,-390.9608 505.3134,-389.9416"/>
</g>
<!-- Node8 -->
<g id="node8" class="node">
<title>Node8</title>
<g id="a_node8"><a xlink:href="../../d4/df5/Fun4All__G4__EICDetector__LQ__reference_8C.html#a2feefc472f17f90b3cbe74897d049f75" target="_top" xlink:title="Fun4All_G4_EICDetector\l_LQ_reference">
<polygon fill="none" stroke="#000000" points="579,-567.5 579,-599.5 718,-599.5 718,-567.5 579,-567.5"/>
<text text-anchor="start" x="587" y="-586.5" font-family="FreeSans" font-size="10.00" fill="#000000">Fun4All_G4_EICDetector</text>
<text text-anchor="middle" x="648.5" y="-574.5" font-family="FreeSans" font-size="10.00" fill="#000000">_LQ_reference</text>
</a>
</g>
</g>
<!-- Node3&#45;&gt;Node8 -->
<g id="edge7" class="edge">
<title>Node3&#45;&gt;Node8</title>
<path fill="none" stroke="#191970" d="M500.2967,-391.2022C503.8343,-429.7153 516.9213,-512.6165 565,-558.5 569.0504,-562.3655 573.6743,-565.6359 578.6212,-568.4024"/>
<polygon fill="#191970" stroke="#191970" points="503.7493,-390.4604 499.4773,-380.765 496.7708,-391.0084 503.7493,-390.4604"/>
</g>
<!-- Node9 -->
<g id="node9" class="node">
<title>Node9</title>
<g id="a_node9"><a xlink:href="../../d3/d51/Fun4All__G4__EICDetector__RICH_8C.html#a5739502b0a7a1ba782c01069f77e933f" target="_top" xlink:title="Fun4All_G4_EICDetector_RICH">
<polygon fill="none" stroke="#000000" points="565,-528.5 565,-548.5 732,-548.5 732,-528.5 565,-528.5"/>
<text text-anchor="middle" x="648.5" y="-535.5" font-family="FreeSans" font-size="10.00" fill="#000000">Fun4All_G4_EICDetector_RICH</text>
</a>
</g>
</g>
<!-- Node3&#45;&gt;Node9 -->
<g id="edge8" class="edge">
<title>Node3&#45;&gt;Node9</title>
<path fill="none" stroke="#191970" d="M502.0732,-390.7609C508.0889,-423.12 524.5551,-486.2025 565,-519.5 569.3615,-523.0908 574.2681,-526.0342 579.4617,-528.4433"/>
<polygon fill="#191970" stroke="#191970" points="505.4883,-389.966 500.359,-380.6956 498.5876,-391.1412 505.4883,-389.966"/>
</g>
<!-- Node10 -->
<g id="node10" class="node">
<title>Node10</title>
<g id="a_node10"><a xlink:href="../../d9/d0e/Fun4All__G4__EICIR_8C.html#ac3543d1dd4a0abed3987d40939ee3f87" target="_top" xlink:title="Fun4All_G4_EICIR">
<polygon fill="none" stroke="#000000" points="596.5,-489.5 596.5,-509.5 700.5,-509.5 700.5,-489.5 596.5,-489.5"/>
<text text-anchor="middle" x="648.5" y="-496.5" font-family="FreeSans" font-size="10.00" fill="#000000">Fun4All_G4_EICIR</text>
</a>
</g>
</g>
<!-- Node3&#45;&gt;Node10 -->
<g id="edge9" class="edge">
<title>Node3&#45;&gt;Node10</title>
<path fill="none" stroke="#191970" d="M505.2986,-390.0753C514.3796,-415.0549 533.5981,-457.7457 565,-480.5 574.1494,-487.1298 585.2257,-491.4978 596.2782,-494.3625"/>
<polygon fill="#191970" stroke="#191970" points="508.5882,-388.8783 502.0214,-380.5639 501.97,-391.1586 508.5882,-388.8783"/>
</g>
<!-- Node11 -->
<g id="node11" class="node">
<title>Node11</title>
<g id="a_node11"><a xlink:href="../../d7/d9e/Fun4All__G4__fsPHENIX_8C.html#af48911d394d2412e817583700f2bbee2" target="_top" xlink:title="Fun4All_G4_fsPHENIX">
<polygon fill="none" stroke="#000000" points="586.5,-450.5 586.5,-470.5 710.5,-470.5 710.5,-450.5 586.5,-450.5"/>
<text text-anchor="middle" x="648.5" y="-457.5" font-family="FreeSans" font-size="10.00" fill="#000000">Fun4All_G4_fsPHENIX</text>
</a>
</g>
</g>
<!-- Node3&#45;&gt;Node11 -->
<g id="edge10" class="edge">
<title>Node3&#45;&gt;Node11</title>
<path fill="none" stroke="#191970" d="M511.1024,-388.7729C522.9084,-405.1193 542.3623,-428.454 565,-441.5 571.5694,-445.2859 578.8352,-448.3174 586.2593,-450.7449"/>
<polygon fill="#191970" stroke="#191970" points="513.9439,-386.7287 505.3586,-380.5203 508.1985,-390.7275 513.9439,-386.7287"/>
</g>
<!-- Node12 -->
<g id="node12" class="node">
<title>Node12</title>
<g id="a_node12"><a xlink:href="../../da/d2f/Fun4All__G4__fsPHENIX__FastSim_8C.html#a66fb850cae5fcaadda23b74a25ce4c9c" target="_top" xlink:title="Fun4All_G4_fsPHENIX\l_FastSim">
<polygon fill="none" stroke="#000000" points="586.5,-399.5 586.5,-431.5 710.5,-431.5 710.5,-399.5 586.5,-399.5"/>
<text text-anchor="start" x="594.5" y="-418.5" font-family="FreeSans" font-size="10.00" fill="#000000">Fun4All_G4_fsPHENIX</text>
<text text-anchor="middle" x="648.5" y="-406.5" font-family="FreeSans" font-size="10.00" fill="#000000">_FastSim</text>
</a>
</g>
</g>
<!-- Node3&#45;&gt;Node12 -->
<g id="edge11" class="edge">
<title>Node3&#45;&gt;Node12</title>
<path fill="none" stroke="#191970" d="M539.0215,-382.651C547.5918,-385.2466 556.5954,-387.9684 565,-390.5 574.5629,-393.3805 584.745,-396.4374 594.5913,-399.3883"/>
<polygon fill="#191970" stroke="#191970" points="539.807,-379.232 529.2217,-379.6811 537.7767,-385.9311 539.807,-379.232"/>
</g>
<!-- Node13 -->
<g id="node13" class="node">
<title>Node13</title>
<g id="a_node13"><a xlink:href="../../d0/da6/Fun4All__G4__fsPHENIX__pi0_8C.html#a023d91d47b678e5d7f1751834aa517c6" target="_top" xlink:title="Fun4All_G4_fsPHENIX_pi0">
<polygon fill="none" stroke="#000000" points="576,-360.5 576,-380.5 721,-380.5 721,-360.5 576,-360.5"/>
<text text-anchor="middle" x="648.5" y="-367.5" font-family="FreeSans" font-size="10.00" fill="#000000">Fun4All_G4_fsPHENIX_pi0</text>
</a>
</g>
</g>
<!-- Node3&#45;&gt;Node13 -->
<g id="edge12" class="edge">
<title>Node3&#45;&gt;Node13</title>
<path fill="none" stroke="#191970" d="M539.2574,-370.5C550.6119,-370.5 563.3264,-370.5 575.9568,-370.5"/>
<polygon fill="#191970" stroke="#191970" points="539.2536,-367.0001 529.2536,-370.5 539.2535,-374.0001 539.2536,-367.0001"/>
</g>
<!-- Node14 -->
<g id="node14" class="node">
<title>Node14</title>
<g id="a_node14"><a xlink:href="../../d5/d2c/macros_2blob_2master_2macros_2g4simulations_2Fun4All__G4__sPHENIX_8C.html#a6eaaa492d7023ec86c562dc63aa1e5a4" target="_top" xlink:title="Fun4All_G4_sPHENIX">
<polygon fill="none" stroke="#000000" points="588,-321.5 588,-341.5 709,-341.5 709,-321.5 588,-321.5"/>
<text text-anchor="middle" x="648.5" y="-328.5" font-family="FreeSans" font-size="10.00" fill="#000000">Fun4All_G4_sPHENIX</text>
</a>
</g>
</g>
<!-- Node3&#45;&gt;Node14 -->
<g id="edge13" class="edge">
<title>Node3&#45;&gt;Node14</title>
<path fill="none" stroke="#191970" d="M538.9477,-358.6858C547.5229,-356.2379 556.5471,-353.7278 565,-351.5 577.9729,-348.0809 592.1445,-344.5939 605.0686,-341.5094"/>
<polygon fill="#191970" stroke="#191970" points="537.7882,-355.3775 529.1488,-361.5103 539.727,-362.1036 537.7882,-355.3775"/>
</g>
<!-- Node15 -->
<g id="node15" class="node">
<title>Node15</title>
<g id="a_node15"><a xlink:href="../../d3/de2/Fun4All__G4__sPHENIX__AnaGenFit_8C.html#a9bf3f2f72ed69a17e2d0c1121d48013c" target="_top" xlink:title="Fun4All_G4_sPHENIX\l_AnaGenFit">
<polygon fill="none" stroke="#000000" points="588,-270.5 588,-302.5 709,-302.5 709,-270.5 588,-270.5"/>
<text text-anchor="start" x="596" y="-289.5" font-family="FreeSans" font-size="10.00" fill="#000000">Fun4All_G4_sPHENIX</text>
<text text-anchor="middle" x="648.5" y="-277.5" font-family="FreeSans" font-size="10.00" fill="#000000">_AnaGenFit</text>
</a>
</g>
</g>
<!-- Node3&#45;&gt;Node15 -->
<g id="edge14" class="edge">
<title>Node3&#45;&gt;Node15</title>
<path fill="none" stroke="#191970" d="M514.8209,-353.1073C527.3321,-340.2803 545.8321,-323.2574 565,-312.5 572.1498,-308.4874 579.9986,-305.0107 587.9334,-302.0225"/>
<polygon fill="#191970" stroke="#191970" points="512.1922,-350.7929 507.8524,-360.4582 517.2723,-355.6088 512.1922,-350.7929"/>
</g>
<!-- Node16 -->
<g id="node16" class="node">
<title>Node16</title>
<g id="a_node16"><a xlink:href="../../da/dd0/Fun4All__G4__sPHENIX__photonjet_8C.html#a6f18519e216acc05399e562ea57ea77c" target="_top" xlink:title="Fun4All_G4_sPHENIX\l_photonjet">
<polygon fill="none" stroke="#000000" points="588,-219.5 588,-251.5 709,-251.5 709,-219.5 588,-219.5"/>
<text text-anchor="start" x="596" y="-238.5" font-family="FreeSans" font-size="10.00" fill="#000000">Fun4All_G4_sPHENIX</text>
<text text-anchor="middle" x="648.5" y="-226.5" font-family="FreeSans" font-size="10.00" fill="#000000">_photonjet</text>
</a>
</g>
</g>
<!-- Node3&#45;&gt;Node16 -->
<g id="edge15" class="edge">
<title>Node3&#45;&gt;Node16</title>
<path fill="none" stroke="#191970" d="M505.8971,-350.7728C515.435,-326.3231 534.9534,-285.0174 565,-261.5 571.815,-256.1659 579.7348,-251.9182 587.9296,-248.5375"/>
<polygon fill="#191970" stroke="#191970" points="502.5194,-349.8146 502.3167,-360.4075 509.081,-352.2531 502.5194,-349.8146"/>
</g>
<!-- Node17 -->
<g id="node17" class="node">
<title>Node17</title>
<g id="a_node17"><a xlink:href="../../da/d85/Fun4All__G4__sPHENIX__photons_8C.html#a02fbbd59878fe1299f58ed187e7214ba" target="_top" xlink:title="Fun4All_G4_sPHENIX\l_photons">
<polygon fill="none" stroke="#000000" points="588,-168.5 588,-200.5 709,-200.5 709,-168.5 588,-168.5"/>
<text text-anchor="start" x="596" y="-187.5" font-family="FreeSans" font-size="10.00" fill="#000000">Fun4All_G4_sPHENIX</text>
<text text-anchor="middle" x="648.5" y="-175.5" font-family="FreeSans" font-size="10.00" fill="#000000">_photons</text>
</a>
</g>
</g>
<!-- Node3&#45;&gt;Node17 -->
<g id="edge16" class="edge">
<title>Node3&#45;&gt;Node17</title>
<path fill="none" stroke="#191970" d="M501.6091,-350.4063C507.0891,-316.4243 522.9709,-247.5944 565,-209.5 571.503,-203.6058 579.3455,-199.0991 587.5866,-195.6538"/>
<polygon fill="#191970" stroke="#191970" points="498.117,-350.0974 500.1266,-360.4999 505.0427,-351.1146 498.117,-350.0974"/>
</g>
<!-- Node18 -->
<g id="node18" class="node">
<title>Node18</title>
<g id="a_node18"><a xlink:href="../../de/d55/Fun4All__G4__sPHENIX__truthphotonjet_8C.html#a48a6f4503eaa1b3793d8ae572aa795b9" target="_top" xlink:title="Fun4All_G4_sPHENIX\l_truthphotonjet">
<polygon fill="none" stroke="#000000" points="588,-117.5 588,-149.5 709,-149.5 709,-117.5 588,-117.5"/>
<text text-anchor="start" x="596" y="-136.5" font-family="FreeSans" font-size="10.00" fill="#000000">Fun4All_G4_sPHENIX</text>
<text text-anchor="middle" x="648.5" y="-124.5" font-family="FreeSans" font-size="10.00" fill="#000000">_truthphotonjet</text>
</a>
</g>
</g>
<!-- Node3&#45;&gt;Node18 -->
<g id="edge17" class="edge">
<title>Node3&#45;&gt;Node18</title>
<path fill="none" stroke="#191970" d="M502.7732,-350.3624C512.0444,-302.9055 537.218,-185.9807 565,-158.5 571.455,-152.115 579.471,-147.3497 587.9617,-143.7955"/>
<polygon fill="#191970" stroke="#191970" points="499.3031,-349.8745 500.8569,-360.3548 506.1778,-351.193 499.3031,-349.8745"/>
</g>
<!-- Node19 -->
<g id="node19" class="node">
<title>Node19</title>
<g id="a_node19"><a xlink:href="../../d4/d65/Fun4All__single__particle_8C.html#a8a492b5dbead494bfdddbebde8a49b0e" target="_top" xlink:title="Fun4All_single_particle">
<polygon fill="none" stroke="#000000" points="582.5,-78.5 582.5,-98.5 714.5,-98.5 714.5,-78.5 582.5,-78.5"/>
<text text-anchor="middle" x="648.5" y="-85.5" font-family="FreeSans" font-size="10.00" fill="#000000">Fun4All_single_particle</text>
</a>
</g>
</g>
<!-- Node3&#45;&gt;Node19 -->
<g id="edge18" class="edge">
<title>Node3&#45;&gt;Node19</title>
<path fill="none" stroke="#191970" d="M501.3374,-350.3423C508.174,-294.8774 529.8945,-141.8368 565,-107.5 569.9953,-102.6141 575.9709,-98.8818 582.3985,-96.0442"/>
<polygon fill="#191970" stroke="#191970" points="497.8534,-349.9998 500.1368,-360.3457 504.8036,-350.834 497.8534,-349.9998"/>
</g>
<!-- Node20 -->
<g id="node20" class="node">
<title>Node20</title>
<g id="a_node20"><a xlink:href="../../d0/d99/Jin__BJet_8C.html#a36169bfee2ed7efda633944d12aebad9" target="_top" xlink:title="Jin_BJet">
<polygon fill="none" stroke="#000000" points="621,-39.5 621,-59.5 676,-59.5 676,-39.5 621,-39.5"/>
<text text-anchor="middle" x="648.5" y="-46.5" font-family="FreeSans" font-size="10.00" fill="#000000">Jin_BJet</text>
</a>
</g>
</g>
<!-- Node3&#45;&gt;Node20 -->
<g id="edge19" class="edge">
<title>Node3&#45;&gt;Node20</title>
<path fill="none" stroke="#191970" d="M500.6409,-350.2505C505.997,-289.2346 524.9758,-108.8688 565,-68.5 579.4451,-53.9305 602.5807,-49.5476 620.8398,-48.6025"/>
<polygon fill="#191970" stroke="#191970" points="497.1301,-350.2312 499.7731,-360.4911 504.1051,-350.8224 497.1301,-350.2312"/>
</g>
<!-- Node21 -->
<g id="node21" class="node">
<title>Node21</title>
<g id="a_node21"><a xlink:href="../../dd/db1/Wrapper_8cxx.html#abf1e42281903daa0752c80dd6c879fac" target="_top" xlink:title="Wrapper">
<polygon fill="none" stroke="#000000" points="618.5,-.5 618.5,-20.5 678.5,-20.5 678.5,-.5 618.5,-.5"/>
<text text-anchor="middle" x="648.5" y="-7.5" font-family="FreeSans" font-size="10.00" fill="#000000">Wrapper</text>
</a>
</g>
</g>
<!-- Node3&#45;&gt;Node21 -->
<g id="edge20" class="edge">
<title>Node3&#45;&gt;Node21</title>
<path fill="none" stroke="#191970" d="M500.0901,-350.2645C504.068,-284.1352 520.0024,-75.9867 565,-29.5 578.649,-15.3993 600.4225,-10.7885 618.3133,-9.63"/>
<polygon fill="#191970" stroke="#191970" points="496.5954,-350.0726 499.5164,-360.2568 503.5839,-350.4739 496.5954,-350.0726"/>
</g>
<!-- Node5 -->
<g id="node5" class="node">
<title>Node5</title>
<g id="a_node5"><a xlink:href="../../d3/d7f/Fun_8C.html#af69a3eef3ff244bb51f5740c6ecb5432" target="_top" xlink:title="Fun">
<polygon fill="none" stroke="#000000" points="768,-696.5 768,-716.5 802,-716.5 802,-696.5 768,-696.5"/>
<text text-anchor="middle" x="785" y="-703.5" font-family="FreeSans" font-size="10.00" fill="#000000">Fun</text>
</a>
</g>
</g>
<!-- Node4&#45;&gt;Node5 -->
<g id="edge4" class="edge">
<title>Node4&#45;&gt;Node5</title>
<path fill="none" stroke="#191970" d="M715.6941,-706.5C735.0852,-706.5 754.59,-706.5 767.9452,-706.5"/>
<polygon fill="#191970" stroke="#191970" points="715.5974,-703.0001 705.5974,-706.5 715.5974,-710.0001 715.5974,-703.0001"/>
</g>
<!-- Node23 -->
<g id="node23" class="node">
<title>Node23</title>
<g id="a_node23"><a xlink:href="../../d1/d8d/macros_2blob_2master_2macros_2g4simulations_2G4__CEmc__Spacal_8C.html#a643b7748ae63dfed5f748e4707bbf1d3" target="_top" xlink:title="EMCal main setup macro.">
<polygon fill="none" stroke="#000000" points="375.5,-595.5 375.5,-615.5 420.5,-615.5 420.5,-595.5 375.5,-595.5"/>
<text text-anchor="middle" x="398" y="-602.5" font-family="FreeSans" font-size="10.00" fill="#000000">CEmc</text>
</a>
</g>
</g>
<!-- Node22&#45;&gt;Node23 -->
<g id="edge22" class="edge">
<title>Node22&#45;&gt;Node23</title>
<path fill="none" stroke="#191970" d="M337.2721,-605.5C351.251,-605.5 364.6392,-605.5 375.2704,-605.5"/>
<polygon fill="#191970" stroke="#191970" points="337.02,-602.0001 327.02,-605.5 337.0199,-609.0001 337.02,-602.0001"/>
</g>
<!-- Node25&#45;&gt;Node3 -->
<g id="edge25" class="edge">
<title>Node25&#45;&gt;Node3</title>
<path fill="none" stroke="#191970" d="M418.7728,-433.252C438.956,-417.4651 468.9763,-393.9839 485.9931,-380.6737"/>
<polygon fill="#191970" stroke="#191970" points="416.5121,-430.5767 410.7917,-439.4946 420.8248,-436.0904 416.5121,-430.5767"/>
</g>
<!-- Node32 -->
<g id="node32" class="node">
<title>Node32</title>
<g id="a_node32"><a xlink:href="../../d7/dc0/G4__HcalIn__EIC_8C.html#a3d57117b35676ff1a0c5eb9efed9f101" target="_top" xlink:title="HCalInner">
<polygon fill="none" stroke="#000000" points="364.5,-185.5 364.5,-205.5 431.5,-205.5 431.5,-185.5 364.5,-185.5"/>
<text text-anchor="middle" x="398" y="-192.5" font-family="FreeSans" font-size="10.00" fill="#000000">HCalInner</text>
</a>
</g>
</g>
<!-- Node31&#45;&gt;Node32 -->
<g id="edge32" class="edge">
<title>Node31&#45;&gt;Node32</title>
<path fill="none" stroke="#191970" d="M330.6521,-186.6446C342.5152,-188.2044 354.2013,-189.741 364.423,-191.085"/>
<polygon fill="#191970" stroke="#191970" points="331.0446,-183.1661 320.6736,-185.3325 330.132,-190.1064 331.0446,-183.1661"/>
</g>
<!-- Node32&#45;&gt;Node3 -->
<g id="edge33" class="edge">
<title>Node32&#45;&gt;Node3</title>
<path fill="none" stroke="#191970" d="M409.4867,-214.6629C416.3605,-226.1797 425.2404,-241.1451 433,-254.5 455.5825,-293.3663 481.8408,-339.9423 493.2352,-360.2229"/>
<polygon fill="#191970" stroke="#191970" points="412.3894,-212.6972 404.2532,-205.9109 406.3815,-216.2897 412.3894,-212.6972"/>
</g>
<!-- Node33&#45;&gt;Node30 -->
<g id="edge35" class="edge">
<title>Node33&#45;&gt;Node30</title>
<path fill="none" stroke="#191970" d="M291.8079,-288.1979C315.6138,-284.9029 345.7817,-280.7274 367.8743,-277.6696"/>
<polygon fill="#191970" stroke="#191970" points="291.1298,-284.7583 281.7041,-289.5963 292.0895,-291.6922 291.1298,-284.7583"/>
</g>
<!-- Node34&#45;&gt;Node30 -->
<g id="edge37" class="edge">
<title>Node34&#45;&gt;Node30</title>
<path fill="none" stroke="#191970" d="M291.1448,-259.4498C315.039,-262.5916 345.5442,-266.6027 367.8393,-269.5342"/>
<polygon fill="#191970" stroke="#191970" points="291.3904,-255.9521 281.0195,-258.1185 290.4778,-262.8924 291.3904,-255.9521"/>
</g>
<!-- Node36 -->
<g id="node36" class="node">
<title>Node36</title>
<g id="a_node36"><a xlink:href="../../df/d4b/analysis_2blob_2master_2EICAnalysis_2macros_2leptoquarks__fun4all_2G4Setup__fsPHENIX_8C.html#ac2f64e8dbdc7060f0f9ca1c7a47cddb7" target="_top" xlink:title="G4Setup">
<polygon fill="none" stroke="#000000" points="368,-127.5 368,-147.5 428,-147.5 428,-127.5 368,-127.5"/>
<text text-anchor="middle" x="398" y="-134.5" font-family="FreeSans" font-size="10.00" fill="#000000">G4Setup</text>
</a>
</g>
</g>
<!-- Node35&#45;&gt;Node36 -->
<g id="edge39" class="edge">
<title>Node35&#45;&gt;Node36</title>
<path fill="none" stroke="#191970" d="M303.9117,-137.5C325.1373,-137.5 349.1384,-137.5 367.5869,-137.5"/>
<polygon fill="#191970" stroke="#191970" points="303.7513,-134.0001 293.7513,-137.5 303.7513,-141.0001 303.7513,-134.0001"/>
</g>
<!-- Node37&#45;&gt;Node30 -->
<g id="edge41" class="edge">
<title>Node37&#45;&gt;Node30</title>
<path fill="none" stroke="#191970" d="M282.2102,-221.7163C295.995,-225.1016 312.6056,-229.7749 327,-235.5 346.4865,-243.2504 367.5132,-254.9645 381.585,-263.3365"/>
<polygon fill="#191970" stroke="#191970" points="282.8394,-218.2687 272.3033,-219.3824 281.2343,-225.0822 282.8394,-218.2687"/>
</g>
<!-- Node38&#45;&gt;Node3 -->
<g id="edge43" class="edge">
<title>Node38&#45;&gt;Node3</title>
<path fill="none" stroke="#191970" d="M430.8086,-114.9901C431.5845,-115.7927 432.318,-116.629 433,-117.5 464.0646,-157.1715 490.8845,-318.2973 497.4605,-360.3966"/>
<polygon fill="#191970" stroke="#191970" points="432.9137,-112.1916 422.9276,-108.6521 428.5269,-117.6465 432.9137,-112.1916"/>
</g>
</g>
</svg>
