<?xml version="1.0" encoding="UTF-8" standalone="no"?>
<!DOCTYPE svg PUBLIC "-//W3C//DTD SVG 1.1//EN"
 "http://www.w3.org/Graphics/SVG/1.1/DTD/svg11.dtd">
<!-- Generated by graphviz version 2.40.1 (20161225.0304)
 -->
<!-- Title: PHG4DetectorSubsystem::get_string_param Pages: 1 -->
<svg width="829pt" height="725pt"
 viewBox="0.00 0.00 829.00 725.00" xmlns="http://www.w3.org/2000/svg" xmlns:xlink="http://www.w3.org/1999/xlink">
<g id="graph0" class="graph" transform="scale(1 1) rotate(0) translate(4 721)">
<title>PHG4DetectorSubsystem::get_string_param</title>
<!-- Node1 -->
<g id="node1" class="node">
<title>Node1</title>
<polygon fill="#bfbfbf" stroke="#000000" points="0,-354.5 0,-386.5 144,-386.5 144,-354.5 0,-354.5"/>
<text text-anchor="start" x="8" y="-373.5" font-family="FreeSans" font-size="10.00" fill="#000000">PHG4DetectorSubsystem</text>
<text text-anchor="middle" x="72" y="-361.5" font-family="FreeSans" font-size="10.00" fill="#000000">::get_string_param</text>
</g>
<!-- Node2 -->
<g id="node2" class="node">
<title>Node2</title>
<g id="a_node2"><a xlink:href="../../d8/dce/classPHG4ForwardEcalSubsystem.html#aa5a454f21fe9f9a9ae65af1b610f7e0f" target="_top" xlink:title="PHG4ForwardEcalSubsystem\l::SetTowerMappingFile">
<polygon fill="none" stroke="#000000" points="180,-354.5 180,-386.5 342,-386.5 342,-354.5 180,-354.5"/>
<text text-anchor="start" x="188" y="-373.5" font-family="FreeSans" font-size="10.00" fill="#000000">PHG4ForwardEcalSubsystem</text>
<text text-anchor="middle" x="261" y="-361.5" font-family="FreeSans" font-size="10.00" fill="#000000">::SetTowerMappingFile</text>
</a>
</g>
</g>
<!-- Node1&#45;&gt;Node2 -->
<g id="edge1" class="edge">
<title>Node1&#45;&gt;Node2</title>
<path fill="none" stroke="#191970" d="M154.4849,-370.5C162.9342,-370.5 171.5137,-370.5 179.9473,-370.5"/>
<polygon fill="#191970" stroke="#191970" points="154.2618,-367.0001 144.2618,-370.5 154.2618,-374.0001 154.2618,-367.0001"/>
</g>
<!-- Node3 -->
<g id="node3" class="node">
<title>Node3</title>
<g id="a_node3"><a xlink:href="../../d6/d5c/macros_2blob_2master_2macros_2g4simulations_2G4__FEMC_8C.html#a46bf470cecae66db11fccb5925a48429" target="_top" xlink:title="FEMCSetup">
<polygon fill="none" stroke="#000000" points="378,-360.5 378,-380.5 452,-380.5 452,-360.5 378,-360.5"/>
<text text-anchor="middle" x="415" y="-367.5" font-family="FreeSans" font-size="10.00" fill="#000000">FEMCSetup</text>
</a>
</g>
</g>
<!-- Node2&#45;&gt;Node3 -->
<g id="edge2" class="edge">
<title>Node2&#45;&gt;Node3</title>
<path fill="none" stroke="#191970" d="M352.2241,-370.5C361.1519,-370.5 369.8154,-370.5 377.7117,-370.5"/>
<polygon fill="#191970" stroke="#191970" points="352.0589,-367.0001 342.0589,-370.5 352.0588,-374.0001 352.0589,-367.0001"/>
</g>
<!-- Node4 -->
<g id="node4" class="node">
<title>Node4</title>
<g id="a_node4"><a xlink:href="../../d2/dfe/macros_2blob_2master_2macros_2g4simulations_2G4Setup__EICDetector_8C.html#a5d4cb2d19366a2ae6d2aefe8d2e4a870" target="_top" xlink:title="G4Setup">
<polygon fill="none" stroke="#000000" points="488,-360.5 488,-380.5 548,-380.5 548,-360.5 488,-360.5"/>
<text text-anchor="middle" x="518" y="-367.5" font-family="FreeSans" font-size="10.00" fill="#000000">G4Setup</text>
</a>
</g>
</g>
<!-- Node3&#45;&gt;Node4 -->
<g id="edge3" class="edge">
<title>Node3&#45;&gt;Node4</title>
<path fill="none" stroke="#191970" d="M462.2996,-370.5C471.0305,-370.5 479.9235,-370.5 487.9659,-370.5"/>
<polygon fill="#191970" stroke="#191970" points="462.1854,-367.0001 452.1854,-370.5 462.1853,-374.0001 462.1854,-367.0001"/>
</g>
<!-- Node5 -->
<g id="node5" class="node">
<title>Node5</title>
<g id="a_node5"><a xlink:href="../../d3/d7f/Fun_8C.html#af0d3c8a78765149fef9b2beeecfc6279" target="_top" xlink:title="ConfigureDetectors">
<polygon fill="none" stroke="#000000" points="610.5,-696.5 610.5,-716.5 724.5,-716.5 724.5,-696.5 610.5,-696.5"/>
<text text-anchor="middle" x="667.5" y="-703.5" font-family="FreeSans" font-size="10.00" fill="#000000">ConfigureDetectors</text>
</a>
</g>
</g>
<!-- Node4&#45;&gt;Node5 -->
<g id="edge4" class="edge">
<title>Node4&#45;&gt;Node5</title>
<path fill="none" stroke="#191970" d="M519.4273,-390.9258C524.2608,-454.1307 542.1067,-644.8258 584,-687.5 591.1864,-694.8204 600.5649,-699.5749 610.4318,-702.6149"/>
<polygon fill="#191970" stroke="#191970" points="522.8973,-390.3885 518.6733,-380.6721 515.9162,-390.9019 522.8973,-390.3885"/>
</g>
<!-- Node7 -->
<g id="node7" class="node">
<title>Node7</title>
<g id="a_node7"><a xlink:href="../../da/d02/Fun4All__G4__EICDetector_8C.html#afbe82cefa1d1fd031d9a8586b7bb68c6" target="_top" xlink:title="Fun4All_G4_EICDetector">
<polygon fill="none" stroke="#000000" points="598,-657.5 598,-677.5 737,-677.5 737,-657.5 598,-657.5"/>
<text text-anchor="middle" x="667.5" y="-664.5" font-family="FreeSans" font-size="10.00" fill="#000000">Fun4All_G4_EICDetector</text>
</a>
</g>
</g>
<!-- Node4&#45;&gt;Node7 -->
<g id="edge6" class="edge">
<title>Node4&#45;&gt;Node7</title>
<path fill="none" stroke="#191970" d="M520.043,-390.6514C526.2901,-448.2566 546.9979,-611.8426 584,-648.5 588.0134,-652.4761 592.6752,-655.6904 597.7044,-658.2815"/>
<polygon fill="#191970" stroke="#191970" points="523.5139,-390.1909 518.9858,-380.6124 516.5524,-390.924 523.5139,-390.1909"/>
</g>
<!-- Node8 -->
<g id="node8" class="node">
<title>Node8</title>
<g id="a_node8"><a xlink:href="../../dd/d2a/Fun4All__G4__EICDetector__LQ_8C.html#aaa01242fd6e77ca43a9d49a6d46008e4" target="_top" xlink:title="Fun4All_G4_EICDetector_LQ">
<polygon fill="none" stroke="#000000" points="589.5,-618.5 589.5,-638.5 745.5,-638.5 745.5,-618.5 589.5,-618.5"/>
<text text-anchor="middle" x="667.5" y="-625.5" font-family="FreeSans" font-size="10.00" fill="#000000">Fun4All_G4_EICDetector_LQ</text>
</a>
</g>
</g>
<!-- Node4&#45;&gt;Node8 -->
<g id="edge7" class="edge">
<title>Node4&#45;&gt;Node8</title>
<path fill="none" stroke="#191970" d="M520.8599,-390.5144C528.6596,-442.3048 551.8848,-578.8199 584,-609.5 587.655,-612.9917 591.812,-615.891 596.2733,-618.2938"/>
<polygon fill="#191970" stroke="#191970" points="524.3134,-389.9416 519.3947,-380.5578 517.388,-390.9608 524.3134,-389.9416"/>
</g>
<!-- Node9 -->
<g id="node9" class="node">
<title>Node9</title>
<g id="a_node9"><a xlink:href="../../d4/df5/Fun4All__G4__EICDetector__LQ__reference_8C.html#a2feefc472f17f90b3cbe74897d049f75" target="_top" xlink:title="Fun4All_G4_EICDetector\l_LQ_reference">
<polygon fill="none" stroke="#000000" points="598,-567.5 598,-599.5 737,-599.5 737,-567.5 598,-567.5"/>
<text text-anchor="start" x="606" y="-586.5" font-family="FreeSans" font-size="10.00" fill="#000000">Fun4All_G4_EICDetector</text>
<text text-anchor="middle" x="667.5" y="-574.5" font-family="FreeSans" font-size="10.00" fill="#000000">_LQ_reference</text>
</a>
</g>
</g>
<!-- Node4&#45;&gt;Node9 -->
<g id="edge8" class="edge">
<title>Node4&#45;&gt;Node9</title>
<path fill="none" stroke="#191970" d="M519.2967,-391.2022C522.8343,-429.7153 535.9213,-512.6165 584,-558.5 588.0504,-562.3655 592.6743,-565.6359 597.6212,-568.4024"/>
<polygon fill="#191970" stroke="#191970" points="522.7493,-390.4604 518.4773,-380.765 515.7708,-391.0084 522.7493,-390.4604"/>
</g>
<!-- Node10 -->
<g id="node10" class="node">
<title>Node10</title>
<g id="a_node10"><a xlink:href="../../d3/d51/Fun4All__G4__EICDetector__RICH_8C.html#a5739502b0a7a1ba782c01069f77e933f" target="_top" xlink:title="Fun4All_G4_EICDetector_RICH">
<polygon fill="none" stroke="#000000" points="584,-528.5 584,-548.5 751,-548.5 751,-528.5 584,-528.5"/>
<text text-anchor="middle" x="667.5" y="-535.5" font-family="FreeSans" font-size="10.00" fill="#000000">Fun4All_G4_EICDetector_RICH</text>
</a>
</g>
</g>
<!-- Node4&#45;&gt;Node10 -->
<g id="edge9" class="edge">
<title>Node4&#45;&gt;Node10</title>
<path fill="none" stroke="#191970" d="M521.0732,-390.7609C527.0889,-423.12 543.5551,-486.2025 584,-519.5 588.3615,-523.0908 593.2681,-526.0342 598.4617,-528.4433"/>
<polygon fill="#191970" stroke="#191970" points="524.4883,-389.966 519.359,-380.6956 517.5876,-391.1412 524.4883,-389.966"/>
</g>
<!-- Node11 -->
<g id="node11" class="node">
<title>Node11</title>
<g id="a_node11"><a xlink:href="../../d9/d0e/Fun4All__G4__EICIR_8C.html#ac3543d1dd4a0abed3987d40939ee3f87" target="_top" xlink:title="Fun4All_G4_EICIR">
<polygon fill="none" stroke="#000000" points="615.5,-489.5 615.5,-509.5 719.5,-509.5 719.5,-489.5 615.5,-489.5"/>
<text text-anchor="middle" x="667.5" y="-496.5" font-family="FreeSans" font-size="10.00" fill="#000000">Fun4All_G4_EICIR</text>
</a>
</g>
</g>
<!-- Node4&#45;&gt;Node11 -->
<g id="edge10" class="edge">
<title>Node4&#45;&gt;Node11</title>
<path fill="none" stroke="#191970" d="M524.2986,-390.0753C533.3796,-415.0549 552.5981,-457.7457 584,-480.5 593.1494,-487.1298 604.2257,-491.4978 615.2782,-494.3625"/>
<polygon fill="#191970" stroke="#191970" points="527.5882,-388.8783 521.0214,-380.5639 520.97,-391.1586 527.5882,-388.8783"/>
</g>
<!-- Node12 -->
<g id="node12" class="node">
<title>Node12</title>
<g id="a_node12"><a xlink:href="../../d7/d9e/Fun4All__G4__fsPHENIX_8C.html#af48911d394d2412e817583700f2bbee2" target="_top" xlink:title="Fun4All_G4_fsPHENIX">
<polygon fill="none" stroke="#000000" points="605.5,-450.5 605.5,-470.5 729.5,-470.5 729.5,-450.5 605.5,-450.5"/>
<text text-anchor="middle" x="667.5" y="-457.5" font-family="FreeSans" font-size="10.00" fill="#000000">Fun4All_G4_fsPHENIX</text>
</a>
</g>
</g>
<!-- Node4&#45;&gt;Node12 -->
<g id="edge11" class="edge">
<title>Node4&#45;&gt;Node12</title>
<path fill="none" stroke="#191970" d="M530.1024,-388.7729C541.9084,-405.1193 561.3623,-428.454 584,-441.5 590.5694,-445.2859 597.8352,-448.3174 605.2593,-450.7449"/>
<polygon fill="#191970" stroke="#191970" points="532.9439,-386.7287 524.3586,-380.5203 527.1985,-390.7275 532.9439,-386.7287"/>
</g>
<!-- Node13 -->
<g id="node13" class="node">
<title>Node13</title>
<g id="a_node13"><a xlink:href="../../da/d2f/Fun4All__G4__fsPHENIX__FastSim_8C.html#a66fb850cae5fcaadda23b74a25ce4c9c" target="_top" xlink:title="Fun4All_G4_fsPHENIX\l_FastSim">
<polygon fill="none" stroke="#000000" points="605.5,-399.5 605.5,-431.5 729.5,-431.5 729.5,-399.5 605.5,-399.5"/>
<text text-anchor="start" x="613.5" y="-418.5" font-family="FreeSans" font-size="10.00" fill="#000000">Fun4All_G4_fsPHENIX</text>
<text text-anchor="middle" x="667.5" y="-406.5" font-family="FreeSans" font-size="10.00" fill="#000000">_FastSim</text>
</a>
</g>
</g>
<!-- Node4&#45;&gt;Node13 -->
<g id="edge12" class="edge">
<title>Node4&#45;&gt;Node13</title>
<path fill="none" stroke="#191970" d="M558.0215,-382.651C566.5918,-385.2466 575.5954,-387.9684 584,-390.5 593.5629,-393.3805 603.745,-396.4374 613.5913,-399.3883"/>
<polygon fill="#191970" stroke="#191970" points="558.807,-379.232 548.2217,-379.6811 556.7767,-385.9311 558.807,-379.232"/>
</g>
<!-- Node14 -->
<g id="node14" class="node">
<title>Node14</title>
<g id="a_node14"><a xlink:href="../../d0/da6/Fun4All__G4__fsPHENIX__pi0_8C.html#a023d91d47b678e5d7f1751834aa517c6" target="_top" xlink:title="Fun4All_G4_fsPHENIX_pi0">
<polygon fill="none" stroke="#000000" points="595,-360.5 595,-380.5 740,-380.5 740,-360.5 595,-360.5"/>
<text text-anchor="middle" x="667.5" y="-367.5" font-family="FreeSans" font-size="10.00" fill="#000000">Fun4All_G4_fsPHENIX_pi0</text>
</a>
</g>
</g>
<!-- Node4&#45;&gt;Node14 -->
<g id="edge13" class="edge">
<title>Node4&#45;&gt;Node14</title>
<path fill="none" stroke="#191970" d="M558.2574,-370.5C569.6119,-370.5 582.3264,-370.5 594.9568,-370.5"/>
<polygon fill="#191970" stroke="#191970" points="558.2536,-367.0001 548.2536,-370.5 558.2535,-374.0001 558.2536,-367.0001"/>
</g>
<!-- Node15 -->
<g id="node15" class="node">
<title>Node15</title>
<g id="a_node15"><a xlink:href="../../d5/d2c/macros_2blob_2master_2macros_2g4simulations_2Fun4All__G4__sPHENIX_8C.html#a6eaaa492d7023ec86c562dc63aa1e5a4" target="_top" xlink:title="Fun4All_G4_sPHENIX">
<polygon fill="none" stroke="#000000" points="607,-321.5 607,-341.5 728,-341.5 728,-321.5 607,-321.5"/>
<text text-anchor="middle" x="667.5" y="-328.5" font-family="FreeSans" font-size="10.00" fill="#000000">Fun4All_G4_sPHENIX</text>
</a>
</g>
</g>
<!-- Node4&#45;&gt;Node15 -->
<g id="edge14" class="edge">
<title>Node4&#45;&gt;Node15</title>
<path fill="none" stroke="#191970" d="M557.9477,-358.6858C566.5229,-356.2379 575.5471,-353.7278 584,-351.5 596.9729,-348.0809 611.1445,-344.5939 624.0686,-341.5094"/>
<polygon fill="#191970" stroke="#191970" points="556.7882,-355.3775 548.1488,-361.5103 558.727,-362.1036 556.7882,-355.3775"/>
</g>
<!-- Node16 -->
<g id="node16" class="node">
<title>Node16</title>
<g id="a_node16"><a xlink:href="../../d3/de2/Fun4All__G4__sPHENIX__AnaGenFit_8C.html#a9bf3f2f72ed69a17e2d0c1121d48013c" target="_top" xlink:title="Fun4All_G4_sPHENIX\l_AnaGenFit">
<polygon fill="none" stroke="#000000" points="607,-270.5 607,-302.5 728,-302.5 728,-270.5 607,-270.5"/>
<text text-anchor="start" x="615" y="-289.5" font-family="FreeSans" font-size="10.00" fill="#000000">Fun4All_G4_sPHENIX</text>
<text text-anchor="middle" x="667.5" y="-277.5" font-family="FreeSans" font-size="10.00" fill="#000000">_AnaGenFit</text>
</a>
</g>
</g>
<!-- Node4&#45;&gt;Node16 -->
<g id="edge15" class="edge">
<title>Node4&#45;&gt;Node16</title>
<path fill="none" stroke="#191970" d="M533.8209,-353.1073C546.3321,-340.2803 564.8321,-323.2574 584,-312.5 591.1498,-308.4874 598.9986,-305.0107 606.9334,-302.0225"/>
<polygon fill="#191970" stroke="#191970" points="531.1922,-350.7929 526.8524,-360.4582 536.2723,-355.6088 531.1922,-350.7929"/>
</g>
<!-- Node17 -->
<g id="node17" class="node">
<title>Node17</title>
<g id="a_node17"><a xlink:href="../../da/dd0/Fun4All__G4__sPHENIX__photonjet_8C.html#a6f18519e216acc05399e562ea57ea77c" target="_top" xlink:title="Fun4All_G4_sPHENIX\l_photonjet">
<polygon fill="none" stroke="#000000" points="607,-219.5 607,-251.5 728,-251.5 728,-219.5 607,-219.5"/>
<text text-anchor="start" x="615" y="-238.5" font-family="FreeSans" font-size="10.00" fill="#000000">Fun4All_G4_sPHENIX</text>
<text text-anchor="middle" x="667.5" y="-226.5" font-family="FreeSans" font-size="10.00" fill="#000000">_photonjet</text>
</a>
</g>
</g>
<!-- Node4&#45;&gt;Node17 -->
<g id="edge16" class="edge">
<title>Node4&#45;&gt;Node17</title>
<path fill="none" stroke="#191970" d="M524.8971,-350.7728C534.435,-326.3231 553.9534,-285.0174 584,-261.5 590.815,-256.1659 598.7348,-251.9182 606.9296,-248.5375"/>
<polygon fill="#191970" stroke="#191970" points="521.5194,-349.8146 521.3167,-360.4075 528.081,-352.2531 521.5194,-349.8146"/>
</g>
<!-- Node18 -->
<g id="node18" class="node">
<title>Node18</title>
<g id="a_node18"><a xlink:href="../../da/d85/Fun4All__G4__sPHENIX__photons_8C.html#a02fbbd59878fe1299f58ed187e7214ba" target="_top" xlink:title="Fun4All_G4_sPHENIX\l_photons">
<polygon fill="none" stroke="#000000" points="607,-168.5 607,-200.5 728,-200.5 728,-168.5 607,-168.5"/>
<text text-anchor="start" x="615" y="-187.5" font-family="FreeSans" font-size="10.00" fill="#000000">Fun4All_G4_sPHENIX</text>
<text text-anchor="middle" x="667.5" y="-175.5" font-family="FreeSans" font-size="10.00" fill="#000000">_photons</text>
</a>
</g>
</g>
<!-- Node4&#45;&gt;Node18 -->
<g id="edge17" class="edge">
<title>Node4&#45;&gt;Node18</title>
<path fill="none" stroke="#191970" d="M520.7733,-350.0912C526.4512,-316.2229 542.5599,-248.3926 584,-210.5 590.4988,-204.5575 598.339,-199.9731 606.5791,-196.4364"/>
<polygon fill="#191970" stroke="#191970" points="517.2821,-349.7677 519.2261,-360.1826 524.2012,-350.8286 517.2821,-349.7677"/>
</g>
<!-- Node19 -->
<g id="node19" class="node">
<title>Node19</title>
<g id="a_node19"><a xlink:href="../../de/d55/Fun4All__G4__sPHENIX__truthphotonjet_8C.html#a48a6f4503eaa1b3793d8ae572aa795b9" target="_top" xlink:title="Fun4All_G4_sPHENIX\l_truthphotonjet">
<polygon fill="none" stroke="#000000" points="607,-117.5 607,-149.5 728,-149.5 728,-117.5 607,-117.5"/>
<text text-anchor="start" x="615" y="-136.5" font-family="FreeSans" font-size="10.00" fill="#000000">Fun4All_G4_sPHENIX</text>
<text text-anchor="middle" x="667.5" y="-124.5" font-family="FreeSans" font-size="10.00" fill="#000000">_truthphotonjet</text>
</a>
</g>
</g>
<!-- Node4&#45;&gt;Node19 -->
<g id="edge18" class="edge">
<title>Node4&#45;&gt;Node19</title>
<path fill="none" stroke="#191970" d="M521.8059,-350.4761C531.1489,-303.2843 556.4693,-186.9952 584,-159.5 590.4458,-153.0626 598.4569,-148.2144 606.9455,-144.5643"/>
<polygon fill="#191970" stroke="#191970" points="518.3469,-349.9282 519.8739,-360.4124 525.2182,-351.2642 518.3469,-349.9282"/>
</g>
<!-- Node20 -->
<g id="node20" class="node">
<title>Node20</title>
<g id="a_node20"><a xlink:href="../../d4/d65/Fun4All__single__particle_8C.html#a8a492b5dbead494bfdddbebde8a49b0e" target="_top" xlink:title="Fun4All_single_particle">
<polygon fill="none" stroke="#000000" points="601.5,-78.5 601.5,-98.5 733.5,-98.5 733.5,-78.5 601.5,-78.5"/>
<text text-anchor="middle" x="667.5" y="-85.5" font-family="FreeSans" font-size="10.00" fill="#000000">Fun4All_single_particle</text>
</a>
</g>
</g>
<!-- Node4&#45;&gt;Node20 -->
<g id="edge19" class="edge">
<title>Node4&#45;&gt;Node20</title>
<path fill="none" stroke="#191970" d="M520.3687,-350.4384C527.2869,-295.2354 549.1994,-142.8964 584,-108.5 588.9829,-103.575 594.9507,-99.7842 601.3737,-96.8773"/>
<polygon fill="#191970" stroke="#191970" points="516.891,-350.0439 519.153,-360.3944 523.8394,-350.8924 516.891,-350.0439"/>
</g>
<!-- Node21 -->
<g id="node21" class="node">
<title>Node21</title>
<g id="a_node21"><a xlink:href="../../d0/d99/Jin__BJet_8C.html#a36169bfee2ed7efda633944d12aebad9" target="_top" xlink:title="Jin_BJet">
<polygon fill="none" stroke="#000000" points="640,-39.5 640,-59.5 695,-59.5 695,-39.5 640,-39.5"/>
<text text-anchor="middle" x="667.5" y="-46.5" font-family="FreeSans" font-size="10.00" fill="#000000">Jin_BJet</text>
</a>
</g>
</g>
<!-- Node4&#45;&gt;Node21 -->
<g id="edge20" class="edge">
<title>Node4&#45;&gt;Node21</title>
<path fill="none" stroke="#191970" d="M519.7078,-349.9311C525.2001,-288.7831 544.4054,-109.8637 584,-69.5 598.4053,-54.8148 621.5441,-50.1503 639.8144,-48.9703"/>
<polygon fill="#191970" stroke="#191970" points="516.1929,-349.9525 518.815,-360.2177 523.1666,-350.5579 516.1929,-349.9525"/>
</g>
<!-- Node22 -->
<g id="node22" class="node">
<title>Node22</title>
<g id="a_node22"><a xlink:href="../../dd/db1/Wrapper_8cxx.html#abf1e42281903daa0752c80dd6c879fac" target="_top" xlink:title="Wrapper">
<polygon fill="none" stroke="#000000" points="637.5,-.5 637.5,-20.5 697.5,-20.5 697.5,-.5 637.5,-.5"/>
<text text-anchor="middle" x="667.5" y="-7.5" font-family="FreeSans" font-size="10.00" fill="#000000">Wrapper</text>
</a>
</g>
</g>
<!-- Node4&#45;&gt;Node22 -->
<g id="edge21" class="edge">
<title>Node4&#45;&gt;Node22</title>
<path fill="none" stroke="#191970" d="M519.1452,-349.9331C523.2574,-283.6121 539.4729,-77.0008 584,-30.5 597.6086,-16.2882 619.3834,-11.4149 637.2849,-10.0283"/>
<polygon fill="#191970" stroke="#191970" points="515.6288,-350.1076 518.5319,-360.2969 522.6166,-350.5212 515.6288,-350.1076"/>
</g>
<!-- Node6 -->
<g id="node6" class="node">
<title>Node6</title>
<g id="a_node6"><a xlink:href="../../d3/d7f/Fun_8C.html#af69a3eef3ff244bb51f5740c6ecb5432" target="_top" xlink:title="Fun">
<polygon fill="none" stroke="#000000" points="787,-696.5 787,-716.5 821,-716.5 821,-696.5 787,-696.5"/>
<text text-anchor="middle" x="804" y="-703.5" font-family="FreeSans" font-size="10.00" fill="#000000">Fun</text>
</a>
</g>
</g>
<!-- Node5&#45;&gt;Node6 -->
<g id="edge5" class="edge">
<title>Node5&#45;&gt;Node6</title>
<path fill="none" stroke="#191970" d="M734.6941,-706.5C754.0852,-706.5 773.59,-706.5 786.9452,-706.5"/>
<polygon fill="#191970" stroke="#191970" points="734.5974,-703.0001 724.5974,-706.5 734.5974,-710.0001 734.5974,-703.0001"/>
</g>
</g>
</svg>
