<?xml version="1.0" encoding="UTF-8" standalone="no"?>
<!DOCTYPE svg PUBLIC "-//W3C//DTD SVG 1.1//EN"
 "http://www.w3.org/Graphics/SVG/1.1/DTD/svg11.dtd">
<!-- Generated by graphviz version 2.40.1 (20161225.0304)
 -->
<!-- Title: PHG4DetectorSubsystem::BlackHole Pages: 1 -->
<svg width="596pt" height="725pt"
 viewBox="0.00 0.00 596.00 725.00" xmlns="http://www.w3.org/2000/svg" xmlns:xlink="http://www.w3.org/1999/xlink">
<g id="graph0" class="graph" transform="scale(1 1) rotate(0) translate(4 721)">
<title>PHG4DetectorSubsystem::BlackHole</title>
<!-- Node1 -->
<g id="node1" class="node">
<title>Node1</title>
<polygon fill="#bfbfbf" stroke="#000000" points="0,-471.5 0,-503.5 144,-503.5 144,-471.5 0,-471.5"/>
<text text-anchor="start" x="8" y="-490.5" font-family="FreeSans" font-size="10.00" fill="#000000">PHG4DetectorSubsystem</text>
<text text-anchor="middle" x="72" y="-478.5" font-family="FreeSans" font-size="10.00" fill="#000000">::BlackHole</text>
</g>
<!-- Node2 -->
<g id="node2" class="node">
<title>Node2</title>
<g id="a_node2"><a xlink:href="../../d9/d8f/Fun4All__G4__Momentum_8C.html#afbd7a4eecd7792e9216ce80b5514123e" target="_top" xlink:title="Fun4All_G4_Momentum">
<polygon fill="none" stroke="#000000" points="180,-594.5 180,-614.5 315,-614.5 315,-594.5 180,-594.5"/>
<text text-anchor="middle" x="247.5" y="-601.5" font-family="FreeSans" font-size="10.00" fill="#000000">Fun4All_G4_Momentum</text>
</a>
</g>
</g>
<!-- Node1&#45;&gt;Node2 -->
<g id="edge1" class="edge">
<title>Node1&#45;&gt;Node2</title>
<path fill="none" stroke="#191970" d="M92.1143,-511.2224C112.2153,-533.4839 145.0819,-566.1678 180,-585.5 186.497,-589.097 193.7302,-592.0586 200.98,-594.4834"/>
<polygon fill="#191970" stroke="#191970" points="94.5567,-508.7013 85.306,-503.5364 89.3168,-513.3428 94.5567,-508.7013"/>
</g>
<!-- Node3 -->
<g id="node3" class="node">
<title>Node3</title>
<g id="a_node3"><a xlink:href="../../dc/d8e/Fun4All__G4__Prototype2_8C.html#a6b8f092c4f51be2938dd09c810ba6226" target="_top" xlink:title="Fun4All_G4_Prototype2">
<polygon fill="none" stroke="#000000" points="181,-555.5 181,-575.5 314,-575.5 314,-555.5 181,-555.5"/>
<text text-anchor="middle" x="247.5" y="-562.5" font-family="FreeSans" font-size="10.00" fill="#000000">Fun4All_G4_Prototype2</text>
</a>
</g>
</g>
<!-- Node1&#45;&gt;Node3 -->
<g id="edge2" class="edge">
<title>Node1&#45;&gt;Node3</title>
<path fill="none" stroke="#191970" d="M106.1427,-508.7456C126.9199,-521.0098 154.3219,-536.0292 180,-546.5 188.2293,-549.8557 197.254,-552.8425 205.9513,-555.398"/>
<polygon fill="#191970" stroke="#191970" points="107.7597,-505.6345 97.381,-503.5056 104.1668,-511.6421 107.7597,-505.6345"/>
</g>
<!-- Node4 -->
<g id="node4" class="node">
<title>Node4</title>
<g id="a_node4"><a xlink:href="../../d7/d40/Fun4All__G4__Prototype3_8C.html#a1201361263017b08a070777a0b90b27c" target="_top" xlink:title="Fun4All_G4_Prototype3">
<polygon fill="none" stroke="#000000" points="181,-516.5 181,-536.5 314,-536.5 314,-516.5 181,-516.5"/>
<text text-anchor="middle" x="247.5" y="-523.5" font-family="FreeSans" font-size="10.00" fill="#000000">Fun4All_G4_Prototype3</text>
</a>
</g>
</g>
<!-- Node1&#45;&gt;Node4 -->
<g id="edge3" class="edge">
<title>Node1&#45;&gt;Node4</title>
<path fill="none" stroke="#191970" d="M154.3567,-505.8015C170.8482,-509.4663 187.5947,-513.1877 202.2545,-516.4454"/>
<polygon fill="#191970" stroke="#191970" points="154.6635,-502.2843 144.1423,-503.5316 153.1449,-509.1177 154.6635,-502.2843"/>
</g>
<!-- Node5 -->
<g id="node5" class="node">
<title>Node5</title>
<g id="a_node5"><a xlink:href="../../d4/d58/Fun4All__G4__Prototype4_8C.html#acac517f0728af658cbf99c7c9687c908" target="_top" xlink:title="Fun4All_G4_Prototype4">
<polygon fill="none" stroke="#000000" points="181,-477.5 181,-497.5 314,-497.5 314,-477.5 181,-477.5"/>
<text text-anchor="middle" x="247.5" y="-484.5" font-family="FreeSans" font-size="10.00" fill="#000000">Fun4All_G4_Prototype4</text>
</a>
</g>
</g>
<!-- Node1&#45;&gt;Node5 -->
<g id="edge4" class="edge">
<title>Node1&#45;&gt;Node5</title>
<path fill="none" stroke="#191970" d="M154.2199,-487.5C163.1926,-487.5 172.2428,-487.5 180.9931,-487.5"/>
<polygon fill="#191970" stroke="#191970" points="154.1423,-484.0001 144.1423,-487.5 154.1423,-491.0001 154.1423,-484.0001"/>
</g>
<!-- Node6 -->
<g id="node6" class="node">
<title>Node6</title>
<g id="a_node6"><a xlink:href="../../db/da1/Fun4All__G4__TPC_8C.html#af60bcd3cf09ebd567e28ede14e9e894a" target="_top" xlink:title="Fun4All_G4_TPC">
<polygon fill="none" stroke="#000000" points="199,-438.5 199,-458.5 296,-458.5 296,-438.5 199,-438.5"/>
<text text-anchor="middle" x="247.5" y="-445.5" font-family="FreeSans" font-size="10.00" fill="#000000">Fun4All_G4_TPC</text>
</a>
</g>
</g>
<!-- Node1&#45;&gt;Node6 -->
<g id="edge5" class="edge">
<title>Node1&#45;&gt;Node6</title>
<path fill="none" stroke="#191970" d="M154.3567,-469.1985C170.8482,-465.5337 187.5947,-461.8123 202.2545,-458.5546"/>
<polygon fill="#191970" stroke="#191970" points="153.1449,-465.8823 144.1423,-471.4684 154.6635,-472.7157 153.1449,-465.8823"/>
</g>
<!-- Node7 -->
<g id="node7" class="node">
<title>Node7</title>
<g id="a_node7"><a xlink:href="../../da/db5/Fun4All__G4__W_8C.html#ad4745423f42356b6b3cb65bbbc1e917e" target="_top" xlink:title="Fun4All_G4_W">
<polygon fill="none" stroke="#000000" points="203.5,-399.5 203.5,-419.5 291.5,-419.5 291.5,-399.5 203.5,-399.5"/>
<text text-anchor="middle" x="247.5" y="-406.5" font-family="FreeSans" font-size="10.00" fill="#000000">Fun4All_G4_W</text>
</a>
</g>
</g>
<!-- Node1&#45;&gt;Node7 -->
<g id="edge6" class="edge">
<title>Node1&#45;&gt;Node7</title>
<path fill="none" stroke="#191970" d="M107.0816,-466.2904C127.7869,-454.3798 154.7983,-439.8724 180,-429.5 189.042,-425.7785 199.0245,-422.4299 208.4768,-419.5844"/>
<polygon fill="#191970" stroke="#191970" points="105.2111,-463.3294 98.3301,-471.3856 108.7332,-469.3788 105.2111,-463.3294"/>
</g>
<!-- Node8 -->
<g id="node8" class="node">
<title>Node8</title>
<g id="a_node8"><a xlink:href="../../d2/dfe/macros_2blob_2master_2macros_2g4simulations_2G4Setup__EICDetector_8C.html#a5d4cb2d19366a2ae6d2aefe8d2e4a870" target="_top" xlink:title="G4Setup">
<polygon fill="none" stroke="#000000" points="217.5,-360.5 217.5,-380.5 277.5,-380.5 277.5,-360.5 217.5,-360.5"/>
<text text-anchor="middle" x="247.5" y="-367.5" font-family="FreeSans" font-size="10.00" fill="#000000">G4Setup</text>
</a>
</g>
</g>
<!-- Node1&#45;&gt;Node8 -->
<g id="edge7" class="edge">
<title>Node1&#45;&gt;Node8</title>
<path fill="none" stroke="#191970" d="M92.5652,-463.7605C112.7743,-441.8185 145.5211,-409.7826 180,-390.5 191.5208,-384.0569 205.3345,-379.4906 217.456,-376.3643"/>
<polygon fill="#191970" stroke="#191970" points="89.8178,-461.5805 85.7071,-471.3454 95.01,-466.2753 89.8178,-461.5805"/>
</g>
<!-- Node9 -->
<g id="node9" class="node">
<title>Node9</title>
<g id="a_node9"><a xlink:href="../../d3/d7f/Fun_8C.html#af0d3c8a78765149fef9b2beeecfc6279" target="_top" xlink:title="ConfigureDetectors">
<polygon fill="none" stroke="#000000" points="377.5,-696.5 377.5,-716.5 491.5,-716.5 491.5,-696.5 377.5,-696.5"/>
<text text-anchor="middle" x="434.5" y="-703.5" font-family="FreeSans" font-size="10.00" fill="#000000">ConfigureDetectors</text>
</a>
</g>
</g>
<!-- Node8&#45;&gt;Node9 -->
<g id="edge8" class="edge">
<title>Node8&#45;&gt;Node9</title>
<path fill="none" stroke="#191970" d="M287.6183,-374.431C297.9331,-377.3654 308.0646,-382.294 315,-390.5 400.8301,-492.0539 261.9489,-588.7585 351,-687.5 357.9698,-695.2283 367.3712,-700.1507 377.3532,-703.224"/>
<polygon fill="#191970" stroke="#191970" points="288.2987,-370.9964 277.771,-372.1866 286.7432,-377.8213 288.2987,-370.9964"/>
</g>
<!-- Node11 -->
<g id="node11" class="node">
<title>Node11</title>
<g id="a_node11"><a xlink:href="../../da/d02/Fun4All__G4__EICDetector_8C.html#afbe82cefa1d1fd031d9a8586b7bb68c6" target="_top" xlink:title="Fun4All_G4_EICDetector">
<polygon fill="none" stroke="#000000" points="365,-657.5 365,-677.5 504,-677.5 504,-657.5 365,-657.5"/>
<text text-anchor="middle" x="434.5" y="-664.5" font-family="FreeSans" font-size="10.00" fill="#000000">Fun4All_G4_EICDetector</text>
</a>
</g>
</g>
<!-- Node8&#45;&gt;Node11 -->
<g id="edge10" class="edge">
<title>Node8&#45;&gt;Node11</title>
<path fill="none" stroke="#191970" d="M287.523,-374.5122C297.8364,-377.4479 307.9909,-382.3568 315,-390.5 390.5283,-478.2492 272.6892,-563.2248 351,-648.5 354.9218,-652.7706 359.5866,-656.181 364.677,-658.8941"/>
<polygon fill="#191970" stroke="#191970" points="288.2125,-371.0796 277.6838,-372.261 286.6512,-377.9033 288.2125,-371.0796"/>
</g>
<!-- Node12 -->
<g id="node12" class="node">
<title>Node12</title>
<g id="a_node12"><a xlink:href="../../dd/d2a/Fun4All__G4__EICDetector__LQ_8C.html#aaa01242fd6e77ca43a9d49a6d46008e4" target="_top" xlink:title="Fun4All_G4_EICDetector_LQ">
<polygon fill="none" stroke="#000000" points="356.5,-618.5 356.5,-638.5 512.5,-638.5 512.5,-618.5 356.5,-618.5"/>
<text text-anchor="middle" x="434.5" y="-625.5" font-family="FreeSans" font-size="10.00" fill="#000000">Fun4All_G4_EICDetector_LQ</text>
</a>
</g>
</g>
<!-- Node8&#45;&gt;Node12 -->
<g id="edge11" class="edge">
<title>Node8&#45;&gt;Node12</title>
<path fill="none" stroke="#191970" d="M287.3958,-374.6231C297.7072,-377.5605 307.8926,-382.4426 315,-390.5 380.2513,-464.4732 283.4038,-537.6631 351,-609.5 354.3621,-613.073 358.2449,-616.0406 362.4583,-618.4994"/>
<polygon fill="#191970" stroke="#191970" points="288.0974,-371.1931 277.5673,-372.3625 286.5283,-378.015 288.0974,-371.1931"/>
</g>
<!-- Node13 -->
<g id="node13" class="node">
<title>Node13</title>
<g id="a_node13"><a xlink:href="../../d4/df5/Fun4All__G4__EICDetector__LQ__reference_8C.html#a2feefc472f17f90b3cbe74897d049f75" target="_top" xlink:title="Fun4All_G4_EICDetector\l_LQ_reference">
<polygon fill="none" stroke="#000000" points="365,-567.5 365,-599.5 504,-599.5 504,-567.5 365,-567.5"/>
<text text-anchor="start" x="373" y="-586.5" font-family="FreeSans" font-size="10.00" fill="#000000">Fun4All_G4_EICDetector</text>
<text text-anchor="middle" x="434.5" y="-574.5" font-family="FreeSans" font-size="10.00" fill="#000000">_LQ_reference</text>
</a>
</g>
</g>
<!-- Node8&#45;&gt;Node13 -->
<g id="edge12" class="edge">
<title>Node8&#45;&gt;Node13</title>
<path fill="none" stroke="#191970" d="M287.73,-375.0157C297.8401,-377.9713 307.8381,-382.7646 315,-390.5 366.8786,-446.5332 299.2013,-502.3929 351,-558.5 355.0033,-562.8362 359.7247,-566.4315 364.8526,-569.4109"/>
<polygon fill="#191970" stroke="#191970" points="288.2214,-371.5352 277.6834,-372.6317 286.6052,-378.346 288.2214,-371.5352"/>
</g>
<!-- Node14 -->
<g id="node14" class="node">
<title>Node14</title>
<g id="a_node14"><a xlink:href="../../d3/d51/Fun4All__G4__EICDetector__RICH_8C.html#a5739502b0a7a1ba782c01069f77e933f" target="_top" xlink:title="Fun4All_G4_EICDetector_RICH">
<polygon fill="none" stroke="#000000" points="351,-528.5 351,-548.5 518,-548.5 518,-528.5 351,-528.5"/>
<text text-anchor="middle" x="434.5" y="-535.5" font-family="FreeSans" font-size="10.00" fill="#000000">Fun4All_G4_EICDetector_RICH</text>
</a>
</g>
</g>
<!-- Node8&#45;&gt;Node14 -->
<g id="edge13" class="edge">
<title>Node8&#45;&gt;Node14</title>
<path fill="none" stroke="#191970" d="M287.6867,-375.3863C297.7065,-378.3483 307.6697,-383.0521 315,-390.5 356.7537,-432.9233 307.9038,-478.4412 351,-519.5 354.7674,-523.0893 359.0654,-526.0523 363.6786,-528.4931"/>
<polygon fill="#191970" stroke="#191970" points="288.2874,-371.9305 277.7435,-372.9679 286.633,-378.7322 288.2874,-371.9305"/>
</g>
<!-- Node15 -->
<g id="node15" class="node">
<title>Node15</title>
<g id="a_node15"><a xlink:href="../../d9/d0e/Fun4All__G4__EICIR_8C.html#ac3543d1dd4a0abed3987d40939ee3f87" target="_top" xlink:title="Fun4All_G4_EICIR">
<polygon fill="none" stroke="#000000" points="382.5,-489.5 382.5,-509.5 486.5,-509.5 486.5,-489.5 382.5,-489.5"/>
<text text-anchor="middle" x="434.5" y="-496.5" font-family="FreeSans" font-size="10.00" fill="#000000">Fun4All_G4_EICIR</text>
</a>
</g>
</g>
<!-- Node8&#45;&gt;Node15 -->
<g id="edge14" class="edge">
<title>Node8&#45;&gt;Node15</title>
<path fill="none" stroke="#191970" d="M287.428,-376.0075C297.3604,-378.9719 307.3449,-383.5218 315,-390.5 346.8382,-419.5229 318.245,-452.5159 351,-480.5 359.8168,-488.0326 371.0125,-492.7388 382.319,-495.6418"/>
<polygon fill="#191970" stroke="#191970" points="288.1523,-372.5808 277.601,-373.5402 286.4477,-379.37 288.1523,-372.5808"/>
</g>
<!-- Node16 -->
<g id="node16" class="node">
<title>Node16</title>
<g id="a_node16"><a xlink:href="../../d7/d9e/Fun4All__G4__fsPHENIX_8C.html#af48911d394d2412e817583700f2bbee2" target="_top" xlink:title="Fun4All_G4_fsPHENIX">
<polygon fill="none" stroke="#000000" points="372.5,-450.5 372.5,-470.5 496.5,-470.5 496.5,-450.5 372.5,-450.5"/>
<text text-anchor="middle" x="434.5" y="-457.5" font-family="FreeSans" font-size="10.00" fill="#000000">Fun4All_G4_fsPHENIX</text>
</a>
</g>
</g>
<!-- Node8&#45;&gt;Node16 -->
<g id="edge15" class="edge">
<title>Node8&#45;&gt;Node16</title>
<path fill="none" stroke="#191970" d="M287.4988,-377.603C297.0891,-380.5451 306.891,-384.6852 315,-390.5 337.5471,-406.668 327.9446,-426.0653 351,-441.5 357.4242,-445.8007 364.6837,-449.1382 372.1742,-451.7264"/>
<polygon fill="#191970" stroke="#191970" points="288.2275,-374.1746 277.6611,-374.9506 286.4052,-380.9332 288.2275,-374.1746"/>
</g>
<!-- Node17 -->
<g id="node17" class="node">
<title>Node17</title>
<g id="a_node17"><a xlink:href="../../da/d2f/Fun4All__G4__fsPHENIX__FastSim_8C.html#a66fb850cae5fcaadda23b74a25ce4c9c" target="_top" xlink:title="Fun4All_G4_fsPHENIX\l_FastSim">
<polygon fill="none" stroke="#000000" points="372.5,-399.5 372.5,-431.5 496.5,-431.5 496.5,-399.5 372.5,-399.5"/>
<text text-anchor="start" x="380.5" y="-418.5" font-family="FreeSans" font-size="10.00" fill="#000000">Fun4All_G4_fsPHENIX</text>
<text text-anchor="middle" x="434.5" y="-406.5" font-family="FreeSans" font-size="10.00" fill="#000000">_FastSim</text>
</a>
</g>
</g>
<!-- Node8&#45;&gt;Node17 -->
<g id="edge16" class="edge">
<title>Node8&#45;&gt;Node17</title>
<path fill="none" stroke="#191970" d="M287.3024,-380.0781C312.0288,-386.0283 344.3347,-393.8025 372.3799,-400.5513"/>
<polygon fill="#191970" stroke="#191970" points="288.0861,-376.6669 277.5448,-377.73 286.4483,-383.4726 288.0861,-376.6669"/>
</g>
<!-- Node18 -->
<g id="node18" class="node">
<title>Node18</title>
<g id="a_node18"><a xlink:href="../../d0/da6/Fun4All__G4__fsPHENIX__pi0_8C.html#a023d91d47b678e5d7f1751834aa517c6" target="_top" xlink:title="Fun4All_G4_fsPHENIX_pi0">
<polygon fill="none" stroke="#000000" points="362,-360.5 362,-380.5 507,-380.5 507,-360.5 362,-360.5"/>
<text text-anchor="middle" x="434.5" y="-367.5" font-family="FreeSans" font-size="10.00" fill="#000000">Fun4All_G4_fsPHENIX_pi0</text>
</a>
</g>
</g>
<!-- Node8&#45;&gt;Node18 -->
<g id="edge17" class="edge">
<title>Node8&#45;&gt;Node18</title>
<path fill="none" stroke="#191970" d="M287.654,-370.5C309.2503,-370.5 336.5529,-370.5 361.7408,-370.5"/>
<polygon fill="#191970" stroke="#191970" points="287.5448,-367.0001 277.5448,-370.5 287.5448,-374.0001 287.5448,-367.0001"/>
</g>
<!-- Node19 -->
<g id="node19" class="node">
<title>Node19</title>
<g id="a_node19"><a xlink:href="../../d5/d2c/macros_2blob_2master_2macros_2g4simulations_2Fun4All__G4__sPHENIX_8C.html#a6eaaa492d7023ec86c562dc63aa1e5a4" target="_top" xlink:title="Fun4All_G4_sPHENIX">
<polygon fill="none" stroke="#000000" points="374,-321.5 374,-341.5 495,-341.5 495,-321.5 374,-321.5"/>
<text text-anchor="middle" x="434.5" y="-328.5" font-family="FreeSans" font-size="10.00" fill="#000000">Fun4All_G4_sPHENIX</text>
</a>
</g>
</g>
<!-- Node8&#45;&gt;Node19 -->
<g id="edge18" class="edge">
<title>Node8&#45;&gt;Node19</title>
<path fill="none" stroke="#191970" d="M287.6968,-362.1167C316.5996,-356.0889 355.7064,-347.9329 386.2897,-341.5546"/>
<polygon fill="#191970" stroke="#191970" points="286.6196,-358.766 277.5448,-364.234 288.0488,-365.6185 286.6196,-358.766"/>
</g>
<!-- Node20 -->
<g id="node20" class="node">
<title>Node20</title>
<g id="a_node20"><a xlink:href="../../d3/de2/Fun4All__G4__sPHENIX__AnaGenFit_8C.html#a9bf3f2f72ed69a17e2d0c1121d48013c" target="_top" xlink:title="Fun4All_G4_sPHENIX\l_AnaGenFit">
<polygon fill="none" stroke="#000000" points="374,-270.5 374,-302.5 495,-302.5 495,-270.5 374,-270.5"/>
<text text-anchor="start" x="382" y="-289.5" font-family="FreeSans" font-size="10.00" fill="#000000">Fun4All_G4_sPHENIX</text>
<text text-anchor="middle" x="434.5" y="-277.5" font-family="FreeSans" font-size="10.00" fill="#000000">_AnaGenFit</text>
</a>
</g>
</g>
<!-- Node8&#45;&gt;Node20 -->
<g id="edge19" class="edge">
<title>Node8&#45;&gt;Node20</title>
<path fill="none" stroke="#191970" d="M271.7892,-354.9697C292.3078,-342.3251 322.7785,-324.6427 351,-312.5 359.3681,-308.8995 368.4005,-305.5585 377.326,-302.5532"/>
<polygon fill="#191970" stroke="#191970" points="269.7376,-352.1243 263.1059,-360.3869 273.4428,-358.0633 269.7376,-352.1243"/>
</g>
<!-- Node21 -->
<g id="node21" class="node">
<title>Node21</title>
<g id="a_node21"><a xlink:href="../../da/dd0/Fun4All__G4__sPHENIX__photonjet_8C.html#a6f18519e216acc05399e562ea57ea77c" target="_top" xlink:title="Fun4All_G4_sPHENIX\l_photonjet">
<polygon fill="none" stroke="#000000" points="374,-219.5 374,-251.5 495,-251.5 495,-219.5 374,-219.5"/>
<text text-anchor="start" x="382" y="-238.5" font-family="FreeSans" font-size="10.00" fill="#000000">Fun4All_G4_sPHENIX</text>
<text text-anchor="middle" x="434.5" y="-226.5" font-family="FreeSans" font-size="10.00" fill="#000000">_photonjet</text>
</a>
</g>
</g>
<!-- Node8&#45;&gt;Node21 -->
<g id="edge20" class="edge">
<title>Node8&#45;&gt;Node21</title>
<path fill="none" stroke="#191970" d="M260.2098,-352.1503C277.8748,-327.9767 312.0988,-285.7035 351,-261.5 357.9614,-257.1688 365.7013,-253.5079 373.5814,-250.4273"/>
<polygon fill="#191970" stroke="#191970" points="257.2426,-350.2827 254.2751,-360.4534 262.9375,-354.3532 257.2426,-350.2827"/>
</g>
<!-- Node22 -->
<g id="node22" class="node">
<title>Node22</title>
<g id="a_node22"><a xlink:href="../../da/d85/Fun4All__G4__sPHENIX__photons_8C.html#a02fbbd59878fe1299f58ed187e7214ba" target="_top" xlink:title="Fun4All_G4_sPHENIX\l_photons">
<polygon fill="none" stroke="#000000" points="374,-168.5 374,-200.5 495,-200.5 495,-168.5 374,-168.5"/>
<text text-anchor="start" x="382" y="-187.5" font-family="FreeSans" font-size="10.00" fill="#000000">Fun4All_G4_sPHENIX</text>
<text text-anchor="middle" x="434.5" y="-175.5" font-family="FreeSans" font-size="10.00" fill="#000000">_photons</text>
</a>
</g>
</g>
<!-- Node8&#45;&gt;Node22 -->
<g id="edge21" class="edge">
<title>Node8&#45;&gt;Node22</title>
<path fill="none" stroke="#191970" d="M255.1109,-350.4205C268.9711,-316.5372 301.5406,-248.0401 351,-210.5 357.7726,-205.3595 365.5778,-201.2239 373.6397,-197.8994"/>
<polygon fill="#191970" stroke="#191970" points="251.6969,-349.5359 251.2705,-360.1222 258.2055,-352.1124 251.6969,-349.5359"/>
</g>
<!-- Node23 -->
<g id="node23" class="node">
<title>Node23</title>
<g id="a_node23"><a xlink:href="../../de/d55/Fun4All__G4__sPHENIX__truthphotonjet_8C.html#a48a6f4503eaa1b3793d8ae572aa795b9" target="_top" xlink:title="Fun4All_G4_sPHENIX\l_truthphotonjet">
<polygon fill="none" stroke="#000000" points="374,-117.5 374,-149.5 495,-149.5 495,-117.5 374,-117.5"/>
<text text-anchor="start" x="382" y="-136.5" font-family="FreeSans" font-size="10.00" fill="#000000">Fun4All_G4_sPHENIX</text>
<text text-anchor="middle" x="434.5" y="-124.5" font-family="FreeSans" font-size="10.00" fill="#000000">_truthphotonjet</text>
</a>
</g>
</g>
<!-- Node8&#45;&gt;Node23 -->
<g id="edge22" class="edge">
<title>Node8&#45;&gt;Node23</title>
<path fill="none" stroke="#191970" d="M251.6769,-350.6068C261.4671,-308.9095 289.8425,-211.8873 351,-159.5 357.6879,-153.7711 365.6315,-149.3036 373.9185,-145.8198"/>
<polygon fill="#191970" stroke="#191970" points="248.2563,-349.8655 249.4874,-360.3886 255.0872,-351.3946 248.2563,-349.8655"/>
</g>
<!-- Node24 -->
<g id="node24" class="node">
<title>Node24</title>
<g id="a_node24"><a xlink:href="../../d4/d65/Fun4All__single__particle_8C.html#a8a492b5dbead494bfdddbebde8a49b0e" target="_top" xlink:title="Fun4All_single_particle">
<polygon fill="none" stroke="#000000" points="368.5,-78.5 368.5,-98.5 500.5,-98.5 500.5,-78.5 368.5,-78.5"/>
<text text-anchor="middle" x="434.5" y="-85.5" font-family="FreeSans" font-size="10.00" fill="#000000">Fun4All_single_particle</text>
</a>
</g>
</g>
<!-- Node8&#45;&gt;Node24 -->
<g id="edge23" class="edge">
<title>Node8&#45;&gt;Node24</title>
<path fill="none" stroke="#191970" d="M249.279,-350.2939C254.7418,-300.9877 275.7876,-173.782 351,-108.5 356.0659,-104.103 361.9308,-100.6338 368.1574,-97.9022"/>
<polygon fill="#191970" stroke="#191970" points="245.7878,-350.0315 248.2679,-360.3319 252.7526,-350.7331 245.7878,-350.0315"/>
</g>
<!-- Node25 -->
<g id="node25" class="node">
<title>Node25</title>
<g id="a_node25"><a xlink:href="../../d0/d99/Jin__BJet_8C.html#a36169bfee2ed7efda633944d12aebad9" target="_top" xlink:title="Jin_BJet">
<polygon fill="none" stroke="#000000" points="407,-39.5 407,-59.5 462,-59.5 462,-39.5 407,-39.5"/>
<text text-anchor="middle" x="434.5" y="-46.5" font-family="FreeSans" font-size="10.00" fill="#000000">Jin_BJet</text>
</a>
</g>
</g>
<!-- Node8&#45;&gt;Node25 -->
<g id="edge24" class="edge">
<title>Node8&#45;&gt;Node25</title>
<path fill="none" stroke="#191970" d="M251.7247,-350.618C265.0002,-289.95 307.5805,-108.9354 351,-69.5 366.1174,-55.7697 388.9682,-51.0073 406.9458,-49.5465"/>
<polygon fill="#191970" stroke="#191970" points="248.2839,-349.9707 249.5933,-360.4843 255.126,-351.4488 248.2839,-349.9707"/>
</g>
<!-- Node26 -->
<g id="node26" class="node">
<title>Node26</title>
<g id="a_node26"><a xlink:href="../../dd/db1/Wrapper_8cxx.html#abf1e42281903daa0752c80dd6c879fac" target="_top" xlink:title="Wrapper">
<polygon fill="none" stroke="#000000" points="404.5,-.5 404.5,-20.5 464.5,-20.5 464.5,-.5 404.5,-.5"/>
<text text-anchor="middle" x="434.5" y="-7.5" font-family="FreeSans" font-size="10.00" fill="#000000">Wrapper</text>
</a>
</g>
</g>
<!-- Node8&#45;&gt;Node26 -->
<g id="edge25" class="edge">
<title>Node8&#45;&gt;Node26</title>
<path fill="none" stroke="#191970" d="M250.965,-350.2474C262.6821,-284.0735 302.7957,-75.8769 351,-30.5 365.2188,-17.1152 386.7505,-12.1918 404.3876,-10.5749"/>
<polygon fill="#191970" stroke="#191970" points="247.4912,-349.7944 249.2205,-360.2472 254.3871,-350.9975 247.4912,-349.7944"/>
</g>
<!-- Node10 -->
<g id="node10" class="node">
<title>Node10</title>
<g id="a_node10"><a xlink:href="../../d3/d7f/Fun_8C.html#af69a3eef3ff244bb51f5740c6ecb5432" target="_top" xlink:title="Fun">
<polygon fill="none" stroke="#000000" points="554,-696.5 554,-716.5 588,-716.5 588,-696.5 554,-696.5"/>
<text text-anchor="middle" x="571" y="-703.5" font-family="FreeSans" font-size="10.00" fill="#000000">Fun</text>
</a>
</g>
</g>
<!-- Node9&#45;&gt;Node10 -->
<g id="edge9" class="edge">
<title>Node9&#45;&gt;Node10</title>
<path fill="none" stroke="#191970" d="M501.6941,-706.5C521.0852,-706.5 540.59,-706.5 553.9452,-706.5"/>
<polygon fill="#191970" stroke="#191970" points="501.5974,-703.0001 491.5974,-706.5 501.5974,-710.0001 501.5974,-703.0001"/>
</g>
</g>
</svg>
