<?xml version="1.0" encoding="UTF-8" standalone="no"?>
<!DOCTYPE svg PUBLIC "-//W3C//DTD SVG 1.1//EN"
 "http://www.w3.org/Graphics/SVG/1.1/DTD/svg11.dtd">
<!-- Generated by graphviz version 2.40.1 (20161225.0304)
 -->
<!-- Title: PHG4DetectorSubsystem::set_double_param Pages: 1 -->
<svg width="799pt" height="1200pt"
 viewBox="0.00 0.00 799.00 1199.77" xmlns="http://www.w3.org/2000/svg" xmlns:xlink="http://www.w3.org/1999/xlink">
<g id="graph0" class="graph" transform="scale(1 1) rotate(0) translate(4 1195.7689)">
<title>PHG4DetectorSubsystem::set_double_param</title>
<!-- Node1 -->
<g id="node1" class="node">
<title>Node1</title>
<polygon fill="#bfbfbf" stroke="#000000" points="0,-610.7717 0,-642.7717 144,-642.7717 144,-610.7717 0,-610.7717"/>
<text text-anchor="start" x="8" y="-629.7717" font-family="FreeSans" font-size="10.00" fill="#000000">PHG4DetectorSubsystem</text>
<text text-anchor="middle" x="72" y="-617.7717" font-family="FreeSans" font-size="10.00" fill="#000000">::set_double_param</text>
</g>
<!-- Node2 -->
<g id="node2" class="node">
<title>Node2</title>
<g id="a_node2"><a xlink:href="../../d8/d4c/G4__CEmc__EIC_8C.html#a643b7748ae63dfed5f748e4707bbf1d3" target="_top" xlink:title="CEmc">
<polygon fill="none" stroke="#000000" points="434.5,-1152.7717 434.5,-1172.7717 479.5,-1172.7717 479.5,-1152.7717 434.5,-1152.7717"/>
<text text-anchor="middle" x="457" y="-1159.7717" font-family="FreeSans" font-size="10.00" fill="#000000">CEmc</text>
</a>
</g>
</g>
<!-- Node1&#45;&gt;Node2 -->
<g id="edge1" class="edge">
<title>Node1&#45;&gt;Node2</title>
<path fill="none" stroke="#191970" d="M73.2467,-653.0473C78.4546,-750.3524 101.9708,-1087.9725 180,-1153.7717 253.9342,-1216.1178 382.5309,-1186.1093 434.3746,-1170.3372"/>
<polygon fill="#191970" stroke="#191970" points="76.7337,-652.7039 72.724,-642.8972 69.743,-653.0639 76.7337,-652.7039"/>
</g>
<!-- Node20 -->
<g id="node20" class="node">
<title>Node20</title>
<g id="a_node20"><a xlink:href="../../d1/d8d/macros_2blob_2master_2macros_2g4simulations_2G4__CEmc__Spacal_8C.html#a5a524f976392ac304e84c872e8d435d1" target="_top" xlink:title="EMCal setup macro &#45; 1D azimuthal projective SPACAL.">
<polygon fill="none" stroke="#000000" points="209.5,-1123.7717 209.5,-1143.7717 356.5,-1143.7717 356.5,-1123.7717 209.5,-1123.7717"/>
<text text-anchor="middle" x="283" y="-1130.7717" font-family="FreeSans" font-size="10.00" fill="#000000">CEmc_1DProjectiveSpacal</text>
</a>
</g>
</g>
<!-- Node1&#45;&gt;Node20 -->
<g id="edge19" class="edge">
<title>Node1&#45;&gt;Node20</title>
<path fill="none" stroke="#191970" d="M74.0725,-653.1374C81.847,-745.0791 112.3564,-1049.4803 180,-1114.7717 188.177,-1122.6644 198.5006,-1127.8357 209.4353,-1131.144"/>
<polygon fill="#191970" stroke="#191970" points="77.5473,-652.6866 73.2361,-643.0085 70.571,-653.2627 77.5473,-652.6866"/>
</g>
<!-- Node22 -->
<g id="node22" class="node">
<title>Node22</title>
<g id="a_node22"><a xlink:href="../../d1/d8d/macros_2blob_2master_2macros_2g4simulations_2G4__CEmc__Spacal_8C.html#a034d8a445c397fdcb3c0be0b80d91cfb" target="_top" xlink:title="2D full projective SPACAL">
<polygon fill="none" stroke="#000000" points="209.5,-1084.7717 209.5,-1104.7717 356.5,-1104.7717 356.5,-1084.7717 209.5,-1084.7717"/>
<text text-anchor="middle" x="283" y="-1091.7717" font-family="FreeSans" font-size="10.00" fill="#000000">CEmc_2DProjectiveSpacal</text>
</a>
</g>
</g>
<!-- Node1&#45;&gt;Node22 -->
<g id="edge21" class="edge">
<title>Node1&#45;&gt;Node22</title>
<path fill="none" stroke="#191970" d="M74.6336,-653.2992C83.8447,-740.5664 117.4983,-1016.5355 180,-1075.7717 188.1827,-1083.5269 198.4434,-1088.6401 209.2955,-1091.9362"/>
<polygon fill="#191970" stroke="#191970" points="78.0962,-652.7559 73.5856,-643.1692 71.1334,-653.4764 78.0962,-652.7559"/>
</g>
<!-- Node23 -->
<g id="node23" class="node">
<title>Node23</title>
<g id="a_node23"><a xlink:href="../../db/d89/ConstructGeometry_8C.html#a21c369835643f1016f506a3da3b8d446" target="_top" xlink:title="ConstructGeometry">
<polygon fill="none" stroke="#000000" points="225.5,-1045.7717 225.5,-1065.7717 340.5,-1065.7717 340.5,-1045.7717 225.5,-1045.7717"/>
<text text-anchor="middle" x="283" y="-1052.7717" font-family="FreeSans" font-size="10.00" fill="#000000">ConstructGeometry</text>
</a>
</g>
</g>
<!-- Node1&#45;&gt;Node23 -->
<g id="edge23" class="edge">
<title>Node1&#45;&gt;Node23</title>
<path fill="none" stroke="#191970" d="M75.5154,-653.1266C86.8331,-734.0709 124.8264,-976.8584 180,-1030.7717 192.1081,-1042.6033 208.816,-1049.1597 225.2539,-1052.7044"/>
<polygon fill="#191970" stroke="#191970" points="78.9272,-652.2451 74.0965,-642.8157 71.9925,-653.1995 78.9272,-652.2451"/>
</g>
<!-- Node24 -->
<g id="node24" class="node">
<title>Node24</title>
<g id="a_node24"><a xlink:href="../../d3/dc0/macros_2blob_2master_2macros_2g4simulations_2G4__DIRC_8C.html#acbdf429e4e41a2057e053691cc0b4128" target="_top" xlink:title="DIRCSetup">
<polygon fill="none" stroke="#000000" points="422,-772.7717 422,-792.7717 492,-792.7717 492,-772.7717 422,-772.7717"/>
<text text-anchor="middle" x="457" y="-779.7717" font-family="FreeSans" font-size="10.00" fill="#000000">DIRCSetup</text>
</a>
</g>
</g>
<!-- Node1&#45;&gt;Node24 -->
<g id="edge24" class="edge">
<title>Node1&#45;&gt;Node24</title>
<path fill="none" stroke="#191970" d="M75.5793,-653.1149C86.7055,-730.6502 123.3733,-955.2788 180,-997.7717 216.6151,-1025.2479 348.9006,-1024.5903 386,-997.7717 421.0427,-972.4399 448.2911,-831.8642 455.2617,-792.8282"/>
<polygon fill="#191970" stroke="#191970" points="79.0412,-652.5983 74.1795,-643.1848 72.1097,-653.5755 79.0412,-652.5983"/>
</g>
<!-- Node25 -->
<g id="node25" class="node">
<title>Node25</title>
<g id="a_node25"><a xlink:href="../../de/d55/Fun4All__G4__block_8C.html#a6a063a649a0dd3318a517d5af98430dd" target="_top" xlink:title="Fun4All_G4_block">
<polygon fill="none" stroke="#000000" points="230.5,-967.7717 230.5,-987.7717 335.5,-987.7717 335.5,-967.7717 230.5,-967.7717"/>
<text text-anchor="middle" x="283" y="-974.7717" font-family="FreeSans" font-size="10.00" fill="#000000">Fun4All_G4_block</text>
</a>
</g>
</g>
<!-- Node1&#45;&gt;Node25 -->
<g id="edge26" class="edge">
<title>Node1&#45;&gt;Node25</title>
<path fill="none" stroke="#191970" d="M76.9041,-652.7166C90.7986,-723.4544 132.5121,-917.1759 180,-958.7717 193.7467,-970.8128 212.5742,-976.328 230.3747,-978.5854"/>
<polygon fill="#191970" stroke="#191970" points="80.3272,-651.9829 74.9873,-642.8322 73.4552,-653.3157 80.3272,-651.9829"/>
</g>
<!-- Node26 -->
<g id="node26" class="node">
<title>Node26</title>
<g id="a_node26"><a xlink:href="../../d2/dee/Fun4All__G4__Cylinder_8C.html#a271dc4f10f6f77107705e0efef0c97e5" target="_top" xlink:title="Fun4All_G4_Cylinder">
<polygon fill="none" stroke="#000000" points="222.5,-928.7717 222.5,-948.7717 343.5,-948.7717 343.5,-928.7717 222.5,-928.7717"/>
<text text-anchor="middle" x="283" y="-935.7717" font-family="FreeSans" font-size="10.00" fill="#000000">Fun4All_G4_Cylinder</text>
</a>
</g>
</g>
<!-- Node1&#45;&gt;Node26 -->
<g id="edge27" class="edge">
<title>Node1&#45;&gt;Node26</title>
<path fill="none" stroke="#191970" d="M73.3629,-652.9893C77.872,-710.8886 97.2243,-850.0462 180,-919.7717 191.8212,-929.7292 207.1475,-935.1689 222.3482,-937.9932"/>
<polygon fill="#191970" stroke="#191970" points="76.8433,-652.5828 72.6631,-642.8475 69.8599,-653.0648 76.8433,-652.5828"/>
</g>
<!-- Node27 -->
<g id="node27" class="node">
<title>Node27</title>
<g id="a_node27"><a xlink:href="../../df/de1/Fun4All__G4__IonGun_8C.html#ab4966a2ae337cb8f0e45f7ee488e33b7" target="_top" xlink:title="Fun4All_G4_IonGun">
<polygon fill="none" stroke="#000000" points="226,-889.7717 226,-909.7717 340,-909.7717 340,-889.7717 226,-889.7717"/>
<text text-anchor="middle" x="283" y="-896.7717" font-family="FreeSans" font-size="10.00" fill="#000000">Fun4All_G4_IonGun</text>
</a>
</g>
</g>
<!-- Node1&#45;&gt;Node27 -->
<g id="edge28" class="edge">
<title>Node1&#45;&gt;Node27</title>
<path fill="none" stroke="#191970" d="M75.0399,-653.1131C82.5578,-705.4048 107.0398,-822.3022 180,-880.7717 192.9124,-891.1195 209.6597,-896.5115 225.8841,-899.1634"/>
<polygon fill="#191970" stroke="#191970" points="78.4792,-652.426 73.6818,-642.9795 71.5412,-653.3559 78.4792,-652.426"/>
</g>
<!-- Node28 -->
<g id="node28" class="node">
<title>Node28</title>
<g id="a_node28"><a xlink:href="../../d5/d01/Fun4All__G4__LeadBrick_8C.html#a5fcd8843f8a815feb3b053eaabd60d41" target="_top" xlink:title="Fun4All_G4_LeadBrick">
<polygon fill="none" stroke="#000000" points="219,-850.7717 219,-870.7717 347,-870.7717 347,-850.7717 219,-850.7717"/>
<text text-anchor="middle" x="283" y="-857.7717" font-family="FreeSans" font-size="10.00" fill="#000000">Fun4All_G4_LeadBrick</text>
</a>
</g>
</g>
<!-- Node1&#45;&gt;Node28 -->
<g id="edge29" class="edge">
<title>Node1&#45;&gt;Node28</title>
<path fill="none" stroke="#191970" d="M77.1459,-652.6402C87.7235,-698.5893 116.4627,-794.0839 180,-841.7717 191.1982,-850.1765 204.9783,-855.2442 218.774,-858.2219"/>
<polygon fill="#191970" stroke="#191970" points="80.5597,-651.8674 74.9968,-642.8505 73.7225,-653.3684 80.5597,-651.8674"/>
</g>
<!-- Node29 -->
<g id="node29" class="node">
<title>Node29</title>
<g id="a_node29"><a xlink:href="../../d9/d8f/Fun4All__G4__Momentum_8C.html#afbd7a4eecd7792e9216ce80b5514123e" target="_top" xlink:title="Fun4All_G4_Momentum">
<polygon fill="none" stroke="#000000" points="215.5,-811.7717 215.5,-831.7717 350.5,-831.7717 350.5,-811.7717 215.5,-811.7717"/>
<text text-anchor="middle" x="283" y="-818.7717" font-family="FreeSans" font-size="10.00" fill="#000000">Fun4All_G4_Momentum</text>
</a>
</g>
</g>
<!-- Node1&#45;&gt;Node29 -->
<g id="edge30" class="edge">
<title>Node1&#45;&gt;Node29</title>
<path fill="none" stroke="#191970" d="M80.1111,-652.4021C93.9144,-691.5565 125.8664,-765.6245 180,-802.7717 190.4202,-809.9222 202.774,-814.5905 215.2436,-817.5975"/>
<polygon fill="#191970" stroke="#191970" points="83.3764,-651.1331 76.8425,-642.793 76.7494,-653.3874 83.3764,-651.1331"/>
</g>
<!-- Node30 -->
<g id="node30" class="node">
<title>Node30</title>
<g id="a_node30"><a xlink:href="../../dc/d8e/Fun4All__G4__Prototype2_8C.html#a6b8f092c4f51be2938dd09c810ba6226" target="_top" xlink:title="Fun4All_G4_Prototype2">
<polygon fill="none" stroke="#000000" points="216.5,-772.7717 216.5,-792.7717 349.5,-792.7717 349.5,-772.7717 216.5,-772.7717"/>
<text text-anchor="middle" x="283" y="-779.7717" font-family="FreeSans" font-size="10.00" fill="#000000">Fun4All_G4_Prototype2</text>
</a>
</g>
</g>
<!-- Node1&#45;&gt;Node30 -->
<g id="edge31" class="edge">
<title>Node1&#45;&gt;Node30</title>
<path fill="none" stroke="#191970" d="M84.5209,-652.0506C101.5505,-683.599 135.1115,-736.692 180,-763.7717 190.9768,-770.3936 203.7192,-774.8092 216.4225,-777.7316"/>
<polygon fill="#191970" stroke="#191970" points="87.519,-650.2316 79.7723,-643.004 81.321,-653.485 87.519,-650.2316"/>
</g>
<!-- Node31 -->
<g id="node31" class="node">
<title>Node31</title>
<g id="a_node31"><a xlink:href="../../d7/d40/Fun4All__G4__Prototype3_8C.html#a1201361263017b08a070777a0b90b27c" target="_top" xlink:title="Fun4All_G4_Prototype3">
<polygon fill="none" stroke="#000000" points="216.5,-733.7717 216.5,-753.7717 349.5,-753.7717 349.5,-733.7717 216.5,-733.7717"/>
<text text-anchor="middle" x="283" y="-740.7717" font-family="FreeSans" font-size="10.00" fill="#000000">Fun4All_G4_Prototype3</text>
</a>
</g>
</g>
<!-- Node1&#45;&gt;Node31 -->
<g id="edge32" class="edge">
<title>Node1&#45;&gt;Node31</title>
<path fill="none" stroke="#191970" d="M91.4023,-650.8287C111.1918,-673.6307 144.0281,-706.965 180,-724.7717 191.2444,-730.3379 203.9101,-734.2839 216.4139,-737.0786"/>
<polygon fill="#191970" stroke="#191970" points="93.8585,-648.3138 84.7201,-642.9528 88.5208,-652.8425 93.8585,-648.3138"/>
</g>
<!-- Node32 -->
<g id="node32" class="node">
<title>Node32</title>
<g id="a_node32"><a xlink:href="../../d4/d58/Fun4All__G4__Prototype4_8C.html#acac517f0728af658cbf99c7c9687c908" target="_top" xlink:title="Fun4All_G4_Prototype4">
<polygon fill="none" stroke="#000000" points="216.5,-694.7717 216.5,-714.7717 349.5,-714.7717 349.5,-694.7717 216.5,-694.7717"/>
<text text-anchor="middle" x="283" y="-701.7717" font-family="FreeSans" font-size="10.00" fill="#000000">Fun4All_G4_Prototype4</text>
</a>
</g>
</g>
<!-- Node1&#45;&gt;Node32 -->
<g id="edge33" class="edge">
<title>Node1&#45;&gt;Node32</title>
<path fill="none" stroke="#191970" d="M104.9832,-648.3812C125.7364,-661.0515 153.517,-676.3678 180,-685.7717 191.4807,-689.8484 204.0071,-693.0927 216.2455,-695.661"/>
<polygon fill="#191970" stroke="#191970" points="106.5992,-645.2646 96.2585,-642.9578 102.9037,-651.2096 106.5992,-645.2646"/>
</g>
<!-- Node33 -->
<g id="node33" class="node">
<title>Node33</title>
<g id="a_node33"><a xlink:href="../../db/da1/Fun4All__G4__TPC_8C.html#af60bcd3cf09ebd567e28ede14e9e894a" target="_top" xlink:title="Fun4All_G4_TPC">
<polygon fill="none" stroke="#000000" points="234.5,-655.7717 234.5,-675.7717 331.5,-675.7717 331.5,-655.7717 234.5,-655.7717"/>
<text text-anchor="middle" x="283" y="-662.7717" font-family="FreeSans" font-size="10.00" fill="#000000">Fun4All_G4_TPC</text>
</a>
</g>
</g>
<!-- Node1&#45;&gt;Node33 -->
<g id="edge34" class="edge">
<title>Node1&#45;&gt;Node33</title>
<path fill="none" stroke="#191970" d="M153.9376,-641.9515C162.735,-643.5795 171.5532,-645.2105 180,-646.7717 197.702,-650.0435 217.1164,-653.6262 234.2714,-656.7901"/>
<polygon fill="#191970" stroke="#191970" points="154.5049,-638.4972 144.0349,-640.1187 153.2309,-645.3803 154.5049,-638.4972"/>
</g>
<!-- Node34 -->
<g id="node34" class="node">
<title>Node34</title>
<g id="a_node34"><a xlink:href="../../da/db5/Fun4All__G4__W_8C.html#ad4745423f42356b6b3cb65bbbc1e917e" target="_top" xlink:title="Fun4All_G4_W">
<polygon fill="none" stroke="#000000" points="239,-616.7717 239,-636.7717 327,-636.7717 327,-616.7717 239,-616.7717"/>
<text text-anchor="middle" x="283" y="-623.7717" font-family="FreeSans" font-size="10.00" fill="#000000">Fun4All_G4_W</text>
</a>
</g>
</g>
<!-- Node1&#45;&gt;Node34 -->
<g id="edge35" class="edge">
<title>Node1&#45;&gt;Node34</title>
<path fill="none" stroke="#191970" d="M154.1296,-626.7717C183.0332,-626.7717 214.4009,-626.7717 238.9521,-626.7717"/>
<polygon fill="#191970" stroke="#191970" points="154.0241,-623.2718 144.0241,-626.7717 154.024,-630.2718 154.0241,-623.2718"/>
</g>
<!-- Node35 -->
<g id="node35" class="node">
<title>Node35</title>
<g id="a_node35"><a xlink:href="../../de/dd3/G4Setup__EICIR_8C.html#a674566a8ab8ae9b3ee5426df2818e2ec" target="_top" xlink:title="G4Setup">
<polygon fill="none" stroke="#000000" points="427,-518.7717 427,-538.7717 487,-538.7717 487,-518.7717 427,-518.7717"/>
<text text-anchor="middle" x="457" y="-525.7717" font-family="FreeSans" font-size="10.00" fill="#000000">G4Setup</text>
</a>
</g>
</g>
<!-- Node1&#45;&gt;Node35 -->
<g id="edge36" class="edge">
<title>Node1&#45;&gt;Node35</title>
<path fill="none" stroke="#191970" d="M153.9958,-612.3167C243.3197,-596.4655 375.0587,-572.739 386,-568.7717 406.7489,-561.2481 428.5751,-548.0404 442.4607,-538.8699"/>
<polygon fill="#191970" stroke="#191970" points="153.373,-608.8724 144.1377,-614.0647 154.5952,-615.7649 153.373,-608.8724"/>
</g>
<!-- Node36 -->
<g id="node36" class="node">
<title>Node36</title>
<g id="a_node36"><a xlink:href="../../d7/dc0/G4__HcalIn__EIC_8C.html#a3b4780d0c8bf98a2dab85016a8181973" target="_top" xlink:title="A rough version of the inner HCal support ring, from Richie&#39;s CAD drawing. &#45; Jin.">
<polygon fill="none" stroke="#000000" points="216,-421.7717 216,-441.7717 350,-441.7717 350,-421.7717 216,-421.7717"/>
<text text-anchor="middle" x="283" y="-428.7717" font-family="FreeSans" font-size="10.00" fill="#000000">HCalInner_SupportRing</text>
</a>
</g>
</g>
<!-- Node1&#45;&gt;Node36 -->
<g id="edge37" class="edge">
<title>Node1&#45;&gt;Node36</title>
<path fill="none" stroke="#191970" d="M80.1111,-601.1414C93.9144,-561.9869 125.8664,-487.9189 180,-450.7717 190.5701,-443.5184 203.1299,-438.8191 215.7819,-435.8172"/>
<polygon fill="#191970" stroke="#191970" points="76.7494,-600.156 76.8425,-610.7504 83.3764,-602.4103 76.7494,-600.156"/>
</g>
<!-- Node38 -->
<g id="node38" class="node">
<title>Node38</title>
<g id="a_node38"><a xlink:href="../../d1/d9e/G4__IR__EIC_8C.html#a866137a6aef46434fb1991996576f8ae" target="_top" xlink:title="IRSetup">
<polygon fill="none" stroke="#000000" points="255,-538.7717 255,-558.7717 311,-558.7717 311,-538.7717 255,-538.7717"/>
<text text-anchor="middle" x="283" y="-545.7717" font-family="FreeSans" font-size="10.00" fill="#000000">IRSetup</text>
</a>
</g>
</g>
<!-- Node1&#45;&gt;Node38 -->
<g id="edge40" class="edge">
<title>Node1&#45;&gt;Node38</title>
<path fill="none" stroke="#191970" d="M109.5316,-605.834C129.9081,-595.1175 155.8151,-582.5222 180,-573.7717 204.7438,-564.819 233.9829,-558.0675 254.9745,-553.8515"/>
<polygon fill="#191970" stroke="#191970" points="107.7615,-602.8113 100.5846,-610.6051 111.0553,-608.988 107.7615,-602.8113"/>
</g>
<!-- Node39 -->
<g id="node39" class="node">
<title>Node39</title>
<g id="a_node39"><a xlink:href="../../de/d2c/macros_2blob_2master_2macros_2g4simulations_2G4__Magnet_8C.html#a69bf7334e75e61a59af0ef76c418b36a" target="_top" xlink:title="Magnet">
<polygon fill="none" stroke="#000000" points="255.5,-499.7717 255.5,-519.7717 310.5,-519.7717 310.5,-499.7717 255.5,-499.7717"/>
<text text-anchor="middle" x="283" y="-506.7717" font-family="FreeSans" font-size="10.00" fill="#000000">Magnet</text>
</a>
</g>
</g>
<!-- Node1&#45;&gt;Node39 -->
<g id="edge42" class="edge">
<title>Node1&#45;&gt;Node39</title>
<path fill="none" stroke="#191970" d="M91.8265,-602.6564C111.7161,-580.1554 144.4323,-547.4731 180,-529.7717 203.8096,-517.9222 233.9628,-513.0834 255.4797,-511.1128"/>
<polygon fill="#191970" stroke="#191970" points="88.9905,-600.5853 85.0976,-610.4391 94.2857,-605.1636 88.9905,-600.5853"/>
</g>
<!-- Node40 -->
<g id="node40" class="node">
<title>Node40</title>
<g id="a_node40"><a xlink:href="../../da/d21/macros_2blob_2master_2macros_2g4simulations_2G4Setup__fsPHENIX_8C.html#a5152c9ff3ef81a7dc81e9771b8ee6762" target="_top" xlink:title="make_piston">
<polygon fill="none" stroke="#000000" points="243,-382.7717 243,-402.7717 323,-402.7717 323,-382.7717 243,-382.7717"/>
<text text-anchor="middle" x="283" y="-389.7717" font-family="FreeSans" font-size="10.00" fill="#000000">make_piston</text>
</a>
</g>
</g>
<!-- Node1&#45;&gt;Node40 -->
<g id="edge44" class="edge">
<title>Node1&#45;&gt;Node40</title>
<path fill="none" stroke="#191970" d="M77.1459,-600.9032C87.7235,-554.9542 116.4627,-459.4596 180,-411.7717 197.888,-398.3459 222.3643,-393.4353 242.9685,-391.9567"/>
<polygon fill="#191970" stroke="#191970" points="73.7225,-600.175 74.9968,-610.6929 80.5597,-601.676 73.7225,-600.175"/>
</g>
<!-- Node42 -->
<g id="node42" class="node">
<title>Node42</title>
<g id="a_node42"><a xlink:href="../../df/d97/macros_2blob_2master_2macros_2g4simulations_2G4__Pipe_8C.html#a3288b3cd0aeeda385414ee0cd9a39635" target="_top" xlink:title="Pipe">
<polygon fill="none" stroke="#000000" points="264.5,-460.7717 264.5,-480.7717 301.5,-480.7717 301.5,-460.7717 264.5,-460.7717"/>
<text text-anchor="middle" x="283" y="-467.7717" font-family="FreeSans" font-size="10.00" fill="#000000">Pipe</text>
</a>
</g>
</g>
<!-- Node1&#45;&gt;Node42 -->
<g id="edge46" class="edge">
<title>Node1&#45;&gt;Node42</title>
<path fill="none" stroke="#191970" d="M84.609,-601.7421C101.732,-570.4923 135.3917,-517.8593 180,-490.7717 206.1578,-474.8878 242.3419,-471.2383 264.1275,-470.6061"/>
<polygon fill="#191970" stroke="#191970" points="81.4484,-600.231 79.8321,-610.7018 87.6253,-603.5243 81.4484,-600.231"/>
</g>
<!-- Node43 -->
<g id="node43" class="node">
<title>Node43</title>
<g id="a_node43"><a xlink:href="../../d1/d56/G4__PlugDoor_8C.html#aac9c24f96824c585914f9bef5de9c790" target="_top" xlink:title="PlugDoor">
<polygon fill="none" stroke="#000000" points="425.5,-343.7717 425.5,-363.7717 488.5,-363.7717 488.5,-343.7717 425.5,-343.7717"/>
<text text-anchor="middle" x="457" y="-350.7717" font-family="FreeSans" font-size="10.00" fill="#000000">PlugDoor</text>
</a>
</g>
</g>
<!-- Node1&#45;&gt;Node43 -->
<g id="edge48" class="edge">
<title>Node1&#45;&gt;Node43</title>
<path fill="none" stroke="#191970" d="M74.3624,-600.8073C80.7193,-547.7616 103.3046,-427.3658 180,-372.7717 254.2206,-319.9392 369.8313,-334.7611 425.2623,-346.1382"/>
<polygon fill="#191970" stroke="#191970" points="70.8812,-600.4456 73.2673,-610.7683 77.8393,-601.2107 70.8812,-600.4456"/>
</g>
<!-- Node44 -->
<g id="node44" class="node">
<title>Node44</title>
<g id="a_node44"><a xlink:href="../../de/de0/classPHG4Prototype3InnerHcalSubsystem.html#ab1c3f89eaac87c2689b91a23934573c8" target="_top" xlink:title="PHG4Prototype3InnerHcalSubsystem\l::SetLightCorrection">
<polygon fill="none" stroke="#000000" points="181.5,-292.7717 181.5,-324.7717 384.5,-324.7717 384.5,-292.7717 181.5,-292.7717"/>
<text text-anchor="start" x="189.5" y="-311.7717" font-family="FreeSans" font-size="10.00" fill="#000000">PHG4Prototype3InnerHcalSubsystem</text>
<text text-anchor="middle" x="283" y="-299.7717" font-family="FreeSans" font-size="10.00" fill="#000000">::SetLightCorrection</text>
</a>
</g>
</g>
<!-- Node1&#45;&gt;Node44 -->
<g id="edge50" class="edge">
<title>Node1&#45;&gt;Node44</title>
<path fill="none" stroke="#191970" d="M74.2335,-600.5745C80.4342,-544.4469 102.8792,-411.8501 180,-339.7717 186.5487,-333.6512 194.2628,-328.736 202.4749,-324.7893"/>
<polygon fill="#191970" stroke="#191970" points="70.7295,-600.4367 73.1986,-610.7398 77.6935,-601.1458 70.7295,-600.4367"/>
</g>
<!-- Node45 -->
<g id="node45" class="node">
<title>Node45</title>
<g id="a_node45"><a xlink:href="../../d3/d07/classPHG4Prototype2InnerHcalSubsystem.html#a76fb99439456c8e73b71a8c17a6e92e6" target="_top" xlink:title="PHG4Prototype2InnerHcalSubsystem\l::SetLightCorrection">
<polygon fill="none" stroke="#000000" points="181.5,-241.7717 181.5,-273.7717 384.5,-273.7717 384.5,-241.7717 181.5,-241.7717"/>
<text text-anchor="start" x="189.5" y="-260.7717" font-family="FreeSans" font-size="10.00" fill="#000000">PHG4Prototype2InnerHcalSubsystem</text>
<text text-anchor="middle" x="283" y="-248.7717" font-family="FreeSans" font-size="10.00" fill="#000000">::SetLightCorrection</text>
</a>
</g>
</g>
<!-- Node1&#45;&gt;Node45 -->
<g id="edge51" class="edge">
<title>Node1&#45;&gt;Node45</title>
<path fill="none" stroke="#191970" d="M76.7981,-600.5377C90.5671,-528.0491 132.2926,-327.4257 180,-282.7717 183.6273,-279.3766 187.6352,-276.4195 191.903,-273.8459"/>
<polygon fill="#191970" stroke="#191970" points="73.305,-600.176 74.9016,-610.6498 80.185,-601.4664 73.305,-600.176"/>
</g>
<!-- Node46 -->
<g id="node46" class="node">
<title>Node46</title>
<g id="a_node46"><a xlink:href="../../d2/d00/classPHG4Prototype2OuterHcalSubsystem.html#a86364faed3714b0d4f23f7e435c8bc17" target="_top" xlink:title="PHG4Prototype2OuterHcalSubsystem\l::SetLightCorrection">
<polygon fill="none" stroke="#000000" points="180,-190.7717 180,-222.7717 386,-222.7717 386,-190.7717 180,-190.7717"/>
<text text-anchor="start" x="188" y="-209.7717" font-family="FreeSans" font-size="10.00" fill="#000000">PHG4Prototype2OuterHcalSubsystem</text>
<text text-anchor="middle" x="283" y="-197.7717" font-family="FreeSans" font-size="10.00" fill="#000000">::SetLightCorrection</text>
</a>
</g>
</g>
<!-- Node1&#45;&gt;Node46 -->
<g id="edge52" class="edge">
<title>Node1&#45;&gt;Node46</title>
<path fill="none" stroke="#191970" d="M75.6801,-600.4616C87.3455,-520.7721 125.9448,-284.2931 180,-231.7717 183.4313,-228.4377 187.2281,-225.5231 191.2807,-222.977"/>
<polygon fill="#191970" stroke="#191970" points="72.177,-600.2329 74.2141,-610.6301 79.1054,-601.2319 72.177,-600.2329"/>
</g>
<!-- Node47 -->
<g id="node47" class="node">
<title>Node47</title>
<g id="a_node47"><a xlink:href="../../d3/d62/classPHG4InnerHcalSubsystem.html#a7ca5b8a169144f2d25da95c7f537c5cb" target="_top" xlink:title="PHG4InnerHcalSubsystem\l::SetLightCorrection">
<polygon fill="none" stroke="#000000" points="209,-139.7717 209,-171.7717 357,-171.7717 357,-139.7717 209,-139.7717"/>
<text text-anchor="start" x="217" y="-158.7717" font-family="FreeSans" font-size="10.00" fill="#000000">PHG4InnerHcalSubsystem</text>
<text text-anchor="middle" x="283" y="-146.7717" font-family="FreeSans" font-size="10.00" fill="#000000">::SetLightCorrection</text>
</a>
</g>
</g>
<!-- Node1&#45;&gt;Node47 -->
<g id="edge53" class="edge">
<title>Node1&#45;&gt;Node47</title>
<path fill="none" stroke="#191970" d="M74.7898,-600.5521C84.492,-514.2786 119.5099,-241.2942 180,-180.7717 188,-172.7675 198.1006,-167.1662 208.8309,-163.2753"/>
<polygon fill="#191970" stroke="#191970" points="71.3029,-600.2422 73.6839,-610.566 78.2606,-601.0107 71.3029,-600.2422"/>
</g>
<!-- Node48 -->
<g id="node48" class="node">
<title>Node48</title>
<g id="a_node48"><a xlink:href="../../da/d01/classPHG4OuterHcalSubsystem.html#ad1c09f342871bc2a613264c489461135" target="_top" xlink:title="PHG4OuterHcalSubsystem\l::SetLightCorrection">
<polygon fill="none" stroke="#000000" points="207.5,-88.7717 207.5,-120.7717 358.5,-120.7717 358.5,-88.7717 207.5,-88.7717"/>
<text text-anchor="start" x="215.5" y="-107.7717" font-family="FreeSans" font-size="10.00" fill="#000000">PHG4OuterHcalSubsystem</text>
<text text-anchor="middle" x="283" y="-95.7717" font-family="FreeSans" font-size="10.00" fill="#000000">::SetLightCorrection</text>
</a>
</g>
</g>
<!-- Node1&#45;&gt;Node48 -->
<g id="edge54" class="edge">
<title>Node1&#45;&gt;Node48</title>
<path fill="none" stroke="#191970" d="M74.1039,-600.3678C82.0293,-507.57 113.1,-198.3062 180,-129.7717 187.5836,-122.0028 197.1426,-116.487 207.3636,-112.5984"/>
<polygon fill="#191970" stroke="#191970" points="70.5955,-600.3242 73.2513,-610.5807 77.5712,-600.9066 70.5955,-600.3242"/>
</g>
<!-- Node49 -->
<g id="node49" class="node">
<title>Node49</title>
<g id="a_node49"><a xlink:href="../../da/d2a/G4__Svtx_8C.html#ac4c82b429746ee57457304af3cebbc56" target="_top" xlink:title="Svtx">
<polygon fill="none" stroke="#000000" points="264,-49.7717 264,-69.7717 302,-69.7717 302,-49.7717 264,-49.7717"/>
<text text-anchor="middle" x="283" y="-56.7717" font-family="FreeSans" font-size="10.00" fill="#000000">Svtx</text>
</a>
</g>
</g>
<!-- Node1&#45;&gt;Node49 -->
<g id="edge55" class="edge">
<title>Node1&#45;&gt;Node49</title>
<path fill="none" stroke="#191970" d="M73.3792,-600.4678C79.1189,-501.5069 104.4498,-153.4079 180,-78.7717 202.1202,-56.9191 240.646,-55.7828 263.7908,-57.4373"/>
<polygon fill="#191970" stroke="#191970" points="69.881,-600.3387 72.8147,-610.5193 76.87,-600.7313 69.881,-600.3387"/>
</g>
<!-- Node50 -->
<g id="node50" class="node">
<title>Node50</title>
<g id="a_node50"><a xlink:href="../../da/d3c/G4__Tracking_8C.html#a29db7ba137ab6b448bd8200c192a0a50" target="_top" xlink:title="Tracking">
<polygon fill="none" stroke="#000000" points="427.5,-157.7717 427.5,-177.7717 486.5,-177.7717 486.5,-157.7717 427.5,-157.7717"/>
<text text-anchor="middle" x="457" y="-164.7717" font-family="FreeSans" font-size="10.00" fill="#000000">Tracking</text>
</a>
</g>
</g>
<!-- Node1&#45;&gt;Node50 -->
<g id="edge56" class="edge">
<title>Node1&#45;&gt;Node50</title>
<path fill="none" stroke="#191970" d="M72.5826,-600.5261C75.5008,-496.1943 92.1387,-112.9425 180,-39.7717 250.3534,18.8185 307.1063,6.6848 386,-39.7717 430.89,-66.2052 449.4146,-132.3839 455.014,-157.7029"/>
<polygon fill="#191970" stroke="#191970" points="69.0837,-600.4408 72.3218,-610.5287 76.0813,-600.6234 69.0837,-600.4408"/>
</g>
<!-- Node3 -->
<g id="node3" class="node">
<title>Node3</title>
<g id="a_node3"><a xlink:href="../../d2/dfe/macros_2blob_2master_2macros_2g4simulations_2G4Setup__EICDetector_8C.html#a5d4cb2d19366a2ae6d2aefe8d2e4a870" target="_top" xlink:title="G4Setup">
<polygon fill="none" stroke="#ff0000" points="528,-421.7717 528,-441.7717 588,-441.7717 588,-421.7717 528,-421.7717"/>
<text text-anchor="middle" x="558" y="-428.7717" font-family="FreeSans" font-size="10.00" fill="#000000">G4Setup</text>
</a>
</g>
</g>
<!-- Node2&#45;&gt;Node3 -->
<g id="edge2" class="edge">
<title>Node2&#45;&gt;Node3</title>
<path fill="none" stroke="#191970" d="M477.526,-1145.2695C483.1574,-1139.3536 488.6335,-1132.3176 492,-1124.7717 549.981,-994.81 557.1389,-517.5019 557.9135,-441.8915"/>
<polygon fill="#191970" stroke="#191970" points="474.7065,-1143.1258 469.9341,-1152.5849 479.5636,-1148.1665 474.7065,-1143.1258"/>
</g>
<!-- Node4 -->
<g id="node4" class="node">
<title>Node4</title>
<g id="a_node4"><a xlink:href="../../d3/d7f/Fun_8C.html#af0d3c8a78765149fef9b2beeecfc6279" target="_top" xlink:title="ConfigureDetectors">
<polygon fill="none" stroke="#ff0000" points="650.5,-735.7717 650.5,-755.7717 764.5,-755.7717 764.5,-735.7717 650.5,-735.7717"/>
<text text-anchor="middle" x="707.5" y="-742.7717" font-family="FreeSans" font-size="10.00" fill="#000000">ConfigureDetectors</text>
</a>
</g>
</g>
<!-- Node3&#45;&gt;Node4 -->
<g id="edge3" class="edge">
<title>Node3&#45;&gt;Node4</title>
<path fill="none" stroke="#191970" d="M559.7483,-451.9549C565.3552,-511.9528 584.8503,-687.4796 624,-726.7717 631.1356,-733.9333 640.3719,-738.6308 650.0894,-741.6681"/>
<polygon fill="#191970" stroke="#191970" points="563.2221,-451.5057 558.8358,-441.8615 556.2505,-452.1361 563.2221,-451.5057"/>
</g>
<!-- Node5 -->
<g id="node5" class="node">
<title>Node5</title>
<g id="a_node5"><a xlink:href="../../da/d02/Fun4All__G4__EICDetector_8C.html#afbe82cefa1d1fd031d9a8586b7bb68c6" target="_top" xlink:title="Fun4All_G4_EICDetector">
<polygon fill="none" stroke="#000000" points="638,-696.7717 638,-716.7717 777,-716.7717 777,-696.7717 638,-696.7717"/>
<text text-anchor="middle" x="707.5" y="-703.7717" font-family="FreeSans" font-size="10.00" fill="#000000">Fun4All_G4_EICDetector</text>
</a>
</g>
</g>
<!-- Node3&#45;&gt;Node5 -->
<g id="edge4" class="edge">
<title>Node3&#45;&gt;Node5</title>
<path fill="none" stroke="#191970" d="M560.5088,-452.1047C567.6515,-506.6888 589.8136,-654.5488 624,-687.7717 628.0515,-691.709 632.74,-694.8961 637.7871,-697.4688"/>
<polygon fill="#191970" stroke="#191970" points="563.9505,-451.4246 559.2136,-441.9476 557.0067,-452.31 563.9505,-451.4246"/>
</g>
<!-- Node6 -->
<g id="node6" class="node">
<title>Node6</title>
<g id="a_node6"><a xlink:href="../../dd/d2a/Fun4All__G4__EICDetector__LQ_8C.html#aaa01242fd6e77ca43a9d49a6d46008e4" target="_top" xlink:title="Fun4All_G4_EICDetector_LQ">
<polygon fill="none" stroke="#000000" points="629.5,-657.7717 629.5,-677.7717 785.5,-677.7717 785.5,-657.7717 629.5,-657.7717"/>
<text text-anchor="middle" x="707.5" y="-664.7717" font-family="FreeSans" font-size="10.00" fill="#000000">Fun4All_G4_EICDetector_LQ</text>
</a>
</g>
</g>
<!-- Node3&#45;&gt;Node6 -->
<g id="edge5" class="edge">
<title>Node3&#45;&gt;Node6</title>
<path fill="none" stroke="#191970" d="M561.4709,-451.8648C570.2332,-500.288 594.6539,-621.4529 624,-648.7717 627.8086,-652.3172 632.1366,-655.2484 636.7707,-657.667"/>
<polygon fill="#191970" stroke="#191970" points="564.9054,-451.1873 559.7134,-441.9518 558.0129,-452.4093 564.9054,-451.1873"/>
</g>
<!-- Node7 -->
<g id="node7" class="node">
<title>Node7</title>
<g id="a_node7"><a xlink:href="../../d4/df5/Fun4All__G4__EICDetector__LQ__reference_8C.html#a2feefc472f17f90b3cbe74897d049f75" target="_top" xlink:title="Fun4All_G4_EICDetector\l_LQ_reference">
<polygon fill="none" stroke="#000000" points="638,-606.7717 638,-638.7717 777,-638.7717 777,-606.7717 638,-606.7717"/>
<text text-anchor="start" x="646" y="-625.7717" font-family="FreeSans" font-size="10.00" fill="#000000">Fun4All_G4_EICDetector</text>
<text text-anchor="middle" x="707.5" y="-613.7717" font-family="FreeSans" font-size="10.00" fill="#000000">_LQ_reference</text>
</a>
</g>
</g>
<!-- Node3&#45;&gt;Node7 -->
<g id="edge6" class="edge">
<title>Node3&#45;&gt;Node7</title>
<path fill="none" stroke="#191970" d="M560.3477,-452.0219C565.4693,-486.8771 580.8725,-558.2627 624,-597.7717 628.1285,-601.5538 632.8078,-604.7648 637.7925,-607.4909"/>
<polygon fill="#191970" stroke="#191970" points="563.8127,-451.5264 559.024,-442.0756 556.8739,-452.4499 563.8127,-451.5264"/>
</g>
<!-- Node8 -->
<g id="node8" class="node">
<title>Node8</title>
<g id="a_node8"><a xlink:href="../../d3/d51/Fun4All__G4__EICDetector__RICH_8C.html#a5739502b0a7a1ba782c01069f77e933f" target="_top" xlink:title="Fun4All_G4_EICDetector_RICH">
<polygon fill="none" stroke="#000000" points="624,-567.7717 624,-587.7717 791,-587.7717 791,-567.7717 624,-567.7717"/>
<text text-anchor="middle" x="707.5" y="-574.7717" font-family="FreeSans" font-size="10.00" fill="#000000">Fun4All_G4_EICDetector_RICH</text>
</a>
</g>
</g>
<!-- Node3&#45;&gt;Node8 -->
<g id="edge7" class="edge">
<title>Node3&#45;&gt;Node8</title>
<path fill="none" stroke="#191970" d="M562.7394,-451.8498C570.5129,-480.205 588.7565,-531.5526 624,-558.7717 628.5889,-562.3158 633.7176,-565.221 639.115,-567.5997"/>
<polygon fill="#191970" stroke="#191970" points="566.0578,-450.6998 560.1819,-441.8836 559.2774,-452.4397 566.0578,-450.6998"/>
</g>
<!-- Node9 -->
<g id="node9" class="node">
<title>Node9</title>
<g id="a_node9"><a xlink:href="../../d9/d0e/Fun4All__G4__EICIR_8C.html#ac3543d1dd4a0abed3987d40939ee3f87" target="_top" xlink:title="Fun4All_G4_EICIR">
<polygon fill="none" stroke="#000000" points="655.5,-528.7717 655.5,-548.7717 759.5,-548.7717 759.5,-528.7717 655.5,-528.7717"/>
<text text-anchor="middle" x="707.5" y="-535.7717" font-family="FreeSans" font-size="10.00" fill="#000000">Fun4All_G4_EICIR</text>
</a>
</g>
</g>
<!-- Node3&#45;&gt;Node9 -->
<g id="edge8" class="edge">
<title>Node3&#45;&gt;Node9</title>
<path fill="none" stroke="#191970" d="M567.0693,-450.7238C577.789,-471.0221 597.5655,-502.6216 624,-519.7717 633.3541,-525.8405 644.3942,-529.9841 655.3295,-532.8097"/>
<polygon fill="#191970" stroke="#191970" points="570.1821,-449.1233 562.545,-441.7799 563.9358,-452.283 570.1821,-449.1233"/>
</g>
<!-- Node10 -->
<g id="node10" class="node">
<title>Node10</title>
<g id="a_node10"><a xlink:href="../../d7/d9e/Fun4All__G4__fsPHENIX_8C.html#af48911d394d2412e817583700f2bbee2" target="_top" xlink:title="Fun4All_G4_fsPHENIX">
<polygon fill="none" stroke="#000000" points="645.5,-489.7717 645.5,-509.7717 769.5,-509.7717 769.5,-489.7717 645.5,-489.7717"/>
<text text-anchor="middle" x="707.5" y="-496.7717" font-family="FreeSans" font-size="10.00" fill="#000000">Fun4All_G4_fsPHENIX</text>
</a>
</g>
</g>
<!-- Node3&#45;&gt;Node10 -->
<g id="edge9" class="edge">
<title>Node3&#45;&gt;Node10</title>
<path fill="none" stroke="#191970" d="M576.6001,-448.897C589.1329,-459.5579 606.5137,-472.727 624,-480.7717 631.8337,-484.3756 640.4038,-487.3218 648.9746,-489.7233"/>
<polygon fill="#191970" stroke="#191970" points="578.5805,-445.9781 568.7565,-442.0109 573.9623,-451.2386 578.5805,-445.9781"/>
</g>
<!-- Node11 -->
<g id="node11" class="node">
<title>Node11</title>
<g id="a_node11"><a xlink:href="../../da/d2f/Fun4All__G4__fsPHENIX__FastSim_8C.html#a66fb850cae5fcaadda23b74a25ce4c9c" target="_top" xlink:title="Fun4All_G4_fsPHENIX\l_FastSim">
<polygon fill="none" stroke="#000000" points="645.5,-438.7717 645.5,-470.7717 769.5,-470.7717 769.5,-438.7717 645.5,-438.7717"/>
<text text-anchor="start" x="653.5" y="-457.7717" font-family="FreeSans" font-size="10.00" fill="#000000">Fun4All_G4_fsPHENIX</text>
<text text-anchor="middle" x="707.5" y="-445.7717" font-family="FreeSans" font-size="10.00" fill="#000000">_FastSim</text>
</a>
</g>
</g>
<!-- Node3&#45;&gt;Node11 -->
<g id="edge10" class="edge">
<title>Node3&#45;&gt;Node11</title>
<path fill="none" stroke="#191970" d="M598.3777,-437.9837C612.8756,-440.2141 629.5787,-442.7838 645.4885,-445.2315"/>
<polygon fill="#191970" stroke="#191970" points="598.6695,-434.4875 588.2536,-436.4261 597.605,-441.4061 598.6695,-434.4875"/>
</g>
<!-- Node12 -->
<g id="node12" class="node">
<title>Node12</title>
<g id="a_node12"><a xlink:href="../../d0/da6/Fun4All__G4__fsPHENIX__pi0_8C.html#a023d91d47b678e5d7f1751834aa517c6" target="_top" xlink:title="Fun4All_G4_fsPHENIX_pi0">
<polygon fill="none" stroke="#000000" points="635,-399.7717 635,-419.7717 780,-419.7717 780,-399.7717 635,-399.7717"/>
<text text-anchor="middle" x="707.5" y="-406.7717" font-family="FreeSans" font-size="10.00" fill="#000000">Fun4All_G4_fsPHENIX_pi0</text>
</a>
</g>
</g>
<!-- Node3&#45;&gt;Node12 -->
<g id="edge11" class="edge">
<title>Node3&#45;&gt;Node12</title>
<path fill="none" stroke="#191970" d="M598.4192,-425.8237C611.0399,-423.9665 625.3286,-421.8638 639.3089,-419.8065"/>
<polygon fill="#191970" stroke="#191970" points="597.6374,-422.401 588.2536,-427.3197 598.6566,-429.3264 597.6374,-422.401"/>
</g>
<!-- Node13 -->
<g id="node13" class="node">
<title>Node13</title>
<g id="a_node13"><a xlink:href="../../d5/d2c/macros_2blob_2master_2macros_2g4simulations_2Fun4All__G4__sPHENIX_8C.html#a6eaaa492d7023ec86c562dc63aa1e5a4" target="_top" xlink:title="Fun4All_G4_sPHENIX">
<polygon fill="none" stroke="#000000" points="647,-360.7717 647,-380.7717 768,-380.7717 768,-360.7717 647,-360.7717"/>
<text text-anchor="middle" x="707.5" y="-367.7717" font-family="FreeSans" font-size="10.00" fill="#000000">Fun4All_G4_sPHENIX</text>
</a>
</g>
</g>
<!-- Node3&#45;&gt;Node13 -->
<g id="edge12" class="edge">
<title>Node3&#45;&gt;Node13</title>
<path fill="none" stroke="#191970" d="M579.2189,-415.6138C591.6772,-406.8243 608.0634,-396.4202 624,-389.7717 632.507,-386.2227 641.7911,-383.2783 650.9769,-380.8539"/>
<polygon fill="#191970" stroke="#191970" points="576.9391,-412.9438 570.904,-421.6517 581.0522,-418.6079 576.9391,-412.9438"/>
</g>
<!-- Node14 -->
<g id="node14" class="node">
<title>Node14</title>
<g id="a_node14"><a xlink:href="../../d3/de2/Fun4All__G4__sPHENIX__AnaGenFit_8C.html#a9bf3f2f72ed69a17e2d0c1121d48013c" target="_top" xlink:title="Fun4All_G4_sPHENIX\l_AnaGenFit">
<polygon fill="none" stroke="#000000" points="647,-309.7717 647,-341.7717 768,-341.7717 768,-309.7717 647,-309.7717"/>
<text text-anchor="start" x="655" y="-328.7717" font-family="FreeSans" font-size="10.00" fill="#000000">Fun4All_G4_sPHENIX</text>
<text text-anchor="middle" x="707.5" y="-316.7717" font-family="FreeSans" font-size="10.00" fill="#000000">_AnaGenFit</text>
</a>
</g>
</g>
<!-- Node3&#45;&gt;Node14 -->
<g id="edge13" class="edge">
<title>Node3&#45;&gt;Node14</title>
<path fill="none" stroke="#191970" d="M568.6817,-412.9772C580.0959,-394.5372 599.8529,-366.9045 624,-350.7717 630.9204,-346.1482 638.7213,-342.3574 646.7051,-339.2549"/>
<polygon fill="#191970" stroke="#191970" points="565.6118,-411.2916 563.4942,-421.6727 571.6233,-414.878 565.6118,-411.2916"/>
</g>
<!-- Node15 -->
<g id="node15" class="node">
<title>Node15</title>
<g id="a_node15"><a xlink:href="../../da/dd0/Fun4All__G4__sPHENIX__photonjet_8C.html#a6f18519e216acc05399e562ea57ea77c" target="_top" xlink:title="Fun4All_G4_sPHENIX\l_photonjet">
<polygon fill="none" stroke="#000000" points="647,-258.7717 647,-290.7717 768,-290.7717 768,-258.7717 647,-258.7717"/>
<text text-anchor="start" x="655" y="-277.7717" font-family="FreeSans" font-size="10.00" fill="#000000">Fun4All_G4_sPHENIX</text>
<text text-anchor="middle" x="707.5" y="-265.7717" font-family="FreeSans" font-size="10.00" fill="#000000">_photonjet</text>
</a>
</g>
</g>
<!-- Node3&#45;&gt;Node15 -->
<g id="edge14" class="edge">
<title>Node3&#45;&gt;Node15</title>
<path fill="none" stroke="#191970" d="M562.6623,-411.6263C570.4089,-382.6531 588.6967,-329.4487 624,-299.7717 630.7183,-294.1241 638.6785,-289.7523 646.973,-286.3681"/>
<polygon fill="#191970" stroke="#191970" points="559.2377,-410.8932 560.1959,-421.4446 566.0268,-412.5987 559.2377,-410.8932"/>
</g>
<!-- Node16 -->
<g id="node16" class="node">
<title>Node16</title>
<g id="a_node16"><a xlink:href="../../da/d85/Fun4All__G4__sPHENIX__photons_8C.html#a02fbbd59878fe1299f58ed187e7214ba" target="_top" xlink:title="Fun4All_G4_sPHENIX\l_photons">
<polygon fill="none" stroke="#000000" points="647,-207.7717 647,-239.7717 768,-239.7717 768,-207.7717 647,-207.7717"/>
<text text-anchor="start" x="655" y="-226.7717" font-family="FreeSans" font-size="10.00" fill="#000000">Fun4All_G4_sPHENIX</text>
<text text-anchor="middle" x="707.5" y="-214.7717" font-family="FreeSans" font-size="10.00" fill="#000000">_photons</text>
</a>
</g>
</g>
<!-- Node3&#45;&gt;Node16 -->
<g id="edge15" class="edge">
<title>Node3&#45;&gt;Node16</title>
<path fill="none" stroke="#191970" d="M559.5284,-411.0743C563.4352,-373.3382 577.0901,-293.1599 624,-248.7717 630.485,-242.6353 638.416,-237.9995 646.782,-234.4986"/>
<polygon fill="#191970" stroke="#191970" points="556.0153,-411.0624 558.6028,-421.3364 562.987,-411.6912 556.0153,-411.0624"/>
</g>
<!-- Node17 -->
<g id="node17" class="node">
<title>Node17</title>
<g id="a_node17"><a xlink:href="../../de/d55/Fun4All__G4__sPHENIX__truthphotonjet_8C.html#a48a6f4503eaa1b3793d8ae572aa795b9" target="_top" xlink:title="Fun4All_G4_sPHENIX\l_truthphotonjet">
<polygon fill="none" stroke="#000000" points="647,-156.7717 647,-188.7717 768,-188.7717 768,-156.7717 647,-156.7717"/>
<text text-anchor="start" x="655" y="-175.7717" font-family="FreeSans" font-size="10.00" fill="#000000">Fun4All_G4_sPHENIX</text>
<text text-anchor="middle" x="707.5" y="-163.7717" font-family="FreeSans" font-size="10.00" fill="#000000">_truthphotonjet</text>
</a>
</g>
</g>
<!-- Node3&#45;&gt;Node17 -->
<g id="edge16" class="edge">
<title>Node3&#45;&gt;Node17</title>
<path fill="none" stroke="#191970" d="M561.145,-411.6265C569.4777,-360.7028 593.5843,-228.6779 624,-197.7717 630.3685,-191.3005 638.3386,-186.4893 646.8097,-182.9156"/>
<polygon fill="#191970" stroke="#191970" points="557.6555,-411.2822 559.5291,-421.7101 564.5674,-412.3899 557.6555,-411.2822"/>
</g>
<!-- Node18 -->
<g id="node18" class="node">
<title>Node18</title>
<g id="a_node18"><a xlink:href="../../d4/d65/Fun4All__single__particle_8C.html#a8a492b5dbead494bfdddbebde8a49b0e" target="_top" xlink:title="Fun4All_single_particle">
<polygon fill="none" stroke="#000000" points="641.5,-117.7717 641.5,-137.7717 773.5,-137.7717 773.5,-117.7717 641.5,-117.7717"/>
<text text-anchor="middle" x="707.5" y="-124.7717" font-family="FreeSans" font-size="10.00" fill="#000000">Fun4All_single_particle</text>
</a>
</g>
</g>
<!-- Node3&#45;&gt;Node18 -->
<g id="edge17" class="edge">
<title>Node3&#45;&gt;Node18</title>
<path fill="none" stroke="#191970" d="M559.9273,-411.5121C565.9202,-352.8265 586.1349,-184.492 624,-146.7717 628.9504,-141.8403 634.8976,-138.0791 641.3087,-135.2249"/>
<polygon fill="#191970" stroke="#191970" points="556.4194,-411.4199 558.9174,-421.716 563.3854,-412.1094 556.4194,-411.4199"/>
</g>
<!-- Node19 -->
<g id="node19" class="node">
<title>Node19</title>
<g id="a_node19"><a xlink:href="../../d0/d99/Jin__BJet_8C.html#a36169bfee2ed7efda633944d12aebad9" target="_top" xlink:title="Jin_BJet">
<polygon fill="none" stroke="#000000" points="680,-78.7717 680,-98.7717 735,-98.7717 735,-78.7717 680,-78.7717"/>
<text text-anchor="middle" x="707.5" y="-85.7717" font-family="FreeSans" font-size="10.00" fill="#000000">Jin_BJet</text>
</a>
</g>
</g>
<!-- Node3&#45;&gt;Node19 -->
<g id="edge18" class="edge">
<title>Node3&#45;&gt;Node19</title>
<path fill="none" stroke="#191970" d="M559.3004,-411.7238C563.8447,-347.9878 581.1306,-151.6291 624,-107.7717 638.3412,-93.1 661.4849,-88.725 679.7736,-87.8091"/>
<polygon fill="#191970" stroke="#191970" points="555.8082,-411.4924 558.6169,-421.7082 562.7918,-411.9706 555.8082,-411.4924"/>
</g>
<!-- Node21 -->
<g id="node21" class="node">
<title>Node21</title>
<g id="a_node21"><a xlink:href="../../d1/d8d/macros_2blob_2master_2macros_2g4simulations_2G4__CEmc__Spacal_8C.html#a643b7748ae63dfed5f748e4707bbf1d3" target="_top" xlink:title="EMCal main setup macro.">
<polygon fill="none" stroke="#000000" points="434.5,-1094.7717 434.5,-1114.7717 479.5,-1114.7717 479.5,-1094.7717 434.5,-1094.7717"/>
<text text-anchor="middle" x="457" y="-1101.7717" font-family="FreeSans" font-size="10.00" fill="#000000">CEmc</text>
</a>
</g>
</g>
<!-- Node20&#45;&gt;Node21 -->
<g id="edge20" class="edge">
<title>Node20&#45;&gt;Node21</title>
<path fill="none" stroke="#191970" d="M353.4558,-1122.0291C382.3339,-1117.2161 413.7371,-1111.9822 434.2972,-1108.5555"/>
<polygon fill="#191970" stroke="#191970" points="352.6569,-1118.6139 343.3684,-1123.7103 353.8078,-1125.5186 352.6569,-1118.6139"/>
</g>
<!-- Node22&#45;&gt;Node21 -->
<g id="edge22" class="edge">
<title>Node22&#45;&gt;Node21</title>
<path fill="none" stroke="#191970" d="M366.7779,-1099.5865C391.6483,-1101.0159 416.8702,-1102.4654 434.2993,-1103.4671"/>
<polygon fill="#191970" stroke="#191970" points="366.7238,-1096.0777 356.5395,-1098.9981 366.3221,-1103.0662 366.7238,-1096.0777"/>
</g>
<!-- Node24&#45;&gt;Node3 -->
<g id="edge25" class="edge">
<title>Node24&#45;&gt;Node3</title>
<path fill="none" stroke="#191970" d="M462.7645,-762.7386C481.6382,-697.1477 541.1674,-490.269 555.0744,-441.939"/>
<polygon fill="#191970" stroke="#191970" points="459.3156,-762.0676 459.9138,-772.6455 466.0427,-764.0033 459.3156,-762.0676"/>
</g>
<!-- Node37 -->
<g id="node37" class="node">
<title>Node37</title>
<g id="a_node37"><a xlink:href="../../d7/dc0/G4__HcalIn__EIC_8C.html#a3d57117b35676ff1a0c5eb9efed9f101" target="_top" xlink:title="HCalInner">
<polygon fill="none" stroke="#000000" points="423.5,-421.7717 423.5,-441.7717 490.5,-441.7717 490.5,-421.7717 423.5,-421.7717"/>
<text text-anchor="middle" x="457" y="-428.7717" font-family="FreeSans" font-size="10.00" fill="#000000">HCalInner</text>
</a>
</g>
</g>
<!-- Node36&#45;&gt;Node37 -->
<g id="edge38" class="edge">
<title>Node36&#45;&gt;Node37</title>
<path fill="none" stroke="#191970" d="M360.3571,-431.7717C382.4793,-431.7717 405.4436,-431.7717 423.4333,-431.7717"/>
<polygon fill="#191970" stroke="#191970" points="360.273,-428.2718 350.2729,-431.7717 360.2729,-435.2718 360.273,-428.2718"/>
</g>
<!-- Node37&#45;&gt;Node3 -->
<g id="edge39" class="edge">
<title>Node37&#45;&gt;Node3</title>
<path fill="none" stroke="#191970" d="M500.776,-431.7717C509.9323,-431.7717 519.3888,-431.7717 527.9125,-431.7717"/>
<polygon fill="#191970" stroke="#191970" points="500.6316,-428.2718 490.6315,-431.7717 500.6315,-435.2718 500.6316,-428.2718"/>
</g>
<!-- Node38&#45;&gt;Node35 -->
<g id="edge41" class="edge">
<title>Node38&#45;&gt;Node35</title>
<path fill="none" stroke="#191970" d="M321.5905,-544.336C353.3524,-540.6852 397.7426,-535.5829 426.9165,-532.2296"/>
<polygon fill="#191970" stroke="#191970" points="320.8783,-540.8948 311.3434,-545.5139 321.6776,-547.849 320.8783,-540.8948"/>
</g>
<!-- Node39&#45;&gt;Node35 -->
<g id="edge43" class="edge">
<title>Node39&#45;&gt;Node35</title>
<path fill="none" stroke="#191970" d="M320.8186,-513.9013C352.6352,-517.3756 397.5205,-522.2768 426.9312,-525.4883"/>
<polygon fill="#191970" stroke="#191970" points="320.8917,-510.3886 310.5708,-512.7823 320.1318,-517.3472 320.8917,-510.3886"/>
</g>
<!-- Node41 -->
<g id="node41" class="node">
<title>Node41</title>
<g id="a_node41"><a xlink:href="../../df/d4b/analysis_2blob_2master_2EICAnalysis_2macros_2leptoquarks__fun4all_2G4Setup__fsPHENIX_8C.html#ac2f64e8dbdc7060f0f9ca1c7a47cddb7" target="_top" xlink:title="G4Setup">
<polygon fill="none" stroke="#000000" points="427,-382.7717 427,-402.7717 487,-402.7717 487,-382.7717 427,-382.7717"/>
<text text-anchor="middle" x="457" y="-389.7717" font-family="FreeSans" font-size="10.00" fill="#000000">G4Setup</text>
</a>
</g>
</g>
<!-- Node40&#45;&gt;Node41 -->
<g id="edge45" class="edge">
<title>Node40&#45;&gt;Node41</title>
<path fill="none" stroke="#191970" d="M333.7211,-392.7717C363.9503,-392.7717 401.2982,-392.7717 426.915,-392.7717"/>
<polygon fill="#191970" stroke="#191970" points="333.3565,-389.2718 323.3564,-392.7717 333.3564,-396.2718 333.3565,-389.2718"/>
</g>
<!-- Node42&#45;&gt;Node35 -->
<g id="edge47" class="edge">
<title>Node42&#45;&gt;Node35</title>
<path fill="none" stroke="#191970" d="M311.8703,-474.0222C332.8646,-476.9477 361.7379,-482.1455 386,-490.7717 406.1547,-497.9375 427.5789,-510.1113 441.5561,-518.7474"/>
<polygon fill="#191970" stroke="#191970" points="312.0445,-470.5154 301.6759,-472.6934 311.1396,-477.4567 312.0445,-470.5154"/>
</g>
<!-- Node43&#45;&gt;Node3 -->
<g id="edge49" class="edge">
<title>Node43&#45;&gt;Node3</title>
<path fill="none" stroke="#191970" d="M486.2495,-368.973C488.2276,-370.2069 490.1626,-371.4782 492,-372.7717 513.3645,-387.8121 535.4589,-408.8948 547.8925,-421.3623"/>
<polygon fill="#191970" stroke="#191970" points="487.8703,-365.8665 477.4691,-363.8501 484.3426,-371.9127 487.8703,-365.8665"/>
</g>
<!-- Node50&#45;&gt;Node3 -->
<g id="edge57" class="edge">
<title>Node50&#45;&gt;Node3</title>
<path fill="none" stroke="#191970" d="M464.47,-187.2973C484.5509,-239.7859 539.186,-382.5944 554.1602,-421.735"/>
<polygon fill="#191970" stroke="#191970" points="467.6782,-185.8876 460.836,-177.7985 461.1403,-188.3889 467.6782,-185.8876"/>
</g>
</g>
</svg>
