<?xml version="1.0" encoding="UTF-8" standalone="no"?>
<!DOCTYPE svg PUBLIC "-//W3C//DTD SVG 1.1//EN"
 "http://www.w3.org/Graphics/SVG/1.1/DTD/svg11.dtd">
<!-- Generated by graphviz version 2.40.1 (20161225.0304)
 -->
<!-- Title: PHG4DetectorSubsystem::set_string_param Pages: 1 -->
<svg width="829pt" height="1113pt"
 viewBox="0.00 0.00 829.00 1113.42" xmlns="http://www.w3.org/2000/svg" xmlns:xlink="http://www.w3.org/1999/xlink">
<g id="graph0" class="graph" transform="scale(1 1) rotate(0) translate(4 1109.4161)">
<title>PHG4DetectorSubsystem::set_string_param</title>
<!-- Node1 -->
<g id="node1" class="node">
<title>Node1</title>
<polygon fill="#bfbfbf" stroke="#000000" points="0,-627.5 0,-659.5 144,-659.5 144,-627.5 0,-627.5"/>
<text text-anchor="start" x="8" y="-646.5" font-family="FreeSans" font-size="10.00" fill="#000000">PHG4DetectorSubsystem</text>
<text text-anchor="middle" x="72" y="-634.5" font-family="FreeSans" font-size="10.00" fill="#000000">::set_string_param</text>
</g>
<!-- Node2 -->
<g id="node2" class="node">
<title>Node2</title>
<g id="a_node2"><a xlink:href="../../d8/d4c/G4__CEmc__EIC_8C.html#a643b7748ae63dfed5f748e4707bbf1d3" target="_top" xlink:title="CEmc">
<polygon fill="none" stroke="#000000" points="392.5,-1072.5 392.5,-1092.5 437.5,-1092.5 437.5,-1072.5 392.5,-1072.5"/>
<text text-anchor="middle" x="415" y="-1079.5" font-family="FreeSans" font-size="10.00" fill="#000000">CEmc</text>
</a>
</g>
</g>
<!-- Node1&#45;&gt;Node2 -->
<g id="edge1" class="edge">
<title>Node1&#45;&gt;Node2</title>
<path fill="none" stroke="#191970" d="M74.5878,-670.0972C83.5079,-755.7106 116.0031,-1021.5891 180,-1073.5 241.9902,-1123.7832 346.3508,-1102.5154 392.2153,-1089.6547"/>
<polygon fill="#191970" stroke="#191970" points="78.0457,-669.5051 73.55,-659.9114 71.0817,-670.2147 78.0457,-669.5051"/>
</g>
<!-- Node22 -->
<g id="node22" class="node">
<title>Node22</title>
<g id="a_node22"><a xlink:href="../../d1/d8d/macros_2blob_2master_2macros_2g4simulations_2G4__CEmc__Spacal_8C.html#a5a524f976392ac304e84c872e8d435d1" target="_top" xlink:title="EMCal setup macro &#45; 1D azimuthal projective SPACAL.">
<polygon fill="none" stroke="#000000" points="187.5,-1043.5 187.5,-1063.5 334.5,-1063.5 334.5,-1043.5 187.5,-1043.5"/>
<text text-anchor="middle" x="261" y="-1050.5" font-family="FreeSans" font-size="10.00" fill="#000000">CEmc_1DProjectiveSpacal</text>
</a>
</g>
</g>
<!-- Node1&#45;&gt;Node22 -->
<g id="edge21" class="edge">
<title>Node1&#45;&gt;Node22</title>
<path fill="none" stroke="#191970" d="M75.7812,-670.1007C87.6032,-749.5628 126.3076,-982.8666 180,-1034.5 183.6439,-1038.0042 187.8055,-1040.9054 192.2752,-1043.3029"/>
<polygon fill="#191970" stroke="#191970" points="79.2058,-669.3309 74.2927,-659.9442 72.2798,-670.346 79.2058,-669.3309"/>
</g>
<!-- Node24 -->
<g id="node24" class="node">
<title>Node24</title>
<g id="a_node24"><a xlink:href="../../d1/d8d/macros_2blob_2master_2macros_2g4simulations_2G4__CEmc__Spacal_8C.html#a034d8a445c397fdcb3c0be0b80d91cfb" target="_top" xlink:title="2D full projective SPACAL">
<polygon fill="none" stroke="#000000" points="187.5,-1004.5 187.5,-1024.5 334.5,-1024.5 334.5,-1004.5 187.5,-1004.5"/>
<text text-anchor="middle" x="261" y="-1011.5" font-family="FreeSans" font-size="10.00" fill="#000000">CEmc_2DProjectiveSpacal</text>
</a>
</g>
</g>
<!-- Node1&#45;&gt;Node24 -->
<g id="edge23" class="edge">
<title>Node1&#45;&gt;Node24</title>
<path fill="none" stroke="#191970" d="M76.6003,-669.8514C89.997,-743.6269 131.1432,-949.8253 180,-995.5 183.7985,-999.0511 188.1305,-1001.9792 192.7708,-1004.3893"/>
<polygon fill="#191970" stroke="#191970" points="79.9681,-668.8022 74.7593,-659.5762 73.0779,-670.0368 79.9681,-668.8022"/>
</g>
<!-- Node25 -->
<g id="node25" class="node">
<title>Node25</title>
<g id="a_node25"><a xlink:href="../../db/d89/ConstructGeometry_8C.html#a21c369835643f1016f506a3da3b8d446" target="_top" xlink:title="ConstructGeometry">
<polygon fill="none" stroke="#000000" points="203.5,-965.5 203.5,-985.5 318.5,-985.5 318.5,-965.5 203.5,-965.5"/>
<text text-anchor="middle" x="261" y="-972.5" font-family="FreeSans" font-size="10.00" fill="#000000">ConstructGeometry</text>
</a>
</g>
</g>
<!-- Node1&#45;&gt;Node25 -->
<g id="edge25" class="edge">
<title>Node1&#45;&gt;Node25</title>
<path fill="none" stroke="#191970" d="M73.5438,-669.8075C78.43,-728.7024 98.515,-872.125 180,-950.5 186.7885,-957.0294 195.2452,-961.8566 204.1118,-965.4246"/>
<polygon fill="#191970" stroke="#191970" points="77.0102,-669.2256 72.7761,-659.5137 70.0296,-669.7463 77.0102,-669.2256"/>
</g>
<!-- Node26 -->
<g id="node26" class="node">
<title>Node26</title>
<g id="a_node26"><a xlink:href="../../d3/dc0/macros_2blob_2master_2macros_2g4simulations_2G4__DIRC_8C.html#acbdf429e4e41a2057e053691cc0b4128" target="_top" xlink:title="DIRCSetup">
<polygon fill="none" stroke="#000000" points="380,-712.5 380,-732.5 450,-732.5 450,-712.5 380,-712.5"/>
<text text-anchor="middle" x="415" y="-719.5" font-family="FreeSans" font-size="10.00" fill="#000000">DIRCSetup</text>
</a>
</g>
</g>
<!-- Node1&#45;&gt;Node26 -->
<g id="edge26" class="edge">
<title>Node1&#45;&gt;Node26</title>
<path fill="none" stroke="#191970" d="M78.2873,-669.4523C94.0244,-732.0222 136.9471,-888.1932 180,-917.5 239.5188,-958.0155 282.8329,-958.5275 342,-917.5 374.3792,-895.0477 404.5492,-769.4285 412.7924,-732.63"/>
<polygon fill="#191970" stroke="#191970" points="81.6416,-668.4371 75.8343,-659.5756 74.848,-670.1244 81.6416,-668.4371"/>
</g>
<!-- Node27 -->
<g id="node27" class="node">
<title>Node27</title>
<g id="a_node27"><a xlink:href="../../de/d55/Fun4All__G4__block_8C.html#a6a063a649a0dd3318a517d5af98430dd" target="_top" xlink:title="Fun4All_G4_block">
<polygon fill="none" stroke="#000000" points="208.5,-887.5 208.5,-907.5 313.5,-907.5 313.5,-887.5 208.5,-887.5"/>
<text text-anchor="middle" x="261" y="-894.5" font-family="FreeSans" font-size="10.00" fill="#000000">Fun4All_G4_block</text>
</a>
</g>
</g>
<!-- Node1&#45;&gt;Node27 -->
<g id="edge28" class="edge">
<title>Node1&#45;&gt;Node27</title>
<path fill="none" stroke="#191970" d="M76.2932,-669.6491C85.7476,-718.5475 113.094,-823.8172 180,-878.5 188.0525,-885.0813 197.9826,-889.4636 208.0974,-892.3632"/>
<polygon fill="#191970" stroke="#191970" points="79.6911,-668.7734 74.4458,-659.5681 72.8058,-670.0352 79.6911,-668.7734"/>
</g>
<!-- Node28 -->
<g id="node28" class="node">
<title>Node28</title>
<g id="a_node28"><a xlink:href="../../d2/dee/Fun4All__G4__Cylinder_8C.html#a271dc4f10f6f77107705e0efef0c97e5" target="_top" xlink:title="Fun4All_G4_Cylinder">
<polygon fill="none" stroke="#000000" points="200.5,-848.5 200.5,-868.5 321.5,-868.5 321.5,-848.5 200.5,-848.5"/>
<text text-anchor="middle" x="261" y="-855.5" font-family="FreeSans" font-size="10.00" fill="#000000">Fun4All_G4_Cylinder</text>
</a>
</g>
</g>
<!-- Node1&#45;&gt;Node28 -->
<g id="edge29" class="edge">
<title>Node1&#45;&gt;Node28</title>
<path fill="none" stroke="#191970" d="M78.8487,-669.5058C91.4251,-711.9577 122.351,-795.7853 180,-839.5 186.1,-844.1256 193.146,-847.6502 200.4849,-850.3316"/>
<polygon fill="#191970" stroke="#191970" points="82.148,-668.3121 76.0416,-659.654 75.4159,-670.2303 82.148,-668.3121"/>
</g>
<!-- Node29 -->
<g id="node29" class="node">
<title>Node29</title>
<g id="a_node29"><a xlink:href="../../df/de1/Fun4All__G4__IonGun_8C.html#ab4966a2ae337cb8f0e45f7ee488e33b7" target="_top" xlink:title="Fun4All_G4_IonGun">
<polygon fill="none" stroke="#000000" points="204,-809.5 204,-829.5 318,-829.5 318,-809.5 204,-809.5"/>
<text text-anchor="middle" x="261" y="-816.5" font-family="FreeSans" font-size="10.00" fill="#000000">Fun4All_G4_IonGun</text>
</a>
</g>
</g>
<!-- Node1&#45;&gt;Node29 -->
<g id="edge30" class="edge">
<title>Node1&#45;&gt;Node29</title>
<path fill="none" stroke="#191970" d="M82.5646,-669.4016C98.3495,-704.7219 131.5168,-767.3792 180,-800.5 187.1561,-805.3886 195.4073,-809.0294 203.847,-811.7387"/>
<polygon fill="#191970" stroke="#191970" points="85.5891,-667.5785 78.4002,-659.7958 79.1666,-670.3629 85.5891,-667.5785"/>
</g>
<!-- Node30 -->
<g id="node30" class="node">
<title>Node30</title>
<g id="a_node30"><a xlink:href="../../d5/d01/Fun4All__G4__LeadBrick_8C.html#a5fcd8843f8a815feb3b053eaabd60d41" target="_top" xlink:title="Fun4All_G4_LeadBrick">
<polygon fill="none" stroke="#000000" points="197,-770.5 197,-790.5 325,-790.5 325,-770.5 197,-770.5"/>
<text text-anchor="middle" x="261" y="-777.5" font-family="FreeSans" font-size="10.00" fill="#000000">Fun4All_G4_LeadBrick</text>
</a>
</g>
</g>
<!-- Node1&#45;&gt;Node30 -->
<g id="edge31" class="edge">
<title>Node1&#45;&gt;Node30</title>
<path fill="none" stroke="#191970" d="M87.84,-668.2536C106.5366,-695.3891 140.174,-738.1648 180,-761.5 186.2312,-765.1511 193.1183,-768.1007 200.1673,-770.4837"/>
<polygon fill="#191970" stroke="#191970" points="90.5717,-666.0437 82.0849,-659.7014 84.7642,-669.9518 90.5717,-666.0437"/>
</g>
<!-- Node31 -->
<g id="node31" class="node">
<title>Node31</title>
<g id="a_node31"><a xlink:href="../../d9/d8f/Fun4All__G4__Momentum_8C.html#afbd7a4eecd7792e9216ce80b5514123e" target="_top" xlink:title="Fun4All_G4_Momentum">
<polygon fill="none" stroke="#000000" points="193.5,-731.5 193.5,-751.5 328.5,-751.5 328.5,-731.5 193.5,-731.5"/>
<text text-anchor="middle" x="261" y="-738.5" font-family="FreeSans" font-size="10.00" fill="#000000">Fun4All_G4_Momentum</text>
</a>
</g>
</g>
<!-- Node1&#45;&gt;Node31 -->
<g id="edge32" class="edge">
<title>Node1&#45;&gt;Node31</title>
<path fill="none" stroke="#191970" d="M97.0085,-666.3549C117.787,-684.1631 148.8826,-708.1923 180,-722.5 187.7428,-726.0601 196.2191,-728.9885 204.6794,-731.3871"/>
<polygon fill="#191970" stroke="#191970" points="99.1386,-663.5685 89.3033,-659.6293 94.5354,-668.8421 99.1386,-663.5685"/>
</g>
<!-- Node32 -->
<g id="node32" class="node">
<title>Node32</title>
<g id="a_node32"><a xlink:href="../../dc/d8e/Fun4All__G4__Prototype2_8C.html#a6b8f092c4f51be2938dd09c810ba6226" target="_top" xlink:title="Fun4All_G4_Prototype2">
<polygon fill="none" stroke="#000000" points="194.5,-692.5 194.5,-712.5 327.5,-712.5 327.5,-692.5 194.5,-692.5"/>
<text text-anchor="middle" x="261" y="-699.5" font-family="FreeSans" font-size="10.00" fill="#000000">Fun4All_G4_Prototype2</text>
</a>
</g>
</g>
<!-- Node1&#45;&gt;Node32 -->
<g id="edge33" class="edge">
<title>Node1&#45;&gt;Node32</title>
<path fill="none" stroke="#191970" d="M121.1783,-663.182C139.4765,-670.115 160.5258,-677.6344 180,-683.5 190.7878,-686.7492 202.5213,-689.7823 213.6229,-692.4293"/>
<polygon fill="#191970" stroke="#191970" points="122.1945,-659.8233 111.6042,-659.5138 119.69,-666.3599 122.1945,-659.8233"/>
</g>
<!-- Node33 -->
<g id="node33" class="node">
<title>Node33</title>
<g id="a_node33"><a xlink:href="../../d7/d40/Fun4All__G4__Prototype3_8C.html#a1201361263017b08a070777a0b90b27c" target="_top" xlink:title="Fun4All_G4_Prototype3">
<polygon fill="none" stroke="#000000" points="194.5,-653.5 194.5,-673.5 327.5,-673.5 327.5,-653.5 194.5,-653.5"/>
<text text-anchor="middle" x="261" y="-660.5" font-family="FreeSans" font-size="10.00" fill="#000000">Fun4All_G4_Prototype3</text>
</a>
</g>
</g>
<!-- Node1&#45;&gt;Node33 -->
<g id="edge34" class="edge">
<title>Node1&#45;&gt;Node33</title>
<path fill="none" stroke="#191970" d="M154.3954,-652.2191C167.7542,-653.6327 181.4412,-655.0811 194.3646,-656.4486"/>
<polygon fill="#191970" stroke="#191970" points="154.5746,-648.7186 144.2618,-651.1468 153.8379,-655.6797 154.5746,-648.7186"/>
</g>
<!-- Node34 -->
<g id="node34" class="node">
<title>Node34</title>
<g id="a_node34"><a xlink:href="../../d4/d58/Fun4All__G4__Prototype4_8C.html#acac517f0728af658cbf99c7c9687c908" target="_top" xlink:title="Fun4All_G4_Prototype4">
<polygon fill="none" stroke="#000000" points="194.5,-614.5 194.5,-634.5 327.5,-634.5 327.5,-614.5 194.5,-614.5"/>
<text text-anchor="middle" x="261" y="-621.5" font-family="FreeSans" font-size="10.00" fill="#000000">Fun4All_G4_Prototype4</text>
</a>
</g>
</g>
<!-- Node1&#45;&gt;Node34 -->
<g id="edge35" class="edge">
<title>Node1&#45;&gt;Node34</title>
<path fill="none" stroke="#191970" d="M154.3954,-635.2169C167.7542,-633.8739 181.4412,-632.498 194.3646,-631.1988"/>
<polygon fill="#191970" stroke="#191970" points="153.8615,-631.7528 144.2618,-636.2356 154.5618,-638.7177 153.8615,-631.7528"/>
</g>
<!-- Node35 -->
<g id="node35" class="node">
<title>Node35</title>
<g id="a_node35"><a xlink:href="../../da/db5/Fun4All__G4__W_8C.html#ad4745423f42356b6b3cb65bbbc1e917e" target="_top" xlink:title="Fun4All_G4_W">
<polygon fill="none" stroke="#000000" points="217,-575.5 217,-595.5 305,-595.5 305,-575.5 217,-575.5"/>
<text text-anchor="middle" x="261" y="-582.5" font-family="FreeSans" font-size="10.00" fill="#000000">Fun4All_G4_W</text>
</a>
</g>
</g>
<!-- Node1&#45;&gt;Node35 -->
<g id="edge36" class="edge">
<title>Node1&#45;&gt;Node35</title>
<path fill="none" stroke="#191970" d="M124.0677,-624.041C141.7068,-617.7541 161.6001,-610.9947 180,-605.5 191.9361,-601.9355 204.9938,-598.5089 217.0725,-595.5297"/>
<polygon fill="#191970" stroke="#191970" points="122.7489,-620.7957 114.5239,-627.4741 125.1184,-627.3825 122.7489,-620.7957"/>
</g>
<!-- Node36 -->
<g id="node36" class="node">
<title>Node36</title>
<g id="a_node36"><a xlink:href="../../de/dd3/G4Setup__EICIR_8C.html#a674566a8ab8ae9b3ee5426df2818e2ec" target="_top" xlink:title="G4Setup">
<polygon fill="none" stroke="#000000" points="385,-477.5 385,-497.5 445,-497.5 445,-477.5 385,-477.5"/>
<text text-anchor="middle" x="415" y="-484.5" font-family="FreeSans" font-size="10.00" fill="#000000">G4Setup</text>
</a>
</g>
</g>
<!-- Node1&#45;&gt;Node36 -->
<g id="edge37" class="edge">
<title>Node1&#45;&gt;Node36</title>
<path fill="none" stroke="#191970" d="M97.8847,-620.6742C118.7257,-603.4254 149.4801,-580.4162 180,-566.5 247.3828,-535.7753 272.9213,-554.1942 342,-527.5 362.7592,-519.478 384.9596,-506.6324 399.3549,-497.6695"/>
<polygon fill="#191970" stroke="#191970" points="95.5263,-618.0845 90.133,-627.2039 100.0361,-623.4382 95.5263,-618.0845"/>
</g>
<!-- Node37 -->
<g id="node37" class="node">
<title>Node37</title>
<g id="a_node37"><a xlink:href="../../d7/dc0/G4__HcalIn__EIC_8C.html#a3d57117b35676ff1a0c5eb9efed9f101" target="_top" xlink:title="HCalInner">
<polygon fill="none" stroke="#000000" points="381.5,-360.5 381.5,-380.5 448.5,-380.5 448.5,-360.5 381.5,-360.5"/>
<text text-anchor="middle" x="415" y="-367.5" font-family="FreeSans" font-size="10.00" fill="#000000">HCalInner</text>
</a>
</g>
</g>
<!-- Node1&#45;&gt;Node37 -->
<g id="edge38" class="edge">
<title>Node1&#45;&gt;Node37</title>
<path fill="none" stroke="#191970" d="M76.0601,-617.1837C85.1215,-568.0446 111.8329,-462.6094 180,-410.5 210.9885,-386.8112 323.7537,-376.3207 381.0653,-372.4355"/>
<polygon fill="#191970" stroke="#191970" points="72.5626,-616.8675 74.2967,-627.3194 79.459,-618.0674 72.5626,-616.8675"/>
</g>
<!-- Node38 -->
<g id="node38" class="node">
<title>Node38</title>
<g id="a_node38"><a xlink:href="../../d7/dc0/G4__HcalIn__EIC_8C.html#a3b4780d0c8bf98a2dab85016a8181973" target="_top" xlink:title="A rough version of the inner HCal support ring, from Richie&#39;s CAD drawing. &#45; Jin.">
<polygon fill="none" stroke="#000000" points="194,-341.5 194,-361.5 328,-361.5 328,-341.5 194,-341.5"/>
<text text-anchor="middle" x="261" y="-348.5" font-family="FreeSans" font-size="10.00" fill="#000000">HCalInner_SupportRing</text>
</a>
</g>
</g>
<!-- Node1&#45;&gt;Node38 -->
<g id="edge40" class="edge">
<title>Node1&#45;&gt;Node38</title>
<path fill="none" stroke="#191970" d="M75.122,-617.2972C82.8577,-564.0817 107.8188,-442.792 180,-376.5 187.154,-369.9297 196.003,-365.0856 205.1976,-361.5142"/>
<polygon fill="#191970" stroke="#191970" points="71.6432,-616.9047 73.7587,-627.2862 78.5789,-617.8514 71.6432,-616.9047"/>
</g>
<!-- Node39 -->
<g id="node39" class="node">
<title>Node39</title>
<g id="a_node39"><a xlink:href="../../d1/d9e/G4__IR__EIC_8C.html#a866137a6aef46434fb1991996576f8ae" target="_top" xlink:title="IRSetup">
<polygon fill="none" stroke="#000000" points="233,-497.5 233,-517.5 289,-517.5 289,-497.5 233,-497.5"/>
<text text-anchor="middle" x="261" y="-504.5" font-family="FreeSans" font-size="10.00" fill="#000000">IRSetup</text>
</a>
</g>
</g>
<!-- Node1&#45;&gt;Node39 -->
<g id="edge42" class="edge">
<title>Node1&#45;&gt;Node39</title>
<path fill="none" stroke="#191970" d="M89.6738,-619.1641C109.1367,-594.0306 142.6642,-555.3513 180,-532.5 196.1928,-522.5892 216.6339,-516.3186 232.9302,-512.5361"/>
<polygon fill="#191970" stroke="#191970" points="86.6498,-617.3592 83.3929,-627.441 92.2261,-621.5907 86.6498,-617.3592"/>
</g>
<!-- Node40 -->
<g id="node40" class="node">
<title>Node40</title>
<g id="a_node40"><a xlink:href="../../de/d2c/macros_2blob_2master_2macros_2g4simulations_2G4__Magnet_8C.html#a69bf7334e75e61a59af0ef76c418b36a" target="_top" xlink:title="Magnet">
<polygon fill="none" stroke="#000000" points="233.5,-458.5 233.5,-478.5 288.5,-478.5 288.5,-458.5 233.5,-458.5"/>
<text text-anchor="middle" x="261" y="-465.5" font-family="FreeSans" font-size="10.00" fill="#000000">Magnet</text>
</a>
</g>
</g>
<!-- Node1&#45;&gt;Node40 -->
<g id="edge44" class="edge">
<title>Node1&#45;&gt;Node40</title>
<path fill="none" stroke="#191970" d="M82.709,-618.0052C98.6633,-583.225 132.0284,-521.4711 180,-488.5 195.7571,-477.6701 216.8001,-472.6911 233.4886,-470.4087"/>
<polygon fill="#191970" stroke="#191970" points="79.3681,-616.9039 78.496,-627.4628 85.7623,-619.7523 79.3681,-616.9039"/>
</g>
<!-- Node41 -->
<g id="node41" class="node">
<title>Node41</title>
<g id="a_node41"><a xlink:href="../../da/d21/macros_2blob_2master_2macros_2g4simulations_2G4Setup__fsPHENIX_8C.html#a5152c9ff3ef81a7dc81e9771b8ee6762" target="_top" xlink:title="make_piston">
<polygon fill="none" stroke="#000000" points="221,-302.5 221,-322.5 301,-322.5 301,-302.5 221,-302.5"/>
<text text-anchor="middle" x="261" y="-309.5" font-family="FreeSans" font-size="10.00" fill="#000000">make_piston</text>
</a>
</g>
</g>
<!-- Node1&#45;&gt;Node41 -->
<g id="edge46" class="edge">
<title>Node1&#45;&gt;Node41</title>
<path fill="none" stroke="#191970" d="M77.6331,-617.4183C92.7525,-549.7615 136.0652,-371.1338 180,-331.5 191.0468,-321.5346 206.3167,-316.5125 220.6232,-314.0691"/>
<polygon fill="#191970" stroke="#191970" points="74.1928,-616.7661 75.4528,-627.2858 81.0279,-618.2765 74.1928,-616.7661"/>
</g>
<!-- Node43 -->
<g id="node43" class="node">
<title>Node43</title>
<g id="a_node43"><a xlink:href="../../df/d97/macros_2blob_2master_2macros_2g4simulations_2G4__Pipe_8C.html#a3288b3cd0aeeda385414ee0cd9a39635" target="_top" xlink:title="Pipe">
<polygon fill="none" stroke="#000000" points="242.5,-419.5 242.5,-439.5 279.5,-439.5 279.5,-419.5 242.5,-419.5"/>
<text text-anchor="middle" x="261" y="-426.5" font-family="FreeSans" font-size="10.00" fill="#000000">Pipe</text>
</a>
</g>
</g>
<!-- Node1&#45;&gt;Node43 -->
<g id="edge48" class="edge">
<title>Node1&#45;&gt;Node43</title>
<path fill="none" stroke="#191970" d="M79.0799,-617.5174C91.9122,-575.502 123.102,-492.9742 180,-449.5 198.1852,-435.6051 224.7776,-431.2433 242.4725,-429.9401"/>
<polygon fill="#191970" stroke="#191970" points="75.673,-616.6968 76.2085,-627.2781 82.3885,-618.6724 75.673,-616.6968"/>
</g>
<!-- Node44 -->
<g id="node44" class="node">
<title>Node44</title>
<g id="a_node44"><a xlink:href="../../d1/d56/G4__PlugDoor_8C.html#aac9c24f96824c585914f9bef5de9c790" target="_top" xlink:title="PlugDoor">
<polygon fill="none" stroke="#000000" points="383.5,-263.5 383.5,-283.5 446.5,-283.5 446.5,-263.5 383.5,-263.5"/>
<text text-anchor="middle" x="415" y="-270.5" font-family="FreeSans" font-size="10.00" fill="#000000">PlugDoor</text>
</a>
</g>
</g>
<!-- Node1&#45;&gt;Node44 -->
<g id="edge50" class="edge">
<title>Node1&#45;&gt;Node44</title>
<path fill="none" stroke="#191970" d="M76.2072,-617.3029C88.6821,-543.1315 127.8757,-334.3489 180,-292.5 238.5689,-245.477 333.9162,-256.1037 383.2241,-265.8942"/>
<polygon fill="#191970" stroke="#191970" points="72.7435,-616.796 74.5621,-627.2335 79.6494,-617.94 72.7435,-616.796"/>
</g>
<!-- Node45 -->
<g id="node45" class="node">
<title>Node45</title>
<g id="a_node45"><a xlink:href="../../d8/dce/classPHG4ForwardEcalSubsystem.html#aa5a454f21fe9f9a9ae65af1b610f7e0f" target="_top" xlink:title="PHG4ForwardEcalSubsystem\l::SetTowerMappingFile">
<polygon fill="none" stroke="#000000" points="180,-212.5 180,-244.5 342,-244.5 342,-212.5 180,-212.5"/>
<text text-anchor="start" x="188" y="-231.5" font-family="FreeSans" font-size="10.00" fill="#000000">PHG4ForwardEcalSubsystem</text>
<text text-anchor="middle" x="261" y="-219.5" font-family="FreeSans" font-size="10.00" fill="#000000">::SetTowerMappingFile</text>
</a>
</g>
</g>
<!-- Node1&#45;&gt;Node45 -->
<g id="edge52" class="edge">
<title>Node1&#45;&gt;Node45</title>
<path fill="none" stroke="#191970" d="M76.2594,-617.1581C89.2888,-539.493 130.7332,-313.4862 180,-259.5 185.5824,-253.3829 192.5049,-248.4633 199.934,-244.509"/>
<polygon fill="#191970" stroke="#191970" points="72.794,-616.6614 74.6116,-627.0992 79.6998,-617.8062 72.794,-616.6614"/>
</g>
<!-- Node47 -->
<g id="node47" class="node">
<title>Node47</title>
<g id="a_node47"><a xlink:href="../../da/d2a/G4__Svtx_8C.html#ac4c82b429746ee57457304af3cebbc56" target="_top" xlink:title="Svtx">
<polygon fill="none" stroke="#000000" points="242,-173.5 242,-193.5 280,-193.5 280,-173.5 242,-173.5"/>
<text text-anchor="middle" x="261" y="-180.5" font-family="FreeSans" font-size="10.00" fill="#000000">Svtx</text>
</a>
</g>
</g>
<!-- Node1&#45;&gt;Node47 -->
<g id="edge55" class="edge">
<title>Node1&#45;&gt;Node47</title>
<path fill="none" stroke="#191970" d="M74.8456,-617.2919C84.6709,-531.6308 119.9038,-262.012 180,-202.5 196.3187,-186.3399 223.6129,-182.9243 241.9539,-182.656"/>
<polygon fill="#191970" stroke="#191970" points="71.3414,-617.1338 73.7001,-627.4627 78.2974,-617.9173 71.3414,-617.1338"/>
</g>
<!-- Node3 -->
<g id="node3" class="node">
<title>Node3</title>
<g id="a_node3"><a xlink:href="../../d2/dfe/macros_2blob_2master_2macros_2g4simulations_2G4Setup__EICDetector_8C.html#a5d4cb2d19366a2ae6d2aefe8d2e4a870" target="_top" xlink:title="G4Setup">
<polygon fill="none" stroke="#000000" points="488,-360.5 488,-380.5 548,-380.5 548,-360.5 488,-360.5"/>
<text text-anchor="middle" x="518" y="-367.5" font-family="FreeSans" font-size="10.00" fill="#000000">G4Setup</text>
</a>
</g>
</g>
<!-- Node2&#45;&gt;Node3 -->
<g id="edge2" class="edge">
<title>Node2&#45;&gt;Node3</title>
<path fill="none" stroke="#191970" d="M436.2749,-1065.5801C442.3689,-1059.5921 448.3453,-1052.3682 452,-1044.5 510.1972,-919.2075 517.164,-455.9869 517.9153,-380.8329"/>
<polygon fill="#191970" stroke="#191970" points="433.7336,-1063.159 428.6587,-1072.4594 438.4257,-1068.3537 433.7336,-1063.159"/>
</g>
<!-- Node4 -->
<g id="node4" class="node">
<title>Node4</title>
<g id="a_node4"><a xlink:href="../../d3/d7f/Fun_8C.html#af0d3c8a78765149fef9b2beeecfc6279" target="_top" xlink:title="ConfigureDetectors">
<polygon fill="none" stroke="#000000" points="610.5,-696.5 610.5,-716.5 724.5,-716.5 724.5,-696.5 610.5,-696.5"/>
<text text-anchor="middle" x="667.5" y="-703.5" font-family="FreeSans" font-size="10.00" fill="#000000">ConfigureDetectors</text>
</a>
</g>
</g>
<!-- Node3&#45;&gt;Node4 -->
<g id="edge3" class="edge">
<title>Node3&#45;&gt;Node4</title>
<path fill="none" stroke="#191970" d="M519.4273,-390.9258C524.2608,-454.1307 542.1067,-644.8258 584,-687.5 591.1864,-694.8204 600.5649,-699.5749 610.4318,-702.6149"/>
<polygon fill="#191970" stroke="#191970" points="522.8973,-390.3885 518.6733,-380.6721 515.9162,-390.9019 522.8973,-390.3885"/>
</g>
<!-- Node6 -->
<g id="node6" class="node">
<title>Node6</title>
<g id="a_node6"><a xlink:href="../../da/d02/Fun4All__G4__EICDetector_8C.html#afbe82cefa1d1fd031d9a8586b7bb68c6" target="_top" xlink:title="Fun4All_G4_EICDetector">
<polygon fill="none" stroke="#000000" points="598,-657.5 598,-677.5 737,-677.5 737,-657.5 598,-657.5"/>
<text text-anchor="middle" x="667.5" y="-664.5" font-family="FreeSans" font-size="10.00" fill="#000000">Fun4All_G4_EICDetector</text>
</a>
</g>
</g>
<!-- Node3&#45;&gt;Node6 -->
<g id="edge5" class="edge">
<title>Node3&#45;&gt;Node6</title>
<path fill="none" stroke="#191970" d="M520.043,-390.6514C526.2901,-448.2566 546.9979,-611.8426 584,-648.5 588.0134,-652.4761 592.6752,-655.6904 597.7044,-658.2815"/>
<polygon fill="#191970" stroke="#191970" points="523.5139,-390.1909 518.9858,-380.6124 516.5524,-390.924 523.5139,-390.1909"/>
</g>
<!-- Node7 -->
<g id="node7" class="node">
<title>Node7</title>
<g id="a_node7"><a xlink:href="../../dd/d2a/Fun4All__G4__EICDetector__LQ_8C.html#aaa01242fd6e77ca43a9d49a6d46008e4" target="_top" xlink:title="Fun4All_G4_EICDetector_LQ">
<polygon fill="none" stroke="#000000" points="589.5,-618.5 589.5,-638.5 745.5,-638.5 745.5,-618.5 589.5,-618.5"/>
<text text-anchor="middle" x="667.5" y="-625.5" font-family="FreeSans" font-size="10.00" fill="#000000">Fun4All_G4_EICDetector_LQ</text>
</a>
</g>
</g>
<!-- Node3&#45;&gt;Node7 -->
<g id="edge6" class="edge">
<title>Node3&#45;&gt;Node7</title>
<path fill="none" stroke="#191970" d="M520.8599,-390.5144C528.6596,-442.3048 551.8848,-578.8199 584,-609.5 587.655,-612.9917 591.812,-615.891 596.2733,-618.2938"/>
<polygon fill="#191970" stroke="#191970" points="524.3134,-389.9416 519.3947,-380.5578 517.388,-390.9608 524.3134,-389.9416"/>
</g>
<!-- Node8 -->
<g id="node8" class="node">
<title>Node8</title>
<g id="a_node8"><a xlink:href="../../d4/df5/Fun4All__G4__EICDetector__LQ__reference_8C.html#a2feefc472f17f90b3cbe74897d049f75" target="_top" xlink:title="Fun4All_G4_EICDetector\l_LQ_reference">
<polygon fill="none" stroke="#000000" points="598,-567.5 598,-599.5 737,-599.5 737,-567.5 598,-567.5"/>
<text text-anchor="start" x="606" y="-586.5" font-family="FreeSans" font-size="10.00" fill="#000000">Fun4All_G4_EICDetector</text>
<text text-anchor="middle" x="667.5" y="-574.5" font-family="FreeSans" font-size="10.00" fill="#000000">_LQ_reference</text>
</a>
</g>
</g>
<!-- Node3&#45;&gt;Node8 -->
<g id="edge7" class="edge">
<title>Node3&#45;&gt;Node8</title>
<path fill="none" stroke="#191970" d="M519.2967,-391.2022C522.8343,-429.7153 535.9213,-512.6165 584,-558.5 588.0504,-562.3655 592.6743,-565.6359 597.6212,-568.4024"/>
<polygon fill="#191970" stroke="#191970" points="522.7493,-390.4604 518.4773,-380.765 515.7708,-391.0084 522.7493,-390.4604"/>
</g>
<!-- Node9 -->
<g id="node9" class="node">
<title>Node9</title>
<g id="a_node9"><a xlink:href="../../d3/d51/Fun4All__G4__EICDetector__RICH_8C.html#a5739502b0a7a1ba782c01069f77e933f" target="_top" xlink:title="Fun4All_G4_EICDetector_RICH">
<polygon fill="none" stroke="#000000" points="584,-528.5 584,-548.5 751,-548.5 751,-528.5 584,-528.5"/>
<text text-anchor="middle" x="667.5" y="-535.5" font-family="FreeSans" font-size="10.00" fill="#000000">Fun4All_G4_EICDetector_RICH</text>
</a>
</g>
</g>
<!-- Node3&#45;&gt;Node9 -->
<g id="edge8" class="edge">
<title>Node3&#45;&gt;Node9</title>
<path fill="none" stroke="#191970" d="M521.0732,-390.7609C527.0889,-423.12 543.5551,-486.2025 584,-519.5 588.3615,-523.0908 593.2681,-526.0342 598.4617,-528.4433"/>
<polygon fill="#191970" stroke="#191970" points="524.4883,-389.966 519.359,-380.6956 517.5876,-391.1412 524.4883,-389.966"/>
</g>
<!-- Node10 -->
<g id="node10" class="node">
<title>Node10</title>
<g id="a_node10"><a xlink:href="../../d9/d0e/Fun4All__G4__EICIR_8C.html#ac3543d1dd4a0abed3987d40939ee3f87" target="_top" xlink:title="Fun4All_G4_EICIR">
<polygon fill="none" stroke="#000000" points="615.5,-489.5 615.5,-509.5 719.5,-509.5 719.5,-489.5 615.5,-489.5"/>
<text text-anchor="middle" x="667.5" y="-496.5" font-family="FreeSans" font-size="10.00" fill="#000000">Fun4All_G4_EICIR</text>
</a>
</g>
</g>
<!-- Node3&#45;&gt;Node10 -->
<g id="edge9" class="edge">
<title>Node3&#45;&gt;Node10</title>
<path fill="none" stroke="#191970" d="M524.2986,-390.0753C533.3796,-415.0549 552.5981,-457.7457 584,-480.5 593.1494,-487.1298 604.2257,-491.4978 615.2782,-494.3625"/>
<polygon fill="#191970" stroke="#191970" points="527.5882,-388.8783 521.0214,-380.5639 520.97,-391.1586 527.5882,-388.8783"/>
</g>
<!-- Node11 -->
<g id="node11" class="node">
<title>Node11</title>
<g id="a_node11"><a xlink:href="../../d7/d9e/Fun4All__G4__fsPHENIX_8C.html#af48911d394d2412e817583700f2bbee2" target="_top" xlink:title="Fun4All_G4_fsPHENIX">
<polygon fill="none" stroke="#000000" points="605.5,-450.5 605.5,-470.5 729.5,-470.5 729.5,-450.5 605.5,-450.5"/>
<text text-anchor="middle" x="667.5" y="-457.5" font-family="FreeSans" font-size="10.00" fill="#000000">Fun4All_G4_fsPHENIX</text>
</a>
</g>
</g>
<!-- Node3&#45;&gt;Node11 -->
<g id="edge10" class="edge">
<title>Node3&#45;&gt;Node11</title>
<path fill="none" stroke="#191970" d="M530.1024,-388.7729C541.9084,-405.1193 561.3623,-428.454 584,-441.5 590.5694,-445.2859 597.8352,-448.3174 605.2593,-450.7449"/>
<polygon fill="#191970" stroke="#191970" points="532.9439,-386.7287 524.3586,-380.5203 527.1985,-390.7275 532.9439,-386.7287"/>
</g>
<!-- Node12 -->
<g id="node12" class="node">
<title>Node12</title>
<g id="a_node12"><a xlink:href="../../da/d2f/Fun4All__G4__fsPHENIX__FastSim_8C.html#a66fb850cae5fcaadda23b74a25ce4c9c" target="_top" xlink:title="Fun4All_G4_fsPHENIX\l_FastSim">
<polygon fill="none" stroke="#000000" points="605.5,-399.5 605.5,-431.5 729.5,-431.5 729.5,-399.5 605.5,-399.5"/>
<text text-anchor="start" x="613.5" y="-418.5" font-family="FreeSans" font-size="10.00" fill="#000000">Fun4All_G4_fsPHENIX</text>
<text text-anchor="middle" x="667.5" y="-406.5" font-family="FreeSans" font-size="10.00" fill="#000000">_FastSim</text>
</a>
</g>
</g>
<!-- Node3&#45;&gt;Node12 -->
<g id="edge11" class="edge">
<title>Node3&#45;&gt;Node12</title>
<path fill="none" stroke="#191970" d="M558.0215,-382.651C566.5918,-385.2466 575.5954,-387.9684 584,-390.5 593.5629,-393.3805 603.745,-396.4374 613.5913,-399.3883"/>
<polygon fill="#191970" stroke="#191970" points="558.807,-379.232 548.2217,-379.6811 556.7767,-385.9311 558.807,-379.232"/>
</g>
<!-- Node13 -->
<g id="node13" class="node">
<title>Node13</title>
<g id="a_node13"><a xlink:href="../../d0/da6/Fun4All__G4__fsPHENIX__pi0_8C.html#a023d91d47b678e5d7f1751834aa517c6" target="_top" xlink:title="Fun4All_G4_fsPHENIX_pi0">
<polygon fill="none" stroke="#000000" points="595,-360.5 595,-380.5 740,-380.5 740,-360.5 595,-360.5"/>
<text text-anchor="middle" x="667.5" y="-367.5" font-family="FreeSans" font-size="10.00" fill="#000000">Fun4All_G4_fsPHENIX_pi0</text>
</a>
</g>
</g>
<!-- Node3&#45;&gt;Node13 -->
<g id="edge12" class="edge">
<title>Node3&#45;&gt;Node13</title>
<path fill="none" stroke="#191970" d="M558.2574,-370.5C569.6119,-370.5 582.3264,-370.5 594.9568,-370.5"/>
<polygon fill="#191970" stroke="#191970" points="558.2536,-367.0001 548.2536,-370.5 558.2535,-374.0001 558.2536,-367.0001"/>
</g>
<!-- Node14 -->
<g id="node14" class="node">
<title>Node14</title>
<g id="a_node14"><a xlink:href="../../d5/d2c/macros_2blob_2master_2macros_2g4simulations_2Fun4All__G4__sPHENIX_8C.html#a6eaaa492d7023ec86c562dc63aa1e5a4" target="_top" xlink:title="Fun4All_G4_sPHENIX">
<polygon fill="none" stroke="#000000" points="607,-321.5 607,-341.5 728,-341.5 728,-321.5 607,-321.5"/>
<text text-anchor="middle" x="667.5" y="-328.5" font-family="FreeSans" font-size="10.00" fill="#000000">Fun4All_G4_sPHENIX</text>
</a>
</g>
</g>
<!-- Node3&#45;&gt;Node14 -->
<g id="edge13" class="edge">
<title>Node3&#45;&gt;Node14</title>
<path fill="none" stroke="#191970" d="M557.8989,-357.9156C566.4772,-355.3486 575.5151,-352.7479 584,-350.5 595.7844,-347.3779 608.5866,-344.3065 620.5454,-341.5736"/>
<polygon fill="#191970" stroke="#191970" points="556.6524,-354.6362 548.1005,-360.8904 558.686,-361.3343 556.6524,-354.6362"/>
</g>
<!-- Node15 -->
<g id="node15" class="node">
<title>Node15</title>
<g id="a_node15"><a xlink:href="../../d3/de2/Fun4All__G4__sPHENIX__AnaGenFit_8C.html#a9bf3f2f72ed69a17e2d0c1121d48013c" target="_top" xlink:title="Fun4All_G4_sPHENIX\l_AnaGenFit">
<polygon fill="none" stroke="#000000" points="607,-270.5 607,-302.5 728,-302.5 728,-270.5 607,-270.5"/>
<text text-anchor="start" x="615" y="-289.5" font-family="FreeSans" font-size="10.00" fill="#000000">Fun4All_G4_sPHENIX</text>
<text text-anchor="middle" x="667.5" y="-277.5" font-family="FreeSans" font-size="10.00" fill="#000000">_AnaGenFit</text>
</a>
</g>
</g>
<!-- Node3&#45;&gt;Node15 -->
<g id="edge14" class="edge">
<title>Node3&#45;&gt;Node15</title>
<path fill="none" stroke="#191970" d="M533.7303,-352.734C546.1939,-339.6473 564.6741,-322.3147 584,-311.5 591.1309,-307.5096 598.9687,-304.0903 606.898,-301.1786"/>
<polygon fill="#191970" stroke="#191970" points="531.0119,-350.5185 526.7936,-360.2374 536.152,-355.2704 531.0119,-350.5185"/>
</g>
<!-- Node16 -->
<g id="node16" class="node">
<title>Node16</title>
<g id="a_node16"><a xlink:href="../../da/dd0/Fun4All__G4__sPHENIX__photonjet_8C.html#a6f18519e216acc05399e562ea57ea77c" target="_top" xlink:title="Fun4All_G4_sPHENIX\l_photonjet">
<polygon fill="none" stroke="#000000" points="607,-219.5 607,-251.5 728,-251.5 728,-219.5 607,-219.5"/>
<text text-anchor="start" x="615" y="-238.5" font-family="FreeSans" font-size="10.00" fill="#000000">Fun4All_G4_sPHENIX</text>
<text text-anchor="middle" x="667.5" y="-226.5" font-family="FreeSans" font-size="10.00" fill="#000000">_photonjet</text>
</a>
</g>
</g>
<!-- Node3&#45;&gt;Node16 -->
<g id="edge15" class="edge">
<title>Node3&#45;&gt;Node16</title>
<path fill="none" stroke="#191970" d="M524.6801,-350.8716C534.076,-326.1865 553.5337,-284.1764 584,-260.5 590.8106,-255.2072 598.728,-251.032 606.9216,-247.7391"/>
<polygon fill="#191970" stroke="#191970" points="521.3849,-349.6921 521.2666,-360.2862 527.9657,-352.0781 521.3849,-349.6921"/>
</g>
<!-- Node17 -->
<g id="node17" class="node">
<title>Node17</title>
<g id="a_node17"><a xlink:href="../../da/d85/Fun4All__G4__sPHENIX__photons_8C.html#a02fbbd59878fe1299f58ed187e7214ba" target="_top" xlink:title="Fun4All_G4_sPHENIX\l_photons">
<polygon fill="none" stroke="#000000" points="607,-168.5 607,-200.5 728,-200.5 728,-168.5 607,-168.5"/>
<text text-anchor="start" x="615" y="-187.5" font-family="FreeSans" font-size="10.00" fill="#000000">Fun4All_G4_sPHENIX</text>
<text text-anchor="middle" x="667.5" y="-175.5" font-family="FreeSans" font-size="10.00" fill="#000000">_photons</text>
</a>
</g>
</g>
<!-- Node3&#45;&gt;Node17 -->
<g id="edge16" class="edge">
<title>Node3&#45;&gt;Node17</title>
<path fill="none" stroke="#191970" d="M520.6091,-350.4063C526.0891,-316.4243 541.9709,-247.5944 584,-209.5 590.503,-203.6058 598.3455,-199.0991 606.5866,-195.6538"/>
<polygon fill="#191970" stroke="#191970" points="517.117,-350.0974 519.1266,-360.4999 524.0427,-351.1146 517.117,-350.0974"/>
</g>
<!-- Node18 -->
<g id="node18" class="node">
<title>Node18</title>
<g id="a_node18"><a xlink:href="../../de/d55/Fun4All__G4__sPHENIX__truthphotonjet_8C.html#a48a6f4503eaa1b3793d8ae572aa795b9" target="_top" xlink:title="Fun4All_G4_sPHENIX\l_truthphotonjet">
<polygon fill="none" stroke="#000000" points="607,-117.5 607,-149.5 728,-149.5 728,-117.5 607,-117.5"/>
<text text-anchor="start" x="615" y="-136.5" font-family="FreeSans" font-size="10.00" fill="#000000">Fun4All_G4_sPHENIX</text>
<text text-anchor="middle" x="667.5" y="-124.5" font-family="FreeSans" font-size="10.00" fill="#000000">_truthphotonjet</text>
</a>
</g>
</g>
<!-- Node3&#45;&gt;Node18 -->
<g id="edge17" class="edge">
<title>Node3&#45;&gt;Node18</title>
<path fill="none" stroke="#191970" d="M521.7732,-350.3624C531.0444,-302.9055 556.218,-185.9807 584,-158.5 590.455,-152.115 598.471,-147.3497 606.9617,-143.7955"/>
<polygon fill="#191970" stroke="#191970" points="518.3031,-349.8745 519.8569,-360.3548 525.1778,-351.193 518.3031,-349.8745"/>
</g>
<!-- Node19 -->
<g id="node19" class="node">
<title>Node19</title>
<g id="a_node19"><a xlink:href="../../d4/d65/Fun4All__single__particle_8C.html#a8a492b5dbead494bfdddbebde8a49b0e" target="_top" xlink:title="Fun4All_single_particle">
<polygon fill="none" stroke="#000000" points="601.5,-78.5 601.5,-98.5 733.5,-98.5 733.5,-78.5 601.5,-78.5"/>
<text text-anchor="middle" x="667.5" y="-85.5" font-family="FreeSans" font-size="10.00" fill="#000000">Fun4All_single_particle</text>
</a>
</g>
</g>
<!-- Node3&#45;&gt;Node19 -->
<g id="edge18" class="edge">
<title>Node3&#45;&gt;Node19</title>
<path fill="none" stroke="#191970" d="M520.3374,-350.3423C527.174,-294.8774 548.8945,-141.8368 584,-107.5 588.9953,-102.6141 594.9709,-98.8818 601.3985,-96.0442"/>
<polygon fill="#191970" stroke="#191970" points="516.8534,-349.9998 519.1368,-360.3457 523.8036,-350.834 516.8534,-349.9998"/>
</g>
<!-- Node20 -->
<g id="node20" class="node">
<title>Node20</title>
<g id="a_node20"><a xlink:href="../../d0/d99/Jin__BJet_8C.html#a36169bfee2ed7efda633944d12aebad9" target="_top" xlink:title="Jin_BJet">
<polygon fill="none" stroke="#000000" points="640,-39.5 640,-59.5 695,-59.5 695,-39.5 640,-39.5"/>
<text text-anchor="middle" x="667.5" y="-46.5" font-family="FreeSans" font-size="10.00" fill="#000000">Jin_BJet</text>
</a>
</g>
</g>
<!-- Node3&#45;&gt;Node20 -->
<g id="edge19" class="edge">
<title>Node3&#45;&gt;Node20</title>
<path fill="none" stroke="#191970" d="M519.6409,-350.2505C524.997,-289.2346 543.9758,-108.8688 584,-68.5 598.4451,-53.9305 621.5807,-49.5476 639.8398,-48.6025"/>
<polygon fill="#191970" stroke="#191970" points="516.1301,-350.2312 518.7731,-360.4911 523.1051,-350.8224 516.1301,-350.2312"/>
</g>
<!-- Node21 -->
<g id="node21" class="node">
<title>Node21</title>
<g id="a_node21"><a xlink:href="../../dd/db1/Wrapper_8cxx.html#abf1e42281903daa0752c80dd6c879fac" target="_top" xlink:title="Wrapper">
<polygon fill="none" stroke="#000000" points="637.5,-.5 637.5,-20.5 697.5,-20.5 697.5,-.5 637.5,-.5"/>
<text text-anchor="middle" x="667.5" y="-7.5" font-family="FreeSans" font-size="10.00" fill="#000000">Wrapper</text>
</a>
</g>
</g>
<!-- Node3&#45;&gt;Node21 -->
<g id="edge20" class="edge">
<title>Node3&#45;&gt;Node21</title>
<path fill="none" stroke="#191970" d="M519.0901,-350.2645C523.068,-284.1352 539.0024,-75.9867 584,-29.5 597.649,-15.3993 619.4225,-10.7885 637.3133,-9.63"/>
<polygon fill="#191970" stroke="#191970" points="515.5954,-350.0726 518.5164,-360.2568 522.5839,-350.4739 515.5954,-350.0726"/>
</g>
<!-- Node5 -->
<g id="node5" class="node">
<title>Node5</title>
<g id="a_node5"><a xlink:href="../../d3/d7f/Fun_8C.html#af69a3eef3ff244bb51f5740c6ecb5432" target="_top" xlink:title="Fun">
<polygon fill="none" stroke="#000000" points="787,-696.5 787,-716.5 821,-716.5 821,-696.5 787,-696.5"/>
<text text-anchor="middle" x="804" y="-703.5" font-family="FreeSans" font-size="10.00" fill="#000000">Fun</text>
</a>
</g>
</g>
<!-- Node4&#45;&gt;Node5 -->
<g id="edge4" class="edge">
<title>Node4&#45;&gt;Node5</title>
<path fill="none" stroke="#191970" d="M734.6941,-706.5C754.0852,-706.5 773.59,-706.5 786.9452,-706.5"/>
<polygon fill="#191970" stroke="#191970" points="734.5974,-703.0001 724.5974,-706.5 734.5974,-710.0001 734.5974,-703.0001"/>
</g>
<!-- Node23 -->
<g id="node23" class="node">
<title>Node23</title>
<g id="a_node23"><a xlink:href="../../d1/d8d/macros_2blob_2master_2macros_2g4simulations_2G4__CEmc__Spacal_8C.html#a643b7748ae63dfed5f748e4707bbf1d3" target="_top" xlink:title="EMCal main setup macro.">
<polygon fill="none" stroke="#000000" points="392.5,-1014.5 392.5,-1034.5 437.5,-1034.5 437.5,-1014.5 392.5,-1014.5"/>
<text text-anchor="middle" x="415" y="-1021.5" font-family="FreeSans" font-size="10.00" fill="#000000">CEmc</text>
</a>
</g>
</g>
<!-- Node22&#45;&gt;Node23 -->
<g id="edge22" class="edge">
<title>Node22&#45;&gt;Node23</title>
<path fill="none" stroke="#191970" d="M324.5644,-1041.5301C348.5344,-1037.0163 374.2969,-1032.1649 392.1693,-1028.7993"/>
<polygon fill="#191970" stroke="#191970" points="323.6091,-1038.1484 314.4295,-1043.4386 324.9045,-1045.0275 323.6091,-1038.1484"/>
</g>
<!-- Node24&#45;&gt;Node23 -->
<g id="edge24" class="edge">
<title>Node24&#45;&gt;Node23</title>
<path fill="none" stroke="#191970" d="M345.0988,-1019.961C362.4687,-1021.0889 379.3526,-1022.1852 392.1745,-1023.0178"/>
<polygon fill="#191970" stroke="#191970" points="345.0484,-1016.4504 334.8426,-1019.295 344.5947,-1023.4357 345.0484,-1016.4504"/>
</g>
<!-- Node26&#45;&gt;Node3 -->
<g id="edge27" class="edge">
<title>Node26&#45;&gt;Node3</title>
<path fill="none" stroke="#191970" d="M420.8787,-702.4098C440.1261,-636.6321 500.8341,-429.164 515.0164,-380.6963"/>
<polygon fill="#191970" stroke="#191970" points="417.4208,-701.7644 417.9715,-712.3449 424.1391,-703.7303 417.4208,-701.7644"/>
</g>
<!-- Node37&#45;&gt;Node3 -->
<g id="edge39" class="edge">
<title>Node37&#45;&gt;Node3</title>
<path fill="none" stroke="#191970" d="M459.0049,-370.5C468.6688,-370.5 478.6925,-370.5 487.6754,-370.5"/>
<polygon fill="#191970" stroke="#191970" points="458.7261,-367.0001 448.7261,-370.5 458.726,-374.0001 458.7261,-367.0001"/>
</g>
<!-- Node38&#45;&gt;Node37 -->
<g id="edge41" class="edge">
<title>Node38&#45;&gt;Node37</title>
<path fill="none" stroke="#191970" d="M338.4549,-361.0561C353.449,-362.906 368.4201,-364.7531 381.0939,-366.3168"/>
<polygon fill="#191970" stroke="#191970" points="338.452,-357.5293 328.0987,-359.7784 337.5948,-364.4766 338.452,-357.5293"/>
</g>
<!-- Node39&#45;&gt;Node36 -->
<g id="edge43" class="edge">
<title>Node39&#45;&gt;Node36</title>
<path fill="none" stroke="#191970" d="M299.291,-502.5271C325.7143,-499.0955 360.357,-494.5965 384.8271,-491.4186"/>
<polygon fill="#191970" stroke="#191970" points="298.7119,-499.0729 289.246,-503.8317 299.6135,-506.0146 298.7119,-499.0729"/>
</g>
<!-- Node40&#45;&gt;Node36 -->
<g id="edge45" class="edge">
<title>Node40&#45;&gt;Node36</title>
<path fill="none" stroke="#191970" d="M298.5912,-473.1379C325.0935,-476.4076 360.1227,-480.7294 384.8085,-483.7751"/>
<polygon fill="#191970" stroke="#191970" points="298.8855,-469.6477 288.5321,-471.8968 298.0283,-476.5951 298.8855,-469.6477"/>
</g>
<!-- Node42 -->
<g id="node42" class="node">
<title>Node42</title>
<g id="a_node42"><a xlink:href="../../df/d4b/analysis_2blob_2master_2EICAnalysis_2macros_2leptoquarks__fun4all_2G4Setup__fsPHENIX_8C.html#ac2f64e8dbdc7060f0f9ca1c7a47cddb7" target="_top" xlink:title="G4Setup">
<polygon fill="none" stroke="#000000" points="385,-302.5 385,-322.5 445,-322.5 445,-302.5 385,-302.5"/>
<text text-anchor="middle" x="415" y="-309.5" font-family="FreeSans" font-size="10.00" fill="#000000">G4Setup</text>
</a>
</g>
</g>
<!-- Node41&#45;&gt;Node42 -->
<g id="edge47" class="edge">
<title>Node41&#45;&gt;Node42</title>
<path fill="none" stroke="#191970" d="M311.2021,-312.5C335.5286,-312.5 363.9323,-312.5 384.8715,-312.5"/>
<polygon fill="#191970" stroke="#191970" points="311.0597,-309.0001 301.0597,-312.5 311.0596,-316.0001 311.0597,-309.0001"/>
</g>
<!-- Node43&#45;&gt;Node36 -->
<g id="edge49" class="edge">
<title>Node43&#45;&gt;Node36</title>
<path fill="none" stroke="#191970" d="M289.8769,-434.883C305.5689,-438.2405 325.1542,-443.1398 342,-449.5 362.184,-457.1206 383.955,-468.9721 398.4186,-477.412"/>
<polygon fill="#191970" stroke="#191970" points="290.2151,-431.3799 279.7167,-432.806 288.8131,-438.238 290.2151,-431.3799"/>
</g>
<!-- Node44&#45;&gt;Node3 -->
<g id="edge51" class="edge">
<title>Node44&#45;&gt;Node3</title>
<path fill="none" stroke="#191970" d="M447.0486,-288.9055C448.7677,-290.0537 450.4312,-291.2533 452,-292.5 477.5539,-312.8063 500.4697,-344.2172 511.3386,-360.2796"/>
<polygon fill="#191970" stroke="#191970" points="448.5511,-285.7266 438.169,-283.6142 444.9678,-291.74 448.5511,-285.7266"/>
</g>
<!-- Node46 -->
<g id="node46" class="node">
<title>Node46</title>
<g id="a_node46"><a xlink:href="../../d6/d5c/macros_2blob_2master_2macros_2g4simulations_2G4__FEMC_8C.html#a46bf470cecae66db11fccb5925a48429" target="_top" xlink:title="FEMCSetup">
<polygon fill="none" stroke="#000000" points="378,-221.5 378,-241.5 452,-241.5 452,-221.5 378,-221.5"/>
<text text-anchor="middle" x="415" y="-228.5" font-family="FreeSans" font-size="10.00" fill="#000000">FEMCSetup</text>
</a>
</g>
</g>
<!-- Node45&#45;&gt;Node46 -->
<g id="edge53" class="edge">
<title>Node45&#45;&gt;Node46</title>
<path fill="none" stroke="#191970" d="M352.2241,-230.2771C361.1519,-230.451 369.8154,-230.6198 377.7117,-230.7736"/>
<polygon fill="#191970" stroke="#191970" points="352.1252,-226.7746 342.0589,-230.0791 351.9888,-233.7733 352.1252,-226.7746"/>
</g>
<!-- Node46&#45;&gt;Node3 -->
<g id="edge54" class="edge">
<title>Node46&#45;&gt;Node3</title>
<path fill="none" stroke="#191970" d="M445.052,-247.4471C447.534,-249.3241 449.8942,-251.3455 452,-253.5 484.2769,-286.5223 506.107,-338.4533 514.342,-360.2895"/>
<polygon fill="#191970" stroke="#191970" points="446.5981,-244.2715 436.3354,-241.6393 442.7166,-250.0969 446.5981,-244.2715"/>
</g>
</g>
</svg>
