<?xml version="1.0" encoding="UTF-8" standalone="no"?>
<!DOCTYPE svg PUBLIC "-//W3C//DTD SVG 1.1//EN"
 "http://www.w3.org/Graphics/SVG/1.1/DTD/svg11.dtd">
<!-- Generated by graphviz version 2.40.1 (20161225.0304)
 -->
<!-- Title: PHG4DetectorSubsystem::get_double_param Pages: 1 -->
<svg width="699pt" height="725pt"
 viewBox="0.00 0.00 699.00 725.00" xmlns="http://www.w3.org/2000/svg" xmlns:xlink="http://www.w3.org/1999/xlink">
<g id="graph0" class="graph" transform="scale(1 1) rotate(0) translate(4 721)">
<title>PHG4DetectorSubsystem::get_double_param</title>
<!-- Node1 -->
<g id="node1" class="node">
<title>Node1</title>
<polygon fill="#bfbfbf" stroke="#000000" points="0,-312.5 0,-344.5 144,-344.5 144,-312.5 0,-312.5"/>
<text text-anchor="start" x="8" y="-331.5" font-family="FreeSans" font-size="10.00" fill="#000000">PHG4DetectorSubsystem</text>
<text text-anchor="middle" x="72" y="-319.5" font-family="FreeSans" font-size="10.00" fill="#000000">::get_double_param</text>
</g>
<!-- Node2 -->
<g id="node2" class="node">
<title>Node2</title>
<g id="a_node2"><a xlink:href="../../d7/dc0/G4__HcalIn__EIC_8C.html#a3d57117b35676ff1a0c5eb9efed9f101" target="_top" xlink:title="HCalInner">
<polygon fill="none" stroke="#000000" points="217.5,-380.5 217.5,-400.5 284.5,-400.5 284.5,-380.5 217.5,-380.5"/>
<text text-anchor="middle" x="251" y="-387.5" font-family="FreeSans" font-size="10.00" fill="#000000">HCalInner</text>
</a>
</g>
</g>
<!-- Node1&#45;&gt;Node2 -->
<g id="edge1" class="edge">
<title>Node1&#45;&gt;Node2</title>
<path fill="none" stroke="#191970" d="M120.0825,-348.3421C138.6582,-355.7055 160.1784,-363.8712 180,-370.5 192.0235,-374.521 205.3657,-378.423 217.2086,-381.6967"/>
<polygon fill="#191970" stroke="#191970" points="121.2464,-345.0382 110.6616,-344.5771 118.6485,-351.5383 121.2464,-345.0382"/>
</g>
<!-- Node22 -->
<g id="node22" class="node">
<title>Node22</title>
<g id="a_node22"><a xlink:href="../../de/d3d/macros_2blob_2master_2macros_2g4simulations_2G4__HcalOut__ref_8C.html#a577e7fca33252e2679529c03012ed0db" target="_top" xlink:title="HCalOuter">
<polygon fill="none" stroke="#000000" points="216.5,-341.5 216.5,-361.5 285.5,-361.5 285.5,-341.5 216.5,-341.5"/>
<text text-anchor="middle" x="251" y="-348.5" font-family="FreeSans" font-size="10.00" fill="#000000">HCalOuter</text>
</a>
</g>
</g>
<!-- Node1&#45;&gt;Node22 -->
<g id="edge21" class="edge">
<title>Node1&#45;&gt;Node22</title>
<path fill="none" stroke="#191970" d="M154.0215,-339.0391C175.8957,-341.8497 198.3699,-344.7375 216.1685,-347.0244"/>
<polygon fill="#191970" stroke="#191970" points="154.3969,-335.5586 144.0324,-337.7556 153.5048,-342.5015 154.3969,-335.5586"/>
</g>
<!-- Node23 -->
<g id="node23" class="node">
<title>Node23</title>
<g id="a_node23"><a xlink:href="../../df/d14/classPHG4BlockSubsystem.html#ac0d173351f388609274a5105753746c3" target="_top" xlink:title="InitRunSubsystem.">
<polygon fill="none" stroke="#000000" points="187.5,-290.5 187.5,-322.5 314.5,-322.5 314.5,-290.5 187.5,-290.5"/>
<text text-anchor="start" x="195.5" y="-309.5" font-family="FreeSans" font-size="10.00" fill="#000000">PHG4BlockSubsystem</text>
<text text-anchor="middle" x="251" y="-297.5" font-family="FreeSans" font-size="10.00" fill="#000000">::InitRunSubsystem</text>
</a>
</g>
</g>
<!-- Node1&#45;&gt;Node23 -->
<g id="edge23" class="edge">
<title>Node1&#45;&gt;Node23</title>
<path fill="none" stroke="#191970" d="M154.2248,-318.3942C165.3916,-317.0217 176.7105,-315.6306 187.4799,-314.3069"/>
<polygon fill="#191970" stroke="#191970" points="153.5307,-314.953 144.0324,-319.6469 154.3847,-321.9008 153.5307,-314.953"/>
</g>
<!-- Node24 -->
<g id="node24" class="node">
<title>Node24</title>
<g id="a_node24"><a xlink:href="../../db/dc5/classPHG4CylinderSubsystem.html#a034cd0c643ec03070dcaf5f3bae175e0" target="_top" xlink:title="init runwise stuff">
<polygon fill="none" stroke="#000000" points="180,-239.5 180,-271.5 322,-271.5 322,-239.5 180,-239.5"/>
<text text-anchor="start" x="188" y="-258.5" font-family="FreeSans" font-size="10.00" fill="#000000">PHG4CylinderSubsystem</text>
<text text-anchor="middle" x="251" y="-246.5" font-family="FreeSans" font-size="10.00" fill="#000000">::InitRunSubsystem</text>
</a>
</g>
</g>
<!-- Node1&#45;&gt;Node24 -->
<g id="edge24" class="edge">
<title>Node1&#45;&gt;Node24</title>
<path fill="none" stroke="#191970" d="M115.5,-308.2188C135.0627,-299.3442 158.5347,-289.0335 180,-280.5 187.6506,-277.4585 195.8355,-274.4 203.8285,-271.517"/>
<polygon fill="#191970" stroke="#191970" points="113.881,-305.1103 106.2364,-312.446 116.787,-311.4786 113.881,-305.1103"/>
</g>
<!-- Node3 -->
<g id="node3" class="node">
<title>Node3</title>
<g id="a_node3"><a xlink:href="../../d2/dfe/macros_2blob_2master_2macros_2g4simulations_2G4Setup__EICDetector_8C.html#a5d4cb2d19366a2ae6d2aefe8d2e4a870" target="_top" xlink:title="G4Setup">
<polygon fill="none" stroke="#000000" points="358,-360.5 358,-380.5 418,-380.5 418,-360.5 358,-360.5"/>
<text text-anchor="middle" x="388" y="-367.5" font-family="FreeSans" font-size="10.00" fill="#000000">G4Setup</text>
</a>
</g>
</g>
<!-- Node2&#45;&gt;Node3 -->
<g id="edge2" class="edge">
<title>Node2&#45;&gt;Node3</title>
<path fill="none" stroke="#191970" d="M294.5822,-384.1376C315.1158,-381.14 339.108,-377.6375 357.6364,-374.9326"/>
<polygon fill="#191970" stroke="#191970" points="293.9035,-380.6995 284.514,-385.6074 294.9147,-387.6261 293.9035,-380.6995"/>
</g>
<!-- Node4 -->
<g id="node4" class="node">
<title>Node4</title>
<g id="a_node4"><a xlink:href="../../d3/d7f/Fun_8C.html#af0d3c8a78765149fef9b2beeecfc6279" target="_top" xlink:title="ConfigureDetectors">
<polygon fill="none" stroke="#000000" points="480.5,-696.5 480.5,-716.5 594.5,-716.5 594.5,-696.5 480.5,-696.5"/>
<text text-anchor="middle" x="537.5" y="-703.5" font-family="FreeSans" font-size="10.00" fill="#000000">ConfigureDetectors</text>
</a>
</g>
</g>
<!-- Node3&#45;&gt;Node4 -->
<g id="edge3" class="edge">
<title>Node3&#45;&gt;Node4</title>
<path fill="none" stroke="#191970" d="M389.4577,-390.8418C394.3809,-453.7895 412.4621,-643.7315 454,-686.5 461.166,-693.8783 470.5352,-698.7322 480.3992,-701.8865"/>
<polygon fill="#191970" stroke="#191970" points="392.9298,-390.339 388.6889,-380.63 385.9496,-390.8646 392.9298,-390.339"/>
</g>
<!-- Node6 -->
<g id="node6" class="node">
<title>Node6</title>
<g id="a_node6"><a xlink:href="../../da/d02/Fun4All__G4__EICDetector_8C.html#afbe82cefa1d1fd031d9a8586b7bb68c6" target="_top" xlink:title="Fun4All_G4_EICDetector">
<polygon fill="none" stroke="#000000" points="468,-657.5 468,-677.5 607,-677.5 607,-657.5 468,-657.5"/>
<text text-anchor="middle" x="537.5" y="-664.5" font-family="FreeSans" font-size="10.00" fill="#000000">Fun4All_G4_EICDetector</text>
</a>
</g>
</g>
<!-- Node3&#45;&gt;Node6 -->
<g id="edge5" class="edge">
<title>Node3&#45;&gt;Node6</title>
<path fill="none" stroke="#191970" d="M390.0739,-390.5594C396.4048,-447.9046 417.317,-610.7735 454,-647.5 458.003,-651.5078 462.6575,-654.7664 467.6817,-657.41"/>
<polygon fill="#191970" stroke="#191970" points="393.5486,-390.1356 389.0018,-380.566 386.5886,-390.8823 393.5486,-390.1356"/>
</g>
<!-- Node7 -->
<g id="node7" class="node">
<title>Node7</title>
<g id="a_node7"><a xlink:href="../../dd/d2a/Fun4All__G4__EICDetector__LQ_8C.html#aaa01242fd6e77ca43a9d49a6d46008e4" target="_top" xlink:title="Fun4All_G4_EICDetector_LQ">
<polygon fill="none" stroke="#000000" points="459.5,-618.5 459.5,-638.5 615.5,-638.5 615.5,-618.5 459.5,-618.5"/>
<text text-anchor="middle" x="537.5" y="-625.5" font-family="FreeSans" font-size="10.00" fill="#000000">Fun4All_G4_EICDetector_LQ</text>
</a>
</g>
</g>
<!-- Node3&#45;&gt;Node7 -->
<g id="edge6" class="edge">
<title>Node3&#45;&gt;Node7</title>
<path fill="none" stroke="#191970" d="M390.8918,-390.4112C398.7691,-441.9372 422.1671,-577.7751 454,-608.5 458.183,-612.5374 463.0294,-615.8088 468.2399,-618.4539"/>
<polygon fill="#191970" stroke="#191970" points="394.3511,-389.8783 389.4113,-380.5056 387.428,-390.9131 394.3511,-389.8783"/>
</g>
<!-- Node8 -->
<g id="node8" class="node">
<title>Node8</title>
<g id="a_node8"><a xlink:href="../../d4/df5/Fun4All__G4__EICDetector__LQ__reference_8C.html#a2feefc472f17f90b3cbe74897d049f75" target="_top" xlink:title="Fun4All_G4_EICDetector\l_LQ_reference">
<polygon fill="none" stroke="#000000" points="468,-567.5 468,-599.5 607,-599.5 607,-567.5 468,-567.5"/>
<text text-anchor="start" x="476" y="-586.5" font-family="FreeSans" font-size="10.00" fill="#000000">Fun4All_G4_EICDetector</text>
<text text-anchor="middle" x="537.5" y="-574.5" font-family="FreeSans" font-size="10.00" fill="#000000">_LQ_reference</text>
</a>
</g>
</g>
<!-- Node3&#45;&gt;Node8 -->
<g id="edge7" class="edge">
<title>Node3&#45;&gt;Node8</title>
<path fill="none" stroke="#191970" d="M389.3789,-391.0457C393.0539,-429.2763 406.3615,-511.612 454,-557.5 458.046,-561.3973 462.6667,-564.7111 467.6114,-567.5288"/>
<polygon fill="#191970" stroke="#191970" points="392.8344,-390.3629 388.5203,-380.6861 385.8583,-390.9411 392.8344,-390.3629"/>
</g>
<!-- Node9 -->
<g id="node9" class="node">
<title>Node9</title>
<g id="a_node9"><a xlink:href="../../d3/d51/Fun4All__G4__EICDetector__RICH_8C.html#a5739502b0a7a1ba782c01069f77e933f" target="_top" xlink:title="Fun4All_G4_EICDetector_RICH">
<polygon fill="none" stroke="#000000" points="454,-528.5 454,-548.5 621,-548.5 621,-528.5 454,-528.5"/>
<text text-anchor="middle" x="537.5" y="-535.5" font-family="FreeSans" font-size="10.00" fill="#000000">Fun4All_G4_EICDetector_RICH</text>
</a>
</g>
</g>
<!-- Node3&#45;&gt;Node9 -->
<g id="edge8" class="edge">
<title>Node3&#45;&gt;Node9</title>
<path fill="none" stroke="#191970" d="M391.159,-390.5756C397.2957,-422.6481 413.9289,-485.2114 454,-518.5 458.8158,-522.5007 464.2989,-525.7269 470.1008,-528.3252"/>
<polygon fill="#191970" stroke="#191970" points="394.584,-389.8434 389.4049,-380.6008 387.6898,-391.0559 394.584,-389.8434"/>
</g>
<!-- Node10 -->
<g id="node10" class="node">
<title>Node10</title>
<g id="a_node10"><a xlink:href="../../d9/d0e/Fun4All__G4__EICIR_8C.html#ac3543d1dd4a0abed3987d40939ee3f87" target="_top" xlink:title="Fun4All_G4_EICIR">
<polygon fill="none" stroke="#000000" points="485.5,-489.5 485.5,-509.5 589.5,-509.5 589.5,-489.5 485.5,-489.5"/>
<text text-anchor="middle" x="537.5" y="-496.5" font-family="FreeSans" font-size="10.00" fill="#000000">Fun4All_G4_EICIR</text>
</a>
</g>
</g>
<!-- Node3&#45;&gt;Node10 -->
<g id="edge9" class="edge">
<title>Node3&#45;&gt;Node10</title>
<path fill="none" stroke="#191970" d="M394.5275,-390.2192C403.7613,-414.9659 423.047,-456.8978 454,-479.5 463.1494,-486.181 474.2255,-490.6578 485.2781,-493.6504"/>
<polygon fill="#191970" stroke="#191970" points="397.8192,-389.0294 391.1809,-380.7721 391.221,-391.3668 397.8192,-389.0294"/>
</g>
<!-- Node11 -->
<g id="node11" class="node">
<title>Node11</title>
<g id="a_node11"><a xlink:href="../../d7/d9e/Fun4All__G4__fsPHENIX_8C.html#af48911d394d2412e817583700f2bbee2" target="_top" xlink:title="Fun4All_G4_fsPHENIX">
<polygon fill="none" stroke="#000000" points="475.5,-450.5 475.5,-470.5 599.5,-470.5 599.5,-450.5 475.5,-450.5"/>
<text text-anchor="middle" x="537.5" y="-457.5" font-family="FreeSans" font-size="10.00" fill="#000000">Fun4All_G4_fsPHENIX</text>
</a>
</g>
</g>
<!-- Node3&#45;&gt;Node11 -->
<g id="edge10" class="edge">
<title>Node3&#45;&gt;Node11</title>
<path fill="none" stroke="#191970" d="M400.7208,-389.164C412.6361,-405.1974 431.8891,-427.6945 454,-440.5 461.0947,-444.6089 468.995,-447.8754 477.0274,-450.4718"/>
<polygon fill="#191970" stroke="#191970" points="403.253,-386.6882 394.5871,-380.5929 397.5605,-390.7619 403.253,-386.6882"/>
</g>
<!-- Node12 -->
<g id="node12" class="node">
<title>Node12</title>
<g id="a_node12"><a xlink:href="../../da/d2f/Fun4All__G4__fsPHENIX__FastSim_8C.html#a66fb850cae5fcaadda23b74a25ce4c9c" target="_top" xlink:title="Fun4All_G4_fsPHENIX\l_FastSim">
<polygon fill="none" stroke="#000000" points="475.5,-399.5 475.5,-431.5 599.5,-431.5 599.5,-399.5 475.5,-399.5"/>
<text text-anchor="start" x="483.5" y="-418.5" font-family="FreeSans" font-size="10.00" fill="#000000">Fun4All_G4_fsPHENIX</text>
<text text-anchor="middle" x="537.5" y="-406.5" font-family="FreeSans" font-size="10.00" fill="#000000">_FastSim</text>
</a>
</g>
</g>
<!-- Node3&#45;&gt;Node12 -->
<g id="edge11" class="edge">
<title>Node3&#45;&gt;Node12</title>
<path fill="none" stroke="#191970" d="M428.0215,-382.5466C445.302,-387.7481 465.7664,-393.9079 484.2985,-399.4862"/>
<polygon fill="#191970" stroke="#191970" points="428.838,-379.1373 418.2536,-379.6064 426.8203,-385.8402 428.838,-379.1373"/>
</g>
<!-- Node13 -->
<g id="node13" class="node">
<title>Node13</title>
<g id="a_node13"><a xlink:href="../../d0/da6/Fun4All__G4__fsPHENIX__pi0_8C.html#a023d91d47b678e5d7f1751834aa517c6" target="_top" xlink:title="Fun4All_G4_fsPHENIX_pi0">
<polygon fill="none" stroke="#000000" points="465,-360.5 465,-380.5 610,-380.5 610,-360.5 465,-360.5"/>
<text text-anchor="middle" x="537.5" y="-367.5" font-family="FreeSans" font-size="10.00" fill="#000000">Fun4All_G4_fsPHENIX_pi0</text>
</a>
</g>
</g>
<!-- Node3&#45;&gt;Node13 -->
<g id="edge12" class="edge">
<title>Node3&#45;&gt;Node13</title>
<path fill="none" stroke="#191970" d="M428.2574,-370.5C439.6119,-370.5 452.3264,-370.5 464.9568,-370.5"/>
<polygon fill="#191970" stroke="#191970" points="428.2536,-367.0001 418.2536,-370.5 428.2535,-374.0001 428.2536,-367.0001"/>
</g>
<!-- Node14 -->
<g id="node14" class="node">
<title>Node14</title>
<g id="a_node14"><a xlink:href="../../d5/d2c/macros_2blob_2master_2macros_2g4simulations_2Fun4All__G4__sPHENIX_8C.html#a6eaaa492d7023ec86c562dc63aa1e5a4" target="_top" xlink:title="Fun4All_G4_sPHENIX">
<polygon fill="none" stroke="#000000" points="477,-321.5 477,-341.5 598,-341.5 598,-321.5 477,-321.5"/>
<text text-anchor="middle" x="537.5" y="-328.5" font-family="FreeSans" font-size="10.00" fill="#000000">Fun4All_G4_sPHENIX</text>
</a>
</g>
</g>
<!-- Node3&#45;&gt;Node14 -->
<g id="edge13" class="edge">
<title>Node3&#45;&gt;Node14</title>
<path fill="none" stroke="#191970" d="M427.8989,-357.9156C436.4772,-355.3486 445.5151,-352.7479 454,-350.5 465.7844,-347.3779 478.5866,-344.3065 490.5454,-341.5736"/>
<polygon fill="#191970" stroke="#191970" points="426.6524,-354.6362 418.1005,-360.8904 428.686,-361.3343 426.6524,-354.6362"/>
</g>
<!-- Node15 -->
<g id="node15" class="node">
<title>Node15</title>
<g id="a_node15"><a xlink:href="../../d3/de2/Fun4All__G4__sPHENIX__AnaGenFit_8C.html#a9bf3f2f72ed69a17e2d0c1121d48013c" target="_top" xlink:title="Fun4All_G4_sPHENIX\l_AnaGenFit">
<polygon fill="none" stroke="#000000" points="477,-270.5 477,-302.5 598,-302.5 598,-270.5 477,-270.5"/>
<text text-anchor="start" x="485" y="-289.5" font-family="FreeSans" font-size="10.00" fill="#000000">Fun4All_G4_sPHENIX</text>
<text text-anchor="middle" x="537.5" y="-277.5" font-family="FreeSans" font-size="10.00" fill="#000000">_AnaGenFit</text>
</a>
</g>
</g>
<!-- Node3&#45;&gt;Node15 -->
<g id="edge14" class="edge">
<title>Node3&#45;&gt;Node15</title>
<path fill="none" stroke="#191970" d="M403.7303,-352.734C416.1939,-339.6473 434.6741,-322.3147 454,-311.5 461.1309,-307.5096 468.9687,-304.0903 476.898,-301.1786"/>
<polygon fill="#191970" stroke="#191970" points="401.0119,-350.5185 396.7936,-360.2374 406.152,-355.2704 401.0119,-350.5185"/>
</g>
<!-- Node16 -->
<g id="node16" class="node">
<title>Node16</title>
<g id="a_node16"><a xlink:href="../../da/dd0/Fun4All__G4__sPHENIX__photonjet_8C.html#a6f18519e216acc05399e562ea57ea77c" target="_top" xlink:title="Fun4All_G4_sPHENIX\l_photonjet">
<polygon fill="none" stroke="#000000" points="477,-219.5 477,-251.5 598,-251.5 598,-219.5 477,-219.5"/>
<text text-anchor="start" x="485" y="-238.5" font-family="FreeSans" font-size="10.00" fill="#000000">Fun4All_G4_sPHENIX</text>
<text text-anchor="middle" x="537.5" y="-226.5" font-family="FreeSans" font-size="10.00" fill="#000000">_photonjet</text>
</a>
</g>
</g>
<!-- Node3&#45;&gt;Node16 -->
<g id="edge15" class="edge">
<title>Node3&#45;&gt;Node16</title>
<path fill="none" stroke="#191970" d="M394.6801,-350.8716C404.076,-326.1865 423.5337,-284.1764 454,-260.5 460.8106,-255.2072 468.728,-251.032 476.9216,-247.7391"/>
<polygon fill="#191970" stroke="#191970" points="391.3849,-349.6921 391.2666,-360.2862 397.9657,-352.0781 391.3849,-349.6921"/>
</g>
<!-- Node17 -->
<g id="node17" class="node">
<title>Node17</title>
<g id="a_node17"><a xlink:href="../../da/d85/Fun4All__G4__sPHENIX__photons_8C.html#a02fbbd59878fe1299f58ed187e7214ba" target="_top" xlink:title="Fun4All_G4_sPHENIX\l_photons">
<polygon fill="none" stroke="#000000" points="477,-168.5 477,-200.5 598,-200.5 598,-168.5 477,-168.5"/>
<text text-anchor="start" x="485" y="-187.5" font-family="FreeSans" font-size="10.00" fill="#000000">Fun4All_G4_sPHENIX</text>
<text text-anchor="middle" x="537.5" y="-175.5" font-family="FreeSans" font-size="10.00" fill="#000000">_photons</text>
</a>
</g>
</g>
<!-- Node3&#45;&gt;Node17 -->
<g id="edge16" class="edge">
<title>Node3&#45;&gt;Node17</title>
<path fill="none" stroke="#191970" d="M390.6091,-350.4063C396.0891,-316.4243 411.9709,-247.5944 454,-209.5 460.503,-203.6058 468.3455,-199.0991 476.5866,-195.6538"/>
<polygon fill="#191970" stroke="#191970" points="387.117,-350.0974 389.1266,-360.4999 394.0427,-351.1146 387.117,-350.0974"/>
</g>
<!-- Node18 -->
<g id="node18" class="node">
<title>Node18</title>
<g id="a_node18"><a xlink:href="../../de/d55/Fun4All__G4__sPHENIX__truthphotonjet_8C.html#a48a6f4503eaa1b3793d8ae572aa795b9" target="_top" xlink:title="Fun4All_G4_sPHENIX\l_truthphotonjet">
<polygon fill="none" stroke="#000000" points="477,-117.5 477,-149.5 598,-149.5 598,-117.5 477,-117.5"/>
<text text-anchor="start" x="485" y="-136.5" font-family="FreeSans" font-size="10.00" fill="#000000">Fun4All_G4_sPHENIX</text>
<text text-anchor="middle" x="537.5" y="-124.5" font-family="FreeSans" font-size="10.00" fill="#000000">_truthphotonjet</text>
</a>
</g>
</g>
<!-- Node3&#45;&gt;Node18 -->
<g id="edge17" class="edge">
<title>Node3&#45;&gt;Node18</title>
<path fill="none" stroke="#191970" d="M391.7732,-350.3624C401.0444,-302.9055 426.218,-185.9807 454,-158.5 460.455,-152.115 468.471,-147.3497 476.9617,-143.7955"/>
<polygon fill="#191970" stroke="#191970" points="388.3031,-349.8745 389.8569,-360.3548 395.1778,-351.193 388.3031,-349.8745"/>
</g>
<!-- Node19 -->
<g id="node19" class="node">
<title>Node19</title>
<g id="a_node19"><a xlink:href="../../d4/d65/Fun4All__single__particle_8C.html#a8a492b5dbead494bfdddbebde8a49b0e" target="_top" xlink:title="Fun4All_single_particle">
<polygon fill="none" stroke="#000000" points="471.5,-78.5 471.5,-98.5 603.5,-98.5 603.5,-78.5 471.5,-78.5"/>
<text text-anchor="middle" x="537.5" y="-85.5" font-family="FreeSans" font-size="10.00" fill="#000000">Fun4All_single_particle</text>
</a>
</g>
</g>
<!-- Node3&#45;&gt;Node19 -->
<g id="edge18" class="edge">
<title>Node3&#45;&gt;Node19</title>
<path fill="none" stroke="#191970" d="M390.3374,-350.3423C397.174,-294.8774 418.8945,-141.8368 454,-107.5 458.9953,-102.6141 464.9709,-98.8818 471.3985,-96.0442"/>
<polygon fill="#191970" stroke="#191970" points="386.8534,-349.9998 389.1368,-360.3457 393.8036,-350.834 386.8534,-349.9998"/>
</g>
<!-- Node20 -->
<g id="node20" class="node">
<title>Node20</title>
<g id="a_node20"><a xlink:href="../../d0/d99/Jin__BJet_8C.html#a36169bfee2ed7efda633944d12aebad9" target="_top" xlink:title="Jin_BJet">
<polygon fill="none" stroke="#000000" points="510,-39.5 510,-59.5 565,-59.5 565,-39.5 510,-39.5"/>
<text text-anchor="middle" x="537.5" y="-46.5" font-family="FreeSans" font-size="10.00" fill="#000000">Jin_BJet</text>
</a>
</g>
</g>
<!-- Node3&#45;&gt;Node20 -->
<g id="edge19" class="edge">
<title>Node3&#45;&gt;Node20</title>
<path fill="none" stroke="#191970" d="M389.6409,-350.2505C394.997,-289.2346 413.9758,-108.8688 454,-68.5 468.4451,-53.9305 491.5807,-49.5476 509.8398,-48.6025"/>
<polygon fill="#191970" stroke="#191970" points="386.1301,-350.2312 388.7731,-360.4911 393.1051,-350.8224 386.1301,-350.2312"/>
</g>
<!-- Node21 -->
<g id="node21" class="node">
<title>Node21</title>
<g id="a_node21"><a xlink:href="../../dd/db1/Wrapper_8cxx.html#abf1e42281903daa0752c80dd6c879fac" target="_top" xlink:title="Wrapper">
<polygon fill="none" stroke="#000000" points="507.5,-.5 507.5,-20.5 567.5,-20.5 567.5,-.5 507.5,-.5"/>
<text text-anchor="middle" x="537.5" y="-7.5" font-family="FreeSans" font-size="10.00" fill="#000000">Wrapper</text>
</a>
</g>
</g>
<!-- Node3&#45;&gt;Node21 -->
<g id="edge20" class="edge">
<title>Node3&#45;&gt;Node21</title>
<path fill="none" stroke="#191970" d="M389.0901,-350.2645C393.068,-284.1352 409.0024,-75.9867 454,-29.5 467.649,-15.3993 489.4225,-10.7885 507.3133,-9.63"/>
<polygon fill="#191970" stroke="#191970" points="385.5954,-350.0726 388.5164,-360.2568 392.5839,-350.4739 385.5954,-350.0726"/>
</g>
<!-- Node5 -->
<g id="node5" class="node">
<title>Node5</title>
<g id="a_node5"><a xlink:href="../../d3/d7f/Fun_8C.html#af69a3eef3ff244bb51f5740c6ecb5432" target="_top" xlink:title="Fun">
<polygon fill="none" stroke="#000000" points="657,-696.5 657,-716.5 691,-716.5 691,-696.5 657,-696.5"/>
<text text-anchor="middle" x="674" y="-703.5" font-family="FreeSans" font-size="10.00" fill="#000000">Fun</text>
</a>
</g>
</g>
<!-- Node4&#45;&gt;Node5 -->
<g id="edge4" class="edge">
<title>Node4&#45;&gt;Node5</title>
<path fill="none" stroke="#191970" d="M604.6941,-706.5C624.0852,-706.5 643.59,-706.5 656.9452,-706.5"/>
<polygon fill="#191970" stroke="#191970" points="604.5974,-703.0001 594.5974,-706.5 604.5974,-710.0001 604.5974,-703.0001"/>
</g>
<!-- Node22&#45;&gt;Node3 -->
<g id="edge22" class="edge">
<title>Node22&#45;&gt;Node3</title>
<path fill="none" stroke="#191970" d="M295.5519,-357.6787C315.8683,-360.4963 339.4001,-363.7599 357.6378,-366.2892"/>
<polygon fill="#191970" stroke="#191970" points="295.9569,-354.2015 285.5709,-356.2945 294.9953,-361.1351 295.9569,-354.2015"/>
</g>
</g>
</svg>
