<?xml version="1.0" encoding="UTF-8" standalone="no"?>
<!DOCTYPE svg PUBLIC "-//W3C//DTD SVG 1.1//EN"
 "http://www.w3.org/Graphics/SVG/1.1/DTD/svg11.dtd">
<!-- Generated by graphviz version 2.40.1 (20161225.0304)
 -->
<!-- Title: PHG4DetectorSubsystem::SetActive Pages: 1 -->
<svg width="814pt" height="1179pt"
 viewBox="0.00 0.00 814.00 1179.03" xmlns="http://www.w3.org/2000/svg" xmlns:xlink="http://www.w3.org/1999/xlink">
<g id="graph0" class="graph" transform="scale(1 1) rotate(0) translate(4 1175.0307)">
<title>PHG4DetectorSubsystem::SetActive</title>
<!-- Node1 -->
<g id="node1" class="node">
<title>Node1</title>
<polygon fill="#bfbfbf" stroke="#000000" points="0,-637.5 0,-669.5 144,-669.5 144,-637.5 0,-637.5"/>
<text text-anchor="start" x="8" y="-656.5" font-family="FreeSans" font-size="10.00" fill="#000000">PHG4DetectorSubsystem</text>
<text text-anchor="middle" x="72" y="-644.5" font-family="FreeSans" font-size="10.00" fill="#000000">::SetActive</text>
</g>
<!-- Node2 -->
<g id="node2" class="node">
<title>Node2</title>
<g id="a_node2"><a xlink:href="../../d8/d4c/G4__CEmc__EIC_8C.html#a643b7748ae63dfed5f748e4707bbf1d3" target="_top" xlink:title="CEmc">
<polygon fill="none" stroke="#000000" points="377.5,-1139.5 377.5,-1159.5 422.5,-1159.5 422.5,-1139.5 377.5,-1139.5"/>
<text text-anchor="middle" x="400" y="-1146.5" font-family="FreeSans" font-size="10.00" fill="#000000">CEmc</text>
</a>
</g>
</g>
<!-- Node1&#45;&gt;Node2 -->
<g id="edge1" class="edge">
<title>Node1&#45;&gt;Node2</title>
<path fill="none" stroke="#191970" d="M73.7446,-679.8532C80.4596,-772.4023 107.9572,-1080.2215 180,-1140.5 236.7297,-1187.966 333.3912,-1168.8186 377.2078,-1156.6402"/>
<polygon fill="#191970" stroke="#191970" points="77.2211,-679.3944 73.0271,-669.665 70.2383,-679.8862 77.2211,-679.3944"/>
</g>
<!-- Node22 -->
<g id="node22" class="node">
<title>Node22</title>
<g id="a_node22"><a xlink:href="../../d1/d8d/macros_2blob_2master_2macros_2g4simulations_2G4__CEmc__Spacal_8C.html#a5a524f976392ac304e84c872e8d435d1" target="_top" xlink:title="EMCal setup macro &#45; 1D azimuthal projective SPACAL.">
<polygon fill="none" stroke="#000000" points="180,-1110.5 180,-1130.5 327,-1130.5 327,-1110.5 180,-1110.5"/>
<text text-anchor="middle" x="253.5" y="-1117.5" font-family="FreeSans" font-size="10.00" fill="#000000">CEmc_1DProjectiveSpacal</text>
</a>
</g>
</g>
<!-- Node1&#45;&gt;Node22 -->
<g id="edge21" class="edge">
<title>Node1&#45;&gt;Node22</title>
<path fill="none" stroke="#191970" d="M74.8075,-679.801C84.5654,-766.3479 119.7379,-1040.2409 180,-1101.5 183.5123,-1105.0704 187.6013,-1107.9994 192.0185,-1110.3989"/>
<polygon fill="#191970" stroke="#191970" points="78.2746,-679.3096 73.695,-669.7557 71.3172,-680.0802 78.2746,-679.3096"/>
</g>
<!-- Node24 -->
<g id="node24" class="node">
<title>Node24</title>
<g id="a_node24"><a xlink:href="../../d1/d8d/macros_2blob_2master_2macros_2g4simulations_2G4__CEmc__Spacal_8C.html#a034d8a445c397fdcb3c0be0b80d91cfb" target="_top" xlink:title="2D full projective SPACAL">
<polygon fill="none" stroke="#000000" points="180,-1071.5 180,-1091.5 327,-1091.5 327,-1071.5 180,-1071.5"/>
<text text-anchor="middle" x="253.5" y="-1078.5" font-family="FreeSans" font-size="10.00" fill="#000000">CEmc_2DProjectiveSpacal</text>
</a>
</g>
</g>
<!-- Node1&#45;&gt;Node24 -->
<g id="edge23" class="edge">
<title>Node1&#45;&gt;Node24</title>
<path fill="none" stroke="#191970" d="M75.4338,-679.6419C86.6282,-760.9683 124.5662,-1007.3537 180,-1062.5 183.5506,-1066.0322 187.6667,-1068.9345 192.102,-1071.3159"/>
<polygon fill="#191970" stroke="#191970" points="78.9002,-679.1573 74.0886,-669.7181 71.9637,-680.0977 78.9002,-679.1573"/>
</g>
<!-- Node25 -->
<g id="node25" class="node">
<title>Node25</title>
<g id="a_node25"><a xlink:href="../../db/d89/ConstructGeometry_8C.html#a21c369835643f1016f506a3da3b8d446" target="_top" xlink:title="ConstructGeometry">
<polygon fill="none" stroke="#000000" points="196,-1032.5 196,-1052.5 311,-1052.5 311,-1032.5 196,-1032.5"/>
<text text-anchor="middle" x="253.5" y="-1039.5" font-family="FreeSans" font-size="10.00" fill="#000000">ConstructGeometry</text>
</a>
</g>
</g>
<!-- Node1&#45;&gt;Node25 -->
<g id="edge25" class="edge">
<title>Node1&#45;&gt;Node25</title>
<path fill="none" stroke="#191970" d="M76.5302,-679.526C90.0218,-754.2954 131.9957,-967.5645 180,-1017.5 186.2584,-1024.0102 194.2754,-1028.8251 202.7019,-1032.3862"/>
<polygon fill="#191970" stroke="#191970" points="79.9499,-678.7657 74.7489,-669.5353 73.0586,-679.9944 79.9499,-678.7657"/>
</g>
<!-- Node26 -->
<g id="node26" class="node">
<title>Node26</title>
<g id="a_node26"><a xlink:href="../../d3/dc0/macros_2blob_2master_2macros_2g4simulations_2G4__DIRC_8C.html#acbdf429e4e41a2057e053691cc0b4128" target="_top" xlink:title="DIRCSetup">
<polygon fill="none" stroke="#000000" points="365,-760.5 365,-780.5 435,-780.5 435,-760.5 365,-760.5"/>
<text text-anchor="middle" x="400" y="-767.5" font-family="FreeSans" font-size="10.00" fill="#000000">DIRCSetup</text>
</a>
</g>
</g>
<!-- Node1&#45;&gt;Node26 -->
<g id="edge26" class="edge">
<title>Node1&#45;&gt;Node26</title>
<path fill="none" stroke="#191970" d="M76.8448,-679.9628C90.312,-750.2924 130.4841,-938.9162 180,-974.5 233.0546,-1012.6268 273.5838,-1012.1186 327,-974.5 360.6763,-950.7833 390.1579,-818.3517 397.9765,-780.5662"/>
<polygon fill="#191970" stroke="#191970" points="80.2081,-678.9107 74.9153,-669.7326 73.3294,-680.2081 80.2081,-678.9107"/>
</g>
<!-- Node27 -->
<g id="node27" class="node">
<title>Node27</title>
<g id="a_node27"><a xlink:href="../../d6/d5c/macros_2blob_2master_2macros_2g4simulations_2G4__FEMC_8C.html#a46bf470cecae66db11fccb5925a48429" target="_top" xlink:title="FEMCSetup">
<polygon fill="none" stroke="#000000" points="363,-604.5 363,-624.5 437,-624.5 437,-604.5 363,-604.5"/>
<text text-anchor="middle" x="400" y="-611.5" font-family="FreeSans" font-size="10.00" fill="#000000">FEMCSetup</text>
</a>
</g>
</g>
<!-- Node1&#45;&gt;Node27 -->
<g id="edge28" class="edge">
<title>Node1&#45;&gt;Node27</title>
<path fill="none" stroke="#191970" d="M77.7056,-679.8886C92.5485,-745.8145 134.3971,-914.707 180,-946.5 233.5943,-983.8643 276.7836,-988.2943 327,-946.5 360.8696,-918.3109 353.2473,-794.4728 363,-751.5 373.8508,-703.6885 390.1898,-647.4248 396.9277,-624.7403"/>
<polygon fill="#191970" stroke="#191970" points="81.067,-678.8801 75.4818,-669.877 74.2335,-680.3981 81.067,-678.8801"/>
</g>
<!-- Node28 -->
<g id="node28" class="node">
<title>Node28</title>
<g id="a_node28"><a xlink:href="../../de/d55/Fun4All__G4__block_8C.html#a6a063a649a0dd3318a517d5af98430dd" target="_top" xlink:title="Fun4All_G4_block">
<polygon fill="none" stroke="#000000" points="201,-916.5 201,-936.5 306,-936.5 306,-916.5 201,-916.5"/>
<text text-anchor="middle" x="253.5" y="-923.5" font-family="FreeSans" font-size="10.00" fill="#000000">Fun4All_G4_block</text>
</a>
</g>
</g>
<!-- Node1&#45;&gt;Node28 -->
<g id="edge30" class="edge">
<title>Node1&#45;&gt;Node28</title>
<path fill="none" stroke="#191970" d="M75.4563,-679.7819C83.6828,-731.4792 109.3168,-846.6397 180,-907.5 185.9926,-912.6598 193.2137,-916.4447 200.7582,-919.2156"/>
<polygon fill="#191970" stroke="#191970" points="78.8974,-679.1273 73.9551,-669.7558 71.9746,-680.1639 78.8974,-679.1273"/>
</g>
<!-- Node29 -->
<g id="node29" class="node">
<title>Node29</title>
<g id="a_node29"><a xlink:href="../../d2/dee/Fun4All__G4__Cylinder_8C.html#a271dc4f10f6f77107705e0efef0c97e5" target="_top" xlink:title="Fun4All_G4_Cylinder">
<polygon fill="none" stroke="#000000" points="193,-877.5 193,-897.5 314,-897.5 314,-877.5 193,-877.5"/>
<text text-anchor="middle" x="253.5" y="-884.5" font-family="FreeSans" font-size="10.00" fill="#000000">Fun4All_G4_Cylinder</text>
</a>
</g>
</g>
<!-- Node1&#45;&gt;Node29 -->
<g id="edge31" class="edge">
<title>Node1&#45;&gt;Node29</title>
<path fill="none" stroke="#191970" d="M77.6398,-679.5493C88.8777,-725.0369 118.4647,-818.8275 180,-868.5 184.5124,-872.1425 189.645,-875.0942 195.0512,-877.4849"/>
<polygon fill="#191970" stroke="#191970" points="80.9916,-678.5141 75.2838,-669.5882 74.1796,-680.1253 80.9916,-678.5141"/>
</g>
<!-- Node30 -->
<g id="node30" class="node">
<title>Node30</title>
<g id="a_node30"><a xlink:href="../../df/de1/Fun4All__G4__IonGun_8C.html#ab4966a2ae337cb8f0e45f7ee488e33b7" target="_top" xlink:title="Fun4All_G4_IonGun">
<polygon fill="none" stroke="#000000" points="196.5,-838.5 196.5,-858.5 310.5,-858.5 310.5,-838.5 196.5,-838.5"/>
<text text-anchor="middle" x="253.5" y="-845.5" font-family="FreeSans" font-size="10.00" fill="#000000">Fun4All_G4_IonGun</text>
</a>
</g>
</g>
<!-- Node1&#45;&gt;Node30 -->
<g id="edge32" class="edge">
<title>Node1&#45;&gt;Node30</title>
<path fill="none" stroke="#191970" d="M80.6532,-679.2541C95.006,-717.9447 127.4748,-790.6624 180,-829.5 184.9808,-833.1829 190.6102,-836.1539 196.4821,-838.5502"/>
<polygon fill="#191970" stroke="#191970" points="83.9123,-677.9736 77.238,-669.7453 77.3243,-680.3398 83.9123,-677.9736"/>
</g>
<!-- Node31 -->
<g id="node31" class="node">
<title>Node31</title>
<g id="a_node31"><a xlink:href="../../d5/d01/Fun4All__G4__LeadBrick_8C.html#a5fcd8843f8a815feb3b053eaabd60d41" target="_top" xlink:title="Fun4All_G4_LeadBrick">
<polygon fill="none" stroke="#000000" points="189.5,-799.5 189.5,-819.5 317.5,-819.5 317.5,-799.5 189.5,-799.5"/>
<text text-anchor="middle" x="253.5" y="-806.5" font-family="FreeSans" font-size="10.00" fill="#000000">Fun4All_G4_LeadBrick</text>
</a>
</g>
</g>
<!-- Node1&#45;&gt;Node31 -->
<g id="edge33" class="edge">
<title>Node1&#45;&gt;Node31</title>
<path fill="none" stroke="#191970" d="M85.1041,-678.7751C102.5425,-709.8624 136.3243,-762.004 180,-790.5 185.5191,-794.1009 191.6861,-797.02 198.0374,-799.3863"/>
<polygon fill="#191970" stroke="#191970" points="88.0934,-676.9467 80.2241,-669.8528 81.952,-680.3058 88.0934,-676.9467"/>
</g>
<!-- Node32 -->
<g id="node32" class="node">
<title>Node32</title>
<g id="a_node32"><a xlink:href="../../d9/d8f/Fun4All__G4__Momentum_8C.html#afbd7a4eecd7792e9216ce80b5514123e" target="_top" xlink:title="Fun4All_G4_Momentum">
<polygon fill="none" stroke="#000000" points="186,-760.5 186,-780.5 321,-780.5 321,-760.5 186,-760.5"/>
<text text-anchor="middle" x="253.5" y="-767.5" font-family="FreeSans" font-size="10.00" fill="#000000">Fun4All_G4_Momentum</text>
</a>
</g>
</g>
<!-- Node1&#45;&gt;Node32 -->
<g id="edge34" class="edge">
<title>Node1&#45;&gt;Node32</title>
<path fill="none" stroke="#191970" d="M92.0235,-677.3885C112.0578,-699.7721 144.8769,-732.5428 180,-751.5 186.727,-755.1308 194.1787,-758.0917 201.6813,-760.4998"/>
<polygon fill="#191970" stroke="#191970" points="94.4662,-674.8657 85.2403,-669.6567 89.2042,-679.4821 94.4662,-674.8657"/>
</g>
<!-- Node33 -->
<g id="node33" class="node">
<title>Node33</title>
<g id="a_node33"><a xlink:href="../../dc/d8e/Fun4All__G4__Prototype2_8C.html#a6b8f092c4f51be2938dd09c810ba6226" target="_top" xlink:title="Fun4All_G4_Prototype2">
<polygon fill="none" stroke="#000000" points="187,-721.5 187,-741.5 320,-741.5 320,-721.5 187,-721.5"/>
<text text-anchor="middle" x="253.5" y="-728.5" font-family="FreeSans" font-size="10.00" fill="#000000">Fun4All_G4_Prototype2</text>
</a>
</g>
</g>
<!-- Node1&#45;&gt;Node33 -->
<g id="edge35" class="edge">
<title>Node1&#45;&gt;Node33</title>
<path fill="none" stroke="#191970" d="M106.062,-674.9465C126.8108,-687.2815 154.2113,-702.3048 180,-712.5 188.7023,-715.9404 198.2312,-718.9339 207.4587,-721.4638"/>
<polygon fill="#191970" stroke="#191970" points="107.6853,-671.8383 97.3144,-669.6714 104.0704,-677.8327 107.6853,-671.8383"/>
</g>
<!-- Node34 -->
<g id="node34" class="node">
<title>Node34</title>
<g id="a_node34"><a xlink:href="../../d7/d40/Fun4All__G4__Prototype3_8C.html#a1201361263017b08a070777a0b90b27c" target="_top" xlink:title="Fun4All_G4_Prototype3">
<polygon fill="none" stroke="#000000" points="187,-682.5 187,-702.5 320,-702.5 320,-682.5 187,-682.5"/>
<text text-anchor="middle" x="253.5" y="-689.5" font-family="FreeSans" font-size="10.00" fill="#000000">Fun4All_G4_Prototype3</text>
</a>
</g>
</g>
<!-- Node1&#45;&gt;Node34 -->
<g id="edge36" class="edge">
<title>Node1&#45;&gt;Node34</title>
<path fill="none" stroke="#191970" d="M154.2086,-671.1647C172.2419,-675.0396 190.7291,-679.012 206.7878,-682.4627"/>
<polygon fill="#191970" stroke="#191970" points="154.7673,-667.7049 144.2551,-669.0259 153.2967,-674.5487 154.7673,-667.7049"/>
</g>
<!-- Node35 -->
<g id="node35" class="node">
<title>Node35</title>
<g id="a_node35"><a xlink:href="../../d4/d58/Fun4All__G4__Prototype4_8C.html#acac517f0728af658cbf99c7c9687c908" target="_top" xlink:title="Fun4All_G4_Prototype4">
<polygon fill="none" stroke="#000000" points="187,-643.5 187,-663.5 320,-663.5 320,-643.5 187,-643.5"/>
<text text-anchor="middle" x="253.5" y="-650.5" font-family="FreeSans" font-size="10.00" fill="#000000">Fun4All_G4_Prototype4</text>
</a>
</g>
</g>
<!-- Node1&#45;&gt;Node35 -->
<g id="edge37" class="edge">
<title>Node1&#45;&gt;Node35</title>
<path fill="none" stroke="#191970" d="M154.5426,-653.5C165.3436,-653.5 176.301,-653.5 186.7959,-653.5"/>
<polygon fill="#191970" stroke="#191970" points="154.2552,-650.0001 144.2551,-653.5 154.2551,-657.0001 154.2552,-650.0001"/>
</g>
<!-- Node36 -->
<g id="node36" class="node">
<title>Node36</title>
<g id="a_node36"><a xlink:href="../../db/da1/Fun4All__G4__TPC_8C.html#af60bcd3cf09ebd567e28ede14e9e894a" target="_top" xlink:title="Fun4All_G4_TPC">
<polygon fill="none" stroke="#000000" points="205,-604.5 205,-624.5 302,-624.5 302,-604.5 205,-604.5"/>
<text text-anchor="middle" x="253.5" y="-611.5" font-family="FreeSans" font-size="10.00" fill="#000000">Fun4All_G4_TPC</text>
</a>
</g>
</g>
<!-- Node1&#45;&gt;Node36 -->
<g id="edge38" class="edge">
<title>Node1&#45;&gt;Node36</title>
<path fill="none" stroke="#191970" d="M154.2086,-635.8353C172.2419,-631.9604 190.7291,-627.988 206.7878,-624.5373"/>
<polygon fill="#191970" stroke="#191970" points="153.2967,-632.4513 144.2551,-637.9741 154.7673,-639.2951 153.2967,-632.4513"/>
</g>
<!-- Node37 -->
<g id="node37" class="node">
<title>Node37</title>
<g id="a_node37"><a xlink:href="../../da/db5/Fun4All__G4__W_8C.html#ad4745423f42356b6b3cb65bbbc1e917e" target="_top" xlink:title="Fun4All_G4_W">
<polygon fill="none" stroke="#000000" points="209.5,-565.5 209.5,-585.5 297.5,-585.5 297.5,-565.5 209.5,-565.5"/>
<text text-anchor="middle" x="253.5" y="-572.5" font-family="FreeSans" font-size="10.00" fill="#000000">Fun4All_G4_W</text>
</a>
</g>
</g>
<!-- Node1&#45;&gt;Node37 -->
<g id="edge39" class="edge">
<title>Node1&#45;&gt;Node37</title>
<path fill="none" stroke="#191970" d="M106.5747,-632.3228C127.3049,-620.2949 154.5116,-605.6584 180,-595.5 189.582,-591.6811 200.1484,-588.3326 210.2096,-585.5225"/>
<polygon fill="#191970" stroke="#191970" points="104.67,-629.3824 97.8237,-637.4681 108.218,-635.4167 104.67,-629.3824"/>
</g>
<!-- Node38 -->
<g id="node38" class="node">
<title>Node38</title>
<g id="a_node38"><a xlink:href="../../de/dd3/G4Setup__EICIR_8C.html#a674566a8ab8ae9b3ee5426df2818e2ec" target="_top" xlink:title="G4Setup">
<polygon fill="none" stroke="#000000" points="370,-467.5 370,-487.5 430,-487.5 430,-467.5 370,-467.5"/>
<text text-anchor="middle" x="400" y="-474.5" font-family="FreeSans" font-size="10.00" fill="#000000">G4Setup</text>
</a>
</g>
</g>
<!-- Node1&#45;&gt;Node38 -->
<g id="edge40" class="edge">
<title>Node1&#45;&gt;Node38</title>
<path fill="none" stroke="#191970" d="M92.442,-629.5363C112.5623,-607.433 145.2477,-575.2855 180,-556.5 239.4622,-524.3575 264.2357,-542.5905 327,-517.5 347.6653,-509.2389 369.8847,-496.4418 384.3101,-487.5556"/>
<polygon fill="#191970" stroke="#191970" points="89.6654,-627.391 85.6171,-637.1819 94.8876,-632.0525 89.6654,-627.391"/>
</g>
<!-- Node39 -->
<g id="node39" class="node">
<title>Node39</title>
<g id="a_node39"><a xlink:href="../../d7/dc0/G4__HcalIn__EIC_8C.html#a3d57117b35676ff1a0c5eb9efed9f101" target="_top" xlink:title="HCalInner">
<polygon fill="none" stroke="#000000" points="366.5,-360.5 366.5,-380.5 433.5,-380.5 433.5,-360.5 366.5,-360.5"/>
<text text-anchor="middle" x="400" y="-367.5" font-family="FreeSans" font-size="10.00" fill="#000000">HCalInner</text>
</a>
</g>
</g>
<!-- Node1&#45;&gt;Node39 -->
<g id="edge41" class="edge">
<title>Node1&#45;&gt;Node39</title>
<path fill="none" stroke="#191970" d="M74.7948,-627.3439C81.9002,-574.9116 105.7194,-457.1365 180,-400.5 234.564,-358.8968 319.611,-360.6442 366.3711,-365.5713"/>
<polygon fill="#191970" stroke="#191970" points="71.2934,-627.1369 73.5201,-637.4951 78.2388,-628.0091 71.2934,-627.1369"/>
</g>
<!-- Node40 -->
<g id="node40" class="node">
<title>Node40</title>
<g id="a_node40"><a xlink:href="../../d7/dc0/G4__HcalIn__EIC_8C.html#a3b4780d0c8bf98a2dab85016a8181973" target="_top" xlink:title="A rough version of the inner HCal support ring, from Richie&#39;s CAD drawing. &#45; Jin.">
<polygon fill="none" stroke="#000000" points="186.5,-331.5 186.5,-351.5 320.5,-351.5 320.5,-331.5 186.5,-331.5"/>
<text text-anchor="middle" x="253.5" y="-338.5" font-family="FreeSans" font-size="10.00" fill="#000000">HCalInner_SupportRing</text>
</a>
</g>
</g>
<!-- Node1&#45;&gt;Node40 -->
<g id="edge43" class="edge">
<title>Node1&#45;&gt;Node40</title>
<path fill="none" stroke="#191970" d="M74.4775,-627.1134C81.1266,-571.1645 104.3504,-439.7627 180,-366.5 186.7775,-359.9363 195.344,-355.093 204.2144,-351.5199"/>
<polygon fill="#191970" stroke="#191970" points="70.9762,-626.934 73.3581,-637.2576 77.9339,-627.7018 70.9762,-626.934"/>
</g>
<!-- Node41 -->
<g id="node41" class="node">
<title>Node41</title>
<g id="a_node41"><a xlink:href="../../de/d3d/macros_2blob_2master_2macros_2g4simulations_2G4__HcalOut__ref_8C.html#a577e7fca33252e2679529c03012ed0db" target="_top" xlink:title="HCalOuter">
<polygon fill="none" stroke="#000000" points="365.5,-302.5 365.5,-322.5 434.5,-322.5 434.5,-302.5 365.5,-302.5"/>
<text text-anchor="middle" x="400" y="-309.5" font-family="FreeSans" font-size="10.00" fill="#000000">HCalOuter</text>
</a>
</g>
</g>
<!-- Node1&#45;&gt;Node41 -->
<g id="edge45" class="edge">
<title>Node1&#45;&gt;Node41</title>
<path fill="none" stroke="#191970" d="M76.6103,-627.1947C89.747,-555.5275 129.6899,-359.6341 180,-321.5 233.9213,-280.6287 318.4489,-291.9724 365.4834,-302.8657"/>
<polygon fill="#191970" stroke="#191970" points="73.1343,-626.7486 74.8013,-637.2115 80.0229,-627.9927 73.1343,-626.7486"/>
</g>
<!-- Node42 -->
<g id="node42" class="node">
<title>Node42</title>
<g id="a_node42"><a xlink:href="../../d1/d9e/G4__IR__EIC_8C.html#a866137a6aef46434fb1991996576f8ae" target="_top" xlink:title="IRSetup">
<polygon fill="none" stroke="#000000" points="225.5,-487.5 225.5,-507.5 281.5,-507.5 281.5,-487.5 225.5,-487.5"/>
<text text-anchor="middle" x="253.5" y="-494.5" font-family="FreeSans" font-size="10.00" fill="#000000">IRSetup</text>
</a>
</g>
</g>
<!-- Node1&#45;&gt;Node42 -->
<g id="edge47" class="edge">
<title>Node1&#45;&gt;Node42</title>
<path fill="none" stroke="#191970" d="M86.5343,-628.5384C104.8199,-599.2008 138.8614,-550.923 180,-522.5 193.5286,-513.1529 210.8555,-507.037 225.2879,-503.1953"/>
<polygon fill="#191970" stroke="#191970" points="83.3798,-626.9888 81.162,-637.349 89.3564,-630.6331 83.3798,-626.9888"/>
</g>
<!-- Node43 -->
<g id="node43" class="node">
<title>Node43</title>
<g id="a_node43"><a xlink:href="../../de/d2c/macros_2blob_2master_2macros_2g4simulations_2G4__Magnet_8C.html#a69bf7334e75e61a59af0ef76c418b36a" target="_top" xlink:title="Magnet">
<polygon fill="none" stroke="#000000" points="226,-448.5 226,-468.5 281,-468.5 281,-448.5 226,-448.5"/>
<text text-anchor="middle" x="253.5" y="-455.5" font-family="FreeSans" font-size="10.00" fill="#000000">Magnet</text>
</a>
</g>
</g>
<!-- Node1&#45;&gt;Node43 -->
<g id="edge49" class="edge">
<title>Node1&#45;&gt;Node43</title>
<path fill="none" stroke="#191970" d="M80.7564,-627.9735C95.2446,-589.6093 127.8887,-517.4428 180,-478.5 193.2415,-468.6046 211.0756,-463.6043 225.8604,-461.078"/>
<polygon fill="#191970" stroke="#191970" points="77.4563,-626.8069 77.3063,-637.4007 84.0299,-629.2127 77.4563,-626.8069"/>
</g>
<!-- Node44 -->
<g id="node44" class="node">
<title>Node44</title>
<g id="a_node44"><a xlink:href="../../da/d21/macros_2blob_2master_2macros_2g4simulations_2G4Setup__fsPHENIX_8C.html#a5152c9ff3ef81a7dc81e9771b8ee6762" target="_top" xlink:title="make_piston">
<polygon fill="none" stroke="#000000" points="213.5,-253.5 213.5,-273.5 293.5,-273.5 293.5,-253.5 213.5,-253.5"/>
<text text-anchor="middle" x="253.5" y="-260.5" font-family="FreeSans" font-size="10.00" fill="#000000">make_piston</text>
</a>
</g>
</g>
<!-- Node1&#45;&gt;Node44 -->
<g id="edge51" class="edge">
<title>Node1&#45;&gt;Node44</title>
<path fill="none" stroke="#191970" d="M76.5203,-627.4032C89.9851,-552.4302 131.8932,-338.5795 180,-288.5 188.8704,-279.2658 201.279,-273.4424 213.3783,-269.7699"/>
<polygon fill="#191970" stroke="#191970" points="73.0438,-626.9634 74.7427,-637.4211 79.9361,-628.1864 73.0438,-626.9634"/>
</g>
<!-- Node46 -->
<g id="node46" class="node">
<title>Node46</title>
<g id="a_node46"><a xlink:href="../../df/d97/macros_2blob_2master_2macros_2g4simulations_2G4__Pipe_8C.html#a3288b3cd0aeeda385414ee0cd9a39635" target="_top" xlink:title="Pipe">
<polygon fill="none" stroke="#000000" points="235,-409.5 235,-429.5 272,-429.5 272,-409.5 235,-409.5"/>
<text text-anchor="middle" x="253.5" y="-416.5" font-family="FreeSans" font-size="10.00" fill="#000000">Pipe</text>
</a>
</g>
</g>
<!-- Node1&#45;&gt;Node46 -->
<g id="edge53" class="edge">
<title>Node1&#45;&gt;Node46</title>
<path fill="none" stroke="#191970" d="M77.825,-627.3168C89.2829,-582.0375 119.1115,-489.1978 180,-439.5 195.6749,-426.706 218.8671,-422.061 234.9921,-420.3943"/>
<polygon fill="#191970" stroke="#191970" points="74.3732,-626.6997 75.4169,-637.243 81.1759,-628.35 74.3732,-626.6997"/>
</g>
<!-- Node47 -->
<g id="node47" class="node">
<title>Node47</title>
<g id="a_node47"><a xlink:href="../../d1/d56/G4__PlugDoor_8C.html#aac9c24f96824c585914f9bef5de9c790" target="_top" xlink:title="PlugDoor">
<polygon fill="none" stroke="#000000" points="368.5,-214.5 368.5,-234.5 431.5,-234.5 431.5,-214.5 368.5,-214.5"/>
<text text-anchor="middle" x="400" y="-221.5" font-family="FreeSans" font-size="10.00" fill="#000000">PlugDoor</text>
</a>
</g>
</g>
<!-- Node1&#45;&gt;Node47 -->
<g id="edge55" class="edge">
<title>Node1&#45;&gt;Node47</title>
<path fill="none" stroke="#191970" d="M77.1388,-627.0531C94.2251,-540.3756 149.7578,-268.9567 180,-243.5 233.2323,-198.6911 321.5678,-207.8693 368.4736,-217.0062"/>
<polygon fill="#191970" stroke="#191970" points="73.6531,-626.6404 75.1624,-637.1271 80.5221,-627.988 73.6531,-626.6404"/>
</g>
<!-- Node48 -->
<g id="node48" class="node">
<title>Node48</title>
<g id="a_node48"><a xlink:href="../../da/d2a/G4__Svtx_8C.html#ac4c82b429746ee57457304af3cebbc56" target="_top" xlink:title="Svtx">
<polygon fill="none" stroke="#000000" points="234.5,-175.5 234.5,-195.5 272.5,-195.5 272.5,-175.5 234.5,-175.5"/>
<text text-anchor="middle" x="253.5" y="-182.5" font-family="FreeSans" font-size="10.00" fill="#000000">Svtx</text>
</a>
</g>
</g>
<!-- Node1&#45;&gt;Node48 -->
<g id="edge57" class="edge">
<title>Node1&#45;&gt;Node48</title>
<path fill="none" stroke="#191970" d="M75.1005,-627.0874C85.6533,-541.4031 122.7319,-273.0893 180,-210.5 194.0118,-195.1863 217.7636,-189.25 234.4665,-186.9505"/>
<polygon fill="#191970" stroke="#191970" points="71.6219,-626.7003 73.8926,-637.0489 78.571,-627.543 71.6219,-626.7003"/>
</g>
<!-- Node49 -->
<g id="node49" class="node">
<title>Node49</title>
<g id="a_node49"><a xlink:href="../../da/d3c/G4__Tracking_8C.html#a29db7ba137ab6b448bd8200c192a0a50" target="_top" xlink:title="Tracking">
<polygon fill="none" stroke="#000000" points="370.5,-156.5 370.5,-176.5 429.5,-176.5 429.5,-156.5 370.5,-156.5"/>
<text text-anchor="middle" x="400" y="-163.5" font-family="FreeSans" font-size="10.00" fill="#000000">Tracking</text>
</a>
</g>
</g>
<!-- Node1&#45;&gt;Node49 -->
<g id="edge58" class="edge">
<title>Node1&#45;&gt;Node49</title>
<path fill="none" stroke="#191970" d="M73.6293,-627.2979C79.9895,-534.5881 106.5282,-224.4894 180,-165.5 235.5457,-120.9032 326.9213,-141.8161 372.4414,-156.4581"/>
<polygon fill="#191970" stroke="#191970" points="70.1225,-627.2848 72.9519,-637.4948 77.1071,-627.7488 70.1225,-627.2848"/>
</g>
<!-- Node3 -->
<g id="node3" class="node">
<title>Node3</title>
<g id="a_node3"><a xlink:href="../../d2/dfe/macros_2blob_2master_2macros_2g4simulations_2G4Setup__EICDetector_8C.html#a5d4cb2d19366a2ae6d2aefe8d2e4a870" target="_top" xlink:title="G4Setup">
<polygon fill="none" stroke="#000000" points="473,-360.5 473,-380.5 533,-380.5 533,-360.5 473,-360.5"/>
<text text-anchor="middle" x="503" y="-367.5" font-family="FreeSans" font-size="10.00" fill="#000000">G4Setup</text>
</a>
</g>
</g>
<!-- Node2&#45;&gt;Node3 -->
<g id="edge2" class="edge">
<title>Node2&#45;&gt;Node3</title>
<path fill="none" stroke="#191970" d="M421.3163,-1132.5992C427.4126,-1126.6123 433.3798,-1119.3842 437,-1111.5 468.9658,-1041.8829 498.3686,-464.8721 502.5041,-380.7225"/>
<polygon fill="#191970" stroke="#191970" points="418.7744,-1130.1785 413.6922,-1139.4748 423.4624,-1135.3768 418.7744,-1130.1785"/>
</g>
<!-- Node4 -->
<g id="node4" class="node">
<title>Node4</title>
<g id="a_node4"><a xlink:href="../../d3/d7f/Fun_8C.html#af0d3c8a78765149fef9b2beeecfc6279" target="_top" xlink:title="ConfigureDetectors">
<polygon fill="none" stroke="#000000" points="595.5,-696.5 595.5,-716.5 709.5,-716.5 709.5,-696.5 595.5,-696.5"/>
<text text-anchor="middle" x="652.5" y="-703.5" font-family="FreeSans" font-size="10.00" fill="#000000">ConfigureDetectors</text>
</a>
</g>
</g>
<!-- Node3&#45;&gt;Node4 -->
<g id="edge3" class="edge">
<title>Node3&#45;&gt;Node4</title>
<path fill="none" stroke="#191970" d="M504.4273,-390.9258C509.2608,-454.1307 527.1067,-644.8258 569,-687.5 576.1864,-694.8204 585.5649,-699.5749 595.4318,-702.6149"/>
<polygon fill="#191970" stroke="#191970" points="507.8973,-390.3885 503.6733,-380.6721 500.9162,-390.9019 507.8973,-390.3885"/>
</g>
<!-- Node6 -->
<g id="node6" class="node">
<title>Node6</title>
<g id="a_node6"><a xlink:href="../../da/d02/Fun4All__G4__EICDetector_8C.html#afbe82cefa1d1fd031d9a8586b7bb68c6" target="_top" xlink:title="Fun4All_G4_EICDetector">
<polygon fill="none" stroke="#000000" points="583,-657.5 583,-677.5 722,-677.5 722,-657.5 583,-657.5"/>
<text text-anchor="middle" x="652.5" y="-664.5" font-family="FreeSans" font-size="10.00" fill="#000000">Fun4All_G4_EICDetector</text>
</a>
</g>
</g>
<!-- Node3&#45;&gt;Node6 -->
<g id="edge5" class="edge">
<title>Node3&#45;&gt;Node6</title>
<path fill="none" stroke="#191970" d="M505.043,-390.6514C511.2901,-448.2566 531.9979,-611.8426 569,-648.5 573.0134,-652.4761 577.6752,-655.6904 582.7044,-658.2815"/>
<polygon fill="#191970" stroke="#191970" points="508.5139,-390.1909 503.9858,-380.6124 501.5524,-390.924 508.5139,-390.1909"/>
</g>
<!-- Node7 -->
<g id="node7" class="node">
<title>Node7</title>
<g id="a_node7"><a xlink:href="../../dd/d2a/Fun4All__G4__EICDetector__LQ_8C.html#aaa01242fd6e77ca43a9d49a6d46008e4" target="_top" xlink:title="Fun4All_G4_EICDetector_LQ">
<polygon fill="none" stroke="#000000" points="574.5,-618.5 574.5,-638.5 730.5,-638.5 730.5,-618.5 574.5,-618.5"/>
<text text-anchor="middle" x="652.5" y="-625.5" font-family="FreeSans" font-size="10.00" fill="#000000">Fun4All_G4_EICDetector_LQ</text>
</a>
</g>
</g>
<!-- Node3&#45;&gt;Node7 -->
<g id="edge6" class="edge">
<title>Node3&#45;&gt;Node7</title>
<path fill="none" stroke="#191970" d="M505.8599,-390.5144C513.6596,-442.3048 536.8848,-578.8199 569,-609.5 572.655,-612.9917 576.812,-615.891 581.2733,-618.2938"/>
<polygon fill="#191970" stroke="#191970" points="509.3134,-389.9416 504.3947,-380.5578 502.388,-390.9608 509.3134,-389.9416"/>
</g>
<!-- Node8 -->
<g id="node8" class="node">
<title>Node8</title>
<g id="a_node8"><a xlink:href="../../d4/df5/Fun4All__G4__EICDetector__LQ__reference_8C.html#a2feefc472f17f90b3cbe74897d049f75" target="_top" xlink:title="Fun4All_G4_EICDetector\l_LQ_reference">
<polygon fill="none" stroke="#000000" points="583,-567.5 583,-599.5 722,-599.5 722,-567.5 583,-567.5"/>
<text text-anchor="start" x="591" y="-586.5" font-family="FreeSans" font-size="10.00" fill="#000000">Fun4All_G4_EICDetector</text>
<text text-anchor="middle" x="652.5" y="-574.5" font-family="FreeSans" font-size="10.00" fill="#000000">_LQ_reference</text>
</a>
</g>
</g>
<!-- Node3&#45;&gt;Node8 -->
<g id="edge7" class="edge">
<title>Node3&#45;&gt;Node8</title>
<path fill="none" stroke="#191970" d="M504.2967,-391.2022C507.8343,-429.7153 520.9213,-512.6165 569,-558.5 573.0504,-562.3655 577.6743,-565.6359 582.6212,-568.4024"/>
<polygon fill="#191970" stroke="#191970" points="507.7493,-390.4604 503.4773,-380.765 500.7708,-391.0084 507.7493,-390.4604"/>
</g>
<!-- Node9 -->
<g id="node9" class="node">
<title>Node9</title>
<g id="a_node9"><a xlink:href="../../d3/d51/Fun4All__G4__EICDetector__RICH_8C.html#a5739502b0a7a1ba782c01069f77e933f" target="_top" xlink:title="Fun4All_G4_EICDetector_RICH">
<polygon fill="none" stroke="#000000" points="569,-528.5 569,-548.5 736,-548.5 736,-528.5 569,-528.5"/>
<text text-anchor="middle" x="652.5" y="-535.5" font-family="FreeSans" font-size="10.00" fill="#000000">Fun4All_G4_EICDetector_RICH</text>
</a>
</g>
</g>
<!-- Node3&#45;&gt;Node9 -->
<g id="edge8" class="edge">
<title>Node3&#45;&gt;Node9</title>
<path fill="none" stroke="#191970" d="M506.0732,-390.7609C512.0889,-423.12 528.5551,-486.2025 569,-519.5 573.3615,-523.0908 578.2681,-526.0342 583.4617,-528.4433"/>
<polygon fill="#191970" stroke="#191970" points="509.4883,-389.966 504.359,-380.6956 502.5876,-391.1412 509.4883,-389.966"/>
</g>
<!-- Node10 -->
<g id="node10" class="node">
<title>Node10</title>
<g id="a_node10"><a xlink:href="../../d9/d0e/Fun4All__G4__EICIR_8C.html#ac3543d1dd4a0abed3987d40939ee3f87" target="_top" xlink:title="Fun4All_G4_EICIR">
<polygon fill="none" stroke="#000000" points="600.5,-489.5 600.5,-509.5 704.5,-509.5 704.5,-489.5 600.5,-489.5"/>
<text text-anchor="middle" x="652.5" y="-496.5" font-family="FreeSans" font-size="10.00" fill="#000000">Fun4All_G4_EICIR</text>
</a>
</g>
</g>
<!-- Node3&#45;&gt;Node10 -->
<g id="edge9" class="edge">
<title>Node3&#45;&gt;Node10</title>
<path fill="none" stroke="#191970" d="M509.2986,-390.0753C518.3796,-415.0549 537.5981,-457.7457 569,-480.5 578.1494,-487.1298 589.2257,-491.4978 600.2782,-494.3625"/>
<polygon fill="#191970" stroke="#191970" points="512.5882,-388.8783 506.0214,-380.5639 505.97,-391.1586 512.5882,-388.8783"/>
</g>
<!-- Node11 -->
<g id="node11" class="node">
<title>Node11</title>
<g id="a_node11"><a xlink:href="../../d7/d9e/Fun4All__G4__fsPHENIX_8C.html#af48911d394d2412e817583700f2bbee2" target="_top" xlink:title="Fun4All_G4_fsPHENIX">
<polygon fill="none" stroke="#000000" points="590.5,-450.5 590.5,-470.5 714.5,-470.5 714.5,-450.5 590.5,-450.5"/>
<text text-anchor="middle" x="652.5" y="-457.5" font-family="FreeSans" font-size="10.00" fill="#000000">Fun4All_G4_fsPHENIX</text>
</a>
</g>
</g>
<!-- Node3&#45;&gt;Node11 -->
<g id="edge10" class="edge">
<title>Node3&#45;&gt;Node11</title>
<path fill="none" stroke="#191970" d="M515.1024,-388.7729C526.9084,-405.1193 546.3623,-428.454 569,-441.5 575.5694,-445.2859 582.8352,-448.3174 590.2593,-450.7449"/>
<polygon fill="#191970" stroke="#191970" points="517.9439,-386.7287 509.3586,-380.5203 512.1985,-390.7275 517.9439,-386.7287"/>
</g>
<!-- Node12 -->
<g id="node12" class="node">
<title>Node12</title>
<g id="a_node12"><a xlink:href="../../da/d2f/Fun4All__G4__fsPHENIX__FastSim_8C.html#a66fb850cae5fcaadda23b74a25ce4c9c" target="_top" xlink:title="Fun4All_G4_fsPHENIX\l_FastSim">
<polygon fill="none" stroke="#000000" points="590.5,-399.5 590.5,-431.5 714.5,-431.5 714.5,-399.5 590.5,-399.5"/>
<text text-anchor="start" x="598.5" y="-418.5" font-family="FreeSans" font-size="10.00" fill="#000000">Fun4All_G4_fsPHENIX</text>
<text text-anchor="middle" x="652.5" y="-406.5" font-family="FreeSans" font-size="10.00" fill="#000000">_FastSim</text>
</a>
</g>
</g>
<!-- Node3&#45;&gt;Node12 -->
<g id="edge11" class="edge">
<title>Node3&#45;&gt;Node12</title>
<path fill="none" stroke="#191970" d="M543.0215,-382.651C551.5918,-385.2466 560.5954,-387.9684 569,-390.5 578.5629,-393.3805 588.745,-396.4374 598.5913,-399.3883"/>
<polygon fill="#191970" stroke="#191970" points="543.807,-379.232 533.2217,-379.6811 541.7767,-385.9311 543.807,-379.232"/>
</g>
<!-- Node13 -->
<g id="node13" class="node">
<title>Node13</title>
<g id="a_node13"><a xlink:href="../../d0/da6/Fun4All__G4__fsPHENIX__pi0_8C.html#a023d91d47b678e5d7f1751834aa517c6" target="_top" xlink:title="Fun4All_G4_fsPHENIX_pi0">
<polygon fill="none" stroke="#000000" points="580,-360.5 580,-380.5 725,-380.5 725,-360.5 580,-360.5"/>
<text text-anchor="middle" x="652.5" y="-367.5" font-family="FreeSans" font-size="10.00" fill="#000000">Fun4All_G4_fsPHENIX_pi0</text>
</a>
</g>
</g>
<!-- Node3&#45;&gt;Node13 -->
<g id="edge12" class="edge">
<title>Node3&#45;&gt;Node13</title>
<path fill="none" stroke="#191970" d="M543.2574,-370.5C554.6119,-370.5 567.3264,-370.5 579.9568,-370.5"/>
<polygon fill="#191970" stroke="#191970" points="543.2536,-367.0001 533.2536,-370.5 543.2535,-374.0001 543.2536,-367.0001"/>
</g>
<!-- Node14 -->
<g id="node14" class="node">
<title>Node14</title>
<g id="a_node14"><a xlink:href="../../d5/d2c/macros_2blob_2master_2macros_2g4simulations_2Fun4All__G4__sPHENIX_8C.html#a6eaaa492d7023ec86c562dc63aa1e5a4" target="_top" xlink:title="Fun4All_G4_sPHENIX">
<polygon fill="none" stroke="#000000" points="592,-321.5 592,-341.5 713,-341.5 713,-321.5 592,-321.5"/>
<text text-anchor="middle" x="652.5" y="-328.5" font-family="FreeSans" font-size="10.00" fill="#000000">Fun4All_G4_sPHENIX</text>
</a>
</g>
</g>
<!-- Node3&#45;&gt;Node14 -->
<g id="edge13" class="edge">
<title>Node3&#45;&gt;Node14</title>
<path fill="none" stroke="#191970" d="M542.8989,-357.9156C551.4772,-355.3486 560.5151,-352.7479 569,-350.5 580.7844,-347.3779 593.5866,-344.3065 605.5454,-341.5736"/>
<polygon fill="#191970" stroke="#191970" points="541.6524,-354.6362 533.1005,-360.8904 543.686,-361.3343 541.6524,-354.6362"/>
</g>
<!-- Node15 -->
<g id="node15" class="node">
<title>Node15</title>
<g id="a_node15"><a xlink:href="../../d3/de2/Fun4All__G4__sPHENIX__AnaGenFit_8C.html#a9bf3f2f72ed69a17e2d0c1121d48013c" target="_top" xlink:title="Fun4All_G4_sPHENIX\l_AnaGenFit">
<polygon fill="none" stroke="#000000" points="592,-270.5 592,-302.5 713,-302.5 713,-270.5 592,-270.5"/>
<text text-anchor="start" x="600" y="-289.5" font-family="FreeSans" font-size="10.00" fill="#000000">Fun4All_G4_sPHENIX</text>
<text text-anchor="middle" x="652.5" y="-277.5" font-family="FreeSans" font-size="10.00" fill="#000000">_AnaGenFit</text>
</a>
</g>
</g>
<!-- Node3&#45;&gt;Node15 -->
<g id="edge14" class="edge">
<title>Node3&#45;&gt;Node15</title>
<path fill="none" stroke="#191970" d="M518.7303,-352.734C531.1939,-339.6473 549.6741,-322.3147 569,-311.5 576.1309,-307.5096 583.9687,-304.0903 591.898,-301.1786"/>
<polygon fill="#191970" stroke="#191970" points="516.0119,-350.5185 511.7936,-360.2374 521.152,-355.2704 516.0119,-350.5185"/>
</g>
<!-- Node16 -->
<g id="node16" class="node">
<title>Node16</title>
<g id="a_node16"><a xlink:href="../../da/dd0/Fun4All__G4__sPHENIX__photonjet_8C.html#a6f18519e216acc05399e562ea57ea77c" target="_top" xlink:title="Fun4All_G4_sPHENIX\l_photonjet">
<polygon fill="none" stroke="#000000" points="592,-219.5 592,-251.5 713,-251.5 713,-219.5 592,-219.5"/>
<text text-anchor="start" x="600" y="-238.5" font-family="FreeSans" font-size="10.00" fill="#000000">Fun4All_G4_sPHENIX</text>
<text text-anchor="middle" x="652.5" y="-226.5" font-family="FreeSans" font-size="10.00" fill="#000000">_photonjet</text>
</a>
</g>
</g>
<!-- Node3&#45;&gt;Node16 -->
<g id="edge15" class="edge">
<title>Node3&#45;&gt;Node16</title>
<path fill="none" stroke="#191970" d="M509.6801,-350.8716C519.076,-326.1865 538.5337,-284.1764 569,-260.5 575.8106,-255.2072 583.728,-251.032 591.9216,-247.7391"/>
<polygon fill="#191970" stroke="#191970" points="506.3849,-349.6921 506.2666,-360.2862 512.9657,-352.0781 506.3849,-349.6921"/>
</g>
<!-- Node17 -->
<g id="node17" class="node">
<title>Node17</title>
<g id="a_node17"><a xlink:href="../../da/d85/Fun4All__G4__sPHENIX__photons_8C.html#a02fbbd59878fe1299f58ed187e7214ba" target="_top" xlink:title="Fun4All_G4_sPHENIX\l_photons">
<polygon fill="none" stroke="#000000" points="592,-168.5 592,-200.5 713,-200.5 713,-168.5 592,-168.5"/>
<text text-anchor="start" x="600" y="-187.5" font-family="FreeSans" font-size="10.00" fill="#000000">Fun4All_G4_sPHENIX</text>
<text text-anchor="middle" x="652.5" y="-175.5" font-family="FreeSans" font-size="10.00" fill="#000000">_photons</text>
</a>
</g>
</g>
<!-- Node3&#45;&gt;Node17 -->
<g id="edge16" class="edge">
<title>Node3&#45;&gt;Node17</title>
<path fill="none" stroke="#191970" d="M505.6091,-350.4063C511.0891,-316.4243 526.9709,-247.5944 569,-209.5 575.503,-203.6058 583.3455,-199.0991 591.5866,-195.6538"/>
<polygon fill="#191970" stroke="#191970" points="502.117,-350.0974 504.1266,-360.4999 509.0427,-351.1146 502.117,-350.0974"/>
</g>
<!-- Node18 -->
<g id="node18" class="node">
<title>Node18</title>
<g id="a_node18"><a xlink:href="../../de/d55/Fun4All__G4__sPHENIX__truthphotonjet_8C.html#a48a6f4503eaa1b3793d8ae572aa795b9" target="_top" xlink:title="Fun4All_G4_sPHENIX\l_truthphotonjet">
<polygon fill="none" stroke="#000000" points="592,-117.5 592,-149.5 713,-149.5 713,-117.5 592,-117.5"/>
<text text-anchor="start" x="600" y="-136.5" font-family="FreeSans" font-size="10.00" fill="#000000">Fun4All_G4_sPHENIX</text>
<text text-anchor="middle" x="652.5" y="-124.5" font-family="FreeSans" font-size="10.00" fill="#000000">_truthphotonjet</text>
</a>
</g>
</g>
<!-- Node3&#45;&gt;Node18 -->
<g id="edge17" class="edge">
<title>Node3&#45;&gt;Node18</title>
<path fill="none" stroke="#191970" d="M506.7732,-350.3624C516.0444,-302.9055 541.218,-185.9807 569,-158.5 575.455,-152.115 583.471,-147.3497 591.9617,-143.7955"/>
<polygon fill="#191970" stroke="#191970" points="503.3031,-349.8745 504.8569,-360.3548 510.1778,-351.193 503.3031,-349.8745"/>
</g>
<!-- Node19 -->
<g id="node19" class="node">
<title>Node19</title>
<g id="a_node19"><a xlink:href="../../d4/d65/Fun4All__single__particle_8C.html#a8a492b5dbead494bfdddbebde8a49b0e" target="_top" xlink:title="Fun4All_single_particle">
<polygon fill="none" stroke="#000000" points="586.5,-78.5 586.5,-98.5 718.5,-98.5 718.5,-78.5 586.5,-78.5"/>
<text text-anchor="middle" x="652.5" y="-85.5" font-family="FreeSans" font-size="10.00" fill="#000000">Fun4All_single_particle</text>
</a>
</g>
</g>
<!-- Node3&#45;&gt;Node19 -->
<g id="edge18" class="edge">
<title>Node3&#45;&gt;Node19</title>
<path fill="none" stroke="#191970" d="M505.3374,-350.3423C512.174,-294.8774 533.8945,-141.8368 569,-107.5 573.9953,-102.6141 579.9709,-98.8818 586.3985,-96.0442"/>
<polygon fill="#191970" stroke="#191970" points="501.8534,-349.9998 504.1368,-360.3457 508.8036,-350.834 501.8534,-349.9998"/>
</g>
<!-- Node20 -->
<g id="node20" class="node">
<title>Node20</title>
<g id="a_node20"><a xlink:href="../../d0/d99/Jin__BJet_8C.html#a36169bfee2ed7efda633944d12aebad9" target="_top" xlink:title="Jin_BJet">
<polygon fill="none" stroke="#000000" points="625,-39.5 625,-59.5 680,-59.5 680,-39.5 625,-39.5"/>
<text text-anchor="middle" x="652.5" y="-46.5" font-family="FreeSans" font-size="10.00" fill="#000000">Jin_BJet</text>
</a>
</g>
</g>
<!-- Node3&#45;&gt;Node20 -->
<g id="edge19" class="edge">
<title>Node3&#45;&gt;Node20</title>
<path fill="none" stroke="#191970" d="M504.6409,-350.2505C509.997,-289.2346 528.9758,-108.8688 569,-68.5 583.4451,-53.9305 606.5807,-49.5476 624.8398,-48.6025"/>
<polygon fill="#191970" stroke="#191970" points="501.1301,-350.2312 503.7731,-360.4911 508.1051,-350.8224 501.1301,-350.2312"/>
</g>
<!-- Node21 -->
<g id="node21" class="node">
<title>Node21</title>
<g id="a_node21"><a xlink:href="../../dd/db1/Wrapper_8cxx.html#abf1e42281903daa0752c80dd6c879fac" target="_top" xlink:title="Wrapper">
<polygon fill="none" stroke="#000000" points="622.5,-.5 622.5,-20.5 682.5,-20.5 682.5,-.5 622.5,-.5"/>
<text text-anchor="middle" x="652.5" y="-7.5" font-family="FreeSans" font-size="10.00" fill="#000000">Wrapper</text>
</a>
</g>
</g>
<!-- Node3&#45;&gt;Node21 -->
<g id="edge20" class="edge">
<title>Node3&#45;&gt;Node21</title>
<path fill="none" stroke="#191970" d="M504.0901,-350.2645C508.068,-284.1352 524.0024,-75.9867 569,-29.5 582.649,-15.3993 604.4225,-10.7885 622.3133,-9.63"/>
<polygon fill="#191970" stroke="#191970" points="500.5954,-350.0726 503.5164,-360.2568 507.5839,-350.4739 500.5954,-350.0726"/>
</g>
<!-- Node5 -->
<g id="node5" class="node">
<title>Node5</title>
<g id="a_node5"><a xlink:href="../../d3/d7f/Fun_8C.html#af69a3eef3ff244bb51f5740c6ecb5432" target="_top" xlink:title="Fun">
<polygon fill="none" stroke="#000000" points="772,-696.5 772,-716.5 806,-716.5 806,-696.5 772,-696.5"/>
<text text-anchor="middle" x="789" y="-703.5" font-family="FreeSans" font-size="10.00" fill="#000000">Fun</text>
</a>
</g>
</g>
<!-- Node4&#45;&gt;Node5 -->
<g id="edge4" class="edge">
<title>Node4&#45;&gt;Node5</title>
<path fill="none" stroke="#191970" d="M719.6941,-706.5C739.0852,-706.5 758.59,-706.5 771.9452,-706.5"/>
<polygon fill="#191970" stroke="#191970" points="719.5974,-703.0001 709.5974,-706.5 719.5974,-710.0001 719.5974,-703.0001"/>
</g>
<!-- Node23 -->
<g id="node23" class="node">
<title>Node23</title>
<g id="a_node23"><a xlink:href="../../d1/d8d/macros_2blob_2master_2macros_2g4simulations_2G4__CEmc__Spacal_8C.html#a643b7748ae63dfed5f748e4707bbf1d3" target="_top" xlink:title="EMCal main setup macro.">
<polygon fill="none" stroke="#000000" points="377.5,-1081.5 377.5,-1101.5 422.5,-1101.5 422.5,-1081.5 377.5,-1081.5"/>
<text text-anchor="middle" x="400" y="-1088.5" font-family="FreeSans" font-size="10.00" fill="#000000">CEmc</text>
</a>
</g>
</g>
<!-- Node22&#45;&gt;Node23 -->
<g id="edge22" class="edge">
<title>Node22&#45;&gt;Node23</title>
<path fill="none" stroke="#191970" d="M314.3761,-1108.4494C336.5514,-1104.0598 360.2848,-1099.3617 377.127,-1096.0278"/>
<polygon fill="#191970" stroke="#191970" points="313.4574,-1105.0633 304.3274,-1110.4386 314.8168,-1111.9301 313.4574,-1105.0633"/>
</g>
<!-- Node24&#45;&gt;Node23 -->
<g id="edge24" class="edge">
<title>Node24&#45;&gt;Node23</title>
<path fill="none" stroke="#191970" d="M337.406,-1087.2274C352.0865,-1088.2295 366.1835,-1089.1917 377.2701,-1089.9485"/>
<polygon fill="#191970" stroke="#191970" points="337.3944,-1083.7185 327.1792,-1086.5293 336.9176,-1090.7023 337.3944,-1083.7185"/>
</g>
<!-- Node26&#45;&gt;Node3 -->
<g id="edge27" class="edge">
<title>Node26&#45;&gt;Node3</title>
<path fill="none" stroke="#191970" d="M405.6312,-750.3157C412.9997,-723.7892 426.24,-675.7261 437,-634.5 462.7709,-535.7608 492.0397,-415.6987 500.5571,-380.5899"/>
<polygon fill="#191970" stroke="#191970" points="402.1667,-749.7106 402.8572,-760.2829 408.9104,-751.5875 402.1667,-749.7106"/>
</g>
<!-- Node27&#45;&gt;Node3 -->
<g id="edge29" class="edge">
<title>Node27&#45;&gt;Node3</title>
<path fill="none" stroke="#191970" d="M408.1897,-595.0993C428.935,-545.955 483.0172,-417.8379 498.687,-380.7172"/>
<polygon fill="#191970" stroke="#191970" points="404.9592,-593.7523 404.2946,-604.3263 411.4082,-596.4746 404.9592,-593.7523"/>
</g>
<!-- Node39&#45;&gt;Node3 -->
<g id="edge42" class="edge">
<title>Node39&#45;&gt;Node3</title>
<path fill="none" stroke="#191970" d="M444.0049,-370.5C453.6688,-370.5 463.6925,-370.5 472.6754,-370.5"/>
<polygon fill="#191970" stroke="#191970" points="443.7261,-367.0001 433.7261,-370.5 443.726,-374.0001 443.7261,-367.0001"/>
</g>
<!-- Node40&#45;&gt;Node39 -->
<g id="edge44" class="edge">
<title>Node40&#45;&gt;Node39</title>
<path fill="none" stroke="#191970" d="M314.5919,-353.5933C332.2709,-357.0929 350.9219,-360.7849 366.2693,-363.8229"/>
<polygon fill="#191970" stroke="#191970" points="314.8168,-350.0699 304.3274,-351.5614 313.4574,-356.9367 314.8168,-350.0699"/>
</g>
<!-- Node41&#45;&gt;Node3 -->
<g id="edge46" class="edge">
<title>Node41&#45;&gt;Node3</title>
<path fill="none" stroke="#191970" d="M426.6863,-327.5272C444.9943,-337.8366 468.8001,-351.2418 484.9188,-360.3183"/>
<polygon fill="#191970" stroke="#191970" points="428.3721,-324.4598 417.9412,-322.6028 424.9374,-330.5592 428.3721,-324.4598"/>
</g>
<!-- Node42&#45;&gt;Node38 -->
<g id="edge48" class="edge">
<title>Node42&#45;&gt;Node38</title>
<path fill="none" stroke="#191970" d="M291.7281,-492.2811C316.0873,-488.9557 347.2041,-484.7076 369.8227,-481.6198"/>
<polygon fill="#191970" stroke="#191970" points="291.1813,-488.8232 281.7467,-493.6438 292.1282,-495.7589 291.1813,-488.8232"/>
</g>
<!-- Node43&#45;&gt;Node38 -->
<g id="edge50" class="edge">
<title>Node43&#45;&gt;Node38</title>
<path fill="none" stroke="#191970" d="M291.0566,-463.3708C315.5019,-466.5412 346.9664,-470.6219 369.7908,-473.5821"/>
<polygon fill="#191970" stroke="#191970" points="291.4227,-459.8891 281.0555,-462.0738 290.5223,-466.8309 291.4227,-459.8891"/>
</g>
<!-- Node45 -->
<g id="node45" class="node">
<title>Node45</title>
<g id="a_node45"><a xlink:href="../../df/d4b/analysis_2blob_2master_2EICAnalysis_2macros_2leptoquarks__fun4all_2G4Setup__fsPHENIX_8C.html#ac2f64e8dbdc7060f0f9ca1c7a47cddb7" target="_top" xlink:title="G4Setup">
<polygon fill="none" stroke="#000000" points="370,-253.5 370,-273.5 430,-273.5 430,-253.5 370,-253.5"/>
<text text-anchor="middle" x="400" y="-260.5" font-family="FreeSans" font-size="10.00" fill="#000000">G4Setup</text>
</a>
</g>
</g>
<!-- Node44&#45;&gt;Node45 -->
<g id="edge52" class="edge">
<title>Node44&#45;&gt;Node45</title>
<path fill="none" stroke="#191970" d="M303.7042,-263.5C325.6788,-263.5 350.7343,-263.5 369.7784,-263.5"/>
<polygon fill="#191970" stroke="#191970" points="303.5318,-260.0001 293.5318,-263.5 303.5317,-267.0001 303.5318,-260.0001"/>
</g>
<!-- Node46&#45;&gt;Node38 -->
<g id="edge54" class="edge">
<title>Node46&#45;&gt;Node38</title>
<path fill="none" stroke="#191970" d="M282.1814,-425.7892C295.9596,-429.1913 312.573,-433.8576 327,-439.5 346.9596,-447.3063 368.5916,-459.0108 383.0836,-467.3653"/>
<polygon fill="#191970" stroke="#191970" points="282.8191,-422.3434 272.281,-423.4388 281.2021,-429.1541 282.8191,-422.3434"/>
</g>
<!-- Node47&#45;&gt;Node3 -->
<g id="edge56" class="edge">
<title>Node47&#45;&gt;Node3</title>
<path fill="none" stroke="#191970" d="M433.5337,-240.3985C434.7503,-241.384 435.9123,-242.4176 437,-243.5 472.4023,-278.7303 492.899,-336.9297 500.072,-360.3112"/>
<polygon fill="#191970" stroke="#191970" points="435.1704,-237.2806 424.9238,-234.5865 431.2539,-243.0824 435.1704,-237.2806"/>
</g>
<!-- Node49&#45;&gt;Node3 -->
<g id="edge59" class="edge">
<title>Node49&#45;&gt;Node3</title>
<path fill="none" stroke="#191970" d="M419.7291,-183.8564C425.8355,-189.9413 432.2097,-197.112 437,-204.5 471.7579,-258.1061 493.3138,-332.9285 500.4081,-360.1111"/>
<polygon fill="#191970" stroke="#191970" points="421.9431,-181.1325 412.2769,-176.7948 417.1283,-186.2137 421.9431,-181.1325"/>
</g>
</g>
</svg>
