<?xml version="1.0" encoding="UTF-8" standalone="no"?>
<!DOCTYPE svg PUBLIC "-//W3C//DTD SVG 1.1//EN"
 "http://www.w3.org/Graphics/SVG/1.1/DTD/svg11.dtd">
<!-- Generated by graphviz version 2.40.1 (20161225.0304)
 -->
<!-- Title: PHG4DetectorSubsystem::SetAbsorberActive Pages: 1 -->
<svg width="704pt" height="725pt"
 viewBox="0.00 0.00 704.00 725.00" xmlns="http://www.w3.org/2000/svg" xmlns:xlink="http://www.w3.org/1999/xlink">
<g id="graph0" class="graph" transform="scale(1 1) rotate(0) translate(4 721)">
<title>PHG4DetectorSubsystem::SetAbsorberActive</title>
<!-- Node1 -->
<g id="node1" class="node">
<title>Node1</title>
<polygon fill="#bfbfbf" stroke="#000000" points="0,-470.5 0,-502.5 144,-502.5 144,-470.5 0,-470.5"/>
<text text-anchor="start" x="8" y="-489.5" font-family="FreeSans" font-size="10.00" fill="#000000">PHG4DetectorSubsystem</text>
<text text-anchor="middle" x="72" y="-477.5" font-family="FreeSans" font-size="10.00" fill="#000000">::SetAbsorberActive</text>
</g>
<!-- Node2 -->
<g id="node2" class="node">
<title>Node2</title>
<g id="a_node2"><a xlink:href="../../d1/d8d/macros_2blob_2master_2macros_2g4simulations_2G4__CEmc__Spacal_8C.html#a5a524f976392ac304e84c872e8d435d1" target="_top" xlink:title="EMCal setup macro &#45; 1D azimuthal projective SPACAL.">
<polygon fill="none" stroke="#000000" points="180,-652.5 180,-672.5 327,-672.5 327,-652.5 180,-652.5"/>
<text text-anchor="middle" x="253.5" y="-659.5" font-family="FreeSans" font-size="10.00" fill="#000000">CEmc_1DProjectiveSpacal</text>
</a>
</g>
</g>
<!-- Node1&#45;&gt;Node2 -->
<g id="edge1" class="edge">
<title>Node1&#45;&gt;Node2</title>
<path fill="none" stroke="#191970" d="M82.7757,-511.9987C98.8084,-546.8149 132.2648,-608.7473 180,-642.5 185.8308,-646.6229 192.4721,-649.8963 199.3225,-652.4952"/>
<polygon fill="#191970" stroke="#191970" points="85.8197,-510.2322 78.5402,-502.5342 79.4304,-513.0916 85.8197,-510.2322"/>
</g>
<!-- Node4 -->
<g id="node4" class="node">
<title>Node4</title>
<g id="a_node4"><a xlink:href="../../d1/d8d/macros_2blob_2master_2macros_2g4simulations_2G4__CEmc__Spacal_8C.html#a034d8a445c397fdcb3c0be0b80d91cfb" target="_top" xlink:title="2D full projective SPACAL">
<polygon fill="none" stroke="#000000" points="180,-613.5 180,-633.5 327,-633.5 327,-613.5 180,-613.5"/>
<text text-anchor="middle" x="253.5" y="-620.5" font-family="FreeSans" font-size="10.00" fill="#000000">CEmc_2DProjectiveSpacal</text>
</a>
</g>
</g>
<!-- Node1&#45;&gt;Node4 -->
<g id="edge3" class="edge">
<title>Node1&#45;&gt;Node4</title>
<path fill="none" stroke="#191970" d="M88.3499,-511.2184C107.2869,-537.9122 140.9348,-579.7887 180,-603.5 186.6699,-607.5484 194.1694,-610.7931 201.7619,-613.3894"/>
<polygon fill="#191970" stroke="#191970" points="91.0819,-509.0161 82.5052,-502.7959 85.331,-513.007 91.0819,-509.0161"/>
</g>
<!-- Node5 -->
<g id="node5" class="node">
<title>Node5</title>
<g id="a_node5"><a xlink:href="../../d6/d5c/macros_2blob_2master_2macros_2g4simulations_2G4__FEMC_8C.html#a46bf470cecae66db11fccb5925a48429" target="_top" xlink:title="FEMCSetup">
<polygon fill="none" stroke="#000000" points="216.5,-574.5 216.5,-594.5 290.5,-594.5 290.5,-574.5 216.5,-574.5"/>
<text text-anchor="middle" x="253.5" y="-581.5" font-family="FreeSans" font-size="10.00" fill="#000000">FEMCSetup</text>
</a>
</g>
</g>
<!-- Node1&#45;&gt;Node5 -->
<g id="edge5" class="edge">
<title>Node1&#45;&gt;Node5</title>
<path fill="none" stroke="#191970" d="M97.5726,-509.0718C118.4553,-526.4483 149.415,-549.8921 180,-564.5 191.3365,-569.9145 204.3809,-574.0646 216.3045,-577.1432"/>
<polygon fill="#191970" stroke="#191970" points="99.7086,-506.2944 89.8136,-502.5076 95.1874,-511.6385 99.7086,-506.2944"/>
</g>
<!-- Node25 -->
<g id="node25" class="node">
<title>Node25</title>
<g id="a_node25"><a xlink:href="../../dc/d8e/Fun4All__G4__Prototype2_8C.html#a6b8f092c4f51be2938dd09c810ba6226" target="_top" xlink:title="Fun4All_G4_Prototype2">
<polygon fill="none" stroke="#000000" points="187,-535.5 187,-555.5 320,-555.5 320,-535.5 187,-535.5"/>
<text text-anchor="middle" x="253.5" y="-542.5" font-family="FreeSans" font-size="10.00" fill="#000000">Fun4All_G4_Prototype2</text>
</a>
</g>
</g>
<!-- Node1&#45;&gt;Node25 -->
<g id="edge25" class="edge">
<title>Node1&#45;&gt;Node25</title>
<path fill="none" stroke="#191970" d="M123.6479,-506.1113C141.4042,-512.5968 161.4758,-519.6456 180,-525.5 191.0965,-529.0069 203.2492,-532.4661 214.4208,-535.496"/>
<polygon fill="#191970" stroke="#191970" points="124.6395,-502.7468 114.046,-502.5774 122.2217,-509.316 124.6395,-502.7468"/>
</g>
<!-- Node26 -->
<g id="node26" class="node">
<title>Node26</title>
<g id="a_node26"><a xlink:href="../../d7/d40/Fun4All__G4__Prototype3_8C.html#a1201361263017b08a070777a0b90b27c" target="_top" xlink:title="Fun4All_G4_Prototype3">
<polygon fill="none" stroke="#000000" points="187,-496.5 187,-516.5 320,-516.5 320,-496.5 187,-496.5"/>
<text text-anchor="middle" x="253.5" y="-503.5" font-family="FreeSans" font-size="10.00" fill="#000000">Fun4All_G4_Prototype3</text>
</a>
</g>
</g>
<!-- Node1&#45;&gt;Node26 -->
<g id="edge26" class="edge">
<title>Node1&#45;&gt;Node26</title>
<path fill="none" stroke="#191970" d="M154.2086,-495.5588C165.1177,-496.7609 176.1928,-497.9813 186.7959,-499.1497"/>
<polygon fill="#191970" stroke="#191970" points="154.5783,-492.0784 144.2551,-494.462 153.8116,-499.0363 154.5783,-492.0784"/>
</g>
<!-- Node27 -->
<g id="node27" class="node">
<title>Node27</title>
<g id="a_node27"><a xlink:href="../../d4/d58/Fun4All__G4__Prototype4_8C.html#acac517f0728af658cbf99c7c9687c908" target="_top" xlink:title="Fun4All_G4_Prototype4">
<polygon fill="none" stroke="#000000" points="187,-457.5 187,-477.5 320,-477.5 320,-457.5 187,-457.5"/>
<text text-anchor="middle" x="253.5" y="-464.5" font-family="FreeSans" font-size="10.00" fill="#000000">Fun4All_G4_Prototype4</text>
</a>
</g>
</g>
<!-- Node1&#45;&gt;Node27 -->
<g id="edge27" class="edge">
<title>Node1&#45;&gt;Node27</title>
<path fill="none" stroke="#191970" d="M154.2086,-477.8941C165.1177,-476.7521 176.1928,-475.5928 186.7959,-474.4828"/>
<polygon fill="#191970" stroke="#191970" points="153.8363,-474.4139 144.2551,-478.9361 154.5652,-481.3758 153.8363,-474.4139"/>
</g>
<!-- Node28 -->
<g id="node28" class="node">
<title>Node28</title>
<g id="a_node28"><a xlink:href="../../db/da1/Fun4All__G4__TPC_8C.html#af60bcd3cf09ebd567e28ede14e9e894a" target="_top" xlink:title="Fun4All_G4_TPC">
<polygon fill="none" stroke="#000000" points="205,-418.5 205,-438.5 302,-438.5 302,-418.5 205,-418.5"/>
<text text-anchor="middle" x="253.5" y="-425.5" font-family="FreeSans" font-size="10.00" fill="#000000">Fun4All_G4_TPC</text>
</a>
</g>
</g>
<!-- Node1&#45;&gt;Node28 -->
<g id="edge28" class="edge">
<title>Node1&#45;&gt;Node28</title>
<path fill="none" stroke="#191970" d="M123.1449,-466.9217C141.0108,-460.3789 161.2782,-453.2862 180,-447.5 190.1997,-444.3476 201.3032,-441.288 211.7174,-438.578"/>
<polygon fill="#191970" stroke="#191970" points="121.6589,-463.7394 113.4916,-470.4882 124.0848,-470.3056 121.6589,-463.7394"/>
</g>
<!-- Node29 -->
<g id="node29" class="node">
<title>Node29</title>
<g id="a_node29"><a xlink:href="../../d7/dc0/G4__HcalIn__EIC_8C.html#a3d57117b35676ff1a0c5eb9efed9f101" target="_top" xlink:title="HCalInner">
<polygon fill="none" stroke="#000000" points="220,-379.5 220,-399.5 287,-399.5 287,-379.5 220,-379.5"/>
<text text-anchor="middle" x="253.5" y="-386.5" font-family="FreeSans" font-size="10.00" fill="#000000">HCalInner</text>
</a>
</g>
</g>
<!-- Node1&#45;&gt;Node29 -->
<g id="edge29" class="edge">
<title>Node1&#45;&gt;Node29</title>
<path fill="none" stroke="#191970" d="M97.522,-463.8214C118.3765,-446.3852 149.3228,-422.9132 180,-408.5 192.406,-402.6712 206.8625,-398.4426 219.656,-395.476"/>
<polygon fill="#191970" stroke="#191970" points="95.1247,-461.2657 89.7749,-470.4106 99.6599,-466.5978 95.1247,-461.2657"/>
</g>
<!-- Node30 -->
<g id="node30" class="node">
<title>Node30</title>
<g id="a_node30"><a xlink:href="../../de/d3d/macros_2blob_2master_2macros_2g4simulations_2G4__HcalOut__ref_8C.html#a577e7fca33252e2679529c03012ed0db" target="_top" xlink:title="HCalOuter">
<polygon fill="none" stroke="#000000" points="219,-340.5 219,-360.5 288,-360.5 288,-340.5 219,-340.5"/>
<text text-anchor="middle" x="253.5" y="-347.5" font-family="FreeSans" font-size="10.00" fill="#000000">HCalOuter</text>
</a>
</g>
</g>
<!-- Node1&#45;&gt;Node30 -->
<g id="edge31" class="edge">
<title>Node1&#45;&gt;Node30</title>
<path fill="none" stroke="#191970" d="M88.2935,-461.688C107.1807,-434.9116 140.7849,-392.9625 180,-369.5 191.7625,-362.4624 206.0983,-358.0072 218.9754,-355.1975"/>
<polygon fill="#191970" stroke="#191970" points="85.2617,-459.9192 82.4656,-470.1384 91.0242,-463.8933 85.2617,-459.9192"/>
</g>
<!-- Node31 -->
<g id="node31" class="node">
<title>Node31</title>
<g id="a_node31"><a xlink:href="../../da/d3c/G4__Tracking_8C.html#a29db7ba137ab6b448bd8200c192a0a50" target="_top" xlink:title="Tracking">
<polygon fill="none" stroke="#000000" points="224,-301.5 224,-321.5 283,-321.5 283,-301.5 224,-301.5"/>
<text text-anchor="middle" x="253.5" y="-308.5" font-family="FreeSans" font-size="10.00" fill="#000000">Tracking</text>
</a>
</g>
</g>
<!-- Node1&#45;&gt;Node31 -->
<g id="edge33" class="edge">
<title>Node1&#45;&gt;Node31</title>
<path fill="none" stroke="#191970" d="M82.7155,-460.9155C98.6774,-425.9986 132.0513,-363.9487 180,-330.5 192.8634,-321.5266 209.6497,-316.7901 223.9323,-314.2905"/>
<polygon fill="#191970" stroke="#191970" points="79.3596,-459.8489 78.5003,-470.4089 85.7573,-462.6896 79.3596,-459.8489"/>
</g>
<!-- Node3 -->
<g id="node3" class="node">
<title>Node3</title>
<g id="a_node3"><a xlink:href="../../d1/d8d/macros_2blob_2master_2macros_2g4simulations_2G4__CEmc__Spacal_8C.html#a643b7748ae63dfed5f748e4707bbf1d3" target="_top" xlink:title="EMCal main setup macro.">
<polygon fill="none" stroke="#000000" points="370.5,-632.5 370.5,-652.5 415.5,-652.5 415.5,-632.5 370.5,-632.5"/>
<text text-anchor="middle" x="393" y="-639.5" font-family="FreeSans" font-size="10.00" fill="#000000">CEmc</text>
</a>
</g>
</g>
<!-- Node2&#45;&gt;Node3 -->
<g id="edge2" class="edge">
<title>Node2&#45;&gt;Node3</title>
<path fill="none" stroke="#191970" d="M333.5638,-651.0213C347.0796,-649.0836 360.0671,-647.2216 370.4355,-645.7351"/>
<polygon fill="#191970" stroke="#191970" points="333.0607,-647.5576 323.6587,-652.4414 334.0542,-654.4867 333.0607,-647.5576"/>
</g>
<!-- Node4&#45;&gt;Node3 -->
<g id="edge4" class="edge">
<title>Node4&#45;&gt;Node3</title>
<path fill="none" stroke="#191970" d="M337.1951,-634.8993C349.2962,-636.5475 360.8134,-638.1162 370.2083,-639.3958"/>
<polygon fill="#191970" stroke="#191970" points="337.3076,-631.3824 326.9267,-633.5008 336.3629,-638.3184 337.3076,-631.3824"/>
</g>
<!-- Node6 -->
<g id="node6" class="node">
<title>Node6</title>
<g id="a_node6"><a xlink:href="../../d2/dfe/macros_2blob_2master_2macros_2g4simulations_2G4Setup__EICDetector_8C.html#a5d4cb2d19366a2ae6d2aefe8d2e4a870" target="_top" xlink:title="G4Setup">
<polygon fill="none" stroke="#000000" points="363,-360.5 363,-380.5 423,-380.5 423,-360.5 363,-360.5"/>
<text text-anchor="middle" x="393" y="-367.5" font-family="FreeSans" font-size="10.00" fill="#000000">G4Setup</text>
</a>
</g>
</g>
<!-- Node5&#45;&gt;Node6 -->
<g id="edge6" class="edge">
<title>Node5&#45;&gt;Node6</title>
<path fill="none" stroke="#191970" d="M300.3582,-579.008C310.0975,-576.0007 319.6273,-571.4275 327,-564.5 355.1307,-538.0681 382.9935,-417.0534 390.83,-380.7952"/>
<polygon fill="#191970" stroke="#191970" points="299.4283,-575.6333 290.6212,-581.5226 301.1787,-582.4109 299.4283,-575.6333"/>
</g>
<!-- Node7 -->
<g id="node7" class="node">
<title>Node7</title>
<g id="a_node7"><a xlink:href="../../d3/d7f/Fun_8C.html#af0d3c8a78765149fef9b2beeecfc6279" target="_top" xlink:title="ConfigureDetectors">
<polygon fill="none" stroke="#000000" points="485.5,-696.5 485.5,-716.5 599.5,-716.5 599.5,-696.5 485.5,-696.5"/>
<text text-anchor="middle" x="542.5" y="-703.5" font-family="FreeSans" font-size="10.00" fill="#000000">ConfigureDetectors</text>
</a>
</g>
</g>
<!-- Node6&#45;&gt;Node7 -->
<g id="edge7" class="edge">
<title>Node6&#45;&gt;Node7</title>
<path fill="none" stroke="#191970" d="M394.4577,-390.8418C399.3809,-453.7895 417.4621,-643.7315 459,-686.5 466.166,-693.8783 475.5352,-698.7322 485.3992,-701.8865"/>
<polygon fill="#191970" stroke="#191970" points="397.9298,-390.339 393.6889,-380.63 390.9496,-390.8646 397.9298,-390.339"/>
</g>
<!-- Node9 -->
<g id="node9" class="node">
<title>Node9</title>
<g id="a_node9"><a xlink:href="../../da/d02/Fun4All__G4__EICDetector_8C.html#afbe82cefa1d1fd031d9a8586b7bb68c6" target="_top" xlink:title="Fun4All_G4_EICDetector">
<polygon fill="none" stroke="#000000" points="473,-657.5 473,-677.5 612,-677.5 612,-657.5 473,-657.5"/>
<text text-anchor="middle" x="542.5" y="-664.5" font-family="FreeSans" font-size="10.00" fill="#000000">Fun4All_G4_EICDetector</text>
</a>
</g>
</g>
<!-- Node6&#45;&gt;Node9 -->
<g id="edge9" class="edge">
<title>Node6&#45;&gt;Node9</title>
<path fill="none" stroke="#191970" d="M395.0739,-390.5594C401.4048,-447.9046 422.317,-610.7735 459,-647.5 463.003,-651.5078 467.6575,-654.7664 472.6817,-657.41"/>
<polygon fill="#191970" stroke="#191970" points="398.5486,-390.1356 394.0018,-380.566 391.5886,-390.8823 398.5486,-390.1356"/>
</g>
<!-- Node10 -->
<g id="node10" class="node">
<title>Node10</title>
<g id="a_node10"><a xlink:href="../../dd/d2a/Fun4All__G4__EICDetector__LQ_8C.html#aaa01242fd6e77ca43a9d49a6d46008e4" target="_top" xlink:title="Fun4All_G4_EICDetector_LQ">
<polygon fill="none" stroke="#000000" points="464.5,-618.5 464.5,-638.5 620.5,-638.5 620.5,-618.5 464.5,-618.5"/>
<text text-anchor="middle" x="542.5" y="-625.5" font-family="FreeSans" font-size="10.00" fill="#000000">Fun4All_G4_EICDetector_LQ</text>
</a>
</g>
</g>
<!-- Node6&#45;&gt;Node10 -->
<g id="edge10" class="edge">
<title>Node6&#45;&gt;Node10</title>
<path fill="none" stroke="#191970" d="M395.8918,-390.4112C403.7691,-441.9372 427.1671,-577.7751 459,-608.5 463.183,-612.5374 468.0294,-615.8088 473.2399,-618.4539"/>
<polygon fill="#191970" stroke="#191970" points="399.3511,-389.8783 394.4113,-380.5056 392.428,-390.9131 399.3511,-389.8783"/>
</g>
<!-- Node11 -->
<g id="node11" class="node">
<title>Node11</title>
<g id="a_node11"><a xlink:href="../../d4/df5/Fun4All__G4__EICDetector__LQ__reference_8C.html#a2feefc472f17f90b3cbe74897d049f75" target="_top" xlink:title="Fun4All_G4_EICDetector\l_LQ_reference">
<polygon fill="none" stroke="#000000" points="473,-567.5 473,-599.5 612,-599.5 612,-567.5 473,-567.5"/>
<text text-anchor="start" x="481" y="-586.5" font-family="FreeSans" font-size="10.00" fill="#000000">Fun4All_G4_EICDetector</text>
<text text-anchor="middle" x="542.5" y="-574.5" font-family="FreeSans" font-size="10.00" fill="#000000">_LQ_reference</text>
</a>
</g>
</g>
<!-- Node6&#45;&gt;Node11 -->
<g id="edge11" class="edge">
<title>Node6&#45;&gt;Node11</title>
<path fill="none" stroke="#191970" d="M394.3789,-391.0457C398.0539,-429.2763 411.3615,-511.612 459,-557.5 463.046,-561.3973 467.6667,-564.7111 472.6114,-567.5288"/>
<polygon fill="#191970" stroke="#191970" points="397.8344,-390.3629 393.5203,-380.6861 390.8583,-390.9411 397.8344,-390.3629"/>
</g>
<!-- Node12 -->
<g id="node12" class="node">
<title>Node12</title>
<g id="a_node12"><a xlink:href="../../d3/d51/Fun4All__G4__EICDetector__RICH_8C.html#a5739502b0a7a1ba782c01069f77e933f" target="_top" xlink:title="Fun4All_G4_EICDetector_RICH">
<polygon fill="none" stroke="#000000" points="459,-528.5 459,-548.5 626,-548.5 626,-528.5 459,-528.5"/>
<text text-anchor="middle" x="542.5" y="-535.5" font-family="FreeSans" font-size="10.00" fill="#000000">Fun4All_G4_EICDetector_RICH</text>
</a>
</g>
</g>
<!-- Node6&#45;&gt;Node12 -->
<g id="edge12" class="edge">
<title>Node6&#45;&gt;Node12</title>
<path fill="none" stroke="#191970" d="M396.159,-390.5756C402.2957,-422.6481 418.9289,-485.2114 459,-518.5 463.8158,-522.5007 469.2989,-525.7269 475.1008,-528.3252"/>
<polygon fill="#191970" stroke="#191970" points="399.584,-389.8434 394.4049,-380.6008 392.6898,-391.0559 399.584,-389.8434"/>
</g>
<!-- Node13 -->
<g id="node13" class="node">
<title>Node13</title>
<g id="a_node13"><a xlink:href="../../d9/d0e/Fun4All__G4__EICIR_8C.html#ac3543d1dd4a0abed3987d40939ee3f87" target="_top" xlink:title="Fun4All_G4_EICIR">
<polygon fill="none" stroke="#000000" points="490.5,-489.5 490.5,-509.5 594.5,-509.5 594.5,-489.5 490.5,-489.5"/>
<text text-anchor="middle" x="542.5" y="-496.5" font-family="FreeSans" font-size="10.00" fill="#000000">Fun4All_G4_EICIR</text>
</a>
</g>
</g>
<!-- Node6&#45;&gt;Node13 -->
<g id="edge13" class="edge">
<title>Node6&#45;&gt;Node13</title>
<path fill="none" stroke="#191970" d="M399.5275,-390.2192C408.7613,-414.9659 428.047,-456.8978 459,-479.5 468.1494,-486.181 479.2255,-490.6578 490.2781,-493.6504"/>
<polygon fill="#191970" stroke="#191970" points="402.8192,-389.0294 396.1809,-380.7721 396.221,-391.3668 402.8192,-389.0294"/>
</g>
<!-- Node14 -->
<g id="node14" class="node">
<title>Node14</title>
<g id="a_node14"><a xlink:href="../../d7/d9e/Fun4All__G4__fsPHENIX_8C.html#af48911d394d2412e817583700f2bbee2" target="_top" xlink:title="Fun4All_G4_fsPHENIX">
<polygon fill="none" stroke="#000000" points="480.5,-450.5 480.5,-470.5 604.5,-470.5 604.5,-450.5 480.5,-450.5"/>
<text text-anchor="middle" x="542.5" y="-457.5" font-family="FreeSans" font-size="10.00" fill="#000000">Fun4All_G4_fsPHENIX</text>
</a>
</g>
</g>
<!-- Node6&#45;&gt;Node14 -->
<g id="edge14" class="edge">
<title>Node6&#45;&gt;Node14</title>
<path fill="none" stroke="#191970" d="M405.7208,-389.164C417.6361,-405.1974 436.8891,-427.6945 459,-440.5 466.0947,-444.6089 473.995,-447.8754 482.0274,-450.4718"/>
<polygon fill="#191970" stroke="#191970" points="408.253,-386.6882 399.5871,-380.5929 402.5605,-390.7619 408.253,-386.6882"/>
</g>
<!-- Node15 -->
<g id="node15" class="node">
<title>Node15</title>
<g id="a_node15"><a xlink:href="../../da/d2f/Fun4All__G4__fsPHENIX__FastSim_8C.html#a66fb850cae5fcaadda23b74a25ce4c9c" target="_top" xlink:title="Fun4All_G4_fsPHENIX\l_FastSim">
<polygon fill="none" stroke="#000000" points="480.5,-399.5 480.5,-431.5 604.5,-431.5 604.5,-399.5 480.5,-399.5"/>
<text text-anchor="start" x="488.5" y="-418.5" font-family="FreeSans" font-size="10.00" fill="#000000">Fun4All_G4_fsPHENIX</text>
<text text-anchor="middle" x="542.5" y="-406.5" font-family="FreeSans" font-size="10.00" fill="#000000">_FastSim</text>
</a>
</g>
</g>
<!-- Node6&#45;&gt;Node15 -->
<g id="edge15" class="edge">
<title>Node6&#45;&gt;Node15</title>
<path fill="none" stroke="#191970" d="M433.0215,-382.5466C450.302,-387.7481 470.7664,-393.9079 489.2985,-399.4862"/>
<polygon fill="#191970" stroke="#191970" points="433.838,-379.1373 423.2536,-379.6064 431.8203,-385.8402 433.838,-379.1373"/>
</g>
<!-- Node16 -->
<g id="node16" class="node">
<title>Node16</title>
<g id="a_node16"><a xlink:href="../../d0/da6/Fun4All__G4__fsPHENIX__pi0_8C.html#a023d91d47b678e5d7f1751834aa517c6" target="_top" xlink:title="Fun4All_G4_fsPHENIX_pi0">
<polygon fill="none" stroke="#000000" points="470,-360.5 470,-380.5 615,-380.5 615,-360.5 470,-360.5"/>
<text text-anchor="middle" x="542.5" y="-367.5" font-family="FreeSans" font-size="10.00" fill="#000000">Fun4All_G4_fsPHENIX_pi0</text>
</a>
</g>
</g>
<!-- Node6&#45;&gt;Node16 -->
<g id="edge16" class="edge">
<title>Node6&#45;&gt;Node16</title>
<path fill="none" stroke="#191970" d="M433.2574,-370.5C444.6119,-370.5 457.3264,-370.5 469.9568,-370.5"/>
<polygon fill="#191970" stroke="#191970" points="433.2536,-367.0001 423.2536,-370.5 433.2535,-374.0001 433.2536,-367.0001"/>
</g>
<!-- Node17 -->
<g id="node17" class="node">
<title>Node17</title>
<g id="a_node17"><a xlink:href="../../d5/d2c/macros_2blob_2master_2macros_2g4simulations_2Fun4All__G4__sPHENIX_8C.html#a6eaaa492d7023ec86c562dc63aa1e5a4" target="_top" xlink:title="Fun4All_G4_sPHENIX">
<polygon fill="none" stroke="#000000" points="482,-321.5 482,-341.5 603,-341.5 603,-321.5 482,-321.5"/>
<text text-anchor="middle" x="542.5" y="-328.5" font-family="FreeSans" font-size="10.00" fill="#000000">Fun4All_G4_sPHENIX</text>
</a>
</g>
</g>
<!-- Node6&#45;&gt;Node17 -->
<g id="edge17" class="edge">
<title>Node6&#45;&gt;Node17</title>
<path fill="none" stroke="#191970" d="M432.8989,-357.9156C441.4772,-355.3486 450.5151,-352.7479 459,-350.5 470.7844,-347.3779 483.5866,-344.3065 495.5454,-341.5736"/>
<polygon fill="#191970" stroke="#191970" points="431.6524,-354.6362 423.1005,-360.8904 433.686,-361.3343 431.6524,-354.6362"/>
</g>
<!-- Node18 -->
<g id="node18" class="node">
<title>Node18</title>
<g id="a_node18"><a xlink:href="../../d3/de2/Fun4All__G4__sPHENIX__AnaGenFit_8C.html#a9bf3f2f72ed69a17e2d0c1121d48013c" target="_top" xlink:title="Fun4All_G4_sPHENIX\l_AnaGenFit">
<polygon fill="none" stroke="#000000" points="482,-270.5 482,-302.5 603,-302.5 603,-270.5 482,-270.5"/>
<text text-anchor="start" x="490" y="-289.5" font-family="FreeSans" font-size="10.00" fill="#000000">Fun4All_G4_sPHENIX</text>
<text text-anchor="middle" x="542.5" y="-277.5" font-family="FreeSans" font-size="10.00" fill="#000000">_AnaGenFit</text>
</a>
</g>
</g>
<!-- Node6&#45;&gt;Node18 -->
<g id="edge18" class="edge">
<title>Node6&#45;&gt;Node18</title>
<path fill="none" stroke="#191970" d="M408.7303,-352.734C421.1939,-339.6473 439.6741,-322.3147 459,-311.5 466.1309,-307.5096 473.9687,-304.0903 481.898,-301.1786"/>
<polygon fill="#191970" stroke="#191970" points="406.0119,-350.5185 401.7936,-360.2374 411.152,-355.2704 406.0119,-350.5185"/>
</g>
<!-- Node19 -->
<g id="node19" class="node">
<title>Node19</title>
<g id="a_node19"><a xlink:href="../../da/dd0/Fun4All__G4__sPHENIX__photonjet_8C.html#a6f18519e216acc05399e562ea57ea77c" target="_top" xlink:title="Fun4All_G4_sPHENIX\l_photonjet">
<polygon fill="none" stroke="#000000" points="482,-219.5 482,-251.5 603,-251.5 603,-219.5 482,-219.5"/>
<text text-anchor="start" x="490" y="-238.5" font-family="FreeSans" font-size="10.00" fill="#000000">Fun4All_G4_sPHENIX</text>
<text text-anchor="middle" x="542.5" y="-226.5" font-family="FreeSans" font-size="10.00" fill="#000000">_photonjet</text>
</a>
</g>
</g>
<!-- Node6&#45;&gt;Node19 -->
<g id="edge19" class="edge">
<title>Node6&#45;&gt;Node19</title>
<path fill="none" stroke="#191970" d="M399.6801,-350.8716C409.076,-326.1865 428.5337,-284.1764 459,-260.5 465.8106,-255.2072 473.728,-251.032 481.9216,-247.7391"/>
<polygon fill="#191970" stroke="#191970" points="396.3849,-349.6921 396.2666,-360.2862 402.9657,-352.0781 396.3849,-349.6921"/>
</g>
<!-- Node20 -->
<g id="node20" class="node">
<title>Node20</title>
<g id="a_node20"><a xlink:href="../../da/d85/Fun4All__G4__sPHENIX__photons_8C.html#a02fbbd59878fe1299f58ed187e7214ba" target="_top" xlink:title="Fun4All_G4_sPHENIX\l_photons">
<polygon fill="none" stroke="#000000" points="482,-168.5 482,-200.5 603,-200.5 603,-168.5 482,-168.5"/>
<text text-anchor="start" x="490" y="-187.5" font-family="FreeSans" font-size="10.00" fill="#000000">Fun4All_G4_sPHENIX</text>
<text text-anchor="middle" x="542.5" y="-175.5" font-family="FreeSans" font-size="10.00" fill="#000000">_photons</text>
</a>
</g>
</g>
<!-- Node6&#45;&gt;Node20 -->
<g id="edge20" class="edge">
<title>Node6&#45;&gt;Node20</title>
<path fill="none" stroke="#191970" d="M395.6091,-350.4063C401.0891,-316.4243 416.9709,-247.5944 459,-209.5 465.503,-203.6058 473.3455,-199.0991 481.5866,-195.6538"/>
<polygon fill="#191970" stroke="#191970" points="392.117,-350.0974 394.1266,-360.4999 399.0427,-351.1146 392.117,-350.0974"/>
</g>
<!-- Node21 -->
<g id="node21" class="node">
<title>Node21</title>
<g id="a_node21"><a xlink:href="../../de/d55/Fun4All__G4__sPHENIX__truthphotonjet_8C.html#a48a6f4503eaa1b3793d8ae572aa795b9" target="_top" xlink:title="Fun4All_G4_sPHENIX\l_truthphotonjet">
<polygon fill="none" stroke="#000000" points="482,-117.5 482,-149.5 603,-149.5 603,-117.5 482,-117.5"/>
<text text-anchor="start" x="490" y="-136.5" font-family="FreeSans" font-size="10.00" fill="#000000">Fun4All_G4_sPHENIX</text>
<text text-anchor="middle" x="542.5" y="-124.5" font-family="FreeSans" font-size="10.00" fill="#000000">_truthphotonjet</text>
</a>
</g>
</g>
<!-- Node6&#45;&gt;Node21 -->
<g id="edge21" class="edge">
<title>Node6&#45;&gt;Node21</title>
<path fill="none" stroke="#191970" d="M396.7732,-350.3624C406.0444,-302.9055 431.218,-185.9807 459,-158.5 465.455,-152.115 473.471,-147.3497 481.9617,-143.7955"/>
<polygon fill="#191970" stroke="#191970" points="393.3031,-349.8745 394.8569,-360.3548 400.1778,-351.193 393.3031,-349.8745"/>
</g>
<!-- Node22 -->
<g id="node22" class="node">
<title>Node22</title>
<g id="a_node22"><a xlink:href="../../d4/d65/Fun4All__single__particle_8C.html#a8a492b5dbead494bfdddbebde8a49b0e" target="_top" xlink:title="Fun4All_single_particle">
<polygon fill="none" stroke="#000000" points="476.5,-78.5 476.5,-98.5 608.5,-98.5 608.5,-78.5 476.5,-78.5"/>
<text text-anchor="middle" x="542.5" y="-85.5" font-family="FreeSans" font-size="10.00" fill="#000000">Fun4All_single_particle</text>
</a>
</g>
</g>
<!-- Node6&#45;&gt;Node22 -->
<g id="edge22" class="edge">
<title>Node6&#45;&gt;Node22</title>
<path fill="none" stroke="#191970" d="M395.3374,-350.3423C402.174,-294.8774 423.8945,-141.8368 459,-107.5 463.9953,-102.6141 469.9709,-98.8818 476.3985,-96.0442"/>
<polygon fill="#191970" stroke="#191970" points="391.8534,-349.9998 394.1368,-360.3457 398.8036,-350.834 391.8534,-349.9998"/>
</g>
<!-- Node23 -->
<g id="node23" class="node">
<title>Node23</title>
<g id="a_node23"><a xlink:href="../../d0/d99/Jin__BJet_8C.html#a36169bfee2ed7efda633944d12aebad9" target="_top" xlink:title="Jin_BJet">
<polygon fill="none" stroke="#000000" points="515,-39.5 515,-59.5 570,-59.5 570,-39.5 515,-39.5"/>
<text text-anchor="middle" x="542.5" y="-46.5" font-family="FreeSans" font-size="10.00" fill="#000000">Jin_BJet</text>
</a>
</g>
</g>
<!-- Node6&#45;&gt;Node23 -->
<g id="edge23" class="edge">
<title>Node6&#45;&gt;Node23</title>
<path fill="none" stroke="#191970" d="M394.6409,-350.2505C399.997,-289.2346 418.9758,-108.8688 459,-68.5 473.4451,-53.9305 496.5807,-49.5476 514.8398,-48.6025"/>
<polygon fill="#191970" stroke="#191970" points="391.1301,-350.2312 393.7731,-360.4911 398.1051,-350.8224 391.1301,-350.2312"/>
</g>
<!-- Node24 -->
<g id="node24" class="node">
<title>Node24</title>
<g id="a_node24"><a xlink:href="../../dd/db1/Wrapper_8cxx.html#abf1e42281903daa0752c80dd6c879fac" target="_top" xlink:title="Wrapper">
<polygon fill="none" stroke="#000000" points="512.5,-.5 512.5,-20.5 572.5,-20.5 572.5,-.5 512.5,-.5"/>
<text text-anchor="middle" x="542.5" y="-7.5" font-family="FreeSans" font-size="10.00" fill="#000000">Wrapper</text>
</a>
</g>
</g>
<!-- Node6&#45;&gt;Node24 -->
<g id="edge24" class="edge">
<title>Node6&#45;&gt;Node24</title>
<path fill="none" stroke="#191970" d="M394.0901,-350.2645C398.068,-284.1352 414.0024,-75.9867 459,-29.5 472.649,-15.3993 494.4225,-10.7885 512.3133,-9.63"/>
<polygon fill="#191970" stroke="#191970" points="390.5954,-350.0726 393.5164,-360.2568 397.5839,-350.4739 390.5954,-350.0726"/>
</g>
<!-- Node8 -->
<g id="node8" class="node">
<title>Node8</title>
<g id="a_node8"><a xlink:href="../../d3/d7f/Fun_8C.html#af69a3eef3ff244bb51f5740c6ecb5432" target="_top" xlink:title="Fun">
<polygon fill="none" stroke="#000000" points="662,-696.5 662,-716.5 696,-716.5 696,-696.5 662,-696.5"/>
<text text-anchor="middle" x="679" y="-703.5" font-family="FreeSans" font-size="10.00" fill="#000000">Fun</text>
</a>
</g>
</g>
<!-- Node7&#45;&gt;Node8 -->
<g id="edge8" class="edge">
<title>Node7&#45;&gt;Node8</title>
<path fill="none" stroke="#191970" d="M609.6941,-706.5C629.0852,-706.5 648.59,-706.5 661.9452,-706.5"/>
<polygon fill="#191970" stroke="#191970" points="609.5974,-703.0001 599.5974,-706.5 609.5974,-710.0001 609.5974,-703.0001"/>
</g>
<!-- Node29&#45;&gt;Node6 -->
<g id="edge30" class="edge">
<title>Node29&#45;&gt;Node6</title>
<path fill="none" stroke="#191970" d="M297.3845,-383.5229C318.6904,-380.621 343.7475,-377.2082 362.8648,-374.6044"/>
<polygon fill="#191970" stroke="#191970" points="296.7052,-380.083 287.2691,-384.9006 297.6499,-387.019 296.7052,-380.083"/>
</g>
<!-- Node30&#45;&gt;Node6 -->
<g id="edge32" class="edge">
<title>Node30&#45;&gt;Node6</title>
<path fill="none" stroke="#191970" d="M298.3723,-356.9333C319.4584,-359.9564 344.0351,-363.4799 362.8567,-366.1784"/>
<polygon fill="#191970" stroke="#191970" points="298.7374,-353.4499 288.3419,-355.4953 297.7439,-360.3791 298.7374,-353.4499"/>
</g>
<!-- Node31&#45;&gt;Node6 -->
<g id="edge34" class="edge">
<title>Node31&#45;&gt;Node6</title>
<path fill="none" stroke="#191970" d="M293.0896,-319.4832C304.2746,-322.3382 316.3067,-325.9926 327,-330.5 346.0135,-338.5145 366.0353,-351.3616 378.9717,-360.3269"/>
<polygon fill="#191970" stroke="#191970" points="293.6598,-316.0206 283.1185,-317.0845 292.0225,-322.8264 293.6598,-316.0206"/>
</g>
</g>
</svg>
