<?xml version="1.0" encoding="UTF-8" standalone="no"?>
<!DOCTYPE svg PUBLIC "-//W3C//DTD SVG 1.1//EN"
 "http://www.w3.org/Graphics/SVG/1.1/DTD/svg11.dtd">
<!-- Generated by graphviz version 2.40.1 (20161225.0304)
 -->
<!-- Title: PHG4DetectorSubsystem::OverlapCheck Pages: 1 -->
<svg width="704pt" height="818pt"
 viewBox="0.00 0.00 704.00 818.00" xmlns="http://www.w3.org/2000/svg" xmlns:xlink="http://www.w3.org/1999/xlink">
<g id="graph0" class="graph" transform="scale(1 1) rotate(0) translate(4 814)">
<title>PHG4DetectorSubsystem::OverlapCheck</title>
<!-- Node1 -->
<g id="node1" class="node">
<title>Node1</title>
<polygon fill="#bfbfbf" stroke="#000000" points="0,-451.5 0,-483.5 144,-483.5 144,-451.5 0,-451.5"/>
<text text-anchor="start" x="8" y="-470.5" font-family="FreeSans" font-size="10.00" fill="#000000">PHG4DetectorSubsystem</text>
<text text-anchor="middle" x="72" y="-458.5" font-family="FreeSans" font-size="10.00" fill="#000000">::OverlapCheck</text>
</g>
<!-- Node2 -->
<g id="node2" class="node">
<title>Node2</title>
<g id="a_node2"><a xlink:href="../../d8/d4c/G4__CEmc__EIC_8C.html#a643b7748ae63dfed5f748e4707bbf1d3" target="_top" xlink:title="CEmc">
<polygon fill="none" stroke="#000000" points="231,-711.5 231,-731.5 276,-731.5 276,-711.5 231,-711.5"/>
<text text-anchor="middle" x="253.5" y="-718.5" font-family="FreeSans" font-size="10.00" fill="#000000">CEmc</text>
</a>
</g>
</g>
<!-- Node1&#45;&gt;Node2 -->
<g id="edge1" class="edge">
<title>Node1&#45;&gt;Node2</title>
<path fill="none" stroke="#191970" d="M76.4783,-493.8638C86.1899,-542.6808 113.8752,-647.1998 180,-702.5 194.2555,-714.4219 215.1046,-718.9749 230.9596,-720.6597"/>
<polygon fill="#191970" stroke="#191970" points="79.8705,-492.965 74.5744,-483.7889 72.9922,-494.2649 79.8705,-492.965"/>
</g>
<!-- Node22 -->
<g id="node22" class="node">
<title>Node22</title>
<g id="a_node22"><a xlink:href="../../d1/d8d/macros_2blob_2master_2macros_2g4simulations_2G4__CEmc__Spacal_8C.html#a5a524f976392ac304e84c872e8d435d1" target="_top" xlink:title="EMCal setup macro &#45; 1D azimuthal projective SPACAL.">
<polygon fill="none" stroke="#000000" points="180,-789.5 180,-809.5 327,-809.5 327,-789.5 180,-789.5"/>
<text text-anchor="middle" x="253.5" y="-796.5" font-family="FreeSans" font-size="10.00" fill="#000000">CEmc_1DProjectiveSpacal</text>
</a>
</g>
</g>
<!-- Node1&#45;&gt;Node22 -->
<g id="edge21" class="edge">
<title>Node1&#45;&gt;Node22</title>
<path fill="none" stroke="#191970" d="M77.6719,-493.6088C92.8862,-561.3445 136.4106,-740.2367 180,-780.5 183.8727,-784.0771 188.3295,-787.0003 193.0935,-789.3865"/>
<polygon fill="#191970" stroke="#191970" points="81.0628,-492.7333 75.4774,-483.7303 74.2293,-494.2513 81.0628,-492.7333"/>
</g>
<!-- Node24 -->
<g id="node24" class="node">
<title>Node24</title>
<g id="a_node24"><a xlink:href="../../d1/d8d/macros_2blob_2master_2macros_2g4simulations_2G4__CEmc__Spacal_8C.html#a034d8a445c397fdcb3c0be0b80d91cfb" target="_top" xlink:title="2D full projective SPACAL">
<polygon fill="none" stroke="#000000" points="180,-750.5 180,-770.5 327,-770.5 327,-750.5 180,-750.5"/>
<text text-anchor="middle" x="253.5" y="-757.5" font-family="FreeSans" font-size="10.00" fill="#000000">CEmc_2DProjectiveSpacal</text>
</a>
</g>
</g>
<!-- Node1&#45;&gt;Node24 -->
<g id="edge23" class="edge">
<title>Node1&#45;&gt;Node24</title>
<path fill="none" stroke="#191970" d="M74.5491,-493.8753C81.2819,-548.5699 104.5736,-674.7901 180,-741.5 184.0477,-745.08 188.6842,-748.0006 193.617,-750.3812"/>
<polygon fill="#191970" stroke="#191970" points="77.9917,-493.1716 73.3818,-483.6323 71.0367,-493.9643 77.9917,-493.1716"/>
</g>
<!-- Node25 -->
<g id="node25" class="node">
<title>Node25</title>
<g id="a_node25"><a xlink:href="../../db/d89/ConstructGeometry_8C.html#a21c369835643f1016f506a3da3b8d446" target="_top" xlink:title="ConstructGeometry">
<polygon fill="none" stroke="#000000" points="196,-672.5 196,-692.5 311,-692.5 311,-672.5 196,-672.5"/>
<text text-anchor="middle" x="253.5" y="-679.5" font-family="FreeSans" font-size="10.00" fill="#000000">ConstructGeometry</text>
</a>
</g>
</g>
<!-- Node1&#45;&gt;Node25 -->
<g id="edge25" class="edge">
<title>Node1&#45;&gt;Node25</title>
<path fill="none" stroke="#191970" d="M78.9595,-493.3614C91.6959,-535.6046 122.8478,-619.1377 180,-663.5 184.7893,-667.2175 190.2305,-670.2125 195.9348,-672.6246"/>
<polygon fill="#191970" stroke="#191970" points="82.2633,-492.1876 76.1136,-483.5602 75.5409,-494.1395 82.2633,-492.1876"/>
</g>
<!-- Node26 -->
<g id="node26" class="node">
<title>Node26</title>
<g id="a_node26"><a xlink:href="../../d3/dc0/macros_2blob_2master_2macros_2g4simulations_2G4__DIRC_8C.html#acbdf429e4e41a2057e053691cc0b4128" target="_top" xlink:title="DIRCSetup">
<polygon fill="none" stroke="#000000" points="218.5,-633.5 218.5,-653.5 288.5,-653.5 288.5,-633.5 218.5,-633.5"/>
<text text-anchor="middle" x="253.5" y="-640.5" font-family="FreeSans" font-size="10.00" fill="#000000">DIRCSetup</text>
</a>
</g>
</g>
<!-- Node1&#45;&gt;Node26 -->
<g id="edge26" class="edge">
<title>Node1&#45;&gt;Node26</title>
<path fill="none" stroke="#191970" d="M82.6709,-493.2478C98.5806,-528.3876 131.8935,-590.8343 180,-624.5 191.2302,-632.3591 205.4663,-636.9684 218.4125,-639.6714"/>
<polygon fill="#191970" stroke="#191970" points="85.6994,-491.4396 78.4707,-483.6938 79.2913,-494.2568 85.6994,-491.4396"/>
</g>
<!-- Node27 -->
<g id="node27" class="node">
<title>Node27</title>
<g id="a_node27"><a xlink:href="../../d6/d5c/macros_2blob_2master_2macros_2g4simulations_2G4__FEMC_8C.html#a46bf470cecae66db11fccb5925a48429" target="_top" xlink:title="FEMCSetup">
<polygon fill="none" stroke="#000000" points="216.5,-594.5 216.5,-614.5 290.5,-614.5 290.5,-594.5 216.5,-594.5"/>
<text text-anchor="middle" x="253.5" y="-601.5" font-family="FreeSans" font-size="10.00" fill="#000000">FEMCSetup</text>
</a>
</g>
</g>
<!-- Node1&#45;&gt;Node27 -->
<g id="edge28" class="edge">
<title>Node1&#45;&gt;Node27</title>
<path fill="none" stroke="#191970" d="M87.9381,-492.0883C106.7231,-519.075 140.4398,-561.7169 180,-585.5 190.9569,-592.0871 204.1629,-596.4103 216.3405,-599.2394"/>
<polygon fill="#191970" stroke="#191970" points="90.6724,-489.885 82.1532,-483.5864 84.8851,-493.8229 90.6724,-489.885"/>
</g>
<!-- Node28 -->
<g id="node28" class="node">
<title>Node28</title>
<g id="a_node28"><a xlink:href="../../dc/d8e/Fun4All__G4__Prototype2_8C.html#a6b8f092c4f51be2938dd09c810ba6226" target="_top" xlink:title="Fun4All_G4_Prototype2">
<polygon fill="none" stroke="#000000" points="187,-555.5 187,-575.5 320,-575.5 320,-555.5 187,-555.5"/>
<text text-anchor="middle" x="253.5" y="-562.5" font-family="FreeSans" font-size="10.00" fill="#000000">Fun4All_G4_Prototype2</text>
</a>
</g>
</g>
<!-- Node1&#45;&gt;Node28 -->
<g id="edge30" class="edge">
<title>Node1&#45;&gt;Node28</title>
<path fill="none" stroke="#191970" d="M97.4719,-490.4847C118.2983,-508.153 149.2314,-531.9299 180,-546.5 187.5044,-550.0536 195.7666,-553.0089 203.9591,-555.4451"/>
<polygon fill="#191970" stroke="#191970" points="99.5934,-487.6923 89.7365,-483.8073 95.0193,-492.9912 99.5934,-487.6923"/>
</g>
<!-- Node29 -->
<g id="node29" class="node">
<title>Node29</title>
<g id="a_node29"><a xlink:href="../../d7/d40/Fun4All__G4__Prototype3_8C.html#a1201361263017b08a070777a0b90b27c" target="_top" xlink:title="Fun4All_G4_Prototype3">
<polygon fill="none" stroke="#000000" points="187,-516.5 187,-536.5 320,-536.5 320,-516.5 187,-516.5"/>
<text text-anchor="middle" x="253.5" y="-523.5" font-family="FreeSans" font-size="10.00" fill="#000000">Fun4All_G4_Prototype3</text>
</a>
</g>
</g>
<!-- Node1&#45;&gt;Node29 -->
<g id="edge31" class="edge">
<title>Node1&#45;&gt;Node29</title>
<path fill="none" stroke="#191970" d="M121.9395,-487.2024C140.0834,-494.0395 160.8358,-501.4912 180,-507.5 190.1867,-510.694 201.2854,-513.7689 211.6992,-516.4804"/>
<polygon fill="#191970" stroke="#191970" points="123.025,-483.8707 112.434,-483.5875 120.5368,-490.4135 123.025,-483.8707"/>
</g>
<!-- Node30 -->
<g id="node30" class="node">
<title>Node30</title>
<g id="a_node30"><a xlink:href="../../d4/d58/Fun4All__G4__Prototype4_8C.html#acac517f0728af658cbf99c7c9687c908" target="_top" xlink:title="Fun4All_G4_Prototype4">
<polygon fill="none" stroke="#000000" points="187,-477.5 187,-497.5 320,-497.5 320,-477.5 187,-477.5"/>
<text text-anchor="middle" x="253.5" y="-484.5" font-family="FreeSans" font-size="10.00" fill="#000000">Fun4All_G4_Prototype4</text>
</a>
</g>
</g>
<!-- Node1&#45;&gt;Node30 -->
<g id="edge32" class="edge">
<title>Node1&#45;&gt;Node30</title>
<path fill="none" stroke="#191970" d="M154.2086,-476.5588C165.1177,-477.7609 176.1928,-478.9813 186.7959,-480.1497"/>
<polygon fill="#191970" stroke="#191970" points="154.5783,-473.0784 144.2551,-475.462 153.8116,-480.0363 154.5783,-473.0784"/>
</g>
<!-- Node31 -->
<g id="node31" class="node">
<title>Node31</title>
<g id="a_node31"><a xlink:href="../../db/da1/Fun4All__G4__TPC_8C.html#af60bcd3cf09ebd567e28ede14e9e894a" target="_top" xlink:title="Fun4All_G4_TPC">
<polygon fill="none" stroke="#000000" points="205,-438.5 205,-458.5 302,-458.5 302,-438.5 205,-438.5"/>
<text text-anchor="middle" x="253.5" y="-445.5" font-family="FreeSans" font-size="10.00" fill="#000000">Fun4All_G4_TPC</text>
</a>
</g>
</g>
<!-- Node1&#45;&gt;Node31 -->
<g id="edge33" class="edge">
<title>Node1&#45;&gt;Node31</title>
<path fill="none" stroke="#191970" d="M154.3638,-458.8779C171.6455,-457.0688 189.3363,-455.2169 204.9005,-453.5876"/>
<polygon fill="#191970" stroke="#191970" points="153.8363,-455.4139 144.2551,-459.9361 154.5652,-462.3759 153.8363,-455.4139"/>
</g>
<!-- Node32 -->
<g id="node32" class="node">
<title>Node32</title>
<g id="a_node32"><a xlink:href="../../da/db5/Fun4All__G4__W_8C.html#ad4745423f42356b6b3cb65bbbc1e917e" target="_top" xlink:title="Fun4All_G4_W">
<polygon fill="none" stroke="#000000" points="209.5,-399.5 209.5,-419.5 297.5,-419.5 297.5,-399.5 209.5,-399.5"/>
<text text-anchor="middle" x="253.5" y="-406.5" font-family="FreeSans" font-size="10.00" fill="#000000">Fun4All_G4_W</text>
</a>
</g>
</g>
<!-- Node1&#45;&gt;Node32 -->
<g id="edge34" class="edge">
<title>Node1&#45;&gt;Node32</title>
<path fill="none" stroke="#191970" d="M124.8392,-448.0464C142.3097,-441.8457 161.9064,-435.1367 180,-429.5 191.1108,-426.0387 203.268,-422.5937 214.4393,-419.5629"/>
<polygon fill="#191970" stroke="#191970" points="123.6138,-444.7675 115.3752,-451.4289 125.9698,-451.3591 123.6138,-444.7675"/>
</g>
<!-- Node33 -->
<g id="node33" class="node">
<title>Node33</title>
<g id="a_node33"><a xlink:href="../../de/dd3/G4Setup__EICIR_8C.html#a674566a8ab8ae9b3ee5426df2818e2ec" target="_top" xlink:title="G4Setup">
<polygon fill="none" stroke="#000000" points="363,-185.5 363,-205.5 423,-205.5 423,-185.5 363,-185.5"/>
<text text-anchor="middle" x="393" y="-192.5" font-family="FreeSans" font-size="10.00" fill="#000000">G4Setup</text>
</a>
</g>
</g>
<!-- Node1&#45;&gt;Node33 -->
<g id="edge35" class="edge">
<title>Node1&#45;&gt;Node33</title>
<path fill="none" stroke="#191970" d="M76.1205,-441.2622C85.2838,-392.2555 112.1598,-287.0343 180,-234.5 208.0889,-212.7484 310.8004,-201.8571 362.6394,-197.6461"/>
<polygon fill="#191970" stroke="#191970" points="72.628,-440.9133 74.3353,-451.3697 79.5213,-442.1309 72.628,-440.9133"/>
</g>
<!-- Node34 -->
<g id="node34" class="node">
<title>Node34</title>
<g id="a_node34"><a xlink:href="../../d7/dc0/G4__HcalIn__EIC_8C.html#a3d57117b35676ff1a0c5eb9efed9f101" target="_top" xlink:title="HCalInner">
<polygon fill="none" stroke="#000000" points="220,-360.5 220,-380.5 287,-380.5 287,-360.5 220,-360.5"/>
<text text-anchor="middle" x="253.5" y="-367.5" font-family="FreeSans" font-size="10.00" fill="#000000">HCalInner</text>
</a>
</g>
</g>
<!-- Node1&#45;&gt;Node34 -->
<g id="edge36" class="edge">
<title>Node1&#45;&gt;Node34</title>
<path fill="none" stroke="#191970" d="M98.0007,-444.9236C118.905,-427.8112 149.6882,-404.8638 180,-390.5 192.4286,-384.6105 206.8893,-380.2054 219.6798,-377.0507"/>
<polygon fill="#191970" stroke="#191970" points="95.6705,-442.3094 90.2224,-451.3961 100.1479,-447.6901 95.6705,-442.3094"/>
</g>
<!-- Node35 -->
<g id="node35" class="node">
<title>Node35</title>
<g id="a_node35"><a xlink:href="../../de/d3d/macros_2blob_2master_2macros_2g4simulations_2G4__HcalOut__ref_8C.html#a577e7fca33252e2679529c03012ed0db" target="_top" xlink:title="HCalOuter">
<polygon fill="none" stroke="#000000" points="219,-321.5 219,-341.5 288,-341.5 288,-321.5 219,-321.5"/>
<text text-anchor="middle" x="253.5" y="-328.5" font-family="FreeSans" font-size="10.00" fill="#000000">HCalOuter</text>
</a>
</g>
</g>
<!-- Node1&#45;&gt;Node35 -->
<g id="edge38" class="edge">
<title>Node1&#45;&gt;Node35</title>
<path fill="none" stroke="#191970" d="M88.3987,-442.9967C107.3787,-416.5345 141.0643,-375.0188 180,-351.5 191.7724,-344.389 206.1101,-339.7549 218.9858,-336.7588"/>
<polygon fill="#191970" stroke="#191970" points="85.4188,-441.15 82.5394,-451.3461 91.1487,-445.1711 85.4188,-441.15"/>
</g>
<!-- Node36 -->
<g id="node36" class="node">
<title>Node36</title>
<g id="a_node36"><a xlink:href="../../d1/d9e/G4__IR__EIC_8C.html#a866137a6aef46434fb1991996576f8ae" target="_top" xlink:title="IRSetup">
<polygon fill="none" stroke="#000000" points="225.5,-165.5 225.5,-185.5 281.5,-185.5 281.5,-165.5 225.5,-165.5"/>
<text text-anchor="middle" x="253.5" y="-172.5" font-family="FreeSans" font-size="10.00" fill="#000000">IRSetup</text>
</a>
</g>
</g>
<!-- Node1&#45;&gt;Node36 -->
<g id="edge40" class="edge">
<title>Node1&#45;&gt;Node36</title>
<path fill="none" stroke="#191970" d="M75.2789,-441.4655C83.3038,-388.5606 108.7705,-267.8136 180,-200.5 192.3431,-188.8355 210.3412,-182.597 225.4376,-179.269"/>
<polygon fill="#191970" stroke="#191970" points="71.81,-440.9996 73.8594,-451.3943 78.7395,-441.9903 71.81,-440.9996"/>
</g>
<!-- Node37 -->
<g id="node37" class="node">
<title>Node37</title>
<g id="a_node37"><a xlink:href="../../da/d21/macros_2blob_2master_2macros_2g4simulations_2G4Setup__fsPHENIX_8C.html#a5152c9ff3ef81a7dc81e9771b8ee6762" target="_top" xlink:title="make_piston">
<polygon fill="none" stroke="#000000" points="213.5,-126.5 213.5,-146.5 293.5,-146.5 293.5,-126.5 213.5,-126.5"/>
<text text-anchor="middle" x="253.5" y="-133.5" font-family="FreeSans" font-size="10.00" fill="#000000">make_piston</text>
</a>
</g>
</g>
<!-- Node1&#45;&gt;Node37 -->
<g id="edge42" class="edge">
<title>Node1&#45;&gt;Node37</title>
<path fill="none" stroke="#191970" d="M73.0889,-441.295C77.0406,-381.3973 95.3324,-233.6295 180,-155.5 189.1049,-147.0982 201.4331,-142.3048 213.39,-139.6026"/>
<polygon fill="#191970" stroke="#191970" points="69.5866,-441.2351 72.5052,-451.42 76.575,-441.6381 69.5866,-441.2351"/>
</g>
<!-- Node39 -->
<g id="node39" class="node">
<title>Node39</title>
<g id="a_node39"><a xlink:href="../../d1/d56/G4__PlugDoor_8C.html#aac9c24f96824c585914f9bef5de9c790" target="_top" xlink:title="PlugDoor">
<polygon fill="none" stroke="#000000" points="222,-282.5 222,-302.5 285,-302.5 285,-282.5 222,-282.5"/>
<text text-anchor="middle" x="253.5" y="-289.5" font-family="FreeSans" font-size="10.00" fill="#000000">PlugDoor</text>
</a>
</g>
</g>
<!-- Node1&#45;&gt;Node39 -->
<g id="edge44" class="edge">
<title>Node1&#45;&gt;Node39</title>
<path fill="none" stroke="#191970" d="M83.0686,-441.63C99.2482,-406.9405 132.6649,-345.863 180,-312.5 192.2145,-303.8909 207.9666,-298.9852 221.7534,-296.191"/>
<polygon fill="#191970" stroke="#191970" points="79.726,-440.5265 78.7843,-451.0794 86.1013,-443.4171 79.726,-440.5265"/>
</g>
<!-- Node40 -->
<g id="node40" class="node">
<title>Node40</title>
<g id="a_node40"><a xlink:href="../../da/d3c/G4__Tracking_8C.html#a29db7ba137ab6b448bd8200c192a0a50" target="_top" xlink:title="Tracking">
<polygon fill="none" stroke="#000000" points="224,-243.5 224,-263.5 283,-263.5 283,-243.5 224,-243.5"/>
<text text-anchor="middle" x="253.5" y="-250.5" font-family="FreeSans" font-size="10.00" fill="#000000">Tracking</text>
</a>
</g>
</g>
<!-- Node1&#45;&gt;Node40 -->
<g id="edge46" class="edge">
<title>Node1&#45;&gt;Node40</title>
<path fill="none" stroke="#191970" d="M79.1966,-441.6684C92.1959,-399.8688 123.6191,-317.6427 180,-273.5 192.4951,-263.7171 209.426,-258.7111 223.8886,-256.1533"/>
<polygon fill="#191970" stroke="#191970" points="75.8053,-440.7927 76.2847,-451.3767 82.5102,-442.8038 75.8053,-440.7927"/>
</g>
<!-- Node3 -->
<g id="node3" class="node">
<title>Node3</title>
<g id="a_node3"><a xlink:href="../../d2/dfe/macros_2blob_2master_2macros_2g4simulations_2G4Setup__EICDetector_8C.html#a5d4cb2d19366a2ae6d2aefe8d2e4a870" target="_top" xlink:title="G4Setup">
<polygon fill="none" stroke="#000000" points="363,-360.5 363,-380.5 423,-380.5 423,-360.5 363,-360.5"/>
<text text-anchor="middle" x="393" y="-367.5" font-family="FreeSans" font-size="10.00" fill="#000000">G4Setup</text>
</a>
</g>
</g>
<!-- Node2&#45;&gt;Node3 -->
<g id="edge2" class="edge">
<title>Node2&#45;&gt;Node3</title>
<path fill="none" stroke="#191970" d="M286.3298,-720.5881C300.682,-718.4763 316.5844,-713.5239 327,-702.5 372.7068,-654.1239 389.1995,-431.4578 392.3936,-380.7826"/>
<polygon fill="#191970" stroke="#191970" points="285.823,-717.1223 276.2538,-721.6699 286.5703,-724.0823 285.823,-717.1223"/>
</g>
<!-- Node4 -->
<g id="node4" class="node">
<title>Node4</title>
<g id="a_node4"><a xlink:href="../../d3/d7f/Fun_8C.html#af0d3c8a78765149fef9b2beeecfc6279" target="_top" xlink:title="ConfigureDetectors">
<polygon fill="none" stroke="#000000" points="485.5,-696.5 485.5,-716.5 599.5,-716.5 599.5,-696.5 485.5,-696.5"/>
<text text-anchor="middle" x="542.5" y="-703.5" font-family="FreeSans" font-size="10.00" fill="#000000">ConfigureDetectors</text>
</a>
</g>
</g>
<!-- Node3&#45;&gt;Node4 -->
<g id="edge3" class="edge">
<title>Node3&#45;&gt;Node4</title>
<path fill="none" stroke="#191970" d="M394.4273,-390.9258C399.2608,-454.1307 417.1067,-644.8258 459,-687.5 466.1864,-694.8204 475.5649,-699.5749 485.4318,-702.6149"/>
<polygon fill="#191970" stroke="#191970" points="397.8973,-390.3885 393.6733,-380.6721 390.9162,-390.9019 397.8973,-390.3885"/>
</g>
<!-- Node6 -->
<g id="node6" class="node">
<title>Node6</title>
<g id="a_node6"><a xlink:href="../../da/d02/Fun4All__G4__EICDetector_8C.html#afbe82cefa1d1fd031d9a8586b7bb68c6" target="_top" xlink:title="Fun4All_G4_EICDetector">
<polygon fill="none" stroke="#000000" points="473,-657.5 473,-677.5 612,-677.5 612,-657.5 473,-657.5"/>
<text text-anchor="middle" x="542.5" y="-664.5" font-family="FreeSans" font-size="10.00" fill="#000000">Fun4All_G4_EICDetector</text>
</a>
</g>
</g>
<!-- Node3&#45;&gt;Node6 -->
<g id="edge5" class="edge">
<title>Node3&#45;&gt;Node6</title>
<path fill="none" stroke="#191970" d="M395.043,-390.6514C401.2901,-448.2566 421.9979,-611.8426 459,-648.5 463.0134,-652.4761 467.6752,-655.6904 472.7044,-658.2815"/>
<polygon fill="#191970" stroke="#191970" points="398.5139,-390.1909 393.9858,-380.6124 391.5524,-390.924 398.5139,-390.1909"/>
</g>
<!-- Node7 -->
<g id="node7" class="node">
<title>Node7</title>
<g id="a_node7"><a xlink:href="../../dd/d2a/Fun4All__G4__EICDetector__LQ_8C.html#aaa01242fd6e77ca43a9d49a6d46008e4" target="_top" xlink:title="Fun4All_G4_EICDetector_LQ">
<polygon fill="none" stroke="#000000" points="464.5,-618.5 464.5,-638.5 620.5,-638.5 620.5,-618.5 464.5,-618.5"/>
<text text-anchor="middle" x="542.5" y="-625.5" font-family="FreeSans" font-size="10.00" fill="#000000">Fun4All_G4_EICDetector_LQ</text>
</a>
</g>
</g>
<!-- Node3&#45;&gt;Node7 -->
<g id="edge6" class="edge">
<title>Node3&#45;&gt;Node7</title>
<path fill="none" stroke="#191970" d="M395.8599,-390.5144C403.6596,-442.3048 426.8848,-578.8199 459,-609.5 462.655,-612.9917 466.812,-615.891 471.2733,-618.2938"/>
<polygon fill="#191970" stroke="#191970" points="399.3134,-389.9416 394.3947,-380.5578 392.388,-390.9608 399.3134,-389.9416"/>
</g>
<!-- Node8 -->
<g id="node8" class="node">
<title>Node8</title>
<g id="a_node8"><a xlink:href="../../d4/df5/Fun4All__G4__EICDetector__LQ__reference_8C.html#a2feefc472f17f90b3cbe74897d049f75" target="_top" xlink:title="Fun4All_G4_EICDetector\l_LQ_reference">
<polygon fill="none" stroke="#000000" points="473,-567.5 473,-599.5 612,-599.5 612,-567.5 473,-567.5"/>
<text text-anchor="start" x="481" y="-586.5" font-family="FreeSans" font-size="10.00" fill="#000000">Fun4All_G4_EICDetector</text>
<text text-anchor="middle" x="542.5" y="-574.5" font-family="FreeSans" font-size="10.00" fill="#000000">_LQ_reference</text>
</a>
</g>
</g>
<!-- Node3&#45;&gt;Node8 -->
<g id="edge7" class="edge">
<title>Node3&#45;&gt;Node8</title>
<path fill="none" stroke="#191970" d="M394.2967,-391.2022C397.8343,-429.7153 410.9213,-512.6165 459,-558.5 463.0504,-562.3655 467.6743,-565.6359 472.6212,-568.4024"/>
<polygon fill="#191970" stroke="#191970" points="397.7493,-390.4604 393.4773,-380.765 390.7708,-391.0084 397.7493,-390.4604"/>
</g>
<!-- Node9 -->
<g id="node9" class="node">
<title>Node9</title>
<g id="a_node9"><a xlink:href="../../d3/d51/Fun4All__G4__EICDetector__RICH_8C.html#a5739502b0a7a1ba782c01069f77e933f" target="_top" xlink:title="Fun4All_G4_EICDetector_RICH">
<polygon fill="none" stroke="#000000" points="459,-528.5 459,-548.5 626,-548.5 626,-528.5 459,-528.5"/>
<text text-anchor="middle" x="542.5" y="-535.5" font-family="FreeSans" font-size="10.00" fill="#000000">Fun4All_G4_EICDetector_RICH</text>
</a>
</g>
</g>
<!-- Node3&#45;&gt;Node9 -->
<g id="edge8" class="edge">
<title>Node3&#45;&gt;Node9</title>
<path fill="none" stroke="#191970" d="M396.0732,-390.7609C402.0889,-423.12 418.5551,-486.2025 459,-519.5 463.3615,-523.0908 468.2681,-526.0342 473.4617,-528.4433"/>
<polygon fill="#191970" stroke="#191970" points="399.4883,-389.966 394.359,-380.6956 392.5876,-391.1412 399.4883,-389.966"/>
</g>
<!-- Node10 -->
<g id="node10" class="node">
<title>Node10</title>
<g id="a_node10"><a xlink:href="../../d9/d0e/Fun4All__G4__EICIR_8C.html#ac3543d1dd4a0abed3987d40939ee3f87" target="_top" xlink:title="Fun4All_G4_EICIR">
<polygon fill="none" stroke="#000000" points="490.5,-489.5 490.5,-509.5 594.5,-509.5 594.5,-489.5 490.5,-489.5"/>
<text text-anchor="middle" x="542.5" y="-496.5" font-family="FreeSans" font-size="10.00" fill="#000000">Fun4All_G4_EICIR</text>
</a>
</g>
</g>
<!-- Node3&#45;&gt;Node10 -->
<g id="edge9" class="edge">
<title>Node3&#45;&gt;Node10</title>
<path fill="none" stroke="#191970" d="M399.2986,-390.0753C408.3796,-415.0549 427.5981,-457.7457 459,-480.5 468.1494,-487.1298 479.2257,-491.4978 490.2782,-494.3625"/>
<polygon fill="#191970" stroke="#191970" points="402.5882,-388.8783 396.0214,-380.5639 395.97,-391.1586 402.5882,-388.8783"/>
</g>
<!-- Node11 -->
<g id="node11" class="node">
<title>Node11</title>
<g id="a_node11"><a xlink:href="../../d7/d9e/Fun4All__G4__fsPHENIX_8C.html#af48911d394d2412e817583700f2bbee2" target="_top" xlink:title="Fun4All_G4_fsPHENIX">
<polygon fill="none" stroke="#000000" points="480.5,-450.5 480.5,-470.5 604.5,-470.5 604.5,-450.5 480.5,-450.5"/>
<text text-anchor="middle" x="542.5" y="-457.5" font-family="FreeSans" font-size="10.00" fill="#000000">Fun4All_G4_fsPHENIX</text>
</a>
</g>
</g>
<!-- Node3&#45;&gt;Node11 -->
<g id="edge10" class="edge">
<title>Node3&#45;&gt;Node11</title>
<path fill="none" stroke="#191970" d="M405.1024,-388.7729C416.9084,-405.1193 436.3623,-428.454 459,-441.5 465.5694,-445.2859 472.8352,-448.3174 480.2593,-450.7449"/>
<polygon fill="#191970" stroke="#191970" points="407.9439,-386.7287 399.3586,-380.5203 402.1985,-390.7275 407.9439,-386.7287"/>
</g>
<!-- Node12 -->
<g id="node12" class="node">
<title>Node12</title>
<g id="a_node12"><a xlink:href="../../da/d2f/Fun4All__G4__fsPHENIX__FastSim_8C.html#a66fb850cae5fcaadda23b74a25ce4c9c" target="_top" xlink:title="Fun4All_G4_fsPHENIX\l_FastSim">
<polygon fill="none" stroke="#000000" points="480.5,-399.5 480.5,-431.5 604.5,-431.5 604.5,-399.5 480.5,-399.5"/>
<text text-anchor="start" x="488.5" y="-418.5" font-family="FreeSans" font-size="10.00" fill="#000000">Fun4All_G4_fsPHENIX</text>
<text text-anchor="middle" x="542.5" y="-406.5" font-family="FreeSans" font-size="10.00" fill="#000000">_FastSim</text>
</a>
</g>
</g>
<!-- Node3&#45;&gt;Node12 -->
<g id="edge11" class="edge">
<title>Node3&#45;&gt;Node12</title>
<path fill="none" stroke="#191970" d="M433.0215,-382.651C441.5918,-385.2466 450.5954,-387.9684 459,-390.5 468.5629,-393.3805 478.745,-396.4374 488.5913,-399.3883"/>
<polygon fill="#191970" stroke="#191970" points="433.807,-379.232 423.2217,-379.6811 431.7767,-385.9311 433.807,-379.232"/>
</g>
<!-- Node13 -->
<g id="node13" class="node">
<title>Node13</title>
<g id="a_node13"><a xlink:href="../../d0/da6/Fun4All__G4__fsPHENIX__pi0_8C.html#a023d91d47b678e5d7f1751834aa517c6" target="_top" xlink:title="Fun4All_G4_fsPHENIX_pi0">
<polygon fill="none" stroke="#000000" points="470,-360.5 470,-380.5 615,-380.5 615,-360.5 470,-360.5"/>
<text text-anchor="middle" x="542.5" y="-367.5" font-family="FreeSans" font-size="10.00" fill="#000000">Fun4All_G4_fsPHENIX_pi0</text>
</a>
</g>
</g>
<!-- Node3&#45;&gt;Node13 -->
<g id="edge12" class="edge">
<title>Node3&#45;&gt;Node13</title>
<path fill="none" stroke="#191970" d="M433.2574,-370.5C444.6119,-370.5 457.3264,-370.5 469.9568,-370.5"/>
<polygon fill="#191970" stroke="#191970" points="433.2536,-367.0001 423.2536,-370.5 433.2535,-374.0001 433.2536,-367.0001"/>
</g>
<!-- Node14 -->
<g id="node14" class="node">
<title>Node14</title>
<g id="a_node14"><a xlink:href="../../d5/d2c/macros_2blob_2master_2macros_2g4simulations_2Fun4All__G4__sPHENIX_8C.html#a6eaaa492d7023ec86c562dc63aa1e5a4" target="_top" xlink:title="Fun4All_G4_sPHENIX">
<polygon fill="none" stroke="#000000" points="482,-321.5 482,-341.5 603,-341.5 603,-321.5 482,-321.5"/>
<text text-anchor="middle" x="542.5" y="-328.5" font-family="FreeSans" font-size="10.00" fill="#000000">Fun4All_G4_sPHENIX</text>
</a>
</g>
</g>
<!-- Node3&#45;&gt;Node14 -->
<g id="edge13" class="edge">
<title>Node3&#45;&gt;Node14</title>
<path fill="none" stroke="#191970" d="M432.9477,-358.6858C441.5229,-356.2379 450.5471,-353.7278 459,-351.5 471.9729,-348.0809 486.1445,-344.5939 499.0686,-341.5094"/>
<polygon fill="#191970" stroke="#191970" points="431.7882,-355.3775 423.1488,-361.5103 433.727,-362.1036 431.7882,-355.3775"/>
</g>
<!-- Node15 -->
<g id="node15" class="node">
<title>Node15</title>
<g id="a_node15"><a xlink:href="../../d3/de2/Fun4All__G4__sPHENIX__AnaGenFit_8C.html#a9bf3f2f72ed69a17e2d0c1121d48013c" target="_top" xlink:title="Fun4All_G4_sPHENIX\l_AnaGenFit">
<polygon fill="none" stroke="#000000" points="482,-270.5 482,-302.5 603,-302.5 603,-270.5 482,-270.5"/>
<text text-anchor="start" x="490" y="-289.5" font-family="FreeSans" font-size="10.00" fill="#000000">Fun4All_G4_sPHENIX</text>
<text text-anchor="middle" x="542.5" y="-277.5" font-family="FreeSans" font-size="10.00" fill="#000000">_AnaGenFit</text>
</a>
</g>
</g>
<!-- Node3&#45;&gt;Node15 -->
<g id="edge14" class="edge">
<title>Node3&#45;&gt;Node15</title>
<path fill="none" stroke="#191970" d="M408.8209,-353.1073C421.3321,-340.2803 439.8321,-323.2574 459,-312.5 466.1498,-308.4874 473.9986,-305.0107 481.9334,-302.0225"/>
<polygon fill="#191970" stroke="#191970" points="406.1922,-350.7929 401.8524,-360.4582 411.2723,-355.6088 406.1922,-350.7929"/>
</g>
<!-- Node16 -->
<g id="node16" class="node">
<title>Node16</title>
<g id="a_node16"><a xlink:href="../../da/dd0/Fun4All__G4__sPHENIX__photonjet_8C.html#a6f18519e216acc05399e562ea57ea77c" target="_top" xlink:title="Fun4All_G4_sPHENIX\l_photonjet">
<polygon fill="none" stroke="#000000" points="482,-219.5 482,-251.5 603,-251.5 603,-219.5 482,-219.5"/>
<text text-anchor="start" x="490" y="-238.5" font-family="FreeSans" font-size="10.00" fill="#000000">Fun4All_G4_sPHENIX</text>
<text text-anchor="middle" x="542.5" y="-226.5" font-family="FreeSans" font-size="10.00" fill="#000000">_photonjet</text>
</a>
</g>
</g>
<!-- Node3&#45;&gt;Node16 -->
<g id="edge15" class="edge">
<title>Node3&#45;&gt;Node16</title>
<path fill="none" stroke="#191970" d="M399.8971,-350.7728C409.435,-326.3231 428.9534,-285.0174 459,-261.5 465.815,-256.1659 473.7348,-251.9182 481.9296,-248.5375"/>
<polygon fill="#191970" stroke="#191970" points="396.5194,-349.8146 396.3167,-360.4075 403.081,-352.2531 396.5194,-349.8146"/>
</g>
<!-- Node17 -->
<g id="node17" class="node">
<title>Node17</title>
<g id="a_node17"><a xlink:href="../../da/d85/Fun4All__G4__sPHENIX__photons_8C.html#a02fbbd59878fe1299f58ed187e7214ba" target="_top" xlink:title="Fun4All_G4_sPHENIX\l_photons">
<polygon fill="none" stroke="#000000" points="482,-168.5 482,-200.5 603,-200.5 603,-168.5 482,-168.5"/>
<text text-anchor="start" x="490" y="-187.5" font-family="FreeSans" font-size="10.00" fill="#000000">Fun4All_G4_sPHENIX</text>
<text text-anchor="middle" x="542.5" y="-175.5" font-family="FreeSans" font-size="10.00" fill="#000000">_photons</text>
</a>
</g>
</g>
<!-- Node3&#45;&gt;Node17 -->
<g id="edge16" class="edge">
<title>Node3&#45;&gt;Node17</title>
<path fill="none" stroke="#191970" d="M395.7733,-350.0912C401.4512,-316.2229 417.5599,-248.3926 459,-210.5 465.4988,-204.5575 473.339,-199.9731 481.5791,-196.4364"/>
<polygon fill="#191970" stroke="#191970" points="392.2821,-349.7677 394.2261,-360.1826 399.2012,-350.8286 392.2821,-349.7677"/>
</g>
<!-- Node18 -->
<g id="node18" class="node">
<title>Node18</title>
<g id="a_node18"><a xlink:href="../../de/d55/Fun4All__G4__sPHENIX__truthphotonjet_8C.html#a48a6f4503eaa1b3793d8ae572aa795b9" target="_top" xlink:title="Fun4All_G4_sPHENIX\l_truthphotonjet">
<polygon fill="none" stroke="#000000" points="482,-117.5 482,-149.5 603,-149.5 603,-117.5 482,-117.5"/>
<text text-anchor="start" x="490" y="-136.5" font-family="FreeSans" font-size="10.00" fill="#000000">Fun4All_G4_sPHENIX</text>
<text text-anchor="middle" x="542.5" y="-124.5" font-family="FreeSans" font-size="10.00" fill="#000000">_truthphotonjet</text>
</a>
</g>
</g>
<!-- Node3&#45;&gt;Node18 -->
<g id="edge17" class="edge">
<title>Node3&#45;&gt;Node18</title>
<path fill="none" stroke="#191970" d="M396.7732,-350.3624C406.0444,-302.9055 431.218,-185.9807 459,-158.5 465.455,-152.115 473.471,-147.3497 481.9617,-143.7955"/>
<polygon fill="#191970" stroke="#191970" points="393.3031,-349.8745 394.8569,-360.3548 400.1778,-351.193 393.3031,-349.8745"/>
</g>
<!-- Node19 -->
<g id="node19" class="node">
<title>Node19</title>
<g id="a_node19"><a xlink:href="../../d4/d65/Fun4All__single__particle_8C.html#a8a492b5dbead494bfdddbebde8a49b0e" target="_top" xlink:title="Fun4All_single_particle">
<polygon fill="none" stroke="#000000" points="476.5,-78.5 476.5,-98.5 608.5,-98.5 608.5,-78.5 476.5,-78.5"/>
<text text-anchor="middle" x="542.5" y="-85.5" font-family="FreeSans" font-size="10.00" fill="#000000">Fun4All_single_particle</text>
</a>
</g>
</g>
<!-- Node3&#45;&gt;Node19 -->
<g id="edge18" class="edge">
<title>Node3&#45;&gt;Node19</title>
<path fill="none" stroke="#191970" d="M396.7702,-350.5102C407.952,-292.1227 441.2554,-124.856 459,-107.5 463.9953,-102.6141 469.9709,-98.8818 476.3985,-96.0442"/>
<polygon fill="#191970" stroke="#191970" points="393.3245,-349.8953 394.894,-360.3732 400.2012,-351.2035 393.3245,-349.8953"/>
</g>
<!-- Node20 -->
<g id="node20" class="node">
<title>Node20</title>
<g id="a_node20"><a xlink:href="../../d0/d99/Jin__BJet_8C.html#a36169bfee2ed7efda633944d12aebad9" target="_top" xlink:title="Jin_BJet">
<polygon fill="none" stroke="#000000" points="515,-39.5 515,-59.5 570,-59.5 570,-39.5 515,-39.5"/>
<text text-anchor="middle" x="542.5" y="-46.5" font-family="FreeSans" font-size="10.00" fill="#000000">Jin_BJet</text>
</a>
</g>
</g>
<!-- Node3&#45;&gt;Node20 -->
<g id="edge19" class="edge">
<title>Node3&#45;&gt;Node20</title>
<path fill="none" stroke="#191970" d="M396.8272,-350.1491C409.3476,-283.9998 448.8646,-78.7227 459,-68.5 473.4451,-53.9305 496.5807,-49.5476 514.8398,-48.6025"/>
<polygon fill="#191970" stroke="#191970" points="393.3517,-349.6923 394.9362,-360.168 400.2302,-350.9906 393.3517,-349.6923"/>
</g>
<!-- Node21 -->
<g id="node21" class="node">
<title>Node21</title>
<g id="a_node21"><a xlink:href="../../dd/db1/Wrapper_8cxx.html#abf1e42281903daa0752c80dd6c879fac" target="_top" xlink:title="Wrapper">
<polygon fill="none" stroke="#000000" points="512.5,-.5 512.5,-20.5 572.5,-20.5 572.5,-.5 512.5,-.5"/>
<text text-anchor="middle" x="542.5" y="-7.5" font-family="FreeSans" font-size="10.00" fill="#000000">Wrapper</text>
</a>
</g>
</g>
<!-- Node3&#45;&gt;Node21 -->
<g id="edge20" class="edge">
<title>Node3&#45;&gt;Node21</title>
<path fill="none" stroke="#191970" d="M396.9612,-350.034C411.2073,-276.4292 459,-29.5 459,-29.5 472.649,-15.3993 494.4225,-10.7885 512.3133,-9.63"/>
<polygon fill="#191970" stroke="#191970" points="393.4393,-349.8116 394.9752,-360.2945 400.3118,-351.1419 393.4393,-349.8116"/>
</g>
<!-- Node5 -->
<g id="node5" class="node">
<title>Node5</title>
<g id="a_node5"><a xlink:href="../../d3/d7f/Fun_8C.html#af69a3eef3ff244bb51f5740c6ecb5432" target="_top" xlink:title="Fun">
<polygon fill="none" stroke="#000000" points="662,-696.5 662,-716.5 696,-716.5 696,-696.5 662,-696.5"/>
<text text-anchor="middle" x="679" y="-703.5" font-family="FreeSans" font-size="10.00" fill="#000000">Fun</text>
</a>
</g>
</g>
<!-- Node4&#45;&gt;Node5 -->
<g id="edge4" class="edge">
<title>Node4&#45;&gt;Node5</title>
<path fill="none" stroke="#191970" d="M609.6941,-706.5C629.0852,-706.5 648.59,-706.5 661.9452,-706.5"/>
<polygon fill="#191970" stroke="#191970" points="609.5974,-703.0001 599.5974,-706.5 609.5974,-710.0001 609.5974,-703.0001"/>
</g>
<!-- Node23 -->
<g id="node23" class="node">
<title>Node23</title>
<g id="a_node23"><a xlink:href="../../d1/d8d/macros_2blob_2master_2macros_2g4simulations_2G4__CEmc__Spacal_8C.html#a643b7748ae63dfed5f748e4707bbf1d3" target="_top" xlink:title="EMCal main setup macro.">
<polygon fill="none" stroke="#000000" points="370.5,-769.5 370.5,-789.5 415.5,-789.5 415.5,-769.5 370.5,-769.5"/>
<text text-anchor="middle" x="393" y="-776.5" font-family="FreeSans" font-size="10.00" fill="#000000">CEmc</text>
</a>
</g>
</g>
<!-- Node22&#45;&gt;Node23 -->
<g id="edge22" class="edge">
<title>Node22&#45;&gt;Node23</title>
<path fill="none" stroke="#191970" d="M333.5638,-788.0213C347.0796,-786.0836 360.0671,-784.2216 370.4355,-782.7351"/>
<polygon fill="#191970" stroke="#191970" points="333.0607,-784.5576 323.6587,-789.4414 334.0542,-791.4867 333.0607,-784.5576"/>
</g>
<!-- Node24&#45;&gt;Node23 -->
<g id="edge24" class="edge">
<title>Node24&#45;&gt;Node23</title>
<path fill="none" stroke="#191970" d="M337.1951,-771.8993C349.2962,-773.5475 360.8134,-775.1162 370.2083,-776.3958"/>
<polygon fill="#191970" stroke="#191970" points="337.3076,-768.3824 326.9267,-770.5008 336.3629,-775.3184 337.3076,-768.3824"/>
</g>
<!-- Node26&#45;&gt;Node3 -->
<g id="edge27" class="edge">
<title>Node26&#45;&gt;Node3</title>
<path fill="none" stroke="#191970" d="M298.6695,-639.6677C309.1032,-636.8134 319.3677,-632.1227 327,-624.5 362.8638,-588.6812 386.243,-423.2526 391.7476,-380.5702"/>
<polygon fill="#191970" stroke="#191970" points="297.701,-636.2973 288.6947,-641.8774 299.215,-643.1316 297.701,-636.2973"/>
</g>
<!-- Node27&#45;&gt;Node3 -->
<g id="edge29" class="edge">
<title>Node27&#45;&gt;Node3</title>
<path fill="none" stroke="#191970" d="M300.4837,-599.8528C310.2168,-596.9678 319.7123,-592.4677 327,-585.5 357.9735,-555.8863 384.3537,-418.9934 391.2465,-380.5596"/>
<polygon fill="#191970" stroke="#191970" points="299.6286,-596.4587 290.7443,-602.2311 301.2892,-603.2589 299.6286,-596.4587"/>
</g>
<!-- Node34&#45;&gt;Node3 -->
<g id="edge37" class="edge">
<title>Node34&#45;&gt;Node3</title>
<path fill="none" stroke="#191970" d="M297.3845,-370.5C318.6904,-370.5 343.7475,-370.5 362.8648,-370.5"/>
<polygon fill="#191970" stroke="#191970" points="297.2691,-367.0001 287.2691,-370.5 297.269,-374.0001 297.2691,-367.0001"/>
</g>
<!-- Node35&#45;&gt;Node3 -->
<g id="edge39" class="edge">
<title>Node35&#45;&gt;Node3</title>
<path fill="none" stroke="#191970" d="M298.0414,-343.5078C307.6024,-346.1167 317.643,-348.8802 327,-351.5 338.7118,-354.779 351.5684,-358.4614 362.7983,-361.7051"/>
<polygon fill="#191970" stroke="#191970" points="298.8683,-340.1056 288.3002,-340.8575 297.0305,-346.8601 298.8683,-340.1056"/>
</g>
<!-- Node36&#45;&gt;Node33 -->
<g id="edge41" class="edge">
<title>Node36&#45;&gt;Node33</title>
<path fill="none" stroke="#191970" d="M291.9035,-181.0059C314.2816,-184.2142 342.095,-188.2018 362.8809,-191.1818"/>
<polygon fill="#191970" stroke="#191970" points="292.1254,-177.502 281.7299,-179.5473 291.1319,-184.4311 292.1254,-177.502"/>
</g>
<!-- Node38 -->
<g id="node38" class="node">
<title>Node38</title>
<g id="a_node38"><a xlink:href="../../df/d4b/analysis_2blob_2master_2EICAnalysis_2macros_2leptoquarks__fun4all_2G4Setup__fsPHENIX_8C.html#ac2f64e8dbdc7060f0f9ca1c7a47cddb7" target="_top" xlink:title="G4Setup">
<polygon fill="none" stroke="#000000" points="363,-126.5 363,-146.5 423,-146.5 423,-126.5 363,-126.5"/>
<text text-anchor="middle" x="393" y="-133.5" font-family="FreeSans" font-size="10.00" fill="#000000">G4Setup</text>
</a>
</g>
</g>
<!-- Node37&#45;&gt;Node38 -->
<g id="edge43" class="edge">
<title>Node37&#45;&gt;Node38</title>
<path fill="none" stroke="#191970" d="M303.9472,-136.5C323.7207,-136.5 345.7407,-136.5 362.9372,-136.5"/>
<polygon fill="#191970" stroke="#191970" points="303.8492,-133.0001 293.8492,-136.5 303.8491,-140.0001 303.8492,-133.0001"/>
</g>
<!-- Node39&#45;&gt;Node3 -->
<g id="edge45" class="edge">
<title>Node39&#45;&gt;Node3</title>
<path fill="none" stroke="#191970" d="M294.8257,-300.2259C305.6749,-303.1852 317.1014,-307.1779 327,-312.5 350.3773,-325.0692 372.4665,-347.3467 384.2188,-360.3286"/>
<polygon fill="#191970" stroke="#191970" points="295.6353,-296.8206 285.0849,-297.7901 293.9372,-303.6116 295.6353,-296.8206"/>
</g>
<!-- Node40&#45;&gt;Node3 -->
<g id="edge47" class="edge">
<title>Node40&#45;&gt;Node3</title>
<path fill="none" stroke="#191970" d="M293.1346,-258.9062C304.8056,-261.862 317.0903,-266.4328 327,-273.5 359.1721,-296.444 380.4858,-340.3187 388.9226,-360.2246"/>
<polygon fill="#191970" stroke="#191970" points="293.6297,-255.4316 283.1114,-256.7023 292.1264,-262.2682 293.6297,-255.4316"/>
</g>
</g>
</svg>
