<?xml version="1.0" encoding="UTF-8" standalone="no"?>
<!DOCTYPE svg PUBLIC "-//W3C//DTD SVG 1.1//EN"
 "http://www.w3.org/Graphics/SVG/1.1/DTD/svg11.dtd">
<!-- Generated by graphviz version 2.40.1 (20161225.0304)
 -->
<!-- Title: SvtxTrackEval::get_node_pointers Pages: 1 -->
<svg width="1292pt" height="565pt"
 viewBox="0.00 0.00 1292.00 565.00" xmlns="http://www.w3.org/2000/svg" xmlns:xlink="http://www.w3.org/1999/xlink">
<g id="graph0" class="graph" transform="scale(1 1) rotate(0) translate(4 561)">
<title>SvtxTrackEval::get_node_pointers</title>
<!-- Node1 -->
<g id="node1" class="node">
<title>Node1</title>
<polygon fill="#bfbfbf" stroke="#000000" points="0,-220.5 0,-252.5 110,-252.5 110,-220.5 0,-220.5"/>
<text text-anchor="start" x="8" y="-239.5" font-family="FreeSans" font-size="10.00" fill="#000000">SvtxTrackEval::get</text>
<text text-anchor="middle" x="55" y="-227.5" font-family="FreeSans" font-size="10.00" fill="#000000">_node_pointers</text>
</g>
<!-- Node2 -->
<g id="node2" class="node">
<title>Node2</title>
<g id="a_node2"><a xlink:href="../../df/dad/classSvtxTrackEval.html#aff069c6fdb0f6d80147b65a98878d90f" target="_top" xlink:title="SvtxTrackEval::next\l_event">
<polygon fill="none" stroke="#000000" points="169.5,-243.5 169.5,-275.5 285.5,-275.5 285.5,-243.5 169.5,-243.5"/>
<text text-anchor="start" x="177.5" y="-262.5" font-family="FreeSans" font-size="10.00" fill="#000000">SvtxTrackEval::next</text>
<text text-anchor="middle" x="227.5" y="-250.5" font-family="FreeSans" font-size="10.00" fill="#000000">_event</text>
</a>
</g>
</g>
<!-- Node1&#45;&gt;Node2 -->
<g id="edge1" class="edge">
<title>Node1&#45;&gt;Node2</title>
<path fill="none" stroke="#191970" d="M119.9988,-245.1665C136.2283,-247.3304 153.5283,-249.6371 169.3999,-251.7533"/>
<polygon fill="#191970" stroke="#191970" points="120.4292,-241.693 110.0544,-243.8406 119.504,-248.6316 120.4292,-241.693"/>
</g>
<!-- Node20 -->
<g id="node20" class="node">
<title>Node20</title>
<g id="a_node20"><a xlink:href="../../df/dad/classSvtxTrackEval.html#a9ea492c01d8693f63d825aa60beac9bf" target="_top" xlink:title="SvtxTrackEval::SvtxTrackEval">
<polygon fill="none" stroke="#000000" points="146,-204.5 146,-224.5 309,-224.5 309,-204.5 146,-204.5"/>
<text text-anchor="middle" x="227.5" y="-211.5" font-family="FreeSans" font-size="10.00" fill="#000000">SvtxTrackEval::SvtxTrackEval</text>
</a>
</g>
</g>
<!-- Node1&#45;&gt;Node20 -->
<g id="edge19" class="edge">
<title>Node1&#45;&gt;Node20</title>
<path fill="none" stroke="#191970" d="M120.1424,-228.192C129.5909,-226.987 139.3995,-225.736 149.0756,-224.5019"/>
<polygon fill="#191970" stroke="#191970" points="119.5312,-224.7415 110.0544,-229.4786 120.4168,-231.6853 119.5312,-224.7415"/>
</g>
<!-- Node3 -->
<g id="node3" class="node">
<title>Node3</title>
<g id="a_node3"><a xlink:href="../../d4/d21/classSvtxVertexEval.html#ad872cdf8407f2f483af522aed6786a40" target="_top" xlink:title="SvtxVertexEval::next\l_event">
<polygon fill="none" stroke="#000000" points="345,-243.5 345,-275.5 467,-275.5 467,-243.5 345,-243.5"/>
<text text-anchor="start" x="353" y="-262.5" font-family="FreeSans" font-size="10.00" fill="#000000">SvtxVertexEval::next</text>
<text text-anchor="middle" x="406" y="-250.5" font-family="FreeSans" font-size="10.00" fill="#000000">_event</text>
</a>
</g>
</g>
<!-- Node2&#45;&gt;Node3 -->
<g id="edge2" class="edge">
<title>Node2&#45;&gt;Node3</title>
<path fill="none" stroke="#191970" d="M296.3226,-259.5C312.3495,-259.5 329.3052,-259.5 344.9683,-259.5"/>
<polygon fill="#191970" stroke="#191970" points="295.9476,-256.0001 285.9476,-259.5 295.9475,-263.0001 295.9476,-256.0001"/>
</g>
<!-- Node4 -->
<g id="node4" class="node">
<title>Node4</title>
<g id="a_node4"><a xlink:href="../../d3/ded/classSvtxEvalStack.html#a8a929a1f521c9e8596ecb1ca108281cf" target="_top" xlink:title="SvtxEvalStack::next\l_event">
<polygon fill="none" stroke="#000000" points="503,-243.5 503,-275.5 620,-275.5 620,-243.5 503,-243.5"/>
<text text-anchor="start" x="511" y="-262.5" font-family="FreeSans" font-size="10.00" fill="#000000">SvtxEvalStack::next</text>
<text text-anchor="middle" x="561.5" y="-250.5" font-family="FreeSans" font-size="10.00" fill="#000000">_event</text>
</a>
</g>
</g>
<!-- Node3&#45;&gt;Node4 -->
<g id="edge3" class="edge">
<title>Node3&#45;&gt;Node4</title>
<path fill="none" stroke="#191970" d="M477.0932,-259.5C485.7469,-259.5 494.5114,-259.5 502.9536,-259.5"/>
<polygon fill="#191970" stroke="#191970" points="477.0114,-256.0001 467.0114,-259.5 477.0114,-263.0001 477.0114,-256.0001"/>
</g>
<!-- Node5 -->
<g id="node5" class="node">
<title>Node5</title>
<g id="a_node5"><a xlink:href="../../d3/d22/classJetTruthEval.html#ac29b8d18ee116903ed233388eb253256" target="_top" xlink:title="reinitialize the eval for a new event">
<polygon fill="none" stroke="#000000" points="676,-498.5 676,-530.5 783,-530.5 783,-498.5 676,-498.5"/>
<text text-anchor="start" x="684" y="-517.5" font-family="FreeSans" font-size="10.00" fill="#000000">JetTruthEval::next</text>
<text text-anchor="middle" x="729.5" y="-505.5" font-family="FreeSans" font-size="10.00" fill="#000000">_event</text>
</a>
</g>
</g>
<!-- Node4&#45;&gt;Node5 -->
<g id="edge4" class="edge">
<title>Node4&#45;&gt;Node5</title>
<path fill="none" stroke="#191970" d="M565.1061,-285.7928C572.9701,-333.1612 596.028,-433.1345 656,-489.5 661.6964,-494.8538 668.5844,-499.065 675.8317,-502.3764"/>
<polygon fill="#191970" stroke="#191970" points="568.5352,-285.0671 563.5347,-275.7266 561.619,-286.1468 568.5352,-285.0671"/>
</g>
<!-- Node10 -->
<g id="node10" class="node">
<title>Node10</title>
<g id="a_node10"><a xlink:href="../../db/d2f/classAnaSvtxTracksForGenFit.html#a6f277cfc1d441b018fccacf6fb882dd0" target="_top" xlink:title="AnaSvtxTracksForGenFit\l::process_event">
<polygon fill="none" stroke="#000000" points="659.5,-447.5 659.5,-479.5 799.5,-479.5 799.5,-447.5 659.5,-447.5"/>
<text text-anchor="start" x="667.5" y="-466.5" font-family="FreeSans" font-size="10.00" fill="#000000">AnaSvtxTracksForGenFit</text>
<text text-anchor="middle" x="729.5" y="-454.5" font-family="FreeSans" font-size="10.00" fill="#000000">::process_event</text>
</a>
</g>
</g>
<!-- Node4&#45;&gt;Node10 -->
<g id="edge9" class="edge">
<title>Node4&#45;&gt;Node10</title>
<path fill="none" stroke="#191970" d="M568.5363,-285.6735C580.2783,-324.473 607.4993,-397.1102 656,-438.5 659.9985,-441.9123 664.4845,-444.8651 669.2168,-447.4192"/>
<polygon fill="#191970" stroke="#191970" points="571.7837,-284.3061 565.6301,-275.6814 565.0622,-286.2611 571.7837,-284.3061"/>
</g>
<!-- Node11 -->
<g id="node11" class="node">
<title>Node11</title>
<g id="a_node11"><a xlink:href="../../da/dbf/classHFMLTriggerOccupancy.html#add094957c68c32da4afc212ffa24e885" target="_top" xlink:title="HFMLTriggerOccupancy\l::process_event">
<polygon fill="none" stroke="#000000" points="662.5,-396.5 662.5,-428.5 796.5,-428.5 796.5,-396.5 662.5,-396.5"/>
<text text-anchor="start" x="670.5" y="-415.5" font-family="FreeSans" font-size="10.00" fill="#000000">HFMLTriggerOccupancy</text>
<text text-anchor="middle" x="729.5" y="-403.5" font-family="FreeSans" font-size="10.00" fill="#000000">::process_event</text>
</a>
</g>
</g>
<!-- Node4&#45;&gt;Node11 -->
<g id="edge10" class="edge">
<title>Node4&#45;&gt;Node11</title>
<path fill="none" stroke="#191970" d="M574.0411,-284.763C589.5458,-313.54 618.5383,-360.1086 656,-387.5 660.6785,-390.9208 665.859,-393.8978 671.2408,-396.4835"/>
<polygon fill="#191970" stroke="#191970" points="577.0523,-282.9688 569.3073,-275.7393 570.8535,-286.2207 577.0523,-282.9688"/>
</g>
<!-- Node12 -->
<g id="node12" class="node">
<title>Node12</title>
<g id="a_node12"><a xlink:href="../../d7/d62/classHFMLTriggerInterface.html#a29f338c2563a39e5d0e58b316f4b036f" target="_top" xlink:title="HFMLTriggerInterface\l::process_event">
<polygon fill="none" stroke="#000000" points="668.5,-345.5 668.5,-377.5 790.5,-377.5 790.5,-345.5 668.5,-345.5"/>
<text text-anchor="start" x="676.5" y="-364.5" font-family="FreeSans" font-size="10.00" fill="#000000">HFMLTriggerInterface</text>
<text text-anchor="middle" x="729.5" y="-352.5" font-family="FreeSans" font-size="10.00" fill="#000000">::process_event</text>
</a>
</g>
</g>
<!-- Node4&#45;&gt;Node12 -->
<g id="edge11" class="edge">
<title>Node4&#45;&gt;Node12</title>
<path fill="none" stroke="#191970" d="M585.3058,-282.9695C603.4302,-299.7734 629.6707,-321.9179 656,-336.5 662.0133,-339.8304 668.5478,-342.826 675.1571,-345.4881"/>
<polygon fill="#191970" stroke="#191970" points="587.2516,-279.9929 577.5783,-275.6709 582.445,-285.0819 587.2516,-279.9929"/>
</g>
<!-- Node13 -->
<g id="node13" class="node">
<title>Node13</title>
<g id="a_node13"><a xlink:href="../../d2/d85/classSvtxEvaluatorHaiwang.html#ab63ca0cc53b56dad65b89d9b18220bce" target="_top" xlink:title="SvtxEvaluatorHaiwang\l::process_event">
<polygon fill="none" stroke="#000000" points="664,-294.5 664,-326.5 795,-326.5 795,-294.5 664,-294.5"/>
<text text-anchor="start" x="672" y="-313.5" font-family="FreeSans" font-size="10.00" fill="#000000">SvtxEvaluatorHaiwang</text>
<text text-anchor="middle" x="729.5" y="-301.5" font-family="FreeSans" font-size="10.00" fill="#000000">::process_event</text>
</a>
</g>
</g>
<!-- Node4&#45;&gt;Node13 -->
<g id="edge12" class="edge">
<title>Node4&#45;&gt;Node13</title>
<path fill="none" stroke="#191970" d="M624.5938,-278.6535C641.756,-283.8634 660.1616,-289.4508 676.6895,-294.4683"/>
<polygon fill="#191970" stroke="#191970" points="625.2418,-275.1925 614.6563,-275.6367 623.2084,-281.8907 625.2418,-275.1925"/>
</g>
<!-- Node14 -->
<g id="node14" class="node">
<title>Node14</title>
<g id="a_node14"><a xlink:href="../../d8/d98/classpsTOFTimezeroEval.html#a2e98730e1beaa91c36947c0fe671fdd2" target="_top" xlink:title="psTOFTimezeroEval::\lprocess_event">
<polygon fill="none" stroke="#000000" points="668.5,-243.5 668.5,-275.5 790.5,-275.5 790.5,-243.5 668.5,-243.5"/>
<text text-anchor="start" x="676.5" y="-262.5" font-family="FreeSans" font-size="10.00" fill="#000000">psTOFTimezeroEval::</text>
<text text-anchor="middle" x="729.5" y="-250.5" font-family="FreeSans" font-size="10.00" fill="#000000">process_event</text>
</a>
</g>
</g>
<!-- Node4&#45;&gt;Node14 -->
<g id="edge13" class="edge">
<title>Node4&#45;&gt;Node14</title>
<path fill="none" stroke="#191970" d="M630.2863,-259.5C642.9466,-259.5 656.0839,-259.5 668.4955,-259.5"/>
<polygon fill="#191970" stroke="#191970" points="630.2583,-256.0001 620.2582,-259.5 630.2582,-263.0001 630.2583,-256.0001"/>
</g>
<!-- Node15 -->
<g id="node15" class="node">
<title>Node15</title>
<g id="a_node15"><a xlink:href="../../d6/d11/classSvtxEvaluator.html#ac66ea4145deb621d9e4fb38cf852dc33" target="_top" xlink:title="SvtxEvaluator::process\l_event">
<polygon fill="none" stroke="#000000" points="663.5,-192.5 663.5,-224.5 795.5,-224.5 795.5,-192.5 663.5,-192.5"/>
<text text-anchor="start" x="671.5" y="-211.5" font-family="FreeSans" font-size="10.00" fill="#000000">SvtxEvaluator::process</text>
<text text-anchor="middle" x="729.5" y="-199.5" font-family="FreeSans" font-size="10.00" fill="#000000">_event</text>
</a>
</g>
</g>
<!-- Node4&#45;&gt;Node15 -->
<g id="edge14" class="edge">
<title>Node4&#45;&gt;Node15</title>
<path fill="none" stroke="#191970" d="M624.5938,-240.3465C641.756,-235.1366 660.1616,-229.5492 676.6895,-224.5317"/>
<polygon fill="#191970" stroke="#191970" points="623.2084,-237.1093 614.6563,-243.3633 625.2418,-243.8075 623.2084,-237.1093"/>
</g>
<!-- Node16 -->
<g id="node16" class="node">
<title>Node16</title>
<g id="a_node16"><a xlink:href="../../dc/d65/classPhotonJet.html#a3f9d3ec941f851bc2246ceb0c5362c9f" target="_top" xlink:title="PhotonJet::process\l_event">
<polygon fill="none" stroke="#000000" points="674.5,-141.5 674.5,-173.5 784.5,-173.5 784.5,-141.5 674.5,-141.5"/>
<text text-anchor="start" x="682.5" y="-160.5" font-family="FreeSans" font-size="10.00" fill="#000000">PhotonJet::process</text>
<text text-anchor="middle" x="729.5" y="-148.5" font-family="FreeSans" font-size="10.00" fill="#000000">_event</text>
</a>
</g>
</g>
<!-- Node4&#45;&gt;Node16 -->
<g id="edge15" class="edge">
<title>Node4&#45;&gt;Node16</title>
<path fill="none" stroke="#191970" d="M585.7446,-236.1446C603.9085,-219.6519 630.0079,-197.9932 656,-183.5 662.6201,-179.8086 669.8611,-176.4881 677.1344,-173.5527"/>
<polygon fill="#191970" stroke="#191970" points="582.9549,-233.9569 577.9863,-243.3145 587.7059,-239.0978 582.9549,-233.9569"/>
</g>
<!-- Node17 -->
<g id="node17" class="node">
<title>Node17</title>
<g id="a_node17"><a xlink:href="../../dc/dfb/classGenFitTrackProp.html#a92a3570ed1802ba0f7e9eeb50eb9a6ec" target="_top" xlink:title="Process Event, called for each event.">
<polygon fill="none" stroke="#000000" points="658,-90.5 658,-122.5 801,-122.5 801,-90.5 658,-90.5"/>
<text text-anchor="start" x="666" y="-109.5" font-family="FreeSans" font-size="10.00" fill="#000000">GenFitTrackProp::process</text>
<text text-anchor="middle" x="729.5" y="-97.5" font-family="FreeSans" font-size="10.00" fill="#000000">_event</text>
</a>
</g>
</g>
<!-- Node4&#45;&gt;Node17 -->
<g id="edge16" class="edge">
<title>Node4&#45;&gt;Node17</title>
<path fill="none" stroke="#191970" d="M574.1488,-234.5166C589.7547,-206.0416 618.8421,-159.9092 656,-132.5 661.1195,-128.7237 666.8366,-125.4576 672.7593,-122.6417"/>
<polygon fill="#191970" stroke="#191970" points="571.0047,-232.9741 569.381,-243.4438 577.1793,-236.2718 571.0047,-232.9741"/>
</g>
<!-- Node18 -->
<g id="node18" class="node">
<title>Node18</title>
<g id="a_node18"><a xlink:href="../../db/d4b/classEMCalAna.html#a3b829b80df0fd8625130f3d9c11f5d3d" target="_top" xlink:title="EMCalAna::process_event">
<polygon fill="none" stroke="#000000" points="656,-51.5 656,-71.5 803,-71.5 803,-51.5 656,-51.5"/>
<text text-anchor="middle" x="729.5" y="-58.5" font-family="FreeSans" font-size="10.00" fill="#000000">EMCalAna::process_event</text>
</a>
</g>
</g>
<!-- Node4&#45;&gt;Node18 -->
<g id="edge17" class="edge">
<title>Node4&#45;&gt;Node18</title>
<path fill="none" stroke="#191970" d="M568.1727,-233.3786C579.5076,-194.3672 606.2825,-121.2304 656,-81.5 661.0622,-77.4547 666.8792,-74.2253 672.9768,-71.6476"/>
<polygon fill="#191970" stroke="#191970" points="564.6873,-232.8485 565.3789,-243.4207 571.4312,-234.7247 564.6873,-232.8485"/>
</g>
<!-- Node19 -->
<g id="node19" class="node">
<title>Node19</title>
<g id="a_node19"><a xlink:href="../../de/da4/classEMCalCalib.html#aa70da6270813e434e35da37b6ec2a350" target="_top" xlink:title="EMCalCalib::process\l_event">
<polygon fill="none" stroke="#000000" points="670.5,-.5 670.5,-32.5 788.5,-32.5 788.5,-.5 670.5,-.5"/>
<text text-anchor="start" x="678.5" y="-19.5" font-family="FreeSans" font-size="10.00" fill="#000000">EMCalCalib::process</text>
<text text-anchor="middle" x="729.5" y="-7.5" font-family="FreeSans" font-size="10.00" fill="#000000">_event</text>
</a>
</g>
</g>
<!-- Node4&#45;&gt;Node19 -->
<g id="edge18" class="edge">
<title>Node4&#45;&gt;Node19</title>
<path fill="none" stroke="#191970" d="M565.8741,-233.4668C574.7854,-188.35 599.2201,-95.4003 656,-42.5 660.2584,-38.5326 665.1599,-35.1644 670.3684,-32.3061"/>
<polygon fill="#191970" stroke="#191970" points="562.4239,-232.8764 564.0215,-243.3501 569.3041,-234.1661 562.4239,-232.8764"/>
</g>
<!-- Node6 -->
<g id="node6" class="node">
<title>Node6</title>
<g id="a_node6"><a xlink:href="../../dd/d75/classJetRecoEval.html#ae02e058aa7f403d5853482b5d06c01c9" target="_top" xlink:title="reinitialize the eval for a new event">
<polygon fill="none" stroke="#000000" points="839,-504.5 839,-524.5 979,-524.5 979,-504.5 839,-504.5"/>
<text text-anchor="middle" x="909" y="-511.5" font-family="FreeSans" font-size="10.00" fill="#000000">JetRecoEval::next_event</text>
</a>
</g>
</g>
<!-- Node5&#45;&gt;Node6 -->
<g id="edge5" class="edge">
<title>Node5&#45;&gt;Node6</title>
<path fill="none" stroke="#191970" d="M793.3794,-514.5C808.1247,-514.5 823.8886,-514.5 838.8837,-514.5"/>
<polygon fill="#191970" stroke="#191970" points="793.356,-511.0001 783.3559,-514.5 793.3559,-518.0001 793.356,-511.0001"/>
</g>
<!-- Node7 -->
<g id="node7" class="node">
<title>Node7</title>
<g id="a_node7"><a xlink:href="../../dd/df3/classJetEvalStack.html#ab85ba05ab4fea5909c8faa238ba5f8e6" target="_top" xlink:title="JetEvalStack::next\l_event">
<polygon fill="none" stroke="#000000" points="1015,-498.5 1015,-530.5 1124,-530.5 1124,-498.5 1015,-498.5"/>
<text text-anchor="start" x="1023" y="-517.5" font-family="FreeSans" font-size="10.00" fill="#000000">JetEvalStack::next</text>
<text text-anchor="middle" x="1069.5" y="-505.5" font-family="FreeSans" font-size="10.00" fill="#000000">_event</text>
</a>
</g>
</g>
<!-- Node6&#45;&gt;Node7 -->
<g id="edge6" class="edge">
<title>Node6&#45;&gt;Node7</title>
<path fill="none" stroke="#191970" d="M989.6705,-514.5C998.1104,-514.5 1006.5441,-514.5 1014.5983,-514.5"/>
<polygon fill="#191970" stroke="#191970" points="989.3977,-511.0001 979.3976,-514.5 989.3976,-518.0001 989.3977,-511.0001"/>
</g>
<!-- Node8 -->
<g id="node8" class="node">
<title>Node8</title>
<g id="a_node8"><a xlink:href="../../d1/df4/classJetEvaluator.html#ad83508ae828d1f2e4a83a948465a0cd2" target="_top" xlink:title="JetEvaluator::process\l_event">
<polygon fill="none" stroke="#000000" points="1160,-524.5 1160,-556.5 1284,-556.5 1284,-524.5 1160,-524.5"/>
<text text-anchor="start" x="1168" y="-543.5" font-family="FreeSans" font-size="10.00" fill="#000000">JetEvaluator::process</text>
<text text-anchor="middle" x="1222" y="-531.5" font-family="FreeSans" font-size="10.00" fill="#000000">_event</text>
</a>
</g>
</g>
<!-- Node7&#45;&gt;Node8 -->
<g id="edge7" class="edge">
<title>Node7&#45;&gt;Node8</title>
<path fill="none" stroke="#191970" d="M1134.079,-525.5102C1142.66,-526.9732 1151.443,-528.4706 1159.9793,-529.926"/>
<polygon fill="#191970" stroke="#191970" points="1134.5713,-522.0437 1124.1253,-523.8132 1133.3948,-528.9441 1134.5713,-522.0437"/>
</g>
<!-- Node9 -->
<g id="node9" class="node">
<title>Node9</title>
<g id="a_node9"><a xlink:href="../../d8/de2/classJetEnergies.html#a6acaa9b2ba1fe7353781d2f5d476e8d1" target="_top" xlink:title="JetEnergies::process\l_event">
<polygon fill="none" stroke="#000000" points="1162,-473.5 1162,-505.5 1282,-505.5 1282,-473.5 1162,-473.5"/>
<text text-anchor="start" x="1170" y="-492.5" font-family="FreeSans" font-size="10.00" fill="#000000">JetEnergies::process</text>
<text text-anchor="middle" x="1222" y="-480.5" font-family="FreeSans" font-size="10.00" fill="#000000">_event</text>
</a>
</g>
</g>
<!-- Node7&#45;&gt;Node9 -->
<g id="edge8" class="edge">
<title>Node7&#45;&gt;Node9</title>
<path fill="none" stroke="#191970" d="M1134.009,-503.9248C1143.2267,-502.4137 1152.6788,-500.8641 1161.8092,-499.3673"/>
<polygon fill="#191970" stroke="#191970" points="1133.4273,-500.4733 1124.1253,-505.545 1134.5598,-507.3811 1133.4273,-500.4733"/>
</g>
</g>
</svg>
