<?xml version="1.0" encoding="UTF-8" standalone="no"?>
<!DOCTYPE svg PUBLIC "-//W3C//DTD SVG 1.1//EN"
 "http://www.w3.org/Graphics/SVG/1.1/DTD/svg11.dtd">
<!-- Generated by graphviz version 2.40.1 (20161225.0304)
 -->
<!-- Title: SvtxTrackEval::max_truth_particle_by_nclusters Pages: 1 -->
<svg width="1304pt" height="1078pt"
 viewBox="0.00 0.00 1304.00 1078.00" xmlns="http://www.w3.org/2000/svg" xmlns:xlink="http://www.w3.org/1999/xlink">
<g id="graph0" class="graph" transform="scale(1 1) rotate(0) translate(4 1074)">
<title>SvtxTrackEval::max_truth_particle_by_nclusters</title>
<!-- Node1 -->
<g id="node1" class="node">
<title>Node1</title>
<polygon fill="#bfbfbf" stroke="#000000" points="0,-679.5 0,-711.5 159,-711.5 159,-679.5 0,-679.5"/>
<text text-anchor="start" x="8" y="-698.5" font-family="FreeSans" font-size="10.00" fill="#000000">SvtxTrackEval::max</text>
<text text-anchor="middle" x="79.5" y="-686.5" font-family="FreeSans" font-size="10.00" fill="#000000">_truth_particle_by_nclusters</text>
</g>
<!-- Node2 -->
<g id="node2" class="node">
<title>Node2</title>
<g id="a_node2"><a xlink:href="../../d6/d40/classLeptoquarksReco.html#a74b066097052383649d5ecd7efb01627" target="_top" xlink:title="LeptoquarksReco::AddTrack\lInformation">
<polygon fill="none" stroke="#000000" points="195,-1037.5 195,-1069.5 351,-1069.5 351,-1037.5 195,-1037.5"/>
<text text-anchor="start" x="203" y="-1056.5" font-family="FreeSans" font-size="10.00" fill="#000000">LeptoquarksReco::AddTrack</text>
<text text-anchor="middle" x="273" y="-1044.5" font-family="FreeSans" font-size="10.00" fill="#000000">Information</text>
</a>
</g>
</g>
<!-- Node1&#45;&gt;Node2 -->
<g id="edge1" class="edge">
<title>Node1&#45;&gt;Node2</title>
<path fill="none" stroke="#191970" d="M81.5431,-721.7986C87.6408,-782.7422 110.9092,-935.0849 195,-1022.5 200.8593,-1028.591 208.0675,-1033.5132 215.7124,-1037.4837"/>
<polygon fill="#191970" stroke="#191970" points="84.9986,-721.1546 80.5936,-711.519 78.0283,-721.7985 84.9986,-721.1546"/>
</g>
<!-- Node4 -->
<g id="node4" class="node">
<title>Node4</title>
<g id="a_node4"><a xlink:href="../../d4/d21/classSvtxVertexEval.html#acd835bfba4372dee96f9314613fb955b" target="_top" xlink:title="SvtxVertexEval::all\l_truth_particles">
<polygon fill="none" stroke="#000000" points="217.5,-791.5 217.5,-823.5 328.5,-823.5 328.5,-791.5 217.5,-791.5"/>
<text text-anchor="start" x="225.5" y="-810.5" font-family="FreeSans" font-size="10.00" fill="#000000">SvtxVertexEval::all</text>
<text text-anchor="middle" x="273" y="-798.5" font-family="FreeSans" font-size="10.00" fill="#000000">_truth_particles</text>
</a>
</g>
</g>
<!-- Node1&#45;&gt;Node4 -->
<g id="edge3" class="edge">
<title>Node1&#45;&gt;Node4</title>
<path fill="none" stroke="#191970" d="M107.5758,-717.9952C130.2511,-735.457 163.4668,-759.4797 195,-776.5 205.1304,-781.9679 216.4363,-787.0133 227.2276,-791.3761"/>
<polygon fill="#191970" stroke="#191970" points="109.468,-715.0327 99.4269,-711.6524 105.1684,-720.5566 109.468,-715.0327"/>
</g>
<!-- Node7 -->
<g id="node7" class="node">
<title>Node7</title>
<g id="a_node7"><a xlink:href="../../d8/d98/classpsTOFTimezeroEval.html#ae9fd1570652089bed4ec7eb81009b318" target="_top" xlink:title="dump the evaluator information into ntuple for external analysis">
<polygon fill="none" stroke="#000000" points="978.5,-713.5 978.5,-745.5 1100.5,-745.5 1100.5,-713.5 978.5,-713.5"/>
<text text-anchor="start" x="986.5" y="-732.5" font-family="FreeSans" font-size="10.00" fill="#000000">psTOFTimezeroEval::</text>
<text text-anchor="middle" x="1039.5" y="-720.5" font-family="FreeSans" font-size="10.00" fill="#000000">fillOutputNtuples</text>
</a>
</g>
</g>
<!-- Node1&#45;&gt;Node7 -->
<g id="edge21" class="edge">
<title>Node1&#45;&gt;Node7</title>
<path fill="none" stroke="#191970" d="M137.5136,-676.61C155.7419,-671.302 176.0565,-666.0233 195,-662.5 312.3539,-640.6732 343.1336,-638.5 462.5,-638.5 462.5,-638.5 462.5,-638.5 657.5,-638.5 772.4405,-638.5 804.9687,-629.2672 915,-662.5 952.8308,-673.926 992.3201,-697.4803 1016.419,-713.3885"/>
<polygon fill="#191970" stroke="#191970" points="136.4962,-673.261 127.9076,-679.4647 138.4903,-679.9709 136.4962,-673.261"/>
</g>
<!-- Node9 -->
<g id="node9" class="node">
<title>Node9</title>
<g id="a_node9"><a xlink:href="../../d9/d59/classSimpleTrackingAnalysis.html#a60dd2938667eebaafcb17118a6bdb8f3" target="_top" xlink:title="SimpleTrackingAnalysis\l::process_event">
<polygon fill="none" stroke="#000000" points="972,-984.5 972,-1016.5 1107,-1016.5 1107,-984.5 972,-984.5"/>
<text text-anchor="start" x="980" y="-1003.5" font-family="FreeSans" font-size="10.00" fill="#000000">SimpleTrackingAnalysis</text>
<text text-anchor="middle" x="1039.5" y="-991.5" font-family="FreeSans" font-size="10.00" fill="#000000">::process_event</text>
</a>
</g>
</g>
<!-- Node1&#45;&gt;Node9 -->
<g id="edge62" class="edge">
<title>Node1&#45;&gt;Node9</title>
<path fill="none" stroke="#191970" d="M84.1414,-721.7339C94.5056,-772.3037 124.4061,-883.3991 195,-941.5 289.632,-1019.385 339.9387,-1008.5 462.5,-1008.5 462.5,-1008.5 462.5,-1008.5 657.5,-1008.5 767.6144,-1008.5 895.5442,-1005.1362 971.8851,-1002.7711"/>
<polygon fill="#191970" stroke="#191970" points="87.5191,-720.7684 82.1672,-711.6247 80.6488,-722.1102 87.5191,-720.7684"/>
</g>
<!-- Node10 -->
<g id="node10" class="node">
<title>Node10</title>
<g id="a_node10"><a xlink:href="../../d0/da1/classSvtxSimPerformanceCheckReco.html#a1d70a654fae75f20cf3566e08119d80e" target="_top" xlink:title="SvtxSimPerformanceCheckReco\l::process_event">
<polygon fill="none" stroke="#000000" points="951,-917.5 951,-949.5 1128,-949.5 1128,-917.5 951,-917.5"/>
<text text-anchor="start" x="959" y="-936.5" font-family="FreeSans" font-size="10.00" fill="#000000">SvtxSimPerformanceCheckReco</text>
<text text-anchor="middle" x="1039.5" y="-924.5" font-family="FreeSans" font-size="10.00" fill="#000000">::process_event</text>
</a>
</g>
</g>
<!-- Node1&#45;&gt;Node10 -->
<g id="edge60" class="edge">
<title>Node1&#45;&gt;Node10</title>
<path fill="none" stroke="#191970" d="M87.8073,-721.3214C102.5828,-763.1317 137.4086,-845.4954 195,-890.5 292.778,-966.9083 338.4082,-970.5 462.5,-970.5 462.5,-970.5 462.5,-970.5 657.5,-970.5 758.4442,-970.5 873.6968,-957.5417 950.9695,-946.9625"/>
<polygon fill="#191970" stroke="#191970" points="91.0334,-719.9387 84.4812,-711.6129 84.4113,-722.2075 91.0334,-719.9387"/>
</g>
<!-- Node11 -->
<g id="node11" class="node">
<title>Node11</title>
<g id="a_node11"><a xlink:href="../../d2/d85/classSvtxEvaluatorHaiwang.html#a0fd261422264aedc22d0506ef5e897c4" target="_top" xlink:title="dump the evaluator information into ntuple for external analysis">
<polygon fill="none" stroke="#000000" points="974,-770.5 974,-802.5 1105,-802.5 1105,-770.5 974,-770.5"/>
<text text-anchor="start" x="982" y="-789.5" font-family="FreeSans" font-size="10.00" fill="#000000">SvtxEvaluatorHaiwang</text>
<text text-anchor="middle" x="1039.5" y="-777.5" font-family="FreeSans" font-size="10.00" fill="#000000">::fillOutputNtuples</text>
</a>
</g>
</g>
<!-- Node1&#45;&gt;Node11 -->
<g id="edge22" class="edge">
<title>Node1&#45;&gt;Node11</title>
<path fill="none" stroke="#191970" d="M169.249,-688.5299C246.8272,-683.1079 361.9909,-676.5 462.5,-676.5 462.5,-676.5 462.5,-676.5 657.5,-676.5 691.0151,-676.5 893.609,-739.8337 989.3948,-770.3873"/>
<polygon fill="#191970" stroke="#191970" points="168.76,-685.0557 159.0317,-689.2524 169.2537,-692.0383 168.76,-685.0557"/>
</g>
<!-- Node13 -->
<g id="node13" class="node">
<title>Node13</title>
<g id="a_node13"><a xlink:href="../../d6/d11/classSvtxEvaluator.html#ace95fef2b7b4ad8b797f6695e053dd6e" target="_top" xlink:title="dump the evaluator information into ntuple for external analysis">
<polygon fill="none" stroke="#000000" points="969,-834.5 969,-866.5 1110,-866.5 1110,-834.5 969,-834.5"/>
<text text-anchor="start" x="977" y="-853.5" font-family="FreeSans" font-size="10.00" fill="#000000">SvtxEvaluator::fillOutput</text>
<text text-anchor="middle" x="1039.5" y="-841.5" font-family="FreeSans" font-size="10.00" fill="#000000">Ntuples</text>
</a>
</g>
</g>
<!-- Node1&#45;&gt;Node13 -->
<g id="edge23" class="edge">
<title>Node1&#45;&gt;Node13</title>
<path fill="none" stroke="#191970" d="M94.7072,-720.7047C114.3513,-751.3128 151.2676,-802.6609 195,-833.5 298.6012,-906.5573 335.7303,-932.5 462.5,-932.5 462.5,-932.5 462.5,-932.5 657.5,-932.5 772.2556,-932.5 804.4343,-944.2255 915,-913.5 951.877,-903.2521 990.6586,-881.656 1014.9465,-866.6232"/>
<polygon fill="#191970" stroke="#191970" points="97.4654,-718.5163 89.1768,-711.9171 91.541,-722.2448 97.4654,-718.5163"/>
</g>
<!-- Node17 -->
<g id="node17" class="node">
<title>Node17</title>
<g id="a_node17"><a xlink:href="../../dc/dfb/classGenFitTrackProp.html#a8d5db0ce6e441d4f326328acc37d47b9" target="_top" xlink:title="GenFitTrackProp::fill_tree">
<polygon fill="none" stroke="#000000" points="202.5,-746.5 202.5,-766.5 343.5,-766.5 343.5,-746.5 202.5,-746.5"/>
<text text-anchor="middle" x="273" y="-753.5" font-family="FreeSans" font-size="10.00" fill="#000000">GenFitTrackProp::fill_tree</text>
</a>
</g>
</g>
<!-- Node1&#45;&gt;Node17 -->
<g id="edge19" class="edge">
<title>Node1&#45;&gt;Node17</title>
<path fill="none" stroke="#191970" d="M140.0526,-714.5889C173.5837,-725.1595 213.8928,-737.8667 241.2708,-746.4975"/>
<polygon fill="#191970" stroke="#191970" points="140.9295,-711.1956 130.3398,-711.527 138.8248,-717.8718 140.9295,-711.1956"/>
</g>
<!-- Node19 -->
<g id="node19" class="node">
<title>Node19</title>
<g id="a_node19"><a xlink:href="../../dd/d75/classJetRecoEval.html#af6356d19d3ff0ee9c9849348466e7d0e" target="_top" xlink:title="what was the energy contribution to this reconstructed jet from this truth jet?">
<polygon fill="none" stroke="#000000" points="203,-311.5 203,-343.5 343,-343.5 343,-311.5 203,-311.5"/>
<text text-anchor="start" x="211" y="-330.5" font-family="FreeSans" font-size="10.00" fill="#000000">JetRecoEval::get_energy</text>
<text text-anchor="middle" x="273" y="-318.5" font-family="FreeSans" font-size="10.00" fill="#000000">_contribution</text>
</a>
</g>
</g>
<!-- Node1&#45;&gt;Node19 -->
<g id="edge24" class="edge">
<title>Node1&#45;&gt;Node19</title>
<path fill="none" stroke="#191970" d="M92.8543,-670.1026C130.0503,-599.3631 234.0971,-401.4859 264.5348,-343.5992"/>
<polygon fill="#191970" stroke="#191970" points="89.6203,-668.7327 88.0641,-679.2127 95.816,-671.9906 89.6203,-668.7327"/>
</g>
<!-- Node25 -->
<g id="node25" class="node">
<title>Node25</title>
<g id="a_node25"><a xlink:href="../../db/d4c/classBJetModule.html#a93ec29147c2d7aea52780d7370141e74" target="_top" xlink:title="BJetModule::process\l_event">
<polygon fill="none" stroke="#000000" points="598,-39.5 598,-71.5 717,-71.5 717,-39.5 598,-39.5"/>
<text text-anchor="start" x="606" y="-58.5" font-family="FreeSans" font-size="10.00" fill="#000000">BJetModule::process</text>
<text text-anchor="middle" x="657.5" y="-46.5" font-family="FreeSans" font-size="10.00" fill="#000000">_event</text>
</a>
</g>
</g>
<!-- Node1&#45;&gt;Node25 -->
<g id="edge63" class="edge">
<title>Node1&#45;&gt;Node25</title>
<path fill="none" stroke="#191970" d="M82.2425,-669.2597C94.4652,-567.8773 154.1081,-201.465 387,-81.5 453.1619,-47.4194 540.4976,-45.4678 597.7893,-48.9898"/>
<polygon fill="#191970" stroke="#191970" points="78.7578,-668.9265 81.0892,-679.2616 85.7117,-669.7284 78.7578,-668.9265"/>
</g>
<!-- Node31 -->
<g id="node31" class="node">
<title>Node31</title>
<g id="a_node31"><a xlink:href="../../dc/d65/classPhotonJet.html#a9b2de7dcbd5e3bbbd26150d418b7bb44" target="_top" xlink:title="PhotonJet::GetRecoHadrons\lAndJets">
<polygon fill="none" stroke="#000000" points="579.5,-539.5 579.5,-571.5 735.5,-571.5 735.5,-539.5 579.5,-539.5"/>
<text text-anchor="start" x="587.5" y="-558.5" font-family="FreeSans" font-size="10.00" fill="#000000">PhotonJet::GetRecoHadrons</text>
<text text-anchor="middle" x="657.5" y="-546.5" font-family="FreeSans" font-size="10.00" fill="#000000">AndJets</text>
</a>
</g>
</g>
<!-- Node1&#45;&gt;Node31 -->
<g id="edge59" class="edge">
<title>Node1&#45;&gt;Node31</title>
<path fill="none" stroke="#191970" d="M96.988,-671.0219C117.2425,-644.8747 153.2291,-604.7389 195,-586.5 320.7459,-531.5941 484.1486,-536.0737 579.2701,-545.1904"/>
<polygon fill="#191970" stroke="#191970" points="93.9694,-669.2115 90.7366,-679.3012 99.5557,-673.4297 93.9694,-669.2115"/>
</g>
<!-- Node32 -->
<g id="node32" class="node">
<title>Node32</title>
<g id="a_node32"><a xlink:href="../../dc/d65/classPhotonJet.html#a3f9d3ec941f851bc2246ceb0c5362c9f" target="_top" xlink:title="PhotonJet::process\l_event">
<polygon fill="none" stroke="#000000" points="791,-539.5 791,-571.5 901,-571.5 901,-539.5 791,-539.5"/>
<text text-anchor="start" x="799" y="-558.5" font-family="FreeSans" font-size="10.00" fill="#000000">PhotonJet::process</text>
<text text-anchor="middle" x="846" y="-546.5" font-family="FreeSans" font-size="10.00" fill="#000000">_event</text>
</a>
</g>
</g>
<!-- Node1&#45;&gt;Node32 -->
<g id="edge64" class="edge">
<title>Node1&#45;&gt;Node32</title>
<path fill="none" stroke="#191970" d="M107.3153,-673.1367C129.6135,-656.5687 162.4539,-635.1009 195,-624.5 426.4499,-549.1124 500.7169,-620.4406 741,-581.5 757.3133,-578.8562 774.8184,-574.9578 790.7684,-570.9797"/>
<polygon fill="#191970" stroke="#191970" points="105.1579,-670.3802 99.3081,-679.2137 109.3897,-675.9562 105.1579,-670.3802"/>
</g>
<!-- Node37 -->
<g id="node37" class="node">
<title>Node37</title>
<g id="a_node37"><a xlink:href="../../d4/d21/classSvtxVertexEval.html#a266c840c37e717d884d65b0b77806e96" target="_top" xlink:title="SvtxVertexEval::get\l_ntracks_contribution">
<polygon fill="none" stroke="#000000" points="595,-738.5 595,-770.5 720,-770.5 720,-738.5 595,-738.5"/>
<text text-anchor="start" x="603" y="-757.5" font-family="FreeSans" font-size="10.00" fill="#000000">SvtxVertexEval::get</text>
<text text-anchor="middle" x="657.5" y="-745.5" font-family="FreeSans" font-size="10.00" fill="#000000">_ntracks_contribution</text>
</a>
</g>
</g>
<!-- Node1&#45;&gt;Node37 -->
<g id="edge53" class="edge">
<title>Node1&#45;&gt;Node37</title>
<path fill="none" stroke="#191970" d="M169.3978,-700.9871C262.0045,-707.1456 410.4162,-718.4242 538,-734.5 556.47,-736.8273 576.4513,-739.9356 594.6915,-743.007"/>
<polygon fill="#191970" stroke="#191970" points="169.4311,-697.4818 159.2224,-700.3162 168.9704,-704.4667 169.4311,-697.4818"/>
</g>
<!-- Node38 -->
<g id="node38" class="node">
<title>Node38</title>
<g id="a_node38"><a xlink:href="../../d0/dab/classTrackingPerformanceCheck.html#a8dafa93c6ddc8928257fec958a45ee6b" target="_top" xlink:title="TrackingPerformanceCheck\l::process_event">
<polygon fill="none" stroke="#000000" points="195.5,-.5 195.5,-32.5 350.5,-32.5 350.5,-.5 195.5,-.5"/>
<text text-anchor="start" x="203.5" y="-19.5" font-family="FreeSans" font-size="10.00" fill="#000000">TrackingPerformanceCheck</text>
<text text-anchor="middle" x="273" y="-7.5" font-family="FreeSans" font-size="10.00" fill="#000000">::process_event</text>
</a>
</g>
</g>
<!-- Node1&#45;&gt;Node38 -->
<g id="edge61" class="edge">
<title>Node1&#45;&gt;Node38</title>
<path fill="none" stroke="#191970" d="M80.8368,-669.2696C86.8707,-560.4601 114.8477,-145.721 195,-47.5 199.975,-41.4034 206.3218,-36.4995 213.2403,-32.5564"/>
<polygon fill="#191970" stroke="#191970" points="77.3357,-669.1984 80.2916,-679.3725 84.3255,-669.5757 77.3357,-669.1984"/>
</g>
<!-- Node3 -->
<g id="node3" class="node">
<title>Node3</title>
<g id="a_node3"><a xlink:href="../../d6/d40/classLeptoquarksReco.html#aa5b8ff9665c7a78246bd4f1194d66d1b" target="_top" xlink:title="LeptoquarksReco::process\l_event">
<polygon fill="none" stroke="#000000" points="388,-1037.5 388,-1069.5 537,-1069.5 537,-1037.5 388,-1037.5"/>
<text text-anchor="start" x="396" y="-1056.5" font-family="FreeSans" font-size="10.00" fill="#000000">LeptoquarksReco::process</text>
<text text-anchor="middle" x="462.5" y="-1044.5" font-family="FreeSans" font-size="10.00" fill="#000000">_event</text>
</a>
</g>
</g>
<!-- Node2&#45;&gt;Node3 -->
<g id="edge2" class="edge">
<title>Node2&#45;&gt;Node3</title>
<path fill="none" stroke="#191970" d="M361.1903,-1053.5C370.109,-1053.5 379.1055,-1053.5 387.8617,-1053.5"/>
<polygon fill="#191970" stroke="#191970" points="361.171,-1050.0001 351.171,-1053.5 361.1709,-1057.0001 361.171,-1050.0001"/>
</g>
<!-- Node5 -->
<g id="node5" class="node">
<title>Node5</title>
<g id="a_node5"><a xlink:href="../../d4/d21/classSvtxVertexEval.html#a7ff115ef20337311f4d7edb1d2409f20" target="_top" xlink:title="SvtxVertexEval::all\l_truth_points">
<polygon fill="none" stroke="#000000" points="407,-794.5 407,-826.5 518,-826.5 518,-794.5 407,-794.5"/>
<text text-anchor="start" x="415" y="-813.5" font-family="FreeSans" font-size="10.00" fill="#000000">SvtxVertexEval::all</text>
<text text-anchor="middle" x="462.5" y="-801.5" font-family="FreeSans" font-size="10.00" fill="#000000">_truth_points</text>
</a>
</g>
</g>
<!-- Node4&#45;&gt;Node5 -->
<g id="edge4" class="edge">
<title>Node4&#45;&gt;Node5</title>
<path fill="none" stroke="#191970" d="M338.6175,-808.5388C360.881,-808.8913 385.5216,-809.2813 406.9252,-809.6202"/>
<polygon fill="#191970" stroke="#191970" points="338.63,-805.0387 328.5758,-808.3798 338.5191,-812.0378 338.63,-805.0387"/>
</g>
<!-- Node6 -->
<g id="node6" class="node">
<title>Node6</title>
<g id="a_node6"><a xlink:href="../../d4/d21/classSvtxVertexEval.html#aa7e59a495f87824e3f1088d1f5436ecb" target="_top" xlink:title="SvtxVertexEval::max\l_truth_point_by_ntracks">
<polygon fill="none" stroke="#000000" points="777,-871.5 777,-903.5 915,-903.5 915,-871.5 777,-871.5"/>
<text text-anchor="start" x="785" y="-890.5" font-family="FreeSans" font-size="10.00" fill="#000000">SvtxVertexEval::max</text>
<text text-anchor="middle" x="846" y="-878.5" font-family="FreeSans" font-size="10.00" fill="#000000">_truth_point_by_ntracks</text>
</a>
</g>
</g>
<!-- Node5&#45;&gt;Node6 -->
<g id="edge5" class="edge">
<title>Node5&#45;&gt;Node6</title>
<path fill="none" stroke="#191970" d="M527.8347,-824.7869C542.98,-828.0366 559.0427,-831.4333 574,-834.5 642.9275,-848.6322 721.8729,-863.9149 776.894,-874.4213"/>
<polygon fill="#191970" stroke="#191970" points="528.548,-821.3604 518.0354,-822.6776 527.0749,-828.2037 528.548,-821.3604"/>
</g>
<!-- Node15 -->
<g id="node15" class="node">
<title>Node15</title>
<g id="a_node15"><a xlink:href="../../d4/d21/classSvtxVertexEval.html#a8d536f79d01ad909dcfbf24bada4c0bf" target="_top" xlink:title="SvtxVertexEval::all\l_vertexes_from">
<polygon fill="none" stroke="#000000" points="602,-792.5 602,-824.5 713,-824.5 713,-792.5 602,-792.5"/>
<text text-anchor="start" x="610" y="-811.5" font-family="FreeSans" font-size="10.00" fill="#000000">SvtxVertexEval::all</text>
<text text-anchor="middle" x="657.5" y="-799.5" font-family="FreeSans" font-size="10.00" fill="#000000">_vertexes_from</text>
</a>
</g>
</g>
<!-- Node5&#45;&gt;Node15 -->
<g id="edge14" class="edge">
<title>Node5&#45;&gt;Node15</title>
<path fill="none" stroke="#191970" d="M528.1687,-809.8265C552.075,-809.5813 578.8492,-809.3067 601.8079,-809.0712"/>
<polygon fill="#191970" stroke="#191970" points="528.0818,-806.3271 518.1182,-809.9296 528.1536,-813.3267 528.0818,-806.3271"/>
</g>
<!-- Node6&#45;&gt;Node7 -->
<g id="edge6" class="edge">
<title>Node6&#45;&gt;Node7</title>
<path fill="none" stroke="#191970" d="M874.4569,-864.5208C887.6847,-853.0226 903.0853,-838.4001 915,-823.5 934.8997,-798.6141 926.544,-781.9258 951,-761.5 959.0254,-754.7971 968.5694,-749.4457 978.371,-745.1889"/>
<polygon fill="#191970" stroke="#191970" points="871.8973,-862.1032 866.5521,-871.2508 876.4352,-867.4331 871.8973,-862.1032"/>
</g>
<!-- Node6&#45;&gt;Node9 -->
<g id="edge8" class="edge">
<title>Node6&#45;&gt;Node9</title>
<path fill="none" stroke="#191970" d="M875.7437,-909.8765C896.3077,-924.8465 924.611,-944.4796 951,-959.5 966.8937,-968.5465 985.1282,-977.2572 1000.8997,-984.3053"/>
<polygon fill="#191970" stroke="#191970" points="877.5644,-906.8711 867.4326,-903.7733 873.4212,-912.5133 877.5644,-906.8711"/>
</g>
<!-- Node6&#45;&gt;Node10 -->
<g id="edge9" class="edge">
<title>Node6&#45;&gt;Node10</title>
<path fill="none" stroke="#191970" d="M923.3215,-905.8813C939.4302,-909.7108 956.2883,-913.7184 972.0088,-917.4556"/>
<polygon fill="#191970" stroke="#191970" points="923.9437,-902.4318 913.4053,-903.524 922.3246,-909.242 923.9437,-902.4318"/>
</g>
<!-- Node6&#45;&gt;Node11 -->
<g id="edge10" class="edge">
<title>Node6&#45;&gt;Node11</title>
<path fill="none" stroke="#191970" d="M879.9837,-866.0482C900.2647,-853.5976 926.7193,-837.9633 951,-825.5 966.8336,-817.3726 984.7282,-809.2892 1000.2623,-802.6069"/>
<polygon fill="#191970" stroke="#191970" points="878.0788,-863.111 871.4126,-871.3459 881.7591,-869.0654 878.0788,-863.111"/>
</g>
<!-- Node6&#45;&gt;Node13 -->
<g id="edge12" class="edge">
<title>Node6&#45;&gt;Node13</title>
<path fill="none" stroke="#191970" d="M924.9898,-872.396C939.516,-869.6184 954.5952,-866.735 968.8566,-864.008"/>
<polygon fill="#191970" stroke="#191970" points="924.2031,-868.9829 915.0384,-874.2989 925.5179,-875.8584 924.2031,-868.9829"/>
</g>
<!-- Node8 -->
<g id="node8" class="node">
<title>Node8</title>
<g id="a_node8"><a xlink:href="../../d8/d98/classpsTOFTimezeroEval.html#a2e98730e1beaa91c36947c0fe671fdd2" target="_top" xlink:title="psTOFTimezeroEval::\lprocess_event">
<polygon fill="none" stroke="#000000" points="1169,-713.5 1169,-745.5 1291,-745.5 1291,-713.5 1169,-713.5"/>
<text text-anchor="start" x="1177" y="-732.5" font-family="FreeSans" font-size="10.00" fill="#000000">psTOFTimezeroEval::</text>
<text text-anchor="middle" x="1230" y="-720.5" font-family="FreeSans" font-size="10.00" fill="#000000">process_event</text>
</a>
</g>
</g>
<!-- Node7&#45;&gt;Node8 -->
<g id="edge7" class="edge">
<title>Node7&#45;&gt;Node8</title>
<path fill="none" stroke="#191970" d="M1110.7323,-729.5C1129.8817,-729.5 1150.4167,-729.5 1168.9575,-729.5"/>
<polygon fill="#191970" stroke="#191970" points="1110.5615,-726.0001 1100.5614,-729.5 1110.5614,-733.0001 1110.5615,-726.0001"/>
</g>
<!-- Node12 -->
<g id="node12" class="node">
<title>Node12</title>
<g id="a_node12"><a xlink:href="../../d2/d85/classSvtxEvaluatorHaiwang.html#ab63ca0cc53b56dad65b89d9b18220bce" target="_top" xlink:title="SvtxEvaluatorHaiwang\l::process_event">
<polygon fill="none" stroke="#000000" points="1164.5,-770.5 1164.5,-802.5 1295.5,-802.5 1295.5,-770.5 1164.5,-770.5"/>
<text text-anchor="start" x="1172.5" y="-789.5" font-family="FreeSans" font-size="10.00" fill="#000000">SvtxEvaluatorHaiwang</text>
<text text-anchor="middle" x="1230" y="-777.5" font-family="FreeSans" font-size="10.00" fill="#000000">::process_event</text>
</a>
</g>
</g>
<!-- Node11&#45;&gt;Node12 -->
<g id="edge11" class="edge">
<title>Node11&#45;&gt;Node12</title>
<path fill="none" stroke="#191970" d="M1115.0772,-786.5C1131.3619,-786.5 1148.4488,-786.5 1164.3199,-786.5"/>
<polygon fill="#191970" stroke="#191970" points="1115.0593,-783.0001 1105.0593,-786.5 1115.0593,-790.0001 1115.0593,-783.0001"/>
</g>
<!-- Node14 -->
<g id="node14" class="node">
<title>Node14</title>
<g id="a_node14"><a xlink:href="../../d6/d11/classSvtxEvaluator.html#ac66ea4145deb621d9e4fb38cf852dc33" target="_top" xlink:title="SvtxEvaluator::process\l_event">
<polygon fill="none" stroke="#000000" points="1164,-834.5 1164,-866.5 1296,-866.5 1296,-834.5 1164,-834.5"/>
<text text-anchor="start" x="1172" y="-853.5" font-family="FreeSans" font-size="10.00" fill="#000000">SvtxEvaluator::process</text>
<text text-anchor="middle" x="1230" y="-841.5" font-family="FreeSans" font-size="10.00" fill="#000000">_event</text>
</a>
</g>
</g>
<!-- Node13&#45;&gt;Node14 -->
<g id="edge13" class="edge">
<title>Node13&#45;&gt;Node14</title>
<path fill="none" stroke="#191970" d="M1120.5813,-850.5C1135.0219,-850.5 1149.9069,-850.5 1163.8684,-850.5"/>
<polygon fill="#191970" stroke="#191970" points="1120.1645,-847.0001 1110.1645,-850.5 1120.1644,-854.0001 1120.1645,-847.0001"/>
</g>
<!-- Node16 -->
<g id="node16" class="node">
<title>Node16</title>
<g id="a_node16"><a xlink:href="../../d4/d21/classSvtxVertexEval.html#ac76bf94cd6531f13664e0d56a052dbfe" target="_top" xlink:title="SvtxVertexEval::best\l_vertex_from">
<polygon fill="none" stroke="#000000" points="785,-781.5 785,-813.5 907,-813.5 907,-781.5 785,-781.5"/>
<text text-anchor="start" x="793" y="-800.5" font-family="FreeSans" font-size="10.00" fill="#000000">SvtxVertexEval::best</text>
<text text-anchor="middle" x="846" y="-788.5" font-family="FreeSans" font-size="10.00" fill="#000000">_vertex_from</text>
</a>
</g>
</g>
<!-- Node15&#45;&gt;Node16 -->
<g id="edge15" class="edge">
<title>Node15&#45;&gt;Node16</title>
<path fill="none" stroke="#191970" d="M723.036,-804.6756C743.129,-803.5031 765.1471,-802.2182 784.9296,-801.0638"/>
<polygon fill="#191970" stroke="#191970" points="722.8158,-801.1824 713.0367,-805.2591 723.2236,-808.1705 722.8158,-801.1824"/>
</g>
<!-- Node16&#45;&gt;Node7 -->
<g id="edge16" class="edge">
<title>Node16&#45;&gt;Node7</title>
<path fill="none" stroke="#191970" d="M901.4973,-777.9971C930.6801,-767.7416 966.0241,-755.321 993.6375,-745.6171"/>
<polygon fill="#191970" stroke="#191970" points="900.1308,-774.7674 891.8568,-781.3849 902.4516,-781.3715 900.1308,-774.7674"/>
</g>
<!-- Node16&#45;&gt;Node11 -->
<g id="edge17" class="edge">
<title>Node16&#45;&gt;Node11</title>
<path fill="none" stroke="#191970" d="M917.3652,-793.4431C935.9001,-792.3894 955.7726,-791.2597 973.9897,-790.2241"/>
<polygon fill="#191970" stroke="#191970" points="917.0098,-789.9575 907.2246,-794.0195 917.4072,-796.9462 917.0098,-789.9575"/>
</g>
<!-- Node16&#45;&gt;Node13 -->
<g id="edge18" class="edge">
<title>Node16&#45;&gt;Node13</title>
<path fill="none" stroke="#191970" d="M914.381,-816.2297C936.0673,-822.1696 959.8398,-828.6809 980.784,-834.4176"/>
<polygon fill="#191970" stroke="#191970" points="915.1509,-812.8117 904.5815,-813.5456 913.3016,-819.563 915.1509,-812.8117"/>
</g>
<!-- Node18 -->
<g id="node18" class="node">
<title>Node18</title>
<g id="a_node18"><a xlink:href="../../dc/dfb/classGenFitTrackProp.html#a92a3570ed1802ba0f7e9eeb50eb9a6ec" target="_top" xlink:title="Process Event, called for each event.">
<polygon fill="none" stroke="#000000" points="391,-743.5 391,-775.5 534,-775.5 534,-743.5 391,-743.5"/>
<text text-anchor="start" x="399" y="-762.5" font-family="FreeSans" font-size="10.00" fill="#000000">GenFitTrackProp::process</text>
<text text-anchor="middle" x="462.5" y="-750.5" font-family="FreeSans" font-size="10.00" fill="#000000">_event</text>
</a>
</g>
</g>
<!-- Node17&#45;&gt;Node18 -->
<g id="edge20" class="edge">
<title>Node17&#45;&gt;Node18</title>
<path fill="none" stroke="#191970" d="M353.8276,-757.7796C366.1602,-757.9748 378.8144,-758.1752 390.9299,-758.367"/>
<polygon fill="#191970" stroke="#191970" points="353.617,-754.2759 343.5628,-757.6171 353.5061,-761.275 353.617,-754.2759"/>
</g>
<!-- Node20 -->
<g id="node20" class="node">
<title>Node20</title>
<g id="a_node20"><a xlink:href="../../dd/d75/classJetRecoEval.html#a631b92837e600fbdb6b966a556fc9077" target="_top" xlink:title="which reconstructed jet had the largest energy contribution from this truth jet?">
<polygon fill="none" stroke="#000000" points="387,-275.5 387,-295.5 538,-295.5 538,-275.5 387,-275.5"/>
<text text-anchor="middle" x="462.5" y="-282.5" font-family="FreeSans" font-size="10.00" fill="#000000">JetRecoEval::best_jet_from</text>
</a>
</g>
</g>
<!-- Node19&#45;&gt;Node20 -->
<g id="edge25" class="edge">
<title>Node19&#45;&gt;Node20</title>
<path fill="none" stroke="#191970" d="M353.0073,-309.7675C374.938,-304.9069 397.949,-299.8068 417.1844,-295.5436"/>
<polygon fill="#191970" stroke="#191970" points="352.0301,-306.3991 343.0244,-311.9801 353.5449,-313.2332 352.0301,-306.3991"/>
</g>
<!-- Node21 -->
<g id="node21" class="node">
<title>Node21</title>
<g id="a_node21"><a xlink:href="../../d1/df4/classJetEvaluator.html#a0c608411c03ff1de3fca80d64e93ae5d" target="_top" xlink:title="dump the evaluator information into ntuple for external analysis">
<polygon fill="none" stroke="#000000" points="591,-449.5 591,-481.5 724,-481.5 724,-449.5 591,-449.5"/>
<text text-anchor="start" x="599" y="-468.5" font-family="FreeSans" font-size="10.00" fill="#000000">JetEvaluator::fillOutput</text>
<text text-anchor="middle" x="657.5" y="-456.5" font-family="FreeSans" font-size="10.00" fill="#000000">Ntuples</text>
</a>
</g>
</g>
<!-- Node19&#45;&gt;Node21 -->
<g id="edge37" class="edge">
<title>Node19&#45;&gt;Node21</title>
<path fill="none" stroke="#191970" d="M302.4806,-349.4864C324.7042,-365.1359 356.4748,-385.5973 387,-398.5 453.7337,-426.7076 534.9537,-444.8406 590.8773,-455.0333"/>
<polygon fill="#191970" stroke="#191970" points="304.3308,-346.5066 294.1605,-343.5376 300.2594,-352.2009 304.3308,-346.5066"/>
</g>
<!-- Node23 -->
<g id="node23" class="node">
<title>Node23</title>
<g id="a_node23"><a xlink:href="../../d8/de2/classJetEnergies.html#a065fee78622ed073cafb5cf172d67bef" target="_top" xlink:title="dump the evaluator information into ntuple for external analysis">
<polygon fill="none" stroke="#000000" points="574,-320.5 574,-340.5 741,-340.5 741,-320.5 574,-320.5"/>
<text text-anchor="middle" x="657.5" y="-327.5" font-family="FreeSans" font-size="10.00" fill="#000000">JetEnergies::fillOutputNtuples</text>
</a>
</g>
</g>
<!-- Node19&#45;&gt;Node23 -->
<g id="edge38" class="edge">
<title>Node19&#45;&gt;Node23</title>
<path fill="none" stroke="#191970" d="M353.214,-328.1259C417.816,-328.6299 508.3426,-329.3362 573.8433,-329.8473"/>
<polygon fill="#191970" stroke="#191970" points="353.1032,-324.625 343.0761,-328.0468 353.0485,-331.6248 353.1032,-324.625"/>
</g>
<!-- Node30 -->
<g id="node30" class="node">
<title>Node30</title>
<g id="a_node30"><a xlink:href="../../dd/d75/classJetRecoEval.html#af4bff244a32d216f097c7fab76c9b95a" target="_top" xlink:title="which truth jet contributed the most energy to this reconstructed jet?">
<polygon fill="none" stroke="#000000" points="395.5,-356.5 395.5,-388.5 529.5,-388.5 529.5,-356.5 395.5,-356.5"/>
<text text-anchor="start" x="403.5" y="-375.5" font-family="FreeSans" font-size="10.00" fill="#000000">JetRecoEval::max_truth</text>
<text text-anchor="middle" x="462.5" y="-363.5" font-family="FreeSans" font-size="10.00" fill="#000000">_jet_by_energy</text>
</a>
</g>
</g>
<!-- Node19&#45;&gt;Node30 -->
<g id="edge39" class="edge">
<title>Node19&#45;&gt;Node30</title>
<path fill="none" stroke="#191970" d="M350.7241,-345.9569C365.4897,-349.4632 380.8257,-353.105 395.2335,-356.5264"/>
<polygon fill="#191970" stroke="#191970" points="351.1494,-342.4606 340.6113,-343.5555 349.5321,-349.2712 351.1494,-342.4606"/>
</g>
<!-- Node34 -->
<g id="node34" class="node">
<title>Node34</title>
<g id="a_node34"><a xlink:href="../../d4/d28/classQAG4SimulationJet.html#ac2803dd2fafe7d6131f3311c9f1e4e27" target="_top" xlink:title="QAG4SimulationJet::\lprocess_Spectrum">
<polygon fill="none" stroke="#000000" points="787,-151.5 787,-183.5 905,-183.5 905,-151.5 787,-151.5"/>
<text text-anchor="start" x="795" y="-170.5" font-family="FreeSans" font-size="10.00" fill="#000000">QAG4SimulationJet::</text>
<text text-anchor="middle" x="846" y="-158.5" font-family="FreeSans" font-size="10.00" fill="#000000">process_Spectrum</text>
</a>
</g>
</g>
<!-- Node19&#45;&gt;Node34 -->
<g id="edge49" class="edge">
<title>Node19&#45;&gt;Node34</title>
<path fill="none" stroke="#191970" d="M310.107,-306.1966C332.1262,-293.9223 360.7771,-278.582 387,-266.5 468.0321,-229.1651 487.2068,-214.1647 574,-193.5 645.9901,-176.3598 731.2462,-170.4544 786.8677,-168.4562"/>
<polygon fill="#191970" stroke="#191970" points="308.1096,-303.304 301.1026,-311.2509 311.536,-309.4081 308.1096,-303.304"/>
</g>
<!-- Node35 -->
<g id="node35" class="node">
<title>Node35</title>
<g id="a_node35"><a xlink:href="../../d0/dc8/classSoftLeptonTaggingTruth.html#a3989ff17a01ba304478d558b99c3214f" target="_top" xlink:title="SoftLeptonTaggingTruth\l::process_Spectrum">
<polygon fill="none" stroke="#000000" points="395,-90.5 395,-122.5 530,-122.5 530,-90.5 395,-90.5"/>
<text text-anchor="start" x="403" y="-109.5" font-family="FreeSans" font-size="10.00" fill="#000000">SoftLeptonTaggingTruth</text>
<text text-anchor="middle" x="462.5" y="-97.5" font-family="FreeSans" font-size="10.00" fill="#000000">::process_Spectrum</text>
</a>
</g>
</g>
<!-- Node19&#45;&gt;Node35 -->
<g id="edge51" class="edge">
<title>Node19&#45;&gt;Node35</title>
<path fill="none" stroke="#191970" d="M282.2463,-301.8044C297.9195,-261.5932 333.3264,-183.6333 387,-137.5 393.8772,-131.5889 402.0346,-126.6959 410.4022,-122.6813"/>
<polygon fill="#191970" stroke="#191970" points="278.88,-300.8102 278.6028,-311.4014 285.4243,-303.2947 278.88,-300.8102"/>
</g>
<!-- Node20&#45;&gt;Node21 -->
<g id="edge26" class="edge">
<title>Node20&#45;&gt;Node21</title>
<path fill="none" stroke="#191970" d="M487.8589,-301.3169C504.0633,-312.5188 524.4949,-328.8327 538,-347.5 563.9794,-383.4098 541.455,-410.4123 574,-440.5 578.889,-445.0199 584.5641,-448.7246 590.6107,-451.7608"/>
<polygon fill="#191970" stroke="#191970" points="489.6209,-298.2848 479.3622,-295.6371 485.7307,-304.1043 489.6209,-298.2848"/>
</g>
<!-- Node20&#45;&gt;Node23 -->
<g id="edge28" class="edge">
<title>Node20&#45;&gt;Node23</title>
<path fill="none" stroke="#191970" d="M515.1362,-297.8349C533.7299,-302.1761 554.79,-307.0747 574,-311.5 586.7491,-314.4369 600.5999,-317.5998 613.2885,-320.4863"/>
<polygon fill="#191970" stroke="#191970" points="515.9092,-294.4213 505.3751,-295.5543 514.3165,-301.2378 515.9092,-294.4213"/>
</g>
<!-- Node20&#45;&gt;Node25 -->
<g id="edge30" class="edge">
<title>Node20&#45;&gt;Node25</title>
<path fill="none" stroke="#191970" d="M471.9702,-266.2735C495.8884,-218.0062 557.9665,-94.6317 574,-81.5 580.9303,-75.824 589.1013,-71.3833 597.5731,-67.9099"/>
<polygon fill="#191970" stroke="#191970" points="468.7692,-264.8509 467.4759,-275.3665 475.0445,-267.9526 468.7692,-264.8509"/>
</g>
<!-- Node26 -->
<g id="node26" class="node">
<title>Node26</title>
<g id="a_node26"><a xlink:href="../../d4/d28/classQAG4SimulationJet.html#a3e5c5fe2e5e5cee7fca6173ef6e6bfa2" target="_top" xlink:title="QAG4SimulationJet::\lprocess_TruthMatching">
<polygon fill="none" stroke="#000000" points="780,-218.5 780,-250.5 912,-250.5 912,-218.5 780,-218.5"/>
<text text-anchor="start" x="788" y="-237.5" font-family="FreeSans" font-size="10.00" fill="#000000">QAG4SimulationJet::</text>
<text text-anchor="middle" x="846" y="-225.5" font-family="FreeSans" font-size="10.00" fill="#000000">process_TruthMatching</text>
</a>
</g>
</g>
<!-- Node20&#45;&gt;Node26 -->
<g id="edge31" class="edge">
<title>Node20&#45;&gt;Node26</title>
<path fill="none" stroke="#191970" d="M480.0581,-268.4605C500.6206,-249.8073 536.648,-221.0191 574,-209.5 648.657,-186.4762 739.8745,-203.4406 795.4172,-218.4597"/>
<polygon fill="#191970" stroke="#191970" points="477.6565,-265.9143 472.7201,-275.2889 482.4252,-271.0388 477.6565,-265.9143"/>
</g>
<!-- Node28 -->
<g id="node28" class="node">
<title>Node28</title>
<g id="a_node28"><a xlink:href="../../dd/d75/classJetRecoEval.html#a9775ea4a0c6e28f22da7997f4886f195" target="_top" xlink:title="JetRecoEval::unique\l_reco_jet_from_truth">
<polygon fill="none" stroke="#000000" points="597.5,-269.5 597.5,-301.5 717.5,-301.5 717.5,-269.5 597.5,-269.5"/>
<text text-anchor="start" x="605.5" y="-288.5" font-family="FreeSans" font-size="10.00" fill="#000000">JetRecoEval::unique</text>
<text text-anchor="middle" x="657.5" y="-276.5" font-family="FreeSans" font-size="10.00" fill="#000000">_reco_jet_from_truth</text>
</a>
</g>
</g>
<!-- Node20&#45;&gt;Node28 -->
<g id="edge33" class="edge">
<title>Node20&#45;&gt;Node28</title>
<path fill="none" stroke="#191970" d="M548.3657,-285.5C564.8597,-285.5 581.8044,-285.5 597.2751,-285.5"/>
<polygon fill="#191970" stroke="#191970" points="548.1712,-282.0001 538.1712,-285.5 548.1712,-289.0001 548.1712,-282.0001"/>
</g>
<!-- Node29 -->
<g id="node29" class="node">
<title>Node29</title>
<g id="a_node29"><a xlink:href="../../dd/d75/classJetRecoEval.html#ac6030b2b14c885e19e35f86ec828d8d8" target="_top" xlink:title="JetRecoEval::unique\l_truth_jet_from_reco">
<polygon fill="none" stroke="#000000" points="597.5,-218.5 597.5,-250.5 717.5,-250.5 717.5,-218.5 597.5,-218.5"/>
<text text-anchor="start" x="605.5" y="-237.5" font-family="FreeSans" font-size="10.00" fill="#000000">JetRecoEval::unique</text>
<text text-anchor="middle" x="657.5" y="-225.5" font-family="FreeSans" font-size="10.00" fill="#000000">_truth_jet_from_reco</text>
</a>
</g>
</g>
<!-- Node20&#45;&gt;Node29 -->
<g id="edge35" class="edge">
<title>Node20&#45;&gt;Node29</title>
<path fill="none" stroke="#191970" d="M510.7031,-272.893C536.8328,-266.0591 569.3729,-257.5486 597.1716,-250.2782"/>
<polygon fill="#191970" stroke="#191970" points="509.8147,-269.5076 501.0257,-275.424 511.5859,-276.2798 509.8147,-269.5076"/>
</g>
<!-- Node22 -->
<g id="node22" class="node">
<title>Node22</title>
<g id="a_node22"><a xlink:href="../../d1/df4/classJetEvaluator.html#ad83508ae828d1f2e4a83a948465a0cd2" target="_top" xlink:title="JetEvaluator::process\l_event">
<polygon fill="none" stroke="#000000" points="784,-449.5 784,-481.5 908,-481.5 908,-449.5 784,-449.5"/>
<text text-anchor="start" x="792" y="-468.5" font-family="FreeSans" font-size="10.00" fill="#000000">JetEvaluator::process</text>
<text text-anchor="middle" x="846" y="-456.5" font-family="FreeSans" font-size="10.00" fill="#000000">_event</text>
</a>
</g>
</g>
<!-- Node21&#45;&gt;Node22 -->
<g id="edge27" class="edge">
<title>Node21&#45;&gt;Node22</title>
<path fill="none" stroke="#191970" d="M734.349,-465.5C750.7935,-465.5 767.9701,-465.5 783.7817,-465.5"/>
<polygon fill="#191970" stroke="#191970" points="734.2234,-462.0001 724.2233,-465.5 734.2233,-469.0001 734.2234,-462.0001"/>
</g>
<!-- Node24 -->
<g id="node24" class="node">
<title>Node24</title>
<g id="a_node24"><a xlink:href="../../d8/de2/classJetEnergies.html#a6acaa9b2ba1fe7353781d2f5d476e8d1" target="_top" xlink:title="JetEnergies::process\l_event">
<polygon fill="none" stroke="#000000" points="786,-314.5 786,-346.5 906,-346.5 906,-314.5 786,-314.5"/>
<text text-anchor="start" x="794" y="-333.5" font-family="FreeSans" font-size="10.00" fill="#000000">JetEnergies::process</text>
<text text-anchor="middle" x="846" y="-321.5" font-family="FreeSans" font-size="10.00" fill="#000000">_event</text>
</a>
</g>
</g>
<!-- Node23&#45;&gt;Node24 -->
<g id="edge29" class="edge">
<title>Node23&#45;&gt;Node24</title>
<path fill="none" stroke="#191970" d="M751.2818,-330.5C763.0031,-330.5 774.734,-330.5 785.7495,-330.5"/>
<polygon fill="#191970" stroke="#191970" points="751.0021,-327.0001 741.002,-330.5 751.002,-334.0001 751.0021,-327.0001"/>
</g>
<!-- Node27 -->
<g id="node27" class="node">
<title>Node27</title>
<g id="a_node27"><a xlink:href="../../d4/d28/classQAG4SimulationJet.html#a98c3c0fb4d213ada3475e8fb9895bc29" target="_top" xlink:title="QAG4SimulationJet::\lprocess_event">
<polygon fill="none" stroke="#000000" points="980.5,-193.5 980.5,-225.5 1098.5,-225.5 1098.5,-193.5 980.5,-193.5"/>
<text text-anchor="start" x="988.5" y="-212.5" font-family="FreeSans" font-size="10.00" fill="#000000">QAG4SimulationJet::</text>
<text text-anchor="middle" x="1039.5" y="-200.5" font-family="FreeSans" font-size="10.00" fill="#000000">process_event</text>
</a>
</g>
</g>
<!-- Node26&#45;&gt;Node27 -->
<g id="edge32" class="edge">
<title>Node26&#45;&gt;Node27</title>
<path fill="none" stroke="#191970" d="M922.0393,-224.6758C941.3758,-222.1775 961.8703,-219.5297 980.2337,-217.1571"/>
<polygon fill="#191970" stroke="#191970" points="921.5196,-221.2138 912.0505,-225.9663 922.4166,-228.1561 921.5196,-221.2138"/>
</g>
<!-- Node28&#45;&gt;Node26 -->
<g id="edge34" class="edge">
<title>Node28&#45;&gt;Node26</title>
<path fill="none" stroke="#191970" d="M726.6936,-266.7792C746.3486,-261.4614 767.5713,-255.7194 786.5909,-250.5736"/>
<polygon fill="#191970" stroke="#191970" points="725.6227,-263.443 716.8838,-269.4333 727.4509,-270.2001 725.6227,-263.443"/>
</g>
<!-- Node29&#45;&gt;Node26 -->
<g id="edge36" class="edge">
<title>Node29&#45;&gt;Node26</title>
<path fill="none" stroke="#191970" d="M728.0678,-234.5C745.0441,-234.5 763.1165,-234.5 779.8815,-234.5"/>
<polygon fill="#191970" stroke="#191970" points="727.6609,-231.0001 717.6608,-234.5 727.6608,-238.0001 727.6609,-231.0001"/>
</g>
<!-- Node30&#45;&gt;Node21 -->
<g id="edge40" class="edge">
<title>Node30&#45;&gt;Node21</title>
<path fill="none" stroke="#191970" d="M493.5194,-394.4084C515.258,-409.0004 545.4231,-427.7632 574,-440.5 581.3255,-443.765 589.1967,-446.7496 597.0737,-449.43"/>
<polygon fill="#191970" stroke="#191970" points="495.2774,-391.3713 485.0403,-388.6413 491.3405,-397.1593 495.2774,-391.3713"/>
</g>
<!-- Node30&#45;&gt;Node23 -->
<g id="edge41" class="edge">
<title>Node30&#45;&gt;Node23</title>
<path fill="none" stroke="#191970" d="M539.4664,-355.9226C563.5993,-350.7248 589.4905,-345.1482 610.8566,-340.5463"/>
<polygon fill="#191970" stroke="#191970" points="538.6468,-352.5188 529.6079,-358.046 540.1207,-359.3619 538.6468,-352.5188"/>
</g>
<!-- Node30&#45;&gt;Node26 -->
<g id="edge46" class="edge">
<title>Node30&#45;&gt;Node26</title>
<path fill="none" stroke="#191970" d="M539.9359,-382.3093C598.5136,-386.0969 679.1492,-383.2876 741,-350.5 763.6295,-338.5039 760.0552,-324.7061 777,-305.5 794.171,-286.0375 815.0918,-264.8326 829.3647,-250.7122"/>
<polygon fill="#191970" stroke="#191970" points="539.8594,-378.7946 529.6321,-381.5607 539.3522,-385.7762 539.8594,-378.7946"/>
</g>
<!-- Node30&#45;&gt;Node28 -->
<g id="edge47" class="edge">
<title>Node30&#45;&gt;Node28</title>
<path fill="none" stroke="#191970" d="M497.1343,-351.219C518.7079,-338.5577 547.3395,-322.8106 574,-311.5 582.3863,-307.9421 591.4283,-304.6238 600.358,-301.6281"/>
<polygon fill="#191970" stroke="#191970" points="495.16,-348.3207 488.3469,-356.4345 498.7327,-354.3404 495.16,-348.3207"/>
</g>
<!-- Node30&#45;&gt;Node29 -->
<g id="edge48" class="edge">
<title>Node30&#45;&gt;Node29</title>
<path fill="none" stroke="#191970" d="M490.3708,-349.7483C505.0882,-337.2525 523.1297,-321.15 538,-305.5 555.6424,-286.9326 552.846,-274.9399 574,-260.5 581.0224,-255.7064 588.9681,-251.7659 597.0972,-248.5346"/>
<polygon fill="#191970" stroke="#191970" points="487.9843,-347.182 482.5777,-356.2935 492.4863,-352.5423 487.9843,-347.182"/>
</g>
<!-- Node30&#45;&gt;Node31 -->
<g id="edge42" class="edge">
<title>Node30&#45;&gt;Node31</title>
<path fill="none" stroke="#191970" d="M474.9955,-397.7794C492.7047,-431.1913 528.119,-489.8597 574,-524.5 581.8982,-530.4632 591.0661,-535.3823 600.3751,-539.4066"/>
<polygon fill="#191970" stroke="#191970" points="477.984,-395.9392 470.2756,-388.6706 471.7688,-399.1597 477.984,-395.9392"/>
</g>
<!-- Node30&#45;&gt;Node32 -->
<g id="edge44" class="edge">
<title>Node30&#45;&gt;Node32</title>
<path fill="none" stroke="#191970" d="M478.736,-397.1079C498.1098,-424.4544 533.0721,-467.8662 574,-491.5 640.005,-529.6145 666.8154,-513.0063 741,-530.5 757.2323,-534.3278 774.8688,-538.5157 790.9714,-542.3507"/>
<polygon fill="#191970" stroke="#191970" points="481.5784,-395.0648 473.0057,-388.8391 475.8249,-399.052 481.5784,-395.0648"/>
</g>
<!-- Node33 -->
<g id="node33" class="node">
<title>Node33</title>
<g id="a_node33"><a xlink:href="../../d5/d1f/classMyJetAnalysis.html#a309e9a46394353251b673514d6eb28ac" target="_top" xlink:title="MyJetAnalysis::process\l_event">
<polygon fill="none" stroke="#000000" points="592,-398.5 592,-430.5 723,-430.5 723,-398.5 592,-398.5"/>
<text text-anchor="start" x="600" y="-417.5" font-family="FreeSans" font-size="10.00" fill="#000000">MyJetAnalysis::process</text>
<text text-anchor="middle" x="657.5" y="-405.5" font-family="FreeSans" font-size="10.00" fill="#000000">_event</text>
</a>
</g>
</g>
<!-- Node30&#45;&gt;Node33 -->
<g id="edge45" class="edge">
<title>Node30&#45;&gt;Node33</title>
<path fill="none" stroke="#191970" d="M539.669,-389.121C556.9617,-392.8456 575.1474,-396.7625 591.9172,-400.3745"/>
<polygon fill="#191970" stroke="#191970" points="540.1207,-385.6381 529.6079,-386.954 538.6468,-392.4812 540.1207,-385.6381"/>
</g>
<!-- Node31&#45;&gt;Node32 -->
<g id="edge43" class="edge">
<title>Node31&#45;&gt;Node32</title>
<path fill="none" stroke="#191970" d="M745.5886,-555.5C760.9685,-555.5 776.568,-555.5 790.7398,-555.5"/>
<polygon fill="#191970" stroke="#191970" points="745.5309,-552.0001 735.5309,-555.5 745.5308,-559.0001 745.5309,-552.0001"/>
</g>
<!-- Node34&#45;&gt;Node27 -->
<g id="edge50" class="edge">
<title>Node34&#45;&gt;Node27</title>
<path fill="none" stroke="#191970" d="M915.0937,-182.4971C936.4618,-187.1351 959.7949,-192.1997 980.421,-196.6767"/>
<polygon fill="#191970" stroke="#191970" points="915.6227,-179.0305 905.1078,-180.3296 914.1378,-185.8712 915.6227,-179.0305"/>
</g>
<!-- Node36 -->
<g id="node36" class="node">
<title>Node36</title>
<g id="a_node36"><a xlink:href="../../d0/dc8/classSoftLeptonTaggingTruth.html#a152a3015fe9e7c089637c981a45787fe" target="_top" xlink:title="SoftLeptonTaggingTruth\l::process_event">
<polygon fill="none" stroke="#000000" points="590,-90.5 590,-122.5 725,-122.5 725,-90.5 590,-90.5"/>
<text text-anchor="start" x="598" y="-109.5" font-family="FreeSans" font-size="10.00" fill="#000000">SoftLeptonTaggingTruth</text>
<text text-anchor="middle" x="657.5" y="-97.5" font-family="FreeSans" font-size="10.00" fill="#000000">::process_event</text>
</a>
</g>
</g>
<!-- Node35&#45;&gt;Node36 -->
<g id="edge52" class="edge">
<title>Node35&#45;&gt;Node36</title>
<path fill="none" stroke="#191970" d="M540.2732,-106.5C556.7153,-106.5 573.9386,-106.5 589.9653,-106.5"/>
<polygon fill="#191970" stroke="#191970" points="540.1543,-103.0001 530.1543,-106.5 540.1542,-110.0001 540.1543,-103.0001"/>
</g>
<!-- Node37&#45;&gt;Node6 -->
<g id="edge57" class="edge">
<title>Node37&#45;&gt;Node6</title>
<path fill="none" stroke="#191970" d="M729.1718,-774.9156C733.389,-777.4541 737.3804,-780.3032 741,-783.5 768.114,-807.4472 750.9653,-831.3836 777,-856.5 783.1434,-862.4267 790.6154,-867.3423 798.3453,-871.3781"/>
<polygon fill="#191970" stroke="#191970" points="730.7123,-771.7702 720.2453,-770.1291 727.4043,-777.9393 730.7123,-771.7702"/>
</g>
<!-- Node37&#45;&gt;Node7 -->
<g id="edge54" class="edge">
<title>Node37&#45;&gt;Node7</title>
<path fill="none" stroke="#191970" d="M730.0432,-743.6197C745.5102,-741.6275 761.7717,-739.7774 777,-738.5 845.8418,-732.7254 925.1365,-730.6336 978.4022,-729.888"/>
<polygon fill="#191970" stroke="#191970" points="729.4682,-740.1652 720.0127,-744.9449 730.385,-747.1049 729.4682,-740.1652"/>
</g>
<!-- Node37&#45;&gt;Node11 -->
<g id="edge55" class="edge">
<title>Node37&#45;&gt;Node11</title>
<path fill="none" stroke="#191970" d="M730.3178,-758.7685C781.9216,-761.9942 852.7635,-766.828 915,-772.5 934.17,-774.2471 954.9648,-776.4594 973.9701,-778.6064"/>
<polygon fill="#191970" stroke="#191970" points="730.4593,-755.2707 720.2618,-758.145 730.026,-762.2572 730.4593,-755.2707"/>
</g>
<!-- Node37&#45;&gt;Node13 -->
<g id="edge56" class="edge">
<title>Node37&#45;&gt;Node13</title>
<path fill="none" stroke="#191970" d="M725.2705,-774.6654C730.7651,-777.3005 736.0859,-780.2373 741,-783.5 760.9255,-796.7297 755.6785,-812.663 777,-823.5 836.6275,-853.8067 913.6222,-858.3267 968.7804,-856.6156"/>
<polygon fill="#191970" stroke="#191970" points="726.4608,-771.3647 715.9004,-770.5113 723.6237,-777.764 726.4608,-771.3647"/>
</g>
<!-- Node37&#45;&gt;Node16 -->
<g id="edge58" class="edge">
<title>Node37&#45;&gt;Node16</title>
<path fill="none" stroke="#191970" d="M729.9561,-771.0285C748.111,-775.1699 767.4073,-779.5717 784.9454,-783.5724"/>
<polygon fill="#191970" stroke="#191970" points="730.5339,-767.5704 720.0059,-768.7587 728.9771,-774.3951 730.5339,-767.5704"/>
</g>
</g>
</svg>
