<?xml version="1.0" encoding="UTF-8" standalone="no"?>
<!DOCTYPE svg PUBLIC "-//W3C//DTD SVG 1.1//EN"
 "http://www.w3.org/Graphics/SVG/1.1/DTD/svg11.dtd">
<!-- Generated by graphviz version 2.40.1 (20161225.0304)
 -->
<!-- Title: PHG4PhenixDetector::SetWorldMaterial Pages: 1 -->
<svg width="624pt" height="185pt"
 viewBox="0.00 0.00 624.00 185.00" xmlns="http://www.w3.org/2000/svg" xmlns:xlink="http://www.w3.org/1999/xlink">
<g id="graph0" class="graph" transform="scale(1 1) rotate(0) translate(4 181)">
<title>PHG4PhenixDetector::SetWorldMaterial</title>
<!-- Node1 -->
<g id="node1" class="node">
<title>Node1</title>
<polygon fill="#bfbfbf" stroke="#000000" points="0,-72.5 0,-104.5 122,-104.5 122,-72.5 0,-72.5"/>
<text text-anchor="start" x="8" y="-91.5" font-family="FreeSans" font-size="10.00" fill="#000000">PHG4PhenixDetector</text>
<text text-anchor="middle" x="61" y="-79.5" font-family="FreeSans" font-size="10.00" fill="#000000">::SetWorldMaterial</text>
</g>
<!-- Node2 -->
<g id="node2" class="node">
<title>Node2</title>
<g id="a_node2"><a xlink:href="../../d0/d78/classPHG4Reco.html#a9d8228ce8682c19cd6be2f6b44ec847b" target="_top" xlink:title="PHG4Reco::InitRun">
<polygon fill="none" stroke="#000000" points="158,-78.5 158,-98.5 268,-98.5 268,-78.5 158,-78.5"/>
<text text-anchor="middle" x="213" y="-85.5" font-family="FreeSans" font-size="10.00" fill="#000000">PHG4Reco::InitRun</text>
</a>
</g>
</g>
<!-- Node1&#45;&gt;Node2 -->
<g id="edge1" class="edge">
<title>Node1&#45;&gt;Node2</title>
<path fill="none" stroke="#191970" d="M132.6243,-88.5C141.0703,-88.5 149.5886,-88.5 157.7601,-88.5"/>
<polygon fill="#191970" stroke="#191970" points="132.3861,-85.0001 122.3861,-88.5 132.386,-92.0001 132.3861,-85.0001"/>
</g>
<!-- Node3 -->
<g id="node3" class="node">
<title>Node3</title>
<g id="a_node3"><a xlink:href="../../dd/d76/macros_2blob_2master_2macros_2g4simulations_2DisplayOn_8C.html#a36f5cc4ebb7cd23dac7e492d5c38fbc0" target="_top" xlink:title="QTGui">
<polygon fill="none" stroke="#000000" points="356.5,-156.5 356.5,-176.5 403.5,-176.5 403.5,-156.5 356.5,-156.5"/>
<text text-anchor="middle" x="380" y="-163.5" font-family="FreeSans" font-size="10.00" fill="#000000">QTGui</text>
</a>
</g>
</g>
<!-- Node2&#45;&gt;Node3 -->
<g id="edge2" class="edge">
<title>Node2&#45;&gt;Node3</title>
<path fill="none" stroke="#191970" d="M233.9107,-104.937C251.6571,-118.1572 278.2676,-136.3129 304,-147.5 320.8383,-154.8204 341.0524,-159.7038 356.3993,-162.6847"/>
<polygon fill="#191970" stroke="#191970" points="235.5694,-101.8014 225.4901,-98.5366 231.3335,-107.3743 235.5694,-101.8014"/>
</g>
<!-- Node4 -->
<g id="node4" class="node">
<title>Node4</title>
<g id="a_node4"><a xlink:href="../../dd/d76/macros_2blob_2master_2macros_2g4simulations_2DisplayOn_8C.html#a8ac4d6fb78f920957b354f88d6195f54" target="_top" xlink:title="DisplayOn">
<polygon fill="none" stroke="#000000" points="346,-117.5 346,-137.5 414,-137.5 414,-117.5 346,-117.5"/>
<text text-anchor="middle" x="380" y="-124.5" font-family="FreeSans" font-size="10.00" fill="#000000">DisplayOn</text>
</a>
</g>
</g>
<!-- Node2&#45;&gt;Node4 -->
<g id="edge3" class="edge">
<title>Node2&#45;&gt;Node4</title>
<path fill="none" stroke="#191970" d="M265.7794,-100.8257C291.9436,-106.9359 322.784,-114.1382 345.8194,-119.5177"/>
<polygon fill="#191970" stroke="#191970" points="266.5406,-97.4094 256.0066,-98.5435 264.9487,-104.226 266.5406,-97.4094"/>
</g>
<!-- Node7 -->
<g id="node7" class="node">
<title>Node7</title>
<g id="a_node7"><a xlink:href="../../db/d89/ConstructGeometry_8C.html#a21c369835643f1016f506a3da3b8d446" target="_top" xlink:title="ConstructGeometry">
<polygon fill="none" stroke="#000000" points="322.5,-78.5 322.5,-98.5 437.5,-98.5 437.5,-78.5 322.5,-78.5"/>
<text text-anchor="middle" x="380" y="-85.5" font-family="FreeSans" font-size="10.00" fill="#000000">ConstructGeometry</text>
</a>
</g>
</g>
<!-- Node2&#45;&gt;Node7 -->
<g id="edge6" class="edge">
<title>Node2&#45;&gt;Node7</title>
<path fill="none" stroke="#191970" d="M278.5186,-88.5C292.9851,-88.5 308.2075,-88.5 322.3353,-88.5"/>
<polygon fill="#191970" stroke="#191970" points="278.1449,-85.0001 268.1449,-88.5 278.1448,-92.0001 278.1449,-85.0001"/>
</g>
<!-- Node8 -->
<g id="node8" class="node">
<title>Node8</title>
<g id="a_node8"><a xlink:href="../../d4/dfa/Fun4All__Generator__Display_8C.html#af87924a94b22e18901f0d64805565f09" target="_top" xlink:title="Fun4All_Generator_Display">
<polygon fill="none" stroke="#000000" points="304,-39.5 304,-59.5 456,-59.5 456,-39.5 304,-39.5"/>
<text text-anchor="middle" x="380" y="-46.5" font-family="FreeSans" font-size="10.00" fill="#000000">Fun4All_Generator_Display</text>
</a>
</g>
</g>
<!-- Node2&#45;&gt;Node8 -->
<g id="edge7" class="edge">
<title>Node2&#45;&gt;Node8</title>
<path fill="none" stroke="#191970" d="M265.9386,-76.1371C288.9013,-70.7746 315.4411,-64.5766 337.1391,-59.5094"/>
<polygon fill="#191970" stroke="#191970" points="264.9487,-72.774 256.0066,-78.4565 266.5406,-79.5906 264.9487,-72.774"/>
</g>
<!-- Node9 -->
<g id="node9" class="node">
<title>Node9</title>
<g id="a_node9"><a xlink:href="../../d9/d1d/matscan_8C.html#a98ccbc6135fead542f3c4d1dd6882d63" target="_top" xlink:title="matscan">
<polygon fill="none" stroke="#000000" points="350.5,-.5 350.5,-20.5 409.5,-20.5 409.5,-.5 350.5,-.5"/>
<text text-anchor="middle" x="380" y="-7.5" font-family="FreeSans" font-size="10.00" fill="#000000">matscan</text>
</a>
</g>
</g>
<!-- Node2&#45;&gt;Node9 -->
<g id="edge8" class="edge">
<title>Node2&#45;&gt;Node9</title>
<path fill="none" stroke="#191970" d="M234.2972,-72.2201C252.09,-59.3028 278.5675,-41.6258 304,-30.5 318.7499,-24.0474 336.0494,-19.2941 350.4144,-16.0444"/>
<polygon fill="#191970" stroke="#191970" points="231.7925,-69.7195 225.8359,-78.4813 235.9564,-75.3464 231.7925,-69.7195"/>
</g>
<!-- Node5 -->
<g id="node5" class="node">
<title>Node5</title>
<g id="a_node5"><a xlink:href="../../d7/d9e/Fun4All__G4__fsPHENIX_8C.html#af48911d394d2412e817583700f2bbee2" target="_top" xlink:title="Fun4All_G4_fsPHENIX">
<polygon fill="none" stroke="#000000" points="492,-136.5 492,-156.5 616,-156.5 616,-136.5 492,-136.5"/>
<text text-anchor="middle" x="554" y="-143.5" font-family="FreeSans" font-size="10.00" fill="#000000">Fun4All_G4_fsPHENIX</text>
</a>
</g>
</g>
<!-- Node4&#45;&gt;Node5 -->
<g id="edge4" class="edge">
<title>Node4&#45;&gt;Node5</title>
<path fill="none" stroke="#191970" d="M424.3757,-132.3456C444.8742,-134.584 469.5657,-137.2802 491.8748,-139.7162"/>
<polygon fill="#191970" stroke="#191970" points="424.6977,-128.8601 414.3768,-131.2538 423.9378,-135.8187 424.6977,-128.8601"/>
</g>
<!-- Node6 -->
<g id="node6" class="node">
<title>Node6</title>
<g id="a_node6"><a xlink:href="../../d5/d2c/macros_2blob_2master_2macros_2g4simulations_2Fun4All__G4__sPHENIX_8C.html#a6eaaa492d7023ec86c562dc63aa1e5a4" target="_top" xlink:title="Fun4All_G4_sPHENIX">
<polygon fill="none" stroke="#000000" points="493.5,-97.5 493.5,-117.5 614.5,-117.5 614.5,-97.5 493.5,-97.5"/>
<text text-anchor="middle" x="554" y="-104.5" font-family="FreeSans" font-size="10.00" fill="#000000">Fun4All_G4_sPHENIX</text>
</a>
</g>
</g>
<!-- Node4&#45;&gt;Node6 -->
<g id="edge5" class="edge">
<title>Node4&#45;&gt;Node6</title>
<path fill="none" stroke="#191970" d="M424.5622,-122.3779C445.4542,-119.9765 470.6703,-117.0781 493.2749,-114.4799"/>
<polygon fill="#191970" stroke="#191970" points="423.9117,-118.9295 414.3768,-123.5486 424.7111,-125.8838 423.9117,-118.9295"/>
</g>
</g>
</svg>
