<?xml version="1.0" encoding="UTF-8" standalone="no"?>
<!DOCTYPE svg PUBLIC "-//W3C//DTD SVG 1.1//EN"
 "http://www.w3.org/Graphics/SVG/1.1/DTD/svg11.dtd">
<!-- Generated by graphviz version 2.40.1 (20161225.0304)
 -->
<!-- Title: PHG4PhenixDetector::GetPhysicalVolume Pages: 1 -->
<svg width="864pt" height="185pt"
 viewBox="0.00 0.00 864.00 185.00" xmlns="http://www.w3.org/2000/svg" xmlns:xlink="http://www.w3.org/1999/xlink">
<g id="graph0" class="graph" transform="scale(1 1) rotate(0) translate(4 181)">
<title>PHG4PhenixDetector::GetPhysicalVolume</title>
<!-- Node1 -->
<g id="node1" class="node">
<title>Node1</title>
<polygon fill="#bfbfbf" stroke="#000000" points="0,-91.5 0,-123.5 122,-123.5 122,-91.5 0,-91.5"/>
<text text-anchor="start" x="8" y="-110.5" font-family="FreeSans" font-size="10.00" fill="#000000">PHG4PhenixDetector</text>
<text text-anchor="middle" x="61" y="-98.5" font-family="FreeSans" font-size="10.00" fill="#000000">::GetPhysicalVolume</text>
</g>
<!-- Node2 -->
<g id="node2" class="node">
<title>Node2</title>
<g id="a_node2"><a xlink:href="../../d0/d78/classPHG4Reco.html#abfcea42df8b2464c689c5c24a8241e32" target="_top" xlink:title="PHG4Reco::ApplyDisplayAction">
<polygon fill="none" stroke="#000000" points="335,-117.5 335,-137.5 508,-137.5 508,-117.5 335,-117.5"/>
<text text-anchor="middle" x="421.5" y="-124.5" font-family="FreeSans" font-size="10.00" fill="#000000">PHG4Reco::ApplyDisplayAction</text>
</a>
</g>
</g>
<!-- Node1&#45;&gt;Node2 -->
<g id="edge1" class="edge">
<title>Node1&#45;&gt;Node2</title>
<path fill="none" stroke="#191970" d="M132.3505,-111.4584C190.4628,-114.6824 272.7311,-119.2465 334.6656,-122.6826"/>
<polygon fill="#191970" stroke="#191970" points="132.3325,-107.9521 122.1539,-110.8927 131.9446,-114.9414 132.3325,-107.9521"/>
</g>
<!-- Node9 -->
<g id="node9" class="node">
<title>Node9</title>
<g id="a_node9"><a xlink:href="../../d0/d78/classPHG4Reco.html#a490f5037508d384c5b60855ef0f7e227" target="_top" xlink:title="PHG4Reco::Dump_GDML">
<polygon fill="none" stroke="#000000" points="158,-78.5 158,-98.5 299,-98.5 299,-78.5 158,-78.5"/>
<text text-anchor="middle" x="228.5" y="-85.5" font-family="FreeSans" font-size="10.00" fill="#000000">PHG4Reco::Dump_GDML</text>
</a>
</g>
</g>
<!-- Node1&#45;&gt;Node9 -->
<g id="edge8" class="edge">
<title>Node1&#45;&gt;Node9</title>
<path fill="none" stroke="#191970" d="M132.5072,-99.3887C140.8635,-98.4409 149.3861,-97.4741 157.7324,-96.5274"/>
<polygon fill="#191970" stroke="#191970" points="131.9615,-95.9281 122.4197,-100.533 132.7505,-102.8835 131.9615,-95.9281"/>
</g>
<!-- Node3 -->
<g id="node3" class="node">
<title>Node3</title>
<g id="a_node3"><a xlink:href="../../dd/d76/macros_2blob_2master_2macros_2g4simulations_2DisplayOn_8C.html#a36f5cc4ebb7cd23dac7e492d5c38fbc0" target="_top" xlink:title="QTGui">
<polygon fill="none" stroke="#000000" points="596.5,-117.5 596.5,-137.5 643.5,-137.5 643.5,-117.5 596.5,-117.5"/>
<text text-anchor="middle" x="620" y="-124.5" font-family="FreeSans" font-size="10.00" fill="#000000">QTGui</text>
</a>
</g>
</g>
<!-- Node2&#45;&gt;Node3 -->
<g id="edge2" class="edge">
<title>Node2&#45;&gt;Node3</title>
<path fill="none" stroke="#191970" d="M518.4858,-127.5C547.4259,-127.5 576.6227,-127.5 596.2273,-127.5"/>
<polygon fill="#191970" stroke="#191970" points="518.2763,-124.0001 508.2762,-127.5 518.2762,-131.0001 518.2763,-124.0001"/>
</g>
<!-- Node4 -->
<g id="node4" class="node">
<title>Node4</title>
<g id="a_node4"><a xlink:href="../../dd/d76/macros_2blob_2master_2macros_2g4simulations_2DisplayOn_8C.html#a8ac4d6fb78f920957b354f88d6195f54" target="_top" xlink:title="DisplayOn">
<polygon fill="none" stroke="#000000" points="586,-78.5 586,-98.5 654,-98.5 654,-78.5 586,-78.5"/>
<text text-anchor="middle" x="620" y="-85.5" font-family="FreeSans" font-size="10.00" fill="#000000">DisplayOn</text>
</a>
</g>
</g>
<!-- Node2&#45;&gt;Node4 -->
<g id="edge3" class="edge">
<title>Node2&#45;&gt;Node4</title>
<path fill="none" stroke="#191970" d="M482.4618,-115.5226C516.4634,-108.8422 557.5459,-100.7706 585.9084,-95.1981"/>
<polygon fill="#191970" stroke="#191970" points="481.7563,-112.0942 472.6187,-117.4565 483.1059,-118.9629 481.7563,-112.0942"/>
</g>
<!-- Node7 -->
<g id="node7" class="node">
<title>Node7</title>
<g id="a_node7"><a xlink:href="../../db/d89/ConstructGeometry_8C.html#a21c369835643f1016f506a3da3b8d446" target="_top" xlink:title="ConstructGeometry">
<polygon fill="none" stroke="#000000" points="562.5,-39.5 562.5,-59.5 677.5,-59.5 677.5,-39.5 562.5,-39.5"/>
<text text-anchor="middle" x="620" y="-46.5" font-family="FreeSans" font-size="10.00" fill="#000000">ConstructGeometry</text>
</a>
</g>
</g>
<!-- Node2&#45;&gt;Node7 -->
<g id="edge6" class="edge">
<title>Node2&#45;&gt;Node7</title>
<path fill="none" stroke="#191970" d="M494.7212,-113.9554C499.3359,-112.0763 503.806,-109.9366 508,-107.5 528.3968,-95.6503 523.7092,-80.5303 544,-68.5 550.0834,-64.8932 556.8312,-61.9677 563.7224,-59.5956"/>
<polygon fill="#191970" stroke="#191970" points="493.2898,-110.7516 485.0876,-117.4579 495.6817,-117.3303 493.2898,-110.7516"/>
</g>
<!-- Node8 -->
<g id="node8" class="node">
<title>Node8</title>
<g id="a_node8"><a xlink:href="../../d4/dfa/Fun4All__Generator__Display_8C.html#af87924a94b22e18901f0d64805565f09" target="_top" xlink:title="Fun4All_Generator_Display">
<polygon fill="none" stroke="#000000" points="544,-156.5 544,-176.5 696,-176.5 696,-156.5 544,-156.5"/>
<text text-anchor="middle" x="620" y="-163.5" font-family="FreeSans" font-size="10.00" fill="#000000">Fun4All_Generator_Display</text>
</a>
</g>
</g>
<!-- Node2&#45;&gt;Node8 -->
<g id="edge7" class="edge">
<title>Node2&#45;&gt;Node8</title>
<path fill="none" stroke="#191970" d="M482.5946,-139.5035C510.3005,-144.9469 542.6855,-151.3098 569.0545,-156.4906"/>
<polygon fill="#191970" stroke="#191970" points="483.1059,-136.0371 472.6187,-137.5435 481.7563,-142.9058 483.1059,-136.0371"/>
</g>
<!-- Node5 -->
<g id="node5" class="node">
<title>Node5</title>
<g id="a_node5"><a xlink:href="../../d7/d9e/Fun4All__G4__fsPHENIX_8C.html#af48911d394d2412e817583700f2bbee2" target="_top" xlink:title="Fun4All_G4_fsPHENIX">
<polygon fill="none" stroke="#000000" points="732,-97.5 732,-117.5 856,-117.5 856,-97.5 732,-97.5"/>
<text text-anchor="middle" x="794" y="-104.5" font-family="FreeSans" font-size="10.00" fill="#000000">Fun4All_G4_fsPHENIX</text>
</a>
</g>
</g>
<!-- Node4&#45;&gt;Node5 -->
<g id="edge4" class="edge">
<title>Node4&#45;&gt;Node5</title>
<path fill="none" stroke="#191970" d="M664.3757,-93.3456C684.8742,-95.584 709.5657,-98.2802 731.8748,-100.7162"/>
<polygon fill="#191970" stroke="#191970" points="664.6977,-89.8601 654.3768,-92.2538 663.9378,-96.8187 664.6977,-89.8601"/>
</g>
<!-- Node6 -->
<g id="node6" class="node">
<title>Node6</title>
<g id="a_node6"><a xlink:href="../../d5/d2c/macros_2blob_2master_2macros_2g4simulations_2Fun4All__G4__sPHENIX_8C.html#a6eaaa492d7023ec86c562dc63aa1e5a4" target="_top" xlink:title="Fun4All_G4_sPHENIX">
<polygon fill="none" stroke="#000000" points="733.5,-58.5 733.5,-78.5 854.5,-78.5 854.5,-58.5 733.5,-58.5"/>
<text text-anchor="middle" x="794" y="-65.5" font-family="FreeSans" font-size="10.00" fill="#000000">Fun4All_G4_sPHENIX</text>
</a>
</g>
</g>
<!-- Node4&#45;&gt;Node6 -->
<g id="edge5" class="edge">
<title>Node4&#45;&gt;Node6</title>
<path fill="none" stroke="#191970" d="M664.5622,-83.3779C685.4542,-80.9765 710.6703,-78.0781 733.2749,-75.4799"/>
<polygon fill="#191970" stroke="#191970" points="663.9117,-79.9295 654.3768,-84.5486 664.7111,-86.8838 663.9117,-79.9295"/>
</g>
<!-- Node10 -->
<g id="node10" class="node">
<title>Node10</title>
<g id="a_node10"><a xlink:href="../../d0/d78/classPHG4Reco.html#a9d8228ce8682c19cd6be2f6b44ec847b" target="_top" xlink:title="PHG4Reco::InitRun">
<polygon fill="none" stroke="#000000" points="366.5,-78.5 366.5,-98.5 476.5,-98.5 476.5,-78.5 366.5,-78.5"/>
<text text-anchor="middle" x="421.5" y="-85.5" font-family="FreeSans" font-size="10.00" fill="#000000">PHG4Reco::InitRun</text>
</a>
</g>
</g>
<!-- Node9&#45;&gt;Node10 -->
<g id="edge9" class="edge">
<title>Node9&#45;&gt;Node10</title>
<path fill="none" stroke="#191970" d="M309.5166,-88.5C328.7053,-88.5 348.7326,-88.5 366.4563,-88.5"/>
<polygon fill="#191970" stroke="#191970" points="309.2702,-85.0001 299.2702,-88.5 309.2701,-92.0001 309.2702,-85.0001"/>
</g>
<!-- Node10&#45;&gt;Node3 -->
<g id="edge10" class="edge">
<title>Node10&#45;&gt;Node3</title>
<path fill="none" stroke="#191970" d="M482.6836,-100.521C521.1049,-108.0697 568.4962,-117.3809 596.3656,-122.8565"/>
<polygon fill="#191970" stroke="#191970" points="483.1059,-97.0371 472.6187,-98.5435 481.7563,-103.9058 483.1059,-97.0371"/>
</g>
<!-- Node10&#45;&gt;Node4 -->
<g id="edge11" class="edge">
<title>Node10&#45;&gt;Node4</title>
<path fill="none" stroke="#191970" d="M486.5958,-88.5C519.6898,-88.5 558.5537,-88.5 585.7694,-88.5"/>
<polygon fill="#191970" stroke="#191970" points="486.5297,-85.0001 476.5297,-88.5 486.5297,-92.0001 486.5297,-85.0001"/>
</g>
<!-- Node10&#45;&gt;Node7 -->
<g id="edge12" class="edge">
<title>Node10&#45;&gt;Node7</title>
<path fill="none" stroke="#191970" d="M482.5946,-76.4965C510.3005,-71.0531 542.6855,-64.6902 569.0545,-59.5094"/>
<polygon fill="#191970" stroke="#191970" points="481.7563,-73.0942 472.6187,-78.4565 483.1059,-79.9629 481.7563,-73.0942"/>
</g>
<!-- Node10&#45;&gt;Node8 -->
<g id="edge13" class="edge">
<title>Node10&#45;&gt;Node8</title>
<path fill="none" stroke="#191970" d="M486.7686,-98.1901C494.1931,-100.6297 501.4399,-103.6818 508,-107.5 528.6712,-119.5312 523.5039,-135.1728 544,-147.5 550.0606,-151.1451 556.7948,-154.0933 563.6789,-156.4773"/>
<polygon fill="#191970" stroke="#191970" points="487.5287,-94.766 476.9485,-95.323 485.5668,-101.4854 487.5287,-94.766"/>
</g>
<!-- Node11 -->
<g id="node11" class="node">
<title>Node11</title>
<g id="a_node11"><a xlink:href="../../d9/d1d/matscan_8C.html#a98ccbc6135fead542f3c4d1dd6882d63" target="_top" xlink:title="matscan">
<polygon fill="none" stroke="#000000" points="590.5,-.5 590.5,-20.5 649.5,-20.5 649.5,-.5 590.5,-.5"/>
<text text-anchor="middle" x="620" y="-7.5" font-family="FreeSans" font-size="10.00" fill="#000000">matscan</text>
</a>
</g>
</g>
<!-- Node10&#45;&gt;Node11 -->
<g id="edge14" class="edge">
<title>Node10&#45;&gt;Node11</title>
<path fill="none" stroke="#191970" d="M448.6699,-73.4261C473.0454,-60.3888 510.0958,-41.7575 544,-29.5 558.9646,-24.0898 576.1254,-19.6562 590.349,-16.4366"/>
<polygon fill="#191970" stroke="#191970" points="446.8004,-70.4581 439.6698,-78.2943 450.1308,-76.6151 446.8004,-70.4581"/>
</g>
</g>
</svg>
