<?xml version="1.0" encoding="UTF-8" standalone="no"?>
<!DOCTYPE svg PUBLIC "-//W3C//DTD SVG 1.1//EN"
 "http://www.w3.org/Graphics/SVG/1.1/DTD/svg11.dtd">
<!-- Generated by graphviz version 2.40.1 (20161225.0304)
 -->
<!-- Title: RawTowerCalibration::set_pedstal_ADC Pages: 1 -->
<svg width="571pt" height="686pt"
 viewBox="0.00 0.00 571.00 686.00" xmlns="http://www.w3.org/2000/svg" xmlns:xlink="http://www.w3.org/1999/xlink">
<g id="graph0" class="graph" transform="scale(1 1) rotate(0) translate(4 682)">
<title>RawTowerCalibration::set_pedstal_ADC</title>
<!-- Node1 -->
<g id="node1" class="node">
<title>Node1</title>
<polygon fill="#bfbfbf" stroke="#000000" points="0,-354.5 0,-386.5 121,-386.5 121,-354.5 0,-354.5"/>
<text text-anchor="start" x="8" y="-373.5" font-family="FreeSans" font-size="10.00" fill="#000000">RawTowerCalibration</text>
<text text-anchor="middle" x="60.5" y="-361.5" font-family="FreeSans" font-size="10.00" fill="#000000">::set_pedstal_ADC</text>
</g>
<!-- Node2 -->
<g id="node2" class="node">
<title>Node2</title>
<g id="a_node2"><a xlink:href="../../d8/d4c/G4__CEmc__EIC_8C.html#a46a52c955e8d2078c58d4d7db471cc43" target="_top" xlink:title="CEMC_Towers">
<polygon fill="none" stroke="#000000" points="181,-399.5 181,-419.5 266,-419.5 266,-399.5 181,-399.5"/>
<text text-anchor="middle" x="223.5" y="-406.5" font-family="FreeSans" font-size="10.00" fill="#000000">CEMC_Towers</text>
</a>
</g>
</g>
<!-- Node1&#45;&gt;Node2 -->
<g id="edge1" class="edge">
<title>Node1&#45;&gt;Node2</title>
<path fill="none" stroke="#191970" d="M131.2077,-387.4178C148.3808,-391.5267 166.2047,-395.7913 181.5565,-399.4644"/>
<polygon fill="#191970" stroke="#191970" points="131.7351,-383.9453 121.1952,-385.0222 130.1062,-390.7531 131.7351,-383.9453"/>
</g>
<!-- Node20 -->
<g id="node20" class="node">
<title>Node20</title>
<g id="a_node20"><a xlink:href="../../d1/d81/macros_2blob_2master_2macros_2g4simulations_2G4__EEMC_8C.html#a05b9b10b79cc47702702e091692fd060" target="_top" xlink:title="EEMC_Towers">
<polygon fill="none" stroke="#000000" points="181.5,-567.5 181.5,-587.5 265.5,-587.5 265.5,-567.5 181.5,-567.5"/>
<text text-anchor="middle" x="223.5" y="-574.5" font-family="FreeSans" font-size="10.00" fill="#000000">EEMC_Towers</text>
</a>
</g>
</g>
<!-- Node1&#45;&gt;Node20 -->
<g id="edge19" class="edge">
<title>Node1&#45;&gt;Node20</title>
<path fill="none" stroke="#191970" d="M66.6453,-396.289C77.6702,-436.905 104.7009,-515.5608 157,-558.5 163.96,-564.2144 172.5497,-568.2113 181.2167,-571.0066"/>
<polygon fill="#191970" stroke="#191970" points="70.0286,-395.3925 64.1239,-386.5956 63.2541,-397.1547 70.0286,-395.3925"/>
</g>
<!-- Node21 -->
<g id="node21" class="node">
<title>Node21</title>
<g id="a_node21"><a xlink:href="../../d6/d5c/macros_2blob_2master_2macros_2g4simulations_2G4__FEMC_8C.html#af68dc9104b4ad645db845e957df9863e" target="_top" xlink:title="FEMC_Towers">
<polygon fill="none" stroke="#000000" points="181.5,-489.5 181.5,-509.5 265.5,-509.5 265.5,-489.5 181.5,-489.5"/>
<text text-anchor="middle" x="223.5" y="-496.5" font-family="FreeSans" font-size="10.00" fill="#000000">FEMC_Towers</text>
</a>
</g>
</g>
<!-- Node1&#45;&gt;Node21 -->
<g id="edge24" class="edge">
<title>Node1&#45;&gt;Node21</title>
<path fill="none" stroke="#191970" d="M88.8998,-392.9759C124.567,-421.2033 184.2616,-468.4463 210.4805,-489.1962"/>
<polygon fill="#191970" stroke="#191970" points="90.828,-390.0384 80.8145,-386.5771 86.4839,-395.5275 90.828,-390.0384"/>
</g>
<!-- Node22 -->
<g id="node22" class="node">
<title>Node22</title>
<g id="a_node22"><a xlink:href="../../d9/d50/macros_2blob_2master_2macros_2g4simulations_2G4__FHCAL_8C.html#a5d0a471f02bc3f2081650a15db56784e" target="_top" xlink:title="FHCAL_Towers">
<polygon fill="none" stroke="#000000" points="179,-528.5 179,-548.5 268,-548.5 268,-528.5 179,-528.5"/>
<text text-anchor="middle" x="223.5" y="-535.5" font-family="FreeSans" font-size="10.00" fill="#000000">FHCAL_Towers</text>
</a>
</g>
</g>
<!-- Node1&#45;&gt;Node22 -->
<g id="edge33" class="edge">
<title>Node1&#45;&gt;Node22</title>
<path fill="none" stroke="#191970" d="M70.372,-396.2276C84.504,-429.629 113.6726,-487.4299 157,-519.5 163.4662,-524.2861 171.1027,-527.8685 178.8542,-530.5493"/>
<polygon fill="#191970" stroke="#191970" points="73.499,-394.6278 66.4699,-386.7004 67.0213,-397.2809 73.499,-394.6278"/>
</g>
<!-- Node23 -->
<g id="node23" class="node">
<title>Node23</title>
<g id="a_node23"><a xlink:href="../../dc/d8e/Fun4All__G4__Prototype2_8C.html#a6b8f092c4f51be2938dd09c810ba6226" target="_top" xlink:title="Fun4All_G4_Prototype2">
<polygon fill="none" stroke="#000000" points="157,-282.5 157,-302.5 290,-302.5 290,-282.5 157,-282.5"/>
<text text-anchor="middle" x="223.5" y="-289.5" font-family="FreeSans" font-size="10.00" fill="#000000">Fun4All_G4_Prototype2</text>
</a>
</g>
</g>
<!-- Node1&#45;&gt;Node23 -->
<g id="edge41" class="edge">
<title>Node1&#45;&gt;Node23</title>
<path fill="none" stroke="#191970" d="M91.9418,-348.8661C110.3021,-336.9419 134.2661,-322.5615 157,-312.5 165.5991,-308.6942 175.1316,-305.3509 184.2305,-302.5415"/>
<polygon fill="#191970" stroke="#191970" points="89.8304,-346.0659 83.4087,-354.4928 93.6838,-351.9098 89.8304,-346.0659"/>
</g>
<!-- Node24 -->
<g id="node24" class="node">
<title>Node24</title>
<g id="a_node24"><a xlink:href="../../d7/d40/Fun4All__G4__Prototype3_8C.html#a1201361263017b08a070777a0b90b27c" target="_top" xlink:title="Fun4All_G4_Prototype3">
<polygon fill="none" stroke="#000000" points="157,-243.5 157,-263.5 290,-263.5 290,-243.5 157,-243.5"/>
<text text-anchor="middle" x="223.5" y="-250.5" font-family="FreeSans" font-size="10.00" fill="#000000">Fun4All_G4_Prototype3</text>
</a>
</g>
</g>
<!-- Node1&#45;&gt;Node24 -->
<g id="edge42" class="edge">
<title>Node1&#45;&gt;Node24</title>
<path fill="none" stroke="#191970" d="M78.6002,-346.409C96.3124,-324.4315 125.2044,-292.562 157,-273.5 163.7211,-269.4706 171.3163,-266.198 178.9084,-263.5577"/>
<polygon fill="#191970" stroke="#191970" points="75.8209,-344.2811 72.3764,-354.3005 81.3172,-348.6159 75.8209,-344.2811"/>
</g>
<!-- Node25 -->
<g id="node25" class="node">
<title>Node25</title>
<g id="a_node25"><a xlink:href="../../d4/d58/Fun4All__G4__Prototype4_8C.html#acac517f0728af658cbf99c7c9687c908" target="_top" xlink:title="Fun4All_G4_Prototype4">
<polygon fill="none" stroke="#000000" points="157,-204.5 157,-224.5 290,-224.5 290,-204.5 157,-204.5"/>
<text text-anchor="middle" x="223.5" y="-211.5" font-family="FreeSans" font-size="10.00" fill="#000000">Fun4All_G4_Prototype4</text>
</a>
</g>
</g>
<!-- Node1&#45;&gt;Node25 -->
<g id="edge43" class="edge">
<title>Node1&#45;&gt;Node25</title>
<path fill="none" stroke="#191970" d="M71.9346,-345.2681C87.0889,-314.6261 116.6872,-263.4574 157,-234.5 162.6791,-230.4206 169.1984,-227.163 175.8856,-224.5643"/>
<polygon fill="#191970" stroke="#191970" points="68.7031,-343.9121 67.5266,-354.4414 75.0125,-346.944 68.7031,-343.9121"/>
</g>
<!-- Node26 -->
<g id="node26" class="node">
<title>Node26</title>
<g id="a_node26"><a xlink:href="../../d7/dc0/G4__HcalIn__EIC_8C.html#a4552e4b1c6ffcc08cba2296b2c45f950" target="_top" xlink:title="HCALInner_Towers">
<polygon fill="none" stroke="#000000" points="169,-360.5 169,-380.5 278,-380.5 278,-360.5 169,-360.5"/>
<text text-anchor="middle" x="223.5" y="-367.5" font-family="FreeSans" font-size="10.00" fill="#000000">HCALInner_Towers</text>
</a>
</g>
</g>
<!-- Node1&#45;&gt;Node26 -->
<g id="edge44" class="edge">
<title>Node1&#45;&gt;Node26</title>
<path fill="none" stroke="#191970" d="M131.2272,-370.5C143.8598,-370.5 156.8439,-370.5 168.9365,-370.5"/>
<polygon fill="#191970" stroke="#191970" points="131.1952,-367.0001 121.1952,-370.5 131.1951,-374.0001 131.1952,-367.0001"/>
</g>
<!-- Node27 -->
<g id="node27" class="node">
<title>Node27</title>
<g id="a_node27"><a xlink:href="../../de/d3d/macros_2blob_2master_2macros_2g4simulations_2G4__HcalOut__ref_8C.html#a4fd9d72ad1e04ebc46273f3b9fff91d6" target="_top" xlink:title="HCALOuter_Towers">
<polygon fill="none" stroke="#000000" points="168,-321.5 168,-341.5 279,-341.5 279,-321.5 168,-321.5"/>
<text text-anchor="middle" x="223.5" y="-328.5" font-family="FreeSans" font-size="10.00" fill="#000000">HCALOuter_Towers</text>
</a>
</g>
</g>
<!-- Node1&#45;&gt;Node27 -->
<g id="edge61" class="edge">
<title>Node1&#45;&gt;Node27</title>
<path fill="none" stroke="#191970" d="M131.2077,-353.5822C148.3808,-349.4733 166.2047,-345.2087 181.5565,-341.5356"/>
<polygon fill="#191970" stroke="#191970" points="130.1062,-350.2469 121.1952,-355.9778 131.7351,-357.0547 130.1062,-350.2469"/>
</g>
<!-- Node3 -->
<g id="node3" class="node">
<title>Node3</title>
<g id="a_node3"><a xlink:href="../../d3/d7f/Fun_8C.html#af0d3c8a78765149fef9b2beeecfc6279" target="_top" xlink:title="ConfigureDetectors">
<polygon fill="none" stroke="#000000" points="352.5,-51.5 352.5,-71.5 466.5,-71.5 466.5,-51.5 352.5,-51.5"/>
<text text-anchor="middle" x="409.5" y="-58.5" font-family="FreeSans" font-size="10.00" fill="#000000">ConfigureDetectors</text>
</a>
</g>
</g>
<!-- Node2&#45;&gt;Node3 -->
<g id="edge2" class="edge">
<title>Node2&#45;&gt;Node3</title>
<path fill="none" stroke="#191970" d="M275.633,-401.3772C281.0878,-398.6737 286.0656,-395.1311 290,-390.5 379.5185,-285.1298 234.2262,-184.9119 326,-81.5 332.9261,-73.6955 342.3077,-68.6638 352.284,-65.4719"/>
<polygon fill="#191970" stroke="#191970" points="274.094,-398.2228 266.1024,-405.1788 276.6875,-404.7247 274.094,-398.2228"/>
</g>
<!-- Node5 -->
<g id="node5" class="node">
<title>Node5</title>
<g id="a_node5"><a xlink:href="../../da/d02/Fun4All__G4__EICDetector_8C.html#afbe82cefa1d1fd031d9a8586b7bb68c6" target="_top" xlink:title="Fun4All_G4_EICDetector">
<polygon fill="none" stroke="#000000" points="340,-567.5 340,-587.5 479,-587.5 479,-567.5 340,-567.5"/>
<text text-anchor="middle" x="409.5" y="-574.5" font-family="FreeSans" font-size="10.00" fill="#000000">Fun4All_G4_EICDetector</text>
</a>
</g>
</g>
<!-- Node2&#45;&gt;Node5 -->
<g id="edge4" class="edge">
<title>Node2&#45;&gt;Node5</title>
<path fill="none" stroke="#191970" d="M242.4142,-426.4769C256.7722,-440.0715 276.3119,-460.1686 290,-480.5 311.323,-512.1719 296.3371,-534.4606 326,-558.5 330.3891,-562.057 335.315,-564.9767 340.5217,-567.3699"/>
<polygon fill="#191970" stroke="#191970" points="244.7513,-423.8708 235.0408,-419.6332 239.9892,-429.0014 244.7513,-423.8708"/>
</g>
<!-- Node6 -->
<g id="node6" class="node">
<title>Node6</title>
<g id="a_node6"><a xlink:href="../../dd/d2a/Fun4All__G4__EICDetector__LQ_8C.html#aaa01242fd6e77ca43a9d49a6d46008e4" target="_top" xlink:title="Fun4All_G4_EICDetector_LQ">
<polygon fill="none" stroke="#000000" points="331.5,-528.5 331.5,-548.5 487.5,-548.5 487.5,-528.5 331.5,-528.5"/>
<text text-anchor="middle" x="409.5" y="-535.5" font-family="FreeSans" font-size="10.00" fill="#000000">Fun4All_G4_EICDetector_LQ</text>
</a>
</g>
</g>
<!-- Node2&#45;&gt;Node6 -->
<g id="edge5" class="edge">
<title>Node2&#45;&gt;Node6</title>
<path fill="none" stroke="#191970" d="M240.1724,-427.2289C253.6441,-441.5716 273.0802,-462.3032 290,-480.5 306.0628,-497.7751 305.5826,-507.6859 326,-519.5 332.3054,-523.1485 339.2561,-526.0964 346.3742,-528.4782"/>
<polygon fill="#191970" stroke="#191970" points="242.3924,-424.4804 232.9937,-419.5899 237.2913,-429.274 242.3924,-424.4804"/>
</g>
<!-- Node7 -->
<g id="node7" class="node">
<title>Node7</title>
<g id="a_node7"><a xlink:href="../../d4/df5/Fun4All__G4__EICDetector__LQ__reference_8C.html#a2feefc472f17f90b3cbe74897d049f75" target="_top" xlink:title="Fun4All_G4_EICDetector\l_LQ_reference">
<polygon fill="none" stroke="#000000" points="340,-645.5 340,-677.5 479,-677.5 479,-645.5 340,-645.5"/>
<text text-anchor="start" x="348" y="-664.5" font-family="FreeSans" font-size="10.00" fill="#000000">Fun4All_G4_EICDetector</text>
<text text-anchor="middle" x="409.5" y="-652.5" font-family="FreeSans" font-size="10.00" fill="#000000">_LQ_reference</text>
</a>
</g>
</g>
<!-- Node2&#45;&gt;Node7 -->
<g id="edge6" class="edge">
<title>Node2&#45;&gt;Node7</title>
<path fill="none" stroke="#191970" d="M244.1547,-426.21C259.1021,-439.4112 278.6047,-459.1227 290,-480.5 323.4714,-543.2916 277.3238,-584.5988 326,-636.5 330.0372,-640.8047 334.7822,-644.378 339.9257,-647.3428"/>
<polygon fill="#191970" stroke="#191970" points="246.2739,-423.417 236.3996,-419.5766 241.7238,-428.7365 246.2739,-423.417"/>
</g>
<!-- Node8 -->
<g id="node8" class="node">
<title>Node8</title>
<g id="a_node8"><a xlink:href="../../d3/d51/Fun4All__G4__EICDetector__RICH_8C.html#a5739502b0a7a1ba782c01069f77e933f" target="_top" xlink:title="Fun4All_G4_EICDetector_RICH">
<polygon fill="none" stroke="#000000" points="326,-606.5 326,-626.5 493,-626.5 493,-606.5 326,-606.5"/>
<text text-anchor="middle" x="409.5" y="-613.5" font-family="FreeSans" font-size="10.00" fill="#000000">Fun4All_G4_EICDetector_RICH</text>
</a>
</g>
</g>
<!-- Node2&#45;&gt;Node8 -->
<g id="edge7" class="edge">
<title>Node2&#45;&gt;Node8</title>
<path fill="none" stroke="#191970" d="M243.4553,-426.2204C258.2061,-439.55 277.7743,-459.4216 290,-480.5 317.2967,-527.5626 286.1183,-560.4939 326,-597.5 329.8144,-601.0393 334.1465,-603.966 338.7836,-606.3814"/>
<polygon fill="#191970" stroke="#191970" points="245.6552,-423.4942 235.8332,-419.5219 241.0343,-428.7523 245.6552,-423.4942"/>
</g>
<!-- Node9 -->
<g id="node9" class="node">
<title>Node9</title>
<g id="a_node9"><a xlink:href="../../d7/d9e/Fun4All__G4__fsPHENIX_8C.html#af48911d394d2412e817583700f2bbee2" target="_top" xlink:title="Fun4All_G4_fsPHENIX">
<polygon fill="none" stroke="#000000" points="347.5,-489.5 347.5,-509.5 471.5,-509.5 471.5,-489.5 347.5,-489.5"/>
<text text-anchor="middle" x="409.5" y="-496.5" font-family="FreeSans" font-size="10.00" fill="#000000">Fun4All_G4_fsPHENIX</text>
</a>
</g>
</g>
<!-- Node2&#45;&gt;Node9 -->
<g id="edge8" class="edge">
<title>Node2&#45;&gt;Node9</title>
<path fill="none" stroke="#191970" d="M242.7762,-426.2563C262.4235,-442.4762 294.4179,-466.5941 326,-480.5 334.1639,-484.0947 343.0878,-487.048 351.9669,-489.4632"/>
<polygon fill="#191970" stroke="#191970" points="244.8111,-423.3943 234.9064,-419.6331 240.3038,-428.7501 244.8111,-423.3943"/>
</g>
<!-- Node10 -->
<g id="node10" class="node">
<title>Node10</title>
<g id="a_node10"><a xlink:href="../../da/d2f/Fun4All__G4__fsPHENIX__FastSim_8C.html#a66fb850cae5fcaadda23b74a25ce4c9c" target="_top" xlink:title="Fun4All_G4_fsPHENIX\l_FastSim">
<polygon fill="none" stroke="#000000" points="347.5,-438.5 347.5,-470.5 471.5,-470.5 471.5,-438.5 347.5,-438.5"/>
<text text-anchor="start" x="355.5" y="-457.5" font-family="FreeSans" font-size="10.00" fill="#000000">Fun4All_G4_fsPHENIX</text>
<text text-anchor="middle" x="409.5" y="-445.5" font-family="FreeSans" font-size="10.00" fill="#000000">_FastSim</text>
</a>
</g>
</g>
<!-- Node2&#45;&gt;Node10 -->
<g id="edge9" class="edge">
<title>Node2&#45;&gt;Node10</title>
<path fill="none" stroke="#191970" d="M275.2183,-422.0125C297.5985,-427.4271 323.9803,-433.8098 347.4092,-439.478"/>
<polygon fill="#191970" stroke="#191970" points="275.7847,-418.5486 265.242,-419.5989 274.1386,-425.3523 275.7847,-418.5486"/>
</g>
<!-- Node11 -->
<g id="node11" class="node">
<title>Node11</title>
<g id="a_node11"><a xlink:href="../../d0/da6/Fun4All__G4__fsPHENIX__pi0_8C.html#a023d91d47b678e5d7f1751834aa517c6" target="_top" xlink:title="Fun4All_G4_fsPHENIX_pi0">
<polygon fill="none" stroke="#000000" points="337,-399.5 337,-419.5 482,-419.5 482,-399.5 337,-399.5"/>
<text text-anchor="middle" x="409.5" y="-406.5" font-family="FreeSans" font-size="10.00" fill="#000000">Fun4All_G4_fsPHENIX_pi0</text>
</a>
</g>
</g>
<!-- Node2&#45;&gt;Node11 -->
<g id="edge10" class="edge">
<title>Node2&#45;&gt;Node11</title>
<path fill="none" stroke="#191970" d="M276.306,-409.5C295.095,-409.5 316.5943,-409.5 336.7582,-409.5"/>
<polygon fill="#191970" stroke="#191970" points="276.1722,-406.0001 266.1722,-409.5 276.1721,-413.0001 276.1722,-406.0001"/>
</g>
<!-- Node12 -->
<g id="node12" class="node">
<title>Node12</title>
<g id="a_node12"><a xlink:href="../../d5/d2c/macros_2blob_2master_2macros_2g4simulations_2Fun4All__G4__sPHENIX_8C.html#a6eaaa492d7023ec86c562dc63aa1e5a4" target="_top" xlink:title="Fun4All_G4_sPHENIX">
<polygon fill="none" stroke="#000000" points="349,-360.5 349,-380.5 470,-380.5 470,-360.5 349,-360.5"/>
<text text-anchor="middle" x="409.5" y="-367.5" font-family="FreeSans" font-size="10.00" fill="#000000">Fun4All_G4_sPHENIX</text>
</a>
</g>
</g>
<!-- Node2&#45;&gt;Node12 -->
<g id="edge11" class="edge">
<title>Node2&#45;&gt;Node12</title>
<path fill="none" stroke="#191970" d="M276.1909,-398.4519C303.1104,-392.8075 335.6169,-385.9916 361.791,-380.5035"/>
<polygon fill="#191970" stroke="#191970" points="275.241,-395.0749 266.1722,-400.5526 276.6776,-401.9259 275.241,-395.0749"/>
</g>
<!-- Node13 -->
<g id="node13" class="node">
<title>Node13</title>
<g id="a_node13"><a xlink:href="../../d3/de2/Fun4All__G4__sPHENIX__AnaGenFit_8C.html#a9bf3f2f72ed69a17e2d0c1121d48013c" target="_top" xlink:title="Fun4All_G4_sPHENIX\l_AnaGenFit">
<polygon fill="none" stroke="#000000" points="349,-.5 349,-32.5 470,-32.5 470,-.5 349,-.5"/>
<text text-anchor="start" x="357" y="-19.5" font-family="FreeSans" font-size="10.00" fill="#000000">Fun4All_G4_sPHENIX</text>
<text text-anchor="middle" x="409.5" y="-7.5" font-family="FreeSans" font-size="10.00" fill="#000000">_AnaGenFit</text>
</a>
</g>
</g>
<!-- Node2&#45;&gt;Node13 -->
<g id="edge12" class="edge">
<title>Node2&#45;&gt;Node13</title>
<path fill="none" stroke="#191970" d="M275.6908,-401.426C281.1359,-398.7143 286.0955,-395.1564 290,-390.5 389.9076,-271.3519 227.503,-162.8168 326,-42.5 331.963,-35.216 339.9353,-29.9352 348.594,-26.1145"/>
<polygon fill="#191970" stroke="#191970" points="274.1538,-398.2711 266.1695,-405.2354 276.7541,-404.7703 274.1538,-398.2711"/>
</g>
<!-- Node14 -->
<g id="node14" class="node">
<title>Node14</title>
<g id="a_node14"><a xlink:href="../../da/dd0/Fun4All__G4__sPHENIX__photonjet_8C.html#a6f18519e216acc05399e562ea57ea77c" target="_top" xlink:title="Fun4All_G4_sPHENIX\l_photonjet">
<polygon fill="none" stroke="#000000" points="349,-309.5 349,-341.5 470,-341.5 470,-309.5 349,-309.5"/>
<text text-anchor="start" x="357" y="-328.5" font-family="FreeSans" font-size="10.00" fill="#000000">Fun4All_G4_sPHENIX</text>
<text text-anchor="middle" x="409.5" y="-316.5" font-family="FreeSans" font-size="10.00" fill="#000000">_photonjet</text>
</a>
</g>
</g>
<!-- Node2&#45;&gt;Node14 -->
<g id="edge13" class="edge">
<title>Node2&#45;&gt;Node14</title>
<path fill="none" stroke="#191970" d="M275.7791,-397.5868C280.7482,-395.5691 285.5762,-393.2235 290,-390.5 310.0876,-378.1333 306.0595,-364.1024 326,-351.5 333.059,-347.0387 340.9391,-343.2942 348.9615,-340.1645"/>
<polygon fill="#191970" stroke="#191970" points="274.3348,-394.387 266.1182,-401.0758 276.7126,-400.9708 274.3348,-394.387"/>
</g>
<!-- Node15 -->
<g id="node15" class="node">
<title>Node15</title>
<g id="a_node15"><a xlink:href="../../da/d85/Fun4All__G4__sPHENIX__photons_8C.html#a02fbbd59878fe1299f58ed187e7214ba" target="_top" xlink:title="Fun4All_G4_sPHENIX\l_photons">
<polygon fill="none" stroke="#000000" points="349,-258.5 349,-290.5 470,-290.5 470,-258.5 349,-258.5"/>
<text text-anchor="start" x="357" y="-277.5" font-family="FreeSans" font-size="10.00" fill="#000000">Fun4All_G4_sPHENIX</text>
<text text-anchor="middle" x="409.5" y="-265.5" font-family="FreeSans" font-size="10.00" fill="#000000">_photons</text>
</a>
</g>
</g>
<!-- Node2&#45;&gt;Node15 -->
<g id="edge14" class="edge">
<title>Node2&#45;&gt;Node15</title>
<path fill="none" stroke="#191970" d="M275.7637,-399.7278C280.9445,-397.2986 285.8221,-394.2713 290,-390.5 321.9794,-361.6328 294.3629,-329.742 326,-300.5 332.5784,-294.4197 340.5597,-289.761 348.9479,-286.1916"/>
<polygon fill="#191970" stroke="#191970" points="274.2242,-396.5722 266.1963,-403.4861 276.7836,-403.0875 274.2242,-396.5722"/>
</g>
<!-- Node16 -->
<g id="node16" class="node">
<title>Node16</title>
<g id="a_node16"><a xlink:href="../../de/d55/Fun4All__G4__sPHENIX__truthphotonjet_8C.html#a48a6f4503eaa1b3793d8ae572aa795b9" target="_top" xlink:title="Fun4All_G4_sPHENIX\l_truthphotonjet">
<polygon fill="none" stroke="#000000" points="349,-207.5 349,-239.5 470,-239.5 470,-207.5 349,-207.5"/>
<text text-anchor="start" x="357" y="-226.5" font-family="FreeSans" font-size="10.00" fill="#000000">Fun4All_G4_sPHENIX</text>
<text text-anchor="middle" x="409.5" y="-214.5" font-family="FreeSans" font-size="10.00" fill="#000000">_truthphotonjet</text>
</a>
</g>
</g>
<!-- Node2&#45;&gt;Node16 -->
<g id="edge15" class="edge">
<title>Node2&#45;&gt;Node16</title>
<path fill="none" stroke="#191970" d="M275.4723,-400.6485C280.8651,-398.0628 285.8716,-394.747 290,-390.5 335.0814,-344.1235 281.4681,-296.4044 326,-249.5 332.2724,-242.8935 340.1913,-237.9555 348.6405,-234.2669"/>
<polygon fill="#191970" stroke="#191970" points="274.1314,-397.4149 266.1185,-404.3463 276.7049,-403.9247 274.1314,-397.4149"/>
</g>
<!-- Node17 -->
<g id="node17" class="node">
<title>Node17</title>
<g id="a_node17"><a xlink:href="../../d4/d65/Fun4All__single__particle_8C.html#a8a492b5dbead494bfdddbebde8a49b0e" target="_top" xlink:title="Fun4All_single_particle">
<polygon fill="none" stroke="#000000" points="343.5,-168.5 343.5,-188.5 475.5,-188.5 475.5,-168.5 343.5,-168.5"/>
<text text-anchor="middle" x="409.5" y="-175.5" font-family="FreeSans" font-size="10.00" fill="#000000">Fun4All_single_particle</text>
</a>
</g>
</g>
<!-- Node2&#45;&gt;Node17 -->
<g id="edge16" class="edge">
<title>Node2&#45;&gt;Node17</title>
<path fill="none" stroke="#191970" d="M275.5363,-401.007C280.9622,-398.3626 285.9592,-394.935 290,-390.5 348.4728,-326.3228 266.1545,-261.3991 326,-198.5 330.9321,-193.3163 336.9502,-189.3733 343.4736,-186.3881"/>
<polygon fill="#191970" stroke="#191970" points="274.0949,-397.8135 266.0931,-404.7576 276.6788,-404.3192 274.0949,-397.8135"/>
</g>
<!-- Node18 -->
<g id="node18" class="node">
<title>Node18</title>
<g id="a_node18"><a xlink:href="../../d0/d99/Jin__BJet_8C.html#a36169bfee2ed7efda633944d12aebad9" target="_top" xlink:title="Jin_BJet">
<polygon fill="none" stroke="#000000" points="382,-129.5 382,-149.5 437,-149.5 437,-129.5 382,-129.5"/>
<text text-anchor="middle" x="409.5" y="-136.5" font-family="FreeSans" font-size="10.00" fill="#000000">Jin_BJet</text>
</a>
</g>
</g>
<!-- Node2&#45;&gt;Node18 -->
<g id="edge17" class="edge">
<title>Node2&#45;&gt;Node18</title>
<path fill="none" stroke="#191970" d="M275.6697,-401.1267C281.0727,-398.4617 286.0278,-394.9966 290,-390.5 358.7908,-312.6265 255.5431,-235.8693 326,-159.5 340.05,-144.271 363.4596,-139.6835 381.9228,-138.6711"/>
<polygon fill="#191970" stroke="#191970" points="274.2322,-397.9321 266.2485,-404.8971 276.8331,-404.431 274.2322,-397.9321"/>
</g>
<!-- Node19 -->
<g id="node19" class="node">
<title>Node19</title>
<g id="a_node19"><a xlink:href="../../dd/db1/Wrapper_8cxx.html#abf1e42281903daa0752c80dd6c879fac" target="_top" xlink:title="Wrapper">
<polygon fill="none" stroke="#000000" points="379.5,-90.5 379.5,-110.5 439.5,-110.5 439.5,-90.5 379.5,-90.5"/>
<text text-anchor="middle" x="409.5" y="-97.5" font-family="FreeSans" font-size="10.00" fill="#000000">Wrapper</text>
</a>
</g>
</g>
<!-- Node2&#45;&gt;Node19 -->
<g id="edge18" class="edge">
<title>Node2&#45;&gt;Node19</title>
<path fill="none" stroke="#191970" d="M275.5591,-401.3139C281.0265,-398.6211 286.0274,-395.0983 290,-390.5 369.1438,-298.8907 244.8957,-210.3783 326,-120.5 339.282,-105.7811 361.3009,-100.9578 379.3935,-99.7208"/>
<polygon fill="#191970" stroke="#191970" points="274.0177,-398.1602 266.0168,-405.1054 276.6025,-404.6655 274.0177,-398.1602"/>
</g>
<!-- Node4 -->
<g id="node4" class="node">
<title>Node4</title>
<g id="a_node4"><a xlink:href="../../d3/d7f/Fun_8C.html#af69a3eef3ff244bb51f5740c6ecb5432" target="_top" xlink:title="Fun">
<polygon fill="none" stroke="#000000" points="529,-51.5 529,-71.5 563,-71.5 563,-51.5 529,-51.5"/>
<text text-anchor="middle" x="546" y="-58.5" font-family="FreeSans" font-size="10.00" fill="#000000">Fun</text>
</a>
</g>
</g>
<!-- Node3&#45;&gt;Node4 -->
<g id="edge3" class="edge">
<title>Node3&#45;&gt;Node4</title>
<path fill="none" stroke="#191970" d="M476.6941,-61.5C496.0852,-61.5 515.59,-61.5 528.9452,-61.5"/>
<polygon fill="#191970" stroke="#191970" points="476.5974,-58.0001 466.5974,-61.5 476.5974,-65.0001 476.5974,-58.0001"/>
</g>
<!-- Node20&#45;&gt;Node5 -->
<g id="edge20" class="edge">
<title>Node20&#45;&gt;Node5</title>
<path fill="none" stroke="#191970" d="M275.775,-577.5C295.6148,-577.5 318.5361,-577.5 339.7361,-577.5"/>
<polygon fill="#191970" stroke="#191970" points="275.7063,-574.0001 265.7063,-577.5 275.7062,-581.0001 275.7063,-574.0001"/>
</g>
<!-- Node20&#45;&gt;Node6 -->
<g id="edge21" class="edge">
<title>Node20&#45;&gt;Node6</title>
<path fill="none" stroke="#191970" d="M275.7241,-566.5498C302.6546,-560.9031 335.2731,-554.0637 361.5588,-548.5522"/>
<polygon fill="#191970" stroke="#191970" points="274.7752,-563.1726 265.7063,-568.6503 276.2117,-570.0236 274.7752,-563.1726"/>
</g>
<!-- Node20&#45;&gt;Node7 -->
<g id="edge22" class="edge">
<title>Node20&#45;&gt;Node7</title>
<path fill="none" stroke="#191970" d="M247.108,-593.1983C267.374,-606.1512 297.7077,-624.3175 326,-636.5 333.5052,-639.7317 341.5595,-642.7124 349.5972,-645.4042"/>
<polygon fill="#191970" stroke="#191970" points="248.8445,-590.153 238.5486,-587.6541 245.0389,-596.0282 248.8445,-590.153"/>
</g>
<!-- Node20&#45;&gt;Node8 -->
<g id="edge23" class="edge">
<title>Node20&#45;&gt;Node8</title>
<path fill="none" stroke="#191970" d="M275.7241,-588.4502C302.6546,-594.0969 335.2731,-600.9363 361.5588,-606.4478"/>
<polygon fill="#191970" stroke="#191970" points="276.2117,-584.9764 265.7063,-586.3497 274.7752,-591.8274 276.2117,-584.9764"/>
</g>
<!-- Node21&#45;&gt;Node5 -->
<g id="edge25" class="edge">
<title>Node21&#45;&gt;Node5</title>
<path fill="none" stroke="#191970" d="M275.183,-512.0018C280.3623,-514.141 285.3999,-516.6239 290,-519.5 310.0015,-532.0054 305.5826,-546.6859 326,-558.5 332.3054,-562.1485 339.2561,-565.0964 346.3742,-567.4782"/>
<polygon fill="#191970" stroke="#191970" points="276.3644,-508.7071 265.7714,-508.512 273.9307,-515.2704 276.3644,-508.7071"/>
</g>
<!-- Node21&#45;&gt;Node6 -->
<g id="edge26" class="edge">
<title>Node21&#45;&gt;Node6</title>
<path fill="none" stroke="#191970" d="M275.7241,-510.4502C302.6546,-516.0969 335.2731,-522.9363 361.5588,-528.4478"/>
<polygon fill="#191970" stroke="#191970" points="276.2117,-506.9764 265.7063,-508.3497 274.7752,-513.8274 276.2117,-506.9764"/>
</g>
<!-- Node21&#45;&gt;Node7 -->
<g id="edge27" class="edge">
<title>Node21&#45;&gt;Node7</title>
<path fill="none" stroke="#191970" d="M275.0846,-509.2604C280.588,-511.9032 285.7267,-515.2538 290,-519.5 328.5928,-557.8484 287.3835,-598.1755 326,-636.5 330.0815,-640.5506 334.7911,-643.9495 339.8524,-646.801"/>
<polygon fill="#191970" stroke="#191970" points="276.1512,-505.9174 265.5668,-505.4479 273.5482,-512.4155 276.1512,-505.9174"/>
</g>
<!-- Node21&#45;&gt;Node8 -->
<g id="edge28" class="edge">
<title>Node21&#45;&gt;Node8</title>
<path fill="none" stroke="#191970" d="M274.981,-510.0314C280.4178,-512.5418 285.5688,-515.6505 290,-519.5 318.8234,-544.5397 296.3371,-573.4606 326,-597.5 330.3891,-601.057 335.315,-603.9767 340.5217,-606.3699"/>
<polygon fill="#191970" stroke="#191970" points="276.2249,-506.7597 265.6381,-506.3463 273.6564,-513.2715 276.2249,-506.7597"/>
</g>
<!-- Node21&#45;&gt;Node9 -->
<g id="edge29" class="edge">
<title>Node21&#45;&gt;Node9</title>
<path fill="none" stroke="#191970" d="M275.9396,-499.5C298.142,-499.5 324.1801,-499.5 347.3405,-499.5"/>
<polygon fill="#191970" stroke="#191970" points="275.7063,-496.0001 265.7063,-499.5 275.7062,-503.0001 275.7063,-496.0001"/>
</g>
<!-- Node21&#45;&gt;Node10 -->
<g id="edge30" class="edge">
<title>Node21&#45;&gt;Node10</title>
<path fill="none" stroke="#191970" d="M275.2183,-486.9875C297.5985,-481.5729 323.9803,-475.1902 347.4092,-469.522"/>
<polygon fill="#191970" stroke="#191970" points="274.1386,-483.6477 265.242,-489.4011 275.7847,-490.4514 274.1386,-483.6477"/>
</g>
<!-- Node21&#45;&gt;Node11 -->
<g id="edge31" class="edge">
<title>Node21&#45;&gt;Node11</title>
<path fill="none" stroke="#191970" d="M243.1757,-482.8064C262.9067,-466.8854 294.7659,-443.3411 326,-429.5 334.9947,-425.5141 344.9016,-422.2541 354.6524,-419.6106"/>
<polygon fill="#191970" stroke="#191970" points="240.7571,-480.2637 235.2543,-489.3174 245.202,-485.6714 240.7571,-480.2637"/>
</g>
<!-- Node21&#45;&gt;Node12 -->
<g id="edge32" class="edge">
<title>Node21&#45;&gt;Node12</title>
<path fill="none" stroke="#191970" d="M240.6686,-481.5698C254.139,-467.4677 273.3344,-447.2966 290,-429.5 306.1239,-412.2819 305.65,-402.4298 326,-390.5 333.0728,-386.3537 340.9608,-383.0658 348.987,-380.4589"/>
<polygon fill="#191970" stroke="#191970" points="237.8423,-479.4612 233.4614,-489.1078 242.9019,-484.2987 237.8423,-479.4612"/>
</g>
<!-- Node22&#45;&gt;Node5 -->
<g id="edge34" class="edge">
<title>Node22&#45;&gt;Node5</title>
<path fill="none" stroke="#191970" d="M277.9532,-549.9176C304.4993,-555.4837 336.1365,-562.1173 361.7316,-567.484"/>
<polygon fill="#191970" stroke="#191970" points="278.5571,-546.4682 268.0516,-547.8415 277.1205,-553.3192 278.5571,-546.4682"/>
</g>
<!-- Node22&#45;&gt;Node6 -->
<g id="edge35" class="edge">
<title>Node22&#45;&gt;Node6</title>
<path fill="none" stroke="#191970" d="M278.1093,-538.5C294.7126,-538.5 313.2959,-538.5 331.1415,-538.5"/>
<polygon fill="#191970" stroke="#191970" points="278.0517,-535.0001 268.0516,-538.5 278.0516,-542.0001 278.0517,-535.0001"/>
</g>
<!-- Node22&#45;&gt;Node7 -->
<g id="edge36" class="edge">
<title>Node22&#45;&gt;Node7</title>
<path fill="none" stroke="#191970" d="M277.5435,-550.2711C282.0329,-552.5461 286.2713,-555.2608 290,-558.5 318.8234,-583.5397 297.1611,-611.4781 326,-636.5 330.1147,-640.0701 334.7234,-643.1305 339.6058,-645.754"/>
<polygon fill="#191970" stroke="#191970" points="278.6278,-546.9275 268.0586,-546.1915 275.862,-553.3579 278.6278,-546.9275"/>
</g>
<!-- Node22&#45;&gt;Node8 -->
<g id="edge37" class="edge">
<title>Node22&#45;&gt;Node8</title>
<path fill="none" stroke="#191970" d="M277.7328,-552.0885C282.0121,-553.9707 286.1586,-556.0983 290,-558.5 310.0015,-571.0054 305.5826,-585.6859 326,-597.5 332.3054,-601.1485 339.2561,-604.0964 346.3742,-606.4782"/>
<polygon fill="#191970" stroke="#191970" points="278.8067,-548.75 268.2194,-548.349 276.2458,-555.2648 278.8067,-548.75"/>
</g>
<!-- Node22&#45;&gt;Node9 -->
<g id="edge38" class="edge">
<title>Node22&#45;&gt;Node9</title>
<path fill="none" stroke="#191970" d="M277.9532,-527.0824C304.4993,-521.5163 336.1365,-514.8827 361.7316,-509.516"/>
<polygon fill="#191970" stroke="#191970" points="277.1205,-523.6808 268.0516,-529.1585 278.5571,-530.5318 277.1205,-523.6808"/>
</g>
<!-- Node22&#45;&gt;Node10 -->
<g id="edge39" class="edge">
<title>Node22&#45;&gt;Node10</title>
<path fill="none" stroke="#191970" d="M277.7308,-525.7739C282.0105,-523.9459 286.1577,-521.8655 290,-519.5 310.0876,-507.1333 306.0595,-493.1024 326,-480.5 332.5457,-476.3631 339.7972,-472.8426 347.2137,-469.8571"/>
<polygon fill="#191970" stroke="#191970" points="276.3237,-522.5643 268.2168,-529.3855 278.808,-529.1087 276.3237,-522.5643"/>
</g>
<!-- Node22&#45;&gt;Node11 -->
<g id="edge40" class="edge">
<title>Node22&#45;&gt;Node11</title>
<path fill="none" stroke="#191970" d="M277.7068,-527.7808C282.1626,-525.5239 286.3485,-522.7962 290,-519.5 321.9794,-490.6328 293.4045,-457.6697 326,-429.5 330.6241,-425.5037 335.9089,-422.2745 341.524,-419.6692"/>
<polygon fill="#191970" stroke="#191970" points="276.1071,-524.6574 268.2666,-531.7833 278.8395,-531.1021 276.1071,-524.6574"/>
</g>
<!-- Node26&#45;&gt;Node3 -->
<g id="edge45" class="edge">
<title>Node26&#45;&gt;Node3</title>
<path fill="none" stroke="#191970" d="M286.7115,-354.8649C287.8703,-353.8127 288.9697,-352.6925 290,-351.5 369.1438,-259.8907 244.8957,-171.3783 326,-81.5 332.9906,-73.7532 342.4013,-68.7476 352.386,-65.5632"/>
<polygon fill="#191970" stroke="#191970" points="284.4107,-352.2071 278.3061,-360.8664 288.4783,-357.904 284.4107,-352.2071"/>
</g>
<!-- Node26&#45;&gt;Node5 -->
<g id="edge46" class="edge">
<title>Node26&#45;&gt;Node5</title>
<path fill="none" stroke="#191970" d="M285.4564,-386.2504C287.0685,-387.5574 288.5902,-388.9711 290,-390.5 341.7639,-446.6392 272.3465,-504.1639 326,-558.5 329.9695,-562.52 334.6003,-565.7651 339.6087,-568.377"/>
<polygon fill="#191970" stroke="#191970" points="287.0287,-383.0972 276.7411,-380.5642 283.2037,-388.9598 287.0287,-383.0972"/>
</g>
<!-- Node26&#45;&gt;Node6 -->
<g id="edge47" class="edge">
<title>Node26&#45;&gt;Node6</title>
<path fill="none" stroke="#191970" d="M284.8055,-385.9593C286.6477,-387.3461 288.3886,-388.8561 290,-390.5 331.6668,-433.0086 282.9038,-478.4412 326,-519.5 329.7674,-523.0893 334.0654,-526.0523 338.6786,-528.4931"/>
<polygon fill="#191970" stroke="#191970" points="286.5166,-382.9025 276.1675,-380.6338 282.843,-388.8611 286.5166,-382.9025"/>
</g>
<!-- Node26&#45;&gt;Node7 -->
<g id="edge48" class="edge">
<title>Node26&#45;&gt;Node7</title>
<path fill="none" stroke="#191970" d="M286.1669,-386.6323C287.526,-387.8323 288.8087,-389.1195 290,-390.5 362.192,-474.1546 253.7562,-552.8901 326,-636.5 329.9574,-641.08 334.7167,-644.8392 339.9307,-647.9221"/>
<polygon fill="#191970" stroke="#191970" points="287.8504,-383.5383 277.6516,-380.6683 283.8346,-389.2719 287.8504,-383.5383"/>
</g>
<!-- Node26&#45;&gt;Node8 -->
<g id="edge49" class="edge">
<title>Node26&#45;&gt;Node8</title>
<path fill="none" stroke="#191970" d="M285.6382,-386.2663C287.1895,-387.5694 288.6502,-388.9778 290,-390.5 351.9536,-460.3695 261.6932,-529.7901 326,-597.5 329.3786,-601.0574 333.2737,-604.0134 337.4959,-606.4639"/>
<polygon fill="#191970" stroke="#191970" points="287.4703,-383.2803 277.2225,-380.5905 283.5562,-389.0838 287.4703,-383.2803"/>
</g>
<!-- Node26&#45;&gt;Node9 -->
<g id="edge50" class="edge">
<title>Node26&#45;&gt;Node9</title>
<path fill="none" stroke="#191970" d="M283.745,-385.6189C285.9562,-387.097 288.0546,-388.7194 290,-390.5 321.7788,-419.5879 293.245,-452.5159 326,-480.5 332.2169,-485.8114 339.6167,-489.7176 347.4041,-492.5772"/>
<polygon fill="#191970" stroke="#191970" points="285.182,-382.413 274.7429,-380.6029 281.7748,-388.5278 285.182,-382.413"/>
</g>
<!-- Node26&#45;&gt;Node10 -->
<g id="edge51" class="edge">
<title>Node26&#45;&gt;Node10</title>
<path fill="none" stroke="#191970" d="M278.4628,-384.4126C282.4835,-386.214 286.3774,-388.2351 290,-390.5 310.0015,-403.0054 305.9908,-417.007 326,-429.5 332.5463,-433.5873 339.7982,-437.0382 347.2149,-439.9442"/>
<polygon fill="#191970" stroke="#191970" points="279.5036,-381.0594 268.9189,-380.5967 276.9048,-387.5591 279.5036,-381.0594"/>
</g>
<!-- Node26&#45;&gt;Node11 -->
<g id="edge52" class="edge">
<title>Node26&#45;&gt;Node11</title>
<path fill="none" stroke="#191970" d="M281.4315,-382.6469C307.2404,-388.0585 337.271,-394.3552 361.7627,-399.4906"/>
<polygon fill="#191970" stroke="#191970" points="281.9051,-379.1702 271.3996,-380.5435 280.4685,-386.0212 281.9051,-379.1702"/>
</g>
<!-- Node26&#45;&gt;Node12 -->
<g id="edge53" class="edge">
<title>Node26&#45;&gt;Node12</title>
<path fill="none" stroke="#191970" d="M288.1435,-370.5C307.8132,-370.5 329.3542,-370.5 348.757,-370.5"/>
<polygon fill="#191970" stroke="#191970" points="288.0494,-367.0001 278.0494,-370.5 288.0493,-374.0001 288.0494,-367.0001"/>
</g>
<!-- Node26&#45;&gt;Node13 -->
<g id="edge54" class="edge">
<title>Node26&#45;&gt;Node13</title>
<path fill="none" stroke="#191970" d="M286.2998,-355.2854C287.6128,-354.1123 288.8509,-352.8526 290,-351.5 379.5185,-246.1298 237.7291,-148.9175 326,-42.5 332.0099,-35.2546 340.0064,-29.9937 348.6747,-26.181"/>
<polygon fill="#191970" stroke="#191970" points="284.2121,-352.4749 278.0592,-361.1 288.2478,-358.1944 284.2121,-352.4749"/>
</g>
<!-- Node26&#45;&gt;Node14 -->
<g id="edge55" class="edge">
<title>Node26&#45;&gt;Node14</title>
<path fill="none" stroke="#191970" d="M275.0925,-358.0179C297.9561,-352.4864 325.0152,-345.9399 348.8399,-340.1758"/>
<polygon fill="#191970" stroke="#191970" points="274.1386,-354.6477 265.242,-360.4011 275.7847,-361.4514 274.1386,-354.6477"/>
</g>
<!-- Node26&#45;&gt;Node15 -->
<g id="edge56" class="edge">
<title>Node26&#45;&gt;Node15</title>
<path fill="none" stroke="#191970" d="M282.4446,-356.144C285.0782,-354.7375 287.6133,-353.1939 290,-351.5 312.6257,-335.4422 303.565,-316.8233 326,-300.5 332.8753,-295.4977 340.7382,-291.4397 348.8277,-288.1524"/>
<polygon fill="#191970" stroke="#191970" points="280.797,-353.0496 273.1835,-360.4174 283.7299,-359.4055 280.797,-353.0496"/>
</g>
<!-- Node26&#45;&gt;Node16 -->
<g id="edge57" class="edge">
<title>Node26&#45;&gt;Node16</title>
<path fill="none" stroke="#191970" d="M285.8179,-354.9963C287.2787,-353.9081 288.6773,-352.7444 290,-351.5 325.0142,-318.5589 291.3763,-282.8513 326,-249.5 332.4517,-243.2854 340.3647,-238.5543 348.7228,-234.9531"/>
<polygon fill="#191970" stroke="#191970" points="283.592,-352.2534 276.8653,-360.4388 287.2283,-358.2348 283.592,-352.2534"/>
</g>
<!-- Node26&#45;&gt;Node17 -->
<g id="edge58" class="edge">
<title>Node26&#45;&gt;Node17</title>
<path fill="none" stroke="#191970" d="M286.6423,-354.6517C287.816,-353.6626 288.9382,-352.6132 290,-351.5 338.2167,-300.9515 276.7026,-247.9951 326,-198.5 330.9441,-193.536 336.8873,-189.7207 343.2961,-186.7994"/>
<polygon fill="#191970" stroke="#191970" points="284.5557,-351.8376 278.2392,-360.3437 288.4815,-357.6332 284.5557,-351.8376"/>
</g>
<!-- Node26&#45;&gt;Node18 -->
<g id="edge59" class="edge">
<title>Node26&#45;&gt;Node18</title>
<path fill="none" stroke="#191970" d="M286.6275,-354.7903C287.8113,-353.7603 288.9386,-352.6649 290,-351.5 348.4728,-287.3228 266.1545,-222.3991 326,-159.5 340.1797,-144.5968 363.336,-139.9494 381.6706,-138.8314"/>
<polygon fill="#191970" stroke="#191970" points="284.337,-352.1186 278.0973,-360.6812 288.3148,-357.8786 284.337,-352.1186"/>
</g>
<!-- Node26&#45;&gt;Node19 -->
<g id="edge60" class="edge">
<title>Node26&#45;&gt;Node19</title>
<path fill="none" stroke="#191970" d="M286.6762,-354.834C287.8455,-353.791 288.9567,-352.6811 290,-351.5 358.7908,-273.6265 255.5431,-196.8693 326,-120.5 339.3424,-106.038 361.1256,-101.1725 379.0976,-99.8522"/>
<polygon fill="#191970" stroke="#191970" points="284.3795,-352.1705 278.2183,-360.7897 288.4097,-357.894 284.3795,-352.1705"/>
</g>
<!-- Node27&#45;&gt;Node3 -->
<g id="edge62" class="edge">
<title>Node27&#45;&gt;Node3</title>
<path fill="none" stroke="#191970" d="M287.1737,-315.3829C288.1616,-314.4725 289.1057,-313.5124 290,-312.5 358.7908,-234.6265 255.5431,-157.8693 326,-81.5 332.9745,-73.9403 342.2553,-69.0028 352.0925,-65.8232"/>
<polygon fill="#191970" stroke="#191970" points="284.8781,-312.7245 278.8457,-321.4344 288.993,-318.3874 284.8781,-312.7245"/>
</g>
<!-- Node27&#45;&gt;Node5 -->
<g id="edge63" class="edge">
<title>Node27&#45;&gt;Node5</title>
<path fill="none" stroke="#191970" d="M285.6382,-347.2663C287.1895,-348.5694 288.6502,-349.9778 290,-351.5 351.9536,-421.3695 261.6932,-490.7901 326,-558.5 329.9929,-562.7042 334.7071,-566.0684 339.8303,-568.751"/>
<polygon fill="#191970" stroke="#191970" points="287.4703,-344.2803 277.2225,-341.5905 283.5562,-350.0838 287.4703,-344.2803"/>
</g>
<!-- Node27&#45;&gt;Node6 -->
<g id="edge64" class="edge">
<title>Node27&#45;&gt;Node6</title>
<path fill="none" stroke="#191970" d="M285.4564,-347.2504C287.0685,-348.5574 288.5902,-349.9711 290,-351.5 341.7639,-407.6392 272.3465,-465.1639 326,-519.5 329.4472,-522.991 333.3931,-525.8977 337.652,-528.3128"/>
<polygon fill="#191970" stroke="#191970" points="287.0287,-344.0972 276.7411,-341.5642 283.2037,-349.9598 287.0287,-344.0972"/>
</g>
<!-- Node27&#45;&gt;Node7 -->
<g id="edge65" class="edge">
<title>Node27&#45;&gt;Node7</title>
<path fill="none" stroke="#191970" d="M286.2031,-347.6013C287.5516,-348.8104 288.8223,-350.1079 290,-351.5 372.4591,-448.9728 243.4805,-539.0783 326,-636.5 329.9122,-641.1187 334.6404,-644.9044 339.8341,-648.0047"/>
<polygon fill="#191970" stroke="#191970" points="287.9158,-344.5253 277.7332,-341.5986 283.8682,-350.2365 287.9158,-344.5253"/>
</g>
<!-- Node27&#45;&gt;Node8 -->
<g id="edge66" class="edge">
<title>Node27&#45;&gt;Node8</title>
<path fill="none" stroke="#191970" d="M286.1669,-347.6323C287.526,-348.8323 288.8087,-350.1195 290,-351.5 362.192,-435.1546 250.9893,-516.3632 326,-597.5 329.2296,-600.9933 332.9564,-603.9102 337.0058,-606.3401"/>
<polygon fill="#191970" stroke="#191970" points="287.8504,-344.5383 277.6516,-341.6683 283.8346,-350.2719 287.8504,-344.5383"/>
</g>
<!-- Node27&#45;&gt;Node9 -->
<g id="edge67" class="edge">
<title>Node27&#45;&gt;Node9</title>
<path fill="none" stroke="#191970" d="M284.8055,-346.9593C286.6477,-348.3461 288.3886,-349.8561 290,-351.5 331.6668,-394.0086 282.9038,-439.4412 326,-480.5 332.0278,-486.2429 339.4141,-490.3824 347.276,-493.3453"/>
<polygon fill="#191970" stroke="#191970" points="286.5166,-343.9025 276.1675,-341.6338 282.843,-349.8611 286.5166,-343.9025"/>
</g>
<!-- Node27&#45;&gt;Node10 -->
<g id="edge68" class="edge">
<title>Node27&#45;&gt;Node10</title>
<path fill="none" stroke="#191970" d="M282.8579,-346.2575C285.3827,-347.8312 287.7816,-349.5728 290,-351.5 318.8234,-376.5397 297.1611,-404.4781 326,-429.5 332.1721,-434.8552 339.4556,-439.0635 347.1071,-442.3705"/>
<polygon fill="#191970" stroke="#191970" points="284.347,-343.0861 273.8675,-341.5273 281.0876,-349.281 284.347,-343.0861"/>
</g>
<!-- Node27&#45;&gt;Node11 -->
<g id="edge69" class="edge">
<title>Node27&#45;&gt;Node11</title>
<path fill="none" stroke="#191970" d="M278.4628,-345.4126C282.4835,-347.214 286.3774,-349.2351 290,-351.5 310.0015,-364.0054 305.5826,-378.6859 326,-390.5 332.3054,-394.1485 339.2561,-397.0964 346.3742,-399.4782"/>
<polygon fill="#191970" stroke="#191970" points="279.5036,-342.0594 268.9189,-341.5967 276.9048,-348.5591 279.5036,-342.0594"/>
</g>
<!-- Node27&#45;&gt;Node12 -->
<g id="edge70" class="edge">
<title>Node27&#45;&gt;Node12</title>
<path fill="none" stroke="#191970" d="M281.4315,-343.6469C307.2404,-349.0585 337.271,-355.3552 361.7627,-360.4906"/>
<polygon fill="#191970" stroke="#191970" points="281.9051,-340.1702 271.3996,-341.5435 280.4685,-347.0212 281.9051,-340.1702"/>
</g>
<!-- Node27&#45;&gt;Node13 -->
<g id="edge71" class="edge">
<title>Node27&#45;&gt;Node13</title>
<path fill="none" stroke="#191970" d="M287.2778,-315.3408C288.2297,-314.4427 289.139,-313.4966 290,-312.5 369.1438,-220.8907 247.941,-135.0353 326,-42.5 332.0697,-35.3047 340.097,-30.0696 348.7778,-26.2672"/>
<polygon fill="#191970" stroke="#191970" points="285.1703,-312.5463 279.2412,-321.3268 289.3518,-318.1602 285.1703,-312.5463"/>
</g>
<!-- Node27&#45;&gt;Node14 -->
<g id="edge72" class="edge">
<title>Node27&#45;&gt;Node14</title>
<path fill="none" stroke="#191970" d="M289.2942,-329.3776C308.6362,-328.7537 329.6999,-328.0742 348.7138,-327.4608"/>
<polygon fill="#191970" stroke="#191970" points="288.9361,-325.8872 279.0542,-329.7079 289.1619,-332.8836 288.9361,-325.8872"/>
</g>
<!-- Node27&#45;&gt;Node15 -->
<g id="edge73" class="edge">
<title>Node27&#45;&gt;Node15</title>
<path fill="none" stroke="#191970" d="M269.6859,-318.5846C276.5116,-316.5946 283.4491,-314.5266 290,-312.5 306.1121,-307.5155 309.9478,-305.674 326,-300.5 336.1156,-297.2395 346.9424,-293.8182 357.3351,-290.5677"/>
<polygon fill="#191970" stroke="#191970" points="268.4611,-315.2951 259.8236,-321.4305 270.402,-322.0207 268.4611,-315.2951"/>
</g>
<!-- Node27&#45;&gt;Node16 -->
<g id="edge74" class="edge">
<title>Node27&#45;&gt;Node16</title>
<path fill="none" stroke="#191970" d="M283.5775,-316.8776C285.8217,-315.5438 287.9744,-314.0883 290,-312.5 315.3778,-292.6011 300.8584,-269.6965 326,-249.5 332.747,-244.0801 340.629,-239.7847 348.8062,-236.3819"/>
<polygon fill="#191970" stroke="#191970" points="281.8894,-313.8091 274.5423,-321.4426 285.0461,-320.0569 281.8894,-313.8091"/>
</g>
<!-- Node27&#45;&gt;Node17 -->
<g id="edge75" class="edge">
<title>Node27&#45;&gt;Node17</title>
<path fill="none" stroke="#191970" d="M285.972,-315.979C287.3809,-314.8955 288.7278,-313.7376 290,-312.5 328.0852,-275.451 287.1234,-234.7177 326,-198.5 331.0172,-193.826 336.9273,-190.1859 343.2475,-187.3592"/>
<polygon fill="#191970" stroke="#191970" points="283.9299,-313.1283 277.3157,-321.405 287.6476,-319.0594 283.9299,-313.1283"/>
</g>
<!-- Node27&#45;&gt;Node18 -->
<g id="edge76" class="edge">
<title>Node27&#45;&gt;Node18</title>
<path fill="none" stroke="#191970" d="M286.6423,-315.6517C287.816,-314.6626 288.9382,-313.6132 290,-312.5 338.2167,-261.9515 276.7026,-208.9951 326,-159.5 340.5168,-144.925 363.6468,-140.2519 381.8855,-139.0405"/>
<polygon fill="#191970" stroke="#191970" points="284.5557,-312.8376 278.2392,-321.3437 288.4815,-318.6332 284.5557,-312.8376"/>
</g>
<!-- Node27&#45;&gt;Node19 -->
<g id="edge77" class="edge">
<title>Node27&#45;&gt;Node19</title>
<path fill="none" stroke="#191970" d="M287.1314,-315.3449C288.132,-314.4459 289.0902,-313.4985 290,-312.5 348.4728,-248.3228 266.1545,-183.3991 326,-120.5 339.5632,-106.2448 361.3394,-101.3729 379.2529,-99.9978"/>
<polygon fill="#191970" stroke="#191970" points="284.8436,-312.6772 278.7283,-321.329 288.9042,-318.3792 284.8436,-312.6772"/>
</g>
</g>
</svg>
