<?xml version="1.0" encoding="UTF-8" standalone="no"?>
<!DOCTYPE svg PUBLIC "-//W3C//DTD SVG 1.1//EN"
 "http://www.w3.org/Graphics/SVG/1.1/DTD/svg11.dtd">
<!-- Generated by graphviz version 2.40.1 (20161225.0304)
 -->
<!-- Title: RawTowerCalibration::set_calib_const_GeV_ADC Pages: 1 -->
<svg width="602pt" height="686pt"
 viewBox="0.00 0.00 602.00 686.00" xmlns="http://www.w3.org/2000/svg" xmlns:xlink="http://www.w3.org/1999/xlink">
<g id="graph0" class="graph" transform="scale(1 1) rotate(0) translate(4 682)">
<title>RawTowerCalibration::set_calib_const_GeV_ADC</title>
<!-- Node1 -->
<g id="node1" class="node">
<title>Node1</title>
<polygon fill="#bfbfbf" stroke="#000000" points="0,-354.5 0,-386.5 152,-386.5 152,-354.5 0,-354.5"/>
<text text-anchor="start" x="8" y="-373.5" font-family="FreeSans" font-size="10.00" fill="#000000">RawTowerCalibration</text>
<text text-anchor="middle" x="76" y="-361.5" font-family="FreeSans" font-size="10.00" fill="#000000">::set_calib_const_GeV_ADC</text>
</g>
<!-- Node2 -->
<g id="node2" class="node">
<title>Node2</title>
<g id="a_node2"><a xlink:href="../../d8/d4c/G4__CEmc__EIC_8C.html#a46a52c955e8d2078c58d4d7db471cc43" target="_top" xlink:title="CEMC_Towers">
<polygon fill="none" stroke="#000000" points="212,-399.5 212,-419.5 297,-419.5 297,-399.5 212,-399.5"/>
<text text-anchor="middle" x="254.5" y="-406.5" font-family="FreeSans" font-size="10.00" fill="#000000">CEMC_Towers</text>
</a>
</g>
</g>
<!-- Node1&#45;&gt;Node2 -->
<g id="edge1" class="edge">
<title>Node1&#45;&gt;Node2</title>
<path fill="none" stroke="#191970" d="M159.1564,-388.6686C177.3913,-392.6527 195.967,-396.7113 211.8197,-400.1749"/>
<polygon fill="#191970" stroke="#191970" points="159.8922,-385.2469 149.3755,-386.5316 158.3979,-392.0856 159.8922,-385.2469"/>
</g>
<!-- Node20 -->
<g id="node20" class="node">
<title>Node20</title>
<g id="a_node20"><a xlink:href="../../d1/d81/macros_2blob_2master_2macros_2g4simulations_2G4__EEMC_8C.html#a05b9b10b79cc47702702e091692fd060" target="_top" xlink:title="EEMC_Towers">
<polygon fill="none" stroke="#000000" points="212.5,-567.5 212.5,-587.5 296.5,-587.5 296.5,-567.5 212.5,-567.5"/>
<text text-anchor="middle" x="254.5" y="-574.5" font-family="FreeSans" font-size="10.00" fill="#000000">EEMC_Towers</text>
</a>
</g>
</g>
<!-- Node1&#45;&gt;Node20 -->
<g id="edge19" class="edge">
<title>Node1&#45;&gt;Node20</title>
<path fill="none" stroke="#191970" d="M84.3432,-396.3365C98.8162,-437.0184 132.4667,-515.7635 188,-558.5 195.1367,-563.9922 203.7995,-567.897 212.4816,-570.6733"/>
<polygon fill="#191970" stroke="#191970" points="87.5645,-394.9411 80.9979,-386.6267 80.9463,-397.2214 87.5645,-394.9411"/>
</g>
<!-- Node21 -->
<g id="node21" class="node">
<title>Node21</title>
<g id="a_node21"><a xlink:href="../../d6/d5c/macros_2blob_2master_2macros_2g4simulations_2G4__FEMC_8C.html#af68dc9104b4ad645db845e957df9863e" target="_top" xlink:title="FEMC_Towers">
<polygon fill="none" stroke="#000000" points="212.5,-489.5 212.5,-509.5 296.5,-509.5 296.5,-489.5 212.5,-489.5"/>
<text text-anchor="middle" x="254.5" y="-496.5" font-family="FreeSans" font-size="10.00" fill="#000000">FEMC_Towers</text>
</a>
</g>
</g>
<!-- Node1&#45;&gt;Node21 -->
<g id="edge24" class="edge">
<title>Node1&#45;&gt;Node21</title>
<path fill="none" stroke="#191970" d="M106.6074,-392.6196C145.6069,-420.8042 211.4091,-468.3587 240.2424,-489.1962"/>
<polygon fill="#191970" stroke="#191970" points="108.4014,-389.5978 98.2462,-386.5771 104.3011,-395.2713 108.4014,-389.5978"/>
</g>
<!-- Node22 -->
<g id="node22" class="node">
<title>Node22</title>
<g id="a_node22"><a xlink:href="../../d9/d50/macros_2blob_2master_2macros_2g4simulations_2G4__FHCAL_8C.html#a5d0a471f02bc3f2081650a15db56784e" target="_top" xlink:title="FHCAL_Towers">
<polygon fill="none" stroke="#000000" points="210,-528.5 210,-548.5 299,-548.5 299,-528.5 210,-528.5"/>
<text text-anchor="middle" x="254.5" y="-535.5" font-family="FreeSans" font-size="10.00" fill="#000000">FHCAL_Towers</text>
</a>
</g>
</g>
<!-- Node1&#45;&gt;Node22 -->
<g id="edge33" class="edge">
<title>Node1&#45;&gt;Node22</title>
<path fill="none" stroke="#191970" d="M88.3278,-395.7984C105.8649,-429.1333 141.156,-487.2966 188,-519.5 194.5304,-523.9894 202.1136,-527.4268 209.7728,-530.0563"/>
<polygon fill="#191970" stroke="#191970" points="91.339,-394.0003 83.6593,-386.7014 85.1112,-397.1963 91.339,-394.0003"/>
</g>
<!-- Node23 -->
<g id="node23" class="node">
<title>Node23</title>
<g id="a_node23"><a xlink:href="../../dc/d8e/Fun4All__G4__Prototype2_8C.html#a6b8f092c4f51be2938dd09c810ba6226" target="_top" xlink:title="Fun4All_G4_Prototype2">
<polygon fill="none" stroke="#000000" points="188,-282.5 188,-302.5 321,-302.5 321,-282.5 188,-282.5"/>
<text text-anchor="middle" x="254.5" y="-289.5" font-family="FreeSans" font-size="10.00" fill="#000000">Fun4All_G4_Prototype2</text>
</a>
</g>
</g>
<!-- Node1&#45;&gt;Node23 -->
<g id="edge41" class="edge">
<title>Node1&#45;&gt;Node23</title>
<path fill="none" stroke="#191970" d="M112.203,-349.5681C133.7499,-337.6677 161.8965,-323.0774 188,-312.5 197.1623,-308.7874 207.2779,-305.4011 216.796,-302.5131"/>
<polygon fill="#191970" stroke="#191970" points="110.423,-346.5533 103.3978,-354.4841 113.8354,-352.6653 110.423,-346.5533"/>
</g>
<!-- Node24 -->
<g id="node24" class="node">
<title>Node24</title>
<g id="a_node24"><a xlink:href="../../d7/d40/Fun4All__G4__Prototype3_8C.html#a1201361263017b08a070777a0b90b27c" target="_top" xlink:title="Fun4All_G4_Prototype3">
<polygon fill="none" stroke="#000000" points="188,-243.5 188,-263.5 321,-263.5 321,-243.5 188,-243.5"/>
<text text-anchor="middle" x="254.5" y="-250.5" font-family="FreeSans" font-size="10.00" fill="#000000">Fun4All_G4_Prototype3</text>
</a>
</g>
</g>
<!-- Node1&#45;&gt;Node24 -->
<g id="edge42" class="edge">
<title>Node1&#45;&gt;Node24</title>
<path fill="none" stroke="#191970" d="M97.2431,-347.1168C118.3177,-325.2178 152.5171,-293.0204 188,-273.5 195.2885,-269.4903 203.4791,-266.1892 211.5559,-263.5059"/>
<polygon fill="#191970" stroke="#191970" points="94.6865,-344.7264 90.3555,-354.3956 99.771,-349.5376 94.6865,-344.7264"/>
</g>
<!-- Node25 -->
<g id="node25" class="node">
<title>Node25</title>
<g id="a_node25"><a xlink:href="../../d4/d58/Fun4All__G4__Prototype4_8C.html#acac517f0728af658cbf99c7c9687c908" target="_top" xlink:title="Fun4All_G4_Prototype4">
<polygon fill="none" stroke="#000000" points="188,-204.5 188,-224.5 321,-224.5 321,-204.5 188,-204.5"/>
<text text-anchor="middle" x="254.5" y="-211.5" font-family="FreeSans" font-size="10.00" fill="#000000">Fun4All_G4_Prototype4</text>
</a>
</g>
</g>
<!-- Node1&#45;&gt;Node25 -->
<g id="edge43" class="edge">
<title>Node1&#45;&gt;Node25</title>
<path fill="none" stroke="#191970" d="M90.0533,-345.6933C108.6183,-315.1272 144.1493,-263.6709 188,-234.5 194.1231,-230.4267 201.1038,-227.1591 208.1859,-224.5444"/>
<polygon fill="#191970" stroke="#191970" points="86.9434,-344.0756 84.8461,-354.4608 92.9619,-347.6502 86.9434,-344.0756"/>
</g>
<!-- Node26 -->
<g id="node26" class="node">
<title>Node26</title>
<g id="a_node26"><a xlink:href="../../d7/dc0/G4__HcalIn__EIC_8C.html#a4552e4b1c6ffcc08cba2296b2c45f950" target="_top" xlink:title="HCALInner_Towers">
<polygon fill="none" stroke="#000000" points="200,-360.5 200,-380.5 309,-380.5 309,-360.5 200,-360.5"/>
<text text-anchor="middle" x="254.5" y="-367.5" font-family="FreeSans" font-size="10.00" fill="#000000">HCALInner_Towers</text>
</a>
</g>
</g>
<!-- Node1&#45;&gt;Node26 -->
<g id="edge44" class="edge">
<title>Node1&#45;&gt;Node26</title>
<path fill="none" stroke="#191970" d="M162.4081,-370.5C175.1601,-370.5 187.9895,-370.5 199.8536,-370.5"/>
<polygon fill="#191970" stroke="#191970" points="162.2179,-367.0001 152.2178,-370.5 162.2178,-374.0001 162.2179,-367.0001"/>
</g>
<!-- Node27 -->
<g id="node27" class="node">
<title>Node27</title>
<g id="a_node27"><a xlink:href="../../de/d3d/macros_2blob_2master_2macros_2g4simulations_2G4__HcalOut__ref_8C.html#a4fd9d72ad1e04ebc46273f3b9fff91d6" target="_top" xlink:title="HCALOuter_Towers">
<polygon fill="none" stroke="#000000" points="199,-321.5 199,-341.5 310,-341.5 310,-321.5 199,-321.5"/>
<text text-anchor="middle" x="254.5" y="-328.5" font-family="FreeSans" font-size="10.00" fill="#000000">HCALOuter_Towers</text>
</a>
</g>
</g>
<!-- Node1&#45;&gt;Node27 -->
<g id="edge61" class="edge">
<title>Node1&#45;&gt;Node27</title>
<path fill="none" stroke="#191970" d="M159.2899,-352.3022C176.2164,-348.604 193.4301,-344.843 208.4811,-341.5546"/>
<polygon fill="#191970" stroke="#191970" points="158.3979,-348.9144 149.3755,-354.4684 159.8922,-355.7531 158.3979,-348.9144"/>
</g>
<!-- Node3 -->
<g id="node3" class="node">
<title>Node3</title>
<g id="a_node3"><a xlink:href="../../d3/d7f/Fun_8C.html#af0d3c8a78765149fef9b2beeecfc6279" target="_top" xlink:title="ConfigureDetectors">
<polygon fill="none" stroke="#000000" points="383.5,-51.5 383.5,-71.5 497.5,-71.5 497.5,-51.5 383.5,-51.5"/>
<text text-anchor="middle" x="440.5" y="-58.5" font-family="FreeSans" font-size="10.00" fill="#000000">ConfigureDetectors</text>
</a>
</g>
</g>
<!-- Node2&#45;&gt;Node3 -->
<g id="edge2" class="edge">
<title>Node2&#45;&gt;Node3</title>
<path fill="none" stroke="#191970" d="M306.633,-401.3772C312.0878,-398.6737 317.0656,-395.1311 321,-390.5 410.5185,-285.1298 265.2262,-184.9119 357,-81.5 363.9261,-73.6955 373.3077,-68.6638 383.284,-65.4719"/>
<polygon fill="#191970" stroke="#191970" points="305.094,-398.2228 297.1024,-405.1788 307.6875,-404.7247 305.094,-398.2228"/>
</g>
<!-- Node5 -->
<g id="node5" class="node">
<title>Node5</title>
<g id="a_node5"><a xlink:href="../../da/d02/Fun4All__G4__EICDetector_8C.html#afbe82cefa1d1fd031d9a8586b7bb68c6" target="_top" xlink:title="Fun4All_G4_EICDetector">
<polygon fill="none" stroke="#000000" points="371,-567.5 371,-587.5 510,-587.5 510,-567.5 371,-567.5"/>
<text text-anchor="middle" x="440.5" y="-574.5" font-family="FreeSans" font-size="10.00" fill="#000000">Fun4All_G4_EICDetector</text>
</a>
</g>
</g>
<!-- Node2&#45;&gt;Node5 -->
<g id="edge4" class="edge">
<title>Node2&#45;&gt;Node5</title>
<path fill="none" stroke="#191970" d="M273.4142,-426.4769C287.7722,-440.0715 307.3119,-460.1686 321,-480.5 342.323,-512.1719 327.3371,-534.4606 357,-558.5 361.3891,-562.057 366.315,-564.9767 371.5217,-567.3699"/>
<polygon fill="#191970" stroke="#191970" points="275.7513,-423.8708 266.0408,-419.6332 270.9892,-429.0014 275.7513,-423.8708"/>
</g>
<!-- Node6 -->
<g id="node6" class="node">
<title>Node6</title>
<g id="a_node6"><a xlink:href="../../dd/d2a/Fun4All__G4__EICDetector__LQ_8C.html#aaa01242fd6e77ca43a9d49a6d46008e4" target="_top" xlink:title="Fun4All_G4_EICDetector_LQ">
<polygon fill="none" stroke="#000000" points="362.5,-528.5 362.5,-548.5 518.5,-548.5 518.5,-528.5 362.5,-528.5"/>
<text text-anchor="middle" x="440.5" y="-535.5" font-family="FreeSans" font-size="10.00" fill="#000000">Fun4All_G4_EICDetector_LQ</text>
</a>
</g>
</g>
<!-- Node2&#45;&gt;Node6 -->
<g id="edge5" class="edge">
<title>Node2&#45;&gt;Node6</title>
<path fill="none" stroke="#191970" d="M271.1724,-427.2289C284.6441,-441.5716 304.0802,-462.3032 321,-480.5 337.0628,-497.7751 336.5826,-507.6859 357,-519.5 363.3054,-523.1485 370.2561,-526.0964 377.3742,-528.4782"/>
<polygon fill="#191970" stroke="#191970" points="273.3924,-424.4804 263.9937,-419.5899 268.2913,-429.274 273.3924,-424.4804"/>
</g>
<!-- Node7 -->
<g id="node7" class="node">
<title>Node7</title>
<g id="a_node7"><a xlink:href="../../d4/df5/Fun4All__G4__EICDetector__LQ__reference_8C.html#a2feefc472f17f90b3cbe74897d049f75" target="_top" xlink:title="Fun4All_G4_EICDetector\l_LQ_reference">
<polygon fill="none" stroke="#000000" points="371,-645.5 371,-677.5 510,-677.5 510,-645.5 371,-645.5"/>
<text text-anchor="start" x="379" y="-664.5" font-family="FreeSans" font-size="10.00" fill="#000000">Fun4All_G4_EICDetector</text>
<text text-anchor="middle" x="440.5" y="-652.5" font-family="FreeSans" font-size="10.00" fill="#000000">_LQ_reference</text>
</a>
</g>
</g>
<!-- Node2&#45;&gt;Node7 -->
<g id="edge6" class="edge">
<title>Node2&#45;&gt;Node7</title>
<path fill="none" stroke="#191970" d="M275.1547,-426.21C290.1021,-439.4112 309.6047,-459.1227 321,-480.5 354.4714,-543.2916 308.3238,-584.5988 357,-636.5 361.0372,-640.8047 365.7822,-644.378 370.9257,-647.3428"/>
<polygon fill="#191970" stroke="#191970" points="277.2739,-423.417 267.3996,-419.5766 272.7238,-428.7365 277.2739,-423.417"/>
</g>
<!-- Node8 -->
<g id="node8" class="node">
<title>Node8</title>
<g id="a_node8"><a xlink:href="../../d3/d51/Fun4All__G4__EICDetector__RICH_8C.html#a5739502b0a7a1ba782c01069f77e933f" target="_top" xlink:title="Fun4All_G4_EICDetector_RICH">
<polygon fill="none" stroke="#000000" points="357,-606.5 357,-626.5 524,-626.5 524,-606.5 357,-606.5"/>
<text text-anchor="middle" x="440.5" y="-613.5" font-family="FreeSans" font-size="10.00" fill="#000000">Fun4All_G4_EICDetector_RICH</text>
</a>
</g>
</g>
<!-- Node2&#45;&gt;Node8 -->
<g id="edge7" class="edge">
<title>Node2&#45;&gt;Node8</title>
<path fill="none" stroke="#191970" d="M274.4553,-426.2204C289.2061,-439.55 308.7743,-459.4216 321,-480.5 348.2967,-527.5626 317.1183,-560.4939 357,-597.5 360.8144,-601.0393 365.1465,-603.966 369.7836,-606.3814"/>
<polygon fill="#191970" stroke="#191970" points="276.6552,-423.4942 266.8332,-419.5219 272.0343,-428.7523 276.6552,-423.4942"/>
</g>
<!-- Node9 -->
<g id="node9" class="node">
<title>Node9</title>
<g id="a_node9"><a xlink:href="../../d7/d9e/Fun4All__G4__fsPHENIX_8C.html#af48911d394d2412e817583700f2bbee2" target="_top" xlink:title="Fun4All_G4_fsPHENIX">
<polygon fill="none" stroke="#000000" points="378.5,-489.5 378.5,-509.5 502.5,-509.5 502.5,-489.5 378.5,-489.5"/>
<text text-anchor="middle" x="440.5" y="-496.5" font-family="FreeSans" font-size="10.00" fill="#000000">Fun4All_G4_fsPHENIX</text>
</a>
</g>
</g>
<!-- Node2&#45;&gt;Node9 -->
<g id="edge8" class="edge">
<title>Node2&#45;&gt;Node9</title>
<path fill="none" stroke="#191970" d="M273.7762,-426.2563C293.4235,-442.4762 325.4179,-466.5941 357,-480.5 365.1639,-484.0947 374.0878,-487.048 382.9669,-489.4632"/>
<polygon fill="#191970" stroke="#191970" points="275.8111,-423.3943 265.9064,-419.6331 271.3038,-428.7501 275.8111,-423.3943"/>
</g>
<!-- Node10 -->
<g id="node10" class="node">
<title>Node10</title>
<g id="a_node10"><a xlink:href="../../da/d2f/Fun4All__G4__fsPHENIX__FastSim_8C.html#a66fb850cae5fcaadda23b74a25ce4c9c" target="_top" xlink:title="Fun4All_G4_fsPHENIX\l_FastSim">
<polygon fill="none" stroke="#000000" points="378.5,-438.5 378.5,-470.5 502.5,-470.5 502.5,-438.5 378.5,-438.5"/>
<text text-anchor="start" x="386.5" y="-457.5" font-family="FreeSans" font-size="10.00" fill="#000000">Fun4All_G4_fsPHENIX</text>
<text text-anchor="middle" x="440.5" y="-445.5" font-family="FreeSans" font-size="10.00" fill="#000000">_FastSim</text>
</a>
</g>
</g>
<!-- Node2&#45;&gt;Node10 -->
<g id="edge9" class="edge">
<title>Node2&#45;&gt;Node10</title>
<path fill="none" stroke="#191970" d="M306.2183,-422.0125C328.5985,-427.4271 354.9803,-433.8098 378.4092,-439.478"/>
<polygon fill="#191970" stroke="#191970" points="306.7847,-418.5486 296.242,-419.5989 305.1386,-425.3523 306.7847,-418.5486"/>
</g>
<!-- Node11 -->
<g id="node11" class="node">
<title>Node11</title>
<g id="a_node11"><a xlink:href="../../d0/da6/Fun4All__G4__fsPHENIX__pi0_8C.html#a023d91d47b678e5d7f1751834aa517c6" target="_top" xlink:title="Fun4All_G4_fsPHENIX_pi0">
<polygon fill="none" stroke="#000000" points="368,-399.5 368,-419.5 513,-419.5 513,-399.5 368,-399.5"/>
<text text-anchor="middle" x="440.5" y="-406.5" font-family="FreeSans" font-size="10.00" fill="#000000">Fun4All_G4_fsPHENIX_pi0</text>
</a>
</g>
</g>
<!-- Node2&#45;&gt;Node11 -->
<g id="edge10" class="edge">
<title>Node2&#45;&gt;Node11</title>
<path fill="none" stroke="#191970" d="M307.306,-409.5C326.095,-409.5 347.5943,-409.5 367.7582,-409.5"/>
<polygon fill="#191970" stroke="#191970" points="307.1722,-406.0001 297.1722,-409.5 307.1721,-413.0001 307.1722,-406.0001"/>
</g>
<!-- Node12 -->
<g id="node12" class="node">
<title>Node12</title>
<g id="a_node12"><a xlink:href="../../d5/d2c/macros_2blob_2master_2macros_2g4simulations_2Fun4All__G4__sPHENIX_8C.html#a6eaaa492d7023ec86c562dc63aa1e5a4" target="_top" xlink:title="Fun4All_G4_sPHENIX">
<polygon fill="none" stroke="#000000" points="380,-360.5 380,-380.5 501,-380.5 501,-360.5 380,-360.5"/>
<text text-anchor="middle" x="440.5" y="-367.5" font-family="FreeSans" font-size="10.00" fill="#000000">Fun4All_G4_sPHENIX</text>
</a>
</g>
</g>
<!-- Node2&#45;&gt;Node12 -->
<g id="edge11" class="edge">
<title>Node2&#45;&gt;Node12</title>
<path fill="none" stroke="#191970" d="M307.1909,-398.4519C334.1104,-392.8075 366.6169,-385.9916 392.791,-380.5035"/>
<polygon fill="#191970" stroke="#191970" points="306.241,-395.0749 297.1722,-400.5526 307.6776,-401.9259 306.241,-395.0749"/>
</g>
<!-- Node13 -->
<g id="node13" class="node">
<title>Node13</title>
<g id="a_node13"><a xlink:href="../../d3/de2/Fun4All__G4__sPHENIX__AnaGenFit_8C.html#a9bf3f2f72ed69a17e2d0c1121d48013c" target="_top" xlink:title="Fun4All_G4_sPHENIX\l_AnaGenFit">
<polygon fill="none" stroke="#000000" points="380,-.5 380,-32.5 501,-32.5 501,-.5 380,-.5"/>
<text text-anchor="start" x="388" y="-19.5" font-family="FreeSans" font-size="10.00" fill="#000000">Fun4All_G4_sPHENIX</text>
<text text-anchor="middle" x="440.5" y="-7.5" font-family="FreeSans" font-size="10.00" fill="#000000">_AnaGenFit</text>
</a>
</g>
</g>
<!-- Node2&#45;&gt;Node13 -->
<g id="edge12" class="edge">
<title>Node2&#45;&gt;Node13</title>
<path fill="none" stroke="#191970" d="M306.6908,-401.426C312.1359,-398.7143 317.0955,-395.1564 321,-390.5 420.9076,-271.3519 258.503,-162.8168 357,-42.5 362.963,-35.216 370.9353,-29.9352 379.594,-26.1145"/>
<polygon fill="#191970" stroke="#191970" points="305.1538,-398.2711 297.1695,-405.2354 307.7541,-404.7703 305.1538,-398.2711"/>
</g>
<!-- Node14 -->
<g id="node14" class="node">
<title>Node14</title>
<g id="a_node14"><a xlink:href="../../da/dd0/Fun4All__G4__sPHENIX__photonjet_8C.html#a6f18519e216acc05399e562ea57ea77c" target="_top" xlink:title="Fun4All_G4_sPHENIX\l_photonjet">
<polygon fill="none" stroke="#000000" points="380,-309.5 380,-341.5 501,-341.5 501,-309.5 380,-309.5"/>
<text text-anchor="start" x="388" y="-328.5" font-family="FreeSans" font-size="10.00" fill="#000000">Fun4All_G4_sPHENIX</text>
<text text-anchor="middle" x="440.5" y="-316.5" font-family="FreeSans" font-size="10.00" fill="#000000">_photonjet</text>
</a>
</g>
</g>
<!-- Node2&#45;&gt;Node14 -->
<g id="edge13" class="edge">
<title>Node2&#45;&gt;Node14</title>
<path fill="none" stroke="#191970" d="M306.7791,-397.5868C311.7482,-395.5691 316.5762,-393.2235 321,-390.5 341.0876,-378.1333 337.0595,-364.1024 357,-351.5 364.059,-347.0387 371.9391,-343.2942 379.9615,-340.1645"/>
<polygon fill="#191970" stroke="#191970" points="305.3348,-394.387 297.1182,-401.0758 307.7126,-400.9708 305.3348,-394.387"/>
</g>
<!-- Node15 -->
<g id="node15" class="node">
<title>Node15</title>
<g id="a_node15"><a xlink:href="../../da/d85/Fun4All__G4__sPHENIX__photons_8C.html#a02fbbd59878fe1299f58ed187e7214ba" target="_top" xlink:title="Fun4All_G4_sPHENIX\l_photons">
<polygon fill="none" stroke="#000000" points="380,-258.5 380,-290.5 501,-290.5 501,-258.5 380,-258.5"/>
<text text-anchor="start" x="388" y="-277.5" font-family="FreeSans" font-size="10.00" fill="#000000">Fun4All_G4_sPHENIX</text>
<text text-anchor="middle" x="440.5" y="-265.5" font-family="FreeSans" font-size="10.00" fill="#000000">_photons</text>
</a>
</g>
</g>
<!-- Node2&#45;&gt;Node15 -->
<g id="edge14" class="edge">
<title>Node2&#45;&gt;Node15</title>
<path fill="none" stroke="#191970" d="M306.7637,-399.7278C311.9445,-397.2986 316.8221,-394.2713 321,-390.5 352.9794,-361.6328 325.3629,-329.742 357,-300.5 363.5784,-294.4197 371.5597,-289.761 379.9479,-286.1916"/>
<polygon fill="#191970" stroke="#191970" points="305.2242,-396.5722 297.1963,-403.4861 307.7836,-403.0875 305.2242,-396.5722"/>
</g>
<!-- Node16 -->
<g id="node16" class="node">
<title>Node16</title>
<g id="a_node16"><a xlink:href="../../de/d55/Fun4All__G4__sPHENIX__truthphotonjet_8C.html#a48a6f4503eaa1b3793d8ae572aa795b9" target="_top" xlink:title="Fun4All_G4_sPHENIX\l_truthphotonjet">
<polygon fill="none" stroke="#000000" points="380,-207.5 380,-239.5 501,-239.5 501,-207.5 380,-207.5"/>
<text text-anchor="start" x="388" y="-226.5" font-family="FreeSans" font-size="10.00" fill="#000000">Fun4All_G4_sPHENIX</text>
<text text-anchor="middle" x="440.5" y="-214.5" font-family="FreeSans" font-size="10.00" fill="#000000">_truthphotonjet</text>
</a>
</g>
</g>
<!-- Node2&#45;&gt;Node16 -->
<g id="edge15" class="edge">
<title>Node2&#45;&gt;Node16</title>
<path fill="none" stroke="#191970" d="M306.4723,-400.6485C311.8651,-398.0628 316.8716,-394.747 321,-390.5 366.0814,-344.1235 312.4681,-296.4044 357,-249.5 363.2724,-242.8935 371.1913,-237.9555 379.6405,-234.2669"/>
<polygon fill="#191970" stroke="#191970" points="305.1314,-397.4149 297.1185,-404.3463 307.7049,-403.9247 305.1314,-397.4149"/>
</g>
<!-- Node17 -->
<g id="node17" class="node">
<title>Node17</title>
<g id="a_node17"><a xlink:href="../../d4/d65/Fun4All__single__particle_8C.html#a8a492b5dbead494bfdddbebde8a49b0e" target="_top" xlink:title="Fun4All_single_particle">
<polygon fill="none" stroke="#000000" points="374.5,-168.5 374.5,-188.5 506.5,-188.5 506.5,-168.5 374.5,-168.5"/>
<text text-anchor="middle" x="440.5" y="-175.5" font-family="FreeSans" font-size="10.00" fill="#000000">Fun4All_single_particle</text>
</a>
</g>
</g>
<!-- Node2&#45;&gt;Node17 -->
<g id="edge16" class="edge">
<title>Node2&#45;&gt;Node17</title>
<path fill="none" stroke="#191970" d="M306.5363,-401.007C311.9622,-398.3626 316.9592,-394.935 321,-390.5 379.4728,-326.3228 297.1545,-261.3991 357,-198.5 361.9321,-193.3163 367.9502,-189.3733 374.4736,-186.3881"/>
<polygon fill="#191970" stroke="#191970" points="305.0949,-397.8135 297.0931,-404.7576 307.6788,-404.3192 305.0949,-397.8135"/>
</g>
<!-- Node18 -->
<g id="node18" class="node">
<title>Node18</title>
<g id="a_node18"><a xlink:href="../../d0/d99/Jin__BJet_8C.html#a36169bfee2ed7efda633944d12aebad9" target="_top" xlink:title="Jin_BJet">
<polygon fill="none" stroke="#000000" points="413,-129.5 413,-149.5 468,-149.5 468,-129.5 413,-129.5"/>
<text text-anchor="middle" x="440.5" y="-136.5" font-family="FreeSans" font-size="10.00" fill="#000000">Jin_BJet</text>
</a>
</g>
</g>
<!-- Node2&#45;&gt;Node18 -->
<g id="edge17" class="edge">
<title>Node2&#45;&gt;Node18</title>
<path fill="none" stroke="#191970" d="M306.6697,-401.1267C312.0727,-398.4617 317.0278,-394.9966 321,-390.5 389.7908,-312.6265 286.5431,-235.8693 357,-159.5 371.05,-144.271 394.4596,-139.6835 412.9228,-138.6711"/>
<polygon fill="#191970" stroke="#191970" points="305.2322,-397.9321 297.2485,-404.8971 307.8331,-404.431 305.2322,-397.9321"/>
</g>
<!-- Node19 -->
<g id="node19" class="node">
<title>Node19</title>
<g id="a_node19"><a xlink:href="../../dd/db1/Wrapper_8cxx.html#abf1e42281903daa0752c80dd6c879fac" target="_top" xlink:title="Wrapper">
<polygon fill="none" stroke="#000000" points="410.5,-90.5 410.5,-110.5 470.5,-110.5 470.5,-90.5 410.5,-90.5"/>
<text text-anchor="middle" x="440.5" y="-97.5" font-family="FreeSans" font-size="10.00" fill="#000000">Wrapper</text>
</a>
</g>
</g>
<!-- Node2&#45;&gt;Node19 -->
<g id="edge18" class="edge">
<title>Node2&#45;&gt;Node19</title>
<path fill="none" stroke="#191970" d="M306.5591,-401.3139C312.0265,-398.6211 317.0274,-395.0983 321,-390.5 400.1438,-298.8907 275.8957,-210.3783 357,-120.5 370.282,-105.7811 392.3009,-100.9578 410.3935,-99.7208"/>
<polygon fill="#191970" stroke="#191970" points="305.0177,-398.1602 297.0168,-405.1054 307.6025,-404.6655 305.0177,-398.1602"/>
</g>
<!-- Node4 -->
<g id="node4" class="node">
<title>Node4</title>
<g id="a_node4"><a xlink:href="../../d3/d7f/Fun_8C.html#af69a3eef3ff244bb51f5740c6ecb5432" target="_top" xlink:title="Fun">
<polygon fill="none" stroke="#000000" points="560,-51.5 560,-71.5 594,-71.5 594,-51.5 560,-51.5"/>
<text text-anchor="middle" x="577" y="-58.5" font-family="FreeSans" font-size="10.00" fill="#000000">Fun</text>
</a>
</g>
</g>
<!-- Node3&#45;&gt;Node4 -->
<g id="edge3" class="edge">
<title>Node3&#45;&gt;Node4</title>
<path fill="none" stroke="#191970" d="M507.6941,-61.5C527.0852,-61.5 546.59,-61.5 559.9452,-61.5"/>
<polygon fill="#191970" stroke="#191970" points="507.5974,-58.0001 497.5974,-61.5 507.5974,-65.0001 507.5974,-58.0001"/>
</g>
<!-- Node20&#45;&gt;Node5 -->
<g id="edge20" class="edge">
<title>Node20&#45;&gt;Node5</title>
<path fill="none" stroke="#191970" d="M306.775,-577.5C326.6148,-577.5 349.5361,-577.5 370.7361,-577.5"/>
<polygon fill="#191970" stroke="#191970" points="306.7063,-574.0001 296.7063,-577.5 306.7062,-581.0001 306.7063,-574.0001"/>
</g>
<!-- Node20&#45;&gt;Node6 -->
<g id="edge21" class="edge">
<title>Node20&#45;&gt;Node6</title>
<path fill="none" stroke="#191970" d="M306.7241,-566.5498C333.6546,-560.9031 366.2731,-554.0637 392.5588,-548.5522"/>
<polygon fill="#191970" stroke="#191970" points="305.7752,-563.1726 296.7063,-568.6503 307.2117,-570.0236 305.7752,-563.1726"/>
</g>
<!-- Node20&#45;&gt;Node7 -->
<g id="edge22" class="edge">
<title>Node20&#45;&gt;Node7</title>
<path fill="none" stroke="#191970" d="M278.108,-593.1983C298.374,-606.1512 328.7077,-624.3175 357,-636.5 364.5052,-639.7317 372.5595,-642.7124 380.5972,-645.4042"/>
<polygon fill="#191970" stroke="#191970" points="279.8445,-590.153 269.5486,-587.6541 276.0389,-596.0282 279.8445,-590.153"/>
</g>
<!-- Node20&#45;&gt;Node8 -->
<g id="edge23" class="edge">
<title>Node20&#45;&gt;Node8</title>
<path fill="none" stroke="#191970" d="M306.7241,-588.4502C333.6546,-594.0969 366.2731,-600.9363 392.5588,-606.4478"/>
<polygon fill="#191970" stroke="#191970" points="307.2117,-584.9764 296.7063,-586.3497 305.7752,-591.8274 307.2117,-584.9764"/>
</g>
<!-- Node21&#45;&gt;Node5 -->
<g id="edge25" class="edge">
<title>Node21&#45;&gt;Node5</title>
<path fill="none" stroke="#191970" d="M306.183,-512.0018C311.3623,-514.141 316.3999,-516.6239 321,-519.5 341.0015,-532.0054 336.5826,-546.6859 357,-558.5 363.3054,-562.1485 370.2561,-565.0964 377.3742,-567.4782"/>
<polygon fill="#191970" stroke="#191970" points="307.3644,-508.7071 296.7714,-508.512 304.9307,-515.2704 307.3644,-508.7071"/>
</g>
<!-- Node21&#45;&gt;Node6 -->
<g id="edge26" class="edge">
<title>Node21&#45;&gt;Node6</title>
<path fill="none" stroke="#191970" d="M306.7241,-510.4502C333.6546,-516.0969 366.2731,-522.9363 392.5588,-528.4478"/>
<polygon fill="#191970" stroke="#191970" points="307.2117,-506.9764 296.7063,-508.3497 305.7752,-513.8274 307.2117,-506.9764"/>
</g>
<!-- Node21&#45;&gt;Node7 -->
<g id="edge27" class="edge">
<title>Node21&#45;&gt;Node7</title>
<path fill="none" stroke="#191970" d="M306.0846,-509.2604C311.588,-511.9032 316.7267,-515.2538 321,-519.5 359.5928,-557.8484 318.3835,-598.1755 357,-636.5 361.0815,-640.5506 365.7911,-643.9495 370.8524,-646.801"/>
<polygon fill="#191970" stroke="#191970" points="307.1512,-505.9174 296.5668,-505.4479 304.5482,-512.4155 307.1512,-505.9174"/>
</g>
<!-- Node21&#45;&gt;Node8 -->
<g id="edge28" class="edge">
<title>Node21&#45;&gt;Node8</title>
<path fill="none" stroke="#191970" d="M305.981,-510.0314C311.4178,-512.5418 316.5688,-515.6505 321,-519.5 349.8234,-544.5397 327.3371,-573.4606 357,-597.5 361.3891,-601.057 366.315,-603.9767 371.5217,-606.3699"/>
<polygon fill="#191970" stroke="#191970" points="307.2249,-506.7597 296.6381,-506.3463 304.6564,-513.2715 307.2249,-506.7597"/>
</g>
<!-- Node21&#45;&gt;Node9 -->
<g id="edge29" class="edge">
<title>Node21&#45;&gt;Node9</title>
<path fill="none" stroke="#191970" d="M306.9396,-499.5C329.142,-499.5 355.1801,-499.5 378.3405,-499.5"/>
<polygon fill="#191970" stroke="#191970" points="306.7063,-496.0001 296.7063,-499.5 306.7062,-503.0001 306.7063,-496.0001"/>
</g>
<!-- Node21&#45;&gt;Node10 -->
<g id="edge30" class="edge">
<title>Node21&#45;&gt;Node10</title>
<path fill="none" stroke="#191970" d="M306.2183,-486.9875C328.5985,-481.5729 354.9803,-475.1902 378.4092,-469.522"/>
<polygon fill="#191970" stroke="#191970" points="305.1386,-483.6477 296.242,-489.4011 306.7847,-490.4514 305.1386,-483.6477"/>
</g>
<!-- Node21&#45;&gt;Node11 -->
<g id="edge31" class="edge">
<title>Node21&#45;&gt;Node11</title>
<path fill="none" stroke="#191970" d="M274.1757,-482.8064C293.9067,-466.8854 325.7659,-443.3411 357,-429.5 365.9947,-425.5141 375.9016,-422.2541 385.6524,-419.6106"/>
<polygon fill="#191970" stroke="#191970" points="271.7571,-480.2637 266.2543,-489.3174 276.202,-485.6714 271.7571,-480.2637"/>
</g>
<!-- Node21&#45;&gt;Node12 -->
<g id="edge32" class="edge">
<title>Node21&#45;&gt;Node12</title>
<path fill="none" stroke="#191970" d="M271.6686,-481.5698C285.139,-467.4677 304.3344,-447.2966 321,-429.5 337.1239,-412.2819 336.65,-402.4298 357,-390.5 364.0728,-386.3537 371.9608,-383.0658 379.987,-380.4589"/>
<polygon fill="#191970" stroke="#191970" points="268.8423,-479.4612 264.4614,-489.1078 273.9019,-484.2987 268.8423,-479.4612"/>
</g>
<!-- Node22&#45;&gt;Node5 -->
<g id="edge34" class="edge">
<title>Node22&#45;&gt;Node5</title>
<path fill="none" stroke="#191970" d="M308.9532,-549.9176C335.4993,-555.4837 367.1365,-562.1173 392.7316,-567.484"/>
<polygon fill="#191970" stroke="#191970" points="309.5571,-546.4682 299.0516,-547.8415 308.1205,-553.3192 309.5571,-546.4682"/>
</g>
<!-- Node22&#45;&gt;Node6 -->
<g id="edge35" class="edge">
<title>Node22&#45;&gt;Node6</title>
<path fill="none" stroke="#191970" d="M309.1093,-538.5C325.7126,-538.5 344.2959,-538.5 362.1415,-538.5"/>
<polygon fill="#191970" stroke="#191970" points="309.0517,-535.0001 299.0516,-538.5 309.0516,-542.0001 309.0517,-535.0001"/>
</g>
<!-- Node22&#45;&gt;Node7 -->
<g id="edge36" class="edge">
<title>Node22&#45;&gt;Node7</title>
<path fill="none" stroke="#191970" d="M308.5435,-550.2711C313.0329,-552.5461 317.2713,-555.2608 321,-558.5 349.8234,-583.5397 328.1611,-611.4781 357,-636.5 361.1147,-640.0701 365.7234,-643.1305 370.6058,-645.754"/>
<polygon fill="#191970" stroke="#191970" points="309.6278,-546.9275 299.0586,-546.1915 306.862,-553.3579 309.6278,-546.9275"/>
</g>
<!-- Node22&#45;&gt;Node8 -->
<g id="edge37" class="edge">
<title>Node22&#45;&gt;Node8</title>
<path fill="none" stroke="#191970" d="M308.7328,-552.0885C313.0121,-553.9707 317.1586,-556.0983 321,-558.5 341.0015,-571.0054 336.5826,-585.6859 357,-597.5 363.3054,-601.1485 370.2561,-604.0964 377.3742,-606.4782"/>
<polygon fill="#191970" stroke="#191970" points="309.8067,-548.75 299.2194,-548.349 307.2458,-555.2648 309.8067,-548.75"/>
</g>
<!-- Node22&#45;&gt;Node9 -->
<g id="edge38" class="edge">
<title>Node22&#45;&gt;Node9</title>
<path fill="none" stroke="#191970" d="M308.9532,-527.0824C335.4993,-521.5163 367.1365,-514.8827 392.7316,-509.516"/>
<polygon fill="#191970" stroke="#191970" points="308.1205,-523.6808 299.0516,-529.1585 309.5571,-530.5318 308.1205,-523.6808"/>
</g>
<!-- Node22&#45;&gt;Node10 -->
<g id="edge39" class="edge">
<title>Node22&#45;&gt;Node10</title>
<path fill="none" stroke="#191970" d="M308.7308,-525.7739C313.0105,-523.9459 317.1577,-521.8655 321,-519.5 341.0876,-507.1333 337.0595,-493.1024 357,-480.5 363.5457,-476.3631 370.7972,-472.8426 378.2137,-469.8571"/>
<polygon fill="#191970" stroke="#191970" points="307.3237,-522.5643 299.2168,-529.3855 309.808,-529.1087 307.3237,-522.5643"/>
</g>
<!-- Node22&#45;&gt;Node11 -->
<g id="edge40" class="edge">
<title>Node22&#45;&gt;Node11</title>
<path fill="none" stroke="#191970" d="M308.7068,-527.7808C313.1626,-525.5239 317.3485,-522.7962 321,-519.5 352.9794,-490.6328 324.4045,-457.6697 357,-429.5 361.6241,-425.5037 366.9089,-422.2745 372.524,-419.6692"/>
<polygon fill="#191970" stroke="#191970" points="307.1071,-524.6574 299.2666,-531.7833 309.8395,-531.1021 307.1071,-524.6574"/>
</g>
<!-- Node26&#45;&gt;Node3 -->
<g id="edge45" class="edge">
<title>Node26&#45;&gt;Node3</title>
<path fill="none" stroke="#191970" d="M317.7115,-354.8649C318.8703,-353.8127 319.9697,-352.6925 321,-351.5 400.1438,-259.8907 275.8957,-171.3783 357,-81.5 363.9906,-73.7532 373.4013,-68.7476 383.386,-65.5632"/>
<polygon fill="#191970" stroke="#191970" points="315.4107,-352.2071 309.3061,-360.8664 319.4783,-357.904 315.4107,-352.2071"/>
</g>
<!-- Node26&#45;&gt;Node5 -->
<g id="edge46" class="edge">
<title>Node26&#45;&gt;Node5</title>
<path fill="none" stroke="#191970" d="M316.4564,-386.2504C318.0685,-387.5574 319.5902,-388.9711 321,-390.5 372.7639,-446.6392 303.3465,-504.1639 357,-558.5 360.9695,-562.52 365.6003,-565.7651 370.6087,-568.377"/>
<polygon fill="#191970" stroke="#191970" points="318.0287,-383.0972 307.7411,-380.5642 314.2037,-388.9598 318.0287,-383.0972"/>
</g>
<!-- Node26&#45;&gt;Node6 -->
<g id="edge47" class="edge">
<title>Node26&#45;&gt;Node6</title>
<path fill="none" stroke="#191970" d="M315.8055,-385.9593C317.6477,-387.3461 319.3886,-388.8561 321,-390.5 362.6668,-433.0086 313.9038,-478.4412 357,-519.5 360.7674,-523.0893 365.0654,-526.0523 369.6786,-528.4931"/>
<polygon fill="#191970" stroke="#191970" points="317.5166,-382.9025 307.1675,-380.6338 313.843,-388.8611 317.5166,-382.9025"/>
</g>
<!-- Node26&#45;&gt;Node7 -->
<g id="edge48" class="edge">
<title>Node26&#45;&gt;Node7</title>
<path fill="none" stroke="#191970" d="M317.1669,-386.6323C318.526,-387.8323 319.8087,-389.1195 321,-390.5 393.192,-474.1546 284.7562,-552.8901 357,-636.5 360.9574,-641.08 365.7167,-644.8392 370.9307,-647.9221"/>
<polygon fill="#191970" stroke="#191970" points="318.8504,-383.5383 308.6516,-380.6683 314.8346,-389.2719 318.8504,-383.5383"/>
</g>
<!-- Node26&#45;&gt;Node8 -->
<g id="edge49" class="edge">
<title>Node26&#45;&gt;Node8</title>
<path fill="none" stroke="#191970" d="M316.6382,-386.2663C318.1895,-387.5694 319.6502,-388.9778 321,-390.5 382.9536,-460.3695 292.6932,-529.7901 357,-597.5 360.3786,-601.0574 364.2737,-604.0134 368.4959,-606.4639"/>
<polygon fill="#191970" stroke="#191970" points="318.4703,-383.2803 308.2225,-380.5905 314.5562,-389.0838 318.4703,-383.2803"/>
</g>
<!-- Node26&#45;&gt;Node9 -->
<g id="edge50" class="edge">
<title>Node26&#45;&gt;Node9</title>
<path fill="none" stroke="#191970" d="M314.745,-385.6189C316.9562,-387.097 319.0546,-388.7194 321,-390.5 352.7788,-419.5879 324.245,-452.5159 357,-480.5 363.2169,-485.8114 370.6167,-489.7176 378.4041,-492.5772"/>
<polygon fill="#191970" stroke="#191970" points="316.182,-382.413 305.7429,-380.6029 312.7748,-388.5278 316.182,-382.413"/>
</g>
<!-- Node26&#45;&gt;Node10 -->
<g id="edge51" class="edge">
<title>Node26&#45;&gt;Node10</title>
<path fill="none" stroke="#191970" d="M309.4628,-384.4126C313.4835,-386.214 317.3774,-388.2351 321,-390.5 341.0015,-403.0054 336.9908,-417.007 357,-429.5 363.5463,-433.5873 370.7982,-437.0382 378.2149,-439.9442"/>
<polygon fill="#191970" stroke="#191970" points="310.5036,-381.0594 299.9189,-380.5967 307.9048,-387.5591 310.5036,-381.0594"/>
</g>
<!-- Node26&#45;&gt;Node11 -->
<g id="edge52" class="edge">
<title>Node26&#45;&gt;Node11</title>
<path fill="none" stroke="#191970" d="M312.4315,-382.6469C338.2404,-388.0585 368.271,-394.3552 392.7627,-399.4906"/>
<polygon fill="#191970" stroke="#191970" points="312.9051,-379.1702 302.3996,-380.5435 311.4685,-386.0212 312.9051,-379.1702"/>
</g>
<!-- Node26&#45;&gt;Node12 -->
<g id="edge53" class="edge">
<title>Node26&#45;&gt;Node12</title>
<path fill="none" stroke="#191970" d="M319.1435,-370.5C338.8132,-370.5 360.3542,-370.5 379.757,-370.5"/>
<polygon fill="#191970" stroke="#191970" points="319.0494,-367.0001 309.0494,-370.5 319.0493,-374.0001 319.0494,-367.0001"/>
</g>
<!-- Node26&#45;&gt;Node13 -->
<g id="edge54" class="edge">
<title>Node26&#45;&gt;Node13</title>
<path fill="none" stroke="#191970" d="M317.2998,-355.2854C318.6128,-354.1123 319.8509,-352.8526 321,-351.5 410.5185,-246.1298 268.7291,-148.9175 357,-42.5 363.0099,-35.2546 371.0064,-29.9937 379.6747,-26.181"/>
<polygon fill="#191970" stroke="#191970" points="315.2121,-352.4749 309.0592,-361.1 319.2478,-358.1944 315.2121,-352.4749"/>
</g>
<!-- Node26&#45;&gt;Node14 -->
<g id="edge55" class="edge">
<title>Node26&#45;&gt;Node14</title>
<path fill="none" stroke="#191970" d="M306.0925,-358.0179C328.9561,-352.4864 356.0152,-345.9399 379.8399,-340.1758"/>
<polygon fill="#191970" stroke="#191970" points="305.1386,-354.6477 296.242,-360.4011 306.7847,-361.4514 305.1386,-354.6477"/>
</g>
<!-- Node26&#45;&gt;Node15 -->
<g id="edge56" class="edge">
<title>Node26&#45;&gt;Node15</title>
<path fill="none" stroke="#191970" d="M313.4446,-356.144C316.0782,-354.7375 318.6133,-353.1939 321,-351.5 343.6257,-335.4422 334.565,-316.8233 357,-300.5 363.8753,-295.4977 371.7382,-291.4397 379.8277,-288.1524"/>
<polygon fill="#191970" stroke="#191970" points="311.797,-353.0496 304.1835,-360.4174 314.7299,-359.4055 311.797,-353.0496"/>
</g>
<!-- Node26&#45;&gt;Node16 -->
<g id="edge57" class="edge">
<title>Node26&#45;&gt;Node16</title>
<path fill="none" stroke="#191970" d="M316.8179,-354.9963C318.2787,-353.9081 319.6773,-352.7444 321,-351.5 356.0142,-318.5589 322.3763,-282.8513 357,-249.5 363.4517,-243.2854 371.3647,-238.5543 379.7228,-234.9531"/>
<polygon fill="#191970" stroke="#191970" points="314.592,-352.2534 307.8653,-360.4388 318.2283,-358.2348 314.592,-352.2534"/>
</g>
<!-- Node26&#45;&gt;Node17 -->
<g id="edge58" class="edge">
<title>Node26&#45;&gt;Node17</title>
<path fill="none" stroke="#191970" d="M317.6423,-354.6517C318.816,-353.6626 319.9382,-352.6132 321,-351.5 369.2167,-300.9515 307.7026,-247.9951 357,-198.5 361.9441,-193.536 367.8873,-189.7207 374.2961,-186.7994"/>
<polygon fill="#191970" stroke="#191970" points="315.5557,-351.8376 309.2392,-360.3437 319.4815,-357.6332 315.5557,-351.8376"/>
</g>
<!-- Node26&#45;&gt;Node18 -->
<g id="edge59" class="edge">
<title>Node26&#45;&gt;Node18</title>
<path fill="none" stroke="#191970" d="M317.6275,-354.7903C318.8113,-353.7603 319.9386,-352.6649 321,-351.5 379.4728,-287.3228 297.1545,-222.3991 357,-159.5 371.1797,-144.5968 394.336,-139.9494 412.6706,-138.8314"/>
<polygon fill="#191970" stroke="#191970" points="315.337,-352.1186 309.0973,-360.6812 319.3148,-357.8786 315.337,-352.1186"/>
</g>
<!-- Node26&#45;&gt;Node19 -->
<g id="edge60" class="edge">
<title>Node26&#45;&gt;Node19</title>
<path fill="none" stroke="#191970" d="M317.6762,-354.834C318.8455,-353.791 319.9567,-352.6811 321,-351.5 389.7908,-273.6265 286.5431,-196.8693 357,-120.5 370.3424,-106.038 392.1256,-101.1725 410.0976,-99.8522"/>
<polygon fill="#191970" stroke="#191970" points="315.3795,-352.1705 309.2183,-360.7897 319.4097,-357.894 315.3795,-352.1705"/>
</g>
<!-- Node27&#45;&gt;Node3 -->
<g id="edge62" class="edge">
<title>Node27&#45;&gt;Node3</title>
<path fill="none" stroke="#191970" d="M318.1737,-315.3829C319.1616,-314.4725 320.1057,-313.5124 321,-312.5 389.7908,-234.6265 286.5431,-157.8693 357,-81.5 363.9745,-73.9403 373.2553,-69.0028 383.0925,-65.8232"/>
<polygon fill="#191970" stroke="#191970" points="315.8781,-312.7245 309.8457,-321.4344 319.993,-318.3874 315.8781,-312.7245"/>
</g>
<!-- Node27&#45;&gt;Node5 -->
<g id="edge63" class="edge">
<title>Node27&#45;&gt;Node5</title>
<path fill="none" stroke="#191970" d="M316.6382,-347.2663C318.1895,-348.5694 319.6502,-349.9778 321,-351.5 382.9536,-421.3695 292.6932,-490.7901 357,-558.5 360.9929,-562.7042 365.7071,-566.0684 370.8303,-568.751"/>
<polygon fill="#191970" stroke="#191970" points="318.4703,-344.2803 308.2225,-341.5905 314.5562,-350.0838 318.4703,-344.2803"/>
</g>
<!-- Node27&#45;&gt;Node6 -->
<g id="edge64" class="edge">
<title>Node27&#45;&gt;Node6</title>
<path fill="none" stroke="#191970" d="M316.4564,-347.2504C318.0685,-348.5574 319.5902,-349.9711 321,-351.5 372.7639,-407.6392 303.3465,-465.1639 357,-519.5 360.4472,-522.991 364.3931,-525.8977 368.652,-528.3128"/>
<polygon fill="#191970" stroke="#191970" points="318.0287,-344.0972 307.7411,-341.5642 314.2037,-349.9598 318.0287,-344.0972"/>
</g>
<!-- Node27&#45;&gt;Node7 -->
<g id="edge65" class="edge">
<title>Node27&#45;&gt;Node7</title>
<path fill="none" stroke="#191970" d="M317.2031,-347.6013C318.5516,-348.8104 319.8223,-350.1079 321,-351.5 403.4591,-448.9728 274.4805,-539.0783 357,-636.5 360.9122,-641.1187 365.6404,-644.9044 370.8341,-648.0047"/>
<polygon fill="#191970" stroke="#191970" points="318.9158,-344.5253 308.7332,-341.5986 314.8682,-350.2365 318.9158,-344.5253"/>
</g>
<!-- Node27&#45;&gt;Node8 -->
<g id="edge66" class="edge">
<title>Node27&#45;&gt;Node8</title>
<path fill="none" stroke="#191970" d="M317.1669,-347.6323C318.526,-348.8323 319.8087,-350.1195 321,-351.5 393.192,-435.1546 281.9893,-516.3632 357,-597.5 360.2296,-600.9933 363.9564,-603.9102 368.0058,-606.3401"/>
<polygon fill="#191970" stroke="#191970" points="318.8504,-344.5383 308.6516,-341.6683 314.8346,-350.2719 318.8504,-344.5383"/>
</g>
<!-- Node27&#45;&gt;Node9 -->
<g id="edge67" class="edge">
<title>Node27&#45;&gt;Node9</title>
<path fill="none" stroke="#191970" d="M315.8055,-346.9593C317.6477,-348.3461 319.3886,-349.8561 321,-351.5 362.6668,-394.0086 313.9038,-439.4412 357,-480.5 363.0278,-486.2429 370.4141,-490.3824 378.276,-493.3453"/>
<polygon fill="#191970" stroke="#191970" points="317.5166,-343.9025 307.1675,-341.6338 313.843,-349.8611 317.5166,-343.9025"/>
</g>
<!-- Node27&#45;&gt;Node10 -->
<g id="edge68" class="edge">
<title>Node27&#45;&gt;Node10</title>
<path fill="none" stroke="#191970" d="M313.8579,-346.2575C316.3827,-347.8312 318.7816,-349.5728 321,-351.5 349.8234,-376.5397 328.1611,-404.4781 357,-429.5 363.1721,-434.8552 370.4556,-439.0635 378.1071,-442.3705"/>
<polygon fill="#191970" stroke="#191970" points="315.347,-343.0861 304.8675,-341.5273 312.0876,-349.281 315.347,-343.0861"/>
</g>
<!-- Node27&#45;&gt;Node11 -->
<g id="edge69" class="edge">
<title>Node27&#45;&gt;Node11</title>
<path fill="none" stroke="#191970" d="M309.4628,-345.4126C313.4835,-347.214 317.3774,-349.2351 321,-351.5 341.0015,-364.0054 336.5826,-378.6859 357,-390.5 363.3054,-394.1485 370.2561,-397.0964 377.3742,-399.4782"/>
<polygon fill="#191970" stroke="#191970" points="310.5036,-342.0594 299.9189,-341.5967 307.9048,-348.5591 310.5036,-342.0594"/>
</g>
<!-- Node27&#45;&gt;Node12 -->
<g id="edge70" class="edge">
<title>Node27&#45;&gt;Node12</title>
<path fill="none" stroke="#191970" d="M312.4315,-343.6469C338.2404,-349.0585 368.271,-355.3552 392.7627,-360.4906"/>
<polygon fill="#191970" stroke="#191970" points="312.9051,-340.1702 302.3996,-341.5435 311.4685,-347.0212 312.9051,-340.1702"/>
</g>
<!-- Node27&#45;&gt;Node13 -->
<g id="edge71" class="edge">
<title>Node27&#45;&gt;Node13</title>
<path fill="none" stroke="#191970" d="M318.2778,-315.3408C319.2297,-314.4427 320.139,-313.4966 321,-312.5 400.1438,-220.8907 278.941,-135.0353 357,-42.5 363.0697,-35.3047 371.097,-30.0696 379.7778,-26.2672"/>
<polygon fill="#191970" stroke="#191970" points="316.1703,-312.5463 310.2412,-321.3268 320.3518,-318.1602 316.1703,-312.5463"/>
</g>
<!-- Node27&#45;&gt;Node14 -->
<g id="edge72" class="edge">
<title>Node27&#45;&gt;Node14</title>
<path fill="none" stroke="#191970" d="M320.2942,-329.3776C339.6362,-328.7537 360.6999,-328.0742 379.7138,-327.4608"/>
<polygon fill="#191970" stroke="#191970" points="319.9361,-325.8872 310.0542,-329.7079 320.1619,-332.8836 319.9361,-325.8872"/>
</g>
<!-- Node27&#45;&gt;Node15 -->
<g id="edge73" class="edge">
<title>Node27&#45;&gt;Node15</title>
<path fill="none" stroke="#191970" d="M300.6859,-318.5846C307.5116,-316.5946 314.4491,-314.5266 321,-312.5 337.1121,-307.5155 340.9478,-305.674 357,-300.5 367.1156,-297.2395 377.9424,-293.8182 388.3351,-290.5677"/>
<polygon fill="#191970" stroke="#191970" points="299.4611,-315.2951 290.8236,-321.4305 301.402,-322.0207 299.4611,-315.2951"/>
</g>
<!-- Node27&#45;&gt;Node16 -->
<g id="edge74" class="edge">
<title>Node27&#45;&gt;Node16</title>
<path fill="none" stroke="#191970" d="M314.5775,-316.8776C316.8217,-315.5438 318.9744,-314.0883 321,-312.5 346.3778,-292.6011 331.8584,-269.6965 357,-249.5 363.747,-244.0801 371.629,-239.7847 379.8062,-236.3819"/>
<polygon fill="#191970" stroke="#191970" points="312.8894,-313.8091 305.5423,-321.4426 316.0461,-320.0569 312.8894,-313.8091"/>
</g>
<!-- Node27&#45;&gt;Node17 -->
<g id="edge75" class="edge">
<title>Node27&#45;&gt;Node17</title>
<path fill="none" stroke="#191970" d="M316.972,-315.979C318.3809,-314.8955 319.7278,-313.7376 321,-312.5 359.0852,-275.451 318.1234,-234.7177 357,-198.5 362.0172,-193.826 367.9273,-190.1859 374.2475,-187.3592"/>
<polygon fill="#191970" stroke="#191970" points="314.9299,-313.1283 308.3157,-321.405 318.6476,-319.0594 314.9299,-313.1283"/>
</g>
<!-- Node27&#45;&gt;Node18 -->
<g id="edge76" class="edge">
<title>Node27&#45;&gt;Node18</title>
<path fill="none" stroke="#191970" d="M317.6423,-315.6517C318.816,-314.6626 319.9382,-313.6132 321,-312.5 369.2167,-261.9515 307.7026,-208.9951 357,-159.5 371.5168,-144.925 394.6468,-140.2519 412.8855,-139.0405"/>
<polygon fill="#191970" stroke="#191970" points="315.5557,-312.8376 309.2392,-321.3437 319.4815,-318.6332 315.5557,-312.8376"/>
</g>
<!-- Node27&#45;&gt;Node19 -->
<g id="edge77" class="edge">
<title>Node27&#45;&gt;Node19</title>
<path fill="none" stroke="#191970" d="M318.1314,-315.3449C319.132,-314.4459 320.0902,-313.4985 321,-312.5 379.4728,-248.3228 297.1545,-183.3991 357,-120.5 370.5632,-106.2448 392.3394,-101.3729 410.2529,-99.9978"/>
<polygon fill="#191970" stroke="#191970" points="315.8436,-312.6772 309.7283,-321.329 319.9042,-318.3792 315.8436,-312.6772"/>
</g>
</g>
</svg>
