<?xml version="1.0" encoding="UTF-8" standalone="no"?>
<!DOCTYPE svg PUBLIC "-//W3C//DTD SVG 1.1//EN"
 "http://www.w3.org/Graphics/SVG/1.1/DTD/svg11.dtd">
<!-- Generated by graphviz version 2.40.1 (20161225.0304)
 -->
<!-- Title: HIJetReco Pages: 1 -->
<svg width="275pt" height="413pt"
 viewBox="0.00 0.00 275.00 413.00" xmlns="http://www.w3.org/2000/svg" xmlns:xlink="http://www.w3.org/1999/xlink">
<g id="graph0" class="graph" transform="scale(1 1) rotate(0) translate(4 409)">
<title>HIJetReco</title>
<!-- Node1 -->
<g id="node1" class="node">
<title>Node1</title>
<polygon fill="#bfbfbf" stroke="#000000" points="0,-192.5 0,-212.5 64,-212.5 64,-192.5 0,-192.5"/>
<text text-anchor="middle" x="32" y="-199.5" font-family="FreeSans" font-size="10.00" fill="#000000">HIJetReco</text>
</g>
<!-- Node2 -->
<g id="node2" class="node">
<title>Node2</title>
<g id="a_node2"><a xlink:href="../../da/d02/Fun4All__G4__EICDetector_8C.html#afbe82cefa1d1fd031d9a8586b7bb68c6" target="_top" xlink:title="Fun4All_G4_EICDetector">
<polygon fill="none" stroke="#000000" points="114,-384.5 114,-404.5 253,-404.5 253,-384.5 114,-384.5"/>
<text text-anchor="middle" x="183.5" y="-391.5" font-family="FreeSans" font-size="10.00" fill="#000000">Fun4All_G4_EICDetector</text>
</a>
</g>
</g>
<!-- Node1&#45;&gt;Node2 -->
<g id="edge1" class="edge">
<title>Node1&#45;&gt;Node2</title>
<path fill="none" stroke="#191970" d="M33.9282,-222.8708C38.5046,-259.2801 53.4041,-335.4487 100,-375.5 104.1716,-379.0857 108.8816,-382.0317 113.8872,-384.4482"/>
<polygon fill="#191970" stroke="#191970" points="37.3634,-222.094 32.778,-212.5429 30.4064,-222.8689 37.3634,-222.094"/>
</g>
<!-- Node3 -->
<g id="node3" class="node">
<title>Node3</title>
<g id="a_node3"><a xlink:href="../../df/d4b/Fun4All__G4__EICDetector__LQ__analysis_8C.html#af903e98824d083a08b353ac15996ee0e" target="_top" xlink:title="Fun4All_G4_EICDetector\l_LQ_analysis">
<polygon fill="none" stroke="#000000" points="114,-333.5 114,-365.5 253,-365.5 253,-333.5 114,-333.5"/>
<text text-anchor="start" x="122" y="-352.5" font-family="FreeSans" font-size="10.00" fill="#000000">Fun4All_G4_EICDetector</text>
<text text-anchor="middle" x="183.5" y="-340.5" font-family="FreeSans" font-size="10.00" fill="#000000">_LQ_analysis</text>
</a>
</g>
</g>
<!-- Node1&#45;&gt;Node3 -->
<g id="edge2" class="edge">
<title>Node1&#45;&gt;Node3</title>
<path fill="none" stroke="#191970" d="M37.8022,-222.3019C46.7402,-249.3505 66.4512,-297.5581 100,-324.5 104.2475,-327.911 108.9517,-330.8571 113.9001,-333.4015"/>
<polygon fill="#191970" stroke="#191970" points="41.138,-221.242 34.8052,-212.7481 34.4589,-223.3373 41.138,-221.242"/>
</g>
<!-- Node4 -->
<g id="node4" class="node">
<title>Node4</title>
<g id="a_node4"><a xlink:href="../../d1/daf/Fun4All__G4__EICDetector__LQ__analysis__nf_8C.html#a5022607d21247b87dd208b0828905147" target="_top" xlink:title="Fun4All_G4_EICDetector\l_LQ_analysis_nf">
<polygon fill="none" stroke="#000000" points="114,-282.5 114,-314.5 253,-314.5 253,-282.5 114,-282.5"/>
<text text-anchor="start" x="122" y="-301.5" font-family="FreeSans" font-size="10.00" fill="#000000">Fun4All_G4_EICDetector</text>
<text text-anchor="middle" x="183.5" y="-289.5" font-family="FreeSans" font-size="10.00" fill="#000000">_LQ_analysis_nf</text>
</a>
</g>
</g>
<!-- Node1&#45;&gt;Node4 -->
<g id="edge3" class="edge">
<title>Node1&#45;&gt;Node4</title>
<path fill="none" stroke="#191970" d="M45.006,-220.6735C57.4185,-236.7568 77.5182,-259.749 100,-273.5 105.5509,-276.8952 111.5928,-279.8552 117.8043,-282.4303"/>
<polygon fill="#191970" stroke="#191970" points="47.7254,-218.4656 38.9347,-212.5517 42.1188,-222.6568 47.7254,-218.4656"/>
</g>
<!-- Node5 -->
<g id="node5" class="node">
<title>Node5</title>
<g id="a_node5"><a xlink:href="../../d4/df5/Fun4All__G4__EICDetector__LQ__reference_8C.html#a2feefc472f17f90b3cbe74897d049f75" target="_top" xlink:title="Fun4All_G4_EICDetector\l_LQ_reference">
<polygon fill="none" stroke="#000000" points="114,-231.5 114,-263.5 253,-263.5 253,-231.5 114,-231.5"/>
<text text-anchor="start" x="122" y="-250.5" font-family="FreeSans" font-size="10.00" fill="#000000">Fun4All_G4_EICDetector</text>
<text text-anchor="middle" x="183.5" y="-238.5" font-family="FreeSans" font-size="10.00" fill="#000000">_LQ_reference</text>
</a>
</g>
</g>
<!-- Node1&#45;&gt;Node5 -->
<g id="edge4" class="edge">
<title>Node1&#45;&gt;Node5</title>
<path fill="none" stroke="#191970" d="M73.8584,-214.9332C91.0171,-220.0298 111.0984,-225.9946 129.3532,-231.4168"/>
<polygon fill="#191970" stroke="#191970" points="74.7119,-211.5356 64.1293,-212.0433 72.7187,-218.2459 74.7119,-211.5356"/>
</g>
<!-- Node6 -->
<g id="node6" class="node">
<title>Node6</title>
<g id="a_node6"><a xlink:href="../../d3/d51/Fun4All__G4__EICDetector__RICH_8C.html#a5739502b0a7a1ba782c01069f77e933f" target="_top" xlink:title="Fun4All_G4_EICDetector_RICH">
<polygon fill="none" stroke="#000000" points="100,-192.5 100,-212.5 267,-212.5 267,-192.5 100,-192.5"/>
<text text-anchor="middle" x="183.5" y="-199.5" font-family="FreeSans" font-size="10.00" fill="#000000">Fun4All_G4_EICDetector_RICH</text>
</a>
</g>
</g>
<!-- Node1&#45;&gt;Node6 -->
<g id="edge5" class="edge">
<title>Node1&#45;&gt;Node6</title>
<path fill="none" stroke="#191970" d="M74.3425,-202.5C82.4207,-202.5 91.1328,-202.5 99.9879,-202.5"/>
<polygon fill="#191970" stroke="#191970" points="74.1293,-199.0001 64.1293,-202.5 74.1292,-206.0001 74.1293,-199.0001"/>
</g>
<!-- Node7 -->
<g id="node7" class="node">
<title>Node7</title>
<g id="a_node7"><a xlink:href="../../d5/d2c/macros_2blob_2master_2macros_2g4simulations_2Fun4All__G4__sPHENIX_8C.html#a6eaaa492d7023ec86c562dc63aa1e5a4" target="_top" xlink:title="Fun4All_G4_sPHENIX">
<polygon fill="none" stroke="#000000" points="123,-153.5 123,-173.5 244,-173.5 244,-153.5 123,-153.5"/>
<text text-anchor="middle" x="183.5" y="-160.5" font-family="FreeSans" font-size="10.00" fill="#000000">Fun4All_G4_sPHENIX</text>
</a>
</g>
</g>
<!-- Node1&#45;&gt;Node7 -->
<g id="edge6" class="edge">
<title>Node1&#45;&gt;Node7</title>
<path fill="none" stroke="#191970" d="M73.9548,-190.5127C82.5543,-188.1302 91.5572,-185.6898 100,-183.5 112.9862,-180.1318 127.1618,-176.6599 140.0854,-173.5736"/>
<polygon fill="#191970" stroke="#191970" points="72.7927,-187.2032 64.1029,-193.2644 74.6759,-193.9452 72.7927,-187.2032"/>
</g>
<!-- Node8 -->
<g id="node8" class="node">
<title>Node8</title>
<g id="a_node8"><a xlink:href="../../da/dd0/Fun4All__G4__sPHENIX__photonjet_8C.html#a6f18519e216acc05399e562ea57ea77c" target="_top" xlink:title="Fun4All_G4_sPHENIX\l_photonjet">
<polygon fill="none" stroke="#000000" points="123,-102.5 123,-134.5 244,-134.5 244,-102.5 123,-102.5"/>
<text text-anchor="start" x="131" y="-121.5" font-family="FreeSans" font-size="10.00" fill="#000000">Fun4All_G4_sPHENIX</text>
<text text-anchor="middle" x="183.5" y="-109.5" font-family="FreeSans" font-size="10.00" fill="#000000">_photonjet</text>
</a>
</g>
</g>
<!-- Node1&#45;&gt;Node8 -->
<g id="edge7" class="edge">
<title>Node1&#45;&gt;Node8</title>
<path fill="none" stroke="#191970" d="M48.3982,-185.1307C61.3399,-172.316 80.422,-155.2982 100,-144.5 107.1793,-140.5403 115.0451,-137.0942 122.9884,-134.1213"/>
<polygon fill="#191970" stroke="#191970" points="45.6958,-182.8871 41.1841,-192.4733 50.6891,-187.793 45.6958,-182.8871"/>
</g>
<!-- Node9 -->
<g id="node9" class="node">
<title>Node9</title>
<g id="a_node9"><a xlink:href="../../da/d85/Fun4All__G4__sPHENIX__photons_8C.html#a02fbbd59878fe1299f58ed187e7214ba" target="_top" xlink:title="Fun4All_G4_sPHENIX\l_photons">
<polygon fill="none" stroke="#000000" points="123,-51.5 123,-83.5 244,-83.5 244,-51.5 123,-51.5"/>
<text text-anchor="start" x="131" y="-70.5" font-family="FreeSans" font-size="10.00" fill="#000000">Fun4All_G4_sPHENIX</text>
<text text-anchor="middle" x="183.5" y="-58.5" font-family="FreeSans" font-size="10.00" fill="#000000">_photons</text>
</a>
</g>
</g>
<!-- Node1&#45;&gt;Node9 -->
<g id="edge8" class="edge">
<title>Node1&#45;&gt;Node9</title>
<path fill="none" stroke="#191970" d="M39.2678,-182.77C49.2634,-158.3173 69.5492,-117.0084 100,-93.5 106.8504,-88.2114 114.7898,-83.9889 122.9937,-80.6199"/>
<polygon fill="#191970" stroke="#191970" points="35.8824,-181.8178 35.5067,-192.406 42.4032,-184.363 35.8824,-181.8178"/>
</g>
<!-- Node10 -->
<g id="node10" class="node">
<title>Node10</title>
<g id="a_node10"><a xlink:href="../../de/d55/Fun4All__G4__sPHENIX__truthphotonjet_8C.html#a48a6f4503eaa1b3793d8ae572aa795b9" target="_top" xlink:title="Fun4All_G4_sPHENIX\l_truthphotonjet">
<polygon fill="none" stroke="#000000" points="123,-.5 123,-32.5 244,-32.5 244,-.5 123,-.5"/>
<text text-anchor="start" x="131" y="-19.5" font-family="FreeSans" font-size="10.00" fill="#000000">Fun4All_G4_sPHENIX</text>
<text text-anchor="middle" x="183.5" y="-7.5" font-family="FreeSans" font-size="10.00" fill="#000000">_truthphotonjet</text>
</a>
</g>
</g>
<!-- Node1&#45;&gt;Node10 -->
<g id="edge9" class="edge">
<title>Node1&#45;&gt;Node10</title>
<path fill="none" stroke="#191970" d="M35.0474,-182.0796C41.1766,-148.1944 58.1732,-80.3398 100,-42.5 106.5304,-36.5921 114.3877,-32.0267 122.6357,-28.4986"/>
<polygon fill="#191970" stroke="#191970" points="31.5563,-181.7372 33.3653,-192.1764 38.4611,-182.8876 31.5563,-181.7372"/>
</g>
</g>
</svg>
