<?xml version="1.0" encoding="UTF-8" standalone="no"?>
<!DOCTYPE svg PUBLIC "-//W3C//DTD SVG 1.1//EN"
 "http://www.w3.org/Graphics/SVG/1.1/DTD/svg11.dtd">
<!-- Generated by graphviz version 2.40.1 (20161225.0304)
 -->
<!-- Title: coresoftware/blob/master/offline/framework/phool/PHRandomSeed.h Pages: 1 -->
<svg width="5131pt" height="146pt"
 viewBox="0.00 0.00 5130.50 146.00" xmlns="http://www.w3.org/2000/svg" xmlns:xlink="http://www.w3.org/1999/xlink">
<g id="graph0" class="graph" transform="scale(1 1) rotate(0) translate(4 142)">
<title>coresoftware/blob/master/offline/framework/phool/PHRandomSeed.h</title>
<!-- Node1 -->
<g id="node1" class="node">
<title>Node1</title>
<polygon fill="#bfbfbf" stroke="#000000" points="2531,-93.5 2531,-137.5 2677,-137.5 2677,-93.5 2531,-93.5"/>
<text text-anchor="start" x="2539" y="-124.5" font-family="FreeSans" font-size="10.00" fill="#000000">coresoftware/blob/master</text>
<text text-anchor="start" x="2539" y="-112.5" font-family="FreeSans" font-size="10.00" fill="#000000">/offline/framework/phool</text>
<text text-anchor="middle" x="2604" y="-100.5" font-family="FreeSans" font-size="10.00" fill="#000000">/PHRandomSeed.h</text>
</g>
<!-- Node2 -->
<g id="node2" class="node">
<title>Node2</title>
<g id="a_node2"><a xlink:href="../../d6/dde/Fun4AllHepMCPileupInputManager_8cc.html" target="_top" xlink:title="coresoftware/blob/master\l/generators/phhepmc/Fun4AllHep\lMCPileupInputManager.cc">
<polygon fill="none" stroke="#000000" points="0,-6.5 0,-50.5 188,-50.5 188,-6.5 0,-6.5"/>
<text text-anchor="start" x="8" y="-37.5" font-family="FreeSans" font-size="10.00" fill="#000000">coresoftware/blob/master</text>
<text text-anchor="start" x="8" y="-25.5" font-family="FreeSans" font-size="10.00" fill="#000000">/generators/phhepmc/Fun4AllHep</text>
<text text-anchor="middle" x="94" y="-13.5" font-family="FreeSans" font-size="10.00" fill="#000000">MCPileupInputManager.cc</text>
</a>
</g>
</g>
<!-- Node1&#45;&gt;Node2 -->
<g id="edge1" class="edge">
<title>Node1&#45;&gt;Node2</title>
<path fill="none" stroke="#191970" d="M2520.5566,-114.6878C2122.9618,-110.6537 430.2974,-91.573 197,-57 186.4468,-55.4361 175.438,-53.1369 164.7107,-50.5117"/>
<polygon fill="#191970" stroke="#191970" points="2520.7908,-118.1902 2530.8257,-114.7915 2520.8616,-111.1906 2520.7908,-118.1902"/>
</g>
<!-- Node3 -->
<g id="node3" class="node">
<title>Node3</title>
<g id="a_node3"><a xlink:href="../../d3/d8f/HepMCFlowAfterBurner_8cc.html" target="_top" xlink:title="coresoftware/blob/master\l/generators/phhepmc/HepMCFlowAfter\lBurner.cc">
<polygon fill="none" stroke="#000000" points="206,-6.5 206,-50.5 420,-50.5 420,-6.5 206,-6.5"/>
<text text-anchor="start" x="214" y="-37.5" font-family="FreeSans" font-size="10.00" fill="#000000">coresoftware/blob/master</text>
<text text-anchor="start" x="214" y="-25.5" font-family="FreeSans" font-size="10.00" fill="#000000">/generators/phhepmc/HepMCFlowAfter</text>
<text text-anchor="middle" x="313" y="-13.5" font-family="FreeSans" font-size="10.00" fill="#000000">Burner.cc</text>
</a>
</g>
</g>
<!-- Node1&#45;&gt;Node3 -->
<g id="edge2" class="edge">
<title>Node1&#45;&gt;Node3</title>
<path fill="none" stroke="#191970" d="M2520.8152,-114.3166C2147.8443,-108.868 638.7246,-85.252 429,-57 417.2853,-55.4219 405.0365,-53.1336 393.0722,-50.5297"/>
<polygon fill="#191970" stroke="#191970" points="2520.9421,-117.8187 2530.9921,-114.4649 2521.0442,-110.8195 2520.9421,-117.8187"/>
</g>
<!-- Node4 -->
<g id="node4" class="node">
<title>Node4</title>
<g id="a_node4"><a xlink:href="../../d8/ddf/PHHepMCGenHelper_8cc.html" target="_top" xlink:title="coresoftware/blob/master\l/generators/phhepmc/PHHepMCGen\lHelper.cc">
<polygon fill="none" stroke="#000000" points="438,-6.5 438,-50.5 638,-50.5 638,-6.5 438,-6.5"/>
<text text-anchor="start" x="446" y="-37.5" font-family="FreeSans" font-size="10.00" fill="#000000">coresoftware/blob/master</text>
<text text-anchor="start" x="446" y="-25.5" font-family="FreeSans" font-size="10.00" fill="#000000">/generators/phhepmc/PHHepMCGen</text>
<text text-anchor="middle" x="538" y="-13.5" font-family="FreeSans" font-size="10.00" fill="#000000">Helper.cc</text>
</a>
</g>
</g>
<!-- Node1&#45;&gt;Node4 -->
<g id="edge3" class="edge">
<title>Node1&#45;&gt;Node4</title>
<path fill="none" stroke="#191970" d="M2520.9453,-114.124C2171.9923,-108.1922 833.9875,-83.8873 647,-57 635.9644,-55.4132 624.4394,-53.1201 613.1899,-50.5139"/>
<polygon fill="#191970" stroke="#191970" points="2520.9208,-117.624 2530.9787,-114.2941 2521.0395,-110.625 2520.9208,-117.624"/>
</g>
<!-- Node5 -->
<g id="node5" class="node">
<title>Node5</title>
<g id="a_node5"><a xlink:href="../../d6/d10/PHPythia6_8cc.html" target="_top" xlink:title="coresoftware/blob/master\l/generators/PHPythia6/PHPythia6.cc">
<polygon fill="none" stroke="#000000" points="656,-12.5 656,-44.5 856,-44.5 856,-12.5 656,-12.5"/>
<text text-anchor="start" x="664" y="-31.5" font-family="FreeSans" font-size="10.00" fill="#000000">coresoftware/blob/master</text>
<text text-anchor="middle" x="756" y="-19.5" font-family="FreeSans" font-size="10.00" fill="#000000">/generators/PHPythia6/PHPythia6.cc</text>
</a>
</g>
</g>
<!-- Node1&#45;&gt;Node5 -->
<g id="edge4" class="edge">
<title>Node1&#45;&gt;Node5</title>
<path fill="none" stroke="#191970" d="M2520.5949,-115.1463C2219.6483,-113.4881 1190.3326,-104.4019 865,-57 846.0317,-54.2363 825.6126,-49.412 807.6331,-44.5097"/>
<polygon fill="#191970" stroke="#191970" points="2520.9722,-118.6483 2530.9909,-115.2022 2521.0099,-111.6484 2520.9722,-118.6483"/>
</g>
<!-- Node6 -->
<g id="node6" class="node">
<title>Node6</title>
<g id="a_node6"><a xlink:href="../../d4/d8f/PHPythia8_8cc.html" target="_top" xlink:title="coresoftware/blob/master\l/generators/PHPythia8/PHPythia8.cc">
<polygon fill="none" stroke="#000000" points="874,-12.5 874,-44.5 1074,-44.5 1074,-12.5 874,-12.5"/>
<text text-anchor="start" x="882" y="-31.5" font-family="FreeSans" font-size="10.00" fill="#000000">coresoftware/blob/master</text>
<text text-anchor="middle" x="974" y="-19.5" font-family="FreeSans" font-size="10.00" fill="#000000">/generators/PHPythia8/PHPythia8.cc</text>
</a>
</g>
</g>
<!-- Node1&#45;&gt;Node6 -->
<g id="edge5" class="edge">
<title>Node1&#45;&gt;Node6</title>
<path fill="none" stroke="#191970" d="M2520.5491,-114.6769C2244.6989,-111.5819 1363.8293,-98.6084 1083,-57 1064.1352,-54.2049 1043.8291,-49.4049 1025.9161,-44.5325"/>
<polygon fill="#191970" stroke="#191970" points="2520.8494,-118.1804 2530.8876,-114.7915 2520.927,-111.1808 2520.8494,-118.1804"/>
</g>
<!-- Node7 -->
<g id="node7" class="node">
<title>Node7</title>
<g id="a_node7"><a xlink:href="../../db/dd7/sHEPGen_8C.html" target="_top" xlink:title="coresoftware/blob/master\l/generators/sHEPGen/sHEPGen.C">
<polygon fill="none" stroke="#000000" points="1092.5,-12.5 1092.5,-44.5 1277.5,-44.5 1277.5,-12.5 1092.5,-12.5"/>
<text text-anchor="start" x="1100.5" y="-31.5" font-family="FreeSans" font-size="10.00" fill="#000000">coresoftware/blob/master</text>
<text text-anchor="middle" x="1185" y="-19.5" font-family="FreeSans" font-size="10.00" fill="#000000">/generators/sHEPGen/sHEPGen.C</text>
</a>
</g>
</g>
<!-- Node1&#45;&gt;Node7 -->
<g id="edge6" class="edge">
<title>Node1&#45;&gt;Node7</title>
<path fill="none" stroke="#191970" d="M2520.7936,-114.2839C2270.3616,-110.2317 1526.2158,-95.2184 1287,-57 1269.3884,-54.1863 1250.4789,-49.4131 1233.7836,-44.5693"/>
<polygon fill="#191970" stroke="#191970" points="2520.8655,-117.7854 2530.9204,-114.4461 2520.9777,-110.7863 2520.8655,-117.7854"/>
</g>
<!-- Node8 -->
<g id="node8" class="node">
<title>Node8</title>
<g id="a_node8"><a xlink:href="../../d4/d30/PHRandomSeed_8cc.html" target="_top" xlink:title="coresoftware/blob/master\l/offline/framework/phool\l/PHRandomSeed.cc">
<polygon fill="none" stroke="#000000" points="1296,-6.5 1296,-50.5 1442,-50.5 1442,-6.5 1296,-6.5"/>
<text text-anchor="start" x="1304" y="-37.5" font-family="FreeSans" font-size="10.00" fill="#000000">coresoftware/blob/master</text>
<text text-anchor="start" x="1304" y="-25.5" font-family="FreeSans" font-size="10.00" fill="#000000">/offline/framework/phool</text>
<text text-anchor="middle" x="1369" y="-13.5" font-family="FreeSans" font-size="10.00" fill="#000000">/PHRandomSeed.cc</text>
</a>
</g>
</g>
<!-- Node1&#45;&gt;Node8 -->
<g id="edge7" class="edge">
<title>Node1&#45;&gt;Node8</title>
<path fill="none" stroke="#191970" d="M2520.5692,-114.3319C2291.4526,-110.6366 1656.009,-96.9797 1451,-57 1442.716,-55.3845 1434.1325,-53.112 1425.7768,-50.5473"/>
<polygon fill="#191970" stroke="#191970" points="2520.7879,-117.8358 2530.8423,-114.4953 2520.8993,-110.8367 2520.7879,-117.8358"/>
</g>
<!-- Node9 -->
<g id="node9" class="node">
<title>Node9</title>
<g id="a_node9"><a xlink:href="../../d1/d0a/PHTruthVertexing_8cc.html" target="_top" xlink:title="coresoftware/blob/master\l/offline/packages/trackreco\l/PHTruthVertexing.cc">
<polygon fill="none" stroke="#000000" points="1460,-6.5 1460,-50.5 1614,-50.5 1614,-6.5 1460,-6.5"/>
<text text-anchor="start" x="1468" y="-37.5" font-family="FreeSans" font-size="10.00" fill="#000000">coresoftware/blob/master</text>
<text text-anchor="start" x="1468" y="-25.5" font-family="FreeSans" font-size="10.00" fill="#000000">/offline/packages/trackreco</text>
<text text-anchor="middle" x="1537" y="-13.5" font-family="FreeSans" font-size="10.00" fill="#000000">/PHTruthVertexing.cc</text>
</a>
</g>
</g>
<!-- Node1&#45;&gt;Node9 -->
<g id="edge8" class="edge">
<title>Node1&#45;&gt;Node9</title>
<path fill="none" stroke="#191970" d="M2520.7057,-113.3183C2316.2846,-107.5159 1794.0519,-89.8583 1623,-57 1614.5043,-55.368 1605.6896,-53.1218 1597.085,-50.6006"/>
<polygon fill="#191970" stroke="#191970" points="2520.6892,-116.8191 2530.7838,-113.6021 2520.8863,-109.8219 2520.6892,-116.8191"/>
</g>
<!-- Node10 -->
<g id="node10" class="node">
<title>Node10</title>
<g id="a_node10"><a xlink:href="../../d0/d2e/BbcVertexFastSimReco_8cc.html" target="_top" xlink:title="coresoftware/blob/master\l/simulation/g4simulation\l/g4bbc/BbcVertexFastSimReco.cc">
<polygon fill="none" stroke="#000000" points="1632,-6.5 1632,-50.5 1816,-50.5 1816,-6.5 1632,-6.5"/>
<text text-anchor="start" x="1640" y="-37.5" font-family="FreeSans" font-size="10.00" fill="#000000">coresoftware/blob/master</text>
<text text-anchor="start" x="1640" y="-25.5" font-family="FreeSans" font-size="10.00" fill="#000000">/simulation/g4simulation</text>
<text text-anchor="middle" x="1724" y="-13.5" font-family="FreeSans" font-size="10.00" fill="#000000">/g4bbc/BbcVertexFastSimReco.cc</text>
</a>
</g>
</g>
<!-- Node1&#45;&gt;Node10 -->
<g id="edge9" class="edge">
<title>Node1&#45;&gt;Node10</title>
<path fill="none" stroke="#191970" d="M2520.742,-111.36C2348.2093,-102.4345 1956.7626,-80.2956 1825,-57 1815.3118,-55.2871 1805.2168,-53.0288 1795.3177,-50.5313"/>
<polygon fill="#191970" stroke="#191970" points="2520.6215,-114.8583 2530.7884,-111.8775 2520.9817,-107.8676 2520.6215,-114.8583"/>
</g>
<!-- Node11 -->
<g id="node11" class="node">
<title>Node11</title>
<g id="a_node11"><a xlink:href="../../da/dd9/RawTowerDigitizer_8cc.html" target="_top" xlink:title="coresoftware/blob/master\l/simulation/g4simulation\l/g4calo/RawTowerDigitizer.cc">
<polygon fill="none" stroke="#000000" points="1834.5,-6.5 1834.5,-50.5 1997.5,-50.5 1997.5,-6.5 1834.5,-6.5"/>
<text text-anchor="start" x="1842.5" y="-37.5" font-family="FreeSans" font-size="10.00" fill="#000000">coresoftware/blob/master</text>
<text text-anchor="start" x="1842.5" y="-25.5" font-family="FreeSans" font-size="10.00" fill="#000000">/simulation/g4simulation</text>
<text text-anchor="middle" x="1916" y="-13.5" font-family="FreeSans" font-size="10.00" fill="#000000">/g4calo/RawTowerDigitizer.cc</text>
</a>
</g>
</g>
<!-- Node1&#45;&gt;Node11 -->
<g id="edge10" class="edge">
<title>Node1&#45;&gt;Node11</title>
<path fill="none" stroke="#191970" d="M2520.4392,-112.7316C2404.2521,-107.6579 2187.7921,-93.7602 2007,-57 1998.4016,-55.2517 1989.4631,-53.0057 1980.6938,-50.5431"/>
<polygon fill="#191970" stroke="#191970" points="2520.5417,-116.239 2530.6814,-113.1673 2520.8392,-109.2453 2520.5417,-116.239"/>
</g>
<!-- Node12 -->
<g id="node12" class="node">
<title>Node12</title>
<g id="a_node12"><a xlink:href="../../db/d59/PHG4InttDigitizer_8cc.html" target="_top" xlink:title="coresoftware/blob/master\l/simulation/g4simulation\l/g4intt/PHG4InttDigitizer.cc">
<polygon fill="none" stroke="#000000" points="2016,-6.5 2016,-50.5 2170,-50.5 2170,-6.5 2016,-6.5"/>
<text text-anchor="start" x="2024" y="-37.5" font-family="FreeSans" font-size="10.00" fill="#000000">coresoftware/blob/master</text>
<text text-anchor="start" x="2024" y="-25.5" font-family="FreeSans" font-size="10.00" fill="#000000">/simulation/g4simulation</text>
<text text-anchor="middle" x="2093" y="-13.5" font-family="FreeSans" font-size="10.00" fill="#000000">/g4intt/PHG4InttDigitizer.cc</text>
</a>
</g>
</g>
<!-- Node1&#45;&gt;Node12 -->
<g id="edge11" class="edge">
<title>Node1&#45;&gt;Node12</title>
<path fill="none" stroke="#191970" d="M2520.6906,-108.5829C2434.4034,-100.3611 2296.0614,-84.2112 2179,-57 2171.1865,-55.1837 2163.073,-52.96 2155.0892,-50.5633"/>
<polygon fill="#191970" stroke="#191970" points="2520.407,-112.0716 2530.6906,-109.5224 2521.0619,-105.1023 2520.407,-112.0716"/>
</g>
<!-- Node13 -->
<g id="node13" class="node">
<title>Node13</title>
<g id="a_node13"><a xlink:href="../../d2/d09/HepMCNodeReader_8cc.html" target="_top" xlink:title="coresoftware/blob/master\l/simulation/g4simulation\l/g4main/HepMCNodeReader.cc">
<polygon fill="none" stroke="#000000" points="2188.5,-6.5 2188.5,-50.5 2361.5,-50.5 2361.5,-6.5 2188.5,-6.5"/>
<text text-anchor="start" x="2196.5" y="-37.5" font-family="FreeSans" font-size="10.00" fill="#000000">coresoftware/blob/master</text>
<text text-anchor="start" x="2196.5" y="-25.5" font-family="FreeSans" font-size="10.00" fill="#000000">/simulation/g4simulation</text>
<text text-anchor="middle" x="2275" y="-13.5" font-family="FreeSans" font-size="10.00" fill="#000000">/g4main/HepMCNodeReader.cc</text>
</a>
</g>
</g>
<!-- Node1&#45;&gt;Node13 -->
<g id="edge12" class="edge">
<title>Node1&#45;&gt;Node13</title>
<path fill="none" stroke="#191970" d="M2520.9408,-95.5571C2476.3651,-84.6249 2420.5517,-70.5693 2371,-57 2363.5381,-54.9566 2355.7697,-52.7625 2348.0267,-50.5317"/>
<polygon fill="#191970" stroke="#191970" points="2520.3089,-99.0056 2530.8542,-97.9823 2521.9724,-92.2062 2520.3089,-99.0056"/>
</g>
<!-- Node14 -->
<g id="node14" class="node">
<title>Node14</title>
<g id="a_node14"><a xlink:href="../../d4/d94/PHG4ParticleGeneratorBase_8cc.html" target="_top" xlink:title="coresoftware/blob/master\l/simulation/g4simulation\l/g4main/PHG4ParticleGeneratorBase.cc">
<polygon fill="none" stroke="#000000" points="2380,-6.5 2380,-50.5 2598,-50.5 2598,-6.5 2380,-6.5"/>
<text text-anchor="start" x="2388" y="-37.5" font-family="FreeSans" font-size="10.00" fill="#000000">coresoftware/blob/master</text>
<text text-anchor="start" x="2388" y="-25.5" font-family="FreeSans" font-size="10.00" fill="#000000">/simulation/g4simulation</text>
<text text-anchor="middle" x="2489" y="-13.5" font-family="FreeSans" font-size="10.00" fill="#000000">/g4main/PHG4ParticleGeneratorBase.cc</text>
</a>
</g>
</g>
<!-- Node1&#45;&gt;Node14 -->
<g id="edge13" class="edge">
<title>Node1&#45;&gt;Node14</title>
<path fill="none" stroke="#191970" d="M2566.276,-86.961C2550.6714,-75.1558 2532.8541,-61.6765 2518.2634,-50.6384"/>
<polygon fill="#191970" stroke="#191970" points="2564.5965,-90.0791 2574.6831,-93.3211 2568.8198,-84.4966 2564.5965,-90.0791"/>
</g>
<!-- Node15 -->
<g id="node15" class="node">
<title>Node15</title>
<g id="a_node15"><a xlink:href="../../d1/de0/PHG4ParticleGeneratorD0_8cc.html" target="_top" xlink:title="coresoftware/blob/master\l/simulation/g4simulation\l/g4main/PHG4ParticleGeneratorD0.cc">
<polygon fill="none" stroke="#000000" points="2616.5,-6.5 2616.5,-50.5 2823.5,-50.5 2823.5,-6.5 2616.5,-6.5"/>
<text text-anchor="start" x="2624.5" y="-37.5" font-family="FreeSans" font-size="10.00" fill="#000000">coresoftware/blob/master</text>
<text text-anchor="start" x="2624.5" y="-25.5" font-family="FreeSans" font-size="10.00" fill="#000000">/simulation/g4simulation</text>
<text text-anchor="middle" x="2720" y="-13.5" font-family="FreeSans" font-size="10.00" fill="#000000">/g4main/PHG4ParticleGeneratorD0.cc</text>
</a>
</g>
</g>
<!-- Node1&#45;&gt;Node15 -->
<g id="edge14" class="edge">
<title>Node1&#45;&gt;Node15</title>
<path fill="none" stroke="#191970" d="M2641.6153,-87.2885C2657.4592,-75.4056 2675.6283,-61.7788 2690.4822,-50.6384"/>
<polygon fill="#191970" stroke="#191970" points="2639.4718,-84.5211 2633.5718,-93.3211 2643.6719,-90.1211 2639.4718,-84.5211"/>
</g>
<!-- Node16 -->
<g id="node16" class="node">
<title>Node16</title>
<g id="a_node16"><a xlink:href="../../dd/d77/PHG4ParticleGeneratorVectorMeson_8cc.html" target="_top" xlink:title="coresoftware/blob/master\l/simulation/g4simulation\l/g4main/PHG4ParticleGeneratorVector\lMeson.cc">
<polygon fill="none" stroke="#000000" points="2842,-.5 2842,-56.5 3054,-56.5 3054,-.5 2842,-.5"/>
<text text-anchor="start" x="2850" y="-43.5" font-family="FreeSans" font-size="10.00" fill="#000000">coresoftware/blob/master</text>
<text text-anchor="start" x="2850" y="-31.5" font-family="FreeSans" font-size="10.00" fill="#000000">/simulation/g4simulation</text>
<text text-anchor="start" x="2850" y="-19.5" font-family="FreeSans" font-size="10.00" fill="#000000">/g4main/PHG4ParticleGeneratorVector</text>
<text text-anchor="middle" x="2948" y="-7.5" font-family="FreeSans" font-size="10.00" fill="#000000">Meson.cc</text>
</a>
</g>
</g>
<!-- Node1&#45;&gt;Node16 -->
<g id="edge15" class="edge">
<title>Node1&#45;&gt;Node16</title>
<path fill="none" stroke="#191970" d="M2687.1035,-94.4825C2733.5796,-82.7284 2791.9976,-67.9541 2841.7667,-55.3671"/>
<polygon fill="#191970" stroke="#191970" points="2686.2113,-91.0979 2677.3747,-96.943 2687.9276,-97.8842 2686.2113,-91.0979"/>
</g>
<!-- Node17 -->
<g id="node17" class="node">
<title>Node17</title>
<g id="a_node17"><a xlink:href="../../d2/dcb/PHG4Reco_8cc.html" target="_top" xlink:title="coresoftware/blob/master\l/simulation/g4simulation\l/g4main/PHG4Reco.cc">
<polygon fill="none" stroke="#000000" points="3072,-6.5 3072,-50.5 3218,-50.5 3218,-6.5 3072,-6.5"/>
<text text-anchor="start" x="3080" y="-37.5" font-family="FreeSans" font-size="10.00" fill="#000000">coresoftware/blob/master</text>
<text text-anchor="start" x="3080" y="-25.5" font-family="FreeSans" font-size="10.00" fill="#000000">/simulation/g4simulation</text>
<text text-anchor="middle" x="3145" y="-13.5" font-family="FreeSans" font-size="10.00" fill="#000000">/g4main/PHG4Reco.cc</text>
</a>
</g>
</g>
<!-- Node1&#45;&gt;Node17 -->
<g id="edge16" class="edge">
<title>Node1&#45;&gt;Node17</title>
<path fill="none" stroke="#191970" d="M2687.3361,-110.105C2780.02,-102.9004 2933.7245,-87.3554 3063,-57 3070.6296,-55.2085 3078.543,-52.9688 3086.3101,-50.5371"/>
<polygon fill="#191970" stroke="#191970" points="2686.8791,-106.6296 2677.1744,-110.8804 2687.4118,-113.6093 2686.8791,-106.6296"/>
</g>
<!-- Node18 -->
<g id="node18" class="node">
<title>Node18</title>
<g id="a_node18"><a xlink:href="../../d9/d72/PHG4MvtxDigitizer_8cc.html" target="_top" xlink:title="coresoftware/blob/master\l/simulation/g4simulation\l/g4mvtx/PHG4MvtxDigitizer.cc">
<polygon fill="none" stroke="#000000" points="3236,-6.5 3236,-50.5 3406,-50.5 3406,-6.5 3236,-6.5"/>
<text text-anchor="start" x="3244" y="-37.5" font-family="FreeSans" font-size="10.00" fill="#000000">coresoftware/blob/master</text>
<text text-anchor="start" x="3244" y="-25.5" font-family="FreeSans" font-size="10.00" fill="#000000">/simulation/g4simulation</text>
<text text-anchor="middle" x="3321" y="-13.5" font-family="FreeSans" font-size="10.00" fill="#000000">/g4mvtx/PHG4MvtxDigitizer.cc</text>
</a>
</g>
</g>
<!-- Node1&#45;&gt;Node18 -->
<g id="edge17" class="edge">
<title>Node1&#45;&gt;Node18</title>
<path fill="none" stroke="#191970" d="M2687.33,-112.9839C2807.5455,-108.1581 3036.1563,-94.4961 3227,-57 3235.8686,-55.2575 3245.094,-53.015 3254.1484,-50.5542"/>
<polygon fill="#191970" stroke="#191970" points="2686.9543,-109.4958 2677.0986,-113.3837 2687.2276,-116.4905 2686.9543,-109.4958"/>
</g>
<!-- Node19 -->
<g id="node19" class="node">
<title>Node19</title>
<g id="a_node19"><a xlink:href="../../d6/dc6/PHG4TpcDigitizer_8cc.html" target="_top" xlink:title="coresoftware/blob/master\l/simulation/g4simulation\l/g4tpc/PHG4TpcDigitizer.cc">
<polygon fill="none" stroke="#000000" points="3424,-6.5 3424,-50.5 3578,-50.5 3578,-6.5 3424,-6.5"/>
<text text-anchor="start" x="3432" y="-37.5" font-family="FreeSans" font-size="10.00" fill="#000000">coresoftware/blob/master</text>
<text text-anchor="start" x="3432" y="-25.5" font-family="FreeSans" font-size="10.00" fill="#000000">/simulation/g4simulation</text>
<text text-anchor="middle" x="3501" y="-13.5" font-family="FreeSans" font-size="10.00" fill="#000000">/g4tpc/PHG4TpcDigitizer.cc</text>
</a>
</g>
</g>
<!-- Node1&#45;&gt;Node19 -->
<g id="edge18" class="edge">
<title>Node1&#45;&gt;Node19</title>
<path fill="none" stroke="#191970" d="M2687.1784,-112.1183C2865.0721,-104.4586 3277.4775,-84.3059 3415,-57 3423.4853,-55.3152 3432.2942,-53.0388 3440.8959,-50.5028"/>
<polygon fill="#191970" stroke="#191970" points="2686.9282,-108.6257 2677.0871,-112.5502 2687.2276,-115.6193 2686.9282,-108.6257"/>
</g>
<!-- Node20 -->
<g id="node20" class="node">
<title>Node20</title>
<g id="a_node20"><a xlink:href="../../d9/d2f/PHG4TpcDistortion_8cc.html" target="_top" xlink:title="coresoftware/blob/master\l/simulation/g4simulation\l/g4tpc/PHG4TpcDistortion.cc">
<polygon fill="none" stroke="#000000" points="3596,-6.5 3596,-50.5 3758,-50.5 3758,-6.5 3596,-6.5"/>
<text text-anchor="start" x="3604" y="-37.5" font-family="FreeSans" font-size="10.00" fill="#000000">coresoftware/blob/master</text>
<text text-anchor="start" x="3604" y="-25.5" font-family="FreeSans" font-size="10.00" fill="#000000">/simulation/g4simulation</text>
<text text-anchor="middle" x="3677" y="-13.5" font-family="FreeSans" font-size="10.00" fill="#000000">/g4tpc/PHG4TpcDistortion.cc</text>
</a>
</g>
</g>
<!-- Node1&#45;&gt;Node20 -->
<g id="edge19" class="edge">
<title>Node1&#45;&gt;Node20</title>
<path fill="none" stroke="#191970" d="M2687.4375,-113.1847C2892.2144,-107.076 3415.3831,-88.7717 3587,-57 3595.8637,-55.359 3605.073,-53.1077 3614.0703,-50.584"/>
<polygon fill="#191970" stroke="#191970" points="2687.2339,-109.6891 2677.342,-113.4837 2687.4412,-116.6861 2687.2339,-109.6891"/>
</g>
<!-- Node21 -->
<g id="node21" class="node">
<title>Node21</title>
<g id="a_node21"><a xlink:href="../../d6/d40/PHG4TpcElectronDrift_8cc.html" target="_top" xlink:title="coresoftware/blob/master\l/simulation/g4simulation\l/g4tpc/PHG4TpcElectronDrift.cc">
<polygon fill="none" stroke="#000000" points="3776,-6.5 3776,-50.5 3952,-50.5 3952,-6.5 3776,-6.5"/>
<text text-anchor="start" x="3784" y="-37.5" font-family="FreeSans" font-size="10.00" fill="#000000">coresoftware/blob/master</text>
<text text-anchor="start" x="3784" y="-25.5" font-family="FreeSans" font-size="10.00" fill="#000000">/simulation/g4simulation</text>
<text text-anchor="middle" x="3864" y="-13.5" font-family="FreeSans" font-size="10.00" fill="#000000">/g4tpc/PHG4TpcElectronDrift.cc</text>
</a>
</g>
</g>
<!-- Node1&#45;&gt;Node21 -->
<g id="edge20" class="edge">
<title>Node1&#45;&gt;Node21</title>
<path fill="none" stroke="#191970" d="M2687.65,-113.8486C2918.158,-108.891 3559.1661,-92.2516 3767,-57 3776.6043,-55.371 3786.6032,-53.1088 3796.3744,-50.5645"/>
<polygon fill="#191970" stroke="#191970" points="2687.2388,-110.3565 2677.3157,-114.069 2687.388,-117.3549 2687.2388,-110.3565"/>
</g>
<!-- Node22 -->
<g id="node22" class="node">
<title>Node22</title>
<g id="a_node22"><a xlink:href="../../df/dca/PHG4TrackFastSim_8cc.html" target="_top" xlink:title="Kalman Filter based on smeared truth PHG4Hit.">
<polygon fill="none" stroke="#000000" points="3970.5,-6.5 3970.5,-50.5 4177.5,-50.5 4177.5,-6.5 3970.5,-6.5"/>
<text text-anchor="start" x="3978.5" y="-37.5" font-family="FreeSans" font-size="10.00" fill="#000000">coresoftware/blob/master</text>
<text text-anchor="start" x="3978.5" y="-25.5" font-family="FreeSans" font-size="10.00" fill="#000000">/simulation/g4simulation</text>
<text text-anchor="middle" x="4074" y="-13.5" font-family="FreeSans" font-size="10.00" fill="#000000">/g4trackfastsim/PHG4TrackFastSim.cc</text>
</a>
</g>
</g>
<!-- Node1&#45;&gt;Node22 -->
<g id="edge21" class="edge">
<title>Node1&#45;&gt;Node22</title>
<path fill="none" stroke="#191970" d="M2687.4493,-114.1318C2943.134,-109.5876 3713.3097,-93.187 3961,-57 3972.2111,-55.3621 3983.9246,-53.077 3995.3842,-50.5062"/>
<polygon fill="#191970" stroke="#191970" points="2687.0529,-110.6381 2677.1162,-114.3139 2687.1764,-117.637 2687.0529,-110.6381"/>
</g>
<!-- Node23 -->
<g id="node23" class="node">
<title>Node23</title>
<g id="a_node23"><a xlink:href="../../d4/db0/GlobalVertexFastSimReco_8cc.html" target="_top" xlink:title="coresoftware/blob/master\l/simulation/g4simulation\l/g4vertex/GlobalVertexFastSimReco.cc">
<polygon fill="none" stroke="#000000" points="4196,-6.5 4196,-50.5 4408,-50.5 4408,-6.5 4196,-6.5"/>
<text text-anchor="start" x="4204" y="-37.5" font-family="FreeSans" font-size="10.00" fill="#000000">coresoftware/blob/master</text>
<text text-anchor="start" x="4204" y="-25.5" font-family="FreeSans" font-size="10.00" fill="#000000">/simulation/g4simulation</text>
<text text-anchor="middle" x="4302" y="-13.5" font-family="FreeSans" font-size="10.00" fill="#000000">/g4vertex/GlobalVertexFastSimReco.cc</text>
</a>
</g>
</g>
<!-- Node1&#45;&gt;Node23 -->
<g id="edge22" class="edge">
<title>Node1&#45;&gt;Node23</title>
<path fill="none" stroke="#191970" d="M2687.465,-114.6833C2970.6182,-111.5575 3893.284,-98.3715 4187,-57 4198.4062,-55.3934 4210.3251,-53.1259 4221.9866,-50.5635"/>
<polygon fill="#191970" stroke="#191970" points="2687.224,-111.1856 2677.2628,-114.7946 2687.3005,-118.1852 2687.224,-111.1856"/>
</g>
<!-- Node24 -->
<g id="node24" class="node">
<title>Node24</title>
<g id="a_node24"><a xlink:href="../../d5/d2c/macros_2blob_2master_2macros_2g4simulations_2Fun4All__G4__sPHENIX_8C.html" target="_top" xlink:title="macros/blob/master\l/macros/g4simulations\l/Fun4All_G4_sPHENIX.C">
<polygon fill="none" stroke="#000000" points="4426.5,-6.5 4426.5,-50.5 4561.5,-50.5 4561.5,-6.5 4426.5,-6.5"/>
<text text-anchor="start" x="4434.5" y="-37.5" font-family="FreeSans" font-size="10.00" fill="#000000">macros/blob/master</text>
<text text-anchor="start" x="4434.5" y="-25.5" font-family="FreeSans" font-size="10.00" fill="#000000">/macros/g4simulations</text>
<text text-anchor="middle" x="4494" y="-13.5" font-family="FreeSans" font-size="10.00" fill="#000000">/Fun4All_G4_sPHENIX.C</text>
</a>
</g>
</g>
<!-- Node1&#45;&gt;Node24 -->
<g id="edge23" class="edge">
<title>Node1&#45;&gt;Node24</title>
<path fill="none" stroke="#191970" d="M2687.2808,-114.3872C3020.2858,-109.7226 4246.3274,-90.4214 4417,-57 4424.9735,-55.4386 4433.2137,-53.1596 4441.2065,-50.56"/>
<polygon fill="#191970" stroke="#191970" points="2687.1708,-110.8883 2677.2206,-114.5274 2687.2685,-117.8876 2687.1708,-110.8883"/>
</g>
<!-- Node25 -->
<g id="node25" class="node">
<title>Node25</title>
<g id="a_node25"><a xlink:href="../../d2/da2/HijingShowerSize_8cc.html" target="_top" xlink:title="analysis/blob/master\l/AntiSigma/src/HijingShower\lSize.cc">
<polygon fill="none" stroke="#000000" points="4579.5,-6.5 4579.5,-50.5 4740.5,-50.5 4740.5,-6.5 4579.5,-6.5"/>
<text text-anchor="start" x="4587.5" y="-37.5" font-family="FreeSans" font-size="10.00" fill="#000000">analysis/blob/master</text>
<text text-anchor="start" x="4587.5" y="-25.5" font-family="FreeSans" font-size="10.00" fill="#000000">/AntiSigma/src/HijingShower</text>
<text text-anchor="middle" x="4660" y="-13.5" font-family="FreeSans" font-size="10.00" fill="#000000">Size.cc</text>
</a>
</g>
</g>
<!-- Node1&#45;&gt;Node25 -->
<g id="edge24" class="edge">
<title>Node1&#45;&gt;Node25</title>
<path fill="none" stroke="#191970" d="M2687.2278,-114.3984C3037.6764,-109.5729 4383.804,-89.0987 4571,-57 4580.1148,-55.4371 4589.5829,-53.1572 4598.7952,-50.5572"/>
<polygon fill="#191970" stroke="#191970" points="2687.1031,-110.8996 2677.1521,-114.5366 2687.1992,-117.899 2687.1031,-110.8996"/>
</g>
<!-- Node26 -->
<g id="node26" class="node">
<title>Node26</title>
<g id="a_node26"><a xlink:href="../../d9/d41/SigmaTimingNtuple_8cc.html" target="_top" xlink:title="analysis/blob/master\l/AntiSigma/src/SigmaTimingNtuple.cc">
<polygon fill="none" stroke="#000000" points="4759,-12.5 4759,-44.5 4967,-44.5 4967,-12.5 4759,-12.5"/>
<text text-anchor="start" x="4767" y="-31.5" font-family="FreeSans" font-size="10.00" fill="#000000">analysis/blob/master</text>
<text text-anchor="middle" x="4863" y="-19.5" font-family="FreeSans" font-size="10.00" fill="#000000">/AntiSigma/src/SigmaTimingNtuple.cc</text>
</a>
</g>
</g>
<!-- Node1&#45;&gt;Node26 -->
<g id="edge25" class="edge">
<title>Node1&#45;&gt;Node26</title>
<path fill="none" stroke="#191970" d="M2687.3042,-114.3125C3057.3861,-108.8902 4543.3901,-85.5169 4750,-57 4769.6415,-54.289 4790.8047,-49.4771 4809.446,-44.57"/>
<polygon fill="#191970" stroke="#191970" points="2687.1509,-110.8143 2677.2031,-114.4601 2687.2533,-117.8135 2687.1509,-110.8143"/>
</g>
<!-- Node27 -->
<g id="node27" class="node">
<title>Node27</title>
<g id="a_node27"><a xlink:href="../../da/df5/PHPythia6_8C.html" target="_top" xlink:title="analysis/blob/master\l/EICTrigger/PHPythia6.C">
<polygon fill="none" stroke="#000000" points="4985.5,-12.5 4985.5,-44.5 5122.5,-44.5 5122.5,-12.5 4985.5,-12.5"/>
<text text-anchor="start" x="4993.5" y="-31.5" font-family="FreeSans" font-size="10.00" fill="#000000">analysis/blob/master</text>
<text text-anchor="middle" x="5054" y="-19.5" font-family="FreeSans" font-size="10.00" fill="#000000">/EICTrigger/PHPythia6.C</text>
</a>
</g>
</g>
<!-- Node1&#45;&gt;Node27 -->
<g id="edge26" class="edge">
<title>Node1&#45;&gt;Node27</title>
<path fill="none" stroke="#191970" d="M2687.267,-115.0499C3081.1612,-112.7049 4747.8431,-100.2846 4976,-57 4990.023,-54.3396 5004.8651,-49.4747 5017.7956,-44.5081"/>
<polygon fill="#191970" stroke="#191970" points="2687.0702,-111.551 2677.0911,-115.11 2687.1116,-118.5508 2687.0702,-111.551"/>
</g>
</g>
</svg>
