<?xml version="1.0" encoding="UTF-8" standalone="no"?>
<!DOCTYPE svg PUBLIC "-//W3C//DTD SVG 1.1//EN"
 "http://www.w3.org/Graphics/SVG/1.1/DTD/svg11.dtd">
<!-- Generated by graphviz version 2.40.1 (20161225.0304)
 -->
<!-- Title: PHParameters::exist_double_param Pages: 1 -->
<svg width="1331pt" height="887pt"
 viewBox="0.00 0.00 1331.00 887.00" xmlns="http://www.w3.org/2000/svg" xmlns:xlink="http://www.w3.org/1999/xlink">
<g id="graph0" class="graph" transform="scale(1 1) rotate(0) translate(4 883)">
<title>PHParameters::exist_double_param</title>
<!-- Node1 -->
<g id="node1" class="node">
<title>Node1</title>
<polygon fill="#bfbfbf" stroke="#000000" points="0,-664.5 0,-696.5 119,-696.5 119,-664.5 0,-664.5"/>
<text text-anchor="start" x="8" y="-683.5" font-family="FreeSans" font-size="10.00" fill="#000000">PHParameters::exist</text>
<text text-anchor="middle" x="59.5" y="-671.5" font-family="FreeSans" font-size="10.00" fill="#000000">_double_param</text>
</g>
<!-- Node2 -->
<g id="node2" class="node">
<title>Node2</title>
<g id="a_node2"><a xlink:href="../../db/d5f/classPHG4CylinderGeom__Spacalv2.html#a1695b189ac570c48a72e3a10339209c0" target="_top" xlink:title="load parameters from PHParameters, which interface to Database/XML/ROOT files">
<polygon fill="none" stroke="#000000" points="740,-747.5 740,-779.5 907,-779.5 907,-747.5 740,-747.5"/>
<text text-anchor="start" x="748" y="-766.5" font-family="FreeSans" font-size="10.00" fill="#000000">PHG4CylinderGeom_Spacalv2</text>
<text text-anchor="middle" x="823.5" y="-754.5" font-family="FreeSans" font-size="10.00" fill="#000000">::ImportParameters</text>
</a>
</g>
</g>
<!-- Node1&#45;&gt;Node2 -->
<g id="edge1" class="edge">
<title>Node1&#45;&gt;Node2</title>
<path fill="none" stroke="#191970" d="M93.9012,-701.6448C111.5113,-711.3555 133.6852,-721.9307 155,-727.5 359.8032,-781.0123 611.5475,-776.6051 739.7863,-769.6052"/>
<polygon fill="#191970" stroke="#191970" points="95.5625,-698.5633 85.137,-696.6765 92.1104,-704.6529 95.5625,-698.5633"/>
</g>
<!-- Node3 -->
<g id="node3" class="node">
<title>Node3</title>
<g id="a_node3"><a xlink:href="../../de/d61/classPHG4CylinderGeom__Spacalv3.html#a101400277a0fbe0c0c9c32c02a39fb40" target="_top" xlink:title="load parameters from PHParameters, which interface to Database/XML/ROOT files">
<polygon fill="none" stroke="#000000" points="943,-769.5 943,-801.5 1110,-801.5 1110,-769.5 943,-769.5"/>
<text text-anchor="start" x="951" y="-788.5" font-family="FreeSans" font-size="10.00" fill="#000000">PHG4CylinderGeom_Spacalv3</text>
<text text-anchor="middle" x="1026.5" y="-776.5" font-family="FreeSans" font-size="10.00" fill="#000000">::ImportParameters</text>
</a>
</g>
</g>
<!-- Node1&#45;&gt;Node3 -->
<g id="edge7" class="edge">
<title>Node1&#45;&gt;Node3</title>
<path fill="none" stroke="#191970" d="M81.5401,-703.7125C99.5986,-721.2836 126.7075,-744.5354 155,-757.5 269.5962,-810.0118 307.9453,-808.5 434,-808.5 434,-808.5 434,-808.5 620.5,-808.5 732.2231,-808.5 860.9633,-799.7111 942.9894,-792.9992"/>
<polygon fill="#191970" stroke="#191970" points="83.9322,-701.1551 74.3779,-696.5764 78.9915,-706.1139 83.9322,-701.1551"/>
</g>
<!-- Node8 -->
<g id="node8" class="node">
<title>Node8</title>
<g id="a_node8"><a xlink:href="../../d3/d63/classPHG4CylinderGeomv1.html#accabd2d72bf6949d7e6daefbc93e8ab2" target="_top" xlink:title="load parameters from PHParameters, which interface to Database/XML/ROOT files">
<polygon fill="none" stroke="#000000" points="179,-664.5 179,-696.5 307,-696.5 307,-664.5 179,-664.5"/>
<text text-anchor="start" x="187" y="-683.5" font-family="FreeSans" font-size="10.00" fill="#000000">PHG4CylinderGeomv1</text>
<text text-anchor="middle" x="243" y="-671.5" font-family="FreeSans" font-size="10.00" fill="#000000">::ImportParameters</text>
</a>
</g>
</g>
<!-- Node1&#45;&gt;Node8 -->
<g id="edge8" class="edge">
<title>Node1&#45;&gt;Node8</title>
<path fill="none" stroke="#191970" d="M129.1215,-680.5C145.4931,-680.5 162.8644,-680.5 178.9766,-680.5"/>
<polygon fill="#191970" stroke="#191970" points="129.0772,-677.0001 119.0772,-680.5 129.0772,-684.0001 129.0772,-677.0001"/>
</g>
<!-- Node10 -->
<g id="node10" class="node">
<title>Node10</title>
<g id="a_node10"><a xlink:href="../../d2/da2/classPHG4CylinderGeom__Spacalv1.html#a1323c080e451eb8df4b6c065f3a01e59" target="_top" xlink:title="load parameters from PHParameters, which interface to Database/XML/ROOT files">
<polygon fill="none" stroke="#000000" points="537,-699.5 537,-731.5 704,-731.5 704,-699.5 537,-699.5"/>
<text text-anchor="start" x="545" y="-718.5" font-family="FreeSans" font-size="10.00" fill="#000000">PHG4CylinderGeom_Spacalv1</text>
<text text-anchor="middle" x="620.5" y="-706.5" font-family="FreeSans" font-size="10.00" fill="#000000">::ImportParameters</text>
</a>
</g>
</g>
<!-- Node1&#45;&gt;Node10 -->
<g id="edge13" class="edge">
<title>Node1&#45;&gt;Node10</title>
<path fill="none" stroke="#191970" d="M121.7826,-699.0423C132.7614,-701.667 144.1487,-703.9846 155,-705.5 287.4955,-724.0036 443.2305,-722.762 536.7816,-719.5718"/>
<polygon fill="#191970" stroke="#191970" points="122.392,-695.5871 111.842,-696.5598 120.696,-702.3785 122.392,-695.5871"/>
</g>
<!-- Node12 -->
<g id="node12" class="node">
<title>Node12</title>
<g id="a_node12"><a xlink:href="../../d3/d3c/classPrototype4DSTReader.html#aeff56ec2e35ca26cc410dc0989c5bad6" target="_top" xlink:title="event processing method">
<polygon fill="none" stroke="#000000" points="179,-613.5 179,-645.5 307,-645.5 307,-613.5 179,-613.5"/>
<text text-anchor="start" x="187" y="-632.5" font-family="FreeSans" font-size="10.00" fill="#000000">Prototype4DSTReader</text>
<text text-anchor="middle" x="243" y="-620.5" font-family="FreeSans" font-size="10.00" fill="#000000">::process_event</text>
</a>
</g>
</g>
<!-- Node1&#45;&gt;Node12 -->
<g id="edge14" class="edge">
<title>Node1&#45;&gt;Node12</title>
<path fill="none" stroke="#191970" d="M127.1204,-661.7063C146.1805,-656.409 166.7361,-650.696 185.1667,-645.5736"/>
<polygon fill="#191970" stroke="#191970" points="126.0062,-658.3832 117.3087,-664.4333 127.8807,-665.1276 126.0062,-658.3832"/>
</g>
<!-- Node13 -->
<g id="node13" class="node">
<title>Node13</title>
<g id="a_node13"><a xlink:href="../../da/d11/classPHParameterContainerInterface.html#a304d76924bdc742b6f68fd4bede1bde4" target="_top" xlink:title="PHParameterContainerInterface\l::set_default_double_param">
<polygon fill="none" stroke="#000000" points="155,-562.5 155,-594.5 331,-594.5 331,-562.5 155,-562.5"/>
<text text-anchor="start" x="163" y="-581.5" font-family="FreeSans" font-size="10.00" fill="#000000">PHParameterContainerInterface</text>
<text text-anchor="middle" x="243" y="-569.5" font-family="FreeSans" font-size="10.00" fill="#000000">::set_default_double_param</text>
</a>
</g>
</g>
<!-- Node1&#45;&gt;Node13 -->
<g id="edge15" class="edge">
<title>Node1&#45;&gt;Node13</title>
<path fill="none" stroke="#191970" d="M82.5618,-657.4104C100.8121,-640.3177 127.6932,-617.6358 155,-603.5 161.4881,-600.1413 168.4858,-597.1825 175.6006,-594.5883"/>
<polygon fill="#191970" stroke="#191970" points="80.1072,-654.9148 75.2925,-664.3524 84.9417,-659.9772 80.1072,-654.9148"/>
</g>
<!-- Node18 -->
<g id="node18" class="node">
<title>Node18</title>
<g id="a_node18"><a xlink:href="../../da/d11/classPHParameterContainerInterface.html#a2a28e69d116516f52e2848a9a6a6f50a" target="_top" xlink:title="PHParameterContainerInterface\l::set_double_param">
<polygon fill="none" stroke="#000000" points="155,-328.5 155,-360.5 331,-360.5 331,-328.5 155,-328.5"/>
<text text-anchor="start" x="163" y="-347.5" font-family="FreeSans" font-size="10.00" fill="#000000">PHParameterContainerInterface</text>
<text text-anchor="middle" x="243" y="-335.5" font-family="FreeSans" font-size="10.00" fill="#000000">::set_double_param</text>
</a>
</g>
</g>
<!-- Node1&#45;&gt;Node18 -->
<g id="edge20" class="edge">
<title>Node1&#45;&gt;Node18</title>
<path fill="none" stroke="#191970" d="M73.1849,-655.4421C109.0002,-589.862 204.7566,-414.526 234.2382,-360.5434"/>
<polygon fill="#191970" stroke="#191970" points="70.072,-653.8399 68.3506,-664.294 76.2155,-657.1952 70.072,-653.8399"/>
</g>
<!-- Node2&#45;&gt;Node3 -->
<g id="edge2" class="edge">
<title>Node2&#45;&gt;Node3</title>
<path fill="none" stroke="#191970" d="M917.2558,-773.6607C925.8295,-774.5899 934.4773,-775.5271 942.9526,-776.4456"/>
<polygon fill="#191970" stroke="#191970" points="917.5588,-770.1732 907.2399,-772.5753 916.8045,-777.1324 917.5588,-770.1732"/>
</g>
<!-- Node4 -->
<g id="node4" class="node">
<title>Node4</title>
<g id="a_node4"><a xlink:href="../../dc/d57/classPHG4SpacalPrototype4Detector.html#aed2a21ff80c7f387832f684e8ee7ee16" target="_top" xlink:title="PHG4SpacalPrototype4Detector\l::ConstructMe">
<polygon fill="none" stroke="#000000" points="1146,-846.5 1146,-878.5 1323,-878.5 1323,-846.5 1146,-846.5"/>
<text text-anchor="start" x="1154" y="-865.5" font-family="FreeSans" font-size="10.00" fill="#000000">PHG4SpacalPrototype4Detector</text>
<text text-anchor="middle" x="1234.5" y="-853.5" font-family="FreeSans" font-size="10.00" fill="#000000">::ConstructMe</text>
</a>
</g>
</g>
<!-- Node3&#45;&gt;Node4 -->
<g id="edge3" class="edge">
<title>Node3&#45;&gt;Node4</title>
<path fill="none" stroke="#191970" d="M1069.2882,-805.7938C1091.8193,-816.0504 1120.0833,-828.2485 1146,-837.5 1154.8715,-840.6669 1164.3546,-843.702 1173.6961,-846.4977"/>
<polygon fill="#191970" stroke="#191970" points="1070.5548,-802.524 1060.0066,-801.5312 1067.6333,-808.8853 1070.5548,-802.524"/>
</g>
<!-- Node5 -->
<g id="node5" class="node">
<title>Node5</title>
<g id="a_node5"><a xlink:href="../../db/dc2/classPHG4SpacalPrototypeDetector.html#aea582a01978e516e9a623421dc3c1e2c" target="_top" xlink:title="PHG4SpacalPrototypeDetector\l::ConstructMe">
<polygon fill="none" stroke="#000000" points="1149,-795.5 1149,-827.5 1320,-827.5 1320,-795.5 1149,-795.5"/>
<text text-anchor="start" x="1157" y="-814.5" font-family="FreeSans" font-size="10.00" fill="#000000">PHG4SpacalPrototypeDetector</text>
<text text-anchor="middle" x="1234.5" y="-802.5" font-family="FreeSans" font-size="10.00" fill="#000000">::ConstructMe</text>
</a>
</g>
</g>
<!-- Node3&#45;&gt;Node5 -->
<g id="edge4" class="edge">
<title>Node3&#45;&gt;Node5</title>
<path fill="none" stroke="#191970" d="M1120.1392,-797.2049C1129.729,-798.4036 1139.4374,-799.6172 1148.9341,-800.8043"/>
<polygon fill="#191970" stroke="#191970" points="1120.5594,-793.7303 1110.2025,-795.9628 1119.6911,-800.6762 1120.5594,-793.7303"/>
</g>
<!-- Node6 -->
<g id="node6" class="node">
<title>Node6</title>
<g id="a_node6"><a xlink:href="../../d1/d05/classPHG4FullProjSpacalDetector.html#a252fe43177261d752210af377132f152" target="_top" xlink:title="PHG4FullProjSpacalDetector\l::PHG4FullProjSpacalDetector">
<polygon fill="none" stroke="#000000" points="1152,-744.5 1152,-776.5 1317,-776.5 1317,-744.5 1152,-744.5"/>
<text text-anchor="start" x="1160" y="-763.5" font-family="FreeSans" font-size="10.00" fill="#000000">PHG4FullProjSpacalDetector</text>
<text text-anchor="middle" x="1234.5" y="-751.5" font-family="FreeSans" font-size="10.00" fill="#000000">::PHG4FullProjSpacalDetector</text>
</a>
</g>
</g>
<!-- Node3&#45;&gt;Node6 -->
<g id="edge5" class="edge">
<title>Node3&#45;&gt;Node6</title>
<path fill="none" stroke="#191970" d="M1120.2812,-774.2282C1130.8541,-772.9574 1141.5691,-771.6696 1151.9836,-770.4178"/>
<polygon fill="#191970" stroke="#191970" points="1119.7133,-770.7712 1110.2025,-775.4396 1120.5487,-777.7212 1119.7133,-770.7712"/>
</g>
<!-- Node7 -->
<g id="node7" class="node">
<title>Node7</title>
<g id="a_node7"><a xlink:href="../../d3/db1/classPHG4FullProjTiltedSpacalDetector.html#a400c0416a09f3c37958d24da9dbbbf2a" target="_top" xlink:title="PHG4FullProjTiltedSpacal\lDetector::PHG4FullProjTilted\lSpacalDetector">
<polygon fill="none" stroke="#000000" points="1155.5,-681.5 1155.5,-725.5 1313.5,-725.5 1313.5,-681.5 1155.5,-681.5"/>
<text text-anchor="start" x="1163.5" y="-712.5" font-family="FreeSans" font-size="10.00" fill="#000000">PHG4FullProjTiltedSpacal</text>
<text text-anchor="start" x="1163.5" y="-700.5" font-family="FreeSans" font-size="10.00" fill="#000000">Detector::PHG4FullProjTilted</text>
<text text-anchor="middle" x="1234.5" y="-688.5" font-family="FreeSans" font-size="10.00" fill="#000000">SpacalDetector</text>
</a>
</g>
</g>
<!-- Node3&#45;&gt;Node7 -->
<g id="edge6" class="edge">
<title>Node3&#45;&gt;Node7</title>
<path fill="none" stroke="#191970" d="M1071.5346,-765.4428C1093.7996,-755.7414 1121.1593,-744.1391 1146,-734.5 1153.7404,-731.4964 1161.9092,-728.4593 1170.0284,-725.5211"/>
<polygon fill="#191970" stroke="#191970" points="1070.0842,-762.2569 1062.3266,-769.4729 1072.8909,-768.6696 1070.0842,-762.2569"/>
</g>
<!-- Node9 -->
<g id="node9" class="node">
<title>Node9</title>
<g id="a_node9"><a xlink:href="../../d1/df3/classPHG4CylinderGeomv2.html#ae660d920fd9c780b4cc92b92037aeb0e" target="_top" xlink:title="load parameters from PHParameters, which interface to Database/XML/ROOT files">
<polygon fill="none" stroke="#000000" points="370,-664.5 370,-696.5 498,-696.5 498,-664.5 370,-664.5"/>
<text text-anchor="start" x="378" y="-683.5" font-family="FreeSans" font-size="10.00" fill="#000000">PHG4CylinderGeomv2</text>
<text text-anchor="middle" x="434" y="-671.5" font-family="FreeSans" font-size="10.00" fill="#000000">::ImportParameters</text>
</a>
</g>
</g>
<!-- Node8&#45;&gt;Node9 -->
<g id="edge9" class="edge">
<title>Node8&#45;&gt;Node9</title>
<path fill="none" stroke="#191970" d="M317.2038,-680.5C334.5354,-680.5 352.8531,-680.5 369.7126,-680.5"/>
<polygon fill="#191970" stroke="#191970" points="317.1316,-677.0001 307.1316,-680.5 317.1315,-684.0001 317.1316,-677.0001"/>
</g>
<!-- Node9&#45;&gt;Node10 -->
<g id="edge10" class="edge">
<title>Node9&#45;&gt;Node10</title>
<path fill="none" stroke="#191970" d="M508.2336,-694.4312C517.6107,-696.191 527.2556,-698.0011 536.7671,-699.7861"/>
<polygon fill="#191970" stroke="#191970" points="508.6567,-690.9496 498.1827,-692.545 507.3656,-697.8295 508.6567,-690.9496"/>
</g>
<!-- Node10&#45;&gt;Node2 -->
<g id="edge11" class="edge">
<title>Node10&#45;&gt;Node2</title>
<path fill="none" stroke="#191970" d="M698.165,-733.8641C717.1137,-738.3446 737.237,-743.1028 755.6857,-747.4651"/>
<polygon fill="#191970" stroke="#191970" points="698.9153,-730.4451 688.3783,-731.55 697.3045,-737.2573 698.9153,-730.4451"/>
</g>
<!-- Node11 -->
<g id="node11" class="node">
<title>Node11</title>
<g id="a_node11"><a xlink:href="../../d0/da4/classPHG4SpacalDetector.html#ad8e9e19b20355493d0210934701d4f17" target="_top" xlink:title="PHG4SpacalDetector\l::PHG4SpacalDetector">
<polygon fill="none" stroke="#000000" points="759,-696.5 759,-728.5 888,-728.5 888,-696.5 759,-696.5"/>
<text text-anchor="start" x="767" y="-715.5" font-family="FreeSans" font-size="10.00" fill="#000000">PHG4SpacalDetector</text>
<text text-anchor="middle" x="823.5" y="-703.5" font-family="FreeSans" font-size="10.00" fill="#000000">::PHG4SpacalDetector</text>
</a>
</g>
</g>
<!-- Node10&#45;&gt;Node11 -->
<g id="edge12" class="edge">
<title>Node10&#45;&gt;Node11</title>
<path fill="none" stroke="#191970" d="M714.5665,-714.1099C729.5562,-713.8883 744.7633,-713.6636 758.8707,-713.4551"/>
<polygon fill="#191970" stroke="#191970" points="714.187,-710.615 704.2399,-714.2625 714.2905,-717.6142 714.187,-710.615"/>
</g>
<!-- Node14 -->
<g id="node14" class="node">
<title>Node14</title>
<g id="a_node14"><a xlink:href="../../df/d5e/classPHG4BlockCellReco.html#ae2234f60490d0fc28a3ca73d4bc531af" target="_top" xlink:title="PHG4BlockCellReco::\lSetDefaultParameters">
<polygon fill="none" stroke="#000000" points="370.5,-537.5 370.5,-569.5 497.5,-569.5 497.5,-537.5 370.5,-537.5"/>
<text text-anchor="start" x="378.5" y="-556.5" font-family="FreeSans" font-size="10.00" fill="#000000">PHG4BlockCellReco::</text>
<text text-anchor="middle" x="434" y="-544.5" font-family="FreeSans" font-size="10.00" fill="#000000">SetDefaultParameters</text>
</a>
</g>
</g>
<!-- Node13&#45;&gt;Node14 -->
<g id="edge16" class="edge">
<title>Node13&#45;&gt;Node14</title>
<path fill="none" stroke="#191970" d="M341.1475,-565.6535C351.0664,-564.3552 360.9472,-563.0619 370.3614,-561.8297"/>
<polygon fill="#191970" stroke="#191970" points="340.693,-562.183 331.2318,-566.9513 341.6015,-569.1238 340.693,-562.183"/>
</g>
<!-- Node16 -->
<g id="node16" class="node">
<title>Node16</title>
<g id="a_node16"><a xlink:href="../../d5/dd0/classPHG4CylinderCellReco.html#ad65ddf63cd840e9841ebc831b8b1c392" target="_top" xlink:title="PHG4CylinderCellReco\l::SetDefaultParameters">
<polygon fill="none" stroke="#000000" points="367,-588.5 367,-620.5 501,-620.5 501,-588.5 367,-588.5"/>
<text text-anchor="start" x="375" y="-607.5" font-family="FreeSans" font-size="10.00" fill="#000000">PHG4CylinderCellReco</text>
<text text-anchor="middle" x="434" y="-595.5" font-family="FreeSans" font-size="10.00" fill="#000000">::SetDefaultParameters</text>
</a>
</g>
</g>
<!-- Node13&#45;&gt;Node16 -->
<g id="edge18" class="edge">
<title>Node13&#45;&gt;Node16</title>
<path fill="none" stroke="#191970" d="M341.3955,-591.8942C350.0556,-593.073 358.6839,-594.2475 366.9952,-595.3789"/>
<polygon fill="#191970" stroke="#191970" points="341.6126,-588.3915 331.2318,-590.5106 340.6683,-595.3275 341.6126,-588.3915"/>
</g>
<!-- Node15 -->
<g id="node15" class="node">
<title>Node15</title>
<g id="a_node15"><a xlink:href="../../df/d5e/classPHG4BlockCellReco.html#a2f7de5c81029953c507636c26df6f34b" target="_top" xlink:title="PHG4BlockCellReco::\lPHG4BlockCellReco">
<polygon fill="none" stroke="#000000" points="560,-537.5 560,-569.5 681,-569.5 681,-537.5 560,-537.5"/>
<text text-anchor="start" x="568" y="-556.5" font-family="FreeSans" font-size="10.00" fill="#000000">PHG4BlockCellReco::</text>
<text text-anchor="middle" x="620.5" y="-544.5" font-family="FreeSans" font-size="10.00" fill="#000000">PHG4BlockCellReco</text>
</a>
</g>
</g>
<!-- Node14&#45;&gt;Node15 -->
<g id="edge17" class="edge">
<title>Node14&#45;&gt;Node15</title>
<path fill="none" stroke="#191970" d="M507.728,-553.5C525.0429,-553.5 543.2978,-553.5 559.9579,-553.5"/>
<polygon fill="#191970" stroke="#191970" points="507.6611,-550.0001 497.6611,-553.5 507.6611,-557.0001 507.6611,-550.0001"/>
</g>
<!-- Node17 -->
<g id="node17" class="node">
<title>Node17</title>
<g id="a_node17"><a xlink:href="../../d5/dd0/classPHG4CylinderCellReco.html#a1098d61b960b7de6b26f564292a5fa90" target="_top" xlink:title="PHG4CylinderCellReco\l::PHG4CylinderCellReco">
<polygon fill="none" stroke="#000000" points="552.5,-588.5 552.5,-620.5 688.5,-620.5 688.5,-588.5 552.5,-588.5"/>
<text text-anchor="start" x="560.5" y="-607.5" font-family="FreeSans" font-size="10.00" fill="#000000">PHG4CylinderCellReco</text>
<text text-anchor="middle" x="620.5" y="-595.5" font-family="FreeSans" font-size="10.00" fill="#000000">::PHG4CylinderCellReco</text>
</a>
</g>
</g>
<!-- Node16&#45;&gt;Node17 -->
<g id="edge19" class="edge">
<title>Node16&#45;&gt;Node17</title>
<path fill="none" stroke="#191970" d="M511.3801,-604.5C525.0112,-604.5 539.1084,-604.5 552.4601,-604.5"/>
<polygon fill="#191970" stroke="#191970" points="511.0673,-601.0001 501.0673,-604.5 511.0673,-608.0001 511.0673,-601.0001"/>
</g>
<!-- Node19 -->
<g id="node19" class="node">
<title>Node19</title>
<g id="a_node19"><a xlink:href="../../d5/dd0/classPHG4CylinderCellReco.html#a8e774e299dece3ffe63a748793c87cc1" target="_top" xlink:title="PHG4CylinderCellReco\l::cellsize">
<polygon fill="none" stroke="#000000" points="369.5,-353.5 369.5,-385.5 498.5,-385.5 498.5,-353.5 369.5,-353.5"/>
<text text-anchor="start" x="377.5" y="-372.5" font-family="FreeSans" font-size="10.00" fill="#000000">PHG4CylinderCellReco</text>
<text text-anchor="middle" x="434" y="-360.5" font-family="FreeSans" font-size="10.00" fill="#000000">::cellsize</text>
</a>
</g>
</g>
<!-- Node18&#45;&gt;Node19 -->
<g id="edge21" class="edge">
<title>Node18&#45;&gt;Node19</title>
<path fill="none" stroke="#191970" d="M341.1544,-357.3474C350.6791,-358.5941 360.1686,-359.8362 369.2435,-361.024"/>
<polygon fill="#191970" stroke="#191970" points="341.6015,-353.8762 331.2318,-356.0487 340.693,-360.817 341.6015,-353.8762"/>
</g>
<!-- Node39 -->
<g id="node39" class="node">
<title>Node39</title>
<g id="a_node39"><a xlink:href="../../d5/dd0/classPHG4CylinderCellReco.html#abbd15ecbd41cf3e68196cbcab1fd4e2c" target="_top" xlink:title="PHG4CylinderCellReco\l::etaphisize">
<polygon fill="none" stroke="#000000" points="369.5,-302.5 369.5,-334.5 498.5,-334.5 498.5,-302.5 369.5,-302.5"/>
<text text-anchor="start" x="377.5" y="-321.5" font-family="FreeSans" font-size="10.00" fill="#000000">PHG4CylinderCellReco</text>
<text text-anchor="middle" x="434" y="-309.5" font-family="FreeSans" font-size="10.00" fill="#000000">::etaphisize</text>
</a>
</g>
</g>
<!-- Node18&#45;&gt;Node39 -->
<g id="edge41" class="edge">
<title>Node18&#45;&gt;Node39</title>
<path fill="none" stroke="#191970" d="M341.1544,-331.1387C350.6791,-329.8421 360.1686,-328.5503 369.2435,-327.315"/>
<polygon fill="#191970" stroke="#191970" points="340.6683,-327.6725 331.2318,-332.4894 341.6126,-334.6085 340.6683,-327.6725"/>
</g>
<!-- Node41 -->
<g id="node41" class="node">
<title>Node41</title>
<g id="a_node41"><a xlink:href="../../df/d5e/classPHG4BlockCellReco.html#a5d39419017e6f11365c09ccd90c6b40e" target="_top" xlink:title="PHG4BlockCellReco::\letaxsize">
<polygon fill="none" stroke="#000000" points="373.5,-251.5 373.5,-283.5 494.5,-283.5 494.5,-251.5 373.5,-251.5"/>
<text text-anchor="start" x="381.5" y="-270.5" font-family="FreeSans" font-size="10.00" fill="#000000">PHG4BlockCellReco::</text>
<text text-anchor="middle" x="434" y="-258.5" font-family="FreeSans" font-size="10.00" fill="#000000">etaxsize</text>
</a>
</g>
</g>
<!-- Node18&#45;&gt;Node41 -->
<g id="edge43" class="edge">
<title>Node18&#45;&gt;Node41</title>
<path fill="none" stroke="#191970" d="M289.5416,-324.4646C312.7298,-314.6148 341.248,-302.6994 367,-292.5 374.5029,-289.5284 382.5151,-286.4541 390.2943,-283.5208"/>
<polygon fill="#191970" stroke="#191970" points="288.1107,-321.2697 280.2819,-328.4083 290.8537,-327.7099 288.1107,-321.2697"/>
</g>
<!-- Node42 -->
<g id="node42" class="node">
<title>Node42</title>
<g id="a_node42"><a xlink:href="../../df/d5e/classPHG4BlockCellReco.html#a813c41dc4a623c245426661905304e41" target="_top" xlink:title="PHG4BlockCellReco::\lset_timing_window">
<polygon fill="none" stroke="#000000" points="373.5,-200.5 373.5,-232.5 494.5,-232.5 494.5,-200.5 373.5,-200.5"/>
<text text-anchor="start" x="381.5" y="-219.5" font-family="FreeSans" font-size="10.00" fill="#000000">PHG4BlockCellReco::</text>
<text text-anchor="middle" x="434" y="-207.5" font-family="FreeSans" font-size="10.00" fill="#000000">set_timing_window</text>
</a>
</g>
</g>
<!-- Node18&#45;&gt;Node42 -->
<g id="edge44" class="edge">
<title>Node18&#45;&gt;Node42</title>
<path fill="none" stroke="#191970" d="M266.3234,-320.9616C289.9777,-298.1486 328.4927,-263.8115 367,-241.5 372.6935,-238.2012 378.9012,-235.1967 385.1663,-232.5061"/>
<polygon fill="#191970" stroke="#191970" points="263.599,-318.7303 258.8927,-328.2224 268.4912,-323.7369 263.599,-318.7303"/>
</g>
<!-- Node43 -->
<g id="node43" class="node">
<title>Node43</title>
<g id="a_node43"><a xlink:href="../../d5/dd0/classPHG4CylinderCellReco.html#a2ab7baca05738b086177de3cea8928d1" target="_top" xlink:title="PHG4CylinderCellReco\l::set_timing_window">
<polygon fill="none" stroke="#000000" points="369.5,-404.5 369.5,-436.5 498.5,-436.5 498.5,-404.5 369.5,-404.5"/>
<text text-anchor="start" x="377.5" y="-423.5" font-family="FreeSans" font-size="10.00" fill="#000000">PHG4CylinderCellReco</text>
<text text-anchor="middle" x="434" y="-411.5" font-family="FreeSans" font-size="10.00" fill="#000000">::set_timing_window</text>
</a>
</g>
</g>
<!-- Node18&#45;&gt;Node43 -->
<g id="edge45" class="edge">
<title>Node18&#45;&gt;Node43</title>
<path fill="none" stroke="#191970" d="M291.7858,-364.3434C314.6043,-373.5806 342.1646,-384.6746 367,-394.5 375.2375,-397.7589 384.0594,-401.2101 392.5078,-404.4962"/>
<polygon fill="#191970" stroke="#191970" points="292.9009,-361.0189 282.3185,-360.5073 290.2722,-367.5065 292.9009,-361.0189"/>
</g>
<!-- Node20 -->
<g id="node20" class="node">
<title>Node20</title>
<g id="a_node20"><a xlink:href="../../d8/d4c/G4__CEmc__EIC_8C.html#ab555024f512a193bc7b10d42a92453c8" target="_top" xlink:title="CEMC_Cells">
<polygon fill="none" stroke="#000000" points="583.5,-372.5 583.5,-392.5 657.5,-392.5 657.5,-372.5 583.5,-372.5"/>
<text text-anchor="middle" x="620.5" y="-379.5" font-family="FreeSans" font-size="10.00" fill="#000000">CEMC_Cells</text>
</a>
</g>
</g>
<!-- Node19&#45;&gt;Node20 -->
<g id="edge22" class="edge">
<title>Node19&#45;&gt;Node20</title>
<path fill="none" stroke="#191970" d="M508.7954,-374.7136C534.4385,-376.5011 562.0211,-378.4237 583.3617,-379.9113"/>
<polygon fill="#191970" stroke="#191970" points="508.9244,-371.2142 498.7052,-374.0103 508.4376,-378.1973 508.9244,-371.2142"/>
</g>
<!-- Node38 -->
<g id="node38" class="node">
<title>Node38</title>
<g id="a_node38"><a xlink:href="../../da/d2a/G4__Svtx_8C.html#a00bd04a6f4913969f594f34ed348c1f7" target="_top" xlink:title="Svtx_Cells">
<polygon fill="none" stroke="#000000" points="586.5,-333.5 586.5,-353.5 654.5,-353.5 654.5,-333.5 586.5,-333.5"/>
<text text-anchor="middle" x="620.5" y="-340.5" font-family="FreeSans" font-size="10.00" fill="#000000">Svtx_Cells</text>
</a>
</g>
</g>
<!-- Node19&#45;&gt;Node38 -->
<g id="edge40" class="edge">
<title>Node19&#45;&gt;Node38</title>
<path fill="none" stroke="#191970" d="M508.8587,-359.0639C535.6719,-355.3259 564.5976,-351.2934 586.2862,-348.2697"/>
<polygon fill="#191970" stroke="#191970" points="508.1262,-355.6321 498.7052,-360.4794 509.0928,-362.5651 508.1262,-355.6321"/>
</g>
<!-- Node21 -->
<g id="node21" class="node">
<title>Node21</title>
<g id="a_node21"><a xlink:href="../../d3/d7f/Fun_8C.html#af0d3c8a78765149fef9b2beeecfc6279" target="_top" xlink:title="ConfigureDetectors">
<polygon fill="none" stroke="#000000" points="766.5,-540.5 766.5,-560.5 880.5,-560.5 880.5,-540.5 766.5,-540.5"/>
<text text-anchor="middle" x="823.5" y="-547.5" font-family="FreeSans" font-size="10.00" fill="#000000">ConfigureDetectors</text>
</a>
</g>
</g>
<!-- Node20&#45;&gt;Node21 -->
<g id="edge23" class="edge">
<title>Node20&#45;&gt;Node21</title>
<path fill="none" stroke="#191970" d="M630.5454,-401.8827C648.1813,-433.8992 687.846,-497.5607 740,-530.5 747.9401,-535.5148 757.0291,-539.2726 766.2207,-542.0884"/>
<polygon fill="#191970" stroke="#191970" points="633.4185,-399.8347 625.6056,-392.6787 627.2507,-403.1451 633.4185,-399.8347"/>
</g>
<!-- Node23 -->
<g id="node23" class="node">
<title>Node23</title>
<g id="a_node23"><a xlink:href="../../da/d02/Fun4All__G4__EICDetector_8C.html#afbe82cefa1d1fd031d9a8586b7bb68c6" target="_top" xlink:title="Fun4All_G4_EICDetector">
<polygon fill="none" stroke="#000000" points="754,-501.5 754,-521.5 893,-521.5 893,-501.5 754,-501.5"/>
<text text-anchor="middle" x="823.5" y="-508.5" font-family="FreeSans" font-size="10.00" fill="#000000">Fun4All_G4_EICDetector</text>
</a>
</g>
</g>
<!-- Node20&#45;&gt;Node23 -->
<g id="edge25" class="edge">
<title>Node20&#45;&gt;Node23</title>
<path fill="none" stroke="#191970" d="M635.0285,-400.5366C655.7151,-424.9728 696.0533,-468.2123 740,-491.5 747.6395,-495.5482 756.1034,-498.7887 764.6261,-501.3796"/>
<polygon fill="#191970" stroke="#191970" points="637.6375,-398.1998 628.5572,-392.7409 632.2514,-402.6709 637.6375,-398.1998"/>
</g>
<!-- Node24 -->
<g id="node24" class="node">
<title>Node24</title>
<g id="a_node24"><a xlink:href="../../dd/d2a/Fun4All__G4__EICDetector__LQ_8C.html#aaa01242fd6e77ca43a9d49a6d46008e4" target="_top" xlink:title="Fun4All_G4_EICDetector_LQ">
<polygon fill="none" stroke="#000000" points="745.5,-462.5 745.5,-482.5 901.5,-482.5 901.5,-462.5 745.5,-462.5"/>
<text text-anchor="middle" x="823.5" y="-469.5" font-family="FreeSans" font-size="10.00" fill="#000000">Fun4All_G4_EICDetector_LQ</text>
</a>
</g>
</g>
<!-- Node20&#45;&gt;Node24 -->
<g id="edge26" class="edge">
<title>Node20&#45;&gt;Node24</title>
<path fill="none" stroke="#191970" d="M642.961,-398.3924C666.2355,-414.1878 704.1599,-438.0813 740,-452.5 749.8189,-456.4502 760.6141,-459.7476 771.0889,-462.4506"/>
<polygon fill="#191970" stroke="#191970" points="644.7274,-395.3593 634.5059,-392.5714 640.7579,-401.125 644.7274,-395.3593"/>
</g>
<!-- Node25 -->
<g id="node25" class="node">
<title>Node25</title>
<g id="a_node25"><a xlink:href="../../d4/df5/Fun4All__G4__EICDetector__LQ__reference_8C.html#a2feefc472f17f90b3cbe74897d049f75" target="_top" xlink:title="Fun4All_G4_EICDetector\l_LQ_reference">
<polygon fill="none" stroke="#000000" points="754,-411.5 754,-443.5 893,-443.5 893,-411.5 754,-411.5"/>
<text text-anchor="start" x="762" y="-430.5" font-family="FreeSans" font-size="10.00" fill="#000000">Fun4All_G4_EICDetector</text>
<text text-anchor="middle" x="823.5" y="-418.5" font-family="FreeSans" font-size="10.00" fill="#000000">_LQ_reference</text>
</a>
</g>
</g>
<!-- Node20&#45;&gt;Node25 -->
<g id="edge27" class="edge">
<title>Node20&#45;&gt;Node25</title>
<path fill="none" stroke="#191970" d="M667.5435,-392.9284C693.1072,-398.5952 725.2179,-405.7133 753.6478,-412.0155"/>
<polygon fill="#191970" stroke="#191970" points="668.2538,-389.5009 657.7333,-390.7537 666.7388,-396.335 668.2538,-389.5009"/>
</g>
<!-- Node26 -->
<g id="node26" class="node">
<title>Node26</title>
<g id="a_node26"><a xlink:href="../../d3/d51/Fun4All__G4__EICDetector__RICH_8C.html#a5739502b0a7a1ba782c01069f77e933f" target="_top" xlink:title="Fun4All_G4_EICDetector_RICH">
<polygon fill="none" stroke="#000000" points="740,-372.5 740,-392.5 907,-392.5 907,-372.5 740,-372.5"/>
<text text-anchor="middle" x="823.5" y="-379.5" font-family="FreeSans" font-size="10.00" fill="#000000">Fun4All_G4_EICDetector_RICH</text>
</a>
</g>
</g>
<!-- Node20&#45;&gt;Node26 -->
<g id="edge28" class="edge">
<title>Node20&#45;&gt;Node26</title>
<path fill="none" stroke="#191970" d="M667.8571,-382.5C689.2772,-382.5 715.2457,-382.5 739.783,-382.5"/>
<polygon fill="#191970" stroke="#191970" points="667.7334,-379.0001 657.7333,-382.5 667.7333,-386.0001 667.7334,-379.0001"/>
</g>
<!-- Node27 -->
<g id="node27" class="node">
<title>Node27</title>
<g id="a_node27"><a xlink:href="../../d7/d9e/Fun4All__G4__fsPHENIX_8C.html#af48911d394d2412e817583700f2bbee2" target="_top" xlink:title="Fun4All_G4_fsPHENIX">
<polygon fill="none" stroke="#000000" points="761.5,-333.5 761.5,-353.5 885.5,-353.5 885.5,-333.5 761.5,-333.5"/>
<text text-anchor="middle" x="823.5" y="-340.5" font-family="FreeSans" font-size="10.00" fill="#000000">Fun4All_G4_fsPHENIX</text>
</a>
</g>
</g>
<!-- Node20&#45;&gt;Node27 -->
<g id="edge29" class="edge">
<title>Node20&#45;&gt;Node27</title>
<path fill="none" stroke="#191970" d="M667.8455,-373.4041C698.8156,-367.4541 739.2976,-359.6768 771.2142,-353.5451"/>
<polygon fill="#191970" stroke="#191970" points="666.8934,-370.0229 657.7333,-375.3468 668.2141,-376.8972 666.8934,-370.0229"/>
</g>
<!-- Node28 -->
<g id="node28" class="node">
<title>Node28</title>
<g id="a_node28"><a xlink:href="../../da/d2f/Fun4All__G4__fsPHENIX__FastSim_8C.html#a66fb850cae5fcaadda23b74a25ce4c9c" target="_top" xlink:title="Fun4All_G4_fsPHENIX\l_FastSim">
<polygon fill="none" stroke="#000000" points="761.5,-282.5 761.5,-314.5 885.5,-314.5 885.5,-282.5 761.5,-282.5"/>
<text text-anchor="start" x="769.5" y="-301.5" font-family="FreeSans" font-size="10.00" fill="#000000">Fun4All_G4_fsPHENIX</text>
<text text-anchor="middle" x="823.5" y="-289.5" font-family="FreeSans" font-size="10.00" fill="#000000">_FastSim</text>
</a>
</g>
</g>
<!-- Node20&#45;&gt;Node28 -->
<g id="edge30" class="edge">
<title>Node20&#45;&gt;Node28</title>
<path fill="none" stroke="#191970" d="M667.4271,-376.3326C679.8861,-373.3686 692.9396,-368.9839 704,-362.5 724.35,-350.5702 719.9908,-335.993 740,-323.5 746.5463,-319.4127 753.7982,-315.9618 761.2149,-313.0558"/>
<polygon fill="#191970" stroke="#191970" points="666.6663,-372.9161 657.6122,-378.4182 668.1213,-379.7632 666.6663,-372.9161"/>
</g>
<!-- Node29 -->
<g id="node29" class="node">
<title>Node29</title>
<g id="a_node29"><a xlink:href="../../d0/da6/Fun4All__G4__fsPHENIX__pi0_8C.html#a023d91d47b678e5d7f1751834aa517c6" target="_top" xlink:title="Fun4All_G4_fsPHENIX_pi0">
<polygon fill="none" stroke="#000000" points="751,-243.5 751,-263.5 896,-263.5 896,-243.5 751,-243.5"/>
<text text-anchor="middle" x="823.5" y="-250.5" font-family="FreeSans" font-size="10.00" fill="#000000">Fun4All_G4_fsPHENIX_pi0</text>
</a>
</g>
</g>
<!-- Node20&#45;&gt;Node29 -->
<g id="edge31" class="edge">
<title>Node20&#45;&gt;Node29</title>
<path fill="none" stroke="#191970" d="M667.4712,-379.2477C680.5018,-376.3538 693.8442,-371.2769 704,-362.5 736.5955,-334.3303 707.245,-300.4841 740,-272.5 744.1823,-268.9269 748.8999,-265.9897 753.9107,-263.5793"/>
<polygon fill="#191970" stroke="#191970" points="666.8263,-375.8075 657.6253,-381.0603 668.0938,-382.6918 666.8263,-375.8075"/>
</g>
<!-- Node30 -->
<g id="node30" class="node">
<title>Node30</title>
<g id="a_node30"><a xlink:href="../../d5/d2c/macros_2blob_2master_2macros_2g4simulations_2Fun4All__G4__sPHENIX_8C.html#a6eaaa492d7023ec86c562dc63aa1e5a4" target="_top" xlink:title="Fun4All_G4_sPHENIX">
<polygon fill="none" stroke="#000000" points="763,-204.5 763,-224.5 884,-224.5 884,-204.5 763,-204.5"/>
<text text-anchor="middle" x="823.5" y="-211.5" font-family="FreeSans" font-size="10.00" fill="#000000">Fun4All_G4_sPHENIX</text>
</a>
</g>
</g>
<!-- Node20&#45;&gt;Node30 -->
<g id="edge32" class="edge">
<title>Node20&#45;&gt;Node30</title>
<path fill="none" stroke="#191970" d="M667.7428,-380.0006C680.9035,-377.1425 694.2488,-371.8964 704,-362.5 746.8624,-321.1971 696.9038,-274.5588 740,-233.5 746.4584,-227.3469 754.4762,-223.0344 762.9677,-220.0377"/>
<polygon fill="#191970" stroke="#191970" points="667.0216,-376.5736 657.7773,-381.7499 668.2319,-383.4682 667.0216,-376.5736"/>
</g>
<!-- Node31 -->
<g id="node31" class="node">
<title>Node31</title>
<g id="a_node31"><a xlink:href="../../d3/de2/Fun4All__G4__sPHENIX__AnaGenFit_8C.html#a9bf3f2f72ed69a17e2d0c1121d48013c" target="_top" xlink:title="Fun4All_G4_sPHENIX\l_AnaGenFit">
<polygon fill="none" stroke="#000000" points="763,-153.5 763,-185.5 884,-185.5 884,-153.5 763,-153.5"/>
<text text-anchor="start" x="771" y="-172.5" font-family="FreeSans" font-size="10.00" fill="#000000">Fun4All_G4_sPHENIX</text>
<text text-anchor="middle" x="823.5" y="-160.5" font-family="FreeSans" font-size="10.00" fill="#000000">_AnaGenFit</text>
</a>
</g>
</g>
<!-- Node20&#45;&gt;Node31 -->
<g id="edge33" class="edge">
<title>Node20&#45;&gt;Node31</title>
<path fill="none" stroke="#191970" d="M667.76,-380.4411C681.0465,-377.614 694.4572,-372.2746 704,-362.5 757.3441,-307.8601 688.2013,-250.6071 740,-194.5 746.2615,-187.7177 754.28,-182.7481 762.8626,-179.1125"/>
<polygon fill="#191970" stroke="#191970" points="666.9659,-377.0256 657.69,-382.145 668.1338,-383.9275 666.9659,-377.0256"/>
</g>
<!-- Node32 -->
<g id="node32" class="node">
<title>Node32</title>
<g id="a_node32"><a xlink:href="../../da/dd0/Fun4All__G4__sPHENIX__photonjet_8C.html#a6f18519e216acc05399e562ea57ea77c" target="_top" xlink:title="Fun4All_G4_sPHENIX\l_photonjet">
<polygon fill="none" stroke="#000000" points="763,-102.5 763,-134.5 884,-134.5 884,-102.5 763,-102.5"/>
<text text-anchor="start" x="771" y="-121.5" font-family="FreeSans" font-size="10.00" fill="#000000">Fun4All_G4_sPHENIX</text>
<text text-anchor="middle" x="823.5" y="-109.5" font-family="FreeSans" font-size="10.00" fill="#000000">_photonjet</text>
</a>
</g>
</g>
<!-- Node20&#45;&gt;Node32 -->
<g id="edge34" class="edge">
<title>Node20&#45;&gt;Node32</title>
<path fill="none" stroke="#191970" d="M667.7076,-380.7946C681.12,-377.9991 694.6144,-372.5886 704,-362.5 771.1872,-290.2805 674.8542,-217.5662 740,-143.5 746.1963,-136.4552 754.2889,-131.3564 762.9959,-127.6742"/>
<polygon fill="#191970" stroke="#191970" points="666.8411,-377.3897 657.5365,-382.4568 667.9701,-384.2981 666.8411,-377.3897"/>
</g>
<!-- Node33 -->
<g id="node33" class="node">
<title>Node33</title>
<g id="a_node33"><a xlink:href="../../da/d85/Fun4All__G4__sPHENIX__photons_8C.html#a02fbbd59878fe1299f58ed187e7214ba" target="_top" xlink:title="Fun4All_G4_sPHENIX\l_photons">
<polygon fill="none" stroke="#000000" points="763,-51.5 763,-83.5 884,-83.5 884,-51.5 763,-51.5"/>
<text text-anchor="start" x="771" y="-70.5" font-family="FreeSans" font-size="10.00" fill="#000000">Fun4All_G4_sPHENIX</text>
<text text-anchor="middle" x="823.5" y="-58.5" font-family="FreeSans" font-size="10.00" fill="#000000">_photons</text>
</a>
</g>
</g>
<!-- Node20&#45;&gt;Node33 -->
<g id="edge35" class="edge">
<title>Node20&#45;&gt;Node33</title>
<path fill="none" stroke="#191970" d="M667.8965,-380.9677C681.3171,-378.1798 694.7687,-372.7299 704,-362.5 785.1043,-272.6217 661.4353,-184.6064 740,-92.5 746.0886,-85.362 754.1257,-80.215 762.8104,-76.5135"/>
<polygon fill="#191970" stroke="#191970" points="667.0228,-377.5635 657.7102,-382.6159 668.1409,-384.4736 667.0228,-377.5635"/>
</g>
<!-- Node34 -->
<g id="node34" class="node">
<title>Node34</title>
<g id="a_node34"><a xlink:href="../../de/d55/Fun4All__G4__sPHENIX__truthphotonjet_8C.html#a48a6f4503eaa1b3793d8ae572aa795b9" target="_top" xlink:title="Fun4All_G4_sPHENIX\l_truthphotonjet">
<polygon fill="none" stroke="#000000" points="763,-.5 763,-32.5 884,-32.5 884,-.5 763,-.5"/>
<text text-anchor="start" x="771" y="-19.5" font-family="FreeSans" font-size="10.00" fill="#000000">Fun4All_G4_sPHENIX</text>
<text text-anchor="middle" x="823.5" y="-7.5" font-family="FreeSans" font-size="10.00" fill="#000000">_truthphotonjet</text>
</a>
</g>
</g>
<!-- Node20&#45;&gt;Node34 -->
<g id="edge36" class="edge">
<title>Node20&#45;&gt;Node34</title>
<path fill="none" stroke="#191970" d="M668.0279,-381.085C681.4542,-378.3021 694.876,-372.8257 704,-362.5 799.06,-254.9204 647.979,-151.6903 740,-41.5 746.0138,-34.2988 754.0123,-29.1193 762.6815,-25.4047"/>
<polygon fill="#191970" stroke="#191970" points="667.1489,-377.6813 657.831,-382.7238 668.2597,-384.5926 667.1489,-377.6813"/>
</g>
<!-- Node35 -->
<g id="node35" class="node">
<title>Node35</title>
<g id="a_node35"><a xlink:href="../../d4/d65/Fun4All__single__particle_8C.html#a8a492b5dbead494bfdddbebde8a49b0e" target="_top" xlink:title="Fun4All_single_particle">
<polygon fill="none" stroke="#000000" points="757.5,-657.5 757.5,-677.5 889.5,-677.5 889.5,-657.5 757.5,-657.5"/>
<text text-anchor="middle" x="823.5" y="-664.5" font-family="FreeSans" font-size="10.00" fill="#000000">Fun4All_single_particle</text>
</a>
</g>
</g>
<!-- Node20&#45;&gt;Node35 -->
<g id="edge37" class="edge">
<title>Node20&#45;&gt;Node35</title>
<path fill="none" stroke="#191970" d="M633.06,-401.045C650.8289,-427.9375 683.4284,-479.7738 704,-527.5 726.0404,-578.6338 699.5333,-609.2522 740,-647.5 744.9833,-652.2101 750.8718,-655.8732 757.1792,-658.7136"/>
<polygon fill="#191970" stroke="#191970" points="635.9,-398.9954 627.4374,-392.6207 630.0776,-402.8813 635.9,-398.9954"/>
</g>
<!-- Node36 -->
<g id="node36" class="node">
<title>Node36</title>
<g id="a_node36"><a xlink:href="../../d0/d99/Jin__BJet_8C.html#a36169bfee2ed7efda633944d12aebad9" target="_top" xlink:title="Jin_BJet">
<polygon fill="none" stroke="#000000" points="796,-618.5 796,-638.5 851,-638.5 851,-618.5 796,-618.5"/>
<text text-anchor="middle" x="823.5" y="-625.5" font-family="FreeSans" font-size="10.00" fill="#000000">Jin_BJet</text>
</a>
</g>
</g>
<!-- Node20&#45;&gt;Node36 -->
<g id="edge38" class="edge">
<title>Node20&#45;&gt;Node36</title>
<path fill="none" stroke="#191970" d="M632.2487,-401.4256C649.033,-428.78 680.4467,-481.1727 704,-527.5 721.8541,-562.6174 709.7127,-583.3071 740,-608.5 755.5858,-621.4643 778.1777,-626.2986 795.9328,-627.9821"/>
<polygon fill="#191970" stroke="#191970" points="635.1861,-399.5208 626.9589,-392.8452 629.2275,-403.1943 635.1861,-399.5208"/>
</g>
<!-- Node37 -->
<g id="node37" class="node">
<title>Node37</title>
<g id="a_node37"><a xlink:href="../../dd/db1/Wrapper_8cxx.html#abf1e42281903daa0752c80dd6c879fac" target="_top" xlink:title="Wrapper">
<polygon fill="none" stroke="#000000" points="793.5,-579.5 793.5,-599.5 853.5,-599.5 853.5,-579.5 793.5,-579.5"/>
<text text-anchor="middle" x="823.5" y="-586.5" font-family="FreeSans" font-size="10.00" fill="#000000">Wrapper</text>
</a>
</g>
</g>
<!-- Node20&#45;&gt;Node37 -->
<g id="edge39" class="edge">
<title>Node20&#45;&gt;Node37</title>
<path fill="none" stroke="#191970" d="M631.4766,-401.3917C657.897,-446.6027 724.0265,-558.1294 740,-569.5 755.5443,-580.5651 776.4193,-585.5651 793.4082,-587.7988"/>
<polygon fill="#191970" stroke="#191970" points="634.3977,-399.453 626.3376,-392.5765 628.3503,-402.9784 634.3977,-399.453"/>
</g>
<!-- Node22 -->
<g id="node22" class="node">
<title>Node22</title>
<g id="a_node22"><a xlink:href="../../d3/d7f/Fun_8C.html#af69a3eef3ff244bb51f5740c6ecb5432" target="_top" xlink:title="Fun">
<polygon fill="none" stroke="#000000" points="1009.5,-540.5 1009.5,-560.5 1043.5,-560.5 1043.5,-540.5 1009.5,-540.5"/>
<text text-anchor="middle" x="1026.5" y="-547.5" font-family="FreeSans" font-size="10.00" fill="#000000">Fun</text>
</a>
</g>
</g>
<!-- Node21&#45;&gt;Node22 -->
<g id="edge24" class="edge">
<title>Node21&#45;&gt;Node22</title>
<path fill="none" stroke="#191970" d="M890.7185,-550.5C932.4757,-550.5 983.0043,-550.5 1009.0675,-550.5"/>
<polygon fill="#191970" stroke="#191970" points="890.5871,-547.0001 880.587,-550.5 890.587,-554.0001 890.5871,-547.0001"/>
</g>
<!-- Node40 -->
<g id="node40" class="node">
<title>Node40</title>
<g id="a_node40"><a xlink:href="../../d8/d91/Fun4All__G4__Clusters_8C.html#ab7d8e64f12f512631d4c0e8c6683ec5b" target="_top" xlink:title="Fun4All_G4_Clusters">
<polygon fill="none" stroke="#000000" points="561,-294.5 561,-314.5 680,-314.5 680,-294.5 561,-294.5"/>
<text text-anchor="middle" x="620.5" y="-301.5" font-family="FreeSans" font-size="10.00" fill="#000000">Fun4All_G4_Clusters</text>
</a>
</g>
</g>
<!-- Node39&#45;&gt;Node40 -->
<g id="edge42" class="edge">
<title>Node39&#45;&gt;Node40</title>
<path fill="none" stroke="#191970" d="M508.7878,-312.8859C526.1186,-311.5849 544.3357,-310.2174 560.9133,-308.973"/>
<polygon fill="#191970" stroke="#191970" points="508.4152,-309.4039 498.7052,-313.6428 508.9392,-316.3843 508.4152,-309.4039"/>
</g>
</g>
</svg>
