<?xml version="1.0" encoding="UTF-8" standalone="no"?>
<!DOCTYPE svg PUBLIC "-//W3C//DTD SVG 1.1//EN"
 "http://www.w3.org/Graphics/SVG/1.1/DTD/svg11.dtd">
<!-- Generated by graphviz version 2.40.1 (20161225.0304)
 -->
<!-- Title: PHParameters::printdouble Pages: 1 -->
<svg width="965pt" height="686pt"
 viewBox="0.00 0.00 965.00 686.00" xmlns="http://www.w3.org/2000/svg" xmlns:xlink="http://www.w3.org/1999/xlink">
<g id="graph0" class="graph" transform="scale(1 1) rotate(0) translate(4 682)">
<title>PHParameters::printdouble</title>
<!-- Node1 -->
<g id="node1" class="node">
<title>Node1</title>
<polygon fill="#bfbfbf" stroke="#000000" points="0,-205.5 0,-225.5 152,-225.5 152,-205.5 0,-205.5"/>
<text text-anchor="middle" x="76" y="-212.5" font-family="FreeSans" font-size="10.00" fill="#000000">PHParameters::printdouble</text>
</g>
<!-- Node2 -->
<g id="node2" class="node">
<title>Node2</title>
<g id="a_node2"><a xlink:href="../../da/d11/classPHParameterContainerInterface.html#a2a28e69d116516f52e2848a9a6a6f50a" target="_top" xlink:title="PHParameterContainerInterface\l::set_double_param">
<polygon fill="none" stroke="#000000" points="188,-199.5 188,-231.5 364,-231.5 364,-199.5 188,-199.5"/>
<text text-anchor="start" x="196" y="-218.5" font-family="FreeSans" font-size="10.00" fill="#000000">PHParameterContainerInterface</text>
<text text-anchor="middle" x="276" y="-206.5" font-family="FreeSans" font-size="10.00" fill="#000000">::set_double_param</text>
</a>
</g>
</g>
<!-- Node1&#45;&gt;Node2 -->
<g id="edge1" class="edge">
<title>Node1&#45;&gt;Node2</title>
<path fill="none" stroke="#191970" d="M162.4283,-215.5C170.896,-215.5 179.496,-215.5 187.9792,-215.5"/>
<polygon fill="#191970" stroke="#191970" points="162.182,-212.0001 152.182,-215.5 162.1819,-219.0001 162.182,-212.0001"/>
</g>
<!-- Node3 -->
<g id="node3" class="node">
<title>Node3</title>
<g id="a_node3"><a xlink:href="../../d5/dd0/classPHG4CylinderCellReco.html#a8e774e299dece3ffe63a748793c87cc1" target="_top" xlink:title="PHG4CylinderCellReco\l::cellsize">
<polygon fill="none" stroke="#000000" points="400,-301.5 400,-333.5 529,-333.5 529,-301.5 400,-301.5"/>
<text text-anchor="start" x="408" y="-320.5" font-family="FreeSans" font-size="10.00" fill="#000000">PHG4CylinderCellReco</text>
<text text-anchor="middle" x="464.5" y="-308.5" font-family="FreeSans" font-size="10.00" fill="#000000">::cellsize</text>
</a>
</g>
</g>
<!-- Node2&#45;&gt;Node3 -->
<g id="edge2" class="edge">
<title>Node2&#45;&gt;Node3</title>
<path fill="none" stroke="#191970" d="M308.1008,-237.2266C332.6485,-253.3299 367.6634,-275.2156 400,-291.5 406.9013,-294.9754 414.3832,-298.3381 421.7241,-301.4273"/>
<polygon fill="#191970" stroke="#191970" points="309.8268,-234.172 299.5548,-231.5765 305.9662,-240.0112 309.8268,-234.172"/>
</g>
<!-- Node23 -->
<g id="node23" class="node">
<title>Node23</title>
<g id="a_node23"><a xlink:href="../../d5/dd0/classPHG4CylinderCellReco.html#abbd15ecbd41cf3e68196cbcab1fd4e2c" target="_top" xlink:title="PHG4CylinderCellReco\l::etaphisize">
<polygon fill="none" stroke="#000000" points="400,-250.5 400,-282.5 529,-282.5 529,-250.5 400,-250.5"/>
<text text-anchor="start" x="408" y="-269.5" font-family="FreeSans" font-size="10.00" fill="#000000">PHG4CylinderCellReco</text>
<text text-anchor="middle" x="464.5" y="-257.5" font-family="FreeSans" font-size="10.00" fill="#000000">::etaphisize</text>
</a>
</g>
</g>
<!-- Node2&#45;&gt;Node23 -->
<g id="edge22" class="edge">
<title>Node2&#45;&gt;Node23</title>
<path fill="none" stroke="#191970" d="M345.1936,-234.2208C364.8486,-239.5386 386.0713,-245.2806 405.0909,-250.4264"/>
<polygon fill="#191970" stroke="#191970" points="345.9509,-230.7999 335.3838,-231.5667 344.1227,-237.557 345.9509,-230.7999"/>
</g>
<!-- Node25 -->
<g id="node25" class="node">
<title>Node25</title>
<g id="a_node25"><a xlink:href="../../df/d5e/classPHG4BlockCellReco.html#a5d39419017e6f11365c09ccd90c6b40e" target="_top" xlink:title="PHG4BlockCellReco::\letaxsize">
<polygon fill="none" stroke="#000000" points="404,-199.5 404,-231.5 525,-231.5 525,-199.5 404,-199.5"/>
<text text-anchor="start" x="412" y="-218.5" font-family="FreeSans" font-size="10.00" fill="#000000">PHG4BlockCellReco::</text>
<text text-anchor="middle" x="464.5" y="-206.5" font-family="FreeSans" font-size="10.00" fill="#000000">etaxsize</text>
</a>
</g>
</g>
<!-- Node2&#45;&gt;Node25 -->
<g id="edge24" class="edge">
<title>Node2&#45;&gt;Node25</title>
<path fill="none" stroke="#191970" d="M374.2538,-215.5C384.3253,-215.5 394.3357,-215.5 403.8239,-215.5"/>
<polygon fill="#191970" stroke="#191970" points="374.1791,-212.0001 364.179,-215.5 374.179,-219.0001 374.1791,-212.0001"/>
</g>
<!-- Node26 -->
<g id="node26" class="node">
<title>Node26</title>
<g id="a_node26"><a xlink:href="../../df/d5e/classPHG4BlockCellReco.html#a813c41dc4a623c245426661905304e41" target="_top" xlink:title="PHG4BlockCellReco::\lset_timing_window">
<polygon fill="none" stroke="#000000" points="404,-148.5 404,-180.5 525,-180.5 525,-148.5 404,-148.5"/>
<text text-anchor="start" x="412" y="-167.5" font-family="FreeSans" font-size="10.00" fill="#000000">PHG4BlockCellReco::</text>
<text text-anchor="middle" x="464.5" y="-155.5" font-family="FreeSans" font-size="10.00" fill="#000000">set_timing_window</text>
</a>
</g>
</g>
<!-- Node2&#45;&gt;Node26 -->
<g id="edge25" class="edge">
<title>Node2&#45;&gt;Node26</title>
<path fill="none" stroke="#191970" d="M345.1936,-196.7792C364.8486,-191.4614 386.0713,-185.7194 405.0909,-180.5736"/>
<polygon fill="#191970" stroke="#191970" points="344.1227,-193.443 335.3838,-199.4333 345.9509,-200.2001 344.1227,-193.443"/>
</g>
<!-- Node27 -->
<g id="node27" class="node">
<title>Node27</title>
<g id="a_node27"><a xlink:href="../../d5/dd0/classPHG4CylinderCellReco.html#a2ab7baca05738b086177de3cea8928d1" target="_top" xlink:title="PHG4CylinderCellReco\l::set_timing_window">
<polygon fill="none" stroke="#000000" points="400,-97.5 400,-129.5 529,-129.5 529,-97.5 400,-97.5"/>
<text text-anchor="start" x="408" y="-116.5" font-family="FreeSans" font-size="10.00" fill="#000000">PHG4CylinderCellReco</text>
<text text-anchor="middle" x="464.5" y="-104.5" font-family="FreeSans" font-size="10.00" fill="#000000">::set_timing_window</text>
</a>
</g>
</g>
<!-- Node2&#45;&gt;Node27 -->
<g id="edge26" class="edge">
<title>Node2&#45;&gt;Node27</title>
<path fill="none" stroke="#191970" d="M307.542,-193.6308C332.0568,-177.2035 367.2831,-154.821 400,-138.5 406.3405,-135.337 413.1844,-132.304 419.9629,-129.5092"/>
<polygon fill="#191970" stroke="#191970" points="305.3445,-190.8916 299.0194,-199.3913 309.2644,-196.6912 305.3445,-190.8916"/>
</g>
<!-- Node4 -->
<g id="node4" class="node">
<title>Node4</title>
<g id="a_node4"><a xlink:href="../../d8/d4c/G4__CEmc__EIC_8C.html#ab555024f512a193bc7b10d42a92453c8" target="_top" xlink:title="CEMC_Cells">
<polygon fill="none" stroke="#000000" points="587.5,-340.5 587.5,-360.5 661.5,-360.5 661.5,-340.5 587.5,-340.5"/>
<text text-anchor="middle" x="624.5" y="-347.5" font-family="FreeSans" font-size="10.00" fill="#000000">CEMC_Cells</text>
</a>
</g>
</g>
<!-- Node3&#45;&gt;Node4 -->
<g id="edge3" class="edge">
<title>Node3&#45;&gt;Node4</title>
<path fill="none" stroke="#191970" d="M538.9325,-332.8517C555.7058,-336.3112 572.8071,-339.8383 587.2678,-342.8209"/>
<polygon fill="#191970" stroke="#191970" points="539.6178,-329.4195 529.1169,-330.8272 538.2038,-336.2752 539.6178,-329.4195"/>
</g>
<!-- Node22 -->
<g id="node22" class="node">
<title>Node22</title>
<g id="a_node22"><a xlink:href="../../da/d2a/G4__Svtx_8C.html#a00bd04a6f4913969f594f34ed348c1f7" target="_top" xlink:title="Svtx_Cells">
<polygon fill="none" stroke="#000000" points="590.5,-301.5 590.5,-321.5 658.5,-321.5 658.5,-301.5 590.5,-301.5"/>
<text text-anchor="middle" x="624.5" y="-308.5" font-family="FreeSans" font-size="10.00" fill="#000000">Svtx_Cells</text>
</a>
</g>
</g>
<!-- Node3&#45;&gt;Node22 -->
<g id="edge21" class="edge">
<title>Node3&#45;&gt;Node22</title>
<path fill="none" stroke="#191970" d="M539.539,-314.686C557.3502,-314.0181 575.4906,-313.3379 590.4105,-312.7784"/>
<polygon fill="#191970" stroke="#191970" points="538.9787,-311.2045 529.1169,-315.0769 539.2411,-318.1996 538.9787,-311.2045"/>
</g>
<!-- Node5 -->
<g id="node5" class="node">
<title>Node5</title>
<g id="a_node5"><a xlink:href="../../d3/d7f/Fun_8C.html#af0d3c8a78765149fef9b2beeecfc6279" target="_top" xlink:title="ConfigureDetectors">
<polygon fill="none" stroke="#000000" points="746.5,-657.5 746.5,-677.5 860.5,-677.5 860.5,-657.5 746.5,-657.5"/>
<text text-anchor="middle" x="803.5" y="-664.5" font-family="FreeSans" font-size="10.00" fill="#000000">ConfigureDetectors</text>
</a>
</g>
</g>
<!-- Node4&#45;&gt;Node5 -->
<g id="edge4" class="edge">
<title>Node4&#45;&gt;Node5</title>
<path fill="none" stroke="#191970" d="M628.3663,-370.8792C640.2542,-431.4508 678.0138,-608.59 720,-647.5 727.3254,-654.2887 736.5359,-658.8939 746.143,-661.9935"/>
<polygon fill="#191970" stroke="#191970" points="631.7307,-369.8423 626.3959,-360.6886 624.858,-371.1712 631.7307,-369.8423"/>
</g>
<!-- Node7 -->
<g id="node7" class="node">
<title>Node7</title>
<g id="a_node7"><a xlink:href="../../da/d02/Fun4All__G4__EICDetector_8C.html#afbe82cefa1d1fd031d9a8586b7bb68c6" target="_top" xlink:title="Fun4All_G4_EICDetector">
<polygon fill="none" stroke="#000000" points="734,-618.5 734,-638.5 873,-638.5 873,-618.5 734,-618.5"/>
<text text-anchor="middle" x="803.5" y="-625.5" font-family="FreeSans" font-size="10.00" fill="#000000">Fun4All_G4_EICDetector</text>
</a>
</g>
</g>
<!-- Node4&#45;&gt;Node7 -->
<g id="edge6" class="edge">
<title>Node4&#45;&gt;Node7</title>
<path fill="none" stroke="#191970" d="M625.7747,-371.0059C629.9627,-419.9383 647.5631,-544.2355 720,-608.5 724.5718,-612.556 729.821,-615.8258 735.4133,-618.4573"/>
<polygon fill="#191970" stroke="#191970" points="629.2444,-370.4698 625.0047,-360.7602 622.2641,-370.9944 629.2444,-370.4698"/>
</g>
<!-- Node8 -->
<g id="node8" class="node">
<title>Node8</title>
<g id="a_node8"><a xlink:href="../../dd/d2a/Fun4All__G4__EICDetector__LQ_8C.html#aaa01242fd6e77ca43a9d49a6d46008e4" target="_top" xlink:title="Fun4All_G4_EICDetector_LQ">
<polygon fill="none" stroke="#000000" points="725.5,-579.5 725.5,-599.5 881.5,-599.5 881.5,-579.5 725.5,-579.5"/>
<text text-anchor="middle" x="803.5" y="-586.5" font-family="FreeSans" font-size="10.00" fill="#000000">Fun4All_G4_EICDetector_LQ</text>
</a>
</g>
</g>
<!-- Node4&#45;&gt;Node8 -->
<g id="edge7" class="edge">
<title>Node4&#45;&gt;Node8</title>
<path fill="none" stroke="#191970" d="M627.2158,-370.5467C634.184,-413.8686 656.8211,-516.572 720,-569.5 724.7992,-573.5205 730.2712,-576.7602 736.0661,-579.3669"/>
<polygon fill="#191970" stroke="#191970" points="630.6771,-370.0272 625.7359,-360.6552 623.7542,-371.063 630.6771,-370.0272"/>
</g>
<!-- Node9 -->
<g id="node9" class="node">
<title>Node9</title>
<g id="a_node9"><a xlink:href="../../d4/df5/Fun4All__G4__EICDetector__LQ__reference_8C.html#a2feefc472f17f90b3cbe74897d049f75" target="_top" xlink:title="Fun4All_G4_EICDetector\l_LQ_reference">
<polygon fill="none" stroke="#000000" points="734,-528.5 734,-560.5 873,-560.5 873,-528.5 734,-528.5"/>
<text text-anchor="start" x="742" y="-547.5" font-family="FreeSans" font-size="10.00" fill="#000000">Fun4All_G4_EICDetector</text>
<text text-anchor="middle" x="803.5" y="-535.5" font-family="FreeSans" font-size="10.00" fill="#000000">_LQ_reference</text>
</a>
</g>
</g>
<!-- Node4&#45;&gt;Node9 -->
<g id="edge8" class="edge">
<title>Node4&#45;&gt;Node9</title>
<path fill="none" stroke="#191970" d="M630.3132,-370.0976C641.6994,-405.1046 670.2674,-478.4573 720,-518.5 724.7305,-522.3088 730.0212,-525.5621 735.5817,-528.3405"/>
<polygon fill="#191970" stroke="#191970" points="633.6509,-369.044 627.3267,-360.5437 626.9697,-371.1325 633.6509,-369.044"/>
</g>
<!-- Node10 -->
<g id="node10" class="node">
<title>Node10</title>
<g id="a_node10"><a xlink:href="../../d3/d51/Fun4All__G4__EICDetector__RICH_8C.html#a5739502b0a7a1ba782c01069f77e933f" target="_top" xlink:title="Fun4All_G4_EICDetector_RICH">
<polygon fill="none" stroke="#000000" points="720,-489.5 720,-509.5 887,-509.5 887,-489.5 720,-489.5"/>
<text text-anchor="middle" x="803.5" y="-496.5" font-family="FreeSans" font-size="10.00" fill="#000000">Fun4All_G4_EICDetector_RICH</text>
</a>
</g>
</g>
<!-- Node4&#45;&gt;Node10 -->
<g id="edge9" class="edge">
<title>Node4&#45;&gt;Node10</title>
<path fill="none" stroke="#191970" d="M633.5031,-370.1616C647.6789,-398.8309 677.979,-451.7096 720,-479.5 726.2167,-483.6114 733.1903,-486.8797 740.388,-489.4775"/>
<polygon fill="#191970" stroke="#191970" points="636.4909,-368.2965 629.0182,-360.7858 630.1762,-371.3172 636.4909,-368.2965"/>
</g>
<!-- Node11 -->
<g id="node11" class="node">
<title>Node11</title>
<g id="a_node11"><a xlink:href="../../d7/d9e/Fun4All__G4__fsPHENIX_8C.html#af48911d394d2412e817583700f2bbee2" target="_top" xlink:title="Fun4All_G4_fsPHENIX">
<polygon fill="none" stroke="#000000" points="741.5,-450.5 741.5,-470.5 865.5,-470.5 865.5,-450.5 741.5,-450.5"/>
<text text-anchor="middle" x="803.5" y="-457.5" font-family="FreeSans" font-size="10.00" fill="#000000">Fun4All_G4_fsPHENIX</text>
</a>
</g>
</g>
<!-- Node4&#45;&gt;Node11 -->
<g id="edge10" class="edge">
<title>Node4&#45;&gt;Node11</title>
<path fill="none" stroke="#191970" d="M638.6592,-368.6426C655.7218,-389.2306 686.3276,-422.3042 720,-440.5 727.6063,-444.6103 736.0521,-447.8847 744.5666,-450.491"/>
<polygon fill="#191970" stroke="#191970" points="641.216,-366.2381 632.2064,-360.6634 635.7731,-370.6399 641.216,-366.2381"/>
</g>
<!-- Node12 -->
<g id="node12" class="node">
<title>Node12</title>
<g id="a_node12"><a xlink:href="../../da/d2f/Fun4All__G4__fsPHENIX__FastSim_8C.html#a66fb850cae5fcaadda23b74a25ce4c9c" target="_top" xlink:title="Fun4All_G4_fsPHENIX\l_FastSim">
<polygon fill="none" stroke="#000000" points="741.5,-399.5 741.5,-431.5 865.5,-431.5 865.5,-399.5 741.5,-399.5"/>
<text text-anchor="start" x="749.5" y="-418.5" font-family="FreeSans" font-size="10.00" fill="#000000">Fun4All_G4_fsPHENIX</text>
<text text-anchor="middle" x="803.5" y="-406.5" font-family="FreeSans" font-size="10.00" fill="#000000">_FastSim</text>
</a>
</g>
</g>
<!-- Node4&#45;&gt;Node12 -->
<g id="edge11" class="edge">
<title>Node4&#45;&gt;Node12</title>
<path fill="none" stroke="#191970" d="M656.8079,-364.5011C675.1839,-372.2605 698.7118,-381.8548 720,-389.5 729.4311,-392.887 739.5493,-396.2557 749.3734,-399.3904"/>
<polygon fill="#191970" stroke="#191970" points="658.0144,-361.2109 647.4423,-360.5173 655.2744,-367.6524 658.0144,-361.2109"/>
</g>
<!-- Node13 -->
<g id="node13" class="node">
<title>Node13</title>
<g id="a_node13"><a xlink:href="../../d0/da6/Fun4All__G4__fsPHENIX__pi0_8C.html#a023d91d47b678e5d7f1751834aa517c6" target="_top" xlink:title="Fun4All_G4_fsPHENIX_pi0">
<polygon fill="none" stroke="#000000" points="731,-360.5 731,-380.5 876,-380.5 876,-360.5 731,-360.5"/>
<text text-anchor="middle" x="803.5" y="-367.5" font-family="FreeSans" font-size="10.00" fill="#000000">Fun4All_G4_fsPHENIX_pi0</text>
</a>
</g>
</g>
<!-- Node4&#45;&gt;Node13 -->
<g id="edge12" class="edge">
<title>Node4&#45;&gt;Node13</title>
<path fill="none" stroke="#191970" d="M671.621,-355.7649C689.7852,-357.7944 710.9772,-360.1623 730.9922,-362.3986"/>
<polygon fill="#191970" stroke="#191970" points="671.9157,-352.2762 661.5889,-354.644 671.1384,-359.2329 671.9157,-352.2762"/>
</g>
<!-- Node14 -->
<g id="node14" class="node">
<title>Node14</title>
<g id="a_node14"><a xlink:href="../../d5/d2c/macros_2blob_2master_2macros_2g4simulations_2Fun4All__G4__sPHENIX_8C.html#a6eaaa492d7023ec86c562dc63aa1e5a4" target="_top" xlink:title="Fun4All_G4_sPHENIX">
<polygon fill="none" stroke="#000000" points="743,-321.5 743,-341.5 864,-341.5 864,-321.5 743,-321.5"/>
<text text-anchor="middle" x="803.5" y="-328.5" font-family="FreeSans" font-size="10.00" fill="#000000">Fun4All_G4_sPHENIX</text>
</a>
</g>
</g>
<!-- Node4&#45;&gt;Node14 -->
<g id="edge13" class="edge">
<title>Node4&#45;&gt;Node14</title>
<path fill="none" stroke="#191970" d="M671.5939,-345.5012C693.4049,-343.1861 719.5862,-340.4071 742.8539,-337.9373"/>
<polygon fill="#191970" stroke="#191970" points="671.1636,-342.0271 661.5889,-346.5632 671.9025,-348.988 671.1636,-342.0271"/>
</g>
<!-- Node15 -->
<g id="node15" class="node">
<title>Node15</title>
<g id="a_node15"><a xlink:href="../../d3/de2/Fun4All__G4__sPHENIX__AnaGenFit_8C.html#a9bf3f2f72ed69a17e2d0c1121d48013c" target="_top" xlink:title="Fun4All_G4_sPHENIX\l_AnaGenFit">
<polygon fill="none" stroke="#000000" points="743,-270.5 743,-302.5 864,-302.5 864,-270.5 743,-270.5"/>
<text text-anchor="start" x="751" y="-289.5" font-family="FreeSans" font-size="10.00" fill="#000000">Fun4All_G4_sPHENIX</text>
<text text-anchor="middle" x="803.5" y="-277.5" font-family="FreeSans" font-size="10.00" fill="#000000">_AnaGenFit</text>
</a>
</g>
</g>
<!-- Node4&#45;&gt;Node15 -->
<g id="edge14" class="edge">
<title>Node4&#45;&gt;Node15</title>
<path fill="none" stroke="#191970" d="M667.1314,-337.1031C672.8568,-335.0332 678.6099,-332.8104 684,-330.5 700.6285,-323.3724 703.2549,-318.3492 720,-311.5 727.8434,-308.2918 736.2508,-305.291 744.6003,-302.5602"/>
<polygon fill="#191970" stroke="#191970" points="665.8806,-333.8326 657.5913,-340.4309 668.1861,-340.442 665.8806,-333.8326"/>
</g>
<!-- Node16 -->
<g id="node16" class="node">
<title>Node16</title>
<g id="a_node16"><a xlink:href="../../da/dd0/Fun4All__G4__sPHENIX__photonjet_8C.html#a6f18519e216acc05399e562ea57ea77c" target="_top" xlink:title="Fun4All_G4_sPHENIX\l_photonjet">
<polygon fill="none" stroke="#000000" points="743,-219.5 743,-251.5 864,-251.5 864,-219.5 743,-219.5"/>
<text text-anchor="start" x="751" y="-238.5" font-family="FreeSans" font-size="10.00" fill="#000000">Fun4All_G4_sPHENIX</text>
<text text-anchor="middle" x="803.5" y="-226.5" font-family="FreeSans" font-size="10.00" fill="#000000">_photonjet</text>
</a>
</g>
</g>
<!-- Node4&#45;&gt;Node16 -->
<g id="edge15" class="edge">
<title>Node4&#45;&gt;Node16</title>
<path fill="none" stroke="#191970" d="M670.9765,-338.9394C675.6671,-336.6165 680.1222,-333.8332 684,-330.5 710.5301,-307.6953 693.0932,-282.859 720,-260.5 726.6339,-254.9874 734.4532,-250.6902 742.6012,-247.3405"/>
<polygon fill="#191970" stroke="#191970" points="669.5873,-335.7267 661.7559,-342.8625 672.328,-342.1679 669.5873,-335.7267"/>
</g>
<!-- Node17 -->
<g id="node17" class="node">
<title>Node17</title>
<g id="a_node17"><a xlink:href="../../da/d85/Fun4All__G4__sPHENIX__photons_8C.html#a02fbbd59878fe1299f58ed187e7214ba" target="_top" xlink:title="Fun4All_G4_sPHENIX\l_photons">
<polygon fill="none" stroke="#000000" points="743,-168.5 743,-200.5 864,-200.5 864,-168.5 743,-168.5"/>
<text text-anchor="start" x="751" y="-187.5" font-family="FreeSans" font-size="10.00" fill="#000000">Fun4All_G4_sPHENIX</text>
<text text-anchor="middle" x="803.5" y="-175.5" font-family="FreeSans" font-size="10.00" fill="#000000">_photons</text>
</a>
</g>
</g>
<!-- Node4&#45;&gt;Node17 -->
<g id="edge16" class="edge">
<title>Node4&#45;&gt;Node17</title>
<path fill="none" stroke="#191970" d="M671.0931,-339.9144C675.8674,-337.4136 680.3098,-334.322 684,-330.5 722.9719,-290.1361 680.3603,-249.2082 720,-209.5 726.4146,-203.0744 734.4091,-198.2874 742.8906,-194.7241"/>
<polygon fill="#191970" stroke="#191970" points="669.3909,-336.8378 661.6133,-344.0321 672.1798,-343.2582 669.3909,-336.8378"/>
</g>
<!-- Node18 -->
<g id="node18" class="node">
<title>Node18</title>
<g id="a_node18"><a xlink:href="../../de/d55/Fun4All__G4__sPHENIX__truthphotonjet_8C.html#a48a6f4503eaa1b3793d8ae572aa795b9" target="_top" xlink:title="Fun4All_G4_sPHENIX\l_truthphotonjet">
<polygon fill="none" stroke="#000000" points="743,-117.5 743,-149.5 864,-149.5 864,-117.5 743,-117.5"/>
<text text-anchor="start" x="751" y="-136.5" font-family="FreeSans" font-size="10.00" fill="#000000">Fun4All_G4_sPHENIX</text>
<text text-anchor="middle" x="803.5" y="-124.5" font-family="FreeSans" font-size="10.00" fill="#000000">_truthphotonjet</text>
</a>
</g>
</g>
<!-- Node4&#45;&gt;Node18 -->
<g id="edge17" class="edge">
<title>Node4&#45;&gt;Node18</title>
<path fill="none" stroke="#191970" d="M670.8645,-340.5002C675.7936,-337.8995 680.3356,-334.6243 684,-330.5 735.8748,-272.1154 667.1586,-216.0112 720,-158.5 726.2453,-151.7028 734.2553,-146.7254 742.8344,-143.0865"/>
<polygon fill="#191970" stroke="#191970" points="669.4569,-337.2956 661.6799,-344.4906 672.2464,-343.7158 669.4569,-337.2956"/>
</g>
<!-- Node19 -->
<g id="node19" class="node">
<title>Node19</title>
<g id="a_node19"><a xlink:href="../../d4/d65/Fun4All__single__particle_8C.html#a8a492b5dbead494bfdddbebde8a49b0e" target="_top" xlink:title="Fun4All_single_particle">
<polygon fill="none" stroke="#000000" points="737.5,-78.5 737.5,-98.5 869.5,-98.5 869.5,-78.5 737.5,-78.5"/>
<text text-anchor="middle" x="803.5" y="-85.5" font-family="FreeSans" font-size="10.00" fill="#000000">Fun4All_single_particle</text>
</a>
</g>
</g>
<!-- Node4&#45;&gt;Node19 -->
<g id="edge18" class="edge">
<title>Node4&#45;&gt;Node19</title>
<path fill="none" stroke="#191970" d="M670.869,-340.7587C675.8374,-338.1157 680.3879,-334.7599 684,-330.5 748.9281,-253.9274 651.3065,-180.7135 720,-107.5 724.8829,-102.2959 730.8702,-98.3753 737.3762,-95.4399"/>
<polygon fill="#191970" stroke="#191970" points="669.3666,-337.5953 661.587,-344.7876 672.1537,-344.0165 669.3666,-337.5953"/>
</g>
<!-- Node20 -->
<g id="node20" class="node">
<title>Node20</title>
<g id="a_node20"><a xlink:href="../../d0/d99/Jin__BJet_8C.html#a36169bfee2ed7efda633944d12aebad9" target="_top" xlink:title="Jin_BJet">
<polygon fill="none" stroke="#000000" points="776,-39.5 776,-59.5 831,-59.5 831,-39.5 776,-39.5"/>
<text text-anchor="middle" x="803.5" y="-46.5" font-family="FreeSans" font-size="10.00" fill="#000000">Jin_BJet</text>
</a>
</g>
</g>
<!-- Node4&#45;&gt;Node20 -->
<g id="edge19" class="edge">
<title>Node4&#45;&gt;Node20</title>
<path fill="none" stroke="#191970" d="M670.9656,-340.8396C675.9179,-338.1831 680.4382,-334.802 684,-330.5 758.957,-239.9641 640.5886,-155.1553 720,-68.5 733.9619,-53.2645 757.3791,-48.9724 775.8675,-48.2314"/>
<polygon fill="#191970" stroke="#191970" points="669.4656,-337.6753 661.6986,-344.8811 672.264,-344.0917 669.4656,-337.6753"/>
</g>
<!-- Node21 -->
<g id="node21" class="node">
<title>Node21</title>
<g id="a_node21"><a xlink:href="../../dd/db1/Wrapper_8cxx.html#abf1e42281903daa0752c80dd6c879fac" target="_top" xlink:title="Wrapper">
<polygon fill="none" stroke="#000000" points="773.5,-.5 773.5,-20.5 833.5,-20.5 833.5,-.5 773.5,-.5"/>
<text text-anchor="middle" x="803.5" y="-7.5" font-family="FreeSans" font-size="10.00" fill="#000000">Wrapper</text>
</a>
</g>
</g>
<!-- Node4&#45;&gt;Node21 -->
<g id="edge20" class="edge">
<title>Node4&#45;&gt;Node21</title>
<path fill="none" stroke="#191970" d="M671.0381,-340.8992C675.9784,-338.2328 680.476,-334.8331 684,-330.5 769.0091,-225.9727 629.8462,-129.6239 720,-29.5 733.231,-14.8058 755.2519,-10.2514 773.3582,-9.2671"/>
<polygon fill="#191970" stroke="#191970" points="669.5402,-337.7342 661.7824,-344.9499 672.3468,-344.1469 669.5402,-337.7342"/>
</g>
<!-- Node6 -->
<g id="node6" class="node">
<title>Node6</title>
<g id="a_node6"><a xlink:href="../../d3/d7f/Fun_8C.html#af69a3eef3ff244bb51f5740c6ecb5432" target="_top" xlink:title="Fun">
<polygon fill="none" stroke="#000000" points="923,-657.5 923,-677.5 957,-677.5 957,-657.5 923,-657.5"/>
<text text-anchor="middle" x="940" y="-664.5" font-family="FreeSans" font-size="10.00" fill="#000000">Fun</text>
</a>
</g>
</g>
<!-- Node5&#45;&gt;Node6 -->
<g id="edge5" class="edge">
<title>Node5&#45;&gt;Node6</title>
<path fill="none" stroke="#191970" d="M870.6941,-667.5C890.0852,-667.5 909.59,-667.5 922.9452,-667.5"/>
<polygon fill="#191970" stroke="#191970" points="870.5974,-664.0001 860.5974,-667.5 870.5974,-671.0001 870.5974,-664.0001"/>
</g>
<!-- Node24 -->
<g id="node24" class="node">
<title>Node24</title>
<g id="a_node24"><a xlink:href="../../d8/d91/Fun4All__G4__Clusters_8C.html#ab7d8e64f12f512631d4c0e8c6683ec5b" target="_top" xlink:title="Fun4All_G4_Clusters">
<polygon fill="none" stroke="#000000" points="565,-256.5 565,-276.5 684,-276.5 684,-256.5 565,-256.5"/>
<text text-anchor="middle" x="624.5" y="-263.5" font-family="FreeSans" font-size="10.00" fill="#000000">Fun4All_G4_Clusters</text>
</a>
</g>
</g>
<!-- Node23&#45;&gt;Node24 -->
<g id="edge23" class="edge">
<title>Node23&#45;&gt;Node24</title>
<path fill="none" stroke="#191970" d="M539.1553,-266.5C547.7593,-266.5 556.4461,-266.5 564.8153,-266.5"/>
<polygon fill="#191970" stroke="#191970" points="539.117,-263.0001 529.1169,-266.5 539.1169,-270.0001 539.117,-263.0001"/>
</g>
</g>
</svg>
