<?xml version="1.0" encoding="UTF-8" standalone="no"?>
<!DOCTYPE svg PUBLIC "-//W3C//DTD SVG 1.1//EN"
 "http://www.w3.org/Graphics/SVG/1.1/DTD/svg11.dtd">
<!-- Generated by graphviz version 2.40.1 (20161225.0304)
 -->
<!-- Title: Fun4AllSyncManager::Print Pages: 1 -->
<svg width="888pt" height="1706pt"
 viewBox="0.00 0.00 888.00 1706.00" xmlns="http://www.w3.org/2000/svg" xmlns:xlink="http://www.w3.org/1999/xlink">
<g id="graph0" class="graph" transform="scale(1 1) rotate(0) translate(4 1702)">
<title>Fun4AllSyncManager::Print</title>
<!-- Node1 -->
<g id="node1" class="node">
<title>Node1</title>
<polygon fill="#bfbfbf" stroke="#000000" points="0,-731.5 0,-763.5 123,-763.5 123,-731.5 0,-731.5"/>
<text text-anchor="start" x="8" y="-750.5" font-family="FreeSans" font-size="10.00" fill="#000000">Fun4AllSyncManager</text>
<text text-anchor="middle" x="61.5" y="-738.5" font-family="FreeSans" font-size="10.00" fill="#000000">::Print</text>
</g>
<!-- Node2 -->
<g id="node2" class="node">
<title>Node2</title>
<g id="a_node2"><a xlink:href="../../da/d29/classFun4AllServer.html#ae1b1a243ee1a67367c8da4ec3bdc003d" target="_top" xlink:title="Fun4AllServer::Print">
<polygon fill="none" stroke="#000000" points="162,-760.5 162,-780.5 279,-780.5 279,-760.5 162,-760.5"/>
<text text-anchor="middle" x="220.5" y="-767.5" font-family="FreeSans" font-size="10.00" fill="#000000">Fun4AllServer::Print</text>
</a>
</g>
</g>
<!-- Node1&#45;&gt;Node2 -->
<g id="edge1" class="edge">
<title>Node1&#45;&gt;Node2</title>
<path fill="none" stroke="#191970" d="M133.6106,-757.9311C143.0683,-759.2992 152.6667,-760.6876 161.8641,-762.0181"/>
<polygon fill="#191970" stroke="#191970" points="133.8269,-754.426 123.4288,-756.4583 132.8247,-761.3539 133.8269,-754.426"/>
</g>
<!-- Node50 -->
<g id="node50" class="node">
<title>Node50</title>
<g id="a_node50"><a xlink:href="../../dd/ded/classFun4AllSyncManager.html#a9b5874f83d4984e24572838d55513eb3" target="_top" xlink:title="skip n events (0 means up to the end of file). Skip means read, don&#39;t process.">
<polygon fill="none" stroke="#000000" points="159,-709.5 159,-741.5 282,-741.5 282,-709.5 159,-709.5"/>
<text text-anchor="start" x="167" y="-728.5" font-family="FreeSans" font-size="10.00" fill="#000000">Fun4AllSyncManager</text>
<text text-anchor="middle" x="220.5" y="-716.5" font-family="FreeSans" font-size="10.00" fill="#000000">::skip</text>
</a>
</g>
</g>
<!-- Node1&#45;&gt;Node50 -->
<g id="edge50" class="edge">
<title>Node1&#45;&gt;Node50</title>
<path fill="none" stroke="#191970" d="M133.5919,-737.525C141.9898,-736.363 150.499,-735.1857 158.7402,-734.0454"/>
<polygon fill="#191970" stroke="#191970" points="132.8547,-734.0936 123.4288,-738.9312 133.8142,-741.0275 132.8547,-734.0936"/>
</g>
<!-- Node3 -->
<g id="node3" class="node">
<title>Node3</title>
<g id="a_node3"><a xlink:href="../../da/d29/classFun4AllServer.html#afcfc5583204cac58b4e66a2406187a18" target="_top" xlink:title="Fun4AllServer::BeginRun">
<polygon fill="none" stroke="#000000" points="330,-844.5 330,-864.5 471,-864.5 471,-844.5 330,-844.5"/>
<text text-anchor="middle" x="400.5" y="-851.5" font-family="FreeSans" font-size="10.00" fill="#000000">Fun4AllServer::BeginRun</text>
</a>
</g>
</g>
<!-- Node2&#45;&gt;Node3 -->
<g id="edge2" class="edge">
<title>Node2&#45;&gt;Node3</title>
<path fill="none" stroke="#191970" d="M243.1139,-786.4259C262.328,-799.3983 291.0101,-817.4727 318,-829.5 331.2601,-835.409 346.316,-840.4293 359.9032,-844.3861"/>
<polygon fill="#191970" stroke="#191970" points="244.9698,-783.4548 234.7418,-780.6907 241.0137,-789.2297 244.9698,-783.4548"/>
</g>
<!-- Node45 -->
<g id="node45" class="node">
<title>Node45</title>
<g id="a_node45"><a xlink:href="../../d6/d1b/classPrototype2RawTowerBuilder.html#ac5d83bd0e9b8325c27dba83fc67b1111" target="_top" xlink:title="Prototype2RawTowerBuilder\l::InitRun">
<polygon fill="none" stroke="#000000" points="519,-748.5 519,-780.5 677,-780.5 677,-748.5 519,-748.5"/>
<text text-anchor="start" x="527" y="-767.5" font-family="FreeSans" font-size="10.00" fill="#000000">Prototype2RawTowerBuilder</text>
<text text-anchor="middle" x="598" y="-755.5" font-family="FreeSans" font-size="10.00" fill="#000000">::InitRun</text>
</a>
</g>
</g>
<!-- Node2&#45;&gt;Node45 -->
<g id="edge44" class="edge">
<title>Node2&#45;&gt;Node45</title>
<path fill="none" stroke="#191970" d="M259.8691,-783.5027C277.4457,-788.6539 298.5428,-793.9503 318,-796.5 390.7117,-806.0284 410.3408,-806.4206 483,-796.5 505.9973,-793.36 530.8837,-786.8425 551.6044,-780.5039"/>
<polygon fill="#191970" stroke="#191970" points="260.5511,-780.0525 249.9661,-780.5084 258.5251,-786.7529 260.5511,-780.0525"/>
</g>
<!-- Node46 -->
<g id="node46" class="node">
<title>Node46</title>
<g id="a_node46"><a xlink:href="../../dd/d8b/classPHG4Prototype2HcalCellReco.html#ada0674e45683579ea6d19c3c6fdce9e5" target="_top" xlink:title="module initialization">
<polygon fill="none" stroke="#000000" points="318,-754.5 318,-786.5 483,-786.5 483,-754.5 318,-754.5"/>
<text text-anchor="start" x="326" y="-773.5" font-family="FreeSans" font-size="10.00" fill="#000000">PHG4Prototype2HcalCellReco</text>
<text text-anchor="middle" x="400.5" y="-761.5" font-family="FreeSans" font-size="10.00" fill="#000000">::InitRun</text>
</a>
</g>
</g>
<!-- Node2&#45;&gt;Node46 -->
<g id="edge45" class="edge">
<title>Node2&#45;&gt;Node46</title>
<path fill="none" stroke="#191970" d="M289.7073,-770.5C298.9382,-770.5 308.4779,-770.5 317.9083,-770.5"/>
<polygon fill="#191970" stroke="#191970" points="289.4388,-767.0001 279.4387,-770.5 289.4387,-774.0001 289.4388,-767.0001"/>
</g>
<!-- Node47 -->
<g id="node47" class="node">
<title>Node47</title>
<g id="a_node47"><a xlink:href="../../d6/d1b/classPrototype2RawTowerBuilder.html#a9495dbf32264edc680dd19fb5d242837" target="_top" xlink:title="Prototype2RawTowerBuilder\l::ReadParamsFromNodeTree">
<polygon fill="none" stroke="#000000" points="321.5,-703.5 321.5,-735.5 479.5,-735.5 479.5,-703.5 321.5,-703.5"/>
<text text-anchor="start" x="329.5" y="-722.5" font-family="FreeSans" font-size="10.00" fill="#000000">Prototype2RawTowerBuilder</text>
<text text-anchor="middle" x="400.5" y="-710.5" font-family="FreeSans" font-size="10.00" fill="#000000">::ReadParamsFromNodeTree</text>
</a>
</g>
</g>
<!-- Node2&#45;&gt;Node47 -->
<g id="edge46" class="edge">
<title>Node2&#45;&gt;Node47</title>
<path fill="none" stroke="#191970" d="M265.8299,-757.6565C289.4732,-750.9576 318.6267,-742.6974 343.7554,-735.5777"/>
<polygon fill="#191970" stroke="#191970" points="264.7293,-754.3305 256.0622,-760.424 266.6376,-761.0654 264.7293,-754.3305"/>
</g>
<!-- Node48 -->
<g id="node48" class="node">
<title>Node48</title>
<g id="a_node48"><a xlink:href="../../d1/dec/classHcalRawTowerBuilder.html#a4d42afd3cf9d5d9f5569e87fa939d567" target="_top" xlink:title="HcalRawTowerBuilder\l::ReadParamsFromNodeTree">
<polygon fill="none" stroke="#000000" points="321.5,-652.5 321.5,-684.5 479.5,-684.5 479.5,-652.5 321.5,-652.5"/>
<text text-anchor="start" x="329.5" y="-671.5" font-family="FreeSans" font-size="10.00" fill="#000000">HcalRawTowerBuilder</text>
<text text-anchor="middle" x="400.5" y="-659.5" font-family="FreeSans" font-size="10.00" fill="#000000">::ReadParamsFromNodeTree</text>
</a>
</g>
</g>
<!-- Node2&#45;&gt;Node48 -->
<g id="edge48" class="edge">
<title>Node2&#45;&gt;Node48</title>
<path fill="none" stroke="#191970" d="M275.4888,-755.8684C277.7649,-754.5361 279.949,-753.0835 282,-751.5 306.015,-732.9589 293.9349,-711.9761 318,-693.5 322.3922,-690.1278 327.2382,-687.2082 332.315,-684.6807"/>
<polygon fill="#191970" stroke="#191970" points="273.7249,-752.8369 266.3398,-760.4337 276.8504,-759.1004 273.7249,-752.8369"/>
</g>
<!-- Node4 -->
<g id="node4" class="node">
<title>Node4</title>
<g id="a_node4"><a xlink:href="../../da/d29/classFun4AllServer.html#a11bbc8b2f53bc06e0b05ee202dd6372a" target="_top" xlink:title="run n events (0 means up to end of file)">
<polygon fill="none" stroke="#ff0000" points="543,-844.5 543,-864.5 653,-864.5 653,-844.5 543,-844.5"/>
<text text-anchor="middle" x="598" y="-851.5" font-family="FreeSans" font-size="10.00" fill="#000000">Fun4AllServer::run</text>
</a>
</g>
</g>
<!-- Node3&#45;&gt;Node4 -->
<g id="edge3" class="edge">
<title>Node3&#45;&gt;Node4</title>
<path fill="none" stroke="#191970" d="M481.3113,-854.5C502.0307,-854.5 523.8404,-854.5 542.9247,-854.5"/>
<polygon fill="#191970" stroke="#191970" points="481.2442,-851.0001 471.2442,-854.5 481.2442,-858.0001 481.2442,-851.0001"/>
</g>
<!-- Node5 -->
<g id="node5" class="node">
<title>Node5</title>
<g id="a_node5"><a xlink:href="../../dd/d9c/AnalyzeTree_8C.html#af10d516ac25cd720d54534a63ef7e2f8" target="_top" xlink:title="AnalyzeTree">
<polygon fill="none" stroke="#000000" points="757.5,-1677.5 757.5,-1697.5 835.5,-1697.5 835.5,-1677.5 757.5,-1677.5"/>
<text text-anchor="middle" x="796.5" y="-1684.5" font-family="FreeSans" font-size="10.00" fill="#000000">AnalyzeTree</text>
</a>
</g>
</g>
<!-- Node4&#45;&gt;Node5 -->
<g id="edge4" class="edge">
<title>Node4&#45;&gt;Node5</title>
<path fill="none" stroke="#191970" d="M599.5013,-874.8263C608.544,-994.8624 657.2434,-1607.8888 713,-1668.5 724.1725,-1680.6452 741.3546,-1685.8303 757.2345,-1687.8077"/>
<polygon fill="#191970" stroke="#191970" points="602.9662,-874.2249 598.731,-864.5134 595.9856,-874.7464 602.9662,-874.2249"/>
</g>
<!-- Node6 -->
<g id="node6" class="node">
<title>Node6</title>
<g id="a_node6"><a xlink:href="../../db/d89/ConstructGeometry_8C.html#a21c369835643f1016f506a3da3b8d446" target="_top" xlink:title="ConstructGeometry">
<polygon fill="none" stroke="#000000" points="739,-1638.5 739,-1658.5 854,-1658.5 854,-1638.5 739,-1638.5"/>
<text text-anchor="middle" x="796.5" y="-1645.5" font-family="FreeSans" font-size="10.00" fill="#000000">ConstructGeometry</text>
</a>
</g>
</g>
<!-- Node4&#45;&gt;Node6 -->
<g id="edge5" class="edge">
<title>Node4&#45;&gt;Node6</title>
<path fill="none" stroke="#191970" d="M599.6314,-874.5812C609.2319,-990.6077 659.7722,-1572.0406 713,-1629.5 719.8703,-1636.9165 728.9822,-1641.7335 738.6601,-1644.8088"/>
<polygon fill="#191970" stroke="#191970" points="603.1165,-874.2551 598.8099,-864.5751 596.14,-874.8279 603.1165,-874.2551"/>
</g>
<!-- Node7 -->
<g id="node7" class="node">
<title>Node7</title>
<g id="a_node7"><a xlink:href="../../d3/d7f/Fun_8C.html#af69a3eef3ff244bb51f5740c6ecb5432" target="_top" xlink:title="Fun">
<polygon fill="none" stroke="#000000" points="779.5,-1599.5 779.5,-1619.5 813.5,-1619.5 813.5,-1599.5 779.5,-1599.5"/>
<text text-anchor="middle" x="796.5" y="-1606.5" font-family="FreeSans" font-size="10.00" fill="#000000">Fun</text>
</a>
</g>
</g>
<!-- Node4&#45;&gt;Node7 -->
<g id="edge6" class="edge">
<title>Node4&#45;&gt;Node7</title>
<path fill="none" stroke="#191970" d="M598.2118,-874.8573C599.7521,-982.3067 612.3104,-1482.6399 713,-1590.5 729.9424,-1608.649 760.3139,-1611.2047 779.3838,-1610.7882"/>
<polygon fill="#191970" stroke="#191970" points="601.7098,-874.6696 598.0836,-864.7147 594.7104,-874.7582 601.7098,-874.6696"/>
</g>
<!-- Node8 -->
<g id="node8" class="node">
<title>Node8</title>
<g id="a_node8"><a xlink:href="../../dc/ddc/Fun4All__Ana_8C.html#a9152007c2477efc543d79f3b97fbf50c" target="_top" xlink:title="Fun4All_Ana">
<polygon fill="none" stroke="#000000" points="757.5,-1560.5 757.5,-1580.5 835.5,-1580.5 835.5,-1560.5 757.5,-1560.5"/>
<text text-anchor="middle" x="796.5" y="-1567.5" font-family="FreeSans" font-size="10.00" fill="#000000">Fun4All_Ana</text>
</a>
</g>
</g>
<!-- Node4&#45;&gt;Node8 -->
<g id="edge7" class="edge">
<title>Node4&#45;&gt;Node8</title>
<path fill="none" stroke="#191970" d="M598.4037,-874.7531C600.8912,-978.5508 617.3799,-1449.9415 713,-1551.5 724.3124,-1563.515 741.5132,-1568.6828 757.3692,-1570.6824"/>
<polygon fill="#191970" stroke="#191970" points="601.901,-874.5882 598.1795,-864.6684 594.9027,-874.7438 601.901,-874.5882"/>
</g>
<!-- Node9 -->
<g id="node9" class="node">
<title>Node9</title>
<g id="a_node9"><a xlink:href="../../df/d77/Fun4All__CaloAna_8C.html#a4f0841e3d8be48f96cc4e95380315ff8" target="_top" xlink:title="Fun4All_CaloAna">
<polygon fill="none" stroke="#000000" points="746.5,-1521.5 746.5,-1541.5 846.5,-1541.5 846.5,-1521.5 746.5,-1521.5"/>
<text text-anchor="middle" x="796.5" y="-1528.5" font-family="FreeSans" font-size="10.00" fill="#000000">Fun4All_CaloAna</text>
</a>
</g>
</g>
<!-- Node4&#45;&gt;Node9 -->
<g id="edge8" class="edge">
<title>Node4&#45;&gt;Node9</title>
<path fill="none" stroke="#191970" d="M598.6233,-874.8659C602.1179,-975.3522 622.5053,-1417.2958 713,-1512.5 721.7063,-1521.6594 733.8365,-1526.831 746.1571,-1529.6533"/>
<polygon fill="#191970" stroke="#191970" points="602.1119,-874.4578 598.2844,-864.5785 595.1157,-874.6884 602.1119,-874.4578"/>
</g>
<!-- Node10 -->
<g id="node10" class="node">
<title>Node10</title>
<g id="a_node10"><a xlink:href="../../da/dae/Fun4All__EICAnalysis__DIS_8C.html#a6be6c58cd68a395182a998295a1106ae" target="_top" xlink:title="Fun4All_EICAnalysis_DIS">
<polygon fill="none" stroke="#000000" points="727,-1482.5 727,-1502.5 866,-1502.5 866,-1482.5 727,-1482.5"/>
<text text-anchor="middle" x="796.5" y="-1489.5" font-family="FreeSans" font-size="10.00" fill="#000000">Fun4All_EICAnalysis_DIS</text>
</a>
</g>
</g>
<!-- Node4&#45;&gt;Node10 -->
<g id="edge9" class="edge">
<title>Node4&#45;&gt;Node10</title>
<path fill="none" stroke="#191970" d="M598.882,-875.1883C603.4595,-972.6192 627.6787,-1384.6917 713,-1473.5 717.017,-1477.6812 721.748,-1481.0294 726.8822,-1483.7013"/>
<polygon fill="#191970" stroke="#191970" points="602.3655,-874.7413 598.4184,-864.9092 595.3726,-875.0568 602.3655,-874.7413"/>
</g>
<!-- Node11 -->
<g id="node11" class="node">
<title>Node11</title>
<g id="a_node11"><a xlink:href="../../d2/d9b/Fun4All__EICAnalysis__DISReco_8C.html#a3c160743ec7b9b4572cf73a19640a34f" target="_top" xlink:title="Fun4All_EICAnalysis\l_DISReco">
<polygon fill="none" stroke="#000000" points="738,-1431.5 738,-1463.5 855,-1463.5 855,-1431.5 738,-1431.5"/>
<text text-anchor="start" x="746" y="-1450.5" font-family="FreeSans" font-size="10.00" fill="#000000">Fun4All_EICAnalysis</text>
<text text-anchor="middle" x="796.5" y="-1438.5" font-family="FreeSans" font-size="10.00" fill="#000000">_DISReco</text>
</a>
</g>
</g>
<!-- Node4&#45;&gt;Node11 -->
<g id="edge10" class="edge">
<title>Node4&#45;&gt;Node11</title>
<path fill="none" stroke="#191970" d="M599.3872,-875.0999C605.9825,-967.0746 637.0582,-1339.3009 713,-1422.5 719.7331,-1429.8765 728.5444,-1435.1112 737.9149,-1438.8181"/>
<polygon fill="#191970" stroke="#191970" points="602.8618,-874.6131 598.6737,-864.8812 595.8788,-875.1007 602.8618,-874.6131"/>
</g>
<!-- Node12 -->
<g id="node12" class="node">
<title>Node12</title>
<g id="a_node12"><a xlink:href="../../d2/d47/Fun4All__EICAnalysis__DVCS_8C.html#a84f48142243e969fd353cc8509f0ba22" target="_top" xlink:title="Fun4All_EICAnalysis_DVCS">
<polygon fill="none" stroke="#000000" points="721.5,-1392.5 721.5,-1412.5 871.5,-1412.5 871.5,-1392.5 721.5,-1392.5"/>
<text text-anchor="middle" x="796.5" y="-1399.5" font-family="FreeSans" font-size="10.00" fill="#000000">Fun4All_EICAnalysis_DVCS</text>
</a>
</g>
</g>
<!-- Node4&#45;&gt;Node12 -->
<g id="edge11" class="edge">
<title>Node4&#45;&gt;Node12</title>
<path fill="none" stroke="#191970" d="M599.5434,-874.6381C606.6632,-962.2261 639.1876,-1308.97 713,-1383.5 716.4523,-1386.9859 720.4021,-1389.8888 724.6638,-1392.3011"/>
<polygon fill="#191970" stroke="#191970" points="603.0317,-874.351 598.7522,-864.6589 596.0536,-874.9043 603.0317,-874.351"/>
</g>
<!-- Node13 -->
<g id="node13" class="node">
<title>Node13</title>
<g id="a_node13"><a xlink:href="../../d3/dee/Fun4All__EICAnalysis__Exclusive_8C.html#ad3a88bfdb2a21a757edf221e36d6bffe" target="_top" xlink:title="Fun4All_EICAnalysis\l_Exclusive">
<polygon fill="none" stroke="#000000" points="738,-1341.5 738,-1373.5 855,-1373.5 855,-1341.5 738,-1341.5"/>
<text text-anchor="start" x="746" y="-1360.5" font-family="FreeSans" font-size="10.00" fill="#000000">Fun4All_EICAnalysis</text>
<text text-anchor="middle" x="796.5" y="-1348.5" font-family="FreeSans" font-size="10.00" fill="#000000">_Exclusive</text>
</a>
</g>
</g>
<!-- Node4&#45;&gt;Node13 -->
<g id="edge12" class="edge">
<title>Node4&#45;&gt;Node13</title>
<path fill="none" stroke="#191970" d="M600.2123,-874.9078C609.5311,-957.2605 648.1313,-1263.9748 713,-1332.5 719.7619,-1339.6431 728.4732,-1344.7705 737.7079,-1348.4454"/>
<polygon fill="#191970" stroke="#191970" points="603.675,-874.377 599.092,-864.8247 596.7178,-875.1501 603.675,-874.377"/>
</g>
<!-- Node14 -->
<g id="node14" class="node">
<title>Node14</title>
<g id="a_node14"><a xlink:href="../../d2/d00/Fun4All__EICAnalysis__Leptoquarks_8C.html#a328697c2ae82c0b33f95bea9aefb93f4" target="_top" xlink:title="Fun4All_EICAnalysis\l_Leptoquarks">
<polygon fill="none" stroke="#000000" points="738,-1290.5 738,-1322.5 855,-1322.5 855,-1290.5 738,-1290.5"/>
<text text-anchor="start" x="746" y="-1309.5" font-family="FreeSans" font-size="10.00" fill="#000000">Fun4All_EICAnalysis</text>
<text text-anchor="middle" x="796.5" y="-1297.5" font-family="FreeSans" font-size="10.00" fill="#000000">_Leptoquarks</text>
</a>
</g>
</g>
<!-- Node4&#45;&gt;Node14 -->
<g id="edge13" class="edge">
<title>Node4&#45;&gt;Node14</title>
<path fill="none" stroke="#191970" d="M600.8744,-875.1468C611.987,-952.1567 654.4503,-1221.2978 713,-1281.5 719.8577,-1288.5512 728.616,-1293.6334 737.8678,-1297.292"/>
<polygon fill="#191970" stroke="#191970" points="604.2848,-874.2684 599.4129,-864.8602 597.3544,-875.2531 604.2848,-874.2684"/>
</g>
<!-- Node15 -->
<g id="node15" class="node">
<title>Node15</title>
<g id="a_node15"><a xlink:href="../../df/d6c/Fun4All__EICAnalysis__JPsi_8C.html#ad03644e8a25c5261146f6c59826ed6d0" target="_top" xlink:title="Fun4All_EICAnalysis\l_Quarkonia">
<polygon fill="none" stroke="#000000" points="738,-1239.5 738,-1271.5 855,-1271.5 855,-1239.5 738,-1239.5"/>
<text text-anchor="start" x="746" y="-1258.5" font-family="FreeSans" font-size="10.00" fill="#000000">Fun4All_EICAnalysis</text>
<text text-anchor="middle" x="796.5" y="-1246.5" font-family="FreeSans" font-size="10.00" fill="#000000">_Quarkonia</text>
</a>
</g>
</g>
<!-- Node4&#45;&gt;Node15 -->
<g id="edge14" class="edge">
<title>Node4&#45;&gt;Node15</title>
<path fill="none" stroke="#191970" d="M601.6347,-874.9204C614.5996,-945.6101 660.6067,-1178.4153 713,-1230.5 719.8683,-1237.3278 728.5212,-1242.3043 737.6372,-1245.9282"/>
<polygon fill="#191970" stroke="#191970" points="605.0065,-873.8975 599.7813,-864.6809 598.1185,-875.1444 605.0065,-873.8975"/>
</g>
<!-- Node16 -->
<g id="node16" class="node">
<title>Node16</title>
<g id="a_node16"><a xlink:href="../../df/d90/Fun4All__EICAnalysis__TrackEval_8C.html#ab4d10c3db3266243a5c314b02c02a360" target="_top" xlink:title="Fun4All_EICAnalysis\l_TrackEval">
<polygon fill="none" stroke="#000000" points="738,-1188.5 738,-1220.5 855,-1220.5 855,-1188.5 738,-1188.5"/>
<text text-anchor="start" x="746" y="-1207.5" font-family="FreeSans" font-size="10.00" fill="#000000">Fun4All_EICAnalysis</text>
<text text-anchor="middle" x="796.5" y="-1195.5" font-family="FreeSans" font-size="10.00" fill="#000000">_TrackEval</text>
</a>
</g>
</g>
<!-- Node4&#45;&gt;Node16 -->
<g id="edge15" class="edge">
<title>Node4&#45;&gt;Node16</title>
<path fill="none" stroke="#191970" d="M599.0657,-874.924C603.1521,-931.7895 622.5611,-1093.4038 713,-1179.5 720.0144,-1186.1776 728.7404,-1191.0789 737.8838,-1194.6747"/>
<polygon fill="#191970" stroke="#191970" points="602.5448,-874.4808 598.4211,-864.7215 595.5587,-874.9223 602.5448,-874.4808"/>
</g>
<!-- Node17 -->
<g id="node17" class="node">
<title>Node17</title>
<g id="a_node17"><a xlink:href="../../de/dc8/Fun4All__EMCalLikelihood_8C.html#a209f0d5788c9d3adba2967f194bca64a" target="_top" xlink:title="Fun4All_EMCalLikelihood">
<polygon fill="none" stroke="#000000" points="726,-1149.5 726,-1169.5 867,-1169.5 867,-1149.5 726,-1149.5"/>
<text text-anchor="middle" x="796.5" y="-1156.5" font-family="FreeSans" font-size="10.00" fill="#000000">Fun4All_EMCalLikelihood</text>
</a>
</g>
</g>
<!-- Node4&#45;&gt;Node17 -->
<g id="edge16" class="edge">
<title>Node4&#45;&gt;Node17</title>
<path fill="none" stroke="#191970" d="M599.8566,-874.8642C605.7923,-927.5131 629.16,-1069.0025 713,-1140.5 717.1855,-1144.0694 721.9054,-1147.0039 726.9178,-1149.4124"/>
<polygon fill="#191970" stroke="#191970" points="603.3233,-874.3601 598.8146,-864.7725 596.3603,-875.0791 603.3233,-874.3601"/>
</g>
<!-- Node18 -->
<g id="node18" class="node">
<title>Node18</title>
<g id="a_node18"><a xlink:href="../../df/d51/Fun4All__ExportGeom_8C.html#a582925c51bad38d562cf19e71211adfd" target="_top" xlink:title="get geometry from DST file and output TGeoManager ROOT files or other formats of geometry files...">
<polygon fill="none" stroke="#000000" points="735.5,-1110.5 735.5,-1130.5 857.5,-1130.5 857.5,-1110.5 735.5,-1110.5"/>
<text text-anchor="middle" x="796.5" y="-1117.5" font-family="FreeSans" font-size="10.00" fill="#000000">Fun4All_ExportGeom</text>
</a>
</g>
</g>
<!-- Node4&#45;&gt;Node18 -->
<g id="edge17" class="edge">
<title>Node4&#45;&gt;Node18</title>
<path fill="none" stroke="#191970" d="M601.2329,-874.6205C609.9592,-922.0512 638.5625,-1041.3796 713,-1101.5 719.4769,-1106.7311 727.1158,-1110.5828 735.0983,-1113.4083"/>
<polygon fill="#191970" stroke="#191970" points="604.6638,-873.9205 599.504,-864.667 597.7671,-875.1185 604.6638,-873.9205"/>
</g>
<!-- Node19 -->
<g id="node19" class="node">
<title>Node19</title>
<g id="a_node19"><a xlink:href="../../de/d55/Fun4All__G4__block_8C.html#a6a063a649a0dd3318a517d5af98430dd" target="_top" xlink:title="Fun4All_G4_block">
<polygon fill="none" stroke="#000000" points="744,-1071.5 744,-1091.5 849,-1091.5 849,-1071.5 744,-1071.5"/>
<text text-anchor="middle" x="796.5" y="-1078.5" font-family="FreeSans" font-size="10.00" fill="#000000">Fun4All_G4_block</text>
</a>
</g>
</g>
<!-- Node4&#45;&gt;Node19 -->
<g id="edge18" class="edge">
<title>Node4&#45;&gt;Node19</title>
<path fill="none" stroke="#191970" d="M603.0916,-874.5352C614.8305,-916.4513 647.9103,-1013.5568 713,-1062.5 721.912,-1069.2012 732.7689,-1073.6067 743.6663,-1076.4865"/>
<polygon fill="#191970" stroke="#191970" points="606.4225,-873.4437 600.4482,-864.6939 599.6622,-875.2596 606.4225,-873.4437"/>
</g>
<!-- Node20 -->
<g id="node20" class="node">
<title>Node20</title>
<g id="a_node20"><a xlink:href="../../d8/d91/Fun4All__G4__Clusters_8C.html#ab7d8e64f12f512631d4c0e8c6683ec5b" target="_top" xlink:title="Fun4All_G4_Clusters">
<polygon fill="none" stroke="#000000" points="737,-1032.5 737,-1052.5 856,-1052.5 856,-1032.5 737,-1032.5"/>
<text text-anchor="middle" x="796.5" y="-1039.5" font-family="FreeSans" font-size="10.00" fill="#000000">Fun4All_G4_Clusters</text>
</a>
</g>
</g>
<!-- Node4&#45;&gt;Node20 -->
<g id="edge19" class="edge">
<title>Node4&#45;&gt;Node20</title>
<path fill="none" stroke="#191970" d="M605.6148,-874.192C620.4958,-909.9268 656.9599,-985.2829 713,-1023.5 720.124,-1028.3583 728.3061,-1031.9905 736.701,-1034.7027"/>
<polygon fill="#191970" stroke="#191970" points="608.8293,-872.8048 601.8408,-864.8416 602.3381,-875.4248 608.8293,-872.8048"/>
</g>
<!-- Node21 -->
<g id="node21" class="node">
<title>Node21</title>
<g id="a_node21"><a xlink:href="../../d2/dee/Fun4All__G4__Cylinder_8C.html#a271dc4f10f6f77107705e0efef0c97e5" target="_top" xlink:title="Fun4All_G4_Cylinder">
<polygon fill="none" stroke="#000000" points="736,-993.5 736,-1013.5 857,-1013.5 857,-993.5 736,-993.5"/>
<text text-anchor="middle" x="796.5" y="-1000.5" font-family="FreeSans" font-size="10.00" fill="#000000">Fun4All_G4_Cylinder</text>
</a>
</g>
</g>
<!-- Node4&#45;&gt;Node21 -->
<g id="edge20" class="edge">
<title>Node4&#45;&gt;Node21</title>
<path fill="none" stroke="#191970" d="M609.0661,-873.1917C627.0646,-901.8649 665.4931,-956.3358 713,-984.5 720.0337,-988.6699 727.8993,-991.9251 735.9147,-994.466"/>
<polygon fill="#191970" stroke="#191970" points="611.9698,-871.2314 603.7619,-864.532 606.0006,-874.8877 611.9698,-871.2314"/>
</g>
<!-- Node22 -->
<g id="node22" class="node">
<title>Node22</title>
<g id="a_node22"><a xlink:href="../../da/d02/Fun4All__G4__EICDetector_8C.html#afbe82cefa1d1fd031d9a8586b7bb68c6" target="_top" xlink:title="Fun4All_G4_EICDetector">
<polygon fill="none" stroke="#000000" points="727,-954.5 727,-974.5 866,-974.5 866,-954.5 727,-954.5"/>
<text text-anchor="middle" x="796.5" y="-961.5" font-family="FreeSans" font-size="10.00" fill="#000000">Fun4All_G4_EICDetector</text>
</a>
</g>
</g>
<!-- Node4&#45;&gt;Node22 -->
<g id="edge21" class="edge">
<title>Node4&#45;&gt;Node22</title>
<path fill="none" stroke="#191970" d="M614.9055,-871.9892C635.9478,-892.7118 673.9053,-926.7799 713,-945.5 720.5091,-949.0956 728.7286,-952.0274 736.9883,-954.4136"/>
<polygon fill="#191970" stroke="#191970" points="617.2399,-869.3733 607.702,-864.7603 612.2815,-874.3144 617.2399,-869.3733"/>
</g>
<!-- Node23 -->
<g id="node23" class="node">
<title>Node23</title>
<g id="a_node23"><a xlink:href="../../dd/d2a/Fun4All__G4__EICDetector__LQ_8C.html#aaa01242fd6e77ca43a9d49a6d46008e4" target="_top" xlink:title="Fun4All_G4_EICDetector_LQ">
<polygon fill="none" stroke="#000000" points="718.5,-915.5 718.5,-935.5 874.5,-935.5 874.5,-915.5 718.5,-915.5"/>
<text text-anchor="middle" x="796.5" y="-922.5" font-family="FreeSans" font-size="10.00" fill="#000000">Fun4All_G4_EICDetector_LQ</text>
</a>
</g>
</g>
<!-- Node4&#45;&gt;Node23 -->
<g id="edge22" class="edge">
<title>Node4&#45;&gt;Node23</title>
<path fill="none" stroke="#191970" d="M626.1859,-869.1731C649.0815,-880.6168 682.468,-896.2396 713,-906.5 723.1467,-909.9098 734.1908,-912.9046 744.825,-915.448"/>
<polygon fill="#191970" stroke="#191970" points="627.5577,-865.9447 617.0547,-864.5524 624.397,-872.1906 627.5577,-865.9447"/>
</g>
<!-- Node24 -->
<g id="node24" class="node">
<title>Node24</title>
<g id="a_node24"><a xlink:href="../../df/d4b/Fun4All__G4__EICDetector__LQ__analysis_8C.html#af903e98824d083a08b353ac15996ee0e" target="_top" xlink:title="Fun4All_G4_EICDetector\l_LQ_analysis">
<polygon fill="none" stroke="#000000" points="727,-864.5 727,-896.5 866,-896.5 866,-864.5 727,-864.5"/>
<text text-anchor="start" x="735" y="-883.5" font-family="FreeSans" font-size="10.00" fill="#000000">Fun4All_G4_EICDetector</text>
<text text-anchor="middle" x="796.5" y="-871.5" font-family="FreeSans" font-size="10.00" fill="#000000">_LQ_analysis</text>
</a>
</g>
</g>
<!-- Node4&#45;&gt;Node24 -->
<g id="edge23" class="edge">
<title>Node4&#45;&gt;Node24</title>
<path fill="none" stroke="#191970" d="M663.1561,-863.0343C683.543,-865.7046 706.1146,-868.6611 726.8014,-871.3707"/>
<polygon fill="#191970" stroke="#191970" points="663.3996,-859.5364 653.0297,-861.7079 662.4904,-866.4771 663.3996,-859.5364"/>
</g>
<!-- Node25 -->
<g id="node25" class="node">
<title>Node25</title>
<g id="a_node25"><a xlink:href="../../d1/daf/Fun4All__G4__EICDetector__LQ__analysis__nf_8C.html#a5022607d21247b87dd208b0828905147" target="_top" xlink:title="Fun4All_G4_EICDetector\l_LQ_analysis_nf">
<polygon fill="none" stroke="#000000" points="727,-813.5 727,-845.5 866,-845.5 866,-813.5 727,-813.5"/>
<text text-anchor="start" x="735" y="-832.5" font-family="FreeSans" font-size="10.00" fill="#000000">Fun4All_G4_EICDetector</text>
<text text-anchor="middle" x="796.5" y="-820.5" font-family="FreeSans" font-size="10.00" fill="#000000">_LQ_analysis_nf</text>
</a>
</g>
</g>
<!-- Node4&#45;&gt;Node25 -->
<g id="edge24" class="edge">
<title>Node4&#45;&gt;Node25</title>
<path fill="none" stroke="#191970" d="M663.1561,-846.2939C683.543,-843.7263 706.1146,-840.8836 726.8014,-838.2782"/>
<polygon fill="#191970" stroke="#191970" points="662.514,-842.8471 653.0297,-847.5693 663.3887,-849.7922 662.514,-842.8471"/>
</g>
<!-- Node26 -->
<g id="node26" class="node">
<title>Node26</title>
<g id="a_node26"><a xlink:href="../../d4/df5/Fun4All__G4__EICDetector__LQ__reference_8C.html#a2feefc472f17f90b3cbe74897d049f75" target="_top" xlink:title="Fun4All_G4_EICDetector\l_LQ_reference">
<polygon fill="none" stroke="#000000" points="727,-762.5 727,-794.5 866,-794.5 866,-762.5 727,-762.5"/>
<text text-anchor="start" x="735" y="-781.5" font-family="FreeSans" font-size="10.00" fill="#000000">Fun4All_G4_EICDetector</text>
<text text-anchor="middle" x="796.5" y="-769.5" font-family="FreeSans" font-size="10.00" fill="#000000">_LQ_reference</text>
</a>
</g>
</g>
<!-- Node4&#45;&gt;Node26 -->
<g id="edge25" class="edge">
<title>Node4&#45;&gt;Node26</title>
<path fill="none" stroke="#191970" d="M628.5634,-840.1336C651.5265,-829.605 683.8964,-815.3218 713,-804.5 722.2502,-801.0604 732.1861,-797.6914 741.8632,-794.5787"/>
<polygon fill="#191970" stroke="#191970" points="626.9465,-837.0251 619.335,-844.395 629.8811,-843.3802 626.9465,-837.0251"/>
</g>
<!-- Node27 -->
<g id="node27" class="node">
<title>Node27</title>
<g id="a_node27"><a xlink:href="../../d3/d51/Fun4All__G4__EICDetector__RICH_8C.html#a5739502b0a7a1ba782c01069f77e933f" target="_top" xlink:title="Fun4All_G4_EICDetector_RICH">
<polygon fill="none" stroke="#000000" points="713,-723.5 713,-743.5 880,-743.5 880,-723.5 713,-723.5"/>
<text text-anchor="middle" x="796.5" y="-730.5" font-family="FreeSans" font-size="10.00" fill="#000000">Fun4All_G4_EICDetector_RICH</text>
</a>
</g>
</g>
<!-- Node4&#45;&gt;Node27 -->
<g id="edge26" class="edge">
<title>Node4&#45;&gt;Node27</title>
<path fill="none" stroke="#191970" d="M619.8312,-837.9405C636.0218,-825.3928 658.4129,-807.4713 677,-790.5 693.9434,-775.0294 693.0559,-764.8424 713,-753.5 720.1267,-749.447 728.0454,-746.2123 736.0867,-743.6315"/>
<polygon fill="#191970" stroke="#191970" points="617.3312,-835.4477 611.5379,-844.3184 621.5985,-840.9966 617.3312,-835.4477"/>
</g>
<!-- Node28 -->
<g id="node28" class="node">
<title>Node28</title>
<g id="a_node28"><a xlink:href="../../d9/d0e/Fun4All__G4__EICIR_8C.html#ac3543d1dd4a0abed3987d40939ee3f87" target="_top" xlink:title="Fun4All_G4_EICIR">
<polygon fill="none" stroke="#000000" points="744.5,-684.5 744.5,-704.5 848.5,-704.5 848.5,-684.5 744.5,-684.5"/>
<text text-anchor="middle" x="796.5" y="-691.5" font-family="FreeSans" font-size="10.00" fill="#000000">Fun4All_G4_EICIR</text>
</a>
</g>
</g>
<!-- Node4&#45;&gt;Node28 -->
<g id="edge27" class="edge">
<title>Node4&#45;&gt;Node28</title>
<path fill="none" stroke="#191970" d="M622.7107,-838.8916C639.6875,-827.1976 661.8156,-809.9192 677,-790.5 700.2702,-760.74 683.5917,-737.2132 713,-713.5 721.9115,-706.3143 733.0163,-701.7323 744.1889,-698.8379"/>
<polygon fill="#191970" stroke="#191970" points="620.7279,-836.007 614.3666,-844.4796 624.623,-841.8233 620.7279,-836.007"/>
</g>
<!-- Node29 -->
<g id="node29" class="node">
<title>Node29</title>
<g id="a_node29"><a xlink:href="../../d7/d9e/Fun4All__G4__fsPHENIX_8C.html#af48911d394d2412e817583700f2bbee2" target="_top" xlink:title="Fun4All_G4_fsPHENIX">
<polygon fill="none" stroke="#000000" points="734.5,-645.5 734.5,-665.5 858.5,-665.5 858.5,-645.5 734.5,-645.5"/>
<text text-anchor="middle" x="796.5" y="-652.5" font-family="FreeSans" font-size="10.00" fill="#000000">Fun4All_G4_fsPHENIX</text>
</a>
</g>
</g>
<!-- Node4&#45;&gt;Node29 -->
<g id="edge28" class="edge">
<title>Node4&#45;&gt;Node29</title>
<path fill="none" stroke="#191970" d="M624.5107,-838.8731C641.7339,-827.4673 663.4273,-810.5356 677,-790.5 707.2755,-745.8081 673.3852,-711.1694 713,-674.5 719.1098,-668.8445 726.5422,-664.754 734.4262,-661.8146"/>
<polygon fill="#191970" stroke="#191970" points="622.5232,-835.9894 615.9783,-844.321 626.2903,-841.8894 622.5232,-835.9894"/>
</g>
<!-- Node30 -->
<g id="node30" class="node">
<title>Node30</title>
<g id="a_node30"><a xlink:href="../../da/d2f/Fun4All__G4__fsPHENIX__FastSim_8C.html#a66fb850cae5fcaadda23b74a25ce4c9c" target="_top" xlink:title="Fun4All_G4_fsPHENIX\l_FastSim">
<polygon fill="none" stroke="#000000" points="734.5,-594.5 734.5,-626.5 858.5,-626.5 858.5,-594.5 734.5,-594.5"/>
<text text-anchor="start" x="742.5" y="-613.5" font-family="FreeSans" font-size="10.00" fill="#000000">Fun4All_G4_fsPHENIX</text>
<text text-anchor="middle" x="796.5" y="-601.5" font-family="FreeSans" font-size="10.00" fill="#000000">_FastSim</text>
</a>
</g>
</g>
<!-- Node4&#45;&gt;Node30 -->
<g id="edge29" class="edge">
<title>Node4&#45;&gt;Node30</title>
<path fill="none" stroke="#191970" d="M625.3131,-838.9731C642.6884,-827.7032 664.2442,-810.8883 677,-790.5 714.5106,-730.5447 664.5836,-687.0512 713,-635.5 718.9049,-629.2127 726.3199,-624.4859 734.2797,-620.9362"/>
<polygon fill="#191970" stroke="#191970" points="623.3156,-836.0937 616.6767,-844.3506 627.0156,-842.036 623.3156,-836.0937"/>
</g>
<!-- Node31 -->
<g id="node31" class="node">
<title>Node31</title>
<g id="a_node31"><a xlink:href="../../d0/da6/Fun4All__G4__fsPHENIX__pi0_8C.html#a023d91d47b678e5d7f1751834aa517c6" target="_top" xlink:title="Fun4All_G4_fsPHENIX_pi0">
<polygon fill="none" stroke="#000000" points="724,-555.5 724,-575.5 869,-575.5 869,-555.5 724,-555.5"/>
<text text-anchor="middle" x="796.5" y="-562.5" font-family="FreeSans" font-size="10.00" fill="#000000">Fun4All_G4_fsPHENIX_pi0</text>
</a>
</g>
</g>
<!-- Node4&#45;&gt;Node31 -->
<g id="edge30" class="edge">
<title>Node4&#45;&gt;Node31</title>
<path fill="none" stroke="#191970" d="M626.0149,-838.9889C643.4889,-827.8152 664.8879,-811.103 677,-790.5 724.1029,-710.3768 648.9671,-651.8662 713,-584.5 716.3801,-580.944 720.2762,-577.989 724.4992,-575.5393"/>
<polygon fill="#191970" stroke="#191970" points="624.0079,-836.1136 617.3048,-844.3184 627.6615,-842.0846 624.0079,-836.1136"/>
</g>
<!-- Node32 -->
<g id="node32" class="node">
<title>Node32</title>
<g id="a_node32"><a xlink:href="../../df/de1/Fun4All__G4__IonGun_8C.html#ab4966a2ae337cb8f0e45f7ee488e33b7" target="_top" xlink:title="Fun4All_G4_IonGun">
<polygon fill="none" stroke="#000000" points="739.5,-516.5 739.5,-536.5 853.5,-536.5 853.5,-516.5 739.5,-516.5"/>
<text text-anchor="middle" x="796.5" y="-523.5" font-family="FreeSans" font-size="10.00" fill="#000000">Fun4All_G4_IonGun</text>
</a>
</g>
</g>
<!-- Node4&#45;&gt;Node32 -->
<g id="edge31" class="edge">
<title>Node4&#45;&gt;Node32</title>
<path fill="none" stroke="#191970" d="M626.2016,-839.097C643.7531,-827.9681 665.1683,-811.2653 677,-790.5 731.4853,-694.875 638.2642,-626.292 713,-545.5 719.966,-537.9695 729.2429,-533.1182 739.0789,-530.0488"/>
<polygon fill="#191970" stroke="#191970" points="624.1862,-836.2256 617.4466,-844.4005 627.8132,-842.2128 624.1862,-836.2256"/>
</g>
<!-- Node33 -->
<g id="node33" class="node">
<title>Node33</title>
<g id="a_node33"><a xlink:href="../../d5/d01/Fun4All__G4__LeadBrick_8C.html#a5fcd8843f8a815feb3b053eaabd60d41" target="_top" xlink:title="Fun4All_G4_LeadBrick">
<polygon fill="none" stroke="#000000" points="732.5,-477.5 732.5,-497.5 860.5,-497.5 860.5,-477.5 732.5,-477.5"/>
<text text-anchor="middle" x="796.5" y="-484.5" font-family="FreeSans" font-size="10.00" fill="#000000">Fun4All_G4_LeadBrick</text>
</a>
</g>
</g>
<!-- Node4&#45;&gt;Node33 -->
<g id="edge32" class="edge">
<title>Node4&#45;&gt;Node33</title>
<path fill="none" stroke="#191970" d="M626.3389,-839.1743C643.9474,-828.0775 665.3746,-811.3814 677,-790.5 738.8896,-679.3347 627.5312,-600.7504 713,-506.5 718.2931,-500.663 724.9735,-496.4286 732.2399,-493.3832"/>
<polygon fill="#191970" stroke="#191970" points="624.3168,-836.3061 617.5509,-844.4593 627.9244,-842.3049 624.3168,-836.3061"/>
</g>
<!-- Node34 -->
<g id="node34" class="node">
<title>Node34</title>
<g id="a_node34"><a xlink:href="../../d9/d8f/Fun4All__G4__Momentum_8C.html#afbd7a4eecd7792e9216ce80b5514123e" target="_top" xlink:title="Fun4All_G4_Momentum">
<polygon fill="none" stroke="#000000" points="729,-438.5 729,-458.5 864,-458.5 864,-438.5 729,-438.5"/>
<text text-anchor="middle" x="796.5" y="-445.5" font-family="FreeSans" font-size="10.00" fill="#000000">Fun4All_G4_Momentum</text>
</a>
</g>
</g>
<!-- Node4&#45;&gt;Node34 -->
<g id="edge33" class="edge">
<title>Node4&#45;&gt;Node34</title>
<path fill="none" stroke="#191970" d="M626.7775,-839.0227C644.3654,-827.9495 665.6046,-811.3367 677,-790.5 711.654,-727.1348 664.8895,-521.3649 713,-467.5 717.4566,-462.5103 722.9266,-458.6877 728.9158,-455.7761"/>
<polygon fill="#191970" stroke="#191970" points="624.7567,-836.1535 617.9844,-844.3014 628.3596,-842.1552 624.7567,-836.1535"/>
</g>
<!-- Node35 -->
<g id="node35" class="node">
<title>Node35</title>
<g id="a_node35"><a xlink:href="../../dc/d8e/Fun4All__G4__Prototype2_8C.html#a6b8f092c4f51be2938dd09c810ba6226" target="_top" xlink:title="Fun4All_G4_Prototype2">
<polygon fill="none" stroke="#000000" points="730,-399.5 730,-419.5 863,-419.5 863,-399.5 730,-399.5"/>
<text text-anchor="middle" x="796.5" y="-406.5" font-family="FreeSans" font-size="10.00" fill="#000000">Fun4All_G4_Prototype2</text>
</a>
</g>
</g>
<!-- Node4&#45;&gt;Node35 -->
<g id="edge34" class="edge">
<title>Node4&#45;&gt;Node35</title>
<path fill="none" stroke="#191970" d="M626.8612,-839.0682C644.483,-828.0134 665.7285,-811.404 677,-790.5 715.3677,-719.3437 659.5069,-489.1118 713,-428.5 717.6237,-423.261 723.3641,-419.3053 729.6554,-416.3382"/>
<polygon fill="#191970" stroke="#191970" points="624.836,-836.201 618.0484,-844.3361 628.4276,-842.2094 624.836,-836.201"/>
</g>
<!-- Node36 -->
<g id="node36" class="node">
<title>Node36</title>
<g id="a_node36"><a xlink:href="../../d7/d40/Fun4All__G4__Prototype3_8C.html#a1201361263017b08a070777a0b90b27c" target="_top" xlink:title="Fun4All_G4_Prototype3">
<polygon fill="none" stroke="#000000" points="730,-360.5 730,-380.5 863,-380.5 863,-360.5 730,-360.5"/>
<text text-anchor="middle" x="796.5" y="-367.5" font-family="FreeSans" font-size="10.00" fill="#000000">Fun4All_G4_Prototype3</text>
</a>
</g>
</g>
<!-- Node4&#45;&gt;Node36 -->
<g id="edge35" class="edge">
<title>Node4&#45;&gt;Node36</title>
<path fill="none" stroke="#191970" d="M626.9289,-839.1045C644.5782,-828.0644 665.8288,-811.4578 677,-790.5 719.0848,-711.5465 654.1197,-456.864 713,-389.5 717.5985,-384.2389 723.323,-380.2692 729.6051,-377.294"/>
<polygon fill="#191970" stroke="#191970" points="624.9001,-836.2391 618.1002,-844.3639 628.4826,-842.2529 624.9001,-836.2391"/>
</g>
<!-- Node37 -->
<g id="node37" class="node">
<title>Node37</title>
<g id="a_node37"><a xlink:href="../../d4/d58/Fun4All__G4__Prototype4_8C.html#acac517f0728af658cbf99c7c9687c908" target="_top" xlink:title="Fun4All_G4_Prototype4">
<polygon fill="none" stroke="#000000" points="730,-321.5 730,-341.5 863,-341.5 863,-321.5 730,-321.5"/>
<text text-anchor="middle" x="796.5" y="-328.5" font-family="FreeSans" font-size="10.00" fill="#000000">Fun4All_G4_Prototype4</text>
</a>
</g>
</g>
<!-- Node4&#45;&gt;Node37 -->
<g id="edge36" class="edge">
<title>Node4&#45;&gt;Node37</title>
<path fill="none" stroke="#191970" d="M626.9849,-839.1342C644.6568,-828.1061 665.9117,-811.5017 677,-790.5 722.8043,-703.7448 648.7292,-424.6199 713,-350.5 717.6751,-345.1085 723.5326,-341.0708 729.9647,-338.0688"/>
<polygon fill="#191970" stroke="#191970" points="624.9529,-836.2702 618.143,-844.3866 628.528,-842.2884 624.9529,-836.2702"/>
</g>
<!-- Node38 -->
<g id="node38" class="node">
<title>Node38</title>
<g id="a_node38"><a xlink:href="../../d5/d2c/macros_2blob_2master_2macros_2g4simulations_2Fun4All__G4__sPHENIX_8C.html#a6eaaa492d7023ec86c562dc63aa1e5a4" target="_top" xlink:title="Fun4All_G4_sPHENIX">
<polygon fill="none" stroke="#000000" points="736,-282.5 736,-302.5 857,-302.5 857,-282.5 736,-282.5"/>
<text text-anchor="middle" x="796.5" y="-289.5" font-family="FreeSans" font-size="10.00" fill="#000000">Fun4All_G4_sPHENIX</text>
</a>
</g>
</g>
<!-- Node4&#45;&gt;Node38 -->
<g id="edge37" class="edge">
<title>Node4&#45;&gt;Node38</title>
<path fill="none" stroke="#191970" d="M627.0319,-839.1589C644.7229,-828.1408 665.9813,-811.5383 677,-790.5 726.5255,-695.9397 643.3362,-392.3788 713,-311.5 719.0156,-304.516 727.0151,-299.8004 735.6846,-296.6641"/>
<polygon fill="#191970" stroke="#191970" points="624.9972,-836.2961 618.1789,-844.4055 628.5661,-842.3181 624.9972,-836.2961"/>
</g>
<!-- Node39 -->
<g id="node39" class="node">
<title>Node39</title>
<g id="a_node39"><a xlink:href="../../d3/de2/Fun4All__G4__sPHENIX__AnaGenFit_8C.html#a9bf3f2f72ed69a17e2d0c1121d48013c" target="_top" xlink:title="Fun4All_G4_sPHENIX\l_AnaGenFit">
<polygon fill="none" stroke="#000000" points="736,-231.5 736,-263.5 857,-263.5 857,-231.5 736,-231.5"/>
<text text-anchor="start" x="744" y="-250.5" font-family="FreeSans" font-size="10.00" fill="#000000">Fun4All_G4_sPHENIX</text>
<text text-anchor="middle" x="796.5" y="-238.5" font-family="FreeSans" font-size="10.00" fill="#000000">_AnaGenFit</text>
</a>
</g>
</g>
<!-- Node4&#45;&gt;Node39 -->
<g id="edge38" class="edge">
<title>Node4&#45;&gt;Node39</title>
<path fill="none" stroke="#191970" d="M627.0719,-839.1797C644.7791,-828.1702 666.0405,-811.5692 677,-790.5 730.2482,-688.132 640.9265,-362.6109 713,-272.5 718.9547,-265.0551 727.0355,-259.7604 735.8353,-256.0085"/>
<polygon fill="#191970" stroke="#191970" points="625.0349,-836.3181 618.2095,-844.4214 628.5985,-842.3431 625.0349,-836.3181"/>
</g>
<!-- Node40 -->
<g id="node40" class="node">
<title>Node40</title>
<g id="a_node40"><a xlink:href="../../da/dd0/Fun4All__G4__sPHENIX__photonjet_8C.html#a6f18519e216acc05399e562ea57ea77c" target="_top" xlink:title="Fun4All_G4_sPHENIX\l_photonjet">
<polygon fill="none" stroke="#000000" points="736,-180.5 736,-212.5 857,-212.5 857,-180.5 736,-180.5"/>
<text text-anchor="start" x="744" y="-199.5" font-family="FreeSans" font-size="10.00" fill="#000000">Fun4All_G4_sPHENIX</text>
<text text-anchor="middle" x="796.5" y="-187.5" font-family="FreeSans" font-size="10.00" fill="#000000">_photonjet</text>
</a>
</g>
</g>
<!-- Node4&#45;&gt;Node40 -->
<g id="edge39" class="edge">
<title>Node4&#45;&gt;Node40</title>
<path fill="none" stroke="#191970" d="M627.116,-839.2026C644.8411,-828.2023 666.1059,-811.6031 677,-790.5 735.1179,-677.9189 634.1702,-320.687 713,-221.5 718.9316,-214.0366 727.0006,-208.7326 735.7959,-204.9771"/>
<polygon fill="#191970" stroke="#191970" points="625.0765,-836.3422 618.2433,-844.4389 628.6343,-842.3706 625.0765,-836.3422"/>
</g>
<!-- Node41 -->
<g id="node41" class="node">
<title>Node41</title>
<g id="a_node41"><a xlink:href="../../da/d85/Fun4All__G4__sPHENIX__photons_8C.html#a02fbbd59878fe1299f58ed187e7214ba" target="_top" xlink:title="Fun4All_G4_sPHENIX\l_photons">
<polygon fill="none" stroke="#000000" points="736,-129.5 736,-161.5 857,-161.5 857,-129.5 736,-129.5"/>
<text text-anchor="start" x="744" y="-148.5" font-family="FreeSans" font-size="10.00" fill="#000000">Fun4All_G4_sPHENIX</text>
<text text-anchor="middle" x="796.5" y="-136.5" font-family="FreeSans" font-size="10.00" fill="#000000">_photons</text>
</a>
</g>
</g>
<!-- Node4&#45;&gt;Node41 -->
<g id="edge40" class="edge">
<title>Node4&#45;&gt;Node41</title>
<path fill="none" stroke="#191970" d="M627.153,-839.2217C644.8931,-828.2291 666.1607,-811.6313 677,-790.5 739.9889,-667.703 627.4121,-278.7655 713,-170.5 718.9122,-163.0213 726.9714,-157.7095 735.7629,-153.9509"/>
<polygon fill="#191970" stroke="#191970" points="625.1113,-836.3622 618.2715,-844.4535 628.6642,-842.3935 625.1113,-836.3622"/>
</g>
<!-- Node42 -->
<g id="node42" class="node">
<title>Node42</title>
<g id="a_node42"><a xlink:href="../../de/d55/Fun4All__G4__sPHENIX__truthphotonjet_8C.html#a48a6f4503eaa1b3793d8ae572aa795b9" target="_top" xlink:title="Fun4All_G4_sPHENIX\l_truthphotonjet">
<polygon fill="none" stroke="#000000" points="736,-78.5 736,-110.5 857,-110.5 857,-78.5 736,-78.5"/>
<text text-anchor="start" x="744" y="-97.5" font-family="FreeSans" font-size="10.00" fill="#000000">Fun4All_G4_sPHENIX</text>
<text text-anchor="middle" x="796.5" y="-85.5" font-family="FreeSans" font-size="10.00" fill="#000000">_truthphotonjet</text>
</a>
</g>
</g>
<!-- Node4&#45;&gt;Node42 -->
<g id="edge41" class="edge">
<title>Node4&#45;&gt;Node42</title>
<path fill="none" stroke="#191970" d="M627.1844,-839.2377C644.9372,-828.2516 666.2072,-811.6551 677,-790.5 744.8611,-657.485 620.6525,-236.8459 713,-119.5 718.8957,-112.0083 726.9466,-106.6899 735.7348,-102.9288"/>
<polygon fill="#191970" stroke="#191970" points="625.1408,-836.3791 618.2955,-844.4657 628.6896,-842.4129 625.1408,-836.3791"/>
</g>
<!-- Node43 -->
<g id="node43" class="node">
<title>Node43</title>
<g id="a_node43"><a xlink:href="../../db/da1/Fun4All__G4__TPC_8C.html#af60bcd3cf09ebd567e28ede14e9e894a" target="_top" xlink:title="Fun4All_G4_TPC">
<polygon fill="none" stroke="#000000" points="748,-39.5 748,-59.5 845,-59.5 845,-39.5 748,-39.5"/>
<text text-anchor="middle" x="796.5" y="-46.5" font-family="FreeSans" font-size="10.00" fill="#000000">Fun4All_G4_TPC</text>
</a>
</g>
</g>
<!-- Node4&#45;&gt;Node43 -->
<g id="edge42" class="edge">
<title>Node4&#45;&gt;Node43</title>
<path fill="none" stroke="#191970" d="M627.2114,-839.2515C644.9752,-828.271 666.2472,-811.6754 677,-790.5 713.3671,-718.8827 661.3511,-130.0142 713,-68.5 721.6995,-58.1388 734.7651,-52.743 747.9935,-50.0917"/>
<polygon fill="#191970" stroke="#191970" points="625.1662,-836.3936 618.3162,-844.4763 628.7115,-842.4295 625.1662,-836.3936"/>
</g>
<!-- Node44 -->
<g id="node44" class="node">
<title>Node44</title>
<g id="a_node44"><a xlink:href="../../da/db5/Fun4All__G4__W_8C.html#ad4745423f42356b6b3cb65bbbc1e917e" target="_top" xlink:title="Fun4All_G4_W">
<polygon fill="none" stroke="#000000" points="752.5,-.5 752.5,-20.5 840.5,-20.5 840.5,-.5 752.5,-.5"/>
<text text-anchor="middle" x="796.5" y="-7.5" font-family="FreeSans" font-size="10.00" fill="#000000">Fun4All_G4_W</text>
</a>
</g>
</g>
<!-- Node4&#45;&gt;Node44 -->
<g id="edge43" class="edge">
<title>Node4&#45;&gt;Node44</title>
<path fill="none" stroke="#191970" d="M627.2296,-839.2607C645.0008,-828.2839 666.2742,-811.6891 677,-790.5 715.2305,-714.9747 658.6506,-94.3983 713,-29.5 722.6408,-17.9879 737.6716,-12.6022 752.3387,-10.3006"/>
<polygon fill="#191970" stroke="#191970" points="625.1833,-836.4034 618.3301,-844.4833 628.7262,-842.4406 625.1833,-836.4034"/>
</g>
<!-- Node47&#45;&gt;Node45 -->
<g id="edge47" class="edge">
<title>Node47&#45;&gt;Node45</title>
<path fill="none" stroke="#191970" d="M481.0005,-737.8419C496.4311,-741.3577 512.4777,-745.0139 527.5616,-748.4507"/>
<polygon fill="#191970" stroke="#191970" points="481.4933,-734.3645 470.9656,-735.5555 479.9381,-741.1896 481.4933,-734.3645"/>
</g>
<!-- Node49 -->
<g id="node49" class="node">
<title>Node49</title>
<g id="a_node49"><a xlink:href="../../d1/dec/classHcalRawTowerBuilder.html#a7905b60d52f4f69f900e45859a894533" target="_top" xlink:title="HcalRawTowerBuilder\l::InitRun">
<polygon fill="none" stroke="#000000" points="535.5,-652.5 535.5,-684.5 660.5,-684.5 660.5,-652.5 535.5,-652.5"/>
<text text-anchor="start" x="543.5" y="-671.5" font-family="FreeSans" font-size="10.00" fill="#000000">HcalRawTowerBuilder</text>
<text text-anchor="middle" x="598" y="-659.5" font-family="FreeSans" font-size="10.00" fill="#000000">::InitRun</text>
</a>
</g>
</g>
<!-- Node48&#45;&gt;Node49 -->
<g id="edge49" class="edge">
<title>Node48&#45;&gt;Node49</title>
<path fill="none" stroke="#191970" d="M489.7193,-668.5C505.0688,-668.5 520.7284,-668.5 535.196,-668.5"/>
<polygon fill="#191970" stroke="#191970" points="489.6929,-665.0001 479.6928,-668.5 489.6928,-672.0001 489.6929,-665.0001"/>
</g>
</g>
</svg>
