<?xml version="1.0" encoding="UTF-8" standalone="no"?>
<!DOCTYPE svg PUBLIC "-//W3C//DTD SVG 1.1//EN"
 "http://www.w3.org/Graphics/SVG/1.1/DTD/svg11.dtd">
<!-- Generated by graphviz version 2.40.1 (20161225.0304)
 -->
<!-- Title: Fun4AllSyncManager::registerInputManager Pages: 1 -->
<svg width="539pt" height="2018pt"
 viewBox="0.00 0.00 539.00 2018.00" xmlns="http://www.w3.org/2000/svg" xmlns:xlink="http://www.w3.org/1999/xlink">
<g id="graph0" class="graph" transform="scale(1 1) rotate(0) translate(4 2014)">
<title>Fun4AllSyncManager::registerInputManager</title>
<!-- Node1 -->
<g id="node1" class="node">
<title>Node1</title>
<polygon fill="#bfbfbf" stroke="#000000" points="0,-970.5 0,-1002.5 133,-1002.5 133,-970.5 0,-970.5"/>
<text text-anchor="start" x="8" y="-989.5" font-family="FreeSans" font-size="10.00" fill="#000000">Fun4AllSyncManager</text>
<text text-anchor="middle" x="66.5" y="-977.5" font-family="FreeSans" font-size="10.00" fill="#000000">::registerInputManager</text>
</g>
<!-- Node2 -->
<g id="node2" class="node">
<title>Node2</title>
<g id="a_node2"><a xlink:href="../../da/d29/classFun4AllServer.html#ab2cb490790d15b865ae79eb3094caabe" target="_top" xlink:title="Fun4AllServer::registerInput\lManager">
<polygon fill="none" stroke="#ff0000" points="169,-970.5 169,-1002.5 328,-1002.5 328,-970.5 169,-970.5"/>
<text text-anchor="start" x="177" y="-989.5" font-family="FreeSans" font-size="10.00" fill="#000000">Fun4AllServer::registerInput</text>
<text text-anchor="middle" x="248.5" y="-977.5" font-family="FreeSans" font-size="10.00" fill="#000000">Manager</text>
</a>
</g>
</g>
<!-- Node1&#45;&gt;Node2 -->
<g id="edge1" class="edge">
<title>Node1&#45;&gt;Node2</title>
<path fill="none" stroke="#191970" d="M143.3875,-986.5C151.7926,-986.5 160.3623,-986.5 168.8004,-986.5"/>
<polygon fill="#191970" stroke="#191970" points="143.2367,-983.0001 133.2366,-986.5 143.2366,-990.0001 143.2367,-983.0001"/>
</g>
<!-- Node3 -->
<g id="node3" class="node">
<title>Node3</title>
<g id="a_node3"><a xlink:href="../../dd/d9c/AnalyzeTree_8C.html#af10d516ac25cd720d54534a63ef7e2f8" target="_top" xlink:title="AnalyzeTree">
<polygon fill="none" stroke="#000000" points="408.5,-1989.5 408.5,-2009.5 486.5,-2009.5 486.5,-1989.5 408.5,-1989.5"/>
<text text-anchor="middle" x="447.5" y="-1996.5" font-family="FreeSans" font-size="10.00" fill="#000000">AnalyzeTree</text>
</a>
</g>
</g>
<!-- Node2&#45;&gt;Node3 -->
<g id="edge2" class="edge">
<title>Node2&#45;&gt;Node3</title>
<path fill="none" stroke="#191970" d="M249.7681,-1012.8868C257.2192,-1163.0876 297.2828,-1906.1539 364,-1980.5 375.0218,-1992.7821 392.184,-1997.9854 408.0895,-1999.9395"/>
<polygon fill="#191970" stroke="#191970" points="253.2564,-1012.5604 249.27,-1002.7441 246.2648,-1012.9038 253.2564,-1012.5604"/>
</g>
<!-- Node4 -->
<g id="node4" class="node">
<title>Node4</title>
<g id="a_node4"><a xlink:href="../../d3/d7f/Fun_8C.html#ab689f6a95e742654fc06aa27a8486ffd" target="_top" xlink:title="ConfigureInput">
<polygon fill="none" stroke="#ff0000" points="401.5,-1950.5 401.5,-1970.5 493.5,-1970.5 493.5,-1950.5 401.5,-1950.5"/>
<text text-anchor="middle" x="447.5" y="-1957.5" font-family="FreeSans" font-size="10.00" fill="#000000">ConfigureInput</text>
</a>
</g>
</g>
<!-- Node2&#45;&gt;Node4 -->
<g id="edge3" class="edge">
<title>Node2&#45;&gt;Node4</title>
<path fill="none" stroke="#191970" d="M249.9175,-1013.2223C257.9721,-1160.6303 299.8984,-1870.404 364,-1941.5 373.4577,-1951.9896 387.3948,-1957.3105 401.1844,-1959.8542"/>
<polygon fill="#191970" stroke="#191970" points="253.3925,-1012.664 249.3571,-1002.8678 246.4027,-1013.0423 253.3925,-1012.664"/>
</g>
<!-- Node5 -->
<g id="node5" class="node">
<title>Node5</title>
<g id="a_node5"><a xlink:href="../../db/d89/ConstructGeometry_8C.html#a21c369835643f1016f506a3da3b8d446" target="_top" xlink:title="ConstructGeometry">
<polygon fill="none" stroke="#000000" points="390,-1911.5 390,-1931.5 505,-1931.5 505,-1911.5 390,-1911.5"/>
<text text-anchor="middle" x="447.5" y="-1918.5" font-family="FreeSans" font-size="10.00" fill="#000000">ConstructGeometry</text>
</a>
</g>
</g>
<!-- Node2&#45;&gt;Node5 -->
<g id="edge4" class="edge">
<title>Node2&#45;&gt;Node5</title>
<path fill="none" stroke="#191970" d="M250.0233,-1012.5874C258.5677,-1154.9894 302.3704,-1834.4932 364,-1902.5 370.8885,-1910.1013 380.1298,-1914.9854 389.955,-1918.0647"/>
<polygon fill="#191970" stroke="#191970" points="253.5152,-1012.3463 249.4276,-1002.5717 246.5276,-1012.7619 253.5152,-1012.3463"/>
</g>
<!-- Node6 -->
<g id="node6" class="node">
<title>Node6</title>
<g id="a_node6"><a xlink:href="../../dc/ddc/Fun4All__Ana_8C.html#a9152007c2477efc543d79f3b97fbf50c" target="_top" xlink:title="Fun4All_Ana">
<polygon fill="none" stroke="#000000" points="408.5,-1872.5 408.5,-1892.5 486.5,-1892.5 486.5,-1872.5 408.5,-1872.5"/>
<text text-anchor="middle" x="447.5" y="-1879.5" font-family="FreeSans" font-size="10.00" fill="#000000">Fun4All_Ana</text>
</a>
</g>
</g>
<!-- Node2&#45;&gt;Node6 -->
<g id="edge5" class="edge">
<title>Node2&#45;&gt;Node6</title>
<path fill="none" stroke="#191970" d="M250.1885,-1012.7751C259.3598,-1151.9045 304.9581,-1798.7088 364,-1863.5 375.1153,-1875.6976 392.2898,-1880.8897 408.1794,-1882.8581"/>
<polygon fill="#191970" stroke="#191970" points="253.669,-1012.3606 249.524,-1002.6103 246.6839,-1012.8173 253.669,-1012.3606"/>
</g>
<!-- Node7 -->
<g id="node7" class="node">
<title>Node7</title>
<g id="a_node7"><a xlink:href="../../df/d77/Fun4All__CaloAna_8C.html#a4f0841e3d8be48f96cc4e95380315ff8" target="_top" xlink:title="Fun4All_CaloAna">
<polygon fill="none" stroke="#000000" points="397.5,-1833.5 397.5,-1853.5 497.5,-1853.5 497.5,-1833.5 397.5,-1833.5"/>
<text text-anchor="middle" x="447.5" y="-1840.5" font-family="FreeSans" font-size="10.00" fill="#000000">Fun4All_CaloAna</text>
</a>
</g>
</g>
<!-- Node2&#45;&gt;Node7 -->
<g id="edge6" class="edge">
<title>Node2&#45;&gt;Node7</title>
<path fill="none" stroke="#191970" d="M250.3639,-1012.8748C260.1751,-1148.4428 307.5292,-1762.9036 364,-1824.5 372.6402,-1833.9245 384.8986,-1839.1611 397.3691,-1841.96"/>
<polygon fill="#191970" stroke="#191970" points="253.8334,-1012.3234 249.6261,-1002.5997 246.8513,-1012.8248 253.8334,-1012.3234"/>
</g>
<!-- Node8 -->
<g id="node8" class="node">
<title>Node8</title>
<g id="a_node8"><a xlink:href="../../da/dae/Fun4All__EICAnalysis__DIS_8C.html#a6be6c58cd68a395182a998295a1106ae" target="_top" xlink:title="Fun4All_EICAnalysis_DIS">
<polygon fill="none" stroke="#000000" points="378,-1794.5 378,-1814.5 517,-1814.5 517,-1794.5 378,-1794.5"/>
<text text-anchor="middle" x="447.5" y="-1801.5" font-family="FreeSans" font-size="10.00" fill="#000000">Fun4All_EICAnalysis_DIS</text>
</a>
</g>
</g>
<!-- Node2&#45;&gt;Node8 -->
<g id="edge7" class="edge">
<title>Node2&#45;&gt;Node8</title>
<path fill="none" stroke="#191970" d="M250.5496,-1012.8827C261.013,-1144.6065 310.0833,-1727.0775 364,-1785.5 367.9323,-1789.7609 372.6044,-1793.1646 377.6997,-1795.8733"/>
<polygon fill="#191970" stroke="#191970" points="254.0092,-1012.2319 249.7339,-1002.538 247.0309,-1012.7822 254.0092,-1012.2319"/>
</g>
<!-- Node9 -->
<g id="node9" class="node">
<title>Node9</title>
<g id="a_node9"><a xlink:href="../../d2/d9b/Fun4All__EICAnalysis__DISReco_8C.html#a3c160743ec7b9b4572cf73a19640a34f" target="_top" xlink:title="Fun4All_EICAnalysis\l_DISReco">
<polygon fill="none" stroke="#000000" points="389,-1743.5 389,-1775.5 506,-1775.5 506,-1743.5 389,-1743.5"/>
<text text-anchor="start" x="397" y="-1762.5" font-family="FreeSans" font-size="10.00" fill="#000000">Fun4All_EICAnalysis</text>
<text text-anchor="middle" x="447.5" y="-1750.5" font-family="FreeSans" font-size="10.00" fill="#000000">_DISReco</text>
</a>
</g>
</g>
<!-- Node2&#45;&gt;Node9 -->
<g id="edge8" class="edge">
<title>Node2&#45;&gt;Node9</title>
<path fill="none" stroke="#191970" d="M248.916,-1012.6496C251.3363,-1131.9178 267.1302,-1623.28 364,-1734.5 370.5595,-1742.0312 379.2868,-1747.3409 388.6281,-1751.0738"/>
<polygon fill="#191970" stroke="#191970" points="252.4143,-1012.5225 248.7263,-1002.5902 245.4155,-1012.6545 252.4143,-1012.5225"/>
</g>
<!-- Node10 -->
<g id="node10" class="node">
<title>Node10</title>
<g id="a_node10"><a xlink:href="../../d2/d47/Fun4All__EICAnalysis__DVCS_8C.html#a84f48142243e969fd353cc8509f0ba22" target="_top" xlink:title="Fun4All_EICAnalysis_DVCS">
<polygon fill="none" stroke="#000000" points="372.5,-1704.5 372.5,-1724.5 522.5,-1724.5 522.5,-1704.5 372.5,-1704.5"/>
<text text-anchor="middle" x="447.5" y="-1711.5" font-family="FreeSans" font-size="10.00" fill="#000000">Fun4All_EICAnalysis_DVCS</text>
</a>
</g>
</g>
<!-- Node2&#45;&gt;Node10 -->
<g id="edge9" class="edge">
<title>Node2&#45;&gt;Node10</title>
<path fill="none" stroke="#191970" d="M248.9962,-1012.9079C251.7278,-1129.1418 268.5507,-1593.9162 364,-1695.5 367.2577,-1698.9671 371.0057,-1701.8643 375.0705,-1704.2799"/>
<polygon fill="#191970" stroke="#191970" points="252.4924,-1012.6921 248.7737,-1002.7714 245.4941,-1012.8458 252.4924,-1012.6921"/>
</g>
<!-- Node11 -->
<g id="node11" class="node">
<title>Node11</title>
<g id="a_node11"><a xlink:href="../../d3/dee/Fun4All__EICAnalysis__Exclusive_8C.html#ad3a88bfdb2a21a757edf221e36d6bffe" target="_top" xlink:title="Fun4All_EICAnalysis\l_Exclusive">
<polygon fill="none" stroke="#000000" points="389,-1653.5 389,-1685.5 506,-1685.5 506,-1653.5 389,-1653.5"/>
<text text-anchor="start" x="397" y="-1672.5" font-family="FreeSans" font-size="10.00" fill="#000000">Fun4All_EICAnalysis</text>
<text text-anchor="middle" x="447.5" y="-1660.5" font-family="FreeSans" font-size="10.00" fill="#000000">_Exclusive</text>
</a>
</g>
</g>
<!-- Node2&#45;&gt;Node11 -->
<g id="edge10" class="edge">
<title>Node2&#45;&gt;Node11</title>
<path fill="none" stroke="#191970" d="M249.5358,-1012.9637C254.3923,-1123.6552 278.4048,-1548.2409 364,-1644.5 370.6366,-1651.9634 379.4012,-1657.2402 388.7555,-1660.9617"/>
<polygon fill="#191970" stroke="#191970" points="253.0211,-1012.5389 249.1015,-1002.6958 246.0273,-1012.8348 253.0211,-1012.5389"/>
</g>
<!-- Node12 -->
<g id="node12" class="node">
<title>Node12</title>
<g id="a_node12"><a xlink:href="../../d2/d00/Fun4All__EICAnalysis__Leptoquarks_8C.html#a328697c2ae82c0b33f95bea9aefb93f4" target="_top" xlink:title="Fun4All_EICAnalysis\l_Leptoquarks">
<polygon fill="none" stroke="#000000" points="389,-1602.5 389,-1634.5 506,-1634.5 506,-1602.5 389,-1602.5"/>
<text text-anchor="start" x="397" y="-1621.5" font-family="FreeSans" font-size="10.00" fill="#000000">Fun4All_EICAnalysis</text>
<text text-anchor="middle" x="447.5" y="-1609.5" font-family="FreeSans" font-size="10.00" fill="#000000">_Leptoquarks</text>
</a>
</g>
</g>
<!-- Node2&#45;&gt;Node12 -->
<g id="edge11" class="edge">
<title>Node2&#45;&gt;Node12</title>
<path fill="none" stroke="#191970" d="M249.94,-1012.5976C256.2305,-1117.3046 284.6271,-1505.5108 364,-1593.5 370.6897,-1600.9159 379.48,-1606.1696 388.8432,-1609.8832"/>
<polygon fill="#191970" stroke="#191970" points="253.4316,-1012.3508 249.3539,-1002.5721 246.4436,-1012.7593 253.4316,-1012.3508"/>
</g>
<!-- Node13 -->
<g id="node13" class="node">
<title>Node13</title>
<g id="a_node13"><a xlink:href="../../df/d6c/Fun4All__EICAnalysis__JPsi_8C.html#ad03644e8a25c5261146f6c59826ed6d0" target="_top" xlink:title="Fun4All_EICAnalysis\l_Quarkonia">
<polygon fill="none" stroke="#000000" points="389,-1551.5 389,-1583.5 506,-1583.5 506,-1551.5 389,-1551.5"/>
<text text-anchor="start" x="397" y="-1570.5" font-family="FreeSans" font-size="10.00" fill="#000000">Fun4All_EICAnalysis</text>
<text text-anchor="middle" x="447.5" y="-1558.5" font-family="FreeSans" font-size="10.00" fill="#000000">_Quarkonia</text>
</a>
</g>
</g>
<!-- Node2&#45;&gt;Node13 -->
<g id="edge12" class="edge">
<title>Node2&#45;&gt;Node13</title>
<path fill="none" stroke="#191970" d="M250.437,-1012.6203C258.2949,-1111.714 290.9269,-1462.849 364,-1542.5 370.7517,-1549.8595 379.5721,-1555.0859 388.9457,-1558.7899"/>
<polygon fill="#191970" stroke="#191970" points="253.9201,-1012.2654 249.6569,-1002.5662 246.9411,-1012.807 253.9201,-1012.2654"/>
</g>
<!-- Node14 -->
<g id="node14" class="node">
<title>Node14</title>
<g id="a_node14"><a xlink:href="../../df/d90/Fun4All__EICAnalysis__TrackEval_8C.html#ab4d10c3db3266243a5c314b02c02a360" target="_top" xlink:title="Fun4All_EICAnalysis\l_TrackEval">
<polygon fill="none" stroke="#000000" points="389,-1500.5 389,-1532.5 506,-1532.5 506,-1500.5 389,-1500.5"/>
<text text-anchor="start" x="397" y="-1519.5" font-family="FreeSans" font-size="10.00" fill="#000000">Fun4All_EICAnalysis</text>
<text text-anchor="middle" x="447.5" y="-1507.5" font-family="FreeSans" font-size="10.00" fill="#000000">_TrackEval</text>
</a>
</g>
</g>
<!-- Node2&#45;&gt;Node14 -->
<g id="edge13" class="edge">
<title>Node2&#45;&gt;Node14</title>
<path fill="none" stroke="#191970" d="M251.0302,-1012.6227C260.5604,-1105.8058 297.1947,-1420.129 364,-1491.5 370.7216,-1498.681 379.413,-1503.8271 388.6406,-1507.5087"/>
<polygon fill="#191970" stroke="#191970" points="254.5077,-1012.2231 250.0254,-1002.6231 247.5428,-1012.923 254.5077,-1012.2231"/>
</g>
<!-- Node15 -->
<g id="node15" class="node">
<title>Node15</title>
<g id="a_node15"><a xlink:href="../../de/dc8/Fun4All__EMCalLikelihood_8C.html#a209f0d5788c9d3adba2967f194bca64a" target="_top" xlink:title="Fun4All_EMCalLikelihood">
<polygon fill="none" stroke="#000000" points="377,-1461.5 377,-1481.5 518,-1481.5 518,-1461.5 377,-1461.5"/>
<text text-anchor="middle" x="447.5" y="-1468.5" font-family="FreeSans" font-size="10.00" fill="#000000">Fun4All_EMCalLikelihood</text>
</a>
</g>
</g>
<!-- Node2&#45;&gt;Node15 -->
<g id="edge14" class="edge">
<title>Node2&#45;&gt;Node15</title>
<path fill="none" stroke="#191970" d="M251.4421,-1013.063C261.8645,-1102.3527 299.8837,-1389.6045 364,-1452.5 367.8207,-1456.248 372.2181,-1459.3176 376.9545,-1461.8255"/>
<polygon fill="#191970" stroke="#191970" points="254.8994,-1012.49 250.2821,-1002.9542 247.945,-1013.288 254.8994,-1012.49"/>
</g>
<!-- Node16 -->
<g id="node16" class="node">
<title>Node16</title>
<g id="a_node16"><a xlink:href="../../df/d51/Fun4All__ExportGeom_8C.html#a582925c51bad38d562cf19e71211adfd" target="_top" xlink:title="get geometry from DST file and output TGeoManager ROOT files or other formats of geometry files...">
<polygon fill="none" stroke="#000000" points="386.5,-1422.5 386.5,-1442.5 508.5,-1442.5 508.5,-1422.5 386.5,-1422.5"/>
<text text-anchor="middle" x="447.5" y="-1429.5" font-family="FreeSans" font-size="10.00" fill="#000000">Fun4All_ExportGeom</text>
</a>
</g>
</g>
<!-- Node2&#45;&gt;Node16 -->
<g id="edge15" class="edge">
<title>Node2&#45;&gt;Node16</title>
<path fill="none" stroke="#191970" d="M252.0017,-1012.478C263.7988,-1096.1609 304.7013,-1356.5518 364,-1413.5 370.2193,-1419.4728 377.9066,-1423.7145 386.0775,-1426.7028"/>
<polygon fill="#191970" stroke="#191970" points="255.4617,-1011.9477 250.6191,-1002.5244 248.5283,-1012.9109 255.4617,-1011.9477"/>
</g>
<!-- Node17 -->
<g id="node17" class="node">
<title>Node17</title>
<g id="a_node17"><a xlink:href="../../de/d55/Fun4All__G4__block_8C.html#a6a063a649a0dd3318a517d5af98430dd" target="_top" xlink:title="Fun4All_G4_block">
<polygon fill="none" stroke="#000000" points="395,-1383.5 395,-1403.5 500,-1403.5 500,-1383.5 395,-1383.5"/>
<text text-anchor="middle" x="447.5" y="-1390.5" font-family="FreeSans" font-size="10.00" fill="#000000">Fun4All_G4_block</text>
</a>
</g>
</g>
<!-- Node2&#45;&gt;Node17 -->
<g id="edge16" class="edge">
<title>Node2&#45;&gt;Node17</title>
<path fill="none" stroke="#191970" d="M252.8294,-1012.9348C266.2836,-1091.8956 309.7375,-1323.6849 364,-1374.5 372.4643,-1382.4266 383.5224,-1387.2867 394.8078,-1390.2132"/>
<polygon fill="#191970" stroke="#191970" points="256.2422,-1012.1231 251.1321,-1002.8421 249.3391,-1013.2841 256.2422,-1012.1231"/>
</g>
<!-- Node18 -->
<g id="node18" class="node">
<title>Node18</title>
<g id="a_node18"><a xlink:href="../../d8/d91/Fun4All__G4__Clusters_8C.html#ab7d8e64f12f512631d4c0e8c6683ec5b" target="_top" xlink:title="Fun4All_G4_Clusters">
<polygon fill="none" stroke="#000000" points="388,-1344.5 388,-1364.5 507,-1364.5 507,-1344.5 388,-1344.5"/>
<text text-anchor="middle" x="447.5" y="-1351.5" font-family="FreeSans" font-size="10.00" fill="#000000">Fun4All_G4_Clusters</text>
</a>
</g>
</g>
<!-- Node2&#45;&gt;Node18 -->
<g id="edge17" class="edge">
<title>Node2&#45;&gt;Node18</title>
<path fill="none" stroke="#191970" d="M253.7123,-1012.7145C268.7984,-1086.0055 314.5848,-1290.6086 364,-1335.5 370.7126,-1341.5981 378.9672,-1345.8688 387.6478,-1348.8368"/>
<polygon fill="#191970" stroke="#191970" points="257.1366,-1011.9896 251.7125,-1002.8885 250.2772,-1013.3857 257.1366,-1011.9896"/>
</g>
<!-- Node19 -->
<g id="node19" class="node">
<title>Node19</title>
<g id="a_node19"><a xlink:href="../../d2/dee/Fun4All__G4__Cylinder_8C.html#a271dc4f10f6f77107705e0efef0c97e5" target="_top" xlink:title="Fun4All_G4_Cylinder">
<polygon fill="none" stroke="#000000" points="387,-1305.5 387,-1325.5 508,-1325.5 508,-1305.5 387,-1305.5"/>
<text text-anchor="middle" x="447.5" y="-1312.5" font-family="FreeSans" font-size="10.00" fill="#000000">Fun4All_G4_Cylinder</text>
</a>
</g>
</g>
<!-- Node2&#45;&gt;Node19 -->
<g id="edge18" class="edge">
<title>Node2&#45;&gt;Node19</title>
<path fill="none" stroke="#191970" d="M250.1745,-1012.7592C255.4728,-1072.7401 277.1341,-1220.4752 364,-1296.5 370.6006,-1302.2769 378.594,-1306.4002 386.9874,-1309.3252"/>
<polygon fill="#191970" stroke="#191970" points="253.6496,-1012.307 249.3636,-1002.6178 246.6719,-1012.865 253.6496,-1012.307"/>
</g>
<!-- Node20 -->
<g id="node20" class="node">
<title>Node20</title>
<g id="a_node20"><a xlink:href="../../da/d02/Fun4All__G4__EICDetector_8C.html#afbe82cefa1d1fd031d9a8586b7bb68c6" target="_top" xlink:title="Fun4All_G4_EICDetector">
<polygon fill="none" stroke="#000000" points="378,-1266.5 378,-1286.5 517,-1286.5 517,-1266.5 378,-1266.5"/>
<text text-anchor="middle" x="447.5" y="-1273.5" font-family="FreeSans" font-size="10.00" fill="#000000">Fun4All_G4_EICDetector</text>
</a>
</g>
</g>
<!-- Node2&#45;&gt;Node20 -->
<g id="edge19" class="edge">
<title>Node2&#45;&gt;Node20</title>
<path fill="none" stroke="#191970" d="M251.7629,-1012.8129C259.9772,-1067.3363 286.6961,-1192.9379 364,-1257.5 368.222,-1261.0261 372.9679,-1263.9299 377.9979,-1266.3175"/>
<polygon fill="#191970" stroke="#191970" points="255.1843,-1012.0104 250.3181,-1002.5992 248.2533,-1012.9909 255.1843,-1012.0104"/>
</g>
<!-- Node21 -->
<g id="node21" class="node">
<title>Node21</title>
<g id="a_node21"><a xlink:href="../../dd/d2a/Fun4All__G4__EICDetector__LQ_8C.html#aaa01242fd6e77ca43a9d49a6d46008e4" target="_top" xlink:title="Fun4All_G4_EICDetector_LQ">
<polygon fill="none" stroke="#000000" points="369.5,-1227.5 369.5,-1247.5 525.5,-1247.5 525.5,-1227.5 369.5,-1227.5"/>
<text text-anchor="middle" x="447.5" y="-1234.5" font-family="FreeSans" font-size="10.00" fill="#000000">Fun4All_G4_EICDetector_LQ</text>
</a>
</g>
</g>
<!-- Node2&#45;&gt;Node21 -->
<g id="edge20" class="edge">
<title>Node2&#45;&gt;Node21</title>
<path fill="none" stroke="#191970" d="M253.8172,-1012.7534C265.0827,-1061.3239 296.0972,-1165.111 364,-1218.5 368.558,-1222.0838 373.6652,-1225.0166 379.0484,-1227.4136"/>
<polygon fill="#191970" stroke="#191970" points="257.1756,-1011.7309 251.5927,-1002.7263 250.3417,-1013.2471 257.1756,-1011.7309"/>
</g>
<!-- Node22 -->
<g id="node22" class="node">
<title>Node22</title>
<g id="a_node22"><a xlink:href="../../df/d4b/Fun4All__G4__EICDetector__LQ__analysis_8C.html#af903e98824d083a08b353ac15996ee0e" target="_top" xlink:title="Fun4All_G4_EICDetector\l_LQ_analysis">
<polygon fill="none" stroke="#000000" points="378,-1176.5 378,-1208.5 517,-1208.5 517,-1176.5 378,-1176.5"/>
<text text-anchor="start" x="386" y="-1195.5" font-family="FreeSans" font-size="10.00" fill="#000000">Fun4All_G4_EICDetector</text>
<text text-anchor="middle" x="447.5" y="-1183.5" font-family="FreeSans" font-size="10.00" fill="#000000">_LQ_analysis</text>
</a>
</g>
</g>
<!-- Node2&#45;&gt;Node22 -->
<g id="edge21" class="edge">
<title>Node2&#45;&gt;Node22</title>
<path fill="none" stroke="#191970" d="M257.904,-1011.8934C273.7304,-1051.1325 309.4092,-1126.2695 364,-1167.5 368.4679,-1170.8744 373.3885,-1173.7956 378.5376,-1176.3242"/>
<polygon fill="#191970" stroke="#191970" points="261.1327,-1010.5398 254.2229,-1002.5083 254.6161,-1013.0959 261.1327,-1010.5398"/>
</g>
<!-- Node23 -->
<g id="node23" class="node">
<title>Node23</title>
<g id="a_node23"><a xlink:href="../../d1/daf/Fun4All__G4__EICDetector__LQ__analysis__nf_8C.html#a5022607d21247b87dd208b0828905147" target="_top" xlink:title="Fun4All_G4_EICDetector\l_LQ_analysis_nf">
<polygon fill="none" stroke="#000000" points="378,-1125.5 378,-1157.5 517,-1157.5 517,-1125.5 378,-1125.5"/>
<text text-anchor="start" x="386" y="-1144.5" font-family="FreeSans" font-size="10.00" fill="#000000">Fun4All_G4_EICDetector</text>
<text text-anchor="middle" x="447.5" y="-1132.5" font-family="FreeSans" font-size="10.00" fill="#000000">_LQ_analysis_nf</text>
</a>
</g>
</g>
<!-- Node2&#45;&gt;Node23 -->
<g id="edge22" class="edge">
<title>Node2&#45;&gt;Node23</title>
<path fill="none" stroke="#191970" d="M264.0644,-1011.1198C283.8298,-1040.4197 320.63,-1088.8448 364,-1116.5 369.3588,-1119.9171 375.2068,-1122.8859 381.2392,-1125.4614"/>
<polygon fill="#191970" stroke="#191970" points="266.9229,-1009.0971 258.4888,-1002.6849 261.0834,-1012.9572 266.9229,-1009.0971"/>
</g>
<!-- Node24 -->
<g id="node24" class="node">
<title>Node24</title>
<g id="a_node24"><a xlink:href="../../d4/df5/Fun4All__G4__EICDetector__LQ__reference_8C.html#a2feefc472f17f90b3cbe74897d049f75" target="_top" xlink:title="Fun4All_G4_EICDetector\l_LQ_reference">
<polygon fill="none" stroke="#000000" points="378,-1074.5 378,-1106.5 517,-1106.5 517,-1074.5 378,-1074.5"/>
<text text-anchor="start" x="386" y="-1093.5" font-family="FreeSans" font-size="10.00" fill="#000000">Fun4All_G4_EICDetector</text>
<text text-anchor="middle" x="447.5" y="-1081.5" font-family="FreeSans" font-size="10.00" fill="#000000">_LQ_reference</text>
</a>
</g>
</g>
<!-- Node2&#45;&gt;Node24 -->
<g id="edge23" class="edge">
<title>Node2&#45;&gt;Node24</title>
<path fill="none" stroke="#191970" d="M276.2767,-1009.1486C298.7856,-1026.5732 331.9237,-1050.1869 364,-1065.5 370.9646,-1068.8248 378.4681,-1071.8172 386.0195,-1074.4775"/>
<polygon fill="#191970" stroke="#191970" points="278.2216,-1006.2258 268.1947,-1002.8037 273.8991,-1011.7318 278.2216,-1006.2258"/>
</g>
<!-- Node25 -->
<g id="node25" class="node">
<title>Node25</title>
<g id="a_node25"><a xlink:href="../../d3/d51/Fun4All__G4__EICDetector__RICH_8C.html#a5739502b0a7a1ba782c01069f77e933f" target="_top" xlink:title="Fun4All_G4_EICDetector_RICH">
<polygon fill="none" stroke="#000000" points="364,-1035.5 364,-1055.5 531,-1055.5 531,-1035.5 364,-1035.5"/>
<text text-anchor="middle" x="447.5" y="-1042.5" font-family="FreeSans" font-size="10.00" fill="#000000">Fun4All_G4_EICDetector_RICH</text>
</a>
</g>
</g>
<!-- Node2&#45;&gt;Node25 -->
<g id="edge24" class="edge">
<title>Node2&#45;&gt;Node25</title>
<path fill="none" stroke="#191970" d="M300.8793,-1006.0018C320.5253,-1012.9552 343.1428,-1020.5348 364,-1026.5 375.2922,-1029.7296 387.5668,-1032.7753 399.142,-1035.443"/>
<polygon fill="#191970" stroke="#191970" points="301.7936,-1002.6118 291.199,-1002.5419 299.4376,-1009.2034 301.7936,-1002.6118"/>
</g>
<!-- Node26 -->
<g id="node26" class="node">
<title>Node26</title>
<g id="a_node26"><a xlink:href="../../d9/d0e/Fun4All__G4__EICIR_8C.html#ac3543d1dd4a0abed3987d40939ee3f87" target="_top" xlink:title="Fun4All_G4_EICIR">
<polygon fill="none" stroke="#000000" points="395.5,-996.5 395.5,-1016.5 499.5,-1016.5 499.5,-996.5 395.5,-996.5"/>
<text text-anchor="middle" x="447.5" y="-1003.5" font-family="FreeSans" font-size="10.00" fill="#000000">Fun4All_G4_EICIR</text>
</a>
</g>
</g>
<!-- Node2&#45;&gt;Node26 -->
<g id="edge25" class="edge">
<title>Node2&#45;&gt;Node26</title>
<path fill="none" stroke="#191970" d="M338.1627,-995.5113C357.7014,-997.475 377.7511,-999.4901 395.2583,-1001.2496"/>
<polygon fill="#191970" stroke="#191970" points="338.3079,-992.0084 328.008,-994.4908 337.6078,-998.9733 338.3079,-992.0084"/>
</g>
<!-- Node27 -->
<g id="node27" class="node">
<title>Node27</title>
<g id="a_node27"><a xlink:href="../../d7/d9e/Fun4All__G4__fsPHENIX_8C.html#af48911d394d2412e817583700f2bbee2" target="_top" xlink:title="Fun4All_G4_fsPHENIX">
<polygon fill="none" stroke="#000000" points="385.5,-957.5 385.5,-977.5 509.5,-977.5 509.5,-957.5 385.5,-957.5"/>
<text text-anchor="middle" x="447.5" y="-964.5" font-family="FreeSans" font-size="10.00" fill="#000000">Fun4All_G4_fsPHENIX</text>
</a>
</g>
</g>
<!-- Node2&#45;&gt;Node27 -->
<g id="edge26" class="edge">
<title>Node2&#45;&gt;Node27</title>
<path fill="none" stroke="#191970" d="M338.3609,-977.9203C354.2135,-976.4068 370.3956,-974.8617 385.2771,-973.4409"/>
<polygon fill="#191970" stroke="#191970" points="337.63,-974.4741 328.008,-978.9088 338.2954,-981.4424 337.63,-974.4741"/>
</g>
<!-- Node28 -->
<g id="node28" class="node">
<title>Node28</title>
<g id="a_node28"><a xlink:href="../../da/d2f/Fun4All__G4__fsPHENIX__FastSim_8C.html#a66fb850cae5fcaadda23b74a25ce4c9c" target="_top" xlink:title="Fun4All_G4_fsPHENIX\l_FastSim">
<polygon fill="none" stroke="#000000" points="385.5,-906.5 385.5,-938.5 509.5,-938.5 509.5,-906.5 385.5,-906.5"/>
<text text-anchor="start" x="393.5" y="-925.5" font-family="FreeSans" font-size="10.00" fill="#000000">Fun4All_G4_fsPHENIX</text>
<text text-anchor="middle" x="447.5" y="-913.5" font-family="FreeSans" font-size="10.00" fill="#000000">_FastSim</text>
</a>
</g>
</g>
<!-- Node2&#45;&gt;Node28 -->
<g id="edge27" class="edge">
<title>Node2&#45;&gt;Node28</title>
<path fill="none" stroke="#191970" d="M306.4632,-967.229C324.8417,-961.1726 345.2544,-954.5017 364,-948.5 374.122,-945.2593 384.9516,-941.8468 395.3452,-938.5989"/>
<polygon fill="#191970" stroke="#191970" points="305.1717,-963.9695 296.7726,-970.4274 307.3657,-970.6168 305.1717,-963.9695"/>
</g>
<!-- Node29 -->
<g id="node29" class="node">
<title>Node29</title>
<g id="a_node29"><a xlink:href="../../d0/da6/Fun4All__G4__fsPHENIX__pi0_8C.html#a023d91d47b678e5d7f1751834aa517c6" target="_top" xlink:title="Fun4All_G4_fsPHENIX_pi0">
<polygon fill="none" stroke="#000000" points="375,-867.5 375,-887.5 520,-887.5 520,-867.5 375,-867.5"/>
<text text-anchor="middle" x="447.5" y="-874.5" font-family="FreeSans" font-size="10.00" fill="#000000">Fun4All_G4_fsPHENIX_pi0</text>
</a>
</g>
</g>
<!-- Node2&#45;&gt;Node29 -->
<g id="edge28" class="edge">
<title>Node2&#45;&gt;Node29</title>
<path fill="none" stroke="#191970" d="M272.1108,-963.4087C294.1385,-943.1316 328.8079,-914.3183 364,-897.5 372.4733,-893.4506 381.833,-890.1831 391.1298,-887.5578"/>
<polygon fill="#191970" stroke="#191970" points="269.4944,-961.0638 264.5897,-970.455 274.2804,-966.1722 269.4944,-961.0638"/>
</g>
<!-- Node30 -->
<g id="node30" class="node">
<title>Node30</title>
<g id="a_node30"><a xlink:href="../../df/de1/Fun4All__G4__IonGun_8C.html#ab4966a2ae337cb8f0e45f7ee488e33b7" target="_top" xlink:title="Fun4All_G4_IonGun">
<polygon fill="none" stroke="#000000" points="390.5,-828.5 390.5,-848.5 504.5,-848.5 504.5,-828.5 390.5,-828.5"/>
<text text-anchor="middle" x="447.5" y="-835.5" font-family="FreeSans" font-size="10.00" fill="#000000">Fun4All_G4_IonGun</text>
</a>
</g>
</g>
<!-- Node2&#45;&gt;Node30 -->
<g id="edge29" class="edge">
<title>Node2&#45;&gt;Node30</title>
<path fill="none" stroke="#191970" d="M263.9042,-961.8593C283.5105,-932.6133 320.1526,-884.539 364,-858.5 372.0746,-853.7048 381.232,-850.0585 390.4501,-847.2861"/>
<polygon fill="#191970" stroke="#191970" points="260.9351,-960.0045 258.3773,-970.286 266.7884,-963.8436 260.9351,-960.0045"/>
</g>
<!-- Node31 -->
<g id="node31" class="node">
<title>Node31</title>
<g id="a_node31"><a xlink:href="../../d5/d01/Fun4All__G4__LeadBrick_8C.html#a5fcd8843f8a815feb3b053eaabd60d41" target="_top" xlink:title="Fun4All_G4_LeadBrick">
<polygon fill="none" stroke="#000000" points="383.5,-789.5 383.5,-809.5 511.5,-809.5 511.5,-789.5 383.5,-789.5"/>
<text text-anchor="middle" x="447.5" y="-796.5" font-family="FreeSans" font-size="10.00" fill="#000000">Fun4All_G4_LeadBrick</text>
</a>
</g>
</g>
<!-- Node2&#45;&gt;Node31 -->
<g id="edge30" class="edge">
<title>Node2&#45;&gt;Node31</title>
<path fill="none" stroke="#191970" d="M259.0056,-960.8887C275.6026,-923.7466 311.4911,-855.4546 364,-819.5 369.9038,-815.4575 376.5292,-812.2278 383.398,-809.6483"/>
<polygon fill="#191970" stroke="#191970" points="255.6109,-959.9192 254.8382,-970.4858 262.0317,-962.7074 255.6109,-959.9192"/>
</g>
<!-- Node32 -->
<g id="node32" class="node">
<title>Node32</title>
<g id="a_node32"><a xlink:href="../../d9/d8f/Fun4All__G4__Momentum_8C.html#afbd7a4eecd7792e9216ce80b5514123e" target="_top" xlink:title="Fun4All_G4_Momentum">
<polygon fill="none" stroke="#000000" points="380,-750.5 380,-770.5 515,-770.5 515,-750.5 380,-750.5"/>
<text text-anchor="middle" x="447.5" y="-757.5" font-family="FreeSans" font-size="10.00" fill="#000000">Fun4All_G4_Momentum</text>
</a>
</g>
</g>
<!-- Node2&#45;&gt;Node32 -->
<g id="edge31" class="edge">
<title>Node2&#45;&gt;Node32</title>
<path fill="none" stroke="#191970" d="M255.5195,-960.7374C268.9057,-916.6732 302.3864,-827.0906 364,-780.5 369.3505,-776.4541 375.4,-773.2126 381.7374,-770.6178"/>
<polygon fill="#191970" stroke="#191970" points="252.138,-959.8311 252.6833,-970.4119 258.8553,-961.8004 252.138,-959.8311"/>
</g>
<!-- Node33 -->
<g id="node33" class="node">
<title>Node33</title>
<g id="a_node33"><a xlink:href="../../dc/d8e/Fun4All__G4__Prototype2_8C.html#a6b8f092c4f51be2938dd09c810ba6226" target="_top" xlink:title="Fun4All_G4_Prototype2">
<polygon fill="none" stroke="#000000" points="381,-711.5 381,-731.5 514,-731.5 514,-711.5 381,-711.5"/>
<text text-anchor="middle" x="447.5" y="-718.5" font-family="FreeSans" font-size="10.00" fill="#000000">Fun4All_G4_Prototype2</text>
</a>
</g>
</g>
<!-- Node2&#45;&gt;Node33 -->
<g id="edge32" class="edge">
<title>Node2&#45;&gt;Node33</title>
<path fill="none" stroke="#191970" d="M253.1222,-960.3059C263.453,-909.8254 293.2979,-798.988 364,-741.5 368.9733,-737.4562 374.6317,-734.2066 380.6047,-731.5985"/>
<polygon fill="#191970" stroke="#191970" points="249.633,-959.9133 251.1549,-970.3982 256.5037,-961.2526 249.633,-959.9133"/>
</g>
<!-- Node34 -->
<g id="node34" class="node">
<title>Node34</title>
<g id="a_node34"><a xlink:href="../../d7/d40/Fun4All__G4__Prototype3_8C.html#a1201361263017b08a070777a0b90b27c" target="_top" xlink:title="Fun4All_G4_Prototype3">
<polygon fill="none" stroke="#000000" points="381,-672.5 381,-692.5 514,-692.5 514,-672.5 381,-672.5"/>
<text text-anchor="middle" x="447.5" y="-679.5" font-family="FreeSans" font-size="10.00" fill="#000000">Fun4All_G4_Prototype3</text>
</a>
</g>
</g>
<!-- Node2&#45;&gt;Node34 -->
<g id="edge33" class="edge">
<title>Node2&#45;&gt;Node34</title>
<path fill="none" stroke="#191970" d="M251.2587,-960.1884C258.6141,-903.8878 283.9502,-771.2792 364,-702.5 368.9748,-698.2256 374.7062,-694.8297 380.7871,-692.1366"/>
<polygon fill="#191970" stroke="#191970" points="247.751,-960.0398 250.0164,-970.3896 254.6997,-960.886 247.751,-960.0398"/>
</g>
<!-- Node35 -->
<g id="node35" class="node">
<title>Node35</title>
<g id="a_node35"><a xlink:href="../../d4/d58/Fun4All__G4__Prototype4_8C.html#acac517f0728af658cbf99c7c9687c908" target="_top" xlink:title="Fun4All_G4_Prototype4">
<polygon fill="none" stroke="#000000" points="381,-633.5 381,-653.5 514,-653.5 514,-633.5 381,-633.5"/>
<text text-anchor="middle" x="447.5" y="-640.5" font-family="FreeSans" font-size="10.00" fill="#000000">Fun4All_G4_Prototype4</text>
</a>
</g>
</g>
<!-- Node2&#45;&gt;Node35 -->
<g id="edge34" class="edge">
<title>Node2&#45;&gt;Node35</title>
<path fill="none" stroke="#191970" d="M249.8048,-960.0601C254.3352,-898.3117 274.5095,-743.786 364,-663.5 368.8821,-659.12 374.5527,-655.6549 380.5964,-652.9194"/>
<polygon fill="#191970" stroke="#191970" points="246.3055,-959.9361 249.1463,-970.1429 253.2906,-960.3923 246.3055,-959.9361"/>
</g>
<!-- Node36 -->
<g id="node36" class="node">
<title>Node36</title>
<g id="a_node36"><a xlink:href="../../d5/d2c/macros_2blob_2master_2macros_2g4simulations_2Fun4All__G4__sPHENIX_8C.html#a6eaaa492d7023ec86c562dc63aa1e5a4" target="_top" xlink:title="Fun4All_G4_sPHENIX">
<polygon fill="none" stroke="#000000" points="387,-594.5 387,-614.5 508,-614.5 508,-594.5 387,-594.5"/>
<text text-anchor="middle" x="447.5" y="-601.5" font-family="FreeSans" font-size="10.00" fill="#000000">Fun4All_G4_sPHENIX</text>
</a>
</g>
</g>
<!-- Node2&#45;&gt;Node36 -->
<g id="edge35" class="edge">
<title>Node2&#45;&gt;Node36</title>
<path fill="none" stroke="#191970" d="M253.3973,-960.3781C267.969,-885.3688 313.2085,-671.6768 364,-624.5 370.444,-618.5146 378.3529,-614.2258 386.7091,-611.1695"/>
<polygon fill="#191970" stroke="#191970" points="249.9211,-959.9219 251.4729,-970.4025 256.7955,-961.2417 249.9211,-959.9219"/>
</g>
<!-- Node37 -->
<g id="node37" class="node">
<title>Node37</title>
<g id="a_node37"><a xlink:href="../../d3/de2/Fun4All__G4__sPHENIX__AnaGenFit_8C.html#a9bf3f2f72ed69a17e2d0c1121d48013c" target="_top" xlink:title="Fun4All_G4_sPHENIX\l_AnaGenFit">
<polygon fill="none" stroke="#000000" points="387,-543.5 387,-575.5 508,-575.5 508,-543.5 387,-543.5"/>
<text text-anchor="start" x="395" y="-562.5" font-family="FreeSans" font-size="10.00" fill="#000000">Fun4All_G4_sPHENIX</text>
<text text-anchor="middle" x="447.5" y="-550.5" font-family="FreeSans" font-size="10.00" fill="#000000">_AnaGenFit</text>
</a>
</g>
</g>
<!-- Node2&#45;&gt;Node37 -->
<g id="edge36" class="edge">
<title>Node2&#45;&gt;Node37</title>
<path fill="none" stroke="#191970" d="M252.7972,-959.9291C266.3143,-879.4292 310.2754,-640.388 364,-585.5 370.3722,-578.9898 378.3443,-574.103 386.8162,-570.4363"/>
<polygon fill="#191970" stroke="#191970" points="249.2772,-959.7622 251.0941,-970.2001 256.1829,-960.9074 249.2772,-959.7622"/>
</g>
<!-- Node38 -->
<g id="node38" class="node">
<title>Node38</title>
<g id="a_node38"><a xlink:href="../../da/dd0/Fun4All__G4__sPHENIX__photonjet_8C.html#a6f18519e216acc05399e562ea57ea77c" target="_top" xlink:title="Fun4All_G4_sPHENIX\l_photonjet">
<polygon fill="none" stroke="#000000" points="387,-492.5 387,-524.5 508,-524.5 508,-492.5 387,-492.5"/>
<text text-anchor="start" x="395" y="-511.5" font-family="FreeSans" font-size="10.00" fill="#000000">Fun4All_G4_sPHENIX</text>
<text text-anchor="middle" x="447.5" y="-499.5" font-family="FreeSans" font-size="10.00" fill="#000000">_photonjet</text>
</a>
</g>
</g>
<!-- Node2&#45;&gt;Node38 -->
<g id="edge37" class="edge">
<title>Node2&#45;&gt;Node38</title>
<path fill="none" stroke="#191970" d="M251.8554,-960.0632C263.4002,-873.055 304.0972,-597.5817 364,-534.5 370.273,-527.8941 378.1924,-522.9565 386.6417,-519.268"/>
<polygon fill="#191970" stroke="#191970" points="248.3611,-959.7921 250.5348,-970.1615 255.302,-960.6998 248.3611,-959.7921"/>
</g>
<!-- Node39 -->
<g id="node39" class="node">
<title>Node39</title>
<g id="a_node39"><a xlink:href="../../da/d85/Fun4All__G4__sPHENIX__photons_8C.html#a02fbbd59878fe1299f58ed187e7214ba" target="_top" xlink:title="Fun4All_G4_sPHENIX\l_photons">
<polygon fill="none" stroke="#000000" points="387,-441.5 387,-473.5 508,-473.5 508,-441.5 387,-441.5"/>
<text text-anchor="start" x="395" y="-460.5" font-family="FreeSans" font-size="10.00" fill="#000000">Fun4All_G4_sPHENIX</text>
<text text-anchor="middle" x="447.5" y="-448.5" font-family="FreeSans" font-size="10.00" fill="#000000">_photons</text>
</a>
</g>
</g>
<!-- Node2&#45;&gt;Node39 -->
<g id="edge38" class="edge">
<title>Node2&#45;&gt;Node39</title>
<path fill="none" stroke="#191970" d="M251.0719,-960.5045C260.7447,-867.7719 297.8057,-554.9373 364,-483.5 370.2949,-476.7065 378.3309,-471.6743 386.9208,-467.9497"/>
<polygon fill="#191970" stroke="#191970" points="247.5899,-960.1508 250.0516,-970.4557 254.5534,-960.8648 247.5899,-960.1508"/>
</g>
<!-- Node40 -->
<g id="node40" class="node">
<title>Node40</title>
<g id="a_node40"><a xlink:href="../../de/d55/Fun4All__G4__sPHENIX__truthphotonjet_8C.html#a48a6f4503eaa1b3793d8ae572aa795b9" target="_top" xlink:title="Fun4All_G4_sPHENIX\l_truthphotonjet">
<polygon fill="none" stroke="#000000" points="387,-390.5 387,-422.5 508,-422.5 508,-390.5 387,-390.5"/>
<text text-anchor="start" x="395" y="-409.5" font-family="FreeSans" font-size="10.00" fill="#000000">Fun4All_G4_sPHENIX</text>
<text text-anchor="middle" x="447.5" y="-397.5" font-family="FreeSans" font-size="10.00" fill="#000000">_truthphotonjet</text>
</a>
</g>
</g>
<!-- Node2&#45;&gt;Node40 -->
<g id="edge39" class="edge">
<title>Node2&#45;&gt;Node40</title>
<path fill="none" stroke="#191970" d="M250.5042,-960.1712C258.5568,-861.0784 291.6656,-512.1603 364,-432.5 370.2261,-425.6433 378.226,-420.5781 386.8009,-416.8398"/>
<polygon fill="#191970" stroke="#191970" points="247.0077,-959.9887 249.7035,-970.2348 253.9857,-960.5439 247.0077,-959.9887"/>
</g>
<!-- Node41 -->
<g id="node41" class="node">
<title>Node41</title>
<g id="a_node41"><a xlink:href="../../db/da1/Fun4All__G4__TPC_8C.html#af60bcd3cf09ebd567e28ede14e9e894a" target="_top" xlink:title="Fun4All_G4_TPC">
<polygon fill="none" stroke="#000000" points="399,-351.5 399,-371.5 496,-371.5 496,-351.5 399,-351.5"/>
<text text-anchor="middle" x="447.5" y="-358.5" font-family="FreeSans" font-size="10.00" fill="#000000">Fun4All_G4_TPC</text>
</a>
</g>
</g>
<!-- Node2&#45;&gt;Node41 -->
<g id="edge40" class="edge">
<title>Node2&#45;&gt;Node41</title>
<path fill="none" stroke="#191970" d="M249.8167,-960.3614C255.6304,-855.5081 282.4369,-466.9427 364,-381.5 373.1607,-371.9036 386.044,-366.5624 398.9544,-363.6776"/>
<polygon fill="#191970" stroke="#191970" points="246.3189,-960.2279 249.2769,-970.4015 253.3088,-960.6038 246.3189,-960.2279"/>
</g>
<!-- Node42 -->
<g id="node42" class="node">
<title>Node42</title>
<g id="a_node42"><a xlink:href="../../da/db5/Fun4All__G4__W_8C.html#ad4745423f42356b6b3cb65bbbc1e917e" target="_top" xlink:title="Fun4All_G4_W">
<polygon fill="none" stroke="#000000" points="403.5,-312.5 403.5,-332.5 491.5,-332.5 491.5,-312.5 403.5,-312.5"/>
<text text-anchor="middle" x="447.5" y="-319.5" font-family="FreeSans" font-size="10.00" fill="#000000">Fun4All_G4_W</text>
</a>
</g>
</g>
<!-- Node2&#45;&gt;Node42 -->
<g id="edge41" class="edge">
<title>Node2&#45;&gt;Node42</title>
<path fill="none" stroke="#191970" d="M249.4984,-960.1129C254.1779,-850.7003 277.4975,-434.1371 364,-342.5 374.1301,-331.7686 388.9128,-326.3462 403.2346,-323.7316"/>
<polygon fill="#191970" stroke="#191970" points="245.9945,-960.1379 249.0804,-970.2733 252.9886,-960.4257 245.9945,-960.1379"/>
</g>
<!-- Node43 -->
<g id="node43" class="node">
<title>Node43</title>
<g id="a_node43"><a xlink:href="../../d4/dfa/Fun4All__Generator__Display_8C.html#af87924a94b22e18901f0d64805565f09" target="_top" xlink:title="Fun4All_Generator_Display">
<polygon fill="none" stroke="#000000" points="371.5,-273.5 371.5,-293.5 523.5,-293.5 523.5,-273.5 371.5,-273.5"/>
<text text-anchor="middle" x="447.5" y="-280.5" font-family="FreeSans" font-size="10.00" fill="#000000">Fun4All_Generator_Display</text>
</a>
</g>
</g>
<!-- Node2&#45;&gt;Node43 -->
<g id="edge42" class="edge">
<title>Node2&#45;&gt;Node43</title>
<path fill="none" stroke="#191970" d="M249.2068,-960.0019C252.7831,-846.34 272.5109,-401.3897 364,-303.5 367.766,-299.4705 372.1877,-296.188 376.9968,-293.5207"/>
<polygon fill="#191970" stroke="#191970" points="245.7016,-960.1294 248.9012,-970.2295 252.6984,-960.3385 245.7016,-960.1294"/>
</g>
<!-- Node44 -->
<g id="node44" class="node">
<title>Node44</title>
<g id="a_node44"><a xlink:href="../../dc/d9b/Fun4All__HCALAnalysis_8C.html#a28b645088a74f7f1146274b5333cd479" target="_top" xlink:title="Fun4All_HCALAnalysis">
<polygon fill="none" stroke="#000000" points="383.5,-234.5 383.5,-254.5 511.5,-254.5 511.5,-234.5 383.5,-234.5"/>
<text text-anchor="middle" x="447.5" y="-241.5" font-family="FreeSans" font-size="10.00" fill="#000000">Fun4All_HCALAnalysis</text>
</a>
</g>
</g>
<!-- Node2&#45;&gt;Node44 -->
<g id="edge43" class="edge">
<title>Node2&#45;&gt;Node44</title>
<path fill="none" stroke="#191970" d="M248.9413,-960.0219C251.4476,-842.4301 267.4783,-368.6994 364,-264.5 369.3689,-258.7041 376.0937,-254.4508 383.3828,-251.3498"/>
<polygon fill="#191970" stroke="#191970" points="245.4372,-960.1983 248.7388,-970.2656 252.4359,-960.3368 245.4372,-960.1983"/>
</g>
<!-- Node45 -->
<g id="node45" class="node">
<title>Node45</title>
<g id="a_node45"><a xlink:href="../../d9/d0f/Fun4All__ImportGeom_8C.html#a3388968a8dae60e9eb62b1126f747b6a" target="_top" xlink:title="Read in a Geometry file, and output DST and ROOT TGeo files.">
<polygon fill="none" stroke="#000000" points="386.5,-195.5 386.5,-215.5 508.5,-215.5 508.5,-195.5 386.5,-195.5"/>
<text text-anchor="middle" x="447.5" y="-202.5" font-family="FreeSans" font-size="10.00" fill="#000000">Fun4All_ImportGeom</text>
</a>
</g>
</g>
<!-- Node2&#45;&gt;Node45 -->
<g id="edge44" class="edge">
<title>Node2&#45;&gt;Node45</title>
<path fill="none" stroke="#191970" d="M250.7585,-960.1567C261.9395,-832.3934 312.8782,-281.1331 364,-225.5 370.0517,-218.9143 377.8534,-214.317 386.2524,-211.1378"/>
<polygon fill="#191970" stroke="#191970" points="247.2624,-959.9604 249.8831,-970.226 254.2361,-960.5667 247.2624,-959.9604"/>
</g>
<!-- Node46 -->
<g id="node46" class="node">
<title>Node46</title>
<g id="a_node46"><a xlink:href="../../db/d96/Fun4All__JetAna_8C.html#a519de39bdb8606d50d045cc11466e2e6" target="_top" xlink:title="Fun4All_JetAna">
<polygon fill="none" stroke="#000000" points="402,-156.5 402,-176.5 493,-176.5 493,-156.5 402,-156.5"/>
<text text-anchor="middle" x="447.5" y="-163.5" font-family="FreeSans" font-size="10.00" fill="#000000">Fun4All_JetAna</text>
</a>
</g>
</g>
<!-- Node2&#45;&gt;Node46 -->
<g id="edge45" class="edge">
<title>Node2&#45;&gt;Node46</title>
<path fill="none" stroke="#191970" d="M250.5601,-960.0963C261.0749,-828.2659 310.3554,-245.3044 364,-186.5 373.6444,-175.9279 387.7977,-170.4724 401.722,-167.7827"/>
<polygon fill="#191970" stroke="#191970" points="247.0407,-960.2042 249.7404,-970.4493 254.0189,-960.7568 247.0407,-960.2042"/>
</g>
<!-- Node47 -->
<g id="node47" class="node">
<title>Node47</title>
<g id="a_node47"><a xlink:href="../../d9/d31/Fun4All__RICHReco_8C.html#a3b13aa3a348876cbf1acfc1563aabce5" target="_top" xlink:title="Fun4All_RICHReco">
<polygon fill="none" stroke="#000000" points="394,-117.5 394,-137.5 501,-137.5 501,-117.5 394,-117.5"/>
<text text-anchor="middle" x="447.5" y="-124.5" font-family="FreeSans" font-size="10.00" fill="#000000">Fun4All_RICHReco</text>
</a>
</g>
</g>
<!-- Node2&#45;&gt;Node47 -->
<g id="edge46" class="edge">
<title>Node2&#45;&gt;Node47</title>
<path fill="none" stroke="#191970" d="M250.3746,-960.1056C260.2394,-824.4356 307.8191,-209.4931 364,-147.5 371.8078,-138.8844 382.6094,-133.6623 393.8556,-130.5655"/>
<polygon fill="#191970" stroke="#191970" points="246.8615,-960.1624 249.6327,-970.3884 253.8433,-960.6662 246.8615,-960.1624"/>
</g>
<!-- Node48 -->
<g id="node48" class="node">
<title>Node48</title>
<g id="a_node48"><a xlink:href="../../d4/d65/Fun4All__single__particle_8C.html#a8a492b5dbead494bfdddbebde8a49b0e" target="_top" xlink:title="Fun4All_single_particle">
<polygon fill="none" stroke="#000000" points="381.5,-78.5 381.5,-98.5 513.5,-98.5 513.5,-78.5 381.5,-78.5"/>
<text text-anchor="middle" x="447.5" y="-85.5" font-family="FreeSans" font-size="10.00" fill="#000000">Fun4All_single_particle</text>
</a>
</g>
</g>
<!-- Node2&#45;&gt;Node48 -->
<g id="edge47" class="edge">
<title>Node2&#45;&gt;Node48</title>
<path fill="none" stroke="#191970" d="M250.1993,-960.2068C259.4264,-820.9799 305.266,-173.7028 364,-108.5 368.7889,-103.1837 374.7174,-99.1579 381.19,-96.1255"/>
<polygon fill="#191970" stroke="#191970" points="246.6942,-960.1706 249.5307,-970.3787 253.6791,-960.6298 246.6942,-960.1706"/>
</g>
<!-- Node49 -->
<g id="node49" class="node">
<title>Node49</title>
<g id="a_node49"><a xlink:href="../../d1/db8/analysis_2blob_2master_2MvtxTelescope_2AnaMvtxPrototype1_2macro_2Fun4All__TestBeam_8C.html#a89e0e05f7fe09176341b2c656b4cec1b" target="_top" xlink:title="Fun4All_TestBeam">
<polygon fill="none" stroke="#000000" points="393.5,-39.5 393.5,-59.5 501.5,-59.5 501.5,-39.5 393.5,-39.5"/>
<text text-anchor="middle" x="447.5" y="-46.5" font-family="FreeSans" font-size="10.00" fill="#000000">Fun4All_TestBeam</text>
</a>
</g>
</g>
<!-- Node2&#45;&gt;Node49 -->
<g id="edge48" class="edge">
<title>Node2&#45;&gt;Node49</title>
<path fill="none" stroke="#191970" d="M250.0341,-960.3958C258.6364,-817.9009 302.6963,-137.9332 364,-69.5 371.6586,-60.9507 382.2643,-55.7349 393.3513,-52.6208"/>
<polygon fill="#191970" stroke="#191970" points="246.5381,-960.2268 249.4343,-970.418 253.5256,-960.645 246.5381,-960.2268"/>
</g>
<!-- Node50 -->
<g id="node50" class="node">
<title>Node50</title>
<g id="a_node50"><a xlink:href="../../df/de3/Prototype2_2EMCal_2macros_2Fun4All__TestBeam__Ana_8C.html#a1e83661a9f4f0cebf1a74882d14c7042" target="_top" xlink:title="Fun4All_TestBeam_Ana">
<polygon fill="none" stroke="#000000" points="381.5,-.5 381.5,-20.5 513.5,-20.5 513.5,-.5 381.5,-.5"/>
<text text-anchor="middle" x="447.5" y="-7.5" font-family="FreeSans" font-size="10.00" fill="#000000">Fun4All_TestBeam_Ana</text>
</a>
</g>
</g>
<!-- Node2&#45;&gt;Node50 -->
<g id="edge49" class="edge">
<title>Node2&#45;&gt;Node50</title>
<path fill="none" stroke="#191970" d="M249.9287,-959.7616C258.0438,-812.2638 300.2419,-102.0366 364,-30.5 368.7607,-25.1585 374.6717,-21.1169 381.1343,-18.0756"/>
<polygon fill="#191970" stroke="#191970" points="246.4135,-959.9468 249.3641,-970.1225 253.4031,-960.3278 246.4135,-959.9468"/>
</g>
</g>
</svg>
