<?xml version="1.0" encoding="UTF-8" standalone="no"?>
<!DOCTYPE svg PUBLIC "-//W3C//DTD SVG 1.1//EN"
 "http://www.w3.org/Graphics/SVG/1.1/DTD/svg11.dtd">
<!-- Generated by graphviz version 2.40.1 (20161225.0304)
 -->
<!-- Title: coresoftware/blob/master/simulation/g4simulation/g4eval/CaloRawClusterEval.h Pages: 1 -->
<svg width="3058pt" height="539pt"
 viewBox="0.00 0.00 3057.50 539.00" xmlns="http://www.w3.org/2000/svg" xmlns:xlink="http://www.w3.org/1999/xlink">
<g id="graph0" class="graph" transform="scale(1 1) rotate(0) translate(4 535)">
<title>coresoftware/blob/master/simulation/g4simulation/g4eval/CaloRawClusterEval.h</title>
<!-- Node1 -->
<g id="node1" class="node">
<title>Node1</title>
<polygon fill="#bfbfbf" stroke="#000000" points="1876,-486.5 1876,-530.5 2044,-530.5 2044,-486.5 1876,-486.5"/>
<text text-anchor="start" x="1884" y="-517.5" font-family="FreeSans" font-size="10.00" fill="#000000">coresoftware/blob/master</text>
<text text-anchor="start" x="1884" y="-505.5" font-family="FreeSans" font-size="10.00" fill="#000000">/simulation/g4simulation</text>
<text text-anchor="middle" x="1960" y="-493.5" font-family="FreeSans" font-size="10.00" fill="#000000">/g4eval/CaloRawClusterEval.h</text>
</g>
<!-- Node2 -->
<g id="node2" class="node">
<title>Node2</title>
<g id="a_node2"><a xlink:href="../../da/d1b/QAG4SimulationCalorimeter_8cc.html" target="_top" xlink:title="coresoftware/blob/master\l/offline/QA/modules/QAG4Simulation\lCalorimeter.cc">
<polygon fill="none" stroke="#000000" points="0,-324.5 0,-368.5 204,-368.5 204,-324.5 0,-324.5"/>
<text text-anchor="start" x="8" y="-355.5" font-family="FreeSans" font-size="10.00" fill="#000000">coresoftware/blob/master</text>
<text text-anchor="start" x="8" y="-343.5" font-family="FreeSans" font-size="10.00" fill="#000000">/offline/QA/modules/QAG4Simulation</text>
<text text-anchor="middle" x="102" y="-331.5" font-family="FreeSans" font-size="10.00" fill="#000000">Calorimeter.cc</text>
</a>
</g>
</g>
<!-- Node1&#45;&gt;Node2 -->
<g id="edge1" class="edge">
<title>Node1&#45;&gt;Node2</title>
<path fill="none" stroke="#191970" d="M1865.5696,-506.2287C1602.3588,-499.6015 864.0191,-478.9123 623,-450 469.8617,-431.6298 294.4431,-393.0862 191.2201,-368.5695"/>
<polygon fill="#191970" stroke="#191970" points="1865.7776,-509.735 1875.8622,-506.4868 1865.9531,-502.7372 1865.7776,-509.735"/>
</g>
<!-- Node3 -->
<g id="node3" class="node">
<title>Node3</title>
<g id="a_node3"><a xlink:href="../../d4/d11/QAG4SimulationCalorimeterSum_8cc.html" target="_top" xlink:title="coresoftware/blob/master\l/offline/QA/modules/QAG4Simulation\lCalorimeterSum.cc">
<polygon fill="none" stroke="#000000" points="222,-324.5 222,-368.5 426,-368.5 426,-324.5 222,-324.5"/>
<text text-anchor="start" x="230" y="-355.5" font-family="FreeSans" font-size="10.00" fill="#000000">coresoftware/blob/master</text>
<text text-anchor="start" x="230" y="-343.5" font-family="FreeSans" font-size="10.00" fill="#000000">/offline/QA/modules/QAG4Simulation</text>
<text text-anchor="middle" x="324" y="-331.5" font-family="FreeSans" font-size="10.00" fill="#000000">CalorimeterSum.cc</text>
</a>
</g>
</g>
<!-- Node1&#45;&gt;Node3 -->
<g id="edge2" class="edge">
<title>Node1&#45;&gt;Node3</title>
<path fill="none" stroke="#191970" d="M1865.7934,-506.6288C1683.0649,-502.2404 1267.9531,-488.5642 921,-450 746.0127,-430.55 544.6448,-392.2904 426.1931,-368.1312"/>
<polygon fill="#191970" stroke="#191970" points="1865.8259,-510.1305 1875.9059,-506.8679 1865.9914,-503.1324 1865.8259,-510.1305"/>
</g>
<!-- Node4 -->
<g id="node4" class="node">
<title>Node4</title>
<g id="a_node4"><a xlink:href="../../dc/da9/CaloEvalStack_8h.html" target="_top" xlink:title="coresoftware/blob/master\l/simulation/g4simulation\l/g4eval/CaloEvalStack.h">
<polygon fill="none" stroke="#000000" points="1367,-405.5 1367,-449.5 1513,-449.5 1513,-405.5 1367,-405.5"/>
<text text-anchor="start" x="1375" y="-436.5" font-family="FreeSans" font-size="10.00" fill="#000000">coresoftware/blob/master</text>
<text text-anchor="start" x="1375" y="-424.5" font-family="FreeSans" font-size="10.00" fill="#000000">/simulation/g4simulation</text>
<text text-anchor="middle" x="1440" y="-412.5" font-family="FreeSans" font-size="10.00" fill="#000000">/g4eval/CaloEvalStack.h</text>
</a>
</g>
</g>
<!-- Node1&#45;&gt;Node4 -->
<g id="edge3" class="edge">
<title>Node1&#45;&gt;Node4</title>
<path fill="none" stroke="#191970" d="M1865.9471,-493.8495C1764.5966,-478.0622 1605.4503,-453.2721 1513.0806,-438.8837"/>
<polygon fill="#191970" stroke="#191970" points="1865.4555,-497.315 1875.8751,-495.3959 1866.533,-490.3984 1865.4555,-497.315"/>
</g>
<!-- Node6 -->
<g id="node6" class="node">
<title>Node6</title>
<g id="a_node6"><a xlink:href="../../d0/d13/CaloEvaluator_8cc.html" target="_top" xlink:title="coresoftware/blob/master\l/simulation/g4simulation\l/g4eval/CaloEvaluator.cc">
<polygon fill="none" stroke="#000000" points="444,-324.5 444,-368.5 590,-368.5 590,-324.5 444,-324.5"/>
<text text-anchor="start" x="452" y="-355.5" font-family="FreeSans" font-size="10.00" fill="#000000">coresoftware/blob/master</text>
<text text-anchor="start" x="452" y="-343.5" font-family="FreeSans" font-size="10.00" fill="#000000">/simulation/g4simulation</text>
<text text-anchor="middle" x="517" y="-331.5" font-family="FreeSans" font-size="10.00" fill="#000000">/g4eval/CaloEvaluator.cc</text>
</a>
</g>
</g>
<!-- Node1&#45;&gt;Node6 -->
<g id="edge43" class="edge">
<title>Node1&#45;&gt;Node6</title>
<path fill="none" stroke="#191970" d="M1865.6229,-499.7639C1577.752,-472.986 722.8992,-392.4505 599,-369 596.099,-368.4509 593.1509,-367.8503 590.1806,-367.2096"/>
<polygon fill="#191970" stroke="#191970" points="1865.3409,-503.2527 1875.622,-500.6936 1865.989,-496.2828 1865.3409,-503.2527"/>
</g>
<!-- Node22 -->
<g id="node22" class="node">
<title>Node22</title>
<g id="a_node22"><a xlink:href="../../d2/da2/JetRecoEval_8cc.html" target="_top" xlink:title="coresoftware/blob/master\l/simulation/g4simulation\l/g4eval/JetRecoEval.cc">
<polygon fill="none" stroke="#000000" points="2267,-162.5 2267,-206.5 2413,-206.5 2413,-162.5 2267,-162.5"/>
<text text-anchor="start" x="2275" y="-193.5" font-family="FreeSans" font-size="10.00" fill="#000000">coresoftware/blob/master</text>
<text text-anchor="start" x="2275" y="-181.5" font-family="FreeSans" font-size="10.00" fill="#000000">/simulation/g4simulation</text>
<text text-anchor="middle" x="2340" y="-169.5" font-family="FreeSans" font-size="10.00" fill="#000000">/g4eval/JetRecoEval.cc</text>
</a>
</g>
</g>
<!-- Node1&#45;&gt;Node22 -->
<g id="edge45" class="edge">
<title>Node1&#45;&gt;Node22</title>
<path fill="none" stroke="#191970" d="M2054.1238,-500.3099C2268.7363,-480.6765 2779.6315,-428.1421 2829,-369 2946.093,-228.7258 2576.3905,-194.9733 2413.2857,-186.956"/>
<polygon fill="#191970" stroke="#191970" points="2053.7725,-496.8273 2044.1311,-501.2198 2054.4073,-503.7984 2053.7725,-496.8273"/>
</g>
<!-- Node27 -->
<g id="node27" class="node">
<title>Node27</title>
<g id="a_node27"><a xlink:href="../../d1/d35/EMCalAna_8C.html" target="_top" xlink:title="analysis/blob/master\l/EMCal&#45;analysis/EMCalAna\l/EMCalAna.C">
<polygon fill="none" stroke="#000000" points="1540,-324.5 1540,-368.5 1690,-368.5 1690,-324.5 1540,-324.5"/>
<text text-anchor="start" x="1548" y="-355.5" font-family="FreeSans" font-size="10.00" fill="#000000">analysis/blob/master</text>
<text text-anchor="start" x="1548" y="-343.5" font-family="FreeSans" font-size="10.00" fill="#000000">/EMCal&#45;analysis/EMCalAna</text>
<text text-anchor="middle" x="1615" y="-331.5" font-family="FreeSans" font-size="10.00" fill="#000000">/EMCalAna.C</text>
</a>
</g>
</g>
<!-- Node1&#45;&gt;Node27 -->
<g id="edge46" class="edge">
<title>Node1&#45;&gt;Node27</title>
<path fill="none" stroke="#191970" d="M1903.923,-482.1682C1836.6435,-450.5761 1725.0568,-398.1788 1662.0612,-368.5983"/>
<polygon fill="#191970" stroke="#191970" points="1902.5733,-485.401 1913.1127,-486.4834 1905.5486,-479.0648 1902.5733,-485.401"/>
</g>
<!-- Node28 -->
<g id="node28" class="node">
<title>Node28</title>
<g id="a_node28"><a xlink:href="../../df/da3/EMCalLikelihood_8C.html" target="_top" xlink:title="analysis/blob/master\l/EMCal&#45;analysis/EMCalAna\l/EMCalLikelihood.C">
<polygon fill="none" stroke="#000000" points="1708,-324.5 1708,-368.5 1858,-368.5 1858,-324.5 1708,-324.5"/>
<text text-anchor="start" x="1716" y="-355.5" font-family="FreeSans" font-size="10.00" fill="#000000">analysis/blob/master</text>
<text text-anchor="start" x="1716" y="-343.5" font-family="FreeSans" font-size="10.00" fill="#000000">/EMCal&#45;analysis/EMCalAna</text>
<text text-anchor="middle" x="1783" y="-331.5" font-family="FreeSans" font-size="10.00" fill="#000000">/EMCalLikelihood.C</text>
</a>
</g>
</g>
<!-- Node1&#45;&gt;Node28 -->
<g id="edge47" class="edge">
<title>Node1&#45;&gt;Node28</title>
<path fill="none" stroke="#191970" d="M1928.2467,-479.4376C1893.5249,-447.6584 1838.6498,-397.4338 1807.2306,-368.6771"/>
<polygon fill="#191970" stroke="#191970" points="1926.0202,-482.1445 1935.76,-486.3143 1930.7463,-476.9808 1926.0202,-482.1445"/>
</g>
<!-- Node29 -->
<g id="node29" class="node">
<title>Node29</title>
<g id="a_node29"><a xlink:href="../../db/d74/EMCalCalib_8C.html" target="_top" xlink:title="analysis/blob/master\l/EMCal&#45;calibration/EMCalCalib\l/EMCalCalib.C">
<polygon fill="none" stroke="#000000" points="1875.5,-324.5 1875.5,-368.5 2044.5,-368.5 2044.5,-324.5 1875.5,-324.5"/>
<text text-anchor="start" x="1883.5" y="-355.5" font-family="FreeSans" font-size="10.00" fill="#000000">analysis/blob/master</text>
<text text-anchor="start" x="1883.5" y="-343.5" font-family="FreeSans" font-size="10.00" fill="#000000">/EMCal&#45;calibration/EMCalCalib</text>
<text text-anchor="middle" x="1960" y="-331.5" font-family="FreeSans" font-size="10.00" fill="#000000">/EMCalCalib.C</text>
</a>
</g>
</g>
<!-- Node1&#45;&gt;Node29 -->
<g id="edge48" class="edge">
<title>Node1&#45;&gt;Node29</title>
<path fill="none" stroke="#191970" d="M1960,-476.172C1960,-444.3062 1960,-396.4671 1960,-368.6771"/>
<polygon fill="#191970" stroke="#191970" points="1956.5001,-476.3142 1960,-486.3143 1963.5001,-476.3143 1956.5001,-476.3142"/>
</g>
<!-- Node30 -->
<g id="node30" class="node">
<title>Node30</title>
<g id="a_node30"><a xlink:href="../../db/dee/EMCalCalib__TestBeam_8C.html" target="_top" xlink:title="analysis/blob/master\l/Prototype2/EMCal/EMCalCalib\l_TestBeam/EMCalCalib_TestBeam.C">
<polygon fill="none" stroke="#000000" points="2062,-324.5 2062,-368.5 2258,-368.5 2258,-324.5 2062,-324.5"/>
<text text-anchor="start" x="2070" y="-355.5" font-family="FreeSans" font-size="10.00" fill="#000000">analysis/blob/master</text>
<text text-anchor="start" x="2070" y="-343.5" font-family="FreeSans" font-size="10.00" fill="#000000">/Prototype2/EMCal/EMCalCalib</text>
<text text-anchor="middle" x="2160" y="-331.5" font-family="FreeSans" font-size="10.00" fill="#000000">_TestBeam/EMCalCalib_TestBeam.C</text>
</a>
</g>
</g>
<!-- Node1&#45;&gt;Node30 -->
<g id="edge49" class="edge">
<title>Node1&#45;&gt;Node30</title>
<path fill="none" stroke="#191970" d="M1995.3861,-479.8372C2034.5916,-448.0808 2096.9697,-397.5546 2132.6208,-368.6771"/>
<polygon fill="#191970" stroke="#191970" points="1992.9575,-477.3003 1987.3898,-486.3143 1997.3634,-482.7397 1992.9575,-477.3003"/>
</g>
<!-- Node31 -->
<g id="node31" class="node">
<title>Node31</title>
<g id="a_node31"><a xlink:href="../../d1/dda/Proto4SampleFrac_8C.html" target="_top" xlink:title="analysis/blob/master\l/Prototype4/HCal/SampleFrac\l/Proto4SampleFrac.C">
<polygon fill="none" stroke="#000000" points="2276.5,-324.5 2276.5,-368.5 2441.5,-368.5 2441.5,-324.5 2276.5,-324.5"/>
<text text-anchor="start" x="2284.5" y="-355.5" font-family="FreeSans" font-size="10.00" fill="#000000">analysis/blob/master</text>
<text text-anchor="start" x="2284.5" y="-343.5" font-family="FreeSans" font-size="10.00" fill="#000000">/Prototype4/HCal/SampleFrac</text>
<text text-anchor="middle" x="2359" y="-331.5" font-family="FreeSans" font-size="10.00" fill="#000000">/Proto4SampleFrac.C</text>
</a>
</g>
</g>
<!-- Node1&#45;&gt;Node31 -->
<g id="edge50" class="edge">
<title>Node1&#45;&gt;Node31</title>
<path fill="none" stroke="#191970" d="M2023.9021,-482.5548C2101.6078,-451.0051 2231.4189,-398.2998 2304.5727,-368.5983"/>
<polygon fill="#191970" stroke="#191970" points="2022.1749,-479.4785 2014.2262,-486.4834 2024.8083,-485.9643 2022.1749,-479.4785"/>
</g>
<!-- Node32 -->
<g id="node32" class="node">
<title>Node32</title>
<g id="a_node32"><a xlink:href="../../d0/dd3/SimpleTrackingAnalysis_8C.html" target="_top" xlink:title="analysis/blob/master\l/SimpleTrackingAnalysis\l/SimpleTrackingAnalysis.C">
<polygon fill="none" stroke="#000000" points="2460,-324.5 2460,-368.5 2610,-368.5 2610,-324.5 2460,-324.5"/>
<text text-anchor="start" x="2468" y="-355.5" font-family="FreeSans" font-size="10.00" fill="#000000">analysis/blob/master</text>
<text text-anchor="start" x="2468" y="-343.5" font-family="FreeSans" font-size="10.00" fill="#000000">/SimpleTrackingAnalysis</text>
<text text-anchor="middle" x="2535" y="-331.5" font-family="FreeSans" font-size="10.00" fill="#000000">/SimpleTrackingAnalysis.C</text>
</a>
</g>
</g>
<!-- Node1&#45;&gt;Node32 -->
<g id="edge51" class="edge">
<title>Node1&#45;&gt;Node32</title>
<path fill="none" stroke="#191970" d="M2051.6145,-483.7232C2089.5228,-473.4015 2133.9099,-461.2261 2174,-450 2272.8841,-422.3102 2386.7377,-389.5157 2459.7124,-368.3787"/>
<polygon fill="#191970" stroke="#191970" points="2050.3451,-480.4412 2041.6147,-486.4438 2052.1829,-487.1957 2050.3451,-480.4412"/>
</g>
<!-- Node33 -->
<g id="node33" class="node">
<title>Node33</title>
<g id="a_node33"><a xlink:href="../../dd/d68/STACalorimeterCharacterization_8C.html" target="_top" xlink:title="analysis/blob/master\l/SimpleTrackingAnalysis\l/STACalorimeterCharacterization.C">
<polygon fill="none" stroke="#000000" points="2628,-324.5 2628,-368.5 2820,-368.5 2820,-324.5 2628,-324.5"/>
<text text-anchor="start" x="2636" y="-355.5" font-family="FreeSans" font-size="10.00" fill="#000000">analysis/blob/master</text>
<text text-anchor="start" x="2636" y="-343.5" font-family="FreeSans" font-size="10.00" fill="#000000">/SimpleTrackingAnalysis</text>
<text text-anchor="middle" x="2724" y="-331.5" font-family="FreeSans" font-size="10.00" fill="#000000">/STACalorimeterCharacterization.C</text>
</a>
</g>
</g>
<!-- Node1&#45;&gt;Node33 -->
<g id="edge52" class="edge">
<title>Node1&#45;&gt;Node33</title>
<path fill="none" stroke="#191970" d="M2054.1571,-491.5116C2115.2264,-480.2724 2196.4535,-464.9093 2268,-450 2394.1635,-423.7093 2539.2074,-390.2248 2631.1999,-368.5784"/>
<polygon fill="#191970" stroke="#191970" points="2053.3537,-488.1006 2044.1505,-493.3496 2054.6183,-494.9854 2053.3537,-488.1006"/>
</g>
<!-- Node34 -->
<g id="node34" class="node">
<title>Node34</title>
<g id="a_node34"><a xlink:href="../../d5/d54/CaloRawClusterEval_8cc.html" target="_top" xlink:title="coresoftware/blob/master\l/simulation/g4simulation\l/g4eval/CaloRawClusterEval.cc">
<polygon fill="none" stroke="#000000" points="2876.5,-405.5 2876.5,-449.5 3049.5,-449.5 3049.5,-405.5 2876.5,-405.5"/>
<text text-anchor="start" x="2884.5" y="-436.5" font-family="FreeSans" font-size="10.00" fill="#000000">coresoftware/blob/master</text>
<text text-anchor="start" x="2884.5" y="-424.5" font-family="FreeSans" font-size="10.00" fill="#000000">/simulation/g4simulation</text>
<text text-anchor="middle" x="2963" y="-412.5" font-family="FreeSans" font-size="10.00" fill="#000000">/g4eval/CaloRawClusterEval.cc</text>
</a>
</g>
</g>
<!-- Node1&#45;&gt;Node34 -->
<g id="edge44" class="edge">
<title>Node1&#45;&gt;Node34</title>
<path fill="none" stroke="#191970" d="M2054.1682,-507.1698C2218.7938,-503.7818 2569.2795,-491.8417 2862,-450 2866.7127,-449.3264 2871.532,-448.5511 2876.3853,-447.7024"/>
<polygon fill="#191970" stroke="#191970" points="2054.0025,-503.6723 2044.0745,-507.3716 2054.1424,-510.6709 2054.0025,-503.6723"/>
</g>
<!-- Node4&#45;&gt;Node2 -->
<g id="edge4" class="edge">
<title>Node4&#45;&gt;Node2</title>
<path fill="none" stroke="#191970" d="M1356.8558,-425.1895C1118.4162,-418.3006 435.1946,-396.6529 213,-369 210.0732,-368.6357 207.1082,-368.2369 204.1197,-367.8089"/>
<polygon fill="#191970" stroke="#191970" points="1356.7558,-428.688 1366.8524,-425.4772 1356.9572,-421.6909 1356.7558,-428.688"/>
</g>
<!-- Node4&#45;&gt;Node3 -->
<g id="edge5" class="edge">
<title>Node4&#45;&gt;Node3</title>
<path fill="none" stroke="#191970" d="M1356.7555,-424.1793C1149.1541,-415.6524 612.4742,-392.0343 435,-369 432.0751,-368.6204 429.1119,-368.208 426.1249,-367.768"/>
<polygon fill="#191970" stroke="#191970" points="1356.8501,-427.686 1366.9849,-424.5982 1357.1365,-420.6919 1356.8501,-427.686"/>
</g>
<!-- Node5 -->
<g id="node5" class="node">
<title>Node5</title>
<g id="a_node5"><a xlink:href="../../d0/dcc/CaloEvalStack_8cc.html" target="_top" xlink:title="coresoftware/blob/master\l/simulation/g4simulation\l/g4eval/CaloEvalStack.cc">
<polygon fill="none" stroke="#000000" points="784,-324.5 784,-368.5 930,-368.5 930,-324.5 784,-324.5"/>
<text text-anchor="start" x="792" y="-355.5" font-family="FreeSans" font-size="10.00" fill="#000000">coresoftware/blob/master</text>
<text text-anchor="start" x="792" y="-343.5" font-family="FreeSans" font-size="10.00" fill="#000000">/simulation/g4simulation</text>
<text text-anchor="middle" x="857" y="-331.5" font-family="FreeSans" font-size="10.00" fill="#000000">/g4eval/CaloEvalStack.cc</text>
</a>
</g>
</g>
<!-- Node4&#45;&gt;Node5 -->
<g id="edge6" class="edge">
<title>Node4&#45;&gt;Node5</title>
<path fill="none" stroke="#191970" d="M1357.0268,-419.3538C1235.9953,-407.2074 1016.9665,-384.1579 939,-369 936.1018,-368.4365 933.156,-367.8238 930.1876,-367.1729"/>
<polygon fill="#191970" stroke="#191970" points="1356.6976,-422.8382 1366.9966,-420.3519 1357.395,-415.873 1356.6976,-422.8382"/>
</g>
<!-- Node4&#45;&gt;Node6 -->
<g id="edge7" class="edge">
<title>Node4&#45;&gt;Node6</title>
<path fill="none" stroke="#191970" d="M1356.8058,-418.6668C1312.6326,-414.1702 1257.4058,-408.8547 1208,-405 937.6823,-383.9098 866.5266,-413.1131 599,-369 596.0869,-368.5196 593.1284,-367.977 590.1496,-367.3848"/>
<polygon fill="#191970" stroke="#191970" points="1356.6148,-422.1655 1366.9191,-419.7016 1357.3274,-415.2018 1356.6148,-422.1655"/>
</g>
<!-- Node7 -->
<g id="node7" class="node">
<title>Node7</title>
<g id="a_node7"><a xlink:href="../../de/d49/JetTruthEval_8h.html" target="_top" xlink:title="coresoftware/blob/master\l/simulation/g4simulation\l/g4eval/JetTruthEval.h">
<polygon fill="none" stroke="#000000" points="948,-324.5 948,-368.5 1094,-368.5 1094,-324.5 948,-324.5"/>
<text text-anchor="start" x="956" y="-355.5" font-family="FreeSans" font-size="10.00" fill="#000000">coresoftware/blob/master</text>
<text text-anchor="start" x="956" y="-343.5" font-family="FreeSans" font-size="10.00" fill="#000000">/simulation/g4simulation</text>
<text text-anchor="middle" x="1021" y="-331.5" font-family="FreeSans" font-size="10.00" fill="#000000">/g4eval/JetTruthEval.h</text>
</a>
</g>
</g>
<!-- Node4&#45;&gt;Node7 -->
<g id="edge8" class="edge">
<title>Node4&#45;&gt;Node7</title>
<path fill="none" stroke="#191970" d="M1356.6824,-414.6831C1289.3217,-403.8736 1192.1875,-387.2738 1108,-369 1103.4262,-368.0072 1098.7296,-366.9381 1094.0018,-365.8242"/>
<polygon fill="#191970" stroke="#191970" points="1356.3882,-418.1804 1366.8151,-416.3014 1357.4923,-411.268 1356.3882,-418.1804"/>
</g>
<!-- Node4&#45;&gt;Node22 -->
<g id="edge32" class="edge">
<title>Node4&#45;&gt;Node22</title>
<path fill="none" stroke="#191970" d="M1356.4814,-422.7508C1277.7269,-416.3202 1167.8662,-401.632 1141,-369 1128.2879,-353.5597 1127.6182,-338.8636 1141,-324 1307.2521,-139.3378 2008.4928,-251.2284 2253,-207 2257.4521,-206.1947 2262.0119,-205.2831 2266.598,-204.2996"/>
<polygon fill="#191970" stroke="#191970" points="1356.6475,-426.2745 1366.8907,-423.5679 1357.1953,-419.296 1356.6475,-426.2745"/>
</g>
<!-- Node24 -->
<g id="node24" class="node">
<title>Node24</title>
<g id="a_node24"><a xlink:href="../../d7/d51/DISKinematicsReco_8C.html" target="_top" xlink:title="analysis/blob/master\l/EICAnalysis/DISKinematicsReco.C">
<polygon fill="none" stroke="#000000" points="1150.5,-330.5 1150.5,-362.5 1339.5,-362.5 1339.5,-330.5 1150.5,-330.5"/>
<text text-anchor="start" x="1158.5" y="-349.5" font-family="FreeSans" font-size="10.00" fill="#000000">analysis/blob/master</text>
<text text-anchor="middle" x="1245" y="-337.5" font-family="FreeSans" font-size="10.00" fill="#000000">/EICAnalysis/DISKinematicsReco.C</text>
</a>
</g>
</g>
<!-- Node4&#45;&gt;Node24 -->
<g id="edge33" class="edge">
<title>Node4&#45;&gt;Node24</title>
<path fill="none" stroke="#191970" d="M1377.6,-401.58C1346.7869,-388.7807 1310.5762,-373.7393 1283.7876,-362.6118"/>
<polygon fill="#191970" stroke="#191970" points="1376.3953,-404.8695 1386.973,-405.4734 1379.0806,-398.405 1376.3953,-404.8695"/>
</g>
<!-- Node25 -->
<g id="node25" class="node">
<title>Node25</title>
<g id="a_node25"><a xlink:href="../../dc/dd5/ExclusiveReco_8C.html" target="_top" xlink:title="analysis/blob/master\l/EICAnalysis/ExclusiveReco.C">
<polygon fill="none" stroke="#000000" points="1358,-330.5 1358,-362.5 1522,-362.5 1522,-330.5 1358,-330.5"/>
<text text-anchor="start" x="1366" y="-349.5" font-family="FreeSans" font-size="10.00" fill="#000000">analysis/blob/master</text>
<text text-anchor="middle" x="1440" y="-337.5" font-family="FreeSans" font-size="10.00" fill="#000000">/EICAnalysis/ExclusiveReco.C</text>
</a>
</g>
</g>
<!-- Node4&#45;&gt;Node25 -->
<g id="edge34" class="edge">
<title>Node4&#45;&gt;Node25</title>
<path fill="none" stroke="#191970" d="M1440,-395.0737C1440,-383.9468 1440,-371.9724 1440,-362.6969"/>
<polygon fill="#191970" stroke="#191970" points="1436.5001,-395.3664 1440,-405.3664 1443.5001,-395.3664 1436.5001,-395.3664"/>
</g>
<!-- Node26 -->
<g id="node26" class="node">
<title>Node26</title>
<g id="a_node26"><a xlink:href="../../dd/d4c/TrackProjectionTools_8C.html" target="_top" xlink:title="analysis/blob/master\l/EICAnalysis/TrackProjection\lTools.C">
<polygon fill="none" stroke="#000000" points="608,-324.5 608,-368.5 766,-368.5 766,-324.5 608,-324.5"/>
<text text-anchor="start" x="616" y="-355.5" font-family="FreeSans" font-size="10.00" fill="#000000">analysis/blob/master</text>
<text text-anchor="start" x="616" y="-343.5" font-family="FreeSans" font-size="10.00" fill="#000000">/EICAnalysis/TrackProjection</text>
<text text-anchor="middle" x="687" y="-331.5" font-family="FreeSans" font-size="10.00" fill="#000000">Tools.C</text>
</a>
</g>
</g>
<!-- Node4&#45;&gt;Node26 -->
<g id="edge35" class="edge">
<title>Node4&#45;&gt;Node26</title>
<path fill="none" stroke="#191970" d="M1356.7653,-419.1486C1312.5809,-414.786 1257.3562,-409.4449 1208,-405 1015.6699,-387.6792 965.4336,-401.0298 775,-369 772.0453,-368.503 769.0445,-367.9559 766.0207,-367.3688"/>
<polygon fill="#191970" stroke="#191970" points="1356.5855,-422.6479 1366.8815,-420.1494 1357.2747,-415.6819 1356.5855,-422.6479"/>
</g>
<!-- Node4&#45;&gt;Node27 -->
<g id="edge36" class="edge">
<title>Node4&#45;&gt;Node27</title>
<path fill="none" stroke="#191970" d="M1497.0062,-401.1143C1519.7094,-390.6059 1545.543,-378.6486 1567.2383,-368.6068"/>
<polygon fill="#191970" stroke="#191970" points="1495.4244,-397.9896 1487.8195,-405.3664 1498.3647,-404.3422 1495.4244,-397.9896"/>
</g>
<!-- Node4&#45;&gt;Node28 -->
<g id="edge37" class="edge">
<title>Node4&#45;&gt;Node28</title>
<path fill="none" stroke="#191970" d="M1522.9946,-409.6301C1573.9078,-398.4506 1640.3633,-383.4692 1699,-369 1701.9316,-368.2766 1704.9177,-367.5289 1707.9321,-366.7651"/>
<polygon fill="#191970" stroke="#191970" points="1522.0454,-406.255 1513.0261,-411.814 1523.5435,-413.0928 1522.0454,-406.255"/>
</g>
<!-- Node4&#45;&gt;Node29 -->
<g id="edge38" class="edge">
<title>Node4&#45;&gt;Node29</title>
<path fill="none" stroke="#191970" d="M1523.2809,-418.6179C1609.6364,-408.8176 1748.3621,-391.4186 1867,-369 1869.7749,-368.4756 1872.5913,-367.9217 1875.4316,-367.3444"/>
<polygon fill="#191970" stroke="#191970" points="1522.8192,-415.1477 1513.2743,-419.7461 1523.6035,-422.1037 1522.8192,-415.1477"/>
</g>
<!-- Node4&#45;&gt;Node30 -->
<g id="edge39" class="edge">
<title>Node4&#45;&gt;Node30</title>
<path fill="none" stroke="#191970" d="M1523.5313,-422.5077C1641.8505,-414.7608 1864.8127,-397.6732 2053,-369 2055.9087,-368.5568 2058.8575,-368.0848 2061.8308,-367.5891"/>
<polygon fill="#191970" stroke="#191970" points="1523.2083,-419.0212 1513.4559,-423.1613 1523.6615,-426.0065 1523.2083,-419.0212"/>
</g>
<!-- Node4&#45;&gt;Node31 -->
<g id="edge40" class="edge">
<title>Node4&#45;&gt;Node31</title>
<path fill="none" stroke="#191970" d="M1523.2421,-426.2593C1672.9415,-422.9977 1997.1464,-411.2315 2267,-369 2270.0866,-368.517 2273.2218,-367.9817 2276.3814,-367.4046"/>
<polygon fill="#191970" stroke="#191970" points="1523.1263,-422.7609 1513.2023,-426.4709 1523.2739,-429.7593 1523.1263,-422.7609"/>
</g>
<!-- Node4&#45;&gt;Node32 -->
<g id="edge41" class="edge">
<title>Node4&#45;&gt;Node32</title>
<path fill="none" stroke="#191970" d="M1523.3737,-424.8305C1731.9473,-417.805 2272.2924,-397.3709 2450,-369 2453.1656,-368.4946 2456.3838,-367.9207 2459.6247,-367.293"/>
<polygon fill="#191970" stroke="#191970" points="1522.9745,-421.3418 1513.0974,-425.1748 1523.209,-428.3379 1522.9745,-421.3418"/>
</g>
<!-- Node4&#45;&gt;Node33 -->
<g id="edge42" class="edge">
<title>Node4&#45;&gt;Node33</title>
<path fill="none" stroke="#191970" d="M1523.0971,-425.1248C1755.0931,-418.2153 2406.6369,-396.8363 2619,-369 2621.9576,-368.6123 2624.9556,-368.1852 2627.9775,-367.7251"/>
<polygon fill="#191970" stroke="#191970" points="1522.9232,-421.6284 1513.0314,-425.4234 1523.1308,-428.6253 1522.9232,-421.6284"/>
</g>
<!-- Node8 -->
<g id="node8" class="node">
<title>Node8</title>
<g id="a_node8"><a xlink:href="../../d3/d23/QAG4SimulationJet_8cc.html" target="_top" xlink:title="coresoftware/blob/master\l/offline/QA/modules/QAG4Simulation\lJet.cc">
<polygon fill="none" stroke="#000000" points="401,-81.5 401,-125.5 605,-125.5 605,-81.5 401,-81.5"/>
<text text-anchor="start" x="409" y="-112.5" font-family="FreeSans" font-size="10.00" fill="#000000">coresoftware/blob/master</text>
<text text-anchor="start" x="409" y="-100.5" font-family="FreeSans" font-size="10.00" fill="#000000">/offline/QA/modules/QAG4Simulation</text>
<text text-anchor="middle" x="503" y="-88.5" font-family="FreeSans" font-size="10.00" fill="#000000">Jet.cc</text>
</a>
</g>
</g>
<!-- Node7&#45;&gt;Node8 -->
<g id="edge9" class="edge">
<title>Node7&#45;&gt;Node8</title>
<path fill="none" stroke="#191970" d="M937.5515,-323.8076C856.175,-306.2093 828.9836,-319.9089 756,-288 661.361,-246.6232 567.8387,-165.0347 525.9066,-125.7158"/>
<polygon fill="#191970" stroke="#191970" points="937.225,-327.3221 947.7508,-326.1141 938.7691,-320.4945 937.225,-327.3221"/>
</g>
<!-- Node9 -->
<g id="node9" class="node">
<title>Node9</title>
<g id="a_node9"><a xlink:href="../../da/d50/JetRecoEval_8h.html" target="_top" xlink:title="coresoftware/blob/master\l/simulation/g4simulation\l/g4eval/JetRecoEval.h">
<polygon fill="none" stroke="#000000" points="929,-243.5 929,-287.5 1075,-287.5 1075,-243.5 929,-243.5"/>
<text text-anchor="start" x="937" y="-274.5" font-family="FreeSans" font-size="10.00" fill="#000000">coresoftware/blob/master</text>
<text text-anchor="start" x="937" y="-262.5" font-family="FreeSans" font-size="10.00" fill="#000000">/simulation/g4simulation</text>
<text text-anchor="middle" x="1002" y="-250.5" font-family="FreeSans" font-size="10.00" fill="#000000">/g4eval/JetRecoEval.h</text>
</a>
</g>
</g>
<!-- Node7&#45;&gt;Node9 -->
<g id="edge10" class="edge">
<title>Node7&#45;&gt;Node9</title>
<path fill="none" stroke="#191970" d="M1013.5025,-314.5369C1011.387,-305.5183 1009.1328,-295.9081 1007.1856,-287.6068"/>
<polygon fill="#191970" stroke="#191970" points="1010.1169,-315.43 1015.8082,-324.3664 1016.9319,-313.8313 1010.1169,-315.43"/>
</g>
<!-- Node16 -->
<g id="node16" class="node">
<title>Node16</title>
<g id="a_node16"><a xlink:href="../../d0/da3/SoftLeptonTaggingTruth_8C.html" target="_top" xlink:title="analysis/blob/master\l/HF&#45;Jet/SoftLeptonTagging\l/SoftLeptonTaggingTruth.C">
<polygon fill="none" stroke="#000000" points="233,-81.5 233,-125.5 383,-125.5 383,-81.5 233,-81.5"/>
<text text-anchor="start" x="241" y="-112.5" font-family="FreeSans" font-size="10.00" fill="#000000">analysis/blob/master</text>
<text text-anchor="start" x="241" y="-100.5" font-family="FreeSans" font-size="10.00" fill="#000000">/HF&#45;Jet/SoftLeptonTagging</text>
<text text-anchor="middle" x="308" y="-88.5" font-family="FreeSans" font-size="10.00" fill="#000000">/SoftLeptonTaggingTruth.C</text>
</a>
</g>
</g>
<!-- Node7&#45;&gt;Node16 -->
<g id="edge31" class="edge">
<title>Node7&#45;&gt;Node16</title>
<path fill="none" stroke="#191970" d="M937.6528,-323.8855C819.6768,-301.3432 783.2102,-322.5934 672,-288 543.1243,-247.9115 404.4886,-165.32 341.9828,-125.6807"/>
<polygon fill="#191970" stroke="#191970" points="937.3102,-327.3855 947.7993,-325.8927 938.6687,-320.5186 937.3102,-327.3855"/>
</g>
<!-- Node7&#45;&gt;Node22 -->
<g id="edge29" class="edge">
<title>Node7&#45;&gt;Node22</title>
<path fill="none" stroke="#191970" d="M1052.9994,-317.4741C1063.0419,-308.1823 1074.0899,-297.7695 1084,-288 1103.6999,-268.5797 1101.7418,-254.2809 1127,-243 1241.2938,-191.9539 2129.0941,-224.7794 2253,-207 2257.4785,-206.3574 2262.0587,-205.5716 2266.6602,-204.6834"/>
<polygon fill="#191970" stroke="#191970" points="1050.5372,-314.9835 1045.5514,-324.3318 1055.2787,-320.1331 1050.5372,-314.9835"/>
</g>
<!-- Node23 -->
<g id="node23" class="node">
<title>Node23</title>
<g id="a_node23"><a xlink:href="../../da/dbb/JetTruthEval_8cc.html" target="_top" xlink:title="coresoftware/blob/master\l/simulation/g4simulation\l/g4eval/JetTruthEval.cc">
<polygon fill="none" stroke="#000000" points="765,-243.5 765,-287.5 911,-287.5 911,-243.5 765,-243.5"/>
<text text-anchor="start" x="773" y="-274.5" font-family="FreeSans" font-size="10.00" fill="#000000">coresoftware/blob/master</text>
<text text-anchor="start" x="773" y="-262.5" font-family="FreeSans" font-size="10.00" fill="#000000">/simulation/g4simulation</text>
<text text-anchor="middle" x="838" y="-250.5" font-family="FreeSans" font-size="10.00" fill="#000000">/g4eval/JetTruthEval.cc</text>
</a>
</g>
</g>
<!-- Node7&#45;&gt;Node23 -->
<g id="edge30" class="edge">
<title>Node7&#45;&gt;Node23</title>
<path fill="none" stroke="#191970" d="M961.7041,-320.2543C937.8869,-309.7123 910.733,-297.6933 887.9451,-287.6068"/>
<polygon fill="#191970" stroke="#191970" points="960.4335,-323.5194 970.9944,-324.3664 963.2668,-317.1184 960.4335,-323.5194"/>
</g>
<!-- Node9&#45;&gt;Node8 -->
<g id="edge11" class="edge">
<title>Node9&#45;&gt;Node8</title>
<path fill="none" stroke="#191970" d="M919.0327,-240.9831C884.876,-230.7259 844.9594,-218.528 809,-207 724.7546,-179.9924 628.142,-146.969 566.3931,-125.5989"/>
<polygon fill="#191970" stroke="#191970" points="918.3862,-244.4431 928.97,-243.9615 920.3958,-237.7378 918.3862,-244.4431"/>
</g>
<!-- Node10 -->
<g id="node10" class="node">
<title>Node10</title>
<g id="a_node10"><a xlink:href="../../db/de2/JetEvalStack_8h.html" target="_top" xlink:title="coresoftware/blob/master\l/simulation/g4simulation\l/g4eval/JetEvalStack.h">
<polygon fill="none" stroke="#000000" points="1104,-162.5 1104,-206.5 1250,-206.5 1250,-162.5 1104,-162.5"/>
<text text-anchor="start" x="1112" y="-193.5" font-family="FreeSans" font-size="10.00" fill="#000000">coresoftware/blob/master</text>
<text text-anchor="start" x="1112" y="-181.5" font-family="FreeSans" font-size="10.00" fill="#000000">/simulation/g4simulation</text>
<text text-anchor="middle" x="1177" y="-169.5" font-family="FreeSans" font-size="10.00" fill="#000000">/g4eval/JetEvalStack.h</text>
</a>
</g>
</g>
<!-- Node9&#45;&gt;Node10 -->
<g id="edge12" class="edge">
<title>Node9&#45;&gt;Node10</title>
<path fill="none" stroke="#191970" d="M1059.0062,-239.1143C1081.7094,-228.6059 1107.543,-216.6486 1129.2383,-206.6068"/>
<polygon fill="#191970" stroke="#191970" points="1057.4244,-235.9896 1049.8195,-243.3664 1060.3647,-242.3422 1057.4244,-235.9896"/>
</g>
<!-- Node12 -->
<g id="node12" class="node">
<title>Node12</title>
<g id="a_node12"><a xlink:href="../../dd/db5/JetEvaluator_8cc.html" target="_top" xlink:title="coresoftware/blob/master\l/simulation/g4simulation\l/g4eval/JetEvaluator.cc">
<polygon fill="none" stroke="#000000" points="623,-81.5 623,-125.5 769,-125.5 769,-81.5 623,-81.5"/>
<text text-anchor="start" x="631" y="-112.5" font-family="FreeSans" font-size="10.00" fill="#000000">coresoftware/blob/master</text>
<text text-anchor="start" x="631" y="-100.5" font-family="FreeSans" font-size="10.00" fill="#000000">/simulation/g4simulation</text>
<text text-anchor="middle" x="696" y="-88.5" font-family="FreeSans" font-size="10.00" fill="#000000">/g4eval/JetEvaluator.cc</text>
</a>
</g>
</g>
<!-- Node9&#45;&gt;Node12 -->
<g id="edge26" class="edge">
<title>Node9&#45;&gt;Node12</title>
<path fill="none" stroke="#191970" d="M951.5409,-238.7863C891.8813,-207.2019 793.6804,-155.2131 737.987,-125.7284"/>
<polygon fill="#191970" stroke="#191970" points="949.9375,-241.8977 960.413,-243.4834 953.2128,-235.7112 949.9375,-241.8977"/>
</g>
<!-- Node14 -->
<g id="node14" class="node">
<title>Node14</title>
<g id="a_node14"><a xlink:href="../../d8/d55/JetEnergies_8C.html" target="_top" xlink:title="analysis/blob/master\l/ForwardCalo/Flux_Return\l_Study/JetEnergies.C">
<polygon fill="none" stroke="#000000" points="1938,-.5 1938,-44.5 2084,-44.5 2084,-.5 1938,-.5"/>
<text text-anchor="start" x="1946" y="-31.5" font-family="FreeSans" font-size="10.00" fill="#000000">analysis/blob/master</text>
<text text-anchor="start" x="1946" y="-19.5" font-family="FreeSans" font-size="10.00" fill="#000000">/ForwardCalo/Flux_Return</text>
<text text-anchor="middle" x="2011" y="-7.5" font-family="FreeSans" font-size="10.00" fill="#000000">_Study/JetEnergies.C</text>
</a>
</g>
</g>
<!-- Node9&#45;&gt;Node14 -->
<g id="edge28" class="edge">
<title>Node9&#45;&gt;Node14</title>
<path fill="none" stroke="#191970" d="M1085.3095,-242.1324C1347.9476,-197.5521 2050.686,-312.4892 2219,-126 2264.3336,-75.7711 2160.9437,-46.9284 2084.2739,-33.0117"/>
<polygon fill="#191970" stroke="#191970" points="1084.6121,-238.7018 1075.3984,-243.9323 1085.8629,-245.5891 1084.6121,-238.7018"/>
</g>
<!-- Node9&#45;&gt;Node22 -->
<g id="edge27" class="edge">
<title>Node9&#45;&gt;Node22</title>
<path fill="none" stroke="#191970" d="M1085.1987,-243.5734C1086.4726,-243.3715 1087.7403,-243.1801 1089,-243 1601.3714,-169.7519 1740.6286,-280.2481 2253,-207 2257.4788,-206.3597 2262.0593,-205.5758 2266.661,-204.6889"/>
<polygon fill="#191970" stroke="#191970" points="1084.5797,-240.1285 1075.339,-245.3111 1085.7947,-247.0222 1084.5797,-240.1285"/>
</g>
<!-- Node10&#45;&gt;Node8 -->
<g id="edge13" class="edge">
<title>Node10&#45;&gt;Node8</title>
<path fill="none" stroke="#191970" d="M1093.7842,-178.378C983.6348,-169.6982 783.5582,-151.9323 614,-126 611.0845,-125.5541 608.1295,-125.0832 605.1498,-124.5918"/>
<polygon fill="#191970" stroke="#191970" points="1093.5911,-181.8735 1103.8337,-179.1643 1094.1372,-174.8948 1093.5911,-181.8735"/>
</g>
<!-- Node11 -->
<g id="node11" class="node">
<title>Node11</title>
<g id="a_node11"><a xlink:href="../../d5/dab/JetEvalStack_8cc.html" target="_top" xlink:title="coresoftware/blob/master\l/simulation/g4simulation\l/g4eval/JetEvalStack.cc">
<polygon fill="none" stroke="#000000" points="1837,-81.5 1837,-125.5 1983,-125.5 1983,-81.5 1837,-81.5"/>
<text text-anchor="start" x="1845" y="-112.5" font-family="FreeSans" font-size="10.00" fill="#000000">coresoftware/blob/master</text>
<text text-anchor="start" x="1845" y="-100.5" font-family="FreeSans" font-size="10.00" fill="#000000">/simulation/g4simulation</text>
<text text-anchor="middle" x="1910" y="-88.5" font-family="FreeSans" font-size="10.00" fill="#000000">/g4eval/JetEvalStack.cc</text>
</a>
</g>
</g>
<!-- Node10&#45;&gt;Node11 -->
<g id="edge14" class="edge">
<title>Node10&#45;&gt;Node11</title>
<path fill="none" stroke="#191970" d="M1260.3795,-181.6604C1384.6659,-176.3782 1625.5008,-162.0925 1827,-126 1830.2331,-125.4209 1833.5235,-124.7751 1836.8374,-124.0785"/>
<polygon fill="#191970" stroke="#191970" points="1260.0231,-178.1721 1250.1773,-182.0849 1260.3142,-185.1661 1260.0231,-178.1721"/>
</g>
<!-- Node10&#45;&gt;Node12 -->
<g id="edge15" class="edge">
<title>Node10&#45;&gt;Node12</title>
<path fill="none" stroke="#191970" d="M1093.5684,-175.2798C1012.4806,-165.6113 886.0943,-148.6656 778,-126 775.1104,-125.3941 772.1718,-124.7455 769.2095,-124.0647"/>
<polygon fill="#191970" stroke="#191970" points="1093.3773,-178.7815 1103.7192,-176.4803 1094.1995,-171.8299 1093.3773,-178.7815"/>
</g>
<!-- Node13 -->
<g id="node13" class="node">
<title>Node13</title>
<g id="a_node13"><a xlink:href="../../d4/db0/JetEnergies_8h.html" target="_top" xlink:title="copy of JetEvaluator.h that will add the energy absorbed by the plug door and the black hole to the l...">
<polygon fill="none" stroke="#000000" points="787,-81.5 787,-125.5 933,-125.5 933,-81.5 787,-81.5"/>
<text text-anchor="start" x="795" y="-112.5" font-family="FreeSans" font-size="10.00" fill="#000000">analysis/blob/master</text>
<text text-anchor="start" x="795" y="-100.5" font-family="FreeSans" font-size="10.00" fill="#000000">/ForwardCalo/Flux_Return</text>
<text text-anchor="middle" x="860" y="-88.5" font-family="FreeSans" font-size="10.00" fill="#000000">_Study/JetEnergies.h</text>
</a>
</g>
</g>
<!-- Node10&#45;&gt;Node13 -->
<g id="edge16" class="edge">
<title>Node10&#45;&gt;Node13</title>
<path fill="none" stroke="#191970" d="M1094.1225,-164.3795C1049.0644,-153.3121 992.3993,-139.1857 942,-126 939.1437,-125.2527 936.2332,-124.4849 933.2944,-123.7042"/>
<polygon fill="#191970" stroke="#191970" points="1093.3005,-167.7816 1103.8465,-166.7648 1094.9682,-160.9831 1093.3005,-167.7816"/>
</g>
<!-- Node10&#45;&gt;Node14 -->
<g id="edge18" class="edge">
<title>Node10&#45;&gt;Node14</title>
<path fill="none" stroke="#191970" d="M1260.2902,-181.2512C1462.5389,-172.9976 1965.0289,-150.1588 1992,-126 2014.4534,-105.8879 2015.856,-68.7055 2014.0159,-44.8125"/>
<polygon fill="#191970" stroke="#191970" points="1259.8668,-177.7654 1250.0171,-181.6684 1260.1509,-184.7596 1259.8668,-177.7654"/>
</g>
<!-- Node15 -->
<g id="node15" class="node">
<title>Node15</title>
<g id="a_node15"><a xlink:href="../../dd/dfa/BJetModule_8C.html" target="_top" xlink:title="Gether information from Truth Jet and Tracks, DST &#45;&gt; NTuple.">
<polygon fill="none" stroke="#000000" points="2039.5,-81.5 2039.5,-125.5 2210.5,-125.5 2210.5,-81.5 2039.5,-81.5"/>
<text text-anchor="start" x="2047.5" y="-112.5" font-family="FreeSans" font-size="10.00" fill="#000000">analysis/blob/master</text>
<text text-anchor="start" x="2047.5" y="-100.5" font-family="FreeSans" font-size="10.00" fill="#000000">/HF&#45;Jet/HighDCATrackCounting</text>
<text text-anchor="middle" x="2125" y="-88.5" font-family="FreeSans" font-size="10.00" fill="#000000">/BJetModule.C</text>
</a>
</g>
</g>
<!-- Node10&#45;&gt;Node15 -->
<g id="edge19" class="edge">
<title>Node10&#45;&gt;Node15</title>
<path fill="none" stroke="#191970" d="M1260.5076,-182.9534C1413.086,-179.1937 1746.8322,-166.6466 2025,-126 2029.6662,-125.3182 2034.4378,-124.5364 2039.2432,-123.6827"/>
<polygon fill="#191970" stroke="#191970" points="1260.1931,-179.4598 1250.28,-183.1989 1260.3612,-186.4578 1260.1931,-179.4598"/>
</g>
<!-- Node10&#45;&gt;Node16 -->
<g id="edge20" class="edge">
<title>Node10&#45;&gt;Node16</title>
<path fill="none" stroke="#191970" d="M1093.7718,-180.2767C920.29,-171.1495 525.0967,-148.5797 392,-126 389.1719,-125.5202 386.3009,-124.9877 383.4089,-124.4129"/>
<polygon fill="#191970" stroke="#191970" points="1093.702,-183.7778 1103.8715,-180.8061 1094.0684,-176.7874 1093.702,-183.7778"/>
</g>
<!-- Node17 -->
<g id="node17" class="node">
<title>Node17</title>
<g id="a_node17"><a xlink:href="../../d5/db3/PhotonJet_8C.html" target="_top" xlink:title="analysis/blob/master\l/PhotonJet/PhotonJet.C">
<polygon fill="none" stroke="#000000" points="951,-87.5 951,-119.5 1081,-119.5 1081,-87.5 951,-87.5"/>
<text text-anchor="start" x="959" y="-106.5" font-family="FreeSans" font-size="10.00" fill="#000000">analysis/blob/master</text>
<text text-anchor="middle" x="1016" y="-94.5" font-family="FreeSans" font-size="10.00" fill="#000000">/PhotonJet/PhotonJet.C</text>
</a>
</g>
</g>
<!-- Node10&#45;&gt;Node17 -->
<g id="edge21" class="edge">
<title>Node10&#45;&gt;Node17</title>
<path fill="none" stroke="#191970" d="M1123.9508,-157.8107C1098.8162,-145.1653 1069.6255,-130.4793 1047.9407,-119.5696"/>
<polygon fill="#191970" stroke="#191970" points="1122.4999,-160.9986 1133.006,-162.3664 1125.6459,-154.7454 1122.4999,-160.9986"/>
</g>
<!-- Node18 -->
<g id="node18" class="node">
<title>Node18</title>
<g id="a_node18"><a xlink:href="../../d0/d4a/Forward__pi0s_8C.html" target="_top" xlink:title="analysis/blob/master\l/PhotonJet/Photons/Forward\l_pi0s.C">
<polygon fill="none" stroke="#000000" points="1099,-81.5 1099,-125.5 1255,-125.5 1255,-81.5 1099,-81.5"/>
<text text-anchor="start" x="1107" y="-112.5" font-family="FreeSans" font-size="10.00" fill="#000000">analysis/blob/master</text>
<text text-anchor="start" x="1107" y="-100.5" font-family="FreeSans" font-size="10.00" fill="#000000">/PhotonJet/Photons/Forward</text>
<text text-anchor="middle" x="1177" y="-88.5" font-family="FreeSans" font-size="10.00" fill="#000000">_pi0s.C</text>
</a>
</g>
</g>
<!-- Node10&#45;&gt;Node18 -->
<g id="edge22" class="edge">
<title>Node10&#45;&gt;Node18</title>
<path fill="none" stroke="#191970" d="M1177,-152.2457C1177,-143.3118 1177,-133.8188 1177,-125.6068"/>
<polygon fill="#191970" stroke="#191970" points="1173.5001,-152.3664 1177,-162.3664 1180.5001,-152.3664 1173.5001,-152.3664"/>
</g>
<!-- Node19 -->
<g id="node19" class="node">
<title>Node19</title>
<g id="a_node19"><a xlink:href="../../da/da2/Photons_8C.html" target="_top" xlink:title="analysis/blob/master\l/PhotonJet/Photons/Photons.C">
<polygon fill="none" stroke="#000000" points="1273.5,-87.5 1273.5,-119.5 1440.5,-119.5 1440.5,-87.5 1273.5,-87.5"/>
<text text-anchor="start" x="1281.5" y="-106.5" font-family="FreeSans" font-size="10.00" fill="#000000">analysis/blob/master</text>
<text text-anchor="middle" x="1357" y="-94.5" font-family="FreeSans" font-size="10.00" fill="#000000">/PhotonJet/Photons/Photons.C</text>
</a>
</g>
</g>
<!-- Node10&#45;&gt;Node19 -->
<g id="edge23" class="edge">
<title>Node10&#45;&gt;Node19</title>
<path fill="none" stroke="#191970" d="M1235.5712,-158.143C1263.8373,-145.4232 1296.8334,-130.575 1321.2899,-119.5696"/>
<polygon fill="#191970" stroke="#191970" points="1233.8687,-155.071 1226.1858,-162.3664 1236.7413,-161.4544 1233.8687,-155.071"/>
</g>
<!-- Node20 -->
<g id="node20" class="node">
<title>Node20</title>
<g id="a_node20"><a xlink:href="../../d1/d87/TruthPhotonJet_8C.html" target="_top" xlink:title="analysis/blob/master\l/PhotonJet/TruthPhotonJet\l/TruthPhotonJet.C">
<polygon fill="none" stroke="#000000" points="1458.5,-81.5 1458.5,-125.5 1605.5,-125.5 1605.5,-81.5 1458.5,-81.5"/>
<text text-anchor="start" x="1466.5" y="-112.5" font-family="FreeSans" font-size="10.00" fill="#000000">analysis/blob/master</text>
<text text-anchor="start" x="1466.5" y="-100.5" font-family="FreeSans" font-size="10.00" fill="#000000">/PhotonJet/TruthPhotonJet</text>
<text text-anchor="middle" x="1532" y="-88.5" font-family="FreeSans" font-size="10.00" fill="#000000">/TruthPhotonJet.C</text>
</a>
</g>
</g>
<!-- Node10&#45;&gt;Node20 -->
<g id="edge24" class="edge">
<title>Node10&#45;&gt;Node20</title>
<path fill="none" stroke="#191970" d="M1260.1259,-167.8101C1314.1158,-156.6776 1385.923,-141.3213 1449,-126 1452.0467,-125.26 1455.152,-124.4899 1458.2859,-123.6998"/>
<polygon fill="#191970" stroke="#191970" points="1259.3487,-164.3966 1250.2583,-169.8387 1260.7583,-171.2532 1259.3487,-164.3966"/>
</g>
<!-- Node21 -->
<g id="node21" class="node">
<title>Node21</title>
<g id="a_node21"><a xlink:href="../../da/dc2/MyJetAnalysis_8cc.html" target="_top" xlink:title="tutorials/blob/master\l/myjetanalysis/src/MyJetAnalysis.cc">
<polygon fill="none" stroke="#000000" points="1623.5,-87.5 1623.5,-119.5 1818.5,-119.5 1818.5,-87.5 1623.5,-87.5"/>
<text text-anchor="start" x="1631.5" y="-106.5" font-family="FreeSans" font-size="10.00" fill="#000000">tutorials/blob/master</text>
<text text-anchor="middle" x="1721" y="-94.5" font-family="FreeSans" font-size="10.00" fill="#000000">/myjetanalysis/src/MyJetAnalysis.cc</text>
</a>
</g>
</g>
<!-- Node10&#45;&gt;Node21 -->
<g id="edge25" class="edge">
<title>Node10&#45;&gt;Node21</title>
<path fill="none" stroke="#191970" d="M1260.2616,-175.2168C1348.395,-164.9555 1491.4204,-147.0629 1614,-126 1625.1315,-124.0873 1636.8688,-121.8482 1648.3289,-119.5378"/>
<polygon fill="#191970" stroke="#191970" points="1259.8512,-171.7408 1250.3206,-176.3689 1260.6571,-178.6943 1259.8512,-171.7408"/>
</g>
<!-- Node13&#45;&gt;Node14 -->
<g id="edge17" class="edge">
<title>Node13&#45;&gt;Node14</title>
<path fill="none" stroke="#191970" d="M943.1787,-81.0196C1153.4673,-49.0887 1732.5132,-30.3253 1937.772,-24.4741"/>
<polygon fill="#191970" stroke="#191970" points="942.4808,-77.5862 933.1469,-82.599 943.5696,-84.5011 942.4808,-77.5862"/>
</g>
</g>
</svg>
