<?xml version="1.0" encoding="UTF-8" standalone="no"?>
<!DOCTYPE svg PUBLIC "-//W3C//DTD SVG 1.1//EN"
 "http://www.w3.org/Graphics/SVG/1.1/DTD/svg11.dtd">
<!-- Generated by graphviz version 2.40.1 (20161225.0304)
 -->
<!-- Title: RawTowerDefs::convert_name_to_caloid Pages: 1 -->
<svg width="924pt" height="494pt"
 viewBox="0.00 0.00 924.00 494.00" xmlns="http://www.w3.org/2000/svg" xmlns:xlink="http://www.w3.org/1999/xlink">
<g id="graph0" class="graph" transform="scale(1 1) rotate(0) translate(4 490)">
<title>RawTowerDefs::convert_name_to_caloid</title>
<!-- Node1 -->
<g id="node1" class="node">
<title>Node1</title>
<polygon fill="#bfbfbf" stroke="#000000" points="0,-247.5 0,-279.5 135,-279.5 135,-247.5 0,-247.5"/>
<text text-anchor="start" x="8" y="-266.5" font-family="FreeSans" font-size="10.00" fill="#000000">RawTowerDefs::convert</text>
<text text-anchor="middle" x="67.5" y="-254.5" font-family="FreeSans" font-size="10.00" fill="#000000">_name_to_caloid</text>
</g>
<!-- Node2 -->
<g id="node2" class="node">
<title>Node2</title>
<g id="a_node2"><a xlink:href="../../d7/d10/classRawTowerBuilder.html#a01f91227474fd72e2e630a577973b67b" target="_top" xlink:title="RawTowerBuilder::CreateNodes">
<polygon fill="none" stroke="#000000" points="171,-465.5 171,-485.5 345,-485.5 345,-465.5 171,-465.5"/>
<text text-anchor="middle" x="258" y="-472.5" font-family="FreeSans" font-size="10.00" fill="#000000">RawTowerBuilder::CreateNodes</text>
</a>
</g>
</g>
<!-- Node1&#45;&gt;Node2 -->
<g id="edge1" class="edge">
<title>Node1&#45;&gt;Node2</title>
<path fill="none" stroke="#191970" d="M74.6903,-289.169C87.3449,-329.5929 117.4637,-407.8627 171,-450.5 179.2364,-457.0596 189.1208,-461.8981 199.2263,-465.467"/>
<polygon fill="#191970" stroke="#191970" points="78.0187,-288.0835 71.7786,-279.5213 71.3172,-290.106 78.0187,-288.0835"/>
</g>
<!-- Node4 -->
<g id="node4" class="node">
<title>Node4</title>
<g id="a_node4"><a xlink:href="../../d1/dec/classHcalRawTowerBuilder.html#a8d6c6571f527c1be9c24b9e3f35021de" target="_top" xlink:title="HcalRawTowerBuilder\l::CreateNodes">
<polygon fill="none" stroke="#000000" points="195.5,-375.5 195.5,-407.5 320.5,-407.5 320.5,-375.5 195.5,-375.5"/>
<text text-anchor="start" x="203.5" y="-394.5" font-family="FreeSans" font-size="10.00" fill="#000000">HcalRawTowerBuilder</text>
<text text-anchor="middle" x="258" y="-382.5" font-family="FreeSans" font-size="10.00" fill="#000000">::CreateNodes</text>
</a>
</g>
</g>
<!-- Node1&#45;&gt;Node4 -->
<g id="edge3" class="edge">
<title>Node1&#45;&gt;Node4</title>
<path fill="none" stroke="#191970" d="M85.7011,-287.6733C104.5739,-311.1039 136.1591,-346.0207 171,-366.5 178.4515,-370.88 186.717,-374.5319 195.1026,-377.5664"/>
<polygon fill="#191970" stroke="#191970" points="88.2814,-285.293 79.3406,-279.6086 82.7851,-289.6279 88.2814,-285.293"/>
</g>
<!-- Node5 -->
<g id="node5" class="node">
<title>Node5</title>
<g id="a_node5"><a xlink:href="../../d1/dec/classHcalRawTowerBuilder.html#a7905b60d52f4f69f900e45859a894533" target="_top" xlink:title="HcalRawTowerBuilder\l::InitRun">
<polygon fill="none" stroke="#000000" points="397.5,-405.5 397.5,-437.5 522.5,-437.5 522.5,-405.5 397.5,-405.5"/>
<text text-anchor="start" x="405.5" y="-424.5" font-family="FreeSans" font-size="10.00" fill="#000000">HcalRawTowerBuilder</text>
<text text-anchor="middle" x="460" y="-412.5" font-family="FreeSans" font-size="10.00" fill="#000000">::InitRun</text>
</a>
</g>
</g>
<!-- Node1&#45;&gt;Node5 -->
<g id="edge39" class="edge">
<title>Node1&#45;&gt;Node5</title>
<path fill="none" stroke="#191970" d="M76.1615,-289.3668C89.8454,-325.5743 120.2549,-390.0114 171,-417.5 241.2625,-455.5612 335.9433,-447.8168 397.4731,-436.5268"/>
<polygon fill="#191970" stroke="#191970" points="79.4472,-288.1607 72.7425,-279.9572 72.8681,-290.5513 79.4472,-288.1607"/>
</g>
<!-- Node6 -->
<g id="node6" class="node">
<title>Node6</title>
<g id="a_node6"><a xlink:href="../../d1/df8/classRawTowerBuilderByHitIndex.html#a159063a3188c62eabadfd532db7c63cd" target="_top" xlink:title="RawTowerBuilderByHitIndex\l::CreateNodes">
<polygon fill="none" stroke="#000000" points="179,-324.5 179,-356.5 337,-356.5 337,-324.5 179,-324.5"/>
<text text-anchor="start" x="187" y="-343.5" font-family="FreeSans" font-size="10.00" fill="#000000">RawTowerBuilderByHitIndex</text>
<text text-anchor="middle" x="258" y="-331.5" font-family="FreeSans" font-size="10.00" fill="#000000">::CreateNodes</text>
</a>
</g>
</g>
<!-- Node1&#45;&gt;Node6 -->
<g id="edge5" class="edge">
<title>Node1&#45;&gt;Node6</title>
<path fill="none" stroke="#191970" d="M104.6525,-284.2749C124.0334,-294.5666 148.3647,-306.6503 171,-315.5 179.1964,-318.7046 187.97,-321.7034 196.6761,-324.4332"/>
<polygon fill="#191970" stroke="#191970" points="106.3086,-281.1916 95.8433,-279.54 102.9945,-287.3574 106.3086,-281.1916"/>
</g>
<!-- Node8 -->
<g id="node8" class="node">
<title>Node8</title>
<g id="a_node8"><a xlink:href="../../df/d0d/classRawTowerCombiner.html#a9dbc0b9dfed20dcd3a9a5f6dcf53636d" target="_top" xlink:title="RawTowerCombiner::Create\lNodes">
<polygon fill="none" stroke="#000000" points="180.5,-273.5 180.5,-305.5 335.5,-305.5 335.5,-273.5 180.5,-273.5"/>
<text text-anchor="start" x="188.5" y="-292.5" font-family="FreeSans" font-size="10.00" fill="#000000">RawTowerCombiner::Create</text>
<text text-anchor="middle" x="258" y="-280.5" font-family="FreeSans" font-size="10.00" fill="#000000">Nodes</text>
</a>
</g>
</g>
<!-- Node1&#45;&gt;Node8 -->
<g id="edge7" class="edge">
<title>Node1&#45;&gt;Node8</title>
<path fill="none" stroke="#191970" d="M145.2863,-274.1165C156.8897,-275.7002 168.8512,-277.3327 180.4498,-278.9157"/>
<polygon fill="#191970" stroke="#191970" points="145.581,-270.6244 135.1996,-272.7398 144.6344,-277.5601 145.581,-270.6244"/>
</g>
<!-- Node10 -->
<g id="node10" class="node">
<title>Node10</title>
<g id="a_node10"><a xlink:href="../../d1/df8/classRawTowerBuilderByHitIndex.html#a00f3d954fe5b8d73911153304004419c" target="_top" xlink:title="RawTowerBuilderByHitIndex\l::Detector">
<polygon fill="none" stroke="#000000" points="179,-222.5 179,-254.5 337,-254.5 337,-222.5 179,-222.5"/>
<text text-anchor="start" x="187" y="-241.5" font-family="FreeSans" font-size="10.00" fill="#000000">RawTowerBuilderByHitIndex</text>
<text text-anchor="middle" x="258" y="-229.5" font-family="FreeSans" font-size="10.00" fill="#000000">::Detector</text>
</a>
</g>
</g>
<!-- Node1&#45;&gt;Node10 -->
<g id="edge9" class="edge">
<title>Node1&#45;&gt;Node10</title>
<path fill="none" stroke="#191970" d="M145.2529,-253.2962C156.3193,-251.8439 167.712,-250.3488 178.8056,-248.893"/>
<polygon fill="#191970" stroke="#191970" points="144.6591,-249.844 135.1996,-254.6155 145.57,-256.7845 144.6591,-249.844"/>
</g>
<!-- Node22 -->
<g id="node22" class="node">
<title>Node22</title>
<g id="a_node22"><a xlink:href="../../d6/d45/classEpFinderEval.html#af537855512c06847c1021dd83f015031" target="_top" xlink:title="EpFinderEval::fill_tree">
<polygon fill="none" stroke="#000000" points="195,-183.5 195,-203.5 321,-203.5 321,-183.5 195,-183.5"/>
<text text-anchor="middle" x="258" y="-190.5" font-family="FreeSans" font-size="10.00" fill="#000000">EpFinderEval::fill_tree</text>
</a>
</g>
</g>
<!-- Node1&#45;&gt;Node22 -->
<g id="edge32" class="edge">
<title>Node1&#45;&gt;Node22</title>
<path fill="none" stroke="#191970" d="M105.2311,-242.7462C124.4745,-232.8187 148.511,-221.4045 171,-213.5 181.966,-209.6457 193.9738,-206.3331 205.4719,-203.5757"/>
<polygon fill="#191970" stroke="#191970" points="103.4314,-239.7378 96.1972,-247.4784 106.6795,-245.9386 103.4314,-239.7378"/>
</g>
<!-- Node24 -->
<g id="node24" class="node">
<title>Node24</title>
<g id="a_node24"><a xlink:href="../../d4/d3f/classTrackProjectionTools.html#afbf847b5be056b817bdf97ef61aca888" target="_top" xlink:title="TrackProjectionTools\l::getE33Forward">
<polygon fill="none" stroke="#000000" points="198.5,-132.5 198.5,-164.5 317.5,-164.5 317.5,-132.5 198.5,-132.5"/>
<text text-anchor="start" x="206.5" y="-151.5" font-family="FreeSans" font-size="10.00" fill="#000000">TrackProjectionTools</text>
<text text-anchor="middle" x="258" y="-139.5" font-family="FreeSans" font-size="10.00" fill="#000000">::getE33Forward</text>
</a>
</g>
</g>
<!-- Node1&#45;&gt;Node24 -->
<g id="edge34" class="edge">
<title>Node1&#45;&gt;Node24</title>
<path fill="none" stroke="#191970" d="M89.0176,-240.1277C108.6244,-220.1066 139.286,-191.8381 171,-174.5 179.4376,-169.8872 188.7938,-165.9964 198.1518,-162.7455"/>
<polygon fill="#191970" stroke="#191970" points="86.4741,-237.7232 82.0652,-247.3572 91.5196,-242.5753 86.4741,-237.7232"/>
</g>
<!-- Node28 -->
<g id="node28" class="node">
<title>Node28</title>
<g id="a_node28"><a xlink:href="../../d6/d1b/classPrototype2RawTowerBuilder.html#ac5d83bd0e9b8325c27dba83fc67b1111" target="_top" xlink:title="Prototype2RawTowerBuilder\l::InitRun">
<polygon fill="none" stroke="#000000" points="179,-81.5 179,-113.5 337,-113.5 337,-81.5 179,-81.5"/>
<text text-anchor="start" x="187" y="-100.5" font-family="FreeSans" font-size="10.00" fill="#000000">Prototype2RawTowerBuilder</text>
<text text-anchor="middle" x="258" y="-88.5" font-family="FreeSans" font-size="10.00" fill="#000000">::InitRun</text>
</a>
</g>
</g>
<!-- Node1&#45;&gt;Node28 -->
<g id="edge38" class="edge">
<title>Node1&#45;&gt;Node28</title>
<path fill="none" stroke="#191970" d="M79.5631,-238.4221C95.9508,-206.9815 128.1849,-153.5708 171,-123.5 176.4182,-119.6946 182.4002,-116.438 188.6153,-113.6526"/>
<polygon fill="#191970" stroke="#191970" points="76.3989,-236.9231 74.9918,-247.4241 82.6403,-240.0925 76.3989,-236.9231"/>
</g>
<!-- Node29 -->
<g id="node29" class="node">
<title>Node29</title>
<g id="a_node29"><a xlink:href="../../d3/dba/classRawTowerDeadMapLoader.html#a0352293d0fc27e48fecf34f52ad13d12" target="_top" xlink:title="RawTowerDeadMapLoader\l::InitRun">
<polygon fill="none" stroke="#000000" points="183,-30.5 183,-62.5 333,-62.5 333,-30.5 183,-30.5"/>
<text text-anchor="start" x="191" y="-49.5" font-family="FreeSans" font-size="10.00" fill="#000000">RawTowerDeadMapLoader</text>
<text text-anchor="middle" x="258" y="-37.5" font-family="FreeSans" font-size="10.00" fill="#000000">::InitRun</text>
</a>
</g>
</g>
<!-- Node1&#45;&gt;Node29 -->
<g id="edge40" class="edge">
<title>Node1&#45;&gt;Node29</title>
<path fill="none" stroke="#191970" d="M74.4907,-237.6635C86.9422,-196.5684 116.8754,-116.475 171,-72.5 175.7716,-68.6231 181.1086,-65.3241 186.7278,-62.5168"/>
<polygon fill="#191970" stroke="#191970" points="71.0737,-236.8791 71.632,-247.4592 77.7934,-238.8401 71.0737,-236.8791"/>
</g>
<!-- Node3 -->
<g id="node3" class="node">
<title>Node3</title>
<g id="a_node3"><a xlink:href="../../d7/d10/classRawTowerBuilder.html#a4b0df4f724072bb2c3f2e59e44ef134c" target="_top" xlink:title="RawTowerBuilder::InitRun">
<polygon fill="none" stroke="#000000" points="388,-465.5 388,-485.5 532,-485.5 532,-465.5 388,-465.5"/>
<text text-anchor="middle" x="460" y="-472.5" font-family="FreeSans" font-size="10.00" fill="#000000">RawTowerBuilder::InitRun</text>
</a>
</g>
</g>
<!-- Node2&#45;&gt;Node3 -->
<g id="edge2" class="edge">
<title>Node2&#45;&gt;Node3</title>
<path fill="none" stroke="#191970" d="M355.164,-475.5C366.1225,-475.5 377.1414,-475.5 387.7035,-475.5"/>
<polygon fill="#191970" stroke="#191970" points="355.1319,-472.0001 345.1318,-475.5 355.1318,-479.0001 355.1319,-472.0001"/>
</g>
<!-- Node4&#45;&gt;Node5 -->
<g id="edge4" class="edge">
<title>Node4&#45;&gt;Node5</title>
<path fill="none" stroke="#191970" d="M330.4425,-402.2588C352.3503,-405.5124 376.2112,-409.0561 397.417,-412.2055"/>
<polygon fill="#191970" stroke="#191970" points="330.9364,-398.7938 320.5307,-400.7867 329.908,-405.7179 330.9364,-398.7938"/>
</g>
<!-- Node7 -->
<g id="node7" class="node">
<title>Node7</title>
<g id="a_node7"><a xlink:href="../../d1/df8/classRawTowerBuilderByHitIndex.html#a366ffa286e0d97694ad6cd28e6f3e91f" target="_top" xlink:title="RawTowerBuilderByHitIndex\l::InitRun">
<polygon fill="none" stroke="#000000" points="381,-345.5 381,-377.5 539,-377.5 539,-345.5 381,-345.5"/>
<text text-anchor="start" x="389" y="-364.5" font-family="FreeSans" font-size="10.00" fill="#000000">RawTowerBuilderByHitIndex</text>
<text text-anchor="middle" x="460" y="-352.5" font-family="FreeSans" font-size="10.00" fill="#000000">::InitRun</text>
</a>
</g>
</g>
<!-- Node6&#45;&gt;Node7 -->
<g id="edge6" class="edge">
<title>Node6&#45;&gt;Node7</title>
<path fill="none" stroke="#191970" d="M347.4448,-349.7987C358.6151,-350.96 369.9764,-352.1411 380.9726,-353.2843"/>
<polygon fill="#191970" stroke="#191970" points="347.5643,-346.2924 337.256,-348.7395 346.8404,-353.2548 347.5643,-346.2924"/>
</g>
<!-- Node9 -->
<g id="node9" class="node">
<title>Node9</title>
<g id="a_node9"><a xlink:href="../../df/d0d/classRawTowerCombiner.html#a7c200854ab6656841ce516da52eb7639" target="_top" xlink:title="RawTowerCombiner::InitRun">
<polygon fill="none" stroke="#000000" points="381.5,-306.5 381.5,-326.5 538.5,-326.5 538.5,-306.5 381.5,-306.5"/>
<text text-anchor="middle" x="460" y="-313.5" font-family="FreeSans" font-size="10.00" fill="#000000">RawTowerCombiner::InitRun</text>
</a>
</g>
</g>
<!-- Node8&#45;&gt;Node9 -->
<g id="edge8" class="edge">
<title>Node8&#45;&gt;Node9</title>
<path fill="none" stroke="#191970" d="M345.5104,-301.1969C358.673,-302.9563 372.1468,-304.7572 385.0159,-306.4774"/>
<polygon fill="#191970" stroke="#191970" points="345.8963,-297.7175 335.5208,-299.8617 344.9689,-304.6558 345.8963,-297.7175"/>
</g>
<!-- Node11 -->
<g id="node11" class="node">
<title>Node11</title>
<g id="a_node11"><a xlink:href="../../d1/d81/macros_2blob_2master_2macros_2g4simulations_2G4__EEMC_8C.html#a05b9b10b79cc47702702e091692fd060" target="_top" xlink:title="EEMC_Towers">
<polygon fill="none" stroke="#000000" points="418,-267.5 418,-287.5 502,-287.5 502,-267.5 418,-267.5"/>
<text text-anchor="middle" x="460" y="-274.5" font-family="FreeSans" font-size="10.00" fill="#000000">EEMC_Towers</text>
</a>
</g>
</g>
<!-- Node10&#45;&gt;Node11 -->
<g id="edge10" class="edge">
<title>Node10&#45;&gt;Node11</title>
<path fill="none" stroke="#191970" d="M347.3382,-255.7485C371.8966,-260.4899 397.3872,-265.4114 417.8972,-269.3712"/>
<polygon fill="#191970" stroke="#191970" points="347.7382,-252.2611 337.256,-253.8019 346.4111,-259.1342 347.7382,-252.2611"/>
</g>
<!-- Node16 -->
<g id="node16" class="node">
<title>Node16</title>
<g id="a_node16"><a xlink:href="../../d6/d5c/macros_2blob_2master_2macros_2g4simulations_2G4__FEMC_8C.html#af68dc9104b4ad645db845e957df9863e" target="_top" xlink:title="FEMC_Towers">
<polygon fill="none" stroke="#000000" points="418,-189.5 418,-209.5 502,-209.5 502,-189.5 418,-189.5"/>
<text text-anchor="middle" x="460" y="-196.5" font-family="FreeSans" font-size="10.00" fill="#000000">FEMC_Towers</text>
</a>
</g>
</g>
<!-- Node10&#45;&gt;Node16 -->
<g id="edge15" class="edge">
<title>Node10&#45;&gt;Node16</title>
<path fill="none" stroke="#191970" d="M347.3382,-221.2515C371.8966,-216.5101 397.3872,-211.5886 417.8972,-207.6288"/>
<polygon fill="#191970" stroke="#191970" points="346.4111,-217.8658 337.256,-223.1981 347.7382,-224.7389 346.4111,-217.8658"/>
</g>
<!-- Node21 -->
<g id="node21" class="node">
<title>Node21</title>
<g id="a_node21"><a xlink:href="../../d9/d50/macros_2blob_2master_2macros_2g4simulations_2G4__FHCAL_8C.html#a5d0a471f02bc3f2081650a15db56784e" target="_top" xlink:title="FHCAL_Towers">
<polygon fill="none" stroke="#000000" points="415.5,-228.5 415.5,-248.5 504.5,-248.5 504.5,-228.5 415.5,-228.5"/>
<text text-anchor="middle" x="460" y="-235.5" font-family="FreeSans" font-size="10.00" fill="#000000">FHCAL_Towers</text>
</a>
</g>
</g>
<!-- Node10&#45;&gt;Node21 -->
<g id="edge24" class="edge">
<title>Node10&#45;&gt;Node21</title>
<path fill="none" stroke="#191970" d="M347.2869,-238.5C370.8512,-238.5 395.2776,-238.5 415.3419,-238.5"/>
<polygon fill="#191970" stroke="#191970" points="347.256,-235.0001 337.256,-238.5 347.2559,-242.0001 347.256,-235.0001"/>
</g>
<!-- Node12 -->
<g id="node12" class="node">
<title>Node12</title>
<g id="a_node12"><a xlink:href="../../da/d02/Fun4All__G4__EICDetector_8C.html#afbe82cefa1d1fd031d9a8586b7bb68c6" target="_top" xlink:title="Fun4All_G4_EICDetector">
<polygon fill="none" stroke="#000000" points="598,-309.5 598,-329.5 737,-329.5 737,-309.5 598,-309.5"/>
<text text-anchor="middle" x="667.5" y="-316.5" font-family="FreeSans" font-size="10.00" fill="#000000">Fun4All_G4_EICDetector</text>
</a>
</g>
</g>
<!-- Node11&#45;&gt;Node12 -->
<g id="edge11" class="edge">
<title>Node11&#45;&gt;Node12</title>
<path fill="none" stroke="#191970" d="M512.4259,-288.1115C544.8344,-294.6713 586.174,-303.0388 618.0195,-309.4847"/>
<polygon fill="#191970" stroke="#191970" points="512.7364,-284.6035 502.2408,-286.05 511.3477,-291.4643 512.7364,-284.6035"/>
</g>
<!-- Node13 -->
<g id="node13" class="node">
<title>Node13</title>
<g id="a_node13"><a xlink:href="../../dd/d2a/Fun4All__G4__EICDetector__LQ_8C.html#aaa01242fd6e77ca43a9d49a6d46008e4" target="_top" xlink:title="Fun4All_G4_EICDetector_LQ">
<polygon fill="none" stroke="#000000" points="589.5,-270.5 589.5,-290.5 745.5,-290.5 745.5,-270.5 589.5,-270.5"/>
<text text-anchor="middle" x="667.5" y="-277.5" font-family="FreeSans" font-size="10.00" fill="#000000">Fun4All_G4_EICDetector_LQ</text>
</a>
</g>
</g>
<!-- Node11&#45;&gt;Node13 -->
<g id="edge12" class="edge">
<title>Node11&#45;&gt;Node13</title>
<path fill="none" stroke="#191970" d="M512.2594,-278.2556C535.5637,-278.5925 563.5113,-278.9965 589.2316,-279.3684"/>
<polygon fill="#191970" stroke="#191970" points="512.2904,-274.7557 502.2408,-278.1107 512.1892,-281.755 512.2904,-274.7557"/>
</g>
<!-- Node14 -->
<g id="node14" class="node">
<title>Node14</title>
<g id="a_node14"><a xlink:href="../../d4/df5/Fun4All__G4__EICDetector__LQ__reference_8C.html#a2feefc472f17f90b3cbe74897d049f75" target="_top" xlink:title="Fun4All_G4_EICDetector\l_LQ_reference">
<polygon fill="none" stroke="#000000" points="598,-219.5 598,-251.5 737,-251.5 737,-219.5 598,-219.5"/>
<text text-anchor="start" x="606" y="-238.5" font-family="FreeSans" font-size="10.00" fill="#000000">Fun4All_G4_EICDetector</text>
<text text-anchor="middle" x="667.5" y="-226.5" font-family="FreeSans" font-size="10.00" fill="#000000">_LQ_reference</text>
</a>
</g>
</g>
<!-- Node11&#45;&gt;Node14 -->
<g id="edge13" class="edge">
<title>Node11&#45;&gt;Node14</title>
<path fill="none" stroke="#191970" d="M512.2549,-266.9231C538.2227,-261.667 569.9565,-255.2437 597.9501,-249.5776"/>
<polygon fill="#191970" stroke="#191970" points="511.3477,-263.5357 502.2408,-268.95 512.7364,-270.3965 511.3477,-263.5357"/>
</g>
<!-- Node15 -->
<g id="node15" class="node">
<title>Node15</title>
<g id="a_node15"><a xlink:href="../../d3/d51/Fun4All__G4__EICDetector__RICH_8C.html#a5739502b0a7a1ba782c01069f77e933f" target="_top" xlink:title="Fun4All_G4_EICDetector_RICH">
<polygon fill="none" stroke="#000000" points="584,-348.5 584,-368.5 751,-368.5 751,-348.5 584,-348.5"/>
<text text-anchor="middle" x="667.5" y="-355.5" font-family="FreeSans" font-size="10.00" fill="#000000">Fun4All_G4_EICDetector_RICH</text>
</a>
</g>
</g>
<!-- Node11&#45;&gt;Node15 -->
<g id="edge14" class="edge">
<title>Node11&#45;&gt;Node15</title>
<path fill="none" stroke="#191970" d="M511.894,-285.7783C521.3393,-288.6109 530.7899,-292.409 539,-297.5 559.8944,-310.4564 553.8171,-327.0208 575,-339.5 581.0739,-343.0782 587.7171,-345.9905 594.567,-348.3595"/>
<polygon fill="#191970" stroke="#191970" points="512.6698,-282.3629 502.1051,-283.1621 510.8624,-289.1255 512.6698,-282.3629"/>
</g>
<!-- Node16&#45;&gt;Node12 -->
<g id="edge16" class="edge">
<title>Node16&#45;&gt;Node12</title>
<path fill="none" stroke="#191970" d="M512.004,-205.5648C521.7547,-208.5747 531.2918,-213.004 539,-219.5 569.1246,-244.8872 544.3073,-275.8026 575,-300.5 581.6418,-305.8444 589.4019,-309.8016 597.5519,-312.7146"/>
<polygon fill="#191970" stroke="#191970" points="512.8026,-202.156 502.2418,-203.0042 511.0266,-208.9269 512.8026,-202.156"/>
</g>
<!-- Node16&#45;&gt;Node13 -->
<g id="edge17" class="edge">
<title>Node16&#45;&gt;Node13</title>
<path fill="none" stroke="#191970" d="M511.894,-207.7783C521.3393,-210.6109 530.7899,-214.409 539,-219.5 559.8944,-232.4564 553.8171,-249.0208 575,-261.5 581.0739,-265.0782 587.7171,-267.9905 594.567,-270.3595"/>
<polygon fill="#191970" stroke="#191970" points="512.6698,-204.3629 502.1051,-205.1621 510.8624,-211.1255 512.6698,-204.3629"/>
</g>
<!-- Node16&#45;&gt;Node14 -->
<g id="edge18" class="edge">
<title>Node16&#45;&gt;Node14</title>
<path fill="none" stroke="#191970" d="M512.2549,-208.5659C538.2227,-213.0712 569.9565,-218.5768 597.9501,-223.4335"/>
<polygon fill="#191970" stroke="#191970" points="512.692,-205.0895 502.2408,-206.8285 511.4953,-211.9865 512.692,-205.0895"/>
</g>
<!-- Node16&#45;&gt;Node15 -->
<g id="edge19" class="edge">
<title>Node16&#45;&gt;Node15</title>
<path fill="none" stroke="#191970" d="M512.058,-204.6308C521.9765,-207.6944 531.5654,-212.382 539,-219.5 579.2199,-258.0072 533.9171,-301.9149 575,-339.5 578.8707,-343.0412 583.2191,-345.9939 587.8652,-348.45"/>
<polygon fill="#191970" stroke="#191970" points="512.6531,-201.1702 502.0973,-202.0785 510.9156,-207.9512 512.6531,-201.1702"/>
</g>
<!-- Node17 -->
<g id="node17" class="node">
<title>Node17</title>
<g id="a_node17"><a xlink:href="../../d7/d9e/Fun4All__G4__fsPHENIX_8C.html#af48911d394d2412e817583700f2bbee2" target="_top" xlink:title="Fun4All_G4_fsPHENIX">
<polygon fill="none" stroke="#000000" points="605.5,-180.5 605.5,-200.5 729.5,-200.5 729.5,-180.5 605.5,-180.5"/>
<text text-anchor="middle" x="667.5" y="-187.5" font-family="FreeSans" font-size="10.00" fill="#000000">Fun4All_G4_fsPHENIX</text>
</a>
</g>
</g>
<!-- Node16&#45;&gt;Node17 -->
<g id="edge20" class="edge">
<title>Node16&#45;&gt;Node17</title>
<path fill="none" stroke="#191970" d="M512.3144,-197.2309C540.5541,-196.0061 575.5997,-194.486 605.2377,-193.2005"/>
<polygon fill="#191970" stroke="#191970" points="512.0797,-193.7377 502.2408,-197.6679 512.3831,-200.7312 512.0797,-193.7377"/>
</g>
<!-- Node18 -->
<g id="node18" class="node">
<title>Node18</title>
<g id="a_node18"><a xlink:href="../../da/d2f/Fun4All__G4__fsPHENIX__FastSim_8C.html#a66fb850cae5fcaadda23b74a25ce4c9c" target="_top" xlink:title="Fun4All_G4_fsPHENIX\l_FastSim">
<polygon fill="none" stroke="#000000" points="605.5,-129.5 605.5,-161.5 729.5,-161.5 729.5,-129.5 605.5,-129.5"/>
<text text-anchor="start" x="613.5" y="-148.5" font-family="FreeSans" font-size="10.00" fill="#000000">Fun4All_G4_fsPHENIX</text>
<text text-anchor="middle" x="667.5" y="-136.5" font-family="FreeSans" font-size="10.00" fill="#000000">_FastSim</text>
</a>
</g>
</g>
<!-- Node16&#45;&gt;Node18 -->
<g id="edge21" class="edge">
<title>Node16&#45;&gt;Node18</title>
<path fill="none" stroke="#191970" d="M512.2334,-187.1708C521.1741,-184.9937 530.3626,-182.7145 539,-180.5 562.2933,-174.5281 587.8683,-167.632 610.0268,-161.5482"/>
<polygon fill="#191970" stroke="#191970" points="511.1837,-183.8237 502.2868,-189.5765 512.8293,-190.6275 511.1837,-183.8237"/>
</g>
<!-- Node19 -->
<g id="node19" class="node">
<title>Node19</title>
<g id="a_node19"><a xlink:href="../../d0/da6/Fun4All__G4__fsPHENIX__pi0_8C.html#a023d91d47b678e5d7f1751834aa517c6" target="_top" xlink:title="Fun4All_G4_fsPHENIX_pi0">
<polygon fill="none" stroke="#000000" points="595,-90.5 595,-110.5 740,-110.5 740,-90.5 595,-90.5"/>
<text text-anchor="middle" x="667.5" y="-97.5" font-family="FreeSans" font-size="10.00" fill="#000000">Fun4All_G4_fsPHENIX_pi0</text>
</a>
</g>
</g>
<!-- Node16&#45;&gt;Node19 -->
<g id="edge22" class="edge">
<title>Node16&#45;&gt;Node19</title>
<path fill="none" stroke="#191970" d="M512.0005,-193.2099C521.5899,-190.3839 531.0665,-186.3234 539,-180.5 564.0696,-162.0982 549.7197,-138.6112 575,-120.5 581.0103,-116.1941 587.7658,-112.784 594.8188,-110.0879"/>
<polygon fill="#191970" stroke="#191970" points="510.8643,-189.8869 502.0264,-195.7301 512.5791,-196.6736 510.8643,-189.8869"/>
</g>
<!-- Node20 -->
<g id="node20" class="node">
<title>Node20</title>
<g id="a_node20"><a xlink:href="../../d5/d2c/macros_2blob_2master_2macros_2g4simulations_2Fun4All__G4__sPHENIX_8C.html#a6eaaa492d7023ec86c562dc63aa1e5a4" target="_top" xlink:title="Fun4All_G4_sPHENIX">
<polygon fill="none" stroke="#000000" points="607,-51.5 607,-71.5 728,-71.5 728,-51.5 607,-51.5"/>
<text text-anchor="middle" x="667.5" y="-58.5" font-family="FreeSans" font-size="10.00" fill="#000000">Fun4All_G4_sPHENIX</text>
</a>
</g>
</g>
<!-- Node16&#45;&gt;Node20 -->
<g id="edge23" class="edge">
<title>Node16&#45;&gt;Node20</title>
<path fill="none" stroke="#191970" d="M512.0282,-194.649C521.8619,-191.7287 531.425,-187.2657 539,-180.5 573.9186,-149.312 539.7237,-112.2829 575,-81.5 583.9132,-73.7221 595.1297,-68.7372 606.6487,-65.5896"/>
<polygon fill="#191970" stroke="#191970" points="511.0376,-191.2884 502.1679,-197.0832 512.7153,-198.0843 511.0376,-191.2884"/>
</g>
<!-- Node21&#45;&gt;Node12 -->
<g id="edge25" class="edge">
<title>Node21&#45;&gt;Node12</title>
<path fill="none" stroke="#191970" d="M514.299,-247.5208C522.935,-250.2652 531.4869,-253.8412 539,-258.5 559.8944,-271.4564 553.8171,-288.0208 575,-300.5 582.0627,-304.6607 589.8951,-307.921 597.9272,-310.4738"/>
<polygon fill="#191970" stroke="#191970" points="515.1392,-244.1212 504.5638,-244.7624 513.2309,-250.856 515.1392,-244.1212"/>
</g>
<!-- Node21&#45;&gt;Node13 -->
<g id="edge26" class="edge">
<title>Node21&#45;&gt;Node13</title>
<path fill="none" stroke="#191970" d="M514.6119,-249.554C546.6609,-256.041 586.8445,-264.1746 617.9716,-270.475"/>
<polygon fill="#191970" stroke="#191970" points="515.0096,-246.0636 504.514,-247.5101 513.6208,-252.9244 515.0096,-246.0636"/>
</g>
<!-- Node21&#45;&gt;Node14 -->
<g id="edge27" class="edge">
<title>Node21&#45;&gt;Node14</title>
<path fill="none" stroke="#191970" d="M514.713,-237.709C540.1458,-237.3413 570.6843,-236.8997 597.7515,-236.5084"/>
<polygon fill="#191970" stroke="#191970" points="514.4623,-234.2121 504.514,-237.8564 514.5635,-241.2114 514.4623,-234.2121"/>
</g>
<!-- Node21&#45;&gt;Node15 -->
<g id="edge28" class="edge">
<title>Node21&#45;&gt;Node15</title>
<path fill="none" stroke="#191970" d="M514.4171,-245.3408C523.3192,-248.3212 531.9291,-252.541 539,-258.5 569.1246,-283.8872 544.3073,-314.8026 575,-339.5 579.3427,-342.9944 584.1635,-345.8958 589.2588,-348.3"/>
<polygon fill="#191970" stroke="#191970" points="515.2783,-241.9469 504.7018,-242.5697 513.3582,-248.6784 515.2783,-241.9469"/>
</g>
<!-- Node21&#45;&gt;Node17 -->
<g id="edge29" class="edge">
<title>Node21&#45;&gt;Node17</title>
<path fill="none" stroke="#191970" d="M512.1947,-226.0167C521.1399,-223.8573 530.3399,-221.6239 539,-219.5 555.0177,-215.5717 558.938,-214.2432 575,-210.5 589.4012,-207.1439 605.1092,-203.6756 619.4252,-200.5888"/>
<polygon fill="#191970" stroke="#191970" points="511.148,-222.6687 502.2459,-228.4135 512.7875,-229.474 511.148,-222.6687"/>
</g>
<!-- Node21&#45;&gt;Node18 -->
<g id="edge30" class="edge">
<title>Node21&#45;&gt;Node18</title>
<path fill="none" stroke="#191970" d="M514.5532,-230.6447C523.1592,-227.9533 531.6352,-224.3427 539,-219.5 561.2814,-204.849 553.0009,-186.5715 575,-171.5 584.0826,-165.2775 594.6303,-160.5354 605.2838,-156.9238"/>
<polygon fill="#191970" stroke="#191970" points="513.5523,-227.2899 504.8338,-233.3096 515.4033,-234.0407 513.5523,-227.2899"/>
</g>
<!-- Node21&#45;&gt;Node19 -->
<g id="edge31" class="edge">
<title>Node21&#45;&gt;Node19</title>
<path fill="none" stroke="#191970" d="M514.4418,-232.8987C523.4174,-229.981 532.0464,-225.7107 539,-219.5 573.9186,-188.312 539.7237,-151.2829 575,-120.5 580.8184,-115.4228 587.6182,-111.5357 594.8429,-108.5729"/>
<polygon fill="#191970" stroke="#191970" points="513.3632,-229.5648 504.629,-235.5618 515.1967,-236.3204 513.3632,-229.5648"/>
</g>
<!-- Node23 -->
<g id="node23" class="node">
<title>Node23</title>
<g id="a_node23"><a xlink:href="../../d6/d45/classEpFinderEval.html#a2539c184425a5dceabf6a3be79b31e9a" target="_top" xlink:title="EpFinderEval::process\l_event">
<polygon fill="none" stroke="#000000" points="396,-138.5 396,-170.5 524,-170.5 524,-138.5 396,-138.5"/>
<text text-anchor="start" x="404" y="-157.5" font-family="FreeSans" font-size="10.00" fill="#000000">EpFinderEval::process</text>
<text text-anchor="middle" x="460" y="-145.5" font-family="FreeSans" font-size="10.00" fill="#000000">_event</text>
</a>
</g>
</g>
<!-- Node22&#45;&gt;Node23 -->
<g id="edge33" class="edge">
<title>Node22&#45;&gt;Node23</title>
<path fill="none" stroke="#191970" d="M320.0913,-181.5121C344.133,-176.8704 371.6467,-171.5583 395.8778,-166.88"/>
<polygon fill="#191970" stroke="#191970" points="319.1752,-178.1242 310.02,-183.4565 320.5022,-184.9973 319.1752,-178.1242"/>
</g>
<!-- Node25 -->
<g id="node25" class="node">
<title>Node25</title>
<g id="a_node25"><a xlink:href="../../db/db5/classDISKinematicsReco.html#ad801f1794841d3657aa4c0b2da334743" target="_top" xlink:title="DISKinematicsReco::\lInsertCandidateFromCluster">
<polygon fill="none" stroke="#000000" points="381,-45.5 381,-77.5 539,-77.5 539,-45.5 381,-45.5"/>
<text text-anchor="start" x="389" y="-64.5" font-family="FreeSans" font-size="10.00" fill="#000000">DISKinematicsReco::</text>
<text text-anchor="middle" x="460" y="-52.5" font-family="FreeSans" font-size="10.00" fill="#000000">InsertCandidateFromCluster</text>
</a>
</g>
</g>
<!-- Node24&#45;&gt;Node25 -->
<g id="edge35" class="edge">
<title>Node24&#45;&gt;Node25</title>
<path fill="none" stroke="#191970" d="M327.1499,-130.1108C333.2445,-128.0452 339.27,-125.8362 345,-123.5 376.7151,-110.5693 411.0266,-91.322 433.8374,-77.7085"/>
<polygon fill="#191970" stroke="#191970" points="325.9738,-126.8128 317.5484,-133.2364 328.1407,-133.469 325.9738,-126.8128"/>
</g>
<!-- Node26 -->
<g id="node26" class="node">
<title>Node26</title>
<g id="a_node26"><a xlink:href="../../db/db5/classDISKinematicsReco.html#a4ea9fa36ccd955fd7cdfa7e7eaf1e534" target="_top" xlink:title="DISKinematicsReco::\lCollectEmCandidatesFromCluster">
<polygon fill="none" stroke="#000000" points="575,-.5 575,-32.5 760,-32.5 760,-.5 575,-.5"/>
<text text-anchor="start" x="583" y="-19.5" font-family="FreeSans" font-size="10.00" fill="#000000">DISKinematicsReco::</text>
<text text-anchor="middle" x="667.5" y="-7.5" font-family="FreeSans" font-size="10.00" fill="#000000">CollectEmCandidatesFromCluster</text>
</a>
</g>
</g>
<!-- Node25&#45;&gt;Node26 -->
<g id="edge36" class="edge">
<title>Node25&#45;&gt;Node26</title>
<path fill="none" stroke="#191970" d="M544.1134,-43.2585C560.4672,-39.7119 577.4965,-36.0188 593.4951,-32.5493"/>
<polygon fill="#191970" stroke="#191970" points="543.0645,-39.9046 534.0335,-45.4445 544.5481,-46.7456 543.0645,-39.9046"/>
</g>
<!-- Node27 -->
<g id="node27" class="node">
<title>Node27</title>
<g id="a_node27"><a xlink:href="../../db/db5/classDISKinematicsReco.html#a6d03dc93ccee64fd4d931a06dad1ec55" target="_top" xlink:title="DISKinematicsReco::\lprocess_event">
<polygon fill="none" stroke="#000000" points="796,-.5 796,-32.5 916,-32.5 916,-.5 796,-.5"/>
<text text-anchor="start" x="804" y="-19.5" font-family="FreeSans" font-size="10.00" fill="#000000">DISKinematicsReco::</text>
<text text-anchor="middle" x="856" y="-7.5" font-family="FreeSans" font-size="10.00" fill="#000000">process_event</text>
</a>
</g>
</g>
<!-- Node26&#45;&gt;Node27 -->
<g id="edge37" class="edge">
<title>Node26&#45;&gt;Node27</title>
<path fill="none" stroke="#191970" d="M770.3751,-16.5C779.1102,-16.5 787.7457,-16.5 795.9779,-16.5"/>
<polygon fill="#191970" stroke="#191970" points="770.0934,-13.0001 760.0933,-16.5 770.0933,-20.0001 770.0934,-13.0001"/>
</g>
</g>
</svg>
