<?xml version="1.0" encoding="UTF-8" standalone="no"?>
<!DOCTYPE svg PUBLIC "-//W3C//DTD SVG 1.1//EN"
 "http://www.w3.org/Graphics/SVG/1.1/DTD/svg11.dtd">
<!-- Generated by graphviz version 2.40.1 (20161225.0304)
 -->
<!-- Title: PHG4SimpleEventGenerator::set_vertex_distribution_mean Pages: 1 -->
<svg width="453pt" height="998pt"
 viewBox="0.00 0.00 453.00 998.00" xmlns="http://www.w3.org/2000/svg" xmlns:xlink="http://www.w3.org/1999/xlink">
<g id="graph0" class="graph" transform="scale(1 1) rotate(0) translate(4 994)">
<title>PHG4SimpleEventGenerator::set_vertex_distribution_mean</title>
<!-- Node1 -->
<g id="node1" class="node">
<title>Node1</title>
<polygon fill="#bfbfbf" stroke="#000000" points="0,-490.5 0,-522.5 172,-522.5 172,-490.5 0,-490.5"/>
<text text-anchor="start" x="8" y="-509.5" font-family="FreeSans" font-size="10.00" fill="#000000">PHG4SimpleEventGenerator</text>
<text text-anchor="middle" x="86" y="-497.5" font-family="FreeSans" font-size="10.00" fill="#000000">::set_vertex_distribution_mean</text>
</g>
<!-- Node2 -->
<g id="node2" class="node">
<title>Node2</title>
<g id="a_node2"><a xlink:href="../../d3/d7f/Fun_8C.html#ab689f6a95e742654fc06aa27a8486ffd" target="_top" xlink:title="ConfigureInput">
<polygon fill="none" stroke="#000000" points="245.5,-969.5 245.5,-989.5 337.5,-989.5 337.5,-969.5 245.5,-969.5"/>
<text text-anchor="middle" x="291.5" y="-976.5" font-family="FreeSans" font-size="10.00" fill="#000000">ConfigureInput</text>
</a>
</g>
</g>
<!-- Node1&#45;&gt;Node2 -->
<g id="edge1" class="edge">
<title>Node1&#45;&gt;Node2</title>
<path fill="none" stroke="#191970" d="M89.4705,-532.6683C101.5783,-620.036 144.6834,-899.5928 208,-960.5 217.9645,-970.0853 231.7089,-975.2138 245.1719,-977.8586"/>
<polygon fill="#191970" stroke="#191970" points="92.909,-531.9794 88.0879,-522.545 85.9734,-532.9266 92.909,-531.9794"/>
</g>
<!-- Node4 -->
<g id="node4" class="node">
<title>Node4</title>
<g id="a_node4"><a xlink:href="../../db/d89/ConstructGeometry_8C.html#a21c369835643f1016f506a3da3b8d446" target="_top" xlink:title="ConstructGeometry">
<polygon fill="none" stroke="#000000" points="234,-930.5 234,-950.5 349,-950.5 349,-930.5 234,-930.5"/>
<text text-anchor="middle" x="291.5" y="-937.5" font-family="FreeSans" font-size="10.00" fill="#000000">ConstructGeometry</text>
</a>
</g>
</g>
<!-- Node1&#45;&gt;Node4 -->
<g id="edge3" class="edge">
<title>Node1&#45;&gt;Node4</title>
<path fill="none" stroke="#191970" d="M90.1562,-532.5717C103.7829,-614.8213 149.6013,-866.6245 208,-921.5 215.1507,-928.2193 224.1643,-932.7368 233.605,-935.7412"/>
<polygon fill="#191970" stroke="#191970" points="93.5856,-531.8555 88.5172,-522.5517 86.6774,-532.9856 93.5856,-531.8555"/>
</g>
<!-- Node5 -->
<g id="node5" class="node">
<title>Node5</title>
<g id="a_node5"><a xlink:href="../../d2/d47/Fun4All__EICAnalysis__DVCS_8C.html#a84f48142243e969fd353cc8509f0ba22" target="_top" xlink:title="Fun4All_EICAnalysis_DVCS">
<polygon fill="none" stroke="#000000" points="216.5,-891.5 216.5,-911.5 366.5,-911.5 366.5,-891.5 216.5,-891.5"/>
<text text-anchor="middle" x="291.5" y="-898.5" font-family="FreeSans" font-size="10.00" fill="#000000">Fun4All_EICAnalysis_DVCS</text>
</a>
</g>
</g>
<!-- Node1&#45;&gt;Node5 -->
<g id="edge4" class="edge">
<title>Node1&#45;&gt;Node5</title>
<path fill="none" stroke="#191970" d="M91.0136,-532.663C106.2976,-609.7455 154.5338,-833.6422 208,-882.5 211.8412,-886.0101 216.1929,-888.9156 220.8437,-891.3162"/>
<polygon fill="#191970" stroke="#191970" points="94.4374,-531.9339 89.0785,-522.7942 87.5682,-533.2808 94.4374,-531.9339"/>
</g>
<!-- Node6 -->
<g id="node6" class="node">
<title>Node6</title>
<g id="a_node6"><a xlink:href="../../da/d02/Fun4All__G4__EICDetector_8C.html#afbe82cefa1d1fd031d9a8586b7bb68c6" target="_top" xlink:title="Fun4All_G4_EICDetector">
<polygon fill="none" stroke="#000000" points="222,-852.5 222,-872.5 361,-872.5 361,-852.5 222,-852.5"/>
<text text-anchor="middle" x="291.5" y="-859.5" font-family="FreeSans" font-size="10.00" fill="#000000">Fun4All_G4_EICDetector</text>
</a>
</g>
</g>
<!-- Node1&#45;&gt;Node6 -->
<g id="edge5" class="edge">
<title>Node1&#45;&gt;Node6</title>
<path fill="none" stroke="#191970" d="M87.3332,-532.8708C92.0398,-596.578 113.2248,-759.7709 208,-843.5 212.1225,-847.142 216.7976,-850.1281 221.7794,-852.5719"/>
<polygon fill="#191970" stroke="#191970" points="90.8227,-532.5951 86.6707,-522.8477 83.8379,-533.0568 90.8227,-532.5951"/>
</g>
<!-- Node7 -->
<g id="node7" class="node">
<title>Node7</title>
<g id="a_node7"><a xlink:href="../../dd/d2a/Fun4All__G4__EICDetector__LQ_8C.html#aaa01242fd6e77ca43a9d49a6d46008e4" target="_top" xlink:title="Fun4All_G4_EICDetector_LQ">
<polygon fill="none" stroke="#000000" points="213.5,-813.5 213.5,-833.5 369.5,-833.5 369.5,-813.5 213.5,-813.5"/>
<text text-anchor="middle" x="291.5" y="-820.5" font-family="FreeSans" font-size="10.00" fill="#000000">Fun4All_G4_EICDetector_LQ</text>
</a>
</g>
</g>
<!-- Node1&#45;&gt;Node7 -->
<g id="edge6" class="edge">
<title>Node1&#45;&gt;Node7</title>
<path fill="none" stroke="#191970" d="M88.7557,-532.9854C96.3153,-591.5085 122.8557,-732.3497 208,-804.5 212.1967,-808.0562 216.9245,-810.9814 221.9423,-813.3836"/>
<polygon fill="#191970" stroke="#191970" points="92.1919,-532.2454 87.52,-522.7363 85.2423,-533.0834 92.1919,-532.2454"/>
</g>
<!-- Node8 -->
<g id="node8" class="node">
<title>Node8</title>
<g id="a_node8"><a xlink:href="../../d4/df5/Fun4All__G4__EICDetector__LQ__reference_8C.html#a2feefc472f17f90b3cbe74897d049f75" target="_top" xlink:title="Fun4All_G4_EICDetector\l_LQ_reference">
<polygon fill="none" stroke="#000000" points="222,-762.5 222,-794.5 361,-794.5 361,-762.5 222,-762.5"/>
<text text-anchor="start" x="230" y="-781.5" font-family="FreeSans" font-size="10.00" fill="#000000">Fun4All_G4_EICDetector</text>
<text text-anchor="middle" x="291.5" y="-769.5" font-family="FreeSans" font-size="10.00" fill="#000000">_LQ_reference</text>
</a>
</g>
</g>
<!-- Node1&#45;&gt;Node8 -->
<g id="edge7" class="edge">
<title>Node1&#45;&gt;Node8</title>
<path fill="none" stroke="#191970" d="M91.5703,-532.5795C103.6816,-582.8998 137.2012,-693.6897 208,-753.5 212.1614,-757.0156 216.8037,-760.0367 221.7093,-762.6331"/>
<polygon fill="#191970" stroke="#191970" points="94.9078,-531.4772 89.2438,-522.5235 88.088,-533.055 94.9078,-531.4772"/>
</g>
<!-- Node9 -->
<g id="node9" class="node">
<title>Node9</title>
<g id="a_node9"><a xlink:href="../../d3/d51/Fun4All__G4__EICDetector__RICH_8C.html#a5739502b0a7a1ba782c01069f77e933f" target="_top" xlink:title="Fun4All_G4_EICDetector_RICH">
<polygon fill="none" stroke="#000000" points="208,-723.5 208,-743.5 375,-743.5 375,-723.5 208,-723.5"/>
<text text-anchor="middle" x="291.5" y="-730.5" font-family="FreeSans" font-size="10.00" fill="#000000">Fun4All_G4_EICDetector_RICH</text>
</a>
</g>
</g>
<!-- Node1&#45;&gt;Node9 -->
<g id="edge8" class="edge">
<title>Node1&#45;&gt;Node9</title>
<path fill="none" stroke="#191970" d="M93.6097,-532.278C108.1407,-576.795 144.2083,-667.7895 208,-714.5 212.918,-718.1011 218.4025,-721.0362 224.1459,-723.426"/>
<polygon fill="#191970" stroke="#191970" points="96.8755,-530.9965 90.527,-522.5143 90.2003,-533.1041 96.8755,-530.9965"/>
</g>
<!-- Node10 -->
<g id="node10" class="node">
<title>Node10</title>
<g id="a_node10"><a xlink:href="../../d7/d9e/Fun4All__G4__fsPHENIX_8C.html#af48911d394d2412e817583700f2bbee2" target="_top" xlink:title="Fun4All_G4_fsPHENIX">
<polygon fill="none" stroke="#000000" points="229.5,-684.5 229.5,-704.5 353.5,-704.5 353.5,-684.5 229.5,-684.5"/>
<text text-anchor="middle" x="291.5" y="-691.5" font-family="FreeSans" font-size="10.00" fill="#000000">Fun4All_G4_fsPHENIX</text>
</a>
</g>
</g>
<!-- Node1&#45;&gt;Node10 -->
<g id="edge9" class="edge">
<title>Node1&#45;&gt;Node10</title>
<path fill="none" stroke="#191970" d="M96.9919,-531.7382C114.6884,-569.2551 153.1518,-639.201 208,-675.5 214.4469,-679.7666 221.7199,-683.0838 229.2175,-685.6614"/>
<polygon fill="#191970" stroke="#191970" points="100.1046,-530.1294 92.7484,-522.5045 93.7441,-533.0525 100.1046,-530.1294"/>
</g>
<!-- Node11 -->
<g id="node11" class="node">
<title>Node11</title>
<g id="a_node11"><a xlink:href="../../da/d2f/Fun4All__G4__fsPHENIX__FastSim_8C.html#a66fb850cae5fcaadda23b74a25ce4c9c" target="_top" xlink:title="Fun4All_G4_fsPHENIX\l_FastSim">
<polygon fill="none" stroke="#000000" points="229.5,-633.5 229.5,-665.5 353.5,-665.5 353.5,-633.5 229.5,-633.5"/>
<text text-anchor="start" x="237.5" y="-652.5" font-family="FreeSans" font-size="10.00" fill="#000000">Fun4All_G4_fsPHENIX</text>
<text text-anchor="middle" x="291.5" y="-640.5" font-family="FreeSans" font-size="10.00" fill="#000000">_FastSim</text>
</a>
</g>
</g>
<!-- Node1&#45;&gt;Node11 -->
<g id="edge10" class="edge">
<title>Node1&#45;&gt;Node11</title>
<path fill="none" stroke="#191970" d="M104.971,-530.8173C127.01,-557.4868 165.7834,-599.7748 208,-624.5 214.6594,-628.4002 221.9794,-631.7387 229.4325,-634.5844"/>
<polygon fill="#191970" stroke="#191970" points="107.4408,-528.3064 98.4204,-522.7492 102.0065,-532.7187 107.4408,-528.3064"/>
</g>
<!-- Node12 -->
<g id="node12" class="node">
<title>Node12</title>
<g id="a_node12"><a xlink:href="../../d0/da6/Fun4All__G4__fsPHENIX__pi0_8C.html#a023d91d47b678e5d7f1751834aa517c6" target="_top" xlink:title="Fun4All_G4_fsPHENIX_pi0">
<polygon fill="none" stroke="#000000" points="219,-594.5 219,-614.5 364,-614.5 364,-594.5 219,-594.5"/>
<text text-anchor="middle" x="291.5" y="-601.5" font-family="FreeSans" font-size="10.00" fill="#000000">Fun4All_G4_fsPHENIX_pi0</text>
</a>
</g>
</g>
<!-- Node1&#45;&gt;Node12 -->
<g id="edge11" class="edge">
<title>Node1&#45;&gt;Node12</title>
<path fill="none" stroke="#191970" d="M114.0946,-528.8032C137.84,-546.609 173.4201,-570.9128 208,-585.5 216.4929,-589.0826 225.7697,-592.0444 234.9526,-594.4758"/>
<polygon fill="#191970" stroke="#191970" points="115.9818,-525.841 105.9055,-522.5671 111.7409,-531.4101 115.9818,-525.841"/>
</g>
<!-- Node13 -->
<g id="node13" class="node">
<title>Node13</title>
<g id="a_node13"><a xlink:href="../../dc/d8e/Fun4All__G4__Prototype2_8C.html#a6b8f092c4f51be2938dd09c810ba6226" target="_top" xlink:title="Fun4All_G4_Prototype2">
<polygon fill="none" stroke="#000000" points="225,-555.5 225,-575.5 358,-575.5 358,-555.5 225,-555.5"/>
<text text-anchor="middle" x="291.5" y="-562.5" font-family="FreeSans" font-size="10.00" fill="#000000">Fun4All_G4_Prototype2</text>
</a>
</g>
</g>
<!-- Node1&#45;&gt;Node13 -->
<g id="edge12" class="edge">
<title>Node1&#45;&gt;Node13</title>
<path fill="none" stroke="#191970" d="M141.0989,-525.7709C161.9301,-532.7377 185.9327,-540.3861 208,-546.5 219.4619,-549.6756 231.9144,-552.722 243.619,-555.4097"/>
<polygon fill="#191970" stroke="#191970" points="142.0548,-522.3997 131.4607,-522.521 139.8182,-529.0328 142.0548,-522.3997"/>
</g>
<!-- Node14 -->
<g id="node14" class="node">
<title>Node14</title>
<g id="a_node14"><a xlink:href="../../d7/d40/Fun4All__G4__Prototype3_8C.html#a1201361263017b08a070777a0b90b27c" target="_top" xlink:title="Fun4All_G4_Prototype3">
<polygon fill="none" stroke="#000000" points="225,-516.5 225,-536.5 358,-536.5 358,-516.5 225,-516.5"/>
<text text-anchor="middle" x="291.5" y="-523.5" font-family="FreeSans" font-size="10.00" fill="#000000">Fun4All_G4_Prototype3</text>
</a>
</g>
</g>
<!-- Node1&#45;&gt;Node14 -->
<g id="edge13" class="edge">
<title>Node1&#45;&gt;Node14</title>
<path fill="none" stroke="#191970" d="M182.6144,-515.9029C196.8985,-517.293 211.3413,-518.6987 224.8333,-520.0118"/>
<polygon fill="#191970" stroke="#191970" points="182.5493,-512.3801 172.2573,-514.8949 181.8712,-519.3472 182.5493,-512.3801"/>
</g>
<!-- Node15 -->
<g id="node15" class="node">
<title>Node15</title>
<g id="a_node15"><a xlink:href="../../d4/d58/Fun4All__G4__Prototype4_8C.html#acac517f0728af658cbf99c7c9687c908" target="_top" xlink:title="Fun4All_G4_Prototype4">
<polygon fill="none" stroke="#000000" points="225,-477.5 225,-497.5 358,-497.5 358,-477.5 225,-477.5"/>
<text text-anchor="middle" x="291.5" y="-484.5" font-family="FreeSans" font-size="10.00" fill="#000000">Fun4All_G4_Prototype4</text>
</a>
</g>
</g>
<!-- Node1&#45;&gt;Node15 -->
<g id="edge14" class="edge">
<title>Node1&#45;&gt;Node15</title>
<path fill="none" stroke="#191970" d="M182.6144,-497.5673C196.8985,-496.2466 211.3413,-494.9113 224.8333,-493.6638"/>
<polygon fill="#191970" stroke="#191970" points="181.8926,-494.119 172.2573,-498.5249 182.5371,-501.0893 181.8926,-494.119"/>
</g>
<!-- Node16 -->
<g id="node16" class="node">
<title>Node16</title>
<g id="a_node16"><a xlink:href="../../d5/d2c/macros_2blob_2master_2macros_2g4simulations_2Fun4All__G4__sPHENIX_8C.html#a6eaaa492d7023ec86c562dc63aa1e5a4" target="_top" xlink:title="Fun4All_G4_sPHENIX">
<polygon fill="none" stroke="#000000" points="231,-438.5 231,-458.5 352,-458.5 352,-438.5 231,-438.5"/>
<text text-anchor="middle" x="291.5" y="-445.5" font-family="FreeSans" font-size="10.00" fill="#000000">Fun4All_G4_sPHENIX</text>
</a>
</g>
</g>
<!-- Node1&#45;&gt;Node16 -->
<g id="edge15" class="edge">
<title>Node1&#45;&gt;Node16</title>
<path fill="none" stroke="#191970" d="M144.3832,-487.4444C164.4615,-481.1234 187.1372,-474.2408 208,-468.5 220.6477,-465.0198 234.4668,-461.5689 247.1575,-458.5385"/>
<polygon fill="#191970" stroke="#191970" points="143.2305,-484.138 134.7545,-490.4948 145.3446,-490.8112 143.2305,-484.138"/>
</g>
<!-- Node17 -->
<g id="node17" class="node">
<title>Node17</title>
<g id="a_node17"><a xlink:href="../../d3/de2/Fun4All__G4__sPHENIX__AnaGenFit_8C.html#a9bf3f2f72ed69a17e2d0c1121d48013c" target="_top" xlink:title="Fun4All_G4_sPHENIX\l_AnaGenFit">
<polygon fill="none" stroke="#000000" points="231,-387.5 231,-419.5 352,-419.5 352,-387.5 231,-387.5"/>
<text text-anchor="start" x="239" y="-406.5" font-family="FreeSans" font-size="10.00" fill="#000000">Fun4All_G4_sPHENIX</text>
<text text-anchor="middle" x="291.5" y="-394.5" font-family="FreeSans" font-size="10.00" fill="#000000">_AnaGenFit</text>
</a>
</g>
</g>
<!-- Node1&#45;&gt;Node17 -->
<g id="edge16" class="edge">
<title>Node1&#45;&gt;Node17</title>
<path fill="none" stroke="#191970" d="M115.7967,-484.5776C139.7561,-467.7342 174.7842,-444.8315 208,-429.5 215.8577,-425.8731 224.3558,-422.5724 232.8197,-419.6323"/>
<polygon fill="#191970" stroke="#191970" points="113.614,-481.835 107.4942,-490.4836 117.6716,-487.539 113.614,-481.835"/>
</g>
<!-- Node18 -->
<g id="node18" class="node">
<title>Node18</title>
<g id="a_node18"><a xlink:href="../../da/dd0/Fun4All__G4__sPHENIX__photonjet_8C.html#a6f18519e216acc05399e562ea57ea77c" target="_top" xlink:title="Fun4All_G4_sPHENIX\l_photonjet">
<polygon fill="none" stroke="#000000" points="231,-336.5 231,-368.5 352,-368.5 352,-336.5 231,-336.5"/>
<text text-anchor="start" x="239" y="-355.5" font-family="FreeSans" font-size="10.00" fill="#000000">Fun4All_G4_sPHENIX</text>
<text text-anchor="middle" x="291.5" y="-343.5" font-family="FreeSans" font-size="10.00" fill="#000000">_photonjet</text>
</a>
</g>
</g>
<!-- Node1&#45;&gt;Node18 -->
<g id="edge17" class="edge">
<title>Node1&#45;&gt;Node18</title>
<path fill="none" stroke="#191970" d="M103.2438,-481.9195C124.6564,-453.1448 163.8006,-405.9423 208,-378.5 214.9655,-374.1753 222.7077,-370.5182 230.5891,-367.4395"/>
<polygon fill="#191970" stroke="#191970" points="100.2556,-480.0765 97.1818,-490.2157 105.9076,-484.2064 100.2556,-480.0765"/>
</g>
<!-- Node19 -->
<g id="node19" class="node">
<title>Node19</title>
<g id="a_node19"><a xlink:href="../../da/d85/Fun4All__G4__sPHENIX__photons_8C.html#a02fbbd59878fe1299f58ed187e7214ba" target="_top" xlink:title="Fun4All_G4_sPHENIX\l_photons">
<polygon fill="none" stroke="#000000" points="231,-285.5 231,-317.5 352,-317.5 352,-285.5 231,-285.5"/>
<text text-anchor="start" x="239" y="-304.5" font-family="FreeSans" font-size="10.00" fill="#000000">Fun4All_G4_sPHENIX</text>
<text text-anchor="middle" x="291.5" y="-292.5" font-family="FreeSans" font-size="10.00" fill="#000000">_photons</text>
</a>
</g>
</g>
<!-- Node1&#45;&gt;Node19 -->
<g id="edge18" class="edge">
<title>Node1&#45;&gt;Node19</title>
<path fill="none" stroke="#191970" d="M96.7024,-480.9173C114.2466,-442.0597 152.7811,-368.3736 208,-327.5 214.834,-322.4414 222.6737,-318.3518 230.7521,-315.0494"/>
<polygon fill="#191970" stroke="#191970" points="93.3309,-479.8892 92.5049,-490.4518 99.7375,-482.7097 93.3309,-479.8892"/>
</g>
<!-- Node20 -->
<g id="node20" class="node">
<title>Node20</title>
<g id="a_node20"><a xlink:href="../../de/d55/Fun4All__G4__sPHENIX__truthphotonjet_8C.html#a48a6f4503eaa1b3793d8ae572aa795b9" target="_top" xlink:title="Fun4All_G4_sPHENIX\l_truthphotonjet">
<polygon fill="none" stroke="#000000" points="231,-234.5 231,-266.5 352,-266.5 352,-234.5 231,-234.5"/>
<text text-anchor="start" x="239" y="-253.5" font-family="FreeSans" font-size="10.00" fill="#000000">Fun4All_G4_sPHENIX</text>
<text text-anchor="middle" x="291.5" y="-241.5" font-family="FreeSans" font-size="10.00" fill="#000000">_truthphotonjet</text>
</a>
</g>
</g>
<!-- Node1&#45;&gt;Node20 -->
<g id="edge19" class="edge">
<title>Node1&#45;&gt;Node20</title>
<path fill="none" stroke="#191970" d="M92.6406,-480.5918C106.1554,-433.066 141.3735,-331.7676 208,-276.5 214.6609,-270.9747 222.4953,-266.6209 230.6502,-263.1908"/>
<polygon fill="#191970" stroke="#191970" points="89.2177,-479.8391 89.9424,-490.4091 95.9674,-481.6942 89.2177,-479.8391"/>
</g>
<!-- Node21 -->
<g id="node21" class="node">
<title>Node21</title>
<g id="a_node21"><a xlink:href="../../db/da1/Fun4All__G4__TPC_8C.html#af60bcd3cf09ebd567e28ede14e9e894a" target="_top" xlink:title="Fun4All_G4_TPC">
<polygon fill="none" stroke="#000000" points="243,-195.5 243,-215.5 340,-215.5 340,-195.5 243,-195.5"/>
<text text-anchor="middle" x="291.5" y="-202.5" font-family="FreeSans" font-size="10.00" fill="#000000">Fun4All_G4_TPC</text>
</a>
</g>
</g>
<!-- Node1&#45;&gt;Node21 -->
<g id="edge20" class="edge">
<title>Node1&#45;&gt;Node21</title>
<path fill="none" stroke="#191970" d="M89.5527,-480.0287C98.5211,-424.0193 127.4088,-293.1253 208,-225.5 217.8203,-217.2596 230.466,-212.2986 242.9303,-209.3437"/>
<polygon fill="#191970" stroke="#191970" points="86.0505,-479.7801 88.0152,-490.1912 92.9718,-480.8273 86.0505,-479.7801"/>
</g>
<!-- Node22 -->
<g id="node22" class="node">
<title>Node22</title>
<g id="a_node22"><a xlink:href="../../da/db5/Fun4All__G4__W_8C.html#ad4745423f42356b6b3cb65bbbc1e917e" target="_top" xlink:title="Fun4All_G4_W">
<polygon fill="none" stroke="#000000" points="247.5,-156.5 247.5,-176.5 335.5,-176.5 335.5,-156.5 247.5,-156.5"/>
<text text-anchor="middle" x="291.5" y="-163.5" font-family="FreeSans" font-size="10.00" fill="#000000">Fun4All_G4_W</text>
</a>
</g>
</g>
<!-- Node1&#45;&gt;Node22 -->
<g id="edge21" class="edge">
<title>Node1&#45;&gt;Node22</title>
<path fill="none" stroke="#191970" d="M87.9619,-480.2627C94.0042,-418.9954 117.8265,-265.72 208,-186.5 218.8628,-176.9568 233.4817,-171.7741 247.4507,-169.0176"/>
<polygon fill="#191970" stroke="#191970" points="84.4721,-479.9924 87.0553,-490.2674 91.4436,-480.6241 84.4721,-479.9924"/>
</g>
<!-- Node23 -->
<g id="node23" class="node">
<title>Node23</title>
<g id="a_node23"><a xlink:href="../../d4/dfa/Fun4All__Generator__Display_8C.html#af87924a94b22e18901f0d64805565f09" target="_top" xlink:title="Fun4All_Generator_Display">
<polygon fill="none" stroke="#000000" points="215.5,-117.5 215.5,-137.5 367.5,-137.5 367.5,-117.5 215.5,-117.5"/>
<text text-anchor="middle" x="291.5" y="-124.5" font-family="FreeSans" font-size="10.00" fill="#000000">Fun4All_Generator_Display</text>
</a>
</g>
</g>
<!-- Node1&#45;&gt;Node23 -->
<g id="edge22" class="edge">
<title>Node1&#45;&gt;Node23</title>
<path fill="none" stroke="#191970" d="M91.5258,-480.0681C107.6942,-405.1791 156.9947,-193.993 208,-147.5 212.4066,-143.4832 217.4748,-140.2334 222.8901,-137.6089"/>
<polygon fill="#191970" stroke="#191970" points="88.0508,-479.582 89.3845,-490.0925 94.8964,-481.0443 88.0508,-479.582"/>
</g>
<!-- Node24 -->
<g id="node24" class="node">
<title>Node24</title>
<g id="a_node24"><a xlink:href="../../d4/d65/Fun4All__single__particle_8C.html#a8a492b5dbead494bfdddbebde8a49b0e" target="_top" xlink:title="Fun4All_single_particle">
<polygon fill="none" stroke="#000000" points="225.5,-78.5 225.5,-98.5 357.5,-98.5 357.5,-78.5 225.5,-78.5"/>
<text text-anchor="middle" x="291.5" y="-85.5" font-family="FreeSans" font-size="10.00" fill="#000000">Fun4All_single_particle</text>
</a>
</g>
</g>
<!-- Node1&#45;&gt;Node24 -->
<g id="edge23" class="edge">
<title>Node1&#45;&gt;Node24</title>
<path fill="none" stroke="#191970" d="M90.6196,-479.9494C105.1294,-399.5376 152.1615,-160.9613 208,-108.5 212.9974,-103.8048 218.8949,-100.1512 225.2076,-97.3165"/>
<polygon fill="#191970" stroke="#191970" points="87.0998,-479.7513 88.7905,-490.2103 93.9912,-480.9798 87.0998,-479.7513"/>
</g>
<!-- Node25 -->
<g id="node25" class="node">
<title>Node25</title>
<g id="a_node25"><a xlink:href="../../d0/d99/Jin__BJet_8C.html#a36169bfee2ed7efda633944d12aebad9" target="_top" xlink:title="Jin_BJet">
<polygon fill="none" stroke="#000000" points="264,-39.5 264,-59.5 319,-59.5 319,-39.5 264,-39.5"/>
<text text-anchor="middle" x="291.5" y="-46.5" font-family="FreeSans" font-size="10.00" fill="#000000">Jin_BJet</text>
</a>
</g>
</g>
<!-- Node1&#45;&gt;Node25 -->
<g id="edge24" class="edge">
<title>Node1&#45;&gt;Node25</title>
<path fill="none" stroke="#191970" d="M89.8127,-480.1932C102.6939,-394.8892 147.2117,-128.0708 208,-69.5 222.7063,-55.3302 245.586,-50.5987 263.6792,-49.2616"/>
<polygon fill="#191970" stroke="#191970" points="86.3468,-479.7052 88.3347,-490.1119 93.2704,-480.737 86.3468,-479.7052"/>
</g>
<!-- Node26 -->
<g id="node26" class="node">
<title>Node26</title>
<g id="a_node26"><a xlink:href="../../dd/db1/Wrapper_8cxx.html#abf1e42281903daa0752c80dd6c879fac" target="_top" xlink:title="Wrapper">
<polygon fill="none" stroke="#000000" points="261.5,-.5 261.5,-20.5 321.5,-20.5 321.5,-.5 261.5,-.5"/>
<text text-anchor="middle" x="291.5" y="-7.5" font-family="FreeSans" font-size="10.00" fill="#000000">Wrapper</text>
</a>
</g>
</g>
<!-- Node1&#45;&gt;Node26 -->
<g id="edge25" class="edge">
<title>Node1&#45;&gt;Node26</title>
<path fill="none" stroke="#191970" d="M89.1589,-480.2918C100.5378,-390.1992 142.2676,-95.2013 208,-30.5 221.9168,-16.8015 243.4556,-11.8854 261.1716,-10.3506"/>
<polygon fill="#191970" stroke="#191970" points="85.6549,-480.1084 87.894,-490.4639 92.6014,-480.9722 85.6549,-480.1084"/>
</g>
<!-- Node3 -->
<g id="node3" class="node">
<title>Node3</title>
<g id="a_node3"><a xlink:href="../../d3/d7f/Fun_8C.html#af69a3eef3ff244bb51f5740c6ecb5432" target="_top" xlink:title="Fun">
<polygon fill="none" stroke="#000000" points="411,-969.5 411,-989.5 445,-989.5 445,-969.5 411,-969.5"/>
<text text-anchor="middle" x="428" y="-976.5" font-family="FreeSans" font-size="10.00" fill="#000000">Fun</text>
</a>
</g>
</g>
<!-- Node2&#45;&gt;Node3 -->
<g id="edge2" class="edge">
<title>Node2&#45;&gt;Node3</title>
<path fill="none" stroke="#191970" d="M347.9593,-979.5C370.616,-979.5 395.0605,-979.5 410.8935,-979.5"/>
<polygon fill="#191970" stroke="#191970" points="347.7127,-976.0001 337.7127,-979.5 347.7126,-983.0001 347.7127,-976.0001"/>
</g>
</g>
</svg>
