<?xml version="1.0" encoding="UTF-8" standalone="no"?>
<!DOCTYPE svg PUBLIC "-//W3C//DTD SVG 1.1//EN"
 "http://www.w3.org/Graphics/SVG/1.1/DTD/svg11.dtd">
<!-- Generated by graphviz version 2.40.1 (20161225.0304)
 -->
<!-- Title: PHG4SimpleEventGenerator::set_vertex_size_function Pages: 1 -->
<svg width="441pt" height="803pt"
 viewBox="0.00 0.00 441.00 803.00" xmlns="http://www.w3.org/2000/svg" xmlns:xlink="http://www.w3.org/1999/xlink">
<g id="graph0" class="graph" transform="scale(1 1) rotate(0) translate(4 799)">
<title>PHG4SimpleEventGenerator::set_vertex_size_function</title>
<!-- Node1 -->
<g id="node1" class="node">
<title>Node1</title>
<polygon fill="#bfbfbf" stroke="#000000" points="0,-393.5 0,-425.5 160,-425.5 160,-393.5 0,-393.5"/>
<text text-anchor="start" x="8" y="-412.5" font-family="FreeSans" font-size="10.00" fill="#000000">PHG4SimpleEventGenerator</text>
<text text-anchor="middle" x="80" y="-400.5" font-family="FreeSans" font-size="10.00" fill="#000000">::set_vertex_size_function</text>
</g>
<!-- Node2 -->
<g id="node2" class="node">
<title>Node2</title>
<g id="a_node2"><a xlink:href="../../d3/d7f/Fun_8C.html#ab689f6a95e742654fc06aa27a8486ffd" target="_top" xlink:title="ConfigureInput">
<polygon fill="none" stroke="#000000" points="233.5,-774.5 233.5,-794.5 325.5,-794.5 325.5,-774.5 233.5,-774.5"/>
<text text-anchor="middle" x="279.5" y="-781.5" font-family="FreeSans" font-size="10.00" fill="#000000">ConfigureInput</text>
</a>
</g>
</g>
<!-- Node1&#45;&gt;Node2 -->
<g id="edge1" class="edge">
<title>Node1&#45;&gt;Node2</title>
<path fill="none" stroke="#191970" d="M85.0732,-435.7269C99.9608,-510.0327 145.6609,-719.5572 196,-765.5 206.2125,-774.8206 220.0248,-779.8767 233.4735,-782.5366"/>
<polygon fill="#191970" stroke="#191970" points="88.4795,-434.91 83.1034,-425.7805 81.6128,-436.2699 88.4795,-434.91"/>
</g>
<!-- Node4 -->
<g id="node4" class="node">
<title>Node4</title>
<g id="a_node4"><a xlink:href="../../d2/d47/Fun4All__EICAnalysis__DVCS_8C.html#a84f48142243e969fd353cc8509f0ba22" target="_top" xlink:title="Fun4All_EICAnalysis_DVCS">
<polygon fill="none" stroke="#000000" points="204.5,-735.5 204.5,-755.5 354.5,-755.5 354.5,-735.5 204.5,-735.5"/>
<text text-anchor="middle" x="279.5" y="-742.5" font-family="FreeSans" font-size="10.00" fill="#000000">Fun4All_EICAnalysis_DVCS</text>
</a>
</g>
</g>
<!-- Node1&#45;&gt;Node4 -->
<g id="edge3" class="edge">
<title>Node1&#45;&gt;Node4</title>
<path fill="none" stroke="#191970" d="M81.4854,-435.9103C86.4033,-496.9405 107.3847,-648.485 196,-726.5 200.0172,-730.0366 204.5558,-732.9543 209.3897,-735.3572"/>
<polygon fill="#191970" stroke="#191970" points="84.9526,-435.328 80.7414,-425.6061 77.9708,-435.8322 84.9526,-435.328"/>
</g>
<!-- Node5 -->
<g id="node5" class="node">
<title>Node5</title>
<g id="a_node5"><a xlink:href="../../da/d02/Fun4All__G4__EICDetector_8C.html#afbe82cefa1d1fd031d9a8586b7bb68c6" target="_top" xlink:title="Fun4All_G4_EICDetector">
<polygon fill="none" stroke="#000000" points="210,-696.5 210,-716.5 349,-716.5 349,-696.5 210,-696.5"/>
<text text-anchor="middle" x="279.5" y="-703.5" font-family="FreeSans" font-size="10.00" fill="#000000">Fun4All_G4_EICDetector</text>
</a>
</g>
</g>
<!-- Node1&#45;&gt;Node5 -->
<g id="edge4" class="edge">
<title>Node1&#45;&gt;Node5</title>
<path fill="none" stroke="#191970" d="M82.9872,-435.7336C90.7594,-491.2317 116.8514,-620.8861 196,-687.5 200.2086,-691.0421 204.9449,-693.9572 209.9685,-696.3526"/>
<polygon fill="#191970" stroke="#191970" points="86.4373,-435.1234 81.6668,-425.6633 79.4967,-436.0335 86.4373,-435.1234"/>
</g>
<!-- Node6 -->
<g id="node6" class="node">
<title>Node6</title>
<g id="a_node6"><a xlink:href="../../dd/d2a/Fun4All__G4__EICDetector__LQ_8C.html#aaa01242fd6e77ca43a9d49a6d46008e4" target="_top" xlink:title="Fun4All_G4_EICDetector_LQ">
<polygon fill="none" stroke="#000000" points="201.5,-657.5 201.5,-677.5 357.5,-677.5 357.5,-657.5 201.5,-657.5"/>
<text text-anchor="middle" x="279.5" y="-664.5" font-family="FreeSans" font-size="10.00" fill="#000000">Fun4All_G4_EICDetector_LQ</text>
</a>
</g>
</g>
<!-- Node1&#45;&gt;Node6 -->
<g id="edge5" class="edge">
<title>Node1&#45;&gt;Node6</title>
<path fill="none" stroke="#191970" d="M84.9018,-435.4958C95.664,-485.0535 126.1875,-593.039 196,-648.5 200.5399,-652.1066 205.6345,-655.0553 211.0094,-657.4629"/>
<polygon fill="#191970" stroke="#191970" points="88.302,-434.6553 82.8442,-425.5745 81.4479,-436.0769 88.302,-434.6553"/>
</g>
<!-- Node7 -->
<g id="node7" class="node">
<title>Node7</title>
<g id="a_node7"><a xlink:href="../../d4/df5/Fun4All__G4__EICDetector__LQ__reference_8C.html#a2feefc472f17f90b3cbe74897d049f75" target="_top" xlink:title="Fun4All_G4_EICDetector\l_LQ_reference">
<polygon fill="none" stroke="#000000" points="210,-606.5 210,-638.5 349,-638.5 349,-606.5 210,-606.5"/>
<text text-anchor="start" x="218" y="-625.5" font-family="FreeSans" font-size="10.00" fill="#000000">Fun4All_G4_EICDetector</text>
<text text-anchor="middle" x="279.5" y="-613.5" font-family="FreeSans" font-size="10.00" fill="#000000">_LQ_reference</text>
</a>
</g>
</g>
<!-- Node1&#45;&gt;Node7 -->
<g id="edge6" class="edge">
<title>Node1&#45;&gt;Node7</title>
<path fill="none" stroke="#191970" d="M88.8697,-435.003C104.2595,-475.5042 139.7577,-554.3498 196,-597.5 200.4422,-600.9081 205.3446,-603.8533 210.4813,-606.3982"/>
<polygon fill="#191970" stroke="#191970" points="92.1367,-433.7462 85.3899,-425.5773 85.5699,-436.1706 92.1367,-433.7462"/>
</g>
<!-- Node8 -->
<g id="node8" class="node">
<title>Node8</title>
<g id="a_node8"><a xlink:href="../../d3/d51/Fun4All__G4__EICDetector__RICH_8C.html#a5739502b0a7a1ba782c01069f77e933f" target="_top" xlink:title="Fun4All_G4_EICDetector_RICH">
<polygon fill="none" stroke="#000000" points="196,-567.5 196,-587.5 363,-587.5 363,-567.5 196,-567.5"/>
<text text-anchor="middle" x="279.5" y="-574.5" font-family="FreeSans" font-size="10.00" fill="#000000">Fun4All_G4_EICDetector_RICH</text>
</a>
</g>
</g>
<!-- Node1&#45;&gt;Node8 -->
<g id="edge7" class="edge">
<title>Node1&#45;&gt;Node8</title>
<path fill="none" stroke="#191970" d="M92.7463,-435.1817C110.8853,-468.9474 147.4095,-527.5936 196,-558.5 201.645,-562.0906 207.8856,-565.0059 214.3378,-567.3725"/>
<polygon fill="#191970" stroke="#191970" points="95.6574,-433.196 87.9182,-425.9603 89.456,-436.443 95.6574,-433.196"/>
</g>
<!-- Node9 -->
<g id="node9" class="node">
<title>Node9</title>
<g id="a_node9"><a xlink:href="../../d7/d9e/Fun4All__G4__fsPHENIX_8C.html#af48911d394d2412e817583700f2bbee2" target="_top" xlink:title="Fun4All_G4_fsPHENIX">
<polygon fill="none" stroke="#000000" points="217.5,-528.5 217.5,-548.5 341.5,-548.5 341.5,-528.5 217.5,-528.5"/>
<text text-anchor="middle" x="279.5" y="-535.5" font-family="FreeSans" font-size="10.00" fill="#000000">Fun4All_G4_fsPHENIX</text>
</a>
</g>
</g>
<!-- Node1&#45;&gt;Node9 -->
<g id="edge8" class="edge">
<title>Node1&#45;&gt;Node9</title>
<path fill="none" stroke="#191970" d="M98.8127,-433.8137C119.7627,-459.1529 155.9857,-498.0902 196,-519.5 202.8165,-523.1472 210.309,-526.0966 217.9216,-528.4813"/>
<polygon fill="#191970" stroke="#191970" points="101.3243,-431.3538 92.31,-425.7866 95.8851,-435.7601 101.3243,-431.3538"/>
</g>
<!-- Node10 -->
<g id="node10" class="node">
<title>Node10</title>
<g id="a_node10"><a xlink:href="../../da/d2f/Fun4All__G4__fsPHENIX__FastSim_8C.html#a66fb850cae5fcaadda23b74a25ce4c9c" target="_top" xlink:title="Fun4All_G4_fsPHENIX\l_FastSim">
<polygon fill="none" stroke="#000000" points="217.5,-477.5 217.5,-509.5 341.5,-509.5 341.5,-477.5 217.5,-477.5"/>
<text text-anchor="start" x="225.5" y="-496.5" font-family="FreeSans" font-size="10.00" fill="#000000">Fun4All_G4_fsPHENIX</text>
<text text-anchor="middle" x="279.5" y="-484.5" font-family="FreeSans" font-size="10.00" fill="#000000">_FastSim</text>
</a>
</g>
</g>
<!-- Node1&#45;&gt;Node10 -->
<g id="edge9" class="edge">
<title>Node1&#45;&gt;Node10</title>
<path fill="none" stroke="#191970" d="M116.7825,-430.3548C139.208,-442.5236 168.7143,-457.5792 196,-468.5 204.0078,-471.7051 212.5893,-474.7223 221.0919,-477.4764"/>
<polygon fill="#191970" stroke="#191970" points="118.3921,-427.2458 107.9408,-425.5078 115.0271,-433.384 118.3921,-427.2458"/>
</g>
<!-- Node11 -->
<g id="node11" class="node">
<title>Node11</title>
<g id="a_node11"><a xlink:href="../../d0/da6/Fun4All__G4__fsPHENIX__pi0_8C.html#a023d91d47b678e5d7f1751834aa517c6" target="_top" xlink:title="Fun4All_G4_fsPHENIX_pi0">
<polygon fill="none" stroke="#000000" points="207,-438.5 207,-458.5 352,-458.5 352,-438.5 207,-438.5"/>
<text text-anchor="middle" x="279.5" y="-445.5" font-family="FreeSans" font-size="10.00" fill="#000000">Fun4All_G4_fsPHENIX_pi0</text>
</a>
</g>
</g>
<!-- Node1&#45;&gt;Node11 -->
<g id="edge10" class="edge">
<title>Node1&#45;&gt;Node11</title>
<path fill="none" stroke="#191970" d="M170.3088,-427.1544C190.2075,-431.0443 210.6118,-435.0331 228.3161,-438.4941"/>
<polygon fill="#191970" stroke="#191970" points="170.7677,-423.6779 160.2819,-425.1942 169.4246,-430.5478 170.7677,-423.6779"/>
</g>
<!-- Node12 -->
<g id="node12" class="node">
<title>Node12</title>
<g id="a_node12"><a xlink:href="../../d5/d2c/macros_2blob_2master_2macros_2g4simulations_2Fun4All__G4__sPHENIX_8C.html#a6eaaa492d7023ec86c562dc63aa1e5a4" target="_top" xlink:title="Fun4All_G4_sPHENIX">
<polygon fill="none" stroke="#000000" points="219,-399.5 219,-419.5 340,-419.5 340,-399.5 219,-399.5"/>
<text text-anchor="middle" x="279.5" y="-406.5" font-family="FreeSans" font-size="10.00" fill="#000000">Fun4All_G4_sPHENIX</text>
</a>
</g>
</g>
<!-- Node1&#45;&gt;Node12 -->
<g id="edge11" class="edge">
<title>Node1&#45;&gt;Node12</title>
<path fill="none" stroke="#191970" d="M170.4065,-409.5C186.763,-409.5 203.4574,-409.5 218.71,-409.5"/>
<polygon fill="#191970" stroke="#191970" points="170.282,-406.0001 160.2819,-409.5 170.2819,-413.0001 170.282,-406.0001"/>
</g>
<!-- Node13 -->
<g id="node13" class="node">
<title>Node13</title>
<g id="a_node13"><a xlink:href="../../d3/de2/Fun4All__G4__sPHENIX__AnaGenFit_8C.html#a9bf3f2f72ed69a17e2d0c1121d48013c" target="_top" xlink:title="Fun4All_G4_sPHENIX\l_AnaGenFit">
<polygon fill="none" stroke="#000000" points="219,-348.5 219,-380.5 340,-380.5 340,-348.5 219,-348.5"/>
<text text-anchor="start" x="227" y="-367.5" font-family="FreeSans" font-size="10.00" fill="#000000">Fun4All_G4_sPHENIX</text>
<text text-anchor="middle" x="279.5" y="-355.5" font-family="FreeSans" font-size="10.00" fill="#000000">_AnaGenFit</text>
</a>
</g>
</g>
<!-- Node1&#45;&gt;Node13 -->
<g id="edge12" class="edge">
<title>Node1&#45;&gt;Node13</title>
<path fill="none" stroke="#191970" d="M161.1655,-391.192C180.4603,-386.8398 200.717,-382.2706 218.9082,-378.1673"/>
<polygon fill="#191970" stroke="#191970" points="160.1639,-387.8299 151.1792,-393.4445 161.7042,-394.6583 160.1639,-387.8299"/>
</g>
<!-- Node14 -->
<g id="node14" class="node">
<title>Node14</title>
<g id="a_node14"><a xlink:href="../../da/dd0/Fun4All__G4__sPHENIX__photonjet_8C.html#a6f18519e216acc05399e562ea57ea77c" target="_top" xlink:title="Fun4All_G4_sPHENIX\l_photonjet">
<polygon fill="none" stroke="#000000" points="219,-297.5 219,-329.5 340,-329.5 340,-297.5 219,-297.5"/>
<text text-anchor="start" x="227" y="-316.5" font-family="FreeSans" font-size="10.00" fill="#000000">Fun4All_G4_sPHENIX</text>
<text text-anchor="middle" x="279.5" y="-304.5" font-family="FreeSans" font-size="10.00" fill="#000000">_photonjet</text>
</a>
</g>
</g>
<!-- Node1&#45;&gt;Node14 -->
<g id="edge13" class="edge">
<title>Node1&#45;&gt;Node14</title>
<path fill="none" stroke="#191970" d="M111.618,-387.5565C134.3224,-372.5246 166.0748,-352.9502 196,-339.5 204.0321,-335.8899 212.7108,-332.581 221.3308,-329.6221"/>
<polygon fill="#191970" stroke="#191970" points="109.4392,-384.8033 103.0801,-393.2775 113.3359,-390.6184 109.4392,-384.8033"/>
</g>
<!-- Node15 -->
<g id="node15" class="node">
<title>Node15</title>
<g id="a_node15"><a xlink:href="../../da/d85/Fun4All__G4__sPHENIX__photons_8C.html#a02fbbd59878fe1299f58ed187e7214ba" target="_top" xlink:title="Fun4All_G4_sPHENIX\l_photons">
<polygon fill="none" stroke="#000000" points="219,-246.5 219,-278.5 340,-278.5 340,-246.5 219,-246.5"/>
<text text-anchor="start" x="227" y="-265.5" font-family="FreeSans" font-size="10.00" fill="#000000">Fun4All_G4_sPHENIX</text>
<text text-anchor="middle" x="279.5" y="-253.5" font-family="FreeSans" font-size="10.00" fill="#000000">_photons</text>
</a>
</g>
</g>
<!-- Node1&#45;&gt;Node15 -->
<g id="edge14" class="edge">
<title>Node1&#45;&gt;Node15</title>
<path fill="none" stroke="#191970" d="M97.3528,-385.0354C117.9313,-357.7395 154.6914,-314.0645 196,-288.5 202.9717,-284.1854 210.7176,-280.5342 218.6008,-277.4584"/>
<polygon fill="#191970" stroke="#191970" points="94.3883,-383.1577 91.2548,-393.2785 100.0158,-387.3208 94.3883,-383.1577"/>
</g>
<!-- Node16 -->
<g id="node16" class="node">
<title>Node16</title>
<g id="a_node16"><a xlink:href="../../de/d55/Fun4All__G4__sPHENIX__truthphotonjet_8C.html#a48a6f4503eaa1b3793d8ae572aa795b9" target="_top" xlink:title="Fun4All_G4_sPHENIX\l_truthphotonjet">
<polygon fill="none" stroke="#000000" points="219,-195.5 219,-227.5 340,-227.5 340,-195.5 219,-195.5"/>
<text text-anchor="start" x="227" y="-214.5" font-family="FreeSans" font-size="10.00" fill="#000000">Fun4All_G4_sPHENIX</text>
<text text-anchor="middle" x="279.5" y="-202.5" font-family="FreeSans" font-size="10.00" fill="#000000">_truthphotonjet</text>
</a>
</g>
</g>
<!-- Node1&#45;&gt;Node16 -->
<g id="edge15" class="edge">
<title>Node1&#45;&gt;Node16</title>
<path fill="none" stroke="#191970" d="M90.4845,-384.0675C107.2459,-346.5136 143.6102,-276.4783 196,-237.5 202.8216,-232.4247 210.6543,-228.3257 218.7294,-225.0188"/>
<polygon fill="#191970" stroke="#191970" points="87.2428,-382.7455 86.4632,-393.3117 93.6618,-385.5379 87.2428,-382.7455"/>
</g>
<!-- Node17 -->
<g id="node17" class="node">
<title>Node17</title>
<g id="a_node17"><a xlink:href="../../da/db5/Fun4All__G4__W_8C.html#ad4745423f42356b6b3cb65bbbc1e917e" target="_top" xlink:title="Fun4All_G4_W">
<polygon fill="none" stroke="#000000" points="235.5,-156.5 235.5,-176.5 323.5,-176.5 323.5,-156.5 235.5,-156.5"/>
<text text-anchor="middle" x="279.5" y="-163.5" font-family="FreeSans" font-size="10.00" fill="#000000">Fun4All_G4_W</text>
</a>
</g>
</g>
<!-- Node1&#45;&gt;Node17 -->
<g id="edge16" class="edge">
<title>Node1&#45;&gt;Node17</title>
<path fill="none" stroke="#191970" d="M86,-383.3359C98.1891,-336.327 130.4323,-237.7154 196,-186.5 207.1602,-177.7827 221.5362,-172.7811 235.2045,-169.9378"/>
<polygon fill="#191970" stroke="#191970" points="82.5302,-382.7856 83.5104,-393.335 89.3228,-384.4769 82.5302,-382.7856"/>
</g>
<!-- Node18 -->
<g id="node18" class="node">
<title>Node18</title>
<g id="a_node18"><a xlink:href="../../d4/dfa/Fun4All__Generator__Display_8C.html#af87924a94b22e18901f0d64805565f09" target="_top" xlink:title="Fun4All_Generator_Display">
<polygon fill="none" stroke="#000000" points="203.5,-117.5 203.5,-137.5 355.5,-137.5 355.5,-117.5 203.5,-117.5"/>
<text text-anchor="middle" x="279.5" y="-124.5" font-family="FreeSans" font-size="10.00" fill="#000000">Fun4All_Generator_Display</text>
</a>
</g>
</g>
<!-- Node1&#45;&gt;Node18 -->
<g id="edge17" class="edge">
<title>Node1&#45;&gt;Node18</title>
<path fill="none" stroke="#191970" d="M83.7843,-383.3514C92.8878,-330.3275 121.0871,-209.9023 196,-147.5 200.8104,-143.4929 206.29,-140.2623 212.0896,-137.6613"/>
<polygon fill="#191970" stroke="#191970" points="80.3154,-382.8776 82.1656,-393.3097 87.2247,-384.0008 80.3154,-382.8776"/>
</g>
<!-- Node19 -->
<g id="node19" class="node">
<title>Node19</title>
<g id="a_node19"><a xlink:href="../../d4/d65/Fun4All__single__particle_8C.html#a8a492b5dbead494bfdddbebde8a49b0e" target="_top" xlink:title="Fun4All_single_particle">
<polygon fill="none" stroke="#000000" points="213.5,-78.5 213.5,-98.5 345.5,-98.5 345.5,-78.5 213.5,-78.5"/>
<text text-anchor="middle" x="279.5" y="-85.5" font-family="FreeSans" font-size="10.00" fill="#000000">Fun4All_single_particle</text>
</a>
</g>
</g>
<!-- Node1&#45;&gt;Node19 -->
<g id="edge18" class="edge">
<title>Node1&#45;&gt;Node19</title>
<path fill="none" stroke="#191970" d="M82.1594,-382.8587C88.4129,-323.971 111.8751,-182.138 196,-108.5 201.0474,-104.0818 206.9004,-100.5989 213.1198,-97.859"/>
<polygon fill="#191970" stroke="#191970" points="78.641,-382.8778 81.1532,-393.1705 85.6079,-383.5577 78.641,-382.8778"/>
</g>
<!-- Node20 -->
<g id="node20" class="node">
<title>Node20</title>
<g id="a_node20"><a xlink:href="../../d0/d99/Jin__BJet_8C.html#a36169bfee2ed7efda633944d12aebad9" target="_top" xlink:title="Jin_BJet">
<polygon fill="none" stroke="#000000" points="252,-39.5 252,-59.5 307,-59.5 307,-39.5 252,-39.5"/>
<text text-anchor="middle" x="279.5" y="-46.5" font-family="FreeSans" font-size="10.00" fill="#000000">Jin_BJet</text>
</a>
</g>
</g>
<!-- Node1&#45;&gt;Node20 -->
<g id="edge19" class="edge">
<title>Node1&#45;&gt;Node20</title>
<path fill="none" stroke="#191970" d="M85.5768,-383.0479C101.2983,-310.9099 147.9662,-113.2314 196,-69.5 211.101,-55.7516 233.9529,-50.9905 251.9351,-49.5348"/>
<polygon fill="#191970" stroke="#191970" points="82.09,-382.6142 83.4043,-393.1272 88.9329,-384.0892 82.09,-382.6142"/>
</g>
<!-- Node21 -->
<g id="node21" class="node">
<title>Node21</title>
<g id="a_node21"><a xlink:href="../../dd/db1/Wrapper_8cxx.html#abf1e42281903daa0752c80dd6c879fac" target="_top" xlink:title="Wrapper">
<polygon fill="none" stroke="#000000" points="249.5,-.5 249.5,-20.5 309.5,-20.5 309.5,-.5 249.5,-.5"/>
<text text-anchor="middle" x="279.5" y="-7.5" font-family="FreeSans" font-size="10.00" fill="#000000">Wrapper</text>
</a>
</g>
</g>
<!-- Node1&#45;&gt;Node21 -->
<g id="edge20" class="edge">
<title>Node1&#45;&gt;Node21</title>
<path fill="none" stroke="#191970" d="M84.5749,-383.1734C98.5696,-305.6024 143.0841,-80.2366 196,-30.5 210.2289,-17.126 231.7604,-12.2023 249.3948,-10.5827"/>
<polygon fill="#191970" stroke="#191970" points="81.1139,-382.6455 82.8051,-393.1045 88.0053,-383.8737 81.1139,-382.6455"/>
</g>
<!-- Node3 -->
<g id="node3" class="node">
<title>Node3</title>
<g id="a_node3"><a xlink:href="../../d3/d7f/Fun_8C.html#af69a3eef3ff244bb51f5740c6ecb5432" target="_top" xlink:title="Fun">
<polygon fill="none" stroke="#000000" points="399,-774.5 399,-794.5 433,-794.5 433,-774.5 399,-774.5"/>
<text text-anchor="middle" x="416" y="-781.5" font-family="FreeSans" font-size="10.00" fill="#000000">Fun</text>
</a>
</g>
</g>
<!-- Node2&#45;&gt;Node3 -->
<g id="edge2" class="edge">
<title>Node2&#45;&gt;Node3</title>
<path fill="none" stroke="#191970" d="M335.9593,-784.5C358.616,-784.5 383.0605,-784.5 398.8935,-784.5"/>
<polygon fill="#191970" stroke="#191970" points="335.7127,-781.0001 325.7127,-784.5 335.7126,-788.0001 335.7127,-781.0001"/>
</g>
</g>
</svg>
