<?xml version="1.0" encoding="UTF-8" standalone="no"?>
<!DOCTYPE svg PUBLIC "-//W3C//DTD SVG 1.1//EN"
 "http://www.w3.org/Graphics/SVG/1.1/DTD/svg11.dtd">
<!-- Generated by graphviz version 2.40.1 (20161225.0304)
 -->
<!-- Title: PHG4SimpleEventGenerator::set_vertex_size_parameters Pages: 1 -->
<svg width="445pt" height="803pt"
 viewBox="0.00 0.00 445.00 803.00" xmlns="http://www.w3.org/2000/svg" xmlns:xlink="http://www.w3.org/1999/xlink">
<g id="graph0" class="graph" transform="scale(1 1) rotate(0) translate(4 799)">
<title>PHG4SimpleEventGenerator::set_vertex_size_parameters</title>
<!-- Node1 -->
<g id="node1" class="node">
<title>Node1</title>
<polygon fill="#bfbfbf" stroke="#000000" points="0,-393.5 0,-425.5 164,-425.5 164,-393.5 0,-393.5"/>
<text text-anchor="start" x="8" y="-412.5" font-family="FreeSans" font-size="10.00" fill="#000000">PHG4SimpleEventGenerator</text>
<text text-anchor="middle" x="82" y="-400.5" font-family="FreeSans" font-size="10.00" fill="#000000">::set_vertex_size_parameters</text>
</g>
<!-- Node2 -->
<g id="node2" class="node">
<title>Node2</title>
<g id="a_node2"><a xlink:href="../../d3/d7f/Fun_8C.html#ab689f6a95e742654fc06aa27a8486ffd" target="_top" xlink:title="ConfigureInput">
<polygon fill="none" stroke="#000000" points="237.5,-774.5 237.5,-794.5 329.5,-794.5 329.5,-774.5 237.5,-774.5"/>
<text text-anchor="middle" x="283.5" y="-781.5" font-family="FreeSans" font-size="10.00" fill="#000000">ConfigureInput</text>
</a>
</g>
</g>
<!-- Node1&#45;&gt;Node2 -->
<g id="edge1" class="edge">
<title>Node1&#45;&gt;Node2</title>
<path fill="none" stroke="#191970" d="M87.2262,-435.7319C102.5464,-510.0513 149.4605,-719.6086 200,-765.5 210.126,-774.6947 223.758,-779.7346 237.0683,-782.4184"/>
<polygon fill="#191970" stroke="#191970" points="90.6252,-434.8831 85.1984,-425.7836 83.7663,-436.2812 90.6252,-434.8831"/>
</g>
<!-- Node4 -->
<g id="node4" class="node">
<title>Node4</title>
<g id="a_node4"><a xlink:href="../../d2/d47/Fun4All__EICAnalysis__DVCS_8C.html#a84f48142243e969fd353cc8509f0ba22" target="_top" xlink:title="Fun4All_EICAnalysis_DVCS">
<polygon fill="none" stroke="#000000" points="208.5,-735.5 208.5,-755.5 358.5,-755.5 358.5,-735.5 208.5,-735.5"/>
<text text-anchor="middle" x="283.5" y="-742.5" font-family="FreeSans" font-size="10.00" fill="#000000">Fun4All_EICAnalysis_DVCS</text>
</a>
</g>
</g>
<!-- Node1&#45;&gt;Node4 -->
<g id="edge3" class="edge">
<title>Node1&#45;&gt;Node4</title>
<path fill="none" stroke="#191970" d="M83.6648,-435.9221C88.9949,-496.9774 110.9862,-648.5718 200,-726.5 204.027,-730.0255 208.5726,-732.9351 213.4114,-735.3325"/>
<polygon fill="#191970" stroke="#191970" points="87.1273,-435.3071 82.8511,-425.6135 80.149,-435.858 87.1273,-435.3071"/>
</g>
<!-- Node5 -->
<g id="node5" class="node">
<title>Node5</title>
<g id="a_node5"><a xlink:href="../../da/d02/Fun4All__G4__EICDetector_8C.html#afbe82cefa1d1fd031d9a8586b7bb68c6" target="_top" xlink:title="Fun4All_G4_EICDetector">
<polygon fill="none" stroke="#000000" points="214,-696.5 214,-716.5 353,-716.5 353,-696.5 214,-696.5"/>
<text text-anchor="middle" x="283.5" y="-703.5" font-family="FreeSans" font-size="10.00" fill="#000000">Fun4All_G4_EICDetector</text>
</a>
</g>
</g>
<!-- Node1&#45;&gt;Node5 -->
<g id="edge4" class="edge">
<title>Node1&#45;&gt;Node5</title>
<path fill="none" stroke="#191970" d="M85.1871,-435.7446C93.3799,-491.2641 120.4438,-620.9574 200,-687.5 204.2194,-691.0292 208.9634,-693.9352 213.9922,-696.3243"/>
<polygon fill="#191970" stroke="#191970" points="88.6306,-435.0949 83.7902,-425.6704 81.6969,-436.0564 88.6306,-435.0949"/>
</g>
<!-- Node6 -->
<g id="node6" class="node">
<title>Node6</title>
<g id="a_node6"><a xlink:href="../../dd/d2a/Fun4All__G4__EICDetector__LQ_8C.html#aaa01242fd6e77ca43a9d49a6d46008e4" target="_top" xlink:title="Fun4All_G4_EICDetector_LQ">
<polygon fill="none" stroke="#000000" points="205.5,-657.5 205.5,-677.5 361.5,-677.5 361.5,-657.5 205.5,-657.5"/>
<text text-anchor="middle" x="283.5" y="-664.5" font-family="FreeSans" font-size="10.00" fill="#000000">Fun4All_G4_EICDetector_LQ</text>
</a>
</g>
</g>
<!-- Node1&#45;&gt;Node6 -->
<g id="edge5" class="edge">
<title>Node1&#45;&gt;Node6</title>
<path fill="none" stroke="#191970" d="M87.1275,-435.5054C98.3186,-485.0796 129.769,-593.0921 200,-648.5 204.5521,-652.0913 209.6551,-655.0293 215.0356,-657.4298"/>
<polygon fill="#191970" stroke="#191970" points="90.5163,-434.6163 84.984,-425.5806 83.674,-436.0941 90.5163,-434.6163"/>
</g>
<!-- Node7 -->
<g id="node7" class="node">
<title>Node7</title>
<g id="a_node7"><a xlink:href="../../d4/df5/Fun4All__G4__EICDetector__LQ__reference_8C.html#a2feefc472f17f90b3cbe74897d049f75" target="_top" xlink:title="Fun4All_G4_EICDetector\l_LQ_reference">
<polygon fill="none" stroke="#000000" points="214,-606.5 214,-638.5 353,-638.5 353,-606.5 214,-606.5"/>
<text text-anchor="start" x="222" y="-625.5" font-family="FreeSans" font-size="10.00" fill="#000000">Fun4All_G4_EICDetector</text>
<text text-anchor="middle" x="283.5" y="-613.5" font-family="FreeSans" font-size="10.00" fill="#000000">_LQ_reference</text>
</a>
</g>
</g>
<!-- Node1&#45;&gt;Node7 -->
<g id="edge6" class="edge">
<title>Node1&#45;&gt;Node7</title>
<path fill="none" stroke="#191970" d="M91.1466,-435.0054C106.9751,-475.5101 143.3229,-554.3604 200,-597.5 204.4552,-600.8911 209.3669,-603.8242 214.5099,-606.3608"/>
<polygon fill="#191970" stroke="#191970" points="94.3886,-433.6835 87.5647,-425.5789 87.8451,-436.17 94.3886,-433.6835"/>
</g>
<!-- Node8 -->
<g id="node8" class="node">
<title>Node8</title>
<g id="a_node8"><a xlink:href="../../d3/d51/Fun4All__G4__EICDetector__RICH_8C.html#a5739502b0a7a1ba782c01069f77e933f" target="_top" xlink:title="Fun4All_G4_EICDetector_RICH">
<polygon fill="none" stroke="#000000" points="200,-567.5 200,-587.5 367,-587.5 367,-567.5 200,-567.5"/>
<text text-anchor="middle" x="283.5" y="-574.5" font-family="FreeSans" font-size="10.00" fill="#000000">Fun4All_G4_EICDetector_RICH</text>
</a>
</g>
</g>
<!-- Node1&#45;&gt;Node8 -->
<g id="edge7" class="edge">
<title>Node1&#45;&gt;Node8</title>
<path fill="none" stroke="#191970" d="M95.0817,-435.182C113.6634,-468.9481 150.9629,-527.5947 200,-558.5 205.7857,-562.1464 212.1881,-565.0958 218.7989,-567.481"/>
<polygon fill="#191970" stroke="#191970" points="97.9456,-433.1168 90.1328,-425.9606 91.7777,-436.4269 97.9456,-433.1168"/>
</g>
<!-- Node9 -->
<g id="node9" class="node">
<title>Node9</title>
<g id="a_node9"><a xlink:href="../../d7/d9e/Fun4All__G4__fsPHENIX_8C.html#af48911d394d2412e817583700f2bbee2" target="_top" xlink:title="Fun4All_G4_fsPHENIX">
<polygon fill="none" stroke="#000000" points="221.5,-528.5 221.5,-548.5 345.5,-548.5 345.5,-528.5 221.5,-528.5"/>
<text text-anchor="middle" x="283.5" y="-535.5" font-family="FreeSans" font-size="10.00" fill="#000000">Fun4All_G4_fsPHENIX</text>
</a>
</g>
</g>
<!-- Node1&#45;&gt;Node9 -->
<g id="edge8" class="edge">
<title>Node1&#45;&gt;Node9</title>
<path fill="none" stroke="#191970" d="M101.2284,-433.8048C122.6169,-459.1365 159.5292,-498.0675 200,-519.5 206.832,-523.1181 214.3337,-526.0502 221.9511,-528.4259"/>
<polygon fill="#191970" stroke="#191970" points="103.6595,-431.2527 94.5874,-425.7803 98.2668,-435.7157 103.6595,-431.2527"/>
</g>
<!-- Node10 -->
<g id="node10" class="node">
<title>Node10</title>
<g id="a_node10"><a xlink:href="../../da/d2f/Fun4All__G4__fsPHENIX__FastSim_8C.html#a66fb850cae5fcaadda23b74a25ce4c9c" target="_top" xlink:title="Fun4All_G4_fsPHENIX\l_FastSim">
<polygon fill="none" stroke="#000000" points="221.5,-477.5 221.5,-509.5 345.5,-509.5 345.5,-477.5 221.5,-477.5"/>
<text text-anchor="start" x="229.5" y="-496.5" font-family="FreeSans" font-size="10.00" fill="#000000">Fun4All_G4_fsPHENIX</text>
<text text-anchor="middle" x="283.5" y="-484.5" font-family="FreeSans" font-size="10.00" fill="#000000">_FastSim</text>
</a>
</g>
</g>
<!-- Node1&#45;&gt;Node10 -->
<g id="edge9" class="edge">
<title>Node1&#45;&gt;Node10</title>
<path fill="none" stroke="#191970" d="M119.9226,-430.5619C142.6916,-442.673 172.4892,-457.5986 200,-468.5 208.0188,-471.6775 216.6063,-474.6795 225.1117,-477.4265"/>
<polygon fill="#191970" stroke="#191970" points="121.4017,-427.3834 110.936,-425.7341 118.0889,-433.5499 121.4017,-427.3834"/>
</g>
<!-- Node11 -->
<g id="node11" class="node">
<title>Node11</title>
<g id="a_node11"><a xlink:href="../../d0/da6/Fun4All__G4__fsPHENIX__pi0_8C.html#a023d91d47b678e5d7f1751834aa517c6" target="_top" xlink:title="Fun4All_G4_fsPHENIX_pi0">
<polygon fill="none" stroke="#000000" points="211,-438.5 211,-458.5 356,-458.5 356,-438.5 211,-438.5"/>
<text text-anchor="middle" x="283.5" y="-445.5" font-family="FreeSans" font-size="10.00" fill="#000000">Fun4All_G4_fsPHENIX_pi0</text>
</a>
</g>
</g>
<!-- Node1&#45;&gt;Node11 -->
<g id="edge10" class="edge">
<title>Node1&#45;&gt;Node11</title>
<path fill="none" stroke="#191970" d="M174.2247,-427.3499C194.0117,-431.1797 214.2404,-435.0949 231.8285,-438.4991"/>
<polygon fill="#191970" stroke="#191970" points="174.7313,-423.8831 164.2484,-425.419 173.4011,-430.7556 174.7313,-423.8831"/>
</g>
<!-- Node12 -->
<g id="node12" class="node">
<title>Node12</title>
<g id="a_node12"><a xlink:href="../../d5/d2c/macros_2blob_2master_2macros_2g4simulations_2Fun4All__G4__sPHENIX_8C.html#a6eaaa492d7023ec86c562dc63aa1e5a4" target="_top" xlink:title="Fun4All_G4_sPHENIX">
<polygon fill="none" stroke="#000000" points="223,-399.5 223,-419.5 344,-419.5 344,-399.5 223,-399.5"/>
<text text-anchor="middle" x="283.5" y="-406.5" font-family="FreeSans" font-size="10.00" fill="#000000">Fun4All_G4_sPHENIX</text>
</a>
</g>
</g>
<!-- Node1&#45;&gt;Node12 -->
<g id="edge11" class="edge">
<title>Node1&#45;&gt;Node12</title>
<path fill="none" stroke="#191970" d="M174.4183,-409.5C190.8388,-409.5 207.5566,-409.5 222.8107,-409.5"/>
<polygon fill="#191970" stroke="#191970" points="174.2484,-406.0001 164.2484,-409.5 174.2484,-413.0001 174.2484,-406.0001"/>
</g>
<!-- Node13 -->
<g id="node13" class="node">
<title>Node13</title>
<g id="a_node13"><a xlink:href="../../d3/de2/Fun4All__G4__sPHENIX__AnaGenFit_8C.html#a9bf3f2f72ed69a17e2d0c1121d48013c" target="_top" xlink:title="Fun4All_G4_sPHENIX\l_AnaGenFit">
<polygon fill="none" stroke="#000000" points="223,-348.5 223,-380.5 344,-380.5 344,-348.5 223,-348.5"/>
<text text-anchor="start" x="231" y="-367.5" font-family="FreeSans" font-size="10.00" fill="#000000">Fun4All_G4_sPHENIX</text>
<text text-anchor="middle" x="283.5" y="-355.5" font-family="FreeSans" font-size="10.00" fill="#000000">_AnaGenFit</text>
</a>
</g>
</g>
<!-- Node1&#45;&gt;Node13 -->
<g id="edge12" class="edge">
<title>Node1&#45;&gt;Node13</title>
<path fill="none" stroke="#191970" d="M163.8112,-391.2295C183.581,-386.8144 204.36,-382.1739 222.9537,-378.0215"/>
<polygon fill="#191970" stroke="#191970" points="162.8895,-387.8491 153.8927,-393.4445 164.4152,-394.6808 162.8895,-387.8491"/>
</g>
<!-- Node14 -->
<g id="node14" class="node">
<title>Node14</title>
<g id="a_node14"><a xlink:href="../../da/dd0/Fun4All__G4__sPHENIX__photonjet_8C.html#a6f18519e216acc05399e562ea57ea77c" target="_top" xlink:title="Fun4All_G4_sPHENIX\l_photonjet">
<polygon fill="none" stroke="#000000" points="223,-297.5 223,-329.5 344,-329.5 344,-297.5 223,-297.5"/>
<text text-anchor="start" x="231" y="-316.5" font-family="FreeSans" font-size="10.00" fill="#000000">Fun4All_G4_sPHENIX</text>
<text text-anchor="middle" x="283.5" y="-304.5" font-family="FreeSans" font-size="10.00" fill="#000000">_photonjet</text>
</a>
</g>
</g>
<!-- Node1&#45;&gt;Node14 -->
<g id="edge13" class="edge">
<title>Node1&#45;&gt;Node14</title>
<path fill="none" stroke="#191970" d="M113.9101,-387.7904C137.0512,-372.749 169.5103,-353.0662 200,-339.5 208.1844,-335.8584 217.0315,-332.5144 225.8011,-329.5241"/>
<polygon fill="#191970" stroke="#191970" points="111.9542,-384.8876 105.5208,-393.3055 115.7996,-390.7368 111.9542,-384.8876"/>
</g>
<!-- Node15 -->
<g id="node15" class="node">
<title>Node15</title>
<g id="a_node15"><a xlink:href="../../da/d85/Fun4All__G4__sPHENIX__photons_8C.html#a02fbbd59878fe1299f58ed187e7214ba" target="_top" xlink:title="Fun4All_G4_sPHENIX\l_photons">
<polygon fill="none" stroke="#000000" points="223,-246.5 223,-278.5 344,-278.5 344,-246.5 223,-246.5"/>
<text text-anchor="start" x="231" y="-265.5" font-family="FreeSans" font-size="10.00" fill="#000000">Fun4All_G4_sPHENIX</text>
<text text-anchor="middle" x="283.5" y="-253.5" font-family="FreeSans" font-size="10.00" fill="#000000">_photons</text>
</a>
</g>
</g>
<!-- Node1&#45;&gt;Node15 -->
<g id="edge14" class="edge">
<title>Node1&#45;&gt;Node15</title>
<path fill="none" stroke="#191970" d="M99.7463,-385.0477C120.7662,-357.7631 158.2391,-314.0984 200,-288.5 206.9901,-284.2152 214.7466,-280.5812 222.6351,-277.5141"/>
<polygon fill="#191970" stroke="#191970" points="96.7556,-383.2 93.5153,-393.2872 102.3388,-387.4223 96.7556,-383.2"/>
</g>
<!-- Node16 -->
<g id="node16" class="node">
<title>Node16</title>
<g id="a_node16"><a xlink:href="../../de/d55/Fun4All__G4__sPHENIX__truthphotonjet_8C.html#a48a6f4503eaa1b3793d8ae572aa795b9" target="_top" xlink:title="Fun4All_G4_sPHENIX\l_truthphotonjet">
<polygon fill="none" stroke="#000000" points="223,-195.5 223,-227.5 344,-227.5 344,-195.5 223,-195.5"/>
<text text-anchor="start" x="231" y="-214.5" font-family="FreeSans" font-size="10.00" fill="#000000">Fun4All_G4_sPHENIX</text>
<text text-anchor="middle" x="283.5" y="-202.5" font-family="FreeSans" font-size="10.00" fill="#000000">_truthphotonjet</text>
</a>
</g>
</g>
<!-- Node1&#45;&gt;Node16 -->
<g id="edge15" class="edge">
<title>Node1&#45;&gt;Node16</title>
<path fill="none" stroke="#191970" d="M92.7838,-384.0679C109.9864,-346.5146 147.1708,-276.48 200,-237.5 206.8417,-232.4519 214.6858,-228.3681 222.7663,-225.0685"/>
<polygon fill="#191970" stroke="#191970" points="89.5374,-382.754 88.6538,-393.312 95.9286,-385.6095 89.5374,-382.754"/>
</g>
<!-- Node17 -->
<g id="node17" class="node">
<title>Node17</title>
<g id="a_node17"><a xlink:href="../../da/db5/Fun4All__G4__W_8C.html#ad4745423f42356b6b3cb65bbbc1e917e" target="_top" xlink:title="Fun4All_G4_W">
<polygon fill="none" stroke="#000000" points="239.5,-156.5 239.5,-176.5 327.5,-176.5 327.5,-156.5 239.5,-156.5"/>
<text text-anchor="middle" x="283.5" y="-163.5" font-family="FreeSans" font-size="10.00" fill="#000000">Fun4All_G4_W</text>
</a>
</g>
</g>
<!-- Node1&#45;&gt;Node17 -->
<g id="edge16" class="edge">
<title>Node1&#45;&gt;Node17</title>
<path fill="none" stroke="#191970" d="M88.1624,-383.6239C100.7246,-336.7209 133.8707,-237.7807 200,-186.5 211.1908,-177.822 225.5747,-172.8305 239.2408,-169.9845"/>
<polygon fill="#191970" stroke="#191970" points="84.7675,-382.7725 85.66,-393.3297 91.5458,-384.5202 84.7675,-382.7725"/>
</g>
<!-- Node18 -->
<g id="node18" class="node">
<title>Node18</title>
<g id="a_node18"><a xlink:href="../../d4/dfa/Fun4All__Generator__Display_8C.html#af87924a94b22e18901f0d64805565f09" target="_top" xlink:title="Fun4All_Generator_Display">
<polygon fill="none" stroke="#000000" points="207.5,-117.5 207.5,-137.5 359.5,-137.5 359.5,-117.5 207.5,-117.5"/>
<text text-anchor="middle" x="283.5" y="-124.5" font-family="FreeSans" font-size="10.00" fill="#000000">Fun4All_Generator_Display</text>
</a>
</g>
</g>
<!-- Node1&#45;&gt;Node18 -->
<g id="edge17" class="edge">
<title>Node1&#45;&gt;Node18</title>
<path fill="none" stroke="#191970" d="M85.9945,-383.3412C95.5224,-330.2986 124.6751,-209.8405 200,-147.5 204.938,-143.4132 210.573,-140.135 216.5315,-137.5092"/>
<polygon fill="#191970" stroke="#191970" points="82.5266,-382.8571 84.296,-393.3031 89.427,-384.0336 82.5266,-382.8571"/>
</g>
<!-- Node19 -->
<g id="node19" class="node">
<title>Node19</title>
<g id="a_node19"><a xlink:href="../../d4/d65/Fun4All__single__particle_8C.html#a8a492b5dbead494bfdddbebde8a49b0e" target="_top" xlink:title="Fun4All_single_particle">
<polygon fill="none" stroke="#000000" points="217.5,-78.5 217.5,-98.5 349.5,-98.5 349.5,-78.5 217.5,-78.5"/>
<text text-anchor="middle" x="283.5" y="-85.5" font-family="FreeSans" font-size="10.00" fill="#000000">Fun4All_single_particle</text>
</a>
</g>
</g>
<!-- Node1&#45;&gt;Node19 -->
<g id="edge18" class="edge">
<title>Node1&#45;&gt;Node19</title>
<path fill="none" stroke="#191970" d="M84.3078,-383.2137C90.9184,-324.5267 115.2978,-182.2127 200,-108.5 205.0601,-104.0964 210.9214,-100.6229 217.1457,-97.8887"/>
<polygon fill="#191970" stroke="#191970" points="80.8265,-382.854 83.2697,-393.1633 87.7887,-383.5805 80.8265,-382.854"/>
</g>
<!-- Node20 -->
<g id="node20" class="node">
<title>Node20</title>
<g id="a_node20"><a xlink:href="../../d0/d99/Jin__BJet_8C.html#a36169bfee2ed7efda633944d12aebad9" target="_top" xlink:title="Jin_BJet">
<polygon fill="none" stroke="#000000" points="256,-39.5 256,-59.5 311,-59.5 311,-39.5 256,-39.5"/>
<text text-anchor="middle" x="283.5" y="-46.5" font-family="FreeSans" font-size="10.00" fill="#000000">Jin_BJet</text>
</a>
</g>
</g>
<!-- Node1&#45;&gt;Node20 -->
<g id="edge19" class="edge">
<title>Node1&#45;&gt;Node20</title>
<path fill="none" stroke="#191970" d="M87.7382,-383.043C103.8988,-310.8922 151.7642,-113.1839 200,-69.5 215.1371,-55.7914 237.9865,-51.0274 255.9585,-49.5606"/>
<polygon fill="#191970" stroke="#191970" points="84.2507,-382.6037 85.5043,-393.1241 91.0849,-384.1181 84.2507,-382.6037"/>
</g>
<!-- Node21 -->
<g id="node21" class="node">
<title>Node21</title>
<g id="a_node21"><a xlink:href="../../dd/db1/Wrapper_8cxx.html#abf1e42281903daa0752c80dd6c879fac" target="_top" xlink:title="Wrapper">
<polygon fill="none" stroke="#000000" points="253.5,-.5 253.5,-20.5 313.5,-20.5 313.5,-.5 253.5,-.5"/>
<text text-anchor="middle" x="283.5" y="-7.5" font-family="FreeSans" font-size="10.00" fill="#000000">Wrapper</text>
</a>
</g>
</g>
<!-- Node1&#45;&gt;Node21 -->
<g id="edge20" class="edge">
<title>Node1&#45;&gt;Node21</title>
<path fill="none" stroke="#191970" d="M86.7197,-383.1685C101.1403,-305.5835 146.8855,-80.1828 200,-30.5 214.2611,-17.1603 235.7918,-12.2358 253.4178,-10.6072"/>
<polygon fill="#191970" stroke="#191970" points="83.2595,-382.6336 84.8953,-393.1013 90.1443,-383.8982 83.2595,-382.6336"/>
</g>
<!-- Node3 -->
<g id="node3" class="node">
<title>Node3</title>
<g id="a_node3"><a xlink:href="../../d3/d7f/Fun_8C.html#af69a3eef3ff244bb51f5740c6ecb5432" target="_top" xlink:title="Fun">
<polygon fill="none" stroke="#000000" points="403,-774.5 403,-794.5 437,-794.5 437,-774.5 403,-774.5"/>
<text text-anchor="middle" x="420" y="-781.5" font-family="FreeSans" font-size="10.00" fill="#000000">Fun</text>
</a>
</g>
</g>
<!-- Node2&#45;&gt;Node3 -->
<g id="edge2" class="edge">
<title>Node2&#45;&gt;Node3</title>
<path fill="none" stroke="#191970" d="M339.9593,-784.5C362.616,-784.5 387.0605,-784.5 402.8935,-784.5"/>
<polygon fill="#191970" stroke="#191970" points="339.7127,-781.0001 329.7127,-784.5 339.7126,-788.0001 339.7127,-781.0001"/>
</g>
</g>
</svg>
