<?xml version="1.0" encoding="UTF-8" standalone="no"?>
<!DOCTYPE svg PUBLIC "-//W3C//DTD SVG 1.1//EN"
 "http://www.w3.org/Graphics/SVG/1.1/DTD/svg11.dtd">
<!-- Generated by graphviz version 2.40.1 (20161225.0304)
 -->
<!-- Title: PHG4SimpleEventGenerator::set_vertex_distribution_function Pages: 1 -->
<svg width="441pt" height="998pt"
 viewBox="0.00 0.00 441.00 998.00" xmlns="http://www.w3.org/2000/svg" xmlns:xlink="http://www.w3.org/1999/xlink">
<g id="graph0" class="graph" transform="scale(1 1) rotate(0) translate(4 994)">
<title>PHG4SimpleEventGenerator::set_vertex_distribution_function</title>
<!-- Node1 -->
<g id="node1" class="node">
<title>Node1</title>
<polygon fill="#bfbfbf" stroke="#000000" points="0,-484.5 0,-528.5 160,-528.5 160,-484.5 0,-484.5"/>
<text text-anchor="start" x="8" y="-515.5" font-family="FreeSans" font-size="10.00" fill="#000000">PHG4SimpleEventGenerator</text>
<text text-anchor="start" x="8" y="-503.5" font-family="FreeSans" font-size="10.00" fill="#000000">::set_vertex_distribution</text>
<text text-anchor="middle" x="80" y="-491.5" font-family="FreeSans" font-size="10.00" fill="#000000">_function</text>
</g>
<!-- Node2 -->
<g id="node2" class="node">
<title>Node2</title>
<g id="a_node2"><a xlink:href="../../d3/d7f/Fun_8C.html#ab689f6a95e742654fc06aa27a8486ffd" target="_top" xlink:title="ConfigureInput">
<polygon fill="none" stroke="#000000" points="233.5,-969.5 233.5,-989.5 325.5,-989.5 325.5,-969.5 233.5,-969.5"/>
<text text-anchor="middle" x="279.5" y="-976.5" font-family="FreeSans" font-size="10.00" fill="#000000">ConfigureInput</text>
</a>
</g>
</g>
<!-- Node1&#45;&gt;Node2 -->
<g id="edge1" class="edge">
<title>Node1&#45;&gt;Node2</title>
<path fill="none" stroke="#191970" d="M83.8552,-538.5893C95.7171,-631.9681 134.6227,-900.7232 196,-960.5 205.905,-970.1467 219.6332,-975.292 233.0996,-977.9333"/>
<polygon fill="#191970" stroke="#191970" points="87.3194,-538.0843 82.6045,-528.5964 80.3736,-538.9537 87.3194,-538.0843"/>
</g>
<!-- Node4 -->
<g id="node4" class="node">
<title>Node4</title>
<g id="a_node4"><a xlink:href="../../db/d89/ConstructGeometry_8C.html#a21c369835643f1016f506a3da3b8d446" target="_top" xlink:title="ConstructGeometry">
<polygon fill="none" stroke="#000000" points="222,-930.5 222,-950.5 337,-950.5 337,-930.5 222,-930.5"/>
<text text-anchor="middle" x="279.5" y="-937.5" font-family="FreeSans" font-size="10.00" fill="#000000">ConstructGeometry</text>
</a>
</g>
</g>
<!-- Node1&#45;&gt;Node4 -->
<g id="edge3" class="edge">
<title>Node1&#45;&gt;Node4</title>
<path fill="none" stroke="#191970" d="M84.6612,-538.4758C98.0858,-626.2031 139.5168,-867.7095 196,-921.5 203.2133,-928.3694 212.3703,-932.9446 221.9596,-935.9558"/>
<polygon fill="#191970" stroke="#191970" points="88.1182,-537.9277 83.1638,-528.5627 81.1967,-538.9733 88.1182,-537.9277"/>
</g>
<!-- Node5 -->
<g id="node5" class="node">
<title>Node5</title>
<g id="a_node5"><a xlink:href="../../d2/d47/Fun4All__EICAnalysis__DVCS_8C.html#a84f48142243e969fd353cc8509f0ba22" target="_top" xlink:title="Fun4All_EICAnalysis_DVCS">
<polygon fill="none" stroke="#000000" points="204.5,-891.5 204.5,-911.5 354.5,-911.5 354.5,-891.5 204.5,-891.5"/>
<text text-anchor="middle" x="279.5" y="-898.5" font-family="FreeSans" font-size="10.00" fill="#000000">Fun4All_EICAnalysis_DVCS</text>
</a>
</g>
</g>
<!-- Node1&#45;&gt;Node5 -->
<g id="edge4" class="edge">
<title>Node1&#45;&gt;Node5</title>
<path fill="none" stroke="#191970" d="M85.648,-538.4858C100.7444,-620.4029 144.4103,-834.6658 196,-882.5 199.8157,-886.0379 204.1488,-888.9636 208.7865,-891.3783"/>
<polygon fill="#191970" stroke="#191970" points="89.0649,-537.7126 83.8293,-528.5018 82.1782,-538.9672 89.0649,-537.7126"/>
</g>
<!-- Node6 -->
<g id="node6" class="node">
<title>Node6</title>
<g id="a_node6"><a xlink:href="../../da/d02/Fun4All__G4__EICDetector_8C.html#afbe82cefa1d1fd031d9a8586b7bb68c6" target="_top" xlink:title="Fun4All_G4_EICDetector">
<polygon fill="none" stroke="#000000" points="210,-852.5 210,-872.5 349,-872.5 349,-852.5 210,-852.5"/>
<text text-anchor="middle" x="279.5" y="-859.5" font-family="FreeSans" font-size="10.00" fill="#000000">Fun4All_G4_EICDetector</text>
</a>
</g>
</g>
<!-- Node1&#45;&gt;Node6 -->
<g id="edge5" class="edge">
<title>Node1&#45;&gt;Node6</title>
<path fill="none" stroke="#191970" d="M86.859,-538.5094C103.7279,-614.3082 149.2739,-801.5567 196,-843.5 200.0935,-847.1745 204.748,-850.1838 209.7158,-852.6433"/>
<polygon fill="#191970" stroke="#191970" points="90.2412,-537.5932 84.6719,-528.5802 83.4051,-539.099 90.2412,-537.5932"/>
</g>
<!-- Node7 -->
<g id="node7" class="node">
<title>Node7</title>
<g id="a_node7"><a xlink:href="../../dd/d2a/Fun4All__G4__EICDetector__LQ_8C.html#aaa01242fd6e77ca43a9d49a6d46008e4" target="_top" xlink:title="Fun4All_G4_EICDetector_LQ">
<polygon fill="none" stroke="#000000" points="201.5,-813.5 201.5,-833.5 357.5,-833.5 357.5,-813.5 201.5,-813.5"/>
<text text-anchor="middle" x="279.5" y="-820.5" font-family="FreeSans" font-size="10.00" fill="#000000">Fun4All_G4_EICDetector_LQ</text>
</a>
</g>
</g>
<!-- Node1&#45;&gt;Node7 -->
<g id="edge6" class="edge">
<title>Node1&#45;&gt;Node7</title>
<path fill="none" stroke="#191970" d="M82.8849,-539.1253C90.1529,-600.7972 114.8932,-734.5522 196,-804.5 200.1657,-808.0925 204.8714,-811.0435 209.8742,-813.4633"/>
<polygon fill="#191970" stroke="#191970" points="86.3248,-538.3849 81.7563,-528.8257 79.3665,-539.1475 86.3248,-538.3849"/>
</g>
<!-- Node8 -->
<g id="node8" class="node">
<title>Node8</title>
<g id="a_node8"><a xlink:href="../../d4/df5/Fun4All__G4__EICDetector__LQ__reference_8C.html#a2feefc472f17f90b3cbe74897d049f75" target="_top" xlink:title="Fun4All_G4_EICDetector\l_LQ_reference">
<polygon fill="none" stroke="#000000" points="210,-762.5 210,-794.5 349,-794.5 349,-762.5 210,-762.5"/>
<text text-anchor="start" x="218" y="-781.5" font-family="FreeSans" font-size="10.00" fill="#000000">Fun4All_G4_EICDetector</text>
<text text-anchor="middle" x="279.5" y="-769.5" font-family="FreeSans" font-size="10.00" fill="#000000">_LQ_reference</text>
</a>
</g>
</g>
<!-- Node1&#45;&gt;Node8 -->
<g id="edge7" class="edge">
<title>Node1&#45;&gt;Node8</title>
<path fill="none" stroke="#191970" d="M86.196,-538.423C98.0735,-591.0191 129.0484,-695.7993 196,-753.5 200.1266,-757.0564 204.7438,-760.107 209.6321,-762.7236"/>
<polygon fill="#191970" stroke="#191970" points="89.6117,-537.6589 84.0701,-528.6289 82.771,-539.1438 89.6117,-537.6589"/>
</g>
<!-- Node9 -->
<g id="node9" class="node">
<title>Node9</title>
<g id="a_node9"><a xlink:href="../../d3/d51/Fun4All__G4__EICDetector__RICH_8C.html#a5739502b0a7a1ba782c01069f77e933f" target="_top" xlink:title="Fun4All_G4_EICDetector_RICH">
<polygon fill="none" stroke="#000000" points="196,-723.5 196,-743.5 363,-743.5 363,-723.5 196,-723.5"/>
<text text-anchor="middle" x="279.5" y="-730.5" font-family="FreeSans" font-size="10.00" fill="#000000">Fun4All_G4_EICDetector_RICH</text>
</a>
</g>
</g>
<!-- Node1&#45;&gt;Node9 -->
<g id="edge8" class="edge">
<title>Node1&#45;&gt;Node9</title>
<path fill="none" stroke="#191970" d="M88.7647,-538.5367C103.1514,-584.8369 136.3144,-669.7917 196,-714.5 200.7596,-718.0652 206.0704,-720.9802 211.644,-723.3611"/>
<polygon fill="#191970" stroke="#191970" points="92.0477,-537.2998 85.8193,-528.7291 85.3435,-539.3132 92.0477,-537.2998"/>
</g>
<!-- Node10 -->
<g id="node10" class="node">
<title>Node10</title>
<g id="a_node10"><a xlink:href="../../d7/d9e/Fun4All__G4__fsPHENIX_8C.html#af48911d394d2412e817583700f2bbee2" target="_top" xlink:title="Fun4All_G4_fsPHENIX">
<polygon fill="none" stroke="#000000" points="217.5,-684.5 217.5,-704.5 341.5,-704.5 341.5,-684.5 217.5,-684.5"/>
<text text-anchor="middle" x="279.5" y="-691.5" font-family="FreeSans" font-size="10.00" fill="#000000">Fun4All_G4_fsPHENIX</text>
</a>
</g>
</g>
<!-- Node1&#45;&gt;Node10 -->
<g id="edge9" class="edge">
<title>Node1&#45;&gt;Node10</title>
<path fill="none" stroke="#191970" d="M92.7965,-537.7771C110.2452,-576.353 145.246,-641.0375 196,-675.5 202.3958,-679.8428 209.6385,-683.2053 217.1202,-685.8065"/>
<polygon fill="#191970" stroke="#191970" points="95.9737,-536.3073 88.7397,-528.5665 89.5675,-539.129 95.9737,-536.3073"/>
</g>
<!-- Node11 -->
<g id="node11" class="node">
<title>Node11</title>
<g id="a_node11"><a xlink:href="../../da/d2f/Fun4All__G4__fsPHENIX__FastSim_8C.html#a66fb850cae5fcaadda23b74a25ce4c9c" target="_top" xlink:title="Fun4All_G4_fsPHENIX\l_FastSim">
<polygon fill="none" stroke="#000000" points="217.5,-633.5 217.5,-665.5 341.5,-665.5 341.5,-633.5 217.5,-633.5"/>
<text text-anchor="start" x="225.5" y="-652.5" font-family="FreeSans" font-size="10.00" fill="#000000">Fun4All_G4_fsPHENIX</text>
<text text-anchor="middle" x="279.5" y="-640.5" font-family="FreeSans" font-size="10.00" fill="#000000">_FastSim</text>
</a>
</g>
</g>
<!-- Node1&#45;&gt;Node11 -->
<g id="edge10" class="edge">
<title>Node1&#45;&gt;Node11</title>
<path fill="none" stroke="#191970" d="M102.1254,-536.3916C123.3977,-563.1205 157.8719,-601.519 196,-624.5 202.6097,-628.4839 209.8998,-631.8726 217.3369,-634.7453"/>
<polygon fill="#191970" stroke="#191970" points="104.874,-534.2246 95.9581,-528.5011 99.3587,-538.5353 104.874,-534.2246"/>
</g>
<!-- Node12 -->
<g id="node12" class="node">
<title>Node12</title>
<g id="a_node12"><a xlink:href="../../d0/da6/Fun4All__G4__fsPHENIX__pi0_8C.html#a023d91d47b678e5d7f1751834aa517c6" target="_top" xlink:title="Fun4All_G4_fsPHENIX_pi0">
<polygon fill="none" stroke="#000000" points="207,-594.5 207,-614.5 352,-614.5 352,-594.5 207,-594.5"/>
<text text-anchor="middle" x="279.5" y="-601.5" font-family="FreeSans" font-size="10.00" fill="#000000">Fun4All_G4_fsPHENIX_pi0</text>
</a>
</g>
</g>
<!-- Node1&#45;&gt;Node12 -->
<g id="edge11" class="edge">
<title>Node1&#45;&gt;Node12</title>
<path fill="none" stroke="#191970" d="M114.467,-535.0619C136.5391,-552.0157 166.4863,-572.644 196,-585.5 204.1781,-589.0623 213.1095,-591.9985 221.9918,-594.4064"/>
<polygon fill="#191970" stroke="#191970" points="116.4457,-532.1663 106.4106,-528.768 112.1362,-537.6825 116.4457,-532.1663"/>
</g>
<!-- Node13 -->
<g id="node13" class="node">
<title>Node13</title>
<g id="a_node13"><a xlink:href="../../dc/d8e/Fun4All__G4__Prototype2_8C.html#a6b8f092c4f51be2938dd09c810ba6226" target="_top" xlink:title="Fun4All_G4_Prototype2">
<polygon fill="none" stroke="#000000" points="213,-555.5 213,-575.5 346,-575.5 346,-555.5 213,-555.5"/>
<text text-anchor="middle" x="279.5" y="-562.5" font-family="FreeSans" font-size="10.00" fill="#000000">Fun4All_G4_Prototype2</text>
</a>
</g>
</g>
<!-- Node1&#45;&gt;Node13 -->
<g id="edge12" class="edge">
<title>Node1&#45;&gt;Node13</title>
<path fill="none" stroke="#191970" d="M149.646,-531.884C164.8277,-537.0327 180.8761,-542.1855 196,-546.5 207.2944,-549.7221 219.5697,-552.7649 231.145,-555.4322"/>
<polygon fill="#191970" stroke="#191970" points="150.4076,-528.4451 139.8129,-528.51 148.1357,-535.0662 150.4076,-528.4451"/>
</g>
<!-- Node14 -->
<g id="node14" class="node">
<title>Node14</title>
<g id="a_node14"><a xlink:href="../../d7/d40/Fun4All__G4__Prototype3_8C.html#a1201361263017b08a070777a0b90b27c" target="_top" xlink:title="Fun4All_G4_Prototype3">
<polygon fill="none" stroke="#000000" points="213,-516.5 213,-536.5 346,-536.5 346,-516.5 213,-516.5"/>
<text text-anchor="middle" x="279.5" y="-523.5" font-family="FreeSans" font-size="10.00" fill="#000000">Fun4All_G4_Prototype3</text>
</a>
</g>
</g>
<!-- Node1&#45;&gt;Node14 -->
<g id="edge13" class="edge">
<title>Node1&#45;&gt;Node14</title>
<path fill="none" stroke="#191970" d="M170.5737,-515.5801C184.7916,-517.0054 199.2602,-518.4559 212.811,-519.8144"/>
<polygon fill="#191970" stroke="#191970" points="170.5812,-512.0634 160.2819,-514.5483 169.8829,-519.0285 170.5812,-512.0634"/>
</g>
<!-- Node15 -->
<g id="node15" class="node">
<title>Node15</title>
<g id="a_node15"><a xlink:href="../../d4/d58/Fun4All__G4__Prototype4_8C.html#acac517f0728af658cbf99c7c9687c908" target="_top" xlink:title="Fun4All_G4_Prototype4">
<polygon fill="none" stroke="#000000" points="213,-477.5 213,-497.5 346,-497.5 346,-477.5 213,-477.5"/>
<text text-anchor="middle" x="279.5" y="-484.5" font-family="FreeSans" font-size="10.00" fill="#000000">Fun4All_G4_Prototype4</text>
</a>
</g>
</g>
<!-- Node1&#45;&gt;Node15 -->
<g id="edge14" class="edge">
<title>Node1&#45;&gt;Node15</title>
<path fill="none" stroke="#191970" d="M170.5737,-497.8739C184.7916,-496.5199 199.2602,-495.1419 212.811,-493.8513"/>
<polygon fill="#191970" stroke="#191970" points="169.905,-494.4217 160.2819,-498.8541 170.5687,-501.3902 169.905,-494.4217"/>
</g>
<!-- Node16 -->
<g id="node16" class="node">
<title>Node16</title>
<g id="a_node16"><a xlink:href="../../d5/d2c/macros_2blob_2master_2macros_2g4simulations_2Fun4All__G4__sPHENIX_8C.html#a6eaaa492d7023ec86c562dc63aa1e5a4" target="_top" xlink:title="Fun4All_G4_sPHENIX">
<polygon fill="none" stroke="#000000" points="219,-438.5 219,-458.5 340,-458.5 340,-438.5 219,-438.5"/>
<text text-anchor="middle" x="279.5" y="-445.5" font-family="FreeSans" font-size="10.00" fill="#000000">Fun4All_G4_sPHENIX</text>
</a>
</g>
</g>
<!-- Node1&#45;&gt;Node16 -->
<g id="edge15" class="edge">
<title>Node1&#45;&gt;Node16</title>
<path fill="none" stroke="#191970" d="M153.7104,-481.3566C167.6929,-476.8707 182.2489,-472.3922 196,-468.5 208.4785,-464.968 222.1192,-461.5268 234.6911,-458.5226"/>
<polygon fill="#191970" stroke="#191970" points="152.574,-478.0456 144.1387,-484.4563 154.7306,-484.7051 152.574,-478.0456"/>
</g>
<!-- Node17 -->
<g id="node17" class="node">
<title>Node17</title>
<g id="a_node17"><a xlink:href="../../d3/de2/Fun4All__G4__sPHENIX__AnaGenFit_8C.html#a9bf3f2f72ed69a17e2d0c1121d48013c" target="_top" xlink:title="Fun4All_G4_sPHENIX\l_AnaGenFit">
<polygon fill="none" stroke="#000000" points="219,-387.5 219,-419.5 340,-419.5 340,-387.5 219,-387.5"/>
<text text-anchor="start" x="227" y="-406.5" font-family="FreeSans" font-size="10.00" fill="#000000">Fun4All_G4_sPHENIX</text>
<text text-anchor="middle" x="279.5" y="-394.5" font-family="FreeSans" font-size="10.00" fill="#000000">_AnaGenFit</text>
</a>
</g>
</g>
<!-- Node1&#45;&gt;Node17 -->
<g id="edge16" class="edge">
<title>Node1&#45;&gt;Node17</title>
<path fill="none" stroke="#191970" d="M116.2932,-478.5106C138.3969,-462.4789 167.7402,-442.9403 196,-429.5 203.6783,-425.8482 211.993,-422.5499 220.2982,-419.6252"/>
<polygon fill="#191970" stroke="#191970" points="114.1789,-475.7209 108.1936,-484.4631 118.3243,-481.3614 114.1789,-475.7209"/>
</g>
<!-- Node18 -->
<g id="node18" class="node">
<title>Node18</title>
<g id="a_node18"><a xlink:href="../../da/dd0/Fun4All__G4__sPHENIX__photonjet_8C.html#a6f18519e216acc05399e562ea57ea77c" target="_top" xlink:title="Fun4All_G4_sPHENIX\l_photonjet">
<polygon fill="none" stroke="#000000" points="219,-336.5 219,-368.5 340,-368.5 340,-336.5 219,-336.5"/>
<text text-anchor="start" x="227" y="-355.5" font-family="FreeSans" font-size="10.00" fill="#000000">Fun4All_G4_sPHENIX</text>
<text text-anchor="middle" x="279.5" y="-343.5" font-family="FreeSans" font-size="10.00" fill="#000000">_photonjet</text>
</a>
</g>
</g>
<!-- Node1&#45;&gt;Node18 -->
<g id="edge17" class="edge">
<title>Node1&#45;&gt;Node18</title>
<path fill="none" stroke="#191970" d="M100.5478,-475.6256C121.3729,-446.6107 156.1402,-403.9478 196,-378.5 203.0385,-374.0064 210.9069,-370.2435 218.9236,-367.1048"/>
<polygon fill="#191970" stroke="#191970" points="97.436,-473.9659 94.5423,-484.1579 103.1603,-477.995 97.436,-473.9659"/>
</g>
<!-- Node19 -->
<g id="node19" class="node">
<title>Node19</title>
<g id="a_node19"><a xlink:href="../../da/d85/Fun4All__G4__sPHENIX__photons_8C.html#a02fbbd59878fe1299f58ed187e7214ba" target="_top" xlink:title="Fun4All_G4_sPHENIX\l_photons">
<polygon fill="none" stroke="#000000" points="219,-285.5 219,-317.5 340,-317.5 340,-285.5 219,-285.5"/>
<text text-anchor="start" x="227" y="-304.5" font-family="FreeSans" font-size="10.00" fill="#000000">Fun4All_G4_sPHENIX</text>
<text text-anchor="middle" x="279.5" y="-292.5" font-family="FreeSans" font-size="10.00" fill="#000000">_photons</text>
</a>
</g>
</g>
<!-- Node1&#45;&gt;Node19 -->
<g id="edge18" class="edge">
<title>Node1&#45;&gt;Node19</title>
<path fill="none" stroke="#191970" d="M92.373,-474.9319C109.6501,-434.8833 144.7537,-366.3631 196,-327.5 202.7747,-322.3623 210.5811,-318.2283 218.6436,-314.9045"/>
<polygon fill="#191970" stroke="#191970" points="89.1152,-473.6502 88.464,-484.225 95.5676,-476.3644 89.1152,-473.6502"/>
</g>
<!-- Node20 -->
<g id="node20" class="node">
<title>Node20</title>
<g id="a_node20"><a xlink:href="../../de/d55/Fun4All__G4__sPHENIX__truthphotonjet_8C.html#a48a6f4503eaa1b3793d8ae572aa795b9" target="_top" xlink:title="Fun4All_G4_sPHENIX\l_truthphotonjet">
<polygon fill="none" stroke="#000000" points="219,-234.5 219,-266.5 340,-266.5 340,-234.5 219,-234.5"/>
<text text-anchor="start" x="227" y="-253.5" font-family="FreeSans" font-size="10.00" fill="#000000">Fun4All_G4_sPHENIX</text>
<text text-anchor="middle" x="279.5" y="-241.5" font-family="FreeSans" font-size="10.00" fill="#000000">_truthphotonjet</text>
</a>
</g>
</g>
<!-- Node1&#45;&gt;Node20 -->
<g id="edge19" class="edge">
<title>Node1&#45;&gt;Node20</title>
<path fill="none" stroke="#191970" d="M87.585,-474.3303C100.9486,-424.6655 133.3971,-329.5267 196,-276.5 202.7196,-270.8083 210.6805,-266.361 218.9753,-262.8865"/>
<polygon fill="#191970" stroke="#191970" points="84.1462,-473.6477 85.019,-484.2065 90.9213,-475.408 84.1462,-473.6477"/>
</g>
<!-- Node21 -->
<g id="node21" class="node">
<title>Node21</title>
<g id="a_node21"><a xlink:href="../../db/da1/Fun4All__G4__TPC_8C.html#af60bcd3cf09ebd567e28ede14e9e894a" target="_top" xlink:title="Fun4All_G4_TPC">
<polygon fill="none" stroke="#000000" points="231,-195.5 231,-215.5 328,-215.5 328,-195.5 231,-195.5"/>
<text text-anchor="middle" x="279.5" y="-202.5" font-family="FreeSans" font-size="10.00" fill="#000000">Fun4All_G4_TPC</text>
</a>
</g>
</g>
<!-- Node1&#45;&gt;Node21 -->
<g id="edge20" class="edge">
<title>Node1&#45;&gt;Node21</title>
<path fill="none" stroke="#191970" d="M83.8021,-474.1168C92.4838,-415.3161 119.3261,-291.0302 196,-225.5 205.7453,-217.171 218.3663,-212.181 230.8311,-209.2265"/>
<polygon fill="#191970" stroke="#191970" points="80.2961,-473.9182 82.3844,-484.3051 87.2293,-474.8829 80.2961,-473.9182"/>
</g>
<!-- Node22 -->
<g id="node22" class="node">
<title>Node22</title>
<g id="a_node22"><a xlink:href="../../da/db5/Fun4All__G4__W_8C.html#ad4745423f42356b6b3cb65bbbc1e917e" target="_top" xlink:title="Fun4All_G4_W">
<polygon fill="none" stroke="#000000" points="235.5,-156.5 235.5,-176.5 323.5,-176.5 323.5,-156.5 235.5,-156.5"/>
<text text-anchor="middle" x="279.5" y="-163.5" font-family="FreeSans" font-size="10.00" fill="#000000">Fun4All_G4_W</text>
</a>
</g>
</g>
<!-- Node1&#45;&gt;Node22 -->
<g id="edge21" class="edge">
<title>Node1&#45;&gt;Node22</title>
<path fill="none" stroke="#191970" d="M81.9279,-474.335C87.6002,-409.6631 109.7913,-263.504 196,-186.5 206.7838,-176.8676 221.3836,-171.6634 235.3593,-168.9145"/>
<polygon fill="#191970" stroke="#191970" points="78.4353,-474.1048 81.126,-484.3523 85.4129,-474.6635 78.4353,-474.1048"/>
</g>
<!-- Node23 -->
<g id="node23" class="node">
<title>Node23</title>
<g id="a_node23"><a xlink:href="../../d4/dfa/Fun4All__Generator__Display_8C.html#af87924a94b22e18901f0d64805565f09" target="_top" xlink:title="Fun4All_Generator_Display">
<polygon fill="none" stroke="#000000" points="203.5,-117.5 203.5,-137.5 355.5,-137.5 355.5,-117.5 203.5,-117.5"/>
<text text-anchor="middle" x="279.5" y="-124.5" font-family="FreeSans" font-size="10.00" fill="#000000">Fun4All_Generator_Display</text>
</a>
</g>
</g>
<!-- Node1&#45;&gt;Node23 -->
<g id="edge22" class="edge">
<title>Node1&#45;&gt;Node23</title>
<path fill="none" stroke="#191970" d="M86.2116,-474.3582C102.1717,-395.0186 146.8295,-193.003 196,-147.5 200.3763,-143.4502 205.4235,-140.1776 210.8252,-137.5383"/>
<polygon fill="#191970" stroke="#191970" points="82.7567,-473.7868 84.2376,-484.2776 89.6221,-475.153 82.7567,-473.7868"/>
</g>
<!-- Node24 -->
<g id="node24" class="node">
<title>Node24</title>
<g id="a_node24"><a xlink:href="../../d4/d65/Fun4All__single__particle_8C.html#a8a492b5dbead494bfdddbebde8a49b0e" target="_top" xlink:title="Fun4All_single_particle">
<polygon fill="none" stroke="#000000" points="213.5,-78.5 213.5,-98.5 345.5,-98.5 345.5,-78.5 213.5,-78.5"/>
<text text-anchor="middle" x="279.5" y="-85.5" font-family="FreeSans" font-size="10.00" fill="#000000">Fun4All_single_particle</text>
</a>
</g>
</g>
<!-- Node1&#45;&gt;Node24 -->
<g id="edge23" class="edge">
<title>Node1&#45;&gt;Node24</title>
<path fill="none" stroke="#191970" d="M85.1219,-474.4201C99.3648,-389.1676 141.9732,-159.9676 196,-108.5 200.9648,-103.7704 206.8414,-100.0947 213.1418,-97.2469"/>
<polygon fill="#191970" stroke="#191970" points="81.6644,-473.8764 83.489,-484.3129 88.5709,-475.0165 81.6644,-473.8764"/>
</g>
<!-- Node25 -->
<g id="node25" class="node">
<title>Node25</title>
<g id="a_node25"><a xlink:href="../../d0/d99/Jin__BJet_8C.html#a36169bfee2ed7efda633944d12aebad9" target="_top" xlink:title="Jin_BJet">
<polygon fill="none" stroke="#000000" points="252,-39.5 252,-59.5 307,-59.5 307,-39.5 252,-39.5"/>
<text text-anchor="middle" x="279.5" y="-46.5" font-family="FreeSans" font-size="10.00" fill="#000000">Jin_BJet</text>
</a>
</g>
</g>
<!-- Node1&#45;&gt;Node25 -->
<g id="edge24" class="edge">
<title>Node1&#45;&gt;Node25</title>
<path fill="none" stroke="#191970" d="M84.2311,-474.4249C96.8603,-383.5093 137.0993,-126.9824 196,-69.5 210.6154,-55.2365 233.5015,-50.5116 251.6203,-49.2009"/>
<polygon fill="#191970" stroke="#191970" points="80.7512,-474.0399 82.8614,-484.4225 87.6864,-474.9901 80.7512,-474.0399"/>
</g>
<!-- Node26 -->
<g id="node26" class="node">
<title>Node26</title>
<g id="a_node26"><a xlink:href="../../dd/db1/Wrapper_8cxx.html#abf1e42281903daa0752c80dd6c879fac" target="_top" xlink:title="Wrapper">
<polygon fill="none" stroke="#000000" points="249.5,-.5 249.5,-20.5 309.5,-20.5 309.5,-.5 249.5,-.5"/>
<text text-anchor="middle" x="279.5" y="-7.5" font-family="FreeSans" font-size="10.00" fill="#000000">Wrapper</text>
</a>
</g>
</g>
<!-- Node1&#45;&gt;Node26 -->
<g id="edge25" class="edge">
<title>Node1&#45;&gt;Node26</title>
<path fill="none" stroke="#191970" d="M83.5089,-474.2C94.643,-377.6514 132.2509,-93.998 196,-30.5 209.8353,-16.7192 231.376,-11.805 249.1133,-10.2917"/>
<polygon fill="#191970" stroke="#191970" points="80.0187,-473.9168 82.3684,-484.2478 86.974,-474.7064 80.0187,-473.9168"/>
</g>
<!-- Node3 -->
<g id="node3" class="node">
<title>Node3</title>
<g id="a_node3"><a xlink:href="../../d3/d7f/Fun_8C.html#af69a3eef3ff244bb51f5740c6ecb5432" target="_top" xlink:title="Fun">
<polygon fill="none" stroke="#000000" points="399,-969.5 399,-989.5 433,-989.5 433,-969.5 399,-969.5"/>
<text text-anchor="middle" x="416" y="-976.5" font-family="FreeSans" font-size="10.00" fill="#000000">Fun</text>
</a>
</g>
</g>
<!-- Node2&#45;&gt;Node3 -->
<g id="edge2" class="edge">
<title>Node2&#45;&gt;Node3</title>
<path fill="none" stroke="#191970" d="M335.9593,-979.5C358.616,-979.5 383.0605,-979.5 398.8935,-979.5"/>
<polygon fill="#191970" stroke="#191970" points="335.7127,-976.0001 325.7127,-979.5 335.7126,-983.0001 335.7127,-976.0001"/>
</g>
</g>
</svg>
