<?xml version="1.0" encoding="UTF-8" standalone="no"?>
<!DOCTYPE svg PUBLIC "-//W3C//DTD SVG 1.1//EN"
 "http://www.w3.org/Graphics/SVG/1.1/DTD/svg11.dtd">
<!-- Generated by graphviz version 2.40.1 (20161225.0304)
 -->
<!-- Title: PHG4TruthInfoContainer::is_primary Pages: 1 -->
<svg width="485pt" height="92pt"
 viewBox="0.00 0.00 485.00 92.00" xmlns="http://www.w3.org/2000/svg" xmlns:xlink="http://www.w3.org/1999/xlink">
<g id="graph0" class="graph" transform="scale(1 1) rotate(0) translate(4 88)">
<title>PHG4TruthInfoContainer::is_primary</title>
<!-- Node1 -->
<g id="node1" class="node">
<title>Node1</title>
<polygon fill="#bfbfbf" stroke="#000000" points="0,-25.5 0,-57.5 139,-57.5 139,-25.5 0,-25.5"/>
<text text-anchor="start" x="8" y="-44.5" font-family="FreeSans" font-size="10.00" fill="#000000">PHG4TruthInfoContainer</text>
<text text-anchor="middle" x="69.5" y="-32.5" font-family="FreeSans" font-size="10.00" fill="#000000">::is_primary</text>
</g>
<!-- Node2 -->
<g id="node2" class="node">
<title>Node2</title>
<g id="a_node2"><a xlink:href="../../dc/d65/classPhotonJet.html#a9b2de7dcbd5e3bbbd26150d418b7bb44" target="_top" xlink:title="PhotonJet::GetRecoHadrons\lAndJets">
<polygon fill="none" stroke="#000000" points="175,-51.5 175,-83.5 331,-83.5 331,-51.5 175,-51.5"/>
<text text-anchor="start" x="183" y="-70.5" font-family="FreeSans" font-size="10.00" fill="#000000">PhotonJet::GetRecoHadrons</text>
<text text-anchor="middle" x="253" y="-58.5" font-family="FreeSans" font-size="10.00" fill="#000000">AndJets</text>
</a>
</g>
</g>
<!-- Node1&#45;&gt;Node2 -->
<g id="edge1" class="edge">
<title>Node1&#45;&gt;Node2</title>
<path fill="none" stroke="#191970" d="M149.075,-52.7749C157.6139,-53.9848 166.2959,-55.215 174.8183,-56.4225"/>
<polygon fill="#191970" stroke="#191970" points="149.5273,-49.3041 139.1351,-51.3666 148.5452,-56.2349 149.5273,-49.3041"/>
</g>
<!-- Node4 -->
<g id="node4" class="node">
<title>Node4</title>
<g id="a_node4"><a xlink:href="../../db/d4c/classBJetModule.html#a93ec29147c2d7aea52780d7370141e74" target="_top" xlink:title="BJetModule::process\l_event">
<polygon fill="none" stroke="#000000" points="193.5,-.5 193.5,-32.5 312.5,-32.5 312.5,-.5 193.5,-.5"/>
<text text-anchor="start" x="201.5" y="-19.5" font-family="FreeSans" font-size="10.00" fill="#000000">BJetModule::process</text>
<text text-anchor="middle" x="253" y="-7.5" font-family="FreeSans" font-size="10.00" fill="#000000">_event</text>
</a>
</g>
</g>
<!-- Node1&#45;&gt;Node4 -->
<g id="edge3" class="edge">
<title>Node1&#45;&gt;Node4</title>
<path fill="none" stroke="#191970" d="M149.2785,-30.631C164.055,-28.6178 179.2531,-26.5473 193.3039,-24.633"/>
<polygon fill="#191970" stroke="#191970" points="148.5711,-27.1949 139.1351,-32.0129 149.5161,-34.1309 148.5711,-27.1949"/>
</g>
<!-- Node3 -->
<g id="node3" class="node">
<title>Node3</title>
<g id="a_node3"><a xlink:href="../../dc/d65/classPhotonJet.html#a3f9d3ec941f851bc2246ceb0c5362c9f" target="_top" xlink:title="PhotonJet::process\l_event">
<polygon fill="none" stroke="#000000" points="367,-51.5 367,-83.5 477,-83.5 477,-51.5 367,-51.5"/>
<text text-anchor="start" x="375" y="-70.5" font-family="FreeSans" font-size="10.00" fill="#000000">PhotonJet::process</text>
<text text-anchor="middle" x="422" y="-58.5" font-family="FreeSans" font-size="10.00" fill="#000000">_event</text>
</a>
</g>
</g>
<!-- Node2&#45;&gt;Node3 -->
<g id="edge2" class="edge">
<title>Node2&#45;&gt;Node3</title>
<path fill="none" stroke="#191970" d="M341.3049,-67.5C350.0223,-67.5 358.6855,-67.5 366.9225,-67.5"/>
<polygon fill="#191970" stroke="#191970" points="341.069,-64.0001 331.069,-67.5 341.069,-71.0001 341.069,-64.0001"/>
</g>
</g>
</svg>
