<?xml version="1.0" encoding="UTF-8" standalone="no"?>
<!DOCTYPE svg PUBLIC "-//W3C//DTD SVG 1.1//EN"
 "http://www.w3.org/Graphics/SVG/1.1/DTD/svg11.dtd">
<!-- Generated by graphviz version 2.40.1 (20161225.0304)
 -->
<!-- Title: PHG4DSTReader::set_save_vertex Pages: 1 -->
<svg width="518pt" height="738pt"
 viewBox="0.00 0.00 518.00 738.00" xmlns="http://www.w3.org/2000/svg" xmlns:xlink="http://www.w3.org/1999/xlink">
<g id="graph0" class="graph" transform="scale(1 1) rotate(0) translate(4 734)">
<title>PHG4DSTReader::set_save_vertex</title>
<!-- Node1 -->
<g id="node1" class="node">
<title>Node1</title>
<polygon fill="#bfbfbf" stroke="#000000" points="0,-488.5 0,-520.5 123,-520.5 123,-488.5 0,-488.5"/>
<text text-anchor="start" x="8" y="-507.5" font-family="FreeSans" font-size="10.00" fill="#000000">PHG4DSTReader::set</text>
<text text-anchor="middle" x="61.5" y="-495.5" font-family="FreeSans" font-size="10.00" fill="#000000">_save_vertex</text>
</g>
<!-- Node2 -->
<g id="node2" class="node">
<title>Node2</title>
<g id="a_node2"><a xlink:href="../../de/d55/Fun4All__G4__block_8C.html#a6a063a649a0dd3318a517d5af98430dd" target="_top" xlink:title="Fun4All_G4_block">
<polygon fill="none" stroke="#000000" points="180.5,-709.5 180.5,-729.5 285.5,-729.5 285.5,-709.5 180.5,-709.5"/>
<text text-anchor="middle" x="233" y="-716.5" font-family="FreeSans" font-size="10.00" fill="#000000">Fun4All_G4_block</text>
</a>
</g>
</g>
<!-- Node1&#45;&gt;Node2 -->
<g id="edge1" class="edge">
<title>Node1&#45;&gt;Node2</title>
<path fill="none" stroke="#191970" d="M67.0196,-530.3271C77.4143,-572.5208 103.9802,-655.9839 159,-700.5 165.1869,-705.5058 172.5386,-709.2088 180.1693,-711.9447"/>
<polygon fill="#191970" stroke="#191970" points="70.4139,-529.4713 64.7178,-520.5379 63.5998,-531.0736 70.4139,-529.4713"/>
</g>
<!-- Node3 -->
<g id="node3" class="node">
<title>Node3</title>
<g id="a_node3"><a xlink:href="../../d5/d01/Fun4All__G4__LeadBrick_8C.html#a5fcd8843f8a815feb3b053eaabd60d41" target="_top" xlink:title="Fun4All_G4_LeadBrick">
<polygon fill="none" stroke="#000000" points="169,-670.5 169,-690.5 297,-690.5 297,-670.5 169,-670.5"/>
<text text-anchor="middle" x="233" y="-677.5" font-family="FreeSans" font-size="10.00" fill="#000000">Fun4All_G4_LeadBrick</text>
</a>
</g>
</g>
<!-- Node1&#45;&gt;Node3 -->
<g id="edge2" class="edge">
<title>Node1&#45;&gt;Node3</title>
<path fill="none" stroke="#191970" d="M70.4346,-530.2393C83.9773,-565.3691 113.0942,-627.8042 159,-661.5 163.9186,-665.1104 169.4588,-668.0367 175.2385,-670.4083"/>
<polygon fill="#191970" stroke="#191970" points="73.6477,-528.8383 66.8782,-520.6882 67.0877,-531.2809 73.6477,-528.8383"/>
</g>
<!-- Node4 -->
<g id="node4" class="node">
<title>Node4</title>
<g id="a_node4"><a xlink:href="../../dc/d8e/Fun4All__G4__Prototype2_8C.html#a6b8f092c4f51be2938dd09c810ba6226" target="_top" xlink:title="Fun4All_G4_Prototype2">
<polygon fill="none" stroke="#000000" points="166.5,-631.5 166.5,-651.5 299.5,-651.5 299.5,-631.5 166.5,-631.5"/>
<text text-anchor="middle" x="233" y="-638.5" font-family="FreeSans" font-size="10.00" fill="#000000">Fun4All_G4_Prototype2</text>
</a>
</g>
</g>
<!-- Node1&#45;&gt;Node4 -->
<g id="edge3" class="edge">
<title>Node1&#45;&gt;Node4</title>
<path fill="none" stroke="#191970" d="M75.5233,-529.4803C92.0047,-556.519 121.8753,-598.9245 159,-622.5 164.7105,-626.1264 171.0826,-629.0619 177.6261,-631.438"/>
<polygon fill="#191970" stroke="#191970" points="78.375,-527.4273 70.2621,-520.6132 72.3549,-530.9993 78.375,-527.4273"/>
</g>
<!-- Node5 -->
<g id="node5" class="node">
<title>Node5</title>
<g id="a_node5"><a xlink:href="../../d7/d40/Fun4All__G4__Prototype3_8C.html#a1201361263017b08a070777a0b90b27c" target="_top" xlink:title="Fun4All_G4_Prototype3">
<polygon fill="none" stroke="#000000" points="166.5,-592.5 166.5,-612.5 299.5,-612.5 299.5,-592.5 166.5,-592.5"/>
<text text-anchor="middle" x="233" y="-599.5" font-family="FreeSans" font-size="10.00" fill="#000000">Fun4All_G4_Prototype3</text>
</a>
</g>
</g>
<!-- Node1&#45;&gt;Node5 -->
<g id="edge4" class="edge">
<title>Node1&#45;&gt;Node5</title>
<path fill="none" stroke="#191970" d="M84.2485,-527.759C102.8217,-545.4787 130.5616,-569.1919 159,-583.5 166.1093,-587.0769 173.951,-590.0208 181.7913,-592.4319"/>
<polygon fill="#191970" stroke="#191970" points="86.4802,-525.0468 76.8745,-520.5767 81.596,-530.0613 86.4802,-525.0468"/>
</g>
<!-- Node6 -->
<g id="node6" class="node">
<title>Node6</title>
<g id="a_node6"><a xlink:href="../../d4/d58/Fun4All__G4__Prototype4_8C.html#acac517f0728af658cbf99c7c9687c908" target="_top" xlink:title="Fun4All_G4_Prototype4">
<polygon fill="none" stroke="#000000" points="166.5,-553.5 166.5,-573.5 299.5,-573.5 299.5,-553.5 166.5,-553.5"/>
<text text-anchor="middle" x="233" y="-560.5" font-family="FreeSans" font-size="10.00" fill="#000000">Fun4All_G4_Prototype4</text>
</a>
</g>
</g>
<!-- Node1&#45;&gt;Node6 -->
<g id="edge5" class="edge">
<title>Node1&#45;&gt;Node6</title>
<path fill="none" stroke="#191970" d="M106.4926,-524.476C122.8417,-531.3293 141.5802,-538.721 159,-544.5 168.8196,-547.7576 179.5252,-550.794 189.6652,-553.4415"/>
<polygon fill="#191970" stroke="#191970" points="107.7433,-521.2046 97.1707,-520.5193 105.0083,-527.6483 107.7433,-521.2046"/>
</g>
<!-- Node7 -->
<g id="node7" class="node">
<title>Node7</title>
<g id="a_node7"><a xlink:href="../../db/da1/Fun4All__G4__TPC_8C.html#af60bcd3cf09ebd567e28ede14e9e894a" target="_top" xlink:title="Fun4All_G4_TPC">
<polygon fill="none" stroke="#000000" points="184.5,-514.5 184.5,-534.5 281.5,-534.5 281.5,-514.5 184.5,-514.5"/>
<text text-anchor="middle" x="233" y="-521.5" font-family="FreeSans" font-size="10.00" fill="#000000">Fun4All_G4_TPC</text>
</a>
</g>
</g>
<!-- Node1&#45;&gt;Node7 -->
<g id="edge6" class="edge">
<title>Node1&#45;&gt;Node7</title>
<path fill="none" stroke="#191970" d="M133.4161,-512.8867C150.587,-514.8892 168.5181,-516.9802 184.3567,-518.8273"/>
<polygon fill="#191970" stroke="#191970" points="133.7536,-509.4024 123.4154,-511.7205 132.9427,-516.3553 133.7536,-509.4024"/>
</g>
<!-- Node8 -->
<g id="node8" class="node">
<title>Node8</title>
<g id="a_node8"><a xlink:href="../../da/db5/Fun4All__G4__W_8C.html#ad4745423f42356b6b3cb65bbbc1e917e" target="_top" xlink:title="Fun4All_G4_W">
<polygon fill="none" stroke="#000000" points="189,-475.5 189,-495.5 277,-495.5 277,-475.5 189,-475.5"/>
<text text-anchor="middle" x="233" y="-482.5" font-family="FreeSans" font-size="10.00" fill="#000000">Fun4All_G4_W</text>
</a>
</g>
</g>
<!-- Node1&#45;&gt;Node8 -->
<g id="edge7" class="edge">
<title>Node1&#45;&gt;Node8</title>
<path fill="none" stroke="#191970" d="M133.4575,-496.528C152.2868,-494.442 172.0273,-492.255 188.918,-490.3837"/>
<polygon fill="#191970" stroke="#191970" points="132.9692,-493.0606 123.4154,-497.6406 133.7401,-500.0181 132.9692,-493.0606"/>
</g>
<!-- Node9 -->
<g id="node9" class="node">
<title>Node9</title>
<g id="a_node9"><a xlink:href="../../de/d6b/Fun4All__MCEventGen_8C.html#a4e6d2272e7266684626c0653520558ef" target="_top" xlink:title="Fun4All_MCEventGen">
<polygon fill="none" stroke="#000000" points="171.5,-436.5 171.5,-456.5 294.5,-456.5 294.5,-436.5 171.5,-436.5"/>
<text text-anchor="middle" x="233" y="-443.5" font-family="FreeSans" font-size="10.00" fill="#000000">Fun4All_MCEventGen</text>
</a>
</g>
</g>
<!-- Node1&#45;&gt;Node9 -->
<g id="edge8" class="edge">
<title>Node1&#45;&gt;Node9</title>
<path fill="none" stroke="#191970" d="M109.5264,-484.598C125.1724,-478.4336 142.7078,-471.8593 159,-466.5 169.8719,-462.9237 181.7905,-459.4931 192.8255,-456.514"/>
<polygon fill="#191970" stroke="#191970" points="108.0525,-481.4176 100.0567,-488.3687 110.6421,-487.921 108.0525,-481.4176"/>
</g>
<!-- Node10 -->
<g id="node10" class="node">
<title>Node10</title>
<g id="a_node10"><a xlink:href="../../d5/dea/macros_2blob_2master_2macros_2g4simulations_2G4__DSTReader_8C.html#aae87b67a3fc1892b475dc629db854fb1" target="_top" xlink:title="G4DSTreader">
<polygon fill="none" stroke="#000000" points="191.5,-397.5 191.5,-417.5 274.5,-417.5 274.5,-397.5 191.5,-397.5"/>
<text text-anchor="middle" x="233" y="-404.5" font-family="FreeSans" font-size="10.00" fill="#000000">G4DSTreader</text>
</a>
</g>
</g>
<!-- Node1&#45;&gt;Node10 -->
<g id="edge9" class="edge">
<title>Node1&#45;&gt;Node10</title>
<path fill="none" stroke="#191970" d="M85.0798,-481.3317C103.731,-464.1974 131.1828,-441.4978 159,-427.5 168.9858,-422.4751 180.3858,-418.5944 191.1966,-415.6481"/>
<polygon fill="#191970" stroke="#191970" points="82.5546,-478.9014 77.6499,-488.2926 87.3405,-484.0098 82.5546,-478.9014"/>
</g>
<!-- Node18 -->
<g id="node18" class="node">
<title>Node18</title>
<g id="a_node18"><a xlink:href="../../d6/d37/macros_2blob_2master_2macros_2g4simulations_2G4__DSTReader__EICDetector_8C.html#a3c95a5ba8e13c6b9f5ac978dbf2abeda" target="_top" xlink:title="G4DSTreader_EICDetector">
<polygon fill="none" stroke="#000000" points="159,-258.5 159,-278.5 307,-278.5 307,-258.5 159,-258.5"/>
<text text-anchor="middle" x="233" y="-265.5" font-family="FreeSans" font-size="10.00" fill="#000000">G4DSTreader_EICDetector</text>
</a>
</g>
</g>
<!-- Node1&#45;&gt;Node18 -->
<g id="edge17" class="edge">
<title>Node1&#45;&gt;Node18</title>
<path fill="none" stroke="#191970" d="M79.2156,-480.1217C116.2162,-429.2054 200.3639,-313.4103 225.6686,-278.5887"/>
<polygon fill="#191970" stroke="#191970" points="76.3352,-478.1316 73.2879,-488.2788 81.998,-482.2467 76.3352,-478.1316"/>
</g>
<!-- Node23 -->
<g id="node23" class="node">
<title>Node23</title>
<g id="a_node23"><a xlink:href="../../d4/dc5/G4__DSTReader__EICIR_8C.html#a82cfa02e91bc8577d341eb22d18d34b4" target="_top" xlink:title="G4DSTreader_EICIR">
<polygon fill="none" stroke="#000000" points="176,-174.5 176,-194.5 290,-194.5 290,-174.5 176,-174.5"/>
<text text-anchor="middle" x="233" y="-181.5" font-family="FreeSans" font-size="10.00" fill="#000000">G4DSTreader_EICIR</text>
</a>
</g>
</g>
<!-- Node1&#45;&gt;Node23 -->
<g id="edge22" class="edge">
<title>Node1&#45;&gt;Node23</title>
<path fill="none" stroke="#191970" d="M67.0779,-478.2977C78.3247,-429.7587 107.1764,-324.024 159,-249.5 175.1082,-226.3359 201.193,-206.0295 217.7023,-194.5198"/>
<polygon fill="#191970" stroke="#191970" points="63.6099,-477.7662 64.8258,-488.291 70.4387,-479.3051 63.6099,-477.7662"/>
</g>
<!-- Node25 -->
<g id="node25" class="node">
<title>Node25</title>
<g id="a_node25"><a xlink:href="../../da/d5f/macros_2blob_2master_2macros_2g4simulations_2G4__DSTReader__fsPHENIX_8C.html#a369eb57e3fef872b2b1c43dbe2ed571c" target="_top" xlink:title="G4DSTreader_fsPHENIX">
<polygon fill="none" stroke="#000000" points="166,-68.5 166,-88.5 300,-88.5 300,-68.5 166,-68.5"/>
<text text-anchor="middle" x="233" y="-75.5" font-family="FreeSans" font-size="10.00" fill="#000000">G4DSTreader_fsPHENIX</text>
</a>
</g>
</g>
<!-- Node1&#45;&gt;Node25 -->
<g id="edge24" class="edge">
<title>Node1&#45;&gt;Node25</title>
<path fill="none" stroke="#191970" d="M65.1362,-478.4684C74.1438,-419.6987 101.0801,-273.4535 159,-165.5 175.8744,-134.0488 205.6037,-103.8144 221.7682,-88.6346"/>
<polygon fill="#191970" stroke="#191970" points="61.6691,-477.9889 63.6595,-488.3951 68.5929,-479.019 61.6691,-477.9889"/>
</g>
<!-- Node11 -->
<g id="node11" class="node">
<title>Node11</title>
<g id="a_node11"><a xlink:href="../../d5/d2c/macros_2blob_2master_2macros_2g4simulations_2Fun4All__G4__sPHENIX_8C.html#a6eaaa492d7023ec86c562dc63aa1e5a4" target="_top" xlink:title="Fun4All_G4_sPHENIX">
<polygon fill="none" stroke="#000000" points="366,-618.5 366,-638.5 487,-638.5 487,-618.5 366,-618.5"/>
<text text-anchor="middle" x="426.5" y="-625.5" font-family="FreeSans" font-size="10.00" fill="#000000">Fun4All_G4_sPHENIX</text>
</a>
</g>
</g>
<!-- Node10&#45;&gt;Node11 -->
<g id="edge10" class="edge">
<title>Node10&#45;&gt;Node11</title>
<path fill="none" stroke="#191970" d="M284.2815,-413.372C292.811,-416.4303 300.8635,-420.9269 307,-427.5 363.269,-487.7728 285.5301,-550.3711 343,-609.5 349.3208,-616.0033 357.3703,-620.4861 365.9658,-623.5421"/>
<polygon fill="#191970" stroke="#191970" points="285.1069,-409.9665 274.5253,-410.4962 283.1277,-416.6809 285.1069,-409.9665"/>
</g>
<!-- Node12 -->
<g id="node12" class="node">
<title>Node12</title>
<g id="a_node12"><a xlink:href="../../d3/de2/Fun4All__G4__sPHENIX__AnaGenFit_8C.html#a9bf3f2f72ed69a17e2d0c1121d48013c" target="_top" xlink:title="Fun4All_G4_sPHENIX\l_AnaGenFit">
<polygon fill="none" stroke="#000000" points="366,-567.5 366,-599.5 487,-599.5 487,-567.5 366,-567.5"/>
<text text-anchor="start" x="374" y="-586.5" font-family="FreeSans" font-size="10.00" fill="#000000">Fun4All_G4_sPHENIX</text>
<text text-anchor="middle" x="426.5" y="-574.5" font-family="FreeSans" font-size="10.00" fill="#000000">_AnaGenFit</text>
</a>
</g>
</g>
<!-- Node10&#45;&gt;Node12 -->
<g id="edge11" class="edge">
<title>Node10&#45;&gt;Node12</title>
<path fill="none" stroke="#191970" d="M284.1749,-413.8406C292.6397,-416.8606 300.6965,-421.2231 307,-427.5 349.7857,-470.1053 300.7921,-515.3222 343,-558.5 349.3468,-564.9926 357.3053,-569.8151 365.7714,-573.3937"/>
<polygon fill="#191970" stroke="#191970" points="285.0989,-410.464 274.5162,-410.971 283.1053,-417.1741 285.0989,-410.464"/>
</g>
<!-- Node13 -->
<g id="node13" class="node">
<title>Node13</title>
<g id="a_node13"><a xlink:href="../../da/dd0/Fun4All__G4__sPHENIX__photonjet_8C.html#a6f18519e216acc05399e562ea57ea77c" target="_top" xlink:title="Fun4All_G4_sPHENIX\l_photonjet">
<polygon fill="none" stroke="#000000" points="366,-516.5 366,-548.5 487,-548.5 487,-516.5 366,-516.5"/>
<text text-anchor="start" x="374" y="-535.5" font-family="FreeSans" font-size="10.00" fill="#000000">Fun4All_G4_sPHENIX</text>
<text text-anchor="middle" x="426.5" y="-523.5" font-family="FreeSans" font-size="10.00" fill="#000000">_photonjet</text>
</a>
</g>
</g>
<!-- Node10&#45;&gt;Node13 -->
<g id="edge12" class="edge">
<title>Node10&#45;&gt;Node13</title>
<path fill="none" stroke="#191970" d="M284.5118,-415.0548C292.6603,-417.9655 300.5216,-421.9771 307,-427.5 336.6709,-452.7949 313.6725,-481.8076 343,-507.5 349.6017,-513.2835 357.4982,-517.7296 365.7638,-521.1474"/>
<polygon fill="#191970" stroke="#191970" points="285.4658,-411.6866 274.8798,-412.1189 283.4249,-418.3825 285.4658,-411.6866"/>
</g>
<!-- Node14 -->
<g id="node14" class="node">
<title>Node14</title>
<g id="a_node14"><a xlink:href="../../da/d85/Fun4All__G4__sPHENIX__photons_8C.html#a02fbbd59878fe1299f58ed187e7214ba" target="_top" xlink:title="Fun4All_G4_sPHENIX\l_photons">
<polygon fill="none" stroke="#000000" points="366,-465.5 366,-497.5 487,-497.5 487,-465.5 366,-465.5"/>
<text text-anchor="start" x="374" y="-484.5" font-family="FreeSans" font-size="10.00" fill="#000000">Fun4All_G4_sPHENIX</text>
<text text-anchor="middle" x="426.5" y="-472.5" font-family="FreeSans" font-size="10.00" fill="#000000">_photons</text>
</a>
</g>
</g>
<!-- Node10&#45;&gt;Node14 -->
<g id="edge13" class="edge">
<title>Node10&#45;&gt;Node14</title>
<path fill="none" stroke="#191970" d="M284.5656,-418.4646C292.2847,-420.9473 299.9959,-423.933 307,-427.5 325.3081,-436.8239 324.8191,-446.9303 343,-456.5 350.097,-460.2356 357.8344,-463.496 365.6428,-466.3178"/>
<polygon fill="#191970" stroke="#191970" points="285.4187,-415.067 274.8364,-415.5829 283.4307,-421.7788 285.4187,-415.067"/>
</g>
<!-- Node15 -->
<g id="node15" class="node">
<title>Node15</title>
<g id="a_node15"><a xlink:href="../../de/d55/Fun4All__G4__sPHENIX__truthphotonjet_8C.html#a48a6f4503eaa1b3793d8ae572aa795b9" target="_top" xlink:title="Fun4All_G4_sPHENIX\l_truthphotonjet">
<polygon fill="none" stroke="#000000" points="366,-414.5 366,-446.5 487,-446.5 487,-414.5 366,-414.5"/>
<text text-anchor="start" x="374" y="-433.5" font-family="FreeSans" font-size="10.00" fill="#000000">Fun4All_G4_sPHENIX</text>
<text text-anchor="middle" x="426.5" y="-421.5" font-family="FreeSans" font-size="10.00" fill="#000000">_truthphotonjet</text>
</a>
</g>
</g>
<!-- Node10&#45;&gt;Node15 -->
<g id="edge14" class="edge">
<title>Node10&#45;&gt;Node15</title>
<path fill="none" stroke="#191970" d="M284.5382,-413.626C309.5755,-416.602 339.8243,-420.1975 365.9554,-423.3035"/>
<polygon fill="#191970" stroke="#191970" points="284.8538,-410.139 274.5106,-412.4341 284.0276,-417.09 284.8538,-410.139"/>
</g>
<!-- Node16 -->
<g id="node16" class="node">
<title>Node16</title>
<g id="a_node16"><a xlink:href="../../d4/d65/Fun4All__single__particle_8C.html#a8a492b5dbead494bfdddbebde8a49b0e" target="_top" xlink:title="Fun4All_single_particle">
<polygon fill="none" stroke="#000000" points="360.5,-375.5 360.5,-395.5 492.5,-395.5 492.5,-375.5 360.5,-375.5"/>
<text text-anchor="middle" x="426.5" y="-382.5" font-family="FreeSans" font-size="10.00" fill="#000000">Fun4All_single_particle</text>
</a>
</g>
</g>
<!-- Node10&#45;&gt;Node16 -->
<g id="edge15" class="edge">
<title>Node10&#45;&gt;Node16</title>
<path fill="none" stroke="#191970" d="M284.5173,-401.6427C307.7785,-398.9981 335.5412,-395.8416 360.3217,-393.0242"/>
<polygon fill="#191970" stroke="#191970" points="284.0512,-398.1731 274.5106,-402.7804 284.842,-405.1283 284.0512,-398.1731"/>
</g>
<!-- Node17 -->
<g id="node17" class="node">
<title>Node17</title>
<g id="a_node17"><a xlink:href="../../d0/d99/Jin__BJet_8C.html#a36169bfee2ed7efda633944d12aebad9" target="_top" xlink:title="Jin_BJet">
<polygon fill="none" stroke="#000000" points="399,-336.5 399,-356.5 454,-356.5 454,-336.5 399,-336.5"/>
<text text-anchor="middle" x="426.5" y="-343.5" font-family="FreeSans" font-size="10.00" fill="#000000">Jin_BJet</text>
</a>
</g>
</g>
<!-- Node10&#45;&gt;Node17 -->
<g id="edge16" class="edge">
<title>Node10&#45;&gt;Node17</title>
<path fill="none" stroke="#191970" d="M266.9785,-393.6137C288.5326,-385.1109 317.1345,-374.3861 343,-366.5 361.3936,-360.892 382.4523,-355.8574 398.8197,-352.2423"/>
<polygon fill="#191970" stroke="#191970" points="265.602,-390.3945 257.6064,-397.3458 268.1918,-396.8978 265.602,-390.3945"/>
</g>
<!-- Node19 -->
<g id="node19" class="node">
<title>Node19</title>
<g id="a_node19"><a xlink:href="../../da/d02/Fun4All__G4__EICDetector_8C.html#afbe82cefa1d1fd031d9a8586b7bb68c6" target="_top" xlink:title="Fun4All_G4_EICDetector">
<polygon fill="none" stroke="#000000" points="357,-297.5 357,-317.5 496,-317.5 496,-297.5 357,-297.5"/>
<text text-anchor="middle" x="426.5" y="-304.5" font-family="FreeSans" font-size="10.00" fill="#000000">Fun4All_G4_EICDetector</text>
</a>
</g>
</g>
<!-- Node18&#45;&gt;Node19 -->
<g id="edge18" class="edge">
<title>Node18&#45;&gt;Node19</title>
<path fill="none" stroke="#191970" d="M292.9113,-280.5751C319.8405,-286.0027 351.2458,-292.3325 376.8378,-297.4906"/>
<polygon fill="#191970" stroke="#191970" points="293.3255,-277.0883 282.8311,-278.5435 291.9424,-283.9503 293.3255,-277.0883"/>
</g>
<!-- Node20 -->
<g id="node20" class="node">
<title>Node20</title>
<g id="a_node20"><a xlink:href="../../dd/d2a/Fun4All__G4__EICDetector__LQ_8C.html#aaa01242fd6e77ca43a9d49a6d46008e4" target="_top" xlink:title="Fun4All_G4_EICDetector_LQ">
<polygon fill="none" stroke="#000000" points="348.5,-258.5 348.5,-278.5 504.5,-278.5 504.5,-258.5 348.5,-258.5"/>
<text text-anchor="middle" x="426.5" y="-265.5" font-family="FreeSans" font-size="10.00" fill="#000000">Fun4All_G4_EICDetector_LQ</text>
</a>
</g>
</g>
<!-- Node18&#45;&gt;Node20 -->
<g id="edge19" class="edge">
<title>Node18&#45;&gt;Node20</title>
<path fill="none" stroke="#191970" d="M317.4277,-268.5C327.6766,-268.5 338.113,-268.5 348.2668,-268.5"/>
<polygon fill="#191970" stroke="#191970" points="317.2588,-265.0001 307.2588,-268.5 317.2587,-272.0001 317.2588,-265.0001"/>
</g>
<!-- Node21 -->
<g id="node21" class="node">
<title>Node21</title>
<g id="a_node21"><a xlink:href="../../d4/df5/Fun4All__G4__EICDetector__LQ__reference_8C.html#a2feefc472f17f90b3cbe74897d049f75" target="_top" xlink:title="Fun4All_G4_EICDetector\l_LQ_reference">
<polygon fill="none" stroke="#000000" points="357,-207.5 357,-239.5 496,-239.5 496,-207.5 357,-207.5"/>
<text text-anchor="start" x="365" y="-226.5" font-family="FreeSans" font-size="10.00" fill="#000000">Fun4All_G4_EICDetector</text>
<text text-anchor="middle" x="426.5" y="-214.5" font-family="FreeSans" font-size="10.00" fill="#000000">_LQ_reference</text>
</a>
</g>
</g>
<!-- Node18&#45;&gt;Node21 -->
<g id="edge20" class="edge">
<title>Node18&#45;&gt;Node21</title>
<path fill="none" stroke="#191970" d="M286.2365,-256.1194C308.2183,-251.0074 333.9856,-245.015 357.3955,-239.5708"/>
<polygon fill="#191970" stroke="#191970" points="285.3724,-252.7269 276.4252,-258.4011 286.9581,-259.5449 285.3724,-252.7269"/>
</g>
<!-- Node22 -->
<g id="node22" class="node">
<title>Node22</title>
<g id="a_node22"><a xlink:href="../../d3/d51/Fun4All__G4__EICDetector__RICH_8C.html#a5739502b0a7a1ba782c01069f77e933f" target="_top" xlink:title="Fun4All_G4_EICDetector_RICH">
<polygon fill="none" stroke="#000000" points="343,-168.5 343,-188.5 510,-188.5 510,-168.5 343,-168.5"/>
<text text-anchor="middle" x="426.5" y="-175.5" font-family="FreeSans" font-size="10.00" fill="#000000">Fun4All_G4_EICDetector_RICH</text>
</a>
</g>
</g>
<!-- Node18&#45;&gt;Node22 -->
<g id="edge21" class="edge">
<title>Node18&#45;&gt;Node22</title>
<path fill="none" stroke="#191970" d="M253.7525,-252.3028C275.0387,-236.4328 309.6622,-212.6308 343,-198.5 352.3327,-194.5442 362.5989,-191.2787 372.6442,-188.6161"/>
<polygon fill="#191970" stroke="#191970" points="251.6088,-249.5358 245.7519,-258.3647 255.8362,-255.1152 251.6088,-249.5358"/>
</g>
<!-- Node24 -->
<g id="node24" class="node">
<title>Node24</title>
<g id="a_node24"><a xlink:href="../../d9/d0e/Fun4All__G4__EICIR_8C.html#ac3543d1dd4a0abed3987d40939ee3f87" target="_top" xlink:title="Fun4All_G4_EICIR">
<polygon fill="none" stroke="#000000" points="374.5,-129.5 374.5,-149.5 478.5,-149.5 478.5,-129.5 374.5,-129.5"/>
<text text-anchor="middle" x="426.5" y="-136.5" font-family="FreeSans" font-size="10.00" fill="#000000">Fun4All_G4_EICIR</text>
</a>
</g>
</g>
<!-- Node23&#45;&gt;Node24 -->
<g id="edge23" class="edge">
<title>Node23&#45;&gt;Node24</title>
<path fill="none" stroke="#191970" d="M286.4587,-172.0677C316.9302,-164.9814 354.6191,-156.2165 383.2198,-149.5652"/>
<polygon fill="#191970" stroke="#191970" points="285.3724,-168.7269 276.4252,-174.4011 286.9581,-175.5449 285.3724,-168.7269"/>
</g>
<!-- Node26 -->
<g id="node26" class="node">
<title>Node26</title>
<g id="a_node26"><a xlink:href="../../d7/d9e/Fun4All__G4__fsPHENIX_8C.html#af48911d394d2412e817583700f2bbee2" target="_top" xlink:title="Fun4All_G4_fsPHENIX">
<polygon fill="none" stroke="#000000" points="364.5,-90.5 364.5,-110.5 488.5,-110.5 488.5,-90.5 364.5,-90.5"/>
<text text-anchor="middle" x="426.5" y="-97.5" font-family="FreeSans" font-size="10.00" fill="#000000">Fun4All_G4_fsPHENIX</text>
</a>
</g>
</g>
<!-- Node25&#45;&gt;Node26 -->
<g id="edge25" class="edge">
<title>Node25&#45;&gt;Node26</title>
<path fill="none" stroke="#191970" d="M310.2891,-87.2874C328.2498,-89.3294 347.1438,-91.4776 364.3551,-93.4344"/>
<polygon fill="#191970" stroke="#191970" points="310.4653,-83.785 300.1339,-86.1328 309.6744,-90.7401 310.4653,-83.785"/>
</g>
<!-- Node27 -->
<g id="node27" class="node">
<title>Node27</title>
<g id="a_node27"><a xlink:href="../../da/d2f/Fun4All__G4__fsPHENIX__FastSim_8C.html#a66fb850cae5fcaadda23b74a25ce4c9c" target="_top" xlink:title="Fun4All_G4_fsPHENIX\l_FastSim">
<polygon fill="none" stroke="#000000" points="364.5,-39.5 364.5,-71.5 488.5,-71.5 488.5,-39.5 364.5,-39.5"/>
<text text-anchor="start" x="372.5" y="-58.5" font-family="FreeSans" font-size="10.00" fill="#000000">Fun4All_G4_fsPHENIX</text>
<text text-anchor="middle" x="426.5" y="-46.5" font-family="FreeSans" font-size="10.00" fill="#000000">_FastSim</text>
</a>
</g>
</g>
<!-- Node25&#45;&gt;Node27 -->
<g id="edge26" class="edge">
<title>Node25&#45;&gt;Node27</title>
<path fill="none" stroke="#191970" d="M310.2891,-69.3132C328.2498,-67.1783 347.1438,-64.9325 364.3551,-62.8867"/>
<polygon fill="#191970" stroke="#191970" points="309.6508,-65.8643 300.1339,-70.5203 310.4771,-72.8154 309.6508,-65.8643"/>
</g>
<!-- Node28 -->
<g id="node28" class="node">
<title>Node28</title>
<g id="a_node28"><a xlink:href="../../d0/da6/Fun4All__G4__fsPHENIX__pi0_8C.html#a023d91d47b678e5d7f1751834aa517c6" target="_top" xlink:title="Fun4All_G4_fsPHENIX_pi0">
<polygon fill="none" stroke="#000000" points="354,-.5 354,-20.5 499,-20.5 499,-.5 354,-.5"/>
<text text-anchor="middle" x="426.5" y="-7.5" font-family="FreeSans" font-size="10.00" fill="#000000">Fun4All_G4_fsPHENIX_pi0</text>
</a>
</g>
</g>
<!-- Node25&#45;&gt;Node28 -->
<g id="edge27" class="edge">
<title>Node25&#45;&gt;Node28</title>
<path fill="none" stroke="#191970" d="M262.3279,-64.0109C284.1741,-53.6374 314.9475,-39.8983 343,-30.5 354.1662,-26.759 366.3925,-23.4223 377.9612,-20.5967"/>
<polygon fill="#191970" stroke="#191970" points="260.7518,-60.885 253.2535,-68.37 263.783,-67.1947 260.7518,-60.885"/>
</g>
</g>
</svg>
