<?xml version="1.0" encoding="UTF-8" standalone="no"?>
<!DOCTYPE svg PUBLIC "-//W3C//DTD SVG 1.1//EN"
 "http://www.w3.org/Graphics/SVG/1.1/DTD/svg11.dtd">
<!-- Generated by graphviz version 2.40.1 (20161225.0304)
 -->
<!-- Title: PHG4DSTReader::AddTower Pages: 1 -->
<svg width="551pt" height="608pt"
 viewBox="0.00 0.00 551.00 608.00" xmlns="http://www.w3.org/2000/svg" xmlns:xlink="http://www.w3.org/1999/xlink">
<g id="graph0" class="graph" transform="scale(1 1) rotate(0) translate(4 604)">
<title>PHG4DSTReader::AddTower</title>
<!-- Node1 -->
<g id="node1" class="node">
<title>Node1</title>
<polygon fill="#bfbfbf" stroke="#000000" points="0,-400.5 0,-420.5 156,-420.5 156,-400.5 0,-400.5"/>
<text text-anchor="middle" x="78" y="-407.5" font-family="FreeSans" font-size="10.00" fill="#000000">PHG4DSTReader::AddTower</text>
</g>
<!-- Node2 -->
<g id="node2" class="node">
<title>Node2</title>
<g id="a_node2"><a xlink:href="../../dc/d8e/Fun4All__G4__Prototype2_8C.html#a6b8f092c4f51be2938dd09c810ba6226" target="_top" xlink:title="Fun4All_G4_Prototype2">
<polygon fill="none" stroke="#000000" points="199.5,-498.5 199.5,-518.5 332.5,-518.5 332.5,-498.5 199.5,-498.5"/>
<text text-anchor="middle" x="266" y="-505.5" font-family="FreeSans" font-size="10.00" fill="#000000">Fun4All_G4_Prototype2</text>
</a>
</g>
</g>
<!-- Node1&#45;&gt;Node2 -->
<g id="edge1" class="edge">
<title>Node1&#45;&gt;Node2</title>
<path fill="none" stroke="#191970" d="M97.2413,-427.062C118.913,-444.9118 155.8449,-472.9769 192,-489.5 199.7209,-493.0285 208.2063,-495.9802 216.5914,-498.423"/>
<polygon fill="#191970" stroke="#191970" points="99.37,-424.2794 89.4553,-420.5445 94.8769,-429.6471 99.37,-424.2794"/>
</g>
<!-- Node3 -->
<g id="node3" class="node">
<title>Node3</title>
<g id="a_node3"><a xlink:href="../../d7/d40/Fun4All__G4__Prototype3_8C.html#a1201361263017b08a070777a0b90b27c" target="_top" xlink:title="Fun4All_G4_Prototype3">
<polygon fill="none" stroke="#000000" points="199.5,-459.5 199.5,-479.5 332.5,-479.5 332.5,-459.5 199.5,-459.5"/>
<text text-anchor="middle" x="266" y="-466.5" font-family="FreeSans" font-size="10.00" fill="#000000">Fun4All_G4_Prototype3</text>
</a>
</g>
</g>
<!-- Node1&#45;&gt;Node3 -->
<g id="edge2" class="edge">
<title>Node1&#45;&gt;Node3</title>
<path fill="none" stroke="#191970" d="M113.9163,-423.9948C136.2311,-432.1559 165.5979,-442.4948 192,-450.5 202.4085,-453.6559 213.7415,-456.7394 224.3388,-459.4732"/>
<polygon fill="#191970" stroke="#191970" points="115.099,-420.7006 104.5055,-420.5294 112.6801,-427.2694 115.099,-420.7006"/>
</g>
<!-- Node4 -->
<g id="node4" class="node">
<title>Node4</title>
<g id="a_node4"><a xlink:href="../../d4/d58/Fun4All__G4__Prototype4_8C.html#acac517f0728af658cbf99c7c9687c908" target="_top" xlink:title="Fun4All_G4_Prototype4">
<polygon fill="none" stroke="#000000" points="199.5,-420.5 199.5,-440.5 332.5,-440.5 332.5,-420.5 199.5,-420.5"/>
<text text-anchor="middle" x="266" y="-427.5" font-family="FreeSans" font-size="10.00" fill="#000000">Fun4All_G4_Prototype4</text>
</a>
</g>
</g>
<!-- Node1&#45;&gt;Node4 -->
<g id="edge3" class="edge">
<title>Node1&#45;&gt;Node4</title>
<path fill="none" stroke="#191970" d="M166.2342,-419.8866C177.3262,-421.0666 188.5256,-422.258 199.2116,-423.3949"/>
<polygon fill="#191970" stroke="#191970" points="166.4098,-416.3856 156.0957,-418.808 165.6693,-423.3464 166.4098,-416.3856"/>
</g>
<!-- Node5 -->
<g id="node5" class="node">
<title>Node5</title>
<g id="a_node5"><a xlink:href="../../d5/dea/macros_2blob_2master_2macros_2g4simulations_2G4__DSTReader_8C.html#aae87b67a3fc1892b475dc629db854fb1" target="_top" xlink:title="G4DSTreader">
<polygon fill="none" stroke="#000000" points="224.5,-381.5 224.5,-401.5 307.5,-401.5 307.5,-381.5 224.5,-381.5"/>
<text text-anchor="middle" x="266" y="-388.5" font-family="FreeSans" font-size="10.00" fill="#000000">G4DSTreader</text>
</a>
</g>
</g>
<!-- Node1&#45;&gt;Node5 -->
<g id="edge4" class="edge">
<title>Node1&#45;&gt;Node5</title>
<path fill="none" stroke="#191970" d="M166.3107,-401.575C186.5603,-399.5285 207.1633,-397.4463 224.3423,-395.7101"/>
<polygon fill="#191970" stroke="#191970" points="165.693,-398.1195 156.0957,-402.6074 166.3969,-405.084 165.693,-398.1195"/>
</g>
<!-- Node13 -->
<g id="node13" class="node">
<title>Node13</title>
<g id="a_node13"><a xlink:href="../../d6/d37/macros_2blob_2master_2macros_2g4simulations_2G4__DSTReader__EICDetector_8C.html#a3c95a5ba8e13c6b9f5ac978dbf2abeda" target="_top" xlink:title="G4DSTreader_EICDetector">
<polygon fill="none" stroke="#000000" points="192,-219.5 192,-239.5 340,-239.5 340,-219.5 192,-219.5"/>
<text text-anchor="middle" x="266" y="-226.5" font-family="FreeSans" font-size="10.00" fill="#000000">G4DSTreader_EICDetector</text>
</a>
</g>
</g>
<!-- Node1&#45;&gt;Node13 -->
<g id="edge12" class="edge">
<title>Node1&#45;&gt;Node13</title>
<path fill="none" stroke="#191970" d="M96.0946,-393.0791C134.8251,-355.7907 224.727,-269.2363 255.4704,-239.6375"/>
<polygon fill="#191970" stroke="#191970" points="93.4228,-390.793 88.6464,-400.2501 98.2778,-395.8357 93.4228,-390.793"/>
</g>
<!-- Node18 -->
<g id="node18" class="node">
<title>Node18</title>
<g id="a_node18"><a xlink:href="../../da/d5f/macros_2blob_2master_2macros_2g4simulations_2G4__DSTReader__fsPHENIX_8C.html#a369eb57e3fef872b2b1c43dbe2ed571c" target="_top" xlink:title="G4DSTreader_fsPHENIX">
<polygon fill="none" stroke="#000000" points="199,-68.5 199,-88.5 333,-88.5 333,-68.5 199,-68.5"/>
<text text-anchor="middle" x="266" y="-75.5" font-family="FreeSans" font-size="10.00" fill="#000000">G4DSTreader_fsPHENIX</text>
</a>
</g>
</g>
<!-- Node1&#45;&gt;Node18 -->
<g id="edge17" class="edge">
<title>Node1&#45;&gt;Node18</title>
<path fill="none" stroke="#191970" d="M88.7918,-391.4422C123.8483,-329.5339 233.7869,-135.387 260.2354,-88.68"/>
<polygon fill="#191970" stroke="#191970" points="85.7145,-389.7735 83.8326,-400.1998 91.8058,-393.2227 85.7145,-389.7735"/>
</g>
<!-- Node6 -->
<g id="node6" class="node">
<title>Node6</title>
<g id="a_node6"><a xlink:href="../../d5/d2c/macros_2blob_2master_2macros_2g4simulations_2Fun4All__G4__sPHENIX_8C.html#a6eaaa492d7023ec86c562dc63aa1e5a4" target="_top" xlink:title="Fun4All_G4_sPHENIX">
<polygon fill="none" stroke="#000000" points="399,-579.5 399,-599.5 520,-599.5 520,-579.5 399,-579.5"/>
<text text-anchor="middle" x="459.5" y="-586.5" font-family="FreeSans" font-size="10.00" fill="#000000">Fun4All_G4_sPHENIX</text>
</a>
</g>
</g>
<!-- Node5&#45;&gt;Node6 -->
<g id="edge5" class="edge">
<title>Node5&#45;&gt;Node6</title>
<path fill="none" stroke="#191970" d="M317.4116,-397.6083C325.8532,-400.6509 333.841,-405.0813 340,-411.5 390.1648,-463.7807 324.7939,-519.2388 376,-570.5 382.3042,-576.811 390.2401,-581.2074 398.6965,-584.24"/>
<polygon fill="#191970" stroke="#191970" points="318.3443,-394.2342 307.7611,-394.7306 316.3439,-400.9423 318.3443,-394.2342"/>
</g>
<!-- Node7 -->
<g id="node7" class="node">
<title>Node7</title>
<g id="a_node7"><a xlink:href="../../d3/de2/Fun4All__G4__sPHENIX__AnaGenFit_8C.html#a9bf3f2f72ed69a17e2d0c1121d48013c" target="_top" xlink:title="Fun4All_G4_sPHENIX\l_AnaGenFit">
<polygon fill="none" stroke="#000000" points="399,-528.5 399,-560.5 520,-560.5 520,-528.5 399,-528.5"/>
<text text-anchor="start" x="407" y="-547.5" font-family="FreeSans" font-size="10.00" fill="#000000">Fun4All_G4_sPHENIX</text>
<text text-anchor="middle" x="459.5" y="-535.5" font-family="FreeSans" font-size="10.00" fill="#000000">_AnaGenFit</text>
</a>
</g>
</g>
<!-- Node5&#45;&gt;Node7 -->
<g id="edge6" class="edge">
<title>Node5&#45;&gt;Node7</title>
<path fill="none" stroke="#191970" d="M317.4506,-398.3156C325.7438,-401.2983 333.6698,-405.5255 340,-411.5 376.7957,-446.2286 339.6754,-484.2789 376,-519.5 382.4097,-525.715 390.3001,-530.3932 398.6482,-533.9128"/>
<polygon fill="#191970" stroke="#191970" points="318.2046,-394.8875 307.6201,-395.3557 316.1864,-401.5902 318.2046,-394.8875"/>
</g>
<!-- Node8 -->
<g id="node8" class="node">
<title>Node8</title>
<g id="a_node8"><a xlink:href="../../da/dd0/Fun4All__G4__sPHENIX__photonjet_8C.html#a6f18519e216acc05399e562ea57ea77c" target="_top" xlink:title="Fun4All_G4_sPHENIX\l_photonjet">
<polygon fill="none" stroke="#000000" points="399,-477.5 399,-509.5 520,-509.5 520,-477.5 399,-477.5"/>
<text text-anchor="start" x="407" y="-496.5" font-family="FreeSans" font-size="10.00" fill="#000000">Fun4All_G4_sPHENIX</text>
<text text-anchor="middle" x="459.5" y="-484.5" font-family="FreeSans" font-size="10.00" fill="#000000">_photonjet</text>
</a>
</g>
</g>
<!-- Node5&#45;&gt;Node8 -->
<g id="edge7" class="edge">
<title>Node5&#45;&gt;Node8</title>
<path fill="none" stroke="#191970" d="M317.4263,-400.0327C325.4561,-402.8346 333.3006,-406.5564 340,-411.5 364.1095,-429.2908 352.1324,-450.3861 376,-468.5 382.7502,-473.623 390.5428,-477.7009 398.5988,-480.9459"/>
<polygon fill="#191970" stroke="#191970" points="318.1898,-396.6068 307.6043,-397.0509 316.1563,-403.305 318.1898,-396.6068"/>
</g>
<!-- Node9 -->
<g id="node9" class="node">
<title>Node9</title>
<g id="a_node9"><a xlink:href="../../da/d85/Fun4All__G4__sPHENIX__photons_8C.html#a02fbbd59878fe1299f58ed187e7214ba" target="_top" xlink:title="Fun4All_G4_sPHENIX\l_photons">
<polygon fill="none" stroke="#000000" points="399,-426.5 399,-458.5 520,-458.5 520,-426.5 399,-426.5"/>
<text text-anchor="start" x="407" y="-445.5" font-family="FreeSans" font-size="10.00" fill="#000000">Fun4All_G4_sPHENIX</text>
<text text-anchor="middle" x="459.5" y="-433.5" font-family="FreeSans" font-size="10.00" fill="#000000">_photons</text>
</a>
</g>
</g>
<!-- Node5&#45;&gt;Node9 -->
<g id="edge8" class="edge">
<title>Node5&#45;&gt;Node9</title>
<path fill="none" stroke="#191970" d="M314.0919,-404.1754C339.7392,-410.9351 371.5539,-419.3204 398.8788,-426.5223"/>
<polygon fill="#191970" stroke="#191970" points="314.7912,-400.7402 304.2294,-401.576 313.0071,-407.5091 314.7912,-400.7402"/>
</g>
<!-- Node10 -->
<g id="node10" class="node">
<title>Node10</title>
<g id="a_node10"><a xlink:href="../../de/d55/Fun4All__G4__sPHENIX__truthphotonjet_8C.html#a48a6f4503eaa1b3793d8ae572aa795b9" target="_top" xlink:title="Fun4All_G4_sPHENIX\l_truthphotonjet">
<polygon fill="none" stroke="#000000" points="399,-375.5 399,-407.5 520,-407.5 520,-375.5 399,-375.5"/>
<text text-anchor="start" x="407" y="-394.5" font-family="FreeSans" font-size="10.00" fill="#000000">Fun4All_G4_sPHENIX</text>
<text text-anchor="middle" x="459.5" y="-382.5" font-family="FreeSans" font-size="10.00" fill="#000000">_truthphotonjet</text>
</a>
</g>
</g>
<!-- Node5&#45;&gt;Node10 -->
<g id="edge9" class="edge">
<title>Node5&#45;&gt;Node10</title>
<path fill="none" stroke="#191970" d="M317.5382,-391.5C342.5755,-391.5 372.8243,-391.5 398.9554,-391.5"/>
<polygon fill="#191970" stroke="#191970" points="317.5106,-388.0001 307.5106,-391.5 317.5106,-395.0001 317.5106,-388.0001"/>
</g>
<!-- Node11 -->
<g id="node11" class="node">
<title>Node11</title>
<g id="a_node11"><a xlink:href="../../d4/d65/Fun4All__single__particle_8C.html#a8a492b5dbead494bfdddbebde8a49b0e" target="_top" xlink:title="Fun4All_single_particle">
<polygon fill="none" stroke="#000000" points="393.5,-336.5 393.5,-356.5 525.5,-356.5 525.5,-336.5 393.5,-336.5"/>
<text text-anchor="middle" x="459.5" y="-343.5" font-family="FreeSans" font-size="10.00" fill="#000000">Fun4All_single_particle</text>
</a>
</g>
</g>
<!-- Node5&#45;&gt;Node11 -->
<g id="edge10" class="edge">
<title>Node5&#45;&gt;Node11</title>
<path fill="none" stroke="#191970" d="M317.6412,-379.4904C348.4778,-372.3191 387.1913,-363.316 416.3824,-356.5274"/>
<polygon fill="#191970" stroke="#191970" points="316.4579,-376.1721 307.5106,-381.8464 318.0435,-382.9902 316.4579,-376.1721"/>
</g>
<!-- Node12 -->
<g id="node12" class="node">
<title>Node12</title>
<g id="a_node12"><a xlink:href="../../d0/d99/Jin__BJet_8C.html#a36169bfee2ed7efda633944d12aebad9" target="_top" xlink:title="Jin_BJet">
<polygon fill="none" stroke="#000000" points="432,-297.5 432,-317.5 487,-317.5 487,-297.5 432,-297.5"/>
<text text-anchor="middle" x="459.5" y="-304.5" font-family="FreeSans" font-size="10.00" fill="#000000">Jin_BJet</text>
</a>
</g>
</g>
<!-- Node5&#45;&gt;Node12 -->
<g id="edge11" class="edge">
<title>Node5&#45;&gt;Node12</title>
<path fill="none" stroke="#191970" d="M288.6984,-375.6304C310.2649,-361.2119 344.0558,-340.2966 376,-327.5 393.9888,-320.2938 415.2402,-315.2489 431.8017,-312.0286"/>
<polygon fill="#191970" stroke="#191970" points="286.5526,-372.8567 280.2451,-381.3694 290.4845,-378.6481 286.5526,-372.8567"/>
</g>
<!-- Node14 -->
<g id="node14" class="node">
<title>Node14</title>
<g id="a_node14"><a xlink:href="../../da/d02/Fun4All__G4__EICDetector_8C.html#afbe82cefa1d1fd031d9a8586b7bb68c6" target="_top" xlink:title="Fun4All_G4_EICDetector">
<polygon fill="none" stroke="#000000" points="390,-258.5 390,-278.5 529,-278.5 529,-258.5 390,-258.5"/>
<text text-anchor="middle" x="459.5" y="-265.5" font-family="FreeSans" font-size="10.00" fill="#000000">Fun4All_G4_EICDetector</text>
</a>
</g>
</g>
<!-- Node13&#45;&gt;Node14 -->
<g id="edge13" class="edge">
<title>Node13&#45;&gt;Node14</title>
<path fill="none" stroke="#191970" d="M325.9113,-241.5751C352.8405,-247.0027 384.2458,-253.3325 409.8378,-258.4906"/>
<polygon fill="#191970" stroke="#191970" points="326.3255,-238.0883 315.8311,-239.5435 324.9424,-244.9503 326.3255,-238.0883"/>
</g>
<!-- Node15 -->
<g id="node15" class="node">
<title>Node15</title>
<g id="a_node15"><a xlink:href="../../dd/d2a/Fun4All__G4__EICDetector__LQ_8C.html#aaa01242fd6e77ca43a9d49a6d46008e4" target="_top" xlink:title="Fun4All_G4_EICDetector_LQ">
<polygon fill="none" stroke="#000000" points="381.5,-219.5 381.5,-239.5 537.5,-239.5 537.5,-219.5 381.5,-219.5"/>
<text text-anchor="middle" x="459.5" y="-226.5" font-family="FreeSans" font-size="10.00" fill="#000000">Fun4All_G4_EICDetector_LQ</text>
</a>
</g>
</g>
<!-- Node13&#45;&gt;Node15 -->
<g id="edge14" class="edge">
<title>Node13&#45;&gt;Node15</title>
<path fill="none" stroke="#191970" d="M350.4277,-229.5C360.6766,-229.5 371.113,-229.5 381.2668,-229.5"/>
<polygon fill="#191970" stroke="#191970" points="350.2588,-226.0001 340.2588,-229.5 350.2587,-233.0001 350.2588,-226.0001"/>
</g>
<!-- Node16 -->
<g id="node16" class="node">
<title>Node16</title>
<g id="a_node16"><a xlink:href="../../d4/df5/Fun4All__G4__EICDetector__LQ__reference_8C.html#a2feefc472f17f90b3cbe74897d049f75" target="_top" xlink:title="Fun4All_G4_EICDetector\l_LQ_reference">
<polygon fill="none" stroke="#000000" points="390,-168.5 390,-200.5 529,-200.5 529,-168.5 390,-168.5"/>
<text text-anchor="start" x="398" y="-187.5" font-family="FreeSans" font-size="10.00" fill="#000000">Fun4All_G4_EICDetector</text>
<text text-anchor="middle" x="459.5" y="-175.5" font-family="FreeSans" font-size="10.00" fill="#000000">_LQ_reference</text>
</a>
</g>
</g>
<!-- Node13&#45;&gt;Node16 -->
<g id="edge15" class="edge">
<title>Node13&#45;&gt;Node16</title>
<path fill="none" stroke="#191970" d="M319.2365,-217.1194C341.2183,-212.0074 366.9856,-206.015 390.3955,-200.5708"/>
<polygon fill="#191970" stroke="#191970" points="318.3724,-213.7269 309.4252,-219.4011 319.9581,-220.5449 318.3724,-213.7269"/>
</g>
<!-- Node17 -->
<g id="node17" class="node">
<title>Node17</title>
<g id="a_node17"><a xlink:href="../../d3/d51/Fun4All__G4__EICDetector__RICH_8C.html#a5739502b0a7a1ba782c01069f77e933f" target="_top" xlink:title="Fun4All_G4_EICDetector_RICH">
<polygon fill="none" stroke="#000000" points="376,-129.5 376,-149.5 543,-149.5 543,-129.5 376,-129.5"/>
<text text-anchor="middle" x="459.5" y="-136.5" font-family="FreeSans" font-size="10.00" fill="#000000">Fun4All_G4_EICDetector_RICH</text>
</a>
</g>
</g>
<!-- Node13&#45;&gt;Node17 -->
<g id="edge16" class="edge">
<title>Node13&#45;&gt;Node17</title>
<path fill="none" stroke="#191970" d="M286.7525,-213.3028C308.0387,-197.4328 342.6622,-173.6308 376,-159.5 385.3327,-155.5442 395.5989,-152.2787 405.6442,-149.6161"/>
<polygon fill="#191970" stroke="#191970" points="284.6088,-210.5358 278.7519,-219.3647 288.8362,-216.1152 284.6088,-210.5358"/>
</g>
<!-- Node19 -->
<g id="node19" class="node">
<title>Node19</title>
<g id="a_node19"><a xlink:href="../../d7/d9e/Fun4All__G4__fsPHENIX_8C.html#af48911d394d2412e817583700f2bbee2" target="_top" xlink:title="Fun4All_G4_fsPHENIX">
<polygon fill="none" stroke="#000000" points="397.5,-90.5 397.5,-110.5 521.5,-110.5 521.5,-90.5 397.5,-90.5"/>
<text text-anchor="middle" x="459.5" y="-97.5" font-family="FreeSans" font-size="10.00" fill="#000000">Fun4All_G4_fsPHENIX</text>
</a>
</g>
</g>
<!-- Node18&#45;&gt;Node19 -->
<g id="edge18" class="edge">
<title>Node18&#45;&gt;Node19</title>
<path fill="none" stroke="#191970" d="M343.2891,-87.2874C361.2498,-89.3294 380.1438,-91.4776 397.3551,-93.4344"/>
<polygon fill="#191970" stroke="#191970" points="343.4653,-83.785 333.1339,-86.1328 342.6744,-90.7401 343.4653,-83.785"/>
</g>
<!-- Node20 -->
<g id="node20" class="node">
<title>Node20</title>
<g id="a_node20"><a xlink:href="../../da/d2f/Fun4All__G4__fsPHENIX__FastSim_8C.html#a66fb850cae5fcaadda23b74a25ce4c9c" target="_top" xlink:title="Fun4All_G4_fsPHENIX\l_FastSim">
<polygon fill="none" stroke="#000000" points="397.5,-39.5 397.5,-71.5 521.5,-71.5 521.5,-39.5 397.5,-39.5"/>
<text text-anchor="start" x="405.5" y="-58.5" font-family="FreeSans" font-size="10.00" fill="#000000">Fun4All_G4_fsPHENIX</text>
<text text-anchor="middle" x="459.5" y="-46.5" font-family="FreeSans" font-size="10.00" fill="#000000">_FastSim</text>
</a>
</g>
</g>
<!-- Node18&#45;&gt;Node20 -->
<g id="edge19" class="edge">
<title>Node18&#45;&gt;Node20</title>
<path fill="none" stroke="#191970" d="M343.2891,-69.3132C361.2498,-67.1783 380.1438,-64.9325 397.3551,-62.8867"/>
<polygon fill="#191970" stroke="#191970" points="342.6508,-65.8643 333.1339,-70.5203 343.4771,-72.8154 342.6508,-65.8643"/>
</g>
<!-- Node21 -->
<g id="node21" class="node">
<title>Node21</title>
<g id="a_node21"><a xlink:href="../../d0/da6/Fun4All__G4__fsPHENIX__pi0_8C.html#a023d91d47b678e5d7f1751834aa517c6" target="_top" xlink:title="Fun4All_G4_fsPHENIX_pi0">
<polygon fill="none" stroke="#000000" points="387,-.5 387,-20.5 532,-20.5 532,-.5 387,-.5"/>
<text text-anchor="middle" x="459.5" y="-7.5" font-family="FreeSans" font-size="10.00" fill="#000000">Fun4All_G4_fsPHENIX_pi0</text>
</a>
</g>
</g>
<!-- Node18&#45;&gt;Node21 -->
<g id="edge20" class="edge">
<title>Node18&#45;&gt;Node21</title>
<path fill="none" stroke="#191970" d="M295.3279,-64.0109C317.1741,-53.6374 347.9475,-39.8983 376,-30.5 387.1662,-26.759 399.3925,-23.4223 410.9612,-20.5967"/>
<polygon fill="#191970" stroke="#191970" points="293.7518,-60.885 286.2535,-68.37 296.783,-67.1947 293.7518,-60.885"/>
</g>
</g>
</svg>
