<?xml version="1.0" encoding="UTF-8" standalone="no"?>
<!DOCTYPE svg PUBLIC "-//W3C//DTD SVG 1.1//EN"
 "http://www.w3.org/Graphics/SVG/1.1/DTD/svg11.dtd">
<!-- Generated by graphviz version 2.40.1 (20161225.0304)
 -->
<!-- Title: PHG4DSTReader::AddNode Pages: 1 -->
<svg width="548pt" height="699pt"
 viewBox="0.00 0.00 548.00 699.00" xmlns="http://www.w3.org/2000/svg" xmlns:xlink="http://www.w3.org/1999/xlink">
<g id="graph0" class="graph" transform="scale(1 1) rotate(0) translate(4 695)">
<title>PHG4DSTReader::AddNode</title>
<!-- Node1 -->
<g id="node1" class="node">
<title>Node1</title>
<polygon fill="#bfbfbf" stroke="#000000" points="0,-475.5 0,-495.5 153,-495.5 153,-475.5 0,-475.5"/>
<text text-anchor="middle" x="76.5" y="-482.5" font-family="FreeSans" font-size="10.00" fill="#000000">PHG4DSTReader::AddNode</text>
</g>
<!-- Node2 -->
<g id="node2" class="node">
<title>Node2</title>
<g id="a_node2"><a xlink:href="../../de/d55/Fun4All__G4__block_8C.html#a6a063a649a0dd3318a517d5af98430dd" target="_top" xlink:title="Fun4All_G4_block">
<polygon fill="none" stroke="#000000" points="210.5,-670.5 210.5,-690.5 315.5,-690.5 315.5,-670.5 210.5,-670.5"/>
<text text-anchor="middle" x="263" y="-677.5" font-family="FreeSans" font-size="10.00" fill="#000000">Fun4All_G4_block</text>
</a>
</g>
</g>
<!-- Node1&#45;&gt;Node2 -->
<g id="edge1" class="edge">
<title>Node1&#45;&gt;Node2</title>
<path fill="none" stroke="#191970" d="M83.4943,-505.3189C97.5047,-542.0477 132.5907,-620.6566 189,-661.5 195.3386,-666.0895 202.6861,-669.5727 210.2408,-672.2159"/>
<polygon fill="#191970" stroke="#191970" points="86.7064,-503.9133 79.9612,-495.743 80.1391,-506.3364 86.7064,-503.9133"/>
</g>
<!-- Node3 -->
<g id="node3" class="node">
<title>Node3</title>
<g id="a_node3"><a xlink:href="../../d5/d01/Fun4All__G4__LeadBrick_8C.html#a5fcd8843f8a815feb3b053eaabd60d41" target="_top" xlink:title="Fun4All_G4_LeadBrick">
<polygon fill="none" stroke="#000000" points="199,-631.5 199,-651.5 327,-651.5 327,-631.5 199,-631.5"/>
<text text-anchor="middle" x="263" y="-638.5" font-family="FreeSans" font-size="10.00" fill="#000000">Fun4All_G4_LeadBrick</text>
</a>
</g>
</g>
<!-- Node1&#45;&gt;Node3 -->
<g id="edge2" class="edge">
<title>Node1&#45;&gt;Node3</title>
<path fill="none" stroke="#191970" d="M86.8078,-504.6063C103.9459,-534.4965 141.1956,-592.0404 189,-622.5 194.7049,-626.135 201.0738,-629.0758 207.6155,-631.4547"/>
<polygon fill="#191970" stroke="#191970" points="89.7136,-502.6313 81.7805,-495.6088 83.6028,-506.0457 89.7136,-502.6313"/>
</g>
<!-- Node4 -->
<g id="node4" class="node">
<title>Node4</title>
<g id="a_node4"><a xlink:href="../../dc/d8e/Fun4All__G4__Prototype2_8C.html#a6b8f092c4f51be2938dd09c810ba6226" target="_top" xlink:title="Fun4All_G4_Prototype2">
<polygon fill="none" stroke="#000000" points="196.5,-592.5 196.5,-612.5 329.5,-612.5 329.5,-592.5 196.5,-592.5"/>
<text text-anchor="middle" x="263" y="-599.5" font-family="FreeSans" font-size="10.00" fill="#000000">Fun4All_G4_Prototype2</text>
</a>
</g>
</g>
<!-- Node1&#45;&gt;Node4 -->
<g id="edge3" class="edge">
<title>Node1&#45;&gt;Node4</title>
<path fill="none" stroke="#191970" d="M91.8319,-503.1838C111.9421,-525.2637 149.3557,-562.66 189,-583.5 195.8095,-587.0796 203.332,-590.0125 210.8947,-592.4079"/>
<polygon fill="#191970" stroke="#191970" points="94.2748,-500.6647 85.003,-495.5378 89.0539,-505.3276 94.2748,-500.6647"/>
</g>
<!-- Node5 -->
<g id="node5" class="node">
<title>Node5</title>
<g id="a_node5"><a xlink:href="../../d7/d40/Fun4All__G4__Prototype3_8C.html#a1201361263017b08a070777a0b90b27c" target="_top" xlink:title="Fun4All_G4_Prototype3">
<polygon fill="none" stroke="#000000" points="196.5,-553.5 196.5,-573.5 329.5,-573.5 329.5,-553.5 196.5,-553.5"/>
<text text-anchor="middle" x="263" y="-560.5" font-family="FreeSans" font-size="10.00" fill="#000000">Fun4All_G4_Prototype3</text>
</a>
</g>
</g>
<!-- Node1&#45;&gt;Node5 -->
<g id="edge4" class="edge">
<title>Node1&#45;&gt;Node5</title>
<path fill="none" stroke="#191970" d="M101.5139,-500.7778C123.8066,-513.8618 157.6604,-532.4465 189,-544.5 197.9135,-547.9282 207.6667,-550.931 217.0821,-553.4765"/>
<polygon fill="#191970" stroke="#191970" points="103.0929,-497.6447 92.7087,-495.5422 99.5153,-503.6614 103.0929,-497.6447"/>
</g>
<!-- Node6 -->
<g id="node6" class="node">
<title>Node6</title>
<g id="a_node6"><a xlink:href="../../d4/d58/Fun4All__G4__Prototype4_8C.html#acac517f0728af658cbf99c7c9687c908" target="_top" xlink:title="Fun4All_G4_Prototype4">
<polygon fill="none" stroke="#000000" points="196.5,-514.5 196.5,-534.5 329.5,-534.5 329.5,-514.5 196.5,-514.5"/>
<text text-anchor="middle" x="263" y="-521.5" font-family="FreeSans" font-size="10.00" fill="#000000">Fun4All_G4_Prototype4</text>
</a>
</g>
</g>
<!-- Node1&#45;&gt;Node6 -->
<g id="edge5" class="edge">
<title>Node1&#45;&gt;Node6</title>
<path fill="none" stroke="#191970" d="M134.5872,-497.6469C160.4655,-503.0585 190.5768,-509.3552 215.1344,-514.4906"/>
<polygon fill="#191970" stroke="#191970" points="135.0331,-494.1645 124.5284,-495.5435 133.6002,-501.0163 135.0331,-494.1645"/>
</g>
<!-- Node7 -->
<g id="node7" class="node">
<title>Node7</title>
<g id="a_node7"><a xlink:href="../../db/da1/Fun4All__G4__TPC_8C.html#af60bcd3cf09ebd567e28ede14e9e894a" target="_top" xlink:title="Fun4All_G4_TPC">
<polygon fill="none" stroke="#000000" points="214.5,-475.5 214.5,-495.5 311.5,-495.5 311.5,-475.5 214.5,-475.5"/>
<text text-anchor="middle" x="263" y="-482.5" font-family="FreeSans" font-size="10.00" fill="#000000">Fun4All_G4_TPC</text>
</a>
</g>
</g>
<!-- Node1&#45;&gt;Node7 -->
<g id="edge6" class="edge">
<title>Node1&#45;&gt;Node7</title>
<path fill="none" stroke="#191970" d="M163.4226,-485.5C180.9366,-485.5 198.7495,-485.5 214.375,-485.5"/>
<polygon fill="#191970" stroke="#191970" points="163.1641,-482.0001 153.1641,-485.5 163.164,-489.0001 163.1641,-482.0001"/>
</g>
<!-- Node8 -->
<g id="node8" class="node">
<title>Node8</title>
<g id="a_node8"><a xlink:href="../../da/db5/Fun4All__G4__W_8C.html#ad4745423f42356b6b3cb65bbbc1e917e" target="_top" xlink:title="Fun4All_G4_W">
<polygon fill="none" stroke="#000000" points="219,-436.5 219,-456.5 307,-456.5 307,-436.5 219,-436.5"/>
<text text-anchor="middle" x="263" y="-443.5" font-family="FreeSans" font-size="10.00" fill="#000000">Fun4All_G4_W</text>
</a>
</g>
</g>
<!-- Node1&#45;&gt;Node8 -->
<g id="edge7" class="edge">
<title>Node1&#45;&gt;Node8</title>
<path fill="none" stroke="#191970" d="M134.3477,-473.4032C161.6416,-467.6956 193.6875,-460.9943 218.9682,-455.7077"/>
<polygon fill="#191970" stroke="#191970" points="133.6002,-469.9837 124.5284,-475.4565 135.0331,-476.8355 133.6002,-469.9837"/>
</g>
<!-- Node9 -->
<g id="node9" class="node">
<title>Node9</title>
<g id="a_node9"><a xlink:href="../../d5/dea/macros_2blob_2master_2macros_2g4simulations_2G4__DSTReader_8C.html#aae87b67a3fc1892b475dc629db854fb1" target="_top" xlink:title="G4DSTreader">
<polygon fill="none" stroke="#000000" points="221.5,-397.5 221.5,-417.5 304.5,-417.5 304.5,-397.5 221.5,-397.5"/>
<text text-anchor="middle" x="263" y="-404.5" font-family="FreeSans" font-size="10.00" fill="#000000">G4DSTreader</text>
</a>
</g>
</g>
<!-- Node1&#45;&gt;Node9 -->
<g id="edge8" class="edge">
<title>Node1&#45;&gt;Node9</title>
<path fill="none" stroke="#191970" d="M101.973,-470.3827C124.3158,-457.6111 157.9875,-439.5282 189,-427.5 199.2983,-423.5058 210.6976,-419.9992 221.4013,-417.0839"/>
<polygon fill="#191970" stroke="#191970" points="100.0348,-467.4604 93.132,-475.4979 103.5404,-473.5194 100.0348,-467.4604"/>
</g>
<!-- Node17 -->
<g id="node17" class="node">
<title>Node17</title>
<g id="a_node17"><a xlink:href="../../d6/d37/macros_2blob_2master_2macros_2g4simulations_2G4__DSTReader__EICDetector_8C.html#a3c95a5ba8e13c6b9f5ac978dbf2abeda" target="_top" xlink:title="G4DSTreader_EICDetector">
<polygon fill="none" stroke="#000000" points="189,-258.5 189,-278.5 337,-278.5 337,-258.5 189,-258.5"/>
<text text-anchor="middle" x="263" y="-265.5" font-family="FreeSans" font-size="10.00" fill="#000000">G4DSTreader_EICDetector</text>
</a>
</g>
</g>
<!-- Node1&#45;&gt;Node17 -->
<g id="edge16" class="edge">
<title>Node1&#45;&gt;Node17</title>
<path fill="none" stroke="#191970" d="M91.962,-467.5093C129.579,-423.7405 224.9335,-312.7919 254.2738,-278.6533"/>
<polygon fill="#191970" stroke="#191970" points="89.1088,-465.4594 85.2451,-475.3247 94.4175,-470.0221 89.1088,-465.4594"/>
</g>
<!-- Node22 -->
<g id="node22" class="node">
<title>Node22</title>
<g id="a_node22"><a xlink:href="../../d4/dc5/G4__DSTReader__EICIR_8C.html#a82cfa02e91bc8577d341eb22d18d34b4" target="_top" xlink:title="G4DSTreader_EICIR">
<polygon fill="none" stroke="#000000" points="206,-174.5 206,-194.5 320,-194.5 320,-174.5 206,-174.5"/>
<text text-anchor="middle" x="263" y="-181.5" font-family="FreeSans" font-size="10.00" fill="#000000">G4DSTreader_EICIR</text>
</a>
</g>
</g>
<!-- Node1&#45;&gt;Node22 -->
<g id="edge21" class="edge">
<title>Node1&#45;&gt;Node22</title>
<path fill="none" stroke="#191970" d="M82.9072,-465.5459C97.2225,-422.9349 134.8538,-321.1051 189,-249.5 206.1206,-226.8591 232.1528,-206.25 248.3406,-194.5575"/>
<polygon fill="#191970" stroke="#191970" points="79.509,-464.6754 79.7033,-475.2684 86.1573,-466.8662 79.509,-464.6754"/>
</g>
<!-- Node24 -->
<g id="node24" class="node">
<title>Node24</title>
<g id="a_node24"><a xlink:href="../../da/d5f/macros_2blob_2master_2macros_2g4simulations_2G4__DSTReader__fsPHENIX_8C.html#a369eb57e3fef872b2b1c43dbe2ed571c" target="_top" xlink:title="G4DSTreader_fsPHENIX">
<polygon fill="none" stroke="#000000" points="196,-68.5 196,-88.5 330,-88.5 330,-68.5 196,-68.5"/>
<text text-anchor="middle" x="263" y="-75.5" font-family="FreeSans" font-size="10.00" fill="#000000">G4DSTreader_fsPHENIX</text>
</a>
</g>
</g>
<!-- Node1&#45;&gt;Node24 -->
<g id="edge23" class="edge">
<title>Node1&#45;&gt;Node24</title>
<path fill="none" stroke="#191970" d="M80.8814,-465.2499C92.7493,-413.0002 128.7389,-270.3959 189,-165.5 206.8783,-134.3795 236.4676,-103.7746 252.2707,-88.5132"/>
<polygon fill="#191970" stroke="#191970" points="77.4138,-464.7199 78.6586,-475.2414 84.2468,-466.2401 77.4138,-464.7199"/>
</g>
<!-- Node10 -->
<g id="node10" class="node">
<title>Node10</title>
<g id="a_node10"><a xlink:href="../../d5/d2c/macros_2blob_2master_2macros_2g4simulations_2Fun4All__G4__sPHENIX_8C.html#a6eaaa492d7023ec86c562dc63aa1e5a4" target="_top" xlink:title="Fun4All_G4_sPHENIX">
<polygon fill="none" stroke="#000000" points="396,-618.5 396,-638.5 517,-638.5 517,-618.5 396,-618.5"/>
<text text-anchor="middle" x="456.5" y="-625.5" font-family="FreeSans" font-size="10.00" fill="#000000">Fun4All_G4_sPHENIX</text>
</a>
</g>
</g>
<!-- Node9&#45;&gt;Node10 -->
<g id="edge9" class="edge">
<title>Node9&#45;&gt;Node10</title>
<path fill="none" stroke="#191970" d="M314.2815,-413.372C322.811,-416.4303 330.8635,-420.9269 337,-427.5 393.269,-487.7728 315.5301,-550.3711 373,-609.5 379.3208,-616.0033 387.3703,-620.4861 395.9658,-623.5421"/>
<polygon fill="#191970" stroke="#191970" points="315.1069,-409.9665 304.5253,-410.4962 313.1277,-416.6809 315.1069,-409.9665"/>
</g>
<!-- Node11 -->
<g id="node11" class="node">
<title>Node11</title>
<g id="a_node11"><a xlink:href="../../d3/de2/Fun4All__G4__sPHENIX__AnaGenFit_8C.html#a9bf3f2f72ed69a17e2d0c1121d48013c" target="_top" xlink:title="Fun4All_G4_sPHENIX\l_AnaGenFit">
<polygon fill="none" stroke="#000000" points="396,-567.5 396,-599.5 517,-599.5 517,-567.5 396,-567.5"/>
<text text-anchor="start" x="404" y="-586.5" font-family="FreeSans" font-size="10.00" fill="#000000">Fun4All_G4_sPHENIX</text>
<text text-anchor="middle" x="456.5" y="-574.5" font-family="FreeSans" font-size="10.00" fill="#000000">_AnaGenFit</text>
</a>
</g>
</g>
<!-- Node9&#45;&gt;Node11 -->
<g id="edge10" class="edge">
<title>Node9&#45;&gt;Node11</title>
<path fill="none" stroke="#191970" d="M314.1749,-413.8406C322.6397,-416.8606 330.6965,-421.2231 337,-427.5 379.7857,-470.1053 330.7921,-515.3222 373,-558.5 379.3468,-564.9926 387.3053,-569.8151 395.7714,-573.3937"/>
<polygon fill="#191970" stroke="#191970" points="315.0989,-410.464 304.5162,-410.971 313.1053,-417.1741 315.0989,-410.464"/>
</g>
<!-- Node12 -->
<g id="node12" class="node">
<title>Node12</title>
<g id="a_node12"><a xlink:href="../../da/dd0/Fun4All__G4__sPHENIX__photonjet_8C.html#a6f18519e216acc05399e562ea57ea77c" target="_top" xlink:title="Fun4All_G4_sPHENIX\l_photonjet">
<polygon fill="none" stroke="#000000" points="396,-516.5 396,-548.5 517,-548.5 517,-516.5 396,-516.5"/>
<text text-anchor="start" x="404" y="-535.5" font-family="FreeSans" font-size="10.00" fill="#000000">Fun4All_G4_sPHENIX</text>
<text text-anchor="middle" x="456.5" y="-523.5" font-family="FreeSans" font-size="10.00" fill="#000000">_photonjet</text>
</a>
</g>
</g>
<!-- Node9&#45;&gt;Node12 -->
<g id="edge11" class="edge">
<title>Node9&#45;&gt;Node12</title>
<path fill="none" stroke="#191970" d="M314.5118,-415.0548C322.6603,-417.9655 330.5216,-421.9771 337,-427.5 366.6709,-452.7949 343.6725,-481.8076 373,-507.5 379.6017,-513.2835 387.4982,-517.7296 395.7638,-521.1474"/>
<polygon fill="#191970" stroke="#191970" points="315.4658,-411.6866 304.8798,-412.1189 313.4249,-418.3825 315.4658,-411.6866"/>
</g>
<!-- Node13 -->
<g id="node13" class="node">
<title>Node13</title>
<g id="a_node13"><a xlink:href="../../da/d85/Fun4All__G4__sPHENIX__photons_8C.html#a02fbbd59878fe1299f58ed187e7214ba" target="_top" xlink:title="Fun4All_G4_sPHENIX\l_photons">
<polygon fill="none" stroke="#000000" points="396,-465.5 396,-497.5 517,-497.5 517,-465.5 396,-465.5"/>
<text text-anchor="start" x="404" y="-484.5" font-family="FreeSans" font-size="10.00" fill="#000000">Fun4All_G4_sPHENIX</text>
<text text-anchor="middle" x="456.5" y="-472.5" font-family="FreeSans" font-size="10.00" fill="#000000">_photons</text>
</a>
</g>
</g>
<!-- Node9&#45;&gt;Node13 -->
<g id="edge12" class="edge">
<title>Node9&#45;&gt;Node13</title>
<path fill="none" stroke="#191970" d="M314.5656,-418.4646C322.2847,-420.9473 329.9959,-423.933 337,-427.5 355.3081,-436.8239 354.8191,-446.9303 373,-456.5 380.097,-460.2356 387.8344,-463.496 395.6428,-466.3178"/>
<polygon fill="#191970" stroke="#191970" points="315.4187,-415.067 304.8364,-415.5829 313.4307,-421.7788 315.4187,-415.067"/>
</g>
<!-- Node14 -->
<g id="node14" class="node">
<title>Node14</title>
<g id="a_node14"><a xlink:href="../../de/d55/Fun4All__G4__sPHENIX__truthphotonjet_8C.html#a48a6f4503eaa1b3793d8ae572aa795b9" target="_top" xlink:title="Fun4All_G4_sPHENIX\l_truthphotonjet">
<polygon fill="none" stroke="#000000" points="396,-414.5 396,-446.5 517,-446.5 517,-414.5 396,-414.5"/>
<text text-anchor="start" x="404" y="-433.5" font-family="FreeSans" font-size="10.00" fill="#000000">Fun4All_G4_sPHENIX</text>
<text text-anchor="middle" x="456.5" y="-421.5" font-family="FreeSans" font-size="10.00" fill="#000000">_truthphotonjet</text>
</a>
</g>
</g>
<!-- Node9&#45;&gt;Node14 -->
<g id="edge13" class="edge">
<title>Node9&#45;&gt;Node14</title>
<path fill="none" stroke="#191970" d="M314.5382,-413.626C339.5755,-416.602 369.8243,-420.1975 395.9554,-423.3035"/>
<polygon fill="#191970" stroke="#191970" points="314.8538,-410.139 304.5106,-412.4341 314.0276,-417.09 314.8538,-410.139"/>
</g>
<!-- Node15 -->
<g id="node15" class="node">
<title>Node15</title>
<g id="a_node15"><a xlink:href="../../d4/d65/Fun4All__single__particle_8C.html#a8a492b5dbead494bfdddbebde8a49b0e" target="_top" xlink:title="Fun4All_single_particle">
<polygon fill="none" stroke="#000000" points="390.5,-375.5 390.5,-395.5 522.5,-395.5 522.5,-375.5 390.5,-375.5"/>
<text text-anchor="middle" x="456.5" y="-382.5" font-family="FreeSans" font-size="10.00" fill="#000000">Fun4All_single_particle</text>
</a>
</g>
</g>
<!-- Node9&#45;&gt;Node15 -->
<g id="edge14" class="edge">
<title>Node9&#45;&gt;Node15</title>
<path fill="none" stroke="#191970" d="M314.5173,-401.6427C337.7785,-398.9981 365.5412,-395.8416 390.3217,-393.0242"/>
<polygon fill="#191970" stroke="#191970" points="314.0512,-398.1731 304.5106,-402.7804 314.842,-405.1283 314.0512,-398.1731"/>
</g>
<!-- Node16 -->
<g id="node16" class="node">
<title>Node16</title>
<g id="a_node16"><a xlink:href="../../d0/d99/Jin__BJet_8C.html#a36169bfee2ed7efda633944d12aebad9" target="_top" xlink:title="Jin_BJet">
<polygon fill="none" stroke="#000000" points="429,-336.5 429,-356.5 484,-356.5 484,-336.5 429,-336.5"/>
<text text-anchor="middle" x="456.5" y="-343.5" font-family="FreeSans" font-size="10.00" fill="#000000">Jin_BJet</text>
</a>
</g>
</g>
<!-- Node9&#45;&gt;Node16 -->
<g id="edge15" class="edge">
<title>Node9&#45;&gt;Node16</title>
<path fill="none" stroke="#191970" d="M296.9785,-393.6137C318.5326,-385.1109 347.1345,-374.3861 373,-366.5 391.3936,-360.892 412.4523,-355.8574 428.8197,-352.2423"/>
<polygon fill="#191970" stroke="#191970" points="295.602,-390.3945 287.6064,-397.3458 298.1918,-396.8978 295.602,-390.3945"/>
</g>
<!-- Node18 -->
<g id="node18" class="node">
<title>Node18</title>
<g id="a_node18"><a xlink:href="../../da/d02/Fun4All__G4__EICDetector_8C.html#afbe82cefa1d1fd031d9a8586b7bb68c6" target="_top" xlink:title="Fun4All_G4_EICDetector">
<polygon fill="none" stroke="#000000" points="387,-297.5 387,-317.5 526,-317.5 526,-297.5 387,-297.5"/>
<text text-anchor="middle" x="456.5" y="-304.5" font-family="FreeSans" font-size="10.00" fill="#000000">Fun4All_G4_EICDetector</text>
</a>
</g>
</g>
<!-- Node17&#45;&gt;Node18 -->
<g id="edge17" class="edge">
<title>Node17&#45;&gt;Node18</title>
<path fill="none" stroke="#191970" d="M322.9113,-280.5751C349.8405,-286.0027 381.2458,-292.3325 406.8378,-297.4906"/>
<polygon fill="#191970" stroke="#191970" points="323.3255,-277.0883 312.8311,-278.5435 321.9424,-283.9503 323.3255,-277.0883"/>
</g>
<!-- Node19 -->
<g id="node19" class="node">
<title>Node19</title>
<g id="a_node19"><a xlink:href="../../dd/d2a/Fun4All__G4__EICDetector__LQ_8C.html#aaa01242fd6e77ca43a9d49a6d46008e4" target="_top" xlink:title="Fun4All_G4_EICDetector_LQ">
<polygon fill="none" stroke="#000000" points="378.5,-258.5 378.5,-278.5 534.5,-278.5 534.5,-258.5 378.5,-258.5"/>
<text text-anchor="middle" x="456.5" y="-265.5" font-family="FreeSans" font-size="10.00" fill="#000000">Fun4All_G4_EICDetector_LQ</text>
</a>
</g>
</g>
<!-- Node17&#45;&gt;Node19 -->
<g id="edge18" class="edge">
<title>Node17&#45;&gt;Node19</title>
<path fill="none" stroke="#191970" d="M347.4277,-268.5C357.6766,-268.5 368.113,-268.5 378.2668,-268.5"/>
<polygon fill="#191970" stroke="#191970" points="347.2588,-265.0001 337.2588,-268.5 347.2587,-272.0001 347.2588,-265.0001"/>
</g>
<!-- Node20 -->
<g id="node20" class="node">
<title>Node20</title>
<g id="a_node20"><a xlink:href="../../d4/df5/Fun4All__G4__EICDetector__LQ__reference_8C.html#a2feefc472f17f90b3cbe74897d049f75" target="_top" xlink:title="Fun4All_G4_EICDetector\l_LQ_reference">
<polygon fill="none" stroke="#000000" points="387,-207.5 387,-239.5 526,-239.5 526,-207.5 387,-207.5"/>
<text text-anchor="start" x="395" y="-226.5" font-family="FreeSans" font-size="10.00" fill="#000000">Fun4All_G4_EICDetector</text>
<text text-anchor="middle" x="456.5" y="-214.5" font-family="FreeSans" font-size="10.00" fill="#000000">_LQ_reference</text>
</a>
</g>
</g>
<!-- Node17&#45;&gt;Node20 -->
<g id="edge19" class="edge">
<title>Node17&#45;&gt;Node20</title>
<path fill="none" stroke="#191970" d="M316.2365,-256.1194C338.2183,-251.0074 363.9856,-245.015 387.3955,-239.5708"/>
<polygon fill="#191970" stroke="#191970" points="315.3724,-252.7269 306.4252,-258.4011 316.9581,-259.5449 315.3724,-252.7269"/>
</g>
<!-- Node21 -->
<g id="node21" class="node">
<title>Node21</title>
<g id="a_node21"><a xlink:href="../../d3/d51/Fun4All__G4__EICDetector__RICH_8C.html#a5739502b0a7a1ba782c01069f77e933f" target="_top" xlink:title="Fun4All_G4_EICDetector_RICH">
<polygon fill="none" stroke="#000000" points="373,-168.5 373,-188.5 540,-188.5 540,-168.5 373,-168.5"/>
<text text-anchor="middle" x="456.5" y="-175.5" font-family="FreeSans" font-size="10.00" fill="#000000">Fun4All_G4_EICDetector_RICH</text>
</a>
</g>
</g>
<!-- Node17&#45;&gt;Node21 -->
<g id="edge20" class="edge">
<title>Node17&#45;&gt;Node21</title>
<path fill="none" stroke="#191970" d="M283.7525,-252.3028C305.0387,-236.4328 339.6622,-212.6308 373,-198.5 382.3327,-194.5442 392.5989,-191.2787 402.6442,-188.6161"/>
<polygon fill="#191970" stroke="#191970" points="281.6088,-249.5358 275.7519,-258.3647 285.8362,-255.1152 281.6088,-249.5358"/>
</g>
<!-- Node23 -->
<g id="node23" class="node">
<title>Node23</title>
<g id="a_node23"><a xlink:href="../../d9/d0e/Fun4All__G4__EICIR_8C.html#ac3543d1dd4a0abed3987d40939ee3f87" target="_top" xlink:title="Fun4All_G4_EICIR">
<polygon fill="none" stroke="#000000" points="404.5,-129.5 404.5,-149.5 508.5,-149.5 508.5,-129.5 404.5,-129.5"/>
<text text-anchor="middle" x="456.5" y="-136.5" font-family="FreeSans" font-size="10.00" fill="#000000">Fun4All_G4_EICIR</text>
</a>
</g>
</g>
<!-- Node22&#45;&gt;Node23 -->
<g id="edge22" class="edge">
<title>Node22&#45;&gt;Node23</title>
<path fill="none" stroke="#191970" d="M316.4587,-172.0677C346.9302,-164.9814 384.6191,-156.2165 413.2198,-149.5652"/>
<polygon fill="#191970" stroke="#191970" points="315.3724,-168.7269 306.4252,-174.4011 316.9581,-175.5449 315.3724,-168.7269"/>
</g>
<!-- Node25 -->
<g id="node25" class="node">
<title>Node25</title>
<g id="a_node25"><a xlink:href="../../d7/d9e/Fun4All__G4__fsPHENIX_8C.html#af48911d394d2412e817583700f2bbee2" target="_top" xlink:title="Fun4All_G4_fsPHENIX">
<polygon fill="none" stroke="#000000" points="394.5,-90.5 394.5,-110.5 518.5,-110.5 518.5,-90.5 394.5,-90.5"/>
<text text-anchor="middle" x="456.5" y="-97.5" font-family="FreeSans" font-size="10.00" fill="#000000">Fun4All_G4_fsPHENIX</text>
</a>
</g>
</g>
<!-- Node24&#45;&gt;Node25 -->
<g id="edge24" class="edge">
<title>Node24&#45;&gt;Node25</title>
<path fill="none" stroke="#191970" d="M340.2891,-87.2874C358.2498,-89.3294 377.1438,-91.4776 394.3551,-93.4344"/>
<polygon fill="#191970" stroke="#191970" points="340.4653,-83.785 330.1339,-86.1328 339.6744,-90.7401 340.4653,-83.785"/>
</g>
<!-- Node26 -->
<g id="node26" class="node">
<title>Node26</title>
<g id="a_node26"><a xlink:href="../../da/d2f/Fun4All__G4__fsPHENIX__FastSim_8C.html#a66fb850cae5fcaadda23b74a25ce4c9c" target="_top" xlink:title="Fun4All_G4_fsPHENIX\l_FastSim">
<polygon fill="none" stroke="#000000" points="394.5,-39.5 394.5,-71.5 518.5,-71.5 518.5,-39.5 394.5,-39.5"/>
<text text-anchor="start" x="402.5" y="-58.5" font-family="FreeSans" font-size="10.00" fill="#000000">Fun4All_G4_fsPHENIX</text>
<text text-anchor="middle" x="456.5" y="-46.5" font-family="FreeSans" font-size="10.00" fill="#000000">_FastSim</text>
</a>
</g>
</g>
<!-- Node24&#45;&gt;Node26 -->
<g id="edge25" class="edge">
<title>Node24&#45;&gt;Node26</title>
<path fill="none" stroke="#191970" d="M340.2891,-69.3132C358.2498,-67.1783 377.1438,-64.9325 394.3551,-62.8867"/>
<polygon fill="#191970" stroke="#191970" points="339.6508,-65.8643 330.1339,-70.5203 340.4771,-72.8154 339.6508,-65.8643"/>
</g>
<!-- Node27 -->
<g id="node27" class="node">
<title>Node27</title>
<g id="a_node27"><a xlink:href="../../d0/da6/Fun4All__G4__fsPHENIX__pi0_8C.html#a023d91d47b678e5d7f1751834aa517c6" target="_top" xlink:title="Fun4All_G4_fsPHENIX_pi0">
<polygon fill="none" stroke="#000000" points="384,-.5 384,-20.5 529,-20.5 529,-.5 384,-.5"/>
<text text-anchor="middle" x="456.5" y="-7.5" font-family="FreeSans" font-size="10.00" fill="#000000">Fun4All_G4_fsPHENIX_pi0</text>
</a>
</g>
</g>
<!-- Node24&#45;&gt;Node27 -->
<g id="edge26" class="edge">
<title>Node24&#45;&gt;Node27</title>
<path fill="none" stroke="#191970" d="M292.3279,-64.0109C314.1741,-53.6374 344.9475,-39.8983 373,-30.5 384.1662,-26.759 396.3925,-23.4223 407.9612,-20.5967"/>
<polygon fill="#191970" stroke="#191970" points="290.7518,-60.885 283.2535,-68.37 293.783,-67.1947 290.7518,-60.885"/>
</g>
</g>
</svg>
