<?xml version="1.0" encoding="UTF-8" standalone="no"?>
<!DOCTYPE svg PUBLIC "-//W3C//DTD SVG 1.1//EN"
 "http://www.w3.org/Graphics/SVG/1.1/DTD/svg11.dtd">
<!-- Generated by graphviz version 2.40.1 (20161225.0304)
 -->
<!-- Title: SvtxHitEval::next_event Pages: 1 -->
<svg width="1434pt" height="565pt"
 viewBox="0.00 0.00 1434.00 565.00" xmlns="http://www.w3.org/2000/svg" xmlns:xlink="http://www.w3.org/1999/xlink">
<g id="graph0" class="graph" transform="scale(1 1) rotate(0) translate(4 561)">
<title>SvtxHitEval::next_event</title>
<!-- Node1 -->
<g id="node1" class="node">
<title>Node1</title>
<polygon fill="#bfbfbf" stroke="#000000" points="0,-249.5 0,-269.5 138,-269.5 138,-249.5 0,-249.5"/>
<text text-anchor="middle" x="69" y="-256.5" font-family="FreeSans" font-size="10.00" fill="#000000">SvtxHitEval::next_event</text>
</g>
<!-- Node2 -->
<g id="node2" class="node">
<title>Node2</title>
<g id="a_node2"><a xlink:href="../../d1/d1e/classSvtxClusterEval.html#a0f23d4c63d0e893560d423db7e02578d" target="_top" xlink:title="SvtxClusterEval::next\l_event">
<polygon fill="none" stroke="#000000" points="174,-243.5 174,-275.5 299,-275.5 299,-243.5 174,-243.5"/>
<text text-anchor="start" x="182" y="-262.5" font-family="FreeSans" font-size="10.00" fill="#000000">SvtxClusterEval::next</text>
<text text-anchor="middle" x="236.5" y="-250.5" font-family="FreeSans" font-size="10.00" fill="#000000">_event</text>
</a>
</g>
</g>
<!-- Node1&#45;&gt;Node2 -->
<g id="edge1" class="edge">
<title>Node1&#45;&gt;Node2</title>
<path fill="none" stroke="#191970" d="M148.1298,-259.5C156.7214,-259.5 165.378,-259.5 173.7364,-259.5"/>
<polygon fill="#191970" stroke="#191970" points="148.0957,-256.0001 138.0957,-259.5 148.0957,-263.0001 148.0957,-256.0001"/>
</g>
<!-- Node3 -->
<g id="node3" class="node">
<title>Node3</title>
<g id="a_node3"><a xlink:href="../../df/dad/classSvtxTrackEval.html#aff069c6fdb0f6d80147b65a98878d90f" target="_top" xlink:title="SvtxTrackEval::next\l_event">
<polygon fill="none" stroke="#000000" points="335,-243.5 335,-275.5 451,-275.5 451,-243.5 335,-243.5"/>
<text text-anchor="start" x="343" y="-262.5" font-family="FreeSans" font-size="10.00" fill="#000000">SvtxTrackEval::next</text>
<text text-anchor="middle" x="393" y="-250.5" font-family="FreeSans" font-size="10.00" fill="#000000">_event</text>
</a>
</g>
</g>
<!-- Node2&#45;&gt;Node3 -->
<g id="edge2" class="edge">
<title>Node2&#45;&gt;Node3</title>
<path fill="none" stroke="#191970" d="M309.524,-259.5C318,-259.5 326.5581,-259.5 334.7982,-259.5"/>
<polygon fill="#191970" stroke="#191970" points="309.2528,-256.0001 299.2528,-259.5 309.2528,-263.0001 309.2528,-256.0001"/>
</g>
<!-- Node4 -->
<g id="node4" class="node">
<title>Node4</title>
<g id="a_node4"><a xlink:href="../../d4/d21/classSvtxVertexEval.html#ad872cdf8407f2f483af522aed6786a40" target="_top" xlink:title="SvtxVertexEval::next\l_event">
<polygon fill="none" stroke="#000000" points="487,-243.5 487,-275.5 609,-275.5 609,-243.5 487,-243.5"/>
<text text-anchor="start" x="495" y="-262.5" font-family="FreeSans" font-size="10.00" fill="#000000">SvtxVertexEval::next</text>
<text text-anchor="middle" x="548" y="-250.5" font-family="FreeSans" font-size="10.00" fill="#000000">_event</text>
</a>
</g>
</g>
<!-- Node3&#45;&gt;Node4 -->
<g id="edge3" class="edge">
<title>Node3&#45;&gt;Node4</title>
<path fill="none" stroke="#191970" d="M461.4174,-259.5C469.9118,-259.5 478.5538,-259.5 486.9276,-259.5"/>
<polygon fill="#191970" stroke="#191970" points="461.1573,-256.0001 451.1573,-259.5 461.1572,-263.0001 461.1573,-256.0001"/>
</g>
<!-- Node5 -->
<g id="node5" class="node">
<title>Node5</title>
<g id="a_node5"><a xlink:href="../../d3/ded/classSvtxEvalStack.html#a8a929a1f521c9e8596ecb1ca108281cf" target="_top" xlink:title="SvtxEvalStack::next\l_event">
<polygon fill="none" stroke="#000000" points="645,-243.5 645,-275.5 762,-275.5 762,-243.5 645,-243.5"/>
<text text-anchor="start" x="653" y="-262.5" font-family="FreeSans" font-size="10.00" fill="#000000">SvtxEvalStack::next</text>
<text text-anchor="middle" x="703.5" y="-250.5" font-family="FreeSans" font-size="10.00" fill="#000000">_event</text>
</a>
</g>
</g>
<!-- Node4&#45;&gt;Node5 -->
<g id="edge4" class="edge">
<title>Node4&#45;&gt;Node5</title>
<path fill="none" stroke="#191970" d="M619.0932,-259.5C627.7469,-259.5 636.5114,-259.5 644.9536,-259.5"/>
<polygon fill="#191970" stroke="#191970" points="619.0114,-256.0001 609.0114,-259.5 619.0114,-263.0001 619.0114,-256.0001"/>
</g>
<!-- Node6 -->
<g id="node6" class="node">
<title>Node6</title>
<g id="a_node6"><a xlink:href="../../d3/d22/classJetTruthEval.html#ac29b8d18ee116903ed233388eb253256" target="_top" xlink:title="reinitialize the eval for a new event">
<polygon fill="none" stroke="#000000" points="818,-498.5 818,-530.5 925,-530.5 925,-498.5 818,-498.5"/>
<text text-anchor="start" x="826" y="-517.5" font-family="FreeSans" font-size="10.00" fill="#000000">JetTruthEval::next</text>
<text text-anchor="middle" x="871.5" y="-505.5" font-family="FreeSans" font-size="10.00" fill="#000000">_event</text>
</a>
</g>
</g>
<!-- Node5&#45;&gt;Node6 -->
<g id="edge5" class="edge">
<title>Node5&#45;&gt;Node6</title>
<path fill="none" stroke="#191970" d="M707.1061,-285.7928C714.9701,-333.1612 738.028,-433.1345 798,-489.5 803.6964,-494.8538 810.5844,-499.065 817.8317,-502.3764"/>
<polygon fill="#191970" stroke="#191970" points="710.5352,-285.0671 705.5347,-275.7266 703.619,-286.1468 710.5352,-285.0671"/>
</g>
<!-- Node11 -->
<g id="node11" class="node">
<title>Node11</title>
<g id="a_node11"><a xlink:href="../../db/d2f/classAnaSvtxTracksForGenFit.html#a6f277cfc1d441b018fccacf6fb882dd0" target="_top" xlink:title="AnaSvtxTracksForGenFit\l::process_event">
<polygon fill="none" stroke="#000000" points="801.5,-447.5 801.5,-479.5 941.5,-479.5 941.5,-447.5 801.5,-447.5"/>
<text text-anchor="start" x="809.5" y="-466.5" font-family="FreeSans" font-size="10.00" fill="#000000">AnaSvtxTracksForGenFit</text>
<text text-anchor="middle" x="871.5" y="-454.5" font-family="FreeSans" font-size="10.00" fill="#000000">::process_event</text>
</a>
</g>
</g>
<!-- Node5&#45;&gt;Node11 -->
<g id="edge10" class="edge">
<title>Node5&#45;&gt;Node11</title>
<path fill="none" stroke="#191970" d="M710.5363,-285.6735C722.2783,-324.473 749.4993,-397.1102 798,-438.5 801.9985,-441.9123 806.4845,-444.8651 811.2168,-447.4192"/>
<polygon fill="#191970" stroke="#191970" points="713.7837,-284.3061 707.6301,-275.6814 707.0622,-286.2611 713.7837,-284.3061"/>
</g>
<!-- Node12 -->
<g id="node12" class="node">
<title>Node12</title>
<g id="a_node12"><a xlink:href="../../da/dbf/classHFMLTriggerOccupancy.html#add094957c68c32da4afc212ffa24e885" target="_top" xlink:title="HFMLTriggerOccupancy\l::process_event">
<polygon fill="none" stroke="#000000" points="804.5,-396.5 804.5,-428.5 938.5,-428.5 938.5,-396.5 804.5,-396.5"/>
<text text-anchor="start" x="812.5" y="-415.5" font-family="FreeSans" font-size="10.00" fill="#000000">HFMLTriggerOccupancy</text>
<text text-anchor="middle" x="871.5" y="-403.5" font-family="FreeSans" font-size="10.00" fill="#000000">::process_event</text>
</a>
</g>
</g>
<!-- Node5&#45;&gt;Node12 -->
<g id="edge11" class="edge">
<title>Node5&#45;&gt;Node12</title>
<path fill="none" stroke="#191970" d="M716.0411,-284.763C731.5458,-313.54 760.5383,-360.1086 798,-387.5 802.6785,-390.9208 807.859,-393.8978 813.2408,-396.4835"/>
<polygon fill="#191970" stroke="#191970" points="719.0523,-282.9688 711.3073,-275.7393 712.8535,-286.2207 719.0523,-282.9688"/>
</g>
<!-- Node13 -->
<g id="node13" class="node">
<title>Node13</title>
<g id="a_node13"><a xlink:href="../../d7/d62/classHFMLTriggerInterface.html#a29f338c2563a39e5d0e58b316f4b036f" target="_top" xlink:title="HFMLTriggerInterface\l::process_event">
<polygon fill="none" stroke="#000000" points="810.5,-345.5 810.5,-377.5 932.5,-377.5 932.5,-345.5 810.5,-345.5"/>
<text text-anchor="start" x="818.5" y="-364.5" font-family="FreeSans" font-size="10.00" fill="#000000">HFMLTriggerInterface</text>
<text text-anchor="middle" x="871.5" y="-352.5" font-family="FreeSans" font-size="10.00" fill="#000000">::process_event</text>
</a>
</g>
</g>
<!-- Node5&#45;&gt;Node13 -->
<g id="edge12" class="edge">
<title>Node5&#45;&gt;Node13</title>
<path fill="none" stroke="#191970" d="M727.3058,-282.9695C745.4302,-299.7734 771.6707,-321.9179 798,-336.5 804.0133,-339.8304 810.5478,-342.826 817.1571,-345.4881"/>
<polygon fill="#191970" stroke="#191970" points="729.2516,-279.9929 719.5783,-275.6709 724.445,-285.0819 729.2516,-279.9929"/>
</g>
<!-- Node14 -->
<g id="node14" class="node">
<title>Node14</title>
<g id="a_node14"><a xlink:href="../../d2/d85/classSvtxEvaluatorHaiwang.html#ab63ca0cc53b56dad65b89d9b18220bce" target="_top" xlink:title="SvtxEvaluatorHaiwang\l::process_event">
<polygon fill="none" stroke="#000000" points="806,-294.5 806,-326.5 937,-326.5 937,-294.5 806,-294.5"/>
<text text-anchor="start" x="814" y="-313.5" font-family="FreeSans" font-size="10.00" fill="#000000">SvtxEvaluatorHaiwang</text>
<text text-anchor="middle" x="871.5" y="-301.5" font-family="FreeSans" font-size="10.00" fill="#000000">::process_event</text>
</a>
</g>
</g>
<!-- Node5&#45;&gt;Node14 -->
<g id="edge13" class="edge">
<title>Node5&#45;&gt;Node14</title>
<path fill="none" stroke="#191970" d="M766.5938,-278.6535C783.756,-283.8634 802.1616,-289.4508 818.6895,-294.4683"/>
<polygon fill="#191970" stroke="#191970" points="767.2418,-275.1925 756.6563,-275.6367 765.2084,-281.8907 767.2418,-275.1925"/>
</g>
<!-- Node15 -->
<g id="node15" class="node">
<title>Node15</title>
<g id="a_node15"><a xlink:href="../../d8/d98/classpsTOFTimezeroEval.html#a2e98730e1beaa91c36947c0fe671fdd2" target="_top" xlink:title="psTOFTimezeroEval::\lprocess_event">
<polygon fill="none" stroke="#000000" points="810.5,-243.5 810.5,-275.5 932.5,-275.5 932.5,-243.5 810.5,-243.5"/>
<text text-anchor="start" x="818.5" y="-262.5" font-family="FreeSans" font-size="10.00" fill="#000000">psTOFTimezeroEval::</text>
<text text-anchor="middle" x="871.5" y="-250.5" font-family="FreeSans" font-size="10.00" fill="#000000">process_event</text>
</a>
</g>
</g>
<!-- Node5&#45;&gt;Node15 -->
<g id="edge14" class="edge">
<title>Node5&#45;&gt;Node15</title>
<path fill="none" stroke="#191970" d="M772.2863,-259.5C784.9466,-259.5 798.0839,-259.5 810.4955,-259.5"/>
<polygon fill="#191970" stroke="#191970" points="772.2583,-256.0001 762.2582,-259.5 772.2582,-263.0001 772.2583,-256.0001"/>
</g>
<!-- Node16 -->
<g id="node16" class="node">
<title>Node16</title>
<g id="a_node16"><a xlink:href="../../d6/d11/classSvtxEvaluator.html#ac66ea4145deb621d9e4fb38cf852dc33" target="_top" xlink:title="SvtxEvaluator::process\l_event">
<polygon fill="none" stroke="#000000" points="805.5,-192.5 805.5,-224.5 937.5,-224.5 937.5,-192.5 805.5,-192.5"/>
<text text-anchor="start" x="813.5" y="-211.5" font-family="FreeSans" font-size="10.00" fill="#000000">SvtxEvaluator::process</text>
<text text-anchor="middle" x="871.5" y="-199.5" font-family="FreeSans" font-size="10.00" fill="#000000">_event</text>
</a>
</g>
</g>
<!-- Node5&#45;&gt;Node16 -->
<g id="edge15" class="edge">
<title>Node5&#45;&gt;Node16</title>
<path fill="none" stroke="#191970" d="M766.5938,-240.3465C783.756,-235.1366 802.1616,-229.5492 818.6895,-224.5317"/>
<polygon fill="#191970" stroke="#191970" points="765.2084,-237.1093 756.6563,-243.3633 767.2418,-243.8075 765.2084,-237.1093"/>
</g>
<!-- Node17 -->
<g id="node17" class="node">
<title>Node17</title>
<g id="a_node17"><a xlink:href="../../dc/d65/classPhotonJet.html#a3f9d3ec941f851bc2246ceb0c5362c9f" target="_top" xlink:title="PhotonJet::process\l_event">
<polygon fill="none" stroke="#000000" points="816.5,-141.5 816.5,-173.5 926.5,-173.5 926.5,-141.5 816.5,-141.5"/>
<text text-anchor="start" x="824.5" y="-160.5" font-family="FreeSans" font-size="10.00" fill="#000000">PhotonJet::process</text>
<text text-anchor="middle" x="871.5" y="-148.5" font-family="FreeSans" font-size="10.00" fill="#000000">_event</text>
</a>
</g>
</g>
<!-- Node5&#45;&gt;Node17 -->
<g id="edge16" class="edge">
<title>Node5&#45;&gt;Node17</title>
<path fill="none" stroke="#191970" d="M727.7446,-236.1446C745.9085,-219.6519 772.0079,-197.9932 798,-183.5 804.6201,-179.8086 811.8611,-176.4881 819.1344,-173.5527"/>
<polygon fill="#191970" stroke="#191970" points="724.9549,-233.9569 719.9863,-243.3145 729.7059,-239.0978 724.9549,-233.9569"/>
</g>
<!-- Node18 -->
<g id="node18" class="node">
<title>Node18</title>
<g id="a_node18"><a xlink:href="../../dc/dfb/classGenFitTrackProp.html#a92a3570ed1802ba0f7e9eeb50eb9a6ec" target="_top" xlink:title="Process Event, called for each event.">
<polygon fill="none" stroke="#000000" points="800,-90.5 800,-122.5 943,-122.5 943,-90.5 800,-90.5"/>
<text text-anchor="start" x="808" y="-109.5" font-family="FreeSans" font-size="10.00" fill="#000000">GenFitTrackProp::process</text>
<text text-anchor="middle" x="871.5" y="-97.5" font-family="FreeSans" font-size="10.00" fill="#000000">_event</text>
</a>
</g>
</g>
<!-- Node5&#45;&gt;Node18 -->
<g id="edge17" class="edge">
<title>Node5&#45;&gt;Node18</title>
<path fill="none" stroke="#191970" d="M716.1488,-234.5166C731.7547,-206.0416 760.8421,-159.9092 798,-132.5 803.1195,-128.7237 808.8366,-125.4576 814.7593,-122.6417"/>
<polygon fill="#191970" stroke="#191970" points="713.0047,-232.9741 711.381,-243.4438 719.1793,-236.2718 713.0047,-232.9741"/>
</g>
<!-- Node19 -->
<g id="node19" class="node">
<title>Node19</title>
<g id="a_node19"><a xlink:href="../../db/d4b/classEMCalAna.html#a3b829b80df0fd8625130f3d9c11f5d3d" target="_top" xlink:title="EMCalAna::process_event">
<polygon fill="none" stroke="#000000" points="798,-51.5 798,-71.5 945,-71.5 945,-51.5 798,-51.5"/>
<text text-anchor="middle" x="871.5" y="-58.5" font-family="FreeSans" font-size="10.00" fill="#000000">EMCalAna::process_event</text>
</a>
</g>
</g>
<!-- Node5&#45;&gt;Node19 -->
<g id="edge18" class="edge">
<title>Node5&#45;&gt;Node19</title>
<path fill="none" stroke="#191970" d="M710.1727,-233.3786C721.5076,-194.3672 748.2825,-121.2304 798,-81.5 803.0622,-77.4547 808.8792,-74.2253 814.9768,-71.6476"/>
<polygon fill="#191970" stroke="#191970" points="706.6873,-232.8485 707.3789,-243.4207 713.4312,-234.7247 706.6873,-232.8485"/>
</g>
<!-- Node20 -->
<g id="node20" class="node">
<title>Node20</title>
<g id="a_node20"><a xlink:href="../../de/da4/classEMCalCalib.html#aa70da6270813e434e35da37b6ec2a350" target="_top" xlink:title="EMCalCalib::process\l_event">
<polygon fill="none" stroke="#000000" points="812.5,-.5 812.5,-32.5 930.5,-32.5 930.5,-.5 812.5,-.5"/>
<text text-anchor="start" x="820.5" y="-19.5" font-family="FreeSans" font-size="10.00" fill="#000000">EMCalCalib::process</text>
<text text-anchor="middle" x="871.5" y="-7.5" font-family="FreeSans" font-size="10.00" fill="#000000">_event</text>
</a>
</g>
</g>
<!-- Node5&#45;&gt;Node20 -->
<g id="edge19" class="edge">
<title>Node5&#45;&gt;Node20</title>
<path fill="none" stroke="#191970" d="M707.8741,-233.4668C716.7854,-188.35 741.2201,-95.4003 798,-42.5 802.2584,-38.5326 807.1599,-35.1644 812.3684,-32.3061"/>
<polygon fill="#191970" stroke="#191970" points="704.4239,-232.8764 706.0215,-243.3501 711.3041,-234.1661 704.4239,-232.8764"/>
</g>
<!-- Node7 -->
<g id="node7" class="node">
<title>Node7</title>
<g id="a_node7"><a xlink:href="../../dd/d75/classJetRecoEval.html#ae02e058aa7f403d5853482b5d06c01c9" target="_top" xlink:title="reinitialize the eval for a new event">
<polygon fill="none" stroke="#000000" points="981,-504.5 981,-524.5 1121,-524.5 1121,-504.5 981,-504.5"/>
<text text-anchor="middle" x="1051" y="-511.5" font-family="FreeSans" font-size="10.00" fill="#000000">JetRecoEval::next_event</text>
</a>
</g>
</g>
<!-- Node6&#45;&gt;Node7 -->
<g id="edge6" class="edge">
<title>Node6&#45;&gt;Node7</title>
<path fill="none" stroke="#191970" d="M935.3794,-514.5C950.1247,-514.5 965.8886,-514.5 980.8837,-514.5"/>
<polygon fill="#191970" stroke="#191970" points="935.356,-511.0001 925.3559,-514.5 935.3559,-518.0001 935.356,-511.0001"/>
</g>
<!-- Node8 -->
<g id="node8" class="node">
<title>Node8</title>
<g id="a_node8"><a xlink:href="../../dd/df3/classJetEvalStack.html#ab85ba05ab4fea5909c8faa238ba5f8e6" target="_top" xlink:title="JetEvalStack::next\l_event">
<polygon fill="none" stroke="#000000" points="1157,-498.5 1157,-530.5 1266,-530.5 1266,-498.5 1157,-498.5"/>
<text text-anchor="start" x="1165" y="-517.5" font-family="FreeSans" font-size="10.00" fill="#000000">JetEvalStack::next</text>
<text text-anchor="middle" x="1211.5" y="-505.5" font-family="FreeSans" font-size="10.00" fill="#000000">_event</text>
</a>
</g>
</g>
<!-- Node7&#45;&gt;Node8 -->
<g id="edge7" class="edge">
<title>Node7&#45;&gt;Node8</title>
<path fill="none" stroke="#191970" d="M1131.6705,-514.5C1140.1104,-514.5 1148.5441,-514.5 1156.5983,-514.5"/>
<polygon fill="#191970" stroke="#191970" points="1131.3977,-511.0001 1121.3976,-514.5 1131.3976,-518.0001 1131.3977,-511.0001"/>
</g>
<!-- Node9 -->
<g id="node9" class="node">
<title>Node9</title>
<g id="a_node9"><a xlink:href="../../d1/df4/classJetEvaluator.html#ad83508ae828d1f2e4a83a948465a0cd2" target="_top" xlink:title="JetEvaluator::process\l_event">
<polygon fill="none" stroke="#000000" points="1302,-524.5 1302,-556.5 1426,-556.5 1426,-524.5 1302,-524.5"/>
<text text-anchor="start" x="1310" y="-543.5" font-family="FreeSans" font-size="10.00" fill="#000000">JetEvaluator::process</text>
<text text-anchor="middle" x="1364" y="-531.5" font-family="FreeSans" font-size="10.00" fill="#000000">_event</text>
</a>
</g>
</g>
<!-- Node8&#45;&gt;Node9 -->
<g id="edge8" class="edge">
<title>Node8&#45;&gt;Node9</title>
<path fill="none" stroke="#191970" d="M1276.079,-525.5102C1284.66,-526.9732 1293.443,-528.4706 1301.9793,-529.926"/>
<polygon fill="#191970" stroke="#191970" points="1276.5713,-522.0437 1266.1253,-523.8132 1275.3948,-528.9441 1276.5713,-522.0437"/>
</g>
<!-- Node10 -->
<g id="node10" class="node">
<title>Node10</title>
<g id="a_node10"><a xlink:href="../../d8/de2/classJetEnergies.html#a6acaa9b2ba1fe7353781d2f5d476e8d1" target="_top" xlink:title="JetEnergies::process\l_event">
<polygon fill="none" stroke="#000000" points="1304,-473.5 1304,-505.5 1424,-505.5 1424,-473.5 1304,-473.5"/>
<text text-anchor="start" x="1312" y="-492.5" font-family="FreeSans" font-size="10.00" fill="#000000">JetEnergies::process</text>
<text text-anchor="middle" x="1364" y="-480.5" font-family="FreeSans" font-size="10.00" fill="#000000">_event</text>
</a>
</g>
</g>
<!-- Node8&#45;&gt;Node10 -->
<g id="edge9" class="edge">
<title>Node8&#45;&gt;Node10</title>
<path fill="none" stroke="#191970" d="M1276.009,-503.9248C1285.2267,-502.4137 1294.6788,-500.8641 1303.8092,-499.3673"/>
<polygon fill="#191970" stroke="#191970" points="1275.4273,-500.4733 1266.1253,-505.545 1276.5598,-507.3811 1275.4273,-500.4733"/>
</g>
</g>
</svg>
