<?xml version="1.0" encoding="UTF-8" standalone="no"?>
<!DOCTYPE svg PUBLIC "-//W3C//DTD SVG 1.1//EN"
 "http://www.w3.org/Graphics/SVG/1.1/DTD/svg11.dtd">
<!-- Generated by graphviz version 2.40.1 (20161225.0304)
 -->
<!-- Title: SvtxHitEval::get_node_pointers Pages: 1 -->
<svg width="1599pt" height="565pt"
 viewBox="0.00 0.00 1599.00 565.00" xmlns="http://www.w3.org/2000/svg" xmlns:xlink="http://www.w3.org/1999/xlink">
<g id="graph0" class="graph" transform="scale(1 1) rotate(0) translate(4 561)">
<title>SvtxHitEval::get_node_pointers</title>
<!-- Node1 -->
<g id="node1" class="node">
<title>Node1</title>
<polygon fill="#bfbfbf" stroke="#000000" points="0,-223.5 0,-255.5 128,-255.5 128,-223.5 0,-223.5"/>
<text text-anchor="start" x="8" y="-242.5" font-family="FreeSans" font-size="10.00" fill="#000000">SvtxHitEval::get_node</text>
<text text-anchor="middle" x="64" y="-230.5" font-family="FreeSans" font-size="10.00" fill="#000000">_pointers</text>
</g>
<!-- Node2 -->
<g id="node2" class="node">
<title>Node2</title>
<g id="a_node2"><a xlink:href="../../d9/d62/classSvtxHitEval.html#a2b8bd81cd1feca366d3dec9b52f1658e" target="_top" xlink:title="SvtxHitEval::next_event">
<polygon fill="none" stroke="#000000" points="164.5,-249.5 164.5,-269.5 302.5,-269.5 302.5,-249.5 164.5,-249.5"/>
<text text-anchor="middle" x="233.5" y="-256.5" font-family="FreeSans" font-size="10.00" fill="#000000">SvtxHitEval::next_event</text>
</a>
</g>
</g>
<!-- Node1&#45;&gt;Node2 -->
<g id="edge1" class="edge">
<title>Node1&#45;&gt;Node2</title>
<path fill="none" stroke="#191970" d="M138.1606,-248.2505C146.8247,-249.2728 155.6389,-250.3128 164.2331,-251.3269"/>
<polygon fill="#191970" stroke="#191970" points="138.422,-244.7572 128.0807,-247.0611 137.6016,-251.7089 138.422,-244.7572"/>
</g>
<!-- Node22 -->
<g id="node22" class="node">
<title>Node22</title>
<g id="a_node22"><a xlink:href="../../d9/d62/classSvtxHitEval.html#ae41b1c9471643621e9c2ebf4e0588554" target="_top" xlink:title="SvtxHitEval::SvtxHitEval">
<polygon fill="none" stroke="#000000" points="164,-210.5 164,-230.5 303,-230.5 303,-210.5 164,-210.5"/>
<text text-anchor="middle" x="233.5" y="-217.5" font-family="FreeSans" font-size="10.00" fill="#000000">SvtxHitEval::SvtxHitEval</text>
</a>
</g>
</g>
<!-- Node1&#45;&gt;Node22 -->
<g id="edge21" class="edge">
<title>Node1&#45;&gt;Node22</title>
<path fill="none" stroke="#191970" d="M138.0799,-231.1961C146.6743,-230.2327 155.4176,-229.2526 163.9484,-228.2963"/>
<polygon fill="#191970" stroke="#191970" points="137.6285,-227.7246 128.0807,-232.3169 138.4084,-234.6811 137.6285,-227.7246"/>
</g>
<!-- Node3 -->
<g id="node3" class="node">
<title>Node3</title>
<g id="a_node3"><a xlink:href="../../d1/d1e/classSvtxClusterEval.html#a0f23d4c63d0e893560d423db7e02578d" target="_top" xlink:title="SvtxClusterEval::next\l_event">
<polygon fill="none" stroke="#000000" points="339,-243.5 339,-275.5 464,-275.5 464,-243.5 339,-243.5"/>
<text text-anchor="start" x="347" y="-262.5" font-family="FreeSans" font-size="10.00" fill="#000000">SvtxClusterEval::next</text>
<text text-anchor="middle" x="401.5" y="-250.5" font-family="FreeSans" font-size="10.00" fill="#000000">_event</text>
</a>
</g>
</g>
<!-- Node2&#45;&gt;Node3 -->
<g id="edge2" class="edge">
<title>Node2&#45;&gt;Node3</title>
<path fill="none" stroke="#191970" d="M312.9432,-259.5C321.6266,-259.5 330.3751,-259.5 338.8161,-259.5"/>
<polygon fill="#191970" stroke="#191970" points="312.802,-256.0001 302.802,-259.5 312.8019,-263.0001 312.802,-256.0001"/>
</g>
<!-- Node4 -->
<g id="node4" class="node">
<title>Node4</title>
<g id="a_node4"><a xlink:href="../../df/dad/classSvtxTrackEval.html#aff069c6fdb0f6d80147b65a98878d90f" target="_top" xlink:title="SvtxTrackEval::next\l_event">
<polygon fill="none" stroke="#000000" points="500,-243.5 500,-275.5 616,-275.5 616,-243.5 500,-243.5"/>
<text text-anchor="start" x="508" y="-262.5" font-family="FreeSans" font-size="10.00" fill="#000000">SvtxTrackEval::next</text>
<text text-anchor="middle" x="558" y="-250.5" font-family="FreeSans" font-size="10.00" fill="#000000">_event</text>
</a>
</g>
</g>
<!-- Node3&#45;&gt;Node4 -->
<g id="edge3" class="edge">
<title>Node3&#45;&gt;Node4</title>
<path fill="none" stroke="#191970" d="M474.524,-259.5C483,-259.5 491.5581,-259.5 499.7982,-259.5"/>
<polygon fill="#191970" stroke="#191970" points="474.2528,-256.0001 464.2528,-259.5 474.2528,-263.0001 474.2528,-256.0001"/>
</g>
<!-- Node5 -->
<g id="node5" class="node">
<title>Node5</title>
<g id="a_node5"><a xlink:href="../../d4/d21/classSvtxVertexEval.html#ad872cdf8407f2f483af522aed6786a40" target="_top" xlink:title="SvtxVertexEval::next\l_event">
<polygon fill="none" stroke="#000000" points="652,-243.5 652,-275.5 774,-275.5 774,-243.5 652,-243.5"/>
<text text-anchor="start" x="660" y="-262.5" font-family="FreeSans" font-size="10.00" fill="#000000">SvtxVertexEval::next</text>
<text text-anchor="middle" x="713" y="-250.5" font-family="FreeSans" font-size="10.00" fill="#000000">_event</text>
</a>
</g>
</g>
<!-- Node4&#45;&gt;Node5 -->
<g id="edge4" class="edge">
<title>Node4&#45;&gt;Node5</title>
<path fill="none" stroke="#191970" d="M626.4174,-259.5C634.9118,-259.5 643.5538,-259.5 651.9276,-259.5"/>
<polygon fill="#191970" stroke="#191970" points="626.1573,-256.0001 616.1573,-259.5 626.1572,-263.0001 626.1573,-256.0001"/>
</g>
<!-- Node6 -->
<g id="node6" class="node">
<title>Node6</title>
<g id="a_node6"><a xlink:href="../../d3/ded/classSvtxEvalStack.html#a8a929a1f521c9e8596ecb1ca108281cf" target="_top" xlink:title="SvtxEvalStack::next\l_event">
<polygon fill="none" stroke="#000000" points="810,-243.5 810,-275.5 927,-275.5 927,-243.5 810,-243.5"/>
<text text-anchor="start" x="818" y="-262.5" font-family="FreeSans" font-size="10.00" fill="#000000">SvtxEvalStack::next</text>
<text text-anchor="middle" x="868.5" y="-250.5" font-family="FreeSans" font-size="10.00" fill="#000000">_event</text>
</a>
</g>
</g>
<!-- Node5&#45;&gt;Node6 -->
<g id="edge5" class="edge">
<title>Node5&#45;&gt;Node6</title>
<path fill="none" stroke="#191970" d="M784.0932,-259.5C792.7469,-259.5 801.5114,-259.5 809.9536,-259.5"/>
<polygon fill="#191970" stroke="#191970" points="784.0114,-256.0001 774.0114,-259.5 784.0114,-263.0001 784.0114,-256.0001"/>
</g>
<!-- Node7 -->
<g id="node7" class="node">
<title>Node7</title>
<g id="a_node7"><a xlink:href="../../d3/d22/classJetTruthEval.html#ac29b8d18ee116903ed233388eb253256" target="_top" xlink:title="reinitialize the eval for a new event">
<polygon fill="none" stroke="#000000" points="983,-498.5 983,-530.5 1090,-530.5 1090,-498.5 983,-498.5"/>
<text text-anchor="start" x="991" y="-517.5" font-family="FreeSans" font-size="10.00" fill="#000000">JetTruthEval::next</text>
<text text-anchor="middle" x="1036.5" y="-505.5" font-family="FreeSans" font-size="10.00" fill="#000000">_event</text>
</a>
</g>
</g>
<!-- Node6&#45;&gt;Node7 -->
<g id="edge6" class="edge">
<title>Node6&#45;&gt;Node7</title>
<path fill="none" stroke="#191970" d="M872.1061,-285.7928C879.9701,-333.1612 903.028,-433.1345 963,-489.5 968.6964,-494.8538 975.5844,-499.065 982.8317,-502.3764"/>
<polygon fill="#191970" stroke="#191970" points="875.5352,-285.0671 870.5347,-275.7266 868.619,-286.1468 875.5352,-285.0671"/>
</g>
<!-- Node12 -->
<g id="node12" class="node">
<title>Node12</title>
<g id="a_node12"><a xlink:href="../../db/d2f/classAnaSvtxTracksForGenFit.html#a6f277cfc1d441b018fccacf6fb882dd0" target="_top" xlink:title="AnaSvtxTracksForGenFit\l::process_event">
<polygon fill="none" stroke="#000000" points="966.5,-447.5 966.5,-479.5 1106.5,-479.5 1106.5,-447.5 966.5,-447.5"/>
<text text-anchor="start" x="974.5" y="-466.5" font-family="FreeSans" font-size="10.00" fill="#000000">AnaSvtxTracksForGenFit</text>
<text text-anchor="middle" x="1036.5" y="-454.5" font-family="FreeSans" font-size="10.00" fill="#000000">::process_event</text>
</a>
</g>
</g>
<!-- Node6&#45;&gt;Node12 -->
<g id="edge11" class="edge">
<title>Node6&#45;&gt;Node12</title>
<path fill="none" stroke="#191970" d="M875.5363,-285.6735C887.2783,-324.473 914.4993,-397.1102 963,-438.5 966.9985,-441.9123 971.4845,-444.8651 976.2168,-447.4192"/>
<polygon fill="#191970" stroke="#191970" points="878.7837,-284.3061 872.6301,-275.6814 872.0622,-286.2611 878.7837,-284.3061"/>
</g>
<!-- Node13 -->
<g id="node13" class="node">
<title>Node13</title>
<g id="a_node13"><a xlink:href="../../da/dbf/classHFMLTriggerOccupancy.html#add094957c68c32da4afc212ffa24e885" target="_top" xlink:title="HFMLTriggerOccupancy\l::process_event">
<polygon fill="none" stroke="#000000" points="969.5,-396.5 969.5,-428.5 1103.5,-428.5 1103.5,-396.5 969.5,-396.5"/>
<text text-anchor="start" x="977.5" y="-415.5" font-family="FreeSans" font-size="10.00" fill="#000000">HFMLTriggerOccupancy</text>
<text text-anchor="middle" x="1036.5" y="-403.5" font-family="FreeSans" font-size="10.00" fill="#000000">::process_event</text>
</a>
</g>
</g>
<!-- Node6&#45;&gt;Node13 -->
<g id="edge12" class="edge">
<title>Node6&#45;&gt;Node13</title>
<path fill="none" stroke="#191970" d="M881.0411,-284.763C896.5458,-313.54 925.5383,-360.1086 963,-387.5 967.6785,-390.9208 972.859,-393.8978 978.2408,-396.4835"/>
<polygon fill="#191970" stroke="#191970" points="884.0523,-282.9688 876.3073,-275.7393 877.8535,-286.2207 884.0523,-282.9688"/>
</g>
<!-- Node14 -->
<g id="node14" class="node">
<title>Node14</title>
<g id="a_node14"><a xlink:href="../../d7/d62/classHFMLTriggerInterface.html#a29f338c2563a39e5d0e58b316f4b036f" target="_top" xlink:title="HFMLTriggerInterface\l::process_event">
<polygon fill="none" stroke="#000000" points="975.5,-345.5 975.5,-377.5 1097.5,-377.5 1097.5,-345.5 975.5,-345.5"/>
<text text-anchor="start" x="983.5" y="-364.5" font-family="FreeSans" font-size="10.00" fill="#000000">HFMLTriggerInterface</text>
<text text-anchor="middle" x="1036.5" y="-352.5" font-family="FreeSans" font-size="10.00" fill="#000000">::process_event</text>
</a>
</g>
</g>
<!-- Node6&#45;&gt;Node14 -->
<g id="edge13" class="edge">
<title>Node6&#45;&gt;Node14</title>
<path fill="none" stroke="#191970" d="M892.3058,-282.9695C910.4302,-299.7734 936.6707,-321.9179 963,-336.5 969.0133,-339.8304 975.5478,-342.826 982.1571,-345.4881"/>
<polygon fill="#191970" stroke="#191970" points="894.2516,-279.9929 884.5783,-275.6709 889.445,-285.0819 894.2516,-279.9929"/>
</g>
<!-- Node15 -->
<g id="node15" class="node">
<title>Node15</title>
<g id="a_node15"><a xlink:href="../../d2/d85/classSvtxEvaluatorHaiwang.html#ab63ca0cc53b56dad65b89d9b18220bce" target="_top" xlink:title="SvtxEvaluatorHaiwang\l::process_event">
<polygon fill="none" stroke="#000000" points="971,-294.5 971,-326.5 1102,-326.5 1102,-294.5 971,-294.5"/>
<text text-anchor="start" x="979" y="-313.5" font-family="FreeSans" font-size="10.00" fill="#000000">SvtxEvaluatorHaiwang</text>
<text text-anchor="middle" x="1036.5" y="-301.5" font-family="FreeSans" font-size="10.00" fill="#000000">::process_event</text>
</a>
</g>
</g>
<!-- Node6&#45;&gt;Node15 -->
<g id="edge14" class="edge">
<title>Node6&#45;&gt;Node15</title>
<path fill="none" stroke="#191970" d="M931.5938,-278.6535C948.756,-283.8634 967.1616,-289.4508 983.6895,-294.4683"/>
<polygon fill="#191970" stroke="#191970" points="932.2418,-275.1925 921.6563,-275.6367 930.2084,-281.8907 932.2418,-275.1925"/>
</g>
<!-- Node16 -->
<g id="node16" class="node">
<title>Node16</title>
<g id="a_node16"><a xlink:href="../../d8/d98/classpsTOFTimezeroEval.html#a2e98730e1beaa91c36947c0fe671fdd2" target="_top" xlink:title="psTOFTimezeroEval::\lprocess_event">
<polygon fill="none" stroke="#000000" points="975.5,-243.5 975.5,-275.5 1097.5,-275.5 1097.5,-243.5 975.5,-243.5"/>
<text text-anchor="start" x="983.5" y="-262.5" font-family="FreeSans" font-size="10.00" fill="#000000">psTOFTimezeroEval::</text>
<text text-anchor="middle" x="1036.5" y="-250.5" font-family="FreeSans" font-size="10.00" fill="#000000">process_event</text>
</a>
</g>
</g>
<!-- Node6&#45;&gt;Node16 -->
<g id="edge15" class="edge">
<title>Node6&#45;&gt;Node16</title>
<path fill="none" stroke="#191970" d="M937.2863,-259.5C949.9466,-259.5 963.0839,-259.5 975.4955,-259.5"/>
<polygon fill="#191970" stroke="#191970" points="937.2583,-256.0001 927.2582,-259.5 937.2582,-263.0001 937.2583,-256.0001"/>
</g>
<!-- Node17 -->
<g id="node17" class="node">
<title>Node17</title>
<g id="a_node17"><a xlink:href="../../d6/d11/classSvtxEvaluator.html#ac66ea4145deb621d9e4fb38cf852dc33" target="_top" xlink:title="SvtxEvaluator::process\l_event">
<polygon fill="none" stroke="#000000" points="970.5,-192.5 970.5,-224.5 1102.5,-224.5 1102.5,-192.5 970.5,-192.5"/>
<text text-anchor="start" x="978.5" y="-211.5" font-family="FreeSans" font-size="10.00" fill="#000000">SvtxEvaluator::process</text>
<text text-anchor="middle" x="1036.5" y="-199.5" font-family="FreeSans" font-size="10.00" fill="#000000">_event</text>
</a>
</g>
</g>
<!-- Node6&#45;&gt;Node17 -->
<g id="edge16" class="edge">
<title>Node6&#45;&gt;Node17</title>
<path fill="none" stroke="#191970" d="M931.5938,-240.3465C948.756,-235.1366 967.1616,-229.5492 983.6895,-224.5317"/>
<polygon fill="#191970" stroke="#191970" points="930.2084,-237.1093 921.6563,-243.3633 932.2418,-243.8075 930.2084,-237.1093"/>
</g>
<!-- Node18 -->
<g id="node18" class="node">
<title>Node18</title>
<g id="a_node18"><a xlink:href="../../dc/d65/classPhotonJet.html#a3f9d3ec941f851bc2246ceb0c5362c9f" target="_top" xlink:title="PhotonJet::process\l_event">
<polygon fill="none" stroke="#000000" points="981.5,-141.5 981.5,-173.5 1091.5,-173.5 1091.5,-141.5 981.5,-141.5"/>
<text text-anchor="start" x="989.5" y="-160.5" font-family="FreeSans" font-size="10.00" fill="#000000">PhotonJet::process</text>
<text text-anchor="middle" x="1036.5" y="-148.5" font-family="FreeSans" font-size="10.00" fill="#000000">_event</text>
</a>
</g>
</g>
<!-- Node6&#45;&gt;Node18 -->
<g id="edge17" class="edge">
<title>Node6&#45;&gt;Node18</title>
<path fill="none" stroke="#191970" d="M892.7446,-236.1446C910.9085,-219.6519 937.0079,-197.9932 963,-183.5 969.6201,-179.8086 976.8611,-176.4881 984.1344,-173.5527"/>
<polygon fill="#191970" stroke="#191970" points="889.9549,-233.9569 884.9863,-243.3145 894.7059,-239.0978 889.9549,-233.9569"/>
</g>
<!-- Node19 -->
<g id="node19" class="node">
<title>Node19</title>
<g id="a_node19"><a xlink:href="../../dc/dfb/classGenFitTrackProp.html#a92a3570ed1802ba0f7e9eeb50eb9a6ec" target="_top" xlink:title="Process Event, called for each event.">
<polygon fill="none" stroke="#000000" points="965,-90.5 965,-122.5 1108,-122.5 1108,-90.5 965,-90.5"/>
<text text-anchor="start" x="973" y="-109.5" font-family="FreeSans" font-size="10.00" fill="#000000">GenFitTrackProp::process</text>
<text text-anchor="middle" x="1036.5" y="-97.5" font-family="FreeSans" font-size="10.00" fill="#000000">_event</text>
</a>
</g>
</g>
<!-- Node6&#45;&gt;Node19 -->
<g id="edge18" class="edge">
<title>Node6&#45;&gt;Node19</title>
<path fill="none" stroke="#191970" d="M881.1488,-234.5166C896.7547,-206.0416 925.8421,-159.9092 963,-132.5 968.1195,-128.7237 973.8366,-125.4576 979.7593,-122.6417"/>
<polygon fill="#191970" stroke="#191970" points="878.0047,-232.9741 876.381,-243.4438 884.1793,-236.2718 878.0047,-232.9741"/>
</g>
<!-- Node20 -->
<g id="node20" class="node">
<title>Node20</title>
<g id="a_node20"><a xlink:href="../../db/d4b/classEMCalAna.html#a3b829b80df0fd8625130f3d9c11f5d3d" target="_top" xlink:title="EMCalAna::process_event">
<polygon fill="none" stroke="#000000" points="963,-51.5 963,-71.5 1110,-71.5 1110,-51.5 963,-51.5"/>
<text text-anchor="middle" x="1036.5" y="-58.5" font-family="FreeSans" font-size="10.00" fill="#000000">EMCalAna::process_event</text>
</a>
</g>
</g>
<!-- Node6&#45;&gt;Node20 -->
<g id="edge19" class="edge">
<title>Node6&#45;&gt;Node20</title>
<path fill="none" stroke="#191970" d="M875.1727,-233.3786C886.5076,-194.3672 913.2825,-121.2304 963,-81.5 968.0622,-77.4547 973.8792,-74.2253 979.9768,-71.6476"/>
<polygon fill="#191970" stroke="#191970" points="871.6873,-232.8485 872.3789,-243.4207 878.4312,-234.7247 871.6873,-232.8485"/>
</g>
<!-- Node21 -->
<g id="node21" class="node">
<title>Node21</title>
<g id="a_node21"><a xlink:href="../../de/da4/classEMCalCalib.html#aa70da6270813e434e35da37b6ec2a350" target="_top" xlink:title="EMCalCalib::process\l_event">
<polygon fill="none" stroke="#000000" points="977.5,-.5 977.5,-32.5 1095.5,-32.5 1095.5,-.5 977.5,-.5"/>
<text text-anchor="start" x="985.5" y="-19.5" font-family="FreeSans" font-size="10.00" fill="#000000">EMCalCalib::process</text>
<text text-anchor="middle" x="1036.5" y="-7.5" font-family="FreeSans" font-size="10.00" fill="#000000">_event</text>
</a>
</g>
</g>
<!-- Node6&#45;&gt;Node21 -->
<g id="edge20" class="edge">
<title>Node6&#45;&gt;Node21</title>
<path fill="none" stroke="#191970" d="M872.8741,-233.4668C881.7854,-188.35 906.2201,-95.4003 963,-42.5 967.2584,-38.5326 972.1599,-35.1644 977.3684,-32.3061"/>
<polygon fill="#191970" stroke="#191970" points="869.4239,-232.8764 871.0215,-243.3501 876.3041,-234.1661 869.4239,-232.8764"/>
</g>
<!-- Node8 -->
<g id="node8" class="node">
<title>Node8</title>
<g id="a_node8"><a xlink:href="../../dd/d75/classJetRecoEval.html#ae02e058aa7f403d5853482b5d06c01c9" target="_top" xlink:title="reinitialize the eval for a new event">
<polygon fill="none" stroke="#000000" points="1146,-504.5 1146,-524.5 1286,-524.5 1286,-504.5 1146,-504.5"/>
<text text-anchor="middle" x="1216" y="-511.5" font-family="FreeSans" font-size="10.00" fill="#000000">JetRecoEval::next_event</text>
</a>
</g>
</g>
<!-- Node7&#45;&gt;Node8 -->
<g id="edge7" class="edge">
<title>Node7&#45;&gt;Node8</title>
<path fill="none" stroke="#191970" d="M1100.3794,-514.5C1115.1247,-514.5 1130.8886,-514.5 1145.8837,-514.5"/>
<polygon fill="#191970" stroke="#191970" points="1100.356,-511.0001 1090.3559,-514.5 1100.3559,-518.0001 1100.356,-511.0001"/>
</g>
<!-- Node9 -->
<g id="node9" class="node">
<title>Node9</title>
<g id="a_node9"><a xlink:href="../../dd/df3/classJetEvalStack.html#ab85ba05ab4fea5909c8faa238ba5f8e6" target="_top" xlink:title="JetEvalStack::next\l_event">
<polygon fill="none" stroke="#000000" points="1322,-498.5 1322,-530.5 1431,-530.5 1431,-498.5 1322,-498.5"/>
<text text-anchor="start" x="1330" y="-517.5" font-family="FreeSans" font-size="10.00" fill="#000000">JetEvalStack::next</text>
<text text-anchor="middle" x="1376.5" y="-505.5" font-family="FreeSans" font-size="10.00" fill="#000000">_event</text>
</a>
</g>
</g>
<!-- Node8&#45;&gt;Node9 -->
<g id="edge8" class="edge">
<title>Node8&#45;&gt;Node9</title>
<path fill="none" stroke="#191970" d="M1296.6705,-514.5C1305.1104,-514.5 1313.5441,-514.5 1321.5983,-514.5"/>
<polygon fill="#191970" stroke="#191970" points="1296.3977,-511.0001 1286.3976,-514.5 1296.3976,-518.0001 1296.3977,-511.0001"/>
</g>
<!-- Node10 -->
<g id="node10" class="node">
<title>Node10</title>
<g id="a_node10"><a xlink:href="../../d1/df4/classJetEvaluator.html#ad83508ae828d1f2e4a83a948465a0cd2" target="_top" xlink:title="JetEvaluator::process\l_event">
<polygon fill="none" stroke="#000000" points="1467,-524.5 1467,-556.5 1591,-556.5 1591,-524.5 1467,-524.5"/>
<text text-anchor="start" x="1475" y="-543.5" font-family="FreeSans" font-size="10.00" fill="#000000">JetEvaluator::process</text>
<text text-anchor="middle" x="1529" y="-531.5" font-family="FreeSans" font-size="10.00" fill="#000000">_event</text>
</a>
</g>
</g>
<!-- Node9&#45;&gt;Node10 -->
<g id="edge9" class="edge">
<title>Node9&#45;&gt;Node10</title>
<path fill="none" stroke="#191970" d="M1441.079,-525.5102C1449.66,-526.9732 1458.443,-528.4706 1466.9793,-529.926"/>
<polygon fill="#191970" stroke="#191970" points="1441.5713,-522.0437 1431.1253,-523.8132 1440.3948,-528.9441 1441.5713,-522.0437"/>
</g>
<!-- Node11 -->
<g id="node11" class="node">
<title>Node11</title>
<g id="a_node11"><a xlink:href="../../d8/de2/classJetEnergies.html#a6acaa9b2ba1fe7353781d2f5d476e8d1" target="_top" xlink:title="JetEnergies::process\l_event">
<polygon fill="none" stroke="#000000" points="1469,-473.5 1469,-505.5 1589,-505.5 1589,-473.5 1469,-473.5"/>
<text text-anchor="start" x="1477" y="-492.5" font-family="FreeSans" font-size="10.00" fill="#000000">JetEnergies::process</text>
<text text-anchor="middle" x="1529" y="-480.5" font-family="FreeSans" font-size="10.00" fill="#000000">_event</text>
</a>
</g>
</g>
<!-- Node9&#45;&gt;Node11 -->
<g id="edge10" class="edge">
<title>Node9&#45;&gt;Node11</title>
<path fill="none" stroke="#191970" d="M1441.009,-503.9248C1450.2267,-502.4137 1459.6788,-500.8641 1468.8092,-499.3673"/>
<polygon fill="#191970" stroke="#191970" points="1440.4273,-500.4733 1431.1253,-505.545 1441.5598,-507.3811 1440.4273,-500.4733"/>
</g>
</g>
</svg>
