<?xml version="1.0" encoding="UTF-8" standalone="no"?>
<!DOCTYPE svg PUBLIC "-//W3C//DTD SVG 1.1//EN"
 "http://www.w3.org/Graphics/SVG/1.1/DTD/svg11.dtd">
<!-- Generated by graphviz version 2.40.1 (20161225.0304)
 -->
<!-- Title: PHNodeIterator::ls Pages: 1 -->
<svg width="1073pt" height="1475pt"
 viewBox="0.00 0.00 1073.00 1475.00" xmlns="http://www.w3.org/2000/svg" xmlns:xlink="http://www.w3.org/1999/xlink">
<g id="graph0" class="graph" transform="scale(1 1) rotate(0) translate(4 1471)">
<title>PHNodeIterator::ls</title>
<!-- Node1 -->
<g id="node1" class="node">
<title>Node1</title>
<polygon fill="#bfbfbf" stroke="#000000" points="0,-681.5 0,-701.5 108,-701.5 108,-681.5 0,-681.5"/>
<text text-anchor="middle" x="54" y="-688.5" font-family="FreeSans" font-size="10.00" fill="#000000">PHNodeIterator::ls</text>
</g>
<!-- Node2 -->
<g id="node2" class="node">
<title>Node2</title>
<g id="a_node2"><a xlink:href="../../da/d29/classFun4AllServer.html#a3654ebdcb099bcc5c820df6d4952663c" target="_top" xlink:title="Fun4AllServer::CountOutNodes\lRecursive">
<polygon fill="none" stroke="#000000" points="144,-793.5 144,-825.5 317,-825.5 317,-793.5 144,-793.5"/>
<text text-anchor="start" x="152" y="-812.5" font-family="FreeSans" font-size="10.00" fill="#000000">Fun4AllServer::CountOutNodes</text>
<text text-anchor="middle" x="230.5" y="-800.5" font-family="FreeSans" font-size="10.00" fill="#000000">Recursive</text>
</a>
</g>
</g>
<!-- Node1&#45;&gt;Node2 -->
<g id="edge1" class="edge">
<title>Node1&#45;&gt;Node2</title>
<path fill="none" stroke="#191970" d="M71.2553,-708.7228C88.5989,-725.4159 116.6177,-750.7486 144,-768.5 158.6422,-777.9923 175.8249,-786.5953 191.001,-793.4416"/>
<polygon fill="#191970" stroke="#191970" points="73.6798,-706.1984 64.0784,-701.7192 68.7909,-711.2083 73.6798,-706.1984"/>
</g>
<!-- Node42 -->
<g id="node42" class="node">
<title>Node42</title>
<g id="a_node42"><a xlink:href="../../da/d29/classFun4AllServer.html#ac9e5b55796d46d41f6f0ec9e3422959a" target="_top" xlink:title="Fun4AllServer::MakeNodes\lPersistent">
<polygon fill="none" stroke="#000000" points="154.5,-726.5 154.5,-758.5 306.5,-758.5 306.5,-726.5 154.5,-726.5"/>
<text text-anchor="start" x="162.5" y="-745.5" font-family="FreeSans" font-size="10.00" fill="#000000">Fun4AllServer::MakeNodes</text>
<text text-anchor="middle" x="230.5" y="-733.5" font-family="FreeSans" font-size="10.00" fill="#000000">Persistent</text>
</a>
</g>
</g>
<!-- Node1&#45;&gt;Node42 -->
<g id="edge41" class="edge">
<title>Node1&#45;&gt;Node42</title>
<path fill="none" stroke="#191970" d="M98.7593,-704.4333C121.8872,-711.1161 150.3287,-719.3343 174.8587,-726.4223"/>
<polygon fill="#191970" stroke="#191970" points="99.4493,-700.9895 88.8707,-701.576 97.5061,-707.7144 99.4493,-700.9895"/>
</g>
<!-- Node45 -->
<g id="node45" class="node">
<title>Node45</title>
<g id="a_node45"><a xlink:href="../../da/d29/classFun4AllServer.html#a92c6fe0e0c19c48d2b1f9d0f63c12bbe" target="_top" xlink:title="Fun4AllServer::MakeNodes\lTransient">
<polygon fill="none" stroke="#000000" points="154.5,-675.5 154.5,-707.5 306.5,-707.5 306.5,-675.5 154.5,-675.5"/>
<text text-anchor="start" x="162.5" y="-694.5" font-family="FreeSans" font-size="10.00" fill="#000000">Fun4AllServer::MakeNodes</text>
<text text-anchor="middle" x="230.5" y="-682.5" font-family="FreeSans" font-size="10.00" fill="#000000">Transient</text>
</a>
</g>
</g>
<!-- Node1&#45;&gt;Node45 -->
<g id="edge44" class="edge">
<title>Node1&#45;&gt;Node45</title>
<path fill="none" stroke="#191970" d="M118.4392,-691.5C130.0678,-691.5 142.2927,-691.5 154.2203,-691.5"/>
<polygon fill="#191970" stroke="#191970" points="118.396,-688.0001 108.396,-691.5 118.396,-695.0001 118.396,-688.0001"/>
</g>
<!-- Node46 -->
<g id="node46" class="node">
<title>Node46</title>
<g id="a_node46"><a xlink:href="../../df/df1/classPHG4DstCompressReco.html#ac7416ba5fa41828ae966d4bc7a2b5682" target="_top" xlink:title="PHG4DstCompressReco\l::SearchG4HitNodes">
<polygon fill="none" stroke="#000000" points="163,-624.5 163,-656.5 298,-656.5 298,-624.5 163,-624.5"/>
<text text-anchor="start" x="171" y="-643.5" font-family="FreeSans" font-size="10.00" fill="#000000">PHG4DstCompressReco</text>
<text text-anchor="middle" x="230.5" y="-631.5" font-family="FreeSans" font-size="10.00" fill="#000000">::SearchG4HitNodes</text>
</a>
</g>
</g>
<!-- Node1&#45;&gt;Node46 -->
<g id="edge47" class="edge">
<title>Node1&#45;&gt;Node46</title>
<path fill="none" stroke="#191970" d="M98.7593,-678.5667C121.8872,-671.8839 150.3287,-663.6657 174.8587,-656.5777"/>
<polygon fill="#191970" stroke="#191970" points="97.5061,-675.2856 88.8707,-681.424 99.4493,-682.0105 97.5061,-675.2856"/>
</g>
<!-- Node48 -->
<g id="node48" class="node">
<title>Node48</title>
<g id="a_node48"><a xlink:href="../../dd/d9d/classPHG4TruthEventAction.html#a8140dbcb21650639a4d51d11cd23951b" target="_top" xlink:title="PHG4TruthEventAction\l::SearchNode">
<polygon fill="none" stroke="#000000" points="165.5,-573.5 165.5,-605.5 295.5,-605.5 295.5,-573.5 165.5,-573.5"/>
<text text-anchor="start" x="173.5" y="-592.5" font-family="FreeSans" font-size="10.00" fill="#000000">PHG4TruthEventAction</text>
<text text-anchor="middle" x="230.5" y="-580.5" font-family="FreeSans" font-size="10.00" fill="#000000">::SearchNode</text>
</a>
</g>
</g>
<!-- Node1&#45;&gt;Node48 -->
<g id="edge49" class="edge">
<title>Node1&#45;&gt;Node48</title>
<path fill="none" stroke="#191970" d="M69.8514,-674.1467C86.6718,-656.7147 114.806,-630.2421 144,-614.5 150.6044,-610.9388 157.7732,-607.8341 165.0625,-605.14"/>
<polygon fill="#191970" stroke="#191970" points="67.2771,-671.7751 62.9561,-681.4488 72.3666,-676.5811 67.2771,-671.7751"/>
</g>
<!-- Node3 -->
<g id="node3" class="node">
<title>Node3</title>
<g id="a_node3"><a xlink:href="../../da/d29/classFun4AllServer.html#a6f3f13c3a8b5c29457e694ba910296aa" target="_top" xlink:title="Fun4AllServer::CountOutNodes">
<polygon fill="none" stroke="#000000" points="353,-816.5 353,-836.5 526,-836.5 526,-816.5 353,-816.5"/>
<text text-anchor="middle" x="439.5" y="-823.5" font-family="FreeSans" font-size="10.00" fill="#000000">Fun4AllServer::CountOutNodes</text>
</a>
</g>
</g>
<!-- Node2&#45;&gt;Node3 -->
<g id="edge2" class="edge">
<title>Node2&#45;&gt;Node3</title>
<path fill="none" stroke="#191970" d="M327.0268,-817.3515C335.5937,-818.0483 344.2324,-818.751 352.711,-819.4406"/>
<polygon fill="#191970" stroke="#191970" points="327.2678,-813.8596 317.017,-816.5373 326.7003,-820.8366 327.2678,-813.8596"/>
</g>
<!-- Node4 -->
<g id="node4" class="node">
<title>Node4</title>
<g id="a_node4"><a xlink:href="../../da/d29/classFun4AllServer.html#a6a65a944dfb40966ace97d35ab1f7942" target="_top" xlink:title="Fun4AllServer::process\l_event">
<polygon fill="none" stroke="#000000" points="562,-739.5 562,-771.5 694,-771.5 694,-739.5 562,-739.5"/>
<text text-anchor="start" x="570" y="-758.5" font-family="FreeSans" font-size="10.00" fill="#000000">Fun4AllServer::process</text>
<text text-anchor="middle" x="628" y="-746.5" font-family="FreeSans" font-size="10.00" fill="#000000">_event</text>
</a>
</g>
</g>
<!-- Node3&#45;&gt;Node4 -->
<g id="edge3" class="edge">
<title>Node3&#45;&gt;Node4</title>
<path fill="none" stroke="#191970" d="M505.6387,-813.8103C512.5846,-811.9334 519.4838,-809.8332 526,-807.5 552.5729,-797.9852 581.0497,-783.0266 601.1423,-771.591"/>
<polygon fill="#191970" stroke="#191970" points="504.294,-810.541 495.4676,-816.4015 506.0222,-817.3243 504.294,-810.541"/>
</g>
<!-- Node5 -->
<g id="node5" class="node">
<title>Node5</title>
<g id="a_node5"><a xlink:href="../../da/d29/classFun4AllServer.html#a94738b092fa009fcea45737d8ea41224" target="_top" xlink:title="Fun4AllServer::process\l_event">
<polygon fill="none" stroke="#000000" points="730,-762.5 730,-794.5 862,-794.5 862,-762.5 730,-762.5"/>
<text text-anchor="start" x="738" y="-781.5" font-family="FreeSans" font-size="10.00" fill="#000000">Fun4AllServer::process</text>
<text text-anchor="middle" x="796" y="-769.5" font-family="FreeSans" font-size="10.00" fill="#000000">_event</text>
</a>
</g>
</g>
<!-- Node4&#45;&gt;Node5 -->
<g id="edge4" class="edge">
<title>Node4&#45;&gt;Node5</title>
<path fill="none" stroke="#191970" d="M704.3171,-765.9482C712.8262,-767.1131 721.4413,-768.2926 729.8092,-769.4382"/>
<polygon fill="#191970" stroke="#191970" points="704.7804,-762.479 694.398,-764.5902 703.8309,-769.4143 704.7804,-762.479"/>
</g>
<!-- Node6 -->
<g id="node6" class="node">
<title>Node6</title>
<g id="a_node6"><a xlink:href="../../da/d29/classFun4AllServer.html#a11bbc8b2f53bc06e0b05ee202dd6372a" target="_top" xlink:title="run n events (0 means up to end of file)">
<polygon fill="none" stroke="#ff0000" points="741,-723.5 741,-743.5 851,-743.5 851,-723.5 741,-723.5"/>
<text text-anchor="middle" x="796" y="-730.5" font-family="FreeSans" font-size="10.00" fill="#000000">Fun4AllServer::run</text>
</a>
</g>
</g>
<!-- Node4&#45;&gt;Node6 -->
<g id="edge5" class="edge">
<title>Node4&#45;&gt;Node6</title>
<path fill="none" stroke="#191970" d="M704.6055,-745.4683C716.8438,-743.8657 729.293,-742.2354 740.9033,-740.715"/>
<polygon fill="#191970" stroke="#191970" points="703.8589,-742.0361 694.398,-746.805 704.7679,-748.9769 703.8589,-742.0361"/>
</g>
<!-- Node7 -->
<g id="node7" class="node">
<title>Node7</title>
<g id="a_node7"><a xlink:href="../../dd/d9c/AnalyzeTree_8C.html#af10d516ac25cd720d54534a63ef7e2f8" target="_top" xlink:title="AnalyzeTree">
<polygon fill="none" stroke="#000000" points="942.5,-1446.5 942.5,-1466.5 1020.5,-1466.5 1020.5,-1446.5 942.5,-1446.5"/>
<text text-anchor="middle" x="981.5" y="-1453.5" font-family="FreeSans" font-size="10.00" fill="#000000">AnalyzeTree</text>
</a>
</g>
</g>
<!-- Node6&#45;&gt;Node7 -->
<g id="edge6" class="edge">
<title>Node6&#45;&gt;Node7</title>
<path fill="none" stroke="#191970" d="M858.4582,-749.597C859.7231,-750.808 860.9086,-752.1069 862,-753.5 955.8716,-873.3171 799.9641,-1321.0656 898,-1437.5 908.7247,-1450.2374 926.0477,-1455.4663 942.1427,-1457.3186"/>
<polygon fill="#191970" stroke="#191970" points="860.5433,-746.7859 850.4451,-743.5801 856.3401,-752.3835 860.5433,-746.7859"/>
</g>
<!-- Node8 -->
<g id="node8" class="node">
<title>Node8</title>
<g id="a_node8"><a xlink:href="../../db/d89/ConstructGeometry_8C.html#a21c369835643f1016f506a3da3b8d446" target="_top" xlink:title="ConstructGeometry">
<polygon fill="none" stroke="#000000" points="924,-1407.5 924,-1427.5 1039,-1427.5 1039,-1407.5 924,-1407.5"/>
<text text-anchor="middle" x="981.5" y="-1414.5" font-family="FreeSans" font-size="10.00" fill="#000000">ConstructGeometry</text>
</a>
</g>
</g>
<!-- Node6&#45;&gt;Node8 -->
<g id="edge7" class="edge">
<title>Node6&#45;&gt;Node8</title>
<path fill="none" stroke="#191970" d="M858.4523,-749.6017C859.719,-750.8113 860.9064,-752.1086 862,-753.5 950.7137,-866.3642 805.3639,-1288.8324 898,-1398.5 904.7156,-1406.4502 914.0017,-1411.4733 923.9505,-1414.5755"/>
<polygon fill="#191970" stroke="#191970" points="860.5329,-746.7871 850.4318,-743.5905 856.3348,-752.3886 860.5329,-746.7871"/>
</g>
<!-- Node9 -->
<g id="node9" class="node">
<title>Node9</title>
<g id="a_node9"><a xlink:href="../../d3/d7f/Fun_8C.html#af69a3eef3ff244bb51f5740c6ecb5432" target="_top" xlink:title="Fun">
<polygon fill="none" stroke="#000000" points="964.5,-1368.5 964.5,-1388.5 998.5,-1388.5 998.5,-1368.5 964.5,-1368.5"/>
<text text-anchor="middle" x="981.5" y="-1375.5" font-family="FreeSans" font-size="10.00" fill="#000000">Fun</text>
</a>
</g>
</g>
<!-- Node6&#45;&gt;Node9 -->
<g id="edge8" class="edge">
<title>Node6&#45;&gt;Node9</title>
<path fill="none" stroke="#191970" d="M858.4457,-749.6069C859.7143,-750.8149 860.9039,-752.1106 862,-753.5 945.5565,-859.4123 810.7628,-1256.5982 898,-1359.5 914.1515,-1378.5517 945.0646,-1380.7806 964.4088,-1380.0618"/>
<polygon fill="#191970" stroke="#191970" points="860.5212,-746.7886 850.4168,-743.6024 856.3288,-752.3943 860.5212,-746.7886"/>
</g>
<!-- Node10 -->
<g id="node10" class="node">
<title>Node10</title>
<g id="a_node10"><a xlink:href="../../dc/ddc/Fun4All__Ana_8C.html#a9152007c2477efc543d79f3b97fbf50c" target="_top" xlink:title="Fun4All_Ana">
<polygon fill="none" stroke="#000000" points="942.5,-1329.5 942.5,-1349.5 1020.5,-1349.5 1020.5,-1329.5 942.5,-1329.5"/>
<text text-anchor="middle" x="981.5" y="-1336.5" font-family="FreeSans" font-size="10.00" fill="#000000">Fun4All_Ana</text>
</a>
</g>
</g>
<!-- Node6&#45;&gt;Node10 -->
<g id="edge9" class="edge">
<title>Node6&#45;&gt;Node10</title>
<path fill="none" stroke="#191970" d="M858.4382,-749.6128C859.7089,-750.8192 860.901,-752.1128 862,-753.5 940.4002,-852.4616 816.1608,-1224.3629 898,-1320.5 908.7935,-1333.1792 926.1251,-1338.4008 942.208,-1340.2633"/>
<polygon fill="#191970" stroke="#191970" points="860.5078,-746.7902 850.3997,-743.6159 856.3221,-752.4009 860.5078,-746.7902"/>
</g>
<!-- Node11 -->
<g id="node11" class="node">
<title>Node11</title>
<g id="a_node11"><a xlink:href="../../df/d77/Fun4All__CaloAna_8C.html#a4f0841e3d8be48f96cc4e95380315ff8" target="_top" xlink:title="Fun4All_CaloAna">
<polygon fill="none" stroke="#000000" points="931.5,-1290.5 931.5,-1310.5 1031.5,-1310.5 1031.5,-1290.5 931.5,-1290.5"/>
<text text-anchor="middle" x="981.5" y="-1297.5" font-family="FreeSans" font-size="10.00" fill="#000000">Fun4All_CaloAna</text>
</a>
</g>
</g>
<!-- Node6&#45;&gt;Node11 -->
<g id="edge10" class="edge">
<title>Node6&#45;&gt;Node11</title>
<path fill="none" stroke="#191970" d="M858.4295,-749.6197C859.7029,-750.824 860.8978,-752.1154 862,-753.5 935.2451,-845.5123 821.5577,-1192.1262 898,-1281.5 906.4072,-1291.3294 918.7438,-1296.6723 931.3682,-1299.4428"/>
<polygon fill="#191970" stroke="#191970" points="860.4925,-746.7921 850.3801,-743.6314 856.3143,-752.4084 860.4925,-746.7921"/>
</g>
<!-- Node12 -->
<g id="node12" class="node">
<title>Node12</title>
<g id="a_node12"><a xlink:href="../../da/dae/Fun4All__EICAnalysis__DIS_8C.html#a6be6c58cd68a395182a998295a1106ae" target="_top" xlink:title="Fun4All_EICAnalysis_DIS">
<polygon fill="none" stroke="#000000" points="912,-1251.5 912,-1271.5 1051,-1271.5 1051,-1251.5 912,-1251.5"/>
<text text-anchor="middle" x="981.5" y="-1258.5" font-family="FreeSans" font-size="10.00" fill="#000000">Fun4All_EICAnalysis_DIS</text>
</a>
</g>
</g>
<!-- Node6&#45;&gt;Node12 -->
<g id="edge11" class="edge">
<title>Node6&#45;&gt;Node12</title>
<path fill="none" stroke="#191970" d="M858.4196,-749.6276C859.6958,-750.8296 860.8941,-752.1184 862,-753.5 930.0914,-838.5648 826.9531,-1159.8878 898,-1242.5 901.8776,-1247.0088 906.582,-1250.5724 911.7602,-1253.3763"/>
<polygon fill="#191970" stroke="#191970" points="860.4748,-746.7944 850.3575,-743.6494 856.3054,-752.4172 860.4748,-746.7944"/>
</g>
<!-- Node13 -->
<g id="node13" class="node">
<title>Node13</title>
<g id="a_node13"><a xlink:href="../../d2/d9b/Fun4All__EICAnalysis__DISReco_8C.html#a3c160743ec7b9b4572cf73a19640a34f" target="_top" xlink:title="Fun4All_EICAnalysis\l_DISReco">
<polygon fill="none" stroke="#000000" points="923,-1200.5 923,-1232.5 1040,-1232.5 1040,-1200.5 923,-1200.5"/>
<text text-anchor="start" x="931" y="-1219.5" font-family="FreeSans" font-size="10.00" fill="#000000">Fun4All_EICAnalysis</text>
<text text-anchor="middle" x="981.5" y="-1207.5" font-family="FreeSans" font-size="10.00" fill="#000000">_DISReco</text>
</a>
</g>
</g>
<!-- Node6&#45;&gt;Node13 -->
<g id="edge12" class="edge">
<title>Node6&#45;&gt;Node13</title>
<path fill="none" stroke="#191970" d="M858.4039,-749.6402C859.6847,-750.8385 860.8882,-752.1231 862,-753.5 923.3546,-829.4829 836.5191,-1115.6193 898,-1191.5 904.3826,-1199.3775 913.1438,-1204.844 922.6013,-1208.622"/>
<polygon fill="#191970" stroke="#191970" points="860.447,-746.7981 850.322,-743.678 856.2914,-752.4311 860.447,-746.7981"/>
</g>
<!-- Node14 -->
<g id="node14" class="node">
<title>Node14</title>
<g id="a_node14"><a xlink:href="../../d2/d47/Fun4All__EICAnalysis__DVCS_8C.html#a84f48142243e969fd353cc8509f0ba22" target="_top" xlink:title="Fun4All_EICAnalysis_DVCS">
<polygon fill="none" stroke="#000000" points="906.5,-1161.5 906.5,-1181.5 1056.5,-1181.5 1056.5,-1161.5 906.5,-1161.5"/>
<text text-anchor="middle" x="981.5" y="-1168.5" font-family="FreeSans" font-size="10.00" fill="#000000">Fun4All_EICAnalysis_DVCS</text>
</a>
</g>
</g>
<!-- Node6&#45;&gt;Node14 -->
<g id="edge13" class="edge">
<title>Node6&#45;&gt;Node14</title>
<path fill="none" stroke="#191970" d="M858.2995,-749.5688C859.6181,-750.7874 860.8567,-752.0956 862,-753.5 918.2056,-822.5413 839.3961,-1085.4824 898,-1152.5 901.0338,-1155.9694 904.5573,-1158.8772 908.4074,-1161.3085"/>
<polygon fill="#191970" stroke="#191970" points="860.1264,-746.57 849.9785,-743.5254 856.0129,-752.2338 860.1264,-746.57"/>
</g>
<!-- Node15 -->
<g id="node15" class="node">
<title>Node15</title>
<g id="a_node15"><a xlink:href="../../d3/dee/Fun4All__EICAnalysis__Exclusive_8C.html#ad3a88bfdb2a21a757edf221e36d6bffe" target="_top" xlink:title="Fun4All_EICAnalysis\l_Exclusive">
<polygon fill="none" stroke="#000000" points="923,-1110.5 923,-1142.5 1040,-1142.5 1040,-1110.5 923,-1110.5"/>
<text text-anchor="start" x="931" y="-1129.5" font-family="FreeSans" font-size="10.00" fill="#000000">Fun4All_EICAnalysis</text>
<text text-anchor="middle" x="981.5" y="-1117.5" font-family="FreeSans" font-size="10.00" fill="#000000">_Exclusive</text>
</a>
</g>
</g>
<!-- Node6&#45;&gt;Node15 -->
<g id="edge14" class="edge">
<title>Node6&#45;&gt;Node15</title>
<path fill="none" stroke="#191970" d="M858.2752,-749.5888C859.6009,-750.8015 860.8475,-752.1031 862,-753.5 960.9551,-873.4403 798.8455,-981.7245 898,-1101.5 904.4652,-1109.3098 913.2658,-1114.7441 922.7365,-1118.5113"/>
<polygon fill="#191970" stroke="#191970" points="860.0827,-746.5773 849.9236,-743.5704 855.9902,-752.2563 860.0827,-746.5773"/>
</g>
<!-- Node16 -->
<g id="node16" class="node">
<title>Node16</title>
<g id="a_node16"><a xlink:href="../../d2/d00/Fun4All__EICAnalysis__Leptoquarks_8C.html#a328697c2ae82c0b33f95bea9aefb93f4" target="_top" xlink:title="Fun4All_EICAnalysis\l_Leptoquarks">
<polygon fill="none" stroke="#000000" points="923,-1059.5 923,-1091.5 1040,-1091.5 1040,-1059.5 923,-1059.5"/>
<text text-anchor="start" x="931" y="-1078.5" font-family="FreeSans" font-size="10.00" fill="#000000">Fun4All_EICAnalysis</text>
<text text-anchor="middle" x="981.5" y="-1066.5" font-family="FreeSans" font-size="10.00" fill="#000000">_Leptoquarks</text>
</a>
</g>
</g>
<!-- Node6&#45;&gt;Node16 -->
<g id="edge15" class="edge">
<title>Node6&#45;&gt;Node16</title>
<path fill="none" stroke="#191970" d="M858.2427,-749.6158C859.5779,-750.8207 860.8353,-752.1133 862,-753.5 947.5159,-855.3186 812.3148,-948.8238 898,-1050.5 904.5335,-1058.2528 913.3666,-1063.6599 922.8481,-1067.4181"/>
<polygon fill="#191970" stroke="#191970" points="860.0245,-746.5876 849.8505,-743.6312 855.9602,-752.2869 860.0245,-746.5876"/>
</g>
<!-- Node17 -->
<g id="node17" class="node">
<title>Node17</title>
<g id="a_node17"><a xlink:href="../../df/d6c/Fun4All__EICAnalysis__JPsi_8C.html#ad03644e8a25c5261146f6c59826ed6d0" target="_top" xlink:title="Fun4All_EICAnalysis\l_Quarkonia">
<polygon fill="none" stroke="#000000" points="923,-1008.5 923,-1040.5 1040,-1040.5 1040,-1008.5 923,-1008.5"/>
<text text-anchor="start" x="931" y="-1027.5" font-family="FreeSans" font-size="10.00" fill="#000000">Fun4All_EICAnalysis</text>
<text text-anchor="middle" x="981.5" y="-1015.5" font-family="FreeSans" font-size="10.00" fill="#000000">_Quarkonia</text>
</a>
</g>
</g>
<!-- Node6&#45;&gt;Node17 -->
<g id="edge16" class="edge">
<title>Node6&#45;&gt;Node17</title>
<path fill="none" stroke="#191970" d="M857.7265,-749.2434C859.2502,-750.553 860.6816,-751.969 862,-753.5 934.1046,-837.2299 825.7562,-915.8901 898,-999.5 904.5297,-1007.0571 913.2426,-1012.3792 922.5789,-1016.1165"/>
<polygon fill="#191970" stroke="#191970" points="859.6573,-746.3234 849.4338,-743.5429 855.6919,-752.092 859.6573,-746.3234"/>
</g>
<!-- Node18 -->
<g id="node18" class="node">
<title>Node18</title>
<g id="a_node18"><a xlink:href="../../df/d90/Fun4All__EICAnalysis__TrackEval_8C.html#ab4d10c3db3266243a5c314b02c02a360" target="_top" xlink:title="Fun4All_EICAnalysis\l_TrackEval">
<polygon fill="none" stroke="#000000" points="923,-957.5 923,-989.5 1040,-989.5 1040,-957.5 923,-957.5"/>
<text text-anchor="start" x="931" y="-976.5" font-family="FreeSans" font-size="10.00" fill="#000000">Fun4All_EICAnalysis</text>
<text text-anchor="middle" x="981.5" y="-964.5" font-family="FreeSans" font-size="10.00" fill="#000000">_TrackEval</text>
</a>
</g>
</g>
<!-- Node6&#45;&gt;Node18 -->
<g id="edge17" class="edge">
<title>Node6&#45;&gt;Node18</title>
<path fill="none" stroke="#191970" d="M857.5493,-749.2224C859.1326,-750.5374 860.6234,-751.9604 862,-753.5 920.7432,-819.1989 839.1476,-882.8989 898,-948.5 904.6694,-955.9341 913.4498,-961.1967 922.8096,-964.9134"/>
<polygon fill="#191970" stroke="#191970" points="859.226,-746.134 848.9621,-743.5065 855.3472,-751.9612 859.226,-746.134"/>
</g>
<!-- Node19 -->
<g id="node19" class="node">
<title>Node19</title>
<g id="a_node19"><a xlink:href="../../de/dc8/Fun4All__EMCalLikelihood_8C.html#a209f0d5788c9d3adba2967f194bca64a" target="_top" xlink:title="Fun4All_EMCalLikelihood">
<polygon fill="none" stroke="#000000" points="911,-918.5 911,-938.5 1052,-938.5 1052,-918.5 911,-918.5"/>
<text text-anchor="middle" x="981.5" y="-925.5" font-family="FreeSans" font-size="10.00" fill="#000000">Fun4All_EMCalLikelihood</text>
</a>
</g>
</g>
<!-- Node6&#45;&gt;Node19 -->
<g id="edge18" class="edge">
<title>Node6&#45;&gt;Node19</title>
<path fill="none" stroke="#191970" d="M856.9426,-748.8921C858.7435,-750.2977 860.4389,-751.8299 862,-753.5 910.5898,-805.4821 847.6084,-859.2626 898,-909.5 901.7903,-913.2787 906.1659,-916.3704 910.8871,-918.8936"/>
<polygon fill="#191970" stroke="#191970" points="858.7773,-745.9112 848.4593,-743.5051 855.0248,-751.8204 858.7773,-745.9112"/>
</g>
<!-- Node20 -->
<g id="node20" class="node">
<title>Node20</title>
<g id="a_node20"><a xlink:href="../../df/d51/Fun4All__ExportGeom_8C.html#a582925c51bad38d562cf19e71211adfd" target="_top" xlink:title="get geometry from DST file and output TGeoManager ROOT files or other formats of geometry files...">
<polygon fill="none" stroke="#000000" points="920.5,-879.5 920.5,-899.5 1042.5,-899.5 1042.5,-879.5 920.5,-879.5"/>
<text text-anchor="middle" x="981.5" y="-886.5" font-family="FreeSans" font-size="10.00" fill="#000000">Fun4All_ExportGeom</text>
</a>
</g>
</g>
<!-- Node6&#45;&gt;Node20 -->
<g id="edge19" class="edge">
<title>Node6&#45;&gt;Node20</title>
<path fill="none" stroke="#191970" d="M856.6736,-748.9517C858.5603,-750.3402 860.3456,-751.8526 862,-753.5 900.5527,-791.8887 858.1183,-833.4939 898,-870.5 904.3209,-876.3652 912.0638,-880.548 920.2598,-883.5097"/>
<polygon fill="#191970" stroke="#191970" points="858.2142,-745.7935 847.844,-743.6234 854.5975,-751.7868 858.2142,-745.7935"/>
</g>
<!-- Node21 -->
<g id="node21" class="node">
<title>Node21</title>
<g id="a_node21"><a xlink:href="../../de/d55/Fun4All__G4__block_8C.html#a6a063a649a0dd3318a517d5af98430dd" target="_top" xlink:title="Fun4All_G4_block">
<polygon fill="none" stroke="#000000" points="929,-840.5 929,-860.5 1034,-860.5 1034,-840.5 929,-840.5"/>
<text text-anchor="middle" x="981.5" y="-847.5" font-family="FreeSans" font-size="10.00" fill="#000000">Fun4All_G4_block</text>
</a>
</g>
</g>
<!-- Node6&#45;&gt;Node21 -->
<g id="edge20" class="edge">
<title>Node6&#45;&gt;Node21</title>
<path fill="none" stroke="#191970" d="M854.9131,-748.2845C857.4185,-749.8511 859.7989,-751.5838 862,-753.5 890.7973,-778.5698 868.3371,-807.4606 898,-831.5 906.7782,-838.614 917.7036,-843.1787 928.7277,-846.0806"/>
<polygon fill="#191970" stroke="#191970" points="856.4683,-745.1477 845.9913,-743.572 853.1989,-751.3373 856.4683,-745.1477"/>
</g>
<!-- Node22 -->
<g id="node22" class="node">
<title>Node22</title>
<g id="a_node22"><a xlink:href="../../d8/d91/Fun4All__G4__Clusters_8C.html#ab7d8e64f12f512631d4c0e8c6683ec5b" target="_top" xlink:title="Fun4All_G4_Clusters">
<polygon fill="none" stroke="#000000" points="922,-801.5 922,-821.5 1041,-821.5 1041,-801.5 922,-801.5"/>
<text text-anchor="middle" x="981.5" y="-808.5" font-family="FreeSans" font-size="10.00" fill="#000000">Fun4All_G4_Clusters</text>
</a>
</g>
</g>
<!-- Node6&#45;&gt;Node22 -->
<g id="edge21" class="edge">
<title>Node6&#45;&gt;Node22</title>
<path fill="none" stroke="#191970" d="M850.3596,-747.3536C854.4174,-749.1706 858.3477,-751.2112 862,-753.5 881.9884,-766.0263 877.5826,-780.6859 898,-792.5 905.3348,-796.7441 913.543,-800.0403 921.8719,-802.6001"/>
<polygon fill="#191970" stroke="#191970" points="851.3155,-743.9667 840.7306,-743.5085 848.7195,-750.4675 851.3155,-743.9667"/>
</g>
<!-- Node23 -->
<g id="node23" class="node">
<title>Node23</title>
<g id="a_node23"><a xlink:href="../../d2/dee/Fun4All__G4__Cylinder_8C.html#a271dc4f10f6f77107705e0efef0c97e5" target="_top" xlink:title="Fun4All_G4_Cylinder">
<polygon fill="none" stroke="#000000" points="921,-762.5 921,-782.5 1042,-782.5 1042,-762.5 921,-762.5"/>
<text text-anchor="middle" x="981.5" y="-769.5" font-family="FreeSans" font-size="10.00" fill="#000000">Fun4All_G4_Cylinder</text>
</a>
</g>
</g>
<!-- Node6&#45;&gt;Node23 -->
<g id="edge22" class="edge">
<title>Node6&#45;&gt;Node23</title>
<path fill="none" stroke="#191970" d="M853.7758,-745.6469C879.5153,-751.0585 909.4651,-757.3552 933.891,-762.4906"/>
<polygon fill="#191970" stroke="#191970" points="854.2771,-742.1759 843.7709,-743.5435 852.8368,-749.0261 854.2771,-742.1759"/>
</g>
<!-- Node24 -->
<g id="node24" class="node">
<title>Node24</title>
<g id="a_node24"><a xlink:href="../../da/d02/Fun4All__G4__EICDetector_8C.html#afbe82cefa1d1fd031d9a8586b7bb68c6" target="_top" xlink:title="Fun4All_G4_EICDetector">
<polygon fill="none" stroke="#000000" points="912,-723.5 912,-743.5 1051,-743.5 1051,-723.5 912,-723.5"/>
<text text-anchor="middle" x="981.5" y="-730.5" font-family="FreeSans" font-size="10.00" fill="#000000">Fun4All_G4_EICDetector</text>
</a>
</g>
</g>
<!-- Node6&#45;&gt;Node24 -->
<g id="edge23" class="edge">
<title>Node6&#45;&gt;Node24</title>
<path fill="none" stroke="#191970" d="M861.1601,-733.5C877.5254,-733.5 895.1514,-733.5 911.7317,-733.5"/>
<polygon fill="#191970" stroke="#191970" points="861.1539,-730.0001 851.1539,-733.5 861.1538,-737.0001 861.1539,-730.0001"/>
</g>
<!-- Node25 -->
<g id="node25" class="node">
<title>Node25</title>
<g id="a_node25"><a xlink:href="../../dd/d2a/Fun4All__G4__EICDetector__LQ_8C.html#aaa01242fd6e77ca43a9d49a6d46008e4" target="_top" xlink:title="Fun4All_G4_EICDetector_LQ">
<polygon fill="none" stroke="#000000" points="903.5,-684.5 903.5,-704.5 1059.5,-704.5 1059.5,-684.5 903.5,-684.5"/>
<text text-anchor="middle" x="981.5" y="-691.5" font-family="FreeSans" font-size="10.00" fill="#000000">Fun4All_G4_EICDetector_LQ</text>
</a>
</g>
</g>
<!-- Node6&#45;&gt;Node25 -->
<g id="edge24" class="edge">
<title>Node6&#45;&gt;Node25</title>
<path fill="none" stroke="#191970" d="M853.7758,-721.3531C879.5153,-715.9415 909.4651,-709.6448 933.891,-704.5094"/>
<polygon fill="#191970" stroke="#191970" points="852.8368,-717.9739 843.7709,-723.4565 854.2771,-724.8241 852.8368,-717.9739"/>
</g>
<!-- Node26 -->
<g id="node26" class="node">
<title>Node26</title>
<g id="a_node26"><a xlink:href="../../df/d4b/Fun4All__G4__EICDetector__LQ__analysis_8C.html#af903e98824d083a08b353ac15996ee0e" target="_top" xlink:title="Fun4All_G4_EICDetector\l_LQ_analysis">
<polygon fill="none" stroke="#000000" points="912,-633.5 912,-665.5 1051,-665.5 1051,-633.5 912,-633.5"/>
<text text-anchor="start" x="920" y="-652.5" font-family="FreeSans" font-size="10.00" fill="#000000">Fun4All_G4_EICDetector</text>
<text text-anchor="middle" x="981.5" y="-640.5" font-family="FreeSans" font-size="10.00" fill="#000000">_LQ_analysis</text>
</a>
</g>
</g>
<!-- Node6&#45;&gt;Node26 -->
<g id="edge25" class="edge">
<title>Node6&#45;&gt;Node26</title>
<path fill="none" stroke="#191970" d="M819.9055,-717.9454C840.1078,-705.2862 870.1269,-687.5962 898,-675.5 906.3568,-671.8734 915.3832,-668.5185 924.3061,-665.5072"/>
<polygon fill="#191970" stroke="#191970" points="817.9255,-715.0565 811.3571,-723.3696 821.676,-720.9671 817.9255,-715.0565"/>
</g>
<!-- Node27 -->
<g id="node27" class="node">
<title>Node27</title>
<g id="a_node27"><a xlink:href="../../d1/daf/Fun4All__G4__EICDetector__LQ__analysis__nf_8C.html#a5022607d21247b87dd208b0828905147" target="_top" xlink:title="Fun4All_G4_EICDetector\l_LQ_analysis_nf">
<polygon fill="none" stroke="#000000" points="912,-582.5 912,-614.5 1051,-614.5 1051,-582.5 912,-582.5"/>
<text text-anchor="start" x="920" y="-601.5" font-family="FreeSans" font-size="10.00" fill="#000000">Fun4All_G4_EICDetector</text>
<text text-anchor="middle" x="981.5" y="-589.5" font-family="FreeSans" font-size="10.00" fill="#000000">_LQ_analysis_nf</text>
</a>
</g>
</g>
<!-- Node6&#45;&gt;Node27 -->
<g id="edge26" class="edge">
<title>Node6&#45;&gt;Node27</title>
<path fill="none" stroke="#191970" d="M808.3846,-714.9071C825.6354,-690.4278 859.1864,-647.6729 898,-623.5 903.3949,-620.1401 909.2671,-617.2098 915.3148,-614.6585"/>
<polygon fill="#191970" stroke="#191970" points="805.3823,-713.096 802.5942,-723.3174 811.1479,-717.0656 805.3823,-713.096"/>
</g>
<!-- Node28 -->
<g id="node28" class="node">
<title>Node28</title>
<g id="a_node28"><a xlink:href="../../d4/df5/Fun4All__G4__EICDetector__LQ__reference_8C.html#a2feefc472f17f90b3cbe74897d049f75" target="_top" xlink:title="Fun4All_G4_EICDetector\l_LQ_reference">
<polygon fill="none" stroke="#000000" points="912,-531.5 912,-563.5 1051,-563.5 1051,-531.5 912,-531.5"/>
<text text-anchor="start" x="920" y="-550.5" font-family="FreeSans" font-size="10.00" fill="#000000">Fun4All_G4_EICDetector</text>
<text text-anchor="middle" x="981.5" y="-538.5" font-family="FreeSans" font-size="10.00" fill="#000000">_LQ_reference</text>
</a>
</g>
</g>
<!-- Node6&#45;&gt;Node28 -->
<g id="edge27" class="edge">
<title>Node6&#45;&gt;Node28</title>
<path fill="none" stroke="#191970" d="M803.1474,-713.7289C816.453,-679.7232 848.2659,-610.19 898,-572.5 902.4623,-569.1183 907.379,-566.1919 912.5256,-563.6598"/>
<polygon fill="#191970" stroke="#191970" points="799.7401,-712.8444 799.4784,-723.436 806.288,-715.3193 799.7401,-712.8444"/>
</g>
<!-- Node29 -->
<g id="node29" class="node">
<title>Node29</title>
<g id="a_node29"><a xlink:href="../../d3/d51/Fun4All__G4__EICDetector__RICH_8C.html#a5739502b0a7a1ba782c01069f77e933f" target="_top" xlink:title="Fun4All_G4_EICDetector_RICH">
<polygon fill="none" stroke="#000000" points="898,-492.5 898,-512.5 1065,-512.5 1065,-492.5 898,-492.5"/>
<text text-anchor="middle" x="981.5" y="-499.5" font-family="FreeSans" font-size="10.00" fill="#000000">Fun4All_G4_EICDetector_RICH</text>
</a>
</g>
</g>
<!-- Node6&#45;&gt;Node29 -->
<g id="edge28" class="edge">
<title>Node6&#45;&gt;Node29</title>
<path fill="none" stroke="#191970" d="M799.6818,-713.1372C808.4999,-670.525 834.968,-571.7506 898,-521.5 902.5337,-517.8856 907.624,-514.9315 912.9961,-512.5204"/>
<polygon fill="#191970" stroke="#191970" points="796.2099,-712.6551 797.7271,-723.1407 803.08,-713.9975 796.2099,-712.6551"/>
</g>
<!-- Node30 -->
<g id="node30" class="node">
<title>Node30</title>
<g id="a_node30"><a xlink:href="../../d9/d0e/Fun4All__G4__EICIR_8C.html#ac3543d1dd4a0abed3987d40939ee3f87" target="_top" xlink:title="Fun4All_G4_EICIR">
<polygon fill="none" stroke="#000000" points="929.5,-453.5 929.5,-473.5 1033.5,-473.5 1033.5,-453.5 929.5,-453.5"/>
<text text-anchor="middle" x="981.5" y="-460.5" font-family="FreeSans" font-size="10.00" fill="#000000">Fun4All_G4_EICIR</text>
</a>
</g>
</g>
<!-- Node6&#45;&gt;Node30 -->
<g id="edge29" class="edge">
<title>Node6&#45;&gt;Node30</title>
<path fill="none" stroke="#191970" d="M797.9704,-713.45C803.7859,-665.6238 825.3232,-544.2473 898,-482.5 906.8374,-474.9916 918.0411,-470.2948 929.3489,-467.3933"/>
<polygon fill="#191970" stroke="#191970" points="794.4833,-713.1402 796.8566,-723.4658 801.4405,-713.9139 794.4833,-713.1402"/>
</g>
<!-- Node31 -->
<g id="node31" class="node">
<title>Node31</title>
<g id="a_node31"><a xlink:href="../../d7/d9e/Fun4All__G4__fsPHENIX_8C.html#af48911d394d2412e817583700f2bbee2" target="_top" xlink:title="Fun4All_G4_fsPHENIX">
<polygon fill="none" stroke="#000000" points="919.5,-414.5 919.5,-434.5 1043.5,-434.5 1043.5,-414.5 919.5,-414.5"/>
<text text-anchor="middle" x="981.5" y="-421.5" font-family="FreeSans" font-size="10.00" fill="#000000">Fun4All_G4_fsPHENIX</text>
</a>
</g>
</g>
<!-- Node6&#45;&gt;Node31 -->
<g id="edge30" class="edge">
<title>Node6&#45;&gt;Node31</title>
<path fill="none" stroke="#191970" d="M796.7456,-713.2834C799.8417,-660.3608 815.7954,-516.7945 898,-443.5 904.1032,-438.0583 911.4382,-434.0778 919.1938,-431.1819"/>
<polygon fill="#191970" stroke="#191970" points="793.2433,-713.2463 796.2506,-723.4054 800.2349,-713.5883 793.2433,-713.2463"/>
</g>
<!-- Node32 -->
<g id="node32" class="node">
<title>Node32</title>
<g id="a_node32"><a xlink:href="../../da/d2f/Fun4All__G4__fsPHENIX__FastSim_8C.html#a66fb850cae5fcaadda23b74a25ce4c9c" target="_top" xlink:title="Fun4All_G4_fsPHENIX\l_FastSim">
<polygon fill="none" stroke="#000000" points="919.5,-363.5 919.5,-395.5 1043.5,-395.5 1043.5,-363.5 919.5,-363.5"/>
<text text-anchor="start" x="927.5" y="-382.5" font-family="FreeSans" font-size="10.00" fill="#000000">Fun4All_G4_fsPHENIX</text>
<text text-anchor="middle" x="981.5" y="-370.5" font-family="FreeSans" font-size="10.00" fill="#000000">_FastSim</text>
</a>
</g>
</g>
<!-- Node6&#45;&gt;Node32 -->
<g id="edge31" class="edge">
<title>Node6&#45;&gt;Node32</title>
<path fill="none" stroke="#191970" d="M799.7206,-713.1772C811.9305,-648.5624 852.6054,-449.4552 898,-404.5 904.0212,-398.5371 911.4037,-393.9867 919.2638,-390.5161"/>
<polygon fill="#191970" stroke="#191970" points="796.2257,-712.8269 797.8342,-723.2989 803.1072,-714.1095 796.2257,-712.8269"/>
</g>
<!-- Node33 -->
<g id="node33" class="node">
<title>Node33</title>
<g id="a_node33"><a xlink:href="../../d0/da6/Fun4All__G4__fsPHENIX__pi0_8C.html#a023d91d47b678e5d7f1751834aa517c6" target="_top" xlink:title="Fun4All_G4_fsPHENIX_pi0">
<polygon fill="none" stroke="#000000" points="909,-324.5 909,-344.5 1054,-344.5 1054,-324.5 909,-324.5"/>
<text text-anchor="middle" x="981.5" y="-331.5" font-family="FreeSans" font-size="10.00" fill="#000000">Fun4All_G4_fsPHENIX_pi0</text>
</a>
</g>
</g>
<!-- Node6&#45;&gt;Node33 -->
<g id="edge32" class="edge">
<title>Node6&#45;&gt;Node33</title>
<path fill="none" stroke="#191970" d="M798.6762,-713.2053C808.4734,-641.9689 844.62,-404.8632 898,-353.5 901.6424,-349.9952 905.7902,-347.0862 910.2449,-344.6766"/>
<polygon fill="#191970" stroke="#191970" points="795.2017,-712.7818 797.3314,-723.1603 802.1387,-713.7189 795.2017,-712.7818"/>
</g>
<!-- Node34 -->
<g id="node34" class="node">
<title>Node34</title>
<g id="a_node34"><a xlink:href="../../df/de1/Fun4All__G4__IonGun_8C.html#ab4966a2ae337cb8f0e45f7ee488e33b7" target="_top" xlink:title="Fun4All_G4_IonGun">
<polygon fill="none" stroke="#000000" points="924.5,-285.5 924.5,-305.5 1038.5,-305.5 1038.5,-285.5 924.5,-285.5"/>
<text text-anchor="middle" x="981.5" y="-292.5" font-family="FreeSans" font-size="10.00" fill="#000000">Fun4All_G4_IonGun</text>
</a>
</g>
</g>
<!-- Node6&#45;&gt;Node34 -->
<g id="edge33" class="edge">
<title>Node6&#45;&gt;Node34</title>
<path fill="none" stroke="#191970" d="M798.1427,-713.1382C806.5412,-637.2063 839.6582,-371.9699 898,-314.5 905.2022,-307.4054 914.4697,-302.7393 924.1972,-299.712"/>
<polygon fill="#191970" stroke="#191970" points="794.6413,-712.9631 797.0446,-723.2817 801.6006,-713.7165 794.6413,-712.9631"/>
</g>
<!-- Node35 -->
<g id="node35" class="node">
<title>Node35</title>
<g id="a_node35"><a xlink:href="../../d5/d01/Fun4All__G4__LeadBrick_8C.html#a5fcd8843f8a815feb3b053eaabd60d41" target="_top" xlink:title="Fun4All_G4_LeadBrick">
<polygon fill="none" stroke="#000000" points="917.5,-246.5 917.5,-266.5 1045.5,-266.5 1045.5,-246.5 917.5,-246.5"/>
<text text-anchor="middle" x="981.5" y="-253.5" font-family="FreeSans" font-size="10.00" fill="#000000">Fun4All_G4_LeadBrick</text>
</a>
</g>
</g>
<!-- Node6&#45;&gt;Node35 -->
<g id="edge34" class="edge">
<title>Node6&#45;&gt;Node35</title>
<path fill="none" stroke="#191970" d="M797.7168,-712.8332C804.8441,-632.0636 834.7341,-339.0578 898,-275.5 903.454,-270.0209 910.1374,-265.9837 917.3259,-263.0288"/>
<polygon fill="#191970" stroke="#191970" points="794.1988,-712.8944 796.8292,-723.1574 801.173,-713.494 794.1988,-712.8944"/>
</g>
<!-- Node36 -->
<g id="node36" class="node">
<title>Node36</title>
<g id="a_node36"><a xlink:href="../../d9/d8f/Fun4All__G4__Momentum_8C.html#afbd7a4eecd7792e9216ce80b5514123e" target="_top" xlink:title="Fun4All_G4_Momentum">
<polygon fill="none" stroke="#000000" points="914,-207.5 914,-227.5 1049,-227.5 1049,-207.5 914,-207.5"/>
<text text-anchor="middle" x="981.5" y="-214.5" font-family="FreeSans" font-size="10.00" fill="#000000">Fun4All_G4_Momentum</text>
</a>
</g>
</g>
<!-- Node6&#45;&gt;Node36 -->
<g id="edge35" class="edge">
<title>Node6&#45;&gt;Node36</title>
<path fill="none" stroke="#191970" d="M797.3158,-713.0026C803.1738,-628.2426 829.6654,-306.3068 898,-236.5 902.576,-231.8254 908.0457,-228.1964 913.9666,-225.3917"/>
<polygon fill="#191970" stroke="#191970" points="793.8131,-712.9281 796.6368,-723.1398 800.7974,-713.3961 793.8131,-712.9281"/>
</g>
<!-- Node37 -->
<g id="node37" class="node">
<title>Node37</title>
<g id="a_node37"><a xlink:href="../../dc/d8e/Fun4All__G4__Prototype2_8C.html#a6b8f092c4f51be2938dd09c810ba6226" target="_top" xlink:title="Fun4All_G4_Prototype2">
<polygon fill="none" stroke="#000000" points="915,-168.5 915,-188.5 1048,-188.5 1048,-168.5 915,-168.5"/>
<text text-anchor="middle" x="981.5" y="-175.5" font-family="FreeSans" font-size="10.00" fill="#000000">Fun4All_G4_Prototype2</text>
</a>
</g>
</g>
<!-- Node6&#45;&gt;Node37 -->
<g id="edge36" class="edge">
<title>Node6&#45;&gt;Node37</title>
<path fill="none" stroke="#191970" d="M796.9782,-713.1231C801.6497,-624.4923 824.5895,-273.578 898,-197.5 902.7488,-192.5787 908.4869,-188.8125 914.7057,-185.9452"/>
<polygon fill="#191970" stroke="#191970" points="793.4771,-713.0565 796.4665,-723.2208 800.4682,-713.4108 793.4771,-713.0565"/>
</g>
<!-- Node38 -->
<g id="node38" class="node">
<title>Node38</title>
<g id="a_node38"><a xlink:href="../../d7/d40/Fun4All__G4__Prototype3_8C.html#a1201361263017b08a070777a0b90b27c" target="_top" xlink:title="Fun4All_G4_Prototype3">
<polygon fill="none" stroke="#000000" points="915,-129.5 915,-149.5 1048,-149.5 1048,-129.5 915,-129.5"/>
<text text-anchor="middle" x="981.5" y="-136.5" font-family="FreeSans" font-size="10.00" fill="#000000">Fun4All_G4_Prototype3</text>
</a>
</g>
</g>
<!-- Node6&#45;&gt;Node38 -->
<g id="edge37" class="edge">
<title>Node6&#45;&gt;Node38</title>
<path fill="none" stroke="#191970" d="M796.6915,-713.1466C800.253,-620.6461 819.5235,-240.8508 898,-158.5 902.7179,-153.5491 908.4364,-149.764 914.6434,-146.8856"/>
<polygon fill="#191970" stroke="#191970" points="793.1847,-713.2718 796.3173,-723.3929 800.18,-713.5273 793.1847,-713.2718"/>
</g>
<!-- Node39 -->
<g id="node39" class="node">
<title>Node39</title>
<g id="a_node39"><a xlink:href="../../d4/d58/Fun4All__G4__Prototype4_8C.html#acac517f0728af658cbf99c7c9687c908" target="_top" xlink:title="Fun4All_G4_Prototype4">
<polygon fill="none" stroke="#000000" points="915,-90.5 915,-110.5 1048,-110.5 1048,-90.5 915,-90.5"/>
<text text-anchor="middle" x="981.5" y="-97.5" font-family="FreeSans" font-size="10.00" fill="#000000">Fun4All_G4_Prototype4</text>
</a>
</g>
</g>
<!-- Node6&#45;&gt;Node39 -->
<g id="edge38" class="edge">
<title>Node6&#45;&gt;Node39</title>
<path fill="none" stroke="#191970" d="M796.4453,-713.0005C798.9664,-616.4559 814.4923,-208.0961 898,-119.5 902.7928,-114.4152 908.6402,-110.5571 914.9934,-107.6465"/>
<polygon fill="#191970" stroke="#191970" points="792.9419,-713.1042 796.1986,-723.186 799.9398,-713.2737 792.9419,-713.1042"/>
</g>
<!-- Node40 -->
<g id="node40" class="node">
<title>Node40</title>
<g id="a_node40"><a xlink:href="../../d5/d2c/macros_2blob_2master_2macros_2g4simulations_2Fun4All__G4__sPHENIX_8C.html#a6eaaa492d7023ec86c562dc63aa1e5a4" target="_top" xlink:title="Fun4All_G4_sPHENIX">
<polygon fill="none" stroke="#000000" points="921,-51.5 921,-71.5 1042,-71.5 1042,-51.5 921,-51.5"/>
<text text-anchor="middle" x="981.5" y="-58.5" font-family="FreeSans" font-size="10.00" fill="#000000">Fun4All_G4_sPHENIX</text>
</a>
</g>
</g>
<!-- Node6&#45;&gt;Node40 -->
<g id="edge39" class="edge">
<title>Node6&#45;&gt;Node40</title>
<path fill="none" stroke="#191970" d="M796.2232,-712.9767C797.74,-612.7141 809.4145,-175.3985 898,-80.5 904.1884,-73.8706 912.1686,-69.3217 920.7353,-66.2383"/>
<polygon fill="#191970" stroke="#191970" points="792.7229,-712.9824 796.0893,-723.0281 799.7223,-713.0757 792.7229,-712.9824"/>
</g>
<!-- Node41 -->
<g id="node41" class="node">
<title>Node41</title>
<g id="a_node41"><a xlink:href="../../d3/de2/Fun4All__G4__sPHENIX__AnaGenFit_8C.html#a9bf3f2f72ed69a17e2d0c1121d48013c" target="_top" xlink:title="Fun4All_G4_sPHENIX\l_AnaGenFit">
<polygon fill="none" stroke="#000000" points="921,-.5 921,-32.5 1042,-32.5 1042,-.5 921,-.5"/>
<text text-anchor="start" x="929" y="-19.5" font-family="FreeSans" font-size="10.00" fill="#000000">Fun4All_G4_sPHENIX</text>
<text text-anchor="middle" x="981.5" y="-7.5" font-family="FreeSans" font-size="10.00" fill="#000000">_AnaGenFit</text>
</a>
</g>
</g>
<!-- Node6&#45;&gt;Node41 -->
<g id="edge40" class="edge">
<title>Node6&#45;&gt;Node41</title>
<path fill="none" stroke="#191970" d="M796.1551,-713.2152C797.3495,-610.2064 807.7356,-145.8564 898,-41.5 904.1377,-34.4041 912.2001,-29.2789 920.8949,-25.5861"/>
<polygon fill="#191970" stroke="#191970" points="792.6528,-713.4394 796.0539,-723.4735 799.6525,-713.5085 792.6528,-713.4394"/>
</g>
<!-- Node43 -->
<g id="node43" class="node">
<title>Node43</title>
<g id="a_node43"><a xlink:href="../../da/daa/classFun4AllDstOutputManager.html#aa4b5b519c6db1540d03007c8c21436fc" target="_top" xlink:title="write starting from given node">
<polygon fill="none" stroke="#000000" points="364.5,-714.5 364.5,-746.5 514.5,-746.5 514.5,-714.5 364.5,-714.5"/>
<text text-anchor="start" x="372.5" y="-733.5" font-family="FreeSans" font-size="10.00" fill="#000000">Fun4AllDstOutputManager</text>
<text text-anchor="middle" x="439.5" y="-721.5" font-family="FreeSans" font-size="10.00" fill="#000000">::Write</text>
</a>
</g>
</g>
<!-- Node42&#45;&gt;Node43 -->
<g id="edge42" class="edge">
<title>Node42&#45;&gt;Node43</title>
<path fill="none" stroke="#191970" d="M316.7877,-737.5457C332.5227,-736.6422 348.8262,-735.7062 364.2112,-734.8228"/>
<polygon fill="#191970" stroke="#191970" points="316.3279,-734.0662 306.545,-738.1338 316.7292,-741.0547 316.3279,-734.0662"/>
</g>
<!-- Node44 -->
<g id="node44" class="node">
<title>Node44</title>
<g id="a_node44"><a xlink:href="../../da/daa/classFun4AllDstOutputManager.html#ac839ec7d93dd52ca363c8307fa88cb94" target="_top" xlink:title="write specified node">
<polygon fill="none" stroke="#000000" points="364.5,-765.5 364.5,-797.5 514.5,-797.5 514.5,-765.5 364.5,-765.5"/>
<text text-anchor="start" x="372.5" y="-784.5" font-family="FreeSans" font-size="10.00" fill="#000000">Fun4AllDstOutputManager</text>
<text text-anchor="middle" x="439.5" y="-772.5" font-family="FreeSans" font-size="10.00" fill="#000000">::WriteNode</text>
</a>
</g>
</g>
<!-- Node42&#45;&gt;Node44 -->
<g id="edge43" class="edge">
<title>Node42&#45;&gt;Node44</title>
<path fill="none" stroke="#191970" d="M316.7877,-758.6015C332.5227,-761.5377 348.8262,-764.58 364.2112,-767.4509"/>
<polygon fill="#191970" stroke="#191970" points="317.0174,-755.0841 306.545,-756.6902 315.7333,-761.9653 317.0174,-755.0841"/>
</g>
<!-- Node45&#45;&gt;Node4 -->
<g id="edge45" class="edge">
<title>Node45&#45;&gt;Node4</title>
<path fill="none" stroke="#191970" d="M316.8904,-686.4435C376.5545,-685.1582 457.2292,-687.8258 526,-705.5 553.6961,-712.618 582.741,-727.7134 602.7213,-739.4658"/>
<polygon fill="#191970" stroke="#191970" points="316.6595,-682.9482 306.7528,-686.7041 316.8395,-689.9459 316.6595,-682.9482"/>
</g>
<!-- Node45&#45;&gt;Node43 -->
<g id="edge46" class="edge">
<title>Node45&#45;&gt;Node43</title>
<path fill="none" stroke="#191970" d="M316.7877,-707.6015C332.5227,-710.5377 348.8262,-713.58 364.2112,-716.4509"/>
<polygon fill="#191970" stroke="#191970" points="317.0174,-704.0841 306.545,-705.6902 315.7333,-710.9653 317.0174,-704.0841"/>
</g>
<!-- Node47 -->
<g id="node47" class="node">
<title>Node47</title>
<g id="a_node47"><a xlink:href="../../df/df1/classPHG4DstCompressReco.html#adaabe6fa274e89f2ab8cb3c300831bb0" target="_top" xlink:title="run initialization">
<polygon fill="none" stroke="#000000" points="372,-624.5 372,-656.5 507,-656.5 507,-624.5 372,-624.5"/>
<text text-anchor="start" x="380" y="-643.5" font-family="FreeSans" font-size="10.00" fill="#000000">PHG4DstCompressReco</text>
<text text-anchor="middle" x="439.5" y="-631.5" font-family="FreeSans" font-size="10.00" fill="#000000">::InitRun</text>
</a>
</g>
</g>
<!-- Node46&#45;&gt;Node47 -->
<g id="edge48" class="edge">
<title>Node46&#45;&gt;Node47</title>
<path fill="none" stroke="#191970" d="M308.1851,-640.5C329.0783,-640.5 351.5052,-640.5 371.8072,-640.5"/>
<polygon fill="#191970" stroke="#191970" points="308.0677,-637.0001 298.0677,-640.5 308.0676,-644.0001 308.0677,-637.0001"/>
</g>
<!-- Node49 -->
<g id="node49" class="node">
<title>Node49</title>
<g id="a_node49"><a xlink:href="../../dd/d9d/classPHG4TruthEventAction.html#acae7f6ab30e8cb76590ad8d4aa332508" target="_top" xlink:title="get relevant nodes from top node passed as argument">
<polygon fill="none" stroke="#000000" points="374.5,-573.5 374.5,-605.5 504.5,-605.5 504.5,-573.5 374.5,-573.5"/>
<text text-anchor="start" x="382.5" y="-592.5" font-family="FreeSans" font-size="10.00" fill="#000000">PHG4TruthEventAction</text>
<text text-anchor="middle" x="439.5" y="-580.5" font-family="FreeSans" font-size="10.00" fill="#000000">::SetInterfacePointers</text>
</a>
</g>
</g>
<!-- Node48&#45;&gt;Node49 -->
<g id="edge50" class="edge">
<title>Node48&#45;&gt;Node49</title>
<path fill="none" stroke="#191970" d="M305.9124,-589.5C328.3217,-589.5 352.6699,-589.5 374.3665,-589.5"/>
<polygon fill="#191970" stroke="#191970" points="305.7692,-586.0001 295.7692,-589.5 305.7692,-593.0001 305.7692,-586.0001"/>
</g>
<!-- Node50 -->
<g id="node50" class="node">
<title>Node50</title>
<g id="a_node50"><a xlink:href="../../d5/d85/classPHG4TruthSubsystem.html#adb3c2d7e9328d276fd60e8e4b004298a" target="_top" xlink:title="event processing">
<polygon fill="none" stroke="#000000" points="565,-573.5 565,-605.5 691,-605.5 691,-573.5 565,-573.5"/>
<text text-anchor="start" x="573" y="-592.5" font-family="FreeSans" font-size="10.00" fill="#000000">PHG4TruthSubsystem</text>
<text text-anchor="middle" x="628" y="-580.5" font-family="FreeSans" font-size="10.00" fill="#000000">::process_event</text>
</a>
</g>
</g>
<!-- Node49&#45;&gt;Node50 -->
<g id="edge51" class="edge">
<title>Node49&#45;&gt;Node50</title>
<path fill="none" stroke="#191970" d="M514.82,-589.5C531.3775,-589.5 548.748,-589.5 564.7719,-589.5"/>
<polygon fill="#191970" stroke="#191970" points="514.635,-586.0001 504.635,-589.5 514.6349,-593.0001 514.635,-586.0001"/>
</g>
</g>
</svg>
