<?xml version="1.0" encoding="UTF-8" standalone="no"?>
<!DOCTYPE svg PUBLIC "-//W3C//DTD SVG 1.1//EN"
 "http://www.w3.org/Graphics/SVG/1.1/DTD/svg11.dtd">
<!-- Generated by graphviz version 2.40.1 (20161225.0304)
 -->
<!-- Title: PHNodeIterator::cd Pages: 1 -->
<svg width="911pt" height="1679pt"
 viewBox="0.00 0.00 911.00 1679.00" xmlns="http://www.w3.org/2000/svg" xmlns:xlink="http://www.w3.org/1999/xlink">
<g id="graph0" class="graph" transform="scale(1 1) rotate(0) translate(4 1675)">
<title>PHNodeIterator::cd</title>
<!-- Node1 -->
<g id="node1" class="node">
<title>Node1</title>
<polygon fill="#bfbfbf" stroke="#000000" points="0,-1253.5 0,-1273.5 112,-1273.5 112,-1253.5 0,-1253.5"/>
<text text-anchor="middle" x="56" y="-1260.5" font-family="FreeSans" font-size="10.00" fill="#000000">PHNodeIterator::cd</text>
</g>
<!-- Node2 -->
<g id="node2" class="node">
<title>Node2</title>
<g id="a_node2"><a xlink:href="../../da/d9e/classDumper.html#aae25632cf4fa4aa796ec904e1be5e1a5" target="_top" xlink:title="Called at the end of all processing.">
<polygon fill="none" stroke="#000000" points="195,-1315.5 195,-1335.5 277,-1335.5 277,-1315.5 195,-1315.5"/>
<text text-anchor="middle" x="236" y="-1322.5" font-family="FreeSans" font-size="10.00" fill="#000000">Dumper::End</text>
</a>
</g>
</g>
<!-- Node1&#45;&gt;Node2 -->
<g id="edge1" class="edge">
<title>Node1&#45;&gt;Node2</title>
<path fill="none" stroke="#191970" d="M83.7903,-1278.4921C101.7016,-1287.647 125.726,-1298.9965 148,-1306.5 162.9601,-1311.5397 179.8133,-1315.5601 194.7373,-1318.5812"/>
<polygon fill="#191970" stroke="#191970" points="85.0052,-1275.1789 74.5183,-1273.6701 81.7754,-1281.3893 85.0052,-1275.1789"/>
</g>
<!-- Node3 -->
<g id="node3" class="node">
<title>Node3</title>
<g id="a_node3"><a xlink:href="../../da/d9e/classDumper.html#a7e747d78a7aa7647979089384fe7fac8" target="_top" xlink:title="Dumper::process_event">
<polygon fill="none" stroke="#000000" points="167.5,-1276.5 167.5,-1296.5 304.5,-1296.5 304.5,-1276.5 167.5,-1276.5"/>
<text text-anchor="middle" x="236" y="-1283.5" font-family="FreeSans" font-size="10.00" fill="#000000">Dumper::process_event</text>
</a>
</g>
</g>
<!-- Node1&#45;&gt;Node3 -->
<g id="edge2" class="edge">
<title>Node1&#45;&gt;Node3</title>
<path fill="none" stroke="#191970" d="M122.4458,-1271.9903C137.1081,-1273.8638 152.6677,-1275.852 167.4132,-1277.7361"/>
<polygon fill="#191970" stroke="#191970" points="122.8223,-1268.51 112.4593,-1270.7142 121.935,-1275.4536 122.8223,-1268.51"/>
</g>
<!-- Node4 -->
<g id="node4" class="node">
<title>Node4</title>
<g id="a_node4"><a xlink:href="../../d7/d4d/classPHNodeIOManager.html#a3882997324989c7dd04e9f6b728af7db" target="_top" xlink:title="PHNodeIOManager::reconstruct\lNodeTree">
<polygon fill="none" stroke="#000000" points="148,-1225.5 148,-1257.5 324,-1257.5 324,-1225.5 148,-1225.5"/>
<text text-anchor="start" x="156" y="-1244.5" font-family="FreeSans" font-size="10.00" fill="#000000">PHNodeIOManager::reconstruct</text>
<text text-anchor="middle" x="236" y="-1232.5" font-family="FreeSans" font-size="10.00" fill="#000000">NodeTree</text>
</a>
</g>
</g>
<!-- Node1&#45;&gt;Node4 -->
<g id="edge3" class="edge">
<title>Node1&#45;&gt;Node4</title>
<path fill="none" stroke="#191970" d="M122.3882,-1255.3859C130.6616,-1254.3747 139.2214,-1253.3285 147.7601,-1252.2849"/>
<polygon fill="#191970" stroke="#191970" points="121.9607,-1251.912 112.4593,-1256.5994 122.81,-1258.8603 121.9607,-1251.912"/>
</g>
<!-- Node10 -->
<g id="node10" class="node">
<title>Node10</title>
<g id="a_node10"><a xlink:href="../../da/d29/classFun4AllServer.html#ab2479a9a3e45d51118e308597acd5228" target="_top" xlink:title="Fun4AllServer::ResetNodeTree">
<polygon fill="none" stroke="#000000" points="151.5,-850.5 151.5,-870.5 320.5,-870.5 320.5,-850.5 151.5,-850.5"/>
<text text-anchor="middle" x="236" y="-857.5" font-family="FreeSans" font-size="10.00" fill="#000000">Fun4AllServer::ResetNodeTree</text>
</a>
</g>
</g>
<!-- Node1&#45;&gt;Node10 -->
<g id="edge10" class="edge">
<title>Node1&#45;&gt;Node10</title>
<path fill="none" stroke="#191970" d="M64.7826,-1243.8366C96.915,-1171.8959 207.4527,-924.4143 231.4003,-870.7983"/>
<polygon fill="#191970" stroke="#191970" points="61.5129,-1242.5751 60.6303,-1253.1332 67.9043,-1245.4299 61.5129,-1242.5751"/>
</g>
<!-- Node5 -->
<g id="node5" class="node">
<title>Node5</title>
<g id="a_node5"><a xlink:href="../../d7/d4d/classPHNodeIOManager.html#a9e0aa24bf4a67163e8209497ed89af73" target="_top" xlink:title="PHNodeIOManager::read">
<polygon fill="none" stroke="#000000" points="360,-1548.5 360,-1568.5 500,-1568.5 500,-1548.5 360,-1548.5"/>
<text text-anchor="middle" x="430" y="-1555.5" font-family="FreeSans" font-size="10.00" fill="#000000">PHNodeIOManager::read</text>
</a>
</g>
</g>
<!-- Node4&#45;&gt;Node5 -->
<g id="edge4" class="edge">
<title>Node4&#45;&gt;Node5</title>
<path fill="none" stroke="#191970" d="M318.7987,-1263.1171C320.6107,-1264.4896 322.3494,-1265.9488 324,-1267.5 410.5895,-1348.8774 426.6738,-1506.6207 429.4533,-1548.2325"/>
<polygon fill="#191970" stroke="#191970" points="320.7145,-1260.188 310.4311,-1257.6377 316.8796,-1266.0442 320.7145,-1260.188"/>
</g>
<!-- Node6 -->
<g id="node6" class="node">
<title>Node6</title>
<g id="a_node6"><a xlink:href="../../d7/d0b/classFun4AllDstInputManager.html#a4d32eadb9f77d41387656b87377ef14f" target="_top" xlink:title="Fun4AllDstInputManager\l::fileopen">
<polygon fill="none" stroke="#000000" points="547.5,-1638.5 547.5,-1670.5 688.5,-1670.5 688.5,-1638.5 547.5,-1638.5"/>
<text text-anchor="start" x="555.5" y="-1657.5" font-family="FreeSans" font-size="10.00" fill="#000000">Fun4AllDstInputManager</text>
<text text-anchor="middle" x="618" y="-1645.5" font-family="FreeSans" font-size="10.00" fill="#000000">::fileopen</text>
</a>
</g>
</g>
<!-- Node5&#45;&gt;Node6 -->
<g id="edge5" class="edge">
<title>Node5&#45;&gt;Node6</title>
<path fill="none" stroke="#191970" d="M450.3215,-1574.7783C470.8937,-1590.5953 504.1326,-1614.3785 536,-1629.5 542.9919,-1632.8178 550.5267,-1635.8192 558.0953,-1638.4959"/>
<polygon fill="#191970" stroke="#191970" points="452.3583,-1571.9282 442.3212,-1568.5359 448.0521,-1577.447 452.3583,-1571.9282"/>
</g>
<!-- Node7 -->
<g id="node7" class="node">
<title>Node7</title>
<g id="a_node7"><a xlink:href="../../d7/d0b/classFun4AllDstInputManager.html#ade26017b627e0e1f1ec0dec62ac7fd52" target="_top" xlink:title="Fun4AllDstInputManager\l::ReadNextEventSyncObject">
<polygon fill="none" stroke="#000000" points="539,-1587.5 539,-1619.5 697,-1619.5 697,-1587.5 539,-1587.5"/>
<text text-anchor="start" x="547" y="-1606.5" font-family="FreeSans" font-size="10.00" fill="#000000">Fun4AllDstInputManager</text>
<text text-anchor="middle" x="618" y="-1594.5" font-family="FreeSans" font-size="10.00" fill="#000000">::ReadNextEventSyncObject</text>
</a>
</g>
</g>
<!-- Node5&#45;&gt;Node7 -->
<g id="edge6" class="edge">
<title>Node5&#45;&gt;Node7</title>
<path fill="none" stroke="#191970" d="M482.0122,-1570.9497C503.3058,-1576.0466 528.2176,-1582.0095 550.8597,-1587.4292"/>
<polygon fill="#191970" stroke="#191970" points="482.7309,-1567.523 472.1909,-1568.5989 481.1014,-1574.3307 482.7309,-1567.523"/>
</g>
<!-- Node8 -->
<g id="node8" class="node">
<title>Node8</title>
<g id="a_node8"><a xlink:href="../../d7/d0b/classFun4AllDstInputManager.html#a0244c2edbaa2350038304b09f352c2d0" target="_top" xlink:title="Fun4AllDstInputManager\l::SyncIt">
<polygon fill="none" stroke="#000000" points="749,-1587.5 749,-1619.5 890,-1619.5 890,-1587.5 749,-1587.5"/>
<text text-anchor="start" x="757" y="-1606.5" font-family="FreeSans" font-size="10.00" fill="#000000">Fun4AllDstInputManager</text>
<text text-anchor="middle" x="819.5" y="-1594.5" font-family="FreeSans" font-size="10.00" fill="#000000">::SyncIt</text>
</a>
</g>
</g>
<!-- Node5&#45;&gt;Node8 -->
<g id="edge9" class="edge">
<title>Node5&#45;&gt;Node8</title>
<path fill="none" stroke="#191970" d="M510.3733,-1561.6665C564.222,-1564.4712 636.5988,-1569.5599 700,-1578.5 716.4756,-1580.8232 734.0834,-1584.0723 750.5799,-1587.4611"/>
<polygon fill="#191970" stroke="#191970" points="510.364,-1558.1616 500.2,-1561.1522 510.0106,-1565.1527 510.364,-1558.1616"/>
</g>
<!-- Node9 -->
<g id="node9" class="node">
<title>Node9</title>
<g id="a_node9"><a xlink:href="../../d7/d0b/classFun4AllDstInputManager.html#aeafa0248f9050c13fdae1bcb93336d7a" target="_top" xlink:title="Fun4AllDstInputManager::run">
<polygon fill="none" stroke="#000000" points="536,-1509.5 536,-1529.5 700,-1529.5 700,-1509.5 536,-1509.5"/>
<text text-anchor="middle" x="618" y="-1516.5" font-family="FreeSans" font-size="10.00" fill="#000000">Fun4AllDstInputManager::run</text>
</a>
</g>
</g>
<!-- Node5&#45;&gt;Node9 -->
<g id="edge8" class="edge">
<title>Node5&#45;&gt;Node9</title>
<path fill="none" stroke="#191970" d="M488.2084,-1546.4249C514.3721,-1540.9973 544.8848,-1534.6675 569.7494,-1529.5094"/>
<polygon fill="#191970" stroke="#191970" points="487.4953,-1542.9982 478.4147,-1548.4565 488.9172,-1549.8523 487.4953,-1542.9982"/>
</g>
<!-- Node7&#45;&gt;Node8 -->
<g id="edge7" class="edge">
<title>Node7&#45;&gt;Node8</title>
<path fill="none" stroke="#191970" d="M707.1578,-1603.5C721.1201,-1603.5 735.3835,-1603.5 748.8559,-1603.5"/>
<polygon fill="#191970" stroke="#191970" points="707.0598,-1600.0001 697.0598,-1603.5 707.0598,-1607.0001 707.0598,-1600.0001"/>
</g>
<!-- Node11 -->
<g id="node11" class="node">
<title>Node11</title>
<g id="a_node11"><a xlink:href="../../da/d29/classFun4AllServer.html#a6a65a944dfb40966ace97d35ab1f7942" target="_top" xlink:title="Fun4AllServer::process\l_event">
<polygon fill="none" stroke="#000000" points="364,-844.5 364,-876.5 496,-876.5 496,-844.5 364,-844.5"/>
<text text-anchor="start" x="372" y="-863.5" font-family="FreeSans" font-size="10.00" fill="#000000">Fun4AllServer::process</text>
<text text-anchor="middle" x="430" y="-851.5" font-family="FreeSans" font-size="10.00" fill="#000000">_event</text>
</a>
</g>
</g>
<!-- Node10&#45;&gt;Node11 -->
<g id="edge11" class="edge">
<title>Node10&#45;&gt;Node11</title>
<path fill="none" stroke="#191970" d="M330.7669,-860.5C341.9479,-860.5 353.1684,-860.5 363.8339,-860.5"/>
<polygon fill="#191970" stroke="#191970" points="330.5269,-857.0001 320.5269,-860.5 330.5268,-864.0001 330.5269,-857.0001"/>
</g>
<!-- Node13 -->
<g id="node13" class="node">
<title>Node13</title>
<g id="a_node13"><a xlink:href="../../da/d29/classFun4AllServer.html#a11bbc8b2f53bc06e0b05ee202dd6372a" target="_top" xlink:title="run n events (0 means up to end of file)">
<polygon fill="none" stroke="#ff0000" points="563,-805.5 563,-825.5 673,-825.5 673,-805.5 563,-805.5"/>
<text text-anchor="middle" x="618" y="-812.5" font-family="FreeSans" font-size="10.00" fill="#000000">Fun4AllServer::run</text>
</a>
</g>
</g>
<!-- Node10&#45;&gt;Node13 -->
<g id="edge51" class="edge">
<title>Node10&#45;&gt;Node13</title>
<path fill="none" stroke="#191970" d="M287.0105,-848.2067C309.3004,-843.2503 335.8237,-837.9094 360,-834.5 429.6001,-824.6849 510.5235,-819.7696 562.9146,-817.4314"/>
<polygon fill="#191970" stroke="#191970" points="286.0732,-844.8302 277.0908,-850.4486 287.6164,-851.658 286.0732,-844.8302"/>
</g>
<!-- Node12 -->
<g id="node12" class="node">
<title>Node12</title>
<g id="a_node12"><a xlink:href="../../da/d29/classFun4AllServer.html#a94738b092fa009fcea45737d8ea41224" target="_top" xlink:title="Fun4AllServer::process\l_event">
<polygon fill="none" stroke="#000000" points="552,-844.5 552,-876.5 684,-876.5 684,-844.5 552,-844.5"/>
<text text-anchor="start" x="560" y="-863.5" font-family="FreeSans" font-size="10.00" fill="#000000">Fun4AllServer::process</text>
<text text-anchor="middle" x="618" y="-851.5" font-family="FreeSans" font-size="10.00" fill="#000000">_event</text>
</a>
</g>
</g>
<!-- Node11&#45;&gt;Node12 -->
<g id="edge12" class="edge">
<title>Node11&#45;&gt;Node12</title>
<path fill="none" stroke="#191970" d="M506.3347,-860.5C521.4114,-860.5 537.1171,-860.5 551.8241,-860.5"/>
<polygon fill="#191970" stroke="#191970" points="506.0174,-857.0001 496.0174,-860.5 506.0174,-864.0001 506.0174,-857.0001"/>
</g>
<!-- Node11&#45;&gt;Node13 -->
<g id="edge13" class="edge">
<title>Node11&#45;&gt;Node13</title>
<path fill="none" stroke="#191970" d="M504.7098,-842.0476C515.2113,-839.491 525.8735,-836.915 536,-834.5 548.3667,-831.5507 561.7984,-828.4117 574.143,-825.5524"/>
<polygon fill="#191970" stroke="#191970" points="503.5984,-838.716 494.7132,-844.4869 505.2579,-845.5164 503.5984,-838.716"/>
</g>
<!-- Node14 -->
<g id="node14" class="node">
<title>Node14</title>
<g id="a_node14"><a xlink:href="../../dd/d9c/AnalyzeTree_8C.html#af10d516ac25cd720d54534a63ef7e2f8" target="_top" xlink:title="AnalyzeTree">
<polygon fill="none" stroke="#000000" points="780.5,-1548.5 780.5,-1568.5 858.5,-1568.5 858.5,-1548.5 780.5,-1548.5"/>
<text text-anchor="middle" x="819.5" y="-1555.5" font-family="FreeSans" font-size="10.00" fill="#000000">AnalyzeTree</text>
</a>
</g>
</g>
<!-- Node13&#45;&gt;Node14 -->
<g id="edge14" class="edge">
<title>Node13&#45;&gt;Node14</title>
<path fill="none" stroke="#191970" d="M683.1025,-821.9007C689.5507,-824.9174 695.3988,-829.0046 700,-834.5 800.7061,-954.7777 635.0563,-1419.4217 736,-1539.5 746.7147,-1552.2458 764.0365,-1557.4757 780.1333,-1559.3266"/>
<polygon fill="#191970" stroke="#191970" points="683.8928,-818.4583 673.3009,-818.2074 681.4245,-825.0087 683.8928,-818.4583"/>
</g>
<!-- Node15 -->
<g id="node15" class="node">
<title>Node15</title>
<g id="a_node15"><a xlink:href="../../db/d89/ConstructGeometry_8C.html#a21c369835643f1016f506a3da3b8d446" target="_top" xlink:title="ConstructGeometry">
<polygon fill="none" stroke="#000000" points="762,-1509.5 762,-1529.5 877,-1529.5 877,-1509.5 762,-1509.5"/>
<text text-anchor="middle" x="819.5" y="-1516.5" font-family="FreeSans" font-size="10.00" fill="#000000">ConstructGeometry</text>
</a>
</g>
</g>
<!-- Node13&#45;&gt;Node15 -->
<g id="edge15" class="edge">
<title>Node13&#45;&gt;Node15</title>
<path fill="none" stroke="#191970" d="M683.0864,-821.9142C689.5375,-824.9286 695.3906,-829.0114 700,-834.5 795.3194,-947.9998 640.4564,-1387.1888 736,-1500.5 742.7086,-1508.4561 751.9915,-1513.4818 761.9394,-1516.5848"/>
<polygon fill="#191970" stroke="#191970" points="683.8742,-818.471 673.2822,-818.2231 681.4077,-825.0221 683.8742,-818.471"/>
</g>
<!-- Node16 -->
<g id="node16" class="node">
<title>Node16</title>
<g id="a_node16"><a xlink:href="../../d3/d7f/Fun_8C.html#af69a3eef3ff244bb51f5740c6ecb5432" target="_top" xlink:title="Fun">
<polygon fill="none" stroke="#000000" points="802.5,-1470.5 802.5,-1490.5 836.5,-1490.5 836.5,-1470.5 802.5,-1470.5"/>
<text text-anchor="middle" x="819.5" y="-1477.5" font-family="FreeSans" font-size="10.00" fill="#000000">Fun</text>
</a>
</g>
</g>
<!-- Node13&#45;&gt;Node16 -->
<g id="edge16" class="edge">
<title>Node13&#45;&gt;Node16</title>
<path fill="none" stroke="#191970" d="M683.0684,-821.9293C689.5226,-824.9411 695.3814,-829.0192 700,-834.5 789.9334,-941.2228 645.8558,-1354.9552 736,-1461.5 752.1326,-1480.5677 783.0516,-1482.7916 802.4021,-1482.0675"/>
<polygon fill="#191970" stroke="#191970" points="683.8533,-818.4852 673.2613,-818.2407 681.389,-825.0371 683.8533,-818.4852"/>
</g>
<!-- Node17 -->
<g id="node17" class="node">
<title>Node17</title>
<g id="a_node17"><a xlink:href="../../dc/ddc/Fun4All__Ana_8C.html#a9152007c2477efc543d79f3b97fbf50c" target="_top" xlink:title="Fun4All_Ana">
<polygon fill="none" stroke="#000000" points="780.5,-1431.5 780.5,-1451.5 858.5,-1451.5 858.5,-1431.5 780.5,-1431.5"/>
<text text-anchor="middle" x="819.5" y="-1438.5" font-family="FreeSans" font-size="10.00" fill="#000000">Fun4All_Ana</text>
</a>
</g>
</g>
<!-- Node13&#45;&gt;Node17 -->
<g id="edge17" class="edge">
<title>Node13&#45;&gt;Node17</title>
<path fill="none" stroke="#191970" d="M683.048,-821.9465C689.5058,-824.9552 695.371,-829.0279 700,-834.5 784.5482,-934.4469 651.2543,-1322.7205 736,-1422.5 746.7791,-1435.1914 764.109,-1440.4145 780.1944,-1442.2749"/>
<polygon fill="#191970" stroke="#191970" points="683.8297,-818.5014 673.2376,-818.2607 681.3677,-825.0542 683.8297,-818.5014"/>
</g>
<!-- Node18 -->
<g id="node18" class="node">
<title>Node18</title>
<g id="a_node18"><a xlink:href="../../df/d77/Fun4All__CaloAna_8C.html#a4f0841e3d8be48f96cc4e95380315ff8" target="_top" xlink:title="Fun4All_CaloAna">
<polygon fill="none" stroke="#000000" points="769.5,-1392.5 769.5,-1412.5 869.5,-1412.5 869.5,-1392.5 769.5,-1392.5"/>
<text text-anchor="middle" x="819.5" y="-1399.5" font-family="FreeSans" font-size="10.00" fill="#000000">Fun4All_CaloAna</text>
</a>
</g>
</g>
<!-- Node13&#45;&gt;Node18 -->
<g id="edge18" class="edge">
<title>Node13&#45;&gt;Node18</title>
<path fill="none" stroke="#191970" d="M683.0248,-821.9662C689.4867,-824.9715 695.3592,-829.038 700,-834.5 779.1641,-927.6721 656.6518,-1290.4846 736,-1383.5 744.3944,-1393.3403 756.727,-1398.6867 769.3515,-1401.457"/>
<polygon fill="#191970" stroke="#191970" points="683.8027,-818.5199 673.2105,-818.2836 681.3435,-825.0737 683.8027,-818.5199"/>
</g>
<!-- Node19 -->
<g id="node19" class="node">
<title>Node19</title>
<g id="a_node19"><a xlink:href="../../da/dae/Fun4All__EICAnalysis__DIS_8C.html#a6be6c58cd68a395182a998295a1106ae" target="_top" xlink:title="Fun4All_EICAnalysis_DIS">
<polygon fill="none" stroke="#000000" points="750,-1353.5 750,-1373.5 889,-1373.5 889,-1353.5 750,-1353.5"/>
<text text-anchor="middle" x="819.5" y="-1360.5" font-family="FreeSans" font-size="10.00" fill="#000000">Fun4All_EICAnalysis_DIS</text>
</a>
</g>
</g>
<!-- Node13&#45;&gt;Node19 -->
<g id="edge19" class="edge">
<title>Node13&#45;&gt;Node19</title>
<path fill="none" stroke="#191970" d="M682.9981,-821.989C689.4647,-824.9902 695.3456,-829.0496 700,-834.5 773.7813,-920.8989 662.0481,-1258.2471 736,-1344.5 739.8708,-1349.0146 744.5705,-1352.5823 749.7457,-1355.3887"/>
<polygon fill="#191970" stroke="#191970" points="683.7718,-818.5413 673.1795,-818.3101 681.3157,-825.0963 683.7718,-818.5413"/>
</g>
<!-- Node20 -->
<g id="node20" class="node">
<title>Node20</title>
<g id="a_node20"><a xlink:href="../../d2/d9b/Fun4All__EICAnalysis__DISReco_8C.html#a3c160743ec7b9b4572cf73a19640a34f" target="_top" xlink:title="Fun4All_EICAnalysis\l_DISReco">
<polygon fill="none" stroke="#000000" points="761,-1302.5 761,-1334.5 878,-1334.5 878,-1302.5 761,-1302.5"/>
<text text-anchor="start" x="769" y="-1321.5" font-family="FreeSans" font-size="10.00" fill="#000000">Fun4All_EICAnalysis</text>
<text text-anchor="middle" x="819.5" y="-1309.5" font-family="FreeSans" font-size="10.00" fill="#000000">_DISReco</text>
</a>
</g>
</g>
<!-- Node13&#45;&gt;Node20 -->
<g id="edge20" class="edge">
<title>Node13&#45;&gt;Node20</title>
<path fill="none" stroke="#191970" d="M682.9565,-822.0246C689.4304,-825.0196 695.3243,-829.0678 700,-834.5 766.7447,-912.0445 671.7394,-1213.8849 736,-1293.5 742.3679,-1301.3894 751.122,-1306.8616 760.5772,-1310.6415"/>
<polygon fill="#191970" stroke="#191970" points="683.7235,-818.5749 673.1311,-818.3516 681.2724,-825.1317 683.7235,-818.5749"/>
</g>
<!-- Node21 -->
<g id="node21" class="node">
<title>Node21</title>
<g id="a_node21"><a xlink:href="../../d2/d47/Fun4All__EICAnalysis__DVCS_8C.html#a84f48142243e969fd353cc8509f0ba22" target="_top" xlink:title="Fun4All_EICAnalysis_DVCS">
<polygon fill="none" stroke="#000000" points="744.5,-1263.5 744.5,-1283.5 894.5,-1283.5 894.5,-1263.5 744.5,-1263.5"/>
<text text-anchor="middle" x="819.5" y="-1270.5" font-family="FreeSans" font-size="10.00" fill="#000000">Fun4All_EICAnalysis_DVCS</text>
</a>
</g>
</g>
<!-- Node13&#45;&gt;Node21 -->
<g id="edge21" class="edge">
<title>Node13&#45;&gt;Node21</title>
<path fill="none" stroke="#191970" d="M682.918,-822.0579C689.3986,-825.047 695.3047,-829.0847 700,-834.5 761.3662,-905.2764 674.494,-1183.8451 736,-1254.5 739.0261,-1257.9762 742.5437,-1260.8891 746.3894,-1263.3242"/>
<polygon fill="#191970" stroke="#191970" points="683.6789,-818.6062 673.0863,-818.3903 681.2323,-825.1647 683.6789,-818.6062"/>
</g>
<!-- Node22 -->
<g id="node22" class="node">
<title>Node22</title>
<g id="a_node22"><a xlink:href="../../d3/dee/Fun4All__EICAnalysis__Exclusive_8C.html#ad3a88bfdb2a21a757edf221e36d6bffe" target="_top" xlink:title="Fun4All_EICAnalysis\l_Exclusive">
<polygon fill="none" stroke="#000000" points="761,-1212.5 761,-1244.5 878,-1244.5 878,-1212.5 761,-1212.5"/>
<text text-anchor="start" x="769" y="-1231.5" font-family="FreeSans" font-size="10.00" fill="#000000">Fun4All_EICAnalysis</text>
<text text-anchor="middle" x="819.5" y="-1219.5" font-family="FreeSans" font-size="10.00" fill="#000000">_Exclusive</text>
</a>
</g>
</g>
<!-- Node13&#45;&gt;Node22 -->
<g id="edge22" class="edge">
<title>Node13&#45;&gt;Node22</title>
<path fill="none" stroke="#191970" d="M682.402,-821.9059C689.0711,-824.9055 695.1631,-828.9871 700,-834.5 754.3374,-896.431 683.647,-1139.8827 736,-1203.5 742.4425,-1211.3286 751.2322,-1216.7719 760.6992,-1220.5421"/>
<polygon fill="#191970" stroke="#191970" points="683.6074,-818.6201 673.0139,-818.4534 681.1913,-825.1899 683.6074,-818.6201"/>
</g>
<!-- Node23 -->
<g id="node23" class="node">
<title>Node23</title>
<g id="a_node23"><a xlink:href="../../d2/d00/Fun4All__EICAnalysis__Leptoquarks_8C.html#a328697c2ae82c0b33f95bea9aefb93f4" target="_top" xlink:title="Fun4All_EICAnalysis\l_Leptoquarks">
<polygon fill="none" stroke="#000000" points="761,-1161.5 761,-1193.5 878,-1193.5 878,-1161.5 761,-1161.5"/>
<text text-anchor="start" x="769" y="-1180.5" font-family="FreeSans" font-size="10.00" fill="#000000">Fun4All_EICAnalysis</text>
<text text-anchor="middle" x="819.5" y="-1168.5" font-family="FreeSans" font-size="10.00" fill="#000000">_Leptoquarks</text>
</a>
</g>
</g>
<!-- Node13&#45;&gt;Node23 -->
<g id="edge23" class="edge">
<title>Node13&#45;&gt;Node23</title>
<path fill="none" stroke="#191970" d="M683.0414,-822.3067C689.443,-825.261 695.2968,-829.2224 700,-834.5 794.632,-940.688 644.7712,-1043.3743 736,-1152.5 742.5028,-1160.2785 751.3213,-1165.6979 760.7979,-1169.4602"/>
<polygon fill="#191970" stroke="#191970" points="683.9328,-818.9028 673.3407,-818.6629 681.4714,-825.4557 683.9328,-818.9028"/>
</g>
<!-- Node24 -->
<g id="node24" class="node">
<title>Node24</title>
<g id="a_node24"><a xlink:href="../../df/d6c/Fun4All__EICAnalysis__JPsi_8C.html#ad03644e8a25c5261146f6c59826ed6d0" target="_top" xlink:title="Fun4All_EICAnalysis\l_Quarkonia">
<polygon fill="none" stroke="#000000" points="761,-1110.5 761,-1142.5 878,-1142.5 878,-1110.5 761,-1110.5"/>
<text text-anchor="start" x="769" y="-1129.5" font-family="FreeSans" font-size="10.00" fill="#000000">Fun4All_EICAnalysis</text>
<text text-anchor="middle" x="819.5" y="-1117.5" font-family="FreeSans" font-size="10.00" fill="#000000">_Quarkonia</text>
</a>
</g>
</g>
<!-- Node13&#45;&gt;Node24 -->
<g id="edge24" class="edge">
<title>Node13&#45;&gt;Node24</title>
<path fill="none" stroke="#191970" d="M682.9311,-822.4061C689.3523,-825.3427 695.2408,-829.2728 700,-834.5 780.6126,-923.0403 658.2259,-1010.4562 736,-1101.5 742.5853,-1109.2089 751.4431,-1114.595 760.9327,-1118.3463"/>
<polygon fill="#191970" stroke="#191970" points="683.8043,-818.9962 673.2117,-818.7791 681.3569,-825.5545 683.8043,-818.9962"/>
</g>
<!-- Node25 -->
<g id="node25" class="node">
<title>Node25</title>
<g id="a_node25"><a xlink:href="../../df/d90/Fun4All__EICAnalysis__TrackEval_8C.html#ab4d10c3db3266243a5c314b02c02a360" target="_top" xlink:title="Fun4All_EICAnalysis\l_TrackEval">
<polygon fill="none" stroke="#000000" points="761,-1059.5 761,-1091.5 878,-1091.5 878,-1059.5 761,-1059.5"/>
<text text-anchor="start" x="769" y="-1078.5" font-family="FreeSans" font-size="10.00" fill="#000000">Fun4All_EICAnalysis</text>
<text text-anchor="middle" x="819.5" y="-1066.5" font-family="FreeSans" font-size="10.00" fill="#000000">_TrackEval</text>
</a>
</g>
</g>
<!-- Node13&#45;&gt;Node25 -->
<g id="edge25" class="edge">
<title>Node13&#45;&gt;Node25</title>
<path fill="none" stroke="#191970" d="M682.7717,-822.5535C689.2213,-825.4638 695.1601,-829.3475 700,-834.5 766.6333,-905.4366 671.6418,-977.493 736,-1050.5 742.6044,-1057.9919 751.3534,-1063.2825 760.7023,-1067.0088"/>
<polygon fill="#191970" stroke="#191970" points="683.6186,-819.1351 673.0254,-818.9514 681.1919,-825.7011 683.6186,-819.1351"/>
</g>
<!-- Node26 -->
<g id="node26" class="node">
<title>Node26</title>
<g id="a_node26"><a xlink:href="../../de/dc8/Fun4All__EMCalLikelihood_8C.html#a209f0d5788c9d3adba2967f194bca64a" target="_top" xlink:title="Fun4All_EMCalLikelihood">
<polygon fill="none" stroke="#000000" points="749,-1020.5 749,-1040.5 890,-1040.5 890,-1020.5 749,-1020.5"/>
<text text-anchor="middle" x="819.5" y="-1027.5" font-family="FreeSans" font-size="10.00" fill="#000000">Fun4All_EMCalLikelihood</text>
</a>
</g>
</g>
<!-- Node13&#45;&gt;Node26 -->
<g id="edge26" class="edge">
<title>Node13&#45;&gt;Node26</title>
<path fill="none" stroke="#191970" d="M682.8625,-822.8452C689.2405,-825.7111 695.1379,-829.5046 700,-834.5 755.9921,-892.0268 679.8943,-954.084 736,-1011.5 739.7406,-1015.328 744.0804,-1018.4551 748.7769,-1021.0027"/>
<polygon fill="#191970" stroke="#191970" points="683.8318,-819.4718 673.2387,-819.2778 681.3988,-826.0354 683.8318,-819.4718"/>
</g>
<!-- Node27 -->
<g id="node27" class="node">
<title>Node27</title>
<g id="a_node27"><a xlink:href="../../df/d51/Fun4All__ExportGeom_8C.html#a582925c51bad38d562cf19e71211adfd" target="_top" xlink:title="get geometry from DST file and output TGeoManager ROOT files or other formats of geometry files...">
<polygon fill="none" stroke="#000000" points="758.5,-981.5 758.5,-1001.5 880.5,-1001.5 880.5,-981.5 758.5,-981.5"/>
<text text-anchor="middle" x="819.5" y="-988.5" font-family="FreeSans" font-size="10.00" fill="#000000">Fun4All_ExportGeom</text>
</a>
</g>
</g>
<!-- Node13&#45;&gt;Node27 -->
<g id="edge27" class="edge">
<title>Node13&#45;&gt;Node27</title>
<path fill="none" stroke="#191970" d="M682.8669,-823.2317C689.1901,-826.0346 695.0738,-829.7075 700,-834.5 745.4325,-878.7003 690.4802,-928.3896 736,-972.5 742.2992,-978.6042 750.13,-982.9039 758.4519,-985.9067"/>
<polygon fill="#191970" stroke="#191970" points="683.9418,-819.8977 673.3485,-819.7186 681.518,-826.4647 683.9418,-819.8977"/>
</g>
<!-- Node28 -->
<g id="node28" class="node">
<title>Node28</title>
<g id="a_node28"><a xlink:href="../../de/d55/Fun4All__G4__block_8C.html#a6a063a649a0dd3318a517d5af98430dd" target="_top" xlink:title="Fun4All_G4_block">
<polygon fill="none" stroke="#000000" points="767,-942.5 767,-962.5 872,-962.5 872,-942.5 767,-942.5"/>
<text text-anchor="middle" x="819.5" y="-949.5" font-family="FreeSans" font-size="10.00" fill="#000000">Fun4All_G4_block</text>
</a>
</g>
</g>
<!-- Node13&#45;&gt;Node28 -->
<g id="edge28" class="edge">
<title>Node13&#45;&gt;Node28</title>
<path fill="none" stroke="#191970" d="M682.7037,-823.8197C689.0048,-826.5202 694.9286,-830.0082 700,-834.5 735.0483,-865.5422 700.8904,-902.5271 736,-933.5 744.5846,-941.0732 755.5593,-945.8095 766.7095,-948.7304"/>
<polygon fill="#191970" stroke="#191970" points="683.8515,-820.513 673.2572,-820.4015 681.4696,-827.0953 683.8515,-820.513"/>
</g>
<!-- Node29 -->
<g id="node29" class="node">
<title>Node29</title>
<g id="a_node29"><a xlink:href="../../d8/d91/Fun4All__G4__Clusters_8C.html#ab7d8e64f12f512631d4c0e8c6683ec5b" target="_top" xlink:title="Fun4All_G4_Clusters">
<polygon fill="none" stroke="#000000" points="760,-903.5 760,-923.5 879,-923.5 879,-903.5 760,-903.5"/>
<text text-anchor="middle" x="819.5" y="-910.5" font-family="FreeSans" font-size="10.00" fill="#000000">Fun4All_G4_Clusters</text>
</a>
</g>
</g>
<!-- Node13&#45;&gt;Node29 -->
<g id="edge29" class="edge">
<title>Node13&#45;&gt;Node29</title>
<path fill="none" stroke="#191970" d="M682.882,-825.2311C688.9748,-827.6773 694.8045,-830.7196 700,-834.5 725.1461,-852.7972 710.8178,-876.2526 736,-894.5 743.1029,-899.6468 751.3669,-903.4305 759.8797,-906.206"/>
<polygon fill="#191970" stroke="#191970" points="683.7391,-821.824 673.1443,-821.8573 681.4474,-828.4383 683.7391,-821.824"/>
</g>
<!-- Node30 -->
<g id="node30" class="node">
<title>Node30</title>
<g id="a_node30"><a xlink:href="../../d2/dee/Fun4All__G4__Cylinder_8C.html#a271dc4f10f6f77107705e0efef0c97e5" target="_top" xlink:title="Fun4All_G4_Cylinder">
<polygon fill="none" stroke="#000000" points="759,-864.5 759,-884.5 880,-884.5 880,-864.5 759,-864.5"/>
<text text-anchor="middle" x="819.5" y="-871.5" font-family="FreeSans" font-size="10.00" fill="#000000">Fun4All_G4_Cylinder</text>
</a>
</g>
</g>
<!-- Node13&#45;&gt;Node30 -->
<g id="edge30" class="edge">
<title>Node13&#45;&gt;Node30</title>
<path fill="none" stroke="#191970" d="M681.2335,-828.2616C687.6479,-830.1166 694.0035,-832.1921 700,-834.5 717.0819,-841.0743 718.9426,-847.8625 736,-854.5 746.0022,-858.3921 756.9831,-861.6769 767.601,-864.3882"/>
<polygon fill="#191970" stroke="#191970" points="681.7159,-824.766 671.1484,-825.5264 679.8836,-831.522 681.7159,-824.766"/>
</g>
<!-- Node31 -->
<g id="node31" class="node">
<title>Node31</title>
<g id="a_node31"><a xlink:href="../../da/d02/Fun4All__G4__EICDetector_8C.html#afbe82cefa1d1fd031d9a8586b7bb68c6" target="_top" xlink:title="Fun4All_G4_EICDetector">
<polygon fill="none" stroke="#000000" points="750,-825.5 750,-845.5 889,-845.5 889,-825.5 750,-825.5"/>
<text text-anchor="middle" x="819.5" y="-832.5" font-family="FreeSans" font-size="10.00" fill="#000000">Fun4All_G4_EICDetector</text>
</a>
</g>
</g>
<!-- Node13&#45;&gt;Node31 -->
<g id="edge31" class="edge">
<title>Node13&#45;&gt;Node31</title>
<path fill="none" stroke="#191970" d="M683.2731,-821.9787C704.5109,-824.0867 728.1597,-826.434 749.7142,-828.5734"/>
<polygon fill="#191970" stroke="#191970" points="683.3576,-818.47 673.0608,-820.9651 682.6661,-825.4358 683.3576,-818.47"/>
</g>
<!-- Node32 -->
<g id="node32" class="node">
<title>Node32</title>
<g id="a_node32"><a xlink:href="../../dd/d2a/Fun4All__G4__EICDetector__LQ_8C.html#aaa01242fd6e77ca43a9d49a6d46008e4" target="_top" xlink:title="Fun4All_G4_EICDetector_LQ">
<polygon fill="none" stroke="#000000" points="741.5,-786.5 741.5,-806.5 897.5,-806.5 897.5,-786.5 741.5,-786.5"/>
<text text-anchor="middle" x="819.5" y="-793.5" font-family="FreeSans" font-size="10.00" fill="#000000">Fun4All_G4_EICDetector_LQ</text>
</a>
</g>
</g>
<!-- Node13&#45;&gt;Node32 -->
<g id="edge32" class="edge">
<title>Node13&#45;&gt;Node32</title>
<path fill="none" stroke="#191970" d="M683.1761,-809.3544C701.7615,-807.6019 722.1999,-805.6747 741.4687,-803.8578"/>
<polygon fill="#191970" stroke="#191970" points="682.688,-805.8848 673.0608,-810.3082 683.3452,-812.8539 682.688,-805.8848"/>
</g>
<!-- Node33 -->
<g id="node33" class="node">
<title>Node33</title>
<g id="a_node33"><a xlink:href="../../df/d4b/Fun4All__G4__EICDetector__LQ__analysis_8C.html#af903e98824d083a08b353ac15996ee0e" target="_top" xlink:title="Fun4All_G4_EICDetector\l_LQ_analysis">
<polygon fill="none" stroke="#000000" points="750,-735.5 750,-767.5 889,-767.5 889,-735.5 750,-735.5"/>
<text text-anchor="start" x="758" y="-754.5" font-family="FreeSans" font-size="10.00" fill="#000000">Fun4All_G4_EICDetector</text>
<text text-anchor="middle" x="819.5" y="-742.5" font-family="FreeSans" font-size="10.00" fill="#000000">_LQ_analysis</text>
</a>
</g>
</g>
<!-- Node13&#45;&gt;Node33 -->
<g id="edge33" class="edge">
<title>Node13&#45;&gt;Node33</title>
<path fill="none" stroke="#191970" d="M657.2161,-802.2302C680.1344,-794.5525 709.6473,-784.7981 736,-776.5 745.3819,-773.5458 755.3826,-770.48 765.0832,-767.5499"/>
<polygon fill="#191970" stroke="#191970" points="655.872,-798.9894 647.5064,-805.4908 658.1004,-805.6253 655.872,-798.9894"/>
</g>
<!-- Node34 -->
<g id="node34" class="node">
<title>Node34</title>
<g id="a_node34"><a xlink:href="../../d1/daf/Fun4All__G4__EICDetector__LQ__analysis__nf_8C.html#a5022607d21247b87dd208b0828905147" target="_top" xlink:title="Fun4All_G4_EICDetector\l_LQ_analysis_nf">
<polygon fill="none" stroke="#000000" points="750,-684.5 750,-716.5 889,-716.5 889,-684.5 750,-684.5"/>
<text text-anchor="start" x="758" y="-703.5" font-family="FreeSans" font-size="10.00" fill="#000000">Fun4All_G4_EICDetector</text>
<text text-anchor="middle" x="819.5" y="-691.5" font-family="FreeSans" font-size="10.00" fill="#000000">_LQ_analysis_nf</text>
</a>
</g>
</g>
<!-- Node13&#45;&gt;Node34 -->
<g id="edge34" class="edge">
<title>Node13&#45;&gt;Node34</title>
<path fill="none" stroke="#191970" d="M636.0378,-798.3602C658.0378,-778.3002 697.1202,-745.3107 736,-725.5 742.4718,-722.2024 749.4522,-719.2625 756.523,-716.662"/>
<polygon fill="#191970" stroke="#191970" points="633.4373,-795.9981 628.4785,-805.3609 638.1937,-801.134 633.4373,-795.9981"/>
</g>
<!-- Node35 -->
<g id="node35" class="node">
<title>Node35</title>
<g id="a_node35"><a xlink:href="../../d4/df5/Fun4All__G4__EICDetector__LQ__reference_8C.html#a2feefc472f17f90b3cbe74897d049f75" target="_top" xlink:title="Fun4All_G4_EICDetector\l_LQ_reference">
<polygon fill="none" stroke="#000000" points="750,-633.5 750,-665.5 889,-665.5 889,-633.5 750,-633.5"/>
<text text-anchor="start" x="758" y="-652.5" font-family="FreeSans" font-size="10.00" fill="#000000">Fun4All_G4_EICDetector</text>
<text text-anchor="middle" x="819.5" y="-640.5" font-family="FreeSans" font-size="10.00" fill="#000000">_LQ_reference</text>
</a>
</g>
</g>
<!-- Node13&#45;&gt;Node35 -->
<g id="edge35" class="edge">
<title>Node13&#45;&gt;Node35</title>
<path fill="none" stroke="#191970" d="M628.8205,-796.465C647.0298,-766.1399 686.6889,-706.9792 736,-674.5 741.1813,-671.0873 746.8448,-668.1264 752.703,-665.5603"/>
<polygon fill="#191970" stroke="#191970" points="625.721,-794.8314 623.677,-805.2272 631.7578,-798.3751 625.721,-794.8314"/>
</g>
<!-- Node36 -->
<g id="node36" class="node">
<title>Node36</title>
<g id="a_node36"><a xlink:href="../../d3/d51/Fun4All__G4__EICDetector__RICH_8C.html#a5739502b0a7a1ba782c01069f77e933f" target="_top" xlink:title="Fun4All_G4_EICDetector_RICH">
<polygon fill="none" stroke="#000000" points="736,-594.5 736,-614.5 903,-614.5 903,-594.5 736,-594.5"/>
<text text-anchor="middle" x="819.5" y="-601.5" font-family="FreeSans" font-size="10.00" fill="#000000">Fun4All_G4_EICDetector_RICH</text>
</a>
</g>
</g>
<!-- Node13&#45;&gt;Node36 -->
<g id="edge36" class="edge">
<title>Node13&#45;&gt;Node36</title>
<path fill="none" stroke="#191970" d="M624.3195,-795.6278C637.9382,-756.179 673.947,-667.9624 736,-623.5 741.0757,-619.8631 746.7335,-616.9082 752.6457,-614.5093"/>
<polygon fill="#191970" stroke="#191970" points="620.9783,-794.5835 621.1354,-805.1772 627.6189,-796.7977 620.9783,-794.5835"/>
</g>
<!-- Node37 -->
<g id="node37" class="node">
<title>Node37</title>
<g id="a_node37"><a xlink:href="../../d9/d0e/Fun4All__G4__EICIR_8C.html#ac3543d1dd4a0abed3987d40939ee3f87" target="_top" xlink:title="Fun4All_G4_EICIR">
<polygon fill="none" stroke="#000000" points="767.5,-555.5 767.5,-575.5 871.5,-575.5 871.5,-555.5 767.5,-555.5"/>
<text text-anchor="middle" x="819.5" y="-562.5" font-family="FreeSans" font-size="10.00" fill="#000000">Fun4All_G4_EICIR</text>
</a>
</g>
</g>
<!-- Node13&#45;&gt;Node37 -->
<g id="edge37" class="edge">
<title>Node13&#45;&gt;Node37</title>
<path fill="none" stroke="#191970" d="M622.1893,-795.4334C632.7261,-750.2035 664.7429,-639.9324 736,-584.5 745.0356,-577.471 756.1899,-572.9515 767.371,-570.0677"/>
<polygon fill="#191970" stroke="#191970" points="618.7655,-794.7063 620.011,-805.2277 625.5986,-796.226 618.7655,-794.7063"/>
</g>
<!-- Node38 -->
<g id="node38" class="node">
<title>Node38</title>
<g id="a_node38"><a xlink:href="../../d7/d9e/Fun4All__G4__fsPHENIX_8C.html#af48911d394d2412e817583700f2bbee2" target="_top" xlink:title="Fun4All_G4_fsPHENIX">
<polygon fill="none" stroke="#000000" points="757.5,-516.5 757.5,-536.5 881.5,-536.5 881.5,-516.5 757.5,-516.5"/>
<text text-anchor="middle" x="819.5" y="-523.5" font-family="FreeSans" font-size="10.00" fill="#000000">Fun4All_G4_fsPHENIX</text>
</a>
</g>
</g>
<!-- Node13&#45;&gt;Node38 -->
<g id="edge38" class="edge">
<title>Node13&#45;&gt;Node38</title>
<path fill="none" stroke="#191970" d="M620.6159,-795.2359C628.264,-744.6677 655.388,-612.2022 736,-545.5 742.1853,-540.382 749.4765,-536.5777 757.1318,-533.7607"/>
<polygon fill="#191970" stroke="#191970" points="617.136,-794.8483 619.2001,-805.2401 624.0669,-795.8292 617.136,-794.8483"/>
</g>
<!-- Node39 -->
<g id="node39" class="node">
<title>Node39</title>
<g id="a_node39"><a xlink:href="../../da/d2f/Fun4All__G4__fsPHENIX__FastSim_8C.html#a66fb850cae5fcaadda23b74a25ce4c9c" target="_top" xlink:title="Fun4All_G4_fsPHENIX\l_FastSim">
<polygon fill="none" stroke="#000000" points="757.5,-465.5 757.5,-497.5 881.5,-497.5 881.5,-465.5 757.5,-465.5"/>
<text text-anchor="start" x="765.5" y="-484.5" font-family="FreeSans" font-size="10.00" fill="#000000">Fun4All_G4_fsPHENIX</text>
<text text-anchor="middle" x="819.5" y="-472.5" font-family="FreeSans" font-size="10.00" fill="#000000">_FastSim</text>
</a>
</g>
</g>
<!-- Node13&#45;&gt;Node39 -->
<g id="edge39" class="edge">
<title>Node13&#45;&gt;Node39</title>
<path fill="none" stroke="#191970" d="M619.6814,-795.3393C625.343,-740.5635 648.5956,-587.6743 736,-506.5 742.0984,-500.8363 749.4306,-496.4522 757.1849,-493.0594"/>
<polygon fill="#191970" stroke="#191970" points="616.1798,-795.1926 618.7235,-805.4775 623.1487,-795.8511 616.1798,-795.1926"/>
</g>
<!-- Node40 -->
<g id="node40" class="node">
<title>Node40</title>
<g id="a_node40"><a xlink:href="../../d0/da6/Fun4All__G4__fsPHENIX__pi0_8C.html#a023d91d47b678e5d7f1751834aa517c6" target="_top" xlink:title="Fun4All_G4_fsPHENIX_pi0">
<polygon fill="none" stroke="#000000" points="747,-426.5 747,-446.5 892,-446.5 892,-426.5 747,-426.5"/>
<text text-anchor="middle" x="819.5" y="-433.5" font-family="FreeSans" font-size="10.00" fill="#000000">Fun4All_G4_fsPHENIX_pi0</text>
</a>
</g>
</g>
<!-- Node13&#45;&gt;Node40 -->
<g id="edge40" class="edge">
<title>Node13&#45;&gt;Node40</title>
<path fill="none" stroke="#191970" d="M621.9009,-795.3609C635.5955,-726.6903 683.4967,-503.3339 736,-455.5 739.8465,-451.9956 744.202,-449.0943 748.8554,-446.6967"/>
<polygon fill="#191970" stroke="#191970" points="618.435,-794.8466 619.9369,-805.3344 625.3031,-796.1991 618.435,-794.8466"/>
</g>
<!-- Node41 -->
<g id="node41" class="node">
<title>Node41</title>
<g id="a_node41"><a xlink:href="../../df/de1/Fun4All__G4__IonGun_8C.html#ab4966a2ae337cb8f0e45f7ee488e33b7" target="_top" xlink:title="Fun4All_G4_IonGun">
<polygon fill="none" stroke="#000000" points="762.5,-387.5 762.5,-407.5 876.5,-407.5 876.5,-387.5 762.5,-387.5"/>
<text text-anchor="middle" x="819.5" y="-394.5" font-family="FreeSans" font-size="10.00" fill="#000000">Fun4All_G4_IonGun</text>
</a>
</g>
</g>
<!-- Node13&#45;&gt;Node41 -->
<g id="edge41" class="edge">
<title>Node13&#45;&gt;Node41</title>
<path fill="none" stroke="#191970" d="M621.2581,-795.1404C633.4476,-721.4756 678.6169,-470.3337 736,-416.5 743.373,-409.5831 752.7205,-405.0002 762.4735,-401.9994"/>
<polygon fill="#191970" stroke="#191970" points="617.7432,-794.9489 619.5882,-805.3819 624.652,-796.0755 617.7432,-794.9489"/>
</g>
<!-- Node42 -->
<g id="node42" class="node">
<title>Node42</title>
<g id="a_node42"><a xlink:href="../../d5/d01/Fun4All__G4__LeadBrick_8C.html#a5fcd8843f8a815feb3b053eaabd60d41" target="_top" xlink:title="Fun4All_G4_LeadBrick">
<polygon fill="none" stroke="#000000" points="755.5,-348.5 755.5,-368.5 883.5,-368.5 883.5,-348.5 755.5,-348.5"/>
<text text-anchor="middle" x="819.5" y="-355.5" font-family="FreeSans" font-size="10.00" fill="#000000">Fun4All_G4_LeadBrick</text>
</a>
</g>
</g>
<!-- Node13&#45;&gt;Node42 -->
<g id="edge42" class="edge">
<title>Node13&#45;&gt;Node42</title>
<path fill="none" stroke="#191970" d="M620.6837,-795.1891C631.4068,-717.0832 673.6357,-437.453 736,-377.5 741.4661,-372.2453 748.0682,-368.3302 755.1368,-365.4295"/>
<polygon fill="#191970" stroke="#191970" points="617.2015,-794.8221 619.3315,-805.2006 624.1386,-795.759 617.2015,-794.8221"/>
</g>
<!-- Node43 -->
<g id="node43" class="node">
<title>Node43</title>
<g id="a_node43"><a xlink:href="../../d9/d8f/Fun4All__G4__Momentum_8C.html#afbd7a4eecd7792e9216ce80b5514123e" target="_top" xlink:title="Fun4All_G4_Momentum">
<polygon fill="none" stroke="#000000" points="752,-309.5 752,-329.5 887,-329.5 887,-309.5 752,-309.5"/>
<text text-anchor="middle" x="819.5" y="-316.5" font-family="FreeSans" font-size="10.00" fill="#000000">Fun4All_G4_Momentum</text>
</a>
</g>
</g>
<!-- Node13&#45;&gt;Node43 -->
<g id="edge43" class="edge">
<title>Node13&#45;&gt;Node43</title>
<path fill="none" stroke="#191970" d="M620.2283,-795.0053C629.6278,-712.3208 668.6903,-404.5577 736,-338.5 740.5627,-334.0222 745.9484,-330.5126 751.7519,-327.7723"/>
<polygon fill="#191970" stroke="#191970" points="616.7291,-794.8037 619.099,-805.13 623.686,-795.5797 616.7291,-794.8037"/>
</g>
<!-- Node44 -->
<g id="node44" class="node">
<title>Node44</title>
<g id="a_node44"><a xlink:href="../../dc/d8e/Fun4All__G4__Prototype2_8C.html#a6b8f092c4f51be2938dd09c810ba6226" target="_top" xlink:title="Fun4All_G4_Prototype2">
<polygon fill="none" stroke="#000000" points="753,-270.5 753,-290.5 886,-290.5 886,-270.5 753,-270.5"/>
<text text-anchor="middle" x="819.5" y="-277.5" font-family="FreeSans" font-size="10.00" fill="#000000">Fun4All_G4_Prototype2</text>
</a>
</g>
</g>
<!-- Node13&#45;&gt;Node44 -->
<g id="edge44" class="edge">
<title>Node13&#45;&gt;Node44</title>
<path fill="none" stroke="#191970" d="M619.8163,-795.0275C627.929,-708.2283 663.6673,-371.7546 736,-299.5 740.8384,-294.6668 746.634,-290.9571 752.8867,-288.1231"/>
<polygon fill="#191970" stroke="#191970" points="616.3148,-794.8853 618.8898,-805.1624 623.2857,-795.5226 616.3148,-794.8853"/>
</g>
<!-- Node45 -->
<g id="node45" class="node">
<title>Node45</title>
<g id="a_node45"><a xlink:href="../../d7/d40/Fun4All__G4__Prototype3_8C.html#a1201361263017b08a070777a0b90b27c" target="_top" xlink:title="Fun4All_G4_Prototype3">
<polygon fill="none" stroke="#000000" points="753,-231.5 753,-251.5 886,-251.5 886,-231.5 753,-231.5"/>
<text text-anchor="middle" x="819.5" y="-238.5" font-family="FreeSans" font-size="10.00" fill="#000000">Fun4All_G4_Prototype3</text>
</a>
</g>
</g>
<!-- Node13&#45;&gt;Node45 -->
<g id="edge45" class="edge">
<title>Node13&#45;&gt;Node45</title>
<path fill="none" stroke="#191970" d="M619.4466,-795.2418C626.3143,-704.8118 658.5699,-339.0408 736,-260.5 740.8012,-255.6299 746.5731,-251.8965 752.8116,-249.0486"/>
<polygon fill="#191970" stroke="#191970" points="615.9507,-795.0588 618.7032,-805.2899 622.9316,-795.5754 615.9507,-795.0588"/>
</g>
<!-- Node46 -->
<g id="node46" class="node">
<title>Node46</title>
<g id="a_node46"><a xlink:href="../../d4/d58/Fun4All__G4__Prototype4_8C.html#acac517f0728af658cbf99c7c9687c908" target="_top" xlink:title="Fun4All_G4_Prototype4">
<polygon fill="none" stroke="#000000" points="753,-192.5 753,-212.5 886,-212.5 886,-192.5 753,-192.5"/>
<text text-anchor="middle" x="819.5" y="-199.5" font-family="FreeSans" font-size="10.00" fill="#000000">Fun4All_G4_Prototype4</text>
</a>
</g>
</g>
<!-- Node13&#45;&gt;Node46 -->
<g id="edge46" class="edge">
<title>Node13&#45;&gt;Node46</title>
<path fill="none" stroke="#191970" d="M619.1545,-795.0314C624.9093,-700.3919 653.5767,-306.2331 736,-221.5 740.7685,-216.5978 746.5194,-212.8439 752.7456,-209.9839"/>
<polygon fill="#191970" stroke="#191970" points="615.6587,-794.8585 618.5642,-805.0471 622.6466,-795.2704 615.6587,-794.8585"/>
</g>
<!-- Node47 -->
<g id="node47" class="node">
<title>Node47</title>
<g id="a_node47"><a xlink:href="../../d5/d2c/macros_2blob_2master_2macros_2g4simulations_2Fun4All__G4__sPHENIX_8C.html#a6eaaa492d7023ec86c562dc63aa1e5a4" target="_top" xlink:title="Fun4All_G4_sPHENIX">
<polygon fill="none" stroke="#000000" points="759,-153.5 759,-173.5 880,-173.5 880,-153.5 759,-153.5"/>
<text text-anchor="middle" x="819.5" y="-160.5" font-family="FreeSans" font-size="10.00" fill="#000000">Fun4All_G4_sPHENIX</text>
</a>
</g>
</g>
<!-- Node13&#45;&gt;Node47 -->
<g id="edge47" class="edge">
<title>Node13&#45;&gt;Node47</title>
<path fill="none" stroke="#191970" d="M618.8719,-795.2752C623.5066,-697.364 648.4364,-273.5867 736,-182.5 742.285,-175.9621 750.3158,-171.4612 758.9035,-168.3976"/>
<polygon fill="#191970" stroke="#191970" points="615.3725,-795.183 618.4142,-805.3318 622.3653,-795.5013 615.3725,-795.183"/>
</g>
<!-- Node48 -->
<g id="node48" class="node">
<title>Node48</title>
<g id="a_node48"><a xlink:href="../../d3/de2/Fun4All__G4__sPHENIX__AnaGenFit_8C.html#a9bf3f2f72ed69a17e2d0c1121d48013c" target="_top" xlink:title="Fun4All_G4_sPHENIX\l_AnaGenFit">
<polygon fill="none" stroke="#000000" points="759,-102.5 759,-134.5 880,-134.5 880,-102.5 759,-102.5"/>
<text text-anchor="start" x="767" y="-121.5" font-family="FreeSans" font-size="10.00" fill="#000000">Fun4All_G4_sPHENIX</text>
<text text-anchor="middle" x="819.5" y="-109.5" font-family="FreeSans" font-size="10.00" fill="#000000">_AnaGenFit</text>
</a>
</g>
</g>
<!-- Node13&#45;&gt;Node48 -->
<g id="edge48" class="edge">
<title>Node13&#45;&gt;Node48</title>
<path fill="none" stroke="#191970" d="M618.7737,-795.1309C623.029,-693.6854 646.7539,-243.8587 736,-143.5 742.134,-136.6022 750.0858,-131.5722 758.6407,-127.9115"/>
<polygon fill="#191970" stroke="#191970" points="615.2708,-795.1349 618.3658,-805.2676 622.2651,-795.4164 615.2708,-795.1349"/>
</g>
<!-- Node49 -->
<g id="node49" class="node">
<title>Node49</title>
<g id="a_node49"><a xlink:href="../../da/dd0/Fun4All__G4__sPHENIX__photonjet_8C.html#a6f18519e216acc05399e562ea57ea77c" target="_top" xlink:title="Fun4All_G4_sPHENIX\l_photonjet">
<polygon fill="none" stroke="#000000" points="759,-51.5 759,-83.5 880,-83.5 880,-51.5 759,-51.5"/>
<text text-anchor="start" x="767" y="-70.5" font-family="FreeSans" font-size="10.00" fill="#000000">Fun4All_G4_sPHENIX</text>
<text text-anchor="middle" x="819.5" y="-58.5" font-family="FreeSans" font-size="10.00" fill="#000000">_photonjet</text>
</a>
</g>
</g>
<!-- Node13&#45;&gt;Node49 -->
<g id="edge49" class="edge">
<title>Node13&#45;&gt;Node49</title>
<path fill="none" stroke="#191970" d="M618.5035,-794.9394C621.5172,-688.5484 640.4313,-201.2803 736,-92.5 742.1923,-85.4517 750.2828,-80.351 758.989,-76.6681"/>
<polygon fill="#191970" stroke="#191970" points="615.0027,-794.9255 618.2344,-805.0154 622.0002,-795.1124 615.0027,-794.9255"/>
</g>
<!-- Node50 -->
<g id="node50" class="node">
<title>Node50</title>
<g id="a_node50"><a xlink:href="../../da/d85/Fun4All__G4__sPHENIX__photons_8C.html#a02fbbd59878fe1299f58ed187e7214ba" target="_top" xlink:title="Fun4All_G4_sPHENIX\l_photons">
<polygon fill="none" stroke="#000000" points="759,-.5 759,-32.5 880,-32.5 880,-.5 759,-.5"/>
<text text-anchor="start" x="767" y="-19.5" font-family="FreeSans" font-size="10.00" fill="#000000">Fun4All_G4_sPHENIX</text>
<text text-anchor="middle" x="819.5" y="-7.5" font-family="FreeSans" font-size="10.00" fill="#000000">_photons</text>
</a>
</g>
</g>
<!-- Node13&#45;&gt;Node50 -->
<g id="edge50" class="edge">
<title>Node13&#45;&gt;Node50</title>
<path fill="none" stroke="#191970" d="M618.2558,-795.2618C620.0519,-685.1583 633.9372,-158.9088 736,-41.5 742.1552,-34.4193 750.2267,-29.302 758.9251,-25.6123"/>
<polygon fill="#191970" stroke="#191970" points="614.755,-795.3007 618.1072,-805.3512 621.7542,-795.4039 614.755,-795.3007"/>
</g>
</g>
</svg>
