<?xml version="1.0" encoding="UTF-8" standalone="no"?>
<!DOCTYPE svg PUBLIC "-//W3C//DTD SVG 1.1//EN"
 "http://www.w3.org/Graphics/SVG/1.1/DTD/svg11.dtd">
<!-- Generated by graphviz version 2.40.1 (20161225.0304)
 -->
<!-- Title: PHNodeIterator::print Pages: 1 -->
<svg width="898pt" height="1667pt"
 viewBox="0.00 0.00 898.00 1667.00" xmlns="http://www.w3.org/2000/svg" xmlns:xlink="http://www.w3.org/1999/xlink">
<g id="graph0" class="graph" transform="scale(1 1) rotate(0) translate(4 1663)">
<title>PHNodeIterator::print</title>
<!-- Node1 -->
<g id="node1" class="node">
<title>Node1</title>
<polygon fill="#bfbfbf" stroke="#000000" points="0,-834.5 0,-854.5 124,-854.5 124,-834.5 0,-834.5"/>
<text text-anchor="middle" x="62" y="-841.5" font-family="FreeSans" font-size="10.00" fill="#000000">PHNodeIterator::print</text>
</g>
<!-- Node2 -->
<g id="node2" class="node">
<title>Node2</title>
<g id="a_node2"><a xlink:href="../../da/d29/classFun4AllServer.html#ae1b1a243ee1a67367c8da4ec3bdc003d" target="_top" xlink:title="Fun4AllServer::Print">
<polygon fill="none" stroke="#000000" points="167.5,-901.5 167.5,-921.5 284.5,-921.5 284.5,-901.5 167.5,-901.5"/>
<text text-anchor="middle" x="226" y="-908.5" font-family="FreeSans" font-size="10.00" fill="#000000">Fun4AllServer::Print</text>
</a>
</g>
</g>
<!-- Node1&#45;&gt;Node2 -->
<g id="edge1" class="edge">
<title>Node1&#45;&gt;Node2</title>
<path fill="none" stroke="#191970" d="M96.196,-858.4703C127.5769,-871.2906 173.3103,-889.9743 201.2797,-901.4009"/>
<polygon fill="#191970" stroke="#191970" points="97.1334,-855.0725 86.5525,-854.5306 94.486,-861.5526 97.1334,-855.0725"/>
</g>
<!-- Node49 -->
<g id="node49" class="node">
<title>Node49</title>
<g id="a_node49"><a xlink:href="../../da/d29/classFun4AllServer.html#a6a65a944dfb40966ace97d35ab1f7942" target="_top" xlink:title="Fun4AllServer::process\l_event">
<polygon fill="none" stroke="#000000" points="160,-780.5 160,-812.5 292,-812.5 292,-780.5 160,-780.5"/>
<text text-anchor="start" x="168" y="-799.5" font-family="FreeSans" font-size="10.00" fill="#000000">Fun4AllServer::process</text>
<text text-anchor="middle" x="226" y="-787.5" font-family="FreeSans" font-size="10.00" fill="#000000">_event</text>
</a>
</g>
</g>
<!-- Node1&#45;&gt;Node49 -->
<g id="edge49" class="edge">
<title>Node1&#45;&gt;Node49</title>
<path fill="none" stroke="#191970" d="M106.1821,-831.5687C126.2377,-825.6987 150.1579,-818.6977 171.3325,-812.5002"/>
<polygon fill="#191970" stroke="#191970" points="104.994,-828.2695 96.3798,-834.4376 106.9603,-834.9877 104.994,-828.2695"/>
</g>
<!-- Node3 -->
<g id="node3" class="node">
<title>Node3</title>
<g id="a_node3"><a xlink:href="../../da/d29/classFun4AllServer.html#afcfc5583204cac58b4e66a2406187a18" target="_top" xlink:title="Fun4AllServer::BeginRun">
<polygon fill="none" stroke="#000000" points="340,-882.5 340,-902.5 481,-902.5 481,-882.5 340,-882.5"/>
<text text-anchor="middle" x="410.5" y="-889.5" font-family="FreeSans" font-size="10.00" fill="#000000">Fun4AllServer::BeginRun</text>
</a>
</g>
</g>
<!-- Node2&#45;&gt;Node3 -->
<g id="edge2" class="edge">
<title>Node2&#45;&gt;Node3</title>
<path fill="none" stroke="#191970" d="M294.6605,-904.4293C309.3754,-902.9139 324.9488,-901.3101 339.7415,-899.7868"/>
<polygon fill="#191970" stroke="#191970" points="294.2193,-900.9561 284.6305,-905.4622 294.9364,-907.9193 294.2193,-900.9561"/>
</g>
<!-- Node44 -->
<g id="node44" class="node">
<title>Node44</title>
<g id="a_node44"><a xlink:href="../../d6/d1b/classPrototype2RawTowerBuilder.html#ac5d83bd0e9b8325c27dba83fc67b1111" target="_top" xlink:title="Prototype2RawTowerBuilder\l::InitRun">
<polygon fill="none" stroke="#000000" points="529,-937.5 529,-969.5 687,-969.5 687,-937.5 529,-937.5"/>
<text text-anchor="start" x="537" y="-956.5" font-family="FreeSans" font-size="10.00" fill="#000000">Prototype2RawTowerBuilder</text>
<text text-anchor="middle" x="608" y="-944.5" font-family="FreeSans" font-size="10.00" fill="#000000">::InitRun</text>
</a>
</g>
</g>
<!-- Node2&#45;&gt;Node44 -->
<g id="edge43" class="edge">
<title>Node2&#45;&gt;Node44</title>
<path fill="none" stroke="#191970" d="M295.1179,-919.0993C360.9265,-926.3348 459.8888,-937.2155 528.8358,-944.7961"/>
<polygon fill="#191970" stroke="#191970" points="295.173,-915.5844 284.8503,-917.9705 294.4079,-922.5425 295.173,-915.5844"/>
</g>
<!-- Node45 -->
<g id="node45" class="node">
<title>Node45</title>
<g id="a_node45"><a xlink:href="../../dd/d8b/classPHG4Prototype2HcalCellReco.html#ada0674e45683579ea6d19c3c6fdce9e5" target="_top" xlink:title="module initialization">
<polygon fill="none" stroke="#000000" points="328,-831.5 328,-863.5 493,-863.5 493,-831.5 328,-831.5"/>
<text text-anchor="start" x="336" y="-850.5" font-family="FreeSans" font-size="10.00" fill="#000000">PHG4Prototype2HcalCellReco</text>
<text text-anchor="middle" x="410.5" y="-838.5" font-family="FreeSans" font-size="10.00" fill="#000000">::InitRun</text>
</a>
</g>
</g>
<!-- Node2&#45;&gt;Node45 -->
<g id="edge44" class="edge">
<title>Node2&#45;&gt;Node45</title>
<path fill="none" stroke="#191970" d="M260.4262,-897.6384C280.0939,-889.8955 305.2896,-880.2717 328,-872.5 336.7792,-869.4957 346.1449,-866.4802 355.2982,-863.6352"/>
<polygon fill="#191970" stroke="#191970" points="258.9781,-894.4473 250.9696,-901.3838 261.5558,-900.9554 258.9781,-894.4473"/>
</g>
<!-- Node46 -->
<g id="node46" class="node">
<title>Node46</title>
<g id="a_node46"><a xlink:href="../../d6/d1b/classPrototype2RawTowerBuilder.html#a9495dbf32264edc680dd19fb5d242837" target="_top" xlink:title="Prototype2RawTowerBuilder\l::ReadParamsFromNodeTree">
<polygon fill="none" stroke="#000000" points="331.5,-960.5 331.5,-992.5 489.5,-992.5 489.5,-960.5 331.5,-960.5"/>
<text text-anchor="start" x="339.5" y="-979.5" font-family="FreeSans" font-size="10.00" fill="#000000">Prototype2RawTowerBuilder</text>
<text text-anchor="middle" x="410.5" y="-967.5" font-family="FreeSans" font-size="10.00" fill="#000000">::ReadParamsFromNodeTree</text>
</a>
</g>
</g>
<!-- Node2&#45;&gt;Node46 -->
<g id="edge45" class="edge">
<title>Node2&#45;&gt;Node46</title>
<path fill="none" stroke="#191970" d="M263.8814,-924.8457C293.1408,-935.1539 333.7459,-949.4593 364.8072,-960.4023"/>
<polygon fill="#191970" stroke="#191970" points="265.0186,-921.5356 254.4238,-921.5138 262.6926,-928.1378 265.0186,-921.5356"/>
</g>
<!-- Node47 -->
<g id="node47" class="node">
<title>Node47</title>
<g id="a_node47"><a xlink:href="../../d1/dec/classHcalRawTowerBuilder.html#a4d42afd3cf9d5d9f5569e87fa939d567" target="_top" xlink:title="HcalRawTowerBuilder\l::ReadParamsFromNodeTree">
<polygon fill="none" stroke="#000000" points="331.5,-1011.5 331.5,-1043.5 489.5,-1043.5 489.5,-1011.5 331.5,-1011.5"/>
<text text-anchor="start" x="339.5" y="-1030.5" font-family="FreeSans" font-size="10.00" fill="#000000">HcalRawTowerBuilder</text>
<text text-anchor="middle" x="410.5" y="-1018.5" font-family="FreeSans" font-size="10.00" fill="#000000">::ReadParamsFromNodeTree</text>
</a>
</g>
</g>
<!-- Node2&#45;&gt;Node47 -->
<g id="edge47" class="edge">
<title>Node2&#45;&gt;Node47</title>
<path fill="none" stroke="#191970" d="M241.2981,-929.1769C259.8734,-949.6007 293.0758,-982.9029 328,-1002.5 334.0038,-1005.8689 340.5137,-1008.8343 347.154,-1011.4324"/>
<polygon fill="#191970" stroke="#191970" points="243.7545,-926.6727 234.487,-921.538 238.5297,-931.3313 243.7545,-926.6727"/>
</g>
<!-- Node4 -->
<g id="node4" class="node">
<title>Node4</title>
<g id="a_node4"><a xlink:href="../../da/d29/classFun4AllServer.html#a11bbc8b2f53bc06e0b05ee202dd6372a" target="_top" xlink:title="run n events (0 means up to end of file)">
<polygon fill="none" stroke="#ff0000" points="553,-831.5 553,-851.5 663,-851.5 663,-831.5 553,-831.5"/>
<text text-anchor="middle" x="608" y="-838.5" font-family="FreeSans" font-size="10.00" fill="#000000">Fun4AllServer::run</text>
</a>
</g>
</g>
<!-- Node3&#45;&gt;Node4 -->
<g id="edge3" class="edge">
<title>Node3&#45;&gt;Node4</title>
<path fill="none" stroke="#191970" d="M462.8114,-880.0311C472.8431,-877.5798 483.2556,-874.9941 493,-872.5 519.4425,-865.732 549.1911,-857.7016 571.8062,-851.51"/>
<polygon fill="#191970" stroke="#191970" points="461.8358,-876.6663 452.9455,-882.4292 463.4892,-883.4682 461.8358,-876.6663"/>
</g>
<!-- Node5 -->
<g id="node5" class="node">
<title>Node5</title>
<g id="a_node5"><a xlink:href="../../dd/d9c/AnalyzeTree_8C.html#af10d516ac25cd720d54534a63ef7e2f8" target="_top" xlink:title="AnalyzeTree">
<polygon fill="none" stroke="#000000" points="767.5,-1638.5 767.5,-1658.5 845.5,-1658.5 845.5,-1638.5 767.5,-1638.5"/>
<text text-anchor="middle" x="806.5" y="-1645.5" font-family="FreeSans" font-size="10.00" fill="#000000">AnalyzeTree</text>
</a>
</g>
</g>
<!-- Node4&#45;&gt;Node5 -->
<g id="edge4" class="edge">
<title>Node4&#45;&gt;Node5</title>
<path fill="none" stroke="#191970" d="M629.8118,-857.8105C648.7268,-873.3746 674.9102,-898.6736 687,-927.5 717.2071,-999.5245 672.7358,-1569.7211 723,-1629.5 733.7161,-1642.2446 751.038,-1647.4744 767.1346,-1649.3255"/>
<polygon fill="#191970" stroke="#191970" points="631.9647,-855.0508 621.9613,-851.5606 627.6048,-860.5273 631.9647,-855.0508"/>
</g>
<!-- Node6 -->
<g id="node6" class="node">
<title>Node6</title>
<g id="a_node6"><a xlink:href="../../db/d89/ConstructGeometry_8C.html#a21c369835643f1016f506a3da3b8d446" target="_top" xlink:title="ConstructGeometry">
<polygon fill="none" stroke="#000000" points="749,-1599.5 749,-1619.5 864,-1619.5 864,-1599.5 749,-1599.5"/>
<text text-anchor="middle" x="806.5" y="-1606.5" font-family="FreeSans" font-size="10.00" fill="#000000">ConstructGeometry</text>
</a>
</g>
</g>
<!-- Node4&#45;&gt;Node6 -->
<g id="edge5" class="edge">
<title>Node4&#45;&gt;Node6</title>
<path fill="none" stroke="#191970" d="M629.7912,-857.8192C648.6923,-873.3891 674.8668,-898.6918 687,-927.5 715.6358,-995.491 675.4359,-1534.1047 723,-1590.5 729.7095,-1598.4553 738.9929,-1603.4806 748.941,-1606.5835"/>
<polygon fill="#191970" stroke="#191970" points="631.9484,-855.0628 621.947,-851.5666 627.5852,-860.5367 631.9484,-855.0628"/>
</g>
<!-- Node7 -->
<g id="node7" class="node">
<title>Node7</title>
<g id="a_node7"><a xlink:href="../../d3/d7f/Fun_8C.html#af69a3eef3ff244bb51f5740c6ecb5432" target="_top" xlink:title="Fun">
<polygon fill="none" stroke="#000000" points="789.5,-1560.5 789.5,-1580.5 823.5,-1580.5 823.5,-1560.5 789.5,-1560.5"/>
<text text-anchor="middle" x="806.5" y="-1567.5" font-family="FreeSans" font-size="10.00" fill="#000000">Fun</text>
</a>
</g>
</g>
<!-- Node4&#45;&gt;Node7 -->
<g id="edge6" class="edge">
<title>Node4&#45;&gt;Node7</title>
<path fill="none" stroke="#191970" d="M629.7681,-857.829C648.6535,-873.4054 674.8181,-898.7124 687,-927.5 714.0646,-991.4579 678.1355,-1498.4878 723,-1551.5 739.1352,-1570.5655 770.0534,-1572.7901 789.4031,-1572.0667"/>
<polygon fill="#191970" stroke="#191970" points="631.93,-855.0764 621.9311,-851.5733 627.5631,-860.5472 631.93,-855.0764"/>
</g>
<!-- Node8 -->
<g id="node8" class="node">
<title>Node8</title>
<g id="a_node8"><a xlink:href="../../dc/ddc/Fun4All__Ana_8C.html#a9152007c2477efc543d79f3b97fbf50c" target="_top" xlink:title="Fun4All_Ana">
<polygon fill="none" stroke="#000000" points="767.5,-1521.5 767.5,-1541.5 845.5,-1541.5 845.5,-1521.5 767.5,-1521.5"/>
<text text-anchor="middle" x="806.5" y="-1528.5" font-family="FreeSans" font-size="10.00" fill="#000000">Fun4All_Ana</text>
</a>
</g>
</g>
<!-- Node4&#45;&gt;Node8 -->
<g id="edge7" class="edge">
<title>Node4&#45;&gt;Node8</title>
<path fill="none" stroke="#191970" d="M629.7419,-857.8401C648.6097,-873.4241 674.763,-898.7358 687,-927.5 737.9876,-1047.351 638.6696,-1413.2408 723,-1512.5 733.7811,-1525.1897 751.1112,-1530.4126 767.1963,-1532.2733"/>
<polygon fill="#191970" stroke="#191970" points="631.9093,-855.0918 621.913,-851.581 627.5381,-860.5592 631.9093,-855.0918"/>
</g>
<!-- Node9 -->
<g id="node9" class="node">
<title>Node9</title>
<g id="a_node9"><a xlink:href="../../df/d77/Fun4All__CaloAna_8C.html#a4f0841e3d8be48f96cc4e95380315ff8" target="_top" xlink:title="Fun4All_CaloAna">
<polygon fill="none" stroke="#000000" points="756.5,-1482.5 756.5,-1502.5 856.5,-1502.5 856.5,-1482.5 756.5,-1482.5"/>
<text text-anchor="middle" x="806.5" y="-1489.5" font-family="FreeSans" font-size="10.00" fill="#000000">Fun4All_CaloAna</text>
</a>
</g>
</g>
<!-- Node4&#45;&gt;Node9 -->
<g id="edge8" class="edge">
<title>Node4&#45;&gt;Node9</title>
<path fill="none" stroke="#191970" d="M629.712,-857.8528C648.5596,-873.4454 674.7001,-898.7626 687,-927.5 734.8465,-1039.2877 644.067,-1381.0048 723,-1473.5 731.3962,-1483.3388 743.7293,-1488.6847 756.3538,-1491.4551"/>
<polygon fill="#191970" stroke="#191970" points="631.8855,-855.1094 621.8923,-851.5898 627.5096,-860.573 631.8855,-855.1094"/>
</g>
<!-- Node10 -->
<g id="node10" class="node">
<title>Node10</title>
<g id="a_node10"><a xlink:href="../../da/dae/Fun4All__EICAnalysis__DIS_8C.html#a6be6c58cd68a395182a998295a1106ae" target="_top" xlink:title="Fun4All_EICAnalysis_DIS">
<polygon fill="none" stroke="#000000" points="737,-1443.5 737,-1463.5 876,-1463.5 876,-1443.5 737,-1443.5"/>
<text text-anchor="middle" x="806.5" y="-1450.5" font-family="FreeSans" font-size="10.00" fill="#000000">Fun4All_EICAnalysis_DIS</text>
</a>
</g>
</g>
<!-- Node4&#45;&gt;Node10 -->
<g id="edge9" class="edge">
<title>Node4&#45;&gt;Node10</title>
<path fill="none" stroke="#191970" d="M629.6776,-857.8676C648.5019,-873.4702 674.6276,-898.7938 687,-927.5 731.7062,-1031.2262 649.4631,-1348.7673 723,-1434.5 726.8717,-1439.0138 731.5721,-1442.5809 736.7477,-1445.387"/>
<polygon fill="#191970" stroke="#191970" points="631.8582,-855.1298 621.8686,-851.6 627.4766,-860.5889 631.8582,-855.1298"/>
</g>
<!-- Node11 -->
<g id="node11" class="node">
<title>Node11</title>
<g id="a_node11"><a xlink:href="../../d2/d9b/Fun4All__EICAnalysis__DISReco_8C.html#a3c160743ec7b9b4572cf73a19640a34f" target="_top" xlink:title="Fun4All_EICAnalysis\l_DISReco">
<polygon fill="none" stroke="#000000" points="748,-1392.5 748,-1424.5 865,-1424.5 865,-1392.5 748,-1392.5"/>
<text text-anchor="start" x="756" y="-1411.5" font-family="FreeSans" font-size="10.00" fill="#000000">Fun4All_EICAnalysis</text>
<text text-anchor="middle" x="806.5" y="-1399.5" font-family="FreeSans" font-size="10.00" fill="#000000">_DISReco</text>
</a>
</g>
</g>
<!-- Node4&#45;&gt;Node11 -->
<g id="edge10" class="edge">
<title>Node4&#45;&gt;Node11</title>
<path fill="none" stroke="#191970" d="M629.6239,-857.8909C648.4119,-873.5092 674.5143,-898.8428 687,-927.5 727.6012,-1020.6879 659.1365,-1304.4184 723,-1383.5 729.3699,-1391.3878 738.125,-1396.8592 747.5805,-1400.6388"/>
<polygon fill="#191970" stroke="#191970" points="631.8154,-855.1618 621.8314,-851.6161 627.4251,-860.614 631.8154,-855.1618"/>
</g>
<!-- Node12 -->
<g id="node12" class="node">
<title>Node12</title>
<g id="a_node12"><a xlink:href="../../d2/d47/Fun4All__EICAnalysis__DVCS_8C.html#a84f48142243e969fd353cc8509f0ba22" target="_top" xlink:title="Fun4All_EICAnalysis_DVCS">
<polygon fill="none" stroke="#000000" points="731.5,-1353.5 731.5,-1373.5 881.5,-1373.5 881.5,-1353.5 731.5,-1353.5"/>
<text text-anchor="middle" x="806.5" y="-1360.5" font-family="FreeSans" font-size="10.00" fill="#000000">Fun4All_EICAnalysis_DVCS</text>
</a>
</g>
</g>
<!-- Node4&#45;&gt;Node12 -->
<g id="edge11" class="edge">
<title>Node4&#45;&gt;Node12</title>
<path fill="none" stroke="#191970" d="M629.8268,-858.1236C648.562,-873.7731 674.4658,-899.0171 687,-927.5 724.4636,-1012.6328 661.9086,-1274.3648 723,-1344.5 726.0271,-1347.9753 729.5456,-1350.8875 733.3919,-1353.322"/>
<polygon fill="#191970" stroke="#191970" points="631.7738,-855.1969 621.797,-851.6312 627.3727,-860.6402 631.7738,-855.1969"/>
</g>
<!-- Node13 -->
<g id="node13" class="node">
<title>Node13</title>
<g id="a_node13"><a xlink:href="../../d3/dee/Fun4All__EICAnalysis__Exclusive_8C.html#ad3a88bfdb2a21a757edf221e36d6bffe" target="_top" xlink:title="Fun4All_EICAnalysis\l_Exclusive">
<polygon fill="none" stroke="#000000" points="748,-1302.5 748,-1334.5 865,-1334.5 865,-1302.5 748,-1302.5"/>
<text text-anchor="start" x="756" y="-1321.5" font-family="FreeSans" font-size="10.00" fill="#000000">Fun4All_EICAnalysis</text>
<text text-anchor="middle" x="806.5" y="-1309.5" font-family="FreeSans" font-size="10.00" fill="#000000">_Exclusive</text>
</a>
</g>
</g>
<!-- Node4&#45;&gt;Node13 -->
<g id="edge12" class="edge">
<title>Node4&#45;&gt;Node13</title>
<path fill="none" stroke="#191970" d="M629.7452,-858.1598C648.4261,-873.8334 674.2961,-899.0924 687,-927.5 720.3635,-1002.1055 671.0436,-1230.4156 723,-1293.5 729.4456,-1301.3261 738.2367,-1306.7681 747.7043,-1310.5379"/>
<polygon fill="#191970" stroke="#191970" points="631.7092,-855.2459 621.7411,-851.656 627.2949,-860.6785 631.7092,-855.2459"/>
</g>
<!-- Node14 -->
<g id="node14" class="node">
<title>Node14</title>
<g id="a_node14"><a xlink:href="../../d2/d00/Fun4All__EICAnalysis__Leptoquarks_8C.html#a328697c2ae82c0b33f95bea9aefb93f4" target="_top" xlink:title="Fun4All_EICAnalysis\l_Leptoquarks">
<polygon fill="none" stroke="#000000" points="748,-1251.5 748,-1283.5 865,-1283.5 865,-1251.5 748,-1251.5"/>
<text text-anchor="start" x="756" y="-1270.5" font-family="FreeSans" font-size="10.00" fill="#000000">Fun4All_EICAnalysis</text>
<text text-anchor="middle" x="806.5" y="-1258.5" font-family="FreeSans" font-size="10.00" fill="#000000">_Leptoquarks</text>
</a>
</g>
</g>
<!-- Node4&#45;&gt;Node14 -->
<g id="edge13" class="edge">
<title>Node4&#45;&gt;Node14</title>
<path fill="none" stroke="#191970" d="M629.6378,-858.2083C648.2473,-873.9142 674.0729,-899.1933 687,-927.5 716.2681,-991.5888 677.7817,-1188.4694 723,-1242.5 729.507,-1250.2751 738.3274,-1255.6928 747.8047,-1259.4545"/>
<polygon fill="#191970" stroke="#191970" points="631.624,-855.3113 621.6675,-851.6892 627.1922,-860.7297 631.624,-855.3113"/>
</g>
<!-- Node15 -->
<g id="node15" class="node">
<title>Node15</title>
<g id="a_node15"><a xlink:href="../../df/d6c/Fun4All__EICAnalysis__JPsi_8C.html#ad03644e8a25c5261146f6c59826ed6d0" target="_top" xlink:title="Fun4All_EICAnalysis\l_Quarkonia">
<polygon fill="none" stroke="#000000" points="748,-1200.5 748,-1232.5 865,-1232.5 865,-1200.5 748,-1200.5"/>
<text text-anchor="start" x="756" y="-1219.5" font-family="FreeSans" font-size="10.00" fill="#000000">Fun4All_EICAnalysis</text>
<text text-anchor="middle" x="806.5" y="-1207.5" font-family="FreeSans" font-size="10.00" fill="#000000">_Quarkonia</text>
</a>
</g>
</g>
<!-- Node4&#45;&gt;Node15 -->
<g id="edge14" class="edge">
<title>Node4&#45;&gt;Node15</title>
<path fill="none" stroke="#191970" d="M629.4902,-858.2767C648.0016,-874.0281 673.766,-899.3354 687,-927.5 737.3605,-1034.6771 646.0164,-1101.5187 723,-1191.5 729.5911,-1199.2039 738.4516,-1204.5877 747.9422,-1208.3381"/>
<polygon fill="#191970" stroke="#191970" points="631.5066,-855.4027 621.5665,-851.7361 627.0505,-860.8012 631.5066,-855.4027"/>
</g>
<!-- Node16 -->
<g id="node16" class="node">
<title>Node16</title>
<g id="a_node16"><a xlink:href="../../df/d90/Fun4All__EICAnalysis__TrackEval_8C.html#ab4d10c3db3266243a5c314b02c02a360" target="_top" xlink:title="Fun4All_EICAnalysis\l_TrackEval">
<polygon fill="none" stroke="#000000" points="748,-1149.5 748,-1181.5 865,-1181.5 865,-1149.5 748,-1149.5"/>
<text text-anchor="start" x="756" y="-1168.5" font-family="FreeSans" font-size="10.00" fill="#000000">Fun4All_EICAnalysis</text>
<text text-anchor="middle" x="806.5" y="-1156.5" font-family="FreeSans" font-size="10.00" fill="#000000">_TrackEval</text>
</a>
</g>
</g>
<!-- Node4&#45;&gt;Node16 -->
<g id="edge15" class="edge">
<title>Node4&#45;&gt;Node16</title>
<path fill="none" stroke="#191970" d="M628.9643,-858.1127C647.3526,-873.9136 673.2411,-899.3922 687,-927.5 729.211,-1013.7323 659.4292,-1068.5519 723,-1140.5 729.6129,-1147.9844 738.3661,-1153.2713 747.7164,-1156.9964"/>
<polygon fill="#191970" stroke="#191970" points="631.0336,-855.2809 621.1139,-851.5592 626.5476,-860.6546 631.0336,-855.2809"/>
</g>
<!-- Node17 -->
<g id="node17" class="node">
<title>Node17</title>
<g id="a_node17"><a xlink:href="../../de/dc8/Fun4All__EMCalLikelihood_8C.html#a209f0d5788c9d3adba2967f194bca64a" target="_top" xlink:title="Fun4All_EMCalLikelihood">
<polygon fill="none" stroke="#000000" points="736,-1110.5 736,-1130.5 877,-1130.5 877,-1110.5 736,-1110.5"/>
<text text-anchor="middle" x="806.5" y="-1117.5" font-family="FreeSans" font-size="10.00" fill="#000000">Fun4All_EMCalLikelihood</text>
</a>
</g>
</g>
<!-- Node4&#45;&gt;Node17 -->
<g id="edge16" class="edge">
<title>Node4&#45;&gt;Node17</title>
<path fill="none" stroke="#191970" d="M628.7222,-858.234C646.9462,-874.1172 672.7293,-899.6486 687,-927.5 723.0118,-997.7823 667.7122,-1045.1112 723,-1101.5 726.747,-1105.3217 731.0915,-1108.4442 735.7912,-1110.9887"/>
<polygon fill="#191970" stroke="#191970" points="630.8398,-855.4406 620.9495,-851.6415 626.312,-860.7791 630.8398,-855.4406"/>
</g>
<!-- Node18 -->
<g id="node18" class="node">
<title>Node18</title>
<g id="a_node18"><a xlink:href="../../df/d51/Fun4All__ExportGeom_8C.html#a582925c51bad38d562cf19e71211adfd" target="_top" xlink:title="get geometry from DST file and output TGeoManager ROOT files or other formats of geometry files...">
<polygon fill="none" stroke="#000000" points="745.5,-1071.5 745.5,-1091.5 867.5,-1091.5 867.5,-1071.5 745.5,-1071.5"/>
<text text-anchor="middle" x="806.5" y="-1078.5" font-family="FreeSans" font-size="10.00" fill="#000000">Fun4All_ExportGeom</text>
</a>
</g>
</g>
<!-- Node4&#45;&gt;Node18 -->
<g id="edge17" class="edge">
<title>Node4&#45;&gt;Node18</title>
<path fill="none" stroke="#191970" d="M628.0502,-858.1611C646.0369,-874.1589 671.8625,-899.9093 687,-927.5 716.8688,-981.9413 678.2891,-1019.4078 723,-1062.5 729.3157,-1068.5871 737.1555,-1072.8776 745.4813,-1075.8763"/>
<polygon fill="#191970" stroke="#191970" points="630.2507,-855.4366 620.4042,-851.5255 625.6626,-860.7233 630.2507,-855.4366"/>
</g>
<!-- Node19 -->
<g id="node19" class="node">
<title>Node19</title>
<g id="a_node19"><a xlink:href="../../de/d55/Fun4All__G4__block_8C.html#a6a063a649a0dd3318a517d5af98430dd" target="_top" xlink:title="Fun4All_G4_block">
<polygon fill="none" stroke="#000000" points="754,-1032.5 754,-1052.5 859,-1052.5 859,-1032.5 754,-1032.5"/>
<text text-anchor="middle" x="806.5" y="-1039.5" font-family="FreeSans" font-size="10.00" fill="#000000">Fun4All_G4_block</text>
</a>
</g>
</g>
<!-- Node4&#45;&gt;Node19 -->
<g id="edge18" class="edge">
<title>Node4&#45;&gt;Node19</title>
<path fill="none" stroke="#191970" d="M627.1359,-858.2504C644.6998,-874.4802 670.435,-900.5354 687,-927.5 710.8522,-966.3268 688.6781,-993.5258 723,-1023.5 731.6224,-1031.0301 742.6121,-1035.7494 753.7649,-1038.6673"/>
<polygon fill="#191970" stroke="#191970" points="629.4642,-855.637 619.7032,-851.5169 624.7644,-860.8248 629.4642,-855.637"/>
</g>
<!-- Node20 -->
<g id="node20" class="node">
<title>Node20</title>
<g id="a_node20"><a xlink:href="../../d8/d91/Fun4All__G4__Clusters_8C.html#ab7d8e64f12f512631d4c0e8c6683ec5b" target="_top" xlink:title="Fun4All_G4_Clusters">
<polygon fill="none" stroke="#000000" points="747,-993.5 747,-1013.5 866,-1013.5 866,-993.5 747,-993.5"/>
<text text-anchor="middle" x="806.5" y="-1000.5" font-family="FreeSans" font-size="10.00" fill="#000000">Fun4All_G4_Clusters</text>
</a>
</g>
</g>
<!-- Node4&#45;&gt;Node20 -->
<g id="edge19" class="edge">
<title>Node4&#45;&gt;Node20</title>
<path fill="none" stroke="#191970" d="M625.8174,-858.9866C642.5179,-875.8043 667.7302,-902.3172 687,-927.5 705.2084,-951.2956 698.5376,-967.1978 723,-984.5 730.1613,-989.5652 738.4569,-993.3048 746.9835,-996.0609"/>
<polygon fill="#191970" stroke="#191970" points="627.9189,-856.1395 618.366,-851.5578 622.9767,-861.0968 627.9189,-856.1395"/>
</g>
<!-- Node21 -->
<g id="node21" class="node">
<title>Node21</title>
<g id="a_node21"><a xlink:href="../../d2/dee/Fun4All__G4__Cylinder_8C.html#a271dc4f10f6f77107705e0efef0c97e5" target="_top" xlink:title="Fun4All_G4_Cylinder">
<polygon fill="none" stroke="#000000" points="746,-954.5 746,-974.5 867,-974.5 867,-954.5 746,-954.5"/>
<text text-anchor="middle" x="806.5" y="-961.5" font-family="FreeSans" font-size="10.00" fill="#000000">Fun4All_G4_Cylinder</text>
</a>
</g>
</g>
<!-- Node4&#45;&gt;Node21 -->
<g id="edge20" class="edge">
<title>Node4&#45;&gt;Node21</title>
<path fill="none" stroke="#191970" d="M622.9278,-859.5445C643.1632,-882.7899 681.5596,-922.7806 723,-944.5 730.7898,-948.5827 739.4242,-951.8459 748.1001,-954.4504"/>
<polygon fill="#191970" stroke="#191970" points="625.4758,-857.1384 616.3224,-851.8029 620.1507,-861.6819 625.4758,-857.1384"/>
</g>
<!-- Node22 -->
<g id="node22" class="node">
<title>Node22</title>
<g id="a_node22"><a xlink:href="../../da/d02/Fun4All__G4__EICDetector_8C.html#afbe82cefa1d1fd031d9a8586b7bb68c6" target="_top" xlink:title="Fun4All_G4_EICDetector">
<polygon fill="none" stroke="#000000" points="737,-915.5 737,-935.5 876,-935.5 876,-915.5 737,-915.5"/>
<text text-anchor="middle" x="806.5" y="-922.5" font-family="FreeSans" font-size="10.00" fill="#000000">Fun4All_G4_EICDetector</text>
</a>
</g>
</g>
<!-- Node4&#45;&gt;Node22 -->
<g id="edge21" class="edge">
<title>Node4&#45;&gt;Node22</title>
<path fill="none" stroke="#191970" d="M631.5366,-857.1219C654.146,-871.5069 689.6921,-892.5249 723,-905.5 733.0007,-909.3958 743.981,-912.6822 754.5988,-915.3939"/>
<polygon fill="#191970" stroke="#191970" points="633.2679,-854.0737 622.9678,-851.5922 629.4723,-859.9553 633.2679,-854.0737"/>
</g>
<!-- Node23 -->
<g id="node23" class="node">
<title>Node23</title>
<g id="a_node23"><a xlink:href="../../dd/d2a/Fun4All__G4__EICDetector__LQ_8C.html#aaa01242fd6e77ca43a9d49a6d46008e4" target="_top" xlink:title="Fun4All_G4_EICDetector_LQ">
<polygon fill="none" stroke="#000000" points="728.5,-876.5 728.5,-896.5 884.5,-896.5 884.5,-876.5 728.5,-876.5"/>
<text text-anchor="middle" x="806.5" y="-883.5" font-family="FreeSans" font-size="10.00" fill="#000000">Fun4All_G4_EICDetector_LQ</text>
</a>
</g>
</g>
<!-- Node4&#45;&gt;Node23 -->
<g id="edge22" class="edge">
<title>Node4&#45;&gt;Node23</title>
<path fill="none" stroke="#191970" d="M662.4328,-853.8399C693.7625,-860.9424 732.6341,-869.7546 762.1014,-876.4348"/>
<polygon fill="#191970" stroke="#191970" points="663.0737,-850.3965 652.5473,-851.5989 661.526,-857.2232 663.0737,-850.3965"/>
</g>
<!-- Node24 -->
<g id="node24" class="node">
<title>Node24</title>
<g id="a_node24"><a xlink:href="../../df/d4b/Fun4All__G4__EICDetector__LQ__analysis_8C.html#af903e98824d083a08b353ac15996ee0e" target="_top" xlink:title="Fun4All_G4_EICDetector\l_LQ_analysis">
<polygon fill="none" stroke="#000000" points="737,-825.5 737,-857.5 876,-857.5 876,-825.5 737,-825.5"/>
<text text-anchor="start" x="745" y="-844.5" font-family="FreeSans" font-size="10.00" fill="#000000">Fun4All_G4_EICDetector</text>
<text text-anchor="middle" x="806.5" y="-832.5" font-family="FreeSans" font-size="10.00" fill="#000000">_LQ_analysis</text>
</a>
</g>
</g>
<!-- Node4&#45;&gt;Node24 -->
<g id="edge23" class="edge">
<title>Node4&#45;&gt;Node24</title>
<path fill="none" stroke="#191970" d="M673.1561,-841.5C693.543,-841.5 716.1146,-841.5 736.8014,-841.5"/>
<polygon fill="#191970" stroke="#191970" points="673.0297,-838.0001 663.0297,-841.5 673.0297,-845.0001 673.0297,-838.0001"/>
</g>
<!-- Node25 -->
<g id="node25" class="node">
<title>Node25</title>
<g id="a_node25"><a xlink:href="../../d1/daf/Fun4All__G4__EICDetector__LQ__analysis__nf_8C.html#a5022607d21247b87dd208b0828905147" target="_top" xlink:title="Fun4All_G4_EICDetector\l_LQ_analysis_nf">
<polygon fill="none" stroke="#000000" points="737,-774.5 737,-806.5 876,-806.5 876,-774.5 737,-774.5"/>
<text text-anchor="start" x="745" y="-793.5" font-family="FreeSans" font-size="10.00" fill="#000000">Fun4All_G4_EICDetector</text>
<text text-anchor="middle" x="806.5" y="-781.5" font-family="FreeSans" font-size="10.00" fill="#000000">_LQ_analysis_nf</text>
</a>
</g>
</g>
<!-- Node4&#45;&gt;Node25 -->
<g id="edge24" class="edge">
<title>Node4&#45;&gt;Node25</title>
<path fill="none" stroke="#191970" d="M656.9445,-828.9248C683.2002,-822.1791 715.8408,-813.7928 743.9233,-806.5777"/>
<polygon fill="#191970" stroke="#191970" points="656.0317,-825.5456 647.2172,-831.424 657.7736,-832.3254 656.0317,-825.5456"/>
</g>
<!-- Node26 -->
<g id="node26" class="node">
<title>Node26</title>
<g id="a_node26"><a xlink:href="../../d4/df5/Fun4All__G4__EICDetector__LQ__reference_8C.html#a2feefc472f17f90b3cbe74897d049f75" target="_top" xlink:title="Fun4All_G4_EICDetector\l_LQ_reference">
<polygon fill="none" stroke="#000000" points="737,-723.5 737,-755.5 876,-755.5 876,-723.5 737,-723.5"/>
<text text-anchor="start" x="745" y="-742.5" font-family="FreeSans" font-size="10.00" fill="#000000">Fun4All_G4_EICDetector</text>
<text text-anchor="middle" x="806.5" y="-730.5" font-family="FreeSans" font-size="10.00" fill="#000000">_LQ_reference</text>
</a>
</g>
</g>
<!-- Node4&#45;&gt;Node26 -->
<g id="edge25" class="edge">
<title>Node4&#45;&gt;Node26</title>
<path fill="none" stroke="#191970" d="M628.3472,-825.1096C650.4929,-807.9535 687.5037,-781.2308 723,-764.5 729.9809,-761.2096 737.4943,-758.2381 745.051,-755.5889"/>
<polygon fill="#191970" stroke="#191970" points="626.0539,-822.4603 620.3522,-831.3902 630.3781,-827.9649 626.0539,-822.4603"/>
</g>
<!-- Node27 -->
<g id="node27" class="node">
<title>Node27</title>
<g id="a_node27"><a xlink:href="../../d3/d51/Fun4All__G4__EICDetector__RICH_8C.html#a5739502b0a7a1ba782c01069f77e933f" target="_top" xlink:title="Fun4All_G4_EICDetector_RICH">
<polygon fill="none" stroke="#000000" points="723,-684.5 723,-704.5 890,-704.5 890,-684.5 723,-684.5"/>
<text text-anchor="middle" x="806.5" y="-691.5" font-family="FreeSans" font-size="10.00" fill="#000000">Fun4All_G4_EICDetector_RICH</text>
</a>
</g>
</g>
<!-- Node4&#45;&gt;Node27 -->
<g id="edge26" class="edge">
<title>Node4&#45;&gt;Node27</title>
<path fill="none" stroke="#191970" d="M619.4067,-822.6812C637.6141,-794.344 676.0259,-741.1044 723,-713.5 729.1525,-709.8845 735.9334,-706.9568 742.8907,-704.5861"/>
<polygon fill="#191970" stroke="#191970" points="616.3722,-820.9323 614.0234,-831.2635 622.3022,-824.6519 616.3722,-820.9323"/>
</g>
<!-- Node28 -->
<g id="node28" class="node">
<title>Node28</title>
<g id="a_node28"><a xlink:href="../../d9/d0e/Fun4All__G4__EICIR_8C.html#ac3543d1dd4a0abed3987d40939ee3f87" target="_top" xlink:title="Fun4All_G4_EICIR">
<polygon fill="none" stroke="#000000" points="754.5,-645.5 754.5,-665.5 858.5,-665.5 858.5,-645.5 754.5,-645.5"/>
<text text-anchor="middle" x="806.5" y="-652.5" font-family="FreeSans" font-size="10.00" fill="#000000">Fun4All_G4_EICIR</text>
</a>
</g>
</g>
<!-- Node4&#45;&gt;Node28 -->
<g id="edge27" class="edge">
<title>Node4&#45;&gt;Node28</title>
<path fill="none" stroke="#191970" d="M615.8759,-821.5822C630.9867,-786.0852 667.5464,-712.0922 723,-674.5 732.2295,-668.2433 743.2179,-664.0219 754.1425,-661.1802"/>
<polygon fill="#191970" stroke="#191970" points="612.4537,-820.7005 611.8778,-831.2796 618.9252,-823.3686 612.4537,-820.7005"/>
</g>
<!-- Node29 -->
<g id="node29" class="node">
<title>Node29</title>
<g id="a_node29"><a xlink:href="../../d7/d9e/Fun4All__G4__fsPHENIX_8C.html#af48911d394d2412e817583700f2bbee2" target="_top" xlink:title="Fun4All_G4_fsPHENIX">
<polygon fill="none" stroke="#000000" points="744.5,-606.5 744.5,-626.5 868.5,-626.5 868.5,-606.5 744.5,-606.5"/>
<text text-anchor="middle" x="806.5" y="-613.5" font-family="FreeSans" font-size="10.00" fill="#000000">Fun4All_G4_fsPHENIX</text>
</a>
</g>
</g>
<!-- Node4&#45;&gt;Node29 -->
<g id="edge28" class="edge">
<title>Node4&#45;&gt;Node29</title>
<path fill="none" stroke="#191970" d="M613.1513,-821.654C625.0043,-780.1342 658.2896,-683.9506 723,-635.5 729.3075,-630.7774 736.5823,-627.1959 744.1534,-624.4854"/>
<polygon fill="#191970" stroke="#191970" points="609.7474,-820.8328 610.48,-831.4022 616.4985,-822.6828 609.7474,-820.8328"/>
</g>
<!-- Node30 -->
<g id="node30" class="node">
<title>Node30</title>
<g id="a_node30"><a xlink:href="../../da/d2f/Fun4All__G4__fsPHENIX__FastSim_8C.html#a66fb850cae5fcaadda23b74a25ce4c9c" target="_top" xlink:title="Fun4All_G4_fsPHENIX\l_FastSim">
<polygon fill="none" stroke="#000000" points="744.5,-555.5 744.5,-587.5 868.5,-587.5 868.5,-555.5 744.5,-555.5"/>
<text text-anchor="start" x="752.5" y="-574.5" font-family="FreeSans" font-size="10.00" fill="#000000">Fun4All_G4_fsPHENIX</text>
<text text-anchor="middle" x="806.5" y="-562.5" font-family="FreeSans" font-size="10.00" fill="#000000">_FastSim</text>
</a>
</g>
</g>
<!-- Node4&#45;&gt;Node30 -->
<g id="edge29" class="edge">
<title>Node4&#45;&gt;Node30</title>
<path fill="none" stroke="#191970" d="M611.6814,-821.2476C621.25,-774.4866 651.324,-658.2851 723,-596.5 729.1893,-591.1648 736.4829,-586.968 744.1393,-583.6667"/>
<polygon fill="#191970" stroke="#191970" points="608.1943,-820.8444 609.7209,-831.3286 615.0655,-822.1807 608.1943,-820.8444"/>
</g>
<!-- Node31 -->
<g id="node31" class="node">
<title>Node31</title>
<g id="a_node31"><a xlink:href="../../d0/da6/Fun4All__G4__fsPHENIX__pi0_8C.html#a023d91d47b678e5d7f1751834aa517c6" target="_top" xlink:title="Fun4All_G4_fsPHENIX_pi0">
<polygon fill="none" stroke="#000000" points="734,-516.5 734,-536.5 879,-536.5 879,-516.5 734,-516.5"/>
<text text-anchor="middle" x="806.5" y="-523.5" font-family="FreeSans" font-size="10.00" fill="#000000">Fun4All_G4_fsPHENIX_pi0</text>
</a>
</g>
</g>
<!-- Node4&#45;&gt;Node31 -->
<g id="edge30" class="edge">
<title>Node4&#45;&gt;Node31</title>
<path fill="none" stroke="#191970" d="M609.5441,-821.1759C614.7734,-767.3237 636.6759,-619.9963 723,-545.5 727.1645,-541.9061 731.8694,-538.9542 736.8716,-536.5337"/>
<polygon fill="#191970" stroke="#191970" points="606.0298,-821.1873 608.6435,-831.4547 613.0031,-821.7984 606.0298,-821.1873"/>
</g>
<!-- Node32 -->
<g id="node32" class="node">
<title>Node32</title>
<g id="a_node32"><a xlink:href="../../df/de1/Fun4All__G4__IonGun_8C.html#ab4966a2ae337cb8f0e45f7ee488e33b7" target="_top" xlink:title="Fun4All_G4_IonGun">
<polygon fill="none" stroke="#000000" points="749.5,-477.5 749.5,-497.5 863.5,-497.5 863.5,-477.5 749.5,-477.5"/>
<text text-anchor="middle" x="806.5" y="-484.5" font-family="FreeSans" font-size="10.00" fill="#000000">Fun4All_G4_IonGun</text>
</a>
</g>
</g>
<!-- Node4&#45;&gt;Node32 -->
<g id="edge31" class="edge">
<title>Node4&#45;&gt;Node32</title>
<path fill="none" stroke="#191970" d="M612.2019,-821.4968C626.3191,-756.1446 673.9214,-550.5918 723,-506.5 730.4098,-499.8431 739.6606,-495.3692 749.281,-492.3916"/>
<polygon fill="#191970" stroke="#191970" points="608.7585,-820.8625 610.0942,-831.3728 615.6043,-822.3236 608.7585,-820.8625"/>
</g>
<!-- Node33 -->
<g id="node33" class="node">
<title>Node33</title>
<g id="a_node33"><a xlink:href="../../d5/d01/Fun4All__G4__LeadBrick_8C.html#a5fcd8843f8a815feb3b053eaabd60d41" target="_top" xlink:title="Fun4All_G4_LeadBrick">
<polygon fill="none" stroke="#000000" points="742.5,-438.5 742.5,-458.5 870.5,-458.5 870.5,-438.5 742.5,-438.5"/>
<text text-anchor="middle" x="806.5" y="-445.5" font-family="FreeSans" font-size="10.00" fill="#000000">Fun4All_G4_LeadBrick</text>
</a>
</g>
</g>
<!-- Node4&#45;&gt;Node33 -->
<g id="edge32" class="edge">
<title>Node4&#45;&gt;Node33</title>
<path fill="none" stroke="#191970" d="M611.5278,-821.0596C624.1381,-750.3195 669.113,-517.5111 723,-467.5 728.5576,-462.3422 735.2148,-458.4853 742.3129,-455.6158"/>
<polygon fill="#191970" stroke="#191970" points="608.0106,-820.8527 609.7267,-831.3076 614.9049,-822.0644 608.0106,-820.8527"/>
</g>
<!-- Node34 -->
<g id="node34" class="node">
<title>Node34</title>
<g id="a_node34"><a xlink:href="../../d9/d8f/Fun4All__G4__Momentum_8C.html#afbd7a4eecd7792e9216ce80b5514123e" target="_top" xlink:title="Fun4All_G4_Momentum">
<polygon fill="none" stroke="#000000" points="739,-399.5 739,-419.5 874,-419.5 874,-399.5 739,-399.5"/>
<text text-anchor="middle" x="806.5" y="-406.5" font-family="FreeSans" font-size="10.00" fill="#000000">Fun4All_G4_Momentum</text>
</a>
</g>
</g>
<!-- Node4&#45;&gt;Node34 -->
<g id="edge33" class="edge">
<title>Node4&#45;&gt;Node34</title>
<path fill="none" stroke="#191970" d="M610.8503,-821.3998C621.8767,-746.448 664.0712,-484.6753 723,-428.5 727.6272,-424.089 733.0558,-420.6237 738.8861,-417.911"/>
<polygon fill="#191970" stroke="#191970" points="607.3697,-821.0143 609.4006,-831.4127 614.2975,-822.0174 607.3697,-821.0143"/>
</g>
<!-- Node35 -->
<g id="node35" class="node">
<title>Node35</title>
<g id="a_node35"><a xlink:href="../../dc/d8e/Fun4All__G4__Prototype2_8C.html#a6b8f092c4f51be2938dd09c810ba6226" target="_top" xlink:title="Fun4All_G4_Prototype2">
<polygon fill="none" stroke="#000000" points="740,-360.5 740,-380.5 873,-380.5 873,-360.5 740,-360.5"/>
<text text-anchor="middle" x="806.5" y="-367.5" font-family="FreeSans" font-size="10.00" fill="#000000">Fun4All_G4_Prototype2</text>
</a>
</g>
</g>
<!-- Node4&#45;&gt;Node35 -->
<g id="edge34" class="edge">
<title>Node4&#45;&gt;Node35</title>
<path fill="none" stroke="#191970" d="M610.3765,-821.0745C620.0714,-741.2525 659.1737,-451.7252 723,-389.5 727.7904,-384.8298 733.4767,-381.2144 739.596,-378.4272"/>
<polygon fill="#191970" stroke="#191970" points="606.8686,-820.9339 609.1601,-831.2779 613.8194,-821.7626 606.8686,-820.9339"/>
</g>
<!-- Node36 -->
<g id="node36" class="node">
<title>Node36</title>
<g id="a_node36"><a xlink:href="../../d7/d40/Fun4All__G4__Prototype3_8C.html#a1201361263017b08a070777a0b90b27c" target="_top" xlink:title="Fun4All_G4_Prototype3">
<polygon fill="none" stroke="#000000" points="740,-321.5 740,-341.5 873,-341.5 873,-321.5 740,-321.5"/>
<text text-anchor="middle" x="806.5" y="-328.5" font-family="FreeSans" font-size="10.00" fill="#000000">Fun4All_G4_Prototype3</text>
</a>
</g>
</g>
<!-- Node4&#45;&gt;Node36 -->
<g id="edge35" class="edge">
<title>Node4&#45;&gt;Node36</title>
<path fill="none" stroke="#191970" d="M609.9209,-821.2219C618.2708,-737.373 654.1264,-418.9387 723,-350.5 727.8511,-345.6795 733.6548,-341.978 739.9122,-339.1488"/>
<polygon fill="#191970" stroke="#191970" points="606.4301,-820.9579 608.9432,-831.2503 613.3971,-821.6371 606.4301,-820.9579"/>
</g>
<!-- Node37 -->
<g id="node37" class="node">
<title>Node37</title>
<g id="a_node37"><a xlink:href="../../d4/d58/Fun4All__G4__Prototype4_8C.html#acac517f0728af658cbf99c7c9687c908" target="_top" xlink:title="Fun4All_G4_Prototype4">
<polygon fill="none" stroke="#000000" points="740,-282.5 740,-302.5 873,-302.5 873,-282.5 740,-282.5"/>
<text text-anchor="middle" x="806.5" y="-289.5" font-family="FreeSans" font-size="10.00" fill="#000000">Fun4All_G4_Prototype4</text>
</a>
</g>
</g>
<!-- Node4&#45;&gt;Node37 -->
<g id="edge36" class="edge">
<title>Node4&#45;&gt;Node37</title>
<path fill="none" stroke="#191970" d="M609.5376,-821.3242C616.6328,-733.5724 649.069,-386.179 723,-311.5 727.8114,-306.6399 733.5897,-302.913 739.8321,-300.0688"/>
<polygon fill="#191970" stroke="#191970" points="606.0462,-821.0779 608.7492,-831.3221 613.0246,-821.6282 606.0462,-821.0779"/>
</g>
<!-- Node38 -->
<g id="node38" class="node">
<title>Node38</title>
<g id="a_node38"><a xlink:href="../../d5/d2c/macros_2blob_2master_2macros_2g4simulations_2Fun4All__G4__sPHENIX_8C.html#a6eaaa492d7023ec86c562dc63aa1e5a4" target="_top" xlink:title="Fun4All_G4_sPHENIX">
<polygon fill="none" stroke="#000000" points="746,-243.5 746,-263.5 867,-263.5 867,-243.5 746,-243.5"/>
<text text-anchor="middle" x="806.5" y="-250.5" font-family="FreeSans" font-size="10.00" fill="#000000">Fun4All_G4_sPHENIX</text>
</a>
</g>
</g>
<!-- Node4&#45;&gt;Node38 -->
<g id="edge37" class="edge">
<title>Node4&#45;&gt;Node38</title>
<path fill="none" stroke="#191970" d="M609.2137,-821.333C615.1396,-729.6838 644.0192,-353.4248 723,-272.5 729.3343,-266.0098 737.3908,-261.5338 745.9892,-258.4807"/>
<polygon fill="#191970" stroke="#191970" points="605.7099,-821.2858 608.5772,-831.4853 612.6962,-821.7239 605.7099,-821.2858"/>
</g>
<!-- Node39 -->
<g id="node39" class="node">
<title>Node39</title>
<g id="a_node39"><a xlink:href="../../d3/de2/Fun4All__G4__sPHENIX__AnaGenFit_8C.html#a9bf3f2f72ed69a17e2d0c1121d48013c" target="_top" xlink:title="Fun4All_G4_sPHENIX\l_AnaGenFit">
<polygon fill="none" stroke="#000000" points="746,-192.5 746,-224.5 867,-224.5 867,-192.5 746,-192.5"/>
<text text-anchor="start" x="754" y="-211.5" font-family="FreeSans" font-size="10.00" fill="#000000">Fun4All_G4_sPHENIX</text>
<text text-anchor="middle" x="806.5" y="-199.5" font-family="FreeSans" font-size="10.00" fill="#000000">_AnaGenFit</text>
</a>
</g>
</g>
<!-- Node4&#45;&gt;Node39 -->
<g id="edge38" class="edge">
<title>Node4&#45;&gt;Node39</title>
<path fill="none" stroke="#191970" d="M609.0669,-821.295C614.4888,-726.1238 641.9761,-323.4185 723,-233.5 729.1791,-226.6426 737.1545,-221.6337 745.7192,-217.9817"/>
<polygon fill="#191970" stroke="#191970" points="605.5693,-821.1573 608.513,-831.335 612.5587,-821.543 605.5693,-821.1573"/>
</g>
<!-- Node40 -->
<g id="node40" class="node">
<title>Node40</title>
<g id="a_node40"><a xlink:href="../../da/dd0/Fun4All__G4__sPHENIX__photonjet_8C.html#a6f18519e216acc05399e562ea57ea77c" target="_top" xlink:title="Fun4All_G4_sPHENIX\l_photonjet">
<polygon fill="none" stroke="#000000" points="746,-141.5 746,-173.5 867,-173.5 867,-141.5 746,-141.5"/>
<text text-anchor="start" x="754" y="-160.5" font-family="FreeSans" font-size="10.00" fill="#000000">Fun4All_G4_sPHENIX</text>
<text text-anchor="middle" x="806.5" y="-148.5" font-family="FreeSans" font-size="10.00" fill="#000000">_photonjet</text>
</a>
</g>
</g>
<!-- Node4&#45;&gt;Node40 -->
<g id="edge39" class="edge">
<title>Node4&#45;&gt;Node40</title>
<path fill="none" stroke="#191970" d="M608.7478,-821.2223C612.839,-721.154 635.6372,-280.8454 723,-182.5 729.1304,-175.5989 737.0802,-170.5672 745.6344,-166.9058"/>
<polygon fill="#191970" stroke="#191970" points="605.2408,-821.3369 608.347,-831.4661 612.2354,-821.6106 605.2408,-821.3369"/>
</g>
<!-- Node41 -->
<g id="node41" class="node">
<title>Node41</title>
<g id="a_node41"><a xlink:href="../../da/d85/Fun4All__G4__sPHENIX__photons_8C.html#a02fbbd59878fe1299f58ed187e7214ba" target="_top" xlink:title="Fun4All_G4_sPHENIX\l_photons">
<polygon fill="none" stroke="#000000" points="746,-90.5 746,-122.5 867,-122.5 867,-90.5 746,-90.5"/>
<text text-anchor="start" x="754" y="-109.5" font-family="FreeSans" font-size="10.00" fill="#000000">Fun4All_G4_sPHENIX</text>
<text text-anchor="middle" x="806.5" y="-97.5" font-family="FreeSans" font-size="10.00" fill="#000000">_photons</text>
</a>
</g>
</g>
<!-- Node4&#45;&gt;Node41 -->
<g id="edge40" class="edge">
<title>Node4&#45;&gt;Node41</title>
<path fill="none" stroke="#191970" d="M608.4762,-820.992C611.3252,-715.8708 629.3274,-238.2518 723,-131.5 729.188,-124.448 737.2764,-119.3454 745.9817,-115.6616"/>
<polygon fill="#191970" stroke="#191970" points="604.972,-821.1188 608.2165,-831.2046 611.9697,-821.2968 604.972,-821.1188"/>
</g>
<!-- Node42 -->
<g id="node42" class="node">
<title>Node42</title>
<g id="a_node42"><a xlink:href="../../de/d55/Fun4All__G4__sPHENIX__truthphotonjet_8C.html#a48a6f4503eaa1b3793d8ae572aa795b9" target="_top" xlink:title="Fun4All_G4_sPHENIX\l_truthphotonjet">
<polygon fill="none" stroke="#000000" points="746,-39.5 746,-71.5 867,-71.5 867,-39.5 746,-39.5"/>
<text text-anchor="start" x="754" y="-58.5" font-family="FreeSans" font-size="10.00" fill="#000000">Fun4All_G4_sPHENIX</text>
<text text-anchor="middle" x="806.5" y="-46.5" font-family="FreeSans" font-size="10.00" fill="#000000">_truthphotonjet</text>
</a>
</g>
</g>
<!-- Node4&#45;&gt;Node42 -->
<g id="edge41" class="edge">
<title>Node4&#45;&gt;Node42</title>
<path fill="none" stroke="#191970" d="M608.2281,-821.2593C609.8608,-712.2655 622.8526,-195.8577 723,-80.5 729.1506,-73.4153 737.2196,-68.2959 745.9172,-64.6053"/>
<polygon fill="#191970" stroke="#191970" points="604.7284,-821.2183 608.094,-831.2643 611.7278,-821.3122 604.7284,-821.2183"/>
</g>
<!-- Node43 -->
<g id="node43" class="node">
<title>Node43</title>
<g id="a_node43"><a xlink:href="../../db/da1/Fun4All__G4__TPC_8C.html#af60bcd3cf09ebd567e28ede14e9e894a" target="_top" xlink:title="Fun4All_G4_TPC">
<polygon fill="none" stroke="#000000" points="758,-.5 758,-20.5 855,-20.5 855,-.5 758,-.5"/>
<text text-anchor="middle" x="806.5" y="-7.5" font-family="FreeSans" font-size="10.00" fill="#000000">Fun4All_G4_TPC</text>
</a>
</g>
</g>
<!-- Node4&#45;&gt;Node43 -->
<g id="edge42" class="edge">
<title>Node4&#45;&gt;Node43</title>
<path fill="none" stroke="#191970" d="M609.506,-821.209C618.5723,-701.4321 667.3696,-89.9533 723,-29.5 731.9598,-19.7635 744.7819,-14.5004 757.698,-11.7772"/>
<polygon fill="#191970" stroke="#191970" points="606.0122,-820.9964 608.7537,-831.2303 612.9925,-821.5204 606.0122,-820.9964"/>
</g>
<!-- Node46&#45;&gt;Node44 -->
<g id="edge46" class="edge">
<title>Node46&#45;&gt;Node44</title>
<path fill="none" stroke="#191970" d="M499.7295,-966.1087C509.4187,-964.9804 519.2312,-963.8376 528.7894,-962.7245"/>
<polygon fill="#191970" stroke="#191970" points="499.2208,-962.6442 489.6928,-967.2775 500.0306,-969.5972 499.2208,-962.6442"/>
</g>
<!-- Node48 -->
<g id="node48" class="node">
<title>Node48</title>
<g id="a_node48"><a xlink:href="../../d1/dec/classHcalRawTowerBuilder.html#a7905b60d52f4f69f900e45859a894533" target="_top" xlink:title="HcalRawTowerBuilder\l::InitRun">
<polygon fill="none" stroke="#000000" points="545.5,-1011.5 545.5,-1043.5 670.5,-1043.5 670.5,-1011.5 545.5,-1011.5"/>
<text text-anchor="start" x="553.5" y="-1030.5" font-family="FreeSans" font-size="10.00" fill="#000000">HcalRawTowerBuilder</text>
<text text-anchor="middle" x="608" y="-1018.5" font-family="FreeSans" font-size="10.00" fill="#000000">::InitRun</text>
</a>
</g>
</g>
<!-- Node47&#45;&gt;Node48 -->
<g id="edge48" class="edge">
<title>Node47&#45;&gt;Node48</title>
<path fill="none" stroke="#191970" d="M499.7193,-1027.5C515.0688,-1027.5 530.7284,-1027.5 545.196,-1027.5"/>
<polygon fill="#191970" stroke="#191970" points="499.6929,-1024.0001 489.6928,-1027.5 499.6928,-1031.0001 499.6929,-1024.0001"/>
</g>
<!-- Node49&#45;&gt;Node4 -->
<g id="edge51" class="edge">
<title>Node49&#45;&gt;Node4</title>
<path fill="none" stroke="#191970" d="M287.1128,-777.9319C341.9869,-764.2079 424.249,-750.9866 493,-770.5 535.2101,-782.4804 577.1161,-814.8427 596.6396,-831.4176"/>
<polygon fill="#191970" stroke="#191970" points="286.0023,-774.6038 277.1948,-780.4925 287.7522,-781.3815 286.0023,-774.6038"/>
</g>
<!-- Node50 -->
<g id="node50" class="node">
<title>Node50</title>
<g id="a_node50"><a xlink:href="../../da/d29/classFun4AllServer.html#a94738b092fa009fcea45737d8ea41224" target="_top" xlink:title="Fun4AllServer::process\l_event">
<polygon fill="none" stroke="#000000" points="344.5,-780.5 344.5,-812.5 476.5,-812.5 476.5,-780.5 344.5,-780.5"/>
<text text-anchor="start" x="352.5" y="-799.5" font-family="FreeSans" font-size="10.00" fill="#000000">Fun4AllServer::process</text>
<text text-anchor="middle" x="410.5" y="-787.5" font-family="FreeSans" font-size="10.00" fill="#000000">_event</text>
</a>
</g>
</g>
<!-- Node49&#45;&gt;Node50 -->
<g id="edge50" class="edge">
<title>Node49&#45;&gt;Node50</title>
<path fill="none" stroke="#191970" d="M302.1517,-796.5C316.1226,-796.5 330.6018,-796.5 344.2537,-796.5"/>
<polygon fill="#191970" stroke="#191970" points="302.0876,-793.0001 292.0876,-796.5 302.0876,-800.0001 302.0876,-793.0001"/>
</g>
</g>
</svg>
