<?xml version="1.0" encoding="UTF-8" standalone="no"?>
<!DOCTYPE svg PUBLIC "-//W3C//DTD SVG 1.1//EN"
 "http://www.w3.org/Graphics/SVG/1.1/DTD/svg11.dtd">
<!-- Generated by graphviz version 2.40.1 (20161225.0304)
 -->
<!-- Title: FEMCSetup Pages: 1 -->
<svg width="451pt" height="725pt"
 viewBox="0.00 0.00 451.00 725.00" xmlns="http://www.w3.org/2000/svg" xmlns:xlink="http://www.w3.org/1999/xlink">
<g id="graph0" class="graph" transform="scale(1 1) rotate(0) translate(4 721)">
<title>FEMCSetup</title>
<!-- Node1 -->
<g id="node1" class="node">
<title>Node1</title>
<polygon fill="#bfbfbf" stroke="#000000" points="0,-342.5 0,-362.5 74,-362.5 74,-342.5 0,-342.5"/>
<text text-anchor="middle" x="37" y="-349.5" font-family="FreeSans" font-size="10.00" fill="#000000">FEMCSetup</text>
</g>
<!-- Node2 -->
<g id="node2" class="node">
<title>Node2</title>
<g id="a_node2"><a xlink:href="../../d2/dfe/macros_2blob_2master_2macros_2g4simulations_2G4Setup__EICDetector_8C.html#a5d4cb2d19366a2ae6d2aefe8d2e4a870" target="_top" xlink:title="G4Setup">
<polygon fill="none" stroke="#000000" points="110,-342.5 110,-362.5 170,-362.5 170,-342.5 110,-342.5"/>
<text text-anchor="middle" x="140" y="-349.5" font-family="FreeSans" font-size="10.00" fill="#000000">G4Setup</text>
</a>
</g>
</g>
<!-- Node1&#45;&gt;Node2 -->
<g id="edge1" class="edge">
<title>Node1&#45;&gt;Node2</title>
<path fill="none" stroke="#191970" d="M84.2996,-352.5C93.0305,-352.5 101.9235,-352.5 109.9659,-352.5"/>
<polygon fill="#191970" stroke="#191970" points="84.1854,-349.0001 74.1854,-352.5 84.1853,-356.0001 84.1854,-349.0001"/>
</g>
<!-- Node3 -->
<g id="node3" class="node">
<title>Node3</title>
<g id="a_node3"><a xlink:href="../../d9/d0e/Fun4All__G4__EICIR_8C.html#ac3543d1dd4a0abed3987d40939ee3f87" target="_top" xlink:title="Fun4All_G4_EICIR">
<polygon fill="none" stroke="#000000" points="237.5,-696.5 237.5,-716.5 341.5,-716.5 341.5,-696.5 237.5,-696.5"/>
<text text-anchor="middle" x="289.5" y="-703.5" font-family="FreeSans" font-size="10.00" fill="#000000">Fun4All_G4_EICIR</text>
</a>
</g>
</g>
<!-- Node2&#45;&gt;Node3 -->
<g id="edge2" class="edge">
<title>Node2&#45;&gt;Node3</title>
<path fill="none" stroke="#191970" d="M141.1699,-372.7874C145.3581,-438.2039 161.7806,-641.9697 206,-687.5 214.2864,-696.032 225.548,-701.087 237.1163,-704.0049"/>
<polygon fill="#191970" stroke="#191970" points="144.6487,-372.3323 140.5444,-362.5648 137.6617,-372.7599 144.6487,-372.3323"/>
</g>
<!-- Node4 -->
<g id="node4" class="node">
<title>Node4</title>
<g id="a_node4"><a xlink:href="../../dd/d2a/Fun4All__G4__EICDetector__LQ_8C.html#aaa01242fd6e77ca43a9d49a6d46008e4" target="_top" xlink:title="Fun4All_G4_EICDetector_LQ">
<polygon fill="none" stroke="#000000" points="211.5,-657.5 211.5,-677.5 367.5,-677.5 367.5,-657.5 211.5,-657.5"/>
<text text-anchor="middle" x="289.5" y="-664.5" font-family="FreeSans" font-size="10.00" fill="#000000">Fun4All_G4_EICDetector_LQ</text>
</a>
</g>
</g>
<!-- Node2&#45;&gt;Node4 -->
<g id="edge3" class="edge">
<title>Node2&#45;&gt;Node4</title>
<path fill="none" stroke="#191970" d="M141.7381,-372.7509C147.3161,-432.9502 166.7381,-609.0669 206,-648.5 209.5665,-652.0821 213.6585,-655.0478 218.0736,-657.4977"/>
<polygon fill="#191970" stroke="#191970" points="145.2092,-372.2713 140.8305,-362.6237 138.2372,-372.8962 145.2092,-372.2713"/>
</g>
<!-- Node5 -->
<g id="node5" class="node">
<title>Node5</title>
<g id="a_node5"><a xlink:href="../../d4/df5/Fun4All__G4__EICDetector__LQ__reference_8C.html#a2feefc472f17f90b3cbe74897d049f75" target="_top" xlink:title="Fun4All_G4_EICDetector\l_LQ_reference">
<polygon fill="none" stroke="#000000" points="220,-606.5 220,-638.5 359,-638.5 359,-606.5 220,-606.5"/>
<text text-anchor="start" x="228" y="-625.5" font-family="FreeSans" font-size="10.00" fill="#000000">Fun4All_G4_EICDetector</text>
<text text-anchor="middle" x="289.5" y="-613.5" font-family="FreeSans" font-size="10.00" fill="#000000">_LQ_reference</text>
</a>
</g>
</g>
<!-- Node2&#45;&gt;Node5 -->
<g id="edge4" class="edge">
<title>Node2&#45;&gt;Node5</title>
<path fill="none" stroke="#191970" d="M142.9079,-372.8892C150.8246,-425.6684 174.3102,-564.9178 206,-597.5 210.0092,-601.6221 214.668,-605.0713 219.6952,-607.9566"/>
<polygon fill="#191970" stroke="#191970" points="146.3341,-372.1301 141.4196,-362.7441 139.4082,-373.1462 146.3341,-372.1301"/>
</g>
<!-- Node6 -->
<g id="node6" class="node">
<title>Node6</title>
<g id="a_node6"><a xlink:href="../../d0/d99/Jin__BJet_8C.html#a36169bfee2ed7efda633944d12aebad9" target="_top" xlink:title="Jin_BJet">
<polygon fill="none" stroke="#000000" points="262,-567.5 262,-587.5 317,-587.5 317,-567.5 262,-567.5"/>
<text text-anchor="middle" x="289.5" y="-574.5" font-family="FreeSans" font-size="10.00" fill="#000000">Jin_BJet</text>
</a>
</g>
</g>
<!-- Node2&#45;&gt;Node6 -->
<g id="edge5" class="edge">
<title>Node2&#45;&gt;Node6</title>
<path fill="none" stroke="#191970" d="M143.8009,-372.5124C153.0446,-419.1059 178.0079,-532.8256 206,-558.5 221.0103,-572.2675 243.8686,-576.7409 261.8763,-577.9249"/>
<polygon fill="#191970" stroke="#191970" points="147.2334,-371.8277 141.8873,-362.6806 140.3623,-373.1651 147.2334,-371.8277"/>
</g>
<!-- Node7 -->
<g id="node7" class="node">
<title>Node7</title>
<g id="a_node7"><a xlink:href="../../d3/d51/Fun4All__G4__EICDetector__RICH_8C.html#a5739502b0a7a1ba782c01069f77e933f" target="_top" xlink:title="Fun4All_G4_EICDetector_RICH">
<polygon fill="none" stroke="#000000" points="206,-528.5 206,-548.5 373,-548.5 373,-528.5 206,-528.5"/>
<text text-anchor="middle" x="289.5" y="-535.5" font-family="FreeSans" font-size="10.00" fill="#000000">Fun4All_G4_EICDetector_RICH</text>
</a>
</g>
</g>
<!-- Node2&#45;&gt;Node7 -->
<g id="edge6" class="edge">
<title>Node2&#45;&gt;Node7</title>
<path fill="none" stroke="#191970" d="M141.9709,-372.6693C146.5425,-408.014 161.1648,-481.0344 206,-519.5 210.1749,-523.0818 214.8873,-526.0251 219.8945,-528.4397"/>
<polygon fill="#191970" stroke="#191970" points="145.4337,-372.144 140.8143,-362.6092 138.4795,-372.9436 145.4337,-372.144"/>
</g>
<!-- Node8 -->
<g id="node8" class="node">
<title>Node8</title>
<g id="a_node8"><a xlink:href="../../d0/da6/Fun4All__G4__fsPHENIX__pi0_8C.html#a023d91d47b678e5d7f1751834aa517c6" target="_top" xlink:title="Fun4All_G4_fsPHENIX_pi0">
<polygon fill="none" stroke="#000000" points="217,-489.5 217,-509.5 362,-509.5 362,-489.5 217,-489.5"/>
<text text-anchor="middle" x="289.5" y="-496.5" font-family="FreeSans" font-size="10.00" fill="#000000">Fun4All_G4_fsPHENIX_pi0</text>
</a>
</g>
</g>
<!-- Node2&#45;&gt;Node8 -->
<g id="edge7" class="edge">
<title>Node2&#45;&gt;Node8</title>
<path fill="none" stroke="#191970" d="M144.6922,-372.7331C152.4081,-401.3078 170.5817,-453.0553 206,-480.5 210.5832,-484.0514 215.7079,-486.9617 221.1028,-489.3439"/>
<polygon fill="#191970" stroke="#191970" points="147.9981,-371.5288 142.1565,-362.6898 141.211,-373.2424 147.9981,-371.5288"/>
</g>
<!-- Node9 -->
<g id="node9" class="node">
<title>Node9</title>
<g id="a_node9"><a xlink:href="../../da/dd0/Fun4All__G4__sPHENIX__photonjet_8C.html#a6f18519e216acc05399e562ea57ea77c" target="_top" xlink:title="Fun4All_G4_sPHENIX\l_photonjet">
<polygon fill="none" stroke="#000000" points="229,-438.5 229,-470.5 350,-470.5 350,-438.5 229,-438.5"/>
<text text-anchor="start" x="237" y="-457.5" font-family="FreeSans" font-size="10.00" fill="#000000">Fun4All_G4_sPHENIX</text>
<text text-anchor="middle" x="289.5" y="-445.5" font-family="FreeSans" font-size="10.00" fill="#000000">_photonjet</text>
</a>
</g>
</g>
<!-- Node2&#45;&gt;Node9 -->
<g id="edge8" class="edge">
<title>Node2&#45;&gt;Node9</title>
<path fill="none" stroke="#191970" d="M151.5937,-371.4002C163.2682,-388.9049 182.8349,-414.4373 206,-429.5 212.9774,-434.037 220.8109,-437.7784 228.8106,-440.8567"/>
<polygon fill="#191970" stroke="#191970" points="154.2996,-369.1369 145.9472,-362.6187 148.4118,-372.9229 154.2996,-369.1369"/>
</g>
<!-- Node10 -->
<g id="node10" class="node">
<title>Node10</title>
<g id="a_node10"><a xlink:href="../../da/d85/Fun4All__G4__sPHENIX__photons_8C.html#a02fbbd59878fe1299f58ed187e7214ba" target="_top" xlink:title="Fun4All_G4_sPHENIX\l_photons">
<polygon fill="none" stroke="#000000" points="229,-387.5 229,-419.5 350,-419.5 350,-387.5 229,-387.5"/>
<text text-anchor="start" x="237" y="-406.5" font-family="FreeSans" font-size="10.00" fill="#000000">Fun4All_G4_sPHENIX</text>
<text text-anchor="middle" x="289.5" y="-394.5" font-family="FreeSans" font-size="10.00" fill="#000000">_photons</text>
</a>
</g>
</g>
<!-- Node2&#45;&gt;Node10 -->
<g id="edge9" class="edge">
<title>Node2&#45;&gt;Node10</title>
<path fill="none" stroke="#191970" d="M173.475,-366.3196C183.8336,-370.4248 195.3281,-374.8077 206,-378.5 214.8664,-381.5676 224.3358,-384.6157 233.5961,-387.4738"/>
<polygon fill="#191970" stroke="#191970" points="174.5398,-362.9757 163.9556,-362.5005 171.9333,-369.4724 174.5398,-362.9757"/>
</g>
<!-- Node11 -->
<g id="node11" class="node">
<title>Node11</title>
<g id="a_node11"><a xlink:href="../../de/d55/Fun4All__G4__sPHENIX__truthphotonjet_8C.html#a48a6f4503eaa1b3793d8ae572aa795b9" target="_top" xlink:title="Fun4All_G4_sPHENIX\l_truthphotonjet">
<polygon fill="none" stroke="#000000" points="229,-336.5 229,-368.5 350,-368.5 350,-336.5 229,-336.5"/>
<text text-anchor="start" x="237" y="-355.5" font-family="FreeSans" font-size="10.00" fill="#000000">Fun4All_G4_sPHENIX</text>
<text text-anchor="middle" x="289.5" y="-343.5" font-family="FreeSans" font-size="10.00" fill="#000000">_truthphotonjet</text>
</a>
</g>
</g>
<!-- Node2&#45;&gt;Node11 -->
<g id="edge10" class="edge">
<title>Node2&#45;&gt;Node11</title>
<path fill="none" stroke="#191970" d="M180.5966,-352.5C195.4176,-352.5 212.5204,-352.5 228.7162,-352.5"/>
<polygon fill="#191970" stroke="#191970" points="180.2536,-349.0001 170.2536,-352.5 180.2535,-356.0001 180.2536,-349.0001"/>
</g>
<!-- Node12 -->
<g id="node12" class="node">
<title>Node12</title>
<g id="a_node12"><a xlink:href="../../dd/db1/Wrapper_8cxx.html#abf1e42281903daa0752c80dd6c879fac" target="_top" xlink:title="Wrapper">
<polygon fill="none" stroke="#000000" points="259.5,-297.5 259.5,-317.5 319.5,-317.5 319.5,-297.5 259.5,-297.5"/>
<text text-anchor="middle" x="289.5" y="-304.5" font-family="FreeSans" font-size="10.00" fill="#000000">Wrapper</text>
</a>
</g>
</g>
<!-- Node2&#45;&gt;Node12 -->
<g id="edge11" class="edge">
<title>Node2&#45;&gt;Node12</title>
<path fill="none" stroke="#191970" d="M173.6502,-338.8107C183.9389,-334.8815 195.3506,-330.7778 206,-327.5 223.5238,-322.1063 243.4843,-317.2786 259.4946,-313.7182"/>
<polygon fill="#191970" stroke="#191970" points="172.2413,-335.6033 164.1915,-342.4918 174.7801,-342.1267 172.2413,-335.6033"/>
</g>
<!-- Node13 -->
<g id="node13" class="node">
<title>Node13</title>
<g id="a_node13"><a xlink:href="../../d3/d7f/Fun_8C.html#af0d3c8a78765149fef9b2beeecfc6279" target="_top" xlink:title="ConfigureDetectors">
<polygon fill="none" stroke="#000000" points="232.5,-258.5 232.5,-278.5 346.5,-278.5 346.5,-258.5 232.5,-258.5"/>
<text text-anchor="middle" x="289.5" y="-265.5" font-family="FreeSans" font-size="10.00" fill="#000000">ConfigureDetectors</text>
</a>
</g>
</g>
<!-- Node2&#45;&gt;Node13 -->
<g id="edge12" class="edge">
<title>Node2&#45;&gt;Node13</title>
<path fill="none" stroke="#191970" d="M154.0789,-334.2482C166.2715,-319.7022 185.1872,-299.9392 206,-288.5 214.0993,-284.0484 223.1732,-280.58 232.2746,-277.8796"/>
<polygon fill="#191970" stroke="#191970" points="151.2876,-332.1336 147.7135,-342.1074 156.7272,-336.5394 151.2876,-332.1336"/>
</g>
<!-- Node15 -->
<g id="node15" class="node">
<title>Node15</title>
<g id="a_node15"><a xlink:href="../../da/d2f/Fun4All__G4__fsPHENIX__FastSim_8C.html#a66fb850cae5fcaadda23b74a25ce4c9c" target="_top" xlink:title="Fun4All_G4_fsPHENIX\l_FastSim">
<polygon fill="none" stroke="#000000" points="227.5,-207.5 227.5,-239.5 351.5,-239.5 351.5,-207.5 227.5,-207.5"/>
<text text-anchor="start" x="235.5" y="-226.5" font-family="FreeSans" font-size="10.00" fill="#000000">Fun4All_G4_fsPHENIX</text>
<text text-anchor="middle" x="289.5" y="-214.5" font-family="FreeSans" font-size="10.00" fill="#000000">_FastSim</text>
</a>
</g>
</g>
<!-- Node2&#45;&gt;Node15 -->
<g id="edge14" class="edge">
<title>Node2&#45;&gt;Node15</title>
<path fill="none" stroke="#191970" d="M147.6255,-332.8364C157.6118,-309.6143 177.2934,-271.3862 206,-249.5 212.3993,-244.6211 219.7278,-240.648 227.3266,-237.4147"/>
<polygon fill="#191970" stroke="#191970" points="144.2849,-331.7575 143.7218,-342.3374 150.7597,-334.4179 144.2849,-331.7575"/>
</g>
<!-- Node16 -->
<g id="node16" class="node">
<title>Node16</title>
<g id="a_node16"><a xlink:href="../../d3/de2/Fun4All__G4__sPHENIX__AnaGenFit_8C.html#a9bf3f2f72ed69a17e2d0c1121d48013c" target="_top" xlink:title="Fun4All_G4_sPHENIX\l_AnaGenFit">
<polygon fill="none" stroke="#000000" points="229,-156.5 229,-188.5 350,-188.5 350,-156.5 229,-156.5"/>
<text text-anchor="start" x="237" y="-175.5" font-family="FreeSans" font-size="10.00" fill="#000000">Fun4All_G4_sPHENIX</text>
<text text-anchor="middle" x="289.5" y="-163.5" font-family="FreeSans" font-size="10.00" fill="#000000">_AnaGenFit</text>
</a>
</g>
</g>
<!-- Node2&#45;&gt;Node16 -->
<g id="edge15" class="edge">
<title>Node2&#45;&gt;Node16</title>
<path fill="none" stroke="#191970" d="M143.1761,-331.9403C149.3369,-299.0325 166.0034,-234.5743 206,-198.5 212.5393,-192.602 220.4015,-188.0419 228.6517,-184.5163"/>
<polygon fill="#191970" stroke="#191970" points="139.6631,-331.7171 141.4141,-342.1662 146.5614,-332.9058 139.6631,-331.7171"/>
</g>
<!-- Node17 -->
<g id="node17" class="node">
<title>Node17</title>
<g id="a_node17"><a xlink:href="../../d4/d65/Fun4All__single__particle_8C.html#a8a492b5dbead494bfdddbebde8a49b0e" target="_top" xlink:title="Fun4All_single_particle">
<polygon fill="none" stroke="#000000" points="223.5,-117.5 223.5,-137.5 355.5,-137.5 355.5,-117.5 223.5,-117.5"/>
<text text-anchor="middle" x="289.5" y="-124.5" font-family="FreeSans" font-size="10.00" fill="#000000">Fun4All_single_particle</text>
</a>
</g>
</g>
<!-- Node2&#45;&gt;Node17 -->
<g id="edge16" class="edge">
<title>Node2&#45;&gt;Node17</title>
<path fill="none" stroke="#191970" d="M143.8931,-332.3105C153.2557,-285.8036 178.317,-173.1454 206,-147.5 211.0302,-142.84 216.9487,-139.209 223.2739,-136.3875"/>
<polygon fill="#191970" stroke="#191970" points="140.4085,-331.8906 141.9047,-342.3792 147.2759,-333.2468 140.4085,-331.8906"/>
</g>
<!-- Node18 -->
<g id="node18" class="node">
<title>Node18</title>
<g id="a_node18"><a xlink:href="../../da/d02/Fun4All__G4__EICDetector_8C.html#afbe82cefa1d1fd031d9a8586b7bb68c6" target="_top" xlink:title="Fun4All_G4_EICDetector">
<polygon fill="none" stroke="#000000" points="220,-78.5 220,-98.5 359,-98.5 359,-78.5 220,-78.5"/>
<text text-anchor="middle" x="289.5" y="-85.5" font-family="FreeSans" font-size="10.00" fill="#000000">Fun4All_G4_EICDetector</text>
</a>
</g>
</g>
<!-- Node2&#45;&gt;Node18 -->
<g id="edge17" class="edge">
<title>Node2&#45;&gt;Node18</title>
<path fill="none" stroke="#191970" d="M142.8189,-332.0924C150.5186,-279.2807 173.5211,-140.0479 206,-108.5 210.1701,-104.4494 215.0076,-101.1688 220.2123,-98.5176"/>
<polygon fill="#191970" stroke="#191970" points="139.318,-331.8515 141.3735,-342.245 146.2481,-332.8382 139.318,-331.8515"/>
</g>
<!-- Node19 -->
<g id="node19" class="node">
<title>Node19</title>
<g id="a_node19"><a xlink:href="../../d7/d9e/Fun4All__G4__fsPHENIX_8C.html#af48911d394d2412e817583700f2bbee2" target="_top" xlink:title="Fun4All_G4_fsPHENIX">
<polygon fill="none" stroke="#000000" points="227.5,-39.5 227.5,-59.5 351.5,-59.5 351.5,-39.5 227.5,-39.5"/>
<text text-anchor="middle" x="289.5" y="-46.5" font-family="FreeSans" font-size="10.00" fill="#000000">Fun4All_G4_fsPHENIX</text>
</a>
</g>
</g>
<!-- Node2&#45;&gt;Node19 -->
<g id="edge18" class="edge">
<title>Node2&#45;&gt;Node19</title>
<path fill="none" stroke="#191970" d="M142.0097,-332.0106C148.1667,-273.4357 168.6545,-107.0692 206,-69.5 211.9901,-63.474 219.4524,-59.1399 227.4342,-56.0431"/>
<polygon fill="#191970" stroke="#191970" points="138.5014,-331.9148 140.9687,-342.2183 145.4653,-332.6251 138.5014,-331.9148"/>
</g>
<!-- Node20 -->
<g id="node20" class="node">
<title>Node20</title>
<g id="a_node20"><a xlink:href="../../d5/d2c/macros_2blob_2master_2macros_2g4simulations_2Fun4All__G4__sPHENIX_8C.html#a6eaaa492d7023ec86c562dc63aa1e5a4" target="_top" xlink:title="Fun4All_G4_sPHENIX">
<polygon fill="none" stroke="#000000" points="229,-.5 229,-20.5 350,-20.5 350,-.5 229,-.5"/>
<text text-anchor="middle" x="289.5" y="-7.5" font-family="FreeSans" font-size="10.00" fill="#000000">Fun4All_G4_sPHENIX</text>
</a>
</g>
</g>
<!-- Node2&#45;&gt;Node20 -->
<g id="edge19" class="edge">
<title>Node2&#45;&gt;Node20</title>
<path fill="none" stroke="#191970" d="M141.3705,-332.1734C146.0799,-268.4479 163.6998,-74.2163 206,-30.5 212.323,-23.9653 220.3737,-19.4092 228.9696,-16.2599"/>
<polygon fill="#191970" stroke="#191970" points="137.8772,-331.9566 140.6593,-342.1796 144.8596,-332.4529 137.8772,-331.9566"/>
</g>
<!-- Node14 -->
<g id="node14" class="node">
<title>Node14</title>
<g id="a_node14"><a xlink:href="../../d3/d7f/Fun_8C.html#af69a3eef3ff244bb51f5740c6ecb5432" target="_top" xlink:title="Fun">
<polygon fill="none" stroke="#000000" points="409,-258.5 409,-278.5 443,-278.5 443,-258.5 409,-258.5"/>
<text text-anchor="middle" x="426" y="-265.5" font-family="FreeSans" font-size="10.00" fill="#000000">Fun</text>
</a>
</g>
</g>
<!-- Node13&#45;&gt;Node14 -->
<g id="edge13" class="edge">
<title>Node13&#45;&gt;Node14</title>
<path fill="none" stroke="#191970" d="M356.6941,-268.5C376.0852,-268.5 395.59,-268.5 408.9452,-268.5"/>
<polygon fill="#191970" stroke="#191970" points="356.5974,-265.0001 346.5974,-268.5 356.5974,-272.0001 356.5974,-265.0001"/>
</g>
</g>
</svg>
