<?xml version="1.0" encoding="UTF-8" standalone="no"?>
<!DOCTYPE svg PUBLIC "-//W3C//DTD SVG 1.1//EN"
 "http://www.w3.org/Graphics/SVG/1.1/DTD/svg11.dtd">
<!-- Generated by graphviz version 2.40.1 (20161225.0304)
 -->
<!-- Title: FEMC_Eval Pages: 1 -->
<svg width="281pt" height="107pt"
 viewBox="0.00 0.00 281.00 107.00" xmlns="http://www.w3.org/2000/svg" xmlns:xlink="http://www.w3.org/1999/xlink">
<g id="graph0" class="graph" transform="scale(1 1) rotate(0) translate(4 103)">
<title>FEMC_Eval</title>
<!-- Node1 -->
<g id="node1" class="node">
<title>Node1</title>
<polygon fill="#bfbfbf" stroke="#000000" points="0,-39.5 0,-59.5 70,-59.5 70,-39.5 0,-39.5"/>
<text text-anchor="middle" x="35" y="-46.5" font-family="FreeSans" font-size="10.00" fill="#000000">FEMC_Eval</text>
</g>
<!-- Node2 -->
<g id="node2" class="node">
<title>Node2</title>
<g id="a_node2"><a xlink:href="../../da/d02/Fun4All__G4__EICDetector_8C.html#afbe82cefa1d1fd031d9a8586b7bb68c6" target="_top" xlink:title="Fun4All_G4_EICDetector">
<polygon fill="none" stroke="#000000" points="120,-78.5 120,-98.5 259,-98.5 259,-78.5 120,-78.5"/>
<text text-anchor="middle" x="189.5" y="-85.5" font-family="FreeSans" font-size="10.00" fill="#000000">Fun4All_G4_EICDetector</text>
</a>
</g>
</g>
<!-- Node1&#45;&gt;Node2 -->
<g id="edge1" class="edge">
<title>Node1&#45;&gt;Node2</title>
<path fill="none" stroke="#191970" d="M79.0387,-62.2808C87.9416,-64.7586 97.2534,-67.2745 106,-69.5 118.1027,-72.5794 131.2531,-75.6837 143.4607,-78.4648"/>
<polygon fill="#191970" stroke="#191970" points="79.7869,-58.8555 69.2127,-59.517 77.8915,-65.594 79.7869,-58.8555"/>
</g>
<!-- Node3 -->
<g id="node3" class="node">
<title>Node3</title>
<g id="a_node3"><a xlink:href="../../d3/d51/Fun4All__G4__EICDetector__RICH_8C.html#a5739502b0a7a1ba782c01069f77e933f" target="_top" xlink:title="Fun4All_G4_EICDetector_RICH">
<polygon fill="none" stroke="#000000" points="106,-39.5 106,-59.5 273,-59.5 273,-39.5 106,-39.5"/>
<text text-anchor="middle" x="189.5" y="-46.5" font-family="FreeSans" font-size="10.00" fill="#000000">Fun4All_G4_EICDetector_RICH</text>
</a>
</g>
</g>
<!-- Node1&#45;&gt;Node3 -->
<g id="edge2" class="edge">
<title>Node1&#45;&gt;Node3</title>
<path fill="none" stroke="#191970" d="M80.3071,-49.5C88.3796,-49.5 97.017,-49.5 105.766,-49.5"/>
<polygon fill="#191970" stroke="#191970" points="80.0585,-46.0001 70.0584,-49.5 80.0584,-53.0001 80.0585,-46.0001"/>
</g>
<!-- Node4 -->
<g id="node4" class="node">
<title>Node4</title>
<g id="a_node4"><a xlink:href="../../d5/d2c/macros_2blob_2master_2macros_2g4simulations_2Fun4All__G4__sPHENIX_8C.html#a6eaaa492d7023ec86c562dc63aa1e5a4" target="_top" xlink:title="Fun4All_G4_sPHENIX">
<polygon fill="none" stroke="#000000" points="129,-.5 129,-20.5 250,-20.5 250,-.5 129,-.5"/>
<text text-anchor="middle" x="189.5" y="-7.5" font-family="FreeSans" font-size="10.00" fill="#000000">Fun4All_G4_sPHENIX</text>
</a>
</g>
</g>
<!-- Node1&#45;&gt;Node4 -->
<g id="edge3" class="edge">
<title>Node1&#45;&gt;Node4</title>
<path fill="none" stroke="#191970" d="M80.191,-37.2153C88.7523,-34.9423 97.6433,-32.6186 106,-30.5 119.149,-27.1665 133.5008,-23.6758 146.5388,-20.5608"/>
<polygon fill="#191970" stroke="#191970" points="79.1024,-33.8832 70.3441,-39.8449 80.9086,-40.6462 79.1024,-33.8832"/>
</g>
</g>
</svg>
