<?xml version="1.0" encoding="UTF-8" standalone="no"?>
<!DOCTYPE svg PUBLIC "-//W3C//DTD SVG 1.1//EN"
 "http://www.w3.org/Graphics/SVG/1.1/DTD/svg11.dtd">
<!-- Generated by graphviz version 2.40.1 (20161225.0304)
 -->
<!-- Title: FEMC_Cells Pages: 1 -->
<svg width="284pt" height="326pt"
 viewBox="0.00 0.00 284.00 326.00" xmlns="http://www.w3.org/2000/svg" xmlns:xlink="http://www.w3.org/1999/xlink">
<g id="graph0" class="graph" transform="scale(1 1) rotate(0) translate(4 322)">
<title>FEMC_Cells</title>
<!-- Node1 -->
<g id="node1" class="node">
<title>Node1</title>
<polygon fill="#bfbfbf" stroke="#000000" points="0,-148.5 0,-168.5 73,-168.5 73,-148.5 0,-148.5"/>
<text text-anchor="middle" x="36.5" y="-155.5" font-family="FreeSans" font-size="10.00" fill="#000000">FEMC_Cells</text>
</g>
<!-- Node2 -->
<g id="node2" class="node">
<title>Node2</title>
<g id="a_node2"><a xlink:href="../../da/d02/Fun4All__G4__EICDetector_8C.html#afbe82cefa1d1fd031d9a8586b7bb68c6" target="_top" xlink:title="Fun4All_G4_EICDetector">
<polygon fill="none" stroke="#000000" points="123,-297.5 123,-317.5 262,-317.5 262,-297.5 123,-297.5"/>
<text text-anchor="middle" x="192.5" y="-304.5" font-family="FreeSans" font-size="10.00" fill="#000000">Fun4All_G4_EICDetector</text>
</a>
</g>
</g>
<!-- Node1&#45;&gt;Node2 -->
<g id="edge1" class="edge">
<title>Node1&#45;&gt;Node2</title>
<path fill="none" stroke="#191970" d="M41.8988,-178.2679C50.8477,-207.1476 71.5866,-260.475 109,-288.5 113.7596,-292.0652 119.0704,-294.9802 124.644,-297.3611"/>
<polygon fill="#191970" stroke="#191970" points="45.2074,-177.1122 39.0361,-168.5002 38.4899,-179.0809 45.2074,-177.1122"/>
</g>
<!-- Node3 -->
<g id="node3" class="node">
<title>Node3</title>
<g id="a_node3"><a xlink:href="../../dd/d2a/Fun4All__G4__EICDetector__LQ_8C.html#aaa01242fd6e77ca43a9d49a6d46008e4" target="_top" xlink:title="Fun4All_G4_EICDetector_LQ">
<polygon fill="none" stroke="#000000" points="114.5,-258.5 114.5,-278.5 270.5,-278.5 270.5,-258.5 114.5,-258.5"/>
<text text-anchor="middle" x="192.5" y="-265.5" font-family="FreeSans" font-size="10.00" fill="#000000">Fun4All_G4_EICDetector_LQ</text>
</a>
</g>
</g>
<!-- Node1&#45;&gt;Node3 -->
<g id="edge2" class="edge">
<title>Node1&#45;&gt;Node3</title>
<path fill="none" stroke="#191970" d="M46.4211,-177.4878C58.3888,-198.4517 80.5016,-231.5971 109,-249.5 114.791,-253.1379 121.1968,-256.0819 127.8096,-258.464"/>
<polygon fill="#191970" stroke="#191970" points="49.3955,-175.6329 41.5134,-168.5531 43.2602,-179.003 49.3955,-175.6329"/>
</g>
<!-- Node4 -->
<g id="node4" class="node">
<title>Node4</title>
<g id="a_node4"><a xlink:href="../../d4/df5/Fun4All__G4__EICDetector__LQ__reference_8C.html#a2feefc472f17f90b3cbe74897d049f75" target="_top" xlink:title="Fun4All_G4_EICDetector\l_LQ_reference">
<polygon fill="none" stroke="#000000" points="123,-207.5 123,-239.5 262,-239.5 262,-207.5 123,-207.5"/>
<text text-anchor="start" x="131" y="-226.5" font-family="FreeSans" font-size="10.00" fill="#000000">Fun4All_G4_EICDetector</text>
<text text-anchor="middle" x="192.5" y="-214.5" font-family="FreeSans" font-size="10.00" fill="#000000">_LQ_reference</text>
</a>
</g>
</g>
<!-- Node1&#45;&gt;Node4 -->
<g id="edge3" class="edge">
<title>Node1&#45;&gt;Node4</title>
<path fill="none" stroke="#191970" d="M61.2361,-173.8719C74.9527,-181.95 92.5231,-191.5815 109,-198.5 116.6737,-201.7221 124.9044,-204.7137 133.0984,-207.4251"/>
<polygon fill="#191970" stroke="#191970" points="62.7921,-170.7238 52.4165,-168.5798 59.1905,-176.7262 62.7921,-170.7238"/>
</g>
<!-- Node5 -->
<g id="node5" class="node">
<title>Node5</title>
<g id="a_node5"><a xlink:href="../../d3/d51/Fun4All__G4__EICDetector__RICH_8C.html#a5739502b0a7a1ba782c01069f77e933f" target="_top" xlink:title="Fun4All_G4_EICDetector_RICH">
<polygon fill="none" stroke="#000000" points="109,-168.5 109,-188.5 276,-188.5 276,-168.5 109,-168.5"/>
<text text-anchor="middle" x="192.5" y="-175.5" font-family="FreeSans" font-size="10.00" fill="#000000">Fun4All_G4_EICDetector_RICH</text>
</a>
</g>
</g>
<!-- Node1&#45;&gt;Node5 -->
<g id="edge4" class="edge">
<title>Node1&#45;&gt;Node5</title>
<path fill="none" stroke="#191970" d="M83.0476,-164.4676C92.9306,-165.7347 103.6229,-167.1055 114.3197,-168.4769"/>
<polygon fill="#191970" stroke="#191970" points="83.439,-160.9893 73.0751,-163.1891 82.5488,-167.9324 83.439,-160.9893"/>
</g>
<!-- Node6 -->
<g id="node6" class="node">
<title>Node6</title>
<g id="a_node6"><a xlink:href="../../d7/d9e/Fun4All__G4__fsPHENIX_8C.html#af48911d394d2412e817583700f2bbee2" target="_top" xlink:title="Fun4All_G4_fsPHENIX">
<polygon fill="none" stroke="#000000" points="130.5,-129.5 130.5,-149.5 254.5,-149.5 254.5,-129.5 130.5,-129.5"/>
<text text-anchor="middle" x="192.5" y="-136.5" font-family="FreeSans" font-size="10.00" fill="#000000">Fun4All_G4_fsPHENIX</text>
</a>
</g>
</g>
<!-- Node1&#45;&gt;Node6 -->
<g id="edge5" class="edge">
<title>Node1&#45;&gt;Node6</title>
<path fill="none" stroke="#191970" d="M83.0069,-152.8357C97.8213,-151.0314 114.4573,-149.0052 130.2028,-147.0875"/>
<polygon fill="#191970" stroke="#191970" points="82.5785,-149.3619 73.0751,-154.0453 83.4249,-156.3106 82.5785,-149.3619"/>
</g>
<!-- Node7 -->
<g id="node7" class="node">
<title>Node7</title>
<g id="a_node7"><a xlink:href="../../da/d2f/Fun4All__G4__fsPHENIX__FastSim_8C.html#a66fb850cae5fcaadda23b74a25ce4c9c" target="_top" xlink:title="Fun4All_G4_fsPHENIX\l_FastSim">
<polygon fill="none" stroke="#000000" points="130.5,-78.5 130.5,-110.5 254.5,-110.5 254.5,-78.5 130.5,-78.5"/>
<text text-anchor="start" x="138.5" y="-97.5" font-family="FreeSans" font-size="10.00" fill="#000000">Fun4All_G4_fsPHENIX</text>
<text text-anchor="middle" x="192.5" y="-85.5" font-family="FreeSans" font-size="10.00" fill="#000000">_FastSim</text>
</a>
</g>
</g>
<!-- Node1&#45;&gt;Node7 -->
<g id="edge6" class="edge">
<title>Node1&#45;&gt;Node7</title>
<path fill="none" stroke="#191970" d="M62.444,-143.4393C76.0278,-135.9323 93.1029,-127.0777 109,-120.5 117.558,-116.959 126.7785,-113.6293 135.86,-110.6112"/>
<polygon fill="#191970" stroke="#191970" points="60.6592,-140.4274 53.6549,-148.3767 64.0877,-146.5304 60.6592,-140.4274"/>
</g>
<!-- Node8 -->
<g id="node8" class="node">
<title>Node8</title>
<g id="a_node8"><a xlink:href="../../d0/da6/Fun4All__G4__fsPHENIX__pi0_8C.html#a023d91d47b678e5d7f1751834aa517c6" target="_top" xlink:title="Fun4All_G4_fsPHENIX_pi0">
<polygon fill="none" stroke="#000000" points="120,-39.5 120,-59.5 265,-59.5 265,-39.5 120,-39.5"/>
<text text-anchor="middle" x="192.5" y="-46.5" font-family="FreeSans" font-size="10.00" fill="#000000">Fun4All_G4_fsPHENIX_pi0</text>
</a>
</g>
</g>
<!-- Node1&#45;&gt;Node8 -->
<g id="edge7" class="edge">
<title>Node1&#45;&gt;Node8</title>
<path fill="none" stroke="#191970" d="M46.7511,-139.6695C58.8888,-119.2037 81.0331,-87.0787 109,-69.5 115.5627,-65.375 122.9045,-62.1006 130.4381,-59.5014"/>
<polygon fill="#191970" stroke="#191970" points="43.6779,-137.9931 41.7539,-148.4118 49.7552,-141.467 43.6779,-137.9931"/>
</g>
<!-- Node9 -->
<g id="node9" class="node">
<title>Node9</title>
<g id="a_node9"><a xlink:href="../../d5/d2c/macros_2blob_2master_2macros_2g4simulations_2Fun4All__G4__sPHENIX_8C.html#a6eaaa492d7023ec86c562dc63aa1e5a4" target="_top" xlink:title="Fun4All_G4_sPHENIX">
<polygon fill="none" stroke="#000000" points="132,-.5 132,-20.5 253,-20.5 253,-.5 132,-.5"/>
<text text-anchor="middle" x="192.5" y="-7.5" font-family="FreeSans" font-size="10.00" fill="#000000">Fun4All_G4_sPHENIX</text>
</a>
</g>
</g>
<!-- Node1&#45;&gt;Node9 -->
<g id="edge8" class="edge">
<title>Node1&#45;&gt;Node9</title>
<path fill="none" stroke="#191970" d="M42.1638,-138.6664C51.3491,-110.1991 72.2714,-58.148 109,-30.5 115.7884,-25.39 123.6934,-21.564 131.8812,-18.7035"/>
<polygon fill="#191970" stroke="#191970" points="38.7885,-137.7356 39.2097,-148.322 45.4822,-139.7836 38.7885,-137.7356"/>
</g>
</g>
</svg>
