<?xml version="1.0" encoding="UTF-8" standalone="no"?>
<!DOCTYPE svg PUBLIC "-//W3C//DTD SVG 1.1//EN"
 "http://www.w3.org/Graphics/SVG/1.1/DTD/svg11.dtd">
<!-- Generated by graphviz version 2.40.1 (20161225.0304)
 -->
<!-- Title: Fun4AllHistoManager::dumpHistos Pages: 1 -->
<svg width="534pt" height="838pt"
 viewBox="0.00 0.00 534.00 838.00" xmlns="http://www.w3.org/2000/svg" xmlns:xlink="http://www.w3.org/1999/xlink">
<g id="graph0" class="graph" transform="scale(1 1) rotate(0) translate(4 834)">
<title>Fun4AllHistoManager::dumpHistos</title>
<!-- Node1 -->
<g id="node1" class="node">
<title>Node1</title>
<polygon fill="#bfbfbf" stroke="#000000" points="0,-452.5 0,-484.5 124,-484.5 124,-452.5 0,-452.5"/>
<text text-anchor="start" x="8" y="-471.5" font-family="FreeSans" font-size="10.00" fill="#000000">Fun4AllHistoManager</text>
<text text-anchor="middle" x="62" y="-459.5" font-family="FreeSans" font-size="10.00" fill="#000000">::dumpHistos</text>
</g>
<!-- Node2 -->
<g id="node2" class="node">
<title>Node2</title>
<g id="a_node2"><a xlink:href="../../d9/d2f/classG4RawTowerTTree.html#a67df6d7987ce69b6adaeae0ef46f7053" target="_top" xlink:title="Called at the end of all processing.">
<polygon fill="none" stroke="#000000" points="191.5,-809.5 191.5,-829.5 325.5,-829.5 325.5,-809.5 191.5,-809.5"/>
<text text-anchor="middle" x="258.5" y="-816.5" font-family="FreeSans" font-size="10.00" fill="#000000">G4RawTowerTTree::End</text>
</a>
</g>
</g>
<!-- Node1&#45;&gt;Node2 -->
<g id="edge1" class="edge">
<title>Node1&#45;&gt;Node2</title>
<path fill="none" stroke="#191970" d="M66.184,-494.8315C77.9933,-565.7979 113.7521,-758.5118 160,-800.5 168.7682,-808.4606 179.8281,-813.5327 191.3436,-816.6892"/>
<polygon fill="#191970" stroke="#191970" points="69.5669,-493.8316 64.4964,-484.5289 62.659,-494.9632 69.5669,-493.8316"/>
</g>
<!-- Node3 -->
<g id="node3" class="node">
<title>Node3</title>
<g id="a_node3"><a xlink:href="../../de/d31/classG4ScintillatorSlatTTree.html#a3f357637e30f0ccea328a61f59efc2ec" target="_top" xlink:title="Called at the end of all processing.">
<polygon fill="none" stroke="#000000" points="180,-770.5 180,-790.5 337,-790.5 337,-770.5 180,-770.5"/>
<text text-anchor="middle" x="258.5" y="-777.5" font-family="FreeSans" font-size="10.00" fill="#000000">G4ScintillatorSlatTTree::End</text>
</a>
</g>
</g>
<!-- Node1&#45;&gt;Node3 -->
<g id="edge2" class="edge">
<title>Node1&#45;&gt;Node3</title>
<path fill="none" stroke="#191970" d="M67.1778,-494.3611C80.6476,-559.0465 118.624,-725.2625 160,-761.5 165.7647,-766.5488 172.4576,-770.4233 179.5893,-773.3781"/>
<polygon fill="#191970" stroke="#191970" points="70.6013,-493.6325 65.1597,-484.5419 63.7446,-495.0418 70.6013,-493.6325"/>
</g>
<!-- Node4 -->
<g id="node4" class="node">
<title>Node4</title>
<g id="a_node4"><a xlink:href="../../db/d3d/classG4ScintillatorTowerTTree.html#a67e8f799dcf0ea59f6a36d9fc1f0b61c" target="_top" xlink:title="Called at the end of all processing.">
<polygon fill="none" stroke="#000000" points="175,-731.5 175,-751.5 342,-751.5 342,-731.5 175,-731.5"/>
<text text-anchor="middle" x="258.5" y="-738.5" font-family="FreeSans" font-size="10.00" fill="#000000">G4ScintillatorTowerTTree::End</text>
</a>
</g>
</g>
<!-- Node1&#45;&gt;Node4 -->
<g id="edge3" class="edge">
<title>Node1&#45;&gt;Node4</title>
<path fill="none" stroke="#191970" d="M63.9887,-494.7226C69.4224,-546.7999 89.2584,-663.3299 160,-722.5 164.542,-726.2991 169.6151,-729.4242 174.9979,-731.9873"/>
<polygon fill="#191970" stroke="#191970" points="67.4604,-494.2581 63.0346,-484.6319 60.4915,-494.917 67.4604,-494.2581"/>
</g>
<!-- Node5 -->
<g id="node5" class="node">
<title>Node5</title>
<g id="a_node5"><a xlink:href="../../d2/d1c/classG4HitTTree.html#a5a339bb6759892af2cfbdf2ef2a47e60" target="_top" xlink:title="Called at the end of all processing.">
<polygon fill="none" stroke="#000000" points="209.5,-692.5 209.5,-712.5 307.5,-712.5 307.5,-692.5 209.5,-692.5"/>
<text text-anchor="middle" x="258.5" y="-699.5" font-family="FreeSans" font-size="10.00" fill="#000000">G4HitTTree::End</text>
</a>
</g>
</g>
<!-- Node1&#45;&gt;Node5 -->
<g id="edge4" class="edge">
<title>Node1&#45;&gt;Node5</title>
<path fill="none" stroke="#191970" d="M65.9993,-494.5461C74.4936,-540.4276 98.8252,-635.3484 160,-683.5 173.8904,-694.4334 192.2504,-699.6837 209.352,-702.0388"/>
<polygon fill="#191970" stroke="#191970" points="69.4147,-493.7575 64.2509,-484.5062 62.5185,-494.9585 69.4147,-493.7575"/>
</g>
<!-- Node6 -->
<g id="node6" class="node">
<title>Node6</title>
<g id="a_node6"><a xlink:href="../../dd/d0c/classCaloAna.html#a2dfde85ee58d7d8543b74d0ce426e309" target="_top" xlink:title="end of run method">
<polygon fill="none" stroke="#000000" points="216.5,-653.5 216.5,-673.5 300.5,-673.5 300.5,-653.5 216.5,-653.5"/>
<text text-anchor="middle" x="258.5" y="-660.5" font-family="FreeSans" font-size="10.00" fill="#000000">CaloAna::End</text>
</a>
</g>
</g>
<!-- Node1&#45;&gt;Node6 -->
<g id="edge5" class="edge">
<title>Node1&#45;&gt;Node6</title>
<path fill="none" stroke="#191970" d="M68.8523,-494.5742C80.5735,-533.7333 108.3614,-607.1143 160,-644.5 176.0819,-656.1431 197.3737,-661.1843 216.0463,-663.1946"/>
<polygon fill="#191970" stroke="#191970" points="72.1478,-493.3687 66.0275,-484.7205 65.4188,-495.2978 72.1478,-493.3687"/>
</g>
<!-- Node7 -->
<g id="node7" class="node">
<title>Node7</title>
<g id="a_node7"><a xlink:href="../../d7/d71/classG4EdepNtuple.html#ac5133792693282fdd1938cfd26c9ce60" target="_top" xlink:title="end of run method">
<polygon fill="none" stroke="#000000" points="201,-614.5 201,-634.5 316,-634.5 316,-614.5 201,-614.5"/>
<text text-anchor="middle" x="258.5" y="-621.5" font-family="FreeSans" font-size="10.00" fill="#000000">G4EdepNtuple::End</text>
</a>
</g>
</g>
<!-- Node1&#45;&gt;Node7 -->
<g id="edge6" class="edge">
<title>Node1&#45;&gt;Node7</title>
<path fill="none" stroke="#191970" d="M72.9631,-494.11C87.8549,-525.6254 117.5733,-578.2935 160,-605.5 172.095,-613.256 186.6241,-617.9862 200.7623,-620.8355"/>
<polygon fill="#191970" stroke="#191970" points="75.993,-492.3193 68.6518,-484.6801 69.6268,-495.23 75.993,-492.3193"/>
</g>
<!-- Node8 -->
<g id="node8" class="node">
<title>Node8</title>
<g id="a_node8"><a xlink:href="../../dc/d81/classG4TowerNtuple.html#ac786a5e17a714c39747294b30b6d799c" target="_top" xlink:title="end of run method">
<polygon fill="none" stroke="#000000" points="199,-575.5 199,-595.5 318,-595.5 318,-575.5 199,-575.5"/>
<text text-anchor="middle" x="258.5" y="-582.5" font-family="FreeSans" font-size="10.00" fill="#000000">G4TowerNtuple::End</text>
</a>
</g>
</g>
<!-- Node1&#45;&gt;Node8 -->
<g id="edge7" class="edge">
<title>Node1&#45;&gt;Node8</title>
<path fill="none" stroke="#191970" d="M79.381,-492.8239C97.0216,-515.5923 126.4552,-548.6948 160,-566.5 171.8451,-572.7873 185.4758,-577.0112 198.7464,-579.8444"/>
<polygon fill="#191970" stroke="#191970" points="82.0331,-490.5279 73.2135,-484.657 76.447,-494.7464 82.0331,-490.5279"/>
</g>
<!-- Node9 -->
<g id="node9" class="node">
<title>Node9</title>
<g id="a_node9"><a xlink:href="../../d0/d39/classG4CellNtuple.html#a8fa0c15f7364ad0c3f090267a509ed43" target="_top" xlink:title="end of run method">
<polygon fill="none" stroke="#000000" points="204,-536.5 204,-556.5 313,-556.5 313,-536.5 204,-536.5"/>
<text text-anchor="middle" x="258.5" y="-543.5" font-family="FreeSans" font-size="10.00" fill="#000000">G4CellNtuple::End</text>
</a>
</g>
</g>
<!-- Node1&#45;&gt;Node9 -->
<g id="edge8" class="edge">
<title>Node1&#45;&gt;Node9</title>
<path fill="none" stroke="#191970" d="M92.1805,-490.4865C110.8639,-503.1023 135.8291,-518.2295 160,-527.5 173.8218,-532.8012 189.3242,-536.6767 203.8673,-539.4889"/>
<polygon fill="#191970" stroke="#191970" points="94.0248,-487.5069 83.8045,-484.7148 90.0529,-493.271 94.0248,-487.5069"/>
</g>
<!-- Node10 -->
<g id="node10" class="node">
<title>Node10</title>
<g id="a_node10"><a xlink:href="../../d4/db8/classG4HitNtuple.html#ae648e6f0ce7d547571efed08a99c9c0e" target="_top" xlink:title="end of run method">
<polygon fill="none" stroke="#000000" points="206.5,-497.5 206.5,-517.5 310.5,-517.5 310.5,-497.5 206.5,-497.5"/>
<text text-anchor="middle" x="258.5" y="-504.5" font-family="FreeSans" font-size="10.00" fill="#000000">G4HitNtuple::End</text>
</a>
</g>
</g>
<!-- Node1&#45;&gt;Node10 -->
<g id="edge9" class="edge">
<title>Node1&#45;&gt;Node10</title>
<path fill="none" stroke="#191970" d="M134.0173,-483.2895C142.7679,-485.0593 151.585,-486.8298 160,-488.5 175.0328,-491.4837 191.3697,-494.6613 206.3378,-497.5468"/>
<polygon fill="#191970" stroke="#191970" points="134.6871,-479.8541 124.191,-481.297 133.296,-486.7145 134.6871,-479.8541"/>
</g>
<!-- Node11 -->
<g id="node11" class="node">
<title>Node11</title>
<g id="a_node11"><a xlink:href="../../d1/ddd/classG4SnglNtuple.html#af0cd6b6ada60b23bba7901cfef6240eb" target="_top" xlink:title="end of run method">
<polygon fill="none" stroke="#000000" points="202.5,-458.5 202.5,-478.5 314.5,-478.5 314.5,-458.5 202.5,-458.5"/>
<text text-anchor="middle" x="258.5" y="-465.5" font-family="FreeSans" font-size="10.00" fill="#000000">G4SnglNtuple::End</text>
</a>
</g>
</g>
<!-- Node1&#45;&gt;Node11 -->
<g id="edge10" class="edge">
<title>Node1&#45;&gt;Node11</title>
<path fill="none" stroke="#191970" d="M134.3382,-468.5C156.7991,-468.5 181.2057,-468.5 202.3882,-468.5"/>
<polygon fill="#191970" stroke="#191970" points="134.1739,-465.0001 124.1738,-468.5 134.1738,-472.0001 134.1739,-465.0001"/>
</g>
<!-- Node12 -->
<g id="node12" class="node">
<title>Node12</title>
<g id="a_node12"><a xlink:href="../../d8/d5c/classEdepNtuple.html#a3847388b5ca20643b45241e17e976741" target="_top" xlink:title="end of run method">
<polygon fill="none" stroke="#000000" points="208,-419.5 208,-439.5 309,-439.5 309,-419.5 208,-419.5"/>
<text text-anchor="middle" x="258.5" y="-426.5" font-family="FreeSans" font-size="10.00" fill="#000000">EdepNtuple::End</text>
</a>
</g>
</g>
<!-- Node1&#45;&gt;Node12 -->
<g id="edge11" class="edge">
<title>Node1&#45;&gt;Node12</title>
<path fill="none" stroke="#191970" d="M134.145,-454.1812C158.6326,-449.321 185.4528,-443.9979 207.8964,-439.5435"/>
<polygon fill="#191970" stroke="#191970" points="133.3011,-450.7803 124.1738,-456.1602 134.6639,-457.6464 133.3011,-450.7803"/>
</g>
<!-- Node13 -->
<g id="node13" class="node">
<title>Node13</title>
<g id="a_node13"><a xlink:href="../../df/d62/classShowerSize.html#a819ecb79c646e1baba8ca5c7d9e0cf6e" target="_top" xlink:title="end of run method">
<polygon fill="none" stroke="#000000" points="208.5,-380.5 208.5,-400.5 308.5,-400.5 308.5,-380.5 208.5,-380.5"/>
<text text-anchor="middle" x="258.5" y="-387.5" font-family="FreeSans" font-size="10.00" fill="#000000">ShowerSize::End</text>
</a>
</g>
</g>
<!-- Node1&#45;&gt;Node13 -->
<g id="edge12" class="edge">
<title>Node1&#45;&gt;Node13</title>
<path fill="none" stroke="#191970" d="M92.6389,-446.7432C111.3111,-434.4275 136.1071,-419.6947 160,-410.5 175.3083,-404.609 192.6549,-400.3476 208.4791,-397.3134"/>
<polygon fill="#191970" stroke="#191970" points="90.6007,-443.896 84.2562,-452.3811 94.5074,-449.7045 90.6007,-443.896"/>
</g>
<!-- Node14 -->
<g id="node14" class="node">
<title>Node14</title>
<g id="a_node14"><a xlink:href="../../df/d1c/classTowerTiming.html#a9aa3a111f63d8f4a217cce5424905548" target="_top" xlink:title="end of run method">
<polygon fill="none" stroke="#000000" points="205,-341.5 205,-361.5 312,-361.5 312,-341.5 205,-341.5"/>
<text text-anchor="middle" x="258.5" y="-348.5" font-family="FreeSans" font-size="10.00" fill="#000000">TowerTiming::End</text>
</a>
</g>
</g>
<!-- Node1&#45;&gt;Node14 -->
<g id="edge13" class="edge">
<title>Node1&#45;&gt;Node14</title>
<path fill="none" stroke="#191970" d="M79.7741,-444.1188C97.5155,-421.6502 126.8544,-389.1921 160,-371.5 173.7006,-364.187 189.7802,-359.5416 204.9287,-356.5927"/>
<polygon fill="#191970" stroke="#191970" points="76.8873,-442.131 73.5586,-452.1894 82.4332,-446.4022 76.8873,-442.131"/>
</g>
<!-- Node15 -->
<g id="node15" class="node">
<title>Node15</title>
<g id="a_node15"><a xlink:href="../../dc/dbd/classTimingNtuple.html#a01b462c161120cb944952aa3809831ad" target="_top" xlink:title="end of run method">
<polygon fill="none" stroke="#000000" points="203,-302.5 203,-322.5 314,-322.5 314,-302.5 203,-302.5"/>
<text text-anchor="middle" x="258.5" y="-309.5" font-family="FreeSans" font-size="10.00" fill="#000000">TimingNtuple::End</text>
</a>
</g>
</g>
<!-- Node1&#45;&gt;Node15 -->
<g id="edge14" class="edge">
<title>Node1&#45;&gt;Node15</title>
<path fill="none" stroke="#191970" d="M73.0561,-443.1411C88.0445,-411.9224 117.8634,-359.7081 160,-332.5 172.6802,-324.3122 188.0371,-319.3742 202.8142,-316.4246"/>
<polygon fill="#191970" stroke="#191970" points="69.7559,-441.9374 68.714,-452.4809 76.1035,-444.8885 69.7559,-441.9374"/>
</g>
<!-- Node16 -->
<g id="node16" class="node">
<title>Node16</title>
<g id="a_node16"><a xlink:href="../../d2/d9c/classHijingShowerSize.html#a2387f3a36daa0175cafc1c6136d6c8ed" target="_top" xlink:title="end of run method">
<polygon fill="none" stroke="#000000" points="193.5,-263.5 193.5,-283.5 323.5,-283.5 323.5,-263.5 193.5,-263.5"/>
<text text-anchor="middle" x="258.5" y="-270.5" font-family="FreeSans" font-size="10.00" fill="#000000">HijingShowerSize::End</text>
</a>
</g>
</g>
<!-- Node1&#45;&gt;Node16 -->
<g id="edge15" class="edge">
<title>Node1&#45;&gt;Node16</title>
<path fill="none" stroke="#191970" d="M69.018,-442.3844C80.9005,-403.4643 108.8315,-330.8324 160,-293.5 169.7971,-286.3521 181.5345,-281.6111 193.4366,-278.4972"/>
<polygon fill="#191970" stroke="#191970" points="65.5336,-441.8301 66.0861,-452.4105 72.2522,-443.7948 65.5336,-441.8301"/>
</g>
<!-- Node17 -->
<g id="node17" class="node">
<title>Node17</title>
<g id="a_node17"><a xlink:href="../../d7/d34/classSigmaTimingNtuple.html#a7790cae11b0120462165b76dc7c12b83" target="_top" xlink:title="end of run method">
<polygon fill="none" stroke="#000000" points="187.5,-224.5 187.5,-244.5 329.5,-244.5 329.5,-224.5 187.5,-224.5"/>
<text text-anchor="middle" x="258.5" y="-231.5" font-family="FreeSans" font-size="10.00" fill="#000000">SigmaTimingNtuple::End</text>
</a>
</g>
</g>
<!-- Node1&#45;&gt;Node17 -->
<g id="edge16" class="edge">
<title>Node1&#45;&gt;Node17</title>
<path fill="none" stroke="#191970" d="M66.1487,-442.2973C74.8349,-396.593 99.4014,-302.5923 160,-254.5 167.996,-248.1542 177.4811,-243.6643 187.3573,-240.5134"/>
<polygon fill="#191970" stroke="#191970" points="62.6733,-441.8493 64.3554,-452.3097 69.5636,-443.0834 62.6733,-441.8493"/>
</g>
<!-- Node18 -->
<g id="node18" class="node">
<title>Node18</title>
<g id="a_node18"><a xlink:href="../../da/daf/classJetHepMCLoader.html#a94e00de614efb99e2fb5551a2e47e116" target="_top" xlink:title="Called at the end of all processing.">
<polygon fill="none" stroke="#000000" points="195.5,-185.5 195.5,-205.5 321.5,-205.5 321.5,-185.5 195.5,-185.5"/>
<text text-anchor="middle" x="258.5" y="-192.5" font-family="FreeSans" font-size="10.00" fill="#000000">JetHepMCLoader::End</text>
</a>
</g>
</g>
<!-- Node1&#45;&gt;Node18 -->
<g id="edge17" class="edge">
<title>Node1&#45;&gt;Node18</title>
<path fill="none" stroke="#191970" d="M64.0721,-442.4362C69.6563,-390.664 89.7503,-274.7645 160,-215.5 170.0031,-207.0612 182.5993,-201.8503 195.4107,-198.7004"/>
<polygon fill="#191970" stroke="#191970" points="60.5812,-442.173 63.0879,-452.467 67.5478,-442.8566 60.5812,-442.173"/>
</g>
<!-- Node19 -->
<g id="node19" class="node">
<title>Node19</title>
<g id="a_node19"><a xlink:href="../../d5/d60/analysis_2blob_2master_2HF-Jet_2TruthGeneration_2macros_2Fun4All__G4__sPHENIX_8C.html#a9a881c27e3822a95643d09c2fd73009e" target="_top" xlink:title="Fun4All_G4_sPHENIX">
<polygon fill="none" stroke="#000000" points="399,-156.5 399,-176.5 520,-176.5 520,-156.5 399,-156.5"/>
<text text-anchor="middle" x="459.5" y="-163.5" font-family="FreeSans" font-size="10.00" fill="#000000">Fun4All_G4_sPHENIX</text>
</a>
</g>
</g>
<!-- Node1&#45;&gt;Node19 -->
<g id="edge18" class="edge">
<title>Node1&#45;&gt;Node19</title>
<path fill="none" stroke="#191970" d="M66.8694,-442.3284C79.6139,-376.9259 116.0252,-209.2538 160,-176.5 239.275,-117.4535 365.8535,-140.5457 425.8513,-156.3773"/>
<polygon fill="#191970" stroke="#191970" points="63.411,-441.7791 64.9638,-452.2595 70.2856,-443.0982 63.411,-441.7791"/>
</g>
<!-- Node20 -->
<g id="node20" class="node">
<title>Node20</title>
<g id="a_node20"><a xlink:href="../../d8/db5/namespaceQAHistManagerDef.html#aa4c4b65716047fdf03fed1d19f802be7" target="_top" xlink:title="Save hist to root files.">
<polygon fill="none" stroke="#000000" points="160,-97.5 160,-117.5 357,-117.5 357,-97.5 160,-97.5"/>
<text text-anchor="middle" x="258.5" y="-104.5" font-family="FreeSans" font-size="10.00" fill="#000000">QAHistManagerDef::saveQARootFile</text>
</a>
</g>
</g>
<!-- Node1&#45;&gt;Node20 -->
<g id="edge19" class="edge">
<title>Node1&#45;&gt;Node20</title>
<path fill="none" stroke="#191970" d="M66.775,-442.0406C79.8076,-372.4817 117.8435,-186.792 160,-142.5 171.3232,-130.6031 186.9505,-122.7437 202.4235,-117.5538"/>
<polygon fill="#191970" stroke="#191970" points="63.279,-441.698 64.9012,-452.1679 70.1622,-442.9716 63.279,-441.698"/>
</g>
<!-- Node20&#45;&gt;Node19 -->
<g id="edge21" class="edge">
<title>Node20&#45;&gt;Node19</title>
<path fill="none" stroke="#191970" d="M301.5986,-120.4459C327.9706,-128.3355 362.4109,-138.5819 393,-147.5 403.0287,-150.4238 413.9213,-153.5547 423.9325,-156.4143"/>
<polygon fill="#191970" stroke="#191970" points="302.4949,-117.0608 291.9111,-117.5452 300.4869,-123.7666 302.4949,-117.0608"/>
</g>
<!-- Node21 -->
<g id="node21" class="node">
<title>Node21</title>
<g id="a_node21"><a xlink:href="../../da/db5/Fun4All__G4__W_8C.html#ad4745423f42356b6b3cb65bbbc1e917e" target="_top" xlink:title="Fun4All_G4_W">
<polygon fill="none" stroke="#000000" points="415.5,-117.5 415.5,-137.5 503.5,-137.5 503.5,-117.5 415.5,-117.5"/>
<text text-anchor="middle" x="459.5" y="-124.5" font-family="FreeSans" font-size="10.00" fill="#000000">Fun4All_G4_W</text>
</a>
</g>
</g>
<!-- Node20&#45;&gt;Node21 -->
<g id="edge20" class="edge">
<title>Node20&#45;&gt;Node21</title>
<path fill="none" stroke="#191970" d="M367.2926,-118.3251C384.3396,-120.0213 401.0662,-121.6857 415.4926,-123.1212"/>
<polygon fill="#191970" stroke="#191970" points="367.5309,-114.8316 357.2335,-117.3242 366.8378,-121.7973 367.5309,-114.8316"/>
</g>
<!-- Node22 -->
<g id="node22" class="node">
<title>Node22</title>
<g id="a_node22"><a xlink:href="../../dc/d8e/Fun4All__G4__Prototype2_8C.html#a6b8f092c4f51be2938dd09c810ba6226" target="_top" xlink:title="Fun4All_G4_Prototype2">
<polygon fill="none" stroke="#000000" points="393,-78.5 393,-98.5 526,-98.5 526,-78.5 393,-78.5"/>
<text text-anchor="middle" x="459.5" y="-85.5" font-family="FreeSans" font-size="10.00" fill="#000000">Fun4All_G4_Prototype2</text>
</a>
</g>
</g>
<!-- Node20&#45;&gt;Node22 -->
<g id="edge22" class="edge">
<title>Node20&#45;&gt;Node22</title>
<path fill="none" stroke="#191970" d="M367.4457,-97.2017C376.1252,-96.3812 384.7201,-95.5687 392.969,-94.789"/>
<polygon fill="#191970" stroke="#191970" points="366.8597,-93.7414 357.2335,-98.167 367.5185,-100.7103 366.8597,-93.7414"/>
</g>
<!-- Node23 -->
<g id="node23" class="node">
<title>Node23</title>
<g id="a_node23"><a xlink:href="../../d7/d40/Fun4All__G4__Prototype3_8C.html#a1201361263017b08a070777a0b90b27c" target="_top" xlink:title="Fun4All_G4_Prototype3">
<polygon fill="none" stroke="#000000" points="393,-39.5 393,-59.5 526,-59.5 526,-39.5 393,-39.5"/>
<text text-anchor="middle" x="459.5" y="-46.5" font-family="FreeSans" font-size="10.00" fill="#000000">Fun4All_G4_Prototype3</text>
</a>
</g>
</g>
<!-- Node20&#45;&gt;Node23 -->
<g id="edge23" class="edge">
<title>Node20&#45;&gt;Node23</title>
<path fill="none" stroke="#191970" d="M303.4267,-94.5361C340.0219,-83.9763 390.9563,-69.2788 424.5531,-59.5842"/>
<polygon fill="#191970" stroke="#191970" points="302.1491,-91.2618 293.5115,-97.3972 304.0899,-97.9874 302.1491,-91.2618"/>
</g>
<!-- Node24 -->
<g id="node24" class="node">
<title>Node24</title>
<g id="a_node24"><a xlink:href="../../d4/d58/Fun4All__G4__Prototype4_8C.html#acac517f0728af658cbf99c7c9687c908" target="_top" xlink:title="Fun4All_G4_Prototype4">
<polygon fill="none" stroke="#000000" points="393,-.5 393,-20.5 526,-20.5 526,-.5 393,-.5"/>
<text text-anchor="middle" x="459.5" y="-7.5" font-family="FreeSans" font-size="10.00" fill="#000000">Fun4All_G4_Prototype4</text>
</a>
</g>
</g>
<!-- Node20&#45;&gt;Node24 -->
<g id="edge24" class="edge">
<title>Node20&#45;&gt;Node24</title>
<path fill="none" stroke="#191970" d="M281.6334,-91.6966C307.7243,-74.4513 351.8891,-46.9742 393,-29.5 400.9562,-26.1182 409.6973,-23.1357 418.1525,-20.5955"/>
<polygon fill="#191970" stroke="#191970" points="279.5631,-88.8705 273.1932,-97.3366 283.4523,-94.6906 279.5631,-88.8705"/>
</g>
</g>
</svg>
