<?xml version="1.0" encoding="UTF-8" standalone="no"?>
<!DOCTYPE svg PUBLIC "-//W3C//DTD SVG 1.1//EN"
 "http://www.w3.org/Graphics/SVG/1.1/DTD/svg11.dtd">
<!-- Generated by graphviz version 2.40.1 (20161225.0304)
 -->
<!-- Title: RawClusterBuilderTemplate::Detector Pages: 1 -->
<svg width="590pt" height="686pt"
 viewBox="0.00 0.00 590.00 686.00" xmlns="http://www.w3.org/2000/svg" xmlns:xlink="http://www.w3.org/1999/xlink">
<g id="graph0" class="graph" transform="scale(1 1) rotate(0) translate(4 682)">
<title>RawClusterBuilderTemplate::Detector</title>
<!-- Node1 -->
<g id="node1" class="node">
<title>Node1</title>
<polygon fill="#bfbfbf" stroke="#000000" points="0,-322.5 0,-354.5 155,-354.5 155,-322.5 0,-322.5"/>
<text text-anchor="start" x="8" y="-341.5" font-family="FreeSans" font-size="10.00" fill="#000000">RawClusterBuilderTemplate</text>
<text text-anchor="middle" x="77.5" y="-329.5" font-family="FreeSans" font-size="10.00" fill="#000000">::Detector</text>
</g>
<!-- Node2 -->
<g id="node2" class="node">
<title>Node2</title>
<g id="a_node2"><a xlink:href="../../d8/d4c/G4__CEmc__EIC_8C.html#a494d0a819d301d395ff322741e9543e0" target="_top" xlink:title="CEMC_Clusters">
<polygon fill="none" stroke="#000000" points="204.5,-367.5 204.5,-387.5 295.5,-387.5 295.5,-367.5 204.5,-367.5"/>
<text text-anchor="middle" x="250" y="-374.5" font-family="FreeSans" font-size="10.00" fill="#000000">CEMC_Clusters</text>
</a>
</g>
</g>
<!-- Node1&#45;&gt;Node2 -->
<g id="edge1" class="edge">
<title>Node1&#45;&gt;Node2</title>
<path fill="none" stroke="#191970" d="M158.6836,-356.8545C174.8673,-360.5135 191.2896,-364.2264 205.661,-367.4755"/>
<polygon fill="#191970" stroke="#191970" points="159.1839,-353.3794 148.6583,-354.588 157.6402,-360.2071 159.1839,-353.3794"/>
</g>
<!-- Node20 -->
<g id="node20" class="node">
<title>Node20</title>
<g id="a_node20"><a xlink:href="../../d7/dc0/G4__HcalIn__EIC_8C.html#af9c91eac780c08b08ebf2397019ec066" target="_top" xlink:title="HCALInner_Clusters">
<polygon fill="none" stroke="#000000" points="192,-328.5 192,-348.5 308,-348.5 308,-328.5 192,-328.5"/>
<text text-anchor="middle" x="250" y="-335.5" font-family="FreeSans" font-size="10.00" fill="#000000">HCALInner_Clusters</text>
</a>
</g>
</g>
<!-- Node1&#45;&gt;Node20 -->
<g id="edge19" class="edge">
<title>Node1&#45;&gt;Node20</title>
<path fill="none" stroke="#191970" d="M165.3267,-338.5C174.3314,-338.5 183.3132,-338.5 191.8793,-338.5"/>
<polygon fill="#191970" stroke="#191970" points="165.1714,-335.0001 155.1713,-338.5 165.1713,-342.0001 165.1714,-335.0001"/>
</g>
<!-- Node21 -->
<g id="node21" class="node">
<title>Node21</title>
<g id="a_node21"><a xlink:href="../../de/d3d/macros_2blob_2master_2macros_2g4simulations_2G4__HcalOut__ref_8C.html#a844046e9070953c2567bb9569eb81bd8" target="_top" xlink:title="HCALOuter_Clusters">
<polygon fill="none" stroke="#000000" points="191,-289.5 191,-309.5 309,-309.5 309,-289.5 191,-289.5"/>
<text text-anchor="middle" x="250" y="-296.5" font-family="FreeSans" font-size="10.00" fill="#000000">HCALOuter_Clusters</text>
</a>
</g>
</g>
<!-- Node1&#45;&gt;Node21 -->
<g id="edge36" class="edge">
<title>Node1&#45;&gt;Node21</title>
<path fill="none" stroke="#191970" d="M158.6836,-320.1455C174.8673,-316.4865 191.2896,-312.7736 205.661,-309.5245"/>
<polygon fill="#191970" stroke="#191970" points="157.6402,-316.7929 148.6583,-322.412 159.1839,-323.6206 157.6402,-316.7929"/>
</g>
<!-- Node3 -->
<g id="node3" class="node">
<title>Node3</title>
<g id="a_node3"><a xlink:href="../../d3/d7f/Fun_8C.html#af0d3c8a78765149fef9b2beeecfc6279" target="_top" xlink:title="ConfigureDetectors">
<polygon fill="none" stroke="#000000" points="371.5,-387.5 371.5,-407.5 485.5,-407.5 485.5,-387.5 371.5,-387.5"/>
<text text-anchor="middle" x="428.5" y="-394.5" font-family="FreeSans" font-size="10.00" fill="#000000">ConfigureDetectors</text>
</a>
</g>
</g>
<!-- Node2&#45;&gt;Node3 -->
<g id="edge2" class="edge">
<title>Node2&#45;&gt;Node3</title>
<path fill="none" stroke="#191970" d="M305.5041,-383.7189C326.3965,-386.0598 350.182,-388.7249 371.2321,-391.0834"/>
<polygon fill="#191970" stroke="#191970" points="305.8325,-380.2339 295.5049,-382.5986 305.053,-387.1904 305.8325,-380.2339"/>
</g>
<!-- Node5 -->
<g id="node5" class="node">
<title>Node5</title>
<g id="a_node5"><a xlink:href="../../da/d02/Fun4All__G4__EICDetector_8C.html#afbe82cefa1d1fd031d9a8586b7bb68c6" target="_top" xlink:title="Fun4All_G4_EICDetector">
<polygon fill="none" stroke="#000000" points="359,-348.5 359,-368.5 498,-368.5 498,-348.5 359,-348.5"/>
<text text-anchor="middle" x="428.5" y="-355.5" font-family="FreeSans" font-size="10.00" fill="#000000">Fun4All_G4_EICDetector</text>
</a>
</g>
</g>
<!-- Node2&#45;&gt;Node5 -->
<g id="edge4" class="edge">
<title>Node2&#45;&gt;Node5</title>
<path fill="none" stroke="#191970" d="M305.7035,-371.5708C322.5105,-369.7818 341.1749,-367.7951 358.7743,-365.9218"/>
<polygon fill="#191970" stroke="#191970" points="305.0783,-368.1175 295.5049,-372.6563 305.8193,-375.0781 305.0783,-368.1175"/>
</g>
<!-- Node6 -->
<g id="node6" class="node">
<title>Node6</title>
<g id="a_node6"><a xlink:href="../../dd/d2a/Fun4All__G4__EICDetector__LQ_8C.html#aaa01242fd6e77ca43a9d49a6d46008e4" target="_top" xlink:title="Fun4All_G4_EICDetector_LQ">
<polygon fill="none" stroke="#000000" points="350.5,-309.5 350.5,-329.5 506.5,-329.5 506.5,-309.5 350.5,-309.5"/>
<text text-anchor="middle" x="428.5" y="-316.5" font-family="FreeSans" font-size="10.00" fill="#000000">Fun4All_G4_EICDetector_LQ</text>
</a>
</g>
</g>
<!-- Node2&#45;&gt;Node6 -->
<g id="edge5" class="edge">
<title>Node2&#45;&gt;Node6</title>
<path fill="none" stroke="#191970" d="M292.27,-364.0833C297.9478,-362.0164 303.6535,-359.7998 309,-357.5 325.6194,-350.3512 328.0344,-344.783 345,-338.5 354.4804,-334.989 364.8158,-332.0027 374.8831,-329.51"/>
<polygon fill="#191970" stroke="#191970" points="291.0832,-360.7905 282.8096,-367.4085 293.4045,-367.3944 291.0832,-360.7905"/>
</g>
<!-- Node7 -->
<g id="node7" class="node">
<title>Node7</title>
<g id="a_node7"><a xlink:href="../../d4/df5/Fun4All__G4__EICDetector__LQ__reference_8C.html#a2feefc472f17f90b3cbe74897d049f75" target="_top" xlink:title="Fun4All_G4_EICDetector\l_LQ_reference">
<polygon fill="none" stroke="#000000" points="359,-258.5 359,-290.5 498,-290.5 498,-258.5 359,-258.5"/>
<text text-anchor="start" x="367" y="-277.5" font-family="FreeSans" font-size="10.00" fill="#000000">Fun4All_G4_EICDetector</text>
<text text-anchor="middle" x="428.5" y="-265.5" font-family="FreeSans" font-size="10.00" fill="#000000">_LQ_reference</text>
</a>
</g>
</g>
<!-- Node2&#45;&gt;Node7 -->
<g id="edge6" class="edge">
<title>Node2&#45;&gt;Node7</title>
<path fill="none" stroke="#191970" d="M301.088,-362.8226C303.8752,-361.2231 306.5383,-359.4546 309,-357.5 332.7608,-338.6342 320.9042,-317.936 345,-299.5 349.4467,-296.0978 354.3523,-293.1568 359.4912,-290.6147"/>
<polygon fill="#191970" stroke="#191970" points="299.2777,-359.813 291.859,-367.377 302.3755,-366.0902 299.2777,-359.813"/>
</g>
<!-- Node8 -->
<g id="node8" class="node">
<title>Node8</title>
<g id="a_node8"><a xlink:href="../../d3/d51/Fun4All__G4__EICDetector__RICH_8C.html#a5739502b0a7a1ba782c01069f77e933f" target="_top" xlink:title="Fun4All_G4_EICDetector_RICH">
<polygon fill="none" stroke="#000000" points="345,-219.5 345,-239.5 512,-239.5 512,-219.5 345,-219.5"/>
<text text-anchor="middle" x="428.5" y="-226.5" font-family="FreeSans" font-size="10.00" fill="#000000">Fun4All_G4_EICDetector_RICH</text>
</a>
</g>
</g>
<!-- Node2&#45;&gt;Node8 -->
<g id="edge7" class="edge">
<title>Node2&#45;&gt;Node8</title>
<path fill="none" stroke="#191970" d="M303.6904,-362.0608C305.5781,-360.6696 307.3598,-359.1531 309,-357.5 344.9338,-321.2837 307.2479,-282.8168 345,-248.5 348.9604,-244.8999 353.4583,-241.9367 358.264,-239.5023"/>
<polygon fill="#191970" stroke="#191970" points="301.6021,-359.2329 294.8444,-367.3928 305.2157,-365.228 301.6021,-359.2329"/>
</g>
<!-- Node9 -->
<g id="node9" class="node">
<title>Node9</title>
<g id="a_node9"><a xlink:href="../../d7/d9e/Fun4All__G4__fsPHENIX_8C.html#af48911d394d2412e817583700f2bbee2" target="_top" xlink:title="Fun4All_G4_fsPHENIX">
<polygon fill="none" stroke="#000000" points="366.5,-180.5 366.5,-200.5 490.5,-200.5 490.5,-180.5 366.5,-180.5"/>
<text text-anchor="middle" x="428.5" y="-187.5" font-family="FreeSans" font-size="10.00" fill="#000000">Fun4All_G4_fsPHENIX</text>
</a>
</g>
</g>
<!-- Node2&#45;&gt;Node9 -->
<g id="edge8" class="edge">
<title>Node2&#45;&gt;Node9</title>
<path fill="none" stroke="#191970" d="M304.4739,-361.737C306.086,-360.4351 307.6033,-359.0257 309,-357.5 354.7109,-307.5677 296.7772,-257.0108 345,-209.5 350.9307,-203.6569 358.2623,-199.4609 366.0981,-196.4712"/>
<polygon fill="#191970" stroke="#191970" points="302.2336,-359.0179 295.743,-367.3919 306.039,-364.8932 302.2336,-359.0179"/>
</g>
<!-- Node10 -->
<g id="node10" class="node">
<title>Node10</title>
<g id="a_node10"><a xlink:href="../../da/d2f/Fun4All__G4__fsPHENIX__FastSim_8C.html#a66fb850cae5fcaadda23b74a25ce4c9c" target="_top" xlink:title="Fun4All_G4_fsPHENIX\l_FastSim">
<polygon fill="none" stroke="#000000" points="366.5,-129.5 366.5,-161.5 490.5,-161.5 490.5,-129.5 366.5,-129.5"/>
<text text-anchor="start" x="374.5" y="-148.5" font-family="FreeSans" font-size="10.00" fill="#000000">Fun4All_G4_fsPHENIX</text>
<text text-anchor="middle" x="428.5" y="-136.5" font-family="FreeSans" font-size="10.00" fill="#000000">_FastSim</text>
</a>
</g>
</g>
<!-- Node2&#45;&gt;Node10 -->
<g id="edge9" class="edge">
<title>Node2&#45;&gt;Node10</title>
<path fill="none" stroke="#191970" d="M304.0692,-362.235C305.843,-360.7962 307.4985,-359.2221 309,-357.5 364.6223,-293.7065 288.241,-233.2843 345,-170.5 350.8858,-163.9894 358.3907,-159.1456 366.479,-155.5476"/>
<polygon fill="#191970" stroke="#191970" points="302.1183,-359.3286 295.6448,-367.7159 305.9357,-365.1961 302.1183,-359.3286"/>
</g>
<!-- Node11 -->
<g id="node11" class="node">
<title>Node11</title>
<g id="a_node11"><a xlink:href="../../d0/da6/Fun4All__G4__fsPHENIX__pi0_8C.html#a023d91d47b678e5d7f1751834aa517c6" target="_top" xlink:title="Fun4All_G4_fsPHENIX_pi0">
<polygon fill="none" stroke="#000000" points="356,-90.5 356,-110.5 501,-110.5 501,-90.5 356,-90.5"/>
<text text-anchor="middle" x="428.5" y="-97.5" font-family="FreeSans" font-size="10.00" fill="#000000">Fun4All_G4_fsPHENIX_pi0</text>
</a>
</g>
</g>
<!-- Node2&#45;&gt;Node11 -->
<g id="edge10" class="edge">
<title>Node2&#45;&gt;Node11</title>
<path fill="none" stroke="#191970" d="M304.056,-362.3941C305.8442,-360.9122 307.5051,-359.2855 309,-357.5 377.6771,-275.4732 272.1879,-197.8794 345,-119.5 348.238,-116.0145 351.9711,-113.1034 356.0251,-110.6777"/>
<polygon fill="#191970" stroke="#191970" points="301.9513,-359.5891 295.5189,-368.0078 305.7973,-365.4379 301.9513,-359.5891"/>
</g>
<!-- Node12 -->
<g id="node12" class="node">
<title>Node12</title>
<g id="a_node12"><a xlink:href="../../d5/d2c/macros_2blob_2master_2macros_2g4simulations_2Fun4All__G4__sPHENIX_8C.html#a6eaaa492d7023ec86c562dc63aa1e5a4" target="_top" xlink:title="Fun4All_G4_sPHENIX">
<polygon fill="none" stroke="#000000" points="368,-51.5 368,-71.5 489,-71.5 489,-51.5 368,-51.5"/>
<text text-anchor="middle" x="428.5" y="-58.5" font-family="FreeSans" font-size="10.00" fill="#000000">Fun4All_G4_sPHENIX</text>
</a>
</g>
</g>
<!-- Node2&#45;&gt;Node12 -->
<g id="edge11" class="edge">
<title>Node2&#45;&gt;Node12</title>
<path fill="none" stroke="#191970" d="M304.1031,-362.4331C305.8785,-360.9406 307.5238,-359.301 309,-357.5 387.6983,-261.4848 261.4593,-172.333 345,-80.5 351.1027,-73.7916 359.038,-69.2014 367.5861,-66.1008"/>
<polygon fill="#191970" stroke="#191970" points="301.9974,-359.63 295.6058,-368.0798 305.8717,-365.4601 301.9974,-359.63"/>
</g>
<!-- Node13 -->
<g id="node13" class="node">
<title>Node13</title>
<g id="a_node13"><a xlink:href="../../d3/de2/Fun4All__G4__sPHENIX__AnaGenFit_8C.html#a9bf3f2f72ed69a17e2d0c1121d48013c" target="_top" xlink:title="Fun4All_G4_sPHENIX\l_AnaGenFit">
<polygon fill="none" stroke="#000000" points="368,-.5 368,-32.5 489,-32.5 489,-.5 368,-.5"/>
<text text-anchor="start" x="376" y="-19.5" font-family="FreeSans" font-size="10.00" fill="#000000">Fun4All_G4_sPHENIX</text>
<text text-anchor="middle" x="428.5" y="-7.5" font-family="FreeSans" font-size="10.00" fill="#000000">_AnaGenFit</text>
</a>
</g>
</g>
<!-- Node2&#45;&gt;Node13 -->
<g id="edge12" class="edge">
<title>Node2&#45;&gt;Node13</title>
<path fill="none" stroke="#191970" d="M304.139,-362.4623C305.9047,-360.9619 307.5381,-359.3127 309,-357.5 397.739,-247.4726 254.2994,-149.916 345,-41.5 351.0201,-34.3041 359.0219,-29.1273 367.6924,-25.4138"/>
<polygon fill="#191970" stroke="#191970" points="302.0327,-359.6606 295.6721,-368.1337 305.9283,-365.4764 302.0327,-359.6606"/>
</g>
<!-- Node14 -->
<g id="node14" class="node">
<title>Node14</title>
<g id="a_node14"><a xlink:href="../../da/dd0/Fun4All__G4__sPHENIX__photonjet_8C.html#a6f18519e216acc05399e562ea57ea77c" target="_top" xlink:title="Fun4All_G4_sPHENIX\l_photonjet">
<polygon fill="none" stroke="#000000" points="368,-645.5 368,-677.5 489,-677.5 489,-645.5 368,-645.5"/>
<text text-anchor="start" x="376" y="-664.5" font-family="FreeSans" font-size="10.00" fill="#000000">Fun4All_G4_sPHENIX</text>
<text text-anchor="middle" x="428.5" y="-652.5" font-family="FreeSans" font-size="10.00" fill="#000000">_photonjet</text>
</a>
</g>
</g>
<!-- Node2&#45;&gt;Node14 -->
<g id="edge13" class="edge">
<title>Node2&#45;&gt;Node14</title>
<path fill="none" stroke="#191970" d="M251.5156,-397.6944C256.2276,-445.9398 274.8495,-568.8356 345,-635.5 351.4935,-641.6709 359.4291,-646.3783 367.7972,-649.9692"/>
<polygon fill="#191970" stroke="#191970" points="254.9906,-397.2542 250.6312,-387.5978 248.0173,-397.8651 254.9906,-397.2542"/>
</g>
<!-- Node15 -->
<g id="node15" class="node">
<title>Node15</title>
<g id="a_node15"><a xlink:href="../../da/d85/Fun4All__G4__sPHENIX__photons_8C.html#a02fbbd59878fe1299f58ed187e7214ba" target="_top" xlink:title="Fun4All_G4_sPHENIX\l_photons">
<polygon fill="none" stroke="#000000" points="368,-594.5 368,-626.5 489,-626.5 489,-594.5 368,-594.5"/>
<text text-anchor="start" x="376" y="-613.5" font-family="FreeSans" font-size="10.00" fill="#000000">Fun4All_G4_sPHENIX</text>
<text text-anchor="middle" x="428.5" y="-601.5" font-family="FreeSans" font-size="10.00" fill="#000000">_photons</text>
</a>
</g>
</g>
<!-- Node2&#45;&gt;Node15 -->
<g id="edge14" class="edge">
<title>Node2&#45;&gt;Node15</title>
<path fill="none" stroke="#191970" d="M253.614,-397.8321C262.0224,-439.1468 286.7873,-533.32 345,-584.5 351.6136,-590.3146 359.5164,-594.829 367.785,-598.334"/>
<polygon fill="#191970" stroke="#191970" points="257.0249,-397.035 251.7005,-387.8753 250.1507,-398.3561 257.0249,-397.035"/>
</g>
<!-- Node16 -->
<g id="node16" class="node">
<title>Node16</title>
<g id="a_node16"><a xlink:href="../../de/d55/Fun4All__G4__sPHENIX__truthphotonjet_8C.html#a48a6f4503eaa1b3793d8ae572aa795b9" target="_top" xlink:title="Fun4All_G4_sPHENIX\l_truthphotonjet">
<polygon fill="none" stroke="#000000" points="368,-543.5 368,-575.5 489,-575.5 489,-543.5 368,-543.5"/>
<text text-anchor="start" x="376" y="-562.5" font-family="FreeSans" font-size="10.00" fill="#000000">Fun4All_G4_sPHENIX</text>
<text text-anchor="middle" x="428.5" y="-550.5" font-family="FreeSans" font-size="10.00" fill="#000000">_truthphotonjet</text>
</a>
</g>
</g>
<!-- Node2&#45;&gt;Node16 -->
<g id="edge15" class="edge">
<title>Node2&#45;&gt;Node16</title>
<path fill="none" stroke="#191970" d="M256.662,-397.0729C268.8987,-430.1021 298.0865,-496.8768 345,-533.5 351.8218,-538.8255 359.7453,-543.0684 367.9418,-546.4469"/>
<polygon fill="#191970" stroke="#191970" points="259.9438,-395.8556 253.2837,-387.6159 253.3518,-398.2105 259.9438,-395.8556"/>
</g>
<!-- Node17 -->
<g id="node17" class="node">
<title>Node17</title>
<g id="a_node17"><a xlink:href="../../d4/d65/Fun4All__single__particle_8C.html#a8a492b5dbead494bfdddbebde8a49b0e" target="_top" xlink:title="Fun4All_single_particle">
<polygon fill="none" stroke="#000000" points="362.5,-504.5 362.5,-524.5 494.5,-524.5 494.5,-504.5 362.5,-504.5"/>
<text text-anchor="middle" x="428.5" y="-511.5" font-family="FreeSans" font-size="10.00" fill="#000000">Fun4All_single_particle</text>
</a>
</g>
</g>
<!-- Node2&#45;&gt;Node17 -->
<g id="edge16" class="edge">
<title>Node2&#45;&gt;Node17</title>
<path fill="none" stroke="#191970" d="M260.0492,-396.4528C274.9757,-422.6914 305.5371,-469.6516 345,-494.5 351.4333,-498.5508 358.6172,-501.7814 365.9975,-504.3577"/>
<polygon fill="#191970" stroke="#191970" points="263.0046,-394.5642 255.1081,-387.5005 256.8761,-397.9467 263.0046,-394.5642"/>
</g>
<!-- Node18 -->
<g id="node18" class="node">
<title>Node18</title>
<g id="a_node18"><a xlink:href="../../d0/d99/Jin__BJet_8C.html#a36169bfee2ed7efda633944d12aebad9" target="_top" xlink:title="Jin_BJet">
<polygon fill="none" stroke="#000000" points="401,-465.5 401,-485.5 456,-485.5 456,-465.5 401,-465.5"/>
<text text-anchor="middle" x="428.5" y="-472.5" font-family="FreeSans" font-size="10.00" fill="#000000">Jin_BJet</text>
</a>
</g>
</g>
<!-- Node2&#45;&gt;Node18 -->
<g id="edge17" class="edge">
<title>Node2&#45;&gt;Node18</title>
<path fill="none" stroke="#191970" d="M266.4437,-395.0484C284.1621,-412.91 314.0108,-440.0974 345,-455.5 362.4867,-464.1914 383.9419,-469.2249 400.725,-472.0681"/>
<polygon fill="#191970" stroke="#191970" points="268.67,-392.3166 259.1959,-387.5739 263.6446,-397.1895 268.67,-392.3166"/>
</g>
<!-- Node19 -->
<g id="node19" class="node">
<title>Node19</title>
<g id="a_node19"><a xlink:href="../../dd/db1/Wrapper_8cxx.html#abf1e42281903daa0752c80dd6c879fac" target="_top" xlink:title="Wrapper">
<polygon fill="none" stroke="#000000" points="398.5,-426.5 398.5,-446.5 458.5,-446.5 458.5,-426.5 398.5,-426.5"/>
<text text-anchor="middle" x="428.5" y="-433.5" font-family="FreeSans" font-size="10.00" fill="#000000">Wrapper</text>
</a>
</g>
</g>
<!-- Node2&#45;&gt;Node19 -->
<g id="edge18" class="edge">
<title>Node2&#45;&gt;Node19</title>
<path fill="none" stroke="#191970" d="M281.2141,-391.7417C299.5346,-399.7385 323.2838,-409.4881 345,-416.5 362.4481,-422.1338 382.4056,-426.9708 398.4333,-430.4762"/>
<polygon fill="#191970" stroke="#191970" points="282.4668,-388.4687 271.9055,-387.6259 279.6361,-394.8709 282.4668,-388.4687"/>
</g>
<!-- Node4 -->
<g id="node4" class="node">
<title>Node4</title>
<g id="a_node4"><a xlink:href="../../d3/d7f/Fun_8C.html#af69a3eef3ff244bb51f5740c6ecb5432" target="_top" xlink:title="Fun">
<polygon fill="none" stroke="#000000" points="548,-387.5 548,-407.5 582,-407.5 582,-387.5 548,-387.5"/>
<text text-anchor="middle" x="565" y="-394.5" font-family="FreeSans" font-size="10.00" fill="#000000">Fun</text>
</a>
</g>
</g>
<!-- Node3&#45;&gt;Node4 -->
<g id="edge3" class="edge">
<title>Node3&#45;&gt;Node4</title>
<path fill="none" stroke="#191970" d="M495.6941,-397.5C515.0852,-397.5 534.59,-397.5 547.9452,-397.5"/>
<polygon fill="#191970" stroke="#191970" points="495.5974,-394.0001 485.5974,-397.5 495.5974,-401.0001 495.5974,-394.0001"/>
</g>
<!-- Node20&#45;&gt;Node3 -->
<g id="edge20" class="edge">
<title>Node20&#45;&gt;Node3</title>
<path fill="none" stroke="#191970" d="M294.5111,-351.7978C299.4516,-353.5792 304.3678,-355.4904 309,-357.5 325.7913,-364.7845 327.9426,-370.8625 345,-377.5 355.0022,-381.3921 365.9831,-384.6769 376.601,-387.3882"/>
<polygon fill="#191970" stroke="#191970" points="295.6433,-348.4861 285.0486,-348.5404 293.3647,-355.1049 295.6433,-348.4861"/>
</g>
<!-- Node20&#45;&gt;Node5 -->
<g id="edge21" class="edge">
<title>Node20&#45;&gt;Node5</title>
<path fill="none" stroke="#191970" d="M318.4042,-346.1643C331.6161,-347.6447 345.4735,-349.1973 358.7283,-350.6824"/>
<polygon fill="#191970" stroke="#191970" points="318.7751,-342.6841 308.4476,-345.0487 317.9956,-349.6406 318.7751,-342.6841"/>
</g>
<!-- Node20&#45;&gt;Node6 -->
<g id="edge22" class="edge">
<title>Node20&#45;&gt;Node6</title>
<path fill="none" stroke="#191970" d="M318.6896,-331.1885C329.0854,-330.082 339.8746,-328.9335 350.4507,-327.8078"/>
<polygon fill="#191970" stroke="#191970" points="318.0209,-327.7398 308.4476,-332.2787 318.7619,-334.7005 318.0209,-327.7398"/>
</g>
<!-- Node20&#45;&gt;Node7 -->
<g id="edge23" class="edge">
<title>Node20&#45;&gt;Node7</title>
<path fill="none" stroke="#191970" d="M292.27,-325.0833C297.9478,-323.0164 303.6535,-320.7998 309,-318.5 325.6194,-311.3512 328.2549,-306.3492 345,-299.5 352.8434,-296.2918 361.2508,-293.291 369.6003,-290.5602"/>
<polygon fill="#191970" stroke="#191970" points="291.0832,-321.7905 282.8096,-328.4085 293.4045,-328.3944 291.0832,-321.7905"/>
</g>
<!-- Node20&#45;&gt;Node8 -->
<g id="edge24" class="edge">
<title>Node20&#45;&gt;Node8</title>
<path fill="none" stroke="#191970" d="M301.8067,-323.7294C304.3528,-322.1571 306.7726,-320.4196 309,-318.5 335.501,-295.6614 317.3575,-269.9428 345,-248.5 349.5814,-244.9461 354.7047,-242.0341 360.0987,-239.6509"/>
<polygon fill="#191970" stroke="#191970" points="299.9964,-320.7264 292.759,-328.4639 303.242,-326.9285 299.9964,-320.7264"/>
</g>
<!-- Node20&#45;&gt;Node9 -->
<g id="edge25" class="edge">
<title>Node20&#45;&gt;Node9</title>
<path fill="none" stroke="#191970" d="M303.6904,-323.0608C305.5781,-321.6696 307.3598,-320.1531 309,-318.5 344.9338,-282.2837 307.2479,-243.8168 345,-209.5 351.0507,-203.9999 358.3556,-199.9861 366.0966,-197.0739"/>
<polygon fill="#191970" stroke="#191970" points="301.6021,-320.2329 294.8444,-328.3928 305.2157,-326.228 301.6021,-320.2329"/>
</g>
<!-- Node20&#45;&gt;Node10 -->
<g id="edge26" class="edge">
<title>Node20&#45;&gt;Node10</title>
<path fill="none" stroke="#191970" d="M304.4739,-322.737C306.086,-321.4351 307.6033,-320.0257 309,-318.5 354.7109,-268.5677 298.3998,-219.6033 345,-170.5 350.9375,-164.2435 358.3706,-159.5337 366.3389,-155.992"/>
<polygon fill="#191970" stroke="#191970" points="302.2336,-320.0179 295.743,-328.3919 306.039,-325.8932 302.2336,-320.0179"/>
</g>
<!-- Node20&#45;&gt;Node11 -->
<g id="edge27" class="edge">
<title>Node20&#45;&gt;Node11</title>
<path fill="none" stroke="#191970" d="M304.6851,-322.7637C306.2292,-321.4542 307.6759,-320.036 309,-318.5 367.6869,-250.4246 282.8836,-184.4613 345,-119.5 348.3906,-115.9541 352.2947,-113.0066 356.5233,-110.5622"/>
<polygon fill="#191970" stroke="#191970" points="302.5969,-319.9505 296.268,-328.4473 306.5142,-325.7518 302.5969,-319.9505"/>
</g>
<!-- Node20&#45;&gt;Node12 -->
<g id="edge28" class="edge">
<title>Node20&#45;&gt;Node12</title>
<path fill="none" stroke="#191970" d="M305.2054,-322.4055C306.5595,-321.1964 307.8305,-319.8968 309,-318.5 377.6771,-236.4732 272.1879,-158.8794 345,-80.5 351.1724,-73.8557 359.1442,-69.299 367.7074,-66.2123"/>
<polygon fill="#191970" stroke="#191970" points="302.8498,-319.7824 296.6697,-328.388 306.8674,-325.5147 302.8498,-319.7824"/>
</g>
<!-- Node20&#45;&gt;Node13 -->
<g id="edge29" class="edge">
<title>Node20&#45;&gt;Node13</title>
<path fill="none" stroke="#191970" d="M305.2438,-322.4373C306.5869,-321.2191 307.8452,-319.9089 309,-318.5 387.6983,-222.4848 264.5901,-136.0864 345,-41.5 351.0768,-34.3519 359.1078,-29.1998 367.79,-25.4961"/>
<polygon fill="#191970" stroke="#191970" points="302.8865,-319.8181 296.7532,-328.4573 306.9352,-325.5284 302.8865,-319.8181"/>
</g>
<!-- Node20&#45;&gt;Node14 -->
<g id="edge30" class="edge">
<title>Node20&#45;&gt;Node14</title>
<path fill="none" stroke="#191970" d="M306.2855,-354.5899C307.2409,-355.5073 308.1482,-356.4764 309,-357.5 388.6895,-453.2682 264.8477,-540.1188 345,-635.5 351.0561,-642.7068 359.0764,-647.9478 367.7544,-651.7525"/>
<polygon fill="#191970" stroke="#191970" points="308.2497,-351.6887 298.1395,-348.521 304.0676,-357.3022 308.2497,-351.6887"/>
</g>
<!-- Node20&#45;&gt;Node15 -->
<g id="edge31" class="edge">
<title>Node20&#45;&gt;Node15</title>
<path fill="none" stroke="#191970" d="M306.2461,-354.6231C307.2133,-355.5306 308.1337,-356.4886 309,-357.5 375.4501,-435.0819 278.1749,-507.2408 345,-584.5 351.1582,-591.6197 359.2312,-596.8159 367.9303,-600.6025"/>
<polygon fill="#191970" stroke="#191970" points="308.1697,-351.6938 298.0334,-348.6106 304.0346,-357.3419 308.1697,-351.6938"/>
</g>
<!-- Node20&#45;&gt;Node16 -->
<g id="edge32" class="edge">
<title>Node20&#45;&gt;Node16</title>
<path fill="none" stroke="#191970" d="M306.1183,-354.6155C307.1281,-355.525 308.0912,-356.4856 309,-357.5 362.2742,-416.9691 291.4385,-474.2895 345,-533.5 351.2131,-540.3684 359.2063,-545.4398 367.7784,-549.1806"/>
<polygon fill="#191970" stroke="#191970" points="307.7751,-351.5009 297.5867,-348.5943 303.7388,-357.22 307.7751,-351.5009"/>
</g>
<!-- Node20&#45;&gt;Node17 -->
<g id="edge33" class="edge">
<title>Node20&#45;&gt;Node17</title>
<path fill="none" stroke="#191970" d="M305.6204,-354.325C306.8063,-355.3197 307.9364,-356.3767 309,-357.5 352.2853,-403.2148 299.9992,-450.4729 345,-494.5 350.0079,-499.3996 355.9915,-503.1742 362.4237,-506.0719"/>
<polygon fill="#191970" stroke="#191970" points="307.3567,-351.2756 297.0991,-348.6238 303.4641,-357.0936 307.3567,-351.2756"/>
</g>
<!-- Node20&#45;&gt;Node18 -->
<g id="edge34" class="edge">
<title>Node20&#45;&gt;Node18</title>
<path fill="none" stroke="#191970" d="M304.4453,-353.6803C306.0483,-354.8595 307.5738,-356.1304 309,-357.5 342.4683,-389.6397 310.3278,-424.6629 345,-455.5 360.1484,-468.9728 382.7675,-473.7753 400.6445,-475.3173"/>
<polygon fill="#191970" stroke="#191970" points="306.2533,-350.6834 295.8829,-348.5144 302.6372,-356.6771 306.2533,-350.6834"/>
</g>
<!-- Node20&#45;&gt;Node19 -->
<g id="edge35" class="edge">
<title>Node20&#45;&gt;Node19</title>
<path fill="none" stroke="#191970" d="M302.6489,-353.1556C304.872,-354.4821 307.0029,-355.9268 309,-357.5 333.1301,-376.509 320.161,-398.4271 345,-416.5 360.4286,-427.7259 381.3036,-432.7259 398.3214,-434.9194"/>
<polygon fill="#191970" stroke="#191970" points="304.2054,-350.0206 293.7057,-348.6037 301.0301,-356.259 304.2054,-350.0206"/>
</g>
<!-- Node21&#45;&gt;Node3 -->
<g id="edge37" class="edge">
<title>Node21&#45;&gt;Node3</title>
<path fill="none" stroke="#191970" d="M302.6489,-314.1556C304.872,-315.4821 307.0029,-316.9268 309,-318.5 333.1301,-337.509 320.161,-359.4271 345,-377.5 352.8348,-383.2006 362.0741,-387.2958 371.4996,-390.2332"/>
<polygon fill="#191970" stroke="#191970" points="304.2054,-311.0206 293.7057,-309.6037 301.0301,-317.259 304.2054,-311.0206"/>
</g>
<!-- Node21&#45;&gt;Node5 -->
<g id="edge38" class="edge">
<title>Node21&#45;&gt;Node5</title>
<path fill="none" stroke="#191970" d="M294.5111,-312.7978C299.4516,-314.5792 304.3678,-316.4904 309,-318.5 325.7913,-325.7845 327.9426,-331.8625 345,-338.5 355.0022,-342.3921 365.9831,-345.6769 376.601,-348.3882"/>
<polygon fill="#191970" stroke="#191970" points="295.6433,-309.4861 285.0486,-309.5404 293.3647,-316.1049 295.6433,-309.4861"/>
</g>
<!-- Node21&#45;&gt;Node6 -->
<g id="edge39" class="edge">
<title>Node21&#45;&gt;Node6</title>
<path fill="none" stroke="#191970" d="M319.4105,-307.2771C329.523,-308.4101 339.9934,-309.5833 350.2661,-310.7343"/>
<polygon fill="#191970" stroke="#191970" points="319.7655,-303.795 309.4379,-306.1597 318.986,-310.7515 319.7655,-303.795"/>
</g>
<!-- Node21&#45;&gt;Node7 -->
<g id="edge40" class="edge">
<title>Node21&#45;&gt;Node7</title>
<path fill="none" stroke="#191970" d="M319.6164,-289.7498C332.4885,-287.947 345.9339,-286.0639 358.8083,-284.2607"/>
<polygon fill="#191970" stroke="#191970" points="318.8558,-286.3221 309.4379,-291.1754 319.8267,-293.2544 318.8558,-286.3221"/>
</g>
<!-- Node21&#45;&gt;Node8 -->
<g id="edge41" class="edge">
<title>Node21&#45;&gt;Node8</title>
<path fill="none" stroke="#191970" d="M274.2537,-284.117C292.9571,-272.8477 319.8043,-257.9323 345,-248.5 354.3287,-245.0077 364.4939,-242.042 374.4187,-239.5664"/>
<polygon fill="#191970" stroke="#191970" points="272.2143,-281.2619 265.5185,-289.4726 275.8732,-287.2295 272.2143,-281.2619"/>
</g>
<!-- Node21&#45;&gt;Node9 -->
<g id="edge42" class="edge">
<title>Node21&#45;&gt;Node9</title>
<path fill="none" stroke="#191970" d="M264.0276,-281.2874C280.947,-260.6338 311.3419,-227.4985 345,-209.5 351.8174,-205.8544 359.3104,-202.906 366.9232,-200.5218"/>
<polygon fill="#191970" stroke="#191970" points="261.1383,-279.2967 257.6313,-289.2943 266.6074,-283.6658 261.1383,-279.2967"/>
</g>
<!-- Node21&#45;&gt;Node10 -->
<g id="edge43" class="edge">
<title>Node21&#45;&gt;Node10</title>
<path fill="none" stroke="#191970" d="M259.1332,-280.1387C273.4597,-251.8505 303.8834,-199.4501 345,-170.5 351.434,-165.9699 358.6993,-162.2486 366.1929,-159.1945"/>
<polygon fill="#191970" stroke="#191970" points="255.8605,-278.8628 254.5933,-289.3816 262.1435,-281.9489 255.8605,-278.8628"/>
</g>
<!-- Node21&#45;&gt;Node11 -->
<g id="edge44" class="edge">
<title>Node21&#45;&gt;Node11</title>
<path fill="none" stroke="#191970" d="M254.6052,-279.677C264.3869,-242.2004 290.9069,-161.0033 345,-119.5 349.7181,-115.88 355.0004,-112.9274 360.5553,-110.522"/>
<polygon fill="#191970" stroke="#191970" points="251.1998,-278.8682 252.1874,-289.4169 257.9936,-280.5548 251.1998,-278.8682"/>
</g>
<!-- Node21&#45;&gt;Node12 -->
<g id="edge45" class="edge">
<title>Node21&#45;&gt;Node12</title>
<path fill="none" stroke="#191970" d="M252.6224,-279.4018C259.3975,-235.978 281.625,-133.0854 345,-80.5 351.636,-74.9938 359.5511,-71.0073 367.8252,-68.1346"/>
<polygon fill="#191970" stroke="#191970" points="249.1559,-278.9193 251.1874,-289.3175 256.0837,-279.9219 249.1559,-278.9193"/>
</g>
<!-- Node21&#45;&gt;Node13 -->
<g id="edge46" class="edge">
<title>Node21&#45;&gt;Node13</title>
<path fill="none" stroke="#191970" d="M251.4684,-279.2556C256.0761,-230.8999 274.4854,-107.7792 345,-41.5 351.5054,-35.3853 359.4475,-30.7612 367.8183,-27.2654"/>
<polygon fill="#191970" stroke="#191970" points="247.9677,-279.1152 250.6065,-289.3761 254.9425,-279.7092 247.9677,-279.1152"/>
</g>
<!-- Node21&#45;&gt;Node14 -->
<g id="edge47" class="edge">
<title>Node21&#45;&gt;Node14</title>
<path fill="none" stroke="#191970" d="M306.6786,-315.938C307.4917,-316.7516 308.2671,-317.605 309,-318.5 398.8374,-428.2038 254.6324,-526.2325 345,-635.5 350.9993,-642.7541 358.9904,-648.0195 367.6566,-651.834"/>
<polygon fill="#191970" stroke="#191970" points="308.539,-312.9537 298.4767,-309.6368 304.2744,-318.5046 308.539,-312.9537"/>
</g>
<!-- Node21&#45;&gt;Node15 -->
<g id="edge48" class="edge">
<title>Node21&#45;&gt;Node15</title>
<path fill="none" stroke="#191970" d="M306.2775,-315.5965C307.2353,-316.5119 308.1453,-317.4788 309,-318.5 385.5706,-409.9846 267.9873,-493.3872 345,-584.5 351.0768,-591.6893 359.1078,-596.9214 367.79,-600.7225"/>
<polygon fill="#191970" stroke="#191970" points="308.2335,-312.6896 298.118,-309.5389 304.0609,-318.3101 308.2335,-312.6896"/>
</g>
<!-- Node21&#45;&gt;Node16 -->
<g id="edge49" class="edge">
<title>Node21&#45;&gt;Node16</title>
<path fill="none" stroke="#191970" d="M306.2342,-315.6333C307.205,-316.5377 308.1294,-317.4923 309,-318.5 372.3425,-391.8116 281.3032,-460.496 345,-533.5 351.1888,-540.5931 359.2776,-545.7755 367.983,-549.5567"/>
<polygon fill="#191970" stroke="#191970" points="308.1456,-312.6956 298.0016,-309.638 304.0248,-318.3541 308.1456,-312.6956"/>
</g>
<!-- Node21&#45;&gt;Node17 -->
<g id="edge50" class="edge">
<title>Node21&#45;&gt;Node17</title>
<path fill="none" stroke="#191970" d="M306.1183,-315.6155C307.1281,-316.525 308.0912,-317.4856 309,-318.5 362.2742,-377.9691 289.4919,-437.1104 345,-494.5 349.8708,-499.5359 355.7676,-503.3968 362.1495,-506.3445"/>
<polygon fill="#191970" stroke="#191970" points="307.7751,-312.5009 297.5867,-309.5943 303.7388,-318.22 307.7751,-312.5009"/>
</g>
<!-- Node21&#45;&gt;Node18 -->
<g id="edge51" class="edge">
<title>Node21&#45;&gt;Node18</title>
<path fill="none" stroke="#191970" d="M305.6204,-315.325C306.8063,-316.3197 307.9364,-317.3767 309,-318.5 352.2853,-364.2148 299.9992,-411.4729 345,-455.5 359.5976,-469.7817 382.4849,-474.5054 400.6088,-475.8109"/>
<polygon fill="#191970" stroke="#191970" points="307.3567,-312.2756 297.0991,-309.6238 303.4641,-318.0936 307.3567,-312.2756"/>
</g>
<!-- Node21&#45;&gt;Node19 -->
<g id="edge52" class="edge">
<title>Node21&#45;&gt;Node19</title>
<path fill="none" stroke="#191970" d="M304.4453,-314.6803C306.0483,-315.8595 307.5738,-317.1304 309,-318.5 342.4683,-350.6397 310.3278,-385.6629 345,-416.5 359.4801,-429.3784 380.7863,-434.3347 398.2518,-436.0937"/>
<polygon fill="#191970" stroke="#191970" points="306.2533,-311.6834 295.8829,-309.5144 302.6372,-317.6771 306.2533,-311.6834"/>
</g>
</g>
</svg>
