<?xml version="1.0" encoding="UTF-8" standalone="no"?>
<!DOCTYPE svg PUBLIC "-//W3C//DTD SVG 1.1//EN"
 "http://www.w3.org/Graphics/SVG/1.1/DTD/svg11.dtd">
<!-- Generated by graphviz version 2.40.1 (20161225.0304)
 -->
<!-- Title: RawClusterBuilderFwd::set_threshold_energy Pages: 1 -->
<svg width="473pt" height="326pt"
 viewBox="0.00 0.00 473.00 326.00" xmlns="http://www.w3.org/2000/svg" xmlns:xlink="http://www.w3.org/1999/xlink">
<g id="graph0" class="graph" transform="scale(1 1) rotate(0) translate(4 322)">
<title>RawClusterBuilderFwd::set_threshold_energy</title>
<!-- Node1 -->
<g id="node1" class="node">
<title>Node1</title>
<polygon fill="#bfbfbf" stroke="#000000" points="0,-142.5 0,-174.5 131,-174.5 131,-142.5 0,-142.5"/>
<text text-anchor="start" x="8" y="-161.5" font-family="FreeSans" font-size="10.00" fill="#000000">RawClusterBuilderFwd</text>
<text text-anchor="middle" x="65.5" y="-149.5" font-family="FreeSans" font-size="10.00" fill="#000000">::set_threshold_energy</text>
</g>
<!-- Node2 -->
<g id="node2" class="node">
<title>Node2</title>
<g id="a_node2"><a xlink:href="../../d6/d5c/macros_2blob_2master_2macros_2g4simulations_2G4__FEMC_8C.html#ab125a8852e2c16eed18cfad39821bbbf" target="_top" xlink:title="FEMC_Clusters">
<polygon fill="none" stroke="#000000" points="169.5,-129.5 169.5,-149.5 259.5,-149.5 259.5,-129.5 169.5,-129.5"/>
<text text-anchor="middle" x="214.5" y="-136.5" font-family="FreeSans" font-size="10.00" fill="#000000">FEMC_Clusters</text>
</a>
</g>
</g>
<!-- Node1&#45;&gt;Node2 -->
<g id="edge1" class="edge">
<title>Node1&#45;&gt;Node2</title>
<path fill="none" stroke="#191970" d="M141.2188,-148.8446C150.765,-147.6273 160.2846,-146.4134 169.1502,-145.2829"/>
<polygon fill="#191970" stroke="#191970" points="140.7642,-145.3741 131.2873,-150.111 141.6497,-152.3179 140.7642,-145.3741"/>
</g>
<!-- Node11 -->
<g id="node11" class="node">
<title>Node11</title>
<g id="a_node11"><a xlink:href="../../d9/d50/macros_2blob_2master_2macros_2g4simulations_2G4__FHCAL_8C.html#afa2a5b90ecb2acca5ef243e4011a2e3e" target="_top" xlink:title="FHCAL_Clusters">
<polygon fill="none" stroke="#000000" points="167,-168.5 167,-188.5 262,-188.5 262,-168.5 167,-168.5"/>
<text text-anchor="middle" x="214.5" y="-175.5" font-family="FreeSans" font-size="10.00" fill="#000000">FHCAL_Clusters</text>
</a>
</g>
</g>
<!-- Node1&#45;&gt;Node11 -->
<g id="edge10" class="edge">
<title>Node1&#45;&gt;Node11</title>
<path fill="none" stroke="#191970" d="M141.4615,-168.6962C150.1421,-169.8614 158.7962,-171.023 166.9522,-172.1177"/>
<polygon fill="#191970" stroke="#191970" points="141.6641,-165.1921 131.2873,-167.3305 140.7328,-172.1298 141.6641,-165.1921"/>
</g>
<!-- Node3 -->
<g id="node3" class="node">
<title>Node3</title>
<g id="a_node3"><a xlink:href="../../da/d02/Fun4All__G4__EICDetector_8C.html#afbe82cefa1d1fd031d9a8586b7bb68c6" target="_top" xlink:title="Fun4All_G4_EICDetector">
<polygon fill="none" stroke="#000000" points="312,-207.5 312,-227.5 451,-227.5 451,-207.5 312,-207.5"/>
<text text-anchor="middle" x="381.5" y="-214.5" font-family="FreeSans" font-size="10.00" fill="#000000">Fun4All_G4_EICDetector</text>
</a>
</g>
</g>
<!-- Node2&#45;&gt;Node3 -->
<g id="edge2" class="edge">
<title>Node2&#45;&gt;Node3</title>
<path fill="none" stroke="#191970" d="M253.3606,-154.1919C256.3713,-155.8283 259.2901,-157.5981 262,-159.5 281.3084,-173.0511 277.5826,-186.6859 298,-198.5 304.3054,-202.1485 311.2561,-205.0964 318.3742,-207.4782"/>
<polygon fill="#191970" stroke="#191970" points="254.6894,-150.9454 244.1697,-149.6852 251.6074,-157.2304 254.6894,-150.9454"/>
</g>
<!-- Node4 -->
<g id="node4" class="node">
<title>Node4</title>
<g id="a_node4"><a xlink:href="../../dd/d2a/Fun4All__G4__EICDetector__LQ_8C.html#aaa01242fd6e77ca43a9d49a6d46008e4" target="_top" xlink:title="Fun4All_G4_EICDetector_LQ">
<polygon fill="none" stroke="#000000" points="303.5,-168.5 303.5,-188.5 459.5,-188.5 459.5,-168.5 303.5,-168.5"/>
<text text-anchor="middle" x="381.5" y="-175.5" font-family="FreeSans" font-size="10.00" fill="#000000">Fun4All_G4_EICDetector_LQ</text>
</a>
</g>
</g>
<!-- Node2&#45;&gt;Node4 -->
<g id="edge3" class="edge">
<title>Node2&#45;&gt;Node4</title>
<path fill="none" stroke="#191970" d="M266.043,-151.9425C276.6086,-154.4658 287.6596,-157.0853 298,-159.5 310.5955,-162.4414 324.2737,-165.5779 336.844,-168.4372"/>
<polygon fill="#191970" stroke="#191970" points="266.6411,-148.4869 256.101,-149.5626 265.0114,-155.2945 266.6411,-148.4869"/>
</g>
<!-- Node5 -->
<g id="node5" class="node">
<title>Node5</title>
<g id="a_node5"><a xlink:href="../../d4/df5/Fun4All__G4__EICDetector__LQ__reference_8C.html#a2feefc472f17f90b3cbe74897d049f75" target="_top" xlink:title="Fun4All_G4_EICDetector\l_LQ_reference">
<polygon fill="none" stroke="#000000" points="312,-117.5 312,-149.5 451,-149.5 451,-117.5 312,-117.5"/>
<text text-anchor="start" x="320" y="-136.5" font-family="FreeSans" font-size="10.00" fill="#000000">Fun4All_G4_EICDetector</text>
<text text-anchor="middle" x="381.5" y="-124.5" font-family="FreeSans" font-size="10.00" fill="#000000">_LQ_reference</text>
</a>
</g>
</g>
<!-- Node2&#45;&gt;Node5 -->
<g id="edge4" class="edge">
<title>Node2&#45;&gt;Node5</title>
<path fill="none" stroke="#191970" d="M269.7347,-137.5155C283.1849,-137.0323 297.7446,-136.5092 311.7711,-136.0052"/>
<polygon fill="#191970" stroke="#191970" points="269.5605,-134.0194 259.6926,-137.8763 269.8119,-141.0149 269.5605,-134.0194"/>
</g>
<!-- Node6 -->
<g id="node6" class="node">
<title>Node6</title>
<g id="a_node6"><a xlink:href="../../d3/d51/Fun4All__G4__EICDetector__RICH_8C.html#a5739502b0a7a1ba782c01069f77e933f" target="_top" xlink:title="Fun4All_G4_EICDetector_RICH">
<polygon fill="none" stroke="#000000" points="298,-78.5 298,-98.5 465,-98.5 465,-78.5 298,-78.5"/>
<text text-anchor="middle" x="381.5" y="-85.5" font-family="FreeSans" font-size="10.00" fill="#000000">Fun4All_G4_EICDetector_RICH</text>
</a>
</g>
</g>
<!-- Node2&#45;&gt;Node6 -->
<g id="edge5" class="edge">
<title>Node2&#45;&gt;Node6</title>
<path fill="none" stroke="#191970" d="M247.432,-125.6364C262.6476,-119.5541 281.0622,-112.6441 298,-107.5 308.8114,-104.2165 320.5628,-101.2081 331.7431,-98.6007"/>
<polygon fill="#191970" stroke="#191970" points="245.8929,-122.4837 237.9427,-129.487 248.525,-128.97 245.8929,-122.4837"/>
</g>
<!-- Node7 -->
<g id="node7" class="node">
<title>Node7</title>
<g id="a_node7"><a xlink:href="../../d7/d9e/Fun4All__G4__fsPHENIX_8C.html#af48911d394d2412e817583700f2bbee2" target="_top" xlink:title="Fun4All_G4_fsPHENIX">
<polygon fill="none" stroke="#000000" points="319.5,-39.5 319.5,-59.5 443.5,-59.5 443.5,-39.5 319.5,-39.5"/>
<text text-anchor="middle" x="381.5" y="-46.5" font-family="FreeSans" font-size="10.00" fill="#000000">Fun4All_G4_fsPHENIX</text>
</a>
</g>
</g>
<!-- Node2&#45;&gt;Node7 -->
<g id="edge6" class="edge">
<title>Node2&#45;&gt;Node7</title>
<path fill="none" stroke="#191970" d="M230.24,-121.9416C245.8474,-105.6292 271.2412,-81.8979 298,-68.5 305.1787,-64.9057 313.0441,-61.9823 320.9873,-59.6068"/>
<polygon fill="#191970" stroke="#191970" points="227.6611,-119.5751 223.4012,-129.2758 232.7808,-124.349 227.6611,-119.5751"/>
</g>
<!-- Node8 -->
<g id="node8" class="node">
<title>Node8</title>
<g id="a_node8"><a xlink:href="../../da/d2f/Fun4All__G4__fsPHENIX__FastSim_8C.html#a66fb850cae5fcaadda23b74a25ce4c9c" target="_top" xlink:title="Fun4All_G4_fsPHENIX\l_FastSim">
<polygon fill="none" stroke="#000000" points="319.5,-285.5 319.5,-317.5 443.5,-317.5 443.5,-285.5 319.5,-285.5"/>
<text text-anchor="start" x="327.5" y="-304.5" font-family="FreeSans" font-size="10.00" fill="#000000">Fun4All_G4_fsPHENIX</text>
<text text-anchor="middle" x="381.5" y="-292.5" font-family="FreeSans" font-size="10.00" fill="#000000">_FastSim</text>
</a>
</g>
</g>
<!-- Node2&#45;&gt;Node8 -->
<g id="edge7" class="edge">
<title>Node2&#45;&gt;Node8</title>
<path fill="none" stroke="#191970" d="M257.5928,-155.3375C259.1692,-156.622 260.6494,-158.007 262,-159.5 298.4995,-199.8459 259.3835,-238.1755 298,-276.5 304.0148,-282.4693 311.3937,-287.0233 319.2522,-290.4956"/>
<polygon fill="#191970" stroke="#191970" points="259.338,-152.296 249.0616,-149.7179 255.4873,-158.1418 259.338,-152.296"/>
</g>
<!-- Node9 -->
<g id="node9" class="node">
<title>Node9</title>
<g id="a_node9"><a xlink:href="../../d0/da6/Fun4All__G4__fsPHENIX__pi0_8C.html#a023d91d47b678e5d7f1751834aa517c6" target="_top" xlink:title="Fun4All_G4_fsPHENIX_pi0">
<polygon fill="none" stroke="#000000" points="309,-246.5 309,-266.5 454,-266.5 454,-246.5 309,-246.5"/>
<text text-anchor="middle" x="381.5" y="-253.5" font-family="FreeSans" font-size="10.00" fill="#000000">Fun4All_G4_fsPHENIX_pi0</text>
</a>
</g>
</g>
<!-- Node2&#45;&gt;Node9 -->
<g id="edge8" class="edge">
<title>Node2&#45;&gt;Node9</title>
<path fill="none" stroke="#191970" d="M256.5792,-155.0075C258.5045,-156.3883 260.3273,-157.8831 262,-159.5 289.4515,-186.0367 268.3371,-213.4606 298,-237.5 302.3891,-241.057 307.315,-243.9767 312.5217,-246.3699"/>
<polygon fill="#191970" stroke="#191970" points="258.0095,-151.7849 247.6302,-149.6586 254.4181,-157.7934 258.0095,-151.7849"/>
</g>
<!-- Node10 -->
<g id="node10" class="node">
<title>Node10</title>
<g id="a_node10"><a xlink:href="../../d5/d2c/macros_2blob_2master_2macros_2g4simulations_2Fun4All__G4__sPHENIX_8C.html#a6eaaa492d7023ec86c562dc63aa1e5a4" target="_top" xlink:title="Fun4All_G4_sPHENIX">
<polygon fill="none" stroke="#000000" points="321,-.5 321,-20.5 442,-20.5 442,-.5 321,-.5"/>
<text text-anchor="middle" x="381.5" y="-7.5" font-family="FreeSans" font-size="10.00" fill="#000000">Fun4All_G4_sPHENIX</text>
</a>
</g>
</g>
<!-- Node2&#45;&gt;Node10 -->
<g id="edge9" class="edge">
<title>Node2&#45;&gt;Node10</title>
<path fill="none" stroke="#191970" d="M223.7185,-120.2177C236.6933,-95.2416 262.7545,-52.2217 298,-29.5 304.8726,-25.0695 312.6462,-21.6657 320.6166,-19.052"/>
<polygon fill="#191970" stroke="#191970" points="220.4616,-118.9049 219.1111,-129.4134 226.72,-122.0407 220.4616,-118.9049"/>
</g>
<!-- Node11&#45;&gt;Node3 -->
<g id="edge11" class="edge">
<title>Node11&#45;&gt;Node3</title>
<path fill="none" stroke="#191970" d="M266.043,-190.9425C276.6086,-193.4658 287.6596,-196.0853 298,-198.5 310.5955,-201.4414 324.2737,-204.5779 336.844,-207.4372"/>
<polygon fill="#191970" stroke="#191970" points="266.6411,-187.4869 256.101,-188.5626 265.0114,-194.2945 266.6411,-187.4869"/>
</g>
<!-- Node11&#45;&gt;Node4 -->
<g id="edge12" class="edge">
<title>Node11&#45;&gt;Node4</title>
<path fill="none" stroke="#191970" d="M272.5182,-178.5C282.4823,-178.5 292.9818,-178.5 303.3699,-178.5"/>
<polygon fill="#191970" stroke="#191970" points="272.3555,-175.0001 262.3555,-178.5 272.3555,-182.0001 272.3555,-175.0001"/>
</g>
<!-- Node11&#45;&gt;Node5 -->
<g id="edge13" class="edge">
<title>Node11&#45;&gt;Node5</title>
<path fill="none" stroke="#191970" d="M261.7325,-165.7727C280.4178,-160.7377 302.1105,-154.8924 321.8594,-149.5708"/>
<polygon fill="#191970" stroke="#191970" points="260.723,-162.4198 251.9781,-168.4011 262.5443,-169.1787 260.723,-162.4198"/>
</g>
<!-- Node11&#45;&gt;Node6 -->
<g id="edge14" class="edge">
<title>Node11&#45;&gt;Node6</title>
<path fill="none" stroke="#191970" d="M256.2565,-163.5333C258.265,-162.2821 260.1941,-160.9392 262,-159.5 283.9822,-141.9813 274.7135,-123.2436 298,-107.5 303.296,-103.9194 309.1688,-101.0057 315.275,-98.6357"/>
<polygon fill="#191970" stroke="#191970" points="254.2413,-160.6421 247.0766,-168.4471 257.5448,-166.8136 254.2413,-160.6421"/>
</g>
<!-- Node11&#45;&gt;Node7 -->
<g id="edge15" class="edge">
<title>Node11&#45;&gt;Node7</title>
<path fill="none" stroke="#191970" d="M258.5081,-162.6215C259.7341,-161.6405 260.903,-160.6011 262,-159.5 292.6967,-128.6866 264.9847,-96.8151 298,-68.5 304.2069,-63.1768 311.6009,-59.2639 319.3855,-56.401"/>
<polygon fill="#191970" stroke="#191970" points="256.2476,-159.9149 249.748,-168.2818 260.0467,-165.7943 256.2476,-159.9149"/>
</g>
<!-- Node11&#45;&gt;Node8 -->
<g id="edge16" class="edge">
<title>Node11&#45;&gt;Node8</title>
<path fill="none" stroke="#191970" d="M225.726,-197.3171C239.8728,-219.4423 266.2209,-255.7695 298,-276.5 304.5905,-280.7992 311.9488,-284.3834 319.4911,-287.3656"/>
<polygon fill="#191970" stroke="#191970" points="228.6797,-195.4389 220.4299,-188.7913 222.7335,-199.1327 228.6797,-195.4389"/>
</g>
<!-- Node11&#45;&gt;Node9 -->
<g id="edge17" class="edge">
<title>Node11&#45;&gt;Node9</title>
<path fill="none" stroke="#191970" d="M233.4005,-195.1542C249.5135,-208.5038 273.8409,-226.7276 298,-237.5 306.0113,-241.0722 314.765,-244.007 323.4935,-246.4085"/>
<polygon fill="#191970" stroke="#191970" points="235.6586,-192.4801 225.7676,-188.6828 231.1318,-197.8194 235.6586,-192.4801"/>
</g>
</g>
</svg>
