<?xml version="1.0" encoding="UTF-8" standalone="no"?>
<!DOCTYPE svg PUBLIC "-//W3C//DTD SVG 1.1//EN"
 "http://www.w3.org/Graphics/SVG/1.1/DTD/svg11.dtd">
<!-- Generated by graphviz version 2.40.1 (20161225.0304)
 -->
<!-- Title: CEmc Pages: 1 -->
<svg width="422pt" height="725pt"
 viewBox="0.00 0.00 422.00 725.00" xmlns="http://www.w3.org/2000/svg" xmlns:xlink="http://www.w3.org/1999/xlink">
<g id="graph0" class="graph" transform="scale(1 1) rotate(0) translate(4 721)">
<title>CEmc</title>
<!-- Node1 -->
<g id="node1" class="node">
<title>Node1</title>
<polygon fill="#bfbfbf" stroke="#000000" points="0,-342.5 0,-362.5 45,-362.5 45,-342.5 0,-342.5"/>
<text text-anchor="middle" x="22.5" y="-349.5" font-family="FreeSans" font-size="10.00" fill="#000000">CEmc</text>
</g>
<!-- Node2 -->
<g id="node2" class="node">
<title>Node2</title>
<g id="a_node2"><a xlink:href="../../d2/dfe/macros_2blob_2master_2macros_2g4simulations_2G4Setup__EICDetector_8C.html#a5d4cb2d19366a2ae6d2aefe8d2e4a870" target="_top" xlink:title="G4Setup">
<polygon fill="none" stroke="#000000" points="81,-342.5 81,-362.5 141,-362.5 141,-342.5 81,-342.5"/>
<text text-anchor="middle" x="111" y="-349.5" font-family="FreeSans" font-size="10.00" fill="#000000">G4Setup</text>
</a>
</g>
</g>
<!-- Node1&#45;&gt;Node2 -->
<g id="edge1" class="edge">
<title>Node1&#45;&gt;Node2</title>
<path fill="none" stroke="#191970" d="M55.4643,-352.5C63.8159,-352.5 72.7422,-352.5 80.9415,-352.5"/>
<polygon fill="#191970" stroke="#191970" points="55.291,-349.0001 45.2909,-352.5 55.2909,-356.0001 55.291,-349.0001"/>
</g>
<!-- Node3 -->
<g id="node3" class="node">
<title>Node3</title>
<g id="a_node3"><a xlink:href="../../d9/d0e/Fun4All__G4__EICIR_8C.html#ac3543d1dd4a0abed3987d40939ee3f87" target="_top" xlink:title="Fun4All_G4_EICIR">
<polygon fill="none" stroke="#000000" points="208.5,-696.5 208.5,-716.5 312.5,-716.5 312.5,-696.5 208.5,-696.5"/>
<text text-anchor="middle" x="260.5" y="-703.5" font-family="FreeSans" font-size="10.00" fill="#000000">Fun4All_G4_EICIR</text>
</a>
</g>
</g>
<!-- Node2&#45;&gt;Node3 -->
<g id="edge2" class="edge">
<title>Node2&#45;&gt;Node3</title>
<path fill="none" stroke="#191970" d="M112.1699,-372.7874C116.3581,-438.2039 132.7806,-641.9697 177,-687.5 185.2864,-696.032 196.548,-701.087 208.1163,-704.0049"/>
<polygon fill="#191970" stroke="#191970" points="115.6487,-372.3323 111.5444,-362.5648 108.6617,-372.7599 115.6487,-372.3323"/>
</g>
<!-- Node4 -->
<g id="node4" class="node">
<title>Node4</title>
<g id="a_node4"><a xlink:href="../../dd/d2a/Fun4All__G4__EICDetector__LQ_8C.html#aaa01242fd6e77ca43a9d49a6d46008e4" target="_top" xlink:title="Fun4All_G4_EICDetector_LQ">
<polygon fill="none" stroke="#000000" points="182.5,-657.5 182.5,-677.5 338.5,-677.5 338.5,-657.5 182.5,-657.5"/>
<text text-anchor="middle" x="260.5" y="-664.5" font-family="FreeSans" font-size="10.00" fill="#000000">Fun4All_G4_EICDetector_LQ</text>
</a>
</g>
</g>
<!-- Node2&#45;&gt;Node4 -->
<g id="edge3" class="edge">
<title>Node2&#45;&gt;Node4</title>
<path fill="none" stroke="#191970" d="M112.7381,-372.7509C118.3161,-432.9502 137.7381,-609.0669 177,-648.5 180.5665,-652.0821 184.6585,-655.0478 189.0736,-657.4977"/>
<polygon fill="#191970" stroke="#191970" points="116.2092,-372.2713 111.8305,-362.6237 109.2372,-372.8962 116.2092,-372.2713"/>
</g>
<!-- Node5 -->
<g id="node5" class="node">
<title>Node5</title>
<g id="a_node5"><a xlink:href="../../d4/df5/Fun4All__G4__EICDetector__LQ__reference_8C.html#a2feefc472f17f90b3cbe74897d049f75" target="_top" xlink:title="Fun4All_G4_EICDetector\l_LQ_reference">
<polygon fill="none" stroke="#000000" points="191,-606.5 191,-638.5 330,-638.5 330,-606.5 191,-606.5"/>
<text text-anchor="start" x="199" y="-625.5" font-family="FreeSans" font-size="10.00" fill="#000000">Fun4All_G4_EICDetector</text>
<text text-anchor="middle" x="260.5" y="-613.5" font-family="FreeSans" font-size="10.00" fill="#000000">_LQ_reference</text>
</a>
</g>
</g>
<!-- Node2&#45;&gt;Node5 -->
<g id="edge4" class="edge">
<title>Node2&#45;&gt;Node5</title>
<path fill="none" stroke="#191970" d="M113.9079,-372.8892C121.8246,-425.6684 145.3102,-564.9178 177,-597.5 181.0092,-601.6221 185.668,-605.0713 190.6952,-607.9566"/>
<polygon fill="#191970" stroke="#191970" points="117.3341,-372.1301 112.4196,-362.7441 110.4082,-373.1462 117.3341,-372.1301"/>
</g>
<!-- Node6 -->
<g id="node6" class="node">
<title>Node6</title>
<g id="a_node6"><a xlink:href="../../d0/d99/Jin__BJet_8C.html#a36169bfee2ed7efda633944d12aebad9" target="_top" xlink:title="Jin_BJet">
<polygon fill="none" stroke="#000000" points="233,-567.5 233,-587.5 288,-587.5 288,-567.5 233,-567.5"/>
<text text-anchor="middle" x="260.5" y="-574.5" font-family="FreeSans" font-size="10.00" fill="#000000">Jin_BJet</text>
</a>
</g>
</g>
<!-- Node2&#45;&gt;Node6 -->
<g id="edge5" class="edge">
<title>Node2&#45;&gt;Node6</title>
<path fill="none" stroke="#191970" d="M114.8009,-372.5124C124.0446,-419.1059 149.0079,-532.8256 177,-558.5 192.0103,-572.2675 214.8686,-576.7409 232.8763,-577.9249"/>
<polygon fill="#191970" stroke="#191970" points="118.2334,-371.8277 112.8873,-362.6806 111.3623,-373.1651 118.2334,-371.8277"/>
</g>
<!-- Node7 -->
<g id="node7" class="node">
<title>Node7</title>
<g id="a_node7"><a xlink:href="../../d3/d51/Fun4All__G4__EICDetector__RICH_8C.html#a5739502b0a7a1ba782c01069f77e933f" target="_top" xlink:title="Fun4All_G4_EICDetector_RICH">
<polygon fill="none" stroke="#000000" points="177,-528.5 177,-548.5 344,-548.5 344,-528.5 177,-528.5"/>
<text text-anchor="middle" x="260.5" y="-535.5" font-family="FreeSans" font-size="10.00" fill="#000000">Fun4All_G4_EICDetector_RICH</text>
</a>
</g>
</g>
<!-- Node2&#45;&gt;Node7 -->
<g id="edge6" class="edge">
<title>Node2&#45;&gt;Node7</title>
<path fill="none" stroke="#191970" d="M112.9709,-372.6693C117.5425,-408.014 132.1648,-481.0344 177,-519.5 181.1749,-523.0818 185.8873,-526.0251 190.8945,-528.4397"/>
<polygon fill="#191970" stroke="#191970" points="116.4337,-372.144 111.8143,-362.6092 109.4795,-372.9436 116.4337,-372.144"/>
</g>
<!-- Node8 -->
<g id="node8" class="node">
<title>Node8</title>
<g id="a_node8"><a xlink:href="../../d0/da6/Fun4All__G4__fsPHENIX__pi0_8C.html#a023d91d47b678e5d7f1751834aa517c6" target="_top" xlink:title="Fun4All_G4_fsPHENIX_pi0">
<polygon fill="none" stroke="#000000" points="188,-489.5 188,-509.5 333,-509.5 333,-489.5 188,-489.5"/>
<text text-anchor="middle" x="260.5" y="-496.5" font-family="FreeSans" font-size="10.00" fill="#000000">Fun4All_G4_fsPHENIX_pi0</text>
</a>
</g>
</g>
<!-- Node2&#45;&gt;Node8 -->
<g id="edge7" class="edge">
<title>Node2&#45;&gt;Node8</title>
<path fill="none" stroke="#191970" d="M115.6922,-372.7331C123.4081,-401.3078 141.5817,-453.0553 177,-480.5 181.5832,-484.0514 186.7079,-486.9617 192.1028,-489.3439"/>
<polygon fill="#191970" stroke="#191970" points="118.9981,-371.5288 113.1565,-362.6898 112.211,-373.2424 118.9981,-371.5288"/>
</g>
<!-- Node9 -->
<g id="node9" class="node">
<title>Node9</title>
<g id="a_node9"><a xlink:href="../../da/dd0/Fun4All__G4__sPHENIX__photonjet_8C.html#a6f18519e216acc05399e562ea57ea77c" target="_top" xlink:title="Fun4All_G4_sPHENIX\l_photonjet">
<polygon fill="none" stroke="#000000" points="200,-438.5 200,-470.5 321,-470.5 321,-438.5 200,-438.5"/>
<text text-anchor="start" x="208" y="-457.5" font-family="FreeSans" font-size="10.00" fill="#000000">Fun4All_G4_sPHENIX</text>
<text text-anchor="middle" x="260.5" y="-445.5" font-family="FreeSans" font-size="10.00" fill="#000000">_photonjet</text>
</a>
</g>
</g>
<!-- Node2&#45;&gt;Node9 -->
<g id="edge8" class="edge">
<title>Node2&#45;&gt;Node9</title>
<path fill="none" stroke="#191970" d="M122.5937,-371.4002C134.2682,-388.9049 153.8349,-414.4373 177,-429.5 183.9774,-434.037 191.8109,-437.7784 199.8106,-440.8567"/>
<polygon fill="#191970" stroke="#191970" points="125.2996,-369.1369 116.9472,-362.6187 119.4118,-372.9229 125.2996,-369.1369"/>
</g>
<!-- Node10 -->
<g id="node10" class="node">
<title>Node10</title>
<g id="a_node10"><a xlink:href="../../da/d85/Fun4All__G4__sPHENIX__photons_8C.html#a02fbbd59878fe1299f58ed187e7214ba" target="_top" xlink:title="Fun4All_G4_sPHENIX\l_photons">
<polygon fill="none" stroke="#000000" points="200,-387.5 200,-419.5 321,-419.5 321,-387.5 200,-387.5"/>
<text text-anchor="start" x="208" y="-406.5" font-family="FreeSans" font-size="10.00" fill="#000000">Fun4All_G4_sPHENIX</text>
<text text-anchor="middle" x="260.5" y="-394.5" font-family="FreeSans" font-size="10.00" fill="#000000">_photons</text>
</a>
</g>
</g>
<!-- Node2&#45;&gt;Node10 -->
<g id="edge9" class="edge">
<title>Node2&#45;&gt;Node10</title>
<path fill="none" stroke="#191970" d="M144.475,-366.3196C154.8336,-370.4248 166.3281,-374.8077 177,-378.5 185.8664,-381.5676 195.3358,-384.6157 204.5961,-387.4738"/>
<polygon fill="#191970" stroke="#191970" points="145.5398,-362.9757 134.9556,-362.5005 142.9333,-369.4724 145.5398,-362.9757"/>
</g>
<!-- Node11 -->
<g id="node11" class="node">
<title>Node11</title>
<g id="a_node11"><a xlink:href="../../de/d55/Fun4All__G4__sPHENIX__truthphotonjet_8C.html#a48a6f4503eaa1b3793d8ae572aa795b9" target="_top" xlink:title="Fun4All_G4_sPHENIX\l_truthphotonjet">
<polygon fill="none" stroke="#000000" points="200,-336.5 200,-368.5 321,-368.5 321,-336.5 200,-336.5"/>
<text text-anchor="start" x="208" y="-355.5" font-family="FreeSans" font-size="10.00" fill="#000000">Fun4All_G4_sPHENIX</text>
<text text-anchor="middle" x="260.5" y="-343.5" font-family="FreeSans" font-size="10.00" fill="#000000">_truthphotonjet</text>
</a>
</g>
</g>
<!-- Node2&#45;&gt;Node11 -->
<g id="edge10" class="edge">
<title>Node2&#45;&gt;Node11</title>
<path fill="none" stroke="#191970" d="M151.5966,-352.5C166.4176,-352.5 183.5204,-352.5 199.7162,-352.5"/>
<polygon fill="#191970" stroke="#191970" points="151.2536,-349.0001 141.2536,-352.5 151.2535,-356.0001 151.2536,-349.0001"/>
</g>
<!-- Node12 -->
<g id="node12" class="node">
<title>Node12</title>
<g id="a_node12"><a xlink:href="../../dd/db1/Wrapper_8cxx.html#abf1e42281903daa0752c80dd6c879fac" target="_top" xlink:title="Wrapper">
<polygon fill="none" stroke="#000000" points="230.5,-297.5 230.5,-317.5 290.5,-317.5 290.5,-297.5 230.5,-297.5"/>
<text text-anchor="middle" x="260.5" y="-304.5" font-family="FreeSans" font-size="10.00" fill="#000000">Wrapper</text>
</a>
</g>
</g>
<!-- Node2&#45;&gt;Node12 -->
<g id="edge11" class="edge">
<title>Node2&#45;&gt;Node12</title>
<path fill="none" stroke="#191970" d="M144.6502,-338.8107C154.9389,-334.8815 166.3506,-330.7778 177,-327.5 194.5238,-322.1063 214.4843,-317.2786 230.4946,-313.7182"/>
<polygon fill="#191970" stroke="#191970" points="143.2413,-335.6033 135.1915,-342.4918 145.7801,-342.1267 143.2413,-335.6033"/>
</g>
<!-- Node13 -->
<g id="node13" class="node">
<title>Node13</title>
<g id="a_node13"><a xlink:href="../../d3/d7f/Fun_8C.html#af0d3c8a78765149fef9b2beeecfc6279" target="_top" xlink:title="ConfigureDetectors">
<polygon fill="none" stroke="#000000" points="203.5,-258.5 203.5,-278.5 317.5,-278.5 317.5,-258.5 203.5,-258.5"/>
<text text-anchor="middle" x="260.5" y="-265.5" font-family="FreeSans" font-size="10.00" fill="#000000">ConfigureDetectors</text>
</a>
</g>
</g>
<!-- Node2&#45;&gt;Node13 -->
<g id="edge12" class="edge">
<title>Node2&#45;&gt;Node13</title>
<path fill="none" stroke="#191970" d="M125.0789,-334.2482C137.2715,-319.7022 156.1872,-299.9392 177,-288.5 185.0993,-284.0484 194.1732,-280.58 203.2746,-277.8796"/>
<polygon fill="#191970" stroke="#191970" points="122.2876,-332.1336 118.7135,-342.1074 127.7272,-336.5394 122.2876,-332.1336"/>
</g>
<!-- Node15 -->
<g id="node15" class="node">
<title>Node15</title>
<g id="a_node15"><a xlink:href="../../da/d2f/Fun4All__G4__fsPHENIX__FastSim_8C.html#a66fb850cae5fcaadda23b74a25ce4c9c" target="_top" xlink:title="Fun4All_G4_fsPHENIX\l_FastSim">
<polygon fill="none" stroke="#000000" points="198.5,-207.5 198.5,-239.5 322.5,-239.5 322.5,-207.5 198.5,-207.5"/>
<text text-anchor="start" x="206.5" y="-226.5" font-family="FreeSans" font-size="10.00" fill="#000000">Fun4All_G4_fsPHENIX</text>
<text text-anchor="middle" x="260.5" y="-214.5" font-family="FreeSans" font-size="10.00" fill="#000000">_FastSim</text>
</a>
</g>
</g>
<!-- Node2&#45;&gt;Node15 -->
<g id="edge14" class="edge">
<title>Node2&#45;&gt;Node15</title>
<path fill="none" stroke="#191970" d="M118.6255,-332.8364C128.6118,-309.6143 148.2934,-271.3862 177,-249.5 183.3993,-244.6211 190.7278,-240.648 198.3266,-237.4147"/>
<polygon fill="#191970" stroke="#191970" points="115.2849,-331.7575 114.7218,-342.3374 121.7597,-334.4179 115.2849,-331.7575"/>
</g>
<!-- Node16 -->
<g id="node16" class="node">
<title>Node16</title>
<g id="a_node16"><a xlink:href="../../d3/de2/Fun4All__G4__sPHENIX__AnaGenFit_8C.html#a9bf3f2f72ed69a17e2d0c1121d48013c" target="_top" xlink:title="Fun4All_G4_sPHENIX\l_AnaGenFit">
<polygon fill="none" stroke="#000000" points="200,-156.5 200,-188.5 321,-188.5 321,-156.5 200,-156.5"/>
<text text-anchor="start" x="208" y="-175.5" font-family="FreeSans" font-size="10.00" fill="#000000">Fun4All_G4_sPHENIX</text>
<text text-anchor="middle" x="260.5" y="-163.5" font-family="FreeSans" font-size="10.00" fill="#000000">_AnaGenFit</text>
</a>
</g>
</g>
<!-- Node2&#45;&gt;Node16 -->
<g id="edge15" class="edge">
<title>Node2&#45;&gt;Node16</title>
<path fill="none" stroke="#191970" d="M114.1761,-331.9403C120.3369,-299.0325 137.0034,-234.5743 177,-198.5 183.5393,-192.602 191.4015,-188.0419 199.6517,-184.5163"/>
<polygon fill="#191970" stroke="#191970" points="110.6631,-331.7171 112.4141,-342.1662 117.5614,-332.9058 110.6631,-331.7171"/>
</g>
<!-- Node17 -->
<g id="node17" class="node">
<title>Node17</title>
<g id="a_node17"><a xlink:href="../../d4/d65/Fun4All__single__particle_8C.html#a8a492b5dbead494bfdddbebde8a49b0e" target="_top" xlink:title="Fun4All_single_particle">
<polygon fill="none" stroke="#000000" points="194.5,-117.5 194.5,-137.5 326.5,-137.5 326.5,-117.5 194.5,-117.5"/>
<text text-anchor="middle" x="260.5" y="-124.5" font-family="FreeSans" font-size="10.00" fill="#000000">Fun4All_single_particle</text>
</a>
</g>
</g>
<!-- Node2&#45;&gt;Node17 -->
<g id="edge16" class="edge">
<title>Node2&#45;&gt;Node17</title>
<path fill="none" stroke="#191970" d="M114.8931,-332.3105C124.2557,-285.8036 149.317,-173.1454 177,-147.5 182.0302,-142.84 187.9487,-139.209 194.2739,-136.3875"/>
<polygon fill="#191970" stroke="#191970" points="111.4085,-331.8906 112.9047,-342.3792 118.2759,-333.2468 111.4085,-331.8906"/>
</g>
<!-- Node18 -->
<g id="node18" class="node">
<title>Node18</title>
<g id="a_node18"><a xlink:href="../../da/d02/Fun4All__G4__EICDetector_8C.html#afbe82cefa1d1fd031d9a8586b7bb68c6" target="_top" xlink:title="Fun4All_G4_EICDetector">
<polygon fill="none" stroke="#000000" points="191,-78.5 191,-98.5 330,-98.5 330,-78.5 191,-78.5"/>
<text text-anchor="middle" x="260.5" y="-85.5" font-family="FreeSans" font-size="10.00" fill="#000000">Fun4All_G4_EICDetector</text>
</a>
</g>
</g>
<!-- Node2&#45;&gt;Node18 -->
<g id="edge17" class="edge">
<title>Node2&#45;&gt;Node18</title>
<path fill="none" stroke="#191970" d="M113.8189,-332.0924C121.5186,-279.2807 144.5211,-140.0479 177,-108.5 181.1701,-104.4494 186.0076,-101.1688 191.2123,-98.5176"/>
<polygon fill="#191970" stroke="#191970" points="110.318,-331.8515 112.3735,-342.245 117.2481,-332.8382 110.318,-331.8515"/>
</g>
<!-- Node19 -->
<g id="node19" class="node">
<title>Node19</title>
<g id="a_node19"><a xlink:href="../../d7/d9e/Fun4All__G4__fsPHENIX_8C.html#af48911d394d2412e817583700f2bbee2" target="_top" xlink:title="Fun4All_G4_fsPHENIX">
<polygon fill="none" stroke="#000000" points="198.5,-39.5 198.5,-59.5 322.5,-59.5 322.5,-39.5 198.5,-39.5"/>
<text text-anchor="middle" x="260.5" y="-46.5" font-family="FreeSans" font-size="10.00" fill="#000000">Fun4All_G4_fsPHENIX</text>
</a>
</g>
</g>
<!-- Node2&#45;&gt;Node19 -->
<g id="edge18" class="edge">
<title>Node2&#45;&gt;Node19</title>
<path fill="none" stroke="#191970" d="M113.0097,-332.0106C119.1667,-273.4357 139.6545,-107.0692 177,-69.5 182.9901,-63.474 190.4524,-59.1399 198.4342,-56.0431"/>
<polygon fill="#191970" stroke="#191970" points="109.5014,-331.9148 111.9687,-342.2183 116.4653,-332.6251 109.5014,-331.9148"/>
</g>
<!-- Node20 -->
<g id="node20" class="node">
<title>Node20</title>
<g id="a_node20"><a xlink:href="../../d5/d2c/macros_2blob_2master_2macros_2g4simulations_2Fun4All__G4__sPHENIX_8C.html#a6eaaa492d7023ec86c562dc63aa1e5a4" target="_top" xlink:title="Fun4All_G4_sPHENIX">
<polygon fill="none" stroke="#000000" points="200,-.5 200,-20.5 321,-20.5 321,-.5 200,-.5"/>
<text text-anchor="middle" x="260.5" y="-7.5" font-family="FreeSans" font-size="10.00" fill="#000000">Fun4All_G4_sPHENIX</text>
</a>
</g>
</g>
<!-- Node2&#45;&gt;Node20 -->
<g id="edge19" class="edge">
<title>Node2&#45;&gt;Node20</title>
<path fill="none" stroke="#191970" d="M112.3705,-332.1734C117.0799,-268.4479 134.6998,-74.2163 177,-30.5 183.323,-23.9653 191.3737,-19.4092 199.9696,-16.2599"/>
<polygon fill="#191970" stroke="#191970" points="108.8772,-331.9566 111.6593,-342.1796 115.8596,-332.4529 108.8772,-331.9566"/>
</g>
<!-- Node14 -->
<g id="node14" class="node">
<title>Node14</title>
<g id="a_node14"><a xlink:href="../../d3/d7f/Fun_8C.html#af69a3eef3ff244bb51f5740c6ecb5432" target="_top" xlink:title="Fun">
<polygon fill="none" stroke="#000000" points="380,-258.5 380,-278.5 414,-278.5 414,-258.5 380,-258.5"/>
<text text-anchor="middle" x="397" y="-265.5" font-family="FreeSans" font-size="10.00" fill="#000000">Fun</text>
</a>
</g>
</g>
<!-- Node13&#45;&gt;Node14 -->
<g id="edge13" class="edge">
<title>Node13&#45;&gt;Node14</title>
<path fill="none" stroke="#191970" d="M327.6941,-268.5C347.0852,-268.5 366.59,-268.5 379.9452,-268.5"/>
<polygon fill="#191970" stroke="#191970" points="327.5974,-265.0001 317.5974,-268.5 327.5974,-272.0001 327.5974,-265.0001"/>
</g>
</g>
</svg>
