<?xml version="1.0" encoding="UTF-8" standalone="no"?>
<!DOCTYPE svg PUBLIC "-//W3C//DTD SVG 1.1//EN"
 "http://www.w3.org/Graphics/SVG/1.1/DTD/svg11.dtd">
<!-- Generated by graphviz version 2.40.1 (20161225.0304)
 -->
<!-- Title: CEMC_Towers Pages: 1 -->
<svg width="366pt" height="686pt"
 viewBox="0.00 0.00 366.00 686.00" xmlns="http://www.w3.org/2000/svg" xmlns:xlink="http://www.w3.org/1999/xlink">
<g id="graph0" class="graph" transform="scale(1 1) rotate(0) translate(4 682)">
<title>CEMC_Towers</title>
<!-- Node1 -->
<g id="node1" class="node">
<title>Node1</title>
<polygon fill="#bfbfbf" stroke="#000000" points="0,-340.5 0,-360.5 85,-360.5 85,-340.5 0,-340.5"/>
<text text-anchor="middle" x="42.5" y="-347.5" font-family="FreeSans" font-size="10.00" fill="#000000">CEMC_Towers</text>
</g>
<!-- Node2 -->
<g id="node2" class="node">
<title>Node2</title>
<g id="a_node2"><a xlink:href="../../d3/d7f/Fun_8C.html#af0d3c8a78765149fef9b2beeecfc6279" target="_top" xlink:title="ConfigureDetectors">
<polygon fill="none" stroke="#000000" points="147.5,-657.5 147.5,-677.5 261.5,-677.5 261.5,-657.5 147.5,-657.5"/>
<text text-anchor="middle" x="204.5" y="-664.5" font-family="FreeSans" font-size="10.00" fill="#000000">ConfigureDetectors</text>
</a>
</g>
</g>
<!-- Node1&#45;&gt;Node2 -->
<g id="edge1" class="edge">
<title>Node1&#45;&gt;Node2</title>
<path fill="none" stroke="#191970" d="M45.1182,-370.9241C53.3088,-431.6328 80.3464,-609.1992 121,-648.5 128.2685,-655.5266 137.5671,-660.1609 147.3044,-663.1781"/>
<polygon fill="#191970" stroke="#191970" points="48.5488,-370.167 43.7709,-360.7107 41.6089,-371.0826 48.5488,-370.167"/>
</g>
<!-- Node4 -->
<g id="node4" class="node">
<title>Node4</title>
<g id="a_node4"><a xlink:href="../../da/d02/Fun4All__G4__EICDetector_8C.html#afbe82cefa1d1fd031d9a8586b7bb68c6" target="_top" xlink:title="Fun4All_G4_EICDetector">
<polygon fill="none" stroke="#000000" points="135,-618.5 135,-638.5 274,-638.5 274,-618.5 135,-618.5"/>
<text text-anchor="middle" x="204.5" y="-625.5" font-family="FreeSans" font-size="10.00" fill="#000000">Fun4All_G4_EICDetector</text>
</a>
</g>
</g>
<!-- Node1&#45;&gt;Node4 -->
<g id="edge3" class="edge">
<title>Node1&#45;&gt;Node4</title>
<path fill="none" stroke="#191970" d="M45.8859,-370.3924C55.594,-425.1211 85.1426,-576.0872 121,-609.5 125.1332,-613.3514 129.8792,-616.4781 134.9649,-619.0103"/>
<polygon fill="#191970" stroke="#191970" points="49.3306,-369.7723 44.1663,-360.5213 42.4345,-370.9736 49.3306,-369.7723"/>
</g>
<!-- Node5 -->
<g id="node5" class="node">
<title>Node5</title>
<g id="a_node5"><a xlink:href="../../dd/d2a/Fun4All__G4__EICDetector__LQ_8C.html#aaa01242fd6e77ca43a9d49a6d46008e4" target="_top" xlink:title="Fun4All_G4_EICDetector_LQ">
<polygon fill="none" stroke="#000000" points="126.5,-579.5 126.5,-599.5 282.5,-599.5 282.5,-579.5 126.5,-579.5"/>
<text text-anchor="middle" x="204.5" y="-586.5" font-family="FreeSans" font-size="10.00" fill="#000000">Fun4All_G4_EICDetector_LQ</text>
</a>
</g>
</g>
<!-- Node1&#45;&gt;Node5 -->
<g id="edge4" class="edge">
<title>Node1&#45;&gt;Node5</title>
<path fill="none" stroke="#191970" d="M43.5008,-370.8675C46.7893,-414.4518 60.8617,-517.1238 121,-570.5 125.0029,-574.0528 129.5312,-576.9821 134.358,-579.393"/>
<polygon fill="#191970" stroke="#191970" points="46.9803,-370.4336 42.8523,-360.6761 39.9945,-370.8782 46.9803,-370.4336"/>
</g>
<!-- Node6 -->
<g id="node6" class="node">
<title>Node6</title>
<g id="a_node6"><a xlink:href="../../d4/df5/Fun4All__G4__EICDetector__LQ__reference_8C.html#a2feefc472f17f90b3cbe74897d049f75" target="_top" xlink:title="Fun4All_G4_EICDetector\l_LQ_reference">
<polygon fill="none" stroke="#000000" points="135,-528.5 135,-560.5 274,-560.5 274,-528.5 135,-528.5"/>
<text text-anchor="start" x="143" y="-547.5" font-family="FreeSans" font-size="10.00" fill="#000000">Fun4All_G4_EICDetector</text>
<text text-anchor="middle" x="204.5" y="-535.5" font-family="FreeSans" font-size="10.00" fill="#000000">_LQ_reference</text>
</a>
</g>
</g>
<!-- Node1&#45;&gt;Node6 -->
<g id="edge5" class="edge">
<title>Node1&#45;&gt;Node6</title>
<path fill="none" stroke="#191970" d="M46.2564,-370.6695C53.9054,-406.0594 74.6478,-479.3817 121,-519.5 125.1191,-523.0651 129.7309,-526.1219 134.6155,-528.7429"/>
<polygon fill="#191970" stroke="#191970" points="49.6329,-369.7084 44.2171,-360.6023 42.7722,-371.0981 49.6329,-369.7084"/>
</g>
<!-- Node7 -->
<g id="node7" class="node">
<title>Node7</title>
<g id="a_node7"><a xlink:href="../../d3/d51/Fun4All__G4__EICDetector__RICH_8C.html#a5739502b0a7a1ba782c01069f77e933f" target="_top" xlink:title="Fun4All_G4_EICDetector_RICH">
<polygon fill="none" stroke="#000000" points="121,-489.5 121,-509.5 288,-509.5 288,-489.5 121,-489.5"/>
<text text-anchor="middle" x="204.5" y="-496.5" font-family="FreeSans" font-size="10.00" fill="#000000">Fun4All_G4_EICDetector_RICH</text>
</a>
</g>
</g>
<!-- Node1&#45;&gt;Node7 -->
<g id="edge6" class="edge">
<title>Node1&#45;&gt;Node7</title>
<path fill="none" stroke="#191970" d="M48.8237,-370.2926C59.1214,-399.2037 82.3416,-452.5707 121,-480.5 125.9409,-484.0696 131.441,-486.9832 137.1944,-489.3594"/>
<polygon fill="#191970" stroke="#191970" points="52.0329,-368.858 45.5045,-360.5136 45.4044,-371.1079 52.0329,-368.858"/>
</g>
<!-- Node8 -->
<g id="node8" class="node">
<title>Node8</title>
<g id="a_node8"><a xlink:href="../../d7/d9e/Fun4All__G4__fsPHENIX_8C.html#af48911d394d2412e817583700f2bbee2" target="_top" xlink:title="Fun4All_G4_fsPHENIX">
<polygon fill="none" stroke="#000000" points="142.5,-450.5 142.5,-470.5 266.5,-470.5 266.5,-450.5 142.5,-450.5"/>
<text text-anchor="middle" x="204.5" y="-457.5" font-family="FreeSans" font-size="10.00" fill="#000000">Fun4All_G4_fsPHENIX</text>
</a>
</g>
</g>
<!-- Node1&#45;&gt;Node8 -->
<g id="edge7" class="edge">
<title>Node1&#45;&gt;Node8</title>
<path fill="none" stroke="#191970" d="M53.4516,-369.2C66.7244,-390.1437 91.0731,-423.505 121,-441.5 127.498,-445.4072 134.7209,-448.5117 142.1219,-450.9783"/>
<polygon fill="#191970" stroke="#191970" points="56.3611,-367.2492 48.1524,-360.5508 50.3923,-370.9061 56.3611,-367.2492"/>
</g>
<!-- Node9 -->
<g id="node9" class="node">
<title>Node9</title>
<g id="a_node9"><a xlink:href="../../da/d2f/Fun4All__G4__fsPHENIX__FastSim_8C.html#a66fb850cae5fcaadda23b74a25ce4c9c" target="_top" xlink:title="Fun4All_G4_fsPHENIX\l_FastSim">
<polygon fill="none" stroke="#000000" points="142.5,-399.5 142.5,-431.5 266.5,-431.5 266.5,-399.5 142.5,-399.5"/>
<text text-anchor="start" x="150.5" y="-418.5" font-family="FreeSans" font-size="10.00" fill="#000000">Fun4All_G4_fsPHENIX</text>
<text text-anchor="middle" x="204.5" y="-406.5" font-family="FreeSans" font-size="10.00" fill="#000000">_FastSim</text>
</a>
</g>
</g>
<!-- Node1&#45;&gt;Node9 -->
<g id="edge8" class="edge">
<title>Node1&#45;&gt;Node9</title>
<path fill="none" stroke="#191970" d="M69.2994,-365.6773C84.2157,-373.7339 103.2963,-383.4066 121,-390.5 129.0067,-393.708 137.5874,-396.7269 146.0897,-399.4818"/>
<polygon fill="#191970" stroke="#191970" points="70.6055,-362.4017 60.1548,-360.6596 67.2381,-368.5385 70.6055,-362.4017"/>
</g>
<!-- Node10 -->
<g id="node10" class="node">
<title>Node10</title>
<g id="a_node10"><a xlink:href="../../d0/da6/Fun4All__G4__fsPHENIX__pi0_8C.html#a023d91d47b678e5d7f1751834aa517c6" target="_top" xlink:title="Fun4All_G4_fsPHENIX_pi0">
<polygon fill="none" stroke="#000000" points="132,-360.5 132,-380.5 277,-380.5 277,-360.5 132,-360.5"/>
<text text-anchor="middle" x="204.5" y="-367.5" font-family="FreeSans" font-size="10.00" fill="#000000">Fun4All_G4_fsPHENIX_pi0</text>
</a>
</g>
</g>
<!-- Node1&#45;&gt;Node10 -->
<g id="edge9" class="edge">
<title>Node1&#45;&gt;Node10</title>
<path fill="none" stroke="#191970" d="M95.1053,-356.9945C106.8319,-358.4422 119.4675,-360.0022 131.8407,-361.5297"/>
<polygon fill="#191970" stroke="#191970" points="95.4171,-353.5065 85.0636,-355.7548 94.5594,-360.4537 95.4171,-353.5065"/>
</g>
<!-- Node11 -->
<g id="node11" class="node">
<title>Node11</title>
<g id="a_node11"><a xlink:href="../../d5/d2c/macros_2blob_2master_2macros_2g4simulations_2Fun4All__G4__sPHENIX_8C.html#a6eaaa492d7023ec86c562dc63aa1e5a4" target="_top" xlink:title="Fun4All_G4_sPHENIX">
<polygon fill="none" stroke="#000000" points="144,-321.5 144,-341.5 265,-341.5 265,-321.5 144,-321.5"/>
<text text-anchor="middle" x="204.5" y="-328.5" font-family="FreeSans" font-size="10.00" fill="#000000">Fun4All_G4_sPHENIX</text>
</a>
</g>
</g>
<!-- Node1&#45;&gt;Node11 -->
<g id="edge10" class="edge">
<title>Node1&#45;&gt;Node11</title>
<path fill="none" stroke="#191970" d="M95.0565,-344.336C110.6607,-342.5058 127.8781,-340.4865 143.9468,-338.6019"/>
<polygon fill="#191970" stroke="#191970" points="94.5878,-340.8669 85.0636,-345.508 95.4032,-347.8192 94.5878,-340.8669"/>
</g>
<!-- Node12 -->
<g id="node12" class="node">
<title>Node12</title>
<g id="a_node12"><a xlink:href="../../d3/de2/Fun4All__G4__sPHENIX__AnaGenFit_8C.html#a9bf3f2f72ed69a17e2d0c1121d48013c" target="_top" xlink:title="Fun4All_G4_sPHENIX\l_AnaGenFit">
<polygon fill="none" stroke="#000000" points="144,-270.5 144,-302.5 265,-302.5 265,-270.5 144,-270.5"/>
<text text-anchor="start" x="152" y="-289.5" font-family="FreeSans" font-size="10.00" fill="#000000">Fun4All_G4_sPHENIX</text>
<text text-anchor="middle" x="204.5" y="-277.5" font-family="FreeSans" font-size="10.00" fill="#000000">_AnaGenFit</text>
</a>
</g>
</g>
<!-- Node1&#45;&gt;Node12 -->
<g id="edge11" class="edge">
<title>Node1&#45;&gt;Node12</title>
<path fill="none" stroke="#191970" d="M70.3044,-335.7872C85.1176,-328.2708 103.7885,-319.3016 121,-312.5 129.8959,-308.9845 139.4703,-305.6247 148.8504,-302.5568"/>
<polygon fill="#191970" stroke="#191970" points="68.4732,-332.7932 61.1812,-340.4794 71.6748,-339.0181 68.4732,-332.7932"/>
</g>
<!-- Node13 -->
<g id="node13" class="node">
<title>Node13</title>
<g id="a_node13"><a xlink:href="../../da/dd0/Fun4All__G4__sPHENIX__photonjet_8C.html#a6f18519e216acc05399e562ea57ea77c" target="_top" xlink:title="Fun4All_G4_sPHENIX\l_photonjet">
<polygon fill="none" stroke="#000000" points="144,-219.5 144,-251.5 265,-251.5 265,-219.5 144,-219.5"/>
<text text-anchor="start" x="152" y="-238.5" font-family="FreeSans" font-size="10.00" fill="#000000">Fun4All_G4_sPHENIX</text>
<text text-anchor="middle" x="204.5" y="-226.5" font-family="FreeSans" font-size="10.00" fill="#000000">_photonjet</text>
</a>
</g>
</g>
<!-- Node1&#45;&gt;Node13 -->
<g id="edge12" class="edge">
<title>Node1&#45;&gt;Node13</title>
<path fill="none" stroke="#191970" d="M54.4189,-331.7234C68.1403,-311.5711 92.4901,-279.9729 121,-261.5 128.0081,-256.9591 135.8591,-253.1692 143.8673,-250.0174"/>
<polygon fill="#191970" stroke="#191970" points="51.3186,-330.0667 48.7252,-340.3392 57.1586,-333.9261 51.3186,-330.0667"/>
</g>
<!-- Node14 -->
<g id="node14" class="node">
<title>Node14</title>
<g id="a_node14"><a xlink:href="../../da/d85/Fun4All__G4__sPHENIX__photons_8C.html#a02fbbd59878fe1299f58ed187e7214ba" target="_top" xlink:title="Fun4All_G4_sPHENIX\l_photons">
<polygon fill="none" stroke="#000000" points="144,-168.5 144,-200.5 265,-200.5 265,-168.5 144,-168.5"/>
<text text-anchor="start" x="152" y="-187.5" font-family="FreeSans" font-size="10.00" fill="#000000">Fun4All_G4_sPHENIX</text>
<text text-anchor="middle" x="204.5" y="-175.5" font-family="FreeSans" font-size="10.00" fill="#000000">_photons</text>
</a>
</g>
</g>
<!-- Node1&#45;&gt;Node14 -->
<g id="edge13" class="edge">
<title>Node1&#45;&gt;Node14</title>
<path fill="none" stroke="#191970" d="M48.4117,-330.4602C58.3939,-300.0794 81.4658,-242.523 121,-210.5 127.7249,-205.0527 135.5948,-200.7423 143.7662,-197.3324"/>
<polygon fill="#191970" stroke="#191970" points="44.9706,-329.7368 45.32,-340.3259 51.6503,-331.8301 44.9706,-329.7368"/>
</g>
<!-- Node15 -->
<g id="node15" class="node">
<title>Node15</title>
<g id="a_node15"><a xlink:href="../../de/d55/Fun4All__G4__sPHENIX__truthphotonjet_8C.html#a48a6f4503eaa1b3793d8ae572aa795b9" target="_top" xlink:title="Fun4All_G4_sPHENIX\l_truthphotonjet">
<polygon fill="none" stroke="#000000" points="144,-117.5 144,-149.5 265,-149.5 265,-117.5 144,-117.5"/>
<text text-anchor="start" x="152" y="-136.5" font-family="FreeSans" font-size="10.00" fill="#000000">Fun4All_G4_sPHENIX</text>
<text text-anchor="middle" x="204.5" y="-124.5" font-family="FreeSans" font-size="10.00" fill="#000000">_truthphotonjet</text>
</a>
</g>
</g>
<!-- Node1&#45;&gt;Node15 -->
<g id="edge14" class="edge">
<title>Node1&#45;&gt;Node15</title>
<path fill="none" stroke="#191970" d="M45.1549,-329.9521C51.2737,-291.0158 69.979,-206.2136 121,-159.5 127.607,-153.4508 135.6038,-148.8089 143.9988,-145.2469"/>
<polygon fill="#191970" stroke="#191970" points="41.6603,-329.6629 43.6918,-340.0611 48.5882,-330.6656 41.6603,-329.6629"/>
</g>
<!-- Node16 -->
<g id="node16" class="node">
<title>Node16</title>
<g id="a_node16"><a xlink:href="../../d4/d65/Fun4All__single__particle_8C.html#a8a492b5dbead494bfdddbebde8a49b0e" target="_top" xlink:title="Fun4All_single_particle">
<polygon fill="none" stroke="#000000" points="138.5,-78.5 138.5,-98.5 270.5,-98.5 270.5,-78.5 138.5,-78.5"/>
<text text-anchor="middle" x="204.5" y="-85.5" font-family="FreeSans" font-size="10.00" fill="#000000">Fun4All_single_particle</text>
</a>
</g>
</g>
<!-- Node1&#45;&gt;Node16 -->
<g id="edge15" class="edge">
<title>Node1&#45;&gt;Node16</title>
<path fill="none" stroke="#191970" d="M46.4353,-330.2196C57.0135,-277.7432 87.5339,-139.4345 121,-108.5 126.0354,-103.8455 131.9571,-100.218 138.2842,-97.3987"/>
<polygon fill="#191970" stroke="#191970" points="42.9468,-329.8186 44.4356,-340.3083 49.8132,-331.1797 42.9468,-329.8186"/>
</g>
<!-- Node17 -->
<g id="node17" class="node">
<title>Node17</title>
<g id="a_node17"><a xlink:href="../../d0/d99/Jin__BJet_8C.html#a36169bfee2ed7efda633944d12aebad9" target="_top" xlink:title="Jin_BJet">
<polygon fill="none" stroke="#000000" points="177,-39.5 177,-59.5 232,-59.5 232,-39.5 177,-39.5"/>
<text text-anchor="middle" x="204.5" y="-46.5" font-family="FreeSans" font-size="10.00" fill="#000000">Jin_BJet</text>
</a>
</g>
</g>
<!-- Node1&#45;&gt;Node17 -->
<g id="edge16" class="edge">
<title>Node1&#45;&gt;Node17</title>
<path fill="none" stroke="#191970" d="M45.4827,-330.1163C54.4113,-271.8491 82.6972,-106.3993 121,-69.5 135.7075,-55.3314 158.5871,-50.5998 176.68,-49.2624"/>
<polygon fill="#191970" stroke="#191970" points="41.9818,-329.8618 43.9579,-340.2707 48.9042,-330.9014 41.9818,-329.8618"/>
</g>
<!-- Node18 -->
<g id="node18" class="node">
<title>Node18</title>
<g id="a_node18"><a xlink:href="../../dd/db1/Wrapper_8cxx.html#abf1e42281903daa0752c80dd6c879fac" target="_top" xlink:title="Wrapper">
<polygon fill="none" stroke="#000000" points="174.5,-.5 174.5,-20.5 234.5,-20.5 234.5,-.5 174.5,-.5"/>
<text text-anchor="middle" x="204.5" y="-7.5" font-family="FreeSans" font-size="10.00" fill="#000000">Wrapper</text>
</a>
</g>
</g>
<!-- Node1&#45;&gt;Node18 -->
<g id="edge17" class="edge">
<title>Node1&#45;&gt;Node18</title>
<path fill="none" stroke="#191970" d="M44.7235,-330.2623C52.0974,-266.8212 77.7643,-73.4998 121,-30.5 134.8458,-16.7297 156.3863,-11.8153 174.1208,-10.2992"/>
<polygon fill="#191970" stroke="#191970" points="41.243,-329.8934 43.5932,-340.2243 48.1983,-330.6826 41.243,-329.8934"/>
</g>
<!-- Node3 -->
<g id="node3" class="node">
<title>Node3</title>
<g id="a_node3"><a xlink:href="../../d3/d7f/Fun_8C.html#af69a3eef3ff244bb51f5740c6ecb5432" target="_top" xlink:title="Fun">
<polygon fill="none" stroke="#000000" points="324,-657.5 324,-677.5 358,-677.5 358,-657.5 324,-657.5"/>
<text text-anchor="middle" x="341" y="-664.5" font-family="FreeSans" font-size="10.00" fill="#000000">Fun</text>
</a>
</g>
</g>
<!-- Node2&#45;&gt;Node3 -->
<g id="edge2" class="edge">
<title>Node2&#45;&gt;Node3</title>
<path fill="none" stroke="#191970" d="M271.6941,-667.5C291.0852,-667.5 310.59,-667.5 323.9452,-667.5"/>
<polygon fill="#191970" stroke="#191970" points="271.5974,-664.0001 261.5974,-667.5 271.5974,-671.0001 271.5974,-664.0001"/>
</g>
</g>
</svg>
