<?xml version="1.0" encoding="UTF-8" standalone="no"?>
<!DOCTYPE svg PUBLIC "-//W3C//DTD SVG 1.1//EN"
 "http://www.w3.org/Graphics/SVG/1.1/DTD/svg11.dtd">
<!-- Generated by graphviz version 2.40.1 (20161225.0304)
 -->
<!-- Title: CEMC_Eval Pages: 1 -->
<svg width="352pt" height="647pt"
 viewBox="0.00 0.00 352.00 647.00" xmlns="http://www.w3.org/2000/svg" xmlns:xlink="http://www.w3.org/1999/xlink">
<g id="graph0" class="graph" transform="scale(1 1) rotate(0) translate(4 643)">
<title>CEMC_Eval</title>
<!-- Node1 -->
<g id="node1" class="node">
<title>Node1</title>
<polygon fill="#bfbfbf" stroke="#000000" points="0,-321.5 0,-341.5 71,-341.5 71,-321.5 0,-321.5"/>
<text text-anchor="middle" x="35.5" y="-328.5" font-family="FreeSans" font-size="10.00" fill="#000000">CEMC_Eval</text>
</g>
<!-- Node2 -->
<g id="node2" class="node">
<title>Node2</title>
<g id="a_node2"><a xlink:href="../../d3/d7f/Fun_8C.html#af0d3c8a78765149fef9b2beeecfc6279" target="_top" xlink:title="ConfigureDetectors">
<polygon fill="none" stroke="#000000" points="133.5,-618.5 133.5,-638.5 247.5,-638.5 247.5,-618.5 133.5,-618.5"/>
<text text-anchor="middle" x="190.5" y="-625.5" font-family="FreeSans" font-size="10.00" fill="#000000">ConfigureDetectors</text>
</a>
</g>
</g>
<!-- Node1&#45;&gt;Node2 -->
<g id="edge1" class="edge">
<title>Node1&#45;&gt;Node2</title>
<path fill="none" stroke="#191970" d="M37.9623,-351.6687C45.4049,-409.3208 69.4853,-573.0213 107,-609.5 114.248,-616.5478 123.5369,-621.192 133.2712,-624.2123"/>
<polygon fill="#191970" stroke="#191970" points="41.4191,-351.1055 36.6965,-341.6214 34.474,-351.9805 41.4191,-351.1055"/>
</g>
<!-- Node4 -->
<g id="node4" class="node">
<title>Node4</title>
<g id="a_node4"><a xlink:href="../../da/d02/Fun4All__G4__EICDetector_8C.html#afbe82cefa1d1fd031d9a8586b7bb68c6" target="_top" xlink:title="Fun4All_G4_EICDetector">
<polygon fill="none" stroke="#000000" points="121,-579.5 121,-599.5 260,-599.5 260,-579.5 121,-579.5"/>
<text text-anchor="middle" x="190.5" y="-586.5" font-family="FreeSans" font-size="10.00" fill="#000000">Fun4All_G4_EICDetector</text>
</a>
</g>
</g>
<!-- Node1&#45;&gt;Node4 -->
<g id="edge3" class="edge">
<title>Node1&#45;&gt;Node4</title>
<path fill="none" stroke="#191970" d="M38.8411,-351.5321C47.883,-403.3656 74.3616,-539.9769 107,-570.5 111.1263,-574.3588 115.8674,-577.4907 120.9498,-580.0265"/>
<polygon fill="#191970" stroke="#191970" points="42.2726,-350.8338 37.1369,-341.567 35.3728,-352.0139 42.2726,-350.8338"/>
</g>
<!-- Node5 -->
<g id="node5" class="node">
<title>Node5</title>
<g id="a_node5"><a xlink:href="../../d4/df5/Fun4All__G4__EICDetector__LQ__reference_8C.html#a2feefc472f17f90b3cbe74897d049f75" target="_top" xlink:title="Fun4All_G4_EICDetector\l_LQ_reference">
<polygon fill="none" stroke="#000000" points="121,-528.5 121,-560.5 260,-560.5 260,-528.5 121,-528.5"/>
<text text-anchor="start" x="129" y="-547.5" font-family="FreeSans" font-size="10.00" fill="#000000">Fun4All_G4_EICDetector</text>
<text text-anchor="middle" x="190.5" y="-535.5" font-family="FreeSans" font-size="10.00" fill="#000000">_LQ_reference</text>
</a>
</g>
</g>
<!-- Node1&#45;&gt;Node5 -->
<g id="edge4" class="edge">
<title>Node1&#45;&gt;Node5</title>
<path fill="none" stroke="#191970" d="M37.3962,-351.7423C42.0785,-390.0964 57.6603,-473.6146 107,-519.5 111.1,-523.3129 115.7591,-526.5459 120.73,-529.287"/>
<polygon fill="#191970" stroke="#191970" points="40.8736,-351.3439 36.3062,-341.7841 33.9151,-352.1056 40.8736,-351.3439"/>
</g>
<!-- Node6 -->
<g id="node6" class="node">
<title>Node6</title>
<g id="a_node6"><a xlink:href="../../d3/d51/Fun4All__G4__EICDetector__RICH_8C.html#a5739502b0a7a1ba782c01069f77e933f" target="_top" xlink:title="Fun4All_G4_EICDetector_RICH">
<polygon fill="none" stroke="#000000" points="107,-489.5 107,-509.5 274,-509.5 274,-489.5 107,-489.5"/>
<text text-anchor="middle" x="190.5" y="-496.5" font-family="FreeSans" font-size="10.00" fill="#000000">Fun4All_G4_EICDetector_RICH</text>
</a>
</g>
</g>
<!-- Node1&#45;&gt;Node6 -->
<g id="edge5" class="edge">
<title>Node1&#45;&gt;Node6</title>
<path fill="none" stroke="#191970" d="M39.3551,-351.797C46.6132,-384.207 65.4742,-447.3597 107,-480.5 111.5319,-484.1167 116.6209,-487.0725 121.992,-489.4846"/>
<polygon fill="#191970" stroke="#191970" points="42.7205,-350.7902 37.2535,-341.7149 35.8678,-352.2187 42.7205,-350.7902"/>
</g>
<!-- Node7 -->
<g id="node7" class="node">
<title>Node7</title>
<g id="a_node7"><a xlink:href="../../d7/d9e/Fun4All__G4__fsPHENIX_8C.html#af48911d394d2412e817583700f2bbee2" target="_top" xlink:title="Fun4All_G4_fsPHENIX">
<polygon fill="none" stroke="#000000" points="128.5,-450.5 128.5,-470.5 252.5,-470.5 252.5,-450.5 128.5,-450.5"/>
<text text-anchor="middle" x="190.5" y="-457.5" font-family="FreeSans" font-size="10.00" fill="#000000">Fun4All_G4_fsPHENIX</text>
</a>
</g>
</g>
<!-- Node1&#45;&gt;Node7 -->
<g id="edge6" class="edge">
<title>Node1&#45;&gt;Node7</title>
<path fill="none" stroke="#191970" d="M42.7808,-351.095C53.1145,-376.0959 74.4715,-418.8098 107,-441.5 113.4626,-446.008 120.8283,-449.4638 128.4461,-452.1098"/>
<polygon fill="#191970" stroke="#191970" points="45.9511,-349.5936 39.0265,-341.5748 39.4391,-352.1616 45.9511,-349.5936"/>
</g>
<!-- Node8 -->
<g id="node8" class="node">
<title>Node8</title>
<g id="a_node8"><a xlink:href="../../da/d2f/Fun4All__G4__fsPHENIX__FastSim_8C.html#a66fb850cae5fcaadda23b74a25ce4c9c" target="_top" xlink:title="Fun4All_G4_fsPHENIX\l_FastSim">
<polygon fill="none" stroke="#000000" points="128.5,-399.5 128.5,-431.5 252.5,-431.5 252.5,-399.5 128.5,-399.5"/>
<text text-anchor="start" x="136.5" y="-418.5" font-family="FreeSans" font-size="10.00" fill="#000000">Fun4All_G4_fsPHENIX</text>
<text text-anchor="middle" x="190.5" y="-406.5" font-family="FreeSans" font-size="10.00" fill="#000000">_FastSim</text>
</a>
</g>
</g>
<!-- Node1&#45;&gt;Node8 -->
<g id="edge7" class="edge">
<title>Node1&#45;&gt;Node8</title>
<path fill="none" stroke="#191970" d="M52.4315,-348.8361C66.0838,-361.9315 86.3501,-379.4748 107,-390.5 113.6744,-394.0635 120.9269,-397.1887 128.2771,-399.9109"/>
<polygon fill="#191970" stroke="#191970" points="54.7867,-346.2433 45.2047,-341.7227 49.8762,-351.232 54.7867,-346.2433"/>
</g>
<!-- Node9 -->
<g id="node9" class="node">
<title>Node9</title>
<g id="a_node9"><a xlink:href="../../d0/da6/Fun4All__G4__fsPHENIX__pi0_8C.html#a023d91d47b678e5d7f1751834aa517c6" target="_top" xlink:title="Fun4All_G4_fsPHENIX_pi0">
<polygon fill="none" stroke="#000000" points="118,-360.5 118,-380.5 263,-380.5 263,-360.5 118,-360.5"/>
<text text-anchor="middle" x="190.5" y="-367.5" font-family="FreeSans" font-size="10.00" fill="#000000">Fun4All_G4_fsPHENIX_pi0</text>
</a>
</g>
</g>
<!-- Node1&#45;&gt;Node9 -->
<g id="edge8" class="edge">
<title>Node1&#45;&gt;Node9</title>
<path fill="none" stroke="#191970" d="M79.8527,-344.2705C88.818,-346.7492 98.1943,-349.268 107,-351.5 119.1055,-354.5684 132.2569,-357.6688 144.4645,-360.4499"/>
<polygon fill="#191970" stroke="#191970" points="80.5305,-340.826 69.9576,-341.5067 78.6473,-347.5679 80.5305,-340.826"/>
</g>
<!-- Node10 -->
<g id="node10" class="node">
<title>Node10</title>
<g id="a_node10"><a xlink:href="../../d5/d2c/macros_2blob_2master_2macros_2g4simulations_2Fun4All__G4__sPHENIX_8C.html#a6eaaa492d7023ec86c562dc63aa1e5a4" target="_top" xlink:title="Fun4All_G4_sPHENIX">
<polygon fill="none" stroke="#000000" points="130,-321.5 130,-341.5 251,-341.5 251,-321.5 130,-321.5"/>
<text text-anchor="middle" x="190.5" y="-328.5" font-family="FreeSans" font-size="10.00" fill="#000000">Fun4All_G4_sPHENIX</text>
</a>
</g>
</g>
<!-- Node1&#45;&gt;Node10 -->
<g id="edge9" class="edge">
<title>Node1&#45;&gt;Node10</title>
<path fill="none" stroke="#191970" d="M81.2538,-331.5C96.4881,-331.5 113.7009,-331.5 129.8818,-331.5"/>
<polygon fill="#191970" stroke="#191970" points="81.0602,-328.0001 71.0601,-331.5 81.0601,-335.0001 81.0602,-328.0001"/>
</g>
<!-- Node11 -->
<g id="node11" class="node">
<title>Node11</title>
<g id="a_node11"><a xlink:href="../../d3/de2/Fun4All__G4__sPHENIX__AnaGenFit_8C.html#a9bf3f2f72ed69a17e2d0c1121d48013c" target="_top" xlink:title="Fun4All_G4_sPHENIX\l_AnaGenFit">
<polygon fill="none" stroke="#000000" points="130,-270.5 130,-302.5 251,-302.5 251,-270.5 130,-270.5"/>
<text text-anchor="start" x="138" y="-289.5" font-family="FreeSans" font-size="10.00" fill="#000000">Fun4All_G4_sPHENIX</text>
<text text-anchor="middle" x="190.5" y="-277.5" font-family="FreeSans" font-size="10.00" fill="#000000">_AnaGenFit</text>
</a>
</g>
</g>
<!-- Node1&#45;&gt;Node11 -->
<g id="edge10" class="edge">
<title>Node1&#45;&gt;Node11</title>
<path fill="none" stroke="#191970" d="M80.0594,-318.5634C97.2376,-313.5762 117.0686,-307.8188 135.145,-302.5708"/>
<polygon fill="#191970" stroke="#191970" points="78.9126,-315.2517 70.285,-321.4011 80.8644,-321.9742 78.9126,-315.2517"/>
</g>
<!-- Node12 -->
<g id="node12" class="node">
<title>Node12</title>
<g id="a_node12"><a xlink:href="../../da/dd0/Fun4All__G4__sPHENIX__photonjet_8C.html#a6f18519e216acc05399e562ea57ea77c" target="_top" xlink:title="Fun4All_G4_sPHENIX\l_photonjet">
<polygon fill="none" stroke="#000000" points="130,-219.5 130,-251.5 251,-251.5 251,-219.5 130,-219.5"/>
<text text-anchor="start" x="138" y="-238.5" font-family="FreeSans" font-size="10.00" fill="#000000">Fun4All_G4_sPHENIX</text>
<text text-anchor="middle" x="190.5" y="-226.5" font-family="FreeSans" font-size="10.00" fill="#000000">_photonjet</text>
</a>
</g>
</g>
<!-- Node1&#45;&gt;Node12 -->
<g id="edge11" class="edge">
<title>Node1&#45;&gt;Node12</title>
<path fill="none" stroke="#191970" d="M49.6813,-313.4151C62.943,-297.6334 84.0965,-275.1771 107,-261.5 114.0392,-257.2964 121.8241,-253.7094 129.7268,-250.6658"/>
<polygon fill="#191970" stroke="#191970" points="46.7772,-311.4379 43.1646,-321.3978 52.1998,-315.8646 46.7772,-311.4379"/>
</g>
<!-- Node13 -->
<g id="node13" class="node">
<title>Node13</title>
<g id="a_node13"><a xlink:href="../../da/d85/Fun4All__G4__sPHENIX__photons_8C.html#a02fbbd59878fe1299f58ed187e7214ba" target="_top" xlink:title="Fun4All_G4_sPHENIX\l_photons">
<polygon fill="none" stroke="#000000" points="130,-168.5 130,-200.5 251,-200.5 251,-168.5 130,-168.5"/>
<text text-anchor="start" x="138" y="-187.5" font-family="FreeSans" font-size="10.00" fill="#000000">Fun4All_G4_sPHENIX</text>
<text text-anchor="middle" x="190.5" y="-175.5" font-family="FreeSans" font-size="10.00" fill="#000000">_photons</text>
</a>
</g>
</g>
<!-- Node1&#45;&gt;Node13 -->
<g id="edge12" class="edge">
<title>Node1&#45;&gt;Node13</title>
<path fill="none" stroke="#191970" d="M41.9749,-311.9022C51.8114,-285.1244 73.0485,-237.3692 107,-210.5 113.7863,-205.1293 121.6901,-200.8613 129.8774,-197.4712"/>
<polygon fill="#191970" stroke="#191970" points="38.665,-310.7643 38.6573,-321.3591 45.2704,-313.0816 38.665,-310.7643"/>
</g>
<!-- Node14 -->
<g id="node14" class="node">
<title>Node14</title>
<g id="a_node14"><a xlink:href="../../de/d55/Fun4All__G4__sPHENIX__truthphotonjet_8C.html#a48a6f4503eaa1b3793d8ae572aa795b9" target="_top" xlink:title="Fun4All_G4_sPHENIX\l_truthphotonjet">
<polygon fill="none" stroke="#000000" points="130,-117.5 130,-149.5 251,-149.5 251,-117.5 130,-117.5"/>
<text text-anchor="start" x="138" y="-136.5" font-family="FreeSans" font-size="10.00" fill="#000000">Fun4All_G4_sPHENIX</text>
<text text-anchor="middle" x="190.5" y="-124.5" font-family="FreeSans" font-size="10.00" fill="#000000">_truthphotonjet</text>
</a>
</g>
</g>
<!-- Node1&#45;&gt;Node14 -->
<g id="edge13" class="edge">
<title>Node1&#45;&gt;Node14</title>
<path fill="none" stroke="#191970" d="M38.3017,-311.0655C44.2982,-275.193 61.7206,-200.79 107,-159.5 113.507,-153.5664 121.3515,-148.9868 129.5937,-145.4524"/>
<polygon fill="#191970" stroke="#191970" points="34.7935,-310.8524 36.7355,-321.2677 41.7125,-311.9146 34.7935,-310.8524"/>
</g>
<!-- Node15 -->
<g id="node15" class="node">
<title>Node15</title>
<g id="a_node15"><a xlink:href="../../d4/d65/Fun4All__single__particle_8C.html#a8a492b5dbead494bfdddbebde8a49b0e" target="_top" xlink:title="Fun4All_single_particle">
<polygon fill="none" stroke="#000000" points="124.5,-78.5 124.5,-98.5 256.5,-98.5 256.5,-78.5 124.5,-78.5"/>
<text text-anchor="middle" x="190.5" y="-85.5" font-family="FreeSans" font-size="10.00" fill="#000000">Fun4All_single_particle</text>
</a>
</g>
</g>
<!-- Node1&#45;&gt;Node15 -->
<g id="edge14" class="edge">
<title>Node1&#45;&gt;Node15</title>
<path fill="none" stroke="#191970" d="M39.3736,-311.1997C49.2176,-261.6881 76.58,-136.7148 107,-108.5 112.0274,-103.837 117.9442,-100.204 124.2682,-97.3814"/>
<polygon fill="#191970" stroke="#191970" points="35.8798,-310.8294 37.3989,-321.3148 42.7502,-312.1707 35.8798,-310.8294"/>
</g>
<!-- Node16 -->
<g id="node16" class="node">
<title>Node16</title>
<g id="a_node16"><a xlink:href="../../d0/d99/Jin__BJet_8C.html#a36169bfee2ed7efda633944d12aebad9" target="_top" xlink:title="Jin_BJet">
<polygon fill="none" stroke="#000000" points="163,-39.5 163,-59.5 218,-59.5 218,-39.5 163,-39.5"/>
<text text-anchor="middle" x="190.5" y="-46.5" font-family="FreeSans" font-size="10.00" fill="#000000">Jin_BJet</text>
</a>
</g>
</g>
<!-- Node1&#45;&gt;Node16 -->
<g id="edge15" class="edge">
<title>Node1&#45;&gt;Node16</title>
<path fill="none" stroke="#191970" d="M38.3108,-311.4212C46.4425,-256.1734 71.6818,-103.7289 107,-69.5 121.6649,-55.2874 144.5475,-50.5589 162.6524,-49.2339"/>
<polygon fill="#191970" stroke="#191970" points="34.8371,-310.9887 36.8761,-321.3855 41.7657,-311.9864 34.8371,-310.9887"/>
</g>
<!-- Node17 -->
<g id="node17" class="node">
<title>Node17</title>
<g id="a_node17"><a xlink:href="../../dd/db1/Wrapper_8cxx.html#abf1e42281903daa0752c80dd6c879fac" target="_top" xlink:title="Wrapper">
<polygon fill="none" stroke="#000000" points="160.5,-.5 160.5,-20.5 220.5,-20.5 220.5,-.5 160.5,-.5"/>
<text text-anchor="middle" x="190.5" y="-7.5" font-family="FreeSans" font-size="10.00" fill="#000000">Wrapper</text>
</a>
</g>
</g>
<!-- Node1&#45;&gt;Node17 -->
<g id="edge16" class="edge">
<title>Node1&#45;&gt;Node17</title>
<path fill="none" stroke="#191970" d="M37.6046,-310.9141C44.2734,-249.7181 66.8977,-70.6775 107,-30.5 120.9005,-16.5735 142.6662,-11.6913 160.4903,-10.2291"/>
<polygon fill="#191970" stroke="#191970" points="34.087,-310.8958 36.5136,-321.209 41.048,-311.6336 34.087,-310.8958"/>
</g>
<!-- Node3 -->
<g id="node3" class="node">
<title>Node3</title>
<g id="a_node3"><a xlink:href="../../d3/d7f/Fun_8C.html#af69a3eef3ff244bb51f5740c6ecb5432" target="_top" xlink:title="Fun">
<polygon fill="none" stroke="#000000" points="310,-618.5 310,-638.5 344,-638.5 344,-618.5 310,-618.5"/>
<text text-anchor="middle" x="327" y="-625.5" font-family="FreeSans" font-size="10.00" fill="#000000">Fun</text>
</a>
</g>
</g>
<!-- Node2&#45;&gt;Node3 -->
<g id="edge2" class="edge">
<title>Node2&#45;&gt;Node3</title>
<path fill="none" stroke="#191970" d="M257.6941,-628.5C277.0852,-628.5 296.59,-628.5 309.9452,-628.5"/>
<polygon fill="#191970" stroke="#191970" points="257.5974,-625.0001 247.5974,-628.5 257.5974,-632.0001 257.5974,-625.0001"/>
</g>
</g>
</svg>
