<?xml version="1.0" encoding="UTF-8" standalone="no"?>
<!DOCTYPE svg PUBLIC "-//W3C//DTD SVG 1.1//EN"
 "http://www.w3.org/Graphics/SVG/1.1/DTD/svg11.dtd">
<!-- Generated by graphviz version 2.40.1 (20161225.0304)
 -->
<!-- Title: CEMC_Cells Pages: 1 -->
<svg width="355pt" height="686pt"
 viewBox="0.00 0.00 355.00 686.00" xmlns="http://www.w3.org/2000/svg" xmlns:xlink="http://www.w3.org/1999/xlink">
<g id="graph0" class="graph" transform="scale(1 1) rotate(0) translate(4 682)">
<title>CEMC_Cells</title>
<!-- Node1 -->
<g id="node1" class="node">
<title>Node1</title>
<polygon fill="#bfbfbf" stroke="#000000" points="0,-340.5 0,-360.5 74,-360.5 74,-340.5 0,-340.5"/>
<text text-anchor="middle" x="37" y="-347.5" font-family="FreeSans" font-size="10.00" fill="#000000">CEMC_Cells</text>
</g>
<!-- Node2 -->
<g id="node2" class="node">
<title>Node2</title>
<g id="a_node2"><a xlink:href="../../d3/d7f/Fun_8C.html#af0d3c8a78765149fef9b2beeecfc6279" target="_top" xlink:title="ConfigureDetectors">
<polygon fill="none" stroke="#000000" points="136.5,-657.5 136.5,-677.5 250.5,-677.5 250.5,-657.5 136.5,-657.5"/>
<text text-anchor="middle" x="193.5" y="-664.5" font-family="FreeSans" font-size="10.00" fill="#000000">ConfigureDetectors</text>
</a>
</g>
</g>
<!-- Node1&#45;&gt;Node2 -->
<g id="edge1" class="edge">
<title>Node1&#45;&gt;Node2</title>
<path fill="none" stroke="#191970" d="M39.2225,-370.908C46.2396,-431.5712 69.8658,-609.0226 110,-648.5 117.2073,-655.5894 126.4772,-660.2531 136.2054,-663.2796"/>
<polygon fill="#191970" stroke="#191970" points="42.6704,-370.2477 38.0728,-360.7025 35.7144,-371.0315 42.6704,-370.2477"/>
</g>
<!-- Node4 -->
<g id="node4" class="node">
<title>Node4</title>
<g id="a_node4"><a xlink:href="../../da/d02/Fun4All__G4__EICDetector_8C.html#afbe82cefa1d1fd031d9a8586b7bb68c6" target="_top" xlink:title="Fun4All_G4_EICDetector">
<polygon fill="none" stroke="#000000" points="124,-618.5 124,-638.5 263,-638.5 263,-618.5 124,-618.5"/>
<text text-anchor="middle" x="193.5" y="-625.5" font-family="FreeSans" font-size="10.00" fill="#000000">Fun4All_G4_EICDetector</text>
</a>
</g>
</g>
<!-- Node1&#45;&gt;Node4 -->
<g id="edge3" class="edge">
<title>Node1&#45;&gt;Node4</title>
<path fill="none" stroke="#191970" d="M39.9986,-370.7201C48.5529,-425.6926 74.7475,-576.0008 110,-609.5 114.0953,-613.3917 118.8147,-616.5466 123.8825,-619.0978"/>
<polygon fill="#191970" stroke="#191970" points="43.4098,-369.872 38.444,-360.513 36.4896,-370.926 43.4098,-369.872"/>
</g>
<!-- Node5 -->
<g id="node5" class="node">
<title>Node5</title>
<g id="a_node5"><a xlink:href="../../dd/d2a/Fun4All__G4__EICDetector__LQ_8C.html#aaa01242fd6e77ca43a9d49a6d46008e4" target="_top" xlink:title="Fun4All_G4_EICDetector_LQ">
<polygon fill="none" stroke="#000000" points="115.5,-579.5 115.5,-599.5 271.5,-599.5 271.5,-579.5 115.5,-579.5"/>
<text text-anchor="middle" x="193.5" y="-586.5" font-family="FreeSans" font-size="10.00" fill="#000000">Fun4All_G4_EICDetector_LQ</text>
</a>
</g>
</g>
<!-- Node1&#45;&gt;Node5 -->
<g id="edge4" class="edge">
<title>Node1&#45;&gt;Node5</title>
<path fill="none" stroke="#191970" d="M41.035,-370.5559C51.269,-419.4671 79.592,-542.8976 110,-570.5 113.9629,-574.0973 118.4626,-577.0586 123.2695,-579.4916"/>
<polygon fill="#191970" stroke="#191970" points="44.4227,-369.6532 38.9803,-360.5631 37.5661,-371.0631 44.4227,-369.6532"/>
</g>
<!-- Node6 -->
<g id="node6" class="node">
<title>Node6</title>
<g id="a_node6"><a xlink:href="../../d4/df5/Fun4All__G4__EICDetector__LQ__reference_8C.html#a2feefc472f17f90b3cbe74897d049f75" target="_top" xlink:title="Fun4All_G4_EICDetector\l_LQ_reference">
<polygon fill="none" stroke="#000000" points="124,-528.5 124,-560.5 263,-560.5 263,-528.5 124,-528.5"/>
<text text-anchor="start" x="132" y="-547.5" font-family="FreeSans" font-size="10.00" fill="#000000">Fun4All_G4_EICDetector</text>
<text text-anchor="middle" x="193.5" y="-535.5" font-family="FreeSans" font-size="10.00" fill="#000000">_LQ_reference</text>
</a>
</g>
</g>
<!-- Node1&#45;&gt;Node6 -->
<g id="edge5" class="edge">
<title>Node1&#45;&gt;Node6</title>
<path fill="none" stroke="#191970" d="M40.0585,-370.6427C46.4908,-405.9906 64.7485,-479.2491 110,-519.5 114.1835,-523.2212 118.9019,-526.3889 123.9133,-529.0855"/>
<polygon fill="#191970" stroke="#191970" points="43.4775,-369.8685 38.3664,-360.5881 36.5746,-371.0303 43.4775,-369.8685"/>
</g>
<!-- Node7 -->
<g id="node7" class="node">
<title>Node7</title>
<g id="a_node7"><a xlink:href="../../d3/d51/Fun4All__G4__EICDetector__RICH_8C.html#a5739502b0a7a1ba782c01069f77e933f" target="_top" xlink:title="Fun4All_G4_EICDetector_RICH">
<polygon fill="none" stroke="#000000" points="110,-489.5 110,-509.5 277,-509.5 277,-489.5 110,-489.5"/>
<text text-anchor="middle" x="193.5" y="-496.5" font-family="FreeSans" font-size="10.00" fill="#000000">Fun4All_G4_EICDetector_RICH</text>
</a>
</g>
</g>
<!-- Node1&#45;&gt;Node7 -->
<g id="edge6" class="edge">
<title>Node1&#45;&gt;Node7</title>
<path fill="none" stroke="#191970" d="M42.4762,-370.2702C51.5379,-399.1528 72.4842,-452.484 110,-480.5 114.7648,-484.0583 120.0792,-486.9684 125.6551,-489.3462"/>
<polygon fill="#191970" stroke="#191970" points="45.7773,-369.0914 39.5753,-360.5014 39.0669,-371.0841 45.7773,-369.0914"/>
</g>
<!-- Node8 -->
<g id="node8" class="node">
<title>Node8</title>
<g id="a_node8"><a xlink:href="../../d7/d9e/Fun4All__G4__fsPHENIX_8C.html#af48911d394d2412e817583700f2bbee2" target="_top" xlink:title="Fun4All_G4_fsPHENIX">
<polygon fill="none" stroke="#000000" points="131.5,-450.5 131.5,-470.5 255.5,-470.5 255.5,-450.5 131.5,-450.5"/>
<text text-anchor="middle" x="193.5" y="-457.5" font-family="FreeSans" font-size="10.00" fill="#000000">Fun4All_G4_fsPHENIX</text>
</a>
</g>
</g>
<!-- Node1&#45;&gt;Node8 -->
<g id="edge7" class="edge">
<title>Node1&#45;&gt;Node8</title>
<path fill="none" stroke="#191970" d="M47.0225,-369.4877C59.1026,-390.4516 81.3951,-423.597 110,-441.5 116.5532,-445.6015 123.8894,-448.8206 131.42,-451.3467"/>
<polygon fill="#191970" stroke="#191970" points="49.978,-367.6004 42.0669,-360.5531 43.8565,-370.9957 49.978,-367.6004"/>
</g>
<!-- Node9 -->
<g id="node9" class="node">
<title>Node9</title>
<g id="a_node9"><a xlink:href="../../da/d2f/Fun4All__G4__fsPHENIX__FastSim_8C.html#a66fb850cae5fcaadda23b74a25ce4c9c" target="_top" xlink:title="Fun4All_G4_fsPHENIX\l_FastSim">
<polygon fill="none" stroke="#000000" points="131.5,-399.5 131.5,-431.5 255.5,-431.5 255.5,-399.5 131.5,-399.5"/>
<text text-anchor="start" x="139.5" y="-418.5" font-family="FreeSans" font-size="10.00" fill="#000000">Fun4All_G4_fsPHENIX</text>
<text text-anchor="middle" x="193.5" y="-406.5" font-family="FreeSans" font-size="10.00" fill="#000000">_FastSim</text>
</a>
</g>
</g>
<!-- Node1&#45;&gt;Node9 -->
<g id="edge8" class="edge">
<title>Node1&#45;&gt;Node9</title>
<path fill="none" stroke="#191970" d="M61.9197,-365.8619C75.7348,-373.9371 93.4259,-383.5689 110,-390.5 117.6784,-393.711 125.9117,-396.6962 134.107,-399.4045"/>
<polygon fill="#191970" stroke="#191970" points="63.4189,-362.6811 53.036,-360.5723 59.8377,-368.6957 63.4189,-362.6811"/>
</g>
<!-- Node10 -->
<g id="node10" class="node">
<title>Node10</title>
<g id="a_node10"><a xlink:href="../../d0/da6/Fun4All__G4__fsPHENIX__pi0_8C.html#a023d91d47b678e5d7f1751834aa517c6" target="_top" xlink:title="Fun4All_G4_fsPHENIX_pi0">
<polygon fill="none" stroke="#000000" points="121,-360.5 121,-380.5 266,-380.5 266,-360.5 121,-360.5"/>
<text text-anchor="middle" x="193.5" y="-367.5" font-family="FreeSans" font-size="10.00" fill="#000000">Fun4All_G4_fsPHENIX_pi0</text>
</a>
</g>
</g>
<!-- Node1&#45;&gt;Node10 -->
<g id="edge9" class="edge">
<title>Node1&#45;&gt;Node10</title>
<path fill="none" stroke="#191970" d="M84.3092,-356.5459C95.8024,-358.0147 108.3571,-359.6191 120.7283,-361.2001"/>
<polygon fill="#191970" stroke="#191970" points="84.4514,-353.0357 74.0883,-355.2397 83.5639,-359.9792 84.4514,-353.0357"/>
</g>
<!-- Node11 -->
<g id="node11" class="node">
<title>Node11</title>
<g id="a_node11"><a xlink:href="../../d5/d2c/macros_2blob_2master_2macros_2g4simulations_2Fun4All__G4__sPHENIX_8C.html#a6eaaa492d7023ec86c562dc63aa1e5a4" target="_top" xlink:title="Fun4All_G4_sPHENIX">
<polygon fill="none" stroke="#000000" points="133,-321.5 133,-341.5 254,-341.5 254,-321.5 133,-321.5"/>
<text text-anchor="middle" x="193.5" y="-328.5" font-family="FreeSans" font-size="10.00" fill="#000000">Fun4All_G4_sPHENIX</text>
</a>
</g>
</g>
<!-- Node1&#45;&gt;Node11 -->
<g id="edge10" class="edge">
<title>Node1&#45;&gt;Node11</title>
<path fill="none" stroke="#191970" d="M84.3228,-344.7547C99.5896,-342.9013 116.7284,-340.8205 132.8215,-338.8667"/>
<polygon fill="#191970" stroke="#191970" points="83.5936,-341.3175 74.0883,-345.9973 84.4373,-348.2665 83.5936,-341.3175"/>
</g>
<!-- Node12 -->
<g id="node12" class="node">
<title>Node12</title>
<g id="a_node12"><a xlink:href="../../d3/de2/Fun4All__G4__sPHENIX__AnaGenFit_8C.html#a9bf3f2f72ed69a17e2d0c1121d48013c" target="_top" xlink:title="Fun4All_G4_sPHENIX\l_AnaGenFit">
<polygon fill="none" stroke="#000000" points="133,-270.5 133,-302.5 254,-302.5 254,-270.5 133,-270.5"/>
<text text-anchor="start" x="141" y="-289.5" font-family="FreeSans" font-size="10.00" fill="#000000">Fun4All_G4_sPHENIX</text>
<text text-anchor="middle" x="193.5" y="-277.5" font-family="FreeSans" font-size="10.00" fill="#000000">_AnaGenFit</text>
</a>
</g>
</g>
<!-- Node1&#45;&gt;Node12 -->
<g id="edge11" class="edge">
<title>Node1&#45;&gt;Node12</title>
<path fill="none" stroke="#191970" d="M63.1348,-335.4502C76.8154,-327.9461 94.0076,-319.0907 110,-312.5 118.563,-308.9711 127.7861,-305.6477 136.8687,-302.6322"/>
<polygon fill="#191970" stroke="#191970" points="61.3127,-332.4588 54.2824,-340.3851 64.7212,-338.5729 61.3127,-332.4588"/>
</g>
<!-- Node13 -->
<g id="node13" class="node">
<title>Node13</title>
<g id="a_node13"><a xlink:href="../../da/dd0/Fun4All__G4__sPHENIX__photonjet_8C.html#a6f18519e216acc05399e562ea57ea77c" target="_top" xlink:title="Fun4All_G4_sPHENIX\l_photonjet">
<polygon fill="none" stroke="#000000" points="133,-219.5 133,-251.5 254,-251.5 254,-219.5 133,-219.5"/>
<text text-anchor="start" x="141" y="-238.5" font-family="FreeSans" font-size="10.00" fill="#000000">Fun4All_G4_sPHENIX</text>
<text text-anchor="middle" x="193.5" y="-226.5" font-family="FreeSans" font-size="10.00" fill="#000000">_photonjet</text>
</a>
</g>
</g>
<!-- Node1&#45;&gt;Node13 -->
<g id="edge12" class="edge">
<title>Node1&#45;&gt;Node13</title>
<path fill="none" stroke="#191970" d="M47.7739,-331.6998C60.2632,-311.5269 82.6719,-279.9108 110,-261.5 116.9256,-256.8342 124.7296,-252.9732 132.7148,-249.7864"/>
<polygon fill="#191970" stroke="#191970" points="44.7432,-329.9482 42.6063,-340.3253 50.7481,-333.5457 44.7432,-329.9482"/>
</g>
<!-- Node14 -->
<g id="node14" class="node">
<title>Node14</title>
<g id="a_node14"><a xlink:href="../../da/d85/Fun4All__G4__sPHENIX__photons_8C.html#a02fbbd59878fe1299f58ed187e7214ba" target="_top" xlink:title="Fun4All_G4_sPHENIX\l_photons">
<polygon fill="none" stroke="#000000" points="133,-168.5 133,-200.5 254,-200.5 254,-168.5 133,-168.5"/>
<text text-anchor="start" x="141" y="-187.5" font-family="FreeSans" font-size="10.00" fill="#000000">Fun4All_G4_sPHENIX</text>
<text text-anchor="middle" x="193.5" y="-175.5" font-family="FreeSans" font-size="10.00" fill="#000000">_photons</text>
</a>
</g>
</g>
<!-- Node1&#45;&gt;Node14 -->
<g id="edge13" class="edge">
<title>Node1&#45;&gt;Node14</title>
<path fill="none" stroke="#191970" d="M42.0923,-330.4762C50.8384,-300.1168 71.5935,-242.5881 110,-210.5 116.6414,-204.9512 124.4649,-200.5844 132.6148,-197.1483"/>
<polygon fill="#191970" stroke="#191970" points="38.6582,-329.766 39.4029,-340.3346 45.4114,-331.6083 38.6582,-329.766"/>
</g>
<!-- Node15 -->
<g id="node15" class="node">
<title>Node15</title>
<g id="a_node15"><a xlink:href="../../de/d55/Fun4All__G4__sPHENIX__truthphotonjet_8C.html#a48a6f4503eaa1b3793d8ae572aa795b9" target="_top" xlink:title="Fun4All_G4_sPHENIX\l_truthphotonjet">
<polygon fill="none" stroke="#000000" points="133,-117.5 133,-149.5 254,-149.5 254,-117.5 133,-117.5"/>
<text text-anchor="start" x="141" y="-136.5" font-family="FreeSans" font-size="10.00" fill="#000000">Fun4All_G4_sPHENIX</text>
<text text-anchor="middle" x="193.5" y="-124.5" font-family="FreeSans" font-size="10.00" fill="#000000">_truthphotonjet</text>
</a>
</g>
</g>
<!-- Node1&#45;&gt;Node15 -->
<g id="edge14" class="edge">
<title>Node1&#45;&gt;Node15</title>
<path fill="none" stroke="#191970" d="M39.015,-329.9824C43.9303,-291.0977 60.0593,-206.3799 110,-159.5 116.5312,-153.3691 124.4872,-148.6831 132.8642,-145.1017"/>
<polygon fill="#191970" stroke="#191970" points="35.5194,-329.7455 37.8654,-340.0773 42.4745,-330.5375 35.5194,-329.7455"/>
</g>
<!-- Node16 -->
<g id="node16" class="node">
<title>Node16</title>
<g id="a_node16"><a xlink:href="../../d4/d65/Fun4All__single__particle_8C.html#a8a492b5dbead494bfdddbebde8a49b0e" target="_top" xlink:title="Fun4All_single_particle">
<polygon fill="none" stroke="#000000" points="127.5,-78.5 127.5,-98.5 259.5,-98.5 259.5,-78.5 127.5,-78.5"/>
<text text-anchor="middle" x="193.5" y="-85.5" font-family="FreeSans" font-size="10.00" fill="#000000">Fun4All_single_particle</text>
</a>
</g>
</g>
<!-- Node1&#45;&gt;Node16 -->
<g id="edge15" class="edge">
<title>Node1&#45;&gt;Node16</title>
<path fill="none" stroke="#191970" d="M40.4556,-330.2357C49.7952,-277.7986 77.0699,-139.5772 110,-108.5 114.9869,-103.7937 120.8777,-100.133 127.1864,-97.294"/>
<polygon fill="#191970" stroke="#191970" points="36.9677,-329.8635 38.6942,-340.3167 43.8632,-331.0683 36.9677,-329.8635"/>
</g>
<!-- Node17 -->
<g id="node17" class="node">
<title>Node17</title>
<g id="a_node17"><a xlink:href="../../d0/d99/Jin__BJet_8C.html#a36169bfee2ed7efda633944d12aebad9" target="_top" xlink:title="Jin_BJet">
<polygon fill="none" stroke="#000000" points="166,-39.5 166,-59.5 221,-59.5 221,-39.5 166,-39.5"/>
<text text-anchor="middle" x="193.5" y="-46.5" font-family="FreeSans" font-size="10.00" fill="#000000">Jin_BJet</text>
</a>
</g>
</g>
<!-- Node1&#45;&gt;Node17 -->
<g id="edge16" class="edge">
<title>Node1&#45;&gt;Node17</title>
<path fill="none" stroke="#191970" d="M39.5646,-330.1323C47.3008,-271.9085 72.2217,-106.5645 110,-69.5 124.684,-55.0935 147.801,-50.4072 165.9921,-49.1479"/>
<polygon fill="#191970" stroke="#191970" points="36.064,-329.9117 38.2478,-340.279 43.0058,-330.8126 36.064,-329.9117"/>
</g>
<!-- Node18 -->
<g id="node18" class="node">
<title>Node18</title>
<g id="a_node18"><a xlink:href="../../dd/db1/Wrapper_8cxx.html#abf1e42281903daa0752c80dd6c879fac" target="_top" xlink:title="Wrapper">
<polygon fill="none" stroke="#000000" points="163.5,-.5 163.5,-20.5 223.5,-20.5 223.5,-.5 163.5,-.5"/>
<text text-anchor="middle" x="193.5" y="-7.5" font-family="FreeSans" font-size="10.00" fill="#000000">Wrapper</text>
</a>
</g>
</g>
<!-- Node1&#45;&gt;Node18 -->
<g id="edge17" class="edge">
<title>Node1&#45;&gt;Node18</title>
<path fill="none" stroke="#191970" d="M38.8958,-329.8823C45.1767,-266.0833 67.369,-73.5941 110,-30.5 123.8381,-16.5115 145.6058,-11.6313 163.4465,-10.1855"/>
<polygon fill="#191970" stroke="#191970" points="35.374,-329.9447 37.9069,-340.2323 42.3423,-330.6106 35.374,-329.9447"/>
</g>
<!-- Node3 -->
<g id="node3" class="node">
<title>Node3</title>
<g id="a_node3"><a xlink:href="../../d3/d7f/Fun_8C.html#af69a3eef3ff244bb51f5740c6ecb5432" target="_top" xlink:title="Fun">
<polygon fill="none" stroke="#000000" points="313,-657.5 313,-677.5 347,-677.5 347,-657.5 313,-657.5"/>
<text text-anchor="middle" x="330" y="-664.5" font-family="FreeSans" font-size="10.00" fill="#000000">Fun</text>
</a>
</g>
</g>
<!-- Node2&#45;&gt;Node3 -->
<g id="edge2" class="edge">
<title>Node2&#45;&gt;Node3</title>
<path fill="none" stroke="#191970" d="M260.6941,-667.5C280.0852,-667.5 299.59,-667.5 312.9452,-667.5"/>
<polygon fill="#191970" stroke="#191970" points="260.5974,-664.0001 250.5974,-667.5 260.5974,-671.0001 260.5974,-664.0001"/>
</g>
</g>
</svg>
