<?xml version="1.0" encoding="UTF-8" standalone="no"?>
<!DOCTYPE svg PUBLIC "-//W3C//DTD SVG 1.1//EN"
 "http://www.w3.org/Graphics/SVG/1.1/DTD/svg11.dtd">
<!-- Generated by graphviz version 2.40.1 (20161225.0304)
 -->
<!-- Title: GlobalVertexFastSimReco::set_z_smearing Pages: 1 -->
<svg width="555pt" height="647pt"
 viewBox="0.00 0.00 555.00 647.00" xmlns="http://www.w3.org/2000/svg" xmlns:xlink="http://www.w3.org/1999/xlink">
<g id="graph0" class="graph" transform="scale(1 1) rotate(0) translate(4 643)">
<title>GlobalVertexFastSimReco::set_z_smearing</title>
<!-- Node1 -->
<g id="node1" class="node">
<title>Node1</title>
<polygon fill="#bfbfbf" stroke="#000000" points="0,-315.5 0,-347.5 145,-347.5 145,-315.5 0,-315.5"/>
<text text-anchor="start" x="8" y="-334.5" font-family="FreeSans" font-size="10.00" fill="#000000">GlobalVertexFastSimReco</text>
<text text-anchor="middle" x="72.5" y="-322.5" font-family="FreeSans" font-size="10.00" fill="#000000">::set_z_smearing</text>
</g>
<!-- Node2 -->
<g id="node2" class="node">
<title>Node2</title>
<g id="a_node2"><a xlink:href="../../d7/d1a/macros_2blob_2master_2macros_2g4simulations_2G4__Global_8C.html#a12de62830accad348aa93a2c0808a25a" target="_top" xlink:title="Global_FastSim">
<polygon fill="none" stroke="#000000" points="181,-321.5 181,-341.5 274,-341.5 274,-321.5 181,-321.5"/>
<text text-anchor="middle" x="227.5" y="-328.5" font-family="FreeSans" font-size="10.00" fill="#000000">Global_FastSim</text>
</a>
</g>
</g>
<!-- Node1&#45;&gt;Node2 -->
<g id="edge1" class="edge">
<title>Node1&#45;&gt;Node2</title>
<path fill="none" stroke="#191970" d="M155.258,-331.5C163.9773,-331.5 172.6074,-331.5 180.7042,-331.5"/>
<polygon fill="#191970" stroke="#191970" points="155.008,-328.0001 145.008,-331.5 155.0079,-335.0001 155.008,-328.0001"/>
</g>
<!-- Node3 -->
<g id="node3" class="node">
<title>Node3</title>
<g id="a_node3"><a xlink:href="../../d3/d7f/Fun_8C.html#af0d3c8a78765149fef9b2beeecfc6279" target="_top" xlink:title="ConfigureDetectors">
<polygon fill="none" stroke="#000000" points="336.5,-618.5 336.5,-638.5 450.5,-638.5 450.5,-618.5 336.5,-618.5"/>
<text text-anchor="middle" x="393.5" y="-625.5" font-family="FreeSans" font-size="10.00" fill="#000000">ConfigureDetectors</text>
</a>
</g>
</g>
<!-- Node2&#45;&gt;Node3 -->
<g id="edge2" class="edge">
<title>Node2&#45;&gt;Node3</title>
<path fill="none" stroke="#191970" d="M230.798,-351.7006C240.624,-409.4392 271.4309,-573.3507 310,-609.5 317.3762,-616.4134 326.7253,-620.9947 336.4787,-623.9949"/>
<polygon fill="#191970" stroke="#191970" points="234.2169,-350.9242 229.1165,-341.6378 227.3126,-352.078 234.2169,-350.9242"/>
</g>
<!-- Node5 -->
<g id="node5" class="node">
<title>Node5</title>
<g id="a_node5"><a xlink:href="../../da/d02/Fun4All__G4__EICDetector_8C.html#afbe82cefa1d1fd031d9a8586b7bb68c6" target="_top" xlink:title="Fun4All_G4_EICDetector">
<polygon fill="none" stroke="#000000" points="324,-579.5 324,-599.5 463,-599.5 463,-579.5 324,-579.5"/>
<text text-anchor="middle" x="393.5" y="-586.5" font-family="FreeSans" font-size="10.00" fill="#000000">Fun4All_G4_EICDetector</text>
</a>
</g>
</g>
<!-- Node2&#45;&gt;Node5 -->
<g id="edge4" class="edge">
<title>Node2&#45;&gt;Node5</title>
<path fill="none" stroke="#191970" d="M231.7999,-351.5641C243.317,-403.4756 276.2827,-540.2605 310,-570.5 314.0951,-574.1727 318.7508,-577.1807 323.7193,-579.6394"/>
<polygon fill="#191970" stroke="#191970" points="235.1732,-350.606 229.6193,-341.5835 228.3345,-352.1002 235.1732,-350.606"/>
</g>
<!-- Node6 -->
<g id="node6" class="node">
<title>Node6</title>
<g id="a_node6"><a xlink:href="../../dd/d2a/Fun4All__G4__EICDetector__LQ_8C.html#aaa01242fd6e77ca43a9d49a6d46008e4" target="_top" xlink:title="Fun4All_G4_EICDetector_LQ">
<polygon fill="none" stroke="#000000" points="315.5,-540.5 315.5,-560.5 471.5,-560.5 471.5,-540.5 315.5,-540.5"/>
<text text-anchor="middle" x="393.5" y="-547.5" font-family="FreeSans" font-size="10.00" fill="#000000">Fun4All_G4_EICDetector_LQ</text>
</a>
</g>
</g>
<!-- Node2&#45;&gt;Node6 -->
<g id="edge5" class="edge">
<title>Node2&#45;&gt;Node6</title>
<path fill="none" stroke="#191970" d="M229.7387,-351.7211C235.3569,-392.3557 253.884,-484.0758 310,-531.5 314.2014,-535.0507 318.9326,-537.9718 323.9527,-540.3714"/>
<polygon fill="#191970" stroke="#191970" points="233.198,-351.1782 228.4758,-341.694 226.2529,-352.053 233.198,-351.1782"/>
</g>
<!-- Node7 -->
<g id="node7" class="node">
<title>Node7</title>
<g id="a_node7"><a xlink:href="../../d4/df5/Fun4All__G4__EICDetector__LQ__reference_8C.html#a2feefc472f17f90b3cbe74897d049f75" target="_top" xlink:title="Fun4All_G4_EICDetector\l_LQ_reference">
<polygon fill="none" stroke="#000000" points="324,-489.5 324,-521.5 463,-521.5 463,-489.5 324,-489.5"/>
<text text-anchor="start" x="332" y="-508.5" font-family="FreeSans" font-size="10.00" fill="#000000">Fun4All_G4_EICDetector</text>
<text text-anchor="middle" x="393.5" y="-496.5" font-family="FreeSans" font-size="10.00" fill="#000000">_LQ_reference</text>
</a>
</g>
</g>
<!-- Node2&#45;&gt;Node7 -->
<g id="edge6" class="edge">
<title>Node2&#45;&gt;Node7</title>
<path fill="none" stroke="#191970" d="M233.1592,-351.5208C243.2408,-383.5416 267.3584,-446.1571 310,-480.5 314.2427,-483.917 318.9434,-486.8674 323.8894,-489.4148"/>
<polygon fill="#191970" stroke="#191970" points="236.3986,-350.1386 230.1712,-341.5671 229.6942,-352.1512 236.3986,-350.1386"/>
</g>
<!-- Node8 -->
<g id="node8" class="node">
<title>Node8</title>
<g id="a_node8"><a xlink:href="../../d3/d51/Fun4All__G4__EICDetector__RICH_8C.html#a5739502b0a7a1ba782c01069f77e933f" target="_top" xlink:title="Fun4All_G4_EICDetector_RICH">
<polygon fill="none" stroke="#000000" points="310,-450.5 310,-470.5 477,-470.5 477,-450.5 310,-450.5"/>
<text text-anchor="middle" x="393.5" y="-457.5" font-family="FreeSans" font-size="10.00" fill="#000000">Fun4All_G4_EICDetector_RICH</text>
</a>
</g>
</g>
<!-- Node2&#45;&gt;Node8 -->
<g id="edge7" class="edge">
<title>Node2&#45;&gt;Node8</title>
<path fill="none" stroke="#191970" d="M236.5471,-350.7815C249.299,-375.7568 274.9739,-418.7758 310,-441.5 315.6125,-445.1412 321.8319,-448.0895 328.2714,-450.4758"/>
<polygon fill="#191970" stroke="#191970" points="239.5777,-349.013 232.0216,-341.5862 233.2971,-352.104 239.5777,-349.013"/>
</g>
<!-- Node9 -->
<g id="node9" class="node">
<title>Node9</title>
<g id="a_node9"><a xlink:href="../../d7/d9e/Fun4All__G4__fsPHENIX_8C.html#af48911d394d2412e817583700f2bbee2" target="_top" xlink:title="Fun4All_G4_fsPHENIX">
<polygon fill="none" stroke="#000000" points="331.5,-411.5 331.5,-431.5 455.5,-431.5 455.5,-411.5 331.5,-411.5"/>
<text text-anchor="middle" x="393.5" y="-418.5" font-family="FreeSans" font-size="10.00" fill="#000000">Fun4All_G4_fsPHENIX</text>
</a>
</g>
</g>
<!-- Node2&#45;&gt;Node9 -->
<g id="edge8" class="edge">
<title>Node2&#45;&gt;Node9</title>
<path fill="none" stroke="#191970" d="M243.4311,-349.5114C258.8544,-365.8122 283.7077,-389.2376 310,-402.5 317.1679,-406.1157 325.0272,-409.0514 332.9672,-411.4331"/>
<polygon fill="#191970" stroke="#191970" points="245.6149,-346.7158 236.2675,-341.7281 240.4643,-351.4563 245.6149,-346.7158"/>
</g>
<!-- Node10 -->
<g id="node10" class="node">
<title>Node10</title>
<g id="a_node10"><a xlink:href="../../da/d2f/Fun4All__G4__fsPHENIX__FastSim_8C.html#a66fb850cae5fcaadda23b74a25ce4c9c" target="_top" xlink:title="Fun4All_G4_fsPHENIX\l_FastSim">
<polygon fill="none" stroke="#000000" points="331.5,-360.5 331.5,-392.5 455.5,-392.5 455.5,-360.5 331.5,-360.5"/>
<text text-anchor="start" x="339.5" y="-379.5" font-family="FreeSans" font-size="10.00" fill="#000000">Fun4All_G4_fsPHENIX</text>
<text text-anchor="middle" x="393.5" y="-367.5" font-family="FreeSans" font-size="10.00" fill="#000000">_FastSim</text>
</a>
</g>
</g>
<!-- Node2&#45;&gt;Node10 -->
<g id="edge9" class="edge">
<title>Node2&#45;&gt;Node10</title>
<path fill="none" stroke="#191970" d="M274.4497,-344.2273C293.0231,-349.2623 314.5859,-355.1076 334.2165,-360.4292"/>
<polygon fill="#191970" stroke="#191970" points="275.3211,-340.8373 264.7536,-341.5989 273.4895,-347.5934 275.3211,-340.8373"/>
</g>
<!-- Node11 -->
<g id="node11" class="node">
<title>Node11</title>
<g id="a_node11"><a xlink:href="../../d0/da6/Fun4All__G4__fsPHENIX__pi0_8C.html#a023d91d47b678e5d7f1751834aa517c6" target="_top" xlink:title="Fun4All_G4_fsPHENIX_pi0">
<polygon fill="none" stroke="#000000" points="321,-321.5 321,-341.5 466,-341.5 466,-321.5 321,-321.5"/>
<text text-anchor="middle" x="393.5" y="-328.5" font-family="FreeSans" font-size="10.00" fill="#000000">Fun4All_G4_fsPHENIX_pi0</text>
</a>
</g>
</g>
<!-- Node2&#45;&gt;Node11 -->
<g id="edge10" class="edge">
<title>Node2&#45;&gt;Node11</title>
<path fill="none" stroke="#191970" d="M284.2797,-331.5C296.0301,-331.5 308.5619,-331.5 320.7909,-331.5"/>
<polygon fill="#191970" stroke="#191970" points="284.182,-328.0001 274.182,-331.5 284.182,-335.0001 284.182,-328.0001"/>
</g>
<!-- Node12 -->
<g id="node12" class="node">
<title>Node12</title>
<g id="a_node12"><a xlink:href="../../d5/d2c/macros_2blob_2master_2macros_2g4simulations_2Fun4All__G4__sPHENIX_8C.html#a6eaaa492d7023ec86c562dc63aa1e5a4" target="_top" xlink:title="Fun4All_G4_sPHENIX">
<polygon fill="none" stroke="#000000" points="333,-282.5 333,-302.5 454,-302.5 454,-282.5 333,-282.5"/>
<text text-anchor="middle" x="393.5" y="-289.5" font-family="FreeSans" font-size="10.00" fill="#000000">Fun4All_G4_sPHENIX</text>
</a>
</g>
</g>
<!-- Node2&#45;&gt;Node12 -->
<g id="edge11" class="edge">
<title>Node2&#45;&gt;Node12</title>
<path fill="none" stroke="#191970" d="M280.1216,-319.1371C302.9468,-313.7746 329.3277,-307.5766 350.8957,-302.5094"/>
<polygon fill="#191970" stroke="#191970" points="279.1835,-315.7621 270.2491,-321.4565 280.7846,-322.5766 279.1835,-315.7621"/>
</g>
<!-- Node13 -->
<g id="node13" class="node">
<title>Node13</title>
<g id="a_node13"><a xlink:href="../../d3/de2/Fun4All__G4__sPHENIX__AnaGenFit_8C.html#a9bf3f2f72ed69a17e2d0c1121d48013c" target="_top" xlink:title="Fun4All_G4_sPHENIX\l_AnaGenFit">
<polygon fill="none" stroke="#000000" points="333,-231.5 333,-263.5 454,-263.5 454,-231.5 333,-231.5"/>
<text text-anchor="start" x="341" y="-250.5" font-family="FreeSans" font-size="10.00" fill="#000000">Fun4All_G4_sPHENIX</text>
<text text-anchor="middle" x="393.5" y="-238.5" font-family="FreeSans" font-size="10.00" fill="#000000">_AnaGenFit</text>
</a>
</g>
</g>
<!-- Node2&#45;&gt;Node13 -->
<g id="edge12" class="edge">
<title>Node2&#45;&gt;Node13</title>
<path fill="none" stroke="#191970" d="M247.4127,-314.8202C263.4663,-302.0569 287.0695,-284.7841 310,-273.5 317.4926,-269.8129 325.6199,-266.51 333.7633,-263.5964"/>
<polygon fill="#191970" stroke="#191970" points="244.8856,-312.3633 239.3229,-321.3804 249.2946,-317.8003 244.8856,-312.3633"/>
</g>
<!-- Node14 -->
<g id="node14" class="node">
<title>Node14</title>
<g id="a_node14"><a xlink:href="../../da/dd0/Fun4All__G4__sPHENIX__photonjet_8C.html#a6f18519e216acc05399e562ea57ea77c" target="_top" xlink:title="Fun4All_G4_sPHENIX\l_photonjet">
<polygon fill="none" stroke="#000000" points="333,-180.5 333,-212.5 454,-212.5 454,-180.5 333,-180.5"/>
<text text-anchor="start" x="341" y="-199.5" font-family="FreeSans" font-size="10.00" fill="#000000">Fun4All_G4_sPHENIX</text>
<text text-anchor="middle" x="393.5" y="-187.5" font-family="FreeSans" font-size="10.00" fill="#000000">_photonjet</text>
</a>
</g>
</g>
<!-- Node2&#45;&gt;Node14 -->
<g id="edge13" class="edge">
<title>Node2&#45;&gt;Node14</title>
<path fill="none" stroke="#191970" d="M237.0647,-312.4303C250.2327,-288.0733 276.2044,-246.2405 310,-222.5 316.9574,-217.6126 324.8666,-213.6193 332.9782,-210.3628"/>
<polygon fill="#191970" stroke="#191970" points="233.9012,-310.9269 232.3642,-321.4097 240.1029,-314.1734 233.9012,-310.9269"/>
</g>
<!-- Node15 -->
<g id="node15" class="node">
<title>Node15</title>
<g id="a_node15"><a xlink:href="../../da/d85/Fun4All__G4__sPHENIX__photons_8C.html#a02fbbd59878fe1299f58ed187e7214ba" target="_top" xlink:title="Fun4All_G4_sPHENIX\l_photons">
<polygon fill="none" stroke="#000000" points="333,-129.5 333,-161.5 454,-161.5 454,-129.5 333,-129.5"/>
<text text-anchor="start" x="341" y="-148.5" font-family="FreeSans" font-size="10.00" fill="#000000">Fun4All_G4_sPHENIX</text>
<text text-anchor="middle" x="393.5" y="-136.5" font-family="FreeSans" font-size="10.00" fill="#000000">_photons</text>
</a>
</g>
</g>
<!-- Node2&#45;&gt;Node15 -->
<g id="edge14" class="edge">
<title>Node2&#45;&gt;Node15</title>
<path fill="none" stroke="#191970" d="M232.3908,-311.4572C241.677,-277.629 265.0715,-209.2119 310,-171.5 316.6287,-165.936 324.4451,-161.5608 332.5918,-158.1208"/>
<polygon fill="#191970" stroke="#191970" points="229.002,-310.5824 229.8621,-321.1423 235.7749,-312.3508 229.002,-310.5824"/>
</g>
<!-- Node16 -->
<g id="node16" class="node">
<title>Node16</title>
<g id="a_node16"><a xlink:href="../../de/d55/Fun4All__G4__sPHENIX__truthphotonjet_8C.html#a48a6f4503eaa1b3793d8ae572aa795b9" target="_top" xlink:title="Fun4All_G4_sPHENIX\l_truthphotonjet">
<polygon fill="none" stroke="#000000" points="333,-78.5 333,-110.5 454,-110.5 454,-78.5 333,-78.5"/>
<text text-anchor="start" x="341" y="-97.5" font-family="FreeSans" font-size="10.00" fill="#000000">Fun4All_G4_sPHENIX</text>
<text text-anchor="middle" x="393.5" y="-85.5" font-family="FreeSans" font-size="10.00" fill="#000000">_truthphotonjet</text>
</a>
</g>
</g>
<!-- Node2&#45;&gt;Node16 -->
<g id="edge15" class="edge">
<title>Node2&#45;&gt;Node16</title>
<path fill="none" stroke="#191970" d="M229.5965,-311.4236C235.0222,-269.7386 253.3197,-173.2999 310,-120.5 316.5546,-114.3941 324.5232,-109.7216 332.9057,-106.1462"/>
<polygon fill="#191970" stroke="#191970" points="226.1117,-311.0899 228.4091,-321.4326 233.0629,-311.9146 226.1117,-311.0899"/>
</g>
<!-- Node17 -->
<g id="node17" class="node">
<title>Node17</title>
<g id="a_node17"><a xlink:href="../../d4/d65/Fun4All__single__particle_8C.html#a8a492b5dbead494bfdddbebde8a49b0e" target="_top" xlink:title="Fun4All_single_particle">
<polygon fill="none" stroke="#000000" points="327.5,-39.5 327.5,-59.5 459.5,-59.5 459.5,-39.5 327.5,-39.5"/>
<text text-anchor="middle" x="393.5" y="-46.5" font-family="FreeSans" font-size="10.00" fill="#000000">Fun4All_single_particle</text>
</a>
</g>
</g>
<!-- Node2&#45;&gt;Node17 -->
<g id="edge16" class="edge">
<title>Node2&#45;&gt;Node17</title>
<path fill="none" stroke="#191970" d="M231.192,-311.3898C241.7426,-256.0602 273.6163,-103.4232 310,-69.5 315.0153,-64.8239 320.9242,-61.1825 327.2437,-58.355"/>
<polygon fill="#191970" stroke="#191970" points="227.7238,-310.8954 229.3205,-321.3692 234.6039,-312.1857 227.7238,-310.8954"/>
</g>
<!-- Node18 -->
<g id="node18" class="node">
<title>Node18</title>
<g id="a_node18"><a xlink:href="../../d0/d99/Jin__BJet_8C.html#a36169bfee2ed7efda633944d12aebad9" target="_top" xlink:title="Jin_BJet">
<polygon fill="none" stroke="#000000" points="366,-.5 366,-20.5 421,-20.5 421,-.5 366,-.5"/>
<text text-anchor="middle" x="393.5" y="-7.5" font-family="FreeSans" font-size="10.00" fill="#000000">Jin_BJet</text>
</a>
</g>
</g>
<!-- Node2&#45;&gt;Node18 -->
<g id="edge17" class="edge">
<title>Node2&#45;&gt;Node18</title>
<path fill="none" stroke="#191970" d="M230.3397,-311.2633C239.2882,-250.3436 268.7698,-70.4146 310,-30.5 324.6727,-16.2955 347.5548,-11.5664 365.6575,-10.2391"/>
<polygon fill="#191970" stroke="#191970" points="226.871,-310.796 228.9096,-321.1928 233.7995,-311.7939 226.871,-310.796"/>
</g>
<!-- Node4 -->
<g id="node4" class="node">
<title>Node4</title>
<g id="a_node4"><a xlink:href="../../d3/d7f/Fun_8C.html#af69a3eef3ff244bb51f5740c6ecb5432" target="_top" xlink:title="Fun">
<polygon fill="none" stroke="#000000" points="513,-618.5 513,-638.5 547,-638.5 547,-618.5 513,-618.5"/>
<text text-anchor="middle" x="530" y="-625.5" font-family="FreeSans" font-size="10.00" fill="#000000">Fun</text>
</a>
</g>
</g>
<!-- Node3&#45;&gt;Node4 -->
<g id="edge3" class="edge">
<title>Node3&#45;&gt;Node4</title>
<path fill="none" stroke="#191970" d="M460.6941,-628.5C480.0852,-628.5 499.59,-628.5 512.9452,-628.5"/>
<polygon fill="#191970" stroke="#191970" points="460.5974,-625.0001 450.5974,-628.5 460.5974,-632.0001 460.5974,-625.0001"/>
</g>
</g>
</svg>
