<?xml version="1.0" encoding="UTF-8" standalone="no"?>
<!DOCTYPE svg PUBLIC "-//W3C//DTD SVG 1.1//EN"
 "http://www.w3.org/Graphics/SVG/1.1/DTD/svg11.dtd">
<!-- Generated by graphviz version 2.40.1 (20161225.0304)
 -->
<!-- Title: coresoftware/blob/master/simulation/g4simulation/g4main/PHG4ParticleGun.h Pages: 1 -->
<svg width="2446pt" height="134pt"
 viewBox="0.00 0.00 2445.50 134.00" xmlns="http://www.w3.org/2000/svg" xmlns:xlink="http://www.w3.org/1999/xlink">
<g id="graph0" class="graph" transform="scale(1 1) rotate(0) translate(4 130)">
<title>coresoftware/blob/master/simulation/g4simulation/g4main/PHG4ParticleGun.h</title>
<!-- Node1 -->
<g id="node1" class="node">
<title>Node1</title>
<polygon fill="#bfbfbf" stroke="#000000" points="1101,-81.5 1101,-125.5 1259,-125.5 1259,-81.5 1101,-81.5"/>
<text text-anchor="start" x="1109" y="-112.5" font-family="FreeSans" font-size="10.00" fill="#000000">coresoftware/blob/master</text>
<text text-anchor="start" x="1109" y="-100.5" font-family="FreeSans" font-size="10.00" fill="#000000">/simulation/g4simulation</text>
<text text-anchor="middle" x="1180" y="-88.5" font-family="FreeSans" font-size="10.00" fill="#000000">/g4main/PHG4ParticleGun.h</text>
</g>
<!-- Node2 -->
<g id="node2" class="node">
<title>Node2</title>
<g id="a_node2"><a xlink:href="../../db/ddd/PHG4ParticleGun_8cc.html" target="_top" xlink:title="coresoftware/blob/master\l/simulation/g4simulation\l/g4main/PHG4ParticleGun.cc">
<polygon fill="none" stroke="#000000" points="0,-.5 0,-44.5 162,-44.5 162,-.5 0,-.5"/>
<text text-anchor="start" x="8" y="-31.5" font-family="FreeSans" font-size="10.00" fill="#000000">coresoftware/blob/master</text>
<text text-anchor="start" x="8" y="-19.5" font-family="FreeSans" font-size="10.00" fill="#000000">/simulation/g4simulation</text>
<text text-anchor="middle" x="81" y="-7.5" font-family="FreeSans" font-size="10.00" fill="#000000">/g4main/PHG4ParticleGun.cc</text>
</a>
</g>
</g>
<!-- Node1&#45;&gt;Node2 -->
<g id="edge1" class="edge">
<title>Node1&#45;&gt;Node2</title>
<path fill="none" stroke="#191970" d="M1090.5727,-100.4628C877.975,-92.8952 346.9976,-71.8598 171,-45 168.1341,-44.5626 165.2263,-44.0755 162.2966,-43.5478"/>
<polygon fill="#191970" stroke="#191970" points="1090.6411,-103.9673 1100.7588,-100.8237 1090.889,-96.9717 1090.6411,-103.9673"/>
</g>
<!-- Node3 -->
<g id="node3" class="node">
<title>Node3</title>
<g id="a_node3"><a xlink:href="../../da/d02/Fun4All__G4__EICDetector_8C.html" target="_top" xlink:title="macros/blob/master\l/macros/g4simulations\l/Fun4All_G4_EICDetector.C">
<polygon fill="none" stroke="#000000" points="180,-.5 180,-44.5 332,-44.5 332,-.5 180,-.5"/>
<text text-anchor="start" x="188" y="-31.5" font-family="FreeSans" font-size="10.00" fill="#000000">macros/blob/master</text>
<text text-anchor="start" x="188" y="-19.5" font-family="FreeSans" font-size="10.00" fill="#000000">/macros/g4simulations</text>
<text text-anchor="middle" x="256" y="-7.5" font-family="FreeSans" font-size="10.00" fill="#000000">/Fun4All_G4_EICDetector.C</text>
</a>
</g>
</g>
<!-- Node1&#45;&gt;Node3 -->
<g id="edge2" class="edge">
<title>Node1&#45;&gt;Node3</title>
<path fill="none" stroke="#191970" d="M1090.8475,-99.4227C905.3383,-90.588 483.2428,-68.5673 341,-45 338.1386,-44.5259 335.2338,-43.9983 332.3076,-43.4276"/>
<polygon fill="#191970" stroke="#191970" points="1090.6888,-102.919 1100.8435,-99.8968 1091.0206,-95.9268 1090.6888,-102.919"/>
</g>
<!-- Node4 -->
<g id="node4" class="node">
<title>Node4</title>
<g id="a_node4"><a xlink:href="../../d7/d9e/Fun4All__G4__fsPHENIX_8C.html" target="_top" xlink:title="macros/blob/master\l/macros/g4simulations\l/Fun4All_G4_fsPHENIX.C">
<polygon fill="none" stroke="#000000" points="350.5,-.5 350.5,-44.5 489.5,-44.5 489.5,-.5 350.5,-.5"/>
<text text-anchor="start" x="358.5" y="-31.5" font-family="FreeSans" font-size="10.00" fill="#000000">macros/blob/master</text>
<text text-anchor="start" x="358.5" y="-19.5" font-family="FreeSans" font-size="10.00" fill="#000000">/macros/g4simulations</text>
<text text-anchor="middle" x="420" y="-7.5" font-family="FreeSans" font-size="10.00" fill="#000000">/Fun4All_G4_fsPHENIX.C</text>
</a>
</g>
</g>
<!-- Node1&#45;&gt;Node4 -->
<g id="edge3" class="edge">
<title>Node1&#45;&gt;Node4</title>
<path fill="none" stroke="#191970" d="M1090.446,-101.3798C959.3729,-97.0243 708.0439,-83.917 498,-45 495.2284,-44.4865 492.4138,-43.9159 489.5798,-43.3002"/>
<polygon fill="#191970" stroke="#191970" points="1090.7193,-104.8903 1100.827,-101.7147 1090.9451,-97.894 1090.7193,-104.8903"/>
</g>
<!-- Node5 -->
<g id="node5" class="node">
<title>Node5</title>
<g id="a_node5"><a xlink:href="../../d5/d2c/macros_2blob_2master_2macros_2g4simulations_2Fun4All__G4__sPHENIX_8C.html" target="_top" xlink:title="macros/blob/master\l/macros/g4simulations\l/Fun4All_G4_sPHENIX.C">
<polygon fill="none" stroke="#000000" points="507.5,-.5 507.5,-44.5 642.5,-44.5 642.5,-.5 507.5,-.5"/>
<text text-anchor="start" x="515.5" y="-31.5" font-family="FreeSans" font-size="10.00" fill="#000000">macros/blob/master</text>
<text text-anchor="start" x="515.5" y="-19.5" font-family="FreeSans" font-size="10.00" fill="#000000">/macros/g4simulations</text>
<text text-anchor="middle" x="575" y="-7.5" font-family="FreeSans" font-size="10.00" fill="#000000">/Fun4All_G4_sPHENIX.C</text>
</a>
</g>
</g>
<!-- Node1&#45;&gt;Node5 -->
<g id="edge4" class="edge">
<title>Node1&#45;&gt;Node5</title>
<path fill="none" stroke="#191970" d="M1090.9086,-98.4938C985.1651,-91.4392 803.898,-75.8324 651,-45 648.3022,-44.456 645.5621,-43.8596 642.8027,-43.2225"/>
<polygon fill="#191970" stroke="#191970" points="1090.6947,-101.9872 1100.9025,-99.1501 1091.1534,-95.0023 1090.6947,-101.9872"/>
</g>
<!-- Node6 -->
<g id="node6" class="node">
<title>Node6</title>
<g id="a_node6"><a xlink:href="../../de/da9/ReadClustersRunTracking_8C.html" target="_top" xlink:title="macros/blob/master\l/macros/g4simulations\l/ReadClustersRunTracking.C">
<polygon fill="none" stroke="#000000" points="660.5,-.5 660.5,-44.5 819.5,-44.5 819.5,-.5 660.5,-.5"/>
<text text-anchor="start" x="668.5" y="-31.5" font-family="FreeSans" font-size="10.00" fill="#000000">macros/blob/master</text>
<text text-anchor="start" x="668.5" y="-19.5" font-family="FreeSans" font-size="10.00" fill="#000000">/macros/g4simulations</text>
<text text-anchor="middle" x="740" y="-7.5" font-family="FreeSans" font-size="10.00" fill="#000000">/ReadClustersRunTracking.C</text>
</a>
</g>
</g>
<!-- Node1&#45;&gt;Node6 -->
<g id="edge5" class="edge">
<title>Node1&#45;&gt;Node6</title>
<path fill="none" stroke="#191970" d="M1090.6979,-90.8189C1019.3091,-80.1626 916.8349,-63.7028 828,-45 825.2224,-44.4152 822.4004,-43.8014 819.5539,-43.1656"/>
<polygon fill="#191970" stroke="#191970" points="1090.5942,-94.3418 1100.9998,-92.3486 1091.6224,-87.4177 1090.5942,-94.3418"/>
</g>
<!-- Node7 -->
<g id="node7" class="node">
<title>Node7</title>
<g id="a_node7"><a xlink:href="../../de/d55/Fun4All__G4__block_8C.html" target="_top" xlink:title="tutorials/blob/master\l/block/Fun4All_G4_block.C">
<polygon fill="none" stroke="#000000" points="837,-6.5 837,-38.5 987,-38.5 987,-6.5 837,-6.5"/>
<text text-anchor="start" x="845" y="-25.5" font-family="FreeSans" font-size="10.00" fill="#000000">tutorials/blob/master</text>
<text text-anchor="middle" x="912" y="-13.5" font-family="FreeSans" font-size="10.00" fill="#000000">/block/Fun4All_G4_block.C</text>
</a>
</g>
</g>
<!-- Node1&#45;&gt;Node7 -->
<g id="edge6" class="edge">
<title>Node1&#45;&gt;Node7</title>
<path fill="none" stroke="#191970" d="M1097.5104,-78.5684C1054.4745,-65.5613 1003.0774,-50.0271 965.3081,-38.6118"/>
<polygon fill="#191970" stroke="#191970" points="1096.5369,-81.9305 1107.1218,-81.4734 1098.5621,-75.2299 1096.5369,-81.9305"/>
</g>
<!-- Node8 -->
<g id="node8" class="node">
<title>Node8</title>
<g id="a_node8"><a xlink:href="../../d4/dfa/Fun4All__Generator__Display_8C.html" target="_top" xlink:title="tutorials/blob/master\l/eventgenerator_display\l/Fun4All_Generator_Display.C">
<polygon fill="none" stroke="#000000" points="1005.5,-.5 1005.5,-44.5 1170.5,-44.5 1170.5,-.5 1005.5,-.5"/>
<text text-anchor="start" x="1013.5" y="-31.5" font-family="FreeSans" font-size="10.00" fill="#000000">tutorials/blob/master</text>
<text text-anchor="start" x="1013.5" y="-19.5" font-family="FreeSans" font-size="10.00" fill="#000000">/eventgenerator_display</text>
<text text-anchor="middle" x="1088" y="-7.5" font-family="FreeSans" font-size="10.00" fill="#000000">/Fun4All_Generator_Display.C</text>
</a>
</g>
</g>
<!-- Node1&#45;&gt;Node8 -->
<g id="edge7" class="edge">
<title>Node1&#45;&gt;Node8</title>
<path fill="none" stroke="#191970" d="M1147.2991,-74.709C1136.0558,-64.81 1123.6528,-53.8899 1113.109,-44.6068"/>
<polygon fill="#191970" stroke="#191970" points="1145.0422,-77.3852 1154.8606,-81.3664 1149.6679,-72.1313 1145.0422,-77.3852"/>
</g>
<!-- Node9 -->
<g id="node9" class="node">
<title>Node9</title>
<g id="a_node9"><a xlink:href="../../df/de1/Fun4All__G4__IonGun_8C.html" target="_top" xlink:title="tutorials/blob/master\l/IonGun/Fun4All_G4_IonGun.C">
<polygon fill="none" stroke="#000000" points="1188.5,-6.5 1188.5,-38.5 1357.5,-38.5 1357.5,-6.5 1188.5,-6.5"/>
<text text-anchor="start" x="1196.5" y="-25.5" font-family="FreeSans" font-size="10.00" fill="#000000">tutorials/blob/master</text>
<text text-anchor="middle" x="1273" y="-13.5" font-family="FreeSans" font-size="10.00" fill="#000000">/IonGun/Fun4All_G4_IonGun.C</text>
</a>
</g>
</g>
<!-- Node1&#45;&gt;Node9 -->
<g id="edge8" class="edge">
<title>Node1&#45;&gt;Node9</title>
<path fill="none" stroke="#191970" d="M1213.3145,-74.4841C1227.1379,-62.4444 1242.656,-48.9287 1254.4036,-38.6969"/>
<polygon fill="#191970" stroke="#191970" points="1210.6548,-72.1593 1205.4127,-81.3664 1215.2522,-77.4378 1210.6548,-72.1593"/>
</g>
<!-- Node10 -->
<g id="node10" class="node">
<title>Node10</title>
<g id="a_node10"><a xlink:href="../../dc/d8e/Fun4All__G4__Prototype2_8C.html" target="_top" xlink:title="prototype/blob/master\l/macros/prototype2/Fun4All\l_G4_Prototype2.C">
<polygon fill="none" stroke="#000000" points="1375.5,-.5 1375.5,-44.5 1532.5,-44.5 1532.5,-.5 1375.5,-.5"/>
<text text-anchor="start" x="1383.5" y="-31.5" font-family="FreeSans" font-size="10.00" fill="#000000">prototype/blob/master</text>
<text text-anchor="start" x="1383.5" y="-19.5" font-family="FreeSans" font-size="10.00" fill="#000000">/macros/prototype2/Fun4All</text>
<text text-anchor="middle" x="1454" y="-7.5" font-family="FreeSans" font-size="10.00" fill="#000000">_G4_Prototype2.C</text>
</a>
</g>
</g>
<!-- Node1&#45;&gt;Node10 -->
<g id="edge9" class="edge">
<title>Node1&#45;&gt;Node10</title>
<path fill="none" stroke="#191970" d="M1264.227,-78.6008C1301.0455,-67.7165 1343.8667,-55.0577 1379.5051,-44.5222"/>
<polygon fill="#191970" stroke="#191970" points="1263.1073,-75.282 1254.5098,-81.4734 1265.0918,-81.9948 1263.1073,-75.282"/>
</g>
<!-- Node11 -->
<g id="node11" class="node">
<title>Node11</title>
<g id="a_node11"><a xlink:href="../../d7/d40/Fun4All__G4__Prototype3_8C.html" target="_top" xlink:title="prototype/blob/master\l/macros/prototype3/Fun4All\l_G4_Prototype3.C">
<polygon fill="none" stroke="#000000" points="1550.5,-.5 1550.5,-44.5 1707.5,-44.5 1707.5,-.5 1550.5,-.5"/>
<text text-anchor="start" x="1558.5" y="-31.5" font-family="FreeSans" font-size="10.00" fill="#000000">prototype/blob/master</text>
<text text-anchor="start" x="1558.5" y="-19.5" font-family="FreeSans" font-size="10.00" fill="#000000">/macros/prototype3/Fun4All</text>
<text text-anchor="middle" x="1629" y="-7.5" font-family="FreeSans" font-size="10.00" fill="#000000">_G4_Prototype3.C</text>
</a>
</g>
</g>
<!-- Node1&#45;&gt;Node11 -->
<g id="edge10" class="edge">
<title>Node1&#45;&gt;Node11</title>
<path fill="none" stroke="#191970" d="M1269.2752,-91.4305C1342.8046,-80.9254 1449.6121,-64.3681 1542,-45 1544.7485,-44.4238 1547.5405,-43.8174 1550.3565,-43.1879"/>
<polygon fill="#191970" stroke="#191970" points="1268.534,-88.0005 1259.1257,-92.8723 1269.5186,-94.9309 1268.534,-88.0005"/>
</g>
<!-- Node12 -->
<g id="node12" class="node">
<title>Node12</title>
<g id="a_node12"><a xlink:href="../../d4/d58/Fun4All__G4__Prototype4_8C.html" target="_top" xlink:title="prototype/blob/master\l/macros/prototype4/Fun4All\l_G4_Prototype4.C">
<polygon fill="none" stroke="#000000" points="1725.5,-.5 1725.5,-44.5 1882.5,-44.5 1882.5,-.5 1725.5,-.5"/>
<text text-anchor="start" x="1733.5" y="-31.5" font-family="FreeSans" font-size="10.00" fill="#000000">prototype/blob/master</text>
<text text-anchor="start" x="1733.5" y="-19.5" font-family="FreeSans" font-size="10.00" fill="#000000">/macros/prototype4/Fun4All</text>
<text text-anchor="middle" x="1804" y="-7.5" font-family="FreeSans" font-size="10.00" fill="#000000">_G4_Prototype4.C</text>
</a>
</g>
</g>
<!-- Node1&#45;&gt;Node12 -->
<g id="edge11" class="edge">
<title>Node1&#45;&gt;Node12</title>
<path fill="none" stroke="#191970" d="M1269.3386,-97.7372C1376.3746,-89.9203 1560.827,-73.5467 1717,-45 1719.7624,-44.4951 1722.5665,-43.9499 1725.3927,-43.3726"/>
<polygon fill="#191970" stroke="#191970" points="1268.9475,-94.2562 1259.2254,-98.4671 1269.4515,-101.2381 1268.9475,-94.2562"/>
</g>
<!-- Node13 -->
<g id="node13" class="node">
<title>Node13</title>
<g id="a_node13"><a xlink:href="../../db/d89/ConstructGeometry_8C.html" target="_top" xlink:title="prototype/blob/master\l/macros/tpc2019/ConstructGeometry.C">
<polygon fill="none" stroke="#000000" points="1901,-6.5 1901,-38.5 2115,-38.5 2115,-6.5 1901,-6.5"/>
<text text-anchor="start" x="1909" y="-25.5" font-family="FreeSans" font-size="10.00" fill="#000000">prototype/blob/master</text>
<text text-anchor="middle" x="2008" y="-13.5" font-family="FreeSans" font-size="10.00" fill="#000000">/macros/tpc2019/ConstructGeometry.C</text>
</a>
</g>
</g>
<!-- Node1&#45;&gt;Node13 -->
<g id="edge12" class="edge">
<title>Node1&#45;&gt;Node13</title>
<path fill="none" stroke="#191970" d="M1269.3677,-99.3075C1404.6036,-92.2527 1669.1163,-75.6782 1892,-45 1904.9049,-43.2237 1918.5449,-40.9443 1931.7613,-38.5206"/>
<polygon fill="#191970" stroke="#191970" points="1268.8706,-95.8284 1259.0644,-99.8396 1269.2317,-102.8191 1268.8706,-95.8284"/>
</g>
<!-- Node14 -->
<g id="node14" class="node">
<title>Node14</title>
<g id="a_node14"><a xlink:href="../../db/da1/Fun4All__G4__TPC_8C.html" target="_top" xlink:title="prototype/blob/master\l/macros/tpc2019/Fun4All\l_G4_TPC.C">
<polygon fill="none" stroke="#000000" points="2133.5,-.5 2133.5,-44.5 2276.5,-44.5 2276.5,-.5 2133.5,-.5"/>
<text text-anchor="start" x="2141.5" y="-31.5" font-family="FreeSans" font-size="10.00" fill="#000000">prototype/blob/master</text>
<text text-anchor="start" x="2141.5" y="-19.5" font-family="FreeSans" font-size="10.00" fill="#000000">/macros/tpc2019/Fun4All</text>
<text text-anchor="middle" x="2205" y="-7.5" font-family="FreeSans" font-size="10.00" fill="#000000">_G4_TPC.C</text>
</a>
</g>
</g>
<!-- Node1&#45;&gt;Node14 -->
<g id="edge13" class="edge">
<title>Node1&#45;&gt;Node14</title>
<path fill="none" stroke="#191970" d="M1269.1431,-100.3567C1471.6118,-92.8311 1961.1706,-72.3509 2124,-45 2127.0226,-44.4923 2130.0944,-43.9165 2133.1869,-43.2871"/>
<polygon fill="#191970" stroke="#191970" points="1269.0012,-96.8595 1259.1374,-100.7268 1269.26,-103.8547 1269.0012,-96.8595"/>
</g>
<!-- Node15 -->
<g id="node15" class="node">
<title>Node15</title>
<g id="a_node15"><a xlink:href="../../df/d20/Fun4All__TestBeam__TPC_8C.html" target="_top" xlink:title="prototype/blob/master\l/macros/tpc2019/Fun4All\l_TestBeam_TPC.C">
<polygon fill="none" stroke="#000000" points="2294.5,-.5 2294.5,-44.5 2437.5,-44.5 2437.5,-.5 2294.5,-.5"/>
<text text-anchor="start" x="2302.5" y="-31.5" font-family="FreeSans" font-size="10.00" fill="#000000">prototype/blob/master</text>
<text text-anchor="start" x="2302.5" y="-19.5" font-family="FreeSans" font-size="10.00" fill="#000000">/macros/tpc2019/Fun4All</text>
<text text-anchor="middle" x="2366" y="-7.5" font-family="FreeSans" font-size="10.00" fill="#000000">_TestBeam_TPC.C</text>
</a>
</g>
</g>
<!-- Node1&#45;&gt;Node15 -->
<g id="edge14" class="edge">
<title>Node1&#45;&gt;Node15</title>
<path fill="none" stroke="#191970" d="M1269.4878,-101.3203C1496.5954,-95.3787 2091.0962,-77.155 2286,-45 2288.7047,-44.5538 2291.4486,-44.0499 2294.211,-43.4993"/>
<polygon fill="#191970" stroke="#191970" points="1269.1851,-97.8269 1259.2794,-101.5856 1269.367,-104.8246 1269.1851,-97.8269"/>
</g>
</g>
</svg>
