<?xml version="1.0" encoding="UTF-8" standalone="no"?>
<!DOCTYPE svg PUBLIC "-//W3C//DTD SVG 1.1//EN"
 "http://www.w3.org/Graphics/SVG/1.1/DTD/svg11.dtd">
<!-- Generated by graphviz version 2.40.1 (20161225.0304)
 -->
<!-- Title: SvtxClusterEval::get_node_pointers Pages: 1 -->
<svg width="1473pt" height="539pt"
 viewBox="0.00 0.00 1473.00 539.00" xmlns="http://www.w3.org/2000/svg" xmlns:xlink="http://www.w3.org/1999/xlink">
<g id="graph0" class="graph" transform="scale(1 1) rotate(0) translate(4 535)">
<title>SvtxClusterEval::get_node_pointers</title>
<!-- Node1 -->
<g id="node1" class="node">
<title>Node1</title>
<polygon fill="#bfbfbf" stroke="#000000" points="0,-232.5 0,-264.5 120,-264.5 120,-232.5 0,-232.5"/>
<text text-anchor="start" x="8" y="-251.5" font-family="FreeSans" font-size="10.00" fill="#000000">SvtxClusterEval::get</text>
<text text-anchor="middle" x="60" y="-239.5" font-family="FreeSans" font-size="10.00" fill="#000000">_node_pointers</text>
</g>
<!-- Node2 -->
<g id="node2" class="node">
<title>Node2</title>
<g id="a_node2"><a xlink:href="../../d1/d1e/classSvtxClusterEval.html#a0f23d4c63d0e893560d423db7e02578d" target="_top" xlink:title="SvtxClusterEval::next\l_event">
<polygon fill="none" stroke="#000000" points="184.5,-255.5 184.5,-287.5 309.5,-287.5 309.5,-255.5 184.5,-255.5"/>
<text text-anchor="start" x="192.5" y="-274.5" font-family="FreeSans" font-size="10.00" fill="#000000">SvtxClusterEval::next</text>
<text text-anchor="middle" x="247" y="-262.5" font-family="FreeSans" font-size="10.00" fill="#000000">_event</text>
</a>
</g>
</g>
<!-- Node1&#45;&gt;Node2 -->
<g id="edge1" class="edge">
<title>Node1&#45;&gt;Node2</title>
<path fill="none" stroke="#191970" d="M130.4646,-257.1668C148.1686,-259.3443 167.0478,-261.6663 184.3416,-263.7934"/>
<polygon fill="#191970" stroke="#191970" points="130.5498,-253.651 120.1973,-255.9039 129.6952,-260.5986 130.5498,-253.651"/>
</g>
<!-- Node21 -->
<g id="node21" class="node">
<title>Node21</title>
<g id="a_node21"><a xlink:href="../../d1/d1e/classSvtxClusterEval.html#ab3ebca4885bf81da5bfa3375add57782" target="_top" xlink:title="SvtxClusterEval::SvtxClusterEval">
<polygon fill="none" stroke="#000000" points="156,-216.5 156,-236.5 338,-236.5 338,-216.5 156,-216.5"/>
<text text-anchor="middle" x="247" y="-223.5" font-family="FreeSans" font-size="10.00" fill="#000000">SvtxClusterEval::SvtxClusterEval</text>
</a>
</g>
</g>
<!-- Node1&#45;&gt;Node21 -->
<g id="edge20" class="edge">
<title>Node1&#45;&gt;Node21</title>
<path fill="none" stroke="#191970" d="M130.2991,-240.2295C140.5533,-239.0231 151.2049,-237.77 161.7169,-236.5333"/>
<polygon fill="#191970" stroke="#191970" points="129.7198,-236.7734 120.1973,-241.418 130.5378,-243.7255 129.7198,-236.7734"/>
</g>
<!-- Node3 -->
<g id="node3" class="node">
<title>Node3</title>
<g id="a_node3"><a xlink:href="../../df/dad/classSvtxTrackEval.html#aff069c6fdb0f6d80147b65a98878d90f" target="_top" xlink:title="SvtxTrackEval::next\l_event">
<polygon fill="none" stroke="#000000" points="374,-255.5 374,-287.5 490,-287.5 490,-255.5 374,-255.5"/>
<text text-anchor="start" x="382" y="-274.5" font-family="FreeSans" font-size="10.00" fill="#000000">SvtxTrackEval::next</text>
<text text-anchor="middle" x="432" y="-262.5" font-family="FreeSans" font-size="10.00" fill="#000000">_event</text>
</a>
</g>
</g>
<!-- Node2&#45;&gt;Node3 -->
<g id="edge2" class="edge">
<title>Node2&#45;&gt;Node3</title>
<path fill="none" stroke="#191970" d="M319.7578,-271.5C337.6892,-271.5 356.6587,-271.5 373.7981,-271.5"/>
<polygon fill="#191970" stroke="#191970" points="319.6326,-268.0001 309.6326,-271.5 319.6325,-275.0001 319.6326,-268.0001"/>
</g>
<!-- Node4 -->
<g id="node4" class="node">
<title>Node4</title>
<g id="a_node4"><a xlink:href="../../d4/d21/classSvtxVertexEval.html#ad872cdf8407f2f483af522aed6786a40" target="_top" xlink:title="SvtxVertexEval::next\l_event">
<polygon fill="none" stroke="#000000" points="526,-255.5 526,-287.5 648,-287.5 648,-255.5 526,-255.5"/>
<text text-anchor="start" x="534" y="-274.5" font-family="FreeSans" font-size="10.00" fill="#000000">SvtxVertexEval::next</text>
<text text-anchor="middle" x="587" y="-262.5" font-family="FreeSans" font-size="10.00" fill="#000000">_event</text>
</a>
</g>
</g>
<!-- Node3&#45;&gt;Node4 -->
<g id="edge3" class="edge">
<title>Node3&#45;&gt;Node4</title>
<path fill="none" stroke="#191970" d="M500.4174,-271.5C508.9118,-271.5 517.5538,-271.5 525.9276,-271.5"/>
<polygon fill="#191970" stroke="#191970" points="500.1573,-268.0001 490.1573,-271.5 500.1572,-275.0001 500.1573,-268.0001"/>
</g>
<!-- Node5 -->
<g id="node5" class="node">
<title>Node5</title>
<g id="a_node5"><a xlink:href="../../d3/ded/classSvtxEvalStack.html#a8a929a1f521c9e8596ecb1ca108281cf" target="_top" xlink:title="SvtxEvalStack::next\l_event">
<polygon fill="none" stroke="#000000" points="684,-255.5 684,-287.5 801,-287.5 801,-255.5 684,-255.5"/>
<text text-anchor="start" x="692" y="-274.5" font-family="FreeSans" font-size="10.00" fill="#000000">SvtxEvalStack::next</text>
<text text-anchor="middle" x="742.5" y="-262.5" font-family="FreeSans" font-size="10.00" fill="#000000">_event</text>
</a>
</g>
</g>
<!-- Node4&#45;&gt;Node5 -->
<g id="edge4" class="edge">
<title>Node4&#45;&gt;Node5</title>
<path fill="none" stroke="#191970" d="M658.0932,-271.5C666.7469,-271.5 675.5114,-271.5 683.9536,-271.5"/>
<polygon fill="#191970" stroke="#191970" points="658.0114,-268.0001 648.0114,-271.5 658.0114,-275.0001 658.0114,-268.0001"/>
</g>
<!-- Node6 -->
<g id="node6" class="node">
<title>Node6</title>
<g id="a_node6"><a xlink:href="../../db/d4b/classEMCalAna.html#a3b829b80df0fd8625130f3d9c11f5d3d" target="_top" xlink:title="EMCalAna::process_event">
<polygon fill="none" stroke="#000000" points="837,-510.5 837,-530.5 984,-530.5 984,-510.5 837,-510.5"/>
<text text-anchor="middle" x="910.5" y="-517.5" font-family="FreeSans" font-size="10.00" fill="#000000">EMCalAna::process_event</text>
</a>
</g>
</g>
<!-- Node5&#45;&gt;Node6 -->
<g id="edge5" class="edge">
<title>Node5&#45;&gt;Node6</title>
<path fill="none" stroke="#191970" d="M745.6494,-297.8894C752.8072,-345.8355 774.8088,-447.2877 837,-501.5 841.1727,-505.1374 845.9546,-508.0927 851.0335,-510.4918"/>
<polygon fill="#191970" stroke="#191970" points="749.0776,-297.1301 744.2349,-287.7068 742.1441,-298.0933 749.0776,-297.1301"/>
</g>
<!-- Node7 -->
<g id="node7" class="node">
<title>Node7</title>
<g id="a_node7"><a xlink:href="../../de/da4/classEMCalCalib.html#aa70da6270813e434e35da37b6ec2a350" target="_top" xlink:title="EMCalCalib::process\l_event">
<polygon fill="none" stroke="#000000" points="851.5,-459.5 851.5,-491.5 969.5,-491.5 969.5,-459.5 851.5,-459.5"/>
<text text-anchor="start" x="859.5" y="-478.5" font-family="FreeSans" font-size="10.00" fill="#000000">EMCalCalib::process</text>
<text text-anchor="middle" x="910.5" y="-466.5" font-family="FreeSans" font-size="10.00" fill="#000000">_event</text>
</a>
</g>
</g>
<!-- Node5&#45;&gt;Node7 -->
<g id="edge6" class="edge">
<title>Node5&#45;&gt;Node7</title>
<path fill="none" stroke="#191970" d="M749.5363,-297.6735C761.2783,-336.473 788.4993,-409.1102 837,-450.5 841.3061,-454.1747 846.1776,-457.3166 851.3131,-460.0016"/>
<polygon fill="#191970" stroke="#191970" points="752.7837,-296.3061 746.6301,-287.6814 746.0622,-298.2611 752.7837,-296.3061"/>
</g>
<!-- Node8 -->
<g id="node8" class="node">
<title>Node8</title>
<g id="a_node8"><a xlink:href="../../d7/d62/classHFMLTriggerInterface.html#a29f338c2563a39e5d0e58b316f4b036f" target="_top" xlink:title="HFMLTriggerInterface\l::process_event">
<polygon fill="none" stroke="#000000" points="849.5,-408.5 849.5,-440.5 971.5,-440.5 971.5,-408.5 849.5,-408.5"/>
<text text-anchor="start" x="857.5" y="-427.5" font-family="FreeSans" font-size="10.00" fill="#000000">HFMLTriggerInterface</text>
<text text-anchor="middle" x="910.5" y="-415.5" font-family="FreeSans" font-size="10.00" fill="#000000">::process_event</text>
</a>
</g>
</g>
<!-- Node5&#45;&gt;Node8 -->
<g id="edge7" class="edge">
<title>Node5&#45;&gt;Node8</title>
<path fill="none" stroke="#191970" d="M755.0411,-296.763C770.5458,-325.54 799.5383,-372.1086 837,-399.5 841.6785,-402.9208 846.859,-405.8978 852.2408,-408.4835"/>
<polygon fill="#191970" stroke="#191970" points="758.0523,-294.9688 750.3073,-287.7393 751.8535,-298.2207 758.0523,-294.9688"/>
</g>
<!-- Node9 -->
<g id="node9" class="node">
<title>Node9</title>
<g id="a_node9"><a xlink:href="../../da/dbf/classHFMLTriggerOccupancy.html#add094957c68c32da4afc212ffa24e885" target="_top" xlink:title="HFMLTriggerOccupancy\l::process_event">
<polygon fill="none" stroke="#000000" points="843.5,-357.5 843.5,-389.5 977.5,-389.5 977.5,-357.5 843.5,-357.5"/>
<text text-anchor="start" x="851.5" y="-376.5" font-family="FreeSans" font-size="10.00" fill="#000000">HFMLTriggerOccupancy</text>
<text text-anchor="middle" x="910.5" y="-364.5" font-family="FreeSans" font-size="10.00" fill="#000000">::process_event</text>
</a>
</g>
</g>
<!-- Node5&#45;&gt;Node9 -->
<g id="edge8" class="edge">
<title>Node5&#45;&gt;Node9</title>
<path fill="none" stroke="#191970" d="M766.3058,-294.9695C784.4302,-311.7734 810.6707,-333.9179 837,-348.5 843.0133,-351.8304 849.5478,-354.826 856.1571,-357.4881"/>
<polygon fill="#191970" stroke="#191970" points="768.2516,-291.9929 758.5783,-287.6709 763.445,-297.0819 768.2516,-291.9929"/>
</g>
<!-- Node10 -->
<g id="node10" class="node">
<title>Node10</title>
<g id="a_node10"><a xlink:href="../../dc/d65/classPhotonJet.html#a3f9d3ec941f851bc2246ceb0c5362c9f" target="_top" xlink:title="PhotonJet::process\l_event">
<polygon fill="none" stroke="#000000" points="855.5,-306.5 855.5,-338.5 965.5,-338.5 965.5,-306.5 855.5,-306.5"/>
<text text-anchor="start" x="863.5" y="-325.5" font-family="FreeSans" font-size="10.00" fill="#000000">PhotonJet::process</text>
<text text-anchor="middle" x="910.5" y="-313.5" font-family="FreeSans" font-size="10.00" fill="#000000">_event</text>
</a>
</g>
</g>
<!-- Node5&#45;&gt;Node10 -->
<g id="edge9" class="edge">
<title>Node5&#45;&gt;Node10</title>
<path fill="none" stroke="#191970" d="M805.5938,-290.6535C822.756,-295.8634 841.1616,-301.4508 857.6895,-306.4683"/>
<polygon fill="#191970" stroke="#191970" points="806.2418,-287.1925 795.6563,-287.6367 804.2084,-293.8907 806.2418,-287.1925"/>
</g>
<!-- Node11 -->
<g id="node11" class="node">
<title>Node11</title>
<g id="a_node11"><a xlink:href="../../d8/d98/classpsTOFTimezeroEval.html#a2e98730e1beaa91c36947c0fe671fdd2" target="_top" xlink:title="psTOFTimezeroEval::\lprocess_event">
<polygon fill="none" stroke="#000000" points="849.5,-255.5 849.5,-287.5 971.5,-287.5 971.5,-255.5 849.5,-255.5"/>
<text text-anchor="start" x="857.5" y="-274.5" font-family="FreeSans" font-size="10.00" fill="#000000">psTOFTimezeroEval::</text>
<text text-anchor="middle" x="910.5" y="-262.5" font-family="FreeSans" font-size="10.00" fill="#000000">process_event</text>
</a>
</g>
</g>
<!-- Node5&#45;&gt;Node11 -->
<g id="edge10" class="edge">
<title>Node5&#45;&gt;Node11</title>
<path fill="none" stroke="#191970" d="M811.2863,-271.5C823.9466,-271.5 837.0839,-271.5 849.4955,-271.5"/>
<polygon fill="#191970" stroke="#191970" points="811.2583,-268.0001 801.2582,-271.5 811.2582,-275.0001 811.2583,-268.0001"/>
</g>
<!-- Node12 -->
<g id="node12" class="node">
<title>Node12</title>
<g id="a_node12"><a xlink:href="../../db/d2f/classAnaSvtxTracksForGenFit.html#a6f277cfc1d441b018fccacf6fb882dd0" target="_top" xlink:title="AnaSvtxTracksForGenFit\l::process_event">
<polygon fill="none" stroke="#000000" points="840.5,-204.5 840.5,-236.5 980.5,-236.5 980.5,-204.5 840.5,-204.5"/>
<text text-anchor="start" x="848.5" y="-223.5" font-family="FreeSans" font-size="10.00" fill="#000000">AnaSvtxTracksForGenFit</text>
<text text-anchor="middle" x="910.5" y="-211.5" font-family="FreeSans" font-size="10.00" fill="#000000">::process_event</text>
</a>
</g>
</g>
<!-- Node5&#45;&gt;Node12 -->
<g id="edge11" class="edge">
<title>Node5&#45;&gt;Node12</title>
<path fill="none" stroke="#191970" d="M805.5938,-252.3465C822.756,-247.1366 841.1616,-241.5492 857.6895,-236.5317"/>
<polygon fill="#191970" stroke="#191970" points="804.2084,-249.1093 795.6563,-255.3633 806.2418,-255.8075 804.2084,-249.1093"/>
</g>
<!-- Node13 -->
<g id="node13" class="node">
<title>Node13</title>
<g id="a_node13"><a xlink:href="../../dc/dfb/classGenFitTrackProp.html#a92a3570ed1802ba0f7e9eeb50eb9a6ec" target="_top" xlink:title="Process Event, called for each event.">
<polygon fill="none" stroke="#000000" points="839,-153.5 839,-185.5 982,-185.5 982,-153.5 839,-153.5"/>
<text text-anchor="start" x="847" y="-172.5" font-family="FreeSans" font-size="10.00" fill="#000000">GenFitTrackProp::process</text>
<text text-anchor="middle" x="910.5" y="-160.5" font-family="FreeSans" font-size="10.00" fill="#000000">_event</text>
</a>
</g>
</g>
<!-- Node5&#45;&gt;Node13 -->
<g id="edge12" class="edge">
<title>Node5&#45;&gt;Node13</title>
<path fill="none" stroke="#191970" d="M766.7446,-248.1446C784.9085,-231.6519 811.0079,-209.9932 837,-195.5 843.6201,-191.8086 850.8611,-188.4881 858.1344,-185.5527"/>
<polygon fill="#191970" stroke="#191970" points="763.9549,-245.9569 758.9863,-255.3145 768.7059,-251.0978 763.9549,-245.9569"/>
</g>
<!-- Node14 -->
<g id="node14" class="node">
<title>Node14</title>
<g id="a_node14"><a xlink:href="../../d2/d85/classSvtxEvaluatorHaiwang.html#ab63ca0cc53b56dad65b89d9b18220bce" target="_top" xlink:title="SvtxEvaluatorHaiwang\l::process_event">
<polygon fill="none" stroke="#000000" points="845,-102.5 845,-134.5 976,-134.5 976,-102.5 845,-102.5"/>
<text text-anchor="start" x="853" y="-121.5" font-family="FreeSans" font-size="10.00" fill="#000000">SvtxEvaluatorHaiwang</text>
<text text-anchor="middle" x="910.5" y="-109.5" font-family="FreeSans" font-size="10.00" fill="#000000">::process_event</text>
</a>
</g>
</g>
<!-- Node5&#45;&gt;Node14 -->
<g id="edge13" class="edge">
<title>Node5&#45;&gt;Node14</title>
<path fill="none" stroke="#191970" d="M755.1488,-246.5166C770.7547,-218.0416 799.8421,-171.9092 837,-144.5 842.1195,-140.7237 847.8366,-137.4576 853.7593,-134.6417"/>
<polygon fill="#191970" stroke="#191970" points="752.0047,-244.9741 750.381,-255.4438 758.1793,-248.2718 752.0047,-244.9741"/>
</g>
<!-- Node15 -->
<g id="node15" class="node">
<title>Node15</title>
<g id="a_node15"><a xlink:href="../../d3/d22/classJetTruthEval.html#ac29b8d18ee116903ed233388eb253256" target="_top" xlink:title="reinitialize the eval for a new event">
<polygon fill="none" stroke="#000000" points="857,-51.5 857,-83.5 964,-83.5 964,-51.5 857,-51.5"/>
<text text-anchor="start" x="865" y="-70.5" font-family="FreeSans" font-size="10.00" fill="#000000">JetTruthEval::next</text>
<text text-anchor="middle" x="910.5" y="-58.5" font-family="FreeSans" font-size="10.00" fill="#000000">_event</text>
</a>
</g>
</g>
<!-- Node5&#45;&gt;Node15 -->
<g id="edge14" class="edge">
<title>Node5&#45;&gt;Node15</title>
<path fill="none" stroke="#191970" d="M749.6419,-245.5458C761.5199,-207.0573 788.9141,-134.9459 837,-93.5 842.8439,-88.463 849.7293,-84.3801 856.9027,-81.0761"/>
<polygon fill="#191970" stroke="#191970" points="746.1904,-244.8739 746.6988,-255.4565 752.9008,-246.8666 746.1904,-244.8739"/>
</g>
<!-- Node20 -->
<g id="node20" class="node">
<title>Node20</title>
<g id="a_node20"><a xlink:href="../../d6/d11/classSvtxEvaluator.html#ac66ea4145deb621d9e4fb38cf852dc33" target="_top" xlink:title="SvtxEvaluator::process\l_event">
<polygon fill="none" stroke="#000000" points="844.5,-.5 844.5,-32.5 976.5,-32.5 976.5,-.5 844.5,-.5"/>
<text text-anchor="start" x="852.5" y="-19.5" font-family="FreeSans" font-size="10.00" fill="#000000">SvtxEvaluator::process</text>
<text text-anchor="middle" x="910.5" y="-7.5" font-family="FreeSans" font-size="10.00" fill="#000000">_event</text>
</a>
</g>
</g>
<!-- Node5&#45;&gt;Node20 -->
<g id="edge19" class="edge">
<title>Node5&#45;&gt;Node20</title>
<path fill="none" stroke="#191970" d="M746.2081,-245.3902C754.2365,-198.3386 777.5497,-98.9721 837,-42.5 841.0235,-38.678 845.6436,-35.4134 850.5658,-32.6255"/>
<polygon fill="#191970" stroke="#191970" points="742.7325,-244.9593 744.6003,-255.3882 749.6437,-246.0707 742.7325,-244.9593"/>
</g>
<!-- Node16 -->
<g id="node16" class="node">
<title>Node16</title>
<g id="a_node16"><a xlink:href="../../dd/d75/classJetRecoEval.html#ae02e058aa7f403d5853482b5d06c01c9" target="_top" xlink:title="reinitialize the eval for a new event">
<polygon fill="none" stroke="#000000" points="1020,-57.5 1020,-77.5 1160,-77.5 1160,-57.5 1020,-57.5"/>
<text text-anchor="middle" x="1090" y="-64.5" font-family="FreeSans" font-size="10.00" fill="#000000">JetRecoEval::next_event</text>
</a>
</g>
</g>
<!-- Node15&#45;&gt;Node16 -->
<g id="edge15" class="edge">
<title>Node15&#45;&gt;Node16</title>
<path fill="none" stroke="#191970" d="M974.3794,-67.5C989.1247,-67.5 1004.8886,-67.5 1019.8837,-67.5"/>
<polygon fill="#191970" stroke="#191970" points="974.356,-64.0001 964.3559,-67.5 974.3559,-71.0001 974.356,-64.0001"/>
</g>
<!-- Node17 -->
<g id="node17" class="node">
<title>Node17</title>
<g id="a_node17"><a xlink:href="../../dd/df3/classJetEvalStack.html#ab85ba05ab4fea5909c8faa238ba5f8e6" target="_top" xlink:title="JetEvalStack::next\l_event">
<polygon fill="none" stroke="#000000" points="1196,-51.5 1196,-83.5 1305,-83.5 1305,-51.5 1196,-51.5"/>
<text text-anchor="start" x="1204" y="-70.5" font-family="FreeSans" font-size="10.00" fill="#000000">JetEvalStack::next</text>
<text text-anchor="middle" x="1250.5" y="-58.5" font-family="FreeSans" font-size="10.00" fill="#000000">_event</text>
</a>
</g>
</g>
<!-- Node16&#45;&gt;Node17 -->
<g id="edge16" class="edge">
<title>Node16&#45;&gt;Node17</title>
<path fill="none" stroke="#191970" d="M1170.6705,-67.5C1179.1104,-67.5 1187.5441,-67.5 1195.5983,-67.5"/>
<polygon fill="#191970" stroke="#191970" points="1170.3977,-64.0001 1160.3976,-67.5 1170.3976,-71.0001 1170.3977,-64.0001"/>
</g>
<!-- Node18 -->
<g id="node18" class="node">
<title>Node18</title>
<g id="a_node18"><a xlink:href="../../d1/df4/classJetEvaluator.html#ad83508ae828d1f2e4a83a948465a0cd2" target="_top" xlink:title="JetEvaluator::process\l_event">
<polygon fill="none" stroke="#000000" points="1341,-77.5 1341,-109.5 1465,-109.5 1465,-77.5 1341,-77.5"/>
<text text-anchor="start" x="1349" y="-96.5" font-family="FreeSans" font-size="10.00" fill="#000000">JetEvaluator::process</text>
<text text-anchor="middle" x="1403" y="-84.5" font-family="FreeSans" font-size="10.00" fill="#000000">_event</text>
</a>
</g>
</g>
<!-- Node17&#45;&gt;Node18 -->
<g id="edge17" class="edge">
<title>Node17&#45;&gt;Node18</title>
<path fill="none" stroke="#191970" d="M1315.079,-78.5102C1323.66,-79.9732 1332.443,-81.4706 1340.9793,-82.926"/>
<polygon fill="#191970" stroke="#191970" points="1315.5713,-75.0437 1305.1253,-76.8132 1314.3948,-81.9441 1315.5713,-75.0437"/>
</g>
<!-- Node19 -->
<g id="node19" class="node">
<title>Node19</title>
<g id="a_node19"><a xlink:href="../../d8/de2/classJetEnergies.html#a6acaa9b2ba1fe7353781d2f5d476e8d1" target="_top" xlink:title="JetEnergies::process\l_event">
<polygon fill="none" stroke="#000000" points="1343,-26.5 1343,-58.5 1463,-58.5 1463,-26.5 1343,-26.5"/>
<text text-anchor="start" x="1351" y="-45.5" font-family="FreeSans" font-size="10.00" fill="#000000">JetEnergies::process</text>
<text text-anchor="middle" x="1403" y="-33.5" font-family="FreeSans" font-size="10.00" fill="#000000">_event</text>
</a>
</g>
</g>
<!-- Node17&#45;&gt;Node19 -->
<g id="edge18" class="edge">
<title>Node17&#45;&gt;Node19</title>
<path fill="none" stroke="#191970" d="M1315.009,-56.9248C1324.2267,-55.4137 1333.6788,-53.8641 1342.8092,-52.3673"/>
<polygon fill="#191970" stroke="#191970" points="1314.4273,-53.4733 1305.1253,-58.545 1315.5598,-60.3811 1314.4273,-53.4733"/>
</g>
</g>
</svg>
