<?xml version="1.0" encoding="UTF-8" standalone="no"?>
<!DOCTYPE svg PUBLIC "-//W3C//DTD SVG 1.1//EN"
 "http://www.w3.org/Graphics/SVG/1.1/DTD/svg11.dtd">
<!-- Generated by graphviz version 2.40.1 (20161225.0304)
 -->
<!-- Title: SvtxClusterEval::next_event Pages: 1 -->
<svg width="1260pt" height="539pt"
 viewBox="0.00 0.00 1260.00 539.00" xmlns="http://www.w3.org/2000/svg" xmlns:xlink="http://www.w3.org/1999/xlink">
<g id="graph0" class="graph" transform="scale(1 1) rotate(0) translate(4 535)">
<title>SvtxClusterEval::next_event</title>
<!-- Node1 -->
<g id="node1" class="node">
<title>Node1</title>
<polygon fill="#bfbfbf" stroke="#000000" points="0,-255.5 0,-287.5 125,-287.5 125,-255.5 0,-255.5"/>
<text text-anchor="start" x="8" y="-274.5" font-family="FreeSans" font-size="10.00" fill="#000000">SvtxClusterEval::next</text>
<text text-anchor="middle" x="62.5" y="-262.5" font-family="FreeSans" font-size="10.00" fill="#000000">_event</text>
</g>
<!-- Node2 -->
<g id="node2" class="node">
<title>Node2</title>
<g id="a_node2"><a xlink:href="../../df/dad/classSvtxTrackEval.html#aff069c6fdb0f6d80147b65a98878d90f" target="_top" xlink:title="SvtxTrackEval::next\l_event">
<polygon fill="none" stroke="#000000" points="161,-255.5 161,-287.5 277,-287.5 277,-255.5 161,-255.5"/>
<text text-anchor="start" x="169" y="-274.5" font-family="FreeSans" font-size="10.00" fill="#000000">SvtxTrackEval::next</text>
<text text-anchor="middle" x="219" y="-262.5" font-family="FreeSans" font-size="10.00" fill="#000000">_event</text>
</a>
</g>
</g>
<!-- Node1&#45;&gt;Node2 -->
<g id="edge1" class="edge">
<title>Node1&#45;&gt;Node2</title>
<path fill="none" stroke="#191970" d="M135.524,-271.5C144,-271.5 152.5581,-271.5 160.7982,-271.5"/>
<polygon fill="#191970" stroke="#191970" points="135.2528,-268.0001 125.2528,-271.5 135.2528,-275.0001 135.2528,-268.0001"/>
</g>
<!-- Node3 -->
<g id="node3" class="node">
<title>Node3</title>
<g id="a_node3"><a xlink:href="../../d4/d21/classSvtxVertexEval.html#ad872cdf8407f2f483af522aed6786a40" target="_top" xlink:title="SvtxVertexEval::next\l_event">
<polygon fill="none" stroke="#000000" points="313,-255.5 313,-287.5 435,-287.5 435,-255.5 313,-255.5"/>
<text text-anchor="start" x="321" y="-274.5" font-family="FreeSans" font-size="10.00" fill="#000000">SvtxVertexEval::next</text>
<text text-anchor="middle" x="374" y="-262.5" font-family="FreeSans" font-size="10.00" fill="#000000">_event</text>
</a>
</g>
</g>
<!-- Node2&#45;&gt;Node3 -->
<g id="edge2" class="edge">
<title>Node2&#45;&gt;Node3</title>
<path fill="none" stroke="#191970" d="M287.4174,-271.5C295.9118,-271.5 304.5538,-271.5 312.9276,-271.5"/>
<polygon fill="#191970" stroke="#191970" points="287.1573,-268.0001 277.1573,-271.5 287.1572,-275.0001 287.1573,-268.0001"/>
</g>
<!-- Node4 -->
<g id="node4" class="node">
<title>Node4</title>
<g id="a_node4"><a xlink:href="../../d3/ded/classSvtxEvalStack.html#a8a929a1f521c9e8596ecb1ca108281cf" target="_top" xlink:title="SvtxEvalStack::next\l_event">
<polygon fill="none" stroke="#000000" points="471,-255.5 471,-287.5 588,-287.5 588,-255.5 471,-255.5"/>
<text text-anchor="start" x="479" y="-274.5" font-family="FreeSans" font-size="10.00" fill="#000000">SvtxEvalStack::next</text>
<text text-anchor="middle" x="529.5" y="-262.5" font-family="FreeSans" font-size="10.00" fill="#000000">_event</text>
</a>
</g>
</g>
<!-- Node3&#45;&gt;Node4 -->
<g id="edge3" class="edge">
<title>Node3&#45;&gt;Node4</title>
<path fill="none" stroke="#191970" d="M445.0932,-271.5C453.7469,-271.5 462.5114,-271.5 470.9536,-271.5"/>
<polygon fill="#191970" stroke="#191970" points="445.0114,-268.0001 435.0114,-271.5 445.0114,-275.0001 445.0114,-268.0001"/>
</g>
<!-- Node5 -->
<g id="node5" class="node">
<title>Node5</title>
<g id="a_node5"><a xlink:href="../../db/d4b/classEMCalAna.html#a3b829b80df0fd8625130f3d9c11f5d3d" target="_top" xlink:title="EMCalAna::process_event">
<polygon fill="none" stroke="#000000" points="624,-510.5 624,-530.5 771,-530.5 771,-510.5 624,-510.5"/>
<text text-anchor="middle" x="697.5" y="-517.5" font-family="FreeSans" font-size="10.00" fill="#000000">EMCalAna::process_event</text>
</a>
</g>
</g>
<!-- Node4&#45;&gt;Node5 -->
<g id="edge4" class="edge">
<title>Node4&#45;&gt;Node5</title>
<path fill="none" stroke="#191970" d="M532.6494,-297.8894C539.8072,-345.8355 561.8088,-447.2877 624,-501.5 628.1727,-505.1374 632.9546,-508.0927 638.0335,-510.4918"/>
<polygon fill="#191970" stroke="#191970" points="536.0776,-297.1301 531.2349,-287.7068 529.1441,-298.0933 536.0776,-297.1301"/>
</g>
<!-- Node6 -->
<g id="node6" class="node">
<title>Node6</title>
<g id="a_node6"><a xlink:href="../../de/da4/classEMCalCalib.html#aa70da6270813e434e35da37b6ec2a350" target="_top" xlink:title="EMCalCalib::process\l_event">
<polygon fill="none" stroke="#000000" points="638.5,-459.5 638.5,-491.5 756.5,-491.5 756.5,-459.5 638.5,-459.5"/>
<text text-anchor="start" x="646.5" y="-478.5" font-family="FreeSans" font-size="10.00" fill="#000000">EMCalCalib::process</text>
<text text-anchor="middle" x="697.5" y="-466.5" font-family="FreeSans" font-size="10.00" fill="#000000">_event</text>
</a>
</g>
</g>
<!-- Node4&#45;&gt;Node6 -->
<g id="edge5" class="edge">
<title>Node4&#45;&gt;Node6</title>
<path fill="none" stroke="#191970" d="M536.5363,-297.6735C548.2783,-336.473 575.4993,-409.1102 624,-450.5 628.3061,-454.1747 633.1776,-457.3166 638.3131,-460.0016"/>
<polygon fill="#191970" stroke="#191970" points="539.7837,-296.3061 533.6301,-287.6814 533.0622,-298.2611 539.7837,-296.3061"/>
</g>
<!-- Node7 -->
<g id="node7" class="node">
<title>Node7</title>
<g id="a_node7"><a xlink:href="../../d7/d62/classHFMLTriggerInterface.html#a29f338c2563a39e5d0e58b316f4b036f" target="_top" xlink:title="HFMLTriggerInterface\l::process_event">
<polygon fill="none" stroke="#000000" points="636.5,-408.5 636.5,-440.5 758.5,-440.5 758.5,-408.5 636.5,-408.5"/>
<text text-anchor="start" x="644.5" y="-427.5" font-family="FreeSans" font-size="10.00" fill="#000000">HFMLTriggerInterface</text>
<text text-anchor="middle" x="697.5" y="-415.5" font-family="FreeSans" font-size="10.00" fill="#000000">::process_event</text>
</a>
</g>
</g>
<!-- Node4&#45;&gt;Node7 -->
<g id="edge6" class="edge">
<title>Node4&#45;&gt;Node7</title>
<path fill="none" stroke="#191970" d="M542.0411,-296.763C557.5458,-325.54 586.5383,-372.1086 624,-399.5 628.6785,-402.9208 633.859,-405.8978 639.2408,-408.4835"/>
<polygon fill="#191970" stroke="#191970" points="545.0523,-294.9688 537.3073,-287.7393 538.8535,-298.2207 545.0523,-294.9688"/>
</g>
<!-- Node8 -->
<g id="node8" class="node">
<title>Node8</title>
<g id="a_node8"><a xlink:href="../../da/dbf/classHFMLTriggerOccupancy.html#add094957c68c32da4afc212ffa24e885" target="_top" xlink:title="HFMLTriggerOccupancy\l::process_event">
<polygon fill="none" stroke="#000000" points="630.5,-357.5 630.5,-389.5 764.5,-389.5 764.5,-357.5 630.5,-357.5"/>
<text text-anchor="start" x="638.5" y="-376.5" font-family="FreeSans" font-size="10.00" fill="#000000">HFMLTriggerOccupancy</text>
<text text-anchor="middle" x="697.5" y="-364.5" font-family="FreeSans" font-size="10.00" fill="#000000">::process_event</text>
</a>
</g>
</g>
<!-- Node4&#45;&gt;Node8 -->
<g id="edge7" class="edge">
<title>Node4&#45;&gt;Node8</title>
<path fill="none" stroke="#191970" d="M553.3058,-294.9695C571.4302,-311.7734 597.6707,-333.9179 624,-348.5 630.0133,-351.8304 636.5478,-354.826 643.1571,-357.4881"/>
<polygon fill="#191970" stroke="#191970" points="555.2516,-291.9929 545.5783,-287.6709 550.445,-297.0819 555.2516,-291.9929"/>
</g>
<!-- Node9 -->
<g id="node9" class="node">
<title>Node9</title>
<g id="a_node9"><a xlink:href="../../dc/d65/classPhotonJet.html#a3f9d3ec941f851bc2246ceb0c5362c9f" target="_top" xlink:title="PhotonJet::process\l_event">
<polygon fill="none" stroke="#000000" points="642.5,-306.5 642.5,-338.5 752.5,-338.5 752.5,-306.5 642.5,-306.5"/>
<text text-anchor="start" x="650.5" y="-325.5" font-family="FreeSans" font-size="10.00" fill="#000000">PhotonJet::process</text>
<text text-anchor="middle" x="697.5" y="-313.5" font-family="FreeSans" font-size="10.00" fill="#000000">_event</text>
</a>
</g>
</g>
<!-- Node4&#45;&gt;Node9 -->
<g id="edge8" class="edge">
<title>Node4&#45;&gt;Node9</title>
<path fill="none" stroke="#191970" d="M592.5938,-290.6535C609.756,-295.8634 628.1616,-301.4508 644.6895,-306.4683"/>
<polygon fill="#191970" stroke="#191970" points="593.2418,-287.1925 582.6563,-287.6367 591.2084,-293.8907 593.2418,-287.1925"/>
</g>
<!-- Node10 -->
<g id="node10" class="node">
<title>Node10</title>
<g id="a_node10"><a xlink:href="../../d8/d98/classpsTOFTimezeroEval.html#a2e98730e1beaa91c36947c0fe671fdd2" target="_top" xlink:title="psTOFTimezeroEval::\lprocess_event">
<polygon fill="none" stroke="#000000" points="636.5,-255.5 636.5,-287.5 758.5,-287.5 758.5,-255.5 636.5,-255.5"/>
<text text-anchor="start" x="644.5" y="-274.5" font-family="FreeSans" font-size="10.00" fill="#000000">psTOFTimezeroEval::</text>
<text text-anchor="middle" x="697.5" y="-262.5" font-family="FreeSans" font-size="10.00" fill="#000000">process_event</text>
</a>
</g>
</g>
<!-- Node4&#45;&gt;Node10 -->
<g id="edge9" class="edge">
<title>Node4&#45;&gt;Node10</title>
<path fill="none" stroke="#191970" d="M598.2863,-271.5C610.9466,-271.5 624.0839,-271.5 636.4955,-271.5"/>
<polygon fill="#191970" stroke="#191970" points="598.2583,-268.0001 588.2582,-271.5 598.2582,-275.0001 598.2583,-268.0001"/>
</g>
<!-- Node11 -->
<g id="node11" class="node">
<title>Node11</title>
<g id="a_node11"><a xlink:href="../../db/d2f/classAnaSvtxTracksForGenFit.html#a6f277cfc1d441b018fccacf6fb882dd0" target="_top" xlink:title="AnaSvtxTracksForGenFit\l::process_event">
<polygon fill="none" stroke="#000000" points="627.5,-204.5 627.5,-236.5 767.5,-236.5 767.5,-204.5 627.5,-204.5"/>
<text text-anchor="start" x="635.5" y="-223.5" font-family="FreeSans" font-size="10.00" fill="#000000">AnaSvtxTracksForGenFit</text>
<text text-anchor="middle" x="697.5" y="-211.5" font-family="FreeSans" font-size="10.00" fill="#000000">::process_event</text>
</a>
</g>
</g>
<!-- Node4&#45;&gt;Node11 -->
<g id="edge10" class="edge">
<title>Node4&#45;&gt;Node11</title>
<path fill="none" stroke="#191970" d="M592.5938,-252.3465C609.756,-247.1366 628.1616,-241.5492 644.6895,-236.5317"/>
<polygon fill="#191970" stroke="#191970" points="591.2084,-249.1093 582.6563,-255.3633 593.2418,-255.8075 591.2084,-249.1093"/>
</g>
<!-- Node12 -->
<g id="node12" class="node">
<title>Node12</title>
<g id="a_node12"><a xlink:href="../../dc/dfb/classGenFitTrackProp.html#a92a3570ed1802ba0f7e9eeb50eb9a6ec" target="_top" xlink:title="Process Event, called for each event.">
<polygon fill="none" stroke="#000000" points="626,-153.5 626,-185.5 769,-185.5 769,-153.5 626,-153.5"/>
<text text-anchor="start" x="634" y="-172.5" font-family="FreeSans" font-size="10.00" fill="#000000">GenFitTrackProp::process</text>
<text text-anchor="middle" x="697.5" y="-160.5" font-family="FreeSans" font-size="10.00" fill="#000000">_event</text>
</a>
</g>
</g>
<!-- Node4&#45;&gt;Node12 -->
<g id="edge11" class="edge">
<title>Node4&#45;&gt;Node12</title>
<path fill="none" stroke="#191970" d="M553.7446,-248.1446C571.9085,-231.6519 598.0079,-209.9932 624,-195.5 630.6201,-191.8086 637.8611,-188.4881 645.1344,-185.5527"/>
<polygon fill="#191970" stroke="#191970" points="550.9549,-245.9569 545.9863,-255.3145 555.7059,-251.0978 550.9549,-245.9569"/>
</g>
<!-- Node13 -->
<g id="node13" class="node">
<title>Node13</title>
<g id="a_node13"><a xlink:href="../../d2/d85/classSvtxEvaluatorHaiwang.html#ab63ca0cc53b56dad65b89d9b18220bce" target="_top" xlink:title="SvtxEvaluatorHaiwang\l::process_event">
<polygon fill="none" stroke="#000000" points="632,-102.5 632,-134.5 763,-134.5 763,-102.5 632,-102.5"/>
<text text-anchor="start" x="640" y="-121.5" font-family="FreeSans" font-size="10.00" fill="#000000">SvtxEvaluatorHaiwang</text>
<text text-anchor="middle" x="697.5" y="-109.5" font-family="FreeSans" font-size="10.00" fill="#000000">::process_event</text>
</a>
</g>
</g>
<!-- Node4&#45;&gt;Node13 -->
<g id="edge12" class="edge">
<title>Node4&#45;&gt;Node13</title>
<path fill="none" stroke="#191970" d="M542.1488,-246.5166C557.7547,-218.0416 586.8421,-171.9092 624,-144.5 629.1195,-140.7237 634.8366,-137.4576 640.7593,-134.6417"/>
<polygon fill="#191970" stroke="#191970" points="539.0047,-244.9741 537.381,-255.4438 545.1793,-248.2718 539.0047,-244.9741"/>
</g>
<!-- Node14 -->
<g id="node14" class="node">
<title>Node14</title>
<g id="a_node14"><a xlink:href="../../d3/d22/classJetTruthEval.html#ac29b8d18ee116903ed233388eb253256" target="_top" xlink:title="reinitialize the eval for a new event">
<polygon fill="none" stroke="#000000" points="644,-51.5 644,-83.5 751,-83.5 751,-51.5 644,-51.5"/>
<text text-anchor="start" x="652" y="-70.5" font-family="FreeSans" font-size="10.00" fill="#000000">JetTruthEval::next</text>
<text text-anchor="middle" x="697.5" y="-58.5" font-family="FreeSans" font-size="10.00" fill="#000000">_event</text>
</a>
</g>
</g>
<!-- Node4&#45;&gt;Node14 -->
<g id="edge13" class="edge">
<title>Node4&#45;&gt;Node14</title>
<path fill="none" stroke="#191970" d="M536.6419,-245.5458C548.5199,-207.0573 575.9141,-134.9459 624,-93.5 629.8439,-88.463 636.7293,-84.3801 643.9027,-81.0761"/>
<polygon fill="#191970" stroke="#191970" points="533.1904,-244.8739 533.6988,-255.4565 539.9008,-246.8666 533.1904,-244.8739"/>
</g>
<!-- Node19 -->
<g id="node19" class="node">
<title>Node19</title>
<g id="a_node19"><a xlink:href="../../d6/d11/classSvtxEvaluator.html#ac66ea4145deb621d9e4fb38cf852dc33" target="_top" xlink:title="SvtxEvaluator::process\l_event">
<polygon fill="none" stroke="#000000" points="631.5,-.5 631.5,-32.5 763.5,-32.5 763.5,-.5 631.5,-.5"/>
<text text-anchor="start" x="639.5" y="-19.5" font-family="FreeSans" font-size="10.00" fill="#000000">SvtxEvaluator::process</text>
<text text-anchor="middle" x="697.5" y="-7.5" font-family="FreeSans" font-size="10.00" fill="#000000">_event</text>
</a>
</g>
</g>
<!-- Node4&#45;&gt;Node19 -->
<g id="edge18" class="edge">
<title>Node4&#45;&gt;Node19</title>
<path fill="none" stroke="#191970" d="M533.2081,-245.3902C541.2365,-198.3386 564.5497,-98.9721 624,-42.5 628.0235,-38.678 632.6436,-35.4134 637.5658,-32.6255"/>
<polygon fill="#191970" stroke="#191970" points="529.7325,-244.9593 531.6003,-255.3882 536.6437,-246.0707 529.7325,-244.9593"/>
</g>
<!-- Node15 -->
<g id="node15" class="node">
<title>Node15</title>
<g id="a_node15"><a xlink:href="../../dd/d75/classJetRecoEval.html#ae02e058aa7f403d5853482b5d06c01c9" target="_top" xlink:title="reinitialize the eval for a new event">
<polygon fill="none" stroke="#000000" points="807,-57.5 807,-77.5 947,-77.5 947,-57.5 807,-57.5"/>
<text text-anchor="middle" x="877" y="-64.5" font-family="FreeSans" font-size="10.00" fill="#000000">JetRecoEval::next_event</text>
</a>
</g>
</g>
<!-- Node14&#45;&gt;Node15 -->
<g id="edge14" class="edge">
<title>Node14&#45;&gt;Node15</title>
<path fill="none" stroke="#191970" d="M761.3794,-67.5C776.1247,-67.5 791.8886,-67.5 806.8837,-67.5"/>
<polygon fill="#191970" stroke="#191970" points="761.356,-64.0001 751.3559,-67.5 761.3559,-71.0001 761.356,-64.0001"/>
</g>
<!-- Node16 -->
<g id="node16" class="node">
<title>Node16</title>
<g id="a_node16"><a xlink:href="../../dd/df3/classJetEvalStack.html#ab85ba05ab4fea5909c8faa238ba5f8e6" target="_top" xlink:title="JetEvalStack::next\l_event">
<polygon fill="none" stroke="#000000" points="983,-51.5 983,-83.5 1092,-83.5 1092,-51.5 983,-51.5"/>
<text text-anchor="start" x="991" y="-70.5" font-family="FreeSans" font-size="10.00" fill="#000000">JetEvalStack::next</text>
<text text-anchor="middle" x="1037.5" y="-58.5" font-family="FreeSans" font-size="10.00" fill="#000000">_event</text>
</a>
</g>
</g>
<!-- Node15&#45;&gt;Node16 -->
<g id="edge15" class="edge">
<title>Node15&#45;&gt;Node16</title>
<path fill="none" stroke="#191970" d="M957.6705,-67.5C966.1104,-67.5 974.5441,-67.5 982.5983,-67.5"/>
<polygon fill="#191970" stroke="#191970" points="957.3977,-64.0001 947.3976,-67.5 957.3976,-71.0001 957.3977,-64.0001"/>
</g>
<!-- Node17 -->
<g id="node17" class="node">
<title>Node17</title>
<g id="a_node17"><a xlink:href="../../d1/df4/classJetEvaluator.html#ad83508ae828d1f2e4a83a948465a0cd2" target="_top" xlink:title="JetEvaluator::process\l_event">
<polygon fill="none" stroke="#000000" points="1128,-77.5 1128,-109.5 1252,-109.5 1252,-77.5 1128,-77.5"/>
<text text-anchor="start" x="1136" y="-96.5" font-family="FreeSans" font-size="10.00" fill="#000000">JetEvaluator::process</text>
<text text-anchor="middle" x="1190" y="-84.5" font-family="FreeSans" font-size="10.00" fill="#000000">_event</text>
</a>
</g>
</g>
<!-- Node16&#45;&gt;Node17 -->
<g id="edge16" class="edge">
<title>Node16&#45;&gt;Node17</title>
<path fill="none" stroke="#191970" d="M1102.079,-78.5102C1110.66,-79.9732 1119.443,-81.4706 1127.9793,-82.926"/>
<polygon fill="#191970" stroke="#191970" points="1102.5713,-75.0437 1092.1253,-76.8132 1101.3948,-81.9441 1102.5713,-75.0437"/>
</g>
<!-- Node18 -->
<g id="node18" class="node">
<title>Node18</title>
<g id="a_node18"><a xlink:href="../../d8/de2/classJetEnergies.html#a6acaa9b2ba1fe7353781d2f5d476e8d1" target="_top" xlink:title="JetEnergies::process\l_event">
<polygon fill="none" stroke="#000000" points="1130,-26.5 1130,-58.5 1250,-58.5 1250,-26.5 1130,-26.5"/>
<text text-anchor="start" x="1138" y="-45.5" font-family="FreeSans" font-size="10.00" fill="#000000">JetEnergies::process</text>
<text text-anchor="middle" x="1190" y="-33.5" font-family="FreeSans" font-size="10.00" fill="#000000">_event</text>
</a>
</g>
</g>
<!-- Node16&#45;&gt;Node18 -->
<g id="edge17" class="edge">
<title>Node16&#45;&gt;Node18</title>
<path fill="none" stroke="#191970" d="M1102.009,-56.9248C1111.2267,-55.4137 1120.6788,-53.8641 1129.8092,-52.3673"/>
<polygon fill="#191970" stroke="#191970" points="1101.4273,-53.4733 1092.1253,-58.545 1102.5598,-60.3811 1101.4273,-53.4733"/>
</g>
</g>
</svg>
