<?xml version="1.0" encoding="UTF-8" standalone="no"?>
<!DOCTYPE svg PUBLIC "-//W3C//DTD SVG 1.1//EN"
 "http://www.w3.org/Graphics/SVG/1.1/DTD/svg11.dtd">
<!-- Generated by graphviz version 2.40.1 (20161225.0304)
 -->
<!-- Title: PHGeomTGeo::Reset Pages: 1 -->
<svg width="878pt" height="185pt"
 viewBox="0.00 0.00 878.00 185.00" xmlns="http://www.w3.org/2000/svg" xmlns:xlink="http://www.w3.org/1999/xlink">
<g id="graph0" class="graph" transform="scale(1 1) rotate(0) translate(4 181)">
<title>PHGeomTGeo::Reset</title>
<!-- Node1 -->
<g id="node1" class="node">
<title>Node1</title>
<polygon fill="#bfbfbf" stroke="#000000" points="0,-97.5 0,-117.5 122,-117.5 122,-97.5 0,-97.5"/>
<text text-anchor="middle" x="61" y="-104.5" font-family="FreeSans" font-size="10.00" fill="#000000">PHGeomTGeo::Reset</text>
</g>
<!-- Node2 -->
<g id="node2" class="node">
<title>Node2</title>
<g id="a_node2"><a xlink:href="../../d2/da1/classPHGeomUtility.html#a4a80252bedb22198d011065e41aa669e" target="_top" xlink:title="TGeo ROOT/GDML/Macro file &#45;&gt; DST node with automatic file type discrimination based on file names...">
<polygon fill="none" stroke="#000000" points="158,-97.5 158,-117.5 334,-117.5 334,-97.5 158,-97.5"/>
<text text-anchor="middle" x="246" y="-104.5" font-family="FreeSans" font-size="10.00" fill="#000000">PHGeomUtility::ImportGeomFile</text>
</a>
</g>
</g>
<!-- Node1&#45;&gt;Node2 -->
<g id="edge1" class="edge">
<title>Node1&#45;&gt;Node2</title>
<path fill="none" stroke="#191970" d="M132.2002,-107.5C140.6073,-107.5 149.2625,-107.5 157.8673,-107.5"/>
<polygon fill="#191970" stroke="#191970" points="132.0887,-104.0001 122.0886,-107.5 132.0886,-111.0001 132.0887,-104.0001"/>
</g>
<!-- Node3 -->
<g id="node3" class="node">
<title>Node3</title>
<g id="a_node3"><a xlink:href="../../de/d0f/classPHGeomFileImport.html#aec25f7186f832f7d3bf4c5cce29fcd3b" target="_top" xlink:title="PHGeomFileImport::InitRun">
<polygon fill="none" stroke="#000000" points="370,-117.5 370,-137.5 522,-137.5 522,-117.5 370,-117.5"/>
<text text-anchor="middle" x="446" y="-124.5" font-family="FreeSans" font-size="10.00" fill="#000000">PHGeomFileImport::InitRun</text>
</a>
</g>
</g>
<!-- Node2&#45;&gt;Node3 -->
<g id="edge2" class="edge">
<title>Node2&#45;&gt;Node3</title>
<path fill="none" stroke="#191970" d="M344.1339,-117.3134C352.775,-118.1775 361.4347,-119.0435 369.8548,-119.8855"/>
<polygon fill="#191970" stroke="#191970" points="344.3126,-113.8139 334.014,-116.3014 343.616,-120.7792 344.3126,-113.8139"/>
</g>
<!-- Node4 -->
<g id="node4" class="node">
<title>Node4</title>
<g id="a_node4"><a xlink:href="../../d0/d78/classPHG4Reco.html#a9d8228ce8682c19cd6be2f6b44ec847b" target="_top" xlink:title="PHG4Reco::InitRun">
<polygon fill="none" stroke="#000000" points="391,-78.5 391,-98.5 501,-98.5 501,-78.5 391,-78.5"/>
<text text-anchor="middle" x="446" y="-85.5" font-family="FreeSans" font-size="10.00" fill="#000000">PHG4Reco::InitRun</text>
</a>
</g>
</g>
<!-- Node2&#45;&gt;Node4 -->
<g id="edge3" class="edge">
<title>Node2&#45;&gt;Node4</title>
<path fill="none" stroke="#191970" d="M343.9955,-98.1904C360.0646,-96.6639 376.2027,-95.1307 390.7493,-93.7488"/>
<polygon fill="#191970" stroke="#191970" points="343.6381,-94.7085 334.014,-99.1387 344.3002,-101.6772 343.6381,-94.7085"/>
</g>
<!-- Node5 -->
<g id="node5" class="node">
<title>Node5</title>
<g id="a_node5"><a xlink:href="../../db/d89/ConstructGeometry_8C.html#a21c369835643f1016f506a3da3b8d446" target="_top" xlink:title="ConstructGeometry">
<polygon fill="none" stroke="#000000" points="576.5,-156.5 576.5,-176.5 691.5,-176.5 691.5,-156.5 576.5,-156.5"/>
<text text-anchor="middle" x="634" y="-163.5" font-family="FreeSans" font-size="10.00" fill="#000000">ConstructGeometry</text>
</a>
</g>
</g>
<!-- Node4&#45;&gt;Node5 -->
<g id="edge4" class="edge">
<title>Node4&#45;&gt;Node5</title>
<path fill="none" stroke="#191970" d="M509.5472,-102.2196C513.8817,-104.0596 518.0793,-106.1426 522,-108.5 542.2162,-120.6553 537.7092,-135.4697 558,-147.5 564.0834,-151.1068 570.8312,-154.0323 577.7224,-156.4044"/>
<polygon fill="#191970" stroke="#191970" points="510.4851,-98.8324 499.8935,-98.5675 508.0081,-105.3795 510.4851,-98.8324"/>
</g>
<!-- Node6 -->
<g id="node6" class="node">
<title>Node6</title>
<g id="a_node6"><a xlink:href="../../dd/d76/macros_2blob_2master_2macros_2g4simulations_2DisplayOn_8C.html#a8ac4d6fb78f920957b354f88d6195f54" target="_top" xlink:title="DisplayOn">
<polygon fill="none" stroke="#000000" points="600,-117.5 600,-137.5 668,-137.5 668,-117.5 600,-117.5"/>
<text text-anchor="middle" x="634" y="-124.5" font-family="FreeSans" font-size="10.00" fill="#000000">DisplayOn</text>
</a>
</g>
</g>
<!-- Node4&#45;&gt;Node6 -->
<g id="edge5" class="edge">
<title>Node4&#45;&gt;Node6</title>
<path fill="none" stroke="#191970" d="M504.3666,-100.608C535.7594,-107.1203 573.3758,-114.9237 599.9818,-120.443"/>
<polygon fill="#191970" stroke="#191970" points="504.9172,-97.1477 494.4147,-98.5435 503.4953,-104.0018 504.9172,-97.1477"/>
</g>
<!-- Node9 -->
<g id="node9" class="node">
<title>Node9</title>
<g id="a_node9"><a xlink:href="../../d4/dfa/Fun4All__Generator__Display_8C.html#af87924a94b22e18901f0d64805565f09" target="_top" xlink:title="Fun4All_Generator_Display">
<polygon fill="none" stroke="#000000" points="558,-78.5 558,-98.5 710,-98.5 710,-78.5 558,-78.5"/>
<text text-anchor="middle" x="634" y="-85.5" font-family="FreeSans" font-size="10.00" fill="#000000">Fun4All_Generator_Display</text>
</a>
</g>
</g>
<!-- Node4&#45;&gt;Node9 -->
<g id="edge8" class="edge">
<title>Node4&#45;&gt;Node9</title>
<path fill="none" stroke="#191970" d="M511.3465,-88.5C526.3756,-88.5 542.4853,-88.5 557.9249,-88.5"/>
<polygon fill="#191970" stroke="#191970" points="511.136,-85.0001 501.1359,-88.5 511.1359,-92.0001 511.136,-85.0001"/>
</g>
<!-- Node10 -->
<g id="node10" class="node">
<title>Node10</title>
<g id="a_node10"><a xlink:href="../../d9/d1d/matscan_8C.html#a98ccbc6135fead542f3c4d1dd6882d63" target="_top" xlink:title="matscan">
<polygon fill="none" stroke="#000000" points="604.5,-39.5 604.5,-59.5 663.5,-59.5 663.5,-39.5 604.5,-39.5"/>
<text text-anchor="middle" x="634" y="-46.5" font-family="FreeSans" font-size="10.00" fill="#000000">matscan</text>
</a>
</g>
</g>
<!-- Node4&#45;&gt;Node10 -->
<g id="edge9" class="edge">
<title>Node4&#45;&gt;Node10</title>
<path fill="none" stroke="#191970" d="M504.4417,-76.3765C537.5366,-69.511 577.5285,-61.2148 604.2449,-55.6726"/>
<polygon fill="#191970" stroke="#191970" points="503.4953,-72.9982 494.4147,-78.4565 504.9172,-79.8523 503.4953,-72.9982"/>
</g>
<!-- Node11 -->
<g id="node11" class="node">
<title>Node11</title>
<g id="a_node11"><a xlink:href="../../dd/d76/macros_2blob_2master_2macros_2g4simulations_2DisplayOn_8C.html#a36f5cc4ebb7cd23dac7e492d5c38fbc0" target="_top" xlink:title="QTGui">
<polygon fill="none" stroke="#000000" points="610.5,-.5 610.5,-20.5 657.5,-20.5 657.5,-.5 610.5,-.5"/>
<text text-anchor="middle" x="634" y="-7.5" font-family="FreeSans" font-size="10.00" fill="#000000">QTGui</text>
</a>
</g>
</g>
<!-- Node4&#45;&gt;Node11 -->
<g id="edge10" class="edge">
<title>Node4&#45;&gt;Node11</title>
<path fill="none" stroke="#191970" d="M471.3309,-73.3242C493.556,-60.5157 527.0675,-42.4114 558,-30.5 575.0613,-23.9301 595.0845,-18.7583 610.2944,-15.3211"/>
<polygon fill="#191970" stroke="#191970" points="469.4101,-70.3927 462.5372,-78.4558 472.9382,-76.4385 469.4101,-70.3927"/>
</g>
<!-- Node7 -->
<g id="node7" class="node">
<title>Node7</title>
<g id="a_node7"><a xlink:href="../../d7/d9e/Fun4All__G4__fsPHENIX_8C.html#af48911d394d2412e817583700f2bbee2" target="_top" xlink:title="Fun4All_G4_fsPHENIX">
<polygon fill="none" stroke="#000000" points="746,-136.5 746,-156.5 870,-156.5 870,-136.5 746,-136.5"/>
<text text-anchor="middle" x="808" y="-143.5" font-family="FreeSans" font-size="10.00" fill="#000000">Fun4All_G4_fsPHENIX</text>
</a>
</g>
</g>
<!-- Node6&#45;&gt;Node7 -->
<g id="edge6" class="edge">
<title>Node6&#45;&gt;Node7</title>
<path fill="none" stroke="#191970" d="M678.3757,-132.3456C698.8742,-134.584 723.5657,-137.2802 745.8748,-139.7162"/>
<polygon fill="#191970" stroke="#191970" points="678.6977,-128.8601 668.3768,-131.2538 677.9378,-135.8187 678.6977,-128.8601"/>
</g>
<!-- Node8 -->
<g id="node8" class="node">
<title>Node8</title>
<g id="a_node8"><a xlink:href="../../d5/d2c/macros_2blob_2master_2macros_2g4simulations_2Fun4All__G4__sPHENIX_8C.html#a6eaaa492d7023ec86c562dc63aa1e5a4" target="_top" xlink:title="Fun4All_G4_sPHENIX">
<polygon fill="none" stroke="#000000" points="747.5,-97.5 747.5,-117.5 868.5,-117.5 868.5,-97.5 747.5,-97.5"/>
<text text-anchor="middle" x="808" y="-104.5" font-family="FreeSans" font-size="10.00" fill="#000000">Fun4All_G4_sPHENIX</text>
</a>
</g>
</g>
<!-- Node6&#45;&gt;Node8 -->
<g id="edge7" class="edge">
<title>Node6&#45;&gt;Node8</title>
<path fill="none" stroke="#191970" d="M678.5622,-122.3779C699.4542,-119.9765 724.6703,-117.0781 747.2749,-114.4799"/>
<polygon fill="#191970" stroke="#191970" points="677.9117,-118.9295 668.3768,-123.5486 678.7111,-125.8838 677.9117,-118.9295"/>
</g>
</g>
</svg>
