<?xml version="1.0" encoding="UTF-8" standalone="no"?>
<!DOCTYPE svg PUBLIC "-//W3C//DTD SVG 1.1//EN"
 "http://www.w3.org/Graphics/SVG/1.1/DTD/svg11.dtd">
<!-- Generated by graphviz version 2.40.1 (20161225.0304)
 -->
<!-- Title: RawTowerBuilder::set_sim_tower_node_prefix Pages: 1 -->
<svg width="588pt" height="686pt"
 viewBox="0.00 0.00 588.00 686.00" xmlns="http://www.w3.org/2000/svg" xmlns:xlink="http://www.w3.org/1999/xlink">
<g id="graph0" class="graph" transform="scale(1 1) rotate(0) translate(4 682)">
<title>RawTowerBuilder::set_sim_tower_node_prefix</title>
<!-- Node1 -->
<g id="node1" class="node">
<title>Node1</title>
<polygon fill="#bfbfbf" stroke="#000000" points="0,-275.5 0,-307.5 138,-307.5 138,-275.5 0,-275.5"/>
<text text-anchor="start" x="8" y="-294.5" font-family="FreeSans" font-size="10.00" fill="#000000">RawTowerBuilder::set</text>
<text text-anchor="middle" x="69" y="-282.5" font-family="FreeSans" font-size="10.00" fill="#000000">_sim_tower_node_prefix</text>
</g>
<!-- Node2 -->
<g id="node2" class="node">
<title>Node2</title>
<g id="a_node2"><a xlink:href="../../d8/d4c/G4__CEmc__EIC_8C.html#a46a52c955e8d2078c58d4d7db471cc43" target="_top" xlink:title="CEMC_Towers">
<polygon fill="none" stroke="#000000" points="198,-340.5 198,-360.5 283,-360.5 283,-340.5 198,-340.5"/>
<text text-anchor="middle" x="240.5" y="-347.5" font-family="FreeSans" font-size="10.00" fill="#000000">CEMC_Towers</text>
</a>
</g>
</g>
<!-- Node1&#45;&gt;Node2 -->
<g id="edge1" class="edge">
<title>Node1&#45;&gt;Node2</title>
<path fill="none" stroke="#191970" d="M118.0625,-311.1876C135.595,-317.9573 155.5711,-325.3696 174,-331.5 183.3425,-334.6078 193.5229,-337.6741 203.0458,-340.4066"/>
<polygon fill="#191970" stroke="#191970" points="119.1876,-307.8698 108.5991,-307.505 116.649,-314.3933 119.1876,-307.8698"/>
</g>
<!-- Node20 -->
<g id="node20" class="node">
<title>Node20</title>
<g id="a_node20"><a xlink:href="../../dc/d8e/Fun4All__G4__Prototype2_8C.html#a6b8f092c4f51be2938dd09c810ba6226" target="_top" xlink:title="Fun4All_G4_Prototype2">
<polygon fill="none" stroke="#000000" points="174,-301.5 174,-321.5 307,-321.5 307,-301.5 174,-301.5"/>
<text text-anchor="middle" x="240.5" y="-308.5" font-family="FreeSans" font-size="10.00" fill="#000000">Fun4All_G4_Prototype2</text>
</a>
</g>
</g>
<!-- Node1&#45;&gt;Node20 -->
<g id="edge19" class="edge">
<title>Node1&#45;&gt;Node20</title>
<path fill="none" stroke="#191970" d="M148.2253,-300.7391C156.7645,-301.7349 165.3906,-302.7409 173.762,-303.7171"/>
<polygon fill="#191970" stroke="#191970" points="148.5994,-297.2591 138.2613,-299.5771 147.7885,-304.212 148.5994,-297.2591"/>
</g>
<!-- Node21 -->
<g id="node21" class="node">
<title>Node21</title>
<g id="a_node21"><a xlink:href="../../d7/d40/Fun4All__G4__Prototype3_8C.html#a1201361263017b08a070777a0b90b27c" target="_top" xlink:title="Fun4All_G4_Prototype3">
<polygon fill="none" stroke="#000000" points="174,-262.5 174,-282.5 307,-282.5 307,-262.5 174,-262.5"/>
<text text-anchor="middle" x="240.5" y="-269.5" font-family="FreeSans" font-size="10.00" fill="#000000">Fun4All_G4_Prototype3</text>
</a>
</g>
</g>
<!-- Node1&#45;&gt;Node21 -->
<g id="edge20" class="edge">
<title>Node1&#45;&gt;Node21</title>
<path fill="none" stroke="#191970" d="M148.2253,-282.7229C156.7645,-281.7768 165.3906,-280.8212 173.762,-279.8937"/>
<polygon fill="#191970" stroke="#191970" points="147.815,-279.2468 138.2613,-283.8267 148.5859,-286.2042 147.815,-279.2468"/>
</g>
<!-- Node22 -->
<g id="node22" class="node">
<title>Node22</title>
<g id="a_node22"><a xlink:href="../../d4/d58/Fun4All__G4__Prototype4_8C.html#acac517f0728af658cbf99c7c9687c908" target="_top" xlink:title="Fun4All_G4_Prototype4">
<polygon fill="none" stroke="#000000" points="174,-223.5 174,-243.5 307,-243.5 307,-223.5 174,-223.5"/>
<text text-anchor="middle" x="240.5" y="-230.5" font-family="FreeSans" font-size="10.00" fill="#000000">Fun4All_G4_Prototype4</text>
</a>
</g>
</g>
<!-- Node1&#45;&gt;Node22 -->
<g id="edge21" class="edge">
<title>Node1&#45;&gt;Node22</title>
<path fill="none" stroke="#191970" d="M121.3441,-271.9147C138.0978,-265.8187 156.7693,-259.2042 174,-253.5 184.3006,-250.09 195.5777,-246.6057 205.8717,-243.5209"/>
<polygon fill="#191970" stroke="#191970" points="119.9155,-268.7105 111.7268,-275.4333 122.3206,-275.2843 119.9155,-268.7105"/>
</g>
<!-- Node3 -->
<g id="node3" class="node">
<title>Node3</title>
<g id="a_node3"><a xlink:href="../../d3/d7f/Fun_8C.html#af0d3c8a78765149fef9b2beeecfc6279" target="_top" xlink:title="ConfigureDetectors">
<polygon fill="none" stroke="#000000" points="369.5,-657.5 369.5,-677.5 483.5,-677.5 483.5,-657.5 369.5,-657.5"/>
<text text-anchor="middle" x="426.5" y="-664.5" font-family="FreeSans" font-size="10.00" fill="#000000">ConfigureDetectors</text>
</a>
</g>
</g>
<!-- Node2&#45;&gt;Node3 -->
<g id="edge2" class="edge">
<title>Node2&#45;&gt;Node3</title>
<path fill="none" stroke="#191970" d="M244.7529,-370.607C257.9454,-431.1257 299.8849,-609.7892 343,-648.5 350.4118,-655.1547 359.6635,-659.6275 369.2843,-662.6047"/>
<polygon fill="#191970" stroke="#191970" points="248.1556,-369.7821 242.6303,-360.7421 241.3122,-371.2546 248.1556,-369.7821"/>
</g>
<!-- Node5 -->
<g id="node5" class="node">
<title>Node5</title>
<g id="a_node5"><a xlink:href="../../da/d02/Fun4All__G4__EICDetector_8C.html#afbe82cefa1d1fd031d9a8586b7bb68c6" target="_top" xlink:title="Fun4All_G4_EICDetector">
<polygon fill="none" stroke="#000000" points="357,-618.5 357,-638.5 496,-638.5 496,-618.5 357,-618.5"/>
<text text-anchor="middle" x="426.5" y="-625.5" font-family="FreeSans" font-size="10.00" fill="#000000">Fun4All_G4_EICDetector</text>
</a>
</g>
</g>
<!-- Node2&#45;&gt;Node5 -->
<g id="edge4" class="edge">
<title>Node2&#45;&gt;Node5</title>
<path fill="none" stroke="#191970" d="M242.262,-370.8384C247.6492,-419.9228 268.4028,-545.5311 343,-609.5 347.1757,-613.0808 351.8887,-616.0234 356.8963,-618.4375"/>
<polygon fill="#191970" stroke="#191970" points="245.7144,-370.1849 241.2428,-360.58 238.7487,-370.877 245.7144,-370.1849"/>
</g>
<!-- Node6 -->
<g id="node6" class="node">
<title>Node6</title>
<g id="a_node6"><a xlink:href="../../dd/d2a/Fun4All__G4__EICDetector__LQ_8C.html#aaa01242fd6e77ca43a9d49a6d46008e4" target="_top" xlink:title="Fun4All_G4_EICDetector_LQ">
<polygon fill="none" stroke="#000000" points="348.5,-579.5 348.5,-599.5 504.5,-599.5 504.5,-579.5 348.5,-579.5"/>
<text text-anchor="middle" x="426.5" y="-586.5" font-family="FreeSans" font-size="10.00" fill="#000000">Fun4All_G4_EICDetector_LQ</text>
</a>
</g>
</g>
<!-- Node2&#45;&gt;Node6 -->
<g id="edge5" class="edge">
<title>Node2&#45;&gt;Node6</title>
<path fill="none" stroke="#191970" d="M243.8158,-370.724C252.088,-414.4136 277.8578,-517.9013 343,-570.5 347.3955,-574.0491 352.3259,-576.9632 357.5356,-579.3527"/>
<polygon fill="#191970" stroke="#191970" points="247.2381,-369.9784 242.0388,-360.747 240.3466,-371.2058 247.2381,-369.9784"/>
</g>
<!-- Node7 -->
<g id="node7" class="node">
<title>Node7</title>
<g id="a_node7"><a xlink:href="../../d4/df5/Fun4All__G4__EICDetector__LQ__reference_8C.html#a2feefc472f17f90b3cbe74897d049f75" target="_top" xlink:title="Fun4All_G4_EICDetector\l_LQ_reference">
<polygon fill="none" stroke="#000000" points="357,-528.5 357,-560.5 496,-560.5 496,-528.5 357,-528.5"/>
<text text-anchor="start" x="365" y="-547.5" font-family="FreeSans" font-size="10.00" fill="#000000">Fun4All_G4_EICDetector</text>
<text text-anchor="middle" x="426.5" y="-535.5" font-family="FreeSans" font-size="10.00" fill="#000000">_LQ_reference</text>
</a>
</g>
</g>
<!-- Node2&#45;&gt;Node7 -->
<g id="edge6" class="edge">
<title>Node2&#45;&gt;Node7</title>
<path fill="none" stroke="#191970" d="M247.0784,-370.2796C259.8413,-405.5995 291.3392,-479.55 343,-519.5 347.4291,-522.9251 352.3222,-525.8824 357.4526,-528.4355"/>
<polygon fill="#191970" stroke="#191970" points="250.3144,-368.9293 243.7174,-360.6389 243.7045,-371.2337 250.3144,-368.9293"/>
</g>
<!-- Node8 -->
<g id="node8" class="node">
<title>Node8</title>
<g id="a_node8"><a xlink:href="../../d3/d51/Fun4All__G4__EICDetector__RICH_8C.html#a5739502b0a7a1ba782c01069f77e933f" target="_top" xlink:title="Fun4All_G4_EICDetector_RICH">
<polygon fill="none" stroke="#000000" points="343,-489.5 343,-509.5 510,-509.5 510,-489.5 343,-489.5"/>
<text text-anchor="middle" x="426.5" y="-496.5" font-family="FreeSans" font-size="10.00" fill="#000000">Fun4All_G4_EICDetector_RICH</text>
</a>
</g>
</g>
<!-- Node2&#45;&gt;Node8 -->
<g id="edge7" class="edge">
<title>Node2&#45;&gt;Node8</title>
<path fill="none" stroke="#191970" d="M250.0338,-369.5746C265.4503,-398.3552 298.6592,-452.488 343,-480.5 348.7818,-484.1526 355.1817,-487.106 361.791,-489.4935"/>
<polygon fill="#191970" stroke="#191970" points="253.0526,-367.7935 245.3337,-360.5362 246.8421,-371.0231 253.0526,-367.7935"/>
</g>
<!-- Node9 -->
<g id="node9" class="node">
<title>Node9</title>
<g id="a_node9"><a xlink:href="../../d7/d9e/Fun4All__G4__fsPHENIX_8C.html#af48911d394d2412e817583700f2bbee2" target="_top" xlink:title="Fun4All_G4_fsPHENIX">
<polygon fill="none" stroke="#000000" points="364.5,-450.5 364.5,-470.5 488.5,-470.5 488.5,-450.5 364.5,-450.5"/>
<text text-anchor="middle" x="426.5" y="-457.5" font-family="FreeSans" font-size="10.00" fill="#000000">Fun4All_G4_fsPHENIX</text>
</a>
</g>
</g>
<!-- Node2&#45;&gt;Node9 -->
<g id="edge8" class="edge">
<title>Node2&#45;&gt;Node9</title>
<path fill="none" stroke="#191970" d="M255.3707,-368.2832C273.7732,-389.0919 307.1013,-423.0435 343,-441.5 350.0076,-445.1028 357.6927,-448.0282 365.4742,-450.4023"/>
<polygon fill="#191970" stroke="#191970" points="257.8345,-365.7814 248.6466,-360.5056 252.5391,-370.3595 257.8345,-365.7814"/>
</g>
<!-- Node10 -->
<g id="node10" class="node">
<title>Node10</title>
<g id="a_node10"><a xlink:href="../../da/d2f/Fun4All__G4__fsPHENIX__FastSim_8C.html#a66fb850cae5fcaadda23b74a25ce4c9c" target="_top" xlink:title="Fun4All_G4_fsPHENIX\l_FastSim">
<polygon fill="none" stroke="#000000" points="364.5,-399.5 364.5,-431.5 488.5,-431.5 488.5,-399.5 364.5,-399.5"/>
<text text-anchor="start" x="372.5" y="-418.5" font-family="FreeSans" font-size="10.00" fill="#000000">Fun4All_G4_fsPHENIX</text>
<text text-anchor="middle" x="426.5" y="-406.5" font-family="FreeSans" font-size="10.00" fill="#000000">_FastSim</text>
</a>
</g>
</g>
<!-- Node2&#45;&gt;Node10 -->
<g id="edge9" class="edge">
<title>Node2&#45;&gt;Node10</title>
<path fill="none" stroke="#191970" d="M274.2614,-364.4718C294.1271,-372.4924 319.8225,-382.5226 343,-390.5 351.8713,-393.5534 361.3432,-396.5942 370.6045,-399.4493"/>
<polygon fill="#191970" stroke="#191970" points="275.3139,-361.1215 264.7319,-360.5982 272.6778,-367.6063 275.3139,-361.1215"/>
</g>
<!-- Node11 -->
<g id="node11" class="node">
<title>Node11</title>
<g id="a_node11"><a xlink:href="../../d0/da6/Fun4All__G4__fsPHENIX__pi0_8C.html#a023d91d47b678e5d7f1751834aa517c6" target="_top" xlink:title="Fun4All_G4_fsPHENIX_pi0">
<polygon fill="none" stroke="#000000" points="354,-360.5 354,-380.5 499,-380.5 499,-360.5 354,-360.5"/>
<text text-anchor="middle" x="426.5" y="-367.5" font-family="FreeSans" font-size="10.00" fill="#000000">Fun4All_G4_fsPHENIX_pi0</text>
</a>
</g>
</g>
<!-- Node2&#45;&gt;Node11 -->
<g id="edge10" class="edge">
<title>Node2&#45;&gt;Node11</title>
<path fill="none" stroke="#191970" d="M293.306,-356.1781C312.095,-358.1984 333.5943,-360.5101 353.7582,-362.6783"/>
<polygon fill="#191970" stroke="#191970" points="293.4891,-352.6777 283.1722,-355.0884 292.7406,-359.6375 293.4891,-352.6777"/>
</g>
<!-- Node12 -->
<g id="node12" class="node">
<title>Node12</title>
<g id="a_node12"><a xlink:href="../../d5/d2c/macros_2blob_2master_2macros_2g4simulations_2Fun4All__G4__sPHENIX_8C.html#a6eaaa492d7023ec86c562dc63aa1e5a4" target="_top" xlink:title="Fun4All_G4_sPHENIX">
<polygon fill="none" stroke="#000000" points="366,-321.5 366,-341.5 487,-341.5 487,-321.5 366,-321.5"/>
<text text-anchor="middle" x="426.5" y="-328.5" font-family="FreeSans" font-size="10.00" fill="#000000">Fun4All_G4_sPHENIX</text>
</a>
</g>
</g>
<!-- Node2&#45;&gt;Node12 -->
<g id="edge11" class="edge">
<title>Node2&#45;&gt;Node12</title>
<path fill="none" stroke="#191970" d="M293.2418,-345.1124C315.8133,-342.8067 342.3054,-340.1005 365.6972,-337.711"/>
<polygon fill="#191970" stroke="#191970" points="292.7647,-341.6428 283.1722,-346.141 293.4761,-348.6066 292.7647,-341.6428"/>
</g>
<!-- Node13 -->
<g id="node13" class="node">
<title>Node13</title>
<g id="a_node13"><a xlink:href="../../d3/de2/Fun4All__G4__sPHENIX__AnaGenFit_8C.html#a9bf3f2f72ed69a17e2d0c1121d48013c" target="_top" xlink:title="Fun4All_G4_sPHENIX\l_AnaGenFit">
<polygon fill="none" stroke="#000000" points="366,-270.5 366,-302.5 487,-302.5 487,-270.5 366,-270.5"/>
<text text-anchor="start" x="374" y="-289.5" font-family="FreeSans" font-size="10.00" fill="#000000">Fun4All_G4_sPHENIX</text>
<text text-anchor="middle" x="426.5" y="-277.5" font-family="FreeSans" font-size="10.00" fill="#000000">_AnaGenFit</text>
</a>
</g>
</g>
<!-- Node2&#45;&gt;Node13 -->
<g id="edge12" class="edge">
<title>Node2&#45;&gt;Node13</title>
<path fill="none" stroke="#191970" d="M290.2546,-337.5134C295.9604,-335.6628 301.6467,-333.6504 307,-331.5 323.7879,-324.7565 326.2927,-319.4408 343,-312.5 351.5529,-308.9468 360.7708,-305.6107 369.8512,-302.59"/>
<polygon fill="#191970" stroke="#191970" points="289.2092,-334.1731 280.6893,-340.4707 291.2769,-340.8607 289.2092,-334.1731"/>
</g>
<!-- Node14 -->
<g id="node14" class="node">
<title>Node14</title>
<g id="a_node14"><a xlink:href="../../da/dd0/Fun4All__G4__sPHENIX__photonjet_8C.html#a6f18519e216acc05399e562ea57ea77c" target="_top" xlink:title="Fun4All_G4_sPHENIX\l_photonjet">
<polygon fill="none" stroke="#000000" points="366,-219.5 366,-251.5 487,-251.5 487,-219.5 366,-219.5"/>
<text text-anchor="start" x="374" y="-238.5" font-family="FreeSans" font-size="10.00" fill="#000000">Fun4All_G4_sPHENIX</text>
<text text-anchor="middle" x="426.5" y="-226.5" font-family="FreeSans" font-size="10.00" fill="#000000">_photonjet</text>
</a>
</g>
</g>
<!-- Node2&#45;&gt;Node14 -->
<g id="edge13" class="edge">
<title>Node2&#45;&gt;Node14</title>
<path fill="none" stroke="#191970" d="M292.6261,-340.2298C297.794,-337.8919 302.7066,-335.0222 307,-331.5 334.0472,-309.3111 316.216,-284.006 343,-261.5 349.6258,-255.9325 357.4406,-251.5553 365.5864,-248.1144"/>
<polygon fill="#191970" stroke="#191970" points="291.1995,-337.0286 283.1266,-343.89 293.7164,-343.5605 291.1995,-337.0286"/>
</g>
<!-- Node15 -->
<g id="node15" class="node">
<title>Node15</title>
<g id="a_node15"><a xlink:href="../../da/d85/Fun4All__G4__sPHENIX__photons_8C.html#a02fbbd59878fe1299f58ed187e7214ba" target="_top" xlink:title="Fun4All_G4_sPHENIX\l_photons">
<polygon fill="none" stroke="#000000" points="366,-168.5 366,-200.5 487,-200.5 487,-168.5 366,-168.5"/>
<text text-anchor="start" x="374" y="-187.5" font-family="FreeSans" font-size="10.00" fill="#000000">Fun4All_G4_sPHENIX</text>
<text text-anchor="middle" x="426.5" y="-175.5" font-family="FreeSans" font-size="10.00" fill="#000000">_photons</text>
</a>
</g>
</g>
<!-- Node2&#45;&gt;Node15 -->
<g id="edge14" class="edge">
<title>Node2&#45;&gt;Node15</title>
<path fill="none" stroke="#191970" d="M292.9123,-341.2013C298.1057,-338.6875 302.9452,-335.5109 307,-331.5 346.8892,-292.0425 303.5784,-250.4247 343,-210.5 349.4006,-204.0177 357.3878,-199.1457 365.8661,-195.4853"/>
<polygon fill="#191970" stroke="#191970" points="291.2652,-338.0901 283.2749,-345.0475 293.8599,-344.5915 291.2652,-338.0901"/>
</g>
<!-- Node16 -->
<g id="node16" class="node">
<title>Node16</title>
<g id="a_node16"><a xlink:href="../../de/d55/Fun4All__G4__sPHENIX__truthphotonjet_8C.html#a48a6f4503eaa1b3793d8ae572aa795b9" target="_top" xlink:title="Fun4All_G4_sPHENIX\l_truthphotonjet">
<polygon fill="none" stroke="#000000" points="366,-117.5 366,-149.5 487,-149.5 487,-117.5 366,-117.5"/>
<text text-anchor="start" x="374" y="-136.5" font-family="FreeSans" font-size="10.00" fill="#000000">Fun4All_G4_sPHENIX</text>
<text text-anchor="middle" x="426.5" y="-124.5" font-family="FreeSans" font-size="10.00" fill="#000000">_truthphotonjet</text>
</a>
</g>
</g>
<!-- Node2&#45;&gt;Node16 -->
<g id="edge15" class="edge">
<title>Node2&#45;&gt;Node16</title>
<path fill="none" stroke="#191970" d="M292.6554,-341.8227C298.0164,-339.2066 302.9653,-335.8361 307,-331.5 360.2029,-274.323 290.4744,-217.2998 343,-159.5 349.2288,-152.6458 357.2301,-147.5818 365.8056,-143.8441"/>
<polygon fill="#191970" stroke="#191970" points="291.3187,-338.5876 283.3329,-345.5503 293.9177,-345.0873 291.3187,-338.5876"/>
</g>
<!-- Node17 -->
<g id="node17" class="node">
<title>Node17</title>
<g id="a_node17"><a xlink:href="../../d4/d65/Fun4All__single__particle_8C.html#a8a492b5dbead494bfdddbebde8a49b0e" target="_top" xlink:title="Fun4All_single_particle">
<polygon fill="none" stroke="#000000" points="360.5,-78.5 360.5,-98.5 492.5,-98.5 492.5,-78.5 360.5,-78.5"/>
<text text-anchor="middle" x="426.5" y="-85.5" font-family="FreeSans" font-size="10.00" fill="#000000">Fun4All_single_particle</text>
</a>
</g>
</g>
<!-- Node2&#45;&gt;Node17 -->
<g id="edge16" class="edge">
<title>Node2&#45;&gt;Node17</title>
<path fill="none" stroke="#191970" d="M292.6459,-342.1056C298.053,-339.4443 303.0156,-335.9858 307,-331.5 373.6708,-256.4399 274.7233,-182.1023 343,-108.5 347.8661,-103.2543 353.843,-99.2727 360.343,-96.2654"/>
<polygon fill="#191970" stroke="#191970" points="291.2077,-338.9112 283.2208,-345.8725 293.8056,-345.4113 291.2077,-338.9112"/>
</g>
<!-- Node18 -->
<g id="node18" class="node">
<title>Node18</title>
<g id="a_node18"><a xlink:href="../../d0/d99/Jin__BJet_8C.html#a36169bfee2ed7efda633944d12aebad9" target="_top" xlink:title="Jin_BJet">
<polygon fill="none" stroke="#000000" points="399,-39.5 399,-59.5 454,-59.5 454,-39.5 399,-39.5"/>
<text text-anchor="middle" x="426.5" y="-46.5" font-family="FreeSans" font-size="10.00" fill="#000000">Jin_BJet</text>
</a>
</g>
</g>
<!-- Node2&#45;&gt;Node18 -->
<g id="edge17" class="edge">
<title>Node2&#45;&gt;Node18</title>
<path fill="none" stroke="#191970" d="M292.7489,-342.196C298.1383,-339.5192 303.0686,-336.0323 307,-331.5 384.018,-242.7107 264.082,-156.6048 343,-69.5 356.912,-54.1448 380.3335,-49.5681 398.8363,-48.5921"/>
<polygon fill="#191970" stroke="#191970" points="291.3138,-339.0006 283.3407,-345.9778 293.9246,-345.4956 291.3138,-339.0006"/>
</g>
<!-- Node19 -->
<g id="node19" class="node">
<title>Node19</title>
<g id="a_node19"><a xlink:href="../../dd/db1/Wrapper_8cxx.html#abf1e42281903daa0752c80dd6c879fac" target="_top" xlink:title="Wrapper">
<polygon fill="none" stroke="#000000" points="396.5,-.5 396.5,-20.5 456.5,-20.5 456.5,-.5 396.5,-.5"/>
<text text-anchor="middle" x="426.5" y="-7.5" font-family="FreeSans" font-size="10.00" fill="#000000">Wrapper</text>
</a>
</g>
</g>
<!-- Node2&#45;&gt;Node19 -->
<g id="edge18" class="edge">
<title>Node2&#45;&gt;Node19</title>
<path fill="none" stroke="#191970" d="M292.6193,-342.3656C298.0765,-339.6641 303.0585,-336.1251 307,-331.5 394.389,-228.9541 253.4162,-131.1342 343,-30.5 356.1823,-15.6917 378.2051,-10.8719 396.3244,-9.6588"/>
<polygon fill="#191970" stroke="#191970" points="291.0799,-339.2113 283.0866,-346.1653 293.6718,-345.7138 291.0799,-339.2113"/>
</g>
<!-- Node4 -->
<g id="node4" class="node">
<title>Node4</title>
<g id="a_node4"><a xlink:href="../../d3/d7f/Fun_8C.html#af69a3eef3ff244bb51f5740c6ecb5432" target="_top" xlink:title="Fun">
<polygon fill="none" stroke="#000000" points="546,-657.5 546,-677.5 580,-677.5 580,-657.5 546,-657.5"/>
<text text-anchor="middle" x="563" y="-664.5" font-family="FreeSans" font-size="10.00" fill="#000000">Fun</text>
</a>
</g>
</g>
<!-- Node3&#45;&gt;Node4 -->
<g id="edge3" class="edge">
<title>Node3&#45;&gt;Node4</title>
<path fill="none" stroke="#191970" d="M493.6941,-667.5C513.0852,-667.5 532.59,-667.5 545.9452,-667.5"/>
<polygon fill="#191970" stroke="#191970" points="493.5974,-664.0001 483.5974,-667.5 493.5974,-671.0001 493.5974,-664.0001"/>
</g>
</g>
</svg>
