<?xml version="1.0" encoding="UTF-8" standalone="no"?>
<!DOCTYPE svg PUBLIC "-//W3C//DTD SVG 1.1//EN"
 "http://www.w3.org/Graphics/SVG/1.1/DTD/svg11.dtd">
<!-- Generated by graphviz version 2.40.1 (20161225.0304)
 -->
<!-- Title: RawTowerBuilder::Detector Pages: 1 -->
<svg width="603pt" height="686pt"
 viewBox="0.00 0.00 603.00 686.00" xmlns="http://www.w3.org/2000/svg" xmlns:xlink="http://www.w3.org/1999/xlink">
<g id="graph0" class="graph" transform="scale(1 1) rotate(0) translate(4 682)">
<title>RawTowerBuilder::Detector</title>
<!-- Node1 -->
<g id="node1" class="node">
<title>Node1</title>
<polygon fill="#bfbfbf" stroke="#000000" points="0,-262.5 0,-282.5 153,-282.5 153,-262.5 0,-262.5"/>
<text text-anchor="middle" x="76.5" y="-269.5" font-family="FreeSans" font-size="10.00" fill="#000000">RawTowerBuilder::Detector</text>
</g>
<!-- Node2 -->
<g id="node2" class="node">
<title>Node2</title>
<g id="a_node2"><a xlink:href="../../d8/d4c/G4__CEmc__EIC_8C.html#a46a52c955e8d2078c58d4d7db471cc43" target="_top" xlink:title="CEMC_Towers">
<polygon fill="none" stroke="#000000" points="213,-340.5 213,-360.5 298,-360.5 298,-340.5 213,-340.5"/>
<text text-anchor="middle" x="255.5" y="-347.5" font-family="FreeSans" font-size="10.00" fill="#000000">CEMC_Towers</text>
</a>
</g>
</g>
<!-- Node1&#45;&gt;Node2 -->
<g id="edge1" class="edge">
<title>Node1&#45;&gt;Node2</title>
<path fill="none" stroke="#191970" d="M101.9818,-287.7939C124.3301,-300.7326 158.005,-319.0966 189,-331.5 197.3608,-334.8457 206.5304,-337.8619 215.3173,-340.4544"/>
<polygon fill="#191970" stroke="#191970" points="103.536,-284.6481 93.1383,-282.6141 99.9982,-290.6883 103.536,-284.6481"/>
</g>
<!-- Node20 -->
<g id="node20" class="node">
<title>Node20</title>
<g id="a_node20"><a xlink:href="../../d8/d91/Fun4All__G4__Clusters_8C.html#ab7d8e64f12f512631d4c0e8c6683ec5b" target="_top" xlink:title="Fun4All_G4_Clusters">
<polygon fill="none" stroke="#000000" points="196,-301.5 196,-321.5 315,-321.5 315,-301.5 196,-301.5"/>
<text text-anchor="middle" x="255.5" y="-308.5" font-family="FreeSans" font-size="10.00" fill="#000000">Fun4All_G4_Clusters</text>
</a>
</g>
</g>
<!-- Node1&#45;&gt;Node20 -->
<g id="edge19" class="edge">
<title>Node1&#45;&gt;Node20</title>
<path fill="none" stroke="#191970" d="M132.5812,-284.7188C157.3446,-290.1142 186.0935,-296.3779 209.5593,-301.4906"/>
<polygon fill="#191970" stroke="#191970" points="133.1128,-281.2526 122.5969,-282.5435 131.6226,-288.0921 133.1128,-281.2526"/>
</g>
<!-- Node21 -->
<g id="node21" class="node">
<title>Node21</title>
<g id="a_node21"><a xlink:href="../../dc/d8e/Fun4All__G4__Prototype2_8C.html#a6b8f092c4f51be2938dd09c810ba6226" target="_top" xlink:title="Fun4All_G4_Prototype2">
<polygon fill="none" stroke="#000000" points="189,-262.5 189,-282.5 322,-282.5 322,-262.5 189,-262.5"/>
<text text-anchor="middle" x="255.5" y="-269.5" font-family="FreeSans" font-size="10.00" fill="#000000">Fun4All_G4_Prototype2</text>
</a>
</g>
</g>
<!-- Node1&#45;&gt;Node21 -->
<g id="edge20" class="edge">
<title>Node1&#45;&gt;Node21</title>
<path fill="none" stroke="#191970" d="M163.2527,-272.5C171.8531,-272.5 180.4875,-272.5 188.8376,-272.5"/>
<polygon fill="#191970" stroke="#191970" points="163.1911,-269.0001 153.1911,-272.5 163.191,-276.0001 163.1911,-269.0001"/>
</g>
<!-- Node22 -->
<g id="node22" class="node">
<title>Node22</title>
<g id="a_node22"><a xlink:href="../../d7/d40/Fun4All__G4__Prototype3_8C.html#a1201361263017b08a070777a0b90b27c" target="_top" xlink:title="Fun4All_G4_Prototype3">
<polygon fill="none" stroke="#000000" points="189,-223.5 189,-243.5 322,-243.5 322,-223.5 189,-223.5"/>
<text text-anchor="middle" x="255.5" y="-230.5" font-family="FreeSans" font-size="10.00" fill="#000000">Fun4All_G4_Prototype3</text>
</a>
</g>
</g>
<!-- Node1&#45;&gt;Node22 -->
<g id="edge21" class="edge">
<title>Node1&#45;&gt;Node22</title>
<path fill="none" stroke="#191970" d="M132.5812,-260.2812C157.3446,-254.8858 186.0935,-248.6221 209.5593,-243.5094"/>
<polygon fill="#191970" stroke="#191970" points="131.6226,-256.9079 122.5969,-262.4565 133.1128,-263.7474 131.6226,-256.9079"/>
</g>
<!-- Node23 -->
<g id="node23" class="node">
<title>Node23</title>
<g id="a_node23"><a xlink:href="../../d4/d58/Fun4All__G4__Prototype4_8C.html#acac517f0728af658cbf99c7c9687c908" target="_top" xlink:title="Fun4All_G4_Prototype4">
<polygon fill="none" stroke="#000000" points="189,-184.5 189,-204.5 322,-204.5 322,-184.5 189,-184.5"/>
<text text-anchor="middle" x="255.5" y="-191.5" font-family="FreeSans" font-size="10.00" fill="#000000">Fun4All_G4_Prototype4</text>
</a>
</g>
</g>
<!-- Node1&#45;&gt;Node23 -->
<g id="edge22" class="edge">
<title>Node1&#45;&gt;Node23</title>
<path fill="none" stroke="#191970" d="M102.449,-257.3815C124.8464,-244.7594 158.3383,-226.892 189,-214.5 198.1656,-210.7957 208.2825,-207.4124 217.8007,-204.5247"/>
<polygon fill="#191970" stroke="#191970" points="100.5273,-254.4481 93.57,-262.4385 103.9917,-260.5307 100.5273,-254.4481"/>
</g>
<!-- Node3 -->
<g id="node3" class="node">
<title>Node3</title>
<g id="a_node3"><a xlink:href="../../d3/d7f/Fun_8C.html#af0d3c8a78765149fef9b2beeecfc6279" target="_top" xlink:title="ConfigureDetectors">
<polygon fill="none" stroke="#000000" points="384.5,-657.5 384.5,-677.5 498.5,-677.5 498.5,-657.5 384.5,-657.5"/>
<text text-anchor="middle" x="441.5" y="-664.5" font-family="FreeSans" font-size="10.00" fill="#000000">ConfigureDetectors</text>
</a>
</g>
</g>
<!-- Node2&#45;&gt;Node3 -->
<g id="edge2" class="edge">
<title>Node2&#45;&gt;Node3</title>
<path fill="none" stroke="#191970" d="M259.7529,-370.607C272.9454,-431.1257 314.8849,-609.7892 358,-648.5 365.4118,-655.1547 374.6635,-659.6275 384.2843,-662.6047"/>
<polygon fill="#191970" stroke="#191970" points="263.1556,-369.7821 257.6303,-360.7421 256.3122,-371.2546 263.1556,-369.7821"/>
</g>
<!-- Node5 -->
<g id="node5" class="node">
<title>Node5</title>
<g id="a_node5"><a xlink:href="../../da/d02/Fun4All__G4__EICDetector_8C.html#afbe82cefa1d1fd031d9a8586b7bb68c6" target="_top" xlink:title="Fun4All_G4_EICDetector">
<polygon fill="none" stroke="#000000" points="372,-618.5 372,-638.5 511,-638.5 511,-618.5 372,-618.5"/>
<text text-anchor="middle" x="441.5" y="-625.5" font-family="FreeSans" font-size="10.00" fill="#000000">Fun4All_G4_EICDetector</text>
</a>
</g>
</g>
<!-- Node2&#45;&gt;Node5 -->
<g id="edge4" class="edge">
<title>Node2&#45;&gt;Node5</title>
<path fill="none" stroke="#191970" d="M257.262,-370.8384C262.6492,-419.9228 283.4028,-545.5311 358,-609.5 362.1757,-613.0808 366.8887,-616.0234 371.8963,-618.4375"/>
<polygon fill="#191970" stroke="#191970" points="260.7144,-370.1849 256.2428,-360.58 253.7487,-370.877 260.7144,-370.1849"/>
</g>
<!-- Node6 -->
<g id="node6" class="node">
<title>Node6</title>
<g id="a_node6"><a xlink:href="../../dd/d2a/Fun4All__G4__EICDetector__LQ_8C.html#aaa01242fd6e77ca43a9d49a6d46008e4" target="_top" xlink:title="Fun4All_G4_EICDetector_LQ">
<polygon fill="none" stroke="#000000" points="363.5,-579.5 363.5,-599.5 519.5,-599.5 519.5,-579.5 363.5,-579.5"/>
<text text-anchor="middle" x="441.5" y="-586.5" font-family="FreeSans" font-size="10.00" fill="#000000">Fun4All_G4_EICDetector_LQ</text>
</a>
</g>
</g>
<!-- Node2&#45;&gt;Node6 -->
<g id="edge5" class="edge">
<title>Node2&#45;&gt;Node6</title>
<path fill="none" stroke="#191970" d="M258.8158,-370.724C267.088,-414.4136 292.8578,-517.9013 358,-570.5 362.3955,-574.0491 367.3259,-576.9632 372.5356,-579.3527"/>
<polygon fill="#191970" stroke="#191970" points="262.2381,-369.9784 257.0388,-360.747 255.3466,-371.2058 262.2381,-369.9784"/>
</g>
<!-- Node7 -->
<g id="node7" class="node">
<title>Node7</title>
<g id="a_node7"><a xlink:href="../../d4/df5/Fun4All__G4__EICDetector__LQ__reference_8C.html#a2feefc472f17f90b3cbe74897d049f75" target="_top" xlink:title="Fun4All_G4_EICDetector\l_LQ_reference">
<polygon fill="none" stroke="#000000" points="372,-528.5 372,-560.5 511,-560.5 511,-528.5 372,-528.5"/>
<text text-anchor="start" x="380" y="-547.5" font-family="FreeSans" font-size="10.00" fill="#000000">Fun4All_G4_EICDetector</text>
<text text-anchor="middle" x="441.5" y="-535.5" font-family="FreeSans" font-size="10.00" fill="#000000">_LQ_reference</text>
</a>
</g>
</g>
<!-- Node2&#45;&gt;Node7 -->
<g id="edge6" class="edge">
<title>Node2&#45;&gt;Node7</title>
<path fill="none" stroke="#191970" d="M262.0784,-370.2796C274.8413,-405.5995 306.3392,-479.55 358,-519.5 362.4291,-522.9251 367.3222,-525.8824 372.4526,-528.4355"/>
<polygon fill="#191970" stroke="#191970" points="265.3144,-368.9293 258.7174,-360.6389 258.7045,-371.2337 265.3144,-368.9293"/>
</g>
<!-- Node8 -->
<g id="node8" class="node">
<title>Node8</title>
<g id="a_node8"><a xlink:href="../../d3/d51/Fun4All__G4__EICDetector__RICH_8C.html#a5739502b0a7a1ba782c01069f77e933f" target="_top" xlink:title="Fun4All_G4_EICDetector_RICH">
<polygon fill="none" stroke="#000000" points="358,-489.5 358,-509.5 525,-509.5 525,-489.5 358,-489.5"/>
<text text-anchor="middle" x="441.5" y="-496.5" font-family="FreeSans" font-size="10.00" fill="#000000">Fun4All_G4_EICDetector_RICH</text>
</a>
</g>
</g>
<!-- Node2&#45;&gt;Node8 -->
<g id="edge7" class="edge">
<title>Node2&#45;&gt;Node8</title>
<path fill="none" stroke="#191970" d="M265.0338,-369.5746C280.4503,-398.3552 313.6592,-452.488 358,-480.5 363.7818,-484.1526 370.1817,-487.106 376.791,-489.4935"/>
<polygon fill="#191970" stroke="#191970" points="268.0526,-367.7935 260.3337,-360.5362 261.8421,-371.0231 268.0526,-367.7935"/>
</g>
<!-- Node9 -->
<g id="node9" class="node">
<title>Node9</title>
<g id="a_node9"><a xlink:href="../../d7/d9e/Fun4All__G4__fsPHENIX_8C.html#af48911d394d2412e817583700f2bbee2" target="_top" xlink:title="Fun4All_G4_fsPHENIX">
<polygon fill="none" stroke="#000000" points="379.5,-450.5 379.5,-470.5 503.5,-470.5 503.5,-450.5 379.5,-450.5"/>
<text text-anchor="middle" x="441.5" y="-457.5" font-family="FreeSans" font-size="10.00" fill="#000000">Fun4All_G4_fsPHENIX</text>
</a>
</g>
</g>
<!-- Node2&#45;&gt;Node9 -->
<g id="edge8" class="edge">
<title>Node2&#45;&gt;Node9</title>
<path fill="none" stroke="#191970" d="M270.3707,-368.2832C288.7732,-389.0919 322.1013,-423.0435 358,-441.5 365.0076,-445.1028 372.6927,-448.0282 380.4742,-450.4023"/>
<polygon fill="#191970" stroke="#191970" points="272.8345,-365.7814 263.6466,-360.5056 267.5391,-370.3595 272.8345,-365.7814"/>
</g>
<!-- Node10 -->
<g id="node10" class="node">
<title>Node10</title>
<g id="a_node10"><a xlink:href="../../da/d2f/Fun4All__G4__fsPHENIX__FastSim_8C.html#a66fb850cae5fcaadda23b74a25ce4c9c" target="_top" xlink:title="Fun4All_G4_fsPHENIX\l_FastSim">
<polygon fill="none" stroke="#000000" points="379.5,-399.5 379.5,-431.5 503.5,-431.5 503.5,-399.5 379.5,-399.5"/>
<text text-anchor="start" x="387.5" y="-418.5" font-family="FreeSans" font-size="10.00" fill="#000000">Fun4All_G4_fsPHENIX</text>
<text text-anchor="middle" x="441.5" y="-406.5" font-family="FreeSans" font-size="10.00" fill="#000000">_FastSim</text>
</a>
</g>
</g>
<!-- Node2&#45;&gt;Node10 -->
<g id="edge9" class="edge">
<title>Node2&#45;&gt;Node10</title>
<path fill="none" stroke="#191970" d="M289.2614,-364.4718C309.1271,-372.4924 334.8225,-382.5226 358,-390.5 366.8713,-393.5534 376.3432,-396.5942 385.6045,-399.4493"/>
<polygon fill="#191970" stroke="#191970" points="290.3139,-361.1215 279.7319,-360.5982 287.6778,-367.6063 290.3139,-361.1215"/>
</g>
<!-- Node11 -->
<g id="node11" class="node">
<title>Node11</title>
<g id="a_node11"><a xlink:href="../../d0/da6/Fun4All__G4__fsPHENIX__pi0_8C.html#a023d91d47b678e5d7f1751834aa517c6" target="_top" xlink:title="Fun4All_G4_fsPHENIX_pi0">
<polygon fill="none" stroke="#000000" points="369,-360.5 369,-380.5 514,-380.5 514,-360.5 369,-360.5"/>
<text text-anchor="middle" x="441.5" y="-367.5" font-family="FreeSans" font-size="10.00" fill="#000000">Fun4All_G4_fsPHENIX_pi0</text>
</a>
</g>
</g>
<!-- Node2&#45;&gt;Node11 -->
<g id="edge10" class="edge">
<title>Node2&#45;&gt;Node11</title>
<path fill="none" stroke="#191970" d="M308.306,-356.1781C327.095,-358.1984 348.5943,-360.5101 368.7582,-362.6783"/>
<polygon fill="#191970" stroke="#191970" points="308.4891,-352.6777 298.1722,-355.0884 307.7406,-359.6375 308.4891,-352.6777"/>
</g>
<!-- Node12 -->
<g id="node12" class="node">
<title>Node12</title>
<g id="a_node12"><a xlink:href="../../d5/d2c/macros_2blob_2master_2macros_2g4simulations_2Fun4All__G4__sPHENIX_8C.html#a6eaaa492d7023ec86c562dc63aa1e5a4" target="_top" xlink:title="Fun4All_G4_sPHENIX">
<polygon fill="none" stroke="#000000" points="381,-321.5 381,-341.5 502,-341.5 502,-321.5 381,-321.5"/>
<text text-anchor="middle" x="441.5" y="-328.5" font-family="FreeSans" font-size="10.00" fill="#000000">Fun4All_G4_sPHENIX</text>
</a>
</g>
</g>
<!-- Node2&#45;&gt;Node12 -->
<g id="edge11" class="edge">
<title>Node2&#45;&gt;Node12</title>
<path fill="none" stroke="#191970" d="M308.2418,-345.1124C330.8133,-342.8067 357.3054,-340.1005 380.6972,-337.711"/>
<polygon fill="#191970" stroke="#191970" points="307.7647,-341.6428 298.1722,-346.141 308.4761,-348.6066 307.7647,-341.6428"/>
</g>
<!-- Node13 -->
<g id="node13" class="node">
<title>Node13</title>
<g id="a_node13"><a xlink:href="../../d3/de2/Fun4All__G4__sPHENIX__AnaGenFit_8C.html#a9bf3f2f72ed69a17e2d0c1121d48013c" target="_top" xlink:title="Fun4All_G4_sPHENIX\l_AnaGenFit">
<polygon fill="none" stroke="#000000" points="381,-270.5 381,-302.5 502,-302.5 502,-270.5 381,-270.5"/>
<text text-anchor="start" x="389" y="-289.5" font-family="FreeSans" font-size="10.00" fill="#000000">Fun4All_G4_sPHENIX</text>
<text text-anchor="middle" x="441.5" y="-277.5" font-family="FreeSans" font-size="10.00" fill="#000000">_AnaGenFit</text>
</a>
</g>
</g>
<!-- Node2&#45;&gt;Node13 -->
<g id="edge12" class="edge">
<title>Node2&#45;&gt;Node13</title>
<path fill="none" stroke="#191970" d="M305.2546,-337.5134C310.9604,-335.6628 316.6467,-333.6504 322,-331.5 338.7879,-324.7565 341.2927,-319.4408 358,-312.5 366.5529,-308.9468 375.7708,-305.6107 384.8512,-302.59"/>
<polygon fill="#191970" stroke="#191970" points="304.2092,-334.1731 295.6893,-340.4707 306.2769,-340.8607 304.2092,-334.1731"/>
</g>
<!-- Node14 -->
<g id="node14" class="node">
<title>Node14</title>
<g id="a_node14"><a xlink:href="../../da/dd0/Fun4All__G4__sPHENIX__photonjet_8C.html#a6f18519e216acc05399e562ea57ea77c" target="_top" xlink:title="Fun4All_G4_sPHENIX\l_photonjet">
<polygon fill="none" stroke="#000000" points="381,-219.5 381,-251.5 502,-251.5 502,-219.5 381,-219.5"/>
<text text-anchor="start" x="389" y="-238.5" font-family="FreeSans" font-size="10.00" fill="#000000">Fun4All_G4_sPHENIX</text>
<text text-anchor="middle" x="441.5" y="-226.5" font-family="FreeSans" font-size="10.00" fill="#000000">_photonjet</text>
</a>
</g>
</g>
<!-- Node2&#45;&gt;Node14 -->
<g id="edge13" class="edge">
<title>Node2&#45;&gt;Node14</title>
<path fill="none" stroke="#191970" d="M307.6261,-340.2298C312.794,-337.8919 317.7066,-335.0222 322,-331.5 349.0472,-309.3111 331.216,-284.006 358,-261.5 364.6258,-255.9325 372.4406,-251.5553 380.5864,-248.1144"/>
<polygon fill="#191970" stroke="#191970" points="306.1995,-337.0286 298.1266,-343.89 308.7164,-343.5605 306.1995,-337.0286"/>
</g>
<!-- Node15 -->
<g id="node15" class="node">
<title>Node15</title>
<g id="a_node15"><a xlink:href="../../da/d85/Fun4All__G4__sPHENIX__photons_8C.html#a02fbbd59878fe1299f58ed187e7214ba" target="_top" xlink:title="Fun4All_G4_sPHENIX\l_photons">
<polygon fill="none" stroke="#000000" points="381,-168.5 381,-200.5 502,-200.5 502,-168.5 381,-168.5"/>
<text text-anchor="start" x="389" y="-187.5" font-family="FreeSans" font-size="10.00" fill="#000000">Fun4All_G4_sPHENIX</text>
<text text-anchor="middle" x="441.5" y="-175.5" font-family="FreeSans" font-size="10.00" fill="#000000">_photons</text>
</a>
</g>
</g>
<!-- Node2&#45;&gt;Node15 -->
<g id="edge14" class="edge">
<title>Node2&#45;&gt;Node15</title>
<path fill="none" stroke="#191970" d="M307.9123,-341.2013C313.1057,-338.6875 317.9452,-335.5109 322,-331.5 361.8892,-292.0425 318.5784,-250.4247 358,-210.5 364.4006,-204.0177 372.3878,-199.1457 380.8661,-195.4853"/>
<polygon fill="#191970" stroke="#191970" points="306.2652,-338.0901 298.2749,-345.0475 308.8599,-344.5915 306.2652,-338.0901"/>
</g>
<!-- Node16 -->
<g id="node16" class="node">
<title>Node16</title>
<g id="a_node16"><a xlink:href="../../de/d55/Fun4All__G4__sPHENIX__truthphotonjet_8C.html#a48a6f4503eaa1b3793d8ae572aa795b9" target="_top" xlink:title="Fun4All_G4_sPHENIX\l_truthphotonjet">
<polygon fill="none" stroke="#000000" points="381,-117.5 381,-149.5 502,-149.5 502,-117.5 381,-117.5"/>
<text text-anchor="start" x="389" y="-136.5" font-family="FreeSans" font-size="10.00" fill="#000000">Fun4All_G4_sPHENIX</text>
<text text-anchor="middle" x="441.5" y="-124.5" font-family="FreeSans" font-size="10.00" fill="#000000">_truthphotonjet</text>
</a>
</g>
</g>
<!-- Node2&#45;&gt;Node16 -->
<g id="edge15" class="edge">
<title>Node2&#45;&gt;Node16</title>
<path fill="none" stroke="#191970" d="M307.6554,-341.8227C313.0164,-339.2066 317.9653,-335.8361 322,-331.5 375.2029,-274.323 305.4744,-217.2998 358,-159.5 364.2288,-152.6458 372.2301,-147.5818 380.8056,-143.8441"/>
<polygon fill="#191970" stroke="#191970" points="306.3187,-338.5876 298.3329,-345.5503 308.9177,-345.0873 306.3187,-338.5876"/>
</g>
<!-- Node17 -->
<g id="node17" class="node">
<title>Node17</title>
<g id="a_node17"><a xlink:href="../../d4/d65/Fun4All__single__particle_8C.html#a8a492b5dbead494bfdddbebde8a49b0e" target="_top" xlink:title="Fun4All_single_particle">
<polygon fill="none" stroke="#000000" points="375.5,-78.5 375.5,-98.5 507.5,-98.5 507.5,-78.5 375.5,-78.5"/>
<text text-anchor="middle" x="441.5" y="-85.5" font-family="FreeSans" font-size="10.00" fill="#000000">Fun4All_single_particle</text>
</a>
</g>
</g>
<!-- Node2&#45;&gt;Node17 -->
<g id="edge16" class="edge">
<title>Node2&#45;&gt;Node17</title>
<path fill="none" stroke="#191970" d="M307.6459,-342.1056C313.053,-339.4443 318.0156,-335.9858 322,-331.5 388.6708,-256.4399 289.7233,-182.1023 358,-108.5 362.8661,-103.2543 368.843,-99.2727 375.343,-96.2654"/>
<polygon fill="#191970" stroke="#191970" points="306.2077,-338.9112 298.2208,-345.8725 308.8056,-345.4113 306.2077,-338.9112"/>
</g>
<!-- Node18 -->
<g id="node18" class="node">
<title>Node18</title>
<g id="a_node18"><a xlink:href="../../d0/d99/Jin__BJet_8C.html#a36169bfee2ed7efda633944d12aebad9" target="_top" xlink:title="Jin_BJet">
<polygon fill="none" stroke="#000000" points="414,-39.5 414,-59.5 469,-59.5 469,-39.5 414,-39.5"/>
<text text-anchor="middle" x="441.5" y="-46.5" font-family="FreeSans" font-size="10.00" fill="#000000">Jin_BJet</text>
</a>
</g>
</g>
<!-- Node2&#45;&gt;Node18 -->
<g id="edge17" class="edge">
<title>Node2&#45;&gt;Node18</title>
<path fill="none" stroke="#191970" d="M307.7489,-342.196C313.1383,-339.5192 318.0686,-336.0323 322,-331.5 399.018,-242.7107 279.082,-156.6048 358,-69.5 371.912,-54.1448 395.3335,-49.5681 413.8363,-48.5921"/>
<polygon fill="#191970" stroke="#191970" points="306.3138,-339.0006 298.3407,-345.9778 308.9246,-345.4956 306.3138,-339.0006"/>
</g>
<!-- Node19 -->
<g id="node19" class="node">
<title>Node19</title>
<g id="a_node19"><a xlink:href="../../dd/db1/Wrapper_8cxx.html#abf1e42281903daa0752c80dd6c879fac" target="_top" xlink:title="Wrapper">
<polygon fill="none" stroke="#000000" points="411.5,-.5 411.5,-20.5 471.5,-20.5 471.5,-.5 411.5,-.5"/>
<text text-anchor="middle" x="441.5" y="-7.5" font-family="FreeSans" font-size="10.00" fill="#000000">Wrapper</text>
</a>
</g>
</g>
<!-- Node2&#45;&gt;Node19 -->
<g id="edge18" class="edge">
<title>Node2&#45;&gt;Node19</title>
<path fill="none" stroke="#191970" d="M307.6193,-342.3656C313.0765,-339.6641 318.0585,-336.1251 322,-331.5 409.389,-228.9541 268.4162,-131.1342 358,-30.5 371.1823,-15.6917 393.2051,-10.8719 411.3244,-9.6588"/>
<polygon fill="#191970" stroke="#191970" points="306.0799,-339.2113 298.0866,-346.1653 308.6718,-345.7138 306.0799,-339.2113"/>
</g>
<!-- Node4 -->
<g id="node4" class="node">
<title>Node4</title>
<g id="a_node4"><a xlink:href="../../d3/d7f/Fun_8C.html#af69a3eef3ff244bb51f5740c6ecb5432" target="_top" xlink:title="Fun">
<polygon fill="none" stroke="#000000" points="561,-657.5 561,-677.5 595,-677.5 595,-657.5 561,-657.5"/>
<text text-anchor="middle" x="578" y="-664.5" font-family="FreeSans" font-size="10.00" fill="#000000">Fun</text>
</a>
</g>
</g>
<!-- Node3&#45;&gt;Node4 -->
<g id="edge3" class="edge">
<title>Node3&#45;&gt;Node4</title>
<path fill="none" stroke="#191970" d="M508.6941,-667.5C528.0852,-667.5 547.59,-667.5 560.9452,-667.5"/>
<polygon fill="#191970" stroke="#191970" points="508.5974,-664.0001 498.5974,-667.5 508.5974,-671.0001 508.5974,-664.0001"/>
</g>
</g>
</svg>
