<?xml version="1.0" encoding="UTF-8" standalone="no"?>
<!DOCTYPE svg PUBLIC "-//W3C//DTD SVG 1.1//EN"
 "http://www.w3.org/Graphics/SVG/1.1/DTD/svg11.dtd">
<!-- Generated by graphviz version 2.40.1 (20161225.0304)
 -->
<!-- Title: PHG4TpcPadPlane::Detector Pages: 1 -->
<svg width="663pt" height="119pt"
 viewBox="0.00 0.00 663.00 119.00" xmlns="http://www.w3.org/2000/svg" xmlns:xlink="http://www.w3.org/1999/xlink">
<g id="graph0" class="graph" transform="scale(1 1) rotate(0) translate(4 115)">
<title>PHG4TpcPadPlane::Detector</title>
<!-- Node1 -->
<g id="node1" class="node">
<title>Node1</title>
<polygon fill="#bfbfbf" stroke="#000000" points="0,-31.5 0,-51.5 159,-51.5 159,-31.5 0,-31.5"/>
<text text-anchor="middle" x="79.5" y="-38.5" font-family="FreeSans" font-size="10.00" fill="#000000">PHG4TpcPadPlane::Detector</text>
</g>
<!-- Node2 -->
<g id="node2" class="node">
<title>Node2</title>
<g id="a_node2"><a xlink:href="../../d7/ddb/classPHG4TpcElectronDrift.html#ade4db3deae06304762eca2ce7f788d83" target="_top" xlink:title="PHG4TpcElectronDrift\l::registerPadPlane">
<polygon fill="none" stroke="#000000" points="198,-51.5 198,-83.5 324,-83.5 324,-51.5 198,-51.5"/>
<text text-anchor="start" x="206" y="-70.5" font-family="FreeSans" font-size="10.00" fill="#000000">PHG4TpcElectronDrift</text>
<text text-anchor="middle" x="261" y="-58.5" font-family="FreeSans" font-size="10.00" fill="#000000">::registerPadPlane</text>
</a>
</g>
</g>
<!-- Node1&#45;&gt;Node2 -->
<g id="edge1" class="edge">
<title>Node1&#45;&gt;Node2</title>
<path fill="none" stroke="#191970" d="M159.6256,-52.9781C172.4617,-54.8168 185.5852,-56.6968 197.9499,-58.468"/>
<polygon fill="#191970" stroke="#191970" points="159.8083,-49.4686 149.413,-51.5151 158.8156,-56.3978 159.8083,-49.4686"/>
</g>
<!-- Node7 -->
<g id="node7" class="node">
<title>Node7</title>
<g id="a_node7"><a xlink:href="../../dd/d60/classTpcPrototypeUnpacker.html#aa80b64ba88111e1135218480c9595e68" target="_top" xlink:title="TpcPrototypeUnpacker\l::registerPadPlane">
<polygon fill="none" stroke="#000000" points="195,-.5 195,-32.5 327,-32.5 327,-.5 195,-.5"/>
<text text-anchor="start" x="203" y="-19.5" font-family="FreeSans" font-size="10.00" fill="#000000">TpcPrototypeUnpacker</text>
<text text-anchor="middle" x="261" y="-7.5" font-family="FreeSans" font-size="10.00" fill="#000000">::registerPadPlane</text>
</a>
</g>
</g>
<!-- Node1&#45;&gt;Node7 -->
<g id="edge6" class="edge">
<title>Node1&#45;&gt;Node7</title>
<path fill="none" stroke="#191970" d="M162.2743,-30.0986C173.228,-28.5898 184.3378,-27.0595 194.9589,-25.5966"/>
<polygon fill="#191970" stroke="#191970" points="161.7061,-26.6437 152.2772,-31.4756 162.6613,-33.5782 161.7061,-26.6437"/>
</g>
<!-- Node3 -->
<g id="node3" class="node">
<title>Node3</title>
<g id="a_node3"><a xlink:href="../../db/da1/Fun4All__G4__TPC_8C.html#af60bcd3cf09ebd567e28ede14e9e894a" target="_top" xlink:title="Fun4All_G4_TPC">
<polygon fill="none" stroke="#000000" points="380.5,-90.5 380.5,-110.5 477.5,-110.5 477.5,-90.5 380.5,-90.5"/>
<text text-anchor="middle" x="429" y="-97.5" font-family="FreeSans" font-size="10.00" fill="#000000">Fun4All_G4_TPC</text>
</a>
</g>
</g>
<!-- Node2&#45;&gt;Node3 -->
<g id="edge2" class="edge">
<title>Node2&#45;&gt;Node3</title>
<path fill="none" stroke="#191970" d="M334.1921,-81.877C349.7947,-84.9418 365.9032,-88.106 380.3158,-90.937"/>
<polygon fill="#191970" stroke="#191970" points="334.5221,-78.375 324.035,-79.8819 333.1728,-85.2438 334.5221,-78.375"/>
</g>
<!-- Node4 -->
<g id="node4" class="node">
<title>Node4</title>
<g id="a_node4"><a xlink:href="../../da/d3c/G4__Tracking_8C.html#a4433eb58af16a1286bd71a65483a0b09" target="_top" xlink:title="Tracking_Cells">
<polygon fill="none" stroke="#000000" points="384.5,-51.5 384.5,-71.5 473.5,-71.5 473.5,-51.5 384.5,-51.5"/>
<text text-anchor="middle" x="429" y="-58.5" font-family="FreeSans" font-size="10.00" fill="#000000">Tracking_Cells</text>
</a>
</g>
</g>
<!-- Node2&#45;&gt;Node4 -->
<g id="edge3" class="edge">
<title>Node2&#45;&gt;Node4</title>
<path fill="none" stroke="#191970" d="M334.0495,-64.8911C351.2179,-64.2779 369.0071,-63.6426 384.4821,-63.0899"/>
<polygon fill="#191970" stroke="#191970" points="333.9036,-61.394 324.035,-65.2488 334.1536,-68.3895 333.9036,-61.394"/>
</g>
<!-- Node5 -->
<g id="node5" class="node">
<title>Node5</title>
<g id="a_node5"><a xlink:href="../../d7/d9e/Fun4All__G4__fsPHENIX_8C.html#af48911d394d2412e817583700f2bbee2" target="_top" xlink:title="Fun4All_G4_fsPHENIX">
<polygon fill="none" stroke="#000000" points="531,-70.5 531,-90.5 655,-90.5 655,-70.5 531,-70.5"/>
<text text-anchor="middle" x="593" y="-77.5" font-family="FreeSans" font-size="10.00" fill="#000000">Fun4All_G4_fsPHENIX</text>
</a>
</g>
</g>
<!-- Node4&#45;&gt;Node5 -->
<g id="edge4" class="edge">
<title>Node4&#45;&gt;Node5</title>
<path fill="none" stroke="#191970" d="M483.958,-67.8671C498.9665,-69.6059 515.336,-71.5023 530.7209,-73.2847"/>
<polygon fill="#191970" stroke="#191970" points="484.1501,-64.366 473.8137,-66.6918 483.3445,-71.3195 484.1501,-64.366"/>
</g>
<!-- Node6 -->
<g id="node6" class="node">
<title>Node6</title>
<g id="a_node6"><a xlink:href="../../d5/d2c/macros_2blob_2master_2macros_2g4simulations_2Fun4All__G4__sPHENIX_8C.html#a6eaaa492d7023ec86c562dc63aa1e5a4" target="_top" xlink:title="Fun4All_G4_sPHENIX">
<polygon fill="none" stroke="#000000" points="532.5,-31.5 532.5,-51.5 653.5,-51.5 653.5,-31.5 532.5,-31.5"/>
<text text-anchor="middle" x="593" y="-38.5" font-family="FreeSans" font-size="10.00" fill="#000000">Fun4All_G4_sPHENIX</text>
</a>
</g>
</g>
<!-- Node4&#45;&gt;Node6 -->
<g id="edge5" class="edge">
<title>Node4&#45;&gt;Node6</title>
<path fill="none" stroke="#191970" d="M483.7942,-54.8178C499.3463,-52.9212 516.3708,-50.845 532.2529,-48.9082"/>
<polygon fill="#191970" stroke="#191970" points="483.3165,-51.35 473.8137,-56.0349 484.1639,-58.2985 483.3165,-51.35"/>
</g>
<!-- Node8 -->
<g id="node8" class="node">
<title>Node8</title>
<g id="a_node8"><a xlink:href="../../df/d20/Fun4All__TestBeam__TPC_8C.html#ab5c55528b75bbb40d3cf6df86cfd8ac1" target="_top" xlink:title="Fun4All_TestBeam_TPC">
<polygon fill="none" stroke="#000000" points="363,-6.5 363,-26.5 495,-26.5 495,-6.5 363,-6.5"/>
<text text-anchor="middle" x="429" y="-13.5" font-family="FreeSans" font-size="10.00" fill="#000000">Fun4All_TestBeam_TPC</text>
</a>
</g>
</g>
<!-- Node7&#45;&gt;Node8 -->
<g id="edge7" class="edge">
<title>Node7&#45;&gt;Node8</title>
<path fill="none" stroke="#191970" d="M337.5946,-16.5C346.0134,-16.5 354.5322,-16.5 362.8092,-16.5"/>
<polygon fill="#191970" stroke="#191970" points="337.3981,-13.0001 327.398,-16.5 337.398,-20.0001 337.3981,-13.0001"/>
</g>
</g>
</svg>
