<?xml version="1.0" encoding="UTF-8" standalone="no"?>
<!DOCTYPE svg PUBLIC "-//W3C//DTD SVG 1.1//EN"
 "http://www.w3.org/Graphics/SVG/1.1/DTD/svg11.dtd">
<!-- Generated by graphviz version 2.40.1 (20161225.0304)
 -->
<!-- Title: PHG4ParticleGeneratorVectorMeson::set_rapidity_range Pages: 1 -->
<svg width="376pt" height="389pt"
 viewBox="0.00 0.00 376.00 389.00" xmlns="http://www.w3.org/2000/svg" xmlns:xlink="http://www.w3.org/1999/xlink">
<g id="graph0" class="graph" transform="scale(1 1) rotate(0) translate(4 385)">
<title>PHG4ParticleGeneratorVectorMeson::set_rapidity_range</title>
<!-- Node1 -->
<g id="node1" class="node">
<title>Node1</title>
<polygon fill="#bfbfbf" stroke="#000000" points="0,-186.5 0,-218.5 165,-218.5 165,-186.5 0,-186.5"/>
<text text-anchor="start" x="8" y="-205.5" font-family="FreeSans" font-size="10.00" fill="#000000">PHG4ParticleGeneratorVector</text>
<text text-anchor="middle" x="82.5" y="-193.5" font-family="FreeSans" font-size="10.00" fill="#000000">Meson::set_rapidity_range</text>
</g>
<!-- Node2 -->
<g id="node2" class="node">
<title>Node2</title>
<g id="a_node2"><a xlink:href="../../da/d02/Fun4All__G4__EICDetector_8C.html#afbe82cefa1d1fd031d9a8586b7bb68c6" target="_top" xlink:title="Fun4All_G4_EICDetector">
<polygon fill="none" stroke="#000000" points="215,-360.5 215,-380.5 354,-380.5 354,-360.5 215,-360.5"/>
<text text-anchor="middle" x="284.5" y="-367.5" font-family="FreeSans" font-size="10.00" fill="#000000">Fun4All_G4_EICDetector</text>
</a>
</g>
</g>
<!-- Node1&#45;&gt;Node2 -->
<g id="edge1" class="edge">
<title>Node1&#45;&gt;Node2</title>
<path fill="none" stroke="#191970" d="M95.6654,-228.182C114.3576,-261.9481 151.8509,-320.5948 201,-351.5 206.7894,-355.1404 213.1943,-358.086 219.8065,-360.469"/>
<polygon fill="#191970" stroke="#191970" points="98.5173,-226.097 90.6864,-218.9606 92.3577,-229.4227 98.5173,-226.097"/>
</g>
<!-- Node3 -->
<g id="node3" class="node">
<title>Node3</title>
<g id="a_node3"><a xlink:href="../../dd/d2a/Fun4All__G4__EICDetector__LQ_8C.html#aaa01242fd6e77ca43a9d49a6d46008e4" target="_top" xlink:title="Fun4All_G4_EICDetector_LQ">
<polygon fill="none" stroke="#000000" points="206.5,-321.5 206.5,-341.5 362.5,-341.5 362.5,-321.5 206.5,-321.5"/>
<text text-anchor="middle" x="284.5" y="-328.5" font-family="FreeSans" font-size="10.00" fill="#000000">Fun4All_G4_EICDetector_LQ</text>
</a>
</g>
</g>
<!-- Node1&#45;&gt;Node3 -->
<g id="edge2" class="edge">
<title>Node1&#45;&gt;Node3</title>
<path fill="none" stroke="#191970" d="M101.5527,-226.4729C123.0078,-251.7934 160.2383,-290.9684 201,-312.5 207.8358,-316.1109 215.3397,-319.0388 222.9584,-321.4122"/>
<polygon fill="#191970" stroke="#191970" points="104.2407,-224.2312 95.1566,-218.7787 98.8577,-228.706 104.2407,-224.2312"/>
</g>
<!-- Node4 -->
<g id="node4" class="node">
<title>Node4</title>
<g id="a_node4"><a xlink:href="../../d4/df5/Fun4All__G4__EICDetector__LQ__reference_8C.html#a2feefc472f17f90b3cbe74897d049f75" target="_top" xlink:title="Fun4All_G4_EICDetector\l_LQ_reference">
<polygon fill="none" stroke="#000000" points="215,-270.5 215,-302.5 354,-302.5 354,-270.5 215,-270.5"/>
<text text-anchor="start" x="223" y="-289.5" font-family="FreeSans" font-size="10.00" fill="#000000">Fun4All_G4_EICDetector</text>
<text text-anchor="middle" x="284.5" y="-277.5" font-family="FreeSans" font-size="10.00" fill="#000000">_LQ_reference</text>
</a>
</g>
</g>
<!-- Node1&#45;&gt;Node4 -->
<g id="edge3" class="edge">
<title>Node1&#45;&gt;Node4</title>
<path fill="none" stroke="#191970" d="M120.5936,-223.5518C143.4626,-235.6595 173.3866,-250.5849 201,-261.5 209.0215,-264.6708 217.6105,-267.6689 226.1166,-270.4142"/>
<polygon fill="#191970" stroke="#191970" points="122.0362,-220.3543 111.5673,-218.7256 118.7356,-226.5273 122.0362,-220.3543"/>
</g>
<!-- Node5 -->
<g id="node5" class="node">
<title>Node5</title>
<g id="a_node5"><a xlink:href="../../d3/d51/Fun4All__G4__EICDetector__RICH_8C.html#a5739502b0a7a1ba782c01069f77e933f" target="_top" xlink:title="Fun4All_G4_EICDetector_RICH">
<polygon fill="none" stroke="#000000" points="201,-231.5 201,-251.5 368,-251.5 368,-231.5 201,-231.5"/>
<text text-anchor="middle" x="284.5" y="-238.5" font-family="FreeSans" font-size="10.00" fill="#000000">Fun4All_G4_EICDetector_RICH</text>
</a>
</g>
</g>
<!-- Node1&#45;&gt;Node5 -->
<g id="edge4" class="edge">
<title>Node1&#45;&gt;Node5</title>
<path fill="none" stroke="#191970" d="M175.1833,-220.3943C194.8939,-224.1998 215.0298,-228.0874 232.561,-231.4722"/>
<polygon fill="#191970" stroke="#191970" points="175.7262,-216.9345 165.244,-218.4753 174.3991,-223.8076 175.7262,-216.9345"/>
</g>
<!-- Node6 -->
<g id="node6" class="node">
<title>Node6</title>
<g id="a_node6"><a xlink:href="../../d5/d2c/macros_2blob_2master_2macros_2g4simulations_2Fun4All__G4__sPHENIX_8C.html#a6eaaa492d7023ec86c562dc63aa1e5a4" target="_top" xlink:title="Fun4All_G4_sPHENIX">
<polygon fill="none" stroke="#000000" points="224,-192.5 224,-212.5 345,-212.5 345,-192.5 224,-192.5"/>
<text text-anchor="middle" x="284.5" y="-199.5" font-family="FreeSans" font-size="10.00" fill="#000000">Fun4All_G4_sPHENIX</text>
</a>
</g>
</g>
<!-- Node1&#45;&gt;Node6 -->
<g id="edge5" class="edge">
<title>Node1&#45;&gt;Node6</title>
<path fill="none" stroke="#191970" d="M175.4249,-202.5C191.8608,-202.5 208.5837,-202.5 223.8377,-202.5"/>
<polygon fill="#191970" stroke="#191970" points="175.244,-199.0001 165.244,-202.5 175.2439,-206.0001 175.244,-199.0001"/>
</g>
<!-- Node7 -->
<g id="node7" class="node">
<title>Node7</title>
<g id="a_node7"><a xlink:href="../../da/dd0/Fun4All__G4__sPHENIX__photonjet_8C.html#a6f18519e216acc05399e562ea57ea77c" target="_top" xlink:title="Fun4All_G4_sPHENIX\l_photonjet">
<polygon fill="none" stroke="#000000" points="224,-141.5 224,-173.5 345,-173.5 345,-141.5 224,-141.5"/>
<text text-anchor="start" x="232" y="-160.5" font-family="FreeSans" font-size="10.00" fill="#000000">Fun4All_G4_sPHENIX</text>
<text text-anchor="middle" x="284.5" y="-148.5" font-family="FreeSans" font-size="10.00" fill="#000000">_photonjet</text>
</a>
</g>
</g>
<!-- Node1&#45;&gt;Node7 -->
<g id="edge6" class="edge">
<title>Node1&#45;&gt;Node7</title>
<path fill="none" stroke="#191970" d="M164.5142,-184.2295C184.3331,-179.8144 205.1637,-175.1739 223.8035,-171.0215"/>
<polygon fill="#191970" stroke="#191970" points="163.5708,-180.8538 154.5711,-186.4445 165.0929,-187.6863 163.5708,-180.8538"/>
</g>
<!-- Node8 -->
<g id="node8" class="node">
<title>Node8</title>
<g id="a_node8"><a xlink:href="../../da/d85/Fun4All__G4__sPHENIX__photons_8C.html#a02fbbd59878fe1299f58ed187e7214ba" target="_top" xlink:title="Fun4All_G4_sPHENIX\l_photons">
<polygon fill="none" stroke="#000000" points="224,-90.5 224,-122.5 345,-122.5 345,-90.5 224,-90.5"/>
<text text-anchor="start" x="232" y="-109.5" font-family="FreeSans" font-size="10.00" fill="#000000">Fun4All_G4_sPHENIX</text>
<text text-anchor="middle" x="284.5" y="-97.5" font-family="FreeSans" font-size="10.00" fill="#000000">_photons</text>
</a>
</g>
</g>
<!-- Node1&#45;&gt;Node8 -->
<g id="edge7" class="edge">
<title>Node1&#45;&gt;Node8</title>
<path fill="none" stroke="#191970" d="M114.5582,-180.7992C137.8034,-165.7619 170.4021,-146.0804 201,-132.5 209.1878,-128.866 218.0367,-125.526 226.807,-122.5376"/>
<polygon fill="#191970" stroke="#191970" points="112.5829,-177.9089 106.1309,-186.3125 116.4153,-183.7667 112.5829,-177.9089"/>
</g>
<!-- Node9 -->
<g id="node9" class="node">
<title>Node9</title>
<g id="a_node9"><a xlink:href="../../de/d55/Fun4All__G4__sPHENIX__truthphotonjet_8C.html#a48a6f4503eaa1b3793d8ae572aa795b9" target="_top" xlink:title="Fun4All_G4_sPHENIX\l_truthphotonjet">
<polygon fill="none" stroke="#000000" points="224,-39.5 224,-71.5 345,-71.5 345,-39.5 224,-39.5"/>
<text text-anchor="start" x="232" y="-58.5" font-family="FreeSans" font-size="10.00" fill="#000000">Fun4All_G4_sPHENIX</text>
<text text-anchor="middle" x="284.5" y="-46.5" font-family="FreeSans" font-size="10.00" fill="#000000">_truthphotonjet</text>
</a>
</g>
</g>
<!-- Node1&#45;&gt;Node9 -->
<g id="edge8" class="edge">
<title>Node1&#45;&gt;Node9</title>
<path fill="none" stroke="#191970" d="M100.3446,-178.0509C121.4746,-150.7691 159.1256,-107.1071 201,-81.5 207.9946,-77.2226 215.7537,-73.5929 223.6435,-70.5279"/>
<polygon fill="#191970" stroke="#191970" points="97.347,-176.2107 94.0803,-186.2894 102.9191,-180.4476 97.347,-176.2107"/>
</g>
<!-- Node10 -->
<g id="node10" class="node">
<title>Node10</title>
<g id="a_node10"><a xlink:href="../../d4/dfa/Fun4All__Generator__Display_8C.html#af87924a94b22e18901f0d64805565f09" target="_top" xlink:title="Fun4All_Generator_Display">
<polygon fill="none" stroke="#000000" points="208.5,-.5 208.5,-20.5 360.5,-20.5 360.5,-.5 208.5,-.5"/>
<text text-anchor="middle" x="284.5" y="-7.5" font-family="FreeSans" font-size="10.00" fill="#000000">Fun4All_Generator_Display</text>
</a>
</g>
</g>
<!-- Node1&#45;&gt;Node10 -->
<g id="edge9" class="edge">
<title>Node1&#45;&gt;Node10</title>
<path fill="none" stroke="#191970" d="M92.9057,-176.9002C109.7426,-138.8297 146.6517,-67.7861 201,-30.5 206.9001,-26.4522 213.5232,-23.2192 220.3908,-20.6377"/>
<polygon fill="#191970" stroke="#191970" points="89.6121,-175.6997 88.8747,-186.2688 96.0422,-178.4664 89.6121,-175.6997"/>
</g>
</g>
</svg>
