<?xml version="1.0" encoding="UTF-8" standalone="no"?>
<!DOCTYPE svg PUBLIC "-//W3C//DTD SVG 1.1//EN"
 "http://www.w3.org/Graphics/SVG/1.1/DTD/svg11.dtd">
<!-- Generated by graphviz version 2.40.1 (20161225.0304)
 -->
<!-- Title: PHGeomUtility::GenerateGeometryFileName Pages: 1 -->
<svg width="696pt" height="185pt"
 viewBox="0.00 0.00 696.00 185.00" xmlns="http://www.w3.org/2000/svg" xmlns:xlink="http://www.w3.org/1999/xlink">
<g id="graph0" class="graph" transform="scale(1 1) rotate(0) translate(4 181)">
<title>PHGeomUtility::GenerateGeometryFileName</title>
<!-- Node1 -->
<g id="node1" class="node">
<title>Node1</title>
<polygon fill="#bfbfbf" stroke="#000000" points="0,-72.5 0,-104.5 194,-104.5 194,-72.5 0,-72.5"/>
<text text-anchor="start" x="8" y="-91.5" font-family="FreeSans" font-size="10.00" fill="#000000">PHGeomUtility::GenerateGeometry</text>
<text text-anchor="middle" x="97" y="-79.5" font-family="FreeSans" font-size="10.00" fill="#000000">FileName</text>
</g>
<!-- Node2 -->
<g id="node2" class="node">
<title>Node2</title>
<g id="a_node2"><a xlink:href="../../d0/d78/classPHG4Reco.html#a9d8228ce8682c19cd6be2f6b44ec847b" target="_top" xlink:title="PHG4Reco::InitRun">
<polygon fill="none" stroke="#000000" points="230,-78.5 230,-98.5 340,-98.5 340,-78.5 230,-78.5"/>
<text text-anchor="middle" x="285" y="-85.5" font-family="FreeSans" font-size="10.00" fill="#000000">PHG4Reco::InitRun</text>
</a>
</g>
</g>
<!-- Node1&#45;&gt;Node2 -->
<g id="edge1" class="edge">
<title>Node1&#45;&gt;Node2</title>
<path fill="none" stroke="#191970" d="M204.2969,-88.5C212.9987,-88.5 221.5454,-88.5 229.6304,-88.5"/>
<polygon fill="#191970" stroke="#191970" points="204.0289,-85.0001 194.0288,-88.5 204.0288,-92.0001 204.0289,-85.0001"/>
</g>
<!-- Node3 -->
<g id="node3" class="node">
<title>Node3</title>
<g id="a_node3"><a xlink:href="../../db/d89/ConstructGeometry_8C.html#a21c369835643f1016f506a3da3b8d446" target="_top" xlink:title="ConstructGeometry">
<polygon fill="none" stroke="#000000" points="394.5,-156.5 394.5,-176.5 509.5,-176.5 509.5,-156.5 394.5,-156.5"/>
<text text-anchor="middle" x="452" y="-163.5" font-family="FreeSans" font-size="10.00" fill="#000000">ConstructGeometry</text>
</a>
</g>
</g>
<!-- Node2&#45;&gt;Node3 -->
<g id="edge2" class="edge">
<title>Node2&#45;&gt;Node3</title>
<path fill="none" stroke="#191970" d="M305.9107,-104.937C323.6571,-118.1572 350.2676,-136.3129 376,-147.5 384.1073,-151.0246 392.9972,-153.9843 401.7497,-156.4387"/>
<polygon fill="#191970" stroke="#191970" points="307.5694,-101.8014 297.4901,-98.5366 303.3335,-107.3743 307.5694,-101.8014"/>
</g>
<!-- Node4 -->
<g id="node4" class="node">
<title>Node4</title>
<g id="a_node4"><a xlink:href="../../dd/d76/macros_2blob_2master_2macros_2g4simulations_2DisplayOn_8C.html#a8ac4d6fb78f920957b354f88d6195f54" target="_top" xlink:title="DisplayOn">
<polygon fill="none" stroke="#000000" points="418,-117.5 418,-137.5 486,-137.5 486,-117.5 418,-117.5"/>
<text text-anchor="middle" x="452" y="-124.5" font-family="FreeSans" font-size="10.00" fill="#000000">DisplayOn</text>
</a>
</g>
</g>
<!-- Node2&#45;&gt;Node4 -->
<g id="edge3" class="edge">
<title>Node2&#45;&gt;Node4</title>
<path fill="none" stroke="#191970" d="M337.7794,-100.8257C363.9436,-106.9359 394.784,-114.1382 417.8194,-119.5177"/>
<polygon fill="#191970" stroke="#191970" points="338.5406,-97.4094 328.0066,-98.5435 336.9487,-104.226 338.5406,-97.4094"/>
</g>
<!-- Node7 -->
<g id="node7" class="node">
<title>Node7</title>
<g id="a_node7"><a xlink:href="../../d4/dfa/Fun4All__Generator__Display_8C.html#af87924a94b22e18901f0d64805565f09" target="_top" xlink:title="Fun4All_Generator_Display">
<polygon fill="none" stroke="#000000" points="376,-78.5 376,-98.5 528,-98.5 528,-78.5 376,-78.5"/>
<text text-anchor="middle" x="452" y="-85.5" font-family="FreeSans" font-size="10.00" fill="#000000">Fun4All_Generator_Display</text>
</a>
</g>
</g>
<!-- Node2&#45;&gt;Node7 -->
<g id="edge6" class="edge">
<title>Node2&#45;&gt;Node7</title>
<path fill="none" stroke="#191970" d="M350.2079,-88.5C358.5826,-88.5 367.2155,-88.5 375.7467,-88.5"/>
<polygon fill="#191970" stroke="#191970" points="350.1449,-85.0001 340.1449,-88.5 350.1448,-92.0001 350.1449,-85.0001"/>
</g>
<!-- Node8 -->
<g id="node8" class="node">
<title>Node8</title>
<g id="a_node8"><a xlink:href="../../d9/d1d/matscan_8C.html#a98ccbc6135fead542f3c4d1dd6882d63" target="_top" xlink:title="matscan">
<polygon fill="none" stroke="#000000" points="422.5,-39.5 422.5,-59.5 481.5,-59.5 481.5,-39.5 422.5,-39.5"/>
<text text-anchor="middle" x="452" y="-46.5" font-family="FreeSans" font-size="10.00" fill="#000000">matscan</text>
</a>
</g>
</g>
<!-- Node2&#45;&gt;Node8 -->
<g id="edge7" class="edge">
<title>Node2&#45;&gt;Node8</title>
<path fill="none" stroke="#191970" d="M338.0032,-76.122C365.8568,-69.6173 398.959,-61.8868 422.2971,-56.4366"/>
<polygon fill="#191970" stroke="#191970" points="336.9487,-72.774 328.0066,-78.4565 338.5406,-79.5906 336.9487,-72.774"/>
</g>
<!-- Node9 -->
<g id="node9" class="node">
<title>Node9</title>
<g id="a_node9"><a xlink:href="../../dd/d76/macros_2blob_2master_2macros_2g4simulations_2DisplayOn_8C.html#a36f5cc4ebb7cd23dac7e492d5c38fbc0" target="_top" xlink:title="QTGui">
<polygon fill="none" stroke="#000000" points="428.5,-.5 428.5,-20.5 475.5,-20.5 475.5,-.5 428.5,-.5"/>
<text text-anchor="middle" x="452" y="-7.5" font-family="FreeSans" font-size="10.00" fill="#000000">QTGui</text>
</a>
</g>
</g>
<!-- Node2&#45;&gt;Node9 -->
<g id="edge8" class="edge">
<title>Node2&#45;&gt;Node9</title>
<path fill="none" stroke="#191970" d="M306.2972,-72.2201C324.09,-59.3028 350.5675,-41.6258 376,-30.5 392.8749,-23.1178 413.087,-17.9597 428.4238,-14.7329"/>
<polygon fill="#191970" stroke="#191970" points="303.7925,-69.7195 297.8359,-78.4813 307.9564,-75.3464 303.7925,-69.7195"/>
</g>
<!-- Node5 -->
<g id="node5" class="node">
<title>Node5</title>
<g id="a_node5"><a xlink:href="../../d7/d9e/Fun4All__G4__fsPHENIX_8C.html#af48911d394d2412e817583700f2bbee2" target="_top" xlink:title="Fun4All_G4_fsPHENIX">
<polygon fill="none" stroke="#000000" points="564,-136.5 564,-156.5 688,-156.5 688,-136.5 564,-136.5"/>
<text text-anchor="middle" x="626" y="-143.5" font-family="FreeSans" font-size="10.00" fill="#000000">Fun4All_G4_fsPHENIX</text>
</a>
</g>
</g>
<!-- Node4&#45;&gt;Node5 -->
<g id="edge4" class="edge">
<title>Node4&#45;&gt;Node5</title>
<path fill="none" stroke="#191970" d="M496.3757,-132.3456C516.8742,-134.584 541.5657,-137.2802 563.8748,-139.7162"/>
<polygon fill="#191970" stroke="#191970" points="496.6977,-128.8601 486.3768,-131.2538 495.9378,-135.8187 496.6977,-128.8601"/>
</g>
<!-- Node6 -->
<g id="node6" class="node">
<title>Node6</title>
<g id="a_node6"><a xlink:href="../../d5/d2c/macros_2blob_2master_2macros_2g4simulations_2Fun4All__G4__sPHENIX_8C.html#a6eaaa492d7023ec86c562dc63aa1e5a4" target="_top" xlink:title="Fun4All_G4_sPHENIX">
<polygon fill="none" stroke="#000000" points="565.5,-97.5 565.5,-117.5 686.5,-117.5 686.5,-97.5 565.5,-97.5"/>
<text text-anchor="middle" x="626" y="-104.5" font-family="FreeSans" font-size="10.00" fill="#000000">Fun4All_G4_sPHENIX</text>
</a>
</g>
</g>
<!-- Node4&#45;&gt;Node6 -->
<g id="edge5" class="edge">
<title>Node4&#45;&gt;Node6</title>
<path fill="none" stroke="#191970" d="M496.5622,-122.3779C517.4542,-119.9765 542.6703,-117.0781 565.2749,-114.4799"/>
<polygon fill="#191970" stroke="#191970" points="495.9117,-118.9295 486.3768,-123.5486 496.7111,-125.8838 495.9117,-118.9295"/>
</g>
</g>
</svg>
