<?xml version="1.0" encoding="UTF-8" standalone="no"?>
<!DOCTYPE svg PUBLIC "-//W3C//DTD SVG 1.1//EN"
 "http://www.w3.org/Graphics/SVG/1.1/DTD/svg11.dtd">
<!-- Generated by graphviz version 2.40.1 (20161225.0304)
 -->
<!-- Title: PHGenFitTrkProp::set_max_search_win_phi_intt Pages: 1 -->
<svg width="462pt" height="146pt"
 viewBox="0.00 0.00 462.00 146.00" xmlns="http://www.w3.org/2000/svg" xmlns:xlink="http://www.w3.org/1999/xlink">
<g id="graph0" class="graph" transform="scale(1 1) rotate(0) translate(4 142)">
<title>PHGenFitTrkProp::set_max_search_win_phi_intt</title>
<!-- Node1 -->
<g id="node1" class="node">
<title>Node1</title>
<polygon fill="#bfbfbf" stroke="#000000" points="0,-52.5 0,-84.5 149,-84.5 149,-52.5 0,-52.5"/>
<text text-anchor="start" x="8" y="-71.5" font-family="FreeSans" font-size="10.00" fill="#000000">PHGenFitTrkProp::set</text>
<text text-anchor="middle" x="74.5" y="-59.5" font-family="FreeSans" font-size="10.00" fill="#000000">_max_search_win_phi_intt</text>
</g>
<!-- Node2 -->
<g id="node2" class="node">
<title>Node2</title>
<g id="a_node2"><a xlink:href="../../da/d3c/G4__Tracking_8C.html#acf2552f0af55b070654c44d9cb8fdbc4" target="_top" xlink:title="Tracking_Reco">
<polygon fill="none" stroke="#000000" points="185,-58.5 185,-78.5 274,-78.5 274,-58.5 185,-58.5"/>
<text text-anchor="middle" x="229.5" y="-65.5" font-family="FreeSans" font-size="10.00" fill="#000000">Tracking_Reco</text>
</a>
</g>
</g>
<!-- Node1&#45;&gt;Node2 -->
<g id="edge1" class="edge">
<title>Node1&#45;&gt;Node2</title>
<path fill="none" stroke="#191970" d="M159.4604,-68.5C168.1095,-68.5 176.6334,-68.5 184.596,-68.5"/>
<polygon fill="#191970" stroke="#191970" points="159.2759,-65.0001 149.2759,-68.5 159.2759,-72.0001 159.2759,-65.0001"/>
</g>
<!-- Node3 -->
<g id="node3" class="node">
<title>Node3</title>
<g id="a_node3"><a xlink:href="../../da/d02/Fun4All__G4__EICDetector_8C.html#afbe82cefa1d1fd031d9a8586b7bb68c6" target="_top" xlink:title="Fun4All_G4_EICDetector">
<polygon fill="none" stroke="#000000" points="312.5,-117.5 312.5,-137.5 451.5,-137.5 451.5,-117.5 312.5,-117.5"/>
<text text-anchor="middle" x="382" y="-124.5" font-family="FreeSans" font-size="10.00" fill="#000000">Fun4All_G4_EICDetector</text>
</a>
</g>
</g>
<!-- Node2&#45;&gt;Node3 -->
<g id="edge2" class="edge">
<title>Node2&#45;&gt;Node3</title>
<path fill="none" stroke="#191970" d="M256.1975,-83.4792C271.5846,-91.6732 291.4914,-101.5421 310,-108.5 318.9548,-111.8664 328.7487,-114.8741 338.1484,-117.4493"/>
<polygon fill="#191970" stroke="#191970" points="257.7138,-80.3201 247.2539,-78.6348 254.3798,-86.4752 257.7138,-80.3201"/>
</g>
<!-- Node4 -->
<g id="node4" class="node">
<title>Node4</title>
<g id="a_node4"><a xlink:href="../../d7/d9e/Fun4All__G4__fsPHENIX_8C.html#af48911d394d2412e817583700f2bbee2" target="_top" xlink:title="Fun4All_G4_fsPHENIX">
<polygon fill="none" stroke="#000000" points="320,-78.5 320,-98.5 444,-98.5 444,-78.5 320,-78.5"/>
<text text-anchor="middle" x="382" y="-85.5" font-family="FreeSans" font-size="10.00" fill="#000000">Fun4All_G4_fsPHENIX</text>
</a>
</g>
</g>
<!-- Node2&#45;&gt;Node4 -->
<g id="edge3" class="edge">
<title>Node2&#45;&gt;Node4</title>
<path fill="none" stroke="#191970" d="M284.0092,-75.6487C295.6268,-77.1724 307.9791,-78.7923 319.8582,-80.3502"/>
<polygon fill="#191970" stroke="#191970" points="284.3895,-72.1687 274.0193,-74.3386 283.4792,-79.1093 284.3895,-72.1687"/>
</g>
<!-- Node5 -->
<g id="node5" class="node">
<title>Node5</title>
<g id="a_node5"><a xlink:href="../../d5/d2c/macros_2blob_2master_2macros_2g4simulations_2Fun4All__G4__sPHENIX_8C.html#a6eaaa492d7023ec86c562dc63aa1e5a4" target="_top" xlink:title="Fun4All_G4_sPHENIX">
<polygon fill="none" stroke="#000000" points="321.5,-39.5 321.5,-59.5 442.5,-59.5 442.5,-39.5 321.5,-39.5"/>
<text text-anchor="middle" x="382" y="-46.5" font-family="FreeSans" font-size="10.00" fill="#000000">Fun4All_G4_sPHENIX</text>
</a>
</g>
</g>
<!-- Node2&#45;&gt;Node5 -->
<g id="edge4" class="edge">
<title>Node2&#45;&gt;Node5</title>
<path fill="none" stroke="#191970" d="M283.9595,-61.7149C296.0522,-60.2082 308.9432,-58.6022 321.2692,-57.0665"/>
<polygon fill="#191970" stroke="#191970" points="283.5098,-58.2438 274.0193,-62.9533 284.3753,-65.1901 283.5098,-58.2438"/>
</g>
<!-- Node6 -->
<g id="node6" class="node">
<title>Node6</title>
<g id="a_node6"><a xlink:href="../../de/da9/ReadClustersRunTracking_8C.html#ae0216e7ee610ee6cb8ebc2392d00431b" target="_top" xlink:title="ReadClustersRunTracking">
<polygon fill="none" stroke="#000000" points="310,-.5 310,-20.5 454,-20.5 454,-.5 310,-.5"/>
<text text-anchor="middle" x="382" y="-7.5" font-family="FreeSans" font-size="10.00" fill="#000000">ReadClustersRunTracking</text>
</a>
</g>
</g>
<!-- Node2&#45;&gt;Node6 -->
<g id="edge5" class="edge">
<title>Node2&#45;&gt;Node6</title>
<path fill="none" stroke="#191970" d="M257.9675,-53.6084C273.1457,-46.0427 292.2948,-37.0834 310,-30.5 319.9711,-26.7924 330.9417,-23.408 341.2484,-20.5201"/>
<polygon fill="#191970" stroke="#191970" points="255.9627,-50.7004 248.6218,-58.3399 259.1245,-56.9456 255.9627,-50.7004"/>
</g>
</g>
</svg>
