<?xml version="1.0" encoding="UTF-8" standalone="no"?>
<!DOCTYPE svg PUBLIC "-//W3C//DTD SVG 1.1//EN"
 "http://www.w3.org/Graphics/SVG/1.1/DTD/svg11.dtd">
<!-- Generated by graphviz version 2.40.1 (20161225.0304)
 -->
<!-- Title: SvtxEvaluator::do_hit_eval Pages: 1 -->
<svg width="513pt" height="185pt"
 viewBox="0.00 0.00 513.00 185.00" xmlns="http://www.w3.org/2000/svg" xmlns:xlink="http://www.w3.org/1999/xlink">
<g id="graph0" class="graph" transform="scale(1 1) rotate(0) translate(4 181)">
<title>SvtxEvaluator::do_hit_eval</title>
<!-- Node1 -->
<g id="node1" class="node">
<title>Node1</title>
<polygon fill="#bfbfbf" stroke="#000000" points="0,-97.5 0,-117.5 150,-117.5 150,-97.5 0,-97.5"/>
<text text-anchor="middle" x="75" y="-104.5" font-family="FreeSans" font-size="10.00" fill="#000000">SvtxEvaluator::do_hit_eval</text>
</g>
<!-- Node2 -->
<g id="node2" class="node">
<title>Node2</title>
<g id="a_node2"><a xlink:href="../../db/da1/Fun4All__G4__TPC_8C.html#af60bcd3cf09ebd567e28ede14e9e894a" target="_top" xlink:title="Fun4All_G4_TPC">
<polygon fill="none" stroke="#000000" points="209.5,-156.5 209.5,-176.5 306.5,-176.5 306.5,-156.5 209.5,-156.5"/>
<text text-anchor="middle" x="258" y="-163.5" font-family="FreeSans" font-size="10.00" fill="#000000">Fun4All_G4_TPC</text>
</a>
</g>
</g>
<!-- Node1&#45;&gt;Node2 -->
<g id="edge1" class="edge">
<title>Node1&#45;&gt;Node2</title>
<path fill="none" stroke="#191970" d="M110.2515,-121.0997C131.9382,-129.2417 160.3907,-139.5236 186,-147.5 196.1213,-150.6524 207.1459,-153.7347 217.4566,-156.4684"/>
<polygon fill="#191970" stroke="#191970" points="111.3895,-117.7882 100.798,-117.5253 108.9139,-124.3358 111.3895,-117.7882"/>
</g>
<!-- Node3 -->
<g id="node3" class="node">
<title>Node3</title>
<g id="a_node3"><a xlink:href="../../de/da9/ReadClustersRunTracking_8C.html#ae0216e7ee610ee6cb8ebc2392d00431b" target="_top" xlink:title="ReadClustersRunTracking">
<polygon fill="none" stroke="#000000" points="186,-117.5 186,-137.5 330,-137.5 330,-117.5 186,-117.5"/>
<text text-anchor="middle" x="258" y="-124.5" font-family="FreeSans" font-size="10.00" fill="#000000">ReadClustersRunTracking</text>
</a>
</g>
</g>
<!-- Node1&#45;&gt;Node3 -->
<g id="edge2" class="edge">
<title>Node1&#45;&gt;Node3</title>
<path fill="none" stroke="#191970" d="M160.1932,-116.8107C168.7283,-117.7435 177.337,-118.6844 185.7203,-119.6006"/>
<polygon fill="#191970" stroke="#191970" points="160.5464,-113.3286 150.2253,-115.7213 159.7858,-120.2871 160.5464,-113.3286"/>
</g>
<!-- Node4 -->
<g id="node4" class="node">
<title>Node4</title>
<g id="a_node4"><a xlink:href="../../d7/dcb/EICAnalysis_2macros_2leptoquarks__fun4all_2G4__Svtx__maps__ladders_09intt__ladders_09tpc__KalmanPatRec_8C.html#af93f6850777e71daff8d24886c227efc" target="_top" xlink:title="Svtx_Eval">
<polygon fill="none" stroke="#000000" points="225.5,-78.5 225.5,-98.5 290.5,-98.5 290.5,-78.5 225.5,-78.5"/>
<text text-anchor="middle" x="258" y="-85.5" font-family="FreeSans" font-size="10.00" fill="#000000">Svtx_Eval</text>
</a>
</g>
</g>
<!-- Node1&#45;&gt;Node4 -->
<g id="edge3" class="edge">
<title>Node1&#45;&gt;Node4</title>
<path fill="none" stroke="#191970" d="M160.4388,-98.6293C183.5649,-96.2282 207.2097,-93.7733 225.4291,-91.8817"/>
<polygon fill="#191970" stroke="#191970" points="159.8104,-95.1756 150.2253,-99.6897 160.5333,-102.1382 159.8104,-95.1756"/>
</g>
<!-- Node5 -->
<g id="node5" class="node">
<title>Node5</title>
<g id="a_node5"><a xlink:href="../../da/d3c/G4__Tracking_8C.html#ae9df33fc97bec89b2ab88ec6ea2b8ef6" target="_top" xlink:title="Tracking_Eval">
<polygon fill="none" stroke="#000000" points="215,-39.5 215,-59.5 301,-59.5 301,-39.5 215,-39.5"/>
<text text-anchor="middle" x="258" y="-46.5" font-family="FreeSans" font-size="10.00" fill="#000000">Tracking_Eval</text>
</a>
</g>
</g>
<!-- Node1&#45;&gt;Node5 -->
<g id="edge4" class="edge">
<title>Node1&#45;&gt;Node5</title>
<path fill="none" stroke="#191970" d="M112.8151,-93.9366C134.195,-86.4239 161.4769,-77.0964 186,-69.5 197.0292,-66.0835 209.0919,-62.6253 220.1365,-59.5672"/>
<polygon fill="#191970" stroke="#191970" points="111.3993,-90.7247 103.1358,-97.3554 113.7306,-97.3251 111.3993,-90.7247"/>
</g>
<!-- Node6 -->
<g id="node6" class="node">
<title>Node6</title>
<g id="a_node6"><a xlink:href="../../da/d02/Fun4All__G4__EICDetector_8C.html#afbe82cefa1d1fd031d9a8586b7bb68c6" target="_top" xlink:title="Fun4All_G4_EICDetector">
<polygon fill="none" stroke="#000000" points="366,-78.5 366,-98.5 505,-98.5 505,-78.5 366,-78.5"/>
<text text-anchor="middle" x="435.5" y="-85.5" font-family="FreeSans" font-size="10.00" fill="#000000">Fun4All_G4_EICDetector</text>
</a>
</g>
</g>
<!-- Node5&#45;&gt;Node6 -->
<g id="edge5" class="edge">
<title>Node5&#45;&gt;Node6</title>
<path fill="none" stroke="#191970" d="M311.4581,-61.2457C336.4162,-66.7295 365.8225,-73.1906 389.738,-78.4452"/>
<polygon fill="#191970" stroke="#191970" points="311.9395,-57.7681 301.4214,-59.0405 310.4373,-64.605 311.9395,-57.7681"/>
</g>
<!-- Node7 -->
<g id="node7" class="node">
<title>Node7</title>
<g id="a_node7"><a xlink:href="../../d7/d9e/Fun4All__G4__fsPHENIX_8C.html#af48911d394d2412e817583700f2bbee2" target="_top" xlink:title="Fun4All_G4_fsPHENIX">
<polygon fill="none" stroke="#000000" points="373.5,-39.5 373.5,-59.5 497.5,-59.5 497.5,-39.5 373.5,-39.5"/>
<text text-anchor="middle" x="435.5" y="-46.5" font-family="FreeSans" font-size="10.00" fill="#000000">Fun4All_G4_fsPHENIX</text>
</a>
</g>
</g>
<!-- Node5&#45;&gt;Node7 -->
<g id="edge6" class="edge">
<title>Node5&#45;&gt;Node7</title>
<path fill="none" stroke="#191970" d="M311.6341,-49.5C331.1098,-49.5 353.2754,-49.5 373.4201,-49.5"/>
<polygon fill="#191970" stroke="#191970" points="311.4214,-46.0001 301.4214,-49.5 311.4214,-53.0001 311.4214,-46.0001"/>
</g>
<!-- Node8 -->
<g id="node8" class="node">
<title>Node8</title>
<g id="a_node8"><a xlink:href="../../d5/d2c/macros_2blob_2master_2macros_2g4simulations_2Fun4All__G4__sPHENIX_8C.html#a6eaaa492d7023ec86c562dc63aa1e5a4" target="_top" xlink:title="Fun4All_G4_sPHENIX">
<polygon fill="none" stroke="#000000" points="375,-.5 375,-20.5 496,-20.5 496,-.5 375,-.5"/>
<text text-anchor="middle" x="435.5" y="-7.5" font-family="FreeSans" font-size="10.00" fill="#000000">Fun4All_G4_sPHENIX</text>
</a>
</g>
</g>
<!-- Node5&#45;&gt;Node8 -->
<g id="edge7" class="edge">
<title>Node5&#45;&gt;Node8</title>
<path fill="none" stroke="#191970" d="M311.4581,-37.7543C336.4162,-32.2705 365.8225,-25.8094 389.738,-20.5548"/>
<polygon fill="#191970" stroke="#191970" points="310.4373,-34.395 301.4214,-39.9595 311.9395,-41.2319 310.4373,-34.395"/>
</g>
</g>
</svg>
