<?xml version="1.0" encoding="UTF-8" standalone="no"?>
<!DOCTYPE svg PUBLIC "-//W3C//DTD SVG 1.1//EN"
 "http://www.w3.org/Graphics/SVG/1.1/DTD/svg11.dtd">
<!-- Generated by graphviz version 2.40.1 (20161225.0304)
 -->
<!-- Title: SvtxEvaluator::do_eval_light Pages: 1 -->
<svg width="495pt" height="146pt"
 viewBox="0.00 0.00 495.00 146.00" xmlns="http://www.w3.org/2000/svg" xmlns:xlink="http://www.w3.org/1999/xlink">
<g id="graph0" class="graph" transform="scale(1 1) rotate(0) translate(4 142)">
<title>SvtxEvaluator::do_eval_light</title>
<!-- Node1 -->
<g id="node1" class="node">
<title>Node1</title>
<polygon fill="#bfbfbf" stroke="#000000" points="0,-72.5 0,-104.5 132,-104.5 132,-72.5 0,-72.5"/>
<text text-anchor="start" x="8" y="-91.5" font-family="FreeSans" font-size="10.00" fill="#000000">SvtxEvaluator::do_eval</text>
<text text-anchor="middle" x="66" y="-79.5" font-family="FreeSans" font-size="10.00" fill="#000000">_light</text>
</g>
<!-- Node2 -->
<g id="node2" class="node">
<title>Node2</title>
<g id="a_node2"><a xlink:href="../../db/da1/Fun4All__G4__TPC_8C.html#af60bcd3cf09ebd567e28ede14e9e894a" target="_top" xlink:title="Fun4All_G4_TPC">
<polygon fill="none" stroke="#000000" points="191.5,-117.5 191.5,-137.5 288.5,-137.5 288.5,-117.5 191.5,-117.5"/>
<text text-anchor="middle" x="240" y="-124.5" font-family="FreeSans" font-size="10.00" fill="#000000">Fun4All_G4_TPC</text>
</a>
</g>
</g>
<!-- Node1&#45;&gt;Node2 -->
<g id="edge1" class="edge">
<title>Node1&#45;&gt;Node2</title>
<path fill="none" stroke="#191970" d="M142.2428,-105.5889C160.3319,-109.6434 179.0512,-113.8391 195.2075,-117.4603"/>
<polygon fill="#191970" stroke="#191970" points="142.8017,-102.1274 132.2783,-103.3555 141.2707,-108.9579 142.8017,-102.1274"/>
</g>
<!-- Node3 -->
<g id="node3" class="node">
<title>Node3</title>
<g id="a_node3"><a xlink:href="../../de/da9/ReadClustersRunTracking_8C.html#ae0216e7ee610ee6cb8ebc2392d00431b" target="_top" xlink:title="ReadClustersRunTracking">
<polygon fill="none" stroke="#000000" points="168,-78.5 168,-98.5 312,-98.5 312,-78.5 168,-78.5"/>
<text text-anchor="middle" x="240" y="-85.5" font-family="FreeSans" font-size="10.00" fill="#000000">ReadClustersRunTracking</text>
</a>
</g>
</g>
<!-- Node1&#45;&gt;Node3 -->
<g id="edge2" class="edge">
<title>Node1&#45;&gt;Node3</title>
<path fill="none" stroke="#191970" d="M142.4653,-88.5C150.889,-88.5 159.4464,-88.5 167.8153,-88.5"/>
<polygon fill="#191970" stroke="#191970" points="142.2783,-85.0001 132.2783,-88.5 142.2783,-92.0001 142.2783,-85.0001"/>
</g>
<!-- Node4 -->
<g id="node4" class="node">
<title>Node4</title>
<g id="a_node4"><a xlink:href="../../da/d3c/G4__Tracking_8C.html#ae9df33fc97bec89b2ab88ec6ea2b8ef6" target="_top" xlink:title="Tracking_Eval">
<polygon fill="none" stroke="#000000" points="197,-39.5 197,-59.5 283,-59.5 283,-39.5 197,-39.5"/>
<text text-anchor="middle" x="240" y="-46.5" font-family="FreeSans" font-size="10.00" fill="#000000">Tracking_Eval</text>
</a>
</g>
</g>
<!-- Node1&#45;&gt;Node4 -->
<g id="edge3" class="edge">
<title>Node1&#45;&gt;Node4</title>
<path fill="none" stroke="#191970" d="M142.26,-71.4072C160.9312,-67.2223 180.2726,-62.8872 196.7731,-59.1888"/>
<polygon fill="#191970" stroke="#191970" points="141.2707,-68.0421 132.2783,-73.6445 142.8017,-74.8726 141.2707,-68.0421"/>
</g>
<!-- Node5 -->
<g id="node5" class="node">
<title>Node5</title>
<g id="a_node5"><a xlink:href="../../da/d02/Fun4All__G4__EICDetector_8C.html#afbe82cefa1d1fd031d9a8586b7bb68c6" target="_top" xlink:title="Fun4All_G4_EICDetector">
<polygon fill="none" stroke="#000000" points="348,-78.5 348,-98.5 487,-98.5 487,-78.5 348,-78.5"/>
<text text-anchor="middle" x="417.5" y="-85.5" font-family="FreeSans" font-size="10.00" fill="#000000">Fun4All_G4_EICDetector</text>
</a>
</g>
</g>
<!-- Node4&#45;&gt;Node5 -->
<g id="edge4" class="edge">
<title>Node4&#45;&gt;Node5</title>
<path fill="none" stroke="#191970" d="M293.4581,-61.2457C318.4162,-66.7295 347.8225,-73.1906 371.738,-78.4452"/>
<polygon fill="#191970" stroke="#191970" points="293.9395,-57.7681 283.4214,-59.0405 292.4373,-64.605 293.9395,-57.7681"/>
</g>
<!-- Node6 -->
<g id="node6" class="node">
<title>Node6</title>
<g id="a_node6"><a xlink:href="../../d7/d9e/Fun4All__G4__fsPHENIX_8C.html#af48911d394d2412e817583700f2bbee2" target="_top" xlink:title="Fun4All_G4_fsPHENIX">
<polygon fill="none" stroke="#000000" points="355.5,-39.5 355.5,-59.5 479.5,-59.5 479.5,-39.5 355.5,-39.5"/>
<text text-anchor="middle" x="417.5" y="-46.5" font-family="FreeSans" font-size="10.00" fill="#000000">Fun4All_G4_fsPHENIX</text>
</a>
</g>
</g>
<!-- Node4&#45;&gt;Node6 -->
<g id="edge5" class="edge">
<title>Node4&#45;&gt;Node6</title>
<path fill="none" stroke="#191970" d="M293.6341,-49.5C313.1098,-49.5 335.2754,-49.5 355.4201,-49.5"/>
<polygon fill="#191970" stroke="#191970" points="293.4214,-46.0001 283.4214,-49.5 293.4214,-53.0001 293.4214,-46.0001"/>
</g>
<!-- Node7 -->
<g id="node7" class="node">
<title>Node7</title>
<g id="a_node7"><a xlink:href="../../d5/d2c/macros_2blob_2master_2macros_2g4simulations_2Fun4All__G4__sPHENIX_8C.html#a6eaaa492d7023ec86c562dc63aa1e5a4" target="_top" xlink:title="Fun4All_G4_sPHENIX">
<polygon fill="none" stroke="#000000" points="357,-.5 357,-20.5 478,-20.5 478,-.5 357,-.5"/>
<text text-anchor="middle" x="417.5" y="-7.5" font-family="FreeSans" font-size="10.00" fill="#000000">Fun4All_G4_sPHENIX</text>
</a>
</g>
</g>
<!-- Node4&#45;&gt;Node7 -->
<g id="edge6" class="edge">
<title>Node4&#45;&gt;Node7</title>
<path fill="none" stroke="#191970" d="M293.4581,-37.7543C318.4162,-32.2705 347.8225,-25.8094 371.738,-20.5548"/>
<polygon fill="#191970" stroke="#191970" points="292.4373,-34.395 283.4214,-39.9595 293.9395,-41.2319 292.4373,-34.395"/>
</g>
</g>
</svg>
