<?xml version="1.0" encoding="UTF-8" standalone="no"?>
<!DOCTYPE svg PUBLIC "-//W3C//DTD SVG 1.1//EN"
 "http://www.w3.org/Graphics/SVG/1.1/DTD/svg11.dtd">
<!-- Generated by graphviz version 2.40.1 (20161225.0304)
 -->
<!-- Title: SvtxEvaluator::do_g4hit_eval Pages: 1 -->
<svg width="526pt" height="185pt"
 viewBox="0.00 0.00 526.00 185.00" xmlns="http://www.w3.org/2000/svg" xmlns:xlink="http://www.w3.org/1999/xlink">
<g id="graph0" class="graph" transform="scale(1 1) rotate(0) translate(4 181)">
<title>SvtxEvaluator::do_g4hit_eval</title>
<!-- Node1 -->
<g id="node1" class="node">
<title>Node1</title>
<polygon fill="#bfbfbf" stroke="#000000" points="0,-97.5 0,-117.5 163,-117.5 163,-97.5 0,-97.5"/>
<text text-anchor="middle" x="81.5" y="-104.5" font-family="FreeSans" font-size="10.00" fill="#000000">SvtxEvaluator::do_g4hit_eval</text>
</g>
<!-- Node2 -->
<g id="node2" class="node">
<title>Node2</title>
<g id="a_node2"><a xlink:href="../../db/da1/Fun4All__G4__TPC_8C.html#af60bcd3cf09ebd567e28ede14e9e894a" target="_top" xlink:title="Fun4All_G4_TPC">
<polygon fill="none" stroke="#000000" points="222.5,-156.5 222.5,-176.5 319.5,-176.5 319.5,-156.5 222.5,-156.5"/>
<text text-anchor="middle" x="271" y="-163.5" font-family="FreeSans" font-size="10.00" fill="#000000">Fun4All_G4_TPC</text>
</a>
</g>
</g>
<!-- Node1&#45;&gt;Node2 -->
<g id="edge1" class="edge">
<title>Node1&#45;&gt;Node2</title>
<path fill="none" stroke="#191970" d="M119.0318,-121.0264C141.9943,-129.1146 172.0438,-139.3659 199,-147.5 209.2727,-150.5998 220.4526,-153.6868 230.8717,-156.4435"/>
<polygon fill="#191970" stroke="#191970" points="119.9309,-117.6319 109.3362,-117.5917 117.5934,-124.2301 119.9309,-117.6319"/>
</g>
<!-- Node3 -->
<g id="node3" class="node">
<title>Node3</title>
<g id="a_node3"><a xlink:href="../../de/da9/ReadClustersRunTracking_8C.html#ae0216e7ee610ee6cb8ebc2392d00431b" target="_top" xlink:title="ReadClustersRunTracking">
<polygon fill="none" stroke="#000000" points="199,-117.5 199,-137.5 343,-137.5 343,-117.5 199,-117.5"/>
<text text-anchor="middle" x="271" y="-124.5" font-family="FreeSans" font-size="10.00" fill="#000000">ReadClustersRunTracking</text>
</a>
</g>
</g>
<!-- Node1&#45;&gt;Node3 -->
<g id="edge2" class="edge">
<title>Node1&#45;&gt;Node3</title>
<path fill="none" stroke="#191970" d="M173.2619,-117.1846C181.8262,-118.0885 190.423,-118.9958 198.7722,-119.877"/>
<polygon fill="#191970" stroke="#191970" points="173.5522,-113.6959 163.24,-116.1269 172.8174,-120.6573 173.5522,-113.6959"/>
</g>
<!-- Node4 -->
<g id="node4" class="node">
<title>Node4</title>
<g id="a_node4"><a xlink:href="../../d7/dcb/EICAnalysis_2macros_2leptoquarks__fun4all_2G4__Svtx__maps__ladders_09intt__ladders_09tpc__KalmanPatRec_8C.html#af93f6850777e71daff8d24886c227efc" target="_top" xlink:title="Svtx_Eval">
<polygon fill="none" stroke="#000000" points="238.5,-78.5 238.5,-98.5 303.5,-98.5 303.5,-78.5 238.5,-78.5"/>
<text text-anchor="middle" x="271" y="-85.5" font-family="FreeSans" font-size="10.00" fill="#000000">Svtx_Eval</text>
</a>
</g>
</g>
<!-- Node1&#45;&gt;Node4 -->
<g id="edge3" class="edge">
<title>Node1&#45;&gt;Node4</title>
<path fill="none" stroke="#191970" d="M173.2051,-98.3053C196.5308,-95.9666 220.1027,-93.6032 238.2586,-91.7828"/>
<polygon fill="#191970" stroke="#191970" points="172.8409,-94.8242 163.24,-99.3044 173.5393,-101.7892 172.8409,-94.8242"/>
</g>
<!-- Node5 -->
<g id="node5" class="node">
<title>Node5</title>
<g id="a_node5"><a xlink:href="../../da/d3c/G4__Tracking_8C.html#ae9df33fc97bec89b2ab88ec6ea2b8ef6" target="_top" xlink:title="Tracking_Eval">
<polygon fill="none" stroke="#000000" points="228,-39.5 228,-59.5 314,-59.5 314,-39.5 228,-39.5"/>
<text text-anchor="middle" x="271" y="-46.5" font-family="FreeSans" font-size="10.00" fill="#000000">Tracking_Eval</text>
</a>
</g>
</g>
<!-- Node1&#45;&gt;Node5 -->
<g id="edge4" class="edge">
<title>Node1&#45;&gt;Node5</title>
<path fill="none" stroke="#191970" d="M120.9777,-94.2773C143.7193,-86.7747 172.8864,-77.3458 199,-69.5 210.1822,-66.1403 222.4008,-62.671 233.5451,-59.5844"/>
<polygon fill="#191970" stroke="#191970" points="119.7275,-91.0043 111.3345,-97.4702 121.9278,-97.6496 119.7275,-91.0043"/>
</g>
<!-- Node6 -->
<g id="node6" class="node">
<title>Node6</title>
<g id="a_node6"><a xlink:href="../../da/d02/Fun4All__G4__EICDetector_8C.html#afbe82cefa1d1fd031d9a8586b7bb68c6" target="_top" xlink:title="Fun4All_G4_EICDetector">
<polygon fill="none" stroke="#000000" points="379,-78.5 379,-98.5 518,-98.5 518,-78.5 379,-78.5"/>
<text text-anchor="middle" x="448.5" y="-85.5" font-family="FreeSans" font-size="10.00" fill="#000000">Fun4All_G4_EICDetector</text>
</a>
</g>
</g>
<!-- Node5&#45;&gt;Node6 -->
<g id="edge5" class="edge">
<title>Node5&#45;&gt;Node6</title>
<path fill="none" stroke="#191970" d="M324.4581,-61.2457C349.4162,-66.7295 378.8225,-73.1906 402.738,-78.4452"/>
<polygon fill="#191970" stroke="#191970" points="324.9395,-57.7681 314.4214,-59.0405 323.4373,-64.605 324.9395,-57.7681"/>
</g>
<!-- Node7 -->
<g id="node7" class="node">
<title>Node7</title>
<g id="a_node7"><a xlink:href="../../d7/d9e/Fun4All__G4__fsPHENIX_8C.html#af48911d394d2412e817583700f2bbee2" target="_top" xlink:title="Fun4All_G4_fsPHENIX">
<polygon fill="none" stroke="#000000" points="386.5,-39.5 386.5,-59.5 510.5,-59.5 510.5,-39.5 386.5,-39.5"/>
<text text-anchor="middle" x="448.5" y="-46.5" font-family="FreeSans" font-size="10.00" fill="#000000">Fun4All_G4_fsPHENIX</text>
</a>
</g>
</g>
<!-- Node5&#45;&gt;Node7 -->
<g id="edge6" class="edge">
<title>Node5&#45;&gt;Node7</title>
<path fill="none" stroke="#191970" d="M324.6341,-49.5C344.1098,-49.5 366.2754,-49.5 386.4201,-49.5"/>
<polygon fill="#191970" stroke="#191970" points="324.4214,-46.0001 314.4214,-49.5 324.4214,-53.0001 324.4214,-46.0001"/>
</g>
<!-- Node8 -->
<g id="node8" class="node">
<title>Node8</title>
<g id="a_node8"><a xlink:href="../../d5/d2c/macros_2blob_2master_2macros_2g4simulations_2Fun4All__G4__sPHENIX_8C.html#a6eaaa492d7023ec86c562dc63aa1e5a4" target="_top" xlink:title="Fun4All_G4_sPHENIX">
<polygon fill="none" stroke="#000000" points="388,-.5 388,-20.5 509,-20.5 509,-.5 388,-.5"/>
<text text-anchor="middle" x="448.5" y="-7.5" font-family="FreeSans" font-size="10.00" fill="#000000">Fun4All_G4_sPHENIX</text>
</a>
</g>
</g>
<!-- Node5&#45;&gt;Node8 -->
<g id="edge7" class="edge">
<title>Node5&#45;&gt;Node8</title>
<path fill="none" stroke="#191970" d="M324.4581,-37.7543C349.4162,-32.2705 378.8225,-25.8094 402.738,-20.5548"/>
<polygon fill="#191970" stroke="#191970" points="323.4373,-34.395 314.4214,-39.9595 324.9395,-41.2319 323.4373,-34.395"/>
</g>
</g>
</svg>
