<?xml version="1.0" encoding="UTF-8" standalone="no"?>
<!DOCTYPE svg PUBLIC "-//W3C//DTD SVG 1.1//EN"
 "http://www.w3.org/Graphics/SVG/1.1/DTD/svg11.dtd">
<!-- Generated by graphviz version 2.40.1 (20161225.0304)
 -->
<!-- Title: PHG4CylinderCellReco::cellsize Pages: 1 -->
<svg width="520pt" height="686pt"
 viewBox="0.00 0.00 520.00 686.00" xmlns="http://www.w3.org/2000/svg" xmlns:xlink="http://www.w3.org/1999/xlink">
<g id="graph0" class="graph" transform="scale(1 1) rotate(0) translate(4 682)">
<title>PHG4CylinderCellReco::cellsize</title>
<!-- Node1 -->
<g id="node1" class="node">
<title>Node1</title>
<polygon fill="#bfbfbf" stroke="#000000" points="0,-314.5 0,-346.5 129,-346.5 129,-314.5 0,-314.5"/>
<text text-anchor="start" x="8" y="-333.5" font-family="FreeSans" font-size="10.00" fill="#000000">PHG4CylinderCellReco</text>
<text text-anchor="middle" x="64.5" y="-321.5" font-family="FreeSans" font-size="10.00" fill="#000000">::cellsize</text>
</g>
<!-- Node2 -->
<g id="node2" class="node">
<title>Node2</title>
<g id="a_node2"><a xlink:href="../../d8/d4c/G4__CEmc__EIC_8C.html#ab555024f512a193bc7b10d42a92453c8" target="_top" xlink:title="CEMC_Cells">
<polygon fill="none" stroke="#000000" points="165,-340.5 165,-360.5 239,-360.5 239,-340.5 165,-340.5"/>
<text text-anchor="middle" x="202" y="-347.5" font-family="FreeSans" font-size="10.00" fill="#000000">CEMC_Cells</text>
</a>
</g>
</g>
<!-- Node1&#45;&gt;Node2 -->
<g id="edge1" class="edge">
<title>Node1&#45;&gt;Node2</title>
<path fill="none" stroke="#191970" d="M139.2865,-341.378C148.1766,-342.6711 156.931,-343.9445 164.949,-345.1108"/>
<polygon fill="#191970" stroke="#191970" points="139.6234,-337.8903 129.2237,-339.9144 138.6158,-344.8174 139.6234,-337.8903"/>
</g>
<!-- Node20 -->
<g id="node20" class="node">
<title>Node20</title>
<g id="a_node20"><a xlink:href="../../da/d2a/G4__Svtx_8C.html#a00bd04a6f4913969f594f34ed348c1f7" target="_top" xlink:title="Svtx_Cells">
<polygon fill="none" stroke="#000000" points="168,-301.5 168,-321.5 236,-321.5 236,-301.5 168,-301.5"/>
<text text-anchor="middle" x="202" y="-308.5" font-family="FreeSans" font-size="10.00" fill="#000000">Svtx_Cells</text>
</a>
</g>
</g>
<!-- Node1&#45;&gt;Node20 -->
<g id="edge19" class="edge">
<title>Node1&#45;&gt;Node20</title>
<path fill="none" stroke="#191970" d="M139.2605,-320.1695C149.2719,-318.7861 159.112,-317.4263 167.9229,-316.2088"/>
<polygon fill="#191970" stroke="#191970" points="138.6505,-316.7204 129.2237,-321.5564 139.6087,-323.6545 138.6505,-316.7204"/>
</g>
<!-- Node3 -->
<g id="node3" class="node">
<title>Node3</title>
<g id="a_node3"><a xlink:href="../../d3/d7f/Fun_8C.html#af0d3c8a78765149fef9b2beeecfc6279" target="_top" xlink:title="ConfigureDetectors">
<polygon fill="none" stroke="#000000" points="301.5,-657.5 301.5,-677.5 415.5,-677.5 415.5,-657.5 301.5,-657.5"/>
<text text-anchor="middle" x="358.5" y="-664.5" font-family="FreeSans" font-size="10.00" fill="#000000">ConfigureDetectors</text>
</a>
</g>
</g>
<!-- Node2&#45;&gt;Node3 -->
<g id="edge2" class="edge">
<title>Node2&#45;&gt;Node3</title>
<path fill="none" stroke="#191970" d="M204.2225,-370.908C211.2396,-431.5712 234.8658,-609.0226 275,-648.5 282.2073,-655.5894 291.4772,-660.2531 301.2054,-663.2796"/>
<polygon fill="#191970" stroke="#191970" points="207.6704,-370.2477 203.0728,-360.7025 200.7144,-371.0315 207.6704,-370.2477"/>
</g>
<!-- Node5 -->
<g id="node5" class="node">
<title>Node5</title>
<g id="a_node5"><a xlink:href="../../da/d02/Fun4All__G4__EICDetector_8C.html#afbe82cefa1d1fd031d9a8586b7bb68c6" target="_top" xlink:title="Fun4All_G4_EICDetector">
<polygon fill="none" stroke="#000000" points="289,-618.5 289,-638.5 428,-638.5 428,-618.5 289,-618.5"/>
<text text-anchor="middle" x="358.5" y="-625.5" font-family="FreeSans" font-size="10.00" fill="#000000">Fun4All_G4_EICDetector</text>
</a>
</g>
</g>
<!-- Node2&#45;&gt;Node5 -->
<g id="edge4" class="edge">
<title>Node2&#45;&gt;Node5</title>
<path fill="none" stroke="#191970" d="M204.9986,-370.7201C213.5529,-425.6926 239.7475,-576.0008 275,-609.5 279.0953,-613.3917 283.8147,-616.5466 288.8825,-619.0978"/>
<polygon fill="#191970" stroke="#191970" points="208.4098,-369.872 203.444,-360.513 201.4896,-370.926 208.4098,-369.872"/>
</g>
<!-- Node6 -->
<g id="node6" class="node">
<title>Node6</title>
<g id="a_node6"><a xlink:href="../../dd/d2a/Fun4All__G4__EICDetector__LQ_8C.html#aaa01242fd6e77ca43a9d49a6d46008e4" target="_top" xlink:title="Fun4All_G4_EICDetector_LQ">
<polygon fill="none" stroke="#000000" points="280.5,-579.5 280.5,-599.5 436.5,-599.5 436.5,-579.5 280.5,-579.5"/>
<text text-anchor="middle" x="358.5" y="-586.5" font-family="FreeSans" font-size="10.00" fill="#000000">Fun4All_G4_EICDetector_LQ</text>
</a>
</g>
</g>
<!-- Node2&#45;&gt;Node6 -->
<g id="edge5" class="edge">
<title>Node2&#45;&gt;Node6</title>
<path fill="none" stroke="#191970" d="M206.035,-370.5559C216.269,-419.4671 244.592,-542.8976 275,-570.5 278.9629,-574.0973 283.4626,-577.0586 288.2695,-579.4916"/>
<polygon fill="#191970" stroke="#191970" points="209.4227,-369.6532 203.9803,-360.5631 202.5661,-371.0631 209.4227,-369.6532"/>
</g>
<!-- Node7 -->
<g id="node7" class="node">
<title>Node7</title>
<g id="a_node7"><a xlink:href="../../d4/df5/Fun4All__G4__EICDetector__LQ__reference_8C.html#a2feefc472f17f90b3cbe74897d049f75" target="_top" xlink:title="Fun4All_G4_EICDetector\l_LQ_reference">
<polygon fill="none" stroke="#000000" points="289,-528.5 289,-560.5 428,-560.5 428,-528.5 289,-528.5"/>
<text text-anchor="start" x="297" y="-547.5" font-family="FreeSans" font-size="10.00" fill="#000000">Fun4All_G4_EICDetector</text>
<text text-anchor="middle" x="358.5" y="-535.5" font-family="FreeSans" font-size="10.00" fill="#000000">_LQ_reference</text>
</a>
</g>
</g>
<!-- Node2&#45;&gt;Node7 -->
<g id="edge6" class="edge">
<title>Node2&#45;&gt;Node7</title>
<path fill="none" stroke="#191970" d="M205.0585,-370.6427C211.4908,-405.9906 229.7485,-479.2491 275,-519.5 279.1835,-523.2212 283.9019,-526.3889 288.9133,-529.0855"/>
<polygon fill="#191970" stroke="#191970" points="208.4775,-369.8685 203.3664,-360.5881 201.5746,-371.0303 208.4775,-369.8685"/>
</g>
<!-- Node8 -->
<g id="node8" class="node">
<title>Node8</title>
<g id="a_node8"><a xlink:href="../../d3/d51/Fun4All__G4__EICDetector__RICH_8C.html#a5739502b0a7a1ba782c01069f77e933f" target="_top" xlink:title="Fun4All_G4_EICDetector_RICH">
<polygon fill="none" stroke="#000000" points="275,-489.5 275,-509.5 442,-509.5 442,-489.5 275,-489.5"/>
<text text-anchor="middle" x="358.5" y="-496.5" font-family="FreeSans" font-size="10.00" fill="#000000">Fun4All_G4_EICDetector_RICH</text>
</a>
</g>
</g>
<!-- Node2&#45;&gt;Node8 -->
<g id="edge7" class="edge">
<title>Node2&#45;&gt;Node8</title>
<path fill="none" stroke="#191970" d="M207.4762,-370.2702C216.5379,-399.1528 237.4842,-452.484 275,-480.5 279.7648,-484.0583 285.0792,-486.9684 290.6551,-489.3462"/>
<polygon fill="#191970" stroke="#191970" points="210.7773,-369.0914 204.5753,-360.5014 204.0669,-371.0841 210.7773,-369.0914"/>
</g>
<!-- Node9 -->
<g id="node9" class="node">
<title>Node9</title>
<g id="a_node9"><a xlink:href="../../d7/d9e/Fun4All__G4__fsPHENIX_8C.html#af48911d394d2412e817583700f2bbee2" target="_top" xlink:title="Fun4All_G4_fsPHENIX">
<polygon fill="none" stroke="#000000" points="296.5,-450.5 296.5,-470.5 420.5,-470.5 420.5,-450.5 296.5,-450.5"/>
<text text-anchor="middle" x="358.5" y="-457.5" font-family="FreeSans" font-size="10.00" fill="#000000">Fun4All_G4_fsPHENIX</text>
</a>
</g>
</g>
<!-- Node2&#45;&gt;Node9 -->
<g id="edge8" class="edge">
<title>Node2&#45;&gt;Node9</title>
<path fill="none" stroke="#191970" d="M212.0225,-369.4877C224.1026,-390.4516 246.3951,-423.597 275,-441.5 281.5532,-445.6015 288.8894,-448.8206 296.42,-451.3467"/>
<polygon fill="#191970" stroke="#191970" points="214.978,-367.6004 207.0669,-360.5531 208.8565,-370.9957 214.978,-367.6004"/>
</g>
<!-- Node10 -->
<g id="node10" class="node">
<title>Node10</title>
<g id="a_node10"><a xlink:href="../../da/d2f/Fun4All__G4__fsPHENIX__FastSim_8C.html#a66fb850cae5fcaadda23b74a25ce4c9c" target="_top" xlink:title="Fun4All_G4_fsPHENIX\l_FastSim">
<polygon fill="none" stroke="#000000" points="296.5,-399.5 296.5,-431.5 420.5,-431.5 420.5,-399.5 296.5,-399.5"/>
<text text-anchor="start" x="304.5" y="-418.5" font-family="FreeSans" font-size="10.00" fill="#000000">Fun4All_G4_fsPHENIX</text>
<text text-anchor="middle" x="358.5" y="-406.5" font-family="FreeSans" font-size="10.00" fill="#000000">_FastSim</text>
</a>
</g>
</g>
<!-- Node2&#45;&gt;Node10 -->
<g id="edge9" class="edge">
<title>Node2&#45;&gt;Node10</title>
<path fill="none" stroke="#191970" d="M226.9197,-365.8619C240.7348,-373.9371 258.4259,-383.5689 275,-390.5 282.6784,-393.711 290.9117,-396.6962 299.107,-399.4045"/>
<polygon fill="#191970" stroke="#191970" points="228.4189,-362.6811 218.036,-360.5723 224.8377,-368.6957 228.4189,-362.6811"/>
</g>
<!-- Node11 -->
<g id="node11" class="node">
<title>Node11</title>
<g id="a_node11"><a xlink:href="../../d0/da6/Fun4All__G4__fsPHENIX__pi0_8C.html#a023d91d47b678e5d7f1751834aa517c6" target="_top" xlink:title="Fun4All_G4_fsPHENIX_pi0">
<polygon fill="none" stroke="#000000" points="286,-360.5 286,-380.5 431,-380.5 431,-360.5 286,-360.5"/>
<text text-anchor="middle" x="358.5" y="-367.5" font-family="FreeSans" font-size="10.00" fill="#000000">Fun4All_G4_fsPHENIX_pi0</text>
</a>
</g>
</g>
<!-- Node2&#45;&gt;Node11 -->
<g id="edge10" class="edge">
<title>Node2&#45;&gt;Node11</title>
<path fill="none" stroke="#191970" d="M249.3092,-356.5459C260.8024,-358.0147 273.3571,-359.6191 285.7283,-361.2001"/>
<polygon fill="#191970" stroke="#191970" points="249.4514,-353.0357 239.0883,-355.2397 248.5639,-359.9792 249.4514,-353.0357"/>
</g>
<!-- Node12 -->
<g id="node12" class="node">
<title>Node12</title>
<g id="a_node12"><a xlink:href="../../d5/d2c/macros_2blob_2master_2macros_2g4simulations_2Fun4All__G4__sPHENIX_8C.html#a6eaaa492d7023ec86c562dc63aa1e5a4" target="_top" xlink:title="Fun4All_G4_sPHENIX">
<polygon fill="none" stroke="#000000" points="298,-321.5 298,-341.5 419,-341.5 419,-321.5 298,-321.5"/>
<text text-anchor="middle" x="358.5" y="-328.5" font-family="FreeSans" font-size="10.00" fill="#000000">Fun4All_G4_sPHENIX</text>
</a>
</g>
</g>
<!-- Node2&#45;&gt;Node12 -->
<g id="edge11" class="edge">
<title>Node2&#45;&gt;Node12</title>
<path fill="none" stroke="#191970" d="M249.3228,-344.7547C264.5896,-342.9013 281.7284,-340.8205 297.8215,-338.8667"/>
<polygon fill="#191970" stroke="#191970" points="248.5936,-341.3175 239.0883,-345.9973 249.4373,-348.2665 248.5936,-341.3175"/>
</g>
<!-- Node13 -->
<g id="node13" class="node">
<title>Node13</title>
<g id="a_node13"><a xlink:href="../../d3/de2/Fun4All__G4__sPHENIX__AnaGenFit_8C.html#a9bf3f2f72ed69a17e2d0c1121d48013c" target="_top" xlink:title="Fun4All_G4_sPHENIX\l_AnaGenFit">
<polygon fill="none" stroke="#000000" points="298,-270.5 298,-302.5 419,-302.5 419,-270.5 298,-270.5"/>
<text text-anchor="start" x="306" y="-289.5" font-family="FreeSans" font-size="10.00" fill="#000000">Fun4All_G4_sPHENIX</text>
<text text-anchor="middle" x="358.5" y="-277.5" font-family="FreeSans" font-size="10.00" fill="#000000">_AnaGenFit</text>
</a>
</g>
</g>
<!-- Node2&#45;&gt;Node13 -->
<g id="edge12" class="edge">
<title>Node2&#45;&gt;Node13</title>
<path fill="none" stroke="#191970" d="M230.5743,-335.8672C233.4231,-334.3962 236.2699,-332.9214 239,-331.5 255.0471,-323.1455 258.2927,-319.4408 275,-312.5 283.5529,-308.9468 292.7708,-305.6107 301.8512,-302.59"/>
<polygon fill="#191970" stroke="#191970" points="228.8966,-332.7942 221.6074,-340.4831 232.1005,-339.018 228.8966,-332.7942"/>
</g>
<!-- Node14 -->
<g id="node14" class="node">
<title>Node14</title>
<g id="a_node14"><a xlink:href="../../da/dd0/Fun4All__G4__sPHENIX__photonjet_8C.html#a6f18519e216acc05399e562ea57ea77c" target="_top" xlink:title="Fun4All_G4_sPHENIX\l_photonjet">
<polygon fill="none" stroke="#000000" points="298,-219.5 298,-251.5 419,-251.5 419,-219.5 298,-219.5"/>
<text text-anchor="start" x="306" y="-238.5" font-family="FreeSans" font-size="10.00" fill="#000000">Fun4All_G4_sPHENIX</text>
<text text-anchor="middle" x="358.5" y="-226.5" font-family="FreeSans" font-size="10.00" fill="#000000">_photonjet</text>
</a>
</g>
</g>
<!-- Node2&#45;&gt;Node14 -->
<g id="edge13" class="edge">
<title>Node2&#45;&gt;Node14</title>
<path fill="none" stroke="#191970" d="M235.5395,-334.6073C236.7545,-333.6202 237.9146,-332.5847 239,-331.5 263.7452,-306.7699 248.216,-284.006 275,-261.5 281.6258,-255.9325 289.4406,-251.5553 297.5864,-248.1144"/>
<polygon fill="#191970" stroke="#191970" points="233.2589,-331.9243 226.9358,-340.4254 237.1802,-337.723 233.2589,-331.9243"/>
</g>
<!-- Node15 -->
<g id="node15" class="node">
<title>Node15</title>
<g id="a_node15"><a xlink:href="../../da/d85/Fun4All__G4__sPHENIX__photons_8C.html#a02fbbd59878fe1299f58ed187e7214ba" target="_top" xlink:title="Fun4All_G4_sPHENIX\l_photons">
<polygon fill="none" stroke="#000000" points="298,-168.5 298,-200.5 419,-200.5 419,-168.5 298,-168.5"/>
<text text-anchor="start" x="306" y="-187.5" font-family="FreeSans" font-size="10.00" fill="#000000">Fun4All_G4_sPHENIX</text>
<text text-anchor="middle" x="358.5" y="-175.5" font-family="FreeSans" font-size="10.00" fill="#000000">_photons</text>
</a>
</g>
</g>
<!-- Node2&#45;&gt;Node15 -->
<g id="edge14" class="edge">
<title>Node2&#45;&gt;Node15</title>
<path fill="none" stroke="#191970" d="M236.3244,-334.3619C237.2735,-333.4536 238.1698,-332.5001 239,-331.5 274.835,-288.3271 235.5784,-250.4247 275,-210.5 281.4006,-204.0177 289.3878,-199.1457 297.8661,-195.4853"/>
<polygon fill="#191970" stroke="#191970" points="234.1081,-331.6497 228.2378,-340.4696 238.327,-337.2355 234.1081,-331.6497"/>
</g>
<!-- Node16 -->
<g id="node16" class="node">
<title>Node16</title>
<g id="a_node16"><a xlink:href="../../de/d55/Fun4All__G4__sPHENIX__truthphotonjet_8C.html#a48a6f4503eaa1b3793d8ae572aa795b9" target="_top" xlink:title="Fun4All_G4_sPHENIX\l_truthphotonjet">
<polygon fill="none" stroke="#000000" points="298,-117.5 298,-149.5 419,-149.5 419,-117.5 298,-117.5"/>
<text text-anchor="start" x="306" y="-136.5" font-family="FreeSans" font-size="10.00" fill="#000000">Fun4All_G4_sPHENIX</text>
<text text-anchor="middle" x="358.5" y="-124.5" font-family="FreeSans" font-size="10.00" fill="#000000">_truthphotonjet</text>
</a>
</g>
</g>
<!-- Node2&#45;&gt;Node16 -->
<g id="edge15" class="edge">
<title>Node2&#45;&gt;Node16</title>
<path fill="none" stroke="#191970" d="M236.8128,-334.0573C237.5894,-333.2421 238.3214,-332.3901 239,-331.5 286.3501,-269.3895 222.4744,-217.2998 275,-159.5 281.2288,-152.6458 289.2301,-147.5818 297.8056,-143.8441"/>
<polygon fill="#191970" stroke="#191970" points="234.4718,-331.4483 228.8642,-340.4375 238.8536,-336.9072 234.4718,-331.4483"/>
</g>
<!-- Node17 -->
<g id="node17" class="node">
<title>Node17</title>
<g id="a_node17"><a xlink:href="../../d4/d65/Fun4All__single__particle_8C.html#a8a492b5dbead494bfdddbebde8a49b0e" target="_top" xlink:title="Fun4All_single_particle">
<polygon fill="none" stroke="#000000" points="292.5,-78.5 292.5,-98.5 424.5,-98.5 424.5,-78.5 292.5,-78.5"/>
<text text-anchor="middle" x="358.5" y="-85.5" font-family="FreeSans" font-size="10.00" fill="#000000">Fun4All_single_particle</text>
</a>
</g>
</g>
<!-- Node2&#45;&gt;Node17 -->
<g id="edge16" class="edge">
<title>Node2&#45;&gt;Node17</title>
<path fill="none" stroke="#191970" d="M237.2141,-333.7153C237.8458,-333.0049 238.443,-332.2668 239,-331.5 298.0027,-250.2738 206.7233,-182.1023 275,-108.5 279.8661,-103.2543 285.843,-99.2727 292.343,-96.2654"/>
<polygon fill="#191970" stroke="#191970" points="234.7778,-331.191 229.3775,-340.3063 239.2834,-336.5482 234.7778,-331.191"/>
</g>
<!-- Node18 -->
<g id="node18" class="node">
<title>Node18</title>
<g id="a_node18"><a xlink:href="../../d0/d99/Jin__BJet_8C.html#a36169bfee2ed7efda633944d12aebad9" target="_top" xlink:title="Jin_BJet">
<polygon fill="none" stroke="#000000" points="331,-39.5 331,-59.5 386,-59.5 386,-39.5 331,-39.5"/>
<text text-anchor="middle" x="358.5" y="-46.5" font-family="FreeSans" font-size="10.00" fill="#000000">Jin_BJet</text>
</a>
</g>
</g>
<!-- Node2&#45;&gt;Node18 -->
<g id="edge17" class="edge">
<title>Node2&#45;&gt;Node18</title>
<path fill="none" stroke="#191970" d="M237.2386,-333.7328C237.863,-333.0173 238.452,-332.2733 239,-331.5 306.9562,-235.5976 196.082,-156.6048 275,-69.5 288.912,-54.1448 312.3335,-49.5681 330.8363,-48.5921"/>
<polygon fill="#191970" stroke="#191970" points="234.7991,-331.213 229.4502,-340.3585 239.3348,-336.5447 234.7991,-331.213"/>
</g>
<!-- Node19 -->
<g id="node19" class="node">
<title>Node19</title>
<g id="a_node19"><a xlink:href="../../dd/db1/Wrapper_8cxx.html#abf1e42281903daa0752c80dd6c879fac" target="_top" xlink:title="Wrapper">
<polygon fill="none" stroke="#000000" points="328.5,-.5 328.5,-20.5 388.5,-20.5 388.5,-.5 328.5,-.5"/>
<text text-anchor="middle" x="358.5" y="-7.5" font-family="FreeSans" font-size="10.00" fill="#000000">Wrapper</text>
</a>
</g>
</g>
<!-- Node2&#45;&gt;Node19 -->
<g id="edge18" class="edge">
<title>Node2&#45;&gt;Node19</title>
<path fill="none" stroke="#191970" d="M237.2569,-333.7457C237.8759,-333.0263 238.4588,-332.2781 239,-331.5 315.9307,-220.8919 185.4162,-131.1342 275,-30.5 288.1823,-15.6917 310.2051,-10.8719 328.3244,-9.6588"/>
<polygon fill="#191970" stroke="#191970" points="234.8152,-331.2289 229.5048,-340.3968 239.3733,-336.5415 234.8152,-331.2289"/>
</g>
<!-- Node4 -->
<g id="node4" class="node">
<title>Node4</title>
<g id="a_node4"><a xlink:href="../../d3/d7f/Fun_8C.html#af69a3eef3ff244bb51f5740c6ecb5432" target="_top" xlink:title="Fun">
<polygon fill="none" stroke="#000000" points="478,-657.5 478,-677.5 512,-677.5 512,-657.5 478,-657.5"/>
<text text-anchor="middle" x="495" y="-664.5" font-family="FreeSans" font-size="10.00" fill="#000000">Fun</text>
</a>
</g>
</g>
<!-- Node3&#45;&gt;Node4 -->
<g id="edge3" class="edge">
<title>Node3&#45;&gt;Node4</title>
<path fill="none" stroke="#191970" d="M425.6941,-667.5C445.0852,-667.5 464.59,-667.5 477.9452,-667.5"/>
<polygon fill="#191970" stroke="#191970" points="425.5974,-664.0001 415.5974,-667.5 425.5974,-671.0001 425.5974,-664.0001"/>
</g>
</g>
</svg>
