<?xml version="1.0" encoding="UTF-8" standalone="no"?>
<!DOCTYPE svg PUBLIC "-//W3C//DTD SVG 1.1//EN"
 "http://www.w3.org/Graphics/SVG/1.1/DTD/svg11.dtd">
<!-- Generated by graphviz version 2.40.1 (20161225.0304)
 -->
<!-- Title: RawClusterUtility::GetECoreVec Pages: 1 -->
<svg width="454pt" height="221pt"
 viewBox="0.00 0.00 454.00 221.00" xmlns="http://www.w3.org/2000/svg" xmlns:xlink="http://www.w3.org/1999/xlink">
<g id="graph0" class="graph" transform="scale(1 1) rotate(0) translate(4 217)">
<title>RawClusterUtility::GetECoreVec</title>
<!-- Node1 -->
<g id="node1" class="node">
<title>Node1</title>
<polygon fill="#bfbfbf" stroke="#000000" points="0,-102.5 0,-134.5 108,-134.5 108,-102.5 0,-102.5"/>
<text text-anchor="start" x="8" y="-121.5" font-family="FreeSans" font-size="10.00" fill="#000000">RawClusterUtility::</text>
<text text-anchor="middle" x="54" y="-109.5" font-family="FreeSans" font-size="10.00" fill="#000000">GetECoreVec</text>
</g>
<!-- Node2 -->
<g id="node2" class="node">
<title>Node2</title>
<g id="a_node2"><a xlink:href="../../dc/d65/classPhotonJet.html#a2c998d51d52420bdde0a2100c7cbdf62" target="_top" xlink:title="PhotonJet::ConeSum">
<polygon fill="none" stroke="#000000" points="162,-192.5 162,-212.5 282,-212.5 282,-192.5 162,-192.5"/>
<text text-anchor="middle" x="222" y="-199.5" font-family="FreeSans" font-size="10.00" fill="#000000">PhotonJet::ConeSum</text>
</a>
</g>
</g>
<!-- Node1&#45;&gt;Node2 -->
<g id="edge1" class="edge">
<title>Node1&#45;&gt;Node2</title>
<path fill="none" stroke="#191970" d="M83.2617,-140.5952C100.3095,-152.7082 122.6052,-167.291 144,-177.5 156.449,-183.4403 170.6624,-188.4682 183.5159,-192.4223"/>
<polygon fill="#191970" stroke="#191970" points="85.013,-137.5425 74.8577,-134.5222 80.913,-143.2162 85.013,-137.5425"/>
</g>
<!-- Node3 -->
<g id="node3" class="node">
<title>Node3</title>
<g id="a_node3"><a xlink:href="../../dc/d65/classPhotonJet.html#a3f9d3ec941f851bc2246ceb0c5362c9f" target="_top" xlink:title="PhotonJet::process\l_event">
<polygon fill="none" stroke="#000000" points="336,-124.5 336,-156.5 446,-156.5 446,-124.5 336,-124.5"/>
<text text-anchor="start" x="344" y="-143.5" font-family="FreeSans" font-size="10.00" fill="#000000">PhotonJet::process</text>
<text text-anchor="middle" x="391" y="-131.5" font-family="FreeSans" font-size="10.00" fill="#000000">_event</text>
</a>
</g>
</g>
<!-- Node1&#45;&gt;Node3 -->
<g id="edge8" class="edge">
<title>Node1&#45;&gt;Node3</title>
<path fill="none" stroke="#191970" d="M109.8292,-137.255C121.0228,-140.2671 132.7905,-142.9133 144,-144.5 209.395,-153.7567 285.4953,-150.4289 335.7562,-146.3076"/>
<polygon fill="#191970" stroke="#191970" points="110.7432,-133.8763 100.1686,-134.5312 108.8435,-140.6136 110.7432,-133.8763"/>
</g>
<!-- Node4 -->
<g id="node4" class="node">
<title>Node4</title>
<g id="a_node4"><a xlink:href="../../dc/d65/classPhotonJet.html#a9b2de7dcbd5e3bbbd26150d418b7bb44" target="_top" xlink:title="PhotonJet::GetRecoHadrons\lAndJets">
<polygon fill="none" stroke="#000000" points="144,-102.5 144,-134.5 300,-134.5 300,-102.5 144,-102.5"/>
<text text-anchor="start" x="152" y="-121.5" font-family="FreeSans" font-size="10.00" fill="#000000">PhotonJet::GetRecoHadrons</text>
<text text-anchor="middle" x="222" y="-109.5" font-family="FreeSans" font-size="10.00" fill="#000000">AndJets</text>
</a>
</g>
</g>
<!-- Node1&#45;&gt;Node4 -->
<g id="edge3" class="edge">
<title>Node1&#45;&gt;Node4</title>
<path fill="none" stroke="#191970" d="M118.1678,-118.5C126.5713,-118.5 135.2557,-118.5 143.8578,-118.5"/>
<polygon fill="#191970" stroke="#191970" points="118.081,-115.0001 108.081,-118.5 118.081,-122.0001 118.081,-115.0001"/>
</g>
<!-- Node5 -->
<g id="node5" class="node">
<title>Node5</title>
<g id="a_node5"><a xlink:href="../../dc/d65/classPhotonJet.html#a2c1adc79085fbbe9d27254d016321804" target="_top" xlink:title="PhotonJet::GetRecoHadrons\lAndJetsAA">
<polygon fill="none" stroke="#000000" points="144,-51.5 144,-83.5 300,-83.5 300,-51.5 144,-51.5"/>
<text text-anchor="start" x="152" y="-70.5" font-family="FreeSans" font-size="10.00" fill="#000000">PhotonJet::GetRecoHadrons</text>
<text text-anchor="middle" x="222" y="-58.5" font-family="FreeSans" font-size="10.00" fill="#000000">AndJetsAA</text>
</a>
</g>
</g>
<!-- Node1&#45;&gt;Node5 -->
<g id="edge5" class="edge">
<title>Node1&#45;&gt;Node5</title>
<path fill="none" stroke="#191970" d="M117.0938,-99.3465C134.256,-94.1366 152.6616,-88.5492 169.1895,-83.5317"/>
<polygon fill="#191970" stroke="#191970" points="115.7084,-96.1093 107.1563,-102.3633 117.7418,-102.8075 115.7084,-96.1093"/>
</g>
<!-- Node6 -->
<g id="node6" class="node">
<title>Node6</title>
<g id="a_node6"><a xlink:href="../../d7/dec/classForward__pi0s.html#aa5e9d908554327efd879a6db978b2174" target="_top" xlink:title="Forward_pi0s::process\l_event">
<polygon fill="none" stroke="#000000" points="158,-.5 158,-32.5 286,-32.5 286,-.5 158,-.5"/>
<text text-anchor="start" x="166" y="-19.5" font-family="FreeSans" font-size="10.00" fill="#000000">Forward_pi0s::process</text>
<text text-anchor="middle" x="222" y="-7.5" font-family="FreeSans" font-size="10.00" fill="#000000">_event</text>
</a>
</g>
</g>
<!-- Node1&#45;&gt;Node6 -->
<g id="edge7" class="edge">
<title>Node1&#45;&gt;Node6</title>
<path fill="none" stroke="#191970" d="M76.5023,-95.2428C93.6787,-78.6109 118.6378,-56.7367 144,-42.5 150.597,-38.7969 157.8057,-35.5126 165.09,-32.6326"/>
<polygon fill="#191970" stroke="#191970" points="73.8405,-92.9524 69.1846,-102.4694 78.7592,-97.9331 73.8405,-92.9524"/>
</g>
<!-- Node2&#45;&gt;Node3 -->
<g id="edge2" class="edge">
<title>Node2&#45;&gt;Node3</title>
<path fill="none" stroke="#191970" d="M264.9874,-189.3675C276.4251,-185.6977 288.731,-181.5902 300,-177.5 317.6344,-171.0994 336.9157,-163.368 353.1727,-156.6311"/>
<polygon fill="#191970" stroke="#191970" points="263.6819,-186.1096 255.2074,-192.4683 265.7976,-192.7822 263.6819,-186.1096"/>
</g>
<!-- Node4&#45;&gt;Node3 -->
<g id="edge4" class="edge">
<title>Node4&#45;&gt;Node3</title>
<path fill="none" stroke="#191970" d="M310.0207,-129.9583C318.8339,-131.1056 327.596,-132.2462 335.9225,-133.3301"/>
<polygon fill="#191970" stroke="#191970" points="310.4372,-126.4831 300.069,-128.6628 309.5335,-133.4245 310.4372,-126.4831"/>
</g>
<!-- Node5&#45;&gt;Node3 -->
<g id="edge6" class="edge">
<title>Node5&#45;&gt;Node3</title>
<path fill="none" stroke="#191970" d="M283.4967,-86.9981C289.1192,-89.081 294.6921,-91.2606 300,-93.5 321.4616,-102.5548 344.7875,-114.6499 362.4499,-124.3025"/>
<polygon fill="#191970" stroke="#191970" points="284.6202,-83.6827 274.0257,-83.5905 282.2503,-90.2694 284.6202,-83.6827"/>
</g>
</g>
</svg>
