<?xml version="1.0" encoding="UTF-8" standalone="no"?>
<!DOCTYPE svg PUBLIC "-//W3C//DTD SVG 1.1//EN"
 "http://www.w3.org/Graphics/SVG/1.1/DTD/svg11.dtd">
<!-- Generated by graphviz version 2.40.1 (20161225.0304)
 -->
<!-- Title: RawClusterBuilderTopo::allow_corner_neighbor Pages: 1 -->
<svg width="440pt" height="41pt"
 viewBox="0.00 0.00 440.00 41.00" xmlns="http://www.w3.org/2000/svg" xmlns:xlink="http://www.w3.org/1999/xlink">
<g id="graph0" class="graph" transform="scale(1 1) rotate(0) translate(4 37)">
<title>RawClusterBuilderTopo::allow_corner_neighbor</title>
<!-- Node1 -->
<g id="node1" class="node">
<title>Node1</title>
<polygon fill="#bfbfbf" stroke="#000000" points="0,-.5 0,-32.5 138,-32.5 138,-.5 0,-.5"/>
<text text-anchor="start" x="8" y="-19.5" font-family="FreeSans" font-size="10.00" fill="#000000">RawClusterBuilderTopo</text>
<text text-anchor="middle" x="69" y="-7.5" font-family="FreeSans" font-size="10.00" fill="#000000">::allow_corner_neighbor</text>
</g>
<!-- Node2 -->
<g id="node2" class="node">
<title>Node2</title>
<g id="a_node2"><a xlink:href="../../d2/daf/G4__TopoClusterReco_8C.html#aaf9f92996c7928a06728b2f7dc314f5d" target="_top" xlink:title="TopoClusterReco">
<polygon fill="none" stroke="#000000" points="174,-6.5 174,-26.5 275,-26.5 275,-6.5 174,-6.5"/>
<text text-anchor="middle" x="224.5" y="-13.5" font-family="FreeSans" font-size="10.00" fill="#000000">TopoClusterReco</text>
</a>
</g>
</g>
<!-- Node1&#45;&gt;Node2 -->
<g id="edge1" class="edge">
<title>Node1&#45;&gt;Node2</title>
<path fill="none" stroke="#191970" d="M148.2793,-16.5C156.9541,-16.5 165.6035,-16.5 173.7953,-16.5"/>
<polygon fill="#191970" stroke="#191970" points="148.1102,-13.0001 138.1101,-16.5 148.1101,-20.0001 148.1102,-13.0001"/>
</g>
<!-- Node3 -->
<g id="node3" class="node">
<title>Node3</title>
<g id="a_node3"><a xlink:href="../../d5/d2c/macros_2blob_2master_2macros_2g4simulations_2Fun4All__G4__sPHENIX_8C.html#a6eaaa492d7023ec86c562dc63aa1e5a4" target="_top" xlink:title="Fun4All_G4_sPHENIX">
<polygon fill="none" stroke="#000000" points="311,-6.5 311,-26.5 432,-26.5 432,-6.5 311,-6.5"/>
<text text-anchor="middle" x="371.5" y="-13.5" font-family="FreeSans" font-size="10.00" fill="#000000">Fun4All_G4_sPHENIX</text>
</a>
</g>
</g>
<!-- Node2&#45;&gt;Node3 -->
<g id="edge2" class="edge">
<title>Node2&#45;&gt;Node3</title>
<path fill="none" stroke="#191970" d="M285.2784,-16.5C293.7522,-16.5 302.4588,-16.5 310.9288,-16.5"/>
<polygon fill="#191970" stroke="#191970" points="285.0891,-13.0001 275.0891,-16.5 285.089,-20.0001 285.0891,-13.0001"/>
</g>
</g>
</svg>
