<?xml version="1.0" encoding="UTF-8" standalone="no"?>
<!DOCTYPE svg PUBLIC "-//W3C//DTD SVG 1.1//EN"
 "http://www.w3.org/Graphics/SVG/1.1/DTD/svg11.dtd">
<!-- Generated by graphviz version 2.40.1 (20161225.0304)
 -->
<!-- Title: HCALOuter_Towers Pages: 1 -->
<svg width="392pt" height="686pt"
 viewBox="0.00 0.00 392.00 686.00" xmlns="http://www.w3.org/2000/svg" xmlns:xlink="http://www.w3.org/1999/xlink">
<g id="graph0" class="graph" transform="scale(1 1) rotate(0) translate(4 682)">
<title>HCALOuter_Towers</title>
<!-- Node1 -->
<g id="node1" class="node">
<title>Node1</title>
<polygon fill="#bfbfbf" stroke="#000000" points="0,-340.5 0,-360.5 111,-360.5 111,-340.5 0,-340.5"/>
<text text-anchor="middle" x="55.5" y="-347.5" font-family="FreeSans" font-size="10.00" fill="#000000">HCALOuter_Towers</text>
</g>
<!-- Node2 -->
<g id="node2" class="node">
<title>Node2</title>
<g id="a_node2"><a xlink:href="../../d3/d7f/Fun_8C.html#af0d3c8a78765149fef9b2beeecfc6279" target="_top" xlink:title="ConfigureDetectors">
<polygon fill="none" stroke="#000000" points="173.5,-657.5 173.5,-677.5 287.5,-677.5 287.5,-657.5 173.5,-657.5"/>
<text text-anchor="middle" x="230.5" y="-664.5" font-family="FreeSans" font-size="10.00" fill="#000000">ConfigureDetectors</text>
</a>
</g>
</g>
<!-- Node1&#45;&gt;Node2 -->
<g id="edge1" class="edge">
<title>Node1&#45;&gt;Node2</title>
<path fill="none" stroke="#191970" d="M58.9823,-370.5813C69.8595,-431.0263 104.9955,-609.5011 147,-648.5 154.2998,-655.2774 163.498,-659.8088 173.1011,-662.8054"/>
<polygon fill="#191970" stroke="#191970" points="62.4277,-369.9651 57.2374,-360.7287 55.535,-371.1858 62.4277,-369.9651"/>
</g>
<!-- Node4 -->
<g id="node4" class="node">
<title>Node4</title>
<g id="a_node4"><a xlink:href="../../da/d02/Fun4All__G4__EICDetector_8C.html#afbe82cefa1d1fd031d9a8586b7bb68c6" target="_top" xlink:title="Fun4All_G4_EICDetector">
<polygon fill="none" stroke="#000000" points="161,-618.5 161,-638.5 300,-638.5 300,-618.5 161,-618.5"/>
<text text-anchor="middle" x="230.5" y="-625.5" font-family="FreeSans" font-size="10.00" fill="#000000">Fun4All_G4_EICDetector</text>
</a>
</g>
</g>
<!-- Node1&#45;&gt;Node4 -->
<g id="edge3" class="edge">
<title>Node1&#45;&gt;Node4</title>
<path fill="none" stroke="#191970" d="M56.3349,-370.7781C59.496,-419.7277 74.6233,-545.0581 147,-609.5 151.1083,-613.1579 155.7734,-616.1554 160.7484,-618.6069"/>
<polygon fill="#191970" stroke="#191970" points="59.8167,-370.3453 55.782,-360.5488 52.8269,-370.7232 59.8167,-370.3453"/>
</g>
<!-- Node5 -->
<g id="node5" class="node">
<title>Node5</title>
<g id="a_node5"><a xlink:href="../../dd/d2a/Fun4All__G4__EICDetector__LQ_8C.html#aaa01242fd6e77ca43a9d49a6d46008e4" target="_top" xlink:title="Fun4All_G4_EICDetector_LQ">
<polygon fill="none" stroke="#000000" points="152.5,-579.5 152.5,-599.5 308.5,-599.5 308.5,-579.5 152.5,-579.5"/>
<text text-anchor="middle" x="230.5" y="-586.5" font-family="FreeSans" font-size="10.00" fill="#000000">Fun4All_G4_EICDetector_LQ</text>
</a>
</g>
</g>
<!-- Node1&#45;&gt;Node5 -->
<g id="edge4" class="edge">
<title>Node1&#45;&gt;Node5</title>
<path fill="none" stroke="#191970" d="M57.7528,-370.6691C63.7381,-414.25 84.1433,-517.5358 147,-570.5 151.2066,-574.0445 155.9414,-576.9614 160.964,-579.3579"/>
<polygon fill="#191970" stroke="#191970" points="61.2217,-370.202 56.4991,-360.7179 54.2766,-371.077 61.2217,-370.202"/>
</g>
<!-- Node6 -->
<g id="node6" class="node">
<title>Node6</title>
<g id="a_node6"><a xlink:href="../../d4/df5/Fun4All__G4__EICDetector__LQ__reference_8C.html#a2feefc472f17f90b3cbe74897d049f75" target="_top" xlink:title="Fun4All_G4_EICDetector\l_LQ_reference">
<polygon fill="none" stroke="#000000" points="161,-528.5 161,-560.5 300,-560.5 300,-528.5 161,-528.5"/>
<text text-anchor="start" x="169" y="-547.5" font-family="FreeSans" font-size="10.00" fill="#000000">Fun4All_G4_EICDetector</text>
<text text-anchor="middle" x="230.5" y="-535.5" font-family="FreeSans" font-size="10.00" fill="#000000">_LQ_reference</text>
</a>
</g>
</g>
<!-- Node1&#45;&gt;Node6 -->
<g id="edge5" class="edge">
<title>Node1&#45;&gt;Node6</title>
<path fill="none" stroke="#191970" d="M60.7508,-370.2576C71.1504,-405.5423 97.7358,-479.4386 147,-519.5 151.2265,-522.937 155.9156,-525.9017 160.8536,-528.4591"/>
<polygon fill="#191970" stroke="#191970" points="64.1179,-369.3021 58.0357,-360.627 57.3805,-371.2015 64.1179,-369.3021"/>
</g>
<!-- Node7 -->
<g id="node7" class="node">
<title>Node7</title>
<g id="a_node7"><a xlink:href="../../d3/d51/Fun4All__G4__EICDetector__RICH_8C.html#a5739502b0a7a1ba782c01069f77e933f" target="_top" xlink:title="Fun4All_G4_EICDetector_RICH">
<polygon fill="none" stroke="#000000" points="147,-489.5 147,-509.5 314,-509.5 314,-489.5 147,-489.5"/>
<text text-anchor="middle" x="230.5" y="-496.5" font-family="FreeSans" font-size="10.00" fill="#000000">Fun4All_G4_EICDetector_RICH</text>
</a>
</g>
</g>
<!-- Node1&#45;&gt;Node7 -->
<g id="edge6" class="edge">
<title>Node1&#45;&gt;Node7</title>
<path fill="none" stroke="#191970" d="M63.6254,-369.9443C76.731,-398.8075 105.3499,-452.5759 147,-480.5 152.4334,-484.1428 158.4657,-487.0946 164.7306,-489.4855"/>
<polygon fill="#191970" stroke="#191970" points="66.7209,-368.2877 59.5036,-360.5314 60.3087,-371.0956 66.7209,-368.2877"/>
</g>
<!-- Node8 -->
<g id="node8" class="node">
<title>Node8</title>
<g id="a_node8"><a xlink:href="../../d7/d9e/Fun4All__G4__fsPHENIX_8C.html#af48911d394d2412e817583700f2bbee2" target="_top" xlink:title="Fun4All_G4_fsPHENIX">
<polygon fill="none" stroke="#000000" points="168.5,-450.5 168.5,-470.5 292.5,-470.5 292.5,-450.5 168.5,-450.5"/>
<text text-anchor="middle" x="230.5" y="-457.5" font-family="FreeSans" font-size="10.00" fill="#000000">Fun4All_G4_fsPHENIX</text>
</a>
</g>
</g>
<!-- Node1&#45;&gt;Node8 -->
<g id="edge7" class="edge">
<title>Node1&#45;&gt;Node8</title>
<path fill="none" stroke="#191970" d="M68.5633,-368.6064C84.622,-389.4815 113.8549,-423.2549 147,-441.5 153.6424,-445.1564 160.9521,-448.11 168.3997,-450.4957"/>
<polygon fill="#191970" stroke="#191970" points="71.3115,-366.4372 62.5146,-360.5325 65.7092,-370.6342 71.3115,-366.4372"/>
</g>
<!-- Node9 -->
<g id="node9" class="node">
<title>Node9</title>
<g id="a_node9"><a xlink:href="../../da/d2f/Fun4All__G4__fsPHENIX__FastSim_8C.html#a66fb850cae5fcaadda23b74a25ce4c9c" target="_top" xlink:title="Fun4All_G4_fsPHENIX\l_FastSim">
<polygon fill="none" stroke="#000000" points="168.5,-399.5 168.5,-431.5 292.5,-431.5 292.5,-399.5 168.5,-399.5"/>
<text text-anchor="start" x="176.5" y="-418.5" font-family="FreeSans" font-size="10.00" fill="#000000">Fun4All_G4_fsPHENIX</text>
<text text-anchor="middle" x="230.5" y="-406.5" font-family="FreeSans" font-size="10.00" fill="#000000">_FastSim</text>
</a>
</g>
</g>
<!-- Node1&#45;&gt;Node9 -->
<g id="edge8" class="edge">
<title>Node1&#45;&gt;Node9</title>
<path fill="none" stroke="#191970" d="M85.8704,-364.882C103.5028,-372.9518 126.2622,-382.8945 147,-390.5 155.5242,-393.6262 164.6395,-396.6603 173.6005,-399.4738"/>
<polygon fill="#191970" stroke="#191970" points="87.1932,-361.6376 76.6475,-360.6182 84.2557,-367.9915 87.1932,-361.6376"/>
</g>
<!-- Node10 -->
<g id="node10" class="node">
<title>Node10</title>
<g id="a_node10"><a xlink:href="../../d0/da6/Fun4All__G4__fsPHENIX__pi0_8C.html#a023d91d47b678e5d7f1751834aa517c6" target="_top" xlink:title="Fun4All_G4_fsPHENIX_pi0">
<polygon fill="none" stroke="#000000" points="158,-360.5 158,-380.5 303,-380.5 303,-360.5 158,-360.5"/>
<text text-anchor="middle" x="230.5" y="-367.5" font-family="FreeSans" font-size="10.00" fill="#000000">Fun4All_G4_fsPHENIX_pi0</text>
</a>
</g>
</g>
<!-- Node1&#45;&gt;Node10 -->
<g id="edge9" class="edge">
<title>Node1&#45;&gt;Node10</title>
<path fill="none" stroke="#191970" d="M121.6059,-358.055C133.4645,-359.4102 145.8816,-360.8293 157.9113,-362.2042"/>
<polygon fill="#191970" stroke="#191970" points="121.685,-354.5413 111.3522,-356.8831 120.8901,-361.496 121.685,-354.5413"/>
</g>
<!-- Node11 -->
<g id="node11" class="node">
<title>Node11</title>
<g id="a_node11"><a xlink:href="../../d5/d2c/macros_2blob_2master_2macros_2g4simulations_2Fun4All__G4__sPHENIX_8C.html#a6eaaa492d7023ec86c562dc63aa1e5a4" target="_top" xlink:title="Fun4All_G4_sPHENIX">
<polygon fill="none" stroke="#000000" points="170,-321.5 170,-341.5 291,-341.5 291,-321.5 170,-321.5"/>
<text text-anchor="middle" x="230.5" y="-328.5" font-family="FreeSans" font-size="10.00" fill="#000000">Fun4All_G4_sPHENIX</text>
</a>
</g>
</g>
<!-- Node1&#45;&gt;Node11 -->
<g id="edge10" class="edge">
<title>Node1&#45;&gt;Node11</title>
<path fill="none" stroke="#191970" d="M121.5719,-343.3265C137.3771,-341.6105 154.1762,-339.7866 169.729,-338.098"/>
<polygon fill="#191970" stroke="#191970" points="120.916,-339.877 111.3522,-344.436 121.6716,-346.8361 120.916,-339.877"/>
</g>
<!-- Node12 -->
<g id="node12" class="node">
<title>Node12</title>
<g id="a_node12"><a xlink:href="../../d3/de2/Fun4All__G4__sPHENIX__AnaGenFit_8C.html#a9bf3f2f72ed69a17e2d0c1121d48013c" target="_top" xlink:title="Fun4All_G4_sPHENIX\l_AnaGenFit">
<polygon fill="none" stroke="#000000" points="170,-270.5 170,-302.5 291,-302.5 291,-270.5 170,-270.5"/>
<text text-anchor="start" x="178" y="-289.5" font-family="FreeSans" font-size="10.00" fill="#000000">Fun4All_G4_sPHENIX</text>
<text text-anchor="middle" x="230.5" y="-277.5" font-family="FreeSans" font-size="10.00" fill="#000000">_AnaGenFit</text>
</a>
</g>
</g>
<!-- Node1&#45;&gt;Node12 -->
<g id="edge11" class="edge">
<title>Node1&#45;&gt;Node12</title>
<path fill="none" stroke="#191970" d="M87.3867,-336.4127C104.8422,-328.9158 126.9425,-319.7703 147,-312.5 156.421,-309.0851 166.5343,-305.7029 176.3568,-302.5635"/>
<polygon fill="#191970" stroke="#191970" points="85.9959,-333.2008 78.2095,-340.3857 88.777,-339.6247 85.9959,-333.2008"/>
</g>
<!-- Node13 -->
<g id="node13" class="node">
<title>Node13</title>
<g id="a_node13"><a xlink:href="../../da/dd0/Fun4All__G4__sPHENIX__photonjet_8C.html#a6f18519e216acc05399e562ea57ea77c" target="_top" xlink:title="Fun4All_G4_sPHENIX\l_photonjet">
<polygon fill="none" stroke="#000000" points="170,-219.5 170,-251.5 291,-251.5 291,-219.5 170,-219.5"/>
<text text-anchor="start" x="178" y="-238.5" font-family="FreeSans" font-size="10.00" fill="#000000">Fun4All_G4_sPHENIX</text>
<text text-anchor="middle" x="230.5" y="-226.5" font-family="FreeSans" font-size="10.00" fill="#000000">_photonjet</text>
</a>
</g>
</g>
<!-- Node1&#45;&gt;Node13 -->
<g id="edge12" class="edge">
<title>Node1&#45;&gt;Node13</title>
<path fill="none" stroke="#191970" d="M69.6402,-332.3457C86.1653,-312.2926 115.3135,-280.3522 147,-261.5 154.0461,-257.3079 161.8349,-253.7274 169.7396,-250.6872"/>
<polygon fill="#191970" stroke="#191970" points="66.7114,-330.4023 63.1658,-340.3863 72.1636,-334.7925 66.7114,-330.4023"/>
</g>
<!-- Node14 -->
<g id="node14" class="node">
<title>Node14</title>
<g id="a_node14"><a xlink:href="../../da/d85/Fun4All__G4__sPHENIX__photons_8C.html#a02fbbd59878fe1299f58ed187e7214ba" target="_top" xlink:title="Fun4All_G4_sPHENIX\l_photons">
<polygon fill="none" stroke="#000000" points="170,-168.5 170,-200.5 291,-200.5 291,-168.5 170,-168.5"/>
<text text-anchor="start" x="178" y="-187.5" font-family="FreeSans" font-size="10.00" fill="#000000">Fun4All_G4_sPHENIX</text>
<text text-anchor="middle" x="230.5" y="-175.5" font-family="FreeSans" font-size="10.00" fill="#000000">_photons</text>
</a>
</g>
</g>
<!-- Node1&#45;&gt;Node14 -->
<g id="edge13" class="edge">
<title>Node1&#45;&gt;Node14</title>
<path fill="none" stroke="#191970" d="M63.1546,-330.8411C75.9435,-300.5442 104.5113,-242.592 147,-210.5 153.7847,-205.3755 161.5967,-201.2488 169.6619,-197.9286"/>
<polygon fill="#191970" stroke="#191970" points="59.8259,-329.735 59.2921,-340.3164 66.308,-332.3774 59.8259,-329.735"/>
</g>
<!-- Node15 -->
<g id="node15" class="node">
<title>Node15</title>
<g id="a_node15"><a xlink:href="../../de/d55/Fun4All__G4__sPHENIX__truthphotonjet_8C.html#a48a6f4503eaa1b3793d8ae572aa795b9" target="_top" xlink:title="Fun4All_G4_sPHENIX\l_truthphotonjet">
<polygon fill="none" stroke="#000000" points="170,-117.5 170,-149.5 291,-149.5 291,-117.5 170,-117.5"/>
<text text-anchor="start" x="178" y="-136.5" font-family="FreeSans" font-size="10.00" fill="#000000">Fun4All_G4_sPHENIX</text>
<text text-anchor="middle" x="230.5" y="-124.5" font-family="FreeSans" font-size="10.00" fill="#000000">_truthphotonjet</text>
</a>
</g>
</g>
<!-- Node1&#45;&gt;Node15 -->
<g id="edge14" class="edge">
<title>Node1&#45;&gt;Node15</title>
<path fill="none" stroke="#191970" d="M59.5253,-330.445C68.3529,-291.6654 93.0811,-206.1223 147,-159.5 153.6613,-153.7402 161.5903,-149.2556 169.8706,-145.7642"/>
<polygon fill="#191970" stroke="#191970" points="56.0481,-329.9667 57.3631,-340.4796 62.891,-331.4412 56.0481,-329.9667"/>
</g>
<!-- Node16 -->
<g id="node16" class="node">
<title>Node16</title>
<g id="a_node16"><a xlink:href="../../d4/d65/Fun4All__single__particle_8C.html#a8a492b5dbead494bfdddbebde8a49b0e" target="_top" xlink:title="Fun4All_single_particle">
<polygon fill="none" stroke="#000000" points="164.5,-78.5 164.5,-98.5 296.5,-98.5 296.5,-78.5 164.5,-78.5"/>
<text text-anchor="middle" x="230.5" y="-85.5" font-family="FreeSans" font-size="10.00" fill="#000000">Fun4All_single_particle</text>
</a>
</g>
</g>
<!-- Node1&#45;&gt;Node16 -->
<g id="edge15" class="edge">
<title>Node1&#45;&gt;Node16</title>
<path fill="none" stroke="#191970" d="M56.9484,-330.3276C61.4147,-283.7819 79.1233,-168.2974 147,-108.5 152.0333,-104.0658 157.8772,-100.5725 164.0911,-97.8263"/>
<polygon fill="#191970" stroke="#191970" points="53.4549,-330.104 56.0931,-340.3651 60.4296,-330.6984 53.4549,-330.104"/>
</g>
<!-- Node17 -->
<g id="node17" class="node">
<title>Node17</title>
<g id="a_node17"><a xlink:href="../../d0/d99/Jin__BJet_8C.html#a36169bfee2ed7efda633944d12aebad9" target="_top" xlink:title="Jin_BJet">
<polygon fill="none" stroke="#000000" points="203,-39.5 203,-59.5 258,-59.5 258,-39.5 203,-39.5"/>
<text text-anchor="middle" x="230.5" y="-46.5" font-family="FreeSans" font-size="10.00" fill="#000000">Jin_BJet</text>
</a>
</g>
</g>
<!-- Node1&#45;&gt;Node17 -->
<g id="edge16" class="edge">
<title>Node1&#45;&gt;Node17</title>
<path fill="none" stroke="#191970" d="M59.4674,-330.0819C71.2044,-271.7217 107.4199,-106.0448 147,-69.5 162.0044,-55.6463 184.8631,-50.8925 202.8725,-49.4665"/>
<polygon fill="#191970" stroke="#191970" points="55.9625,-329.7635 57.4526,-340.253 62.8291,-331.1237 55.9625,-329.7635"/>
</g>
<!-- Node18 -->
<g id="node18" class="node">
<title>Node18</title>
<g id="a_node18"><a xlink:href="../../dd/db1/Wrapper_8cxx.html#abf1e42281903daa0752c80dd6c879fac" target="_top" xlink:title="Wrapper">
<polygon fill="none" stroke="#000000" points="200.5,-.5 200.5,-20.5 260.5,-20.5 260.5,-.5 200.5,-.5"/>
<text text-anchor="middle" x="230.5" y="-7.5" font-family="FreeSans" font-size="10.00" fill="#000000">Wrapper</text>
</a>
</g>
</g>
<!-- Node1&#45;&gt;Node18 -->
<g id="edge17" class="edge">
<title>Node1&#45;&gt;Node18</title>
<path fill="none" stroke="#191970" d="M58.587,-330.2287C68.6617,-266.6872 102.5103,-73.0989 147,-30.5 161.1046,-16.9949 182.639,-12.0743 200.3059,-10.4889"/>
<polygon fill="#191970" stroke="#191970" points="55.1136,-329.7871 57.0322,-340.2068 62.0301,-330.8649 55.1136,-329.7871"/>
</g>
<!-- Node3 -->
<g id="node3" class="node">
<title>Node3</title>
<g id="a_node3"><a xlink:href="../../d3/d7f/Fun_8C.html#af69a3eef3ff244bb51f5740c6ecb5432" target="_top" xlink:title="Fun">
<polygon fill="none" stroke="#000000" points="350,-657.5 350,-677.5 384,-677.5 384,-657.5 350,-657.5"/>
<text text-anchor="middle" x="367" y="-664.5" font-family="FreeSans" font-size="10.00" fill="#000000">Fun</text>
</a>
</g>
</g>
<!-- Node2&#45;&gt;Node3 -->
<g id="edge2" class="edge">
<title>Node2&#45;&gt;Node3</title>
<path fill="none" stroke="#191970" d="M297.6941,-667.5C317.0852,-667.5 336.59,-667.5 349.9452,-667.5"/>
<polygon fill="#191970" stroke="#191970" points="297.5974,-664.0001 287.5974,-667.5 297.5974,-671.0001 297.5974,-664.0001"/>
</g>
</g>
</svg>
