<?xml version="1.0" encoding="UTF-8" standalone="no"?>
<!DOCTYPE svg PUBLIC "-//W3C//DTD SVG 1.1//EN"
 "http://www.w3.org/Graphics/SVG/1.1/DTD/svg11.dtd">
<!-- Generated by graphviz version 2.40.1 (20161225.0304)
 -->
<!-- Title: HCALOuter_Cells Pages: 1 -->
<svg width="382pt" height="686pt"
 viewBox="0.00 0.00 382.00 686.00" xmlns="http://www.w3.org/2000/svg" xmlns:xlink="http://www.w3.org/1999/xlink">
<g id="graph0" class="graph" transform="scale(1 1) rotate(0) translate(4 682)">
<title>HCALOuter_Cells</title>
<!-- Node1 -->
<g id="node1" class="node">
<title>Node1</title>
<polygon fill="#bfbfbf" stroke="#000000" points="0,-340.5 0,-360.5 101,-360.5 101,-340.5 0,-340.5"/>
<text text-anchor="middle" x="50.5" y="-347.5" font-family="FreeSans" font-size="10.00" fill="#000000">HCALOuter_Cells</text>
</g>
<!-- Node2 -->
<g id="node2" class="node">
<title>Node2</title>
<g id="a_node2"><a xlink:href="../../d3/d7f/Fun_8C.html#af0d3c8a78765149fef9b2beeecfc6279" target="_top" xlink:title="ConfigureDetectors">
<polygon fill="none" stroke="#000000" points="163.5,-657.5 163.5,-677.5 277.5,-677.5 277.5,-657.5 163.5,-657.5"/>
<text text-anchor="middle" x="220.5" y="-664.5" font-family="FreeSans" font-size="10.00" fill="#000000">ConfigureDetectors</text>
</a>
</g>
</g>
<!-- Node1&#45;&gt;Node2 -->
<g id="edge1" class="edge">
<title>Node1&#45;&gt;Node2</title>
<path fill="none" stroke="#191970" d="M53.6924,-370.9461C63.5856,-431.7169 95.5747,-609.4404 137,-648.5 144.3555,-655.4355 153.6949,-660.027 163.4452,-663.0306"/>
<polygon fill="#191970" stroke="#191970" points="57.0927,-370.0443 52.0582,-360.722 50.1805,-371.1491 57.0927,-370.0443"/>
</g>
<!-- Node4 -->
<g id="node4" class="node">
<title>Node4</title>
<g id="a_node4"><a xlink:href="../../da/d02/Fun4All__G4__EICDetector_8C.html#afbe82cefa1d1fd031d9a8586b7bb68c6" target="_top" xlink:title="Fun4All_G4_EICDetector">
<polygon fill="none" stroke="#000000" points="151,-618.5 151,-638.5 290,-638.5 290,-618.5 151,-618.5"/>
<text text-anchor="middle" x="220.5" y="-625.5" font-family="FreeSans" font-size="10.00" fill="#000000">Fun4All_G4_EICDetector</text>
</a>
</g>
</g>
<!-- Node1&#45;&gt;Node4 -->
<g id="edge3" class="edge">
<title>Node1&#45;&gt;Node4</title>
<path fill="none" stroke="#191970" d="M54.5251,-370.4141C65.9882,-425.1991 100.3518,-576.298 137,-609.5 141.0766,-613.1933 145.7191,-616.2159 150.6787,-618.6845"/>
<polygon fill="#191970" stroke="#191970" points="57.9351,-369.6203 52.4887,-360.5325 51.0792,-371.0332 57.9351,-369.6203"/>
</g>
<!-- Node5 -->
<g id="node5" class="node">
<title>Node5</title>
<g id="a_node5"><a xlink:href="../../dd/d2a/Fun4All__G4__EICDetector__LQ_8C.html#aaa01242fd6e77ca43a9d49a6d46008e4" target="_top" xlink:title="Fun4All_G4_EICDetector_LQ">
<polygon fill="none" stroke="#000000" points="142.5,-579.5 142.5,-599.5 298.5,-599.5 298.5,-579.5 142.5,-579.5"/>
<text text-anchor="middle" x="220.5" y="-586.5" font-family="FreeSans" font-size="10.00" fill="#000000">Fun4All_G4_EICDetector_LQ</text>
</a>
</g>
</g>
<!-- Node1&#45;&gt;Node5 -->
<g id="edge4" class="edge">
<title>Node1&#45;&gt;Node5</title>
<path fill="none" stroke="#191970" d="M52.297,-370.9186C57.2793,-414.603 75.2854,-517.459 137,-570.5 141.1718,-574.0854 145.8819,-577.0314 150.8876,-579.4477"/>
<polygon fill="#191970" stroke="#191970" points="55.7515,-370.2945 51.2515,-360.7028 48.7879,-371.0072 55.7515,-370.2945"/>
</g>
<!-- Node6 -->
<g id="node6" class="node">
<title>Node6</title>
<g id="a_node6"><a xlink:href="../../d4/df5/Fun4All__G4__EICDetector__LQ__reference_8C.html#a2feefc472f17f90b3cbe74897d049f75" target="_top" xlink:title="Fun4All_G4_EICDetector\l_LQ_reference">
<polygon fill="none" stroke="#000000" points="151,-528.5 151,-560.5 290,-560.5 290,-528.5 151,-528.5"/>
<text text-anchor="start" x="159" y="-547.5" font-family="FreeSans" font-size="10.00" fill="#000000">Fun4All_G4_EICDetector</text>
<text text-anchor="middle" x="220.5" y="-535.5" font-family="FreeSans" font-size="10.00" fill="#000000">_LQ_reference</text>
</a>
</g>
</g>
<!-- Node1&#45;&gt;Node6 -->
<g id="edge5" class="edge">
<title>Node1&#45;&gt;Node6</title>
<path fill="none" stroke="#191970" d="M55.2625,-370.7008C64.6673,-406.1398 89.0024,-479.5363 137,-519.5 141.1865,-522.9857 145.8467,-525.9855 150.7647,-528.567"/>
<polygon fill="#191970" stroke="#191970" points="58.5596,-369.4608 52.7226,-360.6189 51.7717,-371.171 58.5596,-369.4608"/>
</g>
<!-- Node7 -->
<g id="node7" class="node">
<title>Node7</title>
<g id="a_node7"><a xlink:href="../../d3/d51/Fun4All__G4__EICDetector__RICH_8C.html#a5739502b0a7a1ba782c01069f77e933f" target="_top" xlink:title="Fun4All_G4_EICDetector_RICH">
<polygon fill="none" stroke="#000000" points="137,-489.5 137,-509.5 304,-509.5 304,-489.5 137,-489.5"/>
<text text-anchor="middle" x="220.5" y="-496.5" font-family="FreeSans" font-size="10.00" fill="#000000">Fun4All_G4_EICDetector_RICH</text>
</a>
</g>
</g>
<!-- Node1&#45;&gt;Node7 -->
<g id="edge6" class="edge">
<title>Node1&#45;&gt;Node7</title>
<path fill="none" stroke="#191970" d="M57.8848,-369.9349C69.8896,-398.7859 96.4525,-452.5387 137,-480.5 142.2628,-484.1292 148.1135,-487.0753 154.206,-489.4653"/>
<polygon fill="#191970" stroke="#191970" points="61.0851,-368.5113 54.1217,-360.5262 54.5856,-371.1109 61.0851,-368.5113"/>
</g>
<!-- Node8 -->
<g id="node8" class="node">
<title>Node8</title>
<g id="a_node8"><a xlink:href="../../d7/d9e/Fun4All__G4__fsPHENIX_8C.html#af48911d394d2412e817583700f2bbee2" target="_top" xlink:title="Fun4All_G4_fsPHENIX">
<polygon fill="none" stroke="#000000" points="158.5,-450.5 158.5,-470.5 282.5,-470.5 282.5,-450.5 158.5,-450.5"/>
<text text-anchor="middle" x="220.5" y="-457.5" font-family="FreeSans" font-size="10.00" fill="#000000">Fun4All_G4_fsPHENIX</text>
</a>
</g>
</g>
<!-- Node1&#45;&gt;Node8 -->
<g id="edge7" class="edge">
<title>Node1&#45;&gt;Node8</title>
<path fill="none" stroke="#191970" d="M62.8209,-368.9019C77.8258,-389.8122 105.1481,-423.3793 137,-441.5 143.5904,-445.2493 150.8688,-448.2588 158.2997,-450.6744"/>
<polygon fill="#191970" stroke="#191970" points="65.5834,-366.7442 56.994,-360.5415 59.8405,-370.7468 65.5834,-366.7442"/>
</g>
<!-- Node9 -->
<g id="node9" class="node">
<title>Node9</title>
<g id="a_node9"><a xlink:href="../../da/d2f/Fun4All__G4__fsPHENIX__FastSim_8C.html#a66fb850cae5fcaadda23b74a25ce4c9c" target="_top" xlink:title="Fun4All_G4_fsPHENIX\l_FastSim">
<polygon fill="none" stroke="#000000" points="158.5,-399.5 158.5,-431.5 282.5,-431.5 282.5,-399.5 158.5,-399.5"/>
<text text-anchor="start" x="166.5" y="-418.5" font-family="FreeSans" font-size="10.00" fill="#000000">Fun4All_G4_fsPHENIX</text>
<text text-anchor="middle" x="220.5" y="-406.5" font-family="FreeSans" font-size="10.00" fill="#000000">_FastSim</text>
</a>
</g>
</g>
<!-- Node1&#45;&gt;Node9 -->
<g id="edge8" class="edge">
<title>Node1&#45;&gt;Node9</title>
<path fill="none" stroke="#191970" d="M79.2632,-365.0534C95.8864,-373.1458 117.3398,-383.0544 137,-390.5 145.3494,-393.662 154.2854,-396.6945 163.0941,-399.4891"/>
<polygon fill="#191970" stroke="#191970" points="80.6012,-361.8109 70.084,-360.531 77.5075,-368.0902 80.6012,-361.8109"/>
</g>
<!-- Node10 -->
<g id="node10" class="node">
<title>Node10</title>
<g id="a_node10"><a xlink:href="../../d0/da6/Fun4All__G4__fsPHENIX__pi0_8C.html#a023d91d47b678e5d7f1751834aa517c6" target="_top" xlink:title="Fun4All_G4_fsPHENIX_pi0">
<polygon fill="none" stroke="#000000" points="148,-360.5 148,-380.5 293,-380.5 293,-360.5 148,-360.5"/>
<text text-anchor="middle" x="220.5" y="-367.5" font-family="FreeSans" font-size="10.00" fill="#000000">Fun4All_G4_fsPHENIX_pi0</text>
</a>
</g>
</g>
<!-- Node1&#45;&gt;Node10 -->
<g id="edge9" class="edge">
<title>Node1&#45;&gt;Node10</title>
<path fill="none" stroke="#191970" d="M111.2522,-357.6473C123.0971,-359.0408 135.6277,-360.515 147.8133,-361.9486"/>
<polygon fill="#191970" stroke="#191970" points="111.3858,-354.139 101.0453,-356.4465 110.5679,-361.091 111.3858,-354.139"/>
</g>
<!-- Node11 -->
<g id="node11" class="node">
<title>Node11</title>
<g id="a_node11"><a xlink:href="../../d5/d2c/macros_2blob_2master_2macros_2g4simulations_2Fun4All__G4__sPHENIX_8C.html#a6eaaa492d7023ec86c562dc63aa1e5a4" target="_top" xlink:title="Fun4All_G4_sPHENIX">
<polygon fill="none" stroke="#000000" points="160,-321.5 160,-341.5 281,-341.5 281,-321.5 160,-321.5"/>
<text text-anchor="middle" x="220.5" y="-328.5" font-family="FreeSans" font-size="10.00" fill="#000000">Fun4All_G4_sPHENIX</text>
</a>
</g>
</g>
<!-- Node1&#45;&gt;Node11 -->
<g id="edge10" class="edge">
<title>Node1&#45;&gt;Node11</title>
<path fill="none" stroke="#191970" d="M111.245,-343.7109C127.0738,-341.9418 144.1273,-340.0358 159.9463,-338.2678"/>
<polygon fill="#191970" stroke="#191970" points="110.5947,-340.2617 101.0453,-344.8508 111.3722,-347.2183 110.5947,-340.2617"/>
</g>
<!-- Node12 -->
<g id="node12" class="node">
<title>Node12</title>
<g id="a_node12"><a xlink:href="../../d3/de2/Fun4All__G4__sPHENIX__AnaGenFit_8C.html#a9bf3f2f72ed69a17e2d0c1121d48013c" target="_top" xlink:title="Fun4All_G4_sPHENIX\l_AnaGenFit">
<polygon fill="none" stroke="#000000" points="160,-270.5 160,-302.5 281,-302.5 281,-270.5 160,-270.5"/>
<text text-anchor="start" x="168" y="-289.5" font-family="FreeSans" font-size="10.00" fill="#000000">Fun4All_G4_sPHENIX</text>
<text text-anchor="middle" x="220.5" y="-277.5" font-family="FreeSans" font-size="10.00" fill="#000000">_AnaGenFit</text>
</a>
</g>
</g>
<!-- Node1&#45;&gt;Node12 -->
<g id="edge11" class="edge">
<title>Node1&#45;&gt;Node12</title>
<path fill="none" stroke="#191970" d="M80.6941,-336.2412C97.1544,-328.7216 117.9928,-319.6087 137,-312.5 146.2436,-309.0429 156.1764,-305.6651 165.8523,-302.5494"/>
<polygon fill="#191970" stroke="#191970" points="79.1694,-333.0901 71.5554,-340.4574 82.1018,-339.4463 79.1694,-333.0901"/>
</g>
<!-- Node13 -->
<g id="node13" class="node">
<title>Node13</title>
<g id="a_node13"><a xlink:href="../../da/dd0/Fun4All__G4__sPHENIX__photonjet_8C.html#a6f18519e216acc05399e562ea57ea77c" target="_top" xlink:title="Fun4All_G4_sPHENIX\l_photonjet">
<polygon fill="none" stroke="#000000" points="160,-219.5 160,-251.5 281,-251.5 281,-219.5 160,-219.5"/>
<text text-anchor="start" x="168" y="-238.5" font-family="FreeSans" font-size="10.00" fill="#000000">Fun4All_G4_sPHENIX</text>
<text text-anchor="middle" x="220.5" y="-226.5" font-family="FreeSans" font-size="10.00" fill="#000000">_photonjet</text>
</a>
</g>
</g>
<!-- Node1&#45;&gt;Node13 -->
<g id="edge12" class="edge">
<title>Node1&#45;&gt;Node13</title>
<path fill="none" stroke="#191970" d="M63.6493,-332.3122C79.0741,-312.2288 106.4516,-280.261 137,-261.5 143.9865,-257.2093 151.7409,-253.5719 159.6283,-250.5031"/>
<polygon fill="#191970" stroke="#191970" points="60.8102,-330.2644 57.6152,-340.366 66.4123,-334.4616 60.8102,-330.2644"/>
</g>
<!-- Node14 -->
<g id="node14" class="node">
<title>Node14</title>
<g id="a_node14"><a xlink:href="../../da/d85/Fun4All__G4__sPHENIX__photons_8C.html#a02fbbd59878fe1299f58ed187e7214ba" target="_top" xlink:title="Fun4All_G4_sPHENIX\l_photons">
<polygon fill="none" stroke="#000000" points="160,-168.5 160,-200.5 281,-200.5 281,-168.5 160,-168.5"/>
<text text-anchor="start" x="168" y="-187.5" font-family="FreeSans" font-size="10.00" fill="#000000">Fun4All_G4_sPHENIX</text>
<text text-anchor="middle" x="220.5" y="-175.5" font-family="FreeSans" font-size="10.00" fill="#000000">_photons</text>
</a>
</g>
</g>
<!-- Node1&#45;&gt;Node14 -->
<g id="edge13" class="edge">
<title>Node1&#45;&gt;Node14</title>
<path fill="none" stroke="#191970" d="M57.4381,-330.8446C69.1254,-300.5524 95.5977,-242.6064 137,-210.5 143.8389,-205.1966 151.772,-200.9659 159.9729,-197.5931"/>
<polygon fill="#191970" stroke="#191970" points="54.1202,-329.7253 53.9205,-340.3183 60.6825,-332.1619 54.1202,-329.7253"/>
</g>
<!-- Node15 -->
<g id="node15" class="node">
<title>Node15</title>
<g id="a_node15"><a xlink:href="../../de/d55/Fun4All__G4__sPHENIX__truthphotonjet_8C.html#a48a6f4503eaa1b3793d8ae572aa795b9" target="_top" xlink:title="Fun4All_G4_sPHENIX\l_truthphotonjet">
<polygon fill="none" stroke="#000000" points="160,-117.5 160,-149.5 281,-149.5 281,-117.5 160,-117.5"/>
<text text-anchor="start" x="168" y="-136.5" font-family="FreeSans" font-size="10.00" fill="#000000">Fun4All_G4_sPHENIX</text>
<text text-anchor="middle" x="220.5" y="-124.5" font-family="FreeSans" font-size="10.00" fill="#000000">_truthphotonjet</text>
</a>
</g>
</g>
<!-- Node1&#45;&gt;Node15 -->
<g id="edge14" class="edge">
<title>Node1&#45;&gt;Node15</title>
<path fill="none" stroke="#191970" d="M53.9679,-330.4638C61.7237,-291.7171 84.1181,-206.2288 137,-159.5 143.599,-153.6689 151.4939,-149.1454 159.7588,-145.6363"/>
<polygon fill="#191970" stroke="#191970" points="50.491,-330.0151 52.0838,-340.4895 57.3706,-331.308 50.491,-330.0151"/>
</g>
<!-- Node16 -->
<g id="node16" class="node">
<title>Node16</title>
<g id="a_node16"><a xlink:href="../../d4/d65/Fun4All__single__particle_8C.html#a8a492b5dbead494bfdddbebde8a49b0e" target="_top" xlink:title="Fun4All_single_particle">
<polygon fill="none" stroke="#000000" points="154.5,-78.5 154.5,-98.5 286.5,-98.5 286.5,-78.5 154.5,-78.5"/>
<text text-anchor="middle" x="220.5" y="-85.5" font-family="FreeSans" font-size="10.00" fill="#000000">Fun4All_single_particle</text>
</a>
</g>
</g>
<!-- Node1&#45;&gt;Node16 -->
<g id="edge15" class="edge">
<title>Node1&#45;&gt;Node16</title>
<path fill="none" stroke="#191970" d="M51.499,-330.3565C54.9341,-283.8725 70.1193,-168.5096 137,-108.5 142.1037,-103.9206 148.0693,-100.3412 154.4222,-97.5502"/>
<polygon fill="#191970" stroke="#191970" points="48.0033,-330.1797 50.8665,-340.3803 54.9894,-330.6206 48.0033,-330.1797"/>
</g>
<!-- Node17 -->
<g id="node17" class="node">
<title>Node17</title>
<g id="a_node17"><a xlink:href="../../d0/d99/Jin__BJet_8C.html#a36169bfee2ed7efda633944d12aebad9" target="_top" xlink:title="Jin_BJet">
<polygon fill="none" stroke="#000000" points="193,-39.5 193,-59.5 248,-59.5 248,-39.5 193,-39.5"/>
<text text-anchor="middle" x="220.5" y="-46.5" font-family="FreeSans" font-size="10.00" fill="#000000">Jin_BJet</text>
</a>
</g>
</g>
<!-- Node1&#45;&gt;Node17 -->
<g id="edge16" class="edge">
<title>Node1&#45;&gt;Node17</title>
<path fill="none" stroke="#191970" d="M54.0893,-330.0946C64.7477,-271.7686 97.9174,-106.1753 137,-69.5 151.8919,-55.5254 174.7585,-50.7801 192.7996,-49.3882"/>
<polygon fill="#191970" stroke="#191970" points="50.5866,-329.7981 52.2627,-340.2595 57.4762,-331.0362 50.5866,-329.7981"/>
</g>
<!-- Node18 -->
<g id="node18" class="node">
<title>Node18</title>
<g id="a_node18"><a xlink:href="../../dd/db1/Wrapper_8cxx.html#abf1e42281903daa0752c80dd6c879fac" target="_top" xlink:title="Wrapper">
<polygon fill="none" stroke="#000000" points="190.5,-.5 190.5,-20.5 250.5,-20.5 250.5,-.5 190.5,-.5"/>
<text text-anchor="middle" x="220.5" y="-7.5" font-family="FreeSans" font-size="10.00" fill="#000000">Wrapper</text>
</a>
</g>
</g>
<!-- Node1&#45;&gt;Node18 -->
<g id="edge17" class="edge">
<title>Node1&#45;&gt;Node18</title>
<path fill="none" stroke="#191970" d="M53.2553,-330.2412C62.2927,-266.7369 92.9982,-73.2477 137,-30.5 151.0063,-16.8929 172.543,-11.9747 190.2356,-10.416"/>
<polygon fill="#191970" stroke="#191970" points="49.7795,-329.8254 51.8636,-340.2133 56.7123,-330.793 49.7795,-329.8254"/>
</g>
<!-- Node3 -->
<g id="node3" class="node">
<title>Node3</title>
<g id="a_node3"><a xlink:href="../../d3/d7f/Fun_8C.html#af69a3eef3ff244bb51f5740c6ecb5432" target="_top" xlink:title="Fun">
<polygon fill="none" stroke="#000000" points="340,-657.5 340,-677.5 374,-677.5 374,-657.5 340,-657.5"/>
<text text-anchor="middle" x="357" y="-664.5" font-family="FreeSans" font-size="10.00" fill="#000000">Fun</text>
</a>
</g>
</g>
<!-- Node2&#45;&gt;Node3 -->
<g id="edge2" class="edge">
<title>Node2&#45;&gt;Node3</title>
<path fill="none" stroke="#191970" d="M287.6941,-667.5C307.0852,-667.5 326.59,-667.5 339.9452,-667.5"/>
<polygon fill="#191970" stroke="#191970" points="287.5974,-664.0001 277.5974,-667.5 287.5974,-671.0001 287.5974,-664.0001"/>
</g>
</g>
</svg>
