<?xml version="1.0" encoding="UTF-8" standalone="no"?>
<!DOCTYPE svg PUBLIC "-//W3C//DTD SVG 1.1//EN"
 "http://www.w3.org/Graphics/SVG/1.1/DTD/svg11.dtd">
<!-- Generated by graphviz version 2.40.1 (20161225.0304)
 -->
<!-- Title: HCALOuter_Eval Pages: 1 -->
<svg width="379pt" height="647pt"
 viewBox="0.00 0.00 379.00 647.00" xmlns="http://www.w3.org/2000/svg" xmlns:xlink="http://www.w3.org/1999/xlink">
<g id="graph0" class="graph" transform="scale(1 1) rotate(0) translate(4 643)">
<title>HCALOuter_Eval</title>
<!-- Node1 -->
<g id="node1" class="node">
<title>Node1</title>
<polygon fill="#bfbfbf" stroke="#000000" points="0,-321.5 0,-341.5 98,-341.5 98,-321.5 0,-321.5"/>
<text text-anchor="middle" x="49" y="-328.5" font-family="FreeSans" font-size="10.00" fill="#000000">HCALOuter_Eval</text>
</g>
<!-- Node2 -->
<g id="node2" class="node">
<title>Node2</title>
<g id="a_node2"><a xlink:href="../../d3/d7f/Fun_8C.html#af0d3c8a78765149fef9b2beeecfc6279" target="_top" xlink:title="ConfigureDetectors">
<polygon fill="none" stroke="#000000" points="160.5,-618.5 160.5,-638.5 274.5,-638.5 274.5,-618.5 160.5,-618.5"/>
<text text-anchor="middle" x="217.5" y="-625.5" font-family="FreeSans" font-size="10.00" fill="#000000">ConfigureDetectors</text>
</a>
</g>
</g>
<!-- Node1&#45;&gt;Node2 -->
<g id="edge1" class="edge">
<title>Node1&#45;&gt;Node2</title>
<path fill="none" stroke="#191970" d="M52.4874,-351.7074C62.8536,-409.4642 95.186,-573.4205 134,-609.5 141.2958,-616.2818 150.4921,-620.8151 160.0945,-623.8125"/>
<polygon fill="#191970" stroke="#191970" points="55.8958,-350.8812 50.7116,-341.6413 49.0022,-352.0974 55.8958,-350.8812"/>
</g>
<!-- Node4 -->
<g id="node4" class="node">
<title>Node4</title>
<g id="a_node4"><a xlink:href="../../da/d02/Fun4All__G4__EICDetector_8C.html#afbe82cefa1d1fd031d9a8586b7bb68c6" target="_top" xlink:title="Fun4All_G4_EICDetector">
<polygon fill="none" stroke="#000000" points="148,-579.5 148,-599.5 287,-599.5 287,-579.5 148,-579.5"/>
<text text-anchor="middle" x="217.5" y="-586.5" font-family="FreeSans" font-size="10.00" fill="#000000">Fun4All_G4_EICDetector</text>
</a>
</g>
</g>
<!-- Node1&#45;&gt;Node4 -->
<g id="edge3" class="edge">
<title>Node1&#45;&gt;Node4</title>
<path fill="none" stroke="#191970" d="M49.9227,-351.7352C53.1709,-397.9361 67.8374,-511.7155 134,-570.5 138.1122,-574.1536 142.78,-577.148 147.7568,-579.5974"/>
<polygon fill="#191970" stroke="#191970" points="53.4029,-351.2957 49.3185,-341.5198 46.4152,-351.709 53.4029,-351.2957"/>
</g>
<!-- Node5 -->
<g id="node5" class="node">
<title>Node5</title>
<g id="a_node5"><a xlink:href="../../d4/df5/Fun4All__G4__EICDetector__LQ__reference_8C.html#a2feefc472f17f90b3cbe74897d049f75" target="_top" xlink:title="Fun4All_G4_EICDetector\l_LQ_reference">
<polygon fill="none" stroke="#000000" points="148,-528.5 148,-560.5 287,-560.5 287,-528.5 148,-528.5"/>
<text text-anchor="start" x="156" y="-547.5" font-family="FreeSans" font-size="10.00" fill="#000000">Fun4All_G4_EICDetector</text>
<text text-anchor="middle" x="217.5" y="-535.5" font-family="FreeSans" font-size="10.00" fill="#000000">_LQ_reference</text>
</a>
</g>
</g>
<!-- Node1&#45;&gt;Node5 -->
<g id="edge4" class="edge">
<title>Node1&#45;&gt;Node5</title>
<path fill="none" stroke="#191970" d="M52.4602,-351.8128C60.0851,-390.2873 81.9721,-474.0021 134,-519.5 138.2147,-523.1857 142.9554,-526.3283 147.9819,-529.0077"/>
<polygon fill="#191970" stroke="#191970" points="55.8718,-351.0142 50.6038,-341.8219 48.9895,-352.293 55.8718,-351.0142"/>
</g>
<!-- Node6 -->
<g id="node6" class="node">
<title>Node6</title>
<g id="a_node6"><a xlink:href="../../d3/d51/Fun4All__G4__EICDetector__RICH_8C.html#a5739502b0a7a1ba782c01069f77e933f" target="_top" xlink:title="Fun4All_G4_EICDetector_RICH">
<polygon fill="none" stroke="#000000" points="134,-489.5 134,-509.5 301,-509.5 301,-489.5 134,-489.5"/>
<text text-anchor="middle" x="217.5" y="-496.5" font-family="FreeSans" font-size="10.00" fill="#000000">Fun4All_G4_EICDetector_RICH</text>
</a>
</g>
</g>
<!-- Node1&#45;&gt;Node6 -->
<g id="edge5" class="edge">
<title>Node1&#45;&gt;Node6</title>
<path fill="none" stroke="#191970" d="M54.6138,-351.4404C64.8022,-383.8164 89.5107,-447.5101 134,-480.5 138.8963,-484.1307 144.3659,-487.0858 150.0998,-489.4885"/>
<polygon fill="#191970" stroke="#191970" points="57.933,-350.3239 51.7076,-341.751 51.2281,-352.335 57.933,-350.3239"/>
</g>
<!-- Node7 -->
<g id="node7" class="node">
<title>Node7</title>
<g id="a_node7"><a xlink:href="../../d7/d9e/Fun4All__G4__fsPHENIX_8C.html#af48911d394d2412e817583700f2bbee2" target="_top" xlink:title="Fun4All_G4_fsPHENIX">
<polygon fill="none" stroke="#000000" points="155.5,-450.5 155.5,-470.5 279.5,-470.5 279.5,-450.5 155.5,-450.5"/>
<text text-anchor="middle" x="217.5" y="-457.5" font-family="FreeSans" font-size="10.00" fill="#000000">Fun4All_G4_fsPHENIX</text>
</a>
</g>
</g>
<!-- Node1&#45;&gt;Node7 -->
<g id="edge6" class="edge">
<title>Node1&#45;&gt;Node7</title>
<path fill="none" stroke="#191970" d="M58.4752,-350.783C71.7835,-375.76 98.4237,-418.7809 134,-441.5 140.5156,-445.6609 147.8295,-448.9154 155.3484,-451.46"/>
<polygon fill="#191970" stroke="#191970" points="61.4316,-348.8788 53.7451,-341.5871 55.2068,-352.0806 61.4316,-348.8788"/>
</g>
<!-- Node8 -->
<g id="node8" class="node">
<title>Node8</title>
<g id="a_node8"><a xlink:href="../../da/d2f/Fun4All__G4__fsPHENIX__FastSim_8C.html#a66fb850cae5fcaadda23b74a25ce4c9c" target="_top" xlink:title="Fun4All_G4_fsPHENIX\l_FastSim">
<polygon fill="none" stroke="#000000" points="155.5,-399.5 155.5,-431.5 279.5,-431.5 279.5,-399.5 155.5,-399.5"/>
<text text-anchor="start" x="163.5" y="-418.5" font-family="FreeSans" font-size="10.00" fill="#000000">Fun4All_G4_fsPHENIX</text>
<text text-anchor="middle" x="217.5" y="-406.5" font-family="FreeSans" font-size="10.00" fill="#000000">_FastSim</text>
</a>
</g>
</g>
<!-- Node1&#45;&gt;Node8 -->
<g id="edge7" class="edge">
<title>Node1&#45;&gt;Node8</title>
<path fill="none" stroke="#191970" d="M68.7733,-347.9372C85.3232,-361.0053 110.0195,-378.9505 134,-390.5 140.8168,-393.7831 148.156,-396.7374 155.5536,-399.3661"/>
<polygon fill="#191970" stroke="#191970" points="70.8932,-345.1506 60.9083,-341.6076 66.5045,-350.6039 70.8932,-345.1506"/>
</g>
<!-- Node9 -->
<g id="node9" class="node">
<title>Node9</title>
<g id="a_node9"><a xlink:href="../../d0/da6/Fun4All__G4__fsPHENIX__pi0_8C.html#a023d91d47b678e5d7f1751834aa517c6" target="_top" xlink:title="Fun4All_G4_fsPHENIX_pi0">
<polygon fill="none" stroke="#000000" points="145,-360.5 145,-380.5 290,-380.5 290,-360.5 145,-360.5"/>
<text text-anchor="middle" x="217.5" y="-367.5" font-family="FreeSans" font-size="10.00" fill="#000000">Fun4All_G4_fsPHENIX_pi0</text>
</a>
</g>
</g>
<!-- Node1&#45;&gt;Node9 -->
<g id="edge8" class="edge">
<title>Node1&#45;&gt;Node9</title>
<path fill="none" stroke="#191970" d="M101.1445,-343.8332C111.9997,-346.3827 123.3705,-349.0402 134,-351.5 146.6013,-354.4162 160.2814,-357.5446 172.8517,-360.4043"/>
<polygon fill="#191970" stroke="#191970" points="101.8922,-340.4136 91.3564,-341.5309 100.2893,-347.2277 101.8922,-340.4136"/>
</g>
<!-- Node10 -->
<g id="node10" class="node">
<title>Node10</title>
<g id="a_node10"><a xlink:href="../../d5/d2c/macros_2blob_2master_2macros_2g4simulations_2Fun4All__G4__sPHENIX_8C.html#a6eaaa492d7023ec86c562dc63aa1e5a4" target="_top" xlink:title="Fun4All_G4_sPHENIX">
<polygon fill="none" stroke="#000000" points="157,-321.5 157,-341.5 278,-341.5 278,-321.5 157,-321.5"/>
<text text-anchor="middle" x="217.5" y="-328.5" font-family="FreeSans" font-size="10.00" fill="#000000">Fun4All_G4_sPHENIX</text>
</a>
</g>
</g>
<!-- Node1&#45;&gt;Node10 -->
<g id="edge9" class="edge">
<title>Node1&#45;&gt;Node10</title>
<path fill="none" stroke="#191970" d="M108.3227,-331.5C124.0609,-331.5 141.0744,-331.5 156.8806,-331.5"/>
<polygon fill="#191970" stroke="#191970" points="108.1902,-328.0001 98.1901,-331.5 108.1901,-335.0001 108.1902,-328.0001"/>
</g>
<!-- Node11 -->
<g id="node11" class="node">
<title>Node11</title>
<g id="a_node11"><a xlink:href="../../d3/de2/Fun4All__G4__sPHENIX__AnaGenFit_8C.html#a9bf3f2f72ed69a17e2d0c1121d48013c" target="_top" xlink:title="Fun4All_G4_sPHENIX\l_AnaGenFit">
<polygon fill="none" stroke="#000000" points="157,-270.5 157,-302.5 278,-302.5 278,-270.5 157,-270.5"/>
<text text-anchor="start" x="165" y="-289.5" font-family="FreeSans" font-size="10.00" fill="#000000">Fun4All_G4_sPHENIX</text>
<text text-anchor="middle" x="217.5" y="-277.5" font-family="FreeSans" font-size="10.00" fill="#000000">_AnaGenFit</text>
</a>
</g>
</g>
<!-- Node1&#45;&gt;Node11 -->
<g id="edge10" class="edge">
<title>Node1&#45;&gt;Node11</title>
<path fill="none" stroke="#191970" d="M96.6567,-318.7727C115.5099,-313.7377 137.3975,-307.8924 157.3237,-302.5708"/>
<polygon fill="#191970" stroke="#191970" points="95.573,-315.4394 86.8147,-321.4011 97.3792,-322.2023 95.573,-315.4394"/>
</g>
<!-- Node12 -->
<g id="node12" class="node">
<title>Node12</title>
<g id="a_node12"><a xlink:href="../../da/dd0/Fun4All__G4__sPHENIX__photonjet_8C.html#a6f18519e216acc05399e562ea57ea77c" target="_top" xlink:title="Fun4All_G4_sPHENIX\l_photonjet">
<polygon fill="none" stroke="#000000" points="157,-219.5 157,-251.5 278,-251.5 278,-219.5 157,-219.5"/>
<text text-anchor="start" x="165" y="-238.5" font-family="FreeSans" font-size="10.00" fill="#000000">Fun4All_G4_sPHENIX</text>
<text text-anchor="middle" x="217.5" y="-226.5" font-family="FreeSans" font-size="10.00" fill="#000000">_photonjet</text>
</a>
</g>
</g>
<!-- Node1&#45;&gt;Node12 -->
<g id="edge11" class="edge">
<title>Node1&#45;&gt;Node12</title>
<path fill="none" stroke="#191970" d="M65.6405,-314.4135C81.8039,-298.6887 107.6944,-275.7138 134,-261.5 141.0796,-257.6746 148.8068,-254.3188 156.61,-251.402"/>
<polygon fill="#191970" stroke="#191970" points="63.1549,-311.9494 58.5279,-321.4805 68.0887,-316.915 63.1549,-311.9494"/>
</g>
<!-- Node13 -->
<g id="node13" class="node">
<title>Node13</title>
<g id="a_node13"><a xlink:href="../../da/d85/Fun4All__G4__sPHENIX__photons_8C.html#a02fbbd59878fe1299f58ed187e7214ba" target="_top" xlink:title="Fun4All_G4_sPHENIX\l_photons">
<polygon fill="none" stroke="#000000" points="157,-168.5 157,-200.5 278,-200.5 278,-168.5 157,-168.5"/>
<text text-anchor="start" x="165" y="-187.5" font-family="FreeSans" font-size="10.00" fill="#000000">Fun4All_G4_sPHENIX</text>
<text text-anchor="middle" x="217.5" y="-175.5" font-family="FreeSans" font-size="10.00" fill="#000000">_photons</text>
</a>
</g>
</g>
<!-- Node1&#45;&gt;Node13 -->
<g id="edge12" class="edge">
<title>Node1&#45;&gt;Node13</title>
<path fill="none" stroke="#191970" d="M57.5321,-312.2491C70.3386,-285.5314 97.0319,-237.4617 134,-210.5 140.8696,-205.4899 148.7293,-201.4275 156.8173,-198.1381"/>
<polygon fill="#191970" stroke="#191970" points="54.3413,-310.8103 53.3113,-321.355 60.6922,-313.7542 54.3413,-310.8103"/>
</g>
<!-- Node14 -->
<g id="node14" class="node">
<title>Node14</title>
<g id="a_node14"><a xlink:href="../../de/d55/Fun4All__G4__sPHENIX__truthphotonjet_8C.html#a48a6f4503eaa1b3793d8ae572aa795b9" target="_top" xlink:title="Fun4All_G4_sPHENIX\l_truthphotonjet">
<polygon fill="none" stroke="#000000" points="157,-117.5 157,-149.5 278,-149.5 278,-117.5 157,-117.5"/>
<text text-anchor="start" x="165" y="-136.5" font-family="FreeSans" font-size="10.00" fill="#000000">Fun4All_G4_sPHENIX</text>
<text text-anchor="middle" x="217.5" y="-124.5" font-family="FreeSans" font-size="10.00" fill="#000000">_truthphotonjet</text>
</a>
</g>
</g>
<!-- Node1&#45;&gt;Node14 -->
<g id="edge13" class="edge">
<title>Node1&#45;&gt;Node14</title>
<path fill="none" stroke="#191970" d="M53.3961,-311.4697C62.2872,-275.6833 85.7968,-200.6675 134,-159.5 140.6964,-153.781 148.6446,-149.3188 156.9336,-145.8376"/>
<polygon fill="#191970" stroke="#191970" points="49.9818,-310.6993 51.0949,-321.2355 56.7952,-312.3048 49.9818,-310.6993"/>
</g>
<!-- Node15 -->
<g id="node15" class="node">
<title>Node15</title>
<g id="a_node15"><a xlink:href="../../d4/d65/Fun4All__single__particle_8C.html#a8a492b5dbead494bfdddbebde8a49b0e" target="_top" xlink:title="Fun4All_single_particle">
<polygon fill="none" stroke="#000000" points="151.5,-78.5 151.5,-98.5 283.5,-98.5 283.5,-78.5 151.5,-78.5"/>
<text text-anchor="middle" x="217.5" y="-85.5" font-family="FreeSans" font-size="10.00" fill="#000000">Fun4All_single_particle</text>
</a>
</g>
</g>
<!-- Node1&#45;&gt;Node15 -->
<g id="edge14" class="edge">
<title>Node1&#45;&gt;Node15</title>
<path fill="none" stroke="#191970" d="M50.5734,-311.1539C55.1059,-267.1727 72.1526,-162.8387 134,-108.5 139.0393,-104.0725 144.887,-100.5836 151.1032,-97.8401"/>
<polygon fill="#191970" stroke="#191970" points="47.0805,-310.9169 49.6529,-321.1947 54.0513,-311.556 47.0805,-310.9169"/>
</g>
<!-- Node16 -->
<g id="node16" class="node">
<title>Node16</title>
<g id="a_node16"><a xlink:href="../../d0/d99/Jin__BJet_8C.html#a36169bfee2ed7efda633944d12aebad9" target="_top" xlink:title="Jin_BJet">
<polygon fill="none" stroke="#000000" points="190,-39.5 190,-59.5 245,-59.5 245,-39.5 190,-39.5"/>
<text text-anchor="middle" x="217.5" y="-46.5" font-family="FreeSans" font-size="10.00" fill="#000000">Jin_BJet</text>
</a>
</g>
</g>
<!-- Node1&#45;&gt;Node16 -->
<g id="edge15" class="edge">
<title>Node1&#45;&gt;Node16</title>
<path fill="none" stroke="#191970" d="M52.8917,-311.3832C63.9906,-256.0364 97.3686,-103.3589 134,-69.5 148.9969,-55.6382 171.8562,-50.885 189.8676,-49.4613"/>
<polygon fill="#191970" stroke="#191970" points="49.4241,-310.8772 50.9212,-321.3658 56.2916,-312.2329 49.4241,-310.8772"/>
</g>
<!-- Node17 -->
<g id="node17" class="node">
<title>Node17</title>
<g id="a_node17"><a xlink:href="../../dd/db1/Wrapper_8cxx.html#abf1e42281903daa0752c80dd6c879fac" target="_top" xlink:title="Wrapper">
<polygon fill="none" stroke="#000000" points="187.5,-.5 187.5,-20.5 247.5,-20.5 247.5,-.5 187.5,-.5"/>
<text text-anchor="middle" x="217.5" y="-7.5" font-family="FreeSans" font-size="10.00" fill="#000000">Wrapper</text>
</a>
</g>
</g>
<!-- Node1&#45;&gt;Node17 -->
<g id="edge16" class="edge">
<title>Node1&#45;&gt;Node17</title>
<path fill="none" stroke="#191970" d="M52.0158,-311.2567C61.493,-250.3181 92.5274,-70.3407 134,-30.5 148.0824,-16.9717 169.6173,-12.0517 187.29,-10.4723"/>
<polygon fill="#191970" stroke="#191970" points="48.5488,-310.7757 50.4994,-321.1894 55.4686,-311.8321 48.5488,-310.7757"/>
</g>
<!-- Node3 -->
<g id="node3" class="node">
<title>Node3</title>
<g id="a_node3"><a xlink:href="../../d3/d7f/Fun_8C.html#af69a3eef3ff244bb51f5740c6ecb5432" target="_top" xlink:title="Fun">
<polygon fill="none" stroke="#000000" points="337,-618.5 337,-638.5 371,-638.5 371,-618.5 337,-618.5"/>
<text text-anchor="middle" x="354" y="-625.5" font-family="FreeSans" font-size="10.00" fill="#000000">Fun</text>
</a>
</g>
</g>
<!-- Node2&#45;&gt;Node3 -->
<g id="edge2" class="edge">
<title>Node2&#45;&gt;Node3</title>
<path fill="none" stroke="#191970" d="M284.6941,-628.5C304.0852,-628.5 323.59,-628.5 336.9452,-628.5"/>
<polygon fill="#191970" stroke="#191970" points="284.5974,-625.0001 274.5974,-628.5 284.5974,-632.0001 284.5974,-625.0001"/>
</g>
</g>
</svg>
