<?xml version="1.0" encoding="UTF-8" standalone="no"?>
<!DOCTYPE svg PUBLIC "-//W3C//DTD SVG 1.1//EN"
 "http://www.w3.org/Graphics/SVG/1.1/DTD/svg11.dtd">
<!-- Generated by graphviz version 2.40.1 (20161225.0304)
 -->
<!-- Title: HCALOuter_Clusters Pages: 1 -->
<svg width="399pt" height="686pt"
 viewBox="0.00 0.00 399.00 686.00" xmlns="http://www.w3.org/2000/svg" xmlns:xlink="http://www.w3.org/1999/xlink">
<g id="graph0" class="graph" transform="scale(1 1) rotate(0) translate(4 682)">
<title>HCALOuter_Clusters</title>
<!-- Node1 -->
<g id="node1" class="node">
<title>Node1</title>
<polygon fill="#bfbfbf" stroke="#000000" points="0,-340.5 0,-360.5 118,-360.5 118,-340.5 0,-340.5"/>
<text text-anchor="middle" x="59" y="-347.5" font-family="FreeSans" font-size="10.00" fill="#000000">HCALOuter_Clusters</text>
</g>
<!-- Node2 -->
<g id="node2" class="node">
<title>Node2</title>
<g id="a_node2"><a xlink:href="../../d3/d7f/Fun_8C.html#af0d3c8a78765149fef9b2beeecfc6279" target="_top" xlink:title="ConfigureDetectors">
<polygon fill="none" stroke="#000000" points="180.5,-657.5 180.5,-677.5 294.5,-677.5 294.5,-657.5 180.5,-657.5"/>
<text text-anchor="middle" x="237.5" y="-664.5" font-family="FreeSans" font-size="10.00" fill="#000000">ConfigureDetectors</text>
</a>
</g>
</g>
<!-- Node1&#45;&gt;Node2 -->
<g id="edge1" class="edge">
<title>Node1&#45;&gt;Node2</title>
<path fill="none" stroke="#191970" d="M62.7278,-370.5898C74.3427,-431.0591 111.646,-609.5963 154,-648.5 161.3359,-655.2383 170.5514,-659.751 180.1602,-662.7414"/>
<polygon fill="#191970" stroke="#191970" points="66.161,-369.9079 60.8626,-360.7331 59.2831,-371.2095 66.161,-369.9079"/>
</g>
<!-- Node4 -->
<g id="node4" class="node">
<title>Node4</title>
<g id="a_node4"><a xlink:href="../../da/d02/Fun4All__G4__EICDetector_8C.html#afbe82cefa1d1fd031d9a8586b7bb68c6" target="_top" xlink:title="Fun4All_G4_EICDetector">
<polygon fill="none" stroke="#000000" points="168,-618.5 168,-638.5 307,-638.5 307,-618.5 168,-618.5"/>
<text text-anchor="middle" x="237.5" y="-625.5" font-family="FreeSans" font-size="10.00" fill="#000000">Fun4All_G4_EICDetector</text>
</a>
</g>
</g>
<!-- Node1&#45;&gt;Node4 -->
<g id="edge3" class="edge">
<title>Node1&#45;&gt;Node4</title>
<path fill="none" stroke="#191970" d="M60.1309,-370.7982C64.0027,-419.7928 80.9251,-545.2159 154,-609.5 158.1302,-613.1333 162.8107,-616.1132 167.7962,-618.5528"/>
<polygon fill="#191970" stroke="#191970" points="63.6048,-370.2964 59.4291,-360.5592 56.6212,-370.7751 63.6048,-370.2964"/>
</g>
<!-- Node5 -->
<g id="node5" class="node">
<title>Node5</title>
<g id="a_node5"><a xlink:href="../../dd/d2a/Fun4All__G4__EICDetector__LQ_8C.html#aaa01242fd6e77ca43a9d49a6d46008e4" target="_top" xlink:title="Fun4All_G4_EICDetector_LQ">
<polygon fill="none" stroke="#000000" points="159.5,-579.5 159.5,-599.5 315.5,-599.5 315.5,-579.5 159.5,-579.5"/>
<text text-anchor="middle" x="237.5" y="-586.5" font-family="FreeSans" font-size="10.00" fill="#000000">Fun4All_G4_EICDetector_LQ</text>
</a>
</g>
</g>
<!-- Node1&#45;&gt;Node5 -->
<g id="edge4" class="edge">
<title>Node1&#45;&gt;Node5</title>
<path fill="none" stroke="#191970" d="M61.5924,-370.6877C68.3081,-414.3054 90.4253,-517.6597 154,-570.5 158.3447,-574.1111 163.2394,-577.0688 168.4251,-579.4875"/>
<polygon fill="#191970" stroke="#191970" points="65.0488,-370.1332 60.1715,-360.7278 58.119,-371.1219 65.0488,-370.1332"/>
</g>
<!-- Node6 -->
<g id="node6" class="node">
<title>Node6</title>
<g id="a_node6"><a xlink:href="../../d4/df5/Fun4All__G4__EICDetector__LQ__reference_8C.html#a2feefc472f17f90b3cbe74897d049f75" target="_top" xlink:title="Fun4All_G4_EICDetector\l_LQ_reference">
<polygon fill="none" stroke="#000000" points="168,-528.5 168,-560.5 307,-560.5 307,-528.5 168,-528.5"/>
<text text-anchor="start" x="176" y="-547.5" font-family="FreeSans" font-size="10.00" fill="#000000">Fun4All_G4_EICDetector</text>
<text text-anchor="middle" x="237.5" y="-535.5" font-family="FreeSans" font-size="10.00" fill="#000000">_LQ_reference</text>
</a>
</g>
</g>
<!-- Node1&#45;&gt;Node6 -->
<g id="edge5" class="edge">
<title>Node1&#45;&gt;Node6</title>
<path fill="none" stroke="#191970" d="M64.6752,-370.2661C75.8299,-405.5645 103.9832,-479.4819 154,-519.5 158.2537,-522.9034 162.9623,-525.8439 167.9137,-528.3845"/>
<polygon fill="#191970" stroke="#191970" points="68.005,-369.1857 61.7537,-360.6316 61.3062,-371.217 68.005,-369.1857"/>
</g>
<!-- Node7 -->
<g id="node7" class="node">
<title>Node7</title>
<g id="a_node7"><a xlink:href="../../d3/d51/Fun4All__G4__EICDetector__RICH_8C.html#a5739502b0a7a1ba782c01069f77e933f" target="_top" xlink:title="Fun4All_G4_EICDetector_RICH">
<polygon fill="none" stroke="#000000" points="154,-489.5 154,-509.5 321,-509.5 321,-489.5 154,-489.5"/>
<text text-anchor="middle" x="237.5" y="-496.5" font-family="FreeSans" font-size="10.00" fill="#000000">Fun4All_G4_EICDetector_RICH</text>
</a>
</g>
</g>
<!-- Node1&#45;&gt;Node7 -->
<g id="edge6" class="edge">
<title>Node1&#45;&gt;Node7</title>
<path fill="none" stroke="#191970" d="M67.6408,-369.9488C81.5128,-398.8178 111.5658,-452.5936 154,-480.5 159.4655,-484.0943 165.519,-487.0144 171.7968,-489.3858"/>
<polygon fill="#191970" stroke="#191970" points="70.6551,-368.1298 63.2691,-360.5338 64.3061,-371.0778 70.6551,-368.1298"/>
</g>
<!-- Node8 -->
<g id="node8" class="node">
<title>Node8</title>
<g id="a_node8"><a xlink:href="../../d7/d9e/Fun4All__G4__fsPHENIX_8C.html#af48911d394d2412e817583700f2bbee2" target="_top" xlink:title="Fun4All_G4_fsPHENIX">
<polygon fill="none" stroke="#000000" points="175.5,-450.5 175.5,-470.5 299.5,-470.5 299.5,-450.5 175.5,-450.5"/>
<text text-anchor="middle" x="237.5" y="-457.5" font-family="FreeSans" font-size="10.00" fill="#000000">Fun4All_G4_fsPHENIX</text>
</a>
</g>
</g>
<!-- Node1&#45;&gt;Node8 -->
<g id="edge7" class="edge">
<title>Node1&#45;&gt;Node8</title>
<path fill="none" stroke="#191970" d="M72.7199,-368.5938C89.5433,-389.4568 120.0386,-423.2186 154,-441.5 160.6764,-445.0939 168.0066,-448.0099 175.4651,-450.3755"/>
<polygon fill="#191970" stroke="#191970" points="75.3085,-366.2234 66.3767,-360.525 69.8054,-370.5496 75.3085,-366.2234"/>
</g>
<!-- Node9 -->
<g id="node9" class="node">
<title>Node9</title>
<g id="a_node9"><a xlink:href="../../da/d2f/Fun4All__G4__fsPHENIX__FastSim_8C.html#a66fb850cae5fcaadda23b74a25ce4c9c" target="_top" xlink:title="Fun4All_G4_fsPHENIX\l_FastSim">
<polygon fill="none" stroke="#000000" points="175.5,-399.5 175.5,-431.5 299.5,-431.5 299.5,-399.5 175.5,-399.5"/>
<text text-anchor="start" x="183.5" y="-418.5" font-family="FreeSans" font-size="10.00" fill="#000000">Fun4All_G4_fsPHENIX</text>
<text text-anchor="middle" x="237.5" y="-406.5" font-family="FreeSans" font-size="10.00" fill="#000000">_FastSim</text>
</a>
</g>
</g>
<!-- Node1&#45;&gt;Node9 -->
<g id="edge8" class="edge">
<title>Node1&#45;&gt;Node9</title>
<path fill="none" stroke="#191970" d="M90.3327,-364.6953C108.6928,-372.76 132.442,-382.7596 154,-390.5 162.5453,-393.5682 171.6717,-396.5715 180.6376,-399.3717"/>
<polygon fill="#191970" stroke="#191970" points="91.5602,-361.411 80.9997,-360.5589 88.7239,-367.8106 91.5602,-361.411"/>
</g>
<!-- Node10 -->
<g id="node10" class="node">
<title>Node10</title>
<g id="a_node10"><a xlink:href="../../d0/da6/Fun4All__G4__fsPHENIX__pi0_8C.html#a023d91d47b678e5d7f1751834aa517c6" target="_top" xlink:title="Fun4All_G4_fsPHENIX_pi0">
<polygon fill="none" stroke="#000000" points="165,-360.5 165,-380.5 310,-380.5 310,-360.5 165,-360.5"/>
<text text-anchor="middle" x="237.5" y="-367.5" font-family="FreeSans" font-size="10.00" fill="#000000">Fun4All_G4_fsPHENIX_pi0</text>
</a>
</g>
</g>
<!-- Node1&#45;&gt;Node10 -->
<g id="edge9" class="edge">
<title>Node1&#45;&gt;Node10</title>
<path fill="none" stroke="#191970" d="M128.3811,-358.2738C140.384,-359.6187 152.8919,-361.0201 164.9756,-362.374"/>
<polygon fill="#191970" stroke="#191970" points="128.7655,-354.795 118.4379,-357.1597 127.986,-361.7515 128.7655,-354.795"/>
</g>
<!-- Node11 -->
<g id="node11" class="node">
<title>Node11</title>
<g id="a_node11"><a xlink:href="../../d5/d2c/macros_2blob_2master_2macros_2g4simulations_2Fun4All__G4__sPHENIX_8C.html#a6eaaa492d7023ec86c562dc63aa1e5a4" target="_top" xlink:title="Fun4All_G4_sPHENIX">
<polygon fill="none" stroke="#000000" points="177,-321.5 177,-341.5 298,-341.5 298,-321.5 177,-321.5"/>
<text text-anchor="middle" x="237.5" y="-328.5" font-family="FreeSans" font-size="10.00" fill="#000000">Fun4All_G4_sPHENIX</text>
</a>
</g>
</g>
<!-- Node1&#45;&gt;Node11 -->
<g id="edge10" class="edge">
<title>Node1&#45;&gt;Node11</title>
<path fill="none" stroke="#191970" d="M128.7218,-343.0786C144.5952,-341.389 161.3352,-339.6072 176.7976,-337.9613"/>
<polygon fill="#191970" stroke="#191970" points="128.0113,-339.6344 118.4379,-344.1733 128.7522,-346.5951 128.0113,-339.6344"/>
</g>
<!-- Node12 -->
<g id="node12" class="node">
<title>Node12</title>
<g id="a_node12"><a xlink:href="../../d3/de2/Fun4All__G4__sPHENIX__AnaGenFit_8C.html#a9bf3f2f72ed69a17e2d0c1121d48013c" target="_top" xlink:title="Fun4All_G4_sPHENIX\l_AnaGenFit">
<polygon fill="none" stroke="#000000" points="177,-270.5 177,-302.5 298,-302.5 298,-270.5 177,-270.5"/>
<text text-anchor="start" x="185" y="-289.5" font-family="FreeSans" font-size="10.00" fill="#000000">Fun4All_G4_sPHENIX</text>
<text text-anchor="middle" x="237.5" y="-277.5" font-family="FreeSans" font-size="10.00" fill="#000000">_AnaGenFit</text>
</a>
</g>
</g>
<!-- Node1&#45;&gt;Node12 -->
<g id="edge11" class="edge">
<title>Node1&#45;&gt;Node12</title>
<path fill="none" stroke="#191970" d="M91.9044,-336.5976C110.0813,-329.1054 133.1415,-319.9062 154,-312.5 163.5863,-309.0962 173.8742,-305.6932 183.8399,-302.5236"/>
<polygon fill="#191970" stroke="#191970" points="90.513,-333.3855 82.6184,-340.4513 93.1962,-339.8509 90.513,-333.3855"/>
</g>
<!-- Node13 -->
<g id="node13" class="node">
<title>Node13</title>
<g id="a_node13"><a xlink:href="../../da/dd0/Fun4All__G4__sPHENIX__photonjet_8C.html#a6f18519e216acc05399e562ea57ea77c" target="_top" xlink:title="Fun4All_G4_sPHENIX\l_photonjet">
<polygon fill="none" stroke="#000000" points="177,-219.5 177,-251.5 298,-251.5 298,-219.5 177,-219.5"/>
<text text-anchor="start" x="185" y="-238.5" font-family="FreeSans" font-size="10.00" fill="#000000">Fun4All_G4_sPHENIX</text>
<text text-anchor="middle" x="237.5" y="-226.5" font-family="FreeSans" font-size="10.00" fill="#000000">_photonjet</text>
</a>
</g>
</g>
<!-- Node1&#45;&gt;Node13 -->
<g id="edge12" class="edge">
<title>Node1&#45;&gt;Node13</title>
<path fill="none" stroke="#191970" d="M73.598,-332.6402C90.8492,-312.6283 121.3605,-280.5072 154,-261.5 161.0851,-257.3741 168.8964,-253.832 176.8124,-250.8109"/>
<polygon fill="#191970" stroke="#191970" points="70.8228,-330.5019 67.0489,-340.4019 76.1728,-335.0161 70.8228,-330.5019"/>
</g>
<!-- Node14 -->
<g id="node14" class="node">
<title>Node14</title>
<g id="a_node14"><a xlink:href="../../da/d85/Fun4All__G4__sPHENIX__photons_8C.html#a02fbbd59878fe1299f58ed187e7214ba" target="_top" xlink:title="Fun4All_G4_sPHENIX\l_photons">
<polygon fill="none" stroke="#000000" points="177,-168.5 177,-200.5 298,-200.5 298,-168.5 177,-168.5"/>
<text text-anchor="start" x="185" y="-187.5" font-family="FreeSans" font-size="10.00" fill="#000000">Fun4All_G4_sPHENIX</text>
<text text-anchor="middle" x="237.5" y="-175.5" font-family="FreeSans" font-size="10.00" fill="#000000">_photons</text>
</a>
</g>
</g>
<!-- Node1&#45;&gt;Node14 -->
<g id="edge13" class="edge">
<title>Node1&#45;&gt;Node14</title>
<path fill="none" stroke="#191970" d="M67.1533,-330.8408C80.7093,-300.5436 110.7389,-242.5909 154,-210.5 160.8288,-205.4344 168.6656,-201.3409 176.7426,-198.0366"/>
<polygon fill="#191970" stroke="#191970" points="63.8122,-329.7488 63.0507,-340.3162 70.2359,-332.5301 63.8122,-329.7488"/>
</g>
<!-- Node15 -->
<g id="node15" class="node">
<title>Node15</title>
<g id="a_node15"><a xlink:href="../../de/d55/Fun4All__G4__sPHENIX__truthphotonjet_8C.html#a48a6f4503eaa1b3793d8ae572aa795b9" target="_top" xlink:title="Fun4All_G4_sPHENIX\l_truthphotonjet">
<polygon fill="none" stroke="#000000" points="177,-117.5 177,-149.5 298,-149.5 298,-117.5 177,-117.5"/>
<text text-anchor="start" x="185" y="-136.5" font-family="FreeSans" font-size="10.00" fill="#000000">Fun4All_G4_sPHENIX</text>
<text text-anchor="middle" x="237.5" y="-124.5" font-family="FreeSans" font-size="10.00" fill="#000000">_truthphotonjet</text>
</a>
</g>
</g>
<!-- Node1&#45;&gt;Node15 -->
<g id="edge14" class="edge">
<title>Node1&#45;&gt;Node15</title>
<path fill="none" stroke="#191970" d="M63.4136,-330.4335C72.988,-291.6338 99.3442,-206.0573 154,-159.5 160.7037,-153.7896 168.6559,-149.3321 176.9468,-145.853"/>
<polygon fill="#191970" stroke="#191970" points="59.9347,-329.9384 61.0577,-340.4736 66.7496,-331.5376 59.9347,-329.9384"/>
</g>
<!-- Node16 -->
<g id="node16" class="node">
<title>Node16</title>
<g id="a_node16"><a xlink:href="../../d4/d65/Fun4All__single__particle_8C.html#a8a492b5dbead494bfdddbebde8a49b0e" target="_top" xlink:title="Fun4All_single_particle">
<polygon fill="none" stroke="#000000" points="171.5,-78.5 171.5,-98.5 303.5,-98.5 303.5,-78.5 171.5,-78.5"/>
<text text-anchor="middle" x="237.5" y="-85.5" font-family="FreeSans" font-size="10.00" fill="#000000">Fun4All_single_particle</text>
</a>
</g>
</g>
<!-- Node1&#45;&gt;Node16 -->
<g id="edge15" class="edge">
<title>Node1&#45;&gt;Node16</title>
<path fill="none" stroke="#191970" d="M60.7617,-330.3085C65.9469,-283.7223 85.4161,-168.1576 154,-108.5 159.0611,-104.0976 164.9231,-100.6249 171.1478,-97.8911"/>
<polygon fill="#191970" stroke="#191970" points="57.2696,-330.0549 59.7509,-340.3551 64.2345,-330.7557 57.2696,-330.0549"/>
</g>
<!-- Node17 -->
<g id="node17" class="node">
<title>Node17</title>
<g id="a_node17"><a xlink:href="../../d0/d99/Jin__BJet_8C.html#a36169bfee2ed7efda633944d12aebad9" target="_top" xlink:title="Jin_BJet">
<polygon fill="none" stroke="#000000" points="210,-39.5 210,-59.5 265,-59.5 265,-39.5 210,-39.5"/>
<text text-anchor="middle" x="237.5" y="-46.5" font-family="FreeSans" font-size="10.00" fill="#000000">Jin_BJet</text>
</a>
</g>
</g>
<!-- Node1&#45;&gt;Node17 -->
<g id="edge16" class="edge">
<title>Node1&#45;&gt;Node17</title>
<path fill="none" stroke="#191970" d="M63.1539,-330.437C75.5627,-272.3815 113.9839,-106.0336 154,-69.5 169.0819,-55.7307 191.9352,-50.971 209.9227,-49.5212"/>
<polygon fill="#191970" stroke="#191970" points="59.7236,-329.7417 61.0854,-340.2487 66.5731,-331.1858 59.7236,-329.7417"/>
</g>
<!-- Node18 -->
<g id="node18" class="node">
<title>Node18</title>
<g id="a_node18"><a xlink:href="../../dd/db1/Wrapper_8cxx.html#abf1e42281903daa0752c80dd6c879fac" target="_top" xlink:title="Wrapper">
<polygon fill="none" stroke="#000000" points="207.5,-.5 207.5,-20.5 267.5,-20.5 267.5,-.5 207.5,-.5"/>
<text text-anchor="middle" x="237.5" y="-7.5" font-family="FreeSans" font-size="10.00" fill="#000000">Wrapper</text>
</a>
</g>
</g>
<!-- Node1&#45;&gt;Node18 -->
<g id="edge17" class="edge">
<title>Node1&#45;&gt;Node18</title>
<path fill="none" stroke="#191970" d="M62.3188,-330.2203C73.1186,-266.6537 109.1647,-72.9988 154,-30.5 168.1724,-17.0661 189.7053,-12.1439 207.3544,-10.5399"/>
<polygon fill="#191970" stroke="#191970" points="58.8469,-329.7621 60.65,-340.2024 65.751,-330.9164 58.8469,-329.7621"/>
</g>
<!-- Node3 -->
<g id="node3" class="node">
<title>Node3</title>
<g id="a_node3"><a xlink:href="../../d3/d7f/Fun_8C.html#af69a3eef3ff244bb51f5740c6ecb5432" target="_top" xlink:title="Fun">
<polygon fill="none" stroke="#000000" points="357,-657.5 357,-677.5 391,-677.5 391,-657.5 357,-657.5"/>
<text text-anchor="middle" x="374" y="-664.5" font-family="FreeSans" font-size="10.00" fill="#000000">Fun</text>
</a>
</g>
</g>
<!-- Node2&#45;&gt;Node3 -->
<g id="edge2" class="edge">
<title>Node2&#45;&gt;Node3</title>
<path fill="none" stroke="#191970" d="M304.6941,-667.5C324.0852,-667.5 343.59,-667.5 356.9452,-667.5"/>
<polygon fill="#191970" stroke="#191970" points="304.5974,-664.0001 294.5974,-667.5 304.5974,-671.0001 304.5974,-664.0001"/>
</g>
</g>
</svg>
