<?xml version="1.0" encoding="UTF-8" standalone="no"?>
<!DOCTYPE svg PUBLIC "-//W3C//DTD SVG 1.1//EN"
 "http://www.w3.org/Graphics/SVG/1.1/DTD/svg11.dtd">
<!-- Generated by graphviz version 2.40.1 (20161225.0304)
 -->
<!-- Title: PHG4Reco::InitUImanager Pages: 1 -->
<svg width="696pt" height="353pt"
 viewBox="0.00 0.00 696.00 353.00" xmlns="http://www.w3.org/2000/svg" xmlns:xlink="http://www.w3.org/1999/xlink">
<g id="graph0" class="graph" transform="scale(1 1) rotate(0) translate(4 349)">
<title>PHG4Reco::InitUImanager</title>
<!-- Node1 -->
<g id="node1" class="node">
<title>Node1</title>
<polygon fill="#bfbfbf" stroke="#000000" points="0,-78.5 0,-98.5 148,-98.5 148,-78.5 0,-78.5"/>
<text text-anchor="middle" x="74" y="-85.5" font-family="FreeSans" font-size="10.00" fill="#000000">PHG4Reco::InitUImanager</text>
</g>
<!-- Node2 -->
<g id="node2" class="node">
<title>Node2</title>
<g id="a_node2"><a xlink:href="../../d0/d78/classPHG4Reco.html#a83fd9e9472f94d9a29be65df65e400ef" target="_top" xlink:title="interface to G4 cmd interpreter">
<polygon fill="none" stroke="#000000" points="184,-156.5 184,-176.5 340,-176.5 340,-156.5 184,-156.5"/>
<text text-anchor="middle" x="262" y="-163.5" font-family="FreeSans" font-size="10.00" fill="#000000">PHG4Reco::ApplyCommand</text>
</a>
</g>
</g>
<!-- Node1&#45;&gt;Node2 -->
<g id="edge1" class="edge">
<title>Node1&#45;&gt;Node2</title>
<path fill="none" stroke="#191970" d="M107.6493,-102.4609C145.0225,-117.9668 204.4474,-142.6218 237.6022,-156.3775"/>
<polygon fill="#191970" stroke="#191970" points="108.7707,-99.1369 98.1928,-98.5375 106.0881,-105.6025 108.7707,-99.1369"/>
</g>
<!-- Node13 -->
<g id="node13" class="node">
<title>Node13</title>
<g id="a_node13"><a xlink:href="../../d0/d78/classPHG4Reco.html#a33f54be418a2c156914455cfc5bea595" target="_top" xlink:title="start the gui">
<polygon fill="none" stroke="#000000" points="203.5,-59.5 203.5,-79.5 320.5,-79.5 320.5,-59.5 203.5,-59.5"/>
<text text-anchor="middle" x="262" y="-66.5" font-family="FreeSans" font-size="10.00" fill="#000000">PHG4Reco::StartGui</text>
</a>
</g>
</g>
<!-- Node1&#45;&gt;Node13 -->
<g id="edge12" class="edge">
<title>Node1&#45;&gt;Node13</title>
<path fill="none" stroke="#191970" d="M158.0338,-80.0072C173.3575,-78.4586 189.0385,-76.8738 203.4231,-75.42"/>
<polygon fill="#191970" stroke="#191970" points="157.6301,-76.5301 148.0327,-81.018 158.334,-83.4946 157.6301,-76.5301"/>
</g>
<!-- Node3 -->
<g id="node3" class="node">
<title>Node3</title>
<g id="a_node3"><a xlink:href="../../db/d89/ConstructGeometry_8C.html#a21c369835643f1016f506a3da3b8d446" target="_top" xlink:title="ConstructGeometry">
<polygon fill="none" stroke="#000000" points="394.5,-324.5 394.5,-344.5 509.5,-344.5 509.5,-324.5 394.5,-324.5"/>
<text text-anchor="middle" x="452" y="-331.5" font-family="FreeSans" font-size="10.00" fill="#000000">ConstructGeometry</text>
</a>
</g>
</g>
<!-- Node2&#45;&gt;Node3 -->
<g id="edge2" class="edge">
<title>Node2&#45;&gt;Node3</title>
<path fill="none" stroke="#191970" d="M271.344,-185.9595C287.8178,-218.113 325.1563,-282.0913 376,-315.5 381.5695,-319.1596 387.7913,-322.1144 394.2116,-324.5001"/>
<polygon fill="#191970" stroke="#191970" points="274.331,-184.1063 266.7378,-176.7174 268.066,-187.2287 274.331,-184.1063"/>
</g>
<!-- Node4 -->
<g id="node4" class="node">
<title>Node4</title>
<g id="a_node4"><a xlink:href="../../dd/d76/macros_2blob_2master_2macros_2g4simulations_2DisplayOn_8C.html#a8ac4d6fb78f920957b354f88d6195f54" target="_top" xlink:title="DisplayOn">
<polygon fill="none" stroke="#000000" points="418,-285.5 418,-305.5 486,-305.5 486,-285.5 418,-285.5"/>
<text text-anchor="middle" x="452" y="-292.5" font-family="FreeSans" font-size="10.00" fill="#000000">DisplayOn</text>
</a>
</g>
</g>
<!-- Node2&#45;&gt;Node4 -->
<g id="edge3" class="edge">
<title>Node2&#45;&gt;Node4</title>
<path fill="none" stroke="#191970" d="M275.9233,-184.9915C295.5103,-209.6689 333.5838,-252.9819 376,-276.5 388.7271,-283.5567 404.0922,-288.0337 417.6667,-290.8547"/>
<polygon fill="#191970" stroke="#191970" points="278.469,-182.5634 269.5696,-176.8142 272.9414,-186.8582 278.469,-182.5634"/>
</g>
<!-- Node7 -->
<g id="node7" class="node">
<title>Node7</title>
<g id="a_node7"><a xlink:href="../../d9/d0e/Fun4All__G4__EICIR_8C.html#ac3543d1dd4a0abed3987d40939ee3f87" target="_top" xlink:title="Fun4All_G4_EICIR">
<polygon fill="none" stroke="#000000" points="400,-246.5 400,-266.5 504,-266.5 504,-246.5 400,-246.5"/>
<text text-anchor="middle" x="452" y="-253.5" font-family="FreeSans" font-size="10.00" fill="#000000">Fun4All_G4_EICIR</text>
</a>
</g>
</g>
<!-- Node2&#45;&gt;Node7 -->
<g id="edge6" class="edge">
<title>Node2&#45;&gt;Node7</title>
<path fill="none" stroke="#191970" d="M283.6717,-182.4974C305.86,-198.2122 341.8399,-221.896 376,-236.5 385.1581,-240.4152 395.273,-243.7238 405.0545,-246.4534"/>
<polygon fill="#191970" stroke="#191970" points="285.49,-179.494 275.3269,-176.5004 281.4049,-185.1784 285.49,-179.494"/>
</g>
<!-- Node8 -->
<g id="node8" class="node">
<title>Node8</title>
<g id="a_node8"><a xlink:href="../../da/d2f/Fun4All__G4__fsPHENIX__FastSim_8C.html#a66fb850cae5fcaadda23b74a25ce4c9c" target="_top" xlink:title="Fun4All_G4_fsPHENIX\l_FastSim">
<polygon fill="none" stroke="#000000" points="390,-195.5 390,-227.5 514,-227.5 514,-195.5 390,-195.5"/>
<text text-anchor="start" x="398" y="-214.5" font-family="FreeSans" font-size="10.00" fill="#000000">Fun4All_G4_fsPHENIX</text>
<text text-anchor="middle" x="452" y="-202.5" font-family="FreeSans" font-size="10.00" fill="#000000">_FastSim</text>
</a>
</g>
</g>
<!-- Node2&#45;&gt;Node8 -->
<g id="edge7" class="edge">
<title>Node2&#45;&gt;Node8</title>
<path fill="none" stroke="#191970" d="M314.657,-178.9714C337.9052,-184.4775 365.4068,-190.9911 389.6708,-196.7378"/>
<polygon fill="#191970" stroke="#191970" points="315.1772,-175.4978 304.6397,-176.5989 313.5639,-182.3094 315.1772,-175.4978"/>
</g>
<!-- Node9 -->
<g id="node9" class="node">
<title>Node9</title>
<g id="a_node9"><a xlink:href="../../d0/da6/Fun4All__G4__fsPHENIX__pi0_8C.html#a023d91d47b678e5d7f1751834aa517c6" target="_top" xlink:title="Fun4All_G4_fsPHENIX_pi0">
<polygon fill="none" stroke="#000000" points="379.5,-156.5 379.5,-176.5 524.5,-176.5 524.5,-156.5 379.5,-156.5"/>
<text text-anchor="middle" x="452" y="-163.5" font-family="FreeSans" font-size="10.00" fill="#000000">Fun4All_G4_fsPHENIX_pi0</text>
</a>
</g>
</g>
<!-- Node2&#45;&gt;Node9 -->
<g id="edge8" class="edge">
<title>Node2&#45;&gt;Node9</title>
<path fill="none" stroke="#191970" d="M350.2261,-166.5C359.9904,-166.5 369.8506,-166.5 379.3914,-166.5"/>
<polygon fill="#191970" stroke="#191970" points="350.1028,-163.0001 340.1028,-166.5 350.1028,-170.0001 350.1028,-163.0001"/>
</g>
<!-- Node10 -->
<g id="node10" class="node">
<title>Node10</title>
<g id="a_node10"><a xlink:href="../../d4/dfa/Fun4All__Generator__Display_8C.html#af87924a94b22e18901f0d64805565f09" target="_top" xlink:title="Fun4All_Generator_Display">
<polygon fill="none" stroke="#000000" points="376,-117.5 376,-137.5 528,-137.5 528,-117.5 376,-117.5"/>
<text text-anchor="middle" x="452" y="-124.5" font-family="FreeSans" font-size="10.00" fill="#000000">Fun4All_Generator_Display</text>
</a>
</g>
</g>
<!-- Node2&#45;&gt;Node10 -->
<g id="edge9" class="edge">
<title>Node2&#45;&gt;Node10</title>
<path fill="none" stroke="#191970" d="M320.8276,-154.4249C347.2697,-148.9973 378.1069,-142.6675 403.2361,-137.5094"/>
<polygon fill="#191970" stroke="#191970" points="320.0217,-151.0172 310.9297,-156.4565 321.4293,-157.8743 320.0217,-151.0172"/>
</g>
<!-- Node11 -->
<g id="node11" class="node">
<title>Node11</title>
<g id="a_node11"><a xlink:href="../../d9/d0e/Fun4All__G4__EICIR_8C.html#ab6b2319097151989160d541d5eb07b7d" target="_top" xlink:title="G4Cmd">
<polygon fill="none" stroke="#000000" points="425.5,-78.5 425.5,-98.5 478.5,-98.5 478.5,-78.5 425.5,-78.5"/>
<text text-anchor="middle" x="452" y="-85.5" font-family="FreeSans" font-size="10.00" fill="#000000">G4Cmd</text>
</a>
</g>
</g>
<!-- Node2&#45;&gt;Node11 -->
<g id="edge10" class="edge">
<title>Node2&#45;&gt;Node11</title>
<path fill="none" stroke="#191970" d="M287.0546,-151.3676C309.646,-138.2554 344.1194,-119.5466 376,-107.5 391.9032,-101.4907 410.3957,-96.8199 425.1573,-93.6132"/>
<polygon fill="#191970" stroke="#191970" points="285.2786,-148.3516 278.4314,-156.4366 288.8259,-154.3863 285.2786,-148.3516"/>
</g>
<!-- Node12 -->
<g id="node12" class="node">
<title>Node12</title>
<g id="a_node12"><a xlink:href="../../d9/d1d/matscan_8C.html#a98ccbc6135fead542f3c4d1dd6882d63" target="_top" xlink:title="matscan">
<polygon fill="none" stroke="#000000" points="422.5,-39.5 422.5,-59.5 481.5,-59.5 481.5,-39.5 422.5,-39.5"/>
<text text-anchor="middle" x="452" y="-46.5" font-family="FreeSans" font-size="10.00" fill="#000000">matscan</text>
</a>
</g>
</g>
<!-- Node2&#45;&gt;Node12 -->
<g id="edge11" class="edge">
<title>Node2&#45;&gt;Node12</title>
<path fill="none" stroke="#191970" d="M277.5655,-148.7847C297.9748,-126.6715 335.9196,-89.2403 376,-68.5 390.3741,-61.0618 407.8069,-56.4333 422.3487,-53.6096"/>
<polygon fill="#191970" stroke="#191970" points="274.7496,-146.6802 270.6342,-156.4431 279.9396,-151.3775 274.7496,-146.6802"/>
</g>
<!-- Node5 -->
<g id="node5" class="node">
<title>Node5</title>
<g id="a_node5"><a xlink:href="../../d7/d9e/Fun4All__G4__fsPHENIX_8C.html#af48911d394d2412e817583700f2bbee2" target="_top" xlink:title="Fun4All_G4_fsPHENIX">
<polygon fill="none" stroke="#000000" points="564,-304.5 564,-324.5 688,-324.5 688,-304.5 564,-304.5"/>
<text text-anchor="middle" x="626" y="-311.5" font-family="FreeSans" font-size="10.00" fill="#000000">Fun4All_G4_fsPHENIX</text>
</a>
</g>
</g>
<!-- Node4&#45;&gt;Node5 -->
<g id="edge4" class="edge">
<title>Node4&#45;&gt;Node5</title>
<path fill="none" stroke="#191970" d="M496.3757,-300.3456C516.8742,-302.584 541.5657,-305.2802 563.8748,-307.7162"/>
<polygon fill="#191970" stroke="#191970" points="496.6977,-296.8601 486.3768,-299.2538 495.9378,-303.8187 496.6977,-296.8601"/>
</g>
<!-- Node6 -->
<g id="node6" class="node">
<title>Node6</title>
<g id="a_node6"><a xlink:href="../../d5/d2c/macros_2blob_2master_2macros_2g4simulations_2Fun4All__G4__sPHENIX_8C.html#a6eaaa492d7023ec86c562dc63aa1e5a4" target="_top" xlink:title="Fun4All_G4_sPHENIX">
<polygon fill="none" stroke="#000000" points="565.5,-265.5 565.5,-285.5 686.5,-285.5 686.5,-265.5 565.5,-265.5"/>
<text text-anchor="middle" x="626" y="-272.5" font-family="FreeSans" font-size="10.00" fill="#000000">Fun4All_G4_sPHENIX</text>
</a>
</g>
</g>
<!-- Node4&#45;&gt;Node6 -->
<g id="edge5" class="edge">
<title>Node4&#45;&gt;Node6</title>
<path fill="none" stroke="#191970" d="M496.5622,-290.3779C517.4542,-287.9765 542.6703,-285.0781 565.2749,-282.4799"/>
<polygon fill="#191970" stroke="#191970" points="495.9117,-286.9295 486.3768,-291.5486 496.7111,-293.8838 495.9117,-286.9295"/>
</g>
<!-- Node14 -->
<g id="node14" class="node">
<title>Node14</title>
<g id="a_node14"><a xlink:href="../../dd/d76/macros_2blob_2master_2macros_2g4simulations_2DisplayOn_8C.html#a36f5cc4ebb7cd23dac7e492d5c38fbc0" target="_top" xlink:title="QTGui">
<polygon fill="none" stroke="#000000" points="428.5,-.5 428.5,-20.5 475.5,-20.5 475.5,-.5 428.5,-.5"/>
<text text-anchor="middle" x="452" y="-7.5" font-family="FreeSans" font-size="10.00" fill="#000000">QTGui</text>
</a>
</g>
</g>
<!-- Node13&#45;&gt;Node14 -->
<g id="edge13" class="edge">
<title>Node13&#45;&gt;Node14</title>
<path fill="none" stroke="#191970" d="M297.8984,-55.9457C320.2065,-47.7625 349.5726,-37.4213 376,-29.5 393.3271,-24.3064 413.1636,-19.3809 428.2253,-15.8468"/>
<polygon fill="#191970" stroke="#191970" points="296.6578,-52.6727 288.4909,-59.422 299.0841,-59.2388 296.6578,-52.6727"/>
</g>
</g>
</svg>
