<?xml version="1.0" encoding="UTF-8" standalone="no"?>
<!DOCTYPE svg PUBLIC "-//W3C//DTD SVG 1.1//EN"
 "http://www.w3.org/Graphics/SVG/1.1/DTD/svg11.dtd">
<!-- Generated by graphviz version 2.40.1 (20161225.0304)
 -->
<!-- Title: PHG4Reco::setupInputEventNodeReader Pages: 1 -->
<svg width="661pt" height="185pt"
 viewBox="0.00 0.00 661.00 185.00" xmlns="http://www.w3.org/2000/svg" xmlns:xlink="http://www.w3.org/1999/xlink">
<g id="graph0" class="graph" transform="scale(1 1) rotate(0) translate(4 181)">
<title>PHG4Reco::setupInputEventNodeReader</title>
<!-- Node1 -->
<g id="node1" class="node">
<title>Node1</title>
<polygon fill="#bfbfbf" stroke="#000000" points="0,-72.5 0,-104.5 159,-104.5 159,-72.5 0,-72.5"/>
<text text-anchor="start" x="8" y="-91.5" font-family="FreeSans" font-size="10.00" fill="#000000">PHG4Reco::setupInputEvent</text>
<text text-anchor="middle" x="79.5" y="-79.5" font-family="FreeSans" font-size="10.00" fill="#000000">NodeReader</text>
</g>
<!-- Node2 -->
<g id="node2" class="node">
<title>Node2</title>
<g id="a_node2"><a xlink:href="../../d0/d78/classPHG4Reco.html#a9d8228ce8682c19cd6be2f6b44ec847b" target="_top" xlink:title="PHG4Reco::InitRun">
<polygon fill="none" stroke="#000000" points="195,-78.5 195,-98.5 305,-98.5 305,-78.5 195,-78.5"/>
<text text-anchor="middle" x="250" y="-85.5" font-family="FreeSans" font-size="10.00" fill="#000000">PHG4Reco::InitRun</text>
</a>
</g>
</g>
<!-- Node1&#45;&gt;Node2 -->
<g id="edge1" class="edge">
<title>Node1&#45;&gt;Node2</title>
<path fill="none" stroke="#191970" d="M169.3635,-88.5C177.9647,-88.5 186.503,-88.5 194.627,-88.5"/>
<polygon fill="#191970" stroke="#191970" points="169.2588,-85.0001 159.2588,-88.5 169.2587,-92.0001 169.2588,-85.0001"/>
</g>
<!-- Node3 -->
<g id="node3" class="node">
<title>Node3</title>
<g id="a_node3"><a xlink:href="../../db/d89/ConstructGeometry_8C.html#a21c369835643f1016f506a3da3b8d446" target="_top" xlink:title="ConstructGeometry">
<polygon fill="none" stroke="#000000" points="359.5,-156.5 359.5,-176.5 474.5,-176.5 474.5,-156.5 359.5,-156.5"/>
<text text-anchor="middle" x="417" y="-163.5" font-family="FreeSans" font-size="10.00" fill="#000000">ConstructGeometry</text>
</a>
</g>
</g>
<!-- Node2&#45;&gt;Node3 -->
<g id="edge2" class="edge">
<title>Node2&#45;&gt;Node3</title>
<path fill="none" stroke="#191970" d="M270.9107,-104.937C288.6571,-118.1572 315.2676,-136.3129 341,-147.5 349.1073,-151.0246 357.9972,-153.9843 366.7497,-156.4387"/>
<polygon fill="#191970" stroke="#191970" points="272.5694,-101.8014 262.4901,-98.5366 268.3335,-107.3743 272.5694,-101.8014"/>
</g>
<!-- Node4 -->
<g id="node4" class="node">
<title>Node4</title>
<g id="a_node4"><a xlink:href="../../dd/d76/macros_2blob_2master_2macros_2g4simulations_2DisplayOn_8C.html#a8ac4d6fb78f920957b354f88d6195f54" target="_top" xlink:title="DisplayOn">
<polygon fill="none" stroke="#000000" points="383,-117.5 383,-137.5 451,-137.5 451,-117.5 383,-117.5"/>
<text text-anchor="middle" x="417" y="-124.5" font-family="FreeSans" font-size="10.00" fill="#000000">DisplayOn</text>
</a>
</g>
</g>
<!-- Node2&#45;&gt;Node4 -->
<g id="edge3" class="edge">
<title>Node2&#45;&gt;Node4</title>
<path fill="none" stroke="#191970" d="M302.7794,-100.8257C328.9436,-106.9359 359.784,-114.1382 382.8194,-119.5177"/>
<polygon fill="#191970" stroke="#191970" points="303.5406,-97.4094 293.0066,-98.5435 301.9487,-104.226 303.5406,-97.4094"/>
</g>
<!-- Node7 -->
<g id="node7" class="node">
<title>Node7</title>
<g id="a_node7"><a xlink:href="../../d4/dfa/Fun4All__Generator__Display_8C.html#af87924a94b22e18901f0d64805565f09" target="_top" xlink:title="Fun4All_Generator_Display">
<polygon fill="none" stroke="#000000" points="341,-78.5 341,-98.5 493,-98.5 493,-78.5 341,-78.5"/>
<text text-anchor="middle" x="417" y="-85.5" font-family="FreeSans" font-size="10.00" fill="#000000">Fun4All_Generator_Display</text>
</a>
</g>
</g>
<!-- Node2&#45;&gt;Node7 -->
<g id="edge6" class="edge">
<title>Node2&#45;&gt;Node7</title>
<path fill="none" stroke="#191970" d="M315.2079,-88.5C323.5826,-88.5 332.2155,-88.5 340.7467,-88.5"/>
<polygon fill="#191970" stroke="#191970" points="315.1449,-85.0001 305.1449,-88.5 315.1448,-92.0001 315.1449,-85.0001"/>
</g>
<!-- Node8 -->
<g id="node8" class="node">
<title>Node8</title>
<g id="a_node8"><a xlink:href="../../d9/d1d/matscan_8C.html#a98ccbc6135fead542f3c4d1dd6882d63" target="_top" xlink:title="matscan">
<polygon fill="none" stroke="#000000" points="387.5,-39.5 387.5,-59.5 446.5,-59.5 446.5,-39.5 387.5,-39.5"/>
<text text-anchor="middle" x="417" y="-46.5" font-family="FreeSans" font-size="10.00" fill="#000000">matscan</text>
</a>
</g>
</g>
<!-- Node2&#45;&gt;Node8 -->
<g id="edge7" class="edge">
<title>Node2&#45;&gt;Node8</title>
<path fill="none" stroke="#191970" d="M303.0032,-76.122C330.8568,-69.6173 363.959,-61.8868 387.2971,-56.4366"/>
<polygon fill="#191970" stroke="#191970" points="301.9487,-72.774 293.0066,-78.4565 303.5406,-79.5906 301.9487,-72.774"/>
</g>
<!-- Node9 -->
<g id="node9" class="node">
<title>Node9</title>
<g id="a_node9"><a xlink:href="../../dd/d76/macros_2blob_2master_2macros_2g4simulations_2DisplayOn_8C.html#a36f5cc4ebb7cd23dac7e492d5c38fbc0" target="_top" xlink:title="QTGui">
<polygon fill="none" stroke="#000000" points="393.5,-.5 393.5,-20.5 440.5,-20.5 440.5,-.5 393.5,-.5"/>
<text text-anchor="middle" x="417" y="-7.5" font-family="FreeSans" font-size="10.00" fill="#000000">QTGui</text>
</a>
</g>
</g>
<!-- Node2&#45;&gt;Node9 -->
<g id="edge8" class="edge">
<title>Node2&#45;&gt;Node9</title>
<path fill="none" stroke="#191970" d="M271.2972,-72.2201C289.09,-59.3028 315.5675,-41.6258 341,-30.5 357.8749,-23.1178 378.087,-17.9597 393.4238,-14.7329"/>
<polygon fill="#191970" stroke="#191970" points="268.7925,-69.7195 262.8359,-78.4813 272.9564,-75.3464 268.7925,-69.7195"/>
</g>
<!-- Node5 -->
<g id="node5" class="node">
<title>Node5</title>
<g id="a_node5"><a xlink:href="../../d7/d9e/Fun4All__G4__fsPHENIX_8C.html#af48911d394d2412e817583700f2bbee2" target="_top" xlink:title="Fun4All_G4_fsPHENIX">
<polygon fill="none" stroke="#000000" points="529,-136.5 529,-156.5 653,-156.5 653,-136.5 529,-136.5"/>
<text text-anchor="middle" x="591" y="-143.5" font-family="FreeSans" font-size="10.00" fill="#000000">Fun4All_G4_fsPHENIX</text>
</a>
</g>
</g>
<!-- Node4&#45;&gt;Node5 -->
<g id="edge4" class="edge">
<title>Node4&#45;&gt;Node5</title>
<path fill="none" stroke="#191970" d="M461.3757,-132.3456C481.8742,-134.584 506.5657,-137.2802 528.8748,-139.7162"/>
<polygon fill="#191970" stroke="#191970" points="461.6977,-128.8601 451.3768,-131.2538 460.9378,-135.8187 461.6977,-128.8601"/>
</g>
<!-- Node6 -->
<g id="node6" class="node">
<title>Node6</title>
<g id="a_node6"><a xlink:href="../../d5/d2c/macros_2blob_2master_2macros_2g4simulations_2Fun4All__G4__sPHENIX_8C.html#a6eaaa492d7023ec86c562dc63aa1e5a4" target="_top" xlink:title="Fun4All_G4_sPHENIX">
<polygon fill="none" stroke="#000000" points="530.5,-97.5 530.5,-117.5 651.5,-117.5 651.5,-97.5 530.5,-97.5"/>
<text text-anchor="middle" x="591" y="-104.5" font-family="FreeSans" font-size="10.00" fill="#000000">Fun4All_G4_sPHENIX</text>
</a>
</g>
</g>
<!-- Node4&#45;&gt;Node6 -->
<g id="edge5" class="edge">
<title>Node4&#45;&gt;Node6</title>
<path fill="none" stroke="#191970" d="M461.5622,-122.3779C482.4542,-119.9765 507.6703,-117.0781 530.2749,-114.4799"/>
<polygon fill="#191970" stroke="#191970" points="460.9117,-118.9295 451.3768,-123.5486 461.7111,-125.8838 460.9117,-118.9295"/>
</g>
</g>
</svg>
