<?xml version="1.0" encoding="UTF-8" standalone="no"?>
<!DOCTYPE svg PUBLIC "-//W3C//DTD SVG 1.1//EN"
 "http://www.w3.org/Graphics/SVG/1.1/DTD/svg11.dtd">
<!-- Generated by graphviz version 2.40.1 (20161225.0304)
 -->
<!-- Title: PHG4Reco::Dump_GDML Pages: 1 -->
<svg width="643pt" height="185pt"
 viewBox="0.00 0.00 643.00 185.00" xmlns="http://www.w3.org/2000/svg" xmlns:xlink="http://www.w3.org/1999/xlink">
<g id="graph0" class="graph" transform="scale(1 1) rotate(0) translate(4 181)">
<title>PHG4Reco::Dump_GDML</title>
<!-- Node1 -->
<g id="node1" class="node">
<title>Node1</title>
<polygon fill="#bfbfbf" stroke="#000000" points="0,-78.5 0,-98.5 141,-98.5 141,-78.5 0,-78.5"/>
<text text-anchor="middle" x="70.5" y="-85.5" font-family="FreeSans" font-size="10.00" fill="#000000">PHG4Reco::Dump_GDML</text>
</g>
<!-- Node2 -->
<g id="node2" class="node">
<title>Node2</title>
<g id="a_node2"><a xlink:href="../../d0/d78/classPHG4Reco.html#a9d8228ce8682c19cd6be2f6b44ec847b" target="_top" xlink:title="PHG4Reco::InitRun">
<polygon fill="none" stroke="#000000" points="177,-78.5 177,-98.5 287,-98.5 287,-78.5 177,-78.5"/>
<text text-anchor="middle" x="232" y="-85.5" font-family="FreeSans" font-size="10.00" fill="#000000">PHG4Reco::InitRun</text>
</a>
</g>
</g>
<!-- Node1&#45;&gt;Node2 -->
<g id="edge1" class="edge">
<title>Node1&#45;&gt;Node2</title>
<path fill="none" stroke="#191970" d="M151.3931,-88.5C159.9791,-88.5 168.5628,-88.5 176.7562,-88.5"/>
<polygon fill="#191970" stroke="#191970" points="151.3363,-85.0001 141.3363,-88.5 151.3362,-92.0001 151.3363,-85.0001"/>
</g>
<!-- Node3 -->
<g id="node3" class="node">
<title>Node3</title>
<g id="a_node3"><a xlink:href="../../dd/d76/macros_2blob_2master_2macros_2g4simulations_2DisplayOn_8C.html#a36f5cc4ebb7cd23dac7e492d5c38fbc0" target="_top" xlink:title="QTGui">
<polygon fill="none" stroke="#000000" points="375.5,-156.5 375.5,-176.5 422.5,-176.5 422.5,-156.5 375.5,-156.5"/>
<text text-anchor="middle" x="399" y="-163.5" font-family="FreeSans" font-size="10.00" fill="#000000">QTGui</text>
</a>
</g>
</g>
<!-- Node2&#45;&gt;Node3 -->
<g id="edge2" class="edge">
<title>Node2&#45;&gt;Node3</title>
<path fill="none" stroke="#191970" d="M252.9107,-104.937C270.6571,-118.1572 297.2676,-136.3129 323,-147.5 339.8383,-154.8204 360.0524,-159.7038 375.3993,-162.6847"/>
<polygon fill="#191970" stroke="#191970" points="254.5694,-101.8014 244.4901,-98.5366 250.3335,-107.3743 254.5694,-101.8014"/>
</g>
<!-- Node4 -->
<g id="node4" class="node">
<title>Node4</title>
<g id="a_node4"><a xlink:href="../../dd/d76/macros_2blob_2master_2macros_2g4simulations_2DisplayOn_8C.html#a8ac4d6fb78f920957b354f88d6195f54" target="_top" xlink:title="DisplayOn">
<polygon fill="none" stroke="#000000" points="365,-117.5 365,-137.5 433,-137.5 433,-117.5 365,-117.5"/>
<text text-anchor="middle" x="399" y="-124.5" font-family="FreeSans" font-size="10.00" fill="#000000">DisplayOn</text>
</a>
</g>
</g>
<!-- Node2&#45;&gt;Node4 -->
<g id="edge3" class="edge">
<title>Node2&#45;&gt;Node4</title>
<path fill="none" stroke="#191970" d="M284.7794,-100.8257C310.9436,-106.9359 341.784,-114.1382 364.8194,-119.5177"/>
<polygon fill="#191970" stroke="#191970" points="285.5406,-97.4094 275.0066,-98.5435 283.9487,-104.226 285.5406,-97.4094"/>
</g>
<!-- Node7 -->
<g id="node7" class="node">
<title>Node7</title>
<g id="a_node7"><a xlink:href="../../db/d89/ConstructGeometry_8C.html#a21c369835643f1016f506a3da3b8d446" target="_top" xlink:title="ConstructGeometry">
<polygon fill="none" stroke="#000000" points="341.5,-78.5 341.5,-98.5 456.5,-98.5 456.5,-78.5 341.5,-78.5"/>
<text text-anchor="middle" x="399" y="-85.5" font-family="FreeSans" font-size="10.00" fill="#000000">ConstructGeometry</text>
</a>
</g>
</g>
<!-- Node2&#45;&gt;Node7 -->
<g id="edge6" class="edge">
<title>Node2&#45;&gt;Node7</title>
<path fill="none" stroke="#191970" d="M297.5186,-88.5C311.9851,-88.5 327.2075,-88.5 341.3353,-88.5"/>
<polygon fill="#191970" stroke="#191970" points="297.1449,-85.0001 287.1449,-88.5 297.1448,-92.0001 297.1449,-85.0001"/>
</g>
<!-- Node8 -->
<g id="node8" class="node">
<title>Node8</title>
<g id="a_node8"><a xlink:href="../../d4/dfa/Fun4All__Generator__Display_8C.html#af87924a94b22e18901f0d64805565f09" target="_top" xlink:title="Fun4All_Generator_Display">
<polygon fill="none" stroke="#000000" points="323,-39.5 323,-59.5 475,-59.5 475,-39.5 323,-39.5"/>
<text text-anchor="middle" x="399" y="-46.5" font-family="FreeSans" font-size="10.00" fill="#000000">Fun4All_Generator_Display</text>
</a>
</g>
</g>
<!-- Node2&#45;&gt;Node8 -->
<g id="edge7" class="edge">
<title>Node2&#45;&gt;Node8</title>
<path fill="none" stroke="#191970" d="M284.9386,-76.1371C307.9013,-70.7746 334.4411,-64.5766 356.1391,-59.5094"/>
<polygon fill="#191970" stroke="#191970" points="283.9487,-72.774 275.0066,-78.4565 285.5406,-79.5906 283.9487,-72.774"/>
</g>
<!-- Node9 -->
<g id="node9" class="node">
<title>Node9</title>
<g id="a_node9"><a xlink:href="../../d9/d1d/matscan_8C.html#a98ccbc6135fead542f3c4d1dd6882d63" target="_top" xlink:title="matscan">
<polygon fill="none" stroke="#000000" points="369.5,-.5 369.5,-20.5 428.5,-20.5 428.5,-.5 369.5,-.5"/>
<text text-anchor="middle" x="399" y="-7.5" font-family="FreeSans" font-size="10.00" fill="#000000">matscan</text>
</a>
</g>
</g>
<!-- Node2&#45;&gt;Node9 -->
<g id="edge8" class="edge">
<title>Node2&#45;&gt;Node9</title>
<path fill="none" stroke="#191970" d="M253.2972,-72.2201C271.09,-59.3028 297.5675,-41.6258 323,-30.5 337.7499,-24.0474 355.0494,-19.2941 369.4144,-16.0444"/>
<polygon fill="#191970" stroke="#191970" points="250.7925,-69.7195 244.8359,-78.4813 254.9564,-75.3464 250.7925,-69.7195"/>
</g>
<!-- Node5 -->
<g id="node5" class="node">
<title>Node5</title>
<g id="a_node5"><a xlink:href="../../d7/d9e/Fun4All__G4__fsPHENIX_8C.html#af48911d394d2412e817583700f2bbee2" target="_top" xlink:title="Fun4All_G4_fsPHENIX">
<polygon fill="none" stroke="#000000" points="511,-136.5 511,-156.5 635,-156.5 635,-136.5 511,-136.5"/>
<text text-anchor="middle" x="573" y="-143.5" font-family="FreeSans" font-size="10.00" fill="#000000">Fun4All_G4_fsPHENIX</text>
</a>
</g>
</g>
<!-- Node4&#45;&gt;Node5 -->
<g id="edge4" class="edge">
<title>Node4&#45;&gt;Node5</title>
<path fill="none" stroke="#191970" d="M443.3757,-132.3456C463.8742,-134.584 488.5657,-137.2802 510.8748,-139.7162"/>
<polygon fill="#191970" stroke="#191970" points="443.6977,-128.8601 433.3768,-131.2538 442.9378,-135.8187 443.6977,-128.8601"/>
</g>
<!-- Node6 -->
<g id="node6" class="node">
<title>Node6</title>
<g id="a_node6"><a xlink:href="../../d5/d2c/macros_2blob_2master_2macros_2g4simulations_2Fun4All__G4__sPHENIX_8C.html#a6eaaa492d7023ec86c562dc63aa1e5a4" target="_top" xlink:title="Fun4All_G4_sPHENIX">
<polygon fill="none" stroke="#000000" points="512.5,-97.5 512.5,-117.5 633.5,-117.5 633.5,-97.5 512.5,-97.5"/>
<text text-anchor="middle" x="573" y="-104.5" font-family="FreeSans" font-size="10.00" fill="#000000">Fun4All_G4_sPHENIX</text>
</a>
</g>
</g>
<!-- Node4&#45;&gt;Node6 -->
<g id="edge5" class="edge">
<title>Node4&#45;&gt;Node6</title>
<path fill="none" stroke="#191970" d="M443.5622,-122.3779C464.4542,-119.9765 489.6703,-117.0781 512.2749,-114.4799"/>
<polygon fill="#191970" stroke="#191970" points="442.9117,-118.9295 433.3768,-123.5486 443.7111,-125.8838 442.9117,-118.9295"/>
</g>
</g>
</svg>
