<?xml version="1.0" encoding="UTF-8" standalone="no"?>
<!DOCTYPE svg PUBLIC "-//W3C//DTD SVG 1.1//EN"
 "http://www.w3.org/Graphics/SVG/1.1/DTD/svg11.dtd">
<!-- Generated by graphviz version 2.40.1 (20161225.0304)
 -->
<!-- Title: DetermineTowerBackground::SetBackgroundOutputName Pages: 1 -->
<svg width="475pt" height="413pt"
 viewBox="0.00 0.00 475.00 413.00" xmlns="http://www.w3.org/2000/svg" xmlns:xlink="http://www.w3.org/1999/xlink">
<g id="graph0" class="graph" transform="scale(1 1) rotate(0) translate(4 409)">
<title>DetermineTowerBackground::SetBackgroundOutputName</title>
<!-- Node1 -->
<g id="node1" class="node">
<title>Node1</title>
<polygon fill="#bfbfbf" stroke="#000000" points="0,-186.5 0,-218.5 164,-218.5 164,-186.5 0,-186.5"/>
<text text-anchor="start" x="8" y="-205.5" font-family="FreeSans" font-size="10.00" fill="#000000">DetermineTowerBackground</text>
<text text-anchor="middle" x="82" y="-193.5" font-family="FreeSans" font-size="10.00" fill="#000000">::SetBackgroundOutputName</text>
</g>
<!-- Node2 -->
<g id="node2" class="node">
<title>Node2</title>
<g id="a_node2"><a xlink:href="../../de/da2/macros_2blob_2master_2macros_2g4simulations_2G4__HIJetReco_8C.html#a9cf9382ceffe61f139e2b7ebb82609bc" target="_top" xlink:title="HIJetReco">
<polygon fill="none" stroke="#000000" points="200,-192.5 200,-212.5 264,-212.5 264,-192.5 200,-192.5"/>
<text text-anchor="middle" x="232" y="-199.5" font-family="FreeSans" font-size="10.00" fill="#000000">HIJetReco</text>
</a>
</g>
</g>
<!-- Node1&#45;&gt;Node2 -->
<g id="edge1" class="edge">
<title>Node1&#45;&gt;Node2</title>
<path fill="none" stroke="#191970" d="M174.0744,-202.5C183.2341,-202.5 192.035,-202.5 199.8903,-202.5"/>
<polygon fill="#191970" stroke="#191970" points="174.0221,-199.0001 164.0221,-202.5 174.0221,-206.0001 174.0221,-199.0001"/>
</g>
<!-- Node3 -->
<g id="node3" class="node">
<title>Node3</title>
<g id="a_node3"><a xlink:href="../../da/d02/Fun4All__G4__EICDetector_8C.html#afbe82cefa1d1fd031d9a8586b7bb68c6" target="_top" xlink:title="Fun4All_G4_EICDetector">
<polygon fill="none" stroke="#000000" points="314,-384.5 314,-404.5 453,-404.5 453,-384.5 314,-384.5"/>
<text text-anchor="middle" x="383.5" y="-391.5" font-family="FreeSans" font-size="10.00" fill="#000000">Fun4All_G4_EICDetector</text>
</a>
</g>
</g>
<!-- Node2&#45;&gt;Node3 -->
<g id="edge2" class="edge">
<title>Node2&#45;&gt;Node3</title>
<path fill="none" stroke="#191970" d="M233.9282,-222.8708C238.5046,-259.2801 253.4041,-335.4487 300,-375.5 304.1716,-379.0857 308.8816,-382.0317 313.8872,-384.4482"/>
<polygon fill="#191970" stroke="#191970" points="237.3634,-222.094 232.778,-212.5429 230.4064,-222.8689 237.3634,-222.094"/>
</g>
<!-- Node4 -->
<g id="node4" class="node">
<title>Node4</title>
<g id="a_node4"><a xlink:href="../../df/d4b/Fun4All__G4__EICDetector__LQ__analysis_8C.html#af903e98824d083a08b353ac15996ee0e" target="_top" xlink:title="Fun4All_G4_EICDetector\l_LQ_analysis">
<polygon fill="none" stroke="#000000" points="314,-333.5 314,-365.5 453,-365.5 453,-333.5 314,-333.5"/>
<text text-anchor="start" x="322" y="-352.5" font-family="FreeSans" font-size="10.00" fill="#000000">Fun4All_G4_EICDetector</text>
<text text-anchor="middle" x="383.5" y="-340.5" font-family="FreeSans" font-size="10.00" fill="#000000">_LQ_analysis</text>
</a>
</g>
</g>
<!-- Node2&#45;&gt;Node4 -->
<g id="edge3" class="edge">
<title>Node2&#45;&gt;Node4</title>
<path fill="none" stroke="#191970" d="M237.8022,-222.3019C246.7402,-249.3505 266.4512,-297.5581 300,-324.5 304.2475,-327.911 308.9517,-330.8571 313.9001,-333.4015"/>
<polygon fill="#191970" stroke="#191970" points="241.138,-221.242 234.8052,-212.7481 234.4589,-223.3373 241.138,-221.242"/>
</g>
<!-- Node5 -->
<g id="node5" class="node">
<title>Node5</title>
<g id="a_node5"><a xlink:href="../../d1/daf/Fun4All__G4__EICDetector__LQ__analysis__nf_8C.html#a5022607d21247b87dd208b0828905147" target="_top" xlink:title="Fun4All_G4_EICDetector\l_LQ_analysis_nf">
<polygon fill="none" stroke="#000000" points="314,-282.5 314,-314.5 453,-314.5 453,-282.5 314,-282.5"/>
<text text-anchor="start" x="322" y="-301.5" font-family="FreeSans" font-size="10.00" fill="#000000">Fun4All_G4_EICDetector</text>
<text text-anchor="middle" x="383.5" y="-289.5" font-family="FreeSans" font-size="10.00" fill="#000000">_LQ_analysis_nf</text>
</a>
</g>
</g>
<!-- Node2&#45;&gt;Node5 -->
<g id="edge4" class="edge">
<title>Node2&#45;&gt;Node5</title>
<path fill="none" stroke="#191970" d="M245.006,-220.6735C257.4185,-236.7568 277.5182,-259.749 300,-273.5 305.5509,-276.8952 311.5928,-279.8552 317.8043,-282.4303"/>
<polygon fill="#191970" stroke="#191970" points="247.7254,-218.4656 238.9347,-212.5517 242.1188,-222.6568 247.7254,-218.4656"/>
</g>
<!-- Node6 -->
<g id="node6" class="node">
<title>Node6</title>
<g id="a_node6"><a xlink:href="../../d4/df5/Fun4All__G4__EICDetector__LQ__reference_8C.html#a2feefc472f17f90b3cbe74897d049f75" target="_top" xlink:title="Fun4All_G4_EICDetector\l_LQ_reference">
<polygon fill="none" stroke="#000000" points="314,-231.5 314,-263.5 453,-263.5 453,-231.5 314,-231.5"/>
<text text-anchor="start" x="322" y="-250.5" font-family="FreeSans" font-size="10.00" fill="#000000">Fun4All_G4_EICDetector</text>
<text text-anchor="middle" x="383.5" y="-238.5" font-family="FreeSans" font-size="10.00" fill="#000000">_LQ_reference</text>
</a>
</g>
</g>
<!-- Node2&#45;&gt;Node6 -->
<g id="edge5" class="edge">
<title>Node2&#45;&gt;Node6</title>
<path fill="none" stroke="#191970" d="M273.8584,-214.9332C291.0171,-220.0298 311.0984,-225.9946 329.3532,-231.4168"/>
<polygon fill="#191970" stroke="#191970" points="274.7119,-211.5356 264.1293,-212.0433 272.7187,-218.2459 274.7119,-211.5356"/>
</g>
<!-- Node7 -->
<g id="node7" class="node">
<title>Node7</title>
<g id="a_node7"><a xlink:href="../../d3/d51/Fun4All__G4__EICDetector__RICH_8C.html#a5739502b0a7a1ba782c01069f77e933f" target="_top" xlink:title="Fun4All_G4_EICDetector_RICH">
<polygon fill="none" stroke="#000000" points="300,-192.5 300,-212.5 467,-212.5 467,-192.5 300,-192.5"/>
<text text-anchor="middle" x="383.5" y="-199.5" font-family="FreeSans" font-size="10.00" fill="#000000">Fun4All_G4_EICDetector_RICH</text>
</a>
</g>
</g>
<!-- Node2&#45;&gt;Node7 -->
<g id="edge6" class="edge">
<title>Node2&#45;&gt;Node7</title>
<path fill="none" stroke="#191970" d="M274.3425,-202.5C282.4207,-202.5 291.1328,-202.5 299.9879,-202.5"/>
<polygon fill="#191970" stroke="#191970" points="274.1293,-199.0001 264.1293,-202.5 274.1292,-206.0001 274.1293,-199.0001"/>
</g>
<!-- Node8 -->
<g id="node8" class="node">
<title>Node8</title>
<g id="a_node8"><a xlink:href="../../d5/d2c/macros_2blob_2master_2macros_2g4simulations_2Fun4All__G4__sPHENIX_8C.html#a6eaaa492d7023ec86c562dc63aa1e5a4" target="_top" xlink:title="Fun4All_G4_sPHENIX">
<polygon fill="none" stroke="#000000" points="323,-153.5 323,-173.5 444,-173.5 444,-153.5 323,-153.5"/>
<text text-anchor="middle" x="383.5" y="-160.5" font-family="FreeSans" font-size="10.00" fill="#000000">Fun4All_G4_sPHENIX</text>
</a>
</g>
</g>
<!-- Node2&#45;&gt;Node8 -->
<g id="edge7" class="edge">
<title>Node2&#45;&gt;Node8</title>
<path fill="none" stroke="#191970" d="M273.9548,-190.5127C282.5543,-188.1302 291.5572,-185.6898 300,-183.5 312.9862,-180.1318 327.1618,-176.6599 340.0854,-173.5736"/>
<polygon fill="#191970" stroke="#191970" points="272.7927,-187.2032 264.1029,-193.2644 274.6759,-193.9452 272.7927,-187.2032"/>
</g>
<!-- Node9 -->
<g id="node9" class="node">
<title>Node9</title>
<g id="a_node9"><a xlink:href="../../da/dd0/Fun4All__G4__sPHENIX__photonjet_8C.html#a6f18519e216acc05399e562ea57ea77c" target="_top" xlink:title="Fun4All_G4_sPHENIX\l_photonjet">
<polygon fill="none" stroke="#000000" points="323,-102.5 323,-134.5 444,-134.5 444,-102.5 323,-102.5"/>
<text text-anchor="start" x="331" y="-121.5" font-family="FreeSans" font-size="10.00" fill="#000000">Fun4All_G4_sPHENIX</text>
<text text-anchor="middle" x="383.5" y="-109.5" font-family="FreeSans" font-size="10.00" fill="#000000">_photonjet</text>
</a>
</g>
</g>
<!-- Node2&#45;&gt;Node9 -->
<g id="edge8" class="edge">
<title>Node2&#45;&gt;Node9</title>
<path fill="none" stroke="#191970" d="M248.3982,-185.1307C261.3399,-172.316 280.422,-155.2982 300,-144.5 307.1793,-140.5403 315.0451,-137.0942 322.9884,-134.1213"/>
<polygon fill="#191970" stroke="#191970" points="245.6958,-182.8871 241.1841,-192.4733 250.6891,-187.793 245.6958,-182.8871"/>
</g>
<!-- Node10 -->
<g id="node10" class="node">
<title>Node10</title>
<g id="a_node10"><a xlink:href="../../da/d85/Fun4All__G4__sPHENIX__photons_8C.html#a02fbbd59878fe1299f58ed187e7214ba" target="_top" xlink:title="Fun4All_G4_sPHENIX\l_photons">
<polygon fill="none" stroke="#000000" points="323,-51.5 323,-83.5 444,-83.5 444,-51.5 323,-51.5"/>
<text text-anchor="start" x="331" y="-70.5" font-family="FreeSans" font-size="10.00" fill="#000000">Fun4All_G4_sPHENIX</text>
<text text-anchor="middle" x="383.5" y="-58.5" font-family="FreeSans" font-size="10.00" fill="#000000">_photons</text>
</a>
</g>
</g>
<!-- Node2&#45;&gt;Node10 -->
<g id="edge9" class="edge">
<title>Node2&#45;&gt;Node10</title>
<path fill="none" stroke="#191970" d="M239.2678,-182.77C249.2634,-158.3173 269.5492,-117.0084 300,-93.5 306.8504,-88.2114 314.7898,-83.9889 322.9937,-80.6199"/>
<polygon fill="#191970" stroke="#191970" points="235.8824,-181.8178 235.5067,-192.406 242.4032,-184.363 235.8824,-181.8178"/>
</g>
<!-- Node11 -->
<g id="node11" class="node">
<title>Node11</title>
<g id="a_node11"><a xlink:href="../../de/d55/Fun4All__G4__sPHENIX__truthphotonjet_8C.html#a48a6f4503eaa1b3793d8ae572aa795b9" target="_top" xlink:title="Fun4All_G4_sPHENIX\l_truthphotonjet">
<polygon fill="none" stroke="#000000" points="323,-.5 323,-32.5 444,-32.5 444,-.5 323,-.5"/>
<text text-anchor="start" x="331" y="-19.5" font-family="FreeSans" font-size="10.00" fill="#000000">Fun4All_G4_sPHENIX</text>
<text text-anchor="middle" x="383.5" y="-7.5" font-family="FreeSans" font-size="10.00" fill="#000000">_truthphotonjet</text>
</a>
</g>
</g>
<!-- Node2&#45;&gt;Node11 -->
<g id="edge10" class="edge">
<title>Node2&#45;&gt;Node11</title>
<path fill="none" stroke="#191970" d="M235.0474,-182.0796C241.1766,-148.1944 258.1732,-80.3398 300,-42.5 306.5304,-36.5921 314.3877,-32.0267 322.6357,-28.4986"/>
<polygon fill="#191970" stroke="#191970" points="231.5563,-181.7372 233.3653,-192.1764 238.4611,-182.8876 231.5563,-181.7372"/>
</g>
</g>
</svg>
