<?xml version="1.0" encoding="UTF-8" standalone="no"?>
<!DOCTYPE svg PUBLIC "-//W3C//DTD SVG 1.1//EN"
 "http://www.w3.org/Graphics/SVG/1.1/DTD/svg11.dtd">
<!-- Generated by graphviz version 2.40.1 (20161225.0304)
 -->
<!-- Title: DetermineTowerBackground::SetSeedType Pages: 1 -->
<svg width="470pt" height="413pt"
 viewBox="0.00 0.00 470.00 413.00" xmlns="http://www.w3.org/2000/svg" xmlns:xlink="http://www.w3.org/1999/xlink">
<g id="graph0" class="graph" transform="scale(1 1) rotate(0) translate(4 409)">
<title>DetermineTowerBackground::SetSeedType</title>
<!-- Node1 -->
<g id="node1" class="node">
<title>Node1</title>
<polygon fill="#bfbfbf" stroke="#000000" points="0,-186.5 0,-218.5 159,-218.5 159,-186.5 0,-186.5"/>
<text text-anchor="start" x="8" y="-205.5" font-family="FreeSans" font-size="10.00" fill="#000000">DetermineTowerBackground</text>
<text text-anchor="middle" x="79.5" y="-193.5" font-family="FreeSans" font-size="10.00" fill="#000000">::SetSeedType</text>
</g>
<!-- Node2 -->
<g id="node2" class="node">
<title>Node2</title>
<g id="a_node2"><a xlink:href="../../de/da2/macros_2blob_2master_2macros_2g4simulations_2G4__HIJetReco_8C.html#a9cf9382ceffe61f139e2b7ebb82609bc" target="_top" xlink:title="HIJetReco">
<polygon fill="none" stroke="#000000" points="195,-192.5 195,-212.5 259,-212.5 259,-192.5 195,-192.5"/>
<text text-anchor="middle" x="227" y="-199.5" font-family="FreeSans" font-size="10.00" fill="#000000">HIJetReco</text>
</a>
</g>
</g>
<!-- Node1&#45;&gt;Node2 -->
<g id="edge1" class="edge">
<title>Node1&#45;&gt;Node2</title>
<path fill="none" stroke="#191970" d="M169.5668,-202.5C178.5644,-202.5 187.2209,-202.5 194.9635,-202.5"/>
<polygon fill="#191970" stroke="#191970" points="169.2938,-199.0001 159.2938,-202.5 169.2937,-206.0001 169.2938,-199.0001"/>
</g>
<!-- Node3 -->
<g id="node3" class="node">
<title>Node3</title>
<g id="a_node3"><a xlink:href="../../da/d02/Fun4All__G4__EICDetector_8C.html#afbe82cefa1d1fd031d9a8586b7bb68c6" target="_top" xlink:title="Fun4All_G4_EICDetector">
<polygon fill="none" stroke="#000000" points="309,-384.5 309,-404.5 448,-404.5 448,-384.5 309,-384.5"/>
<text text-anchor="middle" x="378.5" y="-391.5" font-family="FreeSans" font-size="10.00" fill="#000000">Fun4All_G4_EICDetector</text>
</a>
</g>
</g>
<!-- Node2&#45;&gt;Node3 -->
<g id="edge2" class="edge">
<title>Node2&#45;&gt;Node3</title>
<path fill="none" stroke="#191970" d="M228.9282,-222.8708C233.5046,-259.2801 248.4041,-335.4487 295,-375.5 299.1716,-379.0857 303.8816,-382.0317 308.8872,-384.4482"/>
<polygon fill="#191970" stroke="#191970" points="232.3634,-222.094 227.778,-212.5429 225.4064,-222.8689 232.3634,-222.094"/>
</g>
<!-- Node4 -->
<g id="node4" class="node">
<title>Node4</title>
<g id="a_node4"><a xlink:href="../../df/d4b/Fun4All__G4__EICDetector__LQ__analysis_8C.html#af903e98824d083a08b353ac15996ee0e" target="_top" xlink:title="Fun4All_G4_EICDetector\l_LQ_analysis">
<polygon fill="none" stroke="#000000" points="309,-333.5 309,-365.5 448,-365.5 448,-333.5 309,-333.5"/>
<text text-anchor="start" x="317" y="-352.5" font-family="FreeSans" font-size="10.00" fill="#000000">Fun4All_G4_EICDetector</text>
<text text-anchor="middle" x="378.5" y="-340.5" font-family="FreeSans" font-size="10.00" fill="#000000">_LQ_analysis</text>
</a>
</g>
</g>
<!-- Node2&#45;&gt;Node4 -->
<g id="edge3" class="edge">
<title>Node2&#45;&gt;Node4</title>
<path fill="none" stroke="#191970" d="M232.8022,-222.3019C241.7402,-249.3505 261.4512,-297.5581 295,-324.5 299.2475,-327.911 303.9517,-330.8571 308.9001,-333.4015"/>
<polygon fill="#191970" stroke="#191970" points="236.138,-221.242 229.8052,-212.7481 229.4589,-223.3373 236.138,-221.242"/>
</g>
<!-- Node5 -->
<g id="node5" class="node">
<title>Node5</title>
<g id="a_node5"><a xlink:href="../../d1/daf/Fun4All__G4__EICDetector__LQ__analysis__nf_8C.html#a5022607d21247b87dd208b0828905147" target="_top" xlink:title="Fun4All_G4_EICDetector\l_LQ_analysis_nf">
<polygon fill="none" stroke="#000000" points="309,-282.5 309,-314.5 448,-314.5 448,-282.5 309,-282.5"/>
<text text-anchor="start" x="317" y="-301.5" font-family="FreeSans" font-size="10.00" fill="#000000">Fun4All_G4_EICDetector</text>
<text text-anchor="middle" x="378.5" y="-289.5" font-family="FreeSans" font-size="10.00" fill="#000000">_LQ_analysis_nf</text>
</a>
</g>
</g>
<!-- Node2&#45;&gt;Node5 -->
<g id="edge4" class="edge">
<title>Node2&#45;&gt;Node5</title>
<path fill="none" stroke="#191970" d="M240.006,-220.6735C252.4185,-236.7568 272.5182,-259.749 295,-273.5 300.5509,-276.8952 306.5928,-279.8552 312.8043,-282.4303"/>
<polygon fill="#191970" stroke="#191970" points="242.7254,-218.4656 233.9347,-212.5517 237.1188,-222.6568 242.7254,-218.4656"/>
</g>
<!-- Node6 -->
<g id="node6" class="node">
<title>Node6</title>
<g id="a_node6"><a xlink:href="../../d4/df5/Fun4All__G4__EICDetector__LQ__reference_8C.html#a2feefc472f17f90b3cbe74897d049f75" target="_top" xlink:title="Fun4All_G4_EICDetector\l_LQ_reference">
<polygon fill="none" stroke="#000000" points="309,-231.5 309,-263.5 448,-263.5 448,-231.5 309,-231.5"/>
<text text-anchor="start" x="317" y="-250.5" font-family="FreeSans" font-size="10.00" fill="#000000">Fun4All_G4_EICDetector</text>
<text text-anchor="middle" x="378.5" y="-238.5" font-family="FreeSans" font-size="10.00" fill="#000000">_LQ_reference</text>
</a>
</g>
</g>
<!-- Node2&#45;&gt;Node6 -->
<g id="edge5" class="edge">
<title>Node2&#45;&gt;Node6</title>
<path fill="none" stroke="#191970" d="M268.8584,-214.9332C286.0171,-220.0298 306.0984,-225.9946 324.3532,-231.4168"/>
<polygon fill="#191970" stroke="#191970" points="269.7119,-211.5356 259.1293,-212.0433 267.7187,-218.2459 269.7119,-211.5356"/>
</g>
<!-- Node7 -->
<g id="node7" class="node">
<title>Node7</title>
<g id="a_node7"><a xlink:href="../../d3/d51/Fun4All__G4__EICDetector__RICH_8C.html#a5739502b0a7a1ba782c01069f77e933f" target="_top" xlink:title="Fun4All_G4_EICDetector_RICH">
<polygon fill="none" stroke="#000000" points="295,-192.5 295,-212.5 462,-212.5 462,-192.5 295,-192.5"/>
<text text-anchor="middle" x="378.5" y="-199.5" font-family="FreeSans" font-size="10.00" fill="#000000">Fun4All_G4_EICDetector_RICH</text>
</a>
</g>
</g>
<!-- Node2&#45;&gt;Node7 -->
<g id="edge6" class="edge">
<title>Node2&#45;&gt;Node7</title>
<path fill="none" stroke="#191970" d="M269.3425,-202.5C277.4207,-202.5 286.1328,-202.5 294.9879,-202.5"/>
<polygon fill="#191970" stroke="#191970" points="269.1293,-199.0001 259.1293,-202.5 269.1292,-206.0001 269.1293,-199.0001"/>
</g>
<!-- Node8 -->
<g id="node8" class="node">
<title>Node8</title>
<g id="a_node8"><a xlink:href="../../d5/d2c/macros_2blob_2master_2macros_2g4simulations_2Fun4All__G4__sPHENIX_8C.html#a6eaaa492d7023ec86c562dc63aa1e5a4" target="_top" xlink:title="Fun4All_G4_sPHENIX">
<polygon fill="none" stroke="#000000" points="318,-153.5 318,-173.5 439,-173.5 439,-153.5 318,-153.5"/>
<text text-anchor="middle" x="378.5" y="-160.5" font-family="FreeSans" font-size="10.00" fill="#000000">Fun4All_G4_sPHENIX</text>
</a>
</g>
</g>
<!-- Node2&#45;&gt;Node8 -->
<g id="edge7" class="edge">
<title>Node2&#45;&gt;Node8</title>
<path fill="none" stroke="#191970" d="M268.9548,-190.5127C277.5543,-188.1302 286.5572,-185.6898 295,-183.5 307.9862,-180.1318 322.1618,-176.6599 335.0854,-173.5736"/>
<polygon fill="#191970" stroke="#191970" points="267.7927,-187.2032 259.1029,-193.2644 269.6759,-193.9452 267.7927,-187.2032"/>
</g>
<!-- Node9 -->
<g id="node9" class="node">
<title>Node9</title>
<g id="a_node9"><a xlink:href="../../da/dd0/Fun4All__G4__sPHENIX__photonjet_8C.html#a6f18519e216acc05399e562ea57ea77c" target="_top" xlink:title="Fun4All_G4_sPHENIX\l_photonjet">
<polygon fill="none" stroke="#000000" points="318,-102.5 318,-134.5 439,-134.5 439,-102.5 318,-102.5"/>
<text text-anchor="start" x="326" y="-121.5" font-family="FreeSans" font-size="10.00" fill="#000000">Fun4All_G4_sPHENIX</text>
<text text-anchor="middle" x="378.5" y="-109.5" font-family="FreeSans" font-size="10.00" fill="#000000">_photonjet</text>
</a>
</g>
</g>
<!-- Node2&#45;&gt;Node9 -->
<g id="edge8" class="edge">
<title>Node2&#45;&gt;Node9</title>
<path fill="none" stroke="#191970" d="M243.3982,-185.1307C256.3399,-172.316 275.422,-155.2982 295,-144.5 302.1793,-140.5403 310.0451,-137.0942 317.9884,-134.1213"/>
<polygon fill="#191970" stroke="#191970" points="240.6958,-182.8871 236.1841,-192.4733 245.6891,-187.793 240.6958,-182.8871"/>
</g>
<!-- Node10 -->
<g id="node10" class="node">
<title>Node10</title>
<g id="a_node10"><a xlink:href="../../da/d85/Fun4All__G4__sPHENIX__photons_8C.html#a02fbbd59878fe1299f58ed187e7214ba" target="_top" xlink:title="Fun4All_G4_sPHENIX\l_photons">
<polygon fill="none" stroke="#000000" points="318,-51.5 318,-83.5 439,-83.5 439,-51.5 318,-51.5"/>
<text text-anchor="start" x="326" y="-70.5" font-family="FreeSans" font-size="10.00" fill="#000000">Fun4All_G4_sPHENIX</text>
<text text-anchor="middle" x="378.5" y="-58.5" font-family="FreeSans" font-size="10.00" fill="#000000">_photons</text>
</a>
</g>
</g>
<!-- Node2&#45;&gt;Node10 -->
<g id="edge9" class="edge">
<title>Node2&#45;&gt;Node10</title>
<path fill="none" stroke="#191970" d="M234.2678,-182.77C244.2634,-158.3173 264.5492,-117.0084 295,-93.5 301.8504,-88.2114 309.7898,-83.9889 317.9937,-80.6199"/>
<polygon fill="#191970" stroke="#191970" points="230.8824,-181.8178 230.5067,-192.406 237.4032,-184.363 230.8824,-181.8178"/>
</g>
<!-- Node11 -->
<g id="node11" class="node">
<title>Node11</title>
<g id="a_node11"><a xlink:href="../../de/d55/Fun4All__G4__sPHENIX__truthphotonjet_8C.html#a48a6f4503eaa1b3793d8ae572aa795b9" target="_top" xlink:title="Fun4All_G4_sPHENIX\l_truthphotonjet">
<polygon fill="none" stroke="#000000" points="318,-.5 318,-32.5 439,-32.5 439,-.5 318,-.5"/>
<text text-anchor="start" x="326" y="-19.5" font-family="FreeSans" font-size="10.00" fill="#000000">Fun4All_G4_sPHENIX</text>
<text text-anchor="middle" x="378.5" y="-7.5" font-family="FreeSans" font-size="10.00" fill="#000000">_truthphotonjet</text>
</a>
</g>
</g>
<!-- Node2&#45;&gt;Node11 -->
<g id="edge10" class="edge">
<title>Node2&#45;&gt;Node11</title>
<path fill="none" stroke="#191970" d="M230.0474,-182.0796C236.1766,-148.1944 253.1732,-80.3398 295,-42.5 301.5304,-36.5921 309.3877,-32.0267 317.6357,-28.4986"/>
<polygon fill="#191970" stroke="#191970" points="226.5563,-181.7372 228.3653,-192.1764 233.4611,-182.8876 226.5563,-181.7372"/>
</g>
</g>
</svg>
