<?xml version="1.0" encoding="UTF-8" standalone="no"?>
<!DOCTYPE svg PUBLIC "-//W3C//DTD SVG 1.1//EN"
 "http://www.w3.org/Graphics/SVG/1.1/DTD/svg11.dtd">
<!-- Generated by graphviz version 2.40.1 (20161225.0304)
 -->
<!-- Title: SvtxVertexEval::next_event Pages: 1 -->
<svg width="947pt" height="565pt"
 viewBox="0.00 0.00 947.00 565.00" xmlns="http://www.w3.org/2000/svg" xmlns:xlink="http://www.w3.org/1999/xlink">
<g id="graph0" class="graph" transform="scale(1 1) rotate(0) translate(4 561)">
<title>SvtxVertexEval::next_event</title>
<!-- Node1 -->
<g id="node1" class="node">
<title>Node1</title>
<polygon fill="#bfbfbf" stroke="#000000" points="0,-243.5 0,-275.5 122,-275.5 122,-243.5 0,-243.5"/>
<text text-anchor="start" x="8" y="-262.5" font-family="FreeSans" font-size="10.00" fill="#000000">SvtxVertexEval::next</text>
<text text-anchor="middle" x="61" y="-250.5" font-family="FreeSans" font-size="10.00" fill="#000000">_event</text>
</g>
<!-- Node2 -->
<g id="node2" class="node">
<title>Node2</title>
<g id="a_node2"><a xlink:href="../../d3/ded/classSvtxEvalStack.html#a8a929a1f521c9e8596ecb1ca108281cf" target="_top" xlink:title="SvtxEvalStack::next\l_event">
<polygon fill="none" stroke="#000000" points="158,-243.5 158,-275.5 275,-275.5 275,-243.5 158,-243.5"/>
<text text-anchor="start" x="166" y="-262.5" font-family="FreeSans" font-size="10.00" fill="#000000">SvtxEvalStack::next</text>
<text text-anchor="middle" x="216.5" y="-250.5" font-family="FreeSans" font-size="10.00" fill="#000000">_event</text>
</a>
</g>
</g>
<!-- Node1&#45;&gt;Node2 -->
<g id="edge1" class="edge">
<title>Node1&#45;&gt;Node2</title>
<path fill="none" stroke="#191970" d="M132.0932,-259.5C140.7469,-259.5 149.5114,-259.5 157.9536,-259.5"/>
<polygon fill="#191970" stroke="#191970" points="132.0114,-256.0001 122.0114,-259.5 132.0114,-263.0001 132.0114,-256.0001"/>
</g>
<!-- Node3 -->
<g id="node3" class="node">
<title>Node3</title>
<g id="a_node3"><a xlink:href="../../d3/d22/classJetTruthEval.html#ac29b8d18ee116903ed233388eb253256" target="_top" xlink:title="reinitialize the eval for a new event">
<polygon fill="none" stroke="#000000" points="331,-498.5 331,-530.5 438,-530.5 438,-498.5 331,-498.5"/>
<text text-anchor="start" x="339" y="-517.5" font-family="FreeSans" font-size="10.00" fill="#000000">JetTruthEval::next</text>
<text text-anchor="middle" x="384.5" y="-505.5" font-family="FreeSans" font-size="10.00" fill="#000000">_event</text>
</a>
</g>
</g>
<!-- Node2&#45;&gt;Node3 -->
<g id="edge2" class="edge">
<title>Node2&#45;&gt;Node3</title>
<path fill="none" stroke="#191970" d="M220.1061,-285.7928C227.9701,-333.1612 251.028,-433.1345 311,-489.5 316.6964,-494.8538 323.5844,-499.065 330.8317,-502.3764"/>
<polygon fill="#191970" stroke="#191970" points="223.5352,-285.0671 218.5347,-275.7266 216.619,-286.1468 223.5352,-285.0671"/>
</g>
<!-- Node8 -->
<g id="node8" class="node">
<title>Node8</title>
<g id="a_node8"><a xlink:href="../../db/d2f/classAnaSvtxTracksForGenFit.html#a6f277cfc1d441b018fccacf6fb882dd0" target="_top" xlink:title="AnaSvtxTracksForGenFit\l::process_event">
<polygon fill="none" stroke="#000000" points="314.5,-447.5 314.5,-479.5 454.5,-479.5 454.5,-447.5 314.5,-447.5"/>
<text text-anchor="start" x="322.5" y="-466.5" font-family="FreeSans" font-size="10.00" fill="#000000">AnaSvtxTracksForGenFit</text>
<text text-anchor="middle" x="384.5" y="-454.5" font-family="FreeSans" font-size="10.00" fill="#000000">::process_event</text>
</a>
</g>
</g>
<!-- Node2&#45;&gt;Node8 -->
<g id="edge7" class="edge">
<title>Node2&#45;&gt;Node8</title>
<path fill="none" stroke="#191970" d="M223.5363,-285.6735C235.2783,-324.473 262.4993,-397.1102 311,-438.5 314.9985,-441.9123 319.4845,-444.8651 324.2168,-447.4192"/>
<polygon fill="#191970" stroke="#191970" points="226.7837,-284.3061 220.6301,-275.6814 220.0622,-286.2611 226.7837,-284.3061"/>
</g>
<!-- Node9 -->
<g id="node9" class="node">
<title>Node9</title>
<g id="a_node9"><a xlink:href="../../da/dbf/classHFMLTriggerOccupancy.html#add094957c68c32da4afc212ffa24e885" target="_top" xlink:title="HFMLTriggerOccupancy\l::process_event">
<polygon fill="none" stroke="#000000" points="317.5,-396.5 317.5,-428.5 451.5,-428.5 451.5,-396.5 317.5,-396.5"/>
<text text-anchor="start" x="325.5" y="-415.5" font-family="FreeSans" font-size="10.00" fill="#000000">HFMLTriggerOccupancy</text>
<text text-anchor="middle" x="384.5" y="-403.5" font-family="FreeSans" font-size="10.00" fill="#000000">::process_event</text>
</a>
</g>
</g>
<!-- Node2&#45;&gt;Node9 -->
<g id="edge8" class="edge">
<title>Node2&#45;&gt;Node9</title>
<path fill="none" stroke="#191970" d="M229.0411,-284.763C244.5458,-313.54 273.5383,-360.1086 311,-387.5 315.6785,-390.9208 320.859,-393.8978 326.2408,-396.4835"/>
<polygon fill="#191970" stroke="#191970" points="232.0523,-282.9688 224.3073,-275.7393 225.8535,-286.2207 232.0523,-282.9688"/>
</g>
<!-- Node10 -->
<g id="node10" class="node">
<title>Node10</title>
<g id="a_node10"><a xlink:href="../../d7/d62/classHFMLTriggerInterface.html#a29f338c2563a39e5d0e58b316f4b036f" target="_top" xlink:title="HFMLTriggerInterface\l::process_event">
<polygon fill="none" stroke="#000000" points="323.5,-345.5 323.5,-377.5 445.5,-377.5 445.5,-345.5 323.5,-345.5"/>
<text text-anchor="start" x="331.5" y="-364.5" font-family="FreeSans" font-size="10.00" fill="#000000">HFMLTriggerInterface</text>
<text text-anchor="middle" x="384.5" y="-352.5" font-family="FreeSans" font-size="10.00" fill="#000000">::process_event</text>
</a>
</g>
</g>
<!-- Node2&#45;&gt;Node10 -->
<g id="edge9" class="edge">
<title>Node2&#45;&gt;Node10</title>
<path fill="none" stroke="#191970" d="M240.3058,-282.9695C258.4302,-299.7734 284.6707,-321.9179 311,-336.5 317.0133,-339.8304 323.5478,-342.826 330.1571,-345.4881"/>
<polygon fill="#191970" stroke="#191970" points="242.2516,-279.9929 232.5783,-275.6709 237.445,-285.0819 242.2516,-279.9929"/>
</g>
<!-- Node11 -->
<g id="node11" class="node">
<title>Node11</title>
<g id="a_node11"><a xlink:href="../../d2/d85/classSvtxEvaluatorHaiwang.html#ab63ca0cc53b56dad65b89d9b18220bce" target="_top" xlink:title="SvtxEvaluatorHaiwang\l::process_event">
<polygon fill="none" stroke="#000000" points="319,-294.5 319,-326.5 450,-326.5 450,-294.5 319,-294.5"/>
<text text-anchor="start" x="327" y="-313.5" font-family="FreeSans" font-size="10.00" fill="#000000">SvtxEvaluatorHaiwang</text>
<text text-anchor="middle" x="384.5" y="-301.5" font-family="FreeSans" font-size="10.00" fill="#000000">::process_event</text>
</a>
</g>
</g>
<!-- Node2&#45;&gt;Node11 -->
<g id="edge10" class="edge">
<title>Node2&#45;&gt;Node11</title>
<path fill="none" stroke="#191970" d="M279.5938,-278.6535C296.756,-283.8634 315.1616,-289.4508 331.6895,-294.4683"/>
<polygon fill="#191970" stroke="#191970" points="280.2418,-275.1925 269.6563,-275.6367 278.2084,-281.8907 280.2418,-275.1925"/>
</g>
<!-- Node12 -->
<g id="node12" class="node">
<title>Node12</title>
<g id="a_node12"><a xlink:href="../../d8/d98/classpsTOFTimezeroEval.html#a2e98730e1beaa91c36947c0fe671fdd2" target="_top" xlink:title="psTOFTimezeroEval::\lprocess_event">
<polygon fill="none" stroke="#000000" points="323.5,-243.5 323.5,-275.5 445.5,-275.5 445.5,-243.5 323.5,-243.5"/>
<text text-anchor="start" x="331.5" y="-262.5" font-family="FreeSans" font-size="10.00" fill="#000000">psTOFTimezeroEval::</text>
<text text-anchor="middle" x="384.5" y="-250.5" font-family="FreeSans" font-size="10.00" fill="#000000">process_event</text>
</a>
</g>
</g>
<!-- Node2&#45;&gt;Node12 -->
<g id="edge11" class="edge">
<title>Node2&#45;&gt;Node12</title>
<path fill="none" stroke="#191970" d="M285.2863,-259.5C297.9466,-259.5 311.0839,-259.5 323.4955,-259.5"/>
<polygon fill="#191970" stroke="#191970" points="285.2583,-256.0001 275.2582,-259.5 285.2582,-263.0001 285.2583,-256.0001"/>
</g>
<!-- Node13 -->
<g id="node13" class="node">
<title>Node13</title>
<g id="a_node13"><a xlink:href="../../d6/d11/classSvtxEvaluator.html#ac66ea4145deb621d9e4fb38cf852dc33" target="_top" xlink:title="SvtxEvaluator::process\l_event">
<polygon fill="none" stroke="#000000" points="318.5,-192.5 318.5,-224.5 450.5,-224.5 450.5,-192.5 318.5,-192.5"/>
<text text-anchor="start" x="326.5" y="-211.5" font-family="FreeSans" font-size="10.00" fill="#000000">SvtxEvaluator::process</text>
<text text-anchor="middle" x="384.5" y="-199.5" font-family="FreeSans" font-size="10.00" fill="#000000">_event</text>
</a>
</g>
</g>
<!-- Node2&#45;&gt;Node13 -->
<g id="edge12" class="edge">
<title>Node2&#45;&gt;Node13</title>
<path fill="none" stroke="#191970" d="M279.5938,-240.3465C296.756,-235.1366 315.1616,-229.5492 331.6895,-224.5317"/>
<polygon fill="#191970" stroke="#191970" points="278.2084,-237.1093 269.6563,-243.3633 280.2418,-243.8075 278.2084,-237.1093"/>
</g>
<!-- Node14 -->
<g id="node14" class="node">
<title>Node14</title>
<g id="a_node14"><a xlink:href="../../dc/d65/classPhotonJet.html#a3f9d3ec941f851bc2246ceb0c5362c9f" target="_top" xlink:title="PhotonJet::process\l_event">
<polygon fill="none" stroke="#000000" points="329.5,-141.5 329.5,-173.5 439.5,-173.5 439.5,-141.5 329.5,-141.5"/>
<text text-anchor="start" x="337.5" y="-160.5" font-family="FreeSans" font-size="10.00" fill="#000000">PhotonJet::process</text>
<text text-anchor="middle" x="384.5" y="-148.5" font-family="FreeSans" font-size="10.00" fill="#000000">_event</text>
</a>
</g>
</g>
<!-- Node2&#45;&gt;Node14 -->
<g id="edge13" class="edge">
<title>Node2&#45;&gt;Node14</title>
<path fill="none" stroke="#191970" d="M240.7446,-236.1446C258.9085,-219.6519 285.0079,-197.9932 311,-183.5 317.6201,-179.8086 324.8611,-176.4881 332.1344,-173.5527"/>
<polygon fill="#191970" stroke="#191970" points="237.9549,-233.9569 232.9863,-243.3145 242.7059,-239.0978 237.9549,-233.9569"/>
</g>
<!-- Node15 -->
<g id="node15" class="node">
<title>Node15</title>
<g id="a_node15"><a xlink:href="../../dc/dfb/classGenFitTrackProp.html#a92a3570ed1802ba0f7e9eeb50eb9a6ec" target="_top" xlink:title="Process Event, called for each event.">
<polygon fill="none" stroke="#000000" points="313,-90.5 313,-122.5 456,-122.5 456,-90.5 313,-90.5"/>
<text text-anchor="start" x="321" y="-109.5" font-family="FreeSans" font-size="10.00" fill="#000000">GenFitTrackProp::process</text>
<text text-anchor="middle" x="384.5" y="-97.5" font-family="FreeSans" font-size="10.00" fill="#000000">_event</text>
</a>
</g>
</g>
<!-- Node2&#45;&gt;Node15 -->
<g id="edge14" class="edge">
<title>Node2&#45;&gt;Node15</title>
<path fill="none" stroke="#191970" d="M229.1488,-234.5166C244.7547,-206.0416 273.8421,-159.9092 311,-132.5 316.1195,-128.7237 321.8366,-125.4576 327.7593,-122.6417"/>
<polygon fill="#191970" stroke="#191970" points="226.0047,-232.9741 224.381,-243.4438 232.1793,-236.2718 226.0047,-232.9741"/>
</g>
<!-- Node16 -->
<g id="node16" class="node">
<title>Node16</title>
<g id="a_node16"><a xlink:href="../../db/d4b/classEMCalAna.html#a3b829b80df0fd8625130f3d9c11f5d3d" target="_top" xlink:title="EMCalAna::process_event">
<polygon fill="none" stroke="#000000" points="311,-51.5 311,-71.5 458,-71.5 458,-51.5 311,-51.5"/>
<text text-anchor="middle" x="384.5" y="-58.5" font-family="FreeSans" font-size="10.00" fill="#000000">EMCalAna::process_event</text>
</a>
</g>
</g>
<!-- Node2&#45;&gt;Node16 -->
<g id="edge15" class="edge">
<title>Node2&#45;&gt;Node16</title>
<path fill="none" stroke="#191970" d="M223.1727,-233.3786C234.5076,-194.3672 261.2825,-121.2304 311,-81.5 316.0622,-77.4547 321.8792,-74.2253 327.9768,-71.6476"/>
<polygon fill="#191970" stroke="#191970" points="219.6873,-232.8485 220.3789,-243.4207 226.4312,-234.7247 219.6873,-232.8485"/>
</g>
<!-- Node17 -->
<g id="node17" class="node">
<title>Node17</title>
<g id="a_node17"><a xlink:href="../../de/da4/classEMCalCalib.html#aa70da6270813e434e35da37b6ec2a350" target="_top" xlink:title="EMCalCalib::process\l_event">
<polygon fill="none" stroke="#000000" points="325.5,-.5 325.5,-32.5 443.5,-32.5 443.5,-.5 325.5,-.5"/>
<text text-anchor="start" x="333.5" y="-19.5" font-family="FreeSans" font-size="10.00" fill="#000000">EMCalCalib::process</text>
<text text-anchor="middle" x="384.5" y="-7.5" font-family="FreeSans" font-size="10.00" fill="#000000">_event</text>
</a>
</g>
</g>
<!-- Node2&#45;&gt;Node17 -->
<g id="edge16" class="edge">
<title>Node2&#45;&gt;Node17</title>
<path fill="none" stroke="#191970" d="M220.8741,-233.4668C229.7854,-188.35 254.2201,-95.4003 311,-42.5 315.2584,-38.5326 320.1599,-35.1644 325.3684,-32.3061"/>
<polygon fill="#191970" stroke="#191970" points="217.4239,-232.8764 219.0215,-243.3501 224.3041,-234.1661 217.4239,-232.8764"/>
</g>
<!-- Node4 -->
<g id="node4" class="node">
<title>Node4</title>
<g id="a_node4"><a xlink:href="../../dd/d75/classJetRecoEval.html#ae02e058aa7f403d5853482b5d06c01c9" target="_top" xlink:title="reinitialize the eval for a new event">
<polygon fill="none" stroke="#000000" points="494,-504.5 494,-524.5 634,-524.5 634,-504.5 494,-504.5"/>
<text text-anchor="middle" x="564" y="-511.5" font-family="FreeSans" font-size="10.00" fill="#000000">JetRecoEval::next_event</text>
</a>
</g>
</g>
<!-- Node3&#45;&gt;Node4 -->
<g id="edge3" class="edge">
<title>Node3&#45;&gt;Node4</title>
<path fill="none" stroke="#191970" d="M448.3794,-514.5C463.1247,-514.5 478.8886,-514.5 493.8837,-514.5"/>
<polygon fill="#191970" stroke="#191970" points="448.356,-511.0001 438.3559,-514.5 448.3559,-518.0001 448.356,-511.0001"/>
</g>
<!-- Node5 -->
<g id="node5" class="node">
<title>Node5</title>
<g id="a_node5"><a xlink:href="../../dd/df3/classJetEvalStack.html#ab85ba05ab4fea5909c8faa238ba5f8e6" target="_top" xlink:title="JetEvalStack::next\l_event">
<polygon fill="none" stroke="#000000" points="670,-498.5 670,-530.5 779,-530.5 779,-498.5 670,-498.5"/>
<text text-anchor="start" x="678" y="-517.5" font-family="FreeSans" font-size="10.00" fill="#000000">JetEvalStack::next</text>
<text text-anchor="middle" x="724.5" y="-505.5" font-family="FreeSans" font-size="10.00" fill="#000000">_event</text>
</a>
</g>
</g>
<!-- Node4&#45;&gt;Node5 -->
<g id="edge4" class="edge">
<title>Node4&#45;&gt;Node5</title>
<path fill="none" stroke="#191970" d="M644.6705,-514.5C653.1104,-514.5 661.5441,-514.5 669.5983,-514.5"/>
<polygon fill="#191970" stroke="#191970" points="644.3977,-511.0001 634.3976,-514.5 644.3976,-518.0001 644.3977,-511.0001"/>
</g>
<!-- Node6 -->
<g id="node6" class="node">
<title>Node6</title>
<g id="a_node6"><a xlink:href="../../d1/df4/classJetEvaluator.html#ad83508ae828d1f2e4a83a948465a0cd2" target="_top" xlink:title="JetEvaluator::process\l_event">
<polygon fill="none" stroke="#000000" points="815,-524.5 815,-556.5 939,-556.5 939,-524.5 815,-524.5"/>
<text text-anchor="start" x="823" y="-543.5" font-family="FreeSans" font-size="10.00" fill="#000000">JetEvaluator::process</text>
<text text-anchor="middle" x="877" y="-531.5" font-family="FreeSans" font-size="10.00" fill="#000000">_event</text>
</a>
</g>
</g>
<!-- Node5&#45;&gt;Node6 -->
<g id="edge5" class="edge">
<title>Node5&#45;&gt;Node6</title>
<path fill="none" stroke="#191970" d="M789.079,-525.5102C797.66,-526.9732 806.443,-528.4706 814.9793,-529.926"/>
<polygon fill="#191970" stroke="#191970" points="789.5713,-522.0437 779.1253,-523.8132 788.3948,-528.9441 789.5713,-522.0437"/>
</g>
<!-- Node7 -->
<g id="node7" class="node">
<title>Node7</title>
<g id="a_node7"><a xlink:href="../../d8/de2/classJetEnergies.html#a6acaa9b2ba1fe7353781d2f5d476e8d1" target="_top" xlink:title="JetEnergies::process\l_event">
<polygon fill="none" stroke="#000000" points="817,-473.5 817,-505.5 937,-505.5 937,-473.5 817,-473.5"/>
<text text-anchor="start" x="825" y="-492.5" font-family="FreeSans" font-size="10.00" fill="#000000">JetEnergies::process</text>
<text text-anchor="middle" x="877" y="-480.5" font-family="FreeSans" font-size="10.00" fill="#000000">_event</text>
</a>
</g>
</g>
<!-- Node5&#45;&gt;Node7 -->
<g id="edge6" class="edge">
<title>Node5&#45;&gt;Node7</title>
<path fill="none" stroke="#191970" d="M789.009,-503.9248C798.2267,-502.4137 807.6788,-500.8641 816.8092,-499.3673"/>
<polygon fill="#191970" stroke="#191970" points="788.4273,-500.4733 779.1253,-505.545 789.5598,-507.3811 788.4273,-500.4733"/>
</g>
</g>
</svg>
