<?xml version="1.0" encoding="UTF-8" standalone="no"?>
<!DOCTYPE svg PUBLIC "-//W3C//DTD SVG 1.1//EN"
 "http://www.w3.org/Graphics/SVG/1.1/DTD/svg11.dtd">
<!-- Generated by graphviz version 2.40.1 (20161225.0304)
 -->
<!-- Title: PHParameterContainerInterface::set_double_param Pages: 1 -->
<svg width="777pt" height="686pt"
 viewBox="0.00 0.00 777.00 686.00" xmlns="http://www.w3.org/2000/svg" xmlns:xlink="http://www.w3.org/1999/xlink">
<g id="graph0" class="graph" transform="scale(1 1) rotate(0) translate(4 682)">
<title>PHParameterContainerInterface::set_double_param</title>
<!-- Node1 -->
<g id="node1" class="node">
<title>Node1</title>
<polygon fill="#bfbfbf" stroke="#000000" points="0,-199.5 0,-231.5 176,-231.5 176,-199.5 0,-199.5"/>
<text text-anchor="start" x="8" y="-218.5" font-family="FreeSans" font-size="10.00" fill="#000000">PHParameterContainerInterface</text>
<text text-anchor="middle" x="88" y="-206.5" font-family="FreeSans" font-size="10.00" fill="#000000">::set_double_param</text>
</g>
<!-- Node2 -->
<g id="node2" class="node">
<title>Node2</title>
<g id="a_node2"><a xlink:href="../../d5/dd0/classPHG4CylinderCellReco.html#a8e774e299dece3ffe63a748793c87cc1" target="_top" xlink:title="PHG4CylinderCellReco\l::cellsize">
<polygon fill="none" stroke="#000000" points="212,-301.5 212,-333.5 341,-333.5 341,-301.5 212,-301.5"/>
<text text-anchor="start" x="220" y="-320.5" font-family="FreeSans" font-size="10.00" fill="#000000">PHG4CylinderCellReco</text>
<text text-anchor="middle" x="276.5" y="-308.5" font-family="FreeSans" font-size="10.00" fill="#000000">::cellsize</text>
</a>
</g>
</g>
<!-- Node1&#45;&gt;Node2 -->
<g id="edge1" class="edge">
<title>Node1&#45;&gt;Node2</title>
<path fill="none" stroke="#191970" d="M120.1008,-237.2266C144.6485,-253.3299 179.6634,-275.2156 212,-291.5 218.9013,-294.9754 226.3832,-298.3381 233.7241,-301.4273"/>
<polygon fill="#191970" stroke="#191970" points="121.8268,-234.172 111.5548,-231.5765 117.9662,-240.0112 121.8268,-234.172"/>
</g>
<!-- Node22 -->
<g id="node22" class="node">
<title>Node22</title>
<g id="a_node22"><a xlink:href="../../d5/dd0/classPHG4CylinderCellReco.html#abbd15ecbd41cf3e68196cbcab1fd4e2c" target="_top" xlink:title="PHG4CylinderCellReco\l::etaphisize">
<polygon fill="none" stroke="#000000" points="212,-250.5 212,-282.5 341,-282.5 341,-250.5 212,-250.5"/>
<text text-anchor="start" x="220" y="-269.5" font-family="FreeSans" font-size="10.00" fill="#000000">PHG4CylinderCellReco</text>
<text text-anchor="middle" x="276.5" y="-257.5" font-family="FreeSans" font-size="10.00" fill="#000000">::etaphisize</text>
</a>
</g>
</g>
<!-- Node1&#45;&gt;Node22 -->
<g id="edge21" class="edge">
<title>Node1&#45;&gt;Node22</title>
<path fill="none" stroke="#191970" d="M157.1936,-234.2208C176.8486,-239.5386 198.0713,-245.2806 217.0909,-250.4264"/>
<polygon fill="#191970" stroke="#191970" points="157.9509,-230.7999 147.3838,-231.5667 156.1227,-237.557 157.9509,-230.7999"/>
</g>
<!-- Node24 -->
<g id="node24" class="node">
<title>Node24</title>
<g id="a_node24"><a xlink:href="../../df/d5e/classPHG4BlockCellReco.html#a5d39419017e6f11365c09ccd90c6b40e" target="_top" xlink:title="PHG4BlockCellReco::\letaxsize">
<polygon fill="none" stroke="#000000" points="216,-199.5 216,-231.5 337,-231.5 337,-199.5 216,-199.5"/>
<text text-anchor="start" x="224" y="-218.5" font-family="FreeSans" font-size="10.00" fill="#000000">PHG4BlockCellReco::</text>
<text text-anchor="middle" x="276.5" y="-206.5" font-family="FreeSans" font-size="10.00" fill="#000000">etaxsize</text>
</a>
</g>
</g>
<!-- Node1&#45;&gt;Node24 -->
<g id="edge23" class="edge">
<title>Node1&#45;&gt;Node24</title>
<path fill="none" stroke="#191970" d="M186.2538,-215.5C196.3253,-215.5 206.3357,-215.5 215.8239,-215.5"/>
<polygon fill="#191970" stroke="#191970" points="186.1791,-212.0001 176.179,-215.5 186.179,-219.0001 186.1791,-212.0001"/>
</g>
<!-- Node25 -->
<g id="node25" class="node">
<title>Node25</title>
<g id="a_node25"><a xlink:href="../../df/d5e/classPHG4BlockCellReco.html#a813c41dc4a623c245426661905304e41" target="_top" xlink:title="PHG4BlockCellReco::\lset_timing_window">
<polygon fill="none" stroke="#000000" points="216,-148.5 216,-180.5 337,-180.5 337,-148.5 216,-148.5"/>
<text text-anchor="start" x="224" y="-167.5" font-family="FreeSans" font-size="10.00" fill="#000000">PHG4BlockCellReco::</text>
<text text-anchor="middle" x="276.5" y="-155.5" font-family="FreeSans" font-size="10.00" fill="#000000">set_timing_window</text>
</a>
</g>
</g>
<!-- Node1&#45;&gt;Node25 -->
<g id="edge24" class="edge">
<title>Node1&#45;&gt;Node25</title>
<path fill="none" stroke="#191970" d="M157.1936,-196.7792C176.8486,-191.4614 198.0713,-185.7194 217.0909,-180.5736"/>
<polygon fill="#191970" stroke="#191970" points="156.1227,-193.443 147.3838,-199.4333 157.9509,-200.2001 156.1227,-193.443"/>
</g>
<!-- Node26 -->
<g id="node26" class="node">
<title>Node26</title>
<g id="a_node26"><a xlink:href="../../d5/dd0/classPHG4CylinderCellReco.html#a2ab7baca05738b086177de3cea8928d1" target="_top" xlink:title="PHG4CylinderCellReco\l::set_timing_window">
<polygon fill="none" stroke="#000000" points="212,-97.5 212,-129.5 341,-129.5 341,-97.5 212,-97.5"/>
<text text-anchor="start" x="220" y="-116.5" font-family="FreeSans" font-size="10.00" fill="#000000">PHG4CylinderCellReco</text>
<text text-anchor="middle" x="276.5" y="-104.5" font-family="FreeSans" font-size="10.00" fill="#000000">::set_timing_window</text>
</a>
</g>
</g>
<!-- Node1&#45;&gt;Node26 -->
<g id="edge25" class="edge">
<title>Node1&#45;&gt;Node26</title>
<path fill="none" stroke="#191970" d="M119.542,-193.6308C144.0568,-177.2035 179.2831,-154.821 212,-138.5 218.3405,-135.337 225.1844,-132.304 231.9629,-129.5092"/>
<polygon fill="#191970" stroke="#191970" points="117.3445,-190.8916 111.0194,-199.3913 121.2644,-196.6912 117.3445,-190.8916"/>
</g>
<!-- Node3 -->
<g id="node3" class="node">
<title>Node3</title>
<g id="a_node3"><a xlink:href="../../d8/d4c/G4__CEmc__EIC_8C.html#ab555024f512a193bc7b10d42a92453c8" target="_top" xlink:title="CEMC_Cells">
<polygon fill="none" stroke="#000000" points="399.5,-340.5 399.5,-360.5 473.5,-360.5 473.5,-340.5 399.5,-340.5"/>
<text text-anchor="middle" x="436.5" y="-347.5" font-family="FreeSans" font-size="10.00" fill="#000000">CEMC_Cells</text>
</a>
</g>
</g>
<!-- Node2&#45;&gt;Node3 -->
<g id="edge2" class="edge">
<title>Node2&#45;&gt;Node3</title>
<path fill="none" stroke="#191970" d="M350.9325,-332.8517C367.7058,-336.3112 384.8071,-339.8383 399.2678,-342.8209"/>
<polygon fill="#191970" stroke="#191970" points="351.6178,-329.4195 341.1169,-330.8272 350.2038,-336.2752 351.6178,-329.4195"/>
</g>
<!-- Node21 -->
<g id="node21" class="node">
<title>Node21</title>
<g id="a_node21"><a xlink:href="../../da/d2a/G4__Svtx_8C.html#a00bd04a6f4913969f594f34ed348c1f7" target="_top" xlink:title="Svtx_Cells">
<polygon fill="none" stroke="#000000" points="402.5,-301.5 402.5,-321.5 470.5,-321.5 470.5,-301.5 402.5,-301.5"/>
<text text-anchor="middle" x="436.5" y="-308.5" font-family="FreeSans" font-size="10.00" fill="#000000">Svtx_Cells</text>
</a>
</g>
</g>
<!-- Node2&#45;&gt;Node21 -->
<g id="edge20" class="edge">
<title>Node2&#45;&gt;Node21</title>
<path fill="none" stroke="#191970" d="M351.539,-314.686C369.3502,-314.0181 387.4906,-313.3379 402.4105,-312.7784"/>
<polygon fill="#191970" stroke="#191970" points="350.9787,-311.2045 341.1169,-315.0769 351.2411,-318.1996 350.9787,-311.2045"/>
</g>
<!-- Node4 -->
<g id="node4" class="node">
<title>Node4</title>
<g id="a_node4"><a xlink:href="../../d3/d7f/Fun_8C.html#af0d3c8a78765149fef9b2beeecfc6279" target="_top" xlink:title="ConfigureDetectors">
<polygon fill="none" stroke="#000000" points="558.5,-657.5 558.5,-677.5 672.5,-677.5 672.5,-657.5 558.5,-657.5"/>
<text text-anchor="middle" x="615.5" y="-664.5" font-family="FreeSans" font-size="10.00" fill="#000000">ConfigureDetectors</text>
</a>
</g>
</g>
<!-- Node3&#45;&gt;Node4 -->
<g id="edge3" class="edge">
<title>Node3&#45;&gt;Node4</title>
<path fill="none" stroke="#191970" d="M440.3663,-370.8792C452.2542,-431.4508 490.0138,-608.59 532,-647.5 539.3254,-654.2887 548.5359,-658.8939 558.143,-661.9935"/>
<polygon fill="#191970" stroke="#191970" points="443.7307,-369.8423 438.3959,-360.6886 436.858,-371.1712 443.7307,-369.8423"/>
</g>
<!-- Node6 -->
<g id="node6" class="node">
<title>Node6</title>
<g id="a_node6"><a xlink:href="../../da/d02/Fun4All__G4__EICDetector_8C.html#afbe82cefa1d1fd031d9a8586b7bb68c6" target="_top" xlink:title="Fun4All_G4_EICDetector">
<polygon fill="none" stroke="#000000" points="546,-618.5 546,-638.5 685,-638.5 685,-618.5 546,-618.5"/>
<text text-anchor="middle" x="615.5" y="-625.5" font-family="FreeSans" font-size="10.00" fill="#000000">Fun4All_G4_EICDetector</text>
</a>
</g>
</g>
<!-- Node3&#45;&gt;Node6 -->
<g id="edge5" class="edge">
<title>Node3&#45;&gt;Node6</title>
<path fill="none" stroke="#191970" d="M437.7747,-371.0059C441.9627,-419.9383 459.5631,-544.2355 532,-608.5 536.5718,-612.556 541.821,-615.8258 547.4133,-618.4573"/>
<polygon fill="#191970" stroke="#191970" points="441.2444,-370.4698 437.0047,-360.7602 434.2641,-370.9944 441.2444,-370.4698"/>
</g>
<!-- Node7 -->
<g id="node7" class="node">
<title>Node7</title>
<g id="a_node7"><a xlink:href="../../dd/d2a/Fun4All__G4__EICDetector__LQ_8C.html#aaa01242fd6e77ca43a9d49a6d46008e4" target="_top" xlink:title="Fun4All_G4_EICDetector_LQ">
<polygon fill="none" stroke="#000000" points="537.5,-579.5 537.5,-599.5 693.5,-599.5 693.5,-579.5 537.5,-579.5"/>
<text text-anchor="middle" x="615.5" y="-586.5" font-family="FreeSans" font-size="10.00" fill="#000000">Fun4All_G4_EICDetector_LQ</text>
</a>
</g>
</g>
<!-- Node3&#45;&gt;Node7 -->
<g id="edge6" class="edge">
<title>Node3&#45;&gt;Node7</title>
<path fill="none" stroke="#191970" d="M439.2158,-370.5467C446.184,-413.8686 468.8211,-516.572 532,-569.5 536.7992,-573.5205 542.2712,-576.7602 548.0661,-579.3669"/>
<polygon fill="#191970" stroke="#191970" points="442.6771,-370.0272 437.7359,-360.6552 435.7542,-371.063 442.6771,-370.0272"/>
</g>
<!-- Node8 -->
<g id="node8" class="node">
<title>Node8</title>
<g id="a_node8"><a xlink:href="../../d4/df5/Fun4All__G4__EICDetector__LQ__reference_8C.html#a2feefc472f17f90b3cbe74897d049f75" target="_top" xlink:title="Fun4All_G4_EICDetector\l_LQ_reference">
<polygon fill="none" stroke="#000000" points="546,-528.5 546,-560.5 685,-560.5 685,-528.5 546,-528.5"/>
<text text-anchor="start" x="554" y="-547.5" font-family="FreeSans" font-size="10.00" fill="#000000">Fun4All_G4_EICDetector</text>
<text text-anchor="middle" x="615.5" y="-535.5" font-family="FreeSans" font-size="10.00" fill="#000000">_LQ_reference</text>
</a>
</g>
</g>
<!-- Node3&#45;&gt;Node8 -->
<g id="edge7" class="edge">
<title>Node3&#45;&gt;Node8</title>
<path fill="none" stroke="#191970" d="M442.3132,-370.0976C453.6994,-405.1046 482.2674,-478.4573 532,-518.5 536.7305,-522.3088 542.0212,-525.5621 547.5817,-528.3405"/>
<polygon fill="#191970" stroke="#191970" points="445.6509,-369.044 439.3267,-360.5437 438.9697,-371.1325 445.6509,-369.044"/>
</g>
<!-- Node9 -->
<g id="node9" class="node">
<title>Node9</title>
<g id="a_node9"><a xlink:href="../../d3/d51/Fun4All__G4__EICDetector__RICH_8C.html#a5739502b0a7a1ba782c01069f77e933f" target="_top" xlink:title="Fun4All_G4_EICDetector_RICH">
<polygon fill="none" stroke="#000000" points="532,-489.5 532,-509.5 699,-509.5 699,-489.5 532,-489.5"/>
<text text-anchor="middle" x="615.5" y="-496.5" font-family="FreeSans" font-size="10.00" fill="#000000">Fun4All_G4_EICDetector_RICH</text>
</a>
</g>
</g>
<!-- Node3&#45;&gt;Node9 -->
<g id="edge8" class="edge">
<title>Node3&#45;&gt;Node9</title>
<path fill="none" stroke="#191970" d="M445.5031,-370.1616C459.6789,-398.8309 489.979,-451.7096 532,-479.5 538.2167,-483.6114 545.1903,-486.8797 552.388,-489.4775"/>
<polygon fill="#191970" stroke="#191970" points="448.4909,-368.2965 441.0182,-360.7858 442.1762,-371.3172 448.4909,-368.2965"/>
</g>
<!-- Node10 -->
<g id="node10" class="node">
<title>Node10</title>
<g id="a_node10"><a xlink:href="../../d7/d9e/Fun4All__G4__fsPHENIX_8C.html#af48911d394d2412e817583700f2bbee2" target="_top" xlink:title="Fun4All_G4_fsPHENIX">
<polygon fill="none" stroke="#000000" points="553.5,-450.5 553.5,-470.5 677.5,-470.5 677.5,-450.5 553.5,-450.5"/>
<text text-anchor="middle" x="615.5" y="-457.5" font-family="FreeSans" font-size="10.00" fill="#000000">Fun4All_G4_fsPHENIX</text>
</a>
</g>
</g>
<!-- Node3&#45;&gt;Node10 -->
<g id="edge9" class="edge">
<title>Node3&#45;&gt;Node10</title>
<path fill="none" stroke="#191970" d="M450.6592,-368.6426C467.7218,-389.2306 498.3276,-422.3042 532,-440.5 539.6063,-444.6103 548.0521,-447.8847 556.5666,-450.491"/>
<polygon fill="#191970" stroke="#191970" points="453.216,-366.2381 444.2064,-360.6634 447.7731,-370.6399 453.216,-366.2381"/>
</g>
<!-- Node11 -->
<g id="node11" class="node">
<title>Node11</title>
<g id="a_node11"><a xlink:href="../../da/d2f/Fun4All__G4__fsPHENIX__FastSim_8C.html#a66fb850cae5fcaadda23b74a25ce4c9c" target="_top" xlink:title="Fun4All_G4_fsPHENIX\l_FastSim">
<polygon fill="none" stroke="#000000" points="553.5,-399.5 553.5,-431.5 677.5,-431.5 677.5,-399.5 553.5,-399.5"/>
<text text-anchor="start" x="561.5" y="-418.5" font-family="FreeSans" font-size="10.00" fill="#000000">Fun4All_G4_fsPHENIX</text>
<text text-anchor="middle" x="615.5" y="-406.5" font-family="FreeSans" font-size="10.00" fill="#000000">_FastSim</text>
</a>
</g>
</g>
<!-- Node3&#45;&gt;Node11 -->
<g id="edge10" class="edge">
<title>Node3&#45;&gt;Node11</title>
<path fill="none" stroke="#191970" d="M468.8079,-364.5011C487.1839,-372.2605 510.7118,-381.8548 532,-389.5 541.4311,-392.887 551.5493,-396.2557 561.3734,-399.3904"/>
<polygon fill="#191970" stroke="#191970" points="470.0144,-361.2109 459.4423,-360.5173 467.2744,-367.6524 470.0144,-361.2109"/>
</g>
<!-- Node12 -->
<g id="node12" class="node">
<title>Node12</title>
<g id="a_node12"><a xlink:href="../../d0/da6/Fun4All__G4__fsPHENIX__pi0_8C.html#a023d91d47b678e5d7f1751834aa517c6" target="_top" xlink:title="Fun4All_G4_fsPHENIX_pi0">
<polygon fill="none" stroke="#000000" points="543,-360.5 543,-380.5 688,-380.5 688,-360.5 543,-360.5"/>
<text text-anchor="middle" x="615.5" y="-367.5" font-family="FreeSans" font-size="10.00" fill="#000000">Fun4All_G4_fsPHENIX_pi0</text>
</a>
</g>
</g>
<!-- Node3&#45;&gt;Node12 -->
<g id="edge11" class="edge">
<title>Node3&#45;&gt;Node12</title>
<path fill="none" stroke="#191970" d="M483.621,-355.7649C501.7852,-357.7944 522.9772,-360.1623 542.9922,-362.3986"/>
<polygon fill="#191970" stroke="#191970" points="483.9157,-352.2762 473.5889,-354.644 483.1384,-359.2329 483.9157,-352.2762"/>
</g>
<!-- Node13 -->
<g id="node13" class="node">
<title>Node13</title>
<g id="a_node13"><a xlink:href="../../d5/d2c/macros_2blob_2master_2macros_2g4simulations_2Fun4All__G4__sPHENIX_8C.html#a6eaaa492d7023ec86c562dc63aa1e5a4" target="_top" xlink:title="Fun4All_G4_sPHENIX">
<polygon fill="none" stroke="#000000" points="555,-321.5 555,-341.5 676,-341.5 676,-321.5 555,-321.5"/>
<text text-anchor="middle" x="615.5" y="-328.5" font-family="FreeSans" font-size="10.00" fill="#000000">Fun4All_G4_sPHENIX</text>
</a>
</g>
</g>
<!-- Node3&#45;&gt;Node13 -->
<g id="edge12" class="edge">
<title>Node3&#45;&gt;Node13</title>
<path fill="none" stroke="#191970" d="M483.5939,-345.5012C505.4049,-343.1861 531.5862,-340.4071 554.8539,-337.9373"/>
<polygon fill="#191970" stroke="#191970" points="483.1636,-342.0271 473.5889,-346.5632 483.9025,-348.988 483.1636,-342.0271"/>
</g>
<!-- Node14 -->
<g id="node14" class="node">
<title>Node14</title>
<g id="a_node14"><a xlink:href="../../d3/de2/Fun4All__G4__sPHENIX__AnaGenFit_8C.html#a9bf3f2f72ed69a17e2d0c1121d48013c" target="_top" xlink:title="Fun4All_G4_sPHENIX\l_AnaGenFit">
<polygon fill="none" stroke="#000000" points="555,-270.5 555,-302.5 676,-302.5 676,-270.5 555,-270.5"/>
<text text-anchor="start" x="563" y="-289.5" font-family="FreeSans" font-size="10.00" fill="#000000">Fun4All_G4_sPHENIX</text>
<text text-anchor="middle" x="615.5" y="-277.5" font-family="FreeSans" font-size="10.00" fill="#000000">_AnaGenFit</text>
</a>
</g>
</g>
<!-- Node3&#45;&gt;Node14 -->
<g id="edge13" class="edge">
<title>Node3&#45;&gt;Node14</title>
<path fill="none" stroke="#191970" d="M479.1314,-337.1031C484.8568,-335.0332 490.6099,-332.8104 496,-330.5 512.6285,-323.3724 515.2549,-318.3492 532,-311.5 539.8434,-308.2918 548.2508,-305.291 556.6003,-302.5602"/>
<polygon fill="#191970" stroke="#191970" points="477.8806,-333.8326 469.5913,-340.4309 480.1861,-340.442 477.8806,-333.8326"/>
</g>
<!-- Node15 -->
<g id="node15" class="node">
<title>Node15</title>
<g id="a_node15"><a xlink:href="../../da/dd0/Fun4All__G4__sPHENIX__photonjet_8C.html#a6f18519e216acc05399e562ea57ea77c" target="_top" xlink:title="Fun4All_G4_sPHENIX\l_photonjet">
<polygon fill="none" stroke="#000000" points="555,-219.5 555,-251.5 676,-251.5 676,-219.5 555,-219.5"/>
<text text-anchor="start" x="563" y="-238.5" font-family="FreeSans" font-size="10.00" fill="#000000">Fun4All_G4_sPHENIX</text>
<text text-anchor="middle" x="615.5" y="-226.5" font-family="FreeSans" font-size="10.00" fill="#000000">_photonjet</text>
</a>
</g>
</g>
<!-- Node3&#45;&gt;Node15 -->
<g id="edge14" class="edge">
<title>Node3&#45;&gt;Node15</title>
<path fill="none" stroke="#191970" d="M482.9765,-338.9394C487.6671,-336.6165 492.1222,-333.8332 496,-330.5 522.5301,-307.6953 505.0932,-282.859 532,-260.5 538.6339,-254.9874 546.4532,-250.6902 554.6012,-247.3405"/>
<polygon fill="#191970" stroke="#191970" points="481.5873,-335.7267 473.7559,-342.8625 484.328,-342.1679 481.5873,-335.7267"/>
</g>
<!-- Node16 -->
<g id="node16" class="node">
<title>Node16</title>
<g id="a_node16"><a xlink:href="../../da/d85/Fun4All__G4__sPHENIX__photons_8C.html#a02fbbd59878fe1299f58ed187e7214ba" target="_top" xlink:title="Fun4All_G4_sPHENIX\l_photons">
<polygon fill="none" stroke="#000000" points="555,-168.5 555,-200.5 676,-200.5 676,-168.5 555,-168.5"/>
<text text-anchor="start" x="563" y="-187.5" font-family="FreeSans" font-size="10.00" fill="#000000">Fun4All_G4_sPHENIX</text>
<text text-anchor="middle" x="615.5" y="-175.5" font-family="FreeSans" font-size="10.00" fill="#000000">_photons</text>
</a>
</g>
</g>
<!-- Node3&#45;&gt;Node16 -->
<g id="edge15" class="edge">
<title>Node3&#45;&gt;Node16</title>
<path fill="none" stroke="#191970" d="M483.0931,-339.9144C487.8674,-337.4136 492.3098,-334.322 496,-330.5 534.9719,-290.1361 492.3603,-249.2082 532,-209.5 538.4146,-203.0744 546.4091,-198.2874 554.8906,-194.7241"/>
<polygon fill="#191970" stroke="#191970" points="481.3909,-336.8378 473.6133,-344.0321 484.1798,-343.2582 481.3909,-336.8378"/>
</g>
<!-- Node17 -->
<g id="node17" class="node">
<title>Node17</title>
<g id="a_node17"><a xlink:href="../../de/d55/Fun4All__G4__sPHENIX__truthphotonjet_8C.html#a48a6f4503eaa1b3793d8ae572aa795b9" target="_top" xlink:title="Fun4All_G4_sPHENIX\l_truthphotonjet">
<polygon fill="none" stroke="#000000" points="555,-117.5 555,-149.5 676,-149.5 676,-117.5 555,-117.5"/>
<text text-anchor="start" x="563" y="-136.5" font-family="FreeSans" font-size="10.00" fill="#000000">Fun4All_G4_sPHENIX</text>
<text text-anchor="middle" x="615.5" y="-124.5" font-family="FreeSans" font-size="10.00" fill="#000000">_truthphotonjet</text>
</a>
</g>
</g>
<!-- Node3&#45;&gt;Node17 -->
<g id="edge16" class="edge">
<title>Node3&#45;&gt;Node17</title>
<path fill="none" stroke="#191970" d="M482.8645,-340.5002C487.7936,-337.8995 492.3356,-334.6243 496,-330.5 547.8748,-272.1154 479.1586,-216.0112 532,-158.5 538.2453,-151.7028 546.2553,-146.7254 554.8344,-143.0865"/>
<polygon fill="#191970" stroke="#191970" points="481.4569,-337.2956 473.6799,-344.4906 484.2464,-343.7158 481.4569,-337.2956"/>
</g>
<!-- Node18 -->
<g id="node18" class="node">
<title>Node18</title>
<g id="a_node18"><a xlink:href="../../d4/d65/Fun4All__single__particle_8C.html#a8a492b5dbead494bfdddbebde8a49b0e" target="_top" xlink:title="Fun4All_single_particle">
<polygon fill="none" stroke="#000000" points="549.5,-78.5 549.5,-98.5 681.5,-98.5 681.5,-78.5 549.5,-78.5"/>
<text text-anchor="middle" x="615.5" y="-85.5" font-family="FreeSans" font-size="10.00" fill="#000000">Fun4All_single_particle</text>
</a>
</g>
</g>
<!-- Node3&#45;&gt;Node18 -->
<g id="edge17" class="edge">
<title>Node3&#45;&gt;Node18</title>
<path fill="none" stroke="#191970" d="M482.869,-340.7587C487.8374,-338.1157 492.3879,-334.7599 496,-330.5 560.9281,-253.9274 463.3065,-180.7135 532,-107.5 536.8829,-102.2959 542.8702,-98.3753 549.3762,-95.4399"/>
<polygon fill="#191970" stroke="#191970" points="481.3666,-337.5953 473.587,-344.7876 484.1537,-344.0165 481.3666,-337.5953"/>
</g>
<!-- Node19 -->
<g id="node19" class="node">
<title>Node19</title>
<g id="a_node19"><a xlink:href="../../d0/d99/Jin__BJet_8C.html#a36169bfee2ed7efda633944d12aebad9" target="_top" xlink:title="Jin_BJet">
<polygon fill="none" stroke="#000000" points="588,-39.5 588,-59.5 643,-59.5 643,-39.5 588,-39.5"/>
<text text-anchor="middle" x="615.5" y="-46.5" font-family="FreeSans" font-size="10.00" fill="#000000">Jin_BJet</text>
</a>
</g>
</g>
<!-- Node3&#45;&gt;Node19 -->
<g id="edge18" class="edge">
<title>Node3&#45;&gt;Node19</title>
<path fill="none" stroke="#191970" d="M482.9656,-340.8396C487.9179,-338.1831 492.4382,-334.802 496,-330.5 570.957,-239.9641 452.5886,-155.1553 532,-68.5 545.9619,-53.2645 569.3791,-48.9724 587.8675,-48.2314"/>
<polygon fill="#191970" stroke="#191970" points="481.4656,-337.6753 473.6986,-344.8811 484.264,-344.0917 481.4656,-337.6753"/>
</g>
<!-- Node20 -->
<g id="node20" class="node">
<title>Node20</title>
<g id="a_node20"><a xlink:href="../../dd/db1/Wrapper_8cxx.html#abf1e42281903daa0752c80dd6c879fac" target="_top" xlink:title="Wrapper">
<polygon fill="none" stroke="#000000" points="585.5,-.5 585.5,-20.5 645.5,-20.5 645.5,-.5 585.5,-.5"/>
<text text-anchor="middle" x="615.5" y="-7.5" font-family="FreeSans" font-size="10.00" fill="#000000">Wrapper</text>
</a>
</g>
</g>
<!-- Node3&#45;&gt;Node20 -->
<g id="edge19" class="edge">
<title>Node3&#45;&gt;Node20</title>
<path fill="none" stroke="#191970" d="M483.0381,-340.8992C487.9784,-338.2328 492.476,-334.8331 496,-330.5 581.0091,-225.9727 441.8462,-129.6239 532,-29.5 545.231,-14.8058 567.2519,-10.2514 585.3582,-9.2671"/>
<polygon fill="#191970" stroke="#191970" points="481.5402,-337.7342 473.7824,-344.9499 484.3468,-344.1469 481.5402,-337.7342"/>
</g>
<!-- Node5 -->
<g id="node5" class="node">
<title>Node5</title>
<g id="a_node5"><a xlink:href="../../d3/d7f/Fun_8C.html#af69a3eef3ff244bb51f5740c6ecb5432" target="_top" xlink:title="Fun">
<polygon fill="none" stroke="#000000" points="735,-657.5 735,-677.5 769,-677.5 769,-657.5 735,-657.5"/>
<text text-anchor="middle" x="752" y="-664.5" font-family="FreeSans" font-size="10.00" fill="#000000">Fun</text>
</a>
</g>
</g>
<!-- Node4&#45;&gt;Node5 -->
<g id="edge4" class="edge">
<title>Node4&#45;&gt;Node5</title>
<path fill="none" stroke="#191970" d="M682.6941,-667.5C702.0852,-667.5 721.59,-667.5 734.9452,-667.5"/>
<polygon fill="#191970" stroke="#191970" points="682.5974,-664.0001 672.5974,-667.5 682.5974,-671.0001 682.5974,-664.0001"/>
</g>
<!-- Node23 -->
<g id="node23" class="node">
<title>Node23</title>
<g id="a_node23"><a xlink:href="../../d8/d91/Fun4All__G4__Clusters_8C.html#ab7d8e64f12f512631d4c0e8c6683ec5b" target="_top" xlink:title="Fun4All_G4_Clusters">
<polygon fill="none" stroke="#000000" points="377,-256.5 377,-276.5 496,-276.5 496,-256.5 377,-256.5"/>
<text text-anchor="middle" x="436.5" y="-263.5" font-family="FreeSans" font-size="10.00" fill="#000000">Fun4All_G4_Clusters</text>
</a>
</g>
</g>
<!-- Node22&#45;&gt;Node23 -->
<g id="edge22" class="edge">
<title>Node22&#45;&gt;Node23</title>
<path fill="none" stroke="#191970" d="M351.1553,-266.5C359.7593,-266.5 368.4461,-266.5 376.8153,-266.5"/>
<polygon fill="#191970" stroke="#191970" points="351.117,-263.0001 341.1169,-266.5 351.1169,-270.0001 351.117,-263.0001"/>
</g>
</g>
</svg>
