<?xml version="1.0" encoding="UTF-8" standalone="no"?>
<!DOCTYPE svg PUBLIC "-//W3C//DTD SVG 1.1//EN"
 "http://www.w3.org/Graphics/SVG/1.1/DTD/svg11.dtd">
<!-- Generated by graphviz version 2.40.1 (20161225.0304)
 -->
<!-- Title: TruthJetInput::add_embedding_flag Pages: 1 -->
<svg width="424pt" height="413pt"
 viewBox="0.00 0.00 424.00 413.00" xmlns="http://www.w3.org/2000/svg" xmlns:xlink="http://www.w3.org/1999/xlink">
<g id="graph0" class="graph" transform="scale(1 1) rotate(0) translate(4 409)">
<title>TruthJetInput::add_embedding_flag</title>
<!-- Node1 -->
<g id="node1" class="node">
<title>Node1</title>
<polygon fill="#bfbfbf" stroke="#000000" points="0,-166.5 0,-198.5 107,-198.5 107,-166.5 0,-166.5"/>
<text text-anchor="start" x="8" y="-185.5" font-family="FreeSans" font-size="10.00" fill="#000000">TruthJetInput::add</text>
<text text-anchor="middle" x="53.5" y="-173.5" font-family="FreeSans" font-size="10.00" fill="#000000">_embedding_flag</text>
</g>
<!-- Node2 -->
<g id="node2" class="node">
<title>Node2</title>
<g id="a_node2"><a xlink:href="../../de/da2/macros_2blob_2master_2macros_2g4simulations_2G4__HIJetReco_8C.html#a9cf9382ceffe61f139e2b7ebb82609bc" target="_top" xlink:title="HIJetReco">
<polygon fill="none" stroke="#000000" points="146,-192.5 146,-212.5 210,-212.5 210,-192.5 146,-192.5"/>
<text text-anchor="middle" x="178" y="-199.5" font-family="FreeSans" font-size="10.00" fill="#000000">HIJetReco</text>
</a>
</g>
</g>
<!-- Node1&#45;&gt;Node2 -->
<g id="edge1" class="edge">
<title>Node1&#45;&gt;Node2</title>
<path fill="none" stroke="#191970" d="M116.9696,-192.6959C126.9414,-194.2978 136.8715,-195.893 145.7357,-197.317"/>
<polygon fill="#191970" stroke="#191970" points="117.4503,-189.2283 107.0217,-191.0979 116.34,-196.1397 117.4503,-189.2283"/>
</g>
<!-- Node12 -->
<g id="node12" class="node">
<title>Node12</title>
<g id="a_node12"><a xlink:href="../../dc/dd1/run__macro_8C.html#a73349fa424161f0fc04887bbce22b0ea" target="_top" xlink:title="run_macro">
<polygon fill="none" stroke="#000000" points="143,-153.5 143,-173.5 213,-173.5 213,-153.5 143,-153.5"/>
<text text-anchor="middle" x="178" y="-160.5" font-family="FreeSans" font-size="10.00" fill="#000000">run_macro</text>
</a>
</g>
</g>
<!-- Node1&#45;&gt;Node12 -->
<g id="edge11" class="edge">
<title>Node1&#45;&gt;Node12</title>
<path fill="none" stroke="#191970" d="M117.0319,-172.8044C125.9191,-171.4481 134.7715,-170.0971 142.864,-168.8621"/>
<polygon fill="#191970" stroke="#191970" points="116.3792,-169.3634 107.0217,-174.332 117.4353,-176.2832 116.3792,-169.3634"/>
</g>
<!-- Node3 -->
<g id="node3" class="node">
<title>Node3</title>
<g id="a_node3"><a xlink:href="../../da/d02/Fun4All__G4__EICDetector_8C.html#afbe82cefa1d1fd031d9a8586b7bb68c6" target="_top" xlink:title="Fun4All_G4_EICDetector">
<polygon fill="none" stroke="#000000" points="263,-384.5 263,-404.5 402,-404.5 402,-384.5 263,-384.5"/>
<text text-anchor="middle" x="332.5" y="-391.5" font-family="FreeSans" font-size="10.00" fill="#000000">Fun4All_G4_EICDetector</text>
</a>
</g>
</g>
<!-- Node2&#45;&gt;Node3 -->
<g id="edge2" class="edge">
<title>Node2&#45;&gt;Node3</title>
<path fill="none" stroke="#191970" d="M180.304,-222.8925C185.548,-259.3366 201.8243,-335.5588 249,-375.5 253.1982,-379.0544 257.9272,-381.9783 262.9457,-384.3796"/>
<polygon fill="#191970" stroke="#191970" points="183.7205,-222.0213 178.9639,-212.5542 176.7785,-222.9212 183.7205,-222.0213"/>
</g>
<!-- Node4 -->
<g id="node4" class="node">
<title>Node4</title>
<g id="a_node4"><a xlink:href="../../df/d4b/Fun4All__G4__EICDetector__LQ__analysis_8C.html#af903e98824d083a08b353ac15996ee0e" target="_top" xlink:title="Fun4All_G4_EICDetector\l_LQ_analysis">
<polygon fill="none" stroke="#000000" points="263,-333.5 263,-365.5 402,-365.5 402,-333.5 263,-333.5"/>
<text text-anchor="start" x="271" y="-352.5" font-family="FreeSans" font-size="10.00" fill="#000000">Fun4All_G4_EICDetector</text>
<text text-anchor="middle" x="332.5" y="-340.5" font-family="FreeSans" font-size="10.00" fill="#000000">_LQ_analysis</text>
</a>
</g>
</g>
<!-- Node2&#45;&gt;Node4 -->
<g id="edge3" class="edge">
<title>Node2&#45;&gt;Node4</title>
<path fill="none" stroke="#191970" d="M184.3046,-222.3103C193.9257,-249.3686 214.8433,-297.5876 249,-324.5 253.279,-327.8715 258.0058,-330.7891 262.9698,-333.3139"/>
<polygon fill="#191970" stroke="#191970" points="187.5902,-221.1004 181.0658,-212.7527 180.9605,-223.3471 187.5902,-221.1004"/>
</g>
<!-- Node5 -->
<g id="node5" class="node">
<title>Node5</title>
<g id="a_node5"><a xlink:href="../../d1/daf/Fun4All__G4__EICDetector__LQ__analysis__nf_8C.html#a5022607d21247b87dd208b0828905147" target="_top" xlink:title="Fun4All_G4_EICDetector\l_LQ_analysis_nf">
<polygon fill="none" stroke="#000000" points="263,-282.5 263,-314.5 402,-314.5 402,-282.5 263,-282.5"/>
<text text-anchor="start" x="271" y="-301.5" font-family="FreeSans" font-size="10.00" fill="#000000">Fun4All_G4_EICDetector</text>
<text text-anchor="middle" x="332.5" y="-289.5" font-family="FreeSans" font-size="10.00" fill="#000000">_LQ_analysis_nf</text>
</a>
</g>
</g>
<!-- Node2&#45;&gt;Node5 -->
<g id="edge4" class="edge">
<title>Node2&#45;&gt;Node5</title>
<path fill="none" stroke="#191970" d="M191.7507,-220.6522C204.827,-236.7211 225.8881,-259.704 249,-273.5 254.7171,-276.9127 260.9357,-279.8908 267.3144,-282.4829"/>
<polygon fill="#191970" stroke="#191970" points="194.2889,-218.2187 185.3453,-212.5387 188.7947,-222.5563 194.2889,-218.2187"/>
</g>
<!-- Node6 -->
<g id="node6" class="node">
<title>Node6</title>
<g id="a_node6"><a xlink:href="../../d4/df5/Fun4All__G4__EICDetector__LQ__reference_8C.html#a2feefc472f17f90b3cbe74897d049f75" target="_top" xlink:title="Fun4All_G4_EICDetector\l_LQ_reference">
<polygon fill="none" stroke="#000000" points="263,-231.5 263,-263.5 402,-263.5 402,-231.5 263,-231.5"/>
<text text-anchor="start" x="271" y="-250.5" font-family="FreeSans" font-size="10.00" fill="#000000">Fun4All_G4_EICDetector</text>
<text text-anchor="middle" x="332.5" y="-238.5" font-family="FreeSans" font-size="10.00" fill="#000000">_LQ_reference</text>
</a>
</g>
</g>
<!-- Node2&#45;&gt;Node6 -->
<g id="edge5" class="edge">
<title>Node2&#45;&gt;Node6</title>
<path fill="none" stroke="#191970" d="M220.0216,-214.7393C237.7011,-219.8887 258.5132,-225.9504 277.3967,-231.4505"/>
<polygon fill="#191970" stroke="#191970" points="220.5923,-211.2602 210.0125,-211.824 218.6348,-217.9809 220.5923,-211.2602"/>
</g>
<!-- Node7 -->
<g id="node7" class="node">
<title>Node7</title>
<g id="a_node7"><a xlink:href="../../d3/d51/Fun4All__G4__EICDetector__RICH_8C.html#a5739502b0a7a1ba782c01069f77e933f" target="_top" xlink:title="Fun4All_G4_EICDetector_RICH">
<polygon fill="none" stroke="#000000" points="249,-192.5 249,-212.5 416,-212.5 416,-192.5 249,-192.5"/>
<text text-anchor="middle" x="332.5" y="-199.5" font-family="FreeSans" font-size="10.00" fill="#000000">Fun4All_G4_EICDetector_RICH</text>
</a>
</g>
</g>
<!-- Node2&#45;&gt;Node7 -->
<g id="edge6" class="edge">
<title>Node2&#45;&gt;Node7</title>
<path fill="none" stroke="#191970" d="M220.1569,-202.5C229.1474,-202.5 238.9433,-202.5 248.8806,-202.5"/>
<polygon fill="#191970" stroke="#191970" points="220.0125,-199.0001 210.0125,-202.5 220.0125,-206.0001 220.0125,-199.0001"/>
</g>
<!-- Node8 -->
<g id="node8" class="node">
<title>Node8</title>
<g id="a_node8"><a xlink:href="../../d5/d2c/macros_2blob_2master_2macros_2g4simulations_2Fun4All__G4__sPHENIX_8C.html#a6eaaa492d7023ec86c562dc63aa1e5a4" target="_top" xlink:title="Fun4All_G4_sPHENIX">
<polygon fill="none" stroke="#000000" points="272,-153.5 272,-173.5 393,-173.5 393,-153.5 272,-153.5"/>
<text text-anchor="middle" x="332.5" y="-160.5" font-family="FreeSans" font-size="10.00" fill="#000000">Fun4All_G4_sPHENIX</text>
</a>
</g>
</g>
<!-- Node2&#45;&gt;Node8 -->
<g id="edge7" class="edge">
<title>Node2&#45;&gt;Node8</title>
<path fill="none" stroke="#191970" d="M219.8333,-191.1086C229.4051,-188.5568 239.5446,-185.8971 249,-183.5 262.149,-180.1665 276.5008,-176.6758 289.5388,-173.5608"/>
<polygon fill="#191970" stroke="#191970" points="218.8692,-187.7434 210.1163,-193.7131 220.6816,-194.5047 218.8692,-187.7434"/>
</g>
<!-- Node9 -->
<g id="node9" class="node">
<title>Node9</title>
<g id="a_node9"><a xlink:href="../../da/dd0/Fun4All__G4__sPHENIX__photonjet_8C.html#a6f18519e216acc05399e562ea57ea77c" target="_top" xlink:title="Fun4All_G4_sPHENIX\l_photonjet">
<polygon fill="none" stroke="#000000" points="272,-102.5 272,-134.5 393,-134.5 393,-102.5 272,-102.5"/>
<text text-anchor="start" x="280" y="-121.5" font-family="FreeSans" font-size="10.00" fill="#000000">Fun4All_G4_sPHENIX</text>
<text text-anchor="middle" x="332.5" y="-109.5" font-family="FreeSans" font-size="10.00" fill="#000000">_photonjet</text>
</a>
</g>
</g>
<!-- Node2&#45;&gt;Node9 -->
<g id="edge8" class="edge">
<title>Node2&#45;&gt;Node9</title>
<path fill="none" stroke="#191970" d="M208.111,-187.0214C209.8024,-185.8865 211.445,-184.7103 213,-183.5 231.6155,-169.0118 229.0595,-157.1024 249,-144.5 256.059,-140.0387 263.9391,-136.2942 271.9615,-133.1645"/>
<polygon fill="#191970" stroke="#191970" points="206.1432,-184.1219 199.4271,-192.3161 209.7873,-190.0986 206.1432,-184.1219"/>
</g>
<!-- Node10 -->
<g id="node10" class="node">
<title>Node10</title>
<g id="a_node10"><a xlink:href="../../da/d85/Fun4All__G4__sPHENIX__photons_8C.html#a02fbbd59878fe1299f58ed187e7214ba" target="_top" xlink:title="Fun4All_G4_sPHENIX\l_photons">
<polygon fill="none" stroke="#000000" points="272,-51.5 272,-83.5 393,-83.5 393,-51.5 272,-51.5"/>
<text text-anchor="start" x="280" y="-70.5" font-family="FreeSans" font-size="10.00" fill="#000000">Fun4All_G4_sPHENIX</text>
<text text-anchor="middle" x="332.5" y="-58.5" font-family="FreeSans" font-size="10.00" fill="#000000">_photons</text>
</a>
</g>
</g>
<!-- Node2&#45;&gt;Node10 -->
<g id="edge9" class="edge">
<title>Node2&#45;&gt;Node10</title>
<path fill="none" stroke="#191970" d="M210.1859,-186.34C211.1783,-185.4344 212.1212,-184.488 213,-183.5 241.6325,-151.3103 217.3629,-122.742 249,-93.5 255.5784,-87.4197 263.5597,-82.761 271.9479,-79.1916"/>
<polygon fill="#191970" stroke="#191970" points="207.8159,-183.739 201.8479,-192.4931 211.9725,-189.3714 207.8159,-183.739"/>
</g>
<!-- Node11 -->
<g id="node11" class="node">
<title>Node11</title>
<g id="a_node11"><a xlink:href="../../de/d55/Fun4All__G4__sPHENIX__truthphotonjet_8C.html#a48a6f4503eaa1b3793d8ae572aa795b9" target="_top" xlink:title="Fun4All_G4_sPHENIX\l_truthphotonjet">
<polygon fill="none" stroke="#000000" points="272,-.5 272,-32.5 393,-32.5 393,-.5 272,-.5"/>
<text text-anchor="start" x="280" y="-19.5" font-family="FreeSans" font-size="10.00" fill="#000000">Fun4All_G4_sPHENIX</text>
<text text-anchor="middle" x="332.5" y="-7.5" font-family="FreeSans" font-size="10.00" fill="#000000">_truthphotonjet</text>
</a>
</g>
</g>
<!-- Node2&#45;&gt;Node11 -->
<g id="edge10" class="edge">
<title>Node2&#45;&gt;Node11</title>
<path fill="none" stroke="#191970" d="M210.8146,-186.0146C211.5887,-185.2106 212.3202,-184.3728 213,-183.5 252.7422,-132.4738 204.4681,-89.4044 249,-42.5 255.2724,-35.8935 263.1913,-30.9555 271.6405,-27.2669"/>
<polygon fill="#191970" stroke="#191970" points="208.5319,-183.3591 202.9429,-192.3598 212.925,-188.809 208.5319,-183.3591"/>
</g>
</g>
</svg>
