<?xml version="1.0" encoding="UTF-8" standalone="no"?>
<!DOCTYPE svg PUBLIC "-//W3C//DTD SVG 1.1//EN"
 "http://www.w3.org/Graphics/SVG/1.1/DTD/svg11.dtd">
<!-- Generated by graphviz version 2.40.1 (20161225.0304)
 -->
<!-- Title: PHG4SectorSubsystem::get_geometry Pages: 1 -->
<svg width="683pt" height="725pt"
 viewBox="0.00 0.00 683.00 725.00" xmlns="http://www.w3.org/2000/svg" xmlns:xlink="http://www.w3.org/1999/xlink">
<g id="graph0" class="graph" transform="scale(1 1) rotate(0) translate(4 721)">
<title>PHG4SectorSubsystem::get_geometry</title>
<!-- Node1 -->
<g id="node1" class="node">
<title>Node1</title>
<polygon fill="#bfbfbf" stroke="#000000" points="0,-335.5 0,-367.5 132,-367.5 132,-335.5 0,-335.5"/>
<text text-anchor="start" x="8" y="-354.5" font-family="FreeSans" font-size="10.00" fill="#000000">PHG4SectorSubsystem</text>
<text text-anchor="middle" x="66" y="-342.5" font-family="FreeSans" font-size="10.00" fill="#000000">::get_geometry</text>
</g>
<!-- Node2 -->
<g id="node2" class="node">
<title>Node2</title>
<g id="a_node2"><a xlink:href="../../d7/df5/EICAnalysis_2macros_2leptoquarks__fun4all_2G4__FGEM__EIC_8C.html#adedab66f745dff8069bd1f750680c423" target="_top" xlink:title="Add drift layers to mini TPC.">
<polygon fill="none" stroke="#000000" points="168,-419.5 168,-439.5 306,-439.5 306,-419.5 168,-419.5"/>
<text text-anchor="middle" x="237" y="-426.5" font-family="FreeSans" font-size="10.00" fill="#000000">AddLayers_MiniTPCDrift</text>
</a>
</g>
</g>
<!-- Node1&#45;&gt;Node2 -->
<g id="edge1" class="edge">
<title>Node1&#45;&gt;Node2</title>
<path fill="none" stroke="#191970" d="M99.2238,-373.039C118.6877,-384.9746 144.0774,-399.3976 168,-409.5 176.962,-413.2846 186.8684,-416.6197 196.3116,-419.4278"/>
<polygon fill="#191970" stroke="#191970" points="101.0649,-370.0624 90.7245,-367.7545 97.3688,-376.007 101.0649,-370.0624"/>
</g>
<!-- Node3 -->
<g id="node3" class="node">
<title>Node3</title>
<g id="a_node3"><a xlink:href="../../d4/dbc/macros_2blob_2master_2macros_2g4simulations_2G4__Aerogel_8C.html#a400136ba4928234f7c9990b4065328f1" target="_top" xlink:title="AerogelSetup">
<polygon fill="none" stroke="#000000" points="194.5,-380.5 194.5,-400.5 279.5,-400.5 279.5,-380.5 194.5,-380.5"/>
<text text-anchor="middle" x="237" y="-387.5" font-family="FreeSans" font-size="10.00" fill="#000000">AerogelSetup</text>
</a>
</g>
</g>
<!-- Node1&#45;&gt;Node3 -->
<g id="edge2" class="edge">
<title>Node1&#45;&gt;Node3</title>
<path fill="none" stroke="#191970" d="M141.9919,-368.8315C159.915,-372.9192 178.4024,-377.1356 194.251,-380.7502"/>
<polygon fill="#191970" stroke="#191970" points="142.641,-365.3897 132.1131,-366.5784 141.0844,-372.2145 142.641,-365.3897"/>
</g>
<!-- Node23 -->
<g id="node23" class="node">
<title>Node23</title>
<g id="a_node23"><a xlink:href="../../d3/dc0/macros_2blob_2master_2macros_2g4simulations_2G4__DIRC_8C.html#acbdf429e4e41a2057e053691cc0b4128" target="_top" xlink:title="DIRCSetup">
<polygon fill="none" stroke="#000000" points="202,-341.5 202,-361.5 272,-361.5 272,-341.5 202,-341.5"/>
<text text-anchor="middle" x="237" y="-348.5" font-family="FreeSans" font-size="10.00" fill="#000000">DIRCSetup</text>
</a>
</g>
</g>
<!-- Node1&#45;&gt;Node23 -->
<g id="edge22" class="edge">
<title>Node1&#45;&gt;Node23</title>
<path fill="none" stroke="#191970" d="M142.2072,-351.5C162.9343,-351.5 184.3985,-351.5 201.6497,-351.5"/>
<polygon fill="#191970" stroke="#191970" points="142.1131,-348.0001 132.1131,-351.5 142.113,-355.0001 142.1131,-348.0001"/>
</g>
<!-- Node24 -->
<g id="node24" class="node">
<title>Node24</title>
<g id="a_node24"><a xlink:href="../../d7/df5/EICAnalysis_2macros_2leptoquarks__fun4all_2G4__FGEM__EIC_8C.html#ac44d1ef8dd3931eed6dd2ae0110ed8d1" target="_top" xlink:title="FGEMSetup">
<polygon fill="none" stroke="#000000" points="200,-302.5 200,-322.5 274,-322.5 274,-302.5 200,-302.5"/>
<text text-anchor="middle" x="237" y="-309.5" font-family="FreeSans" font-size="10.00" fill="#000000">FGEMSetup</text>
</a>
</g>
</g>
<!-- Node1&#45;&gt;Node24 -->
<g id="edge24" class="edge">
<title>Node1&#45;&gt;Node24</title>
<path fill="none" stroke="#191970" d="M141.8843,-334.1931C161.9458,-329.6176 182.7225,-324.8791 199.7209,-321.0022"/>
<polygon fill="#191970" stroke="#191970" points="141.0844,-330.7855 132.1131,-336.4216 142.641,-337.6103 141.0844,-330.7855"/>
</g>
<!-- Node25 -->
<g id="node25" class="node">
<title>Node25</title>
<g id="a_node25"><a xlink:href="../../d8/d41/G4__EGEM__EIC_8C.html#ab02e3ec0ae447e560b3a9a6fc25d9243" target="_top" xlink:title="make_GEM_station">
<polygon fill="none" stroke="#000000" points="181.5,-263.5 181.5,-283.5 292.5,-283.5 292.5,-263.5 181.5,-263.5"/>
<text text-anchor="middle" x="237" y="-270.5" font-family="FreeSans" font-size="10.00" fill="#000000">make_GEM_station</text>
</a>
</g>
</g>
<!-- Node1&#45;&gt;Node25 -->
<g id="edge25" class="edge">
<title>Node1&#45;&gt;Node25</title>
<path fill="none" stroke="#191970" d="M98.3342,-329.9317C117.864,-317.6435 143.6181,-302.7097 168,-292.5 176.1372,-289.0926 185.0682,-286.1138 193.7268,-283.588"/>
<polygon fill="#191970" stroke="#191970" points="96.3706,-327.0328 89.8264,-335.3649 100.1382,-332.9324 96.3706,-327.0328"/>
</g>
<!-- Node4 -->
<g id="node4" class="node">
<title>Node4</title>
<g id="a_node4"><a xlink:href="../../d2/dfe/macros_2blob_2master_2macros_2g4simulations_2G4Setup__EICDetector_8C.html#a5d4cb2d19366a2ae6d2aefe8d2e4a870" target="_top" xlink:title="G4Setup">
<polygon fill="none" stroke="#000000" points="342,-360.5 342,-380.5 402,-380.5 402,-360.5 342,-360.5"/>
<text text-anchor="middle" x="372" y="-367.5" font-family="FreeSans" font-size="10.00" fill="#000000">G4Setup</text>
</a>
</g>
</g>
<!-- Node3&#45;&gt;Node4 -->
<g id="edge3" class="edge">
<title>Node3&#45;&gt;Node4</title>
<path fill="none" stroke="#191970" d="M289.9159,-382.6606C307.5825,-380.0433 326.6489,-377.2187 341.9553,-374.9511"/>
<polygon fill="#191970" stroke="#191970" points="289.0939,-379.2441 279.7148,-384.1719 290.1198,-386.1685 289.0939,-379.2441"/>
</g>
<!-- Node5 -->
<g id="node5" class="node">
<title>Node5</title>
<g id="a_node5"><a xlink:href="../../d3/d7f/Fun_8C.html#af0d3c8a78765149fef9b2beeecfc6279" target="_top" xlink:title="ConfigureDetectors">
<polygon fill="none" stroke="#000000" points="464.5,-696.5 464.5,-716.5 578.5,-716.5 578.5,-696.5 464.5,-696.5"/>
<text text-anchor="middle" x="521.5" y="-703.5" font-family="FreeSans" font-size="10.00" fill="#000000">ConfigureDetectors</text>
</a>
</g>
</g>
<!-- Node4&#45;&gt;Node5 -->
<g id="edge4" class="edge">
<title>Node4&#45;&gt;Node5</title>
<path fill="none" stroke="#191970" d="M373.4577,-390.8418C378.3809,-453.7895 396.4621,-643.7315 438,-686.5 445.166,-693.8783 454.5352,-698.7322 464.3992,-701.8865"/>
<polygon fill="#191970" stroke="#191970" points="376.9298,-390.339 372.6889,-380.63 369.9496,-390.8646 376.9298,-390.339"/>
</g>
<!-- Node7 -->
<g id="node7" class="node">
<title>Node7</title>
<g id="a_node7"><a xlink:href="../../da/d02/Fun4All__G4__EICDetector_8C.html#afbe82cefa1d1fd031d9a8586b7bb68c6" target="_top" xlink:title="Fun4All_G4_EICDetector">
<polygon fill="none" stroke="#000000" points="452,-657.5 452,-677.5 591,-677.5 591,-657.5 452,-657.5"/>
<text text-anchor="middle" x="521.5" y="-664.5" font-family="FreeSans" font-size="10.00" fill="#000000">Fun4All_G4_EICDetector</text>
</a>
</g>
</g>
<!-- Node4&#45;&gt;Node7 -->
<g id="edge6" class="edge">
<title>Node4&#45;&gt;Node7</title>
<path fill="none" stroke="#191970" d="M374.0739,-390.5594C380.4048,-447.9046 401.317,-610.7735 438,-647.5 442.003,-651.5078 446.6575,-654.7664 451.6817,-657.41"/>
<polygon fill="#191970" stroke="#191970" points="377.5486,-390.1356 373.0018,-380.566 370.5886,-390.8823 377.5486,-390.1356"/>
</g>
<!-- Node8 -->
<g id="node8" class="node">
<title>Node8</title>
<g id="a_node8"><a xlink:href="../../dd/d2a/Fun4All__G4__EICDetector__LQ_8C.html#aaa01242fd6e77ca43a9d49a6d46008e4" target="_top" xlink:title="Fun4All_G4_EICDetector_LQ">
<polygon fill="none" stroke="#000000" points="443.5,-618.5 443.5,-638.5 599.5,-638.5 599.5,-618.5 443.5,-618.5"/>
<text text-anchor="middle" x="521.5" y="-625.5" font-family="FreeSans" font-size="10.00" fill="#000000">Fun4All_G4_EICDetector_LQ</text>
</a>
</g>
</g>
<!-- Node4&#45;&gt;Node8 -->
<g id="edge7" class="edge">
<title>Node4&#45;&gt;Node8</title>
<path fill="none" stroke="#191970" d="M374.8918,-390.4112C382.7691,-441.9372 406.1671,-577.7751 438,-608.5 442.183,-612.5374 447.0294,-615.8088 452.2399,-618.4539"/>
<polygon fill="#191970" stroke="#191970" points="378.3511,-389.8783 373.4113,-380.5056 371.428,-390.9131 378.3511,-389.8783"/>
</g>
<!-- Node9 -->
<g id="node9" class="node">
<title>Node9</title>
<g id="a_node9"><a xlink:href="../../d4/df5/Fun4All__G4__EICDetector__LQ__reference_8C.html#a2feefc472f17f90b3cbe74897d049f75" target="_top" xlink:title="Fun4All_G4_EICDetector\l_LQ_reference">
<polygon fill="none" stroke="#000000" points="452,-567.5 452,-599.5 591,-599.5 591,-567.5 452,-567.5"/>
<text text-anchor="start" x="460" y="-586.5" font-family="FreeSans" font-size="10.00" fill="#000000">Fun4All_G4_EICDetector</text>
<text text-anchor="middle" x="521.5" y="-574.5" font-family="FreeSans" font-size="10.00" fill="#000000">_LQ_reference</text>
</a>
</g>
</g>
<!-- Node4&#45;&gt;Node9 -->
<g id="edge8" class="edge">
<title>Node4&#45;&gt;Node9</title>
<path fill="none" stroke="#191970" d="M373.3789,-391.0457C377.0539,-429.2763 390.3615,-511.612 438,-557.5 442.046,-561.3973 446.6667,-564.7111 451.6114,-567.5288"/>
<polygon fill="#191970" stroke="#191970" points="376.8344,-390.3629 372.5203,-380.6861 369.8583,-390.9411 376.8344,-390.3629"/>
</g>
<!-- Node10 -->
<g id="node10" class="node">
<title>Node10</title>
<g id="a_node10"><a xlink:href="../../d3/d51/Fun4All__G4__EICDetector__RICH_8C.html#a5739502b0a7a1ba782c01069f77e933f" target="_top" xlink:title="Fun4All_G4_EICDetector_RICH">
<polygon fill="none" stroke="#000000" points="438,-528.5 438,-548.5 605,-548.5 605,-528.5 438,-528.5"/>
<text text-anchor="middle" x="521.5" y="-535.5" font-family="FreeSans" font-size="10.00" fill="#000000">Fun4All_G4_EICDetector_RICH</text>
</a>
</g>
</g>
<!-- Node4&#45;&gt;Node10 -->
<g id="edge9" class="edge">
<title>Node4&#45;&gt;Node10</title>
<path fill="none" stroke="#191970" d="M375.159,-390.5756C381.2957,-422.6481 397.9289,-485.2114 438,-518.5 442.8158,-522.5007 448.2989,-525.7269 454.1008,-528.3252"/>
<polygon fill="#191970" stroke="#191970" points="378.584,-389.8434 373.4049,-380.6008 371.6898,-391.0559 378.584,-389.8434"/>
</g>
<!-- Node11 -->
<g id="node11" class="node">
<title>Node11</title>
<g id="a_node11"><a xlink:href="../../d9/d0e/Fun4All__G4__EICIR_8C.html#ac3543d1dd4a0abed3987d40939ee3f87" target="_top" xlink:title="Fun4All_G4_EICIR">
<polygon fill="none" stroke="#000000" points="469.5,-489.5 469.5,-509.5 573.5,-509.5 573.5,-489.5 469.5,-489.5"/>
<text text-anchor="middle" x="521.5" y="-496.5" font-family="FreeSans" font-size="10.00" fill="#000000">Fun4All_G4_EICIR</text>
</a>
</g>
</g>
<!-- Node4&#45;&gt;Node11 -->
<g id="edge10" class="edge">
<title>Node4&#45;&gt;Node11</title>
<path fill="none" stroke="#191970" d="M378.5275,-390.2192C387.7613,-414.9659 407.047,-456.8978 438,-479.5 447.1494,-486.181 458.2255,-490.6578 469.2781,-493.6504"/>
<polygon fill="#191970" stroke="#191970" points="381.8192,-389.0294 375.1809,-380.7721 375.221,-391.3668 381.8192,-389.0294"/>
</g>
<!-- Node12 -->
<g id="node12" class="node">
<title>Node12</title>
<g id="a_node12"><a xlink:href="../../d7/d9e/Fun4All__G4__fsPHENIX_8C.html#af48911d394d2412e817583700f2bbee2" target="_top" xlink:title="Fun4All_G4_fsPHENIX">
<polygon fill="none" stroke="#000000" points="459.5,-450.5 459.5,-470.5 583.5,-470.5 583.5,-450.5 459.5,-450.5"/>
<text text-anchor="middle" x="521.5" y="-457.5" font-family="FreeSans" font-size="10.00" fill="#000000">Fun4All_G4_fsPHENIX</text>
</a>
</g>
</g>
<!-- Node4&#45;&gt;Node12 -->
<g id="edge11" class="edge">
<title>Node4&#45;&gt;Node12</title>
<path fill="none" stroke="#191970" d="M384.7208,-389.164C396.6361,-405.1974 415.8891,-427.6945 438,-440.5 445.0947,-444.6089 452.995,-447.8754 461.0274,-450.4718"/>
<polygon fill="#191970" stroke="#191970" points="387.253,-386.6882 378.5871,-380.5929 381.5605,-390.7619 387.253,-386.6882"/>
</g>
<!-- Node13 -->
<g id="node13" class="node">
<title>Node13</title>
<g id="a_node13"><a xlink:href="../../da/d2f/Fun4All__G4__fsPHENIX__FastSim_8C.html#a66fb850cae5fcaadda23b74a25ce4c9c" target="_top" xlink:title="Fun4All_G4_fsPHENIX\l_FastSim">
<polygon fill="none" stroke="#000000" points="459.5,-399.5 459.5,-431.5 583.5,-431.5 583.5,-399.5 459.5,-399.5"/>
<text text-anchor="start" x="467.5" y="-418.5" font-family="FreeSans" font-size="10.00" fill="#000000">Fun4All_G4_fsPHENIX</text>
<text text-anchor="middle" x="521.5" y="-406.5" font-family="FreeSans" font-size="10.00" fill="#000000">_FastSim</text>
</a>
</g>
</g>
<!-- Node4&#45;&gt;Node13 -->
<g id="edge12" class="edge">
<title>Node4&#45;&gt;Node13</title>
<path fill="none" stroke="#191970" d="M412.0215,-382.5466C429.302,-387.7481 449.7664,-393.9079 468.2985,-399.4862"/>
<polygon fill="#191970" stroke="#191970" points="412.838,-379.1373 402.2536,-379.6064 410.8203,-385.8402 412.838,-379.1373"/>
</g>
<!-- Node14 -->
<g id="node14" class="node">
<title>Node14</title>
<g id="a_node14"><a xlink:href="../../d0/da6/Fun4All__G4__fsPHENIX__pi0_8C.html#a023d91d47b678e5d7f1751834aa517c6" target="_top" xlink:title="Fun4All_G4_fsPHENIX_pi0">
<polygon fill="none" stroke="#000000" points="449,-360.5 449,-380.5 594,-380.5 594,-360.5 449,-360.5"/>
<text text-anchor="middle" x="521.5" y="-367.5" font-family="FreeSans" font-size="10.00" fill="#000000">Fun4All_G4_fsPHENIX_pi0</text>
</a>
</g>
</g>
<!-- Node4&#45;&gt;Node14 -->
<g id="edge13" class="edge">
<title>Node4&#45;&gt;Node14</title>
<path fill="none" stroke="#191970" d="M412.2574,-370.5C423.6119,-370.5 436.3264,-370.5 448.9568,-370.5"/>
<polygon fill="#191970" stroke="#191970" points="412.2536,-367.0001 402.2536,-370.5 412.2535,-374.0001 412.2536,-367.0001"/>
</g>
<!-- Node15 -->
<g id="node15" class="node">
<title>Node15</title>
<g id="a_node15"><a xlink:href="../../d5/d2c/macros_2blob_2master_2macros_2g4simulations_2Fun4All__G4__sPHENIX_8C.html#a6eaaa492d7023ec86c562dc63aa1e5a4" target="_top" xlink:title="Fun4All_G4_sPHENIX">
<polygon fill="none" stroke="#000000" points="461,-321.5 461,-341.5 582,-341.5 582,-321.5 461,-321.5"/>
<text text-anchor="middle" x="521.5" y="-328.5" font-family="FreeSans" font-size="10.00" fill="#000000">Fun4All_G4_sPHENIX</text>
</a>
</g>
</g>
<!-- Node4&#45;&gt;Node15 -->
<g id="edge14" class="edge">
<title>Node4&#45;&gt;Node15</title>
<path fill="none" stroke="#191970" d="M411.8989,-357.9156C420.4772,-355.3486 429.5151,-352.7479 438,-350.5 449.7844,-347.3779 462.5866,-344.3065 474.5454,-341.5736"/>
<polygon fill="#191970" stroke="#191970" points="410.6524,-354.6362 402.1005,-360.8904 412.686,-361.3343 410.6524,-354.6362"/>
</g>
<!-- Node16 -->
<g id="node16" class="node">
<title>Node16</title>
<g id="a_node16"><a xlink:href="../../d3/de2/Fun4All__G4__sPHENIX__AnaGenFit_8C.html#a9bf3f2f72ed69a17e2d0c1121d48013c" target="_top" xlink:title="Fun4All_G4_sPHENIX\l_AnaGenFit">
<polygon fill="none" stroke="#000000" points="461,-270.5 461,-302.5 582,-302.5 582,-270.5 461,-270.5"/>
<text text-anchor="start" x="469" y="-289.5" font-family="FreeSans" font-size="10.00" fill="#000000">Fun4All_G4_sPHENIX</text>
<text text-anchor="middle" x="521.5" y="-277.5" font-family="FreeSans" font-size="10.00" fill="#000000">_AnaGenFit</text>
</a>
</g>
</g>
<!-- Node4&#45;&gt;Node16 -->
<g id="edge15" class="edge">
<title>Node4&#45;&gt;Node16</title>
<path fill="none" stroke="#191970" d="M387.7303,-352.734C400.1939,-339.6473 418.6741,-322.3147 438,-311.5 445.1309,-307.5096 452.9687,-304.0903 460.898,-301.1786"/>
<polygon fill="#191970" stroke="#191970" points="385.0119,-350.5185 380.7936,-360.2374 390.152,-355.2704 385.0119,-350.5185"/>
</g>
<!-- Node17 -->
<g id="node17" class="node">
<title>Node17</title>
<g id="a_node17"><a xlink:href="../../da/dd0/Fun4All__G4__sPHENIX__photonjet_8C.html#a6f18519e216acc05399e562ea57ea77c" target="_top" xlink:title="Fun4All_G4_sPHENIX\l_photonjet">
<polygon fill="none" stroke="#000000" points="461,-219.5 461,-251.5 582,-251.5 582,-219.5 461,-219.5"/>
<text text-anchor="start" x="469" y="-238.5" font-family="FreeSans" font-size="10.00" fill="#000000">Fun4All_G4_sPHENIX</text>
<text text-anchor="middle" x="521.5" y="-226.5" font-family="FreeSans" font-size="10.00" fill="#000000">_photonjet</text>
</a>
</g>
</g>
<!-- Node4&#45;&gt;Node17 -->
<g id="edge16" class="edge">
<title>Node4&#45;&gt;Node17</title>
<path fill="none" stroke="#191970" d="M378.6801,-350.8716C388.076,-326.1865 407.5337,-284.1764 438,-260.5 444.8106,-255.2072 452.728,-251.032 460.9216,-247.7391"/>
<polygon fill="#191970" stroke="#191970" points="375.3849,-349.6921 375.2666,-360.2862 381.9657,-352.0781 375.3849,-349.6921"/>
</g>
<!-- Node18 -->
<g id="node18" class="node">
<title>Node18</title>
<g id="a_node18"><a xlink:href="../../da/d85/Fun4All__G4__sPHENIX__photons_8C.html#a02fbbd59878fe1299f58ed187e7214ba" target="_top" xlink:title="Fun4All_G4_sPHENIX\l_photons">
<polygon fill="none" stroke="#000000" points="461,-168.5 461,-200.5 582,-200.5 582,-168.5 461,-168.5"/>
<text text-anchor="start" x="469" y="-187.5" font-family="FreeSans" font-size="10.00" fill="#000000">Fun4All_G4_sPHENIX</text>
<text text-anchor="middle" x="521.5" y="-175.5" font-family="FreeSans" font-size="10.00" fill="#000000">_photons</text>
</a>
</g>
</g>
<!-- Node4&#45;&gt;Node18 -->
<g id="edge17" class="edge">
<title>Node4&#45;&gt;Node18</title>
<path fill="none" stroke="#191970" d="M374.6091,-350.4063C380.0891,-316.4243 395.9709,-247.5944 438,-209.5 444.503,-203.6058 452.3455,-199.0991 460.5866,-195.6538"/>
<polygon fill="#191970" stroke="#191970" points="371.117,-350.0974 373.1266,-360.4999 378.0427,-351.1146 371.117,-350.0974"/>
</g>
<!-- Node19 -->
<g id="node19" class="node">
<title>Node19</title>
<g id="a_node19"><a xlink:href="../../de/d55/Fun4All__G4__sPHENIX__truthphotonjet_8C.html#a48a6f4503eaa1b3793d8ae572aa795b9" target="_top" xlink:title="Fun4All_G4_sPHENIX\l_truthphotonjet">
<polygon fill="none" stroke="#000000" points="461,-117.5 461,-149.5 582,-149.5 582,-117.5 461,-117.5"/>
<text text-anchor="start" x="469" y="-136.5" font-family="FreeSans" font-size="10.00" fill="#000000">Fun4All_G4_sPHENIX</text>
<text text-anchor="middle" x="521.5" y="-124.5" font-family="FreeSans" font-size="10.00" fill="#000000">_truthphotonjet</text>
</a>
</g>
</g>
<!-- Node4&#45;&gt;Node19 -->
<g id="edge18" class="edge">
<title>Node4&#45;&gt;Node19</title>
<path fill="none" stroke="#191970" d="M375.7732,-350.3624C385.0444,-302.9055 410.218,-185.9807 438,-158.5 444.455,-152.115 452.471,-147.3497 460.9617,-143.7955"/>
<polygon fill="#191970" stroke="#191970" points="372.3031,-349.8745 373.8569,-360.3548 379.1778,-351.193 372.3031,-349.8745"/>
</g>
<!-- Node20 -->
<g id="node20" class="node">
<title>Node20</title>
<g id="a_node20"><a xlink:href="../../d4/d65/Fun4All__single__particle_8C.html#a8a492b5dbead494bfdddbebde8a49b0e" target="_top" xlink:title="Fun4All_single_particle">
<polygon fill="none" stroke="#000000" points="455.5,-78.5 455.5,-98.5 587.5,-98.5 587.5,-78.5 455.5,-78.5"/>
<text text-anchor="middle" x="521.5" y="-85.5" font-family="FreeSans" font-size="10.00" fill="#000000">Fun4All_single_particle</text>
</a>
</g>
</g>
<!-- Node4&#45;&gt;Node20 -->
<g id="edge19" class="edge">
<title>Node4&#45;&gt;Node20</title>
<path fill="none" stroke="#191970" d="M374.3374,-350.3423C381.174,-294.8774 402.8945,-141.8368 438,-107.5 442.9953,-102.6141 448.9709,-98.8818 455.3985,-96.0442"/>
<polygon fill="#191970" stroke="#191970" points="370.8534,-349.9998 373.1368,-360.3457 377.8036,-350.834 370.8534,-349.9998"/>
</g>
<!-- Node21 -->
<g id="node21" class="node">
<title>Node21</title>
<g id="a_node21"><a xlink:href="../../d0/d99/Jin__BJet_8C.html#a36169bfee2ed7efda633944d12aebad9" target="_top" xlink:title="Jin_BJet">
<polygon fill="none" stroke="#000000" points="494,-39.5 494,-59.5 549,-59.5 549,-39.5 494,-39.5"/>
<text text-anchor="middle" x="521.5" y="-46.5" font-family="FreeSans" font-size="10.00" fill="#000000">Jin_BJet</text>
</a>
</g>
</g>
<!-- Node4&#45;&gt;Node21 -->
<g id="edge20" class="edge">
<title>Node4&#45;&gt;Node21</title>
<path fill="none" stroke="#191970" d="M373.6409,-350.2505C378.997,-289.2346 397.9758,-108.8688 438,-68.5 452.4451,-53.9305 475.5807,-49.5476 493.8398,-48.6025"/>
<polygon fill="#191970" stroke="#191970" points="370.1301,-350.2312 372.7731,-360.4911 377.1051,-350.8224 370.1301,-350.2312"/>
</g>
<!-- Node22 -->
<g id="node22" class="node">
<title>Node22</title>
<g id="a_node22"><a xlink:href="../../dd/db1/Wrapper_8cxx.html#abf1e42281903daa0752c80dd6c879fac" target="_top" xlink:title="Wrapper">
<polygon fill="none" stroke="#000000" points="491.5,-.5 491.5,-20.5 551.5,-20.5 551.5,-.5 491.5,-.5"/>
<text text-anchor="middle" x="521.5" y="-7.5" font-family="FreeSans" font-size="10.00" fill="#000000">Wrapper</text>
</a>
</g>
</g>
<!-- Node4&#45;&gt;Node22 -->
<g id="edge21" class="edge">
<title>Node4&#45;&gt;Node22</title>
<path fill="none" stroke="#191970" d="M373.0901,-350.2645C377.068,-284.1352 393.0024,-75.9867 438,-29.5 451.649,-15.3993 473.4225,-10.7885 491.3133,-9.63"/>
<polygon fill="#191970" stroke="#191970" points="369.5954,-350.0726 372.5164,-360.2568 376.5839,-350.4739 369.5954,-350.0726"/>
</g>
<!-- Node6 -->
<g id="node6" class="node">
<title>Node6</title>
<g id="a_node6"><a xlink:href="../../d3/d7f/Fun_8C.html#af69a3eef3ff244bb51f5740c6ecb5432" target="_top" xlink:title="Fun">
<polygon fill="none" stroke="#000000" points="641,-696.5 641,-716.5 675,-716.5 675,-696.5 641,-696.5"/>
<text text-anchor="middle" x="658" y="-703.5" font-family="FreeSans" font-size="10.00" fill="#000000">Fun</text>
</a>
</g>
</g>
<!-- Node5&#45;&gt;Node6 -->
<g id="edge5" class="edge">
<title>Node5&#45;&gt;Node6</title>
<path fill="none" stroke="#191970" d="M588.6941,-706.5C608.0852,-706.5 627.59,-706.5 640.9452,-706.5"/>
<polygon fill="#191970" stroke="#191970" points="588.5974,-703.0001 578.5974,-706.5 588.5974,-710.0001 588.5974,-703.0001"/>
</g>
<!-- Node23&#45;&gt;Node4 -->
<g id="edge23" class="edge">
<title>Node23&#45;&gt;Node4</title>
<path fill="none" stroke="#191970" d="M282.0603,-357.8418C301.6483,-360.5986 324.0811,-363.7559 341.6429,-366.2275"/>
<polygon fill="#191970" stroke="#191970" points="282.5075,-354.3703 272.1172,-356.4424 281.5318,-361.302 282.5075,-354.3703"/>
</g>
</g>
</svg>
