<?xml version="1.0" encoding="UTF-8" standalone="no"?>
<!DOCTYPE svg PUBLIC "-//W3C//DTD SVG 1.1//EN"
 "http://www.w3.org/Graphics/SVG/1.1/DTD/svg11.dtd">
<!-- Generated by graphviz version 2.40.1 (20161225.0304)
 -->
<!-- Title: coresoftware/blob/master/simulation/g4simulation/g4main/PHG4ParticleGeneratorVectorMeson.h Pages: 1 -->
<svg width="1061pt" height="158pt"
 viewBox="0.00 0.00 1060.50 158.00" xmlns="http://www.w3.org/2000/svg" xmlns:xlink="http://www.w3.org/1999/xlink">
<g id="graph0" class="graph" transform="scale(1 1) rotate(0) translate(4 154)">
<title>coresoftware/blob/master/simulation/g4simulation/g4main/PHG4ParticleGeneratorVectorMeson.h</title>
<!-- Node1 -->
<g id="node1" class="node">
<title>Node1</title>
<polygon fill="#bfbfbf" stroke="#000000" points="441,-93.5 441,-149.5 653,-149.5 653,-93.5 441,-93.5"/>
<text text-anchor="start" x="449" y="-136.5" font-family="FreeSans" font-size="10.00" fill="#000000">coresoftware/blob/master</text>
<text text-anchor="start" x="449" y="-124.5" font-family="FreeSans" font-size="10.00" fill="#000000">/simulation/g4simulation</text>
<text text-anchor="start" x="449" y="-112.5" font-family="FreeSans" font-size="10.00" fill="#000000">/g4main/PHG4ParticleGeneratorVector</text>
<text text-anchor="middle" x="547" y="-100.5" font-family="FreeSans" font-size="10.00" fill="#000000">Meson.h</text>
</g>
<!-- Node2 -->
<g id="node2" class="node">
<title>Node2</title>
<g id="a_node2"><a xlink:href="../../dd/d77/PHG4ParticleGeneratorVectorMeson_8cc.html" target="_top" xlink:title="coresoftware/blob/master\l/simulation/g4simulation\l/g4main/PHG4ParticleGeneratorVector\lMeson.cc">
<polygon fill="none" stroke="#000000" points="0,-.5 0,-56.5 212,-56.5 212,-.5 0,-.5"/>
<text text-anchor="start" x="8" y="-43.5" font-family="FreeSans" font-size="10.00" fill="#000000">coresoftware/blob/master</text>
<text text-anchor="start" x="8" y="-31.5" font-family="FreeSans" font-size="10.00" fill="#000000">/simulation/g4simulation</text>
<text text-anchor="start" x="8" y="-19.5" font-family="FreeSans" font-size="10.00" fill="#000000">/g4main/PHG4ParticleGeneratorVector</text>
<text text-anchor="middle" x="106" y="-7.5" font-family="FreeSans" font-size="10.00" fill="#000000">Meson.cc</text>
</a>
</g>
</g>
<!-- Node1&#45;&gt;Node2 -->
<g id="edge1" class="edge">
<title>Node1&#45;&gt;Node2</title>
<path fill="none" stroke="#191970" d="M430.7871,-99.8994C368.4343,-87.9593 290.3578,-72.4465 221,-57 218.0888,-56.3517 215.1384,-55.6853 212.1627,-55.0051"/>
<polygon fill="#191970" stroke="#191970" points="430.1764,-103.346 440.6556,-101.7845 431.4899,-96.4703 430.1764,-103.346"/>
</g>
<!-- Node3 -->
<g id="node3" class="node">
<title>Node3</title>
<g id="a_node3"><a xlink:href="../../da/d02/Fun4All__G4__EICDetector_8C.html" target="_top" xlink:title="macros/blob/master\l/macros/g4simulations\l/Fun4All_G4_EICDetector.C">
<polygon fill="none" stroke="#000000" points="230,-6.5 230,-50.5 382,-50.5 382,-6.5 230,-6.5"/>
<text text-anchor="start" x="238" y="-37.5" font-family="FreeSans" font-size="10.00" fill="#000000">macros/blob/master</text>
<text text-anchor="start" x="238" y="-25.5" font-family="FreeSans" font-size="10.00" fill="#000000">/macros/g4simulations</text>
<text text-anchor="middle" x="306" y="-13.5" font-family="FreeSans" font-size="10.00" fill="#000000">/Fun4All_G4_EICDetector.C</text>
</a>
</g>
</g>
<!-- Node1&#45;&gt;Node3 -->
<g id="edge2" class="edge">
<title>Node1&#45;&gt;Node3</title>
<path fill="none" stroke="#191970" d="M464.6148,-89.7082C431.2214,-76.822 393.4745,-62.2557 363.1834,-50.5666"/>
<polygon fill="#191970" stroke="#191970" points="463.7757,-93.1359 474.3652,-93.4708 466.2958,-86.6053 463.7757,-93.1359"/>
</g>
<!-- Node4 -->
<g id="node4" class="node">
<title>Node4</title>
<g id="a_node4"><a xlink:href="../../d7/d9e/Fun4All__G4__fsPHENIX_8C.html" target="_top" xlink:title="macros/blob/master\l/macros/g4simulations\l/Fun4All_G4_fsPHENIX.C">
<polygon fill="none" stroke="#000000" points="400.5,-6.5 400.5,-50.5 539.5,-50.5 539.5,-6.5 400.5,-6.5"/>
<text text-anchor="start" x="408.5" y="-37.5" font-family="FreeSans" font-size="10.00" fill="#000000">macros/blob/master</text>
<text text-anchor="start" x="408.5" y="-25.5" font-family="FreeSans" font-size="10.00" fill="#000000">/macros/g4simulations</text>
<text text-anchor="middle" x="470" y="-13.5" font-family="FreeSans" font-size="10.00" fill="#000000">/Fun4All_G4_fsPHENIX.C</text>
</a>
</g>
</g>
<!-- Node1&#45;&gt;Node4 -->
<g id="edge3" class="edge">
<title>Node1&#45;&gt;Node4</title>
<path fill="none" stroke="#191970" d="M517.1265,-85.419C507.4233,-73.6995 496.9493,-61.0492 488.3456,-50.6577"/>
<polygon fill="#191970" stroke="#191970" points="514.6152,-87.8741 523.6885,-93.3446 520.007,-83.4099 514.6152,-87.8741"/>
</g>
<!-- Node5 -->
<g id="node5" class="node">
<title>Node5</title>
<g id="a_node5"><a xlink:href="../../d5/d2c/macros_2blob_2master_2macros_2g4simulations_2Fun4All__G4__sPHENIX_8C.html" target="_top" xlink:title="macros/blob/master\l/macros/g4simulations\l/Fun4All_G4_sPHENIX.C">
<polygon fill="none" stroke="#000000" points="557.5,-6.5 557.5,-50.5 692.5,-50.5 692.5,-6.5 557.5,-6.5"/>
<text text-anchor="start" x="565.5" y="-37.5" font-family="FreeSans" font-size="10.00" fill="#000000">macros/blob/master</text>
<text text-anchor="start" x="565.5" y="-25.5" font-family="FreeSans" font-size="10.00" fill="#000000">/macros/g4simulations</text>
<text text-anchor="middle" x="625" y="-13.5" font-family="FreeSans" font-size="10.00" fill="#000000">/Fun4All_G4_sPHENIX.C</text>
</a>
</g>
</g>
<!-- Node1&#45;&gt;Node5 -->
<g id="edge4" class="edge">
<title>Node1&#45;&gt;Node5</title>
<path fill="none" stroke="#191970" d="M577.2615,-85.419C587.0907,-73.6995 597.7007,-61.0492 606.4162,-50.6577"/>
<polygon fill="#191970" stroke="#191970" points="574.3587,-83.4335 570.6142,-93.3446 579.7221,-87.9318 574.3587,-83.4335"/>
</g>
<!-- Node6 -->
<g id="node6" class="node">
<title>Node6</title>
<g id="a_node6"><a xlink:href="../../de/da9/ReadClustersRunTracking_8C.html" target="_top" xlink:title="macros/blob/master\l/macros/g4simulations\l/ReadClustersRunTracking.C">
<polygon fill="none" stroke="#000000" points="710.5,-6.5 710.5,-50.5 869.5,-50.5 869.5,-6.5 710.5,-6.5"/>
<text text-anchor="start" x="718.5" y="-37.5" font-family="FreeSans" font-size="10.00" fill="#000000">macros/blob/master</text>
<text text-anchor="start" x="718.5" y="-25.5" font-family="FreeSans" font-size="10.00" fill="#000000">/macros/g4simulations</text>
<text text-anchor="middle" x="790" y="-13.5" font-family="FreeSans" font-size="10.00" fill="#000000">/ReadClustersRunTracking.C</text>
</a>
</g>
</g>
<!-- Node1&#45;&gt;Node6 -->
<g id="edge5" class="edge">
<title>Node1&#45;&gt;Node6</title>
<path fill="none" stroke="#191970" d="M629.6356,-89.874C663.4125,-76.9471 701.6685,-62.3059 732.342,-50.5666"/>
<polygon fill="#191970" stroke="#191970" points="628.3259,-86.6276 620.2375,-93.4708 630.828,-93.1652 628.3259,-86.6276"/>
</g>
<!-- Node7 -->
<g id="node7" class="node">
<title>Node7</title>
<g id="a_node7"><a xlink:href="../../d4/dfa/Fun4All__Generator__Display_8C.html" target="_top" xlink:title="tutorials/blob/master\l/eventgenerator_display\l/Fun4All_Generator_Display.C">
<polygon fill="none" stroke="#000000" points="887.5,-6.5 887.5,-50.5 1052.5,-50.5 1052.5,-6.5 887.5,-6.5"/>
<text text-anchor="start" x="895.5" y="-37.5" font-family="FreeSans" font-size="10.00" fill="#000000">tutorials/blob/master</text>
<text text-anchor="start" x="895.5" y="-25.5" font-family="FreeSans" font-size="10.00" fill="#000000">/eventgenerator_display</text>
<text text-anchor="middle" x="970" y="-13.5" font-family="FreeSans" font-size="10.00" fill="#000000">/Fun4All_Generator_Display.C</text>
</a>
</g>
</g>
<!-- Node1&#45;&gt;Node7 -->
<g id="edge6" class="edge">
<title>Node1&#45;&gt;Node7</title>
<path fill="none" stroke="#191970" d="M663.2107,-102.2036C727.2515,-90.7495 807.9456,-74.9691 879,-57 886.704,-55.0517 894.7182,-52.8321 902.6555,-50.5114"/>
<polygon fill="#191970" stroke="#191970" points="662.3127,-98.8082 653.0796,-104.0044 663.5378,-105.7002 662.3127,-98.8082"/>
</g>
</g>
</svg>
