<?xml version="1.0" encoding="UTF-8" standalone="no"?>
<!DOCTYPE svg PUBLIC "-//W3C//DTD SVG 1.1//EN"
 "http://www.w3.org/Graphics/SVG/1.1/DTD/svg11.dtd">
<!-- Generated by graphviz version 2.40.1 (20161225.0304)
 -->
<!-- Title: RawCluster::get_position Pages: 1 -->
<svg width="717pt" height="609pt"
 viewBox="0.00 0.00 717.00 608.99" xmlns="http://www.w3.org/2000/svg" xmlns:xlink="http://www.w3.org/1999/xlink">
<g id="graph0" class="graph" transform="scale(1 1) rotate(0) translate(4 604.9936)">
<title>RawCluster::get_position</title>
<!-- Node1 -->
<g id="node1" class="node">
<title>Node1</title>
<polygon fill="#bfbfbf" stroke="#000000" points="0,-302.5 0,-322.5 141,-322.5 141,-302.5 0,-302.5"/>
<text text-anchor="middle" x="70.5" y="-309.5" font-family="FreeSans" font-size="10.00" fill="#000000">RawCluster::get_position</text>
</g>
<!-- Node2 -->
<g id="node2" class="node">
<title>Node2</title>
<g id="a_node2"><a xlink:href="../../d0/d0e/classRawClusterUtility.html#a383094c8f7817253804c39e4b9f51363" target="_top" xlink:title="azimuth angle of cluster with respect to given vertex position">
<polygon fill="none" stroke="#000000" points="202.5,-492.5 202.5,-524.5 310.5,-524.5 310.5,-492.5 202.5,-492.5"/>
<text text-anchor="start" x="210.5" y="-511.5" font-family="FreeSans" font-size="10.00" fill="#000000">RawClusterUtility::</text>
<text text-anchor="middle" x="256.5" y="-499.5" font-family="FreeSans" font-size="10.00" fill="#000000">GetAzimuthAngle</text>
</a>
</g>
</g>
<!-- Node1&#45;&gt;Node2 -->
<g id="edge1" class="edge">
<title>Node1&#45;&gt;Node2</title>
<path fill="none" stroke="#191970" d="M77.5451,-332.4453C91.1415,-368.074 124.3859,-442.7312 177,-483.5 184.4339,-489.2603 193.2181,-493.7071 202.1875,-497.1362"/>
<polygon fill="#191970" stroke="#191970" points="80.7024,-330.8916 73.9566,-322.7219 74.1354,-333.3152 80.7024,-330.8916"/>
</g>
<!-- Node3 -->
<g id="node3" class="node">
<title>Node3</title>
<g id="a_node3"><a xlink:href="../../d0/d0e/classRawClusterUtility.html#a27157c0f1f777419cf427e72593c1e21" target="_top" xlink:title="Get energy vector of cluster based on E_core.">
<polygon fill="none" stroke="#000000" points="202.5,-441.5 202.5,-473.5 310.5,-473.5 310.5,-441.5 202.5,-441.5"/>
<text text-anchor="start" x="210.5" y="-460.5" font-family="FreeSans" font-size="10.00" fill="#000000">RawClusterUtility::</text>
<text text-anchor="middle" x="256.5" y="-448.5" font-family="FreeSans" font-size="10.00" fill="#000000">GetECoreVec</text>
</a>
</g>
</g>
<!-- Node1&#45;&gt;Node3 -->
<g id="edge2" class="edge">
<title>Node1&#45;&gt;Node3</title>
<path fill="none" stroke="#191970" d="M85.7975,-330.0939C105.4093,-351.9507 141.1777,-389.5258 177,-415.5 190.522,-425.3046 206.6289,-434.2504 220.7977,-441.3426"/>
<polygon fill="#191970" stroke="#191970" points="88.3578,-327.7058 79.1057,-322.5436 83.1192,-332.3488 88.3578,-327.7058"/>
</g>
<!-- Node9 -->
<g id="node9" class="node">
<title>Node9</title>
<g id="a_node9"><a xlink:href="../../d0/d0e/classRawClusterUtility.html#a0a0108c3ad85ae3f9c06bf0f5acfc717" target="_top" xlink:title="Transverse energy of cluster with respect to given vertex position.">
<polygon fill="none" stroke="#000000" points="202.5,-373.5 202.5,-405.5 310.5,-405.5 310.5,-373.5 202.5,-373.5"/>
<text text-anchor="start" x="210.5" y="-392.5" font-family="FreeSans" font-size="10.00" fill="#000000">RawClusterUtility::</text>
<text text-anchor="middle" x="256.5" y="-380.5" font-family="FreeSans" font-size="10.00" fill="#000000">GetET</text>
</a>
</g>
</g>
<!-- Node1&#45;&gt;Node9 -->
<g id="edge11" class="edge">
<title>Node1&#45;&gt;Node9</title>
<path fill="none" stroke="#191970" d="M98.0349,-327.3593C119.2409,-338.4538 149.4872,-353.5288 177,-364.5 185.0636,-367.7155 193.7144,-370.797 202.2343,-373.6307"/>
<polygon fill="#191970" stroke="#191970" points="99.4469,-324.1469 88.97,-322.571 96.1774,-330.3365 99.4469,-324.1469"/>
</g>
<!-- Node10 -->
<g id="node10" class="node">
<title>Node10</title>
<g id="a_node10"><a xlink:href="../../d0/d0e/classRawClusterUtility.html#afdf16adb339f1ffe5ffab1b91b224494" target="_top" xlink:title="Transverse core energy of cluster with respect to given vertex position.">
<polygon fill="none" stroke="#000000" points="202.5,-322.5 202.5,-354.5 310.5,-354.5 310.5,-322.5 202.5,-322.5"/>
<text text-anchor="start" x="210.5" y="-341.5" font-family="FreeSans" font-size="10.00" fill="#000000">RawClusterUtility::</text>
<text text-anchor="middle" x="256.5" y="-329.5" font-family="FreeSans" font-size="10.00" fill="#000000">GetETCore</text>
</a>
</g>
</g>
<!-- Node1&#45;&gt;Node10 -->
<g id="edge12" class="edge">
<title>Node1&#45;&gt;Node10</title>
<path fill="none" stroke="#191970" d="M151.2033,-323.7811C168.5359,-326.2039 186.4485,-328.7079 202.4757,-330.9482"/>
<polygon fill="#191970" stroke="#191970" points="151.4721,-320.2847 141.0838,-322.3666 150.503,-327.2173 151.4721,-320.2847"/>
</g>
<!-- Node11 -->
<g id="node11" class="node">
<title>Node11</title>
<g id="a_node11"><a xlink:href="../../d0/d0e/classRawClusterUtility.html#a3261266f538776e8f1c741937cf278fd" target="_top" xlink:title="Get energy vector of cluster based on cluster energy.">
<polygon fill="none" stroke="#000000" points="202.5,-271.5 202.5,-303.5 310.5,-303.5 310.5,-271.5 202.5,-271.5"/>
<text text-anchor="start" x="210.5" y="-290.5" font-family="FreeSans" font-size="10.00" fill="#000000">RawClusterUtility::</text>
<text text-anchor="middle" x="256.5" y="-278.5" font-family="FreeSans" font-size="10.00" fill="#000000">GetEVec</text>
</a>
</g>
</g>
<!-- Node1&#45;&gt;Node11 -->
<g id="edge13" class="edge">
<title>Node1&#45;&gt;Node11</title>
<path fill="none" stroke="#191970" d="M151.2033,-301.6528C168.5359,-299.3231 186.4485,-296.9155 202.4757,-294.7613"/>
<polygon fill="#191970" stroke="#191970" points="150.5284,-298.2119 141.0838,-303.0129 151.461,-305.1495 150.5284,-298.2119"/>
</g>
<!-- Node18 -->
<g id="node18" class="node">
<title>Node18</title>
<g id="a_node18"><a xlink:href="../../d0/d0e/classRawClusterUtility.html#a4f32e5be113c8692694239e4c69ff6c7" target="_top" xlink:title="polar angle of cluster with respect to given vertex position">
<polygon fill="none" stroke="#000000" points="202.5,-220.5 202.5,-252.5 310.5,-252.5 310.5,-220.5 202.5,-220.5"/>
<text text-anchor="start" x="210.5" y="-239.5" font-family="FreeSans" font-size="10.00" fill="#000000">RawClusterUtility::</text>
<text text-anchor="middle" x="256.5" y="-227.5" font-family="FreeSans" font-size="10.00" fill="#000000">GetPolarAngle</text>
</a>
</g>
</g>
<!-- Node1&#45;&gt;Node18 -->
<g id="edge21" class="edge">
<title>Node1&#45;&gt;Node18</title>
<path fill="none" stroke="#191970" d="M99.2994,-297.801C120.4911,-287.2761 150.1607,-273.1425 177,-262.5 185.7743,-259.0208 195.2182,-255.6321 204.4259,-252.5124"/>
<polygon fill="#191970" stroke="#191970" points="97.5745,-294.7503 90.1999,-302.3572 100.7086,-301.0095 97.5745,-294.7503"/>
</g>
<!-- Node19 -->
<g id="node19" class="node">
<title>Node19</title>
<g id="a_node19"><a xlink:href="../../d0/d0e/classRawClusterUtility.html#aa3749ddedc2ebe5d12394650d89aa704" target="_top" xlink:title="Pseudorapidity of cluster with respect to given vertex position.">
<polygon fill="none" stroke="#000000" points="201.5,-102.5 201.5,-134.5 311.5,-134.5 311.5,-102.5 201.5,-102.5"/>
<text text-anchor="start" x="209.5" y="-121.5" font-family="FreeSans" font-size="10.00" fill="#000000">RawClusterUtility::</text>
<text text-anchor="middle" x="256.5" y="-109.5" font-family="FreeSans" font-size="10.00" fill="#000000">GetPseudorapidity</text>
</a>
</g>
</g>
<!-- Node1&#45;&gt;Node19 -->
<g id="edge22" class="edge">
<title>Node1&#45;&gt;Node19</title>
<path fill="none" stroke="#191970" d="M87.5486,-294.7181C123.5212,-257.1983 206.7008,-170.4411 241.1398,-134.5209"/>
<polygon fill="#191970" stroke="#191970" points="84.6326,-292.7023 80.2383,-302.3429 89.6854,-297.5467 84.6326,-292.7023"/>
</g>
<!-- Node23 -->
<g id="node23" class="node">
<title>Node23</title>
<g id="a_node23"><a xlink:href="../../d9/d7b/classQAG4SimulationCalorimeter.html#a208fd8c361982115126f11b88541e071" target="_top" xlink:title="QAG4SimulationCalorimeter\l::process_event_Cluster">
<polygon fill="none" stroke="#000000" points="177,-26.5 177,-58.5 336,-58.5 336,-26.5 177,-26.5"/>
<text text-anchor="start" x="185" y="-45.5" font-family="FreeSans" font-size="10.00" fill="#000000">QAG4SimulationCalorimeter</text>
<text text-anchor="middle" x="256.5" y="-33.5" font-family="FreeSans" font-size="10.00" fill="#000000">::process_event_Cluster</text>
</a>
</g>
</g>
<!-- Node1&#45;&gt;Node23 -->
<g id="edge26" class="edge">
<title>Node1&#45;&gt;Node23</title>
<path fill="none" stroke="#191970" d="M76.1521,-292.5375C88.6185,-251.3426 121.8297,-155.5817 177,-93.5 189.7445,-79.1589 207.4455,-67.2737 222.9104,-58.5951"/>
<polygon fill="#191970" stroke="#191970" points="72.7709,-291.6298 73.3061,-302.2111 79.4863,-293.6055 72.7709,-291.6298"/>
</g>
<!-- Node4 -->
<g id="node4" class="node">
<title>Node4</title>
<g id="a_node4"><a xlink:href="../../dc/d65/classPhotonJet.html#a3f9d3ec941f851bc2246ceb0c5362c9f" target="_top" xlink:title="PhotonJet::process\l_event">
<polygon fill="none" stroke="#000000" points="583,-511.5 583,-543.5 693,-543.5 693,-511.5 583,-511.5"/>
<text text-anchor="start" x="591" y="-530.5" font-family="FreeSans" font-size="10.00" fill="#000000">PhotonJet::process</text>
<text text-anchor="middle" x="638" y="-518.5" font-family="FreeSans" font-size="10.00" fill="#000000">_event</text>
</a>
</g>
</g>
<!-- Node3&#45;&gt;Node4 -->
<g id="edge3" class="edge">
<title>Node3&#45;&gt;Node4</title>
<path fill="none" stroke="#191970" d="M320.0254,-472.2357C325.8576,-475.3063 331.321,-479.0167 336,-483.5 368.9018,-515.0264 334.5465,-553.5447 372,-579.5 447.6105,-631.8981 562.8676,-573.9402 613.1216,-543.6195"/>
<polygon fill="#191970" stroke="#191970" points="321.1652,-468.9078 310.6167,-467.9179 318.2455,-475.2699 321.1652,-468.9078"/>
</g>
<!-- Node5 -->
<g id="node5" class="node">
<title>Node5</title>
<g id="a_node5"><a xlink:href="../../dc/d65/classPhotonJet.html#a2c1adc79085fbbe9d27254d016321804" target="_top" xlink:title="PhotonJet::GetRecoHadrons\lAndJetsAA">
<polygon fill="none" stroke="#000000" points="373.5,-537.5 373.5,-569.5 529.5,-569.5 529.5,-537.5 373.5,-537.5"/>
<text text-anchor="start" x="381.5" y="-556.5" font-family="FreeSans" font-size="10.00" fill="#000000">PhotonJet::GetRecoHadrons</text>
<text text-anchor="middle" x="451.5" y="-544.5" font-family="FreeSans" font-size="10.00" fill="#000000">AndJetsAA</text>
</a>
</g>
</g>
<!-- Node3&#45;&gt;Node5 -->
<g id="edge4" class="edge">
<title>Node3&#45;&gt;Node5</title>
<path fill="none" stroke="#191970" d="M320.1812,-474.5364C325.7415,-477.1364 331.1066,-480.1085 336,-483.5 357.0508,-498.0899 350.8664,-514.0304 372,-528.5 377.0141,-531.933 382.5228,-534.9125 388.2289,-537.4948"/>
<polygon fill="#191970" stroke="#191970" points="321.2607,-471.1923 310.6882,-470.5037 318.5237,-477.6351 321.2607,-471.1923"/>
</g>
<!-- Node6 -->
<g id="node6" class="node">
<title>Node6</title>
<g id="a_node6"><a xlink:href="../../dc/d65/classPhotonJet.html#a9b2de7dcbd5e3bbbd26150d418b7bb44" target="_top" xlink:title="PhotonJet::GetRecoHadrons\lAndJets">
<polygon fill="none" stroke="#000000" points="373.5,-486.5 373.5,-518.5 529.5,-518.5 529.5,-486.5 373.5,-486.5"/>
<text text-anchor="start" x="381.5" y="-505.5" font-family="FreeSans" font-size="10.00" fill="#000000">PhotonJet::GetRecoHadrons</text>
<text text-anchor="middle" x="451.5" y="-493.5" font-family="FreeSans" font-size="10.00" fill="#000000">AndJets</text>
</a>
</g>
</g>
<!-- Node3&#45;&gt;Node6 -->
<g id="edge6" class="edge">
<title>Node3&#45;&gt;Node6</title>
<path fill="none" stroke="#191970" d="M320.3543,-472.2356C340.069,-476.7851 361.8755,-481.8174 381.9543,-486.451"/>
<polygon fill="#191970" stroke="#191970" points="321.0904,-468.8136 310.5594,-469.9752 319.5163,-475.6343 321.0904,-468.8136"/>
</g>
<!-- Node7 -->
<g id="node7" class="node">
<title>Node7</title>
<g id="a_node7"><a xlink:href="../../dc/d65/classPhotonJet.html#a2c998d51d52420bdde0a2100c7cbdf62" target="_top" xlink:title="PhotonJet::ConeSum">
<polygon fill="none" stroke="#000000" points="391.5,-447.5 391.5,-467.5 511.5,-467.5 511.5,-447.5 391.5,-447.5"/>
<text text-anchor="middle" x="451.5" y="-454.5" font-family="FreeSans" font-size="10.00" fill="#000000">PhotonJet::ConeSum</text>
</a>
</g>
</g>
<!-- Node3&#45;&gt;Node7 -->
<g id="edge8" class="edge">
<title>Node3&#45;&gt;Node7</title>
<path fill="none" stroke="#191970" d="M320.7624,-457.5C343.4311,-457.5 368.8228,-457.5 391.156,-457.5"/>
<polygon fill="#191970" stroke="#191970" points="320.5594,-454.0001 310.5594,-457.5 320.5594,-461.0001 320.5594,-454.0001"/>
</g>
<!-- Node8 -->
<g id="node8" class="node">
<title>Node8</title>
<g id="a_node8"><a xlink:href="../../d7/dec/classForward__pi0s.html#aa5e9d908554327efd879a6db978b2174" target="_top" xlink:title="Forward_pi0s::process\l_event">
<polygon fill="none" stroke="#000000" points="387.5,-396.5 387.5,-428.5 515.5,-428.5 515.5,-396.5 387.5,-396.5"/>
<text text-anchor="start" x="395.5" y="-415.5" font-family="FreeSans" font-size="10.00" fill="#000000">Forward_pi0s::process</text>
<text text-anchor="middle" x="451.5" y="-403.5" font-family="FreeSans" font-size="10.00" fill="#000000">_event</text>
</a>
</g>
</g>
<!-- Node3&#45;&gt;Node8 -->
<g id="edge10" class="edge">
<title>Node3&#45;&gt;Node8</title>
<path fill="none" stroke="#191970" d="M320.5376,-442.7221C341.9689,-437.7764 365.8551,-432.2642 387.2989,-427.3156"/>
<polygon fill="#191970" stroke="#191970" points="319.5163,-439.3657 310.5594,-445.0248 321.0904,-446.1864 319.5163,-439.3657"/>
</g>
<!-- Node5&#45;&gt;Node4 -->
<g id="edge5" class="edge">
<title>Node5&#45;&gt;Node4</title>
<path fill="none" stroke="#191970" d="M539.6821,-541.2065C554.4376,-539.1495 569.3627,-537.0687 582.9739,-535.1712"/>
<polygon fill="#191970" stroke="#191970" points="538.9331,-537.777 529.5122,-542.6243 539.8997,-544.71 538.9331,-537.777"/>
</g>
<!-- Node6&#45;&gt;Node4 -->
<g id="edge7" class="edge">
<title>Node6&#45;&gt;Node4</title>
<path fill="none" stroke="#191970" d="M539.6821,-514.3207C554.4376,-516.2986 569.3627,-518.2993 582.9739,-520.1239"/>
<polygon fill="#191970" stroke="#191970" points="539.8886,-510.8171 529.5122,-512.9574 538.9585,-517.7551 539.8886,-510.8171"/>
</g>
<!-- Node7&#45;&gt;Node4 -->
<g id="edge9" class="edge">
<title>Node7&#45;&gt;Node4</title>
<path fill="none" stroke="#191970" d="M507.4325,-470.1367C515.416,-472.3545 523.469,-474.8208 531,-477.5 557.6594,-486.9844 586.6696,-500.7728 607.7492,-511.469"/>
<polygon fill="#191970" stroke="#191970" points="508.3329,-466.7546 497.7685,-467.5571 506.5275,-473.5178 508.3329,-466.7546"/>
</g>
<!-- Node11&#45;&gt;Node8 -->
<g id="edge16" class="edge">
<title>Node11&#45;&gt;Node8</title>
<path fill="none" stroke="#191970" d="M319.8658,-302.8274C325.6828,-305.7825 331.1874,-309.3041 336,-313.5 363.5678,-337.5353 344.2956,-363.6223 372,-387.5 376.603,-391.4672 381.8356,-394.8056 387.3671,-397.6147"/>
<polygon fill="#191970" stroke="#191970" points="321.0788,-299.5355 310.5223,-298.6345 318.2128,-305.922 321.0788,-299.5355"/>
</g>
<!-- Node12 -->
<g id="node12" class="node">
<title>Node12</title>
<g id="a_node12"><a xlink:href="../../df/dda/classPHFlowJetMaker.html#a08cdecbc83cd68e95644a8b17af394e5" target="_top" xlink:title="PHFlowJetMaker::run\l_particle_flow">
<polygon fill="none" stroke="#000000" points="391.5,-345.5 391.5,-377.5 511.5,-377.5 511.5,-345.5 391.5,-345.5"/>
<text text-anchor="start" x="399.5" y="-364.5" font-family="FreeSans" font-size="10.00" fill="#000000">PHFlowJetMaker::run</text>
<text text-anchor="middle" x="451.5" y="-352.5" font-family="FreeSans" font-size="10.00" fill="#000000">_particle_flow</text>
</a>
</g>
</g>
<!-- Node11&#45;&gt;Node12 -->
<g id="edge14" class="edge">
<title>Node11&#45;&gt;Node12</title>
<path fill="none" stroke="#191970" d="M320.3629,-306.7926C325.72,-308.8898 330.9965,-311.1303 336,-313.5 353.1596,-321.6267 354.7944,-328.4713 372,-336.5 378.9489,-339.7426 386.4281,-342.7141 393.9201,-345.3878"/>
<polygon fill="#191970" stroke="#191970" points="321.2671,-303.3942 310.6746,-303.1753 318.8186,-309.9521 321.2671,-303.3942"/>
</g>
<!-- Node14 -->
<g id="node14" class="node">
<title>Node14</title>
<g id="a_node14"><a xlink:href="../../dc/d53/classPhotons.html#abd8397d6fc7d55f20d97de36b431f81d" target="_top" xlink:title="Photons::process_event">
<polygon fill="none" stroke="#000000" points="383,-306.5 383,-326.5 520,-326.5 520,-306.5 383,-306.5"/>
<text text-anchor="middle" x="451.5" y="-313.5" font-family="FreeSans" font-size="10.00" fill="#000000">Photons::process_event</text>
</a>
</g>
</g>
<!-- Node11&#45;&gt;Node14 -->
<g id="edge17" class="edge">
<title>Node11&#45;&gt;Node14</title>
<path fill="none" stroke="#191970" d="M320.6603,-297.0418C341.0007,-300.0668 363.542,-303.4191 384.103,-306.4769"/>
<polygon fill="#191970" stroke="#191970" points="320.9655,-293.5488 310.5594,-295.5396 319.9358,-300.4726 320.9655,-293.5488"/>
</g>
<!-- Node15 -->
<g id="node15" class="node">
<title>Node15</title>
<g id="a_node15"><a xlink:href="../../da/da1/classPJTranslator.html#a05f197da20e9ab88a53904b574db33a2" target="_top" xlink:title="PJTranslator::process\l_event">
<polygon fill="none" stroke="#000000" points="391,-255.5 391,-287.5 512,-287.5 512,-255.5 391,-255.5"/>
<text text-anchor="start" x="399" y="-274.5" font-family="FreeSans" font-size="10.00" fill="#000000">PJTranslator::process</text>
<text text-anchor="middle" x="451.5" y="-262.5" font-family="FreeSans" font-size="10.00" fill="#000000">_event</text>
</a>
</g>
</g>
<!-- Node11&#45;&gt;Node15 -->
<g id="edge18" class="edge">
<title>Node11&#45;&gt;Node15</title>
<path fill="none" stroke="#191970" d="M320.7155,-282.231C343.2784,-280.3797 368.5436,-278.3067 390.8077,-276.4799"/>
<polygon fill="#191970" stroke="#191970" points="320.2397,-278.7582 310.5594,-283.0644 320.8122,-285.7348 320.2397,-278.7582"/>
</g>
<!-- Node16 -->
<g id="node16" class="node">
<title>Node16</title>
<g id="a_node16"><a xlink:href="../../de/dcb/classClusterIso.html#a6aa03ee56ec17554e0603b71e741dfbd" target="_top" xlink:title="ClusterIso::process\l_event">
<polygon fill="none" stroke="#000000" points="395.5,-204.5 395.5,-236.5 507.5,-236.5 507.5,-204.5 395.5,-204.5"/>
<text text-anchor="start" x="403.5" y="-223.5" font-family="FreeSans" font-size="10.00" fill="#000000">ClusterIso::process</text>
<text text-anchor="middle" x="451.5" y="-211.5" font-family="FreeSans" font-size="10.00" fill="#000000">_event</text>
</a>
</g>
</g>
<!-- Node11&#45;&gt;Node16 -->
<g id="edge19" class="edge">
<title>Node11&#45;&gt;Node16</title>
<path fill="none" stroke="#191970" d="M320.2907,-268.1454C325.6308,-266.3117 330.9249,-264.4187 336,-262.5 352.3777,-256.3083 355.6578,-252.785 372,-246.5 380.9454,-243.0597 390.5625,-239.6651 399.9103,-236.5214"/>
<polygon fill="#191970" stroke="#191970" points="319.0334,-264.8754 310.6662,-271.3747 321.2602,-271.5118 319.0334,-264.8754"/>
</g>
<!-- Node17 -->
<g id="node17" class="node">
<title>Node17</title>
<g id="a_node17"><a xlink:href="../../d5/d98/classClusterJetInput.html#aaa06c7c9d5919cec36bebe981200e11a" target="_top" xlink:title="ClusterJetInput::get\l_input">
<polygon fill="none" stroke="#000000" points="394,-153.5 394,-185.5 509,-185.5 509,-153.5 394,-153.5"/>
<text text-anchor="start" x="402" y="-172.5" font-family="FreeSans" font-size="10.00" fill="#000000">ClusterJetInput::get</text>
<text text-anchor="middle" x="451.5" y="-160.5" font-family="FreeSans" font-size="10.00" fill="#000000">_input</text>
</a>
</g>
</g>
<!-- Node11&#45;&gt;Node17 -->
<g id="edge20" class="edge">
<title>Node11&#45;&gt;Node17</title>
<path fill="none" stroke="#191970" d="M319.9448,-272.6769C325.7015,-269.8535 331.1717,-266.4948 336,-262.5 362.0452,-240.9509 346.0781,-217.1973 372,-195.5 378.4586,-190.094 386.0714,-185.803 393.9839,-182.3993"/>
<polygon fill="#191970" stroke="#191970" points="318.4908,-269.4925 310.7139,-276.6877 321.2804,-275.9127 318.4908,-269.4925"/>
</g>
<!-- Node13 -->
<g id="node13" class="node">
<title>Node13</title>
<g id="a_node13"><a xlink:href="../../df/dda/classPHFlowJetMaker.html#af2305df14541877c06f00e5d29113bac" target="_top" xlink:title="PHFlowJetMaker::process\l_event">
<polygon fill="none" stroke="#000000" points="567,-345.5 567,-377.5 709,-377.5 709,-345.5 567,-345.5"/>
<text text-anchor="start" x="575" y="-364.5" font-family="FreeSans" font-size="10.00" fill="#000000">PHFlowJetMaker::process</text>
<text text-anchor="middle" x="638" y="-352.5" font-family="FreeSans" font-size="10.00" fill="#000000">_event</text>
</a>
</g>
</g>
<!-- Node12&#45;&gt;Node13 -->
<g id="edge15" class="edge">
<title>Node12&#45;&gt;Node13</title>
<path fill="none" stroke="#191970" d="M521.5905,-361.5C536.332,-361.5 551.8978,-361.5 566.6836,-361.5"/>
<polygon fill="#191970" stroke="#191970" points="521.5364,-358.0001 511.5364,-361.5 521.5363,-365.0001 521.5364,-358.0001"/>
</g>
<!-- Node20 -->
<g id="node20" class="node">
<title>Node20</title>
<g id="a_node20"><a xlink:href="../../db/dc4/classPHGenFitTrackProjection.html#a8f12e9c6ccc546498672eb6d45daef82" target="_top" xlink:title="PHGenFitTrackProjection\l::process_event">
<polygon fill="none" stroke="#000000" points="382.5,-102.5 382.5,-134.5 520.5,-134.5 520.5,-102.5 382.5,-102.5"/>
<text text-anchor="start" x="390.5" y="-121.5" font-family="FreeSans" font-size="10.00" fill="#000000">PHGenFitTrackProjection</text>
<text text-anchor="middle" x="451.5" y="-109.5" font-family="FreeSans" font-size="10.00" fill="#000000">::process_event</text>
</a>
</g>
</g>
<!-- Node19&#45;&gt;Node20 -->
<g id="edge23" class="edge">
<title>Node19&#45;&gt;Node20</title>
<path fill="none" stroke="#191970" d="M321.8618,-118.5C341.2824,-118.5 362.6184,-118.5 382.2758,-118.5"/>
<polygon fill="#191970" stroke="#191970" points="321.5973,-115.0001 311.5973,-118.5 321.5972,-122.0001 321.5973,-115.0001"/>
</g>
<!-- Node21 -->
<g id="node21" class="node">
<title>Node21</title>
<g id="a_node21"><a xlink:href="../../dd/d59/classCaloEvaluator.html#a5298ee9646d361a4960fc0e20f83c880" target="_top" xlink:title="dump the evaluator information into ntuple for external analysis">
<polygon fill="none" stroke="#000000" points="381,-51.5 381,-83.5 522,-83.5 522,-51.5 381,-51.5"/>
<text text-anchor="start" x="389" y="-70.5" font-family="FreeSans" font-size="10.00" fill="#000000">CaloEvaluator::fillOutput</text>
<text text-anchor="middle" x="451.5" y="-58.5" font-family="FreeSans" font-size="10.00" fill="#000000">Ntuples</text>
</a>
</g>
</g>
<!-- Node19&#45;&gt;Node21 -->
<g id="edge24" class="edge">
<title>Node19&#45;&gt;Node21</title>
<path fill="none" stroke="#191970" d="M321.5494,-101.4871C343.6355,-95.7107 368.2292,-89.2785 390.0272,-83.5775"/>
<polygon fill="#191970" stroke="#191970" points="320.3862,-98.1735 311.5973,-104.0899 322.1575,-104.9457 320.3862,-98.1735"/>
</g>
<!-- Node22 -->
<g id="node22" class="node">
<title>Node22</title>
<g id="a_node22"><a xlink:href="../../dd/d59/classCaloEvaluator.html#a936967e98c89ec58e7851b0661b838c0" target="_top" xlink:title="CaloEvaluator::process\l_event">
<polygon fill="none" stroke="#000000" points="572,-51.5 572,-83.5 704,-83.5 704,-51.5 572,-51.5"/>
<text text-anchor="start" x="580" y="-70.5" font-family="FreeSans" font-size="10.00" fill="#000000">CaloEvaluator::process</text>
<text text-anchor="middle" x="638" y="-58.5" font-family="FreeSans" font-size="10.00" fill="#000000">_event</text>
</a>
</g>
</g>
<!-- Node21&#45;&gt;Node22 -->
<g id="edge25" class="edge">
<title>Node21&#45;&gt;Node22</title>
<path fill="none" stroke="#191970" d="M532.0433,-67.5C545.2792,-67.5 558.8631,-67.5 571.7014,-67.5"/>
<polygon fill="#191970" stroke="#191970" points="532.0077,-64.0001 522.0077,-67.5 532.0076,-71.0001 532.0077,-64.0001"/>
</g>
<!-- Node24 -->
<g id="node24" class="node">
<title>Node24</title>
<g id="a_node24"><a xlink:href="../../d9/d7b/classQAG4SimulationCalorimeter.html#aa3467829c4182ba4e09f74fd8198cb28" target="_top" xlink:title="QAG4SimulationCalorimeter\l::process_event">
<polygon fill="none" stroke="#000000" points="372,-.5 372,-32.5 531,-32.5 531,-.5 372,-.5"/>
<text text-anchor="start" x="380" y="-19.5" font-family="FreeSans" font-size="10.00" fill="#000000">QAG4SimulationCalorimeter</text>
<text text-anchor="middle" x="451.5" y="-7.5" font-family="FreeSans" font-size="10.00" fill="#000000">::process_event</text>
</a>
</g>
</g>
<!-- Node23&#45;&gt;Node24 -->
<g id="edge27" class="edge">
<title>Node23&#45;&gt;Node24</title>
<path fill="none" stroke="#191970" d="M346.117,-30.5511C354.6999,-29.4067 363.3647,-28.2514 371.8432,-27.1209"/>
<polygon fill="#191970" stroke="#191970" points="345.5449,-27.0963 336.0952,-31.8873 346.4701,-34.0349 345.5449,-27.0963"/>
</g>
</g>
</svg>
