<?xml version="1.0" encoding="UTF-8" standalone="no"?>
<!DOCTYPE svg PUBLIC "-//W3C//DTD SVG 1.1//EN"
 "http://www.w3.org/Graphics/SVG/1.1/DTD/svg11.dtd">
<!-- Generated by graphviz version 2.40.1 (20161225.0304)
 -->
<!-- Title: CopyAndSubtractJets::SetFlowModulation Pages: 1 -->
<svg width="434pt" height="413pt"
 viewBox="0.00 0.00 434.00 413.00" xmlns="http://www.w3.org/2000/svg" xmlns:xlink="http://www.w3.org/1999/xlink">
<g id="graph0" class="graph" transform="scale(1 1) rotate(0) translate(4 409)">
<title>CopyAndSubtractJets::SetFlowModulation</title>
<!-- Node1 -->
<g id="node1" class="node">
<title>Node1</title>
<polygon fill="#bfbfbf" stroke="#000000" points="0,-186.5 0,-218.5 123,-218.5 123,-186.5 0,-186.5"/>
<text text-anchor="start" x="8" y="-205.5" font-family="FreeSans" font-size="10.00" fill="#000000">CopyAndSubtractJets</text>
<text text-anchor="middle" x="61.5" y="-193.5" font-family="FreeSans" font-size="10.00" fill="#000000">::SetFlowModulation</text>
</g>
<!-- Node2 -->
<g id="node2" class="node">
<title>Node2</title>
<g id="a_node2"><a xlink:href="../../de/da2/macros_2blob_2master_2macros_2g4simulations_2G4__HIJetReco_8C.html#a9cf9382ceffe61f139e2b7ebb82609bc" target="_top" xlink:title="HIJetReco">
<polygon fill="none" stroke="#000000" points="159,-192.5 159,-212.5 223,-212.5 223,-192.5 159,-192.5"/>
<text text-anchor="middle" x="191" y="-199.5" font-family="FreeSans" font-size="10.00" fill="#000000">HIJetReco</text>
</a>
</g>
</g>
<!-- Node1&#45;&gt;Node2 -->
<g id="edge1" class="edge">
<title>Node1&#45;&gt;Node2</title>
<path fill="none" stroke="#191970" d="M133.3654,-202.5C142.3187,-202.5 151.0884,-202.5 158.9784,-202.5"/>
<polygon fill="#191970" stroke="#191970" points="133.2159,-199.0001 123.2158,-202.5 133.2158,-206.0001 133.2159,-199.0001"/>
</g>
<!-- Node3 -->
<g id="node3" class="node">
<title>Node3</title>
<g id="a_node3"><a xlink:href="../../da/d02/Fun4All__G4__EICDetector_8C.html#afbe82cefa1d1fd031d9a8586b7bb68c6" target="_top" xlink:title="Fun4All_G4_EICDetector">
<polygon fill="none" stroke="#000000" points="273,-384.5 273,-404.5 412,-404.5 412,-384.5 273,-384.5"/>
<text text-anchor="middle" x="342.5" y="-391.5" font-family="FreeSans" font-size="10.00" fill="#000000">Fun4All_G4_EICDetector</text>
</a>
</g>
</g>
<!-- Node2&#45;&gt;Node3 -->
<g id="edge2" class="edge">
<title>Node2&#45;&gt;Node3</title>
<path fill="none" stroke="#191970" d="M192.9282,-222.8708C197.5046,-259.2801 212.4041,-335.4487 259,-375.5 263.1716,-379.0857 267.8816,-382.0317 272.8872,-384.4482"/>
<polygon fill="#191970" stroke="#191970" points="196.3634,-222.094 191.778,-212.5429 189.4064,-222.8689 196.3634,-222.094"/>
</g>
<!-- Node4 -->
<g id="node4" class="node">
<title>Node4</title>
<g id="a_node4"><a xlink:href="../../df/d4b/Fun4All__G4__EICDetector__LQ__analysis_8C.html#af903e98824d083a08b353ac15996ee0e" target="_top" xlink:title="Fun4All_G4_EICDetector\l_LQ_analysis">
<polygon fill="none" stroke="#000000" points="273,-333.5 273,-365.5 412,-365.5 412,-333.5 273,-333.5"/>
<text text-anchor="start" x="281" y="-352.5" font-family="FreeSans" font-size="10.00" fill="#000000">Fun4All_G4_EICDetector</text>
<text text-anchor="middle" x="342.5" y="-340.5" font-family="FreeSans" font-size="10.00" fill="#000000">_LQ_analysis</text>
</a>
</g>
</g>
<!-- Node2&#45;&gt;Node4 -->
<g id="edge3" class="edge">
<title>Node2&#45;&gt;Node4</title>
<path fill="none" stroke="#191970" d="M196.8022,-222.3019C205.7402,-249.3505 225.4512,-297.5581 259,-324.5 263.2475,-327.911 267.9517,-330.8571 272.9001,-333.4015"/>
<polygon fill="#191970" stroke="#191970" points="200.138,-221.242 193.8052,-212.7481 193.4589,-223.3373 200.138,-221.242"/>
</g>
<!-- Node5 -->
<g id="node5" class="node">
<title>Node5</title>
<g id="a_node5"><a xlink:href="../../d1/daf/Fun4All__G4__EICDetector__LQ__analysis__nf_8C.html#a5022607d21247b87dd208b0828905147" target="_top" xlink:title="Fun4All_G4_EICDetector\l_LQ_analysis_nf">
<polygon fill="none" stroke="#000000" points="273,-282.5 273,-314.5 412,-314.5 412,-282.5 273,-282.5"/>
<text text-anchor="start" x="281" y="-301.5" font-family="FreeSans" font-size="10.00" fill="#000000">Fun4All_G4_EICDetector</text>
<text text-anchor="middle" x="342.5" y="-289.5" font-family="FreeSans" font-size="10.00" fill="#000000">_LQ_analysis_nf</text>
</a>
</g>
</g>
<!-- Node2&#45;&gt;Node5 -->
<g id="edge4" class="edge">
<title>Node2&#45;&gt;Node5</title>
<path fill="none" stroke="#191970" d="M204.006,-220.6735C216.4185,-236.7568 236.5182,-259.749 259,-273.5 264.5509,-276.8952 270.5928,-279.8552 276.8043,-282.4303"/>
<polygon fill="#191970" stroke="#191970" points="206.7254,-218.4656 197.9347,-212.5517 201.1188,-222.6568 206.7254,-218.4656"/>
</g>
<!-- Node6 -->
<g id="node6" class="node">
<title>Node6</title>
<g id="a_node6"><a xlink:href="../../d4/df5/Fun4All__G4__EICDetector__LQ__reference_8C.html#a2feefc472f17f90b3cbe74897d049f75" target="_top" xlink:title="Fun4All_G4_EICDetector\l_LQ_reference">
<polygon fill="none" stroke="#000000" points="273,-231.5 273,-263.5 412,-263.5 412,-231.5 273,-231.5"/>
<text text-anchor="start" x="281" y="-250.5" font-family="FreeSans" font-size="10.00" fill="#000000">Fun4All_G4_EICDetector</text>
<text text-anchor="middle" x="342.5" y="-238.5" font-family="FreeSans" font-size="10.00" fill="#000000">_LQ_reference</text>
</a>
</g>
</g>
<!-- Node2&#45;&gt;Node6 -->
<g id="edge5" class="edge">
<title>Node2&#45;&gt;Node6</title>
<path fill="none" stroke="#191970" d="M232.8584,-214.9332C250.0171,-220.0298 270.0984,-225.9946 288.3532,-231.4168"/>
<polygon fill="#191970" stroke="#191970" points="233.7119,-211.5356 223.1293,-212.0433 231.7187,-218.2459 233.7119,-211.5356"/>
</g>
<!-- Node7 -->
<g id="node7" class="node">
<title>Node7</title>
<g id="a_node7"><a xlink:href="../../d3/d51/Fun4All__G4__EICDetector__RICH_8C.html#a5739502b0a7a1ba782c01069f77e933f" target="_top" xlink:title="Fun4All_G4_EICDetector_RICH">
<polygon fill="none" stroke="#000000" points="259,-192.5 259,-212.5 426,-212.5 426,-192.5 259,-192.5"/>
<text text-anchor="middle" x="342.5" y="-199.5" font-family="FreeSans" font-size="10.00" fill="#000000">Fun4All_G4_EICDetector_RICH</text>
</a>
</g>
</g>
<!-- Node2&#45;&gt;Node7 -->
<g id="edge6" class="edge">
<title>Node2&#45;&gt;Node7</title>
<path fill="none" stroke="#191970" d="M233.3425,-202.5C241.4207,-202.5 250.1328,-202.5 258.9879,-202.5"/>
<polygon fill="#191970" stroke="#191970" points="233.1293,-199.0001 223.1293,-202.5 233.1292,-206.0001 233.1293,-199.0001"/>
</g>
<!-- Node8 -->
<g id="node8" class="node">
<title>Node8</title>
<g id="a_node8"><a xlink:href="../../d5/d2c/macros_2blob_2master_2macros_2g4simulations_2Fun4All__G4__sPHENIX_8C.html#a6eaaa492d7023ec86c562dc63aa1e5a4" target="_top" xlink:title="Fun4All_G4_sPHENIX">
<polygon fill="none" stroke="#000000" points="282,-153.5 282,-173.5 403,-173.5 403,-153.5 282,-153.5"/>
<text text-anchor="middle" x="342.5" y="-160.5" font-family="FreeSans" font-size="10.00" fill="#000000">Fun4All_G4_sPHENIX</text>
</a>
</g>
</g>
<!-- Node2&#45;&gt;Node8 -->
<g id="edge7" class="edge">
<title>Node2&#45;&gt;Node8</title>
<path fill="none" stroke="#191970" d="M232.9548,-190.5127C241.5543,-188.1302 250.5572,-185.6898 259,-183.5 271.9862,-180.1318 286.1618,-176.6599 299.0854,-173.5736"/>
<polygon fill="#191970" stroke="#191970" points="231.7927,-187.2032 223.1029,-193.2644 233.6759,-193.9452 231.7927,-187.2032"/>
</g>
<!-- Node9 -->
<g id="node9" class="node">
<title>Node9</title>
<g id="a_node9"><a xlink:href="../../da/dd0/Fun4All__G4__sPHENIX__photonjet_8C.html#a6f18519e216acc05399e562ea57ea77c" target="_top" xlink:title="Fun4All_G4_sPHENIX\l_photonjet">
<polygon fill="none" stroke="#000000" points="282,-102.5 282,-134.5 403,-134.5 403,-102.5 282,-102.5"/>
<text text-anchor="start" x="290" y="-121.5" font-family="FreeSans" font-size="10.00" fill="#000000">Fun4All_G4_sPHENIX</text>
<text text-anchor="middle" x="342.5" y="-109.5" font-family="FreeSans" font-size="10.00" fill="#000000">_photonjet</text>
</a>
</g>
</g>
<!-- Node2&#45;&gt;Node9 -->
<g id="edge8" class="edge">
<title>Node2&#45;&gt;Node9</title>
<path fill="none" stroke="#191970" d="M207.3982,-185.1307C220.3399,-172.316 239.422,-155.2982 259,-144.5 266.1793,-140.5403 274.0451,-137.0942 281.9884,-134.1213"/>
<polygon fill="#191970" stroke="#191970" points="204.6958,-182.8871 200.1841,-192.4733 209.6891,-187.793 204.6958,-182.8871"/>
</g>
<!-- Node10 -->
<g id="node10" class="node">
<title>Node10</title>
<g id="a_node10"><a xlink:href="../../da/d85/Fun4All__G4__sPHENIX__photons_8C.html#a02fbbd59878fe1299f58ed187e7214ba" target="_top" xlink:title="Fun4All_G4_sPHENIX\l_photons">
<polygon fill="none" stroke="#000000" points="282,-51.5 282,-83.5 403,-83.5 403,-51.5 282,-51.5"/>
<text text-anchor="start" x="290" y="-70.5" font-family="FreeSans" font-size="10.00" fill="#000000">Fun4All_G4_sPHENIX</text>
<text text-anchor="middle" x="342.5" y="-58.5" font-family="FreeSans" font-size="10.00" fill="#000000">_photons</text>
</a>
</g>
</g>
<!-- Node2&#45;&gt;Node10 -->
<g id="edge9" class="edge">
<title>Node2&#45;&gt;Node10</title>
<path fill="none" stroke="#191970" d="M198.2678,-182.77C208.2634,-158.3173 228.5492,-117.0084 259,-93.5 265.8504,-88.2114 273.7898,-83.9889 281.9937,-80.6199"/>
<polygon fill="#191970" stroke="#191970" points="194.8824,-181.8178 194.5067,-192.406 201.4032,-184.363 194.8824,-181.8178"/>
</g>
<!-- Node11 -->
<g id="node11" class="node">
<title>Node11</title>
<g id="a_node11"><a xlink:href="../../de/d55/Fun4All__G4__sPHENIX__truthphotonjet_8C.html#a48a6f4503eaa1b3793d8ae572aa795b9" target="_top" xlink:title="Fun4All_G4_sPHENIX\l_truthphotonjet">
<polygon fill="none" stroke="#000000" points="282,-.5 282,-32.5 403,-32.5 403,-.5 282,-.5"/>
<text text-anchor="start" x="290" y="-19.5" font-family="FreeSans" font-size="10.00" fill="#000000">Fun4All_G4_sPHENIX</text>
<text text-anchor="middle" x="342.5" y="-7.5" font-family="FreeSans" font-size="10.00" fill="#000000">_truthphotonjet</text>
</a>
</g>
</g>
<!-- Node2&#45;&gt;Node11 -->
<g id="edge10" class="edge">
<title>Node2&#45;&gt;Node11</title>
<path fill="none" stroke="#191970" d="M194.0474,-182.0796C200.1766,-148.1944 217.1732,-80.3398 259,-42.5 265.5304,-36.5921 273.3877,-32.0267 281.6357,-28.4986"/>
<polygon fill="#191970" stroke="#191970" points="190.5563,-181.7372 192.3653,-192.1764 197.4611,-182.8876 190.5563,-181.7372"/>
</g>
</g>
</svg>
