<?xml version="1.0" encoding="UTF-8" standalone="no"?>
<!DOCTYPE svg PUBLIC "-//W3C//DTD SVG 1.1//EN"
 "http://www.w3.org/Graphics/SVG/1.1/DTD/svg11.dtd">
<!-- Generated by graphviz version 2.40.1 (20161225.0304)
 -->
<!-- Title: coresoftware/blob/master/simulation/g4simulation/g4main/PHG4ParticleGenerator.h Pages: 1 -->
<svg width="2244pt" height="134pt"
 viewBox="0.00 0.00 2243.50 134.00" xmlns="http://www.w3.org/2000/svg" xmlns:xlink="http://www.w3.org/1999/xlink">
<g id="graph0" class="graph" transform="scale(1 1) rotate(0) translate(4 130)">
<title>coresoftware/blob/master/simulation/g4simulation/g4main/PHG4ParticleGenerator.h</title>
<!-- Node1 -->
<g id="node1" class="node">
<title>Node1</title>
<polygon fill="#bfbfbf" stroke="#000000" points="997.5,-81.5 997.5,-125.5 1184.5,-125.5 1184.5,-81.5 997.5,-81.5"/>
<text text-anchor="start" x="1005.5" y="-112.5" font-family="FreeSans" font-size="10.00" fill="#000000">coresoftware/blob/master</text>
<text text-anchor="start" x="1005.5" y="-100.5" font-family="FreeSans" font-size="10.00" fill="#000000">/simulation/g4simulation</text>
<text text-anchor="middle" x="1091" y="-88.5" font-family="FreeSans" font-size="10.00" fill="#000000">/g4main/PHG4ParticleGenerator.h</text>
</g>
<!-- Node2 -->
<g id="node2" class="node">
<title>Node2</title>
<g id="a_node2"><a xlink:href="../../d6/d6b/PHG4ParticleGenerator_8cc.html" target="_top" xlink:title="coresoftware/blob/master\l/simulation/g4simulation\l/g4main/PHG4ParticleGenerator.cc">
<polygon fill="none" stroke="#000000" points="0,-.5 0,-44.5 192,-44.5 192,-.5 0,-.5"/>
<text text-anchor="start" x="8" y="-31.5" font-family="FreeSans" font-size="10.00" fill="#000000">coresoftware/blob/master</text>
<text text-anchor="start" x="8" y="-19.5" font-family="FreeSans" font-size="10.00" fill="#000000">/simulation/g4simulation</text>
<text text-anchor="middle" x="96" y="-7.5" font-family="FreeSans" font-size="10.00" fill="#000000">/g4main/PHG4ParticleGenerator.cc</text>
</a>
</g>
</g>
<!-- Node1&#45;&gt;Node2 -->
<g id="edge1" class="edge">
<title>Node1&#45;&gt;Node2</title>
<path fill="none" stroke="#191970" d="M987.0907,-101.5643C820.4867,-97.3635 483.6055,-84.3541 201,-45 198.0456,-44.5886 195.0504,-44.1407 192.031,-43.6625"/>
<polygon fill="#191970" stroke="#191970" points="987.2461,-105.0691 997.3294,-101.8167 987.4187,-98.0712 987.2461,-105.0691"/>
</g>
<!-- Node3 -->
<g id="node3" class="node">
<title>Node3</title>
<g id="a_node3"><a xlink:href="../../da/d02/Fun4All__G4__EICDetector_8C.html" target="_top" xlink:title="macros/blob/master\l/macros/g4simulations\l/Fun4All_G4_EICDetector.C">
<polygon fill="none" stroke="#000000" points="210,-.5 210,-44.5 362,-44.5 362,-.5 210,-.5"/>
<text text-anchor="start" x="218" y="-31.5" font-family="FreeSans" font-size="10.00" fill="#000000">macros/blob/master</text>
<text text-anchor="start" x="218" y="-19.5" font-family="FreeSans" font-size="10.00" fill="#000000">/macros/g4simulations</text>
<text text-anchor="middle" x="286" y="-7.5" font-family="FreeSans" font-size="10.00" fill="#000000">/Fun4All_G4_EICDetector.C</text>
</a>
</g>
</g>
<!-- Node1&#45;&gt;Node3 -->
<g id="edge2" class="edge">
<title>Node1&#45;&gt;Node3</title>
<path fill="none" stroke="#191970" d="M987.0885,-100.8444C846.4775,-95.9366 588.2092,-82.2679 371,-45 368.1414,-44.5095 365.2389,-43.9679 362.3147,-43.3855"/>
<polygon fill="#191970" stroke="#191970" points="987.3079,-104.3538 997.4214,-101.1966 987.5465,-97.3578 987.3079,-104.3538"/>
</g>
<!-- Node4 -->
<g id="node4" class="node">
<title>Node4</title>
<g id="a_node4"><a xlink:href="../../d7/d9e/Fun4All__G4__fsPHENIX_8C.html" target="_top" xlink:title="macros/blob/master\l/macros/g4simulations\l/Fun4All_G4_fsPHENIX.C">
<polygon fill="none" stroke="#000000" points="380.5,-.5 380.5,-44.5 519.5,-44.5 519.5,-.5 380.5,-.5"/>
<text text-anchor="start" x="388.5" y="-31.5" font-family="FreeSans" font-size="10.00" fill="#000000">macros/blob/master</text>
<text text-anchor="start" x="388.5" y="-19.5" font-family="FreeSans" font-size="10.00" fill="#000000">/macros/g4simulations</text>
<text text-anchor="middle" x="450" y="-7.5" font-family="FreeSans" font-size="10.00" fill="#000000">/Fun4All_G4_fsPHENIX.C</text>
</a>
</g>
</g>
<!-- Node1&#45;&gt;Node4 -->
<g id="edge3" class="edge">
<title>Node1&#45;&gt;Node4</title>
<path fill="none" stroke="#191970" d="M987.0245,-98.2289C873.421,-91.1881 686.4757,-75.8376 528,-45 525.2331,-44.4616 522.4225,-43.87 519.5919,-43.2368"/>
<polygon fill="#191970" stroke="#191970" points="986.9128,-101.7285 997.1073,-98.8439 987.339,-94.7415 986.9128,-101.7285"/>
</g>
<!-- Node5 -->
<g id="node5" class="node">
<title>Node5</title>
<g id="a_node5"><a xlink:href="../../d5/d2c/macros_2blob_2master_2macros_2g4simulations_2Fun4All__G4__sPHENIX_8C.html" target="_top" xlink:title="macros/blob/master\l/macros/g4simulations\l/Fun4All_G4_sPHENIX.C">
<polygon fill="none" stroke="#000000" points="537.5,-.5 537.5,-44.5 672.5,-44.5 672.5,-.5 537.5,-.5"/>
<text text-anchor="start" x="545.5" y="-31.5" font-family="FreeSans" font-size="10.00" fill="#000000">macros/blob/master</text>
<text text-anchor="start" x="545.5" y="-19.5" font-family="FreeSans" font-size="10.00" fill="#000000">/macros/g4simulations</text>
<text text-anchor="middle" x="605" y="-7.5" font-family="FreeSans" font-size="10.00" fill="#000000">/Fun4All_G4_sPHENIX.C</text>
</a>
</g>
</g>
<!-- Node1&#45;&gt;Node5 -->
<g id="edge4" class="edge">
<title>Node1&#45;&gt;Node5</title>
<path fill="none" stroke="#191970" d="M987.5127,-92.9711C904.1644,-83.4772 784.2831,-67.5305 681,-45 678.3111,-44.4134 675.5785,-43.7812 672.8254,-43.114"/>
<polygon fill="#191970" stroke="#191970" points="987.1631,-96.4538 997.4924,-94.0969 987.9478,-89.4979 987.1631,-96.4538"/>
</g>
<!-- Node6 -->
<g id="node6" class="node">
<title>Node6</title>
<g id="a_node6"><a xlink:href="../../de/da9/ReadClustersRunTracking_8C.html" target="_top" xlink:title="macros/blob/master\l/macros/g4simulations\l/ReadClustersRunTracking.C">
<polygon fill="none" stroke="#000000" points="690.5,-.5 690.5,-44.5 849.5,-44.5 849.5,-.5 690.5,-.5"/>
<text text-anchor="start" x="698.5" y="-31.5" font-family="FreeSans" font-size="10.00" fill="#000000">macros/blob/master</text>
<text text-anchor="start" x="698.5" y="-19.5" font-family="FreeSans" font-size="10.00" fill="#000000">/macros/g4simulations</text>
<text text-anchor="middle" x="770" y="-7.5" font-family="FreeSans" font-size="10.00" fill="#000000">/ReadClustersRunTracking.C</text>
</a>
</g>
</g>
<!-- Node1&#45;&gt;Node6 -->
<g id="edge5" class="edge">
<title>Node1&#45;&gt;Node6</title>
<path fill="none" stroke="#191970" d="M992.8827,-78.9656C951.2738,-68.5352 902.2594,-56.2143 858,-45 855.2485,-44.3028 852.4488,-43.5925 849.6214,-42.8742"/>
<polygon fill="#191970" stroke="#191970" points="992.19,-82.4002 1002.7409,-81.4362 993.8917,-75.6101 992.19,-82.4002"/>
</g>
<!-- Node7 -->
<g id="node7" class="node">
<title>Node7</title>
<g id="a_node7"><a xlink:href="../../d2/dee/Fun4All__G4__Cylinder_8C.html" target="_top" xlink:title="tutorials/blob/master\l/cylinder/Fun4All_G4\l_Cylinder.C">
<polygon fill="none" stroke="#000000" points="867.5,-.5 867.5,-44.5 990.5,-44.5 990.5,-.5 867.5,-.5"/>
<text text-anchor="start" x="875.5" y="-31.5" font-family="FreeSans" font-size="10.00" fill="#000000">tutorials/blob/master</text>
<text text-anchor="start" x="875.5" y="-19.5" font-family="FreeSans" font-size="10.00" fill="#000000">/cylinder/Fun4All_G4</text>
<text text-anchor="middle" x="929" y="-7.5" font-family="FreeSans" font-size="10.00" fill="#000000">_Cylinder.C</text>
</a>
</g>
</g>
<!-- Node1&#45;&gt;Node7 -->
<g id="edge6" class="edge">
<title>Node1&#45;&gt;Node7</title>
<path fill="none" stroke="#191970" d="M1037.6674,-76.8337C1016.787,-66.3935 993.1188,-54.5594 973.2137,-44.6068"/>
<polygon fill="#191970" stroke="#191970" points="1036.2232,-80.0247 1046.7328,-81.3664 1039.3538,-73.7637 1036.2232,-80.0247"/>
</g>
<!-- Node8 -->
<g id="node8" class="node">
<title>Node8</title>
<g id="a_node8"><a xlink:href="../../d4/dfa/Fun4All__Generator__Display_8C.html" target="_top" xlink:title="tutorials/blob/master\l/eventgenerator_display\l/Fun4All_Generator_Display.C">
<polygon fill="none" stroke="#000000" points="1008.5,-.5 1008.5,-44.5 1173.5,-44.5 1173.5,-.5 1008.5,-.5"/>
<text text-anchor="start" x="1016.5" y="-31.5" font-family="FreeSans" font-size="10.00" fill="#000000">tutorials/blob/master</text>
<text text-anchor="start" x="1016.5" y="-19.5" font-family="FreeSans" font-size="10.00" fill="#000000">/eventgenerator_display</text>
<text text-anchor="middle" x="1091" y="-7.5" font-family="FreeSans" font-size="10.00" fill="#000000">/Fun4All_Generator_Display.C</text>
</a>
</g>
</g>
<!-- Node1&#45;&gt;Node8 -->
<g id="edge7" class="edge">
<title>Node1&#45;&gt;Node8</title>
<path fill="none" stroke="#191970" d="M1091,-71.2457C1091,-62.3118 1091,-52.8188 1091,-44.6068"/>
<polygon fill="#191970" stroke="#191970" points="1087.5001,-71.3664 1091,-81.3664 1094.5001,-71.3664 1087.5001,-71.3664"/>
</g>
<!-- Node9 -->
<g id="node9" class="node">
<title>Node9</title>
<g id="a_node9"><a xlink:href="../../d9/d8f/Fun4All__G4__Momentum_8C.html" target="_top" xlink:title="tutorials/blob/master\l/Momentum/Fun4All_G4\l_Momentum.C">
<polygon fill="none" stroke="#000000" points="1192,-.5 1192,-44.5 1330,-44.5 1330,-.5 1192,-.5"/>
<text text-anchor="start" x="1200" y="-31.5" font-family="FreeSans" font-size="10.00" fill="#000000">tutorials/blob/master</text>
<text text-anchor="start" x="1200" y="-19.5" font-family="FreeSans" font-size="10.00" fill="#000000">/Momentum/Fun4All_G4</text>
<text text-anchor="middle" x="1261" y="-7.5" font-family="FreeSans" font-size="10.00" fill="#000000">_Momentum.C</text>
</a>
</g>
</g>
<!-- Node1&#45;&gt;Node9 -->
<g id="edge8" class="edge">
<title>Node1&#45;&gt;Node9</title>
<path fill="none" stroke="#191970" d="M1146.6717,-76.9741C1168.655,-66.4997 1193.6212,-54.604 1214.6029,-44.6068"/>
<polygon fill="#191970" stroke="#191970" points="1144.9754,-73.9053 1137.4532,-81.3664 1147.9864,-80.2246 1144.9754,-73.9053"/>
</g>
<!-- Node10 -->
<g id="node10" class="node">
<title>Node10</title>
<g id="a_node10"><a xlink:href="../../d7/d40/Fun4All__G4__Prototype3_8C.html" target="_top" xlink:title="prototype/blob/master\l/macros/prototype3/Fun4All\l_G4_Prototype3.C">
<polygon fill="none" stroke="#000000" points="1348.5,-.5 1348.5,-44.5 1505.5,-44.5 1505.5,-.5 1348.5,-.5"/>
<text text-anchor="start" x="1356.5" y="-31.5" font-family="FreeSans" font-size="10.00" fill="#000000">prototype/blob/master</text>
<text text-anchor="start" x="1356.5" y="-19.5" font-family="FreeSans" font-size="10.00" fill="#000000">/macros/prototype3/Fun4All</text>
<text text-anchor="middle" x="1427" y="-7.5" font-family="FreeSans" font-size="10.00" fill="#000000">_G4_Prototype3.C</text>
</a>
</g>
</g>
<!-- Node1&#45;&gt;Node10 -->
<g id="edge9" class="edge">
<title>Node1&#45;&gt;Node10</title>
<path fill="none" stroke="#191970" d="M1194.6706,-79.5004C1239.1513,-69.0855 1291.6731,-56.6312 1339,-45 1342.0627,-44.2473 1345.184,-43.4749 1348.336,-42.6904"/>
<polygon fill="#191970" stroke="#191970" points="1193.6621,-76.1417 1184.722,-81.8272 1195.2564,-82.9578 1193.6621,-76.1417"/>
</g>
<!-- Node11 -->
<g id="node11" class="node">
<title>Node11</title>
<g id="a_node11"><a xlink:href="../../d4/d58/Fun4All__G4__Prototype4_8C.html" target="_top" xlink:title="prototype/blob/master\l/macros/prototype4/Fun4All\l_G4_Prototype4.C">
<polygon fill="none" stroke="#000000" points="1523.5,-.5 1523.5,-44.5 1680.5,-44.5 1680.5,-.5 1523.5,-.5"/>
<text text-anchor="start" x="1531.5" y="-31.5" font-family="FreeSans" font-size="10.00" fill="#000000">prototype/blob/master</text>
<text text-anchor="start" x="1531.5" y="-19.5" font-family="FreeSans" font-size="10.00" fill="#000000">/macros/prototype4/Fun4All</text>
<text text-anchor="middle" x="1602" y="-7.5" font-family="FreeSans" font-size="10.00" fill="#000000">_G4_Prototype4.C</text>
</a>
</g>
</g>
<!-- Node1&#45;&gt;Node11 -->
<g id="edge10" class="edge">
<title>Node1&#45;&gt;Node11</title>
<path fill="none" stroke="#191970" d="M1194.6192,-92.604C1280.8095,-82.7283 1406.4856,-66.4429 1515,-45 1517.7549,-44.4556 1520.5526,-43.8765 1523.3733,-43.2704"/>
<polygon fill="#191970" stroke="#191970" points="1194.111,-89.1391 1184.5706,-93.7468 1194.9021,-96.0943 1194.111,-89.1391"/>
</g>
<!-- Node12 -->
<g id="node12" class="node">
<title>Node12</title>
<g id="a_node12"><a xlink:href="../../db/d89/ConstructGeometry_8C.html" target="_top" xlink:title="prototype/blob/master\l/macros/tpc2019/ConstructGeometry.C">
<polygon fill="none" stroke="#000000" points="1699,-6.5 1699,-38.5 1913,-38.5 1913,-6.5 1699,-6.5"/>
<text text-anchor="start" x="1707" y="-25.5" font-family="FreeSans" font-size="10.00" fill="#000000">prototype/blob/master</text>
<text text-anchor="middle" x="1806" y="-13.5" font-family="FreeSans" font-size="10.00" fill="#000000">/macros/tpc2019/ConstructGeometry.C</text>
</a>
</g>
</g>
<!-- Node1&#45;&gt;Node12 -->
<g id="edge11" class="edge">
<title>Node1&#45;&gt;Node12</title>
<path fill="none" stroke="#191970" d="M1194.966,-96.3342C1314.7175,-87.3888 1517.1899,-70.1411 1690,-45 1702.5863,-43.1689 1715.8801,-40.905 1728.8004,-38.5253"/>
<polygon fill="#191970" stroke="#191970" points="1194.4224,-92.8648 1184.7088,-97.0952 1194.9404,-99.8456 1194.4224,-92.8648"/>
</g>
<!-- Node13 -->
<g id="node13" class="node">
<title>Node13</title>
<g id="a_node13"><a xlink:href="../../db/da1/Fun4All__G4__TPC_8C.html" target="_top" xlink:title="prototype/blob/master\l/macros/tpc2019/Fun4All\l_G4_TPC.C">
<polygon fill="none" stroke="#000000" points="1931.5,-.5 1931.5,-44.5 2074.5,-44.5 2074.5,-.5 1931.5,-.5"/>
<text text-anchor="start" x="1939.5" y="-31.5" font-family="FreeSans" font-size="10.00" fill="#000000">prototype/blob/master</text>
<text text-anchor="start" x="1939.5" y="-19.5" font-family="FreeSans" font-size="10.00" fill="#000000">/macros/tpc2019/Fun4All</text>
<text text-anchor="middle" x="2003" y="-7.5" font-family="FreeSans" font-size="10.00" fill="#000000">_G4_TPC.C</text>
</a>
</g>
</g>
<!-- Node1&#45;&gt;Node13 -->
<g id="edge12" class="edge">
<title>Node1&#45;&gt;Node13</title>
<path fill="none" stroke="#191970" d="M1194.6335,-98.8059C1385.3746,-89.7341 1785.0404,-68.5966 1922,-45 1925.0204,-44.4796 1928.0904,-43.8932 1931.1814,-43.2551"/>
<polygon fill="#191970" stroke="#191970" points="1194.4214,-95.3119 1184.5983,-99.2812 1194.7527,-102.3041 1194.4214,-95.3119"/>
</g>
<!-- Node14 -->
<g id="node14" class="node">
<title>Node14</title>
<g id="a_node14"><a xlink:href="../../df/d20/Fun4All__TestBeam__TPC_8C.html" target="_top" xlink:title="prototype/blob/master\l/macros/tpc2019/Fun4All\l_TestBeam_TPC.C">
<polygon fill="none" stroke="#000000" points="2092.5,-.5 2092.5,-44.5 2235.5,-44.5 2235.5,-.5 2092.5,-.5"/>
<text text-anchor="start" x="2100.5" y="-31.5" font-family="FreeSans" font-size="10.00" fill="#000000">prototype/blob/master</text>
<text text-anchor="start" x="2100.5" y="-19.5" font-family="FreeSans" font-size="10.00" fill="#000000">/macros/tpc2019/Fun4All</text>
<text text-anchor="middle" x="2164" y="-7.5" font-family="FreeSans" font-size="10.00" fill="#000000">_TestBeam_TPC.C</text>
</a>
</g>
</g>
<!-- Node1&#45;&gt;Node14 -->
<g id="edge13" class="edge">
<title>Node1&#45;&gt;Node14</title>
<path fill="none" stroke="#191970" d="M1194.9122,-100.2137C1413.6726,-92.8312 1915.4117,-73.3333 2084,-45 2086.7034,-44.5457 2089.4461,-44.0348 2092.2075,-43.4784"/>
<polygon fill="#191970" stroke="#191970" points="1194.5883,-96.7225 1184.7114,-100.556 1194.8232,-103.7185 1194.5883,-96.7225"/>
</g>
</g>
</svg>
