<?xml version="1.0" encoding="UTF-8" standalone="no"?>
<!DOCTYPE svg PUBLIC "-//W3C//DTD SVG 1.1//EN"
 "http://www.w3.org/Graphics/SVG/1.1/DTD/svg11.dtd">
<!-- Generated by graphviz version 2.40.1 (20161225.0304)
 -->
<!-- Title: coresoftware/blob/master/offline/framework/fun4all/Fun4AllDstInputManager.h Pages: 1 -->
<svg width="2313pt" height="227pt"
 viewBox="0.00 0.00 2313.00 227.00" xmlns="http://www.w3.org/2000/svg" xmlns:xlink="http://www.w3.org/1999/xlink">
<g id="graph0" class="graph" transform="scale(1 1) rotate(0) translate(4 223)">
<title>coresoftware/blob/master/offline/framework/fun4all/Fun4AllDstInputManager.h</title>
<!-- Node1 -->
<g id="node1" class="node">
<title>Node1</title>
<polygon fill="#bfbfbf" stroke="#000000" points="856.5,-174.5 856.5,-218.5 1009.5,-218.5 1009.5,-174.5 856.5,-174.5"/>
<text text-anchor="start" x="864.5" y="-205.5" font-family="FreeSans" font-size="10.00" fill="#000000">coresoftware/blob/master</text>
<text text-anchor="start" x="864.5" y="-193.5" font-family="FreeSans" font-size="10.00" fill="#000000">/offline/framework/fun4all</text>
<text text-anchor="middle" x="933" y="-181.5" font-family="FreeSans" font-size="10.00" fill="#000000">/Fun4AllDstInputManager.h</text>
</g>
<!-- Node2 -->
<g id="node2" class="node">
<title>Node2</title>
<g id="a_node2"><a xlink:href="../../d3/d53/Fun4AllDstInputManager_8cc.html" target="_top" xlink:title="coresoftware/blob/master\l/offline/framework/fun4all\l/Fun4AllDstInputManager.cc">
<polygon fill="none" stroke="#000000" points="264,-93.5 264,-137.5 422,-137.5 422,-93.5 264,-93.5"/>
<text text-anchor="start" x="272" y="-124.5" font-family="FreeSans" font-size="10.00" fill="#000000">coresoftware/blob/master</text>
<text text-anchor="start" x="272" y="-112.5" font-family="FreeSans" font-size="10.00" fill="#000000">/offline/framework/fun4all</text>
<text text-anchor="middle" x="343" y="-100.5" font-family="FreeSans" font-size="10.00" fill="#000000">/Fun4AllDstInputManager.cc</text>
</a>
</g>
</g>
<!-- Node1&#45;&gt;Node2 -->
<g id="edge1" class="edge">
<title>Node1&#45;&gt;Node2</title>
<path fill="none" stroke="#191970" d="M846.3676,-189.484C746.8301,-180.6878 578.8286,-163.5879 436,-138 431.4216,-137.1798 426.7322,-136.2698 422.0109,-135.2996"/>
<polygon fill="#191970" stroke="#191970" points="846.1096,-192.9747 856.3769,-190.3609 846.7206,-186.0014 846.1096,-192.9747"/>
</g>
<!-- Node3 -->
<g id="node3" class="node">
<title>Node3</title>
<g id="a_node3"><a xlink:href="../../d2/dab/Fun4AllNoSyncDstInputManager_8h.html" target="_top" xlink:title="coresoftware/blob/master\l/offline/framework/fun4all\l/Fun4AllNoSyncDstInputManager.h">
<polygon fill="none" stroke="#000000" points="554,-93.5 554,-137.5 746,-137.5 746,-93.5 554,-93.5"/>
<text text-anchor="start" x="562" y="-124.5" font-family="FreeSans" font-size="10.00" fill="#000000">coresoftware/blob/master</text>
<text text-anchor="start" x="562" y="-112.5" font-family="FreeSans" font-size="10.00" fill="#000000">/offline/framework/fun4all</text>
<text text-anchor="middle" x="650" y="-100.5" font-family="FreeSans" font-size="10.00" fill="#000000">/Fun4AllNoSyncDstInputManager.h</text>
</a>
</g>
</g>
<!-- Node1&#45;&gt;Node3 -->
<g id="edge2" class="edge">
<title>Node1&#45;&gt;Node3</title>
<path fill="none" stroke="#191970" d="M846.3769,-171.7068C808.3331,-160.818 764.0265,-148.1366 727.1367,-137.578"/>
<polygon fill="#191970" stroke="#191970" points="845.839,-175.1934 856.4161,-174.5802 847.7653,-168.4636 845.839,-175.1934"/>
</g>
<!-- Node5 -->
<g id="node5" class="node">
<title>Node5</title>
<g id="a_node5"><a xlink:href="../../da/d02/Fun4All__G4__EICDetector_8C.html" target="_top" xlink:title="macros/blob/master\l/macros/g4simulations\l/Fun4All_G4_EICDetector.C">
<polygon fill="none" stroke="#000000" points="0,-6.5 0,-50.5 152,-50.5 152,-6.5 0,-6.5"/>
<text text-anchor="start" x="8" y="-37.5" font-family="FreeSans" font-size="10.00" fill="#000000">macros/blob/master</text>
<text text-anchor="start" x="8" y="-25.5" font-family="FreeSans" font-size="10.00" fill="#000000">/macros/g4simulations</text>
<text text-anchor="middle" x="76" y="-13.5" font-family="FreeSans" font-size="10.00" fill="#000000">/Fun4All_G4_EICDetector.C</text>
</a>
</g>
</g>
<!-- Node1&#45;&gt;Node5 -->
<g id="edge11" class="edge">
<title>Node1&#45;&gt;Node5</title>
<path fill="none" stroke="#191970" d="M846.0897,-193.8022C728.7002,-188.7922 526.9054,-174.9478 464,-138 442.6146,-125.4392 452.3321,-105.6512 431,-93 326.8727,-31.2465 278.928,-84.3675 161,-57 153.2677,-55.2056 145.2427,-52.995 137.3486,-50.6053"/>
<polygon fill="#191970" stroke="#191970" points="845.997,-197.3013 856.1332,-194.2181 846.2866,-190.3073 845.997,-197.3013"/>
</g>
<!-- Node6 -->
<g id="node6" class="node">
<title>Node6</title>
<g id="a_node6"><a xlink:href="../../d7/d9e/Fun4All__G4__fsPHENIX_8C.html" target="_top" xlink:title="macros/blob/master\l/macros/g4simulations\l/Fun4All_G4_fsPHENIX.C">
<polygon fill="none" stroke="#000000" points="170.5,-6.5 170.5,-50.5 309.5,-50.5 309.5,-6.5 170.5,-6.5"/>
<text text-anchor="start" x="178.5" y="-37.5" font-family="FreeSans" font-size="10.00" fill="#000000">macros/blob/master</text>
<text text-anchor="start" x="178.5" y="-25.5" font-family="FreeSans" font-size="10.00" fill="#000000">/macros/g4simulations</text>
<text text-anchor="middle" x="240" y="-13.5" font-family="FreeSans" font-size="10.00" fill="#000000">/Fun4All_G4_fsPHENIX.C</text>
</a>
</g>
</g>
<!-- Node1&#45;&gt;Node6 -->
<g id="edge12" class="edge">
<title>Node1&#45;&gt;Node6</title>
<path fill="none" stroke="#191970" d="M846.1866,-192.0599C737.7764,-185.2652 559.5473,-169.6044 502,-138 479.0555,-125.3991 486.2389,-106.8081 464,-93 407.2218,-57.7465 381.9253,-76.4969 318,-57 311.5186,-55.0232 304.788,-52.8116 298.1181,-50.5181"/>
<polygon fill="#191970" stroke="#191970" points="846.2579,-195.5708 856.4536,-192.6901 846.6868,-188.584 846.2579,-195.5708"/>
</g>
<!-- Node7 -->
<g id="node7" class="node">
<title>Node7</title>
<g id="a_node7"><a xlink:href="../../d5/d2c/macros_2blob_2master_2macros_2g4simulations_2Fun4All__G4__sPHENIX_8C.html" target="_top" xlink:title="macros/blob/master\l/macros/g4simulations\l/Fun4All_G4_sPHENIX.C">
<polygon fill="none" stroke="#000000" points="327.5,-6.5 327.5,-50.5 462.5,-50.5 462.5,-6.5 327.5,-6.5"/>
<text text-anchor="start" x="335.5" y="-37.5" font-family="FreeSans" font-size="10.00" fill="#000000">macros/blob/master</text>
<text text-anchor="start" x="335.5" y="-25.5" font-family="FreeSans" font-size="10.00" fill="#000000">/macros/g4simulations</text>
<text text-anchor="middle" x="395" y="-13.5" font-family="FreeSans" font-size="10.00" fill="#000000">/Fun4All_G4_sPHENIX.C</text>
</a>
</g>
</g>
<!-- Node1&#45;&gt;Node7 -->
<g id="edge13" class="edge">
<title>Node1&#45;&gt;Node7</title>
<path fill="none" stroke="#191970" d="M845.9159,-189.9432C747.9783,-181.4296 595.9478,-164.4517 545,-138 520.4489,-125.2533 523.5914,-110.2929 502,-93 482.0228,-76.9999 457.7285,-62.046 437.3414,-50.5733"/>
<polygon fill="#191970" stroke="#191970" points="845.8415,-193.4495 856.1036,-190.8153 846.4386,-186.475 845.8415,-193.4495"/>
</g>
<!-- Node8 -->
<g id="node8" class="node">
<title>Node8</title>
<g id="a_node8"><a xlink:href="../../de/da9/ReadClustersRunTracking_8C.html" target="_top" xlink:title="macros/blob/master\l/macros/g4simulations\l/ReadClustersRunTracking.C">
<polygon fill="none" stroke="#000000" points="694.5,-6.5 694.5,-50.5 853.5,-50.5 853.5,-6.5 694.5,-6.5"/>
<text text-anchor="start" x="702.5" y="-37.5" font-family="FreeSans" font-size="10.00" fill="#000000">macros/blob/master</text>
<text text-anchor="start" x="702.5" y="-25.5" font-family="FreeSans" font-size="10.00" fill="#000000">/macros/g4simulations</text>
<text text-anchor="middle" x="774" y="-13.5" font-family="FreeSans" font-size="10.00" fill="#000000">/ReadClustersRunTracking.C</text>
</a>
</g>
</g>
<!-- Node1&#45;&gt;Node8 -->
<g id="edge14" class="edge">
<title>Node1&#45;&gt;Node8</title>
<path fill="none" stroke="#191970" d="M867.474,-169.6535C852.1859,-161.1827 836.9118,-150.6558 825,-138 801.2841,-112.8029 786.9531,-74.5979 779.7612,-50.6204"/>
<polygon fill="#191970" stroke="#191970" points="865.9758,-172.8205 876.4517,-174.4039 869.2497,-166.6333 865.9758,-172.8205"/>
</g>
<!-- Node9 -->
<g id="node9" class="node">
<title>Node9</title>
<g id="a_node9"><a xlink:href="../../d2/dae/Fun4All__TestBeam__HCAL__SampleFrac_8C.html" target="_top" xlink:title="analysis/blob/master\l/Prototype4/HCal/macros\l/SampleFrac/Fun4All_TestBeam\l_HCAL_SampleFrac.C">
<polygon fill="none" stroke="#000000" points="872,-.5 872,-56.5 1046,-56.5 1046,-.5 872,-.5"/>
<text text-anchor="start" x="880" y="-43.5" font-family="FreeSans" font-size="10.00" fill="#000000">analysis/blob/master</text>
<text text-anchor="start" x="880" y="-31.5" font-family="FreeSans" font-size="10.00" fill="#000000">/Prototype4/HCal/macros</text>
<text text-anchor="start" x="880" y="-19.5" font-family="FreeSans" font-size="10.00" fill="#000000">/SampleFrac/Fun4All_TestBeam</text>
<text text-anchor="middle" x="959" y="-7.5" font-family="FreeSans" font-size="10.00" fill="#000000">_HCAL_SampleFrac.C</text>
</a>
</g>
</g>
<!-- Node1&#45;&gt;Node9 -->
<g id="edge15" class="edge">
<title>Node1&#45;&gt;Node9</title>
<path fill="none" stroke="#191970" d="M866.6497,-169.1661C854.383,-161.001 843.189,-150.7308 836,-138 826.1658,-120.5848 825.6502,-110.1138 836,-93 845.2959,-77.6288 859.5982,-65.7416 875.2057,-56.6124"/>
<polygon fill="#191970" stroke="#191970" points="864.9285,-172.2167 875.2773,-174.4869 868.603,-166.2586 864.9285,-172.2167"/>
</g>
<!-- Node10 -->
<g id="node10" class="node">
<title>Node10</title>
<g id="a_node10"><a xlink:href="../../dc/d48/Fun4All__TestBeam__HCAL__ShowerCalib_8C.html" target="_top" xlink:title="analysis/blob/master\l/Prototype4/HCal/macros\l/ShowerCalib/Fun4All_TestBeam\l_HCAL_ShowerCalib.C">
<polygon fill="none" stroke="#000000" points="1064,-.5 1064,-56.5 1242,-56.5 1242,-.5 1064,-.5"/>
<text text-anchor="start" x="1072" y="-43.5" font-family="FreeSans" font-size="10.00" fill="#000000">analysis/blob/master</text>
<text text-anchor="start" x="1072" y="-31.5" font-family="FreeSans" font-size="10.00" fill="#000000">/Prototype4/HCal/macros</text>
<text text-anchor="start" x="1072" y="-19.5" font-family="FreeSans" font-size="10.00" fill="#000000">/ShowerCalib/Fun4All_TestBeam</text>
<text text-anchor="middle" x="1153" y="-7.5" font-family="FreeSans" font-size="10.00" fill="#000000">_HCAL_ShowerCalib.C</text>
</a>
</g>
</g>
<!-- Node1&#45;&gt;Node10 -->
<g id="edge16" class="edge">
<title>Node1&#45;&gt;Node10</title>
<path fill="none" stroke="#191970" d="M894.583,-167.2881C886.2352,-158.8402 878.5488,-148.9161 874,-138 866.307,-119.5387 861.312,-108.4601 874,-93 926.0336,-29.598 975.3243,-76.4702 1055,-57 1057.9261,-56.285 1060.8957,-55.5392 1063.8902,-54.77"/>
<polygon fill="#191970" stroke="#191970" points="892.3541,-169.9973 902.027,-174.3199 897.1609,-164.9086 892.3541,-169.9973"/>
</g>
<!-- Node11 -->
<g id="node11" class="node">
<title>Node11</title>
<g id="a_node11"><a xlink:href="../../d6/dc1/Fun4All__TestBeam__HCAL__TowerCalib_8C.html" target="_top" xlink:title="analysis/blob/master\l/Prototype4/HCal/macros\l/TowerCalib/Fun4All_TestBeam\l_HCAL_TowerCalib.C">
<polygon fill="none" stroke="#000000" points="1260,-.5 1260,-56.5 1430,-56.5 1430,-.5 1260,-.5"/>
<text text-anchor="start" x="1268" y="-43.5" font-family="FreeSans" font-size="10.00" fill="#000000">analysis/blob/master</text>
<text text-anchor="start" x="1268" y="-31.5" font-family="FreeSans" font-size="10.00" fill="#000000">/Prototype4/HCal/macros</text>
<text text-anchor="start" x="1268" y="-19.5" font-family="FreeSans" font-size="10.00" fill="#000000">/TowerCalib/Fun4All_TestBeam</text>
<text text-anchor="middle" x="1345" y="-7.5" font-family="FreeSans" font-size="10.00" fill="#000000">_HCAL_TowerCalib.C</text>
</a>
</g>
</g>
<!-- Node1&#45;&gt;Node11 -->
<g id="edge17" class="edge">
<title>Node1&#45;&gt;Node11</title>
<path fill="none" stroke="#191970" d="M912.4142,-165.4111C900.2205,-142.7459 890.2782,-112.6792 908,-93 959.2869,-36.0485 1175.8789,-72.187 1251,-57 1253.9251,-56.4086 1256.8896,-55.765 1259.8743,-55.0789"/>
<polygon fill="#191970" stroke="#191970" points="909.5064,-167.3763 917.5161,-174.3114 915.5794,-163.8951 909.5064,-167.3763"/>
</g>
<!-- Node12 -->
<g id="node12" class="node">
<title>Node12</title>
<g id="a_node12"><a xlink:href="../../d5/d5a/block_2MyHitTTree_8C.html" target="_top" xlink:title="tutorials/blob/master\l/block/MyHitTTree.C">
<polygon fill="none" stroke="#000000" points="916.5,-99.5 916.5,-131.5 1039.5,-131.5 1039.5,-99.5 916.5,-99.5"/>
<text text-anchor="start" x="924.5" y="-118.5" font-family="FreeSans" font-size="10.00" fill="#000000">tutorials/blob/master</text>
<text text-anchor="middle" x="978" y="-106.5" font-family="FreeSans" font-size="10.00" fill="#000000">/block/MyHitTTree.C</text>
</a>
</g>
</g>
<!-- Node1&#45;&gt;Node12 -->
<g id="edge18" class="edge">
<title>Node1&#45;&gt;Node12</title>
<path fill="none" stroke="#191970" d="M950.2524,-165.4457C956.645,-153.939 963.6362,-141.3549 969.0017,-131.6969"/>
<polygon fill="#191970" stroke="#191970" points="947.0934,-163.925 945.2964,-174.3664 953.2125,-167.3246 947.0934,-163.925"/>
</g>
<!-- Node13 -->
<g id="node13" class="node">
<title>Node13</title>
<g id="a_node13"><a xlink:href="../../df/d77/Fun4All__CaloAna_8C.html" target="_top" xlink:title="tutorials/blob/master\l/CaloAna/macro/Fun4All\l_CaloAna.C">
<polygon fill="none" stroke="#000000" points="1058,-93.5 1058,-137.5 1196,-137.5 1196,-93.5 1058,-93.5"/>
<text text-anchor="start" x="1066" y="-124.5" font-family="FreeSans" font-size="10.00" fill="#000000">tutorials/blob/master</text>
<text text-anchor="start" x="1066" y="-112.5" font-family="FreeSans" font-size="10.00" fill="#000000">/CaloAna/macro/Fun4All</text>
<text text-anchor="middle" x="1127" y="-100.5" font-family="FreeSans" font-size="10.00" fill="#000000">_CaloAna.C</text>
</a>
</g>
</g>
<!-- Node1&#45;&gt;Node13 -->
<g id="edge19" class="edge">
<title>Node1&#45;&gt;Node13</title>
<path fill="none" stroke="#191970" d="M995.3119,-170.4832C1020.7621,-159.8571 1049.8814,-147.699 1074.2554,-137.5222"/>
<polygon fill="#191970" stroke="#191970" points="993.6345,-167.3906 985.7551,-174.4734 996.3316,-173.8502 993.6345,-167.3906"/>
</g>
<!-- Node14 -->
<g id="node14" class="node">
<title>Node14</title>
<g id="a_node14"><a xlink:href="../../d9/da0/G4TTree_8C.html" target="_top" xlink:title="tutorials/blob/master\l/clusters/G4TTree.C">
<polygon fill="none" stroke="#000000" points="1214.5,-99.5 1214.5,-131.5 1337.5,-131.5 1337.5,-99.5 1214.5,-99.5"/>
<text text-anchor="start" x="1222.5" y="-118.5" font-family="FreeSans" font-size="10.00" fill="#000000">tutorials/blob/master</text>
<text text-anchor="middle" x="1276" y="-106.5" font-family="FreeSans" font-size="10.00" fill="#000000">/clusters/G4TTree.C</text>
</a>
</g>
</g>
<!-- Node1&#45;&gt;Node14 -->
<g id="edge20" class="edge">
<title>Node1&#45;&gt;Node14</title>
<path fill="none" stroke="#191970" d="M1019.4992,-180.0807C1073.1999,-169.3482 1143.4687,-154.327 1205,-138 1212.2489,-136.0766 1219.8576,-133.8697 1227.2909,-131.6067"/>
<polygon fill="#191970" stroke="#191970" points="1018.7966,-176.6518 1009.6708,-182.0341 1020.1613,-183.5175 1018.7966,-176.6518"/>
</g>
<!-- Node15 -->
<g id="node15" class="node">
<title>Node15</title>
<g id="a_node15"><a xlink:href="../../d9/d30/cylinder_2MyHitTTree_8C.html" target="_top" xlink:title="tutorials/blob/master\l/cylinder/MyHitTTree.C">
<polygon fill="none" stroke="#000000" points="1355.5,-99.5 1355.5,-131.5 1486.5,-131.5 1486.5,-99.5 1355.5,-99.5"/>
<text text-anchor="start" x="1363.5" y="-118.5" font-family="FreeSans" font-size="10.00" fill="#000000">tutorials/blob/master</text>
<text text-anchor="middle" x="1421" y="-106.5" font-family="FreeSans" font-size="10.00" fill="#000000">/cylinder/MyHitTTree.C</text>
</a>
</g>
</g>
<!-- Node1&#45;&gt;Node15 -->
<g id="edge21" class="edge">
<title>Node1&#45;&gt;Node15</title>
<path fill="none" stroke="#191970" d="M1019.5935,-188.2106C1103.8391,-179.2211 1235.1359,-162.7536 1347,-138 1355.1287,-136.2013 1363.6605,-133.9541 1371.9234,-131.5811"/>
<polygon fill="#191970" stroke="#191970" points="1019.1348,-184.7395 1009.5574,-189.2699 1019.8695,-191.7008 1019.1348,-184.7395"/>
</g>
<!-- Node16 -->
<g id="node16" class="node">
<title>Node16</title>
<g id="a_node16"><a xlink:href="../../db/d96/Fun4All__JetAna_8C.html" target="_top" xlink:title="tutorials/blob/master\l/myjetanalysis/macro\l/Fun4All_JetAna.C">
<polygon fill="none" stroke="#000000" points="1504.5,-93.5 1504.5,-137.5 1629.5,-137.5 1629.5,-93.5 1504.5,-93.5"/>
<text text-anchor="start" x="1512.5" y="-124.5" font-family="FreeSans" font-size="10.00" fill="#000000">tutorials/blob/master</text>
<text text-anchor="start" x="1512.5" y="-112.5" font-family="FreeSans" font-size="10.00" fill="#000000">/myjetanalysis/macro</text>
<text text-anchor="middle" x="1567" y="-100.5" font-family="FreeSans" font-size="10.00" fill="#000000">/Fun4All_JetAna.C</text>
</a>
</g>
</g>
<!-- Node1&#45;&gt;Node16 -->
<g id="edge22" class="edge">
<title>Node1&#45;&gt;Node16</title>
<path fill="none" stroke="#191970" d="M1019.9639,-192.9494C1131.2996,-187.1551 1329.7019,-172.6138 1496,-138 1498.785,-137.4203 1501.6157,-136.7741 1504.4637,-136.0771"/>
<polygon fill="#191970" stroke="#191970" points="1019.6041,-189.4631 1009.7949,-193.4669 1019.9599,-196.4541 1019.6041,-189.4631"/>
</g>
<!-- Node17 -->
<g id="node17" class="node">
<title>Node17</title>
<g id="a_node17"><a xlink:href="../../dd/d9c/AnalyzeTree_8C.html" target="_top" xlink:title="tutorials/blob/master\l/MyOwnTTree/macro/AnalyzeTree.C">
<polygon fill="none" stroke="#000000" points="1647.5,-99.5 1647.5,-131.5 1842.5,-131.5 1842.5,-99.5 1647.5,-99.5"/>
<text text-anchor="start" x="1655.5" y="-118.5" font-family="FreeSans" font-size="10.00" fill="#000000">tutorials/blob/master</text>
<text text-anchor="middle" x="1745" y="-106.5" font-family="FreeSans" font-size="10.00" fill="#000000">/MyOwnTTree/macro/AnalyzeTree.C</text>
</a>
</g>
</g>
<!-- Node1&#45;&gt;Node17 -->
<g id="edge23" class="edge">
<title>Node1&#45;&gt;Node17</title>
<path fill="none" stroke="#191970" d="M1019.8006,-192.8467C1153.4027,-186.4274 1417.2312,-170.5912 1639,-138 1650.9122,-136.2494 1663.4934,-133.9678 1675.6644,-131.5302"/>
<polygon fill="#191970" stroke="#191970" points="1019.4498,-189.3593 1009.6269,-193.3294 1019.7816,-196.3515 1019.4498,-189.3593"/>
</g>
<!-- Node18 -->
<g id="node18" class="node">
<title>Node18</title>
<g id="a_node18"><a xlink:href="../../da/d2a/prototype_2blob_2master_2macros_2prototype2_2run__dump_8C.html" target="_top" xlink:title="prototype/blob/master\l/macros/prototype2/run\l_dump.C">
<polygon fill="none" stroke="#000000" points="1861,-93.5 1861,-137.5 1997,-137.5 1997,-93.5 1861,-93.5"/>
<text text-anchor="start" x="1869" y="-124.5" font-family="FreeSans" font-size="10.00" fill="#000000">prototype/blob/master</text>
<text text-anchor="start" x="1869" y="-112.5" font-family="FreeSans" font-size="10.00" fill="#000000">/macros/prototype2/run</text>
<text text-anchor="middle" x="1929" y="-100.5" font-family="FreeSans" font-size="10.00" fill="#000000">_dump.C</text>
</a>
</g>
</g>
<!-- Node1&#45;&gt;Node18 -->
<g id="edge24" class="edge">
<title>Node1&#45;&gt;Node18</title>
<path fill="none" stroke="#191970" d="M1019.7406,-193.4239C1216.8604,-186.0367 1693.6525,-165.8228 1852,-138 1854.8806,-137.4939 1857.8067,-136.9194 1860.7515,-136.2911"/>
<polygon fill="#191970" stroke="#191970" points="1019.5781,-189.9275 1009.7154,-193.7976 1019.8389,-196.9226 1019.5781,-189.9275"/>
</g>
<!-- Node19 -->
<g id="node19" class="node">
<title>Node19</title>
<g id="a_node19"><a xlink:href="../../de/d33/prototype_2blob_2master_2macros_2prototype3_2run__dump_8C.html" target="_top" xlink:title="prototype/blob/master\l/macros/prototype3/run\l_dump.C">
<polygon fill="none" stroke="#000000" points="2015,-93.5 2015,-137.5 2151,-137.5 2151,-93.5 2015,-93.5"/>
<text text-anchor="start" x="2023" y="-124.5" font-family="FreeSans" font-size="10.00" fill="#000000">prototype/blob/master</text>
<text text-anchor="start" x="2023" y="-112.5" font-family="FreeSans" font-size="10.00" fill="#000000">/macros/prototype3/run</text>
<text text-anchor="middle" x="2083" y="-100.5" font-family="FreeSans" font-size="10.00" fill="#000000">_dump.C</text>
</a>
</g>
</g>
<!-- Node1&#45;&gt;Node19 -->
<g id="edge25" class="edge">
<title>Node1&#45;&gt;Node19</title>
<path fill="none" stroke="#191970" d="M1019.7695,-194.3401C1240.0973,-188.443 1817.0622,-170.3118 2006,-138 2008.8828,-137.507 2011.8108,-136.9434 2014.7572,-136.3243"/>
<polygon fill="#191970" stroke="#191970" points="1019.4537,-190.8472 1009.5502,-194.6117 1019.6397,-197.8447 1019.4537,-190.8472"/>
</g>
<!-- Node20 -->
<g id="node20" class="node">
<title>Node20</title>
<g id="a_node20"><a xlink:href="../../d8/dfd/prototype_2blob_2master_2macros_2prototype4_2run__dump_8C.html" target="_top" xlink:title="prototype/blob/master\l/macros/prototype4/run\l_dump.C">
<polygon fill="none" stroke="#000000" points="2169,-93.5 2169,-137.5 2305,-137.5 2305,-93.5 2169,-93.5"/>
<text text-anchor="start" x="2177" y="-124.5" font-family="FreeSans" font-size="10.00" fill="#000000">prototype/blob/master</text>
<text text-anchor="start" x="2177" y="-112.5" font-family="FreeSans" font-size="10.00" fill="#000000">/macros/prototype4/run</text>
<text text-anchor="middle" x="2237" y="-100.5" font-family="FreeSans" font-size="10.00" fill="#000000">_dump.C</text>
</a>
</g>
</g>
<!-- Node1&#45;&gt;Node20 -->
<g id="edge26" class="edge">
<title>Node1&#45;&gt;Node20</title>
<path fill="none" stroke="#191970" d="M1019.6689,-195.0314C1261.4868,-190.5101 1940.2047,-174.8174 2160,-138 2162.8845,-137.5168 2165.8139,-136.9615 2168.7614,-136.3492"/>
<polygon fill="#191970" stroke="#191970" points="1019.4554,-191.5347 1009.5219,-195.2193 1019.5851,-198.5335 1019.4554,-191.5347"/>
</g>
<!-- Node4 -->
<g id="node4" class="node">
<title>Node4</title>
<g id="a_node4"><a xlink:href="../../d9/d35/Fun4AllNoSyncDstInputManager_8cc.html" target="_top" xlink:title="coresoftware/blob/master\l/offline/framework/fun4all\l/Fun4AllNoSyncDstInputManager.cc">
<polygon fill="none" stroke="#000000" points="481,-6.5 481,-50.5 677,-50.5 677,-6.5 481,-6.5"/>
<text text-anchor="start" x="489" y="-37.5" font-family="FreeSans" font-size="10.00" fill="#000000">coresoftware/blob/master</text>
<text text-anchor="start" x="489" y="-25.5" font-family="FreeSans" font-size="10.00" fill="#000000">/offline/framework/fun4all</text>
<text text-anchor="middle" x="579" y="-13.5" font-family="FreeSans" font-size="10.00" fill="#000000">/Fun4AllNoSyncDstInputManager.cc</text>
</a>
</g>
</g>
<!-- Node3&#45;&gt;Node4 -->
<g id="edge3" class="edge">
<title>Node3&#45;&gt;Node4</title>
<path fill="none" stroke="#191970" d="M625.1835,-85.0911C615.8948,-73.7091 605.5299,-61.0084 596.9765,-50.5276"/>
<polygon fill="#191970" stroke="#191970" points="622.6814,-87.5608 631.7157,-93.0953 628.1047,-83.1349 622.6814,-87.5608"/>
</g>
<!-- Node3&#45;&gt;Node5 -->
<g id="edge4" class="edge">
<title>Node3&#45;&gt;Node5</title>
<path fill="none" stroke="#191970" d="M544.0178,-102.6401C517.8622,-99.4772 489.9167,-96.1072 464,-93 329.3504,-76.8569 293.3189,-86.7122 161,-57 153.1032,-55.2268 144.9074,-52.998 136.8598,-50.5719"/>
<polygon fill="#191970" stroke="#191970" points="543.5986,-106.1148 553.9466,-103.8411 544.4393,-99.1654 543.5986,-106.1148"/>
</g>
<!-- Node3&#45;&gt;Node6 -->
<g id="edge5" class="edge">
<title>Node3&#45;&gt;Node6</title>
<path fill="none" stroke="#191970" d="M543.6195,-98.837C463.1347,-85.839 359.6028,-68.1726 318,-57 311.038,-55.1303 303.8201,-52.9038 296.7118,-50.5312"/>
<polygon fill="#191970" stroke="#191970" points="543.3841,-102.3441 553.8134,-100.4783 544.4969,-95.4331 543.3841,-102.3441"/>
</g>
<!-- Node3&#45;&gt;Node7 -->
<g id="edge6" class="edge">
<title>Node3&#45;&gt;Node7</title>
<path fill="none" stroke="#191970" d="M571.0346,-90.2411C540.0678,-80.1547 504.2831,-68.2751 472,-57 466.0788,-54.932 459.9184,-52.7329 453.7759,-50.509"/>
<polygon fill="#191970" stroke="#191970" points="570.3168,-93.6879 580.9089,-93.4498 572.4802,-87.0306 570.3168,-93.6879"/>
</g>
<!-- Node3&#45;&gt;Node8 -->
<g id="edge7" class="edge">
<title>Node3&#45;&gt;Node8</title>
<path fill="none" stroke="#191970" d="M690.2095,-87.2885C707.1461,-75.4056 726.5682,-61.7788 742.4464,-50.6384"/>
<polygon fill="#191970" stroke="#191970" points="687.7872,-84.7125 681.6113,-93.3211 691.8076,-90.4427 687.7872,-84.7125"/>
</g>
<!-- Node3&#45;&gt;Node9 -->
<g id="edge8" class="edge">
<title>Node3&#45;&gt;Node9</title>
<path fill="none" stroke="#191970" d="M741.0217,-90.7379C778.5268,-80.4425 822.3929,-68.2824 862,-57 865.2073,-56.0864 868.4729,-55.1514 871.7703,-54.2032"/>
<polygon fill="#191970" stroke="#191970" points="739.8454,-87.4311 731.1271,-93.4512 741.6967,-94.1819 739.8454,-87.4311"/>
</g>
<!-- Node3&#45;&gt;Node10 -->
<g id="edge9" class="edge">
<title>Node3&#45;&gt;Node10</title>
<path fill="none" stroke="#191970" d="M756.5268,-101.8255C856.869,-88.6336 999.7873,-68.9548 1055,-57 1057.944,-56.3626 1060.9291,-55.6841 1063.9369,-54.9729"/>
<polygon fill="#191970" stroke="#191970" points="755.8043,-98.3902 746.3445,-103.1612 756.7148,-105.3308 755.8043,-98.3902"/>
</g>
<!-- Node3&#45;&gt;Node11 -->
<g id="edge10" class="edge">
<title>Node3&#45;&gt;Node11</title>
<path fill="none" stroke="#191970" d="M756.5362,-104.691C793.7011,-100.9489 835.6889,-96.7533 874,-93 1041.5158,-76.5888 1085.8655,-89.58 1251,-57 1253.9278,-56.4224 1256.8947,-55.7905 1259.8814,-55.1146"/>
<polygon fill="#191970" stroke="#191970" points="755.7874,-101.2486 746.1888,-105.7337 756.4893,-108.2134 755.7874,-101.2486"/>
</g>
</g>
</svg>
