<?xml version="1.0" encoding="UTF-8" standalone="no"?>
<!DOCTYPE svg PUBLIC "-//W3C//DTD SVG 1.1//EN"
 "http://www.w3.org/Graphics/SVG/1.1/DTD/svg11.dtd">
<!-- Generated by graphviz version 2.40.1 (20161225.0304)
 -->
<!-- Title: coresoftware/blob/master/simulation/g4simulation/g4eval/JetEvalStack.h Pages: 1 -->
<svg width="1986pt" height="215pt"
 viewBox="0.00 0.00 1985.50 215.00" xmlns="http://www.w3.org/2000/svg" xmlns:xlink="http://www.w3.org/1999/xlink">
<g id="graph0" class="graph" transform="scale(1 1) rotate(0) translate(4 211)">
<title>coresoftware/blob/master/simulation/g4simulation/g4eval/JetEvalStack.h</title>
<!-- Node1 -->
<g id="node1" class="node">
<title>Node1</title>
<polygon fill="#bfbfbf" stroke="#000000" points="854,-162.5 854,-206.5 1000,-206.5 1000,-162.5 854,-162.5"/>
<text text-anchor="start" x="862" y="-193.5" font-family="FreeSans" font-size="10.00" fill="#000000">coresoftware/blob/master</text>
<text text-anchor="start" x="862" y="-181.5" font-family="FreeSans" font-size="10.00" fill="#000000">/simulation/g4simulation</text>
<text text-anchor="middle" x="927" y="-169.5" font-family="FreeSans" font-size="10.00" fill="#000000">/g4eval/JetEvalStack.h</text>
</g>
<!-- Node2 -->
<g id="node2" class="node">
<title>Node2</title>
<g id="a_node2"><a xlink:href="../../d3/d23/QAG4SimulationJet_8cc.html" target="_top" xlink:title="coresoftware/blob/master\l/offline/QA/modules/QAG4Simulation\lJet.cc">
<polygon fill="none" stroke="#000000" points="0,-81.5 0,-125.5 204,-125.5 204,-81.5 0,-81.5"/>
<text text-anchor="start" x="8" y="-112.5" font-family="FreeSans" font-size="10.00" fill="#000000">coresoftware/blob/master</text>
<text text-anchor="start" x="8" y="-100.5" font-family="FreeSans" font-size="10.00" fill="#000000">/offline/QA/modules/QAG4Simulation</text>
<text text-anchor="middle" x="102" y="-88.5" font-family="FreeSans" font-size="10.00" fill="#000000">Jet.cc</text>
</a>
</g>
</g>
<!-- Node1&#45;&gt;Node2 -->
<g id="edge1" class="edge">
<title>Node1&#45;&gt;Node2</title>
<path fill="none" stroke="#191970" d="M843.8056,-180.88C710.2522,-174.3519 439.9784,-158.188 213,-126 210.0798,-125.5859 207.1207,-125.1431 204.1374,-124.6763"/>
<polygon fill="#191970" stroke="#191970" points="843.8048,-184.3839 853.9621,-181.3707 844.1427,-177.3921 843.8048,-184.3839"/>
</g>
<!-- Node3 -->
<g id="node3" class="node">
<title>Node3</title>
<g id="a_node3"><a xlink:href="../../d5/dab/JetEvalStack_8cc.html" target="_top" xlink:title="coresoftware/blob/master\l/simulation/g4simulation\l/g4eval/JetEvalStack.cc">
<polygon fill="none" stroke="#000000" points="222,-81.5 222,-125.5 368,-125.5 368,-81.5 222,-81.5"/>
<text text-anchor="start" x="230" y="-112.5" font-family="FreeSans" font-size="10.00" fill="#000000">coresoftware/blob/master</text>
<text text-anchor="start" x="230" y="-100.5" font-family="FreeSans" font-size="10.00" fill="#000000">/simulation/g4simulation</text>
<text text-anchor="middle" x="295" y="-88.5" font-family="FreeSans" font-size="10.00" fill="#000000">/g4eval/JetEvalStack.cc</text>
</a>
</g>
</g>
<!-- Node1&#45;&gt;Node3 -->
<g id="edge2" class="edge">
<title>Node1&#45;&gt;Node3</title>
<path fill="none" stroke="#191970" d="M843.7366,-179.8515C735.4719,-172.8485 540.8421,-156.9807 377,-126 374.0989,-125.4514 371.1507,-124.8513 368.1803,-124.2109"/>
<polygon fill="#191970" stroke="#191970" points="843.7379,-183.3586 853.9403,-180.5018 844.1831,-176.3728 843.7379,-183.3586"/>
</g>
<!-- Node4 -->
<g id="node4" class="node">
<title>Node4</title>
<g id="a_node4"><a xlink:href="../../dd/db5/JetEvaluator_8cc.html" target="_top" xlink:title="coresoftware/blob/master\l/simulation/g4simulation\l/g4eval/JetEvaluator.cc">
<polygon fill="none" stroke="#000000" points="386,-81.5 386,-125.5 532,-125.5 532,-81.5 386,-81.5"/>
<text text-anchor="start" x="394" y="-112.5" font-family="FreeSans" font-size="10.00" fill="#000000">coresoftware/blob/master</text>
<text text-anchor="start" x="394" y="-100.5" font-family="FreeSans" font-size="10.00" fill="#000000">/simulation/g4simulation</text>
<text text-anchor="middle" x="459" y="-88.5" font-family="FreeSans" font-size="10.00" fill="#000000">/g4eval/JetEvaluator.cc</text>
</a>
</g>
</g>
<!-- Node1&#45;&gt;Node4 -->
<g id="edge3" class="edge">
<title>Node1&#45;&gt;Node4</title>
<path fill="none" stroke="#191970" d="M843.6596,-174.7413C765.1368,-164.8701 644.4296,-147.9484 541,-126 538.1119,-125.3871 535.1745,-124.7327 532.2132,-124.0469"/>
<polygon fill="#191970" stroke="#191970" points="843.6193,-178.2633 853.9757,-176.028 844.4858,-171.3171 843.6193,-178.2633"/>
</g>
<!-- Node5 -->
<g id="node5" class="node">
<title>Node5</title>
<g id="a_node5"><a xlink:href="../../d4/db0/JetEnergies_8h.html" target="_top" xlink:title="copy of JetEvaluator.h that will add the energy absorbed by the plug door and the black hole to the l...">
<polygon fill="none" stroke="#000000" points="550,-81.5 550,-125.5 696,-125.5 696,-81.5 550,-81.5"/>
<text text-anchor="start" x="558" y="-112.5" font-family="FreeSans" font-size="10.00" fill="#000000">analysis/blob/master</text>
<text text-anchor="start" x="558" y="-100.5" font-family="FreeSans" font-size="10.00" fill="#000000">/ForwardCalo/Flux_Return</text>
<text text-anchor="middle" x="623" y="-88.5" font-family="FreeSans" font-size="10.00" fill="#000000">_Study/JetEnergies.h</text>
</a>
</g>
</g>
<!-- Node1&#45;&gt;Node5 -->
<g id="edge4" class="edge">
<title>Node1&#45;&gt;Node5</title>
<path fill="none" stroke="#191970" d="M844.0958,-162.4104C797.819,-150.0801 740.6875,-134.8575 696.0936,-122.9756"/>
<polygon fill="#191970" stroke="#191970" points="843.2335,-165.8027 853.7976,-164.9954 845.0358,-159.0387 843.2335,-165.8027"/>
</g>
<!-- Node6 -->
<g id="node6" class="node">
<title>Node6</title>
<g id="a_node6"><a xlink:href="../../d8/d55/JetEnergies_8C.html" target="_top" xlink:title="analysis/blob/master\l/ForwardCalo/Flux_Return\l_Study/JetEnergies.C">
<polygon fill="none" stroke="#000000" points="600,-.5 600,-44.5 746,-44.5 746,-.5 600,-.5"/>
<text text-anchor="start" x="608" y="-31.5" font-family="FreeSans" font-size="10.00" fill="#000000">analysis/blob/master</text>
<text text-anchor="start" x="608" y="-19.5" font-family="FreeSans" font-size="10.00" fill="#000000">/ForwardCalo/Flux_Return</text>
<text text-anchor="middle" x="673" y="-7.5" font-family="FreeSans" font-size="10.00" fill="#000000">_Study/JetEnergies.C</text>
</a>
</g>
</g>
<!-- Node1&#45;&gt;Node6 -->
<g id="edge6" class="edge">
<title>Node1&#45;&gt;Node6</title>
<path fill="none" stroke="#191970" d="M843.9163,-170.1901C810.5168,-161.4626 773.1097,-147.6495 744,-126 728.8757,-114.7517 701.7685,-71.4398 685.7811,-44.5371"/>
<polygon fill="#191970" stroke="#191970" points="843.128,-173.6007 853.6782,-172.6287 844.8246,-166.8094 843.128,-173.6007"/>
</g>
<!-- Node7 -->
<g id="node7" class="node">
<title>Node7</title>
<g id="a_node7"><a xlink:href="../../dd/dfa/BJetModule_8C.html" target="_top" xlink:title="Gether information from Truth Jet and Tracks, DST &#45;&gt; NTuple.">
<polygon fill="none" stroke="#000000" points="752.5,-81.5 752.5,-125.5 923.5,-125.5 923.5,-81.5 752.5,-81.5"/>
<text text-anchor="start" x="760.5" y="-112.5" font-family="FreeSans" font-size="10.00" fill="#000000">analysis/blob/master</text>
<text text-anchor="start" x="760.5" y="-100.5" font-family="FreeSans" font-size="10.00" fill="#000000">/HF&#45;Jet/HighDCATrackCounting</text>
<text text-anchor="middle" x="838" y="-88.5" font-family="FreeSans" font-size="10.00" fill="#000000">/BJetModule.C</text>
</a>
</g>
</g>
<!-- Node1&#45;&gt;Node7 -->
<g id="edge7" class="edge">
<title>Node1&#45;&gt;Node7</title>
<path fill="none" stroke="#191970" d="M895.0514,-155.4232C884.2582,-145.6001 872.3921,-134.8007 862.2902,-125.6068"/>
<polygon fill="#191970" stroke="#191970" points="892.9289,-158.224 902.6804,-162.3664 897.6405,-153.047 892.9289,-158.224"/>
</g>
<!-- Node8 -->
<g id="node8" class="node">
<title>Node8</title>
<g id="a_node8"><a xlink:href="../../d0/da3/SoftLeptonTaggingTruth_8C.html" target="_top" xlink:title="analysis/blob/master\l/HF&#45;Jet/SoftLeptonTagging\l/SoftLeptonTaggingTruth.C">
<polygon fill="none" stroke="#000000" points="942,-81.5 942,-125.5 1092,-125.5 1092,-81.5 942,-81.5"/>
<text text-anchor="start" x="950" y="-112.5" font-family="FreeSans" font-size="10.00" fill="#000000">analysis/blob/master</text>
<text text-anchor="start" x="950" y="-100.5" font-family="FreeSans" font-size="10.00" fill="#000000">/HF&#45;Jet/SoftLeptonTagging</text>
<text text-anchor="middle" x="1017" y="-88.5" font-family="FreeSans" font-size="10.00" fill="#000000">/SoftLeptonTaggingTruth.C</text>
</a>
</g>
</g>
<!-- Node1&#45;&gt;Node8 -->
<g id="edge8" class="edge">
<title>Node1&#45;&gt;Node8</title>
<path fill="none" stroke="#191970" d="M959.3076,-155.4232C970.2221,-145.6001 982.2215,-134.8007 992.4368,-125.6068"/>
<polygon fill="#191970" stroke="#191970" points="956.6845,-153.0752 951.5929,-162.3664 961.3672,-158.2783 956.6845,-153.0752"/>
</g>
<!-- Node9 -->
<g id="node9" class="node">
<title>Node9</title>
<g id="a_node9"><a xlink:href="../../d5/db3/PhotonJet_8C.html" target="_top" xlink:title="analysis/blob/master\l/PhotonJet/PhotonJet.C">
<polygon fill="none" stroke="#000000" points="1110,-87.5 1110,-119.5 1240,-119.5 1240,-87.5 1110,-87.5"/>
<text text-anchor="start" x="1118" y="-106.5" font-family="FreeSans" font-size="10.00" fill="#000000">analysis/blob/master</text>
<text text-anchor="middle" x="1175" y="-94.5" font-family="FreeSans" font-size="10.00" fill="#000000">/PhotonJet/PhotonJet.C</text>
</a>
</g>
</g>
<!-- Node1&#45;&gt;Node9 -->
<g id="edge9" class="edge">
<title>Node1&#45;&gt;Node9</title>
<path fill="none" stroke="#191970" d="M1004.0876,-159.3222C1043.757,-146.3657 1090.9397,-130.9552 1125.6701,-119.6118"/>
<polygon fill="#191970" stroke="#191970" points="1002.8587,-156.0416 994.4395,-162.4734 1005.032,-162.6956 1002.8587,-156.0416"/>
</g>
<!-- Node10 -->
<g id="node10" class="node">
<title>Node10</title>
<g id="a_node10"><a xlink:href="../../d0/d4a/Forward__pi0s_8C.html" target="_top" xlink:title="analysis/blob/master\l/PhotonJet/Photons/Forward\l_pi0s.C">
<polygon fill="none" stroke="#000000" points="1258,-81.5 1258,-125.5 1414,-125.5 1414,-81.5 1258,-81.5"/>
<text text-anchor="start" x="1266" y="-112.5" font-family="FreeSans" font-size="10.00" fill="#000000">analysis/blob/master</text>
<text text-anchor="start" x="1266" y="-100.5" font-family="FreeSans" font-size="10.00" fill="#000000">/PhotonJet/Photons/Forward</text>
<text text-anchor="middle" x="1336" y="-88.5" font-family="FreeSans" font-size="10.00" fill="#000000">_pi0s.C</text>
</a>
</g>
</g>
<!-- Node1&#45;&gt;Node10 -->
<g id="edge10" class="edge">
<title>Node1&#45;&gt;Node10</title>
<path fill="none" stroke="#191970" d="M1010.4209,-171.0718C1075.625,-160.1598 1168.4076,-143.7173 1249,-126 1251.8951,-125.3636 1254.8397,-124.6976 1257.8104,-124.0101"/>
<polygon fill="#191970" stroke="#191970" points="1009.4877,-167.6789 1000.199,-172.7749 1010.6382,-174.5837 1009.4877,-167.6789"/>
</g>
<!-- Node11 -->
<g id="node11" class="node">
<title>Node11</title>
<g id="a_node11"><a xlink:href="../../da/da2/Photons_8C.html" target="_top" xlink:title="analysis/blob/master\l/PhotonJet/Photons/Photons.C">
<polygon fill="none" stroke="#000000" points="1432.5,-87.5 1432.5,-119.5 1599.5,-119.5 1599.5,-87.5 1432.5,-87.5"/>
<text text-anchor="start" x="1440.5" y="-106.5" font-family="FreeSans" font-size="10.00" fill="#000000">analysis/blob/master</text>
<text text-anchor="middle" x="1516" y="-94.5" font-family="FreeSans" font-size="10.00" fill="#000000">/PhotonJet/Photons/Photons.C</text>
</a>
</g>
</g>
<!-- Node1&#45;&gt;Node11 -->
<g id="edge11" class="edge">
<title>Node1&#45;&gt;Node11</title>
<path fill="none" stroke="#191970" d="M1010.335,-177.7478C1109.2523,-169.0244 1278.9532,-151.8236 1423,-126 1433.1376,-124.1826 1443.8197,-121.9258 1454.1879,-119.549"/>
<polygon fill="#191970" stroke="#191970" points="1009.7606,-174.2845 1000.1034,-178.642 1010.3702,-181.2579 1009.7606,-174.2845"/>
</g>
<!-- Node12 -->
<g id="node12" class="node">
<title>Node12</title>
<g id="a_node12"><a xlink:href="../../d1/d87/TruthPhotonJet_8C.html" target="_top" xlink:title="analysis/blob/master\l/PhotonJet/TruthPhotonJet\l/TruthPhotonJet.C">
<polygon fill="none" stroke="#000000" points="1617.5,-81.5 1617.5,-125.5 1764.5,-125.5 1764.5,-81.5 1617.5,-81.5"/>
<text text-anchor="start" x="1625.5" y="-112.5" font-family="FreeSans" font-size="10.00" fill="#000000">analysis/blob/master</text>
<text text-anchor="start" x="1625.5" y="-100.5" font-family="FreeSans" font-size="10.00" fill="#000000">/PhotonJet/TruthPhotonJet</text>
<text text-anchor="middle" x="1691" y="-88.5" font-family="FreeSans" font-size="10.00" fill="#000000">/TruthPhotonJet.C</text>
</a>
</g>
</g>
<!-- Node1&#45;&gt;Node12 -->
<g id="edge12" class="edge">
<title>Node1&#45;&gt;Node12</title>
<path fill="none" stroke="#191970" d="M1010.4564,-182.2334C1139.6444,-177.6279 1395.4321,-164.1315 1609,-126 1611.7612,-125.507 1614.5642,-124.9633 1617.3876,-124.379"/>
<polygon fill="#191970" stroke="#191970" points="1010.115,-178.743 1000.2426,-182.5883 1010.3581,-185.7388 1010.115,-178.743"/>
</g>
<!-- Node13 -->
<g id="node13" class="node">
<title>Node13</title>
<g id="a_node13"><a xlink:href="../../da/dc2/MyJetAnalysis_8cc.html" target="_top" xlink:title="tutorials/blob/master\l/myjetanalysis/src/MyJetAnalysis.cc">
<polygon fill="none" stroke="#000000" points="1782.5,-87.5 1782.5,-119.5 1977.5,-119.5 1977.5,-87.5 1782.5,-87.5"/>
<text text-anchor="start" x="1790.5" y="-106.5" font-family="FreeSans" font-size="10.00" fill="#000000">tutorials/blob/master</text>
<text text-anchor="middle" x="1880" y="-94.5" font-family="FreeSans" font-size="10.00" fill="#000000">/myjetanalysis/src/MyJetAnalysis.cc</text>
</a>
</g>
</g>
<!-- Node1&#45;&gt;Node13 -->
<g id="edge13" class="edge">
<title>Node1&#45;&gt;Node13</title>
<path fill="none" stroke="#191970" d="M1010.3617,-182.6145C1162.684,-178.3106 1495.9186,-164.9209 1774,-126 1786.1103,-124.305 1798.9044,-122.0202 1811.2545,-119.5544"/>
<polygon fill="#191970" stroke="#191970" points="1010.0507,-179.1216 1000.1513,-182.8969 1010.2443,-186.1189 1010.0507,-179.1216"/>
</g>
<!-- Node5&#45;&gt;Node6 -->
<g id="edge5" class="edge">
<title>Node5&#45;&gt;Node6</title>
<path fill="none" stroke="#191970" d="M642.0141,-72.6971C647.7856,-63.3474 654.0092,-53.2651 659.3538,-44.6068"/>
<polygon fill="#191970" stroke="#191970" points="638.9372,-71.0186 636.6627,-81.3664 644.8937,-74.6955 638.9372,-71.0186"/>
</g>
</g>
</svg>
