<?xml version="1.0" encoding="UTF-8" standalone="no"?>
<!DOCTYPE svg PUBLIC "-//W3C//DTD SVG 1.1//EN"
 "http://www.w3.org/Graphics/SVG/1.1/DTD/svg11.dtd">
<!-- Generated by graphviz version 2.40.1 (20161225.0304)
 -->
<!-- Title: PHG4TpcElectronDrift::Detector Pages: 1 -->
<svg width="427pt" height="87pt"
 viewBox="0.00 0.00 427.00 87.00" xmlns="http://www.w3.org/2000/svg" xmlns:xlink="http://www.w3.org/1999/xlink">
<g id="graph0" class="graph" transform="scale(1 1) rotate(0) translate(4 83)">
<title>PHG4TpcElectronDrift::Detector</title>
<!-- Node1 -->
<g id="node1" class="node">
<title>Node1</title>
<polygon fill="#bfbfbf" stroke="#000000" points="0,-32.5 0,-64.5 126,-64.5 126,-32.5 0,-32.5"/>
<text text-anchor="start" x="8" y="-51.5" font-family="FreeSans" font-size="10.00" fill="#000000">PHG4TpcElectronDrift</text>
<text text-anchor="middle" x="63" y="-39.5" font-family="FreeSans" font-size="10.00" fill="#000000">::Detector</text>
</g>
<!-- Node2 -->
<g id="node2" class="node">
<title>Node2</title>
<g id="a_node2"><a xlink:href="../../db/da1/Fun4All__G4__TPC_8C.html#af60bcd3cf09ebd567e28ede14e9e894a" target="_top" xlink:title="Fun4All_G4_TPC">
<polygon fill="none" stroke="#000000" points="162,-58.5 162,-78.5 259,-78.5 259,-58.5 162,-58.5"/>
<text text-anchor="middle" x="210.5" y="-65.5" font-family="FreeSans" font-size="10.00" fill="#000000">Fun4All_G4_TPC</text>
</a>
</g>
</g>
<!-- Node1&#45;&gt;Node2 -->
<g id="edge1" class="edge">
<title>Node1&#45;&gt;Node2</title>
<path fill="none" stroke="#191970" d="M136.4816,-58.4636C145.0876,-59.6305 153.6984,-60.7981 161.8453,-61.9028"/>
<polygon fill="#191970" stroke="#191970" points="136.7889,-54.9733 126.4093,-57.0979 135.8483,-61.9099 136.7889,-54.9733"/>
</g>
<!-- Node3 -->
<g id="node3" class="node">
<title>Node3</title>
<g id="a_node3"><a xlink:href="../../da/d3c/G4__Tracking_8C.html#a4433eb58af16a1286bd71a65483a0b09" target="_top" xlink:title="Tracking_Cells">
<polygon fill="none" stroke="#000000" points="166,-19.5 166,-39.5 255,-39.5 255,-19.5 166,-19.5"/>
<text text-anchor="middle" x="210.5" y="-26.5" font-family="FreeSans" font-size="10.00" fill="#000000">Tracking_Cells</text>
</a>
</g>
</g>
<!-- Node1&#45;&gt;Node3 -->
<g id="edge2" class="edge">
<title>Node1&#45;&gt;Node3</title>
<path fill="none" stroke="#191970" d="M136.4225,-39.0422C146.4661,-37.7484 156.5177,-36.4537 165.8323,-35.2538"/>
<polygon fill="#191970" stroke="#191970" points="135.8802,-35.583 126.4093,-40.332 136.7745,-42.5257 135.8802,-35.583"/>
</g>
<!-- Node4 -->
<g id="node4" class="node">
<title>Node4</title>
<g id="a_node4"><a xlink:href="../../d7/d9e/Fun4All__G4__fsPHENIX_8C.html#af48911d394d2412e817583700f2bbee2" target="_top" xlink:title="Fun4All_G4_fsPHENIX">
<polygon fill="none" stroke="#000000" points="295,-39.5 295,-59.5 419,-59.5 419,-39.5 295,-39.5"/>
<text text-anchor="middle" x="357" y="-46.5" font-family="FreeSans" font-size="10.00" fill="#000000">Fun4All_G4_fsPHENIX</text>
</a>
</g>
</g>
<!-- Node3&#45;&gt;Node4 -->
<g id="edge3" class="edge">
<title>Node3&#45;&gt;Node4</title>
<path fill="none" stroke="#191970" d="M265.1799,-36.9648C274.9001,-38.2918 285.0874,-39.6826 294.9936,-41.035"/>
<polygon fill="#191970" stroke="#191970" points="265.6324,-33.4942 255.2509,-35.6093 264.6855,-40.4299 265.6324,-33.4942"/>
</g>
<!-- Node5 -->
<g id="node5" class="node">
<title>Node5</title>
<g id="a_node5"><a xlink:href="../../d5/d2c/macros_2blob_2master_2macros_2g4simulations_2Fun4All__G4__sPHENIX_8C.html#a6eaaa492d7023ec86c562dc63aa1e5a4" target="_top" xlink:title="Fun4All_G4_sPHENIX">
<polygon fill="none" stroke="#000000" points="296.5,-.5 296.5,-20.5 417.5,-20.5 417.5,-.5 296.5,-.5"/>
<text text-anchor="middle" x="357" y="-7.5" font-family="FreeSans" font-size="10.00" fill="#000000">Fun4All_G4_sPHENIX</text>
</a>
</g>
</g>
<!-- Node3&#45;&gt;Node5 -->
<g id="edge4" class="edge">
<title>Node3&#45;&gt;Node5</title>
<path fill="none" stroke="#191970" d="M265.2025,-22.4055C275.3554,-21.0887 286.0172,-19.706 296.3355,-18.3678"/>
<polygon fill="#191970" stroke="#191970" points="264.7176,-18.939 255.2509,-23.6961 265.618,-25.8808 264.7176,-18.939"/>
</g>
</g>
</svg>
