<?xml version="1.0" encoding="UTF-8" standalone="no"?>
<!DOCTYPE svg PUBLIC "-//W3C//DTD SVG 1.1//EN"
 "http://www.w3.org/Graphics/SVG/1.1/DTD/svg11.dtd">
<!-- Generated by graphviz version 2.40.1 (20161225.0304)
 -->
<!-- Title: RawTowerBuilderByHitIndex::GeometryTableFile Pages: 1 -->
<svg width="494pt" height="326pt"
 viewBox="0.00 0.00 494.00 326.00" xmlns="http://www.w3.org/2000/svg" xmlns:xlink="http://www.w3.org/1999/xlink">
<g id="graph0" class="graph" transform="scale(1 1) rotate(0) translate(4 322)">
<title>RawTowerBuilderByHitIndex::GeometryTableFile</title>
<!-- Node1 -->
<g id="node1" class="node">
<title>Node1</title>
<polygon fill="#bfbfbf" stroke="#000000" points="0,-162.5 0,-194.5 158,-194.5 158,-162.5 0,-162.5"/>
<text text-anchor="start" x="8" y="-181.5" font-family="FreeSans" font-size="10.00" fill="#000000">RawTowerBuilderByHitIndex</text>
<text text-anchor="middle" x="79" y="-169.5" font-family="FreeSans" font-size="10.00" fill="#000000">::GeometryTableFile</text>
</g>
<!-- Node2 -->
<g id="node2" class="node">
<title>Node2</title>
<g id="a_node2"><a xlink:href="../../d1/d81/macros_2blob_2master_2macros_2g4simulations_2G4__EEMC_8C.html#a05b9b10b79cc47702702e091692fd060" target="_top" xlink:title="EEMC_Towers">
<polygon fill="none" stroke="#000000" points="196.5,-207.5 196.5,-227.5 280.5,-227.5 280.5,-207.5 196.5,-207.5"/>
<text text-anchor="middle" x="238.5" y="-214.5" font-family="FreeSans" font-size="10.00" fill="#000000">EEMC_Towers</text>
</a>
</g>
</g>
<!-- Node1&#45;&gt;Node2 -->
<g id="edge1" class="edge">
<title>Node1&#45;&gt;Node2</title>
<path fill="none" stroke="#191970" d="M154.9126,-197.0617C169.6018,-200.6534 184.4649,-204.2877 197.5025,-207.4755"/>
<polygon fill="#191970" stroke="#191970" points="155.3408,-193.5634 144.7956,-194.588 153.6781,-200.363 155.3408,-193.5634"/>
</g>
<!-- Node7 -->
<g id="node7" class="node">
<title>Node7</title>
<g id="a_node7"><a xlink:href="../../d6/d5c/macros_2blob_2master_2macros_2g4simulations_2G4__FEMC_8C.html#af68dc9104b4ad645db845e957df9863e" target="_top" xlink:title="FEMC_Towers">
<polygon fill="none" stroke="#000000" points="196.5,-129.5 196.5,-149.5 280.5,-149.5 280.5,-129.5 196.5,-129.5"/>
<text text-anchor="middle" x="238.5" y="-136.5" font-family="FreeSans" font-size="10.00" fill="#000000">FEMC_Towers</text>
</a>
</g>
</g>
<!-- Node1&#45;&gt;Node7 -->
<g id="edge6" class="edge">
<title>Node1&#45;&gt;Node7</title>
<path fill="none" stroke="#191970" d="M154.9126,-159.9383C169.6018,-156.3466 184.4649,-152.7123 197.5025,-149.5245"/>
<polygon fill="#191970" stroke="#191970" points="153.6781,-156.637 144.7956,-162.412 155.3408,-163.4366 153.6781,-156.637"/>
</g>
<!-- Node12 -->
<g id="node12" class="node">
<title>Node12</title>
<g id="a_node12"><a xlink:href="../../d9/d50/macros_2blob_2master_2macros_2g4simulations_2G4__FHCAL_8C.html#a5d0a471f02bc3f2081650a15db56784e" target="_top" xlink:title="FHCAL_Towers">
<polygon fill="none" stroke="#000000" points="194,-168.5 194,-188.5 283,-188.5 283,-168.5 194,-168.5"/>
<text text-anchor="middle" x="238.5" y="-175.5" font-family="FreeSans" font-size="10.00" fill="#000000">FHCAL_Towers</text>
</a>
</g>
</g>
<!-- Node1&#45;&gt;Node12 -->
<g id="edge15" class="edge">
<title>Node1&#45;&gt;Node12</title>
<path fill="none" stroke="#191970" d="M168.5517,-178.5C177.2591,-178.5 185.8082,-178.5 193.7753,-178.5"/>
<polygon fill="#191970" stroke="#191970" points="168.2828,-175.0001 158.2827,-178.5 168.2827,-182.0001 168.2828,-175.0001"/>
</g>
<!-- Node3 -->
<g id="node3" class="node">
<title>Node3</title>
<g id="a_node3"><a xlink:href="../../da/d02/Fun4All__G4__EICDetector_8C.html#afbe82cefa1d1fd031d9a8586b7bb68c6" target="_top" xlink:title="Fun4All_G4_EICDetector">
<polygon fill="none" stroke="#000000" points="333,-207.5 333,-227.5 472,-227.5 472,-207.5 333,-207.5"/>
<text text-anchor="middle" x="402.5" y="-214.5" font-family="FreeSans" font-size="10.00" fill="#000000">Fun4All_G4_EICDetector</text>
</a>
</g>
</g>
<!-- Node2&#45;&gt;Node3 -->
<g id="edge2" class="edge">
<title>Node2&#45;&gt;Node3</title>
<path fill="none" stroke="#191970" d="M291.081,-217.5C304.3386,-217.5 318.779,-217.5 332.7356,-217.5"/>
<polygon fill="#191970" stroke="#191970" points="290.7341,-214.0001 280.7341,-217.5 290.734,-221.0001 290.7341,-214.0001"/>
</g>
<!-- Node4 -->
<g id="node4" class="node">
<title>Node4</title>
<g id="a_node4"><a xlink:href="../../dd/d2a/Fun4All__G4__EICDetector__LQ_8C.html#aaa01242fd6e77ca43a9d49a6d46008e4" target="_top" xlink:title="Fun4All_G4_EICDetector_LQ">
<polygon fill="none" stroke="#000000" points="324.5,-168.5 324.5,-188.5 480.5,-188.5 480.5,-168.5 324.5,-168.5"/>
<text text-anchor="middle" x="402.5" y="-175.5" font-family="FreeSans" font-size="10.00" fill="#000000">Fun4All_G4_EICDetector_LQ</text>
</a>
</g>
</g>
<!-- Node2&#45;&gt;Node4 -->
<g id="edge3" class="edge">
<title>Node2&#45;&gt;Node4</title>
<path fill="none" stroke="#191970" d="M290.4876,-205.1371C313.0378,-199.7746 339.1008,-193.5766 360.409,-188.5094"/>
<polygon fill="#191970" stroke="#191970" points="289.653,-201.7379 280.7341,-207.4565 291.2725,-208.548 289.653,-201.7379"/>
</g>
<!-- Node5 -->
<g id="node5" class="node">
<title>Node5</title>
<g id="a_node5"><a xlink:href="../../d4/df5/Fun4All__G4__EICDetector__LQ__reference_8C.html#a2feefc472f17f90b3cbe74897d049f75" target="_top" xlink:title="Fun4All_G4_EICDetector\l_LQ_reference">
<polygon fill="none" stroke="#000000" points="333,-285.5 333,-317.5 472,-317.5 472,-285.5 333,-285.5"/>
<text text-anchor="start" x="341" y="-304.5" font-family="FreeSans" font-size="10.00" fill="#000000">Fun4All_G4_EICDetector</text>
<text text-anchor="middle" x="402.5" y="-292.5" font-family="FreeSans" font-size="10.00" fill="#000000">_LQ_reference</text>
</a>
</g>
</g>
<!-- Node2&#45;&gt;Node5 -->
<g id="edge4" class="edge">
<title>Node2&#45;&gt;Node5</title>
<path fill="none" stroke="#191970" d="M257.5109,-234.3589C273.0966,-247.4291 296.2246,-265.1679 319,-276.5 325.6385,-279.8031 332.7948,-282.7576 340.0276,-285.3759"/>
<polygon fill="#191970" stroke="#191970" points="259.5496,-231.4966 249.6783,-227.6483 254.9952,-236.8124 259.5496,-231.4966"/>
</g>
<!-- Node6 -->
<g id="node6" class="node">
<title>Node6</title>
<g id="a_node6"><a xlink:href="../../d3/d51/Fun4All__G4__EICDetector__RICH_8C.html#a5739502b0a7a1ba782c01069f77e933f" target="_top" xlink:title="Fun4All_G4_EICDetector_RICH">
<polygon fill="none" stroke="#000000" points="319,-246.5 319,-266.5 486,-266.5 486,-246.5 319,-246.5"/>
<text text-anchor="middle" x="402.5" y="-253.5" font-family="FreeSans" font-size="10.00" fill="#000000">Fun4All_G4_EICDetector_RICH</text>
</a>
</g>
</g>
<!-- Node2&#45;&gt;Node6 -->
<g id="edge5" class="edge">
<title>Node2&#45;&gt;Node6</title>
<path fill="none" stroke="#191970" d="M288.1679,-230.0032C298.3572,-232.5223 309.0183,-235.1246 319,-237.5 331.4383,-240.46 344.943,-243.5754 357.3938,-246.4079"/>
<polygon fill="#191970" stroke="#191970" points="288.7274,-226.5359 278.1787,-227.5235 287.0408,-233.3297 288.7274,-226.5359"/>
</g>
<!-- Node7&#45;&gt;Node3 -->
<g id="edge7" class="edge">
<title>Node7&#45;&gt;Node3</title>
<path fill="none" stroke="#191970" d="M274.9386,-154.3723C277.7463,-155.9672 280.4693,-157.6785 283,-159.5 302.1453,-173.2805 298.5826,-186.6859 319,-198.5 325.3054,-202.1485 332.2561,-205.0964 339.3742,-207.4782"/>
<polygon fill="#191970" stroke="#191970" points="276.3076,-151.1407 265.8138,-149.681 273.1069,-157.3661 276.3076,-151.1407"/>
</g>
<!-- Node7&#45;&gt;Node4 -->
<g id="edge8" class="edge">
<title>Node7&#45;&gt;Node4</title>
<path fill="none" stroke="#191970" d="M288.1679,-152.0032C298.3572,-154.5223 309.0183,-157.1246 319,-159.5 331.4383,-162.46 344.943,-165.5754 357.3938,-168.4079"/>
<polygon fill="#191970" stroke="#191970" points="288.7274,-148.5359 278.1787,-149.5235 287.0408,-155.3297 288.7274,-148.5359"/>
</g>
<!-- Node7&#45;&gt;Node5 -->
<g id="edge9" class="edge">
<title>Node7&#45;&gt;Node5</title>
<path fill="none" stroke="#191970" d="M278.5844,-155.2515C280.1698,-156.5626 281.6543,-157.9763 283,-159.5 319.0155,-200.2785 280.3835,-238.1755 319,-276.5 323.0815,-280.5506 327.7911,-283.9495 332.8524,-286.801"/>
<polygon fill="#191970" stroke="#191970" points="280.2524,-152.1569 269.9913,-149.5186 276.3675,-157.98 280.2524,-152.1569"/>
</g>
<!-- Node7&#45;&gt;Node6 -->
<g id="edge10" class="edge">
<title>Node7&#45;&gt;Node6</title>
<path fill="none" stroke="#191970" d="M277.7572,-155.0459C279.6221,-156.4197 281.3861,-157.9022 283,-159.5 310.1329,-186.3623 289.3371,-213.4606 319,-237.5 323.3891,-241.057 328.315,-243.9767 333.5217,-246.3699"/>
<polygon fill="#191970" stroke="#191970" points="279.4354,-151.9688 269.0868,-149.6979 275.7606,-157.9266 279.4354,-151.9688"/>
</g>
<!-- Node8 -->
<g id="node8" class="node">
<title>Node8</title>
<g id="a_node8"><a xlink:href="../../d7/d9e/Fun4All__G4__fsPHENIX_8C.html#af48911d394d2412e817583700f2bbee2" target="_top" xlink:title="Fun4All_G4_fsPHENIX">
<polygon fill="none" stroke="#000000" points="340.5,-129.5 340.5,-149.5 464.5,-149.5 464.5,-129.5 340.5,-129.5"/>
<text text-anchor="middle" x="402.5" y="-136.5" font-family="FreeSans" font-size="10.00" fill="#000000">Fun4All_G4_fsPHENIX</text>
</a>
</g>
</g>
<!-- Node7&#45;&gt;Node8 -->
<g id="edge11" class="edge">
<title>Node7&#45;&gt;Node8</title>
<path fill="none" stroke="#191970" d="M290.8076,-139.5C306.5516,-139.5 323.9839,-139.5 340.3032,-139.5"/>
<polygon fill="#191970" stroke="#191970" points="290.7341,-136.0001 280.7341,-139.5 290.734,-143.0001 290.7341,-136.0001"/>
</g>
<!-- Node9 -->
<g id="node9" class="node">
<title>Node9</title>
<g id="a_node9"><a xlink:href="../../da/d2f/Fun4All__G4__fsPHENIX__FastSim_8C.html#a66fb850cae5fcaadda23b74a25ce4c9c" target="_top" xlink:title="Fun4All_G4_fsPHENIX\l_FastSim">
<polygon fill="none" stroke="#000000" points="340.5,-78.5 340.5,-110.5 464.5,-110.5 464.5,-78.5 340.5,-78.5"/>
<text text-anchor="start" x="348.5" y="-97.5" font-family="FreeSans" font-size="10.00" fill="#000000">Fun4All_G4_fsPHENIX</text>
<text text-anchor="middle" x="402.5" y="-85.5" font-family="FreeSans" font-size="10.00" fill="#000000">_FastSim</text>
</a>
</g>
</g>
<!-- Node7&#45;&gt;Node9 -->
<g id="edge12" class="edge">
<title>Node7&#45;&gt;Node9</title>
<path fill="none" stroke="#191970" d="M285.1379,-126.703C303.43,-121.6839 324.6261,-115.8678 343.9308,-110.5708"/>
<polygon fill="#191970" stroke="#191970" points="284.0222,-123.3797 275.3048,-129.4011 285.8745,-130.1302 284.0222,-123.3797"/>
</g>
<!-- Node10 -->
<g id="node10" class="node">
<title>Node10</title>
<g id="a_node10"><a xlink:href="../../d0/da6/Fun4All__G4__fsPHENIX__pi0_8C.html#a023d91d47b678e5d7f1751834aa517c6" target="_top" xlink:title="Fun4All_G4_fsPHENIX_pi0">
<polygon fill="none" stroke="#000000" points="330,-39.5 330,-59.5 475,-59.5 475,-39.5 330,-39.5"/>
<text text-anchor="middle" x="402.5" y="-46.5" font-family="FreeSans" font-size="10.00" fill="#000000">Fun4All_G4_fsPHENIX_pi0</text>
</a>
</g>
</g>
<!-- Node7&#45;&gt;Node10 -->
<g id="edge13" class="edge">
<title>Node7&#45;&gt;Node10</title>
<path fill="none" stroke="#191970" d="M254.0421,-121.8041C269.0896,-105.7765 293.3391,-82.7103 319,-69.5 326.9521,-65.4063 335.7634,-62.1328 344.5944,-59.5201"/>
<polygon fill="#191970" stroke="#191970" points="251.2139,-119.7108 247.0533,-129.4545 256.382,-124.4321 251.2139,-119.7108"/>
</g>
<!-- Node11 -->
<g id="node11" class="node">
<title>Node11</title>
<g id="a_node11"><a xlink:href="../../d5/d2c/macros_2blob_2master_2macros_2g4simulations_2Fun4All__G4__sPHENIX_8C.html#a6eaaa492d7023ec86c562dc63aa1e5a4" target="_top" xlink:title="Fun4All_G4_sPHENIX">
<polygon fill="none" stroke="#000000" points="342,-.5 342,-20.5 463,-20.5 463,-.5 342,-.5"/>
<text text-anchor="middle" x="402.5" y="-7.5" font-family="FreeSans" font-size="10.00" fill="#000000">Fun4All_G4_sPHENIX</text>
</a>
</g>
</g>
<!-- Node7&#45;&gt;Node11 -->
<g id="edge14" class="edge">
<title>Node7&#45;&gt;Node11</title>
<path fill="none" stroke="#191970" d="M247.4768,-120.0802C259.9402,-95.3444 284.8661,-53.1025 319,-30.5 325.9601,-25.8912 333.8708,-22.3418 341.9831,-19.6087"/>
<polygon fill="#191970" stroke="#191970" points="244.2631,-118.6859 243.0434,-129.2103 250.56,-121.7435 244.2631,-118.6859"/>
</g>
<!-- Node12&#45;&gt;Node3 -->
<g id="edge16" class="edge">
<title>Node12&#45;&gt;Node3</title>
<path fill="none" stroke="#191970" d="M288.1679,-191.0032C298.3572,-193.5223 309.0183,-196.1246 319,-198.5 331.4383,-201.46 344.943,-204.5754 357.3938,-207.4079"/>
<polygon fill="#191970" stroke="#191970" points="288.7274,-187.5359 278.1787,-188.5235 287.0408,-194.3297 288.7274,-187.5359"/>
</g>
<!-- Node12&#45;&gt;Node4 -->
<g id="edge17" class="edge">
<title>Node12&#45;&gt;Node4</title>
<path fill="none" stroke="#191970" d="M293.4158,-178.5C303.3444,-178.5 313.8698,-178.5 324.3125,-178.5"/>
<polygon fill="#191970" stroke="#191970" points="293.3138,-175.0001 283.3137,-178.5 293.3137,-182.0001 293.3138,-175.0001"/>
</g>
<!-- Node12&#45;&gt;Node5 -->
<g id="edge18" class="edge">
<title>Node12&#45;&gt;Node5</title>
<path fill="none" stroke="#191970" d="M277.7572,-194.0459C279.6221,-195.4197 281.3861,-196.9022 283,-198.5 310.1329,-225.3623 290.1611,-251.4781 319,-276.5 323.1147,-280.0701 327.7234,-283.1305 332.6058,-285.754"/>
<polygon fill="#191970" stroke="#191970" points="279.4354,-190.9688 269.0868,-188.6979 275.7606,-196.9266 279.4354,-190.9688"/>
</g>
<!-- Node12&#45;&gt;Node6 -->
<g id="edge19" class="edge">
<title>Node12&#45;&gt;Node6</title>
<path fill="none" stroke="#191970" d="M274.9386,-193.3723C277.7463,-194.9672 280.4693,-196.6785 283,-198.5 302.1453,-212.2805 298.5826,-225.6859 319,-237.5 325.3054,-241.1485 332.2561,-244.0964 339.3742,-246.4782"/>
<polygon fill="#191970" stroke="#191970" points="276.3076,-190.1407 265.8138,-188.681 273.1069,-196.3661 276.3076,-190.1407"/>
</g>
<!-- Node12&#45;&gt;Node8 -->
<g id="edge20" class="edge">
<title>Node12&#45;&gt;Node8</title>
<path fill="none" stroke="#191970" d="M290.4876,-166.1371C313.0378,-160.7746 339.1008,-154.5766 360.409,-149.5094"/>
<polygon fill="#191970" stroke="#191970" points="289.653,-162.7379 280.7341,-168.4565 291.2725,-169.548 289.653,-162.7379"/>
</g>
<!-- Node12&#45;&gt;Node9 -->
<g id="edge21" class="edge">
<title>Node12&#45;&gt;Node9</title>
<path fill="none" stroke="#191970" d="M276.3542,-163.6993C278.662,-162.3834 280.8979,-160.9832 283,-159.5 302.2743,-145.9006 299.0595,-133.1024 319,-120.5 325.5457,-116.3631 332.7972,-112.8426 340.2137,-109.8571"/>
<polygon fill="#191970" stroke="#191970" points="274.5467,-160.6921 267.2289,-168.3537 277.7273,-166.9278 274.5467,-160.6921"/>
</g>
<!-- Node12&#45;&gt;Node10 -->
<g id="edge22" class="edge">
<title>Node12&#45;&gt;Node10</title>
<path fill="none" stroke="#191970" d="M279.109,-162.9927C280.4844,-161.902 281.7891,-160.7391 283,-159.5 313.1103,-128.6882 286.4045,-97.6697 319,-69.5 323.6241,-65.5037 328.9089,-62.2745 334.524,-59.6692"/>
<polygon fill="#191970" stroke="#191970" points="277.1161,-160.1133 270.6176,-168.4811 280.916,-165.9922 277.1161,-160.1133"/>
</g>
</g>
</svg>
