<?xml version="1.0" encoding="UTF-8" standalone="no"?>
<!DOCTYPE svg PUBLIC "-//W3C//DTD SVG 1.1//EN"
 "http://www.w3.org/Graphics/SVG/1.1/DTD/svg11.dtd">
<!-- Generated by graphviz version 2.40.1 (20161225.0304)
 -->
<!-- Title: SvtxEvalStack::next_event Pages: 1 -->
<svg width="789pt" height="565pt"
 viewBox="0.00 0.00 789.00 565.00" xmlns="http://www.w3.org/2000/svg" xmlns:xlink="http://www.w3.org/1999/xlink">
<g id="graph0" class="graph" transform="scale(1 1) rotate(0) translate(4 561)">
<title>SvtxEvalStack::next_event</title>
<!-- Node1 -->
<g id="node1" class="node">
<title>Node1</title>
<polygon fill="#bfbfbf" stroke="#000000" points="0,-243.5 0,-275.5 117,-275.5 117,-243.5 0,-243.5"/>
<text text-anchor="start" x="8" y="-262.5" font-family="FreeSans" font-size="10.00" fill="#000000">SvtxEvalStack::next</text>
<text text-anchor="middle" x="58.5" y="-250.5" font-family="FreeSans" font-size="10.00" fill="#000000">_event</text>
</g>
<!-- Node2 -->
<g id="node2" class="node">
<title>Node2</title>
<g id="a_node2"><a xlink:href="../../d3/d22/classJetTruthEval.html#ac29b8d18ee116903ed233388eb253256" target="_top" xlink:title="reinitialize the eval for a new event">
<polygon fill="none" stroke="#000000" points="173,-498.5 173,-530.5 280,-530.5 280,-498.5 173,-498.5"/>
<text text-anchor="start" x="181" y="-517.5" font-family="FreeSans" font-size="10.00" fill="#000000">JetTruthEval::next</text>
<text text-anchor="middle" x="226.5" y="-505.5" font-family="FreeSans" font-size="10.00" fill="#000000">_event</text>
</a>
</g>
</g>
<!-- Node1&#45;&gt;Node2 -->
<g id="edge1" class="edge">
<title>Node1&#45;&gt;Node2</title>
<path fill="none" stroke="#191970" d="M62.1061,-285.7928C69.9701,-333.1612 93.028,-433.1345 153,-489.5 158.6964,-494.8538 165.5844,-499.065 172.8317,-502.3764"/>
<polygon fill="#191970" stroke="#191970" points="65.5352,-285.0671 60.5347,-275.7266 58.619,-286.1468 65.5352,-285.0671"/>
</g>
<!-- Node7 -->
<g id="node7" class="node">
<title>Node7</title>
<g id="a_node7"><a xlink:href="../../db/d2f/classAnaSvtxTracksForGenFit.html#a6f277cfc1d441b018fccacf6fb882dd0" target="_top" xlink:title="AnaSvtxTracksForGenFit\l::process_event">
<polygon fill="none" stroke="#000000" points="156.5,-447.5 156.5,-479.5 296.5,-479.5 296.5,-447.5 156.5,-447.5"/>
<text text-anchor="start" x="164.5" y="-466.5" font-family="FreeSans" font-size="10.00" fill="#000000">AnaSvtxTracksForGenFit</text>
<text text-anchor="middle" x="226.5" y="-454.5" font-family="FreeSans" font-size="10.00" fill="#000000">::process_event</text>
</a>
</g>
</g>
<!-- Node1&#45;&gt;Node7 -->
<g id="edge6" class="edge">
<title>Node1&#45;&gt;Node7</title>
<path fill="none" stroke="#191970" d="M65.5363,-285.6735C77.2783,-324.473 104.4993,-397.1102 153,-438.5 156.9985,-441.9123 161.4845,-444.8651 166.2168,-447.4192"/>
<polygon fill="#191970" stroke="#191970" points="68.7837,-284.3061 62.6301,-275.6814 62.0622,-286.2611 68.7837,-284.3061"/>
</g>
<!-- Node8 -->
<g id="node8" class="node">
<title>Node8</title>
<g id="a_node8"><a xlink:href="../../da/dbf/classHFMLTriggerOccupancy.html#add094957c68c32da4afc212ffa24e885" target="_top" xlink:title="HFMLTriggerOccupancy\l::process_event">
<polygon fill="none" stroke="#000000" points="159.5,-396.5 159.5,-428.5 293.5,-428.5 293.5,-396.5 159.5,-396.5"/>
<text text-anchor="start" x="167.5" y="-415.5" font-family="FreeSans" font-size="10.00" fill="#000000">HFMLTriggerOccupancy</text>
<text text-anchor="middle" x="226.5" y="-403.5" font-family="FreeSans" font-size="10.00" fill="#000000">::process_event</text>
</a>
</g>
</g>
<!-- Node1&#45;&gt;Node8 -->
<g id="edge7" class="edge">
<title>Node1&#45;&gt;Node8</title>
<path fill="none" stroke="#191970" d="M71.0411,-284.763C86.5458,-313.54 115.5383,-360.1086 153,-387.5 157.6785,-390.9208 162.859,-393.8978 168.2408,-396.4835"/>
<polygon fill="#191970" stroke="#191970" points="74.0523,-282.9688 66.3073,-275.7393 67.8535,-286.2207 74.0523,-282.9688"/>
</g>
<!-- Node9 -->
<g id="node9" class="node">
<title>Node9</title>
<g id="a_node9"><a xlink:href="../../d7/d62/classHFMLTriggerInterface.html#a29f338c2563a39e5d0e58b316f4b036f" target="_top" xlink:title="HFMLTriggerInterface\l::process_event">
<polygon fill="none" stroke="#000000" points="165.5,-345.5 165.5,-377.5 287.5,-377.5 287.5,-345.5 165.5,-345.5"/>
<text text-anchor="start" x="173.5" y="-364.5" font-family="FreeSans" font-size="10.00" fill="#000000">HFMLTriggerInterface</text>
<text text-anchor="middle" x="226.5" y="-352.5" font-family="FreeSans" font-size="10.00" fill="#000000">::process_event</text>
</a>
</g>
</g>
<!-- Node1&#45;&gt;Node9 -->
<g id="edge8" class="edge">
<title>Node1&#45;&gt;Node9</title>
<path fill="none" stroke="#191970" d="M82.3058,-282.9695C100.4302,-299.7734 126.6707,-321.9179 153,-336.5 159.0133,-339.8304 165.5478,-342.826 172.1571,-345.4881"/>
<polygon fill="#191970" stroke="#191970" points="84.2516,-279.9929 74.5783,-275.6709 79.445,-285.0819 84.2516,-279.9929"/>
</g>
<!-- Node10 -->
<g id="node10" class="node">
<title>Node10</title>
<g id="a_node10"><a xlink:href="../../d2/d85/classSvtxEvaluatorHaiwang.html#ab63ca0cc53b56dad65b89d9b18220bce" target="_top" xlink:title="SvtxEvaluatorHaiwang\l::process_event">
<polygon fill="none" stroke="#000000" points="161,-294.5 161,-326.5 292,-326.5 292,-294.5 161,-294.5"/>
<text text-anchor="start" x="169" y="-313.5" font-family="FreeSans" font-size="10.00" fill="#000000">SvtxEvaluatorHaiwang</text>
<text text-anchor="middle" x="226.5" y="-301.5" font-family="FreeSans" font-size="10.00" fill="#000000">::process_event</text>
</a>
</g>
</g>
<!-- Node1&#45;&gt;Node10 -->
<g id="edge9" class="edge">
<title>Node1&#45;&gt;Node10</title>
<path fill="none" stroke="#191970" d="M121.5938,-278.6535C138.756,-283.8634 157.1616,-289.4508 173.6895,-294.4683"/>
<polygon fill="#191970" stroke="#191970" points="122.2418,-275.1925 111.6563,-275.6367 120.2084,-281.8907 122.2418,-275.1925"/>
</g>
<!-- Node11 -->
<g id="node11" class="node">
<title>Node11</title>
<g id="a_node11"><a xlink:href="../../d8/d98/classpsTOFTimezeroEval.html#a2e98730e1beaa91c36947c0fe671fdd2" target="_top" xlink:title="psTOFTimezeroEval::\lprocess_event">
<polygon fill="none" stroke="#000000" points="165.5,-243.5 165.5,-275.5 287.5,-275.5 287.5,-243.5 165.5,-243.5"/>
<text text-anchor="start" x="173.5" y="-262.5" font-family="FreeSans" font-size="10.00" fill="#000000">psTOFTimezeroEval::</text>
<text text-anchor="middle" x="226.5" y="-250.5" font-family="FreeSans" font-size="10.00" fill="#000000">process_event</text>
</a>
</g>
</g>
<!-- Node1&#45;&gt;Node11 -->
<g id="edge10" class="edge">
<title>Node1&#45;&gt;Node11</title>
<path fill="none" stroke="#191970" d="M127.2863,-259.5C139.9466,-259.5 153.0839,-259.5 165.4955,-259.5"/>
<polygon fill="#191970" stroke="#191970" points="127.2583,-256.0001 117.2582,-259.5 127.2582,-263.0001 127.2583,-256.0001"/>
</g>
<!-- Node12 -->
<g id="node12" class="node">
<title>Node12</title>
<g id="a_node12"><a xlink:href="../../d6/d11/classSvtxEvaluator.html#ac66ea4145deb621d9e4fb38cf852dc33" target="_top" xlink:title="SvtxEvaluator::process\l_event">
<polygon fill="none" stroke="#000000" points="160.5,-192.5 160.5,-224.5 292.5,-224.5 292.5,-192.5 160.5,-192.5"/>
<text text-anchor="start" x="168.5" y="-211.5" font-family="FreeSans" font-size="10.00" fill="#000000">SvtxEvaluator::process</text>
<text text-anchor="middle" x="226.5" y="-199.5" font-family="FreeSans" font-size="10.00" fill="#000000">_event</text>
</a>
</g>
</g>
<!-- Node1&#45;&gt;Node12 -->
<g id="edge11" class="edge">
<title>Node1&#45;&gt;Node12</title>
<path fill="none" stroke="#191970" d="M121.5938,-240.3465C138.756,-235.1366 157.1616,-229.5492 173.6895,-224.5317"/>
<polygon fill="#191970" stroke="#191970" points="120.2084,-237.1093 111.6563,-243.3633 122.2418,-243.8075 120.2084,-237.1093"/>
</g>
<!-- Node13 -->
<g id="node13" class="node">
<title>Node13</title>
<g id="a_node13"><a xlink:href="../../dc/d65/classPhotonJet.html#a3f9d3ec941f851bc2246ceb0c5362c9f" target="_top" xlink:title="PhotonJet::process\l_event">
<polygon fill="none" stroke="#000000" points="171.5,-141.5 171.5,-173.5 281.5,-173.5 281.5,-141.5 171.5,-141.5"/>
<text text-anchor="start" x="179.5" y="-160.5" font-family="FreeSans" font-size="10.00" fill="#000000">PhotonJet::process</text>
<text text-anchor="middle" x="226.5" y="-148.5" font-family="FreeSans" font-size="10.00" fill="#000000">_event</text>
</a>
</g>
</g>
<!-- Node1&#45;&gt;Node13 -->
<g id="edge12" class="edge">
<title>Node1&#45;&gt;Node13</title>
<path fill="none" stroke="#191970" d="M82.7446,-236.1446C100.9085,-219.6519 127.0079,-197.9932 153,-183.5 159.6201,-179.8086 166.8611,-176.4881 174.1344,-173.5527"/>
<polygon fill="#191970" stroke="#191970" points="79.9549,-233.9569 74.9863,-243.3145 84.7059,-239.0978 79.9549,-233.9569"/>
</g>
<!-- Node14 -->
<g id="node14" class="node">
<title>Node14</title>
<g id="a_node14"><a xlink:href="../../dc/dfb/classGenFitTrackProp.html#a92a3570ed1802ba0f7e9eeb50eb9a6ec" target="_top" xlink:title="Process Event, called for each event.">
<polygon fill="none" stroke="#000000" points="155,-90.5 155,-122.5 298,-122.5 298,-90.5 155,-90.5"/>
<text text-anchor="start" x="163" y="-109.5" font-family="FreeSans" font-size="10.00" fill="#000000">GenFitTrackProp::process</text>
<text text-anchor="middle" x="226.5" y="-97.5" font-family="FreeSans" font-size="10.00" fill="#000000">_event</text>
</a>
</g>
</g>
<!-- Node1&#45;&gt;Node14 -->
<g id="edge13" class="edge">
<title>Node1&#45;&gt;Node14</title>
<path fill="none" stroke="#191970" d="M71.1488,-234.5166C86.7547,-206.0416 115.8421,-159.9092 153,-132.5 158.1195,-128.7237 163.8366,-125.4576 169.7593,-122.6417"/>
<polygon fill="#191970" stroke="#191970" points="68.0047,-232.9741 66.381,-243.4438 74.1793,-236.2718 68.0047,-232.9741"/>
</g>
<!-- Node15 -->
<g id="node15" class="node">
<title>Node15</title>
<g id="a_node15"><a xlink:href="../../db/d4b/classEMCalAna.html#a3b829b80df0fd8625130f3d9c11f5d3d" target="_top" xlink:title="EMCalAna::process_event">
<polygon fill="none" stroke="#000000" points="153,-51.5 153,-71.5 300,-71.5 300,-51.5 153,-51.5"/>
<text text-anchor="middle" x="226.5" y="-58.5" font-family="FreeSans" font-size="10.00" fill="#000000">EMCalAna::process_event</text>
</a>
</g>
</g>
<!-- Node1&#45;&gt;Node15 -->
<g id="edge14" class="edge">
<title>Node1&#45;&gt;Node15</title>
<path fill="none" stroke="#191970" d="M65.1727,-233.3786C76.5076,-194.3672 103.2825,-121.2304 153,-81.5 158.0622,-77.4547 163.8792,-74.2253 169.9768,-71.6476"/>
<polygon fill="#191970" stroke="#191970" points="61.6873,-232.8485 62.3789,-243.4207 68.4312,-234.7247 61.6873,-232.8485"/>
</g>
<!-- Node16 -->
<g id="node16" class="node">
<title>Node16</title>
<g id="a_node16"><a xlink:href="../../de/da4/classEMCalCalib.html#aa70da6270813e434e35da37b6ec2a350" target="_top" xlink:title="EMCalCalib::process\l_event">
<polygon fill="none" stroke="#000000" points="167.5,-.5 167.5,-32.5 285.5,-32.5 285.5,-.5 167.5,-.5"/>
<text text-anchor="start" x="175.5" y="-19.5" font-family="FreeSans" font-size="10.00" fill="#000000">EMCalCalib::process</text>
<text text-anchor="middle" x="226.5" y="-7.5" font-family="FreeSans" font-size="10.00" fill="#000000">_event</text>
</a>
</g>
</g>
<!-- Node1&#45;&gt;Node16 -->
<g id="edge15" class="edge">
<title>Node1&#45;&gt;Node16</title>
<path fill="none" stroke="#191970" d="M62.8741,-233.4668C71.7854,-188.35 96.2201,-95.4003 153,-42.5 157.2584,-38.5326 162.1599,-35.1644 167.3684,-32.3061"/>
<polygon fill="#191970" stroke="#191970" points="59.4239,-232.8764 61.0215,-243.3501 66.3041,-234.1661 59.4239,-232.8764"/>
</g>
<!-- Node3 -->
<g id="node3" class="node">
<title>Node3</title>
<g id="a_node3"><a xlink:href="../../dd/d75/classJetRecoEval.html#ae02e058aa7f403d5853482b5d06c01c9" target="_top" xlink:title="reinitialize the eval for a new event">
<polygon fill="none" stroke="#000000" points="336,-504.5 336,-524.5 476,-524.5 476,-504.5 336,-504.5"/>
<text text-anchor="middle" x="406" y="-511.5" font-family="FreeSans" font-size="10.00" fill="#000000">JetRecoEval::next_event</text>
</a>
</g>
</g>
<!-- Node2&#45;&gt;Node3 -->
<g id="edge2" class="edge">
<title>Node2&#45;&gt;Node3</title>
<path fill="none" stroke="#191970" d="M290.3794,-514.5C305.1247,-514.5 320.8886,-514.5 335.8837,-514.5"/>
<polygon fill="#191970" stroke="#191970" points="290.356,-511.0001 280.3559,-514.5 290.3559,-518.0001 290.356,-511.0001"/>
</g>
<!-- Node4 -->
<g id="node4" class="node">
<title>Node4</title>
<g id="a_node4"><a xlink:href="../../dd/df3/classJetEvalStack.html#ab85ba05ab4fea5909c8faa238ba5f8e6" target="_top" xlink:title="JetEvalStack::next\l_event">
<polygon fill="none" stroke="#000000" points="512,-498.5 512,-530.5 621,-530.5 621,-498.5 512,-498.5"/>
<text text-anchor="start" x="520" y="-517.5" font-family="FreeSans" font-size="10.00" fill="#000000">JetEvalStack::next</text>
<text text-anchor="middle" x="566.5" y="-505.5" font-family="FreeSans" font-size="10.00" fill="#000000">_event</text>
</a>
</g>
</g>
<!-- Node3&#45;&gt;Node4 -->
<g id="edge3" class="edge">
<title>Node3&#45;&gt;Node4</title>
<path fill="none" stroke="#191970" d="M486.6705,-514.5C495.1104,-514.5 503.5441,-514.5 511.5983,-514.5"/>
<polygon fill="#191970" stroke="#191970" points="486.3977,-511.0001 476.3976,-514.5 486.3976,-518.0001 486.3977,-511.0001"/>
</g>
<!-- Node5 -->
<g id="node5" class="node">
<title>Node5</title>
<g id="a_node5"><a xlink:href="../../d1/df4/classJetEvaluator.html#ad83508ae828d1f2e4a83a948465a0cd2" target="_top" xlink:title="JetEvaluator::process\l_event">
<polygon fill="none" stroke="#000000" points="657,-524.5 657,-556.5 781,-556.5 781,-524.5 657,-524.5"/>
<text text-anchor="start" x="665" y="-543.5" font-family="FreeSans" font-size="10.00" fill="#000000">JetEvaluator::process</text>
<text text-anchor="middle" x="719" y="-531.5" font-family="FreeSans" font-size="10.00" fill="#000000">_event</text>
</a>
</g>
</g>
<!-- Node4&#45;&gt;Node5 -->
<g id="edge4" class="edge">
<title>Node4&#45;&gt;Node5</title>
<path fill="none" stroke="#191970" d="M631.079,-525.5102C639.66,-526.9732 648.443,-528.4706 656.9793,-529.926"/>
<polygon fill="#191970" stroke="#191970" points="631.5713,-522.0437 621.1253,-523.8132 630.3948,-528.9441 631.5713,-522.0437"/>
</g>
<!-- Node6 -->
<g id="node6" class="node">
<title>Node6</title>
<g id="a_node6"><a xlink:href="../../d8/de2/classJetEnergies.html#a6acaa9b2ba1fe7353781d2f5d476e8d1" target="_top" xlink:title="JetEnergies::process\l_event">
<polygon fill="none" stroke="#000000" points="659,-473.5 659,-505.5 779,-505.5 779,-473.5 659,-473.5"/>
<text text-anchor="start" x="667" y="-492.5" font-family="FreeSans" font-size="10.00" fill="#000000">JetEnergies::process</text>
<text text-anchor="middle" x="719" y="-480.5" font-family="FreeSans" font-size="10.00" fill="#000000">_event</text>
</a>
</g>
</g>
<!-- Node4&#45;&gt;Node6 -->
<g id="edge5" class="edge">
<title>Node4&#45;&gt;Node6</title>
<path fill="none" stroke="#191970" d="M631.009,-503.9248C640.2267,-502.4137 649.6788,-500.8641 658.8092,-499.3673"/>
<polygon fill="#191970" stroke="#191970" points="630.4273,-500.4733 621.1253,-505.545 631.5598,-507.3811 630.4273,-500.4733"/>
</g>
</g>
</svg>
