<?xml version="1.0" encoding="UTF-8" standalone="no"?>
<!DOCTYPE svg PUBLIC "-//W3C//DTD SVG 1.1//EN"
 "http://www.w3.org/Graphics/SVG/1.1/DTD/svg11.dtd">
<!-- Generated by graphviz version 2.40.1 (20161225.0304)
 -->
<!-- Title: PHG4InttDigitizer::set_adc_scale Pages: 1 -->
<svg width="399pt" height="68pt"
 viewBox="0.00 0.00 399.00 68.00" xmlns="http://www.w3.org/2000/svg" xmlns:xlink="http://www.w3.org/1999/xlink">
<g id="graph0" class="graph" transform="scale(1 1) rotate(0) translate(4 64)">
<title>PHG4InttDigitizer::set_adc_scale</title>
<!-- Node1 -->
<g id="node1" class="node">
<title>Node1</title>
<polygon fill="#bfbfbf" stroke="#000000" points="0,-13.5 0,-45.5 109,-45.5 109,-13.5 0,-13.5"/>
<text text-anchor="start" x="8" y="-32.5" font-family="FreeSans" font-size="10.00" fill="#000000">PHG4InttDigitizer::</text>
<text text-anchor="middle" x="54.5" y="-20.5" font-family="FreeSans" font-size="10.00" fill="#000000">set_adc_scale</text>
</g>
<!-- Node2 -->
<g id="node2" class="node">
<title>Node2</title>
<g id="a_node2"><a xlink:href="../../da/d3c/G4__Tracking_8C.html#af2e3ad3bfe6a11f216bd8aed180c4b0e" target="_top" xlink:title="Tracking_Clus">
<polygon fill="none" stroke="#000000" points="145,-19.5 145,-39.5 231,-39.5 231,-19.5 145,-19.5"/>
<text text-anchor="middle" x="188" y="-26.5" font-family="FreeSans" font-size="10.00" fill="#000000">Tracking_Clus</text>
</a>
</g>
</g>
<!-- Node1&#45;&gt;Node2 -->
<g id="edge1" class="edge">
<title>Node1&#45;&gt;Node2</title>
<path fill="none" stroke="#191970" d="M119.2381,-29.5C127.8488,-29.5 136.5042,-29.5 144.6304,-29.5"/>
<polygon fill="#191970" stroke="#191970" points="119.1848,-26.0001 109.1848,-29.5 119.1847,-33.0001 119.1848,-26.0001"/>
</g>
<!-- Node3 -->
<g id="node3" class="node">
<title>Node3</title>
<g id="a_node3"><a xlink:href="../../d7/d9e/Fun4All__G4__fsPHENIX_8C.html#af48911d394d2412e817583700f2bbee2" target="_top" xlink:title="Fun4All_G4_fsPHENIX">
<polygon fill="none" stroke="#000000" points="267,-39.5 267,-59.5 391,-59.5 391,-39.5 267,-39.5"/>
<text text-anchor="middle" x="329" y="-46.5" font-family="FreeSans" font-size="10.00" fill="#000000">Fun4All_G4_fsPHENIX</text>
</a>
</g>
</g>
<!-- Node2&#45;&gt;Node3 -->
<g id="edge2" class="edge">
<title>Node2&#45;&gt;Node3</title>
<path fill="none" stroke="#191970" d="M241.149,-37.0389C249.5839,-38.2353 258.3721,-39.4819 266.9886,-40.7041"/>
<polygon fill="#191970" stroke="#191970" points="241.4633,-33.5485 231.0708,-35.6093 240.4801,-40.4791 241.4633,-33.5485"/>
</g>
<!-- Node4 -->
<g id="node4" class="node">
<title>Node4</title>
<g id="a_node4"><a xlink:href="../../d5/d2c/macros_2blob_2master_2macros_2g4simulations_2Fun4All__G4__sPHENIX_8C.html#a6eaaa492d7023ec86c562dc63aa1e5a4" target="_top" xlink:title="Fun4All_G4_sPHENIX">
<polygon fill="none" stroke="#000000" points="268.5,-.5 268.5,-20.5 389.5,-20.5 389.5,-.5 268.5,-.5"/>
<text text-anchor="middle" x="329" y="-7.5" font-family="FreeSans" font-size="10.00" fill="#000000">Fun4All_G4_sPHENIX</text>
</a>
</g>
</g>
<!-- Node2&#45;&gt;Node4 -->
<g id="edge3" class="edge">
<title>Node2&#45;&gt;Node4</title>
<path fill="none" stroke="#191970" d="M241.2284,-22.3274C250.0629,-21.1369 259.2829,-19.8945 268.2858,-18.6813"/>
<polygon fill="#191970" stroke="#191970" points="240.5138,-18.892 231.0708,-23.6961 241.4487,-25.8293 240.5138,-18.892"/>
</g>
</g>
</svg>
