<?xml version="1.0" encoding="UTF-8" standalone="no"?>
<!DOCTYPE svg PUBLIC "-//W3C//DTD SVG 1.1//EN"
 "http://www.w3.org/Graphics/SVG/1.1/DTD/svg11.dtd">
<!-- Generated by graphviz version 2.40.1 (20161225.0304)
 -->
<!-- Title: coresoftware/blob/master/generators/phhepmc/Fun4AllHepMCInputManager.h Pages: 1 -->
<svg width="989pt" height="215pt"
 viewBox="0.00 0.00 988.50 215.00" xmlns="http://www.w3.org/2000/svg" xmlns:xlink="http://www.w3.org/1999/xlink">
<g id="graph0" class="graph" transform="scale(1 1) rotate(0) translate(4 211)">
<title>coresoftware/blob/master/generators/phhepmc/Fun4AllHepMCInputManager.h</title>
<!-- Node1 -->
<g id="node1" class="node">
<title>Node1</title>
<polygon fill="#bfbfbf" stroke="#000000" points="366,-162.5 366,-206.5 554,-206.5 554,-162.5 366,-162.5"/>
<text text-anchor="start" x="374" y="-193.5" font-family="FreeSans" font-size="10.00" fill="#000000">coresoftware/blob/master</text>
<text text-anchor="start" x="374" y="-181.5" font-family="FreeSans" font-size="10.00" fill="#000000">/generators/phhepmc/Fun4AllHep</text>
<text text-anchor="middle" x="460" y="-169.5" font-family="FreeSans" font-size="10.00" fill="#000000">MCInputManager.h</text>
</g>
<!-- Node2 -->
<g id="node2" class="node">
<title>Node2</title>
<g id="a_node2"><a xlink:href="../../d4/d0c/Fun4AllHepMCInputManager_8cc.html" target="_top" xlink:title="coresoftware/blob/master\l/generators/phhepmc/Fun4AllHep\lMCInputManager.cc">
<polygon fill="none" stroke="#000000" points="0,-81.5 0,-125.5 188,-125.5 188,-81.5 0,-81.5"/>
<text text-anchor="start" x="8" y="-112.5" font-family="FreeSans" font-size="10.00" fill="#000000">coresoftware/blob/master</text>
<text text-anchor="start" x="8" y="-100.5" font-family="FreeSans" font-size="10.00" fill="#000000">/generators/phhepmc/Fun4AllHep</text>
<text text-anchor="middle" x="94" y="-88.5" font-family="FreeSans" font-size="10.00" fill="#000000">MCInputManager.cc</text>
</a>
</g>
</g>
<!-- Node1&#45;&gt;Node2 -->
<g id="edge1" class="edge">
<title>Node1&#45;&gt;Node2</title>
<path fill="none" stroke="#191970" d="M355.6929,-161.4156C302.9728,-149.7481 239.4891,-135.6984 188.2522,-124.3591"/>
<polygon fill="#191970" stroke="#191970" points="355.2258,-164.8969 365.7459,-163.6405 356.7385,-158.0623 355.2258,-164.8969"/>
</g>
<!-- Node3 -->
<g id="node3" class="node">
<title>Node3</title>
<g id="a_node3"><a xlink:href="../../d5/db1/Fun4AllHepMCPileupInputManager_8h.html" target="_top" xlink:title="coresoftware/blob/master\l/generators/phhepmc/Fun4AllHep\lMCPileupInputManager.h">
<polygon fill="none" stroke="#000000" points="244,-81.5 244,-125.5 432,-125.5 432,-81.5 244,-81.5"/>
<text text-anchor="start" x="252" y="-112.5" font-family="FreeSans" font-size="10.00" fill="#000000">coresoftware/blob/master</text>
<text text-anchor="start" x="252" y="-100.5" font-family="FreeSans" font-size="10.00" fill="#000000">/generators/phhepmc/Fun4AllHep</text>
<text text-anchor="middle" x="338" y="-88.5" font-family="FreeSans" font-size="10.00" fill="#000000">MCPileupInputManager.h</text>
</a>
</g>
</g>
<!-- Node1&#45;&gt;Node3 -->
<g id="edge2" class="edge">
<title>Node1&#45;&gt;Node3</title>
<path fill="none" stroke="#191970" d="M417.9221,-156.563C402.6771,-146.4414 385.682,-135.1577 371.2967,-125.6068"/>
<polygon fill="#191970" stroke="#191970" points="416.396,-159.751 426.663,-162.3664 420.2679,-153.9193 416.396,-159.751"/>
</g>
<!-- Node5 -->
<g id="node5" class="node">
<title>Node5</title>
<g id="a_node5"><a xlink:href="../../d5/d2c/macros_2blob_2master_2macros_2g4simulations_2Fun4All__G4__sPHENIX_8C.html" target="_top" xlink:title="macros/blob/master\l/macros/g4simulations\l/Fun4All_G4_sPHENIX.C">
<polygon fill="none" stroke="#000000" points="90.5,-.5 90.5,-44.5 225.5,-44.5 225.5,-.5 90.5,-.5"/>
<text text-anchor="start" x="98.5" y="-31.5" font-family="FreeSans" font-size="10.00" fill="#000000">macros/blob/master</text>
<text text-anchor="start" x="98.5" y="-19.5" font-family="FreeSans" font-size="10.00" fill="#000000">/macros/g4simulations</text>
<text text-anchor="middle" x="158" y="-7.5" font-family="FreeSans" font-size="10.00" fill="#000000">/Fun4All_G4_sPHENIX.C</text>
</a>
</g>
</g>
<!-- Node1&#45;&gt;Node5 -->
<g id="edge8" class="edge">
<title>Node1&#45;&gt;Node5</title>
<path fill="none" stroke="#191970" d="M355.8645,-172.5118C315.5559,-164.1643 270.6417,-150.0073 235,-126 226.8269,-120.4948 193.4973,-73.6393 173.4644,-44.8923"/>
<polygon fill="#191970" stroke="#191970" points="355.2448,-175.9569 365.7334,-174.4604 356.6008,-169.0895 355.2448,-175.9569"/>
</g>
<!-- Node6 -->
<g id="node6" class="node">
<title>Node6</title>
<g id="a_node6"><a xlink:href="../../de/da9/ReadClustersRunTracking_8C.html" target="_top" xlink:title="macros/blob/master\l/macros/g4simulations\l/ReadClustersRunTracking.C">
<polygon fill="none" stroke="#000000" points="450.5,-.5 450.5,-44.5 609.5,-44.5 609.5,-.5 450.5,-.5"/>
<text text-anchor="start" x="458.5" y="-31.5" font-family="FreeSans" font-size="10.00" fill="#000000">macros/blob/master</text>
<text text-anchor="start" x="458.5" y="-19.5" font-family="FreeSans" font-size="10.00" fill="#000000">/macros/g4simulations</text>
<text text-anchor="middle" x="530" y="-7.5" font-family="FreeSans" font-size="10.00" fill="#000000">/ReadClustersRunTracking.C</text>
</a>
</g>
</g>
<!-- Node1&#45;&gt;Node6 -->
<g id="edge9" class="edge">
<title>Node1&#45;&gt;Node6</title>
<path fill="none" stroke="#191970" d="M461.4964,-152.3569C463.5197,-131.1998 468.2074,-103.3833 479,-81 485.4957,-67.5282 495.9466,-54.7408 505.7016,-44.577"/>
<polygon fill="#191970" stroke="#191970" points="457.9976,-152.2028 460.6825,-162.4518 464.9749,-152.7654 457.9976,-152.2028"/>
</g>
<!-- Node7 -->
<g id="node7" class="node">
<title>Node7</title>
<g id="a_node7"><a xlink:href="../../da/d02/Fun4All__G4__EICDetector_8C.html" target="_top" xlink:title="macros/blob/master\l/macros/g4simulations\l/Fun4All_G4_EICDetector.C">
<polygon fill="none" stroke="#000000" points="488,-81.5 488,-125.5 640,-125.5 640,-81.5 488,-81.5"/>
<text text-anchor="start" x="496" y="-112.5" font-family="FreeSans" font-size="10.00" fill="#000000">macros/blob/master</text>
<text text-anchor="start" x="496" y="-100.5" font-family="FreeSans" font-size="10.00" fill="#000000">/macros/g4simulations</text>
<text text-anchor="middle" x="564" y="-88.5" font-family="FreeSans" font-size="10.00" fill="#000000">/Fun4All_G4_EICDetector.C</text>
</a>
</g>
</g>
<!-- Node1&#45;&gt;Node7 -->
<g id="edge6" class="edge">
<title>Node1&#45;&gt;Node7</title>
<path fill="none" stroke="#191970" d="M496.5999,-155.9943C509.4062,-146.0201 523.5823,-134.9792 535.6159,-125.6068"/>
<polygon fill="#191970" stroke="#191970" points="494.1573,-153.4604 488.4185,-162.3664 498.4586,-158.983 494.1573,-153.4604"/>
</g>
<!-- Node8 -->
<g id="node8" class="node">
<title>Node8</title>
<g id="a_node8"><a xlink:href="../../d7/d9e/Fun4All__G4__fsPHENIX_8C.html" target="_top" xlink:title="macros/blob/master\l/macros/g4simulations\l/Fun4All_G4_fsPHENIX.C">
<polygon fill="none" stroke="#000000" points="658.5,-81.5 658.5,-125.5 797.5,-125.5 797.5,-81.5 658.5,-81.5"/>
<text text-anchor="start" x="666.5" y="-112.5" font-family="FreeSans" font-size="10.00" fill="#000000">macros/blob/master</text>
<text text-anchor="start" x="666.5" y="-100.5" font-family="FreeSans" font-size="10.00" fill="#000000">/macros/g4simulations</text>
<text text-anchor="middle" x="728" y="-88.5" font-family="FreeSans" font-size="10.00" fill="#000000">/Fun4All_G4_fsPHENIX.C</text>
</a>
</g>
</g>
<!-- Node1&#45;&gt;Node8 -->
<g id="edge7" class="edge">
<title>Node1&#45;&gt;Node8</title>
<path fill="none" stroke="#191970" d="M542.6586,-159.5174C579.7305,-148.3128 622.9791,-135.2414 658.3703,-124.5448"/>
<polygon fill="#191970" stroke="#191970" points="541.4379,-156.2299 532.8782,-162.4734 543.4631,-162.9305 541.4379,-156.2299"/>
</g>
<!-- Node9 -->
<g id="node9" class="node">
<title>Node9</title>
<g id="a_node9"><a xlink:href="../../d4/dfa/Fun4All__Generator__Display_8C.html" target="_top" xlink:title="tutorials/blob/master\l/eventgenerator_display\l/Fun4All_Generator_Display.C">
<polygon fill="none" stroke="#000000" points="815.5,-81.5 815.5,-125.5 980.5,-125.5 980.5,-81.5 815.5,-81.5"/>
<text text-anchor="start" x="823.5" y="-112.5" font-family="FreeSans" font-size="10.00" fill="#000000">tutorials/blob/master</text>
<text text-anchor="start" x="823.5" y="-100.5" font-family="FreeSans" font-size="10.00" fill="#000000">/eventgenerator_display</text>
<text text-anchor="middle" x="898" y="-88.5" font-family="FreeSans" font-size="10.00" fill="#000000">/Fun4All_Generator_Display.C</text>
</a>
</g>
</g>
<!-- Node1&#45;&gt;Node9 -->
<g id="edge10" class="edge">
<title>Node1&#45;&gt;Node9</title>
<path fill="none" stroke="#191970" d="M564.2684,-169.0224C633.3705,-158.2493 725.8981,-142.8378 807,-126 809.7089,-125.4376 812.4593,-124.8507 815.2337,-124.245"/>
<polygon fill="#191970" stroke="#191970" points="563.592,-165.5854 554.2471,-170.5779 564.6657,-172.5026 563.592,-165.5854"/>
</g>
<!-- Node4 -->
<g id="node4" class="node">
<title>Node4</title>
<g id="a_node4"><a xlink:href="../../d6/dde/Fun4AllHepMCPileupInputManager_8cc.html" target="_top" xlink:title="coresoftware/blob/master\l/generators/phhepmc/Fun4AllHep\lMCPileupInputManager.cc">
<polygon fill="none" stroke="#000000" points="244,-.5 244,-44.5 432,-44.5 432,-.5 244,-.5"/>
<text text-anchor="start" x="252" y="-31.5" font-family="FreeSans" font-size="10.00" fill="#000000">coresoftware/blob/master</text>
<text text-anchor="start" x="252" y="-19.5" font-family="FreeSans" font-size="10.00" fill="#000000">/generators/phhepmc/Fun4AllHep</text>
<text text-anchor="middle" x="338" y="-7.5" font-family="FreeSans" font-size="10.00" fill="#000000">MCPileupInputManager.cc</text>
</a>
</g>
</g>
<!-- Node3&#45;&gt;Node4 -->
<g id="edge3" class="edge">
<title>Node3&#45;&gt;Node4</title>
<path fill="none" stroke="#191970" d="M338,-71.2457C338,-62.3118 338,-52.8188 338,-44.6068"/>
<polygon fill="#191970" stroke="#191970" points="334.5001,-71.3664 338,-81.3664 341.5001,-71.3664 334.5001,-71.3664"/>
</g>
<!-- Node3&#45;&gt;Node5 -->
<g id="edge4" class="edge">
<title>Node3&#45;&gt;Node5</title>
<path fill="none" stroke="#191970" d="M279.6762,-77.2543C256.2495,-66.7123 229.5406,-54.6933 207.1263,-44.6068"/>
<polygon fill="#191970" stroke="#191970" points="278.2587,-80.4544 288.8142,-81.3664 281.1313,-74.071 278.2587,-80.4544"/>
</g>
<!-- Node3&#45;&gt;Node6 -->
<g id="edge5" class="edge">
<title>Node3&#45;&gt;Node6</title>
<path fill="none" stroke="#191970" d="M399.6695,-77.4832C424.8574,-66.8571 453.6764,-54.699 477.7992,-44.5222"/>
<polygon fill="#191970" stroke="#191970" points="398.0644,-74.3615 390.2112,-81.4734 400.7854,-80.8111 398.0644,-74.3615"/>
</g>
</g>
</svg>
