<?xml version="1.0" encoding="UTF-8" standalone="no"?>
<!DOCTYPE svg PUBLIC "-//W3C//DTD SVG 1.1//EN"
 "http://www.w3.org/Graphics/SVG/1.1/DTD/svg11.dtd">
<!-- Generated by graphviz version 2.40.1 (20161225.0304)
 -->
<!-- Title: JetReco::set_algo_node Pages: 1 -->
<svg width="461pt" height="542pt"
 viewBox="0.00 0.00 461.00 542.00" xmlns="http://www.w3.org/2000/svg" xmlns:xlink="http://www.w3.org/1999/xlink">
<g id="graph0" class="graph" transform="scale(1 1) rotate(0) translate(4 538)">
<title>JetReco::set_algo_node</title>
<!-- Node1 -->
<g id="node1" class="node">
<title>Node1</title>
<polygon fill="#bfbfbf" stroke="#000000" points="0,-203.5 0,-223.5 134,-223.5 134,-203.5 0,-203.5"/>
<text text-anchor="middle" x="67" y="-210.5" font-family="FreeSans" font-size="10.00" fill="#000000">JetReco::set_algo_node</text>
</g>
<!-- Node2 -->
<g id="node2" class="node">
<title>Node2</title>
<g id="a_node2"><a xlink:href="../../de/da2/macros_2blob_2master_2macros_2g4simulations_2G4__HIJetReco_8C.html#a9cf9382ceffe61f139e2b7ebb82609bc" target="_top" xlink:title="HIJetReco">
<polygon fill="none" stroke="#000000" points="178,-223.5 178,-243.5 242,-243.5 242,-223.5 178,-223.5"/>
<text text-anchor="middle" x="210" y="-230.5" font-family="FreeSans" font-size="10.00" fill="#000000">HIJetReco</text>
</a>
</g>
</g>
<!-- Node1&#45;&gt;Node2 -->
<g id="edge1" class="edge">
<title>Node1&#45;&gt;Node2</title>
<path fill="none" stroke="#191970" d="M144.3034,-224.3117C156.1715,-225.9715 167.8249,-227.6014 177.9442,-229.0167"/>
<polygon fill="#191970" stroke="#191970" points="144.7011,-220.8333 134.3127,-222.9144 143.7315,-227.7658 144.7011,-220.8333"/>
</g>
<!-- Node12 -->
<g id="node12" class="node">
<title>Node12</title>
<g id="a_node12"><a xlink:href="../../de/d5c/macros_2blob_2master_2macros_2g4simulations_2G4__FwdJets_8C.html#a3635dcde22631de66ae1b3668981a96b" target="_top" xlink:title="Jet_FwdReco">
<polygon fill="none" stroke="#000000" points="170,-333.5 170,-353.5 250,-353.5 250,-333.5 170,-333.5"/>
<text text-anchor="middle" x="210" y="-340.5" font-family="FreeSans" font-size="10.00" fill="#000000">Jet_FwdReco</text>
</a>
</g>
</g>
<!-- Node1&#45;&gt;Node12 -->
<g id="edge11" class="edge">
<title>Node1&#45;&gt;Node12</title>
<path fill="none" stroke="#191970" d="M85.9579,-230.7345C116.2033,-258.2303 174.4449,-311.1772 198.8312,-333.3465"/>
<polygon fill="#191970" stroke="#191970" points="87.9748,-227.8378 78.221,-223.7009 83.266,-233.0174 87.9748,-227.8378"/>
</g>
<!-- Node16 -->
<g id="node16" class="node">
<title>Node16</title>
<g id="a_node16"><a xlink:href="../../d1/d32/G4__TruthJets_8C.html#ae88e629b838c582762b252f4487eac6e" target="_top" xlink:title="Jet_Reco">
<polygon fill="none" stroke="#000000" points="180.5,-184.5 180.5,-204.5 239.5,-204.5 239.5,-184.5 180.5,-184.5"/>
<text text-anchor="middle" x="210" y="-191.5" font-family="FreeSans" font-size="10.00" fill="#000000">Jet_Reco</text>
</a>
</g>
</g>
<!-- Node1&#45;&gt;Node16 -->
<g id="edge20" class="edge">
<title>Node1&#45;&gt;Node16</title>
<path fill="none" stroke="#191970" d="M144.4967,-203.2032C157.1659,-201.5199 169.5822,-199.8702 180.1395,-198.4675"/>
<polygon fill="#191970" stroke="#191970" points="143.7645,-199.7697 134.3127,-204.5564 144.6866,-206.7087 143.7645,-199.7697"/>
</g>
<!-- Node17 -->
<g id="node17" class="node">
<title>Node17</title>
<g id="a_node17"><a xlink:href="../../dc/dd1/run__macro_8C.html#a73349fa424161f0fc04887bbce22b0ea" target="_top" xlink:title="run_macro">
<polygon fill="none" stroke="#000000" points="175,-145.5 175,-165.5 245,-165.5 245,-145.5 175,-145.5"/>
<text text-anchor="middle" x="210" y="-152.5" font-family="FreeSans" font-size="10.00" fill="#000000">run_macro</text>
</a>
</g>
</g>
<!-- Node1&#45;&gt;Node17 -->
<g id="edge21" class="edge">
<title>Node1&#45;&gt;Node17</title>
<path fill="none" stroke="#191970" d="M101.2958,-199.5898C127.0389,-189.1486 161.7011,-175.0898 184.8969,-165.6817"/>
<polygon fill="#191970" stroke="#191970" points="99.86,-196.3952 91.9087,-203.3972 102.491,-202.8819 99.86,-196.3952"/>
</g>
<!-- Node3 -->
<g id="node3" class="node">
<title>Node3</title>
<g id="a_node3"><a xlink:href="../../da/d02/Fun4All__G4__EICDetector_8C.html#afbe82cefa1d1fd031d9a8586b7bb68c6" target="_top" xlink:title="Fun4All_G4_EICDetector">
<polygon fill="none" stroke="#000000" points="300,-294.5 300,-314.5 439,-314.5 439,-294.5 300,-294.5"/>
<text text-anchor="middle" x="369.5" y="-301.5" font-family="FreeSans" font-size="10.00" fill="#000000">Fun4All_G4_EICDetector</text>
</a>
</g>
</g>
<!-- Node2&#45;&gt;Node3 -->
<g id="edge2" class="edge">
<title>Node2&#45;&gt;Node3</title>
<path fill="none" stroke="#191970" d="M229.9011,-250.2274C244.553,-261.7357 265.4256,-276.5114 286,-285.5 294.1742,-289.0712 303.1035,-292.0121 311.985,-294.4219"/>
<polygon fill="#191970" stroke="#191970" points="232.0259,-247.4446 222.0424,-243.8975 227.6348,-252.8961 232.0259,-247.4446"/>
</g>
<!-- Node4 -->
<g id="node4" class="node">
<title>Node4</title>
<g id="a_node4"><a xlink:href="../../df/d4b/Fun4All__G4__EICDetector__LQ__analysis_8C.html#af903e98824d083a08b353ac15996ee0e" target="_top" xlink:title="Fun4All_G4_EICDetector\l_LQ_analysis">
<polygon fill="none" stroke="#000000" points="300,-243.5 300,-275.5 439,-275.5 439,-243.5 300,-243.5"/>
<text text-anchor="start" x="308" y="-262.5" font-family="FreeSans" font-size="10.00" fill="#000000">Fun4All_G4_EICDetector</text>
<text text-anchor="middle" x="369.5" y="-250.5" font-family="FreeSans" font-size="10.00" fill="#000000">_LQ_analysis</text>
</a>
</g>
</g>
<!-- Node2&#45;&gt;Node4 -->
<g id="edge3" class="edge">
<title>Node2&#45;&gt;Node4</title>
<path fill="none" stroke="#191970" d="M252.4379,-240.4178C266.9621,-242.7854 283.6177,-245.5004 299.7223,-248.1256"/>
<polygon fill="#191970" stroke="#191970" points="252.7101,-236.916 242.2772,-238.7615 251.5838,-243.8248 252.7101,-236.916"/>
</g>
<!-- Node5 -->
<g id="node5" class="node">
<title>Node5</title>
<g id="a_node5"><a xlink:href="../../d1/daf/Fun4All__G4__EICDetector__LQ__analysis__nf_8C.html#a5022607d21247b87dd208b0828905147" target="_top" xlink:title="Fun4All_G4_EICDetector\l_LQ_analysis_nf">
<polygon fill="none" stroke="#000000" points="300,-192.5 300,-224.5 439,-224.5 439,-192.5 300,-192.5"/>
<text text-anchor="start" x="308" y="-211.5" font-family="FreeSans" font-size="10.00" fill="#000000">Fun4All_G4_EICDetector</text>
<text text-anchor="middle" x="369.5" y="-199.5" font-family="FreeSans" font-size="10.00" fill="#000000">_LQ_analysis_nf</text>
</a>
</g>
</g>
<!-- Node2&#45;&gt;Node5 -->
<g id="edge4" class="edge">
<title>Node2&#45;&gt;Node5</title>
<path fill="none" stroke="#191970" d="M252.4379,-226.8483C266.9621,-224.5718 283.6177,-221.9612 299.7223,-219.4369"/>
<polygon fill="#191970" stroke="#191970" points="251.6146,-223.4345 242.2772,-228.4409 252.6986,-230.3501 251.6146,-223.4345"/>
</g>
<!-- Node6 -->
<g id="node6" class="node">
<title>Node6</title>
<g id="a_node6"><a xlink:href="../../d4/df5/Fun4All__G4__EICDetector__LQ__reference_8C.html#a2feefc472f17f90b3cbe74897d049f75" target="_top" xlink:title="Fun4All_G4_EICDetector\l_LQ_reference">
<polygon fill="none" stroke="#000000" points="300,-372.5 300,-404.5 439,-404.5 439,-372.5 300,-372.5"/>
<text text-anchor="start" x="308" y="-391.5" font-family="FreeSans" font-size="10.00" fill="#000000">Fun4All_G4_EICDetector</text>
<text text-anchor="middle" x="369.5" y="-379.5" font-family="FreeSans" font-size="10.00" fill="#000000">_LQ_reference</text>
</a>
</g>
</g>
<!-- Node2&#45;&gt;Node6 -->
<g id="edge5" class="edge">
<title>Node2&#45;&gt;Node6</title>
<path fill="none" stroke="#191970" d="M216.3362,-253.3771C226.4619,-281.9573 249.0073,-334.4123 286,-363.5 290.2823,-366.8672 295.0115,-369.7818 299.9772,-372.3045"/>
<polygon fill="#191970" stroke="#191970" points="219.5794,-252.0419 213.0593,-243.6909 212.9486,-254.2851 219.5794,-252.0419"/>
</g>
<!-- Node7 -->
<g id="node7" class="node">
<title>Node7</title>
<g id="a_node7"><a xlink:href="../../d3/d51/Fun4All__G4__EICDetector__RICH_8C.html#a5739502b0a7a1ba782c01069f77e933f" target="_top" xlink:title="Fun4All_G4_EICDetector_RICH">
<polygon fill="none" stroke="#000000" points="286,-333.5 286,-353.5 453,-353.5 453,-333.5 286,-333.5"/>
<text text-anchor="middle" x="369.5" y="-340.5" font-family="FreeSans" font-size="10.00" fill="#000000">Fun4All_G4_EICDetector_RICH</text>
</a>
</g>
</g>
<!-- Node2&#45;&gt;Node7 -->
<g id="edge6" class="edge">
<title>Node2&#45;&gt;Node7</title>
<path fill="none" stroke="#191970" d="M220.4562,-252.2025C233.1707,-273.1487 256.6186,-306.5121 286,-324.5 291.9594,-328.1485 298.5451,-331.0977 305.3262,-333.4814"/>
<polygon fill="#191970" stroke="#191970" points="223.4627,-250.4103 215.387,-243.5523 217.4234,-253.9496 223.4627,-250.4103"/>
</g>
<!-- Node8 -->
<g id="node8" class="node">
<title>Node8</title>
<g id="a_node8"><a xlink:href="../../d5/d2c/macros_2blob_2master_2macros_2g4simulations_2Fun4All__G4__sPHENIX_8C.html#a6eaaa492d7023ec86c562dc63aa1e5a4" target="_top" xlink:title="Fun4All_G4_sPHENIX">
<polygon fill="none" stroke="#000000" points="309,-153.5 309,-173.5 430,-173.5 430,-153.5 309,-153.5"/>
<text text-anchor="middle" x="369.5" y="-160.5" font-family="FreeSans" font-size="10.00" fill="#000000">Fun4All_G4_sPHENIX</text>
</a>
</g>
</g>
<!-- Node2&#45;&gt;Node8 -->
<g id="edge7" class="edge">
<title>Node2&#45;&gt;Node8</title>
<path fill="none" stroke="#191970" d="M243.3105,-218.5846C245.6165,-217.2772 247.8689,-215.9117 250,-214.5 267.847,-202.6781 266.9645,-192.294 286,-182.5 293.1387,-178.827 300.9811,-175.8582 308.9127,-173.4599"/>
<polygon fill="#191970" stroke="#191970" points="241.5221,-215.5704 234.2923,-223.3151 244.7738,-221.7693 241.5221,-215.5704"/>
</g>
<!-- Node9 -->
<g id="node9" class="node">
<title>Node9</title>
<g id="a_node9"><a xlink:href="../../da/dd0/Fun4All__G4__sPHENIX__photonjet_8C.html#a6f18519e216acc05399e562ea57ea77c" target="_top" xlink:title="Fun4All_G4_sPHENIX\l_photonjet">
<polygon fill="none" stroke="#000000" points="309,-102.5 309,-134.5 430,-134.5 430,-102.5 309,-102.5"/>
<text text-anchor="start" x="317" y="-121.5" font-family="FreeSans" font-size="10.00" fill="#000000">Fun4All_G4_sPHENIX</text>
<text text-anchor="middle" x="369.5" y="-109.5" font-family="FreeSans" font-size="10.00" fill="#000000">_photonjet</text>
</a>
</g>
</g>
<!-- Node2&#45;&gt;Node9 -->
<g id="edge8" class="edge">
<title>Node2&#45;&gt;Node9</title>
<path fill="none" stroke="#191970" d="M246.0005,-217.9546C247.4089,-216.8681 248.7508,-215.7173 250,-214.5 275.3384,-189.8075 258.8538,-166.19 286,-143.5 292.6181,-137.9683 300.4286,-133.6606 308.5725,-130.306"/>
<polygon fill="#191970" stroke="#191970" points="243.9091,-215.1382 237.3896,-223.4896 247.6942,-221.0266 243.9091,-215.1382"/>
</g>
<!-- Node10 -->
<g id="node10" class="node">
<title>Node10</title>
<g id="a_node10"><a xlink:href="../../da/d85/Fun4All__G4__sPHENIX__photons_8C.html#a02fbbd59878fe1299f58ed187e7214ba" target="_top" xlink:title="Fun4All_G4_sPHENIX\l_photons">
<polygon fill="none" stroke="#000000" points="309,-51.5 309,-83.5 430,-83.5 430,-51.5 309,-51.5"/>
<text text-anchor="start" x="317" y="-70.5" font-family="FreeSans" font-size="10.00" fill="#000000">Fun4All_G4_sPHENIX</text>
<text text-anchor="middle" x="369.5" y="-58.5" font-family="FreeSans" font-size="10.00" fill="#000000">_photons</text>
</a>
</g>
</g>
<!-- Node2&#45;&gt;Node10 -->
<g id="edge9" class="edge">
<title>Node2&#45;&gt;Node10</title>
<path fill="none" stroke="#191970" d="M247.2953,-217.3184C248.2516,-216.4251 249.1572,-215.4863 250,-214.5 286.7279,-171.522 246.1041,-132.5545 286,-92.5 292.4074,-86.0672 300.398,-81.2764 308.8779,-77.7114"/>
<polygon fill="#191970" stroke="#191970" points="245.1412,-214.5581 239.1682,-223.3087 249.2945,-220.1929 245.1412,-214.5581"/>
</g>
<!-- Node11 -->
<g id="node11" class="node">
<title>Node11</title>
<g id="a_node11"><a xlink:href="../../de/d55/Fun4All__G4__sPHENIX__truthphotonjet_8C.html#a48a6f4503eaa1b3793d8ae572aa795b9" target="_top" xlink:title="Fun4All_G4_sPHENIX\l_truthphotonjet">
<polygon fill="none" stroke="#000000" points="309,-.5 309,-32.5 430,-32.5 430,-.5 309,-.5"/>
<text text-anchor="start" x="317" y="-19.5" font-family="FreeSans" font-size="10.00" fill="#000000">Fun4All_G4_sPHENIX</text>
<text text-anchor="middle" x="369.5" y="-7.5" font-family="FreeSans" font-size="10.00" fill="#000000">_truthphotonjet</text>
</a>
</g>
</g>
<!-- Node2&#45;&gt;Node11 -->
<g id="edge10" class="edge">
<title>Node2&#45;&gt;Node11</title>
<path fill="none" stroke="#191970" d="M247.7901,-217.0157C248.5718,-216.2144 249.311,-215.3764 250,-214.5 298.5389,-152.7596 232.8978,-99.3624 286,-41.5 292.2414,-34.6992 300.2493,-29.7199 308.8275,-26.0802"/>
<polygon fill="#191970" stroke="#191970" points="245.5251,-214.3441 239.8249,-223.2749 249.8503,-219.8481 245.5251,-214.3441"/>
</g>
<!-- Node12&#45;&gt;Node3 -->
<g id="edge12" class="edge">
<title>Node12&#45;&gt;Node3</title>
<path fill="none" stroke="#191970" d="M259.5865,-331.0283C268.3815,-328.8376 277.4575,-326.5908 286,-324.5 299.3209,-321.2397 313.8514,-317.7397 327.0018,-314.5934"/>
<polygon fill="#191970" stroke="#191970" points="258.6741,-327.6485 249.8196,-333.4664 260.3696,-334.4401 258.6741,-327.6485"/>
</g>
<!-- Node12&#45;&gt;Node4 -->
<g id="edge13" class="edge">
<title>Node12&#45;&gt;Node4</title>
<path fill="none" stroke="#191970" d="M228.7857,-326.1504C243.438,-313.3991 264.7978,-296.4537 286,-285.5 293.1493,-281.8065 300.9173,-278.5279 308.7414,-275.6507"/>
<polygon fill="#191970" stroke="#191970" points="226.1261,-323.8322 220.9857,-333.0966 230.7814,-329.0599 226.1261,-323.8322"/>
</g>
<!-- Node12&#45;&gt;Node5 -->
<g id="edge14" class="edge">
<title>Node12&#45;&gt;Node5</title>
<path fill="none" stroke="#191970" d="M218.5799,-324.096C230.3425,-299.6842 253.7496,-258.1078 286,-234.5 291.2681,-230.6437 297.1223,-227.3493 303.217,-224.5369"/>
<polygon fill="#191970" stroke="#191970" points="215.2947,-322.8607 214.2599,-333.4049 221.6443,-325.8074 215.2947,-322.8607"/>
</g>
<!-- Node12&#45;&gt;Node6 -->
<g id="edge15" class="edge">
<title>Node12&#45;&gt;Node6</title>
<path fill="none" stroke="#191970" d="M255.8531,-356.4366C273.5299,-361.4238 293.9367,-367.1812 312.5379,-372.4292"/>
<polygon fill="#191970" stroke="#191970" points="256.3696,-352.9458 245.7949,-353.5989 254.4688,-359.6828 256.3696,-352.9458"/>
</g>
<!-- Node12&#45;&gt;Node7 -->
<g id="edge16" class="edge">
<title>Node12&#45;&gt;Node7</title>
<path fill="none" stroke="#191970" d="M260.3512,-343.5C268.5559,-343.5 277.2432,-343.5 285.9911,-343.5"/>
<polygon fill="#191970" stroke="#191970" points="260.2486,-340.0001 250.2486,-343.5 260.2486,-347.0001 260.2486,-340.0001"/>
</g>
<!-- Node13 -->
<g id="node13" class="node">
<title>Node13</title>
<g id="a_node13"><a xlink:href="../../d7/d9e/Fun4All__G4__fsPHENIX_8C.html#af48911d394d2412e817583700f2bbee2" target="_top" xlink:title="Fun4All_G4_fsPHENIX">
<polygon fill="none" stroke="#000000" points="307.5,-513.5 307.5,-533.5 431.5,-533.5 431.5,-513.5 307.5,-513.5"/>
<text text-anchor="middle" x="369.5" y="-520.5" font-family="FreeSans" font-size="10.00" fill="#000000">Fun4All_G4_fsPHENIX</text>
</a>
</g>
</g>
<!-- Node12&#45;&gt;Node13 -->
<g id="edge17" class="edge">
<title>Node12&#45;&gt;Node13</title>
<path fill="none" stroke="#191970" d="M213.5807,-363.5174C220.8219,-397.9006 240.5551,-467.9944 286,-504.5 292.2589,-509.5278 299.5927,-513.2798 307.2693,-516.0707"/>
<polygon fill="#191970" stroke="#191970" points="217.0135,-362.8347 211.6518,-353.6967 210.1447,-364.1838 217.0135,-362.8347"/>
</g>
<!-- Node14 -->
<g id="node14" class="node">
<title>Node14</title>
<g id="a_node14"><a xlink:href="../../da/d2f/Fun4All__G4__fsPHENIX__FastSim_8C.html#a66fb850cae5fcaadda23b74a25ce4c9c" target="_top" xlink:title="Fun4All_G4_fsPHENIX\l_FastSim">
<polygon fill="none" stroke="#000000" points="307.5,-462.5 307.5,-494.5 431.5,-494.5 431.5,-462.5 307.5,-462.5"/>
<text text-anchor="start" x="315.5" y="-481.5" font-family="FreeSans" font-size="10.00" fill="#000000">Fun4All_G4_fsPHENIX</text>
<text text-anchor="middle" x="369.5" y="-469.5" font-family="FreeSans" font-size="10.00" fill="#000000">_FastSim</text>
</a>
</g>
</g>
<!-- Node12&#45;&gt;Node14 -->
<g id="edge18" class="edge">
<title>Node12&#45;&gt;Node14</title>
<path fill="none" stroke="#191970" d="M218.4926,-363.1381C230.1625,-387.8336 253.4711,-429.8547 286,-453.5 292.4873,-458.2156 299.8675,-462.0502 307.4927,-465.1665"/>
<polygon fill="#191970" stroke="#191970" points="221.5355,-361.3743 214.2109,-353.7192 215.1631,-364.2712 221.5355,-361.3743"/>
</g>
<!-- Node15 -->
<g id="node15" class="node">
<title>Node15</title>
<g id="a_node15"><a xlink:href="../../d0/da6/Fun4All__G4__fsPHENIX__pi0_8C.html#a023d91d47b678e5d7f1751834aa517c6" target="_top" xlink:title="Fun4All_G4_fsPHENIX_pi0">
<polygon fill="none" stroke="#000000" points="297,-423.5 297,-443.5 442,-443.5 442,-423.5 297,-423.5"/>
<text text-anchor="middle" x="369.5" y="-430.5" font-family="FreeSans" font-size="10.00" fill="#000000">Fun4All_G4_fsPHENIX_pi0</text>
</a>
</g>
</g>
<!-- Node12&#45;&gt;Node15 -->
<g id="edge19" class="edge">
<title>Node12&#45;&gt;Node15</title>
<path fill="none" stroke="#191970" d="M224.3826,-361.5482C238.3843,-377.875 261.1405,-401.3178 286,-414.5 292.83,-418.1217 300.3306,-421.0561 307.9474,-423.4329"/>
<polygon fill="#191970" stroke="#191970" points="226.9808,-359.1988 217.8938,-353.7511 221.6002,-363.6765 226.9808,-359.1988"/>
</g>
</g>
</svg>
