<?xml version="1.0" encoding="UTF-8" standalone="no"?>
<!DOCTYPE svg PUBLIC "-//W3C//DTD SVG 1.1//EN"
 "http://www.w3.org/Graphics/SVG/1.1/DTD/svg11.dtd">
<!-- Generated by graphviz version 2.40.1 (20161225.0304)
 -->
<!-- Title: JetReco::add_input Pages: 1 -->
<svg width="439pt" height="542pt"
 viewBox="0.00 0.00 439.00 542.00" xmlns="http://www.w3.org/2000/svg" xmlns:xlink="http://www.w3.org/1999/xlink">
<g id="graph0" class="graph" transform="scale(1 1) rotate(0) translate(4 538)">
<title>JetReco::add_input</title>
<!-- Node1 -->
<g id="node1" class="node">
<title>Node1</title>
<polygon fill="#bfbfbf" stroke="#000000" points="0,-203.5 0,-223.5 112,-223.5 112,-203.5 0,-203.5"/>
<text text-anchor="middle" x="56" y="-210.5" font-family="FreeSans" font-size="10.00" fill="#000000">JetReco::add_input</text>
</g>
<!-- Node2 -->
<g id="node2" class="node">
<title>Node2</title>
<g id="a_node2"><a xlink:href="../../de/da2/macros_2blob_2master_2macros_2g4simulations_2G4__HIJetReco_8C.html#a9cf9382ceffe61f139e2b7ebb82609bc" target="_top" xlink:title="HIJetReco">
<polygon fill="none" stroke="#000000" points="156,-223.5 156,-243.5 220,-243.5 220,-223.5 156,-223.5"/>
<text text-anchor="middle" x="188" y="-230.5" font-family="FreeSans" font-size="10.00" fill="#000000">HIJetReco</text>
</a>
</g>
</g>
<!-- Node1&#45;&gt;Node2 -->
<g id="edge1" class="edge">
<title>Node1&#45;&gt;Node2</title>
<path fill="none" stroke="#191970" d="M122.5263,-223.5797C134.1263,-225.3373 145.7047,-227.0916 155.8279,-228.6254"/>
<polygon fill="#191970" stroke="#191970" points="122.7743,-220.0774 112.3628,-222.0398 121.7256,-226.9985 122.7743,-220.0774"/>
</g>
<!-- Node12 -->
<g id="node12" class="node">
<title>Node12</title>
<g id="a_node12"><a xlink:href="../../de/d5c/macros_2blob_2master_2macros_2g4simulations_2G4__FwdJets_8C.html#a3635dcde22631de66ae1b3668981a96b" target="_top" xlink:title="Jet_FwdReco">
<polygon fill="none" stroke="#000000" points="148,-333.5 148,-353.5 228,-353.5 228,-333.5 148,-333.5"/>
<text text-anchor="middle" x="188" y="-340.5" font-family="FreeSans" font-size="10.00" fill="#000000">Jet_FwdReco</text>
</a>
</g>
</g>
<!-- Node1&#45;&gt;Node12 -->
<g id="edge11" class="edge">
<title>Node1&#45;&gt;Node12</title>
<path fill="none" stroke="#191970" d="M73.4996,-230.7345C101.4185,-258.2303 155.1799,-311.1772 177.6903,-333.3465"/>
<polygon fill="#191970" stroke="#191970" points="75.9386,-228.2241 66.3578,-223.7009 71.0268,-233.2115 75.9386,-228.2241"/>
</g>
<!-- Node16 -->
<g id="node16" class="node">
<title>Node16</title>
<g id="a_node16"><a xlink:href="../../d1/d32/G4__TruthJets_8C.html#ae88e629b838c582762b252f4487eac6e" target="_top" xlink:title="Jet_Reco">
<polygon fill="none" stroke="#000000" points="158.5,-184.5 158.5,-204.5 217.5,-204.5 217.5,-184.5 158.5,-184.5"/>
<text text-anchor="middle" x="188" y="-191.5" font-family="FreeSans" font-size="10.00" fill="#000000">Jet_Reco</text>
</a>
</g>
</g>
<!-- Node1&#45;&gt;Node16 -->
<g id="edge20" class="edge">
<title>Node1&#45;&gt;Node16</title>
<path fill="none" stroke="#191970" d="M122.45,-203.9352C135.066,-202.1193 147.6601,-200.3065 158.3882,-198.7623"/>
<polygon fill="#191970" stroke="#191970" points="121.7621,-200.4981 112.3628,-205.3872 122.7594,-207.4267 121.7621,-200.4981"/>
</g>
<!-- Node17 -->
<g id="node17" class="node">
<title>Node17</title>
<g id="a_node17"><a xlink:href="../../dc/dd1/run__macro_8C.html#a73349fa424161f0fc04887bbce22b0ea" target="_top" xlink:title="run_macro">
<polygon fill="none" stroke="#000000" points="153,-145.5 153,-165.5 223,-165.5 223,-145.5 153,-145.5"/>
<text text-anchor="middle" x="188" y="-152.5" font-family="FreeSans" font-size="10.00" fill="#000000">run_macro</text>
</a>
</g>
</g>
<!-- Node1&#45;&gt;Node17 -->
<g id="edge21" class="edge">
<title>Node1&#45;&gt;Node17</title>
<path fill="none" stroke="#191970" d="M88.2877,-199.313C111.9835,-188.9012 143.6051,-175.0069 164.8279,-165.6817"/>
<polygon fill="#191970" stroke="#191970" points="86.7399,-196.1701 78.9926,-203.3972 89.5558,-202.5787 86.7399,-196.1701"/>
</g>
<!-- Node3 -->
<g id="node3" class="node">
<title>Node3</title>
<g id="a_node3"><a xlink:href="../../da/d02/Fun4All__G4__EICDetector_8C.html#afbe82cefa1d1fd031d9a8586b7bb68c6" target="_top" xlink:title="Fun4All_G4_EICDetector">
<polygon fill="none" stroke="#000000" points="278,-294.5 278,-314.5 417,-314.5 417,-294.5 278,-294.5"/>
<text text-anchor="middle" x="347.5" y="-301.5" font-family="FreeSans" font-size="10.00" fill="#000000">Fun4All_G4_EICDetector</text>
</a>
</g>
</g>
<!-- Node2&#45;&gt;Node3 -->
<g id="edge2" class="edge">
<title>Node2&#45;&gt;Node3</title>
<path fill="none" stroke="#191970" d="M207.9011,-250.2274C222.553,-261.7357 243.4256,-276.5114 264,-285.5 272.1742,-289.0712 281.1035,-292.0121 289.985,-294.4219"/>
<polygon fill="#191970" stroke="#191970" points="210.0259,-247.4446 200.0424,-243.8975 205.6348,-252.8961 210.0259,-247.4446"/>
</g>
<!-- Node4 -->
<g id="node4" class="node">
<title>Node4</title>
<g id="a_node4"><a xlink:href="../../df/d4b/Fun4All__G4__EICDetector__LQ__analysis_8C.html#af903e98824d083a08b353ac15996ee0e" target="_top" xlink:title="Fun4All_G4_EICDetector\l_LQ_analysis">
<polygon fill="none" stroke="#000000" points="278,-243.5 278,-275.5 417,-275.5 417,-243.5 278,-243.5"/>
<text text-anchor="start" x="286" y="-262.5" font-family="FreeSans" font-size="10.00" fill="#000000">Fun4All_G4_EICDetector</text>
<text text-anchor="middle" x="347.5" y="-250.5" font-family="FreeSans" font-size="10.00" fill="#000000">_LQ_analysis</text>
</a>
</g>
</g>
<!-- Node2&#45;&gt;Node4 -->
<g id="edge3" class="edge">
<title>Node2&#45;&gt;Node4</title>
<path fill="none" stroke="#191970" d="M230.4379,-240.4178C244.9621,-242.7854 261.6177,-245.5004 277.7223,-248.1256"/>
<polygon fill="#191970" stroke="#191970" points="230.7101,-236.916 220.2772,-238.7615 229.5838,-243.8248 230.7101,-236.916"/>
</g>
<!-- Node5 -->
<g id="node5" class="node">
<title>Node5</title>
<g id="a_node5"><a xlink:href="../../d1/daf/Fun4All__G4__EICDetector__LQ__analysis__nf_8C.html#a5022607d21247b87dd208b0828905147" target="_top" xlink:title="Fun4All_G4_EICDetector\l_LQ_analysis_nf">
<polygon fill="none" stroke="#000000" points="278,-192.5 278,-224.5 417,-224.5 417,-192.5 278,-192.5"/>
<text text-anchor="start" x="286" y="-211.5" font-family="FreeSans" font-size="10.00" fill="#000000">Fun4All_G4_EICDetector</text>
<text text-anchor="middle" x="347.5" y="-199.5" font-family="FreeSans" font-size="10.00" fill="#000000">_LQ_analysis_nf</text>
</a>
</g>
</g>
<!-- Node2&#45;&gt;Node5 -->
<g id="edge4" class="edge">
<title>Node2&#45;&gt;Node5</title>
<path fill="none" stroke="#191970" d="M230.4379,-226.8483C244.9621,-224.5718 261.6177,-221.9612 277.7223,-219.4369"/>
<polygon fill="#191970" stroke="#191970" points="229.6146,-223.4345 220.2772,-228.4409 230.6986,-230.3501 229.6146,-223.4345"/>
</g>
<!-- Node6 -->
<g id="node6" class="node">
<title>Node6</title>
<g id="a_node6"><a xlink:href="../../d4/df5/Fun4All__G4__EICDetector__LQ__reference_8C.html#a2feefc472f17f90b3cbe74897d049f75" target="_top" xlink:title="Fun4All_G4_EICDetector\l_LQ_reference">
<polygon fill="none" stroke="#000000" points="278,-372.5 278,-404.5 417,-404.5 417,-372.5 278,-372.5"/>
<text text-anchor="start" x="286" y="-391.5" font-family="FreeSans" font-size="10.00" fill="#000000">Fun4All_G4_EICDetector</text>
<text text-anchor="middle" x="347.5" y="-379.5" font-family="FreeSans" font-size="10.00" fill="#000000">_LQ_reference</text>
</a>
</g>
</g>
<!-- Node2&#45;&gt;Node6 -->
<g id="edge5" class="edge">
<title>Node2&#45;&gt;Node6</title>
<path fill="none" stroke="#191970" d="M194.3362,-253.3771C204.4619,-281.9573 227.0073,-334.4123 264,-363.5 268.2823,-366.8672 273.0115,-369.7818 277.9772,-372.3045"/>
<polygon fill="#191970" stroke="#191970" points="197.5794,-252.0419 191.0593,-243.6909 190.9486,-254.2851 197.5794,-252.0419"/>
</g>
<!-- Node7 -->
<g id="node7" class="node">
<title>Node7</title>
<g id="a_node7"><a xlink:href="../../d3/d51/Fun4All__G4__EICDetector__RICH_8C.html#a5739502b0a7a1ba782c01069f77e933f" target="_top" xlink:title="Fun4All_G4_EICDetector_RICH">
<polygon fill="none" stroke="#000000" points="264,-333.5 264,-353.5 431,-353.5 431,-333.5 264,-333.5"/>
<text text-anchor="middle" x="347.5" y="-340.5" font-family="FreeSans" font-size="10.00" fill="#000000">Fun4All_G4_EICDetector_RICH</text>
</a>
</g>
</g>
<!-- Node2&#45;&gt;Node7 -->
<g id="edge6" class="edge">
<title>Node2&#45;&gt;Node7</title>
<path fill="none" stroke="#191970" d="M198.4562,-252.2025C211.1707,-273.1487 234.6186,-306.5121 264,-324.5 269.9594,-328.1485 276.5451,-331.0977 283.3262,-333.4814"/>
<polygon fill="#191970" stroke="#191970" points="201.4627,-250.4103 193.387,-243.5523 195.4234,-253.9496 201.4627,-250.4103"/>
</g>
<!-- Node8 -->
<g id="node8" class="node">
<title>Node8</title>
<g id="a_node8"><a xlink:href="../../d5/d2c/macros_2blob_2master_2macros_2g4simulations_2Fun4All__G4__sPHENIX_8C.html#a6eaaa492d7023ec86c562dc63aa1e5a4" target="_top" xlink:title="Fun4All_G4_sPHENIX">
<polygon fill="none" stroke="#000000" points="287,-153.5 287,-173.5 408,-173.5 408,-153.5 287,-153.5"/>
<text text-anchor="middle" x="347.5" y="-160.5" font-family="FreeSans" font-size="10.00" fill="#000000">Fun4All_G4_sPHENIX</text>
</a>
</g>
</g>
<!-- Node2&#45;&gt;Node8 -->
<g id="edge7" class="edge">
<title>Node2&#45;&gt;Node8</title>
<path fill="none" stroke="#191970" d="M221.3105,-218.5846C223.6165,-217.2772 225.8689,-215.9117 228,-214.5 245.847,-202.6781 244.9645,-192.294 264,-182.5 271.1387,-178.827 278.9811,-175.8582 286.9127,-173.4599"/>
<polygon fill="#191970" stroke="#191970" points="219.5221,-215.5704 212.2923,-223.3151 222.7738,-221.7693 219.5221,-215.5704"/>
</g>
<!-- Node9 -->
<g id="node9" class="node">
<title>Node9</title>
<g id="a_node9"><a xlink:href="../../da/dd0/Fun4All__G4__sPHENIX__photonjet_8C.html#a6f18519e216acc05399e562ea57ea77c" target="_top" xlink:title="Fun4All_G4_sPHENIX\l_photonjet">
<polygon fill="none" stroke="#000000" points="287,-102.5 287,-134.5 408,-134.5 408,-102.5 287,-102.5"/>
<text text-anchor="start" x="295" y="-121.5" font-family="FreeSans" font-size="10.00" fill="#000000">Fun4All_G4_sPHENIX</text>
<text text-anchor="middle" x="347.5" y="-109.5" font-family="FreeSans" font-size="10.00" fill="#000000">_photonjet</text>
</a>
</g>
</g>
<!-- Node2&#45;&gt;Node9 -->
<g id="edge8" class="edge">
<title>Node2&#45;&gt;Node9</title>
<path fill="none" stroke="#191970" d="M224.0005,-217.9546C225.4089,-216.8681 226.7508,-215.7173 228,-214.5 253.3384,-189.8075 236.8538,-166.19 264,-143.5 270.6181,-137.9683 278.4286,-133.6606 286.5725,-130.306"/>
<polygon fill="#191970" stroke="#191970" points="221.9091,-215.1382 215.3896,-223.4896 225.6942,-221.0266 221.9091,-215.1382"/>
</g>
<!-- Node10 -->
<g id="node10" class="node">
<title>Node10</title>
<g id="a_node10"><a xlink:href="../../da/d85/Fun4All__G4__sPHENIX__photons_8C.html#a02fbbd59878fe1299f58ed187e7214ba" target="_top" xlink:title="Fun4All_G4_sPHENIX\l_photons">
<polygon fill="none" stroke="#000000" points="287,-51.5 287,-83.5 408,-83.5 408,-51.5 287,-51.5"/>
<text text-anchor="start" x="295" y="-70.5" font-family="FreeSans" font-size="10.00" fill="#000000">Fun4All_G4_sPHENIX</text>
<text text-anchor="middle" x="347.5" y="-58.5" font-family="FreeSans" font-size="10.00" fill="#000000">_photons</text>
</a>
</g>
</g>
<!-- Node2&#45;&gt;Node10 -->
<g id="edge9" class="edge">
<title>Node2&#45;&gt;Node10</title>
<path fill="none" stroke="#191970" d="M225.2953,-217.3184C226.2516,-216.4251 227.1572,-215.4863 228,-214.5 264.7279,-171.522 224.1041,-132.5545 264,-92.5 270.4074,-86.0672 278.398,-81.2764 286.8779,-77.7114"/>
<polygon fill="#191970" stroke="#191970" points="223.1412,-214.5581 217.1682,-223.3087 227.2945,-220.1929 223.1412,-214.5581"/>
</g>
<!-- Node11 -->
<g id="node11" class="node">
<title>Node11</title>
<g id="a_node11"><a xlink:href="../../de/d55/Fun4All__G4__sPHENIX__truthphotonjet_8C.html#a48a6f4503eaa1b3793d8ae572aa795b9" target="_top" xlink:title="Fun4All_G4_sPHENIX\l_truthphotonjet">
<polygon fill="none" stroke="#000000" points="287,-.5 287,-32.5 408,-32.5 408,-.5 287,-.5"/>
<text text-anchor="start" x="295" y="-19.5" font-family="FreeSans" font-size="10.00" fill="#000000">Fun4All_G4_sPHENIX</text>
<text text-anchor="middle" x="347.5" y="-7.5" font-family="FreeSans" font-size="10.00" fill="#000000">_truthphotonjet</text>
</a>
</g>
</g>
<!-- Node2&#45;&gt;Node11 -->
<g id="edge10" class="edge">
<title>Node2&#45;&gt;Node11</title>
<path fill="none" stroke="#191970" d="M225.7901,-217.0157C226.5718,-216.2144 227.311,-215.3764 228,-214.5 276.5389,-152.7596 210.8978,-99.3624 264,-41.5 270.2414,-34.6992 278.2493,-29.7199 286.8275,-26.0802"/>
<polygon fill="#191970" stroke="#191970" points="223.5251,-214.3441 217.8249,-223.2749 227.8503,-219.8481 223.5251,-214.3441"/>
</g>
<!-- Node12&#45;&gt;Node3 -->
<g id="edge12" class="edge">
<title>Node12&#45;&gt;Node3</title>
<path fill="none" stroke="#191970" d="M237.5865,-331.0283C246.3815,-328.8376 255.4575,-326.5908 264,-324.5 277.3209,-321.2397 291.8514,-317.7397 305.0018,-314.5934"/>
<polygon fill="#191970" stroke="#191970" points="236.6741,-327.6485 227.8196,-333.4664 238.3696,-334.4401 236.6741,-327.6485"/>
</g>
<!-- Node12&#45;&gt;Node4 -->
<g id="edge13" class="edge">
<title>Node12&#45;&gt;Node4</title>
<path fill="none" stroke="#191970" d="M206.7857,-326.1504C221.438,-313.3991 242.7978,-296.4537 264,-285.5 271.1493,-281.8065 278.9173,-278.5279 286.7414,-275.6507"/>
<polygon fill="#191970" stroke="#191970" points="204.1261,-323.8322 198.9857,-333.0966 208.7814,-329.0599 204.1261,-323.8322"/>
</g>
<!-- Node12&#45;&gt;Node5 -->
<g id="edge14" class="edge">
<title>Node12&#45;&gt;Node5</title>
<path fill="none" stroke="#191970" d="M196.5799,-324.096C208.3425,-299.6842 231.7496,-258.1078 264,-234.5 269.2681,-230.6437 275.1223,-227.3493 281.217,-224.5369"/>
<polygon fill="#191970" stroke="#191970" points="193.2947,-322.8607 192.2599,-333.4049 199.6443,-325.8074 193.2947,-322.8607"/>
</g>
<!-- Node12&#45;&gt;Node6 -->
<g id="edge15" class="edge">
<title>Node12&#45;&gt;Node6</title>
<path fill="none" stroke="#191970" d="M233.8531,-356.4366C251.5299,-361.4238 271.9367,-367.1812 290.5379,-372.4292"/>
<polygon fill="#191970" stroke="#191970" points="234.3696,-352.9458 223.7949,-353.5989 232.4688,-359.6828 234.3696,-352.9458"/>
</g>
<!-- Node12&#45;&gt;Node7 -->
<g id="edge16" class="edge">
<title>Node12&#45;&gt;Node7</title>
<path fill="none" stroke="#191970" d="M238.3512,-343.5C246.5559,-343.5 255.2432,-343.5 263.9911,-343.5"/>
<polygon fill="#191970" stroke="#191970" points="238.2486,-340.0001 228.2486,-343.5 238.2486,-347.0001 238.2486,-340.0001"/>
</g>
<!-- Node13 -->
<g id="node13" class="node">
<title>Node13</title>
<g id="a_node13"><a xlink:href="../../d7/d9e/Fun4All__G4__fsPHENIX_8C.html#af48911d394d2412e817583700f2bbee2" target="_top" xlink:title="Fun4All_G4_fsPHENIX">
<polygon fill="none" stroke="#000000" points="285.5,-513.5 285.5,-533.5 409.5,-533.5 409.5,-513.5 285.5,-513.5"/>
<text text-anchor="middle" x="347.5" y="-520.5" font-family="FreeSans" font-size="10.00" fill="#000000">Fun4All_G4_fsPHENIX</text>
</a>
</g>
</g>
<!-- Node12&#45;&gt;Node13 -->
<g id="edge17" class="edge">
<title>Node12&#45;&gt;Node13</title>
<path fill="none" stroke="#191970" d="M191.5807,-363.5174C198.8219,-397.9006 218.5551,-467.9944 264,-504.5 270.2589,-509.5278 277.5927,-513.2798 285.2693,-516.0707"/>
<polygon fill="#191970" stroke="#191970" points="195.0135,-362.8347 189.6518,-353.6967 188.1447,-364.1838 195.0135,-362.8347"/>
</g>
<!-- Node14 -->
<g id="node14" class="node">
<title>Node14</title>
<g id="a_node14"><a xlink:href="../../da/d2f/Fun4All__G4__fsPHENIX__FastSim_8C.html#a66fb850cae5fcaadda23b74a25ce4c9c" target="_top" xlink:title="Fun4All_G4_fsPHENIX\l_FastSim">
<polygon fill="none" stroke="#000000" points="285.5,-462.5 285.5,-494.5 409.5,-494.5 409.5,-462.5 285.5,-462.5"/>
<text text-anchor="start" x="293.5" y="-481.5" font-family="FreeSans" font-size="10.00" fill="#000000">Fun4All_G4_fsPHENIX</text>
<text text-anchor="middle" x="347.5" y="-469.5" font-family="FreeSans" font-size="10.00" fill="#000000">_FastSim</text>
</a>
</g>
</g>
<!-- Node12&#45;&gt;Node14 -->
<g id="edge18" class="edge">
<title>Node12&#45;&gt;Node14</title>
<path fill="none" stroke="#191970" d="M196.4926,-363.1381C208.1625,-387.8336 231.4711,-429.8547 264,-453.5 270.4873,-458.2156 277.8675,-462.0502 285.4927,-465.1665"/>
<polygon fill="#191970" stroke="#191970" points="199.5355,-361.3743 192.2109,-353.7192 193.1631,-364.2712 199.5355,-361.3743"/>
</g>
<!-- Node15 -->
<g id="node15" class="node">
<title>Node15</title>
<g id="a_node15"><a xlink:href="../../d0/da6/Fun4All__G4__fsPHENIX__pi0_8C.html#a023d91d47b678e5d7f1751834aa517c6" target="_top" xlink:title="Fun4All_G4_fsPHENIX_pi0">
<polygon fill="none" stroke="#000000" points="275,-423.5 275,-443.5 420,-443.5 420,-423.5 275,-423.5"/>
<text text-anchor="middle" x="347.5" y="-430.5" font-family="FreeSans" font-size="10.00" fill="#000000">Fun4All_G4_fsPHENIX_pi0</text>
</a>
</g>
</g>
<!-- Node12&#45;&gt;Node15 -->
<g id="edge19" class="edge">
<title>Node12&#45;&gt;Node15</title>
<path fill="none" stroke="#191970" d="M202.3826,-361.5482C216.3843,-377.875 239.1405,-401.3178 264,-414.5 270.83,-418.1217 278.3306,-421.0561 285.9474,-423.4329"/>
<polygon fill="#191970" stroke="#191970" points="204.9808,-359.1988 195.8938,-353.7511 199.6002,-363.6765 204.9808,-359.1988"/>
</g>
</g>
</svg>
