<?xml version="1.0" encoding="UTF-8" standalone="no"?>
<!DOCTYPE svg PUBLIC "-//W3C//DTD SVG 1.1//EN"
 "http://www.w3.org/Graphics/SVG/1.1/DTD/svg11.dtd">
<!-- Generated by graphviz version 2.40.1 (20161225.0304)
 -->
<!-- Title: RawTowerDigitizer::set_zero_suppression_ADC Pages: 1 -->
<svg width="601pt" height="686pt"
 viewBox="0.00 0.00 601.00 686.00" xmlns="http://www.w3.org/2000/svg" xmlns:xlink="http://www.w3.org/1999/xlink">
<g id="graph0" class="graph" transform="scale(1 1) rotate(0) translate(4 682)">
<title>RawTowerDigitizer::set_zero_suppression_ADC</title>
<!-- Node1 -->
<g id="node1" class="node">
<title>Node1</title>
<polygon fill="#bfbfbf" stroke="#000000" points="0,-291.5 0,-323.5 151,-323.5 151,-291.5 0,-291.5"/>
<text text-anchor="start" x="8" y="-310.5" font-family="FreeSans" font-size="10.00" fill="#000000">RawTowerDigitizer::</text>
<text text-anchor="middle" x="75.5" y="-298.5" font-family="FreeSans" font-size="10.00" fill="#000000">set_zero_suppression_ADC</text>
</g>
<!-- Node2 -->
<g id="node2" class="node">
<title>Node2</title>
<g id="a_node2"><a xlink:href="../../d8/d4c/G4__CEmc__EIC_8C.html#a46a52c955e8d2078c58d4d7db471cc43" target="_top" xlink:title="CEMC_Towers">
<polygon fill="none" stroke="#000000" points="211,-375.5 211,-395.5 296,-395.5 296,-375.5 211,-375.5"/>
<text text-anchor="middle" x="253.5" y="-382.5" font-family="FreeSans" font-size="10.00" fill="#000000">CEMC_Towers</text>
</a>
</g>
</g>
<!-- Node1&#45;&gt;Node2 -->
<g id="edge1" class="edge">
<title>Node1&#45;&gt;Node2</title>
<path fill="none" stroke="#191970" d="M110.996,-328.7273C132.4644,-340.9408 160.6882,-355.9145 187,-366.5 195.3546,-369.8611 204.5216,-372.8836 213.308,-375.4774"/>
<polygon fill="#191970" stroke="#191970" points="112.6468,-325.6391 102.2341,-323.6828 109.1541,-331.7056 112.6468,-325.6391"/>
</g>
<!-- Node20 -->
<g id="node20" class="node">
<title>Node20</title>
<g id="a_node20"><a xlink:href="../../d1/d81/macros_2blob_2master_2macros_2g4simulations_2G4__EEMC_8C.html#a05b9b10b79cc47702702e091692fd060" target="_top" xlink:title="EEMC_Towers">
<polygon fill="none" stroke="#000000" points="211.5,-567.5 211.5,-587.5 295.5,-587.5 295.5,-567.5 211.5,-567.5"/>
<text text-anchor="middle" x="253.5" y="-574.5" font-family="FreeSans" font-size="10.00" fill="#000000">EEMC_Towers</text>
</a>
</g>
</g>
<!-- Node1&#45;&gt;Node20 -->
<g id="edge19" class="edge">
<title>Node1&#45;&gt;Node20</title>
<path fill="none" stroke="#191970" d="M91.6461,-331.9912C129.2216,-388.9879 221.2688,-528.6099 246.8236,-567.3729"/>
<polygon fill="#191970" stroke="#191970" points="94.5279,-330.0036 86.1016,-323.5812 88.6837,-333.8566 94.5279,-330.0036"/>
</g>
<!-- Node21 -->
<g id="node21" class="node">
<title>Node21</title>
<g id="a_node21"><a xlink:href="../../dc/d8e/Fun4All__G4__Prototype2_8C.html#a6b8f092c4f51be2938dd09c810ba6226" target="_top" xlink:title="Fun4All_G4_Prototype2">
<polygon fill="none" stroke="#000000" points="187,-258.5 187,-278.5 320,-278.5 320,-258.5 187,-258.5"/>
<text text-anchor="middle" x="253.5" y="-265.5" font-family="FreeSans" font-size="10.00" fill="#000000">Fun4All_G4_Prototype2</text>
</a>
</g>
</g>
<!-- Node1&#45;&gt;Node21 -->
<g id="edge24" class="edge">
<title>Node1&#45;&gt;Node21</title>
<path fill="none" stroke="#191970" d="M158.5566,-289.3022C175.4357,-285.604 192.6011,-281.843 207.61,-278.5546"/>
<polygon fill="#191970" stroke="#191970" points="157.6892,-285.9092 148.67,-291.4684 159.1874,-292.747 157.6892,-285.9092"/>
</g>
<!-- Node22 -->
<g id="node22" class="node">
<title>Node22</title>
<g id="a_node22"><a xlink:href="../../d7/d40/Fun4All__G4__Prototype3_8C.html#a1201361263017b08a070777a0b90b27c" target="_top" xlink:title="Fun4All_G4_Prototype3">
<polygon fill="none" stroke="#000000" points="187,-219.5 187,-239.5 320,-239.5 320,-219.5 187,-219.5"/>
<text text-anchor="middle" x="253.5" y="-226.5" font-family="FreeSans" font-size="10.00" fill="#000000">Fun4All_G4_Prototype3</text>
</a>
</g>
</g>
<!-- Node1&#45;&gt;Node22 -->
<g id="edge25" class="edge">
<title>Node1&#45;&gt;Node22</title>
<path fill="none" stroke="#191970" d="M111.5302,-286.5582C132.9771,-274.6543 160.998,-260.0639 187,-249.5 196.1589,-245.779 206.2733,-242.3897 215.7913,-239.5015"/>
<polygon fill="#191970" stroke="#191970" points="109.7744,-283.53 102.7662,-291.4758 113.1998,-289.6346 109.7744,-283.53"/>
</g>
<!-- Node23 -->
<g id="node23" class="node">
<title>Node23</title>
<g id="a_node23"><a xlink:href="../../d4/d58/Fun4All__G4__Prototype4_8C.html#acac517f0728af658cbf99c7c9687c908" target="_top" xlink:title="Fun4All_G4_Prototype4">
<polygon fill="none" stroke="#000000" points="187,-180.5 187,-200.5 320,-200.5 320,-180.5 187,-180.5"/>
<text text-anchor="middle" x="253.5" y="-187.5" font-family="FreeSans" font-size="10.00" fill="#000000">Fun4All_G4_Prototype4</text>
</a>
</g>
</g>
<!-- Node1&#45;&gt;Node23 -->
<g id="edge26" class="edge">
<title>Node1&#45;&gt;Node23</title>
<path fill="none" stroke="#191970" d="M96.903,-283.8246C117.8903,-261.9287 151.7836,-229.9247 187,-210.5 194.1785,-206.5405 202.2354,-203.2733 210.1976,-200.6101"/>
<polygon fill="#191970" stroke="#191970" points="94.0842,-281.7126 89.7763,-291.3921 99.1801,-286.5118 94.0842,-281.7126"/>
</g>
<!-- Node24 -->
<g id="node24" class="node">
<title>Node24</title>
<g id="a_node24"><a xlink:href="../../d7/dc0/G4__HcalIn__EIC_8C.html#a4552e4b1c6ffcc08cba2296b2c45f950" target="_top" xlink:title="HCALInner_Towers">
<polygon fill="none" stroke="#000000" points="199,-336.5 199,-356.5 308,-356.5 308,-336.5 199,-336.5"/>
<text text-anchor="middle" x="253.5" y="-343.5" font-family="FreeSans" font-size="10.00" fill="#000000">HCALInner_Towers</text>
</a>
</g>
</g>
<!-- Node1&#45;&gt;Node24 -->
<g id="edge27" class="edge">
<title>Node1&#45;&gt;Node24</title>
<path fill="none" stroke="#191970" d="M158.5566,-325.6978C175.4357,-329.396 192.6011,-333.157 207.61,-336.4454"/>
<polygon fill="#191970" stroke="#191970" points="159.1874,-322.253 148.67,-323.5316 157.6892,-329.0908 159.1874,-322.253"/>
</g>
<!-- Node25 -->
<g id="node25" class="node">
<title>Node25</title>
<g id="a_node25"><a xlink:href="../../de/d3d/macros_2blob_2master_2macros_2g4simulations_2G4__HcalOut__ref_8C.html#a4fd9d72ad1e04ebc46273f3b9fff91d6" target="_top" xlink:title="HCALOuter_Towers">
<polygon fill="none" stroke="#000000" points="198,-297.5 198,-317.5 309,-317.5 309,-297.5 198,-297.5"/>
<text text-anchor="middle" x="253.5" y="-304.5" font-family="FreeSans" font-size="10.00" fill="#000000">HCALOuter_Towers</text>
</a>
</g>
</g>
<!-- Node1&#45;&gt;Node25 -->
<g id="edge44" class="edge">
<title>Node1&#45;&gt;Node25</title>
<path fill="none" stroke="#191970" d="M161.5512,-307.5C173.865,-307.5 186.2541,-307.5 197.7743,-307.5"/>
<polygon fill="#191970" stroke="#191970" points="161.2462,-304.0001 151.2461,-307.5 161.2461,-311.0001 161.2462,-304.0001"/>
</g>
<!-- Node3 -->
<g id="node3" class="node">
<title>Node3</title>
<g id="a_node3"><a xlink:href="../../d3/d7f/Fun_8C.html#af0d3c8a78765149fef9b2beeecfc6279" target="_top" xlink:title="ConfigureDetectors">
<polygon fill="none" stroke="#000000" points="382.5,-219.5 382.5,-239.5 496.5,-239.5 496.5,-219.5 382.5,-219.5"/>
<text text-anchor="middle" x="439.5" y="-226.5" font-family="FreeSans" font-size="10.00" fill="#000000">ConfigureDetectors</text>
</a>
</g>
</g>
<!-- Node2&#45;&gt;Node3 -->
<g id="edge2" class="edge">
<title>Node2&#45;&gt;Node3</title>
<path fill="none" stroke="#191970" d="M305.8752,-376.1637C311.0753,-373.6567 315.9266,-370.492 320,-366.5 358.8573,-328.4197 316.3291,-286.732 356,-249.5 363.2825,-242.6652 372.4725,-238.0381 382.0728,-234.9312"/>
<polygon fill="#191970" stroke="#191970" points="304.2273,-373.0524 296.2306,-380.0025 306.8161,-379.5562 304.2273,-373.0524"/>
</g>
<!-- Node5 -->
<g id="node5" class="node">
<title>Node5</title>
<g id="a_node5"><a xlink:href="../../da/d02/Fun4All__G4__EICDetector_8C.html#afbe82cefa1d1fd031d9a8586b7bb68c6" target="_top" xlink:title="Fun4All_G4_EICDetector">
<polygon fill="none" stroke="#000000" points="370,-567.5 370,-587.5 509,-587.5 509,-567.5 370,-567.5"/>
<text text-anchor="middle" x="439.5" y="-574.5" font-family="FreeSans" font-size="10.00" fill="#000000">Fun4All_G4_EICDetector</text>
</a>
</g>
</g>
<!-- Node2&#45;&gt;Node5 -->
<g id="edge4" class="edge">
<title>Node2&#45;&gt;Node5</title>
<path fill="none" stroke="#191970" d="M259.5054,-405.5741C271.5092,-442.0781 302.0528,-519.1805 356,-558.5 360.926,-562.0903 366.4158,-565.0179 372.1627,-567.403"/>
<polygon fill="#191970" stroke="#191970" points="262.7165,-404.1191 256.3699,-395.6355 256.0408,-406.2252 262.7165,-404.1191"/>
</g>
<!-- Node6 -->
<g id="node6" class="node">
<title>Node6</title>
<g id="a_node6"><a xlink:href="../../dd/d2a/Fun4All__G4__EICDetector__LQ_8C.html#aaa01242fd6e77ca43a9d49a6d46008e4" target="_top" xlink:title="Fun4All_G4_EICDetector_LQ">
<polygon fill="none" stroke="#000000" points="361.5,-528.5 361.5,-548.5 517.5,-548.5 517.5,-528.5 361.5,-528.5"/>
<text text-anchor="middle" x="439.5" y="-535.5" font-family="FreeSans" font-size="10.00" fill="#000000">Fun4All_G4_EICDetector_LQ</text>
</a>
</g>
</g>
<!-- Node2&#45;&gt;Node6 -->
<g id="edge5" class="edge">
<title>Node2&#45;&gt;Node6</title>
<path fill="none" stroke="#191970" d="M262.8766,-405.1606C278.0854,-434.8256 311.0237,-490.6225 356,-519.5 361.6297,-523.1146 367.8602,-526.0455 374.3065,-528.4214"/>
<polygon fill="#191970" stroke="#191970" points="265.8312,-403.2413 258.2458,-395.8445 259.5628,-406.3571 265.8312,-403.2413"/>
</g>
<!-- Node7 -->
<g id="node7" class="node">
<title>Node7</title>
<g id="a_node7"><a xlink:href="../../d4/df5/Fun4All__G4__EICDetector__LQ__reference_8C.html#a2feefc472f17f90b3cbe74897d049f75" target="_top" xlink:title="Fun4All_G4_EICDetector\l_LQ_reference">
<polygon fill="none" stroke="#000000" points="370,-645.5 370,-677.5 509,-677.5 509,-645.5 370,-645.5"/>
<text text-anchor="start" x="378" y="-664.5" font-family="FreeSans" font-size="10.00" fill="#000000">Fun4All_G4_EICDetector</text>
<text text-anchor="middle" x="439.5" y="-652.5" font-family="FreeSans" font-size="10.00" fill="#000000">_LQ_reference</text>
</a>
</g>
</g>
<!-- Node2&#45;&gt;Node7 -->
<g id="edge6" class="edge">
<title>Node2&#45;&gt;Node7</title>
<path fill="none" stroke="#191970" d="M260.9276,-404.9838C282.9273,-462.5118 346.792,-628.1428 356,-636.5 360.146,-640.2629 364.8377,-643.4603 369.8309,-646.1771"/>
<polygon fill="#191970" stroke="#191970" points="264.1669,-403.6556 257.3295,-395.5624 257.6276,-406.153 264.1669,-403.6556"/>
</g>
<!-- Node8 -->
<g id="node8" class="node">
<title>Node8</title>
<g id="a_node8"><a xlink:href="../../d3/d51/Fun4All__G4__EICDetector__RICH_8C.html#a5739502b0a7a1ba782c01069f77e933f" target="_top" xlink:title="Fun4All_G4_EICDetector_RICH">
<polygon fill="none" stroke="#000000" points="356,-606.5 356,-626.5 523,-626.5 523,-606.5 356,-606.5"/>
<text text-anchor="middle" x="439.5" y="-613.5" font-family="FreeSans" font-size="10.00" fill="#000000">Fun4All_G4_EICDetector_RICH</text>
</a>
</g>
</g>
<!-- Node2&#45;&gt;Node8 -->
<g id="edge7" class="edge">
<title>Node2&#45;&gt;Node8</title>
<path fill="none" stroke="#191970" d="M260.5315,-405.2523C277.8338,-452.7958 323.433,-571.5878 356,-597.5 360.5372,-601.1101 365.6299,-604.0612 371.0035,-606.4703"/>
<polygon fill="#191970" stroke="#191970" points="263.7932,-403.9793 257.1093,-395.7588 257.208,-406.3532 263.7932,-403.9793"/>
</g>
<!-- Node9 -->
<g id="node9" class="node">
<title>Node9</title>
<g id="a_node9"><a xlink:href="../../d7/d9e/Fun4All__G4__fsPHENIX_8C.html#af48911d394d2412e817583700f2bbee2" target="_top" xlink:title="Fun4All_G4_fsPHENIX">
<polygon fill="none" stroke="#000000" points="377.5,-180.5 377.5,-200.5 501.5,-200.5 501.5,-180.5 377.5,-180.5"/>
<text text-anchor="middle" x="439.5" y="-187.5" font-family="FreeSans" font-size="10.00" fill="#000000">Fun4All_G4_fsPHENIX</text>
</a>
</g>
</g>
<!-- Node2&#45;&gt;Node9 -->
<g id="edge8" class="edge">
<title>Node2&#45;&gt;Node9</title>
<path fill="none" stroke="#191970" d="M305.5691,-376.7414C310.9451,-374.1395 315.9211,-370.7946 320,-366.5 369.0024,-314.9066 305.8945,-261.0228 356,-210.5 361.9831,-204.467 369.4415,-200.1291 377.4215,-197.0305"/>
<polygon fill="#191970" stroke="#191970" points="304.2303,-373.5072 296.2318,-380.4552 306.8174,-380.0116 304.2303,-373.5072"/>
</g>
<!-- Node10 -->
<g id="node10" class="node">
<title>Node10</title>
<g id="a_node10"><a xlink:href="../../da/d2f/Fun4All__G4__fsPHENIX__FastSim_8C.html#a66fb850cae5fcaadda23b74a25ce4c9c" target="_top" xlink:title="Fun4All_G4_fsPHENIX\l_FastSim">
<polygon fill="none" stroke="#000000" points="377.5,-129.5 377.5,-161.5 501.5,-161.5 501.5,-129.5 377.5,-129.5"/>
<text text-anchor="start" x="385.5" y="-148.5" font-family="FreeSans" font-size="10.00" fill="#000000">Fun4All_G4_fsPHENIX</text>
<text text-anchor="middle" x="439.5" y="-136.5" font-family="FreeSans" font-size="10.00" fill="#000000">_FastSim</text>
</a>
</g>
</g>
<!-- Node2&#45;&gt;Node10 -->
<g id="edge9" class="edge">
<title>Node2&#45;&gt;Node10</title>
<path fill="none" stroke="#191970" d="M305.5483,-377.018C310.9722,-374.3717 315.9654,-370.9407 320,-366.5 379.2648,-301.2712 297.5078,-237.4225 356,-171.5 361.8446,-164.913 369.327,-159.9761 377.405,-156.2797"/>
<polygon fill="#191970" stroke="#191970" points="304.1072,-373.8243 296.1071,-380.7704 306.6927,-380.3294 304.1072,-373.8243"/>
</g>
<!-- Node11 -->
<g id="node11" class="node">
<title>Node11</title>
<g id="a_node11"><a xlink:href="../../d0/da6/Fun4All__G4__fsPHENIX__pi0_8C.html#a023d91d47b678e5d7f1751834aa517c6" target="_top" xlink:title="Fun4All_G4_fsPHENIX_pi0">
<polygon fill="none" stroke="#000000" points="367,-90.5 367,-110.5 512,-110.5 512,-90.5 367,-90.5"/>
<text text-anchor="middle" x="439.5" y="-97.5" font-family="FreeSans" font-size="10.00" fill="#000000">Fun4All_G4_fsPHENIX_pi0</text>
</a>
</g>
</g>
<!-- Node2&#45;&gt;Node11 -->
<g id="edge10" class="edge">
<title>Node2&#45;&gt;Node11</title>
<path fill="none" stroke="#191970" d="M305.7129,-377.1647C311.1085,-374.4932 316.0501,-371.0162 320,-366.5 393.0349,-282.9951 280.7144,-200.9815 356,-119.5 359.2286,-116.0057 362.9547,-113.0882 367.0035,-110.6577"/>
<polygon fill="#191970" stroke="#191970" points="304.2767,-373.9697 296.2988,-380.9414 306.883,-380.4664 304.2767,-373.9697"/>
</g>
<!-- Node12 -->
<g id="node12" class="node">
<title>Node12</title>
<g id="a_node12"><a xlink:href="../../d5/d2c/macros_2blob_2master_2macros_2g4simulations_2Fun4All__G4__sPHENIX_8C.html#a6eaaa492d7023ec86c562dc63aa1e5a4" target="_top" xlink:title="Fun4All_G4_sPHENIX">
<polygon fill="none" stroke="#000000" points="379,-51.5 379,-71.5 500,-71.5 500,-51.5 379,-51.5"/>
<text text-anchor="middle" x="439.5" y="-58.5" font-family="FreeSans" font-size="10.00" fill="#000000">Fun4All_G4_sPHENIX</text>
</a>
</g>
</g>
<!-- Node2&#45;&gt;Node12 -->
<g id="edge11" class="edge">
<title>Node2&#45;&gt;Node12</title>
<path fill="none" stroke="#191970" d="M305.5917,-377.342C311.0536,-374.6445 316.0443,-371.1129 320,-366.5 403.3979,-269.2477 269.9802,-175.4412 356,-80.5 362.189,-73.6691 370.2778,-69.0325 378.9833,-65.928"/>
<polygon fill="#191970" stroke="#191970" points="304.0514,-374.188 296.0546,-381.138 306.6401,-380.6917 304.0514,-374.188"/>
</g>
<!-- Node13 -->
<g id="node13" class="node">
<title>Node13</title>
<g id="a_node13"><a xlink:href="../../d3/de2/Fun4All__G4__sPHENIX__AnaGenFit_8C.html#a9bf3f2f72ed69a17e2d0c1121d48013c" target="_top" xlink:title="Fun4All_G4_sPHENIX\l_AnaGenFit">
<polygon fill="none" stroke="#000000" points="379,-.5 379,-32.5 500,-32.5 500,-.5 379,-.5"/>
<text text-anchor="start" x="387" y="-19.5" font-family="FreeSans" font-size="10.00" fill="#000000">Fun4All_G4_sPHENIX</text>
<text text-anchor="middle" x="439.5" y="-7.5" font-family="FreeSans" font-size="10.00" fill="#000000">_AnaGenFit</text>
</a>
</g>
</g>
<!-- Node2&#45;&gt;Node13 -->
<g id="edge12" class="edge">
<title>Node2&#45;&gt;Node13</title>
<path fill="none" stroke="#191970" d="M305.6583,-377.3987C311.1089,-374.6915 316.0787,-371.1422 320,-366.5 413.7792,-255.479 262.9225,-153.1099 356,-41.5 362.0089,-34.2947 370.0049,-29.1131 378.673,-25.3976"/>
<polygon fill="#191970" stroke="#191970" points="304.1202,-374.2441 296.1318,-381.2037 306.7167,-380.7447 304.1202,-374.2441"/>
</g>
<!-- Node14 -->
<g id="node14" class="node">
<title>Node14</title>
<g id="a_node14"><a xlink:href="../../da/dd0/Fun4All__G4__sPHENIX__photonjet_8C.html#a6f18519e216acc05399e562ea57ea77c" target="_top" xlink:title="Fun4All_G4_sPHENIX\l_photonjet">
<polygon fill="none" stroke="#000000" points="379,-477.5 379,-509.5 500,-509.5 500,-477.5 379,-477.5"/>
<text text-anchor="start" x="387" y="-496.5" font-family="FreeSans" font-size="10.00" fill="#000000">Fun4All_G4_sPHENIX</text>
<text text-anchor="middle" x="439.5" y="-484.5" font-family="FreeSans" font-size="10.00" fill="#000000">_photonjet</text>
</a>
</g>
</g>
<!-- Node2&#45;&gt;Node14 -->
<g id="edge13" class="edge">
<title>Node2&#45;&gt;Node14</title>
<path fill="none" stroke="#191970" d="M270.657,-402.99C289.8663,-421.657 322.6909,-450.9133 356,-468.5 363.0923,-472.2446 370.8269,-475.5103 378.6339,-478.3348"/>
<polygon fill="#191970" stroke="#191970" points="272.8654,-400.2512 263.2964,-395.7031 267.9406,-405.2258 272.8654,-400.2512"/>
</g>
<!-- Node15 -->
<g id="node15" class="node">
<title>Node15</title>
<g id="a_node15"><a xlink:href="../../da/d85/Fun4All__G4__sPHENIX__photons_8C.html#a02fbbd59878fe1299f58ed187e7214ba" target="_top" xlink:title="Fun4All_G4_sPHENIX\l_photons">
<polygon fill="none" stroke="#000000" points="379,-426.5 379,-458.5 500,-458.5 500,-426.5 379,-426.5"/>
<text text-anchor="start" x="387" y="-445.5" font-family="FreeSans" font-size="10.00" fill="#000000">Fun4All_G4_sPHENIX</text>
<text text-anchor="middle" x="439.5" y="-433.5" font-family="FreeSans" font-size="10.00" fill="#000000">_photons</text>
</a>
</g>
</g>
<!-- Node2&#45;&gt;Node15 -->
<g id="edge14" class="edge">
<title>Node2&#45;&gt;Node15</title>
<path fill="none" stroke="#191970" d="M294.99,-398.574C313.6268,-404.4154 335.9018,-411.3542 356,-417.5 365.5508,-420.4205 375.727,-423.4968 385.5713,-426.4545"/>
<polygon fill="#191970" stroke="#191970" points="295.9172,-395.1967 285.328,-395.5418 293.8211,-401.8755 295.9172,-395.1967"/>
</g>
<!-- Node16 -->
<g id="node16" class="node">
<title>Node16</title>
<g id="a_node16"><a xlink:href="../../de/d55/Fun4All__G4__sPHENIX__truthphotonjet_8C.html#a48a6f4503eaa1b3793d8ae572aa795b9" target="_top" xlink:title="Fun4All_G4_sPHENIX\l_truthphotonjet">
<polygon fill="none" stroke="#000000" points="379,-375.5 379,-407.5 500,-407.5 500,-375.5 379,-375.5"/>
<text text-anchor="start" x="387" y="-394.5" font-family="FreeSans" font-size="10.00" fill="#000000">Fun4All_G4_sPHENIX</text>
<text text-anchor="middle" x="439.5" y="-382.5" font-family="FreeSans" font-size="10.00" fill="#000000">_truthphotonjet</text>
</a>
</g>
</g>
<!-- Node2&#45;&gt;Node16 -->
<g id="edge15" class="edge">
<title>Node2&#45;&gt;Node16</title>
<path fill="none" stroke="#191970" d="M306.2418,-387.2013C328.8133,-387.9295 355.3054,-388.784 378.6972,-389.5386"/>
<polygon fill="#191970" stroke="#191970" points="306.2798,-383.7008 296.1722,-386.8765 306.0541,-390.6972 306.2798,-383.7008"/>
</g>
<!-- Node17 -->
<g id="node17" class="node">
<title>Node17</title>
<g id="a_node17"><a xlink:href="../../d4/d65/Fun4All__single__particle_8C.html#a8a492b5dbead494bfdddbebde8a49b0e" target="_top" xlink:title="Fun4All_single_particle">
<polygon fill="none" stroke="#000000" points="373.5,-336.5 373.5,-356.5 505.5,-356.5 505.5,-336.5 373.5,-336.5"/>
<text text-anchor="middle" x="439.5" y="-343.5" font-family="FreeSans" font-size="10.00" fill="#000000">Fun4All_single_particle</text>
</a>
</g>
</g>
<!-- Node2&#45;&gt;Node17 -->
<g id="edge16" class="edge">
<title>Node2&#45;&gt;Node17</title>
<path fill="none" stroke="#191970" d="M306.1909,-374.4519C333.1104,-368.8075 365.6169,-361.9916 391.791,-356.5035"/>
<polygon fill="#191970" stroke="#191970" points="305.241,-371.0749 296.1722,-376.5526 306.6776,-377.9259 305.241,-371.0749"/>
</g>
<!-- Node18 -->
<g id="node18" class="node">
<title>Node18</title>
<g id="a_node18"><a xlink:href="../../d0/d99/Jin__BJet_8C.html#a36169bfee2ed7efda633944d12aebad9" target="_top" xlink:title="Jin_BJet">
<polygon fill="none" stroke="#000000" points="412,-297.5 412,-317.5 467,-317.5 467,-297.5 412,-297.5"/>
<text text-anchor="middle" x="439.5" y="-304.5" font-family="FreeSans" font-size="10.00" fill="#000000">Jin_BJet</text>
</a>
</g>
</g>
<!-- Node2&#45;&gt;Node18 -->
<g id="edge17" class="edge">
<title>Node2&#45;&gt;Node18</title>
<path fill="none" stroke="#191970" d="M305.7791,-373.5868C310.7482,-371.5691 315.5762,-369.2235 320,-366.5 340.0876,-354.1333 335.65,-339.4298 356,-327.5 372.9748,-317.5488 394.6444,-312.5424 411.6543,-310.0272"/>
<polygon fill="#191970" stroke="#191970" points="304.3348,-370.387 296.1182,-377.0758 306.7126,-376.9708 304.3348,-370.387"/>
</g>
<!-- Node19 -->
<g id="node19" class="node">
<title>Node19</title>
<g id="a_node19"><a xlink:href="../../dd/db1/Wrapper_8cxx.html#abf1e42281903daa0752c80dd6c879fac" target="_top" xlink:title="Wrapper">
<polygon fill="none" stroke="#000000" points="409.5,-258.5 409.5,-278.5 469.5,-278.5 469.5,-258.5 409.5,-258.5"/>
<text text-anchor="middle" x="439.5" y="-265.5" font-family="FreeSans" font-size="10.00" fill="#000000">Wrapper</text>
</a>
</g>
</g>
<!-- Node2&#45;&gt;Node19 -->
<g id="edge18" class="edge">
<title>Node2&#45;&gt;Node19</title>
<path fill="none" stroke="#191970" d="M305.7791,-375.4124C310.9185,-373.0404 315.7826,-370.1128 320,-366.5 348.9961,-341.6604 326.4741,-312.7074 356,-288.5 370.8705,-276.3081 391.9567,-271.325 409.2185,-269.3812"/>
<polygon fill="#191970" stroke="#191970" points="304.3527,-372.212 296.311,-379.11 306.8991,-378.7324 304.3527,-372.212"/>
</g>
<!-- Node4 -->
<g id="node4" class="node">
<title>Node4</title>
<g id="a_node4"><a xlink:href="../../d3/d7f/Fun_8C.html#af69a3eef3ff244bb51f5740c6ecb5432" target="_top" xlink:title="Fun">
<polygon fill="none" stroke="#000000" points="559,-219.5 559,-239.5 593,-239.5 593,-219.5 559,-219.5"/>
<text text-anchor="middle" x="576" y="-226.5" font-family="FreeSans" font-size="10.00" fill="#000000">Fun</text>
</a>
</g>
</g>
<!-- Node3&#45;&gt;Node4 -->
<g id="edge3" class="edge">
<title>Node3&#45;&gt;Node4</title>
<path fill="none" stroke="#191970" d="M506.6941,-229.5C526.0852,-229.5 545.59,-229.5 558.9452,-229.5"/>
<polygon fill="#191970" stroke="#191970" points="506.5974,-226.0001 496.5974,-229.5 506.5974,-233.0001 506.5974,-226.0001"/>
</g>
<!-- Node20&#45;&gt;Node5 -->
<g id="edge20" class="edge">
<title>Node20&#45;&gt;Node5</title>
<path fill="none" stroke="#191970" d="M305.775,-577.5C325.6148,-577.5 348.5361,-577.5 369.7361,-577.5"/>
<polygon fill="#191970" stroke="#191970" points="305.7063,-574.0001 295.7063,-577.5 305.7062,-581.0001 305.7063,-574.0001"/>
</g>
<!-- Node20&#45;&gt;Node6 -->
<g id="edge21" class="edge">
<title>Node20&#45;&gt;Node6</title>
<path fill="none" stroke="#191970" d="M305.7241,-566.5498C332.6546,-560.9031 365.2731,-554.0637 391.5588,-548.5522"/>
<polygon fill="#191970" stroke="#191970" points="304.7752,-563.1726 295.7063,-568.6503 306.2117,-570.0236 304.7752,-563.1726"/>
</g>
<!-- Node20&#45;&gt;Node7 -->
<g id="edge22" class="edge">
<title>Node20&#45;&gt;Node7</title>
<path fill="none" stroke="#191970" d="M277.108,-593.1983C297.374,-606.1512 327.7077,-624.3175 356,-636.5 363.5052,-639.7317 371.5595,-642.7124 379.5972,-645.4042"/>
<polygon fill="#191970" stroke="#191970" points="278.8445,-590.153 268.5486,-587.6541 275.0389,-596.0282 278.8445,-590.153"/>
</g>
<!-- Node20&#45;&gt;Node8 -->
<g id="edge23" class="edge">
<title>Node20&#45;&gt;Node8</title>
<path fill="none" stroke="#191970" d="M305.7241,-588.4502C332.6546,-594.0969 365.2731,-600.9363 391.5588,-606.4478"/>
<polygon fill="#191970" stroke="#191970" points="306.2117,-584.9764 295.7063,-586.3497 304.7752,-591.8274 306.2117,-584.9764"/>
</g>
<!-- Node24&#45;&gt;Node3 -->
<g id="edge28" class="edge">
<title>Node24&#45;&gt;Node3</title>
<path fill="none" stroke="#191970" d="M315.0305,-331.2632C316.7641,-330.0997 318.427,-328.8475 320,-327.5 348.9961,-302.6604 326.4741,-273.7074 356,-249.5 363.6081,-243.2623 372.8434,-238.9116 382.361,-235.8894"/>
<polygon fill="#191970" stroke="#191970" points="312.8928,-328.4477 305.8625,-336.3739 316.3012,-334.5619 312.8928,-328.4477"/>
</g>
<!-- Node24&#45;&gt;Node5 -->
<g id="edge29" class="edge">
<title>Node24&#45;&gt;Node5</title>
<path fill="none" stroke="#191970" d="M315.6121,-362.2896C317.1708,-363.586 318.6403,-364.9867 320,-366.5 378.0271,-431.0805 295.7983,-495.9418 356,-558.5 360.0205,-562.6779 364.7539,-566.0237 369.8897,-568.6942"/>
<polygon fill="#191970" stroke="#191970" points="317.4256,-359.2919 307.1683,-356.639 313.5325,-365.1094 317.4256,-359.2919"/>
</g>
<!-- Node24&#45;&gt;Node6 -->
<g id="edge30" class="edge">
<title>Node24&#45;&gt;Node6</title>
<path fill="none" stroke="#191970" d="M315.4167,-362.2874C317.0402,-363.5838 318.575,-364.9853 320,-366.5 367.8656,-417.3811 306.4223,-470.2856 356,-519.5 359.5874,-523.0611 363.6948,-526.0115 368.1207,-528.4504"/>
<polygon fill="#191970" stroke="#191970" points="316.9603,-359.1182 306.6592,-356.6405 313.1668,-365.0012 316.9603,-359.1182"/>
</g>
<!-- Node24&#45;&gt;Node7 -->
<g id="edge31" class="edge">
<title>Node24&#45;&gt;Node7</title>
<path fill="none" stroke="#191970" d="M316.1903,-362.6121C317.5426,-363.8181 318.8175,-365.1119 320,-366.5 398.5076,-458.655 277.4353,-544.3936 356,-636.5 359.9281,-641.1052 364.6673,-644.8816 369.8681,-647.9758"/>
<polygon fill="#191970" stroke="#191970" points="317.8928,-359.5298 307.7045,-356.623 313.8563,-365.2488 317.8928,-359.5298"/>
</g>
<!-- Node24&#45;&gt;Node8 -->
<g id="edge32" class="edge">
<title>Node24&#45;&gt;Node8</title>
<path fill="none" stroke="#191970" d="M315.6734,-362.2354C317.2146,-363.5473 318.6637,-364.966 320,-366.5 388.25,-444.8479 285.1105,-521.532 356,-597.5 359.2458,-600.9783 362.9848,-603.8839 367.043,-606.3056"/>
<polygon fill="#191970" stroke="#191970" points="317.5303,-359.2654 307.2956,-356.5264 313.5883,-365.05 317.5303,-359.2654"/>
</g>
<!-- Node24&#45;&gt;Node9 -->
<g id="edge33" class="edge">
<title>Node24&#45;&gt;Node9</title>
<path fill="none" stroke="#191970" d="M315.9842,-330.9915C317.3895,-329.9044 318.7324,-328.7422 320,-327.5 358.8573,-289.4197 316.3291,-247.732 356,-210.5 362.0868,-204.7874 369.5063,-200.617 377.3841,-197.5875"/>
<polygon fill="#191970" stroke="#191970" points="313.94,-328.1426 307.3433,-336.4333 317.6703,-334.0659 313.94,-328.1426"/>
</g>
<!-- Node24&#45;&gt;Node10 -->
<g id="edge34" class="edge">
<title>Node24&#45;&gt;Node10</title>
<path fill="none" stroke="#191970" d="M316.6488,-330.6578C317.8206,-329.6669 318.9405,-328.6155 320,-327.5 369.0024,-275.9066 307.6088,-223.6671 356,-171.5 361.8856,-165.1552 369.2899,-160.3468 377.2447,-156.7052"/>
<polygon fill="#191970" stroke="#191970" points="314.5609,-327.8449 308.2554,-336.3591 318.4942,-333.6354 314.5609,-327.8449"/>
</g>
<!-- Node24&#45;&gt;Node11 -->
<g id="edge35" class="edge">
<title>Node24&#45;&gt;Node11</title>
<path fill="none" stroke="#191970" d="M316.6496,-330.8103C317.8268,-329.7744 318.9468,-328.6723 320,-327.5 382.7003,-257.71 291.4192,-187.5537 356,-119.5 359.3772,-115.9412 363.2712,-112.9842 367.4926,-110.533"/>
<polygon fill="#191970" stroke="#191970" points="314.3561,-328.1424 308.1521,-336.7307 318.3578,-333.8858 314.3561,-328.1424"/>
</g>
<!-- Node24&#45;&gt;Node12 -->
<g id="edge36" class="edge">
<title>Node24&#45;&gt;Node12</title>
<path fill="none" stroke="#191970" d="M316.692,-330.8479C317.8566,-329.8008 318.9625,-328.6862 320,-327.5 393.0349,-243.9951 280.7144,-161.9815 356,-80.5 362.1544,-73.8391 370.1169,-69.2737 378.6762,-66.1834"/>
<polygon fill="#191970" stroke="#191970" points="314.3934,-328.187 308.2575,-336.8242 318.4404,-333.8985 314.3934,-328.187"/>
</g>
<!-- Node24&#45;&gt;Node13 -->
<g id="edge37" class="edge">
<title>Node24&#45;&gt;Node13</title>
<path fill="none" stroke="#191970" d="M316.2832,-331.2712C317.601,-330.1023 318.8447,-328.8473 320,-327.5 403.3979,-230.2477 273.2168,-139.2761 356,-41.5 362.0624,-34.3397 370.086,-29.1813 378.7652,-25.4751"/>
<polygon fill="#191970" stroke="#191970" points="314.1973,-328.4591 308.0215,-337.0678 318.2179,-334.1894 314.1973,-328.4591"/>
</g>
<!-- Node24&#45;&gt;Node14 -->
<g id="edge38" class="edge">
<title>Node24&#45;&gt;Node14</title>
<path fill="none" stroke="#191970" d="M313.9691,-361.6097C316.1067,-363.0907 318.1299,-364.7161 320,-366.5 354.7853,-399.6828 321.1942,-435.3388 356,-468.5 362.464,-474.6585 370.3836,-479.3063 378.7446,-482.8125"/>
<polygon fill="#191970" stroke="#191970" points="315.6522,-358.5401 305.2394,-356.5843 312.1598,-364.6067 315.6522,-358.5401"/>
</g>
<!-- Node24&#45;&gt;Node15 -->
<g id="edge39" class="edge">
<title>Node24&#45;&gt;Node15</title>
<path fill="none" stroke="#191970" d="M310.3445,-360.6612C313.7335,-362.3911 316.9856,-364.3291 320,-366.5 342.514,-382.7141 333.4759,-401.2999 356,-417.5 362.8795,-422.448 370.7448,-426.4275 378.8355,-429.6256"/>
<polygon fill="#191970" stroke="#191970" points="311.6821,-357.4256 301.1234,-356.5518 308.8327,-363.8194 311.6821,-357.4256"/>
</g>
<!-- Node24&#45;&gt;Node16 -->
<g id="edge40" class="edge">
<title>Node24&#45;&gt;Node16</title>
<path fill="none" stroke="#191970" d="M305.0925,-358.9821C327.9561,-364.5136 355.0152,-371.0601 378.8399,-376.8242"/>
<polygon fill="#191970" stroke="#191970" points="305.7847,-355.5486 295.242,-356.5989 304.1386,-362.3523 305.7847,-355.5486"/>
</g>
<!-- Node24&#45;&gt;Node17 -->
<g id="edge41" class="edge">
<title>Node24&#45;&gt;Node17</title>
<path fill="none" stroke="#191970" d="M318.0978,-346.5C335.9946,-346.5 355.4438,-346.5 373.4237,-346.5"/>
<polygon fill="#191970" stroke="#191970" points="318.0494,-343.0001 308.0494,-346.5 318.0493,-350.0001 318.0494,-343.0001"/>
</g>
<!-- Node24&#45;&gt;Node18 -->
<g id="edge42" class="edge">
<title>Node24&#45;&gt;Node18</title>
<path fill="none" stroke="#191970" d="M311.5431,-334.3297C345.0359,-327.307 385.6079,-318.8 411.9581,-313.2749"/>
<polygon fill="#191970" stroke="#191970" points="310.4685,-330.9788 301.3996,-336.4565 311.9051,-337.8298 310.4685,-330.9788"/>
</g>
<!-- Node24&#45;&gt;Node19 -->
<g id="edge43" class="edge">
<title>Node24&#45;&gt;Node19</title>
<path fill="none" stroke="#191970" d="M310.5075,-332.5428C313.8032,-331.0258 316.9949,-329.3501 320,-327.5 340.0876,-315.1333 335.65,-300.4298 356,-288.5 372.2032,-279.0011 392.6842,-274.0077 409.3067,-271.3858"/>
<polygon fill="#191970" stroke="#191970" points="308.9532,-329.3966 301.0125,-336.4107 311.594,-335.8794 308.9532,-329.3966"/>
</g>
<!-- Node25&#45;&gt;Node3 -->
<g id="edge45" class="edge">
<title>Node25&#45;&gt;Node3</title>
<path fill="none" stroke="#191970" d="M310.5075,-293.5428C313.8032,-292.0258 316.9949,-290.3501 320,-288.5 340.0876,-276.1333 335.65,-261.4298 356,-249.5 364.1016,-244.7506 373.2727,-241.1275 382.4961,-238.3641"/>
<polygon fill="#191970" stroke="#191970" points="308.9532,-290.3966 301.0125,-297.4107 311.594,-296.8794 308.9532,-290.3966"/>
</g>
<!-- Node25&#45;&gt;Node5 -->
<g id="edge46" class="edge">
<title>Node25&#45;&gt;Node5</title>
<path fill="none" stroke="#191970" d="M315.6734,-323.2354C317.2146,-324.5473 318.6637,-325.966 320,-327.5 388.25,-405.8479 285.1105,-482.532 356,-558.5 359.9558,-562.7392 364.6442,-566.1277 369.7502,-568.8263"/>
<polygon fill="#191970" stroke="#191970" points="317.5303,-320.2654 307.2956,-317.5264 313.5883,-326.05 317.5303,-320.2654"/>
</g>
<!-- Node25&#45;&gt;Node6 -->
<g id="edge47" class="edge">
<title>Node25&#45;&gt;Node6</title>
<path fill="none" stroke="#191970" d="M315.6121,-323.2896C317.1708,-324.586 318.6403,-325.9867 320,-327.5 378.0271,-392.0805 295.7983,-456.9418 356,-519.5 359.4019,-523.0351 363.3143,-525.9745 367.549,-528.4131"/>
<polygon fill="#191970" stroke="#191970" points="317.4256,-320.2919 307.1683,-317.639 313.5325,-326.1094 317.4256,-320.2919"/>
</g>
<!-- Node25&#45;&gt;Node7 -->
<g id="edge48" class="edge">
<title>Node25&#45;&gt;Node7</title>
<path fill="none" stroke="#191970" d="M316.221,-323.5862C317.5643,-324.7997 318.829,-326.1022 320,-327.5 408.7868,-433.4875 267.1475,-530.5676 356,-636.5 359.8898,-641.1376 364.6027,-644.9363 369.7864,-648.045"/>
<polygon fill="#191970" stroke="#191970" points="317.9481,-320.5192 307.7736,-317.5646 313.8849,-326.2192 317.9481,-320.5192"/>
</g>
<!-- Node25&#45;&gt;Node8 -->
<g id="edge49" class="edge">
<title>Node25&#45;&gt;Node8</title>
<path fill="none" stroke="#191970" d="M316.1903,-323.6121C317.5426,-324.8181 318.8175,-326.1119 320,-327.5 398.5076,-419.655 274.3867,-508.0837 356,-597.5 359.2072,-601.0139 362.9173,-603.9461 366.9545,-606.3873"/>
<polygon fill="#191970" stroke="#191970" points="317.8928,-320.5298 307.7045,-317.623 313.8563,-326.2488 317.8928,-320.5298"/>
</g>
<!-- Node25&#45;&gt;Node9 -->
<g id="edge50" class="edge">
<title>Node25&#45;&gt;Node9</title>
<path fill="none" stroke="#191970" d="M315.0305,-292.2632C316.7641,-291.0997 318.427,-289.8475 320,-288.5 348.9961,-263.6604 326.4741,-234.7074 356,-210.5 362.2248,-205.3964 369.5389,-201.556 377.2057,-198.673"/>
<polygon fill="#191970" stroke="#191970" points="312.8928,-289.4477 305.8625,-297.3739 316.3012,-295.5619 312.8928,-289.4477"/>
</g>
<!-- Node25&#45;&gt;Node10 -->
<g id="edge51" class="edge">
<title>Node25&#45;&gt;Node10</title>
<path fill="none" stroke="#191970" d="M315.9842,-291.9915C317.3895,-290.9044 318.7324,-289.7422 320,-288.5 358.8573,-250.4197 317.594,-210.0354 356,-171.5 362.0021,-165.4777 369.3738,-160.8461 377.2288,-157.2848"/>
<polygon fill="#191970" stroke="#191970" points="313.94,-289.1426 307.3433,-297.4333 317.6703,-295.0659 313.94,-289.1426"/>
</g>
<!-- Node25&#45;&gt;Node11 -->
<g id="edge52" class="edge">
<title>Node25&#45;&gt;Node11</title>
<path fill="none" stroke="#191970" d="M316.6744,-291.682C317.8386,-290.6838 318.95,-289.6244 320,-288.5 372.4141,-232.3712 302.0743,-174.1781 356,-119.5 359.445,-116.0069 363.3894,-113.0986 367.6471,-110.6825"/>
<polygon fill="#191970" stroke="#191970" points="314.5816,-288.8733 308.3195,-297.4195 318.5443,-294.6437 314.5816,-288.8733"/>
</g>
<!-- Node25&#45;&gt;Node12 -->
<g id="edge53" class="edge">
<title>Node25&#45;&gt;Node12</title>
<path fill="none" stroke="#191970" d="M317.1505,-291.3622C318.1454,-290.458 319.0972,-289.5048 320,-288.5 382.7003,-218.71 291.4192,-148.5537 356,-80.5 362.2426,-73.9216 370.2512,-69.3995 378.8298,-66.3272"/>
<polygon fill="#191970" stroke="#191970" points="314.8592,-288.6989 308.7814,-297.3771 318.9444,-294.3831 314.8592,-288.6989"/>
</g>
<!-- Node25&#45;&gt;Node13 -->
<g id="edge54" class="edge">
<title>Node25&#45;&gt;Node13</title>
<path fill="none" stroke="#191970" d="M317.1875,-291.395C318.1712,-290.4809 319.1107,-289.5168 320,-288.5 393.0349,-204.9951 283.493,-125.4637 356,-41.5 362.1319,-34.3992 370.1914,-29.2714 378.8851,-25.5776"/>
<polygon fill="#191970" stroke="#191970" points="314.8894,-288.7395 308.8837,-297.4678 319.0216,-294.3897 314.8894,-288.7395"/>
</g>
<!-- Node25&#45;&gt;Node14 -->
<g id="edge55" class="edge">
<title>Node25&#45;&gt;Node14</title>
<path fill="none" stroke="#191970" d="M314.8526,-322.9137C316.6816,-324.3133 318.407,-325.8383 320,-327.5 364.7592,-374.1875 311.2119,-421.8402 356,-468.5 362.2874,-475.0501 370.2143,-479.9032 378.667,-483.4948"/>
<polygon fill="#191970" stroke="#191970" points="316.5936,-319.8745 306.2577,-317.5464 312.8858,-325.8119 316.5936,-319.8745"/>
</g>
<!-- Node25&#45;&gt;Node15 -->
<g id="edge56" class="edge">
<title>Node25&#45;&gt;Node15</title>
<path fill="none" stroke="#191970" d="M313.745,-322.6189C315.9562,-324.097 318.0546,-325.7194 320,-327.5 351.7788,-356.5879 324.2032,-388.4317 356,-417.5 362.5895,-423.524 370.5768,-428.0993 378.9677,-431.5735"/>
<polygon fill="#191970" stroke="#191970" points="315.182,-319.413 304.7429,-317.6029 311.7748,-325.5278 315.182,-319.413"/>
</g>
<!-- Node25&#45;&gt;Node16 -->
<g id="edge57" class="edge">
<title>Node25&#45;&gt;Node16</title>
<path fill="none" stroke="#191970" d="M308.4628,-321.4126C312.4835,-323.214 316.3774,-325.2351 320,-327.5 340.0015,-340.0054 335.9908,-354.007 356,-366.5 363.0597,-370.9078 370.9401,-374.5756 378.9628,-377.6179"/>
<polygon fill="#191970" stroke="#191970" points="309.5036,-318.0594 298.9189,-317.5967 306.9048,-324.5591 309.5036,-318.0594"/>
</g>
<!-- Node25&#45;&gt;Node17 -->
<g id="edge58" class="edge">
<title>Node25&#45;&gt;Node17</title>
<path fill="none" stroke="#191970" d="M311.4315,-319.6469C337.2404,-325.0585 367.271,-331.3552 391.7627,-336.4906"/>
<polygon fill="#191970" stroke="#191970" points="311.9051,-316.1702 301.3996,-317.5435 310.4685,-323.0212 311.9051,-316.1702"/>
</g>
<!-- Node25&#45;&gt;Node18 -->
<g id="edge59" class="edge">
<title>Node25&#45;&gt;Node18</title>
<path fill="none" stroke="#191970" d="M319.2029,-307.5C351.033,-307.5 387.5442,-307.5 411.9147,-307.5"/>
<polygon fill="#191970" stroke="#191970" points="319.0542,-304.0001 309.0542,-307.5 319.0542,-311.0001 319.0542,-304.0001"/>
</g>
<!-- Node25&#45;&gt;Node19 -->
<g id="edge60" class="edge">
<title>Node25&#45;&gt;Node19</title>
<path fill="none" stroke="#191970" d="M311.2245,-295.3965C343.6461,-288.5984 382.7828,-280.3923 409.2343,-274.846"/>
<polygon fill="#191970" stroke="#191970" points="310.4685,-291.9788 301.3996,-297.4565 311.9051,-298.8298 310.4685,-291.9788"/>
</g>
</g>
</svg>
