<?xml version="1.0" encoding="UTF-8" standalone="no"?>
<!DOCTYPE svg PUBLIC "-//W3C//DTD SVG 1.1//EN"
 "http://www.w3.org/Graphics/SVG/1.1/DTD/svg11.dtd">
<!-- Generated by graphviz version 2.40.1 (20161225.0304)
 -->
<!-- Title: RawTowerDigitizer::set_photonelec_ADC Pages: 1 -->
<svg width="570pt" height="686pt"
 viewBox="0.00 0.00 570.00 686.00" xmlns="http://www.w3.org/2000/svg" xmlns:xlink="http://www.w3.org/1999/xlink">
<g id="graph0" class="graph" transform="scale(1 1) rotate(0) translate(4 682)">
<title>RawTowerDigitizer::set_photonelec_ADC</title>
<!-- Node1 -->
<g id="node1" class="node">
<title>Node1</title>
<polygon fill="#bfbfbf" stroke="#000000" points="0,-291.5 0,-323.5 120,-323.5 120,-291.5 0,-291.5"/>
<text text-anchor="start" x="8" y="-310.5" font-family="FreeSans" font-size="10.00" fill="#000000">RawTowerDigitizer::</text>
<text text-anchor="middle" x="60" y="-298.5" font-family="FreeSans" font-size="10.00" fill="#000000">set_photonelec_ADC</text>
</g>
<!-- Node2 -->
<g id="node2" class="node">
<title>Node2</title>
<g id="a_node2"><a xlink:href="../../d8/d4c/G4__CEmc__EIC_8C.html#a46a52c955e8d2078c58d4d7db471cc43" target="_top" xlink:title="CEMC_Towers">
<polygon fill="none" stroke="#000000" points="180,-375.5 180,-395.5 265,-395.5 265,-375.5 180,-375.5"/>
<text text-anchor="middle" x="222.5" y="-382.5" font-family="FreeSans" font-size="10.00" fill="#000000">CEMC_Towers</text>
</a>
</g>
</g>
<!-- Node1&#45;&gt;Node2 -->
<g id="edge1" class="edge">
<title>Node1&#45;&gt;Node2</title>
<path fill="none" stroke="#191970" d="M90.7915,-329.42C109.0645,-341.6504 133.0737,-356.4075 156,-366.5 163.8025,-369.9348 172.3922,-372.9258 180.7323,-375.455"/>
<polygon fill="#191970" stroke="#191970" points="92.5484,-326.3821 82.3118,-323.6504 88.6107,-332.1695 92.5484,-326.3821"/>
</g>
<!-- Node20 -->
<g id="node20" class="node">
<title>Node20</title>
<g id="a_node20"><a xlink:href="../../d1/d81/macros_2blob_2master_2macros_2g4simulations_2G4__EEMC_8C.html#a05b9b10b79cc47702702e091692fd060" target="_top" xlink:title="EEMC_Towers">
<polygon fill="none" stroke="#000000" points="180.5,-567.5 180.5,-587.5 264.5,-587.5 264.5,-567.5 180.5,-567.5"/>
<text text-anchor="middle" x="222.5" y="-574.5" font-family="FreeSans" font-size="10.00" fill="#000000">EEMC_Towers</text>
</a>
</g>
</g>
<!-- Node1&#45;&gt;Node20 -->
<g id="edge19" class="edge">
<title>Node1&#45;&gt;Node20</title>
<path fill="none" stroke="#191970" d="M74.9525,-332.3441C109.3892,-389.562 193.1234,-528.6897 216.405,-567.3729"/>
<polygon fill="#191970" stroke="#191970" points="77.8339,-330.3443 69.6785,-323.5812 71.8364,-333.9539 77.8339,-330.3443"/>
</g>
<!-- Node21 -->
<g id="node21" class="node">
<title>Node21</title>
<g id="a_node21"><a xlink:href="../../dc/d8e/Fun4All__G4__Prototype2_8C.html#a6b8f092c4f51be2938dd09c810ba6226" target="_top" xlink:title="Fun4All_G4_Prototype2">
<polygon fill="none" stroke="#000000" points="156,-258.5 156,-278.5 289,-278.5 289,-258.5 156,-258.5"/>
<text text-anchor="middle" x="222.5" y="-265.5" font-family="FreeSans" font-size="10.00" fill="#000000">Fun4All_G4_Prototype2</text>
</a>
</g>
</g>
<!-- Node1&#45;&gt;Node21 -->
<g id="edge24" class="edge">
<title>Node1&#45;&gt;Node21</title>
<path fill="none" stroke="#191970" d="M130.0522,-290.6875C147.2184,-286.5676 165.0644,-282.2845 180.4458,-278.593"/>
<polygon fill="#191970" stroke="#191970" points="128.9544,-287.3515 120.0473,-293.0886 130.588,-294.1582 128.9544,-287.3515"/>
</g>
<!-- Node22 -->
<g id="node22" class="node">
<title>Node22</title>
<g id="a_node22"><a xlink:href="../../d7/d40/Fun4All__G4__Prototype3_8C.html#a1201361263017b08a070777a0b90b27c" target="_top" xlink:title="Fun4All_G4_Prototype3">
<polygon fill="none" stroke="#000000" points="156,-219.5 156,-239.5 289,-239.5 289,-219.5 156,-219.5"/>
<text text-anchor="middle" x="222.5" y="-226.5" font-family="FreeSans" font-size="10.00" fill="#000000">Fun4All_G4_Prototype3</text>
</a>
</g>
</g>
<!-- Node1&#45;&gt;Node22 -->
<g id="edge25" class="edge">
<title>Node1&#45;&gt;Node22</title>
<path fill="none" stroke="#191970" d="M91.2639,-285.8568C109.5241,-273.9295 133.3641,-259.5492 156,-249.5 164.5947,-245.6844 174.1256,-242.3372 183.2241,-239.5272"/>
<polygon fill="#191970" stroke="#191970" points="89.1768,-283.0411 82.7777,-291.4852 93.0459,-288.8747 89.1768,-283.0411"/>
</g>
<!-- Node23 -->
<g id="node23" class="node">
<title>Node23</title>
<g id="a_node23"><a xlink:href="../../d4/d58/Fun4All__G4__Prototype4_8C.html#acac517f0728af658cbf99c7c9687c908" target="_top" xlink:title="Fun4All_G4_Prototype4">
<polygon fill="none" stroke="#000000" points="156,-180.5 156,-200.5 289,-200.5 289,-180.5 156,-180.5"/>
<text text-anchor="middle" x="222.5" y="-187.5" font-family="FreeSans" font-size="10.00" fill="#000000">Fun4All_G4_Prototype4</text>
</a>
</g>
</g>
<!-- Node1&#45;&gt;Node23 -->
<g id="edge26" class="edge">
<title>Node1&#45;&gt;Node23</title>
<path fill="none" stroke="#191970" d="M77.9798,-283.4054C95.5814,-261.4253 124.311,-229.5541 156,-210.5 162.7158,-206.4619 170.3084,-203.185 177.8996,-200.5431"/>
<polygon fill="#191970" stroke="#191970" points="75.2084,-281.2677 71.7957,-291.2978 80.7184,-285.5851 75.2084,-281.2677"/>
</g>
<!-- Node24 -->
<g id="node24" class="node">
<title>Node24</title>
<g id="a_node24"><a xlink:href="../../d7/dc0/G4__HcalIn__EIC_8C.html#a4552e4b1c6ffcc08cba2296b2c45f950" target="_top" xlink:title="HCALInner_Towers">
<polygon fill="none" stroke="#000000" points="168,-336.5 168,-356.5 277,-356.5 277,-336.5 168,-336.5"/>
<text text-anchor="middle" x="222.5" y="-343.5" font-family="FreeSans" font-size="10.00" fill="#000000">HCALInner_Towers</text>
</a>
</g>
</g>
<!-- Node1&#45;&gt;Node24 -->
<g id="edge27" class="edge">
<title>Node1&#45;&gt;Node24</title>
<path fill="none" stroke="#191970" d="M130.0522,-324.3125C147.2184,-328.4324 165.0644,-332.7155 180.4458,-336.407"/>
<polygon fill="#191970" stroke="#191970" points="130.588,-320.8418 120.0473,-321.9114 128.9544,-327.6485 130.588,-320.8418"/>
</g>
<!-- Node25 -->
<g id="node25" class="node">
<title>Node25</title>
<g id="a_node25"><a xlink:href="../../de/d3d/macros_2blob_2master_2macros_2g4simulations_2G4__HcalOut__ref_8C.html#a4fd9d72ad1e04ebc46273f3b9fff91d6" target="_top" xlink:title="HCALOuter_Towers">
<polygon fill="none" stroke="#000000" points="167,-297.5 167,-317.5 278,-317.5 278,-297.5 167,-297.5"/>
<text text-anchor="middle" x="222.5" y="-304.5" font-family="FreeSans" font-size="10.00" fill="#000000">HCALOuter_Towers</text>
</a>
</g>
</g>
<!-- Node1&#45;&gt;Node25 -->
<g id="edge44" class="edge">
<title>Node1&#45;&gt;Node25</title>
<path fill="none" stroke="#191970" d="M130.204,-307.5C142.4198,-307.5 154.9751,-307.5 166.7375,-307.5"/>
<polygon fill="#191970" stroke="#191970" points="130.0473,-304.0001 120.0473,-307.5 130.0473,-311.0001 130.0473,-304.0001"/>
</g>
<!-- Node3 -->
<g id="node3" class="node">
<title>Node3</title>
<g id="a_node3"><a xlink:href="../../d3/d7f/Fun_8C.html#af0d3c8a78765149fef9b2beeecfc6279" target="_top" xlink:title="ConfigureDetectors">
<polygon fill="none" stroke="#000000" points="351.5,-219.5 351.5,-239.5 465.5,-239.5 465.5,-219.5 351.5,-219.5"/>
<text text-anchor="middle" x="408.5" y="-226.5" font-family="FreeSans" font-size="10.00" fill="#000000">ConfigureDetectors</text>
</a>
</g>
</g>
<!-- Node2&#45;&gt;Node3 -->
<g id="edge2" class="edge">
<title>Node2&#45;&gt;Node3</title>
<path fill="none" stroke="#191970" d="M274.8752,-376.1637C280.0753,-373.6567 284.9266,-370.492 289,-366.5 327.8573,-328.4197 285.3291,-286.732 325,-249.5 332.2825,-242.6652 341.4725,-238.0381 351.0728,-234.9312"/>
<polygon fill="#191970" stroke="#191970" points="273.2273,-373.0524 265.2306,-380.0025 275.8161,-379.5562 273.2273,-373.0524"/>
</g>
<!-- Node5 -->
<g id="node5" class="node">
<title>Node5</title>
<g id="a_node5"><a xlink:href="../../da/d02/Fun4All__G4__EICDetector_8C.html#afbe82cefa1d1fd031d9a8586b7bb68c6" target="_top" xlink:title="Fun4All_G4_EICDetector">
<polygon fill="none" stroke="#000000" points="339,-567.5 339,-587.5 478,-587.5 478,-567.5 339,-567.5"/>
<text text-anchor="middle" x="408.5" y="-574.5" font-family="FreeSans" font-size="10.00" fill="#000000">Fun4All_G4_EICDetector</text>
</a>
</g>
</g>
<!-- Node2&#45;&gt;Node5 -->
<g id="edge4" class="edge">
<title>Node2&#45;&gt;Node5</title>
<path fill="none" stroke="#191970" d="M228.5054,-405.5741C240.5092,-442.0781 271.0528,-519.1805 325,-558.5 329.926,-562.0903 335.4158,-565.0179 341.1627,-567.403"/>
<polygon fill="#191970" stroke="#191970" points="231.7165,-404.1191 225.3699,-395.6355 225.0408,-406.2252 231.7165,-404.1191"/>
</g>
<!-- Node6 -->
<g id="node6" class="node">
<title>Node6</title>
<g id="a_node6"><a xlink:href="../../dd/d2a/Fun4All__G4__EICDetector__LQ_8C.html#aaa01242fd6e77ca43a9d49a6d46008e4" target="_top" xlink:title="Fun4All_G4_EICDetector_LQ">
<polygon fill="none" stroke="#000000" points="330.5,-528.5 330.5,-548.5 486.5,-548.5 486.5,-528.5 330.5,-528.5"/>
<text text-anchor="middle" x="408.5" y="-535.5" font-family="FreeSans" font-size="10.00" fill="#000000">Fun4All_G4_EICDetector_LQ</text>
</a>
</g>
</g>
<!-- Node2&#45;&gt;Node6 -->
<g id="edge5" class="edge">
<title>Node2&#45;&gt;Node6</title>
<path fill="none" stroke="#191970" d="M231.8766,-405.1606C247.0854,-434.8256 280.0237,-490.6225 325,-519.5 330.6297,-523.1146 336.8602,-526.0455 343.3065,-528.4214"/>
<polygon fill="#191970" stroke="#191970" points="234.8312,-403.2413 227.2458,-395.8445 228.5628,-406.3571 234.8312,-403.2413"/>
</g>
<!-- Node7 -->
<g id="node7" class="node">
<title>Node7</title>
<g id="a_node7"><a xlink:href="../../d4/df5/Fun4All__G4__EICDetector__LQ__reference_8C.html#a2feefc472f17f90b3cbe74897d049f75" target="_top" xlink:title="Fun4All_G4_EICDetector\l_LQ_reference">
<polygon fill="none" stroke="#000000" points="339,-645.5 339,-677.5 478,-677.5 478,-645.5 339,-645.5"/>
<text text-anchor="start" x="347" y="-664.5" font-family="FreeSans" font-size="10.00" fill="#000000">Fun4All_G4_EICDetector</text>
<text text-anchor="middle" x="408.5" y="-652.5" font-family="FreeSans" font-size="10.00" fill="#000000">_LQ_reference</text>
</a>
</g>
</g>
<!-- Node2&#45;&gt;Node7 -->
<g id="edge6" class="edge">
<title>Node2&#45;&gt;Node7</title>
<path fill="none" stroke="#191970" d="M229.9276,-404.9838C251.9273,-462.5118 315.792,-628.1428 325,-636.5 329.146,-640.2629 333.8377,-643.4603 338.8309,-646.1771"/>
<polygon fill="#191970" stroke="#191970" points="233.1669,-403.6556 226.3295,-395.5624 226.6276,-406.153 233.1669,-403.6556"/>
</g>
<!-- Node8 -->
<g id="node8" class="node">
<title>Node8</title>
<g id="a_node8"><a xlink:href="../../d3/d51/Fun4All__G4__EICDetector__RICH_8C.html#a5739502b0a7a1ba782c01069f77e933f" target="_top" xlink:title="Fun4All_G4_EICDetector_RICH">
<polygon fill="none" stroke="#000000" points="325,-606.5 325,-626.5 492,-626.5 492,-606.5 325,-606.5"/>
<text text-anchor="middle" x="408.5" y="-613.5" font-family="FreeSans" font-size="10.00" fill="#000000">Fun4All_G4_EICDetector_RICH</text>
</a>
</g>
</g>
<!-- Node2&#45;&gt;Node8 -->
<g id="edge7" class="edge">
<title>Node2&#45;&gt;Node8</title>
<path fill="none" stroke="#191970" d="M229.5315,-405.2523C246.8338,-452.7958 292.433,-571.5878 325,-597.5 329.5372,-601.1101 334.6299,-604.0612 340.0035,-606.4703"/>
<polygon fill="#191970" stroke="#191970" points="232.7932,-403.9793 226.1093,-395.7588 226.208,-406.3532 232.7932,-403.9793"/>
</g>
<!-- Node9 -->
<g id="node9" class="node">
<title>Node9</title>
<g id="a_node9"><a xlink:href="../../d7/d9e/Fun4All__G4__fsPHENIX_8C.html#af48911d394d2412e817583700f2bbee2" target="_top" xlink:title="Fun4All_G4_fsPHENIX">
<polygon fill="none" stroke="#000000" points="346.5,-180.5 346.5,-200.5 470.5,-200.5 470.5,-180.5 346.5,-180.5"/>
<text text-anchor="middle" x="408.5" y="-187.5" font-family="FreeSans" font-size="10.00" fill="#000000">Fun4All_G4_fsPHENIX</text>
</a>
</g>
</g>
<!-- Node2&#45;&gt;Node9 -->
<g id="edge8" class="edge">
<title>Node2&#45;&gt;Node9</title>
<path fill="none" stroke="#191970" d="M274.5691,-376.7414C279.9451,-374.1395 284.9211,-370.7946 289,-366.5 338.0024,-314.9066 274.8945,-261.0228 325,-210.5 330.9831,-204.467 338.4415,-200.1291 346.4215,-197.0305"/>
<polygon fill="#191970" stroke="#191970" points="273.2303,-373.5072 265.2318,-380.4552 275.8174,-380.0116 273.2303,-373.5072"/>
</g>
<!-- Node10 -->
<g id="node10" class="node">
<title>Node10</title>
<g id="a_node10"><a xlink:href="../../da/d2f/Fun4All__G4__fsPHENIX__FastSim_8C.html#a66fb850cae5fcaadda23b74a25ce4c9c" target="_top" xlink:title="Fun4All_G4_fsPHENIX\l_FastSim">
<polygon fill="none" stroke="#000000" points="346.5,-129.5 346.5,-161.5 470.5,-161.5 470.5,-129.5 346.5,-129.5"/>
<text text-anchor="start" x="354.5" y="-148.5" font-family="FreeSans" font-size="10.00" fill="#000000">Fun4All_G4_fsPHENIX</text>
<text text-anchor="middle" x="408.5" y="-136.5" font-family="FreeSans" font-size="10.00" fill="#000000">_FastSim</text>
</a>
</g>
</g>
<!-- Node2&#45;&gt;Node10 -->
<g id="edge9" class="edge">
<title>Node2&#45;&gt;Node10</title>
<path fill="none" stroke="#191970" d="M274.5483,-377.018C279.9722,-374.3717 284.9654,-370.9407 289,-366.5 348.2648,-301.2712 266.5078,-237.4225 325,-171.5 330.8446,-164.913 338.327,-159.9761 346.405,-156.2797"/>
<polygon fill="#191970" stroke="#191970" points="273.1072,-373.8243 265.1071,-380.7704 275.6927,-380.3294 273.1072,-373.8243"/>
</g>
<!-- Node11 -->
<g id="node11" class="node">
<title>Node11</title>
<g id="a_node11"><a xlink:href="../../d0/da6/Fun4All__G4__fsPHENIX__pi0_8C.html#a023d91d47b678e5d7f1751834aa517c6" target="_top" xlink:title="Fun4All_G4_fsPHENIX_pi0">
<polygon fill="none" stroke="#000000" points="336,-90.5 336,-110.5 481,-110.5 481,-90.5 336,-90.5"/>
<text text-anchor="middle" x="408.5" y="-97.5" font-family="FreeSans" font-size="10.00" fill="#000000">Fun4All_G4_fsPHENIX_pi0</text>
</a>
</g>
</g>
<!-- Node2&#45;&gt;Node11 -->
<g id="edge10" class="edge">
<title>Node2&#45;&gt;Node11</title>
<path fill="none" stroke="#191970" d="M274.7129,-377.1647C280.1085,-374.4932 285.0501,-371.0162 289,-366.5 362.0349,-282.9951 249.7144,-200.9815 325,-119.5 328.2286,-116.0057 331.9547,-113.0882 336.0035,-110.6577"/>
<polygon fill="#191970" stroke="#191970" points="273.2767,-373.9697 265.2988,-380.9414 275.883,-380.4664 273.2767,-373.9697"/>
</g>
<!-- Node12 -->
<g id="node12" class="node">
<title>Node12</title>
<g id="a_node12"><a xlink:href="../../d5/d2c/macros_2blob_2master_2macros_2g4simulations_2Fun4All__G4__sPHENIX_8C.html#a6eaaa492d7023ec86c562dc63aa1e5a4" target="_top" xlink:title="Fun4All_G4_sPHENIX">
<polygon fill="none" stroke="#000000" points="348,-51.5 348,-71.5 469,-71.5 469,-51.5 348,-51.5"/>
<text text-anchor="middle" x="408.5" y="-58.5" font-family="FreeSans" font-size="10.00" fill="#000000">Fun4All_G4_sPHENIX</text>
</a>
</g>
</g>
<!-- Node2&#45;&gt;Node12 -->
<g id="edge11" class="edge">
<title>Node2&#45;&gt;Node12</title>
<path fill="none" stroke="#191970" d="M274.5917,-377.342C280.0536,-374.6445 285.0443,-371.1129 289,-366.5 372.3979,-269.2477 238.9802,-175.4412 325,-80.5 331.189,-73.6691 339.2778,-69.0325 347.9833,-65.928"/>
<polygon fill="#191970" stroke="#191970" points="273.0514,-374.188 265.0546,-381.138 275.6401,-380.6917 273.0514,-374.188"/>
</g>
<!-- Node13 -->
<g id="node13" class="node">
<title>Node13</title>
<g id="a_node13"><a xlink:href="../../d3/de2/Fun4All__G4__sPHENIX__AnaGenFit_8C.html#a9bf3f2f72ed69a17e2d0c1121d48013c" target="_top" xlink:title="Fun4All_G4_sPHENIX\l_AnaGenFit">
<polygon fill="none" stroke="#000000" points="348,-.5 348,-32.5 469,-32.5 469,-.5 348,-.5"/>
<text text-anchor="start" x="356" y="-19.5" font-family="FreeSans" font-size="10.00" fill="#000000">Fun4All_G4_sPHENIX</text>
<text text-anchor="middle" x="408.5" y="-7.5" font-family="FreeSans" font-size="10.00" fill="#000000">_AnaGenFit</text>
</a>
</g>
</g>
<!-- Node2&#45;&gt;Node13 -->
<g id="edge12" class="edge">
<title>Node2&#45;&gt;Node13</title>
<path fill="none" stroke="#191970" d="M274.6583,-377.3987C280.1089,-374.6915 285.0787,-371.1422 289,-366.5 382.7792,-255.479 231.9225,-153.1099 325,-41.5 331.0089,-34.2947 339.0049,-29.1131 347.673,-25.3976"/>
<polygon fill="#191970" stroke="#191970" points="273.1202,-374.2441 265.1318,-381.2037 275.7167,-380.7447 273.1202,-374.2441"/>
</g>
<!-- Node14 -->
<g id="node14" class="node">
<title>Node14</title>
<g id="a_node14"><a xlink:href="../../da/dd0/Fun4All__G4__sPHENIX__photonjet_8C.html#a6f18519e216acc05399e562ea57ea77c" target="_top" xlink:title="Fun4All_G4_sPHENIX\l_photonjet">
<polygon fill="none" stroke="#000000" points="348,-477.5 348,-509.5 469,-509.5 469,-477.5 348,-477.5"/>
<text text-anchor="start" x="356" y="-496.5" font-family="FreeSans" font-size="10.00" fill="#000000">Fun4All_G4_sPHENIX</text>
<text text-anchor="middle" x="408.5" y="-484.5" font-family="FreeSans" font-size="10.00" fill="#000000">_photonjet</text>
</a>
</g>
</g>
<!-- Node2&#45;&gt;Node14 -->
<g id="edge13" class="edge">
<title>Node2&#45;&gt;Node14</title>
<path fill="none" stroke="#191970" d="M239.657,-402.99C258.8663,-421.657 291.6909,-450.9133 325,-468.5 332.0923,-472.2446 339.8269,-475.5103 347.6339,-478.3348"/>
<polygon fill="#191970" stroke="#191970" points="241.8654,-400.2512 232.2964,-395.7031 236.9406,-405.2258 241.8654,-400.2512"/>
</g>
<!-- Node15 -->
<g id="node15" class="node">
<title>Node15</title>
<g id="a_node15"><a xlink:href="../../da/d85/Fun4All__G4__sPHENIX__photons_8C.html#a02fbbd59878fe1299f58ed187e7214ba" target="_top" xlink:title="Fun4All_G4_sPHENIX\l_photons">
<polygon fill="none" stroke="#000000" points="348,-426.5 348,-458.5 469,-458.5 469,-426.5 348,-426.5"/>
<text text-anchor="start" x="356" y="-445.5" font-family="FreeSans" font-size="10.00" fill="#000000">Fun4All_G4_sPHENIX</text>
<text text-anchor="middle" x="408.5" y="-433.5" font-family="FreeSans" font-size="10.00" fill="#000000">_photons</text>
</a>
</g>
</g>
<!-- Node2&#45;&gt;Node15 -->
<g id="edge14" class="edge">
<title>Node2&#45;&gt;Node15</title>
<path fill="none" stroke="#191970" d="M263.99,-398.574C282.6268,-404.4154 304.9018,-411.3542 325,-417.5 334.5508,-420.4205 344.727,-423.4968 354.5713,-426.4545"/>
<polygon fill="#191970" stroke="#191970" points="264.9172,-395.1967 254.328,-395.5418 262.8211,-401.8755 264.9172,-395.1967"/>
</g>
<!-- Node16 -->
<g id="node16" class="node">
<title>Node16</title>
<g id="a_node16"><a xlink:href="../../de/d55/Fun4All__G4__sPHENIX__truthphotonjet_8C.html#a48a6f4503eaa1b3793d8ae572aa795b9" target="_top" xlink:title="Fun4All_G4_sPHENIX\l_truthphotonjet">
<polygon fill="none" stroke="#000000" points="348,-375.5 348,-407.5 469,-407.5 469,-375.5 348,-375.5"/>
<text text-anchor="start" x="356" y="-394.5" font-family="FreeSans" font-size="10.00" fill="#000000">Fun4All_G4_sPHENIX</text>
<text text-anchor="middle" x="408.5" y="-382.5" font-family="FreeSans" font-size="10.00" fill="#000000">_truthphotonjet</text>
</a>
</g>
</g>
<!-- Node2&#45;&gt;Node16 -->
<g id="edge15" class="edge">
<title>Node2&#45;&gt;Node16</title>
<path fill="none" stroke="#191970" d="M275.2418,-387.2013C297.8133,-387.9295 324.3054,-388.784 347.6972,-389.5386"/>
<polygon fill="#191970" stroke="#191970" points="275.2798,-383.7008 265.1722,-386.8765 275.0541,-390.6972 275.2798,-383.7008"/>
</g>
<!-- Node17 -->
<g id="node17" class="node">
<title>Node17</title>
<g id="a_node17"><a xlink:href="../../d4/d65/Fun4All__single__particle_8C.html#a8a492b5dbead494bfdddbebde8a49b0e" target="_top" xlink:title="Fun4All_single_particle">
<polygon fill="none" stroke="#000000" points="342.5,-336.5 342.5,-356.5 474.5,-356.5 474.5,-336.5 342.5,-336.5"/>
<text text-anchor="middle" x="408.5" y="-343.5" font-family="FreeSans" font-size="10.00" fill="#000000">Fun4All_single_particle</text>
</a>
</g>
</g>
<!-- Node2&#45;&gt;Node17 -->
<g id="edge16" class="edge">
<title>Node2&#45;&gt;Node17</title>
<path fill="none" stroke="#191970" d="M275.1909,-374.4519C302.1104,-368.8075 334.6169,-361.9916 360.791,-356.5035"/>
<polygon fill="#191970" stroke="#191970" points="274.241,-371.0749 265.1722,-376.5526 275.6776,-377.9259 274.241,-371.0749"/>
</g>
<!-- Node18 -->
<g id="node18" class="node">
<title>Node18</title>
<g id="a_node18"><a xlink:href="../../d0/d99/Jin__BJet_8C.html#a36169bfee2ed7efda633944d12aebad9" target="_top" xlink:title="Jin_BJet">
<polygon fill="none" stroke="#000000" points="381,-297.5 381,-317.5 436,-317.5 436,-297.5 381,-297.5"/>
<text text-anchor="middle" x="408.5" y="-304.5" font-family="FreeSans" font-size="10.00" fill="#000000">Jin_BJet</text>
</a>
</g>
</g>
<!-- Node2&#45;&gt;Node18 -->
<g id="edge17" class="edge">
<title>Node2&#45;&gt;Node18</title>
<path fill="none" stroke="#191970" d="M274.7791,-373.5868C279.7482,-371.5691 284.5762,-369.2235 289,-366.5 309.0876,-354.1333 304.65,-339.4298 325,-327.5 341.9748,-317.5488 363.6444,-312.5424 380.6543,-310.0272"/>
<polygon fill="#191970" stroke="#191970" points="273.3348,-370.387 265.1182,-377.0758 275.7126,-376.9708 273.3348,-370.387"/>
</g>
<!-- Node19 -->
<g id="node19" class="node">
<title>Node19</title>
<g id="a_node19"><a xlink:href="../../dd/db1/Wrapper_8cxx.html#abf1e42281903daa0752c80dd6c879fac" target="_top" xlink:title="Wrapper">
<polygon fill="none" stroke="#000000" points="378.5,-258.5 378.5,-278.5 438.5,-278.5 438.5,-258.5 378.5,-258.5"/>
<text text-anchor="middle" x="408.5" y="-265.5" font-family="FreeSans" font-size="10.00" fill="#000000">Wrapper</text>
</a>
</g>
</g>
<!-- Node2&#45;&gt;Node19 -->
<g id="edge18" class="edge">
<title>Node2&#45;&gt;Node19</title>
<path fill="none" stroke="#191970" d="M274.7791,-375.4124C279.9185,-373.0404 284.7826,-370.1128 289,-366.5 317.9961,-341.6604 295.4741,-312.7074 325,-288.5 339.8705,-276.3081 360.9567,-271.325 378.2185,-269.3812"/>
<polygon fill="#191970" stroke="#191970" points="273.3527,-372.212 265.311,-379.11 275.8991,-378.7324 273.3527,-372.212"/>
</g>
<!-- Node4 -->
<g id="node4" class="node">
<title>Node4</title>
<g id="a_node4"><a xlink:href="../../d3/d7f/Fun_8C.html#af69a3eef3ff244bb51f5740c6ecb5432" target="_top" xlink:title="Fun">
<polygon fill="none" stroke="#000000" points="528,-219.5 528,-239.5 562,-239.5 562,-219.5 528,-219.5"/>
<text text-anchor="middle" x="545" y="-226.5" font-family="FreeSans" font-size="10.00" fill="#000000">Fun</text>
</a>
</g>
</g>
<!-- Node3&#45;&gt;Node4 -->
<g id="edge3" class="edge">
<title>Node3&#45;&gt;Node4</title>
<path fill="none" stroke="#191970" d="M475.6941,-229.5C495.0852,-229.5 514.59,-229.5 527.9452,-229.5"/>
<polygon fill="#191970" stroke="#191970" points="475.5974,-226.0001 465.5974,-229.5 475.5974,-233.0001 475.5974,-226.0001"/>
</g>
<!-- Node20&#45;&gt;Node5 -->
<g id="edge20" class="edge">
<title>Node20&#45;&gt;Node5</title>
<path fill="none" stroke="#191970" d="M274.775,-577.5C294.6148,-577.5 317.5361,-577.5 338.7361,-577.5"/>
<polygon fill="#191970" stroke="#191970" points="274.7063,-574.0001 264.7063,-577.5 274.7062,-581.0001 274.7063,-574.0001"/>
</g>
<!-- Node20&#45;&gt;Node6 -->
<g id="edge21" class="edge">
<title>Node20&#45;&gt;Node6</title>
<path fill="none" stroke="#191970" d="M274.7241,-566.5498C301.6546,-560.9031 334.2731,-554.0637 360.5588,-548.5522"/>
<polygon fill="#191970" stroke="#191970" points="273.7752,-563.1726 264.7063,-568.6503 275.2117,-570.0236 273.7752,-563.1726"/>
</g>
<!-- Node20&#45;&gt;Node7 -->
<g id="edge22" class="edge">
<title>Node20&#45;&gt;Node7</title>
<path fill="none" stroke="#191970" d="M246.108,-593.1983C266.374,-606.1512 296.7077,-624.3175 325,-636.5 332.5052,-639.7317 340.5595,-642.7124 348.5972,-645.4042"/>
<polygon fill="#191970" stroke="#191970" points="247.8445,-590.153 237.5486,-587.6541 244.0389,-596.0282 247.8445,-590.153"/>
</g>
<!-- Node20&#45;&gt;Node8 -->
<g id="edge23" class="edge">
<title>Node20&#45;&gt;Node8</title>
<path fill="none" stroke="#191970" d="M274.7241,-588.4502C301.6546,-594.0969 334.2731,-600.9363 360.5588,-606.4478"/>
<polygon fill="#191970" stroke="#191970" points="275.2117,-584.9764 264.7063,-586.3497 273.7752,-591.8274 275.2117,-584.9764"/>
</g>
<!-- Node24&#45;&gt;Node3 -->
<g id="edge28" class="edge">
<title>Node24&#45;&gt;Node3</title>
<path fill="none" stroke="#191970" d="M284.0305,-331.2632C285.7641,-330.0997 287.427,-328.8475 289,-327.5 317.9961,-302.6604 295.4741,-273.7074 325,-249.5 332.6081,-243.2623 341.8434,-238.9116 351.361,-235.8894"/>
<polygon fill="#191970" stroke="#191970" points="281.8928,-328.4477 274.8625,-336.3739 285.3012,-334.5619 281.8928,-328.4477"/>
</g>
<!-- Node24&#45;&gt;Node5 -->
<g id="edge29" class="edge">
<title>Node24&#45;&gt;Node5</title>
<path fill="none" stroke="#191970" d="M284.6121,-362.2896C286.1708,-363.586 287.6403,-364.9867 289,-366.5 347.0271,-431.0805 264.7983,-495.9418 325,-558.5 329.0205,-562.6779 333.7539,-566.0237 338.8897,-568.6942"/>
<polygon fill="#191970" stroke="#191970" points="286.4256,-359.2919 276.1683,-356.639 282.5325,-365.1094 286.4256,-359.2919"/>
</g>
<!-- Node24&#45;&gt;Node6 -->
<g id="edge30" class="edge">
<title>Node24&#45;&gt;Node6</title>
<path fill="none" stroke="#191970" d="M284.4167,-362.2874C286.0402,-363.5838 287.575,-364.9853 289,-366.5 336.8656,-417.3811 275.4223,-470.2856 325,-519.5 328.5874,-523.0611 332.6948,-526.0115 337.1207,-528.4504"/>
<polygon fill="#191970" stroke="#191970" points="285.9603,-359.1182 275.6592,-356.6405 282.1668,-365.0012 285.9603,-359.1182"/>
</g>
<!-- Node24&#45;&gt;Node7 -->
<g id="edge31" class="edge">
<title>Node24&#45;&gt;Node7</title>
<path fill="none" stroke="#191970" d="M285.1903,-362.6121C286.5426,-363.8181 287.8175,-365.1119 289,-366.5 367.5076,-458.655 246.4353,-544.3936 325,-636.5 328.9281,-641.1052 333.6673,-644.8816 338.8681,-647.9758"/>
<polygon fill="#191970" stroke="#191970" points="286.8928,-359.5298 276.7045,-356.623 282.8563,-365.2488 286.8928,-359.5298"/>
</g>
<!-- Node24&#45;&gt;Node8 -->
<g id="edge32" class="edge">
<title>Node24&#45;&gt;Node8</title>
<path fill="none" stroke="#191970" d="M284.6734,-362.2354C286.2146,-363.5473 287.6637,-364.966 289,-366.5 357.25,-444.8479 254.1105,-521.532 325,-597.5 328.2458,-600.9783 331.9848,-603.8839 336.043,-606.3056"/>
<polygon fill="#191970" stroke="#191970" points="286.5303,-359.2654 276.2956,-356.5264 282.5883,-365.05 286.5303,-359.2654"/>
</g>
<!-- Node24&#45;&gt;Node9 -->
<g id="edge33" class="edge">
<title>Node24&#45;&gt;Node9</title>
<path fill="none" stroke="#191970" d="M284.9842,-330.9915C286.3895,-329.9044 287.7324,-328.7422 289,-327.5 327.8573,-289.4197 285.3291,-247.732 325,-210.5 331.0868,-204.7874 338.5063,-200.617 346.3841,-197.5875"/>
<polygon fill="#191970" stroke="#191970" points="282.94,-328.1426 276.3433,-336.4333 286.6703,-334.0659 282.94,-328.1426"/>
</g>
<!-- Node24&#45;&gt;Node10 -->
<g id="edge34" class="edge">
<title>Node24&#45;&gt;Node10</title>
<path fill="none" stroke="#191970" d="M285.6488,-330.6578C286.8206,-329.6669 287.9405,-328.6155 289,-327.5 338.0024,-275.9066 276.6088,-223.6671 325,-171.5 330.8856,-165.1552 338.2899,-160.3468 346.2447,-156.7052"/>
<polygon fill="#191970" stroke="#191970" points="283.5609,-327.8449 277.2554,-336.3591 287.4942,-333.6354 283.5609,-327.8449"/>
</g>
<!-- Node24&#45;&gt;Node11 -->
<g id="edge35" class="edge">
<title>Node24&#45;&gt;Node11</title>
<path fill="none" stroke="#191970" d="M285.6496,-330.8103C286.8268,-329.7744 287.9468,-328.6723 289,-327.5 351.7003,-257.71 260.4192,-187.5537 325,-119.5 328.3772,-115.9412 332.2712,-112.9842 336.4926,-110.533"/>
<polygon fill="#191970" stroke="#191970" points="283.3561,-328.1424 277.1521,-336.7307 287.3578,-333.8858 283.3561,-328.1424"/>
</g>
<!-- Node24&#45;&gt;Node12 -->
<g id="edge36" class="edge">
<title>Node24&#45;&gt;Node12</title>
<path fill="none" stroke="#191970" d="M285.692,-330.8479C286.8566,-329.8008 287.9625,-328.6862 289,-327.5 362.0349,-243.9951 249.7144,-161.9815 325,-80.5 331.1544,-73.8391 339.1169,-69.2737 347.6762,-66.1834"/>
<polygon fill="#191970" stroke="#191970" points="283.3934,-328.187 277.2575,-336.8242 287.4404,-333.8985 283.3934,-328.187"/>
</g>
<!-- Node24&#45;&gt;Node13 -->
<g id="edge37" class="edge">
<title>Node24&#45;&gt;Node13</title>
<path fill="none" stroke="#191970" d="M285.2832,-331.2712C286.601,-330.1023 287.8447,-328.8473 289,-327.5 372.3979,-230.2477 242.2168,-139.2761 325,-41.5 331.0624,-34.3397 339.086,-29.1813 347.7652,-25.4751"/>
<polygon fill="#191970" stroke="#191970" points="283.1973,-328.4591 277.0215,-337.0678 287.2179,-334.1894 283.1973,-328.4591"/>
</g>
<!-- Node24&#45;&gt;Node14 -->
<g id="edge38" class="edge">
<title>Node24&#45;&gt;Node14</title>
<path fill="none" stroke="#191970" d="M282.9691,-361.6097C285.1067,-363.0907 287.1299,-364.7161 289,-366.5 323.7853,-399.6828 290.1942,-435.3388 325,-468.5 331.464,-474.6585 339.3836,-479.3063 347.7446,-482.8125"/>
<polygon fill="#191970" stroke="#191970" points="284.6522,-358.5401 274.2394,-356.5843 281.1598,-364.6067 284.6522,-358.5401"/>
</g>
<!-- Node24&#45;&gt;Node15 -->
<g id="edge39" class="edge">
<title>Node24&#45;&gt;Node15</title>
<path fill="none" stroke="#191970" d="M279.3445,-360.6612C282.7335,-362.3911 285.9856,-364.3291 289,-366.5 311.514,-382.7141 302.4759,-401.2999 325,-417.5 331.8795,-422.448 339.7448,-426.4275 347.8355,-429.6256"/>
<polygon fill="#191970" stroke="#191970" points="280.6821,-357.4256 270.1234,-356.5518 277.8327,-363.8194 280.6821,-357.4256"/>
</g>
<!-- Node24&#45;&gt;Node16 -->
<g id="edge40" class="edge">
<title>Node24&#45;&gt;Node16</title>
<path fill="none" stroke="#191970" d="M274.0925,-358.9821C296.9561,-364.5136 324.0152,-371.0601 347.8399,-376.8242"/>
<polygon fill="#191970" stroke="#191970" points="274.7847,-355.5486 264.242,-356.5989 273.1386,-362.3523 274.7847,-355.5486"/>
</g>
<!-- Node24&#45;&gt;Node17 -->
<g id="edge41" class="edge">
<title>Node24&#45;&gt;Node17</title>
<path fill="none" stroke="#191970" d="M287.0978,-346.5C304.9946,-346.5 324.4438,-346.5 342.4237,-346.5"/>
<polygon fill="#191970" stroke="#191970" points="287.0494,-343.0001 277.0494,-346.5 287.0493,-350.0001 287.0494,-343.0001"/>
</g>
<!-- Node24&#45;&gt;Node18 -->
<g id="edge42" class="edge">
<title>Node24&#45;&gt;Node18</title>
<path fill="none" stroke="#191970" d="M280.5431,-334.3297C314.0359,-327.307 354.6079,-318.8 380.9581,-313.2749"/>
<polygon fill="#191970" stroke="#191970" points="279.4685,-330.9788 270.3996,-336.4565 280.9051,-337.8298 279.4685,-330.9788"/>
</g>
<!-- Node24&#45;&gt;Node19 -->
<g id="edge43" class="edge">
<title>Node24&#45;&gt;Node19</title>
<path fill="none" stroke="#191970" d="M279.5075,-332.5428C282.8032,-331.0258 285.9949,-329.3501 289,-327.5 309.0876,-315.1333 304.65,-300.4298 325,-288.5 341.2032,-279.0011 361.6842,-274.0077 378.3067,-271.3858"/>
<polygon fill="#191970" stroke="#191970" points="277.9532,-329.3966 270.0125,-336.4107 280.594,-335.8794 277.9532,-329.3966"/>
</g>
<!-- Node25&#45;&gt;Node3 -->
<g id="edge45" class="edge">
<title>Node25&#45;&gt;Node3</title>
<path fill="none" stroke="#191970" d="M279.5075,-293.5428C282.8032,-292.0258 285.9949,-290.3501 289,-288.5 309.0876,-276.1333 304.65,-261.4298 325,-249.5 333.1016,-244.7506 342.2727,-241.1275 351.4961,-238.3641"/>
<polygon fill="#191970" stroke="#191970" points="277.9532,-290.3966 270.0125,-297.4107 280.594,-296.8794 277.9532,-290.3966"/>
</g>
<!-- Node25&#45;&gt;Node5 -->
<g id="edge46" class="edge">
<title>Node25&#45;&gt;Node5</title>
<path fill="none" stroke="#191970" d="M284.6734,-323.2354C286.2146,-324.5473 287.6637,-325.966 289,-327.5 357.25,-405.8479 254.1105,-482.532 325,-558.5 328.9558,-562.7392 333.6442,-566.1277 338.7502,-568.8263"/>
<polygon fill="#191970" stroke="#191970" points="286.5303,-320.2654 276.2956,-317.5264 282.5883,-326.05 286.5303,-320.2654"/>
</g>
<!-- Node25&#45;&gt;Node6 -->
<g id="edge47" class="edge">
<title>Node25&#45;&gt;Node6</title>
<path fill="none" stroke="#191970" d="M284.6121,-323.2896C286.1708,-324.586 287.6403,-325.9867 289,-327.5 347.0271,-392.0805 264.7983,-456.9418 325,-519.5 328.4019,-523.0351 332.3143,-525.9745 336.549,-528.4131"/>
<polygon fill="#191970" stroke="#191970" points="286.4256,-320.2919 276.1683,-317.639 282.5325,-326.1094 286.4256,-320.2919"/>
</g>
<!-- Node25&#45;&gt;Node7 -->
<g id="edge48" class="edge">
<title>Node25&#45;&gt;Node7</title>
<path fill="none" stroke="#191970" d="M285.221,-323.5862C286.5643,-324.7997 287.829,-326.1022 289,-327.5 377.7868,-433.4875 236.1475,-530.5676 325,-636.5 328.8898,-641.1376 333.6027,-644.9363 338.7864,-648.045"/>
<polygon fill="#191970" stroke="#191970" points="286.9481,-320.5192 276.7736,-317.5646 282.8849,-326.2192 286.9481,-320.5192"/>
</g>
<!-- Node25&#45;&gt;Node8 -->
<g id="edge49" class="edge">
<title>Node25&#45;&gt;Node8</title>
<path fill="none" stroke="#191970" d="M285.1903,-323.6121C286.5426,-324.8181 287.8175,-326.1119 289,-327.5 367.5076,-419.655 243.3867,-508.0837 325,-597.5 328.2072,-601.0139 331.9173,-603.9461 335.9545,-606.3873"/>
<polygon fill="#191970" stroke="#191970" points="286.8928,-320.5298 276.7045,-317.623 282.8563,-326.2488 286.8928,-320.5298"/>
</g>
<!-- Node25&#45;&gt;Node9 -->
<g id="edge50" class="edge">
<title>Node25&#45;&gt;Node9</title>
<path fill="none" stroke="#191970" d="M284.0305,-292.2632C285.7641,-291.0997 287.427,-289.8475 289,-288.5 317.9961,-263.6604 295.4741,-234.7074 325,-210.5 331.2248,-205.3964 338.5389,-201.556 346.2057,-198.673"/>
<polygon fill="#191970" stroke="#191970" points="281.8928,-289.4477 274.8625,-297.3739 285.3012,-295.5619 281.8928,-289.4477"/>
</g>
<!-- Node25&#45;&gt;Node10 -->
<g id="edge51" class="edge">
<title>Node25&#45;&gt;Node10</title>
<path fill="none" stroke="#191970" d="M284.9842,-291.9915C286.3895,-290.9044 287.7324,-289.7422 289,-288.5 327.8573,-250.4197 286.594,-210.0354 325,-171.5 331.0021,-165.4777 338.3738,-160.8461 346.2288,-157.2848"/>
<polygon fill="#191970" stroke="#191970" points="282.94,-289.1426 276.3433,-297.4333 286.6703,-295.0659 282.94,-289.1426"/>
</g>
<!-- Node25&#45;&gt;Node11 -->
<g id="edge52" class="edge">
<title>Node25&#45;&gt;Node11</title>
<path fill="none" stroke="#191970" d="M285.6744,-291.682C286.8386,-290.6838 287.95,-289.6244 289,-288.5 341.4141,-232.3712 271.0743,-174.1781 325,-119.5 328.445,-116.0069 332.3894,-113.0986 336.6471,-110.6825"/>
<polygon fill="#191970" stroke="#191970" points="283.5816,-288.8733 277.3195,-297.4195 287.5443,-294.6437 283.5816,-288.8733"/>
</g>
<!-- Node25&#45;&gt;Node12 -->
<g id="edge53" class="edge">
<title>Node25&#45;&gt;Node12</title>
<path fill="none" stroke="#191970" d="M286.1505,-291.3622C287.1454,-290.458 288.0972,-289.5048 289,-288.5 351.7003,-218.71 260.4192,-148.5537 325,-80.5 331.2426,-73.9216 339.2512,-69.3995 347.8298,-66.3272"/>
<polygon fill="#191970" stroke="#191970" points="283.8592,-288.6989 277.7814,-297.3771 287.9444,-294.3831 283.8592,-288.6989"/>
</g>
<!-- Node25&#45;&gt;Node13 -->
<g id="edge54" class="edge">
<title>Node25&#45;&gt;Node13</title>
<path fill="none" stroke="#191970" d="M286.1875,-291.395C287.1712,-290.4809 288.1107,-289.5168 289,-288.5 362.0349,-204.9951 252.493,-125.4637 325,-41.5 331.1319,-34.3992 339.1914,-29.2714 347.8851,-25.5776"/>
<polygon fill="#191970" stroke="#191970" points="283.8894,-288.7395 277.8837,-297.4678 288.0216,-294.3897 283.8894,-288.7395"/>
</g>
<!-- Node25&#45;&gt;Node14 -->
<g id="edge55" class="edge">
<title>Node25&#45;&gt;Node14</title>
<path fill="none" stroke="#191970" d="M283.8526,-322.9137C285.6816,-324.3133 287.407,-325.8383 289,-327.5 333.7592,-374.1875 280.2119,-421.8402 325,-468.5 331.2874,-475.0501 339.2143,-479.9032 347.667,-483.4948"/>
<polygon fill="#191970" stroke="#191970" points="285.5936,-319.8745 275.2577,-317.5464 281.8858,-325.8119 285.5936,-319.8745"/>
</g>
<!-- Node25&#45;&gt;Node15 -->
<g id="edge56" class="edge">
<title>Node25&#45;&gt;Node15</title>
<path fill="none" stroke="#191970" d="M282.745,-322.6189C284.9562,-324.097 287.0546,-325.7194 289,-327.5 320.7788,-356.5879 293.2032,-388.4317 325,-417.5 331.5895,-423.524 339.5768,-428.0993 347.9677,-431.5735"/>
<polygon fill="#191970" stroke="#191970" points="284.182,-319.413 273.7429,-317.6029 280.7748,-325.5278 284.182,-319.413"/>
</g>
<!-- Node25&#45;&gt;Node16 -->
<g id="edge57" class="edge">
<title>Node25&#45;&gt;Node16</title>
<path fill="none" stroke="#191970" d="M277.4628,-321.4126C281.4835,-323.214 285.3774,-325.2351 289,-327.5 309.0015,-340.0054 304.9908,-354.007 325,-366.5 332.0597,-370.9078 339.9401,-374.5756 347.9628,-377.6179"/>
<polygon fill="#191970" stroke="#191970" points="278.5036,-318.0594 267.9189,-317.5967 275.9048,-324.5591 278.5036,-318.0594"/>
</g>
<!-- Node25&#45;&gt;Node17 -->
<g id="edge58" class="edge">
<title>Node25&#45;&gt;Node17</title>
<path fill="none" stroke="#191970" d="M280.4315,-319.6469C306.2404,-325.0585 336.271,-331.3552 360.7627,-336.4906"/>
<polygon fill="#191970" stroke="#191970" points="280.9051,-316.1702 270.3996,-317.5435 279.4685,-323.0212 280.9051,-316.1702"/>
</g>
<!-- Node25&#45;&gt;Node18 -->
<g id="edge59" class="edge">
<title>Node25&#45;&gt;Node18</title>
<path fill="none" stroke="#191970" d="M288.2029,-307.5C320.033,-307.5 356.5442,-307.5 380.9147,-307.5"/>
<polygon fill="#191970" stroke="#191970" points="288.0542,-304.0001 278.0542,-307.5 288.0542,-311.0001 288.0542,-304.0001"/>
</g>
<!-- Node25&#45;&gt;Node19 -->
<g id="edge60" class="edge">
<title>Node25&#45;&gt;Node19</title>
<path fill="none" stroke="#191970" d="M280.2245,-295.3965C312.6461,-288.5984 351.7828,-280.3923 378.2343,-274.846"/>
<polygon fill="#191970" stroke="#191970" points="279.4685,-291.9788 270.3996,-297.4565 280.9051,-298.8298 279.4685,-291.9788"/>
</g>
</g>
</svg>
