<?xml version="1.0" encoding="UTF-8" standalone="no"?>
<!DOCTYPE svg PUBLIC "-//W3C//DTD SVG 1.1//EN"
 "http://www.w3.org/Graphics/SVG/1.1/DTD/svg11.dtd">
<!-- Generated by graphviz version 2.40.1 (20161225.0304)
 -->
<!-- Title: RawTowerDigitizer::set_pedstal_width_ADC Pages: 1 -->
<svg width="584pt" height="686pt"
 viewBox="0.00 0.00 584.00 686.00" xmlns="http://www.w3.org/2000/svg" xmlns:xlink="http://www.w3.org/1999/xlink">
<g id="graph0" class="graph" transform="scale(1 1) rotate(0) translate(4 682)">
<title>RawTowerDigitizer::set_pedstal_width_ADC</title>
<!-- Node1 -->
<g id="node1" class="node">
<title>Node1</title>
<polygon fill="#bfbfbf" stroke="#000000" points="0,-291.5 0,-323.5 134,-323.5 134,-291.5 0,-291.5"/>
<text text-anchor="start" x="8" y="-310.5" font-family="FreeSans" font-size="10.00" fill="#000000">RawTowerDigitizer::</text>
<text text-anchor="middle" x="67" y="-298.5" font-family="FreeSans" font-size="10.00" fill="#000000">set_pedstal_width_ADC</text>
</g>
<!-- Node2 -->
<g id="node2" class="node">
<title>Node2</title>
<g id="a_node2"><a xlink:href="../../d8/d4c/G4__CEmc__EIC_8C.html#a46a52c955e8d2078c58d4d7db471cc43" target="_top" xlink:title="CEMC_Towers">
<polygon fill="none" stroke="#000000" points="194,-375.5 194,-395.5 279,-395.5 279,-375.5 194,-375.5"/>
<text text-anchor="middle" x="236.5" y="-382.5" font-family="FreeSans" font-size="10.00" fill="#000000">CEMC_Towers</text>
</a>
</g>
</g>
<!-- Node1&#45;&gt;Node2 -->
<g id="edge1" class="edge">
<title>Node1&#45;&gt;Node2</title>
<path fill="none" stroke="#191970" d="M99.7156,-328.9645C119.4591,-341.2167 145.4665,-356.1492 170,-366.5 178.0759,-369.9072 186.9533,-372.9163 195.5186,-375.4771"/>
<polygon fill="#191970" stroke="#191970" points="101.4404,-325.9146 91.1128,-323.5498 97.7116,-331.8388 101.4404,-325.9146"/>
</g>
<!-- Node20 -->
<g id="node20" class="node">
<title>Node20</title>
<g id="a_node20"><a xlink:href="../../d1/d81/macros_2blob_2master_2macros_2g4simulations_2G4__EEMC_8C.html#a05b9b10b79cc47702702e091692fd060" target="_top" xlink:title="EEMC_Towers">
<polygon fill="none" stroke="#000000" points="194.5,-567.5 194.5,-587.5 278.5,-587.5 278.5,-567.5 194.5,-567.5"/>
<text text-anchor="middle" x="236.5" y="-574.5" font-family="FreeSans" font-size="10.00" fill="#000000">EEMC_Towers</text>
</a>
</g>
</g>
<!-- Node1&#45;&gt;Node20 -->
<g id="edge19" class="edge">
<title>Node1&#45;&gt;Node20</title>
<path fill="none" stroke="#191970" d="M82.5966,-332.3441C118.5167,-389.562 205.858,-528.6897 230.1424,-567.3729"/>
<polygon fill="#191970" stroke="#191970" points="85.3766,-330.1896 77.0954,-323.5812 79.448,-333.9115 85.3766,-330.1896"/>
</g>
<!-- Node21 -->
<g id="node21" class="node">
<title>Node21</title>
<g id="a_node21"><a xlink:href="../../dc/d8e/Fun4All__G4__Prototype2_8C.html#a6b8f092c4f51be2938dd09c810ba6226" target="_top" xlink:title="Fun4All_G4_Prototype2">
<polygon fill="none" stroke="#000000" points="170,-258.5 170,-278.5 303,-278.5 303,-258.5 170,-258.5"/>
<text text-anchor="middle" x="236.5" y="-265.5" font-family="FreeSans" font-size="10.00" fill="#000000">Fun4All_G4_Prototype2</text>
</a>
</g>
</g>
<!-- Node1&#45;&gt;Node21 -->
<g id="edge24" class="edge">
<title>Node1&#45;&gt;Node21</title>
<path fill="none" stroke="#191970" d="M144.2413,-289.7277C160.9339,-285.8869 178.0181,-281.956 192.8762,-278.5373"/>
<polygon fill="#191970" stroke="#191970" points="143.4385,-286.3209 134.4779,-291.9741 145.0081,-293.1426 143.4385,-286.3209"/>
</g>
<!-- Node22 -->
<g id="node22" class="node">
<title>Node22</title>
<g id="a_node22"><a xlink:href="../../d7/d40/Fun4All__G4__Prototype3_8C.html#a1201361263017b08a070777a0b90b27c" target="_top" xlink:title="Fun4All_G4_Prototype3">
<polygon fill="none" stroke="#000000" points="170,-219.5 170,-239.5 303,-239.5 303,-219.5 170,-219.5"/>
<text text-anchor="middle" x="236.5" y="-226.5" font-family="FreeSans" font-size="10.00" fill="#000000">Fun4All_G4_Prototype3</text>
</a>
</g>
</g>
<!-- Node1&#45;&gt;Node22 -->
<g id="edge25" class="edge">
<title>Node1&#45;&gt;Node22</title>
<path fill="none" stroke="#191970" d="M100.6153,-286.0709C120.2915,-274.1713 145.9297,-259.7477 170,-249.5 178.874,-245.722 188.6959,-242.3521 198.0067,-239.5042"/>
<polygon fill="#191970" stroke="#191970" points="98.7195,-283.1277 92.0214,-291.3366 102.3767,-289.0963 98.7195,-283.1277"/>
</g>
<!-- Node23 -->
<g id="node23" class="node">
<title>Node23</title>
<g id="a_node23"><a xlink:href="../../d4/d58/Fun4All__G4__Prototype4_8C.html#acac517f0728af658cbf99c7c9687c908" target="_top" xlink:title="Fun4All_G4_Prototype4">
<polygon fill="none" stroke="#000000" points="170,-180.5 170,-200.5 303,-200.5 303,-180.5 170,-180.5"/>
<text text-anchor="middle" x="236.5" y="-187.5" font-family="FreeSans" font-size="10.00" fill="#000000">Fun4All_G4_Prototype4</text>
</a>
</g>
</g>
<!-- Node1&#45;&gt;Node23 -->
<g id="edge26" class="edge">
<title>Node1&#45;&gt;Node23</title>
<path fill="none" stroke="#191970" d="M86.6587,-283.4598C105.8042,-261.5182 136.805,-229.673 170,-210.5 176.9946,-206.46 184.883,-203.1648 192.7182,-200.5012"/>
<polygon fill="#191970" stroke="#191970" points="83.7614,-281.4626 79.9217,-291.3371 89.0812,-286.0123 83.7614,-281.4626"/>
</g>
<!-- Node24 -->
<g id="node24" class="node">
<title>Node24</title>
<g id="a_node24"><a xlink:href="../../d7/dc0/G4__HcalIn__EIC_8C.html#a4552e4b1c6ffcc08cba2296b2c45f950" target="_top" xlink:title="HCALInner_Towers">
<polygon fill="none" stroke="#000000" points="182,-336.5 182,-356.5 291,-356.5 291,-336.5 182,-336.5"/>
<text text-anchor="middle" x="236.5" y="-343.5" font-family="FreeSans" font-size="10.00" fill="#000000">HCALInner_Towers</text>
</a>
</g>
</g>
<!-- Node1&#45;&gt;Node24 -->
<g id="edge27" class="edge">
<title>Node1&#45;&gt;Node24</title>
<path fill="none" stroke="#191970" d="M144.2413,-325.2723C160.9339,-329.1131 178.0181,-333.044 192.8762,-336.4627"/>
<polygon fill="#191970" stroke="#191970" points="145.0081,-321.8574 134.4779,-323.0259 143.4385,-328.6791 145.0081,-321.8574"/>
</g>
<!-- Node25 -->
<g id="node25" class="node">
<title>Node25</title>
<g id="a_node25"><a xlink:href="../../de/d3d/macros_2blob_2master_2macros_2g4simulations_2G4__HcalOut__ref_8C.html#a4fd9d72ad1e04ebc46273f3b9fff91d6" target="_top" xlink:title="HCALOuter_Towers">
<polygon fill="none" stroke="#000000" points="181,-297.5 181,-317.5 292,-317.5 292,-297.5 181,-297.5"/>
<text text-anchor="middle" x="236.5" y="-304.5" font-family="FreeSans" font-size="10.00" fill="#000000">HCALOuter_Towers</text>
</a>
</g>
</g>
<!-- Node1&#45;&gt;Node25 -->
<g id="edge44" class="edge">
<title>Node1&#45;&gt;Node25</title>
<path fill="none" stroke="#191970" d="M144.6874,-307.5C156.9238,-307.5 169.3579,-307.5 180.9599,-307.5"/>
<polygon fill="#191970" stroke="#191970" points="144.478,-304.0001 134.4779,-307.5 144.4779,-311.0001 144.478,-304.0001"/>
</g>
<!-- Node3 -->
<g id="node3" class="node">
<title>Node3</title>
<g id="a_node3"><a xlink:href="../../d3/d7f/Fun_8C.html#af0d3c8a78765149fef9b2beeecfc6279" target="_top" xlink:title="ConfigureDetectors">
<polygon fill="none" stroke="#000000" points="365.5,-219.5 365.5,-239.5 479.5,-239.5 479.5,-219.5 365.5,-219.5"/>
<text text-anchor="middle" x="422.5" y="-226.5" font-family="FreeSans" font-size="10.00" fill="#000000">ConfigureDetectors</text>
</a>
</g>
</g>
<!-- Node2&#45;&gt;Node3 -->
<g id="edge2" class="edge">
<title>Node2&#45;&gt;Node3</title>
<path fill="none" stroke="#191970" d="M288.8752,-376.1637C294.0753,-373.6567 298.9266,-370.492 303,-366.5 341.8573,-328.4197 299.3291,-286.732 339,-249.5 346.2825,-242.6652 355.4725,-238.0381 365.0728,-234.9312"/>
<polygon fill="#191970" stroke="#191970" points="287.2273,-373.0524 279.2306,-380.0025 289.8161,-379.5562 287.2273,-373.0524"/>
</g>
<!-- Node5 -->
<g id="node5" class="node">
<title>Node5</title>
<g id="a_node5"><a xlink:href="../../da/d02/Fun4All__G4__EICDetector_8C.html#afbe82cefa1d1fd031d9a8586b7bb68c6" target="_top" xlink:title="Fun4All_G4_EICDetector">
<polygon fill="none" stroke="#000000" points="353,-567.5 353,-587.5 492,-587.5 492,-567.5 353,-567.5"/>
<text text-anchor="middle" x="422.5" y="-574.5" font-family="FreeSans" font-size="10.00" fill="#000000">Fun4All_G4_EICDetector</text>
</a>
</g>
</g>
<!-- Node2&#45;&gt;Node5 -->
<g id="edge4" class="edge">
<title>Node2&#45;&gt;Node5</title>
<path fill="none" stroke="#191970" d="M242.5054,-405.5741C254.5092,-442.0781 285.0528,-519.1805 339,-558.5 343.926,-562.0903 349.4158,-565.0179 355.1627,-567.403"/>
<polygon fill="#191970" stroke="#191970" points="245.7165,-404.1191 239.3699,-395.6355 239.0408,-406.2252 245.7165,-404.1191"/>
</g>
<!-- Node6 -->
<g id="node6" class="node">
<title>Node6</title>
<g id="a_node6"><a xlink:href="../../dd/d2a/Fun4All__G4__EICDetector__LQ_8C.html#aaa01242fd6e77ca43a9d49a6d46008e4" target="_top" xlink:title="Fun4All_G4_EICDetector_LQ">
<polygon fill="none" stroke="#000000" points="344.5,-528.5 344.5,-548.5 500.5,-548.5 500.5,-528.5 344.5,-528.5"/>
<text text-anchor="middle" x="422.5" y="-535.5" font-family="FreeSans" font-size="10.00" fill="#000000">Fun4All_G4_EICDetector_LQ</text>
</a>
</g>
</g>
<!-- Node2&#45;&gt;Node6 -->
<g id="edge5" class="edge">
<title>Node2&#45;&gt;Node6</title>
<path fill="none" stroke="#191970" d="M245.8766,-405.1606C261.0854,-434.8256 294.0237,-490.6225 339,-519.5 344.6297,-523.1146 350.8602,-526.0455 357.3065,-528.4214"/>
<polygon fill="#191970" stroke="#191970" points="248.8312,-403.2413 241.2458,-395.8445 242.5628,-406.3571 248.8312,-403.2413"/>
</g>
<!-- Node7 -->
<g id="node7" class="node">
<title>Node7</title>
<g id="a_node7"><a xlink:href="../../d4/df5/Fun4All__G4__EICDetector__LQ__reference_8C.html#a2feefc472f17f90b3cbe74897d049f75" target="_top" xlink:title="Fun4All_G4_EICDetector\l_LQ_reference">
<polygon fill="none" stroke="#000000" points="353,-645.5 353,-677.5 492,-677.5 492,-645.5 353,-645.5"/>
<text text-anchor="start" x="361" y="-664.5" font-family="FreeSans" font-size="10.00" fill="#000000">Fun4All_G4_EICDetector</text>
<text text-anchor="middle" x="422.5" y="-652.5" font-family="FreeSans" font-size="10.00" fill="#000000">_LQ_reference</text>
</a>
</g>
</g>
<!-- Node2&#45;&gt;Node7 -->
<g id="edge6" class="edge">
<title>Node2&#45;&gt;Node7</title>
<path fill="none" stroke="#191970" d="M243.9276,-404.9838C265.9273,-462.5118 329.792,-628.1428 339,-636.5 343.146,-640.2629 347.8377,-643.4603 352.8309,-646.1771"/>
<polygon fill="#191970" stroke="#191970" points="247.1669,-403.6556 240.3295,-395.5624 240.6276,-406.153 247.1669,-403.6556"/>
</g>
<!-- Node8 -->
<g id="node8" class="node">
<title>Node8</title>
<g id="a_node8"><a xlink:href="../../d3/d51/Fun4All__G4__EICDetector__RICH_8C.html#a5739502b0a7a1ba782c01069f77e933f" target="_top" xlink:title="Fun4All_G4_EICDetector_RICH">
<polygon fill="none" stroke="#000000" points="339,-606.5 339,-626.5 506,-626.5 506,-606.5 339,-606.5"/>
<text text-anchor="middle" x="422.5" y="-613.5" font-family="FreeSans" font-size="10.00" fill="#000000">Fun4All_G4_EICDetector_RICH</text>
</a>
</g>
</g>
<!-- Node2&#45;&gt;Node8 -->
<g id="edge7" class="edge">
<title>Node2&#45;&gt;Node8</title>
<path fill="none" stroke="#191970" d="M243.5315,-405.2523C260.8338,-452.7958 306.433,-571.5878 339,-597.5 343.5372,-601.1101 348.6299,-604.0612 354.0035,-606.4703"/>
<polygon fill="#191970" stroke="#191970" points="246.7932,-403.9793 240.1093,-395.7588 240.208,-406.3532 246.7932,-403.9793"/>
</g>
<!-- Node9 -->
<g id="node9" class="node">
<title>Node9</title>
<g id="a_node9"><a xlink:href="../../d7/d9e/Fun4All__G4__fsPHENIX_8C.html#af48911d394d2412e817583700f2bbee2" target="_top" xlink:title="Fun4All_G4_fsPHENIX">
<polygon fill="none" stroke="#000000" points="360.5,-180.5 360.5,-200.5 484.5,-200.5 484.5,-180.5 360.5,-180.5"/>
<text text-anchor="middle" x="422.5" y="-187.5" font-family="FreeSans" font-size="10.00" fill="#000000">Fun4All_G4_fsPHENIX</text>
</a>
</g>
</g>
<!-- Node2&#45;&gt;Node9 -->
<g id="edge8" class="edge">
<title>Node2&#45;&gt;Node9</title>
<path fill="none" stroke="#191970" d="M288.5691,-376.7414C293.9451,-374.1395 298.9211,-370.7946 303,-366.5 352.0024,-314.9066 288.8945,-261.0228 339,-210.5 344.9831,-204.467 352.4415,-200.1291 360.4215,-197.0305"/>
<polygon fill="#191970" stroke="#191970" points="287.2303,-373.5072 279.2318,-380.4552 289.8174,-380.0116 287.2303,-373.5072"/>
</g>
<!-- Node10 -->
<g id="node10" class="node">
<title>Node10</title>
<g id="a_node10"><a xlink:href="../../da/d2f/Fun4All__G4__fsPHENIX__FastSim_8C.html#a66fb850cae5fcaadda23b74a25ce4c9c" target="_top" xlink:title="Fun4All_G4_fsPHENIX\l_FastSim">
<polygon fill="none" stroke="#000000" points="360.5,-129.5 360.5,-161.5 484.5,-161.5 484.5,-129.5 360.5,-129.5"/>
<text text-anchor="start" x="368.5" y="-148.5" font-family="FreeSans" font-size="10.00" fill="#000000">Fun4All_G4_fsPHENIX</text>
<text text-anchor="middle" x="422.5" y="-136.5" font-family="FreeSans" font-size="10.00" fill="#000000">_FastSim</text>
</a>
</g>
</g>
<!-- Node2&#45;&gt;Node10 -->
<g id="edge9" class="edge">
<title>Node2&#45;&gt;Node10</title>
<path fill="none" stroke="#191970" d="M288.5483,-377.018C293.9722,-374.3717 298.9654,-370.9407 303,-366.5 362.2648,-301.2712 280.5078,-237.4225 339,-171.5 344.8446,-164.913 352.327,-159.9761 360.405,-156.2797"/>
<polygon fill="#191970" stroke="#191970" points="287.1072,-373.8243 279.1071,-380.7704 289.6927,-380.3294 287.1072,-373.8243"/>
</g>
<!-- Node11 -->
<g id="node11" class="node">
<title>Node11</title>
<g id="a_node11"><a xlink:href="../../d0/da6/Fun4All__G4__fsPHENIX__pi0_8C.html#a023d91d47b678e5d7f1751834aa517c6" target="_top" xlink:title="Fun4All_G4_fsPHENIX_pi0">
<polygon fill="none" stroke="#000000" points="350,-90.5 350,-110.5 495,-110.5 495,-90.5 350,-90.5"/>
<text text-anchor="middle" x="422.5" y="-97.5" font-family="FreeSans" font-size="10.00" fill="#000000">Fun4All_G4_fsPHENIX_pi0</text>
</a>
</g>
</g>
<!-- Node2&#45;&gt;Node11 -->
<g id="edge10" class="edge">
<title>Node2&#45;&gt;Node11</title>
<path fill="none" stroke="#191970" d="M288.7129,-377.1647C294.1085,-374.4932 299.0501,-371.0162 303,-366.5 376.0349,-282.9951 263.7144,-200.9815 339,-119.5 342.2286,-116.0057 345.9547,-113.0882 350.0035,-110.6577"/>
<polygon fill="#191970" stroke="#191970" points="287.2767,-373.9697 279.2988,-380.9414 289.883,-380.4664 287.2767,-373.9697"/>
</g>
<!-- Node12 -->
<g id="node12" class="node">
<title>Node12</title>
<g id="a_node12"><a xlink:href="../../d5/d2c/macros_2blob_2master_2macros_2g4simulations_2Fun4All__G4__sPHENIX_8C.html#a6eaaa492d7023ec86c562dc63aa1e5a4" target="_top" xlink:title="Fun4All_G4_sPHENIX">
<polygon fill="none" stroke="#000000" points="362,-51.5 362,-71.5 483,-71.5 483,-51.5 362,-51.5"/>
<text text-anchor="middle" x="422.5" y="-58.5" font-family="FreeSans" font-size="10.00" fill="#000000">Fun4All_G4_sPHENIX</text>
</a>
</g>
</g>
<!-- Node2&#45;&gt;Node12 -->
<g id="edge11" class="edge">
<title>Node2&#45;&gt;Node12</title>
<path fill="none" stroke="#191970" d="M288.5917,-377.342C294.0536,-374.6445 299.0443,-371.1129 303,-366.5 386.3979,-269.2477 252.9802,-175.4412 339,-80.5 345.189,-73.6691 353.2778,-69.0325 361.9833,-65.928"/>
<polygon fill="#191970" stroke="#191970" points="287.0514,-374.188 279.0546,-381.138 289.6401,-380.6917 287.0514,-374.188"/>
</g>
<!-- Node13 -->
<g id="node13" class="node">
<title>Node13</title>
<g id="a_node13"><a xlink:href="../../d3/de2/Fun4All__G4__sPHENIX__AnaGenFit_8C.html#a9bf3f2f72ed69a17e2d0c1121d48013c" target="_top" xlink:title="Fun4All_G4_sPHENIX\l_AnaGenFit">
<polygon fill="none" stroke="#000000" points="362,-.5 362,-32.5 483,-32.5 483,-.5 362,-.5"/>
<text text-anchor="start" x="370" y="-19.5" font-family="FreeSans" font-size="10.00" fill="#000000">Fun4All_G4_sPHENIX</text>
<text text-anchor="middle" x="422.5" y="-7.5" font-family="FreeSans" font-size="10.00" fill="#000000">_AnaGenFit</text>
</a>
</g>
</g>
<!-- Node2&#45;&gt;Node13 -->
<g id="edge12" class="edge">
<title>Node2&#45;&gt;Node13</title>
<path fill="none" stroke="#191970" d="M288.6583,-377.3987C294.1089,-374.6915 299.0787,-371.1422 303,-366.5 396.7792,-255.479 245.9225,-153.1099 339,-41.5 345.0089,-34.2947 353.0049,-29.1131 361.673,-25.3976"/>
<polygon fill="#191970" stroke="#191970" points="287.1202,-374.2441 279.1318,-381.2037 289.7167,-380.7447 287.1202,-374.2441"/>
</g>
<!-- Node14 -->
<g id="node14" class="node">
<title>Node14</title>
<g id="a_node14"><a xlink:href="../../da/dd0/Fun4All__G4__sPHENIX__photonjet_8C.html#a6f18519e216acc05399e562ea57ea77c" target="_top" xlink:title="Fun4All_G4_sPHENIX\l_photonjet">
<polygon fill="none" stroke="#000000" points="362,-477.5 362,-509.5 483,-509.5 483,-477.5 362,-477.5"/>
<text text-anchor="start" x="370" y="-496.5" font-family="FreeSans" font-size="10.00" fill="#000000">Fun4All_G4_sPHENIX</text>
<text text-anchor="middle" x="422.5" y="-484.5" font-family="FreeSans" font-size="10.00" fill="#000000">_photonjet</text>
</a>
</g>
</g>
<!-- Node2&#45;&gt;Node14 -->
<g id="edge13" class="edge">
<title>Node2&#45;&gt;Node14</title>
<path fill="none" stroke="#191970" d="M253.657,-402.99C272.8663,-421.657 305.6909,-450.9133 339,-468.5 346.0923,-472.2446 353.8269,-475.5103 361.6339,-478.3348"/>
<polygon fill="#191970" stroke="#191970" points="255.8654,-400.2512 246.2964,-395.7031 250.9406,-405.2258 255.8654,-400.2512"/>
</g>
<!-- Node15 -->
<g id="node15" class="node">
<title>Node15</title>
<g id="a_node15"><a xlink:href="../../da/d85/Fun4All__G4__sPHENIX__photons_8C.html#a02fbbd59878fe1299f58ed187e7214ba" target="_top" xlink:title="Fun4All_G4_sPHENIX\l_photons">
<polygon fill="none" stroke="#000000" points="362,-426.5 362,-458.5 483,-458.5 483,-426.5 362,-426.5"/>
<text text-anchor="start" x="370" y="-445.5" font-family="FreeSans" font-size="10.00" fill="#000000">Fun4All_G4_sPHENIX</text>
<text text-anchor="middle" x="422.5" y="-433.5" font-family="FreeSans" font-size="10.00" fill="#000000">_photons</text>
</a>
</g>
</g>
<!-- Node2&#45;&gt;Node15 -->
<g id="edge14" class="edge">
<title>Node2&#45;&gt;Node15</title>
<path fill="none" stroke="#191970" d="M277.99,-398.574C296.6268,-404.4154 318.9018,-411.3542 339,-417.5 348.5508,-420.4205 358.727,-423.4968 368.5713,-426.4545"/>
<polygon fill="#191970" stroke="#191970" points="278.9172,-395.1967 268.328,-395.5418 276.8211,-401.8755 278.9172,-395.1967"/>
</g>
<!-- Node16 -->
<g id="node16" class="node">
<title>Node16</title>
<g id="a_node16"><a xlink:href="../../de/d55/Fun4All__G4__sPHENIX__truthphotonjet_8C.html#a48a6f4503eaa1b3793d8ae572aa795b9" target="_top" xlink:title="Fun4All_G4_sPHENIX\l_truthphotonjet">
<polygon fill="none" stroke="#000000" points="362,-375.5 362,-407.5 483,-407.5 483,-375.5 362,-375.5"/>
<text text-anchor="start" x="370" y="-394.5" font-family="FreeSans" font-size="10.00" fill="#000000">Fun4All_G4_sPHENIX</text>
<text text-anchor="middle" x="422.5" y="-382.5" font-family="FreeSans" font-size="10.00" fill="#000000">_truthphotonjet</text>
</a>
</g>
</g>
<!-- Node2&#45;&gt;Node16 -->
<g id="edge15" class="edge">
<title>Node2&#45;&gt;Node16</title>
<path fill="none" stroke="#191970" d="M289.2418,-387.2013C311.8133,-387.9295 338.3054,-388.784 361.6972,-389.5386"/>
<polygon fill="#191970" stroke="#191970" points="289.2798,-383.7008 279.1722,-386.8765 289.0541,-390.6972 289.2798,-383.7008"/>
</g>
<!-- Node17 -->
<g id="node17" class="node">
<title>Node17</title>
<g id="a_node17"><a xlink:href="../../d4/d65/Fun4All__single__particle_8C.html#a8a492b5dbead494bfdddbebde8a49b0e" target="_top" xlink:title="Fun4All_single_particle">
<polygon fill="none" stroke="#000000" points="356.5,-336.5 356.5,-356.5 488.5,-356.5 488.5,-336.5 356.5,-336.5"/>
<text text-anchor="middle" x="422.5" y="-343.5" font-family="FreeSans" font-size="10.00" fill="#000000">Fun4All_single_particle</text>
</a>
</g>
</g>
<!-- Node2&#45;&gt;Node17 -->
<g id="edge16" class="edge">
<title>Node2&#45;&gt;Node17</title>
<path fill="none" stroke="#191970" d="M289.1909,-374.4519C316.1104,-368.8075 348.6169,-361.9916 374.791,-356.5035"/>
<polygon fill="#191970" stroke="#191970" points="288.241,-371.0749 279.1722,-376.5526 289.6776,-377.9259 288.241,-371.0749"/>
</g>
<!-- Node18 -->
<g id="node18" class="node">
<title>Node18</title>
<g id="a_node18"><a xlink:href="../../d0/d99/Jin__BJet_8C.html#a36169bfee2ed7efda633944d12aebad9" target="_top" xlink:title="Jin_BJet">
<polygon fill="none" stroke="#000000" points="395,-297.5 395,-317.5 450,-317.5 450,-297.5 395,-297.5"/>
<text text-anchor="middle" x="422.5" y="-304.5" font-family="FreeSans" font-size="10.00" fill="#000000">Jin_BJet</text>
</a>
</g>
</g>
<!-- Node2&#45;&gt;Node18 -->
<g id="edge17" class="edge">
<title>Node2&#45;&gt;Node18</title>
<path fill="none" stroke="#191970" d="M288.7791,-373.5868C293.7482,-371.5691 298.5762,-369.2235 303,-366.5 323.0876,-354.1333 318.65,-339.4298 339,-327.5 355.9748,-317.5488 377.6444,-312.5424 394.6543,-310.0272"/>
<polygon fill="#191970" stroke="#191970" points="287.3348,-370.387 279.1182,-377.0758 289.7126,-376.9708 287.3348,-370.387"/>
</g>
<!-- Node19 -->
<g id="node19" class="node">
<title>Node19</title>
<g id="a_node19"><a xlink:href="../../dd/db1/Wrapper_8cxx.html#abf1e42281903daa0752c80dd6c879fac" target="_top" xlink:title="Wrapper">
<polygon fill="none" stroke="#000000" points="392.5,-258.5 392.5,-278.5 452.5,-278.5 452.5,-258.5 392.5,-258.5"/>
<text text-anchor="middle" x="422.5" y="-265.5" font-family="FreeSans" font-size="10.00" fill="#000000">Wrapper</text>
</a>
</g>
</g>
<!-- Node2&#45;&gt;Node19 -->
<g id="edge18" class="edge">
<title>Node2&#45;&gt;Node19</title>
<path fill="none" stroke="#191970" d="M288.7791,-375.4124C293.9185,-373.0404 298.7826,-370.1128 303,-366.5 331.9961,-341.6604 309.4741,-312.7074 339,-288.5 353.8705,-276.3081 374.9567,-271.325 392.2185,-269.3812"/>
<polygon fill="#191970" stroke="#191970" points="287.3527,-372.212 279.311,-379.11 289.8991,-378.7324 287.3527,-372.212"/>
</g>
<!-- Node4 -->
<g id="node4" class="node">
<title>Node4</title>
<g id="a_node4"><a xlink:href="../../d3/d7f/Fun_8C.html#af69a3eef3ff244bb51f5740c6ecb5432" target="_top" xlink:title="Fun">
<polygon fill="none" stroke="#000000" points="542,-219.5 542,-239.5 576,-239.5 576,-219.5 542,-219.5"/>
<text text-anchor="middle" x="559" y="-226.5" font-family="FreeSans" font-size="10.00" fill="#000000">Fun</text>
</a>
</g>
</g>
<!-- Node3&#45;&gt;Node4 -->
<g id="edge3" class="edge">
<title>Node3&#45;&gt;Node4</title>
<path fill="none" stroke="#191970" d="M489.6941,-229.5C509.0852,-229.5 528.59,-229.5 541.9452,-229.5"/>
<polygon fill="#191970" stroke="#191970" points="489.5974,-226.0001 479.5974,-229.5 489.5974,-233.0001 489.5974,-226.0001"/>
</g>
<!-- Node20&#45;&gt;Node5 -->
<g id="edge20" class="edge">
<title>Node20&#45;&gt;Node5</title>
<path fill="none" stroke="#191970" d="M288.775,-577.5C308.6148,-577.5 331.5361,-577.5 352.7361,-577.5"/>
<polygon fill="#191970" stroke="#191970" points="288.7063,-574.0001 278.7063,-577.5 288.7062,-581.0001 288.7063,-574.0001"/>
</g>
<!-- Node20&#45;&gt;Node6 -->
<g id="edge21" class="edge">
<title>Node20&#45;&gt;Node6</title>
<path fill="none" stroke="#191970" d="M288.7241,-566.5498C315.6546,-560.9031 348.2731,-554.0637 374.5588,-548.5522"/>
<polygon fill="#191970" stroke="#191970" points="287.7752,-563.1726 278.7063,-568.6503 289.2117,-570.0236 287.7752,-563.1726"/>
</g>
<!-- Node20&#45;&gt;Node7 -->
<g id="edge22" class="edge">
<title>Node20&#45;&gt;Node7</title>
<path fill="none" stroke="#191970" d="M260.108,-593.1983C280.374,-606.1512 310.7077,-624.3175 339,-636.5 346.5052,-639.7317 354.5595,-642.7124 362.5972,-645.4042"/>
<polygon fill="#191970" stroke="#191970" points="261.8445,-590.153 251.5486,-587.6541 258.0389,-596.0282 261.8445,-590.153"/>
</g>
<!-- Node20&#45;&gt;Node8 -->
<g id="edge23" class="edge">
<title>Node20&#45;&gt;Node8</title>
<path fill="none" stroke="#191970" d="M288.7241,-588.4502C315.6546,-594.0969 348.2731,-600.9363 374.5588,-606.4478"/>
<polygon fill="#191970" stroke="#191970" points="289.2117,-584.9764 278.7063,-586.3497 287.7752,-591.8274 289.2117,-584.9764"/>
</g>
<!-- Node24&#45;&gt;Node3 -->
<g id="edge28" class="edge">
<title>Node24&#45;&gt;Node3</title>
<path fill="none" stroke="#191970" d="M298.0305,-331.2632C299.7641,-330.0997 301.427,-328.8475 303,-327.5 331.9961,-302.6604 309.4741,-273.7074 339,-249.5 346.6081,-243.2623 355.8434,-238.9116 365.361,-235.8894"/>
<polygon fill="#191970" stroke="#191970" points="295.8928,-328.4477 288.8625,-336.3739 299.3012,-334.5619 295.8928,-328.4477"/>
</g>
<!-- Node24&#45;&gt;Node5 -->
<g id="edge29" class="edge">
<title>Node24&#45;&gt;Node5</title>
<path fill="none" stroke="#191970" d="M298.6121,-362.2896C300.1708,-363.586 301.6403,-364.9867 303,-366.5 361.0271,-431.0805 278.7983,-495.9418 339,-558.5 343.0205,-562.6779 347.7539,-566.0237 352.8897,-568.6942"/>
<polygon fill="#191970" stroke="#191970" points="300.4256,-359.2919 290.1683,-356.639 296.5325,-365.1094 300.4256,-359.2919"/>
</g>
<!-- Node24&#45;&gt;Node6 -->
<g id="edge30" class="edge">
<title>Node24&#45;&gt;Node6</title>
<path fill="none" stroke="#191970" d="M298.4167,-362.2874C300.0402,-363.5838 301.575,-364.9853 303,-366.5 350.8656,-417.3811 289.4223,-470.2856 339,-519.5 342.5874,-523.0611 346.6948,-526.0115 351.1207,-528.4504"/>
<polygon fill="#191970" stroke="#191970" points="299.9603,-359.1182 289.6592,-356.6405 296.1668,-365.0012 299.9603,-359.1182"/>
</g>
<!-- Node24&#45;&gt;Node7 -->
<g id="edge31" class="edge">
<title>Node24&#45;&gt;Node7</title>
<path fill="none" stroke="#191970" d="M299.1903,-362.6121C300.5426,-363.8181 301.8175,-365.1119 303,-366.5 381.5076,-458.655 260.4353,-544.3936 339,-636.5 342.9281,-641.1052 347.6673,-644.8816 352.8681,-647.9758"/>
<polygon fill="#191970" stroke="#191970" points="300.8928,-359.5298 290.7045,-356.623 296.8563,-365.2488 300.8928,-359.5298"/>
</g>
<!-- Node24&#45;&gt;Node8 -->
<g id="edge32" class="edge">
<title>Node24&#45;&gt;Node8</title>
<path fill="none" stroke="#191970" d="M298.6734,-362.2354C300.2146,-363.5473 301.6637,-364.966 303,-366.5 371.25,-444.8479 268.1105,-521.532 339,-597.5 342.2458,-600.9783 345.9848,-603.8839 350.043,-606.3056"/>
<polygon fill="#191970" stroke="#191970" points="300.5303,-359.2654 290.2956,-356.5264 296.5883,-365.05 300.5303,-359.2654"/>
</g>
<!-- Node24&#45;&gt;Node9 -->
<g id="edge33" class="edge">
<title>Node24&#45;&gt;Node9</title>
<path fill="none" stroke="#191970" d="M298.9842,-330.9915C300.3895,-329.9044 301.7324,-328.7422 303,-327.5 341.8573,-289.4197 299.3291,-247.732 339,-210.5 345.0868,-204.7874 352.5063,-200.617 360.3841,-197.5875"/>
<polygon fill="#191970" stroke="#191970" points="296.94,-328.1426 290.3433,-336.4333 300.6703,-334.0659 296.94,-328.1426"/>
</g>
<!-- Node24&#45;&gt;Node10 -->
<g id="edge34" class="edge">
<title>Node24&#45;&gt;Node10</title>
<path fill="none" stroke="#191970" d="M299.6488,-330.6578C300.8206,-329.6669 301.9405,-328.6155 303,-327.5 352.0024,-275.9066 290.6088,-223.6671 339,-171.5 344.8856,-165.1552 352.2899,-160.3468 360.2447,-156.7052"/>
<polygon fill="#191970" stroke="#191970" points="297.5609,-327.8449 291.2554,-336.3591 301.4942,-333.6354 297.5609,-327.8449"/>
</g>
<!-- Node24&#45;&gt;Node11 -->
<g id="edge35" class="edge">
<title>Node24&#45;&gt;Node11</title>
<path fill="none" stroke="#191970" d="M299.6496,-330.8103C300.8268,-329.7744 301.9468,-328.6723 303,-327.5 365.7003,-257.71 274.4192,-187.5537 339,-119.5 342.3772,-115.9412 346.2712,-112.9842 350.4926,-110.533"/>
<polygon fill="#191970" stroke="#191970" points="297.3561,-328.1424 291.1521,-336.7307 301.3578,-333.8858 297.3561,-328.1424"/>
</g>
<!-- Node24&#45;&gt;Node12 -->
<g id="edge36" class="edge">
<title>Node24&#45;&gt;Node12</title>
<path fill="none" stroke="#191970" d="M299.692,-330.8479C300.8566,-329.8008 301.9625,-328.6862 303,-327.5 376.0349,-243.9951 263.7144,-161.9815 339,-80.5 345.1544,-73.8391 353.1169,-69.2737 361.6762,-66.1834"/>
<polygon fill="#191970" stroke="#191970" points="297.3934,-328.187 291.2575,-336.8242 301.4404,-333.8985 297.3934,-328.187"/>
</g>
<!-- Node24&#45;&gt;Node13 -->
<g id="edge37" class="edge">
<title>Node24&#45;&gt;Node13</title>
<path fill="none" stroke="#191970" d="M299.2832,-331.2712C300.601,-330.1023 301.8447,-328.8473 303,-327.5 386.3979,-230.2477 256.2168,-139.2761 339,-41.5 345.0624,-34.3397 353.086,-29.1813 361.7652,-25.4751"/>
<polygon fill="#191970" stroke="#191970" points="297.1973,-328.4591 291.0215,-337.0678 301.2179,-334.1894 297.1973,-328.4591"/>
</g>
<!-- Node24&#45;&gt;Node14 -->
<g id="edge38" class="edge">
<title>Node24&#45;&gt;Node14</title>
<path fill="none" stroke="#191970" d="M296.9691,-361.6097C299.1067,-363.0907 301.1299,-364.7161 303,-366.5 337.7853,-399.6828 304.1942,-435.3388 339,-468.5 345.464,-474.6585 353.3836,-479.3063 361.7446,-482.8125"/>
<polygon fill="#191970" stroke="#191970" points="298.6522,-358.5401 288.2394,-356.5843 295.1598,-364.6067 298.6522,-358.5401"/>
</g>
<!-- Node24&#45;&gt;Node15 -->
<g id="edge39" class="edge">
<title>Node24&#45;&gt;Node15</title>
<path fill="none" stroke="#191970" d="M293.3445,-360.6612C296.7335,-362.3911 299.9856,-364.3291 303,-366.5 325.514,-382.7141 316.4759,-401.2999 339,-417.5 345.8795,-422.448 353.7448,-426.4275 361.8355,-429.6256"/>
<polygon fill="#191970" stroke="#191970" points="294.6821,-357.4256 284.1234,-356.5518 291.8327,-363.8194 294.6821,-357.4256"/>
</g>
<!-- Node24&#45;&gt;Node16 -->
<g id="edge40" class="edge">
<title>Node24&#45;&gt;Node16</title>
<path fill="none" stroke="#191970" d="M288.0925,-358.9821C310.9561,-364.5136 338.0152,-371.0601 361.8399,-376.8242"/>
<polygon fill="#191970" stroke="#191970" points="288.7847,-355.5486 278.242,-356.5989 287.1386,-362.3523 288.7847,-355.5486"/>
</g>
<!-- Node24&#45;&gt;Node17 -->
<g id="edge41" class="edge">
<title>Node24&#45;&gt;Node17</title>
<path fill="none" stroke="#191970" d="M301.0978,-346.5C318.9946,-346.5 338.4438,-346.5 356.4237,-346.5"/>
<polygon fill="#191970" stroke="#191970" points="301.0494,-343.0001 291.0494,-346.5 301.0493,-350.0001 301.0494,-343.0001"/>
</g>
<!-- Node24&#45;&gt;Node18 -->
<g id="edge42" class="edge">
<title>Node24&#45;&gt;Node18</title>
<path fill="none" stroke="#191970" d="M294.5431,-334.3297C328.0359,-327.307 368.6079,-318.8 394.9581,-313.2749"/>
<polygon fill="#191970" stroke="#191970" points="293.4685,-330.9788 284.3996,-336.4565 294.9051,-337.8298 293.4685,-330.9788"/>
</g>
<!-- Node24&#45;&gt;Node19 -->
<g id="edge43" class="edge">
<title>Node24&#45;&gt;Node19</title>
<path fill="none" stroke="#191970" d="M293.5075,-332.5428C296.8032,-331.0258 299.9949,-329.3501 303,-327.5 323.0876,-315.1333 318.65,-300.4298 339,-288.5 355.2032,-279.0011 375.6842,-274.0077 392.3067,-271.3858"/>
<polygon fill="#191970" stroke="#191970" points="291.9532,-329.3966 284.0125,-336.4107 294.594,-335.8794 291.9532,-329.3966"/>
</g>
<!-- Node25&#45;&gt;Node3 -->
<g id="edge45" class="edge">
<title>Node25&#45;&gt;Node3</title>
<path fill="none" stroke="#191970" d="M293.5075,-293.5428C296.8032,-292.0258 299.9949,-290.3501 303,-288.5 323.0876,-276.1333 318.65,-261.4298 339,-249.5 347.1016,-244.7506 356.2727,-241.1275 365.4961,-238.3641"/>
<polygon fill="#191970" stroke="#191970" points="291.9532,-290.3966 284.0125,-297.4107 294.594,-296.8794 291.9532,-290.3966"/>
</g>
<!-- Node25&#45;&gt;Node5 -->
<g id="edge46" class="edge">
<title>Node25&#45;&gt;Node5</title>
<path fill="none" stroke="#191970" d="M298.6734,-323.2354C300.2146,-324.5473 301.6637,-325.966 303,-327.5 371.25,-405.8479 268.1105,-482.532 339,-558.5 342.9558,-562.7392 347.6442,-566.1277 352.7502,-568.8263"/>
<polygon fill="#191970" stroke="#191970" points="300.5303,-320.2654 290.2956,-317.5264 296.5883,-326.05 300.5303,-320.2654"/>
</g>
<!-- Node25&#45;&gt;Node6 -->
<g id="edge47" class="edge">
<title>Node25&#45;&gt;Node6</title>
<path fill="none" stroke="#191970" d="M298.6121,-323.2896C300.1708,-324.586 301.6403,-325.9867 303,-327.5 361.0271,-392.0805 278.7983,-456.9418 339,-519.5 342.4019,-523.0351 346.3143,-525.9745 350.549,-528.4131"/>
<polygon fill="#191970" stroke="#191970" points="300.4256,-320.2919 290.1683,-317.639 296.5325,-326.1094 300.4256,-320.2919"/>
</g>
<!-- Node25&#45;&gt;Node7 -->
<g id="edge48" class="edge">
<title>Node25&#45;&gt;Node7</title>
<path fill="none" stroke="#191970" d="M299.221,-323.5862C300.5643,-324.7997 301.829,-326.1022 303,-327.5 391.7868,-433.4875 250.1475,-530.5676 339,-636.5 342.8898,-641.1376 347.6027,-644.9363 352.7864,-648.045"/>
<polygon fill="#191970" stroke="#191970" points="300.9481,-320.5192 290.7736,-317.5646 296.8849,-326.2192 300.9481,-320.5192"/>
</g>
<!-- Node25&#45;&gt;Node8 -->
<g id="edge49" class="edge">
<title>Node25&#45;&gt;Node8</title>
<path fill="none" stroke="#191970" d="M299.1903,-323.6121C300.5426,-324.8181 301.8175,-326.1119 303,-327.5 381.5076,-419.655 257.3867,-508.0837 339,-597.5 342.2072,-601.0139 345.9173,-603.9461 349.9545,-606.3873"/>
<polygon fill="#191970" stroke="#191970" points="300.8928,-320.5298 290.7045,-317.623 296.8563,-326.2488 300.8928,-320.5298"/>
</g>
<!-- Node25&#45;&gt;Node9 -->
<g id="edge50" class="edge">
<title>Node25&#45;&gt;Node9</title>
<path fill="none" stroke="#191970" d="M298.0305,-292.2632C299.7641,-291.0997 301.427,-289.8475 303,-288.5 331.9961,-263.6604 309.4741,-234.7074 339,-210.5 345.2248,-205.3964 352.5389,-201.556 360.2057,-198.673"/>
<polygon fill="#191970" stroke="#191970" points="295.8928,-289.4477 288.8625,-297.3739 299.3012,-295.5619 295.8928,-289.4477"/>
</g>
<!-- Node25&#45;&gt;Node10 -->
<g id="edge51" class="edge">
<title>Node25&#45;&gt;Node10</title>
<path fill="none" stroke="#191970" d="M298.9842,-291.9915C300.3895,-290.9044 301.7324,-289.7422 303,-288.5 341.8573,-250.4197 300.594,-210.0354 339,-171.5 345.0021,-165.4777 352.3738,-160.8461 360.2288,-157.2848"/>
<polygon fill="#191970" stroke="#191970" points="296.94,-289.1426 290.3433,-297.4333 300.6703,-295.0659 296.94,-289.1426"/>
</g>
<!-- Node25&#45;&gt;Node11 -->
<g id="edge52" class="edge">
<title>Node25&#45;&gt;Node11</title>
<path fill="none" stroke="#191970" d="M299.6744,-291.682C300.8386,-290.6838 301.95,-289.6244 303,-288.5 355.4141,-232.3712 285.0743,-174.1781 339,-119.5 342.445,-116.0069 346.3894,-113.0986 350.6471,-110.6825"/>
<polygon fill="#191970" stroke="#191970" points="297.5816,-288.8733 291.3195,-297.4195 301.5443,-294.6437 297.5816,-288.8733"/>
</g>
<!-- Node25&#45;&gt;Node12 -->
<g id="edge53" class="edge">
<title>Node25&#45;&gt;Node12</title>
<path fill="none" stroke="#191970" d="M300.1505,-291.3622C301.1454,-290.458 302.0972,-289.5048 303,-288.5 365.7003,-218.71 274.4192,-148.5537 339,-80.5 345.2426,-73.9216 353.2512,-69.3995 361.8298,-66.3272"/>
<polygon fill="#191970" stroke="#191970" points="297.8592,-288.6989 291.7814,-297.3771 301.9444,-294.3831 297.8592,-288.6989"/>
</g>
<!-- Node25&#45;&gt;Node13 -->
<g id="edge54" class="edge">
<title>Node25&#45;&gt;Node13</title>
<path fill="none" stroke="#191970" d="M300.1875,-291.395C301.1712,-290.4809 302.1107,-289.5168 303,-288.5 376.0349,-204.9951 266.493,-125.4637 339,-41.5 345.1319,-34.3992 353.1914,-29.2714 361.8851,-25.5776"/>
<polygon fill="#191970" stroke="#191970" points="297.8894,-288.7395 291.8837,-297.4678 302.0216,-294.3897 297.8894,-288.7395"/>
</g>
<!-- Node25&#45;&gt;Node14 -->
<g id="edge55" class="edge">
<title>Node25&#45;&gt;Node14</title>
<path fill="none" stroke="#191970" d="M297.8526,-322.9137C299.6816,-324.3133 301.407,-325.8383 303,-327.5 347.7592,-374.1875 294.2119,-421.8402 339,-468.5 345.2874,-475.0501 353.2143,-479.9032 361.667,-483.4948"/>
<polygon fill="#191970" stroke="#191970" points="299.5936,-319.8745 289.2577,-317.5464 295.8858,-325.8119 299.5936,-319.8745"/>
</g>
<!-- Node25&#45;&gt;Node15 -->
<g id="edge56" class="edge">
<title>Node25&#45;&gt;Node15</title>
<path fill="none" stroke="#191970" d="M296.745,-322.6189C298.9562,-324.097 301.0546,-325.7194 303,-327.5 334.7788,-356.5879 307.2032,-388.4317 339,-417.5 345.5895,-423.524 353.5768,-428.0993 361.9677,-431.5735"/>
<polygon fill="#191970" stroke="#191970" points="298.182,-319.413 287.7429,-317.6029 294.7748,-325.5278 298.182,-319.413"/>
</g>
<!-- Node25&#45;&gt;Node16 -->
<g id="edge57" class="edge">
<title>Node25&#45;&gt;Node16</title>
<path fill="none" stroke="#191970" d="M291.4628,-321.4126C295.4835,-323.214 299.3774,-325.2351 303,-327.5 323.0015,-340.0054 318.9908,-354.007 339,-366.5 346.0597,-370.9078 353.9401,-374.5756 361.9628,-377.6179"/>
<polygon fill="#191970" stroke="#191970" points="292.5036,-318.0594 281.9189,-317.5967 289.9048,-324.5591 292.5036,-318.0594"/>
</g>
<!-- Node25&#45;&gt;Node17 -->
<g id="edge58" class="edge">
<title>Node25&#45;&gt;Node17</title>
<path fill="none" stroke="#191970" d="M294.4315,-319.6469C320.2404,-325.0585 350.271,-331.3552 374.7627,-336.4906"/>
<polygon fill="#191970" stroke="#191970" points="294.9051,-316.1702 284.3996,-317.5435 293.4685,-323.0212 294.9051,-316.1702"/>
</g>
<!-- Node25&#45;&gt;Node18 -->
<g id="edge59" class="edge">
<title>Node25&#45;&gt;Node18</title>
<path fill="none" stroke="#191970" d="M302.2029,-307.5C334.033,-307.5 370.5442,-307.5 394.9147,-307.5"/>
<polygon fill="#191970" stroke="#191970" points="302.0542,-304.0001 292.0542,-307.5 302.0542,-311.0001 302.0542,-304.0001"/>
</g>
<!-- Node25&#45;&gt;Node19 -->
<g id="edge60" class="edge">
<title>Node25&#45;&gt;Node19</title>
<path fill="none" stroke="#191970" d="M294.2245,-295.3965C326.6461,-288.5984 365.7828,-280.3923 392.2343,-274.846"/>
<polygon fill="#191970" stroke="#191970" points="293.4685,-291.9788 284.3996,-297.4565 294.9051,-298.8298 293.4685,-291.9788"/>
</g>
</g>
</svg>
