<?xml version="1.0" encoding="UTF-8" standalone="no"?>
<!DOCTYPE svg PUBLIC "-//W3C//DTD SVG 1.1//EN"
 "http://www.w3.org/Graphics/SVG/1.1/DTD/svg11.dtd">
<!-- Generated by graphviz version 2.40.1 (20161225.0304)
 -->
<!-- Title: RawTowerDigitizer::set_photonelec_yield_visible_GeV Pages: 1 -->
<svg width="572pt" height="686pt"
 viewBox="0.00 0.00 572.00 686.00" xmlns="http://www.w3.org/2000/svg" xmlns:xlink="http://www.w3.org/1999/xlink">
<g id="graph0" class="graph" transform="scale(1 1) rotate(0) translate(4 682)">
<title>RawTowerDigitizer::set_photonelec_yield_visible_GeV</title>
<!-- Node1 -->
<g id="node1" class="node">
<title>Node1</title>
<polygon fill="#bfbfbf" stroke="#000000" points="0,-285.5 0,-329.5 122,-329.5 122,-285.5 0,-285.5"/>
<text text-anchor="start" x="8" y="-316.5" font-family="FreeSans" font-size="10.00" fill="#000000">RawTowerDigitizer::</text>
<text text-anchor="start" x="8" y="-304.5" font-family="FreeSans" font-size="10.00" fill="#000000">set_photonelec_yield</text>
<text text-anchor="middle" x="61" y="-292.5" font-family="FreeSans" font-size="10.00" fill="#000000">_visible_GeV</text>
</g>
<!-- Node2 -->
<g id="node2" class="node">
<title>Node2</title>
<g id="a_node2"><a xlink:href="../../d8/d4c/G4__CEmc__EIC_8C.html#a46a52c955e8d2078c58d4d7db471cc43" target="_top" xlink:title="CEMC_Towers">
<polygon fill="none" stroke="#000000" points="182,-375.5 182,-395.5 267,-395.5 267,-375.5 182,-375.5"/>
<text text-anchor="middle" x="224.5" y="-382.5" font-family="FreeSans" font-size="10.00" fill="#000000">CEMC_Towers</text>
</a>
</g>
</g>
<!-- Node1&#45;&gt;Node2 -->
<g id="edge1" class="edge">
<title>Node1&#45;&gt;Node2</title>
<path fill="none" stroke="#191970" d="M101.1493,-335.2583C118.1298,-346.1017 138.4701,-357.9564 158,-366.5 165.8104,-369.9168 174.4036,-372.8998 182.7447,-375.4268"/>
<polygon fill="#191970" stroke="#191970" points="102.8905,-332.2158 92.5979,-329.703 99.077,-338.0858 102.8905,-332.2158"/>
</g>
<!-- Node20 -->
<g id="node20" class="node">
<title>Node20</title>
<g id="a_node20"><a xlink:href="../../d1/d81/macros_2blob_2master_2macros_2g4simulations_2G4__EEMC_8C.html#a05b9b10b79cc47702702e091692fd060" target="_top" xlink:title="EEMC_Towers">
<polygon fill="none" stroke="#000000" points="182.5,-567.5 182.5,-587.5 266.5,-587.5 266.5,-567.5 182.5,-567.5"/>
<text text-anchor="middle" x="224.5" y="-574.5" font-family="FreeSans" font-size="10.00" fill="#000000">EEMC_Towers</text>
</a>
</g>
</g>
<!-- Node1&#45;&gt;Node20 -->
<g id="edge19" class="edge">
<title>Node1&#45;&gt;Node20</title>
<path fill="none" stroke="#191970" d="M79.6624,-338.3187C116.2585,-398.7526 195.8443,-530.1787 218.4197,-567.4592"/>
<polygon fill="#191970" stroke="#191970" points="82.5537,-336.3362 74.3799,-329.5952 76.5659,-339.9621 82.5537,-336.3362"/>
</g>
<!-- Node21 -->
<g id="node21" class="node">
<title>Node21</title>
<g id="a_node21"><a xlink:href="../../dc/d8e/Fun4All__G4__Prototype2_8C.html#a6b8f092c4f51be2938dd09c810ba6226" target="_top" xlink:title="Fun4All_G4_Prototype2">
<polygon fill="none" stroke="#000000" points="158,-258.5 158,-278.5 291,-278.5 291,-258.5 158,-258.5"/>
<text text-anchor="middle" x="224.5" y="-265.5" font-family="FreeSans" font-size="10.00" fill="#000000">Fun4All_G4_Prototype2</text>
</a>
</g>
</g>
<!-- Node1&#45;&gt;Node21 -->
<g id="edge24" class="edge">
<title>Node1&#45;&gt;Node21</title>
<path fill="none" stroke="#191970" d="M132.275,-290.4986C149.2974,-286.4382 166.9357,-282.2309 182.1721,-278.5966"/>
<polygon fill="#191970" stroke="#191970" points="131.2615,-287.1421 122.3465,-292.8669 132.8858,-293.9511 131.2615,-287.1421"/>
</g>
<!-- Node22 -->
<g id="node22" class="node">
<title>Node22</title>
<g id="a_node22"><a xlink:href="../../d7/d40/Fun4All__G4__Prototype3_8C.html#a1201361263017b08a070777a0b90b27c" target="_top" xlink:title="Fun4All_G4_Prototype3">
<polygon fill="none" stroke="#000000" points="158,-219.5 158,-239.5 291,-239.5 291,-219.5 158,-219.5"/>
<text text-anchor="middle" x="224.5" y="-226.5" font-family="FreeSans" font-size="10.00" fill="#000000">Fun4All_G4_Prototype3</text>
</a>
</g>
</g>
<!-- Node1&#45;&gt;Node22 -->
<g id="edge25" class="edge">
<title>Node1&#45;&gt;Node22</title>
<path fill="none" stroke="#191970" d="M102.0706,-279.8761C118.9033,-269.3784 138.8915,-257.931 158,-249.5 166.6035,-245.704 176.1377,-242.3645 185.2368,-239.5558"/>
<polygon fill="#191970" stroke="#191970" points="100.1506,-276.9492 93.5771,-285.2582 103.8975,-282.862 100.1506,-276.9492"/>
</g>
<!-- Node23 -->
<g id="node23" class="node">
<title>Node23</title>
<g id="a_node23"><a xlink:href="../../d4/d58/Fun4All__G4__Prototype4_8C.html#acac517f0728af658cbf99c7c9687c908" target="_top" xlink:title="Fun4All_G4_Prototype4">
<polygon fill="none" stroke="#000000" points="158,-180.5 158,-200.5 291,-200.5 291,-180.5 158,-180.5"/>
<text text-anchor="middle" x="224.5" y="-187.5" font-family="FreeSans" font-size="10.00" fill="#000000">Fun4All_G4_Prototype4</text>
</a>
</g>
</g>
<!-- Node1&#45;&gt;Node23 -->
<g id="edge26" class="edge">
<title>Node1&#45;&gt;Node23</title>
<path fill="none" stroke="#191970" d="M84.017,-277.5926C102.0164,-256.0987 128.8167,-227.9447 158,-210.5 164.7263,-206.4793 172.324,-203.211 179.917,-200.5722"/>
<polygon fill="#191970" stroke="#191970" points="81.1945,-275.515 77.5629,-285.468 86.6086,-279.952 81.1945,-275.515"/>
</g>
<!-- Node24 -->
<g id="node24" class="node">
<title>Node24</title>
<g id="a_node24"><a xlink:href="../../d7/dc0/G4__HcalIn__EIC_8C.html#a4552e4b1c6ffcc08cba2296b2c45f950" target="_top" xlink:title="HCALInner_Towers">
<polygon fill="none" stroke="#000000" points="170,-336.5 170,-356.5 279,-356.5 279,-336.5 170,-336.5"/>
<text text-anchor="middle" x="224.5" y="-343.5" font-family="FreeSans" font-size="10.00" fill="#000000">HCALInner_Towers</text>
</a>
</g>
</g>
<!-- Node1&#45;&gt;Node24 -->
<g id="edge27" class="edge">
<title>Node1&#45;&gt;Node24</title>
<path fill="none" stroke="#191970" d="M132.275,-324.5014C149.2974,-328.5618 166.9357,-332.7691 182.1721,-336.4034"/>
<polygon fill="#191970" stroke="#191970" points="132.8858,-321.0489 122.3465,-322.1331 131.2615,-327.8579 132.8858,-321.0489"/>
</g>
<!-- Node25 -->
<g id="node25" class="node">
<title>Node25</title>
<g id="a_node25"><a xlink:href="../../de/d3d/macros_2blob_2master_2macros_2g4simulations_2G4__HcalOut__ref_8C.html#a4fd9d72ad1e04ebc46273f3b9fff91d6" target="_top" xlink:title="HCALOuter_Towers">
<polygon fill="none" stroke="#000000" points="169,-297.5 169,-317.5 280,-317.5 280,-297.5 169,-297.5"/>
<text text-anchor="middle" x="224.5" y="-304.5" font-family="FreeSans" font-size="10.00" fill="#000000">HCALOuter_Towers</text>
</a>
</g>
</g>
<!-- Node1&#45;&gt;Node25 -->
<g id="edge44" class="edge">
<title>Node1&#45;&gt;Node25</title>
<path fill="none" stroke="#191970" d="M132.4573,-307.5C144.6089,-307.5 157.0688,-307.5 168.7398,-307.5"/>
<polygon fill="#191970" stroke="#191970" points="132.3466,-304.0001 122.3465,-307.5 132.3465,-311.0001 132.3466,-304.0001"/>
</g>
<!-- Node3 -->
<g id="node3" class="node">
<title>Node3</title>
<g id="a_node3"><a xlink:href="../../d3/d7f/Fun_8C.html#af0d3c8a78765149fef9b2beeecfc6279" target="_top" xlink:title="ConfigureDetectors">
<polygon fill="none" stroke="#000000" points="353.5,-219.5 353.5,-239.5 467.5,-239.5 467.5,-219.5 353.5,-219.5"/>
<text text-anchor="middle" x="410.5" y="-226.5" font-family="FreeSans" font-size="10.00" fill="#000000">ConfigureDetectors</text>
</a>
</g>
</g>
<!-- Node2&#45;&gt;Node3 -->
<g id="edge2" class="edge">
<title>Node2&#45;&gt;Node3</title>
<path fill="none" stroke="#191970" d="M276.8752,-376.1637C282.0753,-373.6567 286.9266,-370.492 291,-366.5 329.8573,-328.4197 287.3291,-286.732 327,-249.5 334.2825,-242.6652 343.4725,-238.0381 353.0728,-234.9312"/>
<polygon fill="#191970" stroke="#191970" points="275.2273,-373.0524 267.2306,-380.0025 277.8161,-379.5562 275.2273,-373.0524"/>
</g>
<!-- Node5 -->
<g id="node5" class="node">
<title>Node5</title>
<g id="a_node5"><a xlink:href="../../da/d02/Fun4All__G4__EICDetector_8C.html#afbe82cefa1d1fd031d9a8586b7bb68c6" target="_top" xlink:title="Fun4All_G4_EICDetector">
<polygon fill="none" stroke="#000000" points="341,-567.5 341,-587.5 480,-587.5 480,-567.5 341,-567.5"/>
<text text-anchor="middle" x="410.5" y="-574.5" font-family="FreeSans" font-size="10.00" fill="#000000">Fun4All_G4_EICDetector</text>
</a>
</g>
</g>
<!-- Node2&#45;&gt;Node5 -->
<g id="edge4" class="edge">
<title>Node2&#45;&gt;Node5</title>
<path fill="none" stroke="#191970" d="M230.5054,-405.5741C242.5092,-442.0781 273.0528,-519.1805 327,-558.5 331.926,-562.0903 337.4158,-565.0179 343.1627,-567.403"/>
<polygon fill="#191970" stroke="#191970" points="233.7165,-404.1191 227.3699,-395.6355 227.0408,-406.2252 233.7165,-404.1191"/>
</g>
<!-- Node6 -->
<g id="node6" class="node">
<title>Node6</title>
<g id="a_node6"><a xlink:href="../../dd/d2a/Fun4All__G4__EICDetector__LQ_8C.html#aaa01242fd6e77ca43a9d49a6d46008e4" target="_top" xlink:title="Fun4All_G4_EICDetector_LQ">
<polygon fill="none" stroke="#000000" points="332.5,-528.5 332.5,-548.5 488.5,-548.5 488.5,-528.5 332.5,-528.5"/>
<text text-anchor="middle" x="410.5" y="-535.5" font-family="FreeSans" font-size="10.00" fill="#000000">Fun4All_G4_EICDetector_LQ</text>
</a>
</g>
</g>
<!-- Node2&#45;&gt;Node6 -->
<g id="edge5" class="edge">
<title>Node2&#45;&gt;Node6</title>
<path fill="none" stroke="#191970" d="M233.8766,-405.1606C249.0854,-434.8256 282.0237,-490.6225 327,-519.5 332.6297,-523.1146 338.8602,-526.0455 345.3065,-528.4214"/>
<polygon fill="#191970" stroke="#191970" points="236.8312,-403.2413 229.2458,-395.8445 230.5628,-406.3571 236.8312,-403.2413"/>
</g>
<!-- Node7 -->
<g id="node7" class="node">
<title>Node7</title>
<g id="a_node7"><a xlink:href="../../d4/df5/Fun4All__G4__EICDetector__LQ__reference_8C.html#a2feefc472f17f90b3cbe74897d049f75" target="_top" xlink:title="Fun4All_G4_EICDetector\l_LQ_reference">
<polygon fill="none" stroke="#000000" points="341,-645.5 341,-677.5 480,-677.5 480,-645.5 341,-645.5"/>
<text text-anchor="start" x="349" y="-664.5" font-family="FreeSans" font-size="10.00" fill="#000000">Fun4All_G4_EICDetector</text>
<text text-anchor="middle" x="410.5" y="-652.5" font-family="FreeSans" font-size="10.00" fill="#000000">_LQ_reference</text>
</a>
</g>
</g>
<!-- Node2&#45;&gt;Node7 -->
<g id="edge6" class="edge">
<title>Node2&#45;&gt;Node7</title>
<path fill="none" stroke="#191970" d="M231.9276,-404.9838C253.9273,-462.5118 317.792,-628.1428 327,-636.5 331.146,-640.2629 335.8377,-643.4603 340.8309,-646.1771"/>
<polygon fill="#191970" stroke="#191970" points="235.1669,-403.6556 228.3295,-395.5624 228.6276,-406.153 235.1669,-403.6556"/>
</g>
<!-- Node8 -->
<g id="node8" class="node">
<title>Node8</title>
<g id="a_node8"><a xlink:href="../../d3/d51/Fun4All__G4__EICDetector__RICH_8C.html#a5739502b0a7a1ba782c01069f77e933f" target="_top" xlink:title="Fun4All_G4_EICDetector_RICH">
<polygon fill="none" stroke="#000000" points="327,-606.5 327,-626.5 494,-626.5 494,-606.5 327,-606.5"/>
<text text-anchor="middle" x="410.5" y="-613.5" font-family="FreeSans" font-size="10.00" fill="#000000">Fun4All_G4_EICDetector_RICH</text>
</a>
</g>
</g>
<!-- Node2&#45;&gt;Node8 -->
<g id="edge7" class="edge">
<title>Node2&#45;&gt;Node8</title>
<path fill="none" stroke="#191970" d="M231.5315,-405.2523C248.8338,-452.7958 294.433,-571.5878 327,-597.5 331.5372,-601.1101 336.6299,-604.0612 342.0035,-606.4703"/>
<polygon fill="#191970" stroke="#191970" points="234.7932,-403.9793 228.1093,-395.7588 228.208,-406.3532 234.7932,-403.9793"/>
</g>
<!-- Node9 -->
<g id="node9" class="node">
<title>Node9</title>
<g id="a_node9"><a xlink:href="../../d7/d9e/Fun4All__G4__fsPHENIX_8C.html#af48911d394d2412e817583700f2bbee2" target="_top" xlink:title="Fun4All_G4_fsPHENIX">
<polygon fill="none" stroke="#000000" points="348.5,-180.5 348.5,-200.5 472.5,-200.5 472.5,-180.5 348.5,-180.5"/>
<text text-anchor="middle" x="410.5" y="-187.5" font-family="FreeSans" font-size="10.00" fill="#000000">Fun4All_G4_fsPHENIX</text>
</a>
</g>
</g>
<!-- Node2&#45;&gt;Node9 -->
<g id="edge8" class="edge">
<title>Node2&#45;&gt;Node9</title>
<path fill="none" stroke="#191970" d="M276.5691,-376.7414C281.9451,-374.1395 286.9211,-370.7946 291,-366.5 340.0024,-314.9066 276.8945,-261.0228 327,-210.5 332.9831,-204.467 340.4415,-200.1291 348.4215,-197.0305"/>
<polygon fill="#191970" stroke="#191970" points="275.2303,-373.5072 267.2318,-380.4552 277.8174,-380.0116 275.2303,-373.5072"/>
</g>
<!-- Node10 -->
<g id="node10" class="node">
<title>Node10</title>
<g id="a_node10"><a xlink:href="../../da/d2f/Fun4All__G4__fsPHENIX__FastSim_8C.html#a66fb850cae5fcaadda23b74a25ce4c9c" target="_top" xlink:title="Fun4All_G4_fsPHENIX\l_FastSim">
<polygon fill="none" stroke="#000000" points="348.5,-129.5 348.5,-161.5 472.5,-161.5 472.5,-129.5 348.5,-129.5"/>
<text text-anchor="start" x="356.5" y="-148.5" font-family="FreeSans" font-size="10.00" fill="#000000">Fun4All_G4_fsPHENIX</text>
<text text-anchor="middle" x="410.5" y="-136.5" font-family="FreeSans" font-size="10.00" fill="#000000">_FastSim</text>
</a>
</g>
</g>
<!-- Node2&#45;&gt;Node10 -->
<g id="edge9" class="edge">
<title>Node2&#45;&gt;Node10</title>
<path fill="none" stroke="#191970" d="M276.5483,-377.018C281.9722,-374.3717 286.9654,-370.9407 291,-366.5 350.2648,-301.2712 268.5078,-237.4225 327,-171.5 332.8446,-164.913 340.327,-159.9761 348.405,-156.2797"/>
<polygon fill="#191970" stroke="#191970" points="275.1072,-373.8243 267.1071,-380.7704 277.6927,-380.3294 275.1072,-373.8243"/>
</g>
<!-- Node11 -->
<g id="node11" class="node">
<title>Node11</title>
<g id="a_node11"><a xlink:href="../../d0/da6/Fun4All__G4__fsPHENIX__pi0_8C.html#a023d91d47b678e5d7f1751834aa517c6" target="_top" xlink:title="Fun4All_G4_fsPHENIX_pi0">
<polygon fill="none" stroke="#000000" points="338,-90.5 338,-110.5 483,-110.5 483,-90.5 338,-90.5"/>
<text text-anchor="middle" x="410.5" y="-97.5" font-family="FreeSans" font-size="10.00" fill="#000000">Fun4All_G4_fsPHENIX_pi0</text>
</a>
</g>
</g>
<!-- Node2&#45;&gt;Node11 -->
<g id="edge10" class="edge">
<title>Node2&#45;&gt;Node11</title>
<path fill="none" stroke="#191970" d="M276.7129,-377.1647C282.1085,-374.4932 287.0501,-371.0162 291,-366.5 364.0349,-282.9951 251.7144,-200.9815 327,-119.5 330.2286,-116.0057 333.9547,-113.0882 338.0035,-110.6577"/>
<polygon fill="#191970" stroke="#191970" points="275.2767,-373.9697 267.2988,-380.9414 277.883,-380.4664 275.2767,-373.9697"/>
</g>
<!-- Node12 -->
<g id="node12" class="node">
<title>Node12</title>
<g id="a_node12"><a xlink:href="../../d5/d2c/macros_2blob_2master_2macros_2g4simulations_2Fun4All__G4__sPHENIX_8C.html#a6eaaa492d7023ec86c562dc63aa1e5a4" target="_top" xlink:title="Fun4All_G4_sPHENIX">
<polygon fill="none" stroke="#000000" points="350,-51.5 350,-71.5 471,-71.5 471,-51.5 350,-51.5"/>
<text text-anchor="middle" x="410.5" y="-58.5" font-family="FreeSans" font-size="10.00" fill="#000000">Fun4All_G4_sPHENIX</text>
</a>
</g>
</g>
<!-- Node2&#45;&gt;Node12 -->
<g id="edge11" class="edge">
<title>Node2&#45;&gt;Node12</title>
<path fill="none" stroke="#191970" d="M276.5917,-377.342C282.0536,-374.6445 287.0443,-371.1129 291,-366.5 374.3979,-269.2477 240.9802,-175.4412 327,-80.5 333.189,-73.6691 341.2778,-69.0325 349.9833,-65.928"/>
<polygon fill="#191970" stroke="#191970" points="275.0514,-374.188 267.0546,-381.138 277.6401,-380.6917 275.0514,-374.188"/>
</g>
<!-- Node13 -->
<g id="node13" class="node">
<title>Node13</title>
<g id="a_node13"><a xlink:href="../../d3/de2/Fun4All__G4__sPHENIX__AnaGenFit_8C.html#a9bf3f2f72ed69a17e2d0c1121d48013c" target="_top" xlink:title="Fun4All_G4_sPHENIX\l_AnaGenFit">
<polygon fill="none" stroke="#000000" points="350,-.5 350,-32.5 471,-32.5 471,-.5 350,-.5"/>
<text text-anchor="start" x="358" y="-19.5" font-family="FreeSans" font-size="10.00" fill="#000000">Fun4All_G4_sPHENIX</text>
<text text-anchor="middle" x="410.5" y="-7.5" font-family="FreeSans" font-size="10.00" fill="#000000">_AnaGenFit</text>
</a>
</g>
</g>
<!-- Node2&#45;&gt;Node13 -->
<g id="edge12" class="edge">
<title>Node2&#45;&gt;Node13</title>
<path fill="none" stroke="#191970" d="M276.6583,-377.3987C282.1089,-374.6915 287.0787,-371.1422 291,-366.5 384.7792,-255.479 233.9225,-153.1099 327,-41.5 333.0089,-34.2947 341.0049,-29.1131 349.673,-25.3976"/>
<polygon fill="#191970" stroke="#191970" points="275.1202,-374.2441 267.1318,-381.2037 277.7167,-380.7447 275.1202,-374.2441"/>
</g>
<!-- Node14 -->
<g id="node14" class="node">
<title>Node14</title>
<g id="a_node14"><a xlink:href="../../da/dd0/Fun4All__G4__sPHENIX__photonjet_8C.html#a6f18519e216acc05399e562ea57ea77c" target="_top" xlink:title="Fun4All_G4_sPHENIX\l_photonjet">
<polygon fill="none" stroke="#000000" points="350,-477.5 350,-509.5 471,-509.5 471,-477.5 350,-477.5"/>
<text text-anchor="start" x="358" y="-496.5" font-family="FreeSans" font-size="10.00" fill="#000000">Fun4All_G4_sPHENIX</text>
<text text-anchor="middle" x="410.5" y="-484.5" font-family="FreeSans" font-size="10.00" fill="#000000">_photonjet</text>
</a>
</g>
</g>
<!-- Node2&#45;&gt;Node14 -->
<g id="edge13" class="edge">
<title>Node2&#45;&gt;Node14</title>
<path fill="none" stroke="#191970" d="M241.657,-402.99C260.8663,-421.657 293.6909,-450.9133 327,-468.5 334.0923,-472.2446 341.8269,-475.5103 349.6339,-478.3348"/>
<polygon fill="#191970" stroke="#191970" points="243.8654,-400.2512 234.2964,-395.7031 238.9406,-405.2258 243.8654,-400.2512"/>
</g>
<!-- Node15 -->
<g id="node15" class="node">
<title>Node15</title>
<g id="a_node15"><a xlink:href="../../da/d85/Fun4All__G4__sPHENIX__photons_8C.html#a02fbbd59878fe1299f58ed187e7214ba" target="_top" xlink:title="Fun4All_G4_sPHENIX\l_photons">
<polygon fill="none" stroke="#000000" points="350,-426.5 350,-458.5 471,-458.5 471,-426.5 350,-426.5"/>
<text text-anchor="start" x="358" y="-445.5" font-family="FreeSans" font-size="10.00" fill="#000000">Fun4All_G4_sPHENIX</text>
<text text-anchor="middle" x="410.5" y="-433.5" font-family="FreeSans" font-size="10.00" fill="#000000">_photons</text>
</a>
</g>
</g>
<!-- Node2&#45;&gt;Node15 -->
<g id="edge14" class="edge">
<title>Node2&#45;&gt;Node15</title>
<path fill="none" stroke="#191970" d="M265.99,-398.574C284.6268,-404.4154 306.9018,-411.3542 327,-417.5 336.5508,-420.4205 346.727,-423.4968 356.5713,-426.4545"/>
<polygon fill="#191970" stroke="#191970" points="266.9172,-395.1967 256.328,-395.5418 264.8211,-401.8755 266.9172,-395.1967"/>
</g>
<!-- Node16 -->
<g id="node16" class="node">
<title>Node16</title>
<g id="a_node16"><a xlink:href="../../de/d55/Fun4All__G4__sPHENIX__truthphotonjet_8C.html#a48a6f4503eaa1b3793d8ae572aa795b9" target="_top" xlink:title="Fun4All_G4_sPHENIX\l_truthphotonjet">
<polygon fill="none" stroke="#000000" points="350,-375.5 350,-407.5 471,-407.5 471,-375.5 350,-375.5"/>
<text text-anchor="start" x="358" y="-394.5" font-family="FreeSans" font-size="10.00" fill="#000000">Fun4All_G4_sPHENIX</text>
<text text-anchor="middle" x="410.5" y="-382.5" font-family="FreeSans" font-size="10.00" fill="#000000">_truthphotonjet</text>
</a>
</g>
</g>
<!-- Node2&#45;&gt;Node16 -->
<g id="edge15" class="edge">
<title>Node2&#45;&gt;Node16</title>
<path fill="none" stroke="#191970" d="M277.2418,-387.2013C299.8133,-387.9295 326.3054,-388.784 349.6972,-389.5386"/>
<polygon fill="#191970" stroke="#191970" points="277.2798,-383.7008 267.1722,-386.8765 277.0541,-390.6972 277.2798,-383.7008"/>
</g>
<!-- Node17 -->
<g id="node17" class="node">
<title>Node17</title>
<g id="a_node17"><a xlink:href="../../d4/d65/Fun4All__single__particle_8C.html#a8a492b5dbead494bfdddbebde8a49b0e" target="_top" xlink:title="Fun4All_single_particle">
<polygon fill="none" stroke="#000000" points="344.5,-336.5 344.5,-356.5 476.5,-356.5 476.5,-336.5 344.5,-336.5"/>
<text text-anchor="middle" x="410.5" y="-343.5" font-family="FreeSans" font-size="10.00" fill="#000000">Fun4All_single_particle</text>
</a>
</g>
</g>
<!-- Node2&#45;&gt;Node17 -->
<g id="edge16" class="edge">
<title>Node2&#45;&gt;Node17</title>
<path fill="none" stroke="#191970" d="M277.1909,-374.4519C304.1104,-368.8075 336.6169,-361.9916 362.791,-356.5035"/>
<polygon fill="#191970" stroke="#191970" points="276.241,-371.0749 267.1722,-376.5526 277.6776,-377.9259 276.241,-371.0749"/>
</g>
<!-- Node18 -->
<g id="node18" class="node">
<title>Node18</title>
<g id="a_node18"><a xlink:href="../../d0/d99/Jin__BJet_8C.html#a36169bfee2ed7efda633944d12aebad9" target="_top" xlink:title="Jin_BJet">
<polygon fill="none" stroke="#000000" points="383,-297.5 383,-317.5 438,-317.5 438,-297.5 383,-297.5"/>
<text text-anchor="middle" x="410.5" y="-304.5" font-family="FreeSans" font-size="10.00" fill="#000000">Jin_BJet</text>
</a>
</g>
</g>
<!-- Node2&#45;&gt;Node18 -->
<g id="edge17" class="edge">
<title>Node2&#45;&gt;Node18</title>
<path fill="none" stroke="#191970" d="M276.7791,-373.5868C281.7482,-371.5691 286.5762,-369.2235 291,-366.5 311.0876,-354.1333 306.65,-339.4298 327,-327.5 343.9748,-317.5488 365.6444,-312.5424 382.6543,-310.0272"/>
<polygon fill="#191970" stroke="#191970" points="275.3348,-370.387 267.1182,-377.0758 277.7126,-376.9708 275.3348,-370.387"/>
</g>
<!-- Node19 -->
<g id="node19" class="node">
<title>Node19</title>
<g id="a_node19"><a xlink:href="../../dd/db1/Wrapper_8cxx.html#abf1e42281903daa0752c80dd6c879fac" target="_top" xlink:title="Wrapper">
<polygon fill="none" stroke="#000000" points="380.5,-258.5 380.5,-278.5 440.5,-278.5 440.5,-258.5 380.5,-258.5"/>
<text text-anchor="middle" x="410.5" y="-265.5" font-family="FreeSans" font-size="10.00" fill="#000000">Wrapper</text>
</a>
</g>
</g>
<!-- Node2&#45;&gt;Node19 -->
<g id="edge18" class="edge">
<title>Node2&#45;&gt;Node19</title>
<path fill="none" stroke="#191970" d="M276.7791,-375.4124C281.9185,-373.0404 286.7826,-370.1128 291,-366.5 319.9961,-341.6604 297.4741,-312.7074 327,-288.5 341.8705,-276.3081 362.9567,-271.325 380.2185,-269.3812"/>
<polygon fill="#191970" stroke="#191970" points="275.3527,-372.212 267.311,-379.11 277.8991,-378.7324 275.3527,-372.212"/>
</g>
<!-- Node4 -->
<g id="node4" class="node">
<title>Node4</title>
<g id="a_node4"><a xlink:href="../../d3/d7f/Fun_8C.html#af69a3eef3ff244bb51f5740c6ecb5432" target="_top" xlink:title="Fun">
<polygon fill="none" stroke="#000000" points="530,-219.5 530,-239.5 564,-239.5 564,-219.5 530,-219.5"/>
<text text-anchor="middle" x="547" y="-226.5" font-family="FreeSans" font-size="10.00" fill="#000000">Fun</text>
</a>
</g>
</g>
<!-- Node3&#45;&gt;Node4 -->
<g id="edge3" class="edge">
<title>Node3&#45;&gt;Node4</title>
<path fill="none" stroke="#191970" d="M477.6941,-229.5C497.0852,-229.5 516.59,-229.5 529.9452,-229.5"/>
<polygon fill="#191970" stroke="#191970" points="477.5974,-226.0001 467.5974,-229.5 477.5974,-233.0001 477.5974,-226.0001"/>
</g>
<!-- Node20&#45;&gt;Node5 -->
<g id="edge20" class="edge">
<title>Node20&#45;&gt;Node5</title>
<path fill="none" stroke="#191970" d="M276.775,-577.5C296.6148,-577.5 319.5361,-577.5 340.7361,-577.5"/>
<polygon fill="#191970" stroke="#191970" points="276.7063,-574.0001 266.7063,-577.5 276.7062,-581.0001 276.7063,-574.0001"/>
</g>
<!-- Node20&#45;&gt;Node6 -->
<g id="edge21" class="edge">
<title>Node20&#45;&gt;Node6</title>
<path fill="none" stroke="#191970" d="M276.7241,-566.5498C303.6546,-560.9031 336.2731,-554.0637 362.5588,-548.5522"/>
<polygon fill="#191970" stroke="#191970" points="275.7752,-563.1726 266.7063,-568.6503 277.2117,-570.0236 275.7752,-563.1726"/>
</g>
<!-- Node20&#45;&gt;Node7 -->
<g id="edge22" class="edge">
<title>Node20&#45;&gt;Node7</title>
<path fill="none" stroke="#191970" d="M248.108,-593.1983C268.374,-606.1512 298.7077,-624.3175 327,-636.5 334.5052,-639.7317 342.5595,-642.7124 350.5972,-645.4042"/>
<polygon fill="#191970" stroke="#191970" points="249.8445,-590.153 239.5486,-587.6541 246.0389,-596.0282 249.8445,-590.153"/>
</g>
<!-- Node20&#45;&gt;Node8 -->
<g id="edge23" class="edge">
<title>Node20&#45;&gt;Node8</title>
<path fill="none" stroke="#191970" d="M276.7241,-588.4502C303.6546,-594.0969 336.2731,-600.9363 362.5588,-606.4478"/>
<polygon fill="#191970" stroke="#191970" points="277.2117,-584.9764 266.7063,-586.3497 275.7752,-591.8274 277.2117,-584.9764"/>
</g>
<!-- Node24&#45;&gt;Node3 -->
<g id="edge28" class="edge">
<title>Node24&#45;&gt;Node3</title>
<path fill="none" stroke="#191970" d="M286.0305,-331.2632C287.7641,-330.0997 289.427,-328.8475 291,-327.5 319.9961,-302.6604 297.4741,-273.7074 327,-249.5 334.6081,-243.2623 343.8434,-238.9116 353.361,-235.8894"/>
<polygon fill="#191970" stroke="#191970" points="283.8928,-328.4477 276.8625,-336.3739 287.3012,-334.5619 283.8928,-328.4477"/>
</g>
<!-- Node24&#45;&gt;Node5 -->
<g id="edge29" class="edge">
<title>Node24&#45;&gt;Node5</title>
<path fill="none" stroke="#191970" d="M286.6121,-362.2896C288.1708,-363.586 289.6403,-364.9867 291,-366.5 349.0271,-431.0805 266.7983,-495.9418 327,-558.5 331.0205,-562.6779 335.7539,-566.0237 340.8897,-568.6942"/>
<polygon fill="#191970" stroke="#191970" points="288.4256,-359.2919 278.1683,-356.639 284.5325,-365.1094 288.4256,-359.2919"/>
</g>
<!-- Node24&#45;&gt;Node6 -->
<g id="edge30" class="edge">
<title>Node24&#45;&gt;Node6</title>
<path fill="none" stroke="#191970" d="M286.4167,-362.2874C288.0402,-363.5838 289.575,-364.9853 291,-366.5 338.8656,-417.3811 277.4223,-470.2856 327,-519.5 330.5874,-523.0611 334.6948,-526.0115 339.1207,-528.4504"/>
<polygon fill="#191970" stroke="#191970" points="287.9603,-359.1182 277.6592,-356.6405 284.1668,-365.0012 287.9603,-359.1182"/>
</g>
<!-- Node24&#45;&gt;Node7 -->
<g id="edge31" class="edge">
<title>Node24&#45;&gt;Node7</title>
<path fill="none" stroke="#191970" d="M287.1903,-362.6121C288.5426,-363.8181 289.8175,-365.1119 291,-366.5 369.5076,-458.655 248.4353,-544.3936 327,-636.5 330.9281,-641.1052 335.6673,-644.8816 340.8681,-647.9758"/>
<polygon fill="#191970" stroke="#191970" points="288.8928,-359.5298 278.7045,-356.623 284.8563,-365.2488 288.8928,-359.5298"/>
</g>
<!-- Node24&#45;&gt;Node8 -->
<g id="edge32" class="edge">
<title>Node24&#45;&gt;Node8</title>
<path fill="none" stroke="#191970" d="M286.6734,-362.2354C288.2146,-363.5473 289.6637,-364.966 291,-366.5 359.25,-444.8479 256.1105,-521.532 327,-597.5 330.2458,-600.9783 333.9848,-603.8839 338.043,-606.3056"/>
<polygon fill="#191970" stroke="#191970" points="288.5303,-359.2654 278.2956,-356.5264 284.5883,-365.05 288.5303,-359.2654"/>
</g>
<!-- Node24&#45;&gt;Node9 -->
<g id="edge33" class="edge">
<title>Node24&#45;&gt;Node9</title>
<path fill="none" stroke="#191970" d="M286.9842,-330.9915C288.3895,-329.9044 289.7324,-328.7422 291,-327.5 329.8573,-289.4197 287.3291,-247.732 327,-210.5 333.0868,-204.7874 340.5063,-200.617 348.3841,-197.5875"/>
<polygon fill="#191970" stroke="#191970" points="284.94,-328.1426 278.3433,-336.4333 288.6703,-334.0659 284.94,-328.1426"/>
</g>
<!-- Node24&#45;&gt;Node10 -->
<g id="edge34" class="edge">
<title>Node24&#45;&gt;Node10</title>
<path fill="none" stroke="#191970" d="M287.6488,-330.6578C288.8206,-329.6669 289.9405,-328.6155 291,-327.5 340.0024,-275.9066 278.6088,-223.6671 327,-171.5 332.8856,-165.1552 340.2899,-160.3468 348.2447,-156.7052"/>
<polygon fill="#191970" stroke="#191970" points="285.5609,-327.8449 279.2554,-336.3591 289.4942,-333.6354 285.5609,-327.8449"/>
</g>
<!-- Node24&#45;&gt;Node11 -->
<g id="edge35" class="edge">
<title>Node24&#45;&gt;Node11</title>
<path fill="none" stroke="#191970" d="M287.6496,-330.8103C288.8268,-329.7744 289.9468,-328.6723 291,-327.5 353.7003,-257.71 262.4192,-187.5537 327,-119.5 330.3772,-115.9412 334.2712,-112.9842 338.4926,-110.533"/>
<polygon fill="#191970" stroke="#191970" points="285.3561,-328.1424 279.1521,-336.7307 289.3578,-333.8858 285.3561,-328.1424"/>
</g>
<!-- Node24&#45;&gt;Node12 -->
<g id="edge36" class="edge">
<title>Node24&#45;&gt;Node12</title>
<path fill="none" stroke="#191970" d="M287.692,-330.8479C288.8566,-329.8008 289.9625,-328.6862 291,-327.5 364.0349,-243.9951 251.7144,-161.9815 327,-80.5 333.1544,-73.8391 341.1169,-69.2737 349.6762,-66.1834"/>
<polygon fill="#191970" stroke="#191970" points="285.3934,-328.187 279.2575,-336.8242 289.4404,-333.8985 285.3934,-328.187"/>
</g>
<!-- Node24&#45;&gt;Node13 -->
<g id="edge37" class="edge">
<title>Node24&#45;&gt;Node13</title>
<path fill="none" stroke="#191970" d="M287.2832,-331.2712C288.601,-330.1023 289.8447,-328.8473 291,-327.5 374.3979,-230.2477 244.2168,-139.2761 327,-41.5 333.0624,-34.3397 341.086,-29.1813 349.7652,-25.4751"/>
<polygon fill="#191970" stroke="#191970" points="285.1973,-328.4591 279.0215,-337.0678 289.2179,-334.1894 285.1973,-328.4591"/>
</g>
<!-- Node24&#45;&gt;Node14 -->
<g id="edge38" class="edge">
<title>Node24&#45;&gt;Node14</title>
<path fill="none" stroke="#191970" d="M284.9691,-361.6097C287.1067,-363.0907 289.1299,-364.7161 291,-366.5 325.7853,-399.6828 292.1942,-435.3388 327,-468.5 333.464,-474.6585 341.3836,-479.3063 349.7446,-482.8125"/>
<polygon fill="#191970" stroke="#191970" points="286.6522,-358.5401 276.2394,-356.5843 283.1598,-364.6067 286.6522,-358.5401"/>
</g>
<!-- Node24&#45;&gt;Node15 -->
<g id="edge39" class="edge">
<title>Node24&#45;&gt;Node15</title>
<path fill="none" stroke="#191970" d="M281.3445,-360.6612C284.7335,-362.3911 287.9856,-364.3291 291,-366.5 313.514,-382.7141 304.4759,-401.2999 327,-417.5 333.8795,-422.448 341.7448,-426.4275 349.8355,-429.6256"/>
<polygon fill="#191970" stroke="#191970" points="282.6821,-357.4256 272.1234,-356.5518 279.8327,-363.8194 282.6821,-357.4256"/>
</g>
<!-- Node24&#45;&gt;Node16 -->
<g id="edge40" class="edge">
<title>Node24&#45;&gt;Node16</title>
<path fill="none" stroke="#191970" d="M276.0925,-358.9821C298.9561,-364.5136 326.0152,-371.0601 349.8399,-376.8242"/>
<polygon fill="#191970" stroke="#191970" points="276.7847,-355.5486 266.242,-356.5989 275.1386,-362.3523 276.7847,-355.5486"/>
</g>
<!-- Node24&#45;&gt;Node17 -->
<g id="edge41" class="edge">
<title>Node24&#45;&gt;Node17</title>
<path fill="none" stroke="#191970" d="M289.0978,-346.5C306.9946,-346.5 326.4438,-346.5 344.4237,-346.5"/>
<polygon fill="#191970" stroke="#191970" points="289.0494,-343.0001 279.0494,-346.5 289.0493,-350.0001 289.0494,-343.0001"/>
</g>
<!-- Node24&#45;&gt;Node18 -->
<g id="edge42" class="edge">
<title>Node24&#45;&gt;Node18</title>
<path fill="none" stroke="#191970" d="M282.5431,-334.3297C316.0359,-327.307 356.6079,-318.8 382.9581,-313.2749"/>
<polygon fill="#191970" stroke="#191970" points="281.4685,-330.9788 272.3996,-336.4565 282.9051,-337.8298 281.4685,-330.9788"/>
</g>
<!-- Node24&#45;&gt;Node19 -->
<g id="edge43" class="edge">
<title>Node24&#45;&gt;Node19</title>
<path fill="none" stroke="#191970" d="M281.5075,-332.5428C284.8032,-331.0258 287.9949,-329.3501 291,-327.5 311.0876,-315.1333 306.65,-300.4298 327,-288.5 343.2032,-279.0011 363.6842,-274.0077 380.3067,-271.3858"/>
<polygon fill="#191970" stroke="#191970" points="279.9532,-329.3966 272.0125,-336.4107 282.594,-335.8794 279.9532,-329.3966"/>
</g>
<!-- Node25&#45;&gt;Node3 -->
<g id="edge45" class="edge">
<title>Node25&#45;&gt;Node3</title>
<path fill="none" stroke="#191970" d="M281.5075,-293.5428C284.8032,-292.0258 287.9949,-290.3501 291,-288.5 311.0876,-276.1333 306.65,-261.4298 327,-249.5 335.1016,-244.7506 344.2727,-241.1275 353.4961,-238.3641"/>
<polygon fill="#191970" stroke="#191970" points="279.9532,-290.3966 272.0125,-297.4107 282.594,-296.8794 279.9532,-290.3966"/>
</g>
<!-- Node25&#45;&gt;Node5 -->
<g id="edge46" class="edge">
<title>Node25&#45;&gt;Node5</title>
<path fill="none" stroke="#191970" d="M286.6734,-323.2354C288.2146,-324.5473 289.6637,-325.966 291,-327.5 359.25,-405.8479 256.1105,-482.532 327,-558.5 330.9558,-562.7392 335.6442,-566.1277 340.7502,-568.8263"/>
<polygon fill="#191970" stroke="#191970" points="288.5303,-320.2654 278.2956,-317.5264 284.5883,-326.05 288.5303,-320.2654"/>
</g>
<!-- Node25&#45;&gt;Node6 -->
<g id="edge47" class="edge">
<title>Node25&#45;&gt;Node6</title>
<path fill="none" stroke="#191970" d="M286.6121,-323.2896C288.1708,-324.586 289.6403,-325.9867 291,-327.5 349.0271,-392.0805 266.7983,-456.9418 327,-519.5 330.4019,-523.0351 334.3143,-525.9745 338.549,-528.4131"/>
<polygon fill="#191970" stroke="#191970" points="288.4256,-320.2919 278.1683,-317.639 284.5325,-326.1094 288.4256,-320.2919"/>
</g>
<!-- Node25&#45;&gt;Node7 -->
<g id="edge48" class="edge">
<title>Node25&#45;&gt;Node7</title>
<path fill="none" stroke="#191970" d="M287.221,-323.5862C288.5643,-324.7997 289.829,-326.1022 291,-327.5 379.7868,-433.4875 238.1475,-530.5676 327,-636.5 330.8898,-641.1376 335.6027,-644.9363 340.7864,-648.045"/>
<polygon fill="#191970" stroke="#191970" points="288.9481,-320.5192 278.7736,-317.5646 284.8849,-326.2192 288.9481,-320.5192"/>
</g>
<!-- Node25&#45;&gt;Node8 -->
<g id="edge49" class="edge">
<title>Node25&#45;&gt;Node8</title>
<path fill="none" stroke="#191970" d="M287.1903,-323.6121C288.5426,-324.8181 289.8175,-326.1119 291,-327.5 369.5076,-419.655 245.3867,-508.0837 327,-597.5 330.2072,-601.0139 333.9173,-603.9461 337.9545,-606.3873"/>
<polygon fill="#191970" stroke="#191970" points="288.8928,-320.5298 278.7045,-317.623 284.8563,-326.2488 288.8928,-320.5298"/>
</g>
<!-- Node25&#45;&gt;Node9 -->
<g id="edge50" class="edge">
<title>Node25&#45;&gt;Node9</title>
<path fill="none" stroke="#191970" d="M286.0305,-292.2632C287.7641,-291.0997 289.427,-289.8475 291,-288.5 319.9961,-263.6604 297.4741,-234.7074 327,-210.5 333.2248,-205.3964 340.5389,-201.556 348.2057,-198.673"/>
<polygon fill="#191970" stroke="#191970" points="283.8928,-289.4477 276.8625,-297.3739 287.3012,-295.5619 283.8928,-289.4477"/>
</g>
<!-- Node25&#45;&gt;Node10 -->
<g id="edge51" class="edge">
<title>Node25&#45;&gt;Node10</title>
<path fill="none" stroke="#191970" d="M286.9842,-291.9915C288.3895,-290.9044 289.7324,-289.7422 291,-288.5 329.8573,-250.4197 288.594,-210.0354 327,-171.5 333.0021,-165.4777 340.3738,-160.8461 348.2288,-157.2848"/>
<polygon fill="#191970" stroke="#191970" points="284.94,-289.1426 278.3433,-297.4333 288.6703,-295.0659 284.94,-289.1426"/>
</g>
<!-- Node25&#45;&gt;Node11 -->
<g id="edge52" class="edge">
<title>Node25&#45;&gt;Node11</title>
<path fill="none" stroke="#191970" d="M287.6744,-291.682C288.8386,-290.6838 289.95,-289.6244 291,-288.5 343.4141,-232.3712 273.0743,-174.1781 327,-119.5 330.445,-116.0069 334.3894,-113.0986 338.6471,-110.6825"/>
<polygon fill="#191970" stroke="#191970" points="285.5816,-288.8733 279.3195,-297.4195 289.5443,-294.6437 285.5816,-288.8733"/>
</g>
<!-- Node25&#45;&gt;Node12 -->
<g id="edge53" class="edge">
<title>Node25&#45;&gt;Node12</title>
<path fill="none" stroke="#191970" d="M288.1505,-291.3622C289.1454,-290.458 290.0972,-289.5048 291,-288.5 353.7003,-218.71 262.4192,-148.5537 327,-80.5 333.2426,-73.9216 341.2512,-69.3995 349.8298,-66.3272"/>
<polygon fill="#191970" stroke="#191970" points="285.8592,-288.6989 279.7814,-297.3771 289.9444,-294.3831 285.8592,-288.6989"/>
</g>
<!-- Node25&#45;&gt;Node13 -->
<g id="edge54" class="edge">
<title>Node25&#45;&gt;Node13</title>
<path fill="none" stroke="#191970" d="M288.1875,-291.395C289.1712,-290.4809 290.1107,-289.5168 291,-288.5 364.0349,-204.9951 254.493,-125.4637 327,-41.5 333.1319,-34.3992 341.1914,-29.2714 349.8851,-25.5776"/>
<polygon fill="#191970" stroke="#191970" points="285.8894,-288.7395 279.8837,-297.4678 290.0216,-294.3897 285.8894,-288.7395"/>
</g>
<!-- Node25&#45;&gt;Node14 -->
<g id="edge55" class="edge">
<title>Node25&#45;&gt;Node14</title>
<path fill="none" stroke="#191970" d="M285.8526,-322.9137C287.6816,-324.3133 289.407,-325.8383 291,-327.5 335.7592,-374.1875 282.2119,-421.8402 327,-468.5 333.2874,-475.0501 341.2143,-479.9032 349.667,-483.4948"/>
<polygon fill="#191970" stroke="#191970" points="287.5936,-319.8745 277.2577,-317.5464 283.8858,-325.8119 287.5936,-319.8745"/>
</g>
<!-- Node25&#45;&gt;Node15 -->
<g id="edge56" class="edge">
<title>Node25&#45;&gt;Node15</title>
<path fill="none" stroke="#191970" d="M284.745,-322.6189C286.9562,-324.097 289.0546,-325.7194 291,-327.5 322.7788,-356.5879 295.2032,-388.4317 327,-417.5 333.5895,-423.524 341.5768,-428.0993 349.9677,-431.5735"/>
<polygon fill="#191970" stroke="#191970" points="286.182,-319.413 275.7429,-317.6029 282.7748,-325.5278 286.182,-319.413"/>
</g>
<!-- Node25&#45;&gt;Node16 -->
<g id="edge57" class="edge">
<title>Node25&#45;&gt;Node16</title>
<path fill="none" stroke="#191970" d="M279.4628,-321.4126C283.4835,-323.214 287.3774,-325.2351 291,-327.5 311.0015,-340.0054 306.9908,-354.007 327,-366.5 334.0597,-370.9078 341.9401,-374.5756 349.9628,-377.6179"/>
<polygon fill="#191970" stroke="#191970" points="280.5036,-318.0594 269.9189,-317.5967 277.9048,-324.5591 280.5036,-318.0594"/>
</g>
<!-- Node25&#45;&gt;Node17 -->
<g id="edge58" class="edge">
<title>Node25&#45;&gt;Node17</title>
<path fill="none" stroke="#191970" d="M282.4315,-319.6469C308.2404,-325.0585 338.271,-331.3552 362.7627,-336.4906"/>
<polygon fill="#191970" stroke="#191970" points="282.9051,-316.1702 272.3996,-317.5435 281.4685,-323.0212 282.9051,-316.1702"/>
</g>
<!-- Node25&#45;&gt;Node18 -->
<g id="edge59" class="edge">
<title>Node25&#45;&gt;Node18</title>
<path fill="none" stroke="#191970" d="M290.2029,-307.5C322.033,-307.5 358.5442,-307.5 382.9147,-307.5"/>
<polygon fill="#191970" stroke="#191970" points="290.0542,-304.0001 280.0542,-307.5 290.0542,-311.0001 290.0542,-304.0001"/>
</g>
<!-- Node25&#45;&gt;Node19 -->
<g id="edge60" class="edge">
<title>Node25&#45;&gt;Node19</title>
<path fill="none" stroke="#191970" d="M282.2245,-295.3965C314.6461,-288.5984 353.7828,-280.3923 380.2343,-274.846"/>
<polygon fill="#191970" stroke="#191970" points="281.4685,-291.9788 272.3996,-297.4565 282.9051,-298.8298 281.4685,-291.9788"/>
</g>
</g>
</svg>
