<?xml version="1.0" encoding="UTF-8" standalone="no"?>
<!DOCTYPE svg PUBLIC "-//W3C//DTD SVG 1.1//EN"
 "http://www.w3.org/Graphics/SVG/1.1/DTD/svg11.dtd">
<!-- Generated by graphviz version 2.40.1 (20161225.0304)
 -->
<!-- Title: RawTowerDigitizer::TowerType Pages: 1 -->
<svg width="446pt" height="326pt"
 viewBox="0.00 0.00 446.00 326.00" xmlns="http://www.w3.org/2000/svg" xmlns:xlink="http://www.w3.org/1999/xlink">
<g id="graph0" class="graph" transform="scale(1 1) rotate(0) translate(4 322)">
<title>RawTowerDigitizer::TowerType</title>
<!-- Node1 -->
<g id="node1" class="node">
<title>Node1</title>
<polygon fill="#bfbfbf" stroke="#000000" points="0,-142.5 0,-174.5 115,-174.5 115,-142.5 0,-142.5"/>
<text text-anchor="start" x="8" y="-161.5" font-family="FreeSans" font-size="10.00" fill="#000000">RawTowerDigitizer::</text>
<text text-anchor="middle" x="57.5" y="-149.5" font-family="FreeSans" font-size="10.00" fill="#000000">TowerType</text>
</g>
<!-- Node2 -->
<g id="node2" class="node">
<title>Node2</title>
<g id="a_node2"><a xlink:href="../../d6/d5c/macros_2blob_2master_2macros_2g4simulations_2G4__FEMC_8C.html#af68dc9104b4ad645db845e957df9863e" target="_top" xlink:title="FEMC_Towers">
<polygon fill="none" stroke="#000000" points="151,-148.5 151,-168.5 235,-168.5 235,-148.5 151,-148.5"/>
<text text-anchor="middle" x="193" y="-155.5" font-family="FreeSans" font-size="10.00" fill="#000000">FEMC_Towers</text>
</a>
</g>
</g>
<!-- Node1&#45;&gt;Node2 -->
<g id="edge1" class="edge">
<title>Node1&#45;&gt;Node2</title>
<path fill="none" stroke="#191970" d="M125.4975,-158.5C134.1623,-158.5 142.8217,-158.5 150.9088,-158.5"/>
<polygon fill="#191970" stroke="#191970" points="125.3573,-155.0001 115.3572,-158.5 125.3572,-162.0001 125.3573,-155.0001"/>
</g>
<!-- Node3 -->
<g id="node3" class="node">
<title>Node3</title>
<g id="a_node3"><a xlink:href="../../da/d02/Fun4All__G4__EICDetector_8C.html#afbe82cefa1d1fd031d9a8586b7bb68c6" target="_top" xlink:title="Fun4All_G4_EICDetector">
<polygon fill="none" stroke="#000000" points="285,-297.5 285,-317.5 424,-317.5 424,-297.5 285,-297.5"/>
<text text-anchor="middle" x="354.5" y="-304.5" font-family="FreeSans" font-size="10.00" fill="#000000">Fun4All_G4_EICDetector</text>
</a>
</g>
</g>
<!-- Node2&#45;&gt;Node3 -->
<g id="edge2" class="edge">
<title>Node2&#45;&gt;Node3</title>
<path fill="none" stroke="#191970" d="M199.2469,-178.2908C209.4327,-207.1996 232.4467,-260.5637 271,-288.5 275.9359,-292.0766 281.4325,-294.995 287.1837,-297.3741"/>
<polygon fill="#191970" stroke="#191970" points="202.4652,-176.8795 195.9656,-168.5126 195.8289,-179.1065 202.4652,-176.8795"/>
</g>
<!-- Node4 -->
<g id="node4" class="node">
<title>Node4</title>
<g id="a_node4"><a xlink:href="../../dd/d2a/Fun4All__G4__EICDetector__LQ_8C.html#aaa01242fd6e77ca43a9d49a6d46008e4" target="_top" xlink:title="Fun4All_G4_EICDetector_LQ">
<polygon fill="none" stroke="#000000" points="276.5,-258.5 276.5,-278.5 432.5,-278.5 432.5,-258.5 276.5,-258.5"/>
<text text-anchor="middle" x="354.5" y="-265.5" font-family="FreeSans" font-size="10.00" fill="#000000">Fun4All_G4_EICDetector_LQ</text>
</a>
</g>
</g>
<!-- Node2&#45;&gt;Node4 -->
<g id="edge3" class="edge">
<title>Node2&#45;&gt;Node4</title>
<path fill="none" stroke="#191970" d="M203.8527,-177.2006C217.0139,-198.1449 241.1826,-231.5067 271,-249.5 276.9826,-253.1102 283.583,-256.0352 290.3727,-258.405"/>
<polygon fill="#191970" stroke="#191970" points="206.782,-175.2813 198.5994,-168.5511 200.7991,-178.9151 206.782,-175.2813"/>
</g>
<!-- Node5 -->
<g id="node5" class="node">
<title>Node5</title>
<g id="a_node5"><a xlink:href="../../d4/df5/Fun4All__G4__EICDetector__LQ__reference_8C.html#a2feefc472f17f90b3cbe74897d049f75" target="_top" xlink:title="Fun4All_G4_EICDetector\l_LQ_reference">
<polygon fill="none" stroke="#000000" points="285,-207.5 285,-239.5 424,-239.5 424,-207.5 285,-207.5"/>
<text text-anchor="start" x="293" y="-226.5" font-family="FreeSans" font-size="10.00" fill="#000000">Fun4All_G4_EICDetector</text>
<text text-anchor="middle" x="354.5" y="-214.5" font-family="FreeSans" font-size="10.00" fill="#000000">_LQ_reference</text>
</a>
</g>
</g>
<!-- Node2&#45;&gt;Node5 -->
<g id="edge4" class="edge">
<title>Node2&#45;&gt;Node5</title>
<path fill="none" stroke="#191970" d="M219.6175,-173.6875C234.4355,-181.7473 253.3949,-191.4197 271,-198.5 278.8621,-201.6619 287.2801,-204.6368 295.6347,-207.3552"/>
<polygon fill="#191970" stroke="#191970" points="220.9792,-170.4412 210.5338,-168.6674 217.5932,-176.5678 220.9792,-170.4412"/>
</g>
<!-- Node6 -->
<g id="node6" class="node">
<title>Node6</title>
<g id="a_node6"><a xlink:href="../../d3/d51/Fun4All__G4__EICDetector__RICH_8C.html#a5739502b0a7a1ba782c01069f77e933f" target="_top" xlink:title="Fun4All_G4_EICDetector_RICH">
<polygon fill="none" stroke="#000000" points="271,-168.5 271,-188.5 438,-188.5 438,-168.5 271,-168.5"/>
<text text-anchor="middle" x="354.5" y="-175.5" font-family="FreeSans" font-size="10.00" fill="#000000">Fun4All_G4_EICDetector_RICH</text>
</a>
</g>
</g>
<!-- Node2&#45;&gt;Node6 -->
<g id="edge5" class="edge">
<title>Node2&#45;&gt;Node6</title>
<path fill="none" stroke="#191970" d="M245.0458,-164.9453C254.1721,-166.0755 263.8607,-167.2753 273.5532,-168.4756"/>
<polygon fill="#191970" stroke="#191970" points="245.365,-161.4582 235.0106,-163.7026 244.5046,-168.4051 245.365,-161.4582"/>
</g>
<!-- Node7 -->
<g id="node7" class="node">
<title>Node7</title>
<g id="a_node7"><a xlink:href="../../d7/d9e/Fun4All__G4__fsPHENIX_8C.html#af48911d394d2412e817583700f2bbee2" target="_top" xlink:title="Fun4All_G4_fsPHENIX">
<polygon fill="none" stroke="#000000" points="292.5,-129.5 292.5,-149.5 416.5,-149.5 416.5,-129.5 292.5,-129.5"/>
<text text-anchor="middle" x="354.5" y="-136.5" font-family="FreeSans" font-size="10.00" fill="#000000">Fun4All_G4_fsPHENIX</text>
</a>
</g>
</g>
<!-- Node2&#45;&gt;Node7 -->
<g id="edge6" class="edge">
<title>Node2&#45;&gt;Node7</title>
<path fill="none" stroke="#191970" d="M245.1455,-152.3652C260.1796,-150.5965 276.7329,-148.6491 292.3116,-146.8163"/>
<polygon fill="#191970" stroke="#191970" points="244.5332,-148.913 235.0106,-153.5576 245.3511,-155.8651 244.5332,-148.913"/>
</g>
<!-- Node8 -->
<g id="node8" class="node">
<title>Node8</title>
<g id="a_node8"><a xlink:href="../../da/d2f/Fun4All__G4__fsPHENIX__FastSim_8C.html#a66fb850cae5fcaadda23b74a25ce4c9c" target="_top" xlink:title="Fun4All_G4_fsPHENIX\l_FastSim">
<polygon fill="none" stroke="#000000" points="292.5,-78.5 292.5,-110.5 416.5,-110.5 416.5,-78.5 292.5,-78.5"/>
<text text-anchor="start" x="300.5" y="-97.5" font-family="FreeSans" font-size="10.00" fill="#000000">Fun4All_G4_fsPHENIX</text>
<text text-anchor="middle" x="354.5" y="-85.5" font-family="FreeSans" font-size="10.00" fill="#000000">_FastSim</text>
</a>
</g>
</g>
<!-- Node2&#45;&gt;Node8 -->
<g id="edge7" class="edge">
<title>Node2&#45;&gt;Node8</title>
<path fill="none" stroke="#191970" d="M220.6172,-143.776C235.3333,-136.2566 253.8858,-127.2881 271,-120.5 279.8915,-116.9734 289.4636,-113.6079 298.8429,-110.5378"/>
<polygon fill="#191970" stroke="#191970" points="218.8238,-140.7632 211.5543,-148.4707 222.0436,-146.9788 218.8238,-140.7632"/>
</g>
<!-- Node9 -->
<g id="node9" class="node">
<title>Node9</title>
<g id="a_node9"><a xlink:href="../../d0/da6/Fun4All__G4__fsPHENIX__pi0_8C.html#a023d91d47b678e5d7f1751834aa517c6" target="_top" xlink:title="Fun4All_G4_fsPHENIX_pi0">
<polygon fill="none" stroke="#000000" points="282,-39.5 282,-59.5 427,-59.5 427,-39.5 282,-39.5"/>
<text text-anchor="middle" x="354.5" y="-46.5" font-family="FreeSans" font-size="10.00" fill="#000000">Fun4All_G4_fsPHENIX_pi0</text>
</a>
</g>
</g>
<!-- Node2&#45;&gt;Node9 -->
<g id="edge8" class="edge">
<title>Node2&#45;&gt;Node9</title>
<path fill="none" stroke="#191970" d="M204.1965,-139.9544C217.5283,-119.5096 241.7143,-87.1796 271,-69.5 277.7636,-65.4169 285.3055,-62.1672 293.0138,-59.5808"/>
<polygon fill="#191970" stroke="#191970" points="201.2333,-138.0918 198.8555,-148.4164 207.1528,-141.8281 201.2333,-138.0918"/>
</g>
<!-- Node10 -->
<g id="node10" class="node">
<title>Node10</title>
<g id="a_node10"><a xlink:href="../../d5/d2c/macros_2blob_2master_2macros_2g4simulations_2Fun4All__G4__sPHENIX_8C.html#a6eaaa492d7023ec86c562dc63aa1e5a4" target="_top" xlink:title="Fun4All_G4_sPHENIX">
<polygon fill="none" stroke="#000000" points="294,-.5 294,-20.5 415,-20.5 415,-.5 294,-.5"/>
<text text-anchor="middle" x="354.5" y="-7.5" font-family="FreeSans" font-size="10.00" fill="#000000">Fun4All_G4_sPHENIX</text>
</a>
</g>
</g>
<!-- Node2&#45;&gt;Node10 -->
<g id="edge9" class="edge">
<title>Node2&#45;&gt;Node10</title>
<path fill="none" stroke="#191970" d="M199.5285,-138.646C209.9525,-110.1533 233.1306,-58.0707 271,-30.5 277.7486,-25.5867 285.5403,-21.866 293.5958,-19.0511"/>
<polygon fill="#191970" stroke="#191970" points="196.1461,-137.716 196.1538,-148.3108 202.7548,-140.0236 196.1461,-137.716"/>
</g>
</g>
</svg>
