<?xml version="1.0" encoding="UTF-8" standalone="no"?>
<!DOCTYPE svg PUBLIC "-//W3C//DTD SVG 1.1//EN"
 "http://www.w3.org/Graphics/SVG/1.1/DTD/svg11.dtd">
<!-- Generated by graphviz version 2.40.1 (20161225.0304)
 -->
<!-- Title: RawTowerDigitizer::Detector Pages: 1 -->
<svg width="565pt" height="686pt"
 viewBox="0.00 0.00 565.00 686.00" xmlns="http://www.w3.org/2000/svg" xmlns:xlink="http://www.w3.org/1999/xlink">
<g id="graph0" class="graph" transform="scale(1 1) rotate(0) translate(4 682)">
<title>RawTowerDigitizer::Detector</title>
<!-- Node1 -->
<g id="node1" class="node">
<title>Node1</title>
<polygon fill="#bfbfbf" stroke="#000000" points="0,-354.5 0,-386.5 115,-386.5 115,-354.5 0,-354.5"/>
<text text-anchor="start" x="8" y="-373.5" font-family="FreeSans" font-size="10.00" fill="#000000">RawTowerDigitizer::</text>
<text text-anchor="middle" x="57.5" y="-361.5" font-family="FreeSans" font-size="10.00" fill="#000000">Detector</text>
</g>
<!-- Node2 -->
<g id="node2" class="node">
<title>Node2</title>
<g id="a_node2"><a xlink:href="../../d8/d4c/G4__CEmc__EIC_8C.html#a46a52c955e8d2078c58d4d7db471cc43" target="_top" xlink:title="CEMC_Towers">
<polygon fill="none" stroke="#000000" points="175,-399.5 175,-419.5 260,-419.5 260,-399.5 175,-399.5"/>
<text text-anchor="middle" x="217.5" y="-406.5" font-family="FreeSans" font-size="10.00" fill="#000000">CEMC_Towers</text>
</a>
</g>
</g>
<!-- Node1&#45;&gt;Node2 -->
<g id="edge1" class="edge">
<title>Node1&#45;&gt;Node2</title>
<path fill="none" stroke="#191970" d="M125.3614,-387.0412C142.7078,-391.2694 160.8337,-395.6876 176.374,-399.4755"/>
<polygon fill="#191970" stroke="#191970" points="125.8081,-383.5477 115.2637,-384.5799 124.1503,-390.3486 125.8081,-383.5477"/>
</g>
<!-- Node20 -->
<g id="node20" class="node">
<title>Node20</title>
<g id="a_node20"><a xlink:href="../../d1/d81/macros_2blob_2master_2macros_2g4simulations_2G4__EEMC_8C.html#a05b9b10b79cc47702702e091692fd060" target="_top" xlink:title="EEMC_Towers">
<polygon fill="none" stroke="#000000" points="175.5,-567.5 175.5,-587.5 259.5,-587.5 259.5,-567.5 175.5,-567.5"/>
<text text-anchor="middle" x="217.5" y="-574.5" font-family="FreeSans" font-size="10.00" fill="#000000">EEMC_Towers</text>
</a>
</g>
</g>
<!-- Node1&#45;&gt;Node20 -->
<g id="edge19" class="edge">
<title>Node1&#45;&gt;Node20</title>
<path fill="none" stroke="#191970" d="M63.2816,-396.5353C73.6763,-437.2083 99.4177,-515.5976 151,-558.5 157.9236,-564.2585 166.4981,-568.2737 175.162,-571.0727"/>
<polygon fill="#191970" stroke="#191970" points="66.6252,-395.473 60.8551,-386.5873 59.8245,-397.1319 66.6252,-395.473"/>
</g>
<!-- Node21 -->
<g id="node21" class="node">
<title>Node21</title>
<g id="a_node21"><a xlink:href="../../d6/d5c/macros_2blob_2master_2macros_2g4simulations_2G4__FEMC_8C.html#af68dc9104b4ad645db845e957df9863e" target="_top" xlink:title="FEMC_Towers">
<polygon fill="none" stroke="#000000" points="175.5,-489.5 175.5,-509.5 259.5,-509.5 259.5,-489.5 175.5,-489.5"/>
<text text-anchor="middle" x="217.5" y="-496.5" font-family="FreeSans" font-size="10.00" fill="#000000">FEMC_Towers</text>
</a>
</g>
</g>
<!-- Node1&#45;&gt;Node21 -->
<g id="edge24" class="edge">
<title>Node1&#45;&gt;Node21</title>
<path fill="none" stroke="#191970" d="M85.3771,-392.9759C120.3878,-421.2033 178.9837,-468.4463 204.7201,-489.1962"/>
<polygon fill="#191970" stroke="#191970" points="87.4223,-390.129 77.4406,-386.5771 83.0287,-395.5784 87.4223,-390.129"/>
</g>
<!-- Node22 -->
<g id="node22" class="node">
<title>Node22</title>
<g id="a_node22"><a xlink:href="../../d9/d50/macros_2blob_2master_2macros_2g4simulations_2G4__FHCAL_8C.html#a5d0a471f02bc3f2081650a15db56784e" target="_top" xlink:title="FHCAL_Towers">
<polygon fill="none" stroke="#000000" points="173,-528.5 173,-548.5 262,-548.5 262,-528.5 173,-528.5"/>
<text text-anchor="middle" x="217.5" y="-535.5" font-family="FreeSans" font-size="10.00" fill="#000000">FHCAL_Towers</text>
</a>
</g>
</g>
<!-- Node1&#45;&gt;Node22 -->
<g id="edge33" class="edge">
<title>Node1&#45;&gt;Node22</title>
<path fill="none" stroke="#191970" d="M66.8469,-396.223C80.2985,-429.6194 108.2948,-487.4148 151,-519.5 157.4317,-524.3323 165.0519,-527.9366 172.7979,-530.6247"/>
<polygon fill="#191970" stroke="#191970" points="70.0281,-394.7467 63.139,-386.6974 63.5049,-397.2859 70.0281,-394.7467"/>
</g>
<!-- Node23 -->
<g id="node23" class="node">
<title>Node23</title>
<g id="a_node23"><a xlink:href="../../dc/d8e/Fun4All__G4__Prototype2_8C.html#a6b8f092c4f51be2938dd09c810ba6226" target="_top" xlink:title="Fun4All_G4_Prototype2">
<polygon fill="none" stroke="#000000" points="151,-282.5 151,-302.5 284,-302.5 284,-282.5 151,-282.5"/>
<text text-anchor="middle" x="217.5" y="-289.5" font-family="FreeSans" font-size="10.00" fill="#000000">Fun4All_G4_Prototype2</text>
</a>
</g>
</g>
<!-- Node1&#45;&gt;Node23 -->
<g id="edge41" class="edge">
<title>Node1&#45;&gt;Node23</title>
<path fill="none" stroke="#191970" d="M88.3588,-348.4844C106.055,-336.6073 129.054,-322.3977 151,-312.5 159.4623,-308.6835 168.8502,-305.3535 177.8413,-302.5625"/>
<polygon fill="#191970" stroke="#191970" points="85.9084,-345.9193 79.6219,-354.4475 89.8545,-351.701 85.9084,-345.9193"/>
</g>
<!-- Node24 -->
<g id="node24" class="node">
<title>Node24</title>
<g id="a_node24"><a xlink:href="../../d7/d40/Fun4All__G4__Prototype3_8C.html#a1201361263017b08a070777a0b90b27c" target="_top" xlink:title="Fun4All_G4_Prototype3">
<polygon fill="none" stroke="#000000" points="151,-243.5 151,-263.5 284,-263.5 284,-243.5 151,-243.5"/>
<text text-anchor="middle" x="217.5" y="-250.5" font-family="FreeSans" font-size="10.00" fill="#000000">Fun4All_G4_Prototype3</text>
</a>
</g>
</g>
<!-- Node1&#45;&gt;Node24 -->
<g id="edge42" class="edge">
<title>Node1&#45;&gt;Node24</title>
<path fill="none" stroke="#191970" d="M75.1027,-346.0968C92.1706,-324.115 119.9786,-292.4323 151,-273.5 157.5862,-269.4805 165.0355,-266.2207 172.5048,-263.5921"/>
<polygon fill="#191970" stroke="#191970" points="72.1463,-344.2029 68.8911,-354.2853 77.7233,-348.4335 72.1463,-344.2029"/>
</g>
<!-- Node25 -->
<g id="node25" class="node">
<title>Node25</title>
<g id="a_node25"><a xlink:href="../../d4/d58/Fun4All__G4__Prototype4_8C.html#acac517f0728af658cbf99c7c9687c908" target="_top" xlink:title="Fun4All_G4_Prototype4">
<polygon fill="none" stroke="#000000" points="151,-204.5 151,-224.5 284,-224.5 284,-204.5 151,-204.5"/>
<text text-anchor="middle" x="217.5" y="-211.5" font-family="FreeSans" font-size="10.00" fill="#000000">Fun4All_G4_Prototype4</text>
</a>
</g>
</g>
<!-- Node1&#45;&gt;Node25 -->
<g id="edge43" class="edge">
<title>Node1&#45;&gt;Node25</title>
<path fill="none" stroke="#191970" d="M68.3747,-345.267C82.8498,-314.6238 111.316,-263.4541 151,-234.5 156.5514,-230.4496 162.9274,-227.2114 169.4857,-224.6245"/>
<polygon fill="#191970" stroke="#191970" points="65.155,-343.8917 64.1702,-354.4407 71.5185,-346.8083 65.155,-343.8917"/>
</g>
<!-- Node26 -->
<g id="node26" class="node">
<title>Node26</title>
<g id="a_node26"><a xlink:href="../../d7/dc0/G4__HcalIn__EIC_8C.html#a4552e4b1c6ffcc08cba2296b2c45f950" target="_top" xlink:title="HCALInner_Towers">
<polygon fill="none" stroke="#000000" points="163,-360.5 163,-380.5 272,-380.5 272,-360.5 163,-360.5"/>
<text text-anchor="middle" x="217.5" y="-367.5" font-family="FreeSans" font-size="10.00" fill="#000000">HCALInner_Towers</text>
</a>
</g>
</g>
<!-- Node1&#45;&gt;Node26 -->
<g id="edge44" class="edge">
<title>Node1&#45;&gt;Node26</title>
<path fill="none" stroke="#191970" d="M125.5724,-370.5C137.9866,-370.5 150.7928,-370.5 162.7588,-370.5"/>
<polygon fill="#191970" stroke="#191970" points="125.2637,-367.0001 115.2637,-370.5 125.2636,-374.0001 125.2637,-367.0001"/>
</g>
<!-- Node27 -->
<g id="node27" class="node">
<title>Node27</title>
<g id="a_node27"><a xlink:href="../../de/d3d/macros_2blob_2master_2macros_2g4simulations_2G4__HcalOut__ref_8C.html#a4fd9d72ad1e04ebc46273f3b9fff91d6" target="_top" xlink:title="HCALOuter_Towers">
<polygon fill="none" stroke="#000000" points="162,-321.5 162,-341.5 273,-341.5 273,-321.5 162,-321.5"/>
<text text-anchor="middle" x="217.5" y="-328.5" font-family="FreeSans" font-size="10.00" fill="#000000">HCALOuter_Towers</text>
</a>
</g>
</g>
<!-- Node1&#45;&gt;Node27 -->
<g id="edge61" class="edge">
<title>Node1&#45;&gt;Node27</title>
<path fill="none" stroke="#191970" d="M125.3614,-353.9588C142.7078,-349.7306 160.8337,-345.3124 176.374,-341.5245"/>
<polygon fill="#191970" stroke="#191970" points="124.1503,-350.6514 115.2637,-356.4201 125.8081,-357.4523 124.1503,-350.6514"/>
</g>
<!-- Node3 -->
<g id="node3" class="node">
<title>Node3</title>
<g id="a_node3"><a xlink:href="../../d3/d7f/Fun_8C.html#af0d3c8a78765149fef9b2beeecfc6279" target="_top" xlink:title="ConfigureDetectors">
<polygon fill="none" stroke="#000000" points="346.5,-51.5 346.5,-71.5 460.5,-71.5 460.5,-51.5 346.5,-51.5"/>
<text text-anchor="middle" x="403.5" y="-58.5" font-family="FreeSans" font-size="10.00" fill="#000000">ConfigureDetectors</text>
</a>
</g>
</g>
<!-- Node2&#45;&gt;Node3 -->
<g id="edge2" class="edge">
<title>Node2&#45;&gt;Node3</title>
<path fill="none" stroke="#191970" d="M269.633,-401.3772C275.0878,-398.6737 280.0656,-395.1311 284,-390.5 373.5185,-285.1298 228.2262,-184.9119 320,-81.5 326.9261,-73.6955 336.3077,-68.6638 346.284,-65.4719"/>
<polygon fill="#191970" stroke="#191970" points="268.094,-398.2228 260.1024,-405.1788 270.6875,-404.7247 268.094,-398.2228"/>
</g>
<!-- Node5 -->
<g id="node5" class="node">
<title>Node5</title>
<g id="a_node5"><a xlink:href="../../da/d02/Fun4All__G4__EICDetector_8C.html#afbe82cefa1d1fd031d9a8586b7bb68c6" target="_top" xlink:title="Fun4All_G4_EICDetector">
<polygon fill="none" stroke="#000000" points="334,-567.5 334,-587.5 473,-587.5 473,-567.5 334,-567.5"/>
<text text-anchor="middle" x="403.5" y="-574.5" font-family="FreeSans" font-size="10.00" fill="#000000">Fun4All_G4_EICDetector</text>
</a>
</g>
</g>
<!-- Node2&#45;&gt;Node5 -->
<g id="edge4" class="edge">
<title>Node2&#45;&gt;Node5</title>
<path fill="none" stroke="#191970" d="M236.4142,-426.4769C250.7722,-440.0715 270.3119,-460.1686 284,-480.5 305.323,-512.1719 290.3371,-534.4606 320,-558.5 324.3891,-562.057 329.315,-564.9767 334.5217,-567.3699"/>
<polygon fill="#191970" stroke="#191970" points="238.7513,-423.8708 229.0408,-419.6332 233.9892,-429.0014 238.7513,-423.8708"/>
</g>
<!-- Node6 -->
<g id="node6" class="node">
<title>Node6</title>
<g id="a_node6"><a xlink:href="../../dd/d2a/Fun4All__G4__EICDetector__LQ_8C.html#aaa01242fd6e77ca43a9d49a6d46008e4" target="_top" xlink:title="Fun4All_G4_EICDetector_LQ">
<polygon fill="none" stroke="#000000" points="325.5,-528.5 325.5,-548.5 481.5,-548.5 481.5,-528.5 325.5,-528.5"/>
<text text-anchor="middle" x="403.5" y="-535.5" font-family="FreeSans" font-size="10.00" fill="#000000">Fun4All_G4_EICDetector_LQ</text>
</a>
</g>
</g>
<!-- Node2&#45;&gt;Node6 -->
<g id="edge5" class="edge">
<title>Node2&#45;&gt;Node6</title>
<path fill="none" stroke="#191970" d="M234.1724,-427.2289C247.6441,-441.5716 267.0802,-462.3032 284,-480.5 300.0628,-497.7751 299.5826,-507.6859 320,-519.5 326.3054,-523.1485 333.2561,-526.0964 340.3742,-528.4782"/>
<polygon fill="#191970" stroke="#191970" points="236.3924,-424.4804 226.9937,-419.5899 231.2913,-429.274 236.3924,-424.4804"/>
</g>
<!-- Node7 -->
<g id="node7" class="node">
<title>Node7</title>
<g id="a_node7"><a xlink:href="../../d4/df5/Fun4All__G4__EICDetector__LQ__reference_8C.html#a2feefc472f17f90b3cbe74897d049f75" target="_top" xlink:title="Fun4All_G4_EICDetector\l_LQ_reference">
<polygon fill="none" stroke="#000000" points="334,-645.5 334,-677.5 473,-677.5 473,-645.5 334,-645.5"/>
<text text-anchor="start" x="342" y="-664.5" font-family="FreeSans" font-size="10.00" fill="#000000">Fun4All_G4_EICDetector</text>
<text text-anchor="middle" x="403.5" y="-652.5" font-family="FreeSans" font-size="10.00" fill="#000000">_LQ_reference</text>
</a>
</g>
</g>
<!-- Node2&#45;&gt;Node7 -->
<g id="edge6" class="edge">
<title>Node2&#45;&gt;Node7</title>
<path fill="none" stroke="#191970" d="M238.1547,-426.21C253.1021,-439.4112 272.6047,-459.1227 284,-480.5 317.4714,-543.2916 271.3238,-584.5988 320,-636.5 324.0372,-640.8047 328.7822,-644.378 333.9257,-647.3428"/>
<polygon fill="#191970" stroke="#191970" points="240.2739,-423.417 230.3996,-419.5766 235.7238,-428.7365 240.2739,-423.417"/>
</g>
<!-- Node8 -->
<g id="node8" class="node">
<title>Node8</title>
<g id="a_node8"><a xlink:href="../../d3/d51/Fun4All__G4__EICDetector__RICH_8C.html#a5739502b0a7a1ba782c01069f77e933f" target="_top" xlink:title="Fun4All_G4_EICDetector_RICH">
<polygon fill="none" stroke="#000000" points="320,-606.5 320,-626.5 487,-626.5 487,-606.5 320,-606.5"/>
<text text-anchor="middle" x="403.5" y="-613.5" font-family="FreeSans" font-size="10.00" fill="#000000">Fun4All_G4_EICDetector_RICH</text>
</a>
</g>
</g>
<!-- Node2&#45;&gt;Node8 -->
<g id="edge7" class="edge">
<title>Node2&#45;&gt;Node8</title>
<path fill="none" stroke="#191970" d="M237.4553,-426.2204C252.2061,-439.55 271.7743,-459.4216 284,-480.5 311.2967,-527.5626 280.1183,-560.4939 320,-597.5 323.8144,-601.0393 328.1465,-603.966 332.7836,-606.3814"/>
<polygon fill="#191970" stroke="#191970" points="239.6552,-423.4942 229.8332,-419.5219 235.0343,-428.7523 239.6552,-423.4942"/>
</g>
<!-- Node9 -->
<g id="node9" class="node">
<title>Node9</title>
<g id="a_node9"><a xlink:href="../../d7/d9e/Fun4All__G4__fsPHENIX_8C.html#af48911d394d2412e817583700f2bbee2" target="_top" xlink:title="Fun4All_G4_fsPHENIX">
<polygon fill="none" stroke="#000000" points="341.5,-489.5 341.5,-509.5 465.5,-509.5 465.5,-489.5 341.5,-489.5"/>
<text text-anchor="middle" x="403.5" y="-496.5" font-family="FreeSans" font-size="10.00" fill="#000000">Fun4All_G4_fsPHENIX</text>
</a>
</g>
</g>
<!-- Node2&#45;&gt;Node9 -->
<g id="edge8" class="edge">
<title>Node2&#45;&gt;Node9</title>
<path fill="none" stroke="#191970" d="M236.7762,-426.2563C256.4235,-442.4762 288.4179,-466.5941 320,-480.5 328.1639,-484.0947 337.0878,-487.048 345.9669,-489.4632"/>
<polygon fill="#191970" stroke="#191970" points="238.8111,-423.3943 228.9064,-419.6331 234.3038,-428.7501 238.8111,-423.3943"/>
</g>
<!-- Node10 -->
<g id="node10" class="node">
<title>Node10</title>
<g id="a_node10"><a xlink:href="../../da/d2f/Fun4All__G4__fsPHENIX__FastSim_8C.html#a66fb850cae5fcaadda23b74a25ce4c9c" target="_top" xlink:title="Fun4All_G4_fsPHENIX\l_FastSim">
<polygon fill="none" stroke="#000000" points="341.5,-438.5 341.5,-470.5 465.5,-470.5 465.5,-438.5 341.5,-438.5"/>
<text text-anchor="start" x="349.5" y="-457.5" font-family="FreeSans" font-size="10.00" fill="#000000">Fun4All_G4_fsPHENIX</text>
<text text-anchor="middle" x="403.5" y="-445.5" font-family="FreeSans" font-size="10.00" fill="#000000">_FastSim</text>
</a>
</g>
</g>
<!-- Node2&#45;&gt;Node10 -->
<g id="edge9" class="edge">
<title>Node2&#45;&gt;Node10</title>
<path fill="none" stroke="#191970" d="M269.2183,-422.0125C291.5985,-427.4271 317.9803,-433.8098 341.4092,-439.478"/>
<polygon fill="#191970" stroke="#191970" points="269.7847,-418.5486 259.242,-419.5989 268.1386,-425.3523 269.7847,-418.5486"/>
</g>
<!-- Node11 -->
<g id="node11" class="node">
<title>Node11</title>
<g id="a_node11"><a xlink:href="../../d0/da6/Fun4All__G4__fsPHENIX__pi0_8C.html#a023d91d47b678e5d7f1751834aa517c6" target="_top" xlink:title="Fun4All_G4_fsPHENIX_pi0">
<polygon fill="none" stroke="#000000" points="331,-399.5 331,-419.5 476,-419.5 476,-399.5 331,-399.5"/>
<text text-anchor="middle" x="403.5" y="-406.5" font-family="FreeSans" font-size="10.00" fill="#000000">Fun4All_G4_fsPHENIX_pi0</text>
</a>
</g>
</g>
<!-- Node2&#45;&gt;Node11 -->
<g id="edge10" class="edge">
<title>Node2&#45;&gt;Node11</title>
<path fill="none" stroke="#191970" d="M270.306,-409.5C289.095,-409.5 310.5943,-409.5 330.7582,-409.5"/>
<polygon fill="#191970" stroke="#191970" points="270.1722,-406.0001 260.1722,-409.5 270.1721,-413.0001 270.1722,-406.0001"/>
</g>
<!-- Node12 -->
<g id="node12" class="node">
<title>Node12</title>
<g id="a_node12"><a xlink:href="../../d5/d2c/macros_2blob_2master_2macros_2g4simulations_2Fun4All__G4__sPHENIX_8C.html#a6eaaa492d7023ec86c562dc63aa1e5a4" target="_top" xlink:title="Fun4All_G4_sPHENIX">
<polygon fill="none" stroke="#000000" points="343,-360.5 343,-380.5 464,-380.5 464,-360.5 343,-360.5"/>
<text text-anchor="middle" x="403.5" y="-367.5" font-family="FreeSans" font-size="10.00" fill="#000000">Fun4All_G4_sPHENIX</text>
</a>
</g>
</g>
<!-- Node2&#45;&gt;Node12 -->
<g id="edge11" class="edge">
<title>Node2&#45;&gt;Node12</title>
<path fill="none" stroke="#191970" d="M270.1909,-398.4519C297.1104,-392.8075 329.6169,-385.9916 355.791,-380.5035"/>
<polygon fill="#191970" stroke="#191970" points="269.241,-395.0749 260.1722,-400.5526 270.6776,-401.9259 269.241,-395.0749"/>
</g>
<!-- Node13 -->
<g id="node13" class="node">
<title>Node13</title>
<g id="a_node13"><a xlink:href="../../d3/de2/Fun4All__G4__sPHENIX__AnaGenFit_8C.html#a9bf3f2f72ed69a17e2d0c1121d48013c" target="_top" xlink:title="Fun4All_G4_sPHENIX\l_AnaGenFit">
<polygon fill="none" stroke="#000000" points="343,-.5 343,-32.5 464,-32.5 464,-.5 343,-.5"/>
<text text-anchor="start" x="351" y="-19.5" font-family="FreeSans" font-size="10.00" fill="#000000">Fun4All_G4_sPHENIX</text>
<text text-anchor="middle" x="403.5" y="-7.5" font-family="FreeSans" font-size="10.00" fill="#000000">_AnaGenFit</text>
</a>
</g>
</g>
<!-- Node2&#45;&gt;Node13 -->
<g id="edge12" class="edge">
<title>Node2&#45;&gt;Node13</title>
<path fill="none" stroke="#191970" d="M269.6908,-401.426C275.1359,-398.7143 280.0955,-395.1564 284,-390.5 383.9076,-271.3519 221.503,-162.8168 320,-42.5 325.963,-35.216 333.9353,-29.9352 342.594,-26.1145"/>
<polygon fill="#191970" stroke="#191970" points="268.1538,-398.2711 260.1695,-405.2354 270.7541,-404.7703 268.1538,-398.2711"/>
</g>
<!-- Node14 -->
<g id="node14" class="node">
<title>Node14</title>
<g id="a_node14"><a xlink:href="../../da/dd0/Fun4All__G4__sPHENIX__photonjet_8C.html#a6f18519e216acc05399e562ea57ea77c" target="_top" xlink:title="Fun4All_G4_sPHENIX\l_photonjet">
<polygon fill="none" stroke="#000000" points="343,-309.5 343,-341.5 464,-341.5 464,-309.5 343,-309.5"/>
<text text-anchor="start" x="351" y="-328.5" font-family="FreeSans" font-size="10.00" fill="#000000">Fun4All_G4_sPHENIX</text>
<text text-anchor="middle" x="403.5" y="-316.5" font-family="FreeSans" font-size="10.00" fill="#000000">_photonjet</text>
</a>
</g>
</g>
<!-- Node2&#45;&gt;Node14 -->
<g id="edge13" class="edge">
<title>Node2&#45;&gt;Node14</title>
<path fill="none" stroke="#191970" d="M269.7791,-397.5868C274.7482,-395.5691 279.5762,-393.2235 284,-390.5 304.0876,-378.1333 300.0595,-364.1024 320,-351.5 327.059,-347.0387 334.9391,-343.2942 342.9615,-340.1645"/>
<polygon fill="#191970" stroke="#191970" points="268.3348,-394.387 260.1182,-401.0758 270.7126,-400.9708 268.3348,-394.387"/>
</g>
<!-- Node15 -->
<g id="node15" class="node">
<title>Node15</title>
<g id="a_node15"><a xlink:href="../../da/d85/Fun4All__G4__sPHENIX__photons_8C.html#a02fbbd59878fe1299f58ed187e7214ba" target="_top" xlink:title="Fun4All_G4_sPHENIX\l_photons">
<polygon fill="none" stroke="#000000" points="343,-258.5 343,-290.5 464,-290.5 464,-258.5 343,-258.5"/>
<text text-anchor="start" x="351" y="-277.5" font-family="FreeSans" font-size="10.00" fill="#000000">Fun4All_G4_sPHENIX</text>
<text text-anchor="middle" x="403.5" y="-265.5" font-family="FreeSans" font-size="10.00" fill="#000000">_photons</text>
</a>
</g>
</g>
<!-- Node2&#45;&gt;Node15 -->
<g id="edge14" class="edge">
<title>Node2&#45;&gt;Node15</title>
<path fill="none" stroke="#191970" d="M269.7637,-399.7278C274.9445,-397.2986 279.8221,-394.2713 284,-390.5 315.9794,-361.6328 288.3629,-329.742 320,-300.5 326.5784,-294.4197 334.5597,-289.761 342.9479,-286.1916"/>
<polygon fill="#191970" stroke="#191970" points="268.2242,-396.5722 260.1963,-403.4861 270.7836,-403.0875 268.2242,-396.5722"/>
</g>
<!-- Node16 -->
<g id="node16" class="node">
<title>Node16</title>
<g id="a_node16"><a xlink:href="../../de/d55/Fun4All__G4__sPHENIX__truthphotonjet_8C.html#a48a6f4503eaa1b3793d8ae572aa795b9" target="_top" xlink:title="Fun4All_G4_sPHENIX\l_truthphotonjet">
<polygon fill="none" stroke="#000000" points="343,-207.5 343,-239.5 464,-239.5 464,-207.5 343,-207.5"/>
<text text-anchor="start" x="351" y="-226.5" font-family="FreeSans" font-size="10.00" fill="#000000">Fun4All_G4_sPHENIX</text>
<text text-anchor="middle" x="403.5" y="-214.5" font-family="FreeSans" font-size="10.00" fill="#000000">_truthphotonjet</text>
</a>
</g>
</g>
<!-- Node2&#45;&gt;Node16 -->
<g id="edge15" class="edge">
<title>Node2&#45;&gt;Node16</title>
<path fill="none" stroke="#191970" d="M269.4723,-400.6485C274.8651,-398.0628 279.8716,-394.747 284,-390.5 329.0814,-344.1235 275.4681,-296.4044 320,-249.5 326.2724,-242.8935 334.1913,-237.9555 342.6405,-234.2669"/>
<polygon fill="#191970" stroke="#191970" points="268.1314,-397.4149 260.1185,-404.3463 270.7049,-403.9247 268.1314,-397.4149"/>
</g>
<!-- Node17 -->
<g id="node17" class="node">
<title>Node17</title>
<g id="a_node17"><a xlink:href="../../d4/d65/Fun4All__single__particle_8C.html#a8a492b5dbead494bfdddbebde8a49b0e" target="_top" xlink:title="Fun4All_single_particle">
<polygon fill="none" stroke="#000000" points="337.5,-168.5 337.5,-188.5 469.5,-188.5 469.5,-168.5 337.5,-168.5"/>
<text text-anchor="middle" x="403.5" y="-175.5" font-family="FreeSans" font-size="10.00" fill="#000000">Fun4All_single_particle</text>
</a>
</g>
</g>
<!-- Node2&#45;&gt;Node17 -->
<g id="edge16" class="edge">
<title>Node2&#45;&gt;Node17</title>
<path fill="none" stroke="#191970" d="M269.5363,-401.007C274.9622,-398.3626 279.9592,-394.935 284,-390.5 342.4728,-326.3228 260.1545,-261.3991 320,-198.5 324.9321,-193.3163 330.9502,-189.3733 337.4736,-186.3881"/>
<polygon fill="#191970" stroke="#191970" points="268.0949,-397.8135 260.0931,-404.7576 270.6788,-404.3192 268.0949,-397.8135"/>
</g>
<!-- Node18 -->
<g id="node18" class="node">
<title>Node18</title>
<g id="a_node18"><a xlink:href="../../d0/d99/Jin__BJet_8C.html#a36169bfee2ed7efda633944d12aebad9" target="_top" xlink:title="Jin_BJet">
<polygon fill="none" stroke="#000000" points="376,-129.5 376,-149.5 431,-149.5 431,-129.5 376,-129.5"/>
<text text-anchor="middle" x="403.5" y="-136.5" font-family="FreeSans" font-size="10.00" fill="#000000">Jin_BJet</text>
</a>
</g>
</g>
<!-- Node2&#45;&gt;Node18 -->
<g id="edge17" class="edge">
<title>Node2&#45;&gt;Node18</title>
<path fill="none" stroke="#191970" d="M269.6697,-401.1267C275.0727,-398.4617 280.0278,-394.9966 284,-390.5 352.7908,-312.6265 249.5431,-235.8693 320,-159.5 334.05,-144.271 357.4596,-139.6835 375.9228,-138.6711"/>
<polygon fill="#191970" stroke="#191970" points="268.2322,-397.9321 260.2485,-404.8971 270.8331,-404.431 268.2322,-397.9321"/>
</g>
<!-- Node19 -->
<g id="node19" class="node">
<title>Node19</title>
<g id="a_node19"><a xlink:href="../../dd/db1/Wrapper_8cxx.html#abf1e42281903daa0752c80dd6c879fac" target="_top" xlink:title="Wrapper">
<polygon fill="none" stroke="#000000" points="373.5,-90.5 373.5,-110.5 433.5,-110.5 433.5,-90.5 373.5,-90.5"/>
<text text-anchor="middle" x="403.5" y="-97.5" font-family="FreeSans" font-size="10.00" fill="#000000">Wrapper</text>
</a>
</g>
</g>
<!-- Node2&#45;&gt;Node19 -->
<g id="edge18" class="edge">
<title>Node2&#45;&gt;Node19</title>
<path fill="none" stroke="#191970" d="M269.5591,-401.3139C275.0265,-398.6211 280.0274,-395.0983 284,-390.5 363.1438,-298.8907 238.8957,-210.3783 320,-120.5 333.282,-105.7811 355.3009,-100.9578 373.3935,-99.7208"/>
<polygon fill="#191970" stroke="#191970" points="268.0177,-398.1602 260.0168,-405.1054 270.6025,-404.6655 268.0177,-398.1602"/>
</g>
<!-- Node4 -->
<g id="node4" class="node">
<title>Node4</title>
<g id="a_node4"><a xlink:href="../../d3/d7f/Fun_8C.html#af69a3eef3ff244bb51f5740c6ecb5432" target="_top" xlink:title="Fun">
<polygon fill="none" stroke="#000000" points="523,-51.5 523,-71.5 557,-71.5 557,-51.5 523,-51.5"/>
<text text-anchor="middle" x="540" y="-58.5" font-family="FreeSans" font-size="10.00" fill="#000000">Fun</text>
</a>
</g>
</g>
<!-- Node3&#45;&gt;Node4 -->
<g id="edge3" class="edge">
<title>Node3&#45;&gt;Node4</title>
<path fill="none" stroke="#191970" d="M470.6941,-61.5C490.0852,-61.5 509.59,-61.5 522.9452,-61.5"/>
<polygon fill="#191970" stroke="#191970" points="470.5974,-58.0001 460.5974,-61.5 470.5974,-65.0001 470.5974,-58.0001"/>
</g>
<!-- Node20&#45;&gt;Node5 -->
<g id="edge20" class="edge">
<title>Node20&#45;&gt;Node5</title>
<path fill="none" stroke="#191970" d="M269.775,-577.5C289.6148,-577.5 312.5361,-577.5 333.7361,-577.5"/>
<polygon fill="#191970" stroke="#191970" points="269.7063,-574.0001 259.7063,-577.5 269.7062,-581.0001 269.7063,-574.0001"/>
</g>
<!-- Node20&#45;&gt;Node6 -->
<g id="edge21" class="edge">
<title>Node20&#45;&gt;Node6</title>
<path fill="none" stroke="#191970" d="M269.7241,-566.5498C296.6546,-560.9031 329.2731,-554.0637 355.5588,-548.5522"/>
<polygon fill="#191970" stroke="#191970" points="268.7752,-563.1726 259.7063,-568.6503 270.2117,-570.0236 268.7752,-563.1726"/>
</g>
<!-- Node20&#45;&gt;Node7 -->
<g id="edge22" class="edge">
<title>Node20&#45;&gt;Node7</title>
<path fill="none" stroke="#191970" d="M241.108,-593.1983C261.374,-606.1512 291.7077,-624.3175 320,-636.5 327.5052,-639.7317 335.5595,-642.7124 343.5972,-645.4042"/>
<polygon fill="#191970" stroke="#191970" points="242.8445,-590.153 232.5486,-587.6541 239.0389,-596.0282 242.8445,-590.153"/>
</g>
<!-- Node20&#45;&gt;Node8 -->
<g id="edge23" class="edge">
<title>Node20&#45;&gt;Node8</title>
<path fill="none" stroke="#191970" d="M269.7241,-588.4502C296.6546,-594.0969 329.2731,-600.9363 355.5588,-606.4478"/>
<polygon fill="#191970" stroke="#191970" points="270.2117,-584.9764 259.7063,-586.3497 268.7752,-591.8274 270.2117,-584.9764"/>
</g>
<!-- Node21&#45;&gt;Node5 -->
<g id="edge25" class="edge">
<title>Node21&#45;&gt;Node5</title>
<path fill="none" stroke="#191970" d="M269.183,-512.0018C274.3623,-514.141 279.3999,-516.6239 284,-519.5 304.0015,-532.0054 299.5826,-546.6859 320,-558.5 326.3054,-562.1485 333.2561,-565.0964 340.3742,-567.4782"/>
<polygon fill="#191970" stroke="#191970" points="270.3644,-508.7071 259.7714,-508.512 267.9307,-515.2704 270.3644,-508.7071"/>
</g>
<!-- Node21&#45;&gt;Node6 -->
<g id="edge26" class="edge">
<title>Node21&#45;&gt;Node6</title>
<path fill="none" stroke="#191970" d="M269.7241,-510.4502C296.6546,-516.0969 329.2731,-522.9363 355.5588,-528.4478"/>
<polygon fill="#191970" stroke="#191970" points="270.2117,-506.9764 259.7063,-508.3497 268.7752,-513.8274 270.2117,-506.9764"/>
</g>
<!-- Node21&#45;&gt;Node7 -->
<g id="edge27" class="edge">
<title>Node21&#45;&gt;Node7</title>
<path fill="none" stroke="#191970" d="M269.0846,-509.2604C274.588,-511.9032 279.7267,-515.2538 284,-519.5 322.5928,-557.8484 281.3835,-598.1755 320,-636.5 324.0815,-640.5506 328.7911,-643.9495 333.8524,-646.801"/>
<polygon fill="#191970" stroke="#191970" points="270.1512,-505.9174 259.5668,-505.4479 267.5482,-512.4155 270.1512,-505.9174"/>
</g>
<!-- Node21&#45;&gt;Node8 -->
<g id="edge28" class="edge">
<title>Node21&#45;&gt;Node8</title>
<path fill="none" stroke="#191970" d="M268.981,-510.0314C274.4178,-512.5418 279.5688,-515.6505 284,-519.5 312.8234,-544.5397 290.3371,-573.4606 320,-597.5 324.3891,-601.057 329.315,-603.9767 334.5217,-606.3699"/>
<polygon fill="#191970" stroke="#191970" points="270.2249,-506.7597 259.6381,-506.3463 267.6564,-513.2715 270.2249,-506.7597"/>
</g>
<!-- Node21&#45;&gt;Node9 -->
<g id="edge29" class="edge">
<title>Node21&#45;&gt;Node9</title>
<path fill="none" stroke="#191970" d="M269.9396,-499.5C292.142,-499.5 318.1801,-499.5 341.3405,-499.5"/>
<polygon fill="#191970" stroke="#191970" points="269.7063,-496.0001 259.7063,-499.5 269.7062,-503.0001 269.7063,-496.0001"/>
</g>
<!-- Node21&#45;&gt;Node10 -->
<g id="edge30" class="edge">
<title>Node21&#45;&gt;Node10</title>
<path fill="none" stroke="#191970" d="M269.2183,-486.9875C291.5985,-481.5729 317.9803,-475.1902 341.4092,-469.522"/>
<polygon fill="#191970" stroke="#191970" points="268.1386,-483.6477 259.242,-489.4011 269.7847,-490.4514 268.1386,-483.6477"/>
</g>
<!-- Node21&#45;&gt;Node11 -->
<g id="edge31" class="edge">
<title>Node21&#45;&gt;Node11</title>
<path fill="none" stroke="#191970" d="M237.1757,-482.8064C256.9067,-466.8854 288.7659,-443.3411 320,-429.5 328.9947,-425.5141 338.9016,-422.2541 348.6524,-419.6106"/>
<polygon fill="#191970" stroke="#191970" points="234.7571,-480.2637 229.2543,-489.3174 239.202,-485.6714 234.7571,-480.2637"/>
</g>
<!-- Node21&#45;&gt;Node12 -->
<g id="edge32" class="edge">
<title>Node21&#45;&gt;Node12</title>
<path fill="none" stroke="#191970" d="M234.6686,-481.5698C248.139,-467.4677 267.3344,-447.2966 284,-429.5 300.1239,-412.2819 299.65,-402.4298 320,-390.5 327.0728,-386.3537 334.9608,-383.0658 342.987,-380.4589"/>
<polygon fill="#191970" stroke="#191970" points="231.8423,-479.4612 227.4614,-489.1078 236.9019,-484.2987 231.8423,-479.4612"/>
</g>
<!-- Node22&#45;&gt;Node5 -->
<g id="edge34" class="edge">
<title>Node22&#45;&gt;Node5</title>
<path fill="none" stroke="#191970" d="M271.9532,-549.9176C298.4993,-555.4837 330.1365,-562.1173 355.7316,-567.484"/>
<polygon fill="#191970" stroke="#191970" points="272.5571,-546.4682 262.0516,-547.8415 271.1205,-553.3192 272.5571,-546.4682"/>
</g>
<!-- Node22&#45;&gt;Node6 -->
<g id="edge35" class="edge">
<title>Node22&#45;&gt;Node6</title>
<path fill="none" stroke="#191970" d="M272.1093,-538.5C288.7126,-538.5 307.2959,-538.5 325.1415,-538.5"/>
<polygon fill="#191970" stroke="#191970" points="272.0517,-535.0001 262.0516,-538.5 272.0516,-542.0001 272.0517,-535.0001"/>
</g>
<!-- Node22&#45;&gt;Node7 -->
<g id="edge36" class="edge">
<title>Node22&#45;&gt;Node7</title>
<path fill="none" stroke="#191970" d="M271.5435,-550.2711C276.0329,-552.5461 280.2713,-555.2608 284,-558.5 312.8234,-583.5397 291.1611,-611.4781 320,-636.5 324.1147,-640.0701 328.7234,-643.1305 333.6058,-645.754"/>
<polygon fill="#191970" stroke="#191970" points="272.6278,-546.9275 262.0586,-546.1915 269.862,-553.3579 272.6278,-546.9275"/>
</g>
<!-- Node22&#45;&gt;Node8 -->
<g id="edge37" class="edge">
<title>Node22&#45;&gt;Node8</title>
<path fill="none" stroke="#191970" d="M271.7328,-552.0885C276.0121,-553.9707 280.1586,-556.0983 284,-558.5 304.0015,-571.0054 299.5826,-585.6859 320,-597.5 326.3054,-601.1485 333.2561,-604.0964 340.3742,-606.4782"/>
<polygon fill="#191970" stroke="#191970" points="272.8067,-548.75 262.2194,-548.349 270.2458,-555.2648 272.8067,-548.75"/>
</g>
<!-- Node22&#45;&gt;Node9 -->
<g id="edge38" class="edge">
<title>Node22&#45;&gt;Node9</title>
<path fill="none" stroke="#191970" d="M271.9532,-527.0824C298.4993,-521.5163 330.1365,-514.8827 355.7316,-509.516"/>
<polygon fill="#191970" stroke="#191970" points="271.1205,-523.6808 262.0516,-529.1585 272.5571,-530.5318 271.1205,-523.6808"/>
</g>
<!-- Node22&#45;&gt;Node10 -->
<g id="edge39" class="edge">
<title>Node22&#45;&gt;Node10</title>
<path fill="none" stroke="#191970" d="M271.7308,-525.7739C276.0105,-523.9459 280.1577,-521.8655 284,-519.5 304.0876,-507.1333 300.0595,-493.1024 320,-480.5 326.5457,-476.3631 333.7972,-472.8426 341.2137,-469.8571"/>
<polygon fill="#191970" stroke="#191970" points="270.3237,-522.5643 262.2168,-529.3855 272.808,-529.1087 270.3237,-522.5643"/>
</g>
<!-- Node22&#45;&gt;Node11 -->
<g id="edge40" class="edge">
<title>Node22&#45;&gt;Node11</title>
<path fill="none" stroke="#191970" d="M271.7068,-527.7808C276.1626,-525.5239 280.3485,-522.7962 284,-519.5 315.9794,-490.6328 287.4045,-457.6697 320,-429.5 324.6241,-425.5037 329.9089,-422.2745 335.524,-419.6692"/>
<polygon fill="#191970" stroke="#191970" points="270.1071,-524.6574 262.2666,-531.7833 272.8395,-531.1021 270.1071,-524.6574"/>
</g>
<!-- Node26&#45;&gt;Node3 -->
<g id="edge45" class="edge">
<title>Node26&#45;&gt;Node3</title>
<path fill="none" stroke="#191970" d="M280.7115,-354.8649C281.8703,-353.8127 282.9697,-352.6925 284,-351.5 363.1438,-259.8907 238.8957,-171.3783 320,-81.5 326.9906,-73.7532 336.4013,-68.7476 346.386,-65.5632"/>
<polygon fill="#191970" stroke="#191970" points="278.4107,-352.2071 272.3061,-360.8664 282.4783,-357.904 278.4107,-352.2071"/>
</g>
<!-- Node26&#45;&gt;Node5 -->
<g id="edge46" class="edge">
<title>Node26&#45;&gt;Node5</title>
<path fill="none" stroke="#191970" d="M279.4564,-386.2504C281.0685,-387.5574 282.5902,-388.9711 284,-390.5 335.7639,-446.6392 266.3465,-504.1639 320,-558.5 323.9695,-562.52 328.6003,-565.7651 333.6087,-568.377"/>
<polygon fill="#191970" stroke="#191970" points="281.0287,-383.0972 270.7411,-380.5642 277.2037,-388.9598 281.0287,-383.0972"/>
</g>
<!-- Node26&#45;&gt;Node6 -->
<g id="edge47" class="edge">
<title>Node26&#45;&gt;Node6</title>
<path fill="none" stroke="#191970" d="M278.8055,-385.9593C280.6477,-387.3461 282.3886,-388.8561 284,-390.5 325.6668,-433.0086 276.9038,-478.4412 320,-519.5 323.7674,-523.0893 328.0654,-526.0523 332.6786,-528.4931"/>
<polygon fill="#191970" stroke="#191970" points="280.5166,-382.9025 270.1675,-380.6338 276.843,-388.8611 280.5166,-382.9025"/>
</g>
<!-- Node26&#45;&gt;Node7 -->
<g id="edge48" class="edge">
<title>Node26&#45;&gt;Node7</title>
<path fill="none" stroke="#191970" d="M280.1669,-386.6323C281.526,-387.8323 282.8087,-389.1195 284,-390.5 356.192,-474.1546 247.7562,-552.8901 320,-636.5 323.9574,-641.08 328.7167,-644.8392 333.9307,-647.9221"/>
<polygon fill="#191970" stroke="#191970" points="281.8504,-383.5383 271.6516,-380.6683 277.8346,-389.2719 281.8504,-383.5383"/>
</g>
<!-- Node26&#45;&gt;Node8 -->
<g id="edge49" class="edge">
<title>Node26&#45;&gt;Node8</title>
<path fill="none" stroke="#191970" d="M279.6382,-386.2663C281.1895,-387.5694 282.6502,-388.9778 284,-390.5 345.9536,-460.3695 255.6932,-529.7901 320,-597.5 323.3786,-601.0574 327.2737,-604.0134 331.4959,-606.4639"/>
<polygon fill="#191970" stroke="#191970" points="281.4703,-383.2803 271.2225,-380.5905 277.5562,-389.0838 281.4703,-383.2803"/>
</g>
<!-- Node26&#45;&gt;Node9 -->
<g id="edge50" class="edge">
<title>Node26&#45;&gt;Node9</title>
<path fill="none" stroke="#191970" d="M277.745,-385.6189C279.9562,-387.097 282.0546,-388.7194 284,-390.5 315.7788,-419.5879 287.245,-452.5159 320,-480.5 326.2169,-485.8114 333.6167,-489.7176 341.4041,-492.5772"/>
<polygon fill="#191970" stroke="#191970" points="279.182,-382.413 268.7429,-380.6029 275.7748,-388.5278 279.182,-382.413"/>
</g>
<!-- Node26&#45;&gt;Node10 -->
<g id="edge51" class="edge">
<title>Node26&#45;&gt;Node10</title>
<path fill="none" stroke="#191970" d="M272.4628,-384.4126C276.4835,-386.214 280.3774,-388.2351 284,-390.5 304.0015,-403.0054 299.9908,-417.007 320,-429.5 326.5463,-433.5873 333.7982,-437.0382 341.2149,-439.9442"/>
<polygon fill="#191970" stroke="#191970" points="273.5036,-381.0594 262.9189,-380.5967 270.9048,-387.5591 273.5036,-381.0594"/>
</g>
<!-- Node26&#45;&gt;Node11 -->
<g id="edge52" class="edge">
<title>Node26&#45;&gt;Node11</title>
<path fill="none" stroke="#191970" d="M275.4315,-382.6469C301.2404,-388.0585 331.271,-394.3552 355.7627,-399.4906"/>
<polygon fill="#191970" stroke="#191970" points="275.9051,-379.1702 265.3996,-380.5435 274.4685,-386.0212 275.9051,-379.1702"/>
</g>
<!-- Node26&#45;&gt;Node12 -->
<g id="edge53" class="edge">
<title>Node26&#45;&gt;Node12</title>
<path fill="none" stroke="#191970" d="M282.1435,-370.5C301.8132,-370.5 323.3542,-370.5 342.757,-370.5"/>
<polygon fill="#191970" stroke="#191970" points="282.0494,-367.0001 272.0494,-370.5 282.0493,-374.0001 282.0494,-367.0001"/>
</g>
<!-- Node26&#45;&gt;Node13 -->
<g id="edge54" class="edge">
<title>Node26&#45;&gt;Node13</title>
<path fill="none" stroke="#191970" d="M280.2998,-355.2854C281.6128,-354.1123 282.8509,-352.8526 284,-351.5 373.5185,-246.1298 231.7291,-148.9175 320,-42.5 326.0099,-35.2546 334.0064,-29.9937 342.6747,-26.181"/>
<polygon fill="#191970" stroke="#191970" points="278.2121,-352.4749 272.0592,-361.1 282.2478,-358.1944 278.2121,-352.4749"/>
</g>
<!-- Node26&#45;&gt;Node14 -->
<g id="edge55" class="edge">
<title>Node26&#45;&gt;Node14</title>
<path fill="none" stroke="#191970" d="M269.0925,-358.0179C291.9561,-352.4864 319.0152,-345.9399 342.8399,-340.1758"/>
<polygon fill="#191970" stroke="#191970" points="268.1386,-354.6477 259.242,-360.4011 269.7847,-361.4514 268.1386,-354.6477"/>
</g>
<!-- Node26&#45;&gt;Node15 -->
<g id="edge56" class="edge">
<title>Node26&#45;&gt;Node15</title>
<path fill="none" stroke="#191970" d="M276.4446,-356.144C279.0782,-354.7375 281.6133,-353.1939 284,-351.5 306.6257,-335.4422 297.565,-316.8233 320,-300.5 326.8753,-295.4977 334.7382,-291.4397 342.8277,-288.1524"/>
<polygon fill="#191970" stroke="#191970" points="274.797,-353.0496 267.1835,-360.4174 277.7299,-359.4055 274.797,-353.0496"/>
</g>
<!-- Node26&#45;&gt;Node16 -->
<g id="edge57" class="edge">
<title>Node26&#45;&gt;Node16</title>
<path fill="none" stroke="#191970" d="M279.8179,-354.9963C281.2787,-353.9081 282.6773,-352.7444 284,-351.5 319.0142,-318.5589 285.3763,-282.8513 320,-249.5 326.4517,-243.2854 334.3647,-238.5543 342.7228,-234.9531"/>
<polygon fill="#191970" stroke="#191970" points="277.592,-352.2534 270.8653,-360.4388 281.2283,-358.2348 277.592,-352.2534"/>
</g>
<!-- Node26&#45;&gt;Node17 -->
<g id="edge58" class="edge">
<title>Node26&#45;&gt;Node17</title>
<path fill="none" stroke="#191970" d="M280.6423,-354.6517C281.816,-353.6626 282.9382,-352.6132 284,-351.5 332.2167,-300.9515 270.7026,-247.9951 320,-198.5 324.9441,-193.536 330.8873,-189.7207 337.2961,-186.7994"/>
<polygon fill="#191970" stroke="#191970" points="278.5557,-351.8376 272.2392,-360.3437 282.4815,-357.6332 278.5557,-351.8376"/>
</g>
<!-- Node26&#45;&gt;Node18 -->
<g id="edge59" class="edge">
<title>Node26&#45;&gt;Node18</title>
<path fill="none" stroke="#191970" d="M280.6275,-354.7903C281.8113,-353.7603 282.9386,-352.6649 284,-351.5 342.4728,-287.3228 260.1545,-222.3991 320,-159.5 334.1797,-144.5968 357.336,-139.9494 375.6706,-138.8314"/>
<polygon fill="#191970" stroke="#191970" points="278.337,-352.1186 272.0973,-360.6812 282.3148,-357.8786 278.337,-352.1186"/>
</g>
<!-- Node26&#45;&gt;Node19 -->
<g id="edge60" class="edge">
<title>Node26&#45;&gt;Node19</title>
<path fill="none" stroke="#191970" d="M280.6762,-354.834C281.8455,-353.791 282.9567,-352.6811 284,-351.5 352.7908,-273.6265 249.5431,-196.8693 320,-120.5 333.3424,-106.038 355.1256,-101.1725 373.0976,-99.8522"/>
<polygon fill="#191970" stroke="#191970" points="278.3795,-352.1705 272.2183,-360.7897 282.4097,-357.894 278.3795,-352.1705"/>
</g>
<!-- Node27&#45;&gt;Node3 -->
<g id="edge62" class="edge">
<title>Node27&#45;&gt;Node3</title>
<path fill="none" stroke="#191970" d="M281.1737,-315.3829C282.1616,-314.4725 283.1057,-313.5124 284,-312.5 352.7908,-234.6265 249.5431,-157.8693 320,-81.5 326.9745,-73.9403 336.2553,-69.0028 346.0925,-65.8232"/>
<polygon fill="#191970" stroke="#191970" points="278.8781,-312.7245 272.8457,-321.4344 282.993,-318.3874 278.8781,-312.7245"/>
</g>
<!-- Node27&#45;&gt;Node5 -->
<g id="edge63" class="edge">
<title>Node27&#45;&gt;Node5</title>
<path fill="none" stroke="#191970" d="M279.6382,-347.2663C281.1895,-348.5694 282.6502,-349.9778 284,-351.5 345.9536,-421.3695 255.6932,-490.7901 320,-558.5 323.9929,-562.7042 328.7071,-566.0684 333.8303,-568.751"/>
<polygon fill="#191970" stroke="#191970" points="281.4703,-344.2803 271.2225,-341.5905 277.5562,-350.0838 281.4703,-344.2803"/>
</g>
<!-- Node27&#45;&gt;Node6 -->
<g id="edge64" class="edge">
<title>Node27&#45;&gt;Node6</title>
<path fill="none" stroke="#191970" d="M279.4564,-347.2504C281.0685,-348.5574 282.5902,-349.9711 284,-351.5 335.7639,-407.6392 266.3465,-465.1639 320,-519.5 323.4472,-522.991 327.3931,-525.8977 331.652,-528.3128"/>
<polygon fill="#191970" stroke="#191970" points="281.0287,-344.0972 270.7411,-341.5642 277.2037,-349.9598 281.0287,-344.0972"/>
</g>
<!-- Node27&#45;&gt;Node7 -->
<g id="edge65" class="edge">
<title>Node27&#45;&gt;Node7</title>
<path fill="none" stroke="#191970" d="M280.2031,-347.6013C281.5516,-348.8104 282.8223,-350.1079 284,-351.5 366.4591,-448.9728 237.4805,-539.0783 320,-636.5 323.9122,-641.1187 328.6404,-644.9044 333.8341,-648.0047"/>
<polygon fill="#191970" stroke="#191970" points="281.9158,-344.5253 271.7332,-341.5986 277.8682,-350.2365 281.9158,-344.5253"/>
</g>
<!-- Node27&#45;&gt;Node8 -->
<g id="edge66" class="edge">
<title>Node27&#45;&gt;Node8</title>
<path fill="none" stroke="#191970" d="M280.1669,-347.6323C281.526,-348.8323 282.8087,-350.1195 284,-351.5 356.192,-435.1546 244.9893,-516.3632 320,-597.5 323.2296,-600.9933 326.9564,-603.9102 331.0058,-606.3401"/>
<polygon fill="#191970" stroke="#191970" points="281.8504,-344.5383 271.6516,-341.6683 277.8346,-350.2719 281.8504,-344.5383"/>
</g>
<!-- Node27&#45;&gt;Node9 -->
<g id="edge67" class="edge">
<title>Node27&#45;&gt;Node9</title>
<path fill="none" stroke="#191970" d="M278.8055,-346.9593C280.6477,-348.3461 282.3886,-349.8561 284,-351.5 325.6668,-394.0086 276.9038,-439.4412 320,-480.5 326.0278,-486.2429 333.4141,-490.3824 341.276,-493.3453"/>
<polygon fill="#191970" stroke="#191970" points="280.5166,-343.9025 270.1675,-341.6338 276.843,-349.8611 280.5166,-343.9025"/>
</g>
<!-- Node27&#45;&gt;Node10 -->
<g id="edge68" class="edge">
<title>Node27&#45;&gt;Node10</title>
<path fill="none" stroke="#191970" d="M276.8579,-346.2575C279.3827,-347.8312 281.7816,-349.5728 284,-351.5 312.8234,-376.5397 291.1611,-404.4781 320,-429.5 326.1721,-434.8552 333.4556,-439.0635 341.1071,-442.3705"/>
<polygon fill="#191970" stroke="#191970" points="278.347,-343.0861 267.8675,-341.5273 275.0876,-349.281 278.347,-343.0861"/>
</g>
<!-- Node27&#45;&gt;Node11 -->
<g id="edge69" class="edge">
<title>Node27&#45;&gt;Node11</title>
<path fill="none" stroke="#191970" d="M272.4628,-345.4126C276.4835,-347.214 280.3774,-349.2351 284,-351.5 304.0015,-364.0054 299.5826,-378.6859 320,-390.5 326.3054,-394.1485 333.2561,-397.0964 340.3742,-399.4782"/>
<polygon fill="#191970" stroke="#191970" points="273.5036,-342.0594 262.9189,-341.5967 270.9048,-348.5591 273.5036,-342.0594"/>
</g>
<!-- Node27&#45;&gt;Node12 -->
<g id="edge70" class="edge">
<title>Node27&#45;&gt;Node12</title>
<path fill="none" stroke="#191970" d="M275.4315,-343.6469C301.2404,-349.0585 331.271,-355.3552 355.7627,-360.4906"/>
<polygon fill="#191970" stroke="#191970" points="275.9051,-340.1702 265.3996,-341.5435 274.4685,-347.0212 275.9051,-340.1702"/>
</g>
<!-- Node27&#45;&gt;Node13 -->
<g id="edge71" class="edge">
<title>Node27&#45;&gt;Node13</title>
<path fill="none" stroke="#191970" d="M281.2778,-315.3408C282.2297,-314.4427 283.139,-313.4966 284,-312.5 363.1438,-220.8907 241.941,-135.0353 320,-42.5 326.0697,-35.3047 334.097,-30.0696 342.7778,-26.2672"/>
<polygon fill="#191970" stroke="#191970" points="279.1703,-312.5463 273.2412,-321.3268 283.3518,-318.1602 279.1703,-312.5463"/>
</g>
<!-- Node27&#45;&gt;Node14 -->
<g id="edge72" class="edge">
<title>Node27&#45;&gt;Node14</title>
<path fill="none" stroke="#191970" d="M283.2942,-329.3776C302.6362,-328.7537 323.6999,-328.0742 342.7138,-327.4608"/>
<polygon fill="#191970" stroke="#191970" points="282.9361,-325.8872 273.0542,-329.7079 283.1619,-332.8836 282.9361,-325.8872"/>
</g>
<!-- Node27&#45;&gt;Node15 -->
<g id="edge73" class="edge">
<title>Node27&#45;&gt;Node15</title>
<path fill="none" stroke="#191970" d="M263.6859,-318.5846C270.5116,-316.5946 277.4491,-314.5266 284,-312.5 300.1121,-307.5155 303.9478,-305.674 320,-300.5 330.1156,-297.2395 340.9424,-293.8182 351.3351,-290.5677"/>
<polygon fill="#191970" stroke="#191970" points="262.4611,-315.2951 253.8236,-321.4305 264.402,-322.0207 262.4611,-315.2951"/>
</g>
<!-- Node27&#45;&gt;Node16 -->
<g id="edge74" class="edge">
<title>Node27&#45;&gt;Node16</title>
<path fill="none" stroke="#191970" d="M277.5775,-316.8776C279.8217,-315.5438 281.9744,-314.0883 284,-312.5 309.3778,-292.6011 294.8584,-269.6965 320,-249.5 326.747,-244.0801 334.629,-239.7847 342.8062,-236.3819"/>
<polygon fill="#191970" stroke="#191970" points="275.8894,-313.8091 268.5423,-321.4426 279.0461,-320.0569 275.8894,-313.8091"/>
</g>
<!-- Node27&#45;&gt;Node17 -->
<g id="edge75" class="edge">
<title>Node27&#45;&gt;Node17</title>
<path fill="none" stroke="#191970" d="M279.972,-315.979C281.3809,-314.8955 282.7278,-313.7376 284,-312.5 322.0852,-275.451 281.1234,-234.7177 320,-198.5 325.0172,-193.826 330.9273,-190.1859 337.2475,-187.3592"/>
<polygon fill="#191970" stroke="#191970" points="277.9299,-313.1283 271.3157,-321.405 281.6476,-319.0594 277.9299,-313.1283"/>
</g>
<!-- Node27&#45;&gt;Node18 -->
<g id="edge76" class="edge">
<title>Node27&#45;&gt;Node18</title>
<path fill="none" stroke="#191970" d="M280.6423,-315.6517C281.816,-314.6626 282.9382,-313.6132 284,-312.5 332.2167,-261.9515 270.7026,-208.9951 320,-159.5 334.5168,-144.925 357.6468,-140.2519 375.8855,-139.0405"/>
<polygon fill="#191970" stroke="#191970" points="278.5557,-312.8376 272.2392,-321.3437 282.4815,-318.6332 278.5557,-312.8376"/>
</g>
<!-- Node27&#45;&gt;Node19 -->
<g id="edge77" class="edge">
<title>Node27&#45;&gt;Node19</title>
<path fill="none" stroke="#191970" d="M281.1314,-315.3449C282.132,-314.4459 283.0902,-313.4985 284,-312.5 342.4728,-248.3228 260.1545,-183.3991 320,-120.5 333.5632,-106.2448 355.3394,-101.3729 373.2529,-99.9978"/>
<polygon fill="#191970" stroke="#191970" points="278.8436,-312.6772 272.7283,-321.329 282.9042,-318.3792 278.8436,-312.6772"/>
</g>
</g>
</svg>
