<?xml version="1.0" encoding="UTF-8" standalone="no"?>
<!DOCTYPE svg PUBLIC "-//W3C//DTD SVG 1.1//EN"
 "http://www.w3.org/Graphics/SVG/1.1/DTD/svg11.dtd">
<!-- Generated by graphviz version 2.40.1 (20161225.0304)
 -->
<!-- Title: RawTowerDigitizer::set_pedstal_central_ADC Pages: 1 -->
<svg width="591pt" height="686pt"
 viewBox="0.00 0.00 591.00 686.00" xmlns="http://www.w3.org/2000/svg" xmlns:xlink="http://www.w3.org/1999/xlink">
<g id="graph0" class="graph" transform="scale(1 1) rotate(0) translate(4 682)">
<title>RawTowerDigitizer::set_pedstal_central_ADC</title>
<!-- Node1 -->
<g id="node1" class="node">
<title>Node1</title>
<polygon fill="#bfbfbf" stroke="#000000" points="0,-291.5 0,-323.5 141,-323.5 141,-291.5 0,-291.5"/>
<text text-anchor="start" x="8" y="-310.5" font-family="FreeSans" font-size="10.00" fill="#000000">RawTowerDigitizer::</text>
<text text-anchor="middle" x="70.5" y="-298.5" font-family="FreeSans" font-size="10.00" fill="#000000">set_pedstal_central_ADC</text>
</g>
<!-- Node2 -->
<g id="node2" class="node">
<title>Node2</title>
<g id="a_node2"><a xlink:href="../../d8/d4c/G4__CEmc__EIC_8C.html#a46a52c955e8d2078c58d4d7db471cc43" target="_top" xlink:title="CEMC_Towers">
<polygon fill="none" stroke="#000000" points="201,-375.5 201,-395.5 286,-395.5 286,-375.5 201,-375.5"/>
<text text-anchor="middle" x="243.5" y="-382.5" font-family="FreeSans" font-size="10.00" fill="#000000">CEMC_Towers</text>
</a>
</g>
</g>
<!-- Node1&#45;&gt;Node2 -->
<g id="edge1" class="edge">
<title>Node1&#45;&gt;Node2</title>
<path fill="none" stroke="#191970" d="M104.5589,-328.9834C124.989,-341.1985 151.8175,-356.0867 177,-366.5 185.211,-369.8953 194.2315,-372.9153 202.9075,-375.4933"/>
<polygon fill="#191970" stroke="#191970" points="106.302,-325.9473 95.9355,-323.7594 102.675,-331.9344 106.302,-325.9473"/>
</g>
<!-- Node20 -->
<g id="node20" class="node">
<title>Node20</title>
<g id="a_node20"><a xlink:href="../../d1/d81/macros_2blob_2master_2macros_2g4simulations_2G4__EEMC_8C.html#a05b9b10b79cc47702702e091692fd060" target="_top" xlink:title="EEMC_Towers">
<polygon fill="none" stroke="#000000" points="201.5,-567.5 201.5,-587.5 285.5,-587.5 285.5,-567.5 201.5,-567.5"/>
<text text-anchor="middle" x="243.5" y="-574.5" font-family="FreeSans" font-size="10.00" fill="#000000">EEMC_Towers</text>
</a>
</g>
</g>
<!-- Node1&#45;&gt;Node20 -->
<g id="edge19" class="edge">
<title>Node1&#45;&gt;Node20</title>
<path fill="none" stroke="#191970" d="M86.4186,-332.3441C123.0805,-389.562 212.2252,-528.6897 237.0111,-567.3729"/>
<polygon fill="#191970" stroke="#191970" points="89.1458,-330.1128 80.8038,-323.5812 83.2519,-333.8893 89.1458,-330.1128"/>
</g>
<!-- Node21 -->
<g id="node21" class="node">
<title>Node21</title>
<g id="a_node21"><a xlink:href="../../dc/d8e/Fun4All__G4__Prototype2_8C.html#a6b8f092c4f51be2938dd09c810ba6226" target="_top" xlink:title="Fun4All_G4_Prototype2">
<polygon fill="none" stroke="#000000" points="177,-258.5 177,-278.5 310,-278.5 310,-258.5 177,-258.5"/>
<text text-anchor="middle" x="243.5" y="-265.5" font-family="FreeSans" font-size="10.00" fill="#000000">Fun4All_G4_Prototype2</text>
</a>
</g>
</g>
<!-- Node1&#45;&gt;Node21 -->
<g id="edge24" class="edge">
<title>Node1&#45;&gt;Node21</title>
<path fill="none" stroke="#191970" d="M151.497,-289.2406C167.8583,-285.5522 184.4832,-281.8044 199.0176,-278.5278"/>
<polygon fill="#191970" stroke="#191970" points="150.3503,-285.9111 141.3649,-291.5247 151.8898,-292.7398 150.3503,-285.9111"/>
</g>
<!-- Node22 -->
<g id="node22" class="node">
<title>Node22</title>
<g id="a_node22"><a xlink:href="../../d7/d40/Fun4All__G4__Prototype3_8C.html#a1201361263017b08a070777a0b90b27c" target="_top" xlink:title="Fun4All_G4_Prototype3">
<polygon fill="none" stroke="#000000" points="177,-219.5 177,-239.5 310,-239.5 310,-219.5 177,-219.5"/>
<text text-anchor="middle" x="243.5" y="-226.5" font-family="FreeSans" font-size="10.00" fill="#000000">Fun4All_G4_Prototype3</text>
</a>
</g>
</g>
<!-- Node1&#45;&gt;Node22 -->
<g id="edge25" class="edge">
<title>Node1&#45;&gt;Node22</title>
<path fill="none" stroke="#191970" d="M105.0738,-286.2995C125.4846,-274.392 152.1209,-259.8846 177,-249.5 185.9005,-245.7849 195.7324,-242.4386 205.0443,-239.5934"/>
<polygon fill="#191970" stroke="#191970" points="103.2786,-283.2949 96.4473,-291.3933 106.8378,-289.3225 103.2786,-283.2949"/>
</g>
<!-- Node23 -->
<g id="node23" class="node">
<title>Node23</title>
<g id="a_node23"><a xlink:href="../../d4/d58/Fun4All__G4__Prototype4_8C.html#acac517f0728af658cbf99c7c9687c908" target="_top" xlink:title="Fun4All_G4_Prototype4">
<polygon fill="none" stroke="#000000" points="177,-180.5 177,-200.5 310,-200.5 310,-180.5 177,-180.5"/>
<text text-anchor="middle" x="243.5" y="-187.5" font-family="FreeSans" font-size="10.00" fill="#000000">Fun4All_G4_Prototype4</text>
</a>
</g>
</g>
<!-- Node1&#45;&gt;Node23 -->
<g id="edge26" class="edge">
<title>Node1&#45;&gt;Node23</title>
<path fill="none" stroke="#191970" d="M90.7307,-283.779C110.6239,-261.8503 142.8915,-229.8236 177,-210.5 184.028,-206.5184 191.9323,-203.251 199.7729,-200.5967"/>
<polygon fill="#191970" stroke="#191970" points="88.0174,-281.563 83.981,-291.3589 93.2452,-286.2182 88.0174,-281.563"/>
</g>
<!-- Node24 -->
<g id="node24" class="node">
<title>Node24</title>
<g id="a_node24"><a xlink:href="../../d7/dc0/G4__HcalIn__EIC_8C.html#a4552e4b1c6ffcc08cba2296b2c45f950" target="_top" xlink:title="HCALInner_Towers">
<polygon fill="none" stroke="#000000" points="189,-336.5 189,-356.5 298,-356.5 298,-336.5 189,-336.5"/>
<text text-anchor="middle" x="243.5" y="-343.5" font-family="FreeSans" font-size="10.00" fill="#000000">HCALInner_Towers</text>
</a>
</g>
</g>
<!-- Node1&#45;&gt;Node24 -->
<g id="edge27" class="edge">
<title>Node1&#45;&gt;Node24</title>
<path fill="none" stroke="#191970" d="M151.497,-325.7594C167.8583,-329.4478 184.4832,-333.1956 199.0176,-336.4722"/>
<polygon fill="#191970" stroke="#191970" points="151.8898,-322.2602 141.3649,-323.4753 150.3503,-329.0889 151.8898,-322.2602"/>
</g>
<!-- Node25 -->
<g id="node25" class="node">
<title>Node25</title>
<g id="a_node25"><a xlink:href="../../de/d3d/macros_2blob_2master_2macros_2g4simulations_2G4__HcalOut__ref_8C.html#a4fd9d72ad1e04ebc46273f3b9fff91d6" target="_top" xlink:title="HCALOuter_Towers">
<polygon fill="none" stroke="#000000" points="188,-297.5 188,-317.5 299,-317.5 299,-297.5 188,-297.5"/>
<text text-anchor="middle" x="243.5" y="-304.5" font-family="FreeSans" font-size="10.00" fill="#000000">HCALOuter_Towers</text>
</a>
</g>
</g>
<!-- Node1&#45;&gt;Node25 -->
<g id="edge44" class="edge">
<title>Node1&#45;&gt;Node25</title>
<path fill="none" stroke="#191970" d="M151.6078,-307.5C163.8682,-307.5 176.2736,-307.5 187.8337,-307.5"/>
<polygon fill="#191970" stroke="#191970" points="151.3649,-304.0001 141.3649,-307.5 151.3649,-311.0001 151.3649,-304.0001"/>
</g>
<!-- Node3 -->
<g id="node3" class="node">
<title>Node3</title>
<g id="a_node3"><a xlink:href="../../d3/d7f/Fun_8C.html#af0d3c8a78765149fef9b2beeecfc6279" target="_top" xlink:title="ConfigureDetectors">
<polygon fill="none" stroke="#000000" points="372.5,-219.5 372.5,-239.5 486.5,-239.5 486.5,-219.5 372.5,-219.5"/>
<text text-anchor="middle" x="429.5" y="-226.5" font-family="FreeSans" font-size="10.00" fill="#000000">ConfigureDetectors</text>
</a>
</g>
</g>
<!-- Node2&#45;&gt;Node3 -->
<g id="edge2" class="edge">
<title>Node2&#45;&gt;Node3</title>
<path fill="none" stroke="#191970" d="M295.8752,-376.1637C301.0753,-373.6567 305.9266,-370.492 310,-366.5 348.8573,-328.4197 306.3291,-286.732 346,-249.5 353.2825,-242.6652 362.4725,-238.0381 372.0728,-234.9312"/>
<polygon fill="#191970" stroke="#191970" points="294.2273,-373.0524 286.2306,-380.0025 296.8161,-379.5562 294.2273,-373.0524"/>
</g>
<!-- Node5 -->
<g id="node5" class="node">
<title>Node5</title>
<g id="a_node5"><a xlink:href="../../da/d02/Fun4All__G4__EICDetector_8C.html#afbe82cefa1d1fd031d9a8586b7bb68c6" target="_top" xlink:title="Fun4All_G4_EICDetector">
<polygon fill="none" stroke="#000000" points="360,-567.5 360,-587.5 499,-587.5 499,-567.5 360,-567.5"/>
<text text-anchor="middle" x="429.5" y="-574.5" font-family="FreeSans" font-size="10.00" fill="#000000">Fun4All_G4_EICDetector</text>
</a>
</g>
</g>
<!-- Node2&#45;&gt;Node5 -->
<g id="edge4" class="edge">
<title>Node2&#45;&gt;Node5</title>
<path fill="none" stroke="#191970" d="M249.5054,-405.5741C261.5092,-442.0781 292.0528,-519.1805 346,-558.5 350.926,-562.0903 356.4158,-565.0179 362.1627,-567.403"/>
<polygon fill="#191970" stroke="#191970" points="252.7165,-404.1191 246.3699,-395.6355 246.0408,-406.2252 252.7165,-404.1191"/>
</g>
<!-- Node6 -->
<g id="node6" class="node">
<title>Node6</title>
<g id="a_node6"><a xlink:href="../../dd/d2a/Fun4All__G4__EICDetector__LQ_8C.html#aaa01242fd6e77ca43a9d49a6d46008e4" target="_top" xlink:title="Fun4All_G4_EICDetector_LQ">
<polygon fill="none" stroke="#000000" points="351.5,-528.5 351.5,-548.5 507.5,-548.5 507.5,-528.5 351.5,-528.5"/>
<text text-anchor="middle" x="429.5" y="-535.5" font-family="FreeSans" font-size="10.00" fill="#000000">Fun4All_G4_EICDetector_LQ</text>
</a>
</g>
</g>
<!-- Node2&#45;&gt;Node6 -->
<g id="edge5" class="edge">
<title>Node2&#45;&gt;Node6</title>
<path fill="none" stroke="#191970" d="M252.8766,-405.1606C268.0854,-434.8256 301.0237,-490.6225 346,-519.5 351.6297,-523.1146 357.8602,-526.0455 364.3065,-528.4214"/>
<polygon fill="#191970" stroke="#191970" points="255.8312,-403.2413 248.2458,-395.8445 249.5628,-406.3571 255.8312,-403.2413"/>
</g>
<!-- Node7 -->
<g id="node7" class="node">
<title>Node7</title>
<g id="a_node7"><a xlink:href="../../d4/df5/Fun4All__G4__EICDetector__LQ__reference_8C.html#a2feefc472f17f90b3cbe74897d049f75" target="_top" xlink:title="Fun4All_G4_EICDetector\l_LQ_reference">
<polygon fill="none" stroke="#000000" points="360,-645.5 360,-677.5 499,-677.5 499,-645.5 360,-645.5"/>
<text text-anchor="start" x="368" y="-664.5" font-family="FreeSans" font-size="10.00" fill="#000000">Fun4All_G4_EICDetector</text>
<text text-anchor="middle" x="429.5" y="-652.5" font-family="FreeSans" font-size="10.00" fill="#000000">_LQ_reference</text>
</a>
</g>
</g>
<!-- Node2&#45;&gt;Node7 -->
<g id="edge6" class="edge">
<title>Node2&#45;&gt;Node7</title>
<path fill="none" stroke="#191970" d="M250.9276,-404.9838C272.9273,-462.5118 336.792,-628.1428 346,-636.5 350.146,-640.2629 354.8377,-643.4603 359.8309,-646.1771"/>
<polygon fill="#191970" stroke="#191970" points="254.1669,-403.6556 247.3295,-395.5624 247.6276,-406.153 254.1669,-403.6556"/>
</g>
<!-- Node8 -->
<g id="node8" class="node">
<title>Node8</title>
<g id="a_node8"><a xlink:href="../../d3/d51/Fun4All__G4__EICDetector__RICH_8C.html#a5739502b0a7a1ba782c01069f77e933f" target="_top" xlink:title="Fun4All_G4_EICDetector_RICH">
<polygon fill="none" stroke="#000000" points="346,-606.5 346,-626.5 513,-626.5 513,-606.5 346,-606.5"/>
<text text-anchor="middle" x="429.5" y="-613.5" font-family="FreeSans" font-size="10.00" fill="#000000">Fun4All_G4_EICDetector_RICH</text>
</a>
</g>
</g>
<!-- Node2&#45;&gt;Node8 -->
<g id="edge7" class="edge">
<title>Node2&#45;&gt;Node8</title>
<path fill="none" stroke="#191970" d="M250.5315,-405.2523C267.8338,-452.7958 313.433,-571.5878 346,-597.5 350.5372,-601.1101 355.6299,-604.0612 361.0035,-606.4703"/>
<polygon fill="#191970" stroke="#191970" points="253.7932,-403.9793 247.1093,-395.7588 247.208,-406.3532 253.7932,-403.9793"/>
</g>
<!-- Node9 -->
<g id="node9" class="node">
<title>Node9</title>
<g id="a_node9"><a xlink:href="../../d7/d9e/Fun4All__G4__fsPHENIX_8C.html#af48911d394d2412e817583700f2bbee2" target="_top" xlink:title="Fun4All_G4_fsPHENIX">
<polygon fill="none" stroke="#000000" points="367.5,-180.5 367.5,-200.5 491.5,-200.5 491.5,-180.5 367.5,-180.5"/>
<text text-anchor="middle" x="429.5" y="-187.5" font-family="FreeSans" font-size="10.00" fill="#000000">Fun4All_G4_fsPHENIX</text>
</a>
</g>
</g>
<!-- Node2&#45;&gt;Node9 -->
<g id="edge8" class="edge">
<title>Node2&#45;&gt;Node9</title>
<path fill="none" stroke="#191970" d="M295.5691,-376.7414C300.9451,-374.1395 305.9211,-370.7946 310,-366.5 359.0024,-314.9066 295.8945,-261.0228 346,-210.5 351.9831,-204.467 359.4415,-200.1291 367.4215,-197.0305"/>
<polygon fill="#191970" stroke="#191970" points="294.2303,-373.5072 286.2318,-380.4552 296.8174,-380.0116 294.2303,-373.5072"/>
</g>
<!-- Node10 -->
<g id="node10" class="node">
<title>Node10</title>
<g id="a_node10"><a xlink:href="../../da/d2f/Fun4All__G4__fsPHENIX__FastSim_8C.html#a66fb850cae5fcaadda23b74a25ce4c9c" target="_top" xlink:title="Fun4All_G4_fsPHENIX\l_FastSim">
<polygon fill="none" stroke="#000000" points="367.5,-129.5 367.5,-161.5 491.5,-161.5 491.5,-129.5 367.5,-129.5"/>
<text text-anchor="start" x="375.5" y="-148.5" font-family="FreeSans" font-size="10.00" fill="#000000">Fun4All_G4_fsPHENIX</text>
<text text-anchor="middle" x="429.5" y="-136.5" font-family="FreeSans" font-size="10.00" fill="#000000">_FastSim</text>
</a>
</g>
</g>
<!-- Node2&#45;&gt;Node10 -->
<g id="edge9" class="edge">
<title>Node2&#45;&gt;Node10</title>
<path fill="none" stroke="#191970" d="M295.5483,-377.018C300.9722,-374.3717 305.9654,-370.9407 310,-366.5 369.2648,-301.2712 287.5078,-237.4225 346,-171.5 351.8446,-164.913 359.327,-159.9761 367.405,-156.2797"/>
<polygon fill="#191970" stroke="#191970" points="294.1072,-373.8243 286.1071,-380.7704 296.6927,-380.3294 294.1072,-373.8243"/>
</g>
<!-- Node11 -->
<g id="node11" class="node">
<title>Node11</title>
<g id="a_node11"><a xlink:href="../../d0/da6/Fun4All__G4__fsPHENIX__pi0_8C.html#a023d91d47b678e5d7f1751834aa517c6" target="_top" xlink:title="Fun4All_G4_fsPHENIX_pi0">
<polygon fill="none" stroke="#000000" points="357,-90.5 357,-110.5 502,-110.5 502,-90.5 357,-90.5"/>
<text text-anchor="middle" x="429.5" y="-97.5" font-family="FreeSans" font-size="10.00" fill="#000000">Fun4All_G4_fsPHENIX_pi0</text>
</a>
</g>
</g>
<!-- Node2&#45;&gt;Node11 -->
<g id="edge10" class="edge">
<title>Node2&#45;&gt;Node11</title>
<path fill="none" stroke="#191970" d="M295.7129,-377.1647C301.1085,-374.4932 306.0501,-371.0162 310,-366.5 383.0349,-282.9951 270.7144,-200.9815 346,-119.5 349.2286,-116.0057 352.9547,-113.0882 357.0035,-110.6577"/>
<polygon fill="#191970" stroke="#191970" points="294.2767,-373.9697 286.2988,-380.9414 296.883,-380.4664 294.2767,-373.9697"/>
</g>
<!-- Node12 -->
<g id="node12" class="node">
<title>Node12</title>
<g id="a_node12"><a xlink:href="../../d5/d2c/macros_2blob_2master_2macros_2g4simulations_2Fun4All__G4__sPHENIX_8C.html#a6eaaa492d7023ec86c562dc63aa1e5a4" target="_top" xlink:title="Fun4All_G4_sPHENIX">
<polygon fill="none" stroke="#000000" points="369,-51.5 369,-71.5 490,-71.5 490,-51.5 369,-51.5"/>
<text text-anchor="middle" x="429.5" y="-58.5" font-family="FreeSans" font-size="10.00" fill="#000000">Fun4All_G4_sPHENIX</text>
</a>
</g>
</g>
<!-- Node2&#45;&gt;Node12 -->
<g id="edge11" class="edge">
<title>Node2&#45;&gt;Node12</title>
<path fill="none" stroke="#191970" d="M295.5917,-377.342C301.0536,-374.6445 306.0443,-371.1129 310,-366.5 393.3979,-269.2477 259.9802,-175.4412 346,-80.5 352.189,-73.6691 360.2778,-69.0325 368.9833,-65.928"/>
<polygon fill="#191970" stroke="#191970" points="294.0514,-374.188 286.0546,-381.138 296.6401,-380.6917 294.0514,-374.188"/>
</g>
<!-- Node13 -->
<g id="node13" class="node">
<title>Node13</title>
<g id="a_node13"><a xlink:href="../../d3/de2/Fun4All__G4__sPHENIX__AnaGenFit_8C.html#a9bf3f2f72ed69a17e2d0c1121d48013c" target="_top" xlink:title="Fun4All_G4_sPHENIX\l_AnaGenFit">
<polygon fill="none" stroke="#000000" points="369,-.5 369,-32.5 490,-32.5 490,-.5 369,-.5"/>
<text text-anchor="start" x="377" y="-19.5" font-family="FreeSans" font-size="10.00" fill="#000000">Fun4All_G4_sPHENIX</text>
<text text-anchor="middle" x="429.5" y="-7.5" font-family="FreeSans" font-size="10.00" fill="#000000">_AnaGenFit</text>
</a>
</g>
</g>
<!-- Node2&#45;&gt;Node13 -->
<g id="edge12" class="edge">
<title>Node2&#45;&gt;Node13</title>
<path fill="none" stroke="#191970" d="M295.6583,-377.3987C301.1089,-374.6915 306.0787,-371.1422 310,-366.5 403.7792,-255.479 252.9225,-153.1099 346,-41.5 352.0089,-34.2947 360.0049,-29.1131 368.673,-25.3976"/>
<polygon fill="#191970" stroke="#191970" points="294.1202,-374.2441 286.1318,-381.2037 296.7167,-380.7447 294.1202,-374.2441"/>
</g>
<!-- Node14 -->
<g id="node14" class="node">
<title>Node14</title>
<g id="a_node14"><a xlink:href="../../da/dd0/Fun4All__G4__sPHENIX__photonjet_8C.html#a6f18519e216acc05399e562ea57ea77c" target="_top" xlink:title="Fun4All_G4_sPHENIX\l_photonjet">
<polygon fill="none" stroke="#000000" points="369,-477.5 369,-509.5 490,-509.5 490,-477.5 369,-477.5"/>
<text text-anchor="start" x="377" y="-496.5" font-family="FreeSans" font-size="10.00" fill="#000000">Fun4All_G4_sPHENIX</text>
<text text-anchor="middle" x="429.5" y="-484.5" font-family="FreeSans" font-size="10.00" fill="#000000">_photonjet</text>
</a>
</g>
</g>
<!-- Node2&#45;&gt;Node14 -->
<g id="edge13" class="edge">
<title>Node2&#45;&gt;Node14</title>
<path fill="none" stroke="#191970" d="M260.657,-402.99C279.8663,-421.657 312.6909,-450.9133 346,-468.5 353.0923,-472.2446 360.8269,-475.5103 368.6339,-478.3348"/>
<polygon fill="#191970" stroke="#191970" points="262.8654,-400.2512 253.2964,-395.7031 257.9406,-405.2258 262.8654,-400.2512"/>
</g>
<!-- Node15 -->
<g id="node15" class="node">
<title>Node15</title>
<g id="a_node15"><a xlink:href="../../da/d85/Fun4All__G4__sPHENIX__photons_8C.html#a02fbbd59878fe1299f58ed187e7214ba" target="_top" xlink:title="Fun4All_G4_sPHENIX\l_photons">
<polygon fill="none" stroke="#000000" points="369,-426.5 369,-458.5 490,-458.5 490,-426.5 369,-426.5"/>
<text text-anchor="start" x="377" y="-445.5" font-family="FreeSans" font-size="10.00" fill="#000000">Fun4All_G4_sPHENIX</text>
<text text-anchor="middle" x="429.5" y="-433.5" font-family="FreeSans" font-size="10.00" fill="#000000">_photons</text>
</a>
</g>
</g>
<!-- Node2&#45;&gt;Node15 -->
<g id="edge14" class="edge">
<title>Node2&#45;&gt;Node15</title>
<path fill="none" stroke="#191970" d="M284.99,-398.574C303.6268,-404.4154 325.9018,-411.3542 346,-417.5 355.5508,-420.4205 365.727,-423.4968 375.5713,-426.4545"/>
<polygon fill="#191970" stroke="#191970" points="285.9172,-395.1967 275.328,-395.5418 283.8211,-401.8755 285.9172,-395.1967"/>
</g>
<!-- Node16 -->
<g id="node16" class="node">
<title>Node16</title>
<g id="a_node16"><a xlink:href="../../de/d55/Fun4All__G4__sPHENIX__truthphotonjet_8C.html#a48a6f4503eaa1b3793d8ae572aa795b9" target="_top" xlink:title="Fun4All_G4_sPHENIX\l_truthphotonjet">
<polygon fill="none" stroke="#000000" points="369,-375.5 369,-407.5 490,-407.5 490,-375.5 369,-375.5"/>
<text text-anchor="start" x="377" y="-394.5" font-family="FreeSans" font-size="10.00" fill="#000000">Fun4All_G4_sPHENIX</text>
<text text-anchor="middle" x="429.5" y="-382.5" font-family="FreeSans" font-size="10.00" fill="#000000">_truthphotonjet</text>
</a>
</g>
</g>
<!-- Node2&#45;&gt;Node16 -->
<g id="edge15" class="edge">
<title>Node2&#45;&gt;Node16</title>
<path fill="none" stroke="#191970" d="M296.2418,-387.2013C318.8133,-387.9295 345.3054,-388.784 368.6972,-389.5386"/>
<polygon fill="#191970" stroke="#191970" points="296.2798,-383.7008 286.1722,-386.8765 296.0541,-390.6972 296.2798,-383.7008"/>
</g>
<!-- Node17 -->
<g id="node17" class="node">
<title>Node17</title>
<g id="a_node17"><a xlink:href="../../d4/d65/Fun4All__single__particle_8C.html#a8a492b5dbead494bfdddbebde8a49b0e" target="_top" xlink:title="Fun4All_single_particle">
<polygon fill="none" stroke="#000000" points="363.5,-336.5 363.5,-356.5 495.5,-356.5 495.5,-336.5 363.5,-336.5"/>
<text text-anchor="middle" x="429.5" y="-343.5" font-family="FreeSans" font-size="10.00" fill="#000000">Fun4All_single_particle</text>
</a>
</g>
</g>
<!-- Node2&#45;&gt;Node17 -->
<g id="edge16" class="edge">
<title>Node2&#45;&gt;Node17</title>
<path fill="none" stroke="#191970" d="M296.1909,-374.4519C323.1104,-368.8075 355.6169,-361.9916 381.791,-356.5035"/>
<polygon fill="#191970" stroke="#191970" points="295.241,-371.0749 286.1722,-376.5526 296.6776,-377.9259 295.241,-371.0749"/>
</g>
<!-- Node18 -->
<g id="node18" class="node">
<title>Node18</title>
<g id="a_node18"><a xlink:href="../../d0/d99/Jin__BJet_8C.html#a36169bfee2ed7efda633944d12aebad9" target="_top" xlink:title="Jin_BJet">
<polygon fill="none" stroke="#000000" points="402,-297.5 402,-317.5 457,-317.5 457,-297.5 402,-297.5"/>
<text text-anchor="middle" x="429.5" y="-304.5" font-family="FreeSans" font-size="10.00" fill="#000000">Jin_BJet</text>
</a>
</g>
</g>
<!-- Node2&#45;&gt;Node18 -->
<g id="edge17" class="edge">
<title>Node2&#45;&gt;Node18</title>
<path fill="none" stroke="#191970" d="M295.7791,-373.5868C300.7482,-371.5691 305.5762,-369.2235 310,-366.5 330.0876,-354.1333 325.65,-339.4298 346,-327.5 362.9748,-317.5488 384.6444,-312.5424 401.6543,-310.0272"/>
<polygon fill="#191970" stroke="#191970" points="294.3348,-370.387 286.1182,-377.0758 296.7126,-376.9708 294.3348,-370.387"/>
</g>
<!-- Node19 -->
<g id="node19" class="node">
<title>Node19</title>
<g id="a_node19"><a xlink:href="../../dd/db1/Wrapper_8cxx.html#abf1e42281903daa0752c80dd6c879fac" target="_top" xlink:title="Wrapper">
<polygon fill="none" stroke="#000000" points="399.5,-258.5 399.5,-278.5 459.5,-278.5 459.5,-258.5 399.5,-258.5"/>
<text text-anchor="middle" x="429.5" y="-265.5" font-family="FreeSans" font-size="10.00" fill="#000000">Wrapper</text>
</a>
</g>
</g>
<!-- Node2&#45;&gt;Node19 -->
<g id="edge18" class="edge">
<title>Node2&#45;&gt;Node19</title>
<path fill="none" stroke="#191970" d="M295.7791,-375.4124C300.9185,-373.0404 305.7826,-370.1128 310,-366.5 338.9961,-341.6604 316.4741,-312.7074 346,-288.5 360.8705,-276.3081 381.9567,-271.325 399.2185,-269.3812"/>
<polygon fill="#191970" stroke="#191970" points="294.3527,-372.212 286.311,-379.11 296.8991,-378.7324 294.3527,-372.212"/>
</g>
<!-- Node4 -->
<g id="node4" class="node">
<title>Node4</title>
<g id="a_node4"><a xlink:href="../../d3/d7f/Fun_8C.html#af69a3eef3ff244bb51f5740c6ecb5432" target="_top" xlink:title="Fun">
<polygon fill="none" stroke="#000000" points="549,-219.5 549,-239.5 583,-239.5 583,-219.5 549,-219.5"/>
<text text-anchor="middle" x="566" y="-226.5" font-family="FreeSans" font-size="10.00" fill="#000000">Fun</text>
</a>
</g>
</g>
<!-- Node3&#45;&gt;Node4 -->
<g id="edge3" class="edge">
<title>Node3&#45;&gt;Node4</title>
<path fill="none" stroke="#191970" d="M496.6941,-229.5C516.0852,-229.5 535.59,-229.5 548.9452,-229.5"/>
<polygon fill="#191970" stroke="#191970" points="496.5974,-226.0001 486.5974,-229.5 496.5974,-233.0001 496.5974,-226.0001"/>
</g>
<!-- Node20&#45;&gt;Node5 -->
<g id="edge20" class="edge">
<title>Node20&#45;&gt;Node5</title>
<path fill="none" stroke="#191970" d="M295.775,-577.5C315.6148,-577.5 338.5361,-577.5 359.7361,-577.5"/>
<polygon fill="#191970" stroke="#191970" points="295.7063,-574.0001 285.7063,-577.5 295.7062,-581.0001 295.7063,-574.0001"/>
</g>
<!-- Node20&#45;&gt;Node6 -->
<g id="edge21" class="edge">
<title>Node20&#45;&gt;Node6</title>
<path fill="none" stroke="#191970" d="M295.7241,-566.5498C322.6546,-560.9031 355.2731,-554.0637 381.5588,-548.5522"/>
<polygon fill="#191970" stroke="#191970" points="294.7752,-563.1726 285.7063,-568.6503 296.2117,-570.0236 294.7752,-563.1726"/>
</g>
<!-- Node20&#45;&gt;Node7 -->
<g id="edge22" class="edge">
<title>Node20&#45;&gt;Node7</title>
<path fill="none" stroke="#191970" d="M267.108,-593.1983C287.374,-606.1512 317.7077,-624.3175 346,-636.5 353.5052,-639.7317 361.5595,-642.7124 369.5972,-645.4042"/>
<polygon fill="#191970" stroke="#191970" points="268.8445,-590.153 258.5486,-587.6541 265.0389,-596.0282 268.8445,-590.153"/>
</g>
<!-- Node20&#45;&gt;Node8 -->
<g id="edge23" class="edge">
<title>Node20&#45;&gt;Node8</title>
<path fill="none" stroke="#191970" d="M295.7241,-588.4502C322.6546,-594.0969 355.2731,-600.9363 381.5588,-606.4478"/>
<polygon fill="#191970" stroke="#191970" points="296.2117,-584.9764 285.7063,-586.3497 294.7752,-591.8274 296.2117,-584.9764"/>
</g>
<!-- Node24&#45;&gt;Node3 -->
<g id="edge28" class="edge">
<title>Node24&#45;&gt;Node3</title>
<path fill="none" stroke="#191970" d="M305.0305,-331.2632C306.7641,-330.0997 308.427,-328.8475 310,-327.5 338.9961,-302.6604 316.4741,-273.7074 346,-249.5 353.6081,-243.2623 362.8434,-238.9116 372.361,-235.8894"/>
<polygon fill="#191970" stroke="#191970" points="302.8928,-328.4477 295.8625,-336.3739 306.3012,-334.5619 302.8928,-328.4477"/>
</g>
<!-- Node24&#45;&gt;Node5 -->
<g id="edge29" class="edge">
<title>Node24&#45;&gt;Node5</title>
<path fill="none" stroke="#191970" d="M305.6121,-362.2896C307.1708,-363.586 308.6403,-364.9867 310,-366.5 368.0271,-431.0805 285.7983,-495.9418 346,-558.5 350.0205,-562.6779 354.7539,-566.0237 359.8897,-568.6942"/>
<polygon fill="#191970" stroke="#191970" points="307.4256,-359.2919 297.1683,-356.639 303.5325,-365.1094 307.4256,-359.2919"/>
</g>
<!-- Node24&#45;&gt;Node6 -->
<g id="edge30" class="edge">
<title>Node24&#45;&gt;Node6</title>
<path fill="none" stroke="#191970" d="M305.4167,-362.2874C307.0402,-363.5838 308.575,-364.9853 310,-366.5 357.8656,-417.3811 296.4223,-470.2856 346,-519.5 349.5874,-523.0611 353.6948,-526.0115 358.1207,-528.4504"/>
<polygon fill="#191970" stroke="#191970" points="306.9603,-359.1182 296.6592,-356.6405 303.1668,-365.0012 306.9603,-359.1182"/>
</g>
<!-- Node24&#45;&gt;Node7 -->
<g id="edge31" class="edge">
<title>Node24&#45;&gt;Node7</title>
<path fill="none" stroke="#191970" d="M306.1903,-362.6121C307.5426,-363.8181 308.8175,-365.1119 310,-366.5 388.5076,-458.655 267.4353,-544.3936 346,-636.5 349.9281,-641.1052 354.6673,-644.8816 359.8681,-647.9758"/>
<polygon fill="#191970" stroke="#191970" points="307.8928,-359.5298 297.7045,-356.623 303.8563,-365.2488 307.8928,-359.5298"/>
</g>
<!-- Node24&#45;&gt;Node8 -->
<g id="edge32" class="edge">
<title>Node24&#45;&gt;Node8</title>
<path fill="none" stroke="#191970" d="M305.6734,-362.2354C307.2146,-363.5473 308.6637,-364.966 310,-366.5 378.25,-444.8479 275.1105,-521.532 346,-597.5 349.2458,-600.9783 352.9848,-603.8839 357.043,-606.3056"/>
<polygon fill="#191970" stroke="#191970" points="307.5303,-359.2654 297.2956,-356.5264 303.5883,-365.05 307.5303,-359.2654"/>
</g>
<!-- Node24&#45;&gt;Node9 -->
<g id="edge33" class="edge">
<title>Node24&#45;&gt;Node9</title>
<path fill="none" stroke="#191970" d="M305.9842,-330.9915C307.3895,-329.9044 308.7324,-328.7422 310,-327.5 348.8573,-289.4197 306.3291,-247.732 346,-210.5 352.0868,-204.7874 359.5063,-200.617 367.3841,-197.5875"/>
<polygon fill="#191970" stroke="#191970" points="303.94,-328.1426 297.3433,-336.4333 307.6703,-334.0659 303.94,-328.1426"/>
</g>
<!-- Node24&#45;&gt;Node10 -->
<g id="edge34" class="edge">
<title>Node24&#45;&gt;Node10</title>
<path fill="none" stroke="#191970" d="M306.6488,-330.6578C307.8206,-329.6669 308.9405,-328.6155 310,-327.5 359.0024,-275.9066 297.6088,-223.6671 346,-171.5 351.8856,-165.1552 359.2899,-160.3468 367.2447,-156.7052"/>
<polygon fill="#191970" stroke="#191970" points="304.5609,-327.8449 298.2554,-336.3591 308.4942,-333.6354 304.5609,-327.8449"/>
</g>
<!-- Node24&#45;&gt;Node11 -->
<g id="edge35" class="edge">
<title>Node24&#45;&gt;Node11</title>
<path fill="none" stroke="#191970" d="M306.6496,-330.8103C307.8268,-329.7744 308.9468,-328.6723 310,-327.5 372.7003,-257.71 281.4192,-187.5537 346,-119.5 349.3772,-115.9412 353.2712,-112.9842 357.4926,-110.533"/>
<polygon fill="#191970" stroke="#191970" points="304.3561,-328.1424 298.1521,-336.7307 308.3578,-333.8858 304.3561,-328.1424"/>
</g>
<!-- Node24&#45;&gt;Node12 -->
<g id="edge36" class="edge">
<title>Node24&#45;&gt;Node12</title>
<path fill="none" stroke="#191970" d="M306.692,-330.8479C307.8566,-329.8008 308.9625,-328.6862 310,-327.5 383.0349,-243.9951 270.7144,-161.9815 346,-80.5 352.1544,-73.8391 360.1169,-69.2737 368.6762,-66.1834"/>
<polygon fill="#191970" stroke="#191970" points="304.3934,-328.187 298.2575,-336.8242 308.4404,-333.8985 304.3934,-328.187"/>
</g>
<!-- Node24&#45;&gt;Node13 -->
<g id="edge37" class="edge">
<title>Node24&#45;&gt;Node13</title>
<path fill="none" stroke="#191970" d="M306.2832,-331.2712C307.601,-330.1023 308.8447,-328.8473 310,-327.5 393.3979,-230.2477 263.2168,-139.2761 346,-41.5 352.0624,-34.3397 360.086,-29.1813 368.7652,-25.4751"/>
<polygon fill="#191970" stroke="#191970" points="304.1973,-328.4591 298.0215,-337.0678 308.2179,-334.1894 304.1973,-328.4591"/>
</g>
<!-- Node24&#45;&gt;Node14 -->
<g id="edge38" class="edge">
<title>Node24&#45;&gt;Node14</title>
<path fill="none" stroke="#191970" d="M303.9691,-361.6097C306.1067,-363.0907 308.1299,-364.7161 310,-366.5 344.7853,-399.6828 311.1942,-435.3388 346,-468.5 352.464,-474.6585 360.3836,-479.3063 368.7446,-482.8125"/>
<polygon fill="#191970" stroke="#191970" points="305.6522,-358.5401 295.2394,-356.5843 302.1598,-364.6067 305.6522,-358.5401"/>
</g>
<!-- Node24&#45;&gt;Node15 -->
<g id="edge39" class="edge">
<title>Node24&#45;&gt;Node15</title>
<path fill="none" stroke="#191970" d="M300.3445,-360.6612C303.7335,-362.3911 306.9856,-364.3291 310,-366.5 332.514,-382.7141 323.4759,-401.2999 346,-417.5 352.8795,-422.448 360.7448,-426.4275 368.8355,-429.6256"/>
<polygon fill="#191970" stroke="#191970" points="301.6821,-357.4256 291.1234,-356.5518 298.8327,-363.8194 301.6821,-357.4256"/>
</g>
<!-- Node24&#45;&gt;Node16 -->
<g id="edge40" class="edge">
<title>Node24&#45;&gt;Node16</title>
<path fill="none" stroke="#191970" d="M295.0925,-358.9821C317.9561,-364.5136 345.0152,-371.0601 368.8399,-376.8242"/>
<polygon fill="#191970" stroke="#191970" points="295.7847,-355.5486 285.242,-356.5989 294.1386,-362.3523 295.7847,-355.5486"/>
</g>
<!-- Node24&#45;&gt;Node17 -->
<g id="edge41" class="edge">
<title>Node24&#45;&gt;Node17</title>
<path fill="none" stroke="#191970" d="M308.0978,-346.5C325.9946,-346.5 345.4438,-346.5 363.4237,-346.5"/>
<polygon fill="#191970" stroke="#191970" points="308.0494,-343.0001 298.0494,-346.5 308.0493,-350.0001 308.0494,-343.0001"/>
</g>
<!-- Node24&#45;&gt;Node18 -->
<g id="edge42" class="edge">
<title>Node24&#45;&gt;Node18</title>
<path fill="none" stroke="#191970" d="M301.5431,-334.3297C335.0359,-327.307 375.6079,-318.8 401.9581,-313.2749"/>
<polygon fill="#191970" stroke="#191970" points="300.4685,-330.9788 291.3996,-336.4565 301.9051,-337.8298 300.4685,-330.9788"/>
</g>
<!-- Node24&#45;&gt;Node19 -->
<g id="edge43" class="edge">
<title>Node24&#45;&gt;Node19</title>
<path fill="none" stroke="#191970" d="M300.5075,-332.5428C303.8032,-331.0258 306.9949,-329.3501 310,-327.5 330.0876,-315.1333 325.65,-300.4298 346,-288.5 362.2032,-279.0011 382.6842,-274.0077 399.3067,-271.3858"/>
<polygon fill="#191970" stroke="#191970" points="298.9532,-329.3966 291.0125,-336.4107 301.594,-335.8794 298.9532,-329.3966"/>
</g>
<!-- Node25&#45;&gt;Node3 -->
<g id="edge45" class="edge">
<title>Node25&#45;&gt;Node3</title>
<path fill="none" stroke="#191970" d="M300.5075,-293.5428C303.8032,-292.0258 306.9949,-290.3501 310,-288.5 330.0876,-276.1333 325.65,-261.4298 346,-249.5 354.1016,-244.7506 363.2727,-241.1275 372.4961,-238.3641"/>
<polygon fill="#191970" stroke="#191970" points="298.9532,-290.3966 291.0125,-297.4107 301.594,-296.8794 298.9532,-290.3966"/>
</g>
<!-- Node25&#45;&gt;Node5 -->
<g id="edge46" class="edge">
<title>Node25&#45;&gt;Node5</title>
<path fill="none" stroke="#191970" d="M305.6734,-323.2354C307.2146,-324.5473 308.6637,-325.966 310,-327.5 378.25,-405.8479 275.1105,-482.532 346,-558.5 349.9558,-562.7392 354.6442,-566.1277 359.7502,-568.8263"/>
<polygon fill="#191970" stroke="#191970" points="307.5303,-320.2654 297.2956,-317.5264 303.5883,-326.05 307.5303,-320.2654"/>
</g>
<!-- Node25&#45;&gt;Node6 -->
<g id="edge47" class="edge">
<title>Node25&#45;&gt;Node6</title>
<path fill="none" stroke="#191970" d="M305.6121,-323.2896C307.1708,-324.586 308.6403,-325.9867 310,-327.5 368.0271,-392.0805 285.7983,-456.9418 346,-519.5 349.4019,-523.0351 353.3143,-525.9745 357.549,-528.4131"/>
<polygon fill="#191970" stroke="#191970" points="307.4256,-320.2919 297.1683,-317.639 303.5325,-326.1094 307.4256,-320.2919"/>
</g>
<!-- Node25&#45;&gt;Node7 -->
<g id="edge48" class="edge">
<title>Node25&#45;&gt;Node7</title>
<path fill="none" stroke="#191970" d="M306.221,-323.5862C307.5643,-324.7997 308.829,-326.1022 310,-327.5 398.7868,-433.4875 257.1475,-530.5676 346,-636.5 349.8898,-641.1376 354.6027,-644.9363 359.7864,-648.045"/>
<polygon fill="#191970" stroke="#191970" points="307.9481,-320.5192 297.7736,-317.5646 303.8849,-326.2192 307.9481,-320.5192"/>
</g>
<!-- Node25&#45;&gt;Node8 -->
<g id="edge49" class="edge">
<title>Node25&#45;&gt;Node8</title>
<path fill="none" stroke="#191970" d="M306.1903,-323.6121C307.5426,-324.8181 308.8175,-326.1119 310,-327.5 388.5076,-419.655 264.3867,-508.0837 346,-597.5 349.2072,-601.0139 352.9173,-603.9461 356.9545,-606.3873"/>
<polygon fill="#191970" stroke="#191970" points="307.8928,-320.5298 297.7045,-317.623 303.8563,-326.2488 307.8928,-320.5298"/>
</g>
<!-- Node25&#45;&gt;Node9 -->
<g id="edge50" class="edge">
<title>Node25&#45;&gt;Node9</title>
<path fill="none" stroke="#191970" d="M305.0305,-292.2632C306.7641,-291.0997 308.427,-289.8475 310,-288.5 338.9961,-263.6604 316.4741,-234.7074 346,-210.5 352.2248,-205.3964 359.5389,-201.556 367.2057,-198.673"/>
<polygon fill="#191970" stroke="#191970" points="302.8928,-289.4477 295.8625,-297.3739 306.3012,-295.5619 302.8928,-289.4477"/>
</g>
<!-- Node25&#45;&gt;Node10 -->
<g id="edge51" class="edge">
<title>Node25&#45;&gt;Node10</title>
<path fill="none" stroke="#191970" d="M305.9842,-291.9915C307.3895,-290.9044 308.7324,-289.7422 310,-288.5 348.8573,-250.4197 307.594,-210.0354 346,-171.5 352.0021,-165.4777 359.3738,-160.8461 367.2288,-157.2848"/>
<polygon fill="#191970" stroke="#191970" points="303.94,-289.1426 297.3433,-297.4333 307.6703,-295.0659 303.94,-289.1426"/>
</g>
<!-- Node25&#45;&gt;Node11 -->
<g id="edge52" class="edge">
<title>Node25&#45;&gt;Node11</title>
<path fill="none" stroke="#191970" d="M306.6744,-291.682C307.8386,-290.6838 308.95,-289.6244 310,-288.5 362.4141,-232.3712 292.0743,-174.1781 346,-119.5 349.445,-116.0069 353.3894,-113.0986 357.6471,-110.6825"/>
<polygon fill="#191970" stroke="#191970" points="304.5816,-288.8733 298.3195,-297.4195 308.5443,-294.6437 304.5816,-288.8733"/>
</g>
<!-- Node25&#45;&gt;Node12 -->
<g id="edge53" class="edge">
<title>Node25&#45;&gt;Node12</title>
<path fill="none" stroke="#191970" d="M307.1505,-291.3622C308.1454,-290.458 309.0972,-289.5048 310,-288.5 372.7003,-218.71 281.4192,-148.5537 346,-80.5 352.2426,-73.9216 360.2512,-69.3995 368.8298,-66.3272"/>
<polygon fill="#191970" stroke="#191970" points="304.8592,-288.6989 298.7814,-297.3771 308.9444,-294.3831 304.8592,-288.6989"/>
</g>
<!-- Node25&#45;&gt;Node13 -->
<g id="edge54" class="edge">
<title>Node25&#45;&gt;Node13</title>
<path fill="none" stroke="#191970" d="M307.1875,-291.395C308.1712,-290.4809 309.1107,-289.5168 310,-288.5 383.0349,-204.9951 273.493,-125.4637 346,-41.5 352.1319,-34.3992 360.1914,-29.2714 368.8851,-25.5776"/>
<polygon fill="#191970" stroke="#191970" points="304.8894,-288.7395 298.8837,-297.4678 309.0216,-294.3897 304.8894,-288.7395"/>
</g>
<!-- Node25&#45;&gt;Node14 -->
<g id="edge55" class="edge">
<title>Node25&#45;&gt;Node14</title>
<path fill="none" stroke="#191970" d="M304.8526,-322.9137C306.6816,-324.3133 308.407,-325.8383 310,-327.5 354.7592,-374.1875 301.2119,-421.8402 346,-468.5 352.2874,-475.0501 360.2143,-479.9032 368.667,-483.4948"/>
<polygon fill="#191970" stroke="#191970" points="306.5936,-319.8745 296.2577,-317.5464 302.8858,-325.8119 306.5936,-319.8745"/>
</g>
<!-- Node25&#45;&gt;Node15 -->
<g id="edge56" class="edge">
<title>Node25&#45;&gt;Node15</title>
<path fill="none" stroke="#191970" d="M303.745,-322.6189C305.9562,-324.097 308.0546,-325.7194 310,-327.5 341.7788,-356.5879 314.2032,-388.4317 346,-417.5 352.5895,-423.524 360.5768,-428.0993 368.9677,-431.5735"/>
<polygon fill="#191970" stroke="#191970" points="305.182,-319.413 294.7429,-317.6029 301.7748,-325.5278 305.182,-319.413"/>
</g>
<!-- Node25&#45;&gt;Node16 -->
<g id="edge57" class="edge">
<title>Node25&#45;&gt;Node16</title>
<path fill="none" stroke="#191970" d="M298.4628,-321.4126C302.4835,-323.214 306.3774,-325.2351 310,-327.5 330.0015,-340.0054 325.9908,-354.007 346,-366.5 353.0597,-370.9078 360.9401,-374.5756 368.9628,-377.6179"/>
<polygon fill="#191970" stroke="#191970" points="299.5036,-318.0594 288.9189,-317.5967 296.9048,-324.5591 299.5036,-318.0594"/>
</g>
<!-- Node25&#45;&gt;Node17 -->
<g id="edge58" class="edge">
<title>Node25&#45;&gt;Node17</title>
<path fill="none" stroke="#191970" d="M301.4315,-319.6469C327.2404,-325.0585 357.271,-331.3552 381.7627,-336.4906"/>
<polygon fill="#191970" stroke="#191970" points="301.9051,-316.1702 291.3996,-317.5435 300.4685,-323.0212 301.9051,-316.1702"/>
</g>
<!-- Node25&#45;&gt;Node18 -->
<g id="edge59" class="edge">
<title>Node25&#45;&gt;Node18</title>
<path fill="none" stroke="#191970" d="M309.2029,-307.5C341.033,-307.5 377.5442,-307.5 401.9147,-307.5"/>
<polygon fill="#191970" stroke="#191970" points="309.0542,-304.0001 299.0542,-307.5 309.0542,-311.0001 309.0542,-304.0001"/>
</g>
<!-- Node25&#45;&gt;Node19 -->
<g id="edge60" class="edge">
<title>Node25&#45;&gt;Node19</title>
<path fill="none" stroke="#191970" d="M301.2245,-295.3965C333.6461,-288.5984 372.7828,-280.3923 399.2343,-274.846"/>
<polygon fill="#191970" stroke="#191970" points="300.4685,-291.9788 291.3996,-297.4565 301.9051,-298.8298 300.4685,-291.9788"/>
</g>
</g>
</svg>
