<?xml version="1.0" encoding="UTF-8" standalone="no"?>
<!DOCTYPE svg PUBLIC "-//W3C//DTD SVG 1.1//EN"
 "http://www.w3.org/Graphics/SVG/1.1/DTD/svg11.dtd">
<!-- Generated by graphviz version 2.40.1 (20161225.0304)
 -->
<!-- Title: coresoftware/blob/master/simulation/g4simulation/g4vertex/GlobalVertex.h Pages: 1 -->
<svg width="2804pt" height="215pt"
 viewBox="0.00 0.00 2804.00 215.00" xmlns="http://www.w3.org/2000/svg" xmlns:xlink="http://www.w3.org/1999/xlink">
<g id="graph0" class="graph" transform="scale(1 1) rotate(0) translate(4 211)">
<title>coresoftware/blob/master/simulation/g4simulation/g4vertex/GlobalVertex.h</title>
<!-- Node1 -->
<g id="node1" class="node">
<title>Node1</title>
<polygon fill="#bfbfbf" stroke="#000000" points="1212.5,-162.5 1212.5,-206.5 1358.5,-206.5 1358.5,-162.5 1212.5,-162.5"/>
<text text-anchor="start" x="1220.5" y="-193.5" font-family="FreeSans" font-size="10.00" fill="#000000">coresoftware/blob/master</text>
<text text-anchor="start" x="1220.5" y="-181.5" font-family="FreeSans" font-size="10.00" fill="#000000">/simulation/g4simulation</text>
<text text-anchor="middle" x="1285.5" y="-169.5" font-family="FreeSans" font-size="10.00" fill="#000000">/g4vertex/GlobalVertex.h</text>
</g>
<!-- Node2 -->
<g id="node2" class="node">
<title>Node2</title>
<g id="a_node2"><a xlink:href="../../d6/d12/ClusterIso_8cc.html" target="_top" xlink:title="coresoftware/blob/master\l/offline/packages/ClusterIso\l/ClusterIso.cc">
<polygon fill="none" stroke="#000000" points="0,-81.5 0,-125.5 157,-125.5 157,-81.5 0,-81.5"/>
<text text-anchor="start" x="8" y="-112.5" font-family="FreeSans" font-size="10.00" fill="#000000">coresoftware/blob/master</text>
<text text-anchor="start" x="8" y="-100.5" font-family="FreeSans" font-size="10.00" fill="#000000">/offline/packages/ClusterIso</text>
<text text-anchor="middle" x="78.5" y="-88.5" font-family="FreeSans" font-size="10.00" fill="#000000">/ClusterIso.cc</text>
</a>
</g>
</g>
<!-- Node1&#45;&gt;Node2 -->
<g id="edge1" class="edge">
<title>Node1&#45;&gt;Node2</title>
<path fill="none" stroke="#191970" d="M1202.3047,-182.2882C978.3481,-175.9929 366.2023,-156.4426 166.5,-126 163.3822,-125.5247 160.2144,-124.9864 157.0235,-124.3977"/>
<polygon fill="#191970" stroke="#191970" points="1202.259,-185.7882 1212.353,-182.5691 1202.4547,-178.791 1202.259,-185.7882"/>
</g>
<!-- Node3 -->
<g id="node3" class="node">
<title>Node3</title>
<g id="a_node3"><a xlink:href="../../de/dfa/DumpGlobalVertexMap_8cc.html" target="_top" xlink:title="coresoftware/blob/master\l/offline/packages/NodeDump\l/DumpGlobalVertexMap.cc">
<polygon fill="none" stroke="#000000" points="175.5,-81.5 175.5,-125.5 339.5,-125.5 339.5,-81.5 175.5,-81.5"/>
<text text-anchor="start" x="183.5" y="-112.5" font-family="FreeSans" font-size="10.00" fill="#000000">coresoftware/blob/master</text>
<text text-anchor="start" x="183.5" y="-100.5" font-family="FreeSans" font-size="10.00" fill="#000000">/offline/packages/NodeDump</text>
<text text-anchor="middle" x="257.5" y="-88.5" font-family="FreeSans" font-size="10.00" fill="#000000">/DumpGlobalVertexMap.cc</text>
</a>
</g>
</g>
<!-- Node1&#45;&gt;Node3 -->
<g id="edge2" class="edge">
<title>Node1&#45;&gt;Node3</title>
<path fill="none" stroke="#191970" d="M1202.2273,-181.2267C1004.6537,-173.1489 511.8961,-151.0914 348.5,-126 345.6046,-125.5554 342.6664,-125.062 339.7058,-124.529"/>
<polygon fill="#191970" stroke="#191970" points="1202.1278,-184.7254 1212.2619,-181.6353 1202.4126,-177.7312 1202.1278,-184.7254"/>
</g>
<!-- Node4 -->
<g id="node4" class="node">
<title>Node4</title>
<g id="a_node4"><a xlink:href="../../d0/d13/CaloEvaluator_8cc.html" target="_top" xlink:title="coresoftware/blob/master\l/simulation/g4simulation\l/g4eval/CaloEvaluator.cc">
<polygon fill="none" stroke="#000000" points="357.5,-81.5 357.5,-125.5 503.5,-125.5 503.5,-81.5 357.5,-81.5"/>
<text text-anchor="start" x="365.5" y="-112.5" font-family="FreeSans" font-size="10.00" fill="#000000">coresoftware/blob/master</text>
<text text-anchor="start" x="365.5" y="-100.5" font-family="FreeSans" font-size="10.00" fill="#000000">/simulation/g4simulation</text>
<text text-anchor="middle" x="430.5" y="-88.5" font-family="FreeSans" font-size="10.00" fill="#000000">/g4eval/CaloEvaluator.cc</text>
</a>
</g>
</g>
<!-- Node1&#45;&gt;Node4 -->
<g id="edge3" class="edge">
<title>Node1&#45;&gt;Node4</title>
<path fill="none" stroke="#191970" d="M1202.2573,-180.2293C1030.7524,-171.0976 643.167,-148.6542 512.5,-126 509.5909,-125.4956 506.6359,-124.9328 503.6599,-124.3236"/>
<polygon fill="#191970" stroke="#191970" points="1202.0742,-183.7244 1212.2456,-180.7591 1202.445,-176.7342 1202.0742,-183.7244"/>
</g>
<!-- Node5 -->
<g id="node5" class="node">
<title>Node5</title>
<g id="a_node5"><a xlink:href="../../d3/d8a/ClusterJetInput_8cc.html" target="_top" xlink:title="coresoftware/blob/master\l/simulation/g4simulation\l/g4jets/ClusterJetInput.cc">
<polygon fill="none" stroke="#000000" points="521.5,-81.5 521.5,-125.5 667.5,-125.5 667.5,-81.5 521.5,-81.5"/>
<text text-anchor="start" x="529.5" y="-112.5" font-family="FreeSans" font-size="10.00" fill="#000000">coresoftware/blob/master</text>
<text text-anchor="start" x="529.5" y="-100.5" font-family="FreeSans" font-size="10.00" fill="#000000">/simulation/g4simulation</text>
<text text-anchor="middle" x="594.5" y="-88.5" font-family="FreeSans" font-size="10.00" fill="#000000">/g4jets/ClusterJetInput.cc</text>
</a>
</g>
</g>
<!-- Node1&#45;&gt;Node5 -->
<g id="edge4" class="edge">
<title>Node1&#45;&gt;Node5</title>
<path fill="none" stroke="#191970" d="M1202.2504,-181.0421C1084.3898,-175.1207 862.512,-160.1911 676.5,-126 673.5962,-125.4662 670.6456,-124.8786 667.6733,-124.2486"/>
<polygon fill="#191970" stroke="#191970" points="1202.1269,-184.5402 1212.2872,-181.5371 1202.4718,-177.5487 1202.1269,-184.5402"/>
</g>
<!-- Node6 -->
<g id="node6" class="node">
<title>Node6</title>
<g id="a_node6"><a xlink:href="../../d4/d53/TowerJetInput_8cc.html" target="_top" xlink:title="coresoftware/blob/master\l/simulation/g4simulation\l/g4jets/TowerJetInput.cc">
<polygon fill="none" stroke="#000000" points="685.5,-81.5 685.5,-125.5 831.5,-125.5 831.5,-81.5 685.5,-81.5"/>
<text text-anchor="start" x="693.5" y="-112.5" font-family="FreeSans" font-size="10.00" fill="#000000">coresoftware/blob/master</text>
<text text-anchor="start" x="693.5" y="-100.5" font-family="FreeSans" font-size="10.00" fill="#000000">/simulation/g4simulation</text>
<text text-anchor="middle" x="758.5" y="-88.5" font-family="FreeSans" font-size="10.00" fill="#000000">/g4jets/TowerJetInput.cc</text>
</a>
</g>
</g>
<!-- Node1&#45;&gt;Node6 -->
<g id="edge5" class="edge">
<title>Node1&#45;&gt;Node6</title>
<path fill="none" stroke="#191970" d="M1202.2467,-176.4633C1113.4014,-167.1813 968.7631,-150.042 845.5,-126 841.0594,-125.1339 836.5084,-124.1752 831.929,-123.1562"/>
<polygon fill="#191970" stroke="#191970" points="1201.9584,-179.9521 1212.2659,-177.5014 1202.6798,-172.9894 1201.9584,-179.9521"/>
</g>
<!-- Node7 -->
<g id="node7" class="node">
<title>Node7</title>
<g id="a_node7"><a xlink:href="../../d5/d49/GlobalVertexMapv1_8h.html" target="_top" xlink:title="coresoftware/blob/master\l/simulation/g4simulation\l/g4vertex/GlobalVertexMapv1.h">
<polygon fill="none" stroke="#000000" points="1062,-81.5 1062,-125.5 1239,-125.5 1239,-81.5 1062,-81.5"/>
<text text-anchor="start" x="1070" y="-112.5" font-family="FreeSans" font-size="10.00" fill="#000000">coresoftware/blob/master</text>
<text text-anchor="start" x="1070" y="-100.5" font-family="FreeSans" font-size="10.00" fill="#000000">/simulation/g4simulation</text>
<text text-anchor="middle" x="1150.5" y="-88.5" font-family="FreeSans" font-size="10.00" fill="#000000">/g4vertex/GlobalVertexMapv1.h</text>
</a>
</g>
</g>
<!-- Node1&#45;&gt;Node7 -->
<g id="edge6" class="edge">
<title>Node1&#45;&gt;Node7</title>
<path fill="none" stroke="#191970" d="M1239.8823,-157.1294C1222.773,-146.8638 1203.5604,-135.3362 1187.3447,-125.6068"/>
<polygon fill="#191970" stroke="#191970" points="1238.235,-160.2226 1248.6107,-162.3664 1241.8365,-154.2202 1238.235,-160.2226"/>
</g>
<!-- Node8 -->
<g id="node8" class="node">
<title>Node8</title>
<g id="a_node8"><a xlink:href="../../d4/db0/GlobalVertexFastSimReco_8cc.html" target="_top" xlink:title="coresoftware/blob/master\l/simulation/g4simulation\l/g4vertex/GlobalVertexFastSimReco.cc">
<polygon fill="none" stroke="#000000" points="656.5,-.5 656.5,-44.5 868.5,-44.5 868.5,-.5 656.5,-.5"/>
<text text-anchor="start" x="664.5" y="-31.5" font-family="FreeSans" font-size="10.00" fill="#000000">coresoftware/blob/master</text>
<text text-anchor="start" x="664.5" y="-19.5" font-family="FreeSans" font-size="10.00" fill="#000000">/simulation/g4simulation</text>
<text text-anchor="middle" x="762.5" y="-7.5" font-family="FreeSans" font-size="10.00" fill="#000000">/g4vertex/GlobalVertexFastSimReco.cc</text>
</a>
</g>
</g>
<!-- Node1&#45;&gt;Node8 -->
<g id="edge10" class="edge">
<title>Node1&#45;&gt;Node8</title>
<path fill="none" stroke="#191970" d="M1202.3356,-179.5094C1099.8356,-172.171 932.5789,-155.9765 878.5,-126 855.6051,-113.3091 859.5367,-98.9677 840.5,-81 826.5898,-67.8709 809.7623,-54.9343 795.303,-44.5782"/>
<polygon fill="#191970" stroke="#191970" points="1202.1325,-183.0036 1212.3533,-180.2132 1202.6232,-176.0208 1202.1325,-183.0036"/>
</g>
<!-- Node9 -->
<g id="node9" class="node">
<title>Node9</title>
<g id="a_node9"><a xlink:href="../../d5/d5d/GlobalVertexMapv1_8cc.html" target="_top" xlink:title="coresoftware/blob/master\l/simulation/g4simulation\l/g4vertex/GlobalVertexMapv1.cc">
<polygon fill="none" stroke="#000000" points="1254.5,-.5 1254.5,-44.5 1436.5,-44.5 1436.5,-.5 1254.5,-.5"/>
<text text-anchor="start" x="1262.5" y="-31.5" font-family="FreeSans" font-size="10.00" fill="#000000">coresoftware/blob/master</text>
<text text-anchor="start" x="1262.5" y="-19.5" font-family="FreeSans" font-size="10.00" fill="#000000">/simulation/g4simulation</text>
<text text-anchor="middle" x="1345.5" y="-7.5" font-family="FreeSans" font-size="10.00" fill="#000000">/g4vertex/GlobalVertexMapv1.cc</text>
</a>
</g>
</g>
<!-- Node1&#45;&gt;Node9 -->
<g id="edge15" class="edge">
<title>Node1&#45;&gt;Node9</title>
<path fill="none" stroke="#191970" d="M1297.3197,-152.5867C1309.1213,-120.7226 1326.9489,-72.588 1337.2862,-44.6771"/>
<polygon fill="#191970" stroke="#191970" points="1293.908,-151.7212 1293.7169,-162.3143 1300.4723,-154.1524 1293.908,-151.7212"/>
</g>
<!-- Node10 -->
<g id="node10" class="node">
<title>Node10</title>
<g id="a_node10"><a xlink:href="../../d5/d60/GlobalVertexReco_8cc.html" target="_top" xlink:title="coresoftware/blob/master\l/simulation/g4simulation\l/g4vertex/GlobalVertexReco.cc">
<polygon fill="none" stroke="#000000" points="1064.5,-.5 1064.5,-44.5 1236.5,-44.5 1236.5,-.5 1064.5,-.5"/>
<text text-anchor="start" x="1072.5" y="-31.5" font-family="FreeSans" font-size="10.00" fill="#000000">coresoftware/blob/master</text>
<text text-anchor="start" x="1072.5" y="-19.5" font-family="FreeSans" font-size="10.00" fill="#000000">/simulation/g4simulation</text>
<text text-anchor="middle" x="1150.5" y="-7.5" font-family="FreeSans" font-size="10.00" fill="#000000">/g4vertex/GlobalVertexReco.cc</text>
</a>
</g>
</g>
<!-- Node1&#45;&gt;Node10 -->
<g id="edge16" class="edge">
<title>Node1&#45;&gt;Node10</title>
<path fill="none" stroke="#191970" d="M1279.9317,-152.2393C1274.8017,-130.2386 1265.3411,-101.4893 1248.5,-81 1236.1068,-65.9222 1218.7422,-53.7866 1202.0666,-44.5613"/>
<polygon fill="#191970" stroke="#191970" points="1276.533,-153.0828 1282.0553,-162.1247 1283.3768,-151.6126 1276.533,-153.0828"/>
</g>
<!-- Node11 -->
<g id="node11" class="node">
<title>Node11</title>
<g id="a_node11"><a xlink:href="../../d2/d3d/GlobalVertexv1_8h.html" target="_top" xlink:title="coresoftware/blob/master\l/simulation/g4simulation\l/g4vertex/GlobalVertexv1.h">
<polygon fill="none" stroke="#000000" points="887.5,-81.5 887.5,-125.5 1043.5,-125.5 1043.5,-81.5 887.5,-81.5"/>
<text text-anchor="start" x="895.5" y="-112.5" font-family="FreeSans" font-size="10.00" fill="#000000">coresoftware/blob/master</text>
<text text-anchor="start" x="895.5" y="-100.5" font-family="FreeSans" font-size="10.00" fill="#000000">/simulation/g4simulation</text>
<text text-anchor="middle" x="965.5" y="-88.5" font-family="FreeSans" font-size="10.00" fill="#000000">/g4vertex/GlobalVertexv1.h</text>
</a>
</g>
</g>
<!-- Node1&#45;&gt;Node11 -->
<g id="edge11" class="edge">
<title>Node1&#45;&gt;Node11</title>
<path fill="none" stroke="#191970" d="M1202.5015,-163.6423C1158.2588,-152.5062 1102.9077,-138.5455 1053.5,-126 1050.2903,-125.185 1047.0151,-124.3523 1043.7066,-123.5103"/>
<polygon fill="#191970" stroke="#191970" points="1201.79,-167.0723 1212.3418,-166.1187 1203.4984,-160.284 1201.79,-167.0723"/>
</g>
<!-- Node13 -->
<g id="node13" class="node">
<title>Node13</title>
<g id="a_node13"><a xlink:href="../../d7/d51/DISKinematicsReco_8C.html" target="_top" xlink:title="analysis/blob/master\l/EICAnalysis/DISKinematicsReco.C">
<polygon fill="none" stroke="#000000" points="1333,-87.5 1333,-119.5 1522,-119.5 1522,-87.5 1333,-87.5"/>
<text text-anchor="start" x="1341" y="-106.5" font-family="FreeSans" font-size="10.00" fill="#000000">analysis/blob/master</text>
<text text-anchor="middle" x="1427.5" y="-94.5" font-family="FreeSans" font-size="10.00" fill="#000000">/EICAnalysis/DISKinematicsReco.C</text>
</a>
</g>
</g>
<!-- Node1&#45;&gt;Node13 -->
<g id="edge17" class="edge">
<title>Node1&#45;&gt;Node13</title>
<path fill="none" stroke="#191970" d="M1333.1342,-157.3284C1355.0229,-144.8426 1380.2463,-130.4546 1399.1055,-119.6969"/>
<polygon fill="#191970" stroke="#191970" points="1331.2541,-154.3714 1324.3021,-162.3664 1334.7225,-160.4517 1331.2541,-154.3714"/>
</g>
<!-- Node14 -->
<g id="node14" class="node">
<title>Node14</title>
<g id="a_node14"><a xlink:href="../../d0/dfd/LeptoquarksReco_8C.html" target="_top" xlink:title="analysis/blob/master\l/EICAnalysis/LeptoquarksReco.C">
<polygon fill="none" stroke="#000000" points="1540,-87.5 1540,-119.5 1719,-119.5 1719,-87.5 1540,-87.5"/>
<text text-anchor="start" x="1548" y="-106.5" font-family="FreeSans" font-size="10.00" fill="#000000">analysis/blob/master</text>
<text text-anchor="middle" x="1629.5" y="-94.5" font-family="FreeSans" font-size="10.00" fill="#000000">/EICAnalysis/LeptoquarksReco.C</text>
</a>
</g>
</g>
<!-- Node1&#45;&gt;Node14 -->
<g id="edge18" class="edge">
<title>Node1&#45;&gt;Node14</title>
<path fill="none" stroke="#191970" d="M1368.9249,-164.8564C1427.9887,-150.9489 1506.2174,-132.5288 1561.4981,-119.5121"/>
<polygon fill="#191970" stroke="#191970" points="1367.8063,-161.5239 1358.8747,-167.2228 1369.4107,-168.3376 1367.8063,-161.5239"/>
</g>
<!-- Node15 -->
<g id="node15" class="node">
<title>Node15</title>
<g id="a_node15"><a xlink:href="../../dd/d4c/TrackProjectionTools_8C.html" target="_top" xlink:title="analysis/blob/master\l/EICAnalysis/TrackProjection\lTools.C">
<polygon fill="none" stroke="#000000" points="1737.5,-81.5 1737.5,-125.5 1895.5,-125.5 1895.5,-81.5 1737.5,-81.5"/>
<text text-anchor="start" x="1745.5" y="-112.5" font-family="FreeSans" font-size="10.00" fill="#000000">analysis/blob/master</text>
<text text-anchor="start" x="1745.5" y="-100.5" font-family="FreeSans" font-size="10.00" fill="#000000">/EICAnalysis/TrackProjection</text>
<text text-anchor="middle" x="1816.5" y="-88.5" font-family="FreeSans" font-size="10.00" fill="#000000">Tools.C</text>
</a>
</g>
</g>
<!-- Node1&#45;&gt;Node15 -->
<g id="edge19" class="edge">
<title>Node1&#45;&gt;Node15</title>
<path fill="none" stroke="#191970" d="M1368.9133,-176.4788C1458.3205,-167.1849 1604.1838,-150.0125 1728.5,-126 1731.4418,-125.4318 1734.4316,-124.824 1737.4462,-124.1856"/>
<polygon fill="#191970" stroke="#191970" points="1368.4205,-173.0109 1358.8322,-177.5182 1369.1385,-179.974 1368.4205,-173.0109"/>
</g>
<!-- Node16 -->
<g id="node16" class="node">
<title>Node16</title>
<g id="a_node16"><a xlink:href="../../d1/db2/PHFlowJetMaker_8C.html" target="_top" xlink:title="analysis/blob/master\l/PHFlowJetMaker/PHFlowJetMaker.C">
<polygon fill="none" stroke="#000000" points="1913.5,-87.5 1913.5,-119.5 2107.5,-119.5 2107.5,-87.5 1913.5,-87.5"/>
<text text-anchor="start" x="1921.5" y="-106.5" font-family="FreeSans" font-size="10.00" fill="#000000">analysis/blob/master</text>
<text text-anchor="middle" x="2010.5" y="-94.5" font-family="FreeSans" font-size="10.00" fill="#000000">/PHFlowJetMaker/PHFlowJetMaker.C</text>
</a>
</g>
</g>
<!-- Node1&#45;&gt;Node16 -->
<g id="edge20" class="edge">
<title>Node1&#45;&gt;Node16</title>
<path fill="none" stroke="#191970" d="M1368.8817,-179.6732C1488.116,-172.0793 1713.9831,-155.1239 1904.5,-126 1916.216,-124.209 1928.585,-121.9369 1940.5763,-119.5289"/>
<polygon fill="#191970" stroke="#191970" points="1368.4913,-176.1908 1358.7315,-180.3134 1368.932,-183.1769 1368.4913,-176.1908"/>
</g>
<!-- Node17 -->
<g id="node17" class="node">
<title>Node17</title>
<g id="a_node17"><a xlink:href="../../d5/db3/PhotonJet_8C.html" target="_top" xlink:title="analysis/blob/master\l/PhotonJet/PhotonJet.C">
<polygon fill="none" stroke="#000000" points="2125.5,-87.5 2125.5,-119.5 2255.5,-119.5 2255.5,-87.5 2125.5,-87.5"/>
<text text-anchor="start" x="2133.5" y="-106.5" font-family="FreeSans" font-size="10.00" fill="#000000">analysis/blob/master</text>
<text text-anchor="middle" x="2190.5" y="-94.5" font-family="FreeSans" font-size="10.00" fill="#000000">/PhotonJet/PhotonJet.C</text>
</a>
</g>
</g>
<!-- Node1&#45;&gt;Node17 -->
<g id="edge21" class="edge">
<title>Node1&#45;&gt;Node17</title>
<path fill="none" stroke="#191970" d="M1368.7277,-181.0228C1549.8245,-173.0685 1974.7378,-152.1959 2116.5,-126 2125.3469,-124.3652 2134.6318,-122.0449 2143.5194,-119.51"/>
<polygon fill="#191970" stroke="#191970" points="1368.5592,-177.5267 1358.7216,-181.46 1368.8649,-184.52 1368.5592,-177.5267"/>
</g>
<!-- Node18 -->
<g id="node18" class="node">
<title>Node18</title>
<g id="a_node18"><a xlink:href="../../d0/d4a/Forward__pi0s_8C.html" target="_top" xlink:title="analysis/blob/master\l/PhotonJet/Photons/Forward\l_pi0s.C">
<polygon fill="none" stroke="#000000" points="2273.5,-81.5 2273.5,-125.5 2429.5,-125.5 2429.5,-81.5 2273.5,-81.5"/>
<text text-anchor="start" x="2281.5" y="-112.5" font-family="FreeSans" font-size="10.00" fill="#000000">analysis/blob/master</text>
<text text-anchor="start" x="2281.5" y="-100.5" font-family="FreeSans" font-size="10.00" fill="#000000">/PhotonJet/Photons/Forward</text>
<text text-anchor="middle" x="2351.5" y="-88.5" font-family="FreeSans" font-size="10.00" fill="#000000">_pi0s.C</text>
</a>
</g>
</g>
<!-- Node1&#45;&gt;Node18 -->
<g id="edge22" class="edge">
<title>Node1&#45;&gt;Node18</title>
<path fill="none" stroke="#191970" d="M1368.8697,-181.5936C1572.8502,-174.1479 2092.899,-153.0558 2264.5,-126 2267.428,-125.5383 2270.4007,-125.0213 2273.3952,-124.4596"/>
<polygon fill="#191970" stroke="#191970" points="1368.6788,-178.0981 1358.8125,-181.9589 1368.933,-185.0935 1368.6788,-178.0981"/>
</g>
<!-- Node19 -->
<g id="node19" class="node">
<title>Node19</title>
<g id="a_node19"><a xlink:href="../../da/da2/Photons_8C.html" target="_top" xlink:title="analysis/blob/master\l/PhotonJet/Photons/Photons.C">
<polygon fill="none" stroke="#000000" points="2448,-87.5 2448,-119.5 2615,-119.5 2615,-87.5 2448,-87.5"/>
<text text-anchor="start" x="2456" y="-106.5" font-family="FreeSans" font-size="10.00" fill="#000000">analysis/blob/master</text>
<text text-anchor="middle" x="2531.5" y="-94.5" font-family="FreeSans" font-size="10.00" fill="#000000">/PhotonJet/Photons/Photons.C</text>
</a>
</g>
</g>
<!-- Node1&#45;&gt;Node19 -->
<g id="edge23" class="edge">
<title>Node1&#45;&gt;Node19</title>
<path fill="none" stroke="#191970" d="M1368.7548,-182.2958C1597.4159,-175.9198 2231.7919,-155.9806 2438.5,-126 2449.5146,-124.4025 2461.1339,-122.1 2472.2869,-119.5709"/>
<polygon fill="#191970" stroke="#191970" points="1368.4012,-178.8042 1358.5022,-182.5802 1368.5954,-185.8015 1368.4012,-178.8042"/>
</g>
<!-- Node20 -->
<g id="node20" class="node">
<title>Node20</title>
<g id="a_node20"><a xlink:href="../../da/d1e/PJTranslator_8cc.html" target="_top" xlink:title="analysis/blob/master\l/sPhenixAj/src/PJTranslator.cc">
<polygon fill="none" stroke="#000000" points="2633,-87.5 2633,-119.5 2796,-119.5 2796,-87.5 2633,-87.5"/>
<text text-anchor="start" x="2641" y="-106.5" font-family="FreeSans" font-size="10.00" fill="#000000">analysis/blob/master</text>
<text text-anchor="middle" x="2714.5" y="-94.5" font-family="FreeSans" font-size="10.00" fill="#000000">/sPhenixAj/src/PJTranslator.cc</text>
</a>
</g>
</g>
<!-- Node1&#45;&gt;Node20 -->
<g id="edge24" class="edge">
<title>Node1&#45;&gt;Node20</title>
<path fill="none" stroke="#191970" d="M1369.1627,-183.0491C1622.7706,-178.3026 2380.4882,-161.4624 2624.5,-126 2635.3381,-124.4249 2646.7686,-122.099 2657.712,-119.5324"/>
<polygon fill="#191970" stroke="#191970" points="1368.8432,-179.5543 1358.9099,-183.2395 1368.9732,-186.5531 1368.8432,-179.5543"/>
</g>
<!-- Node7&#45;&gt;Node8 -->
<g id="edge7" class="edge">
<title>Node7&#45;&gt;Node8</title>
<path fill="none" stroke="#191970" d="M1052.0463,-80.9346C1006.5494,-71.2558 931.8238,-56.2224 868.8299,-43.6418"/>
<polygon fill="#191970" stroke="#191970" points="1051.3385,-84.3623 1061.8499,-83.0354 1052.8052,-77.5177 1051.3385,-84.3623"/>
</g>
<!-- Node7&#45;&gt;Node9 -->
<g id="edge8" class="edge">
<title>Node7&#45;&gt;Node9</title>
<path fill="none" stroke="#191970" d="M1212.7953,-77.6235C1238.4565,-66.9642 1267.876,-54.7438 1292.4835,-44.5222"/>
<polygon fill="#191970" stroke="#191970" points="1211.4194,-74.405 1203.527,-81.4734 1214.1047,-80.8695 1211.4194,-74.405"/>
</g>
<!-- Node7&#45;&gt;Node10 -->
<g id="edge9" class="edge">
<title>Node7&#45;&gt;Node10</title>
<path fill="none" stroke="#191970" d="M1150.5,-71.2457C1150.5,-62.3118 1150.5,-52.8188 1150.5,-44.6068"/>
<polygon fill="#191970" stroke="#191970" points="1147.0001,-71.3664 1150.5,-81.3664 1154.0001,-71.3664 1147.0001,-71.3664"/>
</g>
<!-- Node11&#45;&gt;Node8 -->
<g id="edge12" class="edge">
<title>Node11&#45;&gt;Node8</title>
<path fill="none" stroke="#191970" d="M901.0003,-77.7637C874.2038,-67.0714 843.421,-54.7887 817.6915,-44.5222"/>
<polygon fill="#191970" stroke="#191970" points="899.7124,-81.0181 910.2975,-81.4734 902.3067,-74.5165 899.7124,-81.0181"/>
</g>
<!-- Node11&#45;&gt;Node10 -->
<g id="edge13" class="edge">
<title>Node11&#45;&gt;Node10</title>
<path fill="none" stroke="#191970" d="M1025.4439,-77.2543C1049.5214,-66.7123 1076.9721,-54.6933 1100.0091,-44.6068"/>
<polygon fill="#191970" stroke="#191970" points="1023.8087,-74.1494 1016.0521,-81.3664 1026.6163,-80.5617 1023.8087,-74.1494"/>
</g>
<!-- Node12 -->
<g id="node12" class="node">
<title>Node12</title>
<g id="a_node12"><a xlink:href="../../db/df4/GlobalVertexv1_8cc.html" target="_top" xlink:title="coresoftware/blob/master\l/simulation/g4simulation\l/g4vertex/GlobalVertexv1.cc">
<polygon fill="none" stroke="#000000" points="886.5,-.5 886.5,-44.5 1046.5,-44.5 1046.5,-.5 886.5,-.5"/>
<text text-anchor="start" x="894.5" y="-31.5" font-family="FreeSans" font-size="10.00" fill="#000000">coresoftware/blob/master</text>
<text text-anchor="start" x="894.5" y="-19.5" font-family="FreeSans" font-size="10.00" fill="#000000">/simulation/g4simulation</text>
<text text-anchor="middle" x="966.5" y="-7.5" font-family="FreeSans" font-size="10.00" fill="#000000">/g4vertex/GlobalVertexv1.cc</text>
</a>
</g>
</g>
<!-- Node11&#45;&gt;Node12 -->
<g id="edge14" class="edge">
<title>Node11&#45;&gt;Node12</title>
<path fill="none" stroke="#191970" d="M965.8982,-71.2457C966.0085,-62.3118 966.1257,-52.8188 966.2271,-44.6068"/>
<polygon fill="#191970" stroke="#191970" points="962.3971,-71.3239 965.7733,-81.3664 969.3965,-71.4104 962.3971,-71.3239"/>
</g>
</g>
</svg>
