<?xml version="1.0" encoding="UTF-8" standalone="no"?>
<!DOCTYPE svg PUBLIC "-//W3C//DTD SVG 1.1//EN"
 "http://www.w3.org/Graphics/SVG/1.1/DTD/svg11.dtd">
<!-- Generated by graphviz version 2.40.1 (20161225.0304)
 -->
<!-- Title: Fun4AllHepMCPileupInputManager::set_time_window Pages: 1 -->
<svg width="356pt" height="182pt"
 viewBox="0.00 0.00 356.00 182.00" xmlns="http://www.w3.org/2000/svg" xmlns:xlink="http://www.w3.org/1999/xlink">
<g id="graph0" class="graph" transform="scale(1 1) rotate(0) translate(4 178)">
<title>Fun4AllHepMCPileupInputManager::set_time_window</title>
<!-- Node1 -->
<g id="node1" class="node">
<title>Node1</title>
<polygon fill="#bfbfbf" stroke="#000000" points="0,-76.5 0,-108.5 191,-108.5 191,-76.5 0,-76.5"/>
<text text-anchor="start" x="8" y="-95.5" font-family="FreeSans" font-size="10.00" fill="#000000">Fun4AllHepMCPileupInputManager</text>
<text text-anchor="middle" x="95.5" y="-83.5" font-family="FreeSans" font-size="10.00" fill="#000000">::set_time_window</text>
</g>
<!-- Node2 -->
<g id="node2" class="node">
<title>Node2</title>
<g id="a_node2"><a xlink:href="../../d5/d2c/macros_2blob_2master_2macros_2g4simulations_2Fun4All__G4__sPHENIX_8C.html#a6eaaa492d7023ec86c562dc63aa1e5a4" target="_top" xlink:title="Fun4All_G4_sPHENIX">
<polygon fill="none" stroke="#000000" points="227,-153.5 227,-173.5 348,-173.5 348,-153.5 227,-153.5"/>
<text text-anchor="middle" x="287.5" y="-160.5" font-family="FreeSans" font-size="10.00" fill="#000000">Fun4All_G4_sPHENIX</text>
</a>
</g>
</g>
<!-- Node1&#45;&gt;Node2 -->
<g id="edge1" class="edge">
<title>Node1&#45;&gt;Node2</title>
<path fill="none" stroke="#191970" d="M143.5834,-112.4799C168.3438,-122.5218 199.1141,-134.6222 227,-144.5 235.7171,-147.5878 245.2273,-150.6949 254.0718,-153.4761"/>
<polygon fill="#191970" stroke="#191970" points="144.643,-109.1323 134.0616,-108.5997 142.0014,-115.6147 144.643,-109.1323"/>
</g>
<!-- Node3 -->
<g id="node3" class="node">
<title>Node3</title>
<g id="a_node3"><a xlink:href="../../da/dd0/Fun4All__G4__sPHENIX__photonjet_8C.html#a6f18519e216acc05399e562ea57ea77c" target="_top" xlink:title="Fun4All_G4_sPHENIX\l_photonjet">
<polygon fill="none" stroke="#000000" points="227,-102.5 227,-134.5 348,-134.5 348,-102.5 227,-102.5"/>
<text text-anchor="start" x="235" y="-121.5" font-family="FreeSans" font-size="10.00" fill="#000000">Fun4All_G4_sPHENIX</text>
<text text-anchor="middle" x="287.5" y="-109.5" font-family="FreeSans" font-size="10.00" fill="#000000">_photonjet</text>
</a>
</g>
</g>
<!-- Node1&#45;&gt;Node3 -->
<g id="edge2" class="edge">
<title>Node1&#45;&gt;Node3</title>
<path fill="none" stroke="#191970" d="M201.1443,-106.806C209.9087,-107.9928 218.5648,-109.165 226.8164,-110.2824"/>
<polygon fill="#191970" stroke="#191970" points="201.598,-103.3356 191.2188,-105.4619 200.6586,-110.2723 201.598,-103.3356"/>
</g>
<!-- Node4 -->
<g id="node4" class="node">
<title>Node4</title>
<g id="a_node4"><a xlink:href="../../da/d85/Fun4All__G4__sPHENIX__photons_8C.html#a02fbbd59878fe1299f58ed187e7214ba" target="_top" xlink:title="Fun4All_G4_sPHENIX\l_photons">
<polygon fill="none" stroke="#000000" points="227,-51.5 227,-83.5 348,-83.5 348,-51.5 227,-51.5"/>
<text text-anchor="start" x="235" y="-70.5" font-family="FreeSans" font-size="10.00" fill="#000000">Fun4All_G4_sPHENIX</text>
<text text-anchor="middle" x="287.5" y="-58.5" font-family="FreeSans" font-size="10.00" fill="#000000">_photons</text>
</a>
</g>
</g>
<!-- Node1&#45;&gt;Node4 -->
<g id="edge3" class="edge">
<title>Node1&#45;&gt;Node4</title>
<path fill="none" stroke="#191970" d="M201.1443,-78.7442C209.9087,-77.603 218.5648,-76.4759 226.8164,-75.4015"/>
<polygon fill="#191970" stroke="#191970" points="200.6831,-75.2746 191.2188,-80.0366 201.587,-82.2161 200.6831,-75.2746"/>
</g>
<!-- Node5 -->
<g id="node5" class="node">
<title>Node5</title>
<g id="a_node5"><a xlink:href="../../de/d55/Fun4All__G4__sPHENIX__truthphotonjet_8C.html#a48a6f4503eaa1b3793d8ae572aa795b9" target="_top" xlink:title="Fun4All_G4_sPHENIX\l_truthphotonjet">
<polygon fill="none" stroke="#000000" points="227,-.5 227,-32.5 348,-32.5 348,-.5 227,-.5"/>
<text text-anchor="start" x="235" y="-19.5" font-family="FreeSans" font-size="10.00" fill="#000000">Fun4All_G4_sPHENIX</text>
<text text-anchor="middle" x="287.5" y="-7.5" font-family="FreeSans" font-size="10.00" fill="#000000">_truthphotonjet</text>
</a>
</g>
</g>
<!-- Node1&#45;&gt;Node5 -->
<g id="edge4" class="edge">
<title>Node1&#45;&gt;Node5</title>
<path fill="none" stroke="#191970" d="M145.7008,-72.6288C177.2138,-60.1549 217.3261,-44.2772 246.8404,-32.5944"/>
<polygon fill="#191970" stroke="#191970" points="144.2281,-69.4475 136.2183,-76.3824 146.8045,-75.9561 144.2281,-69.4475"/>
</g>
</g>
</svg>
