<?xml version="1.0" encoding="UTF-8" standalone="no"?>
<!DOCTYPE svg PUBLIC "-//W3C//DTD SVG 1.1//EN"
 "http://www.w3.org/Graphics/SVG/1.1/DTD/svg11.dtd">
<!-- Generated by graphviz version 2.40.1 (20161225.0304)
 -->
<!-- Title: PHCompositeNode::print Pages: 1 -->
<svg width="1075pt" height="1667pt"
 viewBox="0.00 0.00 1075.00 1667.00" xmlns="http://www.w3.org/2000/svg" xmlns:xlink="http://www.w3.org/1999/xlink">
<g id="graph0" class="graph" transform="scale(1 1) rotate(0) translate(4 1663)">
<title>PHCompositeNode::print</title>
<!-- Node1 -->
<g id="node1" class="node">
<title>Node1</title>
<polygon fill="#bfbfbf" stroke="#000000" points="0,-790.5 0,-810.5 141,-810.5 141,-790.5 0,-790.5"/>
<text text-anchor="middle" x="70.5" y="-797.5" font-family="FreeSans" font-size="10.00" fill="#000000">PHCompositeNode::print</text>
</g>
<!-- Node2 -->
<g id="node2" class="node">
<title>Node2</title>
<g id="a_node2"><a xlink:href="../../d5/d07/classPHNodeIterator.html#aec2fbc1e56be7e1a0b064ecde48edee5" target="_top" xlink:title="PHNodeIterator::print">
<polygon fill="none" stroke="#000000" points="177,-790.5 177,-810.5 301,-810.5 301,-790.5 177,-790.5"/>
<text text-anchor="middle" x="239" y="-797.5" font-family="FreeSans" font-size="10.00" fill="#000000">PHNodeIterator::print</text>
</a>
</g>
</g>
<!-- Node1&#45;&gt;Node2 -->
<g id="edge1" class="edge">
<title>Node1&#45;&gt;Node2</title>
<path fill="none" stroke="#191970" d="M151.4753,-800.5C160.0333,-800.5 168.6364,-800.5 176.9308,-800.5"/>
<polygon fill="#191970" stroke="#191970" points="151.4708,-797.0001 141.4708,-800.5 151.4708,-804.0001 151.4708,-797.0001"/>
</g>
<!-- Node3 -->
<g id="node3" class="node">
<title>Node3</title>
<g id="a_node3"><a xlink:href="../../da/d29/classFun4AllServer.html#a6a65a944dfb40966ace97d35ab1f7942" target="_top" xlink:title="Fun4AllServer::process\l_event">
<polygon fill="none" stroke="#000000" points="337,-845.5 337,-877.5 469,-877.5 469,-845.5 337,-845.5"/>
<text text-anchor="start" x="345" y="-864.5" font-family="FreeSans" font-size="10.00" fill="#000000">Fun4AllServer::process</text>
<text text-anchor="middle" x="403" y="-852.5" font-family="FreeSans" font-size="10.00" fill="#000000">_event</text>
</a>
</g>
</g>
<!-- Node2&#45;&gt;Node3 -->
<g id="edge2" class="edge">
<title>Node2&#45;&gt;Node3</title>
<path fill="none" stroke="#191970" d="M275.5407,-814.0914C300.4712,-823.3643 333.5977,-835.6857 359.8305,-845.4431"/>
<polygon fill="#191970" stroke="#191970" points="276.6741,-810.7787 266.0813,-810.5729 274.2337,-817.3396 276.6741,-810.7787"/>
</g>
<!-- Node45 -->
<g id="node45" class="node">
<title>Node45</title>
<g id="a_node45"><a xlink:href="../../da/d29/classFun4AllServer.html#ae1b1a243ee1a67367c8da4ec3bdc003d" target="_top" xlink:title="Fun4AllServer::Print">
<polygon fill="none" stroke="#000000" points="344.5,-751.5 344.5,-771.5 461.5,-771.5 461.5,-751.5 344.5,-751.5"/>
<text text-anchor="middle" x="403" y="-758.5" font-family="FreeSans" font-size="10.00" fill="#000000">Fun4AllServer::Print</text>
</a>
</g>
</g>
<!-- Node2&#45;&gt;Node45 -->
<g id="edge44" class="edge">
<title>Node2&#45;&gt;Node45</title>
<path fill="none" stroke="#191970" d="M290.9876,-788.1371C313.5378,-782.7746 339.6008,-776.5766 360.909,-771.5094"/>
<polygon fill="#191970" stroke="#191970" points="290.153,-784.7379 281.2341,-790.4565 291.7725,-791.548 290.153,-784.7379"/>
</g>
<!-- Node4 -->
<g id="node4" class="node">
<title>Node4</title>
<g id="a_node4"><a xlink:href="../../da/d29/classFun4AllServer.html#a94738b092fa009fcea45737d8ea41224" target="_top" xlink:title="Fun4AllServer::process\l_event">
<polygon fill="none" stroke="#000000" points="521.5,-890.5 521.5,-922.5 653.5,-922.5 653.5,-890.5 521.5,-890.5"/>
<text text-anchor="start" x="529.5" y="-909.5" font-family="FreeSans" font-size="10.00" fill="#000000">Fun4AllServer::process</text>
<text text-anchor="middle" x="587.5" y="-897.5" font-family="FreeSans" font-size="10.00" fill="#000000">_event</text>
</a>
</g>
</g>
<!-- Node3&#45;&gt;Node4 -->
<g id="edge3" class="edge">
<title>Node3&#45;&gt;Node4</title>
<path fill="none" stroke="#191970" d="M478.6137,-879.9424C492.9021,-883.4273 507.7412,-887.0466 521.6981,-890.4507"/>
<polygon fill="#191970" stroke="#191970" points="479.3719,-876.5248 468.8273,-877.5555 477.7132,-883.3254 479.3719,-876.5248"/>
</g>
<!-- Node5 -->
<g id="node5" class="node">
<title>Node5</title>
<g id="a_node5"><a xlink:href="../../da/d29/classFun4AllServer.html#a11bbc8b2f53bc06e0b05ee202dd6372a" target="_top" xlink:title="run n events (0 means up to end of file)">
<polygon fill="none" stroke="#ff0000" points="730,-831.5 730,-851.5 840,-851.5 840,-831.5 730,-831.5"/>
<text text-anchor="middle" x="785" y="-838.5" font-family="FreeSans" font-size="10.00" fill="#000000">Fun4AllServer::run</text>
</a>
</g>
</g>
<!-- Node3&#45;&gt;Node5 -->
<g id="edge4" class="edge">
<title>Node3&#45;&gt;Node5</title>
<path fill="none" stroke="#191970" d="M479.3056,-857.5049C553.3892,-853.6262 664.034,-847.8333 729.914,-844.3841"/>
<polygon fill="#191970" stroke="#191970" points="478.9065,-854.0209 469.1032,-858.0391 479.2726,-861.0114 478.9065,-854.0209"/>
</g>
<!-- Node6 -->
<g id="node6" class="node">
<title>Node6</title>
<g id="a_node6"><a xlink:href="../../dd/d9c/AnalyzeTree_8C.html#af10d516ac25cd720d54534a63ef7e2f8" target="_top" xlink:title="AnalyzeTree">
<polygon fill="none" stroke="#000000" points="944.5,-1638.5 944.5,-1658.5 1022.5,-1658.5 1022.5,-1638.5 944.5,-1638.5"/>
<text text-anchor="middle" x="983.5" y="-1645.5" font-family="FreeSans" font-size="10.00" fill="#000000">AnalyzeTree</text>
</a>
</g>
</g>
<!-- Node5&#45;&gt;Node6 -->
<g id="edge5" class="edge">
<title>Node5&#45;&gt;Node6</title>
<path fill="none" stroke="#191970" d="M786.6072,-861.9167C796.0707,-979.8819 845.9685,-1571.0326 900,-1629.5 911.2002,-1641.6197 928.386,-1646.8014 944.2611,-1648.7831"/>
<polygon fill="#191970" stroke="#191970" points="790.0799,-861.4342 785.7976,-851.7434 783.102,-861.9895 790.0799,-861.4342"/>
</g>
<!-- Node7 -->
<g id="node7" class="node">
<title>Node7</title>
<g id="a_node7"><a xlink:href="../../db/d89/ConstructGeometry_8C.html#a21c369835643f1016f506a3da3b8d446" target="_top" xlink:title="ConstructGeometry">
<polygon fill="none" stroke="#000000" points="926,-1599.5 926,-1619.5 1041,-1619.5 1041,-1599.5 926,-1599.5"/>
<text text-anchor="middle" x="983.5" y="-1606.5" font-family="FreeSans" font-size="10.00" fill="#000000">ConstructGeometry</text>
</a>
</g>
</g>
<!-- Node5&#45;&gt;Node7 -->
<g id="edge6" class="edge">
<title>Node5&#45;&gt;Node7</title>
<path fill="none" stroke="#191970" d="M785.1515,-861.8683C786.3825,-970.4677 797.6112,-1480.5281 900,-1590.5 906.8889,-1597.8991 916.0096,-1602.708 925.6903,-1605.7807"/>
<polygon fill="#191970" stroke="#191970" points="788.6492,-861.6007 785.0528,-851.6349 781.6495,-861.6683 788.6492,-861.6007"/>
</g>
<!-- Node8 -->
<g id="node8" class="node">
<title>Node8</title>
<g id="a_node8"><a xlink:href="../../d3/d7f/Fun_8C.html#af69a3eef3ff244bb51f5740c6ecb5432" target="_top" xlink:title="Fun">
<polygon fill="none" stroke="#000000" points="966.5,-1560.5 966.5,-1580.5 1000.5,-1580.5 1000.5,-1560.5 966.5,-1560.5"/>
<text text-anchor="middle" x="983.5" y="-1567.5" font-family="FreeSans" font-size="10.00" fill="#000000">Fun</text>
</a>
</g>
</g>
<!-- Node5&#45;&gt;Node8 -->
<g id="edge7" class="edge">
<title>Node5&#45;&gt;Node8</title>
<path fill="none" stroke="#191970" d="M785.3447,-862.1274C787.538,-967.8437 802.7955,-1447.9539 900,-1551.5 916.993,-1569.6016 947.3491,-1572.1718 966.4022,-1571.771"/>
<polygon fill="#191970" stroke="#191970" points="788.8389,-861.788 785.1495,-851.8563 781.8402,-861.9211 788.8389,-861.788"/>
</g>
<!-- Node9 -->
<g id="node9" class="node">
<title>Node9</title>
<g id="a_node9"><a xlink:href="../../dc/ddc/Fun4All__Ana_8C.html#a9152007c2477efc543d79f3b97fbf50c" target="_top" xlink:title="Fun4All_Ana">
<polygon fill="none" stroke="#000000" points="944.5,-1521.5 944.5,-1541.5 1022.5,-1541.5 1022.5,-1521.5 944.5,-1521.5"/>
<text text-anchor="middle" x="983.5" y="-1528.5" font-family="FreeSans" font-size="10.00" fill="#000000">Fun4All_Ana</text>
</a>
</g>
</g>
<!-- Node5&#45;&gt;Node9 -->
<g id="edge8" class="edge">
<title>Node5&#45;&gt;Node9</title>
<path fill="none" stroke="#191970" d="M785.551,-861.9534C788.7163,-963.8024 807.836,-1415.2199 900,-1512.5 911.3497,-1524.4798 928.5554,-1529.6429 944.4051,-1531.6485"/>
<polygon fill="#191970" stroke="#191970" points="789.0443,-861.6689 785.2529,-851.7757 782.0473,-861.8739 789.0443,-861.6689"/>
</g>
<!-- Node10 -->
<g id="node10" class="node">
<title>Node10</title>
<g id="a_node10"><a xlink:href="../../df/d77/Fun4All__CaloAna_8C.html#a4f0841e3d8be48f96cc4e95380315ff8" target="_top" xlink:title="Fun4All_CaloAna">
<polygon fill="none" stroke="#000000" points="933.5,-1482.5 933.5,-1502.5 1033.5,-1502.5 1033.5,-1482.5 933.5,-1482.5"/>
<text text-anchor="middle" x="983.5" y="-1489.5" font-family="FreeSans" font-size="10.00" fill="#000000">Fun4All_CaloAna</text>
</a>
</g>
</g>
<!-- Node5&#45;&gt;Node10 -->
<g id="edge9" class="edge">
<title>Node5&#45;&gt;Node10</title>
<path fill="none" stroke="#191970" d="M785.7749,-861.6881C789.9401,-959.4223 812.8399,-1382.4414 900,-1473.5 908.7382,-1482.629 920.8791,-1487.7904 933.1998,-1490.6126"/>
<polygon fill="#191970" stroke="#191970" points="789.2701,-861.4987 785.3654,-851.6497 782.276,-861.7841 789.2701,-861.4987"/>
</g>
<!-- Node11 -->
<g id="node11" class="node">
<title>Node11</title>
<g id="a_node11"><a xlink:href="../../da/dae/Fun4All__EICAnalysis__DIS_8C.html#a6be6c58cd68a395182a998295a1106ae" target="_top" xlink:title="Fun4All_EICAnalysis_DIS">
<polygon fill="none" stroke="#000000" points="914,-1443.5 914,-1463.5 1053,-1463.5 1053,-1443.5 914,-1443.5"/>
<text text-anchor="middle" x="983.5" y="-1450.5" font-family="FreeSans" font-size="10.00" fill="#000000">Fun4All_EICAnalysis_DIS</text>
</a>
</g>
</g>
<!-- Node5&#45;&gt;Node11 -->
<g id="edge10" class="edge">
<title>Node5&#45;&gt;Node11</title>
<path fill="none" stroke="#191970" d="M786.0501,-861.9292C791.3222,-956.3873 817.9813,-1349.7983 900,-1434.5 904.0334,-1438.6654 908.7758,-1442.0026 913.9176,-1444.6672"/>
<polygon fill="#191970" stroke="#191970" points="789.5445,-861.7297 785.5109,-851.9327 782.5547,-862.1068 789.5445,-861.7297"/>
</g>
<!-- Node12 -->
<g id="node12" class="node">
<title>Node12</title>
<g id="a_node12"><a xlink:href="../../d2/d9b/Fun4All__EICAnalysis__DISReco_8C.html#a3c160743ec7b9b4572cf73a19640a34f" target="_top" xlink:title="Fun4All_EICAnalysis\l_DISReco">
<polygon fill="none" stroke="#000000" points="925,-1392.5 925,-1424.5 1042,-1424.5 1042,-1392.5 925,-1392.5"/>
<text text-anchor="start" x="933" y="-1411.5" font-family="FreeSans" font-size="10.00" fill="#000000">Fun4All_EICAnalysis</text>
<text text-anchor="middle" x="983.5" y="-1399.5" font-family="FreeSans" font-size="10.00" fill="#000000">_DISReco</text>
</a>
</g>
</g>
<!-- Node5&#45;&gt;Node12 -->
<g id="edge11" class="edge">
<title>Node5&#45;&gt;Node12</title>
<path fill="none" stroke="#191970" d="M786.5959,-862.0054C793.9367,-951.2091 827.2552,-1304.5449 900,-1383.5 906.7673,-1390.8451 915.5953,-1396.0645 924.9715,-1399.7662"/>
<polygon fill="#191970" stroke="#191970" points="790.0691,-861.5305 785.7792,-851.843 783.0916,-862.0913 790.0691,-861.5305"/>
</g>
<!-- Node13 -->
<g id="node13" class="node">
<title>Node13</title>
<g id="a_node13"><a xlink:href="../../d2/d47/Fun4All__EICAnalysis__DVCS_8C.html#a84f48142243e969fd353cc8509f0ba22" target="_top" xlink:title="Fun4All_EICAnalysis_DVCS">
<polygon fill="none" stroke="#000000" points="908.5,-1353.5 908.5,-1373.5 1058.5,-1373.5 1058.5,-1353.5 908.5,-1353.5"/>
<text text-anchor="middle" x="983.5" y="-1360.5" font-family="FreeSans" font-size="10.00" fill="#000000">Fun4All_EICAnalysis_DVCS</text>
</a>
</g>
</g>
<!-- Node5&#45;&gt;Node13 -->
<g id="edge12" class="edge">
<title>Node5&#45;&gt;Node13</title>
<path fill="none" stroke="#191970" d="M786.7937,-861.7164C794.744,-946.738 829.5642,-1274.1367 900,-1344.5 903.5761,-1348.0724 907.6752,-1351.0311 912.0953,-1353.476"/>
<polygon fill="#191970" stroke="#191970" points="790.2627,-861.2169 785.8668,-851.5771 783.2918,-861.8542 790.2627,-861.2169"/>
</g>
<!-- Node14 -->
<g id="node14" class="node">
<title>Node14</title>
<g id="a_node14"><a xlink:href="../../d3/dee/Fun4All__EICAnalysis__Exclusive_8C.html#ad3a88bfdb2a21a757edf221e36d6bffe" target="_top" xlink:title="Fun4All_EICAnalysis\l_Exclusive">
<polygon fill="none" stroke="#000000" points="925,-1302.5 925,-1334.5 1042,-1334.5 1042,-1302.5 925,-1302.5"/>
<text text-anchor="start" x="933" y="-1321.5" font-family="FreeSans" font-size="10.00" fill="#000000">Fun4All_EICAnalysis</text>
<text text-anchor="middle" x="983.5" y="-1309.5" font-family="FreeSans" font-size="10.00" fill="#000000">_Exclusive</text>
</a>
</g>
</g>
<!-- Node5&#45;&gt;Node14 -->
<g id="edge13" class="edge">
<title>Node5&#45;&gt;Node14</title>
<path fill="none" stroke="#191970" d="M787.5014,-861.8016C797.6663,-941.1574 838.2992,-1229.1667 900,-1293.5 906.8084,-1300.5988 915.5424,-1305.7045 924.7854,-1309.3715"/>
<polygon fill="#191970" stroke="#191970" points="790.9462,-861.143 786.2239,-851.6588 784.0011,-862.0178 790.9462,-861.143"/>
</g>
<!-- Node15 -->
<g id="node15" class="node">
<title>Node15</title>
<g id="a_node15"><a xlink:href="../../d2/d00/Fun4All__EICAnalysis__Leptoquarks_8C.html#a328697c2ae82c0b33f95bea9aefb93f4" target="_top" xlink:title="Fun4All_EICAnalysis\l_Leptoquarks">
<polygon fill="none" stroke="#000000" points="925,-1251.5 925,-1283.5 1042,-1283.5 1042,-1251.5 925,-1251.5"/>
<text text-anchor="start" x="933" y="-1270.5" font-family="FreeSans" font-size="10.00" fill="#000000">Fun4All_EICAnalysis</text>
<text text-anchor="middle" x="983.5" y="-1258.5" font-family="FreeSans" font-size="10.00" fill="#000000">_Leptoquarks</text>
</a>
</g>
</g>
<!-- Node5&#45;&gt;Node15 -->
<g id="edge14" class="edge">
<title>Node5&#45;&gt;Node15</title>
<path fill="none" stroke="#191970" d="M788.2065,-861.8284C800.1943,-935.3992 844.5437,-1186.3956 900,-1242.5 906.9146,-1249.4954 915.701,-1254.5502 924.9629,-1258.1988"/>
<polygon fill="#191970" stroke="#191970" points="791.6054,-860.9194 786.5636,-851.6011 784.694,-862.0297 791.6054,-860.9194"/>
</g>
<!-- Node16 -->
<g id="node16" class="node">
<title>Node16</title>
<g id="a_node16"><a xlink:href="../../df/d6c/Fun4All__EICAnalysis__JPsi_8C.html#ad03644e8a25c5261146f6c59826ed6d0" target="_top" xlink:title="Fun4All_EICAnalysis\l_Quarkonia">
<polygon fill="none" stroke="#000000" points="925,-1200.5 925,-1232.5 1042,-1232.5 1042,-1200.5 925,-1200.5"/>
<text text-anchor="start" x="933" y="-1219.5" font-family="FreeSans" font-size="10.00" fill="#000000">Fun4All_EICAnalysis</text>
<text text-anchor="middle" x="983.5" y="-1207.5" font-family="FreeSans" font-size="10.00" fill="#000000">_Quarkonia</text>
</a>
</g>
</g>
<!-- Node5&#45;&gt;Node16 -->
<g id="edge15" class="edge">
<title>Node5&#45;&gt;Node16</title>
<path fill="none" stroke="#191970" d="M789.1025,-861.8106C803.0818,-929.1501 850.727,-1143.5182 900,-1191.5 906.9384,-1198.2566 915.6264,-1203.1974 924.7555,-1206.808"/>
<polygon fill="#191970" stroke="#191970" points="792.4585,-860.7533 787.0205,-851.6605 785.6013,-862.1599 792.4585,-860.7533"/>
</g>
<!-- Node17 -->
<g id="node17" class="node">
<title>Node17</title>
<g id="a_node17"><a xlink:href="../../df/d90/Fun4All__EICAnalysis__TrackEval_8C.html#ab4d10c3db3266243a5c314b02c02a360" target="_top" xlink:title="Fun4All_EICAnalysis\l_TrackEval">
<polygon fill="none" stroke="#000000" points="925,-1149.5 925,-1181.5 1042,-1181.5 1042,-1149.5 925,-1149.5"/>
<text text-anchor="start" x="933" y="-1168.5" font-family="FreeSans" font-size="10.00" fill="#000000">Fun4All_EICAnalysis</text>
<text text-anchor="middle" x="983.5" y="-1156.5" font-family="FreeSans" font-size="10.00" fill="#000000">_TrackEval</text>
</a>
</g>
</g>
<!-- Node5&#45;&gt;Node17 -->
<g id="edge16" class="edge">
<title>Node5&#45;&gt;Node17</title>
<path fill="none" stroke="#191970" d="M786.7621,-861.7319C792.5279,-915.351 815.6339,-1062.3348 900,-1140.5 906.9932,-1146.9792 915.6014,-1151.7835 924.6061,-1155.3448"/>
<polygon fill="#191970" stroke="#191970" points="790.2439,-861.3738 785.7792,-851.7657 783.2777,-862.0609 790.2439,-861.3738"/>
</g>
<!-- Node18 -->
<g id="node18" class="node">
<title>Node18</title>
<g id="a_node18"><a xlink:href="../../de/dc8/Fun4All__EMCalLikelihood_8C.html#a209f0d5788c9d3adba2967f194bca64a" target="_top" xlink:title="Fun4All_EMCalLikelihood">
<polygon fill="none" stroke="#000000" points="913,-1110.5 913,-1130.5 1054,-1130.5 1054,-1110.5 913,-1110.5"/>
<text text-anchor="middle" x="983.5" y="-1117.5" font-family="FreeSans" font-size="10.00" fill="#000000">Fun4All_EMCalLikelihood</text>
</a>
</g>
</g>
<!-- Node5&#45;&gt;Node18 -->
<g id="edge17" class="edge">
<title>Node5&#45;&gt;Node18</title>
<path fill="none" stroke="#191970" d="M787.7286,-861.6622C795.4971,-910.8414 822.4212,-1037.5957 900,-1101.5 904.3606,-1105.092 909.2664,-1108.0362 914.4596,-1110.4458"/>
<polygon fill="#191970" stroke="#191970" points="791.173,-861.0283 786.247,-851.6483 784.2483,-862.0529 791.173,-861.0283"/>
</g>
<!-- Node19 -->
<g id="node19" class="node">
<title>Node19</title>
<g id="a_node19"><a xlink:href="../../df/d51/Fun4All__ExportGeom_8C.html#a582925c51bad38d562cf19e71211adfd" target="_top" xlink:title="get geometry from DST file and output TGeoManager ROOT files or other formats of geometry files...">
<polygon fill="none" stroke="#000000" points="922.5,-1071.5 922.5,-1091.5 1044.5,-1091.5 1044.5,-1071.5 922.5,-1071.5"/>
<text text-anchor="middle" x="983.5" y="-1078.5" font-family="FreeSans" font-size="10.00" fill="#000000">Fun4All_ExportGeom</text>
</a>
</g>
</g>
<!-- Node5&#45;&gt;Node19 -->
<g id="edge18" class="edge">
<title>Node5&#45;&gt;Node19</title>
<path fill="none" stroke="#191970" d="M789.4112,-861.5853C800.1288,-905.4067 831.8228,-1009.8747 900,-1062.5 906.5906,-1067.5872 914.2934,-1071.3579 922.3064,-1074.1447"/>
<polygon fill="#191970" stroke="#191970" points="792.8128,-860.7605 787.1289,-851.8194 785.9965,-862.3535 792.8128,-860.7605"/>
</g>
<!-- Node20 -->
<g id="node20" class="node">
<title>Node20</title>
<g id="a_node20"><a xlink:href="../../de/d55/Fun4All__G4__block_8C.html#a6a063a649a0dd3318a517d5af98430dd" target="_top" xlink:title="Fun4All_G4_block">
<polygon fill="none" stroke="#000000" points="931,-1032.5 931,-1052.5 1036,-1052.5 1036,-1032.5 931,-1032.5"/>
<text text-anchor="middle" x="983.5" y="-1039.5" font-family="FreeSans" font-size="10.00" fill="#000000">Fun4All_G4_block</text>
</a>
</g>
</g>
<!-- Node5&#45;&gt;Node20 -->
<g id="edge19" class="edge">
<title>Node5&#45;&gt;Node20</title>
<path fill="none" stroke="#191970" d="M791.7751,-861.6024C805.6652,-899.5964 841.1161,-981.8606 900,-1023.5 909.104,-1029.9379 920.0405,-1034.2343 930.9544,-1037.0915"/>
<polygon fill="#191970" stroke="#191970" points="794.9185,-859.9922 788.2903,-851.7268 788.3174,-862.3216 794.9185,-859.9922"/>
</g>
<!-- Node21 -->
<g id="node21" class="node">
<title>Node21</title>
<g id="a_node21"><a xlink:href="../../d8/d91/Fun4All__G4__Clusters_8C.html#ab7d8e64f12f512631d4c0e8c6683ec5b" target="_top" xlink:title="Fun4All_G4_Clusters">
<polygon fill="none" stroke="#000000" points="924,-993.5 924,-1013.5 1043,-1013.5 1043,-993.5 924,-993.5"/>
<text text-anchor="middle" x="983.5" y="-1000.5" font-family="FreeSans" font-size="10.00" fill="#000000">Fun4All_G4_Clusters</text>
</a>
</g>
</g>
<!-- Node5&#45;&gt;Node21 -->
<g id="edge20" class="edge">
<title>Node5&#45;&gt;Node21</title>
<path fill="none" stroke="#191970" d="M794.8538,-860.7426C811.8602,-891.9128 849.7826,-953.1128 900,-984.5 907.1861,-988.9915 915.3116,-992.4248 923.6021,-995.0485"/>
<polygon fill="#191970" stroke="#191970" points="797.8608,-858.9424 790.0782,-851.7535 791.679,-862.2267 797.8608,-858.9424"/>
</g>
<!-- Node22 -->
<g id="node22" class="node">
<title>Node22</title>
<g id="a_node22"><a xlink:href="../../d2/dee/Fun4All__G4__Cylinder_8C.html#a271dc4f10f6f77107705e0efef0c97e5" target="_top" xlink:title="Fun4All_G4_Cylinder">
<polygon fill="none" stroke="#000000" points="923,-954.5 923,-974.5 1044,-974.5 1044,-954.5 923,-954.5"/>
<text text-anchor="middle" x="983.5" y="-961.5" font-family="FreeSans" font-size="10.00" fill="#000000">Fun4All_G4_Cylinder</text>
</a>
</g>
</g>
<!-- Node5&#45;&gt;Node22 -->
<g id="edge21" class="edge">
<title>Node5&#45;&gt;Node22</title>
<path fill="none" stroke="#191970" d="M799.5447,-859.4374C819.6128,-882.9384 858.0961,-923.7124 900,-945.5 907.1229,-949.2035 914.9562,-952.19 922.8832,-954.5972"/>
<polygon fill="#191970" stroke="#191970" points="802.1128,-857.0525 793.0121,-851.6277 796.7436,-861.5437 802.1128,-857.0525"/>
</g>
<!-- Node23 -->
<g id="node23" class="node">
<title>Node23</title>
<g id="a_node23"><a xlink:href="../../da/d02/Fun4All__G4__EICDetector_8C.html#afbe82cefa1d1fd031d9a8586b7bb68c6" target="_top" xlink:title="Fun4All_G4_EICDetector">
<polygon fill="none" stroke="#000000" points="914,-915.5 914,-935.5 1053,-935.5 1053,-915.5 914,-915.5"/>
<text text-anchor="middle" x="983.5" y="-922.5" font-family="FreeSans" font-size="10.00" fill="#000000">Fun4All_G4_EICDetector</text>
</a>
</g>
</g>
<!-- Node5&#45;&gt;Node23 -->
<g id="edge22" class="edge">
<title>Node5&#45;&gt;Node23</title>
<path fill="none" stroke="#191970" d="M808.0875,-857.2252C830.6267,-871.9169 866.3495,-893.4833 900,-906.5 909.1515,-910.04 919.1342,-913.0175 928.9114,-915.4874"/>
<polygon fill="#191970" stroke="#191970" points="809.8331,-854.1834 799.5619,-851.5844 805.9705,-860.0213 809.8331,-854.1834"/>
</g>
<!-- Node24 -->
<g id="node24" class="node">
<title>Node24</title>
<g id="a_node24"><a xlink:href="../../dd/d2a/Fun4All__G4__EICDetector__LQ_8C.html#aaa01242fd6e77ca43a9d49a6d46008e4" target="_top" xlink:title="Fun4All_G4_EICDetector_LQ">
<polygon fill="none" stroke="#000000" points="905.5,-876.5 905.5,-896.5 1061.5,-896.5 1061.5,-876.5 905.5,-876.5"/>
<text text-anchor="middle" x="983.5" y="-883.5" font-family="FreeSans" font-size="10.00" fill="#000000">Fun4All_G4_EICDetector_LQ</text>
</a>
</g>
</g>
<!-- Node5&#45;&gt;Node24 -->
<g id="edge23" class="edge">
<title>Node5&#45;&gt;Node24</title>
<path fill="none" stroke="#191970" d="M839.4328,-853.8399C870.7625,-860.9424 909.6341,-869.7546 939.1014,-876.4348"/>
<polygon fill="#191970" stroke="#191970" points="840.0737,-850.3965 829.5473,-851.5989 838.526,-857.2232 840.0737,-850.3965"/>
</g>
<!-- Node25 -->
<g id="node25" class="node">
<title>Node25</title>
<g id="a_node25"><a xlink:href="../../df/d4b/Fun4All__G4__EICDetector__LQ__analysis_8C.html#af903e98824d083a08b353ac15996ee0e" target="_top" xlink:title="Fun4All_G4_EICDetector\l_LQ_analysis">
<polygon fill="none" stroke="#000000" points="914,-825.5 914,-857.5 1053,-857.5 1053,-825.5 914,-825.5"/>
<text text-anchor="start" x="922" y="-844.5" font-family="FreeSans" font-size="10.00" fill="#000000">Fun4All_G4_EICDetector</text>
<text text-anchor="middle" x="983.5" y="-832.5" font-family="FreeSans" font-size="10.00" fill="#000000">_LQ_analysis</text>
</a>
</g>
</g>
<!-- Node5&#45;&gt;Node25 -->
<g id="edge24" class="edge">
<title>Node5&#45;&gt;Node25</title>
<path fill="none" stroke="#191970" d="M850.1561,-841.5C870.543,-841.5 893.1146,-841.5 913.8014,-841.5"/>
<polygon fill="#191970" stroke="#191970" points="850.0297,-838.0001 840.0297,-841.5 850.0297,-845.0001 850.0297,-838.0001"/>
</g>
<!-- Node26 -->
<g id="node26" class="node">
<title>Node26</title>
<g id="a_node26"><a xlink:href="../../d1/daf/Fun4All__G4__EICDetector__LQ__analysis__nf_8C.html#a5022607d21247b87dd208b0828905147" target="_top" xlink:title="Fun4All_G4_EICDetector\l_LQ_analysis_nf">
<polygon fill="none" stroke="#000000" points="914,-774.5 914,-806.5 1053,-806.5 1053,-774.5 914,-774.5"/>
<text text-anchor="start" x="922" y="-793.5" font-family="FreeSans" font-size="10.00" fill="#000000">Fun4All_G4_EICDetector</text>
<text text-anchor="middle" x="983.5" y="-781.5" font-family="FreeSans" font-size="10.00" fill="#000000">_LQ_analysis_nf</text>
</a>
</g>
</g>
<!-- Node5&#45;&gt;Node26 -->
<g id="edge25" class="edge">
<title>Node5&#45;&gt;Node26</title>
<path fill="none" stroke="#191970" d="M833.9445,-828.9248C860.2002,-822.1791 892.8408,-813.7928 920.9233,-806.5777"/>
<polygon fill="#191970" stroke="#191970" points="833.0317,-825.5456 824.2172,-831.424 834.7736,-832.3254 833.0317,-825.5456"/>
</g>
<!-- Node27 -->
<g id="node27" class="node">
<title>Node27</title>
<g id="a_node27"><a xlink:href="../../d4/df5/Fun4All__G4__EICDetector__LQ__reference_8C.html#a2feefc472f17f90b3cbe74897d049f75" target="_top" xlink:title="Fun4All_G4_EICDetector\l_LQ_reference">
<polygon fill="none" stroke="#000000" points="914,-723.5 914,-755.5 1053,-755.5 1053,-723.5 914,-723.5"/>
<text text-anchor="start" x="922" y="-742.5" font-family="FreeSans" font-size="10.00" fill="#000000">Fun4All_G4_EICDetector</text>
<text text-anchor="middle" x="983.5" y="-730.5" font-family="FreeSans" font-size="10.00" fill="#000000">_LQ_reference</text>
</a>
</g>
</g>
<!-- Node5&#45;&gt;Node27 -->
<g id="edge26" class="edge">
<title>Node5&#45;&gt;Node27</title>
<path fill="none" stroke="#191970" d="M805.7806,-825.1416C828.0261,-808.2769 864.8778,-782.1603 900,-765.5 907.682,-761.856 915.9988,-758.5621 924.305,-755.6395"/>
<polygon fill="#191970" stroke="#191970" points="803.5299,-822.4571 797.7321,-831.3248 807.7944,-828.0081 803.5299,-822.4571"/>
</g>
<!-- Node28 -->
<g id="node28" class="node">
<title>Node28</title>
<g id="a_node28"><a xlink:href="../../d3/d51/Fun4All__G4__EICDetector__RICH_8C.html#a5739502b0a7a1ba782c01069f77e933f" target="_top" xlink:title="Fun4All_G4_EICDetector_RICH">
<polygon fill="none" stroke="#000000" points="900,-684.5 900,-704.5 1067,-704.5 1067,-684.5 900,-684.5"/>
<text text-anchor="middle" x="983.5" y="-691.5" font-family="FreeSans" font-size="10.00" fill="#000000">Fun4All_G4_EICDetector_RICH</text>
</a>
</g>
</g>
<!-- Node5&#45;&gt;Node28 -->
<g id="edge27" class="edge">
<title>Node5&#45;&gt;Node28</title>
<path fill="none" stroke="#191970" d="M808.9598,-825.7465C825.7657,-813.8786 848.0007,-796.4507 864,-777.5 885.0532,-752.5631 873.844,-733.0179 900,-713.5 904.7661,-709.9435 910.0814,-707.0345 915.6579,-704.6575"/>
<polygon fill="#191970" stroke="#191970" points="806.9724,-822.8654 800.728,-831.4245 810.947,-828.6276 806.9724,-822.8654"/>
</g>
<!-- Node29 -->
<g id="node29" class="node">
<title>Node29</title>
<g id="a_node29"><a xlink:href="../../d9/d0e/Fun4All__G4__EICIR_8C.html#ac3543d1dd4a0abed3987d40939ee3f87" target="_top" xlink:title="Fun4All_G4_EICIR">
<polygon fill="none" stroke="#000000" points="931.5,-645.5 931.5,-665.5 1035.5,-665.5 1035.5,-645.5 931.5,-645.5"/>
<text text-anchor="middle" x="983.5" y="-652.5" font-family="FreeSans" font-size="10.00" fill="#000000">Fun4All_G4_EICIR</text>
</a>
</g>
</g>
<!-- Node5&#45;&gt;Node29 -->
<g id="edge28" class="edge">
<title>Node5&#45;&gt;Node29</title>
<path fill="none" stroke="#191970" d="M810.9646,-825.9291C828.1377,-814.4522 849.9891,-797.4158 864,-777.5 891.9024,-737.8382 863.8364,-706.8078 900,-674.5 908.6479,-666.7742 919.7777,-661.9924 931.0741,-659.0779"/>
<polygon fill="#191970" stroke="#191970" points="808.9791,-823.0449 802.4769,-831.4098 812.7763,-828.9254 808.9791,-823.0449"/>
</g>
<!-- Node30 -->
<g id="node30" class="node">
<title>Node30</title>
<g id="a_node30"><a xlink:href="../../d7/d9e/Fun4All__G4__fsPHENIX_8C.html#af48911d394d2412e817583700f2bbee2" target="_top" xlink:title="Fun4All_G4_fsPHENIX">
<polygon fill="none" stroke="#000000" points="921.5,-606.5 921.5,-626.5 1045.5,-626.5 1045.5,-606.5 921.5,-606.5"/>
<text text-anchor="middle" x="983.5" y="-613.5" font-family="FreeSans" font-size="10.00" fill="#000000">Fun4All_G4_fsPHENIX</text>
</a>
</g>
</g>
<!-- Node5&#45;&gt;Node30 -->
<g id="edge29" class="edge">
<title>Node5&#45;&gt;Node30</title>
<path fill="none" stroke="#191970" d="M811.8549,-826.0997C829.2279,-814.7926 850.9592,-797.8858 864,-777.5 899.0849,-722.6542 853.4002,-680.9694 900,-635.5 905.9589,-629.6857 913.3064,-625.5059 921.1498,-622.5238"/>
<polygon fill="#191970" stroke="#191970" points="809.8581,-823.2203 803.2364,-831.4909 813.5705,-829.1549 809.8581,-823.2203"/>
</g>
<!-- Node31 -->
<g id="node31" class="node">
<title>Node31</title>
<g id="a_node31"><a xlink:href="../../da/d2f/Fun4All__G4__fsPHENIX__FastSim_8C.html#a66fb850cae5fcaadda23b74a25ce4c9c" target="_top" xlink:title="Fun4All_G4_fsPHENIX\l_FastSim">
<polygon fill="none" stroke="#000000" points="921.5,-555.5 921.5,-587.5 1045.5,-587.5 1045.5,-555.5 921.5,-555.5"/>
<text text-anchor="start" x="929.5" y="-574.5" font-family="FreeSans" font-size="10.00" fill="#000000">Fun4All_G4_fsPHENIX</text>
<text text-anchor="middle" x="983.5" y="-562.5" font-family="FreeSans" font-size="10.00" fill="#000000">_FastSim</text>
</a>
</g>
</g>
<!-- Node5&#45;&gt;Node31 -->
<g id="edge30" class="edge">
<title>Node5&#45;&gt;Node31</title>
<path fill="none" stroke="#191970" d="M812.5275,-826.1048C829.994,-814.891 851.5708,-798.089 864,-777.5 906.3889,-707.2826 844.8093,-657.1737 900,-596.5 905.804,-590.1194 913.163,-585.3408 921.0967,-581.7671"/>
<polygon fill="#191970" stroke="#191970" points="810.522,-823.2292 803.8385,-831.4501 814.1898,-829.1914 810.522,-823.2292"/>
</g>
<!-- Node32 -->
<g id="node32" class="node">
<title>Node32</title>
<g id="a_node32"><a xlink:href="../../d0/da6/Fun4All__G4__fsPHENIX__pi0_8C.html#a023d91d47b678e5d7f1751834aa517c6" target="_top" xlink:title="Fun4All_G4_fsPHENIX_pi0">
<polygon fill="none" stroke="#000000" points="911,-516.5 911,-536.5 1056,-536.5 1056,-516.5 911,-516.5"/>
<text text-anchor="middle" x="983.5" y="-523.5" font-family="FreeSans" font-size="10.00" fill="#000000">Fun4All_G4_fsPHENIX_pi0</text>
</a>
</g>
</g>
<!-- Node5&#45;&gt;Node32 -->
<g id="edge31" class="edge">
<title>Node5&#45;&gt;Node32</title>
<path fill="none" stroke="#191970" d="M813.146,-826.0651C830.6745,-814.9231 852.0849,-798.2175 864,-777.5 916.0215,-687.0474 828.836,-621.8124 900,-545.5 903.2446,-542.0206 906.9828,-539.1143 911.0404,-536.692"/>
<polygon fill="#191970" stroke="#191970" points="811.1332,-823.1926 804.4044,-831.3764 814.768,-829.175 811.1332,-823.1926"/>
</g>
<!-- Node33 -->
<g id="node33" class="node">
<title>Node33</title>
<g id="a_node33"><a xlink:href="../../df/de1/Fun4All__G4__IonGun_8C.html#ab4966a2ae337cb8f0e45f7ee488e33b7" target="_top" xlink:title="Fun4All_G4_IonGun">
<polygon fill="none" stroke="#000000" points="926.5,-477.5 926.5,-497.5 1040.5,-497.5 1040.5,-477.5 926.5,-477.5"/>
<text text-anchor="middle" x="983.5" y="-484.5" font-family="FreeSans" font-size="10.00" fill="#000000">Fun4All_G4_IonGun</text>
</a>
</g>
</g>
<!-- Node5&#45;&gt;Node33 -->
<g id="edge32" class="edge">
<title>Node5&#45;&gt;Node33</title>
<path fill="none" stroke="#191970" d="M813.2973,-826.1511C830.8886,-815.0447 852.3122,-798.3466 864,-777.5 923.4197,-671.5181 818.1114,-596.2615 900,-506.5 907.0139,-498.8117 916.4353,-493.9074 926.423,-490.8394"/>
<polygon fill="#191970" stroke="#191970" points="811.2773,-823.2819 804.5194,-831.4417 814.8908,-829.2772 811.2773,-823.2819"/>
</g>
<!-- Node34 -->
<g id="node34" class="node">
<title>Node34</title>
<g id="a_node34"><a xlink:href="../../d5/d01/Fun4All__G4__LeadBrick_8C.html#a5fcd8843f8a815feb3b053eaabd60d41" target="_top" xlink:title="Fun4All_G4_LeadBrick">
<polygon fill="none" stroke="#000000" points="919.5,-438.5 919.5,-458.5 1047.5,-458.5 1047.5,-438.5 919.5,-438.5"/>
<text text-anchor="middle" x="983.5" y="-445.5" font-family="FreeSans" font-size="10.00" fill="#000000">Fun4All_G4_LeadBrick</text>
</a>
</g>
</g>
<!-- Node5&#45;&gt;Node34 -->
<g id="edge33" class="edge">
<title>Node5&#45;&gt;Node34</title>
<path fill="none" stroke="#191970" d="M813.4118,-826.2146C831.0506,-815.1347 852.4841,-798.442 864,-777.5 930.8339,-655.9601 807.3647,-570.7348 900,-467.5 905.2625,-461.6354 911.9249,-457.3847 919.1821,-454.3311"/>
<polygon fill="#191970" stroke="#191970" points="811.386,-823.3482 804.6064,-831.4899 814.9835,-829.3531 811.386,-823.3482"/>
</g>
<!-- Node35 -->
<g id="node35" class="node">
<title>Node35</title>
<g id="a_node35"><a xlink:href="../../d9/d8f/Fun4All__G4__Momentum_8C.html#afbd7a4eecd7792e9216ce80b5514123e" target="_top" xlink:title="Fun4All_G4_Momentum">
<polygon fill="none" stroke="#000000" points="916,-399.5 916,-419.5 1051,-419.5 1051,-399.5 916,-399.5"/>
<text text-anchor="middle" x="983.5" y="-406.5" font-family="FreeSans" font-size="10.00" fill="#000000">Fun4All_G4_Momentum</text>
</a>
</g>
</g>
<!-- Node5&#45;&gt;Node35 -->
<g id="edge34" class="edge">
<title>Node5&#45;&gt;Node35</title>
<path fill="none" stroke="#191970" d="M813.8353,-826.0542C831.4467,-814.9937 852.6902,-798.3833 864,-777.5 901.1294,-708.9415 848.3017,-486.8622 900,-428.5 904.4361,-423.4921 909.8927,-419.6576 915.874,-416.7389"/>
<polygon fill="#191970" stroke="#191970" points="811.8115,-823.1864 805.0286,-831.3254 815.4066,-829.1927 811.8115,-823.1864"/>
</g>
<!-- Node36 -->
<g id="node36" class="node">
<title>Node36</title>
<g id="a_node36"><a xlink:href="../../dc/d8e/Fun4All__G4__Prototype2_8C.html#a6b8f092c4f51be2938dd09c810ba6226" target="_top" xlink:title="Fun4All_G4_Prototype2">
<polygon fill="none" stroke="#000000" points="917,-360.5 917,-380.5 1050,-380.5 1050,-360.5 917,-360.5"/>
<text text-anchor="middle" x="983.5" y="-367.5" font-family="FreeSans" font-size="10.00" fill="#000000">Fun4All_G4_Prototype2</text>
</a>
</g>
</g>
<!-- Node5&#45;&gt;Node36 -->
<g id="edge35" class="edge">
<title>Node5&#45;&gt;Node36</title>
<path fill="none" stroke="#191970" d="M813.9078,-826.0932C831.5486,-815.0486 852.7976,-798.4411 864,-777.5 904.8455,-701.1461 842.9159,-454.6128 900,-389.5 904.6064,-384.2458 910.3358,-380.2804 916.6208,-377.3077"/>
<polygon fill="#191970" stroke="#191970" points="811.8801,-823.2273 805.0841,-831.3553 815.4655,-829.2394 811.8801,-823.2273"/>
</g>
<!-- Node37 -->
<g id="node37" class="node">
<title>Node37</title>
<g id="a_node37"><a xlink:href="../../d7/d40/Fun4All__G4__Prototype3_8C.html#a1201361263017b08a070777a0b90b27c" target="_top" xlink:title="Fun4All_G4_Prototype3">
<polygon fill="none" stroke="#000000" points="917,-321.5 917,-341.5 1050,-341.5 1050,-321.5 917,-321.5"/>
<text text-anchor="middle" x="983.5" y="-328.5" font-family="FreeSans" font-size="10.00" fill="#000000">Fun4All_G4_Prototype3</text>
</a>
</g>
</g>
<!-- Node5&#45;&gt;Node37 -->
<g id="edge36" class="edge">
<title>Node5&#45;&gt;Node37</title>
<path fill="none" stroke="#191970" d="M813.9673,-826.1249C831.6322,-815.0931 852.8857,-798.488 864,-777.5 908.5642,-693.3458 837.5264,-422.3676 900,-350.5 904.6818,-345.1142 910.5434,-341.0802 916.9779,-338.0803"/>
<polygon fill="#191970" stroke="#191970" points="811.9364,-823.2605 805.1296,-831.3795 815.5138,-829.2773 811.9364,-823.2605"/>
</g>
<!-- Node38 -->
<g id="node38" class="node">
<title>Node38</title>
<g id="a_node38"><a xlink:href="../../d4/d58/Fun4All__G4__Prototype4_8C.html#acac517f0728af658cbf99c7c9687c908" target="_top" xlink:title="Fun4All_G4_Prototype4">
<polygon fill="none" stroke="#000000" points="917,-282.5 917,-302.5 1050,-302.5 1050,-282.5 917,-282.5"/>
<text text-anchor="middle" x="983.5" y="-289.5" font-family="FreeSans" font-size="10.00" fill="#000000">Fun4All_G4_Prototype4</text>
</a>
</g>
</g>
<!-- Node5&#45;&gt;Node38 -->
<g id="edge37" class="edge">
<title>Node5&#45;&gt;Node38</title>
<path fill="none" stroke="#191970" d="M814.0171,-826.1511C831.7021,-815.1299 852.9594,-798.5268 864,-777.5 912.2849,-685.5418 832.1341,-390.1256 900,-311.5 904.6629,-306.0979 910.5127,-302.0536 916.9405,-299.0478"/>
<polygon fill="#191970" stroke="#191970" points="811.9833,-823.288 805.1676,-831.3995 815.5541,-829.3087 811.9833,-823.288"/>
</g>
<!-- Node39 -->
<g id="node39" class="node">
<title>Node39</title>
<g id="a_node39"><a xlink:href="../../d5/d2c/macros_2blob_2master_2macros_2g4simulations_2Fun4All__G4__sPHENIX_8C.html#a6eaaa492d7023ec86c562dc63aa1e5a4" target="_top" xlink:title="Fun4All_G4_sPHENIX">
<polygon fill="none" stroke="#000000" points="923,-243.5 923,-263.5 1044,-263.5 1044,-243.5 923,-243.5"/>
<text text-anchor="middle" x="983.5" y="-250.5" font-family="FreeSans" font-size="10.00" fill="#000000">Fun4All_G4_sPHENIX</text>
</a>
</g>
</g>
<!-- Node5&#45;&gt;Node39 -->
<g id="edge38" class="edge">
<title>Node5&#45;&gt;Node39</title>
<path fill="none" stroke="#191970" d="M814.0592,-826.1732C831.7613,-815.1609 853.0218,-798.5595 864,-777.5 916.0072,-677.7349 826.7398,-357.886 900,-272.5 906.0021,-265.5044 913.9947,-260.7829 922.6614,-257.6442"/>
<polygon fill="#191970" stroke="#191970" points="812.023,-823.3112 805.1998,-831.4164 815.5883,-829.3352 812.023,-823.3112"/>
</g>
<!-- Node40 -->
<g id="node40" class="node">
<title>Node40</title>
<g id="a_node40"><a xlink:href="../../d3/de2/Fun4All__G4__sPHENIX__AnaGenFit_8C.html#a9bf3f2f72ed69a17e2d0c1121d48013c" target="_top" xlink:title="Fun4All_G4_sPHENIX\l_AnaGenFit">
<polygon fill="none" stroke="#000000" points="923,-192.5 923,-224.5 1044,-224.5 1044,-192.5 923,-192.5"/>
<text text-anchor="start" x="931" y="-211.5" font-family="FreeSans" font-size="10.00" fill="#000000">Fun4All_G4_sPHENIX</text>
<text text-anchor="middle" x="983.5" y="-199.5" font-family="FreeSans" font-size="10.00" fill="#000000">_AnaGenFit</text>
</a>
</g>
</g>
<!-- Node5&#45;&gt;Node40 -->
<g id="edge39" class="edge">
<title>Node5&#45;&gt;Node40</title>
<path fill="none" stroke="#191970" d="M814.0954,-826.192C831.8121,-815.1873 853.0754,-798.5873 864,-777.5 919.7306,-669.9257 824.4824,-328.2376 900,-233.5 905.9424,-226.0452 914.0169,-220.7456 922.8143,-216.9918"/>
<polygon fill="#191970" stroke="#191970" points="812.0571,-823.3309 805.2275,-831.4308 815.6176,-829.3578 812.0571,-823.3309"/>
</g>
<!-- Node41 -->
<g id="node41" class="node">
<title>Node41</title>
<g id="a_node41"><a xlink:href="../../da/dd0/Fun4All__G4__sPHENIX__photonjet_8C.html#a6f18519e216acc05399e562ea57ea77c" target="_top" xlink:title="Fun4All_G4_sPHENIX\l_photonjet">
<polygon fill="none" stroke="#000000" points="923,-141.5 923,-173.5 1044,-173.5 1044,-141.5 923,-141.5"/>
<text text-anchor="start" x="931" y="-160.5" font-family="FreeSans" font-size="10.00" fill="#000000">Fun4All_G4_sPHENIX</text>
<text text-anchor="middle" x="983.5" y="-148.5" font-family="FreeSans" font-size="10.00" fill="#000000">_photonjet</text>
</a>
</g>
</g>
<!-- Node5&#45;&gt;Node41 -->
<g id="edge40" class="edge">
<title>Node5&#45;&gt;Node41</title>
<path fill="none" stroke="#191970" d="M814.1357,-826.2127C831.8687,-815.2165 853.135,-798.6181 864,-777.5 924.601,-659.7111 817.7251,-286.315 900,-182.5 905.9213,-175.0285 913.9851,-169.7203 922.7784,-165.9632"/>
<polygon fill="#191970" stroke="#191970" points="812.095,-823.3528 805.2583,-831.4467 815.6502,-829.3828 812.095,-823.3528"/>
</g>
<!-- Node42 -->
<g id="node42" class="node">
<title>Node42</title>
<g id="a_node42"><a xlink:href="../../da/d85/Fun4All__G4__sPHENIX__photons_8C.html#a02fbbd59878fe1299f58ed187e7214ba" target="_top" xlink:title="Fun4All_G4_sPHENIX\l_photons">
<polygon fill="none" stroke="#000000" points="923,-90.5 923,-122.5 1044,-122.5 1044,-90.5 923,-90.5"/>
<text text-anchor="start" x="931" y="-109.5" font-family="FreeSans" font-size="10.00" fill="#000000">Fun4All_G4_sPHENIX</text>
<text text-anchor="middle" x="983.5" y="-97.5" font-family="FreeSans" font-size="10.00" fill="#000000">_photons</text>
</a>
</g>
</g>
<!-- Node5&#45;&gt;Node42 -->
<g id="edge41" class="edge">
<title>Node5&#45;&gt;Node42</title>
<path fill="none" stroke="#191970" d="M814.1696,-826.2302C831.9164,-815.241 853.1853,-798.6439 864,-777.5 929.4727,-649.494 810.9662,-244.3945 900,-131.5 905.9035,-124.0144 913.9583,-118.6991 922.748,-114.9392"/>
<polygon fill="#191970" stroke="#191970" points="812.1269,-823.3712 805.2842,-831.46 815.6776,-829.4038 812.1269,-823.3712"/>
</g>
<!-- Node43 -->
<g id="node43" class="node">
<title>Node43</title>
<g id="a_node43"><a xlink:href="../../de/d55/Fun4All__G4__sPHENIX__truthphotonjet_8C.html#a48a6f4503eaa1b3793d8ae572aa795b9" target="_top" xlink:title="Fun4All_G4_sPHENIX\l_truthphotonjet">
<polygon fill="none" stroke="#000000" points="923,-39.5 923,-71.5 1044,-71.5 1044,-39.5 923,-39.5"/>
<text text-anchor="start" x="931" y="-58.5" font-family="FreeSans" font-size="10.00" fill="#000000">Fun4All_G4_sPHENIX</text>
<text text-anchor="middle" x="983.5" y="-46.5" font-family="FreeSans" font-size="10.00" fill="#000000">_truthphotonjet</text>
</a>
</g>
</g>
<!-- Node5&#45;&gt;Node43 -->
<g id="edge42" class="edge">
<title>Node5&#45;&gt;Node43</title>
<path fill="none" stroke="#191970" d="M814.1987,-826.245C831.9572,-815.2618 853.2283,-798.6659 864,-777.5 899.1726,-708.3876 852.103,-141.4878 900,-80.5 905.8882,-73.0024 913.9353,-67.681 922.722,-63.9187"/>
<polygon fill="#191970" stroke="#191970" points="812.1542,-823.3868 805.3064,-831.4713 815.7011,-829.4216 812.1542,-823.3868"/>
</g>
<!-- Node44 -->
<g id="node44" class="node">
<title>Node44</title>
<g id="a_node44"><a xlink:href="../../db/da1/Fun4All__G4__TPC_8C.html#af60bcd3cf09ebd567e28ede14e9e894a" target="_top" xlink:title="Fun4All_G4_TPC">
<polygon fill="none" stroke="#000000" points="935,-.5 935,-20.5 1032,-20.5 1032,-.5 935,-.5"/>
<text text-anchor="middle" x="983.5" y="-7.5" font-family="FreeSans" font-size="10.00" fill="#000000">Fun4All_G4_TPC</text>
</a>
</g>
</g>
<!-- Node5&#45;&gt;Node44 -->
<g id="edge43" class="edge">
<title>Node5&#45;&gt;Node44</title>
<path fill="none" stroke="#191970" d="M814.2238,-826.2577C831.9925,-815.2798 853.2655,-798.6847 864,-777.5 901.6093,-703.2774 846.5508,-93.2702 900,-29.5 908.6905,-19.1313 921.7535,-13.7333 934.9823,-11.0823"/>
<polygon fill="#191970" stroke="#191970" points="812.1778,-823.4003 805.3256,-831.4811 815.7214,-829.437 812.1778,-823.4003"/>
</g>
<!-- Node46 -->
<g id="node46" class="node">
<title>Node46</title>
<g id="a_node46"><a xlink:href="../../da/d29/classFun4AllServer.html#afcfc5583204cac58b4e66a2406187a18" target="_top" xlink:title="Fun4AllServer::BeginRun">
<polygon fill="none" stroke="#000000" points="517,-812.5 517,-832.5 658,-832.5 658,-812.5 517,-812.5"/>
<text text-anchor="middle" x="587.5" y="-819.5" font-family="FreeSans" font-size="10.00" fill="#000000">Fun4AllServer::BeginRun</text>
</a>
</g>
</g>
<!-- Node45&#45;&gt;Node46 -->
<g id="edge45" class="edge">
<title>Node45&#45;&gt;Node46</title>
<path fill="none" stroke="#191970" d="M440.2031,-775.0836C459.4709,-782.0034 483.4219,-790.4267 505,-797.5 520.6437,-802.628 538.0756,-807.9649 552.8708,-812.3844"/>
<polygon fill="#191970" stroke="#191970" points="441.1859,-771.7174 430.5915,-771.6172 438.811,-778.3023 441.1859,-771.7174"/>
</g>
<!-- Node47 -->
<g id="node47" class="node">
<title>Node47</title>
<g id="a_node47"><a xlink:href="../../d6/d1b/classPrototype2RawTowerBuilder.html#ac5d83bd0e9b8325c27dba83fc67b1111" target="_top" xlink:title="Prototype2RawTowerBuilder\l::InitRun">
<polygon fill="none" stroke="#000000" points="706,-735.5 706,-767.5 864,-767.5 864,-735.5 706,-735.5"/>
<text text-anchor="start" x="714" y="-754.5" font-family="FreeSans" font-size="10.00" fill="#000000">Prototype2RawTowerBuilder</text>
<text text-anchor="middle" x="785" y="-742.5" font-family="FreeSans" font-size="10.00" fill="#000000">::InitRun</text>
</a>
</g>
</g>
<!-- Node45&#45;&gt;Node47 -->
<g id="edge47" class="edge">
<title>Node45&#45;&gt;Node47</title>
<path fill="none" stroke="#191970" d="M471.6501,-763.7956C482.7969,-764.0887 494.2179,-764.3415 505,-764.5 578.3254,-765.5781 596.7828,-768.6252 670,-764.5 681.6352,-763.8444 693.9012,-762.8186 705.9149,-761.624"/>
<polygon fill="#191970" stroke="#191970" points="471.6093,-760.2932 461.5167,-763.5165 471.4165,-767.2905 471.6093,-760.2932"/>
</g>
<!-- Node48 -->
<g id="node48" class="node">
<title>Node48</title>
<g id="a_node48"><a xlink:href="../../dd/d8b/classPHG4Prototype2HcalCellReco.html#ada0674e45683579ea6d19c3c6fdce9e5" target="_top" xlink:title="module initialization">
<polygon fill="none" stroke="#000000" points="505,-722.5 505,-754.5 670,-754.5 670,-722.5 505,-722.5"/>
<text text-anchor="start" x="513" y="-741.5" font-family="FreeSans" font-size="10.00" fill="#000000">PHG4Prototype2HcalCellReco</text>
<text text-anchor="middle" x="587.5" y="-729.5" font-family="FreeSans" font-size="10.00" fill="#000000">::InitRun</text>
</a>
</g>
</g>
<!-- Node45&#45;&gt;Node48 -->
<g id="edge48" class="edge">
<title>Node45&#45;&gt;Node48</title>
<path fill="none" stroke="#191970" d="M471.7781,-752.926C482.5296,-751.5857 493.7367,-750.1887 504.7607,-748.8144"/>
<polygon fill="#191970" stroke="#191970" points="471.1207,-749.4808 461.6305,-754.1911 471.9866,-756.427 471.1207,-749.4808"/>
</g>
<!-- Node49 -->
<g id="node49" class="node">
<title>Node49</title>
<g id="a_node49"><a xlink:href="../../d6/d1b/classPrototype2RawTowerBuilder.html#a9495dbf32264edc680dd19fb5d242837" target="_top" xlink:title="Prototype2RawTowerBuilder\l::ReadParamsFromNodeTree">
<polygon fill="none" stroke="#000000" points="508.5,-671.5 508.5,-703.5 666.5,-703.5 666.5,-671.5 508.5,-671.5"/>
<text text-anchor="start" x="516.5" y="-690.5" font-family="FreeSans" font-size="10.00" fill="#000000">Prototype2RawTowerBuilder</text>
<text text-anchor="middle" x="587.5" y="-678.5" font-family="FreeSans" font-size="10.00" fill="#000000">::ReadParamsFromNodeTree</text>
</a>
</g>
</g>
<!-- Node45&#45;&gt;Node49 -->
<g id="edge49" class="edge">
<title>Node45&#45;&gt;Node49</title>
<path fill="none" stroke="#191970" d="M430.7516,-746.7367C450.9782,-736.3323 479.2367,-722.5234 505,-712.5 513.0897,-709.3527 521.7485,-706.3482 530.3033,-703.5834"/>
<polygon fill="#191970" stroke="#191970" points="429.047,-743.6781 421.7878,-751.3953 432.275,-749.8894 429.047,-743.6781"/>
</g>
<!-- Node50 -->
<g id="node50" class="node">
<title>Node50</title>
<g id="a_node50"><a xlink:href="../../d1/dec/classHcalRawTowerBuilder.html#a4d42afd3cf9d5d9f5569e87fa939d567" target="_top" xlink:title="HcalRawTowerBuilder\l::ReadParamsFromNodeTree">
<polygon fill="none" stroke="#ff0000" points="508.5,-620.5 508.5,-652.5 666.5,-652.5 666.5,-620.5 508.5,-620.5"/>
<text text-anchor="start" x="516.5" y="-639.5" font-family="FreeSans" font-size="10.00" fill="#000000">HcalRawTowerBuilder</text>
<text text-anchor="middle" x="587.5" y="-627.5" font-family="FreeSans" font-size="10.00" fill="#000000">::ReadParamsFromNodeTree</text>
</a>
</g>
</g>
<!-- Node45&#45;&gt;Node50 -->
<g id="edge51" class="edge">
<title>Node45&#45;&gt;Node50</title>
<path fill="none" stroke="#191970" d="M416.8393,-743.3463C434.8154,-720.9748 468.2712,-683.2608 505,-661.5 510.6654,-658.1434 516.8204,-655.2021 523.1295,-652.6325"/>
<polygon fill="#191970" stroke="#191970" points="413.9587,-741.3472 410.5275,-751.3711 419.4608,-745.6748 413.9587,-741.3472"/>
</g>
<!-- Node46&#45;&gt;Node5 -->
<g id="edge46" class="edge">
<title>Node46&#45;&gt;Node5</title>
<path fill="none" stroke="#191970" d="M668.3113,-830.2742C689.0307,-832.2675 710.8404,-834.3657 729.9247,-836.2016"/>
<polygon fill="#191970" stroke="#191970" points="668.5334,-826.7795 658.2442,-829.3058 667.863,-833.7474 668.5334,-826.7795"/>
</g>
<!-- Node49&#45;&gt;Node47 -->
<g id="edge50" class="edge">
<title>Node49&#45;&gt;Node47</title>
<path fill="none" stroke="#191970" d="M651.2269,-706.5838C657.5781,-708.5539 663.9215,-710.5489 670,-712.5 692.7833,-719.8131 717.9695,-728.3077 738.9494,-735.4986"/>
<polygon fill="#191970" stroke="#191970" points="651.8642,-703.1178 641.2769,-703.5183 649.8031,-709.8075 651.8642,-703.1178"/>
</g>
</g>
</svg>
