<?xml version="1.0" encoding="UTF-8" standalone="no"?>
<!DOCTYPE svg PUBLIC "-//W3C//DTD SVG 1.1//EN"
 "http://www.w3.org/Graphics/SVG/1.1/DTD/svg11.dtd">
<!-- Generated by graphviz version 2.40.1 (20161225.0304)
 -->
<!-- Title: PHG4Sector::Sector_Geometry::set_material Pages: 1 -->
<svg width="665pt" height="725pt"
 viewBox="0.00 0.00 665.00 725.00" xmlns="http://www.w3.org/2000/svg" xmlns:xlink="http://www.w3.org/1999/xlink">
<g id="graph0" class="graph" transform="scale(1 1) rotate(0) translate(4 721)">
<title>PHG4Sector::Sector_Geometry::set_material</title>
<!-- Node1 -->
<g id="node1" class="node">
<title>Node1</title>
<polygon fill="#bfbfbf" stroke="#000000" points="0,-315.5 0,-347.5 141,-347.5 141,-315.5 0,-315.5"/>
<text text-anchor="start" x="8" y="-334.5" font-family="FreeSans" font-size="10.00" fill="#000000">PHG4Sector::Sector</text>
<text text-anchor="middle" x="70.5" y="-322.5" font-family="FreeSans" font-size="10.00" fill="#000000">_Geometry::set_material</text>
</g>
<!-- Node2 -->
<g id="node2" class="node">
<title>Node2</title>
<g id="a_node2"><a xlink:href="../../d4/dbc/macros_2blob_2master_2macros_2g4simulations_2G4__Aerogel_8C.html#a400136ba4928234f7c9990b4065328f1" target="_top" xlink:title="AerogelSetup">
<polygon fill="none" stroke="#000000" points="190,-380.5 190,-400.5 275,-400.5 275,-380.5 190,-380.5"/>
<text text-anchor="middle" x="232.5" y="-387.5" font-family="FreeSans" font-size="10.00" fill="#000000">AerogelSetup</text>
</a>
</g>
</g>
<!-- Node1&#45;&gt;Node2 -->
<g id="edge1" class="edge">
<title>Node1&#45;&gt;Node2</title>
<path fill="none" stroke="#191970" d="M124.0004,-351.1528C140.9436,-357.3603 159.7502,-364.2336 177,-370.5 185.9526,-373.7523 195.7251,-377.281 204.5402,-380.4562"/>
<polygon fill="#191970" stroke="#191970" points="124.8594,-347.74 114.2657,-347.5845 122.4502,-354.3124 124.8594,-347.74"/>
</g>
<!-- Node22 -->
<g id="node22" class="node">
<title>Node22</title>
<g id="a_node22"><a xlink:href="../../d3/dc0/macros_2blob_2master_2macros_2g4simulations_2G4__DIRC_8C.html#acbdf429e4e41a2057e053691cc0b4128" target="_top" xlink:title="DIRCSetup">
<polygon fill="none" stroke="#000000" points="197.5,-341.5 197.5,-361.5 267.5,-361.5 267.5,-341.5 197.5,-341.5"/>
<text text-anchor="middle" x="232.5" y="-348.5" font-family="FreeSans" font-size="10.00" fill="#000000">DIRCSetup</text>
</a>
</g>
</g>
<!-- Node1&#45;&gt;Node22 -->
<g id="edge21" class="edge">
<title>Node1&#45;&gt;Node22</title>
<path fill="none" stroke="#191970" d="M151.1571,-341.4577C167.3759,-343.46 183.613,-345.4646 197.2673,-347.1503"/>
<polygon fill="#191970" stroke="#191970" points="151.4378,-337.9658 141.0843,-340.2141 150.5801,-344.9131 151.4378,-337.9658"/>
</g>
<!-- Node23 -->
<g id="node23" class="node">
<title>Node23</title>
<g id="a_node23"><a xlink:href="../../d7/df5/EICAnalysis_2macros_2leptoquarks__fun4all_2G4__FGEM__EIC_8C.html#ac44d1ef8dd3931eed6dd2ae0110ed8d1" target="_top" xlink:title="FGEMSetup">
<polygon fill="none" stroke="#000000" points="195.5,-302.5 195.5,-322.5 269.5,-322.5 269.5,-302.5 195.5,-302.5"/>
<text text-anchor="middle" x="232.5" y="-309.5" font-family="FreeSans" font-size="10.00" fill="#000000">FGEMSetup</text>
</a>
</g>
</g>
<!-- Node1&#45;&gt;Node23 -->
<g id="edge23" class="edge">
<title>Node1&#45;&gt;Node23</title>
<path fill="none" stroke="#191970" d="M151.1531,-322.0407C166.5142,-320.2391 181.8919,-318.4355 195.0764,-316.8892"/>
<polygon fill="#191970" stroke="#191970" points="150.6085,-318.5805 141.0843,-323.2216 151.424,-325.5328 150.6085,-318.5805"/>
</g>
<!-- Node24 -->
<g id="node24" class="node">
<title>Node24</title>
<g id="a_node24"><a xlink:href="../../d8/d41/G4__EGEM__EIC_8C.html#ab02e3ec0ae447e560b3a9a6fc25d9243" target="_top" xlink:title="make_GEM_station">
<polygon fill="none" stroke="#000000" points="177,-263.5 177,-283.5 288,-283.5 288,-263.5 177,-263.5"/>
<text text-anchor="middle" x="232.5" y="-270.5" font-family="FreeSans" font-size="10.00" fill="#000000">make_GEM_station</text>
</a>
</g>
</g>
<!-- Node1&#45;&gt;Node24 -->
<g id="edge24" class="edge">
<title>Node1&#45;&gt;Node24</title>
<path fill="none" stroke="#191970" d="M123.4848,-311.8462C140.5426,-305.5862 159.5453,-298.6829 177,-292.5 185.3519,-289.5415 194.4371,-286.3995 202.7925,-283.5404"/>
<polygon fill="#191970" stroke="#191970" points="121.8699,-308.7109 113.6925,-315.4474 124.286,-315.2807 121.8699,-308.7109"/>
</g>
<!-- Node3 -->
<g id="node3" class="node">
<title>Node3</title>
<g id="a_node3"><a xlink:href="../../d2/dfe/macros_2blob_2master_2macros_2g4simulations_2G4Setup__EICDetector_8C.html#a5d4cb2d19366a2ae6d2aefe8d2e4a870" target="_top" xlink:title="G4Setup">
<polygon fill="none" stroke="#000000" points="324,-360.5 324,-380.5 384,-380.5 384,-360.5 324,-360.5"/>
<text text-anchor="middle" x="354" y="-367.5" font-family="FreeSans" font-size="10.00" fill="#000000">G4Setup</text>
</a>
</g>
</g>
<!-- Node2&#45;&gt;Node3 -->
<g id="edge2" class="edge">
<title>Node2&#45;&gt;Node3</title>
<path fill="none" stroke="#191970" d="M285.2617,-381.815C298.4255,-379.6481 312.0986,-377.3973 323.7504,-375.4794"/>
<polygon fill="#191970" stroke="#191970" points="284.6351,-378.3709 275.3364,-383.4487 285.7721,-385.278 284.6351,-378.3709"/>
</g>
<!-- Node4 -->
<g id="node4" class="node">
<title>Node4</title>
<g id="a_node4"><a xlink:href="../../d3/d7f/Fun_8C.html#af0d3c8a78765149fef9b2beeecfc6279" target="_top" xlink:title="ConfigureDetectors">
<polygon fill="none" stroke="#000000" points="446.5,-696.5 446.5,-716.5 560.5,-716.5 560.5,-696.5 446.5,-696.5"/>
<text text-anchor="middle" x="503.5" y="-703.5" font-family="FreeSans" font-size="10.00" fill="#000000">ConfigureDetectors</text>
</a>
</g>
</g>
<!-- Node3&#45;&gt;Node4 -->
<g id="edge3" class="edge">
<title>Node3&#45;&gt;Node4</title>
<path fill="none" stroke="#191970" d="M355.4577,-390.8418C360.3809,-453.7895 378.4621,-643.7315 420,-686.5 427.166,-693.8783 436.5352,-698.7322 446.3992,-701.8865"/>
<polygon fill="#191970" stroke="#191970" points="358.9298,-390.339 354.6889,-380.63 351.9496,-390.8646 358.9298,-390.339"/>
</g>
<!-- Node6 -->
<g id="node6" class="node">
<title>Node6</title>
<g id="a_node6"><a xlink:href="../../da/d02/Fun4All__G4__EICDetector_8C.html#afbe82cefa1d1fd031d9a8586b7bb68c6" target="_top" xlink:title="Fun4All_G4_EICDetector">
<polygon fill="none" stroke="#000000" points="434,-657.5 434,-677.5 573,-677.5 573,-657.5 434,-657.5"/>
<text text-anchor="middle" x="503.5" y="-664.5" font-family="FreeSans" font-size="10.00" fill="#000000">Fun4All_G4_EICDetector</text>
</a>
</g>
</g>
<!-- Node3&#45;&gt;Node6 -->
<g id="edge5" class="edge">
<title>Node3&#45;&gt;Node6</title>
<path fill="none" stroke="#191970" d="M356.0739,-390.5594C362.4048,-447.9046 383.317,-610.7735 420,-647.5 424.003,-651.5078 428.6575,-654.7664 433.6817,-657.41"/>
<polygon fill="#191970" stroke="#191970" points="359.5486,-390.1356 355.0018,-380.566 352.5886,-390.8823 359.5486,-390.1356"/>
</g>
<!-- Node7 -->
<g id="node7" class="node">
<title>Node7</title>
<g id="a_node7"><a xlink:href="../../dd/d2a/Fun4All__G4__EICDetector__LQ_8C.html#aaa01242fd6e77ca43a9d49a6d46008e4" target="_top" xlink:title="Fun4All_G4_EICDetector_LQ">
<polygon fill="none" stroke="#000000" points="425.5,-618.5 425.5,-638.5 581.5,-638.5 581.5,-618.5 425.5,-618.5"/>
<text text-anchor="middle" x="503.5" y="-625.5" font-family="FreeSans" font-size="10.00" fill="#000000">Fun4All_G4_EICDetector_LQ</text>
</a>
</g>
</g>
<!-- Node3&#45;&gt;Node7 -->
<g id="edge6" class="edge">
<title>Node3&#45;&gt;Node7</title>
<path fill="none" stroke="#191970" d="M356.8918,-390.4112C364.7691,-441.9372 388.1671,-577.7751 420,-608.5 424.183,-612.5374 429.0294,-615.8088 434.2399,-618.4539"/>
<polygon fill="#191970" stroke="#191970" points="360.3511,-389.8783 355.4113,-380.5056 353.428,-390.9131 360.3511,-389.8783"/>
</g>
<!-- Node8 -->
<g id="node8" class="node">
<title>Node8</title>
<g id="a_node8"><a xlink:href="../../d4/df5/Fun4All__G4__EICDetector__LQ__reference_8C.html#a2feefc472f17f90b3cbe74897d049f75" target="_top" xlink:title="Fun4All_G4_EICDetector\l_LQ_reference">
<polygon fill="none" stroke="#000000" points="434,-567.5 434,-599.5 573,-599.5 573,-567.5 434,-567.5"/>
<text text-anchor="start" x="442" y="-586.5" font-family="FreeSans" font-size="10.00" fill="#000000">Fun4All_G4_EICDetector</text>
<text text-anchor="middle" x="503.5" y="-574.5" font-family="FreeSans" font-size="10.00" fill="#000000">_LQ_reference</text>
</a>
</g>
</g>
<!-- Node3&#45;&gt;Node8 -->
<g id="edge7" class="edge">
<title>Node3&#45;&gt;Node8</title>
<path fill="none" stroke="#191970" d="M355.3789,-391.0457C359.0539,-429.2763 372.3615,-511.612 420,-557.5 424.046,-561.3973 428.6667,-564.7111 433.6114,-567.5288"/>
<polygon fill="#191970" stroke="#191970" points="358.8344,-390.3629 354.5203,-380.6861 351.8583,-390.9411 358.8344,-390.3629"/>
</g>
<!-- Node9 -->
<g id="node9" class="node">
<title>Node9</title>
<g id="a_node9"><a xlink:href="../../d3/d51/Fun4All__G4__EICDetector__RICH_8C.html#a5739502b0a7a1ba782c01069f77e933f" target="_top" xlink:title="Fun4All_G4_EICDetector_RICH">
<polygon fill="none" stroke="#000000" points="420,-528.5 420,-548.5 587,-548.5 587,-528.5 420,-528.5"/>
<text text-anchor="middle" x="503.5" y="-535.5" font-family="FreeSans" font-size="10.00" fill="#000000">Fun4All_G4_EICDetector_RICH</text>
</a>
</g>
</g>
<!-- Node3&#45;&gt;Node9 -->
<g id="edge8" class="edge">
<title>Node3&#45;&gt;Node9</title>
<path fill="none" stroke="#191970" d="M357.159,-390.5756C363.2957,-422.6481 379.9289,-485.2114 420,-518.5 424.8158,-522.5007 430.2989,-525.7269 436.1008,-528.3252"/>
<polygon fill="#191970" stroke="#191970" points="360.584,-389.8434 355.4049,-380.6008 353.6898,-391.0559 360.584,-389.8434"/>
</g>
<!-- Node10 -->
<g id="node10" class="node">
<title>Node10</title>
<g id="a_node10"><a xlink:href="../../d9/d0e/Fun4All__G4__EICIR_8C.html#ac3543d1dd4a0abed3987d40939ee3f87" target="_top" xlink:title="Fun4All_G4_EICIR">
<polygon fill="none" stroke="#000000" points="451.5,-489.5 451.5,-509.5 555.5,-509.5 555.5,-489.5 451.5,-489.5"/>
<text text-anchor="middle" x="503.5" y="-496.5" font-family="FreeSans" font-size="10.00" fill="#000000">Fun4All_G4_EICIR</text>
</a>
</g>
</g>
<!-- Node3&#45;&gt;Node10 -->
<g id="edge9" class="edge">
<title>Node3&#45;&gt;Node10</title>
<path fill="none" stroke="#191970" d="M360.5275,-390.2192C369.7613,-414.9659 389.047,-456.8978 420,-479.5 429.1494,-486.181 440.2255,-490.6578 451.2781,-493.6504"/>
<polygon fill="#191970" stroke="#191970" points="363.8192,-389.0294 357.1809,-380.7721 357.221,-391.3668 363.8192,-389.0294"/>
</g>
<!-- Node11 -->
<g id="node11" class="node">
<title>Node11</title>
<g id="a_node11"><a xlink:href="../../d7/d9e/Fun4All__G4__fsPHENIX_8C.html#af48911d394d2412e817583700f2bbee2" target="_top" xlink:title="Fun4All_G4_fsPHENIX">
<polygon fill="none" stroke="#000000" points="441.5,-450.5 441.5,-470.5 565.5,-470.5 565.5,-450.5 441.5,-450.5"/>
<text text-anchor="middle" x="503.5" y="-457.5" font-family="FreeSans" font-size="10.00" fill="#000000">Fun4All_G4_fsPHENIX</text>
</a>
</g>
</g>
<!-- Node3&#45;&gt;Node11 -->
<g id="edge10" class="edge">
<title>Node3&#45;&gt;Node11</title>
<path fill="none" stroke="#191970" d="M366.7208,-389.164C378.6361,-405.1974 397.8891,-427.6945 420,-440.5 427.0947,-444.6089 434.995,-447.8754 443.0274,-450.4718"/>
<polygon fill="#191970" stroke="#191970" points="369.253,-386.6882 360.5871,-380.5929 363.5605,-390.7619 369.253,-386.6882"/>
</g>
<!-- Node12 -->
<g id="node12" class="node">
<title>Node12</title>
<g id="a_node12"><a xlink:href="../../da/d2f/Fun4All__G4__fsPHENIX__FastSim_8C.html#a66fb850cae5fcaadda23b74a25ce4c9c" target="_top" xlink:title="Fun4All_G4_fsPHENIX\l_FastSim">
<polygon fill="none" stroke="#000000" points="441.5,-399.5 441.5,-431.5 565.5,-431.5 565.5,-399.5 441.5,-399.5"/>
<text text-anchor="start" x="449.5" y="-418.5" font-family="FreeSans" font-size="10.00" fill="#000000">Fun4All_G4_fsPHENIX</text>
<text text-anchor="middle" x="503.5" y="-406.5" font-family="FreeSans" font-size="10.00" fill="#000000">_FastSim</text>
</a>
</g>
</g>
<!-- Node3&#45;&gt;Node12 -->
<g id="edge11" class="edge">
<title>Node3&#45;&gt;Node12</title>
<path fill="none" stroke="#191970" d="M394.0215,-382.5466C411.302,-387.7481 431.7664,-393.9079 450.2985,-399.4862"/>
<polygon fill="#191970" stroke="#191970" points="394.838,-379.1373 384.2536,-379.6064 392.8203,-385.8402 394.838,-379.1373"/>
</g>
<!-- Node13 -->
<g id="node13" class="node">
<title>Node13</title>
<g id="a_node13"><a xlink:href="../../d0/da6/Fun4All__G4__fsPHENIX__pi0_8C.html#a023d91d47b678e5d7f1751834aa517c6" target="_top" xlink:title="Fun4All_G4_fsPHENIX_pi0">
<polygon fill="none" stroke="#000000" points="431,-360.5 431,-380.5 576,-380.5 576,-360.5 431,-360.5"/>
<text text-anchor="middle" x="503.5" y="-367.5" font-family="FreeSans" font-size="10.00" fill="#000000">Fun4All_G4_fsPHENIX_pi0</text>
</a>
</g>
</g>
<!-- Node3&#45;&gt;Node13 -->
<g id="edge12" class="edge">
<title>Node3&#45;&gt;Node13</title>
<path fill="none" stroke="#191970" d="M394.2574,-370.5C405.6119,-370.5 418.3264,-370.5 430.9568,-370.5"/>
<polygon fill="#191970" stroke="#191970" points="394.2536,-367.0001 384.2536,-370.5 394.2535,-374.0001 394.2536,-367.0001"/>
</g>
<!-- Node14 -->
<g id="node14" class="node">
<title>Node14</title>
<g id="a_node14"><a xlink:href="../../d5/d2c/macros_2blob_2master_2macros_2g4simulations_2Fun4All__G4__sPHENIX_8C.html#a6eaaa492d7023ec86c562dc63aa1e5a4" target="_top" xlink:title="Fun4All_G4_sPHENIX">
<polygon fill="none" stroke="#000000" points="443,-321.5 443,-341.5 564,-341.5 564,-321.5 443,-321.5"/>
<text text-anchor="middle" x="503.5" y="-328.5" font-family="FreeSans" font-size="10.00" fill="#000000">Fun4All_G4_sPHENIX</text>
</a>
</g>
</g>
<!-- Node3&#45;&gt;Node14 -->
<g id="edge13" class="edge">
<title>Node3&#45;&gt;Node14</title>
<path fill="none" stroke="#191970" d="M393.8989,-357.9156C402.4772,-355.3486 411.5151,-352.7479 420,-350.5 431.7844,-347.3779 444.5866,-344.3065 456.5454,-341.5736"/>
<polygon fill="#191970" stroke="#191970" points="392.6524,-354.6362 384.1005,-360.8904 394.686,-361.3343 392.6524,-354.6362"/>
</g>
<!-- Node15 -->
<g id="node15" class="node">
<title>Node15</title>
<g id="a_node15"><a xlink:href="../../d3/de2/Fun4All__G4__sPHENIX__AnaGenFit_8C.html#a9bf3f2f72ed69a17e2d0c1121d48013c" target="_top" xlink:title="Fun4All_G4_sPHENIX\l_AnaGenFit">
<polygon fill="none" stroke="#000000" points="443,-270.5 443,-302.5 564,-302.5 564,-270.5 443,-270.5"/>
<text text-anchor="start" x="451" y="-289.5" font-family="FreeSans" font-size="10.00" fill="#000000">Fun4All_G4_sPHENIX</text>
<text text-anchor="middle" x="503.5" y="-277.5" font-family="FreeSans" font-size="10.00" fill="#000000">_AnaGenFit</text>
</a>
</g>
</g>
<!-- Node3&#45;&gt;Node15 -->
<g id="edge14" class="edge">
<title>Node3&#45;&gt;Node15</title>
<path fill="none" stroke="#191970" d="M369.7303,-352.734C382.1939,-339.6473 400.6741,-322.3147 420,-311.5 427.1309,-307.5096 434.9687,-304.0903 442.898,-301.1786"/>
<polygon fill="#191970" stroke="#191970" points="367.0119,-350.5185 362.7936,-360.2374 372.152,-355.2704 367.0119,-350.5185"/>
</g>
<!-- Node16 -->
<g id="node16" class="node">
<title>Node16</title>
<g id="a_node16"><a xlink:href="../../da/dd0/Fun4All__G4__sPHENIX__photonjet_8C.html#a6f18519e216acc05399e562ea57ea77c" target="_top" xlink:title="Fun4All_G4_sPHENIX\l_photonjet">
<polygon fill="none" stroke="#000000" points="443,-219.5 443,-251.5 564,-251.5 564,-219.5 443,-219.5"/>
<text text-anchor="start" x="451" y="-238.5" font-family="FreeSans" font-size="10.00" fill="#000000">Fun4All_G4_sPHENIX</text>
<text text-anchor="middle" x="503.5" y="-226.5" font-family="FreeSans" font-size="10.00" fill="#000000">_photonjet</text>
</a>
</g>
</g>
<!-- Node3&#45;&gt;Node16 -->
<g id="edge15" class="edge">
<title>Node3&#45;&gt;Node16</title>
<path fill="none" stroke="#191970" d="M360.6801,-350.8716C370.076,-326.1865 389.5337,-284.1764 420,-260.5 426.8106,-255.2072 434.728,-251.032 442.9216,-247.7391"/>
<polygon fill="#191970" stroke="#191970" points="357.3849,-349.6921 357.2666,-360.2862 363.9657,-352.0781 357.3849,-349.6921"/>
</g>
<!-- Node17 -->
<g id="node17" class="node">
<title>Node17</title>
<g id="a_node17"><a xlink:href="../../da/d85/Fun4All__G4__sPHENIX__photons_8C.html#a02fbbd59878fe1299f58ed187e7214ba" target="_top" xlink:title="Fun4All_G4_sPHENIX\l_photons">
<polygon fill="none" stroke="#000000" points="443,-168.5 443,-200.5 564,-200.5 564,-168.5 443,-168.5"/>
<text text-anchor="start" x="451" y="-187.5" font-family="FreeSans" font-size="10.00" fill="#000000">Fun4All_G4_sPHENIX</text>
<text text-anchor="middle" x="503.5" y="-175.5" font-family="FreeSans" font-size="10.00" fill="#000000">_photons</text>
</a>
</g>
</g>
<!-- Node3&#45;&gt;Node17 -->
<g id="edge16" class="edge">
<title>Node3&#45;&gt;Node17</title>
<path fill="none" stroke="#191970" d="M356.6091,-350.4063C362.0891,-316.4243 377.9709,-247.5944 420,-209.5 426.503,-203.6058 434.3455,-199.0991 442.5866,-195.6538"/>
<polygon fill="#191970" stroke="#191970" points="353.117,-350.0974 355.1266,-360.4999 360.0427,-351.1146 353.117,-350.0974"/>
</g>
<!-- Node18 -->
<g id="node18" class="node">
<title>Node18</title>
<g id="a_node18"><a xlink:href="../../de/d55/Fun4All__G4__sPHENIX__truthphotonjet_8C.html#a48a6f4503eaa1b3793d8ae572aa795b9" target="_top" xlink:title="Fun4All_G4_sPHENIX\l_truthphotonjet">
<polygon fill="none" stroke="#000000" points="443,-117.5 443,-149.5 564,-149.5 564,-117.5 443,-117.5"/>
<text text-anchor="start" x="451" y="-136.5" font-family="FreeSans" font-size="10.00" fill="#000000">Fun4All_G4_sPHENIX</text>
<text text-anchor="middle" x="503.5" y="-124.5" font-family="FreeSans" font-size="10.00" fill="#000000">_truthphotonjet</text>
</a>
</g>
</g>
<!-- Node3&#45;&gt;Node18 -->
<g id="edge17" class="edge">
<title>Node3&#45;&gt;Node18</title>
<path fill="none" stroke="#191970" d="M357.7732,-350.3624C367.0444,-302.9055 392.218,-185.9807 420,-158.5 426.455,-152.115 434.471,-147.3497 442.9617,-143.7955"/>
<polygon fill="#191970" stroke="#191970" points="354.3031,-349.8745 355.8569,-360.3548 361.1778,-351.193 354.3031,-349.8745"/>
</g>
<!-- Node19 -->
<g id="node19" class="node">
<title>Node19</title>
<g id="a_node19"><a xlink:href="../../d4/d65/Fun4All__single__particle_8C.html#a8a492b5dbead494bfdddbebde8a49b0e" target="_top" xlink:title="Fun4All_single_particle">
<polygon fill="none" stroke="#000000" points="437.5,-78.5 437.5,-98.5 569.5,-98.5 569.5,-78.5 437.5,-78.5"/>
<text text-anchor="middle" x="503.5" y="-85.5" font-family="FreeSans" font-size="10.00" fill="#000000">Fun4All_single_particle</text>
</a>
</g>
</g>
<!-- Node3&#45;&gt;Node19 -->
<g id="edge18" class="edge">
<title>Node3&#45;&gt;Node19</title>
<path fill="none" stroke="#191970" d="M356.3374,-350.3423C363.174,-294.8774 384.8945,-141.8368 420,-107.5 424.9953,-102.6141 430.9709,-98.8818 437.3985,-96.0442"/>
<polygon fill="#191970" stroke="#191970" points="352.8534,-349.9998 355.1368,-360.3457 359.8036,-350.834 352.8534,-349.9998"/>
</g>
<!-- Node20 -->
<g id="node20" class="node">
<title>Node20</title>
<g id="a_node20"><a xlink:href="../../d0/d99/Jin__BJet_8C.html#a36169bfee2ed7efda633944d12aebad9" target="_top" xlink:title="Jin_BJet">
<polygon fill="none" stroke="#000000" points="476,-39.5 476,-59.5 531,-59.5 531,-39.5 476,-39.5"/>
<text text-anchor="middle" x="503.5" y="-46.5" font-family="FreeSans" font-size="10.00" fill="#000000">Jin_BJet</text>
</a>
</g>
</g>
<!-- Node3&#45;&gt;Node20 -->
<g id="edge19" class="edge">
<title>Node3&#45;&gt;Node20</title>
<path fill="none" stroke="#191970" d="M355.6409,-350.2505C360.997,-289.2346 379.9758,-108.8688 420,-68.5 434.4451,-53.9305 457.5807,-49.5476 475.8398,-48.6025"/>
<polygon fill="#191970" stroke="#191970" points="352.1301,-350.2312 354.7731,-360.4911 359.1051,-350.8224 352.1301,-350.2312"/>
</g>
<!-- Node21 -->
<g id="node21" class="node">
<title>Node21</title>
<g id="a_node21"><a xlink:href="../../dd/db1/Wrapper_8cxx.html#abf1e42281903daa0752c80dd6c879fac" target="_top" xlink:title="Wrapper">
<polygon fill="none" stroke="#000000" points="473.5,-.5 473.5,-20.5 533.5,-20.5 533.5,-.5 473.5,-.5"/>
<text text-anchor="middle" x="503.5" y="-7.5" font-family="FreeSans" font-size="10.00" fill="#000000">Wrapper</text>
</a>
</g>
</g>
<!-- Node3&#45;&gt;Node21 -->
<g id="edge20" class="edge">
<title>Node3&#45;&gt;Node21</title>
<path fill="none" stroke="#191970" d="M355.0901,-350.2645C359.068,-284.1352 375.0024,-75.9867 420,-29.5 433.649,-15.3993 455.4225,-10.7885 473.3133,-9.63"/>
<polygon fill="#191970" stroke="#191970" points="351.5954,-350.0726 354.5164,-360.2568 358.5839,-350.4739 351.5954,-350.0726"/>
</g>
<!-- Node5 -->
<g id="node5" class="node">
<title>Node5</title>
<g id="a_node5"><a xlink:href="../../d3/d7f/Fun_8C.html#af69a3eef3ff244bb51f5740c6ecb5432" target="_top" xlink:title="Fun">
<polygon fill="none" stroke="#000000" points="623,-696.5 623,-716.5 657,-716.5 657,-696.5 623,-696.5"/>
<text text-anchor="middle" x="640" y="-703.5" font-family="FreeSans" font-size="10.00" fill="#000000">Fun</text>
</a>
</g>
</g>
<!-- Node4&#45;&gt;Node5 -->
<g id="edge4" class="edge">
<title>Node4&#45;&gt;Node5</title>
<path fill="none" stroke="#191970" d="M570.6941,-706.5C590.0852,-706.5 609.59,-706.5 622.9452,-706.5"/>
<polygon fill="#191970" stroke="#191970" points="570.5974,-703.0001 560.5974,-706.5 570.5974,-710.0001 570.5974,-703.0001"/>
</g>
<!-- Node22&#45;&gt;Node3 -->
<g id="edge22" class="edge">
<title>Node22&#45;&gt;Node3</title>
<path fill="none" stroke="#191970" d="M277.5407,-358.5434C292.9918,-360.9596 309.8985,-363.6035 323.8761,-365.7893"/>
<polygon fill="#191970" stroke="#191970" points="278.0635,-355.0827 267.6428,-356.9956 276.982,-361.9987 278.0635,-355.0827"/>
</g>
</g>
</svg>
