<?xml version="1.0" encoding="UTF-8" standalone="no"?>
<!DOCTYPE svg PUBLIC "-//W3C//DTD SVG 1.1//EN"
 "http://www.w3.org/Graphics/SVG/1.1/DTD/svg11.dtd">
<!-- Generated by graphviz version 2.40.1 (20161225.0304)
 -->
<!-- Title: PHG4Sector::Sector_Geometry::FlatEdge Pages: 1 -->
<svg width="647pt" height="725pt"
 viewBox="0.00 0.00 647.00 725.00" xmlns="http://www.w3.org/2000/svg" xmlns:xlink="http://www.w3.org/1999/xlink">
<g id="graph0" class="graph" transform="scale(1 1) rotate(0) translate(4 721)">
<title>PHG4Sector::Sector_Geometry::FlatEdge</title>
<!-- Node1 -->
<g id="node1" class="node">
<title>Node1</title>
<polygon fill="#bfbfbf" stroke="#000000" points="0,-315.5 0,-347.5 123,-347.5 123,-315.5 0,-315.5"/>
<text text-anchor="start" x="8" y="-334.5" font-family="FreeSans" font-size="10.00" fill="#000000">PHG4Sector::Sector</text>
<text text-anchor="middle" x="61.5" y="-322.5" font-family="FreeSans" font-size="10.00" fill="#000000">_Geometry::FlatEdge</text>
</g>
<!-- Node2 -->
<g id="node2" class="node">
<title>Node2</title>
<g id="a_node2"><a xlink:href="../../d4/dbc/macros_2blob_2master_2macros_2g4simulations_2G4__Aerogel_8C.html#a400136ba4928234f7c9990b4065328f1" target="_top" xlink:title="AerogelSetup">
<polygon fill="none" stroke="#000000" points="172,-380.5 172,-400.5 257,-400.5 257,-380.5 172,-380.5"/>
<text text-anchor="middle" x="214.5" y="-387.5" font-family="FreeSans" font-size="10.00" fill="#000000">AerogelSetup</text>
</a>
</g>
</g>
<!-- Node1&#45;&gt;Node2 -->
<g id="edge1" class="edge">
<title>Node1&#45;&gt;Node2</title>
<path fill="none" stroke="#191970" d="M110.1824,-351.3572C125.7362,-357.5982 143.0526,-364.4392 159,-370.5 167.7122,-373.8111 177.2434,-377.2953 185.9106,-380.4113"/>
<polygon fill="#191970" stroke="#191970" points="111.3374,-348.0492 100.7538,-347.5611 108.723,-354.5427 111.3374,-348.0492"/>
</g>
<!-- Node22 -->
<g id="node22" class="node">
<title>Node22</title>
<g id="a_node22"><a xlink:href="../../d3/dc0/macros_2blob_2master_2macros_2g4simulations_2G4__DIRC_8C.html#acbdf429e4e41a2057e053691cc0b4128" target="_top" xlink:title="DIRCSetup">
<polygon fill="none" stroke="#000000" points="179.5,-341.5 179.5,-361.5 249.5,-361.5 249.5,-341.5 179.5,-341.5"/>
<text text-anchor="middle" x="214.5" y="-348.5" font-family="FreeSans" font-size="10.00" fill="#000000">DIRCSetup</text>
</a>
</g>
</g>
<!-- Node1&#45;&gt;Node22 -->
<g id="edge21" class="edge">
<title>Node1&#45;&gt;Node22</title>
<path fill="none" stroke="#191970" d="M133.2127,-340.8742C149.2483,-342.9704 165.5655,-345.1033 179.3312,-346.9028"/>
<polygon fill="#191970" stroke="#191970" points="133.6593,-337.4029 123.2899,-339.5771 132.7519,-344.3438 133.6593,-337.4029"/>
</g>
<!-- Node23 -->
<g id="node23" class="node">
<title>Node23</title>
<g id="a_node23"><a xlink:href="../../d7/df5/EICAnalysis_2macros_2leptoquarks__fun4all_2G4__FGEM__EIC_8C.html#ac44d1ef8dd3931eed6dd2ae0110ed8d1" target="_top" xlink:title="FGEMSetup">
<polygon fill="none" stroke="#000000" points="177.5,-302.5 177.5,-322.5 251.5,-322.5 251.5,-302.5 177.5,-302.5"/>
<text text-anchor="middle" x="214.5" y="-309.5" font-family="FreeSans" font-size="10.00" fill="#000000">FGEMSetup</text>
</a>
</g>
</g>
<!-- Node1&#45;&gt;Node23 -->
<g id="edge23" class="edge">
<title>Node1&#45;&gt;Node23</title>
<path fill="none" stroke="#191970" d="M133.6468,-322.5406C148.7004,-320.6712 163.9795,-318.7738 177.1423,-317.1392"/>
<polygon fill="#191970" stroke="#191970" points="132.7824,-319.121 123.2899,-323.8267 133.6451,-326.0676 132.7824,-319.121"/>
</g>
<!-- Node24 -->
<g id="node24" class="node">
<title>Node24</title>
<g id="a_node24"><a xlink:href="../../d7/df5/EICAnalysis_2macros_2leptoquarks__fun4all_2G4__FGEM__EIC_8C.html#a75ea364f15ac3286c935ec8dc4cc2830" target="_top" xlink:title="make_GEM_station">
<polygon fill="none" stroke="#000000" points="159,-263.5 159,-283.5 270,-283.5 270,-263.5 159,-263.5"/>
<text text-anchor="middle" x="214.5" y="-270.5" font-family="FreeSans" font-size="10.00" fill="#000000">make_GEM_station</text>
</a>
</g>
</g>
<!-- Node1&#45;&gt;Node24 -->
<g id="edge24" class="edge">
<title>Node1&#45;&gt;Node24</title>
<path fill="none" stroke="#191970" d="M109.7119,-311.6539C125.3683,-305.3598 142.863,-298.4852 159,-292.5 167.1164,-289.4896 175.9617,-286.3837 184.1569,-283.5775"/>
<polygon fill="#191970" stroke="#191970" points="108.1906,-308.4936 100.2297,-315.4847 110.8127,-314.984 108.1906,-308.4936"/>
</g>
<!-- Node3 -->
<g id="node3" class="node">
<title>Node3</title>
<g id="a_node3"><a xlink:href="../../d2/dfe/macros_2blob_2master_2macros_2g4simulations_2G4Setup__EICDetector_8C.html#a5d4cb2d19366a2ae6d2aefe8d2e4a870" target="_top" xlink:title="G4Setup">
<polygon fill="none" stroke="#000000" points="306,-360.5 306,-380.5 366,-380.5 366,-360.5 306,-360.5"/>
<text text-anchor="middle" x="336" y="-367.5" font-family="FreeSans" font-size="10.00" fill="#000000">G4Setup</text>
</a>
</g>
</g>
<!-- Node2&#45;&gt;Node3 -->
<g id="edge2" class="edge">
<title>Node2&#45;&gt;Node3</title>
<path fill="none" stroke="#191970" d="M267.2617,-381.815C280.4255,-379.6481 294.0986,-377.3973 305.7504,-375.4794"/>
<polygon fill="#191970" stroke="#191970" points="266.6351,-378.3709 257.3364,-383.4487 267.7721,-385.278 266.6351,-378.3709"/>
</g>
<!-- Node4 -->
<g id="node4" class="node">
<title>Node4</title>
<g id="a_node4"><a xlink:href="../../d3/d7f/Fun_8C.html#af0d3c8a78765149fef9b2beeecfc6279" target="_top" xlink:title="ConfigureDetectors">
<polygon fill="none" stroke="#000000" points="428.5,-696.5 428.5,-716.5 542.5,-716.5 542.5,-696.5 428.5,-696.5"/>
<text text-anchor="middle" x="485.5" y="-703.5" font-family="FreeSans" font-size="10.00" fill="#000000">ConfigureDetectors</text>
</a>
</g>
</g>
<!-- Node3&#45;&gt;Node4 -->
<g id="edge3" class="edge">
<title>Node3&#45;&gt;Node4</title>
<path fill="none" stroke="#191970" d="M337.4577,-390.8418C342.3809,-453.7895 360.4621,-643.7315 402,-686.5 409.166,-693.8783 418.5352,-698.7322 428.3992,-701.8865"/>
<polygon fill="#191970" stroke="#191970" points="340.9298,-390.339 336.6889,-380.63 333.9496,-390.8646 340.9298,-390.339"/>
</g>
<!-- Node6 -->
<g id="node6" class="node">
<title>Node6</title>
<g id="a_node6"><a xlink:href="../../da/d02/Fun4All__G4__EICDetector_8C.html#afbe82cefa1d1fd031d9a8586b7bb68c6" target="_top" xlink:title="Fun4All_G4_EICDetector">
<polygon fill="none" stroke="#000000" points="416,-657.5 416,-677.5 555,-677.5 555,-657.5 416,-657.5"/>
<text text-anchor="middle" x="485.5" y="-664.5" font-family="FreeSans" font-size="10.00" fill="#000000">Fun4All_G4_EICDetector</text>
</a>
</g>
</g>
<!-- Node3&#45;&gt;Node6 -->
<g id="edge5" class="edge">
<title>Node3&#45;&gt;Node6</title>
<path fill="none" stroke="#191970" d="M338.0739,-390.5594C344.4048,-447.9046 365.317,-610.7735 402,-647.5 406.003,-651.5078 410.6575,-654.7664 415.6817,-657.41"/>
<polygon fill="#191970" stroke="#191970" points="341.5486,-390.1356 337.0018,-380.566 334.5886,-390.8823 341.5486,-390.1356"/>
</g>
<!-- Node7 -->
<g id="node7" class="node">
<title>Node7</title>
<g id="a_node7"><a xlink:href="../../dd/d2a/Fun4All__G4__EICDetector__LQ_8C.html#aaa01242fd6e77ca43a9d49a6d46008e4" target="_top" xlink:title="Fun4All_G4_EICDetector_LQ">
<polygon fill="none" stroke="#000000" points="407.5,-618.5 407.5,-638.5 563.5,-638.5 563.5,-618.5 407.5,-618.5"/>
<text text-anchor="middle" x="485.5" y="-625.5" font-family="FreeSans" font-size="10.00" fill="#000000">Fun4All_G4_EICDetector_LQ</text>
</a>
</g>
</g>
<!-- Node3&#45;&gt;Node7 -->
<g id="edge6" class="edge">
<title>Node3&#45;&gt;Node7</title>
<path fill="none" stroke="#191970" d="M338.8918,-390.4112C346.7691,-441.9372 370.1671,-577.7751 402,-608.5 406.183,-612.5374 411.0294,-615.8088 416.2399,-618.4539"/>
<polygon fill="#191970" stroke="#191970" points="342.3511,-389.8783 337.4113,-380.5056 335.428,-390.9131 342.3511,-389.8783"/>
</g>
<!-- Node8 -->
<g id="node8" class="node">
<title>Node8</title>
<g id="a_node8"><a xlink:href="../../d4/df5/Fun4All__G4__EICDetector__LQ__reference_8C.html#a2feefc472f17f90b3cbe74897d049f75" target="_top" xlink:title="Fun4All_G4_EICDetector\l_LQ_reference">
<polygon fill="none" stroke="#000000" points="416,-567.5 416,-599.5 555,-599.5 555,-567.5 416,-567.5"/>
<text text-anchor="start" x="424" y="-586.5" font-family="FreeSans" font-size="10.00" fill="#000000">Fun4All_G4_EICDetector</text>
<text text-anchor="middle" x="485.5" y="-574.5" font-family="FreeSans" font-size="10.00" fill="#000000">_LQ_reference</text>
</a>
</g>
</g>
<!-- Node3&#45;&gt;Node8 -->
<g id="edge7" class="edge">
<title>Node3&#45;&gt;Node8</title>
<path fill="none" stroke="#191970" d="M337.3789,-391.0457C341.0539,-429.2763 354.3615,-511.612 402,-557.5 406.046,-561.3973 410.6667,-564.7111 415.6114,-567.5288"/>
<polygon fill="#191970" stroke="#191970" points="340.8344,-390.3629 336.5203,-380.6861 333.8583,-390.9411 340.8344,-390.3629"/>
</g>
<!-- Node9 -->
<g id="node9" class="node">
<title>Node9</title>
<g id="a_node9"><a xlink:href="../../d3/d51/Fun4All__G4__EICDetector__RICH_8C.html#a5739502b0a7a1ba782c01069f77e933f" target="_top" xlink:title="Fun4All_G4_EICDetector_RICH">
<polygon fill="none" stroke="#000000" points="402,-528.5 402,-548.5 569,-548.5 569,-528.5 402,-528.5"/>
<text text-anchor="middle" x="485.5" y="-535.5" font-family="FreeSans" font-size="10.00" fill="#000000">Fun4All_G4_EICDetector_RICH</text>
</a>
</g>
</g>
<!-- Node3&#45;&gt;Node9 -->
<g id="edge8" class="edge">
<title>Node3&#45;&gt;Node9</title>
<path fill="none" stroke="#191970" d="M339.159,-390.5756C345.2957,-422.6481 361.9289,-485.2114 402,-518.5 406.8158,-522.5007 412.2989,-525.7269 418.1008,-528.3252"/>
<polygon fill="#191970" stroke="#191970" points="342.584,-389.8434 337.4049,-380.6008 335.6898,-391.0559 342.584,-389.8434"/>
</g>
<!-- Node10 -->
<g id="node10" class="node">
<title>Node10</title>
<g id="a_node10"><a xlink:href="../../d9/d0e/Fun4All__G4__EICIR_8C.html#ac3543d1dd4a0abed3987d40939ee3f87" target="_top" xlink:title="Fun4All_G4_EICIR">
<polygon fill="none" stroke="#000000" points="433.5,-489.5 433.5,-509.5 537.5,-509.5 537.5,-489.5 433.5,-489.5"/>
<text text-anchor="middle" x="485.5" y="-496.5" font-family="FreeSans" font-size="10.00" fill="#000000">Fun4All_G4_EICIR</text>
</a>
</g>
</g>
<!-- Node3&#45;&gt;Node10 -->
<g id="edge9" class="edge">
<title>Node3&#45;&gt;Node10</title>
<path fill="none" stroke="#191970" d="M342.5275,-390.2192C351.7613,-414.9659 371.047,-456.8978 402,-479.5 411.1494,-486.181 422.2255,-490.6578 433.2781,-493.6504"/>
<polygon fill="#191970" stroke="#191970" points="345.8192,-389.0294 339.1809,-380.7721 339.221,-391.3668 345.8192,-389.0294"/>
</g>
<!-- Node11 -->
<g id="node11" class="node">
<title>Node11</title>
<g id="a_node11"><a xlink:href="../../d7/d9e/Fun4All__G4__fsPHENIX_8C.html#af48911d394d2412e817583700f2bbee2" target="_top" xlink:title="Fun4All_G4_fsPHENIX">
<polygon fill="none" stroke="#000000" points="423.5,-450.5 423.5,-470.5 547.5,-470.5 547.5,-450.5 423.5,-450.5"/>
<text text-anchor="middle" x="485.5" y="-457.5" font-family="FreeSans" font-size="10.00" fill="#000000">Fun4All_G4_fsPHENIX</text>
</a>
</g>
</g>
<!-- Node3&#45;&gt;Node11 -->
<g id="edge10" class="edge">
<title>Node3&#45;&gt;Node11</title>
<path fill="none" stroke="#191970" d="M348.7208,-389.164C360.6361,-405.1974 379.8891,-427.6945 402,-440.5 409.0947,-444.6089 416.995,-447.8754 425.0274,-450.4718"/>
<polygon fill="#191970" stroke="#191970" points="351.253,-386.6882 342.5871,-380.5929 345.5605,-390.7619 351.253,-386.6882"/>
</g>
<!-- Node12 -->
<g id="node12" class="node">
<title>Node12</title>
<g id="a_node12"><a xlink:href="../../da/d2f/Fun4All__G4__fsPHENIX__FastSim_8C.html#a66fb850cae5fcaadda23b74a25ce4c9c" target="_top" xlink:title="Fun4All_G4_fsPHENIX\l_FastSim">
<polygon fill="none" stroke="#000000" points="423.5,-399.5 423.5,-431.5 547.5,-431.5 547.5,-399.5 423.5,-399.5"/>
<text text-anchor="start" x="431.5" y="-418.5" font-family="FreeSans" font-size="10.00" fill="#000000">Fun4All_G4_fsPHENIX</text>
<text text-anchor="middle" x="485.5" y="-406.5" font-family="FreeSans" font-size="10.00" fill="#000000">_FastSim</text>
</a>
</g>
</g>
<!-- Node3&#45;&gt;Node12 -->
<g id="edge11" class="edge">
<title>Node3&#45;&gt;Node12</title>
<path fill="none" stroke="#191970" d="M376.0215,-382.5466C393.302,-387.7481 413.7664,-393.9079 432.2985,-399.4862"/>
<polygon fill="#191970" stroke="#191970" points="376.838,-379.1373 366.2536,-379.6064 374.8203,-385.8402 376.838,-379.1373"/>
</g>
<!-- Node13 -->
<g id="node13" class="node">
<title>Node13</title>
<g id="a_node13"><a xlink:href="../../d0/da6/Fun4All__G4__fsPHENIX__pi0_8C.html#a023d91d47b678e5d7f1751834aa517c6" target="_top" xlink:title="Fun4All_G4_fsPHENIX_pi0">
<polygon fill="none" stroke="#000000" points="413,-360.5 413,-380.5 558,-380.5 558,-360.5 413,-360.5"/>
<text text-anchor="middle" x="485.5" y="-367.5" font-family="FreeSans" font-size="10.00" fill="#000000">Fun4All_G4_fsPHENIX_pi0</text>
</a>
</g>
</g>
<!-- Node3&#45;&gt;Node13 -->
<g id="edge12" class="edge">
<title>Node3&#45;&gt;Node13</title>
<path fill="none" stroke="#191970" d="M376.2574,-370.5C387.6119,-370.5 400.3264,-370.5 412.9568,-370.5"/>
<polygon fill="#191970" stroke="#191970" points="376.2536,-367.0001 366.2536,-370.5 376.2535,-374.0001 376.2536,-367.0001"/>
</g>
<!-- Node14 -->
<g id="node14" class="node">
<title>Node14</title>
<g id="a_node14"><a xlink:href="../../d5/d2c/macros_2blob_2master_2macros_2g4simulations_2Fun4All__G4__sPHENIX_8C.html#a6eaaa492d7023ec86c562dc63aa1e5a4" target="_top" xlink:title="Fun4All_G4_sPHENIX">
<polygon fill="none" stroke="#000000" points="425,-321.5 425,-341.5 546,-341.5 546,-321.5 425,-321.5"/>
<text text-anchor="middle" x="485.5" y="-328.5" font-family="FreeSans" font-size="10.00" fill="#000000">Fun4All_G4_sPHENIX</text>
</a>
</g>
</g>
<!-- Node3&#45;&gt;Node14 -->
<g id="edge13" class="edge">
<title>Node3&#45;&gt;Node14</title>
<path fill="none" stroke="#191970" d="M375.8989,-357.9156C384.4772,-355.3486 393.5151,-352.7479 402,-350.5 413.7844,-347.3779 426.5866,-344.3065 438.5454,-341.5736"/>
<polygon fill="#191970" stroke="#191970" points="374.6524,-354.6362 366.1005,-360.8904 376.686,-361.3343 374.6524,-354.6362"/>
</g>
<!-- Node15 -->
<g id="node15" class="node">
<title>Node15</title>
<g id="a_node15"><a xlink:href="../../d3/de2/Fun4All__G4__sPHENIX__AnaGenFit_8C.html#a9bf3f2f72ed69a17e2d0c1121d48013c" target="_top" xlink:title="Fun4All_G4_sPHENIX\l_AnaGenFit">
<polygon fill="none" stroke="#000000" points="425,-270.5 425,-302.5 546,-302.5 546,-270.5 425,-270.5"/>
<text text-anchor="start" x="433" y="-289.5" font-family="FreeSans" font-size="10.00" fill="#000000">Fun4All_G4_sPHENIX</text>
<text text-anchor="middle" x="485.5" y="-277.5" font-family="FreeSans" font-size="10.00" fill="#000000">_AnaGenFit</text>
</a>
</g>
</g>
<!-- Node3&#45;&gt;Node15 -->
<g id="edge14" class="edge">
<title>Node3&#45;&gt;Node15</title>
<path fill="none" stroke="#191970" d="M351.7303,-352.734C364.1939,-339.6473 382.6741,-322.3147 402,-311.5 409.1309,-307.5096 416.9687,-304.0903 424.898,-301.1786"/>
<polygon fill="#191970" stroke="#191970" points="349.0119,-350.5185 344.7936,-360.2374 354.152,-355.2704 349.0119,-350.5185"/>
</g>
<!-- Node16 -->
<g id="node16" class="node">
<title>Node16</title>
<g id="a_node16"><a xlink:href="../../da/dd0/Fun4All__G4__sPHENIX__photonjet_8C.html#a6f18519e216acc05399e562ea57ea77c" target="_top" xlink:title="Fun4All_G4_sPHENIX\l_photonjet">
<polygon fill="none" stroke="#000000" points="425,-219.5 425,-251.5 546,-251.5 546,-219.5 425,-219.5"/>
<text text-anchor="start" x="433" y="-238.5" font-family="FreeSans" font-size="10.00" fill="#000000">Fun4All_G4_sPHENIX</text>
<text text-anchor="middle" x="485.5" y="-226.5" font-family="FreeSans" font-size="10.00" fill="#000000">_photonjet</text>
</a>
</g>
</g>
<!-- Node3&#45;&gt;Node16 -->
<g id="edge15" class="edge">
<title>Node3&#45;&gt;Node16</title>
<path fill="none" stroke="#191970" d="M342.6801,-350.8716C352.076,-326.1865 371.5337,-284.1764 402,-260.5 408.8106,-255.2072 416.728,-251.032 424.9216,-247.7391"/>
<polygon fill="#191970" stroke="#191970" points="339.3849,-349.6921 339.2666,-360.2862 345.9657,-352.0781 339.3849,-349.6921"/>
</g>
<!-- Node17 -->
<g id="node17" class="node">
<title>Node17</title>
<g id="a_node17"><a xlink:href="../../da/d85/Fun4All__G4__sPHENIX__photons_8C.html#a02fbbd59878fe1299f58ed187e7214ba" target="_top" xlink:title="Fun4All_G4_sPHENIX\l_photons">
<polygon fill="none" stroke="#000000" points="425,-168.5 425,-200.5 546,-200.5 546,-168.5 425,-168.5"/>
<text text-anchor="start" x="433" y="-187.5" font-family="FreeSans" font-size="10.00" fill="#000000">Fun4All_G4_sPHENIX</text>
<text text-anchor="middle" x="485.5" y="-175.5" font-family="FreeSans" font-size="10.00" fill="#000000">_photons</text>
</a>
</g>
</g>
<!-- Node3&#45;&gt;Node17 -->
<g id="edge16" class="edge">
<title>Node3&#45;&gt;Node17</title>
<path fill="none" stroke="#191970" d="M338.6091,-350.4063C344.0891,-316.4243 359.9709,-247.5944 402,-209.5 408.503,-203.6058 416.3455,-199.0991 424.5866,-195.6538"/>
<polygon fill="#191970" stroke="#191970" points="335.117,-350.0974 337.1266,-360.4999 342.0427,-351.1146 335.117,-350.0974"/>
</g>
<!-- Node18 -->
<g id="node18" class="node">
<title>Node18</title>
<g id="a_node18"><a xlink:href="../../de/d55/Fun4All__G4__sPHENIX__truthphotonjet_8C.html#a48a6f4503eaa1b3793d8ae572aa795b9" target="_top" xlink:title="Fun4All_G4_sPHENIX\l_truthphotonjet">
<polygon fill="none" stroke="#000000" points="425,-117.5 425,-149.5 546,-149.5 546,-117.5 425,-117.5"/>
<text text-anchor="start" x="433" y="-136.5" font-family="FreeSans" font-size="10.00" fill="#000000">Fun4All_G4_sPHENIX</text>
<text text-anchor="middle" x="485.5" y="-124.5" font-family="FreeSans" font-size="10.00" fill="#000000">_truthphotonjet</text>
</a>
</g>
</g>
<!-- Node3&#45;&gt;Node18 -->
<g id="edge17" class="edge">
<title>Node3&#45;&gt;Node18</title>
<path fill="none" stroke="#191970" d="M339.7732,-350.3624C349.0444,-302.9055 374.218,-185.9807 402,-158.5 408.455,-152.115 416.471,-147.3497 424.9617,-143.7955"/>
<polygon fill="#191970" stroke="#191970" points="336.3031,-349.8745 337.8569,-360.3548 343.1778,-351.193 336.3031,-349.8745"/>
</g>
<!-- Node19 -->
<g id="node19" class="node">
<title>Node19</title>
<g id="a_node19"><a xlink:href="../../d4/d65/Fun4All__single__particle_8C.html#a8a492b5dbead494bfdddbebde8a49b0e" target="_top" xlink:title="Fun4All_single_particle">
<polygon fill="none" stroke="#000000" points="419.5,-78.5 419.5,-98.5 551.5,-98.5 551.5,-78.5 419.5,-78.5"/>
<text text-anchor="middle" x="485.5" y="-85.5" font-family="FreeSans" font-size="10.00" fill="#000000">Fun4All_single_particle</text>
</a>
</g>
</g>
<!-- Node3&#45;&gt;Node19 -->
<g id="edge18" class="edge">
<title>Node3&#45;&gt;Node19</title>
<path fill="none" stroke="#191970" d="M338.3374,-350.3423C345.174,-294.8774 366.8945,-141.8368 402,-107.5 406.9953,-102.6141 412.9709,-98.8818 419.3985,-96.0442"/>
<polygon fill="#191970" stroke="#191970" points="334.8534,-349.9998 337.1368,-360.3457 341.8036,-350.834 334.8534,-349.9998"/>
</g>
<!-- Node20 -->
<g id="node20" class="node">
<title>Node20</title>
<g id="a_node20"><a xlink:href="../../d0/d99/Jin__BJet_8C.html#a36169bfee2ed7efda633944d12aebad9" target="_top" xlink:title="Jin_BJet">
<polygon fill="none" stroke="#000000" points="458,-39.5 458,-59.5 513,-59.5 513,-39.5 458,-39.5"/>
<text text-anchor="middle" x="485.5" y="-46.5" font-family="FreeSans" font-size="10.00" fill="#000000">Jin_BJet</text>
</a>
</g>
</g>
<!-- Node3&#45;&gt;Node20 -->
<g id="edge19" class="edge">
<title>Node3&#45;&gt;Node20</title>
<path fill="none" stroke="#191970" d="M337.6409,-350.2505C342.997,-289.2346 361.9758,-108.8688 402,-68.5 416.4451,-53.9305 439.5807,-49.5476 457.8398,-48.6025"/>
<polygon fill="#191970" stroke="#191970" points="334.1301,-350.2312 336.7731,-360.4911 341.1051,-350.8224 334.1301,-350.2312"/>
</g>
<!-- Node21 -->
<g id="node21" class="node">
<title>Node21</title>
<g id="a_node21"><a xlink:href="../../dd/db1/Wrapper_8cxx.html#abf1e42281903daa0752c80dd6c879fac" target="_top" xlink:title="Wrapper">
<polygon fill="none" stroke="#000000" points="455.5,-.5 455.5,-20.5 515.5,-20.5 515.5,-.5 455.5,-.5"/>
<text text-anchor="middle" x="485.5" y="-7.5" font-family="FreeSans" font-size="10.00" fill="#000000">Wrapper</text>
</a>
</g>
</g>
<!-- Node3&#45;&gt;Node21 -->
<g id="edge20" class="edge">
<title>Node3&#45;&gt;Node21</title>
<path fill="none" stroke="#191970" d="M337.0901,-350.2645C341.068,-284.1352 357.0024,-75.9867 402,-29.5 415.649,-15.3993 437.4225,-10.7885 455.3133,-9.63"/>
<polygon fill="#191970" stroke="#191970" points="333.5954,-350.0726 336.5164,-360.2568 340.5839,-350.4739 333.5954,-350.0726"/>
</g>
<!-- Node5 -->
<g id="node5" class="node">
<title>Node5</title>
<g id="a_node5"><a xlink:href="../../d3/d7f/Fun_8C.html#af69a3eef3ff244bb51f5740c6ecb5432" target="_top" xlink:title="Fun">
<polygon fill="none" stroke="#000000" points="605,-696.5 605,-716.5 639,-716.5 639,-696.5 605,-696.5"/>
<text text-anchor="middle" x="622" y="-703.5" font-family="FreeSans" font-size="10.00" fill="#000000">Fun</text>
</a>
</g>
</g>
<!-- Node4&#45;&gt;Node5 -->
<g id="edge4" class="edge">
<title>Node4&#45;&gt;Node5</title>
<path fill="none" stroke="#191970" d="M552.6941,-706.5C572.0852,-706.5 591.59,-706.5 604.9452,-706.5"/>
<polygon fill="#191970" stroke="#191970" points="552.5974,-703.0001 542.5974,-706.5 552.5974,-710.0001 552.5974,-703.0001"/>
</g>
<!-- Node22&#45;&gt;Node3 -->
<g id="edge22" class="edge">
<title>Node22&#45;&gt;Node3</title>
<path fill="none" stroke="#191970" d="M259.5407,-358.5434C274.9918,-360.9596 291.8985,-363.6035 305.8761,-365.7893"/>
<polygon fill="#191970" stroke="#191970" points="260.0635,-355.0827 249.6428,-356.9956 258.982,-361.9987 260.0635,-355.0827"/>
</g>
</g>
</svg>
