<?xml version="1.0" encoding="UTF-8" standalone="no"?>
<!DOCTYPE svg PUBLIC "-//W3C//DTD SVG 1.1//EN"
 "http://www.w3.org/Graphics/SVG/1.1/DTD/svg11.dtd">
<!-- Generated by graphviz version 2.40.1 (20161225.0304)
 -->
<!-- Title: PHG4Sector::Sector_Geometry::set_N_Sector Pages: 1 -->
<svg width="668pt" height="725pt"
 viewBox="0.00 0.00 668.00 725.00" xmlns="http://www.w3.org/2000/svg" xmlns:xlink="http://www.w3.org/1999/xlink">
<g id="graph0" class="graph" transform="scale(1 1) rotate(0) translate(4 721)">
<title>PHG4Sector::Sector_Geometry::set_N_Sector</title>
<!-- Node1 -->
<g id="node1" class="node">
<title>Node1</title>
<polygon fill="#bfbfbf" stroke="#000000" points="0,-315.5 0,-347.5 144,-347.5 144,-315.5 0,-315.5"/>
<text text-anchor="start" x="8" y="-334.5" font-family="FreeSans" font-size="10.00" fill="#000000">PHG4Sector::Sector</text>
<text text-anchor="middle" x="72" y="-322.5" font-family="FreeSans" font-size="10.00" fill="#000000">_Geometry::set_N_Sector</text>
</g>
<!-- Node2 -->
<g id="node2" class="node">
<title>Node2</title>
<g id="a_node2"><a xlink:href="../../d4/dbc/macros_2blob_2master_2macros_2g4simulations_2G4__Aerogel_8C.html#a400136ba4928234f7c9990b4065328f1" target="_top" xlink:title="AerogelSetup">
<polygon fill="none" stroke="#000000" points="193,-380.5 193,-400.5 278,-400.5 278,-380.5 193,-380.5"/>
<text text-anchor="middle" x="235.5" y="-387.5" font-family="FreeSans" font-size="10.00" fill="#000000">AerogelSetup</text>
</a>
</g>
</g>
<!-- Node1&#45;&gt;Node2 -->
<g id="edge1" class="edge">
<title>Node1&#45;&gt;Node2</title>
<path fill="none" stroke="#191970" d="M126.2713,-351.1059C143.454,-357.3112 162.5216,-364.1949 180,-370.5 188.9599,-373.7321 198.7343,-377.2554 207.5491,-380.4317"/>
<polygon fill="#191970" stroke="#191970" points="126.9928,-347.6453 116.3985,-347.5403 124.615,-354.2291 126.9928,-347.6453"/>
</g>
<!-- Node22 -->
<g id="node22" class="node">
<title>Node22</title>
<g id="a_node22"><a xlink:href="../../d3/dc0/macros_2blob_2master_2macros_2g4simulations_2G4__DIRC_8C.html#acbdf429e4e41a2057e053691cc0b4128" target="_top" xlink:title="DIRCSetup">
<polygon fill="none" stroke="#000000" points="200.5,-341.5 200.5,-361.5 270.5,-361.5 270.5,-341.5 200.5,-341.5"/>
<text text-anchor="middle" x="235.5" y="-348.5" font-family="FreeSans" font-size="10.00" fill="#000000">DIRCSetup</text>
</a>
</g>
</g>
<!-- Node1&#45;&gt;Node22 -->
<g id="edge21" class="edge">
<title>Node1&#45;&gt;Node22</title>
<path fill="none" stroke="#191970" d="M154.2886,-341.5659C170.5396,-343.5538 186.7622,-345.5382 200.3875,-347.2049"/>
<polygon fill="#191970" stroke="#191970" points="154.5404,-338.0707 144.1894,-340.3305 153.6904,-345.0189 154.5404,-338.0707"/>
</g>
<!-- Node23 -->
<g id="node23" class="node">
<title>Node23</title>
<g id="a_node23"><a xlink:href="../../d7/df5/EICAnalysis_2macros_2leptoquarks__fun4all_2G4__FGEM__EIC_8C.html#ac44d1ef8dd3931eed6dd2ae0110ed8d1" target="_top" xlink:title="FGEMSetup">
<polygon fill="none" stroke="#000000" points="198.5,-302.5 198.5,-322.5 272.5,-322.5 272.5,-302.5 198.5,-302.5"/>
<text text-anchor="middle" x="235.5" y="-309.5" font-family="FreeSans" font-size="10.00" fill="#000000">FGEMSetup</text>
</a>
</g>
</g>
<!-- Node1&#45;&gt;Node23 -->
<g id="edge23" class="edge">
<title>Node1&#45;&gt;Node23</title>
<path fill="none" stroke="#191970" d="M154.2846,-321.9379C169.6762,-320.1492 185.0426,-318.3636 198.2011,-316.8344"/>
<polygon fill="#191970" stroke="#191970" points="153.7185,-318.48 144.1894,-323.111 154.5266,-325.4332 153.7185,-318.48"/>
</g>
<!-- Node24 -->
<g id="node24" class="node">
<title>Node24</title>
<g id="a_node24"><a xlink:href="../../d8/d41/G4__EGEM__EIC_8C.html#ab02e3ec0ae447e560b3a9a6fc25d9243" target="_top" xlink:title="make_GEM_station">
<polygon fill="none" stroke="#000000" points="180,-263.5 180,-283.5 291,-283.5 291,-263.5 180,-263.5"/>
<text text-anchor="middle" x="235.5" y="-270.5" font-family="FreeSans" font-size="10.00" fill="#000000">make_GEM_station</text>
</a>
</g>
</g>
<!-- Node1&#45;&gt;Node24 -->
<g id="edge24" class="edge">
<title>Node1&#45;&gt;Node24</title>
<path fill="none" stroke="#191970" d="M125.2644,-312.0661C142.6877,-305.7624 162.1491,-298.7781 180,-292.5 188.3586,-289.5603 197.4458,-286.4243 205.8011,-283.5649"/>
<polygon fill="#191970" stroke="#191970" points="124.0269,-308.7917 115.8176,-315.4893 126.4118,-315.373 124.0269,-308.7917"/>
</g>
<!-- Node3 -->
<g id="node3" class="node">
<title>Node3</title>
<g id="a_node3"><a xlink:href="../../d2/dfe/macros_2blob_2master_2macros_2g4simulations_2G4Setup__EICDetector_8C.html#a5d4cb2d19366a2ae6d2aefe8d2e4a870" target="_top" xlink:title="G4Setup">
<polygon fill="none" stroke="#000000" points="327,-360.5 327,-380.5 387,-380.5 387,-360.5 327,-360.5"/>
<text text-anchor="middle" x="357" y="-367.5" font-family="FreeSans" font-size="10.00" fill="#000000">G4Setup</text>
</a>
</g>
</g>
<!-- Node2&#45;&gt;Node3 -->
<g id="edge2" class="edge">
<title>Node2&#45;&gt;Node3</title>
<path fill="none" stroke="#191970" d="M288.2617,-381.815C301.4255,-379.6481 315.0986,-377.3973 326.7504,-375.4794"/>
<polygon fill="#191970" stroke="#191970" points="287.6351,-378.3709 278.3364,-383.4487 288.7721,-385.278 287.6351,-378.3709"/>
</g>
<!-- Node4 -->
<g id="node4" class="node">
<title>Node4</title>
<g id="a_node4"><a xlink:href="../../d3/d7f/Fun_8C.html#af0d3c8a78765149fef9b2beeecfc6279" target="_top" xlink:title="ConfigureDetectors">
<polygon fill="none" stroke="#000000" points="449.5,-696.5 449.5,-716.5 563.5,-716.5 563.5,-696.5 449.5,-696.5"/>
<text text-anchor="middle" x="506.5" y="-703.5" font-family="FreeSans" font-size="10.00" fill="#000000">ConfigureDetectors</text>
</a>
</g>
</g>
<!-- Node3&#45;&gt;Node4 -->
<g id="edge3" class="edge">
<title>Node3&#45;&gt;Node4</title>
<path fill="none" stroke="#191970" d="M358.4577,-390.8418C363.3809,-453.7895 381.4621,-643.7315 423,-686.5 430.166,-693.8783 439.5352,-698.7322 449.3992,-701.8865"/>
<polygon fill="#191970" stroke="#191970" points="361.9298,-390.339 357.6889,-380.63 354.9496,-390.8646 361.9298,-390.339"/>
</g>
<!-- Node6 -->
<g id="node6" class="node">
<title>Node6</title>
<g id="a_node6"><a xlink:href="../../da/d02/Fun4All__G4__EICDetector_8C.html#afbe82cefa1d1fd031d9a8586b7bb68c6" target="_top" xlink:title="Fun4All_G4_EICDetector">
<polygon fill="none" stroke="#000000" points="437,-657.5 437,-677.5 576,-677.5 576,-657.5 437,-657.5"/>
<text text-anchor="middle" x="506.5" y="-664.5" font-family="FreeSans" font-size="10.00" fill="#000000">Fun4All_G4_EICDetector</text>
</a>
</g>
</g>
<!-- Node3&#45;&gt;Node6 -->
<g id="edge5" class="edge">
<title>Node3&#45;&gt;Node6</title>
<path fill="none" stroke="#191970" d="M359.0739,-390.5594C365.4048,-447.9046 386.317,-610.7735 423,-647.5 427.003,-651.5078 431.6575,-654.7664 436.6817,-657.41"/>
<polygon fill="#191970" stroke="#191970" points="362.5486,-390.1356 358.0018,-380.566 355.5886,-390.8823 362.5486,-390.1356"/>
</g>
<!-- Node7 -->
<g id="node7" class="node">
<title>Node7</title>
<g id="a_node7"><a xlink:href="../../dd/d2a/Fun4All__G4__EICDetector__LQ_8C.html#aaa01242fd6e77ca43a9d49a6d46008e4" target="_top" xlink:title="Fun4All_G4_EICDetector_LQ">
<polygon fill="none" stroke="#000000" points="428.5,-618.5 428.5,-638.5 584.5,-638.5 584.5,-618.5 428.5,-618.5"/>
<text text-anchor="middle" x="506.5" y="-625.5" font-family="FreeSans" font-size="10.00" fill="#000000">Fun4All_G4_EICDetector_LQ</text>
</a>
</g>
</g>
<!-- Node3&#45;&gt;Node7 -->
<g id="edge6" class="edge">
<title>Node3&#45;&gt;Node7</title>
<path fill="none" stroke="#191970" d="M359.8918,-390.4112C367.7691,-441.9372 391.1671,-577.7751 423,-608.5 427.183,-612.5374 432.0294,-615.8088 437.2399,-618.4539"/>
<polygon fill="#191970" stroke="#191970" points="363.3511,-389.8783 358.4113,-380.5056 356.428,-390.9131 363.3511,-389.8783"/>
</g>
<!-- Node8 -->
<g id="node8" class="node">
<title>Node8</title>
<g id="a_node8"><a xlink:href="../../d4/df5/Fun4All__G4__EICDetector__LQ__reference_8C.html#a2feefc472f17f90b3cbe74897d049f75" target="_top" xlink:title="Fun4All_G4_EICDetector\l_LQ_reference">
<polygon fill="none" stroke="#000000" points="437,-567.5 437,-599.5 576,-599.5 576,-567.5 437,-567.5"/>
<text text-anchor="start" x="445" y="-586.5" font-family="FreeSans" font-size="10.00" fill="#000000">Fun4All_G4_EICDetector</text>
<text text-anchor="middle" x="506.5" y="-574.5" font-family="FreeSans" font-size="10.00" fill="#000000">_LQ_reference</text>
</a>
</g>
</g>
<!-- Node3&#45;&gt;Node8 -->
<g id="edge7" class="edge">
<title>Node3&#45;&gt;Node8</title>
<path fill="none" stroke="#191970" d="M358.3789,-391.0457C362.0539,-429.2763 375.3615,-511.612 423,-557.5 427.046,-561.3973 431.6667,-564.7111 436.6114,-567.5288"/>
<polygon fill="#191970" stroke="#191970" points="361.8344,-390.3629 357.5203,-380.6861 354.8583,-390.9411 361.8344,-390.3629"/>
</g>
<!-- Node9 -->
<g id="node9" class="node">
<title>Node9</title>
<g id="a_node9"><a xlink:href="../../d3/d51/Fun4All__G4__EICDetector__RICH_8C.html#a5739502b0a7a1ba782c01069f77e933f" target="_top" xlink:title="Fun4All_G4_EICDetector_RICH">
<polygon fill="none" stroke="#000000" points="423,-528.5 423,-548.5 590,-548.5 590,-528.5 423,-528.5"/>
<text text-anchor="middle" x="506.5" y="-535.5" font-family="FreeSans" font-size="10.00" fill="#000000">Fun4All_G4_EICDetector_RICH</text>
</a>
</g>
</g>
<!-- Node3&#45;&gt;Node9 -->
<g id="edge8" class="edge">
<title>Node3&#45;&gt;Node9</title>
<path fill="none" stroke="#191970" d="M360.159,-390.5756C366.2957,-422.6481 382.9289,-485.2114 423,-518.5 427.8158,-522.5007 433.2989,-525.7269 439.1008,-528.3252"/>
<polygon fill="#191970" stroke="#191970" points="363.584,-389.8434 358.4049,-380.6008 356.6898,-391.0559 363.584,-389.8434"/>
</g>
<!-- Node10 -->
<g id="node10" class="node">
<title>Node10</title>
<g id="a_node10"><a xlink:href="../../d9/d0e/Fun4All__G4__EICIR_8C.html#ac3543d1dd4a0abed3987d40939ee3f87" target="_top" xlink:title="Fun4All_G4_EICIR">
<polygon fill="none" stroke="#000000" points="454.5,-489.5 454.5,-509.5 558.5,-509.5 558.5,-489.5 454.5,-489.5"/>
<text text-anchor="middle" x="506.5" y="-496.5" font-family="FreeSans" font-size="10.00" fill="#000000">Fun4All_G4_EICIR</text>
</a>
</g>
</g>
<!-- Node3&#45;&gt;Node10 -->
<g id="edge9" class="edge">
<title>Node3&#45;&gt;Node10</title>
<path fill="none" stroke="#191970" d="M363.5275,-390.2192C372.7613,-414.9659 392.047,-456.8978 423,-479.5 432.1494,-486.181 443.2255,-490.6578 454.2781,-493.6504"/>
<polygon fill="#191970" stroke="#191970" points="366.8192,-389.0294 360.1809,-380.7721 360.221,-391.3668 366.8192,-389.0294"/>
</g>
<!-- Node11 -->
<g id="node11" class="node">
<title>Node11</title>
<g id="a_node11"><a xlink:href="../../d7/d9e/Fun4All__G4__fsPHENIX_8C.html#af48911d394d2412e817583700f2bbee2" target="_top" xlink:title="Fun4All_G4_fsPHENIX">
<polygon fill="none" stroke="#000000" points="444.5,-450.5 444.5,-470.5 568.5,-470.5 568.5,-450.5 444.5,-450.5"/>
<text text-anchor="middle" x="506.5" y="-457.5" font-family="FreeSans" font-size="10.00" fill="#000000">Fun4All_G4_fsPHENIX</text>
</a>
</g>
</g>
<!-- Node3&#45;&gt;Node11 -->
<g id="edge10" class="edge">
<title>Node3&#45;&gt;Node11</title>
<path fill="none" stroke="#191970" d="M369.7208,-389.164C381.6361,-405.1974 400.8891,-427.6945 423,-440.5 430.0947,-444.6089 437.995,-447.8754 446.0274,-450.4718"/>
<polygon fill="#191970" stroke="#191970" points="372.253,-386.6882 363.5871,-380.5929 366.5605,-390.7619 372.253,-386.6882"/>
</g>
<!-- Node12 -->
<g id="node12" class="node">
<title>Node12</title>
<g id="a_node12"><a xlink:href="../../da/d2f/Fun4All__G4__fsPHENIX__FastSim_8C.html#a66fb850cae5fcaadda23b74a25ce4c9c" target="_top" xlink:title="Fun4All_G4_fsPHENIX\l_FastSim">
<polygon fill="none" stroke="#000000" points="444.5,-399.5 444.5,-431.5 568.5,-431.5 568.5,-399.5 444.5,-399.5"/>
<text text-anchor="start" x="452.5" y="-418.5" font-family="FreeSans" font-size="10.00" fill="#000000">Fun4All_G4_fsPHENIX</text>
<text text-anchor="middle" x="506.5" y="-406.5" font-family="FreeSans" font-size="10.00" fill="#000000">_FastSim</text>
</a>
</g>
</g>
<!-- Node3&#45;&gt;Node12 -->
<g id="edge11" class="edge">
<title>Node3&#45;&gt;Node12</title>
<path fill="none" stroke="#191970" d="M397.0215,-382.5466C414.302,-387.7481 434.7664,-393.9079 453.2985,-399.4862"/>
<polygon fill="#191970" stroke="#191970" points="397.838,-379.1373 387.2536,-379.6064 395.8203,-385.8402 397.838,-379.1373"/>
</g>
<!-- Node13 -->
<g id="node13" class="node">
<title>Node13</title>
<g id="a_node13"><a xlink:href="../../d0/da6/Fun4All__G4__fsPHENIX__pi0_8C.html#a023d91d47b678e5d7f1751834aa517c6" target="_top" xlink:title="Fun4All_G4_fsPHENIX_pi0">
<polygon fill="none" stroke="#000000" points="434,-360.5 434,-380.5 579,-380.5 579,-360.5 434,-360.5"/>
<text text-anchor="middle" x="506.5" y="-367.5" font-family="FreeSans" font-size="10.00" fill="#000000">Fun4All_G4_fsPHENIX_pi0</text>
</a>
</g>
</g>
<!-- Node3&#45;&gt;Node13 -->
<g id="edge12" class="edge">
<title>Node3&#45;&gt;Node13</title>
<path fill="none" stroke="#191970" d="M397.2574,-370.5C408.6119,-370.5 421.3264,-370.5 433.9568,-370.5"/>
<polygon fill="#191970" stroke="#191970" points="397.2536,-367.0001 387.2536,-370.5 397.2535,-374.0001 397.2536,-367.0001"/>
</g>
<!-- Node14 -->
<g id="node14" class="node">
<title>Node14</title>
<g id="a_node14"><a xlink:href="../../d5/d2c/macros_2blob_2master_2macros_2g4simulations_2Fun4All__G4__sPHENIX_8C.html#a6eaaa492d7023ec86c562dc63aa1e5a4" target="_top" xlink:title="Fun4All_G4_sPHENIX">
<polygon fill="none" stroke="#000000" points="446,-321.5 446,-341.5 567,-341.5 567,-321.5 446,-321.5"/>
<text text-anchor="middle" x="506.5" y="-328.5" font-family="FreeSans" font-size="10.00" fill="#000000">Fun4All_G4_sPHENIX</text>
</a>
</g>
</g>
<!-- Node3&#45;&gt;Node14 -->
<g id="edge13" class="edge">
<title>Node3&#45;&gt;Node14</title>
<path fill="none" stroke="#191970" d="M396.8989,-357.9156C405.4772,-355.3486 414.5151,-352.7479 423,-350.5 434.7844,-347.3779 447.5866,-344.3065 459.5454,-341.5736"/>
<polygon fill="#191970" stroke="#191970" points="395.6524,-354.6362 387.1005,-360.8904 397.686,-361.3343 395.6524,-354.6362"/>
</g>
<!-- Node15 -->
<g id="node15" class="node">
<title>Node15</title>
<g id="a_node15"><a xlink:href="../../d3/de2/Fun4All__G4__sPHENIX__AnaGenFit_8C.html#a9bf3f2f72ed69a17e2d0c1121d48013c" target="_top" xlink:title="Fun4All_G4_sPHENIX\l_AnaGenFit">
<polygon fill="none" stroke="#000000" points="446,-270.5 446,-302.5 567,-302.5 567,-270.5 446,-270.5"/>
<text text-anchor="start" x="454" y="-289.5" font-family="FreeSans" font-size="10.00" fill="#000000">Fun4All_G4_sPHENIX</text>
<text text-anchor="middle" x="506.5" y="-277.5" font-family="FreeSans" font-size="10.00" fill="#000000">_AnaGenFit</text>
</a>
</g>
</g>
<!-- Node3&#45;&gt;Node15 -->
<g id="edge14" class="edge">
<title>Node3&#45;&gt;Node15</title>
<path fill="none" stroke="#191970" d="M372.7303,-352.734C385.1939,-339.6473 403.6741,-322.3147 423,-311.5 430.1309,-307.5096 437.9687,-304.0903 445.898,-301.1786"/>
<polygon fill="#191970" stroke="#191970" points="370.0119,-350.5185 365.7936,-360.2374 375.152,-355.2704 370.0119,-350.5185"/>
</g>
<!-- Node16 -->
<g id="node16" class="node">
<title>Node16</title>
<g id="a_node16"><a xlink:href="../../da/dd0/Fun4All__G4__sPHENIX__photonjet_8C.html#a6f18519e216acc05399e562ea57ea77c" target="_top" xlink:title="Fun4All_G4_sPHENIX\l_photonjet">
<polygon fill="none" stroke="#000000" points="446,-219.5 446,-251.5 567,-251.5 567,-219.5 446,-219.5"/>
<text text-anchor="start" x="454" y="-238.5" font-family="FreeSans" font-size="10.00" fill="#000000">Fun4All_G4_sPHENIX</text>
<text text-anchor="middle" x="506.5" y="-226.5" font-family="FreeSans" font-size="10.00" fill="#000000">_photonjet</text>
</a>
</g>
</g>
<!-- Node3&#45;&gt;Node16 -->
<g id="edge15" class="edge">
<title>Node3&#45;&gt;Node16</title>
<path fill="none" stroke="#191970" d="M363.6801,-350.8716C373.076,-326.1865 392.5337,-284.1764 423,-260.5 429.8106,-255.2072 437.728,-251.032 445.9216,-247.7391"/>
<polygon fill="#191970" stroke="#191970" points="360.3849,-349.6921 360.2666,-360.2862 366.9657,-352.0781 360.3849,-349.6921"/>
</g>
<!-- Node17 -->
<g id="node17" class="node">
<title>Node17</title>
<g id="a_node17"><a xlink:href="../../da/d85/Fun4All__G4__sPHENIX__photons_8C.html#a02fbbd59878fe1299f58ed187e7214ba" target="_top" xlink:title="Fun4All_G4_sPHENIX\l_photons">
<polygon fill="none" stroke="#000000" points="446,-168.5 446,-200.5 567,-200.5 567,-168.5 446,-168.5"/>
<text text-anchor="start" x="454" y="-187.5" font-family="FreeSans" font-size="10.00" fill="#000000">Fun4All_G4_sPHENIX</text>
<text text-anchor="middle" x="506.5" y="-175.5" font-family="FreeSans" font-size="10.00" fill="#000000">_photons</text>
</a>
</g>
</g>
<!-- Node3&#45;&gt;Node17 -->
<g id="edge16" class="edge">
<title>Node3&#45;&gt;Node17</title>
<path fill="none" stroke="#191970" d="M359.6091,-350.4063C365.0891,-316.4243 380.9709,-247.5944 423,-209.5 429.503,-203.6058 437.3455,-199.0991 445.5866,-195.6538"/>
<polygon fill="#191970" stroke="#191970" points="356.117,-350.0974 358.1266,-360.4999 363.0427,-351.1146 356.117,-350.0974"/>
</g>
<!-- Node18 -->
<g id="node18" class="node">
<title>Node18</title>
<g id="a_node18"><a xlink:href="../../de/d55/Fun4All__G4__sPHENIX__truthphotonjet_8C.html#a48a6f4503eaa1b3793d8ae572aa795b9" target="_top" xlink:title="Fun4All_G4_sPHENIX\l_truthphotonjet">
<polygon fill="none" stroke="#000000" points="446,-117.5 446,-149.5 567,-149.5 567,-117.5 446,-117.5"/>
<text text-anchor="start" x="454" y="-136.5" font-family="FreeSans" font-size="10.00" fill="#000000">Fun4All_G4_sPHENIX</text>
<text text-anchor="middle" x="506.5" y="-124.5" font-family="FreeSans" font-size="10.00" fill="#000000">_truthphotonjet</text>
</a>
</g>
</g>
<!-- Node3&#45;&gt;Node18 -->
<g id="edge17" class="edge">
<title>Node3&#45;&gt;Node18</title>
<path fill="none" stroke="#191970" d="M360.7732,-350.3624C370.0444,-302.9055 395.218,-185.9807 423,-158.5 429.455,-152.115 437.471,-147.3497 445.9617,-143.7955"/>
<polygon fill="#191970" stroke="#191970" points="357.3031,-349.8745 358.8569,-360.3548 364.1778,-351.193 357.3031,-349.8745"/>
</g>
<!-- Node19 -->
<g id="node19" class="node">
<title>Node19</title>
<g id="a_node19"><a xlink:href="../../d4/d65/Fun4All__single__particle_8C.html#a8a492b5dbead494bfdddbebde8a49b0e" target="_top" xlink:title="Fun4All_single_particle">
<polygon fill="none" stroke="#000000" points="440.5,-78.5 440.5,-98.5 572.5,-98.5 572.5,-78.5 440.5,-78.5"/>
<text text-anchor="middle" x="506.5" y="-85.5" font-family="FreeSans" font-size="10.00" fill="#000000">Fun4All_single_particle</text>
</a>
</g>
</g>
<!-- Node3&#45;&gt;Node19 -->
<g id="edge18" class="edge">
<title>Node3&#45;&gt;Node19</title>
<path fill="none" stroke="#191970" d="M359.3374,-350.3423C366.174,-294.8774 387.8945,-141.8368 423,-107.5 427.9953,-102.6141 433.9709,-98.8818 440.3985,-96.0442"/>
<polygon fill="#191970" stroke="#191970" points="355.8534,-349.9998 358.1368,-360.3457 362.8036,-350.834 355.8534,-349.9998"/>
</g>
<!-- Node20 -->
<g id="node20" class="node">
<title>Node20</title>
<g id="a_node20"><a xlink:href="../../d0/d99/Jin__BJet_8C.html#a36169bfee2ed7efda633944d12aebad9" target="_top" xlink:title="Jin_BJet">
<polygon fill="none" stroke="#000000" points="479,-39.5 479,-59.5 534,-59.5 534,-39.5 479,-39.5"/>
<text text-anchor="middle" x="506.5" y="-46.5" font-family="FreeSans" font-size="10.00" fill="#000000">Jin_BJet</text>
</a>
</g>
</g>
<!-- Node3&#45;&gt;Node20 -->
<g id="edge19" class="edge">
<title>Node3&#45;&gt;Node20</title>
<path fill="none" stroke="#191970" d="M358.6409,-350.2505C363.997,-289.2346 382.9758,-108.8688 423,-68.5 437.4451,-53.9305 460.5807,-49.5476 478.8398,-48.6025"/>
<polygon fill="#191970" stroke="#191970" points="355.1301,-350.2312 357.7731,-360.4911 362.1051,-350.8224 355.1301,-350.2312"/>
</g>
<!-- Node21 -->
<g id="node21" class="node">
<title>Node21</title>
<g id="a_node21"><a xlink:href="../../dd/db1/Wrapper_8cxx.html#abf1e42281903daa0752c80dd6c879fac" target="_top" xlink:title="Wrapper">
<polygon fill="none" stroke="#000000" points="476.5,-.5 476.5,-20.5 536.5,-20.5 536.5,-.5 476.5,-.5"/>
<text text-anchor="middle" x="506.5" y="-7.5" font-family="FreeSans" font-size="10.00" fill="#000000">Wrapper</text>
</a>
</g>
</g>
<!-- Node3&#45;&gt;Node21 -->
<g id="edge20" class="edge">
<title>Node3&#45;&gt;Node21</title>
<path fill="none" stroke="#191970" d="M358.0901,-350.2645C362.068,-284.1352 378.0024,-75.9867 423,-29.5 436.649,-15.3993 458.4225,-10.7885 476.3133,-9.63"/>
<polygon fill="#191970" stroke="#191970" points="354.5954,-350.0726 357.5164,-360.2568 361.5839,-350.4739 354.5954,-350.0726"/>
</g>
<!-- Node5 -->
<g id="node5" class="node">
<title>Node5</title>
<g id="a_node5"><a xlink:href="../../d3/d7f/Fun_8C.html#af69a3eef3ff244bb51f5740c6ecb5432" target="_top" xlink:title="Fun">
<polygon fill="none" stroke="#000000" points="626,-696.5 626,-716.5 660,-716.5 660,-696.5 626,-696.5"/>
<text text-anchor="middle" x="643" y="-703.5" font-family="FreeSans" font-size="10.00" fill="#000000">Fun</text>
</a>
</g>
</g>
<!-- Node4&#45;&gt;Node5 -->
<g id="edge4" class="edge">
<title>Node4&#45;&gt;Node5</title>
<path fill="none" stroke="#191970" d="M573.6941,-706.5C593.0852,-706.5 612.59,-706.5 625.9452,-706.5"/>
<polygon fill="#191970" stroke="#191970" points="573.5974,-703.0001 563.5974,-706.5 573.5974,-710.0001 573.5974,-703.0001"/>
</g>
<!-- Node22&#45;&gt;Node3 -->
<g id="edge22" class="edge">
<title>Node22&#45;&gt;Node3</title>
<path fill="none" stroke="#191970" d="M280.5407,-358.5434C295.9918,-360.9596 312.8985,-363.6035 326.8761,-365.7893"/>
<polygon fill="#191970" stroke="#191970" points="281.0635,-355.0827 270.6428,-356.9956 279.982,-361.9987 281.0635,-355.0827"/>
</g>
</g>
</svg>
