<?xml version="1.0" encoding="UTF-8" standalone="no"?>
<!DOCTYPE svg PUBLIC "-//W3C//DTD SVG 1.1//EN"
 "http://www.w3.org/Graphics/SVG/1.1/DTD/svg11.dtd">
<!-- Generated by graphviz version 2.40.1 (20161225.0304)
 -->
<!-- Title: PHG4Sector::Sector_Geometry::AddLayers_AeroGel_ePHENIX Pages: 1 -->
<svg width="630pt" height="725pt"
 viewBox="0.00 0.00 630.00 725.00" xmlns="http://www.w3.org/2000/svg" xmlns:xlink="http://www.w3.org/1999/xlink">
<g id="graph0" class="graph" transform="scale(1 1) rotate(0) translate(4 721)">
<title>PHG4Sector::Sector_Geometry::AddLayers_AeroGel_ePHENIX</title>
<!-- Node1 -->
<g id="node1" class="node">
<title>Node1</title>
<polygon fill="#bfbfbf" stroke="#000000" points="0,-348.5 0,-392.5 132,-392.5 132,-348.5 0,-348.5"/>
<text text-anchor="start" x="8" y="-379.5" font-family="FreeSans" font-size="10.00" fill="#000000">PHG4Sector::Sector</text>
<text text-anchor="start" x="8" y="-367.5" font-family="FreeSans" font-size="10.00" fill="#000000">_Geometry::AddLayers</text>
<text text-anchor="middle" x="66" y="-355.5" font-family="FreeSans" font-size="10.00" fill="#000000">_AeroGel_ePHENIX</text>
</g>
<!-- Node2 -->
<g id="node2" class="node">
<title>Node2</title>
<g id="a_node2"><a xlink:href="../../d4/dbc/macros_2blob_2master_2macros_2g4simulations_2G4__Aerogel_8C.html#a400136ba4928234f7c9990b4065328f1" target="_top" xlink:title="AerogelSetup">
<polygon fill="none" stroke="#000000" points="168,-360.5 168,-380.5 253,-380.5 253,-360.5 168,-360.5"/>
<text text-anchor="middle" x="210.5" y="-367.5" font-family="FreeSans" font-size="10.00" fill="#000000">AerogelSetup</text>
</a>
</g>
</g>
<!-- Node1&#45;&gt;Node2 -->
<g id="edge1" class="edge">
<title>Node1&#45;&gt;Node2</title>
<path fill="none" stroke="#191970" d="M142.4927,-370.5C151.1441,-370.5 159.7142,-370.5 167.7043,-370.5"/>
<polygon fill="#191970" stroke="#191970" points="142.3292,-367.0001 132.3292,-370.5 142.3291,-374.0001 142.3292,-367.0001"/>
</g>
<!-- Node3 -->
<g id="node3" class="node">
<title>Node3</title>
<g id="a_node3"><a xlink:href="../../d2/dfe/macros_2blob_2master_2macros_2g4simulations_2G4Setup__EICDetector_8C.html#a5d4cb2d19366a2ae6d2aefe8d2e4a870" target="_top" xlink:title="G4Setup">
<polygon fill="none" stroke="#000000" points="289,-360.5 289,-380.5 349,-380.5 349,-360.5 289,-360.5"/>
<text text-anchor="middle" x="319" y="-367.5" font-family="FreeSans" font-size="10.00" fill="#000000">G4Setup</text>
</a>
</g>
</g>
<!-- Node2&#45;&gt;Node3 -->
<g id="edge2" class="edge">
<title>Node2&#45;&gt;Node3</title>
<path fill="none" stroke="#191970" d="M263.3235,-370.5C272.1243,-370.5 280.9752,-370.5 288.9489,-370.5"/>
<polygon fill="#191970" stroke="#191970" points="263.0707,-367.0001 253.0707,-370.5 263.0706,-374.0001 263.0707,-367.0001"/>
</g>
<!-- Node4 -->
<g id="node4" class="node">
<title>Node4</title>
<g id="a_node4"><a xlink:href="../../d3/d7f/Fun_8C.html#af0d3c8a78765149fef9b2beeecfc6279" target="_top" xlink:title="ConfigureDetectors">
<polygon fill="none" stroke="#000000" points="411.5,-696.5 411.5,-716.5 525.5,-716.5 525.5,-696.5 411.5,-696.5"/>
<text text-anchor="middle" x="468.5" y="-703.5" font-family="FreeSans" font-size="10.00" fill="#000000">ConfigureDetectors</text>
</a>
</g>
</g>
<!-- Node3&#45;&gt;Node4 -->
<g id="edge3" class="edge">
<title>Node3&#45;&gt;Node4</title>
<path fill="none" stroke="#191970" d="M320.4273,-390.9258C325.2608,-454.1307 343.1067,-644.8258 385,-687.5 392.1864,-694.8204 401.5649,-699.5749 411.4318,-702.6149"/>
<polygon fill="#191970" stroke="#191970" points="323.8973,-390.3885 319.6733,-380.6721 316.9162,-390.9019 323.8973,-390.3885"/>
</g>
<!-- Node6 -->
<g id="node6" class="node">
<title>Node6</title>
<g id="a_node6"><a xlink:href="../../da/d02/Fun4All__G4__EICDetector_8C.html#afbe82cefa1d1fd031d9a8586b7bb68c6" target="_top" xlink:title="Fun4All_G4_EICDetector">
<polygon fill="none" stroke="#000000" points="399,-657.5 399,-677.5 538,-677.5 538,-657.5 399,-657.5"/>
<text text-anchor="middle" x="468.5" y="-664.5" font-family="FreeSans" font-size="10.00" fill="#000000">Fun4All_G4_EICDetector</text>
</a>
</g>
</g>
<!-- Node3&#45;&gt;Node6 -->
<g id="edge5" class="edge">
<title>Node3&#45;&gt;Node6</title>
<path fill="none" stroke="#191970" d="M321.043,-390.6514C327.2901,-448.2566 347.9979,-611.8426 385,-648.5 389.0134,-652.4761 393.6752,-655.6904 398.7044,-658.2815"/>
<polygon fill="#191970" stroke="#191970" points="324.5139,-390.1909 319.9858,-380.6124 317.5524,-390.924 324.5139,-390.1909"/>
</g>
<!-- Node7 -->
<g id="node7" class="node">
<title>Node7</title>
<g id="a_node7"><a xlink:href="../../dd/d2a/Fun4All__G4__EICDetector__LQ_8C.html#aaa01242fd6e77ca43a9d49a6d46008e4" target="_top" xlink:title="Fun4All_G4_EICDetector_LQ">
<polygon fill="none" stroke="#000000" points="390.5,-618.5 390.5,-638.5 546.5,-638.5 546.5,-618.5 390.5,-618.5"/>
<text text-anchor="middle" x="468.5" y="-625.5" font-family="FreeSans" font-size="10.00" fill="#000000">Fun4All_G4_EICDetector_LQ</text>
</a>
</g>
</g>
<!-- Node3&#45;&gt;Node7 -->
<g id="edge6" class="edge">
<title>Node3&#45;&gt;Node7</title>
<path fill="none" stroke="#191970" d="M321.8599,-390.5144C329.6596,-442.3048 352.8848,-578.8199 385,-609.5 388.655,-612.9917 392.812,-615.891 397.2733,-618.2938"/>
<polygon fill="#191970" stroke="#191970" points="325.3134,-389.9416 320.3947,-380.5578 318.388,-390.9608 325.3134,-389.9416"/>
</g>
<!-- Node8 -->
<g id="node8" class="node">
<title>Node8</title>
<g id="a_node8"><a xlink:href="../../d4/df5/Fun4All__G4__EICDetector__LQ__reference_8C.html#a2feefc472f17f90b3cbe74897d049f75" target="_top" xlink:title="Fun4All_G4_EICDetector\l_LQ_reference">
<polygon fill="none" stroke="#000000" points="399,-567.5 399,-599.5 538,-599.5 538,-567.5 399,-567.5"/>
<text text-anchor="start" x="407" y="-586.5" font-family="FreeSans" font-size="10.00" fill="#000000">Fun4All_G4_EICDetector</text>
<text text-anchor="middle" x="468.5" y="-574.5" font-family="FreeSans" font-size="10.00" fill="#000000">_LQ_reference</text>
</a>
</g>
</g>
<!-- Node3&#45;&gt;Node8 -->
<g id="edge7" class="edge">
<title>Node3&#45;&gt;Node8</title>
<path fill="none" stroke="#191970" d="M320.2967,-391.2022C323.8343,-429.7153 336.9213,-512.6165 385,-558.5 389.0504,-562.3655 393.6743,-565.6359 398.6212,-568.4024"/>
<polygon fill="#191970" stroke="#191970" points="323.7493,-390.4604 319.4773,-380.765 316.7708,-391.0084 323.7493,-390.4604"/>
</g>
<!-- Node9 -->
<g id="node9" class="node">
<title>Node9</title>
<g id="a_node9"><a xlink:href="../../d3/d51/Fun4All__G4__EICDetector__RICH_8C.html#a5739502b0a7a1ba782c01069f77e933f" target="_top" xlink:title="Fun4All_G4_EICDetector_RICH">
<polygon fill="none" stroke="#000000" points="385,-528.5 385,-548.5 552,-548.5 552,-528.5 385,-528.5"/>
<text text-anchor="middle" x="468.5" y="-535.5" font-family="FreeSans" font-size="10.00" fill="#000000">Fun4All_G4_EICDetector_RICH</text>
</a>
</g>
</g>
<!-- Node3&#45;&gt;Node9 -->
<g id="edge8" class="edge">
<title>Node3&#45;&gt;Node9</title>
<path fill="none" stroke="#191970" d="M322.0732,-390.7609C328.0889,-423.12 344.5551,-486.2025 385,-519.5 389.3615,-523.0908 394.2681,-526.0342 399.4617,-528.4433"/>
<polygon fill="#191970" stroke="#191970" points="325.4883,-389.966 320.359,-380.6956 318.5876,-391.1412 325.4883,-389.966"/>
</g>
<!-- Node10 -->
<g id="node10" class="node">
<title>Node10</title>
<g id="a_node10"><a xlink:href="../../d9/d0e/Fun4All__G4__EICIR_8C.html#ac3543d1dd4a0abed3987d40939ee3f87" target="_top" xlink:title="Fun4All_G4_EICIR">
<polygon fill="none" stroke="#000000" points="416.5,-489.5 416.5,-509.5 520.5,-509.5 520.5,-489.5 416.5,-489.5"/>
<text text-anchor="middle" x="468.5" y="-496.5" font-family="FreeSans" font-size="10.00" fill="#000000">Fun4All_G4_EICIR</text>
</a>
</g>
</g>
<!-- Node3&#45;&gt;Node10 -->
<g id="edge9" class="edge">
<title>Node3&#45;&gt;Node10</title>
<path fill="none" stroke="#191970" d="M325.2986,-390.0753C334.3796,-415.0549 353.5981,-457.7457 385,-480.5 394.1494,-487.1298 405.2257,-491.4978 416.2782,-494.3625"/>
<polygon fill="#191970" stroke="#191970" points="328.5882,-388.8783 322.0214,-380.5639 321.97,-391.1586 328.5882,-388.8783"/>
</g>
<!-- Node11 -->
<g id="node11" class="node">
<title>Node11</title>
<g id="a_node11"><a xlink:href="../../d7/d9e/Fun4All__G4__fsPHENIX_8C.html#af48911d394d2412e817583700f2bbee2" target="_top" xlink:title="Fun4All_G4_fsPHENIX">
<polygon fill="none" stroke="#000000" points="406.5,-450.5 406.5,-470.5 530.5,-470.5 530.5,-450.5 406.5,-450.5"/>
<text text-anchor="middle" x="468.5" y="-457.5" font-family="FreeSans" font-size="10.00" fill="#000000">Fun4All_G4_fsPHENIX</text>
</a>
</g>
</g>
<!-- Node3&#45;&gt;Node11 -->
<g id="edge10" class="edge">
<title>Node3&#45;&gt;Node11</title>
<path fill="none" stroke="#191970" d="M331.1024,-388.7729C342.9084,-405.1193 362.3623,-428.454 385,-441.5 391.5694,-445.2859 398.8352,-448.3174 406.2593,-450.7449"/>
<polygon fill="#191970" stroke="#191970" points="333.9439,-386.7287 325.3586,-380.5203 328.1985,-390.7275 333.9439,-386.7287"/>
</g>
<!-- Node12 -->
<g id="node12" class="node">
<title>Node12</title>
<g id="a_node12"><a xlink:href="../../da/d2f/Fun4All__G4__fsPHENIX__FastSim_8C.html#a66fb850cae5fcaadda23b74a25ce4c9c" target="_top" xlink:title="Fun4All_G4_fsPHENIX\l_FastSim">
<polygon fill="none" stroke="#000000" points="406.5,-399.5 406.5,-431.5 530.5,-431.5 530.5,-399.5 406.5,-399.5"/>
<text text-anchor="start" x="414.5" y="-418.5" font-family="FreeSans" font-size="10.00" fill="#000000">Fun4All_G4_fsPHENIX</text>
<text text-anchor="middle" x="468.5" y="-406.5" font-family="FreeSans" font-size="10.00" fill="#000000">_FastSim</text>
</a>
</g>
</g>
<!-- Node3&#45;&gt;Node12 -->
<g id="edge11" class="edge">
<title>Node3&#45;&gt;Node12</title>
<path fill="none" stroke="#191970" d="M359.0215,-382.651C367.5918,-385.2466 376.5954,-387.9684 385,-390.5 394.5629,-393.3805 404.745,-396.4374 414.5913,-399.3883"/>
<polygon fill="#191970" stroke="#191970" points="359.807,-379.232 349.2217,-379.6811 357.7767,-385.9311 359.807,-379.232"/>
</g>
<!-- Node13 -->
<g id="node13" class="node">
<title>Node13</title>
<g id="a_node13"><a xlink:href="../../d0/da6/Fun4All__G4__fsPHENIX__pi0_8C.html#a023d91d47b678e5d7f1751834aa517c6" target="_top" xlink:title="Fun4All_G4_fsPHENIX_pi0">
<polygon fill="none" stroke="#000000" points="396,-360.5 396,-380.5 541,-380.5 541,-360.5 396,-360.5"/>
<text text-anchor="middle" x="468.5" y="-367.5" font-family="FreeSans" font-size="10.00" fill="#000000">Fun4All_G4_fsPHENIX_pi0</text>
</a>
</g>
</g>
<!-- Node3&#45;&gt;Node13 -->
<g id="edge12" class="edge">
<title>Node3&#45;&gt;Node13</title>
<path fill="none" stroke="#191970" d="M359.2574,-370.5C370.6119,-370.5 383.3264,-370.5 395.9568,-370.5"/>
<polygon fill="#191970" stroke="#191970" points="359.2536,-367.0001 349.2536,-370.5 359.2535,-374.0001 359.2536,-367.0001"/>
</g>
<!-- Node14 -->
<g id="node14" class="node">
<title>Node14</title>
<g id="a_node14"><a xlink:href="../../d5/d2c/macros_2blob_2master_2macros_2g4simulations_2Fun4All__G4__sPHENIX_8C.html#a6eaaa492d7023ec86c562dc63aa1e5a4" target="_top" xlink:title="Fun4All_G4_sPHENIX">
<polygon fill="none" stroke="#000000" points="408,-321.5 408,-341.5 529,-341.5 529,-321.5 408,-321.5"/>
<text text-anchor="middle" x="468.5" y="-328.5" font-family="FreeSans" font-size="10.00" fill="#000000">Fun4All_G4_sPHENIX</text>
</a>
</g>
</g>
<!-- Node3&#45;&gt;Node14 -->
<g id="edge13" class="edge">
<title>Node3&#45;&gt;Node14</title>
<path fill="none" stroke="#191970" d="M358.9477,-358.6858C367.5229,-356.2379 376.5471,-353.7278 385,-351.5 397.9729,-348.0809 412.1445,-344.5939 425.0686,-341.5094"/>
<polygon fill="#191970" stroke="#191970" points="357.7882,-355.3775 349.1488,-361.5103 359.727,-362.1036 357.7882,-355.3775"/>
</g>
<!-- Node15 -->
<g id="node15" class="node">
<title>Node15</title>
<g id="a_node15"><a xlink:href="../../d3/de2/Fun4All__G4__sPHENIX__AnaGenFit_8C.html#a9bf3f2f72ed69a17e2d0c1121d48013c" target="_top" xlink:title="Fun4All_G4_sPHENIX\l_AnaGenFit">
<polygon fill="none" stroke="#000000" points="408,-270.5 408,-302.5 529,-302.5 529,-270.5 408,-270.5"/>
<text text-anchor="start" x="416" y="-289.5" font-family="FreeSans" font-size="10.00" fill="#000000">Fun4All_G4_sPHENIX</text>
<text text-anchor="middle" x="468.5" y="-277.5" font-family="FreeSans" font-size="10.00" fill="#000000">_AnaGenFit</text>
</a>
</g>
</g>
<!-- Node3&#45;&gt;Node15 -->
<g id="edge14" class="edge">
<title>Node3&#45;&gt;Node15</title>
<path fill="none" stroke="#191970" d="M334.8209,-353.1073C347.3321,-340.2803 365.8321,-323.2574 385,-312.5 392.1498,-308.4874 399.9986,-305.0107 407.9334,-302.0225"/>
<polygon fill="#191970" stroke="#191970" points="332.1922,-350.7929 327.8524,-360.4582 337.2723,-355.6088 332.1922,-350.7929"/>
</g>
<!-- Node16 -->
<g id="node16" class="node">
<title>Node16</title>
<g id="a_node16"><a xlink:href="../../da/dd0/Fun4All__G4__sPHENIX__photonjet_8C.html#a6f18519e216acc05399e562ea57ea77c" target="_top" xlink:title="Fun4All_G4_sPHENIX\l_photonjet">
<polygon fill="none" stroke="#000000" points="408,-219.5 408,-251.5 529,-251.5 529,-219.5 408,-219.5"/>
<text text-anchor="start" x="416" y="-238.5" font-family="FreeSans" font-size="10.00" fill="#000000">Fun4All_G4_sPHENIX</text>
<text text-anchor="middle" x="468.5" y="-226.5" font-family="FreeSans" font-size="10.00" fill="#000000">_photonjet</text>
</a>
</g>
</g>
<!-- Node3&#45;&gt;Node16 -->
<g id="edge15" class="edge">
<title>Node3&#45;&gt;Node16</title>
<path fill="none" stroke="#191970" d="M325.8971,-350.7728C335.435,-326.3231 354.9534,-285.0174 385,-261.5 391.815,-256.1659 399.7348,-251.9182 407.9296,-248.5375"/>
<polygon fill="#191970" stroke="#191970" points="322.5194,-349.8146 322.3167,-360.4075 329.081,-352.2531 322.5194,-349.8146"/>
</g>
<!-- Node17 -->
<g id="node17" class="node">
<title>Node17</title>
<g id="a_node17"><a xlink:href="../../da/d85/Fun4All__G4__sPHENIX__photons_8C.html#a02fbbd59878fe1299f58ed187e7214ba" target="_top" xlink:title="Fun4All_G4_sPHENIX\l_photons">
<polygon fill="none" stroke="#000000" points="408,-168.5 408,-200.5 529,-200.5 529,-168.5 408,-168.5"/>
<text text-anchor="start" x="416" y="-187.5" font-family="FreeSans" font-size="10.00" fill="#000000">Fun4All_G4_sPHENIX</text>
<text text-anchor="middle" x="468.5" y="-175.5" font-family="FreeSans" font-size="10.00" fill="#000000">_photons</text>
</a>
</g>
</g>
<!-- Node3&#45;&gt;Node17 -->
<g id="edge16" class="edge">
<title>Node3&#45;&gt;Node17</title>
<path fill="none" stroke="#191970" d="M321.7733,-350.0912C327.4512,-316.2229 343.5599,-248.3926 385,-210.5 391.4988,-204.5575 399.339,-199.9731 407.5791,-196.4364"/>
<polygon fill="#191970" stroke="#191970" points="318.2821,-349.7677 320.2261,-360.1826 325.2012,-350.8286 318.2821,-349.7677"/>
</g>
<!-- Node18 -->
<g id="node18" class="node">
<title>Node18</title>
<g id="a_node18"><a xlink:href="../../de/d55/Fun4All__G4__sPHENIX__truthphotonjet_8C.html#a48a6f4503eaa1b3793d8ae572aa795b9" target="_top" xlink:title="Fun4All_G4_sPHENIX\l_truthphotonjet">
<polygon fill="none" stroke="#000000" points="408,-117.5 408,-149.5 529,-149.5 529,-117.5 408,-117.5"/>
<text text-anchor="start" x="416" y="-136.5" font-family="FreeSans" font-size="10.00" fill="#000000">Fun4All_G4_sPHENIX</text>
<text text-anchor="middle" x="468.5" y="-124.5" font-family="FreeSans" font-size="10.00" fill="#000000">_truthphotonjet</text>
</a>
</g>
</g>
<!-- Node3&#45;&gt;Node18 -->
<g id="edge17" class="edge">
<title>Node3&#45;&gt;Node18</title>
<path fill="none" stroke="#191970" d="M322.8059,-350.4761C332.1489,-303.2843 357.4693,-186.9952 385,-159.5 391.4458,-153.0626 399.4569,-148.2144 407.9455,-144.5643"/>
<polygon fill="#191970" stroke="#191970" points="319.3469,-349.9282 320.8739,-360.4124 326.2182,-351.2642 319.3469,-349.9282"/>
</g>
<!-- Node19 -->
<g id="node19" class="node">
<title>Node19</title>
<g id="a_node19"><a xlink:href="../../d4/d65/Fun4All__single__particle_8C.html#a8a492b5dbead494bfdddbebde8a49b0e" target="_top" xlink:title="Fun4All_single_particle">
<polygon fill="none" stroke="#000000" points="402.5,-78.5 402.5,-98.5 534.5,-98.5 534.5,-78.5 402.5,-78.5"/>
<text text-anchor="middle" x="468.5" y="-85.5" font-family="FreeSans" font-size="10.00" fill="#000000">Fun4All_single_particle</text>
</a>
</g>
</g>
<!-- Node3&#45;&gt;Node19 -->
<g id="edge18" class="edge">
<title>Node3&#45;&gt;Node19</title>
<path fill="none" stroke="#191970" d="M321.3687,-350.4384C328.2869,-295.2354 350.1994,-142.8964 385,-108.5 389.9829,-103.575 395.9507,-99.7842 402.3737,-96.8773"/>
<polygon fill="#191970" stroke="#191970" points="317.891,-350.0439 320.153,-360.3944 324.8394,-350.8924 317.891,-350.0439"/>
</g>
<!-- Node20 -->
<g id="node20" class="node">
<title>Node20</title>
<g id="a_node20"><a xlink:href="../../d0/d99/Jin__BJet_8C.html#a36169bfee2ed7efda633944d12aebad9" target="_top" xlink:title="Jin_BJet">
<polygon fill="none" stroke="#000000" points="441,-39.5 441,-59.5 496,-59.5 496,-39.5 441,-39.5"/>
<text text-anchor="middle" x="468.5" y="-46.5" font-family="FreeSans" font-size="10.00" fill="#000000">Jin_BJet</text>
</a>
</g>
</g>
<!-- Node3&#45;&gt;Node20 -->
<g id="edge19" class="edge">
<title>Node3&#45;&gt;Node20</title>
<path fill="none" stroke="#191970" d="M320.7078,-349.9311C326.2001,-288.7831 345.4054,-109.8637 385,-69.5 399.4053,-54.8148 422.5441,-50.1503 440.8144,-48.9703"/>
<polygon fill="#191970" stroke="#191970" points="317.1929,-349.9525 319.815,-360.2177 324.1666,-350.5579 317.1929,-349.9525"/>
</g>
<!-- Node21 -->
<g id="node21" class="node">
<title>Node21</title>
<g id="a_node21"><a xlink:href="../../dd/db1/Wrapper_8cxx.html#abf1e42281903daa0752c80dd6c879fac" target="_top" xlink:title="Wrapper">
<polygon fill="none" stroke="#000000" points="438.5,-.5 438.5,-20.5 498.5,-20.5 498.5,-.5 438.5,-.5"/>
<text text-anchor="middle" x="468.5" y="-7.5" font-family="FreeSans" font-size="10.00" fill="#000000">Wrapper</text>
</a>
</g>
</g>
<!-- Node3&#45;&gt;Node21 -->
<g id="edge20" class="edge">
<title>Node3&#45;&gt;Node21</title>
<path fill="none" stroke="#191970" d="M320.1452,-349.9331C324.2574,-283.6121 340.4729,-77.0008 385,-30.5 398.6086,-16.2882 420.3834,-11.4149 438.2849,-10.0283"/>
<polygon fill="#191970" stroke="#191970" points="316.6288,-350.1076 319.5319,-360.2969 323.6166,-350.5212 316.6288,-350.1076"/>
</g>
<!-- Node5 -->
<g id="node5" class="node">
<title>Node5</title>
<g id="a_node5"><a xlink:href="../../d3/d7f/Fun_8C.html#af69a3eef3ff244bb51f5740c6ecb5432" target="_top" xlink:title="Fun">
<polygon fill="none" stroke="#000000" points="588,-696.5 588,-716.5 622,-716.5 622,-696.5 588,-696.5"/>
<text text-anchor="middle" x="605" y="-703.5" font-family="FreeSans" font-size="10.00" fill="#000000">Fun</text>
</a>
</g>
</g>
<!-- Node4&#45;&gt;Node5 -->
<g id="edge4" class="edge">
<title>Node4&#45;&gt;Node5</title>
<path fill="none" stroke="#191970" d="M535.6941,-706.5C555.0852,-706.5 574.59,-706.5 587.9452,-706.5"/>
<polygon fill="#191970" stroke="#191970" points="535.5974,-703.0001 525.5974,-706.5 535.5974,-710.0001 535.5974,-703.0001"/>
</g>
</g>
</svg>
