<?xml version="1.0" encoding="UTF-8" standalone="no"?>
<!DOCTYPE svg PUBLIC "-//W3C//DTD SVG 1.1//EN"
 "http://www.w3.org/Graphics/SVG/1.1/DTD/svg11.dtd">
<!-- Generated by graphviz version 2.40.1 (20161225.0304)
 -->
<!-- Title: PHG4Sector::Sector_Geometry::set_min_polar_angle Pages: 1 -->
<svg width="859pt" height="725pt"
 viewBox="0.00 0.00 859.00 725.00" xmlns="http://www.w3.org/2000/svg" xmlns:xlink="http://www.w3.org/1999/xlink">
<g id="graph0" class="graph" transform="scale(1 1) rotate(0) translate(4 721)">
<title>PHG4Sector::Sector_Geometry::set_min_polar_angle</title>
<!-- Node1 -->
<g id="node1" class="node">
<title>Node1</title>
<polygon fill="#bfbfbf" stroke="#000000" points="0,-290.5 0,-322.5 182,-322.5 182,-290.5 0,-290.5"/>
<text text-anchor="start" x="8" y="-309.5" font-family="FreeSans" font-size="10.00" fill="#000000">PHG4Sector::Sector</text>
<text text-anchor="middle" x="91" y="-297.5" font-family="FreeSans" font-size="10.00" fill="#000000">_Geometry::set_min_polar_angle</text>
</g>
<!-- Node2 -->
<g id="node2" class="node">
<title>Node2</title>
<g id="a_node2"><a xlink:href="../../d4/dbc/macros_2blob_2master_2macros_2g4simulations_2G4__Aerogel_8C.html#a400136ba4928234f7c9990b4065328f1" target="_top" xlink:title="AerogelSetup">
<polygon fill="none" stroke="#000000" points="277,-380.5 277,-400.5 362,-400.5 362,-380.5 277,-380.5"/>
<text text-anchor="middle" x="319.5" y="-387.5" font-family="FreeSans" font-size="10.00" fill="#000000">AerogelSetup</text>
</a>
</g>
</g>
<!-- Node1&#45;&gt;Node2 -->
<g id="edge1" class="edge">
<title>Node1&#45;&gt;Node2</title>
<path fill="none" stroke="#191970" d="M126.5076,-327.6922C151.3632,-341.692 185.7627,-359.4337 218,-370.5 236.856,-376.9728 258.4426,-381.5925 276.847,-384.7493"/>
<polygon fill="#191970" stroke="#191970" points="128.2235,-324.6416 117.8038,-322.723 124.7528,-330.7206 128.2235,-324.6416"/>
</g>
<!-- Node22 -->
<g id="node22" class="node">
<title>Node22</title>
<g id="a_node22"><a xlink:href="../../dc/dbd/classPHG4Sector_1_1PHG4SectorConstructor.html#ad533f2d88dc4ef5ed7dde6639a076c41" target="_top" xlink:title="PHG4Sector::PHG4SectorConstructor\l::Construct_Sectors">
<polygon fill="none" stroke="#000000" points="218,-290.5 218,-322.5 421,-322.5 421,-290.5 218,-290.5"/>
<text text-anchor="start" x="226" y="-309.5" font-family="FreeSans" font-size="10.00" fill="#000000">PHG4Sector::PHG4SectorConstructor</text>
<text text-anchor="middle" x="319.5" y="-297.5" font-family="FreeSans" font-size="10.00" fill="#000000">::Construct_Sectors</text>
</a>
</g>
</g>
<!-- Node1&#45;&gt;Node22 -->
<g id="edge21" class="edge">
<title>Node1&#45;&gt;Node22</title>
<path fill="none" stroke="#191970" d="M192.4988,-306.5C200.9127,-306.5 209.4202,-306.5 217.8354,-306.5"/>
<polygon fill="#191970" stroke="#191970" points="192.2944,-303.0001 182.2944,-306.5 192.2943,-310.0001 192.2944,-303.0001"/>
</g>
<!-- Node24 -->
<g id="node24" class="node">
<title>Node24</title>
<g id="a_node24"><a xlink:href="../../d3/dc0/macros_2blob_2master_2macros_2g4simulations_2G4__DIRC_8C.html#acbdf429e4e41a2057e053691cc0b4128" target="_top" xlink:title="DIRCSetup">
<polygon fill="none" stroke="#000000" points="284.5,-341.5 284.5,-361.5 354.5,-361.5 354.5,-341.5 284.5,-341.5"/>
<text text-anchor="middle" x="319.5" y="-348.5" font-family="FreeSans" font-size="10.00" fill="#000000">DIRCSetup</text>
</a>
</g>
</g>
<!-- Node1&#45;&gt;Node24 -->
<g id="edge23" class="edge">
<title>Node1&#45;&gt;Node24</title>
<path fill="none" stroke="#191970" d="M182.5125,-324.5222C218.2537,-331.5609 257.0887,-339.2089 284.2513,-344.5582"/>
<polygon fill="#191970" stroke="#191970" points="183.0139,-321.0537 172.526,-322.5555 181.6612,-327.9218 183.0139,-321.0537"/>
</g>
<!-- Node25 -->
<g id="node25" class="node">
<title>Node25</title>
<g id="a_node25"><a xlink:href="../../d7/df5/EICAnalysis_2macros_2leptoquarks__fun4all_2G4__FGEM__EIC_8C.html#ac44d1ef8dd3931eed6dd2ae0110ed8d1" target="_top" xlink:title="FGEMSetup">
<polygon fill="none" stroke="#000000" points="282.5,-251.5 282.5,-271.5 356.5,-271.5 356.5,-251.5 282.5,-251.5"/>
<text text-anchor="middle" x="319.5" y="-258.5" font-family="FreeSans" font-size="10.00" fill="#000000">FGEMSetup</text>
</a>
</g>
</g>
<!-- Node1&#45;&gt;Node25 -->
<g id="edge25" class="edge">
<title>Node1&#45;&gt;Node25</title>
<path fill="none" stroke="#191970" d="M178.2904,-288.4274C191.5856,-285.7333 205.1522,-283.0174 218,-280.5 239.2876,-276.3288 263.1273,-271.856 282.3508,-268.2986"/>
<polygon fill="#191970" stroke="#191970" points="177.2952,-285.0581 168.1927,-290.4798 178.6894,-291.9178 177.2952,-285.0581"/>
</g>
<!-- Node26 -->
<g id="node26" class="node">
<title>Node26</title>
<g id="a_node26"><a xlink:href="../../d8/d41/G4__EGEM__EIC_8C.html#ab02e3ec0ae447e560b3a9a6fc25d9243" target="_top" xlink:title="make_GEM_station">
<polygon fill="none" stroke="#000000" points="264,-212.5 264,-232.5 375,-232.5 375,-212.5 264,-212.5"/>
<text text-anchor="middle" x="319.5" y="-219.5" font-family="FreeSans" font-size="10.00" fill="#000000">make_GEM_station</text>
</a>
</g>
</g>
<!-- Node1&#45;&gt;Node26 -->
<g id="edge26" class="edge">
<title>Node1&#45;&gt;Node26</title>
<path fill="none" stroke="#191970" d="M125.4748,-285.4062C150.3643,-271.0495 185.2246,-252.6917 218,-241.5 232.5906,-236.5178 248.8328,-232.7388 263.9703,-229.9169"/>
<polygon fill="#191970" stroke="#191970" points="123.6425,-282.4231 116.7785,-290.4938 127.1773,-288.4651 123.6425,-282.4231"/>
</g>
<!-- Node3 -->
<g id="node3" class="node">
<title>Node3</title>
<g id="a_node3"><a xlink:href="../../d2/dfe/macros_2blob_2master_2macros_2g4simulations_2G4Setup__EICDetector_8C.html#a5d4cb2d19366a2ae6d2aefe8d2e4a870" target="_top" xlink:title="G4Setup">
<polygon fill="none" stroke="#000000" points="487.5,-360.5 487.5,-380.5 547.5,-380.5 547.5,-360.5 487.5,-360.5"/>
<text text-anchor="middle" x="517.5" y="-367.5" font-family="FreeSans" font-size="10.00" fill="#000000">G4Setup</text>
</a>
</g>
</g>
<!-- Node2&#45;&gt;Node3 -->
<g id="edge2" class="edge">
<title>Node2&#45;&gt;Node3</title>
<path fill="none" stroke="#191970" d="M372.5341,-385.143C409.3485,-381.4244 457.0627,-376.6048 487.4886,-373.5315"/>
<polygon fill="#191970" stroke="#191970" points="372.0606,-381.6729 362.4631,-386.1603 372.7642,-388.6375 372.0606,-381.6729"/>
</g>
<!-- Node4 -->
<g id="node4" class="node">
<title>Node4</title>
<g id="a_node4"><a xlink:href="../../d3/d7f/Fun_8C.html#af0d3c8a78765149fef9b2beeecfc6279" target="_top" xlink:title="ConfigureDetectors">
<polygon fill="none" stroke="#000000" points="640.5,-696.5 640.5,-716.5 754.5,-716.5 754.5,-696.5 640.5,-696.5"/>
<text text-anchor="middle" x="697.5" y="-703.5" font-family="FreeSans" font-size="10.00" fill="#000000">ConfigureDetectors</text>
</a>
</g>
</g>
<!-- Node3&#45;&gt;Node4 -->
<g id="edge3" class="edge">
<title>Node3&#45;&gt;Node4</title>
<path fill="none" stroke="#191970" d="M520.9551,-390.5325C532.1761,-453.3232 569.4573,-644.6071 614,-686.5 621.3838,-693.4446 630.7365,-698.111 640.491,-701.2195"/>
<polygon fill="#191970" stroke="#191970" points="524.4001,-389.9141 519.2198,-380.6721 517.5061,-391.1275 524.4001,-389.9141"/>
</g>
<!-- Node6 -->
<g id="node6" class="node">
<title>Node6</title>
<g id="a_node6"><a xlink:href="../../da/d02/Fun4All__G4__EICDetector_8C.html#afbe82cefa1d1fd031d9a8586b7bb68c6" target="_top" xlink:title="Fun4All_G4_EICDetector">
<polygon fill="none" stroke="#000000" points="628,-657.5 628,-677.5 767,-677.5 767,-657.5 628,-657.5"/>
<text text-anchor="middle" x="697.5" y="-664.5" font-family="FreeSans" font-size="10.00" fill="#000000">Fun4All_G4_EICDetector</text>
</a>
</g>
</g>
<!-- Node3&#45;&gt;Node6 -->
<g id="edge5" class="edge">
<title>Node3&#45;&gt;Node6</title>
<path fill="none" stroke="#191970" d="M521.8865,-390.6424C534.813,-448.2123 574.3453,-611.6298 614,-647.5 618.4219,-651.4999 623.5006,-654.7382 628.9228,-657.3551"/>
<polygon fill="#191970" stroke="#191970" points="525.2438,-389.6151 519.6637,-380.6088 518.4095,-391.1292 525.2438,-389.6151"/>
</g>
<!-- Node7 -->
<g id="node7" class="node">
<title>Node7</title>
<g id="a_node7"><a xlink:href="../../dd/d2a/Fun4All__G4__EICDetector__LQ_8C.html#aaa01242fd6e77ca43a9d49a6d46008e4" target="_top" xlink:title="Fun4All_G4_EICDetector_LQ">
<polygon fill="none" stroke="#000000" points="619.5,-618.5 619.5,-638.5 775.5,-638.5 775.5,-618.5 619.5,-618.5"/>
<text text-anchor="middle" x="697.5" y="-625.5" font-family="FreeSans" font-size="10.00" fill="#000000">Fun4All_G4_EICDetector_LQ</text>
</a>
</g>
</g>
<!-- Node3&#45;&gt;Node7 -->
<g id="edge6" class="edge">
<title>Node3&#45;&gt;Node7</title>
<path fill="none" stroke="#191970" d="M519.5461,-390.6902C525.3299,-436.7451 546.0788,-550.0795 614,-608.5 618.7465,-612.5826 624.1831,-615.8639 629.9556,-618.497"/>
<polygon fill="#191970" stroke="#191970" points="523.0214,-390.274 518.4027,-380.7389 516.0672,-391.0731 523.0214,-390.274"/>
</g>
<!-- Node8 -->
<g id="node8" class="node">
<title>Node8</title>
<g id="a_node8"><a xlink:href="../../d4/df5/Fun4All__G4__EICDetector__LQ__reference_8C.html#a2feefc472f17f90b3cbe74897d049f75" target="_top" xlink:title="Fun4All_G4_EICDetector\l_LQ_reference">
<polygon fill="none" stroke="#000000" points="628,-567.5 628,-599.5 767,-599.5 767,-567.5 628,-567.5"/>
<text text-anchor="start" x="636" y="-586.5" font-family="FreeSans" font-size="10.00" fill="#000000">Fun4All_G4_EICDetector</text>
<text text-anchor="middle" x="697.5" y="-574.5" font-family="FreeSans" font-size="10.00" fill="#000000">_LQ_reference</text>
</a>
</g>
</g>
<!-- Node3&#45;&gt;Node8 -->
<g id="edge7" class="edge">
<title>Node3&#45;&gt;Node8</title>
<path fill="none" stroke="#191970" d="M522.3503,-390.6947C532.5806,-428.9474 560,-512.1888 614,-557.5 618.5361,-561.3062 623.6279,-564.5561 629.001,-567.3309"/>
<polygon fill="#191970" stroke="#191970" points="525.6793,-389.5849 519.8141,-380.7616 518.8968,-391.3166 525.6793,-389.5849"/>
</g>
<!-- Node9 -->
<g id="node9" class="node">
<title>Node9</title>
<g id="a_node9"><a xlink:href="../../d3/d51/Fun4All__G4__EICDetector__RICH_8C.html#a5739502b0a7a1ba782c01069f77e933f" target="_top" xlink:title="Fun4All_G4_EICDetector_RICH">
<polygon fill="none" stroke="#000000" points="614,-528.5 614,-548.5 781,-548.5 781,-528.5 614,-528.5"/>
<text text-anchor="middle" x="697.5" y="-535.5" font-family="FreeSans" font-size="10.00" fill="#000000">Fun4All_G4_EICDetector_RICH</text>
</a>
</g>
</g>
<!-- Node3&#45;&gt;Node9 -->
<g id="edge8" class="edge">
<title>Node3&#45;&gt;Node9</title>
<path fill="none" stroke="#191970" d="M524.7449,-390.2841C537.5645,-422.4104 567.3748,-485.6313 614,-518.5 619.7262,-522.5368 626.1644,-525.7654 632.86,-528.3466"/>
<polygon fill="#191970" stroke="#191970" points="527.9042,-388.7481 521.049,-380.6699 521.3703,-391.2599 527.9042,-388.7481"/>
</g>
<!-- Node10 -->
<g id="node10" class="node">
<title>Node10</title>
<g id="a_node10"><a xlink:href="../../d9/d0e/Fun4All__G4__EICIR_8C.html#ac3543d1dd4a0abed3987d40939ee3f87" target="_top" xlink:title="Fun4All_G4_EICIR">
<polygon fill="none" stroke="#000000" points="645.5,-489.5 645.5,-509.5 749.5,-509.5 749.5,-489.5 645.5,-489.5"/>
<text text-anchor="middle" x="697.5" y="-496.5" font-family="FreeSans" font-size="10.00" fill="#000000">Fun4All_G4_EICIR</text>
</a>
</g>
</g>
<!-- Node3&#45;&gt;Node10 -->
<g id="edge9" class="edge">
<title>Node3&#45;&gt;Node10</title>
<path fill="none" stroke="#191970" d="M528.8244,-389.2541C544.7048,-413.8814 575.9543,-456.6622 614,-479.5 623.4577,-485.1772 634.4247,-489.2435 645.2382,-492.1557"/>
<polygon fill="#191970" stroke="#191970" points="531.7889,-387.3933 523.5085,-380.7837 525.8598,-391.1144 531.7889,-387.3933"/>
</g>
<!-- Node11 -->
<g id="node11" class="node">
<title>Node11</title>
<g id="a_node11"><a xlink:href="../../d7/d9e/Fun4All__G4__fsPHENIX_8C.html#af48911d394d2412e817583700f2bbee2" target="_top" xlink:title="Fun4All_G4_fsPHENIX">
<polygon fill="none" stroke="#000000" points="635.5,-450.5 635.5,-470.5 759.5,-470.5 759.5,-450.5 635.5,-450.5"/>
<text text-anchor="middle" x="697.5" y="-457.5" font-family="FreeSans" font-size="10.00" fill="#000000">Fun4All_G4_fsPHENIX</text>
</a>
</g>
</g>
<!-- Node3&#45;&gt;Node11 -->
<g id="edge10" class="edge">
<title>Node3&#45;&gt;Node11</title>
<path fill="none" stroke="#191970" d="M536.098,-387.4622C554.5621,-403.4192 584.326,-426.8432 614,-440.5 622.8018,-444.5509 632.5171,-447.834 642.1145,-450.4782"/>
<polygon fill="#191970" stroke="#191970" points="538.2657,-384.7072 528.4506,-380.7179 533.6356,-389.9572 538.2657,-384.7072"/>
</g>
<!-- Node12 -->
<g id="node12" class="node">
<title>Node12</title>
<g id="a_node12"><a xlink:href="../../da/d2f/Fun4All__G4__fsPHENIX__FastSim_8C.html#a66fb850cae5fcaadda23b74a25ce4c9c" target="_top" xlink:title="Fun4All_G4_fsPHENIX\l_FastSim">
<polygon fill="none" stroke="#000000" points="635.5,-399.5 635.5,-431.5 759.5,-431.5 759.5,-399.5 635.5,-399.5"/>
<text text-anchor="start" x="643.5" y="-418.5" font-family="FreeSans" font-size="10.00" fill="#000000">Fun4All_G4_fsPHENIX</text>
<text text-anchor="middle" x="697.5" y="-406.5" font-family="FreeSans" font-size="10.00" fill="#000000">_FastSim</text>
</a>
</g>
</g>
<!-- Node3&#45;&gt;Node12 -->
<g id="edge11" class="edge">
<title>Node3&#45;&gt;Node12</title>
<path fill="none" stroke="#191970" d="M557.626,-380.5315C580.4162,-386.229 609.4419,-393.4855 635.1386,-399.9097"/>
<polygon fill="#191970" stroke="#191970" points="558.1783,-377.0619 547.628,-378.032 556.4805,-383.8529 558.1783,-377.0619"/>
</g>
<!-- Node13 -->
<g id="node13" class="node">
<title>Node13</title>
<g id="a_node13"><a xlink:href="../../d0/da6/Fun4All__G4__fsPHENIX__pi0_8C.html#a023d91d47b678e5d7f1751834aa517c6" target="_top" xlink:title="Fun4All_G4_fsPHENIX_pi0">
<polygon fill="none" stroke="#000000" points="625,-360.5 625,-380.5 770,-380.5 770,-360.5 625,-360.5"/>
<text text-anchor="middle" x="697.5" y="-367.5" font-family="FreeSans" font-size="10.00" fill="#000000">Fun4All_G4_fsPHENIX_pi0</text>
</a>
</g>
</g>
<!-- Node3&#45;&gt;Node13 -->
<g id="edge12" class="edge">
<title>Node3&#45;&gt;Node13</title>
<path fill="none" stroke="#191970" d="M557.8034,-370.5C577.581,-370.5 602.0228,-370.5 624.9042,-370.5"/>
<polygon fill="#191970" stroke="#191970" points="557.628,-367.0001 547.628,-370.5 557.6279,-374.0001 557.628,-367.0001"/>
</g>
<!-- Node14 -->
<g id="node14" class="node">
<title>Node14</title>
<g id="a_node14"><a xlink:href="../../d5/d2c/macros_2blob_2master_2macros_2g4simulations_2Fun4All__G4__sPHENIX_8C.html#a6eaaa492d7023ec86c562dc63aa1e5a4" target="_top" xlink:title="Fun4All_G4_sPHENIX">
<polygon fill="none" stroke="#000000" points="637,-321.5 637,-341.5 758,-341.5 758,-321.5 637,-321.5"/>
<text text-anchor="middle" x="697.5" y="-328.5" font-family="FreeSans" font-size="10.00" fill="#000000">Fun4All_G4_sPHENIX</text>
</a>
</g>
</g>
<!-- Node3&#45;&gt;Node14 -->
<g id="edge13" class="edge">
<title>Node3&#45;&gt;Node14</title>
<path fill="none" stroke="#191970" d="M557.7373,-361.7819C585.3735,-355.7941 622.14,-347.828 651.0267,-341.5692"/>
<polygon fill="#191970" stroke="#191970" points="556.66,-358.434 547.628,-363.9723 558.1423,-365.2753 556.66,-358.434"/>
</g>
<!-- Node15 -->
<g id="node15" class="node">
<title>Node15</title>
<g id="a_node15"><a xlink:href="../../d3/de2/Fun4All__G4__sPHENIX__AnaGenFit_8C.html#a9bf3f2f72ed69a17e2d0c1121d48013c" target="_top" xlink:title="Fun4All_G4_sPHENIX\l_AnaGenFit">
<polygon fill="none" stroke="#000000" points="637,-270.5 637,-302.5 758,-302.5 758,-270.5 637,-270.5"/>
<text text-anchor="start" x="645" y="-289.5" font-family="FreeSans" font-size="10.00" fill="#000000">Fun4All_G4_sPHENIX</text>
<text text-anchor="middle" x="697.5" y="-277.5" font-family="FreeSans" font-size="10.00" fill="#000000">_AnaGenFit</text>
</a>
</g>
</g>
<!-- Node3&#45;&gt;Node15 -->
<g id="edge14" class="edge">
<title>Node3&#45;&gt;Node15</title>
<path fill="none" stroke="#191970" d="M541.3728,-354.9257C564.9548,-339.7211 599.5309,-317.9586 614,-311.5 621.3236,-308.2309 629.1938,-305.2439 637.0703,-302.5623"/>
<polygon fill="#191970" stroke="#191970" points="539.4303,-352.0137 532.9379,-360.3863 543.2344,-357.8899 539.4303,-352.0137"/>
</g>
<!-- Node16 -->
<g id="node16" class="node">
<title>Node16</title>
<g id="a_node16"><a xlink:href="../../da/dd0/Fun4All__G4__sPHENIX__photonjet_8C.html#a6f18519e216acc05399e562ea57ea77c" target="_top" xlink:title="Fun4All_G4_sPHENIX\l_photonjet">
<polygon fill="none" stroke="#000000" points="637,-219.5 637,-251.5 758,-251.5 758,-219.5 637,-219.5"/>
<text text-anchor="start" x="645" y="-238.5" font-family="FreeSans" font-size="10.00" fill="#000000">Fun4All_G4_sPHENIX</text>
<text text-anchor="middle" x="697.5" y="-226.5" font-family="FreeSans" font-size="10.00" fill="#000000">_photonjet</text>
</a>
</g>
</g>
<!-- Node3&#45;&gt;Node16 -->
<g id="edge15" class="edge">
<title>Node3&#45;&gt;Node16</title>
<path fill="none" stroke="#191970" d="M547.7844,-355.2907C558.2769,-348.9727 569.5211,-340.9035 578,-331.5 601.6923,-305.224 586.8538,-283.19 614,-260.5 620.6181,-254.9683 628.4286,-250.6606 636.5725,-247.306"/>
<polygon fill="#191970" stroke="#191970" points="545.803,-352.3912 538.8457,-360.3816 549.2673,-358.4739 545.803,-352.3912"/>
</g>
<!-- Node17 -->
<g id="node17" class="node">
<title>Node17</title>
<g id="a_node17"><a xlink:href="../../da/d85/Fun4All__G4__sPHENIX__photons_8C.html#a02fbbd59878fe1299f58ed187e7214ba" target="_top" xlink:title="Fun4All_G4_sPHENIX\l_photons">
<polygon fill="none" stroke="#000000" points="637,-168.5 637,-200.5 758,-200.5 758,-168.5 637,-168.5"/>
<text text-anchor="start" x="645" y="-187.5" font-family="FreeSans" font-size="10.00" fill="#000000">Fun4All_G4_sPHENIX</text>
<text text-anchor="middle" x="697.5" y="-175.5" font-family="FreeSans" font-size="10.00" fill="#000000">_photons</text>
</a>
</g>
</g>
<!-- Node3&#45;&gt;Node17 -->
<g id="edge16" class="edge">
<title>Node3&#45;&gt;Node17</title>
<path fill="none" stroke="#191970" d="M549.7321,-355.5166C560.026,-349.3544 570.6441,-341.3269 578,-331.5 611.8782,-286.2416 574.1041,-249.5545 614,-209.5 620.4074,-203.0672 628.398,-198.2764 636.8779,-194.7114"/>
<polygon fill="#191970" stroke="#191970" points="547.8985,-352.5314 540.8596,-360.4501 551.3003,-358.6493 547.8985,-352.5314"/>
</g>
<!-- Node18 -->
<g id="node18" class="node">
<title>Node18</title>
<g id="a_node18"><a xlink:href="../../de/d55/Fun4All__G4__sPHENIX__truthphotonjet_8C.html#a48a6f4503eaa1b3793d8ae572aa795b9" target="_top" xlink:title="Fun4All_G4_sPHENIX\l_truthphotonjet">
<polygon fill="none" stroke="#000000" points="637,-117.5 637,-149.5 758,-149.5 758,-117.5 637,-117.5"/>
<text text-anchor="start" x="645" y="-136.5" font-family="FreeSans" font-size="10.00" fill="#000000">Fun4All_G4_sPHENIX</text>
<text text-anchor="middle" x="697.5" y="-124.5" font-family="FreeSans" font-size="10.00" fill="#000000">_truthphotonjet</text>
</a>
</g>
</g>
<!-- Node3&#45;&gt;Node18 -->
<g id="edge17" class="edge">
<title>Node3&#45;&gt;Node18</title>
<path fill="none" stroke="#191970" d="M550.6851,-355.5586C560.8593,-349.4594 571.1613,-341.46 578,-331.5 622.454,-266.7563 560.8978,-216.3624 614,-158.5 620.2414,-151.6992 628.2493,-146.7199 636.8275,-143.0802"/>
<polygon fill="#191970" stroke="#191970" points="548.9274,-352.531 541.8674,-360.4308 552.3128,-358.6579 548.9274,-352.531"/>
</g>
<!-- Node19 -->
<g id="node19" class="node">
<title>Node19</title>
<g id="a_node19"><a xlink:href="../../d4/d65/Fun4All__single__particle_8C.html#a8a492b5dbead494bfdddbebde8a49b0e" target="_top" xlink:title="Fun4All_single_particle">
<polygon fill="none" stroke="#000000" points="631.5,-78.5 631.5,-98.5 763.5,-98.5 763.5,-78.5 631.5,-78.5"/>
<text text-anchor="middle" x="697.5" y="-85.5" font-family="FreeSans" font-size="10.00" fill="#000000">Fun4All_single_particle</text>
</a>
</g>
</g>
<!-- Node3&#45;&gt;Node19 -->
<g id="edge18" class="edge">
<title>Node3&#45;&gt;Node19</title>
<path fill="none" stroke="#191970" d="M551.1969,-355.5911C561.3091,-349.5224 571.4441,-341.5331 578,-331.5 633.1559,-247.0895 545.0321,-181.0577 614,-107.5 618.881,-102.2941 624.8672,-98.3725 631.3725,-95.4365"/>
<polygon fill="#191970" stroke="#191970" points="549.4772,-352.5424 542.4068,-360.4329 552.8546,-358.6738 549.4772,-352.5424"/>
</g>
<!-- Node20 -->
<g id="node20" class="node">
<title>Node20</title>
<g id="a_node20"><a xlink:href="../../d0/d99/Jin__BJet_8C.html#a36169bfee2ed7efda633944d12aebad9" target="_top" xlink:title="Jin_BJet">
<polygon fill="none" stroke="#000000" points="670,-39.5 670,-59.5 725,-59.5 725,-39.5 670,-39.5"/>
<text text-anchor="middle" x="697.5" y="-46.5" font-family="FreeSans" font-size="10.00" fill="#000000">Jin_BJet</text>
</a>
</g>
</g>
<!-- Node3&#45;&gt;Node20 -->
<g id="edge19" class="edge">
<title>Node3&#45;&gt;Node20</title>
<path fill="none" stroke="#191970" d="M551.8837,-355.3491C561.8203,-349.3268 571.678,-341.426 578,-331.5 641.379,-231.9906 534.3134,-155.5004 614,-68.5 627.9579,-53.261 651.3755,-48.9691 669.8651,-48.2291"/>
<polygon fill="#191970" stroke="#191970" points="549.8905,-352.4519 542.8353,-360.3559 553.2796,-358.5768 549.8905,-352.4519"/>
</g>
<!-- Node21 -->
<g id="node21" class="node">
<title>Node21</title>
<g id="a_node21"><a xlink:href="../../dd/db1/Wrapper_8cxx.html#abf1e42281903daa0752c80dd6c879fac" target="_top" xlink:title="Wrapper">
<polygon fill="none" stroke="#000000" points="667.5,-.5 667.5,-20.5 727.5,-20.5 727.5,-.5 667.5,-.5"/>
<text text-anchor="middle" x="697.5" y="-7.5" font-family="FreeSans" font-size="10.00" fill="#000000">Wrapper</text>
</a>
</g>
</g>
<!-- Node3&#45;&gt;Node21 -->
<g id="edge20" class="edge">
<title>Node3&#45;&gt;Node21</title>
<path fill="none" stroke="#191970" d="M551.9875,-355.4146C561.9297,-349.3958 571.7645,-341.4806 578,-331.5 649.6214,-216.8615 523.5705,-129.9695 614,-29.5 627.2281,-14.8032 649.2491,-10.2489 667.3562,-9.2654"/>
<polygon fill="#191970" stroke="#191970" points="549.9917,-352.5183 542.9268,-360.4137 553.3734,-358.6473 549.9917,-352.5183"/>
</g>
<!-- Node5 -->
<g id="node5" class="node">
<title>Node5</title>
<g id="a_node5"><a xlink:href="../../d3/d7f/Fun_8C.html#af69a3eef3ff244bb51f5740c6ecb5432" target="_top" xlink:title="Fun">
<polygon fill="none" stroke="#000000" points="817,-696.5 817,-716.5 851,-716.5 851,-696.5 817,-696.5"/>
<text text-anchor="middle" x="834" y="-703.5" font-family="FreeSans" font-size="10.00" fill="#000000">Fun</text>
</a>
</g>
</g>
<!-- Node4&#45;&gt;Node5 -->
<g id="edge4" class="edge">
<title>Node4&#45;&gt;Node5</title>
<path fill="none" stroke="#191970" d="M764.6941,-706.5C784.0852,-706.5 803.59,-706.5 816.9452,-706.5"/>
<polygon fill="#191970" stroke="#191970" points="764.5974,-703.0001 754.5974,-706.5 764.5974,-710.0001 764.5974,-703.0001"/>
</g>
<!-- Node23 -->
<g id="node23" class="node">
<title>Node23</title>
<g id="a_node23"><a xlink:href="../../d5/d5e/classPHG4SectorDetector.html#a45d81b008ca7291a850ae4b6002b0648" target="_top" xlink:title="construct">
<polygon fill="none" stroke="#000000" points="457,-290.5 457,-322.5 578,-322.5 578,-290.5 457,-290.5"/>
<text text-anchor="start" x="465" y="-309.5" font-family="FreeSans" font-size="10.00" fill="#000000">PHG4SectorDetector</text>
<text text-anchor="middle" x="517.5" y="-297.5" font-family="FreeSans" font-size="10.00" fill="#000000">::ConstructMe</text>
</a>
</g>
</g>
<!-- Node22&#45;&gt;Node23 -->
<g id="edge22" class="edge">
<title>Node22&#45;&gt;Node23</title>
<path fill="none" stroke="#191970" d="M431.1305,-306.5C439.968,-306.5 448.6689,-306.5 456.9455,-306.5"/>
<polygon fill="#191970" stroke="#191970" points="431.1101,-303.0001 421.1101,-306.5 431.11,-310.0001 431.1101,-303.0001"/>
</g>
<!-- Node24&#45;&gt;Node3 -->
<g id="edge24" class="edge">
<title>Node24&#45;&gt;Node3</title>
<path fill="none" stroke="#191970" d="M365.0647,-355.8724C402.584,-359.4727 454.7235,-364.476 487.2682,-367.599"/>
<polygon fill="#191970" stroke="#191970" points="365.1871,-352.3681 354.8984,-354.8968 364.5184,-359.3361 365.1871,-352.3681"/>
</g>
</g>
</svg>
