<?xml version="1.0" encoding="UTF-8" standalone="no"?>
<!DOCTYPE svg PUBLIC "-//W3C//DTD SVG 1.1//EN"
 "http://www.w3.org/Graphics/SVG/1.1/DTD/svg11.dtd">
<!-- Generated by graphviz version 2.40.1 (20161225.0304)
 -->
<!-- Title: PHG4Sector::Sector_Geometry::AddLayer Pages: 1 -->
<svg width="825pt" height="725pt"
 viewBox="0.00 0.00 825.00 725.00" xmlns="http://www.w3.org/2000/svg" xmlns:xlink="http://www.w3.org/1999/xlink">
<g id="graph0" class="graph" transform="scale(1 1) rotate(0) translate(4 721)">
<title>PHG4Sector::Sector_Geometry::AddLayer</title>
<!-- Node1 -->
<g id="node1" class="node">
<title>Node1</title>
<polygon fill="#bfbfbf" stroke="#000000" points="0,-360.5 0,-392.5 127,-392.5 127,-360.5 0,-360.5"/>
<text text-anchor="start" x="8" y="-379.5" font-family="FreeSans" font-size="10.00" fill="#000000">PHG4Sector::Sector</text>
<text text-anchor="middle" x="63.5" y="-367.5" font-family="FreeSans" font-size="10.00" fill="#000000">_Geometry::AddLayer</text>
</g>
<!-- Node2 -->
<g id="node2" class="node">
<title>Node2</title>
<g id="a_node2"><a xlink:href="../../d9/de6/classPHG4Sector_1_1Sector__Geometry.html#ac5533363def013da20bbfb6cb5b4ee1d" target="_top" xlink:title="PHG4Sector::Sector\l_Geometry::AddLayers\l_AeroGel_ePHENIX">
<polygon fill="none" stroke="#000000" points="166,-512.5 166,-556.5 298,-556.5 298,-512.5 166,-512.5"/>
<text text-anchor="start" x="174" y="-543.5" font-family="FreeSans" font-size="10.00" fill="#000000">PHG4Sector::Sector</text>
<text text-anchor="start" x="174" y="-531.5" font-family="FreeSans" font-size="10.00" fill="#000000">_Geometry::AddLayers</text>
<text text-anchor="middle" x="232" y="-519.5" font-family="FreeSans" font-size="10.00" fill="#000000">_AeroGel_ePHENIX</text>
</a>
</g>
</g>
<!-- Node1&#45;&gt;Node2 -->
<g id="edge1" class="edge">
<title>Node1&#45;&gt;Node2</title>
<path fill="none" stroke="#191970" d="M77.8278,-401.366C95.0077,-429.3459 126.1449,-474.6456 163,-503.5 167.1362,-506.7383 171.6644,-509.7214 176.3611,-512.4501"/>
<polygon fill="#191970" stroke="#191970" points="80.7025,-399.3549 72.5486,-392.59 74.7042,-402.9632 80.7025,-399.3549"/>
</g>
<!-- Node23 -->
<g id="node23" class="node">
<title>Node23</title>
<g id="a_node23"><a xlink:href="../../d9/de6/classPHG4Sector_1_1Sector__Geometry.html#a28dd95a8f2a2b2b1d26e65a1b584702c" target="_top" xlink:title="PHG4Sector::Sector\l_Geometry::AddLayers\l_DriftVol_COMPASS">
<polygon fill="none" stroke="#000000" points="166,-449.5 166,-493.5 298,-493.5 298,-449.5 166,-449.5"/>
<text text-anchor="start" x="174" y="-480.5" font-family="FreeSans" font-size="10.00" fill="#000000">PHG4Sector::Sector</text>
<text text-anchor="start" x="174" y="-468.5" font-family="FreeSans" font-size="10.00" fill="#000000">_Geometry::AddLayers</text>
<text text-anchor="middle" x="232" y="-456.5" font-family="FreeSans" font-size="10.00" fill="#000000">_DriftVol_COMPASS</text>
</a>
</g>
</g>
<!-- Node1&#45;&gt;Node23 -->
<g id="edge22" class="edge">
<title>Node1&#45;&gt;Node23</title>
<path fill="none" stroke="#191970" d="M95.4773,-398.2439C114.6791,-410.9198 139.8076,-426.8496 163,-439.5 169.144,-442.8512 175.7014,-446.1865 182.2378,-449.3686"/>
<polygon fill="#191970" stroke="#191970" points="97.3649,-395.2959 87.1001,-392.6722 93.4883,-401.1245 97.3649,-395.2959"/>
</g>
<!-- Node25 -->
<g id="node25" class="node">
<title>Node25</title>
<g id="a_node25"><a xlink:href="../../d9/de6/classPHG4Sector_1_1Sector__Geometry.html#ab051a45fb6288d8421b723c1a37f0ec5" target="_top" xlink:title="PHG4Sector::Sector\l_Geometry::AddLayers\l_HBD_GEM">
<polygon fill="none" stroke="#000000" points="166,-386.5 166,-430.5 298,-430.5 298,-386.5 166,-386.5"/>
<text text-anchor="start" x="174" y="-417.5" font-family="FreeSans" font-size="10.00" fill="#000000">PHG4Sector::Sector</text>
<text text-anchor="start" x="174" y="-405.5" font-family="FreeSans" font-size="10.00" fill="#000000">_Geometry::AddLayers</text>
<text text-anchor="middle" x="232" y="-393.5" font-family="FreeSans" font-size="10.00" fill="#000000">_HBD_GEM</text>
</a>
</g>
</g>
<!-- Node1&#45;&gt;Node25 -->
<g id="edge24" class="edge">
<title>Node1&#45;&gt;Node25</title>
<path fill="none" stroke="#191970" d="M137.1161,-390.4805C146.7145,-392.3033 156.5,-394.1617 165.9635,-395.9589"/>
<polygon fill="#191970" stroke="#191970" points="137.6801,-387.0251 127.2026,-388.5978 136.374,-393.9022 137.6801,-387.0251"/>
</g>
<!-- Node27 -->
<g id="node27" class="node">
<title>Node27</title>
<g id="a_node27"><a xlink:href="../../d9/de6/classPHG4Sector_1_1Sector__Geometry.html#a73532bacff4db207c02e2929c91b8b62" target="_top" xlink:title="PHG4Sector::Sector\l_Geometry::AddLayers\l_HBD_Readout">
<polygon fill="none" stroke="#000000" points="166,-323.5 166,-367.5 298,-367.5 298,-323.5 166,-323.5"/>
<text text-anchor="start" x="174" y="-354.5" font-family="FreeSans" font-size="10.00" fill="#000000">PHG4Sector::Sector</text>
<text text-anchor="start" x="174" y="-342.5" font-family="FreeSans" font-size="10.00" fill="#000000">_Geometry::AddLayers</text>
<text text-anchor="middle" x="232" y="-330.5" font-family="FreeSans" font-size="10.00" fill="#000000">_HBD_Readout</text>
</a>
</g>
</g>
<!-- Node1&#45;&gt;Node27 -->
<g id="edge27" class="edge">
<title>Node1&#45;&gt;Node27</title>
<path fill="none" stroke="#191970" d="M137.1161,-362.9564C146.7145,-361.1905 156.5,-359.3902 165.9635,-357.6492"/>
<polygon fill="#191970" stroke="#191970" points="136.4043,-359.5285 127.2026,-364.7802 137.6709,-366.413 136.4043,-359.5285"/>
</g>
<!-- Node28 -->
<g id="node28" class="node">
<title>Node28</title>
<g id="a_node28"><a xlink:href="../../d7/df5/EICAnalysis_2macros_2leptoquarks__fun4all_2G4__FGEM__EIC_8C.html#adedab66f745dff8069bd1f750680c423" target="_top" xlink:title="Add drift layers to mini TPC.">
<polygon fill="none" stroke="#000000" points="163,-284.5 163,-304.5 301,-304.5 301,-284.5 163,-284.5"/>
<text text-anchor="middle" x="232" y="-291.5" font-family="FreeSans" font-size="10.00" fill="#000000">AddLayers_MiniTPCDrift</text>
</a>
</g>
</g>
<!-- Node1&#45;&gt;Node28 -->
<g id="edge28" class="edge">
<title>Node1&#45;&gt;Node28</title>
<path fill="none" stroke="#191970" d="M93.2529,-354.3682C112.3724,-340.998 138.1925,-324.4766 163,-313.5 170.8401,-310.031 179.4665,-307.0517 187.8859,-304.5501"/>
<polygon fill="#191970" stroke="#191970" points="91.0899,-351.6115 84.9675,-360.2583 95.1458,-357.3168 91.0899,-351.6115"/>
</g>
<!-- Node29 -->
<g id="node29" class="node">
<title>Node29</title>
<g id="a_node29"><a xlink:href="../../d3/dc0/macros_2blob_2master_2macros_2g4simulations_2G4__DIRC_8C.html#acbdf429e4e41a2057e053691cc0b4128" target="_top" xlink:title="DIRCSetup">
<polygon fill="none" stroke="#000000" points="357.5,-302.5 357.5,-322.5 427.5,-322.5 427.5,-302.5 357.5,-302.5"/>
<text text-anchor="middle" x="392.5" y="-309.5" font-family="FreeSans" font-size="10.00" fill="#000000">DIRCSetup</text>
</a>
</g>
</g>
<!-- Node1&#45;&gt;Node29 -->
<g id="edge29" class="edge">
<title>Node1&#45;&gt;Node29</title>
<path fill="none" stroke="#191970" d="M78.927,-351.6816C96.0001,-326.8197 126.0489,-290.0749 163,-274.5 219.5179,-250.6777 240.8507,-262.5066 301,-274.5 327.6527,-279.8144 356.2602,-293.0438 374.257,-302.3938"/>
<polygon fill="#191970" stroke="#191970" points="75.8573,-349.9771 73.2352,-360.2424 81.6865,-353.8528 75.8573,-349.9771"/>
</g>
<!-- Node3 -->
<g id="node3" class="node">
<title>Node3</title>
<g id="a_node3"><a xlink:href="../../d4/dbc/macros_2blob_2master_2macros_2g4simulations_2G4__Aerogel_8C.html#a400136ba4928234f7c9990b4065328f1" target="_top" xlink:title="AerogelSetup">
<polygon fill="none" stroke="#000000" points="350,-506.5 350,-526.5 435,-526.5 435,-506.5 350,-506.5"/>
<text text-anchor="middle" x="392.5" y="-513.5" font-family="FreeSans" font-size="10.00" fill="#000000">AerogelSetup</text>
</a>
</g>
</g>
<!-- Node2&#45;&gt;Node3 -->
<g id="edge2" class="edge">
<title>Node2&#45;&gt;Node3</title>
<path fill="none" stroke="#191970" d="M308.5075,-525.9197C322.7252,-524.3252 337.0999,-522.7131 349.8413,-521.2842"/>
<polygon fill="#191970" stroke="#191970" points="307.7557,-522.482 298.2081,-527.0748 308.5359,-529.4384 307.7557,-522.482"/>
</g>
<!-- Node4 -->
<g id="node4" class="node">
<title>Node4</title>
<g id="a_node4"><a xlink:href="../../d2/dfe/macros_2blob_2master_2macros_2g4simulations_2G4Setup__EICDetector_8C.html#a5d4cb2d19366a2ae6d2aefe8d2e4a870" target="_top" xlink:title="G4Setup">
<polygon fill="none" stroke="#000000" points="484,-360.5 484,-380.5 544,-380.5 544,-360.5 484,-360.5"/>
<text text-anchor="middle" x="514" y="-367.5" font-family="FreeSans" font-size="10.00" fill="#000000">G4Setup</text>
</a>
</g>
</g>
<!-- Node3&#45;&gt;Node4 -->
<g id="edge3" class="edge">
<title>Node3&#45;&gt;Node4</title>
<path fill="none" stroke="#191970" d="M420.4957,-501.214C429.9196,-495.2318 440.0499,-487.8041 448,-479.5 477.8322,-448.3396 500.5111,-401.4066 509.6252,-380.8094"/>
<polygon fill="#191970" stroke="#191970" points="418.5182,-498.3195 411.7709,-506.488 422.1395,-504.31 418.5182,-498.3195"/>
</g>
<!-- Node5 -->
<g id="node5" class="node">
<title>Node5</title>
<g id="a_node5"><a xlink:href="../../d3/d7f/Fun_8C.html#af0d3c8a78765149fef9b2beeecfc6279" target="_top" xlink:title="ConfigureDetectors">
<polygon fill="none" stroke="#000000" points="606.5,-696.5 606.5,-716.5 720.5,-716.5 720.5,-696.5 606.5,-696.5"/>
<text text-anchor="middle" x="663.5" y="-703.5" font-family="FreeSans" font-size="10.00" fill="#000000">ConfigureDetectors</text>
</a>
</g>
</g>
<!-- Node4&#45;&gt;Node5 -->
<g id="edge4" class="edge">
<title>Node4&#45;&gt;Node5</title>
<path fill="none" stroke="#191970" d="M515.4273,-390.9258C520.2608,-454.1307 538.1067,-644.8258 580,-687.5 587.1864,-694.8204 596.5649,-699.5749 606.4318,-702.6149"/>
<polygon fill="#191970" stroke="#191970" points="518.8973,-390.3885 514.6733,-380.6721 511.9162,-390.9019 518.8973,-390.3885"/>
</g>
<!-- Node7 -->
<g id="node7" class="node">
<title>Node7</title>
<g id="a_node7"><a xlink:href="../../da/d02/Fun4All__G4__EICDetector_8C.html#afbe82cefa1d1fd031d9a8586b7bb68c6" target="_top" xlink:title="Fun4All_G4_EICDetector">
<polygon fill="none" stroke="#000000" points="594,-657.5 594,-677.5 733,-677.5 733,-657.5 594,-657.5"/>
<text text-anchor="middle" x="663.5" y="-664.5" font-family="FreeSans" font-size="10.00" fill="#000000">Fun4All_G4_EICDetector</text>
</a>
</g>
</g>
<!-- Node4&#45;&gt;Node7 -->
<g id="edge6" class="edge">
<title>Node4&#45;&gt;Node7</title>
<path fill="none" stroke="#191970" d="M516.043,-390.6514C522.2901,-448.2566 542.9979,-611.8426 580,-648.5 584.0134,-652.4761 588.6752,-655.6904 593.7044,-658.2815"/>
<polygon fill="#191970" stroke="#191970" points="519.5139,-390.1909 514.9858,-380.6124 512.5524,-390.924 519.5139,-390.1909"/>
</g>
<!-- Node8 -->
<g id="node8" class="node">
<title>Node8</title>
<g id="a_node8"><a xlink:href="../../dd/d2a/Fun4All__G4__EICDetector__LQ_8C.html#aaa01242fd6e77ca43a9d49a6d46008e4" target="_top" xlink:title="Fun4All_G4_EICDetector_LQ">
<polygon fill="none" stroke="#000000" points="585.5,-618.5 585.5,-638.5 741.5,-638.5 741.5,-618.5 585.5,-618.5"/>
<text text-anchor="middle" x="663.5" y="-625.5" font-family="FreeSans" font-size="10.00" fill="#000000">Fun4All_G4_EICDetector_LQ</text>
</a>
</g>
</g>
<!-- Node4&#45;&gt;Node8 -->
<g id="edge7" class="edge">
<title>Node4&#45;&gt;Node8</title>
<path fill="none" stroke="#191970" d="M516.8599,-390.5144C524.6596,-442.3048 547.8848,-578.8199 580,-609.5 583.655,-612.9917 587.812,-615.891 592.2733,-618.2938"/>
<polygon fill="#191970" stroke="#191970" points="520.3134,-389.9416 515.3947,-380.5578 513.388,-390.9608 520.3134,-389.9416"/>
</g>
<!-- Node9 -->
<g id="node9" class="node">
<title>Node9</title>
<g id="a_node9"><a xlink:href="../../d4/df5/Fun4All__G4__EICDetector__LQ__reference_8C.html#a2feefc472f17f90b3cbe74897d049f75" target="_top" xlink:title="Fun4All_G4_EICDetector\l_LQ_reference">
<polygon fill="none" stroke="#000000" points="594,-567.5 594,-599.5 733,-599.5 733,-567.5 594,-567.5"/>
<text text-anchor="start" x="602" y="-586.5" font-family="FreeSans" font-size="10.00" fill="#000000">Fun4All_G4_EICDetector</text>
<text text-anchor="middle" x="663.5" y="-574.5" font-family="FreeSans" font-size="10.00" fill="#000000">_LQ_reference</text>
</a>
</g>
</g>
<!-- Node4&#45;&gt;Node9 -->
<g id="edge8" class="edge">
<title>Node4&#45;&gt;Node9</title>
<path fill="none" stroke="#191970" d="M515.2967,-391.2022C518.8343,-429.7153 531.9213,-512.6165 580,-558.5 584.0504,-562.3655 588.6743,-565.6359 593.6212,-568.4024"/>
<polygon fill="#191970" stroke="#191970" points="518.7493,-390.4604 514.4773,-380.765 511.7708,-391.0084 518.7493,-390.4604"/>
</g>
<!-- Node10 -->
<g id="node10" class="node">
<title>Node10</title>
<g id="a_node10"><a xlink:href="../../d3/d51/Fun4All__G4__EICDetector__RICH_8C.html#a5739502b0a7a1ba782c01069f77e933f" target="_top" xlink:title="Fun4All_G4_EICDetector_RICH">
<polygon fill="none" stroke="#000000" points="580,-528.5 580,-548.5 747,-548.5 747,-528.5 580,-528.5"/>
<text text-anchor="middle" x="663.5" y="-535.5" font-family="FreeSans" font-size="10.00" fill="#000000">Fun4All_G4_EICDetector_RICH</text>
</a>
</g>
</g>
<!-- Node4&#45;&gt;Node10 -->
<g id="edge9" class="edge">
<title>Node4&#45;&gt;Node10</title>
<path fill="none" stroke="#191970" d="M517.0732,-390.7609C523.0889,-423.12 539.5551,-486.2025 580,-519.5 584.3615,-523.0908 589.2681,-526.0342 594.4617,-528.4433"/>
<polygon fill="#191970" stroke="#191970" points="520.4883,-389.966 515.359,-380.6956 513.5876,-391.1412 520.4883,-389.966"/>
</g>
<!-- Node11 -->
<g id="node11" class="node">
<title>Node11</title>
<g id="a_node11"><a xlink:href="../../d9/d0e/Fun4All__G4__EICIR_8C.html#ac3543d1dd4a0abed3987d40939ee3f87" target="_top" xlink:title="Fun4All_G4_EICIR">
<polygon fill="none" stroke="#000000" points="611.5,-489.5 611.5,-509.5 715.5,-509.5 715.5,-489.5 611.5,-489.5"/>
<text text-anchor="middle" x="663.5" y="-496.5" font-family="FreeSans" font-size="10.00" fill="#000000">Fun4All_G4_EICIR</text>
</a>
</g>
</g>
<!-- Node4&#45;&gt;Node11 -->
<g id="edge10" class="edge">
<title>Node4&#45;&gt;Node11</title>
<path fill="none" stroke="#191970" d="M520.2986,-390.0753C529.3796,-415.0549 548.5981,-457.7457 580,-480.5 589.1494,-487.1298 600.2257,-491.4978 611.2782,-494.3625"/>
<polygon fill="#191970" stroke="#191970" points="523.5882,-388.8783 517.0214,-380.5639 516.97,-391.1586 523.5882,-388.8783"/>
</g>
<!-- Node12 -->
<g id="node12" class="node">
<title>Node12</title>
<g id="a_node12"><a xlink:href="../../d7/d9e/Fun4All__G4__fsPHENIX_8C.html#af48911d394d2412e817583700f2bbee2" target="_top" xlink:title="Fun4All_G4_fsPHENIX">
<polygon fill="none" stroke="#000000" points="601.5,-450.5 601.5,-470.5 725.5,-470.5 725.5,-450.5 601.5,-450.5"/>
<text text-anchor="middle" x="663.5" y="-457.5" font-family="FreeSans" font-size="10.00" fill="#000000">Fun4All_G4_fsPHENIX</text>
</a>
</g>
</g>
<!-- Node4&#45;&gt;Node12 -->
<g id="edge11" class="edge">
<title>Node4&#45;&gt;Node12</title>
<path fill="none" stroke="#191970" d="M526.7208,-389.164C538.6361,-405.1974 557.8891,-427.6945 580,-440.5 587.0947,-444.6089 594.995,-447.8754 603.0274,-450.4718"/>
<polygon fill="#191970" stroke="#191970" points="529.253,-386.6882 520.5871,-380.5929 523.5605,-390.7619 529.253,-386.6882"/>
</g>
<!-- Node13 -->
<g id="node13" class="node">
<title>Node13</title>
<g id="a_node13"><a xlink:href="../../da/d2f/Fun4All__G4__fsPHENIX__FastSim_8C.html#a66fb850cae5fcaadda23b74a25ce4c9c" target="_top" xlink:title="Fun4All_G4_fsPHENIX\l_FastSim">
<polygon fill="none" stroke="#000000" points="601.5,-399.5 601.5,-431.5 725.5,-431.5 725.5,-399.5 601.5,-399.5"/>
<text text-anchor="start" x="609.5" y="-418.5" font-family="FreeSans" font-size="10.00" fill="#000000">Fun4All_G4_fsPHENIX</text>
<text text-anchor="middle" x="663.5" y="-406.5" font-family="FreeSans" font-size="10.00" fill="#000000">_FastSim</text>
</a>
</g>
</g>
<!-- Node4&#45;&gt;Node13 -->
<g id="edge12" class="edge">
<title>Node4&#45;&gt;Node13</title>
<path fill="none" stroke="#191970" d="M554.0215,-382.5466C571.302,-387.7481 591.7664,-393.9079 610.2985,-399.4862"/>
<polygon fill="#191970" stroke="#191970" points="554.838,-379.1373 544.2536,-379.6064 552.8203,-385.8402 554.838,-379.1373"/>
</g>
<!-- Node14 -->
<g id="node14" class="node">
<title>Node14</title>
<g id="a_node14"><a xlink:href="../../d0/da6/Fun4All__G4__fsPHENIX__pi0_8C.html#a023d91d47b678e5d7f1751834aa517c6" target="_top" xlink:title="Fun4All_G4_fsPHENIX_pi0">
<polygon fill="none" stroke="#000000" points="591,-360.5 591,-380.5 736,-380.5 736,-360.5 591,-360.5"/>
<text text-anchor="middle" x="663.5" y="-367.5" font-family="FreeSans" font-size="10.00" fill="#000000">Fun4All_G4_fsPHENIX_pi0</text>
</a>
</g>
</g>
<!-- Node4&#45;&gt;Node14 -->
<g id="edge13" class="edge">
<title>Node4&#45;&gt;Node14</title>
<path fill="none" stroke="#191970" d="M554.2574,-370.5C565.6119,-370.5 578.3264,-370.5 590.9568,-370.5"/>
<polygon fill="#191970" stroke="#191970" points="554.2536,-367.0001 544.2536,-370.5 554.2535,-374.0001 554.2536,-367.0001"/>
</g>
<!-- Node15 -->
<g id="node15" class="node">
<title>Node15</title>
<g id="a_node15"><a xlink:href="../../d5/d2c/macros_2blob_2master_2macros_2g4simulations_2Fun4All__G4__sPHENIX_8C.html#a6eaaa492d7023ec86c562dc63aa1e5a4" target="_top" xlink:title="Fun4All_G4_sPHENIX">
<polygon fill="none" stroke="#000000" points="603,-321.5 603,-341.5 724,-341.5 724,-321.5 603,-321.5"/>
<text text-anchor="middle" x="663.5" y="-328.5" font-family="FreeSans" font-size="10.00" fill="#000000">Fun4All_G4_sPHENIX</text>
</a>
</g>
</g>
<!-- Node4&#45;&gt;Node15 -->
<g id="edge14" class="edge">
<title>Node4&#45;&gt;Node15</title>
<path fill="none" stroke="#191970" d="M553.8989,-357.9156C562.4772,-355.3486 571.5151,-352.7479 580,-350.5 591.7844,-347.3779 604.5866,-344.3065 616.5454,-341.5736"/>
<polygon fill="#191970" stroke="#191970" points="552.6524,-354.6362 544.1005,-360.8904 554.686,-361.3343 552.6524,-354.6362"/>
</g>
<!-- Node16 -->
<g id="node16" class="node">
<title>Node16</title>
<g id="a_node16"><a xlink:href="../../d3/de2/Fun4All__G4__sPHENIX__AnaGenFit_8C.html#a9bf3f2f72ed69a17e2d0c1121d48013c" target="_top" xlink:title="Fun4All_G4_sPHENIX\l_AnaGenFit">
<polygon fill="none" stroke="#000000" points="603,-270.5 603,-302.5 724,-302.5 724,-270.5 603,-270.5"/>
<text text-anchor="start" x="611" y="-289.5" font-family="FreeSans" font-size="10.00" fill="#000000">Fun4All_G4_sPHENIX</text>
<text text-anchor="middle" x="663.5" y="-277.5" font-family="FreeSans" font-size="10.00" fill="#000000">_AnaGenFit</text>
</a>
</g>
</g>
<!-- Node4&#45;&gt;Node16 -->
<g id="edge15" class="edge">
<title>Node4&#45;&gt;Node16</title>
<path fill="none" stroke="#191970" d="M529.7303,-352.734C542.1939,-339.6473 560.6741,-322.3147 580,-311.5 587.1309,-307.5096 594.9687,-304.0903 602.898,-301.1786"/>
<polygon fill="#191970" stroke="#191970" points="527.0119,-350.5185 522.7936,-360.2374 532.152,-355.2704 527.0119,-350.5185"/>
</g>
<!-- Node17 -->
<g id="node17" class="node">
<title>Node17</title>
<g id="a_node17"><a xlink:href="../../da/dd0/Fun4All__G4__sPHENIX__photonjet_8C.html#a6f18519e216acc05399e562ea57ea77c" target="_top" xlink:title="Fun4All_G4_sPHENIX\l_photonjet">
<polygon fill="none" stroke="#000000" points="603,-219.5 603,-251.5 724,-251.5 724,-219.5 603,-219.5"/>
<text text-anchor="start" x="611" y="-238.5" font-family="FreeSans" font-size="10.00" fill="#000000">Fun4All_G4_sPHENIX</text>
<text text-anchor="middle" x="663.5" y="-226.5" font-family="FreeSans" font-size="10.00" fill="#000000">_photonjet</text>
</a>
</g>
</g>
<!-- Node4&#45;&gt;Node17 -->
<g id="edge16" class="edge">
<title>Node4&#45;&gt;Node17</title>
<path fill="none" stroke="#191970" d="M520.6801,-350.8716C530.076,-326.1865 549.5337,-284.1764 580,-260.5 586.8106,-255.2072 594.728,-251.032 602.9216,-247.7391"/>
<polygon fill="#191970" stroke="#191970" points="517.3849,-349.6921 517.2666,-360.2862 523.9657,-352.0781 517.3849,-349.6921"/>
</g>
<!-- Node18 -->
<g id="node18" class="node">
<title>Node18</title>
<g id="a_node18"><a xlink:href="../../da/d85/Fun4All__G4__sPHENIX__photons_8C.html#a02fbbd59878fe1299f58ed187e7214ba" target="_top" xlink:title="Fun4All_G4_sPHENIX\l_photons">
<polygon fill="none" stroke="#000000" points="603,-168.5 603,-200.5 724,-200.5 724,-168.5 603,-168.5"/>
<text text-anchor="start" x="611" y="-187.5" font-family="FreeSans" font-size="10.00" fill="#000000">Fun4All_G4_sPHENIX</text>
<text text-anchor="middle" x="663.5" y="-175.5" font-family="FreeSans" font-size="10.00" fill="#000000">_photons</text>
</a>
</g>
</g>
<!-- Node4&#45;&gt;Node18 -->
<g id="edge17" class="edge">
<title>Node4&#45;&gt;Node18</title>
<path fill="none" stroke="#191970" d="M516.6091,-350.4063C522.0891,-316.4243 537.9709,-247.5944 580,-209.5 586.503,-203.6058 594.3455,-199.0991 602.5866,-195.6538"/>
<polygon fill="#191970" stroke="#191970" points="513.117,-350.0974 515.1266,-360.4999 520.0427,-351.1146 513.117,-350.0974"/>
</g>
<!-- Node19 -->
<g id="node19" class="node">
<title>Node19</title>
<g id="a_node19"><a xlink:href="../../de/d55/Fun4All__G4__sPHENIX__truthphotonjet_8C.html#a48a6f4503eaa1b3793d8ae572aa795b9" target="_top" xlink:title="Fun4All_G4_sPHENIX\l_truthphotonjet">
<polygon fill="none" stroke="#000000" points="603,-117.5 603,-149.5 724,-149.5 724,-117.5 603,-117.5"/>
<text text-anchor="start" x="611" y="-136.5" font-family="FreeSans" font-size="10.00" fill="#000000">Fun4All_G4_sPHENIX</text>
<text text-anchor="middle" x="663.5" y="-124.5" font-family="FreeSans" font-size="10.00" fill="#000000">_truthphotonjet</text>
</a>
</g>
</g>
<!-- Node4&#45;&gt;Node19 -->
<g id="edge18" class="edge">
<title>Node4&#45;&gt;Node19</title>
<path fill="none" stroke="#191970" d="M517.7732,-350.3624C527.0444,-302.9055 552.218,-185.9807 580,-158.5 586.455,-152.115 594.471,-147.3497 602.9617,-143.7955"/>
<polygon fill="#191970" stroke="#191970" points="514.3031,-349.8745 515.8569,-360.3548 521.1778,-351.193 514.3031,-349.8745"/>
</g>
<!-- Node20 -->
<g id="node20" class="node">
<title>Node20</title>
<g id="a_node20"><a xlink:href="../../d4/d65/Fun4All__single__particle_8C.html#a8a492b5dbead494bfdddbebde8a49b0e" target="_top" xlink:title="Fun4All_single_particle">
<polygon fill="none" stroke="#000000" points="597.5,-78.5 597.5,-98.5 729.5,-98.5 729.5,-78.5 597.5,-78.5"/>
<text text-anchor="middle" x="663.5" y="-85.5" font-family="FreeSans" font-size="10.00" fill="#000000">Fun4All_single_particle</text>
</a>
</g>
</g>
<!-- Node4&#45;&gt;Node20 -->
<g id="edge19" class="edge">
<title>Node4&#45;&gt;Node20</title>
<path fill="none" stroke="#191970" d="M516.3374,-350.3423C523.174,-294.8774 544.8945,-141.8368 580,-107.5 584.9953,-102.6141 590.9709,-98.8818 597.3985,-96.0442"/>
<polygon fill="#191970" stroke="#191970" points="512.8534,-349.9998 515.1368,-360.3457 519.8036,-350.834 512.8534,-349.9998"/>
</g>
<!-- Node21 -->
<g id="node21" class="node">
<title>Node21</title>
<g id="a_node21"><a xlink:href="../../d0/d99/Jin__BJet_8C.html#a36169bfee2ed7efda633944d12aebad9" target="_top" xlink:title="Jin_BJet">
<polygon fill="none" stroke="#000000" points="636,-39.5 636,-59.5 691,-59.5 691,-39.5 636,-39.5"/>
<text text-anchor="middle" x="663.5" y="-46.5" font-family="FreeSans" font-size="10.00" fill="#000000">Jin_BJet</text>
</a>
</g>
</g>
<!-- Node4&#45;&gt;Node21 -->
<g id="edge20" class="edge">
<title>Node4&#45;&gt;Node21</title>
<path fill="none" stroke="#191970" d="M515.6409,-350.2505C520.997,-289.2346 539.9758,-108.8688 580,-68.5 594.4451,-53.9305 617.5807,-49.5476 635.8398,-48.6025"/>
<polygon fill="#191970" stroke="#191970" points="512.1301,-350.2312 514.7731,-360.4911 519.1051,-350.8224 512.1301,-350.2312"/>
</g>
<!-- Node22 -->
<g id="node22" class="node">
<title>Node22</title>
<g id="a_node22"><a xlink:href="../../dd/db1/Wrapper_8cxx.html#abf1e42281903daa0752c80dd6c879fac" target="_top" xlink:title="Wrapper">
<polygon fill="none" stroke="#000000" points="633.5,-.5 633.5,-20.5 693.5,-20.5 693.5,-.5 633.5,-.5"/>
<text text-anchor="middle" x="663.5" y="-7.5" font-family="FreeSans" font-size="10.00" fill="#000000">Wrapper</text>
</a>
</g>
</g>
<!-- Node4&#45;&gt;Node22 -->
<g id="edge21" class="edge">
<title>Node4&#45;&gt;Node22</title>
<path fill="none" stroke="#191970" d="M515.0901,-350.2645C519.068,-284.1352 535.0024,-75.9867 580,-29.5 593.649,-15.3993 615.4225,-10.7885 633.3133,-9.63"/>
<polygon fill="#191970" stroke="#191970" points="511.5954,-350.0726 514.5164,-360.2568 518.5839,-350.4739 511.5954,-350.0726"/>
</g>
<!-- Node6 -->
<g id="node6" class="node">
<title>Node6</title>
<g id="a_node6"><a xlink:href="../../d3/d7f/Fun_8C.html#af69a3eef3ff244bb51f5740c6ecb5432" target="_top" xlink:title="Fun">
<polygon fill="none" stroke="#000000" points="783,-696.5 783,-716.5 817,-716.5 817,-696.5 783,-696.5"/>
<text text-anchor="middle" x="800" y="-703.5" font-family="FreeSans" font-size="10.00" fill="#000000">Fun</text>
</a>
</g>
</g>
<!-- Node5&#45;&gt;Node6 -->
<g id="edge5" class="edge">
<title>Node5&#45;&gt;Node6</title>
<path fill="none" stroke="#191970" d="M730.6941,-706.5C750.0852,-706.5 769.59,-706.5 782.9452,-706.5"/>
<polygon fill="#191970" stroke="#191970" points="730.5974,-703.0001 720.5974,-706.5 730.5974,-710.0001 730.5974,-703.0001"/>
</g>
<!-- Node24 -->
<g id="node24" class="node">
<title>Node24</title>
<g id="a_node24"><a xlink:href="../../d8/d41/G4__EGEM__EIC_8C.html#ab02e3ec0ae447e560b3a9a6fc25d9243" target="_top" xlink:title="make_GEM_station">
<polygon fill="none" stroke="#000000" points="337,-449.5 337,-469.5 448,-469.5 448,-449.5 337,-449.5"/>
<text text-anchor="middle" x="392.5" y="-456.5" font-family="FreeSans" font-size="10.00" fill="#000000">make_GEM_station</text>
</a>
</g>
</g>
<!-- Node23&#45;&gt;Node24 -->
<g id="edge23" class="edge">
<title>Node23&#45;&gt;Node24</title>
<path fill="none" stroke="#191970" d="M308.2348,-465.8002C317.9062,-465.0771 327.6555,-464.3482 336.919,-463.6556"/>
<polygon fill="#191970" stroke="#191970" points="307.9193,-462.3139 298.2081,-466.5499 308.4413,-469.2944 307.9193,-462.3139"/>
</g>
<!-- Node25&#45;&gt;Node24 -->
<g id="edge25" class="edge">
<title>Node25&#45;&gt;Node24</title>
<path fill="none" stroke="#191970" d="M307.8926,-432.6154C326.5073,-438.5304 345.4357,-444.545 360.6555,-449.3812"/>
<polygon fill="#191970" stroke="#191970" points="308.7985,-429.2309 298.2081,-429.5381 306.6786,-435.9022 308.7985,-429.2309"/>
</g>
<!-- Node26 -->
<g id="node26" class="node">
<title>Node26</title>
<g id="a_node26"><a xlink:href="../../d7/df5/EICAnalysis_2macros_2leptoquarks__fun4all_2G4__FGEM__EIC_8C.html#ac44d1ef8dd3931eed6dd2ae0110ed8d1" target="_top" xlink:title="FGEMSetup">
<polygon fill="none" stroke="#000000" points="355.5,-398.5 355.5,-418.5 429.5,-418.5 429.5,-398.5 355.5,-398.5"/>
<text text-anchor="middle" x="392.5" y="-405.5" font-family="FreeSans" font-size="10.00" fill="#000000">FGEMSetup</text>
</a>
</g>
</g>
<!-- Node25&#45;&gt;Node26 -->
<g id="edge26" class="edge">
<title>Node25&#45;&gt;Node26</title>
<path fill="none" stroke="#191970" d="M308.3476,-408.5C324.7164,-408.5 341.3023,-408.5 355.3725,-408.5"/>
<polygon fill="#191970" stroke="#191970" points="308.2082,-405.0001 298.2081,-408.5 308.2081,-412.0001 308.2082,-405.0001"/>
</g>
<!-- Node29&#45;&gt;Node4 -->
<g id="edge30" class="edge">
<title>Node29&#45;&gt;Node4</title>
<path fill="none" stroke="#191970" d="M422.8027,-326.9655C444.547,-337.3455 473.3101,-351.076 492.6712,-360.3183"/>
<polygon fill="#191970" stroke="#191970" points="424.196,-323.7523 413.6637,-322.6028 421.1804,-330.0694 424.196,-323.7523"/>
</g>
</g>
</svg>
