<?xml version="1.0" encoding="UTF-8" standalone="no"?>
<!DOCTYPE svg PUBLIC "-//W3C//DTD SVG 1.1//EN"
 "http://www.w3.org/Graphics/SVG/1.1/DTD/svg11.dtd">
<!-- Generated by graphviz version 2.40.1 (20161225.0304)
 -->
<!-- Title: PHG4Sector::Sector_Geometry::set_max_polar_angle Pages: 1 -->
<svg width="862pt" height="725pt"
 viewBox="0.00 0.00 862.00 725.00" xmlns="http://www.w3.org/2000/svg" xmlns:xlink="http://www.w3.org/1999/xlink">
<g id="graph0" class="graph" transform="scale(1 1) rotate(0) translate(4 721)">
<title>PHG4Sector::Sector_Geometry::set_max_polar_angle</title>
<!-- Node1 -->
<g id="node1" class="node">
<title>Node1</title>
<polygon fill="#bfbfbf" stroke="#000000" points="0,-290.5 0,-322.5 185,-322.5 185,-290.5 0,-290.5"/>
<text text-anchor="start" x="8" y="-309.5" font-family="FreeSans" font-size="10.00" fill="#000000">PHG4Sector::Sector</text>
<text text-anchor="middle" x="92.5" y="-297.5" font-family="FreeSans" font-size="10.00" fill="#000000">_Geometry::set_max_polar_angle</text>
</g>
<!-- Node2 -->
<g id="node2" class="node">
<title>Node2</title>
<g id="a_node2"><a xlink:href="../../d4/dbc/macros_2blob_2master_2macros_2g4simulations_2G4__Aerogel_8C.html#a400136ba4928234f7c9990b4065328f1" target="_top" xlink:title="AerogelSetup">
<polygon fill="none" stroke="#000000" points="280,-380.5 280,-400.5 365,-400.5 365,-380.5 280,-380.5"/>
<text text-anchor="middle" x="322.5" y="-387.5" font-family="FreeSans" font-size="10.00" fill="#000000">AerogelSetup</text>
</a>
</g>
</g>
<!-- Node1&#45;&gt;Node2 -->
<g id="edge1" class="edge">
<title>Node1&#45;&gt;Node2</title>
<path fill="none" stroke="#191970" d="M128.4592,-327.6745C153.6228,-341.6664 188.4325,-359.4059 221,-370.5 239.8711,-376.9284 261.4598,-381.5423 279.8616,-384.7066"/>
<polygon fill="#191970" stroke="#191970" points="130.0771,-324.5688 119.6469,-322.7084 126.6405,-330.6671 130.0771,-324.5688"/>
</g>
<!-- Node22 -->
<g id="node22" class="node">
<title>Node22</title>
<g id="a_node22"><a xlink:href="../../dc/dbd/classPHG4Sector_1_1PHG4SectorConstructor.html#ad533f2d88dc4ef5ed7dde6639a076c41" target="_top" xlink:title="PHG4Sector::PHG4SectorConstructor\l::Construct_Sectors">
<polygon fill="none" stroke="#000000" points="221,-290.5 221,-322.5 424,-322.5 424,-290.5 221,-290.5"/>
<text text-anchor="start" x="229" y="-309.5" font-family="FreeSans" font-size="10.00" fill="#000000">PHG4Sector::PHG4SectorConstructor</text>
<text text-anchor="middle" x="322.5" y="-297.5" font-family="FreeSans" font-size="10.00" fill="#000000">::Construct_Sectors</text>
</a>
</g>
</g>
<!-- Node1&#45;&gt;Node22 -->
<g id="edge21" class="edge">
<title>Node1&#45;&gt;Node22</title>
<path fill="none" stroke="#191970" d="M195.2998,-306.5C203.7444,-306.5 212.2778,-306.5 220.715,-306.5"/>
<polygon fill="#191970" stroke="#191970" points="195.0556,-303.0001 185.0556,-306.5 195.0556,-310.0001 195.0556,-303.0001"/>
</g>
<!-- Node24 -->
<g id="node24" class="node">
<title>Node24</title>
<g id="a_node24"><a xlink:href="../../d3/dc0/macros_2blob_2master_2macros_2g4simulations_2G4__DIRC_8C.html#acbdf429e4e41a2057e053691cc0b4128" target="_top" xlink:title="DIRCSetup">
<polygon fill="none" stroke="#000000" points="287.5,-341.5 287.5,-361.5 357.5,-361.5 357.5,-341.5 287.5,-341.5"/>
<text text-anchor="middle" x="322.5" y="-348.5" font-family="FreeSans" font-size="10.00" fill="#000000">DIRCSetup</text>
</a>
</g>
</g>
<!-- Node1&#45;&gt;Node24 -->
<g id="edge23" class="edge">
<title>Node1&#45;&gt;Node24</title>
<path fill="none" stroke="#191970" d="M184.6472,-324.5288C220.7452,-331.5915 259.9736,-339.2666 287.3195,-344.6169"/>
<polygon fill="#191970" stroke="#191970" points="185.0472,-321.0408 174.5612,-322.5555 183.7031,-327.9105 185.0472,-321.0408"/>
</g>
<!-- Node25 -->
<g id="node25" class="node">
<title>Node25</title>
<g id="a_node25"><a xlink:href="../../d7/df5/EICAnalysis_2macros_2leptoquarks__fun4all_2G4__FGEM__EIC_8C.html#ac44d1ef8dd3931eed6dd2ae0110ed8d1" target="_top" xlink:title="FGEMSetup">
<polygon fill="none" stroke="#000000" points="285.5,-251.5 285.5,-271.5 359.5,-271.5 359.5,-251.5 285.5,-251.5"/>
<text text-anchor="middle" x="322.5" y="-258.5" font-family="FreeSans" font-size="10.00" fill="#000000">FGEMSetup</text>
</a>
</g>
</g>
<!-- Node1&#45;&gt;Node25 -->
<g id="edge25" class="edge">
<title>Node1&#45;&gt;Node25</title>
<path fill="none" stroke="#191970" d="M181.1034,-288.3964C194.4665,-285.7171 208.0926,-283.0137 221,-280.5 242.2924,-276.3533 266.1323,-271.8818 285.3547,-268.319"/>
<polygon fill="#191970" stroke="#191970" points="180.0662,-285.0348 170.9522,-290.4371 181.4459,-291.8975 180.0662,-285.0348"/>
</g>
<!-- Node26 -->
<g id="node26" class="node">
<title>Node26</title>
<g id="a_node26"><a xlink:href="../../d8/d41/G4__EGEM__EIC_8C.html#ab02e3ec0ae447e560b3a9a6fc25d9243" target="_top" xlink:title="make_GEM_station">
<polygon fill="none" stroke="#000000" points="267,-212.5 267,-232.5 378,-232.5 378,-212.5 267,-212.5"/>
<text text-anchor="middle" x="322.5" y="-219.5" font-family="FreeSans" font-size="10.00" fill="#000000">make_GEM_station</text>
</a>
</g>
</g>
<!-- Node1&#45;&gt;Node26 -->
<g id="edge26" class="edge">
<title>Node1&#45;&gt;Node26</title>
<path fill="none" stroke="#191970" d="M127.8976,-285.1478C153.0631,-270.8398 188.1016,-252.6466 221,-241.5 235.6024,-236.5525 251.8484,-232.7848 266.9859,-229.9627"/>
<polygon fill="#191970" stroke="#191970" points="126.01,-282.196 119.0951,-290.2231 129.5065,-288.2602 126.01,-282.196"/>
</g>
<!-- Node3 -->
<g id="node3" class="node">
<title>Node3</title>
<g id="a_node3"><a xlink:href="../../d2/dfe/macros_2blob_2master_2macros_2g4simulations_2G4Setup__EICDetector_8C.html#a5d4cb2d19366a2ae6d2aefe8d2e4a870" target="_top" xlink:title="G4Setup">
<polygon fill="none" stroke="#000000" points="490.5,-360.5 490.5,-380.5 550.5,-380.5 550.5,-360.5 490.5,-360.5"/>
<text text-anchor="middle" x="520.5" y="-367.5" font-family="FreeSans" font-size="10.00" fill="#000000">G4Setup</text>
</a>
</g>
</g>
<!-- Node2&#45;&gt;Node3 -->
<g id="edge2" class="edge">
<title>Node2&#45;&gt;Node3</title>
<path fill="none" stroke="#191970" d="M375.5341,-385.143C412.3485,-381.4244 460.0627,-376.6048 490.4886,-373.5315"/>
<polygon fill="#191970" stroke="#191970" points="375.0606,-381.6729 365.4631,-386.1603 375.7642,-388.6375 375.0606,-381.6729"/>
</g>
<!-- Node4 -->
<g id="node4" class="node">
<title>Node4</title>
<g id="a_node4"><a xlink:href="../../d3/d7f/Fun_8C.html#af0d3c8a78765149fef9b2beeecfc6279" target="_top" xlink:title="ConfigureDetectors">
<polygon fill="none" stroke="#000000" points="643.5,-696.5 643.5,-716.5 757.5,-716.5 757.5,-696.5 643.5,-696.5"/>
<text text-anchor="middle" x="700.5" y="-703.5" font-family="FreeSans" font-size="10.00" fill="#000000">ConfigureDetectors</text>
</a>
</g>
</g>
<!-- Node3&#45;&gt;Node4 -->
<g id="edge3" class="edge">
<title>Node3&#45;&gt;Node4</title>
<path fill="none" stroke="#191970" d="M523.9551,-390.5325C535.1761,-453.3232 572.4573,-644.6071 617,-686.5 624.3838,-693.4446 633.7365,-698.111 643.491,-701.2195"/>
<polygon fill="#191970" stroke="#191970" points="527.4001,-389.9141 522.2198,-380.6721 520.5061,-391.1275 527.4001,-389.9141"/>
</g>
<!-- Node6 -->
<g id="node6" class="node">
<title>Node6</title>
<g id="a_node6"><a xlink:href="../../da/d02/Fun4All__G4__EICDetector_8C.html#afbe82cefa1d1fd031d9a8586b7bb68c6" target="_top" xlink:title="Fun4All_G4_EICDetector">
<polygon fill="none" stroke="#000000" points="631,-657.5 631,-677.5 770,-677.5 770,-657.5 631,-657.5"/>
<text text-anchor="middle" x="700.5" y="-664.5" font-family="FreeSans" font-size="10.00" fill="#000000">Fun4All_G4_EICDetector</text>
</a>
</g>
</g>
<!-- Node3&#45;&gt;Node6 -->
<g id="edge5" class="edge">
<title>Node3&#45;&gt;Node6</title>
<path fill="none" stroke="#191970" d="M524.8865,-390.6424C537.813,-448.2123 577.3453,-611.6298 617,-647.5 621.4219,-651.4999 626.5006,-654.7382 631.9228,-657.3551"/>
<polygon fill="#191970" stroke="#191970" points="528.2438,-389.6151 522.6637,-380.6088 521.4095,-391.1292 528.2438,-389.6151"/>
</g>
<!-- Node7 -->
<g id="node7" class="node">
<title>Node7</title>
<g id="a_node7"><a xlink:href="../../dd/d2a/Fun4All__G4__EICDetector__LQ_8C.html#aaa01242fd6e77ca43a9d49a6d46008e4" target="_top" xlink:title="Fun4All_G4_EICDetector_LQ">
<polygon fill="none" stroke="#000000" points="622.5,-618.5 622.5,-638.5 778.5,-638.5 778.5,-618.5 622.5,-618.5"/>
<text text-anchor="middle" x="700.5" y="-625.5" font-family="FreeSans" font-size="10.00" fill="#000000">Fun4All_G4_EICDetector_LQ</text>
</a>
</g>
</g>
<!-- Node3&#45;&gt;Node7 -->
<g id="edge6" class="edge">
<title>Node3&#45;&gt;Node7</title>
<path fill="none" stroke="#191970" d="M522.5461,-390.6902C528.3299,-436.7451 549.0788,-550.0795 617,-608.5 621.7465,-612.5826 627.1831,-615.8639 632.9556,-618.497"/>
<polygon fill="#191970" stroke="#191970" points="526.0214,-390.274 521.4027,-380.7389 519.0672,-391.0731 526.0214,-390.274"/>
</g>
<!-- Node8 -->
<g id="node8" class="node">
<title>Node8</title>
<g id="a_node8"><a xlink:href="../../d4/df5/Fun4All__G4__EICDetector__LQ__reference_8C.html#a2feefc472f17f90b3cbe74897d049f75" target="_top" xlink:title="Fun4All_G4_EICDetector\l_LQ_reference">
<polygon fill="none" stroke="#000000" points="631,-567.5 631,-599.5 770,-599.5 770,-567.5 631,-567.5"/>
<text text-anchor="start" x="639" y="-586.5" font-family="FreeSans" font-size="10.00" fill="#000000">Fun4All_G4_EICDetector</text>
<text text-anchor="middle" x="700.5" y="-574.5" font-family="FreeSans" font-size="10.00" fill="#000000">_LQ_reference</text>
</a>
</g>
</g>
<!-- Node3&#45;&gt;Node8 -->
<g id="edge7" class="edge">
<title>Node3&#45;&gt;Node8</title>
<path fill="none" stroke="#191970" d="M525.3503,-390.6947C535.5806,-428.9474 563,-512.1888 617,-557.5 621.5361,-561.3062 626.6279,-564.5561 632.001,-567.3309"/>
<polygon fill="#191970" stroke="#191970" points="528.6793,-389.5849 522.8141,-380.7616 521.8968,-391.3166 528.6793,-389.5849"/>
</g>
<!-- Node9 -->
<g id="node9" class="node">
<title>Node9</title>
<g id="a_node9"><a xlink:href="../../d3/d51/Fun4All__G4__EICDetector__RICH_8C.html#a5739502b0a7a1ba782c01069f77e933f" target="_top" xlink:title="Fun4All_G4_EICDetector_RICH">
<polygon fill="none" stroke="#000000" points="617,-528.5 617,-548.5 784,-548.5 784,-528.5 617,-528.5"/>
<text text-anchor="middle" x="700.5" y="-535.5" font-family="FreeSans" font-size="10.00" fill="#000000">Fun4All_G4_EICDetector_RICH</text>
</a>
</g>
</g>
<!-- Node3&#45;&gt;Node9 -->
<g id="edge8" class="edge">
<title>Node3&#45;&gt;Node9</title>
<path fill="none" stroke="#191970" d="M527.7449,-390.2841C540.5645,-422.4104 570.3748,-485.6313 617,-518.5 622.7262,-522.5368 629.1644,-525.7654 635.86,-528.3466"/>
<polygon fill="#191970" stroke="#191970" points="530.9042,-388.7481 524.049,-380.6699 524.3703,-391.2599 530.9042,-388.7481"/>
</g>
<!-- Node10 -->
<g id="node10" class="node">
<title>Node10</title>
<g id="a_node10"><a xlink:href="../../d9/d0e/Fun4All__G4__EICIR_8C.html#ac3543d1dd4a0abed3987d40939ee3f87" target="_top" xlink:title="Fun4All_G4_EICIR">
<polygon fill="none" stroke="#000000" points="648.5,-489.5 648.5,-509.5 752.5,-509.5 752.5,-489.5 648.5,-489.5"/>
<text text-anchor="middle" x="700.5" y="-496.5" font-family="FreeSans" font-size="10.00" fill="#000000">Fun4All_G4_EICIR</text>
</a>
</g>
</g>
<!-- Node3&#45;&gt;Node10 -->
<g id="edge9" class="edge">
<title>Node3&#45;&gt;Node10</title>
<path fill="none" stroke="#191970" d="M531.8244,-389.2541C547.7048,-413.8814 578.9543,-456.6622 617,-479.5 626.4577,-485.1772 637.4247,-489.2435 648.2382,-492.1557"/>
<polygon fill="#191970" stroke="#191970" points="534.7889,-387.3933 526.5085,-380.7837 528.8598,-391.1144 534.7889,-387.3933"/>
</g>
<!-- Node11 -->
<g id="node11" class="node">
<title>Node11</title>
<g id="a_node11"><a xlink:href="../../d7/d9e/Fun4All__G4__fsPHENIX_8C.html#af48911d394d2412e817583700f2bbee2" target="_top" xlink:title="Fun4All_G4_fsPHENIX">
<polygon fill="none" stroke="#000000" points="638.5,-450.5 638.5,-470.5 762.5,-470.5 762.5,-450.5 638.5,-450.5"/>
<text text-anchor="middle" x="700.5" y="-457.5" font-family="FreeSans" font-size="10.00" fill="#000000">Fun4All_G4_fsPHENIX</text>
</a>
</g>
</g>
<!-- Node3&#45;&gt;Node11 -->
<g id="edge10" class="edge">
<title>Node3&#45;&gt;Node11</title>
<path fill="none" stroke="#191970" d="M539.098,-387.4622C557.5621,-403.4192 587.326,-426.8432 617,-440.5 625.8018,-444.5509 635.5171,-447.834 645.1145,-450.4782"/>
<polygon fill="#191970" stroke="#191970" points="541.2657,-384.7072 531.4506,-380.7179 536.6356,-389.9572 541.2657,-384.7072"/>
</g>
<!-- Node12 -->
<g id="node12" class="node">
<title>Node12</title>
<g id="a_node12"><a xlink:href="../../da/d2f/Fun4All__G4__fsPHENIX__FastSim_8C.html#a66fb850cae5fcaadda23b74a25ce4c9c" target="_top" xlink:title="Fun4All_G4_fsPHENIX\l_FastSim">
<polygon fill="none" stroke="#000000" points="638.5,-399.5 638.5,-431.5 762.5,-431.5 762.5,-399.5 638.5,-399.5"/>
<text text-anchor="start" x="646.5" y="-418.5" font-family="FreeSans" font-size="10.00" fill="#000000">Fun4All_G4_fsPHENIX</text>
<text text-anchor="middle" x="700.5" y="-406.5" font-family="FreeSans" font-size="10.00" fill="#000000">_FastSim</text>
</a>
</g>
</g>
<!-- Node3&#45;&gt;Node12 -->
<g id="edge11" class="edge">
<title>Node3&#45;&gt;Node12</title>
<path fill="none" stroke="#191970" d="M560.626,-380.5315C583.4162,-386.229 612.4419,-393.4855 638.1386,-399.9097"/>
<polygon fill="#191970" stroke="#191970" points="561.1783,-377.0619 550.628,-378.032 559.4805,-383.8529 561.1783,-377.0619"/>
</g>
<!-- Node13 -->
<g id="node13" class="node">
<title>Node13</title>
<g id="a_node13"><a xlink:href="../../d0/da6/Fun4All__G4__fsPHENIX__pi0_8C.html#a023d91d47b678e5d7f1751834aa517c6" target="_top" xlink:title="Fun4All_G4_fsPHENIX_pi0">
<polygon fill="none" stroke="#000000" points="628,-360.5 628,-380.5 773,-380.5 773,-360.5 628,-360.5"/>
<text text-anchor="middle" x="700.5" y="-367.5" font-family="FreeSans" font-size="10.00" fill="#000000">Fun4All_G4_fsPHENIX_pi0</text>
</a>
</g>
</g>
<!-- Node3&#45;&gt;Node13 -->
<g id="edge12" class="edge">
<title>Node3&#45;&gt;Node13</title>
<path fill="none" stroke="#191970" d="M560.8034,-370.5C580.581,-370.5 605.0228,-370.5 627.9042,-370.5"/>
<polygon fill="#191970" stroke="#191970" points="560.628,-367.0001 550.628,-370.5 560.6279,-374.0001 560.628,-367.0001"/>
</g>
<!-- Node14 -->
<g id="node14" class="node">
<title>Node14</title>
<g id="a_node14"><a xlink:href="../../d5/d2c/macros_2blob_2master_2macros_2g4simulations_2Fun4All__G4__sPHENIX_8C.html#a6eaaa492d7023ec86c562dc63aa1e5a4" target="_top" xlink:title="Fun4All_G4_sPHENIX">
<polygon fill="none" stroke="#000000" points="640,-321.5 640,-341.5 761,-341.5 761,-321.5 640,-321.5"/>
<text text-anchor="middle" x="700.5" y="-328.5" font-family="FreeSans" font-size="10.00" fill="#000000">Fun4All_G4_sPHENIX</text>
</a>
</g>
</g>
<!-- Node3&#45;&gt;Node14 -->
<g id="edge13" class="edge">
<title>Node3&#45;&gt;Node14</title>
<path fill="none" stroke="#191970" d="M560.7373,-361.7819C588.3735,-355.7941 625.14,-347.828 654.0267,-341.5692"/>
<polygon fill="#191970" stroke="#191970" points="559.66,-358.434 550.628,-363.9723 561.1423,-365.2753 559.66,-358.434"/>
</g>
<!-- Node15 -->
<g id="node15" class="node">
<title>Node15</title>
<g id="a_node15"><a xlink:href="../../d3/de2/Fun4All__G4__sPHENIX__AnaGenFit_8C.html#a9bf3f2f72ed69a17e2d0c1121d48013c" target="_top" xlink:title="Fun4All_G4_sPHENIX\l_AnaGenFit">
<polygon fill="none" stroke="#000000" points="640,-270.5 640,-302.5 761,-302.5 761,-270.5 640,-270.5"/>
<text text-anchor="start" x="648" y="-289.5" font-family="FreeSans" font-size="10.00" fill="#000000">Fun4All_G4_sPHENIX</text>
<text text-anchor="middle" x="700.5" y="-277.5" font-family="FreeSans" font-size="10.00" fill="#000000">_AnaGenFit</text>
</a>
</g>
</g>
<!-- Node3&#45;&gt;Node15 -->
<g id="edge14" class="edge">
<title>Node3&#45;&gt;Node15</title>
<path fill="none" stroke="#191970" d="M544.3728,-354.9257C567.9548,-339.7211 602.5309,-317.9586 617,-311.5 624.3236,-308.2309 632.1938,-305.2439 640.0703,-302.5623"/>
<polygon fill="#191970" stroke="#191970" points="542.4303,-352.0137 535.9379,-360.3863 546.2344,-357.8899 542.4303,-352.0137"/>
</g>
<!-- Node16 -->
<g id="node16" class="node">
<title>Node16</title>
<g id="a_node16"><a xlink:href="../../da/dd0/Fun4All__G4__sPHENIX__photonjet_8C.html#a6f18519e216acc05399e562ea57ea77c" target="_top" xlink:title="Fun4All_G4_sPHENIX\l_photonjet">
<polygon fill="none" stroke="#000000" points="640,-219.5 640,-251.5 761,-251.5 761,-219.5 640,-219.5"/>
<text text-anchor="start" x="648" y="-238.5" font-family="FreeSans" font-size="10.00" fill="#000000">Fun4All_G4_sPHENIX</text>
<text text-anchor="middle" x="700.5" y="-226.5" font-family="FreeSans" font-size="10.00" fill="#000000">_photonjet</text>
</a>
</g>
</g>
<!-- Node3&#45;&gt;Node16 -->
<g id="edge15" class="edge">
<title>Node3&#45;&gt;Node16</title>
<path fill="none" stroke="#191970" d="M550.7844,-355.2907C561.2769,-348.9727 572.5211,-340.9035 581,-331.5 604.6923,-305.224 589.8538,-283.19 617,-260.5 623.6181,-254.9683 631.4286,-250.6606 639.5725,-247.306"/>
<polygon fill="#191970" stroke="#191970" points="548.803,-352.3912 541.8457,-360.3816 552.2673,-358.4739 548.803,-352.3912"/>
</g>
<!-- Node17 -->
<g id="node17" class="node">
<title>Node17</title>
<g id="a_node17"><a xlink:href="../../da/d85/Fun4All__G4__sPHENIX__photons_8C.html#a02fbbd59878fe1299f58ed187e7214ba" target="_top" xlink:title="Fun4All_G4_sPHENIX\l_photons">
<polygon fill="none" stroke="#000000" points="640,-168.5 640,-200.5 761,-200.5 761,-168.5 640,-168.5"/>
<text text-anchor="start" x="648" y="-187.5" font-family="FreeSans" font-size="10.00" fill="#000000">Fun4All_G4_sPHENIX</text>
<text text-anchor="middle" x="700.5" y="-175.5" font-family="FreeSans" font-size="10.00" fill="#000000">_photons</text>
</a>
</g>
</g>
<!-- Node3&#45;&gt;Node17 -->
<g id="edge16" class="edge">
<title>Node3&#45;&gt;Node17</title>
<path fill="none" stroke="#191970" d="M552.7321,-355.5166C563.026,-349.3544 573.6441,-341.3269 581,-331.5 614.8782,-286.2416 577.1041,-249.5545 617,-209.5 623.4074,-203.0672 631.398,-198.2764 639.8779,-194.7114"/>
<polygon fill="#191970" stroke="#191970" points="550.8985,-352.5314 543.8596,-360.4501 554.3003,-358.6493 550.8985,-352.5314"/>
</g>
<!-- Node18 -->
<g id="node18" class="node">
<title>Node18</title>
<g id="a_node18"><a xlink:href="../../de/d55/Fun4All__G4__sPHENIX__truthphotonjet_8C.html#a48a6f4503eaa1b3793d8ae572aa795b9" target="_top" xlink:title="Fun4All_G4_sPHENIX\l_truthphotonjet">
<polygon fill="none" stroke="#000000" points="640,-117.5 640,-149.5 761,-149.5 761,-117.5 640,-117.5"/>
<text text-anchor="start" x="648" y="-136.5" font-family="FreeSans" font-size="10.00" fill="#000000">Fun4All_G4_sPHENIX</text>
<text text-anchor="middle" x="700.5" y="-124.5" font-family="FreeSans" font-size="10.00" fill="#000000">_truthphotonjet</text>
</a>
</g>
</g>
<!-- Node3&#45;&gt;Node18 -->
<g id="edge17" class="edge">
<title>Node3&#45;&gt;Node18</title>
<path fill="none" stroke="#191970" d="M553.6851,-355.5586C563.8593,-349.4594 574.1613,-341.46 581,-331.5 625.454,-266.7563 563.8978,-216.3624 617,-158.5 623.2414,-151.6992 631.2493,-146.7199 639.8275,-143.0802"/>
<polygon fill="#191970" stroke="#191970" points="551.9274,-352.531 544.8674,-360.4308 555.3128,-358.6579 551.9274,-352.531"/>
</g>
<!-- Node19 -->
<g id="node19" class="node">
<title>Node19</title>
<g id="a_node19"><a xlink:href="../../d4/d65/Fun4All__single__particle_8C.html#a8a492b5dbead494bfdddbebde8a49b0e" target="_top" xlink:title="Fun4All_single_particle">
<polygon fill="none" stroke="#000000" points="634.5,-78.5 634.5,-98.5 766.5,-98.5 766.5,-78.5 634.5,-78.5"/>
<text text-anchor="middle" x="700.5" y="-85.5" font-family="FreeSans" font-size="10.00" fill="#000000">Fun4All_single_particle</text>
</a>
</g>
</g>
<!-- Node3&#45;&gt;Node19 -->
<g id="edge18" class="edge">
<title>Node3&#45;&gt;Node19</title>
<path fill="none" stroke="#191970" d="M554.1969,-355.5911C564.3091,-349.5224 574.4441,-341.5331 581,-331.5 636.1559,-247.0895 548.0321,-181.0577 617,-107.5 621.881,-102.2941 627.8672,-98.3725 634.3725,-95.4365"/>
<polygon fill="#191970" stroke="#191970" points="552.4772,-352.5424 545.4068,-360.4329 555.8546,-358.6738 552.4772,-352.5424"/>
</g>
<!-- Node20 -->
<g id="node20" class="node">
<title>Node20</title>
<g id="a_node20"><a xlink:href="../../d0/d99/Jin__BJet_8C.html#a36169bfee2ed7efda633944d12aebad9" target="_top" xlink:title="Jin_BJet">
<polygon fill="none" stroke="#000000" points="673,-39.5 673,-59.5 728,-59.5 728,-39.5 673,-39.5"/>
<text text-anchor="middle" x="700.5" y="-46.5" font-family="FreeSans" font-size="10.00" fill="#000000">Jin_BJet</text>
</a>
</g>
</g>
<!-- Node3&#45;&gt;Node20 -->
<g id="edge19" class="edge">
<title>Node3&#45;&gt;Node20</title>
<path fill="none" stroke="#191970" d="M554.8837,-355.3491C564.8203,-349.3268 574.678,-341.426 581,-331.5 644.379,-231.9906 537.3134,-155.5004 617,-68.5 630.9579,-53.261 654.3755,-48.9691 672.8651,-48.2291"/>
<polygon fill="#191970" stroke="#191970" points="552.8905,-352.4519 545.8353,-360.3559 556.2796,-358.5768 552.8905,-352.4519"/>
</g>
<!-- Node21 -->
<g id="node21" class="node">
<title>Node21</title>
<g id="a_node21"><a xlink:href="../../dd/db1/Wrapper_8cxx.html#abf1e42281903daa0752c80dd6c879fac" target="_top" xlink:title="Wrapper">
<polygon fill="none" stroke="#000000" points="670.5,-.5 670.5,-20.5 730.5,-20.5 730.5,-.5 670.5,-.5"/>
<text text-anchor="middle" x="700.5" y="-7.5" font-family="FreeSans" font-size="10.00" fill="#000000">Wrapper</text>
</a>
</g>
</g>
<!-- Node3&#45;&gt;Node21 -->
<g id="edge20" class="edge">
<title>Node3&#45;&gt;Node21</title>
<path fill="none" stroke="#191970" d="M554.9875,-355.4146C564.9297,-349.3958 574.7645,-341.4806 581,-331.5 652.6214,-216.8615 526.5705,-129.9695 617,-29.5 630.2281,-14.8032 652.2491,-10.2489 670.3562,-9.2654"/>
<polygon fill="#191970" stroke="#191970" points="552.9917,-352.5183 545.9268,-360.4137 556.3734,-358.6473 552.9917,-352.5183"/>
</g>
<!-- Node5 -->
<g id="node5" class="node">
<title>Node5</title>
<g id="a_node5"><a xlink:href="../../d3/d7f/Fun_8C.html#af69a3eef3ff244bb51f5740c6ecb5432" target="_top" xlink:title="Fun">
<polygon fill="none" stroke="#000000" points="820,-696.5 820,-716.5 854,-716.5 854,-696.5 820,-696.5"/>
<text text-anchor="middle" x="837" y="-703.5" font-family="FreeSans" font-size="10.00" fill="#000000">Fun</text>
</a>
</g>
</g>
<!-- Node4&#45;&gt;Node5 -->
<g id="edge4" class="edge">
<title>Node4&#45;&gt;Node5</title>
<path fill="none" stroke="#191970" d="M767.6941,-706.5C787.0852,-706.5 806.59,-706.5 819.9452,-706.5"/>
<polygon fill="#191970" stroke="#191970" points="767.5974,-703.0001 757.5974,-706.5 767.5974,-710.0001 767.5974,-703.0001"/>
</g>
<!-- Node23 -->
<g id="node23" class="node">
<title>Node23</title>
<g id="a_node23"><a xlink:href="../../d5/d5e/classPHG4SectorDetector.html#a45d81b008ca7291a850ae4b6002b0648" target="_top" xlink:title="construct">
<polygon fill="none" stroke="#000000" points="460,-290.5 460,-322.5 581,-322.5 581,-290.5 460,-290.5"/>
<text text-anchor="start" x="468" y="-309.5" font-family="FreeSans" font-size="10.00" fill="#000000">PHG4SectorDetector</text>
<text text-anchor="middle" x="520.5" y="-297.5" font-family="FreeSans" font-size="10.00" fill="#000000">::ConstructMe</text>
</a>
</g>
</g>
<!-- Node22&#45;&gt;Node23 -->
<g id="edge22" class="edge">
<title>Node22&#45;&gt;Node23</title>
<path fill="none" stroke="#191970" d="M434.1305,-306.5C442.968,-306.5 451.6689,-306.5 459.9455,-306.5"/>
<polygon fill="#191970" stroke="#191970" points="434.1101,-303.0001 424.1101,-306.5 434.11,-310.0001 434.1101,-303.0001"/>
</g>
<!-- Node24&#45;&gt;Node3 -->
<g id="edge24" class="edge">
<title>Node24&#45;&gt;Node3</title>
<path fill="none" stroke="#191970" d="M368.0647,-355.8724C405.584,-359.4727 457.7235,-364.476 490.2682,-367.599"/>
<polygon fill="#191970" stroke="#191970" points="368.1871,-352.3681 357.8984,-354.8968 367.5184,-359.3361 368.1871,-352.3681"/>
</g>
</g>
</svg>
