<?xml version="1.0" encoding="UTF-8" standalone="no"?>
<!DOCTYPE svg PUBLIC "-//W3C//DTD SVG 1.1//EN"
 "http://www.w3.org/Graphics/SVG/1.1/DTD/svg11.dtd">
<!-- Generated by graphviz version 2.40.1 (20161225.0304)
 -->
<!-- Title: PHG4Sector::Sector_Geometry::set_normal_polar_angle Pages: 1 -->
<svg width="658pt" height="725pt"
 viewBox="0.00 0.00 658.00 725.00" xmlns="http://www.w3.org/2000/svg" xmlns:xlink="http://www.w3.org/1999/xlink">
<g id="graph0" class="graph" transform="scale(1 1) rotate(0) translate(4 721)">
<title>PHG4Sector::Sector_Geometry::set_normal_polar_angle</title>
<!-- Node1 -->
<g id="node1" class="node">
<title>Node1</title>
<polygon fill="#bfbfbf" stroke="#000000" points="0,-309.5 0,-353.5 134,-353.5 134,-309.5 0,-309.5"/>
<text text-anchor="start" x="8" y="-340.5" font-family="FreeSans" font-size="10.00" fill="#000000">PHG4Sector::Sector</text>
<text text-anchor="start" x="8" y="-328.5" font-family="FreeSans" font-size="10.00" fill="#000000">_Geometry::set_normal</text>
<text text-anchor="middle" x="67" y="-316.5" font-family="FreeSans" font-size="10.00" fill="#000000">_polar_angle</text>
</g>
<!-- Node2 -->
<g id="node2" class="node">
<title>Node2</title>
<g id="a_node2"><a xlink:href="../../d4/dbc/macros_2blob_2master_2macros_2g4simulations_2G4__Aerogel_8C.html#a400136ba4928234f7c9990b4065328f1" target="_top" xlink:title="AerogelSetup">
<polygon fill="none" stroke="#000000" points="183,-380.5 183,-400.5 268,-400.5 268,-380.5 183,-380.5"/>
<text text-anchor="middle" x="225.5" y="-387.5" font-family="FreeSans" font-size="10.00" fill="#000000">AerogelSetup</text>
</a>
</g>
</g>
<!-- Node1&#45;&gt;Node2 -->
<g id="edge1" class="edge">
<title>Node1&#45;&gt;Node2</title>
<path fill="none" stroke="#191970" d="M134.1465,-357.1026C146.0765,-361.6006 158.395,-366.2122 170,-370.5 178.8386,-373.7656 188.4923,-377.2671 197.2338,-380.4131"/>
<polygon fill="#191970" stroke="#191970" points="135.2749,-353.7875 124.6833,-353.5281 132.8014,-360.336 135.2749,-353.7875"/>
</g>
<!-- Node22 -->
<g id="node22" class="node">
<title>Node22</title>
<g id="a_node22"><a xlink:href="../../d3/dc0/macros_2blob_2master_2macros_2g4simulations_2G4__DIRC_8C.html#acbdf429e4e41a2057e053691cc0b4128" target="_top" xlink:title="DIRCSetup">
<polygon fill="none" stroke="#000000" points="190.5,-341.5 190.5,-361.5 260.5,-361.5 260.5,-341.5 190.5,-341.5"/>
<text text-anchor="middle" x="225.5" y="-348.5" font-family="FreeSans" font-size="10.00" fill="#000000">DIRCSetup</text>
</a>
</g>
</g>
<!-- Node1&#45;&gt;Node22 -->
<g id="edge21" class="edge">
<title>Node1&#45;&gt;Node22</title>
<path fill="none" stroke="#191970" d="M144.1995,-341.2413C160.2915,-343.2718 176.4963,-345.3166 190.1576,-347.0404"/>
<polygon fill="#191970" stroke="#191970" points="144.5778,-337.7613 134.2183,-339.9818 143.7014,-344.7063 144.5778,-337.7613"/>
</g>
<!-- Node23 -->
<g id="node23" class="node">
<title>Node23</title>
<g id="a_node23"><a xlink:href="../../d7/df5/EICAnalysis_2macros_2leptoquarks__fun4all_2G4__FGEM__EIC_8C.html#ac44d1ef8dd3931eed6dd2ae0110ed8d1" target="_top" xlink:title="FGEMSetup">
<polygon fill="none" stroke="#000000" points="188.5,-302.5 188.5,-322.5 262.5,-322.5 262.5,-302.5 188.5,-302.5"/>
<text text-anchor="middle" x="225.5" y="-309.5" font-family="FreeSans" font-size="10.00" fill="#000000">FGEMSetup</text>
</a>
</g>
</g>
<!-- Node1&#45;&gt;Node23 -->
<g id="edge23" class="edge">
<title>Node1&#45;&gt;Node23</title>
<path fill="none" stroke="#191970" d="M144.2874,-322.2353C159.6686,-320.3915 175.1485,-318.5358 188.4076,-316.9464"/>
<polygon fill="#191970" stroke="#191970" points="143.7306,-318.7769 134.2183,-323.4423 144.5638,-325.7271 143.7306,-318.7769"/>
</g>
<!-- Node24 -->
<g id="node24" class="node">
<title>Node24</title>
<g id="a_node24"><a xlink:href="../../d8/d41/G4__EGEM__EIC_8C.html#ab02e3ec0ae447e560b3a9a6fc25d9243" target="_top" xlink:title="make_GEM_station">
<polygon fill="none" stroke="#000000" points="170,-263.5 170,-283.5 281,-283.5 281,-263.5 170,-263.5"/>
<text text-anchor="middle" x="225.5" y="-270.5" font-family="FreeSans" font-size="10.00" fill="#000000">make_GEM_station</text>
</a>
</g>
</g>
<!-- Node1&#45;&gt;Node24 -->
<g id="edge24" class="edge">
<title>Node1&#45;&gt;Node24</title>
<path fill="none" stroke="#191970" d="M133.8712,-305.8232C145.8752,-301.3158 158.29,-296.7201 170,-292.5 178.2398,-289.5305 187.2069,-286.4119 195.4827,-283.5795"/>
<polygon fill="#191970" stroke="#191970" points="132.4768,-302.6084 124.3537,-309.4103 134.9455,-309.1586 132.4768,-302.6084"/>
</g>
<!-- Node3 -->
<g id="node3" class="node">
<title>Node3</title>
<g id="a_node3"><a xlink:href="../../d2/dfe/macros_2blob_2master_2macros_2g4simulations_2G4Setup__EICDetector_8C.html#a5d4cb2d19366a2ae6d2aefe8d2e4a870" target="_top" xlink:title="G4Setup">
<polygon fill="none" stroke="#000000" points="317,-360.5 317,-380.5 377,-380.5 377,-360.5 317,-360.5"/>
<text text-anchor="middle" x="347" y="-367.5" font-family="FreeSans" font-size="10.00" fill="#000000">G4Setup</text>
</a>
</g>
</g>
<!-- Node2&#45;&gt;Node3 -->
<g id="edge2" class="edge">
<title>Node2&#45;&gt;Node3</title>
<path fill="none" stroke="#191970" d="M278.2617,-381.815C291.4255,-379.6481 305.0986,-377.3973 316.7504,-375.4794"/>
<polygon fill="#191970" stroke="#191970" points="277.6351,-378.3709 268.3364,-383.4487 278.7721,-385.278 277.6351,-378.3709"/>
</g>
<!-- Node4 -->
<g id="node4" class="node">
<title>Node4</title>
<g id="a_node4"><a xlink:href="../../d3/d7f/Fun_8C.html#af0d3c8a78765149fef9b2beeecfc6279" target="_top" xlink:title="ConfigureDetectors">
<polygon fill="none" stroke="#000000" points="439.5,-696.5 439.5,-716.5 553.5,-716.5 553.5,-696.5 439.5,-696.5"/>
<text text-anchor="middle" x="496.5" y="-703.5" font-family="FreeSans" font-size="10.00" fill="#000000">ConfigureDetectors</text>
</a>
</g>
</g>
<!-- Node3&#45;&gt;Node4 -->
<g id="edge3" class="edge">
<title>Node3&#45;&gt;Node4</title>
<path fill="none" stroke="#191970" d="M348.4577,-390.8418C353.3809,-453.7895 371.4621,-643.7315 413,-686.5 420.166,-693.8783 429.5352,-698.7322 439.3992,-701.8865"/>
<polygon fill="#191970" stroke="#191970" points="351.9298,-390.339 347.6889,-380.63 344.9496,-390.8646 351.9298,-390.339"/>
</g>
<!-- Node6 -->
<g id="node6" class="node">
<title>Node6</title>
<g id="a_node6"><a xlink:href="../../da/d02/Fun4All__G4__EICDetector_8C.html#afbe82cefa1d1fd031d9a8586b7bb68c6" target="_top" xlink:title="Fun4All_G4_EICDetector">
<polygon fill="none" stroke="#000000" points="427,-657.5 427,-677.5 566,-677.5 566,-657.5 427,-657.5"/>
<text text-anchor="middle" x="496.5" y="-664.5" font-family="FreeSans" font-size="10.00" fill="#000000">Fun4All_G4_EICDetector</text>
</a>
</g>
</g>
<!-- Node3&#45;&gt;Node6 -->
<g id="edge5" class="edge">
<title>Node3&#45;&gt;Node6</title>
<path fill="none" stroke="#191970" d="M349.0739,-390.5594C355.4048,-447.9046 376.317,-610.7735 413,-647.5 417.003,-651.5078 421.6575,-654.7664 426.6817,-657.41"/>
<polygon fill="#191970" stroke="#191970" points="352.5486,-390.1356 348.0018,-380.566 345.5886,-390.8823 352.5486,-390.1356"/>
</g>
<!-- Node7 -->
<g id="node7" class="node">
<title>Node7</title>
<g id="a_node7"><a xlink:href="../../dd/d2a/Fun4All__G4__EICDetector__LQ_8C.html#aaa01242fd6e77ca43a9d49a6d46008e4" target="_top" xlink:title="Fun4All_G4_EICDetector_LQ">
<polygon fill="none" stroke="#000000" points="418.5,-618.5 418.5,-638.5 574.5,-638.5 574.5,-618.5 418.5,-618.5"/>
<text text-anchor="middle" x="496.5" y="-625.5" font-family="FreeSans" font-size="10.00" fill="#000000">Fun4All_G4_EICDetector_LQ</text>
</a>
</g>
</g>
<!-- Node3&#45;&gt;Node7 -->
<g id="edge6" class="edge">
<title>Node3&#45;&gt;Node7</title>
<path fill="none" stroke="#191970" d="M349.8918,-390.4112C357.7691,-441.9372 381.1671,-577.7751 413,-608.5 417.183,-612.5374 422.0294,-615.8088 427.2399,-618.4539"/>
<polygon fill="#191970" stroke="#191970" points="353.3511,-389.8783 348.4113,-380.5056 346.428,-390.9131 353.3511,-389.8783"/>
</g>
<!-- Node8 -->
<g id="node8" class="node">
<title>Node8</title>
<g id="a_node8"><a xlink:href="../../d4/df5/Fun4All__G4__EICDetector__LQ__reference_8C.html#a2feefc472f17f90b3cbe74897d049f75" target="_top" xlink:title="Fun4All_G4_EICDetector\l_LQ_reference">
<polygon fill="none" stroke="#000000" points="427,-567.5 427,-599.5 566,-599.5 566,-567.5 427,-567.5"/>
<text text-anchor="start" x="435" y="-586.5" font-family="FreeSans" font-size="10.00" fill="#000000">Fun4All_G4_EICDetector</text>
<text text-anchor="middle" x="496.5" y="-574.5" font-family="FreeSans" font-size="10.00" fill="#000000">_LQ_reference</text>
</a>
</g>
</g>
<!-- Node3&#45;&gt;Node8 -->
<g id="edge7" class="edge">
<title>Node3&#45;&gt;Node8</title>
<path fill="none" stroke="#191970" d="M348.3789,-391.0457C352.0539,-429.2763 365.3615,-511.612 413,-557.5 417.046,-561.3973 421.6667,-564.7111 426.6114,-567.5288"/>
<polygon fill="#191970" stroke="#191970" points="351.8344,-390.3629 347.5203,-380.6861 344.8583,-390.9411 351.8344,-390.3629"/>
</g>
<!-- Node9 -->
<g id="node9" class="node">
<title>Node9</title>
<g id="a_node9"><a xlink:href="../../d3/d51/Fun4All__G4__EICDetector__RICH_8C.html#a5739502b0a7a1ba782c01069f77e933f" target="_top" xlink:title="Fun4All_G4_EICDetector_RICH">
<polygon fill="none" stroke="#000000" points="413,-528.5 413,-548.5 580,-548.5 580,-528.5 413,-528.5"/>
<text text-anchor="middle" x="496.5" y="-535.5" font-family="FreeSans" font-size="10.00" fill="#000000">Fun4All_G4_EICDetector_RICH</text>
</a>
</g>
</g>
<!-- Node3&#45;&gt;Node9 -->
<g id="edge8" class="edge">
<title>Node3&#45;&gt;Node9</title>
<path fill="none" stroke="#191970" d="M350.159,-390.5756C356.2957,-422.6481 372.9289,-485.2114 413,-518.5 417.8158,-522.5007 423.2989,-525.7269 429.1008,-528.3252"/>
<polygon fill="#191970" stroke="#191970" points="353.584,-389.8434 348.4049,-380.6008 346.6898,-391.0559 353.584,-389.8434"/>
</g>
<!-- Node10 -->
<g id="node10" class="node">
<title>Node10</title>
<g id="a_node10"><a xlink:href="../../d9/d0e/Fun4All__G4__EICIR_8C.html#ac3543d1dd4a0abed3987d40939ee3f87" target="_top" xlink:title="Fun4All_G4_EICIR">
<polygon fill="none" stroke="#000000" points="444.5,-489.5 444.5,-509.5 548.5,-509.5 548.5,-489.5 444.5,-489.5"/>
<text text-anchor="middle" x="496.5" y="-496.5" font-family="FreeSans" font-size="10.00" fill="#000000">Fun4All_G4_EICIR</text>
</a>
</g>
</g>
<!-- Node3&#45;&gt;Node10 -->
<g id="edge9" class="edge">
<title>Node3&#45;&gt;Node10</title>
<path fill="none" stroke="#191970" d="M353.5275,-390.2192C362.7613,-414.9659 382.047,-456.8978 413,-479.5 422.1494,-486.181 433.2255,-490.6578 444.2781,-493.6504"/>
<polygon fill="#191970" stroke="#191970" points="356.8192,-389.0294 350.1809,-380.7721 350.221,-391.3668 356.8192,-389.0294"/>
</g>
<!-- Node11 -->
<g id="node11" class="node">
<title>Node11</title>
<g id="a_node11"><a xlink:href="../../d7/d9e/Fun4All__G4__fsPHENIX_8C.html#af48911d394d2412e817583700f2bbee2" target="_top" xlink:title="Fun4All_G4_fsPHENIX">
<polygon fill="none" stroke="#000000" points="434.5,-450.5 434.5,-470.5 558.5,-470.5 558.5,-450.5 434.5,-450.5"/>
<text text-anchor="middle" x="496.5" y="-457.5" font-family="FreeSans" font-size="10.00" fill="#000000">Fun4All_G4_fsPHENIX</text>
</a>
</g>
</g>
<!-- Node3&#45;&gt;Node11 -->
<g id="edge10" class="edge">
<title>Node3&#45;&gt;Node11</title>
<path fill="none" stroke="#191970" d="M359.7208,-389.164C371.6361,-405.1974 390.8891,-427.6945 413,-440.5 420.0947,-444.6089 427.995,-447.8754 436.0274,-450.4718"/>
<polygon fill="#191970" stroke="#191970" points="362.253,-386.6882 353.5871,-380.5929 356.5605,-390.7619 362.253,-386.6882"/>
</g>
<!-- Node12 -->
<g id="node12" class="node">
<title>Node12</title>
<g id="a_node12"><a xlink:href="../../da/d2f/Fun4All__G4__fsPHENIX__FastSim_8C.html#a66fb850cae5fcaadda23b74a25ce4c9c" target="_top" xlink:title="Fun4All_G4_fsPHENIX\l_FastSim">
<polygon fill="none" stroke="#000000" points="434.5,-399.5 434.5,-431.5 558.5,-431.5 558.5,-399.5 434.5,-399.5"/>
<text text-anchor="start" x="442.5" y="-418.5" font-family="FreeSans" font-size="10.00" fill="#000000">Fun4All_G4_fsPHENIX</text>
<text text-anchor="middle" x="496.5" y="-406.5" font-family="FreeSans" font-size="10.00" fill="#000000">_FastSim</text>
</a>
</g>
</g>
<!-- Node3&#45;&gt;Node12 -->
<g id="edge11" class="edge">
<title>Node3&#45;&gt;Node12</title>
<path fill="none" stroke="#191970" d="M387.0215,-382.5466C404.302,-387.7481 424.7664,-393.9079 443.2985,-399.4862"/>
<polygon fill="#191970" stroke="#191970" points="387.838,-379.1373 377.2536,-379.6064 385.8203,-385.8402 387.838,-379.1373"/>
</g>
<!-- Node13 -->
<g id="node13" class="node">
<title>Node13</title>
<g id="a_node13"><a xlink:href="../../d0/da6/Fun4All__G4__fsPHENIX__pi0_8C.html#a023d91d47b678e5d7f1751834aa517c6" target="_top" xlink:title="Fun4All_G4_fsPHENIX_pi0">
<polygon fill="none" stroke="#000000" points="424,-360.5 424,-380.5 569,-380.5 569,-360.5 424,-360.5"/>
<text text-anchor="middle" x="496.5" y="-367.5" font-family="FreeSans" font-size="10.00" fill="#000000">Fun4All_G4_fsPHENIX_pi0</text>
</a>
</g>
</g>
<!-- Node3&#45;&gt;Node13 -->
<g id="edge12" class="edge">
<title>Node3&#45;&gt;Node13</title>
<path fill="none" stroke="#191970" d="M387.2574,-370.5C398.6119,-370.5 411.3264,-370.5 423.9568,-370.5"/>
<polygon fill="#191970" stroke="#191970" points="387.2536,-367.0001 377.2536,-370.5 387.2535,-374.0001 387.2536,-367.0001"/>
</g>
<!-- Node14 -->
<g id="node14" class="node">
<title>Node14</title>
<g id="a_node14"><a xlink:href="../../d5/d2c/macros_2blob_2master_2macros_2g4simulations_2Fun4All__G4__sPHENIX_8C.html#a6eaaa492d7023ec86c562dc63aa1e5a4" target="_top" xlink:title="Fun4All_G4_sPHENIX">
<polygon fill="none" stroke="#000000" points="436,-321.5 436,-341.5 557,-341.5 557,-321.5 436,-321.5"/>
<text text-anchor="middle" x="496.5" y="-328.5" font-family="FreeSans" font-size="10.00" fill="#000000">Fun4All_G4_sPHENIX</text>
</a>
</g>
</g>
<!-- Node3&#45;&gt;Node14 -->
<g id="edge13" class="edge">
<title>Node3&#45;&gt;Node14</title>
<path fill="none" stroke="#191970" d="M386.8989,-357.9156C395.4772,-355.3486 404.5151,-352.7479 413,-350.5 424.7844,-347.3779 437.5866,-344.3065 449.5454,-341.5736"/>
<polygon fill="#191970" stroke="#191970" points="385.6524,-354.6362 377.1005,-360.8904 387.686,-361.3343 385.6524,-354.6362"/>
</g>
<!-- Node15 -->
<g id="node15" class="node">
<title>Node15</title>
<g id="a_node15"><a xlink:href="../../d3/de2/Fun4All__G4__sPHENIX__AnaGenFit_8C.html#a9bf3f2f72ed69a17e2d0c1121d48013c" target="_top" xlink:title="Fun4All_G4_sPHENIX\l_AnaGenFit">
<polygon fill="none" stroke="#000000" points="436,-270.5 436,-302.5 557,-302.5 557,-270.5 436,-270.5"/>
<text text-anchor="start" x="444" y="-289.5" font-family="FreeSans" font-size="10.00" fill="#000000">Fun4All_G4_sPHENIX</text>
<text text-anchor="middle" x="496.5" y="-277.5" font-family="FreeSans" font-size="10.00" fill="#000000">_AnaGenFit</text>
</a>
</g>
</g>
<!-- Node3&#45;&gt;Node15 -->
<g id="edge14" class="edge">
<title>Node3&#45;&gt;Node15</title>
<path fill="none" stroke="#191970" d="M362.7303,-352.734C375.1939,-339.6473 393.6741,-322.3147 413,-311.5 420.1309,-307.5096 427.9687,-304.0903 435.898,-301.1786"/>
<polygon fill="#191970" stroke="#191970" points="360.0119,-350.5185 355.7936,-360.2374 365.152,-355.2704 360.0119,-350.5185"/>
</g>
<!-- Node16 -->
<g id="node16" class="node">
<title>Node16</title>
<g id="a_node16"><a xlink:href="../../da/dd0/Fun4All__G4__sPHENIX__photonjet_8C.html#a6f18519e216acc05399e562ea57ea77c" target="_top" xlink:title="Fun4All_G4_sPHENIX\l_photonjet">
<polygon fill="none" stroke="#000000" points="436,-219.5 436,-251.5 557,-251.5 557,-219.5 436,-219.5"/>
<text text-anchor="start" x="444" y="-238.5" font-family="FreeSans" font-size="10.00" fill="#000000">Fun4All_G4_sPHENIX</text>
<text text-anchor="middle" x="496.5" y="-226.5" font-family="FreeSans" font-size="10.00" fill="#000000">_photonjet</text>
</a>
</g>
</g>
<!-- Node3&#45;&gt;Node16 -->
<g id="edge15" class="edge">
<title>Node3&#45;&gt;Node16</title>
<path fill="none" stroke="#191970" d="M353.6801,-350.8716C363.076,-326.1865 382.5337,-284.1764 413,-260.5 419.8106,-255.2072 427.728,-251.032 435.9216,-247.7391"/>
<polygon fill="#191970" stroke="#191970" points="350.3849,-349.6921 350.2666,-360.2862 356.9657,-352.0781 350.3849,-349.6921"/>
</g>
<!-- Node17 -->
<g id="node17" class="node">
<title>Node17</title>
<g id="a_node17"><a xlink:href="../../da/d85/Fun4All__G4__sPHENIX__photons_8C.html#a02fbbd59878fe1299f58ed187e7214ba" target="_top" xlink:title="Fun4All_G4_sPHENIX\l_photons">
<polygon fill="none" stroke="#000000" points="436,-168.5 436,-200.5 557,-200.5 557,-168.5 436,-168.5"/>
<text text-anchor="start" x="444" y="-187.5" font-family="FreeSans" font-size="10.00" fill="#000000">Fun4All_G4_sPHENIX</text>
<text text-anchor="middle" x="496.5" y="-175.5" font-family="FreeSans" font-size="10.00" fill="#000000">_photons</text>
</a>
</g>
</g>
<!-- Node3&#45;&gt;Node17 -->
<g id="edge16" class="edge">
<title>Node3&#45;&gt;Node17</title>
<path fill="none" stroke="#191970" d="M349.6091,-350.4063C355.0891,-316.4243 370.9709,-247.5944 413,-209.5 419.503,-203.6058 427.3455,-199.0991 435.5866,-195.6538"/>
<polygon fill="#191970" stroke="#191970" points="346.117,-350.0974 348.1266,-360.4999 353.0427,-351.1146 346.117,-350.0974"/>
</g>
<!-- Node18 -->
<g id="node18" class="node">
<title>Node18</title>
<g id="a_node18"><a xlink:href="../../de/d55/Fun4All__G4__sPHENIX__truthphotonjet_8C.html#a48a6f4503eaa1b3793d8ae572aa795b9" target="_top" xlink:title="Fun4All_G4_sPHENIX\l_truthphotonjet">
<polygon fill="none" stroke="#000000" points="436,-117.5 436,-149.5 557,-149.5 557,-117.5 436,-117.5"/>
<text text-anchor="start" x="444" y="-136.5" font-family="FreeSans" font-size="10.00" fill="#000000">Fun4All_G4_sPHENIX</text>
<text text-anchor="middle" x="496.5" y="-124.5" font-family="FreeSans" font-size="10.00" fill="#000000">_truthphotonjet</text>
</a>
</g>
</g>
<!-- Node3&#45;&gt;Node18 -->
<g id="edge17" class="edge">
<title>Node3&#45;&gt;Node18</title>
<path fill="none" stroke="#191970" d="M350.7732,-350.3624C360.0444,-302.9055 385.218,-185.9807 413,-158.5 419.455,-152.115 427.471,-147.3497 435.9617,-143.7955"/>
<polygon fill="#191970" stroke="#191970" points="347.3031,-349.8745 348.8569,-360.3548 354.1778,-351.193 347.3031,-349.8745"/>
</g>
<!-- Node19 -->
<g id="node19" class="node">
<title>Node19</title>
<g id="a_node19"><a xlink:href="../../d4/d65/Fun4All__single__particle_8C.html#a8a492b5dbead494bfdddbebde8a49b0e" target="_top" xlink:title="Fun4All_single_particle">
<polygon fill="none" stroke="#000000" points="430.5,-78.5 430.5,-98.5 562.5,-98.5 562.5,-78.5 430.5,-78.5"/>
<text text-anchor="middle" x="496.5" y="-85.5" font-family="FreeSans" font-size="10.00" fill="#000000">Fun4All_single_particle</text>
</a>
</g>
</g>
<!-- Node3&#45;&gt;Node19 -->
<g id="edge18" class="edge">
<title>Node3&#45;&gt;Node19</title>
<path fill="none" stroke="#191970" d="M349.3374,-350.3423C356.174,-294.8774 377.8945,-141.8368 413,-107.5 417.9953,-102.6141 423.9709,-98.8818 430.3985,-96.0442"/>
<polygon fill="#191970" stroke="#191970" points="345.8534,-349.9998 348.1368,-360.3457 352.8036,-350.834 345.8534,-349.9998"/>
</g>
<!-- Node20 -->
<g id="node20" class="node">
<title>Node20</title>
<g id="a_node20"><a xlink:href="../../d0/d99/Jin__BJet_8C.html#a36169bfee2ed7efda633944d12aebad9" target="_top" xlink:title="Jin_BJet">
<polygon fill="none" stroke="#000000" points="469,-39.5 469,-59.5 524,-59.5 524,-39.5 469,-39.5"/>
<text text-anchor="middle" x="496.5" y="-46.5" font-family="FreeSans" font-size="10.00" fill="#000000">Jin_BJet</text>
</a>
</g>
</g>
<!-- Node3&#45;&gt;Node20 -->
<g id="edge19" class="edge">
<title>Node3&#45;&gt;Node20</title>
<path fill="none" stroke="#191970" d="M348.6409,-350.2505C353.997,-289.2346 372.9758,-108.8688 413,-68.5 427.4451,-53.9305 450.5807,-49.5476 468.8398,-48.6025"/>
<polygon fill="#191970" stroke="#191970" points="345.1301,-350.2312 347.7731,-360.4911 352.1051,-350.8224 345.1301,-350.2312"/>
</g>
<!-- Node21 -->
<g id="node21" class="node">
<title>Node21</title>
<g id="a_node21"><a xlink:href="../../dd/db1/Wrapper_8cxx.html#abf1e42281903daa0752c80dd6c879fac" target="_top" xlink:title="Wrapper">
<polygon fill="none" stroke="#000000" points="466.5,-.5 466.5,-20.5 526.5,-20.5 526.5,-.5 466.5,-.5"/>
<text text-anchor="middle" x="496.5" y="-7.5" font-family="FreeSans" font-size="10.00" fill="#000000">Wrapper</text>
</a>
</g>
</g>
<!-- Node3&#45;&gt;Node21 -->
<g id="edge20" class="edge">
<title>Node3&#45;&gt;Node21</title>
<path fill="none" stroke="#191970" d="M348.0901,-350.2645C352.068,-284.1352 368.0024,-75.9867 413,-29.5 426.649,-15.3993 448.4225,-10.7885 466.3133,-9.63"/>
<polygon fill="#191970" stroke="#191970" points="344.5954,-350.0726 347.5164,-360.2568 351.5839,-350.4739 344.5954,-350.0726"/>
</g>
<!-- Node5 -->
<g id="node5" class="node">
<title>Node5</title>
<g id="a_node5"><a xlink:href="../../d3/d7f/Fun_8C.html#af69a3eef3ff244bb51f5740c6ecb5432" target="_top" xlink:title="Fun">
<polygon fill="none" stroke="#000000" points="616,-696.5 616,-716.5 650,-716.5 650,-696.5 616,-696.5"/>
<text text-anchor="middle" x="633" y="-703.5" font-family="FreeSans" font-size="10.00" fill="#000000">Fun</text>
</a>
</g>
</g>
<!-- Node4&#45;&gt;Node5 -->
<g id="edge4" class="edge">
<title>Node4&#45;&gt;Node5</title>
<path fill="none" stroke="#191970" d="M563.6941,-706.5C583.0852,-706.5 602.59,-706.5 615.9452,-706.5"/>
<polygon fill="#191970" stroke="#191970" points="563.5974,-703.0001 553.5974,-706.5 563.5974,-710.0001 563.5974,-703.0001"/>
</g>
<!-- Node22&#45;&gt;Node3 -->
<g id="edge22" class="edge">
<title>Node22&#45;&gt;Node3</title>
<path fill="none" stroke="#191970" d="M270.5407,-358.5434C285.9918,-360.9596 302.8985,-363.6035 316.8761,-365.7893"/>
<polygon fill="#191970" stroke="#191970" points="271.0635,-355.0827 260.6428,-356.9956 269.982,-361.9987 271.0635,-355.0827"/>
</g>
</g>
</svg>
