<?xml version="1.0" encoding="UTF-8" standalone="no"?>
<!DOCTYPE svg PUBLIC "-//W3C//DTD SVG 1.1//EN"
 "http://www.w3.org/Graphics/SVG/1.1/DTD/svg11.dtd">
<!-- Generated by graphviz version 2.40.1 (20161225.0304)
 -->
<!-- Title: PHG4Sector::Sector_Geometry::set_min_polar_edge Pages: 1 -->
<svg width="703pt" height="725pt"
 viewBox="0.00 0.00 703.00 725.00" xmlns="http://www.w3.org/2000/svg" xmlns:xlink="http://www.w3.org/1999/xlink">
<g id="graph0" class="graph" transform="scale(1 1) rotate(0) translate(4 721)">
<title>PHG4Sector::Sector_Geometry::set_min_polar_edge</title>
<!-- Node1 -->
<g id="node1" class="node">
<title>Node1</title>
<polygon fill="#bfbfbf" stroke="#000000" points="0,-315.5 0,-347.5 179,-347.5 179,-315.5 0,-315.5"/>
<text text-anchor="start" x="8" y="-334.5" font-family="FreeSans" font-size="10.00" fill="#000000">PHG4Sector::Sector</text>
<text text-anchor="middle" x="89.5" y="-322.5" font-family="FreeSans" font-size="10.00" fill="#000000">_Geometry::set_min_polar_edge</text>
</g>
<!-- Node2 -->
<g id="node2" class="node">
<title>Node2</title>
<g id="a_node2"><a xlink:href="../../d4/dbc/macros_2blob_2master_2macros_2g4simulations_2G4__Aerogel_8C.html#a400136ba4928234f7c9990b4065328f1" target="_top" xlink:title="AerogelSetup">
<polygon fill="none" stroke="#000000" points="228,-380.5 228,-400.5 313,-400.5 313,-380.5 228,-380.5"/>
<text text-anchor="middle" x="270.5" y="-387.5" font-family="FreeSans" font-size="10.00" fill="#000000">AerogelSetup</text>
</a>
</g>
</g>
<!-- Node1&#45;&gt;Node2 -->
<g id="edge1" class="edge">
<title>Node1&#45;&gt;Node2</title>
<path fill="none" stroke="#191970" d="M148.6032,-350.7657C178.9524,-360.6585 214.6788,-372.3041 239.5778,-380.4204"/>
<polygon fill="#191970" stroke="#191970" points="149.5514,-347.3936 138.959,-347.622 147.382,-354.0489 149.5514,-347.3936"/>
</g>
<!-- Node22 -->
<g id="node22" class="node">
<title>Node22</title>
<g id="a_node22"><a xlink:href="../../d3/dc0/macros_2blob_2master_2macros_2g4simulations_2G4__DIRC_8C.html#acbdf429e4e41a2057e053691cc0b4128" target="_top" xlink:title="DIRCSetup">
<polygon fill="none" stroke="#000000" points="235.5,-341.5 235.5,-361.5 305.5,-361.5 305.5,-341.5 235.5,-341.5"/>
<text text-anchor="middle" x="270.5" y="-348.5" font-family="FreeSans" font-size="10.00" fill="#000000">DIRCSetup</text>
</a>
</g>
</g>
<!-- Node1&#45;&gt;Node22 -->
<g id="edge21" class="edge">
<title>Node1&#45;&gt;Node22</title>
<path fill="none" stroke="#191970" d="M189.4568,-342.5449C205.8669,-344.3582 221.8576,-346.1251 235.239,-347.6038"/>
<polygon fill="#191970" stroke="#191970" points="189.5285,-339.0317 179.2046,-341.4121 188.7597,-345.9893 189.5285,-339.0317"/>
</g>
<!-- Node23 -->
<g id="node23" class="node">
<title>Node23</title>
<g id="a_node23"><a xlink:href="../../d7/df5/EICAnalysis_2macros_2leptoquarks__fun4all_2G4__FGEM__EIC_8C.html#ac44d1ef8dd3931eed6dd2ae0110ed8d1" target="_top" xlink:title="FGEMSetup">
<polygon fill="none" stroke="#000000" points="233.5,-302.5 233.5,-322.5 307.5,-322.5 307.5,-302.5 233.5,-302.5"/>
<text text-anchor="middle" x="270.5" y="-309.5" font-family="FreeSans" font-size="10.00" fill="#000000">FGEMSetup</text>
</a>
</g>
</g>
<!-- Node1&#45;&gt;Node23 -->
<g id="edge23" class="edge">
<title>Node1&#45;&gt;Node23</title>
<path fill="none" stroke="#191970" d="M189.5397,-320.9986C205.2131,-319.3533 220.5005,-317.7486 233.4933,-316.3847"/>
<polygon fill="#191970" stroke="#191970" points="188.7845,-317.5585 179.2046,-322.0835 189.5154,-324.5203 188.7845,-317.5585"/>
</g>
<!-- Node24 -->
<g id="node24" class="node">
<title>Node24</title>
<g id="a_node24"><a xlink:href="../../d7/df5/EICAnalysis_2macros_2leptoquarks__fun4all_2G4__FGEM__EIC_8C.html#a75ea364f15ac3286c935ec8dc4cc2830" target="_top" xlink:title="make_GEM_station">
<polygon fill="none" stroke="#000000" points="215,-263.5 215,-283.5 326,-283.5 326,-263.5 215,-263.5"/>
<text text-anchor="middle" x="270.5" y="-270.5" font-family="FreeSans" font-size="10.00" fill="#000000">make_GEM_station</text>
</a>
</g>
</g>
<!-- Node1&#45;&gt;Node24 -->
<g id="edge24" class="edge">
<title>Node1&#45;&gt;Node24</title>
<path fill="none" stroke="#191970" d="M149.011,-312.4302C179.1201,-302.782 214.4339,-291.4659 239.2038,-283.5286"/>
<polygon fill="#191970" stroke="#191970" points="147.8931,-309.113 139.4382,-315.4977 150.0293,-315.7791 147.8931,-309.113"/>
</g>
<!-- Node3 -->
<g id="node3" class="node">
<title>Node3</title>
<g id="a_node3"><a xlink:href="../../d2/dfe/macros_2blob_2master_2macros_2g4simulations_2G4Setup__EICDetector_8C.html#a5d4cb2d19366a2ae6d2aefe8d2e4a870" target="_top" xlink:title="G4Setup">
<polygon fill="none" stroke="#000000" points="362,-360.5 362,-380.5 422,-380.5 422,-360.5 362,-360.5"/>
<text text-anchor="middle" x="392" y="-367.5" font-family="FreeSans" font-size="10.00" fill="#000000">G4Setup</text>
</a>
</g>
</g>
<!-- Node2&#45;&gt;Node3 -->
<g id="edge2" class="edge">
<title>Node2&#45;&gt;Node3</title>
<path fill="none" stroke="#191970" d="M323.2617,-381.815C336.4255,-379.6481 350.0986,-377.3973 361.7504,-375.4794"/>
<polygon fill="#191970" stroke="#191970" points="322.6351,-378.3709 313.3364,-383.4487 323.7721,-385.278 322.6351,-378.3709"/>
</g>
<!-- Node4 -->
<g id="node4" class="node">
<title>Node4</title>
<g id="a_node4"><a xlink:href="../../d3/d7f/Fun_8C.html#af0d3c8a78765149fef9b2beeecfc6279" target="_top" xlink:title="ConfigureDetectors">
<polygon fill="none" stroke="#000000" points="484.5,-696.5 484.5,-716.5 598.5,-716.5 598.5,-696.5 484.5,-696.5"/>
<text text-anchor="middle" x="541.5" y="-703.5" font-family="FreeSans" font-size="10.00" fill="#000000">ConfigureDetectors</text>
</a>
</g>
</g>
<!-- Node3&#45;&gt;Node4 -->
<g id="edge3" class="edge">
<title>Node3&#45;&gt;Node4</title>
<path fill="none" stroke="#191970" d="M393.4577,-390.8418C398.3809,-453.7895 416.4621,-643.7315 458,-686.5 465.166,-693.8783 474.5352,-698.7322 484.3992,-701.8865"/>
<polygon fill="#191970" stroke="#191970" points="396.9298,-390.339 392.6889,-380.63 389.9496,-390.8646 396.9298,-390.339"/>
</g>
<!-- Node6 -->
<g id="node6" class="node">
<title>Node6</title>
<g id="a_node6"><a xlink:href="../../da/d02/Fun4All__G4__EICDetector_8C.html#afbe82cefa1d1fd031d9a8586b7bb68c6" target="_top" xlink:title="Fun4All_G4_EICDetector">
<polygon fill="none" stroke="#000000" points="472,-657.5 472,-677.5 611,-677.5 611,-657.5 472,-657.5"/>
<text text-anchor="middle" x="541.5" y="-664.5" font-family="FreeSans" font-size="10.00" fill="#000000">Fun4All_G4_EICDetector</text>
</a>
</g>
</g>
<!-- Node3&#45;&gt;Node6 -->
<g id="edge5" class="edge">
<title>Node3&#45;&gt;Node6</title>
<path fill="none" stroke="#191970" d="M394.0739,-390.5594C400.4048,-447.9046 421.317,-610.7735 458,-647.5 462.003,-651.5078 466.6575,-654.7664 471.6817,-657.41"/>
<polygon fill="#191970" stroke="#191970" points="397.5486,-390.1356 393.0018,-380.566 390.5886,-390.8823 397.5486,-390.1356"/>
</g>
<!-- Node7 -->
<g id="node7" class="node">
<title>Node7</title>
<g id="a_node7"><a xlink:href="../../dd/d2a/Fun4All__G4__EICDetector__LQ_8C.html#aaa01242fd6e77ca43a9d49a6d46008e4" target="_top" xlink:title="Fun4All_G4_EICDetector_LQ">
<polygon fill="none" stroke="#000000" points="463.5,-618.5 463.5,-638.5 619.5,-638.5 619.5,-618.5 463.5,-618.5"/>
<text text-anchor="middle" x="541.5" y="-625.5" font-family="FreeSans" font-size="10.00" fill="#000000">Fun4All_G4_EICDetector_LQ</text>
</a>
</g>
</g>
<!-- Node3&#45;&gt;Node7 -->
<g id="edge6" class="edge">
<title>Node3&#45;&gt;Node7</title>
<path fill="none" stroke="#191970" d="M394.8918,-390.4112C402.7691,-441.9372 426.1671,-577.7751 458,-608.5 462.183,-612.5374 467.0294,-615.8088 472.2399,-618.4539"/>
<polygon fill="#191970" stroke="#191970" points="398.3511,-389.8783 393.4113,-380.5056 391.428,-390.9131 398.3511,-389.8783"/>
</g>
<!-- Node8 -->
<g id="node8" class="node">
<title>Node8</title>
<g id="a_node8"><a xlink:href="../../d4/df5/Fun4All__G4__EICDetector__LQ__reference_8C.html#a2feefc472f17f90b3cbe74897d049f75" target="_top" xlink:title="Fun4All_G4_EICDetector\l_LQ_reference">
<polygon fill="none" stroke="#000000" points="472,-567.5 472,-599.5 611,-599.5 611,-567.5 472,-567.5"/>
<text text-anchor="start" x="480" y="-586.5" font-family="FreeSans" font-size="10.00" fill="#000000">Fun4All_G4_EICDetector</text>
<text text-anchor="middle" x="541.5" y="-574.5" font-family="FreeSans" font-size="10.00" fill="#000000">_LQ_reference</text>
</a>
</g>
</g>
<!-- Node3&#45;&gt;Node8 -->
<g id="edge7" class="edge">
<title>Node3&#45;&gt;Node8</title>
<path fill="none" stroke="#191970" d="M393.3789,-391.0457C397.0539,-429.2763 410.3615,-511.612 458,-557.5 462.046,-561.3973 466.6667,-564.7111 471.6114,-567.5288"/>
<polygon fill="#191970" stroke="#191970" points="396.8344,-390.3629 392.5203,-380.6861 389.8583,-390.9411 396.8344,-390.3629"/>
</g>
<!-- Node9 -->
<g id="node9" class="node">
<title>Node9</title>
<g id="a_node9"><a xlink:href="../../d3/d51/Fun4All__G4__EICDetector__RICH_8C.html#a5739502b0a7a1ba782c01069f77e933f" target="_top" xlink:title="Fun4All_G4_EICDetector_RICH">
<polygon fill="none" stroke="#000000" points="458,-528.5 458,-548.5 625,-548.5 625,-528.5 458,-528.5"/>
<text text-anchor="middle" x="541.5" y="-535.5" font-family="FreeSans" font-size="10.00" fill="#000000">Fun4All_G4_EICDetector_RICH</text>
</a>
</g>
</g>
<!-- Node3&#45;&gt;Node9 -->
<g id="edge8" class="edge">
<title>Node3&#45;&gt;Node9</title>
<path fill="none" stroke="#191970" d="M395.159,-390.5756C401.2957,-422.6481 417.9289,-485.2114 458,-518.5 462.8158,-522.5007 468.2989,-525.7269 474.1008,-528.3252"/>
<polygon fill="#191970" stroke="#191970" points="398.584,-389.8434 393.4049,-380.6008 391.6898,-391.0559 398.584,-389.8434"/>
</g>
<!-- Node10 -->
<g id="node10" class="node">
<title>Node10</title>
<g id="a_node10"><a xlink:href="../../d9/d0e/Fun4All__G4__EICIR_8C.html#ac3543d1dd4a0abed3987d40939ee3f87" target="_top" xlink:title="Fun4All_G4_EICIR">
<polygon fill="none" stroke="#000000" points="489.5,-489.5 489.5,-509.5 593.5,-509.5 593.5,-489.5 489.5,-489.5"/>
<text text-anchor="middle" x="541.5" y="-496.5" font-family="FreeSans" font-size="10.00" fill="#000000">Fun4All_G4_EICIR</text>
</a>
</g>
</g>
<!-- Node3&#45;&gt;Node10 -->
<g id="edge9" class="edge">
<title>Node3&#45;&gt;Node10</title>
<path fill="none" stroke="#191970" d="M398.5275,-390.2192C407.7613,-414.9659 427.047,-456.8978 458,-479.5 467.1494,-486.181 478.2255,-490.6578 489.2781,-493.6504"/>
<polygon fill="#191970" stroke="#191970" points="401.8192,-389.0294 395.1809,-380.7721 395.221,-391.3668 401.8192,-389.0294"/>
</g>
<!-- Node11 -->
<g id="node11" class="node">
<title>Node11</title>
<g id="a_node11"><a xlink:href="../../d7/d9e/Fun4All__G4__fsPHENIX_8C.html#af48911d394d2412e817583700f2bbee2" target="_top" xlink:title="Fun4All_G4_fsPHENIX">
<polygon fill="none" stroke="#000000" points="479.5,-450.5 479.5,-470.5 603.5,-470.5 603.5,-450.5 479.5,-450.5"/>
<text text-anchor="middle" x="541.5" y="-457.5" font-family="FreeSans" font-size="10.00" fill="#000000">Fun4All_G4_fsPHENIX</text>
</a>
</g>
</g>
<!-- Node3&#45;&gt;Node11 -->
<g id="edge10" class="edge">
<title>Node3&#45;&gt;Node11</title>
<path fill="none" stroke="#191970" d="M404.7208,-389.164C416.6361,-405.1974 435.8891,-427.6945 458,-440.5 465.0947,-444.6089 472.995,-447.8754 481.0274,-450.4718"/>
<polygon fill="#191970" stroke="#191970" points="407.253,-386.6882 398.5871,-380.5929 401.5605,-390.7619 407.253,-386.6882"/>
</g>
<!-- Node12 -->
<g id="node12" class="node">
<title>Node12</title>
<g id="a_node12"><a xlink:href="../../da/d2f/Fun4All__G4__fsPHENIX__FastSim_8C.html#a66fb850cae5fcaadda23b74a25ce4c9c" target="_top" xlink:title="Fun4All_G4_fsPHENIX\l_FastSim">
<polygon fill="none" stroke="#000000" points="479.5,-399.5 479.5,-431.5 603.5,-431.5 603.5,-399.5 479.5,-399.5"/>
<text text-anchor="start" x="487.5" y="-418.5" font-family="FreeSans" font-size="10.00" fill="#000000">Fun4All_G4_fsPHENIX</text>
<text text-anchor="middle" x="541.5" y="-406.5" font-family="FreeSans" font-size="10.00" fill="#000000">_FastSim</text>
</a>
</g>
</g>
<!-- Node3&#45;&gt;Node12 -->
<g id="edge11" class="edge">
<title>Node3&#45;&gt;Node12</title>
<path fill="none" stroke="#191970" d="M432.0215,-382.5466C449.302,-387.7481 469.7664,-393.9079 488.2985,-399.4862"/>
<polygon fill="#191970" stroke="#191970" points="432.838,-379.1373 422.2536,-379.6064 430.8203,-385.8402 432.838,-379.1373"/>
</g>
<!-- Node13 -->
<g id="node13" class="node">
<title>Node13</title>
<g id="a_node13"><a xlink:href="../../d0/da6/Fun4All__G4__fsPHENIX__pi0_8C.html#a023d91d47b678e5d7f1751834aa517c6" target="_top" xlink:title="Fun4All_G4_fsPHENIX_pi0">
<polygon fill="none" stroke="#000000" points="469,-360.5 469,-380.5 614,-380.5 614,-360.5 469,-360.5"/>
<text text-anchor="middle" x="541.5" y="-367.5" font-family="FreeSans" font-size="10.00" fill="#000000">Fun4All_G4_fsPHENIX_pi0</text>
</a>
</g>
</g>
<!-- Node3&#45;&gt;Node13 -->
<g id="edge12" class="edge">
<title>Node3&#45;&gt;Node13</title>
<path fill="none" stroke="#191970" d="M432.2574,-370.5C443.6119,-370.5 456.3264,-370.5 468.9568,-370.5"/>
<polygon fill="#191970" stroke="#191970" points="432.2536,-367.0001 422.2536,-370.5 432.2535,-374.0001 432.2536,-367.0001"/>
</g>
<!-- Node14 -->
<g id="node14" class="node">
<title>Node14</title>
<g id="a_node14"><a xlink:href="../../d5/d2c/macros_2blob_2master_2macros_2g4simulations_2Fun4All__G4__sPHENIX_8C.html#a6eaaa492d7023ec86c562dc63aa1e5a4" target="_top" xlink:title="Fun4All_G4_sPHENIX">
<polygon fill="none" stroke="#000000" points="481,-321.5 481,-341.5 602,-341.5 602,-321.5 481,-321.5"/>
<text text-anchor="middle" x="541.5" y="-328.5" font-family="FreeSans" font-size="10.00" fill="#000000">Fun4All_G4_sPHENIX</text>
</a>
</g>
</g>
<!-- Node3&#45;&gt;Node14 -->
<g id="edge13" class="edge">
<title>Node3&#45;&gt;Node14</title>
<path fill="none" stroke="#191970" d="M431.8989,-357.9156C440.4772,-355.3486 449.5151,-352.7479 458,-350.5 469.7844,-347.3779 482.5866,-344.3065 494.5454,-341.5736"/>
<polygon fill="#191970" stroke="#191970" points="430.6524,-354.6362 422.1005,-360.8904 432.686,-361.3343 430.6524,-354.6362"/>
</g>
<!-- Node15 -->
<g id="node15" class="node">
<title>Node15</title>
<g id="a_node15"><a xlink:href="../../d3/de2/Fun4All__G4__sPHENIX__AnaGenFit_8C.html#a9bf3f2f72ed69a17e2d0c1121d48013c" target="_top" xlink:title="Fun4All_G4_sPHENIX\l_AnaGenFit">
<polygon fill="none" stroke="#000000" points="481,-270.5 481,-302.5 602,-302.5 602,-270.5 481,-270.5"/>
<text text-anchor="start" x="489" y="-289.5" font-family="FreeSans" font-size="10.00" fill="#000000">Fun4All_G4_sPHENIX</text>
<text text-anchor="middle" x="541.5" y="-277.5" font-family="FreeSans" font-size="10.00" fill="#000000">_AnaGenFit</text>
</a>
</g>
</g>
<!-- Node3&#45;&gt;Node15 -->
<g id="edge14" class="edge">
<title>Node3&#45;&gt;Node15</title>
<path fill="none" stroke="#191970" d="M407.7303,-352.734C420.1939,-339.6473 438.6741,-322.3147 458,-311.5 465.1309,-307.5096 472.9687,-304.0903 480.898,-301.1786"/>
<polygon fill="#191970" stroke="#191970" points="405.0119,-350.5185 400.7936,-360.2374 410.152,-355.2704 405.0119,-350.5185"/>
</g>
<!-- Node16 -->
<g id="node16" class="node">
<title>Node16</title>
<g id="a_node16"><a xlink:href="../../da/dd0/Fun4All__G4__sPHENIX__photonjet_8C.html#a6f18519e216acc05399e562ea57ea77c" target="_top" xlink:title="Fun4All_G4_sPHENIX\l_photonjet">
<polygon fill="none" stroke="#000000" points="481,-219.5 481,-251.5 602,-251.5 602,-219.5 481,-219.5"/>
<text text-anchor="start" x="489" y="-238.5" font-family="FreeSans" font-size="10.00" fill="#000000">Fun4All_G4_sPHENIX</text>
<text text-anchor="middle" x="541.5" y="-226.5" font-family="FreeSans" font-size="10.00" fill="#000000">_photonjet</text>
</a>
</g>
</g>
<!-- Node3&#45;&gt;Node16 -->
<g id="edge15" class="edge">
<title>Node3&#45;&gt;Node16</title>
<path fill="none" stroke="#191970" d="M398.6801,-350.8716C408.076,-326.1865 427.5337,-284.1764 458,-260.5 464.8106,-255.2072 472.728,-251.032 480.9216,-247.7391"/>
<polygon fill="#191970" stroke="#191970" points="395.3849,-349.6921 395.2666,-360.2862 401.9657,-352.0781 395.3849,-349.6921"/>
</g>
<!-- Node17 -->
<g id="node17" class="node">
<title>Node17</title>
<g id="a_node17"><a xlink:href="../../da/d85/Fun4All__G4__sPHENIX__photons_8C.html#a02fbbd59878fe1299f58ed187e7214ba" target="_top" xlink:title="Fun4All_G4_sPHENIX\l_photons">
<polygon fill="none" stroke="#000000" points="481,-168.5 481,-200.5 602,-200.5 602,-168.5 481,-168.5"/>
<text text-anchor="start" x="489" y="-187.5" font-family="FreeSans" font-size="10.00" fill="#000000">Fun4All_G4_sPHENIX</text>
<text text-anchor="middle" x="541.5" y="-175.5" font-family="FreeSans" font-size="10.00" fill="#000000">_photons</text>
</a>
</g>
</g>
<!-- Node3&#45;&gt;Node17 -->
<g id="edge16" class="edge">
<title>Node3&#45;&gt;Node17</title>
<path fill="none" stroke="#191970" d="M394.6091,-350.4063C400.0891,-316.4243 415.9709,-247.5944 458,-209.5 464.503,-203.6058 472.3455,-199.0991 480.5866,-195.6538"/>
<polygon fill="#191970" stroke="#191970" points="391.117,-350.0974 393.1266,-360.4999 398.0427,-351.1146 391.117,-350.0974"/>
</g>
<!-- Node18 -->
<g id="node18" class="node">
<title>Node18</title>
<g id="a_node18"><a xlink:href="../../de/d55/Fun4All__G4__sPHENIX__truthphotonjet_8C.html#a48a6f4503eaa1b3793d8ae572aa795b9" target="_top" xlink:title="Fun4All_G4_sPHENIX\l_truthphotonjet">
<polygon fill="none" stroke="#000000" points="481,-117.5 481,-149.5 602,-149.5 602,-117.5 481,-117.5"/>
<text text-anchor="start" x="489" y="-136.5" font-family="FreeSans" font-size="10.00" fill="#000000">Fun4All_G4_sPHENIX</text>
<text text-anchor="middle" x="541.5" y="-124.5" font-family="FreeSans" font-size="10.00" fill="#000000">_truthphotonjet</text>
</a>
</g>
</g>
<!-- Node3&#45;&gt;Node18 -->
<g id="edge17" class="edge">
<title>Node3&#45;&gt;Node18</title>
<path fill="none" stroke="#191970" d="M395.7732,-350.3624C405.0444,-302.9055 430.218,-185.9807 458,-158.5 464.455,-152.115 472.471,-147.3497 480.9617,-143.7955"/>
<polygon fill="#191970" stroke="#191970" points="392.3031,-349.8745 393.8569,-360.3548 399.1778,-351.193 392.3031,-349.8745"/>
</g>
<!-- Node19 -->
<g id="node19" class="node">
<title>Node19</title>
<g id="a_node19"><a xlink:href="../../d4/d65/Fun4All__single__particle_8C.html#a8a492b5dbead494bfdddbebde8a49b0e" target="_top" xlink:title="Fun4All_single_particle">
<polygon fill="none" stroke="#000000" points="475.5,-78.5 475.5,-98.5 607.5,-98.5 607.5,-78.5 475.5,-78.5"/>
<text text-anchor="middle" x="541.5" y="-85.5" font-family="FreeSans" font-size="10.00" fill="#000000">Fun4All_single_particle</text>
</a>
</g>
</g>
<!-- Node3&#45;&gt;Node19 -->
<g id="edge18" class="edge">
<title>Node3&#45;&gt;Node19</title>
<path fill="none" stroke="#191970" d="M394.3374,-350.3423C401.174,-294.8774 422.8945,-141.8368 458,-107.5 462.9953,-102.6141 468.9709,-98.8818 475.3985,-96.0442"/>
<polygon fill="#191970" stroke="#191970" points="390.8534,-349.9998 393.1368,-360.3457 397.8036,-350.834 390.8534,-349.9998"/>
</g>
<!-- Node20 -->
<g id="node20" class="node">
<title>Node20</title>
<g id="a_node20"><a xlink:href="../../d0/d99/Jin__BJet_8C.html#a36169bfee2ed7efda633944d12aebad9" target="_top" xlink:title="Jin_BJet">
<polygon fill="none" stroke="#000000" points="514,-39.5 514,-59.5 569,-59.5 569,-39.5 514,-39.5"/>
<text text-anchor="middle" x="541.5" y="-46.5" font-family="FreeSans" font-size="10.00" fill="#000000">Jin_BJet</text>
</a>
</g>
</g>
<!-- Node3&#45;&gt;Node20 -->
<g id="edge19" class="edge">
<title>Node3&#45;&gt;Node20</title>
<path fill="none" stroke="#191970" d="M393.6409,-350.2505C398.997,-289.2346 417.9758,-108.8688 458,-68.5 472.4451,-53.9305 495.5807,-49.5476 513.8398,-48.6025"/>
<polygon fill="#191970" stroke="#191970" points="390.1301,-350.2312 392.7731,-360.4911 397.1051,-350.8224 390.1301,-350.2312"/>
</g>
<!-- Node21 -->
<g id="node21" class="node">
<title>Node21</title>
<g id="a_node21"><a xlink:href="../../dd/db1/Wrapper_8cxx.html#abf1e42281903daa0752c80dd6c879fac" target="_top" xlink:title="Wrapper">
<polygon fill="none" stroke="#000000" points="511.5,-.5 511.5,-20.5 571.5,-20.5 571.5,-.5 511.5,-.5"/>
<text text-anchor="middle" x="541.5" y="-7.5" font-family="FreeSans" font-size="10.00" fill="#000000">Wrapper</text>
</a>
</g>
</g>
<!-- Node3&#45;&gt;Node21 -->
<g id="edge20" class="edge">
<title>Node3&#45;&gt;Node21</title>
<path fill="none" stroke="#191970" d="M393.0901,-350.2645C397.068,-284.1352 413.0024,-75.9867 458,-29.5 471.649,-15.3993 493.4225,-10.7885 511.3133,-9.63"/>
<polygon fill="#191970" stroke="#191970" points="389.5954,-350.0726 392.5164,-360.2568 396.5839,-350.4739 389.5954,-350.0726"/>
</g>
<!-- Node5 -->
<g id="node5" class="node">
<title>Node5</title>
<g id="a_node5"><a xlink:href="../../d3/d7f/Fun_8C.html#af69a3eef3ff244bb51f5740c6ecb5432" target="_top" xlink:title="Fun">
<polygon fill="none" stroke="#000000" points="661,-696.5 661,-716.5 695,-716.5 695,-696.5 661,-696.5"/>
<text text-anchor="middle" x="678" y="-703.5" font-family="FreeSans" font-size="10.00" fill="#000000">Fun</text>
</a>
</g>
</g>
<!-- Node4&#45;&gt;Node5 -->
<g id="edge4" class="edge">
<title>Node4&#45;&gt;Node5</title>
<path fill="none" stroke="#191970" d="M608.6941,-706.5C628.0852,-706.5 647.59,-706.5 660.9452,-706.5"/>
<polygon fill="#191970" stroke="#191970" points="608.5974,-703.0001 598.5974,-706.5 608.5974,-710.0001 608.5974,-703.0001"/>
</g>
<!-- Node22&#45;&gt;Node3 -->
<g id="edge22" class="edge">
<title>Node22&#45;&gt;Node3</title>
<path fill="none" stroke="#191970" d="M315.5407,-358.5434C330.9918,-360.9596 347.8985,-363.6035 361.8761,-365.7893"/>
<polygon fill="#191970" stroke="#191970" points="316.0635,-355.0827 305.6428,-356.9956 314.982,-361.9987 316.0635,-355.0827"/>
</g>
</g>
</svg>
