<?xml version="1.0" encoding="UTF-8" standalone="no"?>
<!DOCTYPE svg PUBLIC "-//W3C//DTD SVG 1.1//EN"
 "http://www.w3.org/Graphics/SVG/1.1/DTD/svg11.dtd">
<!-- Generated by graphviz version 2.40.1 (20161225.0304)
 -->
<!-- Title: PHG4Sector::Sector_Geometry::set_normal_start Pages: 1 -->
<svg width="739pt" height="725pt"
 viewBox="0.00 0.00 739.00 725.00" xmlns="http://www.w3.org/2000/svg" xmlns:xlink="http://www.w3.org/1999/xlink">
<g id="graph0" class="graph" transform="scale(1 1) rotate(0) translate(4 721)">
<title>PHG4Sector::Sector_Geometry::set_normal_start</title>
<!-- Node1 -->
<g id="node1" class="node">
<title>Node1</title>
<polygon fill="#bfbfbf" stroke="#000000" points="0,-296.5 0,-328.5 163,-328.5 163,-296.5 0,-296.5"/>
<text text-anchor="start" x="8" y="-315.5" font-family="FreeSans" font-size="10.00" fill="#000000">PHG4Sector::Sector</text>
<text text-anchor="middle" x="81.5" y="-303.5" font-family="FreeSans" font-size="10.00" fill="#000000">_Geometry::set_normal_start</text>
</g>
<!-- Node2 -->
<g id="node2" class="node">
<title>Node2</title>
<g id="a_node2"><a xlink:href="../../d4/dbc/macros_2blob_2master_2macros_2g4simulations_2G4__Aerogel_8C.html#a400136ba4928234f7c9990b4065328f1" target="_top" xlink:title="AerogelSetup">
<polygon fill="none" stroke="#000000" points="238,-380.5 238,-400.5 323,-400.5 323,-380.5 238,-380.5"/>
<text text-anchor="middle" x="280.5" y="-387.5" font-family="FreeSans" font-size="10.00" fill="#000000">AerogelSetup</text>
</a>
</g>
</g>
<!-- Node1&#45;&gt;Node2 -->
<g id="edge1" class="edge">
<title>Node1&#45;&gt;Node2</title>
<path fill="none" stroke="#191970" d="M118.6396,-333.4371C141.313,-345.5545 171.1982,-360.3646 199,-370.5 211.3191,-374.991 225.0494,-378.7962 237.6761,-381.8428"/>
<polygon fill="#191970" stroke="#191970" points="120.1635,-330.2822 109.7029,-328.6012 116.8321,-336.4386 120.1635,-330.2822"/>
</g>
<!-- Node22 -->
<g id="node22" class="node">
<title>Node22</title>
<g id="a_node22"><a xlink:href="../../d3/dc0/macros_2blob_2master_2macros_2g4simulations_2G4__DIRC_8C.html#acbdf429e4e41a2057e053691cc0b4128" target="_top" xlink:title="DIRCSetup">
<polygon fill="none" stroke="#000000" points="245.5,-341.5 245.5,-361.5 315.5,-361.5 315.5,-341.5 245.5,-341.5"/>
<text text-anchor="middle" x="280.5" y="-348.5" font-family="FreeSans" font-size="10.00" fill="#000000">DIRCSetup</text>
</a>
</g>
</g>
<!-- Node1&#45;&gt;Node22 -->
<g id="edge21" class="edge">
<title>Node1&#45;&gt;Node22</title>
<path fill="none" stroke="#191970" d="M172.8564,-330.404C198.6664,-335.4623 225.2122,-340.6647 245.4844,-344.6376"/>
<polygon fill="#191970" stroke="#191970" points="173.5016,-326.964 163.0151,-328.4753 172.1553,-333.8333 173.5016,-326.964"/>
</g>
<!-- Node23 -->
<g id="node23" class="node">
<title>Node23</title>
<g id="a_node23"><a xlink:href="../../d7/df5/EICAnalysis_2macros_2leptoquarks__fun4all_2G4__FGEM__EIC_8C.html#ac44d1ef8dd3931eed6dd2ae0110ed8d1" target="_top" xlink:title="FGEMSetup">
<polygon fill="none" stroke="#000000" points="243.5,-302.5 243.5,-322.5 317.5,-322.5 317.5,-302.5 243.5,-302.5"/>
<text text-anchor="middle" x="280.5" y="-309.5" font-family="FreeSans" font-size="10.00" fill="#000000">FGEMSetup</text>
</a>
</g>
</g>
<!-- Node1&#45;&gt;Node23 -->
<g id="edge23" class="edge">
<title>Node1&#45;&gt;Node23</title>
<path fill="none" stroke="#191970" d="M173.223,-312.5C198.0485,-312.5 223.5236,-312.5 243.416,-312.5"/>
<polygon fill="#191970" stroke="#191970" points="173.0151,-309.0001 163.0151,-312.5 173.0151,-316.0001 173.0151,-309.0001"/>
</g>
<!-- Node24 -->
<g id="node24" class="node">
<title>Node24</title>
<g id="a_node24"><a xlink:href="../../d8/d41/G4__EGEM__EIC_8C.html#ab02e3ec0ae447e560b3a9a6fc25d9243" target="_top" xlink:title="make_GEM_station">
<polygon fill="none" stroke="#000000" points="225,-263.5 225,-283.5 336,-283.5 336,-263.5 225,-263.5"/>
<text text-anchor="middle" x="280.5" y="-270.5" font-family="FreeSans" font-size="10.00" fill="#000000">make_GEM_station</text>
</a>
</g>
</g>
<!-- Node1&#45;&gt;Node24 -->
<g id="edge24" class="edge">
<title>Node1&#45;&gt;Node24</title>
<path fill="none" stroke="#191970" d="M173.0728,-294.5536C192.4058,-290.7647 212.1404,-286.8971 229.3323,-283.5278"/>
<polygon fill="#191970" stroke="#191970" points="172.1553,-291.1667 163.0151,-296.5247 173.5016,-298.036 172.1553,-291.1667"/>
</g>
<!-- Node25 -->
<g id="node25" class="node">
<title>Node25</title>
<g id="a_node25"><a xlink:href="../../d9/de6/classPHG4Sector_1_1Sector__Geometry.html#a9c6d5ef3b7cce30d922118e919daed8d" target="_top" xlink:title="Intercept certain z point at certain polar angle.">
<polygon fill="none" stroke="#000000" points="199,-212.5 199,-244.5 362,-244.5 362,-212.5 199,-212.5"/>
<text text-anchor="start" x="207" y="-231.5" font-family="FreeSans" font-size="10.00" fill="#000000">PHG4Sector::Sector</text>
<text text-anchor="middle" x="280.5" y="-219.5" font-family="FreeSans" font-size="10.00" fill="#000000">_Geometry::set_normal_start</text>
</a>
</g>
</g>
<!-- Node1&#45;&gt;Node25 -->
<g id="edge25" class="edge">
<title>Node1&#45;&gt;Node25</title>
<path fill="none" stroke="#191970" d="M119.2786,-291.4959C141.9569,-279.4048 171.6284,-264.48 199,-253.5 206.8296,-250.3592 215.2129,-247.3777 223.5154,-244.6402"/>
<polygon fill="#191970" stroke="#191970" points="117.4736,-288.4926 110.3274,-296.3145 120.7917,-294.6563 117.4736,-288.4926"/>
</g>
<!-- Node3 -->
<g id="node3" class="node">
<title>Node3</title>
<g id="a_node3"><a xlink:href="../../d2/dfe/macros_2blob_2master_2macros_2g4simulations_2G4Setup__EICDetector_8C.html#a5d4cb2d19366a2ae6d2aefe8d2e4a870" target="_top" xlink:title="G4Setup">
<polygon fill="none" stroke="#000000" points="398,-360.5 398,-380.5 458,-380.5 458,-360.5 398,-360.5"/>
<text text-anchor="middle" x="428" y="-367.5" font-family="FreeSans" font-size="10.00" fill="#000000">G4Setup</text>
</a>
</g>
</g>
<!-- Node2&#45;&gt;Node3 -->
<g id="edge2" class="edge">
<title>Node2&#45;&gt;Node3</title>
<path fill="none" stroke="#191970" d="M333.1984,-383.3545C354.8064,-380.4246 379.046,-377.1378 397.6056,-374.6213"/>
<polygon fill="#191970" stroke="#191970" points="332.6021,-379.9032 323.1631,-384.7152 333.5427,-386.8397 332.6021,-379.9032"/>
</g>
<!-- Node4 -->
<g id="node4" class="node">
<title>Node4</title>
<g id="a_node4"><a xlink:href="../../d3/d7f/Fun_8C.html#af0d3c8a78765149fef9b2beeecfc6279" target="_top" xlink:title="ConfigureDetectors">
<polygon fill="none" stroke="#000000" points="520.5,-696.5 520.5,-716.5 634.5,-716.5 634.5,-696.5 520.5,-696.5"/>
<text text-anchor="middle" x="577.5" y="-703.5" font-family="FreeSans" font-size="10.00" fill="#000000">ConfigureDetectors</text>
</a>
</g>
</g>
<!-- Node3&#45;&gt;Node4 -->
<g id="edge3" class="edge">
<title>Node3&#45;&gt;Node4</title>
<path fill="none" stroke="#191970" d="M429.4577,-390.8418C434.3809,-453.7895 452.4621,-643.7315 494,-686.5 501.166,-693.8783 510.5352,-698.7322 520.3992,-701.8865"/>
<polygon fill="#191970" stroke="#191970" points="432.9298,-390.339 428.6889,-380.63 425.9496,-390.8646 432.9298,-390.339"/>
</g>
<!-- Node6 -->
<g id="node6" class="node">
<title>Node6</title>
<g id="a_node6"><a xlink:href="../../da/d02/Fun4All__G4__EICDetector_8C.html#afbe82cefa1d1fd031d9a8586b7bb68c6" target="_top" xlink:title="Fun4All_G4_EICDetector">
<polygon fill="none" stroke="#000000" points="508,-657.5 508,-677.5 647,-677.5 647,-657.5 508,-657.5"/>
<text text-anchor="middle" x="577.5" y="-664.5" font-family="FreeSans" font-size="10.00" fill="#000000">Fun4All_G4_EICDetector</text>
</a>
</g>
</g>
<!-- Node3&#45;&gt;Node6 -->
<g id="edge5" class="edge">
<title>Node3&#45;&gt;Node6</title>
<path fill="none" stroke="#191970" d="M430.0739,-390.5594C436.4048,-447.9046 457.317,-610.7735 494,-647.5 498.003,-651.5078 502.6575,-654.7664 507.6817,-657.41"/>
<polygon fill="#191970" stroke="#191970" points="433.5486,-390.1356 429.0018,-380.566 426.5886,-390.8823 433.5486,-390.1356"/>
</g>
<!-- Node7 -->
<g id="node7" class="node">
<title>Node7</title>
<g id="a_node7"><a xlink:href="../../dd/d2a/Fun4All__G4__EICDetector__LQ_8C.html#aaa01242fd6e77ca43a9d49a6d46008e4" target="_top" xlink:title="Fun4All_G4_EICDetector_LQ">
<polygon fill="none" stroke="#000000" points="499.5,-618.5 499.5,-638.5 655.5,-638.5 655.5,-618.5 499.5,-618.5"/>
<text text-anchor="middle" x="577.5" y="-625.5" font-family="FreeSans" font-size="10.00" fill="#000000">Fun4All_G4_EICDetector_LQ</text>
</a>
</g>
</g>
<!-- Node3&#45;&gt;Node7 -->
<g id="edge6" class="edge">
<title>Node3&#45;&gt;Node7</title>
<path fill="none" stroke="#191970" d="M430.8918,-390.4112C438.7691,-441.9372 462.1671,-577.7751 494,-608.5 498.183,-612.5374 503.0294,-615.8088 508.2399,-618.4539"/>
<polygon fill="#191970" stroke="#191970" points="434.3511,-389.8783 429.4113,-380.5056 427.428,-390.9131 434.3511,-389.8783"/>
</g>
<!-- Node8 -->
<g id="node8" class="node">
<title>Node8</title>
<g id="a_node8"><a xlink:href="../../d4/df5/Fun4All__G4__EICDetector__LQ__reference_8C.html#a2feefc472f17f90b3cbe74897d049f75" target="_top" xlink:title="Fun4All_G4_EICDetector\l_LQ_reference">
<polygon fill="none" stroke="#000000" points="508,-567.5 508,-599.5 647,-599.5 647,-567.5 508,-567.5"/>
<text text-anchor="start" x="516" y="-586.5" font-family="FreeSans" font-size="10.00" fill="#000000">Fun4All_G4_EICDetector</text>
<text text-anchor="middle" x="577.5" y="-574.5" font-family="FreeSans" font-size="10.00" fill="#000000">_LQ_reference</text>
</a>
</g>
</g>
<!-- Node3&#45;&gt;Node8 -->
<g id="edge7" class="edge">
<title>Node3&#45;&gt;Node8</title>
<path fill="none" stroke="#191970" d="M429.3789,-391.0457C433.0539,-429.2763 446.3615,-511.612 494,-557.5 498.046,-561.3973 502.6667,-564.7111 507.6114,-567.5288"/>
<polygon fill="#191970" stroke="#191970" points="432.8344,-390.3629 428.5203,-380.6861 425.8583,-390.9411 432.8344,-390.3629"/>
</g>
<!-- Node9 -->
<g id="node9" class="node">
<title>Node9</title>
<g id="a_node9"><a xlink:href="../../d3/d51/Fun4All__G4__EICDetector__RICH_8C.html#a5739502b0a7a1ba782c01069f77e933f" target="_top" xlink:title="Fun4All_G4_EICDetector_RICH">
<polygon fill="none" stroke="#000000" points="494,-528.5 494,-548.5 661,-548.5 661,-528.5 494,-528.5"/>
<text text-anchor="middle" x="577.5" y="-535.5" font-family="FreeSans" font-size="10.00" fill="#000000">Fun4All_G4_EICDetector_RICH</text>
</a>
</g>
</g>
<!-- Node3&#45;&gt;Node9 -->
<g id="edge8" class="edge">
<title>Node3&#45;&gt;Node9</title>
<path fill="none" stroke="#191970" d="M431.159,-390.5756C437.2957,-422.6481 453.9289,-485.2114 494,-518.5 498.8158,-522.5007 504.2989,-525.7269 510.1008,-528.3252"/>
<polygon fill="#191970" stroke="#191970" points="434.584,-389.8434 429.4049,-380.6008 427.6898,-391.0559 434.584,-389.8434"/>
</g>
<!-- Node10 -->
<g id="node10" class="node">
<title>Node10</title>
<g id="a_node10"><a xlink:href="../../d9/d0e/Fun4All__G4__EICIR_8C.html#ac3543d1dd4a0abed3987d40939ee3f87" target="_top" xlink:title="Fun4All_G4_EICIR">
<polygon fill="none" stroke="#000000" points="525.5,-489.5 525.5,-509.5 629.5,-509.5 629.5,-489.5 525.5,-489.5"/>
<text text-anchor="middle" x="577.5" y="-496.5" font-family="FreeSans" font-size="10.00" fill="#000000">Fun4All_G4_EICIR</text>
</a>
</g>
</g>
<!-- Node3&#45;&gt;Node10 -->
<g id="edge9" class="edge">
<title>Node3&#45;&gt;Node10</title>
<path fill="none" stroke="#191970" d="M434.5275,-390.2192C443.7613,-414.9659 463.047,-456.8978 494,-479.5 503.1494,-486.181 514.2255,-490.6578 525.2781,-493.6504"/>
<polygon fill="#191970" stroke="#191970" points="437.8192,-389.0294 431.1809,-380.7721 431.221,-391.3668 437.8192,-389.0294"/>
</g>
<!-- Node11 -->
<g id="node11" class="node">
<title>Node11</title>
<g id="a_node11"><a xlink:href="../../d7/d9e/Fun4All__G4__fsPHENIX_8C.html#af48911d394d2412e817583700f2bbee2" target="_top" xlink:title="Fun4All_G4_fsPHENIX">
<polygon fill="none" stroke="#000000" points="515.5,-450.5 515.5,-470.5 639.5,-470.5 639.5,-450.5 515.5,-450.5"/>
<text text-anchor="middle" x="577.5" y="-457.5" font-family="FreeSans" font-size="10.00" fill="#000000">Fun4All_G4_fsPHENIX</text>
</a>
</g>
</g>
<!-- Node3&#45;&gt;Node11 -->
<g id="edge10" class="edge">
<title>Node3&#45;&gt;Node11</title>
<path fill="none" stroke="#191970" d="M440.7208,-389.164C452.6361,-405.1974 471.8891,-427.6945 494,-440.5 501.0947,-444.6089 508.995,-447.8754 517.0274,-450.4718"/>
<polygon fill="#191970" stroke="#191970" points="443.253,-386.6882 434.5871,-380.5929 437.5605,-390.7619 443.253,-386.6882"/>
</g>
<!-- Node12 -->
<g id="node12" class="node">
<title>Node12</title>
<g id="a_node12"><a xlink:href="../../da/d2f/Fun4All__G4__fsPHENIX__FastSim_8C.html#a66fb850cae5fcaadda23b74a25ce4c9c" target="_top" xlink:title="Fun4All_G4_fsPHENIX\l_FastSim">
<polygon fill="none" stroke="#000000" points="515.5,-399.5 515.5,-431.5 639.5,-431.5 639.5,-399.5 515.5,-399.5"/>
<text text-anchor="start" x="523.5" y="-418.5" font-family="FreeSans" font-size="10.00" fill="#000000">Fun4All_G4_fsPHENIX</text>
<text text-anchor="middle" x="577.5" y="-406.5" font-family="FreeSans" font-size="10.00" fill="#000000">_FastSim</text>
</a>
</g>
</g>
<!-- Node3&#45;&gt;Node12 -->
<g id="edge11" class="edge">
<title>Node3&#45;&gt;Node12</title>
<path fill="none" stroke="#191970" d="M468.0215,-382.5466C485.302,-387.7481 505.7664,-393.9079 524.2985,-399.4862"/>
<polygon fill="#191970" stroke="#191970" points="468.838,-379.1373 458.2536,-379.6064 466.8203,-385.8402 468.838,-379.1373"/>
</g>
<!-- Node13 -->
<g id="node13" class="node">
<title>Node13</title>
<g id="a_node13"><a xlink:href="../../d0/da6/Fun4All__G4__fsPHENIX__pi0_8C.html#a023d91d47b678e5d7f1751834aa517c6" target="_top" xlink:title="Fun4All_G4_fsPHENIX_pi0">
<polygon fill="none" stroke="#000000" points="505,-360.5 505,-380.5 650,-380.5 650,-360.5 505,-360.5"/>
<text text-anchor="middle" x="577.5" y="-367.5" font-family="FreeSans" font-size="10.00" fill="#000000">Fun4All_G4_fsPHENIX_pi0</text>
</a>
</g>
</g>
<!-- Node3&#45;&gt;Node13 -->
<g id="edge12" class="edge">
<title>Node3&#45;&gt;Node13</title>
<path fill="none" stroke="#191970" d="M468.2574,-370.5C479.6119,-370.5 492.3264,-370.5 504.9568,-370.5"/>
<polygon fill="#191970" stroke="#191970" points="468.2536,-367.0001 458.2536,-370.5 468.2535,-374.0001 468.2536,-367.0001"/>
</g>
<!-- Node14 -->
<g id="node14" class="node">
<title>Node14</title>
<g id="a_node14"><a xlink:href="../../d5/d2c/macros_2blob_2master_2macros_2g4simulations_2Fun4All__G4__sPHENIX_8C.html#a6eaaa492d7023ec86c562dc63aa1e5a4" target="_top" xlink:title="Fun4All_G4_sPHENIX">
<polygon fill="none" stroke="#000000" points="517,-321.5 517,-341.5 638,-341.5 638,-321.5 517,-321.5"/>
<text text-anchor="middle" x="577.5" y="-328.5" font-family="FreeSans" font-size="10.00" fill="#000000">Fun4All_G4_sPHENIX</text>
</a>
</g>
</g>
<!-- Node3&#45;&gt;Node14 -->
<g id="edge13" class="edge">
<title>Node3&#45;&gt;Node14</title>
<path fill="none" stroke="#191970" d="M467.8989,-357.9156C476.4772,-355.3486 485.5151,-352.7479 494,-350.5 505.7844,-347.3779 518.5866,-344.3065 530.5454,-341.5736"/>
<polygon fill="#191970" stroke="#191970" points="466.6524,-354.6362 458.1005,-360.8904 468.686,-361.3343 466.6524,-354.6362"/>
</g>
<!-- Node15 -->
<g id="node15" class="node">
<title>Node15</title>
<g id="a_node15"><a xlink:href="../../d3/de2/Fun4All__G4__sPHENIX__AnaGenFit_8C.html#a9bf3f2f72ed69a17e2d0c1121d48013c" target="_top" xlink:title="Fun4All_G4_sPHENIX\l_AnaGenFit">
<polygon fill="none" stroke="#000000" points="517,-270.5 517,-302.5 638,-302.5 638,-270.5 517,-270.5"/>
<text text-anchor="start" x="525" y="-289.5" font-family="FreeSans" font-size="10.00" fill="#000000">Fun4All_G4_sPHENIX</text>
<text text-anchor="middle" x="577.5" y="-277.5" font-family="FreeSans" font-size="10.00" fill="#000000">_AnaGenFit</text>
</a>
</g>
</g>
<!-- Node3&#45;&gt;Node15 -->
<g id="edge14" class="edge">
<title>Node3&#45;&gt;Node15</title>
<path fill="none" stroke="#191970" d="M443.7303,-352.734C456.1939,-339.6473 474.6741,-322.3147 494,-311.5 501.1309,-307.5096 508.9687,-304.0903 516.898,-301.1786"/>
<polygon fill="#191970" stroke="#191970" points="441.0119,-350.5185 436.7936,-360.2374 446.152,-355.2704 441.0119,-350.5185"/>
</g>
<!-- Node16 -->
<g id="node16" class="node">
<title>Node16</title>
<g id="a_node16"><a xlink:href="../../da/dd0/Fun4All__G4__sPHENIX__photonjet_8C.html#a6f18519e216acc05399e562ea57ea77c" target="_top" xlink:title="Fun4All_G4_sPHENIX\l_photonjet">
<polygon fill="none" stroke="#000000" points="517,-219.5 517,-251.5 638,-251.5 638,-219.5 517,-219.5"/>
<text text-anchor="start" x="525" y="-238.5" font-family="FreeSans" font-size="10.00" fill="#000000">Fun4All_G4_sPHENIX</text>
<text text-anchor="middle" x="577.5" y="-226.5" font-family="FreeSans" font-size="10.00" fill="#000000">_photonjet</text>
</a>
</g>
</g>
<!-- Node3&#45;&gt;Node16 -->
<g id="edge15" class="edge">
<title>Node3&#45;&gt;Node16</title>
<path fill="none" stroke="#191970" d="M434.6801,-350.8716C444.076,-326.1865 463.5337,-284.1764 494,-260.5 500.8106,-255.2072 508.728,-251.032 516.9216,-247.7391"/>
<polygon fill="#191970" stroke="#191970" points="431.3849,-349.6921 431.2666,-360.2862 437.9657,-352.0781 431.3849,-349.6921"/>
</g>
<!-- Node17 -->
<g id="node17" class="node">
<title>Node17</title>
<g id="a_node17"><a xlink:href="../../da/d85/Fun4All__G4__sPHENIX__photons_8C.html#a02fbbd59878fe1299f58ed187e7214ba" target="_top" xlink:title="Fun4All_G4_sPHENIX\l_photons">
<polygon fill="none" stroke="#000000" points="517,-168.5 517,-200.5 638,-200.5 638,-168.5 517,-168.5"/>
<text text-anchor="start" x="525" y="-187.5" font-family="FreeSans" font-size="10.00" fill="#000000">Fun4All_G4_sPHENIX</text>
<text text-anchor="middle" x="577.5" y="-175.5" font-family="FreeSans" font-size="10.00" fill="#000000">_photons</text>
</a>
</g>
</g>
<!-- Node3&#45;&gt;Node17 -->
<g id="edge16" class="edge">
<title>Node3&#45;&gt;Node17</title>
<path fill="none" stroke="#191970" d="M430.6091,-350.4063C436.0891,-316.4243 451.9709,-247.5944 494,-209.5 500.503,-203.6058 508.3455,-199.0991 516.5866,-195.6538"/>
<polygon fill="#191970" stroke="#191970" points="427.117,-350.0974 429.1266,-360.4999 434.0427,-351.1146 427.117,-350.0974"/>
</g>
<!-- Node18 -->
<g id="node18" class="node">
<title>Node18</title>
<g id="a_node18"><a xlink:href="../../de/d55/Fun4All__G4__sPHENIX__truthphotonjet_8C.html#a48a6f4503eaa1b3793d8ae572aa795b9" target="_top" xlink:title="Fun4All_G4_sPHENIX\l_truthphotonjet">
<polygon fill="none" stroke="#000000" points="517,-117.5 517,-149.5 638,-149.5 638,-117.5 517,-117.5"/>
<text text-anchor="start" x="525" y="-136.5" font-family="FreeSans" font-size="10.00" fill="#000000">Fun4All_G4_sPHENIX</text>
<text text-anchor="middle" x="577.5" y="-124.5" font-family="FreeSans" font-size="10.00" fill="#000000">_truthphotonjet</text>
</a>
</g>
</g>
<!-- Node3&#45;&gt;Node18 -->
<g id="edge17" class="edge">
<title>Node3&#45;&gt;Node18</title>
<path fill="none" stroke="#191970" d="M431.7732,-350.3624C441.0444,-302.9055 466.218,-185.9807 494,-158.5 500.455,-152.115 508.471,-147.3497 516.9617,-143.7955"/>
<polygon fill="#191970" stroke="#191970" points="428.3031,-349.8745 429.8569,-360.3548 435.1778,-351.193 428.3031,-349.8745"/>
</g>
<!-- Node19 -->
<g id="node19" class="node">
<title>Node19</title>
<g id="a_node19"><a xlink:href="../../d4/d65/Fun4All__single__particle_8C.html#a8a492b5dbead494bfdddbebde8a49b0e" target="_top" xlink:title="Fun4All_single_particle">
<polygon fill="none" stroke="#000000" points="511.5,-78.5 511.5,-98.5 643.5,-98.5 643.5,-78.5 511.5,-78.5"/>
<text text-anchor="middle" x="577.5" y="-85.5" font-family="FreeSans" font-size="10.00" fill="#000000">Fun4All_single_particle</text>
</a>
</g>
</g>
<!-- Node3&#45;&gt;Node19 -->
<g id="edge18" class="edge">
<title>Node3&#45;&gt;Node19</title>
<path fill="none" stroke="#191970" d="M430.3374,-350.3423C437.174,-294.8774 458.8945,-141.8368 494,-107.5 498.9953,-102.6141 504.9709,-98.8818 511.3985,-96.0442"/>
<polygon fill="#191970" stroke="#191970" points="426.8534,-349.9998 429.1368,-360.3457 433.8036,-350.834 426.8534,-349.9998"/>
</g>
<!-- Node20 -->
<g id="node20" class="node">
<title>Node20</title>
<g id="a_node20"><a xlink:href="../../d0/d99/Jin__BJet_8C.html#a36169bfee2ed7efda633944d12aebad9" target="_top" xlink:title="Jin_BJet">
<polygon fill="none" stroke="#000000" points="550,-39.5 550,-59.5 605,-59.5 605,-39.5 550,-39.5"/>
<text text-anchor="middle" x="577.5" y="-46.5" font-family="FreeSans" font-size="10.00" fill="#000000">Jin_BJet</text>
</a>
</g>
</g>
<!-- Node3&#45;&gt;Node20 -->
<g id="edge19" class="edge">
<title>Node3&#45;&gt;Node20</title>
<path fill="none" stroke="#191970" d="M429.6409,-350.2505C434.997,-289.2346 453.9758,-108.8688 494,-68.5 508.4451,-53.9305 531.5807,-49.5476 549.8398,-48.6025"/>
<polygon fill="#191970" stroke="#191970" points="426.1301,-350.2312 428.7731,-360.4911 433.1051,-350.8224 426.1301,-350.2312"/>
</g>
<!-- Node21 -->
<g id="node21" class="node">
<title>Node21</title>
<g id="a_node21"><a xlink:href="../../dd/db1/Wrapper_8cxx.html#abf1e42281903daa0752c80dd6c879fac" target="_top" xlink:title="Wrapper">
<polygon fill="none" stroke="#000000" points="547.5,-.5 547.5,-20.5 607.5,-20.5 607.5,-.5 547.5,-.5"/>
<text text-anchor="middle" x="577.5" y="-7.5" font-family="FreeSans" font-size="10.00" fill="#000000">Wrapper</text>
</a>
</g>
</g>
<!-- Node3&#45;&gt;Node21 -->
<g id="edge20" class="edge">
<title>Node3&#45;&gt;Node21</title>
<path fill="none" stroke="#191970" d="M429.0901,-350.2645C433.068,-284.1352 449.0024,-75.9867 494,-29.5 507.649,-15.3993 529.4225,-10.7885 547.3133,-9.63"/>
<polygon fill="#191970" stroke="#191970" points="425.5954,-350.0726 428.5164,-360.2568 432.5839,-350.4739 425.5954,-350.0726"/>
</g>
<!-- Node5 -->
<g id="node5" class="node">
<title>Node5</title>
<g id="a_node5"><a xlink:href="../../d3/d7f/Fun_8C.html#af69a3eef3ff244bb51f5740c6ecb5432" target="_top" xlink:title="Fun">
<polygon fill="none" stroke="#000000" points="697,-696.5 697,-716.5 731,-716.5 731,-696.5 697,-696.5"/>
<text text-anchor="middle" x="714" y="-703.5" font-family="FreeSans" font-size="10.00" fill="#000000">Fun</text>
</a>
</g>
</g>
<!-- Node4&#45;&gt;Node5 -->
<g id="edge4" class="edge">
<title>Node4&#45;&gt;Node5</title>
<path fill="none" stroke="#191970" d="M644.6941,-706.5C664.0852,-706.5 683.59,-706.5 696.9452,-706.5"/>
<polygon fill="#191970" stroke="#191970" points="644.5974,-703.0001 634.5974,-706.5 644.5974,-710.0001 644.5974,-703.0001"/>
</g>
<!-- Node22&#45;&gt;Node3 -->
<g id="edge22" class="edge">
<title>Node22&#45;&gt;Node3</title>
<path fill="none" stroke="#191970" d="M325.8913,-357.347C349.3057,-360.3631 377.2191,-363.9587 397.9386,-366.6277"/>
<polygon fill="#191970" stroke="#191970" points="326.1952,-353.8573 315.8299,-356.051 325.3008,-360.8 326.1952,-353.8573"/>
</g>
</g>
</svg>
