<?xml version="1.0" encoding="UTF-8" standalone="no"?>
<!DOCTYPE svg PUBLIC "-//W3C//DTD SVG 1.1//EN"
 "http://www.w3.org/Graphics/SVG/1.1/DTD/svg11.dtd">
<!-- Generated by graphviz version 2.40.1 (20161225.0304)
 -->
<!-- Title: PHPythia8::set_config_file Pages: 1 -->
<svg width="357pt" height="764pt"
 viewBox="0.00 0.00 357.00 764.00" xmlns="http://www.w3.org/2000/svg" xmlns:xlink="http://www.w3.org/1999/xlink">
<g id="graph0" class="graph" transform="scale(1 1) rotate(0) translate(4 760)">
<title>PHPythia8::set_config_file</title>
<!-- Node1 -->
<g id="node1" class="node">
<title>Node1</title>
<polygon fill="#bfbfbf" stroke="#000000" points="0,-376.5 0,-396.5 146,-396.5 146,-376.5 0,-376.5"/>
<text text-anchor="middle" x="73" y="-383.5" font-family="FreeSans" font-size="10.00" fill="#000000">PHPythia8::set_config_file</text>
</g>
<!-- Node2 -->
<g id="node2" class="node">
<title>Node2</title>
<g id="a_node2"><a xlink:href="../../d2/d47/Fun4All__EICAnalysis__DVCS_8C.html#a84f48142243e969fd353cc8509f0ba22" target="_top" xlink:title="Fun4All_EICAnalysis_DVCS">
<polygon fill="none" stroke="#000000" points="190.5,-735.5 190.5,-755.5 340.5,-755.5 340.5,-735.5 190.5,-735.5"/>
<text text-anchor="middle" x="265.5" y="-742.5" font-family="FreeSans" font-size="10.00" fill="#000000">Fun4All_EICAnalysis_DVCS</text>
</a>
</g>
</g>
<!-- Node1&#45;&gt;Node2 -->
<g id="edge1" class="edge">
<title>Node1&#45;&gt;Node2</title>
<path fill="none" stroke="#191970" d="M76.7864,-406.786C89.5546,-473.0644 132.9826,-681.5493 182,-726.5 185.8351,-730.0169 190.1823,-732.9273 194.8299,-735.3313"/>
<polygon fill="#191970" stroke="#191970" points="80.1885,-405.9409 74.8831,-396.7702 73.3116,-407.2478 80.1885,-405.9409"/>
</g>
<!-- Node3 -->
<g id="node3" class="node">
<title>Node3</title>
<g id="a_node3"><a xlink:href="../../da/d02/Fun4All__G4__EICDetector_8C.html#afbe82cefa1d1fd031d9a8586b7bb68c6" target="_top" xlink:title="Fun4All_G4_EICDetector">
<polygon fill="none" stroke="#000000" points="196,-696.5 196,-716.5 335,-716.5 335,-696.5 196,-696.5"/>
<text text-anchor="middle" x="265.5" y="-703.5" font-family="FreeSans" font-size="10.00" fill="#000000">Fun4All_G4_EICDetector</text>
</a>
</g>
</g>
<!-- Node1&#45;&gt;Node3 -->
<g id="edge2" class="edge">
<title>Node1&#45;&gt;Node3</title>
<path fill="none" stroke="#191970" d="M73.9608,-406.7864C77.6812,-461.1685 95.67,-611.2392 182,-687.5 186.1227,-691.1418 190.7979,-694.1278 195.7798,-696.5715"/>
<polygon fill="#191970" stroke="#191970" points="77.4483,-406.4712 73.364,-396.6953 70.4606,-406.8845 77.4483,-406.4712"/>
</g>
<!-- Node4 -->
<g id="node4" class="node">
<title>Node4</title>
<g id="a_node4"><a xlink:href="../../dd/d2a/Fun4All__G4__EICDetector__LQ_8C.html#aaa01242fd6e77ca43a9d49a6d46008e4" target="_top" xlink:title="Fun4All_G4_EICDetector_LQ">
<polygon fill="none" stroke="#000000" points="187.5,-657.5 187.5,-677.5 343.5,-677.5 343.5,-657.5 187.5,-657.5"/>
<text text-anchor="middle" x="265.5" y="-664.5" font-family="FreeSans" font-size="10.00" fill="#000000">Fun4All_G4_EICDetector_LQ</text>
</a>
</g>
</g>
<!-- Node1&#45;&gt;Node4 -->
<g id="edge3" class="edge">
<title>Node1&#45;&gt;Node4</title>
<path fill="none" stroke="#191970" d="M75.1857,-406.7866C81.644,-456.2746 105.2778,-583.8592 182,-648.5 186.2068,-652.0443 190.9418,-654.961 195.9644,-657.3574"/>
<polygon fill="#191970" stroke="#191970" points="78.6428,-406.22 73.9722,-396.7102 71.6931,-407.057 78.6428,-406.22"/>
</g>
<!-- Node5 -->
<g id="node5" class="node">
<title>Node5</title>
<g id="a_node5"><a xlink:href="../../d4/df5/Fun4All__G4__EICDetector__LQ__reference_8C.html#a2feefc472f17f90b3cbe74897d049f75" target="_top" xlink:title="Fun4All_G4_EICDetector\l_LQ_reference">
<polygon fill="none" stroke="#000000" points="196,-606.5 196,-638.5 335,-638.5 335,-606.5 196,-606.5"/>
<text text-anchor="start" x="204" y="-625.5" font-family="FreeSans" font-size="10.00" fill="#000000">Fun4All_G4_EICDetector</text>
<text text-anchor="middle" x="265.5" y="-613.5" font-family="FreeSans" font-size="10.00" fill="#000000">_LQ_reference</text>
</a>
</g>
</g>
<!-- Node1&#45;&gt;Node5 -->
<g id="edge4" class="edge">
<title>Node1&#45;&gt;Node5</title>
<path fill="none" stroke="#191970" d="M77.678,-406.4618C88.5218,-448.2904 119.3663,-545.549 182,-597.5 186.193,-600.9779 190.858,-603.9719 195.7792,-606.5496"/>
<polygon fill="#191970" stroke="#191970" points="81.048,-405.5101 75.2416,-396.648 74.2543,-407.1967 81.048,-405.5101"/>
</g>
<!-- Node6 -->
<g id="node6" class="node">
<title>Node6</title>
<g id="a_node6"><a xlink:href="../../d3/d51/Fun4All__G4__EICDetector__RICH_8C.html#a5739502b0a7a1ba782c01069f77e933f" target="_top" xlink:title="Fun4All_G4_EICDetector_RICH">
<polygon fill="none" stroke="#000000" points="182,-567.5 182,-587.5 349,-587.5 349,-567.5 182,-567.5"/>
<text text-anchor="middle" x="265.5" y="-574.5" font-family="FreeSans" font-size="10.00" fill="#000000">Fun4All_G4_EICDetector_RICH</text>
</a>
</g>
</g>
<!-- Node1&#45;&gt;Node6 -->
<g id="edge5" class="edge">
<title>Node1&#45;&gt;Node6</title>
<path fill="none" stroke="#191970" d="M79.6262,-406.0095C92.9495,-442.1388 126.5417,-519.338 182,-558.5 187.1006,-562.1018 192.7752,-565.0332 198.698,-567.4172"/>
<polygon fill="#191970" stroke="#191970" points="82.9229,-404.8338 76.2716,-396.5869 76.3283,-407.1816 82.9229,-404.8338"/>
</g>
<!-- Node7 -->
<g id="node7" class="node">
<title>Node7</title>
<g id="a_node7"><a xlink:href="../../d7/d9e/Fun4All__G4__fsPHENIX_8C.html#af48911d394d2412e817583700f2bbee2" target="_top" xlink:title="Fun4All_G4_fsPHENIX">
<polygon fill="none" stroke="#000000" points="203.5,-528.5 203.5,-548.5 327.5,-548.5 327.5,-528.5 203.5,-528.5"/>
<text text-anchor="middle" x="265.5" y="-535.5" font-family="FreeSans" font-size="10.00" fill="#000000">Fun4All_G4_fsPHENIX</text>
</a>
</g>
</g>
<!-- Node1&#45;&gt;Node7 -->
<g id="edge6" class="edge">
<title>Node1&#45;&gt;Node7</title>
<path fill="none" stroke="#191970" d="M83.1246,-405.6299C99.6934,-434.9741 135.4671,-490.7142 182,-519.5 188.5746,-523.5671 195.9234,-526.7659 203.4607,-529.2813"/>
<polygon fill="#191970" stroke="#191970" points="86.1377,-403.8455 78.254,-396.7675 80.003,-407.2169 86.1377,-403.8455"/>
</g>
<!-- Node8 -->
<g id="node8" class="node">
<title>Node8</title>
<g id="a_node8"><a xlink:href="../../da/d2f/Fun4All__G4__fsPHENIX__FastSim_8C.html#a66fb850cae5fcaadda23b74a25ce4c9c" target="_top" xlink:title="Fun4All_G4_fsPHENIX\l_FastSim">
<polygon fill="none" stroke="#000000" points="203.5,-477.5 203.5,-509.5 327.5,-509.5 327.5,-477.5 203.5,-477.5"/>
<text text-anchor="start" x="211.5" y="-496.5" font-family="FreeSans" font-size="10.00" fill="#000000">Fun4All_G4_fsPHENIX</text>
<text text-anchor="middle" x="265.5" y="-484.5" font-family="FreeSans" font-size="10.00" fill="#000000">_FastSim</text>
</a>
</g>
</g>
<!-- Node1&#45;&gt;Node8 -->
<g id="edge7" class="edge">
<title>Node1&#45;&gt;Node8</title>
<path fill="none" stroke="#191970" d="M91.2202,-403.4589C111.8269,-421.8238 147.0778,-450.8513 182,-468.5 188.7528,-471.9127 196.0531,-474.946 203.4293,-477.6179"/>
<polygon fill="#191970" stroke="#191970" points="93.3366,-400.6535 83.5759,-396.5329 88.6366,-405.841 93.3366,-400.6535"/>
</g>
<!-- Node9 -->
<g id="node9" class="node">
<title>Node9</title>
<g id="a_node9"><a xlink:href="../../d0/da6/Fun4All__G4__fsPHENIX__pi0_8C.html#a023d91d47b678e5d7f1751834aa517c6" target="_top" xlink:title="Fun4All_G4_fsPHENIX_pi0">
<polygon fill="none" stroke="#000000" points="193,-438.5 193,-458.5 338,-458.5 338,-438.5 193,-438.5"/>
<text text-anchor="middle" x="265.5" y="-445.5" font-family="FreeSans" font-size="10.00" fill="#000000">Fun4All_G4_fsPHENIX_pi0</text>
</a>
</g>
</g>
<!-- Node1&#45;&gt;Node9 -->
<g id="edge8" class="edge">
<title>Node1&#45;&gt;Node9</title>
<path fill="none" stroke="#191970" d="M104.903,-400.5722C126.393,-409.6803 155.5384,-421.3219 182,-429.5 192.7952,-432.8363 204.54,-435.8662 215.7191,-438.4777"/>
<polygon fill="#191970" stroke="#191970" points="106.1753,-397.3096 95.6051,-396.5873 103.4177,-403.7436 106.1753,-397.3096"/>
</g>
<!-- Node10 -->
<g id="node10" class="node">
<title>Node10</title>
<g id="a_node10"><a xlink:href="../../d5/d2c/macros_2blob_2master_2macros_2g4simulations_2Fun4All__G4__sPHENIX_8C.html#a6eaaa492d7023ec86c562dc63aa1e5a4" target="_top" xlink:title="Fun4All_G4_sPHENIX">
<polygon fill="none" stroke="#000000" points="205,-399.5 205,-419.5 326,-419.5 326,-399.5 205,-399.5"/>
<text text-anchor="middle" x="265.5" y="-406.5" font-family="FreeSans" font-size="10.00" fill="#000000">Fun4All_G4_sPHENIX</text>
</a>
</g>
</g>
<!-- Node1&#45;&gt;Node10 -->
<g id="edge9" class="edge">
<title>Node1&#45;&gt;Node10</title>
<path fill="none" stroke="#191970" d="M156.1325,-396.4327C172.4591,-398.3834 189.2988,-400.3954 204.725,-402.2386"/>
<polygon fill="#191970" stroke="#191970" points="156.3951,-392.9393 146.0505,-395.2281 155.5646,-399.8898 156.3951,-392.9393"/>
</g>
<!-- Node11 -->
<g id="node11" class="node">
<title>Node11</title>
<g id="a_node11"><a xlink:href="../../d3/de2/Fun4All__G4__sPHENIX__AnaGenFit_8C.html#a9bf3f2f72ed69a17e2d0c1121d48013c" target="_top" xlink:title="Fun4All_G4_sPHENIX\l_AnaGenFit">
<polygon fill="none" stroke="#000000" points="205,-348.5 205,-380.5 326,-380.5 326,-348.5 205,-348.5"/>
<text text-anchor="start" x="213" y="-367.5" font-family="FreeSans" font-size="10.00" fill="#000000">Fun4All_G4_sPHENIX</text>
<text text-anchor="middle" x="265.5" y="-355.5" font-family="FreeSans" font-size="10.00" fill="#000000">_AnaGenFit</text>
</a>
</g>
</g>
<!-- Node1&#45;&gt;Node11 -->
<g id="edge10" class="edge">
<title>Node1&#45;&gt;Node11</title>
<path fill="none" stroke="#191970" d="M156.1325,-376.9991C172.4591,-375.1332 189.2988,-373.2087 204.725,-371.4457"/>
<polygon fill="#191970" stroke="#191970" points="155.5884,-373.5385 146.0505,-378.1514 156.3832,-380.4932 155.5884,-373.5385"/>
</g>
<!-- Node12 -->
<g id="node12" class="node">
<title>Node12</title>
<g id="a_node12"><a xlink:href="../../da/dd0/Fun4All__G4__sPHENIX__photonjet_8C.html#a6f18519e216acc05399e562ea57ea77c" target="_top" xlink:title="Fun4All_G4_sPHENIX\l_photonjet">
<polygon fill="none" stroke="#000000" points="205,-297.5 205,-329.5 326,-329.5 326,-297.5 205,-297.5"/>
<text text-anchor="start" x="213" y="-316.5" font-family="FreeSans" font-size="10.00" fill="#000000">Fun4All_G4_sPHENIX</text>
<text text-anchor="middle" x="265.5" y="-304.5" font-family="FreeSans" font-size="10.00" fill="#000000">_photonjet</text>
</a>
</g>
</g>
<!-- Node1&#45;&gt;Node12 -->
<g id="edge11" class="edge">
<title>Node1&#45;&gt;Node12</title>
<path fill="none" stroke="#191970" d="M103.775,-372.1994C125.4171,-362.3979 155.1844,-349.4249 182,-339.5 191.2554,-336.0744 201.1939,-332.7122 210.8719,-329.6021"/>
<polygon fill="#191970" stroke="#191970" points="102.0878,-369.122 94.4428,-376.4573 104.9935,-375.4905 102.0878,-369.122"/>
</g>
<!-- Node13 -->
<g id="node13" class="node">
<title>Node13</title>
<g id="a_node13"><a xlink:href="../../da/d85/Fun4All__G4__sPHENIX__photons_8C.html#a02fbbd59878fe1299f58ed187e7214ba" target="_top" xlink:title="Fun4All_G4_sPHENIX\l_photons">
<polygon fill="none" stroke="#000000" points="205,-246.5 205,-278.5 326,-278.5 326,-246.5 205,-246.5"/>
<text text-anchor="start" x="213" y="-265.5" font-family="FreeSans" font-size="10.00" fill="#000000">Fun4All_G4_sPHENIX</text>
<text text-anchor="middle" x="265.5" y="-253.5" font-family="FreeSans" font-size="10.00" fill="#000000">_photons</text>
</a>
</g>
</g>
<!-- Node1&#45;&gt;Node13 -->
<g id="edge12" class="edge">
<title>Node1&#45;&gt;Node13</title>
<path fill="none" stroke="#191970" d="M88.208,-368.7682C107.8172,-346.9484 143.9474,-310.1404 182,-288.5 189.127,-284.4469 196.9625,-280.9469 204.8907,-277.9469"/>
<polygon fill="#191970" stroke="#191970" points="85.524,-366.5202 81.532,-376.3342 90.7728,-371.1516 85.524,-366.5202"/>
</g>
<!-- Node14 -->
<g id="node14" class="node">
<title>Node14</title>
<g id="a_node14"><a xlink:href="../../de/d55/Fun4All__G4__sPHENIX__truthphotonjet_8C.html#a48a6f4503eaa1b3793d8ae572aa795b9" target="_top" xlink:title="Fun4All_G4_sPHENIX\l_truthphotonjet">
<polygon fill="none" stroke="#000000" points="205,-195.5 205,-227.5 326,-227.5 326,-195.5 205,-195.5"/>
<text text-anchor="start" x="213" y="-214.5" font-family="FreeSans" font-size="10.00" fill="#000000">Fun4All_G4_sPHENIX</text>
<text text-anchor="middle" x="265.5" y="-202.5" font-family="FreeSans" font-size="10.00" fill="#000000">_truthphotonjet</text>
</a>
</g>
</g>
<!-- Node1&#45;&gt;Node14 -->
<g id="edge13" class="edge">
<title>Node1&#45;&gt;Node14</title>
<path fill="none" stroke="#191970" d="M81.9141,-367.3479C97.6359,-335.645 133.2948,-272.3106 182,-237.5 188.9173,-232.556 196.804,-228.5309 204.9048,-225.2592"/>
<polygon fill="#191970" stroke="#191970" points="78.714,-365.9261 77.5189,-376.4533 85.018,-368.9691 78.714,-365.9261"/>
</g>
<!-- Node15 -->
<g id="node15" class="node">
<title>Node15</title>
<g id="a_node15"><a xlink:href="../../d4/dfa/Fun4All__Generator__Display_8C.html#af87924a94b22e18901f0d64805565f09" target="_top" xlink:title="Fun4All_Generator_Display">
<polygon fill="none" stroke="#000000" points="189.5,-156.5 189.5,-176.5 341.5,-176.5 341.5,-156.5 189.5,-156.5"/>
<text text-anchor="middle" x="265.5" y="-163.5" font-family="FreeSans" font-size="10.00" fill="#000000">Fun4All_Generator_Display</text>
</a>
</g>
</g>
<!-- Node1&#45;&gt;Node15 -->
<g id="edge14" class="edge">
<title>Node1&#45;&gt;Node15</title>
<path fill="none" stroke="#191970" d="M78.0099,-366.4727C89.2508,-325.8487 120.4518,-233.6248 182,-186.5 187.3261,-182.4221 193.3598,-179.1598 199.6877,-176.5524"/>
<polygon fill="#191970" stroke="#191970" points="74.5918,-365.7077 75.4134,-376.2707 81.3583,-367.5009 74.5918,-365.7077"/>
</g>
<!-- Node16 -->
<g id="node16" class="node">
<title>Node16</title>
<g id="a_node16"><a xlink:href="../../de/d6b/Fun4All__MCEventGen_8C.html#a4e6d2272e7266684626c0653520558ef" target="_top" xlink:title="Fun4All_MCEventGen">
<polygon fill="none" stroke="#000000" points="204,-117.5 204,-137.5 327,-137.5 327,-117.5 204,-117.5"/>
<text text-anchor="middle" x="265.5" y="-124.5" font-family="FreeSans" font-size="10.00" fill="#000000">Fun4All_MCEventGen</text>
</a>
</g>
</g>
<!-- Node1&#45;&gt;Node16 -->
<g id="edge15" class="edge">
<title>Node1&#45;&gt;Node16</title>
<path fill="none" stroke="#191970" d="M76.0856,-366.487C84.2971,-320.3257 111.1064,-205.892 182,-147.5 188.3284,-142.2876 195.7917,-138.3918 203.6102,-135.4873"/>
<polygon fill="#191970" stroke="#191970" points="72.6181,-366.0027 74.4195,-376.4432 79.5221,-367.1581 72.6181,-366.0027"/>
</g>
<!-- Node17 -->
<g id="node17" class="node">
<title>Node17</title>
<g id="a_node17"><a xlink:href="../../d4/d65/Fun4All__single__particle_8C.html#a8a492b5dbead494bfdddbebde8a49b0e" target="_top" xlink:title="Fun4All_single_particle">
<polygon fill="none" stroke="#000000" points="199.5,-78.5 199.5,-98.5 331.5,-98.5 331.5,-78.5 199.5,-78.5"/>
<text text-anchor="middle" x="265.5" y="-85.5" font-family="FreeSans" font-size="10.00" fill="#000000">Fun4All_single_particle</text>
</a>
</g>
</g>
<!-- Node1&#45;&gt;Node17 -->
<g id="edge16" class="edge">
<title>Node1&#45;&gt;Node17</title>
<path fill="none" stroke="#191970" d="M74.7093,-366.0997C80.1619,-314.5593 101.8319,-178.2631 182,-108.5 187.0602,-104.0965 192.9216,-100.6232 199.146,-97.889"/>
<polygon fill="#191970" stroke="#191970" points="71.2043,-365.9851 73.7322,-376.2739 78.1723,-366.6544 71.2043,-365.9851"/>
</g>
<!-- Node18 -->
<g id="node18" class="node">
<title>Node18</title>
<g id="a_node18"><a xlink:href="../../dc/dad/generate__hepmc__bjet_8C.html#a43ba01d330c72134968f8e6fddb1790a" target="_top" xlink:title="generate_hepmc_bjet">
<polygon fill="none" stroke="#000000" points="202,-39.5 202,-59.5 329,-59.5 329,-39.5 202,-39.5"/>
<text text-anchor="middle" x="265.5" y="-46.5" font-family="FreeSans" font-size="10.00" fill="#000000">generate_hepmc_bjet</text>
</a>
</g>
</g>
<!-- Node1&#45;&gt;Node18 -->
<g id="edge17" class="edge">
<title>Node1&#45;&gt;Node18</title>
<path fill="none" stroke="#191970" d="M77.2706,-366.3777C91.0447,-303.3092 136.0762,-111.2101 182,-69.5 187.738,-64.2885 194.5901,-60.369 201.867,-57.4316"/>
<polygon fill="#191970" stroke="#191970" points="73.8216,-365.7687 75.1342,-376.2819 80.6642,-367.2448 73.8216,-365.7687"/>
</g>
<!-- Node19 -->
<g id="node19" class="node">
<title>Node19</title>
<g id="a_node19"><a xlink:href="../../d0/d99/Jin__BJet_8C.html#a36169bfee2ed7efda633944d12aebad9" target="_top" xlink:title="Jin_BJet">
<polygon fill="none" stroke="#000000" points="238,-.5 238,-20.5 293,-20.5 293,-.5 238,-.5"/>
<text text-anchor="middle" x="265.5" y="-7.5" font-family="FreeSans" font-size="10.00" fill="#000000">Jin_BJet</text>
</a>
</g>
</g>
<!-- Node1&#45;&gt;Node19 -->
<g id="edge18" class="edge">
<title>Node1&#45;&gt;Node19</title>
<path fill="none" stroke="#191970" d="M76.5051,-366.2001C88.6898,-297.9248 131.2413,-78.2041 182,-30.5 196.8813,-16.5142 219.7488,-11.7697 237.7927,-10.3809"/>
<polygon fill="#191970" stroke="#191970" points="72.9847,-366.0112 74.6996,-376.4663 79.8789,-367.2237 72.9847,-366.0112"/>
</g>
</g>
</svg>
