<?xml version="1.0" encoding="UTF-8" standalone="no"?>
<!DOCTYPE svg PUBLIC "-//W3C//DTD SVG 1.1//EN"
 "http://www.w3.org/Graphics/SVG/1.1/DTD/svg11.dtd">
<!-- Generated by graphviz version 2.40.1 (20161225.0304)
 -->
<!-- Title: PHG4TpcDigitizer::SetADCThreshold Pages: 1 -->
<svg width="500pt" height="87pt"
 viewBox="0.00 0.00 500.00 87.00" xmlns="http://www.w3.org/2000/svg" xmlns:xlink="http://www.w3.org/1999/xlink">
<g id="graph0" class="graph" transform="scale(1 1) rotate(0) translate(4 83)">
<title>PHG4TpcDigitizer::SetADCThreshold</title>
<!-- Node1 -->
<g id="node1" class="node">
<title>Node1</title>
<polygon fill="#bfbfbf" stroke="#000000" points="0,-38.5 0,-58.5 199,-58.5 199,-38.5 0,-38.5"/>
<text text-anchor="middle" x="99.5" y="-45.5" font-family="FreeSans" font-size="10.00" fill="#000000">PHG4TpcDigitizer::SetADCThreshold</text>
</g>
<!-- Node2 -->
<g id="node2" class="node">
<title>Node2</title>
<g id="a_node2"><a xlink:href="../../db/da1/Fun4All__G4__TPC_8C.html#af60bcd3cf09ebd567e28ede14e9e894a" target="_top" xlink:title="Fun4All_G4_TPC">
<polygon fill="none" stroke="#000000" points="235,-58.5 235,-78.5 332,-78.5 332,-58.5 235,-58.5"/>
<text text-anchor="middle" x="283.5" y="-65.5" font-family="FreeSans" font-size="10.00" fill="#000000">Fun4All_G4_TPC</text>
</a>
</g>
</g>
<!-- Node1&#45;&gt;Node2 -->
<g id="edge1" class="edge">
<title>Node1&#45;&gt;Node2</title>
<path fill="none" stroke="#191970" d="M201.867,-59.6269C213.3144,-60.8711 224.5449,-62.0918 234.8374,-63.2106"/>
<polygon fill="#191970" stroke="#191970" points="202.0892,-56.1305 191.7695,-58.5293 201.3327,-63.0895 202.0892,-56.1305"/>
</g>
<!-- Node3 -->
<g id="node3" class="node">
<title>Node3</title>
<g id="a_node3"><a xlink:href="../../da/d3c/G4__Tracking_8C.html#af2e3ad3bfe6a11f216bd8aed180c4b0e" target="_top" xlink:title="Tracking_Clus">
<polygon fill="none" stroke="#000000" points="240.5,-19.5 240.5,-39.5 326.5,-39.5 326.5,-19.5 240.5,-19.5"/>
<text text-anchor="middle" x="283.5" y="-26.5" font-family="FreeSans" font-size="10.00" fill="#000000">Tracking_Clus</text>
</a>
</g>
</g>
<!-- Node1&#45;&gt;Node3 -->
<g id="edge2" class="edge">
<title>Node1&#45;&gt;Node3</title>
<path fill="none" stroke="#191970" d="M206.4187,-37.4595C218.3313,-36.2294 229.9011,-35.0347 240.3002,-33.9608"/>
<polygon fill="#191970" stroke="#191970" points="205.9371,-33.9905 196.3496,-38.4992 206.6562,-40.9535 205.9371,-33.9905"/>
</g>
<!-- Node4 -->
<g id="node4" class="node">
<title>Node4</title>
<g id="a_node4"><a xlink:href="../../d7/d9e/Fun4All__G4__fsPHENIX_8C.html#af48911d394d2412e817583700f2bbee2" target="_top" xlink:title="Fun4All_G4_fsPHENIX">
<polygon fill="none" stroke="#000000" points="368,-39.5 368,-59.5 492,-59.5 492,-39.5 368,-39.5"/>
<text text-anchor="middle" x="430" y="-46.5" font-family="FreeSans" font-size="10.00" fill="#000000">Fun4All_G4_fsPHENIX</text>
</a>
</g>
</g>
<!-- Node3&#45;&gt;Node4 -->
<g id="edge3" class="edge">
<title>Node3&#45;&gt;Node4</title>
<path fill="none" stroke="#191970" d="M336.5986,-36.749C346.7537,-38.1353 357.469,-39.5982 367.8774,-41.0191"/>
<polygon fill="#191970" stroke="#191970" points="337.044,-33.2774 326.6625,-35.3925 336.0971,-40.213 337.044,-33.2774"/>
</g>
<!-- Node5 -->
<g id="node5" class="node">
<title>Node5</title>
<g id="a_node5"><a xlink:href="../../d5/d2c/macros_2blob_2master_2macros_2g4simulations_2Fun4All__G4__sPHENIX_8C.html#a6eaaa492d7023ec86c562dc63aa1e5a4" target="_top" xlink:title="Fun4All_G4_sPHENIX">
<polygon fill="none" stroke="#000000" points="369.5,-.5 369.5,-20.5 490.5,-20.5 490.5,-.5 369.5,-.5"/>
<text text-anchor="middle" x="430" y="-7.5" font-family="FreeSans" font-size="10.00" fill="#000000">Fun4All_G4_sPHENIX</text>
</a>
</g>
</g>
<!-- Node3&#45;&gt;Node5 -->
<g id="edge4" class="edge">
<title>Node3&#45;&gt;Node5</title>
<path fill="none" stroke="#191970" d="M336.6028,-22.613C347.1991,-21.2387 358.4053,-19.7853 369.2362,-18.3806"/>
<polygon fill="#191970" stroke="#191970" points="336.1292,-19.145 326.6625,-23.9021 337.0296,-26.0868 336.1292,-19.145"/>
</g>
</g>
</svg>
