<?xml version="1.0" encoding="UTF-8" standalone="no"?>
<!DOCTYPE svg PUBLIC "-//W3C//DTD SVG 1.1//EN"
 "http://www.w3.org/Graphics/SVG/1.1/DTD/svg11.dtd">
<!-- Generated by graphviz version 2.40.1 (20161225.0304)
 -->
<!-- Title: PHG4TpcDigitizer::SetENC Pages: 1 -->
<svg width="450pt" height="87pt"
 viewBox="0.00 0.00 450.00 87.00" xmlns="http://www.w3.org/2000/svg" xmlns:xlink="http://www.w3.org/1999/xlink">
<g id="graph0" class="graph" transform="scale(1 1) rotate(0) translate(4 83)">
<title>PHG4TpcDigitizer::SetENC</title>
<!-- Node1 -->
<g id="node1" class="node">
<title>Node1</title>
<polygon fill="#bfbfbf" stroke="#000000" points="0,-38.5 0,-58.5 149,-58.5 149,-38.5 0,-38.5"/>
<text text-anchor="middle" x="74.5" y="-45.5" font-family="FreeSans" font-size="10.00" fill="#000000">PHG4TpcDigitizer::SetENC</text>
</g>
<!-- Node2 -->
<g id="node2" class="node">
<title>Node2</title>
<g id="a_node2"><a xlink:href="../../db/da1/Fun4All__G4__TPC_8C.html#af60bcd3cf09ebd567e28ede14e9e894a" target="_top" xlink:title="Fun4All_G4_TPC">
<polygon fill="none" stroke="#000000" points="185,-58.5 185,-78.5 282,-78.5 282,-58.5 185,-58.5"/>
<text text-anchor="middle" x="233.5" y="-65.5" font-family="FreeSans" font-size="10.00" fill="#000000">Fun4All_G4_TPC</text>
</a>
</g>
</g>
<!-- Node1&#45;&gt;Node2 -->
<g id="edge1" class="edge">
<title>Node1&#45;&gt;Node2</title>
<path fill="none" stroke="#191970" d="M159.5475,-59.1978C168.2258,-60.2894 176.8156,-61.3699 184.9004,-62.3868"/>
<polygon fill="#191970" stroke="#191970" points="159.7028,-55.6898 149.3442,-57.9144 158.8291,-62.6351 159.7028,-55.6898"/>
</g>
<!-- Node3 -->
<g id="node3" class="node">
<title>Node3</title>
<g id="a_node3"><a xlink:href="../../da/d3c/G4__Tracking_8C.html#af2e3ad3bfe6a11f216bd8aed180c4b0e" target="_top" xlink:title="Tracking_Clus">
<polygon fill="none" stroke="#000000" points="190.5,-19.5 190.5,-39.5 276.5,-39.5 276.5,-19.5 190.5,-19.5"/>
<text text-anchor="middle" x="233.5" y="-26.5" font-family="FreeSans" font-size="10.00" fill="#000000">Tracking_Clus</text>
</a>
</g>
</g>
<!-- Node1&#45;&gt;Node3 -->
<g id="edge2" class="edge">
<title>Node1&#45;&gt;Node3</title>
<path fill="none" stroke="#191970" d="M159.5362,-38.3384C170.1502,-37.0701 180.6321,-35.8176 190.2199,-34.6718"/>
<polygon fill="#191970" stroke="#191970" points="158.8582,-34.8945 149.3442,-39.5564 159.6888,-41.845 158.8582,-34.8945"/>
</g>
<!-- Node4 -->
<g id="node4" class="node">
<title>Node4</title>
<g id="a_node4"><a xlink:href="../../d7/d9e/Fun4All__G4__fsPHENIX_8C.html#af48911d394d2412e817583700f2bbee2" target="_top" xlink:title="Fun4All_G4_fsPHENIX">
<polygon fill="none" stroke="#000000" points="318,-39.5 318,-59.5 442,-59.5 442,-39.5 318,-39.5"/>
<text text-anchor="middle" x="380" y="-46.5" font-family="FreeSans" font-size="10.00" fill="#000000">Fun4All_G4_fsPHENIX</text>
</a>
</g>
</g>
<!-- Node3&#45;&gt;Node4 -->
<g id="edge3" class="edge">
<title>Node3&#45;&gt;Node4</title>
<path fill="none" stroke="#191970" d="M286.5986,-36.749C296.7537,-38.1353 307.469,-39.5982 317.8774,-41.0191"/>
<polygon fill="#191970" stroke="#191970" points="287.044,-33.2774 276.6625,-35.3925 286.0971,-40.213 287.044,-33.2774"/>
</g>
<!-- Node5 -->
<g id="node5" class="node">
<title>Node5</title>
<g id="a_node5"><a xlink:href="../../d5/d2c/macros_2blob_2master_2macros_2g4simulations_2Fun4All__G4__sPHENIX_8C.html#a6eaaa492d7023ec86c562dc63aa1e5a4" target="_top" xlink:title="Fun4All_G4_sPHENIX">
<polygon fill="none" stroke="#000000" points="319.5,-.5 319.5,-20.5 440.5,-20.5 440.5,-.5 319.5,-.5"/>
<text text-anchor="middle" x="380" y="-7.5" font-family="FreeSans" font-size="10.00" fill="#000000">Fun4All_G4_sPHENIX</text>
</a>
</g>
</g>
<!-- Node3&#45;&gt;Node5 -->
<g id="edge4" class="edge">
<title>Node3&#45;&gt;Node5</title>
<path fill="none" stroke="#191970" d="M286.6028,-22.613C297.1991,-21.2387 308.4053,-19.7853 319.2362,-18.3806"/>
<polygon fill="#191970" stroke="#191970" points="286.1292,-19.145 276.6625,-23.9021 287.0296,-26.0868 286.1292,-19.145"/>
</g>
</g>
</svg>
