<?xml version="1.0" encoding="UTF-8" standalone="no"?>
<!DOCTYPE svg PUBLIC "-//W3C//DTD SVG 1.1//EN"
 "http://www.w3.org/Graphics/SVG/1.1/DTD/svg11.dtd">
<!-- Generated by graphviz version 2.40.1 (20161225.0304)
 -->
<!-- Title: Jet_Reco Pages: 1 -->
<svg width="340pt" height="710pt"
 viewBox="0.00 0.00 340.00 710.00" xmlns="http://www.w3.org/2000/svg" xmlns:xlink="http://www.w3.org/1999/xlink">
<g id="graph0" class="graph" transform="scale(1 1) rotate(0) translate(4 706)">
<title>Jet_Reco</title>
<!-- Node1 -->
<g id="node1" class="node">
<title>Node1</title>
<polygon fill="#bfbfbf" stroke="#000000" points="0,-343.5 0,-363.5 59,-363.5 59,-343.5 0,-343.5"/>
<text text-anchor="middle" x="29.5" y="-350.5" font-family="FreeSans" font-size="10.00" fill="#000000">Jet_Reco</text>
</g>
<!-- Node2 -->
<g id="node2" class="node">
<title>Node2</title>
<g id="a_node2"><a xlink:href="../../d3/d7f/Fun_8C.html#af0d3c8a78765149fef9b2beeecfc6279" target="_top" xlink:title="ConfigureDetectors">
<polygon fill="none" stroke="#000000" points="121.5,-681.5 121.5,-701.5 235.5,-701.5 235.5,-681.5 121.5,-681.5"/>
<text text-anchor="middle" x="178.5" y="-688.5" font-family="FreeSans" font-size="10.00" fill="#000000">ConfigureDetectors</text>
</a>
</g>
</g>
<!-- Node1&#45;&gt;Node2 -->
<g id="edge1" class="edge">
<title>Node1&#45;&gt;Node2</title>
<path fill="none" stroke="#191970" d="M30.8738,-374.0518C35.545,-437.647 52.9255,-629.5231 95,-672.5 102.1763,-679.8303 111.5502,-684.5893 121.4157,-687.6308"/>
<polygon fill="#191970" stroke="#191970" points="34.3411,-373.4639 30.1464,-363.7348 27.3585,-373.9563 34.3411,-373.4639"/>
</g>
<!-- Node4 -->
<g id="node4" class="node">
<title>Node4</title>
<g id="a_node4"><a xlink:href="../../da/d02/Fun4All__G4__EICDetector_8C.html#afbe82cefa1d1fd031d9a8586b7bb68c6" target="_top" xlink:title="Fun4All_G4_EICDetector">
<polygon fill="none" stroke="#000000" points="109,-642.5 109,-662.5 248,-662.5 248,-642.5 109,-642.5"/>
<text text-anchor="middle" x="178.5" y="-649.5" font-family="FreeSans" font-size="10.00" fill="#000000">Fun4All_G4_EICDetector</text>
</a>
</g>
</g>
<!-- Node1&#45;&gt;Node4 -->
<g id="edge3" class="edge">
<title>Node1&#45;&gt;Node4</title>
<path fill="none" stroke="#191970" d="M31.4833,-373.7932C37.5632,-431.8042 57.8216,-596.5462 95,-633.5 99.0069,-637.4827 103.664,-640.7016 108.6901,-643.2958"/>
<polygon fill="#191970" stroke="#191970" points="34.9491,-373.2783 30.4555,-363.6836 27.985,-373.9863 34.9491,-373.2783"/>
</g>
<!-- Node5 -->
<g id="node5" class="node">
<title>Node5</title>
<g id="a_node5"><a xlink:href="../../df/d4b/Fun4All__G4__EICDetector__LQ__analysis_8C.html#af903e98824d083a08b353ac15996ee0e" target="_top" xlink:title="Fun4All_G4_EICDetector\l_LQ_analysis">
<polygon fill="none" stroke="#000000" points="109,-591.5 109,-623.5 248,-623.5 248,-591.5 109,-591.5"/>
<text text-anchor="start" x="117" y="-610.5" font-family="FreeSans" font-size="10.00" fill="#000000">Fun4All_G4_EICDetector</text>
<text text-anchor="middle" x="178.5" y="-598.5" font-family="FreeSans" font-size="10.00" fill="#000000">_LQ_analysis</text>
</a>
</g>
</g>
<!-- Node1&#45;&gt;Node5 -->
<g id="edge4" class="edge">
<title>Node1&#45;&gt;Node5</title>
<path fill="none" stroke="#191970" d="M32.717,-373.557C41.1313,-423.6437 65.215,-552.3458 95,-582.5 99.0409,-586.591 103.722,-590.0184 108.7642,-592.8889"/>
<polygon fill="#191970" stroke="#191970" points="36.1589,-372.9172 31.0811,-363.6185 29.2518,-374.0542 36.1589,-372.9172"/>
</g>
<!-- Node6 -->
<g id="node6" class="node">
<title>Node6</title>
<g id="a_node6"><a xlink:href="../../d1/daf/Fun4All__G4__EICDetector__LQ__analysis__nf_8C.html#a5022607d21247b87dd208b0828905147" target="_top" xlink:title="Fun4All_G4_EICDetector\l_LQ_analysis_nf">
<polygon fill="none" stroke="#000000" points="109,-540.5 109,-572.5 248,-572.5 248,-540.5 109,-540.5"/>
<text text-anchor="start" x="117" y="-559.5" font-family="FreeSans" font-size="10.00" fill="#000000">Fun4All_G4_EICDetector</text>
<text text-anchor="middle" x="178.5" y="-547.5" font-family="FreeSans" font-size="10.00" fill="#000000">_LQ_analysis_nf</text>
</a>
</g>
</g>
<!-- Node1&#45;&gt;Node6 -->
<g id="edge5" class="edge">
<title>Node1&#45;&gt;Node6</title>
<path fill="none" stroke="#191970" d="M31.1472,-373.6407C35.2378,-410.3604 49.1246,-488.3709 95,-531.5 99.0793,-535.3351 103.7237,-538.5838 108.6846,-541.3356"/>
<polygon fill="#191970" stroke="#191970" points="34.6273,-373.2655 30.1677,-363.655 27.6608,-373.9489 34.6273,-373.2655"/>
</g>
<!-- Node7 -->
<g id="node7" class="node">
<title>Node7</title>
<g id="a_node7"><a xlink:href="../../d4/df5/Fun4All__G4__EICDetector__LQ__reference_8C.html#a2feefc472f17f90b3cbe74897d049f75" target="_top" xlink:title="Fun4All_G4_EICDetector\l_LQ_reference">
<polygon fill="none" stroke="#000000" points="109,-489.5 109,-521.5 248,-521.5 248,-489.5 109,-489.5"/>
<text text-anchor="start" x="117" y="-508.5" font-family="FreeSans" font-size="10.00" fill="#000000">Fun4All_G4_EICDetector</text>
<text text-anchor="middle" x="178.5" y="-496.5" font-family="FreeSans" font-size="10.00" fill="#000000">_LQ_reference</text>
</a>
</g>
</g>
<!-- Node1&#45;&gt;Node7 -->
<g id="edge6" class="edge">
<title>Node1&#45;&gt;Node7</title>
<path fill="none" stroke="#191970" d="M34.5288,-373.6757C42.5595,-401.7287 60.958,-452.2451 95,-480.5 99.1919,-483.9792 103.856,-486.9743 108.7767,-489.5526"/>
<polygon fill="#191970" stroke="#191970" points="37.8479,-372.5411 31.8664,-363.7963 31.0891,-374.3626 37.8479,-372.5411"/>
</g>
<!-- Node8 -->
<g id="node8" class="node">
<title>Node8</title>
<g id="a_node8"><a xlink:href="../../d3/d51/Fun4All__G4__EICDetector__RICH_8C.html#a5739502b0a7a1ba782c01069f77e933f" target="_top" xlink:title="Fun4All_G4_EICDetector_RICH">
<polygon fill="none" stroke="#000000" points="95,-450.5 95,-470.5 262,-470.5 262,-450.5 95,-450.5"/>
<text text-anchor="middle" x="178.5" y="-457.5" font-family="FreeSans" font-size="10.00" fill="#000000">Fun4All_G4_EICDetector_RICH</text>
</a>
</g>
</g>
<!-- Node1&#45;&gt;Node8 -->
<g id="edge7" class="edge">
<title>Node1&#45;&gt;Node8</title>
<path fill="none" stroke="#191970" d="M38.4638,-372.4516C49.07,-392.7494 68.6687,-424.3485 95,-441.5 100.6058,-445.1515 106.8209,-448.1063 113.2579,-450.4966"/>
<polygon fill="#191970" stroke="#191970" points="41.5938,-370.8851 33.9894,-363.5079 35.3335,-374.0171 41.5938,-370.8851"/>
</g>
<!-- Node9 -->
<g id="node9" class="node">
<title>Node9</title>
<g id="a_node9"><a xlink:href="../../d7/d9e/Fun4All__G4__fsPHENIX_8C.html#af48911d394d2412e817583700f2bbee2" target="_top" xlink:title="Fun4All_G4_fsPHENIX">
<polygon fill="none" stroke="#000000" points="116.5,-411.5 116.5,-431.5 240.5,-431.5 240.5,-411.5 116.5,-411.5"/>
<text text-anchor="middle" x="178.5" y="-418.5" font-family="FreeSans" font-size="10.00" fill="#000000">Fun4All_G4_fsPHENIX</text>
</a>
</g>
</g>
<!-- Node1&#45;&gt;Node9 -->
<g id="edge8" class="edge">
<title>Node1&#45;&gt;Node9</title>
<path fill="none" stroke="#191970" d="M47.9374,-370.6303C60.3662,-381.2933 77.6136,-394.4629 95,-402.5 102.8271,-406.1182 111.3936,-409.0722 119.9628,-411.4772"/>
<polygon fill="#191970" stroke="#191970" points="49.9668,-367.7524 40.1601,-363.7426 45.3258,-372.9928 49.9668,-367.7524"/>
</g>
<!-- Node10 -->
<g id="node10" class="node">
<title>Node10</title>
<g id="a_node10"><a xlink:href="../../da/d2f/Fun4All__G4__fsPHENIX__FastSim_8C.html#a66fb850cae5fcaadda23b74a25ce4c9c" target="_top" xlink:title="Fun4All_G4_fsPHENIX\l_FastSim">
<polygon fill="none" stroke="#000000" points="116.5,-360.5 116.5,-392.5 240.5,-392.5 240.5,-360.5 116.5,-360.5"/>
<text text-anchor="start" x="124.5" y="-379.5" font-family="FreeSans" font-size="10.00" fill="#000000">Fun4All_G4_fsPHENIX</text>
<text text-anchor="middle" x="178.5" y="-367.5" font-family="FreeSans" font-size="10.00" fill="#000000">_FastSim</text>
</a>
</g>
</g>
<!-- Node1&#45;&gt;Node10 -->
<g id="edge9" class="edge">
<title>Node1&#45;&gt;Node10</title>
<path fill="none" stroke="#191970" d="M69.3794,-359.6559C83.8313,-361.8867 100.5184,-364.4626 116.4274,-366.9183"/>
<polygon fill="#191970" stroke="#191970" points="69.7112,-356.1657 59.2943,-358.0991 68.6432,-363.0838 69.7112,-356.1657"/>
</g>
<!-- Node11 -->
<g id="node11" class="node">
<title>Node11</title>
<g id="a_node11"><a xlink:href="../../d0/da6/Fun4All__G4__fsPHENIX__pi0_8C.html#a023d91d47b678e5d7f1751834aa517c6" target="_top" xlink:title="Fun4All_G4_fsPHENIX_pi0">
<polygon fill="none" stroke="#000000" points="106,-321.5 106,-341.5 251,-341.5 251,-321.5 106,-321.5"/>
<text text-anchor="middle" x="178.5" y="-328.5" font-family="FreeSans" font-size="10.00" fill="#000000">Fun4All_G4_fsPHENIX_pi0</text>
</a>
</g>
</g>
<!-- Node1&#45;&gt;Node11 -->
<g id="edge10" class="edge">
<title>Node1&#45;&gt;Node11</title>
<path fill="none" stroke="#191970" d="M69.4819,-347.5966C82.1409,-345.7275 96.5068,-343.6064 110.5591,-341.5315"/>
<polygon fill="#191970" stroke="#191970" points="68.6757,-344.1776 59.2943,-349.1008 69.6983,-351.1026 68.6757,-344.1776"/>
</g>
<!-- Node12 -->
<g id="node12" class="node">
<title>Node12</title>
<g id="a_node12"><a xlink:href="../../d5/d2c/macros_2blob_2master_2macros_2g4simulations_2Fun4All__G4__sPHENIX_8C.html#a6eaaa492d7023ec86c562dc63aa1e5a4" target="_top" xlink:title="Fun4All_G4_sPHENIX">
<polygon fill="none" stroke="#000000" points="118,-282.5 118,-302.5 239,-302.5 239,-282.5 118,-282.5"/>
<text text-anchor="middle" x="178.5" y="-289.5" font-family="FreeSans" font-size="10.00" fill="#000000">Fun4All_G4_sPHENIX</text>
</a>
</g>
</g>
<!-- Node1&#45;&gt;Node12 -->
<g id="edge11" class="edge">
<title>Node1&#45;&gt;Node12</title>
<path fill="none" stroke="#191970" d="M51.0964,-337.4831C63.4213,-328.9985 79.4702,-319.0145 95,-312.5 104.4848,-308.5213 114.9228,-305.2344 125.111,-302.5554"/>
<polygon fill="#191970" stroke="#191970" points="48.982,-334.6917 42.8409,-343.3252 53.0255,-340.4057 48.982,-334.6917"/>
</g>
<!-- Node13 -->
<g id="node13" class="node">
<title>Node13</title>
<g id="a_node13"><a xlink:href="../../d3/de2/Fun4All__G4__sPHENIX__AnaGenFit_8C.html#a9bf3f2f72ed69a17e2d0c1121d48013c" target="_top" xlink:title="Fun4All_G4_sPHENIX\l_AnaGenFit">
<polygon fill="none" stroke="#000000" points="118,-231.5 118,-263.5 239,-263.5 239,-231.5 118,-231.5"/>
<text text-anchor="start" x="126" y="-250.5" font-family="FreeSans" font-size="10.00" fill="#000000">Fun4All_G4_sPHENIX</text>
<text text-anchor="middle" x="178.5" y="-238.5" font-family="FreeSans" font-size="10.00" fill="#000000">_AnaGenFit</text>
</a>
</g>
</g>
<!-- Node1&#45;&gt;Node13 -->
<g id="edge12" class="edge">
<title>Node1&#45;&gt;Node13</title>
<path fill="none" stroke="#191970" d="M40.341,-334.703C51.741,-316.5354 71.3005,-289.4814 95,-273.5 101.9236,-268.8312 109.7263,-264.9684 117.711,-261.7808"/>
<polygon fill="#191970" stroke="#191970" points="37.3288,-332.9205 35.1447,-343.2877 43.3172,-336.5453 37.3288,-332.9205"/>
</g>
<!-- Node14 -->
<g id="node14" class="node">
<title>Node14</title>
<g id="a_node14"><a xlink:href="../../da/dd0/Fun4All__G4__sPHENIX__photonjet_8C.html#a6f18519e216acc05399e562ea57ea77c" target="_top" xlink:title="Fun4All_G4_sPHENIX\l_photonjet">
<polygon fill="none" stroke="#000000" points="118,-180.5 118,-212.5 239,-212.5 239,-180.5 118,-180.5"/>
<text text-anchor="start" x="126" y="-199.5" font-family="FreeSans" font-size="10.00" fill="#000000">Fun4All_G4_sPHENIX</text>
<text text-anchor="middle" x="178.5" y="-187.5" font-family="FreeSans" font-size="10.00" fill="#000000">_photonjet</text>
</a>
</g>
</g>
<!-- Node1&#45;&gt;Node14 -->
<g id="edge13" class="edge">
<title>Node1&#45;&gt;Node14</title>
<path fill="none" stroke="#191970" d="M34.1697,-333.5579C41.911,-304.8672 60.126,-252.1436 95,-222.5 101.7097,-216.7966 109.6652,-212.343 117.9575,-208.8656"/>
<polygon fill="#191970" stroke="#191970" points="30.7702,-332.7252 31.7027,-343.2789 37.5551,-334.4471 30.7702,-332.7252"/>
</g>
<!-- Node15 -->
<g id="node15" class="node">
<title>Node15</title>
<g id="a_node15"><a xlink:href="../../da/d85/Fun4All__G4__sPHENIX__photons_8C.html#a02fbbd59878fe1299f58ed187e7214ba" target="_top" xlink:title="Fun4All_G4_sPHENIX\l_photons">
<polygon fill="none" stroke="#000000" points="118,-129.5 118,-161.5 239,-161.5 239,-129.5 118,-129.5"/>
<text text-anchor="start" x="126" y="-148.5" font-family="FreeSans" font-size="10.00" fill="#000000">Fun4All_G4_sPHENIX</text>
<text text-anchor="middle" x="178.5" y="-136.5" font-family="FreeSans" font-size="10.00" fill="#000000">_photons</text>
</a>
</g>
</g>
<!-- Node1&#45;&gt;Node15 -->
<g id="edge14" class="edge">
<title>Node1&#45;&gt;Node15</title>
<path fill="none" stroke="#191970" d="M31.0494,-332.9656C34.98,-295.5173 48.6153,-215.9053 95,-171.5 101.4708,-165.3053 109.3942,-160.585 117.7568,-156.9884"/>
<polygon fill="#191970" stroke="#191970" points="27.5435,-332.8704 30.1156,-343.1482 34.5143,-333.5097 27.5435,-332.8704"/>
</g>
<!-- Node16 -->
<g id="node16" class="node">
<title>Node16</title>
<g id="a_node16"><a xlink:href="../../de/d55/Fun4All__G4__sPHENIX__truthphotonjet_8C.html#a48a6f4503eaa1b3793d8ae572aa795b9" target="_top" xlink:title="Fun4All_G4_sPHENIX\l_truthphotonjet">
<polygon fill="none" stroke="#000000" points="118,-78.5 118,-110.5 239,-110.5 239,-78.5 118,-78.5"/>
<text text-anchor="start" x="126" y="-97.5" font-family="FreeSans" font-size="10.00" fill="#000000">Fun4All_G4_sPHENIX</text>
<text text-anchor="middle" x="178.5" y="-85.5" font-family="FreeSans" font-size="10.00" fill="#000000">_truthphotonjet</text>
</a>
</g>
</g>
<!-- Node1&#45;&gt;Node16 -->
<g id="edge15" class="edge">
<title>Node1&#45;&gt;Node16</title>
<path fill="none" stroke="#191970" d="M32.6316,-333.4608C40.926,-282.8023 64.904,-151.445 95,-120.5 101.3514,-113.9694 109.3124,-109.0718 117.7795,-105.4005"/>
<polygon fill="#191970" stroke="#191970" points="29.1506,-333.0636 31.0229,-343.4917 36.0623,-334.1721 29.1506,-333.0636"/>
</g>
<!-- Node17 -->
<g id="node17" class="node">
<title>Node17</title>
<g id="a_node17"><a xlink:href="../../d4/d65/Fun4All__single__particle_8C.html#a8a492b5dbead494bfdddbebde8a49b0e" target="_top" xlink:title="Fun4All_single_particle">
<polygon fill="none" stroke="#000000" points="112.5,-39.5 112.5,-59.5 244.5,-59.5 244.5,-39.5 112.5,-39.5"/>
<text text-anchor="middle" x="178.5" y="-46.5" font-family="FreeSans" font-size="10.00" fill="#000000">Fun4All_single_particle</text>
</a>
</g>
</g>
<!-- Node1&#45;&gt;Node17 -->
<g id="edge16" class="edge">
<title>Node1&#45;&gt;Node17</title>
<path fill="none" stroke="#191970" d="M31.4208,-333.3326C37.3903,-274.911 57.5065,-107.3106 95,-69.5 99.9331,-64.5251 105.8694,-60.7028 112.2742,-57.7776"/>
<polygon fill="#191970" stroke="#191970" points="27.9174,-333.194 30.4145,-343.4904 34.8833,-333.8841 27.9174,-333.194"/>
</g>
<!-- Node18 -->
<g id="node18" class="node">
<title>Node18</title>
<g id="a_node18"><a xlink:href="../../d0/d99/Jin__BJet_8C.html#a36169bfee2ed7efda633944d12aebad9" target="_top" xlink:title="Jin_BJet">
<polygon fill="none" stroke="#000000" points="151,-.5 151,-20.5 206,-20.5 206,-.5 151,-.5"/>
<text text-anchor="middle" x="178.5" y="-7.5" font-family="FreeSans" font-size="10.00" fill="#000000">Jin_BJet</text>
</a>
</g>
</g>
<!-- Node1&#45;&gt;Node18 -->
<g id="edge17" class="edge">
<title>Node1&#45;&gt;Node18</title>
<path fill="none" stroke="#191970" d="M30.8257,-333.1387C35.3994,-269.249 52.6267,-74.3838 95,-30.5 109.289,-15.7016 132.4368,-11.046 150.7403,-9.8982"/>
<polygon fill="#191970" stroke="#191970" points="27.3091,-333.2619 30.1158,-343.4782 34.2927,-333.7415 27.3091,-333.2619"/>
</g>
<!-- Node3 -->
<g id="node3" class="node">
<title>Node3</title>
<g id="a_node3"><a xlink:href="../../d3/d7f/Fun_8C.html#af69a3eef3ff244bb51f5740c6ecb5432" target="_top" xlink:title="Fun">
<polygon fill="none" stroke="#000000" points="298,-681.5 298,-701.5 332,-701.5 332,-681.5 298,-681.5"/>
<text text-anchor="middle" x="315" y="-688.5" font-family="FreeSans" font-size="10.00" fill="#000000">Fun</text>
</a>
</g>
</g>
<!-- Node2&#45;&gt;Node3 -->
<g id="edge2" class="edge">
<title>Node2&#45;&gt;Node3</title>
<path fill="none" stroke="#191970" d="M245.6941,-691.5C265.0852,-691.5 284.59,-691.5 297.9452,-691.5"/>
<polygon fill="#191970" stroke="#191970" points="245.5974,-688.0001 235.5974,-691.5 245.5974,-695.0001 245.5974,-688.0001"/>
</g>
</g>
</svg>
