<?xml version="1.0" encoding="UTF-8" standalone="no"?>
<!DOCTYPE svg PUBLIC "-//W3C//DTD SVG 1.1//EN"
 "http://www.w3.org/Graphics/SVG/1.1/DTD/svg11.dtd">
<!-- Generated by graphviz version 2.40.1 (20161225.0304)
 -->
<!-- Title: PHG4GDMLWrite::SetupWrite Pages: 1 -->
<svg width="1221pt" height="185pt"
 viewBox="0.00 0.00 1221.00 185.00" xmlns="http://www.w3.org/2000/svg" xmlns:xlink="http://www.w3.org/1999/xlink">
<g id="graph0" class="graph" transform="scale(1 1) rotate(0) translate(4 181)">
<title>PHG4GDMLWrite::SetupWrite</title>
<!-- Node1 -->
<g id="node1" class="node">
<title>Node1</title>
<polygon fill="#bfbfbf" stroke="#000000" points="0,-55.5 0,-75.5 162,-75.5 162,-55.5 0,-55.5"/>
<text text-anchor="middle" x="81" y="-62.5" font-family="FreeSans" font-size="10.00" fill="#000000">PHG4GDMLWrite::SetupWrite</text>
</g>
<!-- Node2 -->
<g id="node2" class="node">
<title>Node2</title>
<g id="a_node2"><a xlink:href="../../dd/db5/classPHG4GDMLWrite.html#af4241e53bb71408c9bf11117053f9810" target="_top" xlink:title="PHG4GDMLWrite::Write">
<polygon fill="none" stroke="#000000" points="198,-55.5 198,-75.5 331,-75.5 331,-55.5 198,-55.5"/>
<text text-anchor="middle" x="264.5" y="-62.5" font-family="FreeSans" font-size="10.00" fill="#000000">PHG4GDMLWrite::Write</text>
</a>
</g>
</g>
<!-- Node1&#45;&gt;Node2 -->
<g id="edge1" class="edge">
<title>Node1&#45;&gt;Node2</title>
<path fill="none" stroke="#191970" d="M172.1863,-65.5C180.865,-65.5 189.5505,-65.5 197.932,-65.5"/>
<polygon fill="#191970" stroke="#191970" points="172.02,-62.0001 162.0199,-65.5 172.0199,-69.0001 172.02,-62.0001"/>
</g>
<!-- Node3 -->
<g id="node3" class="node">
<title>Node3</title>
<g id="a_node3"><a xlink:href="../../d9/df8/classPHG4GDMLUtility.html#adb03ec38807279cb5abaf38987c5a73f" target="_top" xlink:title="save the current Geant4 geometry to GDML file. Reading PHG4GDMLConfig from topNode">
<polygon fill="none" stroke="#000000" points="367,-78.5 367,-98.5 542,-98.5 542,-78.5 367,-78.5"/>
<text text-anchor="middle" x="454.5" y="-85.5" font-family="FreeSans" font-size="10.00" fill="#000000">PHG4GDMLUtility::Dump_GDML</text>
</a>
</g>
</g>
<!-- Node2&#45;&gt;Node3 -->
<g id="edge2" class="edge">
<title>Node2&#45;&gt;Node3</title>
<path fill="none" stroke="#191970" d="M341.4463,-74.8146C351.3728,-76.0162 361.5724,-77.2509 371.5897,-78.4635"/>
<polygon fill="#191970" stroke="#191970" points="341.5679,-71.3038 331.2197,-73.5766 340.7266,-78.2531 341.5679,-71.3038"/>
</g>
<!-- Node13 -->
<g id="node13" class="node">
<title>Node13</title>
<g id="a_node13"><a xlink:href="../../d2/d72/classPHG4GDMLWriteStructure.html#a957c6f2d283732660e3eb9c41b982048" target="_top" xlink:title="PHG4GDMLWriteStructure\l::TraverseVolumeTree">
<polygon fill="none" stroke="#000000" points="381.5,-27.5 381.5,-59.5 527.5,-59.5 527.5,-27.5 381.5,-27.5"/>
<text text-anchor="start" x="389.5" y="-46.5" font-family="FreeSans" font-size="10.00" fill="#000000">PHG4GDMLWriteStructure</text>
<text text-anchor="middle" x="454.5" y="-34.5" font-family="FreeSans" font-size="10.00" fill="#000000">::TraverseVolumeTree</text>
</a>
</g>
</g>
<!-- Node2&#45;&gt;Node13 -->
<g id="edge12" class="edge">
<title>Node2&#45;&gt;Node13</title>
<path fill="none" stroke="#191970" d="M341.2562,-56.6124C354.5303,-55.0754 368.2981,-53.4813 381.4699,-51.9561"/>
<polygon fill="#191970" stroke="#191970" points="340.7508,-53.1475 331.2197,-57.7746 341.556,-60.101 340.7508,-53.1475"/>
</g>
<!-- Node4 -->
<g id="node4" class="node">
<title>Node4</title>
<g id="a_node4"><a xlink:href="../../d0/d78/classPHG4Reco.html#a490f5037508d384c5b60855ef0f7e227" target="_top" xlink:title="PHG4Reco::Dump_GDML">
<polygon fill="none" stroke="#000000" points="578,-78.5 578,-98.5 719,-98.5 719,-78.5 578,-78.5"/>
<text text-anchor="middle" x="648.5" y="-85.5" font-family="FreeSans" font-size="10.00" fill="#000000">PHG4Reco::Dump_GDML</text>
</a>
</g>
</g>
<!-- Node3&#45;&gt;Node4 -->
<g id="edge3" class="edge">
<title>Node3&#45;&gt;Node4</title>
<path fill="none" stroke="#191970" d="M552.2462,-88.5C560.8703,-88.5 569.4865,-88.5 577.8221,-88.5"/>
<polygon fill="#191970" stroke="#191970" points="552.1351,-85.0001 542.1351,-88.5 552.135,-92.0001 552.1351,-85.0001"/>
</g>
<!-- Node5 -->
<g id="node5" class="node">
<title>Node5</title>
<g id="a_node5"><a xlink:href="../../d0/d78/classPHG4Reco.html#a9d8228ce8682c19cd6be2f6b44ec847b" target="_top" xlink:title="PHG4Reco::InitRun">
<polygon fill="none" stroke="#000000" points="755,-78.5 755,-98.5 865,-98.5 865,-78.5 755,-78.5"/>
<text text-anchor="middle" x="810" y="-85.5" font-family="FreeSans" font-size="10.00" fill="#000000">PHG4Reco::InitRun</text>
</a>
</g>
</g>
<!-- Node4&#45;&gt;Node5 -->
<g id="edge4" class="edge">
<title>Node4&#45;&gt;Node5</title>
<path fill="none" stroke="#191970" d="M729.3931,-88.5C737.9791,-88.5 746.5628,-88.5 754.7562,-88.5"/>
<polygon fill="#191970" stroke="#191970" points="729.3363,-85.0001 719.3363,-88.5 729.3362,-92.0001 729.3363,-85.0001"/>
</g>
<!-- Node6 -->
<g id="node6" class="node">
<title>Node6</title>
<g id="a_node6"><a xlink:href="../../dd/d76/macros_2blob_2master_2macros_2g4simulations_2DisplayOn_8C.html#a36f5cc4ebb7cd23dac7e492d5c38fbc0" target="_top" xlink:title="QTGui">
<polygon fill="none" stroke="#000000" points="953.5,-156.5 953.5,-176.5 1000.5,-176.5 1000.5,-156.5 953.5,-156.5"/>
<text text-anchor="middle" x="977" y="-163.5" font-family="FreeSans" font-size="10.00" fill="#000000">QTGui</text>
</a>
</g>
</g>
<!-- Node5&#45;&gt;Node6 -->
<g id="edge5" class="edge">
<title>Node5&#45;&gt;Node6</title>
<path fill="none" stroke="#191970" d="M830.9107,-104.937C848.6571,-118.1572 875.2676,-136.3129 901,-147.5 917.8383,-154.8204 938.0524,-159.7038 953.3993,-162.6847"/>
<polygon fill="#191970" stroke="#191970" points="832.5694,-101.8014 822.4901,-98.5366 828.3335,-107.3743 832.5694,-101.8014"/>
</g>
<!-- Node7 -->
<g id="node7" class="node">
<title>Node7</title>
<g id="a_node7"><a xlink:href="../../dd/d76/macros_2blob_2master_2macros_2g4simulations_2DisplayOn_8C.html#a8ac4d6fb78f920957b354f88d6195f54" target="_top" xlink:title="DisplayOn">
<polygon fill="none" stroke="#000000" points="943,-117.5 943,-137.5 1011,-137.5 1011,-117.5 943,-117.5"/>
<text text-anchor="middle" x="977" y="-124.5" font-family="FreeSans" font-size="10.00" fill="#000000">DisplayOn</text>
</a>
</g>
</g>
<!-- Node5&#45;&gt;Node7 -->
<g id="edge6" class="edge">
<title>Node5&#45;&gt;Node7</title>
<path fill="none" stroke="#191970" d="M862.7794,-100.8257C888.9436,-106.9359 919.784,-114.1382 942.8194,-119.5177"/>
<polygon fill="#191970" stroke="#191970" points="863.5406,-97.4094 853.0066,-98.5435 861.9487,-104.226 863.5406,-97.4094"/>
</g>
<!-- Node10 -->
<g id="node10" class="node">
<title>Node10</title>
<g id="a_node10"><a xlink:href="../../db/d89/ConstructGeometry_8C.html#a21c369835643f1016f506a3da3b8d446" target="_top" xlink:title="ConstructGeometry">
<polygon fill="none" stroke="#000000" points="919.5,-78.5 919.5,-98.5 1034.5,-98.5 1034.5,-78.5 919.5,-78.5"/>
<text text-anchor="middle" x="977" y="-85.5" font-family="FreeSans" font-size="10.00" fill="#000000">ConstructGeometry</text>
</a>
</g>
</g>
<!-- Node5&#45;&gt;Node10 -->
<g id="edge9" class="edge">
<title>Node5&#45;&gt;Node10</title>
<path fill="none" stroke="#191970" d="M875.5186,-88.5C889.9851,-88.5 905.2075,-88.5 919.3353,-88.5"/>
<polygon fill="#191970" stroke="#191970" points="875.1449,-85.0001 865.1449,-88.5 875.1448,-92.0001 875.1449,-85.0001"/>
</g>
<!-- Node11 -->
<g id="node11" class="node">
<title>Node11</title>
<g id="a_node11"><a xlink:href="../../d4/dfa/Fun4All__Generator__Display_8C.html#af87924a94b22e18901f0d64805565f09" target="_top" xlink:title="Fun4All_Generator_Display">
<polygon fill="none" stroke="#000000" points="901,-39.5 901,-59.5 1053,-59.5 1053,-39.5 901,-39.5"/>
<text text-anchor="middle" x="977" y="-46.5" font-family="FreeSans" font-size="10.00" fill="#000000">Fun4All_Generator_Display</text>
</a>
</g>
</g>
<!-- Node5&#45;&gt;Node11 -->
<g id="edge10" class="edge">
<title>Node5&#45;&gt;Node11</title>
<path fill="none" stroke="#191970" d="M862.9386,-76.1371C885.9013,-70.7746 912.4411,-64.5766 934.1391,-59.5094"/>
<polygon fill="#191970" stroke="#191970" points="861.9487,-72.774 853.0066,-78.4565 863.5406,-79.5906 861.9487,-72.774"/>
</g>
<!-- Node12 -->
<g id="node12" class="node">
<title>Node12</title>
<g id="a_node12"><a xlink:href="../../d9/d1d/matscan_8C.html#a98ccbc6135fead542f3c4d1dd6882d63" target="_top" xlink:title="matscan">
<polygon fill="none" stroke="#000000" points="947.5,-.5 947.5,-20.5 1006.5,-20.5 1006.5,-.5 947.5,-.5"/>
<text text-anchor="middle" x="977" y="-7.5" font-family="FreeSans" font-size="10.00" fill="#000000">matscan</text>
</a>
</g>
</g>
<!-- Node5&#45;&gt;Node12 -->
<g id="edge11" class="edge">
<title>Node5&#45;&gt;Node12</title>
<path fill="none" stroke="#191970" d="M831.2972,-72.2201C849.09,-59.3028 875.5675,-41.6258 901,-30.5 915.7499,-24.0474 933.0494,-19.2941 947.4144,-16.0444"/>
<polygon fill="#191970" stroke="#191970" points="828.7925,-69.7195 822.8359,-78.4813 832.9564,-75.3464 828.7925,-69.7195"/>
</g>
<!-- Node8 -->
<g id="node8" class="node">
<title>Node8</title>
<g id="a_node8"><a xlink:href="../../d7/d9e/Fun4All__G4__fsPHENIX_8C.html#af48911d394d2412e817583700f2bbee2" target="_top" xlink:title="Fun4All_G4_fsPHENIX">
<polygon fill="none" stroke="#000000" points="1089,-136.5 1089,-156.5 1213,-156.5 1213,-136.5 1089,-136.5"/>
<text text-anchor="middle" x="1151" y="-143.5" font-family="FreeSans" font-size="10.00" fill="#000000">Fun4All_G4_fsPHENIX</text>
</a>
</g>
</g>
<!-- Node7&#45;&gt;Node8 -->
<g id="edge7" class="edge">
<title>Node7&#45;&gt;Node8</title>
<path fill="none" stroke="#191970" d="M1021.3757,-132.3456C1041.8742,-134.584 1066.5657,-137.2802 1088.8748,-139.7162"/>
<polygon fill="#191970" stroke="#191970" points="1021.6977,-128.8601 1011.3768,-131.2538 1020.9378,-135.8187 1021.6977,-128.8601"/>
</g>
<!-- Node9 -->
<g id="node9" class="node">
<title>Node9</title>
<g id="a_node9"><a xlink:href="../../d5/d2c/macros_2blob_2master_2macros_2g4simulations_2Fun4All__G4__sPHENIX_8C.html#a6eaaa492d7023ec86c562dc63aa1e5a4" target="_top" xlink:title="Fun4All_G4_sPHENIX">
<polygon fill="none" stroke="#000000" points="1090.5,-97.5 1090.5,-117.5 1211.5,-117.5 1211.5,-97.5 1090.5,-97.5"/>
<text text-anchor="middle" x="1151" y="-104.5" font-family="FreeSans" font-size="10.00" fill="#000000">Fun4All_G4_sPHENIX</text>
</a>
</g>
</g>
<!-- Node7&#45;&gt;Node9 -->
<g id="edge8" class="edge">
<title>Node7&#45;&gt;Node9</title>
<path fill="none" stroke="#191970" d="M1021.5622,-122.3779C1042.4542,-119.9765 1067.6703,-117.0781 1090.2749,-114.4799"/>
<polygon fill="#191970" stroke="#191970" points="1020.9117,-118.9295 1011.3768,-123.5486 1021.7111,-125.8838 1020.9117,-118.9295"/>
</g>
</g>
</svg>
