<?xml version="1.0" encoding="UTF-8" standalone="no"?>
<!DOCTYPE svg PUBLIC "-//W3C//DTD SVG 1.1//EN"
 "http://www.w3.org/Graphics/SVG/1.1/DTD/svg11.dtd">
<!-- Generated by graphviz version 2.40.1 (20161225.0304)
 -->
<!-- Title: PHG4GDMLWrite::Write Pages: 1 -->
<svg width="1023pt" height="185pt"
 viewBox="0.00 0.00 1023.00 185.00" xmlns="http://www.w3.org/2000/svg" xmlns:xlink="http://www.w3.org/1999/xlink">
<g id="graph0" class="graph" transform="scale(1 1) rotate(0) translate(4 181)">
<title>PHG4GDMLWrite::Write</title>
<!-- Node1 -->
<g id="node1" class="node">
<title>Node1</title>
<polygon fill="#bfbfbf" stroke="#000000" points="0,-55.5 0,-75.5 133,-75.5 133,-55.5 0,-55.5"/>
<text text-anchor="middle" x="66.5" y="-62.5" font-family="FreeSans" font-size="10.00" fill="#000000">PHG4GDMLWrite::Write</text>
</g>
<!-- Node2 -->
<g id="node2" class="node">
<title>Node2</title>
<g id="a_node2"><a xlink:href="../../d9/df8/classPHG4GDMLUtility.html#adb03ec38807279cb5abaf38987c5a73f" target="_top" xlink:title="save the current Geant4 geometry to GDML file. Reading PHG4GDMLConfig from topNode">
<polygon fill="none" stroke="#000000" points="169,-78.5 169,-98.5 344,-98.5 344,-78.5 169,-78.5"/>
<text text-anchor="middle" x="256.5" y="-85.5" font-family="FreeSans" font-size="10.00" fill="#000000">PHG4GDMLUtility::Dump_GDML</text>
</a>
</g>
</g>
<!-- Node1&#45;&gt;Node2 -->
<g id="edge1" class="edge">
<title>Node1&#45;&gt;Node2</title>
<path fill="none" stroke="#191970" d="M143.4463,-74.8146C153.3728,-76.0162 163.5724,-77.2509 173.5897,-78.4635"/>
<polygon fill="#191970" stroke="#191970" points="143.5679,-71.3038 133.2197,-73.5766 142.7266,-78.2531 143.5679,-71.3038"/>
</g>
<!-- Node12 -->
<g id="node12" class="node">
<title>Node12</title>
<g id="a_node12"><a xlink:href="../../d2/d72/classPHG4GDMLWriteStructure.html#a957c6f2d283732660e3eb9c41b982048" target="_top" xlink:title="PHG4GDMLWriteStructure\l::TraverseVolumeTree">
<polygon fill="none" stroke="#000000" points="183.5,-27.5 183.5,-59.5 329.5,-59.5 329.5,-27.5 183.5,-27.5"/>
<text text-anchor="start" x="191.5" y="-46.5" font-family="FreeSans" font-size="10.00" fill="#000000">PHG4GDMLWriteStructure</text>
<text text-anchor="middle" x="256.5" y="-34.5" font-family="FreeSans" font-size="10.00" fill="#000000">::TraverseVolumeTree</text>
</a>
</g>
</g>
<!-- Node1&#45;&gt;Node12 -->
<g id="edge11" class="edge">
<title>Node1&#45;&gt;Node12</title>
<path fill="none" stroke="#191970" d="M143.2562,-56.6124C156.5303,-55.0754 170.2981,-53.4813 183.4699,-51.9561"/>
<polygon fill="#191970" stroke="#191970" points="142.7508,-53.1475 133.2197,-57.7746 143.556,-60.101 142.7508,-53.1475"/>
</g>
<!-- Node3 -->
<g id="node3" class="node">
<title>Node3</title>
<g id="a_node3"><a xlink:href="../../d0/d78/classPHG4Reco.html#a490f5037508d384c5b60855ef0f7e227" target="_top" xlink:title="PHG4Reco::Dump_GDML">
<polygon fill="none" stroke="#000000" points="380,-78.5 380,-98.5 521,-98.5 521,-78.5 380,-78.5"/>
<text text-anchor="middle" x="450.5" y="-85.5" font-family="FreeSans" font-size="10.00" fill="#000000">PHG4Reco::Dump_GDML</text>
</a>
</g>
</g>
<!-- Node2&#45;&gt;Node3 -->
<g id="edge2" class="edge">
<title>Node2&#45;&gt;Node3</title>
<path fill="none" stroke="#191970" d="M354.2462,-88.5C362.8703,-88.5 371.4865,-88.5 379.8221,-88.5"/>
<polygon fill="#191970" stroke="#191970" points="354.1351,-85.0001 344.1351,-88.5 354.135,-92.0001 354.1351,-85.0001"/>
</g>
<!-- Node4 -->
<g id="node4" class="node">
<title>Node4</title>
<g id="a_node4"><a xlink:href="../../d0/d78/classPHG4Reco.html#a9d8228ce8682c19cd6be2f6b44ec847b" target="_top" xlink:title="PHG4Reco::InitRun">
<polygon fill="none" stroke="#000000" points="557,-78.5 557,-98.5 667,-98.5 667,-78.5 557,-78.5"/>
<text text-anchor="middle" x="612" y="-85.5" font-family="FreeSans" font-size="10.00" fill="#000000">PHG4Reco::InitRun</text>
</a>
</g>
</g>
<!-- Node3&#45;&gt;Node4 -->
<g id="edge3" class="edge">
<title>Node3&#45;&gt;Node4</title>
<path fill="none" stroke="#191970" d="M531.3931,-88.5C539.9791,-88.5 548.5628,-88.5 556.7562,-88.5"/>
<polygon fill="#191970" stroke="#191970" points="531.3363,-85.0001 521.3363,-88.5 531.3362,-92.0001 531.3363,-85.0001"/>
</g>
<!-- Node5 -->
<g id="node5" class="node">
<title>Node5</title>
<g id="a_node5"><a xlink:href="../../dd/d76/macros_2blob_2master_2macros_2g4simulations_2DisplayOn_8C.html#a36f5cc4ebb7cd23dac7e492d5c38fbc0" target="_top" xlink:title="QTGui">
<polygon fill="none" stroke="#000000" points="755.5,-156.5 755.5,-176.5 802.5,-176.5 802.5,-156.5 755.5,-156.5"/>
<text text-anchor="middle" x="779" y="-163.5" font-family="FreeSans" font-size="10.00" fill="#000000">QTGui</text>
</a>
</g>
</g>
<!-- Node4&#45;&gt;Node5 -->
<g id="edge4" class="edge">
<title>Node4&#45;&gt;Node5</title>
<path fill="none" stroke="#191970" d="M632.9107,-104.937C650.6571,-118.1572 677.2676,-136.3129 703,-147.5 719.8383,-154.8204 740.0524,-159.7038 755.3993,-162.6847"/>
<polygon fill="#191970" stroke="#191970" points="634.5694,-101.8014 624.4901,-98.5366 630.3335,-107.3743 634.5694,-101.8014"/>
</g>
<!-- Node6 -->
<g id="node6" class="node">
<title>Node6</title>
<g id="a_node6"><a xlink:href="../../dd/d76/macros_2blob_2master_2macros_2g4simulations_2DisplayOn_8C.html#a8ac4d6fb78f920957b354f88d6195f54" target="_top" xlink:title="DisplayOn">
<polygon fill="none" stroke="#000000" points="745,-117.5 745,-137.5 813,-137.5 813,-117.5 745,-117.5"/>
<text text-anchor="middle" x="779" y="-124.5" font-family="FreeSans" font-size="10.00" fill="#000000">DisplayOn</text>
</a>
</g>
</g>
<!-- Node4&#45;&gt;Node6 -->
<g id="edge5" class="edge">
<title>Node4&#45;&gt;Node6</title>
<path fill="none" stroke="#191970" d="M664.7794,-100.8257C690.9436,-106.9359 721.784,-114.1382 744.8194,-119.5177"/>
<polygon fill="#191970" stroke="#191970" points="665.5406,-97.4094 655.0066,-98.5435 663.9487,-104.226 665.5406,-97.4094"/>
</g>
<!-- Node9 -->
<g id="node9" class="node">
<title>Node9</title>
<g id="a_node9"><a xlink:href="../../db/d89/ConstructGeometry_8C.html#a21c369835643f1016f506a3da3b8d446" target="_top" xlink:title="ConstructGeometry">
<polygon fill="none" stroke="#000000" points="721.5,-78.5 721.5,-98.5 836.5,-98.5 836.5,-78.5 721.5,-78.5"/>
<text text-anchor="middle" x="779" y="-85.5" font-family="FreeSans" font-size="10.00" fill="#000000">ConstructGeometry</text>
</a>
</g>
</g>
<!-- Node4&#45;&gt;Node9 -->
<g id="edge8" class="edge">
<title>Node4&#45;&gt;Node9</title>
<path fill="none" stroke="#191970" d="M677.5186,-88.5C691.9851,-88.5 707.2075,-88.5 721.3353,-88.5"/>
<polygon fill="#191970" stroke="#191970" points="677.1449,-85.0001 667.1449,-88.5 677.1448,-92.0001 677.1449,-85.0001"/>
</g>
<!-- Node10 -->
<g id="node10" class="node">
<title>Node10</title>
<g id="a_node10"><a xlink:href="../../d4/dfa/Fun4All__Generator__Display_8C.html#af87924a94b22e18901f0d64805565f09" target="_top" xlink:title="Fun4All_Generator_Display">
<polygon fill="none" stroke="#000000" points="703,-39.5 703,-59.5 855,-59.5 855,-39.5 703,-39.5"/>
<text text-anchor="middle" x="779" y="-46.5" font-family="FreeSans" font-size="10.00" fill="#000000">Fun4All_Generator_Display</text>
</a>
</g>
</g>
<!-- Node4&#45;&gt;Node10 -->
<g id="edge9" class="edge">
<title>Node4&#45;&gt;Node10</title>
<path fill="none" stroke="#191970" d="M664.9386,-76.1371C687.9013,-70.7746 714.4411,-64.5766 736.1391,-59.5094"/>
<polygon fill="#191970" stroke="#191970" points="663.9487,-72.774 655.0066,-78.4565 665.5406,-79.5906 663.9487,-72.774"/>
</g>
<!-- Node11 -->
<g id="node11" class="node">
<title>Node11</title>
<g id="a_node11"><a xlink:href="../../d9/d1d/matscan_8C.html#a98ccbc6135fead542f3c4d1dd6882d63" target="_top" xlink:title="matscan">
<polygon fill="none" stroke="#000000" points="749.5,-.5 749.5,-20.5 808.5,-20.5 808.5,-.5 749.5,-.5"/>
<text text-anchor="middle" x="779" y="-7.5" font-family="FreeSans" font-size="10.00" fill="#000000">matscan</text>
</a>
</g>
</g>
<!-- Node4&#45;&gt;Node11 -->
<g id="edge10" class="edge">
<title>Node4&#45;&gt;Node11</title>
<path fill="none" stroke="#191970" d="M633.2972,-72.2201C651.09,-59.3028 677.5675,-41.6258 703,-30.5 717.7499,-24.0474 735.0494,-19.2941 749.4144,-16.0444"/>
<polygon fill="#191970" stroke="#191970" points="630.7925,-69.7195 624.8359,-78.4813 634.9564,-75.3464 630.7925,-69.7195"/>
</g>
<!-- Node7 -->
<g id="node7" class="node">
<title>Node7</title>
<g id="a_node7"><a xlink:href="../../d7/d9e/Fun4All__G4__fsPHENIX_8C.html#af48911d394d2412e817583700f2bbee2" target="_top" xlink:title="Fun4All_G4_fsPHENIX">
<polygon fill="none" stroke="#000000" points="891,-136.5 891,-156.5 1015,-156.5 1015,-136.5 891,-136.5"/>
<text text-anchor="middle" x="953" y="-143.5" font-family="FreeSans" font-size="10.00" fill="#000000">Fun4All_G4_fsPHENIX</text>
</a>
</g>
</g>
<!-- Node6&#45;&gt;Node7 -->
<g id="edge6" class="edge">
<title>Node6&#45;&gt;Node7</title>
<path fill="none" stroke="#191970" d="M823.3757,-132.3456C843.8742,-134.584 868.5657,-137.2802 890.8748,-139.7162"/>
<polygon fill="#191970" stroke="#191970" points="823.6977,-128.8601 813.3768,-131.2538 822.9378,-135.8187 823.6977,-128.8601"/>
</g>
<!-- Node8 -->
<g id="node8" class="node">
<title>Node8</title>
<g id="a_node8"><a xlink:href="../../d5/d2c/macros_2blob_2master_2macros_2g4simulations_2Fun4All__G4__sPHENIX_8C.html#a6eaaa492d7023ec86c562dc63aa1e5a4" target="_top" xlink:title="Fun4All_G4_sPHENIX">
<polygon fill="none" stroke="#000000" points="892.5,-97.5 892.5,-117.5 1013.5,-117.5 1013.5,-97.5 892.5,-97.5"/>
<text text-anchor="middle" x="953" y="-104.5" font-family="FreeSans" font-size="10.00" fill="#000000">Fun4All_G4_sPHENIX</text>
</a>
</g>
</g>
<!-- Node6&#45;&gt;Node8 -->
<g id="edge7" class="edge">
<title>Node6&#45;&gt;Node8</title>
<path fill="none" stroke="#191970" d="M823.5622,-122.3779C844.4542,-119.9765 869.6703,-117.0781 892.2749,-114.4799"/>
<polygon fill="#191970" stroke="#191970" points="822.9117,-118.9295 813.3768,-123.5486 823.7111,-125.8838 822.9117,-118.9295"/>
</g>
</g>
</svg>
