<?xml version="1.0" encoding="UTF-8" standalone="no"?>
<!DOCTYPE svg PUBLIC "-//W3C//DTD SVG 1.1//EN"
 "http://www.w3.org/Graphics/SVG/1.1/DTD/svg11.dtd">
<!-- Generated by graphviz version 2.40.1 (20161225.0304)
 -->
<!-- Title: PHG4GDMLWrite::AddAuxInfo Pages: 1 -->
<svg width="1434pt" height="185pt"
 viewBox="0.00 0.00 1434.00 185.00" xmlns="http://www.w3.org/2000/svg" xmlns:xlink="http://www.w3.org/1999/xlink">
<g id="graph0" class="graph" transform="scale(1 1) rotate(0) translate(4 181)">
<title>PHG4GDMLWrite::AddAuxInfo</title>
<!-- Node1 -->
<g id="node1" class="node">
<title>Node1</title>
<polygon fill="#bfbfbf" stroke="#000000" points="0,-103.5 0,-123.5 164,-123.5 164,-103.5 0,-103.5"/>
<text text-anchor="middle" x="82" y="-110.5" font-family="FreeSans" font-size="10.00" fill="#000000">PHG4GDMLWrite::AddAuxInfo</text>
</g>
<!-- Node2 -->
<g id="node2" class="node">
<title>Node2</title>
<g id="a_node2"><a xlink:href="../../d2/d72/classPHG4GDMLWriteStructure.html#a957c6f2d283732660e3eb9c41b982048" target="_top" xlink:title="PHG4GDMLWriteStructure\l::TraverseVolumeTree">
<polygon fill="none" stroke="#000000" points="594.5,-117.5 594.5,-149.5 740.5,-149.5 740.5,-117.5 594.5,-117.5"/>
<text text-anchor="start" x="602.5" y="-136.5" font-family="FreeSans" font-size="10.00" fill="#000000">PHG4GDMLWriteStructure</text>
<text text-anchor="middle" x="667.5" y="-124.5" font-family="FreeSans" font-size="10.00" fill="#000000">::TraverseVolumeTree</text>
</a>
</g>
</g>
<!-- Node1&#45;&gt;Node2 -->
<g id="edge1" class="edge">
<title>Node1&#45;&gt;Node2</title>
<path fill="none" stroke="#191970" d="M174.3275,-116.6538C290.5825,-120.6249 487.9392,-127.3664 594.3315,-131.0007"/>
<polygon fill="#191970" stroke="#191970" points="174.1415,-113.1455 164.0278,-116.302 173.9024,-120.1414 174.1415,-113.1455"/>
</g>
<!-- Node3 -->
<g id="node3" class="node">
<title>Node3</title>
<g id="a_node3"><a xlink:href="../../dd/db5/classPHG4GDMLWrite.html#ad88e00edb1ab511595a627d730fd3634" target="_top" xlink:title="PHG4GDMLWrite::UserinfoWrite">
<polygon fill="none" stroke="#000000" points="200,-84.5 200,-104.5 375,-104.5 375,-84.5 200,-84.5"/>
<text text-anchor="middle" x="287.5" y="-91.5" font-family="FreeSans" font-size="10.00" fill="#000000">PHG4GDMLWrite::UserinfoWrite</text>
</a>
</g>
</g>
<!-- Node1&#45;&gt;Node3 -->
<g id="edge2" class="edge">
<title>Node1&#45;&gt;Node3</title>
<path fill="none" stroke="#191970" d="M174.084,-104.9861C182.636,-104.1955 191.2875,-103.3956 199.7983,-102.6087"/>
<polygon fill="#191970" stroke="#191970" points="173.7403,-101.5029 164.105,-105.9088 174.3848,-108.4732 173.7403,-101.5029"/>
</g>
<!-- Node4 -->
<g id="node4" class="node">
<title>Node4</title>
<g id="a_node4"><a xlink:href="../../dd/db5/classPHG4GDMLWrite.html#af4241e53bb71408c9bf11117053f9810" target="_top" xlink:title="PHG4GDMLWrite::Write">
<polygon fill="none" stroke="#000000" points="411,-84.5 411,-104.5 544,-104.5 544,-84.5 411,-84.5"/>
<text text-anchor="middle" x="477.5" y="-91.5" font-family="FreeSans" font-size="10.00" fill="#000000">PHG4GDMLWrite::Write</text>
</a>
</g>
</g>
<!-- Node3&#45;&gt;Node4 -->
<g id="edge3" class="edge">
<title>Node3&#45;&gt;Node4</title>
<path fill="none" stroke="#191970" d="M385.3804,-94.5C393.9951,-94.5 402.5782,-94.5 410.846,-94.5"/>
<polygon fill="#191970" stroke="#191970" points="385.2699,-91.0001 375.2699,-94.5 385.2699,-98.0001 385.2699,-91.0001"/>
</g>
<!-- Node4&#45;&gt;Node2 -->
<g id="edge14" class="edge">
<title>Node4&#45;&gt;Node2</title>
<path fill="none" stroke="#191970" d="M536.3791,-106.5857C554.7173,-110.3499 575.1653,-114.5471 594.3553,-118.4861"/>
<polygon fill="#191970" stroke="#191970" points="536.9293,-103.1257 526.4297,-104.5435 535.5217,-109.9828 536.9293,-103.1257"/>
</g>
<!-- Node5 -->
<g id="node5" class="node">
<title>Node5</title>
<g id="a_node5"><a xlink:href="../../d9/df8/classPHG4GDMLUtility.html#adb03ec38807279cb5abaf38987c5a73f" target="_top" xlink:title="save the current Geant4 geometry to GDML file. Reading PHG4GDMLConfig from topNode">
<polygon fill="none" stroke="#000000" points="580,-78.5 580,-98.5 755,-98.5 755,-78.5 580,-78.5"/>
<text text-anchor="middle" x="667.5" y="-85.5" font-family="FreeSans" font-size="10.00" fill="#000000">PHG4GDMLUtility::Dump_GDML</text>
</a>
</g>
</g>
<!-- Node4&#45;&gt;Node5 -->
<g id="edge4" class="edge">
<title>Node4&#45;&gt;Node5</title>
<path fill="none" stroke="#191970" d="M554.3692,-92.0726C562.7854,-91.8068 571.3988,-91.5348 579.9318,-91.2653"/>
<polygon fill="#191970" stroke="#191970" points="554.1042,-88.5791 544.2197,-92.3931 554.3252,-95.5756 554.1042,-88.5791"/>
</g>
<!-- Node6 -->
<g id="node6" class="node">
<title>Node6</title>
<g id="a_node6"><a xlink:href="../../d0/d78/classPHG4Reco.html#a490f5037508d384c5b60855ef0f7e227" target="_top" xlink:title="PHG4Reco::Dump_GDML">
<polygon fill="none" stroke="#000000" points="791,-78.5 791,-98.5 932,-98.5 932,-78.5 791,-78.5"/>
<text text-anchor="middle" x="861.5" y="-85.5" font-family="FreeSans" font-size="10.00" fill="#000000">PHG4Reco::Dump_GDML</text>
</a>
</g>
</g>
<!-- Node5&#45;&gt;Node6 -->
<g id="edge5" class="edge">
<title>Node5&#45;&gt;Node6</title>
<path fill="none" stroke="#191970" d="M765.2462,-88.5C773.8703,-88.5 782.4865,-88.5 790.8221,-88.5"/>
<polygon fill="#191970" stroke="#191970" points="765.1351,-85.0001 755.1351,-88.5 765.135,-92.0001 765.1351,-85.0001"/>
</g>
<!-- Node7 -->
<g id="node7" class="node">
<title>Node7</title>
<g id="a_node7"><a xlink:href="../../d0/d78/classPHG4Reco.html#a9d8228ce8682c19cd6be2f6b44ec847b" target="_top" xlink:title="PHG4Reco::InitRun">
<polygon fill="none" stroke="#000000" points="968,-78.5 968,-98.5 1078,-98.5 1078,-78.5 968,-78.5"/>
<text text-anchor="middle" x="1023" y="-85.5" font-family="FreeSans" font-size="10.00" fill="#000000">PHG4Reco::InitRun</text>
</a>
</g>
</g>
<!-- Node6&#45;&gt;Node7 -->
<g id="edge6" class="edge">
<title>Node6&#45;&gt;Node7</title>
<path fill="none" stroke="#191970" d="M942.3931,-88.5C950.9791,-88.5 959.5628,-88.5 967.7562,-88.5"/>
<polygon fill="#191970" stroke="#191970" points="942.3363,-85.0001 932.3363,-88.5 942.3362,-92.0001 942.3363,-85.0001"/>
</g>
<!-- Node8 -->
<g id="node8" class="node">
<title>Node8</title>
<g id="a_node8"><a xlink:href="../../dd/d76/macros_2blob_2master_2macros_2g4simulations_2DisplayOn_8C.html#a36f5cc4ebb7cd23dac7e492d5c38fbc0" target="_top" xlink:title="QTGui">
<polygon fill="none" stroke="#000000" points="1166.5,-156.5 1166.5,-176.5 1213.5,-176.5 1213.5,-156.5 1166.5,-156.5"/>
<text text-anchor="middle" x="1190" y="-163.5" font-family="FreeSans" font-size="10.00" fill="#000000">QTGui</text>
</a>
</g>
</g>
<!-- Node7&#45;&gt;Node8 -->
<g id="edge7" class="edge">
<title>Node7&#45;&gt;Node8</title>
<path fill="none" stroke="#191970" d="M1044.2972,-104.7799C1062.09,-117.6972 1088.5675,-135.3742 1114,-146.5 1130.8749,-153.8822 1151.087,-159.0403 1166.4238,-162.2671"/>
<polygon fill="#191970" stroke="#191970" points="1045.9564,-101.6536 1035.8359,-98.5187 1041.7925,-107.2805 1045.9564,-101.6536"/>
</g>
<!-- Node9 -->
<g id="node9" class="node">
<title>Node9</title>
<g id="a_node9"><a xlink:href="../../dd/d76/macros_2blob_2master_2macros_2g4simulations_2DisplayOn_8C.html#a8ac4d6fb78f920957b354f88d6195f54" target="_top" xlink:title="DisplayOn">
<polygon fill="none" stroke="#000000" points="1156,-117.5 1156,-137.5 1224,-137.5 1224,-117.5 1156,-117.5"/>
<text text-anchor="middle" x="1190" y="-124.5" font-family="FreeSans" font-size="10.00" fill="#000000">DisplayOn</text>
</a>
</g>
</g>
<!-- Node7&#45;&gt;Node9 -->
<g id="edge8" class="edge">
<title>Node7&#45;&gt;Node9</title>
<path fill="none" stroke="#191970" d="M1075.7794,-100.8257C1101.9436,-106.9359 1132.784,-114.1382 1155.8194,-119.5177"/>
<polygon fill="#191970" stroke="#191970" points="1076.5406,-97.4094 1066.0066,-98.5435 1074.9487,-104.226 1076.5406,-97.4094"/>
</g>
<!-- Node12 -->
<g id="node12" class="node">
<title>Node12</title>
<g id="a_node12"><a xlink:href="../../db/d89/ConstructGeometry_8C.html#a21c369835643f1016f506a3da3b8d446" target="_top" xlink:title="ConstructGeometry">
<polygon fill="none" stroke="#000000" points="1132.5,-78.5 1132.5,-98.5 1247.5,-98.5 1247.5,-78.5 1132.5,-78.5"/>
<text text-anchor="middle" x="1190" y="-85.5" font-family="FreeSans" font-size="10.00" fill="#000000">ConstructGeometry</text>
</a>
</g>
</g>
<!-- Node7&#45;&gt;Node12 -->
<g id="edge11" class="edge">
<title>Node7&#45;&gt;Node12</title>
<path fill="none" stroke="#191970" d="M1088.5186,-88.5C1102.9851,-88.5 1118.2075,-88.5 1132.3353,-88.5"/>
<polygon fill="#191970" stroke="#191970" points="1088.1449,-85.0001 1078.1449,-88.5 1088.1448,-92.0001 1088.1449,-85.0001"/>
</g>
<!-- Node13 -->
<g id="node13" class="node">
<title>Node13</title>
<g id="a_node13"><a xlink:href="../../d4/dfa/Fun4All__Generator__Display_8C.html#af87924a94b22e18901f0d64805565f09" target="_top" xlink:title="Fun4All_Generator_Display">
<polygon fill="none" stroke="#000000" points="1114,-39.5 1114,-59.5 1266,-59.5 1266,-39.5 1114,-39.5"/>
<text text-anchor="middle" x="1190" y="-46.5" font-family="FreeSans" font-size="10.00" fill="#000000">Fun4All_Generator_Display</text>
</a>
</g>
</g>
<!-- Node7&#45;&gt;Node13 -->
<g id="edge12" class="edge">
<title>Node7&#45;&gt;Node13</title>
<path fill="none" stroke="#191970" d="M1075.9386,-76.1371C1098.9013,-70.7746 1125.4411,-64.5766 1147.1391,-59.5094"/>
<polygon fill="#191970" stroke="#191970" points="1074.9487,-72.774 1066.0066,-78.4565 1076.5406,-79.5906 1074.9487,-72.774"/>
</g>
<!-- Node14 -->
<g id="node14" class="node">
<title>Node14</title>
<g id="a_node14"><a xlink:href="../../d9/d1d/matscan_8C.html#a98ccbc6135fead542f3c4d1dd6882d63" target="_top" xlink:title="matscan">
<polygon fill="none" stroke="#000000" points="1160.5,-.5 1160.5,-20.5 1219.5,-20.5 1219.5,-.5 1160.5,-.5"/>
<text text-anchor="middle" x="1190" y="-7.5" font-family="FreeSans" font-size="10.00" fill="#000000">matscan</text>
</a>
</g>
</g>
<!-- Node7&#45;&gt;Node14 -->
<g id="edge13" class="edge">
<title>Node7&#45;&gt;Node14</title>
<path fill="none" stroke="#191970" d="M1043.9107,-72.063C1061.6571,-58.8428 1088.2676,-40.6871 1114,-29.5 1128.7179,-23.1014 1146.015,-18.5648 1160.3865,-15.533"/>
<polygon fill="#191970" stroke="#191970" points="1041.3335,-69.6257 1035.4901,-78.4634 1045.5694,-75.1986 1041.3335,-69.6257"/>
</g>
<!-- Node10 -->
<g id="node10" class="node">
<title>Node10</title>
<g id="a_node10"><a xlink:href="../../d7/d9e/Fun4All__G4__fsPHENIX_8C.html#af48911d394d2412e817583700f2bbee2" target="_top" xlink:title="Fun4All_G4_fsPHENIX">
<polygon fill="none" stroke="#000000" points="1302,-136.5 1302,-156.5 1426,-156.5 1426,-136.5 1302,-136.5"/>
<text text-anchor="middle" x="1364" y="-143.5" font-family="FreeSans" font-size="10.00" fill="#000000">Fun4All_G4_fsPHENIX</text>
</a>
</g>
</g>
<!-- Node9&#45;&gt;Node10 -->
<g id="edge9" class="edge">
<title>Node9&#45;&gt;Node10</title>
<path fill="none" stroke="#191970" d="M1234.3757,-132.3456C1254.8742,-134.584 1279.5657,-137.2802 1301.8748,-139.7162"/>
<polygon fill="#191970" stroke="#191970" points="1234.6977,-128.8601 1224.3768,-131.2538 1233.9378,-135.8187 1234.6977,-128.8601"/>
</g>
<!-- Node11 -->
<g id="node11" class="node">
<title>Node11</title>
<g id="a_node11"><a xlink:href="../../d5/d2c/macros_2blob_2master_2macros_2g4simulations_2Fun4All__G4__sPHENIX_8C.html#a6eaaa492d7023ec86c562dc63aa1e5a4" target="_top" xlink:title="Fun4All_G4_sPHENIX">
<polygon fill="none" stroke="#000000" points="1303.5,-97.5 1303.5,-117.5 1424.5,-117.5 1424.5,-97.5 1303.5,-97.5"/>
<text text-anchor="middle" x="1364" y="-104.5" font-family="FreeSans" font-size="10.00" fill="#000000">Fun4All_G4_sPHENIX</text>
</a>
</g>
</g>
<!-- Node9&#45;&gt;Node11 -->
<g id="edge10" class="edge">
<title>Node9&#45;&gt;Node11</title>
<path fill="none" stroke="#191970" d="M1234.5622,-122.3779C1255.4542,-119.9765 1280.6703,-117.0781 1303.2749,-114.4799"/>
<polygon fill="#191970" stroke="#191970" points="1233.9117,-118.9295 1224.3768,-123.5486 1234.7111,-125.8838 1233.9117,-118.9295"/>
</g>
</g>
</svg>
