<?xml version="1.0" encoding="UTF-8" standalone="no"?>
<!DOCTYPE svg PUBLIC "-//W3C//DTD SVG 1.1//EN"
 "http://www.w3.org/Graphics/SVG/1.1/DTD/svg11.dtd">
<!-- Generated by graphviz version 2.40.1 (20161225.0304)
 -->
<!-- Title: TDirectoryHelper::mkdir Pages: 1 -->
<svg width="709pt" height="838pt"
 viewBox="0.00 0.00 709.00 838.00" xmlns="http://www.w3.org/2000/svg" xmlns:xlink="http://www.w3.org/1999/xlink">
<g id="graph0" class="graph" transform="scale(1 1) rotate(0) translate(4 834)">
<title>TDirectoryHelper::mkdir</title>
<!-- Node1 -->
<g id="node1" class="node">
<title>Node1</title>
<polygon fill="#bfbfbf" stroke="#000000" points="0,-458.5 0,-478.5 139,-478.5 139,-458.5 0,-458.5"/>
<text text-anchor="middle" x="69.5" y="-465.5" font-family="FreeSans" font-size="10.00" fill="#000000">TDirectoryHelper::mkdir</text>
</g>
<!-- Node2 -->
<g id="node2" class="node">
<title>Node2</title>
<g id="a_node2"><a xlink:href="../../d3/d96/classFun4AllHistoManager.html#a61c2043c62739de451de3f9287832a08" target="_top" xlink:title="Fun4AllHistoManager\l::dumpHistos">
<polygon fill="none" stroke="#000000" points="175,-452.5 175,-484.5 299,-484.5 299,-452.5 175,-452.5"/>
<text text-anchor="start" x="183" y="-471.5" font-family="FreeSans" font-size="10.00" fill="#000000">Fun4AllHistoManager</text>
<text text-anchor="middle" x="237" y="-459.5" font-family="FreeSans" font-size="10.00" fill="#000000">::dumpHistos</text>
</a>
</g>
</g>
<!-- Node1&#45;&gt;Node2 -->
<g id="edge1" class="edge">
<title>Node1&#45;&gt;Node2</title>
<path fill="none" stroke="#191970" d="M149.1614,-468.5C157.7908,-468.5 166.4782,-468.5 174.8561,-468.5"/>
<polygon fill="#191970" stroke="#191970" points="149.08,-465.0001 139.0799,-468.5 149.0799,-472.0001 149.08,-465.0001"/>
</g>
<!-- Node3 -->
<g id="node3" class="node">
<title>Node3</title>
<g id="a_node3"><a xlink:href="../../d9/d2f/classG4RawTowerTTree.html#a67df6d7987ce69b6adaeae0ef46f7053" target="_top" xlink:title="Called at the end of all processing.">
<polygon fill="none" stroke="#000000" points="366.5,-809.5 366.5,-829.5 500.5,-829.5 500.5,-809.5 366.5,-809.5"/>
<text text-anchor="middle" x="433.5" y="-816.5" font-family="FreeSans" font-size="10.00" fill="#000000">G4RawTowerTTree::End</text>
</a>
</g>
</g>
<!-- Node2&#45;&gt;Node3 -->
<g id="edge2" class="edge">
<title>Node2&#45;&gt;Node3</title>
<path fill="none" stroke="#191970" d="M241.184,-494.8315C252.9933,-565.7979 288.7521,-758.5118 335,-800.5 343.7682,-808.4606 354.8281,-813.5327 366.3436,-816.6892"/>
<polygon fill="#191970" stroke="#191970" points="244.5669,-493.8316 239.4964,-484.5289 237.659,-494.9632 244.5669,-493.8316"/>
</g>
<!-- Node4 -->
<g id="node4" class="node">
<title>Node4</title>
<g id="a_node4"><a xlink:href="../../de/d31/classG4ScintillatorSlatTTree.html#a3f357637e30f0ccea328a61f59efc2ec" target="_top" xlink:title="Called at the end of all processing.">
<polygon fill="none" stroke="#000000" points="355,-770.5 355,-790.5 512,-790.5 512,-770.5 355,-770.5"/>
<text text-anchor="middle" x="433.5" y="-777.5" font-family="FreeSans" font-size="10.00" fill="#000000">G4ScintillatorSlatTTree::End</text>
</a>
</g>
</g>
<!-- Node2&#45;&gt;Node4 -->
<g id="edge3" class="edge">
<title>Node2&#45;&gt;Node4</title>
<path fill="none" stroke="#191970" d="M242.1778,-494.3611C255.6476,-559.0465 293.624,-725.2625 335,-761.5 340.7647,-766.5488 347.4576,-770.4233 354.5893,-773.3781"/>
<polygon fill="#191970" stroke="#191970" points="245.6013,-493.6325 240.1597,-484.5419 238.7446,-495.0418 245.6013,-493.6325"/>
</g>
<!-- Node5 -->
<g id="node5" class="node">
<title>Node5</title>
<g id="a_node5"><a xlink:href="../../db/d3d/classG4ScintillatorTowerTTree.html#a67e8f799dcf0ea59f6a36d9fc1f0b61c" target="_top" xlink:title="Called at the end of all processing.">
<polygon fill="none" stroke="#000000" points="350,-731.5 350,-751.5 517,-751.5 517,-731.5 350,-731.5"/>
<text text-anchor="middle" x="433.5" y="-738.5" font-family="FreeSans" font-size="10.00" fill="#000000">G4ScintillatorTowerTTree::End</text>
</a>
</g>
</g>
<!-- Node2&#45;&gt;Node5 -->
<g id="edge4" class="edge">
<title>Node2&#45;&gt;Node5</title>
<path fill="none" stroke="#191970" d="M238.9887,-494.7226C244.4224,-546.7999 264.2584,-663.3299 335,-722.5 339.542,-726.2991 344.6151,-729.4242 349.9979,-731.9873"/>
<polygon fill="#191970" stroke="#191970" points="242.4604,-494.2581 238.0346,-484.6319 235.4915,-494.917 242.4604,-494.2581"/>
</g>
<!-- Node6 -->
<g id="node6" class="node">
<title>Node6</title>
<g id="a_node6"><a xlink:href="../../d2/d1c/classG4HitTTree.html#a5a339bb6759892af2cfbdf2ef2a47e60" target="_top" xlink:title="Called at the end of all processing.">
<polygon fill="none" stroke="#000000" points="384.5,-692.5 384.5,-712.5 482.5,-712.5 482.5,-692.5 384.5,-692.5"/>
<text text-anchor="middle" x="433.5" y="-699.5" font-family="FreeSans" font-size="10.00" fill="#000000">G4HitTTree::End</text>
</a>
</g>
</g>
<!-- Node2&#45;&gt;Node6 -->
<g id="edge5" class="edge">
<title>Node2&#45;&gt;Node6</title>
<path fill="none" stroke="#191970" d="M240.9993,-494.5461C249.4936,-540.4276 273.8252,-635.3484 335,-683.5 348.8904,-694.4334 367.2504,-699.6837 384.352,-702.0388"/>
<polygon fill="#191970" stroke="#191970" points="244.4147,-493.7575 239.2509,-484.5062 237.5185,-494.9585 244.4147,-493.7575"/>
</g>
<!-- Node7 -->
<g id="node7" class="node">
<title>Node7</title>
<g id="a_node7"><a xlink:href="../../dd/d0c/classCaloAna.html#a2dfde85ee58d7d8543b74d0ce426e309" target="_top" xlink:title="end of run method">
<polygon fill="none" stroke="#000000" points="391.5,-653.5 391.5,-673.5 475.5,-673.5 475.5,-653.5 391.5,-653.5"/>
<text text-anchor="middle" x="433.5" y="-660.5" font-family="FreeSans" font-size="10.00" fill="#000000">CaloAna::End</text>
</a>
</g>
</g>
<!-- Node2&#45;&gt;Node7 -->
<g id="edge6" class="edge">
<title>Node2&#45;&gt;Node7</title>
<path fill="none" stroke="#191970" d="M243.8523,-494.5742C255.5735,-533.7333 283.3614,-607.1143 335,-644.5 351.0819,-656.1431 372.3737,-661.1843 391.0463,-663.1946"/>
<polygon fill="#191970" stroke="#191970" points="247.1478,-493.3687 241.0275,-484.7205 240.4188,-495.2978 247.1478,-493.3687"/>
</g>
<!-- Node8 -->
<g id="node8" class="node">
<title>Node8</title>
<g id="a_node8"><a xlink:href="../../d7/d71/classG4EdepNtuple.html#ac5133792693282fdd1938cfd26c9ce60" target="_top" xlink:title="end of run method">
<polygon fill="none" stroke="#000000" points="376,-614.5 376,-634.5 491,-634.5 491,-614.5 376,-614.5"/>
<text text-anchor="middle" x="433.5" y="-621.5" font-family="FreeSans" font-size="10.00" fill="#000000">G4EdepNtuple::End</text>
</a>
</g>
</g>
<!-- Node2&#45;&gt;Node8 -->
<g id="edge7" class="edge">
<title>Node2&#45;&gt;Node8</title>
<path fill="none" stroke="#191970" d="M247.9631,-494.11C262.8549,-525.6254 292.5733,-578.2935 335,-605.5 347.095,-613.256 361.6241,-617.9862 375.7623,-620.8355"/>
<polygon fill="#191970" stroke="#191970" points="250.993,-492.3193 243.6518,-484.6801 244.6268,-495.23 250.993,-492.3193"/>
</g>
<!-- Node9 -->
<g id="node9" class="node">
<title>Node9</title>
<g id="a_node9"><a xlink:href="../../dc/d81/classG4TowerNtuple.html#ac786a5e17a714c39747294b30b6d799c" target="_top" xlink:title="end of run method">
<polygon fill="none" stroke="#000000" points="374,-575.5 374,-595.5 493,-595.5 493,-575.5 374,-575.5"/>
<text text-anchor="middle" x="433.5" y="-582.5" font-family="FreeSans" font-size="10.00" fill="#000000">G4TowerNtuple::End</text>
</a>
</g>
</g>
<!-- Node2&#45;&gt;Node9 -->
<g id="edge8" class="edge">
<title>Node2&#45;&gt;Node9</title>
<path fill="none" stroke="#191970" d="M254.381,-492.8239C272.0216,-515.5923 301.4552,-548.6948 335,-566.5 346.8451,-572.7873 360.4758,-577.0112 373.7464,-579.8444"/>
<polygon fill="#191970" stroke="#191970" points="257.0331,-490.5279 248.2135,-484.657 251.447,-494.7464 257.0331,-490.5279"/>
</g>
<!-- Node10 -->
<g id="node10" class="node">
<title>Node10</title>
<g id="a_node10"><a xlink:href="../../d0/d39/classG4CellNtuple.html#a8fa0c15f7364ad0c3f090267a509ed43" target="_top" xlink:title="end of run method">
<polygon fill="none" stroke="#000000" points="379,-536.5 379,-556.5 488,-556.5 488,-536.5 379,-536.5"/>
<text text-anchor="middle" x="433.5" y="-543.5" font-family="FreeSans" font-size="10.00" fill="#000000">G4CellNtuple::End</text>
</a>
</g>
</g>
<!-- Node2&#45;&gt;Node10 -->
<g id="edge9" class="edge">
<title>Node2&#45;&gt;Node10</title>
<path fill="none" stroke="#191970" d="M267.1805,-490.4865C285.8639,-503.1023 310.8291,-518.2295 335,-527.5 348.8218,-532.8012 364.3242,-536.6767 378.8673,-539.4889"/>
<polygon fill="#191970" stroke="#191970" points="269.0248,-487.5069 258.8045,-484.7148 265.0529,-493.271 269.0248,-487.5069"/>
</g>
<!-- Node11 -->
<g id="node11" class="node">
<title>Node11</title>
<g id="a_node11"><a xlink:href="../../d4/db8/classG4HitNtuple.html#ae648e6f0ce7d547571efed08a99c9c0e" target="_top" xlink:title="end of run method">
<polygon fill="none" stroke="#000000" points="381.5,-497.5 381.5,-517.5 485.5,-517.5 485.5,-497.5 381.5,-497.5"/>
<text text-anchor="middle" x="433.5" y="-504.5" font-family="FreeSans" font-size="10.00" fill="#000000">G4HitNtuple::End</text>
</a>
</g>
</g>
<!-- Node2&#45;&gt;Node11 -->
<g id="edge10" class="edge">
<title>Node2&#45;&gt;Node11</title>
<path fill="none" stroke="#191970" d="M309.0173,-483.2895C317.7679,-485.0593 326.585,-486.8298 335,-488.5 350.0328,-491.4837 366.3697,-494.6613 381.3378,-497.5468"/>
<polygon fill="#191970" stroke="#191970" points="309.6871,-479.8541 299.191,-481.297 308.296,-486.7145 309.6871,-479.8541"/>
</g>
<!-- Node12 -->
<g id="node12" class="node">
<title>Node12</title>
<g id="a_node12"><a xlink:href="../../d1/ddd/classG4SnglNtuple.html#af0cd6b6ada60b23bba7901cfef6240eb" target="_top" xlink:title="end of run method">
<polygon fill="none" stroke="#000000" points="377.5,-458.5 377.5,-478.5 489.5,-478.5 489.5,-458.5 377.5,-458.5"/>
<text text-anchor="middle" x="433.5" y="-465.5" font-family="FreeSans" font-size="10.00" fill="#000000">G4SnglNtuple::End</text>
</a>
</g>
</g>
<!-- Node2&#45;&gt;Node12 -->
<g id="edge11" class="edge">
<title>Node2&#45;&gt;Node12</title>
<path fill="none" stroke="#191970" d="M309.3382,-468.5C331.7991,-468.5 356.2057,-468.5 377.3882,-468.5"/>
<polygon fill="#191970" stroke="#191970" points="309.1739,-465.0001 299.1738,-468.5 309.1738,-472.0001 309.1739,-465.0001"/>
</g>
<!-- Node13 -->
<g id="node13" class="node">
<title>Node13</title>
<g id="a_node13"><a xlink:href="../../d8/d5c/classEdepNtuple.html#a3847388b5ca20643b45241e17e976741" target="_top" xlink:title="end of run method">
<polygon fill="none" stroke="#000000" points="383,-419.5 383,-439.5 484,-439.5 484,-419.5 383,-419.5"/>
<text text-anchor="middle" x="433.5" y="-426.5" font-family="FreeSans" font-size="10.00" fill="#000000">EdepNtuple::End</text>
</a>
</g>
</g>
<!-- Node2&#45;&gt;Node13 -->
<g id="edge12" class="edge">
<title>Node2&#45;&gt;Node13</title>
<path fill="none" stroke="#191970" d="M309.145,-454.1812C333.6326,-449.321 360.4528,-443.9979 382.8964,-439.5435"/>
<polygon fill="#191970" stroke="#191970" points="308.3011,-450.7803 299.1738,-456.1602 309.6639,-457.6464 308.3011,-450.7803"/>
</g>
<!-- Node14 -->
<g id="node14" class="node">
<title>Node14</title>
<g id="a_node14"><a xlink:href="../../df/d62/classShowerSize.html#a819ecb79c646e1baba8ca5c7d9e0cf6e" target="_top" xlink:title="end of run method">
<polygon fill="none" stroke="#000000" points="383.5,-380.5 383.5,-400.5 483.5,-400.5 483.5,-380.5 383.5,-380.5"/>
<text text-anchor="middle" x="433.5" y="-387.5" font-family="FreeSans" font-size="10.00" fill="#000000">ShowerSize::End</text>
</a>
</g>
</g>
<!-- Node2&#45;&gt;Node14 -->
<g id="edge13" class="edge">
<title>Node2&#45;&gt;Node14</title>
<path fill="none" stroke="#191970" d="M267.6389,-446.7432C286.3111,-434.4275 311.1071,-419.6947 335,-410.5 350.3083,-404.609 367.6549,-400.3476 383.4791,-397.3134"/>
<polygon fill="#191970" stroke="#191970" points="265.6007,-443.896 259.2562,-452.3811 269.5074,-449.7045 265.6007,-443.896"/>
</g>
<!-- Node15 -->
<g id="node15" class="node">
<title>Node15</title>
<g id="a_node15"><a xlink:href="../../df/d1c/classTowerTiming.html#a9aa3a111f63d8f4a217cce5424905548" target="_top" xlink:title="end of run method">
<polygon fill="none" stroke="#000000" points="380,-341.5 380,-361.5 487,-361.5 487,-341.5 380,-341.5"/>
<text text-anchor="middle" x="433.5" y="-348.5" font-family="FreeSans" font-size="10.00" fill="#000000">TowerTiming::End</text>
</a>
</g>
</g>
<!-- Node2&#45;&gt;Node15 -->
<g id="edge14" class="edge">
<title>Node2&#45;&gt;Node15</title>
<path fill="none" stroke="#191970" d="M254.7741,-444.1188C272.5155,-421.6502 301.8544,-389.1921 335,-371.5 348.7006,-364.187 364.7802,-359.5416 379.9287,-356.5927"/>
<polygon fill="#191970" stroke="#191970" points="251.8873,-442.131 248.5586,-452.1894 257.4332,-446.4022 251.8873,-442.131"/>
</g>
<!-- Node16 -->
<g id="node16" class="node">
<title>Node16</title>
<g id="a_node16"><a xlink:href="../../dc/dbd/classTimingNtuple.html#a01b462c161120cb944952aa3809831ad" target="_top" xlink:title="end of run method">
<polygon fill="none" stroke="#000000" points="378,-302.5 378,-322.5 489,-322.5 489,-302.5 378,-302.5"/>
<text text-anchor="middle" x="433.5" y="-309.5" font-family="FreeSans" font-size="10.00" fill="#000000">TimingNtuple::End</text>
</a>
</g>
</g>
<!-- Node2&#45;&gt;Node16 -->
<g id="edge15" class="edge">
<title>Node2&#45;&gt;Node16</title>
<path fill="none" stroke="#191970" d="M248.0561,-443.1411C263.0445,-411.9224 292.8634,-359.7081 335,-332.5 347.6802,-324.3122 363.0371,-319.3742 377.8142,-316.4246"/>
<polygon fill="#191970" stroke="#191970" points="244.7559,-441.9374 243.714,-452.4809 251.1035,-444.8885 244.7559,-441.9374"/>
</g>
<!-- Node17 -->
<g id="node17" class="node">
<title>Node17</title>
<g id="a_node17"><a xlink:href="../../d2/d9c/classHijingShowerSize.html#a2387f3a36daa0175cafc1c6136d6c8ed" target="_top" xlink:title="end of run method">
<polygon fill="none" stroke="#000000" points="368.5,-263.5 368.5,-283.5 498.5,-283.5 498.5,-263.5 368.5,-263.5"/>
<text text-anchor="middle" x="433.5" y="-270.5" font-family="FreeSans" font-size="10.00" fill="#000000">HijingShowerSize::End</text>
</a>
</g>
</g>
<!-- Node2&#45;&gt;Node17 -->
<g id="edge16" class="edge">
<title>Node2&#45;&gt;Node17</title>
<path fill="none" stroke="#191970" d="M244.018,-442.3844C255.9005,-403.4643 283.8315,-330.8324 335,-293.5 344.7971,-286.3521 356.5345,-281.6111 368.4366,-278.4972"/>
<polygon fill="#191970" stroke="#191970" points="240.5336,-441.8301 241.0861,-452.4105 247.2522,-443.7948 240.5336,-441.8301"/>
</g>
<!-- Node18 -->
<g id="node18" class="node">
<title>Node18</title>
<g id="a_node18"><a xlink:href="../../d7/d34/classSigmaTimingNtuple.html#a7790cae11b0120462165b76dc7c12b83" target="_top" xlink:title="end of run method">
<polygon fill="none" stroke="#000000" points="362.5,-224.5 362.5,-244.5 504.5,-244.5 504.5,-224.5 362.5,-224.5"/>
<text text-anchor="middle" x="433.5" y="-231.5" font-family="FreeSans" font-size="10.00" fill="#000000">SigmaTimingNtuple::End</text>
</a>
</g>
</g>
<!-- Node2&#45;&gt;Node18 -->
<g id="edge17" class="edge">
<title>Node2&#45;&gt;Node18</title>
<path fill="none" stroke="#191970" d="M241.1487,-442.2973C249.8349,-396.593 274.4014,-302.5923 335,-254.5 342.996,-248.1542 352.4811,-243.6643 362.3573,-240.5134"/>
<polygon fill="#191970" stroke="#191970" points="237.6733,-441.8493 239.3554,-452.3097 244.5636,-443.0834 237.6733,-441.8493"/>
</g>
<!-- Node19 -->
<g id="node19" class="node">
<title>Node19</title>
<g id="a_node19"><a xlink:href="../../da/daf/classJetHepMCLoader.html#a94e00de614efb99e2fb5551a2e47e116" target="_top" xlink:title="Called at the end of all processing.">
<polygon fill="none" stroke="#000000" points="370.5,-185.5 370.5,-205.5 496.5,-205.5 496.5,-185.5 370.5,-185.5"/>
<text text-anchor="middle" x="433.5" y="-192.5" font-family="FreeSans" font-size="10.00" fill="#000000">JetHepMCLoader::End</text>
</a>
</g>
</g>
<!-- Node2&#45;&gt;Node19 -->
<g id="edge18" class="edge">
<title>Node2&#45;&gt;Node19</title>
<path fill="none" stroke="#191970" d="M239.0721,-442.4362C244.6563,-390.664 264.7503,-274.7645 335,-215.5 345.0031,-207.0612 357.5993,-201.8503 370.4107,-198.7004"/>
<polygon fill="#191970" stroke="#191970" points="235.5812,-442.173 238.0879,-452.467 242.5478,-442.8566 235.5812,-442.173"/>
</g>
<!-- Node20 -->
<g id="node20" class="node">
<title>Node20</title>
<g id="a_node20"><a xlink:href="../../d5/d60/analysis_2blob_2master_2HF-Jet_2TruthGeneration_2macros_2Fun4All__G4__sPHENIX_8C.html#a9a881c27e3822a95643d09c2fd73009e" target="_top" xlink:title="Fun4All_G4_sPHENIX">
<polygon fill="none" stroke="#000000" points="574,-156.5 574,-176.5 695,-176.5 695,-156.5 574,-156.5"/>
<text text-anchor="middle" x="634.5" y="-163.5" font-family="FreeSans" font-size="10.00" fill="#000000">Fun4All_G4_sPHENIX</text>
</a>
</g>
</g>
<!-- Node2&#45;&gt;Node20 -->
<g id="edge19" class="edge">
<title>Node2&#45;&gt;Node20</title>
<path fill="none" stroke="#191970" d="M241.8694,-442.3284C254.6139,-376.9259 291.0252,-209.2538 335,-176.5 414.275,-117.4535 540.8535,-140.5457 600.8513,-156.3773"/>
<polygon fill="#191970" stroke="#191970" points="238.411,-441.7791 239.9638,-452.2595 245.2856,-443.0982 238.411,-441.7791"/>
</g>
<!-- Node21 -->
<g id="node21" class="node">
<title>Node21</title>
<g id="a_node21"><a xlink:href="../../d8/db5/namespaceQAHistManagerDef.html#aa4c4b65716047fdf03fed1d19f802be7" target="_top" xlink:title="Save hist to root files.">
<polygon fill="none" stroke="#000000" points="335,-97.5 335,-117.5 532,-117.5 532,-97.5 335,-97.5"/>
<text text-anchor="middle" x="433.5" y="-104.5" font-family="FreeSans" font-size="10.00" fill="#000000">QAHistManagerDef::saveQARootFile</text>
</a>
</g>
</g>
<!-- Node2&#45;&gt;Node21 -->
<g id="edge20" class="edge">
<title>Node2&#45;&gt;Node21</title>
<path fill="none" stroke="#191970" d="M241.775,-442.0406C254.8076,-372.4817 292.8435,-186.792 335,-142.5 346.3232,-130.6031 361.9505,-122.7437 377.4235,-117.5538"/>
<polygon fill="#191970" stroke="#191970" points="238.279,-441.698 239.9012,-452.1679 245.1622,-442.9716 238.279,-441.698"/>
</g>
<!-- Node21&#45;&gt;Node20 -->
<g id="edge22" class="edge">
<title>Node21&#45;&gt;Node20</title>
<path fill="none" stroke="#191970" d="M476.5986,-120.4459C502.9706,-128.3355 537.4109,-138.5819 568,-147.5 578.0287,-150.4238 588.9213,-153.5547 598.9325,-156.4143"/>
<polygon fill="#191970" stroke="#191970" points="477.4949,-117.0608 466.9111,-117.5452 475.4869,-123.7666 477.4949,-117.0608"/>
</g>
<!-- Node22 -->
<g id="node22" class="node">
<title>Node22</title>
<g id="a_node22"><a xlink:href="../../da/db5/Fun4All__G4__W_8C.html#ad4745423f42356b6b3cb65bbbc1e917e" target="_top" xlink:title="Fun4All_G4_W">
<polygon fill="none" stroke="#000000" points="590.5,-117.5 590.5,-137.5 678.5,-137.5 678.5,-117.5 590.5,-117.5"/>
<text text-anchor="middle" x="634.5" y="-124.5" font-family="FreeSans" font-size="10.00" fill="#000000">Fun4All_G4_W</text>
</a>
</g>
</g>
<!-- Node21&#45;&gt;Node22 -->
<g id="edge21" class="edge">
<title>Node21&#45;&gt;Node22</title>
<path fill="none" stroke="#191970" d="M542.2926,-118.3251C559.3396,-120.0213 576.0662,-121.6857 590.4926,-123.1212"/>
<polygon fill="#191970" stroke="#191970" points="542.5309,-114.8316 532.2335,-117.3242 541.8378,-121.7973 542.5309,-114.8316"/>
</g>
<!-- Node23 -->
<g id="node23" class="node">
<title>Node23</title>
<g id="a_node23"><a xlink:href="../../dc/d8e/Fun4All__G4__Prototype2_8C.html#a6b8f092c4f51be2938dd09c810ba6226" target="_top" xlink:title="Fun4All_G4_Prototype2">
<polygon fill="none" stroke="#000000" points="568,-78.5 568,-98.5 701,-98.5 701,-78.5 568,-78.5"/>
<text text-anchor="middle" x="634.5" y="-85.5" font-family="FreeSans" font-size="10.00" fill="#000000">Fun4All_G4_Prototype2</text>
</a>
</g>
</g>
<!-- Node21&#45;&gt;Node23 -->
<g id="edge23" class="edge">
<title>Node21&#45;&gt;Node23</title>
<path fill="none" stroke="#191970" d="M542.4457,-97.2017C551.1252,-96.3812 559.7201,-95.5687 567.969,-94.789"/>
<polygon fill="#191970" stroke="#191970" points="541.8597,-93.7414 532.2335,-98.167 542.5185,-100.7103 541.8597,-93.7414"/>
</g>
<!-- Node24 -->
<g id="node24" class="node">
<title>Node24</title>
<g id="a_node24"><a xlink:href="../../d7/d40/Fun4All__G4__Prototype3_8C.html#a1201361263017b08a070777a0b90b27c" target="_top" xlink:title="Fun4All_G4_Prototype3">
<polygon fill="none" stroke="#000000" points="568,-39.5 568,-59.5 701,-59.5 701,-39.5 568,-39.5"/>
<text text-anchor="middle" x="634.5" y="-46.5" font-family="FreeSans" font-size="10.00" fill="#000000">Fun4All_G4_Prototype3</text>
</a>
</g>
</g>
<!-- Node21&#45;&gt;Node24 -->
<g id="edge24" class="edge">
<title>Node21&#45;&gt;Node24</title>
<path fill="none" stroke="#191970" d="M478.4267,-94.5361C515.0219,-83.9763 565.9563,-69.2788 599.5531,-59.5842"/>
<polygon fill="#191970" stroke="#191970" points="477.1491,-91.2618 468.5115,-97.3972 479.0899,-97.9874 477.1491,-91.2618"/>
</g>
<!-- Node25 -->
<g id="node25" class="node">
<title>Node25</title>
<g id="a_node25"><a xlink:href="../../d4/d58/Fun4All__G4__Prototype4_8C.html#acac517f0728af658cbf99c7c9687c908" target="_top" xlink:title="Fun4All_G4_Prototype4">
<polygon fill="none" stroke="#000000" points="568,-.5 568,-20.5 701,-20.5 701,-.5 568,-.5"/>
<text text-anchor="middle" x="634.5" y="-7.5" font-family="FreeSans" font-size="10.00" fill="#000000">Fun4All_G4_Prototype4</text>
</a>
</g>
</g>
<!-- Node21&#45;&gt;Node25 -->
<g id="edge25" class="edge">
<title>Node21&#45;&gt;Node25</title>
<path fill="none" stroke="#191970" d="M456.6334,-91.6966C482.7243,-74.4513 526.8891,-46.9742 568,-29.5 575.9562,-26.1182 584.6973,-23.1357 593.1525,-20.5955"/>
<polygon fill="#191970" stroke="#191970" points="454.5631,-88.8705 448.1932,-97.3366 458.4523,-94.6906 454.5631,-88.8705"/>
</g>
</g>
</svg>
