<?xml version="1.0" encoding="UTF-8" standalone="no"?>
<!DOCTYPE svg PUBLIC "-//W3C//DTD SVG 1.1//EN"
 "http://www.w3.org/Graphics/SVG/1.1/DTD/svg11.dtd">
<!-- Generated by graphviz version 2.40.1 (20161225.0304)
 -->
<!-- Title: coresoftware/blob/master/offline/packages/trackbase_historic/SvtxVertexMap.h Pages: 1 -->
<svg width="4908pt" height="227pt"
 viewBox="0.00 0.00 4908.00 227.00" xmlns="http://www.w3.org/2000/svg" xmlns:xlink="http://www.w3.org/1999/xlink">
<g id="graph0" class="graph" transform="scale(1 1) rotate(0) translate(4 223)">
<title>coresoftware/blob/master/offline/packages/trackbase_historic/SvtxVertexMap.h</title>
<!-- Node1 -->
<g id="node1" class="node">
<title>Node1</title>
<polygon fill="#bfbfbf" stroke="#000000" points="2030.5,-174.5 2030.5,-218.5 2187.5,-218.5 2187.5,-174.5 2030.5,-174.5"/>
<text text-anchor="start" x="2038.5" y="-205.5" font-family="FreeSans" font-size="10.00" fill="#000000">coresoftware/blob/master</text>
<text text-anchor="start" x="2038.5" y="-193.5" font-family="FreeSans" font-size="10.00" fill="#000000">/offline/packages/trackbase</text>
<text text-anchor="middle" x="2109" y="-181.5" font-family="FreeSans" font-size="10.00" fill="#000000">_historic/SvtxVertexMap.h</text>
</g>
<!-- Node2 -->
<g id="node2" class="node">
<title>Node2</title>
<g id="a_node2"><a xlink:href="../../de/db9/DumpSvtxVertexMap_8cc.html" target="_top" xlink:title="coresoftware/blob/master\l/offline/packages/NodeDump\l/DumpSvtxVertexMap.cc">
<polygon fill="none" stroke="#000000" points="454,-87.5 454,-131.5 618,-131.5 618,-87.5 454,-87.5"/>
<text text-anchor="start" x="462" y="-118.5" font-family="FreeSans" font-size="10.00" fill="#000000">coresoftware/blob/master</text>
<text text-anchor="start" x="462" y="-106.5" font-family="FreeSans" font-size="10.00" fill="#000000">/offline/packages/NodeDump</text>
<text text-anchor="middle" x="536" y="-94.5" font-family="FreeSans" font-size="10.00" fill="#000000">/DumpSvtxVertexMap.cc</text>
</a>
</g>
</g>
<!-- Node1&#45;&gt;Node2 -->
<g id="edge1" class="edge">
<title>Node1&#45;&gt;Node2</title>
<path fill="none" stroke="#191970" d="M2019.8889,-195.8738C1743.2048,-193.472 901.3357,-182.5954 632,-138 622.3091,-136.3954 612.2196,-134.1109 602.3796,-131.5247"/>
<polygon fill="#191970" stroke="#191970" points="2020.25,-199.3769 2030.2794,-195.9623 2020.3096,-192.3772 2020.25,-199.3769"/>
</g>
<!-- Node3 -->
<g id="node3" class="node">
<title>Node3</title>
<g id="a_node3"><a xlink:href="../../d3/daf/SvtxVertexMap__v1_8h.html" target="_top" xlink:title="coresoftware/blob/master\l/offline/packages/trackbase\l_historic/SvtxVertexMap_v1.h">
<polygon fill="none" stroke="#000000" points="750.5,-87.5 750.5,-131.5 915.5,-131.5 915.5,-87.5 750.5,-87.5"/>
<text text-anchor="start" x="758.5" y="-118.5" font-family="FreeSans" font-size="10.00" fill="#000000">coresoftware/blob/master</text>
<text text-anchor="start" x="758.5" y="-106.5" font-family="FreeSans" font-size="10.00" fill="#000000">/offline/packages/trackbase</text>
<text text-anchor="middle" x="833" y="-94.5" font-family="FreeSans" font-size="10.00" fill="#000000">_historic/SvtxVertexMap_v1.h</text>
</a>
</g>
</g>
<!-- Node1&#45;&gt;Node3 -->
<g id="edge2" class="edge">
<title>Node1&#45;&gt;Node3</title>
<path fill="none" stroke="#191970" d="M2019.9481,-194.8026C1782.7385,-189.8465 1139.4338,-173.4497 930,-138 920.3087,-136.3596 910.2157,-134.0731 900.3605,-131.5017"/>
<polygon fill="#191970" stroke="#191970" points="2020.1849,-198.3082 2030.2553,-195.0161 2020.3299,-191.3097 2020.1849,-198.3082"/>
</g>
<!-- Node5 -->
<g id="node5" class="node">
<title>Node5</title>
<g id="a_node5"><a xlink:href="../../d0/d52/PHGenFitTrkFitter_8cc.html" target="_top" xlink:title="coresoftware/blob/master\l/offline/packages/trackreco\l/PHGenFitTrkFitter.cc">
<polygon fill="none" stroke="#000000" points="0,-.5 0,-44.5 154,-44.5 154,-.5 0,-.5"/>
<text text-anchor="start" x="8" y="-31.5" font-family="FreeSans" font-size="10.00" fill="#000000">coresoftware/blob/master</text>
<text text-anchor="start" x="8" y="-19.5" font-family="FreeSans" font-size="10.00" fill="#000000">/offline/packages/trackreco</text>
<text text-anchor="middle" x="77" y="-7.5" font-family="FreeSans" font-size="10.00" fill="#000000">/PHGenFitTrkFitter.cc</text>
</a>
</g>
</g>
<!-- Node1&#45;&gt;Node5 -->
<g id="edge13" class="edge">
<title>Node1&#45;&gt;Node5</title>
<path fill="none" stroke="#191970" d="M2020.23,-195.2654C1714.1487,-190.704 718.3223,-173.2124 660,-138 634.9405,-122.8702 651.7747,-96.5918 627,-81 539.4704,-25.9139 264.988,-62.1566 163,-45 160.1083,-44.5136 157.1722,-43.9754 154.2141,-43.3958"/>
<polygon fill="#191970" stroke="#191970" points="2020.3394,-198.7673 2030.3901,-195.4159 2020.4431,-191.7681 2020.3394,-198.7673"/>
</g>
<!-- Node6 -->
<g id="node6" class="node">
<title>Node6</title>
<g id="a_node6"><a xlink:href="../../d8/d2a/PHInitVertexing_8cc.html" target="_top" xlink:title="coresoftware/blob/master\l/offline/packages/trackreco\l/PHInitVertexing.cc">
<polygon fill="none" stroke="#000000" points="172,-.5 172,-44.5 326,-44.5 326,-.5 172,-.5"/>
<text text-anchor="start" x="180" y="-31.5" font-family="FreeSans" font-size="10.00" fill="#000000">coresoftware/blob/master</text>
<text text-anchor="start" x="180" y="-19.5" font-family="FreeSans" font-size="10.00" fill="#000000">/offline/packages/trackreco</text>
<text text-anchor="middle" x="249" y="-7.5" font-family="FreeSans" font-size="10.00" fill="#000000">/PHInitVertexing.cc</text>
</a>
</g>
</g>
<!-- Node1&#45;&gt;Node6 -->
<g id="edge16" class="edge">
<title>Node1&#45;&gt;Node6</title>
<path fill="none" stroke="#191970" d="M2019.8781,-195.024C1718.8997,-189.7509 755.6558,-170.4106 698,-138 671.4592,-123.0804 686.0114,-96.8247 660,-81 597.9218,-43.233 406.4492,-58.231 335,-45 332.1167,-44.4661 329.1877,-43.8875 326.2357,-43.2737"/>
<polygon fill="#191970" stroke="#191970" points="2020.2434,-198.5308 2030.3028,-195.2057 2020.3654,-191.5319 2020.2434,-198.5308"/>
</g>
<!-- Node7 -->
<g id="node7" class="node">
<title>Node7</title>
<g id="a_node7"><a xlink:href="../../d4/d68/PHPatternReco_8cc.html" target="_top" xlink:title="coresoftware/blob/master\l/offline/packages/trackreco\l/PHPatternReco.cc">
<polygon fill="none" stroke="#000000" points="344,-.5 344,-44.5 498,-44.5 498,-.5 344,-.5"/>
<text text-anchor="start" x="352" y="-31.5" font-family="FreeSans" font-size="10.00" fill="#000000">coresoftware/blob/master</text>
<text text-anchor="start" x="352" y="-19.5" font-family="FreeSans" font-size="10.00" fill="#000000">/offline/packages/trackreco</text>
<text text-anchor="middle" x="421" y="-7.5" font-family="FreeSans" font-size="10.00" fill="#000000">/PHPatternReco.cc</text>
</a>
</g>
</g>
<!-- Node1&#45;&gt;Node7 -->
<g id="edge18" class="edge">
<title>Node1&#45;&gt;Node7</title>
<path fill="none" stroke="#191970" d="M2020.1394,-194.7815C1725.7278,-188.8163 797.6121,-167.7335 741,-138 712.9058,-123.2445 724.9637,-97.7324 698,-81 624.6005,-35.4517 591.2808,-63.9437 507,-45 504.1391,-44.357 501.2291,-43.6854 498.2931,-42.9932"/>
<polygon fill="#191970" stroke="#191970" points="2020.2741,-198.2848 2030.3427,-194.9873 2020.4153,-191.2862 2020.2741,-198.2848"/>
</g>
<!-- Node8 -->
<g id="node8" class="node">
<title>Node8</title>
<g id="a_node8"><a xlink:href="../../d0/d76/PHRaveVertexing_8cc.html" target="_top" xlink:title="coresoftware/blob/master\l/offline/packages/trackreco\l/PHRaveVertexing.cc">
<polygon fill="none" stroke="#000000" points="902,-.5 902,-44.5 1056,-44.5 1056,-.5 902,-.5"/>
<text text-anchor="start" x="910" y="-31.5" font-family="FreeSans" font-size="10.00" fill="#000000">coresoftware/blob/master</text>
<text text-anchor="start" x="910" y="-19.5" font-family="FreeSans" font-size="10.00" fill="#000000">/offline/packages/trackreco</text>
<text text-anchor="middle" x="979" y="-7.5" font-family="FreeSans" font-size="10.00" fill="#000000">/PHRaveVertexing.cc</text>
</a>
</g>
</g>
<!-- Node1&#45;&gt;Node8 -->
<g id="edge19" class="edge">
<title>Node1&#45;&gt;Node8</title>
<path fill="none" stroke="#191970" d="M2020.0849,-194.2588C1768.5206,-187.5794 1067.2899,-166.4888 1027,-138 996.5042,-116.4366 985.3191,-71.7105 981.2623,-44.6806"/>
<polygon fill="#191970" stroke="#191970" points="2020.1948,-197.7628 2030.2838,-194.5282 2020.3798,-190.7653 2020.1948,-197.7628"/>
</g>
<!-- Node9 -->
<g id="node9" class="node">
<title>Node9</title>
<g id="a_node9"><a xlink:href="../../df/dca/PHG4TrackFastSim_8cc.html" target="_top" xlink:title="Kalman Filter based on smeared truth PHG4Hit.">
<polygon fill="none" stroke="#000000" points="1074.5,-.5 1074.5,-44.5 1281.5,-44.5 1281.5,-.5 1074.5,-.5"/>
<text text-anchor="start" x="1082.5" y="-31.5" font-family="FreeSans" font-size="10.00" fill="#000000">coresoftware/blob/master</text>
<text text-anchor="start" x="1082.5" y="-19.5" font-family="FreeSans" font-size="10.00" fill="#000000">/simulation/g4simulation</text>
<text text-anchor="middle" x="1178" y="-7.5" font-family="FreeSans" font-size="10.00" fill="#000000">/g4trackfastsim/PHG4TrackFastSim.cc</text>
</a>
</g>
</g>
<!-- Node1&#45;&gt;Node9 -->
<g id="edge28" class="edge">
<title>Node1&#45;&gt;Node9</title>
<path fill="none" stroke="#191970" d="M2020.3478,-194.9151C1770.4774,-190.0184 1076.4027,-173.286 1043,-138 1025.5843,-119.6024 1029.0967,-102.1773 1043,-81 1053.6541,-64.7718 1069.8805,-53.0232 1087.4317,-44.5247"/>
<polygon fill="#191970" stroke="#191970" points="2020.4133,-198.417 2030.4794,-195.112 2020.5493,-191.4183 2020.4133,-198.417"/>
</g>
<!-- Node11 -->
<g id="node11" class="node">
<title>Node11</title>
<g id="a_node11"><a xlink:href="../../df/d40/TpcPrototypeGenFitTrkFinder_8cc.html" target="_top" xlink:title="prototype/blob/master\l/offline/packages/tpc2019\l/TpcPrototypeGenFitTrkFinder.cc">
<polygon fill="none" stroke="#000000" points="1300,-.5 1300,-44.5 1478,-44.5 1478,-.5 1300,-.5"/>
<text text-anchor="start" x="1308" y="-31.5" font-family="FreeSans" font-size="10.00" fill="#000000">prototype/blob/master</text>
<text text-anchor="start" x="1308" y="-19.5" font-family="FreeSans" font-size="10.00" fill="#000000">/offline/packages/tpc2019</text>
<text text-anchor="middle" x="1389" y="-7.5" font-family="FreeSans" font-size="10.00" fill="#000000">/TpcPrototypeGenFitTrkFinder.cc</text>
</a>
</g>
</g>
<!-- Node1&#45;&gt;Node11 -->
<g id="edge38" class="edge">
<title>Node1&#45;&gt;Node11</title>
<path fill="none" stroke="#191970" d="M2020.4551,-194.8348C1773.4638,-189.7605 1092.7983,-172.6783 1060,-138 1042.5925,-119.5947 1043.5235,-100.2432 1060,-81 1093.7897,-41.5365 1239.9833,-54.819 1291,-45 1293.9141,-44.4391 1296.8734,-43.8535 1299.8589,-43.249"/>
<polygon fill="#191970" stroke="#191970" points="2020.4039,-198.3344 2030.4732,-195.0389 2020.5466,-191.3358 2020.4039,-198.3344"/>
</g>
<!-- Node12 -->
<g id="node12" class="node">
<title>Node12</title>
<g id="a_node12"><a xlink:href="../../d0/d1a/TpcPrototypeGenFitTrkFitter_8cc.html" target="_top" xlink:title="prototype/blob/master\l/offline/packages/tpc2019\l/TpcPrototypeGenFitTrkFitter.cc">
<polygon fill="none" stroke="#000000" points="1496.5,-.5 1496.5,-44.5 1669.5,-44.5 1669.5,-.5 1496.5,-.5"/>
<text text-anchor="start" x="1504.5" y="-31.5" font-family="FreeSans" font-size="10.00" fill="#000000">prototype/blob/master</text>
<text text-anchor="start" x="1504.5" y="-19.5" font-family="FreeSans" font-size="10.00" fill="#000000">/offline/packages/tpc2019</text>
<text text-anchor="middle" x="1583" y="-7.5" font-family="FreeSans" font-size="10.00" fill="#000000">/TpcPrototypeGenFitTrkFitter.cc</text>
</a>
</g>
</g>
<!-- Node1&#45;&gt;Node12 -->
<g id="edge39" class="edge">
<title>Node1&#45;&gt;Node12</title>
<path fill="none" stroke="#191970" d="M2020.234,-194.7448C1775.8715,-189.4828 1109.1798,-172.0557 1077,-138 1059.6009,-119.5867 1059.888,-99.6804 1077,-81 1107.89,-47.2788 1441.8453,-52.2361 1487,-45 1490.0425,-44.5124 1493.1317,-43.9822 1496.2461,-43.4177"/>
<polygon fill="#191970" stroke="#191970" points="2020.4267,-198.2497 2030.4992,-194.9641 2020.5762,-191.2513 2020.4267,-198.2497"/>
</g>
<!-- Node13 -->
<g id="node13" class="node">
<title>Node13</title>
<g id="a_node13"><a xlink:href="../../df/d56/PH3DVertexing_8cc.html" target="_top" xlink:title="coresoftware/blob/master\l/offline/packages/trackreco\l/PH3DVertexing.cc">
<polygon fill="none" stroke="#000000" points="1086,-87.5 1086,-131.5 1240,-131.5 1240,-87.5 1086,-87.5"/>
<text text-anchor="start" x="1094" y="-118.5" font-family="FreeSans" font-size="10.00" fill="#000000">coresoftware/blob/master</text>
<text text-anchor="start" x="1094" y="-106.5" font-family="FreeSans" font-size="10.00" fill="#000000">/offline/packages/trackreco</text>
<text text-anchor="middle" x="1163" y="-94.5" font-family="FreeSans" font-size="10.00" fill="#000000">/PH3DVertexing.cc</text>
</a>
</g>
</g>
<!-- Node1&#45;&gt;Node13 -->
<g id="edge12" class="edge">
<title>Node1&#45;&gt;Node13</title>
<path fill="none" stroke="#191970" d="M2020.3124,-193.3019C1831.4115,-186.0272 1394.7235,-166.6247 1249,-138 1240.5112,-136.3325 1231.7004,-134.0661 1223.0977,-131.5349"/>
<polygon fill="#191970" stroke="#191970" points="2020.3575,-196.806 2030.4841,-193.691 2020.6253,-189.8112 2020.3575,-196.806"/>
</g>
<!-- Node14 -->
<g id="node14" class="node">
<title>Node14</title>
<g id="a_node14"><a xlink:href="../../da/d80/PHGenFitTrkProp_8cc.html" target="_top" xlink:title="coresoftware/blob/master\l/offline/packages/trackreco\l/PHGenFitTrkProp.cc">
<polygon fill="none" stroke="#000000" points="1258,-87.5 1258,-131.5 1412,-131.5 1412,-87.5 1258,-87.5"/>
<text text-anchor="start" x="1266" y="-118.5" font-family="FreeSans" font-size="10.00" fill="#000000">coresoftware/blob/master</text>
<text text-anchor="start" x="1266" y="-106.5" font-family="FreeSans" font-size="10.00" fill="#000000">/offline/packages/trackreco</text>
<text text-anchor="middle" x="1335" y="-94.5" font-family="FreeSans" font-size="10.00" fill="#000000">/PHGenFitTrkProp.cc</text>
</a>
</g>
</g>
<!-- Node1&#45;&gt;Node14 -->
<g id="edge14" class="edge">
<title>Node1&#45;&gt;Node14</title>
<path fill="none" stroke="#191970" d="M2019.9821,-191.5423C1860.6969,-182.2366 1533.1044,-161.0067 1421,-138 1412.6797,-136.2925 1404.043,-134.0372 1395.5936,-131.5413"/>
<polygon fill="#191970" stroke="#191970" points="2020.0402,-195.0515 2030.2265,-192.1379 2020.4465,-188.0633 2020.0402,-195.0515"/>
</g>
<!-- Node15 -->
<g id="node15" class="node">
<title>Node15</title>
<g id="a_node15"><a xlink:href="../../d8/dbe/PHHoughSeeding_8cc.html" target="_top" xlink:title="coresoftware/blob/master\l/offline/packages/trackreco\l/PHHoughSeeding.cc">
<polygon fill="none" stroke="#000000" points="1430,-87.5 1430,-131.5 1584,-131.5 1584,-87.5 1430,-87.5"/>
<text text-anchor="start" x="1438" y="-118.5" font-family="FreeSans" font-size="10.00" fill="#000000">coresoftware/blob/master</text>
<text text-anchor="start" x="1438" y="-106.5" font-family="FreeSans" font-size="10.00" fill="#000000">/offline/packages/trackreco</text>
<text text-anchor="middle" x="1507" y="-94.5" font-family="FreeSans" font-size="10.00" fill="#000000">/PHHoughSeeding.cc</text>
</a>
</g>
</g>
<!-- Node1&#45;&gt;Node15 -->
<g id="edge15" class="edge">
<title>Node1&#45;&gt;Node15</title>
<path fill="none" stroke="#191970" d="M2020.2719,-192.0352C1916.7332,-185.541 1740.8495,-170.511 1593,-138 1585.0117,-136.2434 1576.7204,-134.0246 1568.5786,-131.6037"/>
<polygon fill="#191970" stroke="#191970" points="2020.175,-195.5358 2030.3709,-192.6559 2020.6045,-188.5489 2020.175,-195.5358"/>
</g>
<!-- Node16 -->
<g id="node16" class="node">
<title>Node16</title>
<g id="a_node16"><a xlink:href="../../d8/dda/PHInitZVertexing_8cc.html" target="_top" xlink:title="coresoftware/blob/master\l/offline/packages/trackreco\l/PHInitZVertexing.cc">
<polygon fill="none" stroke="#000000" points="1602,-87.5 1602,-131.5 1756,-131.5 1756,-87.5 1602,-87.5"/>
<text text-anchor="start" x="1610" y="-118.5" font-family="FreeSans" font-size="10.00" fill="#000000">coresoftware/blob/master</text>
<text text-anchor="start" x="1610" y="-106.5" font-family="FreeSans" font-size="10.00" fill="#000000">/offline/packages/trackreco</text>
<text text-anchor="middle" x="1679" y="-94.5" font-family="FreeSans" font-size="10.00" fill="#000000">/PHInitZVertexing.cc</text>
</a>
</g>
</g>
<!-- Node1&#45;&gt;Node16 -->
<g id="edge17" class="edge">
<title>Node1&#45;&gt;Node16</title>
<path fill="none" stroke="#191970" d="M2020.3311,-185.1906C1950.4061,-175.369 1850.7206,-159.3616 1765,-138 1757.5215,-136.1363 1749.7551,-133.942 1742.085,-131.6118"/>
<polygon fill="#191970" stroke="#191970" points="2020.0399,-188.6837 2030.4267,-186.5947 2021.0042,-181.7504 2020.0399,-188.6837"/>
</g>
<!-- Node17 -->
<g id="node17" class="node">
<title>Node17</title>
<g id="a_node17"><a xlink:href="../../d5/d4f/PHTrackFitting_8cc.html" target="_top" xlink:title="coresoftware/blob/master\l/offline/packages/trackreco\l/PHTrackFitting.cc">
<polygon fill="none" stroke="#000000" points="1774,-87.5 1774,-131.5 1928,-131.5 1928,-87.5 1774,-87.5"/>
<text text-anchor="start" x="1782" y="-118.5" font-family="FreeSans" font-size="10.00" fill="#000000">coresoftware/blob/master</text>
<text text-anchor="start" x="1782" y="-106.5" font-family="FreeSans" font-size="10.00" fill="#000000">/offline/packages/trackreco</text>
<text text-anchor="middle" x="1851" y="-94.5" font-family="FreeSans" font-size="10.00" fill="#000000">/PHTrackFitting.cc</text>
</a>
</g>
</g>
<!-- Node1&#45;&gt;Node17 -->
<g id="edge20" class="edge">
<title>Node1&#45;&gt;Node17</title>
<path fill="none" stroke="#191970" d="M2033.7766,-171.134C1996.5829,-158.5919 1952.1245,-143.6001 1916.3681,-131.5427"/>
<polygon fill="#191970" stroke="#191970" points="2032.968,-174.5549 2043.5622,-174.4338 2035.2048,-167.9219 2032.968,-174.5549"/>
</g>
<!-- Node18 -->
<g id="node18" class="node">
<title>Node18</title>
<g id="a_node18"><a xlink:href="../../d9/d52/PHTrackPropagating_8cc.html" target="_top" xlink:title="coresoftware/blob/master\l/offline/packages/trackreco\l/PHTrackPropagating.cc">
<polygon fill="none" stroke="#000000" points="1946,-87.5 1946,-131.5 2100,-131.5 2100,-87.5 1946,-87.5"/>
<text text-anchor="start" x="1954" y="-118.5" font-family="FreeSans" font-size="10.00" fill="#000000">coresoftware/blob/master</text>
<text text-anchor="start" x="1954" y="-106.5" font-family="FreeSans" font-size="10.00" fill="#000000">/offline/packages/trackreco</text>
<text text-anchor="middle" x="2023" y="-94.5" font-family="FreeSans" font-size="10.00" fill="#000000">/PHTrackPropagating.cc</text>
</a>
</g>
</g>
<!-- Node1&#45;&gt;Node18 -->
<g id="edge21" class="edge">
<title>Node1&#45;&gt;Node18</title>
<path fill="none" stroke="#191970" d="M2079.5945,-166.7526C2068.1778,-155.2031 2055.3359,-142.2119 2044.7744,-131.5276"/>
<polygon fill="#191970" stroke="#191970" points="2077.3336,-169.444 2086.8529,-174.0953 2082.3119,-164.523 2077.3336,-169.444"/>
</g>
<!-- Node19 -->
<g id="node19" class="node">
<title>Node19</title>
<g id="a_node19"><a xlink:href="../../db/dff/PHTrackSeeding_8cc.html" target="_top" xlink:title="coresoftware/blob/master\l/offline/packages/trackreco\l/PHTrackSeeding.cc">
<polygon fill="none" stroke="#000000" points="2118,-87.5 2118,-131.5 2272,-131.5 2272,-87.5 2118,-87.5"/>
<text text-anchor="start" x="2126" y="-118.5" font-family="FreeSans" font-size="10.00" fill="#000000">coresoftware/blob/master</text>
<text text-anchor="start" x="2126" y="-106.5" font-family="FreeSans" font-size="10.00" fill="#000000">/offline/packages/trackreco</text>
<text text-anchor="middle" x="2195" y="-94.5" font-family="FreeSans" font-size="10.00" fill="#000000">/PHTrackSeeding.cc</text>
</a>
</g>
</g>
<!-- Node1&#45;&gt;Node19 -->
<g id="edge22" class="edge">
<title>Node1&#45;&gt;Node19</title>
<path fill="none" stroke="#191970" d="M2138.4055,-166.7526C2149.8222,-155.2031 2162.6641,-142.2119 2173.2256,-131.5276"/>
<polygon fill="#191970" stroke="#191970" points="2135.6881,-164.523 2131.1471,-174.0953 2140.6664,-169.444 2135.6881,-164.523"/>
</g>
<!-- Node20 -->
<g id="node20" class="node">
<title>Node20</title>
<g id="a_node20"><a xlink:href="../../dc/dbf/PHTrackSetMerging_8cc.html" target="_top" xlink:title="coresoftware/blob/master\l/offline/packages/trackreco\l/PHTrackSetMerging.cc">
<polygon fill="none" stroke="#000000" points="2290,-87.5 2290,-131.5 2444,-131.5 2444,-87.5 2290,-87.5"/>
<text text-anchor="start" x="2298" y="-118.5" font-family="FreeSans" font-size="10.00" fill="#000000">coresoftware/blob/master</text>
<text text-anchor="start" x="2298" y="-106.5" font-family="FreeSans" font-size="10.00" fill="#000000">/offline/packages/trackreco</text>
<text text-anchor="middle" x="2367" y="-94.5" font-family="FreeSans" font-size="10.00" fill="#000000">/PHTrackSetMerging.cc</text>
</a>
</g>
</g>
<!-- Node1&#45;&gt;Node20 -->
<g id="edge23" class="edge">
<title>Node1&#45;&gt;Node20</title>
<path fill="none" stroke="#191970" d="M2184.2234,-171.134C2221.4171,-158.5919 2265.8755,-143.6001 2301.6319,-131.5427"/>
<polygon fill="#191970" stroke="#191970" points="2182.7952,-167.9219 2174.4378,-174.4338 2185.032,-174.5549 2182.7952,-167.9219"/>
</g>
<!-- Node21 -->
<g id="node21" class="node">
<title>Node21</title>
<g id="a_node21"><a xlink:href="../../d1/d0a/PHTruthVertexing_8cc.html" target="_top" xlink:title="coresoftware/blob/master\l/offline/packages/trackreco\l/PHTruthVertexing.cc">
<polygon fill="none" stroke="#000000" points="2462,-87.5 2462,-131.5 2616,-131.5 2616,-87.5 2462,-87.5"/>
<text text-anchor="start" x="2470" y="-118.5" font-family="FreeSans" font-size="10.00" fill="#000000">coresoftware/blob/master</text>
<text text-anchor="start" x="2470" y="-106.5" font-family="FreeSans" font-size="10.00" fill="#000000">/offline/packages/trackreco</text>
<text text-anchor="middle" x="2539" y="-94.5" font-family="FreeSans" font-size="10.00" fill="#000000">/PHTruthVertexing.cc</text>
</a>
</g>
</g>
<!-- Node1&#45;&gt;Node21 -->
<g id="edge24" class="edge">
<title>Node1&#45;&gt;Node21</title>
<path fill="none" stroke="#191970" d="M2197.6689,-185.1906C2267.5939,-175.369 2367.2794,-159.3616 2453,-138 2460.4785,-136.1363 2468.2449,-133.942 2475.915,-131.6118"/>
<polygon fill="#191970" stroke="#191970" points="2196.9958,-181.7504 2187.5733,-186.5947 2197.9601,-188.6837 2196.9958,-181.7504"/>
</g>
<!-- Node22 -->
<g id="node22" class="node">
<title>Node22</title>
<g id="a_node22"><a xlink:href="../../d7/dd1/SvtxEvaluator_8cc.html" target="_top" xlink:title="coresoftware/blob/master\l/simulation/g4simulation\l/g4eval/SvtxEvaluator.cc">
<polygon fill="none" stroke="#000000" points="2634,-87.5 2634,-131.5 2780,-131.5 2780,-87.5 2634,-87.5"/>
<text text-anchor="start" x="2642" y="-118.5" font-family="FreeSans" font-size="10.00" fill="#000000">coresoftware/blob/master</text>
<text text-anchor="start" x="2642" y="-106.5" font-family="FreeSans" font-size="10.00" fill="#000000">/simulation/g4simulation</text>
<text text-anchor="middle" x="2707" y="-94.5" font-family="FreeSans" font-size="10.00" fill="#000000">/g4eval/SvtxEvaluator.cc</text>
</a>
</g>
</g>
<!-- Node1&#45;&gt;Node22 -->
<g id="edge25" class="edge">
<title>Node1&#45;&gt;Node22</title>
<path fill="none" stroke="#191970" d="M2197.8132,-192.4155C2301.4316,-186.2778 2477.39,-171.5817 2625,-138 2632.6419,-136.2615 2640.5626,-134.0533 2648.3335,-131.638"/>
<polygon fill="#191970" stroke="#191970" points="2197.4872,-188.9284 2187.7062,-193.0006 2197.8917,-195.9167 2197.4872,-188.9284"/>
</g>
<!-- Node23 -->
<g id="node23" class="node">
<title>Node23</title>
<g id="a_node23"><a xlink:href="../../d3/de1/SvtxVertexEval_8cc.html" target="_top" xlink:title="coresoftware/blob/master\l/simulation/g4simulation\l/g4eval/SvtxVertexEval.cc">
<polygon fill="none" stroke="#000000" points="2798,-87.5 2798,-131.5 2946,-131.5 2946,-87.5 2798,-87.5"/>
<text text-anchor="start" x="2806" y="-118.5" font-family="FreeSans" font-size="10.00" fill="#000000">coresoftware/blob/master</text>
<text text-anchor="start" x="2806" y="-106.5" font-family="FreeSans" font-size="10.00" fill="#000000">/simulation/g4simulation</text>
<text text-anchor="middle" x="2872" y="-94.5" font-family="FreeSans" font-size="10.00" fill="#000000">/g4eval/SvtxVertexEval.cc</text>
</a>
</g>
</g>
<!-- Node1&#45;&gt;Node23 -->
<g id="edge26" class="edge">
<title>Node1&#45;&gt;Node23</title>
<path fill="none" stroke="#191970" d="M2197.917,-191.5638C2355.724,-182.3514 2678.5379,-161.3466 2789,-138 2797.0494,-136.2987 2805.396,-134.0471 2813.5563,-131.553"/>
<polygon fill="#191970" stroke="#191970" points="2197.5453,-188.0794 2187.7651,-192.1535 2197.9513,-195.0676 2197.5453,-188.0794"/>
</g>
<!-- Node24 -->
<g id="node24" class="node">
<title>Node24</title>
<g id="a_node24"><a xlink:href="../../df/dc1/TrkrEvaluator_8cc.html" target="_top" xlink:title="coresoftware/blob/master\l/simulation/g4simulation\l/g4eval/TrkrEvaluator.cc">
<polygon fill="none" stroke="#000000" points="2964,-87.5 2964,-131.5 3110,-131.5 3110,-87.5 2964,-87.5"/>
<text text-anchor="start" x="2972" y="-118.5" font-family="FreeSans" font-size="10.00" fill="#000000">coresoftware/blob/master</text>
<text text-anchor="start" x="2972" y="-106.5" font-family="FreeSans" font-size="10.00" fill="#000000">/simulation/g4simulation</text>
<text text-anchor="middle" x="3037" y="-94.5" font-family="FreeSans" font-size="10.00" fill="#000000">/g4eval/TrkrEvaluator.cc</text>
</a>
</g>
</g>
<!-- Node1&#45;&gt;Node24 -->
<g id="edge27" class="edge">
<title>Node1&#45;&gt;Node24</title>
<path fill="none" stroke="#191970" d="M2197.6601,-193.3483C2384.2896,-186.2272 2812.2161,-167.2069 2955,-138 2963.1211,-136.3388 2971.5377,-134.0759 2979.7478,-131.5465"/>
<polygon fill="#191970" stroke="#191970" points="2197.4674,-189.853 2187.6072,-193.7292 2197.7326,-196.8479 2197.4674,-189.853"/>
</g>
<!-- Node25 -->
<g id="node25" class="node">
<title>Node25</title>
<g id="a_node25"><a xlink:href="../../d7/de6/PHG4TrackFastSimEval_8cc.html" target="_top" xlink:title="Evaluation module for PHG4TrackFastSim output.">
<polygon fill="none" stroke="#000000" points="3128.5,-81.5 3128.5,-137.5 3321.5,-137.5 3321.5,-81.5 3128.5,-81.5"/>
<text text-anchor="start" x="3136.5" y="-124.5" font-family="FreeSans" font-size="10.00" fill="#000000">coresoftware/blob/master</text>
<text text-anchor="start" x="3136.5" y="-112.5" font-family="FreeSans" font-size="10.00" fill="#000000">/simulation/g4simulation</text>
<text text-anchor="start" x="3136.5" y="-100.5" font-family="FreeSans" font-size="10.00" fill="#000000">/g4trackfastsim/PHG4TrackFastSim</text>
<text text-anchor="middle" x="3225" y="-88.5" font-family="FreeSans" font-size="10.00" fill="#000000">Eval.cc</text>
</a>
</g>
</g>
<!-- Node1&#45;&gt;Node25 -->
<g id="edge29" class="edge">
<title>Node1&#45;&gt;Node25</title>
<path fill="none" stroke="#191970" d="M2197.7747,-193.692C2410.1362,-186.5981 2942.859,-166.4719 3119,-138 3122.104,-137.4983 3125.2482,-136.9428 3128.4146,-136.3426"/>
<polygon fill="#191970" stroke="#191970" points="2197.4801,-190.1998 2187.6019,-194.0301 2197.7126,-197.1959 2197.4801,-190.1998"/>
</g>
<!-- Node26 -->
<g id="node26" class="node">
<title>Node26</title>
<g id="a_node26"><a xlink:href="../../d5/d60/GlobalVertexReco_8cc.html" target="_top" xlink:title="coresoftware/blob/master\l/simulation/g4simulation\l/g4vertex/GlobalVertexReco.cc">
<polygon fill="none" stroke="#000000" points="3340,-87.5 3340,-131.5 3512,-131.5 3512,-87.5 3340,-87.5"/>
<text text-anchor="start" x="3348" y="-118.5" font-family="FreeSans" font-size="10.00" fill="#000000">coresoftware/blob/master</text>
<text text-anchor="start" x="3348" y="-106.5" font-family="FreeSans" font-size="10.00" fill="#000000">/simulation/g4simulation</text>
<text text-anchor="middle" x="3426" y="-94.5" font-family="FreeSans" font-size="10.00" fill="#000000">/g4vertex/GlobalVertexReco.cc</text>
</a>
</g>
</g>
<!-- Node1&#45;&gt;Node26 -->
<g id="edge30" class="edge">
<title>Node1&#45;&gt;Node26</title>
<path fill="none" stroke="#191970" d="M2197.902,-195.0511C2440.9752,-190.6424 3113.0087,-175.3403 3331,-138 3340.5044,-136.372 3350.3965,-134.0924 3360.0519,-131.5243"/>
<polygon fill="#191970" stroke="#191970" points="2197.6315,-191.5553 2187.696,-195.2344 2197.7572,-198.5542 2197.6315,-191.5553"/>
</g>
<!-- Node27 -->
<g id="node27" class="node">
<title>Node27</title>
<g id="a_node27"><a xlink:href="../../d7/d97/HFMLTriggerHepMCTrigger_8C.html" target="_top" xlink:title="analysis/blob/master\l/HF&#45;Jet/HFMLTrigger/HFMLTrigger\lHepMCTrigger.C">
<polygon fill="none" stroke="#000000" points="3530.5,-87.5 3530.5,-131.5 3711.5,-131.5 3711.5,-87.5 3530.5,-87.5"/>
<text text-anchor="start" x="3538.5" y="-118.5" font-family="FreeSans" font-size="10.00" fill="#000000">analysis/blob/master</text>
<text text-anchor="start" x="3538.5" y="-106.5" font-family="FreeSans" font-size="10.00" fill="#000000">/HF&#45;Jet/HFMLTrigger/HFMLTrigger</text>
<text text-anchor="middle" x="3621" y="-94.5" font-family="FreeSans" font-size="10.00" fill="#000000">HepMCTrigger.C</text>
</a>
</g>
</g>
<!-- Node1&#45;&gt;Node27 -->
<g id="edge31" class="edge">
<title>Node1&#45;&gt;Node27</title>
<path fill="none" stroke="#191970" d="M2197.8877,-195.5605C2466.0822,-192.2922 3264.5022,-179.268 3521,-138 3530.981,-136.3942 3541.3805,-134.1271 3551.5377,-131.565"/>
<polygon fill="#191970" stroke="#191970" points="2197.7643,-192.0616 2187.8072,-195.6817 2197.8486,-199.0611 2197.7643,-192.0616"/>
</g>
<!-- Node28 -->
<g id="node28" class="node">
<title>Node28</title>
<g id="a_node28"><a xlink:href="../../d5/dff/HFMLTriggerInterface_8C.html" target="_top" xlink:title="analysis/blob/master\l/HF&#45;Jet/HFMLTrigger/HFMLTrigger\lInterface.C">
<polygon fill="none" stroke="#000000" points="3729.5,-87.5 3729.5,-131.5 3910.5,-131.5 3910.5,-87.5 3729.5,-87.5"/>
<text text-anchor="start" x="3737.5" y="-118.5" font-family="FreeSans" font-size="10.00" fill="#000000">analysis/blob/master</text>
<text text-anchor="start" x="3737.5" y="-106.5" font-family="FreeSans" font-size="10.00" fill="#000000">/HF&#45;Jet/HFMLTrigger/HFMLTrigger</text>
<text text-anchor="middle" x="3820" y="-94.5" font-family="FreeSans" font-size="10.00" fill="#000000">Interface.C</text>
</a>
</g>
</g>
<!-- Node1&#45;&gt;Node28 -->
<g id="edge32" class="edge">
<title>Node1&#45;&gt;Node28</title>
<path fill="none" stroke="#191970" d="M2198.1318,-196.1237C2491.344,-194.4373 3424.1239,-185.3881 3721,-138 3730.979,-136.4071 3741.3755,-134.1291 3751.5191,-131.546"/>
<polygon fill="#191970" stroke="#191970" points="2197.9534,-192.6245 2187.9732,-196.1806 2197.9927,-199.6244 2197.9534,-192.6245"/>
</g>
<!-- Node29 -->
<g id="node29" class="node">
<title>Node29</title>
<g id="a_node29"><a xlink:href="../../d0/d2a/HFMLTriggerOccupancy_8C.html" target="_top" xlink:title="analysis/blob/master\l/HF&#45;Jet/HFMLTrigger/HFMLTrigger\lOccupancy.C">
<polygon fill="none" stroke="#000000" points="3928.5,-87.5 3928.5,-131.5 4109.5,-131.5 4109.5,-87.5 3928.5,-87.5"/>
<text text-anchor="start" x="3936.5" y="-118.5" font-family="FreeSans" font-size="10.00" fill="#000000">analysis/blob/master</text>
<text text-anchor="start" x="3936.5" y="-106.5" font-family="FreeSans" font-size="10.00" fill="#000000">/HF&#45;Jet/HFMLTrigger/HFMLTrigger</text>
<text text-anchor="middle" x="4019" y="-94.5" font-family="FreeSans" font-size="10.00" fill="#000000">Occupancy.C</text>
</a>
</g>
</g>
<!-- Node1&#45;&gt;Node29 -->
<g id="edge33" class="edge">
<title>Node1&#45;&gt;Node29</title>
<path fill="none" stroke="#191970" d="M2197.83,-194.9233C2538.2801,-188.7032 3749.3621,-164.8892 3920,-138 3930.0705,-136.4131 3940.5645,-134.1199 3950.7941,-131.5137"/>
<polygon fill="#191970" stroke="#191970" points="2197.7066,-191.4248 2187.7721,-195.1065 2197.8342,-198.4237 2197.7066,-191.4248"/>
</g>
<!-- Node30 -->
<g id="node30" class="node">
<title>Node30</title>
<g id="a_node30"><a xlink:href="../../d5/dee/RecoConversionEval_8cc.html" target="_top" xlink:title="analysis/blob/master\l/PhotonConversion/truthconversion\l/RecoConversionEval.cc">
<polygon fill="none" stroke="#000000" points="4128,-87.5 4128,-131.5 4324,-131.5 4324,-87.5 4128,-87.5"/>
<text text-anchor="start" x="4136" y="-118.5" font-family="FreeSans" font-size="10.00" fill="#000000">analysis/blob/master</text>
<text text-anchor="start" x="4136" y="-106.5" font-family="FreeSans" font-size="10.00" fill="#000000">/PhotonConversion/truthconversion</text>
<text text-anchor="middle" x="4226" y="-94.5" font-family="FreeSans" font-size="10.00" fill="#000000">/RecoConversionEval.cc</text>
</a>
</g>
</g>
<!-- Node1&#45;&gt;Node30 -->
<g id="edge34" class="edge">
<title>Node1&#45;&gt;Node30</title>
<path fill="none" stroke="#191970" d="M2197.9689,-195.1224C2561.9813,-189.3206 3927.6531,-165.8835 4119,-138 4129.8432,-136.4199 4141.1624,-134.1305 4152.208,-131.5261"/>
<polygon fill="#191970" stroke="#191970" points="2197.6938,-191.6262 2187.7508,-195.2848 2197.8052,-198.6253 2197.6938,-191.6262"/>
</g>
<!-- Node31 -->
<g id="node31" class="node">
<title>Node31</title>
<g id="a_node31"><a xlink:href="../../de/d7a/SVReco_8C.html" target="_top" xlink:title="analysis/blob/master\l/PhotonConversion/truthconversion\l/SVReco.C">
<polygon fill="none" stroke="#000000" points="4342,-87.5 4342,-131.5 4538,-131.5 4538,-87.5 4342,-87.5"/>
<text text-anchor="start" x="4350" y="-118.5" font-family="FreeSans" font-size="10.00" fill="#000000">analysis/blob/master</text>
<text text-anchor="start" x="4350" y="-106.5" font-family="FreeSans" font-size="10.00" fill="#000000">/PhotonConversion/truthconversion</text>
<text text-anchor="middle" x="4440" y="-94.5" font-family="FreeSans" font-size="10.00" fill="#000000">/SVReco.C</text>
</a>
</g>
</g>
<!-- Node1&#45;&gt;Node31 -->
<g id="edge35" class="edge">
<title>Node1&#45;&gt;Node31</title>
<path fill="none" stroke="#191970" d="M2197.6541,-195.394C2585.0624,-190.3946 4119.4992,-168.8069 4333,-138 4343.8454,-136.4351 4355.1658,-134.1541 4366.212,-131.5536"/>
<polygon fill="#191970" stroke="#191970" points="2197.575,-191.8946 2187.6209,-195.5231 2197.6651,-198.8941 2197.575,-191.8946"/>
</g>
<!-- Node32 -->
<g id="node32" class="node">
<title>Node32</title>
<g id="a_node32"><a xlink:href="../../d1/db3/TruthConversionEval_8C.html" target="_top" xlink:title="analysis/blob/master\l/PhotonConversion/truthconversion\l/TruthConversionEval.C">
<polygon fill="none" stroke="#000000" points="4556,-87.5 4556,-131.5 4752,-131.5 4752,-87.5 4556,-87.5"/>
<text text-anchor="start" x="4564" y="-118.5" font-family="FreeSans" font-size="10.00" fill="#000000">analysis/blob/master</text>
<text text-anchor="start" x="4564" y="-106.5" font-family="FreeSans" font-size="10.00" fill="#000000">/PhotonConversion/truthconversion</text>
<text text-anchor="middle" x="4654" y="-94.5" font-family="FreeSans" font-size="10.00" fill="#000000">/TruthConversionEval.C</text>
</a>
</g>
</g>
<!-- Node1&#45;&gt;Node32 -->
<g id="edge36" class="edge">
<title>Node1&#45;&gt;Node32</title>
<path fill="none" stroke="#191970" d="M2197.6047,-195.6145C2607.6706,-191.349 4311.3212,-171.7295 4547,-138 4557.9423,-136.434 4569.3673,-134.1336 4580.5059,-131.5078"/>
<polygon fill="#191970" stroke="#191970" points="2197.5443,-192.1149 2187.5812,-195.7184 2197.6169,-199.1145 2197.5443,-192.1149"/>
</g>
<!-- Node33 -->
<g id="node33" class="node">
<title>Node33</title>
<g id="a_node33"><a xlink:href="../../d5/db3/PhotonJet_8C.html" target="_top" xlink:title="analysis/blob/master\l/PhotonJet/PhotonJet.C">
<polygon fill="none" stroke="#000000" points="4770,-93.5 4770,-125.5 4900,-125.5 4900,-93.5 4770,-93.5"/>
<text text-anchor="start" x="4778" y="-112.5" font-family="FreeSans" font-size="10.00" fill="#000000">analysis/blob/master</text>
<text text-anchor="middle" x="4835" y="-100.5" font-family="FreeSans" font-size="10.00" fill="#000000">/PhotonJet/PhotonJet.C</text>
</a>
</g>
</g>
<!-- Node1&#45;&gt;Node33 -->
<g id="edge37" class="edge">
<title>Node1&#45;&gt;Node33</title>
<path fill="none" stroke="#191970" d="M2197.9104,-196.3565C2630.5834,-195.4135 4505.4704,-188.4274 4761,-138 4774.3715,-135.3612 4788.4678,-130.5011 4800.7286,-125.5324"/>
<polygon fill="#191970" stroke="#191970" points="2197.6474,-192.8569 2187.6549,-196.3783 2197.6623,-199.8569 2197.6474,-192.8569"/>
</g>
<!-- Node4 -->
<g id="node4" class="node">
<title>Node4</title>
<g id="a_node4"><a xlink:href="../../d8/d22/SvtxVertexMap__v1_8cc.html" target="_top" xlink:title="coresoftware/blob/master\l/offline/packages/trackbase\l_historic/SvtxVertexMap_v1.cc">
<polygon fill="none" stroke="#000000" points="714,-.5 714,-44.5 884,-44.5 884,-.5 714,-.5"/>
<text text-anchor="start" x="722" y="-31.5" font-family="FreeSans" font-size="10.00" fill="#000000">coresoftware/blob/master</text>
<text text-anchor="start" x="722" y="-19.5" font-family="FreeSans" font-size="10.00" fill="#000000">/offline/packages/trackbase</text>
<text text-anchor="middle" x="799" y="-7.5" font-family="FreeSans" font-size="10.00" fill="#000000">_historic/SvtxVertexMap_v1.cc</text>
</a>
</g>
</g>
<!-- Node3&#45;&gt;Node4 -->
<g id="edge3" class="edge">
<title>Node3&#45;&gt;Node4</title>
<path fill="none" stroke="#191970" d="M820.5956,-77.7593C816.2837,-66.726 811.5454,-54.6014 807.6085,-44.5276"/>
<polygon fill="#191970" stroke="#191970" points="817.3442,-79.0553 824.2442,-87.0953 823.864,-76.5073 817.3442,-79.0553"/>
</g>
<!-- Node3&#45;&gt;Node5 -->
<g id="edge4" class="edge">
<title>Node3&#45;&gt;Node5</title>
<path fill="none" stroke="#191970" d="M740.3093,-92.6345C714.387,-88.3529 686.1525,-84.0949 660,-81 440.067,-54.9734 381.4924,-81.18 163,-45 160.1071,-44.521 157.1699,-43.9891 154.2109,-43.4149"/>
<polygon fill="#191970" stroke="#191970" points="740.0596,-96.1412 750.4999,-94.3381 741.2139,-89.237 740.0596,-96.1412"/>
</g>
<!-- Node3&#45;&gt;Node6 -->
<g id="edge5" class="edge">
<title>Node3&#45;&gt;Node6</title>
<path fill="none" stroke="#191970" d="M740.2435,-88.528C726.1373,-85.7422 711.7153,-83.1213 698,-81 537.7803,-56.219 494.5812,-73.6057 335,-45 332.1137,-44.4826 329.1821,-43.9181 326.2279,-43.3163"/>
<polygon fill="#191970" stroke="#191970" points="739.9507,-92.0391 750.4447,-90.5807 741.3317,-85.1767 739.9507,-92.0391"/>
</g>
<!-- Node3&#45;&gt;Node7 -->
<g id="edge6" class="edge">
<title>Node3&#45;&gt;Node7</title>
<path fill="none" stroke="#191970" d="M752.1928,-84.9063C746.7326,-83.5078 741.2983,-82.1895 736,-81 635.4747,-58.4308 607.8513,-66.0649 507,-45 504.1297,-44.4005 501.2117,-43.766 498.2689,-43.1051"/>
<polygon fill="#191970" stroke="#191970" points="751.4631,-88.3335 762.0251,-87.4998 753.2485,-81.565 751.4631,-88.3335"/>
</g>
<!-- Node3&#45;&gt;Node8 -->
<g id="edge7" class="edge">
<title>Node3&#45;&gt;Node8</title>
<path fill="none" stroke="#191970" d="M878.976,-82.1033C899.2337,-70.032 922.7241,-56.0343 941.8482,-44.6384"/>
<polygon fill="#191970" stroke="#191970" points="877.0185,-79.1954 870.2197,-87.3211 880.6019,-85.2088 877.0185,-79.1954"/>
</g>
<!-- Node3&#45;&gt;Node9 -->
<g id="edge8" class="edge">
<title>Node3&#45;&gt;Node9</title>
<path fill="none" stroke="#191970" d="M925.3964,-86.2C976.695,-73.2639 1040.1425,-57.2641 1090.6162,-44.5359"/>
<polygon fill="#191970" stroke="#191970" points="924.4767,-82.8223 915.6361,-88.6613 926.1884,-89.6098 924.4767,-82.8223"/>
</g>
<!-- Node10 -->
<g id="node10" class="node">
<title>Node10</title>
<g id="a_node10"><a xlink:href="../../d0/dfd/LeptoquarksReco_8C.html" target="_top" xlink:title="analysis/blob/master\l/EICAnalysis/LeptoquarksReco.C">
<polygon fill="none" stroke="#000000" points="516.5,-6.5 516.5,-38.5 695.5,-38.5 695.5,-6.5 516.5,-6.5"/>
<text text-anchor="start" x="524.5" y="-25.5" font-family="FreeSans" font-size="10.00" fill="#000000">analysis/blob/master</text>
<text text-anchor="middle" x="606" y="-13.5" font-family="FreeSans" font-size="10.00" fill="#000000">/EICAnalysis/LeptoquarksReco.C</text>
</a>
</g>
</g>
<!-- Node3&#45;&gt;Node10 -->
<g id="edge9" class="edge">
<title>Node3&#45;&gt;Node10</title>
<path fill="none" stroke="#191970" d="M765.8866,-83.7781C727.595,-69.1025 680.7957,-51.1662 647.7504,-38.5013"/>
<polygon fill="#191970" stroke="#191970" points="764.8346,-87.1231 775.4249,-87.4338 767.3398,-80.5867 764.8346,-87.1231"/>
</g>
<!-- Node3&#45;&gt;Node11 -->
<g id="edge10" class="edge">
<title>Node3&#45;&gt;Node11</title>
<path fill="none" stroke="#191970" d="M925.8114,-93.5501C951.7346,-89.2749 979.9393,-84.7912 1006,-81 1132.3433,-62.6202 1165.2916,-67.3126 1291,-45 1293.9219,-44.4814 1296.888,-43.9324 1299.8794,-43.3594"/>
<polygon fill="#191970" stroke="#191970" points="924.9121,-90.1513 915.619,-95.2395 926.0567,-97.0571 924.9121,-90.1513"/>
</g>
<!-- Node3&#45;&gt;Node12 -->
<g id="edge11" class="edge">
<title>Node3&#45;&gt;Node12</title>
<path fill="none" stroke="#191970" d="M925.7529,-95.8874C962.5178,-90.7756 1005.2009,-85.1938 1044,-81 1240.394,-59.7717 1291.8502,-75.6233 1487,-45 1490.044,-44.5223 1493.1346,-44.0006 1496.2502,-43.4433"/>
<polygon fill="#191970" stroke="#191970" points="924.9669,-92.4632 915.5484,-97.3152 925.937,-99.3957 924.9669,-92.4632"/>
</g>
</g>
</svg>
