<?xml version="1.0" encoding="UTF-8" standalone="no"?>
<!DOCTYPE svg PUBLIC "-//W3C//DTD SVG 1.1//EN"
 "http://www.w3.org/Graphics/SVG/1.1/DTD/svg11.dtd">
<!-- Generated by graphviz version 2.40.1 (20161225.0304)
 -->
<!-- Title: GlobalVertexMap::end Pages: 1 -->
<svg width="684pt" height="437pt"
 viewBox="0.00 0.00 684.00 437.00" xmlns="http://www.w3.org/2000/svg" xmlns:xlink="http://www.w3.org/1999/xlink">
<g id="graph0" class="graph" transform="scale(1 1) rotate(0) translate(4 433)">
<title>GlobalVertexMap::end</title>
<!-- Node1 -->
<g id="node1" class="node">
<title>Node1</title>
<polygon fill="#bfbfbf" stroke="#000000" points="0,-88.5 0,-108.5 128,-108.5 128,-88.5 0,-88.5"/>
<text text-anchor="middle" x="64" y="-95.5" font-family="FreeSans" font-size="10.00" fill="#000000">GlobalVertexMap::end</text>
</g>
<!-- Node1&#45;&gt;Node1 -->
<g id="edge13" class="edge">
<title>Node1&#45;&gt;Node1</title>
<path fill="none" stroke="#191970" d="M32.6875,-117.6639C34.1826,-122.9546 44.6201,-127 64,-127 93.5313,-127 102.2983,-117.6067 90.3013,-108.7271"/>
<polygon fill="#191970" stroke="#191970" points="35.8605,-119.1612 37.6987,-108.7271 29.7549,-115.7375 35.8605,-119.1612"/>
</g>
<!-- Node2 -->
<g id="node2" class="node">
<title>Node2</title>
<g id="a_node2"><a xlink:href="../../d5/dc4/classGlobalVertexMap.html#a4b7a2bf3821e4d9ad1ec931c5c89b2cb" target="_top" xlink:title="GlobalVertexMap::begin">
<polygon fill="none" stroke="#000000" points="164,-184.5 164,-204.5 301,-204.5 301,-184.5 164,-184.5"/>
<text text-anchor="middle" x="232.5" y="-191.5" font-family="FreeSans" font-size="10.00" fill="#000000">GlobalVertexMap::begin</text>
</a>
</g>
</g>
<!-- Node1&#45;&gt;Node2 -->
<g id="edge1" class="edge">
<title>Node1&#45;&gt;Node2</title>
<path fill="none" stroke="#191970" d="M90.8083,-113.7736C125.553,-133.5688 185.1793,-167.5399 214.7705,-184.3989"/>
<polygon fill="#191970" stroke="#191970" points="92.1354,-110.5015 81.714,-108.5922 88.6701,-116.5836 92.1354,-110.5015"/>
</g>
<!-- Node12 -->
<g id="node12" class="node">
<title>Node12</title>
<g id="a_node12"><a xlink:href="../../dc/d8e/classDumpGlobalVertexMap.html#ab903bd3141851ad9b266064be24644ef" target="_top" xlink:title="DumpGlobalVertexMap\l::process_Node">
<polygon fill="none" stroke="#000000" points="356,-.5 356,-32.5 489,-32.5 489,-.5 356,-.5"/>
<text text-anchor="start" x="364" y="-19.5" font-family="FreeSans" font-size="10.00" fill="#000000">DumpGlobalVertexMap</text>
<text text-anchor="middle" x="422.5" y="-7.5" font-family="FreeSans" font-size="10.00" fill="#000000">::process_Node</text>
</a>
</g>
</g>
<!-- Node1&#45;&gt;Node12 -->
<g id="edge15" class="edge">
<title>Node1&#45;&gt;Node12</title>
<path fill="none" stroke="#191970" d="M138.3634,-105.2705C186.8868,-106.6231 250.3786,-102.4332 301,-78.5 321.7424,-68.6932 317.3419,-53.3313 337,-41.5 342.8302,-37.9911 349.1821,-34.9498 355.704,-32.3191"/>
<polygon fill="#191970" stroke="#191970" points="138.3668,-101.7684 128.2462,-104.9029 138.1125,-108.7638 138.3668,-101.7684"/>
</g>
<!-- Node13 -->
<g id="node13" class="node">
<title>Node13</title>
<g id="a_node13"><a xlink:href="../../d5/dc4/classGlobalVertexMap.html#a908d89603b6e28e7091cf610da1fec96" target="_top" xlink:title="GlobalVertexMap::find">
<polygon fill="none" stroke="#000000" points="168.5,-49.5 168.5,-69.5 296.5,-69.5 296.5,-49.5 168.5,-49.5"/>
<text text-anchor="middle" x="232.5" y="-56.5" font-family="FreeSans" font-size="10.00" fill="#000000">GlobalVertexMap::find</text>
</a>
</g>
</g>
<!-- Node1&#45;&gt;Node13 -->
<g id="edge14" class="edge">
<title>Node1&#45;&gt;Node13</title>
<path fill="none" stroke="#191970" d="M117.4141,-86.1371C140.583,-80.7746 167.3612,-74.5766 189.2541,-69.5094"/>
<polygon fill="#191970" stroke="#191970" points="116.3461,-82.7917 107.3929,-88.4565 117.9246,-89.6114 116.3461,-82.7917"/>
</g>
<!-- Node3 -->
<g id="node3" class="node">
<title>Node3</title>
<g id="a_node3"><a xlink:href="../../dd/d59/classCaloEvaluator.html#a5298ee9646d361a4960fc0e20f83c880" target="_top" xlink:title="dump the evaluator information into ntuple for external analysis">
<polygon fill="none" stroke="#000000" points="352,-396.5 352,-428.5 493,-428.5 493,-396.5 352,-396.5"/>
<text text-anchor="start" x="360" y="-415.5" font-family="FreeSans" font-size="10.00" fill="#000000">CaloEvaluator::fillOutput</text>
<text text-anchor="middle" x="422.5" y="-403.5" font-family="FreeSans" font-size="10.00" fill="#000000">Ntuples</text>
</a>
</g>
</g>
<!-- Node2&#45;&gt;Node3 -->
<g id="edge2" class="edge">
<title>Node2&#45;&gt;Node3</title>
<path fill="none" stroke="#191970" d="M237.68,-214.3825C248.9182,-253.5404 279.2924,-340.8814 337,-387.5 341.4512,-391.0958 346.4017,-394.1745 351.6143,-396.8103"/>
<polygon fill="#191970" stroke="#191970" points="241.0402,-213.4015 235.0109,-204.6896 234.2914,-215.2599 241.0402,-213.4015"/>
</g>
<!-- Node5 -->
<g id="node5" class="node">
<title>Node5</title>
<g id="a_node5"><a xlink:href="../../df/d01/classTowerJetInput.html#aefe1861906affd853304efd7847ec22f" target="_top" xlink:title="TowerJetInput::get\l_input">
<polygon fill="none" stroke="#000000" points="368,-345.5 368,-377.5 477,-377.5 477,-345.5 368,-345.5"/>
<text text-anchor="start" x="376" y="-364.5" font-family="FreeSans" font-size="10.00" fill="#000000">TowerJetInput::get</text>
<text text-anchor="middle" x="422.5" y="-352.5" font-family="FreeSans" font-size="10.00" fill="#000000">_input</text>
</a>
</g>
</g>
<!-- Node2&#45;&gt;Node5 -->
<g id="edge4" class="edge">
<title>Node2&#45;&gt;Node5</title>
<path fill="none" stroke="#191970" d="M241.6522,-214.128C256.9901,-244.8674 290.8056,-304.185 337,-336.5 346.1241,-342.8827 356.8791,-347.6527 367.6258,-351.2122"/>
<polygon fill="#191970" stroke="#191970" points="244.6801,-212.3503 237.1679,-204.8792 238.3814,-215.4043 244.6801,-212.3503"/>
</g>
<!-- Node6 -->
<g id="node6" class="node">
<title>Node6</title>
<g id="a_node6"><a xlink:href="../../d5/d98/classClusterJetInput.html#aaa06c7c9d5919cec36bebe981200e11a" target="_top" xlink:title="ClusterJetInput::get\l_input">
<polygon fill="none" stroke="#000000" points="365,-294.5 365,-326.5 480,-326.5 480,-294.5 365,-294.5"/>
<text text-anchor="start" x="373" y="-313.5" font-family="FreeSans" font-size="10.00" fill="#000000">ClusterJetInput::get</text>
<text text-anchor="middle" x="422.5" y="-301.5" font-family="FreeSans" font-size="10.00" fill="#000000">_input</text>
</a>
</g>
</g>
<!-- Node2&#45;&gt;Node6 -->
<g id="edge5" class="edge">
<title>Node2&#45;&gt;Node6</title>
<path fill="none" stroke="#191970" d="M247.9761,-211.9459C267.0117,-232.3844 301.2241,-265.9341 337,-285.5 345.5482,-290.175 355.0672,-294.0631 364.5614,-297.2685"/>
<polygon fill="#191970" stroke="#191970" points="250.5592,-209.5842 241.2297,-204.5632 245.3918,-214.3063 250.5592,-209.5842"/>
</g>
<!-- Node7 -->
<g id="node7" class="node">
<title>Node7</title>
<g id="a_node7"><a xlink:href="../../dd/d59/classCaloEvaluator.html#ab7e09466d57c5b93274f09f61c0f321e" target="_top" xlink:title="print out the ancestry information for detailed diagnosis">
<polygon fill="none" stroke="#000000" points="337,-255.5 337,-275.5 508,-275.5 508,-255.5 337,-255.5"/>
<text text-anchor="middle" x="422.5" y="-262.5" font-family="FreeSans" font-size="10.00" fill="#000000">CaloEvaluator::printOutputInfo</text>
</a>
</g>
</g>
<!-- Node2&#45;&gt;Node7 -->
<g id="edge6" class="edge">
<title>Node2&#45;&gt;Node7</title>
<path fill="none" stroke="#191970" d="M258.9249,-209.456C279.6337,-220.6646 309.4565,-235.6976 337,-245.5 347.7715,-249.3334 359.5701,-252.6373 370.8695,-255.393"/>
<polygon fill="#191970" stroke="#191970" points="260.5427,-206.3514 250.0924,-204.6077 257.1744,-212.4878 260.5427,-206.3514"/>
</g>
<!-- Node8 -->
<g id="node8" class="node">
<title>Node8</title>
<g id="a_node8"><a xlink:href="../../de/dcb/classClusterIso.html#a6aa03ee56ec17554e0603b71e741dfbd" target="_top" xlink:title="ClusterIso::process\l_event">
<polygon fill="none" stroke="#000000" points="366.5,-204.5 366.5,-236.5 478.5,-236.5 478.5,-204.5 366.5,-204.5"/>
<text text-anchor="start" x="374.5" y="-223.5" font-family="FreeSans" font-size="10.00" fill="#000000">ClusterIso::process</text>
<text text-anchor="middle" x="422.5" y="-211.5" font-family="FreeSans" font-size="10.00" fill="#000000">_event</text>
</a>
</g>
</g>
<!-- Node2&#45;&gt;Node8 -->
<g id="edge8" class="edge">
<title>Node2&#45;&gt;Node8</title>
<path fill="none" stroke="#191970" d="M311.0264,-205.2457C329.6358,-207.7923 349.1151,-210.4579 366.4893,-212.8354"/>
<polygon fill="#191970" stroke="#191970" points="311.4766,-201.7748 301.0944,-203.8866 310.5275,-208.7102 311.4766,-201.7748"/>
</g>
<!-- Node9 -->
<g id="node9" class="node">
<title>Node9</title>
<g id="a_node9"><a xlink:href="../../d7/dec/classForward__pi0s.html#aa5e9d908554327efd879a6db978b2174" target="_top" xlink:title="Forward_pi0s::process\l_event">
<polygon fill="none" stroke="#000000" points="358.5,-153.5 358.5,-185.5 486.5,-185.5 486.5,-153.5 358.5,-153.5"/>
<text text-anchor="start" x="366.5" y="-172.5" font-family="FreeSans" font-size="10.00" fill="#000000">Forward_pi0s::process</text>
<text text-anchor="middle" x="422.5" y="-160.5" font-family="FreeSans" font-size="10.00" fill="#000000">_event</text>
</a>
</g>
</g>
<!-- Node2&#45;&gt;Node9 -->
<g id="edge9" class="edge">
<title>Node2&#45;&gt;Node9</title>
<path fill="none" stroke="#191970" d="M311.3041,-184.131C327.0024,-182.0655 343.3087,-179.9199 358.4396,-177.929"/>
<polygon fill="#191970" stroke="#191970" points="310.5523,-180.6997 301.0944,-185.4744 311.4655,-187.6399 310.5523,-180.6997"/>
</g>
<!-- Node10 -->
<g id="node10" class="node">
<title>Node10</title>
<g id="a_node10"><a xlink:href="../../da/da1/classPJTranslator.html#a05f197da20e9ab88a53904b574db33a2" target="_top" xlink:title="PJTranslator::process\l_event">
<polygon fill="none" stroke="#000000" points="362,-102.5 362,-134.5 483,-134.5 483,-102.5 362,-102.5"/>
<text text-anchor="start" x="370" y="-121.5" font-family="FreeSans" font-size="10.00" fill="#000000">PJTranslator::process</text>
<text text-anchor="middle" x="422.5" y="-109.5" font-family="FreeSans" font-size="10.00" fill="#000000">_event</text>
</a>
</g>
</g>
<!-- Node2&#45;&gt;Node10 -->
<g id="edge10" class="edge">
<title>Node2&#45;&gt;Node10</title>
<path fill="none" stroke="#191970" d="M259.8333,-179.5718C280.5902,-168.6291 310.0612,-153.9253 337,-143.5 345.221,-140.3184 354.0199,-137.3143 362.7317,-134.5662"/>
<polygon fill="#191970" stroke="#191970" points="258.1289,-176.514 250.95,-184.3059 261.4211,-182.6915 258.1289,-176.514"/>
</g>
<!-- Node11 -->
<g id="node11" class="node">
<title>Node11</title>
<g id="a_node11"><a xlink:href="../../dc/d65/classPhotonJet.html#a3f9d3ec941f851bc2246ceb0c5362c9f" target="_top" xlink:title="PhotonJet::process\l_event">
<polygon fill="none" stroke="#000000" points="367.5,-51.5 367.5,-83.5 477.5,-83.5 477.5,-51.5 367.5,-51.5"/>
<text text-anchor="start" x="375.5" y="-70.5" font-family="FreeSans" font-size="10.00" fill="#000000">PhotonJet::process</text>
<text text-anchor="middle" x="422.5" y="-58.5" font-family="FreeSans" font-size="10.00" fill="#000000">_event</text>
</a>
</g>
</g>
<!-- Node2&#45;&gt;Node11 -->
<g id="edge11" class="edge">
<title>Node2&#45;&gt;Node11</title>
<path fill="none" stroke="#191970" d="M246.1377,-176.5798C264.4057,-153.789 298.9588,-114.7318 337,-92.5 346.3466,-87.0377 356.9745,-82.6934 367.4841,-79.2641"/>
<polygon fill="#191970" stroke="#191970" points="243.382,-174.4219 239.9604,-184.4491 248.8882,-178.7443 243.382,-174.4219"/>
</g>
<!-- Node2&#45;&gt;Node12 -->
<g id="edge12" class="edge">
<title>Node2&#45;&gt;Node12</title>
<path fill="none" stroke="#191970" d="M249.179,-176.9565C263.8881,-160.951 285.356,-136.2428 301,-112.5 320.4661,-82.9564 309.7809,-64.1025 337,-41.5 342.592,-36.8564 349.0127,-33.0752 355.7692,-29.9963"/>
<polygon fill="#191970" stroke="#191970" points="246.4243,-174.7788 242.1697,-184.4819 251.5466,-179.5498 246.4243,-174.7788"/>
</g>
<!-- Node4 -->
<g id="node4" class="node">
<title>Node4</title>
<g id="a_node4"><a xlink:href="../../dd/d59/classCaloEvaluator.html#a936967e98c89ec58e7851b0661b838c0" target="_top" xlink:title="CaloEvaluator::process\l_event">
<polygon fill="none" stroke="#000000" points="544,-322.5 544,-354.5 676,-354.5 676,-322.5 544,-322.5"/>
<text text-anchor="start" x="552" y="-341.5" font-family="FreeSans" font-size="10.00" fill="#000000">CaloEvaluator::process</text>
<text text-anchor="middle" x="610" y="-329.5" font-family="FreeSans" font-size="10.00" fill="#000000">_event</text>
</a>
</g>
</g>
<!-- Node3&#45;&gt;Node4 -->
<g id="edge3" class="edge">
<title>Node3&#45;&gt;Node4</title>
<path fill="none" stroke="#191970" d="M492.0571,-393.2029C497.4874,-391.3802 502.8557,-389.4725 508,-387.5 532.7636,-378.0045 559.7747,-364.8973 579.7763,-354.6283"/>
<polygon fill="#191970" stroke="#191970" points="490.6805,-389.9699 482.2505,-396.3876 492.8427,-396.6277 490.6805,-389.9699"/>
</g>
<!-- Node7&#45;&gt;Node4 -->
<g id="edge7" class="edge">
<title>Node7&#45;&gt;Node4</title>
<path fill="none" stroke="#191970" d="M484.4086,-278.0414C492.4378,-280.2318 500.4787,-282.7161 508,-285.5 534.763,-295.4059 563.4534,-310.7825 583.5672,-322.4271"/>
<polygon fill="#191970" stroke="#191970" points="485.2144,-274.6347 474.6562,-275.5152 483.459,-281.411 485.2144,-274.6347"/>
</g>
</g>
</svg>
