<?xml version="1.0" encoding="UTF-8" standalone="no"?>
<!DOCTYPE svg PUBLIC "-//W3C//DTD SVG 1.1//EN"
 "http://www.w3.org/Graphics/SVG/1.1/DTD/svg11.dtd">
<!-- Generated by graphviz version 2.40.1 (20161225.0304)
 -->
<!-- Title: GlobalVertexMap::begin Pages: 1 -->
<svg width="520pt" height="437pt"
 viewBox="0.00 0.00 520.00 437.00" xmlns="http://www.w3.org/2000/svg" xmlns:xlink="http://www.w3.org/1999/xlink">
<g id="graph0" class="graph" transform="scale(1 1) rotate(0) translate(4 433)">
<title>GlobalVertexMap::begin</title>
<!-- Node1 -->
<g id="node1" class="node">
<title>Node1</title>
<polygon fill="#bfbfbf" stroke="#000000" points="0,-210.5 0,-230.5 137,-230.5 137,-210.5 0,-210.5"/>
<text text-anchor="middle" x="68.5" y="-217.5" font-family="FreeSans" font-size="10.00" fill="#000000">GlobalVertexMap::begin</text>
</g>
<!-- Node2 -->
<g id="node2" class="node">
<title>Node2</title>
<g id="a_node2"><a xlink:href="../../dd/d59/classCaloEvaluator.html#a5298ee9646d361a4960fc0e20f83c880" target="_top" xlink:title="dump the evaluator information into ntuple for external analysis">
<polygon fill="none" stroke="#000000" points="188,-396.5 188,-428.5 329,-428.5 329,-396.5 188,-396.5"/>
<text text-anchor="start" x="196" y="-415.5" font-family="FreeSans" font-size="10.00" fill="#000000">CaloEvaluator::fillOutput</text>
<text text-anchor="middle" x="258.5" y="-403.5" font-family="FreeSans" font-size="10.00" fill="#000000">Ntuples</text>
</a>
</g>
</g>
<!-- Node1&#45;&gt;Node2 -->
<g id="edge1" class="edge">
<title>Node1&#45;&gt;Node2</title>
<path fill="none" stroke="#191970" d="M75.36,-240.0823C88.6168,-275.043 121.1069,-348.209 173,-387.5 177.562,-390.9541 182.5914,-393.9321 187.8576,-396.4992"/>
<polygon fill="#191970" stroke="#191970" points="78.59,-238.7241 71.8631,-230.5388 72.0173,-241.1325 78.59,-238.7241"/>
</g>
<!-- Node4 -->
<g id="node4" class="node">
<title>Node4</title>
<g id="a_node4"><a xlink:href="../../df/d01/classTowerJetInput.html#aefe1861906affd853304efd7847ec22f" target="_top" xlink:title="TowerJetInput::get\l_input">
<polygon fill="none" stroke="#000000" points="204,-345.5 204,-377.5 313,-377.5 313,-345.5 204,-345.5"/>
<text text-anchor="start" x="212" y="-364.5" font-family="FreeSans" font-size="10.00" fill="#000000">TowerJetInput::get</text>
<text text-anchor="middle" x="258.5" y="-352.5" font-family="FreeSans" font-size="10.00" fill="#000000">_input</text>
</a>
</g>
</g>
<!-- Node1&#45;&gt;Node4 -->
<g id="edge3" class="edge">
<title>Node1&#45;&gt;Node4</title>
<path fill="none" stroke="#191970" d="M80.2778,-239.0412C97.535,-264.7119 132.1181,-310.8129 173,-336.5 182.2974,-342.3418 193.0143,-346.8662 203.6481,-350.3546"/>
<polygon fill="#191970" stroke="#191970" points="83.1388,-237.0214 74.7242,-230.5835 77.2874,-240.8636 83.1388,-237.0214"/>
</g>
<!-- Node5 -->
<g id="node5" class="node">
<title>Node5</title>
<g id="a_node5"><a xlink:href="../../d5/d98/classClusterJetInput.html#aaa06c7c9d5919cec36bebe981200e11a" target="_top" xlink:title="ClusterJetInput::get\l_input">
<polygon fill="none" stroke="#000000" points="201,-294.5 201,-326.5 316,-326.5 316,-294.5 201,-294.5"/>
<text text-anchor="start" x="209" y="-313.5" font-family="FreeSans" font-size="10.00" fill="#000000">ClusterJetInput::get</text>
<text text-anchor="middle" x="258.5" y="-301.5" font-family="FreeSans" font-size="10.00" fill="#000000">_input</text>
</a>
</g>
</g>
<!-- Node1&#45;&gt;Node5 -->
<g id="edge4" class="edge">
<title>Node1&#45;&gt;Node5</title>
<path fill="none" stroke="#191970" d="M90.3238,-236.5418C110.8133,-250.9905 142.757,-271.9777 173,-285.5 181.7533,-289.4138 191.2818,-292.8982 200.6964,-295.9317"/>
<polygon fill="#191970" stroke="#191970" points="92.192,-233.5749 82.0227,-230.6023 88.1187,-239.2677 92.192,-233.5749"/>
</g>
<!-- Node6 -->
<g id="node6" class="node">
<title>Node6</title>
<g id="a_node6"><a xlink:href="../../dd/d59/classCaloEvaluator.html#ab7e09466d57c5b93274f09f61c0f321e" target="_top" xlink:title="print out the ancestry information for detailed diagnosis">
<polygon fill="none" stroke="#000000" points="173,-255.5 173,-275.5 344,-275.5 344,-255.5 173,-255.5"/>
<text text-anchor="middle" x="258.5" y="-262.5" font-family="FreeSans" font-size="10.00" fill="#000000">CaloEvaluator::printOutputInfo</text>
</a>
</g>
</g>
<!-- Node1&#45;&gt;Node6 -->
<g id="edge5" class="edge">
<title>Node1&#45;&gt;Node6</title>
<path fill="none" stroke="#191970" d="M118.0646,-233.1031C135.4175,-237.4435 155.0496,-242.2732 173,-246.5 185.7289,-249.4973 199.5546,-252.625 212.3036,-255.4573"/>
<polygon fill="#191970" stroke="#191970" points="118.6921,-229.6521 108.1409,-230.6123 116.988,-236.4415 118.6921,-229.6521"/>
</g>
<!-- Node7 -->
<g id="node7" class="node">
<title>Node7</title>
<g id="a_node7"><a xlink:href="../../de/dcb/classClusterIso.html#a6aa03ee56ec17554e0603b71e741dfbd" target="_top" xlink:title="ClusterIso::process\l_event">
<polygon fill="none" stroke="#000000" points="202.5,-204.5 202.5,-236.5 314.5,-236.5 314.5,-204.5 202.5,-204.5"/>
<text text-anchor="start" x="210.5" y="-223.5" font-family="FreeSans" font-size="10.00" fill="#000000">ClusterIso::process</text>
<text text-anchor="middle" x="258.5" y="-211.5" font-family="FreeSans" font-size="10.00" fill="#000000">_event</text>
</a>
</g>
</g>
<!-- Node1&#45;&gt;Node7 -->
<g id="edge7" class="edge">
<title>Node1&#45;&gt;Node7</title>
<path fill="none" stroke="#191970" d="M147.2837,-220.5C165.8153,-220.5 185.1952,-220.5 202.4893,-220.5"/>
<polygon fill="#191970" stroke="#191970" points="147.0944,-217.0001 137.0944,-220.5 147.0943,-224.0001 147.0944,-217.0001"/>
</g>
<!-- Node8 -->
<g id="node8" class="node">
<title>Node8</title>
<g id="a_node8"><a xlink:href="../../d7/dec/classForward__pi0s.html#aa5e9d908554327efd879a6db978b2174" target="_top" xlink:title="Forward_pi0s::process\l_event">
<polygon fill="none" stroke="#000000" points="194.5,-153.5 194.5,-185.5 322.5,-185.5 322.5,-153.5 194.5,-153.5"/>
<text text-anchor="start" x="202.5" y="-172.5" font-family="FreeSans" font-size="10.00" fill="#000000">Forward_pi0s::process</text>
<text text-anchor="middle" x="258.5" y="-160.5" font-family="FreeSans" font-size="10.00" fill="#000000">_event</text>
</a>
</g>
</g>
<!-- Node1&#45;&gt;Node8 -->
<g id="edge8" class="edge">
<title>Node1&#45;&gt;Node8</title>
<path fill="none" stroke="#191970" d="M116.0143,-207.7462C141.0302,-201.0314 171.9597,-192.7292 198.6029,-185.5777"/>
<polygon fill="#191970" stroke="#191970" points="114.7886,-204.4512 106.0379,-210.424 116.6034,-211.2119 114.7886,-204.4512"/>
</g>
<!-- Node9 -->
<g id="node9" class="node">
<title>Node9</title>
<g id="a_node9"><a xlink:href="../../da/da1/classPJTranslator.html#a05f197da20e9ab88a53904b574db33a2" target="_top" xlink:title="PJTranslator::process\l_event">
<polygon fill="none" stroke="#000000" points="198,-102.5 198,-134.5 319,-134.5 319,-102.5 198,-102.5"/>
<text text-anchor="start" x="206" y="-121.5" font-family="FreeSans" font-size="10.00" fill="#000000">PJTranslator::process</text>
<text text-anchor="middle" x="258.5" y="-109.5" font-family="FreeSans" font-size="10.00" fill="#000000">_event</text>
</a>
</g>
</g>
<!-- Node1&#45;&gt;Node9 -->
<g id="edge9" class="edge">
<title>Node1&#45;&gt;Node9</title>
<path fill="none" stroke="#191970" d="M87.3093,-203.7973C107.3138,-186.7901 140.4936,-160.6864 173,-144.5 180.7775,-140.6272 189.2436,-137.2047 197.725,-134.2207"/>
<polygon fill="#191970" stroke="#191970" points="84.861,-201.2871 79.5829,-210.4737 89.4378,-206.5837 84.861,-201.2871"/>
</g>
<!-- Node10 -->
<g id="node10" class="node">
<title>Node10</title>
<g id="a_node10"><a xlink:href="../../dc/d65/classPhotonJet.html#a3f9d3ec941f851bc2246ceb0c5362c9f" target="_top" xlink:title="PhotonJet::process\l_event">
<polygon fill="none" stroke="#000000" points="203.5,-51.5 203.5,-83.5 313.5,-83.5 313.5,-51.5 203.5,-51.5"/>
<text text-anchor="start" x="211.5" y="-70.5" font-family="FreeSans" font-size="10.00" fill="#000000">PhotonJet::process</text>
<text text-anchor="middle" x="258.5" y="-58.5" font-family="FreeSans" font-size="10.00" fill="#000000">_event</text>
</a>
</g>
</g>
<!-- Node1&#45;&gt;Node10 -->
<g id="edge10" class="edge">
<title>Node1&#45;&gt;Node10</title>
<path fill="none" stroke="#191970" d="M79.1689,-201.435C95.6935,-173.629 130.0922,-122.1513 173,-93.5 182.161,-87.3828 192.8171,-82.6589 203.4343,-79.0259"/>
<polygon fill="#191970" stroke="#191970" points="76.0712,-199.7999 74.0847,-210.2069 82.1275,-203.3102 76.0712,-199.7999"/>
</g>
<!-- Node11 -->
<g id="node11" class="node">
<title>Node11</title>
<g id="a_node11"><a xlink:href="../../dc/d8e/classDumpGlobalVertexMap.html#ab903bd3141851ad9b266064be24644ef" target="_top" xlink:title="DumpGlobalVertexMap\l::process_Node">
<polygon fill="none" stroke="#000000" points="192,-.5 192,-32.5 325,-32.5 325,-.5 192,-.5"/>
<text text-anchor="start" x="200" y="-19.5" font-family="FreeSans" font-size="10.00" fill="#000000">DumpGlobalVertexMap</text>
<text text-anchor="middle" x="258.5" y="-7.5" font-family="FreeSans" font-size="10.00" fill="#000000">::process_Node</text>
</a>
</g>
</g>
<!-- Node1&#45;&gt;Node11 -->
<g id="edge11" class="edge">
<title>Node1&#45;&gt;Node11</title>
<path fill="none" stroke="#191970" d="M74.6886,-200.6986C87.1882,-163.9574 118.9552,-85.1038 173,-42.5 178.6048,-38.0817 184.9559,-34.4118 191.6042,-31.3639"/>
<polygon fill="#191970" stroke="#191970" points="71.3394,-199.6798 71.5473,-210.2726 77.9905,-201.8621 71.3394,-199.6798"/>
</g>
<!-- Node3 -->
<g id="node3" class="node">
<title>Node3</title>
<g id="a_node3"><a xlink:href="../../dd/d59/classCaloEvaluator.html#a936967e98c89ec58e7851b0661b838c0" target="_top" xlink:title="CaloEvaluator::process\l_event">
<polygon fill="none" stroke="#000000" points="380,-322.5 380,-354.5 512,-354.5 512,-322.5 380,-322.5"/>
<text text-anchor="start" x="388" y="-341.5" font-family="FreeSans" font-size="10.00" fill="#000000">CaloEvaluator::process</text>
<text text-anchor="middle" x="446" y="-329.5" font-family="FreeSans" font-size="10.00" fill="#000000">_event</text>
</a>
</g>
</g>
<!-- Node2&#45;&gt;Node3 -->
<g id="edge2" class="edge">
<title>Node2&#45;&gt;Node3</title>
<path fill="none" stroke="#191970" d="M328.0571,-393.2029C333.4874,-391.3802 338.8557,-389.4725 344,-387.5 368.7636,-378.0045 395.7747,-364.8973 415.7763,-354.6283"/>
<polygon fill="#191970" stroke="#191970" points="326.6805,-389.9699 318.2505,-396.3876 328.8427,-396.6277 326.6805,-389.9699"/>
</g>
<!-- Node6&#45;&gt;Node3 -->
<g id="edge6" class="edge">
<title>Node6&#45;&gt;Node3</title>
<path fill="none" stroke="#191970" d="M320.4086,-278.0414C328.4378,-280.2318 336.4787,-282.7161 344,-285.5 370.763,-295.4059 399.4534,-310.7825 419.5672,-322.4271"/>
<polygon fill="#191970" stroke="#191970" points="321.2144,-274.6347 310.6562,-275.5152 319.459,-281.411 321.2144,-274.6347"/>
</g>
</g>
</svg>
